<?xml version="1.0" standalone="no"?>
<!DOCTYPE svg PUBLIC "-//W3C//DTD SVG 1.1//EN"
"http://www.w3.org/Graphics/SVG/1.1/DTD/svg11.dtd">
<svg height="1800" version="1.1" width="1800" xmlns="http://www.w3.org/2000/svg"><defs><style type="text/css">@font-face {font-family: 'Frutiger';font-style: normal;font-weight: normal;src: local('Frutiger'), url('../fonts/Frutiger.woff') format('woff');}@font-face {font-family: 'Frutiger Bold';font-style: normal;font-weight: normal;src: local('Frutiger Bold'), url('../fonts/Frutiger_bold.woff') format('woff');}        </style>    </defs>    <rect x="20" y="20"  width="250" height="350" rx="15" fill="#009639" />    <rect x="35" y="35"  width="220" height="145" rx="15" fill="#E8EDEE" /><ns0:svg xmlns:ns0="http://www.w3.org/2000/svg" height="115" version="1.1" viewBox="23414 -6722356 37905 21381" width="220" x="35" y="50"><ns0:polygon fill="#006747" points=" 43634,-6721981 43638,-6721904 43637,-6721846 43638,-6721802 43638,-6721731 43640,-6721638 43642,-6721567 43645,-6721504 43651,-6721415 43677,-6721240 43726,-6721005 43742,-6720943 43758,-6720872 43771,-6720819 43785,-6720755 43789,-6720713 43792,-6720616 43807,-6720535 43851,-6720541 43892,-6720546 43976,-6720551 44045,-6720557 44195,-6720566 44333,-6720577 44356,-6720577 44373,-6720559 44374,-6720559 44384,-6720562 44392,-6720588 44391,-6720615 44437,-6720639 44474,-6720636 44523,-6720642 44570,-6720643 44601,-6720643 44611,-6720644 44659,-6720654 44685,-6720658 44698,-6720677 44728,-6720686 44764,-6720689 44784,-6720688 44806,-6720687 44839,-6720682 44905,-6720671 44937,-6720665 45007,-6720645 45054,-6720635 45082,-6720596 45117,-6720594 45234,-6720556 45274,-6720550 45323,-6720556 45374,-6720543 45428,-6720525 45466,-6720514 45476,-6720511 45601,-6720498 45652,-6720500 45677,-6720503 45702,-6720506 45713,-6720512 45723,-6720515 45733,-6720516 45742,-6720516 45756,-6720511 45761,-6720508 45768,-6720502 45774,-6720495 45780,-6720485 45793,-6720471 45913,-6720474 45946,-6720477 45977,-6720480 45989,-6720486 46018,-6720488 46048,-6720491 46092,-6720501 46150,-6720505 46167,-6720498 46177,-6720485 46272,-6720488 46318,-6720483 46344,-6720466 46363,-6720458 46374,-6720455 46386,-6720453 46399,-6720452 46428,-6720453 46439,-6720451 46450,-6720448 46464,-6720442 46495,-6720421 46508,-6720405 46517,-6720396 46531,-6720385 46549,-6720376 46607,-6720349 46617,-6720306 46643,-6720256 46668,-6720198 46693,-6720161 46728,-6720086 46759,-6720027 46776,-6719986 46803,-6719896 46809,-6719875 46844,-6719738 46851,-6719723 46855,-6719717 46874,-6719696 46854,-6719661 46815,-6719620 46738,-6719547 46715,-6719570 46679,-6719533 46695,-6719511 46623,-6719436 46532,-6719358 46559,-6719311 46629,-6719265 46660,-6719289 46677,-6719299 46693,-6719308 46728,-6719325 46785,-6719347 46896,-6719412 46910,-6719419 46924,-6719426 46964,-6719434 46995,-6719439 47022,-6719477 47047,-6719491 47121,-6719502 47181,-6719520 47204,-6719544 47221,-6719576 47238,-6719614 47249,-6719668 47301,-6719646 47388,-6719589 47433,-6719557 47477,-6719521 47491,-6719500 47472,-6719475 47452,-6719444 47455,-6719427 47430,-6719375 47407,-6719336 47383,-6719272 47372,-6719267 47357,-6719222 47347,-6719204 47345,-6719202 47318,-6719194 47303,-6719176 47289,-6719115 47288,-6719108 47280,-6719035 47288,-6718970 47295,-6718928 47296,-6718903 47298,-6718878 47291,-6718823 47325,-6718828 47344,-6718834 47382,-6718849 47472,-6718885 47485,-6718822 47502,-6718758 47513,-6718707 47523,-6718666 47527,-6718623 47533,-6718562 47541,-6718503 47554,-6718485 47570,-6718450 47577,-6718423 47596,-6718364 47601,-6718344 47608,-6718307 47610,-6718293 47689,-6718302 47703,-6718306 47705,-6718307 47711,-6718329 47719,-6718334 47725,-6718366 47735,-6718387 47755,-6718393 47830,-6718415 47874,-6718432 47911,-6718449 47907,-6718503 47910,-6718551 47908,-6718593 47896,-6718667 47885,-6718717 47865,-6718852 47861,-6718900 47860,-6718953 47942,-6718962 47978,-6719115 48131,-6719107 48278,-6719094 48424,-6719084 48462,-6719079 48459,-6719066 48459,-6719060 48460,-6719053 48462,-6719046 48465,-6719041 48469,-6719036 48475,-6719032 48482,-6719029 48509,-6719023 48511,-6719022 48514,-6719020 48514,-6719013 48507,-6718993 48506,-6718985 48508,-6718976 48526,-6718937 48536,-6718885 48547,-6718832 48554,-6718766 48559,-6718725 48564,-6718683 48571,-6718631 48597,-6718545 48683,-6718544 48706,-6718477 48763,-6718497 48809,-6718515 48875,-6718525 48876,-6718524 48883,-6718517 48892,-6718494 48938,-6718378 48959,-6718327 48973,-6718290 48991,-6718303 49023,-6718336 49037,-6718348 49068,-6718373 49089,-6718388 49101,-6718395 49115,-6718399 49125,-6718398 49144,-6718393 49153,-6718391 49159,-6718391 49166,-6718393 49174,-6718396 49179,-6718399 49228,-6718441 49253,-6718447 49283,-6718446 49293,-6718450 49302,-6718455 49341,-6718485 49403,-6718523 49381,-6718579 49360,-6718629 49335,-6718665 49306,-6718695 49321,-6718701 49349,-6718708 49450,-6718753 49442,-6718768 49423,-6718796 49406,-6718847 49394,-6718890 49366,-6718979 49387,-6718988 49508,-6719021 49519,-6719014 49601,-6719033 49629,-6719040 49629,-6719082 49624,-6719167 49622,-6719317 49653,-6719320 49650,-6719375 49697,-6719347 49713,-6719335 49723,-6719330 49739,-6719325 49753,-6719324 49768,-6719327 49778,-6719331 49833,-6719340 49913,-6719346 49960,-6719352 50025,-6719359 50105,-6719374 50142,-6719388 50161,-6719398 50202,-6719418 50305,-6719457 50358,-6719486 50355,-6719511 50669,-6719618 50805,-6719623 50854,-6719624 50892,-6719643 50937,-6719657 50953,-6719661 50983,-6719663 50991,-6719662 50999,-6719661 51048,-6719636 51065,-6719620 51113,-6719570 51151,-6719594 51167,-6719609 51182,-6719624 51223,-6719678 51237,-6719690 51283,-6719726 51308,-6719741 51316,-6719748 51325,-6719755 51351,-6719782 51383,-6719798 51376,-6719819 51387,-6719827 51441,-6719712 51516,-6719596 51604,-6719468 51633,-6719422 51641,-6719401 51657,-6719406 51677,-6719342 51709,-6719278 51792,-6719140 51825,-6719051 51848,-6718984 51905,-6718870 51980,-6718691 51986,-6718662 51987,-6718649 51981,-6718630 51959,-6718578 51983,-6718583 52002,-6718572 52013,-6718571 52019,-6718573 52053,-6718589 52263,-6718632 52281,-6718644 52293,-6718648 52302,-6718648 52311,-6718646 52330,-6718630 52338,-6718628 52347,-6718625 52521,-6718589 52664,-6718537 52715,-6718523 52757,-6718514 52802,-6718521 52814,-6718531 52817,-6718534 52834,-6718563 52837,-6718566 52846,-6718573 52854,-6718582 52865,-6718601 52866,-6718607 52869,-6718626 52870,-6718630 52872,-6718635 52876,-6718639 52884,-6718644 52888,-6718646 52922,-6718651 52949,-6718651 52986,-6718646 53018,-6718632 53128,-6718662 53165,-6718662 53349,-6718748 53385,-6718754 53422,-6718766 53467,-6718790 53472,-6718793 53522,-6718882 53550,-6718900 53590,-6718911 53619,-6718915 53651,-6718915 53735,-6718860 53769,-6718834 53806,-6718814 53837,-6718808 53931,-6718795 53972,-6718784 53992,-6718770 54004,-6718764 54025,-6718738 54046,-6718704 54070,-6718649 54073,-6718615 54073,-6718606 54071,-6718596 54069,-6718586 54051,-6718541 54037,-6718500 54031,-6718460 54034,-6718443 54044,-6718422 54052,-6718411 54061,-6718401 54066,-6718397 54079,-6718391 54103,-6718385 54120,-6718383 54223,-6718373 54239,-6718368 54263,-6718357 54280,-6718344 54293,-6718326 54304,-6718302 54317,-6718270 54315,-6718220 54313,-6718200 54236,-6718089 54228,-6718074 54212,-6718028 54210,-6718019 54208,-6718000 54212,-6717965 54218,-6717952 54265,-6717919 54286,-6717915 54308,-6717919 54345,-6717932 54391,-6717952 54416,-6717966 54427,-6717974 54447,-6717997 54474,-6718024 54517,-6718070 54528,-6718081 54545,-6718091 54596,-6718098 54649,-6718091 54654,-6718088 54685,-6718063 54709,-6718039 54723,-6718015 54735,-6717951 54735,-6717928 54732,-6717903 54721,-6717858 54717,-6717846 54703,-6717816 54688,-6717793 54605,-6717711 54588,-6717690 54573,-6717659 54568,-6717647 54565,-6717634 54562,-6717621 54563,-6717606 54566,-6717570 54625,-6717486 54702,-6717417 54744,-6717384 54822,-6717339 54857,-6717320 54927,-6717283 55002,-6717245 55041,-6717227 55145,-6717184 55197,-6717165 55250,-6717147 55338,-6717122 55411,-6717105 55507,-6717082 55552,-6717072 55579,-6717058 55609,-6717044 55631,-6717032 55688,-6717019 55762,-6717018 55794,-6717032 55811,-6717042 55828,-6717052 55896,-6717100 55913,-6717112 55959,-6717140 56004,-6717164 56037,-6717175 56070,-6717181 56111,-6717182 56182,-6717181 56234,-6717166 56289,-6717140 56334,-6717113 56345,-6717097 56376,-6717054 56384,-6717035 56392,-6717008 56404,-6716982 56416,-6716956 56439,-6716919 56500,-6716853 56519,-6716841 56540,-6716820 56560,-6716805 56576,-6716786 56587,-6716765 56598,-6716740 56616,-6716693 56619,-6716682 56621,-6716671 56629,-6716631 56629,-6716593 56688,-6716578 56745,-6716512 56770,-6716479 56810,-6716431 56857,-6716361 56885,-6716321 56894,-6716308 56910,-6716291 56912,-6716289 56946,-6716304 56980,-6716228 57016,-6716156 57072,-6716036 57072,-6716035 57097,-6715987 57116,-6715940 57131,-6715920 57141,-6715883 57145,-6715871 57179,-6715798 57186,-6715784 57190,-6715780 57227,-6715767 57235,-6715762 57243,-6715756 57261,-6715741 57308,-6715694 57326,-6715682 57349,-6715672 57356,-6715670 57363,-6715670 57370,-6715670 57384,-6715676 57391,-6715683 57393,-6715696 57397,-6715702 57408,-6715692 57410,-6715680 57402,-6715670 57382,-6715657 57386,-6715650 57410,-6715641 57420,-6715636 57459,-6715611 57480,-6715603 57525,-6715582 57592,-6715554 57585,-6715531 57579,-6715507 57575,-6715499 57572,-6715493 57561,-6715486 57414,-6715453 57469,-6715408 57490,-6715389 57510,-6715371 57585,-6715295 57641,-6715224 57655,-6715201 57669,-6715179 57708,-6715103 57722,-6715079 57728,-6715068 57755,-6715010 57766,-6714987 57795,-6714931 57804,-6714911 57856,-6714788 57878,-6714740 57900,-6714688 57922,-6714627 57932,-6714568 57938,-6714493 57936,-6714407 57930,-6714320 57928,-6714236 57922,-6714195 57913,-6714151 57899,-6714043 57891,-6713999 57883,-6713939 57881,-6713919 57879,-6713882 57880,-6713843 57886,-6713802 57889,-6713769 57894,-6713741 57900,-6713712 57924,-6713619 57935,-6713590 57948,-6713542 57959,-6713519 57975,-6713496 57982,-6713481 57986,-6713476 58018,-6713431 58071,-6713355 58090,-6713331 58104,-6713315 58118,-6713303 58146,-6713279 58261,-6713179 58295,-6713141 58315,-6713119 58343,-6713091 58393,-6713045 58408,-6713034 58424,-6713025 58441,-6713017 58464,-6713011 58519,-6713008 58554,-6713006 58606,-6713001 58634,-6713002 58678,-6713006 58698,-6713010 58733,-6713018 58766,-6713029 58797,-6713042 58811,-6713048 58834,-6713061 58864,-6713079 58902,-6713099 58956,-6713130 58979,-6713145 59011,-6713168 59044,-6713193 59209,-6713338 59263,-6713395 59281,-6713414 59307,-6713438 59347,-6713473 59359,-6713490 59377,-6713515 59399,-6713537 59423,-6713558 59449,-6713575 59462,-6713583 59483,-6713593 59527,-6713625 59549,-6713639 59573,-6713654 59606,-6713672 59630,-6713684 59671,-6713702 59682,-6713706 59714,-6713716 59758,-6713728 59796,-6713737 59823,-6713743 59879,-6713752 59941,-6713759 59976,-6713760 59993,-6713761 60010,-6713760 60042,-6713758 60068,-6713754 60096,-6713748 60119,-6713742 60143,-6713734 60186,-6713717 60212,-6713705 60248,-6713687 60356,-6713628 60391,-6713606 60458,-6713564 60490,-6713542 60536,-6713509 60567,-6713488 60604,-6713458 60625,-6713437 60645,-6713414 60668,-6713385 60811,-6713237 60960,-6713081 60983,-6713055 61000,-6713034 61033,-6712992 61063,-6712949 61139,-6712830 61158,-6712797 61175,-6712764 61186,-6712739 61197,-6712713 61217,-6712658 61295,-6712419 61301,-6712398 61307,-6712372 61312,-6712345 61316,-6712318 61318,-6712294 61319,-6712269 61319,-6712242 61318,-6712215 61318,-6712114 61316,-6712059 61312,-6711952 61303,-6711538 61295,-6711259 61288,-6710971 61280,-6710794 61276,-6710634 61158,-6710659 61007,-6710689 60988,-6710692 60942,-6710695 60911,-6710699 60883,-6710703 60855,-6710709 60825,-6710717 60795,-6710726 60753,-6710741 60688,-6710749 60642,-6710755 60561,-6710769 60490,-6710766 60436,-6710766 60381,-6710766 60334,-6710768 60196,-6710775 60147,-6710776 60089,-6710776 59969,-6710780 59826,-6710755 59678,-6710740 59628,-6710729 59588,-6710721 59547,-6710715 59507,-6710710 59493,-6710709 59422,-6710708 59219,-6710697 59090,-6710691 59055,-6710688 59000,-6710684 58890,-6710675 58845,-6710669 58821,-6710666 58748,-6710651 58711,-6710642 58583,-6710622 58533,-6710612 58465,-6710602 58432,-6710597 58295,-6710585 58260,-6710583 58225,-6710583 58130,-6710557 57883,-6710485 57822,-6710468 57723,-6710442 57696,-6710436 57628,-6710419 57570,-6710407 57510,-6710393 57456,-6710377 57409,-6710361 57384,-6710355 57359,-6710349 57253,-6710332 57173,-6710311 57147,-6710303 57124,-6710295 57032,-6710259 56983,-6710241 56907,-6710215 56848,-6710198 56794,-6710185 56631,-6710155 56509,-6710134 56351,-6710115 56217,-6710102 56155,-6710106 56092,-6710113 56011,-6710116 55884,-6710126 55821,-6710127 55676,-6710136 55540,-6710134 55485,-6710131 55370,-6710127 55252,-6710118 55160,-6710109 55128,-6710107 55074,-6710105 54964,-6710090 54866,-6710072 54815,-6710059 54547,-6709971 54460,-6709944 54301,-6709893 54141,-6709846 53902,-6709780 53831,-6709758 53796,-6709748 53691,-6709721 53615,-6709698 53524,-6709675 53385,-6709634 53087,-6709552 53048,-6709539 52958,-6709514 52911,-6709498 52826,-6709464 52811,-6709458 52780,-6709448 52719,-6709420 52656,-6709391 52635,-6709379 52619,-6709372 52608,-6709367 52442,-6709273 52402,-6709248 52238,-6709140 52177,-6709093 52121,-6709043 52100,-6709019 52076,-6708993 52057,-6708968 52055,-6708961 51847,-6708720 51719,-6708572 51581,-6708416 51450,-6708261 51293,-6708086 51168,-6707940 51058,-6707802 51043,-6707779 51028,-6707757 50985,-6707687 50925,-6707593 50893,-6707536 50750,-6707254 50716,-6707183 50595,-6706924 50565,-6706844 50531,-6706748 50454,-6706548 50414,-6706426 50363,-6706235 50329,-6706091 50245,-6705634 50183,-6705345 50105,-6704996 50011,-6704568 50004,-6704537 49822,-6703845 49773,-6703685 49735,-6703537 49658,-6703322 49638,-6703280 49622,-6703245 49558,-6703093 49492,-6702950 49462,-6702879 49421,-6702799 49353,-6702656 49315,-6702579 49306,-6702566 49290,-6702546 49265,-6702504 49234,-6702459 49209,-6702428 49184,-6702399 49147,-6702360 49117,-6702333 49095,-6702315 49060,-6702291 48941,-6702230 48855,-6702190 48779,-6702163 48655,-6702115 47379,-6701642 47181,-6701568 46866,-6701456 46678,-6701391 46464,-6701314 46291,-6701262 46082,-6701193 45899,-6701141 45870,-6701131 45741,-6701106 45515,-6701075 45281,-6701053 45117,-6701038 45013,-6701029 44908,-6701021 44804,-6701014 44727,-6701009 44606,-6701011 44587,-6701011 44342,-6701007 43950,-6700997 43758,-6700996 43613,-6700992 43500,-6700986 43366,-6700989 43216,-6700990 43098,-6700991 42853,-6700999 42709,-6701000 42650,-6701001 42531,-6701004 42260,-6701012 42170,-6701012 41888,-6701006 41833,-6701001 41789,-6701000 41678,-6701002 41536,-6701001 41362,-6700998 41191,-6700996 41067,-6700991 40904,-6700986 40651,-6700983 40495,-6700977 40403,-6700975 40287,-6700980 40216,-6700979 40152,-6700976 40094,-6700975 39952,-6700977 39632,-6700987 39501,-6700995 39401,-6700998 39344,-6701001 39281,-6701007 39250,-6701010 39116,-6701027 39012,-6701038 38869,-6701059 38839,-6701059 38804,-6701068 38703,-6701082 38572,-6701101 38505,-6701116 38343,-6701145 38250,-6701171 38191,-6701179 38088,-6701205 38002,-6701223 37893,-6701253 37848,-6701260 37769,-6701294 37724,-6701317 37679,-6701335 37637,-6701358 37604,-6701372 37563,-6701401 37491,-6701448 37447,-6701473 37312,-6701558 37275,-6701579 37227,-6701612 37213,-6701623 37198,-6701634 37144,-6701690 37111,-6701728 37054,-6701787 37034,-6701827 37015,-6701869 36961,-6702002 36931,-6702064 36857,-6702249 36798,-6702386 36779,-6702439 36741,-6702535 36676,-6702705 36630,-6702802 36626,-6702811 36518,-6703049 36417,-6703267 36279,-6703557 36184,-6703738 36140,-6703812 36115,-6703855 36076,-6703915 36021,-6703996 35982,-6704065 35952,-6704110 35930,-6704146 35918,-6704165 35900,-6704191 35894,-6704200 35796,-6704325 35758,-6704372 35731,-6704408 35718,-6704423 35697,-6704445 35682,-6704460 35594,-6704538 35509,-6704601 35367,-6704688 35347,-6704700 35291,-6704733 35282,-6704738 35117,-6704813 35033,-6704842 34962,-6704860 34888,-6704875 34816,-6704880 34736,-6704883 34733,-6704883 34592,-6704879 34554,-6704878 34434,-6704871 34344,-6704863 34271,-6704860 34109,-6704836 33965,-6704807 33896,-6704788 33844,-6704770 33762,-6704722 33698,-6704666 33638,-6704611 33510,-6704464 33455,-6704410 33317,-6704272 32997,-6703929 32870,-6703781 32774,-6703673 32744,-6703635 32551,-6703412 32418,-6703261 32345,-6703172 32320,-6703145 32207,-6703033 32128,-6702955 32098,-6702927 32047,-6702882 32003,-6702850 31944,-6702815 31920,-6702800 31777,-6702722 31719,-6702694 31677,-6702676 31656,-6702668 31626,-6702658 31447,-6702617 31411,-6702611 31375,-6702606 31272,-6702597 31140,-6702599 31087,-6702602 31015,-6702606 30956,-6702610 30873,-6702622 30832,-6702629 30729,-6702645 30696,-6702653 30616,-6702676 30541,-6702702 30484,-6702723 30440,-6702742 30357,-6702782 30288,-6702812 30275,-6702819 30251,-6702834 30219,-6702858 30111,-6702924 30053,-6702964 29990,-6703004 29943,-6703037 29834,-6703130 29788,-6703175 29745,-6703213 29644,-6703305 29548,-6703380 29462,-6703455 29431,-6703478 29403,-6703501 29302,-6703580 29188,-6703668 29170,-6703680 29020,-6703771 28981,-6703797 28864,-6703864 28703,-6703961 28648,-6703994 28600,-6704019 28471,-6704093 28188,-6704264 28139,-6704296 27940,-6704435 27858,-6704489 27770,-6704554 27565,-6704696 27336,-6704862 27298,-6704890 27142,-6705012 27117,-6705035 27100,-6705050 27080,-6705066 27055,-6705085 27037,-6705100 27034,-6705102 26845,-6705263 26807,-6705298 26482,-6705600 26409,-6705670 26245,-6705836 26122,-6705957 25997,-6706079 25856,-6706207 25819,-6706241 25677,-6706366 25653,-6706391 25534,-6706499 25479,-6706547 25437,-6706583 25404,-6706607 25384,-6706624 25365,-6706641 25356,-6706650 25294,-6706720 25264,-6706752 25195,-6706821 25152,-6706860 25132,-6706880 24952,-6707011 24902,-6707049 24727,-6707169 24523,-6707306 24487,-6707329 24380,-6707395 24340,-6707417 24207,-6707504 24179,-6707520 24152,-6707532 24126,-6707544 24082,-6707563 24058,-6707570 23845,-6707639 23805,-6707650 23778,-6707655 23665,-6707676 23549,-6707689 23497,-6707692 23414,-6707694 23418,-6707948 23423,-6708106 23427,-6708353 23429,-6708436 23438,-6708474 23485,-6708490 23510,-6708504 23525,-6708515 23530,-6708529 23536,-6708553 23537,-6708592 23544,-6708594 23554,-6708598 23581,-6708608 23586,-6708610 23590,-6708614 23592,-6708617 23598,-6708656 23601,-6708679 23605,-6708731 23609,-6708818 23616,-6708862 23630,-6708880 23636,-6708891 23639,-6708902 23641,-6708922 23645,-6708934 23648,-6708941 23653,-6708948 23684,-6708987 23690,-6709006 23693,-6709020 23693,-6709027 23695,-6709113 23694,-6709130 23694,-6709138 23697,-6709153 23701,-6709165 23699,-6709191 23696,-6709201 23694,-6709208 23694,-6709214 23695,-6709222 23700,-6709235 23719,-6709328 23733,-6709329 23749,-6709326 23758,-6709325 23771,-6709327 23789,-6709382 23807,-6709421 23823,-6709471 23839,-6709510 23853,-6709517 23860,-6709515 23869,-6709527 23906,-6709562 23929,-6709585 23936,-6709590 23948,-6709597 23968,-6709604 23969,-6709604 23979,-6709611 23987,-6709614 23996,-6709615 24001,-6709615 24015,-6709602 24040,-6709586 24077,-6709597 24159,-6709608 24170,-6709613 24175,-6709616 24192,-6709630 24217,-6709645 24226,-6709650 24245,-6709658 24262,-6709667 24290,-6709687 24310,-6709700 24361,-6709717 24431,-6709731 24438,-6709733 24445,-6709737 24448,-6709740 24449,-6709755 24453,-6709763 24503,-6709777 24610,-6709813 24652,-6709822 24674,-6709827 24689,-6709828 24706,-6709827 24748,-6709820 24782,-6709822 24821,-6709824 24862,-6709830 24878,-6709834 24879,-6709834 24891,-6709844 24893,-6709833 24894,-6709831 24913,-6709803 24938,-6709779 24967,-6709738 24968,-6709738 24975,-6709740 25002,-6709754 25050,-6709770 25090,-6709786 25127,-6709811 25147,-6709826 25197,-6709861 25260,-6709916 25304,-6709958 25336,-6709990 25343,-6709993 25353,-6709990 25365,-6710009 25370,-6710015 25412,-6710036 25453,-6710059 25486,-6710074 25542,-6710089 25575,-6710095 25599,-6710105 25556,-6710206 25510,-6710300 25462,-6710399 25422,-6710498 25388,-6710582 25359,-6710663 25344,-6710718 25339,-6710761 25330,-6710796 25321,-6710821 25317,-6710831 25276,-6710916 25241,-6710985 25226,-6711021 25225,-6711067 25215,-6711111 25202,-6711153 25182,-6711191 25161,-6711248 25165,-6711255 25165,-6711257 25160,-6711270 25202,-6711279 25218,-6711383 25219,-6711385 25220,-6711386 25221,-6711388 25222,-6711389 25223,-6711391 25224,-6711392 25226,-6711394 25227,-6711395 25228,-6711396 25230,-6711398 25230,-6711398 25231,-6711399 25233,-6711399 25234,-6711400 25235,-6711400 25236,-6711401 25237,-6711401 25240,-6711402 25241,-6711402 25242,-6711402 25247,-6711404 25253,-6711406 25258,-6711407 25264,-6711409 25270,-6711410 25275,-6711411 25281,-6711412 25287,-6711412 25293,-6711413 25298,-6711413 25304,-6711413 25305,-6711413 25433,-6711430 25487,-6711435 25546,-6711436 25602,-6711434 25652,-6711428 25691,-6711419 25722,-6711417 25782,-6711416 25811,-6711414 25830,-6711407 25849,-6711404 25882,-6711403 25959,-6711409 25986,-6711411 26022,-6711427 26057,-6711442 26086,-6711450 26118,-6711460 26144,-6711462 26160,-6711458 26172,-6711457 26210,-6711461 26261,-6711467 26412,-6711487 26615,-6711514 26699,-6711520 26705,-6711527 26717,-6711541 26714,-6711562 26721,-6711568 26712,-6711578 26716,-6711597 26775,-6711607 26801,-6711612 26840,-6711620 26876,-6711629 26916,-6711636 26930,-6711642 26925,-6711663 26923,-6711672 26940,-6711669 26941,-6711669 26942,-6711717 26943,-6711758 26931,-6711849 26922,-6711931 26901,-6712014 26877,-6712082 26883,-6712118 26851,-6712104 26818,-6712102 26792,-6712100 26791,-6712100 26791,-6712099 26790,-6712099 26789,-6712099 26789,-6712098 26788,-6712098 26787,-6712098 26786,-6712098 26786,-6712098 26785,-6712098 26784,-6712098 26783,-6712098 26783,-6712098 26782,-6712098 26781,-6712098 26780,-6712098 26779,-6712099 26779,-6712099 26778,-6712099 26777,-6712100 26777,-6712100 26776,-6712101 26776,-6712101 26775,-6712102 26775,-6712103 26775,-6712103 26774,-6712104 26774,-6712105 26774,-6712106 26773,-6712106 26772,-6712108 26772,-6712110 26771,-6712111 26771,-6712112 26771,-6712114 26770,-6712115 26770,-6712117 26770,-6712118 26769,-6712121 26769,-6712124 26769,-6712126 26769,-6712129 26769,-6712132 26769,-6712134 26769,-6712136 26769,-6712144 26750,-6712142 26758,-6712175 26758,-6712217 26750,-6712257 26749,-6712344 26747,-6712385 26744,-6712413 26735,-6712464 26732,-6712479 26720,-6712515 26713,-6712553 26715,-6712587 26736,-6712601 26750,-6712607 26766,-6712612 26808,-6712622 26819,-6712652 26843,-6712677 26826,-6712717 26788,-6712788 26765,-6712840 26729,-6712886 26665,-6713025 26649,-6713085 26555,-6713302 26512,-6713401 26402,-6713677 26484,-6713683 26706,-6713686 26738,-6713680 26755,-6713674 26769,-6713669 26834,-6713633 27074,-6713524 27154,-6713498 27186,-6713515 27251,-6713563 27257,-6713568 27262,-6713574 27266,-6713580 27269,-6713586 27272,-6713596 27271,-6713609 27268,-6713622 27221,-6713709 27187,-6713753 27210,-6713798 27236,-6713823 27220,-6713850 27211,-6713862 27195,-6713880 27147,-6713912 27122,-6713924 27106,-6713930 27083,-6713937 27062,-6713944 27044,-6713948 27025,-6713951 26991,-6713955 26960,-6713963 26913,-6713978 26847,-6714003 26797,-6714012 26791,-6714050 26789,-6714112 26789,-6714124 26794,-6714146 26797,-6714156 26805,-6714172 26808,-6714179 26820,-6714217 26832,-6714262 26839,-6714274 26846,-6714282 26857,-6714290 26886,-6714320 26939,-6714382 26978,-6714437 27021,-6714518 27025,-6714529 27030,-6714547 27034,-6714582 27247,-6714483 27366,-6714425 27385,-6714457 27410,-6714515 27423,-6714516 27427,-6714516 27434,-6714520 27440,-6714524 27444,-6714529 27458,-6714552 27461,-6714561 27503,-6714696 27505,-6714707 27506,-6714720 27506,-6714733 27503,-6714746 27496,-6714768 27476,-6714801 27425,-6714900 27416,-6714914 27413,-6714922 27411,-6714928 27411,-6714936 27412,-6714945 27413,-6714951 27416,-6714956 27420,-6714964 27431,-6714979 27481,-6715024 27543,-6715064 27639,-6715147 27705,-6715121 27714,-6715215 27714,-6715348 27753,-6715359 27807,-6715365 27907,-6715372 27924,-6715374 27932,-6715340 27938,-6715308 27946,-6715273 27961,-6715223 27988,-6715139 27991,-6715082 27997,-6715021 27998,-6714970 27995,-6714934 27997,-6714896 28000,-6714864 28015,-6714816 28035,-6714771 28060,-6714724 28073,-6714705 28080,-6714687 28089,-6714653 28097,-6714606 28106,-6714516 28105,-6714476 28100,-6714432 28104,-6714395 28112,-6714344 28121,-6714282 28125,-6714221 28137,-6714171 28158,-6714106 28179,-6714038 28195,-6713975 28206,-6713919 28210,-6713873 28210,-6713831 28212,-6713799 28219,-6713771 28220,-6713769 28229,-6713730 28240,-6713683 28243,-6713632 28249,-6713525 28256,-6713418 28283,-6713420 28321,-6713411 28338,-6713406 28353,-6713401 28366,-6713393 28371,-6713392 28381,-6713392 28399,-6713393 28421,-6713391 28453,-6713381 28467,-6713379 28476,-6713380 28487,-6713381 28496,-6713384 28502,-6713387 28515,-6713394 28544,-6713405 28551,-6713406 28559,-6713407 28565,-6713406 28575,-6713400 28580,-6713399 28586,-6713398 28594,-6713399 28633,-6713407 28647,-6713412 28654,-6713413 28665,-6713414 28687,-6713413 28712,-6713408 28724,-6713407 28730,-6713408 28756,-6713413 28788,-6713410 28793,-6713408 28810,-6713397 28818,-6713395 28823,-6713396 28837,-6713400 28864,-6713404 28883,-6713404 28886,-6713406 28888,-6713409 28887,-6713424 28883,-6713432 28881,-6713437 28881,-6713441 28884,-6713451 28893,-6713463 28918,-6713484 28940,-6713492 28958,-6713495 28965,-6713501 28971,-6713503 28976,-6713504 28985,-6713504 29003,-6713500 29041,-6713483 29099,-6713451 29112,-6713439 29121,-6713433 29128,-6713431 29141,-6713428 29165,-6713426 29199,-6713426 29247,-6713425 29353,-6713415 29363,-6713473 29373,-6713554 29381,-6713846 29382,-6713875 29387,-6713946 29392,-6713990 29396,-6714012 29406,-6714058 29416,-6714090 29424,-6714110 29500,-6714315 29576,-6714322 29682,-6714325 29689,-6714388 29695,-6714481 29694,-6714603 29652,-6714610 29593,-6714614 29581,-6714617 29574,-6714621 29562,-6714630 29557,-6714635 29553,-6714643 29545,-6714665 29542,-6714682 29542,-6714691 29551,-6714821 29555,-6715121 29556,-6715197 29551,-6715340 29551,-6715509 29538,-6715970 29612,-6715979 29624,-6715982 29663,-6715990 29744,-6716011 29796,-6716028 29932,-6716079 29970,-6716096 29990,-6716103 30020,-6716113 30134,-6716139 30293,-6716158 30331,-6716159 30351,-6716158 30385,-6716155 30405,-6716152 30441,-6716144 30458,-6716138 30493,-6716126 30511,-6716121 30536,-6716115 30560,-6716112 30576,-6716111 30608,-6716112 30621,-6716113 30654,-6716120 30660,-6716122 30699,-6716139 30749,-6716154 30762,-6716109 30882,-6716149 30991,-6716182 31119,-6716214 31255,-6716261 31365,-6716290 31447,-6716300 31556,-6716317 31619,-6716323 31689,-6716333 31783,-6716339 31832,-6716350 31911,-6716360 31942,-6716377 31957,-6716381 31982,-6716387 32007,-6716392 32021,-6716394 32068,-6716400 32098,-6716402 32165,-6716400 32267,-6716401 32341,-6716388 32331,-6716419 32382,-6716424 32435,-6716433 32503,-6716441 32605,-6716457 32728,-6716469 32828,-6716491 32897,-6716500 33145,-6716537 33142,-6716593 33129,-6716663 33108,-6716787 33084,-6716956 33119,-6716964 33278,-6716999 33491,-6717041 33484,-6717106 33476,-6717152 33515,-6717159 33692,-6717178 33805,-6717187 33901,-6717197 34034,-6717214 34103,-6717220 34106,-6717210 34133,-6717212 34155,-6717215 34231,-6717224 34416,-6717239 34432,-6717246 34483,-6717246 34513,-6717248 34565,-6717258 34567,-6717312 34673,-6717323 34727,-6717326 34769,-6717332 34847,-6717338 34876,-6717343 34941,-6717351 35003,-6717361 35092,-6717364 35096,-6717354 35155,-6717360 35223,-6717371 35276,-6717374 35279,-6717389 35342,-6717396 35596,-6717433 35690,-6717447 35792,-6717465 35894,-6717467 36015,-6717474 36147,-6717488 36210,-6717491 36299,-6717493 36346,-6717490 36403,-6717494 36443,-6717499 36498,-6717503 36640,-6717506 36694,-6717507 36749,-6717508 36805,-6717511 36871,-6717511 36912,-6717517 36904,-6717503 36901,-6717492 36892,-6717446 36892,-6717408 36894,-6717383 37045,-6717425 37183,-6717465 37185,-6717494 37163,-6717550 37163,-6717566 37164,-6717573 37164,-6717578 37163,-6717583 37160,-6717586 37154,-6717591 37139,-6717596 37106,-6717601 37124,-6717670 37169,-6717821 37149,-6717868 37123,-6717931 37077,-6718058 37061,-6718092 37022,-6718174 36945,-6718329 36896,-6718438 36814,-6718437 36757,-6718430 36674,-6718418 36629,-6718413 36612,-6718419 36635,-6718473 36676,-6718550 36638,-6718619 36627,-6718635 36619,-6718650 36612,-6718664 36607,-6718677 36603,-6718691 36600,-6718702 36593,-6718752 36585,-6718780 36583,-6718786 36574,-6718804 36561,-6718827 36547,-6718848 36522,-6718878 36517,-6718885 36513,-6718896 36510,-6718907 36509,-6718920 36509,-6718933 36511,-6718949 36513,-6718988 36512,-6719002 36512,-6719064 36506,-6719252 36500,-6719322 36496,-6719335 36492,-6719343 36462,-6719374 36409,-6719422 36377,-6719447 36363,-6719459 36338,-6719487 36320,-6719509 36290,-6719552 36261,-6719590 36246,-6719611 36236,-6719626 36229,-6719639 36224,-6719652 36215,-6719679 36196,-6719712 36161,-6719711 36121,-6719715 36092,-6719712 35979,-6719681 35915,-6719661 35907,-6719658 35900,-6719657 35892,-6719657 35885,-6719659 35878,-6719663 35873,-6719668 35869,-6719673 35867,-6719678 35854,-6719754 35854,-6719817 35853,-6719878 35855,-6719884 35857,-6719892 35857,-6719900 35853,-6719911 35850,-6719916 35845,-6719922 35832,-6719931 35788,-6719953 35747,-6719968 35699,-6719989 35625,-6720030 35575,-6720056 35525,-6720082 35513,-6720086 35506,-6720089 35499,-6720094 35492,-6720100 35484,-6720109 35480,-6720116 35476,-6720128 35468,-6720232 35457,-6720334 35448,-6720379 35422,-6720403 35372,-6720442 35277,-6720512 35232,-6720541 35198,-6720542 35136,-6720536 35111,-6720553 35104,-6720559 35098,-6720567 35093,-6720577 35086,-6720597 35083,-6720612 35079,-6720677 35070,-6720765 35071,-6720776 35070,-6720782 35068,-6720787 35065,-6720792 35058,-6720798 35054,-6720800 35045,-6720801 35040,-6720822 35039,-6720867 35034,-6720930 35028,-6720981 35024,-6721037 35022,-6721054 35020,-6721095 35008,-6721181 35000,-6721228 34998,-6721242 34992,-6721265 34988,-6721292 34978,-6721325 34973,-6721332 34970,-6721342 34969,-6721348 34971,-6721359 34972,-6721361 34980,-6721366 34981,-6721371 34973,-6721390 34972,-6721395 34971,-6721416 34972,-6721428 34970,-6721443 34922,-6721626 34904,-6721641 34898,-6721656 34894,-6721704 34883,-6721765 34878,-6721841 34870,-6721874 34865,-6721908 34857,-6721932 34854,-6721947 34851,-6721963 34846,-6721997 34843,-6722019 35202,-6722059 35687,-6722106 36071,-6722148 36633,-6722201 36810,-6722219 36857,-6722234 37107,-6722260 37353,-6722285 37631,-6722316 37783,-6722331 37848,-6722336 37906,-6722336 37980,-6722327 37986,-6722327 38029,-6722331 38054,-6722331 38069,-6722342 38206,-6722353 38269,-6722356 38409,-6722345 38686,-6722330 38920,-6722307 39067,-6722289 39254,-6722269 39392,-6722254 40169,-6722177 40761,-6722115 41115,-6722081 41364,-6722058 41440,-6722050 41655,-6722032 41716,-6722026 41848,-6722015 42215,-6721982 42242,-6721982 42383,-6721984 42432,-6721987 42562,-6721988 42591,-6721998 42660,-6721998 42770,-6721980 42823,-6721977 42918,-6721975 42945,-6721978 42957,-6721980 42983,-6721989 43003,-6721998 43064,-6722020 43139,-6722053 43163,-6722065 43177,-6722069 43190,-6722072 43210,-6722074 43249,-6722076 43289,-6722086 43372,-6722112 43446,-6722146 43577,-6722223 43616,-6722247 43621,-6722243 43629,-6722214 43622,-6722205 43631,-6722078 43634,-6721981" stroke="#006747" stroke-width="59" /></ns0:svg>    <rect x="20" y="50"  width="250" height="25"  rx="0"  fill="#006747" fill-opacity="0.8" />    <text x="145" y="70" text-anchor="middle" font-family="Frutiger" font-weight="bold" font-size="30" fill="white">Thurrock</text>    <rect x="35" y="195" width="220" height="160" rx="15" fill="#78BE20"/>    <g font-family="Frutiger" font-size="15" fill="#231F20">        <g> <text x="45" y="218">Self-harm</text> <text x="245" y="218" text-anchor="end">12</text> </g>        <g> <text x="45" y="243">SEN</text> <text x="245" y="243" text-anchor="end">36</text> </g>        <g> <text x="45" y="268">Difficulties</text> <text x="245" y="268" text-anchor="end">64</text> </g>        <g> <text x="45" y="293">Child Carer</text> <text x="245" y="293" text-anchor="end">3</text> </g>        <g> <text x="45" y="318">Drinkers</text> <text x="245" y="318" text-anchor="end">35</text> </g>        <g> <text x="45" y="343">Safeguarding £</text> <text x="245" y="343" text-anchor="end">5</text> </g>    </g></svg>