<?xml version="1.0" standalone="no"?>
<!DOCTYPE svg PUBLIC "-//W3C//DTD SVG 1.1//EN"
"http://www.w3.org/Graphics/SVG/1.1/DTD/svg11.dtd">
<svg height="1800" version="1.1" width="1800" xmlns="http://www.w3.org/2000/svg"><defs><style type="text/css">@font-face {font-family: 'Frutiger';font-style: normal;font-weight: normal;src: local('Frutiger'), url('../fonts/Frutiger.woff') format('woff');}@font-face {font-family: 'Frutiger Bold';font-style: normal;font-weight: normal;src: local('Frutiger Bold'), url('../fonts/Frutiger_bold.woff') format('woff');}        </style>    </defs>    <rect x="20" y="20"  width="250" height="350" rx="15" fill="#AE2573" />    <rect x="35" y="35"  width="220" height="145" rx="15" fill="#330072" /><ns0:svg xmlns:ns0="http://www.w3.org/2000/svg" height="115" version="1.1" viewBox="-56319 -6787071 17369 13215" width="220" x="35" y="50"><ns0:polygon fill="white" points=" -47988,-6786923 -47957,-6786922 -47890,-6786922 -47775,-6786918 -47640,-6786904 -47517,-6786895 -47456,-6786887 -47426,-6786880 -47397,-6786869 -47309,-6786826 -47266,-6786814 -47228,-6786794 -47187,-6786808 -46941,-6786698 -46944,-6786591 -46956,-6786495 -46981,-6786398 -46986,-6786373 -46991,-6786347 -46997,-6786299 -46998,-6786272 -46998,-6786195 -47001,-6786128 -47012,-6785987 -47016,-6785890 -47017,-6785767 -47027,-6785703 -46987,-6785690 -46987,-6785647 -46954,-6785523 -46930,-6785437 -46923,-6785408 -46904,-6785333 -46892,-6785264 -46885,-6785224 -46878,-6785173 -46874,-6785122 -46873,-6785021 -46873,-6784988 -46875,-6784946 -46874,-6784916 -46871,-6784891 -46868,-6784867 -46864,-6784847 -46857,-6784816 -46834,-6784733 -46805,-6784638 -46801,-6784628 -46793,-6784611 -46781,-6784588 -46766,-6784560 -46750,-6784534 -46729,-6784502 -46698,-6784430 -46682,-6784395 -46650,-6784284 -46640,-6784287 -46634,-6784290 -46622,-6784300 -46569,-6784370 -46400,-6784265 -46328,-6784221 -46231,-6784171 -46170,-6784144 -45707,-6784057 -45369,-6783993 -45350,-6783991 -45329,-6783988 -45315,-6783985 -45269,-6783973 -45064,-6783900 -45011,-6783882 -44900,-6783847 -44799,-6783815 -44779,-6783886 -44674,-6784351 -44663,-6784419 -44294,-6784612 -44138,-6784700 -43979,-6784783 -43934,-6784809 -43830,-6784854 -43749,-6784664 -43610,-6784727 -43527,-6784767 -43427,-6784817 -43368,-6784843 -43273,-6784876 -43104,-6784941 -43094,-6784930 -43059,-6784937 -43037,-6784884 -42977,-6784893 -42926,-6784893 -42939,-6784780 -42941,-6784692 -42931,-6784615 -42914,-6784529 -42912,-6784429 -42876,-6784311 -42864,-6784277 -42862,-6784166 -42856,-6784114 -42852,-6784098 -42849,-6784086 -42733,-6783904 -42553,-6783543 -42527,-6783497 -42501,-6783451 -42399,-6783297 -42377,-6783245 -42324,-6783103 -42266,-6782963 -42249,-6782943 -42239,-6782933 -42228,-6782924 -42204,-6782907 -42195,-6782893 -42185,-6782855 -42155,-6782805 -42149,-6782793 -42145,-6782781 -42138,-6782753 -42131,-6782698 -42119,-6782553 -42118,-6782487 -42104,-6782472 -42120,-6782369 -42122,-6782361 -42123,-6782355 -42098,-6782253 -42056,-6782197 -42048,-6782185 -42040,-6782173 -42034,-6782155 -42040,-6782139 -42060,-6782111 -42041,-6782003 -42035,-6781957 -42031,-6781807 -42021,-6781781 -42001,-6781748 -41942,-6781678 -41925,-6781656 -41899,-6781598 -41856,-6781541 -41821,-6781499 -41787,-6781447 -41768,-6781409 -41748,-6781377 -41703,-6781320 -41653,-6781259 -41623,-6781218 -41599,-6781197 -41587,-6781187 -41568,-6781175 -41534,-6781156 -41494,-6781139 -41477,-6781133 -41403,-6781112 -41355,-6781120 -41346,-6781126 -41244,-6781129 -41169,-6781112 -41142,-6781112 -41015,-6781083 -40975,-6781071 -40917,-6781049 -40856,-6781046 -40825,-6781052 -40706,-6781054 -40667,-6781063 -40646,-6781050 -40590,-6780984 -40529,-6780901 -40456,-6780805 -40427,-6780762 -40361,-6780658 -40312,-6780587 -40249,-6780502 -40211,-6780469 -40176,-6780428 -40163,-6780411 -40111,-6780284 -40099,-6780260 -40047,-6780189 -40020,-6780154 -39991,-6780123 -39973,-6780099 -39956,-6780062 -39947,-6780045 -39909,-6779949 -39884,-6779857 -39870,-6779822 -39890,-6779792 -39851,-6779681 -39833,-6779645 -39818,-6779619 -39736,-6779549 -39630,-6779473 -39616,-6779450 -39533,-6779378 -39518,-6779349 -39512,-6779333 -39478,-6779276 -39431,-6779181 -39392,-6779092 -39380,-6779063 -39376,-6779051 -39360,-6779010 -39262,-6778694 -39250,-6778651 -39237,-6778607 -39206,-6778478 -39182,-6778385 -39252,-6778308 -39295,-6778260 -39259,-6778242 -39049,-6778228 -38950,-6778223 -38982,-6778141 -38991,-6778136 -38996,-6778123 -38990,-6778121 -38996,-6778075 -39002,-6778072 -39007,-6778052 -39001,-6778031 -39007,-6777950 -39010,-6777924 -39014,-6777899 -39024,-6777868 -39035,-6777838 -39053,-6777799 -39050,-6777757 -39170,-6777724 -39398,-6777658 -39421,-6777652 -39437,-6777635 -39475,-6777584 -39493,-6777454 -39499,-6777377 -39546,-6777357 -39684,-6777319 -39719,-6777307 -39813,-6777238 -39853,-6777230 -39858,-6777229 -39862,-6777231 -39895,-6777252 -40052,-6777303 -40137,-6777321 -40394,-6777379 -40417,-6777372 -40427,-6777371 -40433,-6777366 -40782,-6777270 -40998,-6777205 -40936,-6777112 -40916,-6777079 -40885,-6777021 -40853,-6776969 -40778,-6776861 -40718,-6776791 -40831,-6776679 -40953,-6776547 -41034,-6776456 -41123,-6776357 -41160,-6776314 -41248,-6776358 -41347,-6776406 -41442,-6776459 -41466,-6776468 -41535,-6776497 -41582,-6776515 -41640,-6776547 -41764,-6776561 -41731,-6776604 -41744,-6776618 -41698,-6776664 -41784,-6776731 -41825,-6776685 -41815,-6776673 -41858,-6776631 -41941,-6776725 -42016,-6776804 -42035,-6776798 -42152,-6776682 -42307,-6776700 -42324,-6776687 -42337,-6776687 -42393,-6776697 -42473,-6776718 -42516,-6776726 -42548,-6776730 -42592,-6776739 -42625,-6776737 -42677,-6776749 -42705,-6776759 -42756,-6776771 -42772,-6776782 -42817,-6776805 -42904,-6776833 -42954,-6776847 -43051,-6776864 -43079,-6776872 -43123,-6776895 -43140,-6776906 -43156,-6776917 -43194,-6776949 -43250,-6776990 -43336,-6776935 -43351,-6776906 -43362,-6776888 -43375,-6776867 -43389,-6776847 -43402,-6776830 -43423,-6776806 -43468,-6776758 -43502,-6776728 -43525,-6776710 -43545,-6776694 -43577,-6776677 -43611,-6776660 -43633,-6776649 -43660,-6776637 -43687,-6776626 -43710,-6776618 -43734,-6776611 -43757,-6776606 -43769,-6776604 -43796,-6776612 -43832,-6776626 -43850,-6776634 -43871,-6776644 -43891,-6776656 -43923,-6776677 -43975,-6776718 -43996,-6776736 -44006,-6776744 -44027,-6776758 -44046,-6776762 -44066,-6776758 -44099,-6776726 -44111,-6776716 -44146,-6776690 -44232,-6776613 -44260,-6776593 -44302,-6776571 -44391,-6776531 -44455,-6776505 -44514,-6776479 -44571,-6776449 -44627,-6776410 -44630,-6776392 -44650,-6776376 -44665,-6776373 -44702,-6776346 -44717,-6776314 -44760,-6776244 -44802,-6776175 -44813,-6776158 -44823,-6776128 -44828,-6776118 -44852,-6776086 -44904,-6776031 -44918,-6776013 -44923,-6776004 -44943,-6775960 -44952,-6775944 -44953,-6775943 -44962,-6775923 -44967,-6775916 -44976,-6775905 -44997,-6775883 -45003,-6775875 -45007,-6775868 -45054,-6775770 -45071,-6775748 -45081,-6775733 -45083,-6775726 -45097,-6775686 -45101,-6775669 -45106,-6775657 -45117,-6775639 -45137,-6775616 -45161,-6775585 -45171,-6775572 -45216,-6775501 -45264,-6775441 -45282,-6775419 -45352,-6775341 -45365,-6775326 -45372,-6775318 -45410,-6775264 -45444,-6775222 -45461,-6775203 -45543,-6775120 -45662,-6775151 -45732,-6775172 -45757,-6775208 -45785,-6775252 -45843,-6775320 -45857,-6775316 -45878,-6775338 -45924,-6775368 -45995,-6775345 -46156,-6775285 -46199,-6775267 -46322,-6775210 -46310,-6775187 -46257,-6775116 -46237,-6775086 -46210,-6775040 -46196,-6775009 -46189,-6774990 -46182,-6774970 -46174,-6774937 -46164,-6774888 -46132,-6774677 -46182,-6774671 -46204,-6774695 -46236,-6774692 -46249,-6774683 -46310,-6774726 -46451,-6774530 -46563,-6774389 -46586,-6774362 -46612,-6774330 -46696,-6774219 -46670,-6774198 -46671,-6774196 -46680,-6774184 -46707,-6774186 -46711,-6774185 -46714,-6774184 -46723,-6774176 -46745,-6774141 -46777,-6774069 -46789,-6774048 -46820,-6773998 -46830,-6773982 -46844,-6773965 -46873,-6773931 -46899,-6773904 -46907,-6773896 -46926,-6773880 -46940,-6773869 -46957,-6773861 -46969,-6773860 -46984,-6773856 -47005,-6773856 -47032,-6773860 -47063,-6773869 -47086,-6773877 -47093,-6773881 -47106,-6773889 -47112,-6773894 -47128,-6773910 -47142,-6773931 -47164,-6773970 -47258,-6774125 -47356,-6774289 -47384,-6774333 -47480,-6774447 -47572,-6774549 -47575,-6774553 -47611,-6774591 -47756,-6774775 -47792,-6774825 -47799,-6774835 -47815,-6774854 -47832,-6774873 -47891,-6774934 -48038,-6775121 -48099,-6775198 -48167,-6775287 -48250,-6775414 -48292,-6775484 -48444,-6775765 -48468,-6775815 -48475,-6775831 -48506,-6775911 -48528,-6775975 -48589,-6776071 -48618,-6776116 -48686,-6776227 -48738,-6776330 -48778,-6776409 -48901,-6776620 -48980,-6776744 -49164,-6777036 -49257,-6777177 -49363,-6777326 -49454,-6777457 -49509,-6777533 -49794,-6777878 -49921,-6778026 -49992,-6778115 -50027,-6778158 -50044,-6778188 -50057,-6778209 -50116,-6778285 -50159,-6778336 -50193,-6778371 -50237,-6778411 -50268,-6778438 -50299,-6778465 -50436,-6778578 -50499,-6778655 -50537,-6778699 -50601,-6778779 -50649,-6778835 -50666,-6778855 -50680,-6778869 -50694,-6778881 -50704,-6778889 -50722,-6778900 -50808,-6778967 -50913,-6779054 -51019,-6779145 -51052,-6779175 -51099,-6779215 -51121,-6779231 -51234,-6779311 -51264,-6779335 -51284,-6779353 -51330,-6779400 -51442,-6779506 -51559,-6779599 -51658,-6779667 -51752,-6779753 -51915,-6779919 -51935,-6779920 -51944,-6779929 -51956,-6779947 -52002,-6779946 -52058,-6779948 -52081,-6779948 -52216,-6779949 -52533,-6779952 -52591,-6779950 -52749,-6779946 -52847,-6779949 -52894,-6779953 -52953,-6779958 -52987,-6779964 -53042,-6779969 -53133,-6779980 -53178,-6779984 -53272,-6779990 -53298,-6779991 -53299,-6779991 -53325,-6779992 -53406,-6779993 -53483,-6779991 -53595,-6779983 -53872,-6779953 -53872,-6779998 -53882,-6780060 -53894,-6780193 -53900,-6780233 -53904,-6780250 -53913,-6780286 -53919,-6780300 -53933,-6780329 -53952,-6780375 -53979,-6780441 -53972,-6780495 -53978,-6780502 -54131,-6780611 -54275,-6780714 -54363,-6780775 -54521,-6780888 -55134,-6781317 -55638,-6781673 -55839,-6781818 -56284,-6782129 -56277,-6782143 -56319,-6782174 -56206,-6782255 -55996,-6782394 -55860,-6782483 -55513,-6782711 -55432,-6782765 -55412,-6782777 -55399,-6782786 -55384,-6782799 -55356,-6782828 -55348,-6782835 -55247,-6782933 -55112,-6783056 -54999,-6783159 -54997,-6783160 -54921,-6783173 -54715,-6783205 -54700,-6783147 -54687,-6783110 -54680,-6783095 -54664,-6783065 -54629,-6783008 -54439,-6783102 -54158,-6783241 -53984,-6783327 -53686,-6783470 -53664,-6783687 -53656,-6783812 -53625,-6784205 -53610,-6784373 -53607,-6784389 -53603,-6784398 -53594,-6784417 -53583,-6784444 -53547,-6784541 -53404,-6784870 -53300,-6785111 -53265,-6785191 -53309,-6785234 -53497,-6785415 -53638,-6785551 -53846,-6785750 -54014,-6785920 -54164,-6786060 -54068,-6786160 -54005,-6786144 -53922,-6786113 -53881,-6786103 -53843,-6786097 -53819,-6786094 -53788,-6786092 -53759,-6786091 -53739,-6786091 -53713,-6786093 -53686,-6786097 -53667,-6786100 -53538,-6786129 -53383,-6786173 -53356,-6786180 -53352,-6786203 -53203,-6786250 -52960,-6786338 -52908,-6786337 -52820,-6786347 -52760,-6786348 -52678,-6786379 -52615,-6786410 -52503,-6786416 -52443,-6786418 -52369,-6786426 -52293,-6786429 -52231,-6786425 -52177,-6786417 -52133,-6786415 -52089,-6786414 -51977,-6786415 -51903,-6786411 -51855,-6786414 -51718,-6786382 -51626,-6786352 -51591,-6786344 -51557,-6786336 -51478,-6786322 -51472,-6786322 -51422,-6786319 -51374,-6786324 -51214,-6786350 -51137,-6786367 -51061,-6786386 -50985,-6786409 -50960,-6786418 -50911,-6786436 -50878,-6786453 -50844,-6786473 -50809,-6786485 -50813,-6786501 -50655,-6786514 -50626,-6786516 -50439,-6786528 -50300,-6786531 -50217,-6786533 -50208,-6786525 -50155,-6786523 -50137,-6786525 -50127,-6786527 -50105,-6786535 -50074,-6786551 -50038,-6786572 -50014,-6786582 -49992,-6786589 -49958,-6786598 -49863,-6786634 -49789,-6786653 -49704,-6786681 -49677,-6786686 -49641,-6786689 -49516,-6786694 -49279,-6786744 -49185,-6786777 -49132,-6786788 -49053,-6786788 -49040,-6786794 -49029,-6786793 -48959,-6786795 -48950,-6786778 -48912,-6786750 -48811,-6786766 -48839,-6786925 -48839,-6786933 -48837,-6786941 -48831,-6786954 -48821,-6786972 -48815,-6786980 -48809,-6786988 -48789,-6787009 -48737,-6787071 -48657,-6787067 -48547,-6787057 -48479,-6787044 -48367,-6787014 -48232,-6786980 -48212,-6786975 -48113,-6786948 -48086,-6786938 -48060,-6786931 -48040,-6786927 -48019,-6786925 -47991,-6786923 -47988,-6786923" stroke="white" stroke-width="30" /></ns0:svg>    <rect x="20" y="50"  width="250" height="25"  rx="0"  fill="#E8EDEE" fill-opacity="0.8" />    <text x="145" y="70" text-anchor="middle" font-family="Frutiger" font-weight="bold" font-size="30" fill="#AE2573">Luton</text>    <rect x="35" y="195" width="220" height="160" rx="15" fill="#724F95"/>    <g font-family="Frutiger" font-size="15" fill="white">        <g> <text x="45" y="218">Self-harm</text> <text x="245" y="218" text-anchor="end">24</text> </g>        <g> <text x="45" y="243">SEN</text> <text x="245" y="243" text-anchor="end">36</text> </g>        <g> <text x="45" y="268">Difficulties</text> <text x="245" y="268" text-anchor="end">70</text> </g>        <g> <text x="45" y="293">Child Carer</text> <text x="245" y="293" text-anchor="end">6</text> </g>        <g> <text x="45" y="318">Drinkers</text> <text x="245" y="318" text-anchor="end">3</text> </g>        <g> <text x="45" y="343">Safeguarding £</text> <text x="245" y="343" text-anchor="end">21</text> </g>    </g></svg>