<?xml version="1.0" standalone="no"?>
<!DOCTYPE svg PUBLIC "-//W3C//DTD SVG 1.1//EN"
"http://www.w3.org/Graphics/SVG/1.1/DTD/svg11.dtd">
<svg height="1800" version="1.1" width="1800" xmlns="http://www.w3.org/2000/svg"><defs><style type="text/css">@font-face {font-family: 'Frutiger';font-style: normal;font-weight: normal;src: local('Frutiger'), url('../fonts/Frutiger.woff') format('woff');}@font-face {font-family: 'Frutiger Bold';font-style: normal;font-weight: normal;src: local('Frutiger Bold'), url('../fonts/Frutiger_bold.woff') format('woff');}        </style>    </defs>    <rect x="20" y="20"  width="250" height="350" rx="15" fill="#009639" />    <rect x="35" y="35"  width="220" height="145" rx="15" fill="#E8EDEE" /><ns0:svg xmlns:ns0="http://www.w3.org/2000/svg" height="115" version="1.1" viewBox="-315307 -7057809 26409 18188" width="220" x="35" y="50"><ns0:polygon fill="#006747" points=" -303935,-7057310 -303783,-7057271 -303570,-7057274 -303554,-7057274 -303520,-7057276 -303492,-7057276 -303488,-7057277 -303455,-7057278 -303421,-7057279 -303420,-7057279 -303395,-7057281 -303369,-7057283 -303344,-7057284 -303337,-7057284 -303319,-7057284 -303192,-7057295 -303162,-7057297 -303149,-7057300 -303142,-7057302 -303129,-7057304 -303115,-7057306 -303102,-7057308 -303089,-7057310 -303088,-7057310 -303014,-7057320 -302940,-7057330 -302895,-7057335 -302823,-7057330 -302746,-7057320 -302671,-7057300 -302577,-7057271 -302461,-7057226 -302384,-7057197 -302373,-7057193 -302257,-7057152 -302276,-7057154 -302311,-7057158 -302364,-7057164 -302389,-7057167 -302394,-7057167 -302398,-7057167 -302399,-7057167 -302406,-7057164 -302409,-7057154 -302408,-7057130 -302393,-7057047 -302378,-7056954 -302370,-7056881 -302357,-7056750 -302337,-7056671 -302332,-7056652 -302326,-7056634 -302321,-7056616 -302276,-7056452 -302239,-7056318 -302215,-7056253 -302201,-7056213 -302194,-7056194 -302156,-7056075 -302132,-7056009 -302083,-7055862 -302029,-7055705 -301987,-7055582 -301980,-7055579 -301944,-7055563 -301875,-7055530 -301867,-7055530 -301857,-7055523 -301847,-7055521 -301839,-7055513 -301820,-7055505 -301798,-7055492 -301763,-7055478 -301700,-7055454 -301701,-7055451 -301705,-7055439 -301702,-7055352 -301714,-7055333 -301706,-7055330 -301679,-7055319 -301593,-7055282 -301501,-7055242 -301436,-7055215 -301287,-7055149 -301128,-7055079 -301114,-7055066 -301109,-7055055 -301110,-7055030 -301113,-7054965 -301123,-7054858 -301109,-7054858 -301074,-7054860 -301017,-7054865 -300955,-7054869 -300936,-7054871 -300864,-7054877 -300759,-7054884 -300759,-7054884 -300754,-7054884 -300749,-7054884 -300744,-7054885 -300739,-7054884 -300733,-7054884 -300703,-7054880 -300682,-7054877 -300667,-7054874 -300623,-7054864 -300586,-7054856 -300581,-7054855 -300531,-7054844 -300492,-7054835 -300412,-7054817 -300362,-7054806 -300202,-7054776 -300099,-7054756 -300016,-7054739 -299844,-7054692 -299766,-7054673 -299750,-7054669 -299660,-7054644 -299583,-7054623 -299519,-7054604 -299514,-7054580 -299509,-7054556 -299560,-7054543 -299612,-7054533 -299637,-7054522 -299728,-7054483 -299795,-7054452 -299869,-7054417 -299890,-7054405 -299905,-7054394 -299926,-7054379 -299936,-7054371 -299936,-7054371 -299969,-7054344 -300008,-7054314 -300087,-7054242 -300124,-7054196 -300187,-7054094 -300206,-7054058 -300228,-7054008 -300248,-7053954 -300258,-7053926 -300268,-7053888 -300272,-7053865 -300283,-7053801 -300286,-7053721 -300287,-7053678 -300288,-7053617 -300309,-7053471 -300304,-7053375 -300304,-7053322 -300298,-7053164 -300294,-7052894 -300289,-7052767 -300285,-7052722 -300284,-7052624 -300280,-7052566 -300280,-7052493 -300280,-7052428 -300277,-7052332 -300276,-7052257 -300271,-7052138 -300269,-7052038 -300264,-7051895 -300263,-7051843 -300260,-7051752 -300261,-7051695 -300254,-7051561 -300251,-7051461 -300232,-7051434 -300172,-7051316 -300108,-7051199 -300042,-7051082 -299996,-7051009 -299933,-7050897 -299866,-7050782 -299837,-7050727 -299843,-7050721 -299833,-7050688 -299827,-7050656 -299827,-7050629 -299829,-7050604 -299823,-7050541 -299824,-7050335 -299826,-7050238 -299825,-7050206 -299827,-7050176 -299829,-7050145 -299851,-7050097 -299884,-7050006 -299802,-7049956 -299779,-7049939 -299765,-7049926 -299750,-7049911 -299736,-7049894 -299706,-7049845 -299691,-7049818 -299675,-7049798 -299664,-7049783 -299657,-7049771 -299642,-7049738 -299618,-7049674 -299600,-7049604 -299594,-7049588 -299587,-7049572 -299578,-7049558 -299565,-7049541 -299550,-7049523 -299538,-7049511 -299514,-7049491 -299465,-7049456 -299440,-7049439 -299407,-7049419 -299368,-7049398 -299318,-7049372 -298999,-7049239 -298864,-7049185 -298710,-7049121 -298448,-7049015 -298398,-7048998 -298369,-7048988 -298339,-7048980 -298305,-7048973 -298252,-7048964 -298139,-7048949 -298104,-7048948 -298089,-7048949 -298062,-7048953 -298036,-7048954 -298017,-7048954 -297995,-7048956 -297965,-7048960 -297954,-7048963 -297940,-7048965 -297867,-7048983 -297856,-7048960 -297800,-7048833 -297739,-7048686 -297407,-7048821 -297211,-7048904 -297051,-7048972 -296928,-7049025 -296586,-7049172 -295975,-7049424 -295467,-7049639 -295317,-7049702 -295058,-7049805 -294917,-7049868 -294861,-7049891 -294795,-7049917 -294513,-7050037 -294312,-7050116 -294126,-7050192 -293913,-7050263 -293690,-7050344 -293470,-7050418 -293265,-7050490 -293092,-7050546 -292839,-7050623 -292820,-7050557 -292810,-7050533 -292800,-7050509 -292788,-7050483 -292751,-7050413 -292692,-7050283 -292669,-7050217 -292637,-7050131 -292583,-7050002 -292542,-7049911 -292514,-7049857 -292485,-7049776 -292447,-7049648 -292422,-7049632 -292430,-7049606 -292432,-7049556 -292437,-7049475 -292457,-7049338 -292460,-7049316 -292475,-7049197 -292495,-7049100 -292509,-7049037 -292511,-7049011 -292512,-7048992 -292509,-7048953 -292508,-7048940 -292504,-7048927 -292498,-7048915 -292493,-7048908 -292491,-7048906 -292417,-7048868 -292428,-7048784 -292435,-7048782 -292451,-7048779 -292465,-7048777 -292471,-7048777 -292476,-7048778 -292484,-7048781 -292491,-7048786 -292499,-7048793 -292532,-7048802 -292574,-7048815 -292607,-7048817 -292615,-7048820 -292626,-7048821 -292633,-7048820 -292641,-7048818 -292648,-7048814 -292655,-7048809 -292660,-7048803 -292663,-7048796 -292670,-7048777 -292678,-7048753 -292682,-7048738 -292687,-7048704 -292688,-7048679 -292684,-7048618 -292685,-7048587 -292715,-7048575 -292716,-7048509 -292671,-7048496 -292639,-7048490 -292610,-7048478 -292675,-7048303 -292747,-7048134 -292770,-7048063 -292792,-7047985 -292812,-7047926 -292836,-7047837 -292851,-7047796 -292855,-7047778 -292871,-7047722 -292880,-7047692 -292892,-7047563 -292899,-7047456 -292932,-7047269 -292933,-7047263 -292869,-7047252 -292803,-7047235 -292735,-7047215 -292643,-7047201 -292597,-7047191 -292595,-7047207 -292594,-7047218 -292564,-7047286 -292515,-7047364 -292509,-7047363 -292345,-7047323 -292119,-7047271 -292087,-7047341 -292066,-7047391 -292048,-7047409 -292038,-7047423 -292006,-7047463 -291992,-7047477 -291962,-7047511 -291958,-7047515 -291906,-7047520 -291866,-7047514 -291835,-7047496 -291816,-7047488 -291810,-7047485 -291791,-7047480 -291771,-7047477 -291741,-7047472 -291708,-7047468 -291657,-7047452 -291565,-7047429 -291325,-7047396 -291302,-7047393 -291210,-7047388 -291130,-7047398 -291114,-7047405 -291101,-7047405 -291092,-7047408 -291076,-7047416 -291073,-7047418 -291066,-7047425 -291058,-7047435 -291050,-7047447 -291041,-7047463 -291028,-7047505 -291023,-7047509 -291007,-7047520 -291010,-7047557 -291004,-7047566 -290985,-7047538 -290978,-7047531 -290979,-7047528 -290981,-7047507 -290959,-7047489 -290948,-7047461 -290927,-7047446 -290917,-7047449 -290909,-7047452 -290891,-7047440 -290871,-7047435 -290860,-7047428 -290849,-7047420 -290832,-7047415 -290827,-7047411 -290825,-7047401 -290811,-7047383 -290790,-7047382 -290766,-7047371 -290726,-7047354 -290707,-7047342 -290694,-7047342 -290687,-7047340 -290680,-7047339 -290667,-7047337 -290647,-7047352 -290634,-7047353 -290625,-7047348 -290613,-7047355 -290600,-7047345 -290594,-7047331 -290577,-7047325 -290562,-7047328 -290533,-7047316 -290507,-7047317 -290496,-7047307 -290493,-7047300 -290492,-7047287 -290486,-7047274 -290478,-7047262 -290464,-7047247 -290451,-7047231 -290449,-7047218 -290412,-7047185 -290402,-7047160 -290377,-7047151 -290377,-7047133 -290354,-7047122 -290352,-7047121 -290352,-7047119 -290351,-7047106 -290327,-7047071 -290308,-7047043 -290252,-7046986 -290230,-7046967 -290226,-7046963 -290232,-7046933 -290233,-7046911 -290234,-7046898 -290233,-7046886 -290234,-7046871 -290212,-7046846 -290214,-7046826 -290191,-7046762 -290176,-7046716 -290169,-7046705 -290166,-7046696 -290165,-7046688 -290166,-7046681 -290178,-7046650 -290186,-7046635 -290202,-7046609 -290205,-7046593 -290208,-7046585 -290214,-7046578 -290219,-7046574 -290225,-7046571 -290290,-7046556 -290330,-7046534 -290373,-7046518 -290386,-7046511 -290399,-7046504 -290431,-7046479 -290463,-7046465 -290479,-7046456 -290504,-7046445 -290515,-7046442 -290523,-7046442 -290536,-7046443 -290561,-7046440 -290575,-7046436 -290585,-7046430 -290595,-7046424 -290660,-7046373 -290679,-7046356 -290695,-7046338 -290708,-7046321 -290717,-7046307 -290724,-7046292 -290733,-7046273 -290739,-7046255 -290746,-7046226 -290760,-7046179 -290763,-7046141 -290785,-7046079 -290821,-7046004 -290846,-7045957 -290856,-7045936 -290860,-7045928 -290865,-7045921 -290909,-7045874 -290922,-7045856 -290926,-7045847 -290930,-7045838 -290940,-7045801 -290950,-7045749 -291006,-7045639 -291019,-7045597 -291053,-7045528 -291066,-7045495 -291085,-7045461 -291111,-7045399 -291128,-7045327 -291138,-7045291 -291146,-7045241 -291153,-7045220 -291160,-7045204 -291165,-7045191 -291178,-7045152 -291218,-7045119 -291255,-7045095 -291286,-7045056 -291380,-7044956 -291386,-7044948 -291432,-7044892 -291491,-7044799 -291510,-7044775 -291520,-7044754 -291568,-7044707 -291604,-7044664 -291625,-7044641 -291630,-7044636 -291635,-7044630 -291618,-7044622 -291609,-7044613 -291601,-7044605 -291585,-7044583 -291579,-7044569 -291566,-7044552 -291560,-7044533 -291557,-7044519 -291559,-7044508 -291561,-7044498 -291561,-7044488 -291559,-7044473 -291553,-7044460 -291542,-7044445 -291524,-7044429 -291510,-7044419 -291495,-7044412 -291476,-7044395 -291472,-7044367 -291451,-7044341 -291443,-7044318 -291422,-7044292 -291416,-7044252 -291402,-7044226 -291378,-7044196 -291307,-7044145 -291255,-7044103 -291240,-7044093 -291208,-7044085 -291144,-7044069 -291093,-7044060 -291049,-7044086 -290991,-7044106 -290932,-7044135 -290863,-7044160 -290847,-7044165 -290835,-7044170 -290826,-7044176 -290818,-7044182 -290811,-7044188 -290806,-7044195 -290791,-7044218 -290779,-7044240 -290761,-7044267 -290676,-7044317 -290628,-7044342 -290602,-7044349 -290587,-7044349 -290557,-7044325 -290523,-7044292 -290506,-7044292 -290496,-7044247 -290485,-7044190 -290436,-7044074 -290313,-7043846 -290274,-7043760 -290232,-7043749 -290093,-7043692 -290047,-7043675 -290004,-7043661 -289992,-7043656 -289957,-7043641 -289936,-7043630 -289915,-7043618 -289882,-7043599 -289870,-7043582 -289854,-7043569 -289839,-7043554 -289810,-7043519 -289774,-7043465 -289760,-7043434 -289715,-7043371 -289657,-7043327 -289652,-7043320 -289587,-7043290 -289575,-7043281 -289563,-7043274 -289551,-7043269 -289539,-7043265 -289524,-7043263 -289510,-7043262 -289498,-7043263 -289457,-7043275 -289445,-7043278 -289443,-7043280 -289426,-7043300 -289374,-7043312 -289279,-7043352 -289253,-7043350 -289249,-7043348 -289179,-7043316 -289162,-7043309 -289147,-7043305 -289135,-7043303 -289114,-7043300 -289071,-7043290 -289052,-7043283 -289045,-7043280 -289035,-7043272 -289017,-7043253 -289007,-7043167 -289009,-7043137 -289008,-7043109 -289008,-7043092 -289015,-7043053 -289021,-7043034 -289019,-7043016 -289015,-7043005 -289009,-7042993 -289002,-7042981 -288990,-7042965 -288944,-7042918 -288916,-7042896 -288898,-7042867 -288905,-7042852 -288919,-7042836 -288922,-7042831 -288924,-7042823 -288923,-7042801 -288919,-7042774 -288914,-7042713 -288914,-7042711 -288916,-7042680 -288924,-7042631 -288925,-7042612 -288923,-7042593 -288912,-7042557 -288903,-7042522 -288902,-7042509 -288900,-7042471 -288898,-7042459 -288899,-7042448 -288900,-7042440 -288902,-7042437 -288906,-7042433 -288913,-7042430 -288920,-7042428 -288945,-7042425 -288956,-7042398 -288964,-7042389 -288972,-7042380 -289035,-7042332 -289051,-7042317 -289058,-7042305 -289063,-7042297 -289068,-7042293 -289074,-7042289 -289095,-7042283 -289101,-7042280 -289114,-7042272 -289118,-7042270 -289137,-7042267 -289158,-7042261 -289163,-7042261 -289179,-7042263 -289188,-7042261 -289209,-7042251 -289232,-7042234 -289243,-7042241 -289250,-7042245 -289293,-7042236 -289299,-7042233 -289303,-7042230 -289305,-7042227 -289307,-7042221 -289304,-7042211 -289305,-7042208 -289306,-7042204 -289309,-7042201 -289312,-7042199 -289316,-7042198 -289320,-7042198 -289324,-7042198 -289326,-7042200 -289328,-7042203 -289330,-7042207 -289336,-7042188 -289354,-7042167 -289360,-7042163 -289365,-7042161 -289369,-7042160 -289376,-7042162 -289388,-7042160 -289426,-7042150 -289450,-7042146 -289475,-7042141 -289553,-7042130 -289568,-7042126 -289577,-7042126 -289583,-7042128 -289592,-7042132 -289611,-7042133 -289642,-7042124 -289693,-7042130 -289738,-7042101 -289790,-7042058 -289828,-7042032 -289839,-7042005 -289841,-7041992 -289844,-7041963 -289854,-7041939 -289868,-7041917 -289873,-7041905 -289879,-7041889 -289887,-7041859 -289897,-7041826 -289900,-7041815 -289900,-7041805 -289898,-7041784 -289898,-7041780 -289900,-7041774 -289909,-7041756 -289915,-7041744 -289919,-7041728 -289922,-7041714 -289923,-7041697 -289932,-7041657 -289934,-7041639 -289955,-7041574 -289970,-7041554 -289990,-7041532 -290015,-7041502 -290026,-7041492 -290037,-7041482 -290048,-7041474 -290081,-7041458 -290099,-7041451 -290144,-7041445 -290142,-7041414 -290143,-7041396 -290144,-7041385 -290147,-7041379 -290151,-7041373 -290155,-7041369 -290176,-7041355 -290178,-7041353 -290180,-7041349 -290180,-7041344 -290178,-7041340 -290175,-7041335 -290171,-7041333 -290162,-7041328 -290159,-7041325 -290157,-7041323 -290154,-7041317 -290153,-7041311 -290154,-7041304 -290155,-7041299 -290157,-7041296 -290160,-7041295 -290163,-7041294 -290170,-7041295 -290177,-7041297 -290182,-7041300 -290185,-7041302 -290189,-7041306 -290191,-7041308 -290196,-7041308 -290198,-7041306 -290194,-7041288 -290194,-7041286 -290195,-7041284 -290198,-7041282 -290203,-7041280 -290208,-7041280 -290214,-7041282 -290232,-7041290 -290240,-7041291 -290243,-7041290 -290258,-7041279 -290283,-7041276 -290298,-7041276 -290306,-7041274 -290312,-7041272 -290321,-7041266 -290326,-7041259 -290327,-7041252 -290326,-7041243 -290318,-7041228 -290319,-7041221 -290320,-7041219 -290322,-7041217 -290325,-7041216 -290346,-7041211 -290350,-7041207 -290359,-7041204 -290361,-7041202 -290364,-7041197 -290363,-7041190 -290372,-7041167 -290375,-7041161 -290380,-7041156 -290386,-7041152 -290392,-7041149 -290406,-7041148 -290414,-7041137 -290416,-7041131 -290417,-7041123 -290417,-7041122 -290413,-7041118 -290410,-7041117 -290392,-7041105 -290391,-7041104 -290392,-7041094 -290397,-7041080 -290400,-7041072 -290404,-7041067 -290420,-7041059 -290444,-7041050 -290448,-7041046 -290449,-7041031 -290447,-7041026 -290432,-7041020 -290417,-7041015 -290413,-7041011 -290412,-7041008 -290412,-7040999 -290421,-7040976 -290432,-7040958 -290434,-7040952 -290436,-7040938 -290437,-7040935 -290442,-7040932 -290445,-7040932 -290449,-7040932 -290455,-7040936 -290479,-7040941 -290488,-7040941 -290494,-7040943 -290500,-7040946 -290503,-7040949 -290508,-7040956 -290510,-7040963 -290530,-7040988 -290536,-7040996 -290541,-7041009 -290542,-7041016 -290542,-7041036 -290543,-7041042 -290551,-7041049 -290553,-7041051 -290555,-7041055 -290554,-7041057 -290549,-7041067 -290546,-7041070 -290532,-7041082 -290524,-7041091 -290518,-7041101 -290515,-7041111 -290512,-7041120 -290512,-7041130 -290513,-7041152 -290512,-7041158 -290509,-7041165 -290503,-7041175 -290494,-7041186 -290488,-7041192 -290466,-7041208 -290460,-7041215 -290457,-7041219 -290453,-7041227 -290450,-7041234 -290448,-7041255 -290446,-7041262 -290443,-7041266 -290432,-7041273 -290410,-7041294 -290403,-7041303 -290398,-7041311 -290393,-7041325 -290391,-7041336 -290370,-7041376 -290360,-7041406 -290352,-7041439 -290394,-7041450 -290413,-7041457 -290433,-7041470 -290438,-7041472 -290444,-7041473 -290463,-7041474 -290469,-7041477 -290472,-7041480 -290474,-7041484 -290475,-7041489 -290475,-7041494 -290474,-7041498 -290471,-7041501 -290461,-7041508 -290458,-7041512 -290456,-7041516 -290455,-7041523 -290455,-7041531 -290457,-7041540 -290462,-7041550 -290476,-7041570 -290474,-7041585 -290487,-7041599 -290489,-7041603 -290495,-7041621 -290504,-7041623 -290511,-7041649 -290519,-7041665 -290519,-7041671 -290519,-7041676 -290512,-7041700 -290512,-7041703 -290519,-7041705 -290529,-7041703 -290541,-7041706 -290549,-7041710 -290552,-7041714 -290555,-7041719 -290557,-7041724 -290558,-7041733 -290558,-7041743 -290557,-7041746 -290555,-7041748 -290552,-7041750 -290546,-7041753 -290543,-7041756 -290540,-7041760 -290540,-7041764 -290540,-7041768 -290541,-7041771 -290546,-7041777 -290549,-7041785 -290548,-7041790 -290537,-7041814 -290533,-7041824 -290533,-7041829 -290536,-7041838 -290543,-7041848 -290544,-7041864 -290546,-7041866 -290553,-7041871 -290557,-7041874 -290561,-7041874 -290564,-7041876 -290565,-7041884 -290561,-7041897 -290561,-7041904 -290564,-7041907 -290568,-7041910 -290580,-7041914 -290587,-7041914 -290591,-7041916 -290594,-7041921 -290595,-7041928 -290594,-7041932 -290591,-7041934 -290578,-7041938 -290572,-7041941 -290569,-7041945 -290567,-7041950 -290568,-7041954 -290570,-7041957 -290579,-7041963 -290582,-7041969 -290582,-7041972 -290581,-7041976 -290577,-7041980 -290574,-7041981 -290570,-7041981 -290565,-7041979 -290556,-7041970 -290551,-7041967 -290545,-7041965 -290539,-7041964 -290535,-7041966 -290530,-7041970 -290527,-7041975 -290525,-7041980 -290524,-7041985 -290524,-7041992 -290528,-7042007 -290536,-7042022 -290551,-7042042 -290560,-7042052 -290583,-7042071 -290592,-7042076 -290598,-7042077 -290604,-7042077 -290613,-7042075 -290691,-7042084 -290705,-7042088 -290714,-7042092 -290729,-7042101 -290755,-7042126 -290782,-7042125 -290792,-7042127 -290799,-7042129 -290802,-7042133 -290803,-7042139 -290806,-7042144 -290812,-7042149 -290834,-7042157 -290842,-7042171 -290855,-7042184 -290868,-7042189 -290902,-7042195 -290918,-7042200 -290929,-7042204 -290935,-7042207 -290948,-7042218 -290970,-7042244 -290974,-7042247 -290986,-7042254 -291003,-7042267 -291044,-7042312 -291087,-7042352 -291088,-7042372 -291137,-7042404 -291186,-7042435 -291206,-7042461 -291228,-7042479 -291264,-7042504 -291272,-7042513 -291284,-7042521 -291294,-7042526 -291305,-7042530 -291316,-7042531 -291327,-7042530 -291335,-7042528 -291338,-7042526 -291357,-7042506 -291389,-7042480 -291408,-7042480 -291430,-7042477 -291458,-7042465 -291494,-7042459 -291525,-7042456 -291591,-7042454 -291604,-7042455 -291617,-7042458 -291630,-7042462 -291649,-7042469 -291665,-7042443 -291702,-7042411 -291716,-7042397 -291725,-7042384 -291733,-7042373 -291743,-7042354 -291756,-7042327 -291764,-7042308 -291768,-7042295 -291770,-7042288 -291771,-7042265 -291771,-7042251 -291754,-7042243 -291729,-7042233 -291716,-7042230 -291648,-7042221 -291581,-7042161 -291555,-7042141 -291539,-7042131 -291525,-7042124 -291510,-7042119 -291460,-7042106 -291444,-7042099 -291431,-7042090 -291419,-7042075 -291387,-7042010 -291381,-7041994 -291378,-7041982 -291375,-7041962 -291410,-7041939 -291483,-7041899 -291638,-7041826 -291622,-7041805 -291606,-7041796 -291590,-7041788 -291555,-7041774 -291541,-7041773 -291532,-7041772 -291516,-7041767 -291504,-7041762 -291490,-7041753 -291469,-7041738 -291412,-7041689 -291461,-7041616 -291515,-7041541 -291684,-7041288 -291748,-7041201 -291757,-7041189 -291796,-7041138 -291914,-7040988 -291961,-7040921 -292015,-7040911 -292084,-7040891 -292181,-7040878 -292161,-7040813 -292158,-7040792 -292151,-7040576 -292138,-7040540 -292138,-7040482 -292116,-7040434 -292170,-7040412 -292217,-7040391 -292236,-7040390 -292268,-7040376 -292303,-7040363 -292438,-7040317 -292466,-7040307 -292494,-7040294 -292579,-7040249 -292654,-7040194 -292683,-7040164 -292709,-7040132 -292718,-7040143 -292740,-7040124 -292752,-7040145 -292766,-7040145 -292758,-7040189 -292841,-7040163 -292843,-7040150 -292887,-7040137 -292969,-7040117 -293036,-7040108 -293049,-7040084 -293096,-7040101 -293122,-7040095 -293200,-7040107 -293287,-7040131 -293407,-7040164 -293451,-7040194 -293471,-7040210 -293503,-7040239 -293528,-7040259 -293562,-7040292 -293591,-7040326 -293649,-7040403 -293674,-7040459 -293704,-7040457 -293757,-7040564 -293767,-7040509 -293768,-7040496 -293770,-7040486 -293773,-7040478 -293777,-7040472 -293783,-7040466 -293792,-7040458 -293804,-7040450 -293815,-7040444 -293826,-7040439 -293840,-7040436 -293854,-7040433 -293866,-7040432 -293946,-7040434 -294016,-7040443 -294043,-7040449 -294071,-7040456 -294184,-7040495 -294306,-7040527 -294386,-7040552 -294446,-7040571 -294451,-7040559 -294465,-7040535 -294436,-7040454 -294377,-7040291 -294240,-7039998 -294202,-7039907 -294155,-7039809 -294056,-7039621 -294162,-7039740 -294191,-7039769 -294328,-7039893 -294538,-7040049 -294667,-7040123 -294722,-7040151 -294814,-7040196 -294862,-7040215 -294892,-7040225 -294947,-7040242 -295107,-7040297 -295480,-7040421 -295607,-7040462 -295885,-7040550 -295946,-7040570 -296410,-7040720 -296702,-7040810 -296999,-7040913 -297258,-7040999 -297391,-7041047 -297542,-7041096 -297658,-7041142 -297795,-7041192 -297990,-7041252 -298068,-7041279 -298150,-7041302 -298131,-7041321 -298429,-7041410 -298438,-7041401 -298563,-7041449 -298655,-7041476 -298797,-7041525 -298909,-7041562 -298932,-7041540 -298935,-7041536 -298989,-7041473 -299042,-7041399 -299090,-7041349 -299120,-7041315 -299143,-7041298 -299141,-7041283 -299141,-7041273 -299142,-7041266 -299171,-7041187 -299180,-7041175 -299187,-7041168 -299198,-7041159 -299265,-7041103 -299352,-7041014 -299399,-7040968 -299447,-7040922 -299517,-7040858 -299553,-7040828 -299573,-7040824 -299583,-7040820 -299600,-7040811 -299621,-7040797 -299634,-7040789 -299684,-7040743 -299796,-7040632 -299839,-7040591 -299831,-7040583 -299826,-7040573 -299817,-7040562 -299891,-7040494 -299960,-7040427 -300062,-7040338 -300152,-7040256 -300226,-7040182 -300286,-7040115 -300408,-7039970 -300425,-7039953 -300465,-7039920 -300487,-7039899 -300537,-7039849 -300581,-7039806 -300614,-7039791 -300649,-7039766 -300651,-7039765 -300696,-7039810 -301062,-7040156 -301187,-7040280 -301246,-7040333 -301281,-7040361 -301322,-7040393 -301392,-7040445 -301426,-7040467 -301476,-7040495 -301696,-7040600 -301869,-7040681 -301913,-7040701 -301972,-7040723 -301988,-7040725 -302010,-7040731 -302016,-7040744 -302030,-7040758 -302121,-7040798 -302231,-7040859 -302256,-7040871 -302282,-7040883 -302310,-7040895 -302345,-7040907 -302385,-7040920 -302460,-7040940 -302542,-7040966 -302771,-7041028 -303100,-7041113 -303181,-7041131 -303214,-7041108 -303250,-7041005 -303289,-7041014 -303316,-7041017 -303352,-7041019 -303429,-7041016 -303555,-7041006 -303650,-7041000 -303696,-7040995 -303748,-7040987 -303790,-7040978 -303825,-7040969 -303903,-7040947 -303930,-7040936 -303974,-7040916 -304018,-7040891 -304040,-7040875 -304075,-7040847 -304090,-7040834 -304116,-7040807 -304133,-7040787 -304149,-7040766 -304220,-7040658 -304223,-7040653 -304236,-7040621 -304245,-7040587 -304249,-7040558 -304276,-7040414 -304302,-7040301 -304330,-7040166 -304341,-7040129 -304360,-7040080 -304368,-7040063 -304377,-7040047 -304385,-7040036 -304400,-7040019 -304430,-7039992 -304452,-7039974 -304470,-7039961 -304488,-7039951 -304509,-7039942 -304541,-7039932 -304573,-7039926 -304628,-7039919 -304666,-7039916 -304690,-7039916 -304713,-7039917 -304758,-7039921 -304780,-7039924 -304815,-7039931 -304936,-7039963 -304950,-7039973 -304958,-7039980 -304968,-7039993 -305022,-7040076 -305038,-7040100 -305088,-7040189 -305094,-7040198 -305106,-7040212 -305119,-7040225 -305130,-7040234 -305138,-7040240 -305195,-7040276 -305238,-7040317 -305299,-7040371 -305340,-7040412 -305367,-7040442 -305407,-7040490 -305434,-7040538 -305449,-7040571 -305463,-7040595 -305485,-7040624 -305570,-7040725 -305690,-7040847 -305834,-7040996 -305948,-7041102 -306059,-7041198 -306224,-7041337 -306283,-7041366 -306345,-7041393 -306353,-7041398 -306361,-7041405 -306399,-7041433 -306824,-7041864 -307439,-7042473 -308477,-7043493 -308481,-7043439 -308483,-7043404 -308483,-7043369 -308483,-7043344 -308481,-7043317 -308478,-7043283 -308471,-7043230 -308453,-7043123 -308441,-7043071 -308424,-7043011 -308381,-7042883 -308360,-7042834 -308338,-7042789 -308281,-7042698 -308231,-7042647 -308184,-7042599 -308168,-7042577 -308159,-7042563 -308139,-7042529 -308128,-7042505 -308114,-7042470 -308102,-7042439 -308099,-7042428 -308097,-7042420 -308096,-7042406 -308097,-7042391 -308100,-7042372 -308109,-7042339 -308122,-7042306 -308142,-7042271 -308161,-7042244 -308179,-7042223 -308365,-7042045 -308458,-7041954 -308628,-7041802 -308805,-7041648 -308978,-7041501 -309152,-7041368 -309348,-7041221 -309519,-7041064 -309695,-7040897 -309913,-7040735 -310074,-7040611 -310207,-7040511 -310346,-7040435 -310385,-7040412 -310402,-7040404 -310441,-7040387 -310465,-7040379 -310505,-7040368 -310528,-7040363 -310560,-7040367 -310589,-7040371 -310634,-7040380 -310659,-7040386 -310751,-7040411 -310772,-7040418 -310795,-7040427 -310821,-7040440 -310851,-7040456 -310879,-7040472 -310907,-7040489 -310935,-7040508 -311108,-7040632 -311181,-7040679 -311247,-7040718 -311286,-7040738 -311336,-7040763 -311468,-7040832 -311596,-7040886 -311750,-7040971 -311815,-7041019 -311987,-7041149 -312052,-7041195 -312139,-7041260 -312161,-7041279 -312175,-7041293 -312194,-7041314 -312206,-7041335 -312297,-7041421 -312435,-7041554 -312478,-7041593 -312528,-7041634 -312610,-7041694 -312712,-7041761 -312760,-7041791 -312851,-7041844 -312884,-7041861 -312974,-7041902 -313065,-7041941 -313127,-7041965 -313349,-7042046 -313535,-7042102 -313706,-7042161 -313723,-7042863 -313733,-7043478 -314181,-7044011 -314315,-7044170 -314549,-7044443 -314662,-7044582 -314704,-7044626 -314738,-7044665 -314822,-7044764 -314830,-7044773 -314891,-7044846 -315066,-7045061 -315204,-7045229 -315262,-7045475 -315307,-7045632 -315294,-7045631 -315286,-7045631 -315267,-7045629 -315249,-7045628 -315250,-7045638 -315154,-7045629 -315149,-7045653 -315163,-7045656 -315152,-7045722 -315125,-7045722 -315111,-7045725 -315105,-7045726 -315091,-7045728 -315089,-7045728 -315066,-7045730 -315045,-7045731 -314904,-7045733 -314778,-7045738 -314759,-7045738 -314750,-7045739 -314741,-7045740 -314736,-7045741 -314727,-7045741 -314718,-7045741 -314709,-7045740 -314700,-7045739 -314683,-7045736 -314666,-7045733 -314650,-7045730 -314610,-7045723 -314571,-7045714 -314517,-7045702 -314509,-7045700 -314436,-7045682 -314419,-7045678 -314416,-7045677 -314411,-7045675 -314402,-7045671 -314397,-7045669 -314380,-7045663 -314368,-7045659 -314355,-7045656 -314342,-7045653 -314338,-7045653 -314326,-7045651 -314314,-7045651 -314308,-7045650 -314310,-7045662 -314311,-7045674 -314311,-7045678 -314311,-7045689 -314311,-7045701 -314311,-7045705 -314309,-7045723 -314307,-7045741 -314307,-7045744 -314306,-7045750 -314304,-7045765 -314303,-7045769 -314294,-7045829 -314289,-7045870 -314284,-7045901 -314281,-7045915 -314277,-7045935 -314267,-7045948 -314265,-7045950 -314255,-7045963 -314252,-7045968 -314243,-7045981 -314242,-7045984 -314237,-7045992 -314233,-7045997 -314223,-7046016 -314201,-7046139 -314180,-7046267 -314068,-7046245 -313944,-7046213 -313962,-7046117 -313865,-7046108 -313785,-7046095 -313784,-7046120 -313777,-7046274 -313843,-7046327 -313903,-7046361 -313857,-7046435 -313793,-7046523 -313745,-7046597 -313710,-7046654 -313698,-7046693 -313757,-7046721 -313817,-7046759 -313853,-7046796 -313906,-7046823 -313859,-7046955 -313837,-7047013 -313825,-7047049 -313818,-7047070 -313815,-7047083 -313807,-7047124 -313804,-7047143 -313801,-7047184 -313780,-7047328 -313776,-7047355 -313784,-7047444 -313788,-7047530 -313788,-7047556 -313787,-7047593 -313788,-7047629 -313787,-7047629 -313752,-7047631 -313753,-7047682 -313744,-7047683 -313708,-7047689 -313688,-7047696 -313658,-7047711 -313620,-7047739 -313581,-7047780 -313562,-7047812 -313550,-7047840 -313546,-7047855 -313544,-7047862 -313535,-7047904 -313533,-7047916 -313527,-7047963 -313525,-7047989 -313522,-7048005 -313516,-7048033 -313505,-7048058 -313500,-7048066 -313492,-7048060 -313403,-7048150 -313367,-7048188 -313313,-7048251 -313252,-7048311 -313190,-7048370 -313151,-7048407 -313089,-7048472 -313060,-7048505 -313024,-7048541 -312979,-7048593 -312976,-7048639 -312971,-7048643 -312911,-7048706 -312833,-7048794 -312776,-7048854 -312747,-7048885 -312727,-7048907 -312711,-7048932 -312705,-7048947 -312703,-7048950 -312581,-7048973 -312520,-7048987 -312339,-7049024 -312255,-7049039 -312189,-7049052 -312124,-7049063 -312020,-7049075 -311895,-7049091 -311794,-7049102 -311758,-7049105 -311722,-7049108 -311685,-7049110 -311662,-7049110 -311625,-7049111 -311589,-7049110 -311552,-7049109 -311516,-7049107 -311505,-7049107 -311494,-7049107 -311486,-7049118 -311464,-7049118 -311459,-7049106 -311457,-7049101 -311453,-7049097 -311387,-7049100 -311387,-7049105 -311386,-7049110 -311276,-7049118 -311195,-7049124 -311194,-7049120 -311194,-7049115 -311124,-7049124 -311049,-7049135 -310964,-7049142 -310881,-7049147 -310792,-7049153 -310673,-7049157 -310544,-7049164 -310463,-7049167 -310359,-7049173 -310281,-7049175 -310280,-7049182 -310280,-7049200 -310279,-7049225 -310275,-7049239 -310255,-7049296 -310217,-7049391 -310186,-7049470 -310163,-7049536 -310173,-7049543 -310169,-7049571 -310140,-7049648 -310110,-7049728 -310114,-7049730 -310081,-7049807 -310052,-7049880 -310018,-7049972 -310006,-7050000 -310005,-7050002 -309953,-7050096 -309945,-7050106 -309921,-7050153 -309906,-7050181 -309899,-7050195 -309908,-7050199 -309928,-7050207 -309976,-7050227 -309974,-7050230 -309960,-7050254 -309892,-7050377 -309875,-7050413 -309821,-7050505 -309762,-7050620 -309762,-7050629 -309774,-7050638 -309773,-7050655 -309732,-7050725 -309682,-7050815 -309643,-7050889 -309586,-7050999 -309571,-7051024 -309569,-7051026 -309579,-7051031 -309613,-7051050 -309599,-7051139 -309599,-7051142 -309628,-7051153 -309643,-7051159 -309679,-7051179 -309680,-7051185 -309683,-7051192 -309685,-7051199 -309678,-7051221 -309665,-7051255 -309664,-7051259 -309674,-7051262 -309680,-7051265 -309647,-7051339 -309615,-7051417 -309584,-7051478 -309557,-7051522 -309553,-7051535 -309546,-7051569 -309534,-7051588 -309523,-7051613 -309509,-7051657 -309506,-7051674 -309504,-7051703 -309498,-7051714 -309495,-7051720 -309538,-7051738 -309595,-7051759 -309713,-7051806 -309723,-7051810 -309694,-7051865 -309684,-7051885 -309654,-7051947 -309617,-7052036 -309614,-7052041 -309610,-7052049 -309591,-7052085 -309562,-7052150 -309541,-7052224 -309527,-7052275 -309508,-7052349 -309500,-7052406 -309482,-7052488 -309457,-7052611 -309467,-7052619 -309452,-7052684 -309439,-7052772 -309435,-7052783 -309434,-7052785 -309415,-7052790 -309398,-7052792 -309377,-7052794 -309364,-7052792 -309344,-7052789 -309343,-7052793 -309336,-7052863 -309335,-7052955 -309331,-7053002 -309305,-7053113 -309283,-7053105 -309242,-7053227 -309198,-7053371 -309193,-7053385 -309176,-7053431 -309139,-7053539 -309139,-7053562 -309131,-7053594 -309133,-7053601 -309127,-7053613 -309105,-7053718 -309098,-7053791 -309097,-7053796 -309070,-7053790 -309050,-7053782 -309036,-7053773 -308980,-7053734 -308939,-7053743 -308930,-7053750 -308926,-7053756 -308922,-7053760 -308919,-7053762 -308903,-7053765 -308885,-7053770 -308872,-7053772 -308853,-7053788 -308846,-7053789 -308826,-7053789 -308800,-7053791 -308789,-7053789 -308777,-7053783 -308749,-7053791 -308723,-7053789 -308712,-7053793 -308707,-7053796 -308703,-7053801 -308700,-7053806 -308695,-7053816 -308681,-7053873 -308658,-7053966 -308645,-7053970 -308642,-7053986 -308629,-7054024 -308609,-7054119 -308605,-7054131 -308600,-7054138 -308593,-7054146 -308586,-7054152 -308578,-7054157 -308567,-7054161 -308556,-7054164 -308534,-7054167 -308518,-7054163 -308508,-7054162 -308499,-7054162 -308483,-7054166 -308441,-7054184 -308435,-7054193 -308418,-7054214 -308382,-7054246 -308355,-7054276 -308282,-7054322 -308278,-7054325 -308273,-7054326 -308249,-7054327 -308216,-7054321 -308187,-7054301 -308180,-7054299 -308167,-7054297 -308157,-7054297 -308136,-7054301 -308113,-7054302 -308102,-7054305 -308095,-7054305 -308087,-7054304 -308079,-7054300 -308073,-7054296 -308068,-7054289 -308031,-7054259 -307986,-7054228 -307895,-7054183 -307805,-7054148 -307779,-7054132 -307749,-7054117 -307745,-7054102 -307674,-7054094 -307620,-7054084 -307557,-7054057 -307500,-7054042 -307478,-7054035 -307464,-7054031 -307460,-7054030 -307441,-7054028 -307425,-7054026 -307393,-7054028 -307354,-7054032 -307306,-7054037 -307300,-7054018 -307294,-7054021 -307277,-7054004 -307250,-7053965 -307114,-7053805 -307092,-7053785 -307069,-7053769 -306980,-7053737 -306982,-7053800 -306974,-7053908 -306964,-7053978 -306962,-7053995 -306962,-7054029 -306965,-7054052 -306967,-7054061 -306970,-7054069 -306981,-7054089 -306984,-7054094 -307002,-7054131 -306994,-7054136 -307065,-7054251 -307082,-7054273 -307092,-7054284 -307106,-7054298 -307118,-7054309 -307139,-7054324 -307161,-7054336 -307210,-7054360 -307232,-7054373 -307242,-7054381 -307271,-7054408 -307244,-7054425 -307191,-7054441 -307085,-7054476 -307022,-7054496 -306967,-7054512 -306954,-7054517 -306921,-7054535 -306820,-7054583 -306806,-7054593 -306795,-7054600 -306785,-7054605 -306773,-7054609 -306738,-7054616 -306657,-7054635 -306644,-7054629 -306565,-7054644 -306485,-7054675 -306440,-7054695 -306417,-7054704 -306395,-7054718 -306314,-7054833 -306305,-7054836 -306299,-7054840 -306294,-7054845 -306291,-7054851 -306290,-7054856 -306290,-7054861 -306291,-7054866 -306293,-7054871 -306295,-7054875 -306307,-7054887 -306311,-7054892 -306287,-7054916 -306213,-7054977 -306193,-7055002 -306068,-7055125 -306042,-7055150 -305977,-7055156 -305959,-7055160 -305943,-7055168 -305933,-7055175 -305921,-7055185 -305913,-7055195 -305907,-7055203 -305901,-7055214 -305893,-7055235 -305886,-7055284 -305902,-7055396 -305897,-7055412 -305871,-7055479 -305848,-7055573 -305840,-7055620 -305839,-7055669 -305839,-7055672 -305812,-7055823 -305814,-7055872 -305806,-7055912 -305861,-7055913 -305890,-7055914 -306035,-7055913 -306134,-7055910 -306159,-7056004 -306171,-7056049 -306173,-7056073 -306186,-7056127 -306200,-7056172 -306186,-7056176 -306171,-7056181 -306157,-7056185 -306145,-7056190 -306131,-7056195 -306117,-7056201 -306103,-7056207 -306090,-7056213 -306071,-7056222 -306058,-7056228 -306049,-7056232 -306039,-7056236 -306029,-7056239 -306021,-7056242 -306019,-7056242 -306009,-7056245 -306001,-7056248 -305973,-7056256 -305945,-7056264 -305917,-7056271 -305904,-7056275 -305895,-7056277 -305819,-7056297 -305800,-7056300 -305782,-7056303 -305769,-7056305 -305760,-7056306 -305751,-7056306 -305742,-7056306 -305733,-7056306 -305730,-7056306 -305716,-7056306 -305702,-7056306 -305701,-7056306 -305684,-7056305 -305681,-7056304 -305674,-7056304 -305666,-7056304 -305662,-7056305 -305657,-7056305 -305652,-7056306 -305647,-7056307 -305642,-7056308 -305637,-7056309 -305632,-7056310 -305627,-7056311 -305622,-7056313 -305618,-7056314 -305612,-7056316 -305603,-7056319 -305595,-7056322 -305587,-7056325 -305582,-7056327 -305578,-7056328 -305570,-7056332 -305562,-7056336 -305560,-7056337 -305474,-7056369 -305483,-7056400 -305494,-7056437 -305496,-7056448 -305427,-7056452 -305393,-7056452 -305440,-7056527 -305488,-7056608 -305491,-7056613 -305501,-7056629 -305557,-7056718 -305594,-7056781 -305601,-7056795 -305607,-7056808 -305614,-7056823 -305616,-7056829 -305622,-7056844 -305628,-7056859 -305633,-7056874 -305638,-7056890 -305640,-7056895 -305650,-7056923 -305666,-7056972 -305673,-7056992 -305681,-7057017 -305688,-7057042 -305694,-7057061 -305701,-7057087 -305707,-7057113 -305712,-7057138 -305715,-7057156 -305716,-7057167 -305717,-7057179 -305717,-7057190 -305717,-7057201 -305718,-7057212 -305717,-7057223 -305716,-7057235 -305716,-7057246 -305714,-7057256 -305713,-7057266 -305711,-7057276 -305709,-7057286 -305707,-7057295 -305704,-7057305 -305702,-7057315 -305699,-7057324 -305696,-7057332 -305692,-7057344 -305690,-7057349 -305687,-7057356 -305683,-7057369 -305677,-7057380 -305672,-7057392 -305666,-7057404 -305660,-7057416 -305654,-7057427 -305648,-7057439 -305644,-7057448 -305619,-7057491 -305605,-7057525 -305603,-7057531 -305601,-7057538 -305599,-7057545 -305598,-7057552 -305597,-7057559 -305596,-7057566 -305595,-7057573 -305594,-7057580 -305594,-7057583 -305593,-7057594 -305592,-7057604 -305591,-7057615 -305591,-7057625 -305591,-7057630 -305592,-7057637 -305593,-7057645 -305593,-7057652 -305594,-7057660 -305594,-7057661 -305594,-7057670 -305595,-7057680 -305594,-7057690 -305594,-7057693 -305594,-7057695 -305594,-7057702 -305593,-7057710 -305592,-7057717 -305591,-7057723 -305591,-7057724 -305589,-7057730 -305588,-7057734 -305587,-7057738 -305586,-7057741 -305584,-7057745 -305583,-7057748 -305581,-7057752 -305580,-7057754 -305578,-7057756 -305577,-7057758 -305575,-7057760 -305573,-7057762 -305572,-7057764 -305570,-7057766 -305568,-7057768 -305567,-7057770 -305565,-7057771 -305563,-7057773 -305561,-7057775 -305508,-7057791 -305468,-7057804 -305462,-7057805 -305460,-7057805 -305445,-7057809 -305370,-7057765 -305261,-7057699 -305182,-7057659 -305128,-7057631 -305077,-7057605 -305066,-7057601 -305056,-7057597 -305046,-7057594 -305036,-7057590 -305027,-7057588 -305005,-7057579 -304906,-7057553 -304864,-7057545 -304828,-7057539 -304760,-7057527 -304688,-7057517 -304632,-7057506 -304429,-7057444 -304397,-7057434 -304366,-7057425 -304270,-7057398 -304155,-7057371 -304124,-7057362 -304095,-7057355 -304035,-7057339 -303976,-7057321 -303942,-7057312 -303935,-7057310" stroke="#006747" stroke-width="44" /></ns0:svg>    <rect x="20" y="50"  width="250" height="25"  rx="0"  fill="#006747" fill-opacity="0.8" />    <text x="145" y="70" text-anchor="middle" font-family="Frutiger" font-weight="bold" font-size="30" fill="white">Halton</text>    <rect x="35" y="195" width="220" height="160" rx="15" fill="#78BE20"/>    <g font-family="Frutiger" font-size="15" fill="#231F20">        <g> <text x="45" y="218">Self-harm</text> <text x="245" y="218" text-anchor="end">70</text> </g>        <g> <text x="45" y="243">SEN</text> <text x="245" y="243" text-anchor="end">60</text> </g>        <g> <text x="45" y="268">Difficulties</text> <text x="245" y="268" text-anchor="end">67</text> </g>        <g> <text x="45" y="293">Child Carer</text> <text x="245" y="293" text-anchor="end">5</text> </g>        <g> <text x="45" y="318">Drinkers</text> <text x="245" y="318" text-anchor="end">59</text> </g>        <g> <text x="45" y="343">Safeguarding £</text> <text x="245" y="343" text-anchor="end">31</text> </g>    </g></svg>