<?xml version="1.0" standalone="no"?>
<!DOCTYPE svg PUBLIC "-//W3C//DTD SVG 1.1//EN"
"http://www.w3.org/Graphics/SVG/1.1/DTD/svg11.dtd">
<svg height="1800" version="1.1" width="1800" xmlns="http://www.w3.org/2000/svg"><defs><style type="text/css">@font-face {font-family: 'Frutiger';font-style: normal;font-weight: normal;src: local('Frutiger'), url('../fonts/Frutiger.woff') format('woff');}@font-face {font-family: 'Frutiger Bold';font-style: normal;font-weight: normal;src: local('Frutiger Bold'), url('../fonts/Frutiger_bold.woff') format('woff');}        </style>    </defs>    <rect x="20" y="20"  width="250" height="350" rx="15" fill="#009639" />    <rect x="35" y="35"  width="220" height="145" rx="15" fill="#E8EDEE" /><ns0:svg xmlns:ns0="http://www.w3.org/2000/svg" height="115" version="1.1" viewBox="-74445 -6858731 47648 48738" width="220" x="35" y="50"><ns0:polygon fill="#006747" points=" -50420,-6857825 -50243,-6857701 -50114,-6857620 -50033,-6857566 -49944,-6857511 -49793,-6857430 -49774,-6857418 -49709,-6857366 -49675,-6857337 -49634,-6857306 -49524,-6857219 -49446,-6857143 -49428,-6857158 -49410,-6857164 -49381,-6857149 -49372,-6857142 -49365,-6857135 -49356,-6857116 -49339,-6857101 -49322,-6857095 -49314,-6857096 -49306,-6857099 -49284,-6857115 -49272,-6857121 -49259,-6857127 -49236,-6857131 -49215,-6857142 -49204,-6857170 -49192,-6857187 -49180,-6857208 -49166,-6857229 -49157,-6857274 -49156,-6857306 -49154,-6857315 -49149,-6857321 -49144,-6857324 -49139,-6857326 -49135,-6857327 -49132,-6857327 -49125,-6857325 -49108,-6857323 -49058,-6857321 -49044,-6857326 -49038,-6857330 -49026,-6857341 -49019,-6857346 -49011,-6857351 -49003,-6857352 -48999,-6857352 -48965,-6857345 -48917,-6857338 -48913,-6857336 -48908,-6857332 -48902,-6857322 -48899,-6857308 -48896,-6857290 -48894,-6857285 -48889,-6857279 -48886,-6857278 -48881,-6857276 -48875,-6857276 -48869,-6857277 -48861,-6857282 -48814,-6857277 -48759,-6857268 -48753,-6857266 -48748,-6857262 -48744,-6857256 -48741,-6857248 -48725,-6857227 -48714,-6857216 -48700,-6857208 -48663,-6857196 -48589,-6857177 -48577,-6857177 -48566,-6857179 -48545,-6857186 -48533,-6857141 -48478,-6856846 -48465,-6856767 -48258,-6856714 -48257,-6856710 -48243,-6856626 -48238,-6856597 -48224,-6856461 -48217,-6856366 -48210,-6856122 -48207,-6856055 -48235,-6855863 -48249,-6855778 -48264,-6855724 -48288,-6855671 -48320,-6855588 -48327,-6855491 -48329,-6855424 -48329,-6855284 -48331,-6855230 -48330,-6855175 -48317,-6855046 -48301,-6854980 -48336,-6854904 -48401,-6854740 -48420,-6854679 -48457,-6854539 -48510,-6854345 -48512,-6854297 -48512,-6854259 -48511,-6854221 -48509,-6854150 -48510,-6854096 -48510,-6854001 -48508,-6853943 -48449,-6853924 -48384,-6853895 -48329,-6853913 -48246,-6853937 -48234,-6853939 -48225,-6853939 -48217,-6853938 -48208,-6853935 -48194,-6853930 -48175,-6853926 -48149,-6853919 -48134,-6853915 -48077,-6853932 -48076,-6853932 -48071,-6853922 -48070,-6853917 -48072,-6853910 -48097,-6853872 -48123,-6853823 -48094,-6853791 -48087,-6853737 -48083,-6853685 -48098,-6853573 -48038,-6853555 -48008,-6853541 -48027,-6853473 -48046,-6853416 -48079,-6853360 -48109,-6853300 -48112,-6853294 -48114,-6853287 -48115,-6853280 -48114,-6853274 -48111,-6853262 -48102,-6853239 -48076,-6853188 -48021,-6853121 -47999,-6853098 -47939,-6853055 -47859,-6853026 -47835,-6853016 -47818,-6853013 -47806,-6853012 -47780,-6853009 -47756,-6853002 -47732,-6852994 -47679,-6852970 -47634,-6852942 -47597,-6852908 -47551,-6852881 -47531,-6852870 -47528,-6852866 -47525,-6852851 -47526,-6852809 -47525,-6852788 -47525,-6852768 -47523,-6852766 -47508,-6852751 -47455,-6852725 -47417,-6852701 -47368,-6852640 -47355,-6852632 -47298,-6852603 -47274,-6852604 -47256,-6852636 -47213,-6852615 -47202,-6852616 -47184,-6852621 -47177,-6852624 -47169,-6852631 -47161,-6852635 -47157,-6852635 -47149,-6852633 -47140,-6852629 -47127,-6852621 -47122,-6852621 -47116,-6852622 -47097,-6852639 -47072,-6852632 -47048,-6852618 -47032,-6852581 -47014,-6852535 -46994,-6852490 -47008,-6852482 -47017,-6852476 -47032,-6852463 -47038,-6852455 -47048,-6852438 -47079,-6852403 -47082,-6852397 -47088,-6852385 -47091,-6852372 -47091,-6852358 -47090,-6852344 -47084,-6852322 -47061,-6852261 -47036,-6852205 -47025,-6852174 -47013,-6852142 -47004,-6852107 -46995,-6852071 -46987,-6852032 -46959,-6851894 -46950,-6851812 -46835,-6851800 -46709,-6851784 -46655,-6851776 -46643,-6851685 -46516,-6851694 -46434,-6851681 -46411,-6851678 -46363,-6851684 -46340,-6851689 -46317,-6851694 -46273,-6851715 -46187,-6851780 -46148,-6851780 -46080,-6851748 -46068,-6851738 -46062,-6851735 -46056,-6851733 -46047,-6851731 -46037,-6851731 -46028,-6851734 -46020,-6851737 -46002,-6851750 -45992,-6851755 -45983,-6851759 -45971,-6851761 -45960,-6851762 -45958,-6851763 -45944,-6851763 -45910,-6851760 -45894,-6851760 -45868,-6851771 -45854,-6851778 -45842,-6851782 -45832,-6851783 -45825,-6851783 -45810,-6851780 -45766,-6851762 -45658,-6851730 -45624,-6851828 -45616,-6851852 -45609,-6851876 -45590,-6851944 -45555,-6852056 -45522,-6852125 -45509,-6852143 -45461,-6852212 -45397,-6852258 -45391,-6852262 -45379,-6852268 -45368,-6852273 -45347,-6852280 -45296,-6852272 -45292,-6852270 -45267,-6852250 -45232,-6852217 -45192,-6852173 -45143,-6852127 -45096,-6852077 -45048,-6852021 -45016,-6851986 -44972,-6851943 -44926,-6851876 -44888,-6851795 -44868,-6851750 -44860,-6851732 -44856,-6851700 -44855,-6851647 -44848,-6851612 -44847,-6851599 -44846,-6851590 -44808,-6851553 -44748,-6851496 -44782,-6851404 -44803,-6851354 -44831,-6851295 -44795,-6851243 -44778,-6851202 -44771,-6851188 -44767,-6851181 -44750,-6851140 -44733,-6851105 -44712,-6851056 -44698,-6851017 -44684,-6850961 -44673,-6850924 -44649,-6850878 -44628,-6850844 -44545,-6850751 -44520,-6850729 -44469,-6850707 -44414,-6850680 -44382,-6850679 -44358,-6850710 -44341,-6850756 -44286,-6850880 -44260,-6850927 -44227,-6850920 -44208,-6850925 -44189,-6850949 -44170,-6850986 -44141,-6851038 -44111,-6851078 -44082,-6851111 -44063,-6851111 -44045,-6851109 -44018,-6851123 -44000,-6851135 -43990,-6851142 -43982,-6851148 -43924,-6851201 -43831,-6851282 -43808,-6851300 -43786,-6851318 -43743,-6851342 -43706,-6851354 -43656,-6851333 -43613,-6851313 -43576,-6851302 -43523,-6851293 -43417,-6851286 -43294,-6851278 -43177,-6851268 -43114,-6851265 -43044,-6851258 -42996,-6851221 -42936,-6851183 -42916,-6851188 -42906,-6851194 -42880,-6851180 -42870,-6851170 -42856,-6851170 -42850,-6851175 -42845,-6851177 -42840,-6851177 -42835,-6851176 -42828,-6851170 -42817,-6851153 -42799,-6851158 -42758,-6851188 -42703,-6851221 -42664,-6851242 -42627,-6851272 -42588,-6851295 -42544,-6851315 -42487,-6851343 -42381,-6851390 -42365,-6851397 -42347,-6851370 -42332,-6851350 -42301,-6851337 -42252,-6851301 -42212,-6851288 -42140,-6851249 -42118,-6851240 -42086,-6851215 -42026,-6851202 -41967,-6851193 -41948,-6851178 -41933,-6851147 -41901,-6851139 -41900,-6851139 -41882,-6851127 -41880,-6851125 -41891,-6851093 -41892,-6851063 -41871,-6851044 -41855,-6851015 -41851,-6851008 -41818,-6851002 -41797,-6850994 -41771,-6850998 -41745,-6850997 -41747,-6850968 -41757,-6850918 -41775,-6850870 -41798,-6850856 -41809,-6850833 -41825,-6850807 -41844,-6850787 -41837,-6850765 -41828,-6850756 -41818,-6850747 -41792,-6850738 -41790,-6850705 -41790,-6850612 -41804,-6850584 -41802,-6850547 -41798,-6850532 -41797,-6850531 -41756,-6850537 -41737,-6850509 -41703,-6850466 -41678,-6850447 -41668,-6850425 -41664,-6850386 -41682,-6850373 -41706,-6850368 -41717,-6850363 -41721,-6850359 -41727,-6850349 -41728,-6850343 -41728,-6850335 -41727,-6850328 -41720,-6850316 -41718,-6850290 -41722,-6850258 -41719,-6850237 -41718,-6850234 -41686,-6850231 -41656,-6850226 -41626,-6850215 -41586,-6850206 -41576,-6850184 -41561,-6850165 -41554,-6850147 -41532,-6850123 -41481,-6850107 -41473,-6850101 -41469,-6850097 -41466,-6850091 -41464,-6850083 -41463,-6850077 -41465,-6850060 -41465,-6850050 -41446,-6850027 -41440,-6850002 -41466,-6849931 -41456,-6849905 -41445,-6849883 -41451,-6849859 -41420,-6849832 -41426,-6849813 -41439,-6849806 -41449,-6849800 -41457,-6849793 -41461,-6849786 -41464,-6849781 -41465,-6849776 -41465,-6849765 -41462,-6849757 -41452,-6849742 -41430,-6849729 -41473,-6849732 -41491,-6849742 -41514,-6849736 -41519,-6849733 -41524,-6849729 -41528,-6849725 -41530,-6849719 -41531,-6849714 -41531,-6849709 -41530,-6849705 -41527,-6849698 -41525,-6849685 -41546,-6849680 -41566,-6849674 -41594,-6849655 -41609,-6849642 -41631,-6849638 -41653,-6849654 -41680,-6849680 -41680,-6849706 -41688,-6849720 -41709,-6849719 -41715,-6849719 -41719,-6849721 -41726,-6849725 -41729,-6849729 -41731,-6849735 -41731,-6849741 -41726,-6849751 -41725,-6849757 -41725,-6849765 -41725,-6849770 -41727,-6849777 -41731,-6849786 -41736,-6849794 -41742,-6849799 -41772,-6849821 -41783,-6849825 -41789,-6849827 -41802,-6849827 -41813,-6849824 -41849,-6849821 -41868,-6849818 -41904,-6849812 -41915,-6849812 -41925,-6849814 -41935,-6849818 -41946,-6849825 -41954,-6849824 -41962,-6849822 -41967,-6849811 -41972,-6849800 -41977,-6849767 -41993,-6849732 -42012,-6849704 -42023,-6849705 -42043,-6849720 -42066,-6849739 -42091,-6849748 -42124,-6849737 -42132,-6849736 -42139,-6849734 -42146,-6849729 -42151,-6849723 -42155,-6849716 -42157,-6849709 -42157,-6849702 -42155,-6849695 -42150,-6849688 -42142,-6849680 -42128,-6849671 -42125,-6849667 -42122,-6849662 -42121,-6849654 -42126,-6849640 -42138,-6849641 -42193,-6849646 -42220,-6849655 -42251,-6849652 -42295,-6849663 -42360,-6849684 -42391,-6849675 -42405,-6849669 -42414,-6849663 -42420,-6849656 -42426,-6849649 -42432,-6849638 -42438,-6849627 -42441,-6849618 -42445,-6849596 -42451,-6849570 -42449,-6849540 -42435,-6849496 -42430,-6849480 -42429,-6849468 -42436,-6849461 -42459,-6849463 -42481,-6849461 -42498,-6849445 -42505,-6849403 -42502,-6849384 -42486,-6849364 -42476,-6849346 -42464,-6849313 -42465,-6849311 -42478,-6849297 -42504,-6849289 -42529,-6849291 -42551,-6849299 -42562,-6849297 -42557,-6849264 -42549,-6849223 -42549,-6849187 -42542,-6849147 -42539,-6849106 -42532,-6849060 -42531,-6849044 -42531,-6849024 -42534,-6848987 -42534,-6848953 -42534,-6848948 -42526,-6848917 -42524,-6848901 -42521,-6848884 -42520,-6848857 -42521,-6848835 -42512,-6848751 -42511,-6848711 -42508,-6848648 -42511,-6848576 -42512,-6848432 -42508,-6848368 -42502,-6848325 -42409,-6848309 -42354,-6848294 -42305,-6848282 -42258,-6848268 -42213,-6848259 -42129,-6848236 -42124,-6848172 -42122,-6848082 -42129,-6848051 -42133,-6848021 -42137,-6847929 -42140,-6847869 -42140,-6847815 -42135,-6847744 -42135,-6847659 -42130,-6847623 -42125,-6847549 -42123,-6847493 -42118,-6847442 -42118,-6847387 -42115,-6847304 -42110,-6847265 -42108,-6847228 -42103,-6847169 -42096,-6847047 -42099,-6847034 -42112,-6847023 -42112,-6847011 -42097,-6846796 -42097,-6846747 -42092,-6846692 -42090,-6846549 -42093,-6846472 -42097,-6846429 -42108,-6846413 -42109,-6846399 -42108,-6846347 -42114,-6846289 -42111,-6846199 -42116,-6846157 -42121,-6846138 -42125,-6846105 -42120,-6846044 -42117,-6845963 -42106,-6845869 -42089,-6845755 -42075,-6845680 -42067,-6845615 -42063,-6845593 -42058,-6845571 -42043,-6845523 -42032,-6845493 -42020,-6845453 -42013,-6845367 -42012,-6845319 -42007,-6845224 -41999,-6845149 -41996,-6845123 -41992,-6845099 -41987,-6845075 -41976,-6845033 -41960,-6844937 -41953,-6844907 -41941,-6844850 -41938,-6844823 -41899,-6844713 -41882,-6844635 -41877,-6844536 -41865,-6844477 -41851,-6844427 -41847,-6844410 -41834,-6844366 -41820,-6844305 -41810,-6844276 -41787,-6844212 -41775,-6844168 -41759,-6844044 -41759,-6844032 -41759,-6844020 -41774,-6843980 -41775,-6843948 -41761,-6843900 -41747,-6843842 -41734,-6843801 -41727,-6843755 -41726,-6843681 -41710,-6843476 -41711,-6843442 -41720,-6843413 -41736,-6843407 -41744,-6843411 -41751,-6843412 -41758,-6843412 -41764,-6843410 -41771,-6843405 -41775,-6843400 -41776,-6843395 -41776,-6843391 -41772,-6843386 -41768,-6843383 -41736,-6843325 -41717,-6843293 -41626,-6843145 -41605,-6843090 -41601,-6843043 -41599,-6842990 -41599,-6842929 -41595,-6842870 -41584,-6842802 -41581,-6842767 -41574,-6842663 -41561,-6842595 -41561,-6842551 -41561,-6842546 -41614,-6842524 -41670,-6842499 -41696,-6842478 -41683,-6842402 -41675,-6842364 -41606,-6842397 -41584,-6842418 -41573,-6842434 -41554,-6842428 -41531,-6842436 -41389,-6842520 -41317,-6842542 -41295,-6842556 -41269,-6842563 -41244,-6842565 -41229,-6842581 -41211,-6842587 -41171,-6842593 -41133,-6842621 -41107,-6842639 -41088,-6842643 -41076,-6842655 -41051,-6842664 -41010,-6842666 -40984,-6842663 -40810,-6842639 -40774,-6842638 -40733,-6842639 -40715,-6842638 -40683,-6842634 -40628,-6842624 -40580,-6842621 -40570,-6842620 -40567,-6842604 -40564,-6842575 -40551,-6842565 -40516,-6842564 -40492,-6842561 -40456,-6842561 -40379,-6842558 -40353,-6842566 -40343,-6842566 -40314,-6842566 -40284,-6842569 -40233,-6842584 -40223,-6842588 -40199,-6842613 -40184,-6842633 -40149,-6842643 -40115,-6842655 -40076,-6842664 -40013,-6842671 -39994,-6842674 -39967,-6842680 -39955,-6842654 -39944,-6842635 -39916,-6842637 -39893,-6842635 -39856,-6842642 -39837,-6842644 -39793,-6842649 -39778,-6842647 -39763,-6842645 -39750,-6842634 -39724,-6842633 -39695,-6842626 -39669,-6842631 -39593,-6842612 -39580,-6842604 -39570,-6842594 -39554,-6842586 -39542,-6842571 -39518,-6842555 -39497,-6842533 -39461,-6842505 -39446,-6842488 -39429,-6842476 -39416,-6842460 -39408,-6842452 -39377,-6842429 -39363,-6842406 -39358,-6842378 -39352,-6842357 -39329,-6842332 -39323,-6842325 -39319,-6842316 -39315,-6842306 -39311,-6842282 -39303,-6842262 -39283,-6842247 -39274,-6842243 -39263,-6842202 -39236,-6842152 -39227,-6842129 -39203,-6842115 -39195,-6842112 -39169,-6842107 -39165,-6842093 -39136,-6842082 -39127,-6842073 -39117,-6842064 -39088,-6842026 -39081,-6842018 -39060,-6842013 -39029,-6841995 -39003,-6841993 -38972,-6841985 -38965,-6841973 -38952,-6841969 -38935,-6841978 -38939,-6842000 -38933,-6842009 -38912,-6842019 -38889,-6842036 -38866,-6842036 -38847,-6842042 -38842,-6842042 -38836,-6842042 -38819,-6842033 -38811,-6842030 -38803,-6842027 -38787,-6842025 -38770,-6842023 -38686,-6842021 -38666,-6841996 -38660,-6841991 -38640,-6841993 -38629,-6841988 -38602,-6841973 -38585,-6841967 -38584,-6841956 -38572,-6841949 -38556,-6841953 -38535,-6841942 -38522,-6841939 -38495,-6841934 -38480,-6841933 -38432,-6841952 -38400,-6841942 -38391,-6841933 -38362,-6841936 -38333,-6841936 -38314,-6841919 -38300,-6841933 -38287,-6841928 -38264,-6841923 -38230,-6841927 -38214,-6841933 -38200,-6841935 -38183,-6841930 -38167,-6841931 -38138,-6841930 -38084,-6841934 -38060,-6841937 -38036,-6841940 -38008,-6841956 -37987,-6841943 -37977,-6841938 -37967,-6841935 -37961,-6841937 -37955,-6841940 -37943,-6841957 -37893,-6841982 -37888,-6841989 -37912,-6842029 -37957,-6842117 -38001,-6842198 -38060,-6842318 -38099,-6842315 -38179,-6842466 -38217,-6842553 -38249,-6842643 -38307,-6842756 -38300,-6842781 -38275,-6842785 -38220,-6842786 -38184,-6842781 -38156,-6842775 -38143,-6842794 -38156,-6842824 -38175,-6842851 -38197,-6842892 -38218,-6842990 -38217,-6843060 -38216,-6843079 -38207,-6843116 -38189,-6843165 -38188,-6843171 -38221,-6843253 -38247,-6843276 -38254,-6843287 -38261,-6843298 -38295,-6843363 -38293,-6843397 -38291,-6843415 -38288,-6843433 -38280,-6843465 -38277,-6843501 -38262,-6843558 -38238,-6843621 -38235,-6843639 -38228,-6843700 -38221,-6843809 -38219,-6843854 -38215,-6843883 -38206,-6843894 -38234,-6843978 -38181,-6843993 -37987,-6844031 -37945,-6844038 -37872,-6844047 -37769,-6844051 -37734,-6844052 -37668,-6844048 -37624,-6844038 -37594,-6844064 -37559,-6844087 -37525,-6844105 -37484,-6844118 -37435,-6844136 -37319,-6844161 -37235,-6844168 -37178,-6844167 -37120,-6844169 -37042,-6844158 -37005,-6844148 -36947,-6844137 -36881,-6844139 -36764,-6844119 -36701,-6844105 -36655,-6844101 -36610,-6844124 -36590,-6844124 -36555,-6844141 -36527,-6844156 -36491,-6844165 -36460,-6844167 -36415,-6844183 -36375,-6844186 -36280,-6844180 -36225,-6844178 -36190,-6844167 -36169,-6844158 -36130,-6844169 -36104,-6844172 -36058,-6844190 -35997,-6844198 -35964,-6844205 -35937,-6844186 -35878,-6844189 -35739,-6844149 -35680,-6844143 -35621,-6844129 -35575,-6844107 -35534,-6844093 -35489,-6844072 -35464,-6844062 -35437,-6844052 -35384,-6844033 -35345,-6844018 -35315,-6844000 -35303,-6843997 -35275,-6843979 -35201,-6843940 -35165,-6843912 -35108,-6843851 -35068,-6843811 -35054,-6843792 -35041,-6843774 -34996,-6843691 -34984,-6843667 -34972,-6843644 -34946,-6843582 -34919,-6843455 -34830,-6843503 -34752,-6843548 -34677,-6843588 -34627,-6843611 -34575,-6843625 -34518,-6843633 -34460,-6843632 -34407,-6843629 -34310,-6843619 -34283,-6843613 -34255,-6843615 -34226,-6843621 -34137,-6843637 -34056,-6843654 -33954,-6843671 -33897,-6843683 -33790,-6843694 -33695,-6843710 -33663,-6843716 -33631,-6843722 -33567,-6843742 -33475,-6843763 -33388,-6843787 -33327,-6843801 -33240,-6843816 -33231,-6843817 -33175,-6843797 -33055,-6843766 -32931,-6843727 -32873,-6843727 -32842,-6843728 -32688,-6843737 -32639,-6843731 -32624,-6843681 -32593,-6843641 -32552,-6843590 -32509,-6843541 -32484,-6843518 -32462,-6843498 -32418,-6843474 -32392,-6843463 -32334,-6843441 -32240,-6843406 -32171,-6843373 -32108,-6843353 -32060,-6843331 -31996,-6843291 -31928,-6843250 -31835,-6843190 -31803,-6843165 -31794,-6843142 -31805,-6843112 -31814,-6843070 -31806,-6843026 -31807,-6842954 -31827,-6842867 -31845,-6842815 -31907,-6842700 -31919,-6842678 -31995,-6842556 -32044,-6842482 -32158,-6842335 -32239,-6842233 -32278,-6842179 -32317,-6842125 -32521,-6841818 -32569,-6841740 -32555,-6841715 -32563,-6841705 -32569,-6841698 -32593,-6841710 -32637,-6841617 -32701,-6841535 -32720,-6841493 -32796,-6841317 -32843,-6841191 -32895,-6841074 -32937,-6840970 -32960,-6840903 -33160,-6840506 -33206,-6840407 -33284,-6840230 -33301,-6840189 -33316,-6840144 -33331,-6840092 -33341,-6840062 -33342,-6840033 -33352,-6840000 -33359,-6839985 -33377,-6839855 -33389,-6839688 -33391,-6839649 -33391,-6839639 -33389,-6839610 -33382,-6839554 -33381,-6839529 -33380,-6839516 -33367,-6839450 -33339,-6839326 -33327,-6839283 -33316,-6839255 -33310,-6839236 -33301,-6839206 -33176,-6838884 -33147,-6838814 -33116,-6838731 -33109,-6838709 -33104,-6838683 -33066,-6838540 -33070,-6838526 -33062,-6838513 -33004,-6838335 -32982,-6838274 -32903,-6838266 -32856,-6838135 -32848,-6838102 -32852,-6838095 -32850,-6838089 -32848,-6838083 -32830,-6838065 -32822,-6838022 -32812,-6837988 -32804,-6837965 -32795,-6837943 -32767,-6837886 -32733,-6837849 -32720,-6837835 -32700,-6837817 -32679,-6837800 -32663,-6837789 -32647,-6837778 -32613,-6837757 -32566,-6837737 -32535,-6837729 -32494,-6837720 -32423,-6837718 -32420,-6837719 -32408,-6837723 -32398,-6837730 -32391,-6837738 -32370,-6837767 -32304,-6837764 -32290,-6837752 -32281,-6837745 -32271,-6837738 -32249,-6837729 -32215,-6837718 -32182,-6837712 -32159,-6837710 -32140,-6837708 -32108,-6837709 -32087,-6837719 -32019,-6837732 -31630,-6837812 -31504,-6837830 -31257,-6837870 -31211,-6837877 -31204,-6837900 -31112,-6837899 -30871,-6837936 -30836,-6837924 -30735,-6837939 -30701,-6837941 -30659,-6837949 -30654,-6837937 -30524,-6837953 -30414,-6837969 -30411,-6837983 -30408,-6837986 -30112,-6838022 -29891,-6838059 -29814,-6838070 -29777,-6838076 -29770,-6838077 -29740,-6838083 -29634,-6838107 -29568,-6838111 -29487,-6838118 -29310,-6838133 -29280,-6838137 -29260,-6838141 -29228,-6838148 -29154,-6838160 -29148,-6838161 -29154,-6838148 -29152,-6838129 -29155,-6838123 -29157,-6838118 -29161,-6838112 -29167,-6838104 -29179,-6838090 -29217,-6837961 -29230,-6837921 -29336,-6837693 -29402,-6837530 -29396,-6837525 -29416,-6837501 -29458,-6837454 -29475,-6837429 -29489,-6837408 -29457,-6837400 -29369,-6837400 -29338,-6837396 -29194,-6837387 -29180,-6837361 -28992,-6837353 -29049,-6837192 -29064,-6837143 -29074,-6837122 -29069,-6837111 -29064,-6837105 -29055,-6837097 -29025,-6837088 -29018,-6837084 -29016,-6837079 -29006,-6837030 -28881,-6837011 -28857,-6837006 -28839,-6837001 -28806,-6836988 -28718,-6836966 -28697,-6836957 -28684,-6836953 -28665,-6836948 -28555,-6836883 -28530,-6836819 -28473,-6836667 -28464,-6836646 -28456,-6836621 -28446,-6836601 -28442,-6836594 -28429,-6836584 -28425,-6836583 -28416,-6836583 -28412,-6836584 -28403,-6836589 -28357,-6836632 -28348,-6836445 -28347,-6836368 -28343,-6836337 -28341,-6836327 -28331,-6836274 -28319,-6836242 -28287,-6836194 -28266,-6836157 -28247,-6836130 -28241,-6836119 -28223,-6836076 -28196,-6836021 -28174,-6835927 -28160,-6835898 -28150,-6835872 -28136,-6835850 -28114,-6835818 -28047,-6835737 -28068,-6835665 -28068,-6835655 -28067,-6835649 -28063,-6835638 -28009,-6835562 -27996,-6835550 -27973,-6835533 -27917,-6835500 -27877,-6835490 -27853,-6835478 -27838,-6835468 -27823,-6835457 -27813,-6835448 -27776,-6835410 -27750,-6835377 -27630,-6835140 -27593,-6835079 -27591,-6835070 -27587,-6835066 -27583,-6835063 -27577,-6835061 -27567,-6835061 -27515,-6835039 -27495,-6835027 -27484,-6835018 -27480,-6835013 -27467,-6834978 -27448,-6834940 -27427,-6834910 -27409,-6834891 -27385,-6834880 -27371,-6834870 -27371,-6834870 -27350,-6834859 -27315,-6834852 -27221,-6834836 -27193,-6834825 -27183,-6834819 -27173,-6834813 -27152,-6834801 -27131,-6834784 -27100,-6834764 -27042,-6834733 -27025,-6834721 -27019,-6834714 -27012,-6834704 -27004,-6834685 -26989,-6834662 -26975,-6834646 -26946,-6834621 -26939,-6834618 -26922,-6834611 -26886,-6834607 -26855,-6834601 -26825,-6834595 -26797,-6834588 -26800,-6834564 -26802,-6834521 -26810,-6834509 -26822,-6834501 -26839,-6834470 -26896,-6834267 -26931,-6834131 -26945,-6834085 -26966,-6834020 -26984,-6833933 -26989,-6833896 -26993,-6833882 -27012,-6833821 -27039,-6833698 -27048,-6833645 -27064,-6833562 -27094,-6833455 -27111,-6833408 -27162,-6833224 -27175,-6833226 -27168,-6833268 -27189,-6833272 -27290,-6833302 -27314,-6833306 -27348,-6833316 -27409,-6833322 -27415,-6833321 -27428,-6833325 -27443,-6833327 -27453,-6833327 -27467,-6833325 -27521,-6833323 -27525,-6833323 -27523,-6833337 -27517,-6833365 -27500,-6833418 -27505,-6833420 -27781,-6833511 -27805,-6833530 -27910,-6833583 -27937,-6833587 -27955,-6833592 -27969,-6833598 -27992,-6833611 -28065,-6833669 -28083,-6833681 -28292,-6833791 -28298,-6833793 -28312,-6833797 -28336,-6833800 -28386,-6833794 -28403,-6833788 -28413,-6833786 -28426,-6833785 -28438,-6833785 -28468,-6833791 -28490,-6833799 -28504,-6833803 -28521,-6833805 -28525,-6833793 -28586,-6833806 -28795,-6833860 -28844,-6833871 -29013,-6833902 -29127,-6833928 -29235,-6833956 -29262,-6833960 -29273,-6833961 -29300,-6833961 -29428,-6833971 -29489,-6833979 -29517,-6833982 -29647,-6833999 -29714,-6834026 -29742,-6834040 -29773,-6834060 -29785,-6834063 -29797,-6834064 -29880,-6834069 -29929,-6834068 -29953,-6834070 -29968,-6834070 -29984,-6834068 -30004,-6834065 -30024,-6834061 -30087,-6834061 -30254,-6834087 -30303,-6834096 -30335,-6834104 -30352,-6834108 -30383,-6834120 -30443,-6834148 -30465,-6834164 -30559,-6834249 -30606,-6834272 -30675,-6834299 -30699,-6834306 -30880,-6834345 -30994,-6834375 -31045,-6834389 -31055,-6834391 -31090,-6834395 -31113,-6834402 -31138,-6834409 -31292,-6834471 -31316,-6834422 -31354,-6834432 -31366,-6834435 -31378,-6834440 -31391,-6834446 -31410,-6834458 -31564,-6834532 -31597,-6834561 -31665,-6834594 -31866,-6834685 -31882,-6834691 -31899,-6834697 -31924,-6834704 -31949,-6834710 -31976,-6834714 -32021,-6834716 -32184,-6834721 -32196,-6834666 -32203,-6834639 -32226,-6834557 -32284,-6834391 -32416,-6834033 -32436,-6833984 -32449,-6833948 -32467,-6833892 -32522,-6833759 -32531,-6833733 -32547,-6833695 -32563,-6833663 -32577,-6833640 -32616,-6833565 -32617,-6833561 -32622,-6833552 -32719,-6833287 -32724,-6833278 -32733,-6833262 -32743,-6833248 -32754,-6833234 -32791,-6833195 -32800,-6833188 -32808,-6833182 -32904,-6833133 -32926,-6833120 -32947,-6833106 -33014,-6833055 -33124,-6832964 -33158,-6832935 -33174,-6832915 -33191,-6832890 -33209,-6832867 -33238,-6832833 -33278,-6832793 -33304,-6832759 -33333,-6832728 -33428,-6832619 -33511,-6832514 -33551,-6832468 -33582,-6832415 -33609,-6832331 -33614,-6832313 -33619,-6832295 -33624,-6832254 -33631,-6832208 -33646,-6832141 -33655,-6832110 -33660,-6832089 -33667,-6832047 -33671,-6832009 -33672,-6831974 -33681,-6831920 -33677,-6831892 -33675,-6831869 -33674,-6831852 -33675,-6831819 -33686,-6831774 -33688,-6831756 -33691,-6831747 -33694,-6831740 -33699,-6831732 -33707,-6831722 -33719,-6831694 -33732,-6831671 -33737,-6831658 -33740,-6831645 -33743,-6831632 -33745,-6831606 -33749,-6831597 -33737,-6831564 -33729,-6831557 -33725,-6831552 -33723,-6831547 -33722,-6831540 -33727,-6831507 -33731,-6831500 -33733,-6831489 -33733,-6831483 -33730,-6831473 -33709,-6831235 -33678,-6831218 -33655,-6831202 -33632,-6831186 -33608,-6831165 -33605,-6831161 -33602,-6831154 -33601,-6831150 -33598,-6831121 -33599,-6831104 -33603,-6831091 -33619,-6831059 -33621,-6831054 -33631,-6831045 -33636,-6831039 -33642,-6831029 -33646,-6831027 -33657,-6831026 -33668,-6831027 -33679,-6831029 -33689,-6831033 -33695,-6831037 -33740,-6831073 -33744,-6831073 -33751,-6831070 -33757,-6831066 -33761,-6831060 -33764,-6831053 -33764,-6831043 -33776,-6830958 -33789,-6830884 -33822,-6830773 -33824,-6830755 -33824,-6830730 -33822,-6830720 -33820,-6830715 -33812,-6830704 -33780,-6830634 -33776,-6830618 -33775,-6830609 -33776,-6830594 -33777,-6830588 -33785,-6830574 -33835,-6830511 -33843,-6830497 -33850,-6830477 -33858,-6830436 -33859,-6830416 -33862,-6830389 -33871,-6830360 -33899,-6830363 -33907,-6830327 -33924,-6830289 -33931,-6830277 -33963,-6830269 -33964,-6830279 -33966,-6830283 -33970,-6830290 -33977,-6830294 -33986,-6830296 -34000,-6830295 -34034,-6830295 -34038,-6830294 -34078,-6830261 -34082,-6830252 -34095,-6830164 -34096,-6830145 -34093,-6830136 -34090,-6830133 -34087,-6830129 -34077,-6830124 -34066,-6830116 -34103,-6830094 -34136,-6830105 -34176,-6830111 -34213,-6830100 -34219,-6830098 -34225,-6830099 -34229,-6830100 -34233,-6830102 -34236,-6830105 -34238,-6830108 -34239,-6830111 -34244,-6830130 -34247,-6830136 -34252,-6830141 -34258,-6830145 -34265,-6830147 -34270,-6830147 -34280,-6830140 -34284,-6830139 -34290,-6830139 -34296,-6830140 -34300,-6830142 -34311,-6830152 -34319,-6830159 -34321,-6830163 -34325,-6830171 -34328,-6830180 -34329,-6830188 -34329,-6830204 -34325,-6830212 -34318,-6830222 -34316,-6830228 -34327,-6830285 -34351,-6830286 -34365,-6830287 -34383,-6830289 -34397,-6830292 -34424,-6830300 -34542,-6830369 -34572,-6830386 -34596,-6830400 -34622,-6830414 -34635,-6830419 -34658,-6830426 -34676,-6830428 -34726,-6830429 -34775,-6830437 -34848,-6830435 -34904,-6830427 -34928,-6830421 -34933,-6830422 -34939,-6830423 -34946,-6830427 -34970,-6830452 -34978,-6830458 -34984,-6830461 -34997,-6830463 -35057,-6830487 -35074,-6830495 -35085,-6830499 -35102,-6830502 -35160,-6830506 -35185,-6830504 -35202,-6830501 -35209,-6830498 -35254,-6830468 -35261,-6830464 -35269,-6830463 -35276,-6830462 -35283,-6830462 -35295,-6830466 -35314,-6830483 -35321,-6830495 -35325,-6830503 -35328,-6830516 -35330,-6830520 -35336,-6830524 -35341,-6830528 -35433,-6830561 -35451,-6830568 -35494,-6830587 -35567,-6830624 -35612,-6830640 -35731,-6830705 -35763,-6830711 -35772,-6830711 -35778,-6830709 -35788,-6830706 -35795,-6830702 -35802,-6830695 -35806,-6830690 -35812,-6830678 -35818,-6830664 -35826,-6830638 -35826,-6830629 -35824,-6830615 -35819,-6830600 -35790,-6830531 -35785,-6830507 -35784,-6830496 -35785,-6830471 -35790,-6830448 -35789,-6830437 -35789,-6830430 -35791,-6830425 -35793,-6830419 -35803,-6830407 -35827,-6830391 -35840,-6830385 -35857,-6830382 -35894,-6830383 -35908,-6830385 -35920,-6830384 -35932,-6830383 -35948,-6830377 -35956,-6830372 -35999,-6830340 -36012,-6830327 -36019,-6830322 -36034,-6830315 -36050,-6830311 -36063,-6830308 -36113,-6830304 -36137,-6830309 -36154,-6830313 -36171,-6830319 -36192,-6830328 -36208,-6830336 -36253,-6830362 -36268,-6830365 -36277,-6830365 -36294,-6830363 -36337,-6830346 -36350,-6830334 -36358,-6830324 -36367,-6830311 -36406,-6830230 -36410,-6830224 -36420,-6830213 -36440,-6830197 -36478,-6830177 -36501,-6830171 -36519,-6830163 -36533,-6830160 -36546,-6830158 -36557,-6830158 -36608,-6830164 -36639,-6830151 -36666,-6830144 -36680,-6830136 -36706,-6830115 -36728,-6830094 -36742,-6830076 -36764,-6830037 -36800,-6829938 -36854,-6829811 -36862,-6829787 -36876,-6829757 -36914,-6829635 -36968,-6829419 -36977,-6829377 -36985,-6829354 -36994,-6829337 -37034,-6829276 -37061,-6829221 -37064,-6829213 -37086,-6829165 -37104,-6829100 -37113,-6829076 -37120,-6829062 -37135,-6829035 -37162,-6828980 -37174,-6828959 -37179,-6828949 -37184,-6828936 -37187,-6828922 -37188,-6828910 -37189,-6828891 -37189,-6828878 -37187,-6828852 -37187,-6828846 -37153,-6828741 -37146,-6828705 -37151,-6828677 -37153,-6828665 -37175,-6828631 -37299,-6828399 -37327,-6828356 -37351,-6828329 -37362,-6828314 -37383,-6828280 -37396,-6828263 -37421,-6828233 -37452,-6828196 -37488,-6828163 -37522,-6828125 -37539,-6828111 -37560,-6828096 -37606,-6828069 -37627,-6828052 -37649,-6828030 -37708,-6827972 -37762,-6827914 -37795,-6827882 -37892,-6827795 -37917,-6827769 -37927,-6827758 -37964,-6827705 -37988,-6827678 -38004,-6827660 -38028,-6827638 -38074,-6827602 -38121,-6827554 -38136,-6827539 -38169,-6827510 -38180,-6827493 -38187,-6827485 -38196,-6827477 -38206,-6827469 -38220,-6827461 -38230,-6827448 -38288,-6827293 -38310,-6827239 -38331,-6827200 -38370,-6827148 -38384,-6827124 -38404,-6827086 -38427,-6827032 -38431,-6827020 -38440,-6826986 -38452,-6826907 -38454,-6826879 -38457,-6826867 -38460,-6826858 -38482,-6826807 -38531,-6826726 -38555,-6826700 -38579,-6826668 -38640,-6826629 -38628,-6826620 -38604,-6826602 -38586,-6826592 -38581,-6826589 -38558,-6826580 -38551,-6826574 -38546,-6826569 -38542,-6826562 -38580,-6826533 -38599,-6826523 -38617,-6826516 -38635,-6826511 -38690,-6826497 -38706,-6826489 -38714,-6826484 -38724,-6826474 -38748,-6826472 -38775,-6826473 -38798,-6826492 -38804,-6826494 -38808,-6826493 -38813,-6826492 -38819,-6826487 -38828,-6826468 -38831,-6826465 -38838,-6826460 -38850,-6826452 -38867,-6826445 -38900,-6826434 -38937,-6826440 -38950,-6826441 -38960,-6826444 -38984,-6826456 -38998,-6826459 -39005,-6826459 -39032,-6826456 -39042,-6826456 -39057,-6826462 -39098,-6826470 -39149,-6826477 -39300,-6826485 -39339,-6826491 -39374,-6826493 -39399,-6826493 -39436,-6826488 -39444,-6826487 -39452,-6826486 -39464,-6826481 -39515,-6826474 -39531,-6826474 -39550,-6826476 -39568,-6826481 -39584,-6826487 -39617,-6826503 -39676,-6826550 -39697,-6826560 -39709,-6826564 -39732,-6826568 -39800,-6826571 -39820,-6826570 -39829,-6826567 -39840,-6826564 -39850,-6826560 -39858,-6826555 -39874,-6826543 -39940,-6826464 -40010,-6826390 -40063,-6826353 -40195,-6826235 -40199,-6826229 -40203,-6826222 -40205,-6826214 -40206,-6826202 -40195,-6826158 -40176,-6826132 -40174,-6826119 -40175,-6826111 -40178,-6826103 -40181,-6826095 -40188,-6826085 -40257,-6826042 -40276,-6826024 -40301,-6826008 -40144,-6825694 -40116,-6825633 -40011,-6825432 -39995,-6825409 -39971,-6825368 -39953,-6825329 -39945,-6825302 -39833,-6825079 -39800,-6825008 -39774,-6824960 -39746,-6824909 -39710,-6824834 -39649,-6824720 -39603,-6824646 -39566,-6824578 -39559,-6824568 -39550,-6824508 -39575,-6824484 -39452,-6824268 -39410,-6824202 -39354,-6824130 -39318,-6824072 -39240,-6823902 -39176,-6823772 -39104,-6823634 -39000,-6823432 -38945,-6823316 -38939,-6823296 -38933,-6823291 -38937,-6823233 -38932,-6823202 -38922,-6823145 -38917,-6823118 -38908,-6823082 -38880,-6823028 -38860,-6822999 -38852,-6822951 -38836,-6822920 -38826,-6822852 -38807,-6822808 -38768,-6822762 -38744,-6822715 -38729,-6822666 -38694,-6822592 -38673,-6822555 -38651,-6822509 -38633,-6822462 -38611,-6822396 -38603,-6822370 -38601,-6822361 -38598,-6822346 -38596,-6822328 -38595,-6822296 -38595,-6822260 -38601,-6822218 -38587,-6822166 -38580,-6822147 -38575,-6822127 -38571,-6822107 -38569,-6822097 -38565,-6822008 -38556,-6821960 -38534,-6821895 -38488,-6821798 -38451,-6821739 -38428,-6821705 -38417,-6821686 -38408,-6821667 -38377,-6821590 -38367,-6821557 -38360,-6821519 -38360,-6821510 -38378,-6821467 -38385,-6821442 -38396,-6821402 -38396,-6821396 -38394,-6821387 -38392,-6821381 -38385,-6821371 -38373,-6821361 -38374,-6821314 -38376,-6821300 -38401,-6821253 -38407,-6821235 -38410,-6821216 -38410,-6821210 -38409,-6821199 -38406,-6821189 -38400,-6821177 -38389,-6821136 -38383,-6821118 -38395,-6821101 -38456,-6821045 -38460,-6821040 -38468,-6821027 -38476,-6821011 -38481,-6820995 -38482,-6820989 -38484,-6820973 -38491,-6820948 -38511,-6820902 -38536,-6820858 -38555,-6820840 -38558,-6820833 -38561,-6820826 -38562,-6820820 -38563,-6820813 -38561,-6820805 -38561,-6820801 -38563,-6820795 -38566,-6820792 -38595,-6820771 -38611,-6820755 -38647,-6820702 -38681,-6820661 -38713,-6820606 -38717,-6820593 -38728,-6820562 -38739,-6820544 -38770,-6820481 -38788,-6820454 -38818,-6820421 -38848,-6820397 -38865,-6820381 -38874,-6820372 -38899,-6820341 -38910,-6820331 -38930,-6820320 -38949,-6820306 -38965,-6820299 -38976,-6820293 -38986,-6820286 -38994,-6820280 -39006,-6820267 -39013,-6820256 -39070,-6820195 -39098,-6820169 -39130,-6820146 -39144,-6820134 -39159,-6820118 -39171,-6820054 -39171,-6819882 -39168,-6819859 -39159,-6819816 -39157,-6819795 -39154,-6819735 -39155,-6819710 -39157,-6819694 -39160,-6819682 -39169,-6819654 -39183,-6819576 -39199,-6819538 -39207,-6819510 -39212,-6819498 -39221,-6819484 -39264,-6819423 -39287,-6819396 -39294,-6819385 -39297,-6819380 -39313,-6819379 -39330,-6819385 -39386,-6819419 -39448,-6819461 -39488,-6819491 -39562,-6819551 -39575,-6819563 -39600,-6819590 -39627,-6819624 -39641,-6819627 -39654,-6819570 -39663,-6819550 -39678,-6819548 -39777,-6819298 -39851,-6819124 -39894,-6819031 -39911,-6818994 -39922,-6818971 -39947,-6818926 -39962,-6818903 -39975,-6818884 -39987,-6818869 -40000,-6818854 -40027,-6818827 -40039,-6818815 -40056,-6818802 -40068,-6818793 -40109,-6818769 -40152,-6818736 -40172,-6818718 -40193,-6818699 -40211,-6818680 -40273,-6818643 -40301,-6818623 -40332,-6818596 -40344,-6818584 -40438,-6818483 -40519,-6818393 -40565,-6818351 -40626,-6818306 -40725,-6818248 -40801,-6818202 -40880,-6818147 -40944,-6818097 -40926,-6818075 -40888,-6818030 -40869,-6818008 -40857,-6817998 -40844,-6817985 -40833,-6817970 -40823,-6817955 -40814,-6817937 -40796,-6817898 -40727,-6817830 -40703,-6817810 -40684,-6817801 -40762,-6817711 -40820,-6817650 -40856,-6817614 -40893,-6817582 -40941,-6817545 -40971,-6817519 -41032,-6817460 -41073,-6817432 -41112,-6817399 -41182,-6817354 -41215,-6817331 -41270,-6817299 -41301,-6817282 -41344,-6817242 -41380,-6817286 -41402,-6817318 -41423,-6817350 -41474,-6817432 -41521,-6817501 -41581,-6817568 -41698,-6817717 -41736,-6817685 -41789,-6817635 -41844,-6817593 -41881,-6817562 -41966,-6817471 -42027,-6817411 -42037,-6817402 -42046,-6817394 -42062,-6817385 -42083,-6817378 -42241,-6817244 -42316,-6817168 -42379,-6817111 -42422,-6817074 -42433,-6817060 -42444,-6817042 -42452,-6817025 -42454,-6817017 -42455,-6817007 -42455,-6817000 -42453,-6816983 -42406,-6816906 -42345,-6816817 -42303,-6816760 -42253,-6816683 -42231,-6816641 -42213,-6816600 -42182,-6816538 -42135,-6816471 -42113,-6816424 -42091,-6816377 -42058,-6816273 -42035,-6816184 -42028,-6816136 -42020,-6816107 -42009,-6816080 -42002,-6816069 -41962,-6816010 -41957,-6816005 -41997,-6815967 -42024,-6815921 -42058,-6815869 -42075,-6815883 -42094,-6815894 -42119,-6815870 -42265,-6815711 -42305,-6815672 -42334,-6815628 -42376,-6815582 -42406,-6815552 -42468,-6815462 -42487,-6815440 -42505,-6815418 -42556,-6815372 -42578,-6815395 -42595,-6815416 -42610,-6815437 -42622,-6815455 -42701,-6815592 -42733,-6815649 -42735,-6815647 -42755,-6815627 -42823,-6815461 -42850,-6815365 -42859,-6815332 -42867,-6815296 -42913,-6815236 -42945,-6815187 -42973,-6815152 -43022,-6815099 -43049,-6815073 -43110,-6814998 -43165,-6814929 -43226,-6814869 -43291,-6814795 -43319,-6814762 -43289,-6814729 -43278,-6814662 -43282,-6814634 -43246,-6814564 -43233,-6814550 -43226,-6814547 -43219,-6814547 -43212,-6814549 -43207,-6814549 -43193,-6814548 -43179,-6814546 -43168,-6814543 -43156,-6814538 -43145,-6814532 -43137,-6814524 -43131,-6814516 -43126,-6814507 -43122,-6814495 -43119,-6814488 -43105,-6814460 -43048,-6814386 -43032,-6814349 -43021,-6814332 -43011,-6814318 -43012,-6814303 -42993,-6814279 -42978,-6814243 -42962,-6814217 -42935,-6814188 -42906,-6814144 -42896,-6814132 -42892,-6814124 -42889,-6814113 -42887,-6814100 -42888,-6814082 -42879,-6814024 -42861,-6813947 -42854,-6813833 -42847,-6813801 -42861,-6813792 -42889,-6813776 -42961,-6813741 -43002,-6813724 -43080,-6813699 -43098,-6813693 -43153,-6813679 -43161,-6813676 -43176,-6813668 -43201,-6813651 -43216,-6813644 -43227,-6813641 -43240,-6813641 -43270,-6813638 -43295,-6813647 -43317,-6813647 -43367,-6813628 -43375,-6813620 -43411,-6813625 -43447,-6813603 -43487,-6813574 -43533,-6813545 -43567,-6813525 -43613,-6813500 -43638,-6813494 -43654,-6813493 -43664,-6813490 -43673,-6813486 -43683,-6813481 -43694,-6813473 -43698,-6813469 -43704,-6813453 -43731,-6813429 -43788,-6813395 -43801,-6813380 -43812,-6813360 -43842,-6813331 -43865,-6813305 -43901,-6813277 -43939,-6813241 -43962,-6813164 -43989,-6813044 -44009,-6812982 -44097,-6812981 -44141,-6812982 -44179,-6812983 -44195,-6812973 -44222,-6812951 -44259,-6812928 -44293,-6812903 -44309,-6812887 -44328,-6812873 -44338,-6812867 -44367,-6812852 -44382,-6812846 -44408,-6812838 -44438,-6812826 -44496,-6812804 -44517,-6812793 -44558,-6812777 -44616,-6812758 -44709,-6812725 -44742,-6812710 -44809,-6812678 -44871,-6812651 -44986,-6812619 -45072,-6812602 -45091,-6812596 -45108,-6812591 -45118,-6812586 -45131,-6812576 -45176,-6812583 -45202,-6812585 -45228,-6812586 -45381,-6812586 -45431,-6812587 -45512,-6812594 -45599,-6812596 -45695,-6812584 -45795,-6812574 -45894,-6812573 -45961,-6812584 -46020,-6812576 -46072,-6812563 -46132,-6812561 -46180,-6812546 -46237,-6812548 -46277,-6812543 -46306,-6812551 -46356,-6812554 -46365,-6812553 -46376,-6812551 -46407,-6812543 -46441,-6812530 -46500,-6812522 -46569,-6812501 -46581,-6812496 -46601,-6812482 -46632,-6812472 -46646,-6812463 -46678,-6812447 -46773,-6812382 -46801,-6812366 -46826,-6812354 -46834,-6812351 -46842,-6812349 -46854,-6812348 -46885,-6812349 -46912,-6812352 -46964,-6812342 -47008,-6812321 -47075,-6812332 -47759,-6812392 -47784,-6812394 -47803,-6812394 -47820,-6812393 -47852,-6812388 -47944,-6812356 -47956,-6812351 -47972,-6812343 -48005,-6812323 -48041,-6812308 -48058,-6812305 -48082,-6812294 -48095,-6812290 -48109,-6812285 -48150,-6812279 -48194,-6812266 -48258,-6812251 -48278,-6812249 -48298,-6812244 -48321,-6812237 -48329,-6812233 -48340,-6812225 -48369,-6812197 -48424,-6812136 -48451,-6812108 -48462,-6812099 -48491,-6812077 -48515,-6812064 -48535,-6812055 -48550,-6812049 -48566,-6812045 -48596,-6812040 -48616,-6812035 -48631,-6812031 -48645,-6812024 -48662,-6812016 -48683,-6812004 -48707,-6811989 -48729,-6811973 -48746,-6811959 -48762,-6811943 -48781,-6811922 -48815,-6811880 -48876,-6811795 -48936,-6811704 -48950,-6811656 -48961,-6811621 -48984,-6811576 -49021,-6811588 -49029,-6811592 -49046,-6811600 -49060,-6811608 -49076,-6811620 -49082,-6811626 -49115,-6811666 -49123,-6811683 -49130,-6811696 -49138,-6811709 -49150,-6811723 -49184,-6811755 -49191,-6811761 -49266,-6811809 -49369,-6811870 -49500,-6811990 -49584,-6812073 -49649,-6812129 -49717,-6812196 -49745,-6812222 -49776,-6812245 -49803,-6812263 -49826,-6812277 -49832,-6812281 -49843,-6812291 -49855,-6812306 -49990,-6812439 -50047,-6812498 -50067,-6812507 -50247,-6812690 -50270,-6812716 -50296,-6812746 -50364,-6812813 -50448,-6812910 -50456,-6812917 -50491,-6812947 -50552,-6812994 -50587,-6813018 -50618,-6813038 -50632,-6813048 -50646,-6813060 -50671,-6813088 -50686,-6813102 -50732,-6813131 -50764,-6813152 -50780,-6813159 -50813,-6813171 -50828,-6813180 -50854,-6813200 -50868,-6813211 -50889,-6813230 -50943,-6813289 -50956,-6813305 -50961,-6813312 -50971,-6813331 -50985,-6813372 -51017,-6813451 -51031,-6813473 -51039,-6813490 -51043,-6813501 -51047,-6813518 -51055,-6813563 -51058,-6813589 -51062,-6813659 -51066,-6813714 -51069,-6813745 -51073,-6813806 -51079,-6813858 -51077,-6813903 -51078,-6813916 -51082,-6813965 -51083,-6814005 -51082,-6814018 -51079,-6814031 -51076,-6814044 -51068,-6814062 -51146,-6814164 -51130,-6814189 -51184,-6814244 -51226,-6814292 -51269,-6814332 -51275,-6814339 -51284,-6814351 -51345,-6814394 -51380,-6814419 -51419,-6814448 -51455,-6814470 -51485,-6814485 -51591,-6814516 -51656,-6814533 -51688,-6814633 -51694,-6814648 -51705,-6814671 -51751,-6814753 -51763,-6814770 -51774,-6814783 -51798,-6814808 -51812,-6814826 -51825,-6814845 -51835,-6814865 -51849,-6814897 -51865,-6814963 -51879,-6814993 -51892,-6815022 -51959,-6815134 -52008,-6815224 -52044,-6815287 -52047,-6815317 -52053,-6815332 -52080,-6815385 -52085,-6815399 -52089,-6815407 -52101,-6815421 -52141,-6815458 -52160,-6815478 -52168,-6815487 -52182,-6815510 -52208,-6815552 -52268,-6815683 -52337,-6815816 -52423,-6815986 -52490,-6816054 -52575,-6815995 -52722,-6815902 -52755,-6815941 -52914,-6815817 -52980,-6815879 -52991,-6815882 -52998,-6815881 -53004,-6815879 -53010,-6815876 -53014,-6815873 -53042,-6815838 -53085,-6815799 -53132,-6815768 -53138,-6815763 -53147,-6815754 -53156,-6815743 -53164,-6815732 -53170,-6815718 -53187,-6815712 -53213,-6815676 -53228,-6815660 -53247,-6815641 -53263,-6815626 -53278,-6815615 -53297,-6815601 -53319,-6815589 -53335,-6815581 -53363,-6815570 -53378,-6815565 -53394,-6815561 -53435,-6815554 -53476,-6815550 -53531,-6815506 -53592,-6815454 -53606,-6815466 -53694,-6815372 -53780,-6815414 -53831,-6815366 -53903,-6815294 -54027,-6815184 -54114,-6815306 -54198,-6815216 -54263,-6815139 -54317,-6815103 -54352,-6815072 -54402,-6815004 -54478,-6814916 -54557,-6814830 -54664,-6814718 -54726,-6814643 -54787,-6814551 -54845,-6814467 -54900,-6814420 -55002,-6814348 -55099,-6814267 -55300,-6814115 -55405,-6814021 -55567,-6813858 -55609,-6813816 -55616,-6813808 -55623,-6813800 -55634,-6813746 -55643,-6813713 -55658,-6813672 -55665,-6813658 -55670,-6813648 -55711,-6813583 -55744,-6813534 -55819,-6813405 -55847,-6813380 -55860,-6813363 -55864,-6813356 -55887,-6813280 -55896,-6813246 -55901,-6813233 -55911,-6813209 -55925,-6813184 -55930,-6813178 -55937,-6813171 -55948,-6813163 -55966,-6813147 -55986,-6813109 -56007,-6813087 -56028,-6813065 -56053,-6813047 -56070,-6813031 -56084,-6813016 -56095,-6813003 -56123,-6812960 -56144,-6812923 -56157,-6812924 -56178,-6812868 -56189,-6812815 -56143,-6812788 -56104,-6812758 -55953,-6812613 -55895,-6812572 -55860,-6812534 -55805,-6812498 -55770,-6812474 -55668,-6812400 -55614,-6812377 -55615,-6812329 -55628,-6812283 -55637,-6812266 -55666,-6812213 -55676,-6812190 -55685,-6812166 -55717,-6812070 -55732,-6812037 -55735,-6812031 -55815,-6811907 -55863,-6811849 -55838,-6811836 -55844,-6811820 -55865,-6811774 -55881,-6811753 -55895,-6811738 -55902,-6811729 -55921,-6811684 -55928,-6811659 -55989,-6811576 -56045,-6811511 -56074,-6811528 -56101,-6811439 -56101,-6811396 -56099,-6811372 -56099,-6811340 -56102,-6811309 -56108,-6811256 -56122,-6811161 -56129,-6811099 -56142,-6811040 -56150,-6810986 -56166,-6810914 -56184,-6810887 -56199,-6810820 -56221,-6810798 -56184,-6810651 -56158,-6810545 -56175,-6810529 -56174,-6810472 -56159,-6810398 -56204,-6810387 -56335,-6810366 -56403,-6810347 -56411,-6810316 -56417,-6810297 -56427,-6810271 -56489,-6810183 -56552,-6810085 -56607,-6809993 -56752,-6810080 -56858,-6810150 -56858,-6810154 -56859,-6810221 -56857,-6810263 -56848,-6810390 -56837,-6810447 -56814,-6810609 -56807,-6810663 -56805,-6810748 -56833,-6810777 -56877,-6810830 -56941,-6810901 -56953,-6810888 -56984,-6810869 -57008,-6810857 -57048,-6810842 -57130,-6810817 -57179,-6810804 -57232,-6810796 -57251,-6810794 -57290,-6810794 -57319,-6810796 -57338,-6810800 -57356,-6810806 -57373,-6810813 -57387,-6810819 -57408,-6810832 -57423,-6810844 -57437,-6810856 -57506,-6810905 -57633,-6811006 -57651,-6811041 -57645,-6811068 -57629,-6811125 -57616,-6811219 -57596,-6811306 -57592,-6811337 -57590,-6811406 -57596,-6811497 -57596,-6811513 -57594,-6811534 -57591,-6811551 -57583,-6811580 -57568,-6811617 -57557,-6811639 -57545,-6811677 -57559,-6811733 -57615,-6811859 -57640,-6811889 -57768,-6812014 -57708,-6812136 -57638,-6812290 -57620,-6812317 -57618,-6812336 -57618,-6812346 -57621,-6812364 -57629,-6812386 -57635,-6812398 -57643,-6812410 -57655,-6812426 -57700,-6812465 -57701,-6812480 -57730,-6812494 -57763,-6812512 -57753,-6812533 -57803,-6812549 -57911,-6812595 -57990,-6812618 -58122,-6812667 -58148,-6812684 -58157,-6812698 -58166,-6812714 -58169,-6812718 -58192,-6812740 -58205,-6812750 -58219,-6812765 -58233,-6812789 -58260,-6812843 -58282,-6812873 -58298,-6812896 -58349,-6812970 -58367,-6812993 -58403,-6813032 -58411,-6813043 -58425,-6813066 -58476,-6813127 -58501,-6813170 -58522,-6813192 -58547,-6813214 -58565,-6813232 -58617,-6813297 -58632,-6813323 -58651,-6813324 -58666,-6813356 -58676,-6813370 -58716,-6813419 -58759,-6813474 -58825,-6813554 -58871,-6813612 -58944,-6813692 -59030,-6813798 -59072,-6813844 -59079,-6813856 -59086,-6813864 -59096,-6813871 -59106,-6813877 -59117,-6813880 -59125,-6813881 -59206,-6813868 -59345,-6814043 -59387,-6814085 -59419,-6814056 -59466,-6814096 -59510,-6814138 -59586,-6814203 -59623,-6814234 -59670,-6814285 -59797,-6814432 -59907,-6814557 -59978,-6814636 -60047,-6814718 -60122,-6814803 -60176,-6814857 -60218,-6814898 -60243,-6814917 -60272,-6814936 -60289,-6814944 -60312,-6814949 -60323,-6814950 -60343,-6814950 -60451,-6814929 -60466,-6814944 -60474,-6814946 -60479,-6814946 -60486,-6814944 -60517,-6814923 -60518,-6814922 -60575,-6814904 -60582,-6814901 -60595,-6814892 -60605,-6814884 -60632,-6814871 -60645,-6814864 -60662,-6814852 -60671,-6814851 -60696,-6814823 -60714,-6814836 -60724,-6814849 -60730,-6814856 -60741,-6814865 -60758,-6814890 -60861,-6814846 -60896,-6814834 -60979,-6814810 -61016,-6814795 -61140,-6814754 -61235,-6814731 -61248,-6814746 -61329,-6814849 -61350,-6814870 -61356,-6814877 -61404,-6814952 -61446,-6815012 -61487,-6815064 -61500,-6815082 -61540,-6815132 -61560,-6815158 -61604,-6815209 -61655,-6815271 -61692,-6815326 -61724,-6815366 -61759,-6815428 -61777,-6815458 -61784,-6815467 -61800,-6815484 -61801,-6815485 -61861,-6815560 -61855,-6815569 -61918,-6815664 -61987,-6815791 -61989,-6815801 -61991,-6815807 -61996,-6815815 -62012,-6815832 -62013,-6815835 -62016,-6815847 -62018,-6815852 -62065,-6815919 -62108,-6815984 -62119,-6816037 -62130,-6816125 -62137,-6816173 -62142,-6816206 -62149,-6816237 -62156,-6816267 -62161,-6816285 -62169,-6816307 -62189,-6816360 -62270,-6816467 -62284,-6816489 -62291,-6816498 -62310,-6816517 -62322,-6816527 -62363,-6816570 -62373,-6816582 -62389,-6816604 -62435,-6816676 -62449,-6816692 -62502,-6816766 -62519,-6816787 -62528,-6816799 -62532,-6816806 -62539,-6816836 -62578,-6816867 -62785,-6817007 -62970,-6817134 -62999,-6817152 -63042,-6817175 -63104,-6817210 -63105,-6817214 -63097,-6817255 -63093,-6817277 -63095,-6817278 -63122,-6817292 -63183,-6817314 -63187,-6817315 -63192,-6817315 -63198,-6817313 -63201,-6817311 -63218,-6817269 -63221,-6817269 -63253,-6817268 -63302,-6817271 -63329,-6817279 -63348,-6817284 -63374,-6817288 -63400,-6817290 -63526,-6817309 -63560,-6817264 -63579,-6817234 -63612,-6817205 -63663,-6817157 -63716,-6817099 -63733,-6817075 -63742,-6817062 -63758,-6817041 -63786,-6817058 -63795,-6817065 -63812,-6817080 -63841,-6817109 -63849,-6817116 -63871,-6817132 -63942,-6817166 -64003,-6817201 -64073,-6817206 -64098,-6817192 -64111,-6817187 -64150,-6817178 -64191,-6817178 -64194,-6817177 -64254,-6817153 -64294,-6817156 -64371,-6817166 -64375,-6817160 -64390,-6817170 -64417,-6817181 -64459,-6817210 -64472,-6817220 -64481,-6817228 -64497,-6817247 -64527,-6817283 -64568,-6817331 -64575,-6817341 -64581,-6817353 -64592,-6817382 -64597,-6817394 -64606,-6817410 -64616,-6817426 -64637,-6817463 -64645,-6817470 -64648,-6817476 -64653,-6817485 -64676,-6817565 -64696,-6817642 -64700,-6817653 -64708,-6817674 -64716,-6817690 -64756,-6817760 -64757,-6817768 -64762,-6817776 -64764,-6817781 -64765,-6817785 -64763,-6817807 -64768,-6817838 -64771,-6817849 -64795,-6817931 -64795,-6817937 -64796,-6817939 -64799,-6817942 -64803,-6817942 -64846,-6817929 -64852,-6817910 -64853,-6817892 -64869,-6817869 -64884,-6817855 -64892,-6817848 -64922,-6817829 -64956,-6817811 -64962,-6817808 -64960,-6817790 -64963,-6817780 -64972,-6817765 -64991,-6817742 -64996,-6817738 -65000,-6817735 -65006,-6817732 -65018,-6817730 -65034,-6817722 -65050,-6817720 -65063,-6817716 -65074,-6817708 -65090,-6817684 -65095,-6817679 -65099,-6817678 -65105,-6817677 -65138,-6817681 -65168,-6817645 -65190,-6817642 -65188,-6817633 -65190,-6817632 -65193,-6817631 -65198,-6817632 -65212,-6817648 -65214,-6817648 -65218,-6817647 -65226,-6817643 -65245,-6817622 -65378,-6817724 -65414,-6817735 -65493,-6817749 -65565,-6817773 -65573,-6817774 -65587,-6817773 -65580,-6817793 -65549,-6817847 -65529,-6817871 -65521,-6817883 -65514,-6817898 -65504,-6817921 -65496,-6817945 -65485,-6818009 -65474,-6818065 -65470,-6818110 -65460,-6818174 -65450,-6818183 -65444,-6818206 -65447,-6818232 -65447,-6818257 -65448,-6818284 -65450,-6818322 -65448,-6818333 -65442,-6818353 -65437,-6818367 -65408,-6818425 -65396,-6818439 -65382,-6818450 -65373,-6818455 -65363,-6818460 -65322,-6818477 -65301,-6818484 -65293,-6818490 -65288,-6818495 -65284,-6818506 -65227,-6818608 -65202,-6818655 -65105,-6818813 -65047,-6818911 -65034,-6818935 -65008,-6818966 -64925,-6819051 -64942,-6819072 -64956,-6819091 -64970,-6819110 -64982,-6819124 -65008,-6819152 -65129,-6819297 -65187,-6819361 -65226,-6819408 -65298,-6819484 -65308,-6819496 -65317,-6819505 -65325,-6819512 -65336,-6819518 -65470,-6819644 -65479,-6819646 -65489,-6819652 -65516,-6819680 -65530,-6819692 -65552,-6819700 -65594,-6819723 -65602,-6819728 -65620,-6819740 -65672,-6819779 -65672,-6819790 -65684,-6819797 -65718,-6819814 -65731,-6819816 -65738,-6819829 -65741,-6819846 -65776,-6819943 -65815,-6820084 -65835,-6820165 -65867,-6820159 -65872,-6820161 -65880,-6820164 -65891,-6820209 -65925,-6820275 -65945,-6820319 -65976,-6820365 -66013,-6820441 -66018,-6820449 -66029,-6820463 -66035,-6820469 -66084,-6820492 -66115,-6820509 -66131,-6820521 -66187,-6820560 -66209,-6820583 -66227,-6820595 -66232,-6820600 -66235,-6820602 -66252,-6820618 -66272,-6820642 -66303,-6820673 -66316,-6820687 -66336,-6820714 -66402,-6820815 -66499,-6820956 -66550,-6821056 -66560,-6821136 -66569,-6821183 -66571,-6821215 -66570,-6821220 -66568,-6821235 -66563,-6821254 -66557,-6821271 -66551,-6821283 -66540,-6821305 -66484,-6821388 -66475,-6821391 -66478,-6821430 -66479,-6821445 -66478,-6821485 -66482,-6821525 -66484,-6821579 -66480,-6821586 -66470,-6821603 -66465,-6821617 -66460,-6821627 -66453,-6821638 -66448,-6821678 -66448,-6821689 -66449,-6821711 -66452,-6821732 -66455,-6821747 -66468,-6821792 -66476,-6821815 -66482,-6821833 -66486,-6821851 -66489,-6821869 -66501,-6821990 -66506,-6822018 -66509,-6822051 -66525,-6822123 -66547,-6822205 -66569,-6822262 -66603,-6822364 -66639,-6822422 -66678,-6822494 -66681,-6822503 -66682,-6822517 -66671,-6822584 -66669,-6822600 -66664,-6822654 -66663,-6822658 -66655,-6822695 -66651,-6822738 -66649,-6822753 -66648,-6822761 -66649,-6822768 -66657,-6822810 -66661,-6822839 -66666,-6822878 -66670,-6822891 -66674,-6822899 -66692,-6822929 -66705,-6822945 -66715,-6822961 -66739,-6822998 -66800,-6823086 -66841,-6823140 -66857,-6823164 -66893,-6823206 -66907,-6823228 -66928,-6823258 -66951,-6823285 -66956,-6823294 -66963,-6823310 -66982,-6823349 -66991,-6823371 -67018,-6823441 -67027,-6823471 -67123,-6823556 -67128,-6823561 -67230,-6823695 -67238,-6823707 -67248,-6823723 -67283,-6823787 -67276,-6823792 -67287,-6823812 -67299,-6823826 -67305,-6823853 -67309,-6823866 -67317,-6823890 -67326,-6823911 -67409,-6824066 -67455,-6824153 -67473,-6824166 -67486,-6824178 -67497,-6824194 -67504,-6824206 -67509,-6824217 -67530,-6824271 -67539,-6824287 -67550,-6824304 -67570,-6824334 -67578,-6824344 -67598,-6824366 -67626,-6824388 -67648,-6824384 -67790,-6824360 -67914,-6824343 -67944,-6824343 -67974,-6824346 -68073,-6824366 -68106,-6824370 -68168,-6824372 -68190,-6824372 -68256,-6824368 -68287,-6824366 -68297,-6824365 -68303,-6824365 -68315,-6824365 -68323,-6824367 -68332,-6824370 -68358,-6824372 -68366,-6824372 -68381,-6824368 -68384,-6824355 -68429,-6824356 -68474,-6824342 -68497,-6824323 -68529,-6824306 -68550,-6824299 -68570,-6824290 -68589,-6824281 -68618,-6824264 -68628,-6824261 -68664,-6824257 -68754,-6824217 -68772,-6824213 -68781,-6824212 -68809,-6824214 -68822,-6824213 -68840,-6824211 -68861,-6824209 -68906,-6824214 -68938,-6824221 -68959,-6824228 -69074,-6824295 -69108,-6824311 -69219,-6824361 -69240,-6824378 -69339,-6824445 -69353,-6824451 -69362,-6824453 -69374,-6824454 -69422,-6824474 -69456,-6824497 -69476,-6824506 -69508,-6824518 -69596,-6824525 -69622,-6824531 -69634,-6824535 -69690,-6824559 -69745,-6824600 -69789,-6824616 -69812,-6824623 -69810,-6824653 -69813,-6824667 -69819,-6824681 -69822,-6824686 -69831,-6824694 -69894,-6824735 -69903,-6824742 -69919,-6824756 -69938,-6824792 -69941,-6824796 -69959,-6824808 -69970,-6824824 -69980,-6824844 -69994,-6824892 -69998,-6824901 -70006,-6824916 -70012,-6824923 -70020,-6824929 -70055,-6824950 -70075,-6824964 -70107,-6824987 -70114,-6824991 -70145,-6825008 -70161,-6825014 -70293,-6825049 -70328,-6825060 -70333,-6825061 -70348,-6825060 -70431,-6825071 -70467,-6825074 -70483,-6825076 -70610,-6825103 -70645,-6825111 -70664,-6825202 -70681,-6825333 -70724,-6825330 -70731,-6825333 -70734,-6825336 -70738,-6825343 -70741,-6825368 -70743,-6825389 -70743,-6825414 -70736,-6825552 -70731,-6825592 -70727,-6825619 -70739,-6825661 -70754,-6825697 -70679,-6825689 -70675,-6825760 -70670,-6825794 -70660,-6825825 -70653,-6825842 -70645,-6825859 -70626,-6825890 -70616,-6825912 -70634,-6825931 -70730,-6826011 -70784,-6826089 -70816,-6826133 -70842,-6826163 -70881,-6826247 -70913,-6826357 -70929,-6826404 -70934,-6826415 -70939,-6826425 -70946,-6826434 -70996,-6826494 -71003,-6826514 -71008,-6826536 -71013,-6826590 -71006,-6826624 -71003,-6826634 -70998,-6826641 -70992,-6826648 -70969,-6826666 -70916,-6826718 -70906,-6826711 -70875,-6826744 -70848,-6826771 -70801,-6826828 -70802,-6826841 -70829,-6826890 -70883,-6826978 -70897,-6826993 -70931,-6827033 -70968,-6827099 -70990,-6827139 -70995,-6827150 -71059,-6827281 -71118,-6827399 -71126,-6827415 -71131,-6827439 -71150,-6827465 -71169,-6827502 -71197,-6827550 -71243,-6827614 -71258,-6827624 -71272,-6827623 -71292,-6827639 -71310,-6827673 -71332,-6827730 -71327,-6827786 -71331,-6827795 -71326,-6827823 -71109,-6827822 -70917,-6827837 -70869,-6827844 -70822,-6827852 -70777,-6827864 -70733,-6827877 -70611,-6827924 -70492,-6827981 -70401,-6828042 -70310,-6828098 -70270,-6828125 -70248,-6828141 -70233,-6828148 -70223,-6828155 -70216,-6828163 -70210,-6828173 -70205,-6828186 -70202,-6828200 -70198,-6828222 -70198,-6828225 -70197,-6828290 -70193,-6828324 -70191,-6828339 -70187,-6828353 -70182,-6828368 -70174,-6828384 -70149,-6828487 -70128,-6828598 -70129,-6828682 -70129,-6828720 -70116,-6828840 -70087,-6829020 -70088,-6829071 -70092,-6829091 -70096,-6829110 -70108,-6829136 -70126,-6829182 -70140,-6829308 -70138,-6829411 -70146,-6829456 -70166,-6829521 -70180,-6829551 -70204,-6829625 -70221,-6829690 -70234,-6829752 -70254,-6829800 -70276,-6829843 -70353,-6829969 -70375,-6830000 -70453,-6830123 -70487,-6830170 -70511,-6830204 -70526,-6830224 -70557,-6830257 -70575,-6830272 -70603,-6830283 -70631,-6830300 -70635,-6830344 -70668,-6830497 -70677,-6830530 -70678,-6830562 -70677,-6830583 -70675,-6830597 -70672,-6830612 -70667,-6830630 -70656,-6830658 -70592,-6830777 -70494,-6830946 -70446,-6831005 -70384,-6831076 -70358,-6831105 -70339,-6831120 -70329,-6831130 -70317,-6831144 -70306,-6831159 -70298,-6831171 -70292,-6831183 -70288,-6831190 -70284,-6831213 -70280,-6831224 -70274,-6831236 -70261,-6831253 -70239,-6831274 -70229,-6831282 -70220,-6831287 -70211,-6831291 -70195,-6831298 -70174,-6831304 -70159,-6831307 -70136,-6831310 -70073,-6831308 -70061,-6831309 -70033,-6831313 -70011,-6831320 -69997,-6831326 -69985,-6831333 -69958,-6831352 -69946,-6831364 -69941,-6831373 -69936,-6831382 -69933,-6831392 -69932,-6831400 -69930,-6831460 -69916,-6831543 -69900,-6831613 -69889,-6831713 -69872,-6831783 -69869,-6831812 -69865,-6831862 -69866,-6831877 -69867,-6831887 -69873,-6831908 -69884,-6831938 -69886,-6831947 -69887,-6831958 -69883,-6832000 -69878,-6832026 -69877,-6832037 -69877,-6832045 -69881,-6832066 -69884,-6832076 -69890,-6832086 -69900,-6832100 -69929,-6832127 -69937,-6832157 -69945,-6832207 -69941,-6832241 -69947,-6832279 -69965,-6832312 -69993,-6832345 -70020,-6832389 -70050,-6832468 -70053,-6832481 -70054,-6832493 -70055,-6832503 -70054,-6832514 -70050,-6832535 -70046,-6832547 -70042,-6832559 -70033,-6832576 -70032,-6832578 -69962,-6832743 -69847,-6833018 -69878,-6833024 -69879,-6833024 -69921,-6833028 -69954,-6833037 -69979,-6833047 -70014,-6833050 -70060,-6833060 -70124,-6833063 -70163,-6833060 -70175,-6833073 -70178,-6833090 -70292,-6833102 -70366,-6833120 -70392,-6833127 -70500,-6833160 -70591,-6833192 -70625,-6833203 -70624,-6833220 -70705,-6833232 -70751,-6833243 -70886,-6833279 -70895,-6833281 -70932,-6833319 -71104,-6833351 -71189,-6833361 -71217,-6833409 -71227,-6833444 -71219,-6833555 -71190,-6833719 -71175,-6833795 -71151,-6833921 -71148,-6833951 -71184,-6833966 -71231,-6833981 -71295,-6834010 -71318,-6834022 -71339,-6834038 -71347,-6834045 -71355,-6834053 -71436,-6834144 -71464,-6834180 -71473,-6834194 -71481,-6834207 -71512,-6834266 -71519,-6834274 -71521,-6834276 -71543,-6834301 -71580,-6834332 -71581,-6834333 -71596,-6834343 -71612,-6834353 -71660,-6834373 -71898,-6834416 -71965,-6834423 -72029,-6834424 -72037,-6834427 -72071,-6834443 -72122,-6834465 -72161,-6834477 -72178,-6834484 -72224,-6834508 -72255,-6834520 -72276,-6834522 -72440,-6834538 -72451,-6834543 -72468,-6834546 -72490,-6834541 -72541,-6834523 -72622,-6834522 -72663,-6834515 -72673,-6834514 -72713,-6834511 -72801,-6834502 -72856,-6834499 -72895,-6834487 -72939,-6834489 -72959,-6834483 -72979,-6834480 -73032,-6834485 -73076,-6834485 -73111,-6834489 -73186,-6834512 -73210,-6834528 -73235,-6834555 -73289,-6834605 -73307,-6834627 -73345,-6834685 -73364,-6834707 -73396,-6834739 -73431,-6834764 -73521,-6834818 -73591,-6834858 -73616,-6834875 -73639,-6834886 -73663,-6834893 -73695,-6834897 -73741,-6834897 -73777,-6834909 -73817,-6834936 -73861,-6834963 -73941,-6835005 -73960,-6835010 -73970,-6835012 -73980,-6835013 -73998,-6835009 -74032,-6835011 -74073,-6835019 -74111,-6835031 -74128,-6835041 -74137,-6835049 -74146,-6835056 -74165,-6835088 -74207,-6835120 -74250,-6835158 -74275,-6835188 -74287,-6835205 -74300,-6835224 -74321,-6835261 -74347,-6835283 -74355,-6835292 -74356,-6835343 -74359,-6835369 -74363,-6835395 -74373,-6835445 -74376,-6835467 -74379,-6835486 -74389,-6835506 -74400,-6835541 -74409,-6835663 -74416,-6835787 -74435,-6835863 -74444,-6835889 -74445,-6835917 -74435,-6835957 -74413,-6836014 -74391,-6836078 -74362,-6836152 -74294,-6836315 -74252,-6836410 -74181,-6836579 -74113,-6836746 -74085,-6836810 -74049,-6836897 -74030,-6836942 -73989,-6837034 -73934,-6837173 -73862,-6837336 -73817,-6837444 -73764,-6837563 -73722,-6837665 -73695,-6837723 -73682,-6837755 -73647,-6837819 -73633,-6837845 -73603,-6837883 -73480,-6837994 -73374,-6838094 -73367,-6838101 -73360,-6838111 -73303,-6838200 -73260,-6838274 -73204,-6838372 -73165,-6838459 -73133,-6838522 -73125,-6838538 -73072,-6838624 -73041,-6838666 -72972,-6838770 -72961,-6838797 -72936,-6838844 -72872,-6838953 -72843,-6839006 -72821,-6839040 -72816,-6839047 -72776,-6839104 -72755,-6839137 -72740,-6839176 -72661,-6839403 -72651,-6839426 -72628,-6839483 -72620,-6839505 -72604,-6839530 -72595,-6839541 -72581,-6839561 -72578,-6839567 -72479,-6839704 -72463,-6839732 -72405,-6839851 -72390,-6839873 -72336,-6839948 -72304,-6840006 -72271,-6840057 -72227,-6840131 -72205,-6840161 -72188,-6840180 -72138,-6840228 -72082,-6840275 -72055,-6840297 -71943,-6840372 -71894,-6840407 -71794,-6840492 -71733,-6840536 -71647,-6840613 -71558,-6840696 -71507,-6840752 -71479,-6840788 -71395,-6840866 -71368,-6840884 -71360,-6840892 -71352,-6840900 -71339,-6840918 -71318,-6840936 -71257,-6840998 -71237,-6841017 -71225,-6841022 -71210,-6841024 -71197,-6841032 -71158,-6841081 -71087,-6841174 -70947,-6841332 -71001,-6841370 -71060,-6841413 -71091,-6841446 -71100,-6841457 -71113,-6841477 -71143,-6841523 -71206,-6841629 -71222,-6841660 -71239,-6841699 -71259,-6841754 -71317,-6841888 -71379,-6842039 -71432,-6842188 -71465,-6842273 -71488,-6842329 -71491,-6842336 -71498,-6842348 -71536,-6842407 -71548,-6842424 -71550,-6842444 -71551,-6842453 -71570,-6842549 -71614,-6842721 -71621,-6842769 -71628,-6842884 -71629,-6842960 -71617,-6843044 -71598,-6843122 -71589,-6843183 -71584,-6843244 -71582,-6843298 -71583,-6843325 -71585,-6843351 -71587,-6843372 -71591,-6843387 -71596,-6843408 -71605,-6843434 -71617,-6843461 -71648,-6843550 -71659,-6843579 -71697,-6843681 -71762,-6843823 -71839,-6844024 -71856,-6844084 -71864,-6844120 -71874,-6844166 -71889,-6844249 -71912,-6844342 -71921,-6844395 -71920,-6844446 -71941,-6844517 -71961,-6844598 -71969,-6844681 -71987,-6844788 -72025,-6844972 -72037,-6845014 -72054,-6845068 -72074,-6845138 -72090,-6845207 -72104,-6845279 -72121,-6845343 -72164,-6845475 -72176,-6845515 -72195,-6845590 -72198,-6845607 -72202,-6845625 -72223,-6845764 -72229,-6845818 -72234,-6845901 -72238,-6845928 -72242,-6845948 -72250,-6845974 -72288,-6846064 -72317,-6846141 -72325,-6846165 -72334,-6846202 -72346,-6846271 -72358,-6846349 -72365,-6846433 -72365,-6846467 -72365,-6846474 -72360,-6846508 -72351,-6846548 -72349,-6846564 -72348,-6846584 -72350,-6846616 -72361,-6846688 -72372,-6846738 -72394,-6846826 -72419,-6846926 -72437,-6847014 -72453,-6847101 -72470,-6847202 -72478,-6847331 -72533,-6847583 -72543,-6847625 -72547,-6847648 -72551,-6847679 -72552,-6847798 -72557,-6847854 -72562,-6847892 -72568,-6847924 -72575,-6847950 -72590,-6848002 -72604,-6848085 -72626,-6848200 -72639,-6848303 -72664,-6848472 -72675,-6848513 -72687,-6848551 -72727,-6848669 -72761,-6848755 -72764,-6848781 -72708,-6848813 -72602,-6848857 -72517,-6848898 -72477,-6848920 -72454,-6848939 -72386,-6848997 -72301,-6849081 -72248,-6849137 -72209,-6849170 -72151,-6849216 -72121,-6849239 -72090,-6849261 -72064,-6849279 -72048,-6849288 -72012,-6849307 -71978,-6849321 -71965,-6849326 -71915,-6849338 -71854,-6849356 -71821,-6849361 -71790,-6849363 -71764,-6849365 -71732,-6849365 -71697,-6849372 -71553,-6849417 -71455,-6849452 -71405,-6849468 -71362,-6849489 -71330,-6849518 -71234,-6849537 -71176,-6849541 -71138,-6849542 -71101,-6849542 -71069,-6849540 -71039,-6849537 -70984,-6849529 -70936,-6849518 -70911,-6849511 -70887,-6849503 -70860,-6849493 -70740,-6849444 -70673,-6849410 -70534,-6849304 -70458,-6849252 -70408,-6849213 -70384,-6849193 -70361,-6849172 -70313,-6849123 -70288,-6849101 -70029,-6849420 -70021,-6849430 -69788,-6849708 -69792,-6849856 -69791,-6849950 -69794,-6849980 -69749,-6850009 -69715,-6850033 -69703,-6850040 -69658,-6850066 -69554,-6850120 -69481,-6850148 -69254,-6850252 -69109,-6850314 -69024,-6850352 -68990,-6850362 -68935,-6850371 -68882,-6850389 -68790,-6850424 -68679,-6850459 -68625,-6850473 -68597,-6850479 -68569,-6850485 -68516,-6850493 -68466,-6850504 -68404,-6850532 -68255,-6850587 -68176,-6850603 -68113,-6850614 -68036,-6850639 -68024,-6850645 -68015,-6850650 -68006,-6850657 -67997,-6850665 -67989,-6850674 -67981,-6850683 -67977,-6850691 -67973,-6850700 -67969,-6850712 -67966,-6850723 -67964,-6850736 -67964,-6850749 -67965,-6850768 -67973,-6850820 -67939,-6850817 -67896,-6850801 -67823,-6850768 -67784,-6850749 -67767,-6850741 -67696,-6850717 -67639,-6850704 -67591,-6850701 -67525,-6850702 -67467,-6850704 -67425,-6850704 -67395,-6850705 -67326,-6850702 -67244,-6850698 -67210,-6850697 -67163,-6850694 -67113,-6850685 -67071,-6850673 -67028,-6850655 -67002,-6850642 -66953,-6850615 -66923,-6850596 -66837,-6850535 -66826,-6850528 -66825,-6850527 -66815,-6850521 -66758,-6850474 -66718,-6850439 -66671,-6850406 -66570,-6850334 -66412,-6850225 -66357,-6850193 -66291,-6850154 -66258,-6850137 -66191,-6850104 -66090,-6850052 -66034,-6850023 -65971,-6849991 -65936,-6849977 -65882,-6849959 -65788,-6849930 -65714,-6849903 -65670,-6849885 -65616,-6849858 -65564,-6849833 -65494,-6849787 -65445,-6849748 -65371,-6849682 -65333,-6849656 -65273,-6849610 -65270,-6849607 -65275,-6849601 -65346,-6849476 -65413,-6849340 -65456,-6849260 -65468,-6849234 -65413,-6849153 -65380,-6849112 -65347,-6849064 -65226,-6848897 -65179,-6848842 -65139,-6848805 -65100,-6848754 -65016,-6848648 -64949,-6848571 -64917,-6848532 -64884,-6848492 -64840,-6848434 -64788,-6848374 -64712,-6848281 -64663,-6848225 -64600,-6848305 -64493,-6848444 -64431,-6848342 -64365,-6848237 -64274,-6848090 -64243,-6848044 -64193,-6847951 -64070,-6847747 -63964,-6847583 -63927,-6847520 -63880,-6847433 -63852,-6847374 -63801,-6847278 -63751,-6847186 -63716,-6847114 -63661,-6847009 -63628,-6846955 -63582,-6846888 -63432,-6846676 -63307,-6846533 -63244,-6846462 -63198,-6846407 -63120,-6846305 -63074,-6846248 -62990,-6846127 -62972,-6846086 -62930,-6846113 -62894,-6846147 -62882,-6846158 -62857,-6846174 -62731,-6846239 -62611,-6846294 -62588,-6846306 -62573,-6846315 -62479,-6846373 -62374,-6846440 -62275,-6846506 -62193,-6846563 -62165,-6846582 -62121,-6846610 -62080,-6846639 -62054,-6846661 -62018,-6846689 -61959,-6846742 -61883,-6846820 -61753,-6846942 -61704,-6846903 -61675,-6846873 -61668,-6846875 -61543,-6846760 -61521,-6846740 -61513,-6846735 -61484,-6846714 -61439,-6846691 -61398,-6846676 -61347,-6846662 -61284,-6846650 -61222,-6846631 -61165,-6846622 -61139,-6846626 -61114,-6846632 -61064,-6846653 -61002,-6846678 -60980,-6846681 -60957,-6846683 -60890,-6846684 -60796,-6846678 -60726,-6846641 -60658,-6846591 -60615,-6846569 -60538,-6846563 -60459,-6846545 -60433,-6846541 -60411,-6846541 -60397,-6846542 -60378,-6846545 -60358,-6846549 -60332,-6846559 -60310,-6846572 -60258,-6846604 -60213,-6846642 -60155,-6846698 -60125,-6846738 -60101,-6846784 -60078,-6846853 -60067,-6846890 -60062,-6846953 -60057,-6846981 -60042,-6847055 -60001,-6847168 -59974,-6847257 -59966,-6847302 -59951,-6847344 -59940,-6847367 -59929,-6847390 -59888,-6847464 -59872,-6847496 -59865,-6847512 -59857,-6847533 -59852,-6847553 -59848,-6847574 -59845,-6847595 -59845,-6847621 -59856,-6847719 -59860,-6847793 -59877,-6847849 -59894,-6847911 -59912,-6847962 -59983,-6848167 -60010,-6848232 -60024,-6848284 -60037,-6848382 -60002,-6848423 -59942,-6848473 -59893,-6848531 -59867,-6848569 -59836,-6848631 -59782,-6848697 -59741,-6848736 -59715,-6848766 -59664,-6848802 -59602,-6848828 -59588,-6848835 -59561,-6848852 -59471,-6848935 -59452,-6848951 -59432,-6848965 -59330,-6849038 -59293,-6849065 -59246,-6849096 -59170,-6849140 -59131,-6849166 -59156,-6849210 -59180,-6849271 -59184,-6849296 -59195,-6849337 -59208,-6849395 -59241,-6849478 -59263,-6849523 -59280,-6849554 -59279,-6849585 -59284,-6849659 -59294,-6849710 -59297,-6849765 -59303,-6849810 -59305,-6849828 -59316,-6849892 -59340,-6849969 -59344,-6849985 -59349,-6850020 -59365,-6850105 -59400,-6850246 -59413,-6850287 -59462,-6850478 -59467,-6850518 -59475,-6850563 -59486,-6850675 -59489,-6850778 -59495,-6850829 -59495,-6850865 -59460,-6850979 -59440,-6851064 -59439,-6851100 -59441,-6851114 -59444,-6851128 -59455,-6851158 -59479,-6851197 -59518,-6851241 -59582,-6851317 -59547,-6851358 -59563,-6851377 -59596,-6851401 -59611,-6851414 -59619,-6851421 -59647,-6851440 -59664,-6851434 -59675,-6851458 -59719,-6851540 -59747,-6851579 -59793,-6851636 -59863,-6851731 -59906,-6851790 -59914,-6851805 -59929,-6851849 -59934,-6851891 -59942,-6851927 -59966,-6851971 -59982,-6851993 -60047,-6852085 -60081,-6852145 -60108,-6852188 -60122,-6852208 -60137,-6852227 -60168,-6852255 -60188,-6852277 -60207,-6852300 -60240,-6852348 -60264,-6852403 -60313,-6852480 -60331,-6852523 -60339,-6852567 -60340,-6852619 -60339,-6852683 -60331,-6852721 -60323,-6852740 -60297,-6852790 -60269,-6852828 -60241,-6852880 -60213,-6852932 -60179,-6853003 -60120,-6853089 -60077,-6853148 -60032,-6853221 -59925,-6853381 -59883,-6853441 -59699,-6853720 -59569,-6853909 -59560,-6853921 -59503,-6854000 -59439,-6854092 -59329,-6854259 -59237,-6854389 -59203,-6854443 -59010,-6854726 -58961,-6854798 -58871,-6854936 -58851,-6854964 -58810,-6855022 -58769,-6855085 -58715,-6855165 -58669,-6855237 -58604,-6855331 -58549,-6855416 -58478,-6855519 -58323,-6855753 -58129,-6856037 -58077,-6856115 -58040,-6856171 -57870,-6856418 -57849,-6856450 -57779,-6856550 -57753,-6856590 -57698,-6856676 -57640,-6856752 -57581,-6856844 -57537,-6856910 -57498,-6856953 -57478,-6856973 -57417,-6857031 -57293,-6857158 -57223,-6857227 -57257,-6857250 -57285,-6857271 -57327,-6857292 -57373,-6857317 -57419,-6857343 -57475,-6857378 -57556,-6857422 -57597,-6857447 -57642,-6857469 -57724,-6857505 -57817,-6857553 -57863,-6857578 -57889,-6857610 -57869,-6857646 -57861,-6857666 -57854,-6857685 -57847,-6857711 -57856,-6857744 -57867,-6857773 -57704,-6857769 -57594,-6857765 -57534,-6857765 -57195,-6857884 -57100,-6857923 -56988,-6857964 -56700,-6858073 -56497,-6858153 -56465,-6858163 -56442,-6858169 -56400,-6858178 -56304,-6858189 -55935,-6858223 -55546,-6858262 -55470,-6858270 -55258,-6858291 -54737,-6858342 -54454,-6858371 -54388,-6858379 -54294,-6858385 -54265,-6858389 -54228,-6858390 -54032,-6858375 -53919,-6858370 -53873,-6858370 -53844,-6858369 -53809,-6858365 -53729,-6858357 -53712,-6858355 -53691,-6858350 -53642,-6858332 -53544,-6858284 -53511,-6858265 -53499,-6858256 -53496,-6858255 -53318,-6858125 -53225,-6858062 -53038,-6857881 -53024,-6857861 -53017,-6857841 -52995,-6857864 -52986,-6857880 -52875,-6858026 -52830,-6858088 -52809,-6858122 -52802,-6858129 -52789,-6858142 -52782,-6858148 -52752,-6858165 -52597,-6858266 -52360,-6858415 -52083,-6858587 -51862,-6858719 -51843,-6858725 -51827,-6858729 -51804,-6858731 -51775,-6858724 -51489,-6858619 -51452,-6858604 -51405,-6858590 -51331,-6858557 -51300,-6858541 -51288,-6858534 -51271,-6858518 -51225,-6858456 -51210,-6858433 -51199,-6858420 -51184,-6858404 -51176,-6858396 -51070,-6858305 -50952,-6858210 -50810,-6858113 -50722,-6858048 -50695,-6858028 -50631,-6857981 -50466,-6857860 -50420,-6857825" stroke="#006747" stroke-width="96" /></ns0:svg>    <rect x="20" y="50"  width="250" height="25"  rx="0"  fill="#006747" fill-opacity="0.8" />    <text x="145" y="70" text-anchor="middle" font-family="Frutiger" font-weight="bold" font-size="30" fill="white">Bedford</text>    <rect x="35" y="195" width="220" height="160" rx="15" fill="#78BE20"/>    <g font-family="Frutiger" font-size="15" fill="#231F20">        <g> <text x="45" y="218">Self-harm</text> <text x="245" y="218" text-anchor="end">38</text> </g>        <g> <text x="45" y="243">SEN</text> <text x="245" y="243" text-anchor="end">31</text> </g>        <g> <text x="45" y="268">Difficulties</text> <text x="245" y="268" text-anchor="end">75</text> </g>        <g> <text x="45" y="293">Child Carer</text> <text x="245" y="293" text-anchor="end">3</text> </g>        <g> <text x="45" y="318">Drinkers</text> <text x="245" y="318" text-anchor="end">38</text> </g>        <g> <text x="45" y="343">Safeguarding </text> <text x="245" y="343" text-anchor="end">27</text> </g>    </g></svg>