<?xml version="1.0" standalone="no"?>
<!DOCTYPE svg PUBLIC "-//W3C//DTD SVG 1.1//EN"
"http://www.w3.org/Graphics/SVG/1.1/DTD/svg11.dtd">
<svg height="390" version="1.1" width="290" xmlns="http://www.w3.org/2000/svg"><defs><style type="text/css">@font-face {font-family: 'Frutiger';font-style: normal;font-weight: normal;src: local('Frutiger'), url('../fonts/Frutiger.woff') format('woff');}@font-face {font-family: 'Frutiger Bold';font-style: normal;font-weight: normal;src: local('Frutiger Bold'), url('../fonts/Frutiger_bold.woff') format('woff');}        </style>    </defs>    <rect x="20" y="20"  width="250" height="350" rx="15" fill="#005EB8" />    <rect x="35" y="35"  width="220" height="145" rx="15" fill="white" /><ns0:svg xmlns:ns0="http://www.w3.org/2000/svg" height="115" version="1.1" viewBox="-300309 -7072457 30317 29613" width="220" x="35" y="50"><ns0:polygon fill="#003087" points=" -277638,-7072302 -277626,-7072294 -277614,-7072284 -277603,-7072275 -277591,-7072265 -277580,-7072256 -277569,-7072246 -277558,-7072236 -277555,-7072233 -277537,-7072216 -277520,-7072199 -277512,-7072191 -277501,-7072178 -277490,-7072166 -277480,-7072154 -277478,-7072151 -277466,-7072136 -277454,-7072119 -277442,-7072103 -277440,-7072101 -277421,-7072078 -277402,-7072055 -277399,-7072052 -277383,-7072034 -277370,-7072020 -277365,-7072014 -277361,-7072008 -277357,-7072002 -277353,-7071995 -277349,-7071989 -277348,-7071987 -277342,-7071977 -277336,-7071967 -277331,-7071956 -277326,-7071945 -277321,-7071935 -277316,-7071924 -277315,-7071922 -277287,-7071864 -277260,-7071807 -277237,-7071764 -277214,-7071721 -277205,-7071705 -277175,-7071650 -277165,-7071634 -277154,-7071618 -277143,-7071602 -277140,-7071597 -277125,-7071578 -277112,-7071559 -277109,-7071553 -277105,-7071548 -277103,-7071542 -277100,-7071536 -277097,-7071530 -277095,-7071525 -277093,-7071519 -277091,-7071512 -277091,-7071511 -277090,-7071506 -277089,-7071502 -277089,-7071497 -277088,-7071493 -277088,-7071488 -277087,-7071483 -277087,-7071479 -277087,-7071474 -277087,-7071470 -277088,-7071465 -277088,-7071461 -277088,-7071456 -277089,-7071449 -277090,-7071443 -277091,-7071438 -277092,-7071432 -277094,-7071426 -277096,-7071420 -277097,-7071414 -277099,-7071408 -277101,-7071402 -277103,-7071396 -277105,-7071390 -277111,-7071371 -277117,-7071353 -277124,-7071335 -277139,-7071298 -277146,-7071280 -277148,-7071275 -277181,-7071182 -277204,-7071120 -277209,-7071102 -277214,-7071085 -277219,-7071068 -277221,-7071055 -277224,-7071043 -277225,-7071038 -277229,-7071017 -277232,-7071007 -277234,-7071001 -277236,-7070995 -277238,-7070990 -277241,-7070984 -277243,-7070979 -277246,-7070973 -277249,-7070968 -277250,-7070966 -277254,-7070959 -277258,-7070953 -277262,-7070946 -277267,-7070940 -277271,-7070933 -277276,-7070927 -277280,-7070920 -277281,-7070919 -277309,-7070875 -277313,-7070868 -277320,-7070855 -277322,-7070852 -277324,-7070850 -277326,-7070847 -277328,-7070845 -277329,-7070842 -277331,-7070839 -277332,-7070837 -277334,-7070834 -277335,-7070832 -277336,-7070829 -277337,-7070826 -277338,-7070823 -277339,-7070820 -277340,-7070817 -277341,-7070814 -277341,-7070813 -277341,-7070811 -277341,-7070808 -277342,-7070805 -277342,-7070802 -277342,-7070799 -277341,-7070797 -277341,-7070794 -277341,-7070791 -277341,-7070788 -277341,-7070788 -277341,-7070776 -277341,-7070765 -277340,-7070764 -277328,-7070697 -277327,-7070661 -277329,-7070614 -277332,-7070588 -277359,-7070486 -277367,-7070463 -277371,-7070443 -277372,-7070433 -277372,-7070391 -277369,-7070370 -277363,-7070354 -277343,-7070313 -277315,-7070264 -277309,-7070247 -277306,-7070230 -277304,-7070212 -277314,-7070109 -277318,-7070086 -277319,-7070071 -277311,-7070011 -277309,-7069990 -277310,-7069952 -277313,-7069921 -277314,-7069914 -277373,-7069774 -277409,-7069701 -277418,-7069675 -277424,-7069652 -277428,-7069636 -277431,-7069609 -277438,-7069506 -277436,-7069475 -277433,-7069458 -277424,-7069420 -277376,-7069351 -277351,-7069314 -277344,-7069302 -277337,-7069286 -277328,-7069256 -277320,-7069234 -277312,-7069194 -277304,-7069172 -277297,-7069158 -277289,-7069147 -277282,-7069138 -277268,-7069125 -277234,-7069088 -277221,-7069071 -277214,-7069060 -277189,-7069009 -277170,-7068957 -277157,-7068903 -277150,-7068805 -277153,-7068595 -277153,-7068587 -277155,-7068569 -277154,-7068513 -277154,-7068498 -277153,-7068489 -277150,-7068480 -277147,-7068473 -277141,-7068464 -277135,-7068457 -277128,-7068450 -277088,-7068426 -277059,-7068409 -276997,-7068380 -276977,-7068367 -276967,-7068360 -276958,-7068351 -276941,-7068332 -276891,-7068269 -276850,-7068214 -276839,-7068195 -276834,-7068183 -276829,-7068166 -276824,-7068149 -276821,-7068130 -276819,-7068100 -276821,-7068061 -276820,-7068037 -276814,-7067981 -276799,-7067933 -276791,-7067912 -276788,-7067892 -276787,-7067882 -276789,-7067855 -276795,-7067789 -276794,-7067780 -276792,-7067771 -276769,-7067676 -276759,-7067655 -276752,-7067643 -276743,-7067633 -276736,-7067626 -276727,-7067620 -276709,-7067609 -276674,-7067584 -276628,-7067539 -276585,-7067502 -276565,-7067489 -276552,-7067483 -276535,-7067478 -276452,-7067439 -276434,-7067433 -276424,-7067427 -276411,-7067418 -276398,-7067407 -276386,-7067396 -276376,-7067384 -276335,-7067328 -276229,-7067135 -276147,-7067002 -276140,-7066992 -276031,-7066825 -275935,-7066682 -275886,-7066621 -275733,-7066466 -275638,-7066366 -275625,-7066344 -275619,-7066327 -275613,-7066302 -275611,-7066285 -275612,-7066270 -275613,-7066260 -275622,-7066224 -275631,-7066198 -275717,-7065998 -275750,-7065932 -275790,-7065868 -275794,-7065859 -275848,-7065704 -275867,-7065640 -275879,-7065611 -275883,-7065589 -275884,-7065579 -275885,-7065559 -275884,-7065526 -275884,-7065500 -275881,-7065484 -275878,-7065469 -275873,-7065455 -275866,-7065443 -275841,-7065404 -275788,-7065336 -275771,-7065308 -275724,-7065207 -275671,-7065108 -275621,-7065023 -275463,-7064762 -275441,-7064721 -275429,-7064704 -275415,-7064689 -275394,-7064669 -275380,-7064660 -275372,-7064656 -275346,-7064649 -275335,-7064645 -275300,-7064630 -275277,-7064624 -275267,-7064622 -275225,-7064622 -275160,-7064620 -275129,-7064617 -275105,-7064613 -275048,-7064600 -275002,-7064574 -274964,-7064544 -274872,-7064466 -274808,-7064415 -274800,-7064408 -274731,-7064346 -274703,-7064326 -274688,-7064311 -274679,-7064304 -274662,-7064292 -274643,-7064280 -274613,-7064267 -274571,-7064254 -274551,-7064250 -274525,-7064247 -274274,-7064256 -274247,-7064254 -274233,-7064251 -274215,-7064246 -274195,-7064239 -274176,-7064230 -274116,-7064191 -274084,-7064168 -274037,-7064125 -274021,-7064098 -273995,-7064046 -273932,-7063887 -273923,-7063864 -273845,-7063680 -273809,-7063608 -273785,-7063562 -273763,-7063526 -273712,-7063448 -273621,-7063315 -273509,-7063180 -273411,-7063068 -273389,-7063047 -273376,-7063033 -273351,-7063003 -273338,-7062984 -273303,-7062932 -273278,-7062856 -273202,-7062643 -273194,-7062627 -273185,-7062613 -273174,-7062598 -273164,-7062587 -273139,-7062563 -273097,-7062517 -273061,-7062483 -272995,-7062439 -272980,-7062427 -272965,-7062413 -272927,-7062361 -272926,-7062361 -272914,-7062339 -272904,-7062320 -272894,-7062294 -272854,-7062137 -272841,-7062088 -272805,-7061954 -272795,-7061913 -272779,-7061861 -272767,-7061829 -272729,-7061750 -272687,-7061710 -272669,-7061689 -272654,-7061670 -272631,-7061635 -272623,-7061616 -272620,-7061604 -272620,-7061586 -272614,-7061499 -272616,-7061464 -272628,-7061375 -272629,-7061358 -272629,-7061309 -272631,-7061222 -272636,-7061187 -272642,-7061167 -272649,-7061151 -272667,-7061127 -272694,-7061109 -272705,-7061100 -272715,-7061090 -272719,-7061084 -272725,-7061071 -272740,-7061020 -272745,-7061012 -272765,-7060986 -272810,-7060942 -272825,-7060924 -272834,-7060912 -272839,-7060903 -272868,-7060850 -272872,-7060839 -272873,-7060830 -272874,-7060819 -272873,-7060805 -272836,-7060658 -272823,-7060595 -272816,-7060579 -272804,-7060561 -272769,-7060522 -272764,-7060518 -272755,-7060511 -272740,-7060504 -272691,-7060495 -272678,-7060486 -272671,-7060478 -272665,-7060469 -272661,-7060461 -272659,-7060455 -272656,-7060426 -272660,-7060349 -272663,-7060300 -272770,-7060226 -272789,-7060215 -272797,-7060209 -272808,-7060200 -272819,-7060189 -272825,-7060183 -272842,-7060162 -272860,-7060128 -273011,-7059967 -273045,-7059930 -273057,-7059913 -273123,-7059825 -273142,-7059799 -273164,-7059771 -273176,-7059755 -273201,-7059721 -273216,-7059698 -273304,-7059565 -273329,-7059525 -273338,-7059510 -273339,-7059508 -273354,-7059481 -273388,-7059422 -273410,-7059383 -273429,-7059353 -273494,-7059217 -273571,-7059068 -273723,-7058768 -273879,-7058442 -273899,-7058402 -273932,-7058332 -273948,-7058298 -273986,-7058223 -274025,-7058148 -274079,-7058051 -274091,-7058032 -274128,-7057972 -274162,-7057920 -274204,-7057859 -274231,-7057820 -274247,-7057798 -274303,-7057724 -274391,-7057614 -274469,-7057520 -274511,-7057472 -274553,-7057424 -274591,-7057384 -274611,-7057362 -274663,-7057309 -274706,-7057266 -274750,-7057223 -274787,-7057189 -274824,-7057156 -274933,-7057062 -274942,-7057055 -274953,-7057045 -275005,-7057005 -275034,-7056985 -275056,-7056971 -275123,-7056931 -275152,-7056912 -275195,-7056888 -275232,-7056871 -275258,-7056861 -275279,-7056854 -275316,-7056843 -275359,-7056827 -275395,-7056811 -275421,-7056798 -275492,-7056759 -275519,-7056746 -275560,-7056728 -275597,-7056714 -275623,-7056705 -275655,-7056695 -275699,-7056683 -275780,-7056665 -275837,-7056649 -275866,-7056639 -275886,-7056631 -275900,-7056626 -275853,-7056530 -275801,-7056515 -275791,-7056508 -275780,-7056500 -275767,-7056491 -275752,-7056473 -275719,-7056444 -275697,-7056419 -275689,-7056407 -275680,-7056392 -275671,-7056375 -275661,-7056349 -275641,-7056315 -275619,-7056281 -275595,-7056250 -275571,-7056236 -275555,-7056228 -275521,-7056214 -275485,-7056204 -275451,-7056198 -275384,-7056174 -275374,-7056169 -275364,-7056163 -275355,-7056155 -275347,-7056147 -275339,-7056137 -275328,-7056117 -275314,-7056079 -275307,-7056063 -275285,-7056015 -275274,-7055996 -275265,-7055984 -275253,-7055971 -275243,-7055962 -275233,-7055955 -275222,-7055948 -275211,-7055943 -275161,-7055925 -275129,-7055915 -275090,-7055904 -275075,-7055902 -275057,-7055900 -275045,-7055901 -275020,-7055904 -274967,-7055919 -274947,-7055925 -274925,-7055933 -274904,-7055943 -274876,-7055958 -274843,-7055983 -274820,-7055998 -274778,-7056021 -274755,-7056036 -274740,-7056049 -274730,-7056059 -274726,-7056063 -274721,-7056075 -274719,-7056087 -274720,-7056094 -274724,-7056105 -274740,-7056121 -274751,-7056135 -274763,-7056157 -274765,-7056167 -274764,-7056174 -274761,-7056181 -274757,-7056186 -274752,-7056190 -274746,-7056193 -274737,-7056196 -274691,-7056194 -274652,-7056193 -274609,-7056195 -274586,-7056203 -274570,-7056210 -274556,-7056218 -274545,-7056226 -274522,-7056244 -274516,-7056250 -274512,-7056257 -274510,-7056262 -274508,-7056268 -274508,-7056282 -274521,-7056326 -274524,-7056337 -274525,-7056343 -274524,-7056348 -274522,-7056353 -274517,-7056359 -274513,-7056362 -274509,-7056364 -274503,-7056365 -274496,-7056365 -274491,-7056364 -274484,-7056360 -274469,-7056357 -274455,-7056352 -274443,-7056346 -274434,-7056339 -274425,-7056330 -274412,-7056313 -274374,-7056278 -274316,-7056252 -274309,-7056247 -274300,-7056244 -274294,-7056244 -274288,-7056245 -274282,-7056247 -274277,-7056252 -274273,-7056257 -274270,-7056267 -274255,-7056302 -274250,-7056316 -274247,-7056324 -274243,-7056329 -274232,-7056338 -274224,-7056343 -274215,-7056346 -274208,-7056348 -274197,-7056348 -274165,-7056346 -274139,-7056341 -274125,-7056337 -274100,-7056327 -274064,-7056315 -274055,-7056310 -274048,-7056304 -274044,-7056297 -274042,-7056291 -274040,-7056282 -274031,-7056255 -274029,-7056246 -274025,-7056237 -274020,-7056232 -274013,-7056227 -274006,-7056225 -273998,-7056224 -273957,-7056209 -273950,-7056205 -273942,-7056203 -273932,-7056202 -273924,-7056204 -273917,-7056207 -273911,-7056211 -273905,-7056217 -273898,-7056228 -273872,-7056267 -273865,-7056276 -273862,-7056277 -273848,-7056274 -273840,-7056271 -273830,-7056267 -273820,-7056260 -273811,-7056250 -273807,-7056243 -273768,-7056205 -273767,-7056203 -273758,-7056188 -273754,-7056180 -273753,-7056172 -273751,-7056161 -273751,-7056149 -273752,-7056143 -273756,-7056132 -273757,-7056124 -273757,-7056110 -273755,-7056096 -273748,-7056082 -273743,-7056076 -273736,-7056069 -273723,-7056061 -273695,-7056033 -273689,-7056030 -273679,-7056027 -273667,-7056029 -273662,-7056032 -273657,-7056036 -273653,-7056041 -273650,-7056048 -273656,-7056088 -273661,-7056148 -273664,-7056155 -273667,-7056164 -273667,-7056170 -273665,-7056177 -273661,-7056184 -273656,-7056189 -273651,-7056193 -273647,-7056195 -273640,-7056196 -273634,-7056196 -273603,-7056188 -273592,-7056184 -273583,-7056183 -273575,-7056183 -273570,-7056184 -273560,-7056189 -273550,-7056198 -273547,-7056203 -273533,-7056236 -273525,-7056246 -273520,-7056250 -273514,-7056253 -273507,-7056254 -273500,-7056255 -273493,-7056254 -273466,-7056244 -273457,-7056238 -273448,-7056232 -273437,-7056218 -273433,-7056210 -273429,-7056206 -273425,-7056202 -273420,-7056200 -273414,-7056199 -273405,-7056199 -273397,-7056203 -273390,-7056210 -273387,-7056216 -273369,-7056238 -273361,-7056251 -273355,-7056256 -273349,-7056259 -273343,-7056262 -273337,-7056263 -273331,-7056263 -273324,-7056261 -273317,-7056258 -273308,-7056251 -273281,-7056219 -273278,-7056210 -273274,-7056204 -273270,-7056199 -273264,-7056195 -273257,-7056192 -273249,-7056191 -273240,-7056192 -273233,-7056195 -273223,-7056201 -273188,-7056217 -273150,-7056271 -273140,-7056283 -273101,-7056285 -273068,-7056292 -273045,-7056316 -273038,-7056328 -273037,-7056336 -273037,-7056344 -273040,-7056352 -273044,-7056359 -273049,-7056364 -273061,-7056371 -273067,-7056378 -273070,-7056386 -273070,-7056395 -273068,-7056399 -273062,-7056406 -273057,-7056409 -273048,-7056411 -273022,-7056427 -272982,-7056437 -272972,-7056435 -272966,-7056433 -272961,-7056429 -272956,-7056424 -272952,-7056418 -272951,-7056414 -272957,-7056358 -272956,-7056353 -272954,-7056347 -272950,-7056340 -272945,-7056334 -272938,-7056331 -272933,-7056329 -272921,-7056329 -272883,-7056342 -272844,-7056375 -272831,-7056381 -272824,-7056383 -272815,-7056383 -272747,-7056372 -272661,-7056356 -272641,-7056354 -272602,-7056361 -272580,-7056364 -272567,-7056363 -272558,-7056361 -272550,-7056358 -272543,-7056354 -272537,-7056350 -272530,-7056343 -272523,-7056335 -272517,-7056323 -272515,-7056317 -272514,-7056309 -272515,-7056300 -272516,-7056295 -272531,-7056271 -272531,-7056268 -272491,-7056227 -272464,-7056206 -272450,-7056197 -272400,-7056170 -272390,-7056162 -272382,-7056152 -272381,-7056149 -272373,-7056120 -272372,-7056103 -272373,-7056081 -272375,-7056067 -272375,-7056060 -272372,-7056052 -272369,-7056049 -272341,-7056040 -272332,-7056042 -272324,-7056042 -272311,-7056039 -272306,-7056037 -272270,-7056014 -272263,-7056012 -272250,-7056009 -272221,-7056009 -272217,-7056008 -272210,-7056004 -272206,-7055999 -272204,-7055974 -272206,-7055968 -272212,-7055955 -272220,-7055940 -272228,-7055928 -272247,-7055902 -272247,-7055897 -272243,-7055889 -272238,-7055881 -272229,-7055873 -272208,-7055868 -272191,-7055866 -272165,-7055859 -272143,-7055847 -272128,-7055841 -272117,-7055843 -272105,-7055848 -272083,-7055857 -272075,-7055858 -272069,-7055858 -272058,-7055856 -272012,-7055838 -271989,-7055832 -271978,-7055832 -271957,-7055837 -271950,-7055838 -271944,-7055838 -271930,-7055833 -271923,-7055828 -271921,-7055825 -271919,-7055821 -271914,-7055793 -271911,-7055782 -271898,-7055759 -271894,-7055753 -271886,-7055747 -271868,-7055740 -271862,-7055737 -271854,-7055731 -271846,-7055722 -271840,-7055715 -271837,-7055705 -271831,-7055678 -271827,-7055666 -271824,-7055661 -271819,-7055657 -271810,-7055654 -271803,-7055652 -271791,-7055653 -271755,-7055651 -271712,-7055645 -271711,-7055645 -271697,-7055644 -271684,-7055647 -271671,-7055652 -271661,-7055659 -271645,-7055679 -271623,-7055719 -271614,-7055729 -271603,-7055737 -271600,-7055738 -271536,-7055743 -271509,-7055751 -271487,-7055762 -271483,-7055763 -271477,-7055764 -271470,-7055763 -271465,-7055761 -271460,-7055758 -271454,-7055750 -271449,-7055729 -271451,-7055702 -271454,-7055682 -271472,-7055631 -271470,-7055605 -271473,-7055580 -271486,-7055543 -271489,-7055526 -271490,-7055509 -271487,-7055492 -271484,-7055484 -271480,-7055476 -271469,-7055461 -271454,-7055446 -271444,-7055438 -271426,-7055427 -271321,-7055385 -271314,-7055377 -271311,-7055371 -271308,-7055366 -271300,-7055344 -271296,-7055338 -271291,-7055332 -271285,-7055326 -271277,-7055322 -271268,-7055319 -271260,-7055318 -271252,-7055318 -271243,-7055319 -271234,-7055322 -271226,-7055325 -271216,-7055332 -271196,-7055350 -271189,-7055354 -271179,-7055357 -271173,-7055358 -271170,-7055357 -271163,-7055354 -271161,-7055352 -271144,-7055330 -271134,-7055321 -271127,-7055318 -271119,-7055316 -271104,-7055315 -271087,-7055315 -271071,-7055318 -271061,-7055322 -271048,-7055329 -271015,-7055353 -271001,-7055361 -270992,-7055366 -270982,-7055369 -270969,-7055370 -270956,-7055369 -270947,-7055367 -270937,-7055363 -270887,-7055330 -270874,-7055319 -270870,-7055313 -270868,-7055307 -270866,-7055294 -270869,-7055261 -270877,-7055214 -270882,-7055193 -270884,-7055185 -270886,-7055169 -270886,-7055158 -270884,-7055150 -270882,-7055143 -270878,-7055136 -270870,-7055129 -270862,-7055125 -270840,-7055121 -270811,-7055119 -270803,-7055117 -270785,-7055107 -270782,-7055104 -270757,-7055072 -270742,-7055048 -270739,-7055045 -270733,-7055041 -270728,-7055039 -270706,-7055038 -270684,-7055041 -270665,-7055044 -270628,-7055053 -270627,-7055055 -270606,-7055082 -270592,-7055099 -270584,-7055106 -270527,-7055145 -270481,-7055166 -270424,-7055171 -270398,-7055169 -270381,-7055165 -270364,-7055164 -270347,-7055165 -270323,-7055171 -270316,-7055176 -270314,-7055178 -270312,-7055184 -270308,-7055229 -270303,-7055248 -270297,-7055258 -270293,-7055262 -270288,-7055265 -270283,-7055267 -270278,-7055268 -270272,-7055268 -270265,-7055267 -270258,-7055265 -270251,-7055263 -270236,-7055250 -270230,-7055243 -270224,-7055235 -270218,-7055224 -270214,-7055211 -270212,-7055196 -270203,-7055159 -270201,-7055144 -270206,-7055101 -270205,-7055092 -270203,-7055080 -270201,-7055075 -270200,-7055071 -270183,-7055043 -270179,-7055038 -270157,-7055016 -270126,-7054991 -270088,-7054947 -270083,-7054943 -270077,-7054939 -270071,-7054937 -270060,-7054935 -270038,-7054907 -269998,-7054875 -269992,-7054861 -269992,-7054854 -269992,-7054843 -269995,-7054835 -269998,-7054833 -270011,-7054824 -270016,-7054820 -270015,-7054802 -270021,-7054791 -270021,-7054746 -270027,-7054716 -270130,-7054527 -270153,-7054480 -270089,-7054448 -270085,-7054442 -270084,-7054438 -270086,-7054431 -270097,-7054412 -270101,-7054403 -270108,-7054385 -270112,-7054368 -270113,-7054359 -270110,-7054314 -270117,-7054223 -270117,-7054200 -270114,-7054170 -270113,-7054120 -270101,-7054009 -270085,-7053892 -270061,-7053748 -270062,-7053734 -270060,-7053727 -270058,-7053721 -270055,-7053715 -270049,-7053706 -270029,-7053662 -270022,-7053645 -270018,-7053631 -270016,-7053623 -270005,-7053550 -270006,-7053541 -270007,-7053537 -270028,-7053501 -270049,-7053456 -270074,-7053417 -270100,-7053384 -270115,-7053362 -270135,-7053329 -270175,-7053249 -270230,-7053128 -270236,-7053111 -270246,-7053089 -270253,-7053077 -270271,-7053052 -270300,-7053009 -270322,-7052981 -270335,-7052971 -270364,-7052928 -270322,-7052899 -270316,-7052890 -270311,-7052884 -270300,-7052875 -270286,-7052870 -270274,-7052868 -270226,-7052836 -270648,-7052365 -270719,-7052426 -270734,-7052436 -270815,-7052485 -270887,-7052362 -271016,-7052139 -271018,-7052135 -271040,-7052152 -271057,-7052166 -271124,-7052232 -271136,-7052206 -271195,-7052077 -271199,-7052064 -271203,-7052047 -271220,-7051923 -271227,-7051911 -271151,-7051866 -271178,-7051833 -271222,-7051796 -271248,-7051804 -271254,-7051808 -271258,-7051810 -271263,-7051810 -271267,-7051809 -271276,-7051805 -271341,-7051782 -271367,-7051778 -271385,-7051779 -271484,-7051792 -271548,-7051823 -271554,-7051826 -271571,-7051832 -271582,-7051834 -271584,-7051824 -271590,-7051798 -271592,-7051791 -271603,-7051743 -271590,-7051743 -271584,-7051742 -271586,-7051730 -271585,-7051728 -271581,-7051722 -271580,-7051715 -271581,-7051613 -271579,-7051559 -271580,-7051524 -271582,-7051498 -271599,-7051330 -271600,-7051304 -271600,-7051283 -271598,-7051238 -271599,-7051124 -271606,-7051110 -271673,-7051096 -271730,-7051085 -271755,-7051085 -271773,-7051084 -271808,-7051079 -271836,-7051072 -271974,-7051045 -272053,-7051026 -272063,-7051021 -272118,-7051019 -272232,-7050987 -272365,-7050959 -272416,-7050965 -272485,-7050984 -272499,-7050990 -272554,-7051030 -272582,-7051041 -272606,-7051047 -272750,-7051080 -272783,-7051089 -272793,-7051096 -272798,-7051101 -272801,-7051109 -272802,-7051115 -272802,-7051118 -272796,-7051159 -272804,-7051167 -272818,-7051179 -272835,-7051188 -272853,-7051193 -272863,-7051195 -272879,-7051196 -272989,-7051214 -273016,-7051223 -273055,-7051228 -273074,-7051232 -273094,-7051238 -273118,-7051246 -273132,-7051251 -273192,-7051278 -273207,-7051284 -273237,-7051295 -273331,-7051326 -273376,-7051344 -273392,-7051349 -273412,-7051354 -273432,-7051359 -273453,-7051361 -273491,-7051363 -273540,-7051378 -273566,-7051376 -273587,-7051376 -273607,-7051378 -273627,-7051381 -273646,-7051386 -273666,-7051393 -273707,-7051414 -273717,-7051413 -273719,-7051350 -273719,-7051348 -273720,-7051344 -273724,-7051337 -273734,-7051335 -273739,-7051333 -273744,-7051331 -273745,-7051329 -273752,-7051326 -273754,-7051320 -273756,-7051309 -273761,-7051298 -273763,-7051295 -273842,-7051036 -273919,-7050792 -273925,-7050778 -273934,-7050772 -273936,-7050730 -273949,-7050671 -273952,-7050648 -273985,-7050665 -274017,-7050678 -274089,-7050693 -274172,-7050703 -274206,-7050701 -274220,-7050691 -274237,-7050690 -274259,-7050679 -274289,-7050659 -274300,-7050650 -274313,-7050638 -274336,-7050613 -274341,-7050609 -274367,-7050582 -274388,-7050552 -274391,-7050546 -274391,-7050543 -274391,-7050530 -274402,-7050526 -274405,-7050536 -274416,-7050541 -274428,-7050528 -274437,-7050532 -274439,-7050540 -274447,-7050552 -274457,-7050561 -274465,-7050558 -274475,-7050553 -274485,-7050553 -274486,-7050554 -274497,-7050562 -274515,-7050567 -274518,-7050568 -274538,-7050563 -274540,-7050562 -274564,-7050551 -274592,-7050551 -274608,-7050562 -274621,-7050556 -274634,-7050555 -274645,-7050559 -274663,-7050571 -274688,-7050578 -274706,-7050581 -274711,-7050603 -274718,-7050610 -274729,-7050614 -274748,-7050607 -274756,-7050618 -274757,-7050619 -274768,-7050618 -274789,-7050621 -274799,-7050627 -274806,-7050641 -274812,-7050651 -274820,-7050655 -274824,-7050651 -274828,-7050648 -274828,-7050644 -274828,-7050636 -274836,-7050626 -274854,-7050627 -274872,-7050649 -274899,-7050656 -274908,-7050668 -274930,-7050674 -274933,-7050682 -274926,-7050689 -274921,-7050696 -274927,-7050708 -274941,-7050713 -274953,-7050713 -274960,-7050709 -274969,-7050704 -274979,-7050714 -274985,-7050720 -275003,-7050726 -275009,-7050724 -275023,-7050720 -275039,-7050731 -275063,-7050730 -275084,-7050736 -275098,-7050736 -275129,-7050732 -275155,-7050735 -275149,-7050742 -275141,-7050749 -275135,-7050757 -275136,-7050768 -275149,-7050779 -275155,-7050783 -275161,-7050787 -275170,-7050780 -275175,-7050775 -275180,-7050771 -275203,-7050774 -275242,-7050810 -275249,-7050825 -275254,-7050841 -275259,-7050847 -275263,-7050853 -275268,-7050857 -275273,-7050862 -275282,-7050864 -275307,-7050865 -275313,-7050879 -275321,-7050880 -275329,-7050880 -275339,-7050877 -275367,-7050868 -275376,-7050883 -275374,-7050890 -275374,-7050896 -275376,-7050900 -275380,-7050903 -275385,-7050905 -275390,-7050904 -275400,-7050898 -275406,-7050897 -275411,-7050897 -275414,-7050898 -275417,-7050901 -275421,-7050906 -275422,-7050911 -275421,-7050919 -275424,-7050929 -275426,-7050936 -275457,-7050962 -275474,-7050962 -275480,-7050963 -275509,-7050971 -275513,-7050982 -275520,-7050990 -275536,-7050986 -275549,-7050986 -275553,-7050997 -275558,-7050997 -275563,-7050997 -275585,-7050993 -275589,-7050997 -275607,-7050994 -275620,-7051003 -275649,-7051017 -275654,-7051015 -275674,-7051004 -275691,-7051010 -275696,-7051002 -275701,-7051000 -275710,-7050997 -275720,-7050996 -275734,-7050997 -275758,-7051005 -275766,-7051019 -275791,-7051033 -275806,-7051044 -275818,-7051074 -275862,-7051102 -275913,-7051108 -275943,-7051143 -275969,-7051171 -275968,-7051182 -275964,-7051192 -275970,-7051201 -275997,-7051211 -276012,-7051218 -276019,-7051222 -276039,-7051237 -276042,-7051239 -276048,-7051240 -276054,-7051240 -276059,-7051239 -276064,-7051236 -276068,-7051233 -276070,-7051229 -276073,-7051220 -276073,-7051212 -276079,-7051197 -276114,-7051216 -276107,-7051234 -276116,-7051248 -276120,-7051257 -276125,-7051265 -276130,-7051272 -276143,-7051281 -276153,-7051286 -276180,-7051293 -276190,-7051298 -276197,-7051300 -276205,-7051300 -276213,-7051298 -276221,-7051294 -276227,-7051290 -276235,-7051276 -276242,-7051270 -276246,-7051268 -276252,-7051267 -276256,-7051267 -276261,-7051284 -276273,-7051291 -276281,-7051294 -276290,-7051297 -276306,-7051296 -276319,-7051286 -276334,-7051284 -276337,-7051287 -276346,-7051299 -276351,-7051299 -276357,-7051299 -276373,-7051283 -276383,-7051266 -276386,-7051262 -276422,-7051267 -276444,-7051268 -276477,-7051267 -276522,-7051280 -276539,-7051289 -276545,-7051294 -276551,-7051299 -276544,-7051318 -276567,-7051322 -276579,-7051314 -276608,-7051299 -276618,-7051296 -276638,-7051291 -276657,-7051289 -276676,-7051288 -276693,-7051299 -276742,-7051293 -276765,-7051308 -276780,-7051316 -276800,-7051324 -276838,-7051342 -276854,-7051324 -276859,-7051314 -276870,-7051307 -276877,-7051294 -276879,-7051283 -276887,-7051271 -276895,-7051266 -276899,-7051261 -276901,-7051255 -276903,-7051250 -276903,-7051244 -276901,-7051238 -276898,-7051232 -276895,-7051228 -276893,-7051227 -276878,-7051223 -276877,-7051210 -276879,-7051202 -276873,-7051193 -276870,-7051187 -276869,-7051180 -276869,-7051173 -276870,-7051167 -276874,-7051155 -276877,-7051150 -276882,-7051146 -276887,-7051143 -276893,-7051141 -276900,-7051142 -276906,-7051143 -276916,-7051150 -276948,-7051166 -276974,-7051177 -277015,-7051179 -277026,-7051178 -277050,-7051174 -277073,-7051176 -277075,-7051168 -277070,-7051156 -277087,-7051129 -277102,-7051127 -277124,-7051140 -277129,-7051145 -277134,-7051147 -277138,-7051148 -277146,-7051146 -277149,-7051143 -277152,-7051138 -277153,-7051133 -277156,-7051098 -277143,-7051081 -277150,-7051071 -277153,-7051067 -277155,-7051060 -277156,-7051052 -277155,-7051044 -277153,-7051035 -277151,-7051028 -277138,-7051004 -277142,-7050985 -277148,-7050973 -277153,-7050950 -277161,-7050922 -277176,-7050904 -277188,-7050892 -277208,-7050874 -277223,-7050855 -277236,-7050854 -277255,-7050855 -277264,-7050838 -277272,-7050834 -277288,-7050843 -277294,-7050844 -277306,-7050846 -277316,-7050853 -277328,-7050842 -277330,-7050831 -277340,-7050805 -277349,-7050796 -277370,-7050792 -277370,-7050788 -277367,-7050774 -277382,-7050772 -277402,-7050771 -277408,-7050770 -277412,-7050768 -277419,-7050762 -277422,-7050757 -277430,-7050734 -277432,-7050721 -277427,-7050715 -277426,-7050710 -277425,-7050704 -277425,-7050699 -277428,-7050689 -277434,-7050682 -277434,-7050679 -277433,-7050672 -277431,-7050662 -277426,-7050652 -277414,-7050635 -277411,-7050627 -277410,-7050618 -277412,-7050611 -277414,-7050605 -277417,-7050600 -277422,-7050596 -277427,-7050593 -277431,-7050590 -277442,-7050588 -277463,-7050578 -277483,-7050558 -277492,-7050550 -277495,-7050546 -277498,-7050541 -277500,-7050533 -277501,-7050525 -277501,-7050520 -277496,-7050507 -277496,-7050506 -277491,-7050499 -277490,-7050489 -277515,-7050443 -277517,-7050437 -277509,-7050428 -277499,-7050423 -277496,-7050419 -277492,-7050411 -277490,-7050403 -277489,-7050396 -277490,-7050391 -277492,-7050384 -277497,-7050374 -277500,-7050370 -277511,-7050360 -277515,-7050357 -277523,-7050353 -277532,-7050352 -277541,-7050352 -277548,-7050354 -277551,-7050356 -277562,-7050370 -277573,-7050380 -277585,-7050378 -277590,-7050363 -277580,-7050340 -277581,-7050324 -277612,-7050314 -277624,-7050311 -277649,-7050304 -277668,-7050295 -277672,-7050281 -277670,-7050269 -277672,-7050260 -277681,-7050264 -277689,-7050270 -277696,-7050272 -277703,-7050272 -277709,-7050270 -277714,-7050267 -277725,-7050256 -277736,-7050246 -277745,-7050235 -277749,-7050229 -277754,-7050216 -277765,-7050219 -277774,-7050229 -277783,-7050235 -277792,-7050236 -277802,-7050235 -277809,-7050232 -277806,-7050219 -277807,-7050214 -277811,-7050205 -277814,-7050201 -277833,-7050205 -277860,-7050214 -277874,-7050216 -277883,-7050199 -277898,-7050190 -277919,-7050183 -277922,-7050171 -277928,-7050156 -277936,-7050143 -277950,-7050129 -277948,-7050120 -277936,-7050120 -277929,-7050114 -277924,-7050085 -277923,-7050050 -277937,-7050059 -277944,-7050043 -277951,-7050035 -277958,-7050027 -277960,-7050011 -277959,-7050004 -277961,-7050000 -277964,-7049995 -277968,-7049992 -277972,-7049991 -277977,-7049991 -277982,-7049992 -277988,-7049996 -277990,-7049998 -277991,-7050005 -277992,-7050009 -277995,-7050013 -277997,-7050016 -278000,-7050017 -278008,-7050018 -278011,-7050017 -278016,-7050015 -278025,-7050005 -278042,-7049973 -278048,-7049951 -278047,-7049950 -278046,-7049948 -278044,-7049947 -278033,-7049946 -278013,-7049947 -278011,-7049926 -278012,-7049915 -278015,-7049902 -278019,-7049890 -278033,-7049864 -278036,-7049857 -278036,-7049852 -278034,-7049834 -278034,-7049826 -278035,-7049818 -278038,-7049810 -278042,-7049804 -278048,-7049800 -278063,-7049793 -278067,-7049791 -278070,-7049786 -278071,-7049783 -278070,-7049778 -278066,-7049774 -278063,-7049773 -278054,-7049773 -278052,-7049772 -278051,-7049770 -278052,-7049765 -278053,-7049760 -278056,-7049757 -278060,-7049753 -278069,-7049749 -278089,-7049743 -278104,-7049733 -278113,-7049723 -278120,-7049718 -278125,-7049715 -278130,-7049713 -278137,-7049713 -278144,-7049716 -278148,-7049722 -278150,-7049728 -278158,-7049735 -278161,-7049736 -278170,-7049736 -278180,-7049733 -278197,-7049724 -278232,-7049713 -278241,-7049707 -278243,-7049702 -278245,-7049700 -278262,-7049699 -278264,-7049698 -278270,-7049693 -278273,-7049688 -278275,-7049682 -278274,-7049677 -278271,-7049672 -278271,-7049662 -278274,-7049654 -278276,-7049651 -278281,-7049647 -278290,-7049643 -278299,-7049641 -278311,-7049638 -278330,-7049624 -278358,-7049613 -278390,-7049596 -278420,-7049584 -278440,-7049574 -278444,-7049570 -278444,-7049554 -278493,-7049512 -278496,-7049497 -278500,-7049488 -278511,-7049473 -278553,-7049438 -278583,-7049424 -278594,-7049415 -278602,-7049413 -278605,-7049409 -278605,-7049404 -278604,-7049399 -278601,-7049394 -278594,-7049386 -278584,-7049378 -278576,-7049372 -278555,-7049363 -278549,-7049358 -278545,-7049353 -278542,-7049345 -278540,-7049336 -278540,-7049328 -278541,-7049320 -278544,-7049312 -278548,-7049305 -278561,-7049288 -278568,-7049277 -278581,-7049245 -278586,-7049236 -278599,-7049217 -278612,-7049205 -278618,-7049197 -278639,-7049149 -278643,-7049145 -278648,-7049140 -278654,-7049135 -278661,-7049131 -278673,-7049127 -278696,-7049116 -278707,-7049105 -278717,-7049102 -278727,-7049100 -278754,-7049102 -278769,-7049099 -278777,-7049099 -278791,-7049102 -278797,-7049102 -278805,-7049101 -278812,-7049098 -278817,-7049095 -278820,-7049092 -278825,-7049080 -278879,-7049052 -278946,-7049025 -278967,-7049017 -279007,-7049006 -279039,-7049001 -279043,-7049000 -279051,-7048997 -279061,-7048991 -279071,-7048985 -279076,-7048981 -279078,-7048977 -279080,-7048972 -279081,-7048964 -279080,-7048956 -279077,-7048948 -279072,-7048941 -279067,-7048936 -279051,-7048927 -279060,-7048907 -279068,-7048899 -279075,-7048897 -279092,-7048907 -279095,-7048908 -279101,-7048909 -279106,-7048908 -279111,-7048906 -279115,-7048904 -279120,-7048898 -279124,-7048890 -279129,-7048880 -279142,-7048859 -279144,-7048848 -279143,-7048843 -279138,-7048835 -279138,-7048831 -279139,-7048822 -279143,-7048817 -279148,-7048814 -279156,-7048811 -279160,-7048810 -279164,-7048811 -279180,-7048815 -279188,-7048816 -279195,-7048816 -279201,-7048815 -279206,-7048813 -279215,-7048807 -279219,-7048803 -279228,-7048789 -279231,-7048785 -279232,-7048780 -279233,-7048774 -279232,-7048767 -279230,-7048760 -279227,-7048754 -279225,-7048748 -279226,-7048743 -279227,-7048739 -279229,-7048737 -279233,-7048736 -279237,-7048736 -279244,-7048739 -279255,-7048741 -279258,-7048740 -279262,-7048738 -279265,-7048734 -279268,-7048729 -279270,-7048724 -279271,-7048716 -279278,-7048695 -279289,-7048679 -279297,-7048682 -279312,-7048693 -279317,-7048687 -279327,-7048687 -279345,-7048693 -279365,-7048702 -279369,-7048696 -279371,-7048695 -279377,-7048693 -279395,-7048690 -279401,-7048689 -279403,-7048687 -279404,-7048681 -279410,-7048672 -279425,-7048662 -279435,-7048652 -279437,-7048647 -279435,-7048637 -279432,-7048627 -279425,-7048610 -279427,-7048608 -279429,-7048607 -279431,-7048606 -279439,-7048605 -279445,-7048612 -279446,-7048615 -279448,-7048625 -279455,-7048624 -279460,-7048609 -279465,-7048607 -279469,-7048610 -279472,-7048616 -279475,-7048624 -279520,-7048618 -279527,-7048610 -279528,-7048596 -279517,-7048587 -279516,-7048582 -279513,-7048576 -279510,-7048572 -279500,-7048563 -279505,-7048554 -279542,-7048531 -279577,-7048518 -279604,-7048506 -279641,-7048497 -279709,-7048497 -279720,-7048496 -279738,-7048489 -279744,-7048485 -279756,-7048476 -279777,-7048452 -279788,-7048435 -279793,-7048423 -279798,-7048407 -279805,-7048377 -279816,-7048346 -279823,-7048336 -279838,-7048322 -279844,-7048315 -279848,-7048309 -279862,-7048271 -279876,-7048222 -279877,-7048208 -279880,-7048199 -279884,-7048188 -279907,-7048153 -279950,-7048099 -279968,-7048071 -279977,-7048053 -279982,-7048040 -279986,-7048024 -279997,-7047995 -280011,-7047980 -280021,-7047967 -280020,-7047964 -280018,-7047953 -280018,-7047948 -280019,-7047943 -280023,-7047938 -280026,-7047935 -280031,-7047933 -280067,-7047909 -280087,-7047883 -280107,-7047854 -280157,-7047799 -280185,-7047780 -280235,-7047756 -280253,-7047749 -280274,-7047744 -280305,-7047729 -280353,-7047697 -280362,-7047678 -280371,-7047671 -280377,-7047667 -280391,-7047664 -280408,-7047650 -280447,-7047635 -280464,-7047626 -280476,-7047621 -280497,-7047615 -280507,-7047614 -280572,-7047611 -280609,-7047612 -280641,-7047611 -280597,-7047458 -280562,-7047316 -280519,-7047182 -280459,-7046964 -280451,-7046933 -280408,-7046757 -280386,-7046686 -280365,-7046629 -280346,-7046583 -280394,-7046561 -280423,-7046555 -280448,-7046541 -280462,-7046534 -280482,-7046528 -280502,-7046524 -280541,-7046510 -280549,-7046495 -280571,-7046472 -280599,-7046452 -280618,-7046437 -280637,-7046426 -280665,-7046414 -280681,-7046410 -280685,-7046408 -280690,-7046405 -280705,-7046392 -280722,-7046380 -280776,-7046359 -280801,-7046345 -280832,-7046335 -280869,-7046329 -280879,-7046326 -280888,-7046322 -280898,-7046314 -280907,-7046306 -280918,-7046291 -280968,-7046261 -280992,-7046244 -281023,-7046228 -281039,-7046222 -281067,-7046212 -281100,-7046191 -281198,-7046144 -281284,-7046098 -281316,-7046077 -281347,-7046059 -281373,-7046045 -281390,-7046032 -281440,-7046005 -281464,-7045996 -281490,-7045989 -281499,-7045985 -281527,-7045966 -281541,-7045954 -281650,-7045889 -281755,-7045829 -281854,-7045773 -281942,-7045723 -281993,-7045696 -282036,-7045670 -282052,-7045658 -282073,-7045644 -282109,-7045623 -282132,-7045610 -282171,-7045586 -282195,-7045573 -282226,-7045558 -282347,-7045500 -282510,-7045407 -282554,-7045383 -282582,-7045417 -282587,-7045416 -282598,-7045412 -282602,-7045419 -282601,-7045431 -282600,-7045433 -282625,-7045458 -282631,-7045463 -282635,-7045465 -282668,-7045472 -282690,-7045465 -282708,-7045446 -282709,-7045409 -282734,-7045356 -282750,-7045293 -282785,-7045209 -282848,-7045036 -282872,-7044974 -282881,-7044954 -282892,-7044916 -282909,-7044885 -282922,-7044878 -282935,-7044874 -282942,-7044870 -282954,-7044860 -282983,-7044819 -282992,-7044799 -282999,-7044788 -283006,-7044780 -283015,-7044772 -283030,-7044766 -283051,-7044763 -283070,-7044753 -283086,-7044733 -283100,-7044710 -283133,-7044634 -283181,-7044537 -283228,-7044476 -283255,-7044420 -283254,-7044401 -283254,-7044392 -283255,-7044371 -283286,-7044375 -283332,-7044377 -283376,-7044391 -283393,-7044395 -283432,-7044400 -283480,-7044409 -283522,-7044419 -283581,-7044442 -283637,-7044464 -283673,-7044466 -283689,-7044482 -283727,-7044505 -283752,-7044524 -283765,-7044539 -283774,-7044544 -283796,-7044555 -283825,-7044574 -283851,-7044596 -283878,-7044622 -283886,-7044627 -283910,-7044640 -283927,-7044651 -283951,-7044674 -283963,-7044683 -284001,-7044705 -284010,-7044714 -284015,-7044718 -284019,-7044720 -284026,-7044721 -284036,-7044721 -284043,-7044720 -284049,-7044716 -284053,-7044709 -284064,-7044691 -284090,-7044643 -284124,-7044573 -284140,-7044546 -284160,-7044510 -284168,-7044490 -284175,-7044468 -284191,-7044412 -284222,-7044307 -284239,-7044252 -284249,-7044210 -284265,-7044118 -284275,-7044086 -284301,-7044036 -284326,-7044002 -284343,-7043989 -284354,-7043979 -284379,-7043951 -284400,-7043930 -284422,-7043908 -284440,-7043873 -284462,-7043834 -284492,-7043795 -284534,-7043757 -284562,-7043726 -284580,-7043704 -284590,-7043688 -284613,-7043653 -284652,-7043601 -284666,-7043579 -284684,-7043548 -284692,-7043558 -284696,-7043563 -284776,-7043518 -284848,-7043474 -284828,-7043455 -284832,-7043447 -284841,-7043423 -284870,-7043373 -284887,-7043355 -284898,-7043346 -284905,-7043335 -284912,-7043318 -284922,-7043299 -284926,-7043290 -284932,-7043248 -284982,-7043160 -284988,-7043151 -284996,-7043142 -285005,-7043134 -285013,-7043128 -285022,-7043122 -285080,-7043088 -285126,-7043065 -285165,-7043043 -285186,-7043032 -285201,-7043026 -285234,-7043016 -285295,-7043003 -285310,-7043000 -285321,-7042984 -285382,-7043008 -285399,-7043015 -285493,-7043050 -285530,-7043068 -285553,-7043082 -285575,-7043095 -285592,-7043108 -285605,-7043118 -285640,-7043150 -285673,-7043170 -285693,-7043184 -285700,-7043191 -285712,-7043208 -285704,-7043214 -285724,-7043248 -285741,-7043292 -285752,-7043313 -285805,-7043388 -285823,-7043403 -285840,-7043413 -285851,-7043417 -285861,-7043419 -285871,-7043419 -285887,-7043417 -285894,-7043414 -285935,-7043391 -285965,-7043384 -286024,-7043386 -286116,-7043405 -286174,-7043411 -286222,-7043424 -286262,-7043443 -286272,-7043445 -286280,-7043446 -286328,-7043444 -286338,-7043446 -286344,-7043447 -286377,-7043459 -286389,-7043461 -286394,-7043461 -286404,-7043459 -286419,-7043454 -286440,-7043444 -286504,-7043439 -286548,-7043442 -286580,-7043452 -286608,-7043456 -286638,-7043461 -286668,-7043464 -286691,-7043468 -286731,-7043482 -286743,-7043485 -286749,-7043485 -286764,-7043484 -286770,-7043485 -286777,-7043488 -286790,-7043495 -286809,-7043518 -286814,-7043527 -286820,-7043534 -286827,-7043540 -286834,-7043545 -286841,-7043547 -286849,-7043549 -286868,-7043551 -286876,-7043551 -286885,-7043549 -286893,-7043546 -286954,-7043513 -287011,-7043528 -287021,-7043531 -287026,-7043534 -287030,-7043536 -287024,-7043550 -287024,-7043557 -287031,-7043585 -287043,-7043614 -287052,-7043644 -287060,-7043659 -287072,-7043676 -287087,-7043698 -287091,-7043730 -287075,-7043732 -287057,-7043774 -287057,-7043786 -287057,-7043818 -287054,-7043832 -287065,-7043845 -287074,-7043857 -287102,-7043868 -287118,-7043860 -287155,-7043873 -287163,-7043878 -287177,-7043887 -287179,-7043900 -287174,-7043931 -287172,-7043943 -287179,-7043958 -287210,-7043974 -287220,-7043979 -287230,-7044014 -287268,-7044001 -287299,-7043984 -287331,-7043965 -287345,-7043963 -287377,-7043969 -287395,-7043980 -287457,-7044004 -287520,-7044022 -287613,-7044060 -287647,-7044086 -287658,-7044092 -287669,-7044098 -287675,-7044100 -287697,-7044104 -287771,-7044116 -287851,-7044129 -287903,-7044160 -287904,-7044161 -287904,-7044158 -287910,-7044039 -287984,-7043967 -288063,-7043882 -288132,-7043794 -288137,-7043766 -288106,-7043617 -288131,-7043568 -288150,-7043519 -288180,-7043512 -288185,-7043511 -288202,-7043509 -288231,-7043499 -288242,-7043496 -288257,-7043494 -288270,-7043493 -288286,-7043495 -288324,-7043508 -288327,-7043507 -288349,-7043495 -288379,-7043472 -288386,-7043468 -288414,-7043452 -288430,-7043409 -288478,-7043391 -288589,-7043329 -288606,-7043314 -288614,-7043304 -288622,-7043293 -288627,-7043284 -288630,-7043274 -288632,-7043266 -288631,-7043260 -288629,-7043254 -288625,-7043247 -288621,-7043241 -288607,-7043228 -288603,-7043222 -288600,-7043216 -288599,-7043209 -288602,-7043195 -288609,-7043168 -288610,-7043161 -288609,-7043150 -288609,-7043149 -288603,-7043126 -288602,-7043116 -288603,-7043102 -288605,-7043088 -288622,-7043003 -288630,-7042935 -288629,-7042929 -288626,-7042922 -288621,-7042914 -288609,-7042902 -288607,-7042897 -288606,-7042892 -288605,-7042866 -288608,-7042864 -288632,-7042852 -288662,-7042849 -288717,-7042849 -288752,-7042844 -288777,-7042844 -288812,-7042847 -288819,-7042848 -288840,-7042852 -288898,-7042867 -288916,-7042896 -288944,-7042918 -288990,-7042965 -289002,-7042981 -289009,-7042993 -289015,-7043005 -289019,-7043016 -289021,-7043034 -289015,-7043053 -289008,-7043092 -289008,-7043109 -289009,-7043137 -289007,-7043167 -289017,-7043253 -289035,-7043272 -289045,-7043280 -289052,-7043283 -289071,-7043290 -289114,-7043300 -289135,-7043303 -289147,-7043305 -289162,-7043309 -289179,-7043316 -289249,-7043348 -289253,-7043350 -289279,-7043352 -289374,-7043312 -289426,-7043300 -289443,-7043280 -289445,-7043278 -289457,-7043275 -289498,-7043263 -289510,-7043262 -289524,-7043263 -289539,-7043265 -289551,-7043269 -289563,-7043274 -289575,-7043281 -289587,-7043290 -289652,-7043320 -289657,-7043327 -289715,-7043371 -289760,-7043434 -289774,-7043465 -289810,-7043519 -289839,-7043554 -289854,-7043569 -289870,-7043582 -289882,-7043599 -289915,-7043618 -289936,-7043630 -289957,-7043641 -289992,-7043656 -290004,-7043661 -290047,-7043675 -290093,-7043692 -290232,-7043749 -290274,-7043760 -290313,-7043846 -290436,-7044074 -290485,-7044190 -290496,-7044247 -290506,-7044292 -290523,-7044292 -290557,-7044325 -290587,-7044349 -290602,-7044349 -290628,-7044342 -290676,-7044317 -290761,-7044267 -290779,-7044240 -290791,-7044218 -290806,-7044195 -290811,-7044188 -290818,-7044182 -290826,-7044176 -290835,-7044170 -290847,-7044165 -290863,-7044160 -290932,-7044135 -290991,-7044106 -291049,-7044086 -291093,-7044060 -291144,-7044069 -291208,-7044085 -291240,-7044093 -291255,-7044103 -291307,-7044145 -291378,-7044196 -291402,-7044226 -291416,-7044252 -291422,-7044292 -291443,-7044318 -291451,-7044341 -291472,-7044367 -291476,-7044395 -291495,-7044412 -291510,-7044419 -291524,-7044429 -291542,-7044445 -291553,-7044460 -291559,-7044473 -291561,-7044488 -291561,-7044498 -291559,-7044508 -291557,-7044519 -291560,-7044533 -291566,-7044552 -291579,-7044569 -291585,-7044583 -291601,-7044605 -291609,-7044613 -291618,-7044622 -291635,-7044630 -291630,-7044636 -291625,-7044641 -291604,-7044664 -291568,-7044707 -291520,-7044754 -291510,-7044775 -291491,-7044799 -291432,-7044892 -291386,-7044948 -291380,-7044956 -291286,-7045056 -291255,-7045095 -291218,-7045119 -291178,-7045152 -291165,-7045191 -291160,-7045204 -291153,-7045220 -291146,-7045241 -291138,-7045291 -291128,-7045327 -291111,-7045399 -291085,-7045461 -291066,-7045495 -291053,-7045528 -291019,-7045597 -291006,-7045639 -290950,-7045749 -290940,-7045801 -290930,-7045838 -290926,-7045847 -290922,-7045856 -290909,-7045874 -290865,-7045921 -290860,-7045928 -290856,-7045936 -290846,-7045957 -290821,-7046004 -290785,-7046079 -290763,-7046141 -290760,-7046179 -290746,-7046226 -290739,-7046255 -290733,-7046273 -290724,-7046292 -290717,-7046307 -290708,-7046321 -290695,-7046338 -290679,-7046356 -290660,-7046373 -290595,-7046424 -290585,-7046430 -290575,-7046436 -290561,-7046440 -290536,-7046443 -290523,-7046442 -290515,-7046442 -290504,-7046445 -290479,-7046456 -290463,-7046465 -290431,-7046479 -290399,-7046504 -290386,-7046511 -290373,-7046518 -290330,-7046534 -290290,-7046556 -290225,-7046571 -290219,-7046574 -290214,-7046578 -290208,-7046585 -290205,-7046593 -290202,-7046609 -290186,-7046635 -290178,-7046650 -290166,-7046681 -290165,-7046688 -290166,-7046696 -290169,-7046705 -290176,-7046716 -290191,-7046762 -290214,-7046826 -290212,-7046846 -290234,-7046871 -290233,-7046886 -290234,-7046898 -290233,-7046911 -290232,-7046933 -290226,-7046963 -290230,-7046967 -290252,-7046986 -290308,-7047043 -290327,-7047071 -290351,-7047106 -290352,-7047119 -290352,-7047121 -290354,-7047122 -290377,-7047133 -290377,-7047151 -290402,-7047160 -290412,-7047185 -290449,-7047218 -290451,-7047231 -290464,-7047247 -290478,-7047262 -290486,-7047274 -290492,-7047287 -290493,-7047300 -290496,-7047307 -290507,-7047317 -290533,-7047316 -290562,-7047328 -290577,-7047325 -290594,-7047331 -290600,-7047345 -290613,-7047355 -290625,-7047348 -290634,-7047353 -290647,-7047352 -290667,-7047337 -290680,-7047339 -290687,-7047340 -290694,-7047342 -290707,-7047342 -290726,-7047354 -290766,-7047371 -290790,-7047382 -290811,-7047383 -290825,-7047401 -290827,-7047411 -290832,-7047415 -290849,-7047420 -290860,-7047428 -290871,-7047435 -290891,-7047440 -290909,-7047452 -290917,-7047449 -290927,-7047446 -290948,-7047461 -290959,-7047489 -290981,-7047507 -290979,-7047528 -290978,-7047531 -290985,-7047538 -291004,-7047566 -291010,-7047557 -291007,-7047520 -291023,-7047509 -291028,-7047505 -291041,-7047463 -291050,-7047447 -291058,-7047435 -291066,-7047425 -291073,-7047418 -291076,-7047416 -291092,-7047408 -291101,-7047405 -291114,-7047405 -291130,-7047398 -291210,-7047388 -291302,-7047393 -291325,-7047396 -291565,-7047429 -291657,-7047452 -291708,-7047468 -291741,-7047472 -291771,-7047477 -291791,-7047480 -291810,-7047485 -291816,-7047488 -291835,-7047496 -291866,-7047514 -291906,-7047520 -291958,-7047515 -291962,-7047511 -291992,-7047477 -292006,-7047463 -292038,-7047423 -292048,-7047409 -292066,-7047391 -292087,-7047341 -292119,-7047271 -292345,-7047323 -292509,-7047363 -292515,-7047364 -292564,-7047286 -292594,-7047218 -292595,-7047207 -292597,-7047191 -292643,-7047201 -292735,-7047215 -292803,-7047235 -292869,-7047252 -292933,-7047263 -292932,-7047269 -292899,-7047456 -292892,-7047563 -292880,-7047692 -292871,-7047722 -292855,-7047778 -292851,-7047796 -292836,-7047837 -292812,-7047926 -292792,-7047985 -292770,-7048063 -292747,-7048134 -292675,-7048303 -292610,-7048478 -292639,-7048490 -292671,-7048496 -292716,-7048509 -292715,-7048575 -292685,-7048587 -292684,-7048618 -292688,-7048679 -292687,-7048704 -292682,-7048738 -292678,-7048753 -292670,-7048777 -292663,-7048796 -292660,-7048803 -292655,-7048809 -292648,-7048814 -292641,-7048818 -292633,-7048820 -292626,-7048821 -292615,-7048820 -292607,-7048817 -292574,-7048815 -292532,-7048802 -292499,-7048793 -292491,-7048786 -292484,-7048781 -292476,-7048778 -292471,-7048777 -292465,-7048777 -292451,-7048779 -292435,-7048782 -292428,-7048784 -292417,-7048868 -292491,-7048906 -292493,-7048908 -292498,-7048915 -292504,-7048927 -292508,-7048940 -292509,-7048953 -292512,-7048992 -292511,-7049011 -292509,-7049037 -292495,-7049100 -292475,-7049197 -292460,-7049316 -292457,-7049338 -292437,-7049475 -292432,-7049556 -292430,-7049606 -292422,-7049632 -292447,-7049648 -292485,-7049776 -292514,-7049857 -292542,-7049911 -292583,-7050002 -292637,-7050131 -292669,-7050217 -292692,-7050283 -292751,-7050413 -292788,-7050483 -292800,-7050509 -292810,-7050533 -292820,-7050557 -292839,-7050623 -293092,-7050546 -293265,-7050490 -293470,-7050418 -293690,-7050344 -293913,-7050263 -294126,-7050192 -294312,-7050116 -294513,-7050037 -294795,-7049917 -294861,-7049891 -294917,-7049868 -295058,-7049805 -295317,-7049702 -295467,-7049639 -295975,-7049424 -296586,-7049172 -296928,-7049025 -297051,-7048972 -297211,-7048904 -297407,-7048821 -297739,-7048686 -297800,-7048833 -297856,-7048960 -297867,-7048983 -297940,-7048965 -297954,-7048963 -297965,-7048960 -297995,-7048956 -298017,-7048954 -298036,-7048954 -298062,-7048953 -298089,-7048949 -298104,-7048948 -298139,-7048949 -298252,-7048964 -298305,-7048973 -298339,-7048980 -298369,-7048988 -298398,-7048998 -298448,-7049015 -298710,-7049121 -298864,-7049185 -298999,-7049239 -299318,-7049372 -299368,-7049398 -299407,-7049419 -299440,-7049439 -299465,-7049456 -299514,-7049491 -299538,-7049511 -299550,-7049523 -299565,-7049541 -299578,-7049558 -299587,-7049572 -299594,-7049588 -299600,-7049604 -299618,-7049674 -299642,-7049738 -299657,-7049771 -299664,-7049783 -299675,-7049798 -299691,-7049818 -299706,-7049845 -299736,-7049894 -299750,-7049911 -299765,-7049926 -299779,-7049939 -299802,-7049956 -299884,-7050006 -299851,-7050097 -299829,-7050145 -299827,-7050176 -299825,-7050206 -299826,-7050238 -299824,-7050335 -299823,-7050541 -299829,-7050604 -299827,-7050629 -299827,-7050656 -299833,-7050688 -299843,-7050721 -299837,-7050727 -299866,-7050782 -299933,-7050897 -299996,-7051009 -300042,-7051082 -300108,-7051199 -300172,-7051316 -300232,-7051434 -300251,-7051461 -300254,-7051561 -300261,-7051695 -300260,-7051752 -300263,-7051843 -300264,-7051895 -300269,-7052038 -300271,-7052138 -300276,-7052257 -300277,-7052332 -300280,-7052428 -300280,-7052493 -300280,-7052566 -300284,-7052624 -300285,-7052722 -300289,-7052767 -300294,-7052894 -300298,-7053164 -300304,-7053322 -300304,-7053375 -300309,-7053471 -300288,-7053617 -300287,-7053678 -300286,-7053721 -300283,-7053801 -300272,-7053865 -300268,-7053888 -300258,-7053926 -300248,-7053954 -300228,-7054008 -300206,-7054058 -300187,-7054094 -300124,-7054196 -300087,-7054242 -300008,-7054314 -299969,-7054344 -299936,-7054371 -299936,-7054371 -299926,-7054379 -299905,-7054394 -299890,-7054405 -299869,-7054417 -299795,-7054452 -299728,-7054483 -299637,-7054522 -299612,-7054533 -299560,-7054543 -299509,-7054556 -299514,-7054580 -299519,-7054604 -299364,-7054649 -299115,-7054714 -298870,-7054777 -298670,-7054828 -298527,-7054862 -298387,-7054900 -298245,-7054937 -297983,-7055006 -297926,-7055021 -297926,-7055050 -297925,-7055062 -297917,-7055071 -297915,-7055110 -297913,-7055198 -297918,-7055262 -297920,-7055305 -297920,-7055319 -297927,-7055337 -297924,-7055354 -297917,-7055368 -297898,-7055393 -297895,-7055415 -297894,-7055441 -297904,-7055465 -297921,-7055498 -297924,-7055507 -297930,-7055517 -297931,-7055533 -297928,-7055546 -297934,-7055563 -297931,-7055645 -297922,-7055694 -297917,-7055719 -297919,-7055746 -297922,-7055776 -297916,-7055840 -297916,-7055878 -297913,-7055914 -297915,-7055944 -297919,-7055982 -297920,-7055990 -297924,-7056013 -297931,-7056023 -297941,-7056037 -297951,-7056062 -297957,-7056083 -297958,-7056103 -297958,-7056127 -297954,-7056153 -297949,-7056180 -297940,-7056212 -297935,-7056241 -297928,-7056277 -297922,-7056294 -297905,-7056339 -297900,-7056363 -297896,-7056381 -297890,-7056400 -297870,-7056467 -297859,-7056520 -297837,-7056596 -297823,-7056668 -297805,-7056754 -297797,-7056758 -297795,-7056811 -297790,-7056839 -297774,-7056884 -297765,-7056916 -297759,-7056940 -297759,-7056961 -297722,-7056986 -297691,-7057002 -297680,-7057009 -297673,-7057013 -297666,-7057016 -297653,-7057021 -297645,-7057031 -297644,-7057039 -297637,-7057095 -297618,-7057196 -297595,-7057241 -297569,-7057284 -297529,-7057317 -297496,-7057335 -297437,-7057351 -297386,-7057362 -297376,-7057365 -297379,-7057416 -297390,-7057500 -297398,-7057637 -297411,-7057797 -297419,-7057891 -297429,-7058046 -297442,-7058182 -297465,-7058503 -297485,-7058781 -297534,-7058800 -297548,-7058802 -297540,-7058918 -297539,-7058931 -297547,-7058948 -297555,-7058961 -297556,-7058980 -297543,-7059007 -297546,-7059106 -297548,-7059154 -297559,-7059214 -297535,-7059223 -297527,-7059241 -297522,-7059261 -297520,-7059268 -297513,-7059331 -297499,-7059415 -297493,-7059452 -297472,-7059544 -297460,-7059537 -297460,-7059540 -297459,-7059547 -297458,-7059553 -297456,-7059569 -297455,-7059582 -297454,-7059598 -297454,-7059615 -297453,-7059631 -297452,-7059728 -297447,-7059806 -297447,-7059850 -297447,-7059906 -297444,-7059979 -297431,-7060187 -297305,-7060181 -297302,-7060184 -297273,-7060212 -297237,-7060239 -297199,-7060262 -297142,-7060285 -296955,-7060342 -296945,-7060346 -296873,-7060369 -296879,-7060522 -296885,-7060660 -296892,-7060793 -296899,-7060814 -296918,-7060814 -296946,-7060813 -296957,-7060813 -296998,-7060814 -297001,-7060814 -297067,-7060818 -297151,-7060820 -297224,-7060822 -297242,-7060822 -297286,-7060824 -297311,-7060825 -297350,-7060827 -297353,-7060827 -297356,-7060827 -297360,-7060828 -297364,-7060828 -297367,-7060828 -297371,-7060828 -297374,-7060828 -297378,-7060828 -297381,-7060829 -297385,-7060830 -297388,-7060830 -297389,-7060831 -297390,-7060831 -297392,-7060831 -297393,-7060831 -297394,-7060832 -297395,-7060832 -297396,-7060832 -297397,-7060832 -297398,-7060833 -297399,-7060833 -297400,-7060834 -297401,-7060834 -297402,-7060835 -297403,-7060836 -297404,-7060836 -297405,-7060837 -297406,-7060838 -297406,-7060839 -297407,-7060840 -297408,-7060841 -297408,-7060842 -297412,-7060858 -297423,-7060861 -297425,-7060875 -297427,-7060927 -297434,-7061013 -297441,-7061070 -297446,-7061125 -297449,-7061168 -297454,-7061216 -297473,-7061372 -297481,-7061445 -297469,-7061481 -297443,-7061534 -297437,-7061555 -297441,-7061562 -297403,-7061605 -297387,-7061630 -297362,-7061648 -297311,-7061723 -297298,-7061745 -297287,-7061753 -297252,-7061809 -297230,-7061847 -297195,-7061872 -297182,-7061896 -297168,-7061921 -297145,-7061949 -297137,-7061961 -297124,-7061973 -297107,-7061979 -297091,-7061997 -297069,-7062027 -297027,-7062072 -296967,-7062137 -296943,-7062159 -296924,-7062166 -296876,-7062220 -296853,-7062244 -296840,-7062255 -296835,-7062266 -296831,-7062284 -296805,-7062344 -296792,-7062375 -296775,-7062415 -296761,-7062471 -296759,-7062510 -296757,-7062514 -296741,-7062535 -296695,-7062559 -296623,-7062583 -296572,-7062614 -296537,-7062640 -296531,-7062648 -296509,-7062683 -296505,-7062695 -296504,-7062716 -296516,-7062760 -296528,-7062824 -296538,-7062873 -296565,-7062969 -296578,-7063021 -296593,-7063065 -296612,-7063109 -296637,-7063162 -296646,-7063178 -296655,-7063185 -296667,-7063190 -296689,-7063186 -296722,-7063198 -296754,-7063210 -296772,-7063233 -296805,-7063264 -296826,-7063280 -296858,-7063287 -296918,-7063294 -296949,-7063305 -296979,-7063304 -297039,-7063299 -297065,-7063306 -297130,-7063336 -297170,-7063352 -297189,-7063352 -297214,-7063352 -297241,-7063358 -297258,-7063363 -297279,-7063362 -297307,-7063358 -297344,-7063345 -297391,-7063324 -297434,-7063317 -297483,-7063317 -297526,-7063316 -297564,-7063325 -297620,-7063350 -297678,-7063375 -297709,-7063395 -297746,-7063429 -297794,-7063471 -297804,-7063473 -297809,-7063489 -297807,-7063510 -297804,-7063546 -297801,-7063583 -297800,-7063598 -297805,-7063623 -297810,-7063646 -297819,-7063695 -297841,-7063768 -297896,-7063955 -297891,-7063953 -297854,-7063946 -297760,-7063933 -297688,-7063924 -297608,-7063944 -297535,-7063964 -297502,-7063975 -297461,-7064002 -297424,-7064030 -297410,-7064045 -297399,-7064063 -297397,-7064080 -297397,-7064081 -297393,-7064112 -297384,-7064169 -297391,-7064199 -297409,-7064242 -297427,-7064285 -297433,-7064308 -297439,-7064333 -297438,-7064348 -297438,-7064373 -297427,-7064405 -297415,-7064424 -297392,-7064451 -297334,-7064489 -297315,-7064502 -297286,-7064507 -297257,-7064514 -297235,-7064535 -297148,-7064616 -297132,-7064637 -297126,-7064645 -297124,-7064646 -297119,-7064652 -297115,-7064659 -297110,-7064665 -297106,-7064671 -297102,-7064678 -297098,-7064684 -297094,-7064691 -297085,-7064709 -297075,-7064740 -297065,-7064771 -297062,-7064778 -297058,-7064789 -297055,-7064801 -297051,-7064812 -297048,-7064823 -297045,-7064834 -297044,-7064841 -297041,-7064851 -297040,-7064861 -297038,-7064871 -297036,-7064882 -297036,-7064921 -297045,-7064950 -297057,-7064973 -297078,-7064992 -297086,-7064999 -297113,-7065017 -297138,-7065023 -297139,-7065023 -297178,-7065025 -297255,-7065047 -297266,-7065043 -297278,-7065038 -297290,-7065033 -297295,-7065031 -297306,-7065025 -297318,-7065019 -297329,-7065013 -297446,-7064958 -297580,-7064895 -297724,-7064828 -297863,-7064759 -297927,-7064731 -298024,-7064702 -298183,-7064649 -298207,-7064640 -298211,-7064747 -298253,-7064728 -298266,-7064723 -298293,-7064710 -298336,-7064691 -298375,-7064674 -298381,-7064671 -298450,-7064643 -298505,-7064621 -298566,-7064596 -298567,-7064599 -298568,-7064602 -298569,-7064606 -298570,-7064611 -298572,-7064628 -298575,-7064646 -298576,-7064655 -298577,-7064661 -298502,-7064818 -298368,-7065109 -298317,-7065221 -298321,-7065222 -298485,-7065285 -298438,-7065440 -298402,-7065560 -298373,-7065664 -298367,-7065686 -298276,-7065645 -298190,-7065602 -298166,-7065661 -298160,-7065743 -298150,-7065871 -298142,-7065939 -298138,-7065987 -298122,-7066026 -298093,-7066099 -298071,-7066172 -298059,-7066227 -298055,-7066242 -298052,-7066272 -298049,-7066292 -298041,-7066311 -298044,-7066324 -298048,-7066338 -298045,-7066349 -298042,-7066361 -298042,-7066392 -298043,-7066402 -298052,-7066410 -298067,-7066418 -298072,-7066431 -298075,-7066443 -298075,-7066461 -298075,-7066470 -298085,-7066478 -298089,-7066489 -298084,-7066509 -298083,-7066528 -298074,-7066540 -298058,-7066559 -298058,-7066564 -298065,-7066569 -298075,-7066571 -298080,-7066577 -298082,-7066591 -298082,-7066604 -298081,-7066607 -298077,-7066617 -298078,-7066628 -298083,-7066636 -298085,-7066645 -298093,-7066666 -298103,-7066684 -298118,-7066702 -298129,-7066715 -298151,-7066728 -298159,-7066736 -298170,-7066744 -298178,-7066760 -298181,-7066781 -298177,-7066804 -298174,-7066822 -298172,-7066857 -298144,-7066884 -298133,-7066895 -298133,-7066904 -298133,-7066919 -298124,-7066935 -298125,-7066944 -298114,-7066973 -298107,-7066984 -298106,-7067004 -298094,-7067054 -298080,-7067098 -298069,-7067135 -298063,-7067153 -298048,-7067159 -298033,-7067162 -298022,-7067169 -298020,-7067171 -298020,-7067188 -298021,-7067194 -298002,-7067199 -297976,-7067207 -297959,-7067208 -297909,-7067206 -297865,-7067209 -297854,-7067210 -297758,-7067218 -297719,-7067218 -297702,-7067214 -297688,-7067210 -297665,-7067205 -297644,-7067202 -297630,-7067197 -297613,-7067186 -297609,-7067170 -297614,-7067154 -297623,-7067143 -297629,-7067134 -297631,-7067131 -297629,-7067124 -297606,-7067047 -297593,-7067036 -297577,-7067022 -297558,-7066990 -297555,-7066970 -297554,-7066964 -297552,-7066955 -297538,-7066946 -297531,-7066939 -297532,-7066911 -297533,-7066896 -297522,-7066882 -297512,-7066858 -297503,-7066843 -297481,-7066825 -297458,-7066810 -297430,-7066795 -297397,-7066757 -297368,-7066720 -297345,-7066695 -297324,-7066675 -297309,-7066666 -297296,-7066659 -297280,-7066657 -297244,-7066659 -297224,-7066652 -297204,-7066642 -297185,-7066633 -297168,-7066630 -297148,-7066632 -297147,-7066632 -297126,-7066644 -297103,-7066662 -297089,-7066670 -297071,-7066675 -297055,-7066673 -297040,-7066667 -297022,-7066656 -297011,-7066637 -297004,-7066617 -296997,-7066605 -296986,-7066600 -296970,-7066603 -296954,-7066606 -296937,-7066601 -296914,-7066583 -296900,-7066569 -296887,-7066565 -296872,-7066568 -296848,-7066582 -296824,-7066594 -296794,-7066601 -296784,-7066602 -296772,-7066596 -296760,-7066583 -296738,-7066558 -296719,-7066539 -296705,-7066527 -296694,-7066519 -296681,-7066516 -296665,-7066517 -296638,-7066532 -296609,-7066543 -296578,-7066562 -296563,-7066572 -296552,-7066578 -296541,-7066578 -296529,-7066569 -296510,-7066553 -296483,-7066538 -296459,-7066534 -296434,-7066535 -296417,-7066541 -296375,-7066546 -296351,-7066549 -296325,-7066549 -296288,-7066536 -296240,-7066509 -296218,-7066498 -296196,-7066493 -296162,-7066490 -296121,-7066486 -296103,-7066482 -296092,-7066469 -296080,-7066449 -296067,-7066430 -296013,-7066375 -296005,-7066358 -295999,-7066333 -295991,-7066277 -295985,-7066258 -295974,-7066243 -295953,-7066229 -295896,-7066203 -295877,-7066196 -295852,-7066195 -295809,-7066207 -295745,-7066224 -295655,-7066251 -295613,-7066264 -295586,-7066272 -295569,-7066282 -295560,-7066287 -295545,-7066304 -295524,-7066321 -295503,-7066325 -295450,-7066329 -295362,-7066332 -295302,-7066334 -295279,-7066333 -295259,-7066330 -295230,-7066320 -295198,-7066297 -295155,-7066273 -295118,-7066248 -295100,-7066225 -295084,-7066195 -295071,-7066176 -295056,-7066158 -295051,-7066142 -295042,-7066133 -295017,-7066115 -295009,-7066105 -294995,-7066072 -294964,-7066052 -294953,-7066024 -294941,-7066001 -294927,-7065993 -294908,-7065996 -294883,-7066004 -294848,-7066020 -294807,-7066044 -294788,-7066049 -294772,-7066048 -294752,-7066027 -294734,-7066004 -294725,-7065971 -294704,-7065933 -294671,-7065889 -294651,-7065861 -294630,-7065846 -294599,-7065833 -294578,-7065825 -294557,-7065806 -294543,-7065779 -294516,-7065722 -294509,-7065701 -294509,-7065679 -294517,-7065658 -294528,-7065643 -294529,-7065629 -294524,-7065615 -294513,-7065608 -294491,-7065604 -294439,-7065601 -294384,-7065596 -294347,-7065588 -294303,-7065570 -294247,-7065549 -294181,-7065533 -294143,-7065530 -294093,-7065531 -294064,-7065538 -294029,-7065555 -293982,-7065582 -293962,-7065593 -293885,-7065610 -293860,-7065621 -293836,-7065629 -293832,-7065630 -293830,-7065631 -293827,-7065631 -293824,-7065632 -293821,-7065632 -293818,-7065632 -293815,-7065632 -293812,-7065631 -293809,-7065631 -293806,-7065631 -293803,-7065630 -293801,-7065630 -293798,-7065629 -293795,-7065628 -293792,-7065627 -293789,-7065626 -293787,-7065625 -293752,-7065595 -293729,-7065581 -293725,-7065577 -293724,-7065576 -293712,-7065567 -293700,-7065559 -293688,-7065550 -293686,-7065548 -293655,-7065528 -293640,-7065517 -293624,-7065505 -293610,-7065492 -293595,-7065480 -293581,-7065469 -293559,-7065453 -293537,-7065436 -293536,-7065436 -293526,-7065429 -293487,-7065400 -293474,-7065384 -293454,-7065373 -293420,-7065348 -293386,-7065325 -293375,-7065316 -293369,-7065309 -293362,-7065305 -293355,-7065302 -293350,-7065301 -293344,-7065301 -293301,-7065291 -293253,-7065281 -293249,-7065280 -293242,-7065277 -293235,-7065275 -293228,-7065272 -293221,-7065269 -293215,-7065266 -293211,-7065264 -293205,-7065261 -293200,-7065258 -293195,-7065255 -293190,-7065251 -293185,-7065248 -293180,-7065244 -293178,-7065242 -293169,-7065235 -293160,-7065228 -293151,-7065221 -293143,-7065214 -293086,-7065166 -293080,-7065160 -293074,-7065154 -293067,-7065148 -293061,-7065142 -293056,-7065136 -293050,-7065130 -293048,-7065128 -293043,-7065121 -293038,-7065114 -293033,-7065107 -293028,-7065100 -293024,-7065093 -293019,-7065086 -293015,-7065079 -293002,-7065060 -292990,-7065040 -292979,-7065020 -292976,-7065015 -292969,-7065002 -292963,-7064988 -292956,-7064975 -292939,-7064929 -292930,-7064883 -292927,-7064832 -292929,-7064775 -292931,-7064747 -292933,-7064733 -292930,-7064705 -292939,-7064670 -292946,-7064641 -292951,-7064629 -292976,-7064612 -292988,-7064603 -293002,-7064537 -293010,-7064489 -293014,-7064456 -293002,-7064419 -292962,-7064357 -292933,-7064320 -292900,-7064257 -292885,-7064216 -292880,-7064175 -292879,-7064146 -292872,-7064128 -292860,-7064101 -292850,-7064075 -292825,-7064037 -292815,-7063999 -292793,-7063933 -292775,-7063897 -292760,-7063878 -292742,-7063864 -292729,-7063846 -292705,-7063835 -292678,-7063834 -292653,-7063845 -292632,-7063845 -292606,-7063838 -292586,-7063832 -292563,-7063803 -292537,-7063780 -292513,-7063769 -292487,-7063760 -292464,-7063764 -292435,-7063770 -292399,-7063770 -292377,-7063769 -292360,-7063763 -292383,-7063796 -292389,-7063810 -292405,-7063838 -292410,-7063858 -292408,-7063884 -292404,-7063900 -292395,-7063913 -292364,-7063955 -292336,-7063994 -292322,-7064017 -292318,-7064038 -292322,-7064066 -292324,-7064091 -292319,-7064102 -292303,-7064119 -292278,-7064139 -292274,-7064144 -292269,-7064148 -292266,-7064151 -292261,-7064155 -292256,-7064159 -292251,-7064162 -292246,-7064166 -292243,-7064168 -292220,-7064187 -292218,-7064188 -292217,-7064189 -292216,-7064190 -292215,-7064191 -292213,-7064192 -292212,-7064193 -292211,-7064194 -292209,-7064195 -292208,-7064196 -292206,-7064196 -292205,-7064197 -292203,-7064198 -292202,-7064198 -292200,-7064198 -292198,-7064199 -292197,-7064199 -292195,-7064199 -292194,-7064199 -292192,-7064199 -292190,-7064199 -292183,-7064199 -292174,-7064200 -292167,-7064201 -292161,-7064203 -292143,-7064210 -292107,-7064208 -292095,-7064204 -292080,-7064203 -292057,-7064202 -292005,-7064224 -291985,-7064222 -291957,-7064208 -291941,-7064211 -291926,-7064216 -291916,-7064213 -291910,-7064200 -291897,-7064200 -291867,-7064210 -291816,-7064244 -291794,-7064251 -291770,-7064252 -291762,-7064261 -291763,-7064304 -291773,-7064343 -291774,-7064389 -291763,-7064406 -291729,-7064407 -291705,-7064398 -291690,-7064399 -291673,-7064412 -291659,-7064440 -291655,-7064462 -291649,-7064471 -291637,-7064472 -291628,-7064467 -291618,-7064462 -291600,-7064464 -291587,-7064470 -291571,-7064495 -291572,-7064506 -291597,-7064522 -291609,-7064537 -291622,-7064578 -291607,-7064585 -291587,-7064587 -291553,-7064594 -291551,-7064581 -291561,-7064565 -291550,-7064558 -291501,-7064563 -291479,-7064554 -291435,-7064555 -291419,-7064569 -291403,-7064587 -291385,-7064601 -291371,-7064633 -291356,-7064655 -291353,-7064693 -291363,-7064719 -291347,-7064730 -291330,-7064732 -291322,-7064742 -291298,-7064806 -291295,-7064821 -291294,-7064823 -291271,-7064853 -291236,-7064861 -291225,-7064866 -291209,-7064884 -291219,-7064926 -291217,-7064936 -291192,-7064947 -291173,-7064950 -291127,-7064976 -291087,-7064979 -291066,-7064987 -291060,-7064997 -291051,-7065009 -291040,-7065013 -290989,-7065014 -290980,-7065022 -290974,-7065059 -290961,-7065076 -290906,-7065085 -290841,-7065087 -290808,-7065101 -290776,-7065119 -290735,-7065148 -290720,-7065164 -290712,-7065183 -290709,-7065206 -290702,-7065208 -290702,-7065229 -290690,-7065225 -290686,-7065218 -290656,-7065248 -290594,-7065244 -290564,-7065254 -290550,-7065255 -290486,-7065295 -290376,-7065295 -290359,-7065294 -290316,-7065290 -290288,-7065294 -290276,-7065292 -290260,-7065291 -290249,-7065292 -290238,-7065294 -290178,-7065315 -290136,-7065331 -290073,-7065323 -290033,-7065312 -290019,-7065313 -290009,-7065313 -290001,-7065311 -289992,-7065308 -289984,-7065304 -289976,-7065299 -289968,-7065291 -289912,-7065260 -289901,-7065257 -289889,-7065254 -289837,-7065252 -289822,-7065249 -289796,-7065257 -289780,-7065261 -289753,-7065266 -289749,-7065266 -289727,-7065258 -289715,-7065257 -289707,-7065258 -289699,-7065260 -289672,-7065287 -289642,-7065342 -289611,-7065362 -289577,-7065403 -289548,-7065405 -289516,-7065456 -289498,-7065461 -289452,-7065454 -289422,-7065448 -289393,-7065450 -289364,-7065453 -289333,-7065447 -289307,-7065439 -289261,-7065406 -289102,-7065283 -289082,-7065279 -289072,-7065278 -289058,-7065278 -289050,-7065277 -289043,-7065279 -289026,-7065289 -289011,-7065302 -288998,-7065321 -288986,-7065345 -288980,-7065379 -288977,-7065392 -288975,-7065429 -288972,-7065477 -288970,-7065523 -288970,-7065669 -288973,-7065800 -288982,-7065850 -288992,-7065922 -289003,-7065987 -289021,-7066103 -289029,-7066177 -289044,-7066251 -289058,-7066332 -289072,-7066380 -289090,-7066420 -289113,-7066450 -289150,-7066495 -289173,-7066524 -289198,-7066578 -289249,-7066634 -289250,-7066636 -289282,-7066696 -289306,-7066731 -289309,-7066735 -289284,-7066750 -289217,-7066676 -289148,-7066604 -289078,-7066534 -289027,-7066487 -288964,-7066436 -288923,-7066402 -288871,-7066372 -288802,-7066325 -288758,-7066293 -288712,-7066257 -288628,-7066176 -288537,-7066078 -288495,-7066028 -288439,-7065950 -288393,-7065879 -288359,-7065824 -288346,-7065823 -288334,-7065773 -288325,-7065758 -288310,-7065733 -288295,-7065704 -288280,-7065675 -288266,-7065645 -288258,-7065630 -288224,-7065564 -288177,-7065468 -288176,-7065466 -288145,-7065401 -288108,-7065325 -288089,-7065290 -288084,-7065280 -288077,-7065265 -288070,-7065250 -288063,-7065235 -288056,-7065221 -288048,-7065206 -288040,-7065192 -288031,-7065177 -288023,-7065164 -288011,-7065144 -287997,-7065125 -287984,-7065105 -287976,-7065094 -287936,-7065037 -287879,-7064961 -287850,-7064917 -287829,-7064885 -287814,-7064854 -287802,-7064824 -287795,-7064796 -287793,-7064768 -287776,-7064763 -287766,-7064760 -287769,-7064820 -287732,-7064864 -287715,-7064877 -287669,-7064916 -287642,-7064942 -287627,-7064939 -287602,-7064936 -287581,-7064937 -287562,-7064941 -287531,-7064960 -287526,-7064965 -287498,-7064996 -287481,-7065007 -287461,-7065021 -287439,-7065052 -287394,-7065116 -287354,-7065167 -287294,-7065245 -287205,-7065364 -287176,-7065405 -287135,-7065493 -287095,-7065564 -287065,-7065625 -287057,-7065639 -287020,-7065698 -286993,-7065737 -286930,-7065821 -286888,-7065875 -286865,-7065905 -286841,-7065936 -286814,-7065968 -286776,-7066026 -286765,-7066044 -286716,-7066123 -286699,-7066152 -286679,-7066183 -286658,-7066214 -286656,-7066218 -286652,-7066222 -286649,-7066227 -286645,-7066232 -286641,-7066237 -286637,-7066242 -286633,-7066246 -286630,-7066251 -286626,-7066256 -286623,-7066261 -286620,-7066267 -286617,-7066272 -286615,-7066275 -286613,-7066279 -286611,-7066284 -286610,-7066289 -286608,-7066293 -286606,-7066298 -286605,-7066303 -286600,-7066322 -286596,-7066345 -286587,-7066420 -286573,-7066511 -286555,-7066648 -286540,-7066747 -286537,-7066752 -286533,-7066780 -286528,-7066809 -286522,-7066837 -286516,-7066866 -286508,-7066897 -286494,-7066944 -286480,-7066991 -286421,-7067156 -286420,-7067159 -286387,-7067255 -286381,-7067271 -286341,-7067382 -286337,-7067394 -286303,-7067479 -286270,-7067564 -286256,-7067602 -286231,-7067675 -286207,-7067748 -286201,-7067767 -286193,-7067790 -286186,-7067813 -286178,-7067836 -286171,-7067860 -286164,-7067883 -286158,-7067906 -286152,-7067930 -286147,-7067954 -286142,-7067977 -286140,-7067994 -286137,-7068015 -286134,-7068036 -286132,-7068058 -286130,-7068079 -286129,-7068100 -286128,-7068122 -286127,-7068143 -286128,-7068165 -286128,-7068186 -286128,-7068193 -286130,-7068215 -286132,-7068236 -286134,-7068257 -286119,-7068261 -285881,-7068318 -285617,-7068378 -285384,-7068433 -285193,-7068478 -284992,-7068525 -284991,-7068525 -284989,-7068526 -284987,-7068526 -284985,-7068526 -284982,-7068526 -284980,-7068526 -284979,-7068526 -284977,-7068525 -284975,-7068525 -284974,-7068525 -284972,-7068525 -284971,-7068525 -284965,-7068525 -284958,-7068526 -284954,-7068527 -284932,-7068532 -284929,-7068533 -284910,-7068538 -284891,-7068543 -284873,-7068548 -284872,-7068548 -284871,-7068548 -284869,-7068549 -284866,-7068549 -284864,-7068550 -284861,-7068550 -284859,-7068551 -284858,-7068552 -284857,-7068552 -284855,-7068552 -284854,-7068553 -284852,-7068554 -284851,-7068554 -284850,-7068555 -284849,-7068555 -284848,-7068556 -284847,-7068557 -284846,-7068558 -284845,-7068560 -284844,-7068561 -284842,-7068562 -284841,-7068563 -284840,-7068564 -284836,-7068566 -284831,-7068568 -284829,-7068568 -284824,-7068570 -284819,-7068571 -284679,-7068603 -284595,-7068620 -284344,-7068682 -284129,-7068738 -283963,-7068780 -283961,-7068768 -283830,-7068803 -283761,-7068820 -283818,-7068996 -283891,-7069206 -283909,-7069258 -283963,-7069416 -283979,-7069459 -283996,-7069505 -284013,-7069551 -284036,-7069624 -284041,-7069640 -284058,-7069698 -284063,-7069714 -284080,-7069774 -284101,-7069850 -284158,-7070003 -284098,-7070014 -284042,-7070023 -284031,-7070024 -284021,-7070025 -284011,-7070026 -284001,-7070027 -283991,-7070029 -283986,-7070030 -283976,-7070032 -283966,-7070034 -283957,-7070037 -283947,-7070040 -283937,-7070043 -283928,-7070046 -283918,-7070050 -283912,-7070053 -283903,-7070056 -283895,-7070061 -283887,-7070065 -283880,-7070070 -283872,-7070074 -283864,-7070079 -283858,-7070082 -283839,-7070091 -283819,-7070100 -283800,-7070108 -283780,-7070116 -283581,-7070191 -283376,-7070275 -283141,-7070368 -282891,-7070464 -282710,-7070540 -282657,-7070569 -282526,-7070622 -282382,-7070683 -282355,-7070694 -282353,-7070695 -282219,-7070748 -282058,-7070817 -282025,-7070829 -281926,-7070867 -281761,-7070936 -281645,-7070986 -281501,-7071042 -281410,-7071072 -281284,-7071126 -281093,-7071204 -280877,-7071291 -280780,-7071332 -280727,-7071354 -280693,-7071367 -280605,-7071404 -280596,-7071407 -280531,-7071433 -280419,-7071479 -280354,-7071507 -280334,-7071513 -280323,-7071513 -280285,-7071531 -280237,-7071554 -280145,-7071592 -280013,-7071644 -279896,-7071692 -279709,-7071768 -279683,-7071780 -279573,-7071828 -279409,-7071896 -279270,-7071950 -279189,-7071987 -279188,-7071988 -279167,-7071998 -279162,-7072000 -279143,-7072009 -279060,-7072043 -278908,-7072104 -278777,-7072152 -278599,-7072232 -278489,-7072271 -278385,-7072307 -278382,-7072305 -278379,-7072304 -278376,-7072302 -278373,-7072301 -278370,-7072299 -278367,-7072298 -278364,-7072297 -278361,-7072296 -278358,-7072295 -278355,-7072295 -278350,-7072294 -278343,-7072292 -278337,-7072291 -278335,-7072291 -278333,-7072291 -278331,-7072291 -278329,-7072291 -278327,-7072291 -278326,-7072291 -278307,-7072297 -278291,-7072302 -278287,-7072304 -278284,-7072306 -278281,-7072308 -278279,-7072310 -278275,-7072312 -278272,-7072315 -278269,-7072318 -278266,-7072320 -278264,-7072322 -278258,-7072327 -278252,-7072332 -278252,-7072332 -278248,-7072334 -278245,-7072336 -278242,-7072338 -278239,-7072339 -278234,-7072342 -278228,-7072344 -278223,-7072347 -278217,-7072349 -278212,-7072351 -278209,-7072352 -278201,-7072355 -278193,-7072358 -278184,-7072360 -278176,-7072362 -278168,-7072365 -278164,-7072366 -278146,-7072371 -278121,-7072377 -278117,-7072378 -278092,-7072384 -278084,-7072386 -278076,-7072388 -278068,-7072391 -278060,-7072394 -278043,-7072400 -278038,-7072402 -277993,-7072420 -277971,-7072429 -277890,-7072457 -277880,-7072444 -277879,-7072443 -277875,-7072439 -277872,-7072436 -277869,-7072433 -277866,-7072430 -277859,-7072425 -277852,-7072418 -277845,-7072412 -277837,-7072406 -277829,-7072401 -277821,-7072395 -277813,-7072390 -277812,-7072389 -277805,-7072386 -277799,-7072382 -277792,-7072379 -277785,-7072376 -277779,-7072373 -277772,-7072370 -277765,-7072367 -277758,-7072365 -277751,-7072362 -277749,-7072361 -277715,-7072347 -277695,-7072338 -277686,-7072333 -277676,-7072327 -277667,-7072322 -277659,-7072316 -277650,-7072310 -277641,-7072304 -277638,-7072302" stroke="#003087" stroke-width="59" /></ns0:svg>    <rect x="20" y="50"  width="250" height="25"  rx="0"  fill="#003087" fill-opacity="0.8" />    <text x="145" y="70" text-anchor="middle" font-family="Frutiger" font-weight="bold" font-size="30" fill="white">Warrington</text>    <rect x="35" y="195" width="220" height="160" rx="15" fill="#41B6E6"/>    <g font-family="Frutiger" font-size="15" fill="white">        <g> <text x="45" y="218">Self-harm</text> <text x="245" y="218" text-anchor="end">74</text> </g>        <g> <text x="45" y="243">SEN</text> <text x="245" y="243" text-anchor="end">25</text> </g>        <g> <text x="45" y="268">Difficulties</text> <text x="245" y="268" text-anchor="end">69</text> </g>        <g> <text x="45" y="293">Child Carer</text> <text x="245" y="293" text-anchor="end">2</text> </g>        <g> <text x="45" y="318">Drinkers</text> <text x="245" y="318" text-anchor="end">53</text> </g>        <g> <text x="45" y="343">Safeguarding </text> <text x="245" y="343" text-anchor="end">20</text> </g>    </g></svg>