<?xml version="1.0" standalone="no"?>
<!DOCTYPE svg PUBLIC "-//W3C//DTD SVG 1.1//EN"
"http://www.w3.org/Graphics/SVG/1.1/DTD/svg11.dtd">
<svg height="1800" version="1.1" width="1800" xmlns="http://www.w3.org/2000/svg"><defs><style type="text/css">@font-face {font-family: 'Frutiger';font-style: normal;font-weight: normal;src: local('Frutiger'), url('../fonts/Frutiger.woff') format('woff');}@font-face {font-family: 'Frutiger Bold';font-style: normal;font-weight: normal;src: local('Frutiger Bold'), url('../fonts/Frutiger_bold.woff') format('woff');}        </style>    </defs>    <rect x="20" y="20"  width="250" height="350" rx="15" fill="#009639" />    <rect x="35" y="35"  width="220" height="145" rx="15" fill="#E8EDEE" /><ns0:svg xmlns:ns0="http://www.w3.org/2000/svg" height="115" version="1.1" viewBox="-135362 -6926140 18900 20334" width="220" x="35" y="50"><ns0:polygon fill="#006747" points=" -128824,-6926140 -128770,-6926089 -128797,-6926052 -128749,-6926011 -128626,-6925914 -128531,-6925837 -128548,-6925816 -128579,-6925790 -128494,-6925801 -128489,-6925798 -128442,-6925759 -128385,-6925708 -128361,-6925688 -128354,-6925681 -128338,-6925664 -128281,-6925574 -128204,-6925631 -128163,-6925658 -128159,-6925645 -128154,-6925632 -128142,-6925586 -128094,-6925635 -127884,-6925828 -127850,-6925863 -127816,-6925896 -127741,-6925982 -127724,-6925961 -127687,-6925905 -127650,-6925857 -127636,-6925844 -127588,-6925783 -127580,-6925781 -127576,-6925777 -127573,-6925772 -127575,-6925758 -127517,-6925681 -127492,-6925646 -127447,-6925597 -127422,-6925576 -127395,-6925535 -127355,-6925470 -127267,-6925338 -127163,-6925168 -127081,-6925015 -127008,-6924868 -126990,-6924830 -126958,-6924781 -126815,-6924524 -126755,-6924408 -126757,-6924393 -126759,-6924380 -126708,-6924280 -126656,-6924189 -126620,-6924124 -126600,-6924133 -126535,-6924009 -126546,-6924002 -126562,-6923993 -126563,-6923986 -126581,-6923693 -126585,-6923635 -126598,-6923548 -126603,-6923519 -126655,-6923273 -126649,-6923176 -126649,-6923173 -126399,-6923183 -126398,-6923173 -126381,-6922927 -126373,-6922820 -126373,-6922816 -126369,-6922779 -126310,-6922784 -126249,-6922787 -126247,-6922768 -126128,-6922768 -126123,-6922705 -126122,-6922626 -126123,-6922547 -126122,-6922430 -126126,-6922351 -126122,-6922327 -126122,-6922218 -126122,-6922145 -126095,-6922141 -126069,-6922137 -126023,-6922124 -125775,-6922101 -125779,-6922045 -125719,-6922032 -125726,-6921968 -125731,-6921835 -125725,-6921658 -125725,-6921578 -125715,-6921406 -125704,-6921342 -125689,-6921342 -125628,-6921336 -125596,-6921291 -125553,-6921342 -125544,-6921355 -125535,-6921365 -125517,-6921380 -125502,-6921397 -125498,-6921406 -125469,-6921496 -125423,-6921598 -125368,-6921684 -125334,-6921724 -125298,-6921762 -125249,-6921800 -125130,-6921877 -124993,-6921967 -124934,-6922018 -124875,-6922067 -124835,-6922113 -124810,-6922151 -124792,-6922184 -124772,-6922226 -124765,-6922261 -124761,-6922299 -124767,-6922353 -124778,-6922442 -124787,-6922507 -124790,-6922523 -124699,-6922535 -124652,-6922519 -124617,-6922686 -124595,-6922684 -124593,-6922701 -124542,-6922696 -124542,-6922697 -124543,-6922733 -124545,-6922768 -124545,-6922773 -124462,-6922762 -124371,-6922754 -124337,-6922739 -124315,-6922737 -124273,-6922724 -124237,-6922717 -124223,-6922716 -124216,-6922724 -124190,-6922723 -124154,-6922719 -124115,-6922700 -124082,-6922685 -124020,-6922658 -123935,-6922616 -123807,-6922546 -123632,-6922478 -123578,-6922456 -123526,-6922571 -123469,-6922702 -123409,-6922662 -123342,-6922633 -123204,-6922559 -123085,-6922490 -123062,-6922471 -123034,-6922530 -122959,-6922497 -122726,-6922404 -122691,-6922393 -122549,-6922337 -122490,-6922311 -122380,-6922265 -122208,-6922203 -122201,-6922200 -122166,-6922189 -122128,-6922179 -121964,-6922127 -121911,-6922107 -121548,-6921979 -121495,-6921956 -121429,-6921929 -121399,-6921920 -121355,-6922021 -121261,-6922240 -121227,-6922192 -121209,-6922162 -121198,-6922140 -121126,-6922171 -121092,-6922145 -121090,-6922145 -120930,-6922100 -120934,-6922086 -120863,-6922049 -120853,-6922070 -120547,-6922071 -120467,-6922066 -120464,-6922086 -120377,-6922076 -120298,-6922067 -120162,-6922064 -120151,-6922080 -120108,-6922085 -120094,-6922088 -120058,-6922098 -120034,-6922102 -119993,-6922101 -119867,-6922104 -119737,-6922115 -119677,-6922119 -119669,-6922060 -119667,-6922010 -119667,-6921996 -119669,-6921946 -119666,-6921864 -119660,-6921819 -119640,-6921816 -119620,-6921813 -119562,-6921791 -119519,-6921777 -119480,-6921767 -119446,-6921757 -119419,-6921752 -119391,-6921755 -119362,-6921733 -119331,-6921721 -119324,-6921722 -119300,-6921705 -119277,-6921710 -119263,-6921711 -119241,-6921717 -119234,-6921711 -119224,-6921706 -119212,-6921714 -119205,-6921719 -119195,-6921723 -119184,-6921722 -119157,-6921716 -119153,-6921713 -119150,-6921710 -119146,-6921704 -119139,-6921697 -119132,-6921689 -119127,-6921686 -119121,-6921682 -119101,-6921678 -119084,-6921665 -119080,-6921672 -119080,-6921683 -119080,-6921686 -119074,-6921695 -119059,-6921708 -119045,-6921703 -119041,-6921704 -119038,-6921703 -119036,-6921701 -119035,-6921697 -119036,-6921694 -119041,-6921690 -119046,-6921680 -119042,-6921665 -119021,-6921665 -119002,-6921660 -118991,-6921658 -118984,-6921652 -118982,-6921647 -118978,-6921625 -118976,-6921623 -118972,-6921620 -118967,-6921619 -118961,-6921620 -118947,-6921623 -118944,-6921623 -118941,-6921622 -118938,-6921619 -118936,-6921617 -118934,-6921608 -118930,-6921605 -118925,-6921605 -118918,-6921610 -118916,-6921610 -118901,-6921608 -118885,-6921614 -118874,-6921612 -118872,-6921606 -118870,-6921600 -118870,-6921594 -118857,-6921586 -118846,-6921574 -118845,-6921560 -118843,-6921547 -118847,-6921535 -118847,-6921531 -118846,-6921526 -118843,-6921520 -118838,-6921516 -118834,-6921514 -118809,-6921510 -118785,-6921484 -118776,-6921473 -118777,-6921460 -118770,-6921445 -118764,-6921440 -118764,-6921440 -118749,-6921427 -118739,-6921415 -118735,-6921408 -118707,-6921401 -118640,-6921349 -118611,-6921329 -118586,-6921310 -118555,-6921289 -118548,-6921283 -118504,-6921236 -118494,-6921221 -118494,-6921221 -118475,-6921183 -118445,-6921154 -118392,-6921130 -118356,-6921114 -118342,-6921107 -118321,-6921096 -118289,-6921075 -118272,-6921073 -118255,-6921064 -118242,-6921060 -118185,-6921051 -118134,-6921047 -118077,-6921033 -118067,-6921028 -118055,-6921039 -118035,-6921037 -118029,-6921038 -118014,-6921041 -118003,-6921031 -117996,-6921036 -117993,-6921040 -117988,-6921052 -117972,-6921060 -117969,-6921049 -117971,-6921034 -117969,-6921022 -117969,-6921019 -117961,-6921009 -117955,-6921007 -117950,-6921006 -117946,-6921007 -117941,-6921009 -117926,-6921021 -117908,-6921008 -117897,-6921010 -117891,-6921014 -117890,-6921017 -117889,-6921023 -117885,-6921035 -117875,-6921037 -117876,-6921029 -117874,-6921023 -117872,-6921021 -117861,-6921014 -117859,-6920997 -117857,-6920994 -117854,-6920992 -117851,-6920991 -117848,-6920993 -117846,-6920995 -117844,-6920999 -117836,-6921009 -117828,-6921007 -117825,-6921008 -117821,-6921009 -117818,-6921012 -117817,-6921015 -117815,-6921031 -117813,-6921034 -117810,-6921034 -117808,-6921033 -117806,-6921032 -117802,-6921016 -117791,-6921022 -117783,-6921023 -117772,-6921023 -117762,-6921044 -117749,-6921052 -117739,-6921067 -117735,-6921072 -117731,-6921073 -117728,-6921070 -117727,-6921068 -117727,-6921063 -117726,-6921050 -117722,-6921046 -117716,-6921043 -117713,-6921042 -117709,-6921043 -117705,-6921045 -117698,-6921053 -117693,-6921053 -117684,-6921051 -117677,-6921048 -117666,-6921042 -117649,-6921058 -117643,-6921060 -117638,-6921058 -117636,-6921056 -117634,-6921051 -117642,-6921009 -117649,-6921009 -117679,-6920901 -117703,-6920806 -117717,-6920760 -117698,-6920745 -117703,-6920721 -117725,-6920635 -117746,-6920564 -117759,-6920488 -117770,-6920412 -117770,-6920372 -117768,-6920337 -117768,-6920310 -117771,-6920286 -117776,-6920268 -117778,-6920253 -117783,-6920234 -117787,-6920224 -117794,-6920211 -117801,-6920188 -117811,-6920167 -117815,-6920155 -117822,-6920129 -117846,-6920130 -117890,-6919886 -117900,-6919848 -117907,-6919797 -117884,-6919790 -117870,-6919772 -117881,-6919697 -117642,-6919629 -117315,-6919556 -117022,-6919484 -116814,-6919445 -116770,-6919437 -116756,-6919442 -116748,-6919439 -116731,-6919434 -116740,-6919399 -116743,-6919370 -116749,-6919329 -116748,-6919309 -116740,-6919231 -116739,-6919179 -116756,-6919175 -116734,-6919024 -116725,-6918991 -116702,-6918944 -116692,-6918925 -116689,-6918917 -116687,-6918908 -116684,-6918893 -116682,-6918875 -116682,-6918830 -116682,-6918611 -116677,-6918494 -116680,-6918407 -116679,-6918394 -116670,-6918277 -116664,-6918185 -116753,-6918180 -116767,-6918186 -116789,-6918193 -116842,-6918198 -116956,-6918176 -116998,-6918170 -117038,-6917871 -117057,-6917713 -117081,-6917533 -117071,-6917528 -117066,-6917438 -117085,-6917425 -116989,-6917421 -116993,-6917406 -116996,-6917392 -117019,-6917322 -117031,-6917276 -116939,-6917264 -116915,-6917262 -116914,-6917268 -116901,-6917315 -116794,-6917307 -116826,-6917171 -116828,-6917163 -116730,-6917143 -116645,-6917124 -116599,-6917115 -116621,-6916492 -116622,-6916487 -116623,-6916441 -116624,-6916344 -116564,-6916342 -116462,-6916331 -116466,-6916282 -116500,-6916254 -116530,-6916234 -116573,-6916223 -116594,-6916216 -116615,-6916203 -116648,-6916194 -116667,-6916189 -116661,-6916104 -116664,-6915962 -116678,-6915832 -116575,-6915820 -116526,-6915809 -116547,-6915696 -116778,-6915682 -116854,-6915682 -116899,-6915680 -116968,-6915682 -117055,-6915679 -117101,-6915673 -117131,-6915672 -117155,-6915670 -117233,-6915672 -117229,-6915566 -117234,-6915427 -117284,-6915424 -117291,-6915423 -117312,-6915397 -117333,-6915382 -117372,-6915367 -117412,-6915353 -117454,-6915349 -117476,-6915355 -117484,-6915341 -117557,-6915327 -117559,-6915270 -117573,-6915270 -117573,-6915251 -117571,-6915209 -117568,-6915102 -117565,-6915079 -117563,-6915047 -117556,-6915006 -117548,-6914965 -117539,-6914934 -117529,-6914920 -117519,-6914906 -117545,-6914897 -117553,-6914889 -117555,-6914879 -117550,-6914870 -117552,-6914849 -117549,-6914836 -117536,-6914826 -117570,-6914764 -117562,-6914735 -117571,-6914717 -117557,-6914667 -117540,-6914636 -117533,-6914625 -117527,-6914598 -117520,-6914583 -117510,-6914571 -117484,-6914547 -117469,-6914538 -117455,-6914549 -117437,-6914541 -117413,-6914535 -117411,-6914519 -117405,-6914513 -117394,-6914504 -117382,-6914495 -117374,-6914490 -117362,-6914485 -117344,-6914465 -117340,-6914463 -117337,-6914462 -117327,-6914461 -117323,-6914459 -117316,-6914444 -117313,-6914436 -117310,-6914433 -117307,-6914430 -117303,-6914429 -117297,-6914429 -117292,-6914424 -117301,-6914404 -117300,-6914398 -117297,-6914394 -117291,-6914393 -117286,-6914395 -117273,-6914408 -117256,-6914406 -117253,-6914404 -117251,-6914402 -117249,-6914396 -117249,-6914393 -117256,-6914377 -117269,-6914357 -117279,-6914333 -117325,-6914234 -117349,-6914167 -117368,-6914117 -117371,-6914067 -117379,-6914052 -117410,-6914031 -117429,-6913992 -117441,-6913954 -117469,-6913902 -117526,-6913927 -117543,-6913900 -117581,-6913847 -117696,-6913684 -117718,-6913671 -117750,-6913695 -117758,-6913696 -117764,-6913696 -117777,-6913692 -117782,-6913689 -117849,-6913576 -117904,-6913486 -117910,-6913467 -117937,-6913401 -117961,-6913411 -117992,-6913347 -118013,-6913298 -118032,-6913279 -118076,-6913255 -118095,-6913233 -118134,-6913193 -118183,-6913141 -118236,-6913083 -118285,-6913030 -118330,-6912989 -118349,-6912972 -118363,-6912949 -118386,-6912900 -118389,-6912899 -118396,-6912899 -118403,-6912901 -118411,-6912905 -118464,-6912950 -118468,-6912955 -118472,-6912958 -118478,-6912960 -118484,-6912961 -118492,-6912959 -118523,-6912933 -118529,-6912930 -118564,-6912914 -118601,-6912910 -118627,-6912905 -118700,-6912937 -118706,-6912936 -118789,-6912905 -118818,-6912893 -118826,-6912889 -118847,-6912878 -118876,-6912861 -118892,-6912851 -118932,-6912822 -119010,-6912775 -119016,-6912772 -119031,-6912768 -119036,-6912766 -119041,-6912762 -119060,-6912733 -119096,-6912711 -119119,-6912692 -119166,-6912660 -119231,-6912607 -119234,-6912592 -119255,-6912575 -119283,-6912558 -119294,-6912506 -119323,-6912387 -119335,-6912346 -119354,-6912310 -119398,-6912230 -119429,-6912168 -119441,-6912122 -119455,-6912065 -119470,-6912024 -119593,-6911812 -119595,-6911813 -119660,-6911854 -119757,-6911907 -119798,-6911928 -119893,-6911977 -119925,-6911987 -119954,-6911992 -120016,-6911995 -120069,-6911998 -120161,-6912009 -120208,-6912020 -120242,-6912035 -120307,-6912060 -120352,-6912067 -120411,-6912074 -120494,-6912086 -120466,-6912228 -120642,-6912262 -120671,-6912267 -120665,-6912175 -120660,-6912109 -120681,-6912110 -120727,-6912112 -120795,-6912112 -120809,-6912110 -120871,-6912104 -120918,-6912102 -121077,-6912142 -121220,-6912186 -121333,-6912215 -121542,-6912280 -121698,-6912312 -121749,-6912327 -121815,-6912343 -121903,-6912357 -121949,-6912362 -122005,-6912364 -122074,-6912371 -122076,-6912351 -122077,-6912342 -122120,-6911925 -122128,-6911868 -122131,-6911855 -122134,-6911852 -122138,-6911833 -122157,-6911835 -122159,-6911801 -122176,-6911716 -122181,-6911706 -122187,-6911682 -122215,-6911572 -122236,-6911486 -122262,-6911382 -122262,-6911381 -122164,-6911344 -122096,-6911319 -122031,-6911297 -122008,-6911293 -122009,-6911289 -122010,-6911285 -121991,-6911283 -121943,-6911279 -121900,-6911271 -121906,-6911254 -121874,-6911243 -121877,-6911230 -121800,-6911228 -121799,-6911232 -121798,-6911243 -121714,-6911234 -121740,-6911071 -121760,-6910948 -121738,-6910941 -121777,-6910890 -121823,-6910837 -121874,-6910780 -121882,-6910771 -121913,-6910729 -121935,-6910703 -121966,-6910659 -121984,-6910629 -122014,-6910595 -122023,-6910583 -122037,-6910569 -122094,-6910521 -122099,-6910510 -122114,-6910498 -122137,-6910418 -122166,-6910346 -122182,-6910308 -122192,-6910262 -122201,-6910234 -122199,-6910217 -122223,-6910228 -122229,-6910224 -122242,-6910218 -122244,-6910212 -122255,-6910161 -122290,-6910070 -122297,-6910037 -122305,-6910010 -122320,-6909946 -122445,-6909988 -122474,-6909797 -122632,-6909759 -122633,-6909692 -122631,-6909661 -122632,-6909617 -122635,-6909587 -122647,-6909505 -122649,-6909487 -122651,-6909457 -122653,-6909399 -122665,-6909222 -122761,-6909118 -122796,-6909075 -122885,-6908980 -122904,-6908921 -122984,-6908687 -122857,-6908599 -123099,-6908565 -123220,-6908545 -123250,-6908545 -123279,-6908552 -123333,-6908603 -123363,-6908630 -123395,-6908663 -123429,-6908684 -123463,-6908692 -123502,-6908686 -123533,-6908804 -123548,-6908865 -123584,-6908860 -123603,-6908858 -123631,-6908852 -123683,-6908844 -123743,-6908830 -123764,-6908824 -123815,-6908804 -123841,-6908797 -123867,-6908790 -123885,-6908790 -123961,-6908783 -123961,-6908790 -123961,-6908793 -124019,-6908793 -124019,-6908784 -124021,-6908778 -124071,-6908776 -124143,-6908778 -124190,-6908778 -124196,-6908778 -124266,-6908778 -124321,-6908785 -124429,-6908800 -124448,-6908801 -124614,-6908870 -124696,-6908898 -124710,-6908843 -124711,-6908831 -124711,-6908824 -124709,-6908811 -124709,-6908804 -124710,-6908797 -124714,-6908775 -124719,-6908753 -124726,-6908744 -124740,-6908653 -124726,-6908650 -124729,-6908641 -124754,-6908554 -124765,-6908528 -124892,-6908583 -124903,-6908567 -125020,-6908574 -125110,-6908572 -125178,-6908574 -125185,-6908574 -125370,-6908558 -125398,-6908556 -125434,-6908550 -125409,-6908386 -125400,-6908302 -125392,-6908218 -125388,-6908072 -125394,-6908051 -125394,-6908030 -125400,-6907934 -125405,-6907871 -125409,-6907811 -125413,-6907709 -125462,-6907736 -125516,-6907758 -125540,-6907766 -125570,-6907697 -125574,-6907699 -125644,-6907735 -125676,-6907758 -125696,-6907770 -125717,-6907781 -125754,-6907796 -125818,-6907655 -125857,-6907568 -125876,-6907528 -125885,-6907509 -126014,-6907500 -126046,-6907496 -126110,-6907485 -126151,-6907481 -126238,-6907461 -126388,-6907430 -126439,-6907415 -126453,-6907412 -126466,-6907410 -126488,-6907409 -126501,-6907413 -126525,-6907410 -126556,-6907403 -126571,-6907403 -126586,-6907403 -126644,-6907407 -126704,-6907418 -126728,-6907424 -126826,-6907464 -126905,-6907495 -126937,-6907504 -126988,-6907512 -127015,-6907515 -127045,-6907516 -127047,-6907473 -127042,-6907407 -126999,-6907093 -127041,-6907113 -127082,-6907120 -127108,-6907122 -127126,-6907118 -127126,-6907132 -127188,-6907141 -127307,-6907154 -127488,-6907170 -127570,-6907174 -127579,-6907122 -127585,-6907039 -127585,-6907008 -127587,-6906981 -127590,-6906949 -127599,-6906907 -127604,-6906892 -127615,-6906866 -127637,-6906823 -127665,-6906764 -127694,-6906708 -127714,-6906677 -127725,-6906655 -127726,-6906645 -127728,-6906574 -127736,-6906533 -127743,-6906512 -127750,-6906490 -127771,-6906437 -127832,-6906303 -127894,-6906153 -127919,-6906083 -127931,-6906038 -127943,-6905992 -127948,-6905934 -127961,-6905871 -128317,-6905813 -128362,-6905806 -128470,-6905835 -128548,-6905854 -128575,-6905863 -128643,-6905891 -128789,-6905931 -128940,-6905968 -129055,-6905989 -129052,-6906023 -129037,-6906065 -129008,-6906171 -129099,-6906230 -129148,-6906154 -129176,-6906128 -129200,-6906117 -129235,-6906147 -129208,-6906193 -129234,-6906216 -129236,-6906220 -129237,-6906225 -129243,-6906286 -129234,-6906369 -129219,-6906423 -129204,-6906475 -129117,-6906459 -129025,-6906448 -128944,-6906439 -128931,-6906450 -128908,-6906738 -128859,-6906748 -128677,-6906782 -128660,-6906804 -128653,-6906848 -128641,-6906994 -128710,-6906995 -128739,-6906997 -128790,-6907009 -128813,-6907265 -128873,-6907277 -128998,-6907315 -129006,-6907334 -129003,-6907339 -128954,-6907432 -128935,-6907457 -128937,-6907463 -128931,-6907503 -128910,-6907581 -128895,-6907666 -129006,-6907690 -129000,-6907726 -129046,-6907742 -129049,-6907743 -129056,-6907745 -129083,-6907754 -129080,-6907830 -129111,-6907833 -129229,-6907840 -129229,-6907845 -129220,-6907937 -129225,-6907938 -129395,-6907954 -129432,-6907955 -129490,-6907964 -129539,-6907970 -129583,-6907973 -129699,-6907985 -130072,-6908022 -130112,-6907906 -130153,-6907807 -130221,-6907822 -130266,-6907839 -130326,-6907856 -130367,-6907858 -130438,-6907854 -130461,-6907852 -130480,-6907850 -130481,-6907866 -130482,-6907887 -130482,-6907888 -130479,-6907931 -130480,-6907946 -130485,-6907966 -130506,-6908005 -130510,-6908021 -130511,-6908032 -130517,-6908037 -130523,-6908042 -130533,-6908045 -130547,-6908043 -130561,-6908028 -130566,-6908023 -130589,-6908010 -130604,-6908012 -130642,-6908027 -130662,-6908022 -130678,-6908022 -130693,-6908027 -130706,-6908038 -130714,-6908052 -130714,-6908080 -130713,-6908093 -130712,-6908105 -130708,-6908113 -130695,-6908135 -130693,-6908162 -130696,-6908185 -130694,-6908194 -130692,-6908197 -130678,-6908204 -130673,-6908203 -130658,-6908198 -130654,-6908197 -130629,-6908192 -130622,-6908190 -130609,-6908182 -130578,-6908157 -130570,-6908152 -130505,-6908144 -130456,-6908151 -130451,-6908150 -130431,-6908144 -130424,-6908143 -130405,-6908145 -130398,-6908146 -130388,-6908149 -130383,-6908152 -130379,-6908157 -130366,-6908177 -130353,-6908189 -130343,-6908209 -130330,-6908216 -130318,-6908227 -130288,-6908232 -130283,-6908241 -130283,-6908254 -130285,-6908262 -130290,-6908281 -130300,-6908308 -130315,-6908344 -130334,-6908373 -130339,-6908383 -130339,-6908403 -130335,-6908415 -130296,-6908449 -130292,-6908466 -130282,-6908506 -130275,-6908528 -130258,-6908576 -130254,-6908590 -130253,-6908598 -130254,-6908614 -130259,-6908632 -130274,-6908660 -130278,-6908678 -130277,-6908693 -130278,-6908702 -130280,-6908708 -130283,-6908716 -130285,-6908719 -130365,-6908720 -130379,-6908724 -130403,-6908732 -130415,-6908737 -130443,-6908753 -130460,-6908762 -130469,-6908769 -130484,-6908784 -130536,-6908824 -130538,-6908831 -130537,-6908844 -130537,-6908855 -130532,-6908867 -130526,-6908878 -130524,-6908885 -130521,-6908910 -130518,-6908921 -130506,-6908942 -130490,-6908965 -130486,-6908974 -130459,-6909047 -130429,-6909095 -130423,-6909104 -130416,-6909110 -130411,-6909114 -130408,-6909115 -130394,-6909098 -130359,-6909085 -130352,-6909078 -130341,-6909071 -130327,-6909066 -130299,-6909062 -130254,-6909045 -130253,-6909046 -130237,-6909071 -130195,-6909148 -130177,-6909175 -130168,-6909192 -130146,-6909242 -130127,-6909278 -130124,-6909285 -130120,-6909300 -130107,-6909334 -130084,-6909369 -130081,-6909378 -130077,-6909394 -130064,-6909438 -130049,-6909509 -130042,-6909543 -130022,-6909602 -130019,-6909610 -130017,-6909616 -130012,-6909622 -130008,-6909625 -130001,-6909628 -129975,-6909633 -129964,-6909637 -129951,-6909647 -129914,-6909675 -129885,-6909698 -129870,-6909706 -129857,-6909711 -129839,-6909721 -129809,-6909750 -129801,-6909762 -129800,-6909766 -129792,-6909798 -129786,-6909830 -129781,-6909844 -129777,-6909851 -129768,-6909864 -129727,-6909904 -129728,-6909907 -129741,-6909930 -129785,-6909978 -129900,-6910064 -130015,-6910159 -130070,-6910200 -130226,-6910310 -130241,-6910324 -130251,-6910331 -130271,-6910341 -130360,-6910415 -130266,-6910513 -130082,-6910715 -129952,-6910863 -129919,-6910880 -129907,-6910889 -129888,-6910899 -129803,-6910950 -129677,-6911017 -129668,-6911024 -129662,-6911030 -129648,-6911052 -129581,-6911081 -129597,-6911112 -129611,-6911128 -129632,-6911148 -129661,-6911182 -129684,-6911214 -129712,-6911272 -129726,-6911307 -129786,-6911492 -129764,-6911499 -129766,-6911514 -129771,-6911524 -129776,-6911537 -129781,-6911585 -129783,-6911622 -129780,-6911677 -129776,-6911693 -129772,-6911707 -129764,-6911723 -129749,-6911746 -129787,-6911782 -129802,-6911768 -129811,-6911762 -129816,-6911760 -129824,-6911759 -129829,-6911759 -129839,-6911762 -129874,-6911785 -129983,-6911939 -129992,-6911948 -129994,-6911950 -130011,-6911964 -130052,-6911993 -130212,-6912093 -130260,-6912121 -130339,-6912170 -130455,-6912228 -130473,-6912242 -130496,-6912262 -130530,-6912300 -130540,-6912312 -130550,-6912326 -130562,-6912347 -130575,-6912371 -130585,-6912395 -130644,-6912509 -130707,-6912600 -130723,-6912615 -130767,-6912637 -130782,-6912643 -130838,-6912654 -130923,-6912658 -130973,-6912661 -131088,-6912665 -131103,-6912661 -131112,-6912661 -131119,-6912662 -131151,-6912676 -131199,-6912705 -131291,-6912769 -131423,-6912857 -131434,-6912864 -131467,-6912884 -131495,-6912895 -131567,-6912929 -131571,-6912932 -131604,-6912957 -131617,-6912969 -131635,-6912987 -131663,-6913021 -131679,-6913037 -131705,-6913059 -131740,-6913087 -131767,-6913100 -131784,-6913112 -131791,-6913116 -131809,-6913123 -131847,-6913134 -131859,-6913140 -131868,-6913146 -131884,-6913160 -131898,-6913178 -131920,-6913225 -131946,-6913261 -131984,-6913301 -131994,-6913313 -132006,-6913324 -132024,-6913336 -132032,-6913336 -132047,-6913334 -132062,-6913330 -132069,-6913327 -132096,-6913311 -132130,-6913304 -132145,-6913306 -132155,-6913310 -132164,-6913315 -132170,-6913320 -132173,-6913322 -132202,-6913376 -132247,-6913484 -132259,-6913502 -132274,-6913518 -132332,-6913559 -132354,-6913574 -132421,-6913616 -132519,-6913682 -132686,-6913783 -132882,-6913905 -132891,-6913910 -132994,-6913970 -133149,-6914058 -133308,-6914134 -133312,-6914136 -133382,-6914164 -133430,-6914183 -133546,-6914224 -133599,-6914239 -133641,-6914270 -133636,-6914308 -133628,-6914341 -133652,-6914354 -133721,-6914359 -133734,-6914362 -133768,-6914370 -133863,-6914431 -133959,-6914497 -134018,-6914543 -134084,-6914591 -134148,-6914612 -134184,-6914631 -134191,-6914642 -134226,-6914692 -134285,-6914744 -134349,-6914805 -134359,-6914800 -134383,-6914818 -134462,-6914878 -134480,-6914892 -134557,-6914955 -134592,-6914970 -134649,-6914976 -134707,-6914982 -134757,-6915005 -134813,-6915042 -134866,-6915095 -134924,-6915141 -134943,-6915162 -134987,-6915211 -135081,-6915300 -135130,-6915340 -135154,-6915364 -135205,-6915416 -135237,-6915460 -135266,-6915511 -135260,-6915519 -135288,-6915580 -135321,-6915631 -135362,-6915680 -135327,-6915708 -135309,-6915726 -135241,-6915783 -135177,-6915848 -135093,-6915919 -135070,-6915944 -135039,-6915977 -135063,-6915996 -135115,-6916042 -135144,-6916074 -135157,-6916089 -135180,-6916121 -135174,-6916127 -135144,-6916157 -135048,-6916261 -135007,-6916310 -134951,-6916371 -134911,-6916425 -134898,-6916444 -134852,-6916535 -134826,-6916579 -134809,-6916578 -134764,-6916707 -134759,-6916723 -134741,-6916756 -134722,-6916781 -134712,-6916832 -134667,-6916994 -134624,-6917031 -134585,-6917067 -134472,-6917084 -134390,-6917158 -134239,-6917173 -134129,-6917105 -134076,-6917069 -134014,-6917016 -133912,-6916934 -133887,-6916934 -133768,-6916904 -133751,-6916891 -133704,-6916842 -133702,-6916801 -133696,-6916755 -133697,-6916695 -133701,-6916687 -133701,-6916659 -133683,-6916654 -133640,-6916667 -133627,-6916673 -133614,-6916680 -133588,-6916694 -133549,-6916712 -133540,-6916731 -133522,-6916734 -133489,-6916728 -133455,-6916737 -133453,-6916800 -133448,-6916885 -133449,-6916952 -133447,-6916953 -133432,-6916963 -133402,-6916977 -133368,-6917001 -133263,-6916941 -133223,-6916922 -133131,-6916902 -133137,-6916882 -133027,-6916856 -132864,-6916825 -132828,-6916817 -132810,-6916813 -132744,-6916796 -132737,-6916802 -132716,-6916793 -132648,-6916784 -132618,-6916773 -132543,-6916755 -132514,-6916869 -132505,-6916917 -132467,-6917051 -132459,-6917081 -132448,-6917112 -132436,-6917143 -132394,-6917240 -132352,-6917332 -132346,-6917344 -132309,-6917428 -132264,-6917510 -132253,-6917532 -132210,-6917596 -132171,-6917657 -132135,-6917708 -132140,-6917721 -132159,-6917762 -132189,-6917850 -132190,-6917889 -132200,-6917995 -132193,-6917998 -132148,-6918014 -132144,-6918019 -132113,-6918052 -131868,-6918366 -131809,-6918441 -131774,-6918636 -131749,-6918780 -131681,-6919071 -131868,-6919132 -131860,-6919162 -131850,-6919207 -131853,-6919327 -131851,-6919436 -131853,-6919487 -131849,-6919560 -131828,-6919742 -131817,-6919860 -131816,-6919904 -131821,-6919962 -131837,-6920039 -131843,-6920137 -131850,-6920201 -131862,-6920269 -131881,-6920320 -131896,-6920355 -131910,-6920382 -131924,-6920415 -131930,-6920453 -131945,-6920471 -131950,-6920476 -131950,-6920482 -131867,-6920555 -131800,-6920596 -131758,-6920619 -131683,-6920666 -131572,-6920738 -131510,-6920774 -131455,-6920798 -131395,-6920833 -131310,-6920890 -131221,-6920953 -131134,-6921018 -131029,-6921101 -130992,-6921143 -131037,-6921206 -131063,-6921268 -131072,-6921293 -131080,-6921314 -131075,-6921316 -131034,-6921332 -131034,-6921336 -131032,-6921454 -131038,-6921485 -131050,-6921632 -131064,-6921661 -131066,-6921704 -131078,-6921752 -131132,-6921850 -131179,-6921920 -131203,-6921965 -131226,-6921986 -131247,-6922023 -131263,-6922027 -131320,-6922040 -131382,-6922071 -131355,-6922122 -131328,-6922163 -131286,-6922229 -131272,-6922252 -131262,-6922272 -131254,-6922286 -131129,-6922460 -131129,-6922479 -131144,-6922530 -131147,-6922581 -131153,-6922602 -131158,-6922614 -131172,-6922635 -131197,-6922680 -131219,-6922708 -131225,-6922717 -131230,-6922726 -131232,-6922733 -131237,-6922754 -131239,-6922768 -131239,-6922777 -131239,-6922781 -131234,-6922801 -131203,-6922853 -131177,-6922878 -131127,-6922929 -131122,-6922936 -131122,-6922938 -131121,-6922941 -131121,-6922948 -131150,-6923027 -131137,-6923098 -131134,-6923122 -131133,-6923144 -131132,-6923178 -131153,-6923174 -131186,-6923176 -131178,-6923229 -131208,-6923248 -131213,-6923252 -131223,-6923261 -131232,-6923271 -131243,-6923287 -131251,-6923310 -131255,-6923330 -131256,-6923340 -131256,-6923354 -131255,-6923363 -131229,-6923399 -131225,-6923404 -131209,-6923412 -131184,-6923433 -131155,-6923443 -131150,-6923455 -131148,-6923466 -131141,-6923482 -131137,-6923502 -131138,-6923523 -131141,-6923548 -131149,-6923572 -131137,-6923582 -131129,-6923589 -131118,-6923599 -131116,-6923605 -131127,-6923616 -131140,-6923630 -131148,-6923639 -131146,-6923654 -131141,-6923663 -131132,-6923677 -131098,-6923700 -131069,-6923715 -131046,-6923733 -131018,-6923749 -130998,-6923753 -130981,-6923752 -130963,-6923748 -130948,-6923745 -130922,-6923743 -130903,-6923738 -130882,-6923719 -130875,-6923722 -130875,-6923728 -130876,-6923742 -130869,-6923748 -130855,-6923750 -130849,-6923748 -130842,-6923745 -130837,-6923741 -130829,-6923730 -130823,-6923725 -130819,-6923721 -130814,-6923719 -130806,-6923717 -130790,-6923720 -130769,-6923728 -130763,-6923732 -130739,-6923748 -130720,-6923763 -130708,-6923775 -130704,-6923806 -130699,-6923836 -130705,-6923854 -130714,-6923864 -130717,-6923867 -130746,-6923862 -130765,-6923846 -130776,-6923846 -130781,-6923856 -130772,-6923870 -130754,-6923884 -130747,-6923895 -130734,-6923910 -130697,-6923910 -130652,-6923914 -130644,-6923919 -130640,-6923922 -130636,-6923930 -130635,-6923937 -130655,-6923969 -130656,-6923983 -130647,-6923988 -130635,-6923982 -130609,-6923961 -130602,-6923956 -130589,-6923964 -130588,-6923966 -130583,-6923978 -130580,-6923985 -130580,-6924001 -130590,-6924020 -130612,-6924054 -130621,-6924075 -130620,-6924080 -130615,-6924094 -130604,-6924099 -130592,-6924105 -130591,-6924105 -130585,-6924115 -130591,-6924122 -130614,-6924125 -130639,-6924122 -130638,-6924132 -130631,-6924143 -130626,-6924157 -130623,-6924179 -130623,-6924185 -130621,-6924199 -130621,-6924206 -130622,-6924210 -130628,-6924220 -130634,-6924227 -130657,-6924247 -130657,-6924250 -130655,-6924255 -130652,-6924260 -130645,-6924265 -130592,-6924280 -130567,-6924284 -130561,-6924287 -130557,-6924290 -130553,-6924295 -130552,-6924308 -130554,-6924314 -130557,-6924318 -130564,-6924327 -130597,-6924328 -130605,-6924332 -130611,-6924335 -130613,-6924347 -130596,-6924396 -130579,-6924451 -130574,-6924513 -130555,-6924534 -130541,-6924551 -130512,-6924588 -130490,-6924594 -130458,-6924635 -130363,-6924665 -130356,-6924667 -130325,-6924678 -130287,-6924731 -130112,-6924905 -130070,-6924953 -130021,-6925003 -130015,-6925006 -129992,-6925042 -129969,-6925082 -129931,-6925134 -129862,-6925237 -129852,-6925267 -129843,-6925285 -129828,-6925310 -129809,-6925351 -129773,-6925425 -129702,-6925580 -129699,-6925588 -129689,-6925642 -129585,-6925561 -129545,-6925533 -129517,-6925510 -129471,-6925484 -129428,-6925567 -129311,-6925778 -129297,-6925811 -129253,-6925949 -129249,-6925957 -129245,-6925961 -129241,-6925964 -129185,-6925987 -129065,-6926031 -129001,-6926058 -128966,-6926085 -128911,-6926105 -128906,-6926090 -128900,-6926095 -128872,-6926103 -128876,-6926119 -128824,-6926140" stroke="#006747" stroke-width="39" /></ns0:svg>    <rect x="20" y="50"  width="250" height="25"  rx="0"  fill="#006747" fill-opacity="0.8" />    <text x="145" y="70" text-anchor="middle" font-family="Frutiger" font-weight="bold" font-size="30" fill="white">Leicester</text>    <rect x="35" y="195" width="220" height="160" rx="15" fill="#78BE20"/>    <g font-family="Frutiger" font-size="15" fill="#231F20">        <g> <text x="45" y="218">Self-harm</text> <text x="245" y="218" text-anchor="end">17</text> </g>        <g> <text x="45" y="243">SEN</text> <text x="245" y="243" text-anchor="end">50</text> </g>        <g> <text x="45" y="268">Difficulties</text> <text x="245" y="268" text-anchor="end">69</text> </g>        <g> <text x="45" y="293">Child Carer</text> <text x="245" y="293" text-anchor="end">8</text> </g>        <g> <text x="45" y="318">Drinkers</text> <text x="245" y="318" text-anchor="end">0</text> </g>        <g> <text x="45" y="343">Safeguarding £</text> <text x="245" y="343" text-anchor="end">26</text> </g>    </g></svg>