<?xml version="1.0" standalone="no"?>
<!DOCTYPE svg PUBLIC "-//W3C//DTD SVG 1.1//EN"
"http://www.w3.org/Graphics/SVG/1.1/DTD/svg11.dtd">
<svg height="390" version="1.1" width="290" xmlns="http://www.w3.org/2000/svg"><defs><style type="text/css">@font-face {font-family: 'Frutiger';font-style: normal;font-weight: normal;src: local('Frutiger'), url('../fonts/Frutiger.woff') format('woff');}@font-face {font-family: 'Frutiger Bold';font-style: normal;font-weight: normal;src: local('Frutiger Bold'), url('../fonts/Frutiger_bold.woff') format('woff');}        </style>    </defs>    <rect x="20" y="20"  width="250" height="350" rx="15" fill="#005EB8" />    <rect x="35" y="35"  width="220" height="145" rx="15" fill="white" /><ns0:svg xmlns:ns0="http://www.w3.org/2000/svg" height="115" version="1.1" viewBox="-164640 -6613536 17479 14942" width="220" x="35" y="50"><ns0:polygon fill="#003087" points=" -156398,-6613413 -156369,-6613386 -156350,-6613386 -156320,-6613387 -156284,-6613410 -156231,-6613400 -156189,-6613392 -156137,-6613382 -156129,-6613381 -156166,-6613331 -156188,-6613287 -156224,-6613201 -156226,-6613196 -156236,-6613151 -156251,-6613069 -156266,-6612982 -156283,-6612869 -156230,-6612809 -156204,-6612778 -156179,-6612746 -156132,-6612684 -156077,-6612613 -156025,-6612551 -155998,-6612522 -155975,-6612501 -155951,-6612480 -155929,-6612459 -155901,-6612437 -155863,-6612410 -155888,-6612530 -155887,-6612535 -155885,-6612538 -155883,-6612540 -155880,-6612542 -155870,-6612542 -155861,-6612539 -155857,-6612537 -155827,-6612498 -155800,-6612467 -155748,-6612443 -155705,-6612418 -155670,-6612383 -155636,-6612357 -155492,-6612340 -155396,-6612328 -155348,-6612322 -155304,-6612324 -155259,-6612328 -155195,-6612332 -155110,-6612340 -155052,-6612344 -155053,-6612254 -155012,-6612219 -154973,-6612200 -154957,-6612188 -154941,-6612175 -154885,-6612121 -154877,-6612120 -154853,-6611977 -154826,-6611841 -154826,-6611839 -154824,-6611831 -154821,-6611825 -154817,-6611821 -154808,-6611814 -154764,-6611776 -154714,-6611736 -154669,-6611760 -154642,-6611773 -154619,-6611779 -154592,-6611783 -154559,-6611789 -154534,-6611796 -154501,-6611810 -154471,-6611814 -154429,-6611813 -154408,-6611804 -154400,-6611797 -154393,-6611792 -154384,-6611788 -154375,-6611784 -154356,-6611782 -154320,-6611789 -154315,-6611781 -154303,-6611782 -154291,-6611779 -154271,-6611769 -154260,-6611765 -154201,-6611760 -154153,-6611762 -154148,-6611763 -154145,-6611765 -154141,-6611775 -154100,-6611785 -154091,-6611786 -154064,-6611788 -153968,-6611780 -153961,-6611775 -153962,-6611739 -153826,-6611755 -153793,-6611759 -153765,-6611795 -153711,-6611890 -153693,-6611942 -153687,-6611987 -153674,-6612031 -153608,-6612015 -153483,-6611991 -153430,-6611980 -153345,-6611971 -153266,-6611961 -153241,-6611946 -153052,-6611891 -152695,-6611784 -152652,-6611769 -152616,-6611756 -152612,-6611757 -152598,-6611767 -152591,-6611771 -152585,-6611777 -152579,-6611797 -152565,-6611809 -152565,-6611820 -152568,-6611833 -152559,-6611839 -152552,-6611841 -152547,-6611852 -152544,-6611862 -152538,-6611873 -152527,-6611884 -152517,-6611890 -152497,-6611899 -152493,-6611907 -152487,-6611938 -152458,-6611940 -152440,-6611940 -152418,-6611944 -152405,-6611949 -152399,-6611952 -152387,-6611960 -152381,-6611957 -152377,-6611946 -152372,-6611940 -152360,-6611936 -152341,-6611925 -152334,-6611931 -152319,-6611923 -152312,-6611917 -152307,-6611911 -152305,-6611911 -152289,-6611903 -152271,-6611898 -152226,-6611888 -152209,-6611888 -152203,-6611890 -152188,-6611895 -152164,-6611900 -152074,-6611843 -151961,-6611765 -151883,-6611707 -151826,-6611668 -151786,-6611639 -151745,-6611609 -151610,-6611504 -151549,-6611456 -151510,-6611423 -151488,-6611408 -151481,-6611403 -151406,-6611342 -151343,-6611289 -151226,-6611196 -151103,-6611101 -151031,-6611042 -150930,-6610962 -150803,-6610867 -150808,-6610864 -150809,-6610860 -150810,-6610852 -150803,-6610832 -150800,-6610823 -150784,-6610800 -150784,-6610798 -150785,-6610790 -150789,-6610783 -150794,-6610779 -150827,-6610746 -150845,-6610732 -150857,-6610724 -150871,-6610717 -150889,-6610709 -150942,-6610690 -150945,-6610688 -150952,-6610684 -150961,-6610674 -151029,-6610613 -151055,-6610593 -151083,-6610552 -151098,-6610526 -151109,-6610510 -151125,-6610486 -151140,-6610467 -151173,-6610431 -151225,-6610381 -151282,-6610326 -151152,-6610318 -151034,-6610277 -151019,-6610278 -150990,-6610245 -150943,-6610218 -150847,-6610169 -150790,-6610131 -150756,-6610097 -150731,-6610055 -150702,-6610000 -150698,-6609991 -150691,-6609962 -150686,-6609948 -150680,-6609937 -150670,-6609923 -150661,-6609912 -150650,-6609902 -150620,-6609874 -150589,-6609867 -150601,-6609851 -150675,-6609772 -150731,-6609731 -150744,-6609722 -150764,-6609705 -150796,-6609677 -150817,-6609655 -150831,-6609639 -150874,-6609585 -150911,-6609534 -150921,-6609520 -150941,-6609498 -150944,-6609496 -150960,-6609482 -150973,-6609474 -151022,-6609445 -151056,-6609424 -151074,-6609392 -151080,-6609383 -151088,-6609368 -151093,-6609356 -151098,-6609334 -151101,-6609311 -151102,-6609272 -151104,-6609258 -151108,-6609228 -151114,-6609194 -151118,-6609177 -151145,-6609084 -151164,-6609050 -151122,-6609002 -151079,-6608949 -151057,-6608919 -150988,-6608875 -150970,-6608863 -150929,-6608820 -150883,-6608763 -150842,-6608722 -150827,-6608704 -150821,-6608694 -150812,-6608677 -150802,-6608655 -150785,-6608610 -150783,-6608597 -150779,-6608558 -150773,-6608531 -150770,-6608516 -150758,-6608482 -150726,-6608403 -150701,-6608359 -150669,-6608311 -150650,-6608283 -150630,-6608241 -150518,-6608282 -150408,-6608332 -150377,-6608292 -150351,-6608242 -150338,-6608226 -150296,-6608177 -150255,-6608141 -150208,-6608107 -150190,-6608096 -150095,-6608048 -150063,-6608021 -150030,-6607994 -149965,-6607934 -149892,-6607862 -149878,-6607846 -149863,-6607829 -149849,-6607809 -149839,-6607793 -149835,-6607787 -149809,-6607742 -149731,-6607693 -149710,-6607687 -149669,-6607657 -149564,-6607687 -149389,-6607733 -149194,-6607787 -149111,-6607810 -149088,-6607786 -149052,-6607749 -148948,-6607631 -148915,-6607591 -148955,-6607500 -149000,-6607416 -148898,-6607328 -148793,-6607240 -148752,-6607302 -148739,-6607315 -148722,-6607328 -148704,-6607337 -148697,-6607339 -148689,-6607340 -148679,-6607340 -148669,-6607338 -148657,-6607335 -148646,-6607331 -148637,-6607327 -148623,-6607317 -148571,-6607270 -148519,-6607223 -148428,-6607134 -148403,-6607077 -148351,-6606969 -148375,-6606928 -148354,-6606882 -148322,-6606823 -148317,-6606813 -148284,-6606757 -148239,-6606677 -148232,-6606678 -148199,-6606617 -148147,-6606528 -148112,-6606461 -148080,-6606407 -148067,-6606378 -148035,-6606380 -148032,-6606337 -148034,-6606261 -148007,-6606252 -147896,-6606196 -147912,-6606170 -147944,-6606159 -147928,-6606112 -147919,-6606084 -147930,-6606079 -147920,-6606041 -147903,-6606006 -147897,-6605998 -147948,-6605973 -147904,-6605893 -147866,-6605830 -147796,-6605703 -147731,-6605593 -147695,-6605533 -147662,-6605471 -147643,-6605437 -147519,-6605226 -147486,-6605168 -147462,-6605128 -147458,-6605113 -147458,-6605112 -147560,-6605041 -147677,-6604962 -147912,-6604801 -147866,-6604722 -147828,-6604652 -147799,-6604603 -147804,-6604594 -147835,-6604554 -147834,-6604538 -147779,-6604444 -147818,-6604409 -147750,-6604411 -147623,-6604410 -147524,-6604408 -147398,-6604402 -147389,-6604402 -147161,-6603792 -147174,-6603788 -147386,-6603693 -147473,-6603655 -147560,-6603618 -147761,-6603535 -147779,-6603527 -147935,-6603457 -148160,-6603360 -148260,-6603316 -148358,-6603273 -148547,-6603187 -148617,-6603158 -148619,-6602982 -148621,-6602969 -148632,-6602951 -148633,-6602948 -148693,-6602869 -148710,-6602850 -148719,-6602834 -148727,-6602816 -148730,-6602809 -148738,-6602798 -148789,-6602761 -148813,-6602766 -148832,-6602757 -148873,-6602734 -148914,-6602720 -148963,-6602707 -149018,-6602687 -149063,-6602669 -149094,-6602661 -149108,-6602656 -149128,-6602658 -149148,-6602653 -149163,-6602649 -149208,-6602639 -149239,-6602630 -149306,-6602612 -149330,-6602603 -149344,-6602592 -149353,-6602584 -149360,-6602576 -149369,-6602564 -149372,-6602560 -149387,-6602528 -149402,-6602495 -149423,-6602439 -149453,-6602367 -149470,-6602318 -149476,-6602304 -149493,-6602210 -149498,-6602187 -149505,-6602166 -149513,-6602143 -149520,-6602127 -149526,-6602115 -149530,-6602109 -149538,-6602099 -149551,-6602085 -149562,-6602075 -149579,-6602061 -149710,-6601975 -149715,-6601970 -149718,-6601965 -149720,-6601959 -149718,-6601945 -149719,-6601937 -149724,-6601928 -149733,-6601915 -149738,-6601908 -149842,-6601831 -149941,-6601757 -150121,-6601681 -150158,-6601665 -150182,-6601654 -150212,-6601610 -150212,-6601609 -150227,-6601587 -150264,-6601524 -150289,-6601482 -150308,-6601447 -150326,-6601411 -150352,-6601371 -150395,-6601299 -150413,-6601288 -150454,-6601273 -150658,-6601187 -150693,-6601167 -150723,-6601152 -150756,-6601134 -150807,-6601107 -150830,-6601098 -150843,-6601095 -150906,-6601089 -150945,-6601085 -150959,-6601083 -150984,-6601077 -151019,-6601065 -151053,-6601052 -151067,-6601047 -151104,-6601038 -151198,-6601006 -151221,-6600993 -151240,-6600981 -151269,-6600955 -151299,-6600924 -151345,-6600882 -151351,-6600876 -151385,-6600855 -151409,-6600834 -151427,-6600813 -151440,-6600793 -151491,-6600690 -151512,-6600646 -151528,-6600621 -151577,-6600553 -151582,-6600547 -151615,-6600503 -151646,-6600455 -151683,-6600403 -151694,-6600386 -151720,-6600384 -151739,-6600372 -151771,-6600347 -151797,-6600319 -151805,-6600302 -151896,-6600142 -151910,-6600120 -151953,-6600112 -151963,-6600101 -151966,-6600098 -152612,-6599297 -152885,-6598964 -153126,-6598669 -153200,-6598594 -153283,-6598653 -153412,-6598745 -153586,-6598867 -153699,-6598956 -153742,-6598988 -153776,-6599015 -153839,-6599065 -153926,-6599134 -153993,-6599192 -154169,-6599351 -154205,-6599384 -154239,-6599413 -154321,-6599493 -154353,-6599523 -154445,-6599605 -154497,-6599648 -154562,-6599709 -154601,-6599749 -154823,-6599942 -154893,-6599999 -154946,-6600037 -154992,-6600065 -155031,-6600086 -155088,-6600108 -155169,-6600145 -155213,-6600161 -155296,-6600197 -155349,-6600219 -155410,-6600241 -155424,-6600247 -155494,-6600267 -155567,-6600298 -155597,-6600321 -155726,-6600410 -155742,-6600426 -155746,-6600433 -155823,-6600585 -155989,-6600903 -156047,-6600961 -156089,-6601000 -156145,-6601058 -156193,-6601104 -156252,-6601165 -156282,-6601205 -156298,-6601229 -156308,-6601247 -156335,-6601310 -156344,-6601332 -156374,-6601414 -156416,-6601499 -156413,-6601505 -156544,-6601807 -156579,-6601897 -156655,-6602074 -156674,-6602118 -156681,-6602132 -156707,-6602181 -156724,-6602208 -156750,-6602243 -156762,-6602257 -156778,-6602275 -156802,-6602299 -156814,-6602312 -156831,-6602325 -156861,-6602343 -156937,-6602389 -157063,-6602471 -157095,-6602495 -157170,-6602554 -157282,-6602640 -157327,-6602681 -157408,-6602747 -157429,-6602763 -157448,-6602779 -157466,-6602796 -157480,-6602810 -157512,-6602846 -157601,-6602949 -157625,-6602975 -157642,-6602993 -157708,-6603057 -157742,-6603087 -157916,-6603219 -157949,-6603241 -157969,-6603255 -157991,-6603270 -158089,-6603335 -158149,-6603371 -158292,-6603448 -158367,-6603487 -158384,-6603496 -158419,-6603519 -158458,-6603549 -158477,-6603562 -158505,-6603579 -158570,-6603621 -158651,-6603666 -158690,-6603689 -158725,-6603707 -158772,-6603728 -158839,-6603754 -158901,-6603774 -158977,-6603794 -159099,-6603841 -159156,-6603868 -159288,-6603926 -159424,-6603994 -159467,-6604022 -159518,-6604054 -159568,-6604087 -159576,-6604097 -159582,-6604109 -159596,-6604132 -159610,-6604155 -159638,-6604196 -159648,-6604214 -159654,-6604223 -159658,-6604227 -159684,-6604243 -159745,-6604277 -159812,-6604321 -159860,-6604352 -159976,-6604420 -160035,-6604455 -160145,-6604515 -160201,-6604547 -160220,-6604558 -160234,-6604564 -160262,-6604574 -160310,-6604581 -160329,-6604582 -160348,-6604583 -160389,-6604579 -160419,-6604573 -160434,-6604568 -160450,-6604562 -160471,-6604552 -160486,-6604543 -160500,-6604533 -160517,-6604519 -160533,-6604503 -160617,-6604412 -160637,-6604394 -160665,-6604364 -160718,-6604318 -160760,-6604288 -160806,-6604265 -161099,-6604109 -161588,-6604158 -162176,-6604556 -162297,-6604612 -162345,-6604623 -162365,-6604626 -162395,-6604628 -162400,-6604628 -162467,-6604627 -162543,-6604634 -162631,-6604655 -162676,-6604670 -162712,-6604685 -162768,-6604711 -162789,-6604726 -162805,-6604741 -162825,-6604760 -162833,-6604770 -162841,-6604782 -162850,-6604799 -162856,-6604817 -162865,-6604848 -162883,-6604961 -162884,-6604977 -162885,-6604984 -162897,-6605015 -162908,-6605032 -162913,-6605044 -162925,-6605063 -162933,-6605072 -162941,-6605081 -162957,-6605095 -162973,-6605109 -162991,-6605122 -163026,-6605142 -163098,-6605180 -163144,-6605209 -163158,-6605219 -163210,-6605258 -163263,-6605295 -163281,-6605311 -163320,-6605377 -163390,-6605503 -163431,-6605584 -163433,-6605596 -163436,-6605647 -163433,-6605668 -163430,-6605694 -163434,-6605734 -163446,-6605788 -163460,-6605829 -163496,-6605917 -163507,-6605950 -163536,-6606009 -163625,-6606190 -163664,-6606267 -163696,-6606323 -163744,-6606398 -163764,-6606445 -163775,-6606477 -163783,-6606505 -163794,-6606533 -163808,-6606585 -163811,-6606601 -163819,-6606655 -163824,-6606681 -163835,-6606726 -163850,-6606772 -163858,-6606787 -163864,-6606797 -163902,-6606849 -163953,-6606943 -163967,-6606970 -163981,-6606990 -163986,-6606997 -163997,-6607007 -164016,-6607017 -164028,-6607023 -164046,-6607058 -164055,-6607082 -164062,-6607118 -164066,-6607134 -164097,-6607218 -164103,-6607252 -164105,-6607274 -164117,-6607301 -164156,-6607357 -164170,-6607387 -164193,-6607437 -164211,-6607488 -164216,-6607496 -164231,-6607517 -164239,-6607524 -164253,-6607532 -164272,-6607547 -164299,-6607589 -164309,-6607600 -164315,-6607606 -164322,-6607613 -164351,-6607632 -164367,-6607646 -164401,-6607683 -164410,-6607694 -164411,-6607736 -164408,-6607789 -164409,-6607815 -164424,-6607878 -164433,-6607900 -164437,-6607907 -164442,-6607918 -164449,-6607927 -164463,-6607944 -164496,-6607969 -164519,-6607982 -164525,-6607985 -164532,-6607987 -164550,-6607990 -164587,-6608001 -164616,-6608018 -164623,-6608023 -164638,-6608041 -164640,-6608051 -164640,-6608065 -164638,-6608075 -164630,-6608097 -164623,-6608114 -164615,-6608130 -164603,-6608145 -164578,-6608166 -164561,-6608174 -164550,-6608177 -164533,-6608179 -164516,-6608177 -164494,-6608168 -164479,-6608161 -164458,-6608156 -164440,-6608159 -164429,-6608167 -164423,-6608176 -164415,-6608192 -164413,-6608203 -164412,-6608219 -164414,-6608229 -164415,-6608239 -164422,-6608259 -164430,-6608284 -164432,-6608303 -164433,-6608309 -164433,-6608318 -164431,-6608330 -164423,-6608354 -164418,-6608363 -164413,-6608369 -164378,-6608403 -164358,-6608420 -164325,-6608453 -164309,-6608475 -164292,-6608500 -164278,-6608529 -164270,-6608564 -164270,-6608599 -164301,-6608615 -164307,-6608618 -164341,-6608633 -164355,-6608638 -164369,-6608641 -164392,-6608644 -164455,-6608649 -164454,-6608667 -164452,-6608681 -164437,-6608687 -164426,-6608690 -164413,-6608715 -164408,-6608730 -164400,-6608752 -164357,-6608765 -164350,-6608767 -164327,-6608770 -164299,-6608768 -164220,-6608735 -164199,-6608729 -164169,-6608729 -164098,-6608733 -164124,-6608835 -164040,-6608866 -163848,-6608924 -163822,-6609129 -163813,-6609206 -163701,-6609190 -163683,-6609187 -163675,-6609188 -163656,-6609201 -163642,-6609214 -163627,-6609233 -163625,-6609241 -163623,-6609269 -163619,-6609289 -163613,-6609303 -163607,-6609312 -163596,-6609324 -163541,-6609378 -163525,-6609395 -163513,-6609396 -163505,-6609401 -163498,-6609415 -163493,-6609422 -163487,-6609429 -163466,-6609450 -163462,-6609456 -163456,-6609465 -163447,-6609491 -163372,-6609606 -163342,-6609590 -163334,-6609586 -163217,-6609752 -163127,-6609781 -162998,-6609818 -162983,-6609822 -163023,-6609918 -163049,-6609965 -163052,-6609981 -163065,-6609982 -163072,-6610069 -163073,-6610090 -163079,-6610216 -163095,-6610323 -163092,-6610347 -163091,-6610355 -163055,-6610454 -163040,-6610482 -163024,-6610511 -162987,-6610582 -162933,-6610675 -162838,-6610802 -162709,-6610969 -162694,-6610990 -162676,-6610999 -162648,-6611034 -162577,-6611116 -162556,-6611143 -162525,-6611190 -162507,-6611211 -162497,-6611224 -162464,-6611248 -162462,-6611252 -162455,-6611262 -162454,-6611295 -162452,-6611314 -162342,-6611442 -162261,-6611541 -162081,-6611754 -162076,-6611759 -162068,-6611751 -162060,-6611742 -162028,-6611695 -162015,-6611679 -161917,-6611582 -161902,-6611567 -161885,-6611553 -161876,-6611547 -161848,-6611531 -161830,-6611500 -161818,-6611472 -161787,-6611435 -161729,-6611374 -161684,-6611322 -161632,-6611366 -161574,-6611411 -161561,-6611421 -161525,-6611451 -161529,-6611498 -161529,-6611512 -161528,-6611519 -161525,-6611535 -161523,-6611547 -161517,-6611579 -161485,-6611692 -161434,-6611844 -161416,-6611900 -161411,-6611920 -161408,-6611955 -161410,-6611963 -161473,-6612070 -161585,-6612256 -161610,-6612300 -161595,-6612325 -161550,-6612350 -161409,-6612419 -161362,-6612438 -161331,-6612283 -161330,-6612276 -161324,-6612270 -161261,-6612233 -161213,-6612203 -161136,-6612160 -161078,-6612126 -161057,-6612115 -161035,-6612146 -160964,-6612112 -160936,-6612100 -160933,-6612098 -160759,-6612023 -160689,-6611991 -160674,-6611991 -160665,-6611990 -160644,-6611989 -160588,-6611988 -160562,-6611976 -160537,-6611963 -160509,-6611951 -160477,-6611940 -160444,-6611933 -160409,-6611934 -160382,-6611934 -160357,-6611996 -160319,-6612090 -160320,-6612107 -160313,-6612119 -160307,-6612125 -160287,-6612134 -160261,-6612156 -160248,-6612153 -160221,-6612152 -160197,-6612154 -160178,-6612158 -160105,-6612171 -160049,-6612187 -160003,-6612208 -159988,-6612216 -159969,-6612225 -159960,-6612230 -159901,-6612250 -159860,-6612268 -159823,-6612275 -159775,-6612275 -159755,-6612272 -159714,-6612263 -159700,-6612264 -159691,-6612256 -159688,-6612251 -159657,-6612225 -159647,-6612218 -159635,-6612208 -159631,-6612206 -159580,-6612186 -159510,-6612161 -159464,-6612148 -159437,-6612138 -159405,-6612132 -159380,-6612123 -159341,-6612102 -159292,-6612068 -159216,-6612013 -159197,-6612002 -159190,-6611998 -159161,-6611989 -159140,-6611985 -159128,-6611984 -159091,-6611981 -159060,-6611975 -158987,-6611956 -158807,-6611951 -158494,-6611964 -158485,-6611965 -158481,-6611965 -158471,-6612024 -158444,-6612160 -158429,-6612222 -158423,-6612249 -158414,-6612279 -158395,-6612336 -158368,-6612405 -158319,-6612539 -158290,-6612621 -158267,-6612673 -158263,-6612679 -158254,-6612694 -158244,-6612704 -158231,-6612719 -158214,-6612736 -158204,-6612742 -158189,-6612750 -158156,-6612759 -158115,-6612758 -158026,-6612746 -157978,-6612748 -157906,-6612751 -157829,-6612745 -157820,-6612744 -157820,-6612744 -157808,-6612743 -157794,-6612756 -157761,-6612759 -157759,-6612759 -157761,-6612725 -157762,-6612716 -157761,-6612687 -157760,-6612655 -157684,-6612701 -157680,-6612703 -157672,-6612637 -157670,-6612618 -157669,-6612603 -157534,-6612601 -157531,-6612601 -157515,-6612535 -157503,-6612507 -157481,-6612443 -157439,-6612345 -157435,-6612336 -157272,-6612450 -157261,-6612468 -157240,-6612463 -157214,-6612464 -157199,-6612474 -157176,-6612516 -157174,-6612518 -157054,-6612446 -156996,-6612430 -156925,-6612413 -156917,-6612411 -156909,-6612462 -156885,-6612557 -156884,-6612602 -156881,-6612662 -156881,-6612732 -156878,-6612750 -156876,-6612757 -156856,-6612803 -156850,-6612815 -156850,-6612816 -156831,-6612847 -156749,-6612956 -156690,-6613037 -156673,-6613065 -156667,-6613078 -156659,-6613097 -156645,-6613224 -156641,-6613268 -156639,-6613283 -156570,-6613287 -156568,-6613325 -156567,-6613419 -156569,-6613448 -156572,-6613488 -156562,-6613515 -156555,-6613525 -156542,-6613535 -156536,-6613536 -156530,-6613536 -156525,-6613536 -156517,-6613534 -156501,-6613514 -156473,-6613482 -156463,-6613472 -156446,-6613454 -156441,-6613449 -156398,-6613413" stroke="#003087" stroke-width="32" /></ns0:svg>    <rect x="20" y="50"  width="250" height="25"  rx="0"  fill="#003087" fill-opacity="0.8" />    <text x="145" y="70" text-anchor="middle" font-family="Frutiger" font-weight="bold" font-size="30" fill="white">Southampton</text>    <rect x="35" y="195" width="220" height="160" rx="15" fill="#41B6E6"/>    <g font-family="Frutiger" font-size="15" fill="white">        <g> <text x="45" y="218">Self-harm</text> <text x="245" y="218" text-anchor="end">49</text> </g>        <g> <text x="45" y="243">SEN</text> <text x="245" y="243" text-anchor="end">88</text> </g>        <g> <text x="45" y="268">Difficulties</text> <text x="245" y="268" text-anchor="end">68</text> </g>        <g> <text x="45" y="293">Child Carer</text> <text x="245" y="293" text-anchor="end">5</text> </g>        <g> <text x="45" y="318">Drinkers</text> <text x="245" y="318" text-anchor="end">35</text> </g>        <g> <text x="45" y="343">Safeguarding £</text> <text x="245" y="343" text-anchor="end">33</text> </g>    </g></svg>