<?xml version="1.0" standalone="no"?>
<!DOCTYPE svg PUBLIC "-//W3C//DTD SVG 1.1//EN"
"http://www.w3.org/Graphics/SVG/1.1/DTD/svg11.dtd">
<svg height="1800" version="1.1" width="1800" xmlns="http://www.w3.org/2000/svg"><defs><style type="text/css">@font-face {font-family: 'Frutiger';font-style: normal;font-weight: normal;src: local('Frutiger'), url('../fonts/Frutiger.woff') format('woff');}@font-face {font-family: 'Frutiger Bold';font-style: normal;font-weight: normal;src: local('Frutiger Bold'), url('../fonts/Frutiger_bold.woff') format('woff');}        </style>    </defs>    <rect x="20" y="20"  width="250" height="350" rx="15" fill="#AE2573" />    <rect x="35" y="35"  width="220" height="145" rx="15" fill="#330072" /><ns0:svg xmlns:ns0="http://www.w3.org/2000/svg" height="115" version="1.1" viewBox="-468161 -6523553 20698 18030" width="220" x="35" y="50"><ns0:polygon fill="white" points=" -457774,-6523379 -457717,-6523337 -457713,-6523342 -457644,-6523316 -457636,-6523311 -457629,-6523306 -457616,-6523294 -457547,-6523211 -457553,-6523199 -457557,-6523188 -457560,-6523176 -457561,-6523167 -457561,-6523158 -457560,-6523150 -457557,-6523143 -457553,-6523135 -457548,-6523128 -457542,-6523122 -457533,-6523116 -457523,-6523111 -457512,-6523107 -457495,-6523103 -457492,-6523022 -457482,-6522940 -457460,-6522786 -457444,-6522680 -457424,-6522560 -457385,-6522555 -457383,-6522534 -457322,-6522530 -457240,-6522548 -457135,-6522576 -457152,-6522464 -457158,-6522410 -457157,-6522329 -457155,-6522298 -457178,-6522231 -457187,-6522208 -457212,-6522138 -457237,-6522078 -457268,-6522051 -457209,-6521992 -457156,-6521930 -457328,-6521800 -457385,-6521743 -457329,-6521666 -457391,-6521635 -457382,-6521611 -457345,-6521591 -457337,-6521583 -457333,-6521577 -457330,-6521569 -457330,-6521565 -457333,-6521534 -457333,-6521533 -457398,-6521497 -457404,-6521491 -457408,-6521489 -457418,-6521487 -457448,-6521485 -457459,-6521487 -457467,-6521490 -457492,-6521500 -457519,-6521518 -457529,-6521503 -457471,-6521446 -457421,-6521406 -457393,-6521392 -457389,-6521389 -457365,-6521367 -457353,-6521360 -457341,-6521355 -457298,-6521345 -457288,-6521341 -457235,-6521308 -457222,-6521299 -457195,-6521272 -457169,-6521218 -457100,-6521137 -456992,-6521106 -456981,-6521106 -456975,-6521107 -456957,-6521118 -456950,-6521119 -456938,-6521118 -456924,-6521116 -456909,-6521112 -456887,-6521104 -456879,-6521102 -456871,-6521101 -456846,-6521103 -456809,-6521111 -456800,-6521114 -456752,-6521137 -456731,-6521135 -456688,-6521140 -456655,-6521150 -456634,-6521151 -456626,-6521152 -456605,-6521157 -456592,-6521157 -456577,-6521156 -456563,-6521154 -456548,-6521149 -456535,-6521145 -456527,-6521141 -456524,-6521139 -456510,-6521126 -456479,-6521114 -456436,-6521105 -456417,-6521098 -456405,-6521090 -456395,-6521085 -456381,-6521079 -456354,-6521074 -456336,-6521068 -456308,-6521052 -456295,-6521042 -456285,-6521034 -456277,-6521026 -456269,-6521016 -456265,-6521009 -456262,-6521004 -456260,-6520997 -456260,-6520974 -456257,-6520967 -456254,-6520964 -456240,-6520956 -456236,-6520952 -456220,-6520929 -456218,-6520923 -456217,-6520917 -456218,-6520909 -456221,-6520895 -456221,-6520885 -456203,-6520870 -456196,-6520859 -456179,-6520843 -456161,-6520839 -456147,-6520833 -456123,-6520832 -456109,-6520830 -456096,-6520823 -456053,-6520808 -456028,-6520810 -456013,-6520808 -455983,-6520794 -455974,-6520788 -455948,-6520778 -455941,-6520766 -455933,-6520760 -455917,-6520757 -455911,-6520756 -455895,-6520749 -455873,-6520741 -455849,-6520741 -455846,-6520741 -455844,-6520739 -455833,-6520728 -455830,-6520726 -455811,-6520722 -455809,-6520721 -455806,-6520718 -455796,-6520707 -455794,-6520707 -455792,-6520707 -455783,-6520713 -455779,-6520712 -455776,-6520710 -455767,-6520699 -455765,-6520698 -455757,-6520692 -455739,-6520671 -455711,-6520647 -455708,-6520642 -455704,-6520636 -455689,-6520604 -455680,-6520589 -455673,-6520581 -455666,-6520574 -455658,-6520569 -455650,-6520565 -455636,-6520563 -455606,-6520567 -455588,-6520568 -455580,-6520569 -455569,-6520572 -455552,-6520581 -455544,-6520584 -455538,-6520585 -455498,-6520588 -455447,-6520593 -455400,-6520581 -455358,-6520578 -455339,-6520571 -455314,-6520563 -455243,-6520538 -455201,-6520531 -455139,-6520496 -455090,-6520465 -455086,-6520461 -455073,-6520448 -455021,-6520374 -455014,-6520367 -455007,-6520361 -454999,-6520356 -454988,-6520351 -454978,-6520347 -454968,-6520345 -454958,-6520344 -454945,-6520345 -454806,-6520383 -454782,-6520377 -454770,-6520381 -454754,-6520374 -454710,-6520350 -454707,-6520334 -454703,-6520321 -454699,-6520310 -454694,-6520301 -454688,-6520293 -454675,-6520280 -454659,-6520265 -454647,-6520255 -454622,-6520237 -454605,-6520228 -454532,-6520192 -454517,-6520182 -454508,-6520175 -454496,-6520164 -454485,-6520152 -454480,-6520146 -454475,-6520138 -454471,-6520127 -454468,-6520118 -454465,-6520094 -454466,-6520018 -454471,-6519978 -454474,-6519928 -454474,-6519920 -454473,-6519904 -454471,-6519893 -454464,-6519871 -454460,-6519853 -454458,-6519783 -454456,-6519761 -454450,-6519728 -454446,-6519718 -454403,-6519608 -454372,-6519543 -454321,-6519465 -454290,-6519411 -454286,-6519402 -454275,-6519377 -454260,-6519326 -454252,-6519311 -454246,-6519302 -454236,-6519293 -454143,-6519229 -454128,-6519216 -454120,-6519209 -454113,-6519200 -454098,-6519178 -454093,-6519168 -454089,-6519157 -454086,-6519148 -454084,-6519138 -454083,-6519127 -454085,-6519117 -454086,-6519111 -454096,-6519088 -454108,-6519067 -454121,-6519051 -454167,-6518986 -454205,-6518937 -454227,-6518906 -454232,-6518894 -454245,-6518826 -454248,-6518816 -454252,-6518806 -454262,-6518786 -454291,-6518738 -454294,-6518730 -454297,-6518721 -454298,-6518712 -454298,-6518703 -454296,-6518691 -454244,-6518521 -454237,-6518503 -454234,-6518498 -454228,-6518487 -454220,-6518475 -454214,-6518466 -454208,-6518460 -454198,-6518453 -454179,-6518441 -454078,-6518372 -453949,-6518293 -453939,-6518286 -453922,-6518272 -453903,-6518252 -453896,-6518242 -453889,-6518232 -453884,-6518221 -453882,-6518213 -453881,-6518208 -453883,-6518202 -453888,-6518195 -453918,-6518163 -453922,-6518158 -453926,-6518150 -453933,-6518129 -453934,-6518122 -453934,-6518106 -453853,-6517932 -453846,-6517910 -453845,-6517902 -453845,-6517887 -453846,-6517881 -453851,-6517869 -453855,-6517862 -453860,-6517856 -453867,-6517851 -453877,-6517844 -453926,-6517810 -453916,-6517670 -453937,-6517628 -453962,-6517588 -453969,-6517578 -453979,-6517568 -453991,-6517559 -454002,-6517552 -454022,-6517541 -454067,-6517523 -454043,-6517508 -454002,-6517420 -453983,-6517370 -453948,-6517347 -453936,-6517338 -453928,-6517333 -453917,-6517328 -453910,-6517326 -453899,-6517325 -453890,-6517326 -453880,-6517322 -453870,-6517319 -453855,-6517317 -453746,-6517312 -453712,-6517304 -453684,-6517301 -453609,-6517277 -453582,-6517268 -453569,-6517262 -453544,-6517247 -453506,-6517217 -453391,-6517130 -453375,-6517115 -453366,-6517104 -453352,-6517085 -453334,-6517047 -453328,-6516798 -453328,-6516711 -453326,-6516647 -453313,-6516508 -453303,-6516493 -453296,-6516431 -453289,-6516356 -453280,-6516289 -453261,-6516212 -453252,-6516186 -453247,-6516176 -453238,-6516162 -453094,-6516146 -453084,-6516140 -452960,-6516127 -452885,-6516121 -452862,-6516117 -452798,-6516102 -452665,-6516090 -452570,-6516077 -452500,-6516063 -452474,-6516055 -452438,-6516042 -452427,-6516038 -452376,-6516028 -452351,-6516025 -452328,-6516024 -452328,-6516030 -452328,-6516046 -452306,-6516047 -452261,-6516056 -452240,-6516058 -452222,-6516060 -452187,-6516060 -452163,-6516059 -452046,-6516050 -451936,-6516040 -451892,-6516089 -451874,-6516105 -451851,-6516123 -451735,-6516204 -451704,-6516219 -451595,-6516289 -451572,-6516274 -451522,-6516242 -451496,-6516224 -451475,-6516206 -451452,-6516184 -451463,-6516171 -451449,-6516154 -451477,-6516125 -451455,-6516098 -451451,-6516091 -451448,-6516083 -451446,-6516073 -451445,-6516065 -451447,-6516038 -451438,-6516035 -451436,-6516044 -451282,-6516077 -451134,-6516096 -451131,-6516111 -451123,-6516201 -451123,-6516277 -451065,-6516260 -451037,-6516250 -451002,-6516234 -450945,-6516203 -450896,-6516180 -450868,-6516173 -450830,-6516159 -450791,-6516148 -450724,-6516123 -450699,-6516206 -450613,-6516197 -450610,-6516193 -450567,-6516187 -450544,-6516181 -450497,-6516186 -450465,-6516184 -450406,-6516139 -450385,-6516127 -450360,-6516115 -450339,-6516094 -450329,-6516086 -450301,-6516066 -450284,-6516057 -450261,-6516048 -450248,-6516038 -450206,-6516041 -450204,-6516029 -450171,-6516029 -450134,-6516031 -450100,-6516036 -450069,-6516042 -450017,-6516049 -449968,-6516059 -449917,-6516074 -449868,-6516082 -449789,-6516082 -449704,-6516086 -449691,-6516087 -449686,-6516020 -449677,-6516013 -449677,-6515995 -449672,-6515970 -449742,-6515836 -449745,-6515828 -449748,-6515820 -449752,-6515804 -449760,-6515743 -449760,-6515730 -449762,-6515720 -449768,-6515704 -449772,-6515697 -449807,-6515649 -449812,-6515640 -449814,-6515633 -449822,-6515591 -449828,-6515579 -449835,-6515570 -449844,-6515560 -449856,-6515549 -449863,-6515540 -449870,-6515530 -449880,-6515506 -449891,-6515469 -449894,-6515464 -449901,-6515457 -449906,-6515450 -449914,-6515424 -449900,-6515427 -449891,-6515428 -449878,-6515434 -449878,-6515435 -449859,-6515451 -449857,-6515451 -449850,-6515447 -449846,-6515437 -449829,-6515435 -449806,-6515429 -449754,-6515409 -449682,-6515395 -449590,-6515385 -449524,-6515378 -449499,-6515376 -449462,-6515375 -449438,-6515375 -449389,-6515381 -449291,-6515389 -449205,-6515394 -449169,-6515398 -449140,-6515400 -449108,-6515394 -449078,-6515392 -449022,-6515381 -448979,-6515376 -448959,-6515375 -448879,-6515374 -448855,-6515373 -448832,-6515369 -448802,-6515365 -448782,-6515362 -448765,-6515359 -448738,-6515352 -448709,-6515344 -448663,-6515328 -448674,-6515293 -448704,-6515214 -448707,-6515202 -448713,-6515177 -448717,-6515140 -448731,-6515083 -448755,-6515023 -448784,-6514926 -448789,-6514905 -448792,-6514851 -448792,-6514847 -448790,-6514842 -448786,-6514836 -448782,-6514832 -448778,-6514830 -448732,-6514804 -448727,-6514803 -448722,-6514803 -448711,-6514804 -448670,-6514823 -448660,-6514825 -448648,-6514827 -448639,-6514826 -448551,-6514812 -448502,-6514809 -448403,-6514792 -448374,-6514791 -448383,-6514686 -448399,-6514663 -448407,-6514653 -448422,-6514636 -448432,-6514623 -448440,-6514609 -448450,-6514589 -448462,-6514551 -448474,-6514545 -448480,-6514541 -448484,-6514537 -448488,-6514532 -448493,-6514524 -448495,-6514515 -448496,-6514507 -448495,-6514478 -448437,-6514479 -448422,-6514471 -448410,-6514466 -448399,-6514462 -448388,-6514460 -448368,-6514458 -448297,-6514450 -448147,-6514455 -448090,-6514453 -448071,-6514450 -448035,-6514438 -448023,-6514435 -447987,-6514429 -447969,-6514428 -447937,-6514431 -447862,-6514423 -447842,-6514419 -447794,-6514430 -447747,-6514437 -447732,-6514438 -447722,-6514436 -447714,-6514433 -447706,-6514428 -447695,-6514421 -447685,-6514412 -447675,-6514401 -447661,-6514389 -447634,-6514403 -447634,-6514389 -447633,-6514380 -447629,-6514365 -447637,-6514356 -447659,-6514327 -447657,-6514312 -447672,-6514244 -447673,-6514209 -447671,-6514182 -447658,-6514132 -447651,-6514100 -447625,-6514024 -447622,-6513999 -447622,-6513977 -447618,-6513937 -447607,-6513874 -447597,-6513831 -447568,-6513761 -447561,-6513742 -447547,-6513692 -447541,-6513680 -447538,-6513673 -447529,-6513656 -447521,-6513646 -447473,-6513668 -447463,-6513650 -447641,-6513456 -447869,-6513215 -447938,-6513129 -447960,-6513096 -447983,-6513067 -448011,-6513039 -448047,-6513006 -448093,-6512970 -448123,-6512947 -448138,-6512931 -448142,-6512925 -448147,-6512915 -448153,-6512902 -448156,-6512891 -448157,-6512870 -448157,-6512860 -448153,-6512823 -448146,-6512792 -448138,-6512767 -448092,-6512679 -448096,-6512658 -448092,-6512653 -448091,-6512641 -448011,-6512561 -448020,-6512551 -448010,-6512517 -448047,-6512510 -448044,-6512499 -448044,-6512489 -448047,-6512480 -448052,-6512474 -448118,-6512424 -448137,-6512408 -448152,-6512394 -448161,-6512383 -448175,-6512364 -448253,-6512231 -448261,-6512216 -448267,-6512204 -448277,-6512190 -448290,-6512178 -448297,-6512172 -448368,-6512129 -448436,-6512088 -448447,-6512082 -448467,-6512072 -448482,-6512066 -448493,-6512062 -448521,-6512054 -448608,-6512021 -448663,-6511994 -448715,-6511966 -448735,-6511965 -448753,-6511964 -448766,-6511962 -448800,-6511952 -449174,-6511859 -449179,-6511857 -449350,-6511839 -449384,-6511837 -449405,-6511838 -449423,-6511840 -449448,-6511845 -449508,-6511852 -449542,-6511854 -449565,-6511854 -449585,-6511853 -449622,-6511849 -449727,-6511845 -449792,-6511846 -449802,-6511847 -449826,-6511849 -449869,-6511852 -449928,-6511861 -449952,-6511867 -449956,-6511876 -450034,-6511891 -450259,-6511916 -450309,-6511916 -450486,-6511939 -450506,-6511940 -450571,-6511937 -450641,-6511927 -450778,-6511916 -450818,-6511911 -450866,-6511905 -450866,-6511836 -450866,-6511787 -450865,-6511750 -450867,-6511731 -450871,-6511671 -450873,-6511606 -450879,-6511589 -450885,-6511560 -450901,-6511470 -450905,-6511433 -450909,-6511417 -450913,-6511406 -450918,-6511397 -450937,-6511371 -450954,-6511342 -450970,-6511304 -450976,-6511280 -451002,-6511214 -451008,-6511199 -451055,-6511088 -451177,-6510836 -451184,-6510823 -451204,-6510793 -451245,-6510720 -451266,-6510682 -451324,-6510565 -451343,-6510520 -451371,-6510431 -451410,-6510297 -451391,-6510265 -451308,-6510149 -451294,-6510128 -451242,-6510052 -451178,-6509971 -451120,-6509905 -451087,-6509838 -451054,-6509796 -451012,-6509738 -450971,-6509686 -450922,-6509610 -450909,-6509571 -450895,-6509537 -450874,-6509502 -450860,-6509481 -450855,-6509471 -450850,-6509462 -450844,-6509441 -450842,-6509429 -450840,-6509425 -450817,-6509394 -450830,-6509379 -450893,-6509323 -450931,-6509278 -450949,-6509250 -450944,-6509239 -450925,-6509216 -450864,-6509153 -450831,-6509111 -450830,-6509108 -450829,-6509100 -450835,-6509089 -450810,-6509055 -450844,-6509033 -450880,-6509024 -450960,-6509011 -451019,-6508948 -451021,-6508940 -451021,-6508933 -451019,-6508926 -451017,-6508920 -450985,-6508853 -450943,-6508770 -450925,-6508741 -450919,-6508729 -450913,-6508717 -450902,-6508688 -450882,-6508615 -450862,-6508525 -450863,-6508519 -450865,-6508516 -450868,-6508513 -450886,-6508508 -450894,-6508494 -450907,-6508491 -450958,-6508485 -450968,-6508483 -451047,-6508439 -451065,-6508434 -451074,-6508428 -451102,-6508399 -451111,-6508389 -451130,-6508361 -451154,-6508313 -451157,-6508305 -451161,-6508296 -451171,-6508249 -451211,-6508333 -451234,-6508374 -451244,-6508387 -451248,-6508395 -451254,-6508400 -451270,-6508411 -451308,-6508432 -451352,-6508452 -451511,-6508514 -451587,-6508546 -451612,-6508550 -451653,-6508560 -451711,-6508565 -451712,-6508565 -451724,-6508515 -451688,-6508381 -451687,-6508368 -451691,-6508345 -451734,-6508238 -451753,-6508180 -451800,-6508202 -451807,-6508206 -451881,-6508250 -451897,-6508261 -451922,-6508286 -451945,-6508262 -451981,-6508218 -452061,-6508136 -452102,-6508183 -452098,-6508187 -452090,-6508201 -452117,-6508233 -452133,-6508249 -452171,-6508275 -452191,-6508261 -452222,-6508241 -452230,-6508238 -452285,-6508214 -452353,-6508191 -452417,-6508167 -452436,-6508208 -452495,-6508175 -452564,-6508138 -452562,-6508132 -452553,-6508109 -452548,-6508054 -452554,-6508049 -452572,-6508040 -452606,-6508021 -452612,-6508019 -452659,-6508002 -452710,-6507987 -452707,-6507966 -452744,-6507954 -452798,-6507940 -452856,-6507920 -452934,-6507885 -453113,-6507790 -453134,-6507780 -453209,-6507747 -453258,-6507720 -453332,-6507667 -453333,-6507651 -453330,-6507584 -453432,-6507537 -453528,-6507488 -453584,-6507466 -453631,-6507429 -453652,-6507421 -453688,-6507404 -453713,-6507389 -453801,-6507340 -453956,-6507251 -454047,-6507193 -454094,-6507159 -454118,-6507138 -454128,-6507121 -454148,-6507059 -454250,-6506788 -454294,-6506669 -454298,-6506652 -454309,-6506602 -454338,-6506519 -454372,-6506444 -454402,-6506387 -454430,-6506341 -454480,-6506276 -454508,-6506234 -454538,-6506199 -454622,-6506132 -454662,-6506095 -454698,-6506057 -454731,-6506026 -454767,-6506002 -454827,-6505955 -454866,-6505952 -455145,-6505883 -455130,-6505856 -455176,-6505832 -455168,-6505811 -455168,-6505794 -455169,-6505788 -455171,-6505784 -455186,-6505753 -455231,-6505642 -455250,-6505600 -455261,-6505599 -455281,-6505600 -455303,-6505575 -455341,-6505536 -455346,-6505533 -455362,-6505524 -455365,-6505523 -455377,-6505523 -455377,-6505524 -455373,-6505604 -455386,-6505615 -455390,-6505620 -455381,-6505667 -455389,-6505670 -455418,-6505676 -455440,-6505689 -455417,-6505718 -455450,-6505752 -455501,-6505827 -455504,-6505831 -455510,-6505836 -455530,-6505848 -455559,-6505875 -455613,-6505918 -455646,-6505947 -455661,-6505957 -455686,-6505968 -455694,-6505968 -455699,-6505967 -455705,-6505964 -455711,-6505959 -455717,-6505951 -455741,-6505929 -455752,-6505930 -455770,-6505934 -455856,-6505959 -455978,-6506003 -456169,-6506076 -456203,-6506078 -456350,-6506099 -456405,-6506113 -456419,-6506120 -456456,-6506143 -456503,-6506175 -456569,-6506223 -456609,-6506249 -456627,-6506258 -456706,-6506286 -456823,-6506318 -456883,-6506338 -456887,-6506340 -456905,-6506353 -456909,-6506355 -456922,-6506358 -456928,-6506359 -456939,-6506361 -457064,-6506362 -457154,-6506354 -457165,-6506352 -457216,-6506341 -457253,-6506331 -457369,-6506288 -457472,-6506249 -457515,-6506240 -457542,-6506247 -457571,-6506247 -457839,-6506151 -457931,-6506140 -458043,-6506130 -458105,-6506158 -458167,-6506227 -458211,-6506327 -458229,-6506341 -458258,-6506329 -458307,-6506312 -458353,-6506283 -458486,-6506273 -458560,-6506291 -458563,-6506264 -458611,-6506284 -458625,-6506290 -458677,-6506314 -458721,-6506336 -458737,-6506356 -458761,-6506389 -458898,-6506487 -458971,-6506534 -459001,-6506555 -459002,-6506560 -459002,-6506568 -458998,-6506575 -458991,-6506580 -458990,-6506582 -458990,-6506584 -458993,-6506593 -458993,-6506600 -458991,-6506604 -458986,-6506612 -458973,-6506627 -458969,-6506635 -458969,-6506641 -458971,-6506656 -458970,-6506663 -458968,-6506668 -458965,-6506673 -458962,-6506676 -458950,-6506681 -458947,-6506684 -458943,-6506689 -458940,-6506694 -458939,-6506697 -458939,-6506700 -458940,-6506704 -458948,-6506711 -458947,-6506715 -458946,-6506716 -458938,-6506719 -458936,-6506721 -458933,-6506725 -458920,-6506754 -458921,-6506755 -458926,-6506758 -458927,-6506760 -458924,-6506766 -458924,-6506771 -458928,-6506777 -458935,-6506781 -458936,-6506783 -458937,-6506786 -458936,-6506789 -458908,-6506830 -458909,-6506832 -458918,-6506831 -458920,-6506832 -458921,-6506836 -458919,-6506840 -458917,-6506841 -458915,-6506841 -458907,-6506836 -458905,-6506836 -458903,-6506837 -458903,-6506840 -458905,-6506850 -458904,-6506854 -458894,-6506887 -458894,-6506893 -458901,-6506909 -458903,-6506929 -458905,-6506935 -458910,-6506944 -458913,-6506948 -458922,-6506952 -458923,-6506953 -458923,-6506955 -458923,-6506957 -458914,-6506960 -458914,-6506961 -458916,-6506964 -458923,-6506967 -458925,-6506970 -458927,-6506975 -458927,-6506978 -458926,-6506980 -458918,-6506983 -458916,-6506984 -458916,-6506987 -458918,-6506990 -458923,-6506994 -458928,-6506997 -458941,-6506998 -458941,-6506999 -458940,-6507001 -458932,-6507004 -458932,-6507006 -458936,-6507013 -458937,-6507016 -458936,-6507018 -458934,-6507020 -458923,-6507024 -458902,-6507034 -458897,-6507039 -458897,-6507041 -458898,-6507043 -458899,-6507045 -458917,-6507056 -458932,-6507061 -458937,-6507064 -458941,-6507072 -458942,-6507078 -458942,-6507089 -458940,-6507093 -458930,-6507106 -458917,-6507131 -458913,-6507137 -458899,-6507155 -458892,-6507162 -458887,-6507165 -458882,-6507166 -458876,-6507166 -458890,-6507201 -458902,-6507227 -458907,-6507234 -458910,-6507236 -458915,-6507239 -458924,-6507241 -458941,-6507242 -458945,-6507244 -458947,-6507246 -458953,-6507255 -458958,-6507257 -458967,-6507258 -458972,-6507260 -458977,-6507265 -458980,-6507270 -458981,-6507273 -458980,-6507276 -458977,-6507278 -458974,-6507279 -458965,-6507277 -458953,-6507271 -458950,-6507271 -458948,-6507272 -458945,-6507276 -458944,-6507280 -458945,-6507283 -458949,-6507286 -458955,-6507289 -458963,-6507290 -458970,-6507290 -458976,-6507289 -458980,-6507287 -458996,-6507275 -458997,-6507276 -458996,-6507281 -458989,-6507288 -458989,-6507292 -458990,-6507295 -459001,-6507305 -459003,-6507309 -459006,-6507315 -459008,-6507323 -459009,-6507330 -459008,-6507337 -459005,-6507350 -459006,-6507357 -459009,-6507360 -459015,-6507365 -459018,-6507366 -459030,-6507365 -459035,-6507366 -459039,-6507368 -459056,-6507391 -459058,-6507395 -459059,-6507402 -459057,-6507415 -459059,-6507420 -459062,-6507426 -459065,-6507430 -459070,-6507433 -459074,-6507432 -459076,-6507431 -459081,-6507419 -459084,-6507416 -459086,-6507416 -459090,-6507416 -459095,-6507417 -459122,-6507438 -459129,-6507445 -459135,-6507453 -459139,-6507460 -459143,-6507474 -459144,-6507484 -459141,-6507496 -459139,-6507501 -459135,-6507508 -459130,-6507514 -459124,-6507517 -459102,-6507522 -459097,-6507524 -459082,-6507534 -459076,-6507539 -459073,-6507545 -459072,-6507548 -459072,-6507554 -459075,-6507561 -459084,-6507569 -459097,-6507578 -459109,-6507581 -459132,-6507583 -459141,-6507586 -459152,-6507591 -459162,-6507598 -459169,-6507605 -459191,-6507628 -459195,-6507636 -459195,-6507650 -459196,-6507652 -459198,-6507655 -459201,-6507656 -459205,-6507656 -459217,-6507653 -459236,-6507648 -459240,-6507647 -459244,-6507649 -459248,-6507651 -459250,-6507655 -459254,-6507666 -459255,-6507670 -459254,-6507678 -459250,-6507698 -459252,-6507705 -459256,-6507707 -459270,-6507708 -459275,-6507710 -459281,-6507713 -459293,-6507723 -459299,-6507730 -459307,-6507744 -459313,-6507750 -459317,-6507752 -459331,-6507754 -459335,-6507756 -459343,-6507766 -459348,-6507767 -459351,-6507767 -459353,-6507765 -459362,-6507756 -459366,-6507754 -459369,-6507753 -459375,-6507753 -459381,-6507754 -459385,-6507756 -459388,-6507758 -459392,-6507763 -459394,-6507768 -459394,-6507774 -459392,-6507780 -459386,-6507789 -459377,-6507801 -459367,-6507812 -459347,-6507830 -459343,-6507834 -459338,-6507842 -459338,-6507844 -459338,-6507846 -459341,-6507848 -459348,-6507849 -459351,-6507848 -459361,-6507840 -459362,-6507840 -459363,-6507841 -459363,-6507844 -459360,-6507850 -459350,-6507873 -459343,-6507885 -459342,-6507890 -459342,-6507895 -459344,-6507898 -459351,-6507899 -459352,-6507900 -459353,-6507903 -459348,-6507917 -459346,-6507922 -459331,-6507941 -459312,-6507976 -459308,-6507981 -459298,-6507989 -459289,-6507994 -459283,-6507997 -459273,-6507999 -459259,-6507997 -459256,-6507998 -459254,-6507999 -459247,-6508013 -459246,-6508019 -459246,-6508024 -459249,-6508029 -459253,-6508033 -459257,-6508036 -459262,-6508036 -459270,-6508032 -459278,-6508025 -459286,-6508018 -459296,-6508006 -459301,-6508005 -459303,-6508006 -459305,-6508009 -459306,-6508015 -459306,-6508029 -459307,-6508032 -459309,-6508036 -459322,-6508048 -459328,-6508054 -459388,-6508131 -459402,-6508139 -459412,-6508142 -459422,-6508143 -459431,-6508144 -459440,-6508142 -459445,-6508140 -459454,-6508132 -459457,-6508131 -459459,-6508132 -459461,-6508135 -459462,-6508139 -459463,-6508144 -459458,-6508161 -459457,-6508167 -459458,-6508174 -459461,-6508178 -459464,-6508181 -459468,-6508182 -459472,-6508183 -459475,-6508182 -459477,-6508181 -459480,-6508171 -459482,-6508169 -459484,-6508169 -459487,-6508170 -459500,-6508185 -459500,-6508188 -459500,-6508191 -459488,-6508202 -459485,-6508208 -459484,-6508215 -459483,-6508222 -459484,-6508230 -459489,-6508249 -459489,-6508253 -459486,-6508270 -459486,-6508274 -459491,-6508282 -459496,-6508288 -459499,-6508289 -459504,-6508290 -459509,-6508287 -459518,-6508277 -459520,-6508275 -459529,-6508273 -459532,-6508273 -459535,-6508274 -459538,-6508277 -459539,-6508282 -459542,-6508301 -459545,-6508308 -459548,-6508310 -459555,-6508315 -459568,-6508323 -459579,-6508329 -459592,-6508333 -459601,-6508333 -459620,-6508327 -459628,-6508326 -459630,-6508326 -459632,-6508327 -459634,-6508329 -459632,-6508333 -459623,-6508340 -459621,-6508343 -459613,-6508358 -459608,-6508364 -459600,-6508371 -459592,-6508377 -459576,-6508384 -459545,-6508391 -459531,-6508395 -459525,-6508399 -459513,-6508409 -459487,-6508443 -459473,-6508459 -459469,-6508468 -459465,-6508477 -459464,-6508482 -459464,-6508485 -459466,-6508489 -459469,-6508492 -459471,-6508493 -459477,-6508492 -459494,-6508484 -459539,-6508472 -459564,-6508461 -459574,-6508458 -459585,-6508458 -459612,-6508462 -459651,-6508466 -459652,-6508468 -459652,-6508473 -459651,-6508480 -459649,-6508486 -459646,-6508489 -459643,-6508491 -459620,-6508500 -459604,-6508512 -459601,-6508516 -459600,-6508519 -459600,-6508522 -459602,-6508525 -459604,-6508528 -459620,-6508539 -459628,-6508543 -459640,-6508547 -459655,-6508550 -459678,-6508553 -459725,-6508553 -459735,-6508550 -459739,-6508547 -459743,-6508543 -459747,-6508537 -459750,-6508530 -459752,-6508524 -459752,-6508518 -459751,-6508512 -459749,-6508506 -459744,-6508498 -459739,-6508491 -459732,-6508486 -459716,-6508479 -459714,-6508477 -459712,-6508475 -459711,-6508472 -459715,-6508465 -459719,-6508462 -459723,-6508460 -459728,-6508459 -459733,-6508460 -459735,-6508461 -459745,-6508468 -459747,-6508468 -459749,-6508465 -459749,-6508463 -459746,-6508455 -459747,-6508447 -459751,-6508438 -459754,-6508434 -459758,-6508432 -459762,-6508432 -459768,-6508432 -459802,-6508444 -459811,-6508448 -459824,-6508457 -459840,-6508471 -459843,-6508475 -459844,-6508479 -459844,-6508484 -459843,-6508488 -459841,-6508492 -459834,-6508500 -459830,-6508503 -459826,-6508503 -459813,-6508503 -459811,-6508503 -459810,-6508505 -459810,-6508508 -459811,-6508510 -459814,-6508514 -459818,-6508517 -459823,-6508518 -459834,-6508515 -459839,-6508515 -459845,-6508516 -459851,-6508519 -459856,-6508522 -459860,-6508526 -459863,-6508531 -459864,-6508536 -459864,-6508540 -459863,-6508543 -459860,-6508546 -459847,-6508555 -459845,-6508557 -459843,-6508560 -459843,-6508563 -459844,-6508568 -459850,-6508574 -459865,-6508583 -459874,-6508585 -459895,-6508584 -459899,-6508585 -459902,-6508586 -459904,-6508588 -459905,-6508592 -459905,-6508597 -459903,-6508603 -459896,-6508614 -459890,-6508619 -459872,-6508627 -459867,-6508632 -459863,-6508637 -459861,-6508641 -459861,-6508645 -459862,-6508648 -459867,-6508651 -459891,-6508658 -459896,-6508660 -459899,-6508663 -459904,-6508670 -459911,-6508690 -459914,-6508694 -459917,-6508696 -459923,-6508698 -459927,-6508698 -459946,-6508692 -459956,-6508691 -459961,-6508691 -459964,-6508693 -459966,-6508696 -459967,-6508699 -459964,-6508711 -459964,-6508715 -459965,-6508719 -459969,-6508724 -459974,-6508729 -459980,-6508733 -459992,-6508739 -459997,-6508744 -460000,-6508748 -460003,-6508756 -460335,-6508730 -460339,-6508755 -460028,-6508781 -460009,-6508813 -460005,-6508819 -459991,-6508831 -459987,-6508835 -459979,-6508853 -459973,-6508862 -459948,-6508886 -459945,-6508888 -459941,-6508890 -459940,-6508890 -459938,-6508891 -459926,-6508887 -459923,-6508888 -459921,-6508890 -459919,-6508896 -459914,-6508902 -459913,-6508903 -459905,-6508903 -459911,-6508903 -459907,-6508904 -459933,-6508963 -460026,-6509178 -460029,-6509185 -460047,-6509225 -460047,-6509226 -460136,-6509429 -460147,-6509428 -460176,-6509420 -460184,-6509416 -460193,-6509410 -460199,-6509405 -460210,-6509390 -460216,-6509385 -460220,-6509384 -460237,-6509382 -460245,-6509380 -460272,-6509366 -460279,-6509364 -460304,-6509359 -460313,-6509359 -460321,-6509360 -460354,-6509366 -460376,-6509369 -460389,-6509370 -460393,-6509369 -460396,-6509367 -460399,-6509365 -460407,-6509349 -460413,-6509342 -460423,-6509334 -460433,-6509327 -460445,-6509322 -460453,-6509319 -460480,-6509310 -460492,-6509305 -460499,-6509304 -460503,-6509305 -460505,-6509306 -460511,-6509327 -460509,-6509332 -460510,-6509332 -460524,-6509362 -460481,-6509371 -460484,-6509387 -460497,-6509385 -460543,-6509383 -460554,-6509383 -460556,-6509382 -460558,-6509381 -460559,-6509379 -460558,-6509374 -460549,-6509361 -460537,-6509338 -460537,-6509337 -460541,-6509336 -460546,-6509338 -460549,-6509341 -460566,-6509357 -460570,-6509363 -460583,-6509394 -460583,-6509401 -460581,-6509406 -460579,-6509407 -460568,-6509409 -460568,-6509410 -460577,-6509434 -460579,-6509440 -460581,-6509442 -460583,-6509443 -460612,-6509418 -460618,-6509416 -460622,-6509415 -460644,-6509415 -460649,-6509414 -460669,-6509407 -460679,-6509407 -460698,-6509412 -460704,-6509413 -460731,-6509414 -460738,-6509415 -460749,-6509420 -460754,-6509421 -460762,-6509418 -460766,-6509418 -460767,-6509419 -460770,-6509429 -460776,-6509436 -460782,-6509440 -460792,-6509441 -460796,-6509444 -460798,-6509449 -460802,-6509470 -460805,-6509474 -460811,-6509476 -460818,-6509477 -460820,-6509476 -460821,-6509471 -460818,-6509458 -460819,-6509451 -460812,-6509433 -460843,-6509430 -460851,-6509459 -460852,-6509469 -460877,-6509467 -460900,-6509469 -460909,-6509469 -460936,-6509461 -460941,-6509461 -460956,-6509466 -460965,-6509467 -460976,-6509467 -460984,-6509465 -460991,-6509462 -460997,-6509458 -461008,-6509447 -461011,-6509442 -461014,-6509435 -461016,-6509426 -461018,-6509405 -461037,-6509405 -461039,-6509396 -461042,-6509388 -461048,-6509379 -461056,-6509370 -461064,-6509364 -461075,-6509358 -461086,-6509354 -461091,-6509354 -461104,-6509356 -461131,-6509366 -461138,-6509370 -461143,-6509376 -461148,-6509387 -461152,-6509404 -461154,-6509435 -461163,-6509435 -461169,-6509437 -461180,-6509444 -461184,-6509445 -461202,-6509447 -461207,-6509448 -461209,-6509450 -461210,-6509451 -461208,-6509457 -461208,-6509458 -461228,-6509471 -461231,-6509475 -461237,-6509492 -461252,-6509509 -461260,-6509520 -461265,-6509524 -461278,-6509529 -461285,-6509534 -461311,-6509532 -461327,-6509534 -461341,-6509530 -461348,-6509534 -461347,-6509536 -461358,-6509528 -461371,-6509526 -461379,-6509526 -461404,-6509528 -461424,-6509531 -461435,-6509534 -461445,-6509534 -461447,-6509532 -461454,-6509522 -461459,-6509510 -461461,-6509508 -461465,-6509506 -461476,-6509509 -461479,-6509510 -461483,-6509509 -461490,-6509500 -461495,-6509497 -461503,-6509498 -461511,-6509501 -461515,-6509505 -461522,-6509518 -461524,-6509521 -461529,-6509524 -461535,-6509527 -461539,-6509527 -461542,-6509527 -461549,-6509522 -461553,-6509517 -461552,-6509480 -461580,-6509444 -461599,-6509426 -461609,-6509415 -461639,-6509379 -461682,-6509379 -461732,-6509372 -461738,-6509370 -461744,-6509366 -461757,-6509355 -461766,-6509347 -461767,-6509345 -461768,-6509343 -461766,-6509339 -461764,-6509336 -461756,-6509329 -461755,-6509327 -461754,-6509323 -461755,-6509320 -461758,-6509318 -461770,-6509320 -461774,-6509319 -461778,-6509316 -461780,-6509313 -461780,-6509309 -461776,-6509301 -461776,-6509299 -461778,-6509294 -461785,-6509289 -461787,-6509287 -461788,-6509274 -461789,-6509271 -461795,-6509266 -461795,-6509265 -461815,-6509255 -461856,-6509240 -461867,-6509239 -461881,-6509240 -461915,-6509254 -461918,-6509257 -461926,-6509269 -461951,-6509297 -461967,-6509311 -461981,-6509321 -461996,-6509330 -462008,-6509336 -462032,-6509347 -462043,-6509350 -462049,-6509352 -462060,-6509351 -462262,-6509285 -462245,-6509274 -462287,-6509259 -462719,-6509102 -462714,-6509097 -462713,-6509092 -462714,-6509087 -462715,-6509085 -462743,-6509068 -462756,-6509065 -462760,-6509063 -462766,-6509052 -462771,-6509047 -462776,-6509045 -462790,-6509043 -462798,-6509035 -462802,-6509031 -462816,-6509024 -462839,-6509019 -462849,-6509017 -462859,-6509017 -462865,-6509017 -462880,-6509020 -462923,-6509032 -462938,-6509034 -462948,-6509034 -462965,-6509033 -463000,-6509027 -463059,-6509026 -463101,-6509028 -463111,-6509028 -463125,-6509028 -463135,-6509026 -463144,-6509024 -463149,-6509021 -463163,-6509011 -463169,-6509009 -463183,-6509009 -463186,-6509008 -463190,-6509006 -463205,-6508997 -463210,-6508995 -463221,-6508991 -463238,-6508988 -463274,-6508984 -463293,-6508980 -463313,-6508972 -463328,-6508963 -463341,-6508960 -463345,-6508958 -463348,-6508954 -463362,-6508930 -463366,-6508921 -463370,-6508900 -463373,-6508893 -463385,-6508874 -463392,-6508856 -463396,-6508833 -463401,-6508820 -463413,-6508795 -463463,-6508733 -463498,-6508676 -463501,-6508674 -463523,-6508670 -463533,-6508672 -463539,-6508673 -463555,-6508671 -463563,-6508672 -463579,-6508678 -463586,-6508683 -463601,-6508695 -463608,-6508700 -463626,-6508705 -463636,-6508710 -463667,-6508728 -463679,-6508746 -463712,-6508739 -463735,-6508739 -463798,-6508735 -463812,-6508736 -463816,-6508737 -463827,-6508742 -463871,-6508770 -463882,-6508779 -463887,-6508786 -463889,-6508794 -463903,-6508813 -463908,-6508822 -463910,-6508827 -463911,-6508831 -463911,-6508862 -463910,-6508870 -463909,-6508876 -463903,-6508892 -463893,-6508913 -463903,-6508919 -463885,-6509170 -463715,-6509265 -463703,-6509242 -463733,-6509224 -463690,-6509146 -463643,-6509172 -463597,-6509199 -463643,-6509275 -463676,-6509258 -463688,-6509283 -463530,-6509376 -463519,-6509367 -463496,-6509380 -463483,-6509407 -463485,-6509442 -463501,-6509473 -463495,-6509494 -463504,-6509541 -463514,-6509567 -463526,-6509581 -463543,-6509581 -463567,-6509610 -463599,-6509657 -463585,-6509701 -463581,-6509736 -463591,-6509756 -463610,-6509767 -463581,-6509799 -463567,-6509828 -463598,-6509825 -463615,-6509812 -463622,-6509797 -463664,-6509762 -463694,-6509736 -463750,-6509688 -463752,-6509689 -463763,-6509701 -463764,-6509724 -463818,-6509834 -463835,-6509885 -463832,-6509905 -463819,-6509935 -463794,-6509983 -463825,-6509998 -463852,-6510011 -463853,-6510010 -463875,-6509974 -463885,-6509958 -463895,-6509942 -463886,-6509910 -463861,-6509844 -463854,-6509823 -463849,-6509804 -463846,-6509792 -463845,-6509774 -463848,-6509749 -463833,-6509724 -463839,-6509720 -463850,-6509737 -463851,-6509738 -463858,-6509733 -463854,-6509725 -463847,-6509715 -463859,-6509706 -463867,-6509689 -463872,-6509684 -463882,-6509700 -463895,-6509690 -463886,-6509678 -463894,-6509663 -463903,-6509652 -464027,-6509572 -464153,-6509652 -464166,-6509661 -464153,-6509679 -464153,-6509711 -464169,-6509724 -464172,-6509733 -464187,-6509744 -464191,-6509747 -464197,-6509736 -464211,-6509745 -464220,-6509753 -464222,-6509754 -464245,-6509753 -464260,-6509754 -464278,-6509758 -464285,-6509761 -464298,-6509770 -464332,-6509802 -464369,-6509813 -464383,-6509815 -464385,-6509818 -464391,-6509821 -464395,-6509824 -464401,-6509843 -464416,-6509847 -464459,-6509844 -464475,-6509833 -464477,-6509832 -464594,-6509781 -464610,-6509774 -464618,-6509771 -464625,-6509769 -464685,-6509769 -464758,-6509765 -464760,-6509774 -464815,-6509766 -464809,-6509748 -464810,-6509744 -464815,-6509741 -464830,-6509741 -464863,-6509751 -465008,-6509734 -465014,-6509735 -465016,-6509737 -465018,-6509742 -465018,-6509746 -465015,-6509750 -465012,-6509751 -465007,-6509752 -464993,-6509753 -464993,-6509755 -464995,-6509765 -464998,-6509773 -465023,-6509785 -465035,-6509783 -465045,-6509778 -465042,-6509737 -465045,-6509730 -465047,-6509728 -465080,-6509723 -465087,-6509703 -465102,-6509700 -465107,-6509704 -465118,-6509720 -465118,-6509720 -465139,-6509713 -465138,-6509708 -465143,-6509706 -465149,-6509704 -465183,-6509701 -465190,-6509718 -465199,-6509711 -465210,-6509712 -465206,-6509694 -465226,-6509692 -465375,-6509721 -465383,-6509730 -465388,-6509740 -465378,-6509767 -465419,-6509783 -465488,-6509818 -465515,-6509839 -465552,-6509866 -465552,-6509866 -465565,-6509849 -465568,-6509797 -465479,-6509738 -465485,-6509724 -465656,-6509836 -465647,-6509850 -465581,-6509808 -465579,-6509843 -465607,-6509863 -465596,-6509886 -465610,-6509887 -465611,-6509893 -465616,-6509904 -465625,-6509927 -465652,-6509947 -465679,-6509985 -465692,-6509981 -465736,-6510007 -465749,-6510001 -465756,-6510024 -465757,-6510026 -465832,-6510079 -465825,-6510092 -465813,-6510105 -465800,-6510115 -465792,-6510119 -465784,-6510123 -465685,-6510154 -465462,-6510229 -465473,-6510258 -465695,-6510180 -465901,-6510112 -465910,-6510106 -465918,-6510106 -465920,-6510117 -465906,-6510335 -465838,-6510390 -465830,-6510387 -465821,-6510371 -465813,-6510367 -465713,-6510402 -465704,-6510416 -465680,-6510425 -465667,-6510418 -465560,-6510455 -465556,-6510481 -465576,-6510497 -465682,-6510463 -465693,-6510453 -465714,-6510445 -465717,-6510454 -465721,-6510463 -465705,-6510472 -465717,-6510519 -465850,-6510473 -465855,-6510420 -465875,-6510401 -465898,-6510408 -465893,-6510485 -465832,-6510524 -465632,-6510580 -465622,-6510589 -465618,-6510598 -465608,-6510600 -465613,-6510614 -465619,-6510613 -465636,-6510618 -465643,-6510621 -465841,-6510562 -465894,-6510553 -465886,-6510618 -465858,-6510633 -465682,-6510653 -465664,-6510668 -465653,-6510672 -465654,-6510684 -465670,-6510686 -465690,-6510698 -465862,-6510675 -465888,-6510679 -465883,-6510705 -465878,-6510732 -465864,-6510734 -465815,-6510744 -465706,-6510724 -465687,-6510732 -465685,-6510749 -465701,-6510760 -465810,-6510775 -465862,-6510786 -465842,-6510831 -465828,-6510865 -465808,-6510866 -465801,-6510882 -465794,-6510881 -465779,-6510924 -465778,-6510925 -465778,-6510926 -465802,-6510927 -465804,-6510905 -465817,-6510904 -465810,-6510954 -465800,-6510953 -465801,-6510932 -465777,-6510929 -465771,-6510941 -465769,-6510954 -465779,-6510994 -465787,-6511009 -465801,-6511025 -465800,-6511181 -465770,-6511230 -465770,-6511303 -465770,-6511315 -465741,-6511324 -465721,-6511329 -465727,-6511348 -465773,-6511332 -465781,-6511361 -465785,-6511385 -465799,-6511453 -465787,-6511479 -465788,-6511481 -465791,-6511508 -465771,-6511514 -465789,-6511642 -465800,-6511722 -465804,-6511761 -465812,-6511803 -465818,-6511807 -465824,-6511888 -465851,-6511934 -465845,-6511970 -465862,-6512049 -465928,-6512353 -465913,-6512360 -465921,-6512396 -465931,-6512395 -465939,-6512396 -465973,-6512545 -466032,-6512648 -466041,-6512667 -466057,-6512697 -466083,-6512692 -466068,-6512556 -466088,-6512553 -466118,-6512821 -466125,-6512892 -466138,-6513008 -466152,-6513010 -466156,-6513041 -466198,-6513040 -466198,-6513005 -466235,-6513002 -466241,-6513006 -466439,-6513677 -466467,-6513769 -466455,-6513782 -466431,-6513787 -466446,-6513843 -466477,-6513833 -466482,-6513837 -466488,-6513842 -466498,-6513887 -466647,-6514007 -466759,-6514098 -466840,-6514333 -466888,-6514469 -466934,-6514457 -466938,-6514473 -466922,-6514477 -466923,-6514479 -466949,-6514557 -466969,-6514565 -466990,-6514565 -467004,-6514556 -467028,-6514559 -467038,-6514550 -467039,-6514550 -467048,-6514511 -467057,-6514505 -467072,-6514506 -467086,-6514501 -467158,-6514536 -467222,-6514566 -467329,-6514623 -467419,-6514690 -467419,-6514702 -467400,-6514701 -467376,-6514685 -467365,-6514687 -467358,-6514672 -467340,-6514672 -467316,-6514679 -467349,-6514696 -467394,-6514715 -467412,-6514733 -467470,-6514769 -467477,-6514749 -467575,-6514856 -467640,-6514920 -467678,-6514966 -467698,-6514987 -467710,-6514999 -467727,-6515018 -467747,-6515038 -467759,-6515046 -467776,-6515056 -467797,-6515064 -467832,-6515073 -467859,-6515079 -467882,-6515087 -467896,-6515105 -467904,-6515120 -467914,-6515138 -467930,-6515164 -467936,-6515172 -467945,-6515181 -467974,-6515198 -468043,-6515259 -468059,-6515275 -468087,-6515314 -468104,-6515371 -468129,-6515440 -468139,-6515480 -468152,-6515523 -468159,-6515551 -468161,-6515587 -468153,-6515663 -468150,-6515703 -468136,-6515731 -468146,-6515740 -468146,-6515749 -468119,-6515790 -468114,-6515786 -468097,-6515809 -468102,-6515813 -468075,-6515852 -468058,-6515848 -468042,-6515876 -467993,-6515957 -467993,-6515958 -467945,-6516043 -467918,-6516108 -467904,-6516146 -467872,-6516236 -467867,-6516259 -467837,-6516358 -467823,-6516443 -467821,-6516503 -467821,-6516540 -467826,-6516542 -467834,-6516595 -467842,-6516596 -467829,-6516629 -467824,-6516638 -467821,-6516646 -467815,-6516665 -467814,-6516666 -467807,-6516675 -467778,-6516706 -467772,-6516714 -467768,-6516722 -467737,-6516752 -467712,-6516791 -467702,-6516847 -467699,-6516904 -467713,-6516937 -467713,-6516983 -467719,-6517028 -467707,-6517065 -467701,-6517095 -467703,-6517127 -467727,-6517131 -467726,-6517160 -467720,-6517195 -467710,-6517237 -467707,-6517252 -467688,-6517247 -467679,-6517273 -467672,-6517303 -467681,-6517360 -467673,-6517411 -467673,-6517416 -467669,-6517472 -467637,-6517533 -467580,-6517663 -467550,-6517693 -467608,-6517692 -467785,-6517689 -467920,-6517686 -467915,-6517820 -467910,-6517832 -467908,-6517841 -467907,-6517854 -467907,-6517868 -467908,-6517875 -467917,-6517962 -467920,-6517999 -467922,-6518029 -467923,-6518060 -467925,-6518085 -467932,-6518122 -467948,-6518184 -467964,-6518259 -467971,-6518293 -467982,-6518360 -467990,-6518409 -467993,-6518439 -467994,-6518565 -467992,-6518617 -467989,-6518641 -467994,-6518687 -468000,-6518828 -468003,-6518944 -468003,-6518947 -468004,-6519048 -467999,-6519111 -467997,-6519133 -467995,-6519149 -467986,-6519215 -467965,-6519349 -467954,-6519435 -467925,-6519513 -467895,-6519580 -467882,-6519629 -467880,-6519691 -467877,-6519771 -467869,-6519829 -467853,-6519880 -467834,-6519949 -467794,-6520059 -467763,-6520124 -467721,-6520203 -467672,-6520286 -467654,-6520340 -467625,-6520415 -467590,-6520488 -467583,-6520501 -467573,-6520518 -467558,-6520543 -467548,-6520561 -467509,-6520622 -467461,-6520693 -467421,-6520738 -467388,-6520775 -467364,-6520805 -467316,-6520892 -467302,-6520915 -467213,-6520898 -467157,-6520883 -467127,-6520876 -467066,-6520866 -467021,-6520858 -466708,-6520801 -466642,-6520787 -466560,-6520766 -466550,-6520761 -466531,-6520751 -466515,-6520740 -466510,-6520736 -466455,-6520687 -466386,-6520619 -466283,-6520529 -466256,-6520508 -466234,-6520494 -466211,-6520477 -466174,-6520446 -466166,-6520437 -466156,-6520419 -466149,-6520404 -466145,-6520391 -466142,-6520381 -466139,-6520358 -466140,-6520319 -466141,-6520313 -466145,-6520294 -466159,-6520255 -466157,-6520206 -466151,-6520179 -466126,-6520132 -466064,-6520063 -466060,-6520059 -466055,-6520056 -466044,-6520055 -466038,-6520057 -466007,-6520058 -465988,-6520061 -465977,-6520062 -465968,-6520061 -465961,-6520059 -465950,-6520051 -465922,-6520020 -465916,-6520015 -465902,-6520007 -465892,-6520000 -465878,-6519995 -465872,-6519994 -465862,-6519995 -465857,-6519997 -465807,-6520030 -465796,-6520049 -465774,-6520080 -465747,-6520126 -465726,-6520153 -465703,-6520178 -465670,-6520216 -465664,-6520221 -465656,-6520226 -465647,-6520231 -465637,-6520234 -465627,-6520236 -465619,-6520236 -465571,-6520229 -465559,-6520226 -465539,-6520218 -465519,-6520215 -465506,-6520211 -465496,-6520209 -465482,-6520208 -465473,-6520207 -465373,-6520189 -465345,-6520181 -465335,-6520177 -465251,-6520122 -465244,-6520118 -465238,-6520114 -465233,-6520109 -465231,-6520104 -465224,-6520084 -465224,-6520060 -465234,-6519977 -465229,-6519938 -465227,-6519889 -465225,-6519874 -465221,-6519865 -465217,-6519857 -465209,-6519846 -465194,-6519831 -465181,-6519821 -465123,-6519804 -465098,-6519794 -465081,-6519788 -465073,-6519786 -465062,-6519785 -465040,-6519786 -465033,-6519786 -465026,-6519785 -465016,-6519781 -465002,-6519775 -464989,-6519767 -464966,-6519752 -464956,-6519747 -464948,-6519743 -464941,-6519741 -464936,-6519740 -464898,-6519740 -464743,-6519790 -464734,-6519812 -464714,-6519842 -464710,-6519847 -464703,-6519854 -464695,-6519860 -464686,-6519866 -464675,-6519872 -464664,-6519876 -464653,-6519878 -464642,-6519879 -464617,-6519876 -464592,-6519878 -464570,-6519881 -464529,-6519895 -464523,-6519894 -464516,-6519895 -464512,-6519898 -464509,-6519902 -464507,-6519907 -464506,-6519914 -464506,-6519920 -464509,-6519931 -464514,-6519960 -464514,-6519966 -464513,-6519973 -464510,-6519981 -464503,-6519992 -464490,-6520022 -464475,-6520047 -464468,-6520054 -464463,-6520058 -464451,-6520063 -464445,-6520065 -464414,-6520067 -464349,-6520063 -464315,-6520052 -464288,-6520045 -464281,-6520045 -464269,-6520047 -464264,-6520047 -464259,-6520046 -464254,-6520043 -464249,-6520037 -464239,-6520010 -464232,-6519966 -464183,-6519905 -464150,-6519880 -464143,-6519874 -464136,-6519872 -464134,-6519872 -464105,-6519901 -464083,-6519913 -464070,-6519922 -464061,-6519927 -464038,-6519934 -464029,-6519938 -464020,-6519944 -464014,-6519950 -464008,-6519957 -463998,-6519973 -463986,-6520001 -463974,-6520034 -463971,-6520040 -463967,-6520047 -463962,-6520053 -463941,-6520069 -463933,-6520073 -463928,-6520074 -463918,-6520074 -463913,-6520072 -463906,-6520068 -463841,-6520069 -463829,-6520071 -463820,-6520076 -463815,-6520080 -463808,-6520088 -463802,-6520097 -463797,-6520107 -463791,-6520122 -463786,-6520131 -463785,-6520138 -463783,-6520143 -463781,-6520148 -463778,-6520152 -463770,-6520158 -463747,-6520184 -463733,-6520197 -463716,-6520225 -463705,-6520233 -463683,-6520247 -463679,-6520249 -463680,-6520259 -463678,-6520266 -463676,-6520269 -463668,-6520275 -463664,-6520281 -463663,-6520285 -463663,-6520291 -463663,-6520302 -463665,-6520307 -463667,-6520311 -463673,-6520318 -463698,-6520350 -463701,-6520356 -463701,-6520360 -463698,-6520370 -463695,-6520381 -463693,-6520385 -463690,-6520389 -463681,-6520395 -463676,-6520398 -463660,-6520403 -463641,-6520411 -463632,-6520417 -463624,-6520423 -463618,-6520429 -463595,-6520460 -463573,-6520480 -463543,-6520512 -463532,-6520520 -463520,-6520531 -463511,-6520545 -463507,-6520553 -463503,-6520565 -463466,-6520645 -463475,-6520653 -463475,-6520653 -463480,-6520657 -463513,-6520685 -463519,-6520702 -463538,-6520763 -463552,-6520820 -463596,-6520832 -463614,-6520833 -463610,-6520851 -463599,-6520881 -463608,-6520905 -463628,-6520938 -463632,-6520947 -463648,-6520993 -463664,-6521030 -463679,-6521079 -463631,-6521107 -463584,-6521128 -463529,-6521160 -463507,-6521173 -463492,-6521182 -463424,-6521210 -463352,-6521223 -463326,-6521229 -463268,-6521245 -463230,-6521258 -463123,-6521294 -463104,-6521303 -463084,-6521314 -463062,-6521333 -463021,-6521373 -462992,-6521412 -462970,-6521434 -462963,-6521443 -462930,-6521494 -462919,-6521510 -462894,-6521541 -462870,-6521567 -462755,-6521682 -462741,-6521700 -462740,-6521701 -462734,-6521707 -462710,-6521714 -462680,-6521732 -462676,-6521735 -462670,-6521741 -462666,-6521748 -462665,-6521752 -462666,-6521787 -462664,-6521809 -462661,-6521823 -462656,-6521837 -462647,-6521857 -462638,-6521893 -462634,-6521921 -462631,-6521955 -462626,-6521989 -462623,-6522025 -462617,-6522080 -462615,-6522102 -462616,-6522127 -462621,-6522174 -462627,-6522203 -462405,-6522211 -462405,-6522221 -462100,-6522239 -462092,-6522169 -462075,-6522007 -462074,-6521979 -462075,-6521956 -462077,-6521929 -462083,-6521894 -462087,-6521708 -462064,-6521632 -462058,-6521604 -462032,-6521595 -462001,-6521656 -461959,-6521637 -461907,-6521636 -461889,-6521579 -461825,-6521596 -461807,-6521556 -461787,-6521498 -461775,-6521468 -461742,-6521430 -461709,-6521388 -461642,-6521319 -461620,-6521292 -461606,-6521284 -461594,-6521272 -461589,-6521287 -461531,-6521282 -461526,-6521284 -461523,-6521286 -461522,-6521289 -461522,-6521292 -461526,-6521304 -461526,-6521310 -461525,-6521320 -461523,-6521326 -461517,-6521337 -461506,-6521349 -461500,-6521354 -461492,-6521359 -461444,-6521383 -461434,-6521390 -461422,-6521400 -461412,-6521410 -461406,-6521418 -461394,-6521436 -461388,-6521451 -461376,-6521485 -461356,-6521483 -461347,-6521483 -461338,-6521485 -461325,-6521490 -461311,-6521501 -461300,-6521501 -461292,-6521519 -461274,-6521521 -461266,-6521533 -461230,-6521541 -461214,-6521553 -461199,-6521563 -461179,-6521578 -461157,-6521572 -461145,-6521555 -461121,-6521581 -461103,-6521593 -461096,-6521593 -461092,-6521594 -461088,-6521596 -461082,-6521603 -461066,-6521617 -461062,-6521622 -461058,-6521632 -461043,-6521651 -461030,-6521650 -461010,-6521650 -460998,-6521658 -460994,-6521653 -460990,-6521650 -460986,-6521648 -460983,-6521647 -460974,-6521650 -460963,-6521650 -460919,-6521669 -460879,-6521661 -460876,-6521659 -460873,-6521656 -460871,-6521653 -460868,-6521641 -460866,-6521639 -460863,-6521638 -460860,-6521638 -460849,-6521643 -460842,-6521645 -460818,-6521662 -460804,-6521664 -460792,-6521668 -460789,-6521659 -460792,-6521647 -460791,-6521634 -460791,-6521632 -460790,-6521629 -460783,-6521626 -460773,-6521625 -460768,-6521628 -460761,-6521637 -460753,-6521641 -460726,-6521621 -460701,-6521623 -460658,-6521594 -460653,-6521591 -460648,-6521589 -460636,-6521588 -460604,-6521593 -460589,-6521592 -460537,-6521590 -460512,-6521585 -460481,-6521585 -460429,-6521579 -460379,-6521591 -460368,-6521601 -460361,-6521605 -460344,-6521612 -460289,-6521620 -460278,-6521622 -460251,-6521635 -460245,-6521642 -460221,-6521643 -460210,-6521646 -460207,-6521656 -460185,-6521654 -460182,-6521655 -460171,-6521662 -460167,-6521663 -460160,-6521664 -460147,-6521664 -460140,-6521662 -460128,-6521664 -460121,-6521667 -460114,-6521671 -460105,-6521678 -460101,-6521679 -460094,-6521679 -460081,-6521681 -460078,-6521682 -460067,-6521690 -460056,-6521691 -460047,-6521694 -460038,-6521697 -460026,-6521704 -460018,-6521711 -460004,-6521717 -459997,-6521718 -459986,-6521718 -459968,-6521721 -459941,-6521737 -459855,-6521779 -459812,-6521804 -459777,-6521804 -459754,-6521824 -459729,-6521829 -459718,-6521830 -459711,-6521831 -459696,-6521837 -459679,-6521851 -459639,-6521871 -459618,-6521880 -459604,-6521888 -459602,-6521895 -459599,-6521897 -459596,-6521898 -459588,-6521895 -459584,-6521895 -459553,-6521915 -459508,-6521938 -459487,-6521947 -459471,-6521963 -459469,-6521974 -459468,-6521977 -459465,-6521980 -459461,-6521981 -459446,-6521983 -459441,-6521984 -459437,-6521986 -459408,-6522004 -459403,-6522006 -459396,-6522007 -459376,-6522005 -459368,-6522005 -459344,-6522010 -459326,-6522011 -459308,-6522013 -459301,-6522019 -459275,-6522030 -459265,-6522041 -459203,-6522063 -459185,-6522073 -459179,-6522077 -459156,-6522102 -459130,-6522133 -459126,-6522140 -459125,-6522144 -459125,-6522149 -459132,-6522177 -459150,-6522272 -459186,-6522418 -459206,-6522510 -459206,-6522543 -459206,-6522548 -459201,-6522563 -459170,-6522620 -459125,-6522660 -459109,-6522674 -459100,-6522681 -459094,-6522686 -459088,-6522692 -459084,-6522698 -459079,-6522710 -459027,-6522798 -459020,-6522811 -459014,-6522820 -458997,-6522839 -458987,-6522853 -458980,-6522866 -458972,-6522890 -458954,-6522923 -458950,-6522938 -458934,-6522970 -458925,-6522972 -458908,-6522980 -458873,-6523009 -458848,-6523036 -458836,-6523045 -458830,-6523050 -458804,-6523062 -458739,-6523100 -458696,-6523117 -458610,-6523165 -458481,-6523227 -458467,-6523237 -458457,-6523245 -458440,-6523261 -458370,-6523326 -458318,-6523383 -458312,-6523392 -458293,-6523419 -458236,-6523372 -458206,-6523350 -458187,-6523362 -457999,-6523491 -457961,-6523524 -457911,-6523553 -457895,-6523518 -457878,-6523485 -457861,-6523458 -457851,-6523446 -457840,-6523433 -457828,-6523422 -457774,-6523379" stroke="white" stroke-width="38" /></ns0:svg>    <rect x="20" y="50"  width="250" height="25"  rx="0"  fill="#E8EDEE" fill-opacity="0.8" />    <text x="145" y="70" text-anchor="middle" font-family="Frutiger" font-weight="bold" font-size="30" fill="#AE2573">Plymouth</text>    <rect x="35" y="195" width="220" height="160" rx="15" fill="#724F95"/>    <g font-family="Frutiger" font-size="15" fill="white">        <g> <text x="45" y="218">Self-harm</text> <text x="245" y="218" text-anchor="end">66</text> </g>        <g> <text x="45" y="243">SEN</text> <text x="245" y="243" text-anchor="end">94</text> </g>        <g> <text x="45" y="268">Difficulties</text> <text x="245" y="268" text-anchor="end">83</text> </g>        <g> <text x="45" y="293">Child Carer</text> <text x="245" y="293" text-anchor="end">39</text> </g>        <g> <text x="45" y="318">Drinkers</text> <text x="245" y="318" text-anchor="end">41</text> </g>        <g> <text x="45" y="343">Safeguarding </text> <text x="245" y="343" text-anchor="end">20</text> </g>    </g></svg>