<?xml version="1.0" standalone="no"?>
<!DOCTYPE svg PUBLIC "-//W3C//DTD SVG 1.1//EN"
"http://www.w3.org/Graphics/SVG/1.1/DTD/svg11.dtd">
<svg height="1800" version="1.1" width="1800" xmlns="http://www.w3.org/2000/svg"><defs><style type="text/css">@font-face {font-family: 'Frutiger';font-style: normal;font-weight: normal;src: local('Frutiger'), url('../fonts/Frutiger.woff') format('woff');}@font-face {font-family: 'Frutiger Bold';font-style: normal;font-weight: normal;src: local('Frutiger Bold'), url('../fonts/Frutiger_bold.woff') format('woff');}        </style>    </defs>    <rect x="20" y="20"  width="250" height="350" rx="15" fill="#AE2573" />    <rect x="35" y="35"  width="220" height="145" rx="15" fill="#330072" /><ns0:svg xmlns:ns0="http://www.w3.org/2000/svg" height="115" version="1.1" viewBox="-342465 -7146691 10360 19388" width="220" x="35" y="50"><ns0:polygon fill="white" points=" -336238,-7143569 -336226,-7143567 -336210,-7143569 -336206,-7143569 -336200,-7143567 -336196,-7143565 -336191,-7143560 -336182,-7143538 -336178,-7143523 -336178,-7143519 -336175,-7143498 -336131,-7143343 -336040,-7143121 -335959,-7142914 -335866,-7142685 -335758,-7142433 -335650,-7142166 -335633,-7142098 -335580,-7141932 -335572,-7141935 -335567,-7141927 -335551,-7141906 -335518,-7141859 -335555,-7141838 -335598,-7141834 -335637,-7141787 -335624,-7141740 -335633,-7141691 -335645,-7141626 -335653,-7141614 -335672,-7141613 -335678,-7141612 -335771,-7141574 -335818,-7141555 -335856,-7141530 -335865,-7141521 -335870,-7141516 -335900,-7141508 -335964,-7141472 -335962,-7141470 -335949,-7141448 -335948,-7141448 -335924,-7141406 -335892,-7141350 -335937,-7141310 -335948,-7141306 -335955,-7141302 -335969,-7141294 -336012,-7141246 -336032,-7141237 -336001,-7141198 -335998,-7141186 -335973,-7141097 -335941,-7140893 -335922,-7140848 -335900,-7140807 -335782,-7140637 -335734,-7140579 -335715,-7140557 -335660,-7140449 -335653,-7140435 -335655,-7140434 -335783,-7140358 -335885,-7140296 -336063,-7140189 -336202,-7140086 -336236,-7140057 -336244,-7140050 -336224,-7139989 -336201,-7139862 -336193,-7139795 -336189,-7139763 -336184,-7139725 -336140,-7139717 -336113,-7139712 -336111,-7139624 -336111,-7139534 -336105,-7139497 -336097,-7139440 -336085,-7139363 -336007,-7139375 -335949,-7139383 -335949,-7139389 -335949,-7139392 -335904,-7139393 -335882,-7139394 -335882,-7139396 -335886,-7139425 -335794,-7139443 -335814,-7139497 -335838,-7139565 -335863,-7139649 -335890,-7139784 -335896,-7139866 -335896,-7139933 -335888,-7139984 -335885,-7139985 -335845,-7140001 -335690,-7140046 -335614,-7139926 -335523,-7139806 -335453,-7139746 -335436,-7139728 -335424,-7139645 -335411,-7139594 -335385,-7139546 -335361,-7139493 -335317,-7139450 -335242,-7139382 -335180,-7139328 -335142,-7139298 -335130,-7139288 -335119,-7139278 -335099,-7139258 -335092,-7139246 -335085,-7139229 -335078,-7139211 -335076,-7139202 -335068,-7139162 -335069,-7139117 -335068,-7139080 -335072,-7139060 -335073,-7139043 -335072,-7139026 -335069,-7139009 -335065,-7138995 -335060,-7138985 -335054,-7138977 -335043,-7138966 -334969,-7138916 -334940,-7138902 -334923,-7138892 -334901,-7138878 -334884,-7138865 -334866,-7138848 -334842,-7138825 -334808,-7138788 -334790,-7138744 -334780,-7138619 -334760,-7138573 -334816,-7138464 -334833,-7138414 -334849,-7138363 -334869,-7138318 -334875,-7138287 -334876,-7138227 -334881,-7138216 -334888,-7138183 -334902,-7138161 -334914,-7138148 -334930,-7138125 -334938,-7138097 -334958,-7138089 -334970,-7138086 -334978,-7138085 -334989,-7138083 -335008,-7138079 -335029,-7138079 -335056,-7138079 -335164,-7138124 -335220,-7138070 -335280,-7138003 -335280,-7137997 -335282,-7137970 -335299,-7137944 -335306,-7137933 -335327,-7137925 -335349,-7137916 -335373,-7137914 -335392,-7137914 -335394,-7137913 -335414,-7137912 -335453,-7137896 -335491,-7137876 -335447,-7137842 -335441,-7137837 -335436,-7137826 -335397,-7137742 -335342,-7137657 -335299,-7137590 -335282,-7137574 -335231,-7137553 -335175,-7137493 -335141,-7137456 -335101,-7137395 -335076,-7137355 -335122,-7137312 -335126,-7137317 -335129,-7137322 -335134,-7137318 -335144,-7137307 -335257,-7137194 -335082,-7137055 -335053,-7137042 -335034,-7137033 -335012,-7137025 -334962,-7137013 -334933,-7137009 -334866,-7137011 -334769,-7136991 -334739,-7136988 -334713,-7136986 -334699,-7136984 -334674,-7136976 -334641,-7136965 -334625,-7136953 -334613,-7136944 -334569,-7136912 -334463,-7136836 -334326,-7136770 -334266,-7136740 -334260,-7136716 -334235,-7136615 -334206,-7136502 -334146,-7136414 -334072,-7136294 -334041,-7136265 -333956,-7136151 -333796,-7136215 -333795,-7136214 -333776,-7136070 -333760,-7135950 -333675,-7135948 -333574,-7135948 -333473,-7135906 -333473,-7135890 -333435,-7135853 -333402,-7135854 -333358,-7135717 -333347,-7135700 -333346,-7135698 -333335,-7135686 -333331,-7135675 -333307,-7135597 -333322,-7135586 -333297,-7135537 -333289,-7135505 -333286,-7135497 -333270,-7135462 -333212,-7135367 -333301,-7135318 -333346,-7135279 -333365,-7135242 -333381,-7135197 -333346,-7135101 -333273,-7134916 -333239,-7134803 -333237,-7134759 -333249,-7134711 -333268,-7134671 -333288,-7134665 -333265,-7134573 -333261,-7134563 -333247,-7134530 -333227,-7134442 -333230,-7134436 -333231,-7134435 -333234,-7134429 -333200,-7134289 -333171,-7134209 -333149,-7134106 -333102,-7133916 -333069,-7133903 -332945,-7133668 -332715,-7133236 -332694,-7133199 -332673,-7133163 -332640,-7133101 -332593,-7133009 -332514,-7132857 -332475,-7132781 -332603,-7132667 -332640,-7132632 -332730,-7132531 -332793,-7132456 -332788,-7132451 -332667,-7132329 -332650,-7132308 -332592,-7132240 -332505,-7132121 -332501,-7132116 -332451,-7132018 -332424,-7131954 -332396,-7131842 -332330,-7131632 -332269,-7131450 -332245,-7131402 -332224,-7131359 -332209,-7131334 -332192,-7131309 -332144,-7131248 -332105,-7131201 -332245,-7131196 -332434,-7131186 -332645,-7131178 -332716,-7131175 -332830,-7131173 -332844,-7131172 -332907,-7131175 -332999,-7131185 -333132,-7131201 -333280,-7131228 -333385,-7131251 -333502,-7131272 -333598,-7131282 -333718,-7131293 -333882,-7131301 -333885,-7131288 -333888,-7131270 -333902,-7131147 -334061,-7131078 -334203,-7131003 -334202,-7131001 -334106,-7130876 -334117,-7130866 -334194,-7130808 -334301,-7130696 -334370,-7130745 -334391,-7130737 -334400,-7130698 -334413,-7130559 -334420,-7130456 -334421,-7130395 -334421,-7130393 -334407,-7130173 -334404,-7130099 -334402,-7130073 -334408,-7130073 -334639,-7130106 -334635,-7130094 -334571,-7129949 -334511,-7129804 -334375,-7129496 -334364,-7129472 -334342,-7129421 -334221,-7129150 -334166,-7129014 -334118,-7128907 -334072,-7128919 -333974,-7128758 -334035,-7128716 -334026,-7128696 -333926,-7128456 -333861,-7128317 -333752,-7128057 -333724,-7128002 -333679,-7127898 -333646,-7127815 -333599,-7127707 -333559,-7127617 -333563,-7127614 -333586,-7127596 -333585,-7127595 -333566,-7127565 -333581,-7127564 -333761,-7127561 -334073,-7127556 -334372,-7127551 -334721,-7127548 -335023,-7127542 -335247,-7127547 -335659,-7127573 -335680,-7127579 -335696,-7127595 -335706,-7127611 -335714,-7127625 -335716,-7127628 -335716,-7127649 -335716,-7127686 -335824,-7127658 -336383,-7127514 -336611,-7127451 -336899,-7127374 -337164,-7127303 -337277,-7127667 -337519,-7128459 -337600,-7128724 -337605,-7128741 -337611,-7128761 -337612,-7128762 -337627,-7128758 -338385,-7128526 -338392,-7128524 -338398,-7128522 -338692,-7128431 -338919,-7128363 -339133,-7128298 -339524,-7128180 -340251,-7127969 -340287,-7127956 -340319,-7127943 -340347,-7127935 -340737,-7127819 -341043,-7127724 -341499,-7127593 -342183,-7127398 -342465,-7127320 -342448,-7127431 -342417,-7127714 -342408,-7127789 -342393,-7127909 -342375,-7128128 -342339,-7128417 -342316,-7128648 -342308,-7128700 -342284,-7128891 -342240,-7129329 -342198,-7129764 -342186,-7129880 -342151,-7130195 -342138,-7130322 -342095,-7130747 -342045,-7131142 -342034,-7131241 -342014,-7131414 -342010,-7131462 -341990,-7131657 -341949,-7132022 -341944,-7132061 -341944,-7132062 -341878,-7132672 -341789,-7133511 -341778,-7133599 -341763,-7133707 -341750,-7133876 -341717,-7134161 -341686,-7134463 -341680,-7134498 -341661,-7134624 -341587,-7135367 -341535,-7135783 -341512,-7136039 -341482,-7136312 -341448,-7136602 -341416,-7136938 -341394,-7137154 -341356,-7137400 -341315,-7137772 -341307,-7137840 -341295,-7137964 -341261,-7138304 -341235,-7138533 -341208,-7138769 -341189,-7138938 -341171,-7139126 -341139,-7139402 -341109,-7139653 -341094,-7139811 -341064,-7140015 -341054,-7140126 -341042,-7140257 -341020,-7140452 -340989,-7140684 -340968,-7140891 -340957,-7141007 -340969,-7141162 -340977,-7141319 -340982,-7141362 -340983,-7141386 -340984,-7141414 -340983,-7141442 -340981,-7141466 -340975,-7141513 -340968,-7141549 -340947,-7141710 -340947,-7141819 -340944,-7141846 -340941,-7141864 -340935,-7141888 -340927,-7141912 -340912,-7141946 -340888,-7142053 -340889,-7142089 -340870,-7142176 -340829,-7142343 -340801,-7142412 -340769,-7142533 -340761,-7142646 -340768,-7142762 -340767,-7142777 -340765,-7142784 -340762,-7142794 -340762,-7142794 -340757,-7142804 -340740,-7142828 -340730,-7142848 -340727,-7142861 -340745,-7142903 -340747,-7142912 -340749,-7142926 -340747,-7142939 -340745,-7142949 -340741,-7142959 -340740,-7142984 -340712,-7143123 -340710,-7143140 -340705,-7143174 -340691,-7143229 -340670,-7143286 -340642,-7143356 -340635,-7143378 -340630,-7143400 -340625,-7143432 -340620,-7143455 -340608,-7143513 -340601,-7143591 -340596,-7143611 -340592,-7143623 -340586,-7143635 -340580,-7143643 -340568,-7143658 -340540,-7143692 -340521,-7143724 -340513,-7143741 -340501,-7143770 -340488,-7143813 -340486,-7143830 -340481,-7143846 -340476,-7143860 -340471,-7143870 -340456,-7143895 -340452,-7143903 -340447,-7143918 -340437,-7143979 -340436,-7144008 -340428,-7144086 -340391,-7144225 -340370,-7144310 -340325,-7144531 -340325,-7144546 -340323,-7144560 -340319,-7144577 -340313,-7144592 -340305,-7144607 -340293,-7144624 -340284,-7144639 -340274,-7144655 -340258,-7144686 -340254,-7144711 -340251,-7144750 -340263,-7144800 -340279,-7144870 -340285,-7144912 -340291,-7144930 -340293,-7144940 -340294,-7144949 -340293,-7144959 -340291,-7144970 -340287,-7144983 -340280,-7145001 -340271,-7145019 -340265,-7145030 -340230,-7145079 -340223,-7145094 -340216,-7145116 -340211,-7145137 -340210,-7145169 -340203,-7145228 -340190,-7145271 -340160,-7145417 -340152,-7145450 -340130,-7145534 -340113,-7145571 -340107,-7145606 -340100,-7145661 -340089,-7145689 -340076,-7145824 -340051,-7145949 -340048,-7145960 -340042,-7145974 -340034,-7145987 -340025,-7145999 -340014,-7146010 -340002,-7146018 -339996,-7146022 -339958,-7146039 -339945,-7146050 -339964,-7146067 -339987,-7146084 -340006,-7146114 -340014,-7146135 -340022,-7146157 -340040,-7146264 -340054,-7146308 -340073,-7146380 -340079,-7146458 -340080,-7146519 -340081,-7146560 -340081,-7146638 -340079,-7146691 -339626,-7146672 -339296,-7146656 -339006,-7146627 -338731,-7146599 -338160,-7146543 -338060,-7146533 -337834,-7146509 -337448,-7146466 -337445,-7146465 -337435,-7146448 -337328,-7146258 -337278,-7146156 -337110,-7145845 -337035,-7145707 -336979,-7145605 -336992,-7145596 -336944,-7145519 -336951,-7145505 -336952,-7145430 -336579,-7145374 -336157,-7145309 -336157,-7145309 -336248,-7145031 -336319,-7144790 -336343,-7144725 -336398,-7144642 -336465,-7144557 -336473,-7144545 -336481,-7144533 -336488,-7144517 -336493,-7144502 -336496,-7144489 -336499,-7144465 -336504,-7144419 -336508,-7144313 -336503,-7144232 -336503,-7144228 -336500,-7144200 -336494,-7144130 -336476,-7144011 -336476,-7144010 -336468,-7143975 -336462,-7143951 -336445,-7143905 -336423,-7143855 -336408,-7143826 -336393,-7143798 -336376,-7143771 -336255,-7143580 -336248,-7143573 -336238,-7143569" stroke="white" stroke-width="29" /></ns0:svg>    <rect x="20" y="50"  width="250" height="25"  rx="0"  fill="#E8EDEE" fill-opacity="0.8" />    <text x="145" y="70" text-anchor="middle" font-family="Frutiger" font-weight="bold" font-size="30" fill="#AE2573">Blackpool</text>    <rect x="35" y="195" width="220" height="160" rx="15" fill="#724F95"/>    <g font-family="Frutiger" font-size="15" fill="white">        <g> <text x="45" y="218">Self-harm</text> <text x="245" y="218" text-anchor="end">100</text> </g>        <g> <text x="45" y="243">SEN</text> <text x="245" y="243" text-anchor="end">61</text> </g>        <g> <text x="45" y="268">Difficulties</text> <text x="245" y="268" text-anchor="end">67</text> </g>        <g> <text x="45" y="293">Child Carer</text> <text x="245" y="293" text-anchor="end">30</text> </g>        <g> <text x="45" y="318">Drinkers</text> <text x="245" y="318" text-anchor="end">35</text> </g>        <g> <text x="45" y="343">Safeguarding £</text> <text x="245" y="343" text-anchor="end">57</text> </g>    </g></svg>