<?xml version="1.0" standalone="no"?>
<!DOCTYPE svg PUBLIC "-//W3C//DTD SVG 1.1//EN"
"http://www.w3.org/Graphics/SVG/1.1/DTD/svg11.dtd">
<svg height="1800" version="1.1" width="1800" xmlns="http://www.w3.org/2000/svg"><defs><style type="text/css">@font-face {font-family: 'Frutiger';font-style: normal;font-weight: normal;src: local('Frutiger'), url('../fonts/Frutiger.woff') format('woff');}@font-face {font-family: 'Frutiger Bold';font-style: normal;font-weight: normal;src: local('Frutiger Bold'), url('../fonts/Frutiger_bold.woff') format('woff');}        </style>    </defs>    <rect x="20" y="20"  width="250" height="350" rx="15" fill="#009639" />    <rect x="35" y="35"  width="220" height="145" rx="15" fill="#E8EDEE" /><ns0:svg xmlns:ns0="http://www.w3.org/2000/svg" height="115" version="1.1" viewBox="69346 -6723964 25162 12945" width="220" x="35" y="50"><ns0:polygon fill="#006747" points=" 71240,-6723905 71553,-6723725 71684,-6723657 71720,-6723634 71749,-6723618 71798,-6723593 71920,-6723538 71977,-6723516 72036,-6723497 72079,-6723487 72164,-6723465 72220,-6723447 72260,-6723436 72347,-6723413 72450,-6723389 72473,-6723380 72503,-6723372 72520,-6723369 72542,-6723367 72565,-6723366 72599,-6723368 72639,-6723362 72785,-6723343 72881,-6723325 72912,-6723320 72987,-6723324 73077,-6723333 73094,-6723334 73163,-6723335 73199,-6723334 73259,-6723330 73484,-6723301 73559,-6723285 73660,-6723266 73682,-6723256 73713,-6723239 73739,-6723221 73744,-6723216 73754,-6723205 73764,-6723197 73774,-6723191 73782,-6723188 73799,-6723184 73809,-6723183 73820,-6723184 73909,-6723205 73962,-6723212 74006,-6723214 74043,-6723213 74088,-6723207 74114,-6723204 74177,-6723227 74329,-6723228 74335,-6723170 74342,-6723141 74385,-6723148 74505,-6723160 74612,-6723171 74693,-6723180 74727,-6723186 74765,-6723194 74805,-6723206 74841,-6723218 74949,-6723232 74949,-6723219 75021,-6723225 75022,-6723236 75177,-6723259 75187,-6723034 75187,-6722772 75240,-6722771 75314,-6722767 75347,-6722765 75449,-6722753 75554,-6722711 75588,-6722696 75636,-6722680 75652,-6722676 75704,-6722665 75782,-6722658 75821,-6722624 75850,-6722602 75869,-6722589 75911,-6722563 75985,-6722547 75987,-6722525 76044,-6722517 76074,-6722509 76118,-6722496 76126,-6722495 76139,-6722493 76151,-6722492 76163,-6722493 76177,-6722495 76193,-6722499 76220,-6722517 76257,-6722548 76271,-6722521 76360,-6722474 76392,-6722466 76430,-6722453 76495,-6722426 76585,-6722419 76698,-6722406 76994,-6722364 77177,-6722335 77340,-6722311 77437,-6722295 77535,-6722279 77770,-6722238 77778,-6722253 77967,-6722227 78174,-6722196 78388,-6722166 78449,-6722206 78482,-6722230 78506,-6722242 78523,-6722255 78553,-6722297 78596,-6722258 78622,-6722230 78649,-6722206 78679,-6722181 78699,-6722167 78728,-6722149 78760,-6722135 78805,-6722121 78839,-6722113 78879,-6722107 78864,-6722069 78853,-6722056 78852,-6722053 78850,-6722030 78850,-6722022 78852,-6722012 78856,-6722000 78860,-6721990 78846,-6721965 78845,-6721958 78844,-6721952 78845,-6721921 78844,-6721909 78842,-6721897 78838,-6721884 78830,-6721864 78826,-6721847 78805,-6721800 78814,-6721775 78817,-6721766 78816,-6721749 78807,-6721723 78975,-6721684 79159,-6721644 79350,-6721599 79565,-6721552 79683,-6721523 79683,-6721457 79827,-6721442 79960,-6721439 80044,-6721434 80029,-6721409 80021,-6721392 80013,-6721375 80006,-6721356 80001,-6721335 79996,-6721313 79979,-6721246 79975,-6721229 79972,-6721203 79970,-6721172 79969,-6721155 79970,-6721124 80083,-6721096 80160,-6721083 80251,-6721060 80430,-6721032 80466,-6721028 80487,-6721027 80518,-6721027 80543,-6721027 80564,-6721029 80608,-6721034 80656,-6721033 80707,-6721035 80814,-6721050 80856,-6721053 80886,-6721052 80898,-6721052 80931,-6721047 80969,-6721040 80988,-6721037 81031,-6721034 81065,-6721034 81089,-6721036 81212,-6721034 81315,-6721044 81314,-6720945 81319,-6720906 81323,-6720855 81412,-6720869 81508,-6720888 81571,-6720892 81633,-6720899 81669,-6720906 81717,-6720919 81747,-6720929 81805,-6720949 81860,-6720979 81953,-6720973 82056,-6720961 82065,-6720962 82072,-6720962 82084,-6720959 82093,-6720954 82101,-6720946 82107,-6720937 82110,-6720926 82111,-6720916 82106,-6720863 82188,-6720849 82229,-6720843 82268,-6720839 82271,-6720838 82332,-6720836 82382,-6720833 82431,-6720831 82445,-6720833 82496,-6720819 82536,-6720864 82555,-6720897 82570,-6720937 82584,-6720937 82637,-6720933 82658,-6720936 82677,-6720928 82726,-6720937 82757,-6720934 82798,-6720933 82802,-6720903 82824,-6720899 82842,-6720902 82853,-6720903 82873,-6720904 82878,-6720902 82895,-6720895 82906,-6720892 82918,-6720889 82942,-6720886 82945,-6720893 82988,-6720886 83008,-6720890 83040,-6720891 83138,-6720873 83180,-6720861 83181,-6720852 83229,-6720843 83263,-6720850 83262,-6720856 83386,-6720841 83386,-6720831 83561,-6720755 83611,-6720723 83688,-6720680 83722,-6720662 83665,-6720597 83665,-6720596 83688,-6720579 83706,-6720568 83725,-6720558 83747,-6720548 83776,-6720538 83866,-6720511 83859,-6720386 83860,-6720371 83865,-6720329 83866,-6720302 83885,-6720292 83840,-6720036 84226,-6719949 84345,-6719904 84463,-6719858 84717,-6719754 84731,-6719695 84767,-6719697 84791,-6719696 84813,-6719694 84840,-6719690 84896,-6719680 84942,-6719670 85068,-6719647 85362,-6719623 85518,-6719605 85666,-6719594 85700,-6719484 86026,-6719511 86267,-6719522 86302,-6719517 86454,-6719540 86839,-6719596 87083,-6719642 87155,-6719657 87253,-6719673 87338,-6719682 87451,-6719689 87573,-6719692 87586,-6718675 87586,-6718616 87660,-6718615 87659,-6718562 87653,-6718549 87638,-6718528 87654,-6718449 87676,-6718351 87681,-6718299 87708,-6718211 87721,-6718176 87725,-6718160 87730,-6718144 87737,-6718097 87742,-6718075 87781,-6717938 87829,-6717813 87830,-6717812 88150,-6717806 88190,-6717792 88289,-6717797 88401,-6717796 88429,-6717793 88451,-6717790 88497,-6717779 88533,-6717770 88636,-6717742 88720,-6717708 88730,-6717704 88747,-6717700 88768,-6717696 88791,-6717695 88809,-6717695 88829,-6717696 88833,-6717685 88880,-6717675 89024,-6717654 89094,-6717643 89174,-6717633 89318,-6717613 89319,-6717622 89402,-6717614 89535,-6717588 89601,-6717577 89621,-6717575 89694,-6717572 89880,-6717556 89941,-6717545 90015,-6717519 90034,-6717521 90070,-6717499 90163,-6717458 90232,-6717429 90265,-6717398 90385,-6717572 90458,-6717675 90497,-6717723 90540,-6717804 90560,-6717836 90579,-6717867 90662,-6717990 90710,-6718043 90887,-6717946 91081,-6717831 91189,-6717770 91288,-6717650 91379,-6717555 91421,-6717493 91619,-6717228 91785,-6717019 91899,-6716864 92063,-6716650 92367,-6716249 92529,-6716041 92931,-6715519 93100,-6715308 93279,-6715078 93584,-6714679 93841,-6714349 94194,-6713882 94121,-6713923 94104,-6713930 94074,-6713936 94016,-6713964 93998,-6713977 93988,-6713988 93969,-6714013 93959,-6714025 93946,-6714038 93934,-6714048 93834,-6714124 93800,-6714146 93775,-6714160 93758,-6714165 93724,-6714173 93678,-6714181 93647,-6714184 93609,-6714172 93548,-6714161 93531,-6714160 93516,-6714160 93501,-6714162 93450,-6714172 93418,-6714184 93405,-6714187 93396,-6714188 93393,-6714187 93391,-6714186 93388,-6714182 93386,-6714177 93386,-6714171 93386,-6714165 93390,-6714156 93410,-6714130 93412,-6714117 93411,-6714110 93408,-6714104 93400,-6714097 93352,-6714071 93244,-6714019 93237,-6714013 93233,-6714008 93229,-6714002 93228,-6713998 93229,-6713991 93231,-6713987 93234,-6713985 93243,-6713979 93253,-6713977 93261,-6713977 93290,-6713985 93305,-6713986 93363,-6714018 93405,-6714038 93422,-6714052 93426,-6714054 93458,-6714060 93475,-6714057 93502,-6714051 93551,-6714049 93580,-6714046 93610,-6714043 93641,-6714034 93681,-6714032 93687,-6714030 93700,-6714025 93726,-6714009 93767,-6713994 93790,-6713981 93817,-6713968 93830,-6713960 93842,-6713951 93878,-6713922 93890,-6713910 93908,-6713896 93950,-6713870 94038,-6713815 94054,-6713801 94071,-6713782 94078,-6713774 94094,-6713747 94102,-6713731 94118,-6713711 94129,-6713699 94185,-6713651 94222,-6713617 94245,-6713592 94288,-6713537 94332,-6713488 94376,-6713434 94381,-6713425 94401,-6713386 94434,-6713313 94461,-6713216 94499,-6713053 94503,-6713021 94508,-6712945 94501,-6712919 94500,-6712911 94500,-6712903 94502,-6712885 94496,-6712809 94491,-6712775 94485,-6712747 94465,-6712689 94431,-6712593 94417,-6712546 94405,-6712518 94395,-6712506 94386,-6712493 94381,-6712488 94375,-6712484 94370,-6712481 94367,-6712481 94364,-6712481 94361,-6712483 94358,-6712486 94356,-6712490 94355,-6712501 94355,-6712512 94356,-6712519 94366,-6712556 94387,-6712620 94398,-6712643 94414,-6712719 94413,-6712730 94411,-6712737 94409,-6712743 94406,-6712746 94394,-6712749 94388,-6712750 94383,-6712748 94379,-6712746 94354,-6712723 94305,-6712697 94294,-6712686 94285,-6712674 94281,-6712671 94276,-6712669 94271,-6712668 94262,-6712668 94252,-6712672 94238,-6712682 94200,-6712704 94193,-6712706 94189,-6712706 94185,-6712705 94182,-6712702 94180,-6712698 94179,-6712696 94200,-6712668 94247,-6712597 94250,-6712589 94250,-6712583 94249,-6712579 94247,-6712575 94222,-6712551 94143,-6712517 94094,-6712489 94085,-6712483 94080,-6712477 94075,-6712470 94072,-6712461 94027,-6712383 94010,-6712381 93996,-6712378 93983,-6712374 93973,-6712369 93968,-6712366 93948,-6712348 93945,-6712344 93941,-6712335 93938,-6712327 93936,-6712309 93933,-6712294 93930,-6712282 93913,-6712236 93877,-6712175 93873,-6712170 93869,-6712169 93862,-6712167 93855,-6712169 93852,-6712171 93849,-6712174 93847,-6712181 93837,-6712201 93835,-6712208 93831,-6712228 93827,-6712269 93825,-6712283 93816,-6712313 93804,-6712342 93798,-6712363 93797,-6712369 93798,-6712380 93800,-6712389 93803,-6712398 93861,-6712490 93891,-6712543 93894,-6712551 93895,-6712559 93895,-6712563 93882,-6712612 93868,-6712652 93849,-6712702 93836,-6712737 93816,-6712780 93814,-6712784 93803,-6712797 93781,-6712818 93773,-6712826 93729,-6712880 93674,-6712925 93656,-6712943 93621,-6712982 93617,-6712984 93614,-6712983 93612,-6712981 93610,-6712978 93610,-6712974 93611,-6712971 93618,-6712951 93635,-6712928 93644,-6712919 93670,-6712897 93679,-6712886 93700,-6712854 93738,-6712816 93743,-6712793 93746,-6712785 93755,-6712765 93767,-6712742 93769,-6712737 93774,-6712717 93777,-6712687 93780,-6712674 93788,-6712657 93795,-6712647 93812,-6712591 93818,-6712553 93826,-6712518 93825,-6712505 93817,-6712481 93811,-6712469 93803,-6712459 93784,-6712440 93767,-6712422 93765,-6712418 93760,-6712404 93759,-6712395 93758,-6712385 93760,-6712359 93765,-6712332 93768,-6712319 93778,-6712294 93784,-6712262 93794,-6712230 93797,-6712216 93799,-6712201 93801,-6712175 93805,-6712127 93807,-6712077 93808,-6712070 93807,-6712066 93804,-6712060 93800,-6712057 93795,-6712056 93790,-6712059 93763,-6712101 93746,-6712121 93739,-6712126 93734,-6712127 93727,-6712128 93722,-6712125 93717,-6712118 93716,-6712114 93716,-6712100 93714,-6712082 93715,-6712068 93717,-6712057 93725,-6712007 93733,-6711969 93736,-6711939 93736,-6711916 93734,-6711852 93733,-6711833 93728,-6711802 93711,-6711724 93697,-6711672 93691,-6711658 93689,-6711653 93687,-6711650 93682,-6711646 93675,-6711642 93665,-6711637 93637,-6711630 93571,-6711625 93515,-6711623 93511,-6711622 93398,-6711614 93350,-6711605 93314,-6711604 93297,-6711601 93221,-6711583 93150,-6711580 93110,-6711578 93067,-6711574 93046,-6711572 92963,-6711558 92892,-6711551 92811,-6711535 92780,-6711530 92629,-6711511 92519,-6711484 92477,-6711477 92432,-6711471 92189,-6711448 92110,-6711450 92092,-6711449 92058,-6711437 92027,-6711430 92012,-6711428 91999,-6711427 91989,-6711428 91979,-6711430 91961,-6711435 91832,-6711423 91776,-6711421 91671,-6711411 91654,-6711405 91628,-6711392 91616,-6711384 91608,-6711376 91599,-6711365 91592,-6711356 91573,-6711321 91558,-6711282 91553,-6711270 91542,-6711256 91537,-6711253 91535,-6711253 91533,-6711256 91532,-6711264 91528,-6711278 91527,-6711283 91526,-6711297 91538,-6711387 91538,-6711423 91542,-6711466 91548,-6711487 91532,-6711580 91529,-6711613 91527,-6711650 91528,-6711683 91533,-6711717 91534,-6711737 91540,-6711764 91543,-6711793 91541,-6711949 91536,-6712035 91540,-6712134 91541,-6712150 91540,-6712163 91537,-6712185 91531,-6712211 91528,-6712243 91524,-6712256 91520,-6712269 91503,-6712302 91491,-6712320 91481,-6712332 91474,-6712366 91472,-6712375 91469,-6712380 91463,-6712386 91458,-6712387 91453,-6712387 91447,-6712385 91442,-6712380 91424,-6712357 91415,-6712342 91414,-6712337 91409,-6712331 91405,-6712329 91400,-6712328 91395,-6712330 91390,-6712334 91388,-6712336 91369,-6712413 91349,-6712497 91331,-6712568 91325,-6712585 91322,-6712595 91320,-6712604 91320,-6712677 91329,-6712726 91331,-6712739 91331,-6712765 91328,-6712808 91326,-6712833 91329,-6712870 91337,-6712957 91337,-6712991 91318,-6712948 91315,-6712937 91312,-6712925 91308,-6712891 91303,-6712863 91289,-6712812 91281,-6712776 91278,-6712767 91276,-6712764 91273,-6712762 91269,-6712761 91265,-6712761 91261,-6712762 91259,-6712763 91250,-6712774 91247,-6712777 91243,-6712777 91240,-6712777 91237,-6712774 91234,-6712768 91234,-6712727 91236,-6712702 91244,-6712659 91259,-6712594 91264,-6712563 91265,-6712550 91264,-6712533 91258,-6712500 91257,-6712487 91254,-6712458 91253,-6712423 91254,-6712412 91257,-6712395 91260,-6712339 91270,-6712280 91273,-6712259 91282,-6712147 91297,-6712052 91307,-6711956 91307,-6711950 91305,-6711944 91302,-6711939 91298,-6711935 91294,-6711933 91289,-6711932 91284,-6711932 91280,-6711934 91277,-6711936 91260,-6711954 91237,-6711967 91225,-6711970 91213,-6711969 91205,-6711966 91176,-6711961 91166,-6711956 91147,-6711949 91129,-6711947 91096,-6711949 91061,-6711955 90957,-6711981 90908,-6711991 90877,-6711999 90857,-6712003 90754,-6712065 90731,-6712081 90675,-6712121 90618,-6712159 90671,-6712082 90705,-6712055 90781,-6711990 90879,-6711925 90905,-6711913 90925,-6711905 90945,-6711898 90954,-6711896 90964,-6711894 90984,-6711891 91049,-6711886 91165,-6711865 91171,-6711863 91183,-6711857 91197,-6711850 91210,-6711842 91223,-6711832 91237,-6711819 91285,-6711767 91300,-6711751 91305,-6711745 91314,-6711729 91377,-6711566 91383,-6711552 91391,-6711525 91394,-6711506 91397,-6711449 91394,-6711386 91377,-6711384 91366,-6711375 91363,-6711371 91362,-6711366 91360,-6711355 91360,-6711335 91370,-6711261 91352,-6711235 91343,-6711224 91318,-6711231 91300,-6711232 91267,-6711201 91226,-6711177 91175,-6711162 91136,-6711154 90997,-6711156 90917,-6711149 90813,-6711145 90747,-6711145 90668,-6711152 90496,-6711182 90403,-6711202 90373,-6711205 90314,-6711203 90276,-6711192 90266,-6711171 90216,-6711153 90148,-6711168 90006,-6711140 89925,-6711128 89836,-6711117 89811,-6711107 89699,-6711061 89627,-6711055 89472,-6711074 89394,-6711083 89352,-6711056 89335,-6711044 89301,-6711023 89291,-6711020 89278,-6711019 89271,-6711021 89265,-6711027 89263,-6711030 89261,-6711035 89260,-6711041 89261,-6711049 89263,-6711060 89265,-6711066 89286,-6711098 89294,-6711114 89316,-6711146 89324,-6711160 89347,-6711203 89359,-6711230 89373,-6711272 89402,-6711378 89410,-6711411 89413,-6711431 89414,-6711485 89408,-6711562 89397,-6711647 89385,-6711699 89367,-6711796 89359,-6711857 89352,-6711892 89349,-6711901 89345,-6711912 89341,-6711919 89335,-6711929 89322,-6711945 89300,-6711970 89229,-6712039 89202,-6712062 89180,-6712077 89169,-6712082 89144,-6712093 89095,-6712110 89078,-6712118 89057,-6712135 89042,-6712150 89046,-6712124 89050,-6712115 89055,-6712107 89060,-6712101 89067,-6712094 89077,-6712087 89128,-6712056 89151,-6712044 89202,-6711998 89243,-6711955 89253,-6711941 89261,-6711929 89269,-6711914 89317,-6711767 89325,-6711735 89333,-6711692 89335,-6711670 89336,-6711642 89333,-6711601 89329,-6711579 89292,-6711440 89271,-6711372 89246,-6711280 89235,-6711234 89223,-6711201 89205,-6711173 89200,-6711161 89200,-6711154 89203,-6711106 89202,-6711098 89198,-6711086 89191,-6711077 89179,-6711069 89172,-6711065 89161,-6711062 89124,-6711057 88975,-6711044 88878,-6711056 88759,-6711070 88708,-6711074 88647,-6711078 88580,-6711079 88506,-6711077 88406,-6711066 88333,-6711067 88240,-6711081 88122,-6711077 87973,-6711095 87644,-6711142 87490,-6711141 87272,-6711232 87137,-6711301 87043,-6711378 86974,-6711491 86906,-6711597 86844,-6711676 86848,-6711796 86859,-6711855 86897,-6711923 86912,-6712028 86899,-6712084 86855,-6712130 86620,-6712283 86613,-6712317 86614,-6712344 86639,-6712366 86682,-6712380 86704,-6712385 86731,-6712391 86784,-6712399 86829,-6712402 86858,-6712403 86884,-6712401 86922,-6712394 86943,-6712387 86966,-6712378 87031,-6712349 87077,-6712330 87088,-6712325 87153,-6712291 87310,-6712198 87357,-6712174 87373,-6712163 87390,-6712155 87424,-6712146 87431,-6712146 87438,-6712146 87446,-6712148 87448,-6712150 87449,-6712154 87450,-6712158 87449,-6712164 87445,-6712172 87433,-6712186 87432,-6712189 87431,-6712194 87432,-6712200 87435,-6712204 87437,-6712208 87443,-6712212 87452,-6712217 87457,-6712218 87485,-6712222 87524,-6712222 87566,-6712218 87609,-6712217 87627,-6712214 87656,-6712208 87741,-6712197 87773,-6712188 87843,-6712183 87846,-6712182 87852,-6712180 87857,-6712175 87862,-6712169 87865,-6712163 87867,-6712152 87865,-6712103 87867,-6712101 87872,-6712099 87875,-6712098 87892,-6712102 87942,-6712129 87954,-6712132 87967,-6712133 87981,-6712136 87998,-6712138 88008,-6712143 88016,-6712151 88032,-6712180 88039,-6712193 88042,-6712200 88046,-6712223 88058,-6712259 88060,-6712265 88066,-6712276 88075,-6712288 88085,-6712298 88093,-6712305 88099,-6712309 88110,-6712313 88155,-6712322 88181,-6712318 88188,-6712321 88207,-6712333 88260,-6712373 88265,-6712378 88268,-6712381 88272,-6712383 88277,-6712384 88344,-6712388 88373,-6712386 88384,-6712383 88394,-6712379 88416,-6712370 88426,-6712367 88407,-6712390 88373,-6712402 88368,-6712403 88329,-6712408 88300,-6712407 88291,-6712406 88282,-6712403 88272,-6712399 88262,-6712393 88251,-6712385 88228,-6712363 88219,-6712358 88212,-6712355 88181,-6712350 88175,-6712351 88169,-6712354 88163,-6712358 88159,-6712362 88155,-6712370 88153,-6712409 88150,-6712412 88147,-6712413 88145,-6712413 88142,-6712412 88139,-6712409 88138,-6712406 88139,-6712401 88136,-6712378 88133,-6712371 88130,-6712367 88126,-6712365 88120,-6712363 88078,-6712354 88071,-6712349 88060,-6712337 88022,-6712277 88015,-6712272 88010,-6712271 88004,-6712272 87986,-6712278 87981,-6712276 87978,-6712273 87976,-6712269 87975,-6712264 87974,-6712235 87970,-6712221 87966,-6712215 87949,-6712197 87945,-6712194 87940,-6712192 87933,-6712191 87925,-6712191 87894,-6712198 87855,-6712208 87800,-6712216 87781,-6712217 87765,-6712216 87748,-6712216 87732,-6712213 87720,-6712213 87711,-6712214 87701,-6712216 87686,-6712222 87653,-6712239 87627,-6712251 87602,-6712258 87560,-6712267 87484,-6712273 87421,-6712276 87413,-6712278 87348,-6712301 87307,-6712312 87244,-6712340 87151,-6712376 87106,-6712398 87052,-6712428 87023,-6712447 87018,-6712453 87017,-6712458 87017,-6712462 87018,-6712466 87042,-6712496 87051,-6712511 87054,-6712519 87055,-6712532 87062,-6712548 87066,-6712555 87080,-6712570 87091,-6712579 87126,-6712601 87132,-6712608 87136,-6712617 87137,-6712622 87134,-6712654 87125,-6712680 87124,-6712687 87124,-6712692 87125,-6712698 87128,-6712704 87138,-6712723 87144,-6712732 87147,-6712740 87148,-6712748 87148,-6712756 87147,-6712763 87142,-6712776 87138,-6712786 87134,-6712790 87132,-6712795 87132,-6712798 87134,-6712801 87150,-6712816 87152,-6712819 87161,-6712862 87162,-6712884 87160,-6712901 87158,-6712910 87153,-6712923 87134,-6712963 87129,-6712979 87128,-6712997 87123,-6713017 87124,-6713047 87125,-6713053 87135,-6713088 87135,-6713092 87133,-6713095 87131,-6713097 87127,-6713097 87122,-6713097 87118,-6713095 87114,-6713091 87056,-6713040 87051,-6713038 87048,-6713038 87045,-6713040 87043,-6713043 87042,-6713047 87044,-6713066 87044,-6713085 87044,-6713114 87038,-6713168 87038,-6713205 87036,-6713222 87034,-6713232 87028,-6713250 87019,-6713263 86989,-6713294 86969,-6713321 86939,-6713363 86924,-6713383 86921,-6713388 86917,-6713402 86885,-6713439 86869,-6713465 86867,-6713466 86865,-6713467 86862,-6713466 86860,-6713465 86852,-6713454 86850,-6713447 86850,-6713430 86854,-6713403 86855,-6713377 86858,-6713352 86857,-6713338 86853,-6713324 86850,-6713313 86847,-6713309 86844,-6713305 86838,-6713302 86833,-6713301 86830,-6713302 86829,-6713303 86828,-6713306 86828,-6713315 86824,-6713339 86822,-6713369 86813,-6713422 86802,-6713461 86787,-6713500 86786,-6713504 86786,-6713509 86788,-6713517 86801,-6713557 86805,-6713574 86808,-6713591 86809,-6713618 86811,-6713626 86814,-6713633 86823,-6713645 86854,-6713673 86869,-6713683 86875,-6713685 86886,-6713689 86903,-6713692 86917,-6713694 86931,-6713693 86945,-6713690 86957,-6713686 86970,-6713682 86978,-6713678 87035,-6713639 87053,-6713631 87067,-6713627 87083,-6713624 87105,-6713621 87182,-6713602 87238,-6713591 87256,-6713588 87331,-6713581 87402,-6713580 87419,-6713581 87453,-6713585 87514,-6713585 87525,-6713587 87543,-6713592 87454,-6713634 87401,-6713654 87334,-6713682 87274,-6713704 87249,-6713719 87227,-6713728 87139,-6713758 87052,-6713784 87024,-6713790 87009,-6713793 86984,-6713792 86953,-6713795 86926,-6713793 86919,-6713794 86906,-6713795 86895,-6713798 86884,-6713802 86855,-6713805 86814,-6713808 86726,-6713818 86682,-6713825 86659,-6713830 86615,-6713845 86599,-6713852 86548,-6713874 86521,-6713889 86433,-6713944 86419,-6713953 86400,-6713966 86358,-6714001 86340,-6714018 86330,-6714025 86312,-6714035 86249,-6714080 86233,-6714092 86168,-6714159 86162,-6714169 86160,-6714174 86158,-6714185 86159,-6714191 86160,-6714198 86162,-6714203 86175,-6714225 86178,-6714232 86180,-6714241 86179,-6714245 86178,-6714247 86171,-6714248 86162,-6714245 86122,-6714224 86100,-6714210 86063,-6714181 86032,-6714155 86031,-6714152 86028,-6714147 86027,-6714139 86027,-6714131 86028,-6714127 86033,-6714121 86041,-6714118 86050,-6714117 86059,-6714104 86065,-6714102 86068,-6714102 86089,-6714117 86113,-6714132 86125,-6714135 86130,-6714135 86134,-6714134 86138,-6714131 86151,-6714120 86186,-6714094 86209,-6714075 86247,-6714038 86304,-6713973 86330,-6713953 86354,-6713934 86387,-6713910 86447,-6713881 86464,-6713871 86507,-6713838 86532,-6713815 86559,-6713797 86572,-6713790 86579,-6713787 86652,-6713774 86683,-6713767 86702,-6713763 86779,-6713758 86785,-6713756 86789,-6713754 86794,-6713747 86797,-6713739 86796,-6713731 86772,-6713659 86770,-6713650 86771,-6713644 86773,-6713639 86781,-6713630 86784,-6713619 86785,-6713609 86785,-6713599 86783,-6713581 86775,-6713562 86767,-6713549 86720,-6713505 86715,-6713495 86711,-6713481 86711,-6713474 86715,-6713455 86732,-6713407 86741,-6713381 86745,-6713371 86748,-6713366 86762,-6713352 86780,-6713326 86784,-6713315 86784,-6713312 86781,-6713307 86776,-6713305 86767,-6713306 86763,-6713309 86756,-6713314 86746,-6713323 86738,-6713332 86716,-6713361 86710,-6713365 86707,-6713365 86700,-6713362 86696,-6713358 86679,-6713317 86680,-6713314 86684,-6713308 86695,-6713300 86723,-6713286 86736,-6713280 86749,-6713276 86756,-6713275 86781,-6713273 86793,-6713271 86805,-6713267 86814,-6713262 86822,-6713257 86829,-6713250 86837,-6713243 86854,-6713217 86866,-6713195 86872,-6713175 86875,-6713164 86877,-6713152 86878,-6713139 86877,-6713127 86868,-6713076 86886,-6713104 86903,-6713125 86911,-6713130 86923,-6713133 86931,-6713133 86938,-6713129 86941,-6713125 86945,-6713120 86946,-6713114 86947,-6713105 86933,-6713050 86927,-6713032 86911,-6713006 86894,-6712981 86883,-6712966 86877,-6712960 86869,-6712952 86861,-6712947 86855,-6712943 86839,-6712938 86835,-6712938 86831,-6712939 86827,-6712941 86825,-6712943 86822,-6712951 86808,-6712999 86805,-6713027 86807,-6713048 86810,-6713059 86820,-6713094 86812,-6713092 86790,-6713070 86763,-6713036 86655,-6712891 86648,-6712875 86643,-6712866 86632,-6712851 86613,-6712831 86605,-6712824 86592,-6712813 86582,-6712805 86561,-6712793 86551,-6712789 86541,-6712787 86507,-6712782 86449,-6712771 86407,-6712757 86357,-6712746 86336,-6712750 86327,-6712754 86265,-6712774 86253,-6712772 86247,-6712772 86237,-6712774 86177,-6712797 86163,-6712802 86143,-6712808 86123,-6712812 86100,-6712815 86075,-6712818 86060,-6712818 86055,-6712817 86050,-6712815 86044,-6712809 86043,-6712807 86043,-6712803 86045,-6712798 86052,-6712791 86087,-6712774 86144,-6712744 86169,-6712735 86182,-6712731 86204,-6712726 86217,-6712723 86254,-6712719 86295,-6712711 86308,-6712709 86348,-6712705 86366,-6712701 86407,-6712686 86412,-6712684 86438,-6712662 86452,-6712645 86465,-6712621 86470,-6712607 86472,-6712600 86472,-6712596 86469,-6712589 86461,-6712576 86438,-6712547 86337,-6712405 86304,-6712366 86289,-6712345 86271,-6712316 86236,-6712248 86215,-6712198 86210,-6712182 86143,-6712113 86101,-6712057 86093,-6712015 86106,-6711981 86124,-6711960 86153,-6711926 86173,-6711885 86195,-6711806 86192,-6711664 86177,-6711511 86167,-6711414 86158,-6711338 86147,-6711330 86113,-6711325 85990,-6711342 85926,-6711340 85773,-6711356 85717,-6711375 85616,-6711395 85565,-6711400 85519,-6711407 85434,-6711431 85387,-6711451 85297,-6711480 85212,-6711518 85138,-6711542 85040,-6711636 84980,-6711675 84951,-6711700 84927,-6711733 84920,-6711757 84896,-6711780 84880,-6711805 84869,-6711812 84829,-6711853 84821,-6711863 84784,-6711918 84775,-6711928 84762,-6711939 84745,-6711948 84720,-6711955 84710,-6711960 84692,-6711972 84677,-6711984 84671,-6711993 84665,-6712006 84656,-6712027 84651,-6712040 84649,-6712054 84648,-6712073 84654,-6712128 84655,-6712136 84662,-6712153 84678,-6712178 84701,-6712208 84712,-6712219 84747,-6712253 84760,-6712263 84809,-6712291 84817,-6712294 84841,-6712302 84890,-6712320 84904,-6712326 84969,-6712360 85027,-6712388 85159,-6712437 85217,-6712459 85273,-6712481 85313,-6712498 85321,-6712503 85343,-6712520 85417,-6712609 85427,-6712622 85441,-6712636 85465,-6712652 85466,-6712652 85450,-6712651 85398,-6712638 85326,-6712613 85290,-6712598 85265,-6712585 85208,-6712560 85183,-6712549 85160,-6712541 85064,-6712518 84977,-6712502 84945,-6712498 84940,-6712499 84933,-6712505 84930,-6712509 84926,-6712516 84930,-6712579 84932,-6712604 84949,-6712680 84988,-6712807 84989,-6712817 84949,-6712922 84921,-6712992 84895,-6713024 84861,-6713061 84843,-6713075 84840,-6713076 84835,-6713077 84828,-6713076 84816,-6713072 84807,-6713067 84798,-6713061 84791,-6713053 84778,-6713016 84742,-6712956 84735,-6712941 84730,-6712933 84725,-6712928 84656,-6712866 84634,-6712812 84627,-6712799 84625,-6712796 84618,-6712791 84589,-6712757 84576,-6712750 84565,-6712747 84555,-6712747 84545,-6712748 84538,-6712751 84529,-6712758 84519,-6712767 84512,-6712776 84505,-6712785 84480,-6712828 84443,-6712900 84429,-6712936 84418,-6712967 84412,-6712995 84407,-6713050 84406,-6713067 84407,-6713099 84411,-6713131 84413,-6713156 84424,-6713197 84464,-6713315 84464,-6713319 84462,-6713323 84459,-6713325 84457,-6713326 84445,-6713328 84442,-6713329 84439,-6713333 84439,-6713337 84466,-6713393 84471,-6713408 84478,-6713424 84480,-6713433 84480,-6713440 84479,-6713446 84477,-6713450 84471,-6713458 84467,-6713461 84462,-6713463 84453,-6713463 84431,-6713453 84427,-6713453 84421,-6713455 84417,-6713458 84409,-6713469 84407,-6713475 84407,-6713481 84408,-6713499 84422,-6713524 84447,-6713564 84450,-6713573 84455,-6713591 84464,-6713635 84468,-6713645 84478,-6713664 84511,-6713714 84485,-6713704 84472,-6713697 84439,-6713677 84419,-6713662 84412,-6713654 84407,-6713647 84405,-6713640 84398,-6713603 84395,-6713594 84392,-6713590 84386,-6713584 84362,-6713570 84320,-6713551 84313,-6713545 84311,-6713541 84307,-6713531 84308,-6713513 84304,-6713493 84301,-6713489 84294,-6713484 84284,-6713475 84280,-6713473 84277,-6713471 84268,-6713470 84247,-6713473 84169,-6713494 84136,-6713511 84121,-6713521 84105,-6713535 84096,-6713528 84159,-6713457 84186,-6713422 84196,-6713402 84203,-6713379 84205,-6713365 84208,-6713350 84212,-6713312 84216,-6713263 84214,-6713228 84215,-6713219 84219,-6713210 84238,-6713188 84242,-6713175 84243,-6713168 84242,-6713160 84234,-6713146 84227,-6713136 84223,-6713129 84220,-6713121 84219,-6713110 84220,-6713086 84222,-6713076 84225,-6713065 84226,-6713062 84232,-6713056 84237,-6713053 84250,-6713049 84272,-6713035 84278,-6713033 84281,-6713031 84282,-6713029 84284,-6713022 84283,-6713018 84281,-6713014 84276,-6713010 84172,-6712988 84135,-6712982 84082,-6712970 84027,-6712950 84018,-6712943 84015,-6712939 84013,-6712934 84013,-6712931 84028,-6712917 84030,-6712918 84034,-6712920 84036,-6712923 84039,-6712931 84041,-6712934 84052,-6712938 84055,-6712938 84079,-6712933 84083,-6712935 84093,-6712948 84101,-6712951 84107,-6712953 84113,-6712953 84119,-6712950 84122,-6712948 84124,-6712945 84133,-6712928 84138,-6712924 84160,-6712933 84182,-6712948 84195,-6712952 84205,-6712952 84215,-6712950 84223,-6712947 84228,-6712944 84238,-6712935 84241,-6712930 84249,-6712916 84264,-6712883 84267,-6712876 84268,-6712869 84268,-6712862 84267,-6712854 84264,-6712845 84261,-6712842 84257,-6712840 84253,-6712838 84239,-6712837 84233,-6712834 84228,-6712828 84226,-6712820 84226,-6712817 84232,-6712801 84251,-6712762 84254,-6712759 84261,-6712751 84269,-6712745 84275,-6712742 84283,-6712740 84291,-6712742 84293,-6712743 84300,-6712775 84305,-6712779 84309,-6712780 84314,-6712780 84319,-6712775 84331,-6712758 84354,-6712731 84365,-6712724 84379,-6712718 84387,-6712711 84388,-6712708 84389,-6712705 84378,-6712677 84378,-6712672 84378,-6712668 84380,-6712661 84382,-6712659 84387,-6712659 84396,-6712659 84399,-6712662 84403,-6712668 84427,-6712689 84432,-6712691 84439,-6712690 84442,-6712688 84446,-6712681 84449,-6712668 84451,-6712664 84453,-6712661 84458,-6712657 84471,-6712658 84487,-6712639 84496,-6712629 84509,-6712618 84545,-6712590 84591,-6712561 84602,-6712552 84608,-6712543 84611,-6712535 84608,-6712515 84590,-6712468 84574,-6712435 84559,-6712409 84557,-6712405 84521,-6712365 84503,-6712343 84476,-6712304 84436,-6712225 84405,-6712172 84391,-6712153 84348,-6712103 84334,-6712087 84323,-6712074 84291,-6712018 84239,-6711920 84227,-6711901 84207,-6711882 84183,-6711875 84140,-6711887 84031,-6711901 83981,-6711897 83911,-6711848 83895,-6711832 83876,-6711813 83844,-6711807 83751,-6711823 83648,-6711853 83582,-6711875 83549,-6711910 83479,-6711955 83446,-6711995 83384,-6712071 83285,-6712168 83237,-6712247 83232,-6712287 83253,-6712326 83275,-6712354 83300,-6712360 83329,-6712351 83426,-6712313 83456,-6712323 83479,-6712347 83499,-6712368 83542,-6712403 83552,-6712437 83553,-6712462 83539,-6712488 83500,-6712511 83380,-6712534 83317,-6712547 83254,-6712533 83144,-6712488 83072,-6712459 83020,-6712423 82957,-6712387 82891,-6712367 82860,-6712362 82849,-6712374 82846,-6712391 82845,-6712393 82844,-6712398 82845,-6712402 82850,-6712409 82856,-6712418 82894,-6712462 82920,-6712483 82978,-6712526 83123,-6712656 83150,-6712682 83159,-6712689 83199,-6712715 83340,-6712792 83429,-6712844 83470,-6712869 83471,-6712871 83472,-6712874 83472,-6712878 83470,-6712882 83466,-6712884 83463,-6712885 83418,-6712880 83398,-6712876 83361,-6712865 83343,-6712860 83264,-6712832 83225,-6712823 83187,-6712814 83181,-6712814 83178,-6712816 83175,-6712819 83173,-6712823 83170,-6712833 83167,-6712842 83168,-6712848 83172,-6712867 83193,-6712926 83201,-6712956 83206,-6712985 83206,-6713022 83203,-6713057 83197,-6713085 83193,-6713099 83183,-6713126 83166,-6713173 83158,-6713210 83151,-6713236 83150,-6713243 83151,-6713260 83159,-6713310 83162,-6713341 83165,-6713366 83163,-6713380 83153,-6713367 83147,-6713344 83130,-6713298 83125,-6713265 83125,-6713257 83126,-6713237 83146,-6713115 83157,-6713020 83156,-6712993 83150,-6712968 83145,-6712920 83140,-6712894 83138,-6712886 83133,-6712874 83115,-6712841 83110,-6712836 83108,-6712835 83106,-6712836 83104,-6712839 83102,-6712846 83100,-6712872 83101,-6712884 83106,-6712914 83105,-6712920 83102,-6712923 83095,-6712926 83091,-6712926 83066,-6712921 83047,-6712913 83033,-6712906 83008,-6712890 82974,-6712866 82949,-6712847 82902,-6712807 82852,-6712760 82646,-6712585 82579,-6712572 82572,-6712572 82565,-6712573 82487,-6712572 82422,-6712577 82355,-6712592 82325,-6712627 82282,-6712669 82189,-6712714 82085,-6712752 82001,-6712768 81751,-6712794 81598,-6712821 81394,-6712839 81374,-6712863 81372,-6712914 81426,-6712999 81429,-6713043 81416,-6713094 81396,-6713101 81355,-6713080 81338,-6713066 81161,-6712920 81090,-6712884 81034,-6712897 80942,-6712930 80864,-6712937 80764,-6712970 80680,-6713025 80631,-6713043 80560,-6713082 80448,-6713090 80402,-6713101 80394,-6713117 80405,-6713141 80404,-6713161 80375,-6713170 80267,-6713180 80245,-6713185 80209,-6713197 80183,-6713218 80167,-6713252 80145,-6713313 80140,-6713347 80136,-6713393 80133,-6713424 80129,-6713637 80142,-6713717 80174,-6713776 80216,-6713811 80593,-6713854 80747,-6713875 81009,-6713926 81101,-6713954 81122,-6713966 81128,-6713981 81107,-6713991 81069,-6713997 81043,-6713994 80993,-6713992 80685,-6713996 80476,-6713995 80374,-6713989 80351,-6713991 80348,-6713991 80281,-6713997 80261,-6714007 80166,-6714010 80136,-6714009 80087,-6714007 80067,-6714002 79948,-6713975 79856,-6713928 79770,-6713879 79709,-6713815 79692,-6713788 79639,-6713747 79606,-6713734 79537,-6713727 79517,-6713732 79457,-6713769 79333,-6713869 79234,-6713914 79128,-6713946 78926,-6714055 78909,-6714064 78855,-6714093 78782,-6714125 78691,-6714166 78624,-6714241 78643,-6714270 78659,-6714291 78683,-6714325 78692,-6714342 78698,-6714354 78705,-6714370 78732,-6714411 78740,-6714420 78744,-6714426 78746,-6714434 78747,-6714442 78745,-6714453 78745,-6714457 78747,-6714465 78750,-6714475 78756,-6714484 78759,-6714487 78785,-6714509 78817,-6714531 78832,-6714546 78841,-6714561 78854,-6714588 78857,-6714599 78859,-6714609 78858,-6714625 78857,-6714632 78839,-6714683 78824,-6714735 78813,-6714758 78808,-6714767 78799,-6714779 78778,-6714802 78773,-6714807 78755,-6714821 78733,-6714836 78702,-6714854 78722,-6714835 78742,-6714814 78760,-6714793 78767,-6714782 78774,-6714773 78805,-6714717 78812,-6714702 78817,-6714686 78821,-6714670 78823,-6714654 78823,-6714640 78820,-6714625 78816,-6714612 78811,-6714599 78802,-6714585 78794,-6714572 78787,-6714564 78767,-6714546 78736,-6714526 78728,-6714524 78719,-6714522 78710,-6714522 78708,-6714522 78697,-6714524 78688,-6714527 78679,-6714530 78671,-6714535 78660,-6714544 78679,-6714511 78693,-6714489 78698,-6714476 78698,-6714471 78699,-6714469 78699,-6714459 78697,-6714448 78692,-6714437 78689,-6714432 78654,-6714386 78617,-6714341 78600,-6714320 78569,-6714286 78552,-6714267 78550,-6714267 78518,-6714270 78473,-6714266 78402,-6714274 78344,-6714307 78200,-6714419 78182,-6714445 78156,-6714471 78108,-6714499 78026,-6714558 77996,-6714593 77959,-6714624 77910,-6714652 77880,-6714669 77840,-6714691 77782,-6714724 77736,-6714749 77588,-6714520 77271,-6714675 76813,-6714866 76559,-6714970 76455,-6715012 76204,-6715129 76039,-6715189 75821,-6715295 75618,-6715337 75236,-6715361 74730,-6715348 74350,-6715311 73876,-6715243 73559,-6715197 73007,-6715129 72734,-6715091 72324,-6715017 71863,-6714890 71607,-6714849 71236,-6714808 71223,-6714921 71198,-6715033 71177,-6715206 71171,-6715233 71164,-6715254 71156,-6715271 71150,-6715284 71141,-6715299 71129,-6715318 71122,-6715327 71102,-6715345 71062,-6715375 71049,-6715383 71023,-6715398 71018,-6715401 70990,-6715402 70973,-6715401 70923,-6715398 70900,-6715394 70869,-6715385 70845,-6715379 70823,-6715376 70812,-6715375 70805,-6715375 70789,-6715375 70752,-6715376 70724,-6715377 70703,-6715378 70679,-6715378 70651,-6715373 70628,-6715366 70607,-6715357 70573,-6715337 70562,-6715333 70546,-6715328 70529,-6715324 70512,-6715323 70457,-6715323 70430,-6715326 70412,-6715329 70394,-6715334 70381,-6715338 70356,-6715349 70310,-6715375 70297,-6715383 70265,-6715406 70236,-6715429 70209,-6715453 70039,-6715533 69959,-6715572 69937,-6715581 69912,-6715591 69886,-6715599 69852,-6715608 69804,-6715617 69758,-6715622 69737,-6715626 69698,-6715635 69660,-6715647 69630,-6715660 69674,-6715752 69709,-6715853 69739,-6715918 69768,-6715974 69790,-6716013 69811,-6716057 69853,-6716160 69895,-6716255 69898,-6716267 69899,-6716273 69898,-6716280 69896,-6716286 69892,-6716293 69883,-6716302 69860,-6716335 69856,-6716342 69852,-6716351 69849,-6716363 69849,-6716369 69853,-6716383 69853,-6716390 69848,-6716400 69844,-6716405 69840,-6716409 69835,-6716411 69829,-6716413 69820,-6716413 69807,-6716418 69801,-6716422 69793,-6716428 69786,-6716435 69776,-6716450 69772,-6716461 69695,-6716566 69606,-6716652 69596,-6716664 69589,-6716671 69575,-6716681 69560,-6716688 69551,-6716691 69541,-6716694 69524,-6716695 69509,-6716704 69501,-6716713 69490,-6716749 69487,-6716760 69523,-6716772 69545,-6716780 69574,-6716792 69617,-6716813 69640,-6716823 69657,-6716832 69674,-6716841 69702,-6716861 69714,-6716869 69751,-6716896 69774,-6716918 69782,-6716927 69800,-6716956 69812,-6716976 69834,-6717005 69835,-6717007 69819,-6717024 69801,-6717043 69771,-6717070 69770,-6717070 69759,-6717067 69740,-6717059 69706,-6717048 69692,-6717044 69662,-6717040 69622,-6717030 69546,-6717080 69524,-6717097 69500,-6717117 69489,-6717131 69476,-6717152 69468,-6717173 69465,-6717186 69463,-6717202 69469,-6717221 69475,-6717236 69488,-6717262 69496,-6717274 69508,-6717291 69527,-6717314 69533,-6717323 69538,-6717334 69542,-6717344 69544,-6717355 69544,-6717368 69542,-6717388 69546,-6717409 69547,-6717422 69546,-6717439 69545,-6717448 69533,-6717470 69529,-6717473 69519,-6717478 69509,-6717481 69492,-6717484 69467,-6717475 69447,-6717466 69433,-6717462 69420,-6717459 69407,-6717456 69392,-6717455 69379,-6717455 69347,-6717458 69346,-6717526 69349,-6717538 69361,-6717542 69384,-6717547 69390,-6717549 69424,-6717568 69430,-6717578 69433,-6717586 69436,-6717600 69435,-6717612 69432,-6717623 69426,-6717629 69419,-6717632 69411,-6717632 69408,-6717630 69401,-6717624 69396,-6717615 69394,-6717612 69390,-6717610 69385,-6717609 69380,-6717609 69376,-6717610 69374,-6717613 69372,-6717617 69371,-6717621 69372,-6717630 69376,-6717636 69379,-6717639 69385,-6717640 69387,-6717649 69390,-6717656 69392,-6717663 69392,-6717670 69391,-6717676 69389,-6717682 69386,-6717686 69382,-6717690 69377,-6717693 69371,-6717696 69363,-6717697 69375,-6717755 69453,-6717747 69475,-6717804 69479,-6717823 69489,-6717874 69490,-6717926 69492,-6717934 69495,-6717942 69507,-6717955 69519,-6717974 69524,-6717985 69529,-6717996 69536,-6718017 69544,-6718038 69550,-6718052 69542,-6718088 69540,-6718106 69539,-6718124 69540,-6718155 69521,-6718251 69520,-6718277 69520,-6718300 69522,-6718328 69527,-6718360 69532,-6718439 69532,-6718481 69529,-6718508 69525,-6718531 69521,-6718549 69513,-6718576 69502,-6718632 69494,-6718667 69481,-6718717 69480,-6718733 69481,-6718745 69483,-6718757 69485,-6718765 69495,-6718782 69506,-6718798 69511,-6718809 69514,-6718819 69517,-6718837 69532,-6718880 69555,-6718929 69583,-6718979 69592,-6719033 69609,-6719063 69629,-6719084 69643,-6719101 69656,-6719119 69666,-6719135 69681,-6719161 69696,-6719195 69737,-6719239 69766,-6719281 69798,-6719336 69808,-6719351 69813,-6719360 69816,-6719368 69818,-6719379 69819,-6719393 69818,-6719407 69814,-6719420 69807,-6719435 69786,-6719506 69778,-6719530 69761,-6719575 69735,-6719635 69721,-6719671 69702,-6719711 69680,-6719751 69659,-6719784 69633,-6719821 69730,-6720004 69780,-6720102 69799,-6720132 69962,-6720132 69994,-6720187 70002,-6720211 70008,-6720226 70017,-6720245 70026,-6720262 70044,-6720288 70060,-6720308 70109,-6720358 70133,-6720381 70159,-6720402 70177,-6720417 70185,-6720422 70228,-6720449 70265,-6720470 70276,-6720475 70290,-6720483 70298,-6720490 70306,-6720501 70312,-6720512 70316,-6720522 70318,-6720533 70329,-6720562 70339,-6720584 70350,-6720605 70362,-6720624 70372,-6720638 70397,-6720668 70447,-6720747 70463,-6720770 70480,-6720793 70498,-6720815 70527,-6720846 70675,-6720992 70751,-6721071 70737,-6721081 70719,-6721096 70704,-6721113 70691,-6721134 70682,-6721155 70674,-6721185 70664,-6721218 70656,-6721251 70651,-6721278 70644,-6721340 70642,-6721364 70643,-6721381 70647,-6721416 70658,-6721461 70662,-6721495 70663,-6721513 70664,-6721525 70663,-6721560 70651,-6721616 70640,-6721661 70637,-6721680 70633,-6721695 70628,-6721706 70622,-6721716 70612,-6721731 70611,-6721765 70608,-6721788 70607,-6721819 70608,-6721835 70610,-6721854 70614,-6721873 70620,-6721897 70586,-6721911 70555,-6721921 70520,-6721929 70478,-6721937 70508,-6721996 70580,-6722142 70594,-6722175 70609,-6722207 70626,-6722239 70645,-6722272 70666,-6722304 70703,-6722379 70682,-6722429 70660,-6722481 70618,-6722593 70599,-6722640 70589,-6722653 70584,-6722657 70572,-6722661 70359,-6722716 70308,-6722733 70332,-6722778 70362,-6722841 70378,-6722874 70389,-6722906 70395,-6722925 70404,-6722961 70413,-6723002 70459,-6723144 70477,-6723196 70493,-6723211 70508,-6723228 70525,-6723256 70531,-6723268 70536,-6723282 70565,-6723374 70637,-6723585 70639,-6723593 70648,-6723631 70698,-6723596 70763,-6723546 70794,-6723595 70822,-6723636 70857,-6723681 70872,-6723699 70907,-6723738 70963,-6723810 70999,-6723867 71029,-6723857 71055,-6723900 71076,-6723890 71127,-6723964 71240,-6723905" stroke="#006747" stroke-width="38" /></ns0:svg>    <rect x="20" y="50"  width="250" height="25"  rx="0"  fill="#006747" fill-opacity="0.8" />    <text x="145" y="70" text-anchor="middle" font-family="Frutiger" font-weight="bold" font-size="30" fill="white">Southend-on-Sea</text>    <rect x="35" y="195" width="220" height="160" rx="15" fill="#78BE20"/>    <g font-family="Frutiger" font-size="15" fill="#231F20">        <g> <text x="45" y="218">Self-harm</text> <text x="245" y="218" text-anchor="end">17</text> </g>        <g> <text x="45" y="243">SEN</text> <text x="245" y="243" text-anchor="end">28</text> </g>        <g> <text x="45" y="268">Difficulties</text> <text x="245" y="268" text-anchor="end">80</text> </g>        <g> <text x="45" y="293">Child Carer</text> <text x="245" y="293" text-anchor="end">2</text> </g>        <g> <text x="45" y="318">Drinkers</text> <text x="245" y="318" text-anchor="end">60</text> </g>        <g> <text x="45" y="343">Safeguarding £</text> <text x="245" y="343" text-anchor="end">27</text> </g>    </g></svg>