<?xml version="1.0" standalone="no"?>
<!DOCTYPE svg PUBLIC "-//W3C//DTD SVG 1.1//EN"
"http://www.w3.org/Graphics/SVG/1.1/DTD/svg11.dtd">
<svg height="1800" version="1.1" width="1800" xmlns="http://www.w3.org/2000/svg"><defs><style type="text/css">@font-face {font-family: 'Frutiger';font-style: normal;font-weight: normal;src: local('Frutiger'), url('../fonts/Frutiger.woff') format('woff');}@font-face {font-family: 'Frutiger Bold';font-style: normal;font-weight: normal;src: local('Frutiger Bold'), url('../fonts/Frutiger_bold.woff') format('woff');}        </style>    </defs>    <rect x="20" y="20"  width="250" height="350" rx="15" fill="#AE2573" />    <rect x="35" y="35"  width="220" height="145" rx="15" fill="#330072" /><ns0:svg xmlns:ns0="http://www.w3.org/2000/svg" height="115" version="1.1" viewBox="-133777 -7293845 46010 30750" width="220" x="35" y="50"><ns0:polygon fill="white" points=" -126495,-7293277 -126477,-7293273 -126449,-7293279 -126390,-7293306 -126355,-7293324 -126332,-7293330 -126310,-7293330 -126287,-7293324 -126250,-7293296 -126220,-7293282 -126179,-7293261 -126149,-7293250 -126134,-7293248 -126124,-7293242 -126122,-7293234 -126123,-7293232 -126138,-7293225 -126195,-7293205 -126223,-7293191 -126273,-7293169 -126303,-7293150 -126350,-7293105 -126394,-7293064 -126434,-7293043 -126465,-7293029 -126496,-7293012 -126510,-7293002 -126520,-7292999 -126529,-7293000 -126536,-7293011 -126534,-7293036 -126528,-7293048 -126519,-7293058 -126514,-7293061 -126495,-7293070 -126498,-7293076 -126501,-7293082 -126524,-7293095 -126537,-7293105 -126554,-7293106 -126572,-7293100 -126588,-7293085 -126653,-7293004 -126666,-7292981 -126678,-7292964 -126693,-7292911 -126708,-7292813 -126716,-7292785 -126722,-7292748 -126725,-7292701 -126725,-7292685 -126722,-7292651 -126709,-7292589 -126698,-7292564 -126690,-7292550 -126673,-7292522 -126664,-7292508 -126614,-7292454 -126601,-7292443 -126586,-7292431 -126532,-7292396 -126499,-7292380 -126491,-7292374 -126482,-7292367 -126454,-7292339 -126425,-7292315 -126329,-7292259 -126247,-7292215 -126230,-7292203 -126182,-7292164 -126114,-7292122 -126074,-7292100 -126062,-7292092 -126052,-7292084 -126045,-7292079 -126022,-7292054 -126014,-7292047 -126004,-7292041 -125994,-7292035 -125963,-7292032 -125954,-7292020 -125943,-7292001 -125923,-7291983 -125887,-7291962 -125859,-7291943 -125806,-7291906 -125739,-7291857 -125639,-7291792 -125610,-7291769 -125561,-7291728 -125547,-7291717 -125531,-7291706 -125514,-7291695 -125472,-7291676 -125451,-7291669 -125390,-7291649 -125371,-7291642 -125289,-7291608 -125254,-7291591 -125103,-7291508 -125040,-7291466 -124991,-7291435 -124935,-7291394 -124881,-7291346 -124860,-7291320 -124849,-7291290 -124843,-7291267 -124838,-7291256 -124827,-7291236 -124814,-7291216 -124800,-7291197 -124783,-7291177 -124774,-7291168 -124753,-7291151 -124743,-7291147 -124714,-7291137 -124695,-7291128 -124601,-7291041 -124587,-7291016 -124570,-7290992 -124565,-7290980 -124552,-7290945 -124529,-7290913 -124498,-7290882 -124423,-7290800 -124388,-7290765 -124354,-7290727 -124331,-7290696 -124307,-7290659 -124264,-7290605 -124236,-7290578 -124208,-7290555 -124191,-7290544 -124157,-7290532 -124149,-7290533 -124130,-7290539 -124135,-7290552 -124167,-7290581 -124199,-7290603 -124213,-7290619 -124222,-7290640 -124220,-7290644 -124218,-7290647 -124200,-7290647 -124180,-7290635 -124155,-7290616 -124145,-7290607 -124135,-7290598 -124092,-7290554 -124072,-7290529 -124025,-7290483 -124003,-7290465 -123991,-7290456 -123955,-7290439 -123942,-7290432 -123915,-7290416 -123902,-7290408 -123807,-7290341 -123718,-7290287 -123683,-7290272 -123653,-7290261 -123644,-7290256 -123617,-7290244 -123577,-7290219 -123544,-7290195 -123490,-7290169 -123458,-7290151 -123377,-7290091 -123354,-7290071 -123323,-7290050 -123299,-7290029 -123256,-7289998 -123226,-7289982 -123223,-7289974 -123235,-7289968 -123259,-7289962 -123263,-7289960 -123267,-7289958 -123272,-7289951 -123271,-7289947 -123249,-7289938 -123213,-7289942 -123155,-7289938 -123094,-7289919 -123084,-7289914 -123032,-7289897 -122984,-7289875 -122904,-7289844 -122863,-7289815 -122824,-7289796 -122793,-7289776 -122766,-7289760 -122744,-7289744 -122731,-7289737 -122683,-7289712 -122657,-7289701 -122626,-7289685 -122601,-7289673 -122580,-7289658 -122564,-7289649 -122547,-7289641 -122497,-7289620 -122409,-7289580 -122351,-7289543 -122325,-7289533 -122303,-7289521 -122272,-7289499 -122262,-7289493 -122238,-7289482 -122214,-7289465 -122193,-7289459 -122088,-7289456 -122035,-7289452 -122008,-7289444 -121981,-7289429 -121945,-7289411 -121819,-7289367 -121763,-7289346 -121706,-7289328 -121668,-7289317 -121628,-7289301 -121559,-7289267 -121521,-7289251 -121495,-7289238 -121468,-7289222 -121412,-7289186 -121389,-7289172 -121366,-7289159 -121325,-7289140 -121303,-7289131 -121259,-7289115 -121236,-7289108 -121187,-7289094 -121139,-7289078 -121021,-7289028 -120985,-7289011 -120951,-7289005 -120917,-7289003 -120818,-7288987 -120725,-7288984 -120691,-7288980 -120648,-7288976 -120511,-7288970 -120404,-7288981 -120336,-7288987 -120272,-7288984 -120253,-7288984 -120215,-7288986 -120174,-7288987 -120155,-7288988 -120104,-7288995 -120057,-7288996 -120042,-7288997 -120014,-7289002 -119897,-7289039 -119817,-7289081 -119784,-7289103 -119733,-7289128 -119708,-7289133 -119687,-7289134 -119678,-7289134 -119660,-7289130 -119651,-7289128 -119612,-7289110 -119600,-7289103 -119540,-7289058 -119512,-7289044 -119483,-7289035 -119458,-7289039 -119440,-7289024 -119443,-7289019 -119455,-7289003 -119452,-7288995 -119432,-7288990 -119419,-7288986 -119415,-7288984 -119403,-7288972 -119387,-7288959 -119382,-7288965 -119375,-7288969 -119366,-7288970 -119351,-7288970 -119338,-7288964 -119293,-7288957 -119268,-7288967 -119258,-7288979 -119264,-7288988 -119275,-7288994 -119305,-7289000 -119317,-7289002 -119338,-7289002 -119355,-7289005 -119361,-7289013 -119361,-7289016 -119360,-7289019 -119353,-7289032 -119350,-7289037 -119346,-7289041 -119310,-7289048 -119268,-7289052 -119210,-7289076 -119173,-7289078 -119165,-7289081 -119150,-7289088 -119129,-7289100 -119118,-7289108 -119102,-7289121 -119109,-7289126 -119127,-7289128 -119187,-7289121 -119218,-7289120 -119242,-7289121 -119252,-7289109 -119267,-7289095 -119273,-7289092 -119288,-7289088 -119317,-7289084 -119335,-7289087 -119337,-7289092 -119340,-7289102 -119339,-7289113 -119338,-7289119 -119331,-7289128 -119344,-7289141 -119364,-7289132 -119377,-7289138 -119385,-7289152 -119385,-7289162 -119385,-7289171 -119380,-7289191 -119372,-7289209 -119362,-7289226 -119247,-7289376 -119216,-7289421 -119184,-7289474 -119156,-7289516 -119126,-7289550 -119031,-7289551 -118932,-7289551 -118880,-7289553 -118629,-7289572 -118575,-7289582 -118475,-7289596 -118444,-7289598 -118388,-7289606 -118313,-7289613 -118269,-7289618 -118236,-7289624 -118167,-7289641 -118100,-7289652 -118060,-7289654 -118040,-7289654 -118037,-7289652 -118034,-7289650 -118036,-7289635 -118077,-7289627 -118106,-7289625 -118139,-7289618 -118165,-7289617 -118179,-7289621 -118209,-7289609 -118317,-7289578 -118401,-7289561 -118444,-7289560 -118459,-7289558 -118474,-7289556 -118504,-7289547 -118535,-7289546 -118552,-7289541 -118557,-7289531 -118520,-7289523 -118466,-7289536 -118307,-7289545 -118255,-7289550 -118223,-7289550 -118190,-7289566 -118154,-7289578 -118090,-7289581 -118064,-7289580 -118043,-7289581 -118046,-7289570 -118054,-7289553 -118044,-7289543 -118021,-7289534 -117999,-7289541 -117985,-7289540 -117999,-7289527 -118024,-7289514 -118039,-7289504 -118055,-7289488 -118065,-7289474 -118087,-7289452 -118122,-7289439 -118151,-7289426 -118190,-7289413 -118287,-7289382 -118304,-7289373 -118321,-7289353 -118316,-7289339 -118294,-7289334 -118270,-7289338 -118260,-7289337 -118237,-7289334 -118246,-7289323 -118276,-7289314 -118300,-7289310 -118324,-7289303 -118339,-7289293 -118349,-7289272 -118352,-7289233 -118367,-7289214 -118386,-7289205 -118404,-7289197 -118444,-7289188 -118490,-7289181 -118523,-7289184 -118537,-7289183 -118552,-7289181 -118591,-7289172 -118610,-7289170 -118648,-7289167 -118667,-7289167 -118740,-7289175 -118754,-7289166 -118769,-7289146 -118774,-7289140 -118777,-7289133 -118785,-7289111 -118812,-7289106 -118823,-7289110 -118834,-7289126 -118831,-7289145 -118818,-7289156 -118823,-7289166 -118852,-7289148 -118871,-7289149 -118878,-7289159 -118880,-7289177 -118869,-7289188 -118858,-7289200 -118871,-7289213 -118893,-7289221 -118904,-7289221 -118930,-7289220 -118950,-7289235 -118960,-7289241 -118957,-7289227 -118949,-7289197 -118943,-7289184 -118889,-7289122 -118885,-7289114 -118873,-7289112 -118871,-7289107 -118869,-7289102 -118888,-7289097 -118893,-7289094 -118885,-7289073 -118870,-7289069 -118856,-7289068 -118842,-7289067 -118815,-7289071 -118801,-7289071 -118774,-7289070 -118762,-7289068 -118761,-7289066 -118755,-7289055 -118764,-7289040 -118805,-7289039 -118836,-7289041 -118874,-7289033 -118875,-7289019 -118848,-7288992 -118833,-7288980 -118829,-7288967 -118821,-7288950 -118798,-7288945 -118773,-7288934 -118764,-7288924 -118737,-7288888 -118719,-7288871 -118711,-7288865 -118702,-7288859 -118692,-7288855 -118680,-7288851 -118654,-7288848 -118616,-7288833 -118588,-7288812 -118569,-7288792 -118559,-7288783 -118508,-7288739 -118497,-7288731 -118484,-7288722 -118445,-7288705 -118398,-7288700 -118321,-7288696 -118295,-7288693 -118269,-7288685 -118250,-7288676 -118214,-7288664 -118202,-7288658 -118170,-7288640 -118145,-7288618 -118119,-7288598 -118086,-7288563 -118063,-7288547 -118027,-7288531 -117978,-7288514 -117961,-7288509 -117932,-7288504 -117924,-7288501 -117896,-7288470 -117877,-7288456 -117868,-7288455 -117837,-7288457 -117814,-7288462 -117788,-7288466 -117774,-7288453 -117774,-7288438 -117765,-7288401 -117760,-7288392 -117757,-7288388 -117723,-7288374 -117667,-7288385 -117641,-7288392 -117605,-7288403 -117555,-7288421 -117542,-7288425 -117525,-7288425 -117486,-7288417 -117459,-7288429 -117433,-7288447 -117413,-7288460 -117404,-7288463 -117388,-7288467 -117380,-7288468 -117372,-7288466 -117344,-7288458 -117309,-7288458 -117209,-7288483 -117184,-7288489 -117139,-7288506 -117100,-7288513 -117042,-7288532 -116958,-7288554 -116913,-7288558 -116820,-7288571 -116688,-7288601 -116641,-7288614 -116566,-7288627 -116520,-7288633 -116480,-7288640 -116440,-7288653 -116399,-7288668 -116350,-7288682 -116294,-7288710 -116273,-7288717 -116255,-7288719 -116246,-7288700 -116207,-7288704 -116187,-7288707 -116111,-7288724 -116058,-7288738 -115985,-7288756 -115950,-7288767 -115922,-7288770 -115855,-7288783 -115824,-7288783 -115805,-7288784 -115795,-7288781 -115807,-7288770 -115854,-7288749 -115891,-7288745 -115947,-7288729 -115997,-7288717 -116122,-7288673 -116167,-7288659 -116204,-7288643 -116319,-7288605 -116338,-7288602 -116347,-7288595 -116355,-7288581 -116400,-7288578 -116447,-7288571 -116493,-7288566 -116511,-7288563 -116528,-7288559 -116565,-7288542 -116608,-7288530 -116717,-7288512 -116761,-7288499 -116828,-7288489 -116933,-7288459 -117039,-7288432 -117124,-7288415 -117182,-7288400 -117226,-7288392 -117268,-7288377 -117309,-7288367 -117357,-7288344 -117371,-7288335 -117366,-7288325 -117271,-7288332 -117160,-7288345 -117123,-7288348 -117078,-7288358 -117055,-7288360 -117014,-7288360 -117013,-7288352 -117048,-7288334 -117061,-7288325 -117073,-7288317 -117086,-7288299 -117055,-7288298 -117028,-7288295 -117011,-7288295 -116994,-7288296 -116958,-7288301 -116927,-7288304 -116907,-7288304 -117024,-7288222 -117003,-7288216 -116922,-7288209 -116881,-7288202 -116819,-7288200 -116747,-7288201 -116640,-7288213 -116503,-7288242 -116360,-7288269 -116318,-7288273 -116282,-7288280 -116222,-7288279 -116152,-7288281 -116131,-7288283 -116111,-7288285 -116070,-7288292 -116033,-7288301 -115978,-7288311 -115952,-7288316 -115909,-7288316 -115930,-7288303 -115978,-7288288 -116002,-7288283 -116073,-7288272 -116126,-7288268 -116141,-7288266 -116200,-7288256 -116224,-7288253 -116273,-7288250 -116287,-7288246 -116508,-7288189 -116560,-7288169 -116594,-7288159 -116652,-7288159 -116678,-7288155 -116701,-7288148 -116714,-7288141 -116725,-7288133 -116746,-7288113 -116749,-7288110 -116768,-7288109 -116784,-7288106 -116761,-7288095 -116739,-7288082 -116714,-7288069 -116690,-7288068 -116676,-7288065 -116675,-7288058 -116668,-7288049 -116667,-7288039 -116667,-7288030 -116679,-7288017 -116672,-7288001 -116647,-7288003 -116629,-7287997 -116569,-7287948 -116520,-7287901 -116506,-7287878 -116488,-7287838 -116453,-7287771 -116422,-7287697 -116417,-7287680 -116412,-7287664 -116410,-7287637 -116423,-7287573 -116437,-7287570 -116441,-7287555 -116446,-7287553 -116450,-7287553 -116467,-7287564 -116473,-7287563 -116474,-7287561 -116468,-7287547 -116454,-7287535 -116423,-7287529 -116414,-7287521 -116410,-7287515 -116408,-7287509 -116407,-7287503 -116408,-7287497 -116415,-7287477 -116416,-7287468 -116415,-7287457 -116411,-7287448 -116402,-7287440 -116400,-7287439 -116393,-7287434 -116386,-7287431 -116372,-7287428 -116346,-7287428 -116336,-7287426 -116326,-7287423 -116316,-7287417 -116303,-7287407 -116279,-7287382 -116240,-7287352 -116210,-7287315 -116185,-7287291 -116121,-7287208 -116045,-7287118 -115958,-7287007 -115883,-7286918 -115754,-7286759 -115698,-7286692 -115667,-7286649 -115511,-7286499 -115502,-7286489 -115494,-7286480 -115474,-7286455 -115436,-7286401 -115397,-7286351 -115366,-7286322 -115326,-7286274 -115313,-7286261 -115299,-7286249 -115264,-7286223 -115235,-7286206 -115224,-7286201 -115144,-7286167 -115087,-7286135 -115068,-7286124 -115055,-7286115 -115013,-7286079 -114957,-7286039 -114897,-7285992 -114850,-7285947 -114825,-7285927 -114790,-7285896 -114776,-7285884 -114718,-7285845 -114711,-7285839 -114689,-7285815 -114655,-7285788 -114608,-7285751 -114553,-7285670 -114491,-7285623 -114472,-7285610 -114401,-7285530 -114392,-7285528 -114364,-7285523 -114268,-7285518 -114242,-7285515 -114218,-7285511 -114201,-7285507 -114176,-7285498 -114161,-7285491 -114144,-7285481 -114129,-7285471 -114100,-7285449 -114078,-7285427 -114029,-7285370 -114013,-7285350 -113998,-7285329 -113928,-7285226 -113906,-7285190 -113875,-7285130 -113849,-7285089 -113830,-7285064 -113810,-7285044 -113751,-7284990 -113710,-7284959 -113679,-7284938 -113557,-7284880 -113496,-7284849 -113383,-7284785 -113348,-7284767 -113247,-7284739 -113115,-7284705 -112995,-7284663 -112953,-7284648 -112857,-7284611 -112842,-7284607 -112831,-7284602 -112740,-7284542 -112630,-7284481 -112544,-7284426 -112370,-7284324 -112307,-7284288 -112236,-7284228 -112208,-7284177 -112190,-7284150 -112172,-7284136 -112156,-7284127 -112147,-7284119 -112139,-7284112 -112133,-7284105 -112127,-7284093 -112116,-7284057 -112110,-7284054 -112103,-7284050 -112057,-7284043 -112036,-7284041 -112029,-7284044 -112025,-7284057 -112032,-7284099 -112036,-7284115 -112037,-7284128 -112036,-7284142 -112034,-7284152 -112026,-7284166 -112019,-7284173 -112015,-7284175 -112008,-7284177 -111995,-7284178 -111863,-7284080 -111751,-7284000 -111677,-7283948 -111504,-7283808 -111451,-7283772 -111351,-7283712 -111266,-7283671 -111233,-7283654 -111193,-7283636 -111179,-7283631 -111150,-7283623 -110823,-7283506 -110823,-7283506 -110790,-7283480 -110751,-7283451 -110715,-7283428 -110635,-7283382 -110613,-7283365 -110603,-7283356 -110597,-7283353 -110589,-7283351 -110566,-7283350 -110558,-7283351 -110539,-7283356 -110517,-7283342 -110492,-7283320 -110470,-7283303 -110463,-7283301 -110451,-7283306 -110441,-7283307 -110427,-7283295 -110418,-7283290 -110415,-7283290 -110397,-7283294 -110392,-7283292 -110388,-7283290 -110376,-7283278 -110322,-7283274 -110284,-7283275 -110244,-7283273 -110236,-7283272 -110225,-7283270 -110143,-7283243 -110117,-7283231 -110064,-7283201 -110031,-7283180 -110021,-7283176 -110016,-7283175 -110003,-7283178 -109999,-7283181 -109985,-7283193 -109981,-7283195 -109975,-7283196 -109966,-7283195 -109922,-7283175 -109897,-7283168 -109865,-7283152 -109834,-7283145 -109811,-7283139 -109801,-7283135 -109754,-7283112 -109706,-7283099 -109599,-7283024 -109583,-7283015 -109549,-7282990 -109521,-7282978 -109491,-7282962 -109415,-7282918 -109395,-7282900 -109301,-7282842 -109254,-7282809 -109231,-7282795 -109218,-7282788 -109214,-7282787 -109194,-7282785 -109188,-7282783 -109183,-7282780 -109159,-7282765 -109144,-7282759 -109132,-7282757 -109123,-7282757 -109115,-7282758 -109101,-7282762 -109070,-7282758 -109061,-7282757 -109049,-7282750 -109034,-7282745 -108992,-7282738 -108975,-7282731 -108964,-7282723 -108938,-7282708 -108915,-7282686 -108902,-7282677 -108898,-7282676 -108823,-7282665 -108815,-7282662 -108798,-7282652 -108773,-7282647 -108765,-7282645 -108755,-7282637 -108736,-7282618 -108691,-7282611 -108629,-7282604 -108575,-7282585 -108567,-7282583 -108558,-7282584 -108532,-7282587 -108507,-7282586 -108489,-7282580 -108450,-7282584 -108438,-7282584 -108417,-7282581 -108409,-7282579 -108383,-7282568 -108354,-7282553 -108336,-7282542 -108203,-7282487 -108148,-7282472 -108066,-7282451 -107996,-7282441 -107959,-7282433 -107950,-7282428 -107934,-7282409 -107929,-7282393 -107924,-7282386 -107909,-7282372 -107899,-7282366 -107883,-7282364 -107837,-7282366 -107827,-7282364 -107817,-7282362 -107741,-7282336 -107698,-7282328 -107687,-7282327 -107665,-7282329 -107673,-7282340 -107674,-7282344 -107675,-7282353 -107674,-7282357 -107670,-7282359 -107661,-7282363 -107641,-7282366 -107624,-7282364 -107607,-7282361 -107573,-7282349 -107563,-7282344 -107549,-7282331 -107511,-7282299 -107532,-7282297 -107515,-7282280 -107522,-7282277 -107515,-7282267 -107470,-7282248 -107384,-7282218 -107336,-7282195 -107262,-7282156 -107198,-7282125 -107156,-7282103 -107071,-7282055 -107046,-7282039 -107009,-7282006 -106993,-7281986 -106980,-7281981 -106968,-7281970 -106959,-7281973 -106953,-7281982 -106949,-7281984 -106940,-7281987 -106934,-7281988 -106917,-7281986 -106905,-7281987 -106888,-7281994 -106850,-7282003 -106833,-7282010 -106818,-7282019 -106761,-7282045 -106735,-7282057 -106680,-7282070 -106662,-7282077 -106636,-7282083 -106628,-7282088 -106620,-7282092 -106601,-7282115 -106582,-7282148 -106568,-7282171 -106562,-7282184 -106555,-7282211 -106546,-7282218 -106533,-7282230 -106505,-7282228 -106484,-7282224 -106464,-7282226 -106449,-7282230 -106443,-7282235 -106437,-7282240 -106434,-7282248 -106428,-7282276 -106426,-7282280 -106418,-7282285 -106386,-7282284 -106355,-7282273 -106340,-7282275 -106281,-7282268 -106275,-7282279 -106282,-7282291 -106330,-7282306 -106346,-7282308 -106400,-7282311 -106425,-7282317 -106482,-7282348 -106463,-7282350 -106402,-7282343 -106380,-7282373 -106378,-7282388 -106381,-7282398 -106378,-7282407 -106381,-7282426 -106418,-7282445 -106428,-7282480 -106414,-7282491 -106403,-7282505 -106409,-7282543 -106399,-7282556 -106391,-7282574 -106389,-7282590 -106372,-7282604 -106338,-7282608 -106327,-7282607 -106316,-7282605 -106285,-7282592 -106276,-7282592 -106247,-7282579 -106227,-7282581 -106158,-7282566 -106142,-7282564 -106125,-7282562 -106109,-7282561 -106084,-7282564 -106051,-7282554 -106014,-7282539 -105979,-7282530 -105942,-7282533 -105937,-7282545 -105968,-7282561 -105977,-7282555 -106000,-7282564 -106015,-7282564 -106036,-7282570 -106047,-7282569 -106084,-7282587 -106099,-7282603 -106098,-7282622 -106079,-7282627 -106062,-7282639 -106024,-7282620 -106008,-7282622 -105989,-7282617 -105983,-7282624 -105985,-7282637 -106031,-7282667 -106031,-7282669 -106031,-7282676 -106017,-7282687 -105989,-7282691 -105959,-7282691 -105907,-7282681 -105878,-7282676 -105845,-7282670 -105831,-7282670 -105819,-7282679 -105824,-7282687 -105841,-7282698 -105845,-7282718 -105843,-7282721 -105841,-7282723 -105822,-7282723 -105807,-7282735 -105795,-7282737 -105778,-7282741 -105758,-7282740 -105747,-7282753 -105745,-7282767 -105812,-7282778 -105819,-7282776 -105863,-7282781 -105887,-7282766 -105897,-7282765 -105908,-7282745 -105937,-7282732 -105964,-7282726 -106028,-7282746 -106028,-7282747 -106031,-7282761 -106017,-7282771 -105990,-7282770 -105947,-7282776 -105916,-7282789 -105894,-7282807 -105886,-7282816 -105855,-7282830 -105815,-7282821 -105784,-7282803 -105749,-7282801 -105695,-7282804 -105675,-7282801 -105667,-7282799 -105649,-7282790 -105634,-7282788 -105629,-7282785 -105625,-7282781 -105620,-7282774 -105604,-7282742 -105548,-7282724 -105539,-7282728 -105509,-7282721 -105499,-7282717 -105422,-7282700 -105411,-7282691 -105371,-7282679 -105364,-7282673 -105307,-7282664 -105249,-7282653 -105185,-7282645 -105134,-7282638 -105026,-7282614 -104998,-7282609 -104983,-7282607 -104955,-7282610 -104953,-7282618 -104988,-7282628 -105003,-7282631 -105017,-7282634 -105027,-7282631 -105087,-7282654 -105132,-7282663 -105176,-7282669 -105212,-7282676 -105227,-7282682 -105229,-7282686 -105331,-7282716 -105335,-7282721 -105362,-7282729 -105337,-7282740 -105317,-7282742 -105262,-7282746 -105222,-7282770 -105201,-7282778 -105147,-7282775 -105111,-7282788 -105073,-7282797 -105055,-7282798 -105018,-7282797 -104998,-7282796 -104954,-7282791 -104900,-7282782 -104845,-7282790 -104810,-7282790 -104787,-7282789 -104783,-7282796 -104787,-7282810 -104797,-7282821 -104775,-7282829 -104675,-7282813 -104630,-7282799 -104603,-7282786 -104586,-7282764 -104535,-7282744 -104505,-7282759 -104454,-7282764 -104386,-7282739 -104377,-7282712 -104348,-7282699 -104335,-7282695 -104325,-7282681 -104290,-7282667 -104266,-7282662 -104239,-7282642 -104220,-7282643 -104200,-7282632 -104182,-7282609 -104165,-7282583 -104160,-7282564 -104104,-7282547 -104049,-7282532 -103987,-7282502 -103962,-7282479 -103949,-7282460 -103947,-7282450 -103945,-7282439 -103956,-7282412 -103938,-7282396 -103946,-7282339 -103937,-7282282 -103921,-7282232 -103920,-7282232 -103912,-7282234 -103879,-7282320 -103863,-7282354 -103838,-7282378 -103816,-7282377 -103798,-7282396 -103751,-7282396 -103740,-7282411 -103749,-7282435 -103750,-7282452 -103726,-7282471 -103707,-7282489 -103608,-7282487 -103473,-7282480 -103428,-7282476 -103359,-7282444 -103339,-7282437 -103320,-7282430 -103293,-7282424 -103252,-7282433 -103217,-7282450 -103200,-7282451 -103186,-7282442 -103174,-7282420 -103160,-7282361 -103139,-7282347 -103114,-7282336 -103100,-7282322 -103090,-7282315 -103087,-7282307 -103049,-7282296 -103038,-7282283 -102985,-7282278 -102973,-7282310 -102928,-7282307 -102879,-7282289 -102861,-7282281 -102837,-7282256 -102816,-7282230 -102805,-7282203 -102736,-7282160 -102723,-7282144 -102721,-7282130 -102706,-7282141 -102679,-7282133 -102654,-7282147 -102646,-7282167 -102638,-7282181 -102619,-7282172 -102610,-7282161 -102609,-7282115 -102608,-7282108 -102598,-7282099 -102594,-7282087 -102584,-7282089 -102580,-7282095 -102577,-7282101 -102574,-7282123 -102566,-7282139 -102555,-7282134 -102554,-7282133 -102549,-7282092 -102544,-7282067 -102544,-7282055 -102537,-7282041 -102542,-7282020 -102535,-7281992 -102535,-7281959 -102533,-7281946 -102526,-7281937 -102523,-7281926 -102513,-7281919 -102508,-7281910 -102476,-7281895 -102463,-7281885 -102440,-7281885 -102442,-7281907 -102429,-7281927 -102435,-7281950 -102434,-7281976 -102425,-7281994 -102408,-7282008 -102405,-7282016 -102402,-7282024 -102406,-7282046 -102392,-7282073 -102387,-7282100 -102380,-7282103 -102348,-7282089 -102310,-7282026 -102306,-7282017 -102296,-7281987 -102287,-7281977 -102273,-7281970 -102271,-7281962 -102233,-7281945 -102214,-7281943 -102195,-7281930 -102181,-7281912 -102171,-7281889 -102162,-7281878 -102153,-7281880 -102147,-7281891 -102163,-7281919 -102168,-7281940 -102160,-7281957 -102152,-7281960 -102143,-7281962 -102129,-7281960 -102113,-7281956 -102096,-7281950 -102079,-7281943 -102066,-7281936 -102049,-7281926 -102041,-7281919 -102030,-7281907 -102026,-7281900 -102022,-7281892 -102018,-7281882 -102016,-7281873 -102016,-7281867 -102018,-7281861 -102025,-7281847 -102032,-7281837 -102062,-7281824 -102066,-7281822 -102068,-7281819 -102070,-7281812 -102069,-7281802 -102065,-7281793 -102056,-7281785 -102045,-7281780 -102033,-7281778 -102023,-7281781 -102019,-7281784 -102004,-7281802 -101994,-7281837 -101989,-7281848 -101986,-7281858 -101985,-7281870 -101986,-7281887 -101992,-7281911 -101981,-7281923 -101964,-7281921 -101954,-7281919 -101944,-7281915 -101934,-7281910 -101920,-7281899 -101908,-7281889 -101888,-7281870 -101861,-7281839 -101853,-7281828 -101847,-7281817 -101843,-7281808 -101830,-7281758 -101828,-7281745 -101829,-7281741 -101832,-7281736 -101835,-7281735 -101839,-7281733 -101845,-7281732 -101864,-7281735 -101868,-7281735 -101884,-7281732 -101888,-7281728 -101890,-7281725 -101890,-7281721 -101889,-7281718 -101888,-7281715 -101881,-7281710 -101865,-7281705 -101849,-7281697 -101837,-7281686 -101829,-7281675 -101825,-7281663 -101817,-7281620 -101813,-7281535 -101810,-7281522 -101803,-7281503 -101799,-7281495 -101789,-7281479 -101779,-7281470 -101774,-7281470 -101771,-7281474 -101768,-7281487 -101767,-7281492 -101790,-7281628 -101796,-7281692 -101805,-7281735 -101798,-7281740 -101791,-7281744 -101779,-7281747 -101732,-7281733 -101720,-7281723 -101712,-7281703 -101707,-7281683 -101668,-7281669 -101623,-7281657 -101609,-7281650 -101593,-7281642 -101579,-7281633 -101569,-7281623 -101560,-7281613 -101552,-7281602 -101523,-7281535 -101510,-7281515 -101503,-7281495 -101504,-7281483 -101512,-7281460 -101517,-7281438 -101517,-7281431 -101516,-7281419 -101513,-7281406 -101508,-7281392 -101502,-7281377 -101490,-7281355 -101481,-7281345 -101464,-7281331 -101456,-7281322 -101453,-7281317 -101448,-7281302 -101440,-7281240 -101439,-7281236 -101431,-7281227 -101367,-7281196 -101328,-7281183 -101297,-7281170 -101283,-7281167 -101275,-7281162 -101272,-7281159 -101270,-7281152 -101270,-7281149 -101283,-7281145 -101292,-7281143 -101313,-7281142 -101337,-7281144 -101350,-7281145 -101379,-7281151 -101415,-7281163 -101439,-7281174 -101449,-7281177 -101458,-7281179 -101490,-7281181 -101502,-7281181 -101514,-7281179 -101524,-7281173 -101483,-7281150 -101470,-7281146 -101421,-7281136 -101381,-7281124 -101360,-7281116 -101291,-7281085 -101248,-7281062 -101220,-7281050 -101226,-7281021 -101239,-7280979 -101240,-7280970 -101234,-7280962 -101195,-7280966 -101190,-7280963 -101179,-7280954 -101174,-7280949 -101168,-7280939 -101176,-7280929 -101206,-7280913 -101211,-7280909 -101216,-7280905 -101217,-7280891 -101211,-7280882 -101199,-7280879 -101191,-7280864 -101187,-7280859 -101164,-7280852 -101150,-7280851 -101146,-7280848 -101141,-7280845 -101138,-7280840 -101134,-7280831 -101133,-7280827 -101136,-7280820 -101160,-7280816 -101166,-7280813 -101172,-7280810 -101179,-7280801 -101181,-7280796 -101182,-7280783 -101182,-7280776 -101181,-7280770 -101172,-7280745 -101187,-7280738 -101211,-7280736 -101226,-7280734 -101232,-7280730 -101233,-7280728 -101234,-7280726 -101232,-7280718 -101208,-7280709 -101203,-7280709 -101182,-7280704 -101177,-7280701 -101170,-7280693 -101166,-7280688 -101165,-7280684 -101164,-7280678 -101164,-7280671 -101167,-7280663 -101173,-7280656 -101178,-7280651 -101189,-7280646 -101201,-7280643 -101263,-7280640 -101277,-7280635 -101290,-7280627 -101237,-7280597 -101193,-7280580 -101154,-7280562 -101132,-7280554 -101097,-7280526 -101085,-7280498 -101075,-7280483 -101061,-7280476 -101044,-7280471 -101028,-7280472 -101022,-7280471 -101018,-7280468 -101012,-7280461 -101009,-7280456 -101008,-7280447 -101013,-7280443 -101024,-7280442 -101026,-7280440 -101027,-7280438 -101028,-7280432 -101028,-7280426 -101025,-7280420 -101016,-7280411 -101011,-7280407 -101001,-7280403 -100982,-7280405 -100965,-7280404 -100958,-7280402 -100946,-7280396 -100940,-7280392 -100912,-7280360 -100889,-7280340 -100879,-7280333 -100837,-7280309 -100814,-7280302 -100811,-7280299 -100806,-7280292 -100804,-7280288 -100821,-7280271 -100718,-7280141 -100697,-7280109 -100656,-7280073 -100615,-7280043 -100595,-7280031 -100517,-7279987 -100499,-7279975 -100465,-7279952 -100408,-7279916 -100371,-7279891 -100352,-7279879 -100319,-7279862 -100304,-7279852 -100258,-7279823 -100238,-7279854 -100227,-7279873 -100216,-7279884 -100205,-7279892 -100188,-7279900 -100148,-7279912 -100116,-7279923 -100108,-7279925 -100102,-7279925 -100091,-7279924 -100087,-7279923 -100084,-7279920 -100083,-7279917 -100084,-7279907 -100131,-7279892 -100168,-7279874 -100188,-7279865 -100199,-7279859 -100206,-7279855 -100220,-7279840 -100223,-7279832 -100226,-7279817 -100212,-7279806 -100182,-7279749 -100165,-7279723 -100155,-7279710 -100128,-7279681 -100064,-7279625 -100005,-7279578 -99880,-7279497 -99869,-7279488 -99855,-7279487 -99843,-7279474 -99823,-7279452 -99796,-7279415 -99769,-7279384 -99756,-7279371 -99739,-7279356 -99718,-7279339 -99701,-7279327 -99689,-7279321 -99677,-7279315 -99667,-7279311 -99644,-7279306 -99633,-7279302 -99622,-7279298 -99605,-7279287 -99539,-7279281 -99439,-7279274 -99420,-7279296 -99405,-7279305 -99396,-7279321 -99351,-7279337 -99343,-7279358 -99341,-7279363 -99337,-7279365 -99332,-7279367 -99245,-7279384 -99226,-7279392 -99214,-7279400 -99178,-7279401 -99159,-7279407 -99150,-7279414 -99142,-7279422 -99136,-7279435 -99130,-7279448 -99127,-7279471 -99131,-7279490 -99140,-7279499 -99158,-7279501 -99167,-7279504 -99169,-7279512 -99164,-7279520 -99149,-7279521 -99112,-7279519 -99061,-7279523 -99056,-7279527 -99055,-7279530 -99055,-7279534 -99065,-7279541 -99096,-7279545 -99106,-7279549 -99111,-7279556 -99111,-7279559 -99110,-7279563 -99099,-7279567 -99052,-7279568 -99033,-7279568 -99013,-7279566 -98992,-7279563 -98955,-7279556 -98939,-7279554 -98886,-7279550 -98872,-7279547 -98853,-7279545 -98775,-7279539 -98696,-7279530 -98678,-7279527 -98670,-7279524 -98640,-7279511 -98625,-7279507 -98607,-7279503 -98588,-7279501 -98575,-7279500 -98558,-7279502 -98545,-7279505 -98534,-7279509 -98525,-7279514 -98515,-7279521 -98505,-7279529 -98498,-7279538 -98466,-7279583 -98462,-7279591 -98459,-7279600 -98453,-7279628 -98454,-7279640 -98457,-7279647 -98462,-7279655 -98469,-7279664 -98490,-7279685 -98492,-7279687 -98493,-7279690 -98492,-7279693 -98487,-7279699 -98478,-7279698 -98468,-7279696 -98409,-7279672 -98332,-7279635 -98318,-7279625 -98294,-7279612 -98279,-7279602 -98273,-7279600 -98267,-7279598 -98242,-7279609 -98228,-7279607 -98203,-7279596 -98196,-7279591 -98189,-7279586 -98180,-7279576 -98178,-7279572 -98173,-7279542 -98142,-7279526 -98111,-7279512 -98077,-7279488 -98041,-7279460 -98034,-7279448 -98032,-7279442 -98031,-7279437 -98031,-7279429 -98035,-7279413 -98044,-7279398 -98045,-7279394 -98047,-7279382 -98045,-7279376 -98042,-7279367 -98038,-7279360 -98025,-7279345 -98011,-7279334 -97995,-7279325 -97966,-7279313 -97902,-7279293 -97851,-7279281 -97810,-7279265 -97792,-7279264 -97787,-7279264 -97778,-7279267 -97772,-7279273 -97770,-7279276 -97773,-7279286 -97804,-7279311 -97817,-7279325 -97843,-7279338 -97860,-7279353 -97863,-7279356 -97866,-7279362 -97868,-7279368 -97867,-7279374 -97866,-7279379 -97864,-7279382 -97861,-7279385 -97857,-7279386 -97846,-7279386 -97839,-7279385 -97823,-7279381 -97801,-7279374 -97777,-7279365 -97661,-7279313 -97653,-7279308 -97647,-7279302 -97638,-7279293 -97635,-7279283 -97637,-7279269 -97649,-7279227 -97656,-7279210 -97663,-7279166 -97671,-7279139 -97677,-7279123 -97678,-7279111 -97678,-7279101 -97676,-7279095 -97673,-7279091 -97669,-7279088 -97664,-7279086 -97660,-7279086 -97648,-7279089 -97638,-7279095 -97617,-7279114 -97612,-7279121 -97608,-7279129 -97606,-7279133 -97594,-7279201 -97578,-7279261 -97570,-7279310 -97562,-7279346 -97556,-7279352 -97537,-7279352 -97524,-7279355 -97526,-7279376 -97521,-7279386 -97514,-7279390 -97479,-7279382 -97444,-7279369 -97432,-7279367 -97421,-7279365 -97385,-7279362 -97358,-7279364 -97346,-7279362 -97334,-7279359 -97307,-7279347 -97289,-7279342 -97257,-7279344 -97228,-7279344 -97209,-7279338 -97191,-7279332 -97182,-7279324 -97186,-7279311 -97195,-7279295 -97197,-7279285 -97184,-7279279 -97123,-7279271 -97109,-7279271 -97090,-7279285 -97085,-7279286 -97061,-7279286 -97042,-7279316 -97038,-7279318 -97027,-7279322 -97003,-7279323 -96997,-7279321 -96993,-7279317 -96989,-7279311 -96987,-7279303 -96987,-7279297 -96989,-7279292 -96991,-7279289 -97000,-7279281 -97004,-7279274 -97008,-7279267 -97010,-7279261 -97010,-7279255 -97007,-7279249 -97004,-7279244 -97002,-7279242 -96988,-7279234 -96982,-7279233 -96856,-7279209 -96799,-7279207 -96790,-7279208 -96784,-7279209 -96779,-7279211 -96767,-7279221 -96749,-7279243 -96722,-7279241 -96699,-7279242 -96686,-7279263 -96637,-7279264 -96628,-7279266 -96600,-7279275 -96575,-7279279 -96558,-7279279 -96503,-7279274 -96467,-7279276 -96459,-7279276 -96445,-7279273 -96442,-7279270 -96436,-7279263 -96434,-7279258 -96437,-7279199 -96440,-7279173 -96445,-7279158 -96453,-7279145 -96461,-7279141 -96476,-7279136 -96484,-7279127 -96485,-7279116 -96485,-7279106 -96482,-7279100 -96478,-7279094 -96457,-7279072 -96448,-7279075 -96437,-7279081 -96429,-7279089 -96421,-7279101 -96417,-7279114 -96413,-7279142 -96412,-7279190 -96397,-7279232 -96379,-7279274 -96374,-7279281 -96363,-7279285 -96296,-7279289 -96258,-7279293 -96253,-7279311 -96246,-7279316 -96219,-7279330 -96193,-7279332 -96187,-7279343 -96182,-7279355 -96163,-7279358 -96147,-7279372 -96133,-7279379 -96121,-7279387 -96087,-7279401 -96077,-7279404 -96056,-7279407 -96022,-7279407 -96001,-7279408 -95991,-7279395 -95970,-7279391 -95954,-7279377 -95879,-7279372 -95834,-7279362 -95825,-7279361 -95817,-7279361 -95799,-7279365 -95792,-7279378 -95774,-7279377 -95744,-7279369 -95698,-7279369 -95674,-7279368 -95666,-7279365 -95670,-7279348 -95668,-7279336 -95619,-7279343 -95563,-7279338 -95518,-7279340 -95509,-7279322 -95491,-7279324 -95478,-7279330 -95475,-7279335 -95472,-7279349 -95471,-7279356 -95472,-7279367 -95432,-7279373 -95422,-7279373 -95413,-7279369 -95399,-7279355 -95376,-7279371 -95365,-7279380 -95361,-7279381 -95354,-7279376 -95351,-7279365 -95342,-7279343 -95294,-7279337 -95271,-7279336 -95263,-7279335 -95251,-7279330 -95240,-7279320 -95235,-7279318 -95204,-7279317 -95191,-7279318 -95179,-7279322 -95173,-7279325 -95165,-7279330 -95159,-7279337 -95157,-7279340 -95143,-7279370 -95130,-7279373 -95116,-7279341 -95108,-7279339 -95080,-7279343 -95074,-7279350 -95066,-7279370 -95064,-7279373 -95061,-7279375 -95054,-7279379 -95049,-7279380 -94978,-7279353 -94931,-7279333 -94885,-7279311 -94849,-7279297 -94844,-7279295 -94835,-7279289 -94831,-7279285 -94830,-7279271 -94832,-7279255 -94831,-7279249 -94827,-7279238 -94821,-7279227 -94816,-7279222 -94805,-7279214 -94792,-7279206 -94772,-7279197 -94714,-7279188 -94681,-7279182 -94599,-7279183 -94576,-7279179 -94533,-7279167 -94512,-7279160 -94472,-7279137 -94455,-7279129 -94450,-7279128 -94439,-7279127 -94434,-7279127 -94429,-7279128 -94426,-7279130 -94417,-7279142 -94413,-7279144 -94406,-7279147 -94401,-7279147 -94355,-7279127 -94335,-7279120 -94327,-7279118 -94296,-7279115 -94292,-7279117 -94282,-7279124 -94279,-7279124 -94270,-7279123 -94265,-7279122 -94262,-7279121 -94257,-7279116 -94255,-7279112 -94255,-7279104 -94257,-7279099 -94265,-7279083 -94260,-7279079 -94238,-7279074 -94234,-7279073 -94227,-7279068 -94225,-7279066 -94221,-7279058 -94216,-7279051 -94209,-7279044 -94201,-7279038 -94193,-7279035 -94185,-7279033 -94168,-7279033 -94150,-7279035 -94120,-7279041 -94094,-7279045 -94080,-7279044 -94071,-7279042 -94056,-7279037 -94049,-7279033 -94036,-7279024 -94020,-7279006 -93997,-7278977 -93971,-7278964 -93917,-7278932 -93863,-7278905 -93834,-7278877 -93824,-7278871 -93814,-7278866 -93806,-7278863 -93760,-7278852 -93722,-7278839 -93710,-7278830 -93690,-7278808 -93680,-7278794 -93671,-7278783 -93625,-7278735 -93595,-7278712 -93589,-7278720 -93577,-7278710 -93568,-7278704 -93546,-7278692 -93536,-7278704 -93518,-7278694 -93513,-7278700 -93509,-7278703 -93505,-7278705 -93502,-7278705 -93471,-7278680 -93451,-7278667 -93442,-7278659 -93438,-7278653 -93423,-7278654 -93412,-7278653 -93404,-7278650 -93401,-7278649 -93394,-7278643 -93308,-7278629 -93291,-7278629 -93273,-7278627 -93255,-7278623 -93243,-7278620 -93187,-7278600 -93147,-7278592 -93144,-7278585 -93119,-7278575 -93091,-7278561 -93086,-7278558 -93079,-7278548 -93051,-7278531 -93047,-7278525 -93047,-7278520 -93025,-7278511 -93023,-7278520 -93018,-7278530 -93013,-7278529 -93003,-7278524 -92993,-7278519 -92981,-7278511 -92894,-7278464 -92882,-7278473 -92861,-7278484 -92851,-7278486 -92835,-7278485 -92815,-7278473 -92769,-7278450 -92730,-7278424 -92727,-7278417 -92711,-7278405 -92708,-7278393 -92696,-7278387 -92690,-7278395 -92641,-7278363 -92649,-7278342 -92648,-7278335 -92649,-7278326 -92651,-7278322 -92658,-7278311 -92650,-7278307 -92642,-7278304 -92634,-7278313 -92618,-7278322 -92593,-7278309 -92584,-7278314 -92568,-7278310 -92558,-7278318 -92531,-7278298 -92524,-7278302 -92425,-7278245 -92416,-7278239 -92415,-7278226 -92388,-7278212 -92380,-7278222 -92365,-7278216 -92359,-7278222 -92334,-7278212 -92331,-7278215 -92322,-7278217 -92296,-7278196 -92277,-7278183 -92284,-7278161 -92269,-7278152 -92262,-7278145 -92259,-7278141 -92256,-7278134 -92245,-7278128 -92239,-7278121 -92231,-7278107 -92217,-7278093 -92189,-7278054 -92191,-7278043 -92179,-7278024 -92181,-7278017 -92176,-7278012 -92171,-7278006 -92157,-7278016 -92159,-7278023 -92149,-7278032 -92126,-7278001 -92132,-7277992 -92100,-7277953 -92098,-7277944 -92103,-7277938 -92084,-7277905 -92094,-7277893 -92088,-7277879 -92070,-7277886 -92066,-7277885 -92059,-7277888 -92037,-7277866 -92026,-7277870 -91996,-7277830 -91983,-7277834 -91976,-7277825 -91953,-7277795 -91960,-7277791 -91957,-7277784 -91953,-7277777 -91932,-7277747 -91920,-7277752 -91913,-7277747 -91895,-7277731 -91887,-7277730 -91875,-7277708 -91863,-7277682 -91855,-7277682 -91851,-7277679 -91827,-7277653 -91823,-7277647 -91823,-7277642 -91823,-7277635 -91819,-7277607 -91822,-7277607 -91821,-7277600 -91789,-7277595 -91786,-7277593 -91782,-7277589 -91775,-7277562 -91751,-7277560 -91750,-7277551 -91753,-7277547 -91755,-7277527 -91739,-7277525 -91734,-7277536 -91731,-7277539 -91685,-7277538 -91651,-7277530 -91634,-7277483 -91633,-7277462 -91635,-7277453 -91638,-7277446 -91647,-7277431 -91649,-7277425 -91651,-7277410 -91625,-7277430 -91621,-7277432 -91617,-7277432 -91614,-7277431 -91611,-7277430 -91607,-7277424 -91612,-7277397 -91611,-7277364 -91605,-7277360 -91600,-7277359 -91596,-7277359 -91590,-7277361 -91580,-7277357 -91573,-7277391 -91569,-7277400 -91529,-7277420 -91522,-7277425 -91508,-7277431 -91496,-7277442 -91497,-7277457 -91495,-7277441 -91495,-7277456 -91458,-7277474 -91460,-7277491 -91418,-7277506 -91418,-7277517 -91374,-7277526 -91363,-7277535 -91298,-7277551 -91287,-7277550 -91246,-7277543 -91236,-7277542 -91232,-7277550 -91207,-7277546 -91197,-7277566 -91179,-7277564 -91171,-7277579 -91162,-7277579 -91072,-7277553 -91066,-7277547 -91041,-7277546 -91038,-7277564 -91037,-7277591 -91046,-7277605 -91033,-7277610 -91013,-7277598 -91004,-7277591 -90995,-7277583 -90987,-7277574 -90980,-7277565 -90971,-7277550 -90950,-7277530 -90946,-7277529 -90933,-7277529 -90930,-7277535 -90887,-7277522 -90871,-7277512 -90871,-7277507 -90871,-7277497 -90874,-7277488 -90884,-7277472 -90885,-7277468 -90878,-7277461 -90842,-7277456 -90828,-7277450 -90775,-7277441 -90774,-7277429 -90734,-7277418 -90734,-7277413 -90737,-7277398 -90743,-7277396 -90742,-7277385 -90722,-7277383 -90715,-7277381 -90716,-7277367 -90720,-7277359 -90723,-7277353 -90725,-7277347 -90725,-7277340 -90723,-7277327 -90724,-7277317 -90719,-7277311 -90715,-7277312 -90708,-7277316 -90706,-7277318 -90708,-7277338 -90703,-7277346 -90690,-7277387 -90685,-7277392 -90682,-7277407 -90661,-7277410 -90654,-7277395 -90580,-7277407 -90543,-7277382 -90536,-7277371 -90522,-7277373 -90518,-7277366 -90513,-7277363 -90508,-7277357 -90507,-7277350 -90508,-7277345 -90509,-7277343 -90518,-7277339 -90518,-7277325 -90529,-7277322 -90531,-7277310 -90532,-7277304 -90537,-7277296 -90539,-7277286 -90542,-7277284 -90539,-7277277 -90525,-7277276 -90524,-7277289 -90508,-7277295 -90506,-7277308 -90491,-7277312 -90488,-7277327 -90476,-7277332 -90473,-7277346 -90447,-7277348 -90444,-7277336 -90432,-7277332 -90426,-7277321 -90405,-7277319 -90401,-7277314 -90388,-7277315 -90376,-7277309 -90350,-7277309 -90351,-7277314 -90346,-7277317 -90342,-7277319 -90333,-7277319 -90329,-7277318 -90328,-7277317 -90328,-7277303 -90336,-7277299 -90337,-7277285 -90350,-7277281 -90350,-7277270 -90357,-7277266 -90356,-7277252 -90347,-7277253 -90340,-7277253 -90331,-7277251 -90329,-7277258 -90328,-7277260 -90317,-7277264 -90301,-7277266 -90222,-7277258 -90217,-7277253 -90150,-7277247 -90147,-7277236 -90130,-7277229 -90128,-7277222 -90127,-7277209 -90127,-7277192 -90128,-7277176 -90141,-7277118 -90145,-7277106 -90189,-7277103 -90214,-7277106 -90219,-7277091 -90248,-7277092 -90257,-7277074 -90318,-7277066 -90322,-7277057 -90345,-7277055 -90344,-7277043 -90339,-7277033 -90291,-7277030 -90291,-7277008 -90290,-7277004 -90275,-7277000 -90259,-7277031 -90252,-7277040 -90246,-7277046 -90238,-7277052 -90201,-7277059 -90158,-7277070 -90142,-7277081 -90135,-7277083 -90126,-7277084 -90116,-7277083 -90110,-7277082 -90046,-7277054 -90018,-7277041 -90021,-7277028 -90003,-7277012 -89992,-7276958 -89980,-7276949 -89997,-7276922 -90014,-7276919 -90020,-7276902 -90006,-7276890 -90009,-7276881 -90013,-7276873 -90031,-7276870 -90043,-7276848 -90036,-7276837 -90034,-7276830 -90010,-7276818 -90010,-7276803 -89999,-7276797 -89985,-7276813 -89972,-7276808 -89942,-7276837 -89940,-7276836 -89932,-7276829 -89923,-7276833 -89919,-7276832 -89909,-7276828 -89903,-7276829 -89897,-7276828 -89889,-7276839 -89891,-7276847 -89880,-7276862 -89880,-7276876 -89863,-7276897 -89869,-7276910 -89851,-7276933 -89849,-7276944 -89847,-7276949 -89813,-7276984 -89797,-7276994 -89791,-7277001 -89770,-7277028 -89766,-7277038 -89763,-7277045 -89758,-7277050 -89752,-7277055 -89745,-7277059 -89742,-7277060 -89732,-7277059 -89706,-7277087 -89697,-7277081 -89670,-7277106 -89657,-7277102 -89653,-7277102 -89647,-7277098 -89638,-7277100 -89629,-7277093 -89595,-7277130 -89585,-7277139 -89584,-7277140 -89579,-7277141 -89574,-7277140 -89570,-7277136 -89569,-7277134 -89568,-7277127 -89565,-7277124 -89558,-7277119 -89553,-7277117 -89544,-7277126 -89538,-7277129 -89535,-7277129 -89532,-7277127 -89521,-7277118 -89518,-7277116 -89510,-7277123 -89507,-7277123 -89505,-7277123 -89499,-7277118 -89486,-7277136 -89475,-7277147 -89462,-7277156 -89455,-7277161 -89445,-7277148 -89447,-7277133 -89439,-7277115 -89428,-7277102 -89416,-7277092 -89392,-7277119 -89356,-7277151 -89345,-7277155 -89339,-7277155 -89335,-7277154 -89326,-7277150 -89317,-7277140 -89315,-7277130 -89284,-7277105 -89263,-7277100 -89253,-7277076 -89259,-7277053 -89262,-7277031 -89266,-7276931 -89272,-7276915 -89261,-7276896 -89244,-7276894 -89248,-7276912 -89246,-7276938 -89242,-7277034 -89234,-7277092 -89231,-7277100 -89227,-7277108 -89203,-7277122 -89204,-7277132 -89137,-7277171 -89090,-7277192 -89083,-7277188 -89057,-7277194 -89044,-7277180 -89037,-7277179 -89034,-7277175 -89040,-7277167 -89034,-7277158 -89033,-7277154 -89032,-7277148 -89033,-7277137 -89029,-7277114 -89057,-7277102 -89075,-7277088 -89072,-7277071 -89076,-7277060 -89067,-7277050 -89057,-7277046 -89044,-7277048 -89033,-7277028 -89023,-7277027 -89003,-7277038 -88990,-7277041 -88986,-7277039 -88964,-7277053 -88963,-7277057 -88960,-7277063 -88958,-7277065 -88942,-7277071 -88935,-7277059 -88929,-7277052 -88910,-7277063 -88897,-7277067 -88885,-7277052 -88867,-7277061 -88860,-7277062 -88855,-7277060 -88851,-7277058 -88849,-7277055 -88841,-7277040 -88825,-7277007 -88808,-7277018 -88776,-7277037 -88772,-7277048 -88776,-7277056 -88769,-7277072 -88775,-7277079 -88751,-7277110 -88741,-7277102 -88727,-7277123 -88719,-7277132 -88710,-7277136 -88698,-7277147 -88684,-7277148 -88669,-7277164 -88655,-7277176 -88636,-7277171 -88634,-7277186 -88632,-7277193 -88629,-7277202 -88615,-7277228 -88609,-7277223 -88616,-7277185 -88615,-7277185 -88607,-7277183 -88595,-7277202 -88590,-7277206 -88582,-7277205 -88575,-7277228 -88560,-7277257 -88550,-7277279 -88546,-7277288 -88545,-7277294 -88544,-7277298 -88540,-7277302 -88535,-7277303 -88532,-7277303 -88525,-7277296 -88530,-7277273 -88498,-7277265 -88486,-7277260 -88475,-7277254 -88463,-7277245 -88456,-7277231 -88455,-7277228 -88455,-7277222 -88455,-7277218 -88460,-7277207 -88451,-7277200 -88450,-7277199 -88442,-7277215 -88435,-7277231 -88423,-7277262 -88420,-7277266 -88393,-7277258 -88385,-7277252 -88382,-7277247 -88374,-7277241 -88367,-7277251 -88345,-7277248 -88333,-7277243 -88327,-7277237 -88320,-7277231 -88309,-7277230 -88302,-7277227 -88293,-7277217 -88296,-7277204 -88285,-7277192 -88288,-7277170 -88279,-7277166 -88260,-7277189 -88251,-7277193 -88205,-7277247 -88200,-7277247 -88197,-7277245 -88193,-7277242 -88177,-7277254 -88157,-7277245 -88152,-7277246 -88144,-7277249 -88140,-7277252 -88137,-7277256 -88134,-7277262 -88133,-7277268 -88133,-7277275 -88132,-7277293 -88121,-7277294 -88111,-7277329 -88107,-7277334 -88103,-7277336 -88086,-7277405 -88083,-7277411 -88074,-7277417 -88064,-7277448 -88054,-7277449 -88051,-7277431 -88041,-7277429 -88037,-7277470 -88035,-7277472 -88031,-7277475 -88026,-7277474 -88023,-7277472 -88021,-7277467 -88022,-7277421 -88017,-7277419 -88008,-7277414 -88005,-7277415 -87997,-7277425 -87994,-7277426 -87989,-7277426 -87985,-7277425 -87982,-7277422 -87979,-7277419 -87977,-7277412 -87982,-7277369 -87973,-7277366 -87969,-7277364 -87965,-7277359 -87964,-7277356 -87965,-7277343 -87953,-7277336 -87954,-7277317 -87942,-7277308 -87942,-7277292 -87937,-7277288 -87941,-7277256 -87929,-7277253 -87926,-7277251 -87924,-7277248 -87924,-7277245 -87925,-7277238 -87918,-7277229 -87916,-7277225 -87922,-7277199 -87905,-7277186 -87904,-7277183 -87902,-7277176 -87902,-7277164 -87898,-7277155 -87905,-7277122 -87889,-7277116 -87896,-7277068 -87900,-7277034 -87860,-7277040 -87813,-7277082 -87768,-7277087 -87767,-7277074 -87768,-7277072 -87804,-7277064 -87856,-7277017 -87904,-7277011 -87899,-7276995 -87903,-7276967 -87903,-7276961 -87903,-7276947 -87909,-7276935 -87915,-7276928 -87963,-7276877 -87975,-7276858 -87980,-7276851 -88008,-7276823 -88020,-7276819 -88028,-7276819 -88040,-7276820 -88090,-7276843 -88097,-7276848 -88105,-7276851 -88113,-7276853 -88120,-7276853 -88130,-7276852 -88165,-7276856 -88191,-7276854 -88205,-7276851 -88218,-7276848 -88236,-7276839 -88254,-7276824 -88293,-7276782 -88308,-7276773 -88352,-7276750 -88366,-7276736 -88374,-7276725 -88402,-7276678 -88413,-7276650 -88416,-7276633 -88415,-7276618 -88402,-7276504 -88406,-7276480 -88409,-7276472 -88417,-7276455 -88424,-7276442 -88426,-7276439 -88439,-7276427 -88453,-7276421 -88494,-7276406 -88542,-7276393 -88553,-7276388 -88563,-7276378 -88587,-7276345 -88599,-7276330 -88606,-7276320 -88612,-7276309 -88617,-7276299 -88621,-7276285 -88628,-7276234 -88628,-7276216 -88627,-7276199 -88625,-7276187 -88619,-7276172 -88603,-7276145 -88559,-7276030 -88557,-7276009 -88559,-7275951 -88560,-7275950 -88571,-7275946 -88580,-7275945 -88588,-7275945 -88596,-7275946 -88603,-7275948 -88634,-7275962 -88653,-7275982 -88698,-7276010 -88749,-7276029 -88784,-7276047 -88810,-7276065 -88855,-7276100 -88867,-7276106 -88881,-7276109 -88892,-7276109 -88910,-7276103 -88915,-7276099 -88920,-7276093 -88923,-7276088 -88925,-7276077 -88914,-7276034 -88911,-7276024 -88906,-7276015 -88889,-7275992 -88865,-7275967 -88786,-7275926 -88776,-7275918 -88764,-7275904 -88755,-7275880 -88748,-7275839 -88748,-7275820 -88749,-7275811 -88753,-7275794 -88759,-7275778 -88767,-7275764 -88775,-7275753 -88782,-7275744 -88791,-7275734 -88842,-7275689 -88888,-7275657 -88917,-7275634 -88923,-7275628 -88930,-7275620 -88953,-7275582 -88976,-7275537 -88995,-7275505 -89011,-7275480 -89021,-7275466 -89043,-7275441 -89056,-7275427 -89092,-7275397 -89120,-7275368 -89122,-7275362 -89122,-7275355 -89121,-7275351 -89116,-7275345 -89084,-7275279 -89073,-7275254 -89072,-7275245 -89073,-7275239 -89076,-7275230 -89082,-7275223 -89102,-7275209 -89121,-7275209 -89138,-7275211 -89150,-7275216 -89164,-7275224 -89175,-7275233 -89185,-7275243 -89194,-7275254 -89216,-7275273 -89225,-7275278 -89233,-7275282 -89243,-7275284 -89253,-7275286 -89261,-7275285 -89267,-7275284 -89282,-7275279 -89347,-7275238 -89364,-7275228 -89402,-7275212 -89454,-7275194 -89478,-7275199 -89485,-7275200 -89501,-7275198 -89539,-7275191 -89578,-7275186 -89603,-7275187 -89645,-7275194 -89656,-7275222 -89660,-7275229 -89664,-7275236 -89678,-7275250 -89775,-7275290 -89791,-7275293 -89799,-7275293 -89807,-7275292 -89812,-7275291 -89848,-7275278 -89920,-7275255 -89938,-7275253 -89959,-7275253 -89985,-7275259 -89997,-7275264 -90013,-7275271 -90038,-7275287 -90081,-7275308 -90094,-7275317 -90118,-7275339 -90124,-7275344 -90133,-7275342 -90157,-7275293 -90168,-7275276 -90182,-7275263 -90190,-7275256 -90198,-7275252 -90214,-7275248 -90227,-7275249 -90230,-7275250 -90273,-7275275 -90287,-7275284 -90338,-7275323 -90363,-7275336 -90379,-7275342 -90387,-7275345 -90429,-7275335 -90439,-7275331 -90446,-7275335 -90455,-7275340 -90485,-7275388 -90502,-7275404 -90510,-7275407 -90516,-7275408 -90524,-7275407 -90529,-7275406 -90557,-7275389 -90606,-7275349 -90619,-7275341 -90636,-7275336 -90670,-7275330 -90685,-7275335 -90695,-7275339 -90703,-7275343 -90717,-7275354 -90735,-7275374 -90747,-7275393 -90758,-7275417 -90763,-7275433 -90767,-7275449 -90771,-7275486 -90775,-7275494 -90782,-7275496 -90791,-7275497 -90800,-7275496 -90808,-7275493 -90813,-7275490 -90833,-7275469 -90845,-7275449 -90879,-7275405 -90897,-7275386 -90968,-7275323 -91000,-7275291 -91020,-7275274 -91042,-7275250 -91079,-7275196 -91082,-7275192 -91090,-7275185 -91098,-7275179 -91102,-7275177 -91144,-7275162 -91150,-7275159 -91161,-7275150 -91191,-7275110 -91228,-7275068 -91247,-7275039 -91275,-7274980 -91290,-7274937 -91297,-7274922 -91302,-7274914 -91309,-7274905 -91313,-7274901 -91326,-7274893 -91364,-7274892 -91381,-7274899 -91399,-7274904 -91414,-7274904 -91432,-7274901 -91446,-7274895 -91454,-7274889 -91463,-7274880 -91476,-7274858 -91487,-7274838 -91584,-7274862 -91606,-7274864 -91622,-7274864 -91773,-7274848 -91800,-7274845 -91823,-7274844 -91846,-7274842 -91869,-7274837 -91887,-7274832 -91899,-7274827 -91919,-7274817 -91966,-7274797 -91993,-7274784 -92010,-7274774 -92053,-7274747 -92059,-7274742 -92070,-7274731 -92100,-7274692 -92118,-7274678 -92126,-7274672 -92130,-7274656 -92131,-7274641 -92132,-7274636 -92141,-7274613 -92152,-7274591 -92150,-7274542 -92152,-7274537 -92153,-7274532 -92172,-7274509 -92192,-7274504 -92219,-7274501 -92232,-7274498 -92248,-7274492 -92258,-7274488 -92267,-7274465 -92273,-7274456 -92279,-7274452 -92287,-7274449 -92324,-7274437 -92343,-7274426 -92367,-7274408 -92369,-7274405 -92376,-7274394 -92382,-7274373 -92407,-7274344 -92423,-7274330 -92429,-7274319 -92434,-7274290 -92438,-7274278 -92446,-7274254 -92460,-7274225 -92462,-7274213 -92470,-7274194 -92477,-7274182 -92487,-7274161 -92489,-7274158 -92504,-7274145 -92513,-7274138 -92521,-7274134 -92526,-7274132 -92532,-7274131 -92546,-7274131 -92574,-7274140 -92595,-7274128 -92615,-7274106 -92624,-7274101 -92634,-7274099 -92644,-7274101 -92673,-7274097 -92727,-7274028 -92740,-7274018 -92803,-7273974 -92809,-7273967 -92811,-7273962 -92812,-7273957 -92813,-7273948 -92818,-7273927 -92834,-7273900 -92848,-7273870 -92869,-7273846 -92900,-7273806 -92914,-7273782 -92922,-7273761 -92922,-7273752 -92924,-7273747 -92929,-7273740 -93018,-7273679 -93046,-7273657 -93055,-7273648 -93063,-7273642 -93070,-7273637 -93074,-7273634 -93106,-7273623 -93116,-7273617 -93130,-7273607 -93136,-7273601 -93143,-7273589 -93156,-7273540 -93151,-7273497 -93155,-7273477 -93170,-7273445 -93216,-7273386 -93233,-7273365 -93237,-7273358 -93251,-7273309 -93263,-7273276 -93269,-7273263 -93283,-7273238 -93306,-7273208 -93318,-7273191 -93315,-7273177 -93317,-7273170 -93321,-7273154 -93355,-7273065 -93359,-7273058 -93368,-7273046 -93374,-7273041 -93390,-7273029 -93431,-7273002 -93443,-7272998 -93451,-7272982 -93479,-7272947 -93489,-7272934 -93496,-7272919 -93506,-7272896 -93510,-7272887 -93512,-7272876 -93516,-7272869 -93521,-7272862 -93564,-7272815 -93617,-7272747 -93639,-7272707 -93681,-7272662 -93689,-7272649 -93707,-7272608 -93716,-7272592 -93720,-7272584 -93727,-7272557 -93735,-7272509 -93735,-7272476 -93732,-7272439 -93739,-7272357 -93741,-7272348 -93748,-7272332 -93761,-7272314 -93769,-7272299 -93778,-7272289 -93791,-7272265 -93834,-7272221 -93842,-7272211 -93853,-7272196 -93867,-7272184 -93879,-7272164 -93885,-7272160 -93906,-7272147 -93916,-7272139 -93942,-7272098 -93950,-7272084 -93951,-7272072 -93955,-7272049 -93952,-7272023 -93973,-7272000 -93986,-7271993 -93997,-7271982 -94012,-7271940 -94016,-7271925 -94007,-7271898 -94007,-7271882 -94010,-7271869 -94019,-7271845 -94051,-7271816 -94053,-7271812 -94067,-7271776 -94083,-7271752 -94117,-7271717 -94139,-7271687 -94146,-7271679 -94158,-7271669 -94162,-7271664 -94170,-7271649 -94180,-7271620 -94184,-7271605 -94205,-7271578 -94221,-7271560 -94231,-7271542 -94254,-7271479 -94271,-7271459 -94292,-7271444 -94318,-7271420 -94382,-7271357 -94388,-7271347 -94395,-7271337 -94400,-7271324 -94408,-7271299 -94411,-7271289 -94412,-7271280 -94412,-7271263 -94413,-7271257 -94415,-7271249 -94419,-7271241 -94427,-7271226 -94432,-7271220 -94445,-7271211 -94455,-7271201 -94467,-7271185 -94470,-7271178 -94476,-7271163 -94479,-7271155 -94478,-7271138 -94473,-7271114 -94472,-7271108 -94473,-7271100 -94479,-7271084 -94503,-7271034 -94517,-7270992 -94526,-7270939 -94533,-7270923 -94571,-7270863 -94578,-7270837 -94581,-7270813 -94582,-7270788 -94584,-7270780 -94592,-7270767 -94598,-7270760 -94605,-7270753 -94623,-7270740 -94628,-7270735 -94637,-7270721 -94637,-7270710 -94620,-7270687 -94617,-7270679 -94614,-7270666 -94613,-7270659 -94615,-7270651 -94621,-7270631 -94642,-7270564 -94641,-7270550 -94632,-7270526 -94630,-7270519 -94629,-7270508 -94629,-7270503 -94641,-7270501 -94669,-7270503 -94683,-7270501 -94694,-7270493 -94696,-7270488 -94699,-7270475 -94699,-7270469 -94697,-7270464 -94687,-7270453 -94665,-7270430 -94660,-7270423 -94654,-7270414 -94641,-7270356 -94627,-7270317 -94622,-7270299 -94613,-7270245 -94611,-7270224 -94613,-7270212 -94621,-7270185 -94640,-7270157 -94645,-7270145 -94655,-7270115 -94661,-7270078 -94664,-7270066 -94666,-7270062 -94675,-7270057 -94687,-7270057 -94714,-7270053 -94749,-7270040 -94770,-7270034 -94775,-7270032 -94780,-7270027 -94776,-7270018 -94722,-7269979 -94716,-7269971 -94710,-7269963 -94706,-7269953 -94702,-7269943 -94693,-7269916 -94690,-7269883 -94682,-7269862 -94681,-7269855 -94681,-7269843 -94681,-7269836 -94689,-7269819 -94689,-7269779 -94687,-7269762 -94684,-7269744 -94662,-7269673 -94647,-7269582 -94643,-7269566 -94664,-7269493 -94648,-7269431 -94633,-7269410 -94624,-7269388 -94621,-7269374 -94618,-7269359 -94618,-7269331 -94614,-7269288 -94615,-7269251 -94626,-7269200 -94630,-7269171 -94633,-7269161 -94636,-7269154 -94640,-7269147 -94672,-7269117 -94680,-7269107 -94696,-7269068 -94715,-7269046 -94729,-7269026 -94735,-7269016 -94745,-7268995 -94749,-7268957 -94754,-7268947 -94764,-7268941 -94784,-7268939 -94801,-7268934 -94806,-7268931 -94823,-7268919 -94835,-7268905 -94841,-7268900 -94847,-7268895 -94864,-7268887 -94859,-7268855 -94860,-7268844 -94861,-7268832 -94870,-7268801 -94850,-7268767 -94844,-7268760 -94840,-7268747 -94832,-7268730 -94829,-7268721 -94825,-7268705 -94824,-7268697 -94825,-7268688 -94829,-7268663 -94829,-7268653 -94822,-7268626 -94819,-7268608 -94817,-7268579 -94817,-7268529 -94811,-7268466 -94805,-7268421 -94788,-7268382 -94784,-7268368 -94780,-7268355 -94777,-7268323 -94770,-7268301 -94774,-7268269 -94782,-7268231 -94783,-7268218 -94783,-7268212 -94774,-7268185 -94765,-7268167 -94761,-7268159 -94757,-7268142 -94755,-7268133 -94765,-7268064 -94765,-7268048 -94734,-7267992 -94730,-7267979 -94733,-7267968 -94735,-7267958 -94736,-7267934 -94729,-7267905 -94723,-7267868 -94715,-7267843 -94686,-7267802 -94671,-7267783 -94665,-7267773 -94655,-7267751 -94651,-7267739 -94646,-7267670 -94644,-7267622 -94644,-7267616 -94701,-7267560 -94749,-7267507 -94758,-7267498 -94788,-7267493 -94806,-7267475 -94869,-7267453 -94880,-7267414 -94890,-7267329 -94891,-7267273 -94890,-7267197 -94892,-7267098 -94889,-7266868 -94883,-7266756 -94882,-7266700 -94881,-7266644 -94882,-7266503 -94891,-7266440 -94920,-7266289 -94974,-7266033 -94991,-7265945 -94927,-7265739 -94821,-7265412 -94709,-7265177 -94643,-7265006 -94588,-7264876 -94513,-7264684 -94467,-7264568 -94271,-7264313 -94232,-7264259 -94071,-7264013 -93947,-7263742 -93969,-7263421 -94204,-7263276 -94371,-7263168 -94458,-7263119 -94702,-7263112 -95029,-7263105 -95226,-7263098 -95318,-7263095 -95344,-7263100 -95606,-7263175 -96123,-7263332 -96252,-7263346 -96511,-7263362 -96855,-7263499 -97443,-7263724 -97491,-7263731 -97495,-7263764 -97498,-7263799 -97504,-7263926 -97521,-7264122 -97532,-7264331 -97553,-7264541 -97646,-7264459 -97759,-7264529 -97857,-7264599 -97899,-7264632 -97940,-7264665 -98032,-7264748 -98052,-7264858 -98361,-7264847 -98717,-7264848 -99144,-7264839 -99543,-7264832 -99543,-7264728 -99579,-7264694 -99648,-7264635 -99718,-7264581 -99773,-7264547 -99822,-7264519 -99914,-7264475 -99990,-7264435 -100074,-7264400 -100113,-7264386 -100236,-7264344 -100345,-7264313 -100535,-7264269 -100749,-7264216 -100932,-7264174 -101068,-7264134 -101342,-7264064 -101500,-7264027 -101617,-7264001 -101729,-7263982 -101854,-7263964 -101897,-7263957 -101938,-7263950 -102009,-7263934 -102178,-7263887 -102394,-7263816 -102511,-7263778 -102533,-7263769 -102708,-7263710 -102741,-7263703 -102773,-7263698 -102860,-7263699 -102912,-7263702 -103014,-7263714 -103123,-7263734 -103148,-7263739 -103231,-7263767 -103295,-7263786 -103368,-7263811 -103398,-7263818 -103419,-7263821 -103446,-7263823 -103659,-7263811 -103753,-7263798 -103817,-7263786 -103899,-7263762 -103918,-7263751 -103943,-7263725 -103962,-7263714 -104009,-7263692 -104019,-7263688 -104063,-7263665 -104112,-7263643 -104193,-7263603 -104259,-7263575 -104351,-7263537 -104484,-7263486 -104531,-7263468 -104630,-7263425 -104719,-7263385 -104845,-7263332 -105011,-7263282 -105084,-7263256 -105140,-7263243 -105198,-7263231 -105291,-7263217 -105329,-7263213 -105439,-7263205 -105485,-7263200 -105805,-7263157 -105980,-7263139 -106014,-7263134 -106041,-7263127 -106082,-7263131 -106115,-7263148 -106129,-7263162 -106143,-7263176 -106285,-7263337 -106500,-7263562 -106699,-7263782 -107162,-7264279 -107270,-7264397 -107555,-7264696 -107588,-7264730 -107738,-7264901 -107829,-7264926 -108026,-7264987 -108345,-7265091 -108540,-7265154 -108625,-7265182 -108768,-7265225 -109234,-7265378 -109382,-7265423 -109443,-7265438 -109622,-7265498 -109915,-7265589 -110070,-7265628 -110475,-7265716 -110613,-7265747 -110902,-7265817 -111074,-7265854 -111508,-7265955 -111698,-7266002 -112365,-7265945 -113118,-7265886 -113761,-7265832 -113968,-7265816 -114521,-7265237 -115290,-7264416 -115421,-7264283 -115444,-7264304 -115450,-7264309 -115474,-7264314 -115478,-7264322 -115491,-7264328 -115510,-7264338 -115528,-7264366 -115553,-7264379 -115587,-7264413 -115598,-7264418 -115616,-7264420 -115623,-7264431 -115627,-7264435 -115631,-7264437 -115636,-7264438 -115664,-7264438 -115680,-7264445 -115709,-7264453 -115713,-7264458 -115714,-7264461 -115713,-7264464 -115704,-7264472 -115704,-7264478 -115717,-7264489 -115731,-7264490 -115734,-7264489 -115743,-7264483 -115753,-7264482 -115805,-7264499 -115844,-7264522 -115849,-7264522 -115859,-7264521 -115866,-7264520 -115883,-7264512 -115901,-7264516 -115905,-7264516 -115932,-7264508 -115939,-7264507 -115965,-7264510 -115987,-7264508 -116003,-7264510 -116041,-7264523 -116045,-7264526 -116049,-7264529 -116061,-7264545 -116070,-7264545 -116081,-7264522 -116089,-7264517 -116092,-7264518 -116096,-7264519 -116098,-7264526 -116095,-7264560 -116096,-7264564 -116100,-7264569 -116103,-7264572 -116144,-7264577 -116165,-7264584 -116184,-7264595 -116209,-7264617 -116215,-7264620 -116228,-7264626 -116242,-7264639 -116285,-7264660 -116326,-7264664 -116344,-7264668 -116377,-7264667 -116398,-7264665 -116467,-7264655 -116503,-7264655 -116519,-7264651 -116539,-7264654 -116566,-7264663 -116596,-7264685 -116608,-7264687 -116627,-7264692 -116660,-7264707 -116673,-7264704 -116682,-7264695 -116687,-7264692 -116696,-7264701 -116714,-7264699 -116720,-7264703 -116747,-7264723 -116754,-7264727 -116762,-7264730 -116779,-7264736 -116789,-7264738 -116808,-7264736 -116817,-7264734 -116826,-7264731 -116853,-7264720 -116860,-7264721 -116887,-7264729 -116894,-7264731 -116901,-7264730 -116925,-7264724 -116950,-7264722 -116955,-7264722 -116960,-7264723 -116974,-7264730 -117005,-7264738 -117014,-7264756 -117023,-7264763 -117036,-7264769 -117039,-7264777 -117053,-7264792 -117080,-7264809 -117112,-7264832 -117196,-7264884 -117276,-7264918 -117292,-7264930 -117312,-7264952 -117336,-7264964 -117349,-7264978 -117363,-7264986 -117373,-7265004 -117395,-7265013 -117423,-7265037 -117456,-7265045 -117466,-7265040 -117501,-7265072 -117525,-7265089 -117540,-7265094 -117549,-7265113 -117564,-7265150 -117567,-7265153 -117571,-7265155 -117591,-7265156 -117608,-7265171 -117634,-7265182 -117633,-7265191 -117635,-7265194 -117642,-7265195 -117652,-7265193 -117668,-7265182 -117678,-7265183 -117685,-7265188 -117688,-7265193 -117696,-7265213 -117706,-7265222 -117716,-7265226 -117725,-7265225 -117737,-7265226 -117747,-7265232 -117749,-7265240 -117763,-7265246 -117760,-7265266 -117795,-7265309 -117811,-7265310 -117838,-7265315 -117842,-7265320 -117861,-7265327 -117877,-7265349 -117894,-7265368 -117914,-7265396 -117931,-7265406 -117937,-7265411 -117938,-7265415 -117944,-7265439 -117950,-7265450 -117967,-7265458 -117974,-7265473 -117991,-7265476 -118000,-7265488 -118010,-7265488 -118034,-7265476 -118184,-7265393 -118201,-7265382 -118319,-7265303 -118434,-7265215 -118533,-7265140 -118707,-7265323 -118881,-7265510 -119030,-7265629 -119154,-7265709 -119536,-7265926 -119668,-7265987 -119723,-7266014 -119911,-7266105 -120024,-7266157 -120171,-7266146 -120318,-7266130 -120640,-7266105 -120853,-7266085 -120970,-7266076 -120989,-7266077 -121001,-7266076 -121018,-7266072 -121032,-7266067 -121073,-7266100 -121074,-7266101 -121131,-7266142 -121340,-7266305 -121436,-7266377 -121482,-7266417 -121791,-7266698 -121809,-7266709 -121824,-7266716 -121835,-7266719 -121841,-7266720 -121857,-7266721 -121898,-7266717 -121923,-7266714 -121951,-7266709 -121970,-7266705 -121997,-7266696 -122036,-7266679 -122055,-7266669 -122058,-7266668 -122063,-7266668 -122084,-7266671 -122096,-7266678 -122108,-7266679 -122113,-7266678 -122132,-7266673 -122146,-7266672 -122191,-7266678 -122213,-7266677 -122269,-7266667 -122320,-7266663 -122366,-7266655 -122411,-7266646 -122462,-7266634 -122473,-7266630 -122497,-7266617 -122520,-7266608 -122563,-7266596 -122582,-7266590 -122621,-7266575 -122638,-7266570 -122712,-7266562 -122818,-7266543 -122925,-7266532 -123008,-7266514 -123013,-7266513 -123024,-7266506 -123083,-7266516 -123103,-7266519 -123130,-7266519 -123140,-7266517 -123163,-7266511 -123230,-7266484 -123286,-7266464 -123336,-7266443 -123369,-7266432 -123379,-7266428 -123471,-7266374 -123498,-7266360 -123526,-7266348 -123555,-7266336 -123584,-7266325 -123618,-7266313 -123654,-7266295 -123672,-7266287 -123698,-7266279 -123706,-7266276 -123763,-7266263 -123748,-7266115 -123746,-7266056 -123740,-7265991 -123745,-7265833 -123746,-7265815 -123755,-7265772 -123766,-7265722 -123772,-7265705 -123804,-7265605 -123816,-7265577 -123824,-7265565 -123833,-7265554 -123839,-7265548 -123843,-7265545 -123863,-7265538 -123877,-7265529 -123892,-7265520 -123912,-7265501 -123920,-7265491 -123938,-7265441 -123952,-7265386 -123961,-7265361 -123967,-7265349 -123990,-7265311 -124013,-7265278 -124017,-7265272 -124027,-7265248 -124046,-7265226 -124055,-7265222 -124075,-7265219 -124134,-7265223 -124146,-7265222 -124153,-7265219 -124163,-7265214 -124171,-7265208 -124204,-7265178 -124245,-7265149 -124273,-7265133 -124325,-7265110 -124353,-7265101 -124363,-7265098 -124418,-7265095 -124497,-7265079 -124509,-7265078 -124533,-7265081 -124579,-7265083 -124593,-7265085 -124637,-7265101 -124705,-7265129 -124804,-7265153 -124901,-7265175 -124910,-7265176 -124917,-7265178 -124928,-7265186 -124946,-7265207 -124949,-7265210 -124970,-7265222 -124990,-7265231 -125052,-7265230 -125106,-7265229 -125142,-7265226 -125188,-7265225 -125197,-7265225 -125254,-7265209 -125281,-7265200 -125288,-7265199 -125345,-7265192 -125418,-7265179 -125436,-7265192 -125444,-7265226 -125469,-7265229 -125489,-7265232 -125546,-7265249 -125655,-7265288 -125687,-7265300 -125734,-7265321 -125801,-7265355 -125838,-7265394 -125838,-7265413 -125885,-7265431 -125964,-7265459 -126027,-7265479 -126103,-7265506 -126136,-7265516 -126185,-7265529 -126292,-7265550 -126329,-7265558 -126398,-7265579 -126428,-7265590 -126538,-7265643 -126605,-7265665 -126667,-7265689 -126760,-7265718 -126837,-7265737 -126962,-7265769 -127071,-7265803 -127153,-7265831 -127183,-7265840 -127212,-7265849 -127269,-7265862 -127350,-7265896 -127470,-7265940 -127522,-7265956 -127542,-7265962 -127557,-7265964 -127594,-7265965 -127596,-7265980 -127604,-7265995 -127606,-7266009 -127601,-7266021 -127544,-7266055 -127505,-7266078 -127454,-7266103 -127385,-7266147 -127358,-7266157 -127343,-7266179 -127299,-7266247 -127286,-7266270 -127272,-7266293 -127258,-7266309 -127222,-7266345 -127218,-7266352 -127217,-7266355 -127202,-7266408 -127198,-7266447 -127180,-7266479 -127174,-7266494 -127160,-7266559 -127150,-7266572 -127140,-7266590 -127103,-7266642 -127085,-7266669 -127086,-7266701 -127078,-7266725 -127066,-7266761 -127064,-7266817 -127058,-7266827 -127044,-7266843 -127031,-7266872 -127031,-7266904 -127028,-7266913 -127000,-7266960 -126971,-7266986 -126942,-7267039 -126938,-7267052 -126911,-7267087 -126893,-7267129 -126866,-7267160 -126844,-7267201 -126842,-7267242 -126824,-7267291 -126827,-7267313 -126830,-7267339 -126829,-7267359 -126817,-7267401 -126800,-7267442 -126801,-7267470 -126769,-7267565 -126744,-7267634 -126736,-7267703 -126726,-7267736 -126692,-7267843 -126680,-7267884 -126672,-7267926 -126673,-7267973 -126663,-7268025 -126655,-7268104 -126643,-7268131 -126638,-7268170 -126615,-7268251 -126608,-7268272 -126605,-7268285 -126611,-7268299 -126625,-7268314 -126648,-7268330 -126674,-7268343 -126773,-7268395 -126849,-7268433 -126899,-7268455 -126930,-7268463 -127059,-7268478 -127083,-7268483 -127182,-7268484 -127199,-7268479 -127222,-7268471 -127264,-7268450 -127298,-7268455 -127328,-7268457 -127343,-7268456 -127362,-7268447 -127380,-7268433 -127409,-7268410 -127442,-7268393 -127463,-7268387 -127486,-7268383 -127511,-7268371 -127529,-7268372 -127546,-7268377 -127556,-7268380 -127567,-7268379 -127596,-7268371 -127613,-7268363 -127636,-7268346 -127655,-7268342 -127675,-7268342 -127709,-7268353 -127720,-7268351 -127783,-7268259 -127822,-7268185 -127905,-7268243 -127940,-7268272 -128010,-7268318 -128097,-7268370 -128150,-7268413 -128192,-7268432 -128233,-7268452 -128260,-7268472 -128282,-7268486 -128307,-7268497 -128375,-7268517 -128406,-7268519 -128473,-7268528 -128604,-7268541 -128655,-7268544 -128679,-7268548 -128736,-7268537 -128983,-7268486 -129101,-7268461 -129140,-7268600 -129150,-7268647 -129205,-7268786 -129272,-7268933 -129287,-7268938 -129293,-7268941 -129302,-7268966 -129309,-7269011 -129319,-7269065 -129323,-7269115 -129333,-7269297 -129405,-7269344 -129438,-7269369 -129470,-7269401 -129477,-7269399 -129505,-7269432 -129565,-7269498 -129623,-7269566 -129686,-7269632 -129646,-7269668 -129554,-7269758 -129509,-7269809 -129468,-7269863 -129442,-7269898 -129414,-7269939 -129384,-7269992 -129354,-7270049 -129310,-7270141 -129299,-7270162 -129277,-7270214 -129284,-7270217 -129305,-7270230 -129330,-7270237 -129355,-7270239 -129436,-7270270 -129439,-7270265 -129476,-7270280 -129526,-7270304 -129616,-7270348 -129693,-7270390 -129749,-7270422 -129809,-7270458 -129806,-7270465 -129867,-7270508 -129869,-7270505 -129926,-7270544 -129999,-7270595 -130062,-7270647 -130112,-7270690 -130168,-7270734 -130161,-7270741 -130190,-7270765 -130217,-7270787 -130281,-7270838 -130285,-7270834 -130339,-7270887 -130411,-7270950 -130414,-7270947 -130447,-7270978 -130568,-7271073 -130644,-7271143 -130682,-7271180 -130760,-7271247 -130796,-7271277 -130840,-7271313 -130896,-7271360 -130919,-7271376 -130972,-7271413 -131016,-7271453 -131119,-7271543 -131161,-7271578 -131268,-7271670 -131319,-7271716 -131361,-7271754 -131360,-7271756 -131343,-7271772 -131350,-7271779 -131360,-7271771 -131446,-7271853 -131448,-7271854 -131550,-7271951 -131624,-7272021 -131707,-7272096 -131818,-7272212 -131881,-7272276 -131989,-7272372 -132104,-7272486 -132216,-7272594 -132248,-7272628 -132360,-7272745 -132388,-7272772 -132501,-7272857 -132532,-7272876 -132559,-7272897 -132599,-7272935 -132629,-7272965 -132686,-7273027 -132720,-7273069 -132769,-7273140 -132778,-7273151 -132798,-7273172 -132839,-7273208 -132969,-7273359 -133151,-7273575 -133255,-7273711 -133329,-7273791 -133350,-7273819 -133407,-7273872 -133450,-7273911 -133479,-7273959 -133445,-7273972 -133403,-7273988 -133374,-7273995 -133298,-7274008 -133224,-7274030 -133151,-7274065 -133102,-7274095 -133052,-7274135 -133018,-7274167 -132951,-7274236 -132842,-7274357 -132719,-7274482 -132672,-7274527 -132627,-7274563 -132582,-7274591 -132546,-7274613 -132437,-7274672 -132428,-7274676 -132307,-7274732 -132212,-7274768 -132148,-7274792 -132019,-7274842 -131962,-7274858 -131926,-7274865 -131830,-7274879 -131775,-7274888 -131583,-7274929 -131424,-7274998 -131380,-7275010 -131267,-7275056 -131246,-7275071 -131139,-7275182 -131053,-7275269 -131006,-7275315 -131003,-7275318 -130980,-7275337 -130938,-7275374 -130905,-7275401 -130815,-7275463 -130727,-7275519 -130639,-7275560 -130584,-7275580 -130525,-7275595 -130431,-7275613 -130331,-7275633 -130283,-7275645 -130261,-7275650 -130248,-7275654 -130136,-7275697 -130008,-7275749 -129944,-7275772 -129872,-7275793 -129870,-7275828 -129875,-7275833 -129879,-7275852 -129880,-7275872 -129897,-7275904 -129927,-7275944 -129956,-7275998 -129975,-7276030 -129983,-7276036 -129990,-7276049 -129996,-7276076 -130021,-7276103 -130053,-7276151 -130075,-7276177 -130088,-7276202 -130101,-7276213 -130113,-7276237 -130119,-7276251 -130133,-7276263 -130144,-7276282 -130169,-7276309 -130177,-7276330 -130199,-7276358 -130222,-7276391 -130275,-7276406 -130291,-7276409 -130312,-7276422 -130322,-7276436 -130324,-7276439 -130335,-7276460 -130362,-7276514 -130362,-7276521 -130363,-7276525 -130370,-7276537 -130382,-7276557 -130385,-7276568 -130387,-7276573 -130398,-7276591 -130431,-7276665 -130432,-7276672 -130434,-7276684 -130443,-7276697 -130449,-7276704 -130456,-7276717 -130458,-7276727 -130458,-7276729 -130463,-7276738 -130483,-7276766 -130489,-7276788 -130499,-7276801 -130500,-7276802 -130504,-7276804 -130511,-7276807 -130516,-7276815 -130541,-7276835 -130550,-7276838 -130565,-7276856 -130588,-7276871 -130600,-7276892 -130618,-7276901 -130630,-7276912 -130648,-7276921 -130659,-7276931 -130664,-7276946 -130678,-7276953 -130680,-7276969 -130689,-7276981 -130695,-7276999 -130712,-7277017 -130721,-7277021 -130742,-7277042 -130753,-7277048 -130759,-7277057 -130784,-7277064 -130796,-7277075 -130825,-7277085 -130838,-7277094 -130875,-7277133 -130882,-7277137 -130896,-7277169 -130896,-7277189 -130910,-7277222 -130903,-7277244 -130905,-7277271 -130897,-7277291 -130896,-7277320 -130892,-7277329 -130893,-7277344 -130900,-7277382 -130890,-7277402 -130882,-7277410 -130882,-7277422 -130888,-7277431 -130891,-7277445 -130903,-7277467 -130904,-7277481 -130909,-7277492 -130904,-7277557 -130902,-7277613 -130900,-7277651 -130892,-7277664 -130898,-7277697 -130902,-7277743 -130918,-7277774 -130921,-7277812 -130947,-7277839 -130947,-7277866 -130957,-7277877 -130963,-7277890 -130949,-7277932 -130944,-7277953 -130944,-7277967 -130958,-7277986 -130961,-7278021 -130967,-7278034 -130966,-7278077 -130977,-7278100 -130978,-7278121 -130974,-7278133 -130965,-7278142 -130960,-7278158 -130959,-7278189 -130986,-7278233 -131000,-7278275 -131022,-7278322 -131052,-7278373 -131052,-7278391 -131063,-7278405 -131088,-7278460 -131094,-7278486 -131091,-7278524 -131100,-7278542 -131105,-7278562 -131121,-7278576 -131131,-7278585 -131145,-7278587 -131214,-7278585 -131248,-7278583 -131272,-7278593 -131292,-7278600 -131316,-7278608 -131365,-7278626 -131414,-7278623 -131429,-7278629 -131435,-7278627 -131447,-7278615 -131451,-7278615 -131464,-7278622 -131483,-7278641 -131493,-7278657 -131501,-7278662 -131516,-7278663 -131569,-7278687 -131592,-7278690 -131611,-7278698 -131627,-7278700 -131650,-7278696 -131672,-7278700 -131690,-7278697 -131722,-7278698 -131752,-7278705 -131787,-7278727 -131821,-7278757 -131883,-7278808 -131896,-7278815 -131903,-7278826 -131904,-7278850 -131908,-7278863 -131925,-7278879 -131951,-7278942 -131950,-7278961 -131962,-7278991 -132025,-7279173 -132053,-7279250 -132063,-7279293 -132084,-7279336 -132088,-7279365 -132124,-7279404 -132141,-7279429 -132177,-7279475 -132219,-7279518 -132283,-7279577 -132355,-7279648 -132412,-7279699 -132432,-7279710 -132482,-7279749 -132504,-7279791 -132511,-7279800 -132529,-7279808 -132532,-7279809 -132537,-7279811 -132587,-7279789 -132660,-7279762 -132932,-7279688 -132941,-7279688 -133076,-7279796 -133094,-7279816 -133103,-7279818 -133127,-7279828 -133163,-7279849 -133215,-7279892 -133269,-7279895 -133411,-7280013 -133570,-7280143 -133616,-7280180 -133777,-7280308 -133692,-7280321 -133683,-7280322 -133680,-7280322 -133679,-7280322 -133645,-7280331 -133583,-7280349 -133484,-7280383 -133437,-7280401 -133381,-7280433 -133342,-7280454 -133306,-7280480 -133248,-7280513 -133155,-7280578 -133097,-7280628 -132952,-7280749 -132955,-7280752 -132959,-7280758 -133256,-7281120 -133428,-7281326 -133338,-7281395 -133261,-7281457 -133203,-7281507 -133152,-7281554 -132937,-7281777 -132400,-7282334 -132328,-7282412 -132310,-7282434 -132300,-7282452 -132286,-7282479 -132262,-7282539 -132256,-7282553 -132243,-7282577 -132226,-7282600 -132212,-7282615 -132178,-7282646 -132112,-7282710 -132074,-7282757 -132010,-7282826 -131987,-7282847 -131969,-7282860 -131941,-7282879 -131839,-7282942 -131806,-7282967 -131790,-7282981 -131755,-7283015 -131367,-7283436 -131159,-7283677 -131146,-7283691 -131138,-7283701 -131131,-7283715 -131126,-7283725 -131122,-7283744 -131116,-7283770 -131114,-7283786 -131113,-7283797 -131114,-7283819 -131112,-7283828 -131109,-7283839 -131104,-7283851 -131098,-7283862 -131089,-7283874 -130991,-7283972 -130830,-7284127 -130717,-7284241 -130692,-7284269 -130689,-7284273 -130675,-7284313 -130671,-7284322 -130650,-7284349 -130583,-7284403 -130515,-7284454 -130488,-7284468 -130444,-7284482 -130435,-7284488 -130429,-7284494 -130421,-7284506 -130308,-7284653 -130285,-7284687 -130266,-7284719 -130244,-7284759 -130235,-7284778 -130225,-7284801 -130219,-7284810 -130174,-7284858 -130104,-7284918 -130024,-7284995 -130003,-7285011 -129985,-7285029 -129978,-7285038 -129960,-7285064 -129910,-7285150 -129897,-7285168 -129883,-7285185 -129870,-7285199 -129855,-7285212 -129836,-7285227 -129745,-7285311 -129710,-7285346 -129555,-7285502 -129343,-7285719 -129094,-7285978 -129058,-7286009 -129021,-7286042 -128986,-7286077 -128952,-7286113 -128935,-7286132 -128932,-7286136 -128896,-7286179 -128877,-7286205 -128840,-7286256 -128806,-7286310 -128775,-7286360 -128751,-7286402 -128731,-7286441 -128702,-7286501 -128608,-7286758 -128586,-7286823 -128550,-7286944 -128537,-7286993 -128507,-7287117 -128494,-7287179 -128481,-7287241 -128465,-7287339 -128446,-7287475 -128435,-7287586 -128425,-7287712 -128424,-7287742 -128423,-7287758 -128422,-7287803 -128420,-7287878 -128419,-7287924 -128416,-7287955 -128414,-7288025 -128414,-7288116 -128415,-7288135 -128419,-7288201 -128433,-7288330 -128450,-7288429 -128490,-7288595 -128512,-7288667 -128545,-7288752 -128569,-7288822 -128630,-7288971 -128653,-7289036 -128708,-7289195 -128767,-7289378 -128814,-7289530 -128826,-7289580 -128850,-7289667 -128869,-7289765 -128878,-7289822 -128881,-7289835 -128897,-7289882 -128905,-7289946 -128907,-7289979 -128908,-7290052 -128910,-7290117 -128910,-7290164 -128909,-7290240 -128906,-7290287 -128897,-7290378 -128884,-7290472 -128869,-7290558 -128866,-7290613 -128860,-7290663 -128851,-7290704 -128834,-7290780 -128830,-7290805 -128826,-7290814 -128818,-7290832 -128813,-7290840 -128774,-7290890 -128734,-7290946 -128709,-7290983 -128638,-7291131 -128614,-7291172 -128572,-7291248 -128550,-7291296 -128467,-7291512 -128443,-7291581 -128414,-7291648 -128401,-7291688 -128380,-7291728 -128371,-7291749 -128323,-7291875 -128301,-7291947 -128257,-7292132 -128255,-7292175 -128248,-7292221 -128240,-7292305 -128242,-7292416 -128244,-7292442 -128251,-7292513 -128269,-7292647 -128279,-7292694 -128313,-7292883 -128328,-7292952 -128340,-7293020 -128348,-7293089 -128351,-7293139 -128357,-7293179 -128361,-7293256 -128354,-7293282 -128347,-7293301 -128322,-7293334 -128283,-7293370 -128233,-7293407 -128197,-7293425 -128049,-7293519 -127996,-7293558 -127955,-7293586 -127930,-7293605 -127884,-7293641 -127821,-7293694 -127786,-7293738 -127776,-7293751 -127751,-7293810 -127743,-7293845 -127300,-7293813 -126927,-7293789 -126717,-7293774 -126623,-7293767 -126607,-7293765 -126598,-7293761 -126590,-7293756 -126578,-7293750 -126572,-7293742 -126571,-7293736 -126571,-7293728 -126574,-7293697 -126574,-7293687 -126571,-7293645 -126571,-7293621 -126573,-7293608 -126583,-7293570 -126587,-7293558 -126603,-7293521 -126618,-7293505 -126634,-7293426 -126607,-7293376 -126601,-7293365 -126584,-7293345 -126537,-7293302 -126518,-7293289 -126495,-7293277" stroke="white" stroke-width="76" /></ns0:svg>    <rect x="20" y="50"  width="250" height="25"  rx="0"  fill="#E8EDEE" fill-opacity="0.8" />    <text x="145" y="70" text-anchor="middle" font-family="Frutiger" font-weight="bold" font-size="20" fill="#AE2573">Redcar and Cleveland</text>    <rect x="35" y="195" width="220" height="160" rx="15" fill="#724F95"/>    <g font-family="Frutiger" font-size="15" fill="white">        <g> <text x="45" y="218">Self-harm</text> <text x="245" y="218" text-anchor="end">48</text> </g>        <g> <text x="45" y="243">SEN</text> <text x="245" y="243" text-anchor="end">72</text> </g>        <g> <text x="45" y="268">Difficulties</text> <text x="245" y="268" text-anchor="end">72</text> </g>        <g> <text x="45" y="293">Child Carer</text> <text x="245" y="293" text-anchor="end"></text> </g>        <g> <text x="45" y="318">Drinkers</text> <text x="245" y="318" text-anchor="end">76</text> </g>        <g> <text x="45" y="343">Safeguarding </text> <text x="245" y="343" text-anchor="end">30</text> </g>    </g></svg>