<?xml version="1.0" standalone="no"?>
<!DOCTYPE svg PUBLIC "-//W3C//DTD SVG 1.1//EN"
"http://www.w3.org/Graphics/SVG/1.1/DTD/svg11.dtd">
<svg height="1800" version="1.1" width="1800" xmlns="http://www.w3.org/2000/svg"><defs><style type="text/css">@font-face {font-family: 'Frutiger';font-style: normal;font-weight: normal;src: local('Frutiger'), url('../fonts/Frutiger.woff') format('woff');}@font-face {font-family: 'Frutiger Bold';font-style: normal;font-weight: normal;src: local('Frutiger Bold'), url('../fonts/Frutiger_bold.woff') format('woff');}        </style>    </defs>    <rect x="20" y="20"  width="250" height="350" rx="15" fill="#AE2573" />    <rect x="35" y="35"  width="220" height="145" rx="15" fill="#330072" /><ns0:svg xmlns:ns0="http://www.w3.org/2000/svg" height="115" version="1.1" viewBox="-73487 -6717177 18938 12681" width="220" x="35" y="50"><ns0:polygon fill="white" points=" -69455,-6716980 -69437,-6716976 -69391,-6716980 -69316,-6716994 -69274,-6716993 -69244,-6716993 -69208,-6716991 -69182,-6716984 -69160,-6716981 -69162,-6716970 -69110,-6716973 -69108,-6716973 -69068,-6716975 -69037,-6716982 -69035,-6716982 -69021,-6716985 -68985,-6716995 -68969,-6716903 -68925,-6716909 -68914,-6716858 -68901,-6716806 -68943,-6716721 -68952,-6716697 -68960,-6716663 -68976,-6716592 -68977,-6716564 -68972,-6716563 -68969,-6716561 -68942,-6716554 -68898,-6716539 -68859,-6716525 -68827,-6716524 -68807,-6716461 -68801,-6716453 -68785,-6716404 -68773,-6716407 -68734,-6716417 -68664,-6716430 -68629,-6716290 -68497,-6716321 -68412,-6716344 -68381,-6716284 -68386,-6716252 -68327,-6716270 -68298,-6716149 -68280,-6716086 -68154,-6716113 -68125,-6716120 -68106,-6716126 -68079,-6716075 -68032,-6715992 -67989,-6715910 -67964,-6715854 -67961,-6715848 -67887,-6715877 -67806,-6715912 -67745,-6715936 -67736,-6715945 -67730,-6715950 -67726,-6715950 -67657,-6715956 -67611,-6715960 -67580,-6715962 -67580,-6715962 -67504,-6715968 -67497,-6715924 -67479,-6715806 -67473,-6715740 -67468,-6715687 -67457,-6715578 -67423,-6715560 -67363,-6715519 -67260,-6715461 -67216,-6715443 -67151,-6715418 -67122,-6715407 -67036,-6715378 -66990,-6715364 -66771,-6715306 -66660,-6715271 -66539,-6715238 -66471,-6715225 -66371,-6715215 -66396,-6714910 -66398,-6714851 -66398,-6714840 -66353,-6714847 -66293,-6714856 -66291,-6714857 -66301,-6714805 -66197,-6714820 -66209,-6714702 -66217,-6714652 -66231,-6714561 -66233,-6714554 -66056,-6714546 -65916,-6714541 -65755,-6714534 -65661,-6714531 -65663,-6714431 -65663,-6714275 -65659,-6714274 -65630,-6714275 -65622,-6714291 -65610,-6714310 -65595,-6714327 -65587,-6714334 -65577,-6714341 -65564,-6714348 -65547,-6714355 -65533,-6714359 -65522,-6714362 -65501,-6714364 -65471,-6714363 -65454,-6714361 -65382,-6714345 -65374,-6714345 -65347,-6714345 -65323,-6714349 -65210,-6714347 -64888,-6714345 -64810,-6714346 -64697,-6714345 -64675,-6714346 -64678,-6714359 -64686,-6714399 -64691,-6714455 -64686,-6714647 -64679,-6714716 -64674,-6714753 -64668,-6714788 -64661,-6714818 -64638,-6714893 -64616,-6714952 -64594,-6715000 -64558,-6715065 -64534,-6715109 -64509,-6715165 -64482,-6715241 -64479,-6715250 -64451,-6715368 -64432,-6715460 -64415,-6715537 -64401,-6715605 -64383,-6715668 -64327,-6715798 -64286,-6715885 -64246,-6715969 -64211,-6716060 -64180,-6716148 -64161,-6716192 -64146,-6716228 -64132,-6716259 -64117,-6716285 -64106,-6716284 -64073,-6716281 -63935,-6716280 -63877,-6716281 -63805,-6716290 -63779,-6716291 -63767,-6716290 -63758,-6716289 -63739,-6716286 -63733,-6716284 -63720,-6716280 -63702,-6716274 -63678,-6716262 -63605,-6716234 -63537,-6716203 -63464,-6716175 -63458,-6716155 -63434,-6716155 -63423,-6716152 -63400,-6716145 -63370,-6716127 -63360,-6716120 -63345,-6716120 -63309,-6716111 -63288,-6716108 -63273,-6716107 -63243,-6716107 -63235,-6716117 -63146,-6716118 -63141,-6716112 -63145,-6716023 -63151,-6715975 -63153,-6715897 -63176,-6715800 -63198,-6715699 -63194,-6715695 -63184,-6715685 -63191,-6715675 -63207,-6715654 -63230,-6715636 -63271,-6715623 -63316,-6715608 -63343,-6715589 -63393,-6715550 -63407,-6715546 -63444,-6715537 -63462,-6715533 -63483,-6715530 -63499,-6715529 -63516,-6715528 -63623,-6715531 -63667,-6715531 -63692,-6715531 -63745,-6715531 -63767,-6715532 -63780,-6715530 -63822,-6715516 -63872,-6715510 -63932,-6715488 -63979,-6715488 -64012,-6715484 -64012,-6715464 -64019,-6715460 -64016,-6715439 -64008,-6715408 -63987,-6715370 -63973,-6715348 -63958,-6715328 -63941,-6715311 -63921,-6715290 -63907,-6715280 -63905,-6715278 -63891,-6715273 -63850,-6715250 -63831,-6715239 -63800,-6715216 -63789,-6715207 -63768,-6715192 -63755,-6715174 -63750,-6715168 -63742,-6715159 -63731,-6715140 -63723,-6715122 -63718,-6715108 -63714,-6715094 -63707,-6715061 -63702,-6714993 -63691,-6714894 -63676,-6714821 -63664,-6714737 -63663,-6714671 -63660,-6714620 -63654,-6714586 -63649,-6714561 -63643,-6714538 -63633,-6714512 -63625,-6714492 -63605,-6714453 -63593,-6714433 -63570,-6714397 -63559,-6714384 -63537,-6714361 -63506,-6714334 -63452,-6714288 -63319,-6714179 -63212,-6714086 -63174,-6714056 -63173,-6714056 -63152,-6714044 -63143,-6714041 -63129,-6714037 -63113,-6714033 -63101,-6714029 -63082,-6714025 -63037,-6714020 -63000,-6714019 -62969,-6714022 -62937,-6714023 -62933,-6714015 -62949,-6713963 -62918,-6713936 -62900,-6713920 -62959,-6713848 -63052,-6713735 -63123,-6713655 -63191,-6713569 -63276,-6713469 -63337,-6713388 -63251,-6713194 -63083,-6712818 -63081,-6712812 -63105,-6712745 -63147,-6712630 -63154,-6712609 -63154,-6712608 -63151,-6712605 -63200,-6712464 -63235,-6712372 -63257,-6712324 -63282,-6712285 -63301,-6712251 -63303,-6712247 -63308,-6712234 -63228,-6712188 -63183,-6712162 -63144,-6712145 -63112,-6712131 -63079,-6712118 -63057,-6712110 -63017,-6712098 -62877,-6712064 -62784,-6712043 -62780,-6712043 -62752,-6712043 -62700,-6712033 -62663,-6712025 -62536,-6712000 -62400,-6711973 -62353,-6711963 -62263,-6711947 -62216,-6711938 -62155,-6711929 -62067,-6711913 -62063,-6711912 -62059,-6711912 -62032,-6711907 -61987,-6711899 -61947,-6711891 -61884,-6711881 -61801,-6711870 -61742,-6711862 -61665,-6711852 -61558,-6711846 -61461,-6711845 -61450,-6711845 -61407,-6711847 -61372,-6711848 -61268,-6711851 -61079,-6711865 -60666,-6711899 -60507,-6711908 -60456,-6711912 -60456,-6711907 -60391,-6711912 -60390,-6711877 -60394,-6711849 -60396,-6711832 -60394,-6711824 -60369,-6711821 -60363,-6711839 -60342,-6711877 -60333,-6711894 -60316,-6711912 -60309,-6711919 -60304,-6711924 -60292,-6711924 -60291,-6711924 -60265,-6711925 -60216,-6711927 -60153,-6711931 -60080,-6711935 -60023,-6711939 -59946,-6711942 -59824,-6711949 -59697,-6711957 -59640,-6711962 -59522,-6711970 -59496,-6711973 -59453,-6711977 -59439,-6711985 -59378,-6711988 -59312,-6711991 -59285,-6711988 -59263,-6711985 -59118,-6711998 -59026,-6712006 -58930,-6712015 -58907,-6712018 -58871,-6712023 -58833,-6712017 -58812,-6712012 -58803,-6711978 -58794,-6711976 -58789,-6711975 -58789,-6711965 -58788,-6711957 -58788,-6711955 -58789,-6711954 -58790,-6711951 -58786,-6711950 -58782,-6711949 -58778,-6711956 -58777,-6711959 -58770,-6711964 -58758,-6711961 -58754,-6711959 -58746,-6711956 -58739,-6711953 -58708,-6711939 -58663,-6711919 -58647,-6711901 -58631,-6711884 -58617,-6711862 -58603,-6711845 -58592,-6711828 -58588,-6711809 -58590,-6711753 -58579,-6711687 -58573,-6711651 -58572,-6711635 -58574,-6711549 -58574,-6711546 -58628,-6711398 -58642,-6711361 -58661,-6711315 -58667,-6711291 -58677,-6711272 -58691,-6711251 -58710,-6711232 -58762,-6711000 -58799,-6710864 -58812,-6710792 -58826,-6710716 -58853,-6710598 -58877,-6710489 -58834,-6710496 -58786,-6710501 -58774,-6710502 -58763,-6710417 -58754,-6710347 -58748,-6710257 -58747,-6710128 -58753,-6710074 -58761,-6710008 -58775,-6709941 -58801,-6709839 -58823,-6709776 -58822,-6709775 -58816,-6709771 -58829,-6709761 -58831,-6709759 -58834,-6709750 -58859,-6709694 -58865,-6709683 -58884,-6709646 -58890,-6709592 -58891,-6709566 -58902,-6709567 -58947,-6709499 -58989,-6709449 -59006,-6709423 -59051,-6709330 -59076,-6709288 -59127,-6709197 -59195,-6709106 -59213,-6709077 -59201,-6709037 -59127,-6709043 -59059,-6709046 -58980,-6709048 -58909,-6709047 -58748,-6709049 -58476,-6709045 -58410,-6709044 -58230,-6709041 -57995,-6709033 -57880,-6709029 -57750,-6709024 -57667,-6709023 -57658,-6709014 -57599,-6709015 -57589,-6709022 -57540,-6709020 -57444,-6709018 -57322,-6709023 -57234,-6709026 -57135,-6709038 -57012,-6709055 -56913,-6709073 -56840,-6709084 -56750,-6709107 -56640,-6709132 -56560,-6709153 -56387,-6709201 -56350,-6709219 -56329,-6709226 -56319,-6709224 -56310,-6709223 -56300,-6709249 -56148,-6709289 -56043,-6709316 -55933,-6709342 -55815,-6709368 -55764,-6709386 -55759,-6709388 -55750,-6709384 -55745,-6709383 -55738,-6709386 -55734,-6709387 -55719,-6709292 -55612,-6709303 -55500,-6709310 -55323,-6709321 -55223,-6709324 -55092,-6709321 -54985,-6709317 -54952,-6709314 -54895,-6709310 -54832,-6709304 -54751,-6709297 -54671,-6709291 -54549,-6709279 -54549,-6709277 -54559,-6709249 -54563,-6709229 -54573,-6709195 -54574,-6709192 -54577,-6709186 -54580,-6709183 -54594,-6709176 -54598,-6709170 -54599,-6709164 -54594,-6709147 -54593,-6709140 -54593,-6709130 -54593,-6709124 -54595,-6709120 -54598,-6709115 -54602,-6709111 -54626,-6709102 -54633,-6709097 -54641,-6709089 -54650,-6709078 -54666,-6709054 -54705,-6708980 -54707,-6708978 -54711,-6708976 -54717,-6708974 -54731,-6708972 -54790,-6708967 -54793,-6708966 -54807,-6708959 -54827,-6708945 -54832,-6708941 -54841,-6708927 -54845,-6708924 -54849,-6708923 -54854,-6708923 -54868,-6708927 -54897,-6708935 -54904,-6708936 -54909,-6708936 -54918,-6708933 -54937,-6708919 -54942,-6708918 -54954,-6708917 -54974,-6708919 -55053,-6708919 -55068,-6708916 -55075,-6708913 -55080,-6708910 -55084,-6708906 -55086,-6708901 -55087,-6708895 -55087,-6708873 -55088,-6708869 -55090,-6708864 -55094,-6708860 -55112,-6708843 -55125,-6708827 -55137,-6708808 -55141,-6708796 -55141,-6708790 -55139,-6708784 -55132,-6708777 -55119,-6708769 -55113,-6708764 -55100,-6708746 -55093,-6708732 -55092,-6708725 -55091,-6708707 -55093,-6708677 -55096,-6708666 -55103,-6708657 -55114,-6708649 -55122,-6708646 -55140,-6708646 -55145,-6708645 -55153,-6708638 -55164,-6708623 -55185,-6708596 -55196,-6708578 -55199,-6708570 -55201,-6708547 -55203,-6708541 -55206,-6708536 -55212,-6708528 -55216,-6708525 -55221,-6708523 -55224,-6708523 -55241,-6708527 -55271,-6708530 -55282,-6708530 -55286,-6708529 -55292,-6708526 -55299,-6708518 -55307,-6708501 -55319,-6708486 -55322,-6708482 -55323,-6708475 -55322,-6708471 -55322,-6708470 -55319,-6708463 -55300,-6708458 -55283,-6708458 -55279,-6708457 -55269,-6708451 -55265,-6708448 -55263,-6708444 -55262,-6708440 -55261,-6708436 -55262,-6708432 -55267,-6708423 -55273,-6708413 -55279,-6708407 -55286,-6708400 -55295,-6708393 -55307,-6708387 -55330,-6708378 -55367,-6708410 -55368,-6708410 -55378,-6708399 -55386,-6708392 -55394,-6708385 -55408,-6708378 -55427,-6708371 -55436,-6708365 -55440,-6708358 -55445,-6708340 -55449,-6708335 -55456,-6708331 -55472,-6708329 -55475,-6708328 -55479,-6708325 -55507,-6708299 -55508,-6708294 -55506,-6708286 -55487,-6708257 -55479,-6708249 -55474,-6708248 -55469,-6708249 -55454,-6708256 -55450,-6708256 -55445,-6708254 -55441,-6708248 -55437,-6708240 -55434,-6708231 -55434,-6708222 -55435,-6708218 -55439,-6708210 -55453,-6708192 -55468,-6708159 -55471,-6708154 -55473,-6708153 -55476,-6708152 -55479,-6708154 -55481,-6708157 -55486,-6708175 -55490,-6708181 -55493,-6708183 -55496,-6708183 -55499,-6708181 -55503,-6708178 -55524,-6708152 -55529,-6708150 -55533,-6708150 -55535,-6708151 -55545,-6708168 -55554,-6708179 -55558,-6708180 -55562,-6708181 -55565,-6708180 -55567,-6708177 -55568,-6708173 -55567,-6708147 -55571,-6708103 -55572,-6708080 -55572,-6708077 -55568,-6708070 -55554,-6708057 -55551,-6708052 -55551,-6708048 -55552,-6708043 -55557,-6708035 -55578,-6708016 -55585,-6708009 -55587,-6708006 -55587,-6708001 -55584,-6707982 -55586,-6707975 -55588,-6707972 -55604,-6707956 -55614,-6707939 -55618,-6707929 -55619,-6707921 -55619,-6707911 -55618,-6707904 -55609,-6707892 -55608,-6707889 -55609,-6707883 -55621,-6707871 -55623,-6707867 -55623,-6707865 -55619,-6707856 -55616,-6707852 -55613,-6707850 -55610,-6707849 -55606,-6707849 -55591,-6707854 -55581,-6707856 -55570,-6707857 -55564,-6707856 -55559,-6707855 -55555,-6707852 -55548,-6707845 -55544,-6707838 -55543,-6707834 -55544,-6707829 -55550,-6707809 -55552,-6707799 -55555,-6707777 -55556,-6707764 -55556,-6707761 -55555,-6707759 -55552,-6707756 -55549,-6707755 -55534,-6707756 -55525,-6707751 -55520,-6707748 -55517,-6707744 -55515,-6707739 -55514,-6707735 -55514,-6707730 -55517,-6707724 -55520,-6707719 -55525,-6707713 -55530,-6707709 -55541,-6707704 -55544,-6707701 -55544,-6707697 -55538,-6707685 -55534,-6707671 -55534,-6707662 -55537,-6707658 -55539,-6707656 -55542,-6707655 -55548,-6707655 -55557,-6707657 -55579,-6707624 -55643,-6707529 -55707,-6707429 -55750,-6707367 -55778,-6707322 -55811,-6707268 -55849,-6707203 -55877,-6707154 -55911,-6707087 -55935,-6707028 -55958,-6706971 -55958,-6706970 -55992,-6706884 -55998,-6706868 -56011,-6706835 -56016,-6706825 -56048,-6706736 -56073,-6706647 -56095,-6706573 -56110,-6706522 -56119,-6706489 -56125,-6706456 -56130,-6706421 -56132,-6706385 -56128,-6706350 -56125,-6706330 -56130,-6706276 -56135,-6706242 -56155,-6706204 -56162,-6706184 -56167,-6706150 -56185,-6706002 -56200,-6705889 -56210,-6705811 -56214,-6705772 -56214,-6705771 -56218,-6705733 -56219,-6705726 -56225,-6705688 -56231,-6705649 -56237,-6705617 -56238,-6705611 -56242,-6705592 -56250,-6705554 -56260,-6705517 -56269,-6705480 -56274,-6705462 -56280,-6705442 -56302,-6705358 -56308,-6705337 -56321,-6705299 -56334,-6705260 -56343,-6705234 -56366,-6705173 -56380,-6705136 -56408,-6705067 -56418,-6705045 -56429,-6705023 -56440,-6705000 -56446,-6704989 -56459,-6704964 -56473,-6704940 -56487,-6704916 -56501,-6704894 -56513,-6704877 -56525,-6704860 -56538,-6704843 -56551,-6704827 -56564,-6704811 -56564,-6704810 -56577,-6704795 -56590,-6704780 -56603,-6704765 -56617,-6704751 -56632,-6704740 -56637,-6704736 -56643,-6704733 -56648,-6704730 -56653,-6704727 -56659,-6704724 -56665,-6704722 -56670,-6704719 -56676,-6704717 -56677,-6704717 -56681,-6704716 -56685,-6704715 -56689,-6704714 -56694,-6704713 -56698,-6704713 -56702,-6704712 -56707,-6704712 -56709,-6704712 -56713,-6704712 -56717,-6704712 -56721,-6704712 -56725,-6704712 -56729,-6704713 -56733,-6704713 -56736,-6704714 -56739,-6704708 -56773,-6704713 -56792,-6704711 -56817,-6704715 -56886,-6704725 -56904,-6704726 -56918,-6704707 -56926,-6704688 -56936,-6704676 -56952,-6704663 -56978,-6704650 -57009,-6704641 -57054,-6704633 -57092,-6704618 -57136,-6704595 -57171,-6704573 -57180,-6704554 -57188,-6704527 -57201,-6704496 -57403,-6704546 -57415,-6704549 -57418,-6704555 -57422,-6704563 -57431,-6704586 -57437,-6704610 -57444,-6704634 -57450,-6704647 -57464,-6704677 -57480,-6704706 -57497,-6704734 -57514,-6704762 -57533,-6704789 -57538,-6704796 -57552,-6704815 -57567,-6704835 -57582,-6704854 -57598,-6704873 -57614,-6704891 -57631,-6704909 -57648,-6704926 -57667,-6704942 -57689,-6704960 -57716,-6704979 -57744,-6704997 -57773,-6705014 -57791,-6705024 -57802,-6705030 -57817,-6705038 -57844,-6705051 -57871,-6705064 -57898,-6705075 -57925,-6705086 -57953,-6705095 -57965,-6705099 -57993,-6705107 -58022,-6705114 -58050,-6705120 -58079,-6705126 -58108,-6705130 -58137,-6705133 -58151,-6705134 -58194,-6705135 -58237,-6705135 -58281,-6705133 -58287,-6705133 -58330,-6705130 -58371,-6705129 -58369,-6705145 -58365,-6705157 -58356,-6705183 -58349,-6705200 -58343,-6705216 -58338,-6705230 -58329,-6705242 -58307,-6705269 -58298,-6705282 -58299,-6705293 -58305,-6705316 -58318,-6705357 -58323,-6705365 -58333,-6705376 -58359,-6705404 -58358,-6705414 -58357,-6705441 -58370,-6705459 -58379,-6705478 -58386,-6705485 -58395,-6705493 -58413,-6705509 -58428,-6705525 -58434,-6705533 -58441,-6705541 -58444,-6705543 -58445,-6705562 -58445,-6705573 -58445,-6705576 -58444,-6705582 -58443,-6705601 -58445,-6705611 -58456,-6705615 -58467,-6705616 -58476,-6705616 -58480,-6705616 -58482,-6705625 -58482,-6705628 -58485,-6705638 -58488,-6705651 -58499,-6705672 -58499,-6705674 -58493,-6705680 -58473,-6705693 -58466,-6705698 -58457,-6705700 -58452,-6705701 -58443,-6705702 -58441,-6705706 -58438,-6705714 -58423,-6705716 -58418,-6705717 -58415,-6705720 -58411,-6705722 -58407,-6705733 -58407,-6705743 -58407,-6705745 -58407,-6705755 -58408,-6705774 -58414,-6705783 -58421,-6705787 -58427,-6705790 -58446,-6705789 -58443,-6705810 -58444,-6705820 -58445,-6705847 -58447,-6705864 -58449,-6705882 -58452,-6705892 -58456,-6705910 -58459,-6705923 -58462,-6705936 -58464,-6705962 -58466,-6705971 -58468,-6705982 -58469,-6705997 -58471,-6706014 -58478,-6706061 -58481,-6706086 -58480,-6706097 -58478,-6706108 -58469,-6706120 -58456,-6706134 -58452,-6706147 -58453,-6706176 -58456,-6706197 -58456,-6706210 -58458,-6706224 -58457,-6706238 -58450,-6706268 -58441,-6706282 -58426,-6706301 -58412,-6706316 -58397,-6706332 -58388,-6706348 -58381,-6706362 -58376,-6706380 -58370,-6706409 -58363,-6706461 -58359,-6706507 -58358,-6706555 -58454,-6706590 -58500,-6706605 -58541,-6706621 -58605,-6706647 -58662,-6706673 -58705,-6706714 -58810,-6706819 -58909,-6706917 -58957,-6706970 -58981,-6706982 -59025,-6707003 -59095,-6707071 -59154,-6707134 -59191,-6707170 -59205,-6707186 -59244,-6707219 -59303,-6707275 -59323,-6707301 -59366,-6707374 -59390,-6707409 -59401,-6707428 -59415,-6707453 -59427,-6707473 -59388,-6707507 -59384,-6707511 -59398,-6707545 -59430,-6707635 -59443,-6707678 -59453,-6707721 -59457,-6707737 -59472,-6707796 -59481,-6707842 -59484,-6707856 -59485,-6707857 -59492,-6707860 -59503,-6707862 -59515,-6707865 -59524,-6707866 -59530,-6707868 -59537,-6707870 -59558,-6707874 -59588,-6707881 -59606,-6707888 -59620,-6707896 -59634,-6707903 -59638,-6707911 -59645,-6707921 -59649,-6707928 -59654,-6707935 -59658,-6707937 -59665,-6707939 -59680,-6707942 -59690,-6707942 -59701,-6707943 -59709,-6707941 -59718,-6707936 -59724,-6707934 -59727,-6707933 -59737,-6707931 -59749,-6707929 -59757,-6707929 -59767,-6707937 -59774,-6707943 -59780,-6707949 -59786,-6707956 -59820,-6707993 -59915,-6708094 -59902,-6708128 -59905,-6708129 -60015,-6708182 -60062,-6708205 -60120,-6708234 -60151,-6708249 -60256,-6708301 -60319,-6708207 -60380,-6708241 -60445,-6708275 -60484,-6708297 -60584,-6708346 -60710,-6708415 -60690,-6708462 -60692,-6708462 -60887,-6708505 -60907,-6708417 -60930,-6708429 -60940,-6708433 -60950,-6708436 -60959,-6708439 -60982,-6708442 -60998,-6708446 -61018,-6708449 -61032,-6708449 -61061,-6708458 -61088,-6708468 -61112,-6708475 -61140,-6708482 -61149,-6708484 -61164,-6708488 -61196,-6708495 -61374,-6708535 -61400,-6708542 -61453,-6708555 -61491,-6708574 -61584,-6708615 -61684,-6708660 -61669,-6708713 -61649,-6708787 -61636,-6708834 -61608,-6708926 -61592,-6708983 -61568,-6709065 -61543,-6709144 -61528,-6709203 -61502,-6709294 -61505,-6709296 -61508,-6709297 -61547,-6709315 -61601,-6709336 -61674,-6709368 -61762,-6709406 -61816,-6709430 -61861,-6709447 -61942,-6709482 -62074,-6709551 -62199,-6709617 -62317,-6709677 -62400,-6709720 -62430,-6709666 -62471,-6709581 -62475,-6709574 -62546,-6709442 -62563,-6709403 -62602,-6709336 -62626,-6709272 -62646,-6709225 -62664,-6709176 -62676,-6709135 -62683,-6709094 -62687,-6709082 -62691,-6709070 -62697,-6709058 -62738,-6708977 -62775,-6708925 -62806,-6708873 -62830,-6708816 -62831,-6708814 -62848,-6708761 -62871,-6708719 -62882,-6708700 -62897,-6708684 -62923,-6708677 -62958,-6708670 -62998,-6708694 -63133,-6708780 -63151,-6708795 -63159,-6708801 -63183,-6708809 -63242,-6708821 -63259,-6708825 -63271,-6708832 -63283,-6708840 -63293,-6708853 -63330,-6708888 -63423,-6708981 -63451,-6709009 -63470,-6709021 -63482,-6709032 -63513,-6709031 -63524,-6709033 -63538,-6709042 -63552,-6709048 -63570,-6709050 -63609,-6709042 -63638,-6709045 -63665,-6709058 -63674,-6709066 -63686,-6709088 -63691,-6709093 -63705,-6709096 -63719,-6709107 -63731,-6709114 -63745,-6709117 -63766,-6709120 -63782,-6709129 -63796,-6709149 -63821,-6709181 -63833,-6709192 -63848,-6709202 -63861,-6709210 -63877,-6709215 -63889,-6709220 -63906,-6709232 -63925,-6709244 -63947,-6709258 -63962,-6709271 -63975,-6709279 -63988,-6709284 -64004,-6709289 -64020,-6709296 -64036,-6709305 -64048,-6709316 -64060,-6709330 -64076,-6709351 -64097,-6709360 -64102,-6709381 -64109,-6709392 -64120,-6709401 -64128,-6709409 -64131,-6709420 -64128,-6709429 -64126,-6709436 -64128,-6709437 -64330,-6709517 -64510,-6709590 -64648,-6709654 -64926,-6709788 -65080,-6709864 -65159,-6709903 -65308,-6709974 -65361,-6709997 -65451,-6710032 -65496,-6710052 -65540,-6710073 -65585,-6710090 -65635,-6710111 -65646,-6710115 -65649,-6710116 -65652,-6710116 -65653,-6710113 -65679,-6710049 -65693,-6710001 -65726,-6709913 -65742,-6709872 -65793,-6709741 -65800,-6709754 -65820,-6709794 -65840,-6709832 -65848,-6709843 -65875,-6709871 -65914,-6709901 -65929,-6709916 -65957,-6709943 -65969,-6709953 -65993,-6709973 -66012,-6709988 -66027,-6709999 -66039,-6710006 -66053,-6710013 -66099,-6710047 -66136,-6710079 -66160,-6710097 -66171,-6710101 -66220,-6710124 -66252,-6710145 -66287,-6710167 -66300,-6710179 -66316,-6710185 -66344,-6710206 -66381,-6710230 -66410,-6710250 -66462,-6710283 -66515,-6710324 -66537,-6710339 -66555,-6710354 -66616,-6710409 -66677,-6710474 -66688,-6710490 -66693,-6710499 -66718,-6710527 -66740,-6710547 -66777,-6710575 -66789,-6710587 -66799,-6710595 -66819,-6710607 -66847,-6710625 -66855,-6710631 -66992,-6710379 -67062,-6710231 -67078,-6710182 -67115,-6710065 -67133,-6710022 -67171,-6709964 -67273,-6709778 -67345,-6709810 -67533,-6709895 -67650,-6709727 -67767,-6709845 -67787,-6709866 -67825,-6709878 -67896,-6709902 -67914,-6709909 -67968,-6709921 -67984,-6709931 -68020,-6709984 -68044,-6710012 -68048,-6710012 -68053,-6710012 -68102,-6710057 -68137,-6710086 -68162,-6710097 -68182,-6710104 -68201,-6710125 -68220,-6710137 -68257,-6710162 -68273,-6710175 -68327,-6710216 -68336,-6710223 -68348,-6710230 -68400,-6710260 -68442,-6710300 -68482,-6710344 -68550,-6710412 -68584,-6710444 -68617,-6710465 -68709,-6710526 -68733,-6710543 -68783,-6710544 -68825,-6710586 -68853,-6710600 -68871,-6710615 -68888,-6710628 -68941,-6710676 -68983,-6710715 -69013,-6710736 -69053,-6710760 -69069,-6710771 -69112,-6710804 -69139,-6710809 -69180,-6710826 -69204,-6710841 -69258,-6710862 -69269,-6710866 -69307,-6710889 -69353,-6710904 -69401,-6710924 -69447,-6710944 -69489,-6710959 -69507,-6710961 -69540,-6710971 -69564,-6710970 -69587,-6710970 -69618,-6710984 -69648,-6710988 -69654,-6710988 -69680,-6710986 -69724,-6710986 -69730,-6710994 -69744,-6711008 -69811,-6711012 -69897,-6711005 -69938,-6710990 -69949,-6710986 -69973,-6710974 -70081,-6710918 -70122,-6710906 -70149,-6710897 -70177,-6710890 -70215,-6710870 -70216,-6710873 -70219,-6710876 -70249,-6710857 -70261,-6710843 -70286,-6710818 -70302,-6710796 -70321,-6710783 -70361,-6710751 -70393,-6710722 -70418,-6710697 -70429,-6710689 -70454,-6710661 -70479,-6710628 -70511,-6710583 -70529,-6710551 -70539,-6710535 -70552,-6710510 -70564,-6710479 -70587,-6710420 -70608,-6710359 -70619,-6710335 -70623,-6710327 -70627,-6710320 -70634,-6710313 -70648,-6710305 -70665,-6710304 -70714,-6710296 -70756,-6710280 -70814,-6710268 -70848,-6710260 -70877,-6710257 -70897,-6710258 -70919,-6710257 -70935,-6710264 -70949,-6710270 -70963,-6710281 -70985,-6710296 -71062,-6710322 -71095,-6710333 -71112,-6710338 -71136,-6710346 -71164,-6710348 -71190,-6710349 -71217,-6710349 -71236,-6710350 -71269,-6710357 -71300,-6710362 -71331,-6710369 -71347,-6710370 -71358,-6710367 -71370,-6710364 -71389,-6710351 -71415,-6710345 -71424,-6710341 -71439,-6710335 -71450,-6710331 -71460,-6710330 -71471,-6710329 -71490,-6710331 -71497,-6710354 -71510,-6710378 -71527,-6710472 -71536,-6710499 -71538,-6710539 -71550,-6710571 -71557,-6710590 -71564,-6710616 -71567,-6710681 -71575,-6710700 -71632,-6710684 -71675,-6710670 -71693,-6710660 -71715,-6710653 -71729,-6710647 -71756,-6710637 -71793,-6710619 -71815,-6710600 -71841,-6710573 -71914,-6710499 -71943,-6710475 -71984,-6710442 -72013,-6710419 -72032,-6710402 -72043,-6710396 -72119,-6710366 -72151,-6710356 -72187,-6710349 -72228,-6710342 -72276,-6710336 -72297,-6710334 -72421,-6710333 -72444,-6710334 -72453,-6710341 -72470,-6710342 -72485,-6710351 -72526,-6710349 -72575,-6710347 -72597,-6710345 -72607,-6710342 -72613,-6710338 -72619,-6710332 -72625,-6710326 -72631,-6710316 -72685,-6710315 -72686,-6710309 -72743,-6710309 -72744,-6710346 -72809,-6710347 -72818,-6710354 -72830,-6710359 -72854,-6710370 -72888,-6710383 -72895,-6710387 -72903,-6710393 -72911,-6710399 -72919,-6710404 -72923,-6710406 -72910,-6710446 -72891,-6710525 -72863,-6710517 -72846,-6710511 -72841,-6710509 -72830,-6710637 -72807,-6710835 -72802,-6710908 -72793,-6710974 -72794,-6710974 -72869,-6710992 -73001,-6711017 -73077,-6711032 -73128,-6711039 -73158,-6711051 -73255,-6711069 -73389,-6711095 -73373,-6711293 -73357,-6711450 -73354,-6711495 -73305,-6711502 -73276,-6711504 -73249,-6711503 -73225,-6711499 -73192,-6711493 -73159,-6711485 -73088,-6711462 -73047,-6711450 -73011,-6711442 -72981,-6711437 -72966,-6711653 -72960,-6711704 -72911,-6711704 -72882,-6711707 -72837,-6711705 -72813,-6711703 -72807,-6711701 -72802,-6711698 -72799,-6711699 -72795,-6711708 -72790,-6711728 -72789,-6711731 -72793,-6711735 -72802,-6711745 -72787,-6711760 -72782,-6711764 -72783,-6711776 -72787,-6711790 -72788,-6711805 -72790,-6711815 -72779,-6711830 -72766,-6711848 -72762,-6711853 -72741,-6711859 -72737,-6711860 -72755,-6711880 -72737,-6711939 -72716,-6712032 -72709,-6712057 -72698,-6712092 -72696,-6712130 -72695,-6712146 -72695,-6712148 -72737,-6712163 -72784,-6712192 -72798,-6712193 -72798,-6712212 -72798,-6712224 -72796,-6712266 -72796,-6712271 -72790,-6712286 -72786,-6712301 -72786,-6712323 -72787,-6712341 -72791,-6712354 -72793,-6712358 -72799,-6712370 -72797,-6712381 -72796,-6712387 -72791,-6712399 -72795,-6712407 -72799,-6712413 -72792,-6712462 -72788,-6712492 -72784,-6712518 -72776,-6712551 -72767,-6712607 -72756,-6712653 -72747,-6712701 -72732,-6712786 -72726,-6712813 -72723,-6712827 -72720,-6712858 -72718,-6712915 -72721,-6712935 -72722,-6712941 -72734,-6712966 -72744,-6712989 -72746,-6712997 -72747,-6713028 -72764,-6713076 -72783,-6713138 -72793,-6713171 -72794,-6713183 -72800,-6713195 -72797,-6713212 -72804,-6713260 -72804,-6713286 -72813,-6713316 -72827,-6713360 -72871,-6713366 -72899,-6713371 -72902,-6713556 -72911,-6713583 -72914,-6713589 -73053,-6713590 -73115,-6713590 -73185,-6713666 -73200,-6713662 -73235,-6713694 -73346,-6713683 -73367,-6713838 -73398,-6713867 -73486,-6713860 -73486,-6713871 -73485,-6713896 -73435,-6713899 -73423,-6713922 -73427,-6713937 -73431,-6713989 -73434,-6714024 -73433,-6714085 -73434,-6714133 -73435,-6714148 -73441,-6714161 -73445,-6714170 -73448,-6714176 -73448,-6714181 -73447,-6714191 -73439,-6714212 -73438,-6714223 -73438,-6714232 -73453,-6714254 -73455,-6714278 -73443,-6714303 -73451,-6714381 -73459,-6714439 -73465,-6714473 -73472,-6714552 -73479,-6714640 -73486,-6714772 -73487,-6714834 -73483,-6714931 -73482,-6715026 -73481,-6715075 -73479,-6715143 -73476,-6715173 -73469,-6715204 -73466,-6715269 -73464,-6715307 -73430,-6715291 -73418,-6715267 -73415,-6715268 -73383,-6715277 -73332,-6715325 -73306,-6715344 -73279,-6715363 -73238,-6715382 -73163,-6715414 -73086,-6715448 -73029,-6715473 -72985,-6715492 -72941,-6715512 -72906,-6715525 -72848,-6715538 -72802,-6715546 -72802,-6715573 -72814,-6715588 -72833,-6715611 -72821,-6715619 -72794,-6715605 -72769,-6715608 -72749,-6715629 -72741,-6715648 -72712,-6715649 -72711,-6715643 -72707,-6715625 -72703,-6715605 -72698,-6715585 -72687,-6715573 -72675,-6715570 -72665,-6715574 -72653,-6715581 -72619,-6715610 -72572,-6715658 -72573,-6715671 -72521,-6715717 -72417,-6715809 -72367,-6715852 -72282,-6715926 -72228,-6715972 -72145,-6716040 -72137,-6716047 -72134,-6716048 -72124,-6716049 -72086,-6716089 -72054,-6716122 -72050,-6716119 -72014,-6716171 -71984,-6716203 -71956,-6716225 -71920,-6716253 -71884,-6716282 -71844,-6716319 -71820,-6716355 -71806,-6716400 -71794,-6716448 -71785,-6716516 -71782,-6716590 -71783,-6716667 -71783,-6716682 -71781,-6716687 -71777,-6716696 -71774,-6716702 -71750,-6716724 -71713,-6716752 -71663,-6716778 -71623,-6716797 -71534,-6716830 -71477,-6716845 -71451,-6716854 -71410,-6716865 -71376,-6716870 -71356,-6716871 -71308,-6716866 -71265,-6716863 -71243,-6716862 -71225,-6716861 -71213,-6716861 -71209,-6716862 -71196,-6716864 -71167,-6716872 -71066,-6716916 -71025,-6716940 -70987,-6716963 -70940,-6716985 -70922,-6716993 -70887,-6717008 -70876,-6717010 -70860,-6717009 -70848,-6717011 -70828,-6717010 -70815,-6717008 -70803,-6717006 -70787,-6716999 -70763,-6716991 -70751,-6716988 -70741,-6716989 -70728,-6716991 -70709,-6716996 -70690,-6717003 -70622,-6717026 -70556,-6717044 -70534,-6717052 -70506,-6717065 -70484,-6717076 -70466,-6717086 -70445,-6717102 -70426,-6717115 -70407,-6717121 -70388,-6717126 -70342,-6717140 -70320,-6717146 -70302,-6717150 -70293,-6717151 -70223,-6717170 -70210,-6717173 -70190,-6717177 -70175,-6717175 -70128,-6717167 -70081,-6717155 -70023,-6717135 -69987,-6717122 -69941,-6717117 -69894,-6717114 -69849,-6717107 -69827,-6717101 -69798,-6717093 -69752,-6717081 -69700,-6717069 -69667,-6717061 -69627,-6717053 -69611,-6717049 -69595,-6717046 -69589,-6717045 -69577,-6717036 -69559,-6717023 -69549,-6717018 -69541,-6717014 -69498,-6716996 -69455,-6716980" stroke="white" stroke-width="31" /></ns0:svg>    <rect x="20" y="50"  width="250" height="25"  rx="0"  fill="#E8EDEE" fill-opacity="0.8" />    <text x="145" y="70" text-anchor="middle" font-family="Frutiger" font-weight="bold" font-size="30" fill="#AE2573">Slough</text>    <rect x="35" y="195" width="220" height="160" rx="15" fill="#724F95"/>    <g font-family="Frutiger" font-size="15" fill="white">        <g> <text x="45" y="218">Self-harm</text> <text x="245" y="218" text-anchor="end">35</text> </g>        <g> <text x="45" y="243">SEN</text> <text x="245" y="243" text-anchor="end">19</text> </g>        <g> <text x="45" y="268">Difficulties</text> <text x="245" y="268" text-anchor="end">75</text> </g>        <g> <text x="45" y="293">Child Carer</text> <text x="245" y="293" text-anchor="end">14</text> </g>        <g> <text x="45" y="318">Drinkers</text> <text x="245" y="318" text-anchor="end">4</text> </g>        <g> <text x="45" y="343">Safeguarding £</text> <text x="245" y="343" text-anchor="end">35</text> </g>    </g></svg>