<?xml version="1.0" standalone="no"?>
<!DOCTYPE svg PUBLIC "-//W3C//DTD SVG 1.1//EN"
"http://www.w3.org/Graphics/SVG/1.1/DTD/svg11.dtd">
<svg height="1800" version="1.1" width="1800" xmlns="http://www.w3.org/2000/svg"><defs><style type="text/css">@font-face {font-family: 'Frutiger';font-style: normal;font-weight: normal;src: local('Frutiger'), url('../fonts/Frutiger.woff') format('woff');}@font-face {font-family: 'Frutiger Bold';font-style: normal;font-weight: normal;src: local('Frutiger Bold'), url('../fonts/Frutiger_bold.woff') format('woff');}        </style>    </defs>    <rect x="20" y="20"  width="250" height="350" rx="15" fill="#AE2573" />    <rect x="35" y="35"  width="220" height="145" rx="15" fill="#330072" /><ns0:svg xmlns:ns0="http://www.w3.org/2000/svg" height="115" version="1.1" viewBox="-136223 -7180936 33845 34496" width="220" x="35" y="50"><ns0:polygon fill="white" points=" -113617,-7179818 -113534,-7179786 -113527,-7179788 -113494,-7179778 -113417,-7179743 -113233,-7179661 -113186,-7179644 -113076,-7179589 -112919,-7179502 -112906,-7179514 -112877,-7179550 -112855,-7179591 -112843,-7179628 -112838,-7179648 -112822,-7179671 -112813,-7179687 -112802,-7179718 -112792,-7179740 -112779,-7179782 -112761,-7179806 -112733,-7179833 -112703,-7179879 -112668,-7179896 -112630,-7179936 -112621,-7179943 -112570,-7179977 -112533,-7179999 -112511,-7180015 -112477,-7180035 -112401,-7180090 -112341,-7180146 -112302,-7180180 -112280,-7180205 -112259,-7180213 -112212,-7180252 -112180,-7180284 -112153,-7180315 -112144,-7180340 -112134,-7180364 -112122,-7180402 -112111,-7180424 -112069,-7180405 -112040,-7180377 -112010,-7180361 -112000,-7180412 -111975,-7180436 -111948,-7180472 -111923,-7180519 -111868,-7180613 -111851,-7180653 -111818,-7180676 -111812,-7180687 -111777,-7180682 -111644,-7180666 -111580,-7180644 -111565,-7180637 -111551,-7180629 -111542,-7180622 -111527,-7180608 -111517,-7180594 -111511,-7180582 -111502,-7180552 -111493,-7180535 -111492,-7180533 -111519,-7180470 -111534,-7180449 -111539,-7180437 -111555,-7180370 -111553,-7180356 -111550,-7180343 -111545,-7180330 -111538,-7180318 -111525,-7180300 -111498,-7180203 -111479,-7180163 -111470,-7180151 -111462,-7180140 -111444,-7180126 -111441,-7180123 -111425,-7180091 -111414,-7180057 -111394,-7180008 -111417,-7179924 -111420,-7179908 -111364,-7179817 -111351,-7179803 -111349,-7179802 -111312,-7179819 -111296,-7179819 -111274,-7179798 -111257,-7179758 -111225,-7179735 -111180,-7179714 -111167,-7179695 -111183,-7179662 -111164,-7179612 -111142,-7179559 -111137,-7179546 -111132,-7179535 -111125,-7179524 -111116,-7179513 -111108,-7179506 -111102,-7179500 -111092,-7179495 -111084,-7179491 -111069,-7179487 -111054,-7179486 -111041,-7179487 -111030,-7179493 -111019,-7179496 -111010,-7179496 -111001,-7179495 -110994,-7179493 -110978,-7179483 -110966,-7179473 -110941,-7179462 -110930,-7179455 -110926,-7179451 -110921,-7179443 -110915,-7179431 -110912,-7179421 -110909,-7179407 -110906,-7179402 -110900,-7179391 -110880,-7179370 -110879,-7179355 -110877,-7179300 -110874,-7179289 -110871,-7179285 -110864,-7179277 -110856,-7179273 -110848,-7179271 -110840,-7179270 -110786,-7179257 -110775,-7179250 -110764,-7179242 -110758,-7179231 -110756,-7179224 -110738,-7179199 -110715,-7179179 -110648,-7179131 -110639,-7179128 -110634,-7179124 -110630,-7179119 -110627,-7179114 -110626,-7179109 -110627,-7179100 -110630,-7179089 -110637,-7179072 -110694,-7178997 -110738,-7178935 -110744,-7178930 -110747,-7178926 -110750,-7178919 -110750,-7178914 -110750,-7178910 -110746,-7178902 -110726,-7178882 -110710,-7178868 -110686,-7178847 -110650,-7178819 -110648,-7178814 -110633,-7178778 -110614,-7178677 -110596,-7178628 -110590,-7178586 -110592,-7178543 -110586,-7178504 -110569,-7178483 -110554,-7178472 -110542,-7178458 -110538,-7178452 -110532,-7178436 -110530,-7178426 -110530,-7178405 -110551,-7178276 -110571,-7178203 -110571,-7178170 -110530,-7178123 -110464,-7178061 -110401,-7178066 -110355,-7178066 -110322,-7178080 -110307,-7178089 -110280,-7178101 -110271,-7178102 -110266,-7178100 -110260,-7178098 -110253,-7178094 -110247,-7178089 -110218,-7178059 -110145,-7178070 -110140,-7178069 -110131,-7178067 -110124,-7178064 -110118,-7178058 -110112,-7178052 -110107,-7178042 -110077,-7177944 -110062,-7177915 -110036,-7177896 -110024,-7177873 -109998,-7177851 -109970,-7177839 -109934,-7177820 -109902,-7177794 -109873,-7177752 -109826,-7177724 -109712,-7177667 -109703,-7177656 -109664,-7177601 -109606,-7177520 -109413,-7177631 -109373,-7177655 -109365,-7177653 -109359,-7177650 -109353,-7177646 -109347,-7177638 -109343,-7177628 -109343,-7177619 -109324,-7177508 -109282,-7177142 -109269,-7177002 -109249,-7176663 -109245,-7176608 -109244,-7176573 -109281,-7176330 -109289,-7176300 -109304,-7176249 -109326,-7176160 -109333,-7176138 -109350,-7176014 -109347,-7176011 -109340,-7176005 -109334,-7176002 -109323,-7176000 -109288,-7176002 -109275,-7176000 -109267,-7175998 -109255,-7175994 -109239,-7175991 -109230,-7175983 -109222,-7175977 -109213,-7175973 -109204,-7175969 -109187,-7175967 -109106,-7175946 -109093,-7175941 -109082,-7175940 -109072,-7175940 -109059,-7175942 -109032,-7175943 -108896,-7175934 -108825,-7175905 -108785,-7175890 -108760,-7175882 -108671,-7175858 -108623,-7175869 -108399,-7175746 -108373,-7175728 -108349,-7175708 -108312,-7175672 -108283,-7175629 -108274,-7175614 -108258,-7175582 -108221,-7175527 -108187,-7175491 -108163,-7175471 -108156,-7175464 -108137,-7175442 -108125,-7175424 -108106,-7175402 -108100,-7175383 -108099,-7175374 -108099,-7175343 -108094,-7175325 -108089,-7175313 -108080,-7175269 -108077,-7175260 -108070,-7175244 -108057,-7175223 -108046,-7175170 -108041,-7175151 -108036,-7175140 -108027,-7175123 -108002,-7175090 -107995,-7175073 -107989,-7175048 -107988,-7175020 -107992,-7174982 -107992,-7174970 -107987,-7174934 -107987,-7174905 -107992,-7174859 -107995,-7174834 -108002,-7174796 -108015,-7174695 -108033,-7174592 -108043,-7174556 -108048,-7174527 -107723,-7174517 -107659,-7174510 -107628,-7174508 -107745,-7174407 -107779,-7174375 -107995,-7174181 -108065,-7174130 -108158,-7174067 -108176,-7174019 -108308,-7173942 -108398,-7173879 -108410,-7173872 -108421,-7173865 -108442,-7173856 -108467,-7173842 -108479,-7173834 -108498,-7173818 -108580,-7173762 -108662,-7173705 -108812,-7173604 -108948,-7173510 -108989,-7173484 -109028,-7173456 -108868,-7173268 -108781,-7173170 -108752,-7173144 -108910,-7172881 -109055,-7172650 -109093,-7172599 -109382,-7172106 -109387,-7172095 -109393,-7172078 -109399,-7172056 -109253,-7171882 -109249,-7171877 -109244,-7171865 -109084,-7171557 -109058,-7171344 -109047,-7171311 -109035,-7171283 -109019,-7171180 -109020,-7171176 -109024,-7171155 -109029,-7171140 -109039,-7171121 -109088,-7171063 -109118,-7171021 -109172,-7170934 -109191,-7170917 -109199,-7170911 -109417,-7170779 -109469,-7170748 -109486,-7170737 -109498,-7170738 -109625,-7170663 -109595,-7170578 -109423,-7170642 -109379,-7170657 -109300,-7170678 -109282,-7170682 -109232,-7170688 -109195,-7170689 -109098,-7170696 -109104,-7170726 -109111,-7170767 -109090,-7170773 -108935,-7170881 -108929,-7170884 -108912,-7170889 -108842,-7170928 -108830,-7170933 -108793,-7170963 -108777,-7170974 -108767,-7170980 -108603,-7171051 -108583,-7171055 -108490,-7170947 -108430,-7170873 -108418,-7170857 -108408,-7170841 -108397,-7170820 -108385,-7170794 -108350,-7170689 -108308,-7170561 -108297,-7170525 -108286,-7170483 -108268,-7170400 -108252,-7170313 -108250,-7170299 -108249,-7170284 -108249,-7170262 -108251,-7170227 -108248,-7170084 -108248,-7170072 -108246,-7170041 -108192,-7169762 -108187,-7169721 -108186,-7169699 -108184,-7169622 -108186,-7169586 -108194,-7169530 -108195,-7169529 -108264,-7169514 -108525,-7169465 -108583,-7169457 -108713,-7169434 -108724,-7169436 -108738,-7169435 -108748,-7169433 -108766,-7169426 -108818,-7169415 -108946,-7169395 -108993,-7169390 -108940,-7169224 -108941,-7169214 -108951,-7169171 -108966,-7169121 -109093,-7169071 -109278,-7169009 -109286,-7169007 -109448,-7168897 -109359,-7168756 -109336,-7168710 -109317,-7168657 -109291,-7168598 -109254,-7168529 -109233,-7168482 -109330,-7168416 -109392,-7168381 -109516,-7168308 -109529,-7168303 -109538,-7168297 -109559,-7168278 -109586,-7168270 -109611,-7168262 -109655,-7168247 -109672,-7168240 -109712,-7168211 -109736,-7168197 -109759,-7168190 -109869,-7168141 -109935,-7168109 -109961,-7168097 -109969,-7168092 -109976,-7168086 -110048,-7168021 -110089,-7167975 -110127,-7167938 -110161,-7167909 -110185,-7167882 -110199,-7167872 -110212,-7167866 -110238,-7167849 -110249,-7167845 -110253,-7167842 -110262,-7167834 -110284,-7167804 -110299,-7167783 -110366,-7167679 -110381,-7167663 -110401,-7167646 -110439,-7167615 -110474,-7167569 -110478,-7167548 -110497,-7167507 -110506,-7167493 -110513,-7167485 -110522,-7167476 -110534,-7167467 -110555,-7167455 -110685,-7167407 -110702,-7167395 -110714,-7167389 -110734,-7167381 -110738,-7167378 -110709,-7167321 -110685,-7167266 -110659,-7167217 -110659,-7167216 -110672,-7167209 -110679,-7167203 -110688,-7167191 -110800,-7167148 -110840,-7167138 -110853,-7167123 -110816,-7167040 -110808,-7167025 -110796,-7167008 -110766,-7166969 -110744,-7166949 -110731,-7166939 -110716,-7166931 -110683,-7166915 -110676,-7166914 -110660,-7166913 -110585,-7166901 -110574,-7166899 -110560,-7166893 -110505,-7166862 -110486,-7166848 -110460,-7166835 -110362,-7166758 -110330,-7166736 -110324,-7166733 -110311,-7166732 -110303,-7166734 -110279,-7166734 -110223,-7166737 -110063,-7166712 -109940,-7166694 -109828,-7166681 -109783,-7166673 -109696,-7166664 -109690,-7166671 -109659,-7166665 -109646,-7166664 -109611,-7166662 -109608,-7166662 -109396,-7166739 -109293,-7166777 -109289,-7166768 -109196,-7166797 -109161,-7166799 -109132,-7166810 -109118,-7166823 -109101,-7166830 -109093,-7166834 -109084,-7166840 -109067,-7166854 -109035,-7166892 -109016,-7166918 -109016,-7166932 -109008,-7166945 -108897,-7166860 -108813,-7166803 -108764,-7166775 -108733,-7166747 -108709,-7166777 -108682,-7166764 -108680,-7166786 -108677,-7166801 -108668,-7166826 -108663,-7166837 -108630,-7166897 -108617,-7166913 -108612,-7166918 -108590,-7166938 -108573,-7166949 -108529,-7167011 -108433,-7167164 -108419,-7167195 -108394,-7167243 -108366,-7167282 -108356,-7167294 -108355,-7167294 -108283,-7167238 -108279,-7167237 -108199,-7167238 -108186,-7167239 -108160,-7167244 -108052,-7167274 -108033,-7167278 -108018,-7167280 -107988,-7167282 -107967,-7167288 -107921,-7167309 -107909,-7167310 -107901,-7167312 -107893,-7167315 -107885,-7167320 -107874,-7167332 -107771,-7167418 -107735,-7167444 -107687,-7167473 -107657,-7167488 -107650,-7167489 -107644,-7167490 -107473,-7167388 -107424,-7167357 -107387,-7167338 -107372,-7167331 -107239,-7167282 -107163,-7167257 -107165,-7167244 -107158,-7167240 -107116,-7167224 -107047,-7167209 -106918,-7167185 -106844,-7167169 -106700,-7167136 -106687,-7167134 -106675,-7167132 -106642,-7167117 -106636,-7167127 -106609,-7167118 -106607,-7167119 -106562,-7167216 -106522,-7167283 -106505,-7167307 -106485,-7167329 -106469,-7167342 -106449,-7167361 -106416,-7167386 -106336,-7167452 -106116,-7167601 -106082,-7167615 -105958,-7167695 -105942,-7167707 -105930,-7167714 -105905,-7167725 -105849,-7167755 -105794,-7167786 -105730,-7167815 -105687,-7167838 -105609,-7167871 -105558,-7167893 -105422,-7167947 -105406,-7167951 -105394,-7167954 -105382,-7167958 -105346,-7167976 -105255,-7168022 -105168,-7168074 -105125,-7168097 -105101,-7168104 -105083,-7168107 -105062,-7168108 -105034,-7168107 -105003,-7168112 -104944,-7168118 -104926,-7168121 -104891,-7168132 -104874,-7168135 -104866,-7168135 -104848,-7168132 -104839,-7168133 -104813,-7168139 -104798,-7168145 -104788,-7168148 -104745,-7168155 -104721,-7168158 -104691,-7168159 -104595,-7168159 -104580,-7168158 -104566,-7168160 -104548,-7168166 -104455,-7168166 -104383,-7168172 -104354,-7168175 -104340,-7168177 -104321,-7168182 -104302,-7168188 -104252,-7168189 -104239,-7168195 -104197,-7168209 -104185,-7168211 -104175,-7168212 -104163,-7168211 -104096,-7168220 -104091,-7168185 -104004,-7168128 -103994,-7168126 -103989,-7168126 -103981,-7168129 -103959,-7168161 -103894,-7168243 -103871,-7168261 -103855,-7168271 -103838,-7168279 -103823,-7168286 -103816,-7168288 -103789,-7168293 -103746,-7168308 -103651,-7168326 -103637,-7168333 -103619,-7168340 -103445,-7168374 -103413,-7168383 -103343,-7168412 -103287,-7168423 -103279,-7168426 -103260,-7168440 -103205,-7168457 -103144,-7168486 -103130,-7168497 -103003,-7168550 -102978,-7168538 -102822,-7168450 -102770,-7168421 -102675,-7168383 -102601,-7168355 -102461,-7168293 -102448,-7168280 -102555,-7168188 -102595,-7168151 -102621,-7168130 -102640,-7168114 -102723,-7168056 -102757,-7168027 -102775,-7168009 -102794,-7167988 -102818,-7167958 -102845,-7167914 -102864,-7167884 -102896,-7167818 -102907,-7167794 -102924,-7167739 -102934,-7167693 -102938,-7167672 -102943,-7167614 -102945,-7167605 -102947,-7167599 -102968,-7167553 -103064,-7167390 -103099,-7167338 -103118,-7167316 -103153,-7167280 -103161,-7167273 -103197,-7167246 -103216,-7167228 -103229,-7167215 -103249,-7167192 -103268,-7167164 -103279,-7167143 -103285,-7167131 -103295,-7167097 -103297,-7167063 -103297,-7167045 -103295,-7166998 -103285,-7166943 -103253,-7166821 -103246,-7166790 -103233,-7166732 -103207,-7166600 -103196,-7166524 -103196,-7166498 -103198,-7166466 -103200,-7166446 -103207,-7166419 -103221,-7166383 -103238,-7166330 -103247,-7166306 -103298,-7166185 -103320,-7166121 -103329,-7166093 -103337,-7166055 -103352,-7165989 -103357,-7165938 -103362,-7165904 -103375,-7165786 -103383,-7165704 -103384,-7165671 -103387,-7165644 -103391,-7165631 -103396,-7165614 -103407,-7165588 -103419,-7165557 -103449,-7165507 -103507,-7165423 -103528,-7165403 -103558,-7165373 -103583,-7165354 -103600,-7165340 -103604,-7165336 -103610,-7165325 -103643,-7165202 -103645,-7165187 -103644,-7165172 -103633,-7165118 -103635,-7165070 -103638,-7165039 -103642,-7165021 -103649,-7165000 -103666,-7164946 -103671,-7164934 -103678,-7164920 -103687,-7164907 -103696,-7164897 -103707,-7164886 -103734,-7164853 -103739,-7164848 -103785,-7164798 -103827,-7164750 -103849,-7164729 -103865,-7164711 -103898,-7164670 -103937,-7164598 -103948,-7164572 -103960,-7164533 -103969,-7164482 -103978,-7164375 -103984,-7164225 -103984,-7164184 -103980,-7164169 -103965,-7164114 -103957,-7164090 -103943,-7164046 -103922,-7164005 -103907,-7163976 -103877,-7163931 -103857,-7163906 -103803,-7163849 -103773,-7163814 -103746,-7163775 -103719,-7163741 -103707,-7163728 -103674,-7163694 -103612,-7163646 -103525,-7163582 -103509,-7163567 -103478,-7163532 -103435,-7163487 -103397,-7163450 -103343,-7163404 -103337,-7163401 -103318,-7163391 -103267,-7163370 -103205,-7163350 -103177,-7163344 -103135,-7163337 -103043,-7163344 -103031,-7163344 -103020,-7163342 -103005,-7163339 -102987,-7163333 -102962,-7163321 -102948,-7163312 -102908,-7163275 -102844,-7163222 -102814,-7163187 -102741,-7163083 -102716,-7163050 -102703,-7163030 -102689,-7163004 -102668,-7162970 -102649,-7162920 -102590,-7162805 -102573,-7162770 -102568,-7162758 -102562,-7162737 -102552,-7162685 -102548,-7162664 -102547,-7162642 -102548,-7162598 -102549,-7162586 -102555,-7162554 -102589,-7162435 -102594,-7162411 -102597,-7162383 -102620,-7162287 -102630,-7162215 -102632,-7162194 -102633,-7162064 -102636,-7162016 -102640,-7161991 -102645,-7161974 -102654,-7161950 -102698,-7161862 -102716,-7161830 -102727,-7161814 -102741,-7161798 -102764,-7161778 -102807,-7161719 -102854,-7161664 -102866,-7161653 -102871,-7161649 -102890,-7161628 -102973,-7161540 -103083,-7161438 -103146,-7161372 -103212,-7161293 -103244,-7161245 -103254,-7161226 -103266,-7161197 -103272,-7161128 -103272,-7161088 -103265,-7161031 -103260,-7161013 -103257,-7161005 -103248,-7160989 -103192,-7160916 -103170,-7160893 -103127,-7160854 -103105,-7160830 -103078,-7160805 -103065,-7160789 -103054,-7160773 -103049,-7160764 -103034,-7160732 -103013,-7160689 -102997,-7160650 -102986,-7160613 -102980,-7160584 -102971,-7160525 -102965,-7160474 -102966,-7160457 -102967,-7160440 -102970,-7160426 -102975,-7160412 -102985,-7160389 -103014,-7160303 -103026,-7160278 -103047,-7160242 -103061,-7160221 -103087,-7160195 -103145,-7160140 -103161,-7160123 -103181,-7160100 -103184,-7160095 -103199,-7160058 -103204,-7160041 -103205,-7160008 -103202,-7159985 -103192,-7159919 -103190,-7159900 -103146,-7159782 -103135,-7159731 -103137,-7159723 -103140,-7159686 -103159,-7159637 -103176,-7159610 -103183,-7159601 -103193,-7159592 -103204,-7159583 -103218,-7159574 -103233,-7159567 -103241,-7159563 -103263,-7159558 -103293,-7159548 -103308,-7159540 -103315,-7159534 -103334,-7159510 -103340,-7159500 -103345,-7159489 -103349,-7159478 -103355,-7159452 -103334,-7159352 -103314,-7159242 -103301,-7159185 -103297,-7159175 -103288,-7159161 -103266,-7159139 -103252,-7159123 -103243,-7159115 -103231,-7159106 -103218,-7159099 -103125,-7159052 -103008,-7158983 -102996,-7158974 -102986,-7158962 -102982,-7158955 -102978,-7158947 -102974,-7158935 -102971,-7158920 -102969,-7158911 -102969,-7158904 -102970,-7158888 -102972,-7158871 -102977,-7158856 -102985,-7158836 -103027,-7158749 -103041,-7158727 -103047,-7158716 -103057,-7158687 -103063,-7158659 -103068,-7158600 -103075,-7158530 -103079,-7158495 -103090,-7158428 -103101,-7158334 -103105,-7158290 -103105,-7158268 -103102,-7158226 -103089,-7158163 -103064,-7158082 -103053,-7158057 -103045,-7158041 -103035,-7158026 -103014,-7158001 -103000,-7157990 -102992,-7157985 -102972,-7157976 -102906,-7157965 -102884,-7157957 -102850,-7157941 -102835,-7157931 -102824,-7157921 -102815,-7157911 -102808,-7157900 -102802,-7157889 -102798,-7157880 -102796,-7157869 -102794,-7157857 -102795,-7157836 -102817,-7157771 -102823,-7157751 -102829,-7157738 -102837,-7157727 -102846,-7157716 -102857,-7157707 -102868,-7157699 -102879,-7157693 -102890,-7157688 -102905,-7157683 -102980,-7157641 -102998,-7157629 -103014,-7157617 -103023,-7157609 -103077,-7157557 -103112,-7157520 -103128,-7157499 -103138,-7157480 -103152,-7157437 -103183,-7157309 -103194,-7157251 -103210,-7157198 -103236,-7157135 -103274,-7157072 -103332,-7157008 -103354,-7156988 -103361,-7156979 -103372,-7156964 -103381,-7156949 -103389,-7156931 -103397,-7156913 -103401,-7156900 -103403,-7156883 -103406,-7156863 -103406,-7156838 -103395,-7156785 -103391,-7156761 -103383,-7156731 -103370,-7156700 -103364,-7156689 -103356,-7156676 -103344,-7156660 -103279,-7156584 -103216,-7156531 -103109,-7156447 -103042,-7156391 -102999,-7156340 -102956,-7156289 -102887,-7156186 -102816,-7156070 -102800,-7156051 -102785,-7156031 -102775,-7156014 -102755,-7155974 -102740,-7155938 -102702,-7155817 -102661,-7155680 -102649,-7155631 -102628,-7155542 -102595,-7155395 -102588,-7155340 -102589,-7155315 -102590,-7155300 -102592,-7155287 -102596,-7155269 -102600,-7155253 -102606,-7155237 -102614,-7155220 -102619,-7155211 -102654,-7155165 -102659,-7155158 -102670,-7155147 -102681,-7155138 -102700,-7155124 -102722,-7155112 -102760,-7155097 -102768,-7155091 -102780,-7155086 -102789,-7155084 -102798,-7155083 -102809,-7155085 -102822,-7155088 -102834,-7155093 -102889,-7155119 -102978,-7155158 -103064,-7155197 -103164,-7155224 -103175,-7155226 -103189,-7155226 -103200,-7155224 -103207,-7155222 -103214,-7155220 -103226,-7155214 -103260,-7155197 -103297,-7155164 -103312,-7155149 -103325,-7155134 -103342,-7155109 -103344,-7155106 -103342,-7155043 -103272,-7154783 -103266,-7154751 -103267,-7154733 -103270,-7154721 -103275,-7154710 -103281,-7154700 -103287,-7154692 -103321,-7154658 -103330,-7154650 -103353,-7154635 -103367,-7154628 -103385,-7154620 -103404,-7154615 -103431,-7154610 -103514,-7154605 -103596,-7154610 -103610,-7154609 -103622,-7154607 -103636,-7154602 -103648,-7154597 -103657,-7154592 -103668,-7154584 -103678,-7154575 -103691,-7154559 -103714,-7154523 -103739,-7154458 -103745,-7154384 -103738,-7154320 -103722,-7154247 -103660,-7154119 -103638,-7154082 -103628,-7154062 -103614,-7154023 -103610,-7154009 -103607,-7153996 -103606,-7153985 -103605,-7153972 -103605,-7153935 -103606,-7153925 -103609,-7153914 -103613,-7153902 -103617,-7153893 -103623,-7153884 -103630,-7153875 -103638,-7153867 -103648,-7153860 -103665,-7153854 -103692,-7153849 -103713,-7153847 -103719,-7153847 -103731,-7153848 -103742,-7153849 -103804,-7153866 -103860,-7153886 -103945,-7153911 -103964,-7153914 -103975,-7153913 -103987,-7153911 -104011,-7153904 -104027,-7153897 -104047,-7153868 -104063,-7153825 -104064,-7153807 -104062,-7153796 -104058,-7153782 -104055,-7153776 -104050,-7153768 -104041,-7153759 -104029,-7153747 -104013,-7153734 -104004,-7153728 -103981,-7153715 -103930,-7153698 -103871,-7153654 -103827,-7153622 -103793,-7153576 -103779,-7153542 -103770,-7153517 -103761,-7153490 -103758,-7153397 -103754,-7153231 -103745,-7153062 -103742,-7152955 -103743,-7152938 -103746,-7152922 -103750,-7152908 -103755,-7152896 -103763,-7152881 -103771,-7152867 -103786,-7152850 -103842,-7152816 -103859,-7152807 -103883,-7152800 -103906,-7152797 -103948,-7152796 -103984,-7152795 -104060,-7152796 -104160,-7152806 -104189,-7152805 -104241,-7152810 -104275,-7152810 -104292,-7152809 -104306,-7152807 -104344,-7152798 -104381,-7152786 -104394,-7152781 -104406,-7152775 -104419,-7152766 -104431,-7152755 -104442,-7152743 -104452,-7152731 -104458,-7152721 -104462,-7152712 -104465,-7152702 -104467,-7152689 -104467,-7152668 -104478,-7152553 -104493,-7152449 -104513,-7152379 -104521,-7152354 -104536,-7152328 -104551,-7152307 -104647,-7152205 -104701,-7152149 -104711,-7152136 -104720,-7152120 -104731,-7152093 -104748,-7152056 -104753,-7152038 -104756,-7152026 -104757,-7152012 -104758,-7151998 -104756,-7151987 -104751,-7151962 -104746,-7151949 -104737,-7151928 -104655,-7151785 -104648,-7151773 -104644,-7151760 -104640,-7151745 -104637,-7151731 -104636,-7151713 -104636,-7151694 -104639,-7151675 -104645,-7151646 -104673,-7151582 -104693,-7151531 -104704,-7151490 -104710,-7151477 -104715,-7151448 -104716,-7151423 -104714,-7151409 -104712,-7151391 -104708,-7151376 -104702,-7151357 -104694,-7151333 -104682,-7151308 -104659,-7151246 -104651,-7151210 -104646,-7151185 -104641,-7151154 -104638,-7151124 -104638,-7151092 -104639,-7151083 -104641,-7151069 -104647,-7151047 -104653,-7151028 -104663,-7151003 -104672,-7150983 -104677,-7150972 -104689,-7150954 -104709,-7150926 -104748,-7150876 -104763,-7150859 -104789,-7150837 -104803,-7150828 -104835,-7150810 -104968,-7150728 -105090,-7150651 -105177,-7150588 -105213,-7150562 -105254,-7150517 -105311,-7150450 -105331,-7150454 -105345,-7150454 -105362,-7150454 -105379,-7150452 -105395,-7150448 -105413,-7150442 -105430,-7150434 -105442,-7150428 -105460,-7150416 -105501,-7150385 -105519,-7150363 -105529,-7150353 -105539,-7150344 -105546,-7150340 -105591,-7150313 -105601,-7150305 -105611,-7150297 -105635,-7150271 -105651,-7150250 -105661,-7150236 -105679,-7150206 -105693,-7150165 -105688,-7150138 -105693,-7150112 -105700,-7150090 -105699,-7150077 -105689,-7150046 -105680,-7150029 -105673,-7150020 -105659,-7150008 -105604,-7149977 -105593,-7149965 -105579,-7149947 -105567,-7149936 -105561,-7149931 -105541,-7149918 -105536,-7149916 -105529,-7149915 -105522,-7149915 -105515,-7149916 -105479,-7149927 -105471,-7149916 -105463,-7149907 -105453,-7149898 -105440,-7149890 -105427,-7149883 -105416,-7149879 -105405,-7149876 -105391,-7149874 -105292,-7149836 -105194,-7149788 -105181,-7149777 -105171,-7149764 -105165,-7149749 -105162,-7149737 -105103,-7149744 -105094,-7149743 -105083,-7149741 -105071,-7149738 -105053,-7149731 -105042,-7149724 -104810,-7149626 -104755,-7149605 -104716,-7149595 -104698,-7149592 -104672,-7149589 -104525,-7149568 -104471,-7149558 -104412,-7149544 -104366,-7149529 -104329,-7149514 -104239,-7149476 -104201,-7149460 -104172,-7149450 -104111,-7149433 -104079,-7149424 -104035,-7149416 -104001,-7149402 -103987,-7149399 -103972,-7149397 -103925,-7149395 -103882,-7149397 -103767,-7149418 -103715,-7149430 -103667,-7149447 -103613,-7149464 -103595,-7149465 -103571,-7149470 -103558,-7149471 -103547,-7149470 -103536,-7149469 -103516,-7149465 -103495,-7149463 -103484,-7149464 -103473,-7149466 -103460,-7149470 -103438,-7149478 -103431,-7149479 -103381,-7149469 -103346,-7149458 -103179,-7149457 -103126,-7149451 -103092,-7149439 -103079,-7149431 -103070,-7149428 -103063,-7149427 -103054,-7149427 -103044,-7149429 -103035,-7149433 -103022,-7149441 -103001,-7149450 -102957,-7149459 -102950,-7149459 -102895,-7149449 -102778,-7149482 -102761,-7149486 -102739,-7149489 -102684,-7149512 -102672,-7149515 -102657,-7149516 -102646,-7149514 -102631,-7149512 -102615,-7149507 -102595,-7149498 -102559,-7149486 -102528,-7149479 -102514,-7149472 -102507,-7149468 -102497,-7149457 -102490,-7149447 -102442,-7149359 -102389,-7149271 -102382,-7149253 -102379,-7149241 -102378,-7149229 -102378,-7149219 -102379,-7149209 -102383,-7149197 -102386,-7149188 -102435,-7149109 -102443,-7149091 -102456,-7149068 -102465,-7149058 -102473,-7149052 -102478,-7149049 -102504,-7149040 -102531,-7149021 -102541,-7149012 -102548,-7149007 -102555,-7149004 -102563,-7149001 -102574,-7149000 -102586,-7148999 -102613,-7149002 -102628,-7149002 -102647,-7149001 -102665,-7148998 -102693,-7148991 -102748,-7148971 -102795,-7148947 -102806,-7148936 -102810,-7148929 -102814,-7148921 -102816,-7148912 -102817,-7148894 -102825,-7148836 -102825,-7148811 -102820,-7148789 -102800,-7148737 -102770,-7148667 -102762,-7148637 -102749,-7148576 -102747,-7148537 -102739,-7148492 -102739,-7148485 -102740,-7148477 -102743,-7148467 -102746,-7148460 -102775,-7148413 -102838,-7148286 -102864,-7148236 -102873,-7148221 -102893,-7148190 -102897,-7148182 -102904,-7148166 -102919,-7148102 -102922,-7148085 -102927,-7148052 -102930,-7148015 -102932,-7147988 -102932,-7147974 -102930,-7147942 -102924,-7147914 -102917,-7147885 -102893,-7147806 -102858,-7147716 -102842,-7147679 -102825,-7147643 -102805,-7147607 -102835,-7147584 -102868,-7147563 -102912,-7147539 -102942,-7147540 -102982,-7147579 -103013,-7147604 -103018,-7147672 -103032,-7147724 -103054,-7147774 -103090,-7147840 -103118,-7147892 -103150,-7147928 -103174,-7147946 -103203,-7147922 -103234,-7147889 -103267,-7147858 -103298,-7147860 -103314,-7147895 -103331,-7147915 -103369,-7147889 -103422,-7147815 -103432,-7147799 -103441,-7147782 -103457,-7147743 -103486,-7147726 -103504,-7147709 -103503,-7147678 -103509,-7147650 -103515,-7147623 -103530,-7147573 -103540,-7147537 -103549,-7147500 -103566,-7147425 -103579,-7147373 -103618,-7147363 -103725,-7147372 -103759,-7147373 -103825,-7147367 -103906,-7147387 -104020,-7147427 -104080,-7147466 -104060,-7147550 -104022,-7147717 -104011,-7147853 -104011,-7147884 -104011,-7147907 -104013,-7147935 -104016,-7147959 -104023,-7147993 -104030,-7148018 -104041,-7148048 -104054,-7148078 -104123,-7148220 -104141,-7148250 -104150,-7148264 -104162,-7148278 -104179,-7148295 -104256,-7148358 -104277,-7148376 -104375,-7148468 -104404,-7148504 -104436,-7148563 -104455,-7148610 -104456,-7148645 -104456,-7148670 -104453,-7148703 -104451,-7148791 -104455,-7148812 -104463,-7148841 -104469,-7148857 -104477,-7148872 -104485,-7148886 -104493,-7148896 -104500,-7148905 -104515,-7148918 -104548,-7148940 -104561,-7148946 -104573,-7148950 -104584,-7148953 -104594,-7148954 -104615,-7148953 -104639,-7148948 -104669,-7148938 -104724,-7148909 -104738,-7148898 -104748,-7148892 -104766,-7148885 -104778,-7148882 -104791,-7148880 -104805,-7148881 -104816,-7148882 -104835,-7148887 -104854,-7148896 -104859,-7148900 -104890,-7148925 -104923,-7148913 -104984,-7148935 -105093,-7148996 -105120,-7148944 -105145,-7148874 -105184,-7148814 -105214,-7148777 -105269,-7148739 -105386,-7148688 -105476,-7148643 -105558,-7148613 -105558,-7148582 -105533,-7148381 -105792,-7148362 -105974,-7148349 -106157,-7148332 -106201,-7148334 -106415,-7148298 -106506,-7148285 -106588,-7148276 -106640,-7148262 -106765,-7148201 -106899,-7148139 -106981,-7148100 -107063,-7148071 -107115,-7148055 -107167,-7148039 -107275,-7148009 -107307,-7148003 -107321,-7148001 -107359,-7148000 -107466,-7147995 -107661,-7147998 -107724,-7147998 -107833,-7147946 -107984,-7147862 -108129,-7147786 -108201,-7147737 -108395,-7147607 -108426,-7147580 -108446,-7147563 -108468,-7147546 -108499,-7147525 -108538,-7147501 -108599,-7147468 -108749,-7147392 -109142,-7147190 -109165,-7147174 -109197,-7147157 -109218,-7147147 -109240,-7147138 -109257,-7147131 -109290,-7147121 -109357,-7147106 -109520,-7147055 -109576,-7147037 -109764,-7146964 -109862,-7146922 -110053,-7146832 -110201,-7146746 -110386,-7146636 -110521,-7146558 -110537,-7146616 -110563,-7146676 -110592,-7146729 -110617,-7146763 -110656,-7146823 -110713,-7146933 -110798,-7147058 -110914,-7147253 -111035,-7147453 -111069,-7147500 -111157,-7147644 -111210,-7147743 -111229,-7147801 -111240,-7147825 -111252,-7147848 -111276,-7147885 -111289,-7147913 -111297,-7147958 -111300,-7147985 -111320,-7148033 -111349,-7148097 -111399,-7148182 -111474,-7148298 -111480,-7148322 -111555,-7148446 -111608,-7148531 -111624,-7148559 -111639,-7148586 -111653,-7148634 -111684,-7148667 -111733,-7148727 -111885,-7148908 -111975,-7149032 -112069,-7149151 -112211,-7149325 -112232,-7149350 -112371,-7149309 -112545,-7149265 -112689,-7149232 -112712,-7149227 -112947,-7149174 -113120,-7149141 -113179,-7149128 -113217,-7149122 -113271,-7149111 -113283,-7149104 -113307,-7149089 -113346,-7149065 -113357,-7149084 -113441,-7149057 -113463,-7149051 -113486,-7149047 -113510,-7149045 -113538,-7149045 -113566,-7149046 -113633,-7149052 -113717,-7149043 -113787,-7148905 -113854,-7148795 -113908,-7148719 -113945,-7148685 -113963,-7148674 -113980,-7148664 -114002,-7148654 -114021,-7148648 -114033,-7148646 -114051,-7148645 -114100,-7148647 -114132,-7148650 -114198,-7148652 -114239,-7148666 -114252,-7148673 -114264,-7148677 -114274,-7148679 -114283,-7148680 -114296,-7148679 -114309,-7148677 -114334,-7148670 -114338,-7148667 -114351,-7148655 -114365,-7148639 -114377,-7148621 -114383,-7148608 -114390,-7148592 -114421,-7148559 -114437,-7148531 -114448,-7148515 -114461,-7148500 -114473,-7148487 -114479,-7148482 -114497,-7148469 -114520,-7148457 -114592,-7148411 -114680,-7148381 -114782,-7148341 -114969,-7148240 -115132,-7148154 -115252,-7148105 -115334,-7148064 -115423,-7148031 -115707,-7147923 -115806,-7147883 -115850,-7147877 -115942,-7147861 -115994,-7147845 -116093,-7147802 -116271,-7147717 -116373,-7147654 -116498,-7147618 -116573,-7147570 -116649,-7147523 -116694,-7147481 -116790,-7147411 -116856,-7147355 -116937,-7147299 -117013,-7147239 -117083,-7147176 -117101,-7147153 -117115,-7147129 -117123,-7147110 -117130,-7147085 -117139,-7147064 -117148,-7147052 -117158,-7147040 -117173,-7147027 -117190,-7147006 -117272,-7146956 -117365,-7146902 -117424,-7146872 -117492,-7146847 -117617,-7146797 -117643,-7146788 -117698,-7146777 -117784,-7146750 -117868,-7146735 -117921,-7146724 -117977,-7146708 -118013,-7146703 -118060,-7146690 -118127,-7146670 -118181,-7146639 -118225,-7146609 -118287,-7146562 -118335,-7146532 -118362,-7146518 -118447,-7146479 -118511,-7146457 -118550,-7146440 -118596,-7146511 -118611,-7146540 -118716,-7146771 -118781,-7146921 -118808,-7146973 -118883,-7147129 -118950,-7147290 -118982,-7147305 -119005,-7147312 -119041,-7147320 -119083,-7147349 -119170,-7147393 -119235,-7147421 -119280,-7147431 -119319,-7147436 -119349,-7147416 -119377,-7147408 -119407,-7147418 -119455,-7147428 -119471,-7147432 -119504,-7147455 -119529,-7147482 -119557,-7147527 -119625,-7147633 -119655,-7147667 -119677,-7147687 -119680,-7147689 -119703,-7147686 -119726,-7147682 -119798,-7147667 -119800,-7147696 -119805,-7147732 -119807,-7147754 -119810,-7147803 -119813,-7147879 -119834,-7147885 -119866,-7147890 -119881,-7147897 -119897,-7147905 -119922,-7147929 -119931,-7147948 -119927,-7147984 -119923,-7148059 -119924,-7148093 -119941,-7148121 -119965,-7148140 -119995,-7148150 -120024,-7148153 -120042,-7148152 -120061,-7148150 -120085,-7148144 -120108,-7148138 -120147,-7148125 -120173,-7148106 -120202,-7148073 -120236,-7148031 -120259,-7148011 -120294,-7147973 -120330,-7147953 -120370,-7147936 -120407,-7147927 -120483,-7147911 -120493,-7147908 -120520,-7147892 -120529,-7147887 -120559,-7147881 -120574,-7147880 -120632,-7147879 -120669,-7147883 -120797,-7147906 -120868,-7147927 -120890,-7147960 -120901,-7147985 -120968,-7148106 -120983,-7148132 -121014,-7148179 -121034,-7148214 -121043,-7148252 -121056,-7148274 -121083,-7148273 -121096,-7148293 -121107,-7148320 -121132,-7148310 -121155,-7148317 -121168,-7148320 -121176,-7148322 -121181,-7148323 -121192,-7148328 -121206,-7148343 -121214,-7148342 -121219,-7148343 -121226,-7148344 -121233,-7148347 -121237,-7148350 -121248,-7148361 -121302,-7148380 -121326,-7148384 -121333,-7148387 -121343,-7148393 -121383,-7148429 -121383,-7148445 -121404,-7148477 -121410,-7148484 -121436,-7148508 -121447,-7148506 -121451,-7148506 -121455,-7148509 -121460,-7148516 -121464,-7148523 -121471,-7148560 -121573,-7148478 -121581,-7148471 -121588,-7148462 -121595,-7148452 -121603,-7148433 -121607,-7148426 -121616,-7148415 -121708,-7148325 -121750,-7148303 -121758,-7148305 -121763,-7148305 -121769,-7148304 -121777,-7148300 -121783,-7148294 -121807,-7148301 -121821,-7148302 -121839,-7148296 -121850,-7148294 -121858,-7148296 -121865,-7148297 -121875,-7148296 -121884,-7148295 -121887,-7148294 -121893,-7148290 -121895,-7148289 -121898,-7148289 -121902,-7148291 -121930,-7148304 -121962,-7148326 -121957,-7148259 -121956,-7148237 -121957,-7148197 -121958,-7148188 -121969,-7148147 -121984,-7148075 -121989,-7148055 -122012,-7148001 -122059,-7147920 -122089,-7147873 -122102,-7147855 -122114,-7147843 -122130,-7147827 -122150,-7147811 -122195,-7147784 -122236,-7147762 -122268,-7147741 -122330,-7147689 -122352,-7147671 -122375,-7147649 -122419,-7147581 -122439,-7147544 -122450,-7147502 -122456,-7147475 -122461,-7147440 -122466,-7147405 -122467,-7147378 -122468,-7147354 -122467,-7147333 -122462,-7147276 -122449,-7147124 -122450,-7147072 -122451,-7147039 -122457,-7146978 -122471,-7146898 -122479,-7146868 -122487,-7146849 -122499,-7146825 -122510,-7146808 -122525,-7146792 -122580,-7146745 -122600,-7146731 -122616,-7146723 -122640,-7146713 -122703,-7146696 -122751,-7146692 -122815,-7146683 -122872,-7146678 -122904,-7146678 -122919,-7146677 -122947,-7146673 -123019,-7146656 -123045,-7146677 -123062,-7146687 -123140,-7146743 -123169,-7146753 -123195,-7146781 -123199,-7146796 -123212,-7146809 -123234,-7146828 -123304,-7146863 -123330,-7146881 -123353,-7146895 -123384,-7146918 -123406,-7146930 -123452,-7146963 -123474,-7146989 -123520,-7147036 -123534,-7147053 -123562,-7147088 -123574,-7147108 -123581,-7147123 -123590,-7147136 -123600,-7147150 -123617,-7147166 -123630,-7147181 -123637,-7147188 -123651,-7147198 -123695,-7147226 -123747,-7147254 -123753,-7147259 -123767,-7147272 -123783,-7147285 -123793,-7147264 -123844,-7147278 -123856,-7147295 -123865,-7147300 -123882,-7147307 -123893,-7147312 -123898,-7147313 -123986,-7147329 -124023,-7147339 -124045,-7147347 -124188,-7147402 -124253,-7147431 -124392,-7147530 -124415,-7147550 -124428,-7147564 -124441,-7147580 -124522,-7147723 -124527,-7147729 -124533,-7147735 -124559,-7147757 -124568,-7147766 -124789,-7147956 -124794,-7147962 -124803,-7147966 -124820,-7147964 -125232,-7147967 -125236,-7148044 -125237,-7148197 -125231,-7148281 -125220,-7148379 -125221,-7148403 -125229,-7148443 -125231,-7148450 -125243,-7148482 -125261,-7148521 -125277,-7148552 -125288,-7148568 -125391,-7148727 -125421,-7148765 -125430,-7148780 -125440,-7148802 -125450,-7148816 -125465,-7148833 -125557,-7148972 -125563,-7148989 -125568,-7148999 -125591,-7149031 -125600,-7149049 -125607,-7149059 -125650,-7149110 -125666,-7149127 -125692,-7149159 -125731,-7149203 -125764,-7149232 -125775,-7149238 -125880,-7149314 -125899,-7149325 -126042,-7149442 -126151,-7149538 -126160,-7149546 -126164,-7149550 -126167,-7149555 -126170,-7149562 -126179,-7149608 -126187,-7149623 -126207,-7149644 -126205,-7149662 -126208,-7149674 -126210,-7149680 -126219,-7149695 -126227,-7149726 -126251,-7149777 -126266,-7149819 -126271,-7149835 -126288,-7149927 -126321,-7150222 -126327,-7150247 -126333,-7150262 -126337,-7150269 -126362,-7150293 -126386,-7150322 -126446,-7150379 -126477,-7150417 -126499,-7150438 -126513,-7150449 -126550,-7150473 -126559,-7150456 -126596,-7150386 -126614,-7150362 -126621,-7150350 -126633,-7150325 -126655,-7150286 -126694,-7150233 -126772,-7150140 -126797,-7150112 -126830,-7150078 -126968,-7149950 -127018,-7149906 -127078,-7149850 -127101,-7149873 -127125,-7149905 -127209,-7149867 -127300,-7149821 -127372,-7149899 -127496,-7150044 -127657,-7150222 -127670,-7150222 -127674,-7150221 -127684,-7150218 -127700,-7150211 -127715,-7150203 -127821,-7150130 -127846,-7150117 -127884,-7150099 -127901,-7150088 -127929,-7150072 -127958,-7150051 -127965,-7150048 -127981,-7150043 -127994,-7150040 -128018,-7150038 -128030,-7150070 -128031,-7150083 -128030,-7150093 -128026,-7150106 -128003,-7150215 -128003,-7150218 -128005,-7150232 -128011,-7150247 -128020,-7150261 -128035,-7150273 -128040,-7150290 -128043,-7150294 -128065,-7150314 -128087,-7150341 -128089,-7150342 -128094,-7150344 -128105,-7150343 -128132,-7150332 -128136,-7150331 -128148,-7150331 -128154,-7150332 -128165,-7150336 -128180,-7150356 -128211,-7150383 -128226,-7150392 -128229,-7150396 -128235,-7150406 -128264,-7150429 -128276,-7150434 -128282,-7150436 -128290,-7150437 -128299,-7150437 -128329,-7150430 -128341,-7150429 -128363,-7150429 -128384,-7150434 -128408,-7150449 -128449,-7150465 -128471,-7150472 -128485,-7150471 -128493,-7150470 -128506,-7150470 -128506,-7150509 -128502,-7150562 -128501,-7150568 -128495,-7150588 -128495,-7150597 -128496,-7150607 -128498,-7150612 -128517,-7150636 -128569,-7150694 -128581,-7150700 -128589,-7150703 -128600,-7150705 -128620,-7150718 -128628,-7150721 -128641,-7150723 -128661,-7150739 -128671,-7150751 -128684,-7150776 -128690,-7150789 -128694,-7150794 -128698,-7150798 -128719,-7150812 -128726,-7150827 -128765,-7150867 -128783,-7150891 -128792,-7150905 -128821,-7150923 -128858,-7150962 -128866,-7150973 -128882,-7150988 -128896,-7151003 -128912,-7151019 -128922,-7151033 -128936,-7151052 -128959,-7151083 -128976,-7151103 -128987,-7151124 -128993,-7151133 -128998,-7151137 -129010,-7151138 -129022,-7151138 -129032,-7151148 -129039,-7151161 -129037,-7151180 -129034,-7151193 -129060,-7151194 -129067,-7151202 -129074,-7151212 -129092,-7151238 -129112,-7151271 -129127,-7151300 -129136,-7151309 -129144,-7151321 -129153,-7151340 -129160,-7151354 -129163,-7151367 -129176,-7151396 -129186,-7151423 -129200,-7151463 -129209,-7151488 -129210,-7151498 -129210,-7151509 -129213,-7151524 -129218,-7151539 -129223,-7151550 -129233,-7151562 -129245,-7151578 -129244,-7151589 -129247,-7151598 -129258,-7151624 -129268,-7151644 -129276,-7151660 -129281,-7151673 -129285,-7151686 -129287,-7151697 -129288,-7151708 -129294,-7151719 -129299,-7151728 -129303,-7151740 -129304,-7151754 -129300,-7151763 -129298,-7151770 -129300,-7151775 -129298,-7151781 -129297,-7151788 -129302,-7151800 -129308,-7151822 -129310,-7151837 -129310,-7151850 -129308,-7151862 -129306,-7151876 -129309,-7151885 -129315,-7151891 -129318,-7151900 -129323,-7151911 -129330,-7151921 -129334,-7151931 -129336,-7151949 -129339,-7151968 -129339,-7151980 -129338,-7151993 -129335,-7152004 -129331,-7152016 -129323,-7152020 -129316,-7152029 -129316,-7152039 -129320,-7152057 -129324,-7152073 -129327,-7152084 -129330,-7152101 -129336,-7152123 -129344,-7152151 -129350,-7152168 -129362,-7152206 -129364,-7152212 -129364,-7152223 -129367,-7152241 -129370,-7152259 -129374,-7152272 -129375,-7152286 -129379,-7152296 -129387,-7152317 -129391,-7152335 -129401,-7152359 -129408,-7152373 -129417,-7152385 -129422,-7152400 -129427,-7152412 -129430,-7152433 -129432,-7152452 -129434,-7152462 -129439,-7152477 -129444,-7152491 -129449,-7152505 -129454,-7152525 -129456,-7152535 -129462,-7152549 -129461,-7152560 -129465,-7152577 -129470,-7152597 -129474,-7152606 -129476,-7152615 -129475,-7152625 -129483,-7152644 -129490,-7152662 -129488,-7152670 -129491,-7152681 -129499,-7152708 -129510,-7152712 -129523,-7152742 -129530,-7152757 -129541,-7152770 -129549,-7152783 -129558,-7152811 -129574,-7152856 -129606,-7152908 -129621,-7152935 -129634,-7152973 -129641,-7153005 -129653,-7153060 -129659,-7153107 -129660,-7153122 -129661,-7153131 -129671,-7153163 -129675,-7153179 -129678,-7153196 -129678,-7153204 -129677,-7153238 -129757,-7153182 -129774,-7153170 -129783,-7153166 -129810,-7153155 -129850,-7153134 -129892,-7153106 -129929,-7153089 -129948,-7153079 -130039,-7153026 -130048,-7153022 -130077,-7153013 -130139,-7153001 -130152,-7152989 -130160,-7152985 -130179,-7152980 -130193,-7152975 -130205,-7152970 -130310,-7152907 -130320,-7152925 -130415,-7153073 -130456,-7153137 -130464,-7153146 -130468,-7153152 -130471,-7153161 -130481,-7153178 -130493,-7153206 -130537,-7153291 -130573,-7153354 -130585,-7153371 -130634,-7153433 -130646,-7153452 -130655,-7153463 -130676,-7153486 -130737,-7153543 -130747,-7153559 -130757,-7153569 -130762,-7153576 -130768,-7153587 -130812,-7153647 -130833,-7153679 -130851,-7153711 -130882,-7153773 -130900,-7153803 -130957,-7153879 -130971,-7153895 -130983,-7153904 -131013,-7153872 -131056,-7153934 -131065,-7153948 -131123,-7154060 -131141,-7154106 -131206,-7154263 -131279,-7154433 -131283,-7154434 -131322,-7154428 -131336,-7154425 -131344,-7154424 -131395,-7154431 -131415,-7154432 -131436,-7154430 -131499,-7154419 -131545,-7154407 -131554,-7154403 -131563,-7154397 -131620,-7154368 -131628,-7154361 -131636,-7154357 -131645,-7154355 -131653,-7154353 -131728,-7154336 -131852,-7154310 -131885,-7154299 -131899,-7154295 -131933,-7154289 -131991,-7154275 -131993,-7154275 -131998,-7154283 -132005,-7154299 -132020,-7154351 -132025,-7154369 -132025,-7154385 -132027,-7154391 -132032,-7154410 -132037,-7154421 -132038,-7154430 -132047,-7154476 -132058,-7154515 -132065,-7154547 -132069,-7154562 -132115,-7154692 -132112,-7154696 -132104,-7154725 -132181,-7154865 -132202,-7154894 -132216,-7154913 -132239,-7154943 -132296,-7155036 -132319,-7155068 -132328,-7155082 -132336,-7155097 -132394,-7155212 -132405,-7155231 -132411,-7155243 -132414,-7155255 -132417,-7155267 -132419,-7155282 -132443,-7155282 -132450,-7155284 -132462,-7155288 -132469,-7155294 -132502,-7155351 -132596,-7155507 -132638,-7155502 -132727,-7155500 -132760,-7155501 -132938,-7155483 -133043,-7155476 -133097,-7155469 -133118,-7155557 -133136,-7155663 -133144,-7155682 -133159,-7155688 -133173,-7155690 -133180,-7155690 -133195,-7155687 -133200,-7155686 -133223,-7155687 -133233,-7155689 -133248,-7155693 -133265,-7155701 -133273,-7155705 -133317,-7155754 -133370,-7155831 -133412,-7155875 -133428,-7155913 -133469,-7155962 -133476,-7155974 -133482,-7155981 -133492,-7155990 -133516,-7156020 -133522,-7156026 -133527,-7156031 -133530,-7156038 -133533,-7156046 -133534,-7156055 -133547,-7156087 -133549,-7156102 -133596,-7156243 -133601,-7156272 -133608,-7156333 -133608,-7156368 -133607,-7156390 -133603,-7156411 -133599,-7156447 -133597,-7156590 -133591,-7156620 -133589,-7156623 -133584,-7156628 -133578,-7156632 -133570,-7156634 -133560,-7156635 -133551,-7156635 -133548,-7156635 -133529,-7156629 -133501,-7156630 -133477,-7156627 -133455,-7156632 -133432,-7156639 -133423,-7156644 -133416,-7156645 -133407,-7156646 -133388,-7156650 -133378,-7156650 -133372,-7156651 -133365,-7156653 -133359,-7156656 -133353,-7156662 -133331,-7156782 -133342,-7156800 -133392,-7156903 -133500,-7157120 -133512,-7157142 -133539,-7157213 -133562,-7157258 -133566,-7157267 -133600,-7157361 -133601,-7157370 -133600,-7157381 -133597,-7157388 -133575,-7157427 -133571,-7157437 -133566,-7157453 -133565,-7157465 -133556,-7157463 -133561,-7157506 -133559,-7157530 -133556,-7157541 -133556,-7157556 -133568,-7157610 -133574,-7157646 -133577,-7157689 -133576,-7157709 -133570,-7157752 -133571,-7157769 -133575,-7157780 -133584,-7157790 -133604,-7157834 -133612,-7157855 -133631,-7157911 -133637,-7157938 -133635,-7158022 -133637,-7158030 -133642,-7158045 -133663,-7158076 -133672,-7158104 -133692,-7158148 -133708,-7158169 -133714,-7158181 -133751,-7158289 -133762,-7158347 -133765,-7158383 -133766,-7158393 -133771,-7158410 -133783,-7158477 -133789,-7158478 -133792,-7158480 -133804,-7158495 -133874,-7158594 -133879,-7158603 -133881,-7158609 -133877,-7158640 -133877,-7158650 -133879,-7158656 -133920,-7158769 -133923,-7158782 -133923,-7158797 -133921,-7158809 -133922,-7158839 -133921,-7158859 -133922,-7158864 -133925,-7158880 -133956,-7158971 -133959,-7158977 -134014,-7159034 -134015,-7159036 -134016,-7159041 -134014,-7159051 -133973,-7159148 -133969,-7159168 -133967,-7159185 -133966,-7159198 -133969,-7159218 -133987,-7159271 -133990,-7159288 -134001,-7159311 -134011,-7159328 -134033,-7159394 -134043,-7159427 -134042,-7159449 -134043,-7159460 -134054,-7159484 -134066,-7159504 -134073,-7159513 -134083,-7159523 -134094,-7159533 -134113,-7159545 -134166,-7159568 -134177,-7159575 -134187,-7159585 -134220,-7159634 -134241,-7159669 -134255,-7159694 -134266,-7159724 -134273,-7159737 -134282,-7159746 -134291,-7159751 -134310,-7159765 -134316,-7159773 -134319,-7159780 -134328,-7159813 -134338,-7159838 -134342,-7159845 -134383,-7159840 -134405,-7159843 -134405,-7159890 -134414,-7159938 -134415,-7159939 -134443,-7160048 -134447,-7160075 -134452,-7160159 -134476,-7160371 -134482,-7160424 -134501,-7160432 -134523,-7160606 -134536,-7160687 -134557,-7160779 -134578,-7160906 -134585,-7160929 -134600,-7160976 -134609,-7161003 -134621,-7161028 -134637,-7161056 -134675,-7161108 -134701,-7161139 -134734,-7161185 -134773,-7161247 -134787,-7161272 -134814,-7161326 -134881,-7161447 -134900,-7161487 -134912,-7161516 -134920,-7161538 -134927,-7161558 -134934,-7161587 -134942,-7161620 -134947,-7161649 -134959,-7161744 -134973,-7161797 -134983,-7161830 -134994,-7161861 -135004,-7161889 -135018,-7161920 -135034,-7161953 -135057,-7161996 -135187,-7162219 -135252,-7162314 -135275,-7162350 -135301,-7162388 -135315,-7162413 -135322,-7162426 -135347,-7162482 -135358,-7162502 -135369,-7162521 -135409,-7162578 -135432,-7162608 -135451,-7162631 -135470,-7162654 -135488,-7162672 -135503,-7162686 -135547,-7162722 -135587,-7162759 -135626,-7162796 -135633,-7162805 -135638,-7162815 -135642,-7162825 -135645,-7162840 -135655,-7162866 -135662,-7162873 -135683,-7162894 -135697,-7162906 -135767,-7163010 -135782,-7163036 -135791,-7163058 -135800,-7163083 -135806,-7163103 -135809,-7163122 -135810,-7163143 -135810,-7163164 -135805,-7163229 -135802,-7163255 -135794,-7163283 -135789,-7163297 -135774,-7163328 -135759,-7163350 -135698,-7163428 -135677,-7163456 -135631,-7163512 -135617,-7163530 -135610,-7163543 -135586,-7163590 -135573,-7163619 -135549,-7163670 -135538,-7163695 -135529,-7163719 -135533,-7163731 -135552,-7163767 -135558,-7163775 -135580,-7163805 -135591,-7163818 -135631,-7163859 -135682,-7163908 -135700,-7163927 -135719,-7163950 -135727,-7163963 -135773,-7164049 -135892,-7164281 -135909,-7164318 -135921,-7164353 -135931,-7164385 -135953,-7164466 -135954,-7164469 -135969,-7164534 -135974,-7164566 -135976,-7164599 -135978,-7164652 -135978,-7164734 -135981,-7164765 -135983,-7164793 -135984,-7164813 -135985,-7164886 -135981,-7164907 -135980,-7164927 -135981,-7164942 -135983,-7164956 -135988,-7164981 -135995,-7165001 -136003,-7165023 -136048,-7165116 -136052,-7165123 -136064,-7165149 -136070,-7165161 -136084,-7165181 -136121,-7165224 -136153,-7165267 -136167,-7165283 -136196,-7165312 -136206,-7165324 -136212,-7165335 -136217,-7165347 -136221,-7165359 -136223,-7165376 -136222,-7165390 -136210,-7165429 -136204,-7165443 -136199,-7165461 -136198,-7165475 -136201,-7165518 -136144,-7165585 -136133,-7165597 -136127,-7165602 -136121,-7165608 -136117,-7165614 -136114,-7165620 -136112,-7165626 -136111,-7165637 -136110,-7165641 -136106,-7165650 -136079,-7165698 -136075,-7165709 -136074,-7165719 -136076,-7165732 -136077,-7165752 -136071,-7165856 -136061,-7165928 -136058,-7166034 -136059,-7166068 -136060,-7166089 -136066,-7166128 -136070,-7166147 -136070,-7166158 -136066,-7166191 -136063,-7166202 -136044,-7166244 -136024,-7166314 -136010,-7166379 -135988,-7166447 -135956,-7166517 -135947,-7166539 -135925,-7166591 -135914,-7166613 -135902,-7166635 -135892,-7166649 -135876,-7166667 -135872,-7166670 -135863,-7166678 -135821,-7166715 -135786,-7166739 -135776,-7166748 -135767,-7166758 -135754,-7166776 -135753,-7166779 -135749,-7166786 -135742,-7166804 -135732,-7166832 -135730,-7166850 -135728,-7166859 -135722,-7166874 -135718,-7166880 -135711,-7166889 -135699,-7166900 -135681,-7166912 -135628,-7166937 -135615,-7166943 -135594,-7166949 -135574,-7166955 -135545,-7166960 -135540,-7166963 -135530,-7166971 -135521,-7166979 -135515,-7166988 -135510,-7166996 -135507,-7167005 -135506,-7167013 -135506,-7167025 -135508,-7167050 -135530,-7167140 -135531,-7167165 -135530,-7167179 -135526,-7167205 -135514,-7167246 -135502,-7167279 -135444,-7167377 -135434,-7167404 -135422,-7167427 -135379,-7167418 -135363,-7167413 -135351,-7167411 -135335,-7167409 -135323,-7167409 -135313,-7167410 -135303,-7167412 -135279,-7167419 -135239,-7167424 -135225,-7167425 -135212,-7167425 -135198,-7167422 -135178,-7167413 -135115,-7167376 -135084,-7167360 -135073,-7167360 -135062,-7167361 -135045,-7167366 -135006,-7167387 -134997,-7167394 -134990,-7167398 -134979,-7167401 -134961,-7167402 -134934,-7167404 -134911,-7167404 -134888,-7167402 -134859,-7167397 -134837,-7167397 -134815,-7167396 -134800,-7167398 -134789,-7167402 -134779,-7167407 -134769,-7167414 -134756,-7167428 -134734,-7167445 -134716,-7167456 -134703,-7167464 -134695,-7167467 -134653,-7167478 -134641,-7167480 -134631,-7167482 -134622,-7167486 -134602,-7167498 -134558,-7167520 -134484,-7167567 -134421,-7167596 -134398,-7167604 -134382,-7167608 -134353,-7167612 -134327,-7167614 -134224,-7167630 -134182,-7167649 -134142,-7167660 -134125,-7167662 -134116,-7167661 -134108,-7167659 -134096,-7167652 -134073,-7167642 -134051,-7167633 -134043,-7167631 -134018,-7167628 -133976,-7167628 -133961,-7167631 -133948,-7167636 -133924,-7167655 -133880,-7167675 -133874,-7167679 -133862,-7167687 -133852,-7167696 -133842,-7167707 -133834,-7167719 -133825,-7167736 -133820,-7167750 -133816,-7167767 -133814,-7167781 -133814,-7167796 -133807,-7167820 -133804,-7167836 -133805,-7167845 -133807,-7167851 -133815,-7167862 -133818,-7167875 -133818,-7167880 -133816,-7167892 -133813,-7167907 -133809,-7167916 -133805,-7167924 -133792,-7167939 -133777,-7167951 -133770,-7167962 -133741,-7167978 -133736,-7167982 -133704,-7168012 -133695,-7168022 -133688,-7168033 -133680,-7168047 -133669,-7168057 -133658,-7168064 -133642,-7168071 -133618,-7168078 -133603,-7168079 -133595,-7168078 -133547,-7168065 -133523,-7168055 -133507,-7168045 -133494,-7168034 -133487,-7168028 -133475,-7168010 -133458,-7167996 -133433,-7167988 -133417,-7167975 -133405,-7167968 -133400,-7167967 -133384,-7167966 -133380,-7167967 -133366,-7167972 -133353,-7167974 -133346,-7167973 -133325,-7167967 -133314,-7167961 -133309,-7167956 -133293,-7167933 -133287,-7167922 -133282,-7167911 -133279,-7167900 -133274,-7167875 -133275,-7167868 -133284,-7167830 -133289,-7167814 -133301,-7167769 -133303,-7167752 -133302,-7167721 -133304,-7167713 -133303,-7167703 -133297,-7167693 -133282,-7167668 -133254,-7167633 -133244,-7167623 -133238,-7167618 -133212,-7167603 -133194,-7167589 -133167,-7167572 -133133,-7167512 -133110,-7167481 -133096,-7167457 -133070,-7167420 -133050,-7167394 -133031,-7167375 -133020,-7167365 -133003,-7167352 -132878,-7167259 -132851,-7167240 -132814,-7167216 -132752,-7167178 -132717,-7167163 -132680,-7167151 -132666,-7167148 -132655,-7167146 -132635,-7167145 -132612,-7167147 -132598,-7167149 -132569,-7167155 -132535,-7167164 -132525,-7167166 -132483,-7167168 -132460,-7167168 -132441,-7167167 -132423,-7167164 -132409,-7167161 -132388,-7167154 -132359,-7167140 -132339,-7167127 -132327,-7167117 -132314,-7167129 -132295,-7167141 -132284,-7167146 -132275,-7167147 -132230,-7167138 -132190,-7167124 -132182,-7167124 -132179,-7167125 -132151,-7167145 -132105,-7167193 -132100,-7167196 -132094,-7167199 -132087,-7167202 -132080,-7167202 -132074,-7167202 -132070,-7167200 -132066,-7167196 -132058,-7167184 -132054,-7167171 -132036,-7167124 -132017,-7167093 -132011,-7167087 -132007,-7167085 -131997,-7167086 -131981,-7167093 -131976,-7167096 -131928,-7167159 -131921,-7167171 -131914,-7167179 -131898,-7167192 -131874,-7167206 -131854,-7167213 -131845,-7167217 -131836,-7167222 -131797,-7167250 -131732,-7167268 -131712,-7167283 -131708,-7167284 -131704,-7167288 -131690,-7167306 -131661,-7167333 -131657,-7167336 -131645,-7167340 -131591,-7167381 -131569,-7167415 -131558,-7167436 -131547,-7167460 -131540,-7167480 -131536,-7167492 -131533,-7167505 -131531,-7167518 -131531,-7167528 -131533,-7167544 -131541,-7167572 -131543,-7167588 -131543,-7167611 -131537,-7167662 -131533,-7167684 -131528,-7167711 -131519,-7167743 -131510,-7167771 -131500,-7167799 -131483,-7167844 -131484,-7167935 -131480,-7167969 -131467,-7168018 -131463,-7168036 -131461,-7168063 -131461,-7168080 -131457,-7168114 -131450,-7168156 -131445,-7168174 -131443,-7168182 -131431,-7168201 -131427,-7168212 -131426,-7168228 -131429,-7168258 -131432,-7168275 -131446,-7168328 -131451,-7168382 -131457,-7168425 -131472,-7168453 -131483,-7168479 -131508,-7168532 -131525,-7168572 -131527,-7168582 -131528,-7168594 -131528,-7168607 -131525,-7168628 -131525,-7168636 -131531,-7168665 -131535,-7168675 -131531,-7168712 -131531,-7168726 -131535,-7168757 -131538,-7168770 -131544,-7168790 -131554,-7168814 -131562,-7168832 -131600,-7168901 -131608,-7168924 -131613,-7168948 -131616,-7168962 -131622,-7168975 -131640,-7169008 -131648,-7169029 -131653,-7169038 -131666,-7169053 -131673,-7169066 -131676,-7169075 -131678,-7169087 -131678,-7169106 -131685,-7169143 -131693,-7169161 -131701,-7169169 -131706,-7169175 -131708,-7169182 -131710,-7169192 -131711,-7169212 -131695,-7169295 -131721,-7169323 -131727,-7169335 -131729,-7169344 -131730,-7169351 -131729,-7169356 -131726,-7169365 -131718,-7169403 -131717,-7169414 -131718,-7169422 -131722,-7169439 -131725,-7169445 -131729,-7169449 -131734,-7169453 -131739,-7169456 -131748,-7169457 -131765,-7169455 -131771,-7169455 -131783,-7169475 -131798,-7169494 -131808,-7169518 -131809,-7169544 -131812,-7169581 -131820,-7169600 -131839,-7169611 -131884,-7169627 -131911,-7169628 -131960,-7169624 -131966,-7169625 -131975,-7169629 -131981,-7169634 -131990,-7169645 -131995,-7169656 -132003,-7169687 -132005,-7169696 -132005,-7169713 -132008,-7169738 -132015,-7169754 -132059,-7169788 -132095,-7169808 -132100,-7169810 -132109,-7169811 -132118,-7169811 -132128,-7169809 -132154,-7169805 -132179,-7169807 -132188,-7169810 -132192,-7169811 -132221,-7169801 -132232,-7169793 -132247,-7169779 -132256,-7169774 -132267,-7169771 -132279,-7169769 -132289,-7169770 -132295,-7169772 -132306,-7169782 -132312,-7169786 -132320,-7169788 -132326,-7169789 -132335,-7169788 -132371,-7169775 -132379,-7169774 -132394,-7169776 -132400,-7169778 -132403,-7169781 -132406,-7169785 -132409,-7169802 -132409,-7169808 -132405,-7169820 -132405,-7169832 -132406,-7169838 -132409,-7169846 -132417,-7169860 -132426,-7169870 -132437,-7169877 -132448,-7169880 -132464,-7169879 -132472,-7169879 -132489,-7169883 -132500,-7169888 -132510,-7169897 -132514,-7169902 -132519,-7169915 -132525,-7169941 -132523,-7169962 -132520,-7169976 -132522,-7169981 -132525,-7169983 -132547,-7169996 -132572,-7170006 -132587,-7170014 -132597,-7170021 -132602,-7170025 -132606,-7170031 -132620,-7170059 -132626,-7170076 -132632,-7170090 -132655,-7170119 -132667,-7170123 -132674,-7170128 -132679,-7170133 -132684,-7170141 -132688,-7170151 -132691,-7170161 -132695,-7170188 -132692,-7170201 -132688,-7170210 -132684,-7170240 -132685,-7170250 -132685,-7170254 -132681,-7170265 -132679,-7170268 -132676,-7170269 -132670,-7170269 -132654,-7170261 -132632,-7170257 -132627,-7170259 -132622,-7170264 -132620,-7170269 -132623,-7170301 -132623,-7170312 -132616,-7170349 -132614,-7170357 -132607,-7170368 -132598,-7170381 -132587,-7170392 -132580,-7170397 -132531,-7170412 -132524,-7170414 -132510,-7170421 -132485,-7170436 -132458,-7170441 -132443,-7170444 -132438,-7170447 -132419,-7170460 -132415,-7170461 -132401,-7170463 -132396,-7170465 -132391,-7170468 -132386,-7170473 -132379,-7170485 -132374,-7170514 -132365,-7170514 -132361,-7170512 -132354,-7170510 -132347,-7170513 -132344,-7170516 -132342,-7170520 -132342,-7170525 -132343,-7170531 -132346,-7170541 -132359,-7170572 -132361,-7170580 -132362,-7170596 -132362,-7170602 -132359,-7170607 -132355,-7170611 -132342,-7170623 -132337,-7170626 -132324,-7170628 -132310,-7170626 -132301,-7170622 -132277,-7170616 -132259,-7170614 -132251,-7170611 -132219,-7170599 -132216,-7170597 -132214,-7170594 -132211,-7170589 -132209,-7170581 -132195,-7170568 -132175,-7170534 -132147,-7170540 -132132,-7170524 -132115,-7170509 -132103,-7170492 -132098,-7170487 -132094,-7170484 -132086,-7170482 -132065,-7170484 -132061,-7170483 -132057,-7170482 -132051,-7170477 -132036,-7170455 -132025,-7170449 -132014,-7170443 -131988,-7170437 -131976,-7170435 -131966,-7170431 -131956,-7170422 -131949,-7170412 -131941,-7170392 -131925,-7170383 -131893,-7170372 -131884,-7170367 -131870,-7170355 -131846,-7170340 -131841,-7170340 -131827,-7170349 -131817,-7170352 -131788,-7170354 -131766,-7170354 -131739,-7170355 -131724,-7170343 -131688,-7170299 -131663,-7170291 -131642,-7170279 -131626,-7170271 -131613,-7170261 -131608,-7170256 -131601,-7170246 -131595,-7170233 -131582,-7170204 -131580,-7170194 -131580,-7170186 -131582,-7170178 -131583,-7170175 -131588,-7170172 -131589,-7170169 -131589,-7170166 -131587,-7170163 -131583,-7170162 -131580,-7170162 -131567,-7170170 -131563,-7170171 -131555,-7170165 -131550,-7170156 -131537,-7170146 -131534,-7170142 -131528,-7170134 -131523,-7170124 -131520,-7170115 -131518,-7170097 -131510,-7170091 -131503,-7170082 -131500,-7170070 -131495,-7170040 -131487,-7170019 -131471,-7170012 -131467,-7170006 -131451,-7169974 -131442,-7169965 -131429,-7169965 -131420,-7169958 -131405,-7169948 -131391,-7169942 -131367,-7169935 -131354,-7169933 -131326,-7169940 -131302,-7169940 -131298,-7169943 -131295,-7169945 -131293,-7169951 -131295,-7169967 -131295,-7169974 -131294,-7169977 -131291,-7169981 -131287,-7169985 -131276,-7169989 -131262,-7170000 -131252,-7170004 -131249,-7170004 -131242,-7169999 -131231,-7169995 -131227,-7169996 -131225,-7169998 -131222,-7170010 -131222,-7170017 -131224,-7170021 -131231,-7170029 -131232,-7170038 -131225,-7170049 -131215,-7170060 -131220,-7170062 -131223,-7170065 -131227,-7170080 -131227,-7170088 -131225,-7170093 -131219,-7170098 -131182,-7170111 -131182,-7170113 -131183,-7170139 -131184,-7170147 -131187,-7170149 -131200,-7170157 -131206,-7170160 -131204,-7170167 -131201,-7170173 -131188,-7170184 -131172,-7170185 -131147,-7170186 -131136,-7170200 -131131,-7170203 -131130,-7170206 -131130,-7170211 -131133,-7170213 -131154,-7170209 -131159,-7170209 -131167,-7170212 -131171,-7170217 -131172,-7170219 -131172,-7170224 -131170,-7170234 -131168,-7170239 -131163,-7170246 -131157,-7170252 -131146,-7170258 -131118,-7170264 -131090,-7170275 -131083,-7170247 -131083,-7170243 -131081,-7170239 -131077,-7170238 -131073,-7170239 -131070,-7170242 -131067,-7170247 -131066,-7170258 -131065,-7170264 -131058,-7170276 -131054,-7170279 -131049,-7170279 -131044,-7170277 -131040,-7170274 -131034,-7170267 -131022,-7170257 -131017,-7170255 -131013,-7170256 -131006,-7170258 -130993,-7170261 -130980,-7170267 -130973,-7170273 -130971,-7170281 -130970,-7170292 -130968,-7170298 -130964,-7170303 -130958,-7170307 -130951,-7170310 -130946,-7170311 -130928,-7170311 -130920,-7170313 -130913,-7170316 -130908,-7170321 -130905,-7170327 -130903,-7170333 -130904,-7170338 -130925,-7170374 -130947,-7170387 -130950,-7170391 -130954,-7170397 -130956,-7170403 -130957,-7170408 -130955,-7170428 -130951,-7170435 -130948,-7170438 -130945,-7170439 -130941,-7170439 -130938,-7170438 -130935,-7170434 -130893,-7170410 -130888,-7170402 -130885,-7170399 -130880,-7170396 -130877,-7170395 -130868,-7170394 -130856,-7170396 -130840,-7170400 -130831,-7170403 -130822,-7170406 -130816,-7170410 -130812,-7170414 -130809,-7170419 -130805,-7170427 -130802,-7170436 -130801,-7170444 -130802,-7170449 -130804,-7170454 -130809,-7170460 -130815,-7170466 -130823,-7170471 -130829,-7170473 -130834,-7170474 -130844,-7170472 -130860,-7170463 -130870,-7170461 -130879,-7170461 -130890,-7170463 -130900,-7170466 -130910,-7170473 -130919,-7170482 -130922,-7170491 -130922,-7170495 -130921,-7170500 -130912,-7170513 -130907,-7170517 -130872,-7170544 -130857,-7170572 -130714,-7170514 -130697,-7170507 -130664,-7170491 -130629,-7170474 -130602,-7170459 -130574,-7170442 -130535,-7170411 -130503,-7170381 -130441,-7170315 -130396,-7170263 -130355,-7170213 -130329,-7170177 -130293,-7170125 -130245,-7170045 -130202,-7169967 -130201,-7169966 -130162,-7169886 -130119,-7169784 -130101,-7169735 -130090,-7169709 -130076,-7169680 -129981,-7169520 -129967,-7169499 -129957,-7169486 -129931,-7169458 -129913,-7169442 -129889,-7169422 -129870,-7169408 -129846,-7169394 -129830,-7169386 -129796,-7169372 -129754,-7169358 -129711,-7169345 -129623,-7169322 -129594,-7169312 -129563,-7169301 -129534,-7169288 -129481,-7169262 -129444,-7169241 -129414,-7169221 -129328,-7169174 -129312,-7169165 -129296,-7169154 -129280,-7169142 -129264,-7169127 -129244,-7169108 -129213,-7169073 -129146,-7168968 -129115,-7168921 -129084,-7168879 -129067,-7168860 -129041,-7168833 -129012,-7168803 -128937,-7168734 -128825,-7168627 -128649,-7168471 -128461,-7168299 -128386,-7168234 -128311,-7168165 -128297,-7168153 -128260,-7168125 -128230,-7168107 -128205,-7168095 -128186,-7168088 -128157,-7168078 -128122,-7168069 -128083,-7168061 -128047,-7168056 -128019,-7168053 -127994,-7168052 -127920,-7168065 -127898,-7168066 -127860,-7168062 -127850,-7168062 -127840,-7168062 -127795,-7168066 -127741,-7168070 -127707,-7168076 -127611,-7168100 -127471,-7168132 -127428,-7168138 -127374,-7168153 -127301,-7168176 -127226,-7168209 -127088,-7168274 -127065,-7168282 -127058,-7168285 -127048,-7168291 -127014,-7168315 -126918,-7168371 -126835,-7168411 -126756,-7168441 -126745,-7168445 -126693,-7168457 -126570,-7168467 -126574,-7168515 -126585,-7168538 -126611,-7168574 -126783,-7168759 -126814,-7168898 -126827,-7168899 -126858,-7169030 -126843,-7169036 -126843,-7169154 -126839,-7169177 -126831,-7169198 -126829,-7169222 -126837,-7169252 -126885,-7169294 -126927,-7169312 -126961,-7169335 -126970,-7169342 -126976,-7169347 -126979,-7169349 -127014,-7169402 -126982,-7169503 -126969,-7169523 -126963,-7169539 -126957,-7169556 -126954,-7169574 -126952,-7169589 -126952,-7169598 -126954,-7169608 -126960,-7169638 -126963,-7169646 -126967,-7169656 -127004,-7169691 -127071,-7169734 -127080,-7169742 -127097,-7169760 -127113,-7169772 -127117,-7169776 -127124,-7169794 -127135,-7169828 -127141,-7169852 -127143,-7169859 -127152,-7169874 -127156,-7169878 -127160,-7169882 -127167,-7169885 -127214,-7169897 -127231,-7169907 -127239,-7169909 -127247,-7169909 -127278,-7169908 -127325,-7169927 -127363,-7169962 -127376,-7169981 -127392,-7170010 -127397,-7170019 -127411,-7170032 -127443,-7170073 -127452,-7170101 -127457,-7170122 -127459,-7170128 -127464,-7170135 -127471,-7170142 -127480,-7170149 -127490,-7170153 -127538,-7170165 -127553,-7170172 -127576,-7170187 -127626,-7170231 -127641,-7170248 -127663,-7170262 -127668,-7170266 -127675,-7170277 -127690,-7170311 -127700,-7170334 -127703,-7170344 -127706,-7170362 -127706,-7170404 -127707,-7170407 -127714,-7170423 -127716,-7170445 -127721,-7170458 -127724,-7170463 -127730,-7170467 -127737,-7170470 -127751,-7170473 -127838,-7170471 -127889,-7170592 -127893,-7170608 -127916,-7170714 -127890,-7170806 -127883,-7170830 -127866,-7170876 -127860,-7170898 -127857,-7170915 -127856,-7170924 -127861,-7171025 -127860,-7171052 -127857,-7171074 -127853,-7171084 -127849,-7171093 -127842,-7171104 -127832,-7171118 -127818,-7171134 -127788,-7171164 -127778,-7171176 -127769,-7171189 -127763,-7171203 -127759,-7171217 -127757,-7171228 -127755,-7171252 -127754,-7171258 -127736,-7171300 -127729,-7171322 -127717,-7171374 -127707,-7171404 -127703,-7171412 -127697,-7171422 -127611,-7171497 -127579,-7171530 -127561,-7171559 -127546,-7171582 -127521,-7171606 -127419,-7171673 -127372,-7171696 -127360,-7171713 -127357,-7171723 -127356,-7171728 -127354,-7171732 -127360,-7171736 -127348,-7171774 -127340,-7171787 -127318,-7171805 -127310,-7171817 -127309,-7171822 -127307,-7171827 -127317,-7171865 -127302,-7171945 -127304,-7171964 -127309,-7171986 -127309,-7171991 -127307,-7172000 -127305,-7172006 -127288,-7172041 -127267,-7172077 -127252,-7172107 -127234,-7172152 -127224,-7172199 -127224,-7172221 -127231,-7172243 -127245,-7172267 -127249,-7172280 -127257,-7172328 -127278,-7172416 -127283,-7172428 -127304,-7172512 -127321,-7172553 -127343,-7172578 -127375,-7172596 -127415,-7172605 -127477,-7172636 -127523,-7172653 -127563,-7172677 -127609,-7172748 -127643,-7172794 -127718,-7172924 -127734,-7172947 -127742,-7172961 -127766,-7173010 -127783,-7173050 -127790,-7173070 -127797,-7173098 -127802,-7173132 -127793,-7173203 -127789,-7173208 -127785,-7173212 -127769,-7173221 -127753,-7173233 -127648,-7173313 -127626,-7173324 -127563,-7173380 -127500,-7173440 -127333,-7173586 -127297,-7173621 -127202,-7173718 -127169,-7173746 -127170,-7173774 -127194,-7173845 -127226,-7173906 -127259,-7174007 -127282,-7174041 -127292,-7174065 -127297,-7174089 -127329,-7174160 -127342,-7174215 -127371,-7174292 -127393,-7174329 -127452,-7174454 -127471,-7174494 -127479,-7174543 -127479,-7174556 -127476,-7174610 -127464,-7174692 -127450,-7174733 -127445,-7174751 -127445,-7174757 -127445,-7174762 -127454,-7174774 -127459,-7174785 -127464,-7174804 -127461,-7174817 -127457,-7174845 -127454,-7174859 -127450,-7174873 -127432,-7174922 -127428,-7174937 -127428,-7174950 -127440,-7174988 -127361,-7175006 -127337,-7175018 -127268,-7175113 -127197,-7175214 -127164,-7175269 -127136,-7175305 -127132,-7175310 -127074,-7175339 -127017,-7175391 -126988,-7175415 -126975,-7175421 -126990,-7175671 -126992,-7175813 -126621,-7175874 -126201,-7175947 -126188,-7175948 -126003,-7175961 -125897,-7175961 -125522,-7176035 -125110,-7175849 -124709,-7175659 -124687,-7175701 -124638,-7175770 -124631,-7175782 -124626,-7175793 -124623,-7175802 -124619,-7175819 -124619,-7175827 -124623,-7175858 -124624,-7175877 -124624,-7175906 -124622,-7175918 -124615,-7175932 -124594,-7175968 -124580,-7175990 -124545,-7176035 -124529,-7176060 -124514,-7176085 -124503,-7176107 -124497,-7176125 -124491,-7176145 -124478,-7176202 -124465,-7176240 -124457,-7176260 -124449,-7176274 -124432,-7176298 -124420,-7176322 -124407,-7176363 -124378,-7176408 -124365,-7176426 -124357,-7176441 -124347,-7176464 -124342,-7176479 -124343,-7176491 -124344,-7176508 -124343,-7176512 -124340,-7176520 -124335,-7176527 -124324,-7176537 -124271,-7176597 -124251,-7176626 -124238,-7176642 -124229,-7176650 -124204,-7176670 -124180,-7176693 -124175,-7176701 -124170,-7176710 -124164,-7176728 -124162,-7176739 -124165,-7176752 -124171,-7176767 -124176,-7176794 -124178,-7176818 -124176,-7176834 -124173,-7176848 -124164,-7176868 -124139,-7176907 -124129,-7176928 -124110,-7176946 -124107,-7176947 -124081,-7176947 -124048,-7176949 -123967,-7176945 -123942,-7176945 -123932,-7176947 -123914,-7176952 -123889,-7176963 -123872,-7176968 -123857,-7176969 -123821,-7176971 -123804,-7176973 -123740,-7176990 -123731,-7176993 -123714,-7177002 -123656,-7177026 -123615,-7177045 -123524,-7177092 -123449,-7177135 -123387,-7177168 -123339,-7177201 -123317,-7177215 -123304,-7177219 -123285,-7177229 -123279,-7177231 -123239,-7177242 -123224,-7177245 -123168,-7177251 -123106,-7177261 -123054,-7177267 -122980,-7177279 -122925,-7177282 -122882,-7177289 -122844,-7177287 -122775,-7177290 -122721,-7177294 -122693,-7177294 -122666,-7177294 -122622,-7177290 -122453,-7177294 -122427,-7177297 -122423,-7177320 -122420,-7177333 -122420,-7177341 -122424,-7177362 -122425,-7177382 -122423,-7177408 -122423,-7177418 -122428,-7177454 -122427,-7177473 -122431,-7177493 -122425,-7177545 -122426,-7177573 -122425,-7177611 -122426,-7177624 -122450,-7177716 -122459,-7177739 -122488,-7177800 -122499,-7177817 -122523,-7177841 -122542,-7177885 -122563,-7177913 -122571,-7177918 -122554,-7177925 -122546,-7177929 -122536,-7177937 -122524,-7177947 -122506,-7177965 -122467,-7178011 -122464,-7178012 -122440,-7178016 -122433,-7178019 -122415,-7178027 -122403,-7178030 -122390,-7178029 -122384,-7178026 -122373,-7178021 -122365,-7178016 -122357,-7178001 -122349,-7177995 -122338,-7177982 -122326,-7177961 -122324,-7177952 -122322,-7177947 -122319,-7177942 -122315,-7177938 -122277,-7177913 -122267,-7177909 -122240,-7177907 -122232,-7177908 -122224,-7177911 -122217,-7177916 -122212,-7177921 -122205,-7177933 -122177,-7177948 -122171,-7177947 -122162,-7177941 -122158,-7177936 -122146,-7177926 -122133,-7177920 -122111,-7177907 -122104,-7177901 -122078,-7177869 -122055,-7177853 -122019,-7177820 -122018,-7177821 -122015,-7177832 -121999,-7177905 -121985,-7177947 -121977,-7178013 -121961,-7178065 -121948,-7178131 -121925,-7178260 -121868,-7178651 -121838,-7178815 -121814,-7178991 -121778,-7178965 -121708,-7178910 -121696,-7178904 -121691,-7178903 -121686,-7178904 -121681,-7178906 -121676,-7178909 -121660,-7178927 -121634,-7178967 -121618,-7179001 -121594,-7179042 -121579,-7179063 -121562,-7179082 -121546,-7179111 -121538,-7179119 -121533,-7179123 -121528,-7179126 -121488,-7179141 -121479,-7179143 -121451,-7179143 -121386,-7179156 -121376,-7179162 -121355,-7179181 -121316,-7179211 -121272,-7179254 -121227,-7179270 -121210,-7179270 -121128,-7179256 -121103,-7179245 -121085,-7179239 -121066,-7179233 -121047,-7179229 -121030,-7179226 -121015,-7179226 -120997,-7179226 -120971,-7179229 -120966,-7179229 -120933,-7179224 -120923,-7179221 -120900,-7179213 -120837,-7179199 -120815,-7179192 -120796,-7179185 -120767,-7179173 -120726,-7179172 -120646,-7179177 -120467,-7179201 -120381,-7179224 -120370,-7179227 -120242,-7179258 -120123,-7179285 -120040,-7179302 -119748,-7179340 -119576,-7179360 -119459,-7179377 -119382,-7179386 -119344,-7179389 -119309,-7179394 -119238,-7179407 -118980,-7179469 -118900,-7179491 -118827,-7179507 -118341,-7179633 -118240,-7179657 -118122,-7179494 -117992,-7179330 -117968,-7179306 -117935,-7179277 -117918,-7179264 -117890,-7179244 -117857,-7179222 -117855,-7179282 -117847,-7179391 -117848,-7179412 -117850,-7179442 -117855,-7179471 -117860,-7179493 -117883,-7179572 -117874,-7179632 -117871,-7179687 -117871,-7179725 -117869,-7179752 -117856,-7179801 -117847,-7179894 -117840,-7179946 -117833,-7179998 -117822,-7180061 -117822,-7180094 -117830,-7180126 -117854,-7180220 -117900,-7180375 -117909,-7180469 -117921,-7180572 -117949,-7180771 -117966,-7180884 -117966,-7180936 -117705,-7180844 -117565,-7180797 -117425,-7180745 -117366,-7180726 -117303,-7180712 -117232,-7180690 -117069,-7180629 -116951,-7180588 -116897,-7180571 -116864,-7180559 -116829,-7180547 -116712,-7180501 -116664,-7180488 -116602,-7180473 -116558,-7180466 -116492,-7180452 -116369,-7180443 -116229,-7180426 -116184,-7180419 -116107,-7180402 -115938,-7180373 -115709,-7180344 -115670,-7180339 -115639,-7180337 -115608,-7180335 -115536,-7180332 -115393,-7180324 -115311,-7180316 -115245,-7180306 -115111,-7180280 -115068,-7180271 -115031,-7180269 -114894,-7180245 -114823,-7180228 -114610,-7180185 -114488,-7180155 -114093,-7180035 -114042,-7180017 -114037,-7180005 -113998,-7179989 -113670,-7179847 -113640,-7179829 -113617,-7179818" stroke="white" stroke-width="68" /></ns0:svg>    <rect x="20" y="50"  width="250" height="25"  rx="0"  fill="#E8EDEE" fill-opacity="0.8" />    <text x="145" y="70" text-anchor="middle" font-family="Frutiger" font-weight="bold" font-size="30" fill="#AE2573">York</text>    <rect x="35" y="195" width="220" height="160" rx="15" fill="#724F95"/>    <g font-family="Frutiger" font-size="15" fill="white">        <g> <text x="45" y="218">Self-harm</text> <text x="245" y="218" text-anchor="end">47</text> </g>        <g> <text x="45" y="243">SEN</text> <text x="245" y="243" text-anchor="end">23</text> </g>        <g> <text x="45" y="268">Difficulties</text> <text x="245" y="268" text-anchor="end">79</text> </g>        <g> <text x="45" y="293">Child Carer</text> <text x="245" y="293" text-anchor="end">28</text> </g>        <g> <text x="45" y="318">Drinkers</text> <text x="245" y="318" text-anchor="end">71</text> </g>        <g> <text x="45" y="343">Safeguarding </text> <text x="245" y="343" text-anchor="end">15</text> </g>    </g></svg>