<?xml version="1.0" standalone="no"?>
<!DOCTYPE svg PUBLIC "-//W3C//DTD SVG 1.1//EN"
"http://www.w3.org/Graphics/SVG/1.1/DTD/svg11.dtd">
<svg height="390" version="1.1" width="290" xmlns="http://www.w3.org/2000/svg"><defs><style type="text/css">@font-face {font-family: 'Frutiger';font-style: normal;font-weight: normal;src: local('Frutiger'), url('../fonts/Frutiger.woff') format('woff');}@font-face {font-family: 'Frutiger Bold';font-style: normal;font-weight: normal;src: local('Frutiger Bold'), url('../fonts/Frutiger_bold.woff') format('woff');}        </style>    </defs>    <rect x="20" y="20"  width="250" height="350" rx="15" fill="#005EB8" />    <rect x="35" y="35"  width="220" height="145" rx="15" fill="white" /><ns0:svg xmlns:ns0="http://www.w3.org/2000/svg" height="115" version="1.1" viewBox="-285508 -7128943 22501 31070" width="220" x="35" y="50"><ns0:polygon fill="#003087" points=" -274791,-7128908 -274778,-7128897 -274754,-7128904 -274730,-7128885 -274651,-7128887 -274630,-7128879 -274604,-7128852 -274595,-7128837 -274563,-7128812 -274551,-7128791 -274513,-7128760 -274492,-7128753 -274472,-7128722 -274465,-7128705 -274425,-7128668 -274401,-7128637 -274379,-7128620 -274322,-7128559 -274273,-7128510 -274251,-7128475 -274222,-7128433 -274186,-7128363 -274157,-7128331 -274109,-7128292 -274054,-7128282 -274033,-7128270 -274009,-7128271 -273961,-7128249 -273934,-7128232 -273913,-7128217 -273901,-7128207 -273867,-7128174 -273787,-7128086 -273788,-7128078 -273725,-7127983 -273693,-7127923 -273643,-7127858 -273617,-7127820 -273580,-7127776 -273536,-7127728 -273497,-7127673 -273476,-7127647 -273447,-7127608 -273400,-7127555 -273385,-7127536 -273371,-7127518 -273360,-7127493 -273350,-7127482 -273349,-7127481 -273337,-7127468 -273275,-7127419 -273252,-7127401 -273218,-7127379 -273211,-7127373 -273204,-7127367 -273191,-7127348 -273167,-7127335 -273157,-7127322 -273126,-7127280 -273121,-7127250 -273116,-7127227 -273110,-7127122 -273108,-7127107 -273106,-7127094 -273104,-7127082 -273093,-7127045 -273080,-7127029 -273082,-7127019 -273085,-7127014 -273089,-7127007 -273104,-7126989 -273116,-7126969 -273134,-7126929 -273133,-7126923 -273132,-7126917 -273128,-7126912 -273123,-7126907 -273109,-7126895 -273095,-7126876 -273076,-7126836 -273055,-7126805 -273046,-7126778 -273011,-7126698 -272992,-7126650 -272982,-7126650 -272967,-7126635 -272947,-7126624 -272937,-7126620 -272923,-7126610 -272910,-7126603 -272895,-7126578 -272890,-7126571 -272884,-7126565 -272863,-7126549 -272859,-7126545 -272839,-7126500 -272831,-7126484 -272827,-7126477 -272816,-7126470 -272802,-7126465 -272787,-7126450 -272771,-7126447 -272752,-7126425 -272745,-7126426 -272715,-7126398 -272674,-7126378 -272665,-7126369 -272649,-7126347 -272622,-7126328 -272544,-7126281 -272548,-7126272 -272518,-7126247 -272510,-7126242 -272502,-7126250 -272445,-7126191 -272436,-7126198 -272416,-7126179 -272387,-7126140 -272371,-7126113 -272322,-7126074 -272380,-7126043 -272486,-7125982 -272502,-7125965 -272516,-7125945 -272534,-7125914 -272559,-7125873 -272588,-7125818 -272601,-7125796 -272592,-7125755 -272588,-7125709 -272611,-7125662 -272657,-7125585 -272740,-7125513 -272783,-7125462 -272804,-7125433 -272835,-7125397 -272857,-7125364 -272869,-7125299 -272895,-7125254 -272922,-7125198 -272940,-7125163 -272951,-7125130 -272968,-7125075 -272975,-7125032 -272976,-7125010 -272976,-7125001 -272964,-7124957 -272958,-7124882 -272955,-7124823 -272955,-7124797 -272955,-7124746 -272950,-7124703 -272930,-7124621 -272908,-7124563 -272906,-7124551 -272901,-7124538 -272898,-7124504 -272883,-7124437 -272886,-7124411 -272883,-7124386 -272883,-7124374 -272878,-7124360 -272860,-7124335 -272867,-7124311 -272869,-7124299 -272870,-7124287 -272869,-7124268 -272878,-7124252 -272880,-7124246 -272881,-7124240 -272879,-7124219 -272900,-7124203 -272920,-7124181 -272930,-7124165 -272901,-7124151 -272883,-7124112 -272865,-7124092 -272848,-7124078 -272837,-7124077 -272822,-7124124 -272812,-7124137 -272803,-7124138 -272794,-7124138 -272783,-7124129 -272773,-7124113 -272765,-7124092 -272759,-7124083 -272731,-7124102 -272712,-7124110 -272695,-7124113 -272654,-7124115 -272620,-7124113 -272583,-7124107 -272554,-7124100 -272528,-7124090 -272496,-7124066 -272459,-7124026 -272433,-7124002 -272376,-7123964 -272354,-7123950 -272345,-7123949 -272308,-7123911 -272290,-7123888 -272272,-7123866 -272259,-7123840 -272249,-7123842 -272228,-7123814 -272225,-7123806 -272226,-7123772 -272222,-7123744 -272218,-7123737 -272208,-7123723 -272202,-7123717 -272191,-7123716 -272185,-7123705 -272185,-7123694 -272210,-7123674 -272213,-7123668 -272215,-7123662 -272213,-7123649 -272173,-7123642 -272143,-7123636 -272141,-7123634 -272137,-7123630 -272136,-7123627 -272144,-7123611 -272172,-7123568 -272169,-7123556 -272157,-7123539 -272121,-7123528 -272106,-7123520 -272091,-7123513 -272063,-7123493 -272058,-7123489 -272026,-7123450 -272014,-7123436 -271988,-7123414 -271957,-7123395 -271951,-7123385 -271930,-7123369 -271913,-7123358 -271894,-7123353 -271853,-7123351 -271834,-7123326 -271830,-7123303 -271831,-7123277 -271842,-7123245 -271846,-7123227 -271830,-7123221 -271819,-7123201 -271805,-7123204 -271784,-7123168 -271769,-7123142 -271753,-7123111 -271707,-7123048 -271695,-7123028 -271709,-7123015 -271733,-7122999 -271703,-7122947 -271667,-7122898 -271627,-7122841 -271627,-7122825 -271630,-7122782 -271628,-7122764 -271619,-7122739 -271608,-7122717 -271607,-7122698 -271599,-7122667 -271580,-7122630 -271576,-7122619 -271569,-7122612 -271549,-7122542 -271573,-7122519 -271588,-7122507 -271598,-7122495 -271600,-7122472 -271607,-7122445 -271626,-7122430 -271654,-7122418 -271666,-7122409 -271675,-7122384 -271681,-7122362 -271698,-7122345 -271713,-7122335 -271719,-7122333 -271701,-7122290 -271720,-7122269 -271720,-7122266 -271719,-7122250 -271704,-7122217 -271705,-7122206 -271714,-7122191 -271785,-7122180 -271787,-7122178 -271796,-7122161 -271806,-7122117 -271819,-7122084 -271833,-7122064 -271840,-7122052 -271834,-7122029 -271823,-7122026 -271818,-7122010 -271809,-7121990 -271793,-7121966 -271787,-7121944 -271788,-7121868 -271781,-7121820 -271772,-7121784 -271771,-7121772 -271775,-7121738 -271775,-7121734 -271762,-7121711 -271764,-7121690 -271769,-7121661 -271776,-7121643 -271775,-7121613 -271796,-7121580 -271817,-7121539 -271823,-7121519 -271814,-7121512 -271766,-7121494 -271745,-7121425 -271739,-7121408 -271727,-7121377 -271725,-7121361 -271733,-7121340 -271735,-7121331 -271729,-7121293 -271724,-7121237 -271710,-7121222 -271710,-7121217 -271710,-7121212 -271724,-7121194 -271711,-7121100 -271697,-7121074 -271631,-7120958 -271621,-7120926 -271615,-7120882 -271616,-7120869 -271629,-7120784 -271629,-7120778 -271622,-7120707 -271616,-7120680 -271611,-7120662 -271610,-7120657 -271614,-7120638 -271615,-7120628 -271616,-7120618 -271614,-7120604 -271613,-7120562 -271609,-7120535 -271596,-7120499 -271594,-7120478 -271595,-7120457 -271608,-7120402 -271604,-7120291 -271601,-7120204 -271599,-7119999 -271595,-7119910 -271595,-7119842 -271593,-7119821 -271579,-7119795 -271480,-7119643 -271462,-7119616 -271366,-7119465 -271189,-7119179 -270976,-7118860 -270901,-7118739 -270890,-7118572 -270847,-7118066 -270834,-7117878 -270827,-7117819 -270824,-7117802 -270814,-7117766 -270796,-7117718 -270793,-7117677 -270788,-7117600 -270782,-7117550 -270777,-7117494 -270763,-7117425 -270761,-7117375 -270763,-7117352 -270803,-7117243 -270830,-7117215 -270874,-7117191 -270906,-7117175 -270932,-7117156 -270937,-7117151 -270877,-7117158 -270860,-7117146 -270805,-7117102 -270733,-7117023 -270641,-7116938 -270551,-7116850 -270480,-7116783 -270431,-7116740 -270369,-7116670 -270275,-7116560 -270147,-7116409 -270134,-7116396 -270046,-7116307 -269957,-7116242 -269910,-7116203 -269779,-7116115 -269686,-7116049 -269638,-7116020 -269536,-7115949 -269472,-7115908 -269435,-7115876 -269397,-7115837 -269371,-7115816 -269332,-7115769 -269274,-7115728 -269229,-7115691 -269209,-7115691 -269212,-7115671 -269210,-7115647 -269211,-7115631 -269234,-7115596 -269235,-7115585 -269234,-7115565 -269239,-7115557 -269252,-7115550 -269262,-7115538 -269265,-7115532 -269277,-7115503 -269292,-7115496 -269322,-7115483 -269324,-7115481 -269325,-7115478 -269328,-7115454 -269333,-7115431 -269338,-7115420 -269352,-7115402 -269354,-7115394 -269356,-7115386 -269359,-7115363 -269356,-7115347 -269360,-7115336 -269345,-7115320 -269343,-7115309 -269343,-7115303 -269345,-7115297 -269351,-7115285 -269368,-7115264 -269393,-7115226 -269395,-7115214 -269400,-7115180 -269407,-7115151 -269407,-7115144 -269401,-7115126 -269389,-7115108 -269370,-7115101 -269343,-7115089 -269305,-7115065 -269292,-7115050 -269281,-7115034 -269265,-7115019 -269246,-7115003 -269214,-7114966 -269192,-7114943 -269183,-7114935 -269151,-7114914 -269138,-7114895 -269121,-7114885 -269115,-7114872 -269110,-7114856 -269099,-7114830 -269095,-7114823 -269069,-7114791 -269052,-7114781 -269004,-7114724 -268988,-7114705 -268973,-7114692 -268942,-7114675 -268914,-7114633 -268894,-7114623 -268886,-7114617 -268879,-7114611 -268852,-7114585 -268841,-7114583 -268830,-7114583 -268788,-7114543 -268750,-7114513 -268740,-7114504 -268726,-7114484 -268683,-7114470 -268667,-7114458 -268653,-7114453 -268637,-7114436 -268621,-7114425 -268610,-7114434 -268610,-7114441 -268594,-7114448 -268553,-7114455 -268516,-7114458 -268493,-7114468 -268483,-7114470 -268473,-7114470 -268443,-7114464 -268437,-7114464 -268423,-7114486 -268405,-7114501 -268390,-7114509 -268357,-7114414 -268226,-7114297 -268212,-7114280 -268151,-7114181 -268124,-7114133 -268075,-7114027 -268020,-7113900 -267950,-7113753 -267958,-7113747 -267893,-7113600 -267859,-7113525 -267804,-7113419 -267793,-7113382 -267779,-7113352 -267731,-7113283 -267723,-7113262 -267693,-7113223 -267616,-7113145 -267579,-7113092 -267520,-7113001 -267501,-7112968 -267494,-7112933 -267494,-7112909 -267506,-7112886 -267509,-7112881 -267515,-7112870 -267459,-7112820 -267427,-7112788 -267408,-7112759 -267381,-7112714 -267341,-7112657 -267329,-7112630 -267316,-7112619 -267310,-7112600 -267310,-7112561 -267301,-7112500 -267286,-7112437 -267273,-7112388 -267253,-7112309 -267238,-7112258 -267228,-7112219 -267217,-7112188 -267198,-7112151 -267183,-7112130 -267174,-7112122 -267149,-7112103 -267077,-7112035 -266982,-7111956 -266920,-7111906 -266888,-7111882 -266856,-7111859 -266753,-7111787 -266687,-7111744 -266661,-7111725 -266547,-7111640 -266445,-7111560 -266404,-7111530 -266365,-7111501 -266259,-7111425 -266241,-7111414 -266223,-7111404 -266187,-7111393 -266138,-7111382 -266093,-7111376 -265982,-7111369 -265870,-7111358 -265758,-7111353 -265606,-7111341 -265474,-7111332 -265460,-7111342 -265446,-7111349 -265400,-7111362 -265314,-7111392 -265291,-7111396 -265127,-7111403 -265084,-7111401 -265060,-7111396 -265039,-7111396 -264985,-7111375 -264944,-7111357 -264839,-7111314 -264646,-7111253 -264474,-7111194 -264319,-7111147 -264328,-7111102 -264354,-7110977 -264373,-7110851 -264387,-7110730 -264397,-7110612 -264414,-7110500 -264418,-7110465 -264429,-7110369 -264433,-7110253 -264445,-7110206 -264455,-7110168 -264462,-7110128 -264463,-7110033 -264471,-7109889 -264476,-7109732 -264491,-7109426 -264499,-7109222 -264496,-7109142 -264485,-7109011 -264487,-7108964 -264479,-7108917 -264469,-7108882 -264438,-7108786 -264412,-7108688 -264363,-7108531 -264366,-7108466 -264318,-7108306 -264296,-7108221 -264279,-7108165 -264239,-7108071 -264179,-7107917 -264130,-7107793 -264081,-7107658 -264054,-7107589 -264027,-7107519 -263985,-7107417 -263964,-7107355 -263909,-7107171 -263841,-7106975 -263768,-7106781 -263712,-7106649 -263637,-7106490 -263575,-7106366 -263522,-7106268 -263516,-7106270 -263392,-7106031 -263281,-7105840 -263148,-7105599 -263118,-7105544 -263040,-7105347 -263020,-7105310 -263007,-7105272 -263019,-7105161 -263030,-7105111 -263044,-7105070 -263114,-7104937 -263174,-7104813 -263210,-7104730 -263282,-7104602 -263297,-7104573 -263321,-7104528 -263366,-7104387 -263397,-7104269 -263417,-7104171 -263428,-7104097 -263441,-7104010 -263465,-7103872 -263485,-7103776 -263489,-7103743 -263499,-7103713 -263500,-7103698 -263501,-7103683 -263500,-7103640 -263490,-7103557 -263472,-7103555 -263457,-7103543 -263470,-7103462 -263492,-7103372 -263499,-7103219 -263573,-7103217 -263623,-7103214 -263674,-7103206 -263689,-7103204 -263698,-7103204 -263707,-7103205 -263722,-7103222 -263739,-7103226 -263804,-7103189 -263880,-7103154 -263903,-7103133 -263909,-7103126 -263914,-7103115 -263933,-7103069 -263965,-7102983 -263980,-7102951 -263994,-7102915 -263995,-7102885 -264023,-7102882 -264032,-7102852 -264067,-7102796 -264096,-7102736 -264099,-7102724 -264104,-7102699 -264106,-7102687 -264105,-7102650 -264095,-7102629 -264086,-7102604 -264074,-7102589 -264069,-7102579 -264069,-7102567 -264071,-7102552 -264058,-7102511 -264054,-7102501 -264021,-7102477 -264005,-7102371 -263984,-7102343 -263950,-7102240 -263926,-7102140 -263926,-7102122 -263924,-7102114 -263921,-7102106 -263905,-7102095 -263883,-7102047 -263876,-7102012 -263865,-7102005 -263845,-7101963 -263833,-7101941 -263835,-7101922 -263838,-7101909 -263827,-7101898 -263718,-7101899 -263693,-7101899 -263659,-7101897 -263689,-7101832 -263686,-7101814 -263694,-7101807 -263692,-7101781 -263703,-7101762 -263705,-7101749 -263715,-7101731 -263691,-7101701 -263643,-7101683 -263646,-7101643 -263641,-7101625 -263641,-7101602 -263642,-7101590 -263649,-7101560 -263652,-7101535 -263660,-7101485 -263670,-7101454 -263674,-7101435 -263666,-7101359 -263666,-7101345 -263675,-7101328 -263704,-7101293 -263714,-7101270 -263718,-7101251 -263760,-7101184 -263786,-7101166 -263795,-7101138 -263797,-7101119 -263806,-7101106 -263808,-7101098 -263819,-7101091 -263842,-7101028 -263851,-7101004 -263853,-7100986 -263845,-7100949 -263818,-7100908 -263810,-7100888 -263808,-7100876 -263813,-7100864 -263831,-7100849 -263841,-7100846 -263841,-7100834 -263838,-7100810 -263832,-7100785 -263838,-7100770 -263842,-7100754 -263856,-7100748 -263874,-7100744 -263881,-7100737 -263885,-7100726 -263887,-7100711 -263883,-7100695 -263878,-7100689 -263865,-7100685 -263863,-7100679 -263875,-7100674 -263882,-7100672 -263912,-7100667 -263918,-7100665 -263927,-7100658 -263927,-7100655 -263938,-7100652 -263932,-7100674 -263942,-7100676 -263941,-7100686 -263940,-7100724 -263929,-7100770 -264086,-7100750 -264113,-7100748 -264261,-7100743 -264527,-7100732 -264566,-7100606 -264646,-7100569 -264653,-7100566 -264682,-7100566 -264735,-7100558 -264797,-7100554 -264843,-7100555 -264886,-7100555 -264909,-7100561 -264957,-7100568 -264988,-7100578 -265018,-7100596 -265048,-7100609 -265064,-7100614 -265087,-7100619 -265104,-7100622 -265118,-7100623 -265137,-7100623 -265148,-7100622 -265206,-7100611 -265227,-7100609 -265274,-7100609 -265289,-7100610 -265320,-7100615 -265333,-7100618 -265349,-7100625 -265366,-7100633 -265405,-7100655 -265444,-7100681 -265461,-7100693 -265473,-7100703 -265484,-7100716 -265498,-7100733 -265507,-7100746 -265522,-7100773 -265602,-7100957 -265748,-7100936 -266220,-7100883 -266746,-7100820 -266858,-7100807 -266893,-7100800 -266926,-7100806 -266990,-7100752 -267025,-7100711 -267105,-7100556 -267150,-7100465 -267152,-7100462 -267182,-7100384 -267205,-7100304 -267225,-7100262 -267255,-7100215 -267195,-7100194 -267188,-7100173 -267169,-7100106 -267167,-7100091 -267168,-7100068 -267172,-7100025 -267175,-7099962 -267178,-7099945 -267189,-7099899 -267209,-7099832 -267219,-7099787 -267230,-7099710 -267236,-7099685 -267242,-7099660 -267258,-7099613 -267285,-7099610 -267291,-7099562 -267301,-7099378 -267308,-7099383 -267321,-7099391 -267331,-7099394 -267344,-7099394 -267358,-7099391 -267383,-7099383 -267405,-7099378 -267430,-7099340 -267508,-7099333 -267537,-7099336 -267561,-7099341 -267579,-7099346 -267589,-7099351 -267597,-7099356 -267608,-7099367 -267615,-7099378 -267620,-7099388 -267633,-7099430 -267638,-7099443 -267646,-7099453 -267661,-7099464 -267672,-7099469 -267718,-7099474 -267755,-7099478 -267765,-7099480 -267843,-7099494 -268037,-7099527 -268119,-7099537 -268179,-7099535 -268260,-7099527 -268471,-7099436 -268586,-7099417 -268706,-7099394 -268758,-7099355 -268873,-7099269 -268954,-7099218 -268974,-7099208 -269013,-7099204 -269041,-7099202 -269108,-7099197 -269182,-7099190 -269282,-7099186 -269385,-7099192 -269430,-7099200 -269520,-7099218 -269582,-7099234 -269766,-7099416 -269906,-7099555 -269988,-7099600 -270044,-7099614 -270043,-7099632 -270076,-7099687 -270100,-7099737 -270083,-7099780 -270073,-7099870 -270070,-7099927 -270063,-7099997 -270054,-7100051 -270048,-7100054 -270049,-7100090 -270051,-7100203 -270064,-7100367 -270064,-7100538 -270063,-7100725 -270052,-7100779 -270049,-7100804 -270066,-7100814 -270066,-7101075 -270070,-7101208 -270075,-7101277 -270077,-7101332 -270107,-7101377 -270197,-7101496 -270281,-7101612 -270347,-7101698 -270475,-7101854 -270543,-7101929 -270557,-7101948 -270570,-7101967 -270579,-7101980 -270590,-7102000 -270612,-7102046 -270666,-7102168 -270680,-7102221 -270685,-7102239 -270693,-7102257 -270714,-7102292 -270725,-7102316 -270735,-7102353 -270748,-7102409 -270754,-7102422 -270775,-7102461 -270780,-7102472 -270788,-7102493 -270801,-7102528 -270950,-7102729 -271033,-7102845 -271231,-7103135 -271273,-7103191 -271341,-7103264 -271477,-7103404 -271619,-7103249 -271796,-7103063 -271874,-7102979 -271921,-7102909 -271945,-7102862 -271957,-7102843 -271960,-7102819 -271960,-7102788 -271957,-7102724 -271962,-7102721 -272013,-7102692 -272039,-7102681 -272057,-7102675 -272070,-7102672 -272105,-7102667 -272205,-7102648 -272208,-7102595 -272245,-7102574 -272249,-7102582 -272285,-7102576 -272272,-7102629 -272289,-7102620 -272370,-7102541 -272374,-7102540 -272426,-7102539 -272465,-7102582 -272531,-7102629 -272572,-7102653 -272604,-7102658 -272628,-7102652 -272641,-7102646 -272672,-7102642 -272726,-7102626 -272698,-7102559 -272721,-7102548 -272762,-7102538 -272735,-7102457 -272687,-7102341 -272671,-7102242 -272636,-7102168 -272625,-7102137 -272607,-7102092 -272573,-7101904 -272577,-7101892 -272580,-7101883 -272579,-7101876 -272578,-7101872 -272586,-7101867 -272621,-7101866 -272640,-7101866 -272617,-7101812 -272605,-7101781 -272573,-7101705 -272571,-7101702 -272525,-7101664 -272510,-7101654 -272506,-7101652 -272514,-7101644 -272506,-7101637 -272527,-7101610 -272559,-7101603 -272564,-7101576 -272554,-7101573 -272590,-7101524 -272641,-7101453 -272648,-7101439 -272651,-7101426 -272654,-7101411 -272661,-7101263 -272664,-7101114 -272668,-7101074 -272692,-7101071 -272697,-7101025 -272696,-7101001 -272694,-7100971 -272663,-7100910 -272644,-7100869 -272603,-7100786 -272582,-7100758 -272553,-7100741 -272583,-7100701 -272621,-7100642 -272632,-7100624 -272649,-7100602 -272664,-7100545 -272671,-7100521 -272708,-7100373 -272763,-7100140 -272804,-7099979 -272806,-7099971 -272867,-7100010 -272904,-7100034 -272921,-7100044 -272968,-7100060 -272953,-7100019 -272944,-7099976 -273020,-7099985 -273085,-7100010 -273093,-7100011 -273099,-7100011 -273111,-7100008 -273118,-7100005 -273123,-7100000 -273127,-7099995 -273135,-7099980 -273142,-7099961 -273148,-7099952 -273156,-7099944 -273168,-7099934 -273182,-7099926 -273199,-7099918 -273205,-7099910 -273237,-7099867 -273280,-7099814 -273298,-7099805 -273313,-7099802 -273367,-7099806 -273385,-7099805 -273399,-7099802 -273411,-7099799 -273418,-7099796 -273425,-7099792 -273433,-7099786 -273440,-7099778 -273445,-7099769 -273450,-7099760 -273454,-7099750 -273458,-7099738 -273459,-7099730 -273466,-7099665 -273469,-7099652 -273481,-7099619 -273491,-7099590 -273495,-7099584 -273514,-7099562 -273521,-7099551 -273531,-7099529 -273534,-7099525 -273540,-7099521 -273557,-7099517 -273561,-7099515 -273570,-7099505 -273580,-7099487 -273589,-7099460 -273597,-7099443 -273601,-7099438 -273606,-7099434 -273636,-7099416 -273643,-7099408 -273655,-7099384 -273626,-7099360 -273584,-7099345 -273571,-7099330 -273562,-7099321 -273549,-7099311 -273538,-7099306 -273520,-7099305 -273511,-7099301 -273496,-7099286 -273465,-7099260 -273454,-7099255 -273432,-7099252 -273423,-7099247 -273408,-7099260 -273390,-7099273 -273370,-7099276 -273328,-7099290 -273318,-7099289 -273311,-7099286 -273306,-7099282 -273303,-7099277 -273303,-7099275 -273307,-7099263 -273306,-7099251 -273300,-7099239 -273294,-7099234 -273255,-7099234 -273244,-7099230 -273238,-7099225 -273235,-7099220 -273232,-7099215 -273229,-7099193 -273225,-7099185 -273219,-7099176 -273215,-7099171 -273207,-7099164 -273197,-7099162 -273166,-7099161 -273128,-7099165 -273116,-7099112 -273108,-7099097 -273101,-7099089 -273088,-7099079 -273084,-7099074 -273082,-7099070 -273081,-7099062 -273081,-7099053 -273083,-7099042 -273086,-7099036 -273091,-7099029 -273102,-7099015 -273112,-7099007 -273139,-7098996 -273216,-7098967 -273182,-7098920 -273153,-7098885 -273261,-7098799 -273291,-7098769 -273327,-7098775 -273370,-7098792 -273570,-7098699 -273638,-7098639 -273713,-7098581 -273720,-7098588 -273794,-7098532 -273812,-7098522 -273887,-7098585 -273902,-7098609 -273923,-7098635 -273963,-7098666 -273983,-7098690 -273993,-7098701 -274002,-7098699 -274054,-7098749 -274116,-7098804 -274204,-7098877 -274225,-7098890 -274228,-7098913 -274220,-7098927 -274231,-7098950 -274271,-7098911 -274313,-7098901 -274329,-7098913 -274369,-7098880 -274405,-7098849 -274431,-7098833 -274463,-7098824 -274486,-7098834 -274503,-7098839 -274516,-7098833 -274528,-7098827 -274540,-7098815 -274579,-7098798 -274594,-7098776 -274604,-7098757 -274615,-7098737 -274634,-7098696 -274654,-7098689 -274697,-7098674 -274724,-7098659 -274746,-7098648 -274766,-7098645 -274791,-7098633 -274841,-7098603 -274878,-7098576 -274953,-7098534 -274968,-7098525 -274995,-7098505 -275008,-7098494 -275026,-7098452 -275043,-7098422 -275066,-7098374 -275106,-7098280 -275129,-7098210 -275146,-7098165 -275158,-7098167 -275198,-7098080 -275292,-7097882 -275296,-7097873 -275379,-7097880 -275507,-7097893 -275639,-7097902 -275772,-7097923 -275868,-7097937 -275982,-7097958 -276044,-7097996 -276226,-7098096 -276319,-7098155 -276498,-7098262 -276607,-7098331 -276657,-7098365 -276852,-7098470 -277032,-7098559 -277189,-7098644 -277309,-7098706 -277343,-7098724 -277565,-7098834 -277722,-7098917 -277868,-7098985 -277959,-7099030 -278053,-7099068 -278239,-7099146 -278371,-7099197 -278438,-7099224 -278506,-7099253 -278732,-7099350 -278934,-7099431 -279088,-7099491 -279141,-7099513 -279181,-7099529 -279215,-7099545 -279247,-7099560 -279314,-7099596 -279364,-7099630 -279400,-7099659 -279425,-7099679 -279457,-7099708 -279458,-7099709 -279499,-7099756 -279533,-7099797 -279559,-7099827 -279593,-7099862 -279687,-7099973 -279787,-7100085 -279819,-7100121 -279900,-7100205 -279948,-7100248 -279950,-7100249 -279976,-7100258 -280014,-7100275 -280069,-7100294 -280152,-7100341 -280339,-7100444 -280412,-7100469 -280531,-7100482 -280542,-7100557 -280554,-7100616 -280540,-7100622 -280544,-7100647 -280554,-7100685 -280557,-7100721 -280576,-7100768 -280595,-7100820 -280604,-7100867 -280630,-7100935 -280651,-7101009 -280676,-7101108 -280695,-7101178 -280696,-7101180 -280703,-7101238 -280751,-7101368 -280810,-7101574 -280830,-7101621 -280838,-7101654 -280843,-7101710 -280902,-7101931 -280943,-7102100 -280963,-7102232 -280987,-7102330 -281017,-7102471 -281029,-7102474 -281034,-7102510 -281034,-7102529 -281033,-7102550 -281031,-7102568 -281029,-7102576 -280986,-7102722 -280972,-7102756 -280933,-7102823 -280913,-7102854 -280836,-7102960 -280822,-7102979 -280795,-7103011 -280774,-7103040 -280763,-7103060 -280750,-7103084 -280738,-7103109 -280734,-7103120 -280720,-7103161 -280691,-7103289 -280710,-7103422 -280728,-7103533 -280749,-7103662 -280777,-7103805 -280853,-7104093 -280886,-7104209 -280918,-7104295 -280921,-7104303 -280942,-7104354 -280957,-7104381 -281006,-7104460 -281032,-7104493 -281088,-7104619 -281098,-7104750 -281114,-7104843 -281154,-7104921 -281204,-7105025 -281261,-7105105 -281399,-7105218 -281420,-7105233 -281442,-7105251 -281455,-7105264 -281465,-7105278 -281471,-7105289 -281478,-7105305 -281484,-7105322 -281489,-7105338 -281492,-7105354 -281498,-7105379 -281496,-7105423 -281488,-7105494 -281482,-7105585 -281481,-7105589 -281475,-7105646 -281487,-7105788 -281494,-7105937 -281500,-7105985 -281506,-7106019 -281513,-7106050 -281519,-7106078 -281532,-7106119 -281574,-7106221 -281620,-7106338 -281666,-7106436 -281765,-7106637 -281836,-7106765 -281859,-7106794 -281859,-7106835 -281869,-7106856 -281890,-7106933 -281899,-7106946 -281768,-7107089 -281739,-7107120 -281688,-7107177 -281643,-7107224 -281620,-7107251 -281594,-7107287 -281582,-7107307 -281559,-7107347 -281544,-7107379 -281483,-7107533 -281467,-7107646 -281465,-7107688 -281459,-7107735 -281453,-7107793 -281440,-7107819 -281425,-7107838 -281413,-7107861 -281390,-7107916 -281382,-7107941 -281377,-7107951 -281369,-7107959 -281352,-7107971 -281346,-7107977 -281333,-7107989 -281322,-7108002 -281311,-7108017 -281269,-7108084 -281245,-7108127 -281235,-7108170 -281233,-7108188 -281231,-7108231 -281225,-7108310 -281221,-7108404 -281210,-7108448 -281215,-7108469 -281218,-7108576 -281210,-7108598 -281185,-7108698 -281174,-7108728 -281167,-7108743 -281157,-7108761 -281142,-7108783 -281128,-7108802 -281113,-7108817 -281097,-7108832 -281088,-7108839 -281035,-7108861 -281011,-7108857 -280990,-7108856 -280923,-7108863 -280885,-7108876 -280824,-7108890 -280779,-7108895 -280665,-7108888 -280627,-7108886 -280584,-7108909 -280556,-7108940 -280511,-7108997 -280432,-7109085 -280439,-7109134 -280440,-7109186 -280424,-7109195 -280408,-7109224 -280378,-7109249 -280371,-7109255 -280355,-7109291 -280340,-7109342 -280344,-7109368 -280350,-7109396 -280351,-7109404 -280352,-7109412 -280352,-7109478 -280348,-7109490 -280330,-7109515 -280315,-7109542 -280312,-7109559 -280312,-7109609 -280306,-7109661 -280296,-7109693 -280293,-7109709 -280295,-7109759 -280276,-7109817 -280279,-7109831 -280281,-7109844 -280277,-7110004 -280282,-7110048 -280295,-7110054 -280300,-7110058 -280304,-7110063 -280310,-7110074 -280314,-7110086 -280315,-7110097 -280316,-7110146 -280322,-7110159 -280344,-7110188 -280352,-7110201 -280354,-7110236 -280352,-7110302 -280350,-7110309 -280334,-7110329 -280328,-7110338 -280330,-7110363 -280335,-7110390 -280335,-7110400 -280333,-7110416 -280331,-7110432 -280316,-7110438 -280294,-7110538 -280291,-7110573 -280281,-7110587 -280265,-7110636 -280236,-7110696 -280235,-7110705 -280235,-7110712 -280236,-7110719 -280241,-7110732 -280256,-7110774 -280262,-7110786 -280273,-7110803 -280274,-7110811 -280274,-7110818 -280274,-7110827 -280272,-7110836 -280266,-7110854 -280263,-7110870 -280260,-7110887 -280259,-7110902 -280262,-7110922 -280270,-7110948 -280287,-7110993 -280291,-7111008 -280295,-7111023 -280294,-7111037 -280288,-7111052 -280281,-7111064 -280253,-7111093 -280240,-7111098 -280220,-7111129 -280205,-7111146 -280201,-7111158 -280190,-7111185 -280187,-7111195 -280186,-7111208 -280185,-7111221 -280186,-7111234 -280189,-7111246 -280204,-7111302 -280202,-7111311 -280193,-7111334 -280179,-7111358 -280171,-7111372 -280165,-7111388 -280162,-7111397 -280154,-7111434 -280146,-7111452 -280145,-7111472 -280137,-7111483 -280125,-7111495 -280119,-7111497 -280095,-7111499 -280090,-7111505 -280085,-7111511 -280079,-7111527 -280077,-7111542 -280068,-7111575 -280058,-7111593 -280031,-7111616 -280016,-7111626 -280006,-7111666 -280011,-7111687 -280019,-7111710 -280028,-7111756 -280032,-7111762 -280051,-7111779 -280076,-7111798 -280078,-7111805 -280080,-7111819 -280080,-7111835 -280078,-7111852 -280073,-7111872 -280069,-7111881 -280058,-7111899 -280042,-7111919 -280010,-7111962 -280010,-7111976 -280012,-7111984 -280014,-7111991 -280034,-7112026 -280041,-7112046 -280043,-7112111 -280046,-7112115 -280054,-7112126 -280078,-7112141 -280116,-7112161 -280123,-7112199 -280130,-7112208 -280155,-7112231 -280183,-7112252 -280204,-7112256 -280238,-7112260 -280247,-7112267 -280248,-7112279 -280244,-7112302 -280243,-7112320 -280246,-7112328 -280254,-7112342 -280258,-7112348 -280263,-7112351 -280268,-7112354 -280280,-7112357 -280286,-7112355 -280292,-7112353 -280331,-7112326 -280343,-7112323 -280354,-7112325 -280370,-7112336 -280388,-7112352 -280410,-7112384 -280431,-7112386 -280455,-7112406 -280486,-7112438 -280520,-7112475 -280531,-7112491 -280536,-7112496 -280542,-7112500 -280548,-7112503 -280554,-7112505 -280583,-7112509 -280640,-7112509 -280654,-7112510 -280653,-7112573 -280655,-7112589 -280662,-7112605 -280676,-7112614 -280702,-7112615 -280732,-7112610 -280766,-7112610 -280787,-7112612 -280828,-7112643 -280846,-7112678 -280859,-7112683 -280884,-7112691 -280895,-7112694 -280901,-7112694 -280908,-7112694 -280985,-7112666 -280998,-7112665 -281031,-7112657 -281043,-7112651 -281094,-7112602 -281114,-7112596 -281143,-7112599 -281172,-7112609 -281193,-7112612 -281217,-7112613 -281244,-7112608 -281301,-7112654 -281310,-7112659 -281332,-7112660 -281378,-7112655 -281417,-7112700 -281434,-7112713 -281467,-7112723 -281491,-7112735 -281533,-7112795 -281559,-7112792 -281637,-7112782 -281668,-7112804 -281694,-7112837 -281710,-7112841 -281733,-7112872 -281776,-7112873 -281811,-7112870 -281853,-7112874 -281872,-7112917 -281889,-7112951 -281926,-7113027 -281940,-7113047 -281962,-7113063 -282001,-7113086 -282011,-7113090 -282019,-7113093 -282028,-7113093 -282036,-7113092 -282050,-7113087 -282062,-7113121 -282069,-7113135 -282077,-7113148 -282088,-7113157 -282099,-7113164 -282110,-7113168 -282142,-7113177 -282169,-7113191 -282199,-7113193 -282227,-7113217 -282223,-7113228 -282204,-7113269 -282190,-7113281 -282186,-7113286 -282183,-7113301 -282188,-7113320 -282215,-7113321 -282223,-7113326 -282232,-7113331 -282261,-7113357 -282308,-7113380 -282320,-7113390 -282332,-7113399 -282352,-7113423 -282409,-7113541 -282405,-7113577 -282407,-7113582 -282415,-7113597 -282443,-7113633 -282453,-7113692 -282460,-7113724 -282469,-7113745 -282501,-7113780 -282572,-7113851 -282649,-7113916 -282660,-7113921 -282682,-7113927 -282695,-7113933 -282705,-7113938 -282707,-7113939 -282728,-7113955 -282738,-7113983 -282736,-7114000 -282733,-7114020 -282733,-7114032 -282734,-7114045 -282741,-7114076 -282748,-7114124 -282759,-7114162 -282779,-7114211 -282796,-7114237 -282812,-7114247 -282853,-7114279 -282856,-7114285 -282858,-7114291 -282860,-7114377 -282866,-7114392 -282881,-7114403 -282909,-7114413 -282918,-7114422 -282928,-7114432 -282957,-7114498 -282997,-7114518 -282978,-7114576 -282995,-7114611 -283039,-7114687 -283059,-7114762 -283060,-7114790 -283052,-7114815 -283029,-7114870 -283021,-7114883 -283004,-7114904 -282996,-7114914 -282979,-7114930 -282967,-7114945 -282950,-7114973 -282941,-7114989 -282933,-7115006 -282926,-7115029 -282927,-7115042 -282928,-7115055 -282931,-7115065 -282951,-7115118 -282958,-7115138 -282972,-7115211 -282976,-7115218 -282979,-7115224 -283000,-7115244 -283019,-7115266 -283046,-7115304 -283066,-7115325 -283103,-7115357 -283113,-7115375 -283114,-7115404 -283093,-7115453 -283057,-7115493 -283044,-7115504 -283028,-7115529 -283001,-7115563 -282978,-7115578 -282956,-7115574 -282936,-7115614 -282921,-7115614 -282903,-7115605 -282891,-7115636 -282875,-7115633 -282829,-7115623 -282796,-7115633 -282783,-7115641 -282770,-7115650 -282759,-7115668 -282763,-7115693 -282768,-7115702 -282774,-7115711 -282799,-7115728 -282823,-7115750 -282847,-7115784 -282852,-7115811 -282847,-7115826 -282824,-7115855 -282817,-7115865 -282808,-7115897 -282805,-7115906 -282769,-7115945 -282701,-7115989 -282652,-7116014 -282658,-7116038 -282637,-7116058 -282641,-7116146 -282654,-7116164 -282670,-7116195 -282683,-7116240 -282689,-7116281 -282692,-7116301 -282695,-7116328 -282701,-7116381 -282700,-7116445 -282704,-7116493 -282711,-7116523 -282714,-7116556 -282726,-7116591 -282730,-7116608 -282739,-7116657 -282740,-7116682 -282737,-7116695 -282724,-7116737 -282713,-7116781 -282707,-7116824 -282706,-7116858 -282717,-7116895 -282740,-7116951 -282763,-7116957 -282779,-7116962 -282807,-7116971 -282817,-7116976 -282834,-7116992 -282846,-7117011 -282863,-7117030 -282886,-7117049 -282894,-7117058 -282902,-7117068 -282906,-7117079 -282910,-7117089 -282912,-7117106 -282906,-7117122 -282890,-7117138 -282864,-7117168 -282864,-7117181 -282876,-7117210 -282859,-7117223 -282840,-7117242 -282890,-7117316 -282919,-7117329 -282925,-7117336 -282930,-7117342 -282939,-7117348 -282945,-7117351 -282958,-7117347 -282964,-7117342 -282967,-7117340 -282977,-7117334 -282980,-7117333 -282982,-7117334 -282995,-7117341 -283007,-7117356 -283033,-7117401 -283038,-7117434 -283074,-7117475 -283106,-7117508 -283171,-7117553 -283214,-7117523 -283256,-7117501 -283325,-7117539 -283383,-7117542 -283456,-7117539 -283466,-7117546 -283485,-7117562 -283495,-7117571 -283516,-7117596 -283538,-7117630 -283550,-7117655 -283561,-7117680 -283570,-7117721 -283567,-7117765 -283557,-7117784 -283517,-7117864 -283495,-7117918 -283486,-7117965 -283486,-7118016 -283458,-7118132 -283450,-7118126 -283442,-7118182 -283438,-7118226 -283454,-7118241 -283482,-7118254 -283535,-7118295 -283545,-7118295 -283575,-7118315 -283640,-7118378 -283673,-7118404 -283684,-7118411 -283731,-7118436 -283776,-7118459 -283947,-7118536 -283974,-7118535 -283991,-7118528 -284069,-7118491 -284127,-7118459 -284193,-7118411 -284324,-7118320 -284342,-7118345 -284363,-7118331 -284397,-7118312 -284431,-7118296 -284436,-7118295 -284441,-7118296 -284459,-7118317 -284517,-7118417 -284532,-7118444 -284556,-7118504 -284580,-7118559 -284602,-7118619 -284617,-7118668 -284631,-7118703 -284620,-7118721 -284574,-7118802 -284556,-7118831 -284530,-7118893 -284522,-7118915 -284519,-7118933 -284517,-7118952 -284516,-7118997 -284519,-7119016 -284520,-7119021 -284529,-7119066 -284546,-7119107 -284553,-7119129 -284559,-7119149 -284568,-7119185 -284574,-7119235 -284586,-7119296 -284592,-7119342 -284594,-7119385 -284590,-7119452 -284591,-7119512 -284583,-7119582 -284587,-7119620 -284588,-7119624 -284646,-7119653 -284652,-7119679 -284653,-7119704 -284646,-7119763 -284644,-7119780 -284632,-7119848 -284626,-7119903 -284636,-7119948 -284661,-7120054 -284668,-7120064 -284675,-7120068 -284683,-7120072 -284704,-7120075 -284705,-7120085 -284741,-7120090 -284805,-7120104 -284806,-7120105 -284835,-7120116 -284855,-7120127 -284875,-7120138 -284906,-7120158 -284913,-7120173 -284957,-7120315 -284996,-7120417 -285026,-7120462 -285032,-7120500 -285037,-7120551 -285040,-7120570 -285044,-7120589 -285059,-7120650 -285101,-7120651 -285152,-7120661 -285156,-7120665 -285184,-7120693 -285207,-7120741 -285219,-7120779 -285241,-7120812 -285271,-7120840 -285305,-7120859 -285340,-7120882 -285380,-7120930 -285386,-7120965 -285381,-7120973 -285353,-7121013 -285340,-7121042 -285367,-7121149 -285373,-7121203 -285371,-7121213 -285369,-7121222 -285358,-7121249 -285320,-7121305 -285296,-7121337 -285296,-7121358 -285303,-7121387 -285345,-7121409 -285355,-7121415 -285368,-7121431 -285432,-7121461 -285452,-7121472 -285488,-7121531 -285490,-7121563 -285493,-7121589 -285502,-7121640 -285504,-7121659 -285508,-7121715 -285506,-7121741 -285496,-7121754 -285486,-7121767 -285452,-7121781 -285421,-7121789 -285356,-7121820 -285218,-7121895 -285205,-7121907 -285180,-7121944 -285172,-7121960 -285169,-7121968 -285164,-7121990 -285165,-7122012 -285169,-7122041 -285176,-7122062 -285195,-7122102 -285209,-7122117 -285211,-7122122 -285223,-7122142 -285252,-7122206 -285252,-7122219 -285251,-7122233 -285247,-7122249 -285243,-7122265 -285236,-7122278 -285232,-7122297 -285200,-7122352 -285198,-7122355 -285154,-7122356 -285156,-7122367 -285142,-7122365 -285134,-7122369 -285088,-7122398 -285071,-7122405 -285058,-7122408 -285053,-7122411 -285048,-7122414 -285027,-7122438 -285017,-7122452 -285012,-7122457 -285007,-7122460 -284994,-7122467 -284987,-7122470 -284981,-7122471 -284937,-7122466 -284929,-7122466 -284907,-7122481 -284885,-7122490 -284882,-7122500 -284874,-7122518 -284867,-7122542 -284856,-7122553 -284841,-7122560 -284836,-7122571 -284829,-7122594 -284825,-7122640 -284827,-7122656 -284827,-7122664 -284825,-7122672 -284822,-7122680 -284815,-7122687 -284793,-7122696 -284787,-7122703 -284787,-7122711 -284790,-7122723 -284789,-7122733 -284788,-7122743 -284784,-7122766 -284780,-7122771 -284770,-7122778 -284764,-7122781 -284757,-7122782 -284749,-7122782 -284735,-7122780 -284716,-7122772 -284688,-7122755 -284682,-7122753 -284674,-7122751 -284664,-7122750 -284643,-7122749 -284628,-7122749 -284624,-7122750 -284613,-7122760 -284590,-7122788 -284584,-7122793 -284575,-7122793 -284568,-7122777 -284560,-7122771 -284528,-7122789 -284520,-7122806 -284498,-7122846 -284492,-7122859 -284471,-7122906 -284456,-7122923 -284449,-7122930 -284441,-7122936 -284434,-7122938 -284428,-7122938 -284417,-7122936 -284407,-7122930 -284401,-7122924 -284396,-7122918 -284393,-7122910 -284390,-7122901 -284390,-7122882 -284383,-7122874 -284369,-7122868 -284352,-7122867 -284324,-7122881 -284308,-7122895 -284299,-7122937 -284284,-7122981 -284276,-7123013 -284283,-7123020 -284287,-7123035 -284271,-7123049 -284248,-7123078 -284198,-7123128 -284186,-7123141 -284174,-7123155 -284159,-7123179 -284156,-7123195 -284147,-7123268 -284161,-7123307 -284179,-7123348 -284144,-7123428 -284119,-7123458 -284109,-7123476 -284100,-7123497 -284088,-7123518 -284083,-7123538 -284082,-7123561 -284083,-7123575 -284093,-7123664 -284101,-7123693 -284100,-7123710 -284097,-7123739 -284096,-7123748 -284062,-7123784 -284056,-7123791 -284048,-7123807 -284047,-7123816 -284046,-7123825 -284048,-7123842 -284054,-7123855 -284063,-7123862 -284103,-7123892 -284105,-7123906 -284105,-7123925 -284101,-7123941 -284080,-7123981 -284078,-7124024 -284071,-7124045 -284023,-7124115 -284009,-7124153 -283997,-7124176 -283986,-7124195 -283951,-7124231 -283913,-7124267 -283887,-7124281 -283867,-7124289 -283853,-7124293 -283843,-7124299 -283843,-7124310 -283855,-7124333 -283861,-7124350 -283859,-7124364 -283852,-7124381 -283845,-7124390 -283833,-7124404 -283815,-7124418 -283806,-7124430 -283802,-7124440 -283786,-7124466 -283781,-7124472 -283771,-7124481 -283765,-7124485 -283742,-7124497 -283732,-7124501 -283725,-7124506 -283687,-7124542 -283672,-7124559 -283653,-7124575 -283634,-7124592 -283608,-7124607 -283591,-7124611 -283548,-7124609 -283522,-7124604 -283514,-7124596 -283506,-7124596 -283505,-7124596 -283494,-7124622 -283483,-7124638 -283478,-7124623 -283476,-7124602 -283471,-7124596 -283467,-7124597 -283460,-7124610 -283447,-7124649 -283443,-7124663 -283435,-7124680 -283419,-7124702 -283412,-7124709 -283396,-7124723 -283388,-7124725 -283380,-7124727 -283359,-7124724 -283352,-7124721 -283338,-7124712 -283302,-7124685 -283291,-7124683 -283277,-7124684 -283269,-7124686 -283235,-7124700 -283180,-7124691 -283169,-7124701 -283149,-7124710 -283114,-7124729 -283081,-7124741 -283052,-7124753 -283022,-7124762 -283005,-7124753 -282979,-7124744 -282971,-7124743 -282958,-7124745 -282947,-7124755 -282936,-7124772 -282917,-7124769 -282900,-7124764 -282890,-7124763 -282879,-7124762 -282830,-7124767 -282814,-7124762 -282809,-7124774 -282798,-7124779 -282783,-7124788 -282742,-7124819 -282719,-7124817 -282691,-7124823 -282674,-7124818 -282675,-7124781 -282673,-7124779 -282663,-7124772 -282648,-7124772 -282633,-7124782 -282621,-7124790 -282624,-7124814 -282601,-7124816 -282579,-7124815 -282549,-7124811 -282400,-7124765 -282369,-7124751 -282366,-7124749 -282363,-7124693 -282361,-7124680 -282357,-7124670 -282344,-7124661 -282331,-7124659 -282305,-7124658 -282291,-7124663 -282277,-7124661 -282264,-7124659 -282254,-7124655 -282232,-7124644 -282221,-7124642 -282211,-7124644 -282193,-7124665 -282185,-7124666 -282163,-7124647 -282160,-7124632 -282138,-7124610 -282118,-7124610 -282101,-7124611 -282071,-7124613 -282031,-7124623 -281983,-7124623 -281970,-7124616 -281950,-7124609 -281923,-7124603 -281899,-7124586 -281896,-7124614 -281891,-7124661 -281858,-7124694 -281854,-7124701 -281846,-7124725 -281838,-7124737 -281827,-7124746 -281805,-7124757 -281794,-7124758 -281775,-7124759 -281731,-7124778 -281692,-7124777 -281645,-7124793 -281617,-7124808 -281609,-7124802 -281603,-7124802 -281585,-7124803 -281540,-7124809 -281534,-7124809 -281523,-7124807 -281519,-7124805 -281513,-7124797 -281502,-7124734 -281477,-7124730 -281463,-7124752 -281450,-7124751 -281436,-7124750 -281403,-7124727 -281390,-7124722 -281386,-7124723 -281381,-7124725 -281377,-7124729 -281368,-7124740 -281355,-7124761 -281350,-7124766 -281339,-7124774 -281329,-7124779 -281323,-7124781 -281308,-7124782 -281286,-7124785 -281266,-7124785 -281224,-7124781 -281198,-7124771 -281191,-7124769 -281177,-7124768 -281164,-7124770 -281158,-7124772 -281146,-7124779 -281133,-7124791 -281097,-7124819 -281050,-7124862 -281028,-7124884 -281020,-7124890 -281002,-7124900 -280993,-7124916 -280960,-7124918 -280956,-7124912 -280948,-7124896 -280935,-7124886 -280932,-7124886 -280915,-7124893 -280886,-7124910 -280885,-7124914 -280882,-7124949 -280879,-7124962 -280856,-7124969 -280832,-7124992 -280813,-7125002 -280810,-7125007 -280807,-7125017 -280803,-7125034 -280797,-7125048 -280789,-7125057 -280782,-7125061 -280732,-7125084 -280724,-7125088 -280684,-7125117 -280647,-7125150 -280643,-7125158 -280637,-7125173 -280635,-7125182 -280632,-7125201 -280610,-7125248 -280576,-7125262 -280552,-7125275 -280520,-7125275 -280507,-7125273 -280503,-7125277 -280498,-7125287 -280493,-7125299 -280491,-7125307 -280489,-7125338 -280467,-7125411 -280462,-7125447 -280458,-7125457 -280432,-7125507 -280427,-7125516 -280415,-7125529 -280404,-7125538 -280386,-7125563 -280379,-7125570 -280373,-7125574 -280360,-7125579 -280346,-7125581 -280339,-7125582 -280328,-7125579 -280314,-7125579 -280279,-7125595 -280268,-7125604 -280262,-7125607 -280256,-7125609 -280221,-7125615 -280198,-7125625 -280181,-7125623 -280160,-7125634 -280157,-7125637 -280146,-7125648 -280144,-7125650 -280122,-7125651 -280117,-7125652 -280107,-7125655 -280100,-7125661 -280091,-7125670 -280073,-7125697 -280068,-7125700 -280047,-7125711 -280035,-7125721 -280024,-7125739 -280020,-7125750 -280017,-7125762 -280017,-7125781 -280012,-7125781 -280000,-7125787 -279993,-7125823 -279995,-7125828 -280020,-7125858 -280025,-7125890 -280014,-7125919 -280010,-7125926 -280005,-7125932 -279992,-7125934 -279983,-7125943 -279981,-7125966 -279950,-7126001 -279919,-7126020 -279853,-7126054 -279819,-7126053 -279781,-7126066 -279743,-7126075 -279721,-7126059 -279696,-7126064 -279680,-7126076 -279666,-7126079 -279611,-7126088 -279551,-7126100 -279537,-7126123 -279513,-7126173 -279493,-7126209 -279469,-7126262 -279455,-7126304 -279436,-7126338 -279425,-7126390 -279412,-7126427 -279395,-7126483 -279377,-7126549 -279346,-7126569 -279320,-7126574 -279299,-7126584 -279253,-7126599 -279256,-7126611 -279196,-7126630 -279151,-7126641 -279120,-7126642 -279069,-7126645 -278994,-7126658 -278850,-7126659 -278820,-7126663 -278771,-7126639 -278706,-7126611 -278628,-7126565 -278561,-7126533 -278520,-7126509 -278497,-7126502 -278414,-7126489 -278405,-7126483 -278375,-7126467 -278327,-7126472 -278273,-7126462 -278225,-7126456 -278182,-7126456 -278136,-7126467 -278015,-7126525 -277920,-7126597 -277900,-7126616 -277886,-7126626 -277868,-7126637 -277835,-7126655 -277821,-7126661 -277790,-7126670 -277775,-7126678 -277763,-7126689 -277757,-7126696 -277751,-7126705 -277748,-7126711 -277735,-7126740 -277715,-7126746 -277709,-7126748 -277656,-7126756 -277597,-7126774 -277562,-7126795 -277537,-7126816 -277457,-7126865 -277402,-7126881 -277376,-7126890 -277350,-7126900 -277320,-7126914 -277270,-7126944 -277197,-7127003 -277085,-7127088 -277055,-7127093 -276985,-7127129 -276853,-7127193 -276857,-7127212 -276837,-7127219 -276817,-7127243 -276735,-7127262 -276698,-7127249 -276671,-7127267 -276626,-7127280 -276600,-7127248 -276579,-7127255 -276555,-7127243 -276535,-7127277 -276513,-7127294 -276390,-7127343 -276315,-7127377 -276258,-7127405 -276214,-7127431 -276164,-7127468 -276157,-7127510 -276154,-7127541 -276139,-7127585 -276137,-7127589 -276131,-7127610 -276125,-7127631 -276113,-7127677 -276102,-7127725 -276081,-7127823 -276092,-7127838 -276052,-7127875 -276035,-7127932 -276005,-7128007 -275948,-7128160 -275927,-7128230 -275913,-7128293 -275913,-7128334 -275909,-7128361 -275890,-7128428 -275862,-7128503 -275862,-7128532 -275844,-7128589 -275816,-7128638 -275799,-7128659 -275780,-7128665 -275738,-7128688 -275735,-7128739 -275748,-7128797 -275673,-7128773 -275679,-7128743 -275629,-7128710 -275631,-7128699 -275608,-7128683 -275592,-7128692 -275581,-7128714 -275543,-7128688 -275537,-7128664 -275512,-7128645 -275480,-7128626 -275451,-7128605 -275397,-7128586 -275371,-7128581 -275338,-7128589 -275290,-7128611 -275264,-7128626 -275250,-7128640 -275221,-7128670 -275207,-7128686 -275177,-7128742 -275145,-7128780 -275123,-7128799 -275095,-7128817 -275080,-7128825 -275036,-7128845 -275033,-7128875 -275024,-7128891 -275001,-7128900 -274980,-7128919 -274958,-7128926 -274927,-7128938 -274891,-7128939 -274859,-7128943 -274829,-7128930 -274791,-7128908" stroke="#003087" stroke-width="53" /></ns0:svg>    <rect x="20" y="50"  width="250" height="25"  rx="0"  fill="#003087" fill-opacity="0.8" />    <text x="145" y="70" text-anchor="middle" font-family="Frutiger" font-weight="bold" font-size="20" fill="white">Blackburn with Darwen</text>    <rect x="35" y="195" width="220" height="160" rx="15" fill="#41B6E6"/>    <g font-family="Frutiger" font-size="15" fill="white">        <g> <text x="45" y="218">Self-harm</text> <text x="245" y="218" text-anchor="end">40</text> </g>        <g> <text x="45" y="243">SEN</text> <text x="245" y="243" text-anchor="end">44</text> </g>        <g> <text x="45" y="268">Difficulties</text> <text x="245" y="268" text-anchor="end">76</text> </g>        <g> <text x="45" y="293">Child Carer</text> <text x="245" y="293" text-anchor="end">1</text> </g>        <g> <text x="45" y="318">Drinkers</text> <text x="245" y="318" text-anchor="end">33</text> </g>        <g> <text x="45" y="343">Safeguarding £</text> <text x="245" y="343" text-anchor="end">21</text> </g>    </g></svg>