<?xml version="1.0" standalone="no"?>
<!DOCTYPE svg PUBLIC "-//W3C//DTD SVG 1.1//EN"
"http://www.w3.org/Graphics/SVG/1.1/DTD/svg11.dtd">
<svg height="1800" version="1.1" width="1800" xmlns="http://www.w3.org/2000/svg"><defs><style type="text/css">@font-face {font-family: 'Frutiger';font-style: normal;font-weight: normal;src: local('Frutiger'), url('../fonts/Frutiger.woff') format('woff');}@font-face {font-family: 'Frutiger Bold';font-style: normal;font-weight: normal;src: local('Frutiger Bold'), url('../fonts/Frutiger_bold.woff') format('woff');}        </style>    </defs>    <rect x="20" y="20"  width="250" height="350" rx="15" fill="#009639" />    <rect x="35" y="35"  width="220" height="145" rx="15" fill="#E8EDEE" /><ns0:svg xmlns:ns0="http://www.w3.org/2000/svg" height="115" version="1.1" viewBox="-27278 -6602276 25497 16601" width="220" x="35" y="50"><ns0:polygon fill="#006747" points=" -18463,-6602270 -18521,-6601954 -18564,-6601764 -18615,-6601500 -18632,-6601442 -18651,-6601372 -18697,-6601214 -18720,-6601080 -18722,-6601047 -18721,-6600985 -18689,-6600979 -18683,-6600980 -18677,-6600979 -18672,-6600977 -18668,-6600973 -18664,-6600968 -18661,-6600961 -18660,-6600950 -18660,-6600941 -18663,-6600928 -18668,-6600918 -18683,-6600833 -18698,-6600761 -18702,-6600733 -18710,-6600694 -18720,-6600658 -18725,-6600645 -18740,-6600614 -18745,-6600596 -18745,-6600583 -18742,-6600545 -18743,-6600529 -18750,-6600470 -18753,-6600432 -18751,-6600409 -18749,-6600397 -18746,-6600386 -18744,-6600380 -18731,-6600355 -18723,-6600333 -18721,-6600324 -18721,-6600315 -18722,-6600298 -18724,-6600258 -18722,-6600246 -18718,-6600233 -18715,-6600226 -18651,-6600262 -18580,-6600261 -18526,-6600254 -18463,-6600249 -18370,-6600244 -18302,-6600245 -18227,-6600248 -18105,-6600261 -18076,-6600265 -18057,-6600267 -18038,-6600267 -18017,-6600267 -17996,-6600264 -17979,-6600261 -17963,-6600256 -17948,-6600251 -17904,-6600229 -17869,-6600207 -17856,-6600201 -17818,-6600189 -17811,-6600186 -17805,-6600182 -17783,-6600163 -17776,-6600158 -17768,-6600154 -17759,-6600151 -17748,-6600147 -17668,-6600128 -17645,-6600125 -17581,-6600122 -17549,-6600117 -17478,-6600105 -17443,-6600097 -17305,-6600055 -17276,-6600049 -17259,-6600047 -17237,-6600046 -17158,-6600051 -17118,-6600055 -17081,-6600062 -17028,-6600070 -17019,-6600242 -17013,-6600422 -17011,-6600550 -17037,-6600739 -17043,-6600803 -17049,-6600865 -17051,-6600959 -17046,-6600981 -17041,-6600992 -17036,-6601002 -17026,-6601014 -17016,-6601026 -17002,-6601037 -16988,-6601048 -16979,-6601055 -16961,-6601064 -16893,-6601093 -16805,-6601121 -16741,-6601139 -16660,-6601162 -16474,-6601218 -16242,-6601281 -16098,-6601326 -16057,-6601314 -15975,-6601259 -15866,-6601182 -15817,-6601121 -15816,-6601114 -15808,-6601055 -15807,-6601023 -15809,-6600996 -15812,-6600979 -15816,-6600959 -15819,-6600949 -15852,-6600851 -15821,-6600853 -15791,-6600857 -15486,-6600884 -15266,-6600902 -15263,-6600904 -15249,-6600924 -15156,-6601071 -15029,-6601265 -15058,-6601127 -15087,-6601001 -15091,-6600830 -15092,-6600694 -15097,-6600502 -15102,-6600438 -15114,-6600336 -15119,-6600226 -15121,-6600125 -15120,-6600079 -15106,-6599987 -15083,-6599869 -15059,-6599760 -14866,-6599797 -14642,-6599839 -14625,-6599842 -14452,-6599867 -14416,-6599869 -14388,-6599868 -14357,-6599866 -14334,-6599863 -14315,-6599859 -14302,-6599854 -14282,-6599843 -14211,-6599795 -14180,-6599781 -14163,-6599774 -14142,-6599768 -14120,-6599763 -14102,-6599760 -13852,-6599739 -13826,-6599737 -13830,-6599677 -13837,-6599421 -13731,-6599416 -13607,-6599410 -13573,-6599102 -13558,-6598935 -13368,-6598958 -13109,-6599026 -13029,-6599050 -13001,-6599027 -12981,-6599045 -12972,-6599052 -12951,-6599063 -12918,-6599074 -12902,-6599077 -12881,-6599079 -12870,-6599079 -12836,-6599076 -12796,-6599068 -12714,-6599047 -12697,-6599042 -12680,-6599036 -12655,-6599025 -12615,-6599005 -12510,-6598940 -12473,-6598919 -12427,-6598898 -12396,-6598886 -12368,-6598879 -12263,-6598857 -11912,-6598768 -11838,-6598755 -11763,-6598745 -11743,-6598740 -11730,-6598738 -11718,-6598737 -11705,-6598738 -11693,-6598739 -11679,-6598743 -11670,-6598746 -11633,-6598762 -11595,-6598779 -11520,-6598819 -11554,-6598931 -11598,-6599051 -11628,-6599142 -11076,-6599404 -10905,-6599484 -10962,-6599653 -10855,-6599732 -10748,-6599647 -10553,-6599483 -10504,-6599526 -10462,-6599486 -10433,-6599464 -10397,-6599441 -10272,-6599365 -10013,-6599212 -9846,-6599112 -9711,-6599034 -9667,-6599001 -9555,-6598932 -9454,-6598880 -9468,-6598846 -9475,-6598829 -9539,-6598682 -9573,-6598593 -9581,-6598568 -9583,-6598559 -9585,-6598543 -9585,-6598530 -9584,-6598519 -9581,-6598507 -9567,-6598466 -9525,-6598368 -9460,-6598236 -9434,-6598174 -9422,-6598151 -9406,-6598124 -9377,-6598077 -9299,-6597969 -9225,-6597882 -9224,-6597880 -9225,-6597879 -9365,-6597787 -9365,-6597786 -9334,-6597627 -9320,-6597503 -9300,-6597364 -9286,-6597253 -9265,-6597126 -9261,-6597094 -9245,-6597100 -9245,-6597100 -9217,-6597108 -9091,-6596687 -8907,-6596730 -8841,-6596090 -8833,-6596018 -8807,-6595755 -8775,-6595474 -8378,-6594926 -8212,-6594696 -8070,-6594508 -7927,-6594181 -7879,-6594066 -7975,-6593898 -8058,-6593752 -8101,-6593565 -8159,-6593331 -8175,-6593259 -7979,-6593264 -7745,-6593267 -7662,-6593267 -7545,-6593259 -7379,-6593286 -7314,-6593288 -7144,-6593277 -7101,-6593281 -6970,-6593309 -6858,-6593339 -6718,-6593387 -6608,-6593471 -6552,-6593509 -6496,-6593547 -6449,-6593572 -6402,-6593596 -6234,-6593681 -6088,-6593749 -5965,-6593796 -5915,-6593810 -5805,-6593825 -5772,-6593817 -5749,-6593813 -5695,-6593819 -5603,-6593833 -5574,-6593835 -5559,-6593836 -5541,-6593835 -5504,-6593832 -5478,-6593826 -5435,-6593813 -5272,-6593890 -5204,-6593901 -5074,-6593915 -4941,-6593832 -4837,-6593795 -4841,-6593685 -4837,-6593660 -4832,-6593640 -4828,-6593625 -4824,-6593614 -4818,-6593602 -4811,-6593588 -4803,-6593576 -4795,-6593566 -4785,-6593556 -4774,-6593545 -4741,-6593520 -4708,-6593499 -4611,-6593458 -4534,-6593447 -4510,-6593441 -4278,-6593340 -4101,-6593258 -4083,-6593195 -4054,-6593073 -4034,-6592972 -4033,-6592966 -4196,-6592839 -4340,-6592665 -4317,-6592586 -4238,-6592407 -4253,-6592369 -4268,-6592253 -4303,-6592165 -4325,-6592101 -4311,-6592063 -4307,-6592016 -4314,-6591879 -4328,-6591272 -4329,-6591169 -4338,-6591112 -4353,-6591036 -4395,-6590934 -4417,-6590887 -4430,-6590857 -4474,-6590790 -4488,-6590767 -4521,-6590691 -4555,-6590627 -4658,-6590477 -4645,-6590466 -4678,-6590424 -4677,-6590414 -4694,-6590364 -4726,-6590264 -4960,-6590141 -5022,-6590114 -5034,-6590111 -5043,-6590111 -5051,-6590113 -5063,-6590117 -5074,-6590125 -5100,-6590138 -5063,-6589933 -5117,-6589836 -5035,-6589845 -5009,-6589841 -4909,-6589823 -4786,-6589795 -4694,-6589772 -4692,-6589771 -4417,-6589784 -4312,-6589729 -4217,-6589672 -4212,-6589668 -4148,-6589615 -4054,-6589527 -4011,-6589492 -3983,-6589472 -3962,-6589458 -3703,-6589303 -3537,-6589144 -3494,-6589100 -3465,-6589093 -3451,-6589059 -3413,-6589074 -3365,-6589048 -3241,-6589097 -3187,-6589115 -3164,-6589122 -3093,-6589139 -3036,-6589155 -2998,-6589161 -2971,-6589163 -2932,-6589166 -2750,-6589342 -2658,-6589437 -2581,-6589519 -2496,-6589612 -2407,-6589705 -2338,-6589775 -2274,-6589837 -2202,-6589620 -2165,-6589499 -2148,-6589453 -2075,-6589297 -2031,-6589209 -1995,-6589134 -1984,-6589111 -1963,-6589071 -1917,-6588987 -1876,-6588918 -1857,-6588882 -1846,-6588858 -1837,-6588841 -1819,-6588802 -1813,-6588787 -1807,-6588767 -1799,-6588740 -1796,-6588727 -1788,-6588684 -1784,-6588648 -1781,-6588612 -1876,-6588566 -2002,-6588487 -2038,-6588463 -2074,-6588437 -2138,-6588388 -2227,-6588315 -2273,-6588280 -2295,-6588262 -2318,-6588241 -2340,-6588219 -2369,-6588186 -2462,-6588090 -2541,-6588000 -2569,-6587956 -2679,-6587864 -2859,-6587698 -3013,-6587570 -3076,-6587509 -3102,-6587487 -3125,-6587465 -3139,-6587451 -3156,-6587429 -3174,-6587405 -3191,-6587381 -3211,-6587347 -3267,-6587248 -3328,-6587146 -3385,-6587045 -3446,-6586943 -3488,-6586868 -3513,-6586825 -3536,-6586792 -3554,-6586770 -3588,-6586732 -3604,-6586712 -3657,-6586642 -3721,-6586565 -3775,-6586490 -3796,-6586463 -3828,-6586426 -3860,-6586393 -3910,-6586346 -3958,-6586303 -4129,-6586155 -4252,-6585907 -4258,-6585895 -4281,-6585850 -4348,-6585729 -4387,-6585743 -4409,-6585748 -4420,-6585753 -4422,-6585755 -4427,-6585761 -4437,-6585784 -4441,-6585788 -4454,-6585799 -4509,-6585839 -4516,-6585850 -4522,-6585869 -4526,-6585876 -4528,-6585878 -4535,-6585882 -4554,-6585888 -4561,-6585892 -4566,-6585899 -4571,-6585915 -4573,-6585919 -4580,-6585925 -4586,-6585927 -4609,-6585928 -4613,-6585929 -4616,-6585931 -4622,-6585936 -4630,-6585953 -4635,-6585959 -4639,-6585961 -4643,-6585962 -4649,-6585962 -4671,-6585958 -4676,-6585959 -4681,-6585960 -4685,-6585963 -4707,-6585980 -4729,-6585990 -4734,-6585991 -4738,-6585991 -4742,-6585990 -4745,-6585987 -4747,-6585984 -4747,-6585980 -4745,-6585962 -4747,-6585949 -4760,-6585913 -4764,-6585908 -4770,-6585902 -4775,-6585899 -4781,-6585896 -4797,-6585891 -4814,-6585891 -4816,-6585890 -4819,-6585888 -4821,-6585886 -4824,-6585870 -4827,-6585866 -4832,-6585861 -4839,-6585857 -4848,-6585854 -4857,-6585853 -4866,-6585853 -4902,-6585860 -4930,-6585867 -4942,-6585870 -4969,-6585881 -4975,-6585883 -4985,-6585884 -5016,-6585884 -5092,-6585893 -5102,-6585897 -5138,-6585922 -5171,-6585936 -5211,-6585950 -5255,-6585960 -5345,-6585987 -5374,-6585995 -5429,-6586015 -5488,-6586037 -5529,-6586052 -5545,-6586061 -5557,-6586065 -5559,-6586064 -5562,-6586061 -5564,-6586057 -5564,-6586040 -5566,-6586036 -5569,-6586033 -5573,-6586030 -5578,-6586029 -5584,-6586029 -5592,-6586031 -5625,-6586046 -5669,-6586058 -5706,-6586070 -5721,-6586076 -5733,-6586082 -5755,-6586098 -5762,-6586101 -5769,-6586102 -5775,-6586100 -5780,-6586098 -5794,-6586084 -5798,-6586081 -5802,-6586080 -5809,-6586080 -5827,-6586086 -5831,-6586086 -5834,-6586085 -5836,-6586082 -5837,-6586078 -5836,-6586074 -5829,-6586061 -5829,-6586054 -5830,-6586046 -5831,-6586039 -5834,-6586034 -5838,-6586029 -5843,-6586024 -5846,-6586022 -5850,-6586021 -5853,-6586021 -5857,-6586022 -5861,-6586026 -5882,-6586049 -5889,-6586054 -5896,-6586058 -5914,-6586063 -5943,-6586067 -5955,-6586070 -5984,-6586080 -5998,-6586084 -6031,-6586088 -6053,-6586094 -6066,-6586098 -6136,-6586129 -6145,-6586132 -6185,-6586142 -6193,-6586145 -6216,-6586155 -6227,-6586157 -6249,-6586155 -6260,-6586156 -6294,-6586167 -6313,-6586172 -6329,-6586177 -6333,-6586184 -6334,-6586188 -6334,-6586194 -6327,-6586219 -6319,-6586243 -6311,-6586261 -6309,-6586269 -6312,-6586276 -6318,-6586280 -6322,-6586281 -6327,-6586281 -6337,-6586279 -6342,-6586277 -6355,-6586264 -6373,-6586252 -6377,-6586250 -6385,-6586250 -6391,-6586253 -6392,-6586255 -6393,-6586259 -6392,-6586279 -6393,-6586282 -6394,-6586285 -6398,-6586290 -6407,-6586297 -6415,-6586300 -6422,-6586300 -6424,-6586298 -6426,-6586296 -6431,-6586280 -6433,-6586277 -6437,-6586274 -6440,-6586274 -6444,-6586275 -6450,-6586279 -6465,-6586297 -6487,-6586311 -6508,-6586321 -6522,-6586325 -6533,-6586328 -6544,-6586328 -6553,-6586328 -6568,-6586325 -6574,-6586322 -6580,-6586318 -6584,-6586314 -6590,-6586302 -6594,-6586298 -6600,-6586297 -6618,-6586298 -6621,-6586297 -6630,-6586293 -6643,-6586283 -6651,-6586280 -6656,-6586280 -6666,-6586282 -6688,-6586293 -6725,-6586308 -6733,-6586308 -6751,-6586303 -6758,-6586303 -6768,-6586305 -6778,-6586309 -6809,-6586325 -6868,-6586353 -6897,-6586364 -6945,-6586379 -6954,-6586383 -6965,-6586390 -6982,-6586401 -7032,-6586438 -7032,-6586442 -7027,-6586456 -7027,-6586460 -7028,-6586465 -7032,-6586471 -7036,-6586476 -7041,-6586481 -7046,-6586483 -7049,-6586484 -7054,-6586484 -7060,-6586482 -7065,-6586479 -7069,-6586474 -7072,-6586465 -7073,-6586459 -7072,-6586454 -7065,-6586440 -7064,-6586437 -7065,-6586434 -7068,-6586431 -7072,-6586430 -7077,-6586430 -7085,-6586433 -7096,-6586441 -7098,-6586444 -7104,-6586458 -7106,-6586461 -7108,-6586463 -7110,-6586464 -7114,-6586464 -7117,-6586462 -7129,-6586455 -7133,-6586454 -7135,-6586455 -7139,-6586458 -7143,-6586462 -7145,-6586467 -7145,-6586470 -7145,-6586474 -7144,-6586477 -7142,-6586478 -7130,-6586482 -7128,-6586483 -7126,-6586487 -7126,-6586491 -7127,-6586496 -7131,-6586502 -7136,-6586507 -7140,-6586509 -7144,-6586509 -7169,-6586509 -7195,-6586512 -7205,-6586516 -7231,-6586534 -7243,-6586540 -7284,-6586557 -7300,-6586563 -7307,-6586561 -7312,-6586558 -7320,-6586546 -7325,-6586542 -7328,-6586542 -7334,-6586543 -7337,-6586546 -7340,-6586551 -7342,-6586559 -7342,-6586567 -7341,-6586575 -7339,-6586579 -7337,-6586581 -7334,-6586583 -7321,-6586588 -7319,-6586589 -7316,-6586592 -7316,-6586596 -7317,-6586599 -7319,-6586602 -7329,-6586605 -7340,-6586606 -7351,-6586607 -7369,-6586605 -7378,-6586607 -7381,-6586610 -7383,-6586613 -7388,-6586628 -7390,-6586630 -7393,-6586632 -7396,-6586631 -7400,-6586630 -7403,-6586626 -7408,-6586621 -7411,-6586615 -7415,-6586599 -7417,-6586596 -7420,-6586593 -7426,-6586591 -7432,-6586591 -7438,-6586592 -7444,-6586594 -7453,-6586599 -7456,-6586603 -7459,-6586608 -7474,-6586645 -7476,-6586650 -7483,-6586657 -7495,-6586664 -7526,-6586676 -7615,-6586699 -7627,-6586704 -7664,-6586726 -7672,-6586731 -7693,-6586740 -7704,-6586745 -7779,-6586776 -7831,-6586790 -7848,-6586796 -7894,-6586818 -7909,-6586824 -7964,-6586842 -7990,-6586851 -8049,-6586880 -8068,-6586888 -8181,-6586928 -8189,-6586935 -8210,-6586962 -8222,-6586976 -8238,-6586993 -8245,-6586999 -8253,-6587004 -8260,-6587007 -8266,-6587007 -8287,-6587004 -8289,-6587005 -8294,-6587005 -8301,-6587007 -8308,-6587011 -8333,-6587035 -8362,-6587053 -8371,-6587060 -8397,-6587084 -8422,-6587104 -8431,-6587110 -8459,-6587124 -8467,-6587129 -8482,-6587142 -8488,-6587145 -8494,-6587146 -8500,-6587145 -8519,-6587138 -8524,-6587138 -8528,-6587139 -8533,-6587142 -8536,-6587147 -8546,-6587166 -8550,-6587190 -8553,-6587196 -8557,-6587201 -8564,-6587205 -8571,-6587208 -8577,-6587209 -8584,-6587209 -8599,-6587206 -8603,-6587206 -8608,-6587207 -8616,-6587211 -8622,-6587215 -8625,-6587218 -8627,-6587224 -8626,-6587236 -8627,-6587239 -8629,-6587242 -8636,-6587244 -8652,-6587245 -8656,-6587247 -8664,-6587250 -8689,-6587266 -8717,-6587282 -8746,-6587297 -8761,-6587303 -8770,-6587305 -8789,-6587305 -8793,-6587306 -8796,-6587309 -8797,-6587313 -8797,-6587317 -8790,-6587330 -8790,-6587333 -8790,-6587336 -8792,-6587340 -8795,-6587344 -8798,-6587346 -8811,-6587351 -8838,-6587356 -8868,-6587355 -8878,-6587357 -8882,-6587359 -8886,-6587362 -8890,-6587366 -8901,-6587383 -8905,-6587388 -8910,-6587391 -8916,-6587395 -8958,-6587412 -8995,-6587426 -9020,-6587435 -9033,-6587439 -9045,-6587440 -9078,-6587439 -9093,-6587440 -9112,-6587443 -9162,-6587456 -9166,-6587459 -9170,-6587463 -9172,-6587467 -9172,-6587470 -9167,-6587486 -9168,-6587491 -9169,-6587494 -9174,-6587500 -9180,-6587503 -9203,-6587511 -9224,-6587520 -9236,-6587525 -9245,-6587525 -9269,-6587522 -9276,-6587525 -9284,-6587531 -9297,-6587547 -9312,-6587559 -9325,-6587566 -9354,-6587577 -9359,-6587578 -9368,-6587577 -9373,-6587573 -9379,-6587562 -9384,-6587556 -9394,-6587553 -9405,-6587554 -9411,-6587555 -9421,-6587559 -9425,-6587563 -9435,-6587578 -9439,-6587582 -9443,-6587585 -9449,-6587587 -9456,-6587589 -9470,-6587590 -9491,-6587584 -9512,-6587581 -9525,-6587584 -9535,-6587588 -9541,-6587592 -9545,-6587595 -9562,-6587615 -9568,-6587621 -9574,-6587624 -9589,-6587630 -9616,-6587636 -9631,-6587642 -9652,-6587650 -9667,-6587657 -9683,-6587667 -9715,-6587695 -9724,-6587700 -9727,-6587701 -9736,-6587699 -9765,-6587687 -9769,-6587686 -9775,-6587686 -9787,-6587690 -9812,-6587701 -9843,-6587706 -9848,-6587710 -9852,-6587713 -9854,-6587715 -9855,-6587719 -9853,-6587738 -9853,-6587742 -9854,-6587744 -9857,-6587746 -9861,-6587748 -9865,-6587749 -9872,-6587748 -9876,-6587744 -9881,-6587734 -9884,-6587731 -9887,-6587729 -9899,-6587727 -9909,-6587729 -9917,-6587733 -9923,-6587739 -9925,-6587745 -9948,-6587752 -9973,-6587757 -10008,-6587760 -10054,-6587763 -10071,-6587767 -10085,-6587775 -10090,-6587778 -10096,-6587786 -10101,-6587799 -10109,-6587810 -10119,-6587818 -10129,-6587823 -10135,-6587824 -10141,-6587823 -10145,-6587822 -10160,-6587812 -10165,-6587811 -10171,-6587810 -10180,-6587810 -10185,-6587811 -10215,-6587818 -10225,-6587819 -10249,-6587818 -10265,-6587819 -10306,-6587831 -10375,-6587662 -10006,-6587527 -10055,-6585675 -10858,-6585836 -12384,-6586143 -12363,-6586903 -12336,-6587975 -12214,-6587924 -12111,-6587912 -12107,-6587961 -12046,-6588209 -12144,-6588247 -12156,-6588266 -12168,-6588281 -12180,-6588296 -12194,-6588309 -12206,-6588319 -12216,-6588327 -12229,-6588335 -12244,-6588342 -12257,-6588346 -12284,-6588354 -12477,-6588427 -12577,-6588461 -12593,-6588467 -12631,-6588483 -12645,-6588460 -12878,-6588572 -13234,-6588717 -13369,-6588766 -13380,-6588739 -13389,-6588720 -13699,-6588821 -13800,-6588856 -13955,-6588909 -14084,-6588961 -14146,-6588985 -14178,-6589002 -14198,-6589011 -14226,-6589023 -14254,-6589033 -14282,-6589042 -14338,-6589056 -14380,-6589066 -14452,-6589082 -14496,-6589093 -14557,-6589109 -14645,-6589113 -14673,-6589113 -14709,-6589115 -14731,-6589119 -14753,-6589124 -14777,-6589131 -15058,-6589183 -15082,-6589187 -15098,-6589191 -15111,-6589195 -15134,-6589206 -15158,-6589222 -15177,-6589241 -15184,-6589245 -15193,-6589249 -15202,-6589252 -15213,-6589254 -15230,-6589253 -15238,-6589252 -15239,-6589230 -15245,-6589223 -15493,-6589268 -15498,-6589256 -15515,-6589263 -15746,-6589311 -15910,-6589350 -16095,-6589409 -16333,-6589489 -16347,-6589497 -16358,-6589501 -16368,-6589504 -16381,-6589508 -16388,-6589509 -16394,-6589510 -16408,-6589510 -16421,-6589510 -16432,-6589509 -16441,-6589507 -16450,-6589504 -16464,-6589497 -16613,-6589552 -16658,-6589567 -16661,-6589567 -16687,-6589575 -16716,-6589583 -16753,-6589591 -16761,-6589581 -16967,-6589633 -17099,-6589670 -17133,-6589675 -17148,-6589678 -17179,-6589687 -17280,-6589720 -17338,-6589747 -17354,-6589762 -17386,-6589781 -17393,-6589785 -17407,-6589789 -17445,-6589796 -17475,-6589805 -17480,-6589806 -17497,-6589808 -17515,-6589808 -17530,-6589805 -17549,-6589805 -17576,-6589806 -17597,-6589808 -17630,-6589817 -17658,-6589818 -17663,-6589819 -17670,-6589821 -17674,-6589824 -17689,-6589842 -17693,-6589845 -17698,-6589847 -17705,-6589848 -17715,-6589847 -17724,-6589844 -17741,-6589837 -17746,-6589836 -17752,-6589836 -17758,-6589838 -17782,-6589848 -17808,-6589854 -17831,-6589862 -17838,-6589868 -17850,-6589887 -17856,-6589894 -17859,-6589895 -17864,-6589895 -17868,-6589895 -17889,-6589885 -17909,-6589880 -17919,-6589879 -17927,-6589879 -17935,-6589880 -17942,-6589882 -17954,-6589889 -18000,-6589925 -18013,-6589930 -18016,-6589930 -18023,-6589927 -18036,-6589918 -18041,-6589916 -18048,-6589915 -18055,-6589915 -18063,-6589915 -18100,-6589925 -18133,-6589927 -18143,-6589928 -18156,-6589936 -18157,-6589938 -18160,-6589943 -18164,-6589964 -18169,-6589972 -18177,-6589977 -18186,-6589980 -18197,-6589980 -18234,-6589976 -18241,-6589976 -18254,-6589978 -18385,-6590005 -18446,-6590009 -18464,-6590011 -18562,-6590029 -18584,-6590031 -18589,-6590032 -18628,-6590032 -18636,-6590033 -18662,-6590040 -18673,-6590024 -18692,-6590032 -18729,-6590046 -18757,-6590055 -18837,-6590071 -18848,-6590073 -18881,-6590074 -18901,-6590077 -18907,-6590079 -18942,-6590093 -18949,-6590094 -18965,-6590096 -18994,-6590094 -19008,-6590095 -19028,-6590102 -19041,-6590108 -19050,-6590113 -19068,-6590120 -19087,-6590123 -19094,-6590123 -19108,-6590121 -19136,-6590111 -19159,-6590098 -19164,-6590096 -19171,-6590095 -19177,-6590095 -19182,-6590097 -19202,-6590110 -19209,-6590113 -19217,-6590115 -19242,-6590119 -19305,-6590125 -19405,-6590135 -19414,-6590138 -19436,-6590150 -19444,-6590152 -19447,-6590152 -19452,-6590150 -19455,-6590148 -19457,-6590145 -19464,-6590129 -19466,-6590126 -19471,-6590122 -19479,-6590121 -19487,-6590122 -19512,-6590135 -19522,-6590138 -19577,-6590149 -19635,-6590159 -19664,-6590164 -19706,-6590160 -19723,-6590161 -19745,-6590167 -19816,-6590192 -19822,-6590193 -19842,-6590194 -19859,-6590193 -19876,-6590192 -19913,-6590183 -19927,-6590182 -19934,-6590182 -19951,-6590185 -20033,-6590205 -20088,-6590215 -20100,-6590219 -20115,-6590225 -20135,-6590230 -20160,-6590234 -20178,-6590234 -20194,-6590231 -20209,-6590228 -20224,-6590227 -20233,-6590227 -20261,-6590230 -20377,-6590262 -20398,-6590266 -20456,-6590274 -20465,-6590276 -20495,-6590284 -20541,-6590301 -20553,-6590304 -20565,-6590307 -20623,-6590315 -20643,-6590319 -20660,-6590324 -20689,-6590337 -20705,-6590341 -20720,-6590341 -20744,-6590335 -20751,-6590334 -20766,-6590332 -20781,-6590333 -20798,-6590335 -20835,-6590343 -20861,-6590349 -20918,-6590364 -20939,-6590368 -20967,-6590372 -20996,-6590376 -21020,-6590378 -21076,-6590379 -21085,-6590380 -21114,-6590385 -21155,-6590396 -21172,-6590399 -21241,-6590405 -21344,-6590424 -21367,-6590433 -21387,-6590440 -21403,-6590444 -21417,-6590447 -21440,-6590450 -21473,-6590448 -21490,-6590449 -21514,-6590455 -21563,-6590469 -21642,-6590480 -21700,-6590492 -21723,-6590493 -21732,-6590492 -21764,-6590483 -21779,-6590482 -21787,-6590482 -21796,-6590484 -21840,-6590498 -21880,-6590504 -21958,-6590512 -22007,-6590524 -22030,-6590527 -22109,-6590532 -22121,-6590533 -22129,-6590532 -22144,-6590529 -22158,-6590524 -22173,-6590517 -22192,-6590505 -22267,-6590519 -22387,-6590524 -22479,-6590535 -22550,-6590546 -22592,-6590550 -22653,-6590568 -22684,-6590563 -22718,-6590571 -22776,-6590589 -22805,-6590594 -22862,-6590600 -22878,-6590600 -22886,-6590596 -22902,-6590584 -22906,-6590583 -22908,-6590582 -22915,-6590580 -22921,-6590580 -22930,-6590582 -22957,-6590592 -22963,-6590594 -22974,-6590595 -22981,-6590595 -23008,-6590593 -23017,-6590593 -23044,-6590599 -23063,-6590600 -23093,-6590596 -23106,-6590596 -23125,-6590599 -23205,-6590615 -23239,-6590618 -23260,-6590621 -23285,-6590625 -23331,-6590637 -23347,-6590639 -23392,-6590641 -23402,-6590642 -23412,-6590644 -23458,-6590656 -23476,-6590658 -23517,-6590659 -23539,-6590661 -23656,-6590681 -23688,-6590684 -23764,-6590686 -23823,-6590690 -23963,-6590710 -24014,-6590716 -24039,-6590721 -24070,-6590729 -24050,-6590841 -24049,-6590849 -24003,-6591065 -24002,-6591176 -23971,-6591296 -23966,-6591331 -23966,-6591342 -23967,-6591353 -23973,-6591370 -24024,-6591382 -24089,-6591389 -24110,-6591397 -24110,-6591401 -24101,-6591434 -24109,-6591614 -24111,-6591642 -24119,-6591799 -24206,-6591794 -24219,-6591791 -24219,-6591820 -24255,-6591892 -24322,-6592015 -24450,-6592235 -24505,-6592339 -24624,-6592543 -24674,-6592634 -24727,-6592735 -24813,-6592879 -24822,-6592891 -24847,-6592929 -24864,-6592957 -24913,-6593043 -25001,-6593204 -25002,-6593206 -25015,-6593229 -25027,-6593251 -25040,-6593274 -25051,-6593297 -25076,-6593353 -25078,-6593356 -25081,-6593364 -25085,-6593371 -25088,-6593379 -25092,-6593387 -25095,-6593394 -25106,-6593436 -25108,-6593442 -25114,-6593466 -25115,-6593468 -25116,-6593471 -25117,-6593478 -25118,-6593482 -25119,-6593485 -25120,-6593489 -25121,-6593492 -25122,-6593496 -25124,-6593500 -25126,-6593504 -25129,-6593509 -25131,-6593513 -25134,-6593517 -25136,-6593521 -25136,-6593521 -25139,-6593525 -25141,-6593531 -25149,-6593549 -25154,-6593556 -25190,-6593596 -25257,-6593682 -25305,-6593755 -25341,-6593816 -25351,-6593846 -25378,-6593920 -25412,-6593998 -25425,-6594033 -25437,-6594047 -25463,-6594052 -25528,-6594051 -25555,-6594225 -25576,-6594273 -25626,-6594383 -25672,-6594506 -25756,-6594588 -25785,-6594618 -25814,-6594648 -25868,-6594708 -25886,-6594742 -25943,-6594821 -26009,-6594907 -26023,-6594924 -26085,-6594998 -26097,-6595026 -26116,-6595084 -26126,-6595109 -26144,-6595140 -26202,-6595228 -26206,-6595238 -26217,-6595265 -26230,-6595306 -26242,-6595372 -26254,-6595469 -26266,-6595601 -26269,-6595690 -26264,-6595844 -26264,-6595946 -26280,-6595998 -26289,-6596039 -26313,-6596129 -26329,-6596143 -26358,-6596151 -26477,-6596237 -26541,-6596288 -26604,-6596341 -26624,-6596423 -26643,-6596539 -26629,-6596587 -26640,-6596699 -26653,-6596781 -26683,-6596899 -26689,-6596910 -26694,-6596917 -26700,-6596922 -26715,-6596932 -26756,-6596965 -26806,-6597009 -26866,-6597059 -26877,-6597070 -26884,-6597073 -26896,-6597077 -26956,-6597101 -27053,-6597124 -27241,-6597172 -27270,-6597238 -27278,-6597261 -27185,-6597305 -27130,-6597333 -27007,-6597390 -26780,-6597484 -26796,-6597505 -26769,-6597530 -26720,-6597581 -26708,-6597602 -26701,-6597615 -26694,-6597633 -26677,-6597693 -26662,-6597754 -26648,-6597854 -26631,-6597957 -26604,-6598115 -26577,-6598280 -26530,-6598399 -26490,-6598524 -26444,-6598646 -26422,-6598690 -26331,-6598812 -26176,-6599029 -26158,-6599055 -26028,-6599240 -25947,-6599340 -25900,-6599378 -25845,-6599405 -25782,-6599438 -25681,-6599493 -25526,-6599570 -25503,-6599583 -25474,-6599601 -25434,-6599628 -25238,-6599773 -25105,-6599753 -25037,-6599657 -25007,-6599607 -25011,-6599586 -25016,-6599559 -25015,-6599539 -25007,-6599502 -24999,-6599496 -24997,-6599440 -24985,-6599439 -24943,-6599439 -24897,-6599442 -24878,-6599442 -24861,-6599441 -24825,-6599436 -24645,-6599378 -24621,-6599376 -24596,-6599373 -24516,-6599348 -24468,-6599335 -24339,-6599303 -24193,-6599272 -24166,-6599269 -24140,-6599267 -24000,-6599258 -23922,-6599248 -23838,-6599244 -23852,-6599156 -23852,-6599070 -23851,-6599028 -23849,-6598987 -23843,-6598917 -23829,-6598709 -23824,-6598612 -23817,-6598531 -23809,-6598412 -23647,-6598409 -23516,-6598417 -23515,-6598417 -23446,-6598420 -23294,-6598419 -23248,-6598409 -23009,-6598392 -22921,-6598364 -22865,-6598345 -22773,-6598615 -22676,-6598907 -22623,-6599063 -22576,-6599214 -22538,-6599325 -22557,-6599363 -22510,-6599330 -22508,-6599325 -22507,-6599319 -22366,-6599197 -22321,-6599007 -22269,-6598821 -22214,-6598617 -22172,-6598450 -22151,-6598351 -22092,-6598328 -22003,-6598274 -21979,-6598253 -21969,-6598251 -21952,-6598248 -21936,-6598247 -21916,-6598247 -21897,-6598249 -21815,-6598263 -21717,-6598275 -21681,-6598273 -21637,-6598267 -21363,-6598213 -21063,-6598158 -21029,-6598149 -21015,-6598143 -20993,-6598133 -20944,-6598106 -20923,-6598093 -20898,-6598078 -20941,-6598303 -20968,-6598434 -20998,-6598546 -21024,-6598684 -21045,-6598782 -21053,-6598848 -21060,-6598881 -21067,-6598914 -21107,-6599046 -21122,-6599109 -21089,-6599125 -21075,-6599133 -21058,-6599145 -21040,-6599159 -21014,-6599180 -20988,-6599205 -20954,-6599244 -20937,-6599267 -20926,-6599286 -20913,-6599303 -20897,-6599315 -20890,-6599319 -20882,-6599322 -20870,-6599325 -20840,-6599328 -20790,-6599327 -20760,-6599323 -20751,-6599324 -20745,-6599325 -20740,-6599327 -20735,-6599331 -20730,-6599336 -20727,-6599342 -20724,-6599348 -20715,-6599381 -20711,-6599392 -20707,-6599398 -20690,-6599422 -20683,-6599429 -20665,-6599447 -20636,-6599469 -20610,-6599484 -20602,-6599491 -20598,-6599496 -20593,-6599508 -20585,-6599558 -20582,-6599572 -20538,-6599655 -20513,-6599708 -20492,-6599744 -20477,-6599769 -20419,-6599854 -20402,-6599881 -20391,-6599901 -20386,-6599911 -20359,-6599975 -20344,-6600008 -20313,-6600066 -20303,-6600089 -20282,-6600141 -20261,-6600211 -20244,-6600254 -20239,-6600270 -20237,-6600278 -20222,-6600362 -20210,-6600444 -20208,-6600465 -20203,-6600537 -20190,-6600637 -20182,-6600738 -20190,-6600786 -20198,-6600848 -20211,-6600910 -20214,-6600929 -20219,-6601003 -20224,-6601044 -20226,-6601053 -20242,-6601111 -20259,-6601187 -20282,-6601276 -20292,-6601319 -20295,-6601347 -20301,-6601486 -20307,-6601563 -20124,-6601568 -20096,-6601620 -20093,-6601623 -20019,-6601698 -19956,-6601775 -19889,-6601841 -19794,-6601942 -19454,-6601897 -19314,-6601884 -19073,-6601871 -19004,-6601865 -18919,-6601853 -18850,-6601847 -18849,-6601847 -18828,-6602106 -18773,-6602100 -18769,-6602276 -18583,-6602272 -18463,-6602270" stroke="#006747" stroke-width="42" /></ns0:svg>    <rect x="20" y="50"  width="250" height="25"  rx="0"  fill="#006747" fill-opacity="0.8" />    <text x="145" y="70" text-anchor="middle" font-family="Frutiger" font-weight="bold" font-size="20" fill="white">Brighton and Hove</text>    <rect x="35" y="195" width="220" height="160" rx="15" fill="#78BE20"/>    <g font-family="Frutiger" font-size="15" fill="#231F20">        <g> <text x="45" y="218">Self-harm</text> <text x="245" y="218" text-anchor="end">48</text> </g>        <g> <text x="45" y="243">SEN</text> <text x="245" y="243" text-anchor="end">59</text> </g>        <g> <text x="45" y="268">Difficulties</text> <text x="245" y="268" text-anchor="end">78</text> </g>        <g> <text x="45" y="293">Child Carer</text> <text x="245" y="293" text-anchor="end">11</text> </g>        <g> <text x="45" y="318">Drinkers</text> <text x="245" y="318" text-anchor="end">91</text> </g>        <g> <text x="45" y="343">Safeguarding £</text> <text x="245" y="343" text-anchor="end">30</text> </g>    </g></svg>