<?xml version="1.0" standalone="no"?>
<!DOCTYPE svg PUBLIC "-//W3C//DTD SVG 1.1//EN"
"http://www.w3.org/Graphics/SVG/1.1/DTD/svg11.dtd">
<svg height="1800" version="1.1" width="1800" xmlns="http://www.w3.org/2000/svg"><defs><style type="text/css">@font-face {font-family: 'Frutiger';font-style: normal;font-weight: normal;src: local('Frutiger'), url('../fonts/Frutiger.woff') format('woff');}@font-face {font-family: 'Frutiger Bold';font-style: normal;font-weight: normal;src: local('Frutiger Bold'), url('../fonts/Frutiger_bold.woff') format('woff');}        </style>    </defs>    <rect x="20" y="20"  width="250" height="350" rx="15" fill="#009639" />    <rect x="35" y="35"  width="220" height="145" rx="15" fill="#E8EDEE" /><ns0:svg xmlns:ns0="http://www.w3.org/2000/svg" height="115" version="1.1" viewBox="-190330 -7288340 33672 32277" width="220" x="35" y="50"><ns0:polygon fill="#006747" points=" -182305,-7287912 -182304,-7287828 -182020,-7287753 -181906,-7287725 -181811,-7287717 -181617,-7287718 -181627,-7287773 -181630,-7287826 -181606,-7288165 -181362,-7288161 -181269,-7288163 -181194,-7288168 -181127,-7288181 -180985,-7288188 -180837,-7288191 -180767,-7288197 -180770,-7288256 -180665,-7288265 -180463,-7288278 -180197,-7288301 -180171,-7288302 -180143,-7288288 -180120,-7288259 -180111,-7288257 -180075,-7288252 -180027,-7288257 -180017,-7288253 -179993,-7288236 -179984,-7288232 -179971,-7288233 -179951,-7288238 -179920,-7288252 -179902,-7288258 -179874,-7288253 -179861,-7288256 -179807,-7288243 -179789,-7288239 -179756,-7288238 -179731,-7288242 -179712,-7288240 -179702,-7288237 -179674,-7288233 -179669,-7288231 -179667,-7288228 -179664,-7288223 -179662,-7288195 -179634,-7288069 -179598,-7288064 -179572,-7288068 -179548,-7288076 -179526,-7288079 -179503,-7288086 -179491,-7288090 -179461,-7288102 -179407,-7287984 -179378,-7287912 -179375,-7287907 -179291,-7287957 -179259,-7287970 -179200,-7287979 -178977,-7287987 -178864,-7287989 -178851,-7287699 -178847,-7287552 -178843,-7287500 -178841,-7287448 -178825,-7287439 -178754,-7287424 -178750,-7287357 -178742,-7287351 -178732,-7287249 -178730,-7287213 -178722,-7287194 -178722,-7287152 -178717,-7287128 -178701,-7287031 -178695,-7287011 -178695,-7287009 -178783,-7287016 -178801,-7287016 -178810,-7287017 -178821,-7287030 -178825,-7287032 -178831,-7287031 -178846,-7287017 -178855,-7287014 -178864,-7287013 -178884,-7287016 -178884,-7286943 -178874,-7286909 -178874,-7286905 -178874,-7286896 -178875,-7286880 -178875,-7286838 -178873,-7286833 -178871,-7286831 -178866,-7286828 -178862,-7286823 -178858,-7286817 -178855,-7286810 -178848,-7286787 -178845,-7286772 -178843,-7286756 -178843,-7286728 -178839,-7286637 -178831,-7286545 -178829,-7286475 -178818,-7286426 -178804,-7286344 -178805,-7286325 -178807,-7286314 -178804,-7286303 -178803,-7286296 -178804,-7286285 -178803,-7286263 -178788,-7286101 -178772,-7286002 -178763,-7285970 -178756,-7285950 -178741,-7285911 -178768,-7285895 -178778,-7285892 -178785,-7285888 -178800,-7285872 -178825,-7285859 -178833,-7285853 -178840,-7285844 -178843,-7285836 -178863,-7285814 -178880,-7285788 -178889,-7285776 -178897,-7285765 -178906,-7285756 -178911,-7285752 -178956,-7285721 -178990,-7285689 -179031,-7285660 -179044,-7285649 -179050,-7285643 -179048,-7285627 -179048,-7285586 -179045,-7285574 -179042,-7285562 -179037,-7285551 -179031,-7285530 -178991,-7285470 -178971,-7285438 -178918,-7285384 -178890,-7285361 -178838,-7285311 -178803,-7285279 -178783,-7285310 -178769,-7285338 -178719,-7285457 -178715,-7285474 -178715,-7285485 -178705,-7285512 -178693,-7285535 -178690,-7285540 -178632,-7285604 -178608,-7285628 -178561,-7285684 -178552,-7285693 -178538,-7285706 -178517,-7285722 -178495,-7285740 -178479,-7285751 -178457,-7285765 -178442,-7285773 -178410,-7285791 -178370,-7285814 -178350,-7285824 -178293,-7285849 -178246,-7285864 -178219,-7285866 -178165,-7285896 -178152,-7285906 -178106,-7285950 -178086,-7285966 -178040,-7286006 -178010,-7286035 -177995,-7286044 -177969,-7286063 -177979,-7286080 -177841,-7286158 -177709,-7286229 -177674,-7286245 -177628,-7286261 -177597,-7286274 -177573,-7286259 -177534,-7286274 -177501,-7286285 -177402,-7286315 -177350,-7286336 -177250,-7286361 -177233,-7286368 -177124,-7286414 -176968,-7286481 -176910,-7286506 -176871,-7286528 -176773,-7286562 -176718,-7286578 -176611,-7286621 -176584,-7286628 -176571,-7286630 -176541,-7286633 -176505,-7286639 -176489,-7286640 -176481,-7286640 -176413,-7286632 -176384,-7286642 -176377,-7286645 -176371,-7286636 -176351,-7286633 -176350,-7286627 -176359,-7286622 -176363,-7286617 -176365,-7286611 -176365,-7286607 -176319,-7286199 -176309,-7286089 -176304,-7286060 -176310,-7286050 -176323,-7286032 -176338,-7286014 -176350,-7286002 -176376,-7285979 -176386,-7285973 -176398,-7285965 -176413,-7285959 -176435,-7285951 -176508,-7285936 -176536,-7285929 -176548,-7285921 -176630,-7285886 -176652,-7285877 -176687,-7285859 -176899,-7285764 -176910,-7285760 -176946,-7285746 -176981,-7285728 -177006,-7285720 -177024,-7285712 -177070,-7285690 -177083,-7285681 -177091,-7285672 -177269,-7285536 -177295,-7285513 -177318,-7285506 -177326,-7285492 -177332,-7285471 -177335,-7285457 -177323,-7285382 -177315,-7285354 -177311,-7285326 -177305,-7285295 -177303,-7285266 -177302,-7285258 -177299,-7285250 -177295,-7285240 -177289,-7285222 -177286,-7285189 -177283,-7285175 -177269,-7285130 -177265,-7285095 -177257,-7285061 -177251,-7284986 -177246,-7284959 -177224,-7284874 -177216,-7284854 -177212,-7284839 -177208,-7284810 -177198,-7284782 -177189,-7284738 -177185,-7284705 -177172,-7284654 -177150,-7284551 -177140,-7284526 -177133,-7284512 -177115,-7284454 -177107,-7284433 -177098,-7284416 -177075,-7284384 -177048,-7284311 -177042,-7284298 -177027,-7284274 -176996,-7284217 -176984,-7284185 -176986,-7284164 -176991,-7284121 -176996,-7284052 -177000,-7283983 -177006,-7283911 -177005,-7283904 -177002,-7283897 -176999,-7283882 -177002,-7283841 -176999,-7283826 -177003,-7283736 -177006,-7283712 -177043,-7283713 -177037,-7283669 -177038,-7283649 -177057,-7283646 -177059,-7283637 -177085,-7283637 -177096,-7283635 -177103,-7283635 -177109,-7283637 -177122,-7283643 -177225,-7283659 -177256,-7283662 -177274,-7283666 -177303,-7283673 -177312,-7283674 -177329,-7283674 -177350,-7283672 -177377,-7283672 -177366,-7283644 -177361,-7283628 -177357,-7283612 -177351,-7283565 -177344,-7283530 -177342,-7283507 -177340,-7283474 -177330,-7283425 -177329,-7283397 -177327,-7283390 -177322,-7283381 -177317,-7283373 -177288,-7283287 -177287,-7283279 -177273,-7283271 -177235,-7283147 -177186,-7282997 -177148,-7282895 -177119,-7282808 -177093,-7282737 -177029,-7282723 -176950,-7282709 -176632,-7282662 -176508,-7282638 -176203,-7282595 -176276,-7282479 -176303,-7282450 -176358,-7282392 -176376,-7282383 -176408,-7282372 -176429,-7282367 -176441,-7282362 -176454,-7282356 -176459,-7282353 -176450,-7282262 -176451,-7282209 -176456,-7282141 -176456,-7282111 -176454,-7282096 -176450,-7282080 -176443,-7282055 -176445,-7282049 -176451,-7282037 -176457,-7282026 -176469,-7282012 -176467,-7281936 -176456,-7281794 -176462,-7281787 -176472,-7281769 -176476,-7281759 -176479,-7281745 -176466,-7281675 -176452,-7281553 -176430,-7281406 -176409,-7281327 -176388,-7281257 -176370,-7281171 -176351,-7281112 -176339,-7281085 -176330,-7281069 -176308,-7281037 -176280,-7280986 -176260,-7280957 -176253,-7280950 -176229,-7280946 -176194,-7280946 -176184,-7280948 -176178,-7280951 -176173,-7280955 -176166,-7280962 -176159,-7280976 -176135,-7281013 -176114,-7281055 -176066,-7281129 -176061,-7281137 -176057,-7281141 -176052,-7281144 -176043,-7281145 -176002,-7281138 -175969,-7281140 -175954,-7281137 -175944,-7281136 -175935,-7281136 -175926,-7281137 -175916,-7281141 -175910,-7281143 -175890,-7281154 -175864,-7281158 -175841,-7281164 -175829,-7281166 -175808,-7281168 -175773,-7281182 -175763,-7281183 -175757,-7281184 -175755,-7281183 -175734,-7281169 -175721,-7281167 -175709,-7281162 -175704,-7281158 -175696,-7281148 -175689,-7281138 -175682,-7281124 -175638,-7281124 -175625,-7281117 -175609,-7281104 -175554,-7281040 -175531,-7281007 -175525,-7280994 -175469,-7280813 -175232,-7280848 -175214,-7280854 -175207,-7280855 -175192,-7280854 -175185,-7280855 -175171,-7280859 -175154,-7280867 -175098,-7280906 -175086,-7280911 -175079,-7280916 -175068,-7280927 -175049,-7280937 -175032,-7280936 -175023,-7280935 -175013,-7280932 -174963,-7280915 -174956,-7280914 -174949,-7280913 -174942,-7280914 -174933,-7280916 -174923,-7280921 -174886,-7280948 -174870,-7280956 -174850,-7280964 -174812,-7280988 -174795,-7281000 -174791,-7281003 -174781,-7281007 -174768,-7281010 -174750,-7281013 -174747,-7281013 -174665,-7280994 -174575,-7280963 -174527,-7280935 -174479,-7280918 -174432,-7280898 -174415,-7280896 -174397,-7280896 -174375,-7280898 -174363,-7280900 -174283,-7280925 -174269,-7280933 -174261,-7280936 -174244,-7280940 -174235,-7280941 -174218,-7280940 -174179,-7280931 -174155,-7280949 -174138,-7280961 -174101,-7280993 -174069,-7281014 -174042,-7281040 -174001,-7281064 -173954,-7281091 -173932,-7281102 -173902,-7281109 -173873,-7281111 -173862,-7281115 -173856,-7281120 -173847,-7281130 -173847,-7281139 -173846,-7281142 -173841,-7281148 -173831,-7281158 -173828,-7281161 -173826,-7281165 -173825,-7281180 -173815,-7281196 -173808,-7281202 -173804,-7281204 -173800,-7281204 -173792,-7281204 -173783,-7281198 -173740,-7281204 -173691,-7281191 -173683,-7281190 -173672,-7281189 -173641,-7281192 -173597,-7281194 -173570,-7281191 -173516,-7281177 -173486,-7281168 -173471,-7281163 -173450,-7281138 -173434,-7281146 -173377,-7281129 -173345,-7281133 -173322,-7281139 -173310,-7281141 -173293,-7281141 -173274,-7281140 -173257,-7281138 -173241,-7281133 -173228,-7281129 -173210,-7281120 -173188,-7281111 -173183,-7281107 -173176,-7281105 -173173,-7281105 -173131,-7281119 -173069,-7281127 -173061,-7281134 -173017,-7281156 -172992,-7281170 -172895,-7281215 -172882,-7281224 -172870,-7281227 -172859,-7281225 -172854,-7281235 -172841,-7281257 -172803,-7281298 -172795,-7281301 -172789,-7281308 -172788,-7281312 -172786,-7281321 -172791,-7281358 -172819,-7281429 -172840,-7281485 -172870,-7281481 -172883,-7281435 -172896,-7281429 -172920,-7281427 -172940,-7281423 -172949,-7281454 -172951,-7281458 -172956,-7281464 -172966,-7281471 -172978,-7281471 -172990,-7281465 -172993,-7281462 -172995,-7281457 -172996,-7281452 -172995,-7281449 -172981,-7281417 -173019,-7281405 -173027,-7281403 -173036,-7281402 -173044,-7281403 -173050,-7281406 -173060,-7281412 -173073,-7281452 -173081,-7281464 -173178,-7281555 -173198,-7281566 -173215,-7281580 -173240,-7281611 -173274,-7281650 -173278,-7281664 -173280,-7281674 -173281,-7281688 -173271,-7281735 -173271,-7281751 -173275,-7281780 -173271,-7281799 -173276,-7281840 -173311,-7281908 -173338,-7281891 -173362,-7281879 -173376,-7281870 -173436,-7281823 -173500,-7281869 -173550,-7281912 -173561,-7281916 -173597,-7281929 -173610,-7281934 -173626,-7281942 -173681,-7281976 -173700,-7281979 -173707,-7281979 -173735,-7281974 -173776,-7281961 -173811,-7281964 -173819,-7281940 -173822,-7281935 -173833,-7281925 -173863,-7281909 -173859,-7281896 -173860,-7281879 -173864,-7281874 -173869,-7281871 -173875,-7281869 -173882,-7281870 -173885,-7281872 -173896,-7281885 -173910,-7281922 -173915,-7281946 -173915,-7281986 -173916,-7281994 -173918,-7282002 -173936,-7282061 -173939,-7282076 -173941,-7282095 -173943,-7282121 -173942,-7282134 -173922,-7282151 -173911,-7282164 -173901,-7282183 -173895,-7282198 -173898,-7282253 -173895,-7282270 -173896,-7282279 -173899,-7282291 -173908,-7282345 -173908,-7282350 -173908,-7282357 -173906,-7282363 -173899,-7282372 -173864,-7282394 -173858,-7282397 -173855,-7282400 -173852,-7282405 -173851,-7282410 -173853,-7282445 -173854,-7282469 -173850,-7282504 -173842,-7282546 -173838,-7282562 -173837,-7282573 -173839,-7282582 -173842,-7282590 -173847,-7282617 -173845,-7282627 -173811,-7282702 -173749,-7282751 -173742,-7282755 -173727,-7282761 -173650,-7282779 -173625,-7282793 -173611,-7282803 -173590,-7282820 -173583,-7282823 -173550,-7282834 -173542,-7282835 -173525,-7282837 -173503,-7282834 -173498,-7282835 -173488,-7282839 -173477,-7282845 -173469,-7282851 -173463,-7282856 -173457,-7282864 -173452,-7282874 -173451,-7282880 -173449,-7282923 -173450,-7282931 -173453,-7282943 -173469,-7282978 -173502,-7282988 -173527,-7282992 -173507,-7283103 -173485,-7283087 -173467,-7283075 -173441,-7283057 -173394,-7283035 -173369,-7283035 -173353,-7283032 -173345,-7283030 -173307,-7283016 -173293,-7283013 -173295,-7282998 -173286,-7282992 -173272,-7282987 -173254,-7282985 -173247,-7282985 -173234,-7282987 -173032,-7282990 -172944,-7282992 -172908,-7282990 -172883,-7282986 -172840,-7282985 -172824,-7282949 -172788,-7282958 -172752,-7282963 -172587,-7282991 -172498,-7283002 -172419,-7283021 -172407,-7283022 -172351,-7283029 -172327,-7283035 -172203,-7283079 -172190,-7283088 -172179,-7283094 -172168,-7283099 -172158,-7283103 -172061,-7283126 -172046,-7283138 -172030,-7283145 -172023,-7283147 -172006,-7283149 -171921,-7283176 -171852,-7283205 -171825,-7283228 -171718,-7283270 -171678,-7283281 -171669,-7283283 -171642,-7283285 -171510,-7283354 -171457,-7283384 -171361,-7283444 -171191,-7283538 -171156,-7283554 -171123,-7283561 -171066,-7283567 -170926,-7283616 -170740,-7283677 -170669,-7283704 -170585,-7283738 -170520,-7283761 -170409,-7283815 -170347,-7283839 -170268,-7283867 -170138,-7283895 -170070,-7283909 -169958,-7283936 -169918,-7283942 -169848,-7283934 -169733,-7283908 -169541,-7283875 -169464,-7283865 -169422,-7283862 -169414,-7283882 -169402,-7283956 -169319,-7283939 -169239,-7283917 -169067,-7283884 -168990,-7283861 -168954,-7283847 -168956,-7283829 -168915,-7283813 -168540,-7283727 -168339,-7283679 -168176,-7283643 -168100,-7283624 -168086,-7283622 -168064,-7283642 -168024,-7283646 -167986,-7283681 -167953,-7283703 -167919,-7283726 -167848,-7283765 -167780,-7283811 -167699,-7283863 -167588,-7283849 -167546,-7283841 -167557,-7283826 -167508,-7283826 -167461,-7283822 -167384,-7283808 -167326,-7283800 -167173,-7283778 -167145,-7283774 -167052,-7283773 -166972,-7283768 -166888,-7283768 -166858,-7283769 -166828,-7283770 -166752,-7283777 -166680,-7283787 -166642,-7283803 -166563,-7283830 -166569,-7283848 -166514,-7283882 -166489,-7283895 -166465,-7283908 -166417,-7283929 -166335,-7283984 -166295,-7284003 -166260,-7284012 -166137,-7284093 -166075,-7284141 -166027,-7284185 -165977,-7284220 -165960,-7284231 -165938,-7284243 -165910,-7284260 -165884,-7284279 -165865,-7284295 -165795,-7284380 -165756,-7284412 -165707,-7284452 -165662,-7284480 -165627,-7284486 -165592,-7284488 -165554,-7284497 -165493,-7284505 -165471,-7284514 -165421,-7284531 -165384,-7284540 -165347,-7284548 -165274,-7284557 -165252,-7284550 -165243,-7284544 -165203,-7284511 -165193,-7284498 -165184,-7284490 -165174,-7284482 -165164,-7284477 -165153,-7284471 -165143,-7284468 -165132,-7284466 -165121,-7284465 -165046,-7284465 -164938,-7284471 -164924,-7284471 -164915,-7284472 -164904,-7284475 -164899,-7284477 -164890,-7284488 -164882,-7284494 -164873,-7284498 -164861,-7284501 -164835,-7284500 -164808,-7284499 -164782,-7284495 -164637,-7284466 -164556,-7284455 -164522,-7284477 -164518,-7284477 -164490,-7284474 -164250,-7284455 -164161,-7284444 -164070,-7284437 -163992,-7284428 -163983,-7284439 -163876,-7284421 -163864,-7284444 -163777,-7284583 -163722,-7284651 -163683,-7284706 -163644,-7284713 -163591,-7284715 -163543,-7284722 -163518,-7284724 -163493,-7284725 -163485,-7284711 -163431,-7284709 -163423,-7284713 -163417,-7284714 -163410,-7284714 -163405,-7284712 -163398,-7284708 -163394,-7284701 -163392,-7284692 -163394,-7284686 -163394,-7284676 -163390,-7284671 -163383,-7284667 -163256,-7284647 -163216,-7284638 -163138,-7284609 -163097,-7284591 -163000,-7284539 -162969,-7284527 -162952,-7284523 -162941,-7284518 -162933,-7284514 -162926,-7284509 -162916,-7284501 -162846,-7284421 -162685,-7284231 -162613,-7284137 -162593,-7284101 -162582,-7284078 -162572,-7284055 -162554,-7284007 -162505,-7284034 -162467,-7284055 -162433,-7284095 -162427,-7284115 -162421,-7284135 -162414,-7284186 -162416,-7284210 -162424,-7284280 -162420,-7284316 -162387,-7284335 -162297,-7284359 -162262,-7284385 -162214,-7284411 -162200,-7284418 -162187,-7284424 -162143,-7284438 -162109,-7284459 -162090,-7284468 -162075,-7284426 -162060,-7284377 -162046,-7284312 -162039,-7284245 -162031,-7284190 -162014,-7284092 -161973,-7283906 -161964,-7283872 -161947,-7283817 -161901,-7283667 -161874,-7283544 -161858,-7283513 -161840,-7283501 -161810,-7283504 -161793,-7283502 -161781,-7283474 -161770,-7283445 -161757,-7283373 -161736,-7283287 -161726,-7283238 -161670,-7283086 -161648,-7283018 -161623,-7282949 -161603,-7282855 -161549,-7282863 -161495,-7282879 -161432,-7282890 -161393,-7282905 -161338,-7282918 -161217,-7282921 -161158,-7282915 -161129,-7282915 -161102,-7282915 -161063,-7282917 -161033,-7282909 -161007,-7282903 -160984,-7282893 -160971,-7282889 -160957,-7282886 -160926,-7282882 -160899,-7282873 -160871,-7282867 -160849,-7282858 -160822,-7282840 -160809,-7282826 -160796,-7282812 -160795,-7282806 -160793,-7282798 -160789,-7282794 -160784,-7282790 -160778,-7282789 -160772,-7282790 -160766,-7282793 -160759,-7282800 -160678,-7282816 -160681,-7282847 -160665,-7282865 -160660,-7282879 -160667,-7282891 -160670,-7282901 -160665,-7282923 -160664,-7282951 -160660,-7282975 -160637,-7282999 -160630,-7283044 -160620,-7283081 -160622,-7283100 -160604,-7283107 -160592,-7283127 -160583,-7283152 -160562,-7283186 -160566,-7283216 -160567,-7283228 -160553,-7283246 -160531,-7283262 -160512,-7283278 -160498,-7283276 -160488,-7283277 -160478,-7283279 -160471,-7283283 -160465,-7283287 -160441,-7283314 -160413,-7283332 -160396,-7283323 -160376,-7283335 -160352,-7283337 -160328,-7283343 -160324,-7283345 -160303,-7283374 -160282,-7283376 -160276,-7283371 -160259,-7283381 -160234,-7283407 -160229,-7283426 -160261,-7283431 -160267,-7283460 -160274,-7283482 -160290,-7283503 -160290,-7283516 -160298,-7283536 -160300,-7283555 -160289,-7283567 -160284,-7283582 -160276,-7283594 -160226,-7283587 -160227,-7283608 -160221,-7283622 -160217,-7283639 -160211,-7283651 -160192,-7283641 -160176,-7283635 -160159,-7283650 -160148,-7283671 -160143,-7283689 -160117,-7283672 -160109,-7283656 -160099,-7283649 -160085,-7283648 -160077,-7283654 -160074,-7283664 -160075,-7283688 -160070,-7283698 -160064,-7283706 -160057,-7283706 -160035,-7283694 -160019,-7283694 -160007,-7283700 -159969,-7283730 -159944,-7283751 -159925,-7283763 -159908,-7283769 -159896,-7283772 -159878,-7283781 -159850,-7283790 -159834,-7283794 -159825,-7283793 -159819,-7283790 -159793,-7283764 -159783,-7283744 -159778,-7283737 -159768,-7283730 -159754,-7283726 -159732,-7283722 -159711,-7283722 -159699,-7283721 -159673,-7283703 -159666,-7283702 -159655,-7283707 -159642,-7283721 -159629,-7283727 -159613,-7283727 -159604,-7283720 -159598,-7283691 -159596,-7283686 -159580,-7283681 -159571,-7283682 -159557,-7283686 -159541,-7283694 -159517,-7283703 -159492,-7283707 -159476,-7283708 -159461,-7283716 -159445,-7283731 -159427,-7283747 -159418,-7283750 -159409,-7283750 -159392,-7283739 -159377,-7283723 -159366,-7283715 -159353,-7283716 -159339,-7283726 -159330,-7283740 -159321,-7283786 -159313,-7283803 -159285,-7283830 -159251,-7283869 -159220,-7283903 -159210,-7283918 -159192,-7283935 -159149,-7283961 -159143,-7283968 -159146,-7283988 -159153,-7284008 -159153,-7284024 -159131,-7284063 -159112,-7284090 -159110,-7284109 -159105,-7284152 -159096,-7284177 -159096,-7284191 -159108,-7284211 -159120,-7284219 -159142,-7284221 -159152,-7284224 -159158,-7284232 -159165,-7284253 -159169,-7284297 -159169,-7284321 -159163,-7284354 -159160,-7284374 -159130,-7284415 -159130,-7284456 -159125,-7284500 -159129,-7284524 -159141,-7284566 -159173,-7284597 -159182,-7284608 -159182,-7284620 -159160,-7284655 -159160,-7284683 -159131,-7284736 -159120,-7284745 -159100,-7284754 -159080,-7284782 -159072,-7284793 -159069,-7284803 -159067,-7284832 -159053,-7284845 -159020,-7284868 -158983,-7284887 -158966,-7284896 -158958,-7284904 -158956,-7284906 -158955,-7284921 -158968,-7284944 -158972,-7284961 -158968,-7284966 -158955,-7284971 -158930,-7284969 -158905,-7284962 -158895,-7284963 -158887,-7284972 -158884,-7284984 -158883,-7285002 -158875,-7285030 -158846,-7285043 -158828,-7285057 -158816,-7285071 -158808,-7285085 -158798,-7285084 -158777,-7285072 -158750,-7285072 -158744,-7285074 -158732,-7285090 -158731,-7285103 -158747,-7285131 -158745,-7285139 -158735,-7285146 -158723,-7285147 -158707,-7285145 -158687,-7285137 -158663,-7285121 -158644,-7285112 -158633,-7285113 -158624,-7285121 -158613,-7285141 -158596,-7285153 -158564,-7285161 -158534,-7285174 -158507,-7285195 -158487,-7285203 -158476,-7285210 -158461,-7285216 -158444,-7285219 -158429,-7285217 -158414,-7285201 -158403,-7285186 -158394,-7285176 -158368,-7285159 -158351,-7285146 -158331,-7285111 -158277,-7285051 -158274,-7285022 -158291,-7285008 -158311,-7284988 -158316,-7284974 -158320,-7284944 -158316,-7284901 -158315,-7284867 -158308,-7284821 -158309,-7284759 -158298,-7284722 -158293,-7284715 -158284,-7284712 -158235,-7284713 -158221,-7284710 -158197,-7284698 -158181,-7284677 -158165,-7284666 -158152,-7284649 -158147,-7284626 -158137,-7284614 -158116,-7284603 -158096,-7284603 -158078,-7284596 -158037,-7284575 -158018,-7284548 -158003,-7284553 -157982,-7284578 -157965,-7284592 -157955,-7284597 -157936,-7284602 -157925,-7284598 -157906,-7284583 -157881,-7284586 -157842,-7284554 -157812,-7284544 -157788,-7284529 -157744,-7284498 -157735,-7284490 -157731,-7284479 -157731,-7284469 -157746,-7284441 -157746,-7284429 -157741,-7284413 -157731,-7284396 -157722,-7284387 -157692,-7284368 -157671,-7284351 -157659,-7284330 -157660,-7284302 -157667,-7284283 -157667,-7284264 -157665,-7284250 -157650,-7284225 -157636,-7284213 -157605,-7284194 -157572,-7284179 -157552,-7284178 -157520,-7284153 -157504,-7284133 -157483,-7284099 -157463,-7284048 -157463,-7284028 -157466,-7284018 -157483,-7284001 -157483,-7283966 -157469,-7283931 -157457,-7283907 -157418,-7283872 -157399,-7283859 -157381,-7283850 -157355,-7283839 -157335,-7283827 -157317,-7283808 -157307,-7283785 -157299,-7283771 -157283,-7283760 -157258,-7283756 -157227,-7283745 -157199,-7283737 -157183,-7283727 -157131,-7283683 -157094,-7283646 -157109,-7283569 -157104,-7283549 -157068,-7283523 -157027,-7283503 -157011,-7283501 -156999,-7283502 -156991,-7283513 -156985,-7283525 -156981,-7283542 -156969,-7283560 -156908,-7283537 -156871,-7283536 -156836,-7283538 -156818,-7283544 -156754,-7283542 -156747,-7283534 -156744,-7283493 -156740,-7283477 -156725,-7283458 -156708,-7283438 -156696,-7283427 -156681,-7283423 -156666,-7283419 -156658,-7283412 -156665,-7283406 -156675,-7283396 -156667,-7283318 -156685,-7283299 -156701,-7283289 -156701,-7283280 -156698,-7283276 -156700,-7283254 -156687,-7283246 -156694,-7283203 -156701,-7283176 -156694,-7283159 -156695,-7283148 -156709,-7283127 -156717,-7283098 -156720,-7283074 -156731,-7283058 -156731,-7283030 -156745,-7283013 -156754,-7282995 -156757,-7282950 -156774,-7282929 -156787,-7282909 -156794,-7282815 -156803,-7282800 -156803,-7282789 -156810,-7282782 -156816,-7282769 -156833,-7282713 -156839,-7282701 -156847,-7282681 -156896,-7282634 -156944,-7282596 -156954,-7282584 -156974,-7282568 -157008,-7282537 -157029,-7282525 -157075,-7282492 -157105,-7282462 -157116,-7282454 -157153,-7282436 -157159,-7282425 -157173,-7282419 -157182,-7282409 -157197,-7282406 -157220,-7282398 -157243,-7282383 -157258,-7282367 -157277,-7282358 -157303,-7282358 -157302,-7282325 -157290,-7282262 -157291,-7282219 -157300,-7282154 -157309,-7282100 -157315,-7282009 -157319,-7281969 -157352,-7281839 -157361,-7281785 -157383,-7281711 -157386,-7281695 -157400,-7281659 -157401,-7281635 -157409,-7281620 -157417,-7281583 -157434,-7281547 -157452,-7281499 -157462,-7281454 -157462,-7281419 -157464,-7281357 -157471,-7281335 -157475,-7281306 -157487,-7281244 -157502,-7281193 -157502,-7281150 -157510,-7281133 -157510,-7281109 -157514,-7281099 -157515,-7280944 -157530,-7280891 -157560,-7280784 -157579,-7280700 -157586,-7280646 -157610,-7280547 -157617,-7280456 -157645,-7280400 -157639,-7280327 -157630,-7280219 -157624,-7280173 -157624,-7280142 -157644,-7280097 -157683,-7280044 -157696,-7280016 -157718,-7279974 -157719,-7279890 -157709,-7279851 -157707,-7279828 -157721,-7279789 -157729,-7279778 -157731,-7279722 -157734,-7279709 -157732,-7279669 -157714,-7279600 -157671,-7279518 -157669,-7279499 -157647,-7279444 -157607,-7279360 -157556,-7279283 -157533,-7279261 -157481,-7279192 -157468,-7279161 -157420,-7279098 -157437,-7279071 -157478,-7279048 -157481,-7279039 -157497,-7279028 -157543,-7279002 -157655,-7278942 -157661,-7278939 -157600,-7278856 -157567,-7278798 -157501,-7278699 -157489,-7278673 -157480,-7278642 -157475,-7278605 -157442,-7278541 -157458,-7278516 -157480,-7278470 -157481,-7278447 -157454,-7278406 -157454,-7278396 -157416,-7278324 -157399,-7278292 -157372,-7278248 -157341,-7278208 -157304,-7278146 -157253,-7278068 -157136,-7277901 -157133,-7277903 -157109,-7277868 -157108,-7277866 -157110,-7277860 -157112,-7277859 -157118,-7277855 -157138,-7277842 -157151,-7277834 -157232,-7277790 -157269,-7277775 -157297,-7277764 -157383,-7277721 -157387,-7277719 -157496,-7277675 -157554,-7277634 -157601,-7277610 -157640,-7277590 -157680,-7277579 -157761,-7277572 -157809,-7277567 -157834,-7277566 -157955,-7277572 -158008,-7277574 -158112,-7277576 -158159,-7277572 -158230,-7277572 -158281,-7277576 -158338,-7277579 -158353,-7277576 -158427,-7277561 -158466,-7277557 -158521,-7277557 -158557,-7277553 -158611,-7277533 -158640,-7277527 -158672,-7277515 -158724,-7277505 -158762,-7277503 -158831,-7277476 -158861,-7277467 -158898,-7277448 -158917,-7277442 -158969,-7277416 -158988,-7277411 -159088,-7277358 -159144,-7277317 -159176,-7277298 -159222,-7277280 -159387,-7277192 -159467,-7277149 -159488,-7277134 -159504,-7277132 -159559,-7277103 -159605,-7277087 -159693,-7277044 -159739,-7277017 -159759,-7277004 -159778,-7276994 -159816,-7276975 -159844,-7276956 -159861,-7276936 -159860,-7276926 -159855,-7276912 -159791,-7276808 -159792,-7276789 -159833,-7276761 -159879,-7276724 -159970,-7276661 -159969,-7276646 -159973,-7276640 -160023,-7276603 -160062,-7276578 -160226,-7276456 -160293,-7276431 -160377,-7276396 -160511,-7276338 -160718,-7276252 -160860,-7276187 -160907,-7276167 -161001,-7276124 -161022,-7276117 -161052,-7276103 -160983,-7275943 -160959,-7275868 -160939,-7275804 -160930,-7275766 -160926,-7275711 -160919,-7275579 -160914,-7275564 -160903,-7275510 -160889,-7275461 -160877,-7275406 -160873,-7275379 -160864,-7275329 -160861,-7275306 -160828,-7275144 -160818,-7275127 -160809,-7275074 -160791,-7274994 -160782,-7274920 -160782,-7274879 -160772,-7274861 -160764,-7274833 -160758,-7274812 -160755,-7274728 -160753,-7274706 -160739,-7274637 -160725,-7274594 -160714,-7274525 -160692,-7274352 -160693,-7274276 -160696,-7274267 -160707,-7274234 -160711,-7274204 -160707,-7274171 -160698,-7274129 -160689,-7274085 -160675,-7274039 -160651,-7273942 -160626,-7273843 -160624,-7273827 -160607,-7273757 -160607,-7273739 -160595,-7273719 -160587,-7273688 -160590,-7273675 -160627,-7273663 -160652,-7273659 -160673,-7273647 -160674,-7273615 -160727,-7273563 -160744,-7273522 -160746,-7273517 -160749,-7273506 -160752,-7273457 -160764,-7273456 -160765,-7273419 -160762,-7273357 -160772,-7273345 -160766,-7273279 -160765,-7273240 -160773,-7273221 -160787,-7273202 -160846,-7273144 -160856,-7273136 -160861,-7273125 -160867,-7273111 -160869,-7273096 -160871,-7273051 -160882,-7272999 -160888,-7272989 -160888,-7272892 -160890,-7272875 -160929,-7272802 -160981,-7272722 -160981,-7272705 -160972,-7272680 -160973,-7272670 -160997,-7272648 -161028,-7272623 -161060,-7272596 -161078,-7272562 -161076,-7272496 -161050,-7272478 -161047,-7272465 -161034,-7272454 -161025,-7272435 -161010,-7272423 -161003,-7272410 -161002,-7272402 -160986,-7272386 -160972,-7272378 -160961,-7272369 -160957,-7272359 -160958,-7272346 -160965,-7272332 -160964,-7272315 -160957,-7272306 -160933,-7272290 -160919,-7272278 -160927,-7272264 -160928,-7272249 -160916,-7272220 -160902,-7272209 -160862,-7272199 -160840,-7272197 -160818,-7272178 -160803,-7272157 -160764,-7272125 -160757,-7272113 -160740,-7272064 -160727,-7272048 -160777,-7272033 -160832,-7272013 -160839,-7272002 -160896,-7271944 -160958,-7271880 -161071,-7271907 -161160,-7271927 -161223,-7271940 -161307,-7271950 -161311,-7271945 -161329,-7271886 -161359,-7271782 -161369,-7271747 -161363,-7271743 -161356,-7271738 -161352,-7271735 -161332,-7271717 -161310,-7271690 -161291,-7271665 -161193,-7271532 -161164,-7271499 -161137,-7271466 -161104,-7271425 -161069,-7271384 -161039,-7271349 -161017,-7271323 -161006,-7271303 -160985,-7271234 -160983,-7271225 -160981,-7271197 -160964,-7271133 -160946,-7271101 -160938,-7271067 -160926,-7271009 -160925,-7270963 -160927,-7270939 -160927,-7270888 -160921,-7270831 -160895,-7270773 -160880,-7270744 -160864,-7270704 -160844,-7270664 -160840,-7270644 -160833,-7270627 -160827,-7270599 -160819,-7270600 -160796,-7270614 -160776,-7270636 -160762,-7270646 -160737,-7270656 -160722,-7270674 -160697,-7270685 -160676,-7270698 -160654,-7270725 -160538,-7270742 -160477,-7270749 -160434,-7270752 -160330,-7270751 -160267,-7270743 -160166,-7270729 -160158,-7270718 -160157,-7270703 -160147,-7270688 -160142,-7270691 -160133,-7270693 -160124,-7270690 -160084,-7270630 -160080,-7270628 -159977,-7270680 -159937,-7270696 -159914,-7270707 -159896,-7270718 -159880,-7270719 -159869,-7270713 -159854,-7270712 -159837,-7270703 -159826,-7270696 -159806,-7270687 -159788,-7270667 -159783,-7270652 -159766,-7270619 -159761,-7270616 -159747,-7270625 -159728,-7270637 -159713,-7270638 -159705,-7270627 -159676,-7270586 -159657,-7270553 -159608,-7270460 -159577,-7270398 -159545,-7270343 -159479,-7270217 -159432,-7270132 -159406,-7270081 -159407,-7270073 -159402,-7270067 -159397,-7270062 -159390,-7270036 -159368,-7269996 -159354,-7269971 -159346,-7269954 -159338,-7269951 -159327,-7269954 -159268,-7269964 -159218,-7269965 -159178,-7269969 -159158,-7269951 -159133,-7269914 -159118,-7269896 -159102,-7269885 -159081,-7269868 -159024,-7269854 -158995,-7269846 -158961,-7269827 -158918,-7269805 -158893,-7269787 -158867,-7269765 -158853,-7269758 -158838,-7269725 -158815,-7269694 -158787,-7269668 -158762,-7269667 -158744,-7269677 -158718,-7269679 -158687,-7269652 -158680,-7269649 -158661,-7269657 -158615,-7269696 -158555,-7269633 -158536,-7269609 -158528,-7269600 -158517,-7269585 -158470,-7269550 -158422,-7269501 -158383,-7269465 -158354,-7269432 -158313,-7269334 -158303,-7269302 -158293,-7269287 -158275,-7269266 -158260,-7269249 -158252,-7269233 -158239,-7269190 -158238,-7269160 -158245,-7269130 -158244,-7269069 -158234,-7268995 -158221,-7268963 -158228,-7268942 -158230,-7268924 -158220,-7268888 -158215,-7268861 -158213,-7268844 -158213,-7268824 -158214,-7268808 -158216,-7268794 -158224,-7268766 -158226,-7268761 -158290,-7268626 -158295,-7268585 -158284,-7268549 -158287,-7268531 -158305,-7268516 -158340,-7268493 -158355,-7268480 -158371,-7268439 -158391,-7268409 -158421,-7268353 -158461,-7268250 -158455,-7268210 -158454,-7268105 -158475,-7268102 -158639,-7268058 -158782,-7268019 -158922,-7267972 -159037,-7267929 -159032,-7267901 -159025,-7267863 -158991,-7267771 -158962,-7267652 -158946,-7267578 -158911,-7267466 -158869,-7267317 -158854,-7267252 -158823,-7267153 -158779,-7267006 -158773,-7266959 -158758,-7266895 -158746,-7266876 -158729,-7266758 -158724,-7266745 -158722,-7266710 -158713,-7266680 -158710,-7266650 -158690,-7266552 -158687,-7266508 -158686,-7266462 -158688,-7266402 -158687,-7266323 -158685,-7266291 -158670,-7266229 -158654,-7266139 -158646,-7266020 -158636,-7265936 -158638,-7265862 -158638,-7265771 -158628,-7265743 -158635,-7265679 -158643,-7265608 -158648,-7265549 -158658,-7265501 -158666,-7265490 -158680,-7265481 -158696,-7265454 -158705,-7265430 -158728,-7265380 -158746,-7265341 -158762,-7265294 -158783,-7265217 -158811,-7265097 -158829,-7265065 -158848,-7265045 -158876,-7265021 -158897,-7264999 -158921,-7264974 -158931,-7264952 -158941,-7264944 -158972,-7264881 -159026,-7264756 -159071,-7264650 -159094,-7264570 -159100,-7264542 -159110,-7264519 -159124,-7264506 -159213,-7264477 -159269,-7264458 -159352,-7264416 -159440,-7264379 -159556,-7264319 -159589,-7264290 -159572,-7264265 -159549,-7264203 -159550,-7264193 -159544,-7264182 -159552,-7264179 -159570,-7264165 -159710,-7264085 -159725,-7264074 -159785,-7264027 -159723,-7263920 -159749,-7263882 -159777,-7263853 -159833,-7263786 -159893,-7263698 -159865,-7263674 -159839,-7263660 -159823,-7263638 -159765,-7263590 -159574,-7263413 -159534,-7263372 -159583,-7263301 -159649,-7263198 -159688,-7263122 -159705,-7263093 -159712,-7263066 -159732,-7263027 -159744,-7263037 -159788,-7263063 -159808,-7263077 -159846,-7263106 -159956,-7263196 -159984,-7263217 -159999,-7263230 -160019,-7263249 -160070,-7263286 -160096,-7263306 -160134,-7263332 -160166,-7263349 -160191,-7263361 -160234,-7263388 -160267,-7263413 -160363,-7263468 -160457,-7263538 -160479,-7263556 -160590,-7263651 -160610,-7263670 -160617,-7263678 -160621,-7263683 -160644,-7263715 -160708,-7263821 -160770,-7263944 -160800,-7264018 -160864,-7264131 -160883,-7264161 -160917,-7264209 -160949,-7264259 -161024,-7264356 -161068,-7264408 -161089,-7264431 -161121,-7264462 -161208,-7264538 -161361,-7264675 -161518,-7264806 -161536,-7264823 -161554,-7264839 -161619,-7264910 -161624,-7264918 -161634,-7264933 -161651,-7264964 -161677,-7265017 -161717,-7265090 -161754,-7265162 -161876,-7265373 -161951,-7265510 -161958,-7265525 -161974,-7265565 -162023,-7265682 -162039,-7265727 -162046,-7265752 -162055,-7265790 -162074,-7265833 -162093,-7265876 -162137,-7265963 -162179,-7266021 -162200,-7266046 -162229,-7266078 -162281,-7266124 -162316,-7266149 -162360,-7266176 -162425,-7266208 -162449,-7266220 -162524,-7266243 -162553,-7266247 -162578,-7266249 -162604,-7266251 -162641,-7266250 -162686,-7266249 -162703,-7266248 -162724,-7266245 -162761,-7266238 -162787,-7266231 -162928,-7266179 -162953,-7266163 -163005,-7266133 -163103,-7266074 -163228,-7265975 -163260,-7265954 -163284,-7265940 -163309,-7265926 -163344,-7265909 -163348,-7265905 -163470,-7265860 -163540,-7265840 -163600,-7265821 -163757,-7265781 -163809,-7265769 -163830,-7265763 -163851,-7265758 -163955,-7265723 -163983,-7265708 -163991,-7265702 -164084,-7265632 -164106,-7265613 -164130,-7265585 -164147,-7265561 -164158,-7265541 -164178,-7265506 -164190,-7265484 -164199,-7265462 -164210,-7265431 -164217,-7265407 -164222,-7265383 -164226,-7265359 -164229,-7265317 -164258,-7265152 -164262,-7265106 -164261,-7265080 -164258,-7265062 -164254,-7265043 -164248,-7265025 -164174,-7264852 -164151,-7264816 -164131,-7264790 -164115,-7264770 -164088,-7264739 -164069,-7264730 -164013,-7264686 -163996,-7264673 -163964,-7264661 -163914,-7264651 -163885,-7264646 -163866,-7264644 -163794,-7264651 -163754,-7264658 -163741,-7264661 -163633,-7264690 -163503,-7264721 -163482,-7264729 -163454,-7264737 -163325,-7264759 -163313,-7264761 -163159,-7264770 -163061,-7264774 -163035,-7264773 -162951,-7264762 -162926,-7264758 -162889,-7264750 -162803,-7264727 -162775,-7264714 -162761,-7264705 -162746,-7264692 -162653,-7264634 -162587,-7264576 -162566,-7264556 -162552,-7264540 -162532,-7264515 -162515,-7264492 -162478,-7264434 -162458,-7264386 -162436,-7264326 -162356,-7264052 -162346,-7263991 -162341,-7263818 -162343,-7263789 -162347,-7263771 -162349,-7263748 -162368,-7263686 -162415,-7263593 -162508,-7263393 -162523,-7263368 -162540,-7263335 -162550,-7263313 -162562,-7263279 -162622,-7263158 -162636,-7263121 -162643,-7263097 -162665,-7263052 -162674,-7263010 -162682,-7262978 -162722,-7262793 -162728,-7262765 -162730,-7262745 -162729,-7262732 -162726,-7262706 -162723,-7262665 -162706,-7262590 -162689,-7262542 -162680,-7262503 -162676,-7262493 -162670,-7262488 -162664,-7262483 -162649,-7262446 -162626,-7262413 -162608,-7262387 -162569,-7262342 -162521,-7262289 -162470,-7262236 -162446,-7262205 -162397,-7262150 -162389,-7262140 -162369,-7262108 -162333,-7262054 -162316,-7262035 -162292,-7261980 -162265,-7261937 -162258,-7261911 -162256,-7261889 -162257,-7261875 -162265,-7261824 -162270,-7261811 -162280,-7261790 -162289,-7261774 -162292,-7261768 -162343,-7261701 -162424,-7261602 -162546,-7261469 -162565,-7261447 -162584,-7261423 -162633,-7261355 -162679,-7261286 -162686,-7261266 -162699,-7261237 -162709,-7261210 -162720,-7261176 -162733,-7261141 -162741,-7261116 -162744,-7261101 -162747,-7261070 -162773,-7260940 -162792,-7260864 -162814,-7260803 -162850,-7260709 -162888,-7260624 -162916,-7260560 -162935,-7260512 -162951,-7260466 -162953,-7260454 -162953,-7260437 -162953,-7260411 -162949,-7260356 -162941,-7260325 -162933,-7260307 -162907,-7260258 -162850,-7260206 -162827,-7260182 -162778,-7260144 -162688,-7260077 -162655,-7260046 -162640,-7260034 -162613,-7260007 -162576,-7259963 -162561,-7259942 -162547,-7259926 -162543,-7259912 -162530,-7259878 -162519,-7259837 -162523,-7259797 -162524,-7259677 -162521,-7259629 -162518,-7259606 -162504,-7259534 -162499,-7259516 -162494,-7259498 -162479,-7259474 -162463,-7259453 -162403,-7259394 -162383,-7259381 -162352,-7259368 -162282,-7259342 -162170,-7259275 -162153,-7259261 -162136,-7259251 -162117,-7259244 -162103,-7259240 -162053,-7259220 -162002,-7259195 -161917,-7259140 -161902,-7259129 -161862,-7259096 -161851,-7259085 -161844,-7259076 -161832,-7259059 -161816,-7259030 -161806,-7259015 -161803,-7259009 -161801,-7258999 -161799,-7258989 -161800,-7258975 -161794,-7258927 -161793,-7258912 -161794,-7258905 -161818,-7258870 -161902,-7258770 -161915,-7258756 -161930,-7258743 -161945,-7258731 -161973,-7258715 -162000,-7258693 -162056,-7258660 -162129,-7258614 -162272,-7258565 -162311,-7258549 -162338,-7258536 -162404,-7258499 -162556,-7258419 -162665,-7258356 -162701,-7258340 -162728,-7258329 -162745,-7258315 -162753,-7258307 -162759,-7258299 -162779,-7258265 -162797,-7258235 -162801,-7258227 -162807,-7258212 -162810,-7258200 -162821,-7258126 -162831,-7258063 -162834,-7258044 -162837,-7258027 -162838,-7258013 -162837,-7257998 -162835,-7257975 -162837,-7257950 -162823,-7257906 -162810,-7257858 -162786,-7257802 -162740,-7257681 -162735,-7257670 -162718,-7257641 -162707,-7257625 -162679,-7257587 -162658,-7257558 -162633,-7257520 -162617,-7257500 -162601,-7257484 -162562,-7257452 -162535,-7257425 -162518,-7257410 -162496,-7257387 -162488,-7257379 -162473,-7257369 -162439,-7257350 -162413,-7257332 -162390,-7257323 -162352,-7257301 -162318,-7257279 -162309,-7257273 -162281,-7257248 -162250,-7257221 -162246,-7257217 -162234,-7257205 -162222,-7257193 -162182,-7257145 -162141,-7257099 -162077,-7257012 -162057,-7256980 -162049,-7256966 -162019,-7256905 -161979,-7256804 -161961,-7256764 -161961,-7256762 -161958,-7256752 -161955,-7256738 -161952,-7256688 -161946,-7256650 -161945,-7256631 -161944,-7256614 -161946,-7256591 -161948,-7256570 -161960,-7256514 -161978,-7256467 -161990,-7256445 -162000,-7256432 -162009,-7256410 -162055,-7256358 -162097,-7256314 -162119,-7256296 -162204,-7256231 -162261,-7256199 -162327,-7256166 -162395,-7256136 -162468,-7256110 -162507,-7256094 -162566,-7256073 -162585,-7256068 -162604,-7256065 -162624,-7256063 -162660,-7256067 -162682,-7256068 -162703,-7256067 -162719,-7256065 -162763,-7256075 -162773,-7256078 -162783,-7256081 -162812,-7256092 -162827,-7256097 -162871,-7256109 -162941,-7256152 -162981,-7256181 -163045,-7256234 -163104,-7256294 -163275,-7256451 -163292,-7256466 -163304,-7256476 -163328,-7256491 -163354,-7256504 -163385,-7256526 -163413,-7256544 -163441,-7256560 -163545,-7256614 -163561,-7256624 -163579,-7256638 -163591,-7256647 -163613,-7256657 -163657,-7256682 -163683,-7256701 -163692,-7256707 -163720,-7256719 -163757,-7256749 -163774,-7256766 -163791,-7256785 -163819,-7256824 -163833,-7256839 -163841,-7256850 -163847,-7256859 -163853,-7256871 -163860,-7256890 -163863,-7256900 -163868,-7256917 -163871,-7256930 -163874,-7256941 -163878,-7256970 -163884,-7256996 -163887,-7257015 -163889,-7257034 -163897,-7257172 -163896,-7257238 -163885,-7257273 -163880,-7257283 -163874,-7257292 -163853,-7257317 -163725,-7257404 -163682,-7257438 -163616,-7257497 -163592,-7257521 -163572,-7257547 -163529,-7257605 -163511,-7257635 -163485,-7257690 -163461,-7257734 -163454,-7257750 -163445,-7257773 -163432,-7257820 -163399,-7257922 -163389,-7257968 -163379,-7258013 -163370,-7258065 -163369,-7258076 -163371,-7258129 -163373,-7258158 -163374,-7258172 -163383,-7258224 -163383,-7258236 -163386,-7258276 -163414,-7258364 -163450,-7258410 -163474,-7258444 -163491,-7258464 -163505,-7258482 -163529,-7258507 -163753,-7258778 -163785,-7258816 -163803,-7258841 -163854,-7258895 -163893,-7258934 -163961,-7259022 -163972,-7259039 -163984,-7259057 -164015,-7259108 -164046,-7259183 -164080,-7259272 -164087,-7259310 -164098,-7259477 -164101,-7259535 -164122,-7259737 -164123,-7259881 -164129,-7259919 -164134,-7259962 -164141,-7260095 -164142,-7260141 -164150,-7260210 -164164,-7260253 -164174,-7260285 -164190,-7260316 -164199,-7260346 -164209,-7260366 -164224,-7260392 -164237,-7260412 -164247,-7260424 -164261,-7260438 -164302,-7260471 -164323,-7260488 -164357,-7260511 -164363,-7260516 -164379,-7260531 -164411,-7260565 -164488,-7260636 -164520,-7260652 -164534,-7260657 -164585,-7260682 -164612,-7260692 -164629,-7260696 -164641,-7260696 -164651,-7260695 -164661,-7260693 -164719,-7260669 -164765,-7260643 -164821,-7260604 -164855,-7260580 -164900,-7260542 -165096,-7260384 -165110,-7260376 -165129,-7260367 -165175,-7260340 -165190,-7260332 -165298,-7260282 -165353,-7260265 -165402,-7260251 -165440,-7260248 -165487,-7260243 -165534,-7260249 -165562,-7260256 -165586,-7260264 -165621,-7260280 -165686,-7260316 -165768,-7260366 -165849,-7260402 -165880,-7260414 -165945,-7260437 -165982,-7260444 -166009,-7260448 -166042,-7260452 -166092,-7260455 -166181,-7260454 -166329,-7260444 -166340,-7260444 -166379,-7260447 -166416,-7260453 -166456,-7260464 -166477,-7260471 -166510,-7260484 -166609,-7260516 -166631,-7260528 -166649,-7260536 -166675,-7260544 -166712,-7260566 -166727,-7260577 -166795,-7260632 -166816,-7260655 -166825,-7260667 -166836,-7260685 -166844,-7260699 -166873,-7260763 -166889,-7260809 -166898,-7260845 -166927,-7261017 -166931,-7261033 -166933,-7261046 -166936,-7261128 -166916,-7261204 -166912,-7261215 -166906,-7261227 -166898,-7261240 -166888,-7261252 -166872,-7261270 -166801,-7261331 -166759,-7261364 -166632,-7261474 -166605,-7261503 -166588,-7261520 -166563,-7261543 -166507,-7261598 -166488,-7261615 -166457,-7261640 -166435,-7261659 -166299,-7261790 -166226,-7261864 -166193,-7261906 -166153,-7261949 -166131,-7261980 -166110,-7262014 -166085,-7262057 -166064,-7262098 -166012,-7262220 -165989,-7262289 -165973,-7262330 -165941,-7262412 -165932,-7262433 -165929,-7262457 -165926,-7262477 -165921,-7262497 -165919,-7262515 -165925,-7262580 -165935,-7262614 -165960,-7262667 -165965,-7262675 -165989,-7262710 -166003,-7262727 -166035,-7262759 -166055,-7262774 -166063,-7262779 -166074,-7262786 -166100,-7262797 -166146,-7262813 -166168,-7262817 -166179,-7262818 -166198,-7262818 -166228,-7262815 -166291,-7262809 -166346,-7262809 -166357,-7262807 -166376,-7262803 -166498,-7262763 -166518,-7262757 -166577,-7262733 -166633,-7262708 -166683,-7262683 -166845,-7262593 -167130,-7262421 -167194,-7262364 -167304,-7262276 -167472,-7262131 -167540,-7262076 -167563,-7262055 -167583,-7262036 -167612,-7262002 -167624,-7261986 -167630,-7261977 -167644,-7261952 -167658,-7261929 -167666,-7261913 -167672,-7261892 -167684,-7261823 -167699,-7261744 -167705,-7261641 -167710,-7261498 -167731,-7261338 -167733,-7261331 -167737,-7261316 -167743,-7261301 -167796,-7261211 -167826,-7261154 -167878,-7261046 -167907,-7260978 -167918,-7260950 -167925,-7260937 -167973,-7260864 -168063,-7260738 -168084,-7260714 -168106,-7260696 -168123,-7260683 -168143,-7260671 -168163,-7260659 -168178,-7260652 -168209,-7260640 -168221,-7260638 -168241,-7260636 -168255,-7260635 -168269,-7260636 -168287,-7260638 -168305,-7260641 -168323,-7260646 -168349,-7260648 -168371,-7260657 -168404,-7260674 -168427,-7260689 -168440,-7260700 -168457,-7260715 -168471,-7260731 -168480,-7260743 -168490,-7260757 -168525,-7260824 -168549,-7260876 -168555,-7260891 -168572,-7260935 -168582,-7260997 -168585,-7261043 -168588,-7261071 -168594,-7261112 -168584,-7261166 -168579,-7261190 -168570,-7261218 -168565,-7261233 -168544,-7261275 -168529,-7261308 -168515,-7261332 -168418,-7261460 -168395,-7261494 -168372,-7261536 -168352,-7261586 -168337,-7261618 -168332,-7261633 -168330,-7261641 -168317,-7261739 -168315,-7261813 -168315,-7261834 -168316,-7261849 -168321,-7261888 -168336,-7261964 -168348,-7261994 -168419,-7262152 -168455,-7262202 -168476,-7262229 -168487,-7262242 -168552,-7262315 -168606,-7262361 -168697,-7262432 -168753,-7262468 -168780,-7262482 -168816,-7262498 -168881,-7262522 -168913,-7262537 -168935,-7262545 -168953,-7262550 -168970,-7262553 -168991,-7262556 -169001,-7262557 -169146,-7262561 -169183,-7262565 -169210,-7262567 -169229,-7262567 -169391,-7262559 -169407,-7262558 -169433,-7262555 -169478,-7262548 -169549,-7262533 -169589,-7262532 -169614,-7262533 -169652,-7262535 -169740,-7262546 -169868,-7262591 -169895,-7262592 -169919,-7262592 -169936,-7262591 -169975,-7262585 -170056,-7262564 -170071,-7262553 -170122,-7262535 -170164,-7262523 -170189,-7262514 -170225,-7262496 -170261,-7262469 -170278,-7262452 -170287,-7262443 -170303,-7262422 -170332,-7262387 -170349,-7262359 -170368,-7262318 -170377,-7262296 -170387,-7262268 -170399,-7262225 -170416,-7262108 -170418,-7262025 -170422,-7261995 -170439,-7261898 -170457,-7261760 -170462,-7261729 -170464,-7261705 -170463,-7261697 -170463,-7261666 -170460,-7261630 -170430,-7261494 -170366,-7261253 -170360,-7261236 -170357,-7261222 -170349,-7261170 -170348,-7261157 -170349,-7261124 -170363,-7261050 -170367,-7261013 -170366,-7260968 -170368,-7260937 -170368,-7260924 -170366,-7260906 -170361,-7260868 -170347,-7260816 -170341,-7260794 -170335,-7260777 -170329,-7260763 -170319,-7260744 -170283,-7260685 -170266,-7260671 -170251,-7260656 -170201,-7260617 -170191,-7260608 -170182,-7260601 -170172,-7260595 -170162,-7260591 -170107,-7260575 -170091,-7260573 -170074,-7260574 -170005,-7260572 -169959,-7260578 -169928,-7260579 -169881,-7260584 -169868,-7260584 -169842,-7260583 -169820,-7260582 -169703,-7260565 -169667,-7260551 -169632,-7260538 -169611,-7260524 -169503,-7260470 -169376,-7260403 -169296,-7260358 -169276,-7260348 -169266,-7260341 -169255,-7260331 -169242,-7260313 -169214,-7260284 -169201,-7260267 -169195,-7260258 -169182,-7260233 -169170,-7260201 -169155,-7260168 -169148,-7260150 -169145,-7260130 -169144,-7260111 -169145,-7260088 -169146,-7260045 -169144,-7260018 -169144,-7260003 -169145,-7259991 -169149,-7259974 -169152,-7259960 -169163,-7259939 -169166,-7259924 -169172,-7259907 -169179,-7259889 -169187,-7259876 -169204,-7259853 -169222,-7259836 -169293,-7259787 -169330,-7259766 -169382,-7259745 -169427,-7259726 -169474,-7259711 -169484,-7259709 -169544,-7259698 -169576,-7259694 -169616,-7259690 -169834,-7259675 -169883,-7259676 -169923,-7259673 -169953,-7259669 -170029,-7259669 -170098,-7259655 -170173,-7259637 -170242,-7259616 -170345,-7259588 -170378,-7259567 -170398,-7259562 -170410,-7259557 -170427,-7259548 -170468,-7259538 -170621,-7259513 -170731,-7259522 -170756,-7259530 -170779,-7259533 -170795,-7259536 -170816,-7259542 -170888,-7259576 -170964,-7259609 -171139,-7259690 -171174,-7259704 -171279,-7259738 -171312,-7259742 -171335,-7259746 -171351,-7259746 -171367,-7259748 -171383,-7259752 -171510,-7259798 -171540,-7259814 -171615,-7259848 -171648,-7259864 -171698,-7259882 -171721,-7259893 -171738,-7259898 -171758,-7259903 -171770,-7259904 -171855,-7259906 -171889,-7259904 -172021,-7259909 -172037,-7259908 -172046,-7259909 -172063,-7259913 -172080,-7259920 -172095,-7259930 -172107,-7259940 -172141,-7259970 -172254,-7260076 -172305,-7260120 -172424,-7260245 -172532,-7260363 -172613,-7260455 -172636,-7260485 -172670,-7260537 -172683,-7260579 -172698,-7260620 -172724,-7260703 -172747,-7260804 -172796,-7260975 -172800,-7260992 -172805,-7261006 -172812,-7261019 -172818,-7261031 -172855,-7261101 -172874,-7261157 -172884,-7261180 -172893,-7261202 -172908,-7261233 -172927,-7261279 -172958,-7261362 -172974,-7261416 -172984,-7261464 -172993,-7261487 -173001,-7261515 -173004,-7261532 -173008,-7261566 -173022,-7261649 -173026,-7261697 -173025,-7261753 -173022,-7261794 -173023,-7261828 -173015,-7261897 -173020,-7261943 -173021,-7261968 -173015,-7262076 -173019,-7262132 -173021,-7262152 -173029,-7262182 -173050,-7262318 -173056,-7262346 -173068,-7262404 -173076,-7262436 -173077,-7262461 -173082,-7262484 -173104,-7262521 -173123,-7262545 -173145,-7262568 -173157,-7262582 -173185,-7262606 -173224,-7262633 -173259,-7262651 -173286,-7262663 -173329,-7262675 -173346,-7262680 -173400,-7262692 -173522,-7262732 -173565,-7262752 -173587,-7262760 -173668,-7262786 -173817,-7262829 -173930,-7262872 -173963,-7262882 -173996,-7262896 -174015,-7262905 -174048,-7262925 -174146,-7262975 -174196,-7263003 -174264,-7263049 -174296,-7263068 -174313,-7263079 -174333,-7263095 -174344,-7263108 -174357,-7263120 -174365,-7263125 -174378,-7263132 -174512,-7263224 -174532,-7263240 -174558,-7263257 -174689,-7263320 -174714,-7263325 -174754,-7263337 -174846,-7263372 -174862,-7263379 -174886,-7263394 -174943,-7263423 -175009,-7263463 -175024,-7263474 -175036,-7263481 -175060,-7263490 -175090,-7263505 -175139,-7263538 -175168,-7263565 -175182,-7263583 -175190,-7263596 -175205,-7263627 -175238,-7263717 -175241,-7263731 -175253,-7263776 -175277,-7263890 -175289,-7263925 -175297,-7263947 -175312,-7263978 -175328,-7264011 -175357,-7264064 -175494,-7264276 -175550,-7264352 -175586,-7264390 -175607,-7264408 -175627,-7264427 -175646,-7264443 -175656,-7264453 -175669,-7264470 -175711,-7264518 -175718,-7264526 -175734,-7264536 -175740,-7264542 -175748,-7264551 -175760,-7264568 -175793,-7264604 -175872,-7264677 -175918,-7264717 -175938,-7264730 -175948,-7264735 -175965,-7264741 -176073,-7264791 -176193,-7264852 -176202,-7264857 -176211,-7264864 -176216,-7264869 -176228,-7264892 -176244,-7264918 -176275,-7264985 -176277,-7264993 -176277,-7265007 -176271,-7265039 -176267,-7265052 -176252,-7265082 -176234,-7265109 -176224,-7265117 -176148,-7265209 -176123,-7265235 -176110,-7265247 -176084,-7265273 -176000,-7265391 -175965,-7265437 -175950,-7265458 -175922,-7265499 -175909,-7265520 -175900,-7265555 -175888,-7265588 -175884,-7265605 -175878,-7265636 -175867,-7265734 -175860,-7265774 -175853,-7265826 -175850,-7265849 -175836,-7265910 -175796,-7266048 -175791,-7266061 -175774,-7266098 -175759,-7266128 -175752,-7266141 -175748,-7266151 -175745,-7266169 -175740,-7266249 -175738,-7266278 -175739,-7266287 -175743,-7266305 -175747,-7266321 -175767,-7266373 -175786,-7266405 -175797,-7266419 -175812,-7266432 -175828,-7266445 -175844,-7266455 -175874,-7266463 -175920,-7266465 -175936,-7266463 -175951,-7266460 -176010,-7266446 -176175,-7266390 -176208,-7266381 -176266,-7266364 -176419,-7266304 -176478,-7266279 -176543,-7266240 -176600,-7266204 -176636,-7266196 -176683,-7266191 -176718,-7266186 -176793,-7266156 -176814,-7266153 -176825,-7266148 -176856,-7266133 -176870,-7266127 -176917,-7266118 -176943,-7266115 -177030,-7266111 -177062,-7266115 -177075,-7266115 -177082,-7266116 -177088,-7266118 -177102,-7266125 -177123,-7266141 -177153,-7266161 -177160,-7266168 -177170,-7266180 -177178,-7266192 -177207,-7266249 -177215,-7266278 -177218,-7266292 -177220,-7266311 -177221,-7266346 -177213,-7266382 -177213,-7266396 -177215,-7266428 -177214,-7266441 -177212,-7266455 -177209,-7266466 -177205,-7266475 -177195,-7266493 -177173,-7266522 -177149,-7266546 -177067,-7266585 -177049,-7266596 -177036,-7266602 -177022,-7266606 -176964,-7266629 -176798,-7266688 -176746,-7266710 -176721,-7266723 -176701,-7266733 -176665,-7266757 -176544,-7266846 -176491,-7266869 -176419,-7266919 -176369,-7266951 -176366,-7266952 -176321,-7266987 -176290,-7267002 -176281,-7267002 -176271,-7267006 -176213,-7267057 -176140,-7267123 -176116,-7267154 -176100,-7267176 -176090,-7267187 -176046,-7267226 -176030,-7267244 -176015,-7267264 -176003,-7267285 -175997,-7267296 -175984,-7267310 -175958,-7267356 -175946,-7267376 -175926,-7267401 -175902,-7267444 -175884,-7267472 -175864,-7267506 -175836,-7267550 -175834,-7267563 -175832,-7267601 -175828,-7267637 -175829,-7267645 -175832,-7267654 -175835,-7267667 -175850,-7267706 -175864,-7267732 -175877,-7267753 -175884,-7267763 -175931,-7267822 -175956,-7267848 -175976,-7267864 -175984,-7267871 -176003,-7267887 -176048,-7267911 -176057,-7267914 -176076,-7267920 -176108,-7267926 -176182,-7267932 -176239,-7267931 -176314,-7267926 -176326,-7267924 -176347,-7267920 -176373,-7267912 -176401,-7267901 -176485,-7267872 -176489,-7267871 -176516,-7267860 -176546,-7267852 -176589,-7267840 -176854,-7267762 -176922,-7267746 -176951,-7267741 -176966,-7267739 -177045,-7267732 -177076,-7267733 -177103,-7267736 -177178,-7267748 -177314,-7267778 -177331,-7267781 -177357,-7267784 -177458,-7267790 -177499,-7267794 -177516,-7267791 -177580,-7267778 -177627,-7267768 -177676,-7267753 -177706,-7267740 -177849,-7267662 -177919,-7267628 -177945,-7267612 -177972,-7267590 -177994,-7267576 -178024,-7267561 -178043,-7267549 -178056,-7267542 -178098,-7267523 -178134,-7267513 -178162,-7267503 -178261,-7267453 -178291,-7267446 -178314,-7267442 -178330,-7267441 -178346,-7267441 -178366,-7267443 -178387,-7267447 -178404,-7267453 -178418,-7267459 -178440,-7267474 -178465,-7267497 -178474,-7267510 -178491,-7267539 -178503,-7267562 -178511,-7267579 -178521,-7267604 -178525,-7267625 -178526,-7267650 -178527,-7267670 -178524,-7267711 -178521,-7267735 -178518,-7267754 -178516,-7267764 -178506,-7267797 -178500,-7267811 -178490,-7267833 -178452,-7267900 -178425,-7267940 -178404,-7267976 -178372,-7268023 -178317,-7268097 -178251,-7268210 -178241,-7268231 -178229,-7268264 -178217,-7268298 -178188,-7268408 -178181,-7268465 -178161,-7268558 -178162,-7268644 -178169,-7268676 -178180,-7268703 -178184,-7268712 -178235,-7268807 -178296,-7268886 -178347,-7268947 -178451,-7269053 -178500,-7269097 -178551,-7269137 -178605,-7269166 -178620,-7269172 -178647,-7269182 -178667,-7269188 -178699,-7269196 -178798,-7269207 -178816,-7269208 -178867,-7269209 -178920,-7269206 -178964,-7269204 -178976,-7269206 -179037,-7269216 -179078,-7269219 -179106,-7269223 -179121,-7269227 -179171,-7269242 -179215,-7269249 -179282,-7269255 -179358,-7269256 -179389,-7269259 -179416,-7269260 -179458,-7269258 -179515,-7269249 -179540,-7269242 -179594,-7269219 -179635,-7269204 -179677,-7269185 -179694,-7269176 -179702,-7269171 -179735,-7269148 -179761,-7269132 -179774,-7269122 -179797,-7269102 -179816,-7269080 -179875,-7269011 -179942,-7268926 -180085,-7268720 -180152,-7268632 -180195,-7268578 -180285,-7268492 -180358,-7268437 -180474,-7268366 -180598,-7268298 -180735,-7268233 -180808,-7268205 -180924,-7268166 -180989,-7268146 -181128,-7268095 -181210,-7268076 -181290,-7268069 -181405,-7268072 -181559,-7268087 -181629,-7268097 -181697,-7268108 -181821,-7268130 -181857,-7268147 -181893,-7268160 -181923,-7268182 -182008,-7268242 -182042,-7268277 -182112,-7268345 -182123,-7268353 -182135,-7268361 -182159,-7268368 -182185,-7268372 -182214,-7268384 -182310,-7268450 -182377,-7268499 -182417,-7268519 -182489,-7268572 -182547,-7268624 -182557,-7268635 -182565,-7268646 -182572,-7268659 -182579,-7268674 -182583,-7268687 -182585,-7268701 -182586,-7268718 -182585,-7268733 -182583,-7268744 -182580,-7268756 -182576,-7268766 -182566,-7268784 -182536,-7268823 -182522,-7268834 -182512,-7268839 -182504,-7268842 -182496,-7268843 -182487,-7268844 -182472,-7268841 -182434,-7268842 -182383,-7268839 -182311,-7268828 -182225,-7268804 -182159,-7268789 -182127,-7268784 -182087,-7268783 -182067,-7268785 -182042,-7268789 -182017,-7268794 -181972,-7268807 -181939,-7268820 -181923,-7268828 -181899,-7268842 -181886,-7268853 -181868,-7268867 -181848,-7268888 -181834,-7268906 -181777,-7269011 -181763,-7269058 -181759,-7269271 -181749,-7269394 -181735,-7269469 -181710,-7269545 -181683,-7269616 -181671,-7269642 -181663,-7269662 -181657,-7269680 -181650,-7269706 -181644,-7269749 -181642,-7269794 -181642,-7269811 -181648,-7269863 -181660,-7269920 -181667,-7269944 -181674,-7269964 -181681,-7269983 -181688,-7269998 -181706,-7270028 -181823,-7270213 -181870,-7270288 -181907,-7270321 -181933,-7270341 -181992,-7270361 -182069,-7270383 -182117,-7270390 -182203,-7270395 -182265,-7270393 -182337,-7270384 -182432,-7270367 -182569,-7270347 -182597,-7270336 -182635,-7270325 -182699,-7270300 -182781,-7270257 -182832,-7270232 -182876,-7270198 -182933,-7270173 -183025,-7270145 -183079,-7270124 -183155,-7270103 -183266,-7270077 -183348,-7270073 -183447,-7270066 -183565,-7270064 -183607,-7270060 -183734,-7270044 -183800,-7270047 -183881,-7270048 -183956,-7270054 -184008,-7270064 -184091,-7270089 -184136,-7270112 -184197,-7270151 -184230,-7270177 -184264,-7270205 -184381,-7270320 -184419,-7270375 -184433,-7270401 -184440,-7270416 -184448,-7270436 -184454,-7270459 -184458,-7270476 -184460,-7270484 -184460,-7270638 -184447,-7270834 -184436,-7270866 -184415,-7270921 -184349,-7271007 -184328,-7271045 -184295,-7271112 -184281,-7271139 -184252,-7271187 -184243,-7271213 -184237,-7271235 -184231,-7271258 -184229,-7271329 -184235,-7271369 -184233,-7271468 -184237,-7271528 -184243,-7271558 -184269,-7271675 -184283,-7271723 -184298,-7271749 -184330,-7271801 -184347,-7271827 -184373,-7271860 -184414,-7271928 -184430,-7271952 -184472,-7271999 -184560,-7272058 -184671,-7272103 -184757,-7272142 -184861,-7272175 -184965,-7272199 -185058,-7272209 -185105,-7272216 -185174,-7272220 -185237,-7272226 -185312,-7272237 -185377,-7272250 -185397,-7272251 -185456,-7272254 -185536,-7272253 -185613,-7272246 -185680,-7272243 -185735,-7272237 -185961,-7272222 -186106,-7272214 -186172,-7272214 -186264,-7272210 -186290,-7272203 -186317,-7272195 -186376,-7272174 -186411,-7272163 -186465,-7272131 -186519,-7272105 -186546,-7272096 -186673,-7272060 -186728,-7272040 -186742,-7272031 -186783,-7272003 -186835,-7271949 -186938,-7271875 -186987,-7271857 -187036,-7271841 -187099,-7271823 -187182,-7271818 -187268,-7271818 -187310,-7271822 -187378,-7271831 -187420,-7271845 -187516,-7271894 -187609,-7271957 -187700,-7272014 -187777,-7272063 -187888,-7272129 -187955,-7272162 -187994,-7272180 -188077,-7272211 -188154,-7272234 -188294,-7272260 -188401,-7272274 -188622,-7272292 -188886,-7272324 -188900,-7272330 -188927,-7272517 -188959,-7272744 -188980,-7272921 -188982,-7272933 -188991,-7272958 -188995,-7272983 -189029,-7273100 -189039,-7273133 -189078,-7273250 -189021,-7273235 -189035,-7273361 -189044,-7273429 -189069,-7273523 -189090,-7273681 -189102,-7273729 -189085,-7273827 -189058,-7273904 -189190,-7273926 -189305,-7273932 -189340,-7273931 -189434,-7274010 -189662,-7274043 -189674,-7274160 -189678,-7274178 -189722,-7274235 -189738,-7274263 -189746,-7274299 -189748,-7274392 -189758,-7274550 -189755,-7274624 -189755,-7274704 -189783,-7274825 -189830,-7274856 -189777,-7274965 -189751,-7275020 -189681,-7275153 -189589,-7275106 -189557,-7275092 -189535,-7275084 -189515,-7275072 -189448,-7275036 -189372,-7274997 -189287,-7275184 -189190,-7275390 -189175,-7275407 -189248,-7275510 -189323,-7275554 -189358,-7275573 -189377,-7275581 -189323,-7275728 -189297,-7275795 -189148,-7275797 -189058,-7275959 -188971,-7276112 -188843,-7276097 -188672,-7276059 -188606,-7276035 -188590,-7276032 -188574,-7276030 -188512,-7276041 -188470,-7276044 -188384,-7276030 -188277,-7276035 -188264,-7276214 -188383,-7276230 -188412,-7276231 -188478,-7276239 -188566,-7276257 -188596,-7276266 -188652,-7276289 -188669,-7276300 -188688,-7276330 -188707,-7276351 -188712,-7276355 -188717,-7276359 -188741,-7276366 -188771,-7276383 -188785,-7276400 -188788,-7276405 -188790,-7276411 -188794,-7276429 -188815,-7276476 -188825,-7276490 -188831,-7276495 -188836,-7276500 -188863,-7276515 -188895,-7276525 -188932,-7276533 -188948,-7276537 -188978,-7276548 -188999,-7276558 -189019,-7276561 -189081,-7276573 -189102,-7276590 -189190,-7276589 -189235,-7276582 -189258,-7276589 -189262,-7276589 -189267,-7276587 -189284,-7276574 -189303,-7276578 -189317,-7276586 -189335,-7276590 -189352,-7276593 -189371,-7276594 -189400,-7276600 -189428,-7276599 -189442,-7276601 -189477,-7276625 -189494,-7276643 -189506,-7276645 -189516,-7276648 -189530,-7276658 -189538,-7276668 -189542,-7276670 -189546,-7276671 -189567,-7276661 -189611,-7276684 -189632,-7276704 -189689,-7276782 -189846,-7276985 -189897,-7277055 -189902,-7277081 -189902,-7277089 -189899,-7277108 -189889,-7277141 -189888,-7277166 -189879,-7277195 -189869,-7277221 -189864,-7277253 -189861,-7277289 -189867,-7277313 -189871,-7277324 -189903,-7277383 -189946,-7277444 -189959,-7277455 -189969,-7277460 -189979,-7277462 -189987,-7277463 -190017,-7277461 -190044,-7277451 -190058,-7277509 -190071,-7277541 -190125,-7277543 -190159,-7277548 -190205,-7277549 -190276,-7277545 -190290,-7277626 -190295,-7277661 -190312,-7277788 -190323,-7277855 -190326,-7277894 -190330,-7277933 -190323,-7277965 -190319,-7278051 -190310,-7278090 -190297,-7278133 -190271,-7278187 -190243,-7278233 -190179,-7278368 -190136,-7278452 -190145,-7278458 -190136,-7278492 -190099,-7278607 -190162,-7278675 -190115,-7278752 -190079,-7278805 -189989,-7278925 -189983,-7278934 -189922,-7279028 -189890,-7279073 -189858,-7279119 -189813,-7279171 -189741,-7279270 -189787,-7279455 -189800,-7279485 -189817,-7279508 -189829,-7279522 -189834,-7279530 -189842,-7279548 -189851,-7279578 -189864,-7279582 -189896,-7279580 -189902,-7279581 -189909,-7279583 -189943,-7279598 -189953,-7279597 -189985,-7279593 -190023,-7279606 -190041,-7279603 -190085,-7279604 -190145,-7279625 -190181,-7279634 -190205,-7279644 -190233,-7279644 -190243,-7279650 -190175,-7279790 -190120,-7279909 -190083,-7279991 -190045,-7280068 -190029,-7280116 -189949,-7280295 -189894,-7280425 -189877,-7280458 -189875,-7280460 -189755,-7280428 -189696,-7280407 -189653,-7280530 -189634,-7280593 -189606,-7280665 -189585,-7280747 -189598,-7280762 -189601,-7280768 -189601,-7280773 -189571,-7280979 -189560,-7281077 -189484,-7281094 -189442,-7281108 -189400,-7281130 -189358,-7281162 -189323,-7281187 -189293,-7281195 -189261,-7281207 -189262,-7281279 -189270,-7281389 -189271,-7281439 -189264,-7281509 -189256,-7281560 -189246,-7281577 -189218,-7281616 -189191,-7281637 -189136,-7281652 -189106,-7281654 -189040,-7281645 -188930,-7281659 -188853,-7281682 -188797,-7281700 -188673,-7281735 -188618,-7281746 -188560,-7281754 -188541,-7281808 -188535,-7281852 -188535,-7281882 -188542,-7281928 -188547,-7281991 -188550,-7282019 -188557,-7282049 -188578,-7282099 -188536,-7282095 -188450,-7282087 -188358,-7282069 -188140,-7282035 -187984,-7282008 -187854,-7281978 -187759,-7281960 -187583,-7281943 -187452,-7281919 -187325,-7281908 -187321,-7281919 -187127,-7281897 -186940,-7281923 -186949,-7282046 -186969,-7282252 -186987,-7282493 -187003,-7282662 -187004,-7282670 -187017,-7282833 -187036,-7283041 -187057,-7283295 -187064,-7283461 -187082,-7283749 -187091,-7283991 -187087,-7284086 -187084,-7284201 -187085,-7284225 -187101,-7284229 -187091,-7284348 -187089,-7284506 -187083,-7284633 -187078,-7284838 -187077,-7285081 -187082,-7285235 -187086,-7285344 -187078,-7285353 -187083,-7285676 -187089,-7285817 -187089,-7285834 -187099,-7285840 -187105,-7285895 -187108,-7285902 -187135,-7285939 -187154,-7285971 -187185,-7286048 -187194,-7286071 -187209,-7286103 -187237,-7286178 -187196,-7286195 -187136,-7286233 -187134,-7286302 -187149,-7286602 -187157,-7286712 -187174,-7286889 -187191,-7286989 -187199,-7287108 -187208,-7287287 -187216,-7287378 -187226,-7287459 -187238,-7287531 -187250,-7287591 -187255,-7287639 -187256,-7287731 -187274,-7287937 -187286,-7288033 -187040,-7288034 -186941,-7288046 -186877,-7288045 -186801,-7288037 -186698,-7288024 -186581,-7288019 -186437,-7287996 -186344,-7287968 -186290,-7287965 -186226,-7287969 -186212,-7287931 -186147,-7287902 -186126,-7287904 -186026,-7287894 -185960,-7287866 -185883,-7287816 -185844,-7287811 -185748,-7287791 -185659,-7287753 -185584,-7287718 -185538,-7287709 -185511,-7287720 -185492,-7287714 -185466,-7287711 -185414,-7287690 -185387,-7287667 -185352,-7287660 -185247,-7287628 -185229,-7287630 -185201,-7287619 -185145,-7287604 -185116,-7287616 -185081,-7287656 -185062,-7287665 -185044,-7287665 -185022,-7287659 -184966,-7287662 -184908,-7287652 -184881,-7287630 -184781,-7287631 -184730,-7287624 -184682,-7287607 -184605,-7287589 -184497,-7287595 -184460,-7287592 -184415,-7287618 -184036,-7287877 -183943,-7287870 -183874,-7287867 -183761,-7287957 -183648,-7288069 -183579,-7288078 -183527,-7288098 -183466,-7288123 -183393,-7288150 -183234,-7288206 -183152,-7288229 -183150,-7288245 -183096,-7288259 -182969,-7288287 -182934,-7288296 -182828,-7288322 -182745,-7288340 -182738,-7288289 -182729,-7288243 -182707,-7288175 -182689,-7288100 -182670,-7288039 -182650,-7287962 -182590,-7287952 -182373,-7287929 -182341,-7287924 -182305,-7287912" stroke="#006747" stroke-width="65" /></ns0:svg>    <rect x="20" y="50"  width="250" height="25"  rx="0"  fill="#006747" fill-opacity="0.8" />    <text x="145" y="70" text-anchor="middle" font-family="Frutiger" font-weight="bold" font-size="30" fill="white">Darlington</text>    <rect x="35" y="195" width="220" height="160" rx="15" fill="#78BE20"/>    <g font-family="Frutiger" font-size="15" fill="#231F20">        <g> <text x="45" y="218">Self-harm</text> <text x="245" y="218" text-anchor="end">45</text> </g>        <g> <text x="45" y="243">SEN</text> <text x="245" y="243" text-anchor="end">61</text> </g>        <g> <text x="45" y="268">Difficulties</text> <text x="245" y="268" text-anchor="end">62</text> </g>        <g> <text x="45" y="293">Child Carer</text> <text x="245" y="293" text-anchor="end"></text> </g>        <g> <text x="45" y="318">Drinkers</text> <text x="245" y="318" text-anchor="end">100</text> </g>        <g> <text x="45" y="343">Safeguarding </text> <text x="245" y="343" text-anchor="end">33</text> </g>    </g></svg>