<?xml version="1.0" standalone="no"?>
<!DOCTYPE svg PUBLIC "-//W3C//DTD SVG 1.1//EN"
"http://www.w3.org/Graphics/SVG/1.1/DTD/svg11.dtd">
<svg height="390" version="1.1" width="290" xmlns="http://www.w3.org/2000/svg"><defs><style type="text/css">@font-face {font-family: 'Frutiger';font-style: normal;font-weight: normal;src: local('Frutiger'), url('../fonts/Frutiger.woff') format('woff');}@font-face {font-family: 'Frutiger Bold';font-style: normal;font-weight: normal;src: local('Frutiger Bold'), url('../fonts/Frutiger_bold.woff') format('woff');}        </style>    </defs>    <rect x="20" y="20"  width="250" height="350" rx="15" fill="#005EB8" />    <rect x="35" y="35"  width="220" height="145" rx="15" fill="white" /><ns0:svg xmlns:ns0="http://www.w3.org/2000/svg" height="115" version="1.1" viewBox="-112642 -6721336 24829 37528" width="220" x="35" y="50"><ns0:polygon fill="#003087" points=" -95708,-6718873 -95698,-6718872 -95670,-6718875 -95626,-6718888 -95571,-6718914 -95547,-6718924 -95516,-6718936 -95492,-6718944 -95459,-6718952 -95441,-6718954 -95411,-6718953 -95376,-6718948 -95346,-6718942 -95318,-6718933 -95305,-6718928 -95249,-6718898 -95194,-6718877 -95171,-6718867 -95152,-6718857 -95129,-6718844 -95067,-6718805 -95017,-6718769 -94953,-6718717 -94929,-6718689 -94730,-6718548 -94694,-6718526 -94669,-6718512 -94647,-6718501 -94613,-6718485 -94467,-6718400 -94367,-6718344 -94292,-6718306 -94144,-6718271 -93961,-6718242 -93903,-6718230 -93813,-6718226 -93815,-6718152 -93811,-6718119 -93813,-6718093 -93808,-6718010 -93811,-6717929 -93815,-6717899 -93835,-6717801 -93855,-6717702 -93892,-6717561 -93936,-6717384 -93960,-6717292 -94017,-6717120 -94030,-6717072 -94063,-6717017 -94073,-6716998 -94089,-6716968 -94095,-6716956 -94100,-6716941 -94105,-6716924 -94120,-6716878 -94141,-6716835 -94165,-6716796 -94170,-6716775 -94185,-6716718 -94197,-6716657 -94201,-6716601 -94177,-6716500 -94176,-6716495 -94171,-6716405 -94173,-6716384 -94181,-6716347 -94189,-6716311 -94208,-6716241 -94236,-6716191 -94251,-6716167 -94267,-6716144 -94279,-6716131 -94382,-6716044 -94387,-6716049 -94403,-6716040 -94462,-6715991 -94499,-6715964 -94530,-6715939 -94569,-6715912 -94595,-6715865 -94636,-6715766 -94649,-6715744 -94660,-6715726 -94673,-6715709 -94683,-6715696 -94696,-6715682 -94726,-6715653 -94757,-6715629 -94769,-6715617 -94787,-6715598 -94827,-6715549 -94855,-6715519 -94867,-6715506 -94876,-6715491 -94884,-6715477 -94890,-6715466 -94903,-6715435 -94911,-6715404 -94917,-6715371 -94921,-6715356 -94929,-6715336 -94955,-6715288 -94961,-6715264 -94978,-6715218 -94992,-6715166 -95016,-6715093 -95022,-6715068 -95022,-6715061 -95018,-6715040 -95018,-6715034 -95019,-6715025 -95024,-6715005 -95026,-6714991 -95029,-6714971 -95042,-6714921 -95056,-6714882 -94810,-6714711 -94761,-6714667 -94745,-6714653 -94732,-6714645 -94717,-6714638 -94629,-6714598 -94573,-6714528 -94468,-6714399 -94457,-6714382 -94456,-6714381 -94434,-6714335 -94430,-6714321 -94405,-6714270 -94358,-6714198 -94332,-6714166 -94188,-6714012 -94096,-6713909 -94040,-6713831 -93917,-6713683 -93874,-6713627 -93832,-6713572 -93744,-6713450 -93691,-6713368 -93678,-6713341 -93529,-6713143 -93497,-6713113 -93474,-6713088 -93426,-6713058 -93423,-6713052 -93386,-6712967 -93312,-6712879 -93302,-6712866 -93294,-6712852 -93286,-6712837 -93256,-6712747 -93251,-6712739 -93246,-6712731 -93177,-6712649 -93166,-6712634 -93161,-6712626 -93141,-6712585 -93131,-6712571 -93120,-6712546 -93114,-6712535 -93100,-6712516 -93091,-6712505 -93083,-6712499 -93075,-6712495 -93064,-6712491 -93056,-6712490 -93044,-6712491 -93017,-6712501 -92958,-6712515 -92839,-6712533 -92835,-6712533 -92821,-6712533 -92786,-6712529 -92739,-6712526 -92701,-6712518 -92606,-6712493 -92574,-6712478 -92549,-6712470 -92531,-6712467 -92516,-6712466 -92481,-6712467 -92464,-6712466 -92414,-6712460 -92267,-6712438 -92208,-6712433 -92158,-6712434 -92111,-6712440 -92095,-6712441 -92082,-6712441 -91974,-6712431 -91931,-6712430 -91892,-6712431 -91851,-6712434 -91803,-6712439 -91781,-6712443 -91755,-6712450 -91745,-6712452 -91739,-6712452 -91733,-6712450 -91727,-6712448 -91722,-6712443 -91718,-6712440 -91715,-6712436 -91709,-6712418 -91707,-6712413 -91702,-6712406 -91688,-6712389 -91677,-6712374 -91626,-6712325 -91560,-6712205 -91514,-6712132 -91506,-6712123 -91466,-6712088 -91393,-6712022 -91359,-6711997 -91305,-6711961 -91195,-6711862 -91166,-6711824 -91151,-6711813 -91117,-6711762 -91047,-6711627 -91025,-6711589 -90993,-6711524 -90991,-6711513 -91009,-6711465 -91021,-6711425 -91002,-6711358 -90994,-6711325 -90980,-6711207 -90973,-6711084 -90976,-6711059 -90982,-6711036 -90980,-6710991 -90966,-6710901 -90963,-6710862 -90963,-6710805 -90959,-6710772 -90958,-6710736 -90958,-6710728 -90963,-6710681 -90977,-6710577 -90987,-6710529 -90999,-6710474 -91005,-6710438 -91014,-6710412 -91089,-6710190 -91109,-6710123 -91121,-6710067 -91131,-6710026 -91136,-6709998 -91136,-6709978 -91131,-6709949 -91131,-6709928 -91135,-6709890 -91141,-6709864 -91090,-6709855 -91073,-6709823 -91070,-6709816 -91065,-6709798 -91063,-6709779 -91058,-6709768 -91026,-6709727 -91016,-6709707 -90978,-6709719 -90955,-6709581 -91065,-6709504 -91126,-6709463 -91119,-6709364 -91236,-6709343 -91331,-6709323 -91357,-6709445 -91251,-6709462 -91268,-6709551 -91280,-6709702 -91386,-6709714 -91417,-6709626 -91433,-6709565 -91438,-6709537 -91442,-6709499 -91453,-6709426 -91519,-6709424 -91555,-6709247 -91520,-6709194 -91543,-6709182 -91594,-6709146 -91630,-6709110 -91694,-6709034 -91697,-6709028 -91711,-6708996 -91735,-6708948 -91750,-6708914 -91760,-6708896 -91770,-6708881 -91789,-6708857 -91864,-6708794 -91871,-6708784 -91896,-6708743 -91912,-6708711 -91921,-6708691 -91972,-6708570 -92002,-6708485 -92012,-6708464 -92033,-6708430 -92043,-6708411 -92078,-6708338 -92094,-6708313 -92113,-6708293 -92243,-6708136 -92300,-6708042 -92307,-6708020 -92317,-6707973 -92323,-6707930 -92325,-6707907 -92326,-6707888 -92325,-6707846 -92320,-6707813 -92318,-6707801 -92299,-6707766 -92244,-6707609 -92204,-6707442 -92191,-6707399 -92179,-6707370 -92173,-6707358 -92167,-6707348 -92133,-6707304 -92111,-6707271 -92090,-6707233 -92074,-6707200 -92059,-6707171 -92046,-6707155 -92030,-6707139 -91994,-6707091 -91996,-6707013 -92002,-6706965 -92028,-6706911 -92020,-6706854 -92015,-6706797 -92017,-6706759 -92007,-6706727 -91996,-6706683 -91972,-6706607 -91964,-6706608 -91945,-6706568 -91931,-6706531 -91893,-6706460 -91865,-6706404 -91855,-6706381 -91844,-6706368 -91847,-6706358 -91843,-6706354 -91828,-6706341 -91775,-6706312 -91769,-6706308 -91765,-6706304 -91759,-6706295 -91744,-6706268 -91737,-6706248 -91734,-6706230 -91728,-6706172 -91712,-6706091 -91703,-6706051 -91704,-6706037 -91694,-6706034 -91697,-6705972 -91694,-6705947 -91694,-6705929 -91692,-6705919 -91687,-6705907 -91660,-6705871 -91607,-6705779 -91593,-6705745 -91582,-6705711 -91578,-6705701 -91571,-6705688 -91549,-6705651 -91537,-6705633 -91515,-6705605 -91503,-6705592 -91497,-6705522 -91486,-6705421 -91480,-6705321 -91523,-6705264 -91612,-6705140 -91607,-6705134 -91676,-6705043 -91723,-6704978 -91774,-6704905 -91796,-6704868 -91812,-6704772 -91829,-6704703 -91839,-6704647 -91846,-6704561 -91848,-6704513 -91856,-6704181 -91858,-6704082 -91860,-6704063 -91910,-6704047 -92195,-6703955 -92255,-6703933 -92323,-6703903 -92344,-6703895 -92364,-6703887 -92401,-6703875 -92422,-6703870 -92713,-6703821 -92811,-6703804 -92813,-6703801 -92697,-6703727 -92525,-6703625 -92401,-6703554 -92348,-6703522 -92314,-6703504 -92296,-6703492 -92278,-6703480 -92220,-6703429 -92204,-6703434 -92198,-6703379 -92194,-6703350 -92172,-6703207 -92147,-6703050 -92128,-6702922 -92117,-6702848 -92080,-6702622 -92030,-6702307 -92023,-6702273 -92017,-6702255 -91957,-6702081 -91951,-6702069 -91941,-6702047 -91924,-6702013 -91853,-6701850 -91720,-6701559 -91717,-6701554 -91611,-6701297 -91557,-6701173 -91529,-6701109 -91482,-6701002 -91441,-6700912 -91416,-6700859 -91335,-6700678 -91287,-6700567 -91235,-6700459 -91163,-6700284 -91081,-6700093 -91068,-6700066 -90805,-6700012 -90713,-6699984 -90632,-6699962 -90526,-6699935 -90484,-6699929 -90455,-6699926 -90425,-6699925 -90409,-6699924 -90385,-6699926 -90370,-6699929 -90334,-6699941 -90280,-6699957 -90258,-6699959 -90147,-6699959 -90095,-6699956 -90039,-6699951 -90018,-6699953 -90005,-6699952 -90000,-6699950 -89994,-6699946 -89984,-6699937 -89962,-6699915 -89924,-6699875 -89864,-6699816 -89833,-6699788 -89809,-6699770 -89792,-6699762 -89780,-6699756 -89767,-6699752 -89749,-6699747 -89731,-6699742 -89716,-6699740 -89697,-6699738 -89684,-6699738 -89658,-6699738 -89612,-6699739 -89532,-6699744 -89439,-6699746 -89405,-6699744 -89380,-6699741 -89326,-6699735 -89281,-6699729 -89216,-6699716 -89132,-6699693 -89057,-6699707 -89052,-6699663 -89025,-6699481 -89020,-6699380 -89013,-6699315 -89023,-6699308 -88979,-6699223 -88990,-6699214 -88978,-6699187 -88965,-6699155 -88919,-6699032 -88901,-6698979 -88886,-6698925 -88863,-6698849 -88848,-6698842 -88844,-6698813 -88838,-6698733 -88838,-6698716 -88839,-6698689 -88841,-6698679 -88847,-6698658 -88862,-6698587 -88889,-6698445 -88888,-6698433 -88887,-6698428 -88874,-6698409 -88872,-6698404 -88872,-6698394 -88872,-6698386 -88875,-6698369 -88884,-6698341 -88889,-6698316 -88891,-6698293 -88889,-6698263 -88892,-6698216 -88885,-6698019 -88877,-6697881 -88879,-6697810 -88883,-6697769 -88884,-6697757 -88882,-6697729 -88867,-6697644 -88851,-6697587 -88842,-6697544 -88837,-6697531 -88827,-6697512 -88824,-6697503 -88825,-6697442 -88826,-6697428 -88828,-6697418 -88837,-6697384 -88840,-6697370 -88842,-6697347 -88843,-6697322 -88842,-6697304 -88838,-6697270 -88835,-6697251 -88826,-6697214 -88826,-6697183 -88826,-6697151 -88829,-6697070 -88836,-6696998 -88831,-6696996 -88838,-6696912 -88844,-6696873 -88831,-6696868 -88835,-6696851 -88821,-6696783 -88820,-6696763 -88821,-6696743 -88827,-6696741 -88829,-6696736 -88831,-6696727 -88834,-6696707 -88831,-6696643 -88831,-6696631 -88825,-6696598 -88825,-6696583 -88831,-6696565 -88849,-6696525 -88851,-6696519 -88855,-6696508 -88871,-6696434 -88875,-6696393 -88875,-6696371 -88871,-6696347 -88870,-6696328 -88871,-6696293 -88873,-6696277 -88875,-6696264 -88882,-6696245 -88902,-6696184 -88912,-6696179 -88910,-6696064 -88913,-6696002 -88902,-6695994 -88888,-6695935 -88898,-6695883 -88909,-6695841 -88893,-6695810 -88901,-6695799 -88885,-6695782 -88881,-6695770 -88880,-6695760 -88880,-6695749 -88890,-6695698 -88890,-6695684 -88888,-6695677 -88877,-6695658 -88862,-6695627 -88844,-6695573 -88840,-6695555 -88830,-6695503 -88814,-6695469 -88804,-6695444 -88781,-6695371 -88776,-6695351 -88775,-6695334 -88781,-6695318 -88761,-6695226 -88753,-6695223 -88749,-6695204 -88742,-6695166 -88722,-6695042 -88700,-6694987 -88694,-6694971 -88685,-6694936 -88680,-6694923 -88654,-6694859 -88651,-6694848 -88649,-6694842 -88644,-6694836 -88629,-6694825 -88619,-6694812 -88614,-6694802 -88609,-6694789 -88598,-6694751 -88593,-6694740 -88581,-6694716 -88551,-6694682 -88509,-6694624 -88485,-6694594 -88461,-6694558 -88449,-6694544 -88438,-6694535 -88419,-6694521 -88379,-6694496 -88366,-6694486 -88353,-6694474 -88344,-6694464 -88334,-6694449 -88318,-6694415 -88302,-6694389 -88297,-6694380 -88295,-6694367 -88291,-6694338 -88287,-6694322 -88277,-6694293 -88274,-6694286 -88258,-6694275 -88255,-6694237 -88247,-6694187 -88234,-6694124 -88232,-6694105 -88231,-6694083 -88231,-6694056 -88233,-6694040 -88235,-6694030 -88242,-6693998 -88221,-6693935 -88264,-6693915 -88312,-6693893 -88338,-6693884 -88352,-6693881 -88374,-6693879 -88406,-6693881 -88456,-6693883 -88527,-6693901 -88584,-6693906 -88610,-6693910 -88635,-6693915 -88654,-6693920 -88678,-6693928 -88719,-6693947 -88758,-6693961 -88816,-6693986 -88842,-6693995 -88895,-6693987 -88968,-6693980 -88975,-6693979 -88988,-6693980 -89001,-6693982 -89063,-6694000 -89087,-6694002 -89224,-6693986 -89275,-6693973 -89264,-6693927 -89256,-6693880 -89254,-6693793 -89256,-6693732 -89256,-6693711 -89256,-6693701 -89251,-6693623 -89232,-6693519 -89230,-6693471 -89221,-6693386 -89224,-6693302 -89222,-6693282 -89219,-6693265 -89214,-6693245 -89209,-6693225 -89189,-6693179 -89175,-6693127 -89171,-6693115 -89145,-6693059 -89139,-6693042 -89130,-6693019 -89115,-6692929 -89100,-6692892 -89092,-6692849 -89076,-6692776 -89058,-6692709 -89045,-6692704 -89039,-6692671 -89022,-6692621 -88998,-6692539 -88953,-6692428 -88939,-6692380 -88920,-6692259 -88908,-6692189 -88896,-6692153 -88884,-6692074 -88862,-6691986 -88844,-6691911 -88838,-6691871 -88847,-6691860 -88839,-6691808 -88833,-6691786 -88822,-6691754 -88809,-6691675 -88809,-6691663 -88814,-6691616 -88815,-6691600 -88814,-6691580 -88781,-6691489 -88761,-6691420 -88744,-6691377 -88705,-6691292 -88702,-6691287 -88689,-6691260 -88626,-6691132 -88616,-6691106 -88606,-6691081 -88584,-6690992 -88566,-6690913 -88512,-6690640 -88443,-6690328 -88414,-6690186 -88343,-6689849 -88290,-6689610 -88204,-6689204 -88185,-6689114 -88131,-6688866 -88038,-6688398 -87965,-6688049 -87839,-6687444 -87813,-6687317 -88149,-6687295 -88574,-6687270 -89029,-6687241 -89052,-6687239 -89098,-6687236 -89486,-6687213 -89608,-6687205 -90079,-6687174 -90096,-6687172 -90123,-6687167 -90566,-6687062 -90673,-6686922 -90898,-6686754 -91250,-6686506 -91514,-6686322 -91629,-6686243 -91650,-6686228 -91879,-6686071 -92037,-6685958 -92054,-6685943 -92059,-6685938 -92170,-6685779 -92179,-6685765 -92183,-6685760 -92196,-6685737 -92203,-6685724 -92214,-6685697 -92248,-6685591 -92261,-6685542 -92297,-6685398 -92298,-6685395 -92302,-6685389 -92311,-6685377 -92345,-6685346 -92352,-6685337 -92362,-6685324 -92411,-6685238 -92435,-6685192 -92436,-6685173 -92465,-6685119 -92519,-6685046 -92534,-6685038 -92545,-6685022 -92561,-6685000 -92589,-6684962 -92621,-6684910 -92645,-6684882 -92670,-6684838 -92689,-6684794 -92684,-6684789 -92764,-6684617 -92771,-6684590 -92783,-6684569 -92791,-6684548 -92796,-6684532 -92798,-6684516 -92802,-6684467 -92820,-6684457 -92847,-6684430 -92856,-6684416 -92863,-6684400 -92878,-6684343 -92888,-6684278 -92887,-6684266 -92882,-6684251 -92882,-6684241 -92906,-6684206 -92915,-6684205 -92925,-6684213 -92932,-6684215 -92953,-6684208 -92974,-6684154 -92988,-6684129 -92999,-6684114 -93010,-6684100 -93023,-6684087 -93045,-6684069 -93068,-6684056 -93122,-6684039 -93136,-6684032 -93154,-6684021 -93170,-6684008 -93184,-6683992 -93197,-6683976 -93213,-6683951 -93224,-6683962 -93228,-6683964 -93234,-6683966 -93240,-6683966 -93248,-6683963 -93274,-6683944 -93291,-6683939 -93356,-6683938 -93398,-6683929 -93462,-6683921 -93488,-6683919 -93501,-6683919 -93552,-6683929 -93579,-6683932 -93595,-6683931 -93614,-6683930 -93632,-6683927 -93634,-6683926 -93651,-6683915 -93684,-6683838 -93694,-6683825 -93701,-6683819 -93713,-6683810 -93763,-6683808 -93806,-6683841 -93815,-6683844 -93821,-6683845 -93826,-6683844 -93862,-6683839 -93902,-6683847 -93930,-6683847 -93967,-6683840 -94018,-6683838 -94030,-6683843 -94065,-6683877 -94159,-6683922 -94222,-6683917 -94275,-6683920 -94284,-6683919 -94291,-6683916 -94320,-6683878 -94332,-6683871 -94342,-6683873 -94365,-6683890 -94434,-6683951 -94453,-6683963 -94463,-6683968 -94485,-6683975 -94512,-6683980 -94539,-6683985 -94572,-6683989 -94613,-6683980 -94621,-6683980 -94631,-6683984 -94640,-6683990 -94645,-6683999 -94646,-6684002 -94646,-6684027 -94655,-6684062 -94661,-6684073 -94686,-6684096 -94754,-6684148 -94778,-6684158 -94816,-6684156 -94822,-6684156 -94833,-6684157 -94869,-6684168 -94902,-6684173 -94982,-6684193 -95021,-6684197 -95034,-6684196 -95040,-6684194 -95045,-6684191 -95060,-6684175 -95063,-6684169 -95064,-6684160 -95072,-6684147 -95076,-6684141 -95084,-6684136 -95090,-6684134 -95097,-6684133 -95105,-6684134 -95115,-6684138 -95143,-6684140 -95180,-6684135 -95221,-6684134 -95252,-6684131 -95278,-6684126 -95334,-6684123 -95376,-6684131 -95391,-6684132 -95405,-6684133 -95449,-6684125 -95479,-6684129 -95500,-6684137 -95553,-6684166 -95577,-6684171 -95592,-6684172 -95603,-6684174 -95620,-6684183 -95636,-6684186 -95643,-6684187 -95747,-6684173 -95825,-6684175 -95885,-6684179 -95970,-6684193 -95998,-6684196 -96066,-6684200 -96082,-6684197 -96141,-6684180 -96151,-6684179 -96158,-6684179 -96243,-6684193 -96253,-6684198 -96265,-6684200 -96272,-6684199 -96279,-6684197 -96321,-6684171 -96350,-6684139 -96359,-6684132 -96367,-6684129 -96374,-6684127 -96381,-6684126 -96388,-6684127 -96397,-6684130 -96421,-6684148 -96435,-6684157 -96442,-6684162 -96450,-6684169 -96456,-6684177 -96466,-6684192 -96473,-6684198 -96485,-6684201 -96494,-6684202 -96506,-6684201 -96526,-6684196 -96533,-6684196 -96541,-6684199 -96548,-6684202 -96553,-6684208 -96557,-6684214 -96563,-6684233 -96568,-6684242 -96577,-6684253 -96603,-6684270 -96619,-6684278 -96636,-6684285 -96649,-6684284 -96712,-6684238 -96720,-6684229 -96723,-6684224 -96724,-6684218 -96727,-6684198 -96727,-6684187 -96728,-6684183 -96730,-6684177 -96734,-6684173 -96739,-6684170 -96757,-6684149 -96784,-6684129 -96807,-6684115 -96822,-6684109 -96836,-6684104 -96874,-6684096 -96881,-6684092 -96888,-6684088 -96894,-6684082 -96899,-6684075 -96908,-6684061 -96914,-6684054 -96923,-6684046 -96963,-6684018 -96988,-6683993 -97035,-6683925 -97039,-6683921 -97044,-6683917 -97052,-6683914 -97061,-6683912 -97074,-6683913 -97097,-6683910 -97117,-6683902 -97132,-6683893 -97180,-6683865 -97207,-6683849 -97212,-6683848 -97232,-6683845 -97248,-6683847 -97266,-6683852 -97288,-6683863 -97300,-6683866 -97318,-6683866 -97368,-6683862 -97382,-6683861 -97450,-6683861 -97482,-6683863 -97576,-6683877 -97643,-6683888 -97722,-6683901 -97740,-6683909 -97752,-6683914 -97756,-6683920 -97765,-6683950 -97774,-6683967 -97779,-6683972 -97785,-6683978 -97798,-6683984 -97808,-6683986 -97830,-6683989 -97839,-6683987 -97846,-6683988 -97854,-6683990 -97859,-6683993 -97864,-6683997 -97868,-6684002 -97871,-6684007 -97873,-6684014 -97874,-6684029 -97873,-6684039 -97869,-6684047 -97867,-6684052 -97866,-6684058 -97866,-6684063 -97868,-6684071 -97873,-6684117 -97875,-6684122 -97877,-6684128 -97881,-6684134 -97886,-6684137 -97892,-6684139 -97932,-6684138 -97947,-6684139 -97961,-6684141 -97984,-6684137 -97999,-6684133 -98006,-6684131 -98018,-6684122 -98040,-6684113 -98045,-6684113 -98054,-6684115 -98063,-6684118 -98068,-6684122 -98075,-6684129 -98079,-6684131 -98090,-6684132 -98095,-6684132 -98102,-6684129 -98112,-6684123 -98133,-6684117 -98143,-6684115 -98147,-6684115 -98150,-6684116 -98154,-6684117 -98159,-6684121 -98162,-6684126 -98165,-6684132 -98175,-6684147 -98180,-6684162 -98183,-6684183 -98188,-6684200 -98197,-6684215 -98203,-6684222 -98217,-6684238 -98222,-6684246 -98225,-6684254 -98227,-6684260 -98226,-6684269 -98222,-6684276 -98193,-6684307 -98186,-6684313 -98182,-6684318 -98180,-6684325 -98179,-6684330 -98179,-6684336 -98182,-6684343 -98185,-6684350 -98194,-6684359 -98228,-6684384 -98257,-6684407 -98267,-6684417 -98280,-6684425 -98295,-6684431 -98387,-6684452 -98404,-6684452 -98415,-6684450 -98424,-6684446 -98453,-6684432 -98465,-6684428 -98470,-6684425 -98474,-6684421 -98482,-6684412 -98495,-6684392 -98509,-6684345 -98513,-6684338 -98518,-6684331 -98528,-6684320 -98531,-6684314 -98530,-6684304 -98527,-6684290 -98529,-6684284 -98532,-6684280 -98538,-6684275 -98545,-6684272 -98550,-6684271 -98595,-6684273 -98612,-6684276 -98624,-6684279 -98633,-6684283 -98658,-6684297 -98666,-6684305 -98670,-6684312 -98673,-6684321 -98674,-6684330 -98672,-6684343 -98672,-6684346 -98678,-6684361 -98681,-6684366 -98686,-6684372 -98699,-6684382 -98773,-6684466 -98825,-6684517 -98868,-6684560 -98955,-6684619 -99007,-6684651 -99035,-6684670 -99049,-6684673 -99059,-6684673 -99067,-6684672 -99074,-6684669 -99113,-6684651 -99129,-6684646 -99138,-6684647 -99144,-6684649 -99153,-6684654 -99186,-6684657 -99197,-6684655 -99204,-6684653 -99211,-6684648 -99218,-6684642 -99241,-6684634 -99270,-6684627 -99295,-6684612 -99316,-6684595 -99353,-6684575 -99360,-6684571 -99367,-6684569 -99374,-6684569 -99380,-6684570 -99386,-6684571 -99395,-6684577 -99412,-6684602 -99422,-6684610 -99430,-6684615 -99436,-6684618 -99442,-6684619 -99452,-6684621 -99480,-6684634 -99489,-6684639 -99494,-6684641 -99499,-6684641 -99505,-6684641 -99512,-6684639 -99517,-6684636 -99531,-6684624 -99536,-6684622 -99544,-6684620 -99548,-6684621 -99552,-6684622 -99556,-6684625 -99559,-6684628 -99565,-6684638 -99571,-6684642 -99585,-6684645 -99594,-6684645 -99608,-6684643 -99611,-6684643 -99624,-6684648 -99629,-6684651 -99635,-6684656 -99640,-6684663 -99643,-6684671 -99644,-6684678 -99644,-6684687 -99648,-6684699 -99651,-6684704 -99656,-6684709 -99664,-6684715 -99672,-6684719 -99683,-6684722 -99716,-6684731 -99787,-6684752 -99793,-6684752 -99805,-6684750 -99816,-6684747 -99834,-6684738 -99849,-6684734 -99858,-6684733 -99864,-6684734 -99872,-6684737 -99902,-6684756 -99927,-6684778 -99931,-6684786 -99932,-6684789 -99931,-6684797 -99926,-6684805 -99920,-6684810 -99911,-6684813 -99899,-6684824 -99898,-6684838 -99901,-6684846 -99904,-6684850 -99981,-6684897 -99991,-6684901 -99996,-6684905 -99999,-6684908 -100014,-6684933 -100018,-6684937 -100066,-6684973 -100075,-6684981 -100092,-6685001 -100099,-6685009 -100112,-6685020 -100123,-6685025 -100132,-6685027 -100161,-6685042 -100167,-6685043 -100175,-6685045 -100187,-6685045 -100232,-6685040 -100301,-6685047 -100338,-6685045 -100353,-6685041 -100391,-6685022 -100458,-6684984 -100466,-6684979 -100475,-6684971 -100484,-6684960 -100497,-6684939 -100517,-6684919 -100543,-6684898 -100564,-6684891 -100575,-6684888 -100582,-6684888 -100589,-6684888 -100596,-6684890 -100601,-6684892 -100651,-6684920 -100698,-6684950 -100708,-6684955 -100724,-6684964 -100759,-6684982 -100783,-6684999 -100794,-6685007 -100855,-6685068 -100874,-6685083 -100884,-6685090 -100895,-6685095 -100905,-6685099 -100930,-6685105 -100939,-6685108 -100953,-6685117 -100960,-6685125 -100965,-6685137 -100969,-6685153 -100973,-6685171 -100995,-6685189 -101058,-6685216 -101097,-6685223 -101150,-6685235 -101170,-6685243 -101182,-6685250 -101190,-6685257 -101199,-6685267 -101241,-6685327 -101263,-6685361 -101270,-6685367 -101277,-6685373 -101285,-6685378 -101296,-6685383 -101307,-6685388 -101316,-6685390 -101374,-6685398 -101422,-6685408 -101432,-6685408 -101443,-6685408 -101459,-6685405 -101501,-6685392 -101533,-6685387 -101562,-6685386 -101610,-6685384 -101694,-6685383 -101710,-6685380 -101741,-6685370 -101746,-6685370 -101754,-6685370 -101762,-6685373 -101771,-6685376 -101787,-6685386 -101792,-6685387 -101798,-6685388 -101804,-6685387 -101814,-6685384 -101838,-6685370 -101846,-6685364 -101853,-6685361 -101860,-6685360 -101866,-6685361 -101870,-6685362 -101874,-6685364 -101880,-6685370 -101883,-6685378 -101883,-6685390 -101885,-6685395 -101887,-6685398 -101891,-6685402 -101897,-6685406 -101908,-6685409 -101932,-6685410 -101942,-6685410 -101948,-6685412 -101955,-6685415 -101962,-6685421 -101972,-6685433 -101997,-6685456 -102020,-6685469 -102034,-6685480 -102041,-6685487 -102077,-6685528 -102105,-6685555 -102126,-6685574 -102170,-6685619 -102175,-6685626 -102179,-6685632 -102180,-6685638 -102181,-6685645 -102178,-6685665 -102178,-6685674 -102180,-6685682 -102184,-6685690 -102189,-6685698 -102194,-6685704 -102211,-6685718 -102217,-6685724 -102227,-6685739 -102235,-6685769 -102235,-6685779 -102232,-6685788 -102220,-6685806 -102214,-6685814 -102207,-6685820 -102168,-6685844 -102149,-6685860 -102148,-6685873 -102149,-6685878 -102157,-6685907 -102160,-6685925 -102161,-6685939 -102158,-6686008 -102159,-6686019 -102163,-6686034 -102170,-6686050 -102195,-6686078 -102203,-6686085 -102212,-6686091 -102224,-6686097 -102288,-6686119 -102321,-6686126 -102342,-6686132 -102351,-6686137 -102360,-6686142 -102372,-6686152 -102392,-6686159 -102479,-6686179 -102510,-6686189 -102603,-6686223 -102627,-6686232 -102645,-6686237 -102672,-6686242 -102694,-6686245 -102735,-6686249 -102746,-6686249 -102763,-6686251 -102773,-6686255 -102784,-6686261 -102793,-6686268 -102798,-6686277 -102803,-6686283 -102809,-6686288 -102817,-6686292 -102825,-6686293 -102833,-6686294 -102841,-6686292 -102852,-6686287 -102864,-6686286 -102874,-6686285 -102894,-6686280 -102916,-6686271 -102919,-6686270 -102929,-6686270 -102933,-6686272 -102943,-6686278 -102955,-6686280 -102966,-6686279 -102976,-6686276 -102981,-6686273 -102991,-6686264 -103044,-6686232 -103050,-6686228 -103058,-6686221 -103064,-6686215 -103067,-6686210 -103079,-6686187 -103083,-6686182 -103091,-6686175 -103101,-6686169 -103117,-6686162 -103157,-6686156 -103189,-6686144 -103203,-6686141 -103230,-6686138 -103242,-6686137 -103274,-6686142 -103294,-6686147 -103319,-6686159 -103334,-6686163 -103347,-6686163 -103361,-6686159 -103367,-6686156 -103395,-6686133 -103414,-6686111 -103434,-6686092 -103445,-6686090 -103450,-6686090 -103455,-6686092 -103471,-6686101 -103475,-6686102 -103483,-6686102 -103490,-6686099 -103499,-6686095 -103553,-6686058 -103589,-6686029 -103595,-6686021 -103599,-6686017 -103604,-6686014 -103609,-6686013 -103627,-6686015 -103694,-6686030 -103724,-6686034 -103730,-6686032 -103734,-6686031 -103739,-6686032 -103743,-6686033 -103747,-6686036 -103754,-6686045 -103765,-6686055 -103785,-6686076 -103793,-6686081 -103799,-6686083 -103804,-6686083 -103811,-6686081 -103819,-6686074 -103822,-6686066 -103829,-6686057 -103837,-6686053 -103846,-6686051 -103858,-6686054 -103866,-6686057 -103875,-6686061 -103880,-6686064 -103892,-6686075 -103908,-6686088 -103950,-6686112 -103983,-6686126 -103995,-6686131 -104023,-6686142 -104049,-6686153 -104062,-6686152 -104073,-6686153 -104082,-6686155 -104089,-6686157 -104126,-6686173 -104165,-6686195 -104221,-6686234 -104227,-6686241 -104231,-6686248 -104232,-6686253 -104234,-6686263 -104232,-6686268 -104229,-6686275 -104225,-6686279 -104194,-6686297 -104191,-6686299 -104187,-6686305 -104185,-6686313 -104184,-6686320 -104185,-6686325 -104188,-6686337 -104193,-6686348 -104243,-6686322 -104260,-6686304 -104265,-6686297 -104270,-6686288 -104272,-6686278 -104274,-6686261 -104275,-6686227 -104279,-6686200 -104287,-6686149 -104296,-6686070 -104300,-6686045 -104305,-6686021 -104306,-6686009 -104305,-6685997 -104304,-6685988 -104300,-6685970 -104298,-6685960 -104298,-6685951 -104301,-6685935 -104307,-6685921 -104311,-6685914 -104322,-6685902 -104332,-6685894 -104341,-6685884 -104350,-6685874 -104367,-6685851 -104386,-6685841 -104405,-6685831 -104435,-6685835 -104476,-6685843 -104490,-6685842 -104499,-6685839 -104507,-6685833 -104515,-6685825 -104524,-6685812 -104546,-6685787 -104622,-6685834 -104661,-6685854 -104742,-6685900 -104741,-6685911 -104745,-6685912 -104754,-6685915 -104793,-6685917 -104976,-6685885 -105072,-6685862 -105140,-6685852 -105201,-6685845 -105265,-6685835 -105312,-6685817 -105384,-6685793 -105437,-6685781 -105499,-6685770 -105591,-6685763 -105613,-6685759 -105702,-6685739 -105823,-6685719 -105872,-6685709 -105915,-6685704 -105980,-6685693 -106003,-6685709 -106047,-6685689 -106075,-6685682 -106331,-6685629 -106538,-6685582 -106609,-6685566 -106722,-6685542 -106809,-6685520 -106935,-6685497 -107055,-6685469 -107200,-6685440 -107215,-6685442 -107289,-6685431 -107306,-6685428 -107324,-6685424 -107383,-6685407 -107469,-6685384 -107552,-6685367 -107621,-6685350 -107647,-6685342 -107662,-6685339 -107677,-6685337 -107694,-6685336 -107712,-6685337 -107756,-6685332 -107822,-6685319 -107896,-6685303 -107992,-6685290 -108093,-6685268 -108196,-6685227 -108234,-6685213 -108243,-6685211 -108253,-6685210 -108264,-6685210 -108276,-6685212 -108292,-6685216 -108336,-6685222 -108362,-6685222 -108395,-6685224 -108425,-6685233 -108489,-6685245 -108538,-6685243 -108565,-6685248 -108592,-6685252 -108605,-6685256 -108680,-6685285 -108771,-6685321 -108806,-6685336 -108904,-6685310 -109234,-6685221 -109317,-6685203 -109344,-6685197 -109394,-6685190 -109431,-6685186 -109489,-6685184 -109546,-6685177 -109580,-6685179 -109651,-6685181 -109771,-6685197 -109843,-6685196 -109932,-6685242 -109941,-6685268 -109974,-6685350 -109968,-6685388 -109926,-6685404 -109901,-6685423 -109888,-6685440 -109858,-6685452 -109837,-6685470 -109773,-6685476 -109752,-6685489 -109729,-6685486 -109714,-6685517 -109701,-6685560 -109703,-6685583 -109705,-6685587 -109715,-6685597 -109728,-6685605 -109733,-6685611 -109738,-6685618 -109740,-6685625 -109741,-6685632 -109741,-6685638 -109740,-6685648 -109740,-6685699 -109742,-6685706 -109745,-6685712 -109754,-6685721 -109774,-6685730 -109779,-6685738 -109788,-6685778 -109798,-6685811 -109787,-6685824 -109773,-6685844 -109786,-6685878 -109815,-6685915 -109845,-6685934 -109929,-6685982 -109984,-6686009 -109998,-6685996 -110037,-6685975 -110059,-6685969 -110140,-6685948 -110152,-6685945 -110183,-6685931 -110197,-6685926 -110206,-6685923 -110216,-6685922 -110233,-6685923 -110238,-6685923 -110265,-6685936 -110269,-6685968 -110288,-6686001 -110343,-6686086 -110366,-6686141 -110330,-6686169 -110322,-6686173 -110317,-6686176 -110313,-6686181 -110311,-6686186 -110310,-6686196 -110321,-6686242 -110340,-6686252 -110378,-6686266 -110386,-6686268 -110391,-6686271 -110396,-6686276 -110400,-6686281 -110402,-6686287 -110403,-6686293 -110403,-6686299 -110401,-6686305 -110394,-6686316 -110389,-6686327 -110382,-6686341 -110382,-6686347 -110382,-6686353 -110384,-6686359 -110386,-6686363 -110389,-6686367 -110402,-6686378 -110406,-6686383 -110408,-6686390 -110408,-6686396 -110405,-6686410 -110402,-6686420 -110398,-6686428 -110394,-6686433 -110385,-6686441 -110376,-6686446 -110362,-6686465 -110352,-6686476 -110347,-6686480 -110334,-6686489 -110325,-6686496 -110318,-6686504 -110313,-6686513 -110306,-6686529 -110302,-6686568 -110301,-6686571 -110290,-6686593 -110263,-6686629 -110258,-6686639 -110256,-6686647 -110255,-6686658 -110256,-6686667 -110264,-6686693 -110267,-6686699 -110273,-6686707 -110279,-6686712 -110292,-6686720 -110299,-6686727 -110301,-6686731 -110304,-6686739 -110304,-6686743 -110299,-6686777 -110298,-6686791 -110296,-6686801 -110290,-6686817 -110269,-6686843 -110239,-6686872 -110233,-6686883 -110232,-6686889 -110233,-6686898 -110236,-6686905 -110262,-6686932 -110265,-6686939 -110267,-6686945 -110264,-6686958 -110228,-6686990 -110216,-6686997 -110188,-6686975 -110176,-6686968 -110173,-6686967 -110167,-6686967 -110162,-6686968 -110156,-6686971 -110149,-6686977 -110144,-6686984 -110140,-6686991 -110138,-6686998 -110137,-6687006 -110137,-6687014 -110139,-6687021 -110145,-6687037 -110145,-6687044 -110144,-6687054 -110141,-6687064 -110138,-6687068 -110129,-6687075 -110110,-6687080 -110105,-6687083 -110101,-6687084 -110097,-6687084 -110092,-6687083 -110088,-6687081 -110084,-6687078 -110082,-6687074 -110081,-6687070 -110080,-6687063 -110068,-6687042 -110048,-6687029 -110034,-6687040 -110014,-6687036 -109998,-6687051 -109980,-6687077 -109984,-6687103 -109993,-6687126 -109998,-6687133 -110000,-6687139 -109999,-6687145 -109998,-6687149 -109993,-6687155 -109986,-6687159 -109964,-6687180 -109959,-6687186 -109956,-6687190 -109947,-6687194 -109942,-6687195 -109933,-6687194 -109897,-6687180 -109850,-6687157 -109813,-6687145 -109804,-6687144 -109777,-6687145 -109742,-6687143 -109725,-6687138 -109709,-6687131 -109690,-6687127 -109679,-6687128 -109672,-6687129 -109621,-6687153 -109594,-6687188 -109554,-6687229 -109544,-6687237 -109536,-6687242 -109526,-6687245 -109518,-6687247 -109502,-6687246 -109490,-6687248 -109486,-6687251 -109478,-6687258 -109475,-6687262 -109457,-6687303 -109464,-6687311 -109488,-6687331 -109496,-6687333 -109501,-6687336 -109504,-6687339 -109507,-6687344 -109509,-6687351 -109509,-6687352 -109507,-6687374 -109508,-6687381 -109509,-6687386 -109513,-6687393 -109516,-6687402 -109516,-6687408 -109515,-6687417 -109513,-6687425 -109507,-6687437 -109504,-6687450 -109515,-6687484 -109516,-6687497 -109514,-6687505 -109511,-6687511 -109507,-6687517 -109498,-6687524 -109484,-6687542 -109487,-6687571 -109487,-6687571 -109494,-6687602 -109482,-6687629 -109459,-6687669 -109437,-6687703 -109419,-6687735 -109417,-6687746 -109396,-6687795 -109362,-6687880 -109332,-6687926 -109304,-6687961 -109282,-6688008 -109285,-6688030 -109337,-6688067 -109383,-6688094 -109397,-6688104 -109422,-6688111 -109472,-6688139 -109490,-6688150 -109524,-6688173 -109564,-6688205 -109521,-6688259 -109506,-6688281 -109522,-6688302 -109538,-6688316 -109555,-6688333 -109603,-6688391 -109657,-6688472 -109664,-6688485 -109677,-6688511 -109692,-6688535 -109752,-6688601 -109767,-6688621 -109792,-6688647 -109813,-6688674 -109841,-6688704 -109860,-6688723 -109863,-6688729 -109885,-6688755 -109926,-6688784 -110064,-6688889 -110104,-6688923 -110131,-6688955 -110203,-6689026 -110232,-6689060 -110262,-6689115 -110283,-6689147 -110349,-6689258 -110369,-6689300 -110395,-6689363 -110474,-6689478 -110499,-6689508 -110536,-6689534 -110653,-6689606 -110680,-6689628 -110729,-6689678 -110812,-6689732 -110840,-6689750 -110853,-6689762 -110964,-6689852 -110993,-6689887 -111075,-6689990 -111120,-6690042 -111161,-6690094 -111234,-6690186 -111273,-6690237 -111301,-6690271 -111433,-6690398 -111474,-6690427 -111552,-6690483 -111600,-6690514 -111602,-6690522 -111674,-6690567 -111719,-6690589 -111805,-6690645 -111843,-6690667 -111925,-6690722 -111940,-6690731 -111977,-6690752 -112045,-6690794 -112091,-6690821 -112103,-6690828 -112119,-6690837 -112152,-6690850 -112170,-6690859 -112223,-6690884 -112378,-6690962 -112381,-6690963 -112408,-6690978 -112484,-6691023 -112560,-6691062 -112580,-6691070 -112602,-6691077 -112612,-6691080 -112642,-6691083 -112622,-6691140 -112576,-6691247 -112553,-6691310 -112546,-6691333 -112540,-6691372 -112530,-6691403 -112520,-6691446 -112504,-6691535 -112499,-6691559 -112479,-6691597 -112450,-6691636 -112445,-6691644 -112437,-6691662 -112413,-6691743 -112405,-6691774 -112404,-6691809 -112401,-6691867 -112393,-6691930 -112387,-6691939 -112380,-6691957 -112368,-6692004 -112347,-6692095 -112343,-6692109 -112332,-6692146 -112183,-6692335 -112192,-6692359 -112172,-6692378 -112149,-6692406 -112134,-6692426 -112090,-6692488 -112059,-6692545 -112032,-6692589 -112002,-6692601 -111971,-6692616 -111965,-6692621 -111950,-6692636 -111923,-6692673 -111918,-6692683 -111916,-6692690 -111914,-6692698 -111913,-6692709 -111914,-6692728 -111920,-6692767 -111915,-6692786 -111857,-6692865 -111832,-6692922 -111825,-6692936 -111818,-6692948 -111809,-6692959 -111781,-6692994 -111774,-6693011 -111767,-6693029 -111752,-6693085 -111743,-6693106 -111741,-6693115 -111740,-6693118 -111733,-6693163 -111728,-6693186 -111727,-6693207 -111726,-6693218 -111709,-6693271 -111711,-6693316 -111714,-6693332 -111719,-6693349 -111726,-6693359 -111731,-6693370 -111733,-6693385 -111731,-6693401 -111732,-6693411 -111734,-6693423 -111751,-6693469 -111754,-6693485 -111754,-6693491 -111754,-6693504 -111751,-6693519 -111745,-6693549 -111747,-6693595 -111750,-6693621 -111749,-6693644 -111720,-6693711 -111711,-6693762 -111709,-6693768 -111707,-6693773 -111701,-6693781 -111682,-6693796 -111673,-6693806 -111660,-6693828 -111647,-6693855 -111622,-6693879 -111613,-6693900 -111571,-6693939 -111536,-6693964 -111487,-6694001 -111444,-6694024 -111442,-6694027 -111423,-6694074 -111417,-6694111 -111414,-6694146 -111408,-6694174 -111406,-6694178 -111393,-6694201 -111366,-6694270 -111336,-6694332 -111304,-6694368 -111291,-6694388 -111286,-6694401 -111282,-6694415 -111280,-6694429 -111281,-6694450 -111280,-6694459 -111277,-6694475 -111269,-6694497 -111265,-6694506 -111259,-6694514 -111255,-6694518 -111223,-6694542 -111234,-6694571 -111241,-6694582 -111248,-6694591 -111255,-6694597 -111261,-6694601 -111265,-6694604 -111295,-6694616 -111293,-6694631 -111299,-6694670 -111312,-6694703 -111315,-6694720 -111316,-6694733 -111322,-6694772 -111322,-6694815 -111323,-6694830 -111329,-6694860 -111341,-6694906 -111367,-6694905 -111410,-6694906 -111450,-6694909 -111474,-6694913 -111455,-6694936 -111422,-6694995 -111404,-6695021 -111392,-6695055 -111391,-6695084 -111386,-6695105 -111345,-6695173 -111339,-6695178 -111288,-6695210 -111292,-6695224 -111275,-6695242 -111226,-6695288 -111208,-6695314 -111171,-6695343 -111136,-6695366 -111112,-6695378 -111083,-6695396 -111092,-6695418 -111123,-6695479 -111117,-6695542 -111114,-6695576 -111112,-6695610 -111112,-6695658 -111102,-6695764 -111098,-6695830 -111125,-6695849 -111150,-6695861 -111186,-6695872 -111242,-6695884 -111240,-6695913 -111244,-6695936 -111255,-6695939 -111311,-6695948 -111314,-6695957 -111311,-6696004 -111302,-6696041 -111264,-6696164 -111230,-6696269 -111235,-6696376 -111303,-6696366 -111354,-6696359 -111345,-6696427 -111313,-6696604 -111305,-6696651 -111282,-6696747 -111276,-6696772 -111269,-6696777 -111269,-6696800 -111285,-6696815 -111302,-6696836 -111342,-6696870 -111359,-6696882 -111380,-6696895 -111402,-6696908 -111416,-6696915 -111443,-6696928 -111461,-6696937 -111492,-6696948 -111505,-6696950 -111525,-6696955 -111536,-6696960 -111556,-6696973 -111627,-6697008 -111625,-6697016 -111619,-6697026 -111612,-6697032 -111601,-6697038 -111589,-6697041 -111582,-6697041 -111571,-6697040 -111447,-6697065 -111460,-6696939 -111439,-6696929 -111413,-6696917 -111400,-6696910 -111377,-6696896 -111356,-6696883 -111340,-6696872 -111300,-6696838 -111283,-6696816 -111267,-6696802 -111251,-6696791 -111238,-6696786 -111227,-6696782 -111217,-6696781 -111206,-6696782 -111200,-6696783 -111184,-6696789 -111170,-6696786 -111168,-6696786 -111172,-6696770 -111169,-6696739 -111158,-6696702 -111150,-6696680 -111136,-6696646 -111093,-6696554 -111050,-6696471 -111018,-6696406 -110969,-6696293 -110942,-6696224 -110938,-6696209 -110936,-6696190 -110936,-6696156 -110940,-6696090 -110939,-6696064 -110933,-6696019 -110926,-6695990 -110916,-6695932 -110904,-6695853 -110851,-6695850 -110809,-6695844 -110789,-6695842 -110729,-6695843 -110721,-6695847 -110676,-6695848 -110639,-6695844 -110609,-6695844 -110580,-6695839 -110558,-6695829 -110488,-6695898 -110366,-6696010 -110338,-6696014 -110304,-6696016 -110215,-6696025 -110133,-6696037 -110091,-6696047 -109993,-6696061 -109963,-6696063 -109950,-6696068 -109938,-6696073 -109906,-6696090 -109846,-6696147 -109824,-6696162 -109754,-6696203 -109688,-6696244 -109640,-6696272 -109626,-6696279 -109613,-6696266 -109599,-6696258 -109590,-6696226 -109589,-6696164 -109540,-6696148 -109452,-6696114 -109418,-6696101 -109384,-6696089 -109309,-6696065 -109269,-6696047 -109242,-6696037 -109266,-6695993 -109282,-6695970 -109313,-6695928 -109346,-6695888 -109388,-6695839 -109409,-6695810 -109431,-6695769 -109468,-6695722 -109423,-6695682 -109373,-6695643 -109329,-6695612 -109309,-6695593 -109284,-6695561 -109241,-6695497 -109212,-6695446 -109203,-6695427 -109191,-6695367 -109185,-6695346 -109171,-6695297 -109136,-6695145 -109115,-6695074 -109069,-6694954 -109072,-6694945 -109078,-6694931 -109084,-6694920 -109096,-6694904 -109108,-6694881 -109093,-6694751 -109081,-6694681 -109062,-6694649 -109047,-6694630 -109033,-6694609 -109019,-6694591 -108995,-6694589 -108956,-6694583 -108942,-6694582 -108910,-6694583 -108870,-6694589 -108813,-6694592 -108779,-6694590 -108743,-6694590 -108687,-6694589 -108663,-6694583 -108649,-6694583 -108633,-6694583 -108611,-6694587 -108588,-6694591 -108539,-6694602 -108493,-6694605 -108457,-6694602 -108406,-6694606 -108384,-6694595 -108364,-6694473 -108361,-6694429 -108371,-6694416 -108408,-6694412 -108399,-6694229 -108399,-6694180 -108391,-6694101 -108272,-6694133 -108171,-6694159 -108165,-6694140 -108031,-6694186 -107791,-6694274 -107621,-6694335 -107565,-6694353 -107501,-6694377 -107423,-6694409 -107408,-6694414 -107407,-6694414 -107408,-6694449 -107393,-6694454 -107377,-6694460 -107338,-6694470 -107256,-6694493 -107230,-6694502 -107191,-6694515 -107128,-6694535 -107093,-6694548 -107081,-6694559 -107080,-6694560 -107094,-6694622 -107074,-6694629 -107083,-6694686 -107091,-6694762 -107103,-6694843 -107031,-6694862 -106853,-6694904 -106870,-6694962 -106898,-6695047 -106847,-6695169 -106818,-6695229 -106776,-6695310 -106720,-6695423 -106641,-6695585 -106602,-6695660 -106571,-6695723 -106523,-6695832 -106520,-6695840 -106549,-6695900 -106474,-6695953 -106391,-6696015 -106331,-6696069 -106277,-6696123 -106220,-6696191 -106184,-6696211 -106150,-6696222 -106073,-6696322 -106001,-6696386 -105948,-6696436 -105912,-6696463 -105888,-6696489 -105839,-6696522 -105766,-6696566 -105734,-6696570 -105658,-6696605 -105637,-6696633 -105615,-6696678 -105609,-6696692 -105567,-6696770 -105527,-6696844 -105519,-6696858 -105490,-6696894 -105436,-6696970 -105415,-6697005 -105369,-6697099 -105367,-6697103 -105348,-6697149 -105345,-6697164 -105342,-6697172 -105338,-6697182 -105331,-6697193 -105312,-6697217 -105269,-6697266 -105216,-6697342 -105191,-6697384 -105155,-6697429 -105130,-6697458 -105097,-6697498 -105079,-6697524 -105033,-6697576 -105025,-6697582 -105022,-6697584 -105018,-6697587 -105037,-6697631 -105054,-6697675 -105076,-6697699 -105080,-6697724 -105079,-6697764 -105078,-6697832 -105077,-6697960 -105079,-6698016 -105073,-6698109 -105074,-6698159 -105071,-6698186 -105070,-6698279 -105066,-6698329 -105048,-6698379 -105041,-6698408 -105040,-6698423 -105040,-6698430 -105045,-6698510 -105045,-6698515 -105046,-6698556 -105040,-6698674 -105040,-6698721 -105031,-6698802 -105031,-6698810 -105032,-6698843 -105033,-6698858 -105041,-6698897 -105048,-6698947 -105044,-6699096 -105048,-6699147 -105053,-6699218 -105076,-6699218 -105084,-6699212 -105112,-6699221 -105118,-6699217 -105143,-6699213 -105213,-6699197 -105276,-6699182 -105344,-6699162 -105352,-6699164 -105355,-6699172 -105355,-6699286 -105354,-6699347 -105438,-6699356 -105545,-6699369 -105533,-6699519 -105518,-6699691 -105377,-6699683 -105359,-6699722 -105355,-6699735 -105348,-6699761 -105345,-6699774 -105342,-6699796 -105340,-6699832 -105342,-6699912 -105155,-6700015 -105165,-6700125 -105171,-6700171 -105172,-6700180 -105170,-6700194 -105162,-6700219 -105160,-6700234 -105158,-6700362 -105159,-6700389 -105162,-6700428 -105174,-6700487 -105174,-6700488 -105185,-6700516 -105217,-6700589 -105220,-6700598 -105146,-6700632 -105127,-6700607 -105111,-6700618 -105111,-6700624 -105087,-6700615 -105073,-6700609 -105051,-6700602 -105030,-6700596 -104997,-6700588 -104972,-6700583 -104960,-6700581 -104948,-6700580 -104873,-6700574 -104864,-6700572 -104839,-6700563 -104772,-6700530 -104678,-6700479 -104652,-6700463 -104627,-6700448 -104527,-6700375 -104508,-6700360 -104498,-6700354 -104480,-6700345 -104402,-6700314 -104390,-6700309 -104378,-6700303 -104349,-6700285 -104314,-6700245 -104269,-6700201 -104243,-6700172 -104236,-6700166 -104223,-6700155 -104207,-6700143 -104191,-6700132 -104165,-6700116 -104141,-6700097 -104112,-6700079 -104078,-6700047 -104068,-6700038 -104062,-6700033 -104058,-6700027 -104055,-6700020 -104051,-6700008 -103995,-6699894 -103985,-6699874 -103962,-6699837 -103904,-6699761 -103867,-6699726 -103839,-6699696 -103826,-6699685 -103812,-6699676 -103799,-6699670 -103793,-6699668 -103762,-6699685 -103718,-6699739 -103680,-6699788 -103645,-6699836 -103606,-6699894 -103591,-6699925 -103548,-6700019 -103541,-6700032 -103492,-6700117 -103486,-6700128 -103475,-6700150 -103468,-6700169 -103459,-6700192 -103441,-6700246 -103401,-6700331 -103357,-6700418 -103367,-6700431 -103424,-6700500 -103451,-6700535 -103465,-6700554 -103488,-6700576 -103517,-6700610 -103528,-6700623 -103572,-6700690 -103583,-6700686 -103662,-6700805 -103688,-6700847 -103699,-6700865 -103747,-6700956 -103774,-6701020 -103775,-6701026 -103810,-6701126 -103820,-6701150 -103828,-6701174 -103867,-6701249 -103892,-6701304 -103933,-6701377 -103970,-6701440 -104027,-6701536 -104082,-6701624 -104115,-6701674 -104180,-6701751 -104251,-6701843 -104283,-6701881 -104333,-6701936 -104400,-6702001 -104424,-6702022 -104513,-6702103 -104580,-6702155 -104615,-6702180 -104651,-6702204 -104707,-6702239 -104749,-6702270 -104872,-6702344 -104901,-6702364 -104981,-6702407 -105041,-6702438 -105072,-6702453 -105120,-6702474 -105202,-6702513 -105269,-6702537 -105340,-6702560 -105462,-6702597 -105522,-6702611 -105669,-6702651 -105697,-6702640 -105704,-6702649 -105759,-6702661 -105754,-6702687 -105730,-6702751 -105715,-6702793 -105710,-6702819 -105703,-6702839 -105682,-6702871 -105674,-6702882 -105670,-6702888 -105666,-6702896 -105663,-6702906 -105661,-6702924 -105660,-6702982 -105532,-6702968 -105468,-6702964 -105422,-6702964 -105383,-6702967 -105347,-6702971 -105306,-6702980 -105114,-6703058 -105030,-6703102 -104901,-6703175 -104798,-6703253 -104692,-6703325 -104533,-6703451 -104415,-6703557 -104265,-6703713 -104148,-6703838 -104077,-6703898 -104004,-6703954 -103963,-6703983 -103865,-6704065 -103823,-6704104 -103794,-6704133 -103783,-6704147 -103769,-6704166 -103761,-6704179 -103710,-6704280 -103689,-6704322 -103680,-6704339 -103665,-6704370 -103657,-6704381 -103646,-6704394 -103598,-6704434 -103543,-6704456 -103529,-6704459 -103520,-6704459 -103505,-6704459 -103399,-6704436 -103318,-6704403 -103242,-6704383 -103178,-6704370 -103079,-6704352 -103036,-6704347 -103007,-6704344 -102976,-6704343 -102945,-6704344 -102866,-6704348 -102832,-6704352 -102822,-6704353 -102802,-6704358 -102782,-6704365 -102760,-6704374 -102742,-6704384 -102713,-6704401 -102699,-6704410 -102644,-6704451 -102602,-6704486 -102597,-6704491 -102590,-6704503 -102579,-6704525 -102574,-6704538 -102567,-6704562 -102562,-6704578 -102550,-6704635 -102545,-6704660 -102542,-6704678 -102537,-6704736 -102527,-6704814 -102520,-6704864 -102509,-6704919 -102500,-6704965 -102498,-6704977 -102478,-6705031 -102464,-6705089 -102423,-6705181 -102413,-6705208 -102405,-6705227 -102396,-6705245 -102385,-6705266 -102372,-6705287 -102359,-6705307 -102333,-6705342 -102320,-6705357 -102303,-6705375 -102288,-6705391 -102276,-6705402 -102255,-6705419 -102214,-6705447 -102204,-6705456 -102138,-6705548 -102081,-6705622 -102073,-6705631 -102065,-6705638 -102048,-6705647 -102020,-6705659 -102011,-6705662 -101991,-6705667 -101951,-6705676 -101924,-6705685 -101911,-6705687 -101872,-6705691 -101857,-6705693 -101845,-6705696 -101823,-6705704 -101809,-6705711 -101805,-6705715 -101798,-6705725 -101789,-6705751 -101779,-6705784 -101768,-6705816 -101761,-6705831 -101754,-6705842 -101747,-6705850 -101719,-6705872 -101692,-6705903 -101681,-6705913 -101672,-6705921 -101662,-6705929 -101656,-6705932 -101637,-6705942 -101617,-6705949 -101504,-6705998 -101425,-6706032 -101413,-6706038 -101401,-6706045 -101390,-6706054 -101381,-6706062 -101373,-6706070 -101368,-6706076 -101333,-6706127 -101327,-6706140 -101322,-6706154 -101317,-6706174 -101313,-6706197 -101310,-6706221 -101309,-6706242 -101310,-6706273 -101317,-6706330 -101321,-6706353 -101343,-6706408 -101356,-6706439 -101360,-6706456 -101365,-6706526 -101365,-6706549 -101365,-6706565 -101362,-6706588 -101357,-6706619 -101344,-6706754 -101338,-6706796 -101335,-6706823 -101330,-6706910 -101330,-6706973 -101327,-6707010 -101324,-6707027 -101321,-6707039 -101312,-6707065 -101305,-6707080 -101297,-6707096 -101284,-6707117 -101267,-6707141 -101245,-6707171 -101233,-6707187 -101187,-6707240 -101134,-6707310 -101098,-6707351 -101073,-6707377 -101045,-6707404 -101013,-6707431 -100985,-6707455 -100947,-6707483 -100885,-6707522 -100854,-6707539 -100834,-6707548 -100811,-6707556 -100778,-6707563 -100733,-6707567 -100676,-6707575 -100614,-6707577 -100552,-6707584 -100525,-6707586 -100449,-6707589 -100415,-6707592 -100395,-6707597 -100382,-6707604 -100351,-6707624 -100310,-6707642 -100294,-6707650 -100283,-6707657 -100211,-6707729 -100151,-6707775 -100136,-6707785 -100105,-6707804 -100071,-6707821 -99995,-6707850 -99973,-6707859 -99960,-6707866 -99953,-6707871 -99946,-6707878 -99936,-6707888 -99926,-6707902 -99925,-6707921 -99927,-6707951 -99930,-6707968 -99932,-6707977 -99939,-6707992 -99944,-6708003 -99964,-6708034 -99979,-6708060 -99982,-6708066 -99987,-6708081 -99991,-6708097 -99994,-6708108 -99994,-6708118 -99994,-6708129 -99988,-6708151 -99981,-6708166 -99942,-6708224 -99911,-6708266 -99877,-6708311 -99813,-6708416 -99812,-6708420 -99806,-6708441 -99791,-6708540 -99783,-6708583 -99791,-6708606 -99797,-6708645 -99798,-6708668 -99796,-6708716 -99792,-6708736 -99789,-6708746 -99785,-6708755 -99780,-6708763 -99776,-6708767 -99769,-6708773 -99760,-6708777 -99749,-6708782 -99729,-6708786 -99684,-6708784 -99597,-6708786 -99579,-6708788 -99557,-6708793 -99549,-6708796 -99532,-6708803 -99515,-6708811 -99503,-6708819 -99493,-6708828 -99482,-6708839 -99473,-6708851 -99466,-6708862 -99461,-6708874 -99458,-6708884 -99456,-6708894 -99456,-6708907 -99457,-6708919 -99459,-6708927 -99463,-6708936 -99469,-6708945 -99485,-6708962 -99505,-6708976 -99568,-6709010 -99598,-6709031 -99639,-6709080 -99648,-6709092 -99653,-6709102 -99658,-6709115 -99661,-6709125 -99662,-6709132 -99661,-6709147 -99660,-6709154 -99655,-6709164 -99649,-6709175 -99640,-6709186 -99631,-6709195 -99621,-6709202 -99594,-6709216 -99553,-6709232 -99547,-6709236 -99537,-6709243 -99527,-6709254 -99517,-6709267 -99510,-6709279 -99503,-6709296 -99501,-6709307 -99500,-6709321 -99501,-6709335 -99502,-6709348 -99504,-6709355 -99516,-6709394 -99518,-6709404 -99525,-6709442 -99528,-6709472 -99528,-6709495 -99523,-6709566 -99521,-6709580 -99519,-6709588 -99513,-6709603 -99502,-6709618 -99483,-6709640 -99479,-6709644 -99455,-6709663 -99405,-6709695 -99301,-6709760 -99283,-6709773 -99251,-6709807 -99189,-6709885 -99159,-6709919 -99145,-6709931 -99114,-6709956 -99055,-6709994 -99045,-6710001 -98980,-6710040 -98958,-6710056 -98873,-6710135 -98856,-6710150 -98833,-6710167 -98810,-6710183 -98790,-6710195 -98772,-6710204 -98758,-6710210 -98735,-6710217 -98727,-6710219 -98712,-6710220 -98684,-6710218 -98668,-6710219 -98645,-6710222 -98621,-6710229 -98524,-6710276 -98410,-6710341 -98379,-6710360 -98331,-6710396 -98286,-6710427 -98239,-6710455 -98227,-6710461 -98220,-6710464 -98068,-6710507 -98036,-6710519 -98001,-6710537 -97980,-6710545 -97965,-6710549 -97946,-6710553 -97925,-6710555 -97819,-6710564 -97611,-6710585 -97459,-6710593 -97342,-6710596 -97314,-6710598 -97266,-6710607 -97243,-6710613 -97199,-6710628 -97179,-6710633 -97114,-6710642 -97075,-6710646 -97060,-6710648 -97047,-6710652 -97036,-6710657 -97024,-6710663 -97007,-6710674 -96986,-6710689 -96966,-6710704 -96950,-6710719 -96938,-6710731 -96927,-6710745 -96922,-6710752 -96876,-6710868 -96870,-6710884 -96864,-6710906 -96857,-6710933 -96854,-6710956 -96853,-6710970 -96853,-6710984 -96855,-6711001 -96858,-6711018 -96862,-6711034 -96867,-6711049 -96874,-6711063 -96888,-6711088 -96942,-6711169 -96953,-6711192 -96958,-6711204 -96962,-6711218 -96966,-6711238 -96967,-6711248 -96967,-6711263 -96968,-6711278 -96967,-6711298 -96961,-6711370 -96960,-6711410 -96962,-6711432 -96965,-6711450 -96971,-6711465 -96976,-6711477 -96992,-6711508 -97051,-6711608 -97066,-6711629 -97075,-6711639 -97088,-6711651 -97112,-6711671 -97229,-6711773 -97275,-6711819 -97308,-6711849 -97322,-6711862 -97341,-6711878 -97348,-6711884 -97378,-6711902 -97457,-6711939 -97546,-6711980 -97596,-6712007 -97623,-6712025 -97654,-6712049 -97708,-6712096 -97730,-6712113 -97747,-6712125 -97780,-6712145 -97796,-6712153 -97850,-6712176 -97911,-6712204 -97922,-6712213 -97940,-6712233 -97957,-6712257 -97965,-6712271 -97976,-6712295 -97987,-6712322 -97994,-6712342 -98000,-6712361 -98016,-6712423 -98029,-6712474 -98034,-6712503 -98037,-6712528 -98039,-6712541 -98055,-6712648 -98044,-6712719 -98026,-6712770 -98001,-6712861 -97991,-6712911 -97991,-6712945 -98005,-6713037 -98020,-6713124 -98021,-6713141 -98018,-6713155 -97993,-6713223 -97984,-6713243 -97973,-6713263 -97963,-6713279 -97956,-6713290 -97949,-6713298 -97942,-6713305 -97935,-6713309 -97928,-6713314 -97920,-6713317 -97892,-6713325 -97886,-6713327 -97876,-6713333 -97865,-6713340 -97854,-6713349 -97845,-6713358 -97838,-6713366 -97830,-6713378 -97820,-6713395 -97808,-6713420 -97798,-6713450 -97792,-6713479 -97789,-6713514 -97790,-6713542 -97792,-6713557 -97798,-6713589 -97811,-6713625 -97814,-6713637 -97815,-6713648 -97814,-6713657 -97811,-6713684 -97787,-6713773 -97782,-6713797 -97777,-6713823 -97774,-6713848 -97771,-6713870 -97771,-6713881 -97770,-6713933 -97770,-6714017 -97785,-6714157 -97785,-6714186 -97784,-6714198 -97783,-6714205 -97782,-6714209 -97768,-6714253 -97763,-6714275 -97761,-6714304 -97761,-6714320 -97762,-6714336 -97764,-6714349 -97767,-6714360 -97776,-6714383 -97784,-6714399 -97795,-6714419 -97808,-6714439 -97819,-6714453 -97827,-6714463 -97996,-6714641 -98145,-6714798 -98351,-6715027 -98396,-6715077 -98514,-6715206 -98629,-6715338 -98697,-6715431 -98746,-6715495 -98788,-6715544 -98819,-6715577 -98851,-6715608 -99012,-6715754 -99098,-6715834 -99110,-6715844 -99140,-6715867 -99140,-6715867 -99179,-6715903 -99221,-6715939 -99275,-6715992 -99303,-6716017 -99339,-6716048 -99365,-6716070 -99402,-6716096 -99473,-6716138 -99503,-6716153 -99511,-6716157 -99618,-6716195 -99639,-6716204 -99667,-6716223 -99719,-6716265 -99765,-6716306 -99845,-6716383 -99928,-6716467 -99968,-6716504 -99991,-6716522 -100040,-6716556 -100075,-6716584 -100087,-6716597 -100105,-6716612 -100115,-6716623 -100126,-6716636 -100152,-6716672 -100165,-6716694 -100182,-6716734 -100191,-6716754 -100202,-6716777 -100209,-6716796 -100216,-6716822 -100219,-6716859 -100220,-6716864 -100220,-6716874 -100220,-6716878 -100221,-6717104 -100227,-6717174 -100228,-6717210 -100227,-6717223 -100225,-6717250 -100216,-6717326 -100201,-6717422 -100194,-6717456 -100188,-6717474 -100169,-6717519 -100136,-6717619 -100094,-6717725 -100067,-6717796 -100056,-6717823 -99887,-6718133 -99840,-6718245 -99823,-6718285 -99723,-6718542 -99703,-6718591 -99693,-6718613 -99659,-6718683 -99587,-6718817 -99536,-6718915 -99479,-6719041 -99402,-6719249 -99370,-6719339 -99328,-6719483 -99311,-6719546 -99238,-6719732 -99116,-6720034 -99091,-6720155 -99071,-6720267 -99067,-6720287 -99056,-6720326 -99042,-6720365 -99027,-6720412 -99011,-6720451 -98983,-6720510 -98964,-6720551 -98948,-6720582 -98924,-6720623 -98912,-6720647 -98881,-6720685 -98870,-6720707 -98817,-6720796 -98802,-6720825 -98781,-6720860 -98725,-6720924 -98684,-6720967 -98637,-6721017 -98622,-6721030 -98603,-6721047 -98583,-6721062 -98566,-6721074 -98449,-6721148 -98413,-6721172 -98377,-6721195 -98348,-6721213 -98314,-6721231 -98266,-6721255 -98223,-6721275 -98181,-6721292 -98142,-6721307 -98116,-6721316 -98099,-6721321 -98076,-6721326 -98046,-6721330 -98012,-6721333 -97994,-6721334 -97930,-6721336 -97872,-6721336 -97747,-6721328 -97682,-6721322 -97646,-6721318 -97621,-6721314 -97589,-6721306 -97554,-6721296 -97520,-6721285 -97471,-6721266 -97454,-6721259 -97420,-6721238 -97337,-6721179 -97293,-6721145 -97259,-6721114 -97153,-6721011 -97137,-6720984 -97124,-6720960 -97112,-6720936 -97096,-6720898 -97081,-6720855 -97048,-6720754 -97036,-6720679 -97033,-6720658 -97019,-6720611 -97014,-6720599 -97004,-6720580 -96976,-6720537 -96966,-6720525 -96953,-6720511 -96919,-6720481 -96905,-6720470 -96831,-6720419 -96721,-6720340 -96699,-6720331 -96679,-6720321 -96660,-6720310 -96641,-6720296 -96627,-6720285 -96617,-6720275 -96606,-6720261 -96551,-6720183 -96543,-6720169 -96527,-6720142 -96462,-6720017 -96450,-6719997 -96316,-6719780 -96293,-6719745 -96287,-6719734 -96276,-6719710 -96248,-6719632 -96199,-6719488 -96174,-6719408 -96165,-6719373 -96160,-6719345 -96158,-6719289 -96154,-6719227 -96148,-6719189 -96139,-6719154 -96125,-6719117 -96113,-6719092 -96098,-6719070 -96079,-6719047 -96068,-6719036 -96047,-6719016 -96015,-6718989 -95963,-6718952 -95925,-6718929 -95904,-6718919 -95883,-6718910 -95861,-6718902 -95845,-6718897 -95783,-6718883 -95751,-6718877 -95708,-6718873" stroke="#003087" stroke-width="62" /></ns0:svg>    <rect x="20" y="50"  width="250" height="25"  rx="0"  fill="#003087" fill-opacity="0.8" />    <text x="145" y="70" text-anchor="middle" font-family="Frutiger" font-weight="bold" font-size="30" fill="white">Wokingham</text>    <rect x="35" y="195" width="220" height="160" rx="15" fill="#41B6E6"/>    <g font-family="Frutiger" font-size="15" fill="white">        <g> <text x="45" y="218">Self-harm</text> <text x="245" y="218" text-anchor="end">41</text> </g>        <g> <text x="45" y="243">SEN</text> <text x="245" y="243" text-anchor="end">22</text> </g>        <g> <text x="45" y="268">Difficulties</text> <text x="245" y="268" text-anchor="end">81</text> </g>        <g> <text x="45" y="293">Child Carer</text> <text x="245" y="293" text-anchor="end">17</text> </g>        <g> <text x="45" y="318">Drinkers</text> <text x="245" y="318" text-anchor="end">30</text> </g>        <g> <text x="45" y="343">Safeguarding </text> <text x="245" y="343" text-anchor="end">24</text> </g>    </g></svg>