<?xml version="1.0" standalone="no"?>
<!DOCTYPE svg PUBLIC "-//W3C//DTD SVG 1.1//EN"
"http://www.w3.org/Graphics/SVG/1.1/DTD/svg11.dtd">
<svg height="390" version="1.1" width="290" xmlns="http://www.w3.org/2000/svg"><defs><style type="text/css">@font-face {font-family: 'Frutiger';font-style: normal;font-weight: normal;src: local('Frutiger'), url('../fonts/Frutiger.woff') format('woff');}@font-face {font-family: 'Frutiger Bold';font-style: normal;font-weight: normal;src: local('Frutiger Bold'), url('../fonts/Frutiger_bold.woff') format('woff');}        </style>    </defs>    <rect x="20" y="20"  width="250" height="350" rx="15" fill="#005EB8" />    <rect x="35" y="35"  width="220" height="145" rx="15" fill="white" /><ns0:svg xmlns:ns0="http://www.w3.org/2000/svg" height="115" version="1.1" viewBox="-93213 -6704629 23021 24409" width="220" x="35" y="50"><ns0:polygon fill="#003087" points=" -86345,-6704627 -86327,-6704613 -86290,-6704567 -86199,-6704545 -85972,-6704503 -85837,-6704481 -85778,-6704472 -85676,-6704455 -85675,-6704411 -85679,-6704387 -85682,-6704358 -85689,-6704323 -85692,-6704282 -85698,-6704250 -85704,-6704198 -85705,-6704165 -85712,-6704121 -85715,-6704097 -85722,-6704068 -85729,-6704024 -85731,-6703997 -85729,-6703914 -85726,-6703881 -85722,-6703848 -85705,-6703753 -85699,-6703724 -85689,-6703691 -85694,-6703678 -85666,-6703642 -85609,-6703571 -85547,-6703493 -85502,-6703444 -85463,-6703398 -85399,-6703327 -85309,-6703217 -85256,-6703166 -85222,-6703135 -85197,-6703106 -85160,-6703061 -85139,-6703041 -85118,-6703019 -85109,-6703022 -85101,-6703036 -85086,-6703043 -85065,-6703038 -85040,-6703015 -85028,-6703007 -85017,-6703000 -84995,-6702993 -84971,-6702995 -84953,-6702998 -84930,-6703015 -84853,-6702967 -84829,-6702954 -84770,-6702938 -84741,-6702925 -84685,-6702909 -84660,-6702906 -84605,-6702906 -84571,-6702901 -84441,-6702896 -84359,-6702889 -84305,-6702895 -84278,-6702919 -84205,-6702999 -84096,-6703131 -84040,-6703193 -83879,-6703373 -83796,-6703467 -83687,-6703383 -83600,-6703305 -83465,-6703194 -83195,-6702975 -83139,-6702933 -83102,-6702902 -83032,-6702855 -82994,-6702844 -82955,-6702839 -82937,-6702838 -82919,-6702838 -82881,-6702841 -82827,-6702849 -82834,-6702830 -82818,-6702837 -82781,-6702843 -82729,-6702849 -82686,-6702861 -82633,-6702872 -82582,-6702872 -82495,-6702867 -82472,-6702862 -82462,-6702860 -82402,-6702848 -82349,-6702832 -82306,-6702824 -82204,-6702795 -82152,-6702785 -82023,-6702750 -81955,-6702729 -81904,-6702710 -81730,-6702661 -81616,-6702633 -81558,-6702617 -81340,-6702558 -81287,-6702541 -81183,-6702516 -81091,-6702492 -80999,-6702471 -80958,-6702463 -80907,-6702451 -80889,-6702446 -80793,-6702416 -80653,-6702379 -80655,-6702388 -80631,-6702432 -80623,-6702447 -80609,-6702481 -80593,-6702513 -80583,-6702538 -80558,-6702591 -80518,-6702660 -80493,-6702689 -80468,-6702713 -80458,-6702724 -80430,-6702762 -80403,-6702788 -80373,-6702815 -80345,-6702847 -80259,-6702951 -80235,-6702985 -80205,-6703034 -80194,-6703052 -80116,-6703191 -80079,-6703279 -80062,-6703325 -80037,-6703410 -80028,-6703440 -80008,-6703439 -79962,-6703484 -79959,-6703502 -79948,-6703530 -79896,-6703632 -79868,-6703696 -79858,-6703717 -79835,-6703760 -79786,-6703859 -79671,-6704059 -79644,-6704113 -79612,-6704172 -79561,-6704279 -79548,-6704306 -79528,-6704345 -79382,-6704303 -79357,-6704293 -79272,-6704268 -79236,-6704256 -79188,-6704242 -79089,-6704211 -79069,-6704297 -79051,-6704404 -78738,-6704440 -78559,-6704451 -78517,-6704447 -78465,-6704448 -78419,-6704447 -78372,-6704446 -78244,-6704438 -77932,-6704427 -77852,-6704418 -77812,-6704413 -77736,-6704406 -77568,-6704389 -77483,-6704378 -77375,-6704367 -77270,-6704354 -77249,-6704354 -77235,-6704352 -77222,-6704349 -77209,-6704344 -77194,-6704337 -77107,-6704324 -76911,-6704304 -76876,-6704302 -76826,-6704303 -76814,-6704304 -76729,-6704316 -76684,-6704312 -76619,-6704254 -76592,-6704226 -76546,-6704185 -76469,-6704118 -76394,-6704044 -76352,-6704010 -76296,-6703956 -76225,-6703896 -76203,-6703881 -76136,-6703839 -76098,-6703810 -76032,-6703764 -75981,-6703732 -75963,-6703720 -75961,-6703718 -75951,-6703674 -75934,-6703681 -75920,-6703675 -75882,-6703666 -75825,-6703649 -75731,-6703625 -75672,-6703607 -75620,-6703553 -75510,-6703429 -75437,-6703351 -75406,-6703313 -75392,-6703297 -75344,-6703246 -75334,-6703234 -75290,-6703182 -75247,-6703136 -75224,-6703106 -75191,-6703068 -75162,-6703029 -75132,-6702993 -75109,-6702961 -75080,-6702924 -75056,-6702888 -74990,-6702801 -74934,-6702733 -74889,-6702685 -74847,-6702714 -74721,-6702813 -74666,-6702854 -74620,-6702890 -74509,-6702972 -74485,-6702994 -74461,-6703012 -74452,-6703021 -74435,-6703040 -74410,-6703073 -74370,-6703122 -74348,-6703148 -74317,-6703179 -74276,-6703225 -74200,-6703316 -74159,-6703360 -74124,-6703405 -74046,-6703492 -74029,-6703509 -73765,-6703524 -73626,-6703429 -73579,-6703400 -73470,-6703384 -73366,-6703371 -73109,-6703336 -73126,-6703167 -73140,-6703031 -73158,-6702891 -73189,-6702606 -73204,-6702489 -73209,-6702422 -73218,-6702355 -73227,-6702282 -73235,-6702208 -73241,-6702136 -73264,-6701934 -73275,-6701848 -73282,-6701773 -73291,-6701712 -73296,-6701664 -73299,-6701640 -73298,-6701589 -73288,-6701478 -73284,-6701372 -73277,-6701238 -73273,-6701160 -73322,-6701058 -73399,-6700888 -73439,-6700804 -73509,-6700650 -73577,-6700512 -73660,-6700338 -73691,-6700268 -73561,-6700191 -73374,-6700083 -73216,-6699990 -73008,-6699869 -72904,-6699806 -72806,-6699749 -72788,-6699741 -72695,-6699761 -72602,-6699778 -72501,-6699802 -72446,-6699812 -72360,-6699800 -71978,-6699753 -71916,-6699744 -71856,-6699738 -71713,-6699719 -71698,-6699716 -71654,-6699709 -71553,-6699689 -71502,-6699680 -71477,-6699678 -71461,-6699676 -71435,-6699680 -71238,-6699727 -71036,-6699765 -70917,-6699783 -70879,-6699790 -70808,-6699804 -70697,-6699822 -70631,-6699836 -70550,-6699849 -70436,-6699866 -70364,-6699875 -70307,-6699880 -70251,-6699887 -70217,-6699889 -70192,-6699888 -70218,-6699785 -70237,-6699699 -70306,-6699444 -70323,-6699375 -70350,-6699277 -70364,-6699216 -70408,-6699041 -70433,-6698954 -70446,-6698900 -70490,-6698757 -70575,-6698478 -70615,-6698355 -70655,-6698222 -70662,-6698198 -70791,-6697769 -70818,-6697685 -70844,-6697602 -70906,-6697416 -70926,-6697354 -70866,-6697278 -70763,-6697135 -70722,-6697077 -70684,-6697018 -70646,-6696969 -70605,-6696919 -70569,-6696860 -70551,-6696835 -70536,-6696808 -70489,-6696721 -70474,-6696687 -70465,-6696667 -70459,-6696658 -70444,-6696642 -70423,-6696624 -70397,-6696600 -70383,-6696583 -70346,-6696538 -70326,-6696514 -70308,-6696496 -70278,-6696461 -70271,-6696448 -70268,-6696436 -70288,-6696347 -70299,-6696266 -70307,-6696179 -70313,-6696108 -70313,-6696094 -70318,-6696049 -70333,-6695977 -70344,-6695906 -70351,-6695875 -70350,-6695850 -70353,-6695816 -70361,-6695784 -70360,-6695748 -70361,-6695721 -70346,-6695621 -70341,-6695581 -70337,-6695562 -70328,-6695525 -70316,-6695486 -70294,-6695419 -70280,-6695382 -70275,-6695359 -70270,-6695286 -70273,-6695196 -70277,-6695120 -70287,-6695072 -70294,-6695019 -70299,-6694992 -70294,-6694975 -70277,-6694935 -70296,-6694925 -70326,-6694919 -70393,-6694917 -70443,-6694914 -70581,-6694914 -70623,-6694915 -70663,-6694912 -70686,-6694912 -70701,-6694904 -70723,-6694884 -70729,-6694887 -70731,-6694895 -70737,-6694925 -70763,-6694922 -70798,-6694926 -70822,-6694925 -70859,-6694929 -70937,-6694947 -70998,-6694954 -71038,-6694964 -71058,-6694971 -71068,-6694978 -71087,-6694995 -71096,-6695003 -71105,-6695014 -71147,-6695046 -71163,-6695056 -71170,-6695061 -71176,-6695068 -71195,-6695097 -71205,-6695109 -71217,-6695120 -71224,-6695126 -71256,-6695146 -71281,-6695165 -71293,-6695175 -71311,-6695212 -71321,-6695226 -71323,-6695232 -71325,-6695239 -71329,-6695273 -71341,-6695323 -71351,-6695378 -71363,-6695402 -71382,-6695422 -71395,-6695434 -71403,-6695443 -71410,-6695453 -71422,-6695474 -71432,-6695490 -71473,-6695518 -71498,-6695539 -71514,-6695555 -71520,-6695563 -71525,-6695570 -71535,-6695589 -71550,-6695629 -71569,-6695671 -71577,-6695695 -71595,-6695720 -71601,-6695729 -71609,-6695736 -71618,-6695742 -71627,-6695748 -71635,-6695751 -71643,-6695753 -71675,-6695750 -71685,-6695751 -71694,-6695753 -71701,-6695757 -71715,-6695764 -71720,-6695768 -71722,-6695774 -71728,-6695798 -71730,-6695813 -71742,-6695821 -71757,-6695830 -71780,-6695835 -71843,-6695860 -71874,-6695874 -71889,-6695881 -71925,-6695903 -71937,-6695910 -71951,-6695922 -71965,-6695934 -71990,-6695958 -72000,-6695967 -72003,-6695969 -72017,-6695980 -72051,-6696003 -72092,-6696034 -72145,-6696065 -72195,-6696098 -72235,-6696122 -72264,-6696144 -72275,-6696156 -72299,-6696172 -72328,-6696196 -72410,-6696271 -72518,-6696364 -72568,-6696412 -72573,-6696416 -72628,-6696464 -72673,-6696505 -72699,-6696531 -72727,-6696557 -72736,-6696566 -72744,-6696576 -72776,-6696617 -72787,-6696631 -72809,-6696630 -72854,-6696628 -72928,-6696617 -72988,-6696613 -73042,-6696607 -73059,-6696606 -73076,-6696606 -73098,-6696609 -73120,-6696612 -73160,-6696619 -73182,-6696622 -73246,-6696626 -73276,-6696638 -73288,-6696644 -73299,-6696650 -73312,-6696658 -73378,-6696704 -73491,-6696777 -73612,-6696863 -73792,-6696986 -73815,-6696999 -73865,-6697043 -73890,-6697068 -73907,-6697089 -73915,-6697102 -73968,-6697192 -73993,-6697228 -74018,-6697278 -74033,-6697319 -74049,-6697345 -74066,-6697378 -74088,-6697418 -74107,-6697456 -74127,-6697488 -74168,-6697565 -74203,-6697614 -74223,-6697645 -74265,-6697707 -74288,-6697737 -74307,-6697770 -74355,-6697844 -74441,-6697861 -74530,-6697882 -74591,-6697892 -74724,-6697923 -74859,-6697948 -74921,-6697955 -74967,-6697964 -75082,-6697974 -75172,-6697985 -75213,-6697992 -75280,-6697993 -75300,-6697973 -75322,-6697945 -75357,-6697894 -75380,-6697864 -75389,-6697855 -75399,-6697845 -75410,-6697837 -75476,-6697790 -75543,-6697741 -75583,-6697717 -75583,-6697702 -75580,-6697643 -75575,-6697593 -75572,-6697550 -75566,-6697503 -75558,-6697460 -75560,-6697437 -75593,-6697348 -75617,-6697290 -75638,-6697215 -75664,-6697146 -75706,-6697034 -75719,-6696984 -75742,-6696917 -75761,-6696881 -75786,-6696841 -75897,-6696688 -76009,-6696536 -76046,-6696484 -76122,-6696374 -76216,-6696245 -76229,-6696216 -76263,-6696184 -76311,-6696147 -76355,-6696114 -76378,-6696096 -76421,-6696060 -76483,-6696005 -76551,-6695949 -76607,-6695901 -76626,-6695886 -76662,-6695856 -76723,-6695805 -76784,-6695756 -76819,-6695724 -76859,-6695650 -76879,-6695616 -76899,-6695582 -76949,-6695501 -77042,-6695343 -77081,-6695278 -77121,-6695195 -77151,-6695143 -77218,-6695035 -77244,-6694995 -77330,-6694867 -77355,-6694833 -77372,-6694808 -77383,-6694795 -77424,-6694751 -77450,-6694727 -77469,-6694713 -77476,-6694705 -77481,-6694698 -77491,-6694680 -77495,-6694656 -77484,-6694625 -77482,-6694611 -77489,-6694575 -77493,-6694453 -77499,-6694384 -77504,-6694371 -77515,-6694346 -77524,-6694326 -77538,-6694303 -77478,-6694213 -77404,-6694111 -77263,-6693898 -77221,-6693833 -77182,-6693771 -77156,-6693733 -77115,-6693675 -77065,-6693612 -77049,-6693588 -77029,-6693564 -77005,-6693543 -76882,-6693409 -76858,-6693383 -76810,-6693336 -76767,-6693286 -76723,-6693239 -76676,-6693185 -76542,-6693034 -76518,-6693006 -76494,-6692979 -76462,-6692932 -76433,-6692884 -76316,-6692657 -76259,-6692543 -76258,-6692531 -76230,-6692472 -76187,-6692374 -76163,-6692325 -76126,-6692223 -76110,-6692187 -76088,-6692146 -76076,-6692119 -76033,-6692025 -76010,-6691976 -75995,-6691938 -75973,-6691890 -75950,-6691833 -75934,-6691793 -75925,-6691773 -75904,-6691730 -75885,-6691681 -75848,-6691597 -75842,-6691582 -75831,-6691550 -75796,-6691470 -75778,-6691422 -75732,-6691324 -75697,-6691243 -75677,-6691196 -75661,-6691161 -75634,-6691116 -75597,-6691076 -75532,-6691001 -75491,-6690956 -75214,-6690655 -75099,-6690526 -75042,-6690460 -75004,-6690422 -74981,-6690395 -74936,-6690347 -74912,-6690289 -74888,-6690232 -74795,-6689967 -74738,-6689819 -74625,-6689759 -74579,-6689736 -74538,-6689713 -74491,-6689689 -74402,-6689647 -74320,-6689603 -74579,-6689454 -74720,-6689377 -74793,-6689334 -74980,-6689229 -75098,-6689157 -75171,-6689120 -75251,-6689071 -75402,-6688983 -75536,-6688908 -75703,-6688811 -75862,-6688724 -76085,-6688602 -76212,-6688529 -76415,-6688417 -76566,-6688330 -76742,-6688233 -76796,-6688204 -76925,-6688135 -77120,-6688034 -77283,-6687946 -77456,-6687858 -77535,-6687816 -77590,-6687788 -77684,-6687750 -77846,-6687675 -77921,-6687645 -77961,-6687624 -77983,-6687613 -78048,-6687586 -78307,-6687465 -78386,-6687431 -78433,-6687410 -78497,-6687382 -78569,-6687348 -78803,-6687244 -78862,-6687224 -79044,-6687142 -79090,-6687124 -79283,-6687076 -79419,-6687039 -79808,-6686938 -80005,-6686891 -80224,-6686836 -80414,-6686789 -80532,-6686757 -80627,-6686730 -80772,-6686665 -81090,-6686531 -81379,-6686406 -81403,-6686396 -81469,-6686368 -81664,-6686240 -81848,-6686120 -81857,-6686115 -81929,-6685981 -81966,-6685912 -82026,-6685804 -82073,-6685721 -82115,-6685652 -82123,-6685635 -82127,-6685621 -82142,-6685567 -82254,-6685253 -82276,-6685189 -82333,-6685066 -82436,-6684884 -82520,-6684740 -82534,-6684709 -82582,-6684655 -82604,-6684620 -82655,-6684548 -82767,-6684387 -82857,-6684254 -82875,-6684244 -82890,-6684233 -82904,-6684220 -82934,-6684192 -82961,-6684171 -83026,-6684112 -83094,-6684036 -83155,-6683971 -83244,-6683887 -83272,-6683858 -83354,-6683735 -83350,-6683714 -83357,-6683635 -83365,-6683601 -83384,-6683563 -83398,-6683548 -83428,-6683486 -83444,-6683457 -83461,-6683427 -83526,-6683370 -83606,-6683304 -83738,-6683194 -83748,-6683184 -83752,-6683179 -83757,-6683168 -83784,-6683082 -83804,-6683036 -83814,-6683024 -83818,-6683007 -83885,-6682886 -83893,-6682870 -83903,-6682843 -83928,-6682802 -83944,-6682775 -83961,-6682762 -83993,-6682715 -84054,-6682639 -84101,-6682582 -84127,-6682553 -84160,-6682521 -84201,-6682486 -84207,-6682478 -84218,-6682459 -84256,-6682428 -84265,-6682414 -84280,-6682417 -84292,-6682394 -84319,-6682379 -84333,-6682369 -84340,-6682364 -84405,-6682319 -84420,-6682318 -84431,-6682328 -84447,-6682323 -84489,-6682310 -84521,-6682290 -84539,-6682275 -84515,-6682240 -84504,-6682220 -84497,-6682209 -84480,-6682160 -84423,-6681882 -84401,-6681758 -84440,-6681752 -84473,-6681746 -84527,-6681733 -84627,-6681706 -84639,-6681705 -84644,-6681704 -84653,-6681704 -84663,-6681706 -84671,-6681707 -84762,-6681730 -84772,-6681701 -84937,-6681427 -85121,-6681128 -85240,-6681067 -85330,-6681023 -85433,-6680969 -85460,-6680951 -85575,-6680864 -85583,-6680859 -85601,-6680853 -85598,-6680814 -85608,-6680801 -85640,-6680775 -85675,-6680737 -85748,-6680665 -85801,-6680604 -85837,-6680555 -85879,-6680507 -85889,-6680501 -85927,-6680489 -85934,-6680486 -85946,-6680478 -85959,-6680467 -85965,-6680461 -85982,-6680436 -86008,-6680387 -86027,-6680370 -86077,-6680351 -86129,-6680326 -86169,-6680306 -86209,-6680280 -86283,-6680223 -86286,-6680222 -86294,-6680220 -86324,-6680224 -86330,-6680241 -86340,-6680260 -86354,-6680278 -86406,-6680333 -86413,-6680346 -86414,-6680356 -86420,-6680381 -86449,-6680440 -86456,-6680446 -86463,-6680450 -86500,-6680441 -86504,-6680441 -86512,-6680444 -86538,-6680464 -86544,-6680466 -86552,-6680469 -86596,-6680473 -86606,-6680476 -86613,-6680482 -86617,-6680488 -86633,-6680533 -86658,-6680559 -86730,-6680621 -86764,-6680654 -86787,-6680677 -86791,-6680680 -86794,-6680682 -86803,-6680684 -86822,-6680682 -86830,-6680682 -86833,-6680684 -86838,-6680690 -86839,-6680695 -86838,-6680713 -86838,-6680717 -86840,-6680723 -86844,-6680728 -86849,-6680731 -86858,-6680733 -86891,-6680727 -86895,-6680728 -86899,-6680729 -86903,-6680734 -86917,-6680757 -86925,-6680765 -86934,-6680770 -86956,-6680778 -86965,-6680786 -86995,-6680815 -87031,-6680836 -87073,-6680871 -87084,-6680876 -87133,-6680885 -87138,-6680889 -87140,-6680892 -87141,-6680899 -87139,-6680905 -87124,-6680924 -87123,-6680927 -87123,-6680932 -87125,-6680937 -87129,-6680940 -87132,-6680941 -87151,-6680942 -87157,-6680941 -87162,-6680942 -87167,-6680944 -87170,-6680946 -87200,-6681009 -87187,-6681087 -87188,-6681101 -87199,-6681142 -87195,-6681187 -87198,-6681199 -87199,-6681200 -87229,-6681209 -87251,-6681243 -87257,-6681248 -87261,-6681250 -87269,-6681252 -87289,-6681249 -87293,-6681249 -87297,-6681251 -87300,-6681253 -87301,-6681256 -87310,-6681285 -87318,-6681304 -87332,-6681322 -87346,-6681341 -87346,-6681342 -87391,-6681380 -87423,-6681399 -87472,-6681418 -87501,-6681404 -87510,-6681401 -87519,-6681402 -87528,-6681405 -87587,-6681463 -87594,-6681494 -87617,-6681512 -87628,-6681514 -87674,-6681510 -87701,-6681498 -87715,-6681495 -87751,-6681507 -87764,-6681509 -87830,-6681510 -87833,-6681511 -87838,-6681513 -87843,-6681517 -87848,-6681522 -87850,-6681528 -87853,-6681539 -87851,-6681575 -87853,-6681582 -87855,-6681583 -87862,-6681586 -87877,-6681581 -87882,-6681580 -87887,-6681581 -87898,-6681585 -87921,-6681610 -87933,-6681619 -87939,-6681622 -87947,-6681624 -87975,-6681628 -87996,-6681633 -88066,-6681662 -88085,-6681664 -88103,-6681662 -88149,-6681647 -88191,-6681640 -88245,-6681644 -88265,-6681644 -88287,-6681648 -88297,-6681652 -88301,-6681656 -88306,-6681660 -88311,-6681670 -88334,-6681739 -88341,-6681779 -88361,-6681806 -88395,-6681837 -88400,-6681842 -88404,-6681844 -88412,-6681848 -88421,-6681850 -88429,-6681850 -88443,-6681847 -88478,-6681829 -88482,-6681827 -88488,-6681827 -88491,-6681828 -88496,-6681829 -88517,-6681842 -88522,-6681844 -88527,-6681844 -88532,-6681844 -88572,-6681839 -88582,-6681841 -88586,-6681843 -88595,-6681850 -88613,-6681879 -88668,-6681922 -88712,-6681928 -88759,-6681941 -88791,-6681941 -88804,-6681940 -88816,-6681944 -88854,-6681972 -88867,-6681975 -88873,-6681974 -88882,-6681973 -88887,-6681971 -88904,-6681942 -88907,-6681939 -88911,-6681934 -88917,-6681931 -88923,-6681928 -88933,-6681925 -88976,-6681924 -89003,-6681928 -89018,-6681932 -89031,-6681931 -89069,-6681923 -89073,-6681922 -89077,-6681923 -89083,-6681926 -89099,-6681948 -89105,-6681951 -89109,-6681952 -89116,-6681952 -89165,-6681929 -89197,-6681919 -89208,-6681920 -89223,-6681922 -89244,-6681933 -89326,-6681937 -89408,-6681930 -89430,-6681927 -89508,-6681900 -89517,-6681898 -89526,-6681901 -89532,-6681904 -89550,-6681937 -89559,-6681949 -89570,-6681952 -89576,-6681952 -89585,-6681951 -89668,-6681912 -89697,-6681902 -89710,-6681900 -89744,-6681903 -89759,-6681901 -89767,-6681898 -89778,-6681892 -89834,-6681852 -89838,-6681850 -89844,-6681849 -89851,-6681849 -89857,-6681851 -89893,-6681875 -89899,-6681877 -89906,-6681876 -89939,-6681860 -90008,-6681848 -90024,-6681861 -90033,-6681863 -90041,-6681862 -90082,-6681846 -90102,-6681843 -90109,-6681842 -90138,-6681849 -90197,-6681870 -90212,-6681873 -90223,-6681874 -90236,-6681873 -90299,-6681863 -90314,-6681864 -90329,-6681866 -90389,-6681888 -90398,-6681891 -90407,-6681894 -90421,-6681894 -90466,-6681888 -90510,-6681889 -90515,-6681889 -90532,-6681904 -90622,-6681936 -90640,-6681947 -90648,-6681963 -90658,-6681996 -90689,-6682043 -90736,-6682075 -90760,-6682174 -90754,-6682205 -90757,-6682286 -90759,-6682314 -90761,-6682343 -90767,-6682400 -90765,-6682427 -90763,-6682434 -90760,-6682441 -90755,-6682447 -90745,-6682455 -90722,-6682465 -90708,-6682474 -90698,-6682506 -90694,-6682517 -90648,-6682546 -90629,-6682564 -90610,-6682591 -90607,-6682600 -90606,-6682605 -90606,-6682611 -90609,-6682619 -90640,-6682674 -90660,-6682697 -90692,-6682720 -90705,-6682722 -90731,-6682720 -90737,-6682721 -90747,-6682725 -90755,-6682729 -90757,-6682731 -90794,-6682770 -90811,-6682791 -90834,-6682872 -90840,-6682917 -90842,-6682923 -90845,-6682928 -90849,-6682931 -90853,-6682933 -90894,-6682946 -90903,-6682950 -90908,-6682953 -90914,-6682960 -90933,-6682990 -90939,-6682995 -90947,-6682998 -90969,-6683000 -90996,-6683010 -91011,-6683014 -91027,-6683015 -91062,-6683010 -91080,-6683015 -91098,-6683020 -91121,-6683033 -91144,-6683056 -91153,-6683070 -91154,-6683072 -91154,-6683076 -91153,-6683080 -91150,-6683086 -91144,-6683091 -91119,-6683103 -91115,-6683107 -91114,-6683111 -91114,-6683114 -91115,-6683119 -91118,-6683123 -91120,-6683126 -91174,-6683153 -91179,-6683158 -91181,-6683163 -91182,-6683169 -91181,-6683172 -91168,-6683202 -91166,-6683212 -91168,-6683218 -91170,-6683224 -91176,-6683231 -91196,-6683245 -91250,-6683286 -91258,-6683290 -91267,-6683290 -91276,-6683288 -91302,-6683267 -91306,-6683265 -91319,-6683261 -91331,-6683261 -91371,-6683277 -91382,-6683285 -91388,-6683291 -91394,-6683300 -91404,-6683323 -91406,-6683326 -91416,-6683337 -91422,-6683340 -91430,-6683345 -91483,-6683348 -91536,-6683345 -91546,-6683346 -91566,-6683349 -91575,-6683352 -91596,-6683359 -91628,-6683380 -91657,-6683394 -91669,-6683399 -91722,-6683412 -91754,-6683422 -91794,-6683440 -91815,-6683453 -91831,-6683467 -91844,-6683484 -91845,-6683486 -91853,-6683514 -91860,-6683527 -91877,-6683548 -91889,-6683572 -91894,-6683586 -91897,-6683604 -91898,-6683617 -91898,-6683632 -91895,-6683667 -91896,-6683678 -91898,-6683682 -91899,-6683686 -91919,-6683712 -91935,-6683753 -91956,-6683780 -91975,-6683822 -91993,-6683847 -91997,-6683850 -92009,-6683855 -92031,-6683858 -92059,-6683856 -92072,-6683856 -92100,-6683865 -92127,-6683859 -92149,-6683857 -92153,-6683858 -92158,-6683861 -92161,-6683865 -92163,-6683868 -92165,-6683879 -92159,-6683922 -92159,-6683924 -92161,-6683930 -92165,-6683936 -92171,-6683942 -92178,-6683947 -92186,-6683950 -92196,-6683951 -92234,-6683940 -92253,-6683935 -92271,-6683930 -92290,-6683929 -92305,-6683929 -92323,-6683933 -92345,-6683942 -92371,-6683956 -92382,-6683960 -92391,-6683960 -92420,-6683953 -92435,-6683954 -92442,-6683955 -92452,-6683960 -92466,-6683972 -92470,-6684019 -92471,-6684022 -92474,-6684026 -92480,-6684030 -92487,-6684033 -92493,-6684034 -92498,-6684034 -92526,-6684025 -92537,-6684017 -92564,-6683994 -92572,-6683989 -92612,-6683971 -92623,-6683969 -92635,-6683967 -92660,-6683969 -92703,-6683981 -92722,-6683984 -92786,-6683973 -92826,-6683969 -92840,-6683965 -92847,-6683961 -92857,-6683954 -92884,-6683926 -92903,-6683911 -92920,-6683904 -92933,-6683901 -92941,-6683900 -92975,-6683900 -93017,-6683903 -93062,-6683906 -93065,-6683906 -93074,-6683902 -93078,-6683897 -93094,-6683864 -93100,-6683856 -93104,-6683853 -93113,-6683850 -93121,-6683849 -93125,-6683848 -93132,-6683851 -93139,-6683856 -93154,-6683881 -93183,-6683908 -93203,-6683931 -93213,-6683951 -93197,-6683976 -93184,-6683992 -93170,-6684008 -93154,-6684021 -93136,-6684032 -93122,-6684039 -93068,-6684056 -93045,-6684069 -93023,-6684087 -93010,-6684100 -92999,-6684114 -92988,-6684129 -92974,-6684154 -92953,-6684208 -92932,-6684215 -92925,-6684213 -92915,-6684205 -92906,-6684206 -92882,-6684241 -92882,-6684251 -92887,-6684266 -92888,-6684278 -92878,-6684343 -92863,-6684400 -92856,-6684416 -92847,-6684430 -92820,-6684457 -92802,-6684467 -92798,-6684516 -92796,-6684532 -92791,-6684548 -92783,-6684569 -92771,-6684590 -92764,-6684617 -92684,-6684789 -92689,-6684794 -92670,-6684838 -92645,-6684882 -92621,-6684910 -92589,-6684962 -92561,-6685000 -92545,-6685022 -92534,-6685038 -92519,-6685046 -92465,-6685119 -92436,-6685173 -92435,-6685192 -92411,-6685238 -92362,-6685324 -92352,-6685337 -92345,-6685346 -92311,-6685377 -92302,-6685389 -92298,-6685395 -92297,-6685398 -92261,-6685542 -92248,-6685591 -92214,-6685697 -92203,-6685724 -92196,-6685737 -92183,-6685760 -92179,-6685765 -92170,-6685779 -92059,-6685938 -92054,-6685943 -92037,-6685958 -91879,-6686071 -91650,-6686228 -91629,-6686243 -91514,-6686322 -91250,-6686506 -90898,-6686754 -90673,-6686922 -90566,-6687062 -90123,-6687167 -90096,-6687172 -90079,-6687174 -89608,-6687205 -89486,-6687213 -89098,-6687236 -89052,-6687239 -89029,-6687241 -88574,-6687270 -88149,-6687295 -87813,-6687317 -87839,-6687444 -87965,-6688049 -88038,-6688398 -88131,-6688866 -88185,-6689114 -88204,-6689204 -88290,-6689610 -88343,-6689849 -88414,-6690186 -88443,-6690328 -88512,-6690640 -88566,-6690913 -88584,-6690992 -88606,-6691081 -88616,-6691106 -88626,-6691132 -88689,-6691260 -88702,-6691287 -88705,-6691292 -88744,-6691377 -88761,-6691420 -88781,-6691489 -88814,-6691580 -88815,-6691600 -88814,-6691616 -88809,-6691663 -88809,-6691675 -88822,-6691754 -88833,-6691786 -88839,-6691808 -88847,-6691860 -88838,-6691871 -88844,-6691911 -88862,-6691986 -88884,-6692074 -88896,-6692153 -88908,-6692189 -88920,-6692259 -88939,-6692380 -88953,-6692428 -88998,-6692539 -89022,-6692621 -89039,-6692671 -89045,-6692704 -89058,-6692709 -89076,-6692776 -89092,-6692849 -89100,-6692892 -89115,-6692929 -89130,-6693019 -89139,-6693042 -89145,-6693059 -89171,-6693115 -89175,-6693127 -89189,-6693179 -89209,-6693225 -89214,-6693245 -89219,-6693265 -89222,-6693282 -89224,-6693302 -89221,-6693386 -89230,-6693471 -89232,-6693519 -89251,-6693623 -89256,-6693701 -89256,-6693711 -89256,-6693732 -89254,-6693793 -89256,-6693880 -89264,-6693927 -89275,-6693973 -89224,-6693986 -89087,-6694002 -89063,-6694000 -89001,-6693982 -88988,-6693980 -88975,-6693979 -88968,-6693980 -88895,-6693987 -88842,-6693995 -88816,-6693986 -88758,-6693961 -88719,-6693947 -88678,-6693928 -88654,-6693920 -88635,-6693915 -88610,-6693910 -88584,-6693906 -88527,-6693901 -88456,-6693883 -88406,-6693881 -88374,-6693879 -88352,-6693881 -88338,-6693884 -88312,-6693893 -88264,-6693915 -88221,-6693935 -88242,-6693998 -88235,-6694030 -88233,-6694040 -88231,-6694056 -88231,-6694083 -88232,-6694105 -88234,-6694124 -88247,-6694187 -88255,-6694237 -88258,-6694275 -88274,-6694286 -88277,-6694293 -88287,-6694322 -88291,-6694338 -88295,-6694367 -88297,-6694380 -88302,-6694389 -88318,-6694415 -88334,-6694449 -88344,-6694464 -88353,-6694474 -88366,-6694486 -88379,-6694496 -88419,-6694521 -88438,-6694535 -88449,-6694544 -88461,-6694558 -88485,-6694594 -88509,-6694624 -88551,-6694682 -88581,-6694716 -88593,-6694740 -88598,-6694751 -88609,-6694789 -88614,-6694802 -88619,-6694812 -88629,-6694825 -88644,-6694836 -88649,-6694842 -88651,-6694848 -88654,-6694859 -88680,-6694923 -88685,-6694936 -88694,-6694971 -88700,-6694987 -88722,-6695042 -88742,-6695166 -88749,-6695204 -88753,-6695223 -88761,-6695226 -88781,-6695318 -88775,-6695334 -88776,-6695351 -88781,-6695371 -88804,-6695444 -88814,-6695469 -88830,-6695503 -88840,-6695555 -88844,-6695573 -88862,-6695627 -88877,-6695658 -88888,-6695677 -88890,-6695684 -88890,-6695698 -88880,-6695749 -88880,-6695760 -88881,-6695770 -88885,-6695782 -88901,-6695799 -88893,-6695810 -88909,-6695841 -88898,-6695883 -88888,-6695935 -88902,-6695994 -88913,-6696002 -88910,-6696064 -88912,-6696179 -88902,-6696184 -88882,-6696245 -88875,-6696264 -88873,-6696277 -88871,-6696293 -88870,-6696328 -88871,-6696347 -88875,-6696371 -88875,-6696393 -88871,-6696434 -88855,-6696508 -88851,-6696519 -88849,-6696525 -88831,-6696565 -88825,-6696583 -88825,-6696598 -88831,-6696631 -88831,-6696643 -88834,-6696707 -88831,-6696727 -88829,-6696736 -88827,-6696741 -88821,-6696743 -88820,-6696763 -88821,-6696783 -88835,-6696851 -88831,-6696868 -88844,-6696873 -88838,-6696912 -88831,-6696996 -88836,-6696998 -88829,-6697070 -88826,-6697151 -88826,-6697183 -88826,-6697214 -88835,-6697251 -88838,-6697270 -88842,-6697304 -88843,-6697322 -88842,-6697347 -88840,-6697370 -88837,-6697384 -88828,-6697418 -88826,-6697428 -88825,-6697442 -88824,-6697503 -88827,-6697512 -88837,-6697531 -88842,-6697544 -88851,-6697587 -88867,-6697644 -88882,-6697729 -88884,-6697757 -88883,-6697769 -88879,-6697810 -88877,-6697881 -88885,-6698019 -88892,-6698216 -88889,-6698263 -88891,-6698293 -88889,-6698316 -88884,-6698341 -88875,-6698369 -88872,-6698386 -88872,-6698394 -88872,-6698404 -88874,-6698409 -88887,-6698428 -88888,-6698433 -88889,-6698445 -88862,-6698587 -88847,-6698658 -88841,-6698679 -88839,-6698689 -88838,-6698716 -88838,-6698733 -88844,-6698813 -88848,-6698842 -88863,-6698849 -88886,-6698925 -88901,-6698979 -88919,-6699032 -88965,-6699155 -88978,-6699187 -88990,-6699214 -88979,-6699223 -89023,-6699308 -89013,-6699315 -89020,-6699380 -89025,-6699481 -89052,-6699663 -89057,-6699707 -89057,-6699733 -89058,-6699777 -89057,-6699799 -89056,-6699811 -89047,-6699851 -89044,-6699871 -89043,-6699893 -89044,-6699912 -89048,-6699932 -89054,-6699955 -89060,-6699976 -89076,-6700016 -89081,-6700033 -89083,-6700041 -89085,-6700072 -89082,-6700098 -89078,-6700113 -89061,-6700166 -89057,-6700180 -89055,-6700266 -89056,-6700287 -89061,-6700323 -89062,-6700342 -89062,-6700363 -89060,-6700381 -89058,-6700396 -89054,-6700409 -89043,-6700440 -89036,-6700454 -89012,-6700497 -89008,-6700506 -89002,-6700523 -88997,-6700557 -88994,-6700567 -88982,-6700592 -88958,-6700636 -88943,-6700661 -88917,-6700683 -88838,-6700758 -88739,-6700839 -88730,-6700849 -88725,-6700856 -88716,-6700874 -88709,-6700896 -88696,-6700990 -88688,-6701024 -88676,-6701060 -88666,-6701084 -88620,-6701171 -88604,-6701197 -88587,-6701215 -88465,-6701323 -88313,-6701453 -88287,-6701490 -88269,-6701518 -88260,-6701529 -88252,-6701536 -88243,-6701541 -88223,-6701549 -88211,-6701554 -88184,-6701559 -88167,-6701565 -88135,-6701586 -88127,-6701591 -88096,-6701603 -88006,-6701645 -87990,-6701655 -87977,-6701664 -87959,-6701681 -87933,-6701711 -87921,-6701729 -87894,-6701770 -87856,-6701839 -87814,-6701903 -87728,-6702052 -87615,-6702290 -87573,-6702407 -87464,-6702674 -87413,-6702813 -87373,-6702915 -87349,-6702979 -87289,-6703137 -87260,-6703207 -87256,-6703322 -87255,-6703349 -87253,-6703502 -87254,-6703586 -87253,-6703670 -87252,-6703753 -87248,-6703886 -87223,-6703886 -87188,-6704112 -87162,-6704292 -87139,-6704436 -87134,-6704467 -87124,-6704537 -87114,-6704622 -86899,-6704624 -86766,-6704629 -86569,-6704627 -86522,-6704624 -86399,-6704629 -86345,-6704627" stroke="#003087" stroke-width="47" /></ns0:svg>    <rect x="20" y="50"  width="250" height="25"  rx="0"  fill="#003087" fill-opacity="0.8" />    <text x="145" y="70" text-anchor="middle" font-family="Frutiger" font-weight="bold" font-size="20" fill="white">Bracknell Forest</text>    <rect x="35" y="195" width="220" height="160" rx="15" fill="#41B6E6"/>    <g font-family="Frutiger" font-size="15" fill="white">        <g> <text x="45" y="218">Self-harm</text> <text x="245" y="218" text-anchor="end">47</text> </g>        <g> <text x="45" y="243">SEN</text> <text x="245" y="243" text-anchor="end">22</text> </g>        <g> <text x="45" y="268">Difficulties</text> <text x="245" y="268" text-anchor="end">75</text> </g>        <g> <text x="45" y="293">Child Carer</text> <text x="245" y="293" text-anchor="end">46</text> </g>        <g> <text x="45" y="318">Drinkers</text> <text x="245" y="318" text-anchor="end">30</text> </g>        <g> <text x="45" y="343">Safeguarding £</text> <text x="245" y="343" text-anchor="end">31</text> </g>    </g></svg>