<?xml version="1.0" standalone="no"?>
<!DOCTYPE svg PUBLIC "-//W3C//DTD SVG 1.1//EN"
"http://www.w3.org/Graphics/SVG/1.1/DTD/svg11.dtd">
<svg height="1800" version="1.1" width="1800" xmlns="http://www.w3.org/2000/svg"><defs><style type="text/css">@font-face {font-family: 'Frutiger';font-style: normal;font-weight: normal;src: local('Frutiger'), url('../fonts/Frutiger.woff') format('woff');}@font-face {font-family: 'Frutiger Bold';font-style: normal;font-weight: normal;src: local('Frutiger Bold'), url('../fonts/Frutiger_bold.woff') format('woff');}        </style>    </defs>    <rect x="20" y="20"  width="250" height="350" rx="15" fill="#009639" />    <rect x="35" y="35"  width="220" height="145" rx="15" fill="#E8EDEE" /><ns0:svg xmlns:ns0="http://www.w3.org/2000/svg" height="115" version="1.1" viewBox="-130795 -6596443 17419 14409" width="220" x="35" y="50"><ns0:polygon fill="#006747" points=" -120356,-6596041 -120295,-6596036 -120172,-6596020 -120078,-6596003 -120029,-6595996 -119989,-6595985 -119944,-6595972 -119738,-6595930 -119627,-6595936 -119485,-6595947 -119342,-6595954 -119275,-6595959 -119279,-6596050 -119270,-6596096 -119257,-6596183 -119234,-6596312 -119227,-6596341 -118982,-6596267 -118958,-6596262 -118910,-6596255 -118886,-6596252 -118844,-6596252 -118833,-6596252 -118792,-6596256 -118776,-6596254 -118755,-6596246 -118759,-6596284 -118704,-6596299 -118679,-6596300 -118637,-6596295 -118633,-6596294 -118620,-6596230 -118612,-6596210 -118606,-6596202 -118583,-6596201 -118581,-6596154 -118513,-6596155 -118401,-6596161 -118324,-6596160 -118273,-6596158 -118272,-6596150 -118239,-6596149 -118240,-6596098 -118230,-6596096 -118236,-6595830 -118236,-6595768 -117951,-6595763 -117368,-6595703 -117362,-6595733 -117376,-6595839 -117358,-6595920 -117347,-6595960 -117332,-6595958 -117242,-6595946 -117203,-6595940 -117195,-6595940 -117166,-6595955 -117157,-6595958 -117149,-6595958 -117138,-6595955 -117132,-6595952 -117127,-6595947 -117121,-6595941 -117116,-6595933 -117112,-6595919 -117113,-6595895 -117071,-6595860 -117024,-6595845 -116992,-6595843 -116968,-6595898 -116950,-6595892 -116952,-6595877 -116900,-6595868 -116898,-6595836 -116872,-6595833 -116870,-6595756 -116859,-6595732 -116830,-6595728 -116653,-6595709 -116594,-6595701 -116528,-6595694 -116548,-6595495 -116490,-6595485 -116324,-6595452 -116050,-6595396 -115998,-6595386 -115867,-6595369 -115730,-6595350 -115658,-6595340 -115585,-6595331 -115498,-6595322 -115383,-6595316 -115244,-6595312 -115165,-6595308 -115107,-6595306 -114913,-6595301 -114746,-6595295 -114578,-6595291 -114349,-6595285 -114279,-6595283 -114137,-6595284 -114134,-6595284 -114005,-6595288 -113915,-6595292 -113891,-6595292 -113839,-6595173 -113838,-6595168 -113824,-6595069 -113822,-6595054 -113824,-6595034 -113815,-6595031 -113817,-6594962 -113825,-6594873 -113826,-6594870 -113960,-6594813 -113985,-6594800 -114008,-6594785 -114048,-6594766 -114030,-6594679 -114012,-6594595 -113995,-6594518 -113980,-6594462 -113974,-6594437 -114047,-6594416 -114110,-6594402 -114117,-6594401 -114112,-6594372 -114111,-6594336 -114107,-6594300 -114100,-6594223 -114087,-6594117 -114082,-6594088 -114055,-6594089 -113986,-6594096 -113928,-6594106 -113910,-6594023 -113882,-6593874 -113881,-6593853 -113883,-6593806 -113879,-6593727 -113872,-6593680 -113846,-6593593 -113829,-6593534 -113789,-6593522 -113751,-6593515 -113744,-6593512 -113740,-6593510 -113735,-6593503 -113727,-6593442 -113725,-6593414 -113728,-6593408 -113731,-6593403 -113739,-6593396 -113763,-6593387 -113791,-6593380 -113803,-6593374 -113807,-6593370 -113808,-6593367 -113807,-6593360 -113787,-6593310 -113749,-6593227 -113727,-6593182 -113695,-6593112 -113672,-6593040 -113649,-6593009 -113634,-6592976 -113629,-6592957 -113616,-6592903 -113615,-6592874 -113617,-6592862 -113631,-6592838 -113638,-6592830 -113641,-6592822 -113640,-6592801 -113641,-6592795 -113642,-6592791 -113644,-6592785 -113653,-6592775 -113662,-6592758 -113736,-6592613 -113753,-6592566 -113787,-6592467 -113806,-6592394 -113809,-6592377 -113808,-6592372 -113807,-6592366 -113799,-6592346 -113792,-6592330 -113775,-6592302 -113782,-6592299 -113770,-6592219 -113767,-6592193 -113767,-6592189 -113768,-6592179 -113772,-6592163 -113777,-6592142 -113784,-6592121 -113793,-6592100 -113804,-6592080 -113870,-6591986 -113893,-6591954 -113910,-6591925 -113923,-6591902 -113935,-6591875 -113935,-6591874 -113952,-6591830 -113958,-6591823 -113969,-6591815 -113976,-6591813 -113991,-6591812 -113995,-6591811 -113999,-6591809 -114005,-6591803 -114006,-6591796 -114006,-6591794 -113996,-6591792 -113933,-6591787 -113904,-6591787 -113869,-6591787 -113768,-6591781 -113607,-6591777 -113377,-6591765 -113376,-6591751 -113399,-6591737 -113409,-6591730 -113436,-6591706 -113445,-6591698 -113453,-6591687 -113462,-6591672 -113469,-6591655 -113475,-6591636 -113480,-6591617 -113483,-6591603 -113491,-6591527 -113496,-6591491 -113497,-6591474 -113496,-6591430 -113494,-6591401 -113491,-6591369 -113486,-6591333 -113483,-6591282 -113486,-6591221 -113487,-6591131 -113489,-6591116 -113492,-6591097 -113495,-6591082 -113499,-6591070 -113505,-6591054 -113529,-6591000 -113575,-6590890 -113578,-6590879 -113593,-6590835 -113608,-6590778 -113615,-6590745 -113620,-6590703 -113623,-6590649 -113626,-6590626 -113628,-6590621 -113641,-6590586 -113645,-6590573 -113647,-6590559 -113647,-6590546 -113647,-6590538 -113645,-6590530 -113637,-6590504 -113627,-6590465 -113620,-6590427 -113616,-6590404 -113614,-6590381 -113613,-6590351 -113615,-6590314 -113616,-6590305 -113625,-6590265 -113634,-6590163 -113641,-6590121 -113646,-6590098 -113651,-6590078 -113657,-6590061 -113681,-6590003 -113691,-6589974 -113697,-6589953 -113701,-6589935 -113707,-6589902 -113710,-6589870 -113723,-6589786 -113731,-6589726 -113740,-6589645 -113739,-6589617 -113737,-6589585 -113741,-6589485 -113736,-6589401 -113736,-6589358 -113736,-6589290 -113755,-6589141 -113758,-6589077 -113763,-6589029 -113768,-6589000 -113775,-6588965 -113779,-6588948 -113790,-6588905 -113831,-6588773 -113835,-6588761 -113846,-6588739 -113863,-6588706 -113907,-6588629 -113921,-6588608 -113933,-6588586 -113943,-6588564 -113960,-6588521 -113974,-6588474 -113982,-6588455 -113987,-6588447 -113994,-6588438 -114009,-6588423 -114107,-6588348 -114175,-6588296 -114202,-6588272 -114226,-6588248 -114249,-6588223 -114292,-6588170 -114329,-6588134 -114345,-6588116 -114371,-6588079 -114406,-6588020 -114423,-6587995 -114441,-6587970 -114493,-6587902 -114505,-6587847 -114523,-6587758 -114546,-6587666 -114567,-6587582 -114587,-6587496 -114593,-6587462 -114595,-6587443 -114596,-6587424 -114597,-6587407 -114590,-6587246 -114585,-6587213 -114580,-6587191 -114567,-6587143 -114559,-6587120 -114548,-6587091 -114500,-6586985 -114433,-6586821 -114414,-6586734 -114399,-6586635 -114389,-6586591 -114383,-6586564 -114380,-6586516 -114380,-6586483 -114380,-6586450 -114382,-6586428 -114386,-6586397 -114390,-6586381 -114400,-6586340 -114438,-6586183 -114455,-6586104 -114463,-6586070 -114467,-6586041 -114468,-6586020 -114469,-6585996 -114467,-6585972 -114463,-6585946 -114440,-6585801 -114430,-6585747 -114429,-6585740 -114417,-6585698 -114408,-6585465 -114396,-6585271 -114391,-6585237 -114385,-6585199 -114363,-6585079 -114351,-6584945 -114349,-6584852 -114337,-6584641 -114336,-6584571 -114333,-6584489 -114329,-6584460 -114321,-6584428 -114284,-6584317 -114266,-6584240 -114256,-6584189 -114229,-6584018 -114226,-6583981 -114224,-6583907 -114224,-6583880 -114253,-6583810 -114303,-6583722 -114499,-6583707 -114693,-6583692 -114726,-6583691 -114732,-6583691 -114784,-6583685 -114820,-6583672 -114897,-6583647 -114892,-6583627 -114886,-6583597 -114898,-6583624 -114907,-6583643 -115042,-6583571 -115088,-6583549 -115158,-6583518 -115179,-6583510 -115201,-6583502 -115288,-6583465 -115302,-6583451 -115315,-6583438 -115321,-6583396 -115303,-6583289 -115276,-6583205 -115230,-6583115 -115217,-6583056 -115194,-6582998 -115153,-6582918 -115133,-6582838 -115105,-6582764 -115081,-6582705 -115086,-6582704 -115115,-6582759 -115154,-6582863 -115167,-6582899 -115251,-6583041 -115267,-6583118 -115385,-6583370 -115406,-6583394 -115408,-6583396 -115436,-6583403 -115478,-6583403 -115580,-6583406 -115699,-6583396 -115822,-6583369 -115976,-6583323 -116111,-6583284 -116210,-6583251 -116263,-6583241 -116381,-6583218 -116529,-6583197 -116705,-6583164 -116833,-6583133 -116974,-6583103 -117074,-6583073 -117215,-6583040 -117395,-6582981 -117584,-6582916 -117696,-6582872 -117853,-6582804 -117953,-6582755 -118091,-6582704 -118189,-6582672 -118308,-6582629 -118456,-6582576 -118566,-6582541 -118686,-6582525 -118789,-6582492 -118840,-6582475 -118879,-6582467 -118933,-6582450 -118976,-6582442 -119060,-6582422 -119207,-6582389 -119364,-6582349 -119509,-6582312 -119590,-6582291 -119648,-6582277 -119659,-6582275 -119730,-6582258 -119793,-6582236 -119865,-6582221 -119938,-6582199 -120161,-6582157 -120437,-6582113 -120468,-6582108 -120783,-6582071 -120979,-6582055 -121064,-6582061 -121068,-6582061 -121084,-6582058 -121104,-6582051 -121119,-6582041 -121128,-6582034 -121202,-6582037 -121215,-6582036 -121225,-6582037 -121236,-6582039 -121247,-6582043 -121263,-6582052 -121321,-6582097 -121360,-6582118 -121381,-6582128 -121397,-6582135 -121436,-6582146 -121491,-6582154 -121495,-6582155 -121500,-6582158 -121504,-6582161 -121588,-6582268 -121656,-6582348 -121666,-6582363 -121680,-6582377 -121717,-6582410 -121727,-6582421 -121732,-6582432 -121735,-6582443 -121736,-6582473 -121740,-6582485 -121746,-6582496 -121752,-6582502 -121761,-6582509 -121938,-6582675 -122062,-6582804 -122140,-6582878 -122261,-6583025 -122362,-6583149 -122418,-6583224 -122454,-6583266 -122503,-6583315 -122552,-6583360 -122616,-6583413 -122790,-6583376 -123338,-6583256 -123630,-6583193 -124598,-6582985 -125217,-6582848 -125244,-6582842 -125129,-6582944 -124834,-6583210 -124604,-6583424 -124587,-6583442 -124575,-6583453 -124554,-6583469 -124433,-6583568 -124175,-6583818 -124031,-6583948 -123969,-6583979 -123946,-6583998 -123930,-6584000 -123924,-6584002 -123917,-6584005 -123912,-6584008 -123814,-6584102 -123794,-6584136 -123776,-6584153 -123792,-6584174 -123822,-6584322 -123827,-6584337 -123834,-6584356 -123847,-6584383 -123889,-6584451 -123901,-6584470 -123983,-6584672 -124123,-6584981 -124271,-6585323 -124281,-6585342 -124311,-6585417 -124416,-6585650 -124554,-6585945 -124594,-6586033 -124628,-6586109 -124691,-6586237 -124794,-6586470 -124822,-6586526 -124830,-6586550 -124839,-6586573 -124845,-6586610 -124847,-6586655 -124843,-6586708 -124845,-6586748 -124848,-6586876 -124853,-6586932 -124857,-6586956 -124856,-6586991 -124857,-6587017 -124858,-6587042 -124861,-6587062 -124864,-6587081 -124870,-6587104 -124895,-6587192 -124904,-6587212 -124921,-6587234 -124937,-6587251 -124961,-6587276 -124978,-6587290 -125006,-6587311 -125037,-6587341 -125036,-6587355 -125031,-6587392 -125031,-6587413 -125036,-6587429 -125054,-6587461 -125076,-6587484 -125120,-6587526 -125140,-6587547 -125167,-6587571 -125180,-6587580 -125205,-6587597 -125217,-6587605 -125289,-6587644 -125344,-6587663 -125359,-6587684 -125370,-6587694 -125380,-6587702 -125405,-6587718 -125442,-6587733 -125458,-6587774 -125477,-6587816 -125487,-6587831 -125498,-6587844 -125549,-6587886 -125620,-6587939 -125639,-6587955 -125659,-6587975 -125705,-6588023 -125717,-6588035 -125742,-6588058 -125761,-6588079 -125801,-6588115 -125818,-6588133 -125830,-6588150 -125840,-6588161 -125857,-6588176 -125906,-6588231 -125921,-6588248 -125936,-6588271 -125948,-6588286 -125992,-6588329 -126049,-6588395 -126148,-6588501 -126190,-6588542 -126204,-6588554 -126291,-6588627 -126326,-6588653 -126416,-6588717 -126484,-6588770 -126599,-6588854 -126726,-6588951 -126761,-6588968 -126773,-6588971 -126811,-6588971 -126824,-6589015 -126841,-6589040 -126851,-6589057 -126891,-6589105 -126889,-6589126 -126889,-6589147 -126901,-6589246 -126912,-6589351 -126936,-6589551 -126949,-6589627 -126966,-6589694 -126986,-6589770 -127008,-6589835 -127030,-6589912 -127036,-6589930 -127060,-6589978 -127084,-6590032 -127147,-6590156 -127164,-6590195 -127171,-6590213 -127178,-6590233 -127203,-6590349 -127222,-6590424 -127233,-6590456 -127240,-6590469 -127263,-6590502 -127276,-6590519 -127337,-6590627 -127352,-6590672 -127375,-6590751 -127386,-6590772 -127405,-6590800 -127420,-6590808 -127441,-6590816 -127470,-6590824 -127496,-6590830 -127512,-6590835 -127529,-6590841 -127579,-6590861 -127602,-6590875 -127645,-6590909 -127671,-6590925 -127711,-6590941 -127748,-6590950 -127780,-6590953 -127802,-6590961 -127832,-6590985 -127857,-6591013 -127860,-6591023 -127864,-6591068 -127870,-6591097 -127872,-6591106 -127903,-6591164 -127913,-6591181 -127941,-6591210 -127916,-6591223 -127891,-6591238 -127884,-6591243 -127848,-6591273 -127825,-6591296 -127799,-6591330 -127786,-6591353 -127782,-6591360 -127774,-6591401 -127772,-6591454 -127774,-6591470 -127784,-6591514 -127795,-6591542 -127813,-6591582 -127817,-6591593 -127814,-6591618 -127805,-6591665 -127803,-6591697 -127803,-6591709 -127806,-6591760 -127804,-6591819 -127804,-6591872 -127806,-6591896 -127813,-6591928 -127834,-6591978 -127849,-6592009 -127862,-6592012 -127896,-6592016 -127943,-6592022 -127965,-6592031 -128017,-6592044 -128025,-6592048 -128068,-6592057 -128117,-6592073 -128123,-6592078 -128131,-6592097 -128134,-6592110 -128138,-6592164 -128142,-6592200 -128141,-6592219 -128137,-6592241 -128122,-6592291 -128120,-6592314 -128121,-6592324 -128131,-6592372 -128143,-6592420 -128158,-6592441 -128187,-6592475 -128332,-6592609 -128370,-6592637 -128491,-6592707 -128591,-6592804 -128669,-6592873 -128680,-6592882 -128727,-6592908 -128744,-6592915 -128757,-6592917 -128767,-6592918 -128778,-6592918 -128807,-6592914 -128850,-6592900 -128929,-6592877 -128963,-6592868 -128995,-6592860 -129022,-6592855 -129036,-6592854 -129065,-6592853 -129108,-6592854 -129208,-6592864 -129224,-6592863 -129248,-6592854 -129269,-6592841 -129300,-6592813 -129325,-6592786 -129333,-6592784 -129352,-6592786 -129409,-6592798 -129431,-6592799 -129452,-6592800 -129502,-6592801 -129567,-6592798 -129574,-6592799 -129580,-6592801 -129636,-6592843 -129669,-6592863 -129695,-6592872 -129718,-6592876 -129764,-6592864 -129779,-6592859 -129822,-6592845 -129906,-6592819 -129959,-6592799 -130048,-6592772 -130129,-6592739 -130152,-6592731 -130175,-6592731 -130197,-6592735 -130226,-6592734 -130328,-6592724 -130384,-6592720 -130521,-6592743 -130550,-6592752 -130631,-6592774 -130649,-6592780 -130681,-6592795 -130710,-6592814 -130749,-6592845 -130772,-6592881 -130780,-6592899 -130792,-6592976 -130795,-6593009 -130789,-6593030 -130771,-6593047 -130730,-6593084 -130590,-6593219 -130574,-6593204 -130569,-6593192 -130549,-6593171 -130546,-6593163 -130541,-6593154 -130536,-6593150 -130530,-6593147 -130523,-6593144 -130510,-6593141 -130493,-6593132 -130483,-6593124 -130472,-6593113 -130462,-6593101 -130444,-6593075 -130415,-6593061 -130398,-6593055 -130383,-6593052 -130377,-6593048 -130349,-6593041 -130337,-6593040 -130326,-6593040 -130314,-6593042 -130292,-6593048 -130252,-6593061 -130187,-6593075 -130151,-6593082 -130141,-6593070 -130098,-6593079 -130089,-6593080 -130079,-6593081 -130046,-6593083 -130025,-6593085 -129996,-6593108 -129966,-6593120 -129857,-6593174 -129832,-6593185 -129808,-6593195 -129710,-6593227 -129646,-6593251 -129551,-6593275 -129532,-6593284 -129500,-6593305 -129498,-6593307 -129490,-6593318 -129484,-6593329 -129482,-6593340 -129489,-6593394 -129502,-6593450 -129508,-6593470 -129511,-6593474 -129514,-6593478 -129528,-6593491 -129550,-6593520 -129579,-6593566 -129583,-6593581 -129582,-6593595 -129581,-6593599 -129573,-6593611 -129553,-6593632 -129540,-6593643 -129504,-6593663 -129487,-6593675 -129458,-6593708 -129433,-6593733 -129396,-6593757 -129353,-6593794 -129254,-6593863 -129236,-6593873 -129201,-6593895 -129149,-6593921 -129150,-6593935 -129149,-6593941 -129148,-6593943 -129146,-6593947 -129143,-6593951 -129135,-6593957 -129131,-6593959 -129125,-6593960 -129115,-6593960 -129100,-6593956 -129062,-6593938 -129044,-6593930 -128925,-6593869 -128896,-6593862 -128806,-6593856 -128771,-6593850 -128753,-6593845 -128715,-6593837 -128708,-6593841 -128723,-6593858 -128726,-6593863 -128728,-6593869 -128728,-6593873 -128726,-6593880 -128725,-6593883 -128583,-6593914 -128562,-6593922 -128534,-6593932 -128528,-6593933 -128516,-6593934 -128510,-6593933 -128499,-6593929 -128482,-6593919 -128480,-6593917 -128440,-6593890 -128391,-6593842 -128383,-6593832 -128365,-6593795 -128346,-6593746 -128341,-6593727 -128339,-6593719 -128339,-6593711 -128339,-6593701 -128341,-6593682 -128342,-6593673 -128347,-6593656 -128351,-6593650 -128361,-6593638 -128367,-6593633 -128373,-6593629 -128379,-6593626 -128397,-6593621 -128471,-6593601 -128505,-6593585 -128509,-6593580 -128511,-6593576 -128511,-6593564 -128507,-6593542 -128504,-6593527 -128456,-6593444 -128431,-6593403 -128416,-6593380 -128393,-6593345 -128377,-6593323 -128368,-6593312 -128352,-6593294 -128333,-6593267 -128317,-6593253 -128293,-6593243 -128276,-6593234 -128257,-6593230 -128244,-6593231 -128234,-6593235 -128224,-6593238 -128192,-6593254 -128144,-6593272 -128127,-6593282 -128120,-6593287 -128114,-6593291 -128096,-6593297 -128051,-6593309 -128046,-6593312 -128017,-6593331 -127927,-6593379 -127900,-6593400 -127863,-6593403 -127855,-6593403 -127848,-6593401 -127848,-6593380 -127831,-6593379 -127828,-6593395 -127761,-6593366 -127746,-6593353 -127701,-6593314 -127685,-6593296 -127680,-6593286 -127671,-6593271 -127654,-6593252 -127639,-6593233 -127610,-6593196 -127573,-6593140 -127547,-6593105 -127536,-6593088 -127525,-6593072 -127515,-6593049 -127491,-6593018 -127438,-6592941 -127411,-6592907 -127406,-6592901 -127381,-6592882 -127367,-6592875 -127352,-6592868 -127299,-6592849 -127285,-6592845 -127270,-6592841 -127235,-6592835 -127190,-6592825 -127111,-6592803 -127085,-6592794 -127077,-6592793 -127045,-6592792 -126985,-6592808 -126972,-6592812 -126902,-6592817 -126870,-6592817 -126785,-6592807 -126781,-6592812 -126767,-6592817 -126764,-6592821 -126762,-6592825 -126762,-6592831 -126763,-6592835 -126779,-6592841 -126780,-6592847 -126780,-6592852 -126771,-6592859 -126764,-6592872 -126756,-6592875 -126736,-6592884 -126715,-6592891 -126707,-6592893 -126691,-6592894 -126661,-6592900 -126647,-6592901 -126631,-6592901 -126612,-6592908 -126572,-6592907 -126494,-6592899 -126414,-6592871 -126409,-6592869 -126407,-6592870 -126402,-6592879 -126401,-6592885 -126400,-6592899 -126398,-6592906 -126411,-6592930 -126412,-6592936 -126414,-6592946 -126415,-6592958 -126421,-6592967 -126422,-6592969 -126421,-6592974 -126417,-6592977 -126395,-6592975 -126374,-6592969 -126328,-6592951 -126321,-6592947 -126315,-6592943 -126310,-6592937 -126301,-6592927 -126296,-6592920 -126295,-6592917 -126295,-6592914 -126297,-6592909 -126308,-6592897 -126306,-6592890 -126325,-6592884 -126331,-6592879 -126334,-6592874 -126334,-6592867 -126276,-6592857 -126268,-6592862 -126246,-6592845 -126120,-6592775 -126092,-6592762 -126008,-6592725 -125992,-6592732 -126006,-6592750 -126008,-6592755 -126011,-6592763 -126011,-6592771 -126009,-6592783 -126003,-6592796 -125987,-6592815 -125982,-6592820 -125971,-6592829 -125960,-6592835 -125947,-6592840 -125944,-6592840 -125940,-6592839 -125939,-6592838 -125934,-6592831 -125934,-6592829 -125936,-6592827 -125959,-6592806 -125966,-6592799 -125969,-6592791 -125970,-6592783 -125967,-6592777 -125964,-6592775 -125951,-6592781 -125938,-6592784 -125935,-6592784 -125933,-6592779 -125936,-6592771 -125943,-6592766 -125972,-6592760 -125977,-6592757 -125980,-6592752 -125981,-6592747 -125981,-6592744 -125978,-6592735 -125912,-6592729 -125837,-6592721 -125823,-6592718 -125809,-6592712 -125798,-6592707 -125794,-6592705 -125744,-6592680 -125684,-6592646 -125601,-6592592 -125529,-6592539 -125523,-6592535 -125509,-6592530 -125425,-6592500 -125408,-6592493 -125359,-6592468 -125323,-6592442 -125311,-6592435 -125300,-6592428 -125280,-6592419 -125246,-6592398 -125199,-6592377 -125053,-6592317 -125021,-6592302 -125007,-6592297 -124961,-6592282 -124927,-6592276 -124892,-6592271 -124852,-6592268 -124810,-6592263 -124798,-6592262 -124712,-6592276 -124670,-6592275 -124631,-6592270 -124616,-6592269 -124583,-6592275 -124559,-6592265 -124555,-6592267 -124541,-6592288 -124536,-6592293 -124531,-6592298 -124523,-6592303 -124513,-6592307 -124459,-6592319 -124378,-6592328 -124364,-6592327 -124260,-6592318 -124248,-6592318 -124201,-6592319 -124136,-6592326 -124107,-6592328 -124083,-6592332 -124073,-6592336 -124062,-6592339 -124028,-6592355 -124004,-6592362 -123993,-6592363 -123912,-6592345 -123900,-6592345 -123894,-6592347 -123891,-6592349 -123886,-6592357 -123865,-6592436 -123850,-6592500 -123836,-6592573 -123818,-6592659 -123830,-6592681 -123848,-6592700 -123849,-6592713 -123884,-6592772 -123888,-6592781 -123892,-6592790 -123892,-6592796 -123888,-6592816 -123915,-6592884 -124030,-6593097 -124035,-6593100 -124082,-6593073 -124100,-6593124 -124134,-6593200 -124142,-6593218 -124161,-6593245 -124179,-6593269 -124184,-6593274 -124189,-6593276 -124195,-6593275 -124242,-6593263 -124256,-6593263 -124258,-6593264 -124259,-6593277 -124256,-6593301 -124253,-6593318 -124240,-6593361 -124235,-6593386 -124234,-6593397 -124240,-6593402 -124263,-6593418 -124287,-6593442 -124305,-6593477 -124348,-6593549 -124396,-6593622 -124401,-6593637 -124416,-6593681 -124423,-6593694 -124444,-6593737 -124476,-6593783 -124475,-6593785 -124467,-6593796 -124449,-6593813 -124439,-6593819 -124435,-6593820 -124422,-6593822 -124430,-6594061 -124432,-6594106 -124437,-6594124 -124441,-6594160 -124443,-6594210 -124444,-6594273 -124442,-6594291 -124436,-6594321 -124433,-6594350 -124431,-6594445 -124428,-6594556 -124423,-6594582 -124408,-6594740 -124406,-6594776 -124405,-6594812 -124421,-6594816 -124414,-6595064 -124313,-6595071 -124315,-6595117 -124319,-6595298 -124326,-6595498 -124323,-6595542 -124324,-6595599 -124242,-6595604 -124233,-6595618 -124224,-6595641 -124224,-6595766 -124223,-6595913 -124217,-6596140 -124215,-6596261 -124121,-6596266 -124087,-6596265 -123969,-6596256 -123914,-6596256 -123899,-6596272 -123658,-6596235 -123356,-6596191 -123126,-6596156 -123019,-6596141 -122719,-6596099 -122573,-6596079 -122504,-6596071 -122438,-6596064 -122382,-6596277 -122357,-6596365 -122179,-6596392 -122085,-6596402 -121969,-6596420 -121859,-6596434 -121809,-6596441 -121790,-6596443 -121709,-6596413 -121570,-6596366 -121483,-6596334 -121424,-6596316 -121386,-6596304 -121055,-6596194 -120860,-6596130 -120759,-6596099 -120677,-6596081 -120483,-6596060 -120396,-6596048 -120356,-6596041" stroke="#006747" stroke-width="31" /></ns0:svg>    <rect x="20" y="50"  width="250" height="25"  rx="0"  fill="#006747" fill-opacity="0.8" />    <text x="145" y="70" text-anchor="middle" font-family="Frutiger" font-weight="bold" font-size="30" fill="white">Portsmouth</text>    <rect x="35" y="195" width="220" height="160" rx="15" fill="#78BE20"/>    <g font-family="Frutiger" font-size="15" fill="#231F20">        <g> <text x="45" y="218">Self-harm</text> <text x="245" y="218" text-anchor="end">51</text> </g>        <g> <text x="45" y="243">SEN</text> <text x="245" y="243" text-anchor="end">59</text> </g>        <g> <text x="45" y="268">Difficulties</text> <text x="245" y="268" text-anchor="end">74</text> </g>        <g> <text x="45" y="293">Child Carer</text> <text x="245" y="293" text-anchor="end">8</text> </g>        <g> <text x="45" y="318">Drinkers</text> <text x="245" y="318" text-anchor="end">38</text> </g>        <g> <text x="45" y="343">Safeguarding £</text> <text x="245" y="343" text-anchor="end">15</text> </g>    </g></svg>