<?xml version="1.0" standalone="no"?>
<!DOCTYPE svg PUBLIC "-//W3C//DTD SVG 1.1//EN"
"http://www.w3.org/Graphics/SVG/1.1/DTD/svg11.dtd">
<svg height="390" version="1.1" width="290" xmlns="http://www.w3.org/2000/svg"><defs><style type="text/css">@font-face {font-family: 'Frutiger';font-style: normal;font-weight: normal;src: local('Frutiger'), url('../fonts/Frutiger.woff') format('woff');}@font-face {font-family: 'Frutiger Bold';font-style: normal;font-weight: normal;src: local('Frutiger Bold'), url('../fonts/Frutiger_bold.woff') format('woff');}        </style>    </defs>    <rect x="20" y="20"  width="250" height="350" rx="15" fill="#005EB8" />    <rect x="35" y="35"  width="220" height="145" rx="15" fill="white" /><ns0:svg xmlns:ns0="http://www.w3.org/2000/svg" height="115" version="1.1" viewBox="-296929 -6951317 39536 39300" width="220" x="35" y="50"><ns0:polygon fill="#003087" points=" -270293,-6951148 -270292,-6951124 -270292,-6951114 -270281,-6951079 -270280,-6951056 -270295,-6951038 -270300,-6951022 -270302,-6951006 -270298,-6950993 -270281,-6950973 -270281,-6950967 -270282,-6950961 -270289,-6950945 -270301,-6950912 -270306,-6950890 -270311,-6950864 -270317,-6950818 -270317,-6950786 -270308,-6950705 -270305,-6950689 -270299,-6950670 -270293,-6950653 -270271,-6950605 -270264,-6950574 -270257,-6950523 -270257,-6950509 -270260,-6950484 -270260,-6950470 -270258,-6950456 -270256,-6950446 -270252,-6950437 -270244,-6950423 -270228,-6950400 -270223,-6950387 -270221,-6950380 -270220,-6950364 -270223,-6950338 -270224,-6950316 -270223,-6950311 -270220,-6950300 -270213,-6950285 -270200,-6950271 -270171,-6950271 -270153,-6950267 -270140,-6950253 -270131,-6950249 -270097,-6950237 -270080,-6950236 -270112,-6950275 -270121,-6950288 -270127,-6950319 -270143,-6950423 -270142,-6950453 -270135,-6950495 -270128,-6950543 -270125,-6950558 -270114,-6950593 -270111,-6950609 -270112,-6950623 -270117,-6950642 -270128,-6950664 -270141,-6950683 -270145,-6950708 -270137,-6950761 -270117,-6950864 -270098,-6950867 -270038,-6950876 -270033,-6950851 -270034,-6950841 -270041,-6950817 -270053,-6950788 -270065,-6950763 -270079,-6950708 -270101,-6950598 -270102,-6950528 -270100,-6950505 -270098,-6950498 -270087,-6950465 -270081,-6950441 -270079,-6950415 -270079,-6950403 -270080,-6950391 -270083,-6950367 -270065,-6950363 -270041,-6950371 -269984,-6950399 -269921,-6950438 -269816,-6950502 -269812,-6950523 -269816,-6950536 -269822,-6950564 -269835,-6950596 -269839,-6950625 -269806,-6950620 -269782,-6950628 -269754,-6950641 -269758,-6950664 -269751,-6950675 -269742,-6950685 -269720,-6950703 -269703,-6950708 -269680,-6950727 -269677,-6950750 -269659,-6950765 -269643,-6950763 -269622,-6950750 -269607,-6950760 -269577,-6950768 -269554,-6950781 -269474,-6950817 -269430,-6950832 -269403,-6950830 -269401,-6950862 -269399,-6950864 -269380,-6950874 -269353,-6950881 -269320,-6950881 -269297,-6950915 -269287,-6950922 -269254,-6950943 -269219,-6950959 -269201,-6950962 -269151,-6950951 -269119,-6950947 -269055,-6950961 -269011,-6951015 -268986,-6951062 -268957,-6951054 -268908,-6951034 -268834,-6950997 -268793,-6950972 -268746,-6950948 -268707,-6950911 -268624,-6950852 -268607,-6950839 -268590,-6950825 -268542,-6950784 -268499,-6950753 -268478,-6950736 -268423,-6950700 -268375,-6950673 -268300,-6950627 -268249,-6950611 -268208,-6950602 -268104,-6950537 -267925,-6950427 -267874,-6950370 -267851,-6950353 -267745,-6950291 -267670,-6950245 -267503,-6950143 -267460,-6950115 -267164,-6949926 -266970,-6949801 -266916,-6949774 -266684,-6949609 -266581,-6949532 -266167,-6949244 -266118,-6949210 -266023,-6949149 -265952,-6949100 -265871,-6949041 -265708,-6948932 -265653,-6948896 -265535,-6948810 -265348,-6948686 -265321,-6948665 -265309,-6948672 -265131,-6948536 -265046,-6948470 -264992,-6948444 -264894,-6948385 -264825,-6948339 -264752,-6948284 -264679,-6948232 -264694,-6948210 -264732,-6948206 -264755,-6948203 -264758,-6948197 -264750,-6948166 -264750,-6948158 -264751,-6948156 -264780,-6948150 -264784,-6948148 -264790,-6948137 -264793,-6948100 -264796,-6948085 -264789,-6948074 -264782,-6948069 -264775,-6948066 -264766,-6948064 -264757,-6948065 -264750,-6948066 -264730,-6948075 -264723,-6948075 -264720,-6948074 -264716,-6948069 -264714,-6948064 -264718,-6948030 -264718,-6948028 -264716,-6948024 -264716,-6948017 -264706,-6948015 -264697,-6948010 -264648,-6947987 -264619,-6947987 -264607,-6947958 -264590,-6947938 -264562,-6947909 -264541,-6947871 -264518,-6947863 -264509,-6947879 -264497,-6947861 -264490,-6947844 -264497,-6947830 -264497,-6947818 -264491,-6947810 -264484,-6947789 -264491,-6947759 -264505,-6947724 -264531,-6947699 -264525,-6947676 -264536,-6947641 -264549,-6947616 -264547,-6947591 -264540,-6947582 -264529,-6947578 -264508,-6947585 -264503,-6947585 -264495,-6947582 -264492,-6947575 -264499,-6947564 -264508,-6947553 -264519,-6947533 -264521,-6947531 -264549,-6947528 -264556,-6947524 -264553,-6947509 -264556,-6947493 -264565,-6947488 -264605,-6947475 -264622,-6947467 -264628,-6947463 -264631,-6947455 -264637,-6947434 -264644,-6947423 -264650,-6947420 -264674,-6947408 -264679,-6947404 -264678,-6947393 -264672,-6947378 -264656,-6947358 -264649,-6947343 -264645,-6947323 -264645,-6947295 -264652,-6947279 -264658,-6947273 -264670,-6947260 -264662,-6947243 -264664,-6947212 -264661,-6947195 -264655,-6947182 -264634,-6947166 -264622,-6947165 -264608,-6947170 -264600,-6947171 -264596,-6947171 -264589,-6947142 -264589,-6947113 -264587,-6947094 -264595,-6947080 -264605,-6947068 -264606,-6947058 -264597,-6947056 -264583,-6947061 -264578,-6947061 -264562,-6947057 -264559,-6947028 -264562,-6947006 -264562,-6946999 -264545,-6946968 -264546,-6946957 -264563,-6946940 -264578,-6946936 -264586,-6946925 -264605,-6946913 -264610,-6946908 -264589,-6946845 -264572,-6946836 -264568,-6946833 -264559,-6946823 -264546,-6946811 -264543,-6946805 -264540,-6946799 -264543,-6946775 -264546,-6946766 -264545,-6946756 -264529,-6946748 -264475,-6946750 -264465,-6946745 -264467,-6946732 -264462,-6946717 -264456,-6946703 -264440,-6946676 -264390,-6946659 -264388,-6946656 -264387,-6946653 -264397,-6946639 -264424,-6946630 -264421,-6946620 -264416,-6946616 -264410,-6946611 -264389,-6946601 -264382,-6946596 -264380,-6946592 -264382,-6946577 -264384,-6946570 -264367,-6946567 -264356,-6946570 -264365,-6946555 -264363,-6946543 -264349,-6946528 -264330,-6946519 -264318,-6946518 -264305,-6946527 -264300,-6946530 -264283,-6946517 -264275,-6946506 -264271,-6946488 -264248,-6946483 -264236,-6946468 -264222,-6946443 -264225,-6946434 -264233,-6946425 -264241,-6946426 -264253,-6946436 -264267,-6946439 -264272,-6946430 -264258,-6946415 -264197,-6946362 -264098,-6946330 -264095,-6946328 -264093,-6946326 -264082,-6946293 -264078,-6946254 -264078,-6946242 -264077,-6946228 -264067,-6946209 -264063,-6946205 -264060,-6946205 -264056,-6946207 -264054,-6946210 -264043,-6946214 -264022,-6946218 -264016,-6946231 -264005,-6946229 -263956,-6946192 -263955,-6946190 -263952,-6946178 -263952,-6946175 -263978,-6946173 -263983,-6946170 -263984,-6946166 -263984,-6946162 -263983,-6946160 -263974,-6946148 -263971,-6946145 -263967,-6946143 -263963,-6946143 -263959,-6946146 -263956,-6946149 -263929,-6946149 -263928,-6946143 -263949,-6946124 -263953,-6946120 -263960,-6946110 -263962,-6946104 -263964,-6946092 -263978,-6946092 -263980,-6946091 -263982,-6946089 -263983,-6946086 -263983,-6946083 -263980,-6946080 -263953,-6946069 -263948,-6946065 -263943,-6946059 -263942,-6946052 -263971,-6946012 -263980,-6945993 -263982,-6945991 -263985,-6945989 -263988,-6945990 -263996,-6945998 -264005,-6946001 -264010,-6946002 -264021,-6946001 -264028,-6945998 -264030,-6945972 -264030,-6945970 -264028,-6945968 -264025,-6945967 -264022,-6945967 -264017,-6945969 -264003,-6945969 -263991,-6945952 -263985,-6945950 -263979,-6945946 -263977,-6945941 -263975,-6945936 -263974,-6945932 -263987,-6945915 -263991,-6945906 -263993,-6945894 -263993,-6945862 -264027,-6945808 -264054,-6945792 -264057,-6945788 -264061,-6945781 -264063,-6945774 -264063,-6945765 -264056,-6945746 -264053,-6945741 -264048,-6945738 -264045,-6945735 -264043,-6945732 -264042,-6945728 -264042,-6945721 -264029,-6945667 -264074,-6945644 -264092,-6945633 -264105,-6945622 -264116,-6945620 -264122,-6945625 -264124,-6945638 -264129,-6945646 -264143,-6945653 -264150,-6945654 -264157,-6945646 -264162,-6945630 -264165,-6945618 -264169,-6945611 -264187,-6945595 -264190,-6945591 -264183,-6945566 -264190,-6945557 -264194,-6945527 -264192,-6945511 -264185,-6945488 -264178,-6945473 -264168,-6945465 -264157,-6945461 -264117,-6945476 -264100,-6945471 -264094,-6945471 -264073,-6945472 -264055,-6945480 -264052,-6945479 -264028,-6945472 -264020,-6945465 -264017,-6945461 -264015,-6945457 -264013,-6945446 -263999,-6945423 -263997,-6945418 -263996,-6945411 -263996,-6945403 -263998,-6945392 -263996,-6945376 -263977,-6945336 -263980,-6945330 -263983,-6945328 -263987,-6945327 -263994,-6945328 -264008,-6945326 -264010,-6945322 -264012,-6945315 -264012,-6945306 -264011,-6945296 -264008,-6945288 -263993,-6945260 -263990,-6945250 -263986,-6945241 -263984,-6945235 -263983,-6945230 -263984,-6945220 -264000,-6945181 -264006,-6945160 -264025,-6945156 -264030,-6945154 -264038,-6945148 -264042,-6945144 -264060,-6945101 -264064,-6945073 -264071,-6945067 -264087,-6945076 -264096,-6945078 -264098,-6945041 -264100,-6945034 -264119,-6945014 -264153,-6945005 -264163,-6944993 -264169,-6944980 -264175,-6944973 -264182,-6944972 -264203,-6944983 -264243,-6944980 -264266,-6944965 -264293,-6944962 -264340,-6944951 -264345,-6944951 -264349,-6944952 -264346,-6944960 -264327,-6944975 -264322,-6944981 -264318,-6944988 -264314,-6945001 -264313,-6945006 -264317,-6945013 -264329,-6945009 -264345,-6944990 -264360,-6944981 -264368,-6944978 -264385,-6944973 -264392,-6944973 -264400,-6944980 -264407,-6944978 -264419,-6944967 -264431,-6944951 -264438,-6944926 -264451,-6944890 -264468,-6944867 -264501,-6944887 -264517,-6944888 -264533,-6944883 -264537,-6944882 -264541,-6944882 -264548,-6944887 -264555,-6944893 -264565,-6944908 -264572,-6944915 -264583,-6944930 -264592,-6944959 -264597,-6944963 -264639,-6944991 -264653,-6945008 -264662,-6945014 -264670,-6945014 -264683,-6945007 -264692,-6945001 -264701,-6944998 -264714,-6945002 -264727,-6945003 -264730,-6945003 -264732,-6945001 -264733,-6944996 -264733,-6944990 -264731,-6944984 -264733,-6944977 -264737,-6944977 -264742,-6944977 -264755,-6944981 -264765,-6944983 -264812,-6944987 -264824,-6944992 -264825,-6944994 -264824,-6944997 -264807,-6945002 -264794,-6945010 -264787,-6945042 -264819,-6945051 -264824,-6945056 -264828,-6945061 -264827,-6945074 -264829,-6945081 -264831,-6945084 -264837,-6945088 -264841,-6945090 -264846,-6945089 -264850,-6945088 -264855,-6945084 -264859,-6945079 -264862,-6945073 -264863,-6945067 -264862,-6945059 -264860,-6945049 -264861,-6945046 -264862,-6945043 -264864,-6945041 -264870,-6945040 -264905,-6945047 -264915,-6945045 -264915,-6945026 -264916,-6945023 -264918,-6945020 -264921,-6945019 -264923,-6945018 -264926,-6945019 -264931,-6945023 -264939,-6945029 -264942,-6945033 -264948,-6945074 -264956,-6945091 -264963,-6945097 -264993,-6945100 -264987,-6945124 -265010,-6945118 -265012,-6945117 -265024,-6945064 -265045,-6945034 -265050,-6945008 -265052,-6945004 -265055,-6945000 -265120,-6944985 -265119,-6944953 -265120,-6944947 -265163,-6944915 -265155,-6944892 -265157,-6944887 -265182,-6944842 -265163,-6944821 -265141,-6944809 -265136,-6944803 -265135,-6944800 -265136,-6944796 -265171,-6944781 -265176,-6944770 -265175,-6944761 -265167,-6944756 -265150,-6944761 -265135,-6944765 -265123,-6944769 -265118,-6944765 -265116,-6944754 -265119,-6944733 -265118,-6944712 -265093,-6944706 -265074,-6944709 -265059,-6944715 -265045,-6944694 -265040,-6944684 -265036,-6944673 -265038,-6944658 -265048,-6944635 -265064,-6944622 -265053,-6944594 -265041,-6944569 -265037,-6944516 -265046,-6944488 -265037,-6944452 -265049,-6944442 -265056,-6944438 -265081,-6944428 -265085,-6944425 -265083,-6944406 -265084,-6944396 -265085,-6944391 -265127,-6944370 -265133,-6944370 -265138,-6944369 -265156,-6944380 -265198,-6944415 -265237,-6944444 -265242,-6944446 -265259,-6944448 -265324,-6944443 -265335,-6944456 -265339,-6944459 -265364,-6944456 -265445,-6944421 -265452,-6944420 -265460,-6944419 -265479,-6944419 -265515,-6944423 -265527,-6944421 -265533,-6944419 -265543,-6944413 -265561,-6944390 -265565,-6944382 -265566,-6944378 -265565,-6944371 -265561,-6944365 -265556,-6944359 -265546,-6944354 -265487,-6944344 -265476,-6944338 -265471,-6944333 -265468,-6944327 -265466,-6944321 -265466,-6944313 -265503,-6944189 -265504,-6944178 -265503,-6944172 -265500,-6944165 -265496,-6944159 -265492,-6944155 -265483,-6944149 -265472,-6944146 -265466,-6944146 -265454,-6944148 -265449,-6944147 -265443,-6944144 -265439,-6944140 -265435,-6944135 -265434,-6944130 -265433,-6944104 -265428,-6944091 -265416,-6944081 -265391,-6944063 -265382,-6944063 -265376,-6944066 -265354,-6944087 -265319,-6944065 -265313,-6944058 -265319,-6944008 -265319,-6944004 -265317,-6943997 -265314,-6943990 -265309,-6943983 -265304,-6943978 -265298,-6943974 -265290,-6943971 -265282,-6943970 -265274,-6943971 -265267,-6943974 -265263,-6943976 -265244,-6944001 -265204,-6943998 -265182,-6944003 -265145,-6944000 -265085,-6944022 -265072,-6944026 -265068,-6944026 -265065,-6944025 -265062,-6944023 -265060,-6944019 -265060,-6944013 -265073,-6943983 -265067,-6943950 -265040,-6943945 -265042,-6943888 -265022,-6943837 -264929,-6943799 -264945,-6943752 -264895,-6943717 -264934,-6943693 -264945,-6943662 -264964,-6943615 -264943,-6943599 -264929,-6943573 -264927,-6943572 -264925,-6943571 -264915,-6943572 -264883,-6943577 -264879,-6943562 -264879,-6943538 -264877,-6943498 -264808,-6943502 -264797,-6943439 -264779,-6943349 -264783,-6943303 -264804,-6943249 -264812,-6943242 -264825,-6943176 -264821,-6943168 -264820,-6943167 -264770,-6943170 -264716,-6943138 -264693,-6943126 -264658,-6943092 -264639,-6943082 -264585,-6943089 -264525,-6943101 -264440,-6943128 -264307,-6943162 -264273,-6943161 -264260,-6943156 -264240,-6943145 -264233,-6943143 -264226,-6943142 -264219,-6943142 -264214,-6943144 -264170,-6943165 -264143,-6943181 -264106,-6943185 -264061,-6943186 -264041,-6943189 -264033,-6943185 -264016,-6943173 -263896,-6943150 -263867,-6943154 -263858,-6943156 -263839,-6943165 -263829,-6943161 -263795,-6943140 -263778,-6943131 -263756,-6943118 -263669,-6943081 -263649,-6943069 -263618,-6943068 -263578,-6943071 -263544,-6943087 -263514,-6943111 -263490,-6943096 -263468,-6943079 -263452,-6943068 -263411,-6943045 -263392,-6943032 -263366,-6942996 -263451,-6942855 -263474,-6942824 -263484,-6942808 -263495,-6942788 -263505,-6942767 -263517,-6942732 -263519,-6942723 -263520,-6942716 -263518,-6942680 -263506,-6942588 -263498,-6942558 -263495,-6942540 -263484,-6942379 -263480,-6942359 -263475,-6942341 -263473,-6942326 -263486,-6942264 -263494,-6942213 -263500,-6942185 -263511,-6942146 -263519,-6942105 -263526,-6942091 -263531,-6942084 -263545,-6942068 -263578,-6942026 -263607,-6941993 -263625,-6941976 -263635,-6941969 -263657,-6941955 -263696,-6941925 -263699,-6941918 -263701,-6941911 -263701,-6941910 -263696,-6941905 -263653,-6941860 -263638,-6941845 -263631,-6941840 -263622,-6941835 -263614,-6941833 -263608,-6941831 -263593,-6941831 -263546,-6941828 -263533,-6941825 -263527,-6941825 -263523,-6941825 -263510,-6941831 -263484,-6941853 -263472,-6941849 -263465,-6941848 -263460,-6941849 -263456,-6941851 -263445,-6941861 -263420,-6941877 -263405,-6941861 -263404,-6941855 -263389,-6941842 -263373,-6941825 -263347,-6941826 -263341,-6941825 -263334,-6941822 -263329,-6941818 -263322,-6941811 -263278,-6941806 -263263,-6941770 -263250,-6941745 -263229,-6941735 -263218,-6941720 -263209,-6941711 -263194,-6941700 -263195,-6941664 -263160,-6941644 -263153,-6941638 -263148,-6941632 -263144,-6941626 -263138,-6941612 -263122,-6941588 -263122,-6941579 -263121,-6941571 -263119,-6941565 -263115,-6941560 -263111,-6941555 -263106,-6941552 -263098,-6941549 -263083,-6941525 -263074,-6941517 -263064,-6941512 -263057,-6941511 -263050,-6941511 -263038,-6941513 -263012,-6941513 -262995,-6941492 -262962,-6941461 -262949,-6941452 -262940,-6941447 -262931,-6941444 -262814,-6941409 -262769,-6941364 -262753,-6941345 -262745,-6941327 -262705,-6941295 -262698,-6941288 -262691,-6941285 -262686,-6941284 -262682,-6941284 -262673,-6941286 -262664,-6941293 -262606,-6941279 -262568,-6941206 -262561,-6941186 -262555,-6941170 -262545,-6941148 -262523,-6941110 -262509,-6941090 -262505,-6941083 -262495,-6941059 -262490,-6941042 -262484,-6941028 -262477,-6941014 -262468,-6941002 -262459,-6940990 -262445,-6940976 -262444,-6940974 -262443,-6940971 -262441,-6940964 -262391,-6940959 -262372,-6940953 -262344,-6940939 -262333,-6940935 -262284,-6940930 -262275,-6940925 -262206,-6940922 -262184,-6940907 -262131,-6940895 -262120,-6940867 -262089,-6940860 -262037,-6940789 -262002,-6940671 -261960,-6940510 -261945,-6940472 -261923,-6940413 -261904,-6940366 -261899,-6940358 -261882,-6940334 -261836,-6940287 -261824,-6940271 -261818,-6940262 -261810,-6940246 -261597,-6939867 -261455,-6939864 -261443,-6939872 -261426,-6939898 -261419,-6939905 -261415,-6939907 -261405,-6939910 -261396,-6939910 -261383,-6939908 -261372,-6939906 -261324,-6939887 -261310,-6939887 -261301,-6939886 -261287,-6939880 -261264,-6939882 -261223,-6939897 -261218,-6939898 -261213,-6939898 -261205,-6939896 -261157,-6939893 -261145,-6939891 -261135,-6939891 -261126,-6939891 -261117,-6939893 -261104,-6939897 -261082,-6939895 -261074,-6939892 -261070,-6939887 -261063,-6939878 -261056,-6939866 -261020,-6939779 -261007,-6939755 -260994,-6939736 -260971,-6939708 -260958,-6939689 -260940,-6939659 -260929,-6939652 -260927,-6939647 -260925,-6939637 -260924,-6939622 -260925,-6939607 -260940,-6939482 -260940,-6939463 -260938,-6939456 -260935,-6939446 -260923,-6939417 -260911,-6939395 -260881,-6939356 -260873,-6939341 -260868,-6939331 -260863,-6939314 -260855,-6939269 -260827,-6939224 -260806,-6939175 -260774,-6939127 -260765,-6939117 -260759,-6939111 -260753,-6939107 -260739,-6939100 -260719,-6939092 -260676,-6939078 -260665,-6939073 -260647,-6939060 -260533,-6938954 -260485,-6938925 -260442,-6938885 -260447,-6938867 -260437,-6938863 -260413,-6938851 -260402,-6938848 -260390,-6938845 -260359,-6938839 -260348,-6938841 -260340,-6938840 -260334,-6938837 -260328,-6938833 -260322,-6938826 -260305,-6938811 -260257,-6938744 -260250,-6938726 -260243,-6938716 -260230,-6938704 -260147,-6938659 -260107,-6938639 -260075,-6938620 -260032,-6938593 -260001,-6938570 -259970,-6938547 -259924,-6938518 -259914,-6938516 -259834,-6938496 -259752,-6938473 -259684,-6938451 -259637,-6938431 -259614,-6938427 -259532,-6938399 -259520,-6938400 -259505,-6938399 -259498,-6938397 -259489,-6938392 -259472,-6938383 -259462,-6938376 -259447,-6938369 -259435,-6938367 -259425,-6938373 -259423,-6938376 -259389,-6938355 -259388,-6938351 -259388,-6938347 -259396,-6938330 -259400,-6938315 -259403,-6938310 -259425,-6938293 -259414,-6938290 -259404,-6938285 -259397,-6938283 -259386,-6938282 -259366,-6938270 -259382,-6938244 -259387,-6938230 -259375,-6938209 -259376,-6938194 -259375,-6938187 -259370,-6938175 -259369,-6938167 -259369,-6938148 -259372,-6938117 -259393,-6938080 -259380,-6938029 -259375,-6938020 -259370,-6938015 -259364,-6938013 -259358,-6938012 -259354,-6938012 -259328,-6938023 -259323,-6938020 -259315,-6938013 -259307,-6938003 -259298,-6937988 -259297,-6937985 -259295,-6937970 -259297,-6937964 -259304,-6937949 -259307,-6937942 -259308,-6937933 -259308,-6937925 -259302,-6937892 -259301,-6937878 -259301,-6937860 -259294,-6937757 -259290,-6937745 -259269,-6937708 -259257,-6937716 -259241,-6937744 -259237,-6937747 -259235,-6937747 -259231,-6937745 -259224,-6937724 -259225,-6937718 -259228,-6937707 -259232,-6937697 -259238,-6937688 -259244,-6937681 -259253,-6937674 -259267,-6937675 -259271,-6937647 -259273,-6937642 -259275,-6937637 -259284,-6937626 -259301,-6937622 -259348,-6937606 -259345,-6937567 -259349,-6937567 -259367,-6937574 -259384,-6937574 -259404,-6937573 -259409,-6937572 -259415,-6937569 -259419,-6937566 -259423,-6937561 -259426,-6937555 -259433,-6937522 -259442,-6937504 -259446,-6937492 -259447,-6937480 -259447,-6937471 -259457,-6937457 -259463,-6937452 -259469,-6937444 -259471,-6937439 -259472,-6937432 -259471,-6937425 -259469,-6937417 -259471,-6937413 -259483,-6937392 -259485,-6937382 -259486,-6937362 -259486,-6937352 -259468,-6937314 -259463,-6937301 -259454,-6937266 -259445,-6937239 -259416,-6937265 -259412,-6937264 -259409,-6937261 -259409,-6937256 -259410,-6937254 -259413,-6937252 -259436,-6937211 -259427,-6937185 -259416,-6937171 -259386,-6937149 -259375,-6937144 -259364,-6937140 -259352,-6937138 -259339,-6937138 -259331,-6937139 -259306,-6937157 -259295,-6937164 -259288,-6937166 -259280,-6937168 -259268,-6937168 -259232,-6937162 -259159,-6937153 -259136,-6937143 -259094,-6937134 -259071,-6937124 -259059,-6937121 -259033,-6937115 -259020,-6937112 -258995,-6937121 -258983,-6937123 -258971,-6937121 -258919,-6937118 -258898,-6937121 -258879,-6937126 -258847,-6937152 -258779,-6937166 -258776,-6937166 -258769,-6937162 -258766,-6937158 -258763,-6937152 -258760,-6937109 -258673,-6937011 -258652,-6936999 -258639,-6936989 -258617,-6936973 -258592,-6936959 -258581,-6936951 -258573,-6936940 -258569,-6936932 -258555,-6936911 -258543,-6936905 -258506,-6936889 -258442,-6936868 -258445,-6936835 -258433,-6936809 -258431,-6936800 -258431,-6936795 -258433,-6936786 -258439,-6936775 -258440,-6936765 -258438,-6936759 -258435,-6936752 -258431,-6936747 -258423,-6936740 -258409,-6936691 -258399,-6936613 -258399,-6936597 -258408,-6936552 -258400,-6936537 -258365,-6936544 -258356,-6936532 -258347,-6936498 -258357,-6936439 -258366,-6936403 -258372,-6936394 -258374,-6936390 -258374,-6936381 -258372,-6936371 -258368,-6936366 -258365,-6936363 -258346,-6936372 -258339,-6936377 -258324,-6936389 -258305,-6936411 -258300,-6936424 -258293,-6936433 -258289,-6936436 -258283,-6936440 -258275,-6936443 -258262,-6936443 -258214,-6936422 -258190,-6936407 -258175,-6936396 -258163,-6936385 -258158,-6936380 -258131,-6936344 -258114,-6936324 -258109,-6936301 -258107,-6936299 -258095,-6936292 -258083,-6936289 -258070,-6936289 -258047,-6936295 -258038,-6936295 -258027,-6936292 -258021,-6936289 -258016,-6936286 -258010,-6936281 -258004,-6936271 -257969,-6936228 -257947,-6936179 -257928,-6936151 -257918,-6936141 -257905,-6936132 -257890,-6936127 -257875,-6936125 -257851,-6936127 -257834,-6936124 -257826,-6936121 -257821,-6936117 -257769,-6936076 -257727,-6936057 -257737,-6936045 -257757,-6936045 -257767,-6936035 -257775,-6936031 -257789,-6936028 -257802,-6936022 -257808,-6936018 -257814,-6936011 -257819,-6936003 -257821,-6935994 -257821,-6935990 -257782,-6935963 -257782,-6935963 -257787,-6935958 -257804,-6935944 -257805,-6935932 -257799,-6935913 -257804,-6935906 -257810,-6935904 -257814,-6935901 -257819,-6935897 -257825,-6935885 -257806,-6935861 -257793,-6935842 -257777,-6935823 -257773,-6935796 -257775,-6935789 -257776,-6935785 -257774,-6935777 -257760,-6935766 -257751,-6935762 -257746,-6935758 -257741,-6935752 -257737,-6935746 -257735,-6935741 -257724,-6935689 -257721,-6935685 -257716,-6935681 -257710,-6935681 -257690,-6935694 -257687,-6935691 -257677,-6935673 -257673,-6935661 -257675,-6935637 -257632,-6935596 -257604,-6935573 -257595,-6935563 -257531,-6935461 -257524,-6935457 -257519,-6935451 -257514,-6935445 -257498,-6935408 -257430,-6935272 -257393,-6935208 -257393,-6935183 -257419,-6935136 -257438,-6935107 -257451,-6935079 -257469,-6935013 -257482,-6934938 -257491,-6934881 -257490,-6934854 -257488,-6934821 -257485,-6934804 -257483,-6934794 -257477,-6934770 -257474,-6934751 -257472,-6934732 -257470,-6934702 -257472,-6934687 -257476,-6934680 -257487,-6934666 -257521,-6934634 -257525,-6934631 -257538,-6934628 -257542,-6934626 -257553,-6934609 -257584,-6934576 -257600,-6934555 -257646,-6934590 -257665,-6934611 -257669,-6934613 -257689,-6934617 -257697,-6934621 -257705,-6934625 -257711,-6934630 -257751,-6934670 -257753,-6934705 -257760,-6934718 -257767,-6934726 -257775,-6934733 -257780,-6934737 -257796,-6934740 -257848,-6934720 -257895,-6934676 -257859,-6934612 -257851,-6934561 -257845,-6934531 -257804,-6934530 -257765,-6934528 -257747,-6934458 -257742,-6934430 -257726,-6934427 -257706,-6934385 -257705,-6934378 -257704,-6934370 -257704,-6934362 -257705,-6934355 -257707,-6934349 -257714,-6934336 -257719,-6934293 -257727,-6934253 -257741,-6934236 -257746,-6934227 -257761,-6934197 -257772,-6934172 -257775,-6934147 -257777,-6934122 -257776,-6934106 -257770,-6934087 -257770,-6934055 -257766,-6934031 -257766,-6934025 -257768,-6934011 -257771,-6933998 -257776,-6933984 -257794,-6933900 -257800,-6933824 -257796,-6933791 -257794,-6933785 -257789,-6933774 -257768,-6933752 -257773,-6933748 -257783,-6933738 -257791,-6933733 -257802,-6933730 -257808,-6933730 -257819,-6933732 -257821,-6933720 -257824,-6933712 -257832,-6933703 -257838,-6933693 -257843,-6933682 -257852,-6933659 -257863,-6933643 -257888,-6933620 -257924,-6933588 -257981,-6933532 -257991,-6933521 -257998,-6933517 -258005,-6933514 -258014,-6933512 -258045,-6933500 -258065,-6933488 -258073,-6933484 -258099,-6933476 -258117,-6933466 -258142,-6933458 -258152,-6933453 -258158,-6933448 -258161,-6933445 -258206,-6933367 -258210,-6933341 -258213,-6933332 -258217,-6933327 -258226,-6933320 -258254,-6933310 -258269,-6933309 -258289,-6933311 -258347,-6933326 -258358,-6933327 -258408,-6933308 -258413,-6933307 -258423,-6933307 -258430,-6933309 -258434,-6933310 -258513,-6933357 -258518,-6933361 -258541,-6933390 -258548,-6933397 -258587,-6933421 -258613,-6933430 -258621,-6933432 -258636,-6933432 -258643,-6933432 -258683,-6933422 -258702,-6933420 -258711,-6933420 -258713,-6933420 -258743,-6933433 -258754,-6933435 -258760,-6933435 -258766,-6933434 -258772,-6933432 -258781,-6933426 -258818,-6933422 -258826,-6933437 -258828,-6933438 -258832,-6933440 -258836,-6933440 -258841,-6933436 -258895,-6933410 -258927,-6933388 -259000,-6933361 -259024,-6933360 -259040,-6933356 -259074,-6933336 -259097,-6933326 -259109,-6933323 -259152,-6933301 -259159,-6933295 -259163,-6933290 -259168,-6933286 -259175,-6933283 -259221,-6933276 -259225,-6933274 -259230,-6933271 -259235,-6933266 -259237,-6933262 -259236,-6933249 -259237,-6933245 -259240,-6933240 -259244,-6933237 -259250,-6933235 -259278,-6933218 -259294,-6933211 -259304,-6933210 -259308,-6933208 -259312,-6933205 -259316,-6933201 -259319,-6933196 -259329,-6933186 -259337,-6933181 -259345,-6933179 -259350,-6933177 -259354,-6933174 -259359,-6933167 -259382,-6933111 -259439,-6933134 -259452,-6933151 -259464,-6933164 -259477,-6933177 -259491,-6933189 -259539,-6933227 -259566,-6933245 -259595,-6933261 -259626,-6933276 -259658,-6933288 -259775,-6933323 -259792,-6933323 -259843,-6933311 -259883,-6933288 -259890,-6933280 -259895,-6933276 -259901,-6933273 -259906,-6933272 -259951,-6933274 -260008,-6933264 -260026,-6933260 -260031,-6933316 -259988,-6933310 -259987,-6933319 -259987,-6933325 -259992,-6933349 -260016,-6933415 -260022,-6933471 -260021,-6933517 -260023,-6933552 -260029,-6933587 -260033,-6933610 -260038,-6933644 -260043,-6933670 -260052,-6933704 -260068,-6933747 -260085,-6933770 -260113,-6933763 -260180,-6933723 -260205,-6933712 -260215,-6933703 -260221,-6933698 -260233,-6933692 -260273,-6933677 -260328,-6933656 -260474,-6933608 -260602,-6933544 -260786,-6933454 -260821,-6933442 -260848,-6933434 -260890,-6933425 -260934,-6933420 -260994,-6933410 -261044,-6933406 -261353,-6933395 -261411,-6933396 -261429,-6933396 -261471,-6933391 -261610,-6933378 -261640,-6933378 -261659,-6933381 -261690,-6933386 -261730,-6933388 -261753,-6933389 -261769,-6933389 -261873,-6933369 -261914,-6933370 -261977,-6933378 -262047,-6933381 -262107,-6933384 -262186,-6933394 -262262,-6933410 -262279,-6933415 -262310,-6933417 -262349,-6933422 -262483,-6933433 -262492,-6933435 -262527,-6933445 -262557,-6933461 -262583,-6933477 -262611,-6933498 -262717,-6933597 -262779,-6933690 -262855,-6933740 -262891,-6933764 -262915,-6933782 -262953,-6933813 -263042,-6933897 -263047,-6933890 -263052,-6933885 -263057,-6933882 -263063,-6933880 -263105,-6933872 -263237,-6933859 -263381,-6933840 -263428,-6933826 -263526,-6933792 -263589,-6933999 -263593,-6934022 -263607,-6934068 -263621,-6934107 -263638,-6934142 -263655,-6934179 -263670,-6934208 -263689,-6934239 -263705,-6934262 -263725,-6934285 -263761,-6934335 -263778,-6934357 -263788,-6934373 -263866,-6934554 -263889,-6934596 -263964,-6934675 -263995,-6934700 -264005,-6934709 -264017,-6934725 -264021,-6934747 -264023,-6934754 -264026,-6934762 -264035,-6934778 -264018,-6934792 -263980,-6934810 -263914,-6934838 -263906,-6934841 -263860,-6934853 -263851,-6934857 -263841,-6934863 -263832,-6934871 -263757,-6934961 -263733,-6934993 -263721,-6935014 -263712,-6935027 -263697,-6935048 -263691,-6935069 -263690,-6935077 -263690,-6935092 -263696,-6935134 -263755,-6935110 -263790,-6935112 -263831,-6935108 -263861,-6935098 -263872,-6935095 -263883,-6935093 -263895,-6935092 -263934,-6935094 -263934,-6935108 -263992,-6935115 -264019,-6935119 -264076,-6935120 -264115,-6935123 -264224,-6935172 -264249,-6935169 -264287,-6935155 -264294,-6935153 -264309,-6935155 -264350,-6935167 -264391,-6935197 -264451,-6935098 -264531,-6934968 -264556,-6934974 -264585,-6934925 -264599,-6934889 -264618,-6934805 -264627,-6934782 -264636,-6934759 -264645,-6934746 -264652,-6934735 -264708,-6934595 -264767,-6934462 -264783,-6934349 -264788,-6934318 -264797,-6934274 -264817,-6934246 -264827,-6934229 -264836,-6934195 -264829,-6934118 -264814,-6934063 -264833,-6933969 -264847,-6933921 -264875,-6933853 -264881,-6933774 -264876,-6933714 -264883,-6933586 -264821,-6933439 -264814,-6933404 -264812,-6933387 -264811,-6933356 -264813,-6933327 -264818,-6933304 -264824,-6933280 -264830,-6933261 -264846,-6933226 -264850,-6933219 -264885,-6933178 -264892,-6933168 -264896,-6933160 -264903,-6933142 -264905,-6933129 -264906,-6933106 -264881,-6932984 -264884,-6932959 -264901,-6932922 -264959,-6932764 -264995,-6932641 -265046,-6932395 -265039,-6932305 -265038,-6932280 -265038,-6932255 -265042,-6932202 -265052,-6932168 -265108,-6932036 -265149,-6931916 -265195,-6931815 -265229,-6931754 -265253,-6931718 -265352,-6931603 -265402,-6931544 -265496,-6931418 -265514,-6931392 -265518,-6931387 -265542,-6931351 -265628,-6931166 -265736,-6930950 -265783,-6930899 -265965,-6930740 -266004,-6930695 -266058,-6930613 -266083,-6930580 -266126,-6930533 -266213,-6930474 -266302,-6930403 -266331,-6930378 -266360,-6930328 -266385,-6930277 -266397,-6930233 -266398,-6930209 -266399,-6930185 -266374,-6930111 -266360,-6930037 -266344,-6929966 -266342,-6929931 -266352,-6929834 -266360,-6929808 -266393,-6929757 -266566,-6929554 -266722,-6929363 -266740,-6929338 -266757,-6929298 -266791,-6929205 -266815,-6929152 -267014,-6928935 -267106,-6928822 -267196,-6928689 -267281,-6928548 -267302,-6928526 -267445,-6928415 -267445,-6928406 -267444,-6928371 -267433,-6928330 -267432,-6928295 -267436,-6928260 -267484,-6928162 -267521,-6928081 -267555,-6927983 -267565,-6927950 -267577,-6927822 -267566,-6927477 -267554,-6927362 -267537,-6927283 -267513,-6927225 -267462,-6927132 -267434,-6927092 -267398,-6926993 -267384,-6926935 -267363,-6926862 -267342,-6926810 -267336,-6926769 -267437,-6926761 -267454,-6926777 -267534,-6926770 -267609,-6926780 -267750,-6926769 -267750,-6926754 -267750,-6926753 -267740,-6926660 -267719,-6926574 -267689,-6926497 -267694,-6926427 -267693,-6926395 -267691,-6926363 -267682,-6926321 -267672,-6926278 -267631,-6926138 -267624,-6926139 -267566,-6925953 -267561,-6925941 -267556,-6925929 -267532,-6925894 -267482,-6925831 -267330,-6925754 -267321,-6925743 -267331,-6925683 -267362,-6925501 -267367,-6925433 -267374,-6925376 -267379,-6925338 -267388,-6925313 -267416,-6925272 -267425,-6925250 -267420,-6925237 -267416,-6925193 -267406,-6925136 -267375,-6925100 -267369,-6925089 -267363,-6925073 -267354,-6925059 -267341,-6925028 -267326,-6924977 -267311,-6924951 -267299,-6924914 -267298,-6924900 -267298,-6924886 -267301,-6924857 -267311,-6924828 -267325,-6924796 -267336,-6924768 -267339,-6924747 -267336,-6924719 -267344,-6924699 -267346,-6924691 -267346,-6924655 -267364,-6924624 -267377,-6924589 -267384,-6924569 -267387,-6924558 -267386,-6924541 -267390,-6924522 -267385,-6924482 -267448,-6924495 -267493,-6924512 -267533,-6924523 -267547,-6924531 -267584,-6924508 -267680,-6924429 -267772,-6924318 -267851,-6924282 -267911,-6924253 -267933,-6924238 -267947,-6924217 -267973,-6924141 -267996,-6924055 -268031,-6923960 -268034,-6923948 -268034,-6923948 -268054,-6923869 -268060,-6923838 -268074,-6923767 -268095,-6923628 -268125,-6923468 -268152,-6923291 -268169,-6923160 -268191,-6923016 -268207,-6922883 -268273,-6922491 -268368,-6922344 -268450,-6922211 -268582,-6922003 -268750,-6921732 -268908,-6921484 -269028,-6921293 -269199,-6921030 -269281,-6920891 -269285,-6920883 -269276,-6920698 -269226,-6919990 -269212,-6919763 -269194,-6919557 -269179,-6919315 -269150,-6918958 -269130,-6918642 -269123,-6918581 -269123,-6918577 -269165,-6918505 -269208,-6918449 -269299,-6918296 -269318,-6918242 -269346,-6918171 -269360,-6918152 -269371,-6918110 -269384,-6918071 -269362,-6917960 -269336,-6917890 -269339,-6917881 -269319,-6917843 -269298,-6917817 -269288,-6917803 -269254,-6917746 -269237,-6917732 -269202,-6917704 -269154,-6917657 -269107,-6917634 -269057,-6917611 -268999,-6917582 -269034,-6917514 -269055,-6917478 -269063,-6917452 -269063,-6917448 -269037,-6917411 -269049,-6917397 -269053,-6917382 -269061,-6917365 -269068,-6917327 -269079,-6917289 -269112,-6917139 -269106,-6917136 -269123,-6917053 -269222,-6916665 -269226,-6916621 -269205,-6916607 -269200,-6916602 -269197,-6916598 -269194,-6916593 -269195,-6916577 -269196,-6916576 -269272,-6916578 -269292,-6916386 -269294,-6916363 -269294,-6916281 -269309,-6916123 -269331,-6915989 -269336,-6915937 -269336,-6915918 -269328,-6915878 -269290,-6915765 -269279,-6915733 -269263,-6915671 -269203,-6915541 -269330,-6915532 -269377,-6915517 -269393,-6915511 -269446,-6915483 -269466,-6915471 -269486,-6915453 -269535,-6915406 -269547,-6915398 -269559,-6915390 -269600,-6915373 -269655,-6915346 -269687,-6915327 -269697,-6915314 -269723,-6915284 -269746,-6915269 -269824,-6915249 -269845,-6915242 -269849,-6915233 -269966,-6915134 -270048,-6915060 -270279,-6914864 -270354,-6914798 -270361,-6914794 -270368,-6914789 -270439,-6914754 -270579,-6914681 -270713,-6914606 -271244,-6914316 -271231,-6914279 -271190,-6913988 -271160,-6913731 -271147,-6913663 -271158,-6913650 -271141,-6913440 -271128,-6913429 -271192,-6913211 -271211,-6913141 -271218,-6913137 -271284,-6912923 -271290,-6912909 -271292,-6912895 -271289,-6912886 -271285,-6912882 -271279,-6912878 -271212,-6912837 -271078,-6912761 -270973,-6912699 -270956,-6912689 -270956,-6912688 -271001,-6912563 -271020,-6912521 -271116,-6912341 -271140,-6912217 -271148,-6912199 -271158,-6912188 -271175,-6912184 -271208,-6912198 -271230,-6912221 -271326,-6912149 -271360,-6912163 -271379,-6912126 -271377,-6912095 -271390,-6912051 -271397,-6912034 -271401,-6912026 -271409,-6912017 -271569,-6912104 -271653,-6912152 -271842,-6912233 -271864,-6912191 -271859,-6912182 -271868,-6912161 -271883,-6912151 -271927,-6912140 -271972,-6912144 -272016,-6912152 -272036,-6912154 -272048,-6912146 -272057,-6912138 -272092,-6912104 -272122,-6912120 -272158,-6912154 -272298,-6912223 -272460,-6912297 -272533,-6912323 -272644,-6912372 -272726,-6912400 -272759,-6912415 -272846,-6912461 -272871,-6912480 -272963,-6912531 -272999,-6912552 -273065,-6912604 -273099,-6912640 -273151,-6912672 -273213,-6912723 -273269,-6912750 -273288,-6912767 -273350,-6912849 -273403,-6912900 -273417,-6912913 -273452,-6912942 -273521,-6913026 -273575,-6913088 -273602,-6913121 -273659,-6913150 -273695,-6913185 -273741,-6913229 -273793,-6913276 -273915,-6913378 -274023,-6913464 -274071,-6913501 -274087,-6913515 -274116,-6913544 -274153,-6913577 -274241,-6913634 -274313,-6913686 -274353,-6913711 -274387,-6913721 -274425,-6913729 -274471,-6913729 -274510,-6913733 -274553,-6913765 -274655,-6913655 -274699,-6913610 -274786,-6913574 -274821,-6913558 -274915,-6913481 -274922,-6913472 -274927,-6913467 -274933,-6913464 -274940,-6913461 -274948,-6913460 -274955,-6913461 -274964,-6913462 -275003,-6913467 -275053,-6913482 -275075,-6913458 -275111,-6913416 -275162,-6913381 -275184,-6913369 -275213,-6913373 -275206,-6913453 -275203,-6913527 -275198,-6913602 -275177,-6913696 -275177,-6913743 -275181,-6913753 -275197,-6913744 -275197,-6913711 -275212,-6913687 -275225,-6913676 -275256,-6913702 -275266,-6913709 -275304,-6913697 -275348,-6913692 -275394,-6913697 -275418,-6913714 -275428,-6913710 -275445,-6913711 -275462,-6913711 -275481,-6913695 -275498,-6913654 -275507,-6913641 -275507,-6913622 -275517,-6913595 -275535,-6913588 -275601,-6913576 -275631,-6913567 -275648,-6913570 -275690,-6913589 -275718,-6913603 -275734,-6913606 -275778,-6913612 -275790,-6913618 -275808,-6913632 -275818,-6913634 -275827,-6913637 -275920,-6913646 -275959,-6913752 -275981,-6913743 -276011,-6913743 -276038,-6913740 -276076,-6913740 -276099,-6913743 -276104,-6913751 -276132,-6913737 -276163,-6913726 -276215,-6913678 -276227,-6913667 -276256,-6913668 -276271,-6913663 -276272,-6913663 -276273,-6913664 -276282,-6913671 -276285,-6913679 -276262,-6913745 -276223,-6913793 -276219,-6913820 -276215,-6913847 -276216,-6913876 -276217,-6913885 -276219,-6913893 -276223,-6913899 -276228,-6913904 -276235,-6913905 -276241,-6913906 -276251,-6913897 -276257,-6913893 -276273,-6913888 -276282,-6913885 -276323,-6913886 -276344,-6913894 -276383,-6913916 -276442,-6913943 -276475,-6913949 -276486,-6913945 -276514,-6913924 -276574,-6913891 -276606,-6913857 -276631,-6913841 -276666,-6913825 -276701,-6913812 -276734,-6913800 -276781,-6913720 -276791,-6913725 -276792,-6913726 -276778,-6913757 -276756,-6913861 -276757,-6913871 -276759,-6913876 -276762,-6913881 -276773,-6913892 -276783,-6913943 -276790,-6913956 -276821,-6913993 -276837,-6914006 -276891,-6914037 -276982,-6914086 -276986,-6914088 -276989,-6914091 -277007,-6914127 -277010,-6914131 -277017,-6914137 -277022,-6914140 -277043,-6914150 -277095,-6914165 -277115,-6914176 -277134,-6914199 -277169,-6914270 -277181,-6914283 -277192,-6914295 -277217,-6914273 -277234,-6914304 -277257,-6914337 -277287,-6914366 -277317,-6914384 -277327,-6914394 -277362,-6914456 -277385,-6914482 -277414,-6914502 -277456,-6914522 -277507,-6914537 -277566,-6914571 -277636,-6914604 -277711,-6914616 -277746,-6914641 -277834,-6914663 -277876,-6914672 -277930,-6914675 -277988,-6914670 -278057,-6914659 -278198,-6914647 -278248,-6914645 -278393,-6914647 -278424,-6914651 -278460,-6914660 -278496,-6914669 -278492,-6914699 -278449,-6914725 -278441,-6914743 -278393,-6914791 -278394,-6914792 -278494,-6914881 -278537,-6914924 -278603,-6914976 -278710,-6915075 -278768,-6915135 -278924,-6915287 -278971,-6915344 -279012,-6915400 -279095,-6915533 -279167,-6915656 -279190,-6915688 -279262,-6915779 -279345,-6915868 -279376,-6915884 -279420,-6915904 -279413,-6915927 -279399,-6915959 -279439,-6915994 -279460,-6916015 -279465,-6916019 -279493,-6916053 -279464,-6916098 -279461,-6916110 -279459,-6916140 -279451,-6916167 -279458,-6916239 -279456,-6916253 -279454,-6916267 -279449,-6916278 -279425,-6916317 -279421,-6916353 -279420,-6916383 -279428,-6916390 -279448,-6916411 -279474,-6916458 -279496,-6916472 -279511,-6916489 -279527,-6916500 -279573,-6916584 -279577,-6916592 -279579,-6916603 -279594,-6916626 -279605,-6916645 -279624,-6916656 -279627,-6916663 -279634,-6916683 -279636,-6916702 -279632,-6916720 -279632,-6916724 -279658,-6916735 -279670,-6916746 -279681,-6916757 -279695,-6916774 -279698,-6916784 -279708,-6916789 -279716,-6916804 -279749,-6916808 -279857,-6916851 -279905,-6916864 -279938,-6916882 -279958,-6916879 -279983,-6916914 -280007,-6916922 -280012,-6916928 -280023,-6916945 -280048,-6916962 -280069,-6916982 -280107,-6917015 -280114,-6917023 -280124,-6917026 -280153,-6917056 -280157,-6917079 -280160,-6917086 -280171,-6917106 -280169,-6917132 -280180,-6917145 -280221,-6917199 -280230,-6917208 -280243,-6917214 -280265,-6917241 -280272,-6917249 -280275,-6917254 -280283,-6917274 -280295,-6917282 -280308,-6917288 -280329,-6917300 -280340,-6917302 -280347,-6917311 -280380,-6917322 -280411,-6917316 -280424,-6917323 -280432,-6917328 -280456,-6917352 -280514,-6917401 -280559,-6917437 -280611,-6917481 -280633,-6917497 -280665,-6917523 -280666,-6917538 -280683,-6917538 -280730,-6917587 -280816,-6917684 -280832,-6917686 -280846,-6917698 -280854,-6917719 -280871,-6917736 -280876,-6917751 -280930,-6917816 -280948,-6917832 -280977,-6917847 -281021,-6917866 -281059,-6917866 -281069,-6917868 -281079,-6917870 -281113,-6917889 -281133,-6917890 -281134,-6917888 -281211,-6917927 -281263,-6917971 -281276,-6917980 -281289,-6917987 -281315,-6917995 -281319,-6918012 -281357,-6918057 -281395,-6918111 -281414,-6918134 -281453,-6918176 -281471,-6918200 -281510,-6918253 -281549,-6918298 -281560,-6918314 -281580,-6918342 -281608,-6918386 -281644,-6918422 -281697,-6918443 -281733,-6918454 -281769,-6918462 -281804,-6918474 -281872,-6918522 -281911,-6918545 -281979,-6918568 -282038,-6918591 -282075,-6918592 -282097,-6918596 -282120,-6918600 -282200,-6918622 -282254,-6918649 -282272,-6918658 -282376,-6918710 -282404,-6918729 -282430,-6918741 -282506,-6918778 -282581,-6918817 -282646,-6918856 -282693,-6918884 -282754,-6918914 -282789,-6918940 -282823,-6918954 -282876,-6918980 -282937,-6919008 -282993,-6919027 -283075,-6919047 -283163,-6919052 -283190,-6919045 -283238,-6919042 -283268,-6919042 -283306,-6919045 -283311,-6919061 -283321,-6919086 -283325,-6919091 -283343,-6919111 -283400,-6919152 -283452,-6919192 -283476,-6919277 -283481,-6919291 -283498,-6919323 -283502,-6919327 -283513,-6919337 -283528,-6919347 -283545,-6919356 -283562,-6919362 -283581,-6919366 -283621,-6919370 -283677,-6919371 -283692,-6919382 -283701,-6919395 -283698,-6919409 -283688,-6919433 -283684,-6919451 -283683,-6919476 -283677,-6919485 -283670,-6919488 -283660,-6919488 -283658,-6919490 -283656,-6919493 -283647,-6919518 -283643,-6919531 -283629,-6919538 -283619,-6919540 -283606,-6919560 -283596,-6919562 -283567,-6919571 -283556,-6919578 -283548,-6919593 -283546,-6919602 -283544,-6919612 -283544,-6919627 -283530,-6919635 -283498,-6919657 -283487,-6919673 -283481,-6919681 -283455,-6919706 -283452,-6919730 -283449,-6919741 -283441,-6919757 -283427,-6919792 -283408,-6919823 -283406,-6919841 -283397,-6919862 -283406,-6919870 -283409,-6919888 -283404,-6919900 -283398,-6919929 -283386,-6919976 -283373,-6919987 -283360,-6920028 -283362,-6920060 -283384,-6920046 -283432,-6920010 -283450,-6919999 -283471,-6919996 -283496,-6919999 -283531,-6920010 -283605,-6920040 -283632,-6920054 -283708,-6920092 -283745,-6920112 -283846,-6920156 -283895,-6920172 -284020,-6920219 -284138,-6920270 -284166,-6920283 -284210,-6920312 -284284,-6920342 -284333,-6920357 -284328,-6920398 -284331,-6920439 -284337,-6920475 -284332,-6920520 -284335,-6920556 -284332,-6920592 -284334,-6920638 -284345,-6920683 -284347,-6920705 -284363,-6920730 -284385,-6920800 -284397,-6920845 -284390,-6920874 -284389,-6920882 -284387,-6920916 -284383,-6920923 -284372,-6920936 -284365,-6920943 -284343,-6920963 -284310,-6921001 -284305,-6921011 -284289,-6921059 -284277,-6921092 -284264,-6921144 -284268,-6921154 -284280,-6921175 -284241,-6921205 -284199,-6921240 -284194,-6921242 -284183,-6921243 -284176,-6921243 -284111,-6921220 -284096,-6921220 -284071,-6921228 -284053,-6921238 -284043,-6921244 -284035,-6921250 -284021,-6921263 -283995,-6921296 -283972,-6921332 -283957,-6921361 -283944,-6921379 -283924,-6921398 -283884,-6921419 -283840,-6921439 -283831,-6921448 -283799,-6921507 -283900,-6921635 -283990,-6921754 -284053,-6921831 -284090,-6921877 -284222,-6922048 -284353,-6922217 -284446,-6922333 -284493,-6922390 -284553,-6922434 -284652,-6922498 -284723,-6922548 -284753,-6922574 -284770,-6922580 -284780,-6922587 -284791,-6922594 -284847,-6922639 -284907,-6922677 -285033,-6922762 -285157,-6922858 -285276,-6922947 -285368,-6923030 -285537,-6923174 -285759,-6923359 -285822,-6923414 -285887,-6923468 -285950,-6923510 -286007,-6923546 -286082,-6923595 -286156,-6923641 -286201,-6923670 -286207,-6923666 -286219,-6923667 -286257,-6923694 -286277,-6923714 -286314,-6923734 -286311,-6923745 -286376,-6923776 -286446,-6923816 -286486,-6923829 -286574,-6923862 -286609,-6923892 -286652,-6923946 -286667,-6923982 -286680,-6924036 -286712,-6924010 -286761,-6923984 -286793,-6923976 -286869,-6924047 -286866,-6924080 -286869,-6924113 -286891,-6924160 -286927,-6924166 -286978,-6924183 -287012,-6924195 -287029,-6924200 -287046,-6924204 -287075,-6924207 -287101,-6924227 -287139,-6924279 -287151,-6924283 -287217,-6924301 -287254,-6924323 -287292,-6924333 -287337,-6924370 -287421,-6924419 -287472,-6924407 -287508,-6924403 -287520,-6924427 -287526,-6924436 -287546,-6924456 -287568,-6924476 -287644,-6924530 -287686,-6924556 -287733,-6924608 -287796,-6924672 -287832,-6924663 -287854,-6924669 -287960,-6924789 -287981,-6924784 -288065,-6924743 -288157,-6924712 -288249,-6924840 -288304,-6924912 -288342,-6924948 -288366,-6924987 -288408,-6925035 -288463,-6925092 -288521,-6925167 -288671,-6925313 -288828,-6925464 -288862,-6925460 -288872,-6925481 -288910,-6925585 -288946,-6925676 -288974,-6925741 -289060,-6925965 -289086,-6925943 -289140,-6925895 -289171,-6925861 -289178,-6925856 -289214,-6925849 -289250,-6925838 -289288,-6925832 -289367,-6925805 -289394,-6925797 -289417,-6925791 -289438,-6925786 -289468,-6925780 -289503,-6925776 -289536,-6925760 -289570,-6925751 -289620,-6925747 -289643,-6925744 -289665,-6925740 -289694,-6925733 -289737,-6925725 -289759,-6925725 -289777,-6925728 -289782,-6925731 -289801,-6925742 -289838,-6925783 -289839,-6925792 -289846,-6925801 -289855,-6925810 -289872,-6925827 -289888,-6925833 -289920,-6925854 -289931,-6925868 -289990,-6925909 -290017,-6925934 -290019,-6925947 -290037,-6925962 -290095,-6926012 -290201,-6926092 -290229,-6926107 -290264,-6926141 -290316,-6926168 -290350,-6926189 -290363,-6926195 -290375,-6926223 -290369,-6926282 -290355,-6926361 -290351,-6926396 -290361,-6926428 -290364,-6926440 -290365,-6926462 -290368,-6926476 -290372,-6926490 -290390,-6926534 -290396,-6926553 -290402,-6926571 -290406,-6926592 -290419,-6926619 -290439,-6926654 -290456,-6926688 -290540,-6926742 -290605,-6926794 -290619,-6926804 -290624,-6926824 -290647,-6926844 -290655,-6926853 -290662,-6926862 -290672,-6926885 -290690,-6926899 -290709,-6926928 -290707,-6926946 -290707,-6926966 -290755,-6927022 -290785,-6927048 -290846,-6927109 -290891,-6927146 -290922,-6927169 -290954,-6927193 -291004,-6927211 -291036,-6927225 -291077,-6927251 -291097,-6927263 -291118,-6927274 -291165,-6927295 -291217,-6927330 -291304,-6927383 -291317,-6927391 -291340,-6927400 -291400,-6927390 -291434,-6927377 -291470,-6927359 -291558,-6927350 -291615,-6927342 -291680,-6927329 -291701,-6927360 -291727,-6927383 -291762,-6927406 -291837,-6927450 -291863,-6927469 -291940,-6927519 -291961,-6927571 -291970,-6927589 -291990,-6927647 -292005,-6927688 -292023,-6927783 -292033,-6927826 -292028,-6927888 -292023,-6927980 -292017,-6928032 -292047,-6928078 -292042,-6928203 -292045,-6928253 -292111,-6928307 -292138,-6928325 -292069,-6928358 -292017,-6928377 -291980,-6928382 -291926,-6928394 -291875,-6928411 -291779,-6928456 -291676,-6928498 -291622,-6928512 -291582,-6928520 -291503,-6928526 -291376,-6928526 -291344,-6928524 -291311,-6928522 -291212,-6928498 -291171,-6928495 -290982,-6928503 -290887,-6928518 -290779,-6928548 -290642,-6928565 -290623,-6928581 -290565,-6928645 -290517,-6928695 -290484,-6928724 -290455,-6928742 -290421,-6928762 -290344,-6928790 -290261,-6928833 -290209,-6928857 -290111,-6928908 -290034,-6928943 -290097,-6929089 -289925,-6929251 -289890,-6929248 -289890,-6929257 -289886,-6929279 -289880,-6929295 -289873,-6929333 -289909,-6929418 -289968,-6929438 -289980,-6929471 -289981,-6929485 -289945,-6929542 -289898,-6929591 -289854,-6929652 -289828,-6929727 -289779,-6929795 -289780,-6929852 -289778,-6929862 -289775,-6929869 -289771,-6929877 -289767,-6929882 -289757,-6929890 -289687,-6929957 -289681,-6929964 -289678,-6929970 -289676,-6929977 -289675,-6929983 -289675,-6929993 -289669,-6930067 -289664,-6930082 -289661,-6930088 -289656,-6930094 -289648,-6930102 -289640,-6930107 -289613,-6930119 -289607,-6930122 -289598,-6930129 -289585,-6930148 -289567,-6930185 -289561,-6930195 -289555,-6930203 -289541,-6930217 -289530,-6930222 -289518,-6930227 -289490,-6930233 -289444,-6930250 -289426,-6930264 -289395,-6930284 -289382,-6930289 -289375,-6930290 -289362,-6930289 -289351,-6930284 -289343,-6930276 -289338,-6930270 -289310,-6930248 -289300,-6930242 -289292,-6930239 -289282,-6930237 -289268,-6930238 -289190,-6930256 -289183,-6930259 -289178,-6930263 -289175,-6930267 -289172,-6930272 -289170,-6930279 -289166,-6930300 -289160,-6930311 -289156,-6930317 -289148,-6930322 -289128,-6930328 -289118,-6930331 -289111,-6930334 -289103,-6930339 -289097,-6930344 -289093,-6930349 -289089,-6930356 -289085,-6930367 -289082,-6930380 -289080,-6930390 -289081,-6930398 -289084,-6930416 -289084,-6930424 -289082,-6930433 -289080,-6930441 -289076,-6930448 -289071,-6930454 -289043,-6930482 -289031,-6930502 -289032,-6930526 -289059,-6930524 -289084,-6930511 -289099,-6930509 -289103,-6930520 -289100,-6930598 -289101,-6930647 -289130,-6930789 -289139,-6930816 -289159,-6930858 -289177,-6930882 -289165,-6930908 -289136,-6930960 -289131,-6930993 -289140,-6930994 -289139,-6931007 -289143,-6931051 -289188,-6931056 -289232,-6931065 -289277,-6931069 -289312,-6931073 -289321,-6931081 -289330,-6931094 -289348,-6931111 -289364,-6931120 -289379,-6931127 -289394,-6931134 -289409,-6931139 -289417,-6931151 -289434,-6931193 -289488,-6931237 -289540,-6931274 -289581,-6931287 -289600,-6931298 -289611,-6931301 -289649,-6931315 -289661,-6931310 -289682,-6931285 -289709,-6931288 -289714,-6931272 -289755,-6931238 -289794,-6931219 -289818,-6931213 -289851,-6931211 -289943,-6931216 -289955,-6931229 -289949,-6931270 -290006,-6931282 -290053,-6931307 -290059,-6931308 -290064,-6931308 -290069,-6931306 -290091,-6931292 -290106,-6931286 -290124,-6931288 -290147,-6931303 -290219,-6931335 -290250,-6931373 -290258,-6931379 -290261,-6931379 -290266,-6931379 -290275,-6931377 -290305,-6931355 -290323,-6931344 -290332,-6931339 -290342,-6931336 -290370,-6931334 -290381,-6931327 -290393,-6931317 -290408,-6931318 -290458,-6931291 -290508,-6931282 -290541,-6931265 -290602,-6931267 -290629,-6931278 -290732,-6931271 -290797,-6931275 -290832,-6931272 -290866,-6931269 -290902,-6931258 -290926,-6931286 -291046,-6931213 -291114,-6931180 -291152,-6931218 -291177,-6931246 -291219,-6931293 -291279,-6931380 -291331,-6931447 -291349,-6931489 -291356,-6931502 -291389,-6931538 -291394,-6931555 -291398,-6931577 -291407,-6931584 -291432,-6931603 -291466,-6931637 -291499,-6931680 -291522,-6931714 -291536,-6931717 -291545,-6931716 -291562,-6931709 -291580,-6931689 -291592,-6931663 -291605,-6931644 -291647,-6931613 -291683,-6931596 -291739,-6931579 -291786,-6931562 -291792,-6931535 -291865,-6931531 -291894,-6931496 -291935,-6931440 -291990,-6931415 -292015,-6931391 -292036,-6931353 -292038,-6931345 -292037,-6931344 -292008,-6931329 -292035,-6931292 -292059,-6931288 -292133,-6931281 -292150,-6931288 -292182,-6931316 -292224,-6931355 -292239,-6931363 -292244,-6931375 -292270,-6931415 -292301,-6931454 -292345,-6931481 -292365,-6931516 -292394,-6931554 -292404,-6931585 -292424,-6931628 -292434,-6931658 -292480,-6931646 -292508,-6931637 -292524,-6931687 -292517,-6931728 -292494,-6931795 -292464,-6931886 -292467,-6931914 -292482,-6931974 -292522,-6932093 -292524,-6932144 -292531,-6932237 -292542,-6932263 -292551,-6932267 -292576,-6932275 -292597,-6932297 -292642,-6932365 -292705,-6932440 -292732,-6932471 -292796,-6932523 -292850,-6932553 -292873,-6932567 -292918,-6932601 -292966,-6932619 -292995,-6932623 -293010,-6932622 -293100,-6932613 -293206,-6932604 -293351,-6932588 -293441,-6932573 -293462,-6932583 -293502,-6932596 -293575,-6932613 -293660,-6932650 -293708,-6932650 -293738,-6932671 -293771,-6932688 -293791,-6932711 -293832,-6932710 -293852,-6932714 -293883,-6932711 -293917,-6932728 -293993,-6932751 -294046,-6932764 -294056,-6932770 -294076,-6932783 -294087,-6932791 -294118,-6932830 -294129,-6932844 -294250,-6932938 -294344,-6933006 -294361,-6933035 -294396,-6933071 -294486,-6933082 -294558,-6933095 -294565,-6933097 -294571,-6933102 -294586,-6933107 -294606,-6933116 -294629,-6933119 -294680,-6933138 -294723,-6933149 -294736,-6933148 -294789,-6933161 -294898,-6933194 -294944,-6933204 -294989,-6933214 -295083,-6933232 -295163,-6933240 -295218,-6933276 -295247,-6933291 -295299,-6933300 -295400,-6933314 -295445,-6933331 -295483,-6933331 -295570,-6933315 -295613,-6933317 -295615,-6933326 -295701,-6933320 -295831,-6933315 -295918,-6933341 -295934,-6933362 -295954,-6933401 -295983,-6933514 -296028,-6933501 -296092,-6933496 -296136,-6933509 -296138,-6933512 -296150,-6933545 -296160,-6933587 -296146,-6933672 -296145,-6933688 -296145,-6933703 -296151,-6933750 -296155,-6933792 -296153,-6933823 -296157,-6933840 -296170,-6933860 -296208,-6933932 -296216,-6933976 -296227,-6934015 -296234,-6934052 -296249,-6934073 -296268,-6934104 -296372,-6934189 -296458,-6934239 -296514,-6934293 -296556,-6934343 -296568,-6934367 -296595,-6934490 -296591,-6934596 -296592,-6934612 -296598,-6934629 -296595,-6934643 -296599,-6934656 -296602,-6934681 -296598,-6934735 -296577,-6934831 -296564,-6934909 -296554,-6934947 -296535,-6935021 -296525,-6935057 -296459,-6935108 -296409,-6935143 -296378,-6935207 -296362,-6935247 -296336,-6935262 -296338,-6935285 -296340,-6935301 -296335,-6935317 -296320,-6935331 -296312,-6935342 -296305,-6935353 -296295,-6935377 -296284,-6935393 -296262,-6935403 -296229,-6935438 -296187,-6935456 -296178,-6935483 -296171,-6935497 -296150,-6935529 -296136,-6935546 -296125,-6935573 -296104,-6935593 -296078,-6935631 -296060,-6935644 -296054,-6935654 -296045,-6935674 -296042,-6935684 -296041,-6935698 -296063,-6935761 -296086,-6935748 -296102,-6935742 -296223,-6935744 -296257,-6935757 -296278,-6935768 -296294,-6935769 -296310,-6935766 -296329,-6935760 -296348,-6935753 -296361,-6935745 -296393,-6935746 -296411,-6935743 -296449,-6935768 -296495,-6935785 -296512,-6935807 -296530,-6935830 -296570,-6935905 -296563,-6935939 -296547,-6935953 -296541,-6935991 -296541,-6936026 -296545,-6936033 -296556,-6936045 -296561,-6936050 -296601,-6936062 -296607,-6936058 -296626,-6936084 -296666,-6936105 -296723,-6936137 -296715,-6936207 -296731,-6936251 -296748,-6936317 -296756,-6936324 -296759,-6936349 -296766,-6936383 -296772,-6936398 -296791,-6936435 -296793,-6936461 -296799,-6936478 -296804,-6936501 -296827,-6936558 -296837,-6936605 -296847,-6936642 -296865,-6936697 -296872,-6936734 -296877,-6936748 -296882,-6936771 -296890,-6936798 -296902,-6936854 -296929,-6936924 -296867,-6936979 -296861,-6936986 -296867,-6936998 -296836,-6937026 -296829,-6937023 -296815,-6937038 -296817,-6937046 -296762,-6937118 -296738,-6937164 -296683,-6937141 -296636,-6937109 -296588,-6937027 -296542,-6936960 -296484,-6936882 -296413,-6936941 -296322,-6936993 -296381,-6937122 -296429,-6937202 -296475,-6937272 -296522,-6937357 -296524,-6937385 -296516,-6937417 -296489,-6937480 -296461,-6937537 -296419,-6937597 -296371,-6937652 -296327,-6937704 -296316,-6937724 -296294,-6937753 -296333,-6937830 -296346,-6937870 -296328,-6937903 -296297,-6937954 -296244,-6938037 -296227,-6938067 -296216,-6938071 -296216,-6938081 -296236,-6938099 -296283,-6938122 -296248,-6938200 -296233,-6938231 -296224,-6938259 -296229,-6938269 -296235,-6938274 -296261,-6938293 -296266,-6938299 -296295,-6938327 -296348,-6938370 -296381,-6938406 -296388,-6938436 -296394,-6938478 -296397,-6938497 -296403,-6938516 -296409,-6938536 -296427,-6938570 -296440,-6938608 -296442,-6938624 -296441,-6938692 -296448,-6938708 -296469,-6938752 -296490,-6938808 -296468,-6938820 -296206,-6938972 -296108,-6939039 -296044,-6939077 -296000,-6939121 -295959,-6939133 -295900,-6939154 -295851,-6939105 -295812,-6939045 -295794,-6939021 -295724,-6938965 -295694,-6938993 -295671,-6939033 -295633,-6939080 -295569,-6939142 -295523,-6939173 -295397,-6939240 -295338,-6939266 -295303,-6939273 -295270,-6939289 -294882,-6939445 -294899,-6939496 -294936,-6939620 -294631,-6939795 -294436,-6939908 -294349,-6939959 -294231,-6940030 -294167,-6940009 -294130,-6939985 -294070,-6939956 -294020,-6939933 -293974,-6939844 -293970,-6939826 -293970,-6939763 -293961,-6939705 -293958,-6939690 -293934,-6939670 -293848,-6939622 -293786,-6939598 -293756,-6939603 -293701,-6939616 -293689,-6939616 -293683,-6939618 -293678,-6939620 -293669,-6939626 -293662,-6939635 -293661,-6939638 -293651,-6939675 -293596,-6939652 -293587,-6939642 -293583,-6939635 -293580,-6939629 -293578,-6939620 -293576,-6939609 -293604,-6939531 -293604,-6939527 -293603,-6939519 -293600,-6939512 -293592,-6939506 -293589,-6939504 -293553,-6939496 -293544,-6939491 -293536,-6939485 -293495,-6939450 -293467,-6939376 -293464,-6939339 -293469,-6939280 -293468,-6939274 -293466,-6939267 -293461,-6939259 -293456,-6939253 -293427,-6939231 -293423,-6939225 -293419,-6939217 -293417,-6939212 -293417,-6939207 -293417,-6939195 -293419,-6939184 -293424,-6939174 -293427,-6939169 -293453,-6939144 -293513,-6939101 -293516,-6939087 -293488,-6938987 -293461,-6938934 -293465,-6938900 -293478,-6938878 -293452,-6938820 -293410,-6938761 -293404,-6938715 -293371,-6938673 -293369,-6938667 -293367,-6938661 -293370,-6938587 -293355,-6938548 -293294,-6938582 -293236,-6938604 -293182,-6938612 -293149,-6938620 -293115,-6938628 -293072,-6938645 -293029,-6938651 -293039,-6938684 -293061,-6938725 -293063,-6938740 -293064,-6938754 -293062,-6938784 -293049,-6938814 -293018,-6938845 -292999,-6938858 -292967,-6938892 -292933,-6938937 -292915,-6938959 -292868,-6939015 -292825,-6939057 -292798,-6939076 -292780,-6939101 -292745,-6939137 -292692,-6939186 -292612,-6939262 -292595,-6939355 -292591,-6939419 -292608,-6939496 -292637,-6939557 -292644,-6939579 -292642,-6939601 -292631,-6939614 -292622,-6939639 -292625,-6939698 -292633,-6939729 -292648,-6939770 -292682,-6939822 -292686,-6939841 -292686,-6939852 -292682,-6939868 -292652,-6939933 -292632,-6939981 -292622,-6940007 -292569,-6940136 -292528,-6940241 -292515,-6940273 -292495,-6940317 -292482,-6940337 -292404,-6940406 -292381,-6940439 -292367,-6940457 -292365,-6940470 -292367,-6940486 -292366,-6940497 -292361,-6940534 -292350,-6940580 -292325,-6940629 -292322,-6940641 -292317,-6940665 -292305,-6940705 -292298,-6940746 -292281,-6940835 -292289,-6940897 -292288,-6940911 -292285,-6940922 -292282,-6940932 -292277,-6940942 -292271,-6940951 -292262,-6940962 -292200,-6941010 -292154,-6941040 -292110,-6941077 -291980,-6941174 -291951,-6941202 -291942,-6941219 -291924,-6941286 -291913,-6941313 -291902,-6941341 -291872,-6941409 -291854,-6941448 -291850,-6941464 -291848,-6941515 -291839,-6941567 -291830,-6941630 -291816,-6941665 -291799,-6941701 -291768,-6941767 -291694,-6941755 -291623,-6941738 -291595,-6941729 -291568,-6941697 -291553,-6941667 -291531,-6941629 -291513,-6941608 -291492,-6941591 -291470,-6941575 -291444,-6941562 -291390,-6941536 -291372,-6941533 -291355,-6941533 -291227,-6941526 -291142,-6941519 -291115,-6941523 -291105,-6941526 -291077,-6941536 -291009,-6941573 -290851,-6941674 -290777,-6941716 -290643,-6941793 -290554,-6941837 -290213,-6941988 -290182,-6941997 -290152,-6942006 -290130,-6942010 -290118,-6942011 -290107,-6942010 -290095,-6942008 -290082,-6942005 -289992,-6941965 -289799,-6941882 -289791,-6941878 -289779,-6941874 -289767,-6941873 -289754,-6941877 -289654,-6941930 -289573,-6941967 -289477,-6942013 -289441,-6942036 -289415,-6942058 -289379,-6942077 -289351,-6942089 -289321,-6942115 -289305,-6942122 -289230,-6942118 -289180,-6942112 -289142,-6942093 -289034,-6942036 -288940,-6941997 -288898,-6941985 -288831,-6941947 -288808,-6941934 -288757,-6941900 -288699,-6941883 -288664,-6941870 -288629,-6941857 -288567,-6941827 -288560,-6941892 -288509,-6941948 -288497,-6941984 -288483,-6942017 -288456,-6942063 -288429,-6942067 -288416,-6942063 -288404,-6942056 -288352,-6942061 -288349,-6942097 -288338,-6942157 -288314,-6942218 -288301,-6942277 -288299,-6942307 -288305,-6942328 -288310,-6942337 -288341,-6942379 -288358,-6942398 -288368,-6942428 -288373,-6942448 -288379,-6942456 -288396,-6942477 -288430,-6942506 -288438,-6942514 -288445,-6942522 -288462,-6942551 -288473,-6942578 -288481,-6942592 -288526,-6942638 -288557,-6942667 -288567,-6942682 -288573,-6942688 -288580,-6942694 -288607,-6942710 -288617,-6942723 -288630,-6942756 -288640,-6942792 -288644,-6942839 -288648,-6942856 -288650,-6942862 -288671,-6942905 -288666,-6942923 -288667,-6942940 -288682,-6942991 -288697,-6943006 -288715,-6943019 -288736,-6943041 -288744,-6943065 -288749,-6943106 -288750,-6943123 -288752,-6943131 -288755,-6943138 -288786,-6943169 -288787,-6943178 -288788,-6943192 -288788,-6943197 -288785,-6943203 -288782,-6943209 -288765,-6943229 -288768,-6943262 -288762,-6943287 -288757,-6943322 -288749,-6943344 -288746,-6943358 -288740,-6943428 -288750,-6943455 -288765,-6943512 -288770,-6943544 -288769,-6943554 -288768,-6943564 -288743,-6943631 -288735,-6943654 -288749,-6943690 -288737,-6943740 -288733,-6943778 -288722,-6943831 -288711,-6943860 -288693,-6943916 -288692,-6943940 -288724,-6944028 -288717,-6944072 -288728,-6944142 -288724,-6944161 -288728,-6944267 -288752,-6944346 -288773,-6944397 -288803,-6944436 -288744,-6944533 -288691,-6944581 -288660,-6944690 -288602,-6944903 -288624,-6944967 -288661,-6945092 -288728,-6945304 -288836,-6945384 -288926,-6945450 -288988,-6945497 -289130,-6945623 -289204,-6945693 -289208,-6945714 -289119,-6945697 -288912,-6945651 -288839,-6945680 -288764,-6945709 -288613,-6945770 -288615,-6945780 -288522,-6945816 -288524,-6945843 -288532,-6945859 -288560,-6945893 -288596,-6945947 -288577,-6945962 -288466,-6946001 -288387,-6946013 -288368,-6946078 -288355,-6946192 -288352,-6946204 -288349,-6946214 -288343,-6946225 -288337,-6946236 -288207,-6946391 -288197,-6946388 -288153,-6946447 -288131,-6946466 -288110,-6946484 -288065,-6946504 -288000,-6946530 -287971,-6946548 -287934,-6946587 -287724,-6946854 -287611,-6947010 -287577,-6947053 -287514,-6947124 -287484,-6947118 -287458,-6947119 -287427,-6947124 -287403,-6947142 -287342,-6947198 -287261,-6947194 -287229,-6947191 -287179,-6947179 -287107,-6947152 -287044,-6947122 -287006,-6947110 -286967,-6947111 -286939,-6947119 -286922,-6947108 -286905,-6947089 -286889,-6947085 -286865,-6947087 -286863,-6947087 -286863,-6947130 -286849,-6947202 -286854,-6947225 -286871,-6947267 -286850,-6947272 -286793,-6947273 -286734,-6947270 -286636,-6947255 -286596,-6947250 -286557,-6947246 -286518,-6947246 -286459,-6947215 -286375,-6947182 -286340,-6947165 -286311,-6947148 -286280,-6947135 -286177,-6947087 -286125,-6947071 -286097,-6947056 -286067,-6947045 -286026,-6947021 -286096,-6946985 -286209,-6946919 -286206,-6946883 -286205,-6946866 -286211,-6946833 -286197,-6946774 -286190,-6946733 -286178,-6946718 -286163,-6946659 -286150,-6946641 -286131,-6946627 -286036,-6946578 -286006,-6946549 -285992,-6946530 -285961,-6946495 -285947,-6946476 -285933,-6946461 -285926,-6946457 -285902,-6946447 -285864,-6946450 -285840,-6946426 -285824,-6946403 -285811,-6946361 -285807,-6946354 -285803,-6946348 -285783,-6946326 -285768,-6946295 -285749,-6946278 -285740,-6946228 -285735,-6946216 -285727,-6946204 -285722,-6946189 -285713,-6946174 -285704,-6946146 -285701,-6946135 -285688,-6946118 -285664,-6946093 -285655,-6946073 -285624,-6946035 -285584,-6946034 -285560,-6946030 -285525,-6946023 -285487,-6946002 -285466,-6945987 -285451,-6945988 -285402,-6945983 -285376,-6945996 -285360,-6945994 -285325,-6946004 -285285,-6945999 -285275,-6945992 -285251,-6945973 -285209,-6945952 -285178,-6945941 -285168,-6945936 -285155,-6945921 -285148,-6945918 -285124,-6945911 -285110,-6945911 -285101,-6945925 -285085,-6945940 -285074,-6945942 -285063,-6945943 -285024,-6945931 -285009,-6945934 -284984,-6945938 -284969,-6945937 -284950,-6945947 -284932,-6945936 -284920,-6945933 -284915,-6945935 -284911,-6945938 -284908,-6945957 -284892,-6945979 -284851,-6945998 -284843,-6946017 -284832,-6946030 -284819,-6946058 -284798,-6946093 -284781,-6946127 -284763,-6946136 -284745,-6946149 -284712,-6946148 -284703,-6946152 -284691,-6946169 -284677,-6946186 -284658,-6946196 -284644,-6946230 -284635,-6946230 -284625,-6946227 -284602,-6946204 -284589,-6946200 -284549,-6946201 -284535,-6946203 -284507,-6946211 -284487,-6946224 -284470,-6946225 -284463,-6946227 -284455,-6946231 -284418,-6946251 -284413,-6946297 -284411,-6946361 -284406,-6946416 -284392,-6946429 -284383,-6946441 -284384,-6946458 -284388,-6946461 -284408,-6946472 -284409,-6946485 -284391,-6946512 -284332,-6946565 -284251,-6946615 -284219,-6946622 -284205,-6946628 -284192,-6946628 -284170,-6946594 -284147,-6946588 -284134,-6946566 -284128,-6946567 -284100,-6946570 -284069,-6946555 -284067,-6946541 -284062,-6946531 -284037,-6946514 -284020,-6946518 -284026,-6946504 -284036,-6946491 -284042,-6946475 -284047,-6946450 -284036,-6946435 -284024,-6946428 -284016,-6946426 -284008,-6946424 -283990,-6946439 -283984,-6946422 -283970,-6946400 -283970,-6946394 -283971,-6946393 -283997,-6946392 -283996,-6946378 -283991,-6946361 -283974,-6946341 -283959,-6946347 -283934,-6946361 -283927,-6946331 -283907,-6946324 -283898,-6946336 -283891,-6946358 -283878,-6946338 -283874,-6946321 -283863,-6946316 -283847,-6946318 -283836,-6946312 -283830,-6946314 -283811,-6946333 -283795,-6946310 -283778,-6946306 -283766,-6946307 -283764,-6946305 -283763,-6946303 -283765,-6946297 -283772,-6946283 -283782,-6946264 -283769,-6946250 -283763,-6946250 -283747,-6946254 -283739,-6946249 -283734,-6946229 -283737,-6946208 -283737,-6946200 -283727,-6946187 -283712,-6946174 -283709,-6946164 -283708,-6946137 -283698,-6946132 -283687,-6946135 -283686,-6946136 -283683,-6946152 -283674,-6946150 -283663,-6946142 -283657,-6946123 -283652,-6946098 -283661,-6946097 -283674,-6946093 -283677,-6946092 -283681,-6946087 -283683,-6946083 -283679,-6946059 -283683,-6946049 -283683,-6946043 -283680,-6946036 -283661,-6946019 -283657,-6946015 -283654,-6946011 -283648,-6945996 -283634,-6945984 -283631,-6945978 -283630,-6945974 -283633,-6945940 -283630,-6945921 -283629,-6945893 -283631,-6945875 -283630,-6945868 -283621,-6945851 -283599,-6945827 -283585,-6945810 -283584,-6945807 -283583,-6945797 -283589,-6945744 -283594,-6945723 -283599,-6945716 -283600,-6945713 -283595,-6945693 -283592,-6945668 -283583,-6945644 -283564,-6945609 -283556,-6945604 -283538,-6945596 -283517,-6945596 -283504,-6945599 -283501,-6945601 -283488,-6945614 -283481,-6945617 -283472,-6945612 -283465,-6945605 -283461,-6945602 -283453,-6945598 -283446,-6945597 -283435,-6945600 -283428,-6945600 -283425,-6945600 -283416,-6945595 -283413,-6945588 -283412,-6945571 -283411,-6945569 -283407,-6945567 -283405,-6945567 -283392,-6945577 -283379,-6945582 -283332,-6945589 -283317,-6945584 -283306,-6945564 -283294,-6945556 -283284,-6945551 -283278,-6945552 -283269,-6945554 -283262,-6945558 -283255,-6945566 -283253,-6945568 -283240,-6945572 -283235,-6945572 -283225,-6945571 -283219,-6945569 -283203,-6945559 -283194,-6945551 -283190,-6945545 -283200,-6945530 -283191,-6945509 -283208,-6945483 -283187,-6945463 -283187,-6945442 -283171,-6945423 -283160,-6945420 -283148,-6945417 -283121,-6945391 -283078,-6945360 -283060,-6945364 -283024,-6945335 -283009,-6945320 -282974,-6945264 -282934,-6945193 -282854,-6945061 -282823,-6945017 -282754,-6944951 -282695,-6944955 -282662,-6944960 -282618,-6944955 -282597,-6944963 -282561,-6944964 -282517,-6944977 -282479,-6944996 -282448,-6945045 -282438,-6945071 -282423,-6945093 -282416,-6945102 -282387,-6945125 -282338,-6945148 -282320,-6945136 -282286,-6945149 -282268,-6945148 -282249,-6945147 -282228,-6945121 -282200,-6945105 -282172,-6945092 -282158,-6945073 -282139,-6945076 -282084,-6945031 -282074,-6945013 -282062,-6945005 -282044,-6944961 -282036,-6944934 -282020,-6944907 -282022,-6944877 -282033,-6944852 -282052,-6944823 -282064,-6944795 -282078,-6944782 -282088,-6944730 -282092,-6944688 -282098,-6944677 -282104,-6944667 -282117,-6944650 -282140,-6944666 -282153,-6944670 -282161,-6944648 -282151,-6944603 -282154,-6944593 -282157,-6944582 -282195,-6944540 -282216,-6944550 -282222,-6944548 -282227,-6944545 -282242,-6944521 -282247,-6944514 -282276,-6944506 -282289,-6944500 -282291,-6944473 -282295,-6944468 -282293,-6944440 -282294,-6944412 -282300,-6944396 -282312,-6944386 -282323,-6944382 -282336,-6944370 -282360,-6944356 -282384,-6944330 -282408,-6944328 -282408,-6944321 -282399,-6944310 -282417,-6944271 -282436,-6944249 -282471,-6944231 -282466,-6944223 -282443,-6944210 -282431,-6944173 -282435,-6944165 -282447,-6944149 -282449,-6944132 -282453,-6944118 -282460,-6944112 -282493,-6944103 -282495,-6944101 -282503,-6944087 -282501,-6944075 -282524,-6944028 -282538,-6944026 -282550,-6944031 -282555,-6944025 -282563,-6943957 -282549,-6943930 -282547,-6943891 -282537,-6943886 -282505,-6943890 -282506,-6943871 -282517,-6943820 -282516,-6943810 -282512,-6943798 -282525,-6943780 -282527,-6943746 -282535,-6943740 -282557,-6943725 -282558,-6943707 -282578,-6943703 -282598,-6943702 -282592,-6943669 -282606,-6943590 -282615,-6943567 -282625,-6943546 -282617,-6943536 -282627,-6943526 -282622,-6943512 -282617,-6943483 -282608,-6943465 -282599,-6943447 -282580,-6943423 -282559,-6943387 -282526,-6943391 -282498,-6943379 -282474,-6943347 -282448,-6943363 -282387,-6943455 -282371,-6943464 -282347,-6943492 -282329,-6943499 -282307,-6943499 -282278,-6943513 -282263,-6943506 -282247,-6943494 -282228,-6943497 -282191,-6943486 -282162,-6943492 -282122,-6943588 -282115,-6943597 -282108,-6943606 -282049,-6943643 -282046,-6943644 -282041,-6943645 -282036,-6943644 -282028,-6943641 -282022,-6943635 -282019,-6943631 -282018,-6943626 -282017,-6943621 -282024,-6943574 -282024,-6943564 -282022,-6943556 -282017,-6943543 -282012,-6943537 -282006,-6943533 -281951,-6943515 -281941,-6943505 -281918,-6943461 -281913,-6943458 -281910,-6943457 -281906,-6943456 -281898,-6943458 -281895,-6943460 -281891,-6943464 -281857,-6943486 -281817,-6943526 -281745,-6943558 -281726,-6943575 -281707,-6943592 -281644,-6943685 -281641,-6943689 -281634,-6943694 -281622,-6943699 -281602,-6943703 -281590,-6943703 -281585,-6943704 -281581,-6943706 -281577,-6943710 -281573,-6943716 -281570,-6943725 -281570,-6943732 -281566,-6943752 -281565,-6943762 -281566,-6943772 -281571,-6943821 -281569,-6943828 -281566,-6943834 -281551,-6943848 -281538,-6943862 -281533,-6943868 -281529,-6943882 -281528,-6943906 -281533,-6943925 -281545,-6943952 -281544,-6943957 -281543,-6943962 -281530,-6943974 -281482,-6944004 -281510,-6944038 -281510,-6944052 -281509,-6944059 -281502,-6944073 -281493,-6944083 -281481,-6944092 -281468,-6944097 -281454,-6944099 -281442,-6944097 -281372,-6944080 -281362,-6944083 -281356,-6944087 -281350,-6944092 -281341,-6944103 -281335,-6944115 -281333,-6944127 -281334,-6944138 -281338,-6944148 -281342,-6944154 -281346,-6944159 -281374,-6944180 -281422,-6944198 -281429,-6944200 -281435,-6944203 -281441,-6944208 -281445,-6944213 -281447,-6944221 -281446,-6944231 -281436,-6944264 -281434,-6944270 -281428,-6944278 -281422,-6944283 -281411,-6944286 -281398,-6944286 -281359,-6944274 -281295,-6944245 -281285,-6944244 -281274,-6944246 -281265,-6944251 -281257,-6944259 -281253,-6944269 -281245,-6944309 -281246,-6944318 -281250,-6944328 -281254,-6944334 -281261,-6944340 -281267,-6944344 -281294,-6944352 -281316,-6944365 -281297,-6944405 -281266,-6944484 -281258,-6944554 -281258,-6944655 -281254,-6944669 -281246,-6944698 -281239,-6944720 -281227,-6944747 -281208,-6944781 -281126,-6944904 -281122,-6944909 -281120,-6944914 -281119,-6944919 -281120,-6944925 -281121,-6944931 -281153,-6945043 -281148,-6945165 -281142,-6945185 -281135,-6945200 -281129,-6945210 -281114,-6945227 -281093,-6945245 -281078,-6945256 -281038,-6945276 -281025,-6945291 -281008,-6945338 -280991,-6945393 -280993,-6945464 -280990,-6945473 -280988,-6945476 -280980,-6945482 -280975,-6945484 -280971,-6945484 -280891,-6945475 -280877,-6945472 -280869,-6945472 -280860,-6945476 -280855,-6945480 -280849,-6945486 -280844,-6945494 -280840,-6945503 -280830,-6945533 -280829,-6945538 -280828,-6945552 -280828,-6945559 -280830,-6945568 -280832,-6945573 -280885,-6945649 -280886,-6945653 -280888,-6945660 -280887,-6945666 -280883,-6945673 -280812,-6945733 -280789,-6945743 -280780,-6945753 -280781,-6945769 -280784,-6945778 -280788,-6945787 -280797,-6945803 -280774,-6945846 -280763,-6945863 -280756,-6945882 -280746,-6945895 -280738,-6945900 -280724,-6945890 -280722,-6945890 -280707,-6945898 -280688,-6945893 -280681,-6945896 -280674,-6945899 -280663,-6945911 -280656,-6945911 -280650,-6945911 -280647,-6945902 -280643,-6945893 -280636,-6945857 -280585,-6945803 -280562,-6945788 -280539,-6945761 -280517,-6945727 -280497,-6945686 -280470,-6945643 -280453,-6945631 -280449,-6945616 -280436,-6945603 -280431,-6945589 -280427,-6945571 -280406,-6945541 -280400,-6945521 -280395,-6945498 -280379,-6945483 -280369,-6945452 -280362,-6945442 -280361,-6945425 -280302,-6945328 -280296,-6945323 -280235,-6945310 -280219,-6945316 -280201,-6945326 -280189,-6945329 -280181,-6945327 -280173,-6945324 -280124,-6945287 -280095,-6945270 -280082,-6945270 -280068,-6945290 -280061,-6945297 -280037,-6945302 -280001,-6945313 -279976,-6945319 -279955,-6945342 -279932,-6945370 -279913,-6945387 -279903,-6945423 -279881,-6945435 -279854,-6945462 -279838,-6945470 -279829,-6945481 -279824,-6945497 -279814,-6945549 -279804,-6945555 -279800,-6945563 -279792,-6945588 -279778,-6945607 -279777,-6945621 -279765,-6945639 -279757,-6945656 -279727,-6945678 -279706,-6945697 -279685,-6945712 -279676,-6945721 -279668,-6945730 -279651,-6945756 -279634,-6945790 -279617,-6945800 -279603,-6945814 -279591,-6945804 -279562,-6945811 -279541,-6945796 -279497,-6945789 -279462,-6945786 -279444,-6945797 -279433,-6945793 -279408,-6945794 -279397,-6945780 -279385,-6945767 -279376,-6945750 -279364,-6945720 -279340,-6945707 -279323,-6945701 -279315,-6945688 -279311,-6945678 -279301,-6945666 -279286,-6945646 -279263,-6945630 -279249,-6945593 -279228,-6945587 -279221,-6945580 -279217,-6945577 -279205,-6945571 -279195,-6945561 -279173,-6945541 -279158,-6945512 -279149,-6945503 -279112,-6945487 -279106,-6945485 -279055,-6945486 -278995,-6945486 -278991,-6945486 -278869,-6945480 -278828,-6945479 -278762,-6945488 -278739,-6945488 -278733,-6945485 -278717,-6945470 -278699,-6945473 -278658,-6945463 -278635,-6945463 -278619,-6945468 -278597,-6945495 -278571,-6945519 -278562,-6945533 -278554,-6945548 -278550,-6945552 -278544,-6945557 -278530,-6945565 -278496,-6945576 -278476,-6945603 -278483,-6945618 -278480,-6945688 -278477,-6945718 -278480,-6945744 -278472,-6945851 -278459,-6945877 -278458,-6945900 -278438,-6945957 -278402,-6945952 -278396,-6945959 -278372,-6945992 -278340,-6946010 -278332,-6946034 -278300,-6946073 -278289,-6946076 -278275,-6946095 -278251,-6946103 -278247,-6946121 -278224,-6946131 -278210,-6946155 -278195,-6946160 -278176,-6946164 -278165,-6946165 -278163,-6946180 -278170,-6946183 -278192,-6946190 -278181,-6946231 -278156,-6946244 -278086,-6946267 -278043,-6946286 -277895,-6946337 -277880,-6946350 -277859,-6946360 -277830,-6946366 -277710,-6946416 -277460,-6946506 -277453,-6946521 -277212,-6946502 -277201,-6946629 -277185,-6946920 -277157,-6946921 -277137,-6946928 -277116,-6946936 -277059,-6946967 -277019,-6946971 -276995,-6946991 -276935,-6947008 -276863,-6947026 -276843,-6947034 -276796,-6947054 -276787,-6947050 -276842,-6946913 -276887,-6946813 -276915,-6946745 -276927,-6946696 -276936,-6946644 -276949,-6946586 -276979,-6946535 -277002,-6946502 -277016,-6946480 -277026,-6946468 -277033,-6946436 -277037,-6946400 -277059,-6946304 -277060,-6946257 -277052,-6946231 -277004,-6946166 -276970,-6946134 -276943,-6946115 -276894,-6946087 -276848,-6946065 -276825,-6946058 -276768,-6946055 -276744,-6946052 -276696,-6946055 -276658,-6946073 -276631,-6946079 -276572,-6946082 -276486,-6946089 -276470,-6946091 -276455,-6946094 -276417,-6946105 -276395,-6946120 -276362,-6946148 -276322,-6946172 -276278,-6946204 -276177,-6946244 -276100,-6946286 -276048,-6946313 -276017,-6946325 -275957,-6946346 -275902,-6946370 -275868,-6946278 -275751,-6945974 -275761,-6945960 -275792,-6945927 -275812,-6945896 -275835,-6945858 -275876,-6945787 -275930,-6945696 -275955,-6945617 -276140,-6945070 -276210,-6944854 -276281,-6944640 -276379,-6944329 -276493,-6943989 -276562,-6943843 -276664,-6943646 -276730,-6943533 -276787,-6943460 -276841,-6943397 -276940,-6943321 -276956,-6943313 -276985,-6943305 -276999,-6943296 -277022,-6943286 -277055,-6943255 -277112,-6943184 -277151,-6943130 -277169,-6943132 -277180,-6943128 -277151,-6943060 -277118,-6943012 -277152,-6942954 -277146,-6942947 -277136,-6942944 -277107,-6942944 -277010,-6942942 -276987,-6942938 -276969,-6942933 -276953,-6942926 -276944,-6942921 -276922,-6942895 -276869,-6942866 -276866,-6942862 -276865,-6942857 -276864,-6942854 -276872,-6942820 -276876,-6942809 -276881,-6942799 -276889,-6942787 -276940,-6942747 -277006,-6942692 -277008,-6942689 -277020,-6942617 -277014,-6942598 -276993,-6942577 -276991,-6942560 -276991,-6942540 -276986,-6942519 -276975,-6942510 -276957,-6942501 -276877,-6942468 -276853,-6942460 -276763,-6942460 -276732,-6942456 -276675,-6942453 -276562,-6942479 -276520,-6942482 -276463,-6942499 -276409,-6942512 -276394,-6942519 -276363,-6942534 -276345,-6942550 -276335,-6942561 -276294,-6942618 -276265,-6942638 -276234,-6942669 -276112,-6942779 -276070,-6942810 -276058,-6942814 -276051,-6942815 -276047,-6942814 -276037,-6942810 -275960,-6942759 -275880,-6942699 -275875,-6942697 -275861,-6942694 -275825,-6942695 -275806,-6942689 -275785,-6942669 -275729,-6942623 -275706,-6942602 -275666,-6942584 -275660,-6942584 -275599,-6942627 -275594,-6942628 -275585,-6942629 -275577,-6942628 -275431,-6942571 -275406,-6942555 -275341,-6942497 -275323,-6942488 -275312,-6942485 -275300,-6942483 -275290,-6942483 -275271,-6942484 -275262,-6942487 -275252,-6942490 -275240,-6942496 -275228,-6942503 -275219,-6942510 -275212,-6942518 -275206,-6942529 -275202,-6942540 -275201,-6942552 -275201,-6942563 -275204,-6942573 -275208,-6942583 -275261,-6942642 -275332,-6942715 -275344,-6942731 -275349,-6942741 -275355,-6942760 -275357,-6942773 -275344,-6942858 -275341,-6942865 -275337,-6942868 -275333,-6942871 -275328,-6942873 -275319,-6942874 -275255,-6942887 -275244,-6942892 -275240,-6942897 -275217,-6942938 -275198,-6942973 -275171,-6943042 -275119,-6943133 -275077,-6943188 -275073,-6943191 -275064,-6943196 -275055,-6943197 -274983,-6943196 -274905,-6943174 -274783,-6943119 -274682,-6943078 -274637,-6943081 -274547,-6943112 -274501,-6943137 -274493,-6943142 -274435,-6943181 -274326,-6943219 -274240,-6943231 -274170,-6943228 -274166,-6943226 -274161,-6943223 -274158,-6943220 -274153,-6943211 -274146,-6943181 -274130,-6943166 -274089,-6943150 -274072,-6943136 -274050,-6943122 -273961,-6943112 -273920,-6943130 -273919,-6943130 -273913,-6943124 -273910,-6943117 -273907,-6943108 -273907,-6943085 -273906,-6943080 -273904,-6943072 -273900,-6943064 -273896,-6943057 -273890,-6943050 -273878,-6943040 -273806,-6943014 -273767,-6943005 -273721,-6943001 -273612,-6943022 -273579,-6943034 -273547,-6943054 -273509,-6943084 -273488,-6943104 -273466,-6943124 -273432,-6943161 -273430,-6943165 -273429,-6943171 -273429,-6943177 -273430,-6943183 -273434,-6943188 -273440,-6943192 -273453,-6943198 -273461,-6943200 -273468,-6943198 -273486,-6943195 -273501,-6943199 -273507,-6943208 -273515,-6943263 -273529,-6943343 -273548,-6943403 -273559,-6943445 -273557,-6943459 -273549,-6943477 -273495,-6943564 -273492,-6943572 -273492,-6943577 -273493,-6943588 -273512,-6943628 -273532,-6943676 -273562,-6943766 -273563,-6943812 -273568,-6943819 -273591,-6943826 -273603,-6943832 -273648,-6943884 -273653,-6943899 -273652,-6943923 -273650,-6943964 -273667,-6944011 -273698,-6944157 -273708,-6944211 -273709,-6944216 -273645,-6944256 -273702,-6944339 -273729,-6944382 -273770,-6944433 -273797,-6944466 -273826,-6944489 -273856,-6944504 -273893,-6944518 -273902,-6944520 -273908,-6944519 -273915,-6944516 -273919,-6944514 -273936,-6944499 -273942,-6944497 -273948,-6944494 -273963,-6944493 -274041,-6944530 -274143,-6944600 -274167,-6944626 -274179,-6944641 -274194,-6944663 -274210,-6944691 -274216,-6944706 -274224,-6944727 -274232,-6944753 -274227,-6944794 -274225,-6944830 -274208,-6944911 -274179,-6944972 -274176,-6944983 -274177,-6945002 -274178,-6945009 -274181,-6945018 -274202,-6945054 -274203,-6945062 -274201,-6945070 -274197,-6945076 -274160,-6945109 -274093,-6945099 -274079,-6945145 -274015,-6945157 -274003,-6945163 -273997,-6945168 -273992,-6945175 -273988,-6945185 -273986,-6945194 -273986,-6945203 -273988,-6945215 -274000,-6945247 -273997,-6945255 -273994,-6945258 -273990,-6945260 -273905,-6945275 -273900,-6945279 -273898,-6945281 -273898,-6945286 -273901,-6945291 -273949,-6945319 -273951,-6945321 -273953,-6945326 -273953,-6945332 -273951,-6945337 -273948,-6945341 -273945,-6945343 -273805,-6945392 -273749,-6945445 -273745,-6945453 -273744,-6945458 -273746,-6945463 -273748,-6945468 -273754,-6945474 -273775,-6945498 -273765,-6945504 -273721,-6945512 -273704,-6945521 -273689,-6945535 -273663,-6945571 -273660,-6945575 -273657,-6945582 -273658,-6945589 -273662,-6945594 -273668,-6945597 -273671,-6945597 -273726,-6945581 -273707,-6945612 -273671,-6945655 -273638,-6945712 -273618,-6945764 -273595,-6945818 -273598,-6945820 -273758,-6945949 -274001,-6946119 -274000,-6946181 -273997,-6946247 -274001,-6946274 -273998,-6946364 -273988,-6946542 -273977,-6946800 -274028,-6946780 -274120,-6946939 -274250,-6947182 -274409,-6947454 -274445,-6947499 -274508,-6947604 -274559,-6947690 -274678,-6947949 -274761,-6948117 -274806,-6948214 -274838,-6948395 -274873,-6948580 -274914,-6948825 -274933,-6948908 -274972,-6949136 -274985,-6949226 -274982,-6949297 -274982,-6949372 -274991,-6949417 -274999,-6949452 -275028,-6949553 -275045,-6949634 -275056,-6949651 -275065,-6949661 -275073,-6949668 -275081,-6949674 -275153,-6949714 -275207,-6949750 -275225,-6949764 -275245,-6949783 -275265,-6949809 -275275,-6949824 -275281,-6949835 -275285,-6949844 -275288,-6949854 -275291,-6949868 -275292,-6949882 -275292,-6949890 -275290,-6949902 -275287,-6949910 -275281,-6949919 -275231,-6949984 -275156,-6950068 -275148,-6950077 -275140,-6950084 -275116,-6950096 -275108,-6950098 -275100,-6950098 -275074,-6950097 -275003,-6950086 -274994,-6950088 -274987,-6950094 -274984,-6950097 -274966,-6950136 -274935,-6950197 -274900,-6950262 -274882,-6950297 -274881,-6950314 -274882,-6950326 -274869,-6950332 -274859,-6950332 -274823,-6950320 -274805,-6950311 -274750,-6950298 -274710,-6950291 -274638,-6950272 -274599,-6950266 -274528,-6950249 -274515,-6950241 -274493,-6950217 -274487,-6950211 -274475,-6950204 -274464,-6950197 -274419,-6950185 -274348,-6950172 -274295,-6950158 -274219,-6950140 -274147,-6950127 -274111,-6950122 -274044,-6950124 -273988,-6950130 -273920,-6950134 -273882,-6950139 -273866,-6950140 -273851,-6950141 -273806,-6950141 -273742,-6950137 -273693,-6950127 -273683,-6950126 -273644,-6950124 -273606,-6950124 -273593,-6950123 -273575,-6950120 -273536,-6950113 -273509,-6950107 -273493,-6950103 -273469,-6950094 -273456,-6950091 -273430,-6950086 -273416,-6950084 -273369,-6950086 -273356,-6950087 -273343,-6950090 -273307,-6950102 -273282,-6950109 -273243,-6950116 -273230,-6950117 -273202,-6950116 -273132,-6950110 -273080,-6950104 -273015,-6950094 -272951,-6950092 -272899,-6950092 -272778,-6950097 -272762,-6950097 -272715,-6950094 -272705,-6950094 -272656,-6950093 -272637,-6950091 -272580,-6950090 -272554,-6950093 -272515,-6950104 -272503,-6950106 -272490,-6950106 -272451,-6950105 -272380,-6950093 -272356,-6950100 -272338,-6950105 -272244,-6950086 -272188,-6950080 -272105,-6950064 -271990,-6950040 -271936,-6950015 -271788,-6949962 -271672,-6949914 -271630,-6950057 -271630,-6950090 -271613,-6950147 -271593,-6950209 -271566,-6950272 -271532,-6950343 -271499,-6950419 -271470,-6950563 -271450,-6950556 -271435,-6950542 -271423,-6950536 -271366,-6950509 -271245,-6950446 -271230,-6950437 -271204,-6950464 -271150,-6950533 -271105,-6950596 -271092,-6950603 -271067,-6950619 -271049,-6950626 -271034,-6950661 -271009,-6950715 -270964,-6950796 -270816,-6951044 -270802,-6951071 -270781,-6951097 -270735,-6951139 -270718,-6951136 -270679,-6951162 -270640,-6951188 -270561,-6951246 -270529,-6951274 -270462,-6951296 -270394,-6951298 -270320,-6951310 -270267,-6951317 -270236,-6951315 -270239,-6951287 -270234,-6951273 -270216,-6951255 -270202,-6951235 -270212,-6951215 -270218,-6951206 -270225,-6951198 -270243,-6951183 -270244,-6951153 -270256,-6951151 -270292,-6951149 -270293,-6951148" stroke="#003087" stroke-width="78" /></ns0:svg>    <rect x="20" y="50"  width="250" height="25"  rx="0"  fill="#003087" fill-opacity="0.8" />    <text x="145" y="70" text-anchor="middle" font-family="Frutiger" font-weight="bold" font-size="20" fill="white">Telford and Wrekin</text>    <rect x="35" y="195" width="220" height="160" rx="15" fill="#41B6E6"/>    <g font-family="Frutiger" font-size="15" fill="white">        <g> <text x="45" y="218">Self-harm</text> <text x="245" y="218" text-anchor="end">45</text> </g>        <g> <text x="45" y="243">SEN</text> <text x="245" y="243" text-anchor="end">48</text> </g>        <g> <text x="45" y="268">Difficulties</text> <text x="245" y="268" text-anchor="end">73</text> </g>        <g> <text x="45" y="293">Child Carer</text> <text x="245" y="293" text-anchor="end">4</text> </g>        <g> <text x="45" y="318">Drinkers</text> <text x="245" y="318" text-anchor="end">44</text> </g>        <g> <text x="45" y="343">Safeguarding </text> <text x="245" y="343" text-anchor="end">26</text> </g>    </g></svg>