<?xml version="1.0" standalone="no"?>
<!DOCTYPE svg PUBLIC "-//W3C//DTD SVG 1.1//EN"
"http://www.w3.org/Graphics/SVG/1.1/DTD/svg11.dtd">
<svg height="1800" version="1.1" width="1800" xmlns="http://www.w3.org/2000/svg"><defs><style type="text/css">@font-face {font-family: 'Frutiger';font-style: normal;font-weight: normal;src: local('Frutiger'), url('../fonts/Frutiger.woff') format('woff');}@font-face {font-family: 'Frutiger Bold';font-style: normal;font-weight: normal;src: local('Frutiger Bold'), url('../fonts/Frutiger_bold.woff') format('woff');}        </style>    </defs>    <rect x="20" y="20"  width="250" height="350" rx="15" fill="#009639" />    <rect x="35" y="35"  width="220" height="145" rx="15" fill="#E8EDEE" /><ns0:svg xmlns:ns0="http://www.w3.org/2000/svg" height="115" version="1.1" viewBox="-55398 -6923149 53979 30990" width="220" x="35" y="50"><ns0:polygon fill="#006747" points=" -6459,-6922939 -5767,-6922500 -5679,-6922431 -5650,-6922416 -5560,-6922371 -5505,-6922337 -5449,-6922296 -5406,-6922259 -5362,-6922225 -5320,-6922204 -5247,-6922170 -5183,-6922133 -5001,-6922039 -4836,-6921946 -4769,-6921904 -4667,-6921830 -4621,-6921784 -4561,-6921712 -4508,-6921674 -4487,-6921663 -4465,-6921653 -4396,-6921631 -4288,-6921588 -4136,-6921535 -4084,-6921522 -3976,-6921487 -3906,-6921467 -3661,-6921386 -3618,-6921370 -3573,-6921337 -3547,-6921132 -3516,-6920916 -3487,-6920666 -3481,-6920634 -3482,-6920579 -3452,-6920320 -3436,-6920202 -3372,-6919695 -3285,-6919046 -3252,-6918794 -3230,-6918662 -3183,-6918299 -3131,-6917878 -3102,-6917633 -3091,-6917565 -3079,-6917488 -3056,-6917347 -3042,-6917245 -3030,-6917164 -3013,-6917036 -2994,-6916905 -2987,-6916845 -2972,-6916755 -2954,-6916603 -2949,-6916555 -2928,-6916436 -2923,-6916383 -2906,-6916261 -2895,-6916173 -2886,-6916117 -2859,-6915881 -2851,-6915833 -2839,-6915736 -2823,-6915585 -2816,-6915540 -2808,-6915445 -2804,-6915409 -2800,-6915373 -2788,-6915283 -2779,-6915242 -2758,-6915100 -2742,-6915006 -2734,-6914947 -2724,-6914895 -2722,-6914878 -2711,-6914790 -2669,-6914550 -2659,-6914484 -2639,-6914366 -2618,-6914216 -2608,-6914165 -2578,-6913972 -2533,-6913677 -2388,-6912766 -2290,-6912149 -2206,-6911600 -2163,-6911319 -2056,-6910623 -1968,-6910056 -1808,-6909053 -1802,-6909038 -1744,-6908931 -1516,-6908497 -1507,-6908483 -1495,-6908475 -1464,-6908412 -1442,-6908351 -1440,-6908332 -1429,-6908312 -1419,-6908294 -1555,-6908257 -1699,-6908221 -1850,-6908181 -2150,-6908110 -2263,-6908082 -2337,-6908059 -2402,-6908038 -2436,-6908026 -2467,-6908014 -2499,-6908001 -2541,-6907982 -2584,-6907962 -2635,-6907937 -2651,-6907932 -2715,-6907926 -2780,-6907912 -2958,-6907890 -2990,-6907883 -3149,-6907845 -3289,-6907806 -3392,-6907779 -3539,-6907747 -3647,-6907716 -3930,-6907646 -4122,-6907596 -4592,-6907481 -4734,-6907444 -4799,-6907424 -5070,-6907357 -5659,-6907207 -5744,-6907185 -5893,-6907144 -6347,-6907026 -6901,-6906886 -7116,-6906830 -7316,-6906779 -7382,-6906762 -7553,-6906715 -7671,-6906682 -8605,-6906445 -8682,-6906425 -8942,-6906360 -9104,-6906322 -9140,-6906305 -9172,-6906284 -9205,-6906266 -9251,-6906222 -9264,-6906212 -9278,-6906202 -9283,-6906200 -9333,-6906174 -9340,-6906172 -9349,-6906170 -9366,-6906168 -9405,-6906174 -9483,-6906200 -9508,-6906208 -9519,-6906212 -9539,-6906214 -9557,-6906215 -9575,-6906214 -9594,-6906211 -9610,-6906208 -9667,-6906191 -9745,-6906170 -9808,-6906150 -9874,-6906129 -9888,-6906122 -10092,-6906063 -10155,-6906048 -10244,-6906024 -10299,-6906011 -10459,-6905967 -10557,-6905944 -10720,-6905900 -11166,-6905787 -11300,-6905750 -11726,-6905642 -12075,-6905550 -12251,-6905506 -12432,-6905458 -12653,-6905401 -12870,-6905341 -12921,-6905323 -13038,-6905273 -13068,-6905265 -13281,-6905241 -13331,-6905228 -13353,-6905219 -13397,-6905202 -13442,-6905177 -13470,-6905161 -13520,-6905140 -13552,-6905130 -13584,-6905124 -13634,-6905116 -13686,-6905113 -13717,-6905107 -13749,-6905101 -13847,-6905075 -13915,-6905059 -14154,-6904995 -14300,-6904951 -14730,-6904839 -14903,-6904790 -15140,-6904725 -15505,-6904622 -15618,-6904587 -15730,-6904555 -16000,-6904481 -16203,-6904423 -16683,-6904292 -16895,-6904232 -17069,-6904185 -17205,-6904145 -17477,-6904069 -17527,-6904055 -18109,-6903889 -18182,-6903869 -18401,-6903801 -18429,-6903789 -18446,-6903783 -18467,-6903777 -18480,-6903774 -18514,-6903767 -18549,-6903763 -18584,-6903762 -18755,-6903766 -19035,-6903780 -19591,-6903810 -19629,-6903816 -19636,-6903816 -19646,-6903817 -19679,-6903818 -19699,-6903817 -19720,-6903815 -19753,-6903809 -19926,-6903768 -20233,-6903703 -20488,-6903647 -20814,-6903578 -20798,-6903546 -20789,-6903536 -20773,-6903525 -20670,-6903480 -20608,-6903457 -20562,-6903438 -20526,-6903428 -20477,-6903373 -20419,-6903314 -20349,-6903309 -20287,-6903268 -20248,-6903246 -20226,-6903211 -20294,-6903202 -20364,-6903192 -20480,-6903168 -20693,-6903122 -21037,-6903041 -21137,-6903017 -21099,-6902837 -21081,-6902696 -21078,-6902659 -21075,-6902632 -21066,-6902582 -21060,-6902558 -21053,-6902538 -21047,-6902523 -21033,-6902491 -20980,-6902366 -20976,-6902357 -20939,-6902266 -20887,-6902103 -20924,-6902081 -20985,-6901999 -21115,-6901825 -21270,-6901607 -21444,-6901378 -21545,-6901241 -21599,-6901173 -21713,-6901005 -21748,-6900941 -21823,-6900786 -21990,-6900412 -22027,-6900337 -21998,-6900324 -21967,-6900313 -21926,-6900300 -21888,-6900290 -21848,-6900284 -21806,-6900281 -21690,-6900273 -21521,-6900272 -21455,-6900273 -21390,-6900272 -21351,-6900268 -21321,-6900264 -21265,-6900252 -21247,-6900185 -21212,-6900005 -21221,-6899864 -21223,-6899796 -21219,-6899762 -21179,-6899722 -21125,-6899664 -21091,-6899632 -21065,-6899611 -21016,-6899574 -20981,-6899551 -20953,-6899538 -20925,-6899527 -20873,-6899476 -20858,-6899462 -20810,-6899425 -20762,-6899391 -20736,-6899369 -20718,-6899351 -20703,-6899334 -20692,-6899319 -20683,-6899306 -20675,-6899291 -20668,-6899276 -20663,-6899263 -20660,-6899242 -20660,-6899225 -20661,-6899211 -20664,-6899198 -20672,-6899172 -20681,-6899154 -20685,-6899148 -20750,-6899056 -20754,-6899034 -20754,-6898955 -20758,-6898916 -20762,-6898898 -20766,-6898881 -20775,-6898855 -20786,-6898835 -20796,-6898819 -20865,-6898743 -20911,-6898700 -20982,-6898738 -21373,-6898986 -21443,-6899032 -21454,-6899025 -21502,-6899062 -21531,-6899086 -21629,-6899140 -21691,-6899183 -21772,-6899241 -21785,-6899249 -21796,-6899253 -21806,-6899257 -21818,-6899259 -21830,-6899261 -21842,-6899261 -21952,-6899256 -22060,-6899263 -22069,-6899267 -22132,-6899265 -22214,-6899275 -22258,-6899291 -22276,-6899299 -22290,-6899306 -22308,-6899314 -22335,-6899305 -22333,-6899274 -22334,-6899257 -22336,-6899235 -22339,-6899219 -22349,-6899183 -22355,-6899167 -22365,-6899146 -22430,-6899016 -22503,-6898882 -22513,-6898868 -22523,-6898857 -22535,-6898848 -22549,-6898837 -22562,-6898830 -22570,-6898827 -22579,-6898824 -22587,-6898822 -22594,-6898822 -22610,-6898823 -22626,-6898827 -22640,-6898834 -22755,-6898881 -22782,-6898887 -22802,-6898890 -22821,-6898890 -22837,-6898890 -22844,-6898889 -22932,-6898865 -23191,-6898788 -23212,-6898784 -23230,-6898782 -23255,-6898783 -23355,-6898802 -23440,-6898801 -23544,-6898793 -23577,-6898791 -23594,-6898789 -23639,-6898780 -23679,-6898768 -23710,-6898755 -23728,-6898747 -23838,-6898687 -23865,-6898668 -23900,-6898640 -23970,-6898576 -24017,-6898528 -24034,-6898508 -24065,-6898469 -24097,-6898422 -24108,-6898401 -24137,-6898331 -24154,-6898277 -24154,-6898256 -24177,-6898177 -24190,-6898143 -24204,-6898098 -24218,-6898044 -24230,-6897979 -24253,-6897997 -24327,-6898124 -24405,-6898262 -24453,-6898341 -24430,-6898413 -24540,-6898452 -24587,-6898467 -24827,-6898544 -24795,-6898740 -24837,-6898806 -24865,-6898806 -24900,-6898812 -24948,-6898821 -25033,-6898846 -25111,-6898865 -25238,-6898866 -25334,-6898870 -25388,-6898876 -25453,-6898884 -25456,-6899030 -25814,-6899032 -26141,-6899030 -26166,-6898982 -26189,-6898937 -26218,-6898880 -26221,-6898836 -26222,-6898806 -26203,-6898731 -26189,-6898691 -26180,-6898657 -26166,-6898609 -26161,-6898579 -26157,-6898567 -26159,-6898473 -26161,-6898395 -26160,-6898351 -26159,-6898305 -26177,-6898252 -26206,-6898167 -26217,-6898146 -26229,-6898132 -26230,-6898132 -26257,-6898108 -26261,-6898106 -26306,-6898065 -26323,-6898051 -26341,-6898038 -26344,-6898036 -26238,-6897869 -26220,-6897851 -26185,-6897834 -26130,-6897799 -26169,-6897731 -26089,-6897685 -26180,-6897629 -26125,-6897586 -25854,-6897386 -25795,-6897348 -25857,-6897273 -25857,-6897272 -25945,-6897153 -26017,-6897054 -26085,-6896985 -26183,-6896885 -26267,-6896799 -26353,-6896686 -26413,-6896608 -26461,-6896534 -26466,-6896526 -26474,-6896514 -26480,-6896502 -26487,-6896489 -26493,-6896474 -26505,-6896439 -26507,-6896433 -26511,-6896421 -26515,-6896408 -26518,-6896396 -26519,-6896390 -26522,-6896377 -26523,-6896364 -26565,-6896366 -26664,-6896386 -26699,-6896392 -26769,-6896400 -26768,-6896470 -26831,-6896471 -26846,-6896476 -26988,-6896473 -27013,-6896469 -27058,-6896463 -27050,-6896396 -27034,-6896273 -27042,-6896265 -27031,-6896239 -27021,-6896134 -27017,-6896086 -27012,-6895948 -27005,-6895760 -26989,-6895563 -27073,-6895513 -27065,-6895488 -27119,-6895433 -27166,-6895369 -27166,-6895369 -27248,-6895248 -27464,-6895389 -27678,-6895306 -28154,-6895117 -28200,-6895091 -28293,-6895029 -28484,-6894900 -28586,-6895176 -29299,-6895051 -29679,-6894939 -29977,-6894850 -29981,-6894769 -29994,-6894771 -30091,-6894784 -30101,-6894628 -30110,-6894448 -30233,-6894467 -30506,-6894510 -30540,-6894170 -30168,-6894111 -30180,-6894038 -30246,-6894048 -30254,-6894009 -30254,-6893996 -30284,-6893980 -30284,-6893970 -30335,-6893919 -30274,-6893844 -30209,-6893891 -30148,-6893896 -30167,-6893810 -30191,-6893744 -30253,-6893614 -30338,-6893457 -30383,-6893390 -30385,-6893379 -30392,-6893373 -30400,-6893371 -30477,-6893279 -30512,-6893238 -30522,-6893232 -30525,-6893230 -30528,-6893229 -30531,-6893228 -30535,-6893228 -30536,-6893228 -30540,-6893228 -30543,-6893229 -30546,-6893229 -30549,-6893231 -30560,-6893204 -30554,-6893199 -30561,-6893177 -30670,-6893068 -30765,-6892989 -30891,-6892898 -30987,-6892840 -31055,-6892798 -31126,-6892741 -31164,-6892704 -31207,-6892638 -31298,-6892517 -31339,-6892462 -31396,-6892392 -31431,-6892354 -31439,-6892347 -31511,-6892282 -31603,-6892211 -31685,-6892159 -31759,-6892282 -31810,-6892241 -32038,-6892642 -32209,-6892543 -32648,-6892301 -32659,-6892550 -32667,-6892677 -32676,-6892807 -32696,-6892945 -32714,-6893056 -32740,-6893168 -32758,-6893231 -32799,-6893334 -32839,-6893419 -32879,-6893495 -32923,-6893573 -32983,-6893660 -33022,-6893703 -33148,-6893869 -33249,-6893999 -33416,-6894224 -33529,-6894379 -33590,-6894466 -33596,-6894468 -33602,-6894471 -33603,-6894471 -33609,-6894474 -33615,-6894477 -33657,-6894539 -33758,-6894679 -33853,-6894813 -33897,-6894881 -33947,-6894951 -33964,-6894968 -34006,-6895036 -34020,-6895059 -34052,-6895127 -34112,-6895211 -34186,-6895322 -34273,-6895456 -34411,-6895664 -34528,-6895842 -34695,-6896097 -34774,-6896213 -34893,-6896387 -35001,-6896549 -35054,-6896638 -35122,-6896752 -35178,-6896846 -35246,-6896970 -35284,-6897046 -35294,-6897076 -35294,-6897078 -35306,-6897085 -35312,-6897097 -35347,-6897153 -35354,-6897165 -35360,-6897182 -35362,-6897199 -35361,-6897220 -35356,-6897238 -35367,-6897251 -35377,-6897266 -35376,-6897268 -35375,-6897277 -35375,-6897286 -35375,-6897295 -35376,-6897303 -35377,-6897309 -35378,-6897317 -35379,-6897323 -35379,-6897325 -35381,-6897330 -35383,-6897337 -35386,-6897343 -35389,-6897350 -35393,-6897356 -35397,-6897361 -35401,-6897367 -35402,-6897368 -35406,-6897372 -35410,-6897376 -35415,-6897380 -35419,-6897383 -35424,-6897386 -35428,-6897388 -35434,-6897391 -35440,-6897393 -35447,-6897394 -35453,-6897395 -35454,-6897395 -35461,-6897395 -35469,-6897395 -35476,-6897394 -35484,-6897394 -35490,-6897395 -35497,-6897395 -35503,-6897397 -35509,-6897399 -35515,-6897401 -35520,-6897403 -35526,-6897406 -35531,-6897409 -35536,-6897413 -35541,-6897417 -35546,-6897422 -35550,-6897427 -35628,-6897518 -35642,-6897512 -35698,-6897588 -35757,-6897677 -35919,-6897922 -36023,-6898087 -36152,-6898282 -36339,-6898549 -36423,-6898667 -36524,-6898815 -36598,-6898921 -36673,-6899030 -36765,-6899157 -36824,-6899242 -36882,-6899321 -36951,-6899426 -37039,-6899557 -36974,-6899594 -36928,-6899617 -36871,-6899633 -36638,-6899750 -36637,-6899766 -36568,-6899802 -36450,-6899879 -36419,-6899890 -36332,-6899917 -36333,-6899918 -36281,-6899942 -36308,-6899993 -36372,-6900122 -36371,-6900202 -36365,-6900335 -36248,-6900379 -36190,-6900403 -36031,-6900467 -36229,-6900718 -36260,-6900702 -36273,-6900709 -36339,-6900655 -36384,-6900619 -36405,-6900673 -36428,-6900723 -36486,-6900693 -36563,-6900681 -36616,-6900678 -36634,-6900676 -36697,-6900663 -36717,-6900660 -36754,-6900656 -36793,-6900650 -36884,-6900643 -36954,-6900628 -36982,-6900628 -36998,-6900629 -37028,-6900634 -37042,-6900637 -37077,-6900650 -37119,-6900671 -37174,-6900701 -37182,-6900720 -37188,-6900728 -37205,-6900744 -37214,-6900753 -37237,-6900771 -37258,-6900783 -37298,-6900793 -37329,-6900812 -37370,-6900829 -37402,-6900849 -37421,-6900854 -37497,-6900858 -37532,-6900851 -37549,-6900857 -37565,-6900873 -37594,-6900912 -37622,-6900945 -37639,-6900965 -37664,-6900992 -37690,-6901009 -37723,-6901037 -37775,-6901079 -37798,-6901100 -37883,-6901180 -37898,-6901197 -37907,-6901208 -37918,-6901224 -37927,-6901239 -37933,-6901253 -37937,-6901266 -37939,-6901277 -37939,-6901294 -37937,-6901309 -37928,-6901334 -37920,-6901368 -37916,-6901476 -37917,-6901488 -37918,-6901501 -37922,-6901517 -37926,-6901537 -37935,-6901567 -37956,-6901612 -37965,-6901633 -37977,-6901657 -37990,-6901679 -38002,-6901695 -38025,-6901720 -38064,-6901767 -38145,-6901874 -38208,-6901979 -38218,-6902000 -38229,-6902027 -38256,-6902104 -38261,-6902116 -38278,-6902154 -38288,-6902168 -38292,-6902173 -38306,-6902182 -38332,-6902195 -38339,-6902198 -38383,-6902213 -38388,-6902215 -38398,-6902222 -38412,-6902232 -38423,-6902240 -38428,-6902246 -38432,-6902252 -38435,-6902265 -38439,-6902313 -38440,-6902326 -38452,-6902369 -38461,-6902395 -38470,-6902420 -38487,-6902459 -38510,-6902506 -38523,-6902528 -38540,-6902550 -38557,-6902568 -38577,-6902588 -38596,-6902605 -38614,-6902619 -38627,-6902627 -38683,-6902660 -38712,-6902689 -38719,-6902697 -38732,-6902733 -38753,-6902787 -38766,-6902802 -38772,-6902808 -38780,-6902814 -38792,-6902821 -38804,-6902825 -38853,-6902839 -38868,-6902842 -38890,-6902845 -38919,-6902847 -38948,-6902847 -38967,-6902845 -38977,-6902845 -39000,-6902844 -39171,-6902860 -39205,-6902861 -39255,-6902861 -39280,-6902862 -39306,-6902864 -39353,-6902869 -39401,-6902879 -39463,-6902896 -39512,-6902914 -39520,-6902916 -39552,-6902919 -39636,-6902919 -39676,-6902934 -39703,-6902938 -39722,-6902936 -39769,-6902918 -39792,-6902909 -39812,-6902904 -39837,-6902901 -39867,-6902903 -39931,-6902903 -39943,-6902899 -39955,-6902895 -39976,-6902884 -40024,-6902850 -40048,-6902836 -40066,-6902828 -40088,-6902822 -40097,-6902822 -40107,-6902822 -40129,-6902825 -40151,-6902826 -40165,-6902824 -40192,-6902819 -40204,-6902816 -40215,-6902810 -40225,-6902804 -40241,-6902790 -40268,-6902746 -40299,-6902701 -40307,-6902690 -40327,-6902667 -40375,-6902640 -40399,-6902630 -40407,-6902629 -40435,-6902627 -40461,-6902629 -40486,-6902629 -40540,-6902621 -40559,-6902619 -40577,-6902618 -40612,-6902618 -40620,-6902616 -40644,-6902609 -40670,-6902596 -40681,-6902592 -40721,-6902579 -40745,-6902577 -40769,-6902572 -40814,-6902565 -40832,-6902559 -40859,-6902552 -40878,-6902529 -40896,-6902527 -40995,-6902553 -41028,-6902558 -41059,-6902565 -41094,-6902570 -41109,-6902573 -41123,-6902577 -41148,-6902587 -41165,-6902604 -41189,-6902643 -41240,-6902741 -41267,-6902771 -41277,-6902781 -41290,-6902789 -41335,-6902814 -41354,-6902823 -41374,-6902830 -41446,-6902849 -41473,-6902859 -41493,-6902877 -41505,-6902895 -41511,-6902918 -41513,-6902952 -41508,-6903051 -41508,-6903072 -41508,-6903092 -41511,-6903127 -41520,-6903157 -41536,-6903178 -41564,-6903191 -41597,-6903194 -41657,-6903179 -41695,-6903171 -41713,-6903168 -41749,-6903169 -41789,-6903165 -41827,-6903171 -41860,-6903183 -41911,-6903202 -41970,-6903227 -42135,-6903313 -42204,-6903339 -42241,-6903341 -42277,-6903329 -42304,-6903296 -42334,-6903306 -42365,-6903317 -42361,-6903365 -42364,-6903376 -42367,-6903381 -42382,-6903391 -42402,-6903411 -42412,-6903417 -42419,-6903421 -42430,-6903425 -42445,-6903428 -42457,-6903429 -42469,-6903429 -42478,-6903428 -42488,-6903424 -42499,-6903419 -42509,-6903412 -42523,-6903400 -42539,-6903381 -42547,-6903372 -42560,-6903360 -42569,-6903353 -42575,-6903349 -42581,-6903346 -42594,-6903343 -42602,-6903343 -42612,-6903344 -42620,-6903346 -42735,-6903390 -42747,-6903285 -42797,-6903300 -42853,-6903321 -42877,-6903325 -42891,-6903329 -42908,-6903337 -42928,-6903353 -42972,-6903395 -42993,-6903417 -43030,-6903462 -43041,-6903473 -43057,-6903489 -43098,-6903525 -43189,-6903597 -43202,-6903609 -43217,-6903624 -43233,-6903643 -43247,-6903660 -43256,-6903674 -43261,-6903685 -43267,-6903698 -43271,-6903712 -43273,-6903726 -43274,-6903737 -43272,-6903769 -43295,-6903923 -43301,-6903953 -43306,-6903968 -43313,-6903986 -43323,-6904007 -43330,-6904020 -43351,-6904052 -43358,-6904067 -43366,-6904095 -43368,-6904111 -43369,-6904140 -43367,-6904153 -43356,-6904196 -43355,-6904203 -43353,-6904220 -43353,-6904254 -43327,-6904268 -43295,-6904363 -43300,-6904388 -43320,-6904386 -43338,-6904386 -43334,-6904440 -43334,-6904456 -43332,-6904469 -43329,-6904483 -43324,-6904500 -43319,-6904512 -43312,-6904525 -43293,-6904552 -43284,-6904563 -43264,-6904583 -43181,-6904650 -43157,-6904670 -43164,-6904740 -43171,-6904767 -43175,-6904779 -43183,-6904796 -43193,-6904814 -43222,-6904853 -43251,-6904888 -43265,-6904903 -43300,-6904936 -43312,-6904949 -43334,-6904976 -43346,-6904994 -43352,-6905008 -43359,-6905029 -43364,-6905051 -43367,-6905062 -43384,-6905162 -43389,-6905186 -43394,-6905205 -43401,-6905223 -43410,-6905239 -43425,-6905264 -43490,-6905336 -43509,-6905347 -43522,-6905357 -43533,-6905367 -43551,-6905387 -43567,-6905413 -43573,-6905426 -43582,-6905452 -43584,-6905464 -43585,-6905502 -43594,-6905550 -43699,-6905749 -43713,-6905779 -43733,-6905816 -43751,-6905843 -43821,-6905926 -43901,-6906016 -43963,-6906068 -43987,-6906087 -44076,-6906169 -44128,-6906204 -44164,-6906226 -44175,-6906233 -44312,-6906276 -44344,-6906284 -44365,-6906286 -44381,-6906287 -44412,-6906285 -44462,-6906276 -44564,-6906254 -44622,-6906247 -44649,-6906245 -44677,-6906243 -44720,-6906244 -44809,-6906254 -44838,-6906259 -44907,-6906272 -44927,-6906274 -44958,-6906276 -45023,-6906269 -45087,-6906260 -45194,-6906254 -45220,-6906251 -45281,-6906241 -45309,-6906235 -45363,-6906221 -45444,-6906197 -45516,-6906170 -45611,-6906130 -45662,-6906108 -45766,-6906058 -45814,-6906034 -45962,-6905953 -45992,-6905934 -46021,-6905913 -46050,-6905884 -46107,-6905822 -46125,-6905800 -46138,-6905783 -46158,-6905749 -46164,-6905736 -46169,-6905720 -46169,-6905614 -46169,-6905583 -46171,-6905569 -46174,-6905559 -46178,-6905551 -46182,-6905545 -46187,-6905540 -46208,-6905520 -46214,-6905513 -46221,-6905501 -46227,-6905488 -46233,-6905474 -46240,-6905453 -46424,-6905560 -46493,-6905602 -46551,-6905635 -46586,-6905673 -46598,-6905690 -46609,-6905706 -46620,-6905736 -46644,-6905770 -46696,-6905852 -46752,-6905932 -46774,-6905941 -46901,-6905960 -47137,-6905977 -47244,-6905973 -47269,-6905957 -47285,-6906030 -47313,-6906126 -47396,-6906100 -47461,-6906068 -47494,-6906053 -47510,-6906046 -47542,-6906035 -47681,-6906003 -47763,-6905989 -47768,-6905999 -47990,-6905940 -48067,-6905917 -48145,-6905895 -48190,-6905879 -48235,-6905864 -48323,-6905827 -48400,-6905797 -48467,-6905776 -48543,-6905758 -48609,-6905740 -48770,-6905700 -48834,-6905695 -49136,-6905624 -49165,-6905613 -49169,-6905612 -49284,-6905581 -49469,-6905526 -49570,-6905502 -49759,-6905452 -49803,-6905451 -49836,-6905443 -49963,-6905402 -50063,-6905376 -50149,-6905351 -50236,-6905325 -50304,-6905305 -50898,-6905123 -50914,-6905118 -50945,-6905111 -50956,-6905109 -51094,-6905059 -51114,-6905051 -51151,-6905034 -51177,-6905023 -51260,-6904980 -51278,-6904971 -51318,-6904955 -51339,-6904950 -51414,-6904938 -51553,-6904918 -51603,-6904907 -51631,-6904900 -51670,-6904887 -51779,-6904848 -51853,-6904822 -51883,-6904816 -51905,-6904812 -51970,-6904805 -51974,-6904804 -52035,-6904793 -52136,-6904770 -52198,-6904754 -52264,-6904736 -52447,-6904699 -52506,-6904690 -52660,-6904676 -52770,-6904668 -52919,-6904652 -52989,-6904633 -53128,-6904584 -53203,-6904554 -53273,-6904532 -53301,-6904519 -53324,-6904565 -53412,-6904686 -53453,-6904738 -53476,-6904829 -53499,-6904888 -53505,-6904901 -53512,-6904913 -53516,-6904920 -53531,-6904937 -53580,-6904988 -53595,-6905007 -53537,-6905100 -53515,-6905126 -53433,-6905167 -53384,-6905189 -53303,-6905214 -53397,-6905267 -53522,-6905346 -53700,-6905466 -53785,-6905526 -54026,-6905680 -54166,-6905714 -54369,-6905758 -54482,-6905785 -54554,-6905815 -54633,-6905852 -54664,-6905869 -54676,-6905875 -54678,-6905876 -54686,-6905881 -54721,-6905906 -54738,-6905920 -54758,-6905937 -54777,-6905955 -54809,-6905990 -54843,-6906032 -54871,-6906070 -54885,-6906095 -54903,-6906133 -54958,-6906213 -55264,-6906717 -55350,-6906857 -55398,-6906939 -55285,-6907063 -55165,-6907197 -55147,-6907214 -55134,-6907225 -55107,-6907245 -55077,-6907261 -55052,-6907272 -55053,-6907292 -55052,-6907301 -55050,-6907314 -55046,-6907326 -55041,-6907338 -55031,-6907384 -55029,-6907398 -55025,-6907434 -55019,-6907447 -55014,-6907455 -55008,-6907461 -55001,-6907467 -54993,-6907472 -54985,-6907476 -54964,-6907481 -54947,-6907487 -54912,-6907503 -54886,-6907517 -54856,-6907536 -54842,-6907543 -54829,-6907546 -54822,-6907547 -54803,-6907547 -54794,-6907545 -54776,-6907539 -54741,-6907536 -54725,-6907538 -54705,-6907544 -54686,-6907554 -54677,-6907560 -54664,-6907572 -54625,-6907614 -54616,-6907634 -54599,-6907684 -54594,-6907702 -54578,-6907780 -54574,-6907809 -54568,-6907827 -54562,-6907843 -54555,-6907859 -54550,-6907918 -54549,-6907947 -54550,-6908002 -54554,-6908019 -54556,-6908035 -54557,-6908056 -54556,-6908076 -54552,-6908093 -54548,-6908109 -54541,-6908126 -54529,-6908149 -54509,-6908197 -54494,-6908234 -54473,-6908292 -54448,-6908400 -54444,-6908418 -54436,-6908451 -54431,-6908485 -54429,-6908517 -54429,-6908573 -54424,-6908634 -54419,-6908668 -54412,-6908706 -54406,-6908735 -54393,-6908782 -54353,-6908865 -54323,-6908862 -54213,-6908994 -54103,-6909112 -54095,-6909124 -54091,-6909132 -54087,-6909141 -54084,-6909152 -54082,-6909166 -54083,-6909181 -54087,-6909201 -54088,-6909208 -54087,-6909226 -54084,-6909246 -54081,-6909261 -54077,-6909271 -54071,-6909285 -54061,-6909303 -54054,-6909313 -54043,-6909325 -54038,-6909334 -54033,-6909343 -54030,-6909351 -54027,-6909362 -54026,-6909377 -54027,-6909392 -54030,-6909402 -54040,-6909423 -54044,-6909435 -54046,-6909447 -54047,-6909458 -54045,-6909472 -54037,-6909507 -54035,-6909518 -54032,-6909542 -54031,-6909577 -54028,-6909597 -54028,-6909608 -54029,-6909629 -54031,-6909641 -54039,-6909666 -54054,-6909703 -54038,-6909748 -53999,-6909761 -53946,-6909776 -53910,-6909787 -53855,-6909808 -53822,-6909817 -53798,-6909822 -53771,-6909826 -53744,-6909829 -53719,-6909831 -53691,-6909831 -53679,-6909833 -53660,-6909841 -53579,-6909853 -53547,-6909859 -53542,-6909945 -53517,-6910205 -53489,-6910440 -53468,-6910669 -53441,-6911104 -53439,-6911139 -53432,-6911276 -53426,-6911362 -53406,-6911658 -53393,-6911929 -53392,-6911997 -53315,-6912023 -53240,-6912032 -53161,-6912038 -53123,-6912039 -53090,-6912037 -52998,-6912031 -52967,-6912027 -52935,-6912023 -52900,-6912016 -52847,-6912002 -52735,-6911994 -52769,-6912146 -52816,-6912307 -52853,-6912448 -52618,-6912551 -52427,-6912639 -52449,-6912740 -52491,-6912949 -52524,-6913142 -52553,-6913250 -52506,-6913257 -52438,-6913265 -52428,-6913457 -52426,-6913509 -52422,-6913667 -52426,-6913706 -52433,-6913734 -52441,-6913761 -52450,-6913788 -52461,-6913816 -52473,-6913843 -52494,-6913884 -52506,-6913910 -52513,-6913929 -52518,-6913942 -52528,-6913972 -52534,-6913996 -52540,-6914024 -52545,-6914052 -52593,-6914225 -52600,-6914258 -52612,-6914302 -52628,-6914346 -52702,-6914511 -52710,-6914525 -52721,-6914540 -52734,-6914553 -52747,-6914564 -52757,-6914571 -52774,-6914580 -52802,-6914592 -52827,-6914603 -52904,-6914640 -52911,-6914647 -52926,-6914665 -52944,-6914689 -52961,-6914714 -52985,-6914756 -53020,-6914830 -53041,-6914877 -53072,-6914952 -53140,-6914990 -53327,-6915074 -53391,-6915098 -53425,-6915109 -53509,-6915133 -53541,-6915144 -53569,-6915154 -53607,-6915170 -53637,-6915184 -53667,-6915199 -53726,-6915232 -54001,-6915365 -54006,-6915369 -54037,-6915414 -54058,-6915443 -54077,-6915540 -54087,-6915615 -54113,-6915660 -54151,-6915621 -54173,-6915590 -54175,-6915557 -54179,-6915538 -54184,-6915520 -54189,-6915507 -54196,-6915495 -54204,-6915482 -54218,-6915463 -54248,-6915418 -54280,-6915371 -54307,-6915331 -54330,-6915308 -54374,-6915341 -54415,-6915368 -54402,-6915407 -54403,-6915422 -54427,-6915482 -54458,-6915528 -54470,-6915543 -54478,-6915555 -54485,-6915569 -54491,-6915583 -54495,-6915599 -54497,-6915620 -54523,-6915651 -54551,-6915689 -54583,-6915736 -54623,-6915803 -54636,-6915833 -54637,-6915841 -54640,-6915883 -54640,-6915918 -54649,-6915929 -54655,-6915937 -54662,-6915950 -54667,-6915963 -54670,-6915976 -54671,-6915988 -54672,-6916001 -54670,-6916017 -54715,-6916044 -54732,-6916051 -54742,-6916056 -54752,-6916062 -54762,-6916070 -54772,-6916080 -54781,-6916092 -54790,-6916109 -54814,-6916165 -54829,-6916207 -54846,-6916255 -54862,-6916303 -54875,-6916346 -54894,-6916410 -54917,-6916481 -54938,-6916548 -54956,-6916605 -54981,-6916696 -55025,-6916691 -55077,-6916740 -55062,-6916747 -55027,-6916765 -54987,-6916798 -54950,-6916790 -54935,-6916797 -54907,-6916815 -54880,-6916832 -54841,-6916861 -54823,-6916879 -54813,-6916886 -54808,-6916891 -54803,-6916899 -54800,-6916907 -54798,-6916928 -54786,-6916932 -54779,-6916934 -54765,-6916934 -54736,-6916939 -54727,-6916943 -54719,-6916948 -54712,-6916954 -54707,-6916959 -54702,-6916966 -54697,-6916977 -54696,-6916982 -54699,-6916993 -54702,-6916999 -54710,-6917009 -54721,-6917018 -54734,-6917025 -54738,-6917028 -54745,-6917035 -54749,-6917041 -54751,-6917046 -54751,-6917048 -54750,-6917050 -54746,-6917054 -54738,-6917058 -54733,-6917059 -54708,-6917058 -54699,-6917069 -54671,-6917082 -54658,-6917089 -54648,-6917096 -54628,-6917112 -54614,-6917135 -54606,-6917150 -54602,-6917155 -54573,-6917183 -54567,-6917188 -54561,-6917191 -54545,-6917196 -54536,-6917203 -54532,-6917208 -54529,-6917214 -54527,-6917220 -54527,-6917231 -54522,-6917246 -54520,-6917249 -54515,-6917253 -54510,-6917257 -54504,-6917260 -54489,-6917263 -54483,-6917266 -54477,-6917270 -54473,-6917274 -54470,-6917280 -54468,-6917287 -54467,-6917298 -54466,-6917302 -54462,-6917310 -54457,-6917316 -54446,-6917326 -54438,-6917331 -54418,-6917338 -54406,-6917343 -54389,-6917352 -54376,-6917361 -54362,-6917372 -54346,-6917368 -54287,-6917355 -54242,-6917344 -54237,-6917343 -54223,-6917345 -54210,-6917349 -54203,-6917353 -54168,-6917376 -54153,-6917366 -54157,-6917353 -54154,-6917347 -54150,-6917341 -54146,-6917338 -54136,-6917337 -54120,-6917340 -54117,-6917341 -54113,-6917346 -54106,-6917354 -54101,-6917363 -54096,-6917376 -54081,-6917398 -54076,-6917403 -54074,-6917407 -54074,-6917411 -54075,-6917414 -54080,-6917421 -54083,-6917431 -54081,-6917439 -54071,-6917456 -54066,-6917461 -54060,-6917466 -54053,-6917468 -54046,-6917469 -54026,-6917475 -54019,-6917475 -54013,-6917476 -54006,-6917479 -54002,-6917483 -53999,-6917487 -53996,-6917492 -53995,-6917499 -53995,-6917504 -53997,-6917510 -54000,-6917516 -54004,-6917520 -54009,-6917523 -54015,-6917525 -54025,-6917527 -54029,-6917529 -54037,-6917535 -54042,-6917543 -54043,-6917548 -54052,-6917616 -54055,-6917646 -54051,-6917658 -53974,-6917728 -53929,-6917771 -53920,-6917784 -53915,-6917797 -53914,-6917807 -53874,-6917794 -53817,-6917679 -53760,-6917684 -53698,-6917685 -53525,-6917671 -53341,-6917654 -53086,-6917627 -52903,-6917611 -52923,-6917669 -52982,-6917681 -52983,-6917683 -52988,-6917702 -52990,-6917718 -52991,-6917737 -52991,-6917756 -52988,-6917777 -52895,-6917808 -52871,-6917836 -52857,-6917855 -52843,-6917874 -52829,-6917897 -52822,-6917909 -52828,-6917940 -52829,-6917942 -52869,-6917961 -52859,-6918007 -52893,-6918099 -52913,-6918151 -52969,-6918282 -52738,-6918339 -52545,-6918381 -52170,-6918473 -52084,-6918494 -52057,-6918499 -52029,-6918503 -52009,-6918505 -51975,-6918506 -51849,-6918516 -51768,-6918525 -51652,-6918536 -51332,-6918558 -51205,-6918565 -51092,-6918559 -50970,-6918549 -50849,-6918536 -50793,-6918525 -50766,-6918519 -50696,-6918500 -50632,-6918478 -50584,-6918457 -50512,-6918423 -50480,-6918406 -50431,-6918379 -50421,-6918466 -50413,-6918561 -50411,-6918593 -50407,-6918683 -50400,-6918954 -50394,-6919185 -50393,-6919302 -50372,-6919302 -50357,-6919285 -50345,-6919275 -50332,-6919267 -50311,-6919256 -50270,-6919242 -50256,-6919236 -50241,-6919233 -50210,-6919259 -50203,-6919263 -50190,-6919269 -50178,-6919273 -50165,-6919275 -50146,-6919274 -50140,-6919273 -50137,-6919272 -50121,-6919266 -50112,-6919260 -50105,-6919255 -50101,-6919250 -50095,-6919243 -50089,-6919233 -50008,-6919143 -49996,-6919109 -49994,-6919095 -49990,-6919086 -49984,-6919079 -49978,-6919074 -49973,-6919071 -49966,-6919068 -49910,-6919050 -49895,-6919044 -49886,-6919042 -49877,-6919042 -49868,-6919043 -49859,-6919046 -49853,-6919049 -49851,-6919050 -49845,-6919060 -49840,-6919067 -49835,-6919073 -49821,-6919083 -49818,-6919084 -49812,-6919087 -49805,-6919090 -49797,-6919088 -49781,-6919083 -49764,-6919076 -49745,-6919067 -49738,-6919064 -49721,-6919060 -49704,-6919057 -49678,-6919055 -49606,-6919058 -49576,-6919050 -49493,-6919032 -49470,-6919025 -49450,-6919020 -49426,-6919015 -49390,-6919012 -49367,-6919015 -49353,-6919014 -49341,-6919012 -49329,-6919008 -49319,-6919004 -49310,-6918998 -49302,-6918991 -49295,-6918984 -49290,-6918976 -49274,-6918942 -49268,-6918938 -49255,-6918934 -49244,-6918931 -49235,-6918930 -49218,-6918930 -49210,-6918932 -49151,-6918946 -49126,-6918948 -49113,-6918947 -49098,-6918945 -49078,-6918939 -49073,-6918937 -49064,-6918930 -49055,-6918921 -49049,-6918911 -49045,-6918901 -49043,-6918892 -49042,-6918883 -49044,-6918859 -49043,-6918844 -49042,-6918832 -49038,-6918818 -49031,-6918799 -49011,-6918776 -49000,-6918765 -48987,-6918752 -48966,-6918735 -48905,-6918701 -48851,-6918672 -48841,-6918662 -48824,-6918644 -48812,-6918628 -48795,-6918602 -48783,-6918581 -48737,-6918524 -48727,-6918514 -48716,-6918505 -48695,-6918490 -48687,-6918483 -48679,-6918477 -48668,-6918472 -48656,-6918468 -48647,-6918467 -48640,-6918467 -48623,-6918470 -48596,-6918481 -48569,-6918494 -48561,-6918503 -48557,-6918511 -48555,-6918518 -48555,-6918525 -48556,-6918532 -48558,-6918539 -48563,-6918549 -48564,-6918551 -48564,-6918557 -48562,-6918563 -48559,-6918569 -48555,-6918574 -48549,-6918577 -48543,-6918580 -48537,-6918580 -48532,-6918580 -48497,-6918575 -48486,-6918572 -48471,-6918567 -48454,-6918559 -48411,-6918537 -48393,-6918526 -48375,-6918515 -48345,-6918490 -48322,-6918458 -48296,-6918441 -48280,-6918428 -48264,-6918414 -48252,-6918401 -48204,-6918346 -48180,-6918313 -48171,-6918298 -48154,-6918268 -48122,-6918226 -48117,-6918217 -48114,-6918213 -48104,-6918205 -48100,-6918203 -48088,-6918200 -48077,-6918200 -48072,-6918201 -48066,-6918203 -48055,-6918208 -48045,-6918214 -48038,-6918220 -48030,-6918229 -48021,-6918241 -48016,-6918246 -47978,-6918280 -47962,-6918293 -47956,-6918298 -47919,-6918318 -47901,-6918329 -47893,-6918333 -47884,-6918336 -47871,-6918339 -47858,-6918339 -47838,-6918338 -47799,-6918347 -47770,-6918351 -47746,-6918353 -47721,-6918353 -47700,-6918352 -47668,-6918348 -47664,-6918327 -47648,-6918300 -47631,-6918291 -47586,-6918269 -47563,-6918256 -47511,-6918291 -47503,-6918294 -47494,-6918295 -47485,-6918295 -47476,-6918292 -47469,-6918288 -47453,-6918272 -47443,-6918265 -47433,-6918259 -47422,-6918255 -47412,-6918252 -47392,-6918251 -47373,-6918248 -47360,-6918248 -47352,-6918244 -47351,-6918243 -47354,-6918219 -47352,-6918202 -47348,-6918194 -47346,-6918184 -47347,-6918178 -47349,-6918171 -47352,-6918164 -47358,-6918156 -47358,-6918144 -47356,-6918135 -47350,-6918119 -47333,-6918093 -47314,-6918075 -47300,-6918076 -47292,-6918078 -47278,-6918085 -47271,-6918090 -47264,-6918095 -47256,-6918105 -47225,-6918122 -47214,-6918115 -47202,-6918101 -47188,-6918083 -47181,-6918076 -47174,-6918070 -47166,-6918072 -47160,-6918076 -47156,-6918081 -47150,-6918091 -47149,-6918102 -47150,-6918110 -47142,-6918139 -47141,-6918147 -47138,-6918153 -47134,-6918157 -47128,-6918159 -47123,-6918160 -47116,-6918159 -47110,-6918155 -47098,-6918147 -47093,-6918142 -47086,-6918133 -47076,-6918111 -47060,-6918094 -47047,-6918085 -47034,-6918076 -47022,-6918070 -47002,-6918062 -46963,-6918036 -46926,-6918007 -46859,-6917952 -46852,-6917946 -46844,-6917942 -46833,-6917940 -46826,-6917941 -46820,-6917942 -46810,-6917947 -46804,-6917952 -46792,-6917956 -46769,-6917964 -46745,-6917971 -46731,-6917974 -46725,-6917974 -46714,-6917974 -46704,-6917972 -46694,-6917968 -46685,-6917963 -46678,-6917958 -46672,-6917951 -46666,-6917943 -46658,-6917929 -46542,-6917925 -46475,-6917925 -46453,-6917928 -46440,-6917931 -46427,-6917936 -46406,-6917947 -46407,-6917956 -46423,-6917974 -46426,-6917979 -46430,-6917989 -46431,-6918002 -46429,-6918009 -46425,-6918017 -46420,-6918024 -46403,-6918042 -46381,-6918067 -46366,-6918067 -46357,-6918066 -46346,-6918067 -46305,-6918095 -46285,-6918112 -46270,-6918107 -46261,-6918107 -46249,-6918108 -46230,-6918115 -46206,-6918129 -46173,-6918142 -46170,-6918181 -46122,-6918192 -46106,-6918188 -46065,-6918178 -46052,-6918178 -46040,-6918181 -46020,-6918189 -46015,-6918201 -46012,-6918206 -46005,-6918213 -45995,-6918217 -45989,-6918218 -45980,-6918217 -45969,-6918220 -45962,-6918220 -45956,-6918220 -45944,-6918216 -45938,-6918213 -45920,-6918201 -45908,-6918196 -45894,-6918194 -45881,-6918195 -45876,-6918195 -45866,-6918192 -45857,-6918188 -45848,-6918182 -45840,-6918175 -45830,-6918162 -45811,-6918145 -45807,-6918139 -45803,-6918135 -45798,-6918132 -45792,-6918130 -45785,-6918130 -45779,-6918131 -45775,-6918133 -45766,-6918139 -45749,-6918143 -45737,-6918143 -45724,-6918141 -45711,-6918136 -45705,-6918133 -45696,-6918124 -45693,-6918117 -45690,-6918114 -45686,-6918112 -45682,-6918112 -45678,-6918113 -45675,-6918115 -45671,-6918121 -45657,-6918130 -45646,-6918136 -45623,-6918145 -45602,-6918148 -45591,-6918144 -45583,-6918142 -45575,-6918142 -45569,-6918143 -45563,-6918144 -45557,-6918147 -45548,-6918152 -45531,-6918159 -45526,-6918159 -45517,-6918157 -45510,-6918155 -45506,-6918152 -45498,-6918144 -45495,-6918142 -45486,-6918139 -45476,-6918137 -45465,-6918137 -45449,-6918140 -45409,-6918161 -45390,-6918170 -45379,-6918173 -45367,-6918174 -45352,-6918173 -45333,-6918171 -45306,-6918163 -45283,-6918159 -45222,-6918154 -45182,-6918153 -45174,-6918155 -45160,-6918159 -45148,-6918164 -45133,-6918172 -45119,-6918184 -45109,-6918195 -45106,-6918204 -45090,-6918214 -45049,-6918256 -45038,-6918264 -45031,-6918266 -45025,-6918267 -45008,-6918267 -44993,-6918269 -44986,-6918271 -44978,-6918275 -44970,-6918281 -44960,-6918289 -44951,-6918292 -44943,-6918292 -44934,-6918292 -44926,-6918289 -44913,-6918282 -44898,-6918282 -44886,-6918295 -44857,-6918318 -44856,-6918319 -44853,-6918325 -44850,-6918329 -44846,-6918332 -44841,-6918334 -44835,-6918335 -44830,-6918334 -44813,-6918328 -44804,-6918328 -44797,-6918329 -44792,-6918331 -44753,-6918360 -44713,-6918397 -44697,-6918409 -44670,-6918427 -44656,-6918435 -44623,-6918433 -44599,-6918434 -44578,-6918433 -44563,-6918429 -44554,-6918430 -44547,-6918431 -44541,-6918434 -44527,-6918442 -44523,-6918445 -44517,-6918452 -44515,-6918460 -44516,-6918469 -44518,-6918475 -44514,-6918494 -44468,-6918535 -44452,-6918550 -44440,-6918562 -44437,-6918568 -44435,-6918578 -44435,-6918583 -44439,-6918593 -44436,-6918616 -44429,-6918622 -44422,-6918625 -44416,-6918627 -44404,-6918629 -44393,-6918626 -44386,-6918626 -44381,-6918628 -44376,-6918630 -44371,-6918633 -44357,-6918651 -44351,-6918664 -44348,-6918677 -44348,-6918679 -44348,-6918683 -44350,-6918692 -44357,-6918699 -44358,-6918703 -44359,-6918708 -44359,-6918712 -44356,-6918719 -44352,-6918723 -44345,-6918727 -44331,-6918739 -44320,-6918757 -44316,-6918762 -44303,-6918772 -44291,-6918777 -44283,-6918782 -44273,-6918790 -44259,-6918806 -44242,-6918822 -44232,-6918833 -44211,-6918860 -44186,-6918905 -44173,-6918924 -44162,-6918938 -44152,-6918949 -44141,-6918958 -44139,-6918960 -44130,-6918966 -44109,-6918976 -44078,-6918988 -44086,-6919005 -44086,-6919015 -44085,-6919021 -44083,-6919027 -44080,-6919033 -44072,-6919044 -44068,-6919052 -44061,-6919070 -44059,-6919084 -44057,-6919110 -44057,-6919116 -44054,-6919124 -44050,-6919130 -44046,-6919134 -44043,-6919136 -44042,-6919136 -44031,-6919139 -44014,-6919138 -44006,-6919140 -44001,-6919142 -43997,-6919146 -43991,-6919151 -43881,-6919192 -43862,-6919198 -43839,-6919208 -43825,-6919215 -43802,-6919230 -43781,-6919252 -43774,-6919261 -43768,-6919266 -43760,-6919270 -43752,-6919271 -43746,-6919271 -43735,-6919268 -43711,-6919248 -43695,-6919236 -43669,-6919218 -43661,-6919216 -43648,-6919213 -43635,-6919213 -43616,-6919217 -43597,-6919210 -43590,-6919205 -43580,-6919202 -43575,-6919202 -43569,-6919203 -43562,-6919205 -43557,-6919209 -43555,-6919212 -43549,-6919250 -43545,-6919253 -43538,-6919256 -43530,-6919258 -43522,-6919257 -43516,-6919255 -43497,-6919245 -43472,-6919236 -43455,-6919231 -43434,-6919227 -43424,-6919225 -43401,-6919234 -43384,-6919239 -43369,-6919243 -43351,-6919245 -43334,-6919244 -43323,-6919244 -43314,-6919245 -43304,-6919248 -43293,-6919253 -43286,-6919257 -43262,-6919277 -43253,-6919283 -43241,-6919289 -43231,-6919295 -43208,-6919301 -43189,-6919304 -43163,-6919312 -43148,-6919323 -43145,-6919329 -43142,-6919332 -43138,-6919335 -43135,-6919336 -43132,-6919337 -43126,-6919335 -43122,-6919332 -43119,-6919328 -43116,-6919322 -43107,-6919315 -43101,-6919313 -43095,-6919312 -43088,-6919313 -43082,-6919315 -43075,-6919320 -43072,-6919330 -43072,-6919336 -43074,-6919342 -43077,-6919348 -43087,-6919362 -43089,-6919367 -43090,-6919372 -43090,-6919379 -43089,-6919384 -43086,-6919389 -43080,-6919395 -43074,-6919400 -43069,-6919402 -43061,-6919403 -43047,-6919399 -43040,-6919398 -43033,-6919400 -43028,-6919402 -43020,-6919407 -43013,-6919417 -43006,-6919423 -42999,-6919428 -42993,-6919431 -42984,-6919434 -42975,-6919436 -42962,-6919436 -42949,-6919432 -42931,-6919424 -42909,-6919410 -42898,-6919401 -42887,-6919391 -42868,-6919370 -42824,-6919332 -42799,-6919347 -42794,-6919355 -42791,-6919361 -42788,-6919374 -42788,-6919380 -42789,-6919387 -42791,-6919394 -42805,-6919417 -42812,-6919431 -42815,-6919442 -42818,-6919451 -42819,-6919462 -42818,-6919474 -42816,-6919482 -42813,-6919488 -42805,-6919502 -42803,-6919503 -42753,-6919512 -42743,-6919518 -42736,-6919520 -42730,-6919520 -42724,-6919518 -42719,-6919516 -42715,-6919512 -42709,-6919503 -42709,-6919502 -42711,-6919492 -42711,-6919487 -42710,-6919482 -42706,-6919475 -42701,-6919470 -42695,-6919466 -42691,-6919465 -42686,-6919466 -42678,-6919471 -42671,-6919478 -42667,-6919486 -42664,-6919495 -42664,-6919500 -42680,-6919525 -42704,-6919554 -42706,-6919561 -42707,-6919564 -42705,-6919568 -42703,-6919572 -42698,-6919576 -42693,-6919578 -42686,-6919578 -42671,-6919582 -42651,-6919591 -42635,-6919602 -42617,-6919617 -42607,-6919623 -42595,-6919628 -42585,-6919630 -42576,-6919631 -42567,-6919630 -42558,-6919628 -42547,-6919625 -42531,-6919615 -42455,-6919589 -42388,-6919561 -42372,-6919551 -42364,-6919547 -42357,-6919545 -42348,-6919544 -42337,-6919545 -42328,-6919546 -42319,-6919550 -42305,-6919558 -42283,-6919592 -42266,-6919615 -42251,-6919634 -42243,-6919642 -42193,-6919643 -42186,-6919647 -42180,-6919648 -42175,-6919648 -42165,-6919646 -42157,-6919641 -42154,-6919638 -42150,-6919633 -42148,-6919627 -42147,-6919618 -42145,-6919616 -42141,-6919611 -42132,-6919604 -42120,-6919599 -42109,-6919597 -42097,-6919599 -42085,-6919603 -42057,-6919604 -42051,-6919601 -42040,-6919595 -42032,-6919589 -42021,-6919576 -41997,-6919557 -41996,-6919557 -41988,-6919562 -41990,-6919585 -41987,-6919618 -41984,-6919639 -41979,-6919659 -41963,-6919704 -41959,-6919711 -41954,-6919717 -41947,-6919722 -41942,-6919725 -41923,-6919730 -41919,-6919732 -41913,-6919738 -41910,-6919744 -41909,-6919753 -41910,-6919757 -41913,-6919763 -41920,-6919769 -41922,-6919773 -41924,-6919779 -41923,-6919785 -41921,-6919789 -41918,-6919792 -41912,-6919796 -41902,-6919801 -41890,-6919805 -41878,-6919809 -41865,-6919811 -41845,-6919812 -41839,-6919814 -41832,-6919819 -41827,-6919825 -41824,-6919832 -41823,-6919840 -41820,-6919931 -41812,-6919955 -41807,-6919958 -41795,-6919963 -41782,-6919968 -41761,-6919976 -41736,-6919971 -41724,-6919960 -41720,-6919948 -41713,-6919912 -41706,-6919893 -41701,-6919883 -41695,-6919875 -41684,-6919864 -41675,-6919844 -41648,-6919821 -41645,-6919820 -41630,-6919816 -41620,-6919816 -41610,-6919817 -41603,-6919819 -41602,-6919820 -41601,-6919824 -41601,-6919832 -41602,-6919838 -41603,-6919843 -41618,-6919875 -41622,-6919887 -41623,-6919894 -41623,-6919901 -41620,-6919912 -41617,-6919914 -41610,-6919917 -41603,-6919917 -41596,-6919916 -41590,-6919914 -41585,-6919911 -41569,-6919895 -41566,-6919887 -41563,-6919883 -41559,-6919880 -41553,-6919876 -41547,-6919874 -41539,-6919874 -41532,-6919876 -41524,-6919881 -41508,-6919897 -41502,-6919917 -41496,-6919929 -41489,-6919939 -41485,-6919944 -41464,-6919957 -41451,-6919965 -41423,-6919977 -41359,-6920023 -41329,-6920048 -41323,-6920056 -41318,-6920060 -41313,-6920063 -41305,-6920066 -41297,-6920067 -41292,-6920067 -41285,-6920065 -41277,-6920060 -41273,-6920057 -41263,-6920041 -41256,-6920027 -41248,-6920008 -41238,-6919991 -41236,-6919983 -41233,-6919979 -41229,-6919976 -41223,-6919975 -41217,-6919976 -41213,-6919980 -41211,-6919983 -41213,-6919990 -41216,-6920002 -41221,-6920012 -41224,-6920019 -41231,-6920027 -41233,-6920032 -41234,-6920039 -41233,-6920044 -41231,-6920050 -41228,-6920054 -41222,-6920059 -41206,-6920078 -41189,-6920117 -41189,-6920134 -41192,-6920153 -41171,-6920157 -41164,-6920159 -41153,-6920169 -41144,-6920174 -41139,-6920178 -41135,-6920185 -41134,-6920193 -41136,-6920201 -41139,-6920206 -41138,-6920208 -41133,-6920216 -41125,-6920221 -41116,-6920222 -41109,-6920221 -41097,-6920227 -41082,-6920240 -41076,-6920239 -41065,-6920229 -41046,-6920235 -41036,-6920254 -41034,-6920257 -41030,-6920260 -41025,-6920263 -41020,-6920266 -41016,-6920266 -41010,-6920265 -41003,-6920263 -40991,-6920253 -40985,-6920251 -40979,-6920249 -40973,-6920250 -40968,-6920251 -40963,-6920255 -40956,-6920262 -40925,-6920278 -40909,-6920299 -40900,-6920324 -40898,-6920347 -40896,-6920353 -40894,-6920358 -40892,-6920359 -40887,-6920360 -40881,-6920360 -40876,-6920359 -40871,-6920357 -40867,-6920353 -40864,-6920348 -40861,-6920341 -40844,-6920332 -40834,-6920335 -40802,-6920365 -40797,-6920368 -40791,-6920370 -40786,-6920371 -40775,-6920370 -40768,-6920367 -40721,-6920337 -40713,-6920327 -40710,-6920325 -40697,-6920320 -40691,-6920319 -40680,-6920320 -40667,-6920326 -40620,-6920366 -40596,-6920382 -40557,-6920382 -40530,-6920388 -40517,-6920395 -40499,-6920402 -40481,-6920404 -40473,-6920402 -40455,-6920397 -40440,-6920391 -40422,-6920383 -40387,-6920372 -40368,-6920351 -40364,-6920343 -40359,-6920338 -40352,-6920334 -40345,-6920333 -40338,-6920333 -40332,-6920335 -40325,-6920340 -40299,-6920352 -40291,-6920352 -40286,-6920349 -40282,-6920346 -40281,-6920343 -40280,-6920339 -40280,-6920324 -40281,-6920316 -40281,-6920311 -40280,-6920307 -40276,-6920302 -40272,-6920299 -40266,-6920298 -40261,-6920297 -40253,-6920299 -40249,-6920302 -40224,-6920299 -40212,-6920293 -40206,-6920287 -40199,-6920275 -40181,-6920273 -40172,-6920275 -40158,-6920281 -40149,-6920286 -40140,-6920292 -40121,-6920307 -40094,-6920326 -40076,-6920336 -40059,-6920343 -40041,-6920350 -40010,-6920358 -39993,-6920361 -39980,-6920362 -39968,-6920362 -39950,-6920361 -39933,-6920358 -39920,-6920355 -39896,-6920345 -39715,-6920258 -39694,-6920291 -39692,-6920298 -39692,-6920303 -39693,-6920308 -39695,-6920311 -39699,-6920314 -39711,-6920321 -39715,-6920328 -39716,-6920335 -39713,-6920343 -39709,-6920347 -39690,-6920348 -39668,-6920339 -39664,-6920344 -39660,-6920350 -39655,-6920388 -39662,-6920390 -39666,-6920392 -39672,-6920398 -39675,-6920406 -39674,-6920414 -39665,-6920428 -39656,-6920437 -39638,-6920451 -39585,-6920510 -39581,-6920512 -39577,-6920512 -39573,-6920511 -39569,-6920508 -39567,-6920504 -39564,-6920485 -39564,-6920476 -39562,-6920471 -39559,-6920464 -39554,-6920459 -39548,-6920455 -39540,-6920453 -39533,-6920453 -39529,-6920454 -39501,-6920481 -39483,-6920503 -39474,-6920512 -39457,-6920527 -39447,-6920534 -39431,-6920543 -39427,-6920555 -39421,-6920566 -39408,-6920572 -39380,-6920577 -39330,-6920593 -39292,-6920614 -39255,-6920617 -39250,-6920618 -39246,-6920621 -39242,-6920628 -39240,-6920636 -39240,-6920638 -39246,-6920650 -39246,-6920657 -39245,-6920662 -39242,-6920666 -39239,-6920669 -39235,-6920672 -39230,-6920673 -39225,-6920673 -39219,-6920673 -39211,-6920669 -39205,-6920663 -39202,-6920657 -39172,-6920650 -39154,-6920651 -39145,-6920653 -39128,-6920658 -39111,-6920666 -39086,-6920642 -39079,-6920630 -39074,-6920625 -39069,-6920622 -39060,-6920619 -39054,-6920619 -39046,-6920621 -39039,-6920624 -39031,-6920630 -39006,-6920641 -38994,-6920645 -38986,-6920649 -38978,-6920654 -38968,-6920663 -38959,-6920673 -38956,-6920678 -38961,-6920685 -38969,-6920694 -38982,-6920704 -38993,-6920708 -38996,-6920704 -39002,-6920700 -39009,-6920698 -39015,-6920698 -39021,-6920700 -39025,-6920703 -39027,-6920707 -39027,-6920712 -39022,-6920726 -39020,-6920730 -39017,-6920733 -39012,-6920735 -39007,-6920736 -39002,-6920735 -38993,-6920730 -38989,-6920730 -38982,-6920730 -38975,-6920731 -38969,-6920734 -38964,-6920738 -38957,-6920746 -38956,-6920748 -38957,-6920763 -38964,-6920787 -38950,-6920787 -38942,-6920789 -38938,-6920791 -38928,-6920799 -38947,-6920844 -38952,-6920850 -38954,-6920855 -38955,-6920859 -38955,-6920864 -38953,-6920871 -38949,-6920877 -38944,-6920881 -38937,-6920884 -38931,-6920885 -38921,-6920894 -38912,-6920907 -38910,-6920916 -38907,-6920921 -38903,-6920925 -38900,-6920927 -38896,-6920928 -38889,-6920929 -38882,-6920928 -38878,-6920926 -38874,-6920923 -38869,-6920918 -38859,-6920916 -38837,-6920914 -38817,-6920914 -38800,-6920915 -38781,-6920919 -38745,-6920930 -38724,-6920934 -38708,-6920934 -38695,-6920934 -38685,-6920932 -38678,-6920931 -38640,-6920918 -38623,-6920919 -38591,-6920923 -38577,-6920926 -38567,-6920957 -38556,-6920980 -38549,-6920991 -38540,-6921004 -38532,-6921014 -38521,-6921024 -38508,-6921035 -38494,-6921046 -38473,-6921058 -38435,-6921083 -38410,-6921101 -38383,-6921124 -38374,-6921181 -38354,-6921209 -38346,-6921217 -38341,-6921225 -38338,-6921231 -38337,-6921236 -38337,-6921247 -38340,-6921260 -38342,-6921264 -38351,-6921272 -38356,-6921277 -38359,-6921283 -38362,-6921293 -38361,-6921304 -38359,-6921311 -38353,-6921321 -38344,-6921331 -38333,-6921341 -38322,-6921348 -38312,-6921353 -38304,-6921356 -38289,-6921356 -38282,-6921354 -38274,-6921350 -38267,-6921346 -38259,-6921339 -38232,-6921302 -38222,-6921289 -38192,-6921292 -38212,-6921332 -38212,-6921347 -38210,-6921364 -38204,-6921380 -38198,-6921392 -38191,-6921404 -38185,-6921412 -38172,-6921424 -38165,-6921429 -38155,-6921438 -38150,-6921441 -38141,-6921443 -38137,-6921443 -38127,-6921439 -38121,-6921433 -38118,-6921427 -38116,-6921410 -38114,-6921402 -38110,-6921392 -38102,-6921379 -38098,-6921374 -38091,-6921370 -38076,-6921364 -38061,-6921360 -38039,-6921357 -38032,-6921351 -38020,-6921344 -38013,-6921342 -38003,-6921341 -37994,-6921342 -37973,-6921348 -37966,-6921352 -37960,-6921357 -37954,-6921363 -37950,-6921369 -37941,-6921391 -37935,-6921400 -37928,-6921410 -37920,-6921417 -37913,-6921423 -37889,-6921438 -37870,-6921449 -37859,-6921453 -37848,-6921461 -37843,-6921466 -37838,-6921473 -37834,-6921481 -37830,-6921492 -37830,-6921516 -37835,-6921555 -37838,-6921610 -37831,-6921647 -37821,-6921660 -37811,-6921671 -37790,-6921670 -37758,-6921663 -37751,-6921663 -37740,-6921663 -37729,-6921665 -37720,-6921669 -37711,-6921674 -37702,-6921682 -37690,-6921696 -37663,-6921725 -37654,-6921736 -37637,-6921763 -37629,-6921778 -37619,-6921802 -37599,-6921826 -37593,-6921840 -37587,-6921851 -37580,-6921859 -37574,-6921866 -37567,-6921871 -37558,-6921877 -37549,-6921882 -37532,-6921888 -37513,-6921894 -37496,-6921899 -37464,-6921904 -37452,-6921910 -37442,-6921919 -37438,-6921924 -37433,-6921933 -37430,-6921938 -37423,-6921961 -37422,-6921976 -37422,-6921983 -37425,-6921991 -37432,-6922006 -37441,-6922038 -37447,-6922062 -37450,-6922087 -37454,-6922099 -37457,-6922109 -37489,-6922171 -37508,-6922207 -37513,-6922219 -37518,-6922236 -37522,-6922253 -37524,-6922278 -37517,-6922327 -37514,-6922338 -37511,-6922347 -37505,-6922358 -37498,-6922369 -37491,-6922379 -37472,-6922408 -37465,-6922416 -37458,-6922423 -37449,-6922430 -37437,-6922437 -37430,-6922440 -37422,-6922443 -37415,-6922448 -37409,-6922456 -37408,-6922461 -37408,-6922470 -37421,-6922486 -37447,-6922512 -37455,-6922522 -37467,-6922534 -37475,-6922539 -37485,-6922544 -37494,-6922547 -37502,-6922548 -37516,-6922548 -37522,-6922549 -37528,-6922552 -37533,-6922557 -37535,-6922562 -37537,-6922568 -37536,-6922597 -37538,-6922603 -37540,-6922609 -37547,-6922612 -37552,-6922616 -37554,-6922621 -37554,-6922626 -37553,-6922629 -37549,-6922635 -37546,-6922637 -37535,-6922640 -37529,-6922643 -37524,-6922648 -37520,-6922653 -37516,-6922662 -37516,-6922674 -37509,-6922679 -37497,-6922685 -37486,-6922686 -37481,-6922686 -37421,-6922676 -37418,-6922680 -37413,-6922690 -37408,-6922701 -37403,-6922718 -37402,-6922737 -37406,-6922795 -37415,-6922836 -37418,-6922862 -37420,-6922898 -37427,-6922908 -37431,-6922916 -37432,-6922924 -37433,-6922932 -37430,-6922944 -37421,-6922961 -37376,-6923041 -37335,-6923055 -37319,-6923065 -37305,-6923076 -37296,-6923081 -37290,-6923082 -37284,-6923082 -37275,-6923079 -37269,-6923074 -37256,-6923059 -37244,-6923051 -37232,-6923046 -37225,-6923045 -37216,-6923046 -37204,-6923048 -37153,-6923068 -37140,-6923077 -37134,-6923080 -37125,-6923083 -37114,-6923084 -37106,-6923084 -37092,-6923081 -37082,-6923076 -37032,-6923027 -37011,-6923012 -36997,-6923005 -36985,-6923000 -36962,-6922995 -36958,-6922995 -36947,-6922999 -36939,-6923001 -36931,-6923001 -36925,-6923000 -36919,-6922998 -36914,-6922995 -36909,-6922991 -36904,-6922985 -36901,-6922981 -36903,-6922976 -36907,-6922967 -36913,-6922958 -36919,-6922950 -36926,-6922944 -36939,-6922935 -36939,-6922918 -36937,-6922911 -36934,-6922901 -36928,-6922890 -36924,-6922884 -36898,-6922871 -36860,-6922865 -36829,-6922908 -36816,-6922908 -36810,-6922906 -36803,-6922904 -36796,-6922900 -36790,-6922895 -36784,-6922888 -36780,-6922880 -36776,-6922870 -36781,-6922862 -36783,-6922854 -36783,-6922847 -36781,-6922841 -36777,-6922835 -36772,-6922830 -36765,-6922827 -36761,-6922826 -36750,-6922829 -36739,-6922836 -36733,-6922841 -36728,-6922847 -36722,-6922859 -36719,-6922862 -36708,-6922871 -36693,-6922876 -36678,-6922879 -36670,-6922879 -36657,-6922876 -36647,-6922868 -36639,-6922863 -36631,-6922860 -36624,-6922859 -36612,-6922860 -36601,-6922864 -36599,-6922864 -36591,-6922870 -36591,-6922896 -36590,-6922906 -36586,-6922917 -36584,-6922922 -36567,-6922926 -36543,-6922908 -36527,-6922899 -36522,-6922902 -36514,-6922910 -36507,-6922918 -36498,-6922935 -36490,-6922946 -36485,-6922951 -36478,-6922955 -36471,-6922959 -36462,-6922961 -36453,-6922963 -36447,-6922964 -36441,-6922963 -36435,-6922961 -36429,-6922959 -36424,-6922955 -36420,-6922950 -36414,-6922941 -36347,-6922904 -36336,-6922901 -36330,-6922901 -36322,-6922901 -36314,-6922904 -36306,-6922907 -36282,-6922921 -36275,-6922927 -36269,-6922934 -36263,-6922941 -36252,-6922960 -36246,-6922966 -36241,-6922971 -36230,-6922977 -36219,-6922980 -36196,-6922983 -36180,-6922983 -36143,-6922981 -36105,-6922987 -36079,-6922992 -36065,-6922992 -36051,-6922991 -36039,-6922987 -36023,-6922981 -35973,-6922968 -35963,-6922967 -35956,-6922965 -35942,-6922958 -35931,-6922950 -35927,-6922945 -35922,-6922937 -35913,-6922916 -35907,-6922905 -35898,-6922895 -35885,-6922888 -35871,-6922884 -35837,-6922880 -35788,-6922879 -35763,-6922869 -35745,-6922864 -35719,-6922859 -35713,-6922860 -35704,-6922862 -35695,-6922866 -35686,-6922872 -35679,-6922879 -35661,-6922904 -35653,-6922917 -35643,-6922937 -35637,-6922945 -35632,-6922949 -35623,-6922953 -35615,-6922954 -35605,-6922954 -35598,-6922951 -35588,-6922953 -35581,-6922957 -35575,-6922962 -35571,-6922968 -35569,-6922975 -35568,-6922979 -35576,-6922997 -35624,-6923060 -35629,-6923057 -35638,-6923049 -35647,-6923040 -35654,-6923032 -35663,-6923016 -35667,-6923006 -35672,-6922986 -35677,-6922979 -35679,-6922977 -35684,-6922975 -35690,-6922974 -35696,-6922975 -35699,-6922977 -35708,-6922986 -35724,-6923005 -35732,-6923011 -35736,-6923015 -35739,-6923019 -35741,-6923026 -35741,-6923033 -35740,-6923040 -35729,-6923061 -35728,-6923070 -35739,-6923083 -35748,-6923090 -35751,-6923094 -35754,-6923099 -35754,-6923104 -35752,-6923110 -35749,-6923114 -35747,-6923116 -35726,-6923121 -35715,-6923123 -35680,-6923125 -35646,-6923125 -35606,-6923121 -35563,-6923121 -35528,-6923118 -35495,-6923111 -35473,-6923104 -35426,-6923083 -35391,-6923066 -35352,-6923053 -35305,-6923039 -35233,-6923023 -35193,-6923013 -35148,-6923003 -35075,-6922992 -35048,-6922987 -35002,-6922976 -34951,-6922961 -34911,-6922946 -34642,-6922870 -34553,-6922842 -34505,-6922827 -34384,-6922779 -34284,-6922737 -34139,-6922677 -34105,-6922665 -34084,-6922656 -34065,-6922647 -34044,-6922636 -33996,-6922607 -33978,-6922598 -33960,-6922589 -33941,-6922582 -33922,-6922575 -33902,-6922570 -33855,-6922560 -33835,-6922554 -33788,-6922538 -33742,-6922519 -33709,-6922501 -33631,-6922469 -33552,-6922437 -33474,-6922413 -33430,-6922398 -33388,-6922379 -33273,-6922346 -33143,-6922315 -33096,-6922298 -33074,-6922288 -33051,-6922275 -33039,-6922265 -33020,-6922248 -32977,-6922215 -32940,-6922188 -32909,-6922161 -32883,-6922135 -32836,-6922092 -32821,-6922082 -32807,-6922075 -32789,-6922068 -32770,-6922063 -32755,-6922061 -32734,-6922060 -32710,-6922066 -32683,-6922076 -32660,-6922088 -32652,-6922094 -32637,-6922108 -32621,-6922124 -32599,-6922150 -32579,-6922164 -32555,-6922184 -32540,-6922199 -32517,-6922227 -32497,-6922241 -32483,-6922249 -32467,-6922257 -32448,-6922263 -32427,-6922267 -32416,-6922269 -32322,-6922267 -32294,-6922267 -32282,-6922265 -32264,-6922262 -32245,-6922257 -32227,-6922251 -32208,-6922244 -32198,-6922239 -32188,-6922232 -32171,-6922219 -32157,-6922207 -32130,-6922179 -32117,-6922163 -32106,-6922148 -32099,-6922136 -32089,-6922115 -32084,-6922098 -32077,-6922065 -32064,-6922026 -32054,-6922002 -32026,-6921941 -32017,-6921925 -31998,-6921896 -31971,-6921861 -31954,-6921843 -31931,-6921826 -31911,-6921814 -31873,-6921794 -31855,-6921786 -31834,-6921777 -31812,-6921771 -31769,-6921762 -31679,-6921741 -31559,-6921711 -31530,-6921704 -31451,-6921681 -31421,-6921669 -31401,-6921658 -31382,-6921647 -31355,-6921627 -31337,-6921611 -31290,-6921570 -31264,-6921544 -31191,-6921513 -31157,-6921501 -31132,-6921490 -31105,-6921477 -31083,-6921465 -31067,-6921455 -31054,-6921443 -31036,-6921423 -31032,-6921411 -31030,-6921401 -31030,-6921392 -31032,-6921384 -31033,-6921377 -31048,-6921346 -31053,-6921334 -31056,-6921322 -31060,-6921305 -31065,-6921273 -31064,-6921264 -31062,-6921252 -31056,-6921228 -31051,-6921216 -31044,-6921201 -31030,-6921177 -30984,-6921081 -30942,-6920997 -30923,-6920958 -30897,-6920941 -30873,-6920927 -30838,-6920909 -30800,-6920885 -30773,-6920865 -30759,-6920854 -30752,-6920847 -30747,-6920839 -30740,-6920825 -30736,-6920809 -30736,-6920793 -30738,-6920781 -30738,-6920768 -30735,-6920739 -30730,-6920711 -30726,-6920696 -30681,-6920612 -30636,-6920546 -30616,-6920509 -30599,-6920482 -30577,-6920450 -30529,-6920387 -30497,-6920349 -30429,-6920277 -30419,-6920268 -30408,-6920262 -30398,-6920257 -30387,-6920253 -30377,-6920251 -30361,-6920249 -30321,-6920254 -30294,-6920259 -30189,-6920286 -30181,-6920286 -30165,-6920286 -30153,-6920284 -30142,-6920282 -30131,-6920278 -30120,-6920272 -30109,-6920265 -30101,-6920258 -30093,-6920250 -30085,-6920239 -30078,-6920228 -30073,-6920217 -30069,-6920203 -30066,-6920188 -30061,-6920108 -30056,-6920061 -30048,-6919997 -30049,-6919983 -30049,-6919972 -30047,-6919957 -30043,-6919943 -30037,-6919930 -30026,-6919911 -30028,-6919906 -30032,-6919898 -30039,-6919892 -30053,-6919882 -30058,-6919875 -30059,-6919870 -30060,-6919865 -30058,-6919860 -30055,-6919855 -30051,-6919850 -30045,-6919847 -30036,-6919846 -30006,-6919793 -29987,-6919756 -29945,-6919688 -29940,-6919683 -29933,-6919676 -29923,-6919670 -29913,-6919666 -29891,-6919661 -29881,-6919658 -29862,-6919649 -29855,-6919644 -29837,-6919629 -29824,-6919626 -29814,-6919622 -29805,-6919617 -29794,-6919610 -29784,-6919600 -29776,-6919592 -29767,-6919579 -29748,-6919554 -29735,-6919535 -29665,-6919419 -29653,-6919402 -29632,-6919380 -29621,-6919373 -29596,-6919360 -29572,-6919349 -29543,-6919338 -29495,-6919318 -29450,-6919301 -29442,-6919297 -29425,-6919288 -29410,-6919278 -29403,-6919272 -29376,-6919246 -29365,-6919233 -29356,-6919219 -29348,-6919204 -29342,-6919188 -29339,-6919176 -29339,-6919153 -29340,-6919140 -29343,-6919124 -29346,-6919112 -29355,-6919084 -29359,-6919064 -29359,-6919053 -29355,-6919031 -29351,-6919017 -29341,-6918977 -29303,-6918987 -29287,-6918955 -29262,-6918923 -29226,-6918885 -29182,-6918842 -29172,-6918835 -29163,-6918828 -29142,-6918816 -29119,-6918804 -29080,-6918790 -29038,-6918779 -29026,-6918778 -29013,-6918777 -28998,-6918777 -28983,-6918779 -28970,-6918782 -28956,-6918787 -28943,-6918792 -28903,-6918814 -28883,-6918827 -28863,-6918841 -28824,-6918872 -28811,-6918854 -28794,-6918819 -28760,-6918842 -28746,-6918852 -28718,-6918874 -28676,-6918910 -28665,-6918925 -28660,-6918931 -28651,-6918951 -28648,-6918962 -28645,-6918974 -28643,-6918996 -28642,-6919001 -28637,-6919012 -28630,-6919025 -28623,-6919036 -28614,-6919047 -28598,-6919065 -28509,-6919141 -28449,-6919189 -28387,-6919233 -28317,-6919281 -28276,-6919307 -28215,-6919343 -28130,-6919405 -28110,-6919420 -28015,-6919488 -27973,-6919512 -27938,-6919535 -27918,-6919551 -27893,-6919571 -27857,-6919603 -27794,-6919650 -27729,-6919695 -27648,-6919747 -27590,-6919785 -27563,-6919801 -27489,-6919843 -27415,-6919882 -27369,-6919909 -27326,-6919939 -27293,-6919966 -27240,-6919998 -27224,-6920008 -27135,-6920068 -26992,-6920150 -26973,-6920161 -26933,-6920191 -26900,-6920219 -26785,-6920305 -26733,-6920338 -26698,-6920362 -26653,-6920395 -26588,-6920449 -26565,-6920422 -26532,-6920391 -26458,-6920452 -26384,-6920506 -26259,-6920585 -26204,-6920618 -26141,-6920657 -26007,-6920746 -25884,-6920830 -25843,-6920852 -25794,-6920883 -25756,-6920910 -25687,-6920966 -25637,-6921004 -25611,-6921022 -25581,-6921038 -25481,-6921089 -25449,-6921098 -25428,-6921105 -25411,-6921112 -25390,-6921123 -25356,-6921143 -25272,-6921187 -25164,-6921243 -25121,-6921268 -25058,-6921308 -24991,-6921355 -24917,-6921389 -24823,-6921434 -24625,-6921534 -24587,-6921554 -24538,-6921577 -24495,-6921593 -24434,-6921611 -24397,-6921624 -24344,-6921638 -24286,-6921649 -24254,-6921653 -24223,-6921656 -24197,-6921658 -24174,-6921658 -24150,-6921658 -24128,-6921656 -24105,-6921653 -24082,-6921649 -24047,-6921640 -23922,-6921628 -23818,-6921613 -23732,-6921598 -23655,-6921579 -23606,-6921585 -23434,-6921620 -23338,-6921636 -23134,-6921734 -22936,-6921834 -22884,-6921693 -22909,-6921681 -22878,-6921607 -22858,-6921575 -22837,-6921542 -22810,-6921506 -22798,-6921491 -22773,-6921462 -22748,-6921436 -22606,-6921289 -22474,-6921012 -22441,-6920936 -22423,-6920891 -22406,-6920846 -22372,-6920751 -22348,-6920680 -22342,-6920656 -22337,-6920636 -22329,-6920617 -22320,-6920598 -22312,-6920583 -22294,-6920559 -22285,-6920548 -22273,-6920536 -22260,-6920525 -22243,-6920511 -22259,-6920493 -22165,-6920249 -22152,-6920241 -22115,-6920149 -22099,-6920110 -22076,-6920067 -22060,-6920036 -22033,-6919973 -22020,-6919939 -22007,-6919902 -21990,-6919840 -21978,-6919801 -21955,-6919733 -21934,-6919680 -21922,-6919655 -21918,-6919647 -21900,-6919607 -21884,-6919566 -21871,-6919527 -21830,-6919533 -21815,-6919533 -21805,-6919531 -21794,-6919526 -21784,-6919519 -21776,-6919511 -21770,-6919504 -21764,-6919492 -21677,-6919336 -21575,-6919150 -21469,-6918965 -21310,-6918963 -21197,-6918971 -21036,-6919169 -20863,-6919386 -20331,-6920071 -20175,-6920281 -20039,-6920456 -19573,-6920278 -19255,-6920148 -19088,-6920084 -19079,-6920079 -19073,-6920077 -19062,-6920075 -19051,-6920076 -19045,-6920078 -19033,-6920083 -18892,-6920026 -18540,-6919890 -18231,-6919765 -17965,-6919664 -17664,-6919544 -17550,-6919504 -17497,-6919484 -17444,-6919464 -17370,-6919433 -17296,-6919401 -17226,-6919369 -17088,-6919315 -16967,-6919271 -16804,-6919208 -16686,-6919160 -16617,-6919136 -16533,-6919104 -16367,-6919043 -16258,-6919001 -16119,-6918943 -16026,-6918907 -15944,-6918881 -15887,-6918858 -15836,-6918834 -15773,-6918811 -15702,-6918794 -15689,-6918849 -15661,-6918919 -15640,-6918988 -15631,-6919037 -15612,-6919114 -15599,-6919155 -15600,-6919191 -15602,-6919212 -15605,-6919232 -15614,-6919273 -15614,-6919293 -15612,-6919301 -15601,-6919305 -15587,-6919334 -15579,-6919347 -15572,-6919359 -15567,-6919366 -15558,-6919377 -15549,-6919389 -15545,-6919393 -15537,-6919402 -15529,-6919410 -15520,-6919417 -15515,-6919421 -15507,-6919426 -15499,-6919431 -15493,-6919434 -15483,-6919439 -15473,-6919443 -15464,-6919446 -15455,-6919448 -15445,-6919451 -15436,-6919452 -15430,-6919453 -15415,-6919455 -15400,-6919456 -15393,-6919457 -15309,-6919464 -15263,-6919469 -15233,-6919473 -15231,-6919494 -15233,-6919494 -15236,-6919495 -15237,-6919495 -15239,-6919496 -15241,-6919497 -15242,-6919498 -15244,-6919500 -15246,-6919502 -15248,-6919504 -15248,-6919504 -15249,-6919507 -15250,-6919509 -15251,-6919512 -15251,-6919514 -15251,-6919517 -15252,-6919520 -15252,-6919534 -15227,-6919544 -15173,-6919563 -15084,-6919603 -15042,-6919626 -15000,-6919652 -14970,-6919686 -14939,-6919726 -14918,-6919745 -14908,-6919753 -14899,-6919757 -14889,-6919760 -14875,-6919761 -14842,-6919769 -14808,-6919794 -14766,-6919838 -14737,-6919876 -14681,-6919943 -14636,-6919990 -14601,-6920024 -14568,-6920068 -14561,-6920080 -14550,-6920105 -14525,-6920136 -14469,-6920191 -14451,-6920208 -14373,-6920260 -14266,-6920310 -14240,-6920319 -14220,-6920323 -14134,-6920332 -14123,-6920334 -14112,-6920338 -14101,-6920342 -14092,-6920347 -14085,-6920352 -14074,-6920363 -14066,-6920373 -14029,-6920413 -13980,-6920461 -13950,-6920496 -13936,-6920515 -13916,-6920537 -13903,-6920548 -13883,-6920562 -13791,-6920607 -13763,-6920634 -13750,-6920650 -13743,-6920659 -13737,-6920669 -13727,-6920690 -13721,-6920700 -13708,-6920716 -13551,-6920853 -13502,-6920896 -13426,-6920957 -13364,-6921012 -13318,-6921048 -13276,-6921075 -13178,-6921144 -13132,-6921181 -13075,-6921223 -13070,-6921227 -13053,-6921245 -13045,-6921257 -13035,-6921273 -12986,-6921367 -12963,-6921403 -12904,-6921485 -12858,-6921541 -12768,-6921644 -12727,-6921687 -12682,-6921728 -12578,-6921817 -12527,-6921852 -12453,-6921897 -12203,-6922035 -12106,-6922091 -12044,-6922130 -11958,-6922187 -11893,-6922234 -11831,-6922283 -11787,-6922315 -11745,-6922353 -11728,-6922368 -11712,-6922384 -11678,-6922422 -11641,-6922453 -11537,-6922510 -11463,-6922546 -11421,-6922564 -11376,-6922593 -11357,-6922576 -11333,-6922565 -11318,-6922556 -11308,-6922549 -11302,-6922543 -11297,-6922538 -11267,-6922497 -11251,-6922479 -11198,-6922424 -11164,-6922387 -11144,-6922360 -11094,-6922286 -11087,-6922278 -11069,-6922260 -11064,-6922257 -11054,-6922253 -11046,-6922251 -11036,-6922250 -10948,-6922234 -10927,-6922231 -10860,-6922223 -10835,-6922222 -10824,-6922223 -10808,-6922223 -10794,-6922219 -10767,-6922203 -10762,-6922199 -10714,-6922150 -10677,-6922120 -10658,-6922099 -10638,-6922069 -10628,-6922041 -10619,-6922013 -10604,-6921988 -10578,-6921952 -10552,-6921921 -10535,-6921897 -10499,-6921854 -10464,-6921826 -10408,-6921789 -10380,-6921767 -10318,-6921726 -10281,-6921701 -10227,-6921663 -10182,-6921630 -10095,-6921587 -10080,-6921582 -10066,-6921580 -10059,-6921580 -10026,-6921584 -9965,-6921599 -9898,-6921621 -9829,-6921607 -9795,-6921598 -9785,-6921597 -9777,-6921597 -9768,-6921598 -9756,-6921601 -9745,-6921606 -9736,-6921611 -9723,-6921621 -9691,-6921656 -9541,-6921785 -9459,-6921861 -9444,-6921877 -9436,-6921889 -9418,-6921917 -9399,-6921944 -9388,-6921959 -9385,-6921961 -9378,-6921967 -9336,-6921987 -9262,-6922026 -9171,-6922103 -9091,-6922174 -9062,-6922197 -9034,-6922220 -8963,-6922273 -8940,-6922288 -8916,-6922304 -8853,-6922331 -8778,-6922353 -8722,-6922371 -8686,-6922384 -8651,-6922397 -8598,-6922418 -8455,-6922470 -8420,-6922490 -8305,-6922569 -8276,-6922577 -8259,-6922577 -8234,-6922571 -8219,-6922567 -8197,-6922564 -8117,-6922550 -8090,-6922551 -8079,-6922553 -8070,-6922556 -8051,-6922562 -8036,-6922566 -8015,-6922569 -8004,-6922563 -8005,-6922561 -7993,-6922558 -7932,-6922533 -7916,-6922525 -7879,-6922504 -7804,-6922460 -7789,-6922453 -7776,-6922449 -7755,-6922446 -7735,-6922446 -7707,-6922449 -7684,-6922456 -7655,-6922470 -7626,-6922481 -7579,-6922507 -7492,-6922547 -7475,-6922554 -7455,-6922562 -7445,-6922563 -7436,-6922564 -7422,-6922562 -7344,-6922555 -7304,-6922548 -7291,-6922552 -7285,-6922555 -7274,-6922562 -7264,-6922574 -7242,-6922615 -7206,-6922750 -7145,-6922961 -7139,-6922996 -7137,-6923010 -7136,-6923044 -7129,-6923105 -7128,-6923113 -7125,-6923122 -7122,-6923129 -7117,-6923135 -7113,-6923140 -7107,-6923144 -7100,-6923147 -7092,-6923149 -7082,-6923148 -6982,-6923129 -6739,-6923067 -6622,-6923048 -6459,-6922939" stroke="#006747" stroke-width="84" /></ns0:svg>    <rect x="20" y="50"  width="250" height="25"  rx="0"  fill="#006747" fill-opacity="0.8" />    <text x="145" y="70" text-anchor="middle" font-family="Frutiger" font-weight="bold" font-size="30" fill="white">Peterborough</text>    <rect x="35" y="195" width="220" height="160" rx="15" fill="#78BE20"/>    <g font-family="Frutiger" font-size="15" fill="#231F20">        <g> <text x="45" y="218">Self-harm</text> <text x="245" y="218" text-anchor="end">53</text> </g>        <g> <text x="45" y="243">SEN</text> <text x="245" y="243" text-anchor="end">17</text> </g>        <g> <text x="45" y="268">Difficulties</text> <text x="245" y="268" text-anchor="end">68</text> </g>        <g> <text x="45" y="293">Child Carer</text> <text x="245" y="293" text-anchor="end">3</text> </g>        <g> <text x="45" y="318">Drinkers</text> <text x="245" y="318" text-anchor="end">33</text> </g>        <g> <text x="45" y="343">Safeguarding </text> <text x="245" y="343" text-anchor="end">29</text> </g>    </g></svg>