<?xml version="1.0" standalone="no"?>
<!DOCTYPE svg PUBLIC "-//W3C//DTD SVG 1.1//EN"
"http://www.w3.org/Graphics/SVG/1.1/DTD/svg11.dtd">
<svg height="390" version="1.1" width="290" xmlns="http://www.w3.org/2000/svg"><defs><style type="text/css">@font-face {font-family: 'Frutiger';font-style: normal;font-weight: normal;src: local('Frutiger'), url('../fonts/Frutiger.woff') format('woff');}@font-face {font-family: 'Frutiger Bold';font-style: normal;font-weight: normal;src: local('Frutiger Bold'), url('../fonts/Frutiger_bold.woff') format('woff');}        </style>    </defs>    <rect x="20" y="20"  width="250" height="350" rx="15" fill="#005EB8" />    <rect x="35" y="35"  width="220" height="145" rx="15" fill="white" /><ns0:svg xmlns:ns0="http://www.w3.org/2000/svg" height="115" version="1.1" viewBox="-403912 -6536560 19156 25351" width="220" x="35" y="50"><ns0:polygon fill="#003087" points=" -391300,-6536371 -391292,-6536363 -391288,-6536359 -391266,-6536343 -391255,-6536333 -391239,-6536312 -391221,-6536281 -391214,-6536272 -391188,-6536246 -391172,-6536227 -391168,-6536223 -391163,-6536220 -391156,-6536216 -391144,-6536212 -391129,-6536209 -391114,-6536207 -391073,-6536205 -391065,-6536204 -391018,-6536204 -390908,-6536217 -390859,-6536219 -390804,-6536225 -390689,-6536224 -390640,-6536223 -390623,-6536223 -390585,-6536224 -390579,-6536224 -390355,-6536229 -389826,-6536241 -389132,-6536257 -388697,-6534962 -388270,-6533679 -388064,-6533064 -387886,-6532545 -387566,-6531580 -387301,-6530794 -387165,-6530386 -386819,-6529344 -386712,-6529028 -386629,-6528785 -386564,-6528593 -386477,-6528342 -386301,-6527833 -386258,-6527708 -386148,-6527368 -386026,-6527009 -385992,-6526734 -385921,-6526216 -385867,-6525647 -385860,-6525575 -385381,-6521288 -384756,-6515825 -384814,-6515783 -385469,-6515315 -386069,-6514861 -386668,-6514407 -387216,-6513994 -387367,-6513892 -387509,-6513791 -387662,-6513686 -387867,-6513548 -387995,-6513462 -388112,-6513384 -388262,-6513285 -388377,-6513198 -388532,-6513081 -388622,-6513014 -389168,-6512600 -389169,-6512599 -389186,-6512586 -389201,-6512574 -389230,-6512553 -389256,-6512547 -389272,-6512553 -389291,-6512551 -389290,-6512539 -389327,-6512524 -389379,-6512518 -389419,-6512502 -389461,-6512480 -389463,-6512471 -389485,-6512456 -389517,-6512464 -389534,-6512450 -389622,-6512445 -389641,-6512422 -389654,-6512429 -389664,-6512433 -389677,-6512436 -389685,-6512436 -389690,-6512436 -389706,-6512432 -389743,-6512431 -389750,-6512444 -389753,-6512434 -389765,-6512441 -389770,-6512435 -389772,-6512433 -389772,-6512433 -389775,-6512430 -389777,-6512411 -389776,-6512403 -389774,-6512404 -389759,-6512404 -389760,-6512398 -389771,-6512379 -389789,-6512386 -389800,-6512386 -389804,-6512378 -389828,-6512379 -389858,-6512380 -389841,-6512363 -389874,-6512362 -389896,-6512377 -389906,-6512374 -389930,-6512360 -389939,-6512354 -389942,-6512353 -389979,-6512333 -390001,-6512345 -390002,-6512344 -390008,-6512339 -390021,-6512329 -390043,-6512335 -390044,-6512344 -390058,-6512341 -390061,-6512334 -390071,-6512329 -390083,-6512326 -390118,-6512323 -390120,-6512318 -390139,-6512314 -390146,-6512319 -390169,-6512315 -390194,-6512312 -390195,-6512312 -390220,-6512308 -390225,-6512305 -390229,-6512299 -390230,-6512291 -390229,-6512288 -390227,-6512286 -390224,-6512283 -390191,-6512269 -390179,-6512260 -390176,-6512257 -390171,-6512252 -390169,-6512248 -390167,-6512237 -390167,-6512231 -390168,-6512226 -390173,-6512218 -390180,-6512213 -390193,-6512208 -390198,-6512205 -390206,-6512197 -390208,-6512192 -390211,-6512184 -390231,-6512209 -390238,-6512216 -390247,-6512223 -390262,-6512215 -390252,-6512199 -390252,-6512192 -390264,-6512197 -390286,-6512214 -390300,-6512237 -390315,-6512237 -390328,-6512235 -390339,-6512232 -390355,-6512226 -390416,-6512191 -390446,-6512170 -390467,-6512199 -390489,-6512228 -390516,-6512244 -390526,-6512246 -390543,-6512243 -390546,-6512243 -390572,-6512249 -390610,-6512260 -390625,-6512264 -390647,-6512266 -390665,-6512265 -390683,-6512261 -390696,-6512256 -390776,-6512238 -390813,-6512232 -390890,-6512228 -390900,-6512228 -390908,-6512228 -390917,-6512226 -390927,-6512222 -390935,-6512217 -390957,-6512200 -390979,-6512198 -390990,-6512188 -391036,-6512177 -391181,-6512154 -391272,-6512142 -391278,-6512163 -391345,-6512162 -391346,-6512224 -391536,-6512168 -391580,-6512159 -391638,-6512143 -391674,-6512139 -391676,-6512147 -391841,-6512087 -391914,-6512059 -391919,-6512024 -392019,-6512006 -392062,-6512002 -392119,-6511999 -392152,-6511980 -392238,-6511954 -392290,-6511941 -392320,-6511936 -392383,-6511939 -392521,-6511936 -392542,-6511938 -392551,-6511941 -392626,-6511968 -392791,-6512042 -392884,-6512045 -392894,-6512044 -392917,-6512039 -392992,-6512016 -393009,-6512007 -393036,-6511989 -393067,-6511976 -393083,-6511971 -393105,-6511965 -393114,-6511964 -393150,-6511963 -393223,-6511945 -393238,-6511941 -393228,-6511914 -393279,-6511895 -393307,-6511887 -393315,-6511885 -393394,-6511877 -393503,-6511752 -393563,-6511663 -393571,-6511658 -393577,-6511657 -393610,-6511660 -393654,-6511660 -393688,-6511642 -393755,-6511610 -393828,-6511581 -393853,-6511572 -393911,-6511552 -393946,-6511540 -393969,-6511534 -393994,-6511531 -394003,-6511531 -394179,-6511546 -394190,-6511545 -394206,-6511541 -394213,-6511537 -394219,-6511532 -394224,-6511525 -394230,-6511509 -394243,-6511422 -394233,-6511414 -394256,-6511390 -394349,-6511338 -394486,-6511296 -394480,-6511282 -394544,-6511209 -394574,-6511247 -394637,-6511316 -394676,-6511356 -394723,-6511402 -394729,-6511407 -394748,-6511420 -394792,-6511442 -394810,-6511449 -394822,-6511458 -394897,-6511541 -394935,-6511582 -394954,-6511602 -394965,-6511613 -394998,-6511647 -395017,-6511670 -395028,-6511677 -395038,-6511682 -395053,-6511688 -395062,-6511691 -395119,-6511707 -395139,-6511713 -395149,-6511717 -395164,-6511725 -395191,-6511746 -395206,-6511755 -395230,-6511767 -395288,-6511793 -395403,-6511836 -395569,-6511903 -395611,-6511916 -395630,-6511923 -395664,-6511938 -395686,-6511949 -395724,-6511971 -395737,-6511980 -395749,-6511990 -395778,-6512018 -395825,-6512071 -395856,-6512103 -395865,-6512114 -395871,-6512123 -395901,-6512174 -395981,-6512273 -396014,-6512330 -396073,-6512446 -396150,-6512611 -396175,-6512689 -396209,-6512747 -396226,-6512746 -396242,-6512744 -396247,-6512767 -396242,-6512803 -396259,-6512861 -396258,-6512912 -396251,-6512983 -396274,-6513116 -396296,-6513205 -396334,-6513295 -396353,-6513329 -396385,-6513364 -396414,-6513389 -396422,-6513394 -396427,-6513399 -396435,-6513411 -396442,-6513430 -396453,-6513468 -396469,-6513553 -396481,-6513607 -396484,-6513621 -396501,-6513666 -396504,-6513672 -396508,-6513677 -396513,-6513681 -396519,-6513683 -396526,-6513685 -396533,-6513686 -396543,-6513685 -396569,-6513770 -396594,-6513867 -396601,-6513901 -396604,-6513916 -396628,-6514057 -396634,-6514113 -396638,-6514132 -396646,-6514155 -396665,-6514197 -396673,-6514216 -396687,-6514259 -396705,-6514307 -396711,-6514321 -396725,-6514347 -396747,-6514377 -396757,-6514389 -396774,-6514406 -396814,-6514468 -396816,-6514472 -396943,-6514368 -397066,-6514489 -397104,-6514406 -397153,-6514414 -397196,-6514416 -397215,-6514419 -397235,-6514423 -397259,-6514430 -397284,-6514438 -397317,-6514452 -397345,-6514468 -397357,-6514476 -397371,-6514491 -397381,-6514508 -397389,-6514527 -397391,-6514536 -397393,-6514553 -397393,-6514590 -397392,-6514609 -397389,-6514627 -397377,-6514653 -397343,-6514726 -397319,-6514769 -397343,-6514784 -397353,-6514769 -397471,-6514843 -397571,-6514907 -397619,-6514920 -397622,-6514990 -397623,-6514991 -397639,-6514994 -397661,-6514995 -397684,-6514994 -397718,-6514989 -397738,-6514983 -397749,-6514978 -397763,-6514969 -397779,-6514956 -397788,-6514949 -397813,-6514925 -397832,-6514905 -397851,-6514880 -397865,-6514857 -397871,-6514845 -397880,-6514822 -397898,-6514781 -397899,-6514819 -397915,-6514825 -397918,-6514817 -397920,-6514814 -397924,-6514811 -397929,-6514809 -397932,-6514809 -397936,-6514810 -397939,-6514812 -397942,-6514817 -397945,-6514827 -397947,-6514840 -397948,-6514847 -397940,-6514918 -397938,-6514968 -397890,-6515003 -397825,-6515056 -397741,-6515122 -397804,-6515214 -397831,-6515265 -397851,-6515263 -397864,-6515264 -397875,-6515267 -397884,-6515270 -397890,-6515274 -397917,-6515297 -397943,-6515324 -398025,-6515347 -398026,-6515397 -398023,-6515457 -398014,-6515545 -398007,-6515656 -398005,-6515683 -398029,-6515797 -398032,-6515807 -398041,-6515830 -398078,-6515895 -398081,-6515901 -398083,-6515908 -398084,-6515917 -398084,-6515926 -398083,-6515935 -398075,-6515961 -398067,-6515980 -398062,-6515989 -398050,-6516008 -398032,-6516029 -397964,-6516093 -397925,-6516135 -397896,-6516169 -397881,-6516182 -397870,-6516191 -397854,-6516202 -397813,-6516218 -397900,-6516264 -397948,-6516286 -397964,-6516294 -397988,-6516308 -398001,-6516316 -398008,-6516321 -398017,-6516329 -398033,-6516353 -398075,-6516429 -398088,-6516449 -398098,-6516461 -398121,-6516486 -398197,-6516508 -398280,-6516541 -398326,-6516554 -398398,-6516564 -398399,-6516570 -398398,-6516591 -398393,-6516616 -398389,-6516636 -398379,-6516675 -398356,-6516757 -398341,-6516824 -398323,-6516877 -398295,-6516976 -398285,-6517013 -398269,-6517032 -398256,-6517056 -398253,-6517092 -398247,-6517150 -398247,-6517167 -398247,-6517184 -398250,-6517207 -398279,-6517268 -398299,-6517311 -398314,-6517331 -398329,-6517349 -398340,-6517361 -398359,-6517378 -398374,-6517389 -398436,-6517418 -398494,-6517449 -398539,-6517484 -398516,-6517550 -398507,-6517621 -398523,-6517628 -398536,-6517634 -398553,-6517646 -398597,-6517681 -398671,-6517742 -398684,-6517753 -398710,-6517771 -398736,-6517786 -398744,-6517790 -398807,-6517618 -398869,-6517631 -398935,-6517649 -398963,-6517656 -399043,-6517672 -399091,-6517686 -399118,-6517691 -399139,-6517693 -399189,-6517692 -399270,-6517694 -399362,-6517688 -399382,-6517682 -399393,-6517678 -399397,-6517676 -399459,-6517592 -399508,-6517520 -399556,-6517459 -399574,-6517443 -399585,-6517436 -399595,-6517431 -399613,-6517424 -399624,-6517423 -399651,-6517425 -399665,-6517424 -399673,-6517422 -399686,-6517418 -399700,-6517411 -399720,-6517400 -399746,-6517380 -399770,-6517355 -399794,-6517343 -399801,-6517344 -399811,-6517350 -399827,-6517362 -399891,-6517407 -399929,-6517436 -399956,-6517462 -399995,-6517505 -400013,-6517528 -400028,-6517554 -400034,-6517562 -400042,-6517568 -400053,-6517573 -400064,-6517576 -400102,-6517581 -400126,-6517583 -400179,-6517583 -400209,-6517582 -400232,-6517580 -400265,-6517574 -400288,-6517568 -400300,-6517565 -400328,-6517553 -400340,-6517553 -400344,-6517554 -400350,-6517557 -400363,-6517565 -400390,-6517586 -400404,-6517592 -400437,-6517600 -400458,-6517608 -400465,-6517610 -400475,-6517609 -400486,-6517604 -400499,-6517595 -400503,-6517591 -400520,-6517569 -400527,-6517563 -400532,-6517559 -400556,-6517545 -400565,-6517538 -400576,-6517526 -400610,-6517486 -400635,-6517464 -400644,-6517458 -400780,-6517616 -400829,-6517639 -400861,-6517652 -400882,-6517662 -400899,-6517675 -400983,-6517747 -401013,-6517769 -401020,-6517773 -401028,-6517776 -401034,-6517778 -401041,-6517779 -401063,-6517779 -401075,-6517780 -401097,-6517784 -401117,-6517791 -401140,-6517806 -401146,-6517803 -401155,-6517798 -401168,-6517797 -401168,-6517822 -401168,-6517855 -401173,-6517862 -401179,-6517868 -401198,-6517883 -401227,-6517907 -401240,-6517915 -401262,-6517927 -401249,-6517973 -401306,-6517994 -401339,-6518007 -401378,-6518020 -401395,-6518025 -401406,-6518027 -401417,-6518027 -401451,-6518027 -401466,-6518028 -401499,-6518037 -401527,-6518042 -401546,-6518047 -401563,-6518056 -401569,-6518061 -401574,-6518066 -401580,-6518075 -401582,-6518086 -401583,-6518099 -401582,-6518108 -401577,-6518123 -401557,-6518162 -401775,-6518206 -401792,-6518219 -401800,-6518228 -401814,-6518250 -401824,-6518260 -401831,-6518265 -401839,-6518269 -401847,-6518272 -401861,-6518273 -401923,-6518272 -401941,-6518270 -401963,-6518266 -401986,-6518261 -402003,-6518256 -402035,-6518244 -402042,-6518242 -402036,-6518271 -402044,-6518276 -402054,-6518286 -402059,-6518296 -402064,-6518316 -402068,-6518325 -402077,-6518337 -402082,-6518342 -402087,-6518346 -402094,-6518349 -402103,-6518352 -402132,-6518359 -402180,-6518366 -402212,-6518368 -402220,-6518370 -402222,-6518371 -402224,-6518373 -402224,-6518375 -402222,-6518380 -402218,-6518383 -402205,-6518390 -402201,-6518394 -402198,-6518400 -402196,-6518408 -402197,-6518419 -402202,-6518448 -402205,-6518456 -402211,-6518468 -402217,-6518480 -402225,-6518490 -402237,-6518503 -402250,-6518515 -402263,-6518524 -402277,-6518533 -402298,-6518543 -402295,-6518714 -402289,-6518842 -402290,-6518924 -402307,-6519003 -402354,-6519124 -402360,-6519172 -402354,-6519195 -402346,-6519242 -402335,-6519299 -402360,-6519311 -402353,-6519461 -402324,-6519562 -402321,-6519640 -402328,-6519737 -402313,-6519825 -402413,-6519834 -402501,-6519839 -402532,-6519844 -402541,-6519847 -402554,-6519851 -402595,-6519870 -402608,-6519873 -402614,-6519872 -402619,-6519870 -402625,-6519867 -402640,-6519852 -402646,-6519849 -402667,-6519838 -402693,-6519828 -402744,-6519815 -402784,-6519801 -402803,-6519799 -402818,-6519798 -402837,-6519799 -402854,-6519801 -402873,-6519804 -402889,-6519808 -402895,-6519811 -402911,-6519884 -402933,-6519870 -402944,-6519865 -402961,-6519860 -403005,-6519851 -403030,-6519851 -403055,-6519846 -403068,-6519842 -403083,-6519837 -403100,-6519829 -403147,-6519818 -403164,-6519817 -403175,-6519819 -403184,-6519822 -403205,-6519833 -403221,-6519840 -403238,-6519846 -403254,-6519850 -403265,-6519853 -403275,-6519854 -403284,-6519854 -403305,-6519850 -403313,-6519847 -403404,-6519802 -403408,-6519884 -403390,-6520026 -403386,-6520077 -403363,-6520090 -403414,-6520166 -403437,-6520199 -403457,-6520218 -403474,-6520230 -403489,-6520240 -403501,-6520246 -403526,-6520257 -403571,-6520273 -403617,-6520293 -403644,-6520312 -403657,-6520319 -403680,-6520330 -403701,-6520339 -403733,-6520351 -403765,-6520359 -403871,-6520379 -403878,-6520526 -403881,-6520578 -403883,-6520807 -403876,-6520891 -403873,-6520953 -403874,-6521076 -403879,-6521302 -403881,-6521402 -403881,-6521412 -403874,-6521545 -403873,-6521707 -403888,-6521720 -403886,-6521766 -403890,-6521786 -403892,-6521802 -403901,-6521816 -403908,-6521822 -403911,-6521826 -403912,-6521830 -403912,-6521835 -403912,-6521841 -403862,-6521937 -403769,-6521915 -403766,-6521939 -403763,-6521950 -403758,-6521964 -403749,-6521981 -403741,-6521994 -403728,-6522009 -403687,-6522046 -403679,-6522055 -403663,-6522072 -403652,-6522087 -403642,-6522102 -403625,-6522133 -403593,-6522209 -403582,-6522238 -403572,-6522269 -403560,-6522313 -403553,-6522350 -403548,-6522392 -403547,-6522411 -403548,-6522434 -403550,-6522451 -403554,-6522470 -403560,-6522490 -403563,-6522506 -403567,-6522528 -403568,-6522545 -403569,-6522562 -403568,-6522588 -403567,-6522605 -403564,-6522631 -403558,-6522656 -403552,-6522672 -403537,-6522705 -403515,-6522762 -403501,-6522808 -403487,-6522869 -403548,-6522903 -403541,-6523052 -403508,-6523044 -403495,-6523043 -403471,-6523041 -403451,-6523041 -403421,-6523044 -403399,-6523049 -403373,-6523056 -403347,-6523065 -403077,-6523184 -402919,-6523236 -402899,-6523245 -402874,-6523259 -402853,-6523276 -402829,-6523300 -402785,-6523340 -402721,-6523397 -402628,-6523484 -402600,-6523504 -402575,-6523516 -402565,-6523534 -402534,-6523557 -402491,-6523591 -402476,-6523610 -402468,-6523623 -402461,-6523640 -402455,-6523657 -402450,-6523681 -402444,-6523753 -402441,-6523764 -402437,-6523777 -402433,-6523786 -402428,-6523796 -402420,-6523806 -402407,-6523820 -402347,-6523867 -402245,-6523966 -402172,-6524045 -402107,-6524046 -401996,-6524052 -401969,-6524055 -401957,-6524055 -401934,-6524052 -401922,-6524050 -401900,-6524043 -401849,-6524015 -401828,-6524023 -401821,-6524028 -401815,-6524030 -401806,-6524031 -401764,-6524022 -401639,-6523993 -401616,-6523998 -401552,-6524008 -401546,-6524001 -401506,-6524010 -401497,-6524020 -401478,-6524031 -401473,-6524035 -401469,-6524038 -401423,-6524103 -401352,-6524115 -401332,-6524123 -401291,-6524144 -401202,-6524173 -401079,-6524219 -401040,-6524222 -401035,-6524224 -401020,-6524228 -400969,-6524238 -400891,-6524238 -400862,-6524228 -400852,-6524224 -400816,-6524190 -400789,-6524204 -400775,-6524209 -400755,-6524214 -400740,-6524218 -400704,-6524222 -400682,-6524232 -400630,-6524256 -400578,-6524294 -400468,-6524371 -400456,-6524381 -400449,-6524386 -400443,-6524389 -400435,-6524392 -400424,-6524395 -400414,-6524395 -400403,-6524395 -400393,-6524392 -400384,-6524389 -400378,-6524386 -400336,-6524360 -400333,-6524360 -400328,-6524361 -400324,-6524363 -400319,-6524370 -400311,-6524363 -400301,-6524359 -400257,-6524314 -400240,-6524328 -400217,-6524336 -400213,-6524329 -400208,-6524325 -400204,-6524324 -400198,-6524323 -400192,-6524325 -400120,-6524335 -400114,-6524315 -400111,-6524315 -400085,-6524323 -400053,-6524336 -400035,-6524348 -400024,-6524354 -400006,-6524362 -399947,-6524382 -399932,-6524388 -399901,-6524403 -399890,-6524407 -399855,-6524418 -399871,-6524446 -399874,-6524455 -399878,-6524471 -399882,-6524492 -399886,-6524520 -399887,-6524546 -399887,-6524563 -399885,-6524580 -399882,-6524602 -399879,-6524613 -399764,-6524625 -399743,-6524625 -399731,-6524624 -399707,-6524620 -399602,-6524669 -399551,-6524715 -399511,-6524688 -399488,-6524682 -399483,-6524694 -399485,-6524713 -399490,-6524732 -399495,-6524743 -399497,-6524752 -399498,-6524761 -399497,-6524769 -399493,-6524788 -399484,-6524820 -399482,-6524832 -399461,-6524919 -399448,-6524920 -399395,-6524935 -399304,-6524963 -399290,-6524965 -399268,-6525113 -399278,-6525221 -399309,-6525307 -399369,-6525420 -399394,-6525485 -399412,-6525509 -399405,-6525518 -399391,-6525533 -399366,-6525529 -399358,-6525525 -399341,-6525562 -399296,-6525653 -399301,-6525724 -399307,-6525722 -399308,-6525753 -399297,-6525756 -399301,-6525797 -399302,-6525810 -399336,-6525806 -399387,-6525822 -399445,-6525837 -399427,-6526025 -399446,-6526035 -399492,-6526056 -399486,-6526120 -399502,-6526186 -399507,-6526249 -399513,-6526270 -399512,-6526279 -399514,-6526284 -399516,-6526289 -399521,-6526292 -399524,-6526294 -399528,-6526287 -399802,-6526263 -399780,-6526331 -399773,-6526361 -399768,-6526388 -399763,-6526420 -399760,-6526453 -399758,-6526482 -399757,-6526531 -399755,-6526547 -399750,-6526582 -399746,-6526603 -399735,-6526639 -399721,-6526674 -399712,-6526692 -399693,-6526727 -399682,-6526744 -399659,-6526776 -399653,-6526784 -399630,-6526809 -399544,-6526889 -399516,-6526914 -399368,-6527040 -399345,-6527061 -399322,-6527084 -399292,-6527117 -399262,-6527156 -399240,-6527190 -399215,-6527235 -399182,-6527289 -399167,-6527306 -399158,-6527316 -399150,-6527328 -399138,-6527351 -399115,-6527402 -399091,-6527427 -399060,-6527472 -398955,-6527646 -398904,-6527743 -398857,-6527842 -398837,-6527893 -398835,-6527899 -398836,-6527996 -398833,-6528024 -398831,-6528035 -398824,-6528061 -398811,-6528102 -398809,-6528113 -398809,-6528133 -398813,-6528172 -398817,-6528259 -398817,-6528334 -398813,-6528408 -398821,-6528434 -398856,-6528527 -398864,-6528540 -398890,-6528569 -398901,-6528592 -398913,-6528625 -398917,-6528640 -398920,-6528658 -398923,-6528677 -398926,-6528722 -398926,-6528751 -398928,-6528776 -398937,-6528817 -398954,-6528870 -398963,-6528901 -398974,-6528971 -398978,-6529034 -398983,-6529070 -398983,-6529090 -398977,-6529119 -398930,-6529116 -398922,-6529223 -398921,-6529244 -398922,-6529252 -398923,-6529260 -398950,-6529294 -398961,-6529305 -399008,-6529403 -398996,-6529423 -398990,-6529439 -398986,-6529460 -398988,-6529471 -399001,-6529596 -399009,-6529637 -399018,-6529666 -399020,-6529676 -399021,-6529689 -398993,-6529702 -398978,-6529706 -398942,-6529712 -398911,-6529715 -398918,-6529757 -398872,-6529768 -398820,-6529784 -398804,-6529791 -398754,-6529792 -398742,-6529872 -398706,-6529869 -398655,-6529872 -398617,-6529878 -398584,-6529951 -398574,-6529972 -398566,-6529985 -398564,-6529991 -398559,-6530015 -398544,-6530058 -398536,-6530084 -398516,-6530074 -398512,-6530074 -398504,-6530078 -398495,-6530083 -398484,-6530093 -398477,-6530129 -398457,-6530163 -398446,-6530182 -398436,-6530206 -398432,-6530207 -398424,-6530206 -398402,-6530198 -398297,-6530262 -398203,-6530329 -398171,-6530354 -398157,-6530367 -398151,-6530375 -398140,-6530392 -398129,-6530412 -398124,-6530424 -398113,-6530456 -398090,-6530508 -398068,-6530554 -398042,-6530603 -398037,-6530616 -398031,-6530638 -398022,-6530687 -398020,-6530723 -398021,-6530763 -398008,-6530763 -397999,-6530838 -397979,-6530830 -397975,-6530837 -397961,-6530835 -397950,-6530871 -397949,-6530874 -397962,-6530884 -397957,-6530895 -397961,-6530901 -397955,-6530919 -397971,-6530929 -397978,-6530931 -397981,-6530937 -397981,-6530938 -397958,-6530958 -397949,-6530997 -397964,-6531000 -397958,-6531021 -397908,-6531094 -397904,-6531109 -397884,-6531133 -397867,-6531163 -397829,-6531161 -397810,-6531163 -397784,-6531154 -397759,-6531126 -397753,-6531126 -397743,-6531126 -397738,-6531127 -397731,-6531137 -397726,-6531156 -397728,-6531177 -397726,-6531198 -397653,-6531197 -397632,-6531194 -397606,-6531233 -397580,-6531215 -397562,-6531239 -397552,-6531256 -397540,-6531283 -397528,-6531316 -397520,-6531331 -397504,-6531356 -397478,-6531393 -397466,-6531406 -397459,-6531418 -397452,-6531430 -397449,-6531439 -397446,-6531448 -397443,-6531461 -397441,-6531478 -397432,-6531649 -397415,-6531654 -397386,-6531694 -397370,-6531695 -397346,-6531679 -397295,-6531640 -397298,-6531565 -397263,-6531559 -397224,-6531543 -397201,-6531531 -397188,-6531522 -397171,-6531510 -397159,-6531500 -397145,-6531485 -397133,-6531468 -397122,-6531449 -397115,-6531430 -397109,-6531401 -397102,-6531324 -397102,-6531306 -397101,-6531221 -397104,-6531206 -397058,-6531170 -397023,-6531146 -396915,-6531104 -396902,-6531097 -396889,-6531090 -396859,-6531070 -396828,-6531040 -396823,-6531048 -396801,-6531070 -396733,-6531121 -396696,-6531153 -396675,-6531169 -396652,-6531190 -396617,-6531231 -396572,-6531291 -396563,-6531305 -396554,-6531355 -396550,-6531413 -396549,-6531455 -396551,-6531523 -396550,-6531547 -396545,-6531618 -396544,-6531701 -396543,-6531732 -396541,-6531762 -396531,-6531810 -396530,-6531832 -396534,-6531850 -396544,-6531881 -396550,-6531904 -396555,-6531919 -396560,-6531933 -396575,-6531962 -396584,-6531982 -396589,-6531994 -396594,-6532014 -396596,-6532038 -396612,-6532154 -396595,-6532154 -396582,-6532155 -396572,-6532160 -396551,-6532181 -396518,-6532219 -396465,-6532284 -396445,-6532316 -396433,-6532337 -396428,-6532343 -396417,-6532352 -396403,-6532362 -396395,-6532367 -396377,-6532376 -396337,-6532403 -396309,-6532416 -396293,-6532425 -396253,-6532431 -396192,-6532444 -396162,-6532445 -396120,-6532451 -396079,-6532453 -396055,-6532451 -396025,-6532444 -395994,-6532437 -395920,-6532415 -395893,-6532412 -395886,-6532412 -395872,-6532416 -395834,-6532418 -395733,-6532419 -395697,-6532423 -395685,-6532426 -395673,-6532429 -395647,-6532442 -395615,-6532455 -395601,-6532462 -395595,-6532462 -395575,-6532460 -395519,-6532455 -395474,-6532449 -395431,-6532434 -395372,-6532425 -395359,-6532427 -395277,-6532458 -395236,-6532476 -395190,-6532500 -395136,-6532530 -395106,-6532552 -395085,-6532570 -395077,-6532559 -394944,-6532629 -394872,-6532662 -394859,-6532669 -394799,-6532703 -394743,-6532732 -394680,-6532767 -394663,-6532778 -394620,-6532811 -394607,-6532818 -394594,-6532822 -394561,-6532827 -394528,-6532836 -394512,-6532844 -394493,-6532857 -394481,-6532868 -394475,-6532874 -394474,-6532875 -394493,-6532903 -394435,-6533140 -394322,-6533118 -394292,-6533221 -394282,-6533262 -394270,-6533300 -394257,-6533349 -394253,-6533365 -394243,-6533394 -394233,-6533417 -394224,-6533436 -394214,-6533455 -394201,-6533474 -394185,-6533495 -394148,-6533536 -394120,-6533570 -394094,-6533595 -394072,-6533614 -394030,-6533641 -394001,-6533658 -393987,-6533668 -393970,-6533688 -393965,-6533695 -393962,-6533701 -393961,-6533707 -393960,-6533714 -393960,-6533723 -393962,-6533736 -393964,-6533745 -393972,-6533769 -393974,-6533783 -393974,-6533791 -393971,-6533824 -393972,-6533849 -393979,-6533901 -393987,-6533939 -393988,-6533965 -393986,-6533982 -393977,-6534017 -393972,-6534044 -393971,-6534060 -393971,-6534074 -393972,-6534089 -393975,-6534115 -393901,-6534090 -393900,-6534091 -393870,-6534136 -393766,-6534261 -393743,-6534292 -393721,-6534323 -393696,-6534360 -393600,-6534289 -393528,-6534221 -393521,-6534228 -393311,-6534132 -393266,-6534240 -393106,-6534166 -392952,-6534124 -392928,-6534222 -392914,-6534287 -392909,-6534339 -392911,-6534383 -392893,-6534387 -392878,-6534389 -392861,-6534390 -392807,-6534388 -392751,-6534384 -392847,-6534511 -392612,-6534722 -392507,-6534760 -392505,-6534795 -392465,-6534810 -392442,-6534842 -392420,-6534820 -392413,-6534824 -392386,-6534845 -392317,-6534912 -392223,-6535013 -392195,-6535040 -392182,-6535052 -392170,-6535062 -392138,-6535083 -392075,-6535119 -392028,-6535144 -392014,-6535153 -392002,-6535163 -391990,-6535173 -391973,-6535189 -391909,-6535228 -391844,-6535254 -391845,-6535274 -391845,-6535301 -391836,-6535364 -391836,-6535384 -391861,-6535576 -391866,-6535616 -391866,-6535630 -391861,-6535662 -391861,-6535668 -391864,-6535677 -391867,-6535682 -391871,-6535686 -391886,-6535695 -391889,-6535697 -391893,-6535708 -391893,-6535789 -391896,-6535876 -391896,-6535954 -391899,-6536020 -391906,-6536097 -391909,-6536122 -391917,-6536163 -391937,-6536251 -391942,-6536282 -391945,-6536306 -391947,-6536334 -391945,-6536416 -391924,-6536408 -391900,-6536399 -391870,-6536390 -391847,-6536385 -391799,-6536377 -391771,-6536375 -391708,-6536371 -391617,-6536360 -391573,-6536360 -391540,-6536361 -391539,-6536361 -391459,-6536560 -391356,-6536448 -391318,-6536398 -391300,-6536371" stroke="#003087" stroke-width="44" /></ns0:svg>    <rect x="20" y="50"  width="250" height="25"  rx="0"  fill="#003087" fill-opacity="0.8" />    <text x="145" y="70" text-anchor="middle" font-family="Frutiger" font-weight="bold" font-size="30" fill="white">Torbay</text>    <rect x="35" y="195" width="220" height="160" rx="15" fill="#41B6E6"/>    <g font-family="Frutiger" font-size="15" fill="white">        <g> <text x="45" y="218">Self-harm</text> <text x="245" y="218" text-anchor="end">93</text> </g>        <g> <text x="45" y="243">SEN</text> <text x="245" y="243" text-anchor="end">100</text> </g>        <g> <text x="45" y="268">Difficulties</text> <text x="245" y="268" text-anchor="end">80</text> </g>        <g> <text x="45" y="293">Child Carer</text> <text x="245" y="293" text-anchor="end">19</text> </g>        <g> <text x="45" y="318">Drinkers</text> <text x="245" y="318" text-anchor="end">52</text> </g>        <g> <text x="45" y="343">Safeguarding £</text> <text x="245" y="343" text-anchor="end">49</text> </g>    </g></svg>