<?xml version="1.0" standalone="no"?>
<!DOCTYPE svg PUBLIC "-//W3C//DTD SVG 1.1//EN"
"http://www.w3.org/Graphics/SVG/1.1/DTD/svg11.dtd">
<svg height="1800" version="1.1" width="1800" xmlns="http://www.w3.org/2000/svg"><defs><style type="text/css">@font-face {font-family: 'Frutiger';font-style: normal;font-weight: normal;src: local('Frutiger'), url('../fonts/Frutiger.woff') format('woff');}@font-face {font-family: 'Frutiger Bold';font-style: normal;font-weight: normal;src: local('Frutiger Bold'), url('../fonts/Frutiger_bold.woff') format('woff');}        </style>    </defs>    <rect x="20" y="20"  width="250" height="350" rx="15" fill="#AE2573" />    <rect x="35" y="35"  width="220" height="145" rx="15" fill="#330072" /><ns0:svg xmlns:ns0="http://www.w3.org/2000/svg" height="115" version="1.1" viewBox="-207625 -6744753 29201 37671" width="220" x="35" y="50"><ns0:polygon fill="white" points=" -188191,-6744643 -188139,-6744636 -188060,-6744640 -187972,-6744660 -187968,-6744660 -187958,-6744656 -187947,-6744652 -187939,-6744646 -187931,-6744639 -187924,-6744630 -187898,-6744575 -187886,-6744558 -187867,-6744538 -187861,-6744533 -187842,-6744520 -187803,-6744501 -187788,-6744495 -187749,-6744483 -187683,-6744467 -187666,-6744466 -187630,-6744467 -187610,-6744470 -187589,-6744475 -187572,-6744479 -187551,-6744490 -187542,-6744493 -187524,-6744495 -187511,-6744494 -187500,-6744491 -187487,-6744485 -187478,-6744480 -187472,-6744475 -187463,-6744467 -187452,-6744455 -187444,-6744445 -187432,-6744429 -187400,-6744368 -187375,-6744308 -187357,-6744286 -187444,-6744208 -187452,-6744051 -187516,-6744053 -187593,-6744089 -187637,-6744110 -187741,-6744139 -187812,-6744098 -187852,-6744049 -187858,-6744036 -187859,-6744030 -187859,-6744010 -187860,-6744000 -187864,-6743989 -187872,-6743975 -187901,-6743938 -187908,-6743927 -187926,-6743900 -187932,-6743868 -187988,-6743828 -188011,-6743813 -188110,-6743804 -188180,-6743801 -188231,-6743791 -188238,-6743790 -188243,-6743789 -188248,-6743786 -188252,-6743782 -188257,-6743775 -188261,-6743767 -188263,-6743755 -188254,-6743692 -188255,-6743683 -188256,-6743678 -188260,-6743670 -188301,-6743647 -188352,-6743627 -188380,-6743593 -188411,-6743542 -188455,-6743506 -188462,-6743500 -188465,-6743497 -188466,-6743492 -188467,-6743485 -188465,-6743480 -188443,-6743444 -188439,-6743431 -188439,-6743420 -188441,-6743414 -188444,-6743408 -188455,-6743396 -188458,-6743391 -188461,-6743385 -188462,-6743379 -188463,-6743373 -188453,-6743311 -188457,-6743273 -188479,-6743200 -188495,-6743167 -188511,-6743152 -188577,-6743136 -188607,-6743078 -188636,-6743058 -188647,-6743057 -188669,-6743057 -188681,-6743054 -188690,-6743048 -188698,-6743040 -188750,-6742963 -188855,-6742850 -188868,-6742784 -188880,-6742772 -188889,-6742763 -188894,-6742757 -188897,-6742751 -188898,-6742746 -188899,-6742734 -188892,-6742653 -188873,-6742606 -188860,-6742564 -188847,-6742514 -188843,-6742505 -188837,-6742494 -188830,-6742486 -188822,-6742479 -188814,-6742473 -188805,-6742467 -188789,-6742461 -188730,-6742447 -188726,-6742445 -188715,-6742439 -188708,-6742432 -188670,-6742352 -188664,-6742336 -188663,-6742326 -188662,-6742316 -188665,-6742287 -188673,-6742215 -188708,-6742164 -188740,-6742127 -188749,-6742121 -188758,-6742118 -188767,-6742117 -188797,-6742124 -188801,-6742124 -188805,-6742123 -188811,-6742118 -188814,-6742112 -188841,-6742086 -188852,-6742079 -188863,-6742076 -188886,-6742076 -188895,-6742077 -188902,-6742075 -188906,-6742072 -188909,-6742069 -188912,-6742063 -188925,-6742049 -188938,-6742038 -188955,-6742035 -188970,-6742031 -188978,-6742027 -188986,-6742022 -188994,-6742016 -189000,-6742009 -189005,-6742000 -189011,-6741989 -189015,-6741976 -189017,-6741969 -189017,-6741957 -189016,-6741948 -189016,-6741942 -189018,-6741937 -189021,-6741932 -189052,-6741906 -189082,-6741853 -189092,-6741850 -189096,-6741847 -189100,-6741842 -189103,-6741837 -189104,-6741828 -189104,-6741822 -189102,-6741817 -189092,-6741800 -189081,-6741778 -189077,-6741768 -189072,-6741745 -189072,-6741727 -189080,-6741675 -189079,-6741624 -189085,-6741522 -189086,-6741489 -189077,-6741436 -189073,-6741433 -189100,-6741369 -189106,-6741340 -189107,-6741330 -189109,-6741325 -189116,-6741319 -189140,-6741311 -189130,-6741295 -189127,-6741284 -189145,-6741259 -189134,-6741236 -189149,-6741221 -189158,-6741199 -189175,-6741183 -189190,-6741155 -189208,-6741134 -189240,-6741118 -189249,-6741113 -189258,-6741090 -189260,-6741083 -189271,-6741018 -189273,-6740963 -189279,-6740888 -189264,-6740808 -189238,-6740715 -189225,-6740690 -189209,-6740665 -189192,-6740642 -189178,-6740626 -189159,-6740607 -189134,-6740588 -189118,-6740580 -189109,-6740577 -189091,-6740576 -189086,-6740576 -188999,-6740605 -188990,-6740605 -188986,-6740604 -188980,-6740600 -188977,-6740596 -188968,-6740573 -188960,-6740555 -188958,-6740552 -188953,-6740548 -188947,-6740545 -188941,-6740544 -188935,-6740544 -188912,-6740551 -188901,-6740552 -188888,-6740552 -188875,-6740551 -188864,-6740548 -188854,-6740544 -188843,-6740538 -188834,-6740532 -188823,-6740520 -188814,-6740508 -188801,-6740482 -188799,-6740474 -188793,-6740464 -188785,-6740457 -188779,-6740453 -188772,-6740451 -188763,-6740449 -188754,-6740449 -188746,-6740451 -188737,-6740455 -188733,-6740457 -188722,-6740472 -188715,-6740478 -188708,-6740480 -188703,-6740480 -188696,-6740477 -188676,-6740461 -188673,-6740458 -188666,-6740455 -188659,-6740453 -188654,-6740453 -188641,-6740454 -188629,-6740461 -188622,-6740464 -188614,-6740465 -188605,-6740464 -188597,-6740461 -188590,-6740457 -188586,-6740453 -188582,-6740447 -188578,-6740439 -188575,-6740428 -188573,-6740417 -188573,-6740405 -188574,-6740399 -188604,-6740372 -188610,-6740364 -188614,-6740357 -188616,-6740352 -188616,-6740347 -188614,-6740338 -188604,-6740317 -188601,-6740306 -188599,-6740296 -188599,-6740278 -188614,-6740178 -188603,-6740117 -188602,-6740089 -188605,-6740073 -188605,-6740066 -188604,-6740055 -188603,-6740048 -188602,-6740042 -188598,-6740033 -188592,-6740025 -188585,-6740018 -188556,-6739995 -188547,-6739988 -188543,-6739985 -188536,-6739973 -188534,-6739967 -188532,-6739950 -188528,-6739943 -188523,-6739935 -188517,-6739928 -188511,-6739924 -188505,-6739921 -188493,-6739917 -188479,-6739910 -188462,-6739897 -188457,-6739891 -188446,-6739875 -188431,-6739829 -188389,-6739762 -188381,-6739758 -188376,-6739756 -188371,-6739756 -188365,-6739758 -188356,-6739763 -188343,-6739768 -188337,-6739772 -188328,-6739774 -188322,-6739774 -188316,-6739773 -188310,-6739771 -188305,-6739767 -188298,-6739758 -188285,-6739730 -188238,-6739682 -188281,-6739677 -188285,-6739675 -188289,-6739671 -188291,-6739666 -188290,-6739660 -188288,-6739655 -188283,-6739650 -188254,-6739614 -188207,-6739570 -188202,-6739565 -188199,-6739560 -188197,-6739552 -188197,-6739546 -188197,-6739541 -188215,-6739502 -188197,-6739464 -188195,-6739447 -188195,-6739441 -188196,-6739433 -188199,-6739424 -188203,-6739415 -188208,-6739406 -188213,-6739399 -188220,-6739393 -188241,-6739377 -188239,-6739300 -188190,-6739247 -188082,-6739080 -188079,-6739048 -188079,-6739037 -188076,-6739018 -188058,-6738974 -188052,-6738938 -188035,-6738893 -188036,-6738834 -188035,-6738809 -188037,-6738801 -188039,-6738797 -188045,-6738791 -188052,-6738787 -188093,-6738780 -188097,-6738778 -188102,-6738774 -188107,-6738769 -188110,-6738762 -188112,-6738755 -188112,-6738750 -188091,-6738681 -188083,-6738617 -188085,-6738612 -188084,-6738606 -188082,-6738602 -188078,-6738599 -188048,-6738593 -188039,-6738591 -188032,-6738587 -188028,-6738580 -188027,-6738575 -188027,-6738570 -188029,-6738564 -188041,-6738432 -188042,-6738406 -188028,-6738364 -188019,-6738344 -188009,-6738336 -187976,-6738326 -187972,-6738325 -187969,-6738322 -187966,-6738318 -187963,-6738313 -187962,-6738304 -187969,-6738282 -187990,-6738204 -187993,-6738161 -187995,-6738151 -188001,-6738128 -188010,-6738108 -188016,-6738101 -188035,-6738088 -188058,-6738075 -188066,-6738069 -188114,-6738017 -188146,-6737980 -188178,-6737952 -188184,-6737949 -188190,-6737944 -188193,-6737937 -188197,-6737928 -188198,-6737924 -188191,-6737921 -188189,-6737919 -188185,-6737913 -188183,-6737908 -188183,-6737904 -188184,-6737899 -188187,-6737895 -188190,-6737893 -188208,-6737886 -188218,-6737878 -188209,-6737849 -188207,-6737835 -188209,-6737818 -188217,-6737799 -188219,-6737791 -188222,-6737788 -188226,-6737784 -188231,-6737782 -188237,-6737781 -188242,-6737783 -188245,-6737785 -188254,-6737805 -188256,-6737816 -188258,-6737818 -188262,-6737820 -188269,-6737821 -188278,-6737821 -188285,-6737819 -188291,-6737817 -188300,-6737811 -188318,-6737797 -188354,-6737762 -188359,-6737755 -188364,-6737749 -188369,-6737744 -188384,-6737737 -188390,-6737734 -188403,-6737724 -188412,-6737720 -188417,-6737715 -188421,-6737710 -188430,-6737695 -188431,-6737666 -188428,-6737654 -188423,-6737644 -188418,-6737639 -188408,-6737632 -188370,-6737619 -188361,-6737614 -188357,-6737609 -188353,-6737603 -188350,-6737592 -188344,-6737585 -188341,-6737583 -188321,-6737576 -188317,-6737573 -188312,-6737568 -188309,-6737563 -188309,-6737556 -188311,-6737550 -188324,-6737531 -188342,-6737496 -188347,-6737489 -188348,-6737484 -188348,-6737481 -188345,-6737475 -188336,-6737466 -188329,-6737464 -188225,-6737472 -188167,-6737504 -188039,-6737545 -188028,-6737547 -188021,-6737546 -187978,-6737534 -187933,-6737522 -187922,-6737522 -187908,-6737525 -187895,-6737532 -187893,-6737533 -187890,-6737540 -187886,-6737543 -187882,-6737544 -187878,-6737544 -187876,-6737543 -187870,-6737539 -187786,-6737522 -187729,-6737519 -187724,-6737518 -187720,-6737517 -187715,-6737514 -187710,-6737510 -187708,-6737506 -187706,-6737499 -187706,-6737494 -187708,-6737488 -187713,-6737479 -187741,-6737446 -187743,-6737442 -187744,-6737437 -187744,-6737432 -187743,-6737426 -187741,-6737422 -187737,-6737419 -187730,-6737418 -187684,-6737429 -187672,-6737426 -187667,-6737424 -187661,-6737417 -187650,-6737396 -187646,-6737387 -187642,-6737375 -187640,-6737361 -187640,-6737348 -187641,-6737336 -187643,-6737324 -187649,-6737304 -187670,-6737251 -187672,-6737245 -187672,-6737238 -187670,-6737231 -187668,-6737225 -187664,-6737220 -187660,-6737217 -187654,-6737216 -187648,-6737217 -187644,-6737219 -187640,-6737222 -187619,-6737248 -187610,-6737255 -187603,-6737259 -187593,-6737263 -187581,-6737266 -187570,-6737267 -187562,-6737263 -187555,-6737257 -187549,-6737248 -187544,-6737236 -187543,-6737225 -187543,-6737200 -187550,-6737173 -187549,-6737164 -187512,-6737123 -187506,-6737119 -187501,-6737118 -187495,-6737119 -187491,-6737121 -187487,-6737125 -187483,-6737130 -187480,-6737139 -187479,-6737169 -187476,-6737175 -187474,-6737176 -187472,-6737177 -187468,-6737176 -187465,-6737175 -187462,-6737171 -187443,-6737156 -187383,-6737116 -187374,-6737106 -187369,-6737099 -187365,-6737092 -187363,-6737084 -187362,-6737067 -187363,-6737056 -187365,-6737044 -187367,-6737038 -187377,-6737013 -187383,-6736993 -187387,-6736982 -187388,-6736954 -187390,-6736950 -187390,-6736947 -187388,-6736943 -187385,-6736941 -187381,-6736942 -187367,-6736958 -187364,-6736963 -187361,-6736966 -187356,-6736968 -187352,-6736969 -187348,-6736969 -187345,-6736968 -187341,-6736965 -187338,-6736962 -187316,-6736913 -187311,-6736882 -187308,-6736875 -187302,-6736871 -187294,-6736869 -187289,-6736870 -187285,-6736871 -187269,-6736879 -187262,-6736878 -187258,-6736876 -187254,-6736872 -187252,-6736869 -187248,-6736852 -187244,-6736848 -187240,-6736845 -187218,-6736838 -187211,-6736824 -187216,-6736793 -187213,-6736764 -187209,-6736754 -187204,-6736746 -187201,-6736742 -187195,-6736737 -187189,-6736735 -187185,-6736733 -187177,-6736732 -187173,-6736730 -187170,-6736726 -187169,-6736722 -187170,-6736718 -187172,-6736715 -187178,-6736709 -187181,-6736704 -187187,-6736685 -187188,-6736677 -187188,-6736666 -187188,-6736658 -187187,-6736653 -187185,-6736642 -187176,-6736620 -187170,-6736613 -187166,-6736610 -187161,-6736608 -187156,-6736606 -187151,-6736606 -187142,-6736608 -187116,-6736612 -187112,-6736612 -187106,-6736609 -187102,-6736606 -187099,-6736603 -187097,-6736599 -187097,-6736595 -187097,-6736591 -187098,-6736588 -187107,-6736578 -187111,-6736573 -187113,-6736569 -187115,-6736561 -187116,-6736553 -187116,-6736546 -187114,-6736541 -187111,-6736537 -187107,-6736533 -187075,-6736520 -187055,-6736504 -187044,-6736499 -187035,-6736496 -187027,-6736491 -187021,-6736487 -187016,-6736482 -187014,-6736477 -187013,-6736471 -187013,-6736468 -187014,-6736466 -187014,-6736463 -187022,-6736449 -187023,-6736443 -187023,-6736440 -187022,-6736436 -187005,-6736406 -187007,-6736340 -187004,-6736294 -187013,-6736236 -186988,-6736157 -186976,-6736142 -186887,-6736074 -186882,-6736071 -186873,-6736067 -186865,-6736065 -186858,-6736064 -186809,-6736070 -186800,-6736067 -186796,-6736063 -186793,-6736058 -186785,-6736011 -186744,-6735972 -186741,-6735965 -186741,-6735962 -186742,-6735958 -186746,-6735953 -186768,-6735940 -186756,-6735909 -186715,-6735856 -186620,-6735823 -186602,-6735815 -186594,-6735809 -186585,-6735802 -186576,-6735794 -186569,-6735785 -186564,-6735777 -186558,-6735767 -186556,-6735761 -186551,-6735742 -186546,-6735733 -186544,-6735730 -186540,-6735726 -186534,-6735720 -186526,-6735716 -186517,-6735713 -186461,-6735698 -186454,-6735694 -186451,-6735691 -186445,-6735683 -186443,-6735678 -186442,-6735672 -186443,-6735664 -186444,-6735658 -186454,-6735636 -186458,-6735631 -186463,-6735627 -186470,-6735623 -186476,-6735622 -186506,-6735623 -186519,-6735620 -186525,-6735617 -186530,-6735613 -186535,-6735608 -186538,-6735603 -186540,-6735596 -186542,-6735588 -186542,-6735579 -186541,-6735570 -186539,-6735560 -186537,-6735553 -186534,-6735548 -186532,-6735545 -186530,-6735544 -186527,-6735542 -186519,-6735539 -186508,-6735539 -186441,-6735534 -186429,-6735534 -186422,-6735532 -186411,-6735527 -186404,-6735521 -186381,-6735505 -186376,-6735504 -186371,-6735504 -186277,-6735531 -186268,-6735533 -186261,-6735533 -186247,-6735530 -186240,-6735527 -186235,-6735526 -186230,-6735526 -186225,-6735527 -186220,-6735530 -186216,-6735533 -186202,-6735551 -186194,-6735557 -186193,-6735558 -186188,-6735560 -186181,-6735562 -186175,-6735562 -186170,-6735561 -186162,-6735557 -186159,-6735555 -186153,-6735546 -186140,-6735520 -186136,-6735514 -186130,-6735508 -186123,-6735504 -186036,-6735474 -186017,-6735468 -186008,-6735465 -185999,-6735459 -185989,-6735452 -185975,-6735440 -185969,-6735438 -185962,-6735436 -185950,-6735435 -185908,-6735441 -185874,-6735441 -185853,-6735438 -185822,-6735431 -185776,-6735412 -185715,-6735405 -185688,-6735400 -185662,-6735395 -185631,-6735385 -185573,-6735376 -185492,-6735366 -185433,-6735363 -185397,-6735352 -185369,-6735351 -185336,-6735358 -185301,-6735359 -185286,-6735355 -185264,-6735345 -185237,-6735326 -185158,-6735280 -185143,-6735267 -185096,-6735200 -185130,-6735178 -185148,-6735155 -185122,-6735100 -185121,-6735098 -185049,-6735046 -185046,-6735010 -185035,-6734973 -184997,-6734865 -184978,-6734793 -184959,-6734739 -184950,-6734723 -184948,-6734719 -184882,-6734597 -184798,-6734450 -184793,-6734440 -184788,-6734428 -184786,-6734418 -184785,-6734406 -184785,-6734394 -184786,-6734382 -184788,-6734374 -184803,-6734326 -184867,-6734191 -184899,-6734122 -184931,-6734053 -184998,-6733915 -185065,-6733788 -185104,-6733717 -185129,-6733724 -185147,-6733723 -185154,-6733722 -185162,-6733720 -185175,-6733714 -185200,-6733695 -185202,-6733692 -185204,-6733688 -185206,-6733683 -185206,-6733677 -185204,-6733670 -185190,-6733648 -185177,-6733632 -185222,-6733572 -185273,-6733532 -185292,-6733521 -185349,-6733516 -185360,-6733512 -185365,-6733509 -185371,-6733504 -185441,-6733427 -185460,-6733408 -185512,-6733364 -185539,-6733338 -185549,-6733318 -185550,-6733313 -185554,-6733308 -185556,-6733306 -185560,-6733305 -185563,-6733306 -185566,-6733308 -185569,-6733310 -185581,-6733337 -185587,-6733343 -185591,-6733345 -185596,-6733345 -185602,-6733343 -185617,-6733333 -185622,-6733329 -185625,-6733323 -185627,-6733318 -185628,-6733312 -185627,-6733301 -185625,-6733251 -185627,-6733245 -185630,-6733241 -185633,-6733239 -185637,-6733238 -185652,-6733237 -185662,-6733234 -185684,-6733217 -185718,-6733213 -185722,-6733212 -185726,-6733210 -185730,-6733207 -185734,-6733201 -185736,-6733197 -185737,-6733188 -185736,-6733182 -185729,-6733166 -185727,-6733159 -185726,-6733152 -185726,-6733145 -185731,-6733124 -185737,-6733109 -185746,-6733096 -185754,-6733088 -185777,-6733078 -185785,-6733077 -185791,-6733075 -185797,-6733072 -185803,-6733067 -185805,-6733063 -185806,-6733058 -185805,-6733054 -185798,-6733035 -185794,-6733029 -185793,-6733024 -185793,-6733018 -185803,-6732987 -185803,-6732983 -185801,-6732979 -185781,-6732952 -185767,-6732924 -185761,-6732907 -185757,-6732893 -185755,-6732881 -185754,-6732866 -185755,-6732853 -185759,-6732830 -185778,-6732785 -185796,-6732763 -185821,-6732719 -185872,-6732697 -185899,-6732670 -185967,-6732635 -185993,-6732617 -186013,-6732582 -186061,-6732520 -186087,-6732482 -186093,-6732439 -186105,-6732419 -186123,-6732381 -186143,-6732352 -186148,-6732345 -186183,-6732304 -186201,-6732261 -186252,-6732227 -186257,-6732225 -186267,-6732224 -186291,-6732228 -186296,-6732231 -186301,-6732231 -186306,-6732231 -186311,-6732229 -186315,-6732226 -186317,-6732222 -186319,-6732217 -186319,-6732212 -186317,-6732208 -186314,-6732204 -186311,-6732201 -186276,-6732190 -186266,-6732189 -186261,-6732187 -186254,-6732182 -186251,-6732178 -186249,-6732172 -186228,-6732032 -186229,-6732015 -186234,-6732001 -186262,-6731985 -186273,-6731974 -186275,-6731969 -186274,-6731965 -186271,-6731961 -186267,-6731958 -186218,-6731948 -186213,-6731944 -186207,-6731938 -186204,-6731931 -186206,-6731885 -186205,-6731881 -186202,-6731878 -186199,-6731876 -186167,-6731864 -186140,-6731845 -186139,-6731843 -186138,-6731837 -186140,-6731830 -186163,-6731795 -186165,-6731790 -186167,-6731784 -186167,-6731777 -186165,-6731769 -186159,-6731758 -186093,-6731705 -186063,-6731707 -186058,-6731706 -186048,-6731703 -186039,-6731696 -186035,-6731692 -185985,-6731608 -185978,-6731602 -185973,-6731599 -185965,-6731598 -185909,-6731600 -185873,-6731597 -185871,-6731596 -185868,-6731592 -185868,-6731587 -185870,-6731584 -185884,-6731576 -185892,-6731567 -185896,-6731555 -185897,-6731545 -185896,-6731536 -185869,-6731506 -185859,-6731499 -185847,-6731491 -185834,-6731485 -185820,-6731480 -185730,-6731463 -185651,-6731410 -185628,-6731383 -185613,-6731372 -185602,-6731362 -185592,-6731351 -185577,-6731330 -185555,-6731290 -185548,-6731269 -185545,-6731224 -185545,-6731109 -185548,-6731085 -185551,-6731073 -185557,-6731059 -185563,-6731046 -185570,-6731036 -185578,-6731025 -185589,-6731013 -185618,-6730975 -185657,-6730964 -185666,-6730961 -185678,-6730952 -185682,-6730947 -185691,-6730932 -185694,-6730929 -185703,-6730924 -185709,-6730923 -185721,-6730925 -185725,-6730928 -185729,-6730928 -185733,-6730927 -185736,-6730926 -185738,-6730923 -185742,-6730912 -185747,-6730897 -185749,-6730893 -185752,-6730890 -185757,-6730887 -185763,-6730886 -185782,-6730887 -185787,-6730886 -185789,-6730883 -185790,-6730879 -185786,-6730842 -185790,-6730841 -185818,-6730846 -185824,-6730846 -185828,-6730845 -185835,-6730841 -185839,-6730836 -185842,-6730830 -185843,-6730825 -185843,-6730807 -185845,-6730795 -185879,-6730754 -185881,-6730751 -185880,-6730744 -185858,-6730687 -185905,-6730642 -185949,-6730605 -185955,-6730601 -185970,-6730594 -185985,-6730590 -186002,-6730589 -186013,-6730591 -186019,-6730591 -186026,-6730590 -186038,-6730585 -186068,-6730565 -186085,-6730559 -186094,-6730558 -186100,-6730556 -186105,-6730552 -186111,-6730547 -186116,-6730542 -186150,-6730496 -186154,-6730489 -186160,-6730472 -186164,-6730450 -186167,-6730443 -186172,-6730436 -186176,-6730431 -186258,-6730379 -186326,-6730348 -186362,-6730325 -186385,-6730307 -186412,-6730287 -186418,-6730281 -186422,-6730275 -186436,-6730242 -186443,-6730232 -186448,-6730229 -186455,-6730227 -186471,-6730225 -186478,-6730225 -186498,-6730229 -186515,-6730232 -186521,-6730235 -186529,-6730236 -186535,-6730235 -186540,-6730233 -186545,-6730229 -186555,-6730217 -186559,-6730216 -186562,-6730215 -186565,-6730216 -186571,-6730220 -186620,-6730244 -186629,-6730253 -186634,-6730261 -186636,-6730269 -186637,-6730275 -186637,-6730282 -186629,-6730315 -186629,-6730327 -186630,-6730335 -186633,-6730345 -186638,-6730352 -186647,-6730363 -186721,-6730410 -186728,-6730411 -186731,-6730410 -186734,-6730408 -186735,-6730404 -186736,-6730401 -186735,-6730399 -186726,-6730385 -186723,-6730376 -186723,-6730370 -186724,-6730365 -186727,-6730361 -186730,-6730357 -186736,-6730355 -186742,-6730354 -186750,-6730353 -186757,-6730354 -186762,-6730356 -186768,-6730359 -186773,-6730363 -186777,-6730368 -186780,-6730373 -186782,-6730379 -186783,-6730386 -186783,-6730392 -186783,-6730396 -186773,-6730426 -186773,-6730434 -186774,-6730439 -186776,-6730443 -186780,-6730449 -186786,-6730454 -186794,-6730458 -186804,-6730462 -186808,-6730465 -186811,-6730469 -186814,-6730476 -186816,-6730526 -186817,-6730529 -186820,-6730533 -186824,-6730536 -186827,-6730537 -186831,-6730536 -186834,-6730535 -186838,-6730532 -186846,-6730514 -186849,-6730512 -186851,-6730511 -186855,-6730511 -186872,-6730518 -186883,-6730525 -186891,-6730534 -186912,-6730575 -186930,-6730594 -186935,-6730596 -186941,-6730597 -186948,-6730595 -186952,-6730593 -186960,-6730584 -186966,-6730579 -186976,-6730574 -187016,-6730569 -187043,-6730554 -187073,-6730543 -187113,-6730524 -187139,-6730567 -187141,-6730566 -187163,-6730551 -187186,-6730527 -187201,-6730521 -187259,-6730451 -187284,-6730408 -187311,-6730368 -187312,-6730364 -187312,-6730359 -187303,-6730339 -187298,-6730305 -187275,-6730251 -187263,-6730244 -187223,-6730232 -187212,-6730227 -187231,-6730190 -187239,-6730170 -187241,-6730159 -187242,-6730139 -187240,-6730123 -187244,-6730051 -187263,-6729990 -187273,-6729964 -187298,-6729918 -187305,-6729890 -187304,-6729875 -187303,-6729869 -187292,-6729848 -187289,-6729837 -187289,-6729826 -187290,-6729822 -187294,-6729815 -187301,-6729811 -187304,-6729811 -187332,-6729818 -187352,-6729805 -187367,-6729788 -187370,-6729784 -187374,-6729771 -187372,-6729755 -187395,-6729728 -187439,-6729704 -187470,-6729691 -187475,-6729691 -187482,-6729691 -187488,-6729694 -187499,-6729702 -187510,-6729706 -187514,-6729707 -187525,-6729704 -187528,-6729702 -187539,-6729691 -187542,-6729685 -187549,-6729679 -187554,-6729677 -187586,-6729672 -187593,-6729670 -187601,-6729666 -187610,-6729660 -187616,-6729654 -187621,-6729648 -187630,-6729629 -187642,-6729602 -187648,-6729595 -187655,-6729591 -187699,-6729577 -187737,-6729560 -187740,-6729558 -187744,-6729554 -187746,-6729550 -187746,-6729547 -187743,-6729533 -187740,-6729526 -187739,-6729520 -187740,-6729514 -187742,-6729508 -187745,-6729504 -187748,-6729502 -187761,-6729502 -187766,-6729501 -187771,-6729498 -187775,-6729494 -187777,-6729490 -187779,-6729480 -187781,-6729464 -187783,-6729458 -187786,-6729453 -187789,-6729449 -187794,-6729447 -187799,-6729445 -187803,-6729444 -187807,-6729445 -187814,-6729448 -187848,-6729457 -187858,-6729457 -187863,-6729455 -187869,-6729451 -187918,-6729398 -187925,-6729394 -187945,-6729392 -187951,-6729390 -187957,-6729387 -187961,-6729383 -187964,-6729378 -187966,-6729372 -187966,-6729362 -187948,-6729330 -187935,-6729314 -187934,-6729309 -187936,-6729304 -187938,-6729301 -187942,-6729299 -187958,-6729298 -187968,-6729295 -187985,-6729278 -187993,-6729272 -188000,-6729267 -188033,-6729248 -188037,-6729243 -188042,-6729236 -188049,-6729197 -188051,-6729188 -188054,-6729181 -188057,-6729176 -188062,-6729171 -188068,-6729165 -188087,-6729152 -188096,-6729148 -188104,-6729145 -188130,-6729138 -188142,-6729134 -188159,-6729128 -188171,-6729122 -188182,-6729115 -188193,-6729106 -188196,-6729102 -188198,-6729097 -188199,-6729090 -188198,-6729083 -188196,-6729075 -188180,-6729043 -188179,-6729036 -188178,-6729028 -188179,-6729018 -188180,-6729013 -188195,-6728969 -188205,-6728952 -188207,-6728944 -188208,-6728937 -188207,-6728923 -188208,-6728905 -188224,-6728850 -188231,-6728832 -188232,-6728824 -188232,-6728820 -188230,-6728815 -188227,-6728811 -188221,-6728806 -188180,-6728802 -188175,-6728800 -188171,-6728798 -188168,-6728794 -188166,-6728789 -188165,-6728781 -188172,-6728735 -188173,-6728725 -188174,-6728715 -188172,-6728703 -188168,-6728690 -188151,-6728659 -188145,-6728646 -188135,-6728621 -188115,-6728600 -188111,-6728597 -188108,-6728594 -188107,-6728591 -188107,-6728587 -188108,-6728584 -188110,-6728582 -188114,-6728579 -188163,-6728573 -188170,-6728570 -188172,-6728567 -188174,-6728565 -188174,-6728558 -188170,-6728543 -188167,-6728524 -188168,-6728515 -188170,-6728504 -188173,-6728497 -188176,-6728493 -188181,-6728489 -188187,-6728485 -188197,-6728482 -188212,-6728474 -188219,-6728471 -188222,-6728468 -188225,-6728464 -188227,-6728460 -188227,-6728453 -188215,-6728434 -188206,-6728402 -188203,-6728398 -188201,-6728397 -188167,-6728392 -188148,-6728380 -188138,-6728379 -188134,-6728379 -188130,-6728381 -188125,-6728384 -188122,-6728387 -188119,-6728391 -188115,-6728402 -188109,-6728409 -188101,-6728416 -188097,-6728417 -188092,-6728416 -188089,-6728413 -188086,-6728409 -188086,-6728406 -188094,-6728362 -188094,-6728354 -188092,-6728350 -188089,-6728346 -188084,-6728343 -188078,-6728342 -188072,-6728343 -188066,-6728346 -188061,-6728351 -188058,-6728355 -188056,-6728363 -188054,-6728390 -188054,-6728393 -188051,-6728397 -188047,-6728399 -188039,-6728399 -188017,-6728388 -188014,-6728387 -188007,-6728388 -187999,-6728393 -187986,-6728397 -187982,-6728401 -187978,-6728402 -187974,-6728401 -187971,-6728399 -187970,-6728397 -187969,-6728391 -187986,-6728353 -187991,-6728333 -187967,-6728324 -187961,-6728320 -187959,-6728318 -187950,-6728296 -187947,-6728277 -187945,-6728265 -187941,-6728254 -187936,-6728244 -187922,-6728220 -187908,-6728202 -187886,-6728182 -187880,-6728177 -187866,-6728170 -187848,-6728164 -187841,-6728159 -187834,-6728154 -187829,-6728146 -187827,-6728140 -187827,-6728134 -187827,-6728127 -187829,-6728122 -187830,-6728120 -187841,-6728109 -187846,-6728100 -187850,-6728091 -187851,-6728082 -187852,-6728074 -187851,-6728064 -187847,-6728052 -187848,-6728048 -187851,-6728043 -187854,-6728041 -187860,-6728039 -187866,-6728040 -187871,-6728042 -187874,-6728044 -187896,-6728073 -187906,-6728083 -187909,-6728085 -187913,-6728087 -187918,-6728087 -187928,-6728086 -187935,-6728081 -187937,-6728078 -187940,-6728071 -187949,-6728020 -187951,-6728017 -187951,-6728013 -187950,-6728010 -187948,-6728007 -187944,-6728005 -187940,-6728005 -187928,-6728010 -187916,-6728014 -187912,-6728015 -187902,-6728013 -187890,-6728007 -187888,-6728005 -187888,-6728002 -187889,-6727999 -187907,-6727982 -187912,-6727978 -187915,-6727975 -187917,-6727971 -187918,-6727968 -187917,-6727964 -187903,-6727922 -187902,-6727910 -187905,-6727900 -187911,-6727890 -187933,-6727879 -187950,-6727869 -187952,-6727867 -187955,-6727862 -187956,-6727857 -187956,-6727852 -187953,-6727846 -187949,-6727842 -187944,-6727839 -187941,-6727837 -187925,-6727836 -187915,-6727835 -187910,-6727833 -187907,-6727832 -187903,-6727828 -187901,-6727823 -187901,-6727820 -187903,-6727807 -187911,-6727784 -187917,-6727761 -187917,-6727756 -187915,-6727750 -187911,-6727745 -187907,-6727742 -187877,-6727726 -187874,-6727723 -187870,-6727718 -187868,-6727711 -187867,-6727705 -187870,-6727697 -187870,-6727691 -187868,-6727688 -187859,-6727680 -187855,-6727675 -187853,-6727670 -187853,-6727665 -187853,-6727660 -187855,-6727656 -187857,-6727653 -187861,-6727651 -187887,-6727648 -187880,-6727628 -187871,-6727609 -187866,-6727595 -187863,-6727581 -187861,-6727567 -187861,-6727555 -187861,-6727546 -187866,-6727531 -187867,-6727525 -187866,-6727518 -187864,-6727511 -187858,-6727500 -187842,-6727485 -187847,-6727474 -187848,-6727462 -187856,-6727388 -187858,-6727362 -187850,-6727347 -187863,-6727336 -187871,-6727336 -187878,-6727334 -187883,-6727332 -187889,-6727328 -187893,-6727322 -187896,-6727317 -187897,-6727311 -187897,-6727306 -187896,-6727297 -187894,-6727289 -187891,-6727283 -187886,-6727275 -187882,-6727270 -187869,-6727262 -187860,-6727252 -187855,-6727243 -187853,-6727233 -187851,-6727216 -187853,-6727207 -187858,-6727182 -187861,-6727177 -187862,-6727171 -187860,-6727168 -187858,-6727165 -187854,-6727164 -187850,-6727164 -187847,-6727164 -187829,-6727188 -187825,-6727192 -187820,-6727195 -187815,-6727196 -187810,-6727196 -187804,-6727194 -187800,-6727192 -187795,-6727187 -187793,-6727181 -187778,-6727091 -187745,-6727086 -187721,-6727080 -187720,-6727079 -187719,-6727077 -187719,-6727074 -187721,-6727072 -187725,-6727071 -187747,-6727052 -187757,-6727031 -187757,-6727027 -187756,-6727021 -187753,-6727017 -187744,-6727011 -187740,-6727007 -187737,-6727002 -187735,-6726996 -187735,-6726990 -187736,-6726985 -187740,-6726980 -187742,-6726976 -187742,-6726973 -187742,-6726970 -187740,-6726967 -187735,-6726964 -187733,-6726962 -187691,-6726956 -187682,-6726958 -187676,-6726960 -187672,-6726964 -187668,-6726968 -187665,-6726974 -187662,-6726981 -187662,-6726991 -187665,-6727004 -187653,-6727007 -187640,-6727009 -187621,-6726988 -187621,-6726953 -187610,-6726931 -187607,-6726916 -187650,-6726869 -187653,-6726865 -187654,-6726860 -187654,-6726856 -187652,-6726853 -187649,-6726850 -187646,-6726848 -187617,-6726844 -187647,-6726782 -187648,-6726779 -187648,-6726775 -187647,-6726771 -187646,-6726768 -187640,-6726763 -187637,-6726762 -187634,-6726761 -187623,-6726764 -187615,-6726767 -187608,-6726773 -187602,-6726780 -187600,-6726785 -187593,-6726807 -187586,-6726814 -187576,-6726821 -187569,-6726822 -187564,-6726820 -187563,-6726818 -187561,-6726812 -187559,-6726805 -187559,-6726798 -187561,-6726793 -187568,-6726774 -187568,-6726768 -187568,-6726763 -187557,-6726758 -187556,-6726756 -187555,-6726751 -187555,-6726746 -187556,-6726741 -187558,-6726737 -187561,-6726734 -187567,-6726732 -187574,-6726734 -187576,-6726736 -187580,-6726742 -187587,-6726748 -187604,-6726747 -187612,-6726749 -187616,-6726749 -187618,-6726748 -187621,-6726743 -187622,-6726740 -187622,-6726737 -187620,-6726734 -187618,-6726731 -187614,-6726730 -187609,-6726729 -187589,-6726723 -187596,-6726709 -187593,-6726700 -187580,-6726669 -187578,-6726656 -187594,-6726653 -187598,-6726651 -187607,-6726647 -187614,-6726642 -187617,-6726639 -187618,-6726635 -187618,-6726626 -187618,-6726626 -187599,-6726624 -187585,-6726607 -187581,-6726596 -187628,-6726571 -187631,-6726569 -187633,-6726565 -187633,-6726561 -187632,-6726559 -187628,-6726555 -187611,-6726552 -187612,-6726538 -187628,-6726518 -187629,-6726516 -187630,-6726513 -187630,-6726507 -187629,-6726502 -187627,-6726498 -187624,-6726495 -187620,-6726494 -187617,-6726494 -187613,-6726512 -187608,-6726518 -187587,-6726514 -187571,-6726508 -187568,-6726505 -187565,-6726502 -187564,-6726495 -187568,-6726462 -187573,-6726447 -187578,-6726443 -187585,-6726451 -187594,-6726465 -187602,-6726459 -187621,-6726425 -187592,-6726427 -187583,-6726426 -187573,-6726424 -187568,-6726422 -187551,-6726407 -187549,-6726403 -187546,-6726395 -187546,-6726387 -187548,-6726384 -187553,-6726382 -187574,-6726383 -187557,-6726353 -187571,-6726341 -187574,-6726335 -187575,-6726330 -187573,-6726318 -187573,-6726313 -187574,-6726309 -187576,-6726304 -187580,-6726300 -187582,-6726298 -187596,-6726295 -187629,-6726275 -187656,-6726250 -187643,-6726238 -187640,-6726232 -187641,-6726228 -187642,-6726225 -187652,-6726215 -187659,-6726207 -187661,-6726204 -187645,-6726177 -187650,-6726158 -187649,-6726144 -187629,-6726144 -187604,-6726118 -187588,-6726108 -187576,-6726104 -187568,-6726091 -187565,-6726063 -187566,-6726033 -187568,-6726029 -187571,-6726028 -187573,-6726029 -187585,-6726039 -187593,-6726054 -187609,-6726055 -187654,-6726045 -187643,-6726023 -187641,-6726008 -187622,-6725990 -187603,-6725985 -187595,-6725980 -187591,-6725974 -187590,-6725969 -187591,-6725964 -187594,-6725959 -187598,-6725956 -187603,-6725955 -187609,-6725956 -187613,-6725958 -187639,-6725965 -187644,-6725963 -187645,-6725961 -187646,-6725958 -187646,-6725955 -187645,-6725954 -187633,-6725947 -187627,-6725938 -187614,-6725905 -187614,-6725901 -187614,-6725898 -187618,-6725894 -187623,-6725893 -187628,-6725894 -187638,-6725904 -187642,-6725907 -187649,-6725908 -187708,-6725893 -187716,-6725887 -187720,-6725883 -187725,-6725874 -187725,-6725872 -187716,-6725855 -187718,-6725852 -187720,-6725849 -187746,-6725854 -187754,-6725853 -187761,-6725852 -187768,-6725849 -187792,-6725853 -187811,-6725794 -187815,-6725774 -187819,-6725764 -187829,-6725747 -187836,-6725739 -187852,-6725725 -187904,-6725696 -187932,-6725682 -188020,-6725642 -188116,-6725468 -188140,-6725404 -188158,-6725366 -188177,-6725323 -188180,-6725315 -188192,-6725282 -188195,-6725278 -188199,-6725275 -188203,-6725273 -188214,-6725272 -188217,-6725271 -188220,-6725268 -188222,-6725265 -188222,-6725261 -188217,-6725237 -188236,-6725235 -188241,-6725232 -188242,-6725229 -188243,-6725227 -188238,-6725206 -188237,-6725199 -188238,-6725194 -188242,-6725185 -188253,-6725168 -188226,-6725134 -188181,-6725080 -188103,-6724976 -188033,-6724887 -188017,-6724819 -188016,-6724786 -188010,-6724760 -187994,-6724666 -187985,-6724607 -187969,-6724534 -187965,-6724512 -187961,-6724470 -187954,-6724454 -187953,-6724428 -187954,-6724411 -187943,-6724364 -187944,-6724336 -187941,-6724325 -187939,-6724320 -187919,-6724297 -187891,-6724261 -187873,-6724226 -187844,-6724156 -187823,-6724116 -187802,-6724054 -187797,-6724047 -187728,-6723987 -187707,-6723946 -187667,-6723880 -187647,-6723857 -187619,-6723818 -187627,-6723787 -187633,-6723773 -187615,-6723774 -187605,-6723769 -187605,-6723739 -187603,-6723734 -187602,-6723732 -187582,-6723710 -187581,-6723707 -187581,-6723703 -187600,-6723703 -187600,-6723641 -187588,-6723637 -187582,-6723633 -187599,-6723606 -187597,-6723590 -187593,-6723586 -187589,-6723582 -187586,-6723580 -187579,-6723579 -187575,-6723581 -187569,-6723585 -187563,-6723590 -187559,-6723596 -187556,-6723607 -187544,-6723624 -187531,-6723630 -187541,-6723603 -187541,-6723597 -187539,-6723593 -187535,-6723589 -187531,-6723588 -187515,-6723591 -187525,-6723563 -187519,-6723550 -187529,-6723533 -187530,-6723511 -187555,-6723473 -187547,-6723458 -187540,-6723430 -187532,-6723419 -187523,-6723411 -187517,-6723406 -187514,-6723405 -187510,-6723404 -187504,-6723406 -187489,-6723420 -187483,-6723421 -187477,-6723420 -187473,-6723416 -187471,-6723409 -187472,-6723405 -187477,-6723396 -187482,-6723384 -187477,-6723380 -187457,-6723371 -187455,-6723369 -187453,-6723365 -187451,-6723361 -187451,-6723356 -187455,-6723347 -187455,-6723344 -187454,-6723341 -187452,-6723339 -187447,-6723337 -187413,-6723338 -187409,-6723336 -187408,-6723333 -187410,-6723330 -187435,-6723322 -187439,-6723322 -187443,-6723320 -187446,-6723315 -187446,-6723312 -187445,-6723309 -187443,-6723307 -187429,-6723299 -187451,-6723284 -187465,-6723276 -187467,-6723271 -187468,-6723268 -187467,-6723265 -187464,-6723261 -187460,-6723260 -187454,-6723259 -187451,-6723261 -187448,-6723263 -187441,-6723261 -187433,-6723262 -187424,-6723263 -187385,-6723284 -187378,-6723286 -187366,-6723283 -187365,-6723282 -187364,-6723279 -187365,-6723276 -187367,-6723274 -187385,-6723260 -187386,-6723255 -187384,-6723250 -187379,-6723246 -187373,-6723246 -187368,-6723249 -187360,-6723258 -187345,-6723256 -187334,-6723245 -187306,-6723244 -187312,-6723218 -187313,-6723214 -187313,-6723207 -187310,-6723202 -187307,-6723199 -187302,-6723197 -187297,-6723196 -187293,-6723197 -187289,-6723198 -187285,-6723201 -187282,-6723205 -187280,-6723214 -187273,-6723230 -187257,-6723235 -187204,-6723239 -187200,-6723205 -187188,-6723200 -187175,-6723212 -187170,-6723213 -187168,-6723212 -187166,-6723210 -187163,-6723206 -187164,-6723200 -187167,-6723196 -187180,-6723189 -187195,-6723183 -187202,-6723176 -187203,-6723169 -187204,-6723163 -187200,-6723164 -187191,-6723170 -187186,-6723170 -187182,-6723167 -187181,-6723162 -187181,-6723159 -187183,-6723155 -187183,-6723143 -187184,-6723138 -187184,-6723135 -187183,-6723133 -187180,-6723131 -187176,-6723130 -187138,-6723133 -187133,-6723145 -187122,-6723139 -187118,-6723146 -187115,-6723167 -187109,-6723187 -187106,-6723192 -187102,-6723197 -187098,-6723199 -187090,-6723202 -187085,-6723202 -187059,-6723200 -187055,-6723192 -187054,-6723178 -187043,-6723164 -187048,-6723157 -187060,-6723147 -187062,-6723141 -187061,-6723136 -187059,-6723133 -187055,-6723131 -187051,-6723130 -187047,-6723132 -187017,-6723133 -187013,-6723134 -187010,-6723133 -187005,-6723130 -187004,-6723128 -187004,-6723125 -187005,-6723122 -187007,-6723118 -187012,-6723115 -187037,-6723115 -187041,-6723113 -187047,-6723109 -187051,-6723105 -187055,-6723096 -187057,-6723087 -187055,-6723078 -187051,-6723071 -187045,-6723066 -187009,-6723066 -187000,-6723063 -186997,-6723061 -186994,-6723058 -186992,-6723054 -186990,-6723043 -186992,-6723025 -186995,-6723016 -186950,-6723014 -186938,-6723006 -186938,-6722991 -186946,-6722981 -186939,-6722972 -186915,-6722964 -186918,-6722953 -186931,-6722938 -186918,-6722922 -186900,-6722924 -186892,-6722880 -186885,-6722868 -186882,-6722864 -186861,-6722846 -186856,-6722833 -186813,-6722780 -186796,-6722770 -186784,-6722782 -186769,-6722770 -186761,-6722765 -186738,-6722753 -186731,-6722739 -186708,-6722732 -186716,-6722715 -186712,-6722704 -186697,-6722684 -186692,-6722679 -186674,-6722691 -186663,-6722677 -186648,-6722665 -186631,-6722645 -186611,-6722652 -186578,-6722661 -186575,-6722668 -186571,-6722681 -186569,-6722683 -186566,-6722685 -186562,-6722685 -186557,-6722684 -186553,-6722679 -186526,-6722706 -186437,-6722763 -186388,-6722792 -186357,-6722808 -186311,-6722832 -186264,-6722854 -186232,-6722869 -186112,-6722921 -186045,-6722943 -185927,-6722998 -185885,-6723016 -185844,-6723034 -185704,-6723092 -185568,-6723151 -185493,-6723179 -185424,-6723199 -185356,-6723223 -185305,-6723250 -185270,-6723267 -185161,-6723325 -185078,-6723375 -185060,-6723384 -185041,-6723391 -185016,-6723397 -184943,-6723406 -184769,-6723454 -184728,-6723467 -184675,-6723487 -184613,-6723493 -184602,-6723498 -184594,-6723504 -184555,-6723549 -184527,-6723572 -184464,-6723633 -184395,-6723710 -184302,-6723831 -184238,-6723911 -184085,-6723729 -184020,-6723647 -184013,-6723638 -184003,-6723618 -183969,-6723564 -183955,-6723547 -183927,-6723514 -183912,-6723497 -183892,-6723503 -183857,-6723465 -183829,-6723445 -183811,-6723436 -183772,-6723390 -183642,-6723309 -183462,-6723136 -183420,-6723095 -183341,-6722985 -183328,-6722961 -183301,-6722896 -183249,-6722779 -183242,-6722761 -183269,-6722713 -183293,-6722678 -183294,-6722599 -183273,-6722505 -183256,-6722448 -183229,-6722337 -183190,-6722215 -183167,-6722149 -183143,-6722083 -183085,-6721927 -183034,-6721806 -182985,-6721685 -182969,-6721661 -182946,-6721636 -182914,-6721589 -182898,-6721569 -182891,-6721552 -182882,-6721535 -182877,-6721513 -182714,-6721265 -182646,-6721181 -182616,-6721142 -182633,-6721128 -182582,-6721047 -182564,-6721046 -182501,-6720955 -182476,-6720916 -182429,-6720856 -182415,-6720833 -182408,-6720819 -182402,-6720805 -182400,-6720799 -182442,-6720762 -182428,-6720744 -182363,-6720641 -182338,-6720599 -182327,-6720576 -182307,-6720542 -182294,-6720524 -182268,-6720496 -182256,-6720482 -182249,-6720471 -182241,-6720456 -182233,-6720440 -182221,-6720411 -182214,-6720392 -182205,-6720363 -182199,-6720350 -182194,-6720341 -182167,-6720306 -182164,-6720300 -182160,-6720280 -182157,-6720272 -182142,-6720247 -182124,-6720210 -182104,-6720178 -182069,-6720115 -182045,-6720056 -182035,-6720019 -182028,-6719995 -182008,-6719957 -181976,-6719913 -181987,-6719903 -181954,-6719863 -181879,-6719777 -181903,-6719748 -181835,-6719670 -181788,-6719619 -181718,-6719681 -181671,-6719726 -181537,-6719536 -181582,-6719488 -181547,-6719444 -181451,-6719329 -181468,-6719312 -181336,-6719126 -181364,-6719104 -181192,-6718828 -181168,-6718795 -181104,-6718729 -181133,-6718690 -181115,-6718672 -181041,-6718605 -180946,-6718523 -180872,-6718458 -180899,-6718421 -180937,-6718366 -180888,-6718331 -180833,-6718289 -180763,-6718222 -180715,-6718177 -180671,-6718130 -180705,-6718095 -180685,-6718067 -180710,-6718046 -180737,-6718022 -180608,-6717863 -180569,-6717818 -180589,-6717796 -180558,-6717757 -180498,-6717677 -180442,-6717609 -180411,-6717576 -180402,-6717567 -180316,-6717488 -180262,-6717432 -180169,-6717333 -180131,-6717299 -180078,-6717246 -180091,-6717229 -179986,-6717128 -179925,-6717073 -179819,-6717035 -179826,-6716892 -179830,-6716788 -179717,-6716766 -179641,-6716750 -179605,-6716549 -179598,-6716514 -179561,-6716389 -179538,-6716324 -179507,-6716325 -179488,-6716258 -179448,-6716142 -179408,-6716092 -179392,-6716068 -179388,-6716059 -179319,-6715907 -179283,-6715850 -179181,-6715683 -179101,-6715517 -179062,-6715443 -179032,-6715384 -179027,-6715298 -179025,-6715277 -179020,-6715250 -179009,-6715200 -179006,-6715188 -178989,-6715136 -178932,-6714984 -178905,-6714903 -178876,-6714825 -178852,-6714768 -178807,-6714675 -178786,-6714625 -178704,-6714441 -178679,-6714376 -178645,-6714283 -178642,-6714272 -178636,-6714235 -178629,-6714187 -178618,-6713961 -178611,-6713884 -178581,-6713876 -178487,-6713856 -178471,-6713795 -178455,-6713748 -178478,-6713731 -178463,-6713658 -178453,-6713594 -178442,-6713549 -178424,-6713491 -178454,-6713483 -178621,-6713411 -178650,-6713399 -178693,-6713385 -178825,-6713309 -178882,-6713275 -178906,-6713333 -178965,-6713310 -179021,-6713289 -179049,-6713279 -179084,-6713270 -179155,-6713255 -179192,-6713249 -179295,-6713241 -179323,-6713240 -179411,-6713247 -179442,-6713250 -179461,-6713253 -179484,-6713258 -179506,-6713264 -179543,-6713275 -179622,-6713302 -179648,-6713312 -179678,-6713319 -179701,-6713323 -179713,-6713325 -179742,-6713326 -179809,-6713323 -179820,-6713322 -179904,-6713311 -179923,-6713308 -179968,-6713299 -180077,-6713271 -180330,-6713198 -180325,-6713151 -180290,-6713005 -180281,-6712944 -180339,-6712922 -180427,-6712892 -180481,-6712871 -180596,-6712803 -180631,-6712787 -180664,-6712775 -180692,-6712770 -180735,-6712758 -180745,-6712786 -180764,-6712835 -180787,-6712878 -180815,-6712923 -180906,-6713000 -181157,-6713220 -181209,-6713255 -181240,-6713283 -181279,-6713324 -181335,-6713293 -181447,-6713244 -181521,-6713216 -181643,-6713157 -181660,-6713147 -181693,-6713126 -181725,-6713101 -181846,-6712994 -181754,-6712901 -181803,-6712824 -181818,-6712798 -181830,-6712776 -181848,-6712744 -181853,-6712734 -181857,-6712723 -181883,-6712659 -181913,-6712561 -181928,-6712533 -182002,-6712532 -182027,-6712541 -182113,-6712585 -182177,-6712618 -182255,-6712649 -182315,-6712606 -182379,-6712562 -182401,-6712546 -182430,-6712522 -182459,-6712495 -182560,-6712390 -182690,-6712269 -182725,-6712229 -182753,-6712202 -182777,-6712182 -182800,-6712165 -182933,-6712088 -183049,-6712030 -183185,-6711967 -183230,-6711943 -183276,-6711918 -183413,-6711841 -183584,-6711748 -183618,-6711725 -183642,-6711713 -183663,-6711703 -183685,-6711695 -183715,-6711686 -183790,-6711662 -183886,-6711654 -184202,-6711630 -184335,-6711623 -184427,-6711616 -184501,-6711598 -184584,-6711580 -184595,-6711576 -184611,-6711567 -184623,-6711558 -184680,-6711523 -184681,-6711524 -184715,-6711513 -184739,-6711507 -184789,-6711501 -184825,-6711495 -184894,-6711475 -184927,-6711468 -184972,-6711468 -185030,-6711454 -185040,-6711450 -185064,-6711441 -185090,-6711429 -185174,-6711380 -185221,-6711350 -185262,-6711324 -185289,-6711308 -185330,-6711284 -185399,-6711247 -185426,-6711236 -185445,-6711229 -185485,-6711217 -185587,-6711184 -185652,-6711163 -185717,-6711147 -185764,-6711144 -185815,-6711132 -186029,-6711081 -186175,-6711043 -186185,-6711041 -186221,-6711036 -186284,-6711031 -186336,-6711027 -186436,-6711025 -186458,-6711025 -186467,-6711024 -186490,-6711021 -186579,-6710995 -186599,-6710990 -186614,-6710984 -186629,-6710977 -186644,-6710968 -186695,-6710944 -186722,-6710935 -186736,-6710931 -186768,-6710925 -186847,-6710920 -186910,-6710920 -187025,-6710931 -187037,-6710931 -187051,-6710930 -187080,-6710926 -187186,-6710915 -187312,-6710912 -187342,-6710912 -187429,-6710911 -187545,-6710901 -187631,-6710894 -187737,-6710880 -187796,-6710871 -187967,-6710843 -188072,-6710837 -188130,-6710836 -188187,-6710836 -188298,-6710838 -188386,-6710842 -188429,-6710837 -188454,-6710820 -188494,-6710817 -188534,-6710814 -188613,-6710810 -188665,-6710820 -188815,-6710786 -188827,-6710836 -188839,-6710864 -188868,-6710863 -188883,-6710859 -188961,-6710828 -189113,-6710771 -189212,-6710732 -189308,-6710697 -189812,-6710572 -189946,-6710548 -190551,-6710430 -190584,-6710426 -190718,-6710410 -190837,-6710407 -191070,-6710381 -191166,-6710366 -191367,-6710345 -191348,-6710223 -191323,-6710090 -191273,-6709781 -191254,-6709671 -191219,-6709455 -191186,-6709266 -191182,-6709241 -191139,-6708988 -191091,-6708692 -191063,-6708538 -191015,-6708251 -190994,-6708142 -191053,-6708139 -191126,-6708137 -191139,-6708136 -191153,-6708141 -191237,-6708137 -191361,-6708135 -191466,-6708125 -191756,-6708130 -191775,-6708130 -191867,-6708135 -191967,-6708148 -192025,-6708158 -192063,-6708161 -192137,-6708163 -192170,-6708164 -192179,-6708163 -192278,-6708153 -192435,-6708127 -192702,-6708105 -192808,-6708078 -192931,-6708045 -192947,-6708041 -192964,-6708038 -192986,-6708036 -193007,-6708034 -193072,-6708033 -193149,-6708001 -193249,-6707964 -193301,-6707951 -193308,-6707953 -193321,-6707941 -193475,-6707904 -193528,-6707893 -193584,-6707881 -193668,-6707865 -193702,-6707855 -193801,-6707846 -193908,-6707838 -193937,-6707836 -193965,-6707836 -194018,-6707843 -194053,-6707844 -194075,-6707843 -194094,-6707841 -194106,-6707838 -194120,-6707834 -194135,-6707828 -194149,-6707821 -194166,-6707812 -194197,-6707791 -194284,-6707721 -194310,-6707703 -194336,-6707686 -194376,-6707661 -194398,-6707652 -194405,-6707661 -194442,-6707656 -194526,-6707665 -194554,-6707671 -194572,-6707674 -194609,-6707677 -194627,-6707678 -194645,-6707677 -194724,-6707663 -194831,-6707655 -194895,-6707652 -194974,-6707662 -195018,-6707667 -195376,-6707705 -195387,-6707741 -195476,-6707742 -195624,-6707748 -195717,-6707757 -195830,-6707744 -195923,-6707729 -195954,-6707724 -196076,-6707705 -196220,-6707690 -196306,-6707689 -196322,-6707716 -196428,-6707727 -196453,-6707730 -196483,-6707731 -196538,-6707733 -196610,-6707732 -196647,-6707729 -196678,-6707725 -196720,-6707717 -196773,-6707706 -196811,-6707697 -196846,-6707687 -196893,-6707673 -197164,-6707581 -197410,-6707505 -197560,-6707454 -197512,-6707371 -197507,-6707338 -197504,-6707305 -197500,-6707241 -197505,-6707153 -197517,-6707082 -197529,-6707091 -197721,-6707205 -198006,-6707364 -198113,-6707420 -198250,-6707471 -198549,-6707571 -198619,-6707592 -198678,-6707590 -198745,-6707586 -198812,-6707582 -198943,-6707567 -199095,-6707554 -199123,-6707558 -199140,-6707562 -199172,-6707571 -199180,-6707574 -199200,-6707583 -199221,-6707594 -199268,-6707626 -199279,-6707635 -199289,-6707641 -199301,-6707647 -199322,-6707652 -199510,-6707683 -199524,-6707687 -199541,-6707694 -199550,-6707700 -199565,-6707713 -199611,-6707742 -199617,-6707745 -199623,-6707745 -199679,-6707737 -199777,-6707718 -199808,-6707709 -199839,-6707696 -199848,-6707692 -199883,-6707672 -199931,-6707641 -199978,-6707607 -200018,-6707563 -200063,-6707511 -200129,-6707438 -200198,-6707521 -200289,-6707634 -200405,-6707760 -200493,-6707865 -200568,-6707946 -200660,-6708031 -200713,-6708136 -200796,-6708317 -200844,-6708356 -200903,-6708414 -201023,-6708536 -201069,-6708586 -201097,-6708619 -201119,-6708647 -201138,-6708673 -201154,-6708696 -201169,-6708720 -201193,-6708762 -201260,-6708861 -201317,-6708965 -201430,-6709152 -201468,-6709202 -201535,-6709284 -201621,-6709381 -201739,-6709528 -201827,-6709599 -201792,-6709717 -201736,-6709894 -201678,-6710092 -201643,-6710134 -201736,-6710247 -201887,-6710442 -201860,-6710618 -201842,-6710780 -201837,-6710832 -201826,-6711020 -201819,-6711105 -201813,-6711161 -201814,-6711225 -201825,-6711320 -201828,-6711338 -201847,-6711416 -201872,-6711478 -201986,-6711408 -202020,-6711392 -202120,-6711358 -202251,-6711316 -202396,-6711268 -202550,-6711220 -202673,-6711159 -202786,-6711099 -202861,-6711083 -202937,-6711069 -202993,-6711013 -203108,-6710882 -203163,-6710927 -203202,-6710953 -203264,-6710983 -203330,-6711022 -203449,-6711090 -203459,-6711095 -203531,-6711125 -203544,-6711099 -203597,-6710988 -203634,-6710924 -203704,-6710824 -203764,-6710749 -203795,-6710699 -203862,-6710579 -203892,-6710516 -203921,-6710442 -204014,-6710476 -204046,-6710498 -204086,-6710519 -204155,-6710540 -204171,-6710491 -204200,-6710409 -204249,-6710407 -204341,-6710397 -204559,-6710368 -204598,-6710518 -204630,-6710650 -204650,-6710702 -204659,-6710701 -204712,-6710835 -204771,-6710977 -204807,-6711073 -204775,-6711088 -204741,-6711110 -204778,-6711244 -204792,-6711336 -204809,-6711413 -204779,-6711435 -204862,-6711624 -204835,-6711649 -204907,-6711793 -204971,-6711914 -204976,-6711920 -204977,-6711924 -204976,-6711930 -204975,-6711933 -204972,-6711936 -204966,-6711939 -204952,-6711949 -204939,-6711958 -204938,-6711960 -204938,-6711973 -204942,-6711997 -204947,-6712020 -204956,-6712052 -204950,-6712084 -204952,-6712104 -204956,-6712115 -204963,-6712130 -204972,-6712142 -205004,-6712171 -205034,-6712180 -205038,-6712190 -205051,-6712207 -205060,-6712224 -205076,-6712240 -205090,-6712260 -205109,-6712269 -205116,-6712282 -205186,-6712325 -205244,-6712367 -205261,-6712388 -205274,-6712408 -205282,-6712425 -205285,-6712435 -205287,-6712447 -205288,-6712459 -205287,-6712473 -205287,-6712496 -205288,-6712564 -205283,-6712610 -205283,-6712636 -205283,-6712662 -205289,-6712693 -205310,-6712751 -205328,-6712809 -205349,-6712904 -205277,-6712924 -205254,-6712932 -205234,-6712940 -205198,-6712943 -205149,-6712952 -205103,-6712971 -205042,-6713002 -205022,-6713010 -204995,-6713027 -205050,-6713146 -205120,-6713234 -205157,-6713212 -205195,-6713192 -205261,-6713264 -205298,-6713293 -205302,-6713298 -205304,-6713302 -205304,-6713307 -205302,-6713312 -205298,-6713318 -205294,-6713323 -205260,-6713351 -205246,-6713369 -205214,-6713392 -205193,-6713410 -205165,-6713454 -205148,-6713474 -205200,-6713584 -205321,-6713859 -205384,-6713998 -205445,-6714137 -205493,-6714261 -205530,-6714366 -205588,-6714528 -205593,-6714536 -205595,-6714544 -205597,-6714553 -205596,-6714562 -205594,-6714569 -205591,-6714577 -205582,-6714591 -205436,-6714673 -205238,-6714780 -205125,-6714843 -205145,-6714875 -205144,-6714876 -205136,-6714883 -205070,-6714917 -205069,-6714896 -205066,-6714749 -205027,-6714690 -205034,-6714673 -205002,-6714623 -204962,-6714575 -204958,-6714572 -204949,-6714569 -204940,-6714567 -204927,-6714568 -204888,-6714533 -205065,-6714372 -205113,-6714318 -205131,-6714312 -205142,-6714284 -205175,-6714233 -205201,-6714173 -205240,-6714124 -205253,-6714092 -205215,-6714062 -205163,-6714004 -205168,-6713969 -205125,-6713924 -205065,-6713870 -205100,-6713821 -205084,-6713810 -205115,-6713759 -205059,-6713702 -204994,-6713631 -204949,-6713584 -204912,-6713557 -204863,-6713517 -204921,-6713451 -204863,-6713398 -204818,-6713363 -204757,-6713312 -204767,-6713286 -204716,-6713232 -204662,-6713178 -204605,-6713077 -204581,-6713035 -204595,-6712996 -204591,-6712980 -204542,-6712883 -204527,-6712831 -204510,-6712748 -204517,-6712741 -204520,-6712679 -204540,-6712627 -204557,-6712563 -204557,-6712531 -204543,-6712477 -204509,-6712283 -204507,-6712247 -204495,-6712177 -204491,-6712169 -204486,-6712165 -204477,-6712163 -204433,-6712172 -204329,-6712187 -204320,-6712263 -204239,-6712282 -204219,-6712265 -204184,-6712262 -204119,-6712252 -204075,-6712244 -204029,-6712236 -203922,-6712212 -203876,-6712208 -203803,-6712212 -203797,-6712287 -203790,-6712328 -203744,-6712514 -203716,-6712575 -203704,-6712612 -203698,-6712666 -203700,-6712817 -203711,-6712888 -203723,-6712980 -203740,-6713021 -203775,-6713109 -203834,-6713250 -203871,-6713317 -203910,-6713377 -203945,-6713441 -203980,-6713481 -204006,-6713517 -204048,-6713563 -204053,-6713568 -204095,-6713582 -204115,-6713589 -204154,-6713604 -204203,-6713615 -204250,-6713629 -204262,-6713635 -204268,-6713638 -204272,-6713643 -204279,-6713653 -204289,-6713686 -204313,-6713695 -204329,-6713764 -204347,-6713826 -204370,-6713871 -204395,-6713955 -204424,-6714046 -204456,-6714093 -204422,-6714141 -204433,-6714228 -204439,-6714271 -204446,-6714314 -204483,-6714514 -204546,-6714652 -204581,-6714708 -204614,-6714756 -204646,-6714790 -204640,-6714801 -204669,-6714850 -204685,-6714883 -204693,-6714904 -204697,-6714917 -204716,-6714992 -204737,-6715068 -204755,-6715157 -204777,-6715252 -204822,-6715473 -204527,-6715548 -204541,-6715579 -204543,-6715601 -204606,-6715854 -204623,-6715890 -204715,-6715882 -204833,-6715865 -204884,-6715848 -204926,-6715853 -204927,-6715904 -204931,-6715924 -204956,-6716033 -205008,-6716210 -205031,-6716285 -205078,-6716435 -205099,-6716504 -205119,-6716572 -205155,-6716709 -205204,-6716883 -205241,-6716994 -205265,-6717102 -205288,-6717238 -205314,-6717414 -205335,-6717505 -205337,-6717512 -205339,-6717552 -205337,-6717599 -205339,-6717639 -205277,-6717695 -205307,-6717931 -205315,-6717991 -205396,-6718011 -205659,-6718089 -205835,-6718164 -205916,-6718207 -206075,-6718296 -206080,-6718301 -206172,-6718354 -206194,-6718377 -206222,-6718402 -206285,-6718454 -206366,-6718503 -206062,-6718571 -205999,-6718586 -206076,-6718795 -206092,-6718871 -206118,-6718985 -206201,-6719080 -206254,-6719152 -206300,-6719204 -206309,-6719218 -206315,-6719225 -206323,-6719232 -206331,-6719237 -206362,-6719253 -206285,-6719349 -206251,-6719364 -206167,-6719440 -206040,-6719546 -205930,-6719677 -205860,-6719757 -205898,-6719814 -205938,-6719854 -206020,-6719923 -206148,-6720037 -206303,-6720167 -206368,-6720213 -206460,-6720275 -206585,-6720362 -206736,-6720468 -206849,-6720569 -206897,-6720615 -206933,-6720655 -207010,-6720725 -207070,-6720773 -207120,-6720801 -207260,-6720849 -207333,-6720874 -207346,-6720877 -207360,-6720879 -207382,-6720879 -207423,-6720875 -207506,-6720870 -207624,-6720871 -207625,-6720872 -207624,-6720882 -207622,-6720886 -207617,-6720892 -207612,-6720896 -207608,-6720899 -207571,-6720910 -207390,-6720952 -207298,-6720960 -207277,-6721100 -207251,-6721216 -207213,-6721358 -207117,-6721604 -207150,-6721614 -207162,-6721627 -207168,-6721635 -207175,-6721662 -207176,-6721676 -207176,-6721688 -207175,-6721696 -207167,-6721725 -207163,-6721753 -207143,-6721792 -207105,-6721859 -207065,-6721894 -207033,-6721857 -206851,-6721634 -206785,-6721548 -206734,-6721521 -206618,-6721460 -206599,-6721480 -206590,-6721478 -206571,-6721521 -206596,-6721565 -206565,-6721577 -206520,-6721510 -206472,-6721433 -206413,-6721475 -206389,-6721486 -206374,-6721490 -206359,-6721493 -206336,-6721491 -206285,-6721481 -206249,-6721470 -206185,-6721441 -206173,-6721424 -206139,-6721366 -206084,-6721371 -206056,-6721371 -205974,-6721365 -205716,-6721334 -205695,-6721330 -205675,-6721323 -205656,-6721315 -205606,-6721285 -205594,-6721281 -205588,-6721279 -205573,-6721278 -205560,-6721280 -205442,-6721272 -205439,-6721262 -205405,-6721263 -205438,-6721338 -205449,-6721372 -205454,-6721389 -205457,-6721406 -205460,-6721429 -205461,-6721447 -205459,-6721477 -205447,-6721572 -205424,-6721631 -205424,-6721665 -205425,-6721677 -205428,-6721690 -205432,-6721702 -205437,-6721713 -205443,-6721722 -205451,-6721732 -205464,-6721746 -205483,-6721763 -205494,-6721771 -205509,-6721781 -205529,-6721791 -205542,-6721799 -205552,-6721810 -205560,-6721822 -205567,-6721839 -205585,-6721933 -205599,-6721977 -205598,-6721995 -205601,-6722011 -205605,-6722049 -205605,-6722063 -205607,-6722072 -205610,-6722080 -205614,-6722087 -205619,-6722094 -205625,-6722099 -205630,-6722103 -205709,-6722141 -205835,-6722216 -205923,-6722272 -205949,-6722405 -205916,-6722419 -205857,-6722456 -205842,-6722467 -205756,-6722563 -205745,-6722574 -205721,-6722595 -205704,-6722609 -205584,-6722681 -205529,-6722710 -205502,-6722724 -205475,-6722735 -205448,-6722745 -205404,-6722759 -205312,-6722784 -205318,-6722847 -205318,-6722864 -205318,-6722888 -205316,-6722906 -205310,-6722935 -205280,-6723057 -205277,-6723078 -205276,-6723109 -205279,-6723142 -205282,-6723158 -205288,-6723178 -205294,-6723197 -205302,-6723214 -205311,-6723229 -205327,-6723255 -205331,-6723262 -205340,-6723284 -205349,-6723309 -205357,-6723342 -205359,-6723350 -205351,-6723464 -205336,-6723564 -205296,-6723734 -205285,-6723770 -205272,-6723806 -205251,-6723849 -205241,-6723865 -205225,-6723889 -205162,-6723999 -205158,-6724010 -205155,-6724025 -205157,-6724036 -205161,-6724194 -205178,-6724297 -205130,-6724303 -205033,-6724318 -204931,-6724331 -204925,-6724301 -204869,-6724310 -204812,-6724218 -204764,-6724236 -204680,-6724264 -204627,-6724293 -204557,-6724324 -204612,-6724433 -204658,-6724542 -204567,-6724554 -204440,-6724577 -204268,-6724622 -204178,-6724642 -204019,-6724675 -204006,-6724679 -203989,-6724685 -203972,-6724693 -203956,-6724701 -203945,-6724709 -203926,-6724723 -203807,-6724851 -203585,-6724667 -203306,-6724436 -203292,-6724461 -203272,-6724494 -203260,-6724529 -203254,-6724564 -203243,-6724578 -203229,-6724618 -203221,-6724634 -203222,-6724641 -203229,-6724660 -203201,-6724659 -203196,-6724659 -203192,-6724662 -203190,-6724665 -203189,-6724668 -203190,-6724672 -203194,-6724694 -203176,-6724706 -203175,-6724747 -203155,-6724783 -203133,-6724827 -203128,-6724832 -203127,-6724836 -203127,-6724841 -203129,-6724846 -203145,-6724859 -203147,-6724864 -203147,-6724868 -203146,-6724873 -203133,-6724882 -203111,-6724893 -203099,-6724907 -203082,-6724934 -203060,-6724956 -203034,-6724929 -203031,-6724927 -203026,-6724926 -203022,-6724927 -203019,-6724929 -203017,-6724933 -203015,-6724937 -203016,-6724942 -203019,-6724949 -203023,-6725001 -203022,-6725029 -203020,-6725040 -203018,-6725045 -203012,-6725052 -203008,-6725054 -203003,-6725057 -202964,-6725067 -202961,-6725069 -202957,-6725073 -202953,-6725077 -202951,-6725085 -202951,-6725091 -202960,-6725129 -202941,-6725156 -202928,-6725175 -202891,-6725228 -202926,-6725300 -202971,-6725290 -203004,-6725337 -203014,-6725333 -203110,-6725298 -203124,-6725271 -203176,-6725258 -203209,-6725245 -203220,-6725243 -203225,-6725243 -203253,-6725251 -203259,-6725253 -203264,-6725254 -203269,-6725254 -203273,-6725252 -203292,-6725239 -203323,-6725212 -203363,-6725234 -203405,-6725263 -203484,-6725290 -203613,-6725330 -203723,-6725365 -203796,-6725384 -203837,-6725406 -203897,-6725442 -203935,-6725459 -203956,-6725468 -203967,-6725471 -203977,-6725471 -203985,-6725471 -204000,-6725467 -204032,-6725452 -204041,-6725451 -204057,-6725451 -204071,-6725453 -204081,-6725456 -204091,-6725459 -204106,-6725467 -204157,-6725508 -204185,-6725515 -204188,-6725522 -204251,-6725519 -204261,-6725521 -204267,-6725523 -204311,-6725519 -204324,-6725520 -204325,-6725520 -204333,-6725523 -204342,-6725528 -204348,-6725533 -204355,-6725542 -204394,-6725579 -204478,-6725675 -204481,-6725680 -204485,-6725686 -204487,-6725694 -204489,-6725701 -204489,-6725709 -204487,-6725719 -204483,-6725729 -204478,-6725737 -204468,-6725749 -204463,-6725757 -204463,-6725762 -204464,-6725768 -204465,-6725773 -204468,-6725776 -204471,-6725779 -204533,-6725819 -204556,-6725834 -204548,-6725873 -204552,-6725897 -204527,-6725918 -204523,-6725922 -204521,-6725927 -204520,-6725936 -204520,-6725941 -204522,-6725945 -204524,-6725948 -204526,-6725950 -204533,-6725952 -204558,-6725948 -204562,-6725949 -204564,-6725950 -204566,-6725953 -204567,-6725959 -204547,-6726045 -204525,-6726093 -204513,-6726185 -204481,-6726214 -204477,-6726221 -204475,-6726227 -204476,-6726233 -204477,-6726237 -204492,-6726258 -204494,-6726263 -204495,-6726268 -204495,-6726275 -204494,-6726280 -204489,-6726290 -204484,-6726296 -204425,-6726366 -204364,-6726363 -204328,-6726374 -204288,-6726368 -204286,-6726382 -204303,-6726439 -204293,-6726470 -204313,-6726506 -204314,-6726513 -204313,-6726517 -204310,-6726520 -204303,-6726525 -204262,-6726534 -204255,-6726534 -204246,-6726532 -204237,-6726525 -204226,-6726506 -204224,-6726503 -204220,-6726501 -204217,-6726500 -204212,-6726500 -204207,-6726502 -204201,-6726505 -204194,-6726510 -204189,-6726515 -204171,-6726547 -204168,-6726561 -204172,-6726565 -204173,-6726569 -204174,-6726572 -204173,-6726576 -204171,-6726579 -204169,-6726582 -204166,-6726583 -204163,-6726583 -204159,-6726581 -204155,-6726579 -204152,-6726573 -204138,-6726563 -204130,-6726559 -204124,-6726559 -204119,-6726560 -204087,-6726577 -204083,-6726550 -204079,-6726543 -204076,-6726540 -204072,-6726539 -204067,-6726539 -204062,-6726541 -204059,-6726543 -204056,-6726547 -204054,-6726550 -204053,-6726555 -204053,-6726560 -204055,-6726568 -204056,-6726575 -204055,-6726586 -204053,-6726594 -204050,-6726600 -204046,-6726607 -204038,-6726617 -204005,-6726644 -203993,-6726700 -203981,-6726747 -204014,-6726767 -204029,-6726785 -204040,-6726803 -204052,-6726891 -204043,-6726920 -204043,-6726971 -204033,-6727003 -204026,-6727036 -204028,-6727066 -204026,-6727093 -203988,-6727128 -203983,-6727135 -203978,-6727145 -203968,-6727183 -203953,-6727216 -203941,-6727220 -203931,-6727227 -203923,-6727237 -203920,-6727244 -203921,-6727250 -203923,-6727252 -203927,-6727255 -203934,-6727257 -203954,-6727272 -203939,-6727282 -203919,-6727291 -203913,-6727296 -203911,-6727300 -203910,-6727305 -203912,-6727310 -203915,-6727314 -203919,-6727318 -203922,-6727319 -203969,-6727319 -203973,-6727320 -203977,-6727322 -203982,-6727325 -203986,-6727331 -203988,-6727337 -203988,-6727344 -203986,-6727351 -203971,-6727387 -203968,-6727426 -203960,-6727444 -203920,-6727518 -203921,-6727534 -203925,-6727556 -203932,-6727577 -203962,-6727632 -204013,-6727678 -204036,-6727669 -204044,-6727668 -204049,-6727669 -204083,-6727687 -204117,-6727700 -204100,-6727721 -204100,-6727724 -204101,-6727729 -204104,-6727733 -204108,-6727737 -204113,-6727738 -204118,-6727737 -204123,-6727735 -204129,-6727729 -204166,-6727714 -204169,-6727740 -204168,-6727747 -204170,-6727755 -204172,-6727759 -204198,-6727796 -204204,-6727802 -204207,-6727807 -204210,-6727814 -204211,-6727821 -204209,-6727834 -204193,-6727874 -204233,-6727903 -204260,-6727907 -204298,-6727917 -204332,-6727903 -204375,-6727896 -204391,-6727880 -204393,-6727874 -204395,-6727871 -204398,-6727870 -204401,-6727870 -204406,-6727872 -204419,-6727891 -204424,-6727896 -204430,-6727899 -204437,-6727900 -204443,-6727900 -204450,-6727897 -204454,-6727895 -204465,-6727886 -204473,-6727883 -204476,-6727883 -204480,-6727885 -204484,-6727888 -204487,-6727892 -204489,-6727899 -204500,-6727920 -204503,-6727923 -204510,-6727928 -204516,-6727931 -204526,-6727933 -204536,-6727931 -204558,-6727920 -204564,-6727920 -204571,-6727921 -204575,-6727924 -204578,-6727927 -204598,-6727970 -204606,-6727980 -204614,-6727986 -204628,-6727993 -204681,-6728006 -204685,-6728009 -204713,-6728034 -204766,-6728100 -204792,-6728103 -204799,-6728100 -204803,-6728101 -204809,-6728104 -204811,-6728106 -204812,-6728109 -204813,-6728113 -204812,-6728117 -204809,-6728122 -204755,-6728165 -204748,-6728169 -204745,-6728173 -204743,-6728177 -204742,-6728182 -204743,-6728190 -204745,-6728193 -204748,-6728197 -204752,-6728199 -204756,-6728201 -204764,-6728201 -204794,-6728205 -204801,-6728206 -204807,-6728209 -204820,-6728217 -204841,-6728244 -204845,-6728250 -204848,-6728263 -204849,-6728285 -204851,-6728291 -204854,-6728298 -204857,-6728303 -204861,-6728307 -204871,-6728314 -204927,-6728372 -204931,-6728378 -204933,-6728384 -204934,-6728390 -204934,-6728430 -204941,-6728463 -204940,-6728467 -204938,-6728470 -204932,-6728474 -204891,-6728481 -204865,-6728529 -204898,-6728610 -204922,-6728689 -204925,-6728693 -204929,-6728697 -205015,-6728732 -205033,-6728782 -205059,-6728840 -205064,-6728864 -205065,-6728881 -205063,-6728898 -205060,-6728914 -205048,-6728960 -205036,-6728983 -205021,-6729004 -205049,-6729030 -205067,-6729050 -205071,-6729054 -205069,-6729059 -205065,-6729069 -205061,-6729079 -205046,-6729105 -205030,-6729130 -205028,-6729134 -205019,-6729149 -205007,-6729167 -205003,-6729172 -204992,-6729189 -204992,-6729189 -204980,-6729205 -204968,-6729220 -204978,-6729175 -204993,-6729090 -204996,-6729085 -204997,-6729080 -204998,-6729074 -204997,-6729069 -204994,-6729065 -204991,-6729061 -204988,-6729058 -204985,-6729057 -204982,-6729058 -204977,-6729062 -204960,-6729104 -204949,-6729153 -204946,-6729233 -204949,-6729276 -204947,-6729291 -204942,-6729308 -204938,-6729317 -204932,-6729326 -204925,-6729335 -204919,-6729341 -204912,-6729346 -204903,-6729351 -204853,-6729370 -204837,-6729382 -204811,-6729410 -204803,-6729422 -204800,-6729431 -204798,-6729440 -204798,-6729448 -204799,-6729457 -204802,-6729466 -204807,-6729475 -204809,-6729478 -204860,-6729451 -204907,-6729412 -204945,-6729394 -204987,-6729359 -204990,-6729358 -204995,-6729358 -205000,-6729360 -205004,-6729363 -205006,-6729367 -205008,-6729371 -205008,-6729375 -205006,-6729380 -205006,-6729405 -205000,-6729446 -204991,-6729482 -204973,-6729526 -204986,-6729573 -204979,-6729616 -204976,-6729649 -204961,-6729685 -204943,-6729736 -204942,-6729747 -204943,-6729754 -204947,-6729765 -204966,-6729781 -204972,-6729790 -204975,-6729799 -204975,-6729804 -204974,-6729810 -204970,-6729820 -204947,-6729849 -204945,-6729853 -204943,-6729860 -204942,-6729868 -204943,-6729883 -204997,-6730023 -205014,-6730052 -205036,-6730119 -205057,-6730165 -205078,-6730217 -205077,-6730236 -205086,-6730263 -205092,-6730292 -205084,-6730372 -205054,-6730409 -205034,-6730445 -205012,-6730494 -205007,-6730501 -205004,-6730503 -204997,-6730504 -204992,-6730503 -204982,-6730497 -204977,-6730495 -204971,-6730494 -204965,-6730494 -204960,-6730496 -204955,-6730499 -204952,-6730503 -204950,-6730507 -204949,-6730511 -204949,-6730516 -204950,-6730522 -204952,-6730614 -204950,-6730639 -204948,-6730642 -204946,-6730646 -204938,-6730649 -204918,-6730650 -204862,-6730649 -204796,-6730708 -204815,-6730756 -204815,-6730807 -204821,-6730841 -204822,-6730885 -204816,-6730913 -204817,-6730957 -204805,-6730997 -204797,-6731040 -204765,-6731056 -204750,-6731067 -204743,-6731074 -204735,-6731084 -204725,-6731102 -204717,-6731113 -204675,-6731125 -204609,-6731159 -204602,-6731162 -204596,-6731164 -204587,-6731163 -204578,-6731160 -204575,-6731157 -204561,-6731140 -204555,-6731138 -204550,-6731138 -204545,-6731139 -204541,-6731141 -204538,-6731144 -204535,-6731148 -204531,-6731159 -204531,-6731164 -204530,-6731167 -204527,-6731170 -204524,-6731171 -204520,-6731171 -204517,-6731169 -204509,-6731159 -204504,-6731157 -204500,-6731157 -204495,-6731158 -204490,-6731163 -204487,-6731170 -204487,-6731174 -204490,-6731181 -204499,-6731191 -204501,-6731195 -204502,-6731199 -204501,-6731206 -204500,-6731210 -204495,-6731216 -204472,-6731232 -204456,-6731247 -204481,-6731264 -204499,-6731263 -204504,-6731264 -204508,-6731266 -204511,-6731270 -204512,-6731274 -204511,-6731279 -204509,-6731283 -204503,-6731288 -204493,-6731300 -204487,-6731305 -204481,-6731308 -204474,-6731310 -204468,-6731311 -204457,-6731309 -204403,-6731306 -204384,-6731328 -204377,-6731335 -204372,-6731341 -204369,-6731349 -204369,-6731358 -204372,-6731374 -204372,-6731380 -204371,-6731385 -204368,-6731390 -204365,-6731395 -204360,-6731398 -204350,-6731402 -204336,-6731415 -204333,-6731419 -204329,-6731427 -204327,-6731435 -204327,-6731443 -204329,-6731447 -204343,-6731478 -204345,-6731491 -204344,-6731503 -204340,-6731512 -204335,-6731521 -204328,-6731529 -204315,-6731539 -204314,-6731540 -204310,-6731544 -204304,-6731553 -204300,-6731561 -204298,-6731568 -204296,-6731581 -204297,-6731594 -204299,-6731601 -204308,-6731616 -204311,-6731623 -204312,-6731630 -204312,-6731635 -204310,-6731644 -204307,-6731650 -204303,-6731655 -204298,-6731660 -204292,-6731663 -204284,-6731666 -204271,-6731667 -204231,-6731678 -204214,-6731662 -204210,-6731660 -204205,-6731658 -204200,-6731658 -204194,-6731659 -204189,-6731662 -204185,-6731667 -204182,-6731673 -204181,-6731679 -204186,-6731700 -204182,-6731712 -204175,-6731723 -204162,-6731734 -204153,-6731746 -204150,-6731752 -204147,-6731765 -204145,-6731769 -204140,-6731776 -204135,-6731780 -204130,-6731783 -204125,-6731785 -204097,-6731787 -204090,-6731790 -204089,-6731792 -204088,-6731799 -204090,-6731807 -204092,-6731810 -204100,-6731815 -204118,-6731830 -204122,-6731837 -204123,-6731842 -204122,-6731847 -204120,-6731851 -204117,-6731853 -204111,-6731856 -204108,-6731856 -204104,-6731854 -204099,-6731851 -204051,-6731831 -204046,-6731831 -204037,-6731832 -204030,-6731837 -204027,-6731841 -204022,-6731850 -204019,-6731871 -204018,-6731874 -204016,-6731877 -204009,-6731882 -204006,-6731882 -204002,-6731881 -203998,-6731880 -203993,-6731876 -203977,-6731867 -203972,-6731863 -203966,-6731862 -203960,-6731865 -203957,-6731871 -203957,-6731876 -203940,-6731911 -203933,-6731920 -203922,-6731928 -203912,-6731932 -203902,-6731933 -203899,-6731932 -203860,-6731920 -203855,-6731919 -203848,-6731920 -203841,-6731922 -203832,-6731928 -203823,-6731935 -203818,-6731941 -203816,-6731946 -203815,-6731951 -203816,-6731957 -203818,-6731962 -203824,-6731970 -203835,-6731975 -203841,-6731982 -203844,-6731990 -203845,-6731997 -203837,-6732041 -203836,-6732044 -203831,-6732051 -203821,-6732063 -203804,-6732074 -203811,-6732098 -203812,-6732124 -203754,-6732139 -203747,-6732144 -203744,-6732148 -203742,-6732153 -203742,-6732159 -203743,-6732165 -203744,-6732169 -203750,-6732174 -203756,-6732176 -203761,-6732176 -203767,-6732174 -203817,-6732158 -203823,-6732191 -203822,-6732199 -203819,-6732204 -203814,-6732210 -203811,-6732213 -203798,-6732217 -203795,-6732219 -203790,-6732222 -203788,-6732225 -203786,-6732229 -203785,-6732235 -203785,-6732239 -203798,-6732280 -203794,-6732305 -203780,-6732363 -203779,-6732371 -203777,-6732375 -203774,-6732378 -203770,-6732381 -203766,-6732382 -203759,-6732381 -203752,-6732377 -203719,-6732373 -203714,-6732373 -203704,-6732374 -203696,-6732377 -203690,-6732382 -203685,-6732388 -203679,-6732399 -203680,-6732422 -203682,-6732430 -203681,-6732435 -203679,-6732440 -203674,-6732445 -203667,-6732448 -203659,-6732448 -203655,-6732447 -203641,-6732437 -203637,-6732435 -203631,-6732436 -203628,-6732438 -203623,-6732444 -203615,-6732485 -203609,-6732498 -203604,-6732505 -203592,-6732515 -203579,-6732523 -203564,-6732528 -203553,-6732531 -203543,-6732542 -203530,-6732561 -203527,-6732572 -203526,-6732578 -203529,-6732605 -203528,-6732609 -203526,-6732616 -203523,-6732620 -203480,-6732655 -203475,-6732661 -203402,-6732659 -203295,-6732707 -203212,-6732743 -203130,-6732779 -202978,-6732843 -202823,-6732914 -202742,-6732953 -202708,-6733001 -202690,-6733022 -202622,-6733095 -202532,-6733021 -202404,-6732903 -202157,-6732674 -202076,-6732601 -201968,-6732514 -201815,-6732732 -201718,-6732858 -201634,-6732983 -201585,-6733050 -201536,-6733117 -201435,-6733252 -201353,-6733369 -201258,-6733499 -201203,-6733569 -201229,-6733577 -201219,-6733598 -201203,-6733652 -201172,-6733777 -201154,-6733843 -201135,-6733835 -201121,-6733843 -201089,-6733956 -201084,-6733986 -200987,-6733983 -200854,-6733982 -200727,-6733985 -200582,-6733994 -200359,-6733999 -200219,-6734003 -200205,-6734006 -200111,-6734008 -199928,-6734010 -199593,-6734007 -199319,-6733993 -199104,-6733985 -199161,-6734114 -199194,-6734194 -199207,-6734225 -199249,-6734341 -199252,-6734351 -199255,-6734361 -199255,-6734377 -199253,-6734395 -199222,-6734502 -199207,-6734535 -199201,-6734545 -199184,-6734567 -199148,-6734709 -199147,-6734723 -199148,-6734729 -199151,-6734743 -199155,-6734750 -199176,-6734777 -199192,-6734816 -199206,-6734934 -199201,-6734962 -199226,-6735027 -199230,-6735058 -199227,-6735121 -199239,-6735155 -199256,-6735249 -199289,-6735406 -199310,-6735487 -199310,-6735510 -199315,-6735539 -199353,-6735646 -199381,-6735750 -199434,-6735951 -199465,-6736055 -199503,-6736158 -199562,-6736326 -199577,-6736383 -199647,-6736683 -199658,-6736713 -199659,-6736716 -199623,-6736795 -199641,-6736878 -199685,-6736951 -199715,-6737005 -199752,-6737089 -199768,-6737139 -199811,-6737221 -199783,-6737293 -199781,-6737305 -199780,-6737314 -199781,-6737332 -199783,-6737339 -199789,-6737355 -199834,-6737527 -199844,-6737565 -199887,-6737735 -199895,-6737759 -199907,-6737757 -199920,-6737827 -199929,-6737886 -199945,-6738038 -199950,-6738150 -199956,-6738252 -199955,-6738261 -199952,-6738271 -199948,-6738279 -199934,-6738298 -199828,-6738353 -199885,-6738476 -199896,-6738504 -199927,-6738614 -199934,-6738645 -199939,-6738663 -199951,-6738738 -199957,-6738761 -199962,-6738775 -199970,-6738793 -199996,-6738838 -200030,-6738914 -200074,-6739043 -200094,-6739066 -200152,-6739100 -200204,-6739133 -200229,-6739158 -200240,-6739177 -200246,-6739192 -200251,-6739206 -200253,-6739221 -200254,-6739234 -200254,-6739240 -200250,-6739263 -200250,-6739277 -200251,-6739289 -200254,-6739300 -200257,-6739308 -200258,-6739311 -200264,-6739320 -200272,-6739330 -200258,-6739338 -200230,-6739354 -200220,-6739357 -200202,-6739360 -200201,-6739360 -200194,-6739313 -200191,-6739309 -200186,-6739305 -200182,-6739304 -200179,-6739305 -200176,-6739307 -200172,-6739311 -200154,-6739333 -200150,-6739337 -200143,-6739340 -200111,-6739347 -200099,-6739348 -200085,-6739348 -200078,-6739347 -200051,-6739342 -200039,-6739341 -200019,-6739343 -200004,-6739341 -199989,-6739338 -199964,-6739323 -199960,-6739322 -199955,-6739322 -199949,-6739323 -199942,-6739328 -199930,-6739346 -199903,-6739354 -199892,-6739389 -199817,-6739432 -199779,-6739434 -199735,-6739465 -199729,-6739467 -199724,-6739468 -199718,-6739467 -199711,-6739465 -199706,-6739462 -199701,-6739458 -199696,-6739447 -199682,-6739427 -199669,-6739422 -199660,-6739420 -199631,-6739420 -199622,-6739421 -199617,-6739424 -199609,-6739429 -199595,-6739446 -199587,-6739466 -199585,-6739468 -199577,-6739477 -199568,-6739483 -199552,-6739488 -199544,-6739489 -199531,-6739489 -199528,-6739455 -199508,-6739458 -199495,-6739486 -199491,-6739488 -199482,-6739488 -199473,-6739488 -199466,-6739485 -199462,-6739483 -199459,-6739479 -199458,-6739472 -199458,-6739464 -199459,-6739461 -199468,-6739445 -199467,-6739442 -199463,-6739439 -199458,-6739437 -199454,-6739438 -199449,-6739441 -199444,-6739446 -199440,-6739454 -199435,-6739479 -199403,-6739515 -199419,-6739564 -199403,-6739589 -199410,-6739603 -199412,-6739612 -199413,-6739623 -199412,-6739634 -199408,-6739650 -199380,-6739711 -199363,-6739743 -199351,-6739760 -199332,-6739782 -199300,-6739823 -199284,-6739849 -199276,-6739865 -199259,-6739903 -199241,-6739939 -199227,-6739980 -199223,-6740002 -199217,-6740017 -199211,-6740030 -199204,-6740041 -199188,-6740059 -199107,-6740137 -199099,-6740141 -199080,-6740149 -198992,-6740177 -198950,-6740192 -198912,-6740204 -198840,-6740229 -198812,-6740238 -198790,-6740244 -198770,-6740248 -198723,-6740256 -198680,-6740270 -198649,-6740280 -198619,-6740303 -198473,-6740411 -198423,-6740447 -198313,-6740509 -198283,-6740518 -198265,-6740522 -198253,-6740524 -198222,-6740528 -198146,-6740526 -198137,-6740526 -197995,-6740519 -197928,-6740516 -197889,-6740523 -197846,-6740552 -197838,-6740560 -197833,-6740563 -197827,-6740565 -197819,-6740566 -197813,-6740566 -197806,-6740564 -197795,-6740557 -197743,-6740503 -197653,-6740432 -197605,-6740418 -197553,-6740371 -197549,-6740369 -197544,-6740367 -197541,-6740365 -197534,-6740363 -197520,-6740362 -197512,-6740364 -197497,-6740370 -197457,-6740384 -197449,-6740387 -197443,-6740388 -197437,-6740389 -197432,-6740388 -197425,-6740386 -197419,-6740382 -197414,-6740376 -197410,-6740370 -197406,-6740359 -197380,-6740317 -197373,-6740309 -197362,-6740302 -197354,-6740299 -197346,-6740298 -197322,-6740298 -197194,-6740304 -197173,-6740305 -197140,-6740312 -197108,-6740318 -197096,-6740322 -197088,-6740322 -197082,-6740321 -197076,-6740319 -197070,-6740315 -197066,-6740311 -197064,-6740309 -197042,-6740265 -196990,-6740141 -196933,-6740026 -196877,-6739922 -196870,-6739906 -196865,-6739889 -196861,-6739872 -196859,-6739859 -196858,-6739845 -196858,-6739828 -196858,-6739814 -196868,-6739744 -196869,-6739721 -196867,-6739682 -196864,-6739664 -196859,-6739639 -196854,-6739618 -196845,-6739591 -196833,-6739562 -196820,-6739538 -196812,-6739525 -196792,-6739499 -196750,-6739469 -196716,-6739440 -196656,-6739382 -196639,-6739370 -196625,-6739362 -196612,-6739357 -196599,-6739354 -196583,-6739353 -196563,-6739353 -196475,-6739364 -196465,-6739363 -196456,-6739360 -196409,-6739343 -196386,-6739338 -196170,-6739329 -196103,-6739325 -196093,-6739321 -196084,-6739321 -196075,-6739323 -196068,-6739329 -196062,-6739336 -196061,-6739339 -196061,-6739343 -196062,-6739347 -196081,-6739388 -196083,-6739397 -196084,-6739406 -196083,-6739414 -196081,-6739422 -196078,-6739429 -196074,-6739435 -196068,-6739441 -196062,-6739446 -196047,-6739456 -196027,-6739463 -196018,-6739465 -196008,-6739466 -196000,-6739466 -195990,-6739463 -195981,-6739459 -195975,-6739455 -195951,-6739429 -195946,-6739426 -195940,-6739424 -195933,-6739424 -195927,-6739425 -195859,-6739442 -195794,-6739445 -195687,-6739449 -195645,-6739434 -195634,-6739430 -195537,-6739415 -195430,-6739384 -195316,-6739347 -195305,-6739342 -195293,-6739332 -195283,-6739319 -195273,-6739299 -195269,-6739294 -195261,-6739287 -195253,-6739282 -195246,-6739280 -195238,-6739278 -195231,-6739278 -195224,-6739279 -195217,-6739281 -195203,-6739287 -195189,-6739296 -195176,-6739310 -195171,-6739317 -195166,-6739326 -195164,-6739334 -195161,-6739348 -195161,-6739358 -195162,-6739373 -195161,-6739379 -195158,-6739387 -195155,-6739394 -195149,-6739403 -195144,-6739407 -195139,-6739409 -195125,-6739414 -195078,-6739424 -195071,-6739424 -195065,-6739423 -195059,-6739420 -195054,-6739416 -195048,-6739408 -195020,-6739390 -195010,-6739386 -195003,-6739385 -194995,-6739385 -194988,-6739386 -194982,-6739389 -194976,-6739392 -194971,-6739396 -194963,-6739405 -194939,-6739446 -194936,-6739450 -194926,-6739459 -194920,-6739462 -194912,-6739465 -194903,-6739466 -194894,-6739466 -194886,-6739464 -194880,-6739462 -194872,-6739456 -194841,-6739427 -194835,-6739423 -194830,-6739421 -194818,-6739419 -194809,-6739420 -194800,-6739425 -194794,-6739432 -194782,-6739455 -194779,-6739463 -194776,-6739467 -194773,-6739470 -194768,-6739472 -194760,-6739473 -194737,-6739469 -194717,-6739414 -194620,-6739453 -194526,-6739494 -194421,-6739552 -194325,-6739594 -194259,-6739613 -194250,-6739613 -194245,-6739614 -194239,-6739617 -194233,-6739621 -194228,-6739626 -194225,-6739632 -194223,-6739639 -194222,-6739645 -194222,-6739650 -194234,-6739696 -194235,-6739703 -194234,-6739711 -194231,-6739717 -194227,-6739723 -194216,-6739732 -194200,-6739740 -194019,-6739827 -193934,-6739853 -193927,-6739856 -193920,-6739861 -193914,-6739867 -193910,-6739873 -193906,-6739881 -193903,-6739894 -193900,-6739936 -193899,-6739942 -193896,-6739948 -193891,-6739956 -193885,-6739962 -193880,-6739967 -193868,-6739972 -193860,-6739974 -193853,-6739975 -193839,-6739975 -193767,-6739962 -193760,-6739962 -193750,-6739965 -193745,-6739969 -193740,-6739975 -193738,-6739981 -193736,-6739987 -193738,-6739999 -193760,-6740051 -193761,-6740060 -193762,-6740068 -193760,-6740075 -193757,-6740083 -193752,-6740091 -193745,-6740100 -193737,-6740109 -193729,-6740116 -193713,-6740125 -193675,-6740136 -193659,-6740145 -193650,-6740152 -193638,-6740166 -193626,-6740189 -193622,-6740200 -193617,-6740206 -193612,-6740211 -193608,-6740213 -193602,-6740215 -193596,-6740216 -193596,-6740216 -193584,-6740214 -193538,-6740209 -193453,-6740191 -193444,-6740190 -193414,-6740188 -193400,-6740189 -193381,-6740192 -193351,-6740198 -193281,-6740235 -193269,-6740239 -193246,-6740247 -193225,-6740253 -193207,-6740257 -193192,-6740259 -193181,-6740259 -193170,-6740257 -193143,-6740251 -193077,-6740223 -193065,-6740218 -193053,-6740216 -193041,-6740214 -193030,-6740215 -192955,-6740229 -192919,-6740225 -192765,-6740218 -192752,-6740219 -192739,-6740220 -192723,-6740225 -192644,-6740264 -192628,-6740269 -192620,-6740269 -192602,-6740268 -192594,-6740267 -192584,-6740263 -192572,-6740257 -192537,-6740225 -192531,-6740221 -192525,-6740218 -192519,-6740216 -192512,-6740216 -192505,-6740216 -192494,-6740219 -192484,-6740225 -192475,-6740234 -192444,-6740263 -192440,-6740268 -192437,-6740271 -192428,-6740274 -192424,-6740275 -192418,-6740275 -192412,-6740272 -192406,-6740267 -192399,-6740260 -192396,-6740254 -192393,-6740248 -192385,-6740209 -192377,-6740194 -192373,-6740188 -192364,-6740181 -192357,-6740177 -192351,-6740174 -192337,-6740172 -192321,-6740172 -192310,-6740174 -192298,-6740179 -192288,-6740185 -192278,-6740193 -192270,-6740201 -192260,-6740214 -192254,-6740225 -192223,-6740275 -192212,-6740288 -192205,-6740293 -192199,-6740298 -192190,-6740302 -192182,-6740305 -192174,-6740307 -192155,-6740309 -192040,-6740328 -192028,-6740328 -192021,-6740330 -192014,-6740332 -192005,-6740337 -191996,-6740343 -191990,-6740349 -191985,-6740356 -191982,-6740364 -191981,-6740372 -191981,-6740379 -191982,-6740385 -191991,-6740411 -191993,-6740418 -191992,-6740426 -191991,-6740433 -191988,-6740440 -191984,-6740446 -191977,-6740452 -191968,-6740459 -191958,-6740465 -191947,-6740469 -191938,-6740471 -191923,-6740473 -191912,-6740473 -191846,-6740478 -191826,-6740487 -191817,-6740492 -191807,-6740500 -191797,-6740508 -191790,-6740516 -191784,-6740525 -191773,-6740545 -191754,-6740593 -191751,-6740599 -191746,-6740606 -191740,-6740614 -191732,-6740621 -191725,-6740625 -191717,-6740629 -191708,-6740632 -191697,-6740634 -191687,-6740634 -191679,-6740633 -191670,-6740630 -191661,-6740625 -191654,-6740620 -191650,-6740615 -191644,-6740606 -191642,-6740595 -191642,-6740588 -191643,-6740582 -191645,-6740574 -191639,-6740518 -191637,-6740512 -191632,-6740501 -191627,-6740493 -191621,-6740486 -191612,-6740478 -191604,-6740472 -191597,-6740468 -191590,-6740466 -191577,-6740465 -191564,-6740468 -191559,-6740471 -191513,-6740506 -191473,-6740554 -191444,-6740611 -191422,-6740633 -191416,-6740639 -191393,-6740647 -191351,-6740673 -191309,-6740723 -191255,-6740776 -191231,-6740811 -191218,-6740826 -191209,-6740835 -191199,-6740842 -191187,-6740849 -191173,-6740856 -191156,-6740862 -191103,-6740874 -191016,-6740896 -191014,-6740896 -190890,-6740917 -190805,-6740946 -190755,-6740974 -190722,-6740998 -190711,-6741004 -190694,-6741010 -190679,-6741014 -190669,-6741016 -190655,-6741016 -190640,-6741016 -190634,-6741015 -190598,-6741007 -190525,-6740989 -190517,-6740985 -190510,-6740984 -190502,-6740983 -190490,-6740985 -190481,-6740989 -190473,-6740997 -190469,-6741006 -190458,-6741074 -190452,-6741123 -190450,-6741186 -190452,-6741242 -190455,-6741297 -190467,-6741383 -190483,-6741455 -190497,-6741524 -190499,-6741534 -190499,-6741544 -190498,-6741551 -190495,-6741559 -190452,-6741643 -190434,-6741707 -190426,-6741723 -190420,-6741731 -190409,-6741743 -190408,-6741744 -190400,-6741750 -190390,-6741756 -190372,-6741762 -190322,-6741783 -190313,-6741794 -190309,-6741803 -190306,-6741812 -190305,-6741820 -190305,-6741829 -190307,-6741838 -190310,-6741848 -190314,-6741857 -190318,-6741863 -190328,-6741875 -190378,-6741955 -190382,-6741966 -190384,-6741975 -190384,-6741984 -190383,-6741990 -190381,-6741997 -190377,-6742005 -190364,-6742021 -190358,-6742027 -190306,-6742068 -190297,-6742079 -190287,-6742095 -190284,-6742103 -190281,-6742119 -190281,-6742138 -190296,-6742253 -190265,-6742315 -190230,-6742367 -190228,-6742372 -190227,-6742380 -190227,-6742389 -190230,-6742398 -190234,-6742405 -190239,-6742411 -190246,-6742416 -190266,-6742425 -190283,-6742432 -190295,-6742436 -190303,-6742441 -190310,-6742446 -190317,-6742453 -190322,-6742460 -190326,-6742467 -190333,-6742487 -190334,-6742496 -190335,-6742505 -190333,-6742518 -190329,-6742538 -190324,-6742557 -190320,-6742570 -190311,-6742590 -190287,-6742657 -190285,-6742672 -190287,-6742687 -190292,-6742703 -190296,-6742712 -190303,-6742721 -190316,-6742737 -190319,-6742742 -190321,-6742747 -190321,-6742758 -190318,-6742768 -190314,-6742775 -190306,-6742787 -190293,-6742800 -190276,-6742821 -190258,-6742846 -190241,-6742871 -190204,-6742930 -190192,-6742953 -190184,-6742966 -190172,-6742982 -190162,-6742994 -190158,-6742998 -190070,-6743077 -190045,-6743091 -190036,-6743087 -190011,-6743077 -189997,-6743070 -189986,-6743067 -189976,-6743065 -189952,-6743064 -189947,-6743064 -189938,-6743066 -189933,-6743068 -189929,-6743071 -189925,-6743075 -189920,-6743084 -189915,-6743095 -189912,-6743107 -189910,-6743118 -189910,-6743137 -189927,-6743237 -189928,-6743256 -189927,-6743265 -189923,-6743283 -189919,-6743296 -189912,-6743313 -189903,-6743330 -189895,-6743343 -189887,-6743354 -189874,-6743370 -189856,-6743390 -189841,-6743404 -189829,-6743414 -189800,-6743436 -189751,-6743488 -189737,-6743497 -189725,-6743503 -189711,-6743508 -189688,-6743512 -189681,-6743517 -189657,-6743539 -189654,-6743545 -189651,-6743552 -189650,-6743560 -189651,-6743568 -189653,-6743575 -189683,-6743628 -189682,-6743628 -189668,-6743634 -189650,-6743620 -189643,-6743612 -189636,-6743609 -189630,-6743609 -189625,-6743609 -189614,-6743614 -189610,-6743614 -189605,-6743613 -189601,-6743610 -189599,-6743607 -189598,-6743602 -189598,-6743593 -189593,-6743573 -189590,-6743567 -189582,-6743557 -189575,-6743550 -189569,-6743545 -189561,-6743540 -189551,-6743537 -189543,-6743536 -189538,-6743536 -189529,-6743537 -189522,-6743540 -189474,-6743560 -189453,-6743573 -189422,-6743582 -189391,-6743596 -189350,-6743606 -189321,-6743619 -189317,-6743623 -189316,-6743626 -189315,-6743632 -189317,-6743636 -189341,-6743669 -189362,-6743707 -189365,-6743715 -189366,-6743727 -189363,-6743738 -189351,-6743757 -189323,-6743791 -189317,-6743795 -189312,-6743805 -189311,-6743813 -189313,-6743820 -189316,-6743851 -189314,-6743859 -189313,-6743863 -189307,-6743871 -189301,-6743875 -189272,-6743879 -189246,-6743874 -189207,-6743861 -189203,-6743858 -189196,-6743851 -189192,-6743845 -189185,-6743824 -189181,-6743818 -189178,-6743816 -189172,-6743812 -189166,-6743812 -189158,-6743815 -189130,-6743842 -189127,-6743848 -189127,-6743853 -189127,-6743857 -189130,-6743864 -189142,-6743881 -189147,-6743891 -189149,-6743897 -189149,-6743904 -189148,-6743913 -189147,-6743919 -189140,-6743937 -189136,-6743945 -189127,-6743961 -189119,-6743976 -189110,-6743994 -189109,-6743999 -189110,-6744003 -189111,-6744008 -189137,-6744039 -189139,-6744050 -189139,-6744057 -189138,-6744063 -189136,-6744070 -189132,-6744077 -189127,-6744083 -189120,-6744089 -189110,-6744096 -189098,-6744102 -189084,-6744108 -189063,-6744116 -189053,-6744123 -189046,-6744133 -189042,-6744144 -189041,-6744156 -189051,-6744188 -189050,-6744200 -189049,-6744208 -189045,-6744219 -189041,-6744229 -189031,-6744242 -189020,-6744307 -189013,-6744318 -189007,-6744323 -189001,-6744327 -188996,-6744329 -188986,-6744331 -188960,-6744330 -188953,-6744335 -188949,-6744341 -188946,-6744346 -188945,-6744352 -188945,-6744357 -188946,-6744363 -188951,-6744372 -188956,-6744381 -188961,-6744390 -188974,-6744403 -188980,-6744407 -188983,-6744411 -188985,-6744417 -188985,-6744421 -188981,-6744429 -188927,-6744489 -188922,-6744500 -188921,-6744505 -188923,-6744515 -188925,-6744521 -188933,-6744530 -188943,-6744545 -188890,-6744633 -188874,-6744645 -188862,-6744654 -188848,-6744661 -188833,-6744667 -188818,-6744672 -188803,-6744676 -188780,-6744679 -188706,-6744696 -188631,-6744729 -188545,-6744752 -188535,-6744753 -188524,-6744753 -188512,-6744752 -188501,-6744749 -188492,-6744745 -188485,-6744741 -188479,-6744736 -188438,-6744699 -188422,-6744690 -188411,-6744685 -188393,-6744682 -188289,-6744657 -188191,-6744643" stroke="white" stroke-width="66" /></ns0:svg>    <rect x="20" y="50"  width="250" height="25"  rx="0"  fill="#E8EDEE" fill-opacity="0.8" />    <text x="145" y="70" text-anchor="middle" font-family="Frutiger" font-weight="bold" font-size="30" fill="#AE2573">Swindon</text>    <rect x="35" y="195" width="220" height="160" rx="15" fill="#724F95"/>    <g font-family="Frutiger" font-size="15" fill="white">        <g> <text x="45" y="218">Self-harm</text> <text x="245" y="218" text-anchor="end">89</text> </g>        <g> <text x="45" y="243">SEN</text> <text x="245" y="243" text-anchor="end">65</text> </g>        <g> <text x="45" y="268">Difficulties</text> <text x="245" y="268" text-anchor="end">72</text> </g>        <g> <text x="45" y="293">Child Carer</text> <text x="245" y="293" text-anchor="end">28</text> </g>        <g> <text x="45" y="318">Drinkers</text> <text x="245" y="318" text-anchor="end">33</text> </g>        <g> <text x="45" y="343">Safeguarding </text> <text x="245" y="343" text-anchor="end">22</text> </g>    </g></svg>