<?xml version="1.0" standalone="no"?>
<!DOCTYPE svg PUBLIC "-//W3C//DTD SVG 1.1//EN"
"http://www.w3.org/Graphics/SVG/1.1/DTD/svg11.dtd">
<svg height="1800" version="1.1" width="1800" xmlns="http://www.w3.org/2000/svg"><defs><style type="text/css">@font-face {font-family: 'Frutiger';font-style: normal;font-weight: normal;src: local('Frutiger'), url('../fonts/Frutiger.woff') format('woff');}@font-face {font-family: 'Frutiger Bold';font-style: normal;font-weight: normal;src: local('Frutiger Bold'), url('../fonts/Frutiger_bold.woff') format('woff');}        </style>    </defs>    <rect x="20" y="20"  width="250" height="350" rx="15" fill="#009639" />    <rect x="35" y="35"  width="220" height="145" rx="15" fill="#E8EDEE" /><ns0:svg xmlns:ns0="http://www.w3.org/2000/svg" height="115" version="1.1" viewBox="-117216 -6708991 13859 14890" width="220" x="35" y="50"><ns0:polygon fill="#006747" points=" -107067,-6708983 -107033,-6708981 -106586,-6708981 -106585,-6708980 -106556,-6708944 -106536,-6708915 -106527,-6708901 -106510,-6708869 -106505,-6708858 -106493,-6708801 -106479,-6708806 -106362,-6708679 -106421,-6708617 -106383,-6708578 -106291,-6708416 -106224,-6708303 -106189,-6708246 -106225,-6708228 -106188,-6708182 -106063,-6708054 -106012,-6708003 -105886,-6707906 -105732,-6707799 -105661,-6707893 -105420,-6707727 -105534,-6707575 -105512,-6707557 -105489,-6707537 -105465,-6707514 -105447,-6707495 -105432,-6707475 -105423,-6707461 -105400,-6707423 -105330,-6707284 -105315,-6707257 -105251,-6707285 -105141,-6706992 -105260,-6706946 -105230,-6706901 -105200,-6706745 -105179,-6706572 -105187,-6706504 -105158,-6706457 -105121,-6706392 -105075,-6706316 -104929,-6706056 -104802,-6705833 -104774,-6705795 -104766,-6705745 -104877,-6705705 -104951,-6705667 -105025,-6705632 -105071,-6705606 -105173,-6705545 -105206,-6705525 -105235,-6705527 -105455,-6705381 -105442,-6705368 -105434,-6705358 -105426,-6705348 -105419,-6705337 -105413,-6705324 -105407,-6705309 -105398,-6705282 -105396,-6705273 -105394,-6705248 -105392,-6705164 -105386,-6705149 -105367,-6705127 -105666,-6704879 -105615,-6704722 -105607,-6704700 -105543,-6704539 -105511,-6704449 -105453,-6704306 -105439,-6704258 -105515,-6704227 -105616,-6704190 -105669,-6704166 -105641,-6704091 -105628,-6704054 -105669,-6704024 -105688,-6704003 -105691,-6703950 -105723,-6703971 -105767,-6704003 -105790,-6704019 -105850,-6704058 -105927,-6704088 -105952,-6704088 -106052,-6704079 -106153,-6704076 -106179,-6704072 -106204,-6704067 -106293,-6704039 -106330,-6704022 -106305,-6703935 -106288,-6703883 -106282,-6703878 -106239,-6703878 -106244,-6703795 -106248,-6703753 -106252,-6703711 -106260,-6703647 -106262,-6703580 -106243,-6703568 -106242,-6703539 -106259,-6703462 -106276,-6703458 -106328,-6703460 -106331,-6703395 -106337,-6703350 -106327,-6703335 -106334,-6703317 -106360,-6703293 -106284,-6703243 -106222,-6703207 -106138,-6703170 -106095,-6703154 -106052,-6703139 -106021,-6703135 -106000,-6703129 -105993,-6703126 -105979,-6703119 -105834,-6703035 -105809,-6703022 -105784,-6703010 -105762,-6703001 -105743,-6702994 -105712,-6702986 -105704,-6702984 -105660,-6702982 -105661,-6702924 -105663,-6702906 -105666,-6702896 -105670,-6702888 -105674,-6702882 -105682,-6702871 -105703,-6702839 -105710,-6702819 -105715,-6702793 -105730,-6702751 -105754,-6702687 -105759,-6702661 -105704,-6702649 -105697,-6702640 -105669,-6702651 -105522,-6702611 -105462,-6702597 -105340,-6702560 -105269,-6702537 -105202,-6702513 -105120,-6702474 -105072,-6702453 -105041,-6702438 -104981,-6702407 -104901,-6702364 -104872,-6702344 -104749,-6702270 -104707,-6702239 -104651,-6702204 -104615,-6702180 -104580,-6702155 -104513,-6702103 -104424,-6702022 -104400,-6702001 -104333,-6701936 -104283,-6701881 -104251,-6701843 -104180,-6701751 -104115,-6701674 -104082,-6701624 -104027,-6701536 -103970,-6701440 -103933,-6701377 -103892,-6701304 -103867,-6701249 -103828,-6701174 -103820,-6701150 -103810,-6701126 -103775,-6701026 -103774,-6701020 -103747,-6700956 -103699,-6700865 -103688,-6700847 -103662,-6700805 -103583,-6700686 -103572,-6700690 -103528,-6700623 -103517,-6700610 -103488,-6700576 -103465,-6700554 -103451,-6700535 -103424,-6700500 -103367,-6700431 -103357,-6700418 -103401,-6700331 -103441,-6700246 -103459,-6700192 -103468,-6700169 -103475,-6700150 -103486,-6700128 -103492,-6700117 -103541,-6700032 -103548,-6700019 -103591,-6699925 -103606,-6699894 -103645,-6699836 -103680,-6699788 -103718,-6699739 -103762,-6699685 -103793,-6699668 -103799,-6699670 -103812,-6699676 -103826,-6699685 -103839,-6699696 -103867,-6699726 -103904,-6699761 -103962,-6699837 -103985,-6699874 -103995,-6699894 -104051,-6700008 -104055,-6700020 -104058,-6700027 -104062,-6700033 -104068,-6700038 -104078,-6700047 -104112,-6700079 -104141,-6700097 -104165,-6700116 -104191,-6700132 -104207,-6700143 -104223,-6700155 -104236,-6700166 -104243,-6700172 -104269,-6700201 -104314,-6700245 -104349,-6700285 -104378,-6700303 -104390,-6700309 -104402,-6700314 -104480,-6700345 -104498,-6700354 -104508,-6700360 -104527,-6700375 -104627,-6700448 -104652,-6700463 -104678,-6700479 -104772,-6700530 -104839,-6700563 -104864,-6700572 -104873,-6700574 -104948,-6700580 -104960,-6700581 -104972,-6700583 -104997,-6700588 -105030,-6700596 -105051,-6700602 -105073,-6700609 -105087,-6700615 -105111,-6700624 -105111,-6700618 -105127,-6700607 -105146,-6700632 -105220,-6700598 -105217,-6700589 -105185,-6700516 -105174,-6700488 -105174,-6700487 -105162,-6700428 -105159,-6700389 -105158,-6700362 -105160,-6700234 -105162,-6700219 -105170,-6700194 -105172,-6700180 -105171,-6700171 -105165,-6700125 -105155,-6700015 -105342,-6699912 -105340,-6699832 -105342,-6699796 -105345,-6699774 -105348,-6699761 -105355,-6699735 -105359,-6699722 -105377,-6699683 -105518,-6699691 -105533,-6699519 -105545,-6699369 -105438,-6699356 -105354,-6699347 -105355,-6699286 -105355,-6699172 -105352,-6699164 -105344,-6699162 -105276,-6699182 -105213,-6699197 -105143,-6699213 -105118,-6699217 -105112,-6699221 -105084,-6699212 -105076,-6699218 -105053,-6699218 -105048,-6699147 -105044,-6699096 -105048,-6698947 -105041,-6698897 -105033,-6698858 -105032,-6698843 -105031,-6698810 -105031,-6698802 -105040,-6698721 -105040,-6698674 -105046,-6698556 -105045,-6698515 -105045,-6698510 -105040,-6698430 -105040,-6698423 -105041,-6698408 -105048,-6698379 -105066,-6698329 -105070,-6698279 -105071,-6698186 -105074,-6698159 -105073,-6698109 -105079,-6698016 -105077,-6697960 -105078,-6697832 -105079,-6697764 -105080,-6697724 -105076,-6697699 -105054,-6697675 -105037,-6697631 -105018,-6697587 -105022,-6697584 -105025,-6697582 -105033,-6697576 -105079,-6697524 -105097,-6697498 -105130,-6697458 -105155,-6697429 -105191,-6697384 -105216,-6697342 -105269,-6697266 -105312,-6697217 -105331,-6697193 -105338,-6697182 -105342,-6697172 -105345,-6697164 -105348,-6697149 -105367,-6697103 -105369,-6697099 -105415,-6697005 -105436,-6696970 -105490,-6696894 -105519,-6696858 -105527,-6696844 -105567,-6696770 -105609,-6696692 -105615,-6696678 -105637,-6696633 -105658,-6696605 -105734,-6696570 -105766,-6696566 -105839,-6696522 -105888,-6696489 -105912,-6696463 -105948,-6696436 -106001,-6696386 -106073,-6696322 -106150,-6696222 -106184,-6696211 -106220,-6696191 -106277,-6696123 -106331,-6696069 -106391,-6696015 -106474,-6695953 -106549,-6695900 -106520,-6695840 -106523,-6695832 -106571,-6695723 -106602,-6695660 -106641,-6695585 -106720,-6695423 -106776,-6695310 -106818,-6695229 -106847,-6695169 -106898,-6695047 -106870,-6694962 -106853,-6694904 -107031,-6694862 -107103,-6694843 -107091,-6694762 -107083,-6694686 -107074,-6694629 -107094,-6694622 -107080,-6694560 -107081,-6694559 -107093,-6694548 -107128,-6694535 -107191,-6694515 -107230,-6694502 -107256,-6694493 -107338,-6694470 -107377,-6694460 -107393,-6694454 -107408,-6694449 -107407,-6694414 -107408,-6694414 -107423,-6694409 -107501,-6694377 -107565,-6694353 -107621,-6694335 -107791,-6694274 -108031,-6694186 -108165,-6694140 -108171,-6694159 -108272,-6694133 -108391,-6694101 -108399,-6694180 -108399,-6694229 -108408,-6694412 -108371,-6694416 -108361,-6694429 -108364,-6694473 -108384,-6694595 -108406,-6694606 -108457,-6694602 -108493,-6694605 -108539,-6694602 -108588,-6694591 -108611,-6694587 -108633,-6694583 -108649,-6694583 -108663,-6694583 -108687,-6694589 -108743,-6694590 -108779,-6694590 -108813,-6694592 -108870,-6694589 -108910,-6694583 -108942,-6694582 -108956,-6694583 -108995,-6694589 -109019,-6694591 -109033,-6694609 -109047,-6694630 -109062,-6694649 -109081,-6694681 -109093,-6694751 -109108,-6694881 -109096,-6694904 -109084,-6694920 -109078,-6694931 -109072,-6694945 -109069,-6694954 -109115,-6695074 -109136,-6695145 -109171,-6695297 -109185,-6695346 -109191,-6695367 -109203,-6695427 -109212,-6695446 -109241,-6695497 -109284,-6695561 -109309,-6695593 -109329,-6695612 -109373,-6695643 -109423,-6695682 -109468,-6695722 -109431,-6695769 -109409,-6695810 -109388,-6695839 -109346,-6695888 -109313,-6695928 -109282,-6695970 -109266,-6695993 -109242,-6696037 -109269,-6696047 -109309,-6696065 -109384,-6696089 -109418,-6696101 -109452,-6696114 -109540,-6696148 -109589,-6696164 -109590,-6696226 -109599,-6696258 -109613,-6696266 -109626,-6696279 -109640,-6696272 -109688,-6696244 -109754,-6696203 -109824,-6696162 -109846,-6696147 -109906,-6696090 -109938,-6696073 -109950,-6696068 -109963,-6696063 -109993,-6696061 -110091,-6696047 -110133,-6696037 -110215,-6696025 -110304,-6696016 -110338,-6696014 -110366,-6696010 -110488,-6695898 -110558,-6695829 -110580,-6695839 -110609,-6695844 -110639,-6695844 -110676,-6695848 -110721,-6695847 -110729,-6695843 -110789,-6695842 -110809,-6695844 -110851,-6695850 -110904,-6695853 -110916,-6695932 -110926,-6695990 -110933,-6696019 -110939,-6696064 -110940,-6696090 -110936,-6696156 -110936,-6696190 -110938,-6696209 -110942,-6696224 -110969,-6696293 -111018,-6696406 -111050,-6696471 -111093,-6696554 -111136,-6696646 -111150,-6696680 -111158,-6696702 -111169,-6696739 -111172,-6696770 -111168,-6696786 -111170,-6696786 -111184,-6696789 -111200,-6696783 -111206,-6696782 -111217,-6696781 -111227,-6696782 -111238,-6696786 -111251,-6696791 -111267,-6696802 -111283,-6696816 -111300,-6696838 -111340,-6696872 -111356,-6696883 -111377,-6696896 -111400,-6696910 -111413,-6696917 -111439,-6696929 -111460,-6696939 -111447,-6697065 -111440,-6697118 -111423,-6697245 -111395,-6697503 -111402,-6697510 -111385,-6697637 -111399,-6697674 -111426,-6697743 -111485,-6697880 -111513,-6697940 -111541,-6697993 -111580,-6698043 -111602,-6698072 -111646,-6698078 -111678,-6698093 -111688,-6698104 -111695,-6698129 -111722,-6698160 -111732,-6698164 -111737,-6698168 -111741,-6698174 -111744,-6698179 -111746,-6698189 -111744,-6698198 -111723,-6698253 -111725,-6698311 -111731,-6698405 -111733,-6698406 -111735,-6698407 -111753,-6698413 -111781,-6698419 -111827,-6698415 -111854,-6698409 -111871,-6698415 -111901,-6698412 -111911,-6698410 -111920,-6698409 -111929,-6698410 -111936,-6698412 -111942,-6698415 -111955,-6698425 -111961,-6698427 -111966,-6698428 -111972,-6698428 -111978,-6698427 -111984,-6698424 -111993,-6698416 -111999,-6698413 -112022,-6698407 -112033,-6698408 -112039,-6698410 -112048,-6698414 -112057,-6698434 -112058,-6698446 -112061,-6698462 -112065,-6698471 -112071,-6698482 -112077,-6698490 -112084,-6698496 -112093,-6698500 -112101,-6698502 -112108,-6698502 -112113,-6698501 -112118,-6698499 -112122,-6698496 -112125,-6698493 -112127,-6698488 -112128,-6698483 -112126,-6698473 -112125,-6698468 -112121,-6698462 -112116,-6698456 -112094,-6698439 -112115,-6698425 -112141,-6698401 -112142,-6698400 -112151,-6698394 -112160,-6698389 -112169,-6698386 -112176,-6698385 -112185,-6698387 -112190,-6698388 -112210,-6698399 -112243,-6698418 -112250,-6698421 -112255,-6698424 -112258,-6698428 -112261,-6698433 -112263,-6698438 -112264,-6698443 -112263,-6698449 -112261,-6698454 -112258,-6698459 -112254,-6698462 -112247,-6698465 -112241,-6698466 -112228,-6698471 -112211,-6698478 -112206,-6698481 -112202,-6698486 -112197,-6698492 -112194,-6698501 -112189,-6698543 -112188,-6698572 -112191,-6698581 -112204,-6698607 -112207,-6698611 -112212,-6698615 -112221,-6698619 -112226,-6698620 -112232,-6698619 -112235,-6698619 -112248,-6698590 -112254,-6698556 -112260,-6698546 -112264,-6698542 -112273,-6698537 -112290,-6698531 -112305,-6698529 -112320,-6698528 -112330,-6698526 -112341,-6698522 -112350,-6698517 -112359,-6698509 -112383,-6698475 -112400,-6698461 -112428,-6698474 -112449,-6698488 -112453,-6698500 -112453,-6698509 -112453,-6698515 -112454,-6698521 -112458,-6698530 -112460,-6698532 -112463,-6698534 -112467,-6698534 -112472,-6698533 -112476,-6698531 -112481,-6698526 -112509,-6698521 -112518,-6698504 -112521,-6698496 -112524,-6698491 -112530,-6698486 -112535,-6698484 -112588,-6698479 -112593,-6698479 -112646,-6698542 -112680,-6698544 -112701,-6698542 -112730,-6698522 -112735,-6698519 -112741,-6698518 -112748,-6698518 -112754,-6698519 -112762,-6698521 -112768,-6698525 -112773,-6698528 -112781,-6698537 -112813,-6698602 -112794,-6698609 -112789,-6698622 -112799,-6698663 -112800,-6698670 -112801,-6698677 -112805,-6698684 -112810,-6698690 -112816,-6698695 -112824,-6698699 -112828,-6698700 -112852,-6698687 -112888,-6698691 -112919,-6698692 -112975,-6698682 -112996,-6698674 -113043,-6698667 -113062,-6698666 -113079,-6698666 -113094,-6698667 -113108,-6698670 -113136,-6698678 -113184,-6698692 -113246,-6698701 -113292,-6698713 -113375,-6698727 -113424,-6698738 -113497,-6698750 -113540,-6698753 -113594,-6698754 -113628,-6698752 -113650,-6698750 -113682,-6698744 -113726,-6698730 -113739,-6698734 -113761,-6698765 -113753,-6698856 -113747,-6698908 -113738,-6698967 -113730,-6699011 -113730,-6699059 -113737,-6699061 -113740,-6699114 -113738,-6699199 -113736,-6699240 -113738,-6699275 -113743,-6699316 -113754,-6699371 -113761,-6699418 -113761,-6699447 -113758,-6699490 -113751,-6699535 -113752,-6699589 -113760,-6699634 -113769,-6699636 -113778,-6699652 -113801,-6699724 -113814,-6699748 -113827,-6699780 -113832,-6699816 -113869,-6700007 -113906,-6700158 -113929,-6700267 -114218,-6700215 -114273,-6700207 -114276,-6700207 -114274,-6700213 -114264,-6700253 -114246,-6700286 -114239,-6700302 -114232,-6700319 -114221,-6700361 -114212,-6700378 -114210,-6700388 -114208,-6700400 -114209,-6700412 -114211,-6700422 -114216,-6700433 -114223,-6700443 -114232,-6700452 -114245,-6700460 -114267,-6700511 -114275,-6700527 -114293,-6700551 -114330,-6700576 -114376,-6700613 -114495,-6700681 -114587,-6700726 -114605,-6700735 -114616,-6700742 -114639,-6700761 -114652,-6700773 -114663,-6700786 -114671,-6700797 -114677,-6700807 -114683,-6700821 -114687,-6700833 -114693,-6700858 -114695,-6700873 -114697,-6700885 -114697,-6700909 -114692,-6701024 -114684,-6701140 -114683,-6701154 -114683,-6701170 -114685,-6701181 -114687,-6701192 -114691,-6701203 -114695,-6701212 -114696,-6701215 -114704,-6701229 -114727,-6701258 -114740,-6701275 -114785,-6701328 -114835,-6701390 -114860,-6701420 -114909,-6701482 -114924,-6701504 -114990,-6701604 -115070,-6701727 -115102,-6701770 -115108,-6701771 -115115,-6701772 -115214,-6701762 -115244,-6701760 -115304,-6701758 -115352,-6701758 -115403,-6701765 -115486,-6701784 -115523,-6701785 -115558,-6701780 -115623,-6701760 -115736,-6701716 -115893,-6701638 -116034,-6701564 -116143,-6701510 -116257,-6701450 -116328,-6701416 -116388,-6701377 -116463,-6701331 -116481,-6701323 -116501,-6701317 -116518,-6701314 -116528,-6701313 -116580,-6701350 -116606,-6701370 -116633,-6701392 -116731,-6701473 -116794,-6701534 -116784,-6701599 -116784,-6701639 -116787,-6701761 -116790,-6701832 -116796,-6701949 -116661,-6701956 -116559,-6702148 -116648,-6702221 -116520,-6702392 -116571,-6702447 -116630,-6702510 -116700,-6702575 -116783,-6702676 -116972,-6702870 -117068,-6702971 -117128,-6703036 -117216,-6703135 -117174,-6703167 -117159,-6703183 -117122,-6703224 -117082,-6703259 -116975,-6703327 -116931,-6703365 -116875,-6703417 -116860,-6703444 -116833,-6703460 -116799,-6703464 -116757,-6703479 -116713,-6703504 -116697,-6703541 -116701,-6703634 -116696,-6703669 -116680,-6703707 -116662,-6703740 -116645,-6703792 -116642,-6703861 -116649,-6703895 -116650,-6703896 -116616,-6703908 -116565,-6703921 -116432,-6703968 -116386,-6703988 -116371,-6703990 -116335,-6703983 -116288,-6703967 -116289,-6704012 -116252,-6704011 -116239,-6704061 -116234,-6704104 -116230,-6704144 -116235,-6704163 -116238,-6704167 -116241,-6704172 -116257,-6704177 -116248,-6704242 -116238,-6704298 -116240,-6704326 -116231,-6704348 -116201,-6704387 -116192,-6704383 -116158,-6704357 -116154,-6704367 -116129,-6704467 -116106,-6704543 -116108,-6704551 -116137,-6704578 -116120,-6704608 -116102,-6704635 -116087,-6704645 -116067,-6704648 -116050,-6704666 -116045,-6704686 -116042,-6704706 -116043,-6704709 -116053,-6704729 -116074,-6704754 -116052,-6704782 -116018,-6704816 -115979,-6704865 -115970,-6704878 -115961,-6704889 -115948,-6704902 -115936,-6704912 -115921,-6704920 -115889,-6704932 -115818,-6704952 -115798,-6705032 -115733,-6705071 -115714,-6705083 -115693,-6705100 -115666,-6705123 -115660,-6705129 -115652,-6705141 -115646,-6705149 -115639,-6705161 -115623,-6705195 -115612,-6705223 -115609,-6705231 -115599,-6705269 -115575,-6705299 -115544,-6705330 -115503,-6705369 -115460,-6705404 -115404,-6705462 -115365,-6705558 -115343,-6705609 -115318,-6705646 -115414,-6705760 -115389,-6705790 -115348,-6705759 -115287,-6705719 -115257,-6705698 -115228,-6705676 -115191,-6705647 -115156,-6705617 -115102,-6705566 -115056,-6705528 -115013,-6705486 -115004,-6705478 -114991,-6705466 -114978,-6705455 -114945,-6705430 -114919,-6705411 -114890,-6705395 -114817,-6705359 -114735,-6705322 -114714,-6705309 -114670,-6705272 -114640,-6705250 -114521,-6705168 -114498,-6705151 -114452,-6705115 -114405,-6705079 -114387,-6705063 -114365,-6705037 -114351,-6705025 -114343,-6705020 -114315,-6705008 -114302,-6705000 -114279,-6704985 -114216,-6704928 -114110,-6704840 -114051,-6704790 -113981,-6704720 -113950,-6704689 -113906,-6704637 -113872,-6704607 -113817,-6704563 -113743,-6704498 -113718,-6704479 -113643,-6704425 -113535,-6704354 -113450,-6704302 -113421,-6704285 -113346,-6704245 -113292,-6704233 -113210,-6704219 -113146,-6704215 -113126,-6704218 -113092,-6704214 -112996,-6704195 -112927,-6704192 -112876,-6704186 -112829,-6704193 -112768,-6704218 -112754,-6704228 -112740,-6704237 -112723,-6704251 -112696,-6704281 -112690,-6704286 -112669,-6704299 -112651,-6704309 -112567,-6704349 -112539,-6704357 -112468,-6704375 -112409,-6704387 -112380,-6704395 -112287,-6704424 -112236,-6704443 -112154,-6704468 -112116,-6704490 -112131,-6704536 -112164,-6704635 -112183,-6704716 -112194,-6704781 -112166,-6704788 -112168,-6704814 -112181,-6705034 -112182,-6705105 -112194,-6705106 -112199,-6705112 -112203,-6705119 -112203,-6705137 -112144,-6705129 -112125,-6705125 -112098,-6705115 -112077,-6705105 -112074,-6705168 -112104,-6705197 -112108,-6705202 -112109,-6705210 -112109,-6705215 -112107,-6705221 -112104,-6705225 -112088,-6705235 -112077,-6705244 -112074,-6705249 -112071,-6705254 -112070,-6705259 -112069,-6705268 -112051,-6705277 -112040,-6705267 -112020,-6705282 -111996,-6705297 -111983,-6705319 -111962,-6705317 -111955,-6705317 -111946,-6705319 -111927,-6705325 -111918,-6705326 -111908,-6705325 -111899,-6705323 -111892,-6705321 -111883,-6705316 -111874,-6705310 -111864,-6705300 -111857,-6705291 -111854,-6705342 -111863,-6705346 -111883,-6705354 -111894,-6705357 -111930,-6705367 -111959,-6705378 -111973,-6705385 -112000,-6705399 -112017,-6705411 -112043,-6705432 -112059,-6705453 -112069,-6705462 -112074,-6705464 -112081,-6705466 -112090,-6705467 -112077,-6705484 -112076,-6705486 -112052,-6705485 -112029,-6705484 -112012,-6705481 -111984,-6705474 -111952,-6705463 -111940,-6705460 -111836,-6705455 -111743,-6705448 -111682,-6705648 -111644,-6705636 -111598,-6705615 -111591,-6705616 -111564,-6705621 -111485,-6705645 -111463,-6705652 -111444,-6705661 -111424,-6705671 -111408,-6705682 -111394,-6705693 -111387,-6705699 -111308,-6705776 -111303,-6705783 -111298,-6705791 -111296,-6705796 -111290,-6705813 -111279,-6705847 -111264,-6705901 -111257,-6705919 -111254,-6705928 -111217,-6706003 -111171,-6706109 -111165,-6706128 -111162,-6706164 -111158,-6706177 -111149,-6706188 -111138,-6706197 -111132,-6706200 -111117,-6706205 -111133,-6706290 -111152,-6706488 -111176,-6706696 -111283,-6706699 -111366,-6706624 -111378,-6706681 -111388,-6706793 -111320,-6706796 -111316,-6706905 -111102,-6706951 -111078,-6707068 -111091,-6707069 -111102,-6707119 -111135,-6707229 -111126,-6707233 -111044,-6707263 -111141,-6707412 -111027,-6707473 -110994,-6707423 -110917,-6707456 -110890,-6707466 -110784,-6707508 -110707,-6707543 -110633,-6707571 -110653,-6707608 -110665,-6707632 -110677,-6707675 -110688,-6707711 -110631,-6707743 -110582,-6707768 -110566,-6707740 -110538,-6707694 -110527,-6707680 -110519,-6707672 -110509,-6707663 -110456,-6707621 -110435,-6707603 -110419,-6707592 -110412,-6707588 -110382,-6707577 -110372,-6707574 -110364,-6707573 -110352,-6707575 -110341,-6707580 -110334,-6707585 -110333,-6707586 -110303,-6707608 -110235,-6707633 -110221,-6707637 -110163,-6707648 -110140,-6707654 -110106,-6707666 -110098,-6707668 -110082,-6707667 -110047,-6707662 -110014,-6707656 -109984,-6707648 -109971,-6707646 -109950,-6707650 -109895,-6707664 -109874,-6707668 -109865,-6707669 -109856,-6707668 -109847,-6707666 -109838,-6707662 -109829,-6707658 -109814,-6707646 -109788,-6707619 -109776,-6707608 -109766,-6707600 -109745,-6707586 -109723,-6707576 -109712,-6707572 -109648,-6707565 -109627,-6707560 -109619,-6707557 -109586,-6707542 -109567,-6707535 -109551,-6707530 -109528,-6707526 -109513,-6707525 -109494,-6707525 -109475,-6707527 -109364,-6707540 -109344,-6707544 -109302,-6707557 -109281,-6707565 -109268,-6707571 -109258,-6707576 -109250,-6707583 -109240,-6707591 -109234,-6707598 -109222,-6707616 -109218,-6707621 -109213,-6707625 -109206,-6707629 -109191,-6707635 -109168,-6707643 -109102,-6707662 -109090,-6707665 -109080,-6707666 -109063,-6707665 -109048,-6707663 -108992,-6707651 -108962,-6707648 -108938,-6707649 -108947,-6707702 -108959,-6707764 -108962,-6707791 -108964,-6707818 -108966,-6707897 -108935,-6707901 -108940,-6707950 -109023,-6707993 -108917,-6708047 -108899,-6708062 -108845,-6708110 -108851,-6708134 -108831,-6708146 -108824,-6708137 -108819,-6708134 -108807,-6708135 -108794,-6708140 -108761,-6708146 -108731,-6708150 -108708,-6708151 -108701,-6708151 -108687,-6708148 -108676,-6708145 -108667,-6708141 -108657,-6708135 -108646,-6708128 -108640,-6708122 -108633,-6708114 -108628,-6708105 -108617,-6708080 -108575,-6707972 -108460,-6707850 -108384,-6707881 -108328,-6707906 -108297,-6707923 -108258,-6707944 -108238,-6707956 -108174,-6707998 -108149,-6708020 -108132,-6708038 -108116,-6708056 -108101,-6708076 -108080,-6708107 -108011,-6708231 -107981,-6708280 -107972,-6708306 -107968,-6708325 -107965,-6708342 -107966,-6708356 -107967,-6708361 -107976,-6708380 -107991,-6708409 -108028,-6708506 -108019,-6708521 -107981,-6708549 -107934,-6708585 -107889,-6708467 -107799,-6708536 -107778,-6708508 -107748,-6708532 -107751,-6708540 -107704,-6708590 -107662,-6708547 -107575,-6708594 -107552,-6708596 -107540,-6708611 -107378,-6708694 -107433,-6708802 -107202,-6708920 -107184,-6708913 -107162,-6708948 -107136,-6708924 -107128,-6708947 -107115,-6708980 -107112,-6708983 -107104,-6708988 -107099,-6708990 -107092,-6708991 -107080,-6708991 -107075,-6708989 -107067,-6708983" stroke="#006747" stroke-width="28" /></ns0:svg>    <rect x="20" y="50"  width="250" height="25"  rx="0"  fill="#006747" fill-opacity="0.8" />    <text x="145" y="70" text-anchor="middle" font-family="Frutiger" font-weight="bold" font-size="30" fill="white">Reading</text>    <rect x="35" y="195" width="220" height="160" rx="15" fill="#78BE20"/>    <g font-family="Frutiger" font-size="15" fill="#231F20">        <g> <text x="45" y="218">Self-harm</text> <text x="245" y="218" text-anchor="end">45</text> </g>        <g> <text x="45" y="243">SEN</text> <text x="245" y="243" text-anchor="end">58</text> </g>        <g> <text x="45" y="268">Difficulties</text> <text x="245" y="268" text-anchor="end">86</text> </g>        <g> <text x="45" y="293">Child Carer</text> <text x="245" y="293" text-anchor="end">23</text> </g>        <g> <text x="45" y="318">Drinkers</text> <text x="245" y="318" text-anchor="end">27</text> </g>        <g> <text x="45" y="343">Safeguarding £</text> <text x="245" y="343" text-anchor="end">34</text> </g>    </g></svg>