<?xml version="1.0" standalone="no"?>
<!DOCTYPE svg PUBLIC "-//W3C//DTD SVG 1.1//EN"
"http://www.w3.org/Graphics/SVG/1.1/DTD/svg11.dtd">
<svg height="1800" version="1.1" width="1800" xmlns="http://www.w3.org/2000/svg"><defs><style type="text/css">@font-face {font-family: 'Frutiger';font-style: normal;font-weight: normal;src: local('Frutiger'), url('../fonts/Frutiger.woff') format('woff');}@font-face {font-family: 'Frutiger Bold';font-style: normal;font-weight: normal;src: local('Frutiger Bold'), url('../fonts/Frutiger_bold.woff') format('woff');}        </style>    </defs>    <rect x="20" y="20"  width="250" height="350" rx="15" fill="#009639" />    <rect x="35" y="35"  width="220" height="145" rx="15" fill="#E8EDEE" /><ns0:svg xmlns:ns0="http://www.w3.org/2000/svg" height="115" version="1.1" viewBox="-143094 -7282990 16489 17350" width="220" x="35" y="50"><ns0:polygon fill="#006747" points=" -139274,-7282990 -139097,-7282987 -139078,-7282988 -139068,-7282987 -139056,-7282984 -139045,-7282980 -139007,-7282961 -138985,-7282953 -138972,-7282950 -138852,-7282933 -138815,-7282926 -138726,-7282898 -138630,-7282864 -138558,-7282831 -138512,-7282803 -138392,-7282714 -138177,-7282543 -138152,-7282519 -138117,-7282473 -138101,-7282449 -138087,-7282432 -138072,-7282416 -137969,-7282329 -137888,-7282245 -137766,-7282134 -137740,-7282113 -137722,-7282100 -137696,-7282084 -137616,-7282029 -137590,-7282016 -137511,-7281979 -137411,-7281935 -137347,-7281900 -137204,-7281830 -137128,-7281795 -137023,-7281741 -136892,-7281689 -136723,-7281634 -136702,-7281625 -136687,-7281622 -136632,-7281606 -136250,-7281510 -136147,-7281480 -136096,-7281465 -136045,-7281449 -135997,-7281432 -135898,-7281395 -135779,-7281344 -135567,-7281252 -135152,-7281076 -134927,-7281020 -134848,-7281002 -134807,-7280993 -134741,-7280981 -134673,-7280972 -134651,-7280969 -134592,-7280966 -134562,-7280966 -134501,-7280967 -134454,-7280968 -134404,-7280972 -134336,-7280980 -134302,-7280984 -134222,-7280998 -134128,-7281018 -133949,-7281067 -133905,-7281080 -133837,-7281102 -133784,-7281123 -133750,-7281139 -133682,-7281172 -133634,-7281197 -133588,-7281223 -133523,-7281262 -133490,-7281283 -133428,-7281326 -133256,-7281120 -132959,-7280758 -132955,-7280752 -132952,-7280749 -133097,-7280628 -133155,-7280578 -133248,-7280513 -133306,-7280480 -133342,-7280454 -133381,-7280433 -133437,-7280401 -133484,-7280383 -133583,-7280349 -133645,-7280331 -133679,-7280322 -133680,-7280322 -133683,-7280322 -133692,-7280321 -133777,-7280308 -133616,-7280180 -133570,-7280143 -133411,-7280013 -133269,-7279895 -133215,-7279892 -133163,-7279849 -133127,-7279828 -133103,-7279818 -133094,-7279816 -133076,-7279796 -132941,-7279688 -132932,-7279688 -132660,-7279762 -132587,-7279789 -132537,-7279811 -132532,-7279809 -132529,-7279808 -132511,-7279800 -132504,-7279791 -132482,-7279749 -132432,-7279710 -132412,-7279699 -132355,-7279648 -132283,-7279577 -132219,-7279518 -132177,-7279475 -132141,-7279429 -132124,-7279404 -132088,-7279365 -132084,-7279336 -132063,-7279293 -132053,-7279250 -132025,-7279173 -131962,-7278991 -131950,-7278961 -131951,-7278942 -131925,-7278879 -131908,-7278863 -131904,-7278850 -131903,-7278826 -131896,-7278815 -131883,-7278808 -131821,-7278757 -131787,-7278727 -131752,-7278705 -131722,-7278698 -131690,-7278697 -131672,-7278700 -131650,-7278696 -131627,-7278700 -131611,-7278698 -131592,-7278690 -131569,-7278687 -131516,-7278663 -131501,-7278662 -131493,-7278657 -131483,-7278641 -131464,-7278622 -131451,-7278615 -131447,-7278615 -131435,-7278627 -131429,-7278629 -131414,-7278623 -131365,-7278626 -131316,-7278608 -131292,-7278600 -131272,-7278593 -131248,-7278583 -131214,-7278585 -131145,-7278587 -131131,-7278585 -131121,-7278576 -131105,-7278562 -131100,-7278542 -131091,-7278524 -131094,-7278486 -131088,-7278460 -131063,-7278405 -131052,-7278391 -131052,-7278373 -131022,-7278322 -131000,-7278275 -130986,-7278233 -130959,-7278189 -130960,-7278158 -130965,-7278142 -130974,-7278133 -130978,-7278121 -130977,-7278100 -130966,-7278077 -130967,-7278034 -130961,-7278021 -130958,-7277986 -130944,-7277967 -130944,-7277953 -130949,-7277932 -130963,-7277890 -130957,-7277877 -130947,-7277866 -130947,-7277839 -130921,-7277812 -130918,-7277774 -130902,-7277743 -130898,-7277697 -130892,-7277664 -130900,-7277651 -130902,-7277613 -130904,-7277557 -130909,-7277492 -130904,-7277481 -130903,-7277467 -130891,-7277445 -130888,-7277431 -130882,-7277422 -130882,-7277410 -130890,-7277402 -130900,-7277382 -130893,-7277344 -130892,-7277329 -130896,-7277320 -130897,-7277291 -130905,-7277271 -130903,-7277244 -130910,-7277222 -130896,-7277189 -130896,-7277169 -130882,-7277137 -130875,-7277133 -130838,-7277094 -130825,-7277085 -130796,-7277075 -130784,-7277064 -130759,-7277057 -130753,-7277048 -130742,-7277042 -130721,-7277021 -130712,-7277017 -130695,-7276999 -130689,-7276981 -130680,-7276969 -130678,-7276953 -130664,-7276946 -130659,-7276931 -130648,-7276921 -130630,-7276912 -130618,-7276901 -130600,-7276892 -130588,-7276871 -130565,-7276856 -130550,-7276838 -130541,-7276835 -130516,-7276815 -130511,-7276807 -130504,-7276804 -130500,-7276802 -130499,-7276801 -130489,-7276788 -130483,-7276766 -130463,-7276738 -130458,-7276729 -130458,-7276727 -130456,-7276717 -130449,-7276704 -130443,-7276697 -130434,-7276684 -130432,-7276672 -130431,-7276665 -130398,-7276591 -130387,-7276573 -130385,-7276568 -130382,-7276557 -130370,-7276537 -130363,-7276525 -130362,-7276521 -130362,-7276514 -130335,-7276460 -130324,-7276439 -130322,-7276436 -130312,-7276422 -130291,-7276409 -130275,-7276406 -130222,-7276391 -130199,-7276358 -130177,-7276330 -130169,-7276309 -130144,-7276282 -130133,-7276263 -130119,-7276251 -130113,-7276237 -130101,-7276213 -130088,-7276202 -130075,-7276177 -130053,-7276151 -130021,-7276103 -129996,-7276076 -129990,-7276049 -129983,-7276036 -129975,-7276030 -129956,-7275998 -129927,-7275944 -129897,-7275904 -129880,-7275872 -129879,-7275852 -129875,-7275833 -129870,-7275828 -129872,-7275793 -129944,-7275772 -130008,-7275749 -130136,-7275697 -130248,-7275654 -130261,-7275650 -130283,-7275645 -130331,-7275633 -130431,-7275613 -130525,-7275595 -130584,-7275580 -130639,-7275560 -130727,-7275519 -130815,-7275463 -130905,-7275401 -130938,-7275374 -130980,-7275337 -131003,-7275318 -131006,-7275315 -131053,-7275269 -131139,-7275182 -131246,-7275071 -131267,-7275056 -131380,-7275010 -131424,-7274998 -131583,-7274929 -131775,-7274888 -131830,-7274879 -131926,-7274865 -131962,-7274858 -132019,-7274842 -132148,-7274792 -132212,-7274768 -132307,-7274732 -132428,-7274676 -132437,-7274672 -132546,-7274613 -132582,-7274591 -132627,-7274563 -132672,-7274527 -132719,-7274482 -132842,-7274357 -132951,-7274236 -133018,-7274167 -133052,-7274135 -133102,-7274095 -133151,-7274065 -133224,-7274030 -133298,-7274008 -133374,-7273995 -133403,-7273988 -133445,-7273972 -133479,-7273959 -133450,-7273911 -133407,-7273872 -133350,-7273819 -133329,-7273791 -133255,-7273711 -133151,-7273575 -132969,-7273359 -132839,-7273208 -132798,-7273172 -132778,-7273151 -132769,-7273140 -132720,-7273069 -132686,-7273027 -132629,-7272965 -132599,-7272935 -132559,-7272897 -132532,-7272876 -132501,-7272857 -132388,-7272772 -132360,-7272745 -132248,-7272628 -132216,-7272594 -132104,-7272486 -131989,-7272372 -131881,-7272276 -131818,-7272212 -131707,-7272096 -131624,-7272021 -131550,-7271951 -131448,-7271854 -131446,-7271853 -131360,-7271771 -131350,-7271779 -131343,-7271772 -131360,-7271756 -131361,-7271754 -131319,-7271716 -131268,-7271670 -131161,-7271578 -131119,-7271543 -131016,-7271453 -130972,-7271413 -130919,-7271376 -130896,-7271360 -130840,-7271313 -130796,-7271277 -130760,-7271247 -130682,-7271180 -130644,-7271143 -130568,-7271073 -130447,-7270978 -130414,-7270947 -130411,-7270950 -130339,-7270887 -130285,-7270834 -130281,-7270838 -130217,-7270787 -130190,-7270765 -130161,-7270741 -130168,-7270734 -130112,-7270690 -130062,-7270647 -129999,-7270595 -129926,-7270544 -129869,-7270505 -129867,-7270508 -129806,-7270465 -129809,-7270458 -129749,-7270422 -129693,-7270390 -129616,-7270348 -129526,-7270304 -129476,-7270280 -129439,-7270265 -129436,-7270270 -129355,-7270239 -129330,-7270237 -129305,-7270230 -129284,-7270217 -129277,-7270214 -129299,-7270162 -129310,-7270141 -129354,-7270049 -129384,-7269992 -129414,-7269939 -129442,-7269898 -129468,-7269863 -129509,-7269809 -129554,-7269758 -129646,-7269668 -129686,-7269632 -129623,-7269566 -129565,-7269498 -129505,-7269432 -129477,-7269399 -129470,-7269401 -129438,-7269369 -129405,-7269344 -129333,-7269297 -129323,-7269115 -129319,-7269065 -129309,-7269011 -129302,-7268966 -129293,-7268941 -129287,-7268938 -129272,-7268933 -129205,-7268786 -129150,-7268647 -129140,-7268600 -129101,-7268461 -128983,-7268486 -128736,-7268537 -128679,-7268548 -128655,-7268544 -128604,-7268541 -128473,-7268528 -128406,-7268519 -128375,-7268517 -128307,-7268497 -128282,-7268486 -128260,-7268472 -128233,-7268452 -128192,-7268432 -128150,-7268413 -128097,-7268370 -128010,-7268318 -127940,-7268272 -127905,-7268243 -127822,-7268185 -127783,-7268259 -127720,-7268351 -127709,-7268353 -127675,-7268342 -127655,-7268342 -127636,-7268346 -127613,-7268363 -127596,-7268371 -127567,-7268379 -127556,-7268380 -127546,-7268377 -127529,-7268372 -127511,-7268371 -127486,-7268383 -127463,-7268387 -127442,-7268393 -127409,-7268410 -127380,-7268433 -127362,-7268447 -127343,-7268456 -127328,-7268457 -127298,-7268455 -127264,-7268450 -127222,-7268471 -127199,-7268479 -127182,-7268484 -127083,-7268483 -127059,-7268478 -126930,-7268463 -126899,-7268455 -126849,-7268433 -126773,-7268395 -126674,-7268343 -126648,-7268330 -126625,-7268314 -126611,-7268299 -126605,-7268285 -126608,-7268272 -126615,-7268251 -126638,-7268170 -126643,-7268131 -126655,-7268104 -126663,-7268025 -126673,-7267973 -126672,-7267926 -126680,-7267884 -126692,-7267843 -126726,-7267736 -126736,-7267703 -126744,-7267634 -126769,-7267565 -126801,-7267470 -126800,-7267442 -126817,-7267401 -126829,-7267359 -126830,-7267339 -126827,-7267313 -126824,-7267291 -126842,-7267242 -126844,-7267201 -126866,-7267160 -126893,-7267129 -126911,-7267087 -126938,-7267052 -126942,-7267039 -126971,-7266986 -127000,-7266960 -127028,-7266913 -127031,-7266904 -127031,-7266872 -127044,-7266843 -127058,-7266827 -127064,-7266817 -127066,-7266761 -127078,-7266725 -127086,-7266701 -127085,-7266669 -127103,-7266642 -127140,-7266590 -127150,-7266572 -127160,-7266559 -127174,-7266494 -127180,-7266479 -127198,-7266447 -127202,-7266408 -127217,-7266355 -127218,-7266352 -127222,-7266345 -127258,-7266309 -127272,-7266293 -127286,-7266270 -127299,-7266247 -127343,-7266179 -127358,-7266157 -127385,-7266147 -127454,-7266103 -127505,-7266078 -127544,-7266055 -127601,-7266021 -127606,-7266009 -127604,-7265995 -127596,-7265980 -127594,-7265965 -127614,-7265893 -127650,-7265790 -127651,-7265779 -127649,-7265770 -127640,-7265740 -127638,-7265725 -127639,-7265717 -127642,-7265704 -127645,-7265694 -127649,-7265687 -127652,-7265683 -127656,-7265680 -127663,-7265676 -127709,-7265663 -127746,-7265655 -127781,-7265643 -127801,-7265640 -127820,-7265642 -127872,-7265657 -127881,-7265657 -127899,-7265653 -127905,-7265653 -127923,-7265660 -127946,-7265671 -127958,-7265674 -128006,-7265673 -128011,-7265674 -128019,-7265676 -128026,-7265680 -128031,-7265684 -128043,-7265696 -128053,-7265704 -128056,-7265706 -128091,-7265714 -128101,-7265717 -128108,-7265722 -128113,-7265725 -128138,-7265749 -128151,-7265755 -128160,-7265758 -128170,-7265758 -128181,-7265757 -128206,-7265757 -128232,-7265764 -128265,-7265778 -128290,-7265784 -128314,-7265791 -128377,-7265803 -128411,-7265806 -128458,-7265817 -128499,-7265824 -128505,-7265825 -128569,-7265824 -128601,-7265822 -128611,-7265822 -128635,-7265827 -128654,-7265828 -128692,-7265824 -128717,-7265825 -128740,-7265830 -128787,-7265848 -128804,-7265851 -128833,-7265851 -128845,-7265853 -128890,-7265868 -128940,-7265879 -128944,-7265881 -128955,-7265890 -128972,-7265916 -128977,-7265919 -128999,-7265933 -129037,-7265949 -129056,-7265954 -129098,-7265958 -129123,-7265967 -129136,-7265970 -129139,-7265970 -129170,-7265963 -129186,-7265962 -129196,-7265964 -129212,-7265969 -129244,-7265981 -129269,-7265992 -129274,-7265995 -129303,-7266023 -129317,-7266033 -129341,-7266038 -129371,-7266049 -129385,-7266055 -129392,-7266060 -129405,-7266070 -129418,-7266077 -129450,-7266088 -129456,-7266091 -129469,-7266100 -129477,-7266103 -129484,-7266104 -129517,-7266093 -129566,-7266086 -129578,-7266082 -129584,-7266078 -129587,-7266075 -129591,-7266070 -129593,-7266065 -129594,-7266062 -129588,-7266037 -129595,-7266029 -129597,-7266028 -129601,-7266029 -129614,-7266042 -129620,-7266047 -129641,-7266061 -129643,-7266080 -129647,-7266085 -129657,-7266090 -129720,-7266106 -129724,-7266105 -129728,-7266104 -129731,-7266101 -129737,-7266079 -129770,-7266086 -129780,-7266074 -129783,-7266069 -129790,-7266048 -129796,-7266020 -129802,-7266020 -129811,-7266029 -129814,-7266034 -129815,-7266042 -129816,-7266059 -129815,-7266078 -129815,-7266084 -129817,-7266095 -129819,-7266100 -129828,-7266108 -129857,-7266133 -129861,-7266135 -129869,-7266138 -129876,-7266139 -129880,-7266139 -129884,-7266137 -129899,-7266123 -129892,-7266084 -129892,-7266082 -129895,-7266078 -129900,-7266075 -129907,-7266073 -129916,-7266073 -129936,-7266079 -129955,-7266090 -129965,-7266094 -129983,-7266092 -130007,-7266078 -130033,-7266066 -130058,-7266095 -130066,-7266102 -130109,-7266104 -130129,-7266102 -130133,-7266100 -130141,-7266095 -130150,-7266086 -130154,-7266081 -130146,-7266049 -130146,-7266045 -130148,-7266038 -130152,-7266033 -130156,-7266029 -130162,-7266027 -130167,-7266026 -130185,-7266025 -130187,-7266023 -130191,-7266020 -130192,-7266016 -130193,-7266012 -130192,-7266010 -130181,-7266001 -130177,-7265995 -130177,-7265992 -130179,-7265988 -130183,-7265983 -130188,-7265980 -130202,-7265978 -130206,-7265979 -130209,-7265981 -130222,-7265995 -130226,-7265998 -130228,-7265999 -130238,-7265997 -130241,-7265992 -130243,-7265979 -130243,-7265957 -130238,-7265923 -130280,-7265908 -130284,-7265906 -130303,-7265888 -130316,-7265875 -130320,-7265875 -130328,-7265878 -130353,-7265893 -130392,-7265907 -130405,-7265913 -130443,-7265938 -130490,-7265913 -130493,-7265913 -130500,-7265914 -130504,-7265916 -130509,-7265920 -130523,-7265937 -130528,-7265947 -130532,-7265959 -130540,-7265974 -130547,-7265977 -130550,-7265976 -130552,-7265975 -130555,-7265972 -130575,-7265960 -130585,-7265954 -130604,-7265936 -130618,-7265919 -130631,-7265905 -130637,-7265904 -130642,-7265906 -130646,-7265909 -130650,-7265912 -130657,-7265924 -130659,-7265926 -130665,-7265928 -130678,-7265931 -130696,-7265929 -130701,-7265927 -130704,-7265928 -130707,-7265931 -130710,-7265936 -130711,-7265942 -130710,-7265961 -130711,-7265965 -130715,-7265970 -130724,-7265974 -130732,-7265979 -130746,-7265988 -130747,-7265989 -130747,-7265993 -130746,-7265996 -130743,-7265998 -130738,-7266001 -130708,-7266026 -130708,-7266034 -130705,-7266038 -130702,-7266040 -130699,-7266041 -130683,-7266037 -130678,-7266040 -130703,-7266073 -130715,-7266087 -130717,-7266092 -130715,-7266106 -130715,-7266109 -130721,-7266124 -130714,-7266131 -130710,-7266141 -130712,-7266160 -130701,-7266177 -130688,-7266185 -130684,-7266186 -130670,-7266185 -130646,-7266187 -130640,-7266189 -130635,-7266192 -130632,-7266196 -130630,-7266201 -130630,-7266210 -130635,-7266234 -130633,-7266257 -130633,-7266264 -130673,-7266329 -130687,-7266331 -130691,-7266330 -130707,-7266311 -130713,-7266309 -130721,-7266310 -130765,-7266338 -130775,-7266342 -130783,-7266343 -130793,-7266342 -130802,-7266340 -130861,-7266323 -130868,-7266313 -130872,-7266303 -130885,-7266303 -130898,-7266305 -130900,-7266303 -130903,-7266294 -130906,-7266277 -130911,-7266266 -130914,-7266260 -130919,-7266256 -130927,-7266251 -130945,-7266261 -130952,-7266267 -130970,-7266283 -131010,-7266331 -131037,-7266367 -131064,-7266391 -131080,-7266407 -131124,-7266443 -131149,-7266458 -131224,-7266517 -131257,-7266545 -131287,-7266574 -131316,-7266583 -131329,-7266589 -131358,-7266612 -131402,-7266582 -131416,-7266570 -131423,-7266566 -131433,-7266562 -131486,-7266531 -131515,-7266551 -131562,-7266591 -131676,-7266675 -131742,-7266693 -131801,-7266716 -131819,-7266724 -131835,-7266733 -131848,-7266742 -131859,-7266750 -131895,-7266789 -131924,-7266821 -131965,-7266804 -132017,-7266776 -132064,-7266754 -132103,-7266732 -132132,-7266718 -132146,-7266711 -132162,-7266706 -132194,-7266698 -132256,-7266677 -132342,-7266658 -132394,-7266640 -132439,-7266631 -132463,-7266630 -132481,-7266632 -132495,-7266635 -132509,-7266639 -132521,-7266643 -132562,-7266664 -132575,-7266672 -132581,-7266675 -132607,-7266680 -132625,-7266682 -132670,-7266685 -132702,-7266688 -132715,-7266689 -132745,-7266687 -132791,-7266683 -132843,-7266683 -132877,-7266679 -132891,-7266679 -132898,-7266679 -132945,-7266689 -133080,-7266696 -133086,-7266682 -133097,-7266665 -133107,-7266654 -133113,-7266649 -133123,-7266644 -133174,-7266621 -133203,-7266612 -133213,-7266610 -133222,-7266611 -133254,-7266619 -133315,-7266641 -133367,-7266657 -133520,-7266679 -133568,-7266685 -133611,-7266693 -133635,-7266698 -133666,-7266706 -133753,-7266731 -133793,-7266749 -133810,-7266755 -133822,-7266757 -133833,-7266759 -133863,-7266759 -133909,-7266754 -133980,-7266744 -133989,-7266744 -134004,-7266746 -134018,-7266749 -134047,-7266761 -134070,-7266772 -134162,-7266848 -134180,-7266862 -134200,-7266872 -134272,-7266901 -134289,-7266909 -134328,-7266934 -134347,-7266947 -134384,-7266977 -134394,-7266986 -134425,-7267014 -134441,-7267030 -134495,-7267097 -134512,-7267116 -134519,-7267123 -134524,-7267126 -134529,-7267129 -134535,-7267130 -134593,-7267135 -134610,-7267138 -134649,-7267148 -134765,-7267185 -134829,-7267210 -134939,-7267245 -134964,-7267256 -134987,-7267268 -135009,-7267280 -135050,-7267306 -135079,-7267322 -135106,-7267335 -135124,-7267343 -135153,-7267349 -135178,-7267353 -135200,-7267355 -135253,-7267352 -135401,-7267356 -135609,-7267359 -135672,-7267366 -135695,-7267370 -135705,-7267373 -135729,-7267382 -135758,-7267397 -135766,-7267402 -135777,-7267414 -135785,-7267428 -135790,-7267441 -135811,-7267487 -135821,-7267515 -135824,-7267522 -135859,-7267517 -135873,-7267516 -135880,-7267517 -135899,-7267522 -135947,-7267529 -135982,-7267538 -136100,-7267568 -136106,-7267578 -136184,-7267595 -136200,-7267599 -136244,-7267622 -136254,-7267609 -136386,-7267659 -136492,-7267695 -136513,-7267697 -136556,-7267707 -136576,-7267711 -136641,-7267721 -136657,-7267724 -136665,-7267724 -136669,-7267723 -136685,-7267714 -136699,-7267709 -136720,-7267701 -136767,-7267687 -136798,-7267682 -136829,-7267683 -136839,-7267683 -136856,-7267684 -136876,-7267687 -136904,-7267688 -136990,-7267702 -136982,-7267657 -136968,-7267545 -136972,-7267534 -137031,-7267587 -137076,-7267610 -137088,-7267614 -137099,-7267618 -137115,-7267615 -137121,-7267613 -137135,-7267604 -137156,-7267580 -137162,-7267569 -137168,-7267559 -137176,-7267549 -137189,-7267538 -137201,-7267530 -137213,-7267510 -137216,-7267506 -137222,-7267501 -137236,-7267495 -137267,-7267477 -137282,-7267467 -137301,-7267451 -137339,-7267453 -137411,-7267422 -137433,-7267411 -137443,-7267406 -137448,-7267405 -137464,-7267402 -137515,-7267393 -137526,-7267394 -137562,-7267424 -137583,-7267439 -137645,-7267483 -137693,-7267469 -137716,-7267463 -137788,-7267469 -137797,-7267480 -137797,-7267492 -137811,-7267529 -137829,-7267529 -137849,-7267551 -137872,-7267576 -137890,-7267591 -137911,-7267603 -137940,-7267616 -137957,-7267631 -137970,-7267641 -137997,-7267643 -138007,-7267641 -138018,-7267635 -138043,-7267628 -138067,-7267627 -138090,-7267639 -138128,-7267678 -138138,-7267695 -138139,-7267707 -138151,-7267717 -138176,-7267728 -138198,-7267737 -138212,-7267736 -138228,-7267717 -138249,-7267692 -138264,-7267656 -138277,-7267644 -138294,-7267640 -138315,-7267633 -138330,-7267636 -138343,-7267641 -138351,-7267640 -138364,-7267631 -138389,-7267629 -138421,-7267615 -138443,-7267610 -138458,-7267609 -138467,-7267613 -138475,-7267617 -138506,-7267637 -138523,-7267641 -138566,-7267639 -138619,-7267640 -138631,-7267638 -138664,-7267617 -138689,-7267606 -138704,-7267603 -138743,-7267608 -138775,-7267589 -138791,-7267590 -138796,-7267602 -138831,-7267622 -138848,-7267628 -138874,-7267625 -138914,-7267652 -138913,-7267664 -138946,-7267665 -138947,-7267652 -138957,-7267653 -138966,-7267659 -138970,-7267673 -138978,-7267684 -138979,-7267700 -138988,-7267710 -139014,-7267719 -139033,-7267720 -139050,-7267703 -139057,-7267702 -139071,-7267688 -139093,-7267685 -139097,-7267672 -139110,-7267681 -139129,-7267684 -139129,-7267670 -139150,-7267677 -139159,-7267684 -139160,-7267697 -139164,-7267712 -139183,-7267712 -139200,-7267726 -139221,-7267725 -139223,-7267750 -139233,-7267780 -139254,-7267843 -139272,-7267896 -139286,-7267916 -139287,-7267939 -139544,-7267880 -139851,-7267801 -139860,-7267753 -139859,-7267610 -139868,-7267616 -139881,-7267640 -139941,-7267697 -140032,-7267768 -140044,-7267768 -140051,-7267787 -140078,-7267821 -140089,-7267831 -140096,-7267834 -140118,-7267828 -140129,-7267832 -140132,-7267834 -140140,-7267843 -140147,-7267850 -140158,-7267854 -140217,-7267869 -140234,-7267868 -140252,-7267859 -140267,-7267858 -140291,-7267862 -140309,-7267841 -140317,-7267827 -140357,-7267847 -140378,-7267847 -140397,-7267855 -140431,-7267857 -140455,-7267855 -140485,-7267855 -140505,-7267848 -140530,-7267831 -140558,-7267806 -140572,-7267806 -140590,-7267827 -140601,-7267833 -140659,-7267837 -140681,-7267830 -140692,-7267830 -140711,-7267851 -140709,-7267882 -140726,-7267916 -140735,-7267918 -140744,-7267915 -140760,-7267912 -140774,-7267914 -140779,-7267921 -140780,-7267933 -140793,-7267948 -140817,-7267958 -140832,-7267969 -140843,-7267992 -140848,-7267995 -140873,-7267993 -140896,-7267994 -140916,-7268000 -140957,-7268026 -140955,-7268048 -140966,-7268068 -140972,-7268084 -140978,-7268088 -140987,-7268085 -140997,-7268085 -141021,-7268095 -141030,-7268102 -141034,-7268112 -141041,-7268121 -141057,-7268128 -141056,-7268138 -141050,-7268142 -141037,-7268138 -141035,-7268143 -141046,-7268152 -141069,-7268180 -141071,-7268194 -141079,-7268201 -141107,-7268184 -141124,-7268175 -141133,-7268176 -141132,-7268190 -141136,-7268201 -141144,-7268210 -141174,-7268219 -141177,-7268227 -141170,-7268236 -141173,-7268242 -141189,-7268243 -141201,-7268236 -141233,-7268236 -141241,-7268230 -141241,-7268219 -141256,-7268219 -141263,-7268226 -141295,-7268234 -141326,-7268249 -141339,-7268249 -141343,-7268242 -141343,-7268229 -141351,-7268225 -141369,-7268226 -141379,-7268230 -141391,-7268242 -141412,-7268252 -141433,-7268249 -141444,-7268249 -141458,-7268259 -141470,-7268267 -141484,-7268259 -141514,-7268260 -141520,-7268266 -141519,-7268279 -141527,-7268287 -141537,-7268288 -141545,-7268284 -141557,-7268284 -141564,-7268290 -141567,-7268305 -141573,-7268311 -141580,-7268311 -141592,-7268301 -141616,-7268296 -141647,-7268312 -141662,-7268308 -141667,-7268308 -141687,-7268319 -141705,-7268285 -141718,-7268275 -141732,-7268260 -141745,-7268255 -141761,-7268254 -141769,-7268261 -141771,-7268269 -141776,-7268279 -141784,-7268286 -141790,-7268285 -141801,-7268280 -141811,-7268275 -141826,-7268273 -141850,-7268282 -141873,-7268314 -141884,-7268347 -141894,-7268363 -141901,-7268370 -141913,-7268380 -141922,-7268387 -141935,-7268411 -141942,-7268423 -141948,-7268430 -141975,-7268431 -141998,-7268450 -141999,-7268459 -142006,-7268469 -142015,-7268476 -142025,-7268476 -142048,-7268483 -142071,-7268504 -142080,-7268505 -142086,-7268510 -142088,-7268522 -142095,-7268533 -142107,-7268542 -142130,-7268552 -142134,-7268558 -142134,-7268582 -142125,-7268591 -142134,-7268601 -142148,-7268602 -142159,-7268596 -142172,-7268586 -142192,-7268608 -142204,-7268600 -142219,-7268599 -142238,-7268611 -142237,-7268620 -142241,-7268630 -142258,-7268643 -142260,-7268651 -142256,-7268675 -142266,-7268684 -142302,-7268704 -142305,-7268713 -142307,-7268723 -142330,-7268739 -142338,-7268738 -142358,-7268725 -142368,-7268723 -142373,-7268729 -142373,-7268741 -142373,-7268745 -142370,-7268749 -142366,-7268752 -142353,-7268758 -142335,-7268760 -142333,-7268761 -142331,-7268763 -142330,-7268767 -142330,-7268770 -142332,-7268773 -142334,-7268776 -142350,-7268791 -142364,-7268791 -142385,-7268777 -142388,-7268777 -142395,-7268776 -142406,-7268779 -142422,-7268798 -142417,-7268807 -142407,-7268819 -142406,-7268829 -142410,-7268840 -142414,-7268852 -142426,-7268859 -142494,-7268867 -142540,-7268877 -142548,-7268872 -142563,-7268863 -142572,-7268859 -142578,-7268859 -142584,-7268865 -142584,-7268869 -142583,-7268875 -142585,-7268875 -142601,-7268879 -142612,-7268892 -142612,-7268907 -142628,-7268925 -142637,-7268929 -142646,-7268928 -142656,-7268916 -142686,-7268917 -142701,-7268921 -142728,-7268936 -142739,-7268949 -142741,-7268964 -142735,-7268975 -142724,-7268982 -142719,-7268987 -142719,-7268994 -142730,-7269004 -142731,-7269025 -142739,-7269038 -142751,-7269041 -142750,-7269057 -142747,-7269063 -142742,-7269067 -142718,-7269068 -142709,-7269070 -142709,-7269079 -142717,-7269088 -142721,-7269101 -142719,-7269111 -142719,-7269149 -142715,-7269158 -142703,-7269168 -142705,-7269175 -142711,-7269193 -142711,-7269205 -142705,-7269207 -142698,-7269207 -142689,-7269207 -142682,-7269207 -142679,-7269215 -142678,-7269225 -142680,-7269235 -142686,-7269245 -142688,-7269254 -142684,-7269257 -142677,-7269260 -142667,-7269266 -142659,-7269273 -142655,-7269283 -142652,-7269307 -142628,-7269306 -142615,-7269307 -142611,-7269311 -142597,-7269335 -142590,-7269343 -142584,-7269349 -142575,-7269356 -142571,-7269359 -142572,-7269366 -142580,-7269385 -142596,-7269413 -142595,-7269429 -142602,-7269443 -142605,-7269463 -142615,-7269470 -142642,-7269482 -142649,-7269491 -142649,-7269498 -142648,-7269501 -142636,-7269517 -142635,-7269542 -142630,-7269552 -142634,-7269576 -142656,-7269583 -142660,-7269596 -142691,-7269611 -142690,-7269637 -142699,-7269645 -142699,-7269656 -142687,-7269673 -142683,-7269682 -142686,-7269691 -142699,-7269709 -142705,-7269714 -142704,-7269734 -142714,-7269746 -142725,-7269752 -142741,-7269753 -142760,-7269779 -142779,-7269783 -142788,-7269790 -142788,-7269812 -142796,-7269828 -142796,-7269840 -142793,-7269859 -142783,-7269876 -142782,-7269887 -142761,-7269910 -142760,-7269937 -142750,-7269956 -142738,-7269991 -142727,-7270019 -142724,-7270040 -142718,-7270047 -142713,-7270100 -142712,-7270120 -142717,-7270138 -142716,-7270161 -142724,-7270173 -142732,-7270197 -142746,-7270208 -142750,-7270218 -142748,-7270239 -142747,-7270259 -142759,-7270279 -142762,-7270291 -142761,-7270315 -142759,-7270323 -142752,-7270334 -142743,-7270348 -142731,-7270357 -142730,-7270368 -142738,-7270396 -142732,-7270409 -142729,-7270420 -142728,-7270457 -142718,-7270482 -142719,-7270493 -142724,-7270496 -142740,-7270494 -142751,-7270503 -142758,-7270506 -142778,-7270498 -142792,-7270498 -142825,-7270519 -142823,-7270532 -142816,-7270545 -142817,-7270552 -142821,-7270562 -142827,-7270570 -142834,-7270583 -142837,-7270597 -142836,-7270620 -142839,-7270627 -142846,-7270632 -142869,-7270639 -142876,-7270645 -142881,-7270656 -142881,-7270678 -142878,-7270688 -142866,-7270699 -142880,-7270717 -142891,-7270722 -142902,-7270720 -142915,-7270720 -142922,-7270727 -142923,-7270748 -142919,-7270751 -142913,-7270751 -142900,-7270739 -142892,-7270736 -142884,-7270736 -142881,-7270744 -142880,-7270772 -142906,-7270786 -142923,-7270791 -142942,-7270793 -142958,-7270783 -142968,-7270782 -142971,-7270789 -142971,-7270798 -142970,-7270810 -142961,-7270820 -142943,-7270839 -142948,-7270844 -142979,-7270844 -142984,-7270850 -142985,-7270860 -142982,-7270868 -142964,-7270887 -142963,-7270903 -142969,-7270933 -142963,-7270941 -142964,-7270952 -142972,-7270958 -143001,-7270964 -143001,-7270969 -142988,-7270980 -142986,-7270987 -142989,-7270992 -142999,-7270997 -143015,-7270995 -143020,-7270997 -143022,-7271035 -143019,-7271044 -142998,-7271057 -142998,-7271078 -143011,-7271107 -143015,-7271131 -143031,-7271159 -143036,-7271205 -143043,-7271223 -143053,-7271234 -143052,-7271248 -143046,-7271258 -143033,-7271263 -143013,-7271267 -143012,-7271274 -143015,-7271283 -143014,-7271291 -143015,-7271303 -143010,-7271322 -143007,-7271343 -143014,-7271346 -143039,-7271340 -143039,-7271355 -143043,-7271372 -143026,-7271428 -142999,-7271479 -143006,-7271495 -143010,-7271511 -143021,-7271529 -143024,-7271544 -143037,-7271553 -143036,-7271571 -143033,-7271586 -143017,-7271604 -143012,-7271618 -143010,-7271631 -143018,-7271642 -143019,-7271679 -143017,-7271709 -143006,-7271733 -143007,-7271744 -143016,-7271772 -143018,-7271820 -143029,-7271899 -143032,-7271978 -143040,-7271999 -143035,-7272025 -143036,-7272034 -143044,-7272046 -143050,-7272112 -143042,-7272137 -143040,-7272167 -143034,-7272183 -143047,-7272195 -143053,-7272206 -143057,-7272247 -143062,-7272274 -143064,-7272290 -143073,-7272305 -143077,-7272316 -143077,-7272337 -143080,-7272347 -143089,-7272355 -143094,-7272366 -143093,-7272376 -143085,-7272382 -143061,-7272410 -143049,-7272425 -143026,-7272438 -143014,-7272447 -143007,-7272456 -143003,-7272465 -143002,-7272481 -143006,-7272496 -143017,-7272505 -143023,-7272516 -143025,-7272527 -143020,-7272533 -143008,-7272537 -142997,-7272538 -142995,-7272545 -142995,-7272557 -142994,-7272572 -142987,-7272591 -142998,-7272615 -142998,-7272618 -142998,-7272619 -142985,-7272657 -142962,-7272668 -142947,-7272679 -142934,-7272681 -142927,-7272691 -142927,-7272708 -142933,-7272728 -142930,-7272735 -142922,-7272736 -142915,-7272730 -142901,-7272711 -142894,-7272704 -142885,-7272703 -142877,-7272708 -142868,-7272722 -142860,-7272747 -142843,-7272747 -142834,-7272749 -142823,-7272754 -142811,-7272768 -142797,-7272791 -142791,-7272795 -142779,-7272796 -142769,-7272789 -142756,-7272796 -142738,-7272812 -142728,-7272825 -142711,-7272835 -142707,-7272839 -142697,-7272865 -142692,-7272891 -142681,-7272912 -142678,-7272927 -142674,-7272939 -142666,-7272948 -142646,-7272958 -142635,-7272969 -142626,-7272994 -142609,-7273011 -142609,-7273022 -142617,-7273034 -142618,-7273041 -142618,-7273051 -142617,-7273068 -142606,-7273089 -142605,-7273109 -142599,-7273124 -142586,-7273134 -142585,-7273147 -142580,-7273159 -142567,-7273163 -142539,-7273191 -142535,-7273219 -142511,-7273249 -142499,-7273268 -142497,-7273286 -142469,-7273328 -142460,-7273345 -142453,-7273367 -142440,-7273391 -142423,-7273409 -142411,-7273429 -142402,-7273459 -142398,-7273484 -142406,-7273497 -142404,-7273508 -142399,-7273518 -142383,-7273534 -142363,-7273550 -142353,-7273559 -142352,-7273570 -142356,-7273575 -142356,-7273583 -142346,-7273590 -142344,-7273623 -142342,-7273648 -142343,-7273679 -142337,-7273700 -142329,-7273721 -142329,-7273747 -142335,-7273768 -142344,-7273771 -142344,-7273781 -142338,-7273790 -142342,-7273817 -142346,-7273845 -142360,-7273884 -142367,-7273943 -142371,-7273973 -142371,-7273994 -142369,-7274021 -142365,-7274073 -142363,-7274102 -142353,-7274113 -142336,-7274126 -142328,-7274146 -142325,-7274165 -142341,-7274183 -142342,-7274192 -142337,-7274202 -142325,-7274215 -142304,-7274236 -142289,-7274236 -142267,-7274241 -142252,-7274252 -142242,-7274262 -142240,-7274312 -142239,-7274319 -142239,-7274344 -142243,-7274379 -142255,-7274411 -142271,-7274429 -142273,-7274446 -142273,-7274447 -142267,-7274460 -142256,-7274470 -142243,-7274476 -142196,-7274473 -142157,-7274468 -142147,-7274473 -142148,-7274488 -142172,-7274539 -142171,-7274560 -142176,-7274577 -142178,-7274606 -142167,-7274611 -142153,-7274637 -142112,-7274701 -142086,-7274742 -142073,-7274771 -142065,-7274788 -142065,-7274853 -142045,-7275029 -142032,-7275070 -142020,-7275197 -142006,-7275296 -141998,-7275345 -141990,-7275360 -141974,-7275370 -141957,-7275374 -141935,-7275375 -141894,-7275382 -141859,-7275395 -141835,-7275408 -141808,-7275434 -141795,-7275457 -141793,-7275500 -141787,-7275521 -141777,-7275535 -141764,-7275542 -141739,-7275554 -141726,-7275564 -141645,-7275627 -141610,-7275663 -141574,-7275701 -141546,-7275741 -141526,-7275781 -141513,-7275808 -141502,-7275834 -141491,-7275869 -141482,-7275924 -141465,-7275988 -141461,-7276013 -141454,-7276054 -141445,-7276102 -141444,-7276116 -141444,-7276130 -141443,-7276171 -141449,-7276238 -141454,-7276262 -141465,-7276309 -141470,-7276331 -141477,-7276351 -141484,-7276367 -141506,-7276393 -141535,-7276420 -141562,-7276442 -141587,-7276458 -141603,-7276466 -141624,-7276476 -141665,-7276492 -141708,-7276505 -141726,-7276515 -141748,-7276533 -141782,-7276553 -141827,-7276582 -141871,-7276617 -141911,-7276642 -141962,-7276676 -141996,-7276709 -142063,-7276789 -142076,-7276811 -142131,-7276903 -142154,-7276936 -142232,-7277016 -142251,-7277038 -142271,-7277066 -142281,-7277085 -142287,-7277098 -142332,-7277192 -142352,-7277237 -142356,-7277251 -142393,-7277338 -142416,-7277386 -142440,-7277426 -142478,-7277522 -142506,-7277583 -142531,-7277623 -142562,-7277686 -142582,-7277698 -142581,-7277718 -142583,-7277731 -142593,-7277741 -142605,-7277747 -142613,-7277758 -142619,-7277787 -142632,-7277806 -142666,-7277839 -142728,-7277883 -142742,-7277893 -142758,-7277906 -142781,-7277949 -142711,-7277984 -142658,-7278014 -142465,-7278104 -142342,-7278158 -142175,-7278220 -142117,-7278234 -142093,-7278241 -141976,-7278270 -141918,-7278279 -141828,-7278292 -141704,-7278301 -141634,-7278311 -141543,-7278326 -141418,-7278353 -141360,-7278368 -141325,-7278379 -141282,-7278394 -141144,-7278444 -141133,-7278448 -141066,-7278477 -140974,-7278527 -140946,-7278543 -140862,-7278601 -140678,-7278753 -140641,-7278790 -140616,-7278818 -140592,-7278849 -140568,-7278880 -140547,-7278911 -140506,-7278976 -140478,-7279035 -140425,-7279166 -140410,-7279210 -140406,-7279226 -140396,-7279278 -140375,-7279425 -140296,-7279996 -140243,-7280495 -140215,-7280749 -140169,-7281209 -140124,-7281656 -140079,-7282043 -140058,-7282165 -140038,-7282266 -140019,-7282330 -139978,-7282440 -139962,-7282476 -139951,-7282500 -139914,-7282570 -139899,-7282595 -139880,-7282620 -139850,-7282658 -139824,-7282687 -139798,-7282714 -139775,-7282736 -139751,-7282758 -139727,-7282777 -139704,-7282794 -139670,-7282816 -139634,-7282837 -139529,-7282890 -139490,-7282912 -139464,-7282925 -139411,-7282949 -139370,-7282964 -139342,-7282972 -139274,-7282990" stroke="#006747" stroke-width="33" /></ns0:svg>    <rect x="20" y="50"  width="250" height="25"  rx="0"  fill="#006747" fill-opacity="0.8" />    <text x="145" y="70" text-anchor="middle" font-family="Frutiger" font-weight="bold" font-size="30" fill="white">Middlesbrough</text>    <rect x="35" y="195" width="220" height="160" rx="15" fill="#78BE20"/>    <g font-family="Frutiger" font-size="15" fill="#231F20">        <g> <text x="45" y="218">Self-harm</text> <text x="245" y="218" text-anchor="end">56</text> </g>        <g> <text x="45" y="243">SEN</text> <text x="245" y="243" text-anchor="end">54</text> </g>        <g> <text x="45" y="268">Difficulties</text> <text x="245" y="268" text-anchor="end">67</text> </g>        <g> <text x="45" y="293">Child Carer</text> <text x="245" y="293" text-anchor="end">8</text> </g>        <g> <text x="45" y="318">Drinkers</text> <text x="245" y="318" text-anchor="end">36</text> </g>        <g> <text x="45" y="343">Safeguarding £</text> <text x="245" y="343" text-anchor="end">22</text> </g>    </g></svg>