<?xml version="1.0" standalone="no"?>
<!DOCTYPE svg PUBLIC "-//W3C//DTD SVG 1.1//EN"
"http://www.w3.org/Graphics/SVG/1.1/DTD/svg11.dtd">
<svg height="1800" version="1.1" width="1800" xmlns="http://www.w3.org/2000/svg"><defs><style type="text/css">@font-face {font-family: 'Frutiger';font-style: normal;font-weight: normal;src: local('Frutiger'), url('../fonts/Frutiger.woff') format('woff');}@font-face {font-family: 'Frutiger Bold';font-style: normal;font-weight: normal;src: local('Frutiger Bold'), url('../fonts/Frutiger_bold.woff') format('woff');}        </style>    </defs>    <rect x="20" y="20"  width="250" height="350" rx="15" fill="#009639" />    <rect x="35" y="35"  width="220" height="145" rx="15" fill="#E8EDEE" /><ns0:svg xmlns:ns0="http://www.w3.org/2000/svg" height="115" version="1.1" viewBox="-95056 -6724148 36863 34860" width="220" x="35" y="50"><ns0:polygon fill="#006747" points=" -79170,-6721729 -79149,-6721707 -79126,-6721685 -79101,-6721665 -79077,-6721646 -79052,-6721628 -78954,-6721566 -78868,-6721514 -78766,-6721456 -78750,-6721447 -78671,-6721405 -78604,-6721366 -78596,-6721363 -78580,-6721358 -78564,-6721356 -78548,-6721355 -78532,-6721357 -78508,-6721363 -78484,-6721373 -78439,-6721388 -78406,-6721397 -78372,-6721404 -78365,-6721407 -78351,-6721414 -78337,-6721423 -78325,-6721433 -78314,-6721444 -78298,-6721465 -78271,-6721512 -78257,-6721548 -78241,-6721595 -78228,-6721625 -78216,-6721657 -78200,-6721706 -78185,-6721756 -78173,-6721844 -78161,-6721882 -78144,-6721908 -78114,-6721947 -78099,-6721963 -78093,-6721968 -78085,-6721972 -78068,-6721980 -78055,-6721983 -78038,-6721987 -78023,-6721989 -77994,-6721991 -77972,-6721989 -77898,-6721978 -77791,-6721956 -77671,-6721926 -77646,-6721925 -77617,-6721920 -77600,-6721916 -77582,-6721910 -77561,-6721902 -77545,-6721895 -77531,-6721887 -77516,-6721876 -77504,-6721865 -77499,-6721858 -77480,-6721830 -77408,-6721698 -77338,-6721577 -77333,-6721567 -77314,-6721525 -77305,-6721498 -77300,-6721478 -77295,-6721427 -77288,-6721387 -77285,-6721376 -77275,-6721345 -77220,-6721227 -77160,-6721093 -77140,-6721050 -77100,-6720968 -77054,-6720834 -77000,-6720660 -76979,-6720587 -76967,-6720519 -76960,-6720484 -76944,-6720385 -76943,-6720343 -76941,-6720271 -76931,-6719848 -76939,-6719696 -76957,-6719403 -76963,-6719313 -76970,-6719270 -76974,-6719241 -76977,-6719188 -76978,-6719159 -76977,-6719135 -76974,-6719108 -76962,-6719048 -76954,-6719001 -76951,-6718966 -76951,-6718928 -76962,-6718820 -76968,-6718770 -76979,-6718711 -76994,-6718640 -77029,-6718463 -77036,-6718400 -77040,-6718366 -77053,-6718274 -77075,-6718194 -77089,-6718142 -77108,-6718095 -77148,-6717989 -77189,-6717891 -77193,-6717881 -77215,-6717841 -77259,-6717769 -77315,-6717673 -77330,-6717650 -77384,-6717574 -77452,-6717484 -77502,-6717414 -77523,-6717379 -77535,-6717355 -77615,-6717173 -77642,-6717095 -77679,-6716979 -77695,-6716922 -77703,-6716884 -77708,-6716851 -77710,-6716829 -77711,-6716807 -77709,-6716777 -77704,-6716753 -77694,-6716714 -77680,-6716669 -77673,-6716638 -77672,-6716630 -77671,-6716616 -77669,-6716549 -77663,-6716500 -77663,-6716488 -77664,-6716459 -77666,-6716441 -77671,-6716416 -77674,-6716403 -77688,-6716363 -77728,-6716254 -77776,-6716127 -77806,-6716045 -77834,-6715965 -77860,-6715899 -77876,-6715861 -77887,-6715831 -77892,-6715809 -77897,-6715787 -77899,-6715771 -77901,-6715755 -77902,-6715724 -77903,-6715700 -77902,-6715572 -77904,-6715550 -77920,-6715433 -77923,-6715419 -77928,-6715393 -77939,-6715354 -77947,-6715334 -77971,-6715287 -77990,-6715241 -78007,-6715195 -78013,-6715171 -78018,-6715152 -78020,-6715138 -78022,-6715081 -78024,-6715056 -78028,-6715022 -78061,-6714825 -78068,-6714787 -78075,-6714754 -78083,-6714726 -78097,-6714686 -78124,-6714634 -78132,-6714613 -78138,-6714594 -78149,-6714542 -78150,-6714535 -78152,-6714502 -78151,-6714469 -78149,-6714445 -78147,-6714426 -78139,-6714382 -78125,-6714328 -78111,-6714262 -78109,-6714249 -78104,-6714212 -78098,-6714115 -78094,-6714077 -78091,-6714026 -78090,-6713975 -78092,-6713920 -78100,-6713852 -78095,-6713734 -78096,-6713651 -78100,-6713559 -78102,-6713544 -78111,-6713480 -78122,-6713409 -78135,-6713348 -78162,-6713244 -78201,-6713106 -78216,-6713036 -78243,-6712901 -78287,-6712641 -78315,-6712513 -78320,-6712477 -78322,-6712458 -78322,-6712436 -78316,-6712322 -78312,-6712306 -78310,-6712291 -78304,-6712270 -78285,-6712225 -78275,-6712205 -78240,-6712158 -78221,-6712138 -78214,-6712131 -78185,-6712109 -78166,-6712096 -78128,-6712073 -77993,-6712006 -77979,-6711999 -77891,-6711960 -77874,-6711954 -77852,-6711948 -77815,-6711941 -77802,-6711941 -77724,-6711971 -77621,-6711991 -77582,-6712000 -77554,-6712010 -77499,-6712036 -77457,-6712052 -77418,-6712064 -77395,-6712068 -77369,-6712073 -77308,-6712079 -77292,-6712080 -77269,-6712081 -77253,-6712080 -77231,-6712078 -77211,-6712076 -77178,-6712068 -77148,-6712059 -77127,-6712050 -77116,-6712044 -77094,-6712029 -77050,-6711990 -77019,-6711959 -76982,-6711919 -76969,-6711907 -76951,-6711893 -76943,-6711887 -76908,-6711863 -76888,-6711850 -76872,-6711841 -76854,-6711834 -76811,-6711821 -76796,-6711815 -76743,-6711789 -76697,-6711773 -76682,-6711765 -76666,-6711756 -76653,-6711746 -76639,-6711734 -76535,-6711638 -76431,-6711540 -76405,-6711513 -76396,-6711501 -76379,-6711475 -76358,-6711436 -76228,-6711215 -76204,-6711163 -76169,-6711080 -76153,-6711049 -76116,-6710989 -76091,-6710953 -76064,-6710918 -76050,-6710902 -76030,-6710870 -76012,-6710835 -76000,-6710805 -75982,-6710729 -75979,-6710705 -75978,-6710681 -75980,-6710657 -75978,-6710591 -75980,-6710543 -75978,-6710505 -75973,-6710476 -75965,-6710442 -75948,-6710399 -75928,-6710338 -75898,-6710251 -75886,-6710200 -75850,-6710130 -75831,-6710092 -75812,-6710054 -75781,-6709981 -75770,-6709961 -75764,-6709951 -75754,-6709939 -75740,-6709924 -75706,-6709890 -75634,-6709726 -75626,-6709706 -75605,-6709632 -75596,-6709597 -75589,-6709562 -75585,-6709544 -75574,-6709464 -75566,-6709418 -75561,-6709397 -75553,-6709365 -75530,-6709289 -75530,-6709247 -75430,-6709171 -75384,-6709142 -75347,-6709123 -75322,-6709112 -75304,-6709105 -75242,-6709086 -75223,-6709079 -75184,-6709059 -75126,-6709025 -75095,-6709005 -75057,-6708980 -75023,-6708955 -74973,-6708917 -74940,-6708887 -74909,-6708855 -74860,-6708797 -74771,-6708683 -74722,-6708616 -74680,-6708559 -74644,-6708515 -74614,-6708480 -74581,-6708445 -74550,-6708413 -74520,-6708386 -74492,-6708362 -74456,-6708335 -74382,-6708283 -74193,-6708170 -74156,-6708152 -74114,-6708136 -74090,-6708129 -74045,-6708117 -74035,-6708115 -73951,-6708104 -73725,-6708060 -73686,-6708048 -73629,-6708024 -73568,-6707992 -73523,-6707966 -73508,-6707959 -73390,-6707919 -73365,-6707913 -73344,-6707909 -73322,-6707906 -73304,-6707905 -73277,-6707904 -73196,-6707910 -73152,-6707914 -73127,-6707917 -73070,-6707927 -73056,-6707929 -73039,-6707930 -73017,-6707929 -72991,-6707927 -72960,-6707922 -72908,-6707913 -72887,-6707906 -72873,-6707900 -72855,-6707890 -72830,-6707874 -72782,-6707825 -72727,-6707766 -72642,-6707666 -72635,-6707654 -72628,-6707645 -72620,-6707639 -72614,-6707634 -72605,-6707630 -72594,-6707625 -72582,-6707622 -72573,-6707621 -72562,-6707621 -72550,-6707623 -72521,-6707631 -72503,-6707638 -72487,-6707645 -72476,-6707651 -72465,-6707659 -72444,-6707678 -72434,-6707691 -72425,-6707706 -72410,-6707738 -72392,-6707788 -72385,-6707806 -72378,-6707823 -72368,-6707841 -72357,-6707862 -72335,-6707901 -72308,-6707940 -72287,-6707968 -72251,-6708012 -72207,-6708057 -72178,-6708090 -72159,-6708114 -72133,-6708151 -72119,-6708169 -72067,-6708300 -72048,-6708335 -72003,-6708396 -71988,-6708412 -71977,-6708421 -71965,-6708429 -71920,-6708454 -71903,-6708461 -71885,-6708466 -71870,-6708468 -71841,-6708467 -71555,-6708469 -71476,-6708464 -71416,-6708465 -71316,-6708476 -71305,-6708478 -71284,-6708485 -71271,-6708491 -71259,-6708498 -71247,-6708506 -71228,-6708523 -71181,-6708580 -71165,-6708603 -71119,-6708683 -71107,-6708699 -71093,-6708715 -71078,-6708730 -71062,-6708743 -71033,-6708762 -70945,-6708812 -70924,-6708822 -70891,-6708833 -70835,-6708849 -70813,-6708854 -70773,-6708860 -70675,-6708868 -70658,-6708869 -70642,-6708868 -70618,-6708866 -70595,-6708863 -70570,-6708858 -70563,-6708856 -70557,-6708912 -70560,-6708932 -70567,-6708956 -70571,-6708966 -70575,-6708974 -70579,-6708981 -70587,-6708989 -70604,-6709005 -70608,-6709011 -70615,-6709028 -70618,-6709034 -70625,-6709044 -70635,-6709092 -70669,-6709126 -70676,-6709180 -70680,-6709192 -70683,-6709198 -70690,-6709207 -70704,-6709218 -70707,-6709222 -70717,-6709237 -70723,-6709252 -70727,-6709257 -70733,-6709262 -70748,-6709273 -70749,-6709276 -70751,-6709296 -70754,-6709306 -70756,-6709312 -70760,-6709318 -70766,-6709326 -70777,-6709335 -70828,-6709362 -70858,-6709360 -70869,-6709361 -70873,-6709363 -70876,-6709365 -70891,-6709387 -70893,-6709389 -70897,-6709390 -70904,-6709390 -70910,-6709388 -70920,-6709381 -70927,-6709379 -70935,-6709381 -70951,-6709390 -70971,-6709393 -70981,-6709398 -70985,-6709401 -70989,-6709405 -70991,-6709409 -70995,-6709424 -70999,-6709433 -71019,-6709465 -71028,-6709492 -71033,-6709502 -71036,-6709506 -71041,-6709508 -71046,-6709508 -71061,-6709504 -71069,-6709499 -71075,-6709498 -71078,-6709499 -71082,-6709501 -71110,-6709534 -71137,-6709531 -71154,-6709541 -71185,-6709545 -71190,-6709547 -71196,-6709549 -71208,-6709559 -71217,-6709564 -71241,-6709569 -71265,-6709579 -71270,-6709579 -71291,-6709575 -71300,-6709574 -71307,-6709576 -71317,-6709583 -71328,-6709587 -71364,-6709592 -71377,-6709590 -71386,-6709587 -71399,-6709585 -71421,-6709592 -71441,-6709593 -71483,-6709592 -71503,-6709591 -71529,-6709584 -71542,-6709581 -71545,-6709582 -71555,-6709590 -71557,-6709590 -71560,-6709589 -71563,-6709586 -71564,-6709583 -71567,-6709563 -71581,-6709562 -71591,-6709514 -71615,-6709517 -71642,-6709515 -71653,-6709515 -71661,-6709516 -71665,-6709519 -71695,-6709546 -71697,-6709549 -71704,-6709566 -71706,-6709569 -71710,-6709572 -71728,-6709582 -71736,-6709588 -71739,-6709590 -71742,-6709596 -71742,-6709608 -71738,-6709627 -71739,-6709633 -71744,-6709650 -71745,-6709654 -71744,-6709659 -71742,-6709664 -71725,-6709698 -71723,-6709704 -71721,-6709715 -71722,-6709728 -71721,-6709733 -71719,-6709740 -71717,-6709744 -71713,-6709747 -71709,-6709750 -71694,-6709756 -71673,-6709759 -71666,-6709798 -71652,-6709838 -71638,-6709891 -71624,-6709921 -71621,-6709939 -71611,-6709970 -71606,-6710003 -71591,-6710052 -71586,-6710074 -71577,-6710093 -71553,-6710135 -71543,-6710158 -71512,-6710245 -71497,-6710308 -71490,-6710331 -71471,-6710329 -71460,-6710330 -71450,-6710331 -71439,-6710335 -71424,-6710341 -71415,-6710345 -71389,-6710351 -71370,-6710364 -71358,-6710367 -71347,-6710370 -71331,-6710369 -71300,-6710362 -71269,-6710357 -71236,-6710350 -71217,-6710349 -71190,-6710349 -71164,-6710348 -71136,-6710346 -71112,-6710338 -71095,-6710333 -71062,-6710322 -70985,-6710296 -70963,-6710281 -70949,-6710270 -70935,-6710264 -70919,-6710257 -70897,-6710258 -70877,-6710257 -70848,-6710260 -70814,-6710268 -70756,-6710280 -70714,-6710296 -70665,-6710304 -70648,-6710305 -70634,-6710313 -70627,-6710320 -70623,-6710327 -70619,-6710335 -70608,-6710359 -70587,-6710420 -70564,-6710479 -70552,-6710510 -70539,-6710535 -70529,-6710551 -70511,-6710583 -70479,-6710628 -70454,-6710661 -70429,-6710689 -70418,-6710697 -70393,-6710722 -70361,-6710751 -70321,-6710783 -70302,-6710796 -70286,-6710818 -70261,-6710843 -70249,-6710857 -70219,-6710876 -70216,-6710873 -70215,-6710870 -70177,-6710890 -70149,-6710897 -70122,-6710906 -70081,-6710918 -69973,-6710974 -69949,-6710986 -69938,-6710990 -69897,-6711005 -69811,-6711012 -69744,-6711008 -69730,-6710994 -69724,-6710986 -69680,-6710986 -69654,-6710988 -69648,-6710988 -69618,-6710984 -69587,-6710970 -69564,-6710970 -69540,-6710971 -69507,-6710961 -69489,-6710959 -69447,-6710944 -69401,-6710924 -69353,-6710904 -69307,-6710889 -69269,-6710866 -69258,-6710862 -69204,-6710841 -69180,-6710826 -69139,-6710809 -69112,-6710804 -69069,-6710771 -69053,-6710760 -69013,-6710736 -68983,-6710715 -68941,-6710676 -68888,-6710628 -68871,-6710615 -68853,-6710600 -68825,-6710586 -68783,-6710544 -68733,-6710543 -68709,-6710526 -68617,-6710465 -68584,-6710444 -68550,-6710412 -68482,-6710344 -68442,-6710300 -68400,-6710260 -68348,-6710230 -68336,-6710223 -68327,-6710216 -68273,-6710175 -68257,-6710162 -68220,-6710137 -68201,-6710125 -68182,-6710104 -68162,-6710097 -68137,-6710086 -68102,-6710057 -68053,-6710012 -68048,-6710012 -68044,-6710012 -68020,-6709984 -67984,-6709931 -67968,-6709921 -67914,-6709909 -67896,-6709902 -67825,-6709878 -67787,-6709866 -67767,-6709845 -67650,-6709727 -67533,-6709895 -67345,-6709810 -67273,-6709778 -67171,-6709964 -67133,-6710022 -67115,-6710065 -67078,-6710182 -67062,-6710231 -66992,-6710379 -66855,-6710631 -66847,-6710625 -66819,-6710607 -66799,-6710595 -66789,-6710587 -66777,-6710575 -66740,-6710547 -66718,-6710527 -66693,-6710499 -66688,-6710490 -66677,-6710474 -66616,-6710409 -66555,-6710354 -66537,-6710339 -66515,-6710324 -66462,-6710283 -66410,-6710250 -66381,-6710230 -66344,-6710206 -66316,-6710185 -66300,-6710179 -66287,-6710167 -66252,-6710145 -66220,-6710124 -66171,-6710101 -66160,-6710097 -66136,-6710079 -66099,-6710047 -66053,-6710013 -66039,-6710006 -66027,-6709999 -66012,-6709988 -65993,-6709973 -65969,-6709953 -65957,-6709943 -65929,-6709916 -65914,-6709901 -65875,-6709871 -65848,-6709843 -65840,-6709832 -65820,-6709794 -65800,-6709754 -65793,-6709741 -65742,-6709872 -65726,-6709913 -65693,-6710001 -65679,-6710049 -65653,-6710113 -65652,-6710116 -65649,-6710116 -65646,-6710115 -65635,-6710111 -65585,-6710090 -65540,-6710073 -65496,-6710052 -65451,-6710032 -65361,-6709997 -65308,-6709974 -65159,-6709903 -65080,-6709864 -64926,-6709788 -64648,-6709654 -64510,-6709590 -64330,-6709517 -64128,-6709437 -64126,-6709436 -64128,-6709429 -64131,-6709420 -64128,-6709409 -64120,-6709401 -64109,-6709392 -64102,-6709381 -64097,-6709360 -64076,-6709351 -64060,-6709330 -64048,-6709316 -64036,-6709305 -64020,-6709296 -64004,-6709289 -63988,-6709284 -63975,-6709279 -63962,-6709271 -63947,-6709258 -63925,-6709244 -63906,-6709232 -63889,-6709220 -63877,-6709215 -63861,-6709210 -63848,-6709202 -63833,-6709192 -63821,-6709181 -63796,-6709149 -63782,-6709129 -63766,-6709120 -63745,-6709117 -63731,-6709114 -63719,-6709107 -63705,-6709096 -63691,-6709093 -63686,-6709088 -63674,-6709066 -63665,-6709058 -63638,-6709045 -63609,-6709042 -63570,-6709050 -63552,-6709048 -63538,-6709042 -63524,-6709033 -63513,-6709031 -63482,-6709032 -63470,-6709021 -63451,-6709009 -63423,-6708981 -63330,-6708888 -63293,-6708853 -63283,-6708840 -63271,-6708832 -63259,-6708825 -63242,-6708821 -63183,-6708809 -63159,-6708801 -63151,-6708795 -63133,-6708780 -62998,-6708694 -62958,-6708670 -62923,-6708677 -62897,-6708684 -62882,-6708700 -62871,-6708719 -62848,-6708761 -62831,-6708814 -62830,-6708816 -62806,-6708873 -62775,-6708925 -62738,-6708977 -62697,-6709058 -62691,-6709070 -62687,-6709082 -62683,-6709094 -62676,-6709135 -62664,-6709176 -62646,-6709225 -62626,-6709272 -62602,-6709336 -62563,-6709403 -62546,-6709442 -62475,-6709574 -62471,-6709581 -62430,-6709666 -62400,-6709720 -62317,-6709677 -62199,-6709617 -62074,-6709551 -61942,-6709482 -61861,-6709447 -61816,-6709430 -61762,-6709406 -61674,-6709368 -61601,-6709336 -61547,-6709315 -61508,-6709297 -61505,-6709296 -61502,-6709294 -61528,-6709203 -61543,-6709144 -61568,-6709065 -61592,-6708983 -61608,-6708926 -61636,-6708834 -61649,-6708787 -61669,-6708713 -61684,-6708660 -61584,-6708615 -61491,-6708574 -61453,-6708555 -61400,-6708542 -61374,-6708535 -61196,-6708495 -61164,-6708488 -61149,-6708484 -61140,-6708482 -61112,-6708475 -61088,-6708468 -61061,-6708458 -61032,-6708449 -61018,-6708449 -60998,-6708446 -60982,-6708442 -60959,-6708439 -60950,-6708436 -60940,-6708433 -60930,-6708429 -60907,-6708417 -60887,-6708505 -60692,-6708462 -60690,-6708462 -60710,-6708415 -60584,-6708346 -60484,-6708297 -60445,-6708275 -60380,-6708241 -60319,-6708207 -60256,-6708301 -60151,-6708249 -60120,-6708234 -60062,-6708205 -60015,-6708182 -59905,-6708129 -59902,-6708128 -59915,-6708094 -59820,-6707993 -59786,-6707956 -59780,-6707949 -59774,-6707943 -59767,-6707937 -59757,-6707929 -59749,-6707929 -59737,-6707931 -59727,-6707933 -59724,-6707934 -59718,-6707936 -59709,-6707941 -59701,-6707943 -59690,-6707942 -59680,-6707942 -59665,-6707939 -59658,-6707937 -59654,-6707935 -59649,-6707928 -59645,-6707921 -59638,-6707911 -59634,-6707903 -59620,-6707896 -59606,-6707888 -59588,-6707881 -59558,-6707874 -59537,-6707870 -59530,-6707868 -59524,-6707866 -59515,-6707865 -59503,-6707862 -59492,-6707860 -59485,-6707857 -59484,-6707856 -59481,-6707842 -59472,-6707796 -59457,-6707737 -59453,-6707721 -59443,-6707678 -59430,-6707635 -59398,-6707545 -59384,-6707511 -59388,-6707507 -59427,-6707473 -59415,-6707453 -59401,-6707428 -59390,-6707409 -59366,-6707374 -59323,-6707301 -59303,-6707275 -59244,-6707219 -59205,-6707186 -59191,-6707170 -59154,-6707134 -59095,-6707071 -59025,-6707003 -58981,-6706982 -58957,-6706970 -58909,-6706917 -58810,-6706819 -58705,-6706714 -58662,-6706673 -58605,-6706647 -58541,-6706621 -58500,-6706605 -58454,-6706590 -58358,-6706555 -58359,-6706507 -58363,-6706461 -58370,-6706409 -58376,-6706380 -58381,-6706362 -58388,-6706348 -58397,-6706332 -58412,-6706316 -58426,-6706301 -58441,-6706282 -58450,-6706268 -58457,-6706238 -58458,-6706224 -58456,-6706210 -58456,-6706197 -58453,-6706176 -58452,-6706147 -58456,-6706134 -58469,-6706120 -58478,-6706108 -58480,-6706097 -58481,-6706086 -58478,-6706061 -58471,-6706014 -58469,-6705997 -58468,-6705982 -58466,-6705971 -58464,-6705962 -58462,-6705936 -58459,-6705923 -58456,-6705910 -58452,-6705892 -58449,-6705882 -58447,-6705864 -58445,-6705847 -58444,-6705820 -58443,-6705810 -58446,-6705789 -58427,-6705790 -58421,-6705787 -58414,-6705783 -58408,-6705774 -58407,-6705755 -58407,-6705745 -58407,-6705743 -58407,-6705733 -58411,-6705722 -58415,-6705720 -58418,-6705717 -58423,-6705716 -58438,-6705714 -58441,-6705706 -58443,-6705702 -58452,-6705701 -58457,-6705700 -58466,-6705698 -58473,-6705693 -58493,-6705680 -58499,-6705674 -58499,-6705672 -58488,-6705651 -58485,-6705638 -58482,-6705628 -58482,-6705625 -58480,-6705616 -58476,-6705616 -58467,-6705616 -58456,-6705615 -58445,-6705611 -58443,-6705601 -58444,-6705582 -58445,-6705576 -58445,-6705573 -58445,-6705562 -58444,-6705543 -58441,-6705541 -58434,-6705533 -58428,-6705525 -58413,-6705509 -58395,-6705493 -58386,-6705485 -58379,-6705478 -58370,-6705459 -58357,-6705441 -58358,-6705414 -58359,-6705404 -58333,-6705376 -58323,-6705365 -58318,-6705357 -58305,-6705316 -58299,-6705293 -58298,-6705282 -58307,-6705269 -58329,-6705242 -58338,-6705230 -58343,-6705216 -58349,-6705200 -58356,-6705183 -58365,-6705157 -58369,-6705145 -58371,-6705129 -58403,-6705122 -58441,-6705111 -58451,-6705107 -58519,-6705085 -58562,-6705068 -58582,-6705060 -58648,-6705028 -58674,-6705017 -58755,-6704986 -58829,-6704955 -58910,-6704916 -58944,-6704901 -58960,-6704895 -58994,-6704886 -59041,-6704734 -58959,-6704729 -58976,-6704708 -58990,-6704627 -59006,-6704566 -59028,-6704506 -59050,-6704439 -59065,-6704396 -59114,-6704264 -59136,-6704185 -59163,-6704118 -59178,-6704062 -59195,-6704015 -59210,-6703982 -59195,-6703975 -59215,-6703922 -59229,-6703871 -59243,-6703870 -59265,-6703803 -59281,-6703754 -59289,-6703733 -59358,-6703600 -59511,-6703312 -59538,-6703259 -59566,-6703205 -59589,-6703160 -59654,-6703053 -59675,-6703014 -59682,-6703005 -59705,-6702978 -59725,-6702962 -59734,-6702953 -59773,-6702999 -59942,-6702898 -60090,-6702807 -60155,-6702769 -60165,-6702780 -60170,-6702777 -60174,-6702772 -60173,-6702746 -60180,-6702685 -60177,-6702604 -60176,-6702550 -60066,-6702428 -59958,-6702304 -59784,-6702108 -59688,-6702003 -59675,-6701989 -59542,-6701840 -59477,-6701767 -59350,-6701626 -59146,-6701402 -58780,-6700995 -58690,-6700895 -58635,-6700838 -58647,-6700818 -58663,-6700799 -58680,-6700779 -58717,-6700739 -58805,-6700637 -58851,-6700581 -58897,-6700520 -58933,-6700478 -58968,-6700447 -59005,-6700420 -59026,-6700406 -59051,-6700389 -59074,-6700377 -59093,-6700371 -59100,-6700370 -59117,-6700370 -59121,-6700339 -59106,-6700319 -59100,-6700310 -59094,-6700300 -59084,-6700278 -59071,-6700192 -59070,-6700170 -59074,-6700141 -59119,-6699966 -59151,-6699830 -59159,-6699802 -59054,-6699704 -59025,-6699681 -59013,-6699671 -58746,-6699655 -58706,-6699630 -58683,-6699611 -58670,-6699595 -58655,-6699586 -58644,-6699587 -58632,-6699596 -58620,-6699600 -58608,-6699600 -58597,-6699589 -58574,-6699541 -58563,-6699525 -58549,-6699520 -58527,-6699525 -58509,-6699526 -58508,-6699526 -58484,-6699516 -58457,-6699511 -58436,-6699510 -58418,-6699502 -58391,-6699475 -58375,-6699437 -58360,-6699417 -58354,-6699408 -58344,-6699388 -58340,-6699376 -58342,-6699352 -58345,-6699334 -58345,-6699324 -58345,-6699315 -58340,-6699299 -58339,-6699287 -58341,-6699270 -58386,-6699199 -58404,-6699159 -58437,-6699106 -58457,-6699079 -58468,-6699061 -58475,-6699029 -58475,-6699022 -58461,-6699018 -58445,-6699019 -58435,-6699013 -58443,-6698996 -58449,-6698987 -58456,-6698965 -58460,-6698942 -58443,-6698938 -58430,-6698923 -58425,-6698914 -58422,-6698904 -58419,-6698892 -58416,-6698867 -58415,-6698855 -58420,-6698830 -58421,-6698804 -58408,-6698795 -58402,-6698789 -58397,-6698782 -58390,-6698769 -58379,-6698767 -58360,-6698772 -58353,-6698773 -58340,-6698774 -58320,-6698779 -58314,-6698779 -58309,-6698777 -58306,-6698775 -58304,-6698772 -58298,-6698761 -58271,-6698745 -58259,-6698745 -58250,-6698748 -58242,-6698747 -58228,-6698737 -58213,-6698728 -58203,-6698717 -58197,-6698702 -58196,-6698692 -58193,-6698657 -58506,-6698693 -58518,-6698694 -58527,-6698695 -58605,-6698707 -58730,-6698727 -58789,-6698746 -58844,-6698763 -58974,-6698811 -59049,-6698833 -59081,-6698844 -59115,-6698851 -59155,-6698859 -59200,-6698880 -59231,-6698890 -59285,-6698917 -59362,-6698958 -59386,-6698970 -59442,-6698994 -59488,-6699020 -59511,-6699034 -59547,-6699057 -59586,-6699080 -59677,-6699149 -59712,-6699181 -59731,-6699198 -59751,-6699214 -59773,-6699229 -59795,-6699244 -59842,-6699267 -59930,-6699320 -59971,-6699339 -60005,-6699349 -60039,-6699348 -60186,-6699415 -60260,-6699453 -60394,-6699516 -60439,-6699541 -60498,-6699578 -60551,-6699608 -60592,-6699636 -60628,-6699656 -60664,-6699679 -60731,-6699714 -60753,-6699727 -60793,-6699738 -60827,-6699750 -60872,-6699764 -60908,-6699776 -60926,-6699784 -61023,-6699831 -61059,-6699857 -61084,-6699881 -61099,-6699906 -61108,-6699931 -61113,-6699943 -61147,-6700012 -61157,-6700026 -61177,-6700053 -61189,-6700066 -61201,-6700076 -61212,-6700085 -61213,-6700085 -61244,-6700103 -61275,-6700117 -61315,-6700127 -61352,-6700133 -61367,-6700134 -61382,-6700135 -61403,-6700134 -61428,-6700121 -61439,-6700114 -61451,-6700105 -61502,-6700064 -61523,-6700041 -61533,-6700027 -61544,-6700012 -61584,-6699930 -61585,-6699929 -61607,-6699870 -61630,-6699820 -61651,-6699791 -61676,-6699767 -61703,-6699751 -61730,-6699744 -61756,-6699740 -61785,-6699743 -61800,-6699746 -61815,-6699750 -61845,-6699762 -61865,-6699771 -61901,-6699799 -61912,-6699806 -61925,-6699815 -61962,-6699853 -62000,-6699903 -62035,-6699970 -62060,-6700020 -62069,-6700036 -62111,-6700095 -62123,-6700111 -62200,-6700206 -62224,-6700234 -62260,-6700273 -62302,-6700306 -62326,-6700322 -62358,-6700342 -62441,-6700376 -62455,-6700381 -62528,-6700401 -62551,-6700410 -62563,-6700415 -62610,-6700447 -62625,-6700460 -62667,-6700503 -62688,-6700523 -62724,-6700565 -62769,-6700634 -62800,-6700700 -62814,-6700729 -62821,-6700747 -62834,-6700781 -62850,-6700814 -62857,-6700840 -62877,-6700906 -62889,-6700932 -62907,-6700956 -62918,-6700966 -62928,-6700976 -62961,-6700998 -62972,-6701007 -62993,-6701028 -63046,-6701104 -63097,-6701156 -63108,-6701169 -63159,-6701235 -63180,-6701268 -63209,-6701297 -63233,-6701313 -63264,-6701326 -63325,-6701355 -63364,-6701369 -63407,-6701378 -63440,-6701389 -63505,-6701406 -63554,-6701422 -63583,-6701434 -63616,-6701451 -63638,-6701462 -63673,-6701402 -63688,-6701370 -63707,-6701341 -63715,-6701331 -63735,-6701317 -63752,-6701308 -63762,-6701294 -63776,-6701268 -63780,-6701261 -63796,-6701250 -63813,-6701249 -63820,-6701247 -63836,-6701239 -63844,-6701234 -63896,-6701166 -63925,-6701135 -63949,-6701107 -63962,-6701084 -63969,-6701072 -63987,-6701038 -63994,-6701030 -64009,-6701009 -64029,-6700991 -64047,-6700969 -64067,-6700936 -64088,-6700907 -64139,-6700817 -64150,-6700799 -64157,-6700790 -64174,-6700776 -64181,-6700767 -64188,-6700757 -64202,-6700735 -64209,-6700725 -64236,-6700691 -64289,-6700625 -64341,-6700567 -64382,-6700522 -64422,-6700467 -64471,-6700411 -64525,-6700347 -64529,-6700344 -64537,-6700347 -64549,-6700338 -64572,-6700326 -64596,-6700317 -64652,-6700306 -64766,-6700283 -64784,-6700277 -64820,-6700257 -64854,-6700244 -64945,-6700205 -64965,-6700193 -64979,-6700186 -64993,-6700178 -65022,-6700164 -65066,-6700149 -65039,-6700132 -65048,-6700124 -65073,-6700106 -65074,-6700093 -65080,-6700077 -65082,-6700069 -65082,-6700046 -65083,-6700042 -65085,-6700038 -65092,-6700029 -65095,-6700024 -65101,-6700009 -65140,-6700009 -65164,-6699919 -65179,-6699920 -65222,-6699926 -65245,-6699927 -65264,-6699920 -65289,-6699913 -65310,-6699913 -65344,-6699921 -65371,-6699925 -65405,-6699926 -65470,-6699923 -65496,-6699919 -65509,-6699915 -65522,-6699909 -65538,-6699897 -65565,-6699877 -65584,-6699860 -65593,-6699851 -65635,-6699787 -65650,-6699770 -65689,-6699736 -65713,-6699721 -65735,-6699712 -65749,-6699709 -65795,-6699700 -65811,-6699702 -65827,-6699712 -65850,-6699719 -65864,-6699725 -65890,-6699739 -65902,-6699747 -65911,-6699755 -65937,-6699785 -65946,-6699792 -65955,-6699800 -65982,-6699814 -66014,-6699822 -66036,-6699824 -66042,-6699823 -66055,-6699821 -66069,-6699817 -66085,-6699811 -66101,-6699803 -66116,-6699793 -66123,-6699787 -66148,-6699758 -66153,-6699750 -66161,-6699732 -66167,-6699714 -66173,-6699694 -66175,-6699682 -66176,-6699672 -66177,-6699664 -66176,-6699652 -66154,-6699626 -66142,-6699614 -66135,-6699607 -66109,-6699597 -66139,-6699374 -66219,-6699282 -66386,-6699085 -66477,-6698981 -66559,-6698882 -67007,-6698357 -67068,-6698287 -67269,-6698049 -67307,-6698008 -67362,-6697945 -67358,-6697768 -67357,-6697735 -67355,-6697564 -67346,-6697144 -67343,-6696858 -67337,-6696551 -67337,-6696446 -67337,-6696387 -67341,-6696239 -67343,-6696172 -67343,-6696153 -67346,-6696052 -67347,-6695876 -67349,-6695800 -67354,-6695734 -67355,-6695619 -67357,-6695571 -67357,-6695490 -67365,-6695454 -67377,-6695416 -67389,-6695371 -67404,-6695317 -67435,-6695224 -67451,-6695162 -67467,-6695118 -67502,-6694987 -67535,-6694874 -67607,-6694738 -67630,-6694696 -67663,-6694637 -67684,-6694593 -67720,-6694525 -67738,-6694499 -67742,-6694489 -67770,-6694431 -67807,-6694372 -67833,-6694327 -67863,-6694265 -67896,-6694206 -67978,-6694052 -68008,-6694002 -68049,-6693910 -68055,-6693895 -68082,-6693821 -68124,-6693695 -68137,-6693654 -68151,-6693616 -68165,-6693567 -68209,-6693447 -68241,-6693358 -68262,-6693291 -68283,-6693231 -68311,-6693137 -68335,-6693069 -68348,-6693026 -68378,-6692942 -68384,-6692925 -68392,-6692908 -68401,-6692890 -68445,-6692817 -68462,-6692783 -68499,-6692713 -68555,-6692614 -68650,-6692459 -68664,-6692429 -68715,-6692342 -68755,-6692286 -68757,-6692264 -68758,-6692255 -68766,-6692236 -68770,-6692231 -68790,-6692203 -68809,-6692192 -68836,-6692182 -68811,-6692140 -68806,-6692114 -68778,-6692117 -68777,-6692129 -68707,-6692135 -68676,-6692104 -68625,-6692050 -68549,-6692124 -68524,-6692087 -68515,-6692071 -68484,-6692015 -68464,-6692022 -68432,-6691961 -68429,-6691923 -68408,-6691891 -68408,-6691882 -68409,-6691874 -68463,-6691828 -68476,-6691861 -68477,-6691864 -68478,-6691867 -68479,-6691869 -68481,-6691872 -68483,-6691875 -68485,-6691877 -68529,-6691936 -68544,-6691924 -68562,-6691908 -68578,-6691887 -68638,-6691823 -68625,-6691820 -68613,-6691816 -68601,-6691811 -68590,-6691806 -68582,-6691802 -68568,-6691794 -68554,-6691786 -68552,-6691785 -68526,-6691774 -68508,-6691709 -68524,-6691687 -68787,-6691332 -68847,-6691254 -68888,-6691197 -68925,-6691152 -68977,-6691076 -68909,-6691006 -68850,-6690998 -68796,-6690939 -68812,-6690922 -68846,-6690890 -68878,-6690860 -68909,-6690835 -68940,-6690812 -68956,-6690800 -69023,-6690754 -69053,-6690736 -69079,-6690717 -69104,-6690689 -69171,-6690620 -69199,-6690594 -69220,-6690579 -69240,-6690567 -69261,-6690558 -69270,-6690552 -69302,-6690526 -69315,-6690512 -69359,-6690522 -69379,-6690512 -69407,-6690490 -69319,-6690440 -69257,-6690408 -69215,-6690387 -69180,-6690365 -69143,-6690343 -69075,-6690300 -68995,-6690231 -68935,-6690173 -68922,-6690159 -68910,-6690146 -68889,-6690119 -68868,-6690088 -68811,-6689996 -68791,-6689962 -68756,-6689912 -68746,-6689895 -68727,-6689859 -68705,-6689826 -68701,-6689810 -68690,-6689761 -68648,-6689597 -68619,-6689463 -68611,-6689419 -68800,-6689391 -68934,-6689678 -68974,-6689648 -69120,-6689711 -69355,-6689522 -69434,-6689424 -69478,-6689375 -69567,-6689302 -69584,-6689290 -69599,-6689288 -69608,-6689289 -69650,-6689295 -69665,-6689299 -69678,-6689300 -69696,-6689316 -69704,-6689328 -69709,-6689341 -69717,-6689352 -69739,-6689364 -69749,-6689370 -69839,-6689445 -69932,-6689543 -70069,-6689544 -70169,-6689549 -70218,-6689550 -70333,-6689553 -70396,-6689556 -70410,-6689556 -70645,-6689636 -70643,-6689656 -70661,-6689668 -70671,-6689680 -70665,-6689697 -70736,-6689724 -70748,-6689723 -70758,-6689729 -70765,-6689729 -70790,-6689727 -70803,-6689723 -70819,-6689713 -70839,-6689731 -70848,-6689747 -70866,-6689786 -70875,-6689795 -70925,-6689829 -70984,-6689881 -71079,-6689976 -71183,-6689973 -71222,-6690019 -71295,-6690103 -71349,-6690071 -71418,-6690033 -71526,-6689975 -71841,-6689800 -71979,-6689727 -72027,-6689846 -72080,-6689826 -72120,-6689814 -72149,-6689808 -72185,-6689807 -72217,-6689810 -72257,-6689807 -72289,-6689802 -72321,-6689796 -72361,-6689786 -72385,-6689787 -72398,-6689789 -72425,-6689794 -72439,-6689798 -72449,-6689806 -72468,-6689823 -72477,-6689833 -72511,-6689886 -72538,-6689920 -72547,-6689930 -72581,-6689965 -72591,-6689975 -72622,-6689999 -72649,-6690013 -72725,-6690048 -72739,-6690054 -72802,-6690070 -72840,-6690076 -72911,-6690082 -72947,-6690081 -72984,-6690074 -73015,-6690061 -73044,-6690041 -73079,-6690021 -73150,-6689975 -73179,-6689953 -73210,-6689934 -73227,-6689924 -73247,-6689915 -73266,-6689908 -73297,-6689903 -73459,-6689893 -73503,-6689894 -73535,-6689893 -73631,-6689886 -73672,-6689880 -73703,-6689878 -73763,-6689865 -73791,-6689861 -73821,-6689853 -73841,-6689849 -73933,-6689819 -73954,-6689812 -74123,-6689711 -74223,-6689656 -74262,-6689637 -74275,-6689629 -74298,-6689615 -74320,-6689603 -74402,-6689647 -74491,-6689689 -74538,-6689713 -74579,-6689736 -74625,-6689759 -74738,-6689819 -74795,-6689967 -74888,-6690232 -74912,-6690289 -74936,-6690347 -74981,-6690395 -75004,-6690422 -75042,-6690460 -75099,-6690526 -75214,-6690655 -75491,-6690956 -75532,-6691001 -75597,-6691076 -75634,-6691116 -75661,-6691161 -75677,-6691196 -75697,-6691243 -75732,-6691324 -75778,-6691422 -75796,-6691470 -75831,-6691550 -75842,-6691582 -75848,-6691597 -75885,-6691681 -75904,-6691730 -75925,-6691773 -75934,-6691793 -75950,-6691833 -75973,-6691890 -75995,-6691938 -76010,-6691976 -76033,-6692025 -76076,-6692119 -76088,-6692146 -76110,-6692187 -76126,-6692223 -76163,-6692325 -76187,-6692374 -76230,-6692472 -76258,-6692531 -76259,-6692543 -76316,-6692657 -76433,-6692884 -76462,-6692932 -76494,-6692979 -76518,-6693006 -76542,-6693034 -76676,-6693185 -76723,-6693239 -76767,-6693286 -76810,-6693336 -76858,-6693383 -76882,-6693409 -77005,-6693543 -77029,-6693564 -77049,-6693588 -77065,-6693612 -77115,-6693675 -77156,-6693733 -77182,-6693771 -77221,-6693833 -77263,-6693898 -77404,-6694111 -77478,-6694213 -77538,-6694303 -77524,-6694326 -77515,-6694346 -77504,-6694371 -77499,-6694384 -77493,-6694453 -77489,-6694575 -77482,-6694611 -77484,-6694625 -77495,-6694656 -77491,-6694680 -77481,-6694698 -77476,-6694705 -77469,-6694713 -77450,-6694727 -77424,-6694751 -77383,-6694795 -77372,-6694808 -77355,-6694833 -77330,-6694867 -77244,-6694995 -77218,-6695035 -77151,-6695143 -77121,-6695195 -77081,-6695278 -77042,-6695343 -76949,-6695501 -76899,-6695582 -76879,-6695616 -76859,-6695650 -76819,-6695724 -76784,-6695756 -76723,-6695805 -76662,-6695856 -76626,-6695886 -76607,-6695901 -76551,-6695949 -76483,-6696005 -76421,-6696060 -76378,-6696096 -76355,-6696114 -76311,-6696147 -76263,-6696184 -76229,-6696216 -76216,-6696245 -76122,-6696374 -76046,-6696484 -76009,-6696536 -75897,-6696688 -75786,-6696841 -75761,-6696881 -75742,-6696917 -75719,-6696984 -75706,-6697034 -75664,-6697146 -75638,-6697215 -75617,-6697290 -75593,-6697348 -75560,-6697437 -75558,-6697460 -75566,-6697503 -75572,-6697550 -75575,-6697593 -75580,-6697643 -75583,-6697702 -75583,-6697717 -75543,-6697741 -75476,-6697790 -75410,-6697837 -75399,-6697845 -75389,-6697855 -75380,-6697864 -75357,-6697894 -75322,-6697945 -75300,-6697973 -75280,-6697993 -75213,-6697992 -75172,-6697985 -75082,-6697974 -74967,-6697964 -74921,-6697955 -74859,-6697948 -74724,-6697923 -74591,-6697892 -74530,-6697882 -74441,-6697861 -74355,-6697844 -74307,-6697770 -74288,-6697737 -74265,-6697707 -74223,-6697645 -74203,-6697614 -74168,-6697565 -74127,-6697488 -74107,-6697456 -74088,-6697418 -74066,-6697378 -74049,-6697345 -74033,-6697319 -74018,-6697278 -73993,-6697228 -73968,-6697192 -73915,-6697102 -73907,-6697089 -73890,-6697068 -73865,-6697043 -73815,-6696999 -73792,-6696986 -73612,-6696863 -73491,-6696777 -73378,-6696704 -73312,-6696658 -73299,-6696650 -73288,-6696644 -73276,-6696638 -73246,-6696626 -73182,-6696622 -73160,-6696619 -73120,-6696612 -73098,-6696609 -73076,-6696606 -73059,-6696606 -73042,-6696607 -72988,-6696613 -72928,-6696617 -72854,-6696628 -72809,-6696630 -72787,-6696631 -72776,-6696617 -72744,-6696576 -72736,-6696566 -72727,-6696557 -72699,-6696531 -72673,-6696505 -72628,-6696464 -72573,-6696416 -72568,-6696412 -72518,-6696364 -72410,-6696271 -72328,-6696196 -72299,-6696172 -72275,-6696156 -72264,-6696144 -72235,-6696122 -72195,-6696098 -72145,-6696065 -72092,-6696034 -72051,-6696003 -72017,-6695980 -72003,-6695969 -72000,-6695967 -71990,-6695958 -71965,-6695934 -71951,-6695922 -71937,-6695910 -71925,-6695903 -71889,-6695881 -71874,-6695874 -71843,-6695860 -71780,-6695835 -71757,-6695830 -71742,-6695821 -71730,-6695813 -71728,-6695798 -71722,-6695774 -71720,-6695768 -71715,-6695764 -71701,-6695757 -71694,-6695753 -71685,-6695751 -71675,-6695750 -71643,-6695753 -71635,-6695751 -71627,-6695748 -71618,-6695742 -71609,-6695736 -71601,-6695729 -71595,-6695720 -71577,-6695695 -71569,-6695671 -71550,-6695629 -71535,-6695589 -71525,-6695570 -71520,-6695563 -71514,-6695555 -71498,-6695539 -71473,-6695518 -71432,-6695490 -71422,-6695474 -71410,-6695453 -71403,-6695443 -71395,-6695434 -71382,-6695422 -71363,-6695402 -71351,-6695378 -71341,-6695323 -71329,-6695273 -71325,-6695239 -71323,-6695232 -71321,-6695226 -71311,-6695212 -71293,-6695175 -71281,-6695165 -71256,-6695146 -71224,-6695126 -71217,-6695120 -71205,-6695109 -71195,-6695097 -71176,-6695068 -71170,-6695061 -71163,-6695056 -71147,-6695046 -71105,-6695014 -71096,-6695003 -71087,-6694995 -71068,-6694978 -71058,-6694971 -71038,-6694964 -70998,-6694954 -70937,-6694947 -70859,-6694929 -70822,-6694925 -70798,-6694926 -70763,-6694922 -70737,-6694925 -70731,-6694895 -70729,-6694887 -70723,-6694884 -70701,-6694904 -70686,-6694912 -70663,-6694912 -70623,-6694915 -70581,-6694914 -70443,-6694914 -70393,-6694917 -70326,-6694919 -70296,-6694925 -70277,-6694935 -70294,-6694975 -70299,-6694992 -70294,-6695019 -70287,-6695072 -70277,-6695120 -70273,-6695196 -70270,-6695286 -70275,-6695359 -70280,-6695382 -70294,-6695419 -70316,-6695486 -70328,-6695525 -70337,-6695562 -70341,-6695581 -70346,-6695621 -70361,-6695721 -70360,-6695748 -70361,-6695784 -70353,-6695816 -70350,-6695850 -70351,-6695875 -70344,-6695906 -70333,-6695977 -70318,-6696049 -70313,-6696094 -70313,-6696108 -70307,-6696179 -70299,-6696266 -70288,-6696347 -70268,-6696436 -70271,-6696448 -70278,-6696461 -70308,-6696496 -70326,-6696514 -70346,-6696538 -70383,-6696583 -70397,-6696600 -70423,-6696624 -70444,-6696642 -70459,-6696658 -70465,-6696667 -70474,-6696687 -70489,-6696721 -70536,-6696808 -70551,-6696835 -70569,-6696860 -70605,-6696919 -70646,-6696969 -70684,-6697018 -70722,-6697077 -70763,-6697135 -70866,-6697278 -70926,-6697354 -70906,-6697416 -70844,-6697602 -70818,-6697685 -70791,-6697769 -70662,-6698198 -70655,-6698222 -70615,-6698355 -70575,-6698478 -70490,-6698757 -70446,-6698900 -70433,-6698954 -70408,-6699041 -70364,-6699216 -70350,-6699277 -70323,-6699375 -70306,-6699444 -70237,-6699699 -70218,-6699785 -70192,-6699888 -70217,-6699889 -70251,-6699887 -70307,-6699880 -70364,-6699875 -70436,-6699866 -70550,-6699849 -70631,-6699836 -70697,-6699822 -70808,-6699804 -70879,-6699790 -70917,-6699783 -71036,-6699765 -71238,-6699727 -71435,-6699680 -71461,-6699676 -71477,-6699678 -71502,-6699680 -71553,-6699689 -71654,-6699709 -71698,-6699716 -71713,-6699719 -71856,-6699738 -71916,-6699744 -71978,-6699753 -72360,-6699800 -72446,-6699812 -72501,-6699802 -72602,-6699778 -72695,-6699761 -72788,-6699741 -72806,-6699749 -72904,-6699806 -73008,-6699869 -73216,-6699990 -73374,-6700083 -73561,-6700191 -73691,-6700268 -73660,-6700338 -73577,-6700512 -73509,-6700650 -73439,-6700804 -73399,-6700888 -73322,-6701058 -73273,-6701160 -73277,-6701238 -73284,-6701372 -73288,-6701478 -73298,-6701589 -73299,-6701640 -73296,-6701664 -73291,-6701712 -73282,-6701773 -73275,-6701848 -73264,-6701934 -73241,-6702136 -73235,-6702208 -73227,-6702282 -73218,-6702355 -73209,-6702422 -73204,-6702489 -73189,-6702606 -73158,-6702891 -73140,-6703031 -73126,-6703167 -73109,-6703336 -73366,-6703371 -73470,-6703384 -73579,-6703400 -73626,-6703429 -73765,-6703524 -74029,-6703509 -74046,-6703492 -74124,-6703405 -74159,-6703360 -74200,-6703316 -74276,-6703225 -74317,-6703179 -74348,-6703148 -74370,-6703122 -74410,-6703073 -74435,-6703040 -74452,-6703021 -74461,-6703012 -74485,-6702994 -74509,-6702972 -74620,-6702890 -74666,-6702854 -74721,-6702813 -74847,-6702714 -74889,-6702685 -74934,-6702733 -74990,-6702801 -75056,-6702888 -75080,-6702924 -75109,-6702961 -75132,-6702993 -75162,-6703029 -75191,-6703068 -75224,-6703106 -75247,-6703136 -75290,-6703182 -75334,-6703234 -75344,-6703246 -75392,-6703297 -75406,-6703313 -75437,-6703351 -75510,-6703429 -75620,-6703553 -75672,-6703607 -75731,-6703625 -75825,-6703649 -75882,-6703666 -75920,-6703675 -75934,-6703681 -75951,-6703674 -75961,-6703718 -75963,-6703720 -75981,-6703732 -76032,-6703764 -76098,-6703810 -76136,-6703839 -76203,-6703881 -76225,-6703896 -76296,-6703956 -76352,-6704010 -76394,-6704044 -76469,-6704118 -76546,-6704185 -76592,-6704226 -76619,-6704254 -76684,-6704312 -76729,-6704316 -76814,-6704304 -76826,-6704303 -76876,-6704302 -76911,-6704304 -77107,-6704324 -77194,-6704337 -77209,-6704344 -77222,-6704349 -77235,-6704352 -77249,-6704354 -77270,-6704354 -77375,-6704367 -77483,-6704378 -77568,-6704389 -77736,-6704406 -77812,-6704413 -77852,-6704418 -77932,-6704427 -78244,-6704438 -78372,-6704446 -78419,-6704447 -78465,-6704448 -78517,-6704447 -78559,-6704451 -78738,-6704440 -79051,-6704404 -79069,-6704297 -79089,-6704211 -79188,-6704242 -79236,-6704256 -79272,-6704268 -79357,-6704293 -79382,-6704303 -79528,-6704345 -79548,-6704306 -79561,-6704279 -79612,-6704172 -79644,-6704113 -79671,-6704059 -79786,-6703859 -79835,-6703760 -79858,-6703717 -79868,-6703696 -79896,-6703632 -79948,-6703530 -79959,-6703502 -79962,-6703484 -80008,-6703439 -80028,-6703440 -80037,-6703410 -80062,-6703325 -80079,-6703279 -80116,-6703191 -80194,-6703052 -80205,-6703034 -80235,-6702985 -80259,-6702951 -80345,-6702847 -80373,-6702815 -80403,-6702788 -80430,-6702762 -80458,-6702724 -80468,-6702713 -80493,-6702689 -80518,-6702660 -80558,-6702591 -80583,-6702538 -80593,-6702513 -80609,-6702481 -80623,-6702447 -80631,-6702432 -80655,-6702388 -80653,-6702379 -80793,-6702416 -80889,-6702446 -80907,-6702451 -80958,-6702463 -80999,-6702471 -81091,-6702492 -81183,-6702516 -81287,-6702541 -81340,-6702558 -81558,-6702617 -81616,-6702633 -81730,-6702661 -81904,-6702710 -81955,-6702729 -82023,-6702750 -82152,-6702785 -82204,-6702795 -82306,-6702824 -82349,-6702832 -82402,-6702848 -82462,-6702860 -82472,-6702862 -82495,-6702867 -82582,-6702872 -82633,-6702872 -82686,-6702861 -82729,-6702849 -82781,-6702843 -82818,-6702837 -82834,-6702830 -82827,-6702849 -82881,-6702841 -82919,-6702838 -82937,-6702838 -82955,-6702839 -82994,-6702844 -83032,-6702855 -83102,-6702902 -83139,-6702933 -83195,-6702975 -83465,-6703194 -83600,-6703305 -83687,-6703383 -83796,-6703467 -83879,-6703373 -84040,-6703193 -84096,-6703131 -84205,-6702999 -84278,-6702919 -84305,-6702895 -84359,-6702889 -84441,-6702896 -84571,-6702901 -84605,-6702906 -84660,-6702906 -84685,-6702909 -84741,-6702925 -84770,-6702938 -84829,-6702954 -84853,-6702967 -84930,-6703015 -84953,-6702998 -84971,-6702995 -84995,-6702993 -85017,-6703000 -85028,-6703007 -85040,-6703015 -85065,-6703038 -85086,-6703043 -85101,-6703036 -85109,-6703022 -85118,-6703019 -85139,-6703041 -85160,-6703061 -85197,-6703106 -85222,-6703135 -85256,-6703166 -85309,-6703217 -85399,-6703327 -85463,-6703398 -85502,-6703444 -85547,-6703493 -85609,-6703571 -85666,-6703642 -85694,-6703678 -85689,-6703691 -85699,-6703724 -85705,-6703753 -85722,-6703848 -85726,-6703881 -85729,-6703914 -85731,-6703997 -85729,-6704024 -85722,-6704068 -85715,-6704097 -85712,-6704121 -85705,-6704165 -85704,-6704198 -85698,-6704250 -85692,-6704282 -85689,-6704323 -85682,-6704358 -85679,-6704387 -85675,-6704411 -85676,-6704455 -85778,-6704472 -85837,-6704481 -85972,-6704503 -86199,-6704545 -86290,-6704567 -86327,-6704613 -86345,-6704627 -86399,-6704629 -86522,-6704624 -86569,-6704627 -86766,-6704629 -86899,-6704624 -87114,-6704622 -87124,-6704537 -87134,-6704467 -87139,-6704436 -87162,-6704292 -87188,-6704112 -87223,-6703886 -87248,-6703886 -87252,-6703753 -87253,-6703670 -87254,-6703586 -87253,-6703502 -87255,-6703349 -87256,-6703322 -87260,-6703207 -87289,-6703137 -87349,-6702979 -87373,-6702915 -87413,-6702813 -87464,-6702674 -87573,-6702407 -87615,-6702290 -87728,-6702052 -87814,-6701903 -87856,-6701839 -87894,-6701770 -87921,-6701729 -87933,-6701711 -87959,-6701681 -87977,-6701664 -87990,-6701655 -88006,-6701645 -88096,-6701603 -88127,-6701591 -88135,-6701586 -88167,-6701565 -88184,-6701559 -88211,-6701554 -88223,-6701549 -88243,-6701541 -88252,-6701536 -88260,-6701529 -88269,-6701518 -88287,-6701490 -88313,-6701453 -88465,-6701323 -88587,-6701215 -88604,-6701197 -88620,-6701171 -88666,-6701084 -88676,-6701060 -88688,-6701024 -88696,-6700990 -88709,-6700896 -88716,-6700874 -88725,-6700856 -88730,-6700849 -88739,-6700839 -88838,-6700758 -88917,-6700683 -88943,-6700661 -88958,-6700636 -88982,-6700592 -88994,-6700567 -88997,-6700557 -89002,-6700523 -89008,-6700506 -89012,-6700497 -89036,-6700454 -89043,-6700440 -89054,-6700409 -89058,-6700396 -89060,-6700381 -89062,-6700363 -89062,-6700342 -89061,-6700323 -89056,-6700287 -89055,-6700266 -89057,-6700180 -89061,-6700166 -89078,-6700113 -89082,-6700098 -89085,-6700072 -89083,-6700041 -89081,-6700033 -89076,-6700016 -89060,-6699976 -89054,-6699955 -89048,-6699932 -89044,-6699912 -89043,-6699893 -89044,-6699871 -89047,-6699851 -89056,-6699811 -89057,-6699799 -89058,-6699777 -89057,-6699733 -89057,-6699707 -89132,-6699693 -89216,-6699716 -89281,-6699729 -89326,-6699735 -89380,-6699741 -89405,-6699744 -89439,-6699746 -89532,-6699744 -89612,-6699739 -89658,-6699738 -89684,-6699738 -89697,-6699738 -89716,-6699740 -89731,-6699742 -89749,-6699747 -89767,-6699752 -89780,-6699756 -89792,-6699762 -89809,-6699770 -89833,-6699788 -89864,-6699816 -89924,-6699875 -89962,-6699915 -89984,-6699937 -89994,-6699946 -90000,-6699950 -90005,-6699952 -90018,-6699953 -90039,-6699951 -90095,-6699956 -90147,-6699959 -90258,-6699959 -90280,-6699957 -90334,-6699941 -90370,-6699929 -90385,-6699926 -90409,-6699924 -90425,-6699925 -90455,-6699926 -90484,-6699929 -90526,-6699935 -90632,-6699962 -90713,-6699984 -90805,-6700012 -91068,-6700066 -91081,-6700093 -91163,-6700284 -91235,-6700459 -91287,-6700567 -91335,-6700678 -91416,-6700859 -91441,-6700912 -91482,-6701002 -91529,-6701109 -91557,-6701173 -91611,-6701297 -91717,-6701554 -91720,-6701559 -91853,-6701850 -91924,-6702013 -91941,-6702047 -91951,-6702069 -91957,-6702081 -92017,-6702255 -92023,-6702273 -92030,-6702307 -92080,-6702622 -92117,-6702848 -92128,-6702922 -92147,-6703050 -92172,-6703207 -92194,-6703350 -92198,-6703379 -92204,-6703434 -92220,-6703429 -92278,-6703480 -92296,-6703492 -92314,-6703504 -92348,-6703522 -92401,-6703554 -92525,-6703625 -92697,-6703727 -92813,-6703801 -92811,-6703804 -92713,-6703821 -92422,-6703870 -92401,-6703875 -92364,-6703887 -92344,-6703895 -92323,-6703903 -92255,-6703933 -92195,-6703955 -91910,-6704047 -91860,-6704063 -91858,-6704082 -91856,-6704181 -91848,-6704513 -91846,-6704561 -91839,-6704647 -91829,-6704703 -91812,-6704772 -91796,-6704868 -91774,-6704905 -91723,-6704978 -91676,-6705043 -91607,-6705134 -91612,-6705140 -91523,-6705264 -91480,-6705321 -91486,-6705421 -91497,-6705522 -91503,-6705592 -91515,-6705605 -91537,-6705633 -91549,-6705651 -91571,-6705688 -91578,-6705701 -91582,-6705711 -91593,-6705745 -91607,-6705779 -91660,-6705871 -91687,-6705907 -91692,-6705919 -91694,-6705929 -91694,-6705947 -91697,-6705972 -91694,-6706034 -91704,-6706037 -91703,-6706051 -91712,-6706091 -91728,-6706172 -91734,-6706230 -91737,-6706248 -91744,-6706268 -91759,-6706295 -91765,-6706304 -91769,-6706308 -91775,-6706312 -91828,-6706341 -91843,-6706354 -91847,-6706358 -91844,-6706368 -91855,-6706381 -91865,-6706404 -91893,-6706460 -91931,-6706531 -91945,-6706568 -91964,-6706608 -91972,-6706607 -91996,-6706683 -92007,-6706727 -92017,-6706759 -92015,-6706797 -92020,-6706854 -92028,-6706911 -92002,-6706965 -91996,-6707013 -91994,-6707091 -92030,-6707139 -92046,-6707155 -92059,-6707171 -92074,-6707200 -92090,-6707233 -92111,-6707271 -92133,-6707304 -92167,-6707348 -92173,-6707358 -92179,-6707370 -92191,-6707399 -92204,-6707442 -92244,-6707609 -92299,-6707766 -92318,-6707801 -92320,-6707813 -92325,-6707846 -92326,-6707888 -92325,-6707907 -92323,-6707930 -92317,-6707973 -92307,-6708020 -92300,-6708042 -92243,-6708136 -92113,-6708293 -92094,-6708313 -92078,-6708338 -92043,-6708411 -92033,-6708430 -92012,-6708464 -92002,-6708485 -91972,-6708570 -91921,-6708691 -91912,-6708711 -91896,-6708743 -91871,-6708784 -91864,-6708794 -91789,-6708857 -91770,-6708881 -91760,-6708896 -91750,-6708914 -91735,-6708948 -91711,-6708996 -91697,-6709028 -91694,-6709034 -91630,-6709110 -91594,-6709146 -91543,-6709182 -91520,-6709194 -91555,-6709247 -91519,-6709424 -91453,-6709426 -91442,-6709499 -91438,-6709537 -91433,-6709565 -91417,-6709626 -91386,-6709714 -91280,-6709702 -91268,-6709551 -91251,-6709462 -91357,-6709445 -91331,-6709323 -91236,-6709343 -91119,-6709364 -91126,-6709463 -91065,-6709504 -90955,-6709581 -90978,-6709719 -91016,-6709707 -91026,-6709727 -91058,-6709768 -91063,-6709779 -91065,-6709798 -91070,-6709816 -91073,-6709823 -91090,-6709855 -91141,-6709864 -91135,-6709890 -91131,-6709928 -91131,-6709949 -91136,-6709978 -91136,-6709998 -91131,-6710026 -91121,-6710067 -91109,-6710123 -91089,-6710190 -91014,-6710412 -91005,-6710438 -90999,-6710474 -90987,-6710529 -90977,-6710577 -90963,-6710681 -90958,-6710728 -90958,-6710736 -90959,-6710772 -90963,-6710805 -90963,-6710862 -90966,-6710901 -90980,-6710991 -90982,-6711036 -90976,-6711059 -90973,-6711084 -90980,-6711207 -90994,-6711325 -91002,-6711358 -91021,-6711425 -91009,-6711465 -90991,-6711513 -90993,-6711524 -91025,-6711589 -91047,-6711627 -91117,-6711762 -91151,-6711813 -91166,-6711824 -91195,-6711862 -91305,-6711961 -91359,-6711997 -91393,-6712022 -91466,-6712088 -91506,-6712123 -91514,-6712132 -91560,-6712205 -91626,-6712325 -91677,-6712374 -91688,-6712389 -91702,-6712406 -91707,-6712413 -91709,-6712418 -91715,-6712436 -91718,-6712440 -91722,-6712443 -91727,-6712448 -91733,-6712450 -91739,-6712452 -91745,-6712452 -91755,-6712450 -91781,-6712443 -91803,-6712439 -91851,-6712434 -91892,-6712431 -91931,-6712430 -91974,-6712431 -92082,-6712441 -92095,-6712441 -92111,-6712440 -92158,-6712434 -92208,-6712433 -92267,-6712438 -92414,-6712460 -92464,-6712466 -92481,-6712467 -92516,-6712466 -92531,-6712467 -92549,-6712470 -92574,-6712478 -92606,-6712493 -92701,-6712518 -92739,-6712526 -92786,-6712529 -92821,-6712533 -92835,-6712533 -92839,-6712533 -92958,-6712515 -93017,-6712501 -93044,-6712491 -93056,-6712490 -93064,-6712491 -93075,-6712495 -93083,-6712499 -93091,-6712505 -93100,-6712516 -93114,-6712535 -93120,-6712546 -93131,-6712571 -93141,-6712585 -93161,-6712626 -93166,-6712634 -93177,-6712649 -93246,-6712731 -93251,-6712739 -93256,-6712747 -93286,-6712837 -93294,-6712852 -93302,-6712866 -93312,-6712879 -93386,-6712967 -93423,-6713052 -93426,-6713058 -93474,-6713088 -93497,-6713113 -93529,-6713143 -93678,-6713341 -93691,-6713368 -93744,-6713450 -93832,-6713572 -93874,-6713627 -93917,-6713683 -94040,-6713831 -94096,-6713909 -94188,-6714012 -94332,-6714166 -94358,-6714198 -94405,-6714270 -94430,-6714321 -94434,-6714335 -94456,-6714381 -94457,-6714382 -94468,-6714399 -94573,-6714528 -94629,-6714598 -94717,-6714638 -94732,-6714645 -94745,-6714653 -94761,-6714667 -94810,-6714711 -95056,-6714882 -95042,-6714921 -95029,-6714971 -95026,-6714991 -95024,-6715005 -95019,-6715025 -95018,-6715034 -95018,-6715040 -95022,-6715061 -95022,-6715068 -95016,-6715093 -94992,-6715166 -94978,-6715218 -94961,-6715264 -94955,-6715288 -94929,-6715336 -94921,-6715356 -94917,-6715371 -94911,-6715404 -94903,-6715435 -94890,-6715466 -94884,-6715477 -94876,-6715491 -94867,-6715506 -94855,-6715519 -94827,-6715549 -94787,-6715598 -94769,-6715617 -94757,-6715629 -94726,-6715653 -94696,-6715682 -94683,-6715696 -94673,-6715709 -94660,-6715726 -94649,-6715744 -94636,-6715766 -94595,-6715865 -94569,-6715912 -94530,-6715939 -94499,-6715964 -94462,-6715991 -94403,-6716040 -94387,-6716049 -94382,-6716044 -94279,-6716131 -94267,-6716144 -94251,-6716167 -94236,-6716191 -94208,-6716241 -94189,-6716311 -94181,-6716347 -94173,-6716384 -94171,-6716405 -94176,-6716495 -94177,-6716500 -94201,-6716601 -94197,-6716657 -94185,-6716718 -94170,-6716775 -94165,-6716796 -94141,-6716835 -94120,-6716878 -94105,-6716924 -94100,-6716941 -94095,-6716956 -94089,-6716968 -94073,-6716998 -94063,-6717017 -94030,-6717072 -94017,-6717120 -93960,-6717292 -93936,-6717384 -93892,-6717561 -93855,-6717702 -93835,-6717801 -93815,-6717899 -93811,-6717929 -93808,-6718010 -93813,-6718093 -93811,-6718119 -93815,-6718152 -93813,-6718226 -93760,-6718237 -93717,-6718247 -93650,-6718272 -93639,-6718278 -93623,-6718287 -93611,-6718295 -93588,-6718315 -93519,-6718390 -93456,-6718459 -93399,-6718526 -93337,-6718593 -93320,-6718603 -93309,-6718608 -93295,-6718614 -93280,-6718619 -93268,-6718622 -93246,-6718624 -93240,-6718625 -93143,-6718616 -93055,-6718592 -93034,-6718581 -93024,-6718574 -93016,-6718566 -92984,-6718526 -92960,-6718484 -92946,-6718470 -92921,-6718444 -92908,-6718433 -92873,-6718406 -92845,-6718388 -92816,-6718373 -92793,-6718362 -92699,-6718330 -92678,-6718328 -92665,-6718330 -92653,-6718333 -92644,-6718337 -92633,-6718343 -92577,-6718387 -92562,-6718394 -92546,-6718398 -92537,-6718399 -92519,-6718398 -92353,-6718367 -92290,-6718375 -92271,-6718382 -92258,-6718389 -92241,-6718403 -92195,-6718457 -92159,-6718519 -92123,-6718601 -92093,-6718702 -92080,-6718754 -92070,-6718808 -92066,-6718826 -92039,-6718909 -92034,-6718921 -92025,-6718944 -92015,-6718966 -92002,-6718993 -91989,-6719018 -91966,-6719053 -91939,-6719089 -91923,-6719107 -91907,-6719125 -91873,-6719157 -91864,-6719165 -91826,-6719195 -91744,-6719251 -91651,-6719277 -91606,-6719283 -91322,-6719298 -91274,-6719304 -91226,-6719312 -91129,-6719324 -91036,-6719329 -90970,-6719336 -90939,-6719341 -90658,-6719472 -90624,-6719486 -90608,-6719491 -90521,-6719514 -90492,-6719520 -90470,-6719527 -90432,-6719542 -90398,-6719560 -90294,-6719623 -90267,-6719635 -90249,-6719641 -90226,-6719647 -90192,-6719653 -90122,-6719654 -90095,-6719651 -90022,-6719642 -90011,-6719644 -89919,-6719657 -89855,-6719660 -89849,-6719659 -89828,-6719655 -89732,-6719622 -89668,-6719597 -89647,-6719590 -89622,-6719575 -89593,-6719570 -89573,-6719563 -89552,-6719556 -89464,-6719522 -89419,-6719508 -89229,-6719471 -89083,-6719451 -88988,-6719443 -88802,-6719433 -88733,-6719430 -88547,-6719374 -88504,-6719370 -88440,-6719372 -88407,-6719377 -88362,-6719385 -88318,-6719395 -88272,-6719408 -88070,-6719657 -88050,-6719673 -88041,-6719681 -87989,-6719711 -87841,-6719762 -87738,-6719795 -87634,-6719825 -87604,-6719838 -87585,-6719849 -87566,-6719862 -87541,-6719883 -87474,-6719952 -87439,-6719985 -87403,-6720019 -87366,-6720052 -87328,-6720084 -87254,-6720130 -87228,-6720151 -87203,-6720172 -87129,-6720245 -87109,-6720269 -87099,-6720283 -87077,-6720316 -87069,-6720331 -87061,-6720346 -86983,-6720517 -86950,-6720591 -86914,-6720689 -86850,-6720805 -86757,-6720983 -86684,-6721207 -86673,-6721252 -86646,-6721387 -86624,-6721480 -86602,-6721563 -86589,-6721615 -86579,-6721658 -86508,-6721845 -86449,-6721960 -86426,-6722003 -86412,-6722024 -86399,-6722042 -86369,-6722075 -86345,-6722098 -86329,-6722110 -86304,-6722129 -86277,-6722152 -86178,-6722211 -86128,-6722240 -86075,-6722264 -86065,-6722269 -86050,-6722275 -86013,-6722292 -85933,-6722335 -85904,-6722348 -85881,-6722356 -85859,-6722362 -85818,-6722370 -85817,-6722346 -85816,-6722338 -85809,-6722311 -85797,-6722273 -85782,-6722235 -85765,-6722200 -85753,-6722180 -85739,-6722157 -85725,-6722138 -85720,-6722134 -85654,-6722071 -85636,-6722055 -85616,-6722040 -85598,-6722027 -85582,-6722016 -85566,-6722009 -85551,-6722001 -85534,-6721996 -85518,-6721991 -85504,-6721988 -85490,-6721987 -85473,-6721987 -85457,-6721988 -85440,-6721991 -85416,-6721997 -85367,-6722011 -85341,-6722020 -85230,-6722070 -85199,-6722083 -85167,-6722089 -85134,-6722099 -85027,-6722108 -84990,-6722107 -84978,-6722106 -84962,-6722104 -84943,-6722105 -84841,-6722088 -84740,-6722053 -84637,-6722006 -84616,-6721995 -84603,-6721987 -84579,-6721971 -84554,-6721954 -84531,-6721936 -84490,-6721900 -84468,-6721883 -84430,-6721857 -84387,-6721833 -84363,-6721823 -84351,-6721820 -84339,-6721818 -84320,-6721818 -84292,-6721823 -84262,-6721833 -84249,-6721839 -84236,-6721846 -84227,-6721852 -84212,-6721863 -84181,-6721887 -84138,-6721926 -84042,-6722026 -84010,-6722056 -83968,-6722091 -83919,-6722126 -83890,-6722143 -83839,-6722169 -83757,-6722219 -83614,-6722293 -83555,-6722325 -83510,-6722351 -83459,-6722382 -83435,-6722399 -83413,-6722415 -83392,-6722433 -83359,-6722461 -83311,-6722517 -83303,-6722526 -83267,-6722557 -83230,-6722586 -83214,-6722600 -83171,-6722650 -83127,-6722706 -83103,-6722734 -83085,-6722752 -83066,-6722771 -83000,-6722831 -82972,-6722856 -82947,-6722875 -82905,-6722899 -82885,-6722909 -82831,-6722935 -82733,-6722974 -82654,-6723003 -82587,-6723024 -82501,-6723052 -82480,-6723060 -82468,-6723066 -82455,-6723074 -82447,-6723081 -82424,-6723102 -82406,-6723124 -82368,-6723189 -82351,-6723216 -82335,-6723240 -82316,-6723264 -82299,-6723286 -82283,-6723304 -82267,-6723321 -82238,-6723349 -82185,-6723390 -82123,-6723435 -82077,-6723463 -82047,-6723478 -81971,-6723510 -81764,-6723588 -81737,-6723599 -81710,-6723612 -81681,-6723628 -81653,-6723645 -81625,-6723663 -81559,-6723713 -81474,-6723782 -81428,-6723816 -81397,-6723837 -81375,-6723852 -81273,-6723909 -81135,-6723982 -81104,-6724000 -81067,-6724022 -81025,-6724043 -80980,-6724060 -80958,-6724066 -80924,-6724074 -80591,-6724135 -80528,-6724144 -80475,-6724148 -80445,-6724147 -80434,-6724147 -80343,-6724139 -80136,-6724135 -80083,-6724130 -80032,-6724123 -79988,-6724114 -79964,-6724107 -79938,-6724098 -79912,-6724088 -79889,-6724078 -79865,-6724067 -79828,-6724048 -79805,-6724034 -79782,-6724024 -79763,-6724015 -79744,-6724004 -79729,-6723993 -79713,-6723982 -79700,-6723971 -79688,-6723959 -79674,-6723943 -79660,-6723927 -79645,-6723905 -79598,-6723827 -79573,-6723782 -79543,-6723726 -79529,-6723698 -79501,-6723642 -79472,-6723593 -79436,-6723527 -79420,-6723493 -79388,-6723425 -79374,-6723390 -79352,-6723333 -79329,-6723273 -79314,-6723229 -79288,-6723146 -79273,-6723089 -79264,-6723057 -79254,-6723012 -79245,-6722969 -79240,-6722938 -79236,-6722907 -79233,-6722865 -79231,-6722824 -79230,-6722774 -79228,-6722724 -79222,-6722679 -79204,-6722590 -79199,-6722553 -79197,-6722509 -79199,-6722463 -79204,-6722426 -79211,-6722391 -79219,-6722364 -79244,-6722244 -79257,-6722201 -79263,-6722175 -79270,-6722140 -79275,-6722112 -79280,-6722065 -79282,-6722030 -79282,-6721994 -79280,-6721939 -79279,-6721927 -79276,-6721908 -79272,-6721893 -79266,-6721873 -79258,-6721850 -79250,-6721833 -79242,-6721819 -79234,-6721806 -79223,-6721791 -79170,-6721729" stroke="#006747" stroke-width="71" /></ns0:svg>    <rect x="20" y="50"  width="250" height="25"  rx="0"  fill="#006747" fill-opacity="0.8" />    <text x="145" y="70" text-anchor="middle" font-family="Frutiger" font-weight="bold" font-size="20" fill="white">Windsor and Maidenhead</text>    <rect x="35" y="195" width="220" height="160" rx="15" fill="#78BE20"/>    <g font-family="Frutiger" font-size="15" fill="#231F20">        <g> <text x="45" y="218">Self-harm</text> <text x="245" y="218" text-anchor="end">36</text> </g>        <g> <text x="45" y="243">SEN</text> <text x="245" y="243" text-anchor="end">47</text> </g>        <g> <text x="45" y="268">Difficulties</text> <text x="245" y="268" text-anchor="end">73</text> </g>        <g> <text x="45" y="293">Child Carer</text> <text x="245" y="293" text-anchor="end">12</text> </g>        <g> <text x="45" y="318">Drinkers</text> <text x="245" y="318" text-anchor="end">42</text> </g>        <g> <text x="45" y="343">Safeguarding </text> <text x="245" y="343" text-anchor="end">16</text> </g>    </g></svg>