<?xml version="1.0" standalone="no"?>
<!DOCTYPE svg PUBLIC "-//W3C//DTD SVG 1.1//EN"
"http://www.w3.org/Graphics/SVG/1.1/DTD/svg11.dtd">
<svg height="1800" version="1.1" width="1800" xmlns="http://www.w3.org/2000/svg"><defs><style type="text/css">@font-face {font-family: 'Frutiger';font-style: normal;font-weight: normal;src: local('Frutiger'), url('../fonts/Frutiger.woff') format('woff');}@font-face {font-family: 'Frutiger Bold';font-style: normal;font-weight: normal;src: local('Frutiger Bold'), url('../fonts/Frutiger_bold.woff') format('woff');}        </style>    </defs>    <rect x="20" y="20"  width="250" height="350" rx="15" fill="#AE2573" />    <rect x="35" y="35"  width="220" height="145" rx="15" fill="#330072" /><ns0:svg xmlns:ns0="http://www.w3.org/2000/svg" height="115" version="1.1" viewBox="-32518 -7102309 35890 38708" width="220" x="35" y="50"><ns0:polygon fill="white" points=" -22292,-7102038 -22300,-7102013 -22275,-7102014 -22259,-7102013 -22250,-7102008 -22212,-7101959 -22145,-7101890 -22093,-7101840 -22025,-7101785 -21985,-7101753 -21950,-7101729 -21905,-7101704 -21877,-7101688 -21850,-7101672 -21814,-7101651 -21775,-7101632 -21749,-7101619 -21725,-7101601 -21695,-7101562 -21634,-7101494 -21596,-7101448 -21560,-7101410 -21535,-7101386 -21520,-7101369 -21509,-7101355 -21502,-7101339 -21428,-7101288 -21410,-7101312 -21402,-7101303 -21414,-7101281 -21370,-7101246 -21362,-7101260 -21373,-7101269 -21364,-7101280 -21329,-7101253 -21335,-7101244 -21349,-7101252 -21355,-7101240 -21313,-7101209 -21293,-7101231 -21292,-7101231 -21283,-7101223 -21297,-7101198 -21247,-7101168 -21234,-7101177 -21229,-7101177 -21214,-7101173 -21163,-7101140 -21006,-7101038 -20993,-7101029 -20978,-7101015 -20966,-7101003 -20955,-7100990 -20943,-7100973 -20935,-7100960 -20928,-7100947 -20921,-7100929 -20915,-7100912 -20911,-7100895 -20908,-7100877 -20906,-7100858 -20906,-7100849 -20915,-7100732 -20921,-7100579 -20928,-7100575 -20929,-7100551 -20946,-7100520 -20930,-7100500 -20908,-7100494 -20887,-7100521 -20871,-7100526 -20821,-7100545 -20792,-7100553 -20629,-7100614 -20602,-7100615 -20576,-7100611 -20484,-7100606 -20459,-7100602 -20374,-7100566 -20346,-7100549 -20279,-7100503 -20232,-7100460 -20221,-7100450 -20188,-7100425 -20144,-7100397 -20117,-7100375 -20104,-7100361 -20098,-7100353 -19984,-7100207 -19889,-7100083 -19858,-7100046 -19833,-7100018 -19765,-7099948 -19725,-7099908 -19703,-7099887 -19680,-7099866 -19538,-7099744 -19471,-7099691 -19410,-7099636 -19376,-7099612 -19358,-7099594 -19342,-7099590 -19274,-7099530 -19223,-7099499 -19211,-7099492 -19191,-7099476 -19153,-7099438 -19069,-7099362 -19047,-7099345 -18890,-7099253 -18787,-7099184 -18536,-7099032 -18502,-7099010 -18468,-7098988 -18410,-7098947 -18325,-7098883 -18175,-7098761 -18017,-7098641 -17954,-7098591 -17885,-7098532 -17820,-7098469 -17732,-7098387 -17639,-7098281 -17563,-7098203 -17569,-7098170 -17539,-7098139 -17464,-7098066 -17431,-7098038 -17403,-7098018 -17268,-7097923 -17182,-7097860 -17077,-7097786 -16994,-7097717 -16976,-7097701 -16963,-7097688 -16953,-7097675 -16940,-7097657 -16935,-7097647 -16892,-7097563 -16883,-7097551 -16844,-7097513 -16819,-7097492 -16741,-7097410 -16614,-7097282 -16568,-7097237 -16512,-7097175 -16412,-7097089 -16315,-7097009 -16151,-7096869 -16052,-7096797 -16029,-7096778 -15948,-7096710 -15865,-7096643 -15833,-7096620 -15818,-7096611 -15780,-7096593 -15767,-7096586 -15757,-7096579 -15750,-7096573 -15657,-7096462 -15591,-7096401 -15575,-7096387 -15522,-7096344 -15490,-7096321 -15475,-7096307 -15464,-7096295 -15450,-7096277 -15440,-7096262 -15415,-7096218 -15405,-7096205 -15395,-7096193 -15384,-7096182 -15372,-7096171 -15360,-7096163 -15333,-7096151 -15320,-7096142 -15297,-7096122 -15290,-7096114 -15256,-7096061 -15247,-7096050 -15227,-7096025 -15193,-7095989 -15178,-7095977 -15165,-7095970 -15124,-7095950 -15097,-7095933 -14996,-7095860 -14733,-7095678 -14563,-7095562 -14294,-7095386 -14157,-7095297 -14009,-7095206 -13872,-7095115 -13755,-7095040 -13594,-7094948 -13534,-7094912 -13406,-7094829 -13338,-7094787 -13313,-7094772 -13181,-7094681 -13077,-7094608 -13047,-7094593 -12997,-7094537 -12946,-7094497 -12905,-7094462 -12877,-7094441 -12834,-7094412 -12724,-7094343 -12664,-7094311 -12634,-7094292 -12608,-7094278 -12594,-7094273 -12584,-7094270 -12569,-7094268 -12555,-7094267 -12540,-7094268 -12524,-7094260 -12519,-7094255 -12514,-7094251 -12498,-7094232 -12490,-7094224 -12482,-7094216 -12470,-7094207 -12434,-7094181 -12359,-7094124 -12086,-7093945 -11941,-7093867 -11766,-7093762 -11707,-7093730 -11689,-7093716 -11687,-7093713 -11687,-7093709 -11690,-7093696 -11691,-7093686 -11687,-7093675 -11680,-7093667 -11674,-7093664 -11669,-7093662 -11663,-7093662 -11654,-7093665 -11626,-7093664 -11620,-7093662 -11603,-7093652 -11576,-7093637 -11373,-7093539 -11220,-7093462 -11195,-7093449 -11176,-7093437 -11164,-7093428 -11150,-7093416 -11144,-7093407 -11139,-7093394 -11137,-7093386 -11135,-7093373 -11135,-7093362 -11141,-7093320 -11141,-7093320 -11136,-7093319 -11122,-7093328 -11098,-7093350 -11081,-7093354 -11013,-7093306 -10931,-7093260 -10885,-7093230 -10709,-7093133 -10590,-7093048 -10494,-7092982 -10421,-7092935 -10221,-7092797 -10162,-7092762 -10123,-7092737 -10098,-7092722 -10000,-7092669 -9904,-7092623 -9818,-7092584 -9671,-7092520 -9599,-7092488 -9567,-7092475 -9354,-7092402 -9256,-7092368 -9130,-7092324 -8934,-7092262 -8918,-7092256 -8725,-7092208 -8724,-7092208 -8647,-7092190 -8590,-7092178 -8405,-7092139 -8229,-7092107 -8121,-7092091 -7962,-7092057 -7886,-7092058 -7819,-7092070 -7672,-7092058 -7499,-7092044 -7499,-7092043 -7501,-7092027 -7694,-7092042 -7699,-7092039 -7718,-7092023 -7723,-7092016 -7726,-7092009 -7727,-7092002 -7726,-7091995 -7724,-7091992 -7713,-7091972 -7710,-7091959 -7711,-7091952 -7744,-7091896 -7757,-7091877 -7762,-7091866 -7768,-7091856 -7777,-7091842 -7785,-7091834 -7792,-7091828 -7798,-7091825 -7806,-7091821 -7818,-7091818 -7830,-7091817 -7838,-7091818 -7846,-7091820 -7867,-7091833 -7875,-7091834 -7879,-7091833 -7883,-7091832 -7900,-7091812 -7914,-7091804 -7882,-7091746 -7876,-7091738 -7846,-7091688 -7845,-7091683 -7844,-7091673 -7845,-7091668 -7859,-7091642 -7844,-7091641 -7834,-7091627 -7816,-7091649 -7786,-7091628 -7791,-7091617 -7775,-7091608 -7760,-7091627 -7657,-7091641 -7655,-7091655 -7628,-7091659 -7553,-7091766 -7537,-7091779 -7528,-7091789 -7521,-7091799 -7517,-7091807 -7513,-7091817 -7510,-7091828 -7509,-7091842 -7508,-7091857 -7509,-7091872 -7513,-7091877 -7516,-7091885 -7512,-7091890 -7504,-7091891 -7495,-7091885 -7431,-7091815 -7429,-7091811 -7429,-7091800 -7422,-7091794 -7420,-7091788 -7415,-7091735 -7406,-7091719 -7379,-7091692 -7375,-7091697 -7367,-7091698 -7361,-7091693 -7400,-7091625 -7413,-7091597 -7425,-7091536 -7430,-7091519 -7428,-7091519 -7414,-7091517 -7409,-7091530 -7408,-7091540 -7405,-7091548 -7391,-7091571 -7382,-7091581 -7372,-7091593 -7357,-7091608 -7349,-7091615 -7340,-7091621 -7331,-7091620 -7316,-7091539 -7314,-7091513 -7295,-7091511 -7293,-7091511 -7292,-7091527 -7291,-7091541 -7291,-7091553 -7289,-7091560 -7284,-7091568 -7226,-7091629 -7140,-7091725 -7134,-7091727 -7120,-7091728 -7107,-7091739 -7080,-7091751 -7062,-7091759 -7038,-7091766 -7008,-7091770 -6995,-7091769 -6985,-7091767 -6906,-7091742 -6817,-7091709 -6708,-7091663 -6644,-7091634 -6576,-7091599 -6502,-7091564 -6291,-7091476 -6134,-7091417 -6082,-7091396 -6036,-7091379 -6026,-7091375 -6017,-7091372 -6009,-7091371 -5998,-7091371 -5971,-7091373 -5931,-7091369 -5831,-7091364 -5817,-7091360 -5798,-7091355 -5777,-7091341 -5754,-7091316 -5724,-7091297 -5721,-7091291 -5720,-7091288 -5720,-7091283 -5749,-7091279 -5764,-7091279 -5812,-7091280 -5835,-7091279 -5842,-7091276 -5844,-7091274 -5845,-7091269 -5843,-7091267 -5829,-7091262 -5815,-7091258 -5808,-7091258 -5792,-7091259 -5732,-7091234 -5699,-7091223 -5674,-7091206 -5663,-7091202 -5656,-7091201 -5647,-7091200 -5619,-7091218 -5607,-7091216 -5517,-7091174 -5366,-7091097 -5344,-7091086 -5217,-7091006 -5167,-7090973 -5050,-7090895 -4943,-7090819 -4839,-7090744 -4725,-7090661 -4634,-7090601 -4591,-7090575 -4493,-7090518 -4425,-7090463 -4360,-7090413 -4277,-7090345 -4238,-7090299 -4226,-7090284 -4185,-7090258 -4113,-7090219 -4031,-7090179 -3957,-7090131 -3899,-7090099 -3838,-7090082 -3792,-7090071 -3748,-7090077 -3721,-7090102 -3690,-7090086 -3666,-7090075 -3621,-7090078 -3594,-7090084 -3555,-7090067 -3525,-7090040 -3501,-7090028 -3484,-7090023 -3465,-7090004 -3412,-7089973 -3380,-7089976 -3327,-7089968 -3266,-7089949 -3212,-7089930 -3181,-7089922 -3148,-7089917 -3079,-7089902 -2963,-7089870 -2876,-7089839 -2748,-7089787 -2622,-7089744 -2531,-7089700 -2466,-7089674 -2383,-7089654 -2297,-7089642 -2236,-7089643 -2148,-7089625 -2085,-7089615 -2061,-7089603 -2038,-7089580 -2019,-7089553 -2006,-7089522 -1978,-7089506 -1933,-7089480 -1883,-7089453 -1833,-7089425 -1793,-7089386 -1758,-7089357 -1745,-7089347 -1687,-7089304 -1634,-7089256 -1593,-7089213 -1568,-7089191 -1544,-7089183 -1530,-7089194 -1540,-7089229 -1553,-7089245 -1589,-7089273 -1641,-7089314 -1684,-7089346 -1723,-7089378 -1733,-7089398 -1733,-7089413 -1719,-7089415 -1682,-7089405 -1642,-7089371 -1588,-7089341 -1542,-7089313 -1497,-7089283 -1458,-7089256 -1443,-7089233 -1440,-7089213 -1440,-7089194 -1441,-7089163 -1411,-7089120 -1375,-7089084 -1336,-7089052 -1306,-7089031 -1276,-7089004 -1263,-7088988 -1264,-7088964 -1278,-7088956 -1309,-7088953 -1316,-7088955 -1328,-7088957 -1374,-7088958 -1394,-7088963 -1438,-7088974 -1451,-7088979 -1471,-7088998 -1481,-7089017 -1487,-7089034 -1496,-7089049 -1502,-7089057 -1517,-7089062 -1529,-7089061 -1545,-7089049 -1554,-7089036 -1562,-7089027 -1573,-7089019 -1584,-7089019 -1601,-7089025 -1624,-7089035 -1648,-7089041 -1654,-7089032 -1653,-7089005 -1648,-7088981 -1643,-7088969 -1636,-7088956 -1618,-7088926 -1606,-7088896 -1589,-7088860 -1585,-7088845 -1580,-7088822 -1546,-7088780 -1539,-7088762 -1528,-7088724 -1521,-7088707 -1525,-7088692 -1496,-7088659 -1457,-7088582 -1444,-7088540 -1418,-7088495 -1374,-7088416 -1336,-7088339 -1292,-7088262 -1242,-7088179 -1205,-7088118 -1166,-7088066 -1132,-7088030 -1100,-7088005 -1070,-7087992 -1038,-7087984 -1030,-7087977 -1029,-7087971 -1037,-7087954 -1046,-7087942 -1063,-7087918 -1069,-7087903 -1091,-7087874 -1097,-7087860 -1094,-7087845 -1071,-7087825 -1047,-7087813 -1024,-7087803 -1004,-7087802 -989,-7087802 -981,-7087798 -969,-7087786 -964,-7087761 -961,-7087736 -963,-7087722 -963,-7087690 -972,-7087647 -977,-7087597 -980,-7087556 -994,-7087510 -996,-7087490 -994,-7087459 -992,-7087441 -988,-7087405 -972,-7087369 -951,-7087326 -941,-7087298 -933,-7087275 -897,-7087223 -882,-7087200 -866,-7087171 -862,-7087157 -850,-7087148 -833,-7087129 -810,-7087094 -799,-7087078 -787,-7087064 -765,-7087046 -749,-7087023 -725,-7086993 -713,-7086979 -682,-7086941 -637,-7086898 -591,-7086858 -578,-7086844 -566,-7086829 -534,-7086810 -509,-7086785 -486,-7086771 -425,-7086740 -351,-7086700 -307,-7086669 -289,-7086659 -245,-7086633 -177,-7086584 -120,-7086546 -88,-7086529 -47,-7086507 -12,-7086493 11,-7086480 54,-7086454 149,-7086392 196,-7086362 232,-7086339 257,-7086323 287,-7086308 322,-7086295 339,-7086288 376,-7086256 419,-7086223 461,-7086192 479,-7086179 505,-7086168 573,-7086130 625,-7086099 650,-7086083 670,-7086070 702,-7086043 745,-7086013 796,-7085983 838,-7085957 864,-7085946 914,-7085921 935,-7085910 1000,-7085879 1066,-7085843 1098,-7085825 1114,-7085811 1121,-7085760 1134,-7085733 1158,-7085715 1163,-7085669 1188,-7085622 1187,-7085598 1176,-7085583 1137,-7085582 1098,-7085598 1046,-7085623 1009,-7085620 1001,-7085624 990,-7085647 978,-7085685 946,-7085722 924,-7085734 883,-7085741 856,-7085743 839,-7085739 840,-7085725 852,-7085712 886,-7085696 962,-7085638 1081,-7085561 1141,-7085522 1309,-7085395 1331,-7085385 1334,-7085408 1325,-7085416 1317,-7085458 1329,-7085473 1346,-7085463 1399,-7085387 1418,-7085385 1612,-7085452 1621,-7085427 1620,-7085330 1625,-7085246 1638,-7085178 1663,-7085127 1680,-7085091 1720,-7085060 1749,-7085029 1760,-7085005 1771,-7084975 1780,-7084951 1789,-7084926 1809,-7084896 1829,-7084873 1843,-7084850 1855,-7084828 1861,-7084799 1872,-7084722 1880,-7084687 1895,-7084634 1901,-7084619 1906,-7084593 1921,-7084567 1930,-7084545 1932,-7084525 1940,-7084498 1949,-7084457 1956,-7084438 1967,-7084417 1972,-7084402 1997,-7084371 2002,-7084355 2010,-7084339 2019,-7084319 2025,-7084296 2033,-7084283 2045,-7084279 2057,-7084283 2062,-7084290 2072,-7084294 2079,-7084287 2113,-7084244 2161,-7084180 2192,-7084138 2214,-7084087 2224,-7084057 2229,-7084040 2239,-7084029 2245,-7084030 2247,-7084035 2252,-7084044 2258,-7084046 2260,-7084053 2269,-7084059 2278,-7084050 2291,-7084039 2295,-7084026 2300,-7084016 2323,-7083985 2354,-7083949 2373,-7083920 2420,-7083847 2444,-7083807 2472,-7083760 2520,-7083690 2558,-7083631 2574,-7083605 2585,-7083597 2592,-7083576 2623,-7083534 2674,-7083465 2718,-7083418 2759,-7083373 2788,-7083339 2808,-7083312 2824,-7083294 2861,-7083270 2883,-7083242 2920,-7083188 2954,-7083149 3010,-7083094 3071,-7083026 3120,-7082979 3144,-7082950 3168,-7082904 3218,-7082797 3246,-7082733 3264,-7082686 3286,-7082639 3299,-7082609 3313,-7082590 3325,-7082582 3353,-7082573 3372,-7082560 3261,-7082412 3031,-7082117 2909,-7081955 2818,-7081836 2754,-7081759 2560,-7081509 2445,-7081365 2365,-7081262 2223,-7081073 2163,-7080990 2125,-7080939 2099,-7080901 2091,-7080892 2082,-7080883 2053,-7080857 2005,-7080828 1972,-7080804 1922,-7080772 1830,-7080708 1775,-7080673 1758,-7080662 1725,-7080639 1646,-7080586 1535,-7080514 1445,-7080449 1422,-7080410 1417,-7080402 1395,-7080404 1386,-7080400 1380,-7080389 1377,-7080379 1372,-7080338 1334,-7080293 1315,-7080265 1280,-7080230 1279,-7080217 1290,-7080208 1305,-7080201 1319,-7080192 1332,-7080183 1336,-7080180 1334,-7080168 1333,-7080161 1329,-7080156 1325,-7080154 1320,-7080153 1309,-7080152 1287,-7080152 1270,-7080149 1257,-7080142 1246,-7080128 1241,-7080118 1223,-7080083 1195,-7080052 1188,-7080047 1182,-7080044 1137,-7080015 1134,-7080013 1103,-7079990 1074,-7079961 1054,-7079948 1029,-7079945 1001,-7079944 998,-7079944 971,-7079922 949,-7079899 938,-7079894 929,-7079894 916,-7079899 904,-7079904 896,-7079909 867,-7079912 860,-7079911 848,-7079906 840,-7079901 832,-7079887 826,-7079872 815,-7079859 798,-7079843 762,-7079817 722,-7079787 654,-7079738 597,-7079708 528,-7079678 354,-7079613 259,-7079578 105,-7079519 -227,-7079392 -431,-7079315 -549,-7079272 -625,-7079242 -709,-7079213 -742,-7079206 -764,-7079199 -781,-7079190 -809,-7079176 -827,-7079169 -848,-7079166 -870,-7079165 -948,-7079162 -977,-7079147 -987,-7079148 -1001,-7079149 -1020,-7079150 -1049,-7079145 -1072,-7079146 -1125,-7079164 -1197,-7079160 -1287,-7079156 -1504,-7079137 -1510,-7079133 -1523,-7079125 -1535,-7079117 -1572,-7079068 -1576,-7079058 -1577,-7079035 -1578,-7078971 -1622,-7078908 -1647,-7078901 -1748,-7078876 -1863,-7078857 -1940,-7078845 -1976,-7078929 -2033,-7079060 -2081,-7079168 -2131,-7079284 -2176,-7079390 -2389,-7079353 -2446,-7079328 -2481,-7079318 -2501,-7079311 -2517,-7079301 -2573,-7079243 -2586,-7079227 -2589,-7079224 -2617,-7079189 -2640,-7079169 -2647,-7079163 -2668,-7079153 -2698,-7079190 -2728,-7079198 -2747,-7079214 -2759,-7079225 -2765,-7079224 -2794,-7079220 -2814,-7079217 -2848,-7079235 -2884,-7079238 -2918,-7079248 -2931,-7079246 -2961,-7079242 -2981,-7079232 -3006,-7079229 -3019,-7079225 -3027,-7079215 -3030,-7079214 -3036,-7079211 -3046,-7079209 -3056,-7079216 -3063,-7079227 -3067,-7079234 -3073,-7079240 -3081,-7079244 -3089,-7079244 -3103,-7079245 -3116,-7079244 -3130,-7079240 -3138,-7079241 -3149,-7079242 -3167,-7079254 -3179,-7079264 -3188,-7079270 -3242,-7079248 -3322,-7079212 -3337,-7079195 -3374,-7079185 -3529,-7079136 -3582,-7079126 -3608,-7079114 -3623,-7079115 -3649,-7079113 -3688,-7079077 -3698,-7079067 -3701,-7079050 -3691,-7079020 -3689,-7079012 -3686,-7078996 -3684,-7078976 -3684,-7078966 -3685,-7078943 -3688,-7078920 -3685,-7078905 -3721,-7078881 -3748,-7078868 -3757,-7078861 -3773,-7078846 -3827,-7078815 -3837,-7078808 -3855,-7078790 -3863,-7078781 -3893,-7078739 -3908,-7078725 -3945,-7078686 -3956,-7078677 -3965,-7078673 -3971,-7078670 -4010,-7078656 -4015,-7078653 -4022,-7078650 -4046,-7078645 -4065,-7078647 -4099,-7078655 -4139,-7078657 -4175,-7078648 -4214,-7078635 -4222,-7078632 -4234,-7078626 -4245,-7078618 -4255,-7078609 -4264,-7078598 -4269,-7078592 -4289,-7078556 -4304,-7078532 -4321,-7078535 -4352,-7078520 -4408,-7078480 -4411,-7078482 -4424,-7078490 -4480,-7078609 -4554,-7078780 -4562,-7078799 -4571,-7078824 -4583,-7078852 -4596,-7078887 -4603,-7078919 -4608,-7078960 -4618,-7078996 -4626,-7079035 -4634,-7079062 -4647,-7079070 -4673,-7079070 -4691,-7079064 -4707,-7079068 -4716,-7079074 -4731,-7079116 -4741,-7079151 -4755,-7079192 -4772,-7079231 -4798,-7079258 -4805,-7079266 -4809,-7079274 -4844,-7079380 -4885,-7079439 -4887,-7079455 -4882,-7079468 -4919,-7079513 -4944,-7079546 -5012,-7079625 -5030,-7079642 -5085,-7079690 -5113,-7079716 -5188,-7079787 -5209,-7079774 -5224,-7079766 -5312,-7079716 -5331,-7079707 -5367,-7079692 -5401,-7079677 -5445,-7079671 -5522,-7079669 -5541,-7079673 -5553,-7079676 -5567,-7079729 -5614,-7079741 -5672,-7079738 -5764,-7079739 -5836,-7079736 -5868,-7079736 -6015,-7079733 -6040,-7079732 -6090,-7079726 -6107,-7079736 -6113,-7079739 -6214,-7079700 -6246,-7079689 -6305,-7079755 -6423,-7079692 -6438,-7079729 -6445,-7079749 -6450,-7079758 -6460,-7079764 -6487,-7079766 -6501,-7079764 -6532,-7079759 -6583,-7079747 -6602,-7079743 -6699,-7079726 -6739,-7079722 -6804,-7079703 -6846,-7079688 -6900,-7079663 -6958,-7079633 -7033,-7079604 -7201,-7079553 -7240,-7079533 -7267,-7079504 -7325,-7079410 -7340,-7079383 -7355,-7079349 -7371,-7079321 -7414,-7079265 -7446,-7079217 -7457,-7079199 -7469,-7079177 -7515,-7079062 -7521,-7079030 -7528,-7079012 -7524,-7078947 -7512,-7078868 -7512,-7078832 -7506,-7078771 -7504,-7078737 -7504,-7078723 -7505,-7078710 -7512,-7078667 -7522,-7078621 -7532,-7078605 -7605,-7078535 -7615,-7078517 -7623,-7078465 -7627,-7078403 -7641,-7078299 -7648,-7078233 -7640,-7078225 -7644,-7078158 -7653,-7078134 -7664,-7078115 -7674,-7078053 -7686,-7077995 -7705,-7077897 -7727,-7077815 -7733,-7077786 -7744,-7077732 -7798,-7077507 -7808,-7077454 -7817,-7077393 -7825,-7077329 -7845,-7077195 -7864,-7077118 -7868,-7077100 -7878,-7077006 -7913,-7076905 -7925,-7076805 -7941,-7076726 -7951,-7076693 -7956,-7076674 -7964,-7076634 -7973,-7076566 -7977,-7076502 -7981,-7076463 -7987,-7076416 -7991,-7076385 -8014,-7076266 -8025,-7076202 -8034,-7076159 -8046,-7076111 -8071,-7076026 -8080,-7075992 -8083,-7075977 -8088,-7075941 -8092,-7075882 -8096,-7075854 -8109,-7075802 -8124,-7075750 -8144,-7075592 -8157,-7075533 -8170,-7075472 -8172,-7075453 -8172,-7075419 -8165,-7075357 -8165,-7075249 -8164,-7075198 -8170,-7075146 -8177,-7075102 -8196,-7075061 -8207,-7075019 -8210,-7075011 -8218,-7074998 -8222,-7074974 -8240,-7074901 -8291,-7074639 -8299,-7074577 -8313,-7074519 -8335,-7074416 -8341,-7074372 -8349,-7074320 -8358,-7074249 -8360,-7074210 -8365,-7074192 -8370,-7074187 -8377,-7074186 -8383,-7074148 -8384,-7074122 -8386,-7074103 -8381,-7074085 -8379,-7074075 -8378,-7074064 -8379,-7074045 -8378,-7074029 -8409,-7074035 -8431,-7074034 -8466,-7074038 -8477,-7074038 -8500,-7074034 -8527,-7074026 -8549,-7074018 -8570,-7074013 -8580,-7074018 -8590,-7074053 -8590,-7074059 -8592,-7074063 -8616,-7074060 -8627,-7074060 -8638,-7074060 -8660,-7074066 -8682,-7074064 -8702,-7074051 -8721,-7074038 -8735,-7074030 -8754,-7074041 -8763,-7074046 -8772,-7074049 -8788,-7074050 -8801,-7074045 -8809,-7074035 -8808,-7074026 -8803,-7074019 -8797,-7074013 -8788,-7074008 -8724,-7073977 -8713,-7073970 -8710,-7073962 -8725,-7073952 -8738,-7073946 -8751,-7073941 -8771,-7073936 -8799,-7073927 -8831,-7073923 -8852,-7073922 -8890,-7073933 -8895,-7073933 -8901,-7073914 -8913,-7073892 -8935,-7073890 -8944,-7073889 -8961,-7073880 -8987,-7073858 -8998,-7073841 -9005,-7073825 -9013,-7073813 -9039,-7073808 -9044,-7073795 -9044,-7073778 -9045,-7073767 -9052,-7073759 -9061,-7073758 -9073,-7073765 -9081,-7073774 -9089,-7073773 -9090,-7073772 -9096,-7073748 -9099,-7073746 -9109,-7073740 -9117,-7073737 -9134,-7073738 -9148,-7073746 -9154,-7073759 -9147,-7073787 -9153,-7073798 -9191,-7073814 -9196,-7073816 -9205,-7073814 -9229,-7073799 -9250,-7073784 -9255,-7073779 -9254,-7073755 -9254,-7073747 -9260,-7073735 -9300,-7073720 -9313,-7073711 -9323,-7073701 -9362,-7073684 -9426,-7073660 -9464,-7073642 -9448,-7073614 -9446,-7073604 -9472,-7073590 -9563,-7073525 -9575,-7073514 -9610,-7073479 -9623,-7073466 -9678,-7073421 -9702,-7073402 -9725,-7073386 -9737,-7073379 -9772,-7073360 -9786,-7073374 -9799,-7073367 -9845,-7073339 -9886,-7073321 -9948,-7073300 -9998,-7073274 -10017,-7073270 -10064,-7073289 -10104,-7073328 -10122,-7073340 -10210,-7073378 -10316,-7073405 -10342,-7073410 -10370,-7073414 -10397,-7073416 -10433,-7073418 -10459,-7073428 -10472,-7073435 -10491,-7073437 -10512,-7073428 -10541,-7073424 -10561,-7073420 -10589,-7073416 -10614,-7073410 -10629,-7073403 -10602,-7073352 -10578,-7073299 -10553,-7073252 -10526,-7073194 -10484,-7073111 -10427,-7073022 -10387,-7072974 -10352,-7072927 -10311,-7072878 -10290,-7072849 -10263,-7072816 -10299,-7072790 -10356,-7072754 -10422,-7072702 -10428,-7072696 -10429,-7072695 -10417,-7072662 -10404,-7072636 -10378,-7072567 -10478,-7072519 -10425,-7072408 -10416,-7072383 -10405,-7072358 -10381,-7072318 -10359,-7072273 -10348,-7072256 -10320,-7072217 -10299,-7072191 -10276,-7072165 -10255,-7072137 -10225,-7072104 -10140,-7072054 -10151,-7072004 -10161,-7071975 -9996,-7071849 -10126,-7071740 -10164,-7071710 -10203,-7071682 -10250,-7071652 -10321,-7071610 -10388,-7071569 -10441,-7071539 -10531,-7071480 -10594,-7071439 -10632,-7071416 -10656,-7071396 -10694,-7071376 -10709,-7071364 -10847,-7071256 -10959,-7071171 -10994,-7071147 -11068,-7071103 -11158,-7071039 -11198,-7071012 -11199,-7071003 -11201,-7070996 -11204,-7070989 -11226,-7070971 -11241,-7070960 -11262,-7070944 -11318,-7070906 -11428,-7070823 -11512,-7070743 -11536,-7070724 -11566,-7070703 -11639,-7070642 -11691,-7070602 -11819,-7070518 -11892,-7070471 -11959,-7070422 -11979,-7070406 -12002,-7070387 -11996,-7070380 -11952,-7070329 -11924,-7070294 -11896,-7070260 -11848,-7070193 -11834,-7070168 -11831,-7070165 -11829,-7070160 -11767,-7070049 -11749,-7070017 -11725,-7069974 -11684,-7069905 -11654,-7069854 -11630,-7069821 -11611,-7069798 -11496,-7069651 -11457,-7069600 -11395,-7069538 -11348,-7069496 -11327,-7069475 -11303,-7069452 -11227,-7069377 -11201,-7069352 -11143,-7069295 -11094,-7069249 -11069,-7069223 -11018,-7069173 -10988,-7069149 -10892,-7069078 -10835,-7069035 -10788,-7068998 -10764,-7068978 -10723,-7068939 -10698,-7068917 -10644,-7068867 -10621,-7068845 -10573,-7068797 -10554,-7068775 -10520,-7068729 -10451,-7068644 -10394,-7068572 -10371,-7068546 -10334,-7068510 -10285,-7068462 -10196,-7068356 -10160,-7068317 -10036,-7068196 -10001,-7068159 -9904,-7068043 -9887,-7068021 -9879,-7068011 -9872,-7068003 -9863,-7068007 -9796,-7067941 -9751,-7067898 -9620,-7067778 -9587,-7067747 -9554,-7067709 -9443,-7067567 -9385,-7067483 -9299,-7067316 -9237,-7067190 -9214,-7067124 -9197,-7067059 -9171,-7066953 -9151,-7066888 -9235,-7066852 -9277,-7066830 -9348,-7066789 -9396,-7066766 -9487,-7066707 -9528,-7066673 -9547,-7066663 -9551,-7066661 -9555,-7066667 -9563,-7066677 -9581,-7066682 -9678,-7066606 -9701,-7066586 -9707,-7066571 -9719,-7066550 -9726,-7066540 -9777,-7066468 -9790,-7066458 -9809,-7066402 -9827,-7066379 -9838,-7066354 -9835,-7066317 -9860,-7066276 -9889,-7066244 -9926,-7066219 -9960,-7066190 -9991,-7066132 -10033,-7066133 -10110,-7066142 -10131,-7066141 -10152,-7066136 -10165,-7066133 -10184,-7066127 -10209,-7066113 -10311,-7066052 -10327,-7066041 -10400,-7065982 -10432,-7065958 -10491,-7065920 -10610,-7065840 -10728,-7065764 -10798,-7065725 -10901,-7065669 -11168,-7065530 -11230,-7065498 -11248,-7065497 -11433,-7065386 -11516,-7065320 -11641,-7065235 -11764,-7065158 -12213,-7064868 -12308,-7064808 -12327,-7064757 -12388,-7064619 -12443,-7064497 -12476,-7064421 -12697,-7064225 -13047,-7063915 -13348,-7063649 -13394,-7063604 -13396,-7063601 -13409,-7063634 -13412,-7063648 -13420,-7063736 -13429,-7063847 -13435,-7063942 -13438,-7063969 -13444,-7063994 -13455,-7064021 -13467,-7064052 -13477,-7064076 -13487,-7064092 -13501,-7064116 -13518,-7064145 -13550,-7064189 -13606,-7064249 -13651,-7064291 -13668,-7064308 -13670,-7064306 -13682,-7064299 -13726,-7064271 -13751,-7064258 -13814,-7064220 -13955,-7064137 -14012,-7064107 -14156,-7064031 -14175,-7064025 -14209,-7064013 -14215,-7064030 -14246,-7064023 -14267,-7064023 -14297,-7064023 -14313,-7064022 -14359,-7064028 -14374,-7064030 -14403,-7064032 -14425,-7064033 -14488,-7064030 -14542,-7064020 -14579,-7064023 -14597,-7064026 -14618,-7064028 -14680,-7064045 -14681,-7064048 -14683,-7064064 -14700,-7064120 -14759,-7064204 -14818,-7064290 -14838,-7064357 -14844,-7064383 -14852,-7064402 -14861,-7064434 -14869,-7064470 -14919,-7064623 -14939,-7064711 -14950,-7064781 -14951,-7064817 -14939,-7064875 -14937,-7064896 -14935,-7064923 -14937,-7064931 -14944,-7064942 -14965,-7064935 -15040,-7064915 -15107,-7064894 -15215,-7064855 -15352,-7064797 -15418,-7064929 -15476,-7065083 -15565,-7065068 -15681,-7065044 -15737,-7065030 -15922,-7064997 -16085,-7064973 -16096,-7064993 -16145,-7065113 -16236,-7065329 -16286,-7065440 -16311,-7065493 -16340,-7065482 -16357,-7065516 -16386,-7065576 -16401,-7065612 -16426,-7065674 -16454,-7065756 -16471,-7065809 -16491,-7065879 -16522,-7065995 -16549,-7066076 -16611,-7066056 -16639,-7066149 -16676,-7066294 -16706,-7066412 -16724,-7066483 -16773,-7066475 -16777,-7066488 -16834,-7066680 -16861,-7066777 -16881,-7066830 -16915,-7066934 -16956,-7067035 -16981,-7067092 -16916,-7067117 -16920,-7067127 -16952,-7067205 -16963,-7067229 -16986,-7067276 -17058,-7067437 -17087,-7067498 -17133,-7067598 -17167,-7067671 -17194,-7067712 -17211,-7067744 -17220,-7067772 -17231,-7067830 -17245,-7067900 -17254,-7067969 -17253,-7067999 -17260,-7068021 -17417,-7068067 -17423,-7068104 -17426,-7068147 -17429,-7068169 -17437,-7068221 -17450,-7068294 -17455,-7068315 -17473,-7068383 -17488,-7068423 -17507,-7068464 -17515,-7068483 -17531,-7068522 -17554,-7068577 -17581,-7068645 -17599,-7068701 -17631,-7068799 -17644,-7068839 -17596,-7068825 -17562,-7068810 -17529,-7068788 -17512,-7068772 -17488,-7068750 -17472,-7068735 -17460,-7068723 -17449,-7068734 -17437,-7068751 -17415,-7068788 -17385,-7068839 -17380,-7068850 -17372,-7068866 -17373,-7068868 -17399,-7068897 -17411,-7068912 -17419,-7068924 -17457,-7068988 -17484,-7069045 -17500,-7069090 -17472,-7069114 -17447,-7069147 -17421,-7069179 -17335,-7069282 -17316,-7069306 -17229,-7069416 -17194,-7069465 -17107,-7069604 -17117,-7069603 -17186,-7069593 -17307,-7069572 -17373,-7069560 -17445,-7069544 -17593,-7069500 -17629,-7069589 -17638,-7069621 -17646,-7069642 -17654,-7069662 -17664,-7069681 -17705,-7069775 -17724,-7069824 -17736,-7069879 -17743,-7069926 -17747,-7069947 -17751,-7069990 -17749,-7070021 -17750,-7070029 -17752,-7070042 -17813,-7070023 -17931,-7069988 -18166,-7069922 -18491,-7069829 -18513,-7069822 -18521,-7069820 -18587,-7069974 -18646,-7069982 -18671,-7069973 -18747,-7069942 -18783,-7069929 -18851,-7069944 -18889,-7069951 -18911,-7069958 -18989,-7069960 -19051,-7069962 -19119,-7069967 -19188,-7069974 -19259,-7069984 -19349,-7069997 -19403,-7070007 -19496,-7070023 -19505,-7070044 -19509,-7070065 -19527,-7070107 -19529,-7070110 -19545,-7070103 -19614,-7070077 -19701,-7070044 -19725,-7070089 -19761,-7070164 -19802,-7070150 -19850,-7070145 -19858,-7070155 -19867,-7070154 -19888,-7070154 -19940,-7070149 -19985,-7070149 -20035,-7070150 -20156,-7070157 -20238,-7070160 -20246,-7070208 -20255,-7070289 -20262,-7070289 -20354,-7070291 -20402,-7070296 -20387,-7070332 -20377,-7070373 -20367,-7070416 -20324,-7070562 -20312,-7070619 -20299,-7070681 -20292,-7070727 -20291,-7070749 -20293,-7070786 -20294,-7070830 -20294,-7070864 -20297,-7070943 -20299,-7071068 -20300,-7071117 -20306,-7071379 -20309,-7071453 -20309,-7071506 -20311,-7071526 -20316,-7071558 -20320,-7071570 -20333,-7071592 -20340,-7071602 -20355,-7071618 -20388,-7071638 -20457,-7071669 -20484,-7071680 -20539,-7071703 -20579,-7071736 -20598,-7071745 -20612,-7071756 -20612,-7071771 -20604,-7071816 -20592,-7071873 -20584,-7071905 -20577,-7071929 -20563,-7071965 -20544,-7072019 -20536,-7072050 -20528,-7072091 -20525,-7072143 -20527,-7072150 -20530,-7072158 -20545,-7072178 -20554,-7072185 -20564,-7072190 -20584,-7072195 -20597,-7072199 -20604,-7072202 -20635,-7072216 -20666,-7072225 -20683,-7072230 -20781,-7072277 -20861,-7072321 -20899,-7072346 -20907,-7072361 -20905,-7072386 -20912,-7072403 -20915,-7072418 -20917,-7072436 -20915,-7072444 -20893,-7072482 -20864,-7072524 -20837,-7072573 -20818,-7072605 -20811,-7072626 -20809,-7072642 -20808,-7072664 -20816,-7072694 -20826,-7072728 -20840,-7072757 -20851,-7072771 -20867,-7072780 -20913,-7072799 -20949,-7072814 -20970,-7072826 -20993,-7072835 -20999,-7072851 -21000,-7072879 -21018,-7072910 -21025,-7072923 -21033,-7072985 -21027,-7073019 -21006,-7073045 -20999,-7073066 -20997,-7073083 -20997,-7073114 -20987,-7073116 -20981,-7073121 -20990,-7073132 -21012,-7073139 -21040,-7073155 -21059,-7073164 -21078,-7073178 -21090,-7073170 -21128,-7073141 -21166,-7073106 -21198,-7073074 -21222,-7073053 -21227,-7073047 -21244,-7073031 -21274,-7073016 -21299,-7073010 -21312,-7073009 -21326,-7073008 -21342,-7073008 -21373,-7073011 -21433,-7073009 -21465,-7073010 -21467,-7073010 -21475,-7073014 -21566,-7073007 -21586,-7073004 -21603,-7073002 -21620,-7073000 -21633,-7072989 -21679,-7073035 -21734,-7073088 -21764,-7073114 -21922,-7073249 -21960,-7073267 -21981,-7073241 -22059,-7073272 -22106,-7073291 -22214,-7073338 -22264,-7073362 -22315,-7073392 -22339,-7073407 -22530,-7073526 -22612,-7073522 -22737,-7073516 -22876,-7073507 -23030,-7073496 -23156,-7073482 -23238,-7073476 -23339,-7073465 -23369,-7073461 -23405,-7073460 -23444,-7073459 -23439,-7073499 -23424,-7073555 -23414,-7073590 -23393,-7073687 -23372,-7073773 -23341,-7073887 -23318,-7073981 -23297,-7074055 -23269,-7074148 -23227,-7074304 -23196,-7074451 -23180,-7074516 -23168,-7074599 -23153,-7074657 -23141,-7074720 -23138,-7074741 -23143,-7074816 -23139,-7074859 -23130,-7074936 -23121,-7075009 -23108,-7075064 -23103,-7075083 -23087,-7075128 -23069,-7075171 -23055,-7075214 -23034,-7075267 -23016,-7075331 -22984,-7075420 -22959,-7075409 -22934,-7075405 -22905,-7075405 -22881,-7075413 -22864,-7075422 -22861,-7075427 -22859,-7075432 -22850,-7075472 -22849,-7075485 -22848,-7075540 -22845,-7075596 -22845,-7075627 -22846,-7075658 -22853,-7075744 -22864,-7075807 -22875,-7075892 -22878,-7075914 -22890,-7075977 -22898,-7076040 -22924,-7076191 -22930,-7076235 -22939,-7076266 -22948,-7076300 -22962,-7076350 -22984,-7076401 -23003,-7076446 -23020,-7076473 -23030,-7076492 -23051,-7076521 -23099,-7076573 -23057,-7076639 -23034,-7076670 -23010,-7076713 -22948,-7076801 -22916,-7076843 -22893,-7076881 -22873,-7076918 -22856,-7076972 -22850,-7076989 -22843,-7077005 -22835,-7077020 -22819,-7077032 -22814,-7077048 -22817,-7077059 -22813,-7077080 -22791,-7077134 -22771,-7077168 -22755,-7077209 -22741,-7077240 -22730,-7077339 -22724,-7077419 -22718,-7077522 -22713,-7077599 -22712,-7077639 -22712,-7077681 -22710,-7077725 -22715,-7077799 -22721,-7077855 -22723,-7077885 -22721,-7077924 -22717,-7077984 -22716,-7078006 -22717,-7078077 -22720,-7078109 -22718,-7078163 -22718,-7078227 -22778,-7078225 -22791,-7078282 -22797,-7078317 -22798,-7078344 -22803,-7078413 -22813,-7078493 -22837,-7078573 -22856,-7078675 -22867,-7078707 -22873,-7078726 -22878,-7078740 -22918,-7078796 -22937,-7078821 -22958,-7078844 -22997,-7078906 -23014,-7078940 -23014,-7078969 -23013,-7079004 -23016,-7079039 -23020,-7079112 -23026,-7079153 -23057,-7079200 -23069,-7079228 -23073,-7079235 -23091,-7079264 -23153,-7079389 -23196,-7079468 -23296,-7079662 -23277,-7079675 -23333,-7079785 -23368,-7079867 -23380,-7079894 -23407,-7079942 -23468,-7080033 -23501,-7080019 -23532,-7080081 -23551,-7080167 -23554,-7080216 -23565,-7080265 -23578,-7080297 -23599,-7080369 -23620,-7080433 -23634,-7080479 -23648,-7080517 -23664,-7080553 -23678,-7080614 -23684,-7080647 -23654,-7080679 -23738,-7080763 -23695,-7080805 -23719,-7080853 -23757,-7080907 -23765,-7080921 -23771,-7080934 -23780,-7080959 -23780,-7080987 -23766,-7081060 -23767,-7081079 -23768,-7081085 -23776,-7081109 -23783,-7081142 -23784,-7081151 -23780,-7081170 -23773,-7081189 -23764,-7081204 -23710,-7081254 -23682,-7081281 -23671,-7081301 -23662,-7081325 -23654,-7081351 -23651,-7081376 -23654,-7081397 -23657,-7081458 -23654,-7081483 -23650,-7081495 -23640,-7081520 -23617,-7081550 -23612,-7081553 -23593,-7081573 -23537,-7081644 -23513,-7081680 -23486,-7081734 -23479,-7081758 -23475,-7081784 -23477,-7081814 -23477,-7081859 -23473,-7081876 -23456,-7081929 -23442,-7081961 -23475,-7081970 -23541,-7081985 -23629,-7082009 -23667,-7082022 -23719,-7082032 -23770,-7082046 -23830,-7082059 -23920,-7082075 -23975,-7082086 -24012,-7082083 -24046,-7082084 -24137,-7082096 -24325,-7082112 -24373,-7082117 -24420,-7082122 -24458,-7082129 -24477,-7082129 -24476,-7082131 -24447,-7082209 -24426,-7082251 -24318,-7082434 -24262,-7082535 -24233,-7082585 -24200,-7082642 -24150,-7082724 -24130,-7082766 -24118,-7082764 -24112,-7082789 -24073,-7082776 -24050,-7082837 -24031,-7082890 -24010,-7082937 -23994,-7082980 -23961,-7083064 -23906,-7083191 -23880,-7083249 -23847,-7083317 -23822,-7083354 -23804,-7083384 -23762,-7083447 -23643,-7083613 -23593,-7083687 -23615,-7083712 -23498,-7083840 -23448,-7083890 -23410,-7083940 -23384,-7083970 -23287,-7084112 -23272,-7084140 -23253,-7084172 -23245,-7084200 -23235,-7084260 -23229,-7084295 -23229,-7084309 -23209,-7084345 -23165,-7084397 -23138,-7084435 -23085,-7084524 -23051,-7084581 -23039,-7084602 -22952,-7084733 -22917,-7084789 -22891,-7084820 -22859,-7084859 -22811,-7084922 -22772,-7084996 -22745,-7085031 -22727,-7085052 -22690,-7085089 -22674,-7085099 -22646,-7085134 -22613,-7085164 -22551,-7085222 -22493,-7085303 -22566,-7085366 -22526,-7085430 -22509,-7085457 -22480,-7085501 -22458,-7085532 -22436,-7085561 -22409,-7085610 -22307,-7085754 -22275,-7085795 -22248,-7085838 -22208,-7085899 -22197,-7085915 -22188,-7085934 -22151,-7086010 -22104,-7086088 -22068,-7086151 -22000,-7086257 -21956,-7086321 -21933,-7086357 -21918,-7086380 -21873,-7086442 -21844,-7086490 -21823,-7086524 -21783,-7086601 -21757,-7086667 -21732,-7086718 -21692,-7086796 -21662,-7086832 -21616,-7086897 -21550,-7086964 -21557,-7086970 -21570,-7086982 -21451,-7087101 -21465,-7087112 -21411,-7087169 -21381,-7087206 -21413,-7087246 -21386,-7087273 -21331,-7087318 -21301,-7087340 -21271,-7087361 -21226,-7087388 -21137,-7087451 -21206,-7087611 -21208,-7087614 -21120,-7087654 -21064,-7087683 -21072,-7087702 -21081,-7087718 -21090,-7087735 -21100,-7087746 -21122,-7087772 -21020,-7087819 -20981,-7087837 -20987,-7087849 -20995,-7087868 -20996,-7087872 -20921,-7087911 -20913,-7087916 -20875,-7087939 -20880,-7087946 -20902,-7087987 -20924,-7088039 -20942,-7088075 -20960,-7088122 -21003,-7088222 -21029,-7088271 -21077,-7088372 -21100,-7088411 -21111,-7088429 -21116,-7088438 -21138,-7088465 -21167,-7088499 -21196,-7088541 -21254,-7088644 -21282,-7088714 -21339,-7088848 -21367,-7088893 -21378,-7088915 -21400,-7088942 -21416,-7088967 -21426,-7088969 -21432,-7088981 -21439,-7089003 -21479,-7089052 -21517,-7089107 -21573,-7089186 -21616,-7089263 -21676,-7089372 -21727,-7089439 -21749,-7089438 -21805,-7089401 -21905,-7089328 -21925,-7089312 -21968,-7089274 -22009,-7089244 -22040,-7089218 -22065,-7089193 -22096,-7089158 -22140,-7089204 -22185,-7089239 -22285,-7089310 -22351,-7089210 -22445,-7089285 -22532,-7089361 -22585,-7089404 -22591,-7089409 -22608,-7089398 -22630,-7089385 -22651,-7089392 -22656,-7089396 -22666,-7089405 -22698,-7089378 -22726,-7089402 -22780,-7089439 -22819,-7089390 -22855,-7089351 -22882,-7089309 -22910,-7089257 -22957,-7089186 -22965,-7089180 -22970,-7089184 -23020,-7089219 -23047,-7089246 -23071,-7089266 -23100,-7089293 -23104,-7089289 -23144,-7089247 -23186,-7089200 -23188,-7089201 -23204,-7089212 -23212,-7089205 -23232,-7089188 -23248,-7089169 -23297,-7089095 -23316,-7089065 -23352,-7089075 -23399,-7089097 -23413,-7089100 -23434,-7089071 -23452,-7089042 -23456,-7089033 -23518,-7089056 -23577,-7089085 -23677,-7089132 -23698,-7089141 -23718,-7089149 -23740,-7089153 -23760,-7089146 -23791,-7089113 -23808,-7089091 -23826,-7089078 -23843,-7089086 -23860,-7089092 -23882,-7089097 -23929,-7089066 -23989,-7089029 -24027,-7089003 -24064,-7088972 -24106,-7088940 -24143,-7088905 -24183,-7088872 -24210,-7088846 -24335,-7088929 -24441,-7089005 -24458,-7089018 -24475,-7089033 -24477,-7089031 -24546,-7088977 -24586,-7088941 -24632,-7088908 -24684,-7088862 -24712,-7088832 -24742,-7088795 -24775,-7088764 -24781,-7088771 -24833,-7088835 -24919,-7088971 -24939,-7089015 -24940,-7089046 -24965,-7089085 -24990,-7089106 -25047,-7089157 -25058,-7089187 -25064,-7089219 -25066,-7089246 -25066,-7089255 -25055,-7089260 -25004,-7089296 -24992,-7089332 -24979,-7089359 -24987,-7089366 -25003,-7089381 -25004,-7089381 -24995,-7089393 -24980,-7089411 -24970,-7089433 -24950,-7089450 -24948,-7089484 -24940,-7089518 -24932,-7089544 -25016,-7089585 -25125,-7089641 -25418,-7089791 -25286,-7090027 -25396,-7090139 -25296,-7090286 -25452,-7090424 -25440,-7090438 -25523,-7090527 -25490,-7090560 -25613,-7090731 -25681,-7090820 -25767,-7090932 -25697,-7090986 -25742,-7091147 -25751,-7091210 -25753,-7091216 -25764,-7091239 -25776,-7091257 -25797,-7091284 -25834,-7091328 -25861,-7091385 -25898,-7091422 -25873,-7091447 -25872,-7091459 -25872,-7091472 -25899,-7091496 -25936,-7091460 -26008,-7091512 -25981,-7091553 -26029,-7091655 -26046,-7091726 -26088,-7091796 -26148,-7091886 -26126,-7091920 -26138,-7091965 -26186,-7092055 -26095,-7092134 -26121,-7092180 -26123,-7092183 -26276,-7092135 -26296,-7092177 -26369,-7092174 -26322,-7092222 -26466,-7092388 -26553,-7092489 -26604,-7092534 -26619,-7092540 -26623,-7092541 -26652,-7092509 -26668,-7092482 -26735,-7092384 -26772,-7092321 -26811,-7092257 -26816,-7092261 -26876,-7092305 -26916,-7092330 -26930,-7092327 -26947,-7092332 -27001,-7092239 -27087,-7092094 -27150,-7092118 -27151,-7092119 -27245,-7092157 -27356,-7092205 -27434,-7092242 -27445,-7092249 -27481,-7092272 -27502,-7092284 -27516,-7092293 -27520,-7092289 -27625,-7092168 -27732,-7092057 -27738,-7092051 -27787,-7091968 -27882,-7091850 -27985,-7091883 -28061,-7091949 -28046,-7091967 -27998,-7092026 -27934,-7092096 -27895,-7092133 -27851,-7092177 -27723,-7092305 -27749,-7092337 -27767,-7092357 -27820,-7092414 -27892,-7092479 -27937,-7092513 -27923,-7092539 -27957,-7092564 -27939,-7092602 -27951,-7092618 -27934,-7092638 -27937,-7092666 -27936,-7092674 -27893,-7092717 -27899,-7092738 -27897,-7092757 -27918,-7092783 -27824,-7092864 -27901,-7092940 -27848,-7092982 -27877,-7093022 -27816,-7093053 -27771,-7093101 -27809,-7093121 -27772,-7093175 -27704,-7093257 -27717,-7093283 -27782,-7093364 -27725,-7093413 -27718,-7093419 -27705,-7093407 -27666,-7093450 -27707,-7093491 -27663,-7093568 -27660,-7093573 -27799,-7093637 -27910,-7093605 -28079,-7093502 -28216,-7093416 -28327,-7093353 -28467,-7093553 -28563,-7093710 -28655,-7093854 -28745,-7094003 -28749,-7094002 -28778,-7094051 -28805,-7094107 -28820,-7094132 -28835,-7094156 -28869,-7094191 -28871,-7094193 -29119,-7093960 -29227,-7094062 -29296,-7094136 -29365,-7094200 -29544,-7094363 -29866,-7094650 -30002,-7094496 -30008,-7094497 -30035,-7094502 -30065,-7094553 -30096,-7094591 -30096,-7094600 -30117,-7094619 -30131,-7094650 -30144,-7094679 -30166,-7094684 -30186,-7094693 -30193,-7094698 -30201,-7094703 -30244,-7094742 -30282,-7094794 -30301,-7094812 -30326,-7094833 -30365,-7094878 -30400,-7094918 -30410,-7094944 -30417,-7094963 -30451,-7094981 -30472,-7094995 -30476,-7095003 -30495,-7095035 -30506,-7095054 -30573,-7095132 -30609,-7095173 -30638,-7095198 -30701,-7095227 -30743,-7095263 -30845,-7095306 -30895,-7095337 -30937,-7095367 -30953,-7095376 -30970,-7095384 -31014,-7095417 -31050,-7095418 -31053,-7095418 -31067,-7095425 -31091,-7095437 -31155,-7095472 -31206,-7095502 -31260,-7095530 -31295,-7095539 -31344,-7095546 -31394,-7095568 -31507,-7095605 -31497,-7095633 -31479,-7095679 -31499,-7095684 -31504,-7095685 -31502,-7095699 -31498,-7095733 -31498,-7095737 -31318,-7095914 -31302,-7095937 -31534,-7096209 -31708,-7096421 -31779,-7096503 -31785,-7096544 -31843,-7096697 -31956,-7096974 -31957,-7096976 -32110,-7096883 -32329,-7096756 -32438,-7097038 -32518,-7097251 -32338,-7097333 -32298,-7097346 -32274,-7097351 -32139,-7097363 -32123,-7097368 -32107,-7097380 -32101,-7097387 -32036,-7097469 -31978,-7097546 -31950,-7097565 -31895,-7097594 -31885,-7097600 -31873,-7097610 -31851,-7097627 -31829,-7097647 -31790,-7097689 -31747,-7097727 -31726,-7097742 -31710,-7097751 -31686,-7097756 -31599,-7097781 -31518,-7097812 -31469,-7097834 -31440,-7097853 -31437,-7097855 -31461,-7097926 -31353,-7097962 -31187,-7098022 -31179,-7098024 -31085,-7097987 -31015,-7098000 -30965,-7098012 -30925,-7098020 -30862,-7098029 -30822,-7098033 -30709,-7098036 -30691,-7098021 -30507,-7098034 -30427,-7098049 -30383,-7098062 -30295,-7098102 -30235,-7098121 -30139,-7098110 -30014,-7098124 -29976,-7098126 -29942,-7098122 -29865,-7098110 -29852,-7098112 -29762,-7098131 -29744,-7098138 -29702,-7098164 -29679,-7098178 -29607,-7098217 -29585,-7098231 -29563,-7098245 -29458,-7098321 -29406,-7098365 -29383,-7098383 -29371,-7098392 -29357,-7098397 -29262,-7098414 -29162,-7098464 -29126,-7098529 -29118,-7098537 -29063,-7098577 -29054,-7098580 -28963,-7098596 -28909,-7098600 -28837,-7098609 -28798,-7098618 -28734,-7098644 -28720,-7098651 -28580,-7098685 -28457,-7098712 -28387,-7098732 -28267,-7098790 -28217,-7098818 -28167,-7098935 -28162,-7098944 -28143,-7098954 -28103,-7098971 -28092,-7098976 -27981,-7099053 -27936,-7099076 -27917,-7099076 -27864,-7099080 -27824,-7099085 -27811,-7099087 -27799,-7099093 -27749,-7099109 -27684,-7099113 -27641,-7099112 -27560,-7099112 -27483,-7099127 -27450,-7099130 -27429,-7099136 -27403,-7099140 -27347,-7099142 -27315,-7099139 -27291,-7099142 -27153,-7099136 -27108,-7099135 -27079,-7099139 -27050,-7099143 -26991,-7099162 -26906,-7099187 -26898,-7099190 -26890,-7099209 -26835,-7099226 -26827,-7099179 -26828,-7099132 -26723,-7099149 -26549,-7099187 -26502,-7099200 -26490,-7099203 -26492,-7099235 -26504,-7099269 -26520,-7099307 -26530,-7099340 -26523,-7099363 -26502,-7099377 -26476,-7099383 -26449,-7099388 -26360,-7099388 -26296,-7099380 -26271,-7099373 -26203,-7099340 -26147,-7099311 -26098,-7099295 -26081,-7099288 -25998,-7099240 -25991,-7099236 -25986,-7099236 -25966,-7099237 -25894,-7099266 -25848,-7099307 -25785,-7099354 -25746,-7099381 -25738,-7099398 -25734,-7099417 -25732,-7099432 -25723,-7099449 -25717,-7099455 -25710,-7099460 -25692,-7099467 -25672,-7099468 -25642,-7099473 -25594,-7099516 -25559,-7099543 -25505,-7099591 -25495,-7099601 -25475,-7099625 -25452,-7099640 -25442,-7099648 -25432,-7099656 -25416,-7099673 -25388,-7099694 -25307,-7099747 -25263,-7099779 -25186,-7099849 -25142,-7099891 -25080,-7099944 -25051,-7099967 -25024,-7099994 -25007,-7100011 -24997,-7100021 -24895,-7100092 -24878,-7100106 -24869,-7100115 -24856,-7100130 -24836,-7100150 -24776,-7100197 -24730,-7100229 -24700,-7100261 -24659,-7100318 -24612,-7100370 -24566,-7100430 -24558,-7100439 -24534,-7100460 -24483,-7100497 -24453,-7100516 -24377,-7100557 -24201,-7100687 -24126,-7100752 -24025,-7100829 -23943,-7100900 -23927,-7100913 -23884,-7100928 -23871,-7100935 -23856,-7100944 -23845,-7100952 -23775,-7101024 -23690,-7101094 -23588,-7101185 -23548,-7101220 -23520,-7101247 -23516,-7101250 -23494,-7101264 -23446,-7101309 -23431,-7101320 -23379,-7101360 -23294,-7101434 -23247,-7101477 -23172,-7101535 -23102,-7101599 -23080,-7101617 -23061,-7101630 -23008,-7101659 -22979,-7101680 -22971,-7101688 -22950,-7101706 -22897,-7101773 -22872,-7101797 -22855,-7101811 -22805,-7101838 -22784,-7101859 -22756,-7101874 -22716,-7101897 -22703,-7101909 -22704,-7101922 -22706,-7101928 -22705,-7101931 -22704,-7101935 -22701,-7101937 -22696,-7101939 -22680,-7101941 -22671,-7101945 -22668,-7101947 -22660,-7101959 -22656,-7101968 -22650,-7101973 -22639,-7101979 -22635,-7101983 -22623,-7101989 -22619,-7101993 -22613,-7102003 -22609,-7102023 -22606,-7102029 -22602,-7102034 -22594,-7102039 -22581,-7102046 -22541,-7102057 -22515,-7102067 -22504,-7102074 -22489,-7102084 -22477,-7102094 -22467,-7102103 -22457,-7102115 -22442,-7102133 -22423,-7102158 -22349,-7102256 -22309,-7102309 -22262,-7102248 -22235,-7102206 -22222,-7102165 -22230,-7102142 -22231,-7102139 -22250,-7102104 -22272,-7102072 -22290,-7102050 -22292,-7102038" stroke="white" stroke-width="74" /></ns0:svg>    <rect x="20" y="50"  width="250" height="25"  rx="0"  fill="#E8EDEE" fill-opacity="0.8" />    <text x="145" y="70" text-anchor="middle" font-family="Frutiger" font-weight="bold" font-size="20" fill="#AE2573">North East Lincolnshire</text>    <rect x="35" y="195" width="220" height="160" rx="15" fill="#724F95"/>    <g font-family="Frutiger" font-size="15" fill="white">        <g> <text x="45" y="218">Self-harm</text> <text x="245" y="218" text-anchor="end">23</text> </g>        <g> <text x="45" y="243">SEN</text> <text x="245" y="243" text-anchor="end">15</text> </g>        <g> <text x="45" y="268">Difficulties</text> <text x="245" y="268" text-anchor="end">99</text> </g>        <g> <text x="45" y="293">Child Carer</text> <text x="245" y="293" text-anchor="end">55</text> </g>        <g> <text x="45" y="318">Drinkers</text> <text x="245" y="318" text-anchor="end">46</text> </g>        <g> <text x="45" y="343">Safeguarding £</text> <text x="245" y="343" text-anchor="end">20</text> </g>    </g></svg>