<?xml version="1.0" standalone="no"?>
<!DOCTYPE svg PUBLIC "-//W3C//DTD SVG 1.1//EN"
"http://www.w3.org/Graphics/SVG/1.1/DTD/svg11.dtd">
<svg height="1800" version="1.1" width="1800" xmlns="http://www.w3.org/2000/svg"><defs><style type="text/css">@font-face {font-family: 'Frutiger';font-style: normal;font-weight: normal;src: local('Frutiger'), url('../fonts/Frutiger.woff') format('woff');}@font-face {font-family: 'Frutiger Bold';font-style: normal;font-weight: normal;src: local('Frutiger Bold'), url('../fonts/Frutiger_bold.woff') format('woff');}        </style>    </defs>    <rect x="20" y="20"  width="250" height="350" rx="15" fill="#AE2573" />    <rect x="35" y="35"  width="220" height="145" rx="15" fill="#330072" /><ns0:svg xmlns:ns0="http://www.w3.org/2000/svg" height="115" version="1.1" viewBox="44232 -6710878 38158 31377" width="220" x="35" y="50"><ns0:polygon fill="white" points=" 75475,-6710166 75479,-6709514 75479,-6709495 75480,-6709306 75477,-6708986 75486,-6708316 75486,-6708135 75487,-6708089 75488,-6708081 75702,-6708048 75832,-6707983 76056,-6707919 76349,-6707874 76777,-6707760 76963,-6707714 77088,-6707637 77125,-6707576 77133,-6707450 77171,-6707404 77223,-6707342 77226,-6707349 77266,-6707384 77308,-6707405 77364,-6707416 77405,-6707415 77531,-6707402 77627,-6707395 77732,-6707368 78004,-6707309 78101,-6707284 78226,-6707246 78277,-6707230 78384,-6707152 78547,-6707066 78658,-6707017 78706,-6706988 78764,-6706969 78874,-6706907 78903,-6706873 78910,-6706850 78915,-6706745 78919,-6706740 78927,-6706741 78932,-6706747 78937,-6706769 78937,-6706779 78940,-6706786 78947,-6706808 78967,-6706842 78984,-6706853 79000,-6706850 79078,-6706789 79107,-6706762 79125,-6706736 79189,-6706675 79322,-6706583 79352,-6706568 79375,-6706559 79390,-6706550 79618,-6706448 79647,-6706436 79678,-6706424 79764,-6706387 79976,-6706312 80020,-6706314 80081,-6706299 80182,-6706227 80205,-6706221 80211,-6706215 80208,-6706192 80234,-6706181 80243,-6706190 80261,-6706192 80284,-6706188 80314,-6706165 80334,-6706158 80357,-6706149 80447,-6706095 80504,-6706070 80639,-6705982 80746,-6705927 81010,-6705797 81130,-6705733 81182,-6705713 81247,-6705679 81269,-6705665 81294,-6705653 81323,-6705643 81343,-6705632 81355,-6705623 81369,-6705611 81377,-6705601 81390,-6705581 81405,-6705563 81423,-6705547 81434,-6705540 81451,-6705531 81457,-6705515 81461,-6705507 81467,-6705496 81473,-6705487 81487,-6705474 81495,-6705467 81504,-6705462 81519,-6705455 81556,-6705425 81581,-6705407 81616,-6705384 81675,-6705331 81750,-6705259 81816,-6705192 81884,-6705085 81945,-6705020 82007,-6704927 82031,-6704862 82059,-6704780 82080,-6704729 82093,-6704711 82185,-6704510 82215,-6704459 82228,-6704429 82238,-6704406 82265,-6704318 82284,-6704210 82305,-6704077 82306,-6704060 82384,-6703770 82389,-6703701 82390,-6703597 82385,-6703444 82359,-6703311 82322,-6703202 82284,-6703124 82265,-6703079 82219,-6702912 82189,-6702805 82100,-6702535 82077,-6702467 81996,-6702311 81968,-6702235 81903,-6702092 81861,-6701979 81830,-6701875 81697,-6701546 81735,-6701515 81767,-6701486 81838,-6701440 81901,-6701396 81963,-6701349 82004,-6701317 82262,-6701130 82211,-6701022 82189,-6700959 82169,-6700893 82159,-6700851 82146,-6700795 82126,-6700733 82104,-6700649 82090,-6700576 82078,-6700438 82072,-6700332 82059,-6700238 82043,-6700148 82026,-6700069 81997,-6699950 81983,-6699888 81977,-6699859 81954,-6699783 81930,-6699714 81902,-6699630 81808,-6699437 81750,-6699324 81678,-6699198 81651,-6699144 81620,-6699093 81579,-6699042 81566,-6699027 81516,-6698971 81428,-6698859 81337,-6698762 81322,-6698746 81300,-6698719 81245,-6698660 81175,-6698582 81157,-6698566 81124,-6698538 81079,-6698497 81062,-6698483 80876,-6698354 80790,-6698290 80772,-6698279 80619,-6698185 80519,-6698133 80375,-6698064 80290,-6698025 80173,-6697976 80115,-6697954 79785,-6697796 79733,-6697770 79714,-6697761 79652,-6697736 79609,-6697716 79533,-6697687 79497,-6697672 79459,-6697660 79427,-6697648 79349,-6697622 79309,-6697607 79226,-6697583 79141,-6697556 79091,-6697543 79029,-6697526 78916,-6697501 78794,-6697476 78732,-6697466 78695,-6697456 78649,-6697450 78604,-6697443 78486,-6697432 78421,-6697427 78287,-6697412 78120,-6697397 77930,-6697383 77892,-6697380 77721,-6697362 77595,-6697351 77438,-6697335 77381,-6697332 77271,-6697324 77220,-6697322 77147,-6697319 77056,-6697319 76980,-6697332 76934,-6697340 76910,-6697345 76856,-6697359 76765,-6697385 76696,-6697398 76622,-6697416 76563,-6697425 76465,-6697444 76409,-6697452 76326,-6697469 76239,-6697482 76164,-6697491 76104,-6697501 76059,-6697507 75962,-6697515 75892,-6697522 75824,-6697525 75720,-6697532 75664,-6697535 75496,-6697537 75452,-6697537 75394,-6697540 75333,-6697539 75307,-6697540 75282,-6697540 75259,-6697542 75185,-6697548 75076,-6697548 75010,-6697549 74973,-6697552 74946,-6697552 74786,-6697561 74647,-6697570 74568,-6697573 74510,-6697576 74466,-6697578 74419,-6697581 74375,-6697581 74337,-6697580 74298,-6697580 74275,-6697578 74210,-6697568 74140,-6697560 74111,-6697556 74052,-6697545 73922,-6697528 73870,-6697515 73846,-6697507 73672,-6697393 73602,-6697343 73536,-6697298 73480,-6697258 73444,-6697231 73336,-6697143 73275,-6697097 73256,-6697082 73238,-6697067 73169,-6697007 73134,-6696970 73088,-6696929 73050,-6696891 73012,-6696856 72980,-6696823 72936,-6696771 72821,-6696623 72795,-6696594 72783,-6696580 72752,-6696535 72724,-6696489 72717,-6696476 72675,-6696379 72635,-6696271 72627,-6696239 72618,-6696216 72595,-6696147 72556,-6696005 72549,-6695981 72541,-6695957 72523,-6695909 72494,-6695843 72421,-6695692 72293,-6695412 72260,-6695346 72221,-6695265 72195,-6695211 72146,-6695119 72114,-6695052 72075,-6694987 72044,-6694931 72035,-6694915 71981,-6694831 71936,-6694778 71910,-6694751 71890,-6694723 71903,-6694650 71919,-6694531 71926,-6694475 71937,-6694376 71968,-6694069 71976,-6694005 71980,-6693940 71997,-6693780 71999,-6693739 72002,-6693711 72001,-6693681 71998,-6693648 71979,-6693570 71957,-6693517 71950,-6693495 71942,-6693473 71921,-6693403 71882,-6693289 71863,-6693239 71848,-6693195 71838,-6693170 71817,-6693118 71785,-6693045 71755,-6692990 71717,-6692931 71678,-6692877 71639,-6692822 71590,-6692757 71539,-6692679 71486,-6692602 71435,-6692518 71423,-6692500 71411,-6692484 71383,-6692454 71349,-6692407 71311,-6692363 71255,-6692293 71227,-6692253 71204,-6692228 71103,-6692117 70833,-6691828 70760,-6691748 71023,-6691435 71021,-6691358 71024,-6691304 71036,-6691260 71057,-6691219 71093,-6691157 71121,-6691118 71126,-6691111 71139,-6691096 71167,-6691065 71181,-6691009 71184,-6690983 71183,-6690966 71176,-6690953 71150,-6690910 71147,-6690905 71143,-6690878 71141,-6690825 71156,-6690761 71135,-6690745 71118,-6690697 71096,-6690669 71062,-6690620 71036,-6690576 70989,-6690499 70935,-6690396 70919,-6690358 70914,-6690340 70909,-6690321 70898,-6690270 70897,-6690245 70895,-6690102 70903,-6689983 70903,-6689954 70902,-6689915 70897,-6689884 70895,-6689878 70888,-6689848 70868,-6689784 70859,-6689763 70848,-6689745 70803,-6689701 70768,-6689671 70636,-6689590 70548,-6689537 70518,-6689516 70472,-6689489 70341,-6689431 70296,-6689411 70206,-6689365 70183,-6689353 70159,-6689317 70132,-6689269 70125,-6689250 70124,-6689247 70126,-6689201 70124,-6689157 70111,-6689122 70104,-6689091 70088,-6688994 70079,-6688979 70058,-6688956 70043,-6688884 70033,-6688848 70016,-6688798 70001,-6688762 69985,-6688734 69964,-6688709 69899,-6688677 69834,-6688648 69785,-6688625 69746,-6688613 69736,-6688608 69726,-6688602 69717,-6688596 69709,-6688588 69699,-6688576 69691,-6688530 69689,-6688515 69691,-6688491 69697,-6688470 69705,-6688454 69765,-6688381 69791,-6688340 69797,-6688323 69801,-6688301 69804,-6688271 69803,-6688256 69798,-6688215 69796,-6688184 69789,-6688154 69793,-6688092 69786,-6688062 69758,-6688013 69756,-6688007 69757,-6688002 69776,-6687955 69778,-6687942 69780,-6687908 69787,-6687883 69798,-6687858 69789,-6687848 69688,-6687686 69656,-6687623 69657,-6687600 69661,-6687539 69663,-6687507 69666,-6687397 69670,-6687344 69669,-6687261 69667,-6687256 69665,-6687251 69629,-6687217 69518,-6687062 69467,-6686990 69410,-6686902 69384,-6686866 69516,-6686783 69554,-6686762 69559,-6686759 69681,-6686706 69715,-6686693 69737,-6686716 69747,-6686731 69768,-6686771 69916,-6686723 69948,-6686710 69951,-6686714 70034,-6686678 70185,-6686616 70251,-6686587 70277,-6686573 70354,-6686531 70443,-6686474 70519,-6686428 70601,-6686388 70677,-6686358 70564,-6686110 70492,-6685959 70429,-6685840 70403,-6685790 70348,-6685681 70261,-6685502 70200,-6685384 70166,-6685312 70125,-6685224 70053,-6685083 69972,-6685110 69960,-6685082 69822,-6684783 69796,-6684730 69751,-6684636 69682,-6684486 69653,-6684433 69628,-6684396 69611,-6684362 69584,-6684298 69579,-6684266 69561,-6684186 69548,-6684138 69522,-6684092 69498,-6684049 69477,-6684010 69468,-6683996 69449,-6683937 69431,-6683866 69425,-6683808 69414,-6683751 69410,-6683733 69398,-6683695 69391,-6683678 69378,-6683647 69370,-6683631 69349,-6683600 69306,-6683539 69299,-6683525 69284,-6683492 69269,-6683455 69262,-6683436 69250,-6683384 69224,-6683388 69189,-6683397 69171,-6683400 69126,-6683406 69082,-6683403 69065,-6683400 69049,-6683397 69021,-6683387 68971,-6683360 68930,-6683339 68910,-6683326 68892,-6683308 68885,-6683298 68879,-6683287 68853,-6683237 68846,-6683228 68839,-6683219 68819,-6683204 68813,-6683197 68808,-6683161 68802,-6683133 68798,-6683102 68795,-6683003 68790,-6682983 68788,-6682975 68784,-6682966 68760,-6682929 68738,-6682898 68699,-6682818 68661,-6682732 68632,-6682666 68626,-6682649 68574,-6682515 68546,-6682461 68535,-6682432 68509,-6682361 68488,-6682307 68483,-6682271 68472,-6682227 68394,-6682113 68386,-6682093 68352,-6681981 68346,-6681967 68324,-6681930 68316,-6681912 68321,-6681878 68322,-6681870 68319,-6681856 68314,-6681848 68241,-6681794 68199,-6681758 68199,-6681757 68213,-6681727 68218,-6681715 68195,-6681691 68164,-6681647 68120,-6681598 68094,-6681582 68057,-6681551 68052,-6681536 68046,-6681521 68045,-6681513 68044,-6681505 68047,-6681488 68054,-6681469 68099,-6681377 68109,-6681355 68119,-6681332 68133,-6681290 68093,-6681201 68075,-6681156 68051,-6681112 68039,-6681088 68010,-6681029 67957,-6680987 67966,-6680972 67930,-6680940 67867,-6680879 67809,-6680828 67714,-6680731 67683,-6680703 67574,-6680776 67501,-6680812 67445,-6680839 67411,-6680861 67338,-6680915 67269,-6680959 67223,-6680990 67199,-6680954 67182,-6680932 67134,-6680871 67068,-6680772 67041,-6680729 67017,-6680699 67004,-6680665 66964,-6680540 66950,-6680490 66947,-6680463 66915,-6680452 66875,-6680423 66817,-6680368 66778,-6680329 66765,-6680326 66682,-6680334 66638,-6680338 66617,-6680341 66534,-6680359 66473,-6680361 66451,-6680358 66441,-6680364 66437,-6680370 66424,-6680395 66423,-6680404 66423,-6680412 66426,-6680429 66436,-6680470 66409,-6680466 66371,-6680462 66278,-6680470 66230,-6680461 66164,-6680450 66159,-6680467 66155,-6680475 66150,-6680484 66137,-6680499 66118,-6680511 66092,-6680520 66048,-6680530 66022,-6680539 66012,-6680539 65978,-6680537 65939,-6680531 65880,-6680546 65870,-6680551 65855,-6680559 65809,-6680581 65767,-6680604 65726,-6680615 65580,-6680676 65505,-6680709 65401,-6680745 65285,-6680782 65272,-6680753 65258,-6680731 65245,-6680724 65228,-6680720 65187,-6680719 65144,-6680716 65094,-6680715 65084,-6680715 65043,-6680715 64966,-6680706 64943,-6680706 64866,-6680729 64856,-6680732 64796,-6680786 64788,-6680791 64780,-6680794 64771,-6680796 64728,-6680802 64691,-6680804 64674,-6680849 64649,-6680879 64633,-6680901 64627,-6680907 64617,-6680918 64606,-6680927 64597,-6680934 64587,-6680941 64573,-6680948 64559,-6680955 64544,-6680960 64518,-6680966 64459,-6680994 64435,-6681003 64420,-6681007 64401,-6681011 64354,-6681017 64317,-6681021 64163,-6681132 64057,-6681222 63907,-6681104 63885,-6681087 63871,-6681092 63835,-6681108 63739,-6680977 63703,-6680926 63668,-6680875 63652,-6680893 63601,-6680960 63562,-6681005 63526,-6681044 63495,-6681073 63467,-6681089 63412,-6681125 63343,-6681165 63309,-6681179 63254,-6681197 63185,-6681218 63085,-6681243 63055,-6681248 62968,-6681263 62938,-6681302 62911,-6681305 62893,-6681309 62839,-6681335 62796,-6681363 62740,-6681411 62723,-6681433 62638,-6681407 62592,-6681400 62475,-6681333 62303,-6681224 62019,-6681047 62017,-6681045 61999,-6681035 61972,-6681040 61929,-6680959 61832,-6680790 61814,-6680755 61796,-6680719 61754,-6680633 61735,-6680581 61721,-6680546 61713,-6680516 61713,-6680499 61714,-6680385 61719,-6680336 61755,-6680271 61733,-6680252 61744,-6680237 61721,-6680217 61687,-6680191 61667,-6680166 61621,-6680141 61564,-6680129 61514,-6680120 61476,-6680112 61419,-6680128 61401,-6680124 61381,-6680113 61360,-6680106 61350,-6680105 61282,-6680105 61263,-6680099 61248,-6680088 61237,-6680081 61227,-6680077 61195,-6680067 61156,-6680059 61141,-6680055 61125,-6680049 61105,-6680037 61085,-6680025 61036,-6679987 60894,-6679886 60849,-6679861 60817,-6679832 60777,-6679803 60771,-6679798 60762,-6679784 60755,-6679767 60751,-6679751 60747,-6679713 60732,-6679665 60726,-6679651 60717,-6679634 60707,-6679621 60682,-6679593 60614,-6679538 60558,-6679501 60508,-6679532 60490,-6679550 60472,-6679568 60358,-6679695 60232,-6679811 60167,-6679880 60151,-6679894 60141,-6679904 60127,-6679921 60117,-6679939 60080,-6680016 60075,-6680023 60069,-6680031 60063,-6680037 60051,-6680046 60006,-6680115 59968,-6680182 59965,-6680188 59962,-6680198 59960,-6680206 59959,-6680222 59966,-6680297 59967,-6680314 59970,-6680331 59970,-6680339 59969,-6680347 59963,-6680364 59955,-6680378 59815,-6680566 59804,-6680586 59718,-6680656 59643,-6680736 59622,-6680778 59535,-6680895 59485,-6680965 59414,-6681050 59325,-6681152 59251,-6681122 59223,-6681112 59195,-6681102 59079,-6681052 58948,-6680972 58799,-6680878 58614,-6680752 58581,-6680727 58571,-6680722 58561,-6680717 58548,-6680713 58514,-6680716 58472,-6680744 58430,-6680772 58386,-6680791 58347,-6680842 58325,-6680890 58322,-6680902 58317,-6680911 58312,-6680918 58308,-6680923 58296,-6680931 58234,-6680963 58192,-6680981 58142,-6681014 58137,-6681019 58132,-6681025 58128,-6681034 58125,-6681043 58125,-6681057 58093,-6681167 58079,-6681205 57963,-6681305 57925,-6681342 57881,-6681513 57836,-6681508 57811,-6681646 57695,-6681614 57640,-6681610 57515,-6681598 57504,-6681601 57379,-6681702 57376,-6681704 57336,-6681734 57307,-6681740 57270,-6681793 57233,-6681858 57047,-6681840 56980,-6681826 56978,-6681825 56902,-6681820 56891,-6681843 56877,-6681867 56860,-6681891 56841,-6681915 56753,-6682005 56733,-6682028 56707,-6682051 56687,-6682067 56653,-6682089 56598,-6682114 56581,-6682122 56511,-6682213 56502,-6682245 56488,-6682246 56437,-6682236 56401,-6682225 56310,-6682180 56309,-6682182 56294,-6682226 56279,-6682263 56258,-6682307 56239,-6682341 56232,-6682376 56228,-6682393 56221,-6682414 56212,-6682435 56202,-6682457 56193,-6682480 56177,-6682523 56162,-6682567 56136,-6682647 56114,-6682727 56097,-6682777 56075,-6682834 55994,-6683019 55992,-6683027 55991,-6683026 55956,-6683111 55906,-6683226 55942,-6683252 55965,-6683270 55976,-6683279 56004,-6683306 55979,-6683354 55967,-6683379 55956,-6683405 55943,-6683440 55934,-6683466 55921,-6683509 55889,-6683609 55884,-6683634 55882,-6683651 55881,-6683671 55881,-6683694 55883,-6683721 55885,-6683735 55913,-6683788 55932,-6683827 55987,-6683947 55998,-6683966 56004,-6683981 56010,-6683998 56013,-6684015 56014,-6684034 56014,-6684053 56009,-6684081 56009,-6684214 56007,-6684261 56003,-6684271 56000,-6684276 55996,-6684280 55992,-6684284 55986,-6684286 55981,-6684287 55975,-6684287 55966,-6684285 55949,-6684273 55879,-6684237 55864,-6684230 55781,-6684194 55685,-6684156 55537,-6684095 55455,-6684067 55407,-6684052 55383,-6684043 55364,-6684035 55344,-6684025 55321,-6684011 55269,-6683998 55235,-6683990 55202,-6683979 55168,-6683964 55140,-6683948 55117,-6683948 55112,-6683947 55101,-6683945 55090,-6683941 55082,-6683937 55072,-6683931 55057,-6683917 55047,-6683912 55039,-6683910 55030,-6683908 55020,-6683908 55009,-6683909 54999,-6683912 54987,-6683919 54965,-6683945 54945,-6683964 54928,-6683979 54912,-6683991 54896,-6684003 54879,-6684013 54845,-6684031 54793,-6684068 54748,-6684104 54731,-6684122 54713,-6684138 54701,-6684147 54685,-6684156 54671,-6684163 54657,-6684169 54640,-6684174 54625,-6684178 54595,-6684182 54563,-6684182 54542,-6684186 54529,-6684190 54516,-6684195 54506,-6684201 54489,-6684214 54486,-6684217 54462,-6684273 54452,-6684304 54450,-6684317 54445,-6684347 54440,-6684360 54435,-6684368 54428,-6684375 54420,-6684381 54404,-6684389 54375,-6684407 54363,-6684415 54349,-6684427 54333,-6684442 54310,-6684470 54284,-6684511 54262,-6684512 54248,-6684514 54239,-6684516 54218,-6684526 54206,-6684535 54179,-6684561 54172,-6684565 54128,-6684591 54102,-6684604 54068,-6684619 54020,-6684649 53952,-6684673 53832,-6684712 53795,-6684724 53738,-6684746 53697,-6684773 53664,-6684795 53650,-6684803 53645,-6684805 53634,-6684809 53624,-6684811 53616,-6684812 53603,-6684813 53589,-6684811 53578,-6684809 53565,-6684804 53487,-6684764 53476,-6684760 53463,-6684757 53453,-6684755 53431,-6684755 53413,-6684759 53395,-6684766 53380,-6684775 53370,-6684784 53363,-6684795 53358,-6684809 53357,-6684822 53358,-6684832 53348,-6684852 53343,-6684866 53339,-6684880 53336,-6684892 53335,-6684905 53334,-6684919 53336,-6684941 53286,-6684992 53204,-6685084 53145,-6685149 53086,-6685214 52987,-6685320 52952,-6685261 52865,-6685346 52751,-6685441 52628,-6685545 52571,-6685556 52527,-6685565 52447,-6685583 52430,-6685588 52405,-6685597 52382,-6685608 52363,-6685619 52338,-6685636 52312,-6685658 52287,-6685683 52276,-6685696 52261,-6685717 52157,-6685816 52103,-6685856 51950,-6685967 51875,-6686015 51808,-6686056 51700,-6686119 51657,-6686143 51584,-6686187 51560,-6686203 51508,-6686240 51451,-6686285 51379,-6686325 51353,-6686367 51325,-6686392 51308,-6686405 51277,-6686426 51263,-6686434 51220,-6686455 51148,-6686483 51132,-6686486 51114,-6686493 51103,-6686499 51092,-6686507 51083,-6686514 51076,-6686521 51063,-6686539 51058,-6686541 51046,-6686547 51030,-6686552 51012,-6686557 50984,-6686560 50976,-6686563 50960,-6686572 50945,-6686581 50921,-6686599 50900,-6686619 50895,-6686624 50870,-6686658 50833,-6686718 50787,-6686784 50736,-6686751 50684,-6686716 50645,-6686688 50607,-6686659 50558,-6686620 50509,-6686586 50434,-6686536 50377,-6686502 50335,-6686478 50285,-6686441 50247,-6686413 50189,-6686368 50167,-6686352 50152,-6686340 50141,-6686329 50132,-6686319 50122,-6686307 50111,-6686289 50102,-6686274 50096,-6686262 50087,-6686238 50081,-6686213 50051,-6686140 50042,-6686114 50034,-6686088 50028,-6686061 50023,-6686034 50019,-6686009 50016,-6685983 50015,-6685962 50015,-6685922 50026,-6685751 50034,-6685570 50041,-6685438 50028,-6685320 50022,-6685243 50023,-6685235 50024,-6685216 50027,-6685197 50030,-6685183 50038,-6685155 50053,-6685121 50061,-6685093 50064,-6685074 50067,-6685053 50070,-6685032 50071,-6685002 50078,-6684982 50083,-6684973 50091,-6684961 50099,-6684952 50115,-6684942 50142,-6684894 50151,-6684882 50168,-6684859 50182,-6684842 50193,-6684830 50207,-6684817 50225,-6684801 50244,-6684787 50286,-6684760 50306,-6684746 50325,-6684731 50344,-6684716 50373,-6684688 50393,-6684662 50406,-6684648 50433,-6684622 50448,-6684610 50464,-6684598 50492,-6684579 50562,-6684516 50579,-6684503 50590,-6684491 50603,-6684475 50613,-6684461 50618,-6684450 50628,-6684426 50648,-6684350 50672,-6684270 50681,-6684243 50718,-6684133 50742,-6684071 50755,-6684040 50787,-6683970 50807,-6683931 50816,-6683909 50823,-6683886 50830,-6683861 50834,-6683841 50836,-6683822 50843,-6683765 50844,-6683742 50844,-6683720 50842,-6683699 50838,-6683676 50834,-6683657 50812,-6683592 50802,-6683570 50792,-6683551 50781,-6683533 50766,-6683514 50759,-6683504 50744,-6683488 50721,-6683465 50706,-6683451 50687,-6683435 50666,-6683420 50649,-6683409 50627,-6683397 50604,-6683386 50550,-6683363 50469,-6683333 50421,-6683317 50344,-6683297 50243,-6683276 50136,-6683253 50098,-6683238 50080,-6683230 50063,-6683221 50042,-6683208 50021,-6683193 50005,-6683181 49972,-6683150 49959,-6683134 49948,-6683114 49944,-6683103 49939,-6683082 49938,-6683070 49938,-6683054 49939,-6683041 49947,-6682998 49953,-6682981 49961,-6682965 49970,-6682951 49980,-6682938 49994,-6682925 50006,-6682915 50022,-6682905 50049,-6682885 50067,-6682874 50090,-6682862 50113,-6682852 50137,-6682844 50171,-6682836 50186,-6682830 50215,-6682815 50229,-6682806 50244,-6682795 50259,-6682783 50274,-6682769 50297,-6682743 50315,-6682727 50325,-6682716 50334,-6682705 50342,-6682693 50350,-6682678 50357,-6682665 50365,-6682643 50369,-6682626 50388,-6682459 50389,-6682423 50387,-6682387 50384,-6682368 50380,-6682349 50371,-6682314 50361,-6682288 50356,-6682261 50354,-6682239 50353,-6682212 50353,-6682189 50358,-6682153 50368,-6682110 50382,-6682067 50394,-6682036 50399,-6682024 50404,-6682012 50416,-6681989 50433,-6681959 50452,-6681931 50474,-6681903 50485,-6681889 50506,-6681867 50549,-6681812 50481,-6681766 50465,-6681759 50455,-6681755 50443,-6681754 50431,-6681754 50419,-6681755 50407,-6681758 50355,-6681762 50326,-6681766 50272,-6681776 50223,-6681789 50177,-6681807 50146,-6681819 50125,-6681817 50100,-6681817 50083,-6681819 50067,-6681821 50054,-6681824 50028,-6681833 49933,-6681870 49844,-6681901 49804,-6681914 49777,-6681934 49751,-6681937 49729,-6681941 49708,-6681946 49678,-6681955 49608,-6681974 49576,-6681984 49566,-6681988 49546,-6681995 49524,-6682013 49508,-6682023 49490,-6682032 49474,-6682038 49472,-6682038 49448,-6682043 49368,-6682067 49293,-6682087 49242,-6682102 49190,-6682118 49165,-6682127 48996,-6682187 48922,-6682214 48871,-6682227 48824,-6682238 48744,-6682278 48689,-6682300 48610,-6682346 48550,-6682373 48534,-6682384 48514,-6682394 48504,-6682398 48484,-6682403 48437,-6682414 48367,-6682431 48315,-6682447 48248,-6682466 48172,-6682491 48097,-6682519 48054,-6682532 48031,-6682540 48011,-6682548 47991,-6682557 47970,-6682569 47958,-6682576 47920,-6682602 47882,-6682630 47835,-6682672 47790,-6682693 47739,-6682731 47725,-6682743 47698,-6682770 47667,-6682795 47639,-6682815 47612,-6682835 47589,-6682848 47561,-6682859 47494,-6682889 47450,-6682903 47430,-6682910 47416,-6682914 47395,-6682918 47370,-6682920 47333,-6682916 47289,-6682918 47254,-6682917 47232,-6682883 47212,-6682892 47181,-6682903 47156,-6682912 47085,-6682924 47025,-6682938 46996,-6682942 46962,-6682944 46934,-6682943 46917,-6682943 46898,-6682944 46876,-6682947 46852,-6682951 46783,-6682970 46756,-6682985 46687,-6683032 46655,-6683047 46635,-6683054 46624,-6683060 46616,-6683063 46607,-6683066 46597,-6683067 46585,-6683068 46572,-6683067 46549,-6683063 46502,-6683047 46470,-6683029 46453,-6683023 46445,-6683021 46435,-6683021 46419,-6683023 46403,-6683004 46380,-6682997 46295,-6683016 46249,-6683029 46177,-6683052 46129,-6683072 46054,-6683093 46015,-6683099 45979,-6683106 45896,-6683105 45752,-6683120 45698,-6683090 45683,-6683090 45615,-6683092 45544,-6683089 45539,-6683077 45521,-6683057 45498,-6683043 45422,-6683037 45387,-6683031 45357,-6683030 45289,-6683041 45275,-6683040 45271,-6683039 45269,-6683036 45261,-6683014 45261,-6682988 45271,-6682964 45292,-6682923 45299,-6682905 45306,-6682886 45317,-6682843 45270,-6682792 45234,-6682745 45219,-6682728 45203,-6682703 45191,-6682682 45149,-6682644 45132,-6682629 45112,-6682614 45083,-6682594 45063,-6682581 45054,-6682575 45045,-6682571 45034,-6682568 45015,-6682563 44998,-6682555 44989,-6682542 44981,-6682535 44974,-6682531 44968,-6682529 44957,-6682526 44943,-6682527 44917,-6682523 44874,-6682525 44654,-6682495 44627,-6682478 44579,-6682458 44567,-6682453 44557,-6682449 44546,-6682447 44538,-6682446 44533,-6682447 44518,-6682451 44512,-6682455 44500,-6682465 44489,-6682480 44471,-6682499 44457,-6682516 44446,-6682527 44420,-6682549 44357,-6682598 44268,-6682659 44263,-6682663 44232,-6682686 44251,-6682741 44262,-6682778 44269,-6682797 44276,-6682812 44287,-6682832 44301,-6682855 44328,-6682894 44333,-6682902 44349,-6682921 44406,-6683001 44482,-6683084 44511,-6683147 44527,-6683185 44533,-6683200 44540,-6683233 44546,-6683248 44552,-6683264 44582,-6683330 44582,-6683337 44611,-6683377 44629,-6683413 44635,-6683427 44650,-6683473 44657,-6683505 44659,-6683519 44660,-6683535 44660,-6683551 44655,-6683593 44653,-6683627 44649,-6683672 44638,-6683736 44635,-6683773 44631,-6683810 44632,-6683833 44648,-6683891 44670,-6683966 44674,-6683976 44680,-6684000 44702,-6684049 44717,-6684094 44732,-6684131 44754,-6684204 44795,-6684306 44815,-6684359 44834,-6684422 44843,-6684446 44853,-6684470 44899,-6684567 44912,-6684590 44919,-6684594 44949,-6684582 44957,-6684574 44963,-6684569 44970,-6684565 44977,-6684562 44991,-6684560 45007,-6684562 45014,-6684565 45022,-6684569 45031,-6684576 45040,-6684583 45054,-6684599 45059,-6684605 45067,-6684619 45079,-6684652 45095,-6684675 45169,-6684807 45176,-6684823 45201,-6684907 45206,-6684922 45223,-6684965 45235,-6685004 45245,-6685027 45258,-6685053 45284,-6685102 45328,-6685190 45350,-6685220 45372,-6685253 45401,-6685284 45424,-6685327 45463,-6685389 45481,-6685415 45504,-6685441 45549,-6685496 45628,-6685574 45682,-6685636 45704,-6685656 45714,-6685667 45723,-6685677 45739,-6685699 45840,-6685816 45895,-6685890 45911,-6685918 45923,-6685934 45930,-6685953 45949,-6686010 45960,-6686030 45972,-6686065 46030,-6686187 46062,-6686234 46091,-6686282 46135,-6686373 46167,-6686442 46176,-6686472 46184,-6686493 46211,-6686580 46218,-6686624 46230,-6686659 46239,-6686672 46263,-6686727 46276,-6686766 46332,-6686879 46345,-6686914 46348,-6686921 46344,-6686939 46345,-6686961 46389,-6687060 46406,-6687096 46452,-6687190 46488,-6687258 46501,-6687287 46514,-6687315 46548,-6687405 46579,-6687476 46548,-6687517 46522,-6687563 46519,-6687574 46518,-6687582 46520,-6687598 46522,-6687600 46524,-6687601 46526,-6687601 46531,-6687600 46534,-6687601 46538,-6687604 46540,-6687608 46542,-6687615 46541,-6687621 46556,-6687641 46607,-6687716 46637,-6687777 46654,-6687804 46664,-6687819 46665,-6687837 46666,-6687847 46668,-6687852 46676,-6687869 46679,-6687882 46680,-6687900 46679,-6687913 46684,-6687933 46696,-6687964 46718,-6688002 46730,-6688013 46736,-6688023 46737,-6688024 46740,-6688025 46747,-6688024 46776,-6688032 46794,-6688035 46802,-6688039 46805,-6688042 46816,-6688058 46848,-6688087 46852,-6688089 46858,-6688092 46936,-6688108 46996,-6688116 47005,-6688116 47013,-6688114 47023,-6688109 47037,-6688101 47054,-6688099 47134,-6688101 47208,-6688129 47229,-6688135 47268,-6688147 47282,-6688154 47294,-6688162 47301,-6688170 47306,-6688178 47312,-6688190 47316,-6688201 47318,-6688213 47332,-6688248 47402,-6688385 47428,-6688437 47458,-6688504 47492,-6688587 47550,-6688742 47584,-6688822 47614,-6688901 47758,-6689181 47802,-6689275 47836,-6689344 47888,-6689442 47906,-6689545 47922,-6689633 47931,-6689686 47951,-6689761 47957,-6689785 47965,-6689831 47972,-6689850 47994,-6689926 47994,-6689945 47991,-6689993 47994,-6690054 47990,-6690146 47990,-6690221 48069,-6690257 48189,-6690307 48248,-6690329 48356,-6690369 48384,-6690372 48408,-6690373 48602,-6690374 48947,-6690384 49156,-6690393 49194,-6690391 49280,-6690393 49381,-6690397 49433,-6690398 49485,-6690398 49519,-6690397 49661,-6690390 49775,-6690386 49776,-6690401 49778,-6690415 49781,-6690430 49795,-6690464 49800,-6690479 49803,-6690494 49806,-6690512 49806,-6690530 49805,-6690546 49800,-6690574 49865,-6690636 49922,-6690662 50001,-6690702 50045,-6690723 50082,-6690739 50136,-6690761 50167,-6690764 50184,-6690768 50209,-6690776 50233,-6690787 50269,-6690810 50284,-6690818 50301,-6690825 50316,-6690831 50327,-6690833 50350,-6690837 50388,-6690827 50418,-6690821 50448,-6690818 50463,-6690818 50488,-6690852 50595,-6690999 50626,-6691037 50662,-6691074 50695,-6691123 50727,-6691170 50761,-6691219 50818,-6691296 50840,-6691336 50840,-6691336 50826,-6691352 50809,-6691366 50795,-6691380 50782,-6691394 50773,-6691405 50761,-6691421 50750,-6691438 50692,-6691544 50665,-6691583 50638,-6691625 50627,-6691643 50612,-6691671 50595,-6691707 50574,-6691753 50566,-6691769 50541,-6691810 50529,-6691827 50515,-6691846 50485,-6691880 50422,-6691944 50387,-6691977 50353,-6692009 50300,-6692056 50329,-6692058 50420,-6692054 50493,-6692078 50539,-6692083 50627,-6692094 50725,-6692101 50780,-6692103 50841,-6692104 50903,-6692104 50957,-6692103 51040,-6692099 51194,-6692100 51325,-6692098 51410,-6692096 51573,-6692089 51717,-6692080 51830,-6692072 52062,-6692053 52065,-6692095 52080,-6692166 52092,-6692270 52259,-6692303 52191,-6692625 52144,-6692827 52130,-6692894 52121,-6692922 52204,-6692981 52336,-6693058 52362,-6693075 52414,-6693109 52472,-6693153 52509,-6693183 52531,-6693205 52605,-6693281 52667,-6693347 52816,-6693435 52836,-6693467 53033,-6693570 53167,-6693638 53037,-6693849 52988,-6693925 52933,-6693899 52940,-6693942 52943,-6693970 52944,-6693998 52942,-6694026 52936,-6694068 52905,-6694457 52892,-6694666 53035,-6694742 53157,-6694802 53237,-6694846 53384,-6694923 53533,-6694997 53613,-6694884 53648,-6694905 53812,-6694683 53842,-6694631 53886,-6694679 53923,-6694707 53933,-6694713 53988,-6694740 54029,-6694758 54129,-6694771 54152,-6694782 54172,-6694794 54190,-6694805 54204,-6694815 54236,-6694842 54261,-6694858 54281,-6694868 54301,-6694877 54323,-6694884 54355,-6694891 54362,-6694928 54382,-6694949 54426,-6695021 54461,-6695091 54454,-6695218 54442,-6695371 54441,-6695385 54440,-6695414 54435,-6695501 54426,-6695577 54421,-6695675 54414,-6695746 54413,-6695757 54409,-6695773 54403,-6695790 54399,-6695801 54386,-6695826 54405,-6695893 54460,-6696050 54491,-6696113 54505,-6696150 54514,-6696183 54521,-6696216 54537,-6696320 54555,-6696422 54566,-6696505 54576,-6696537 54590,-6696570 54602,-6696593 54623,-6696631 54648,-6696686 54666,-6696735 54679,-6696778 54668,-6696784 54640,-6696798 54633,-6696803 54617,-6696817 54604,-6696833 54598,-6696844 54580,-6696883 54572,-6696904 54569,-6696917 54566,-6696933 54564,-6696947 54563,-6696969 54549,-6696973 54504,-6696984 54504,-6697003 54503,-6697016 54501,-6697028 54494,-6697050 54490,-6697059 54481,-6697076 54470,-6697107 54466,-6697122 54462,-6697143 54459,-6697165 54458,-6697180 54459,-6697212 54473,-6697343 54448,-6697511 54447,-6697560 54450,-6697596 54458,-6697645 54467,-6697681 54478,-6697716 54377,-6697750 54364,-6697805 54384,-6697937 54403,-6698184 54424,-6698336 54375,-6698377 54419,-6698593 54407,-6698603 54384,-6698621 54361,-6698635 54307,-6698664 54278,-6698680 54249,-6698698 54226,-6698714 54203,-6698731 54177,-6698753 54152,-6698775 54140,-6698787 54152,-6698799 54175,-6698823 54199,-6698845 54217,-6698861 54250,-6698886 54372,-6698967 54485,-6699038 54519,-6699064 54540,-6699083 54556,-6699100 54570,-6699117 54582,-6699134 54593,-6699149 54602,-6699166 54619,-6699200 54654,-6699260 54635,-6699306 54494,-6699403 54459,-6699424 54441,-6699435 54425,-6699447 54401,-6699466 54383,-6699481 54359,-6699505 54346,-6699533 54314,-6699564 54291,-6699807 54289,-6699854 54288,-6699915 54289,-6699959 54289,-6699985 54291,-6700001 54296,-6700022 54300,-6700033 54306,-6700047 54316,-6700065 54319,-6700083 54233,-6700097 54164,-6700107 54111,-6700121 54039,-6700174 53981,-6700223 53973,-6700239 53965,-6700260 53961,-6700279 53960,-6700306 53957,-6700311 53948,-6700321 53939,-6700330 53929,-6700338 53919,-6700345 53898,-6700355 53881,-6700360 53826,-6700368 53785,-6700372 53743,-6700375 53737,-6700387 53721,-6700424 53711,-6700433 53704,-6700437 53696,-6700440 53689,-6700441 53682,-6700442 53674,-6700441 53666,-6700439 53653,-6700435 53639,-6700433 53631,-6700434 53622,-6700436 53615,-6700439 53609,-6700442 53602,-6700447 53596,-6700452 53592,-6700458 53587,-6700465 53586,-6700468 53585,-6700482 53583,-6700490 53580,-6700495 53576,-6700501 53567,-6700508 53558,-6700513 53531,-6700503 53490,-6700486 53482,-6700485 53472,-6700484 53463,-6700485 53454,-6700488 53446,-6700492 53438,-6700499 53431,-6700506 53426,-6700516 53424,-6700521 53423,-6700534 53423,-6700572 53420,-6700575 53415,-6700579 53405,-6700583 53399,-6700584 53393,-6700585 53382,-6700583 53374,-6700587 53357,-6700597 53344,-6700606 53331,-6700617 53312,-6700635 53286,-6700634 53254,-6700641 53244,-6700647 53238,-6700650 53232,-6700650 53226,-6700650 53221,-6700648 53216,-6700646 53212,-6700642 53208,-6700638 53206,-6700633 53199,-6700611 53197,-6700610 53183,-6700608 53164,-6700608 53150,-6700609 53135,-6700612 53121,-6700617 53121,-6700630 53119,-6700639 53114,-6700653 53112,-6700654 53104,-6700655 53098,-6700658 53093,-6700661 53089,-6700665 53086,-6700670 53083,-6700676 53082,-6700685 53028,-6700680 53010,-6700681 52999,-6700684 52989,-6700687 52979,-6700692 52969,-6700699 52961,-6700705 52954,-6700712 52945,-6700724 52826,-6700827 52748,-6700901 52733,-6700916 52676,-6700966 52611,-6701028 52602,-6701035 52596,-6701041 52590,-6701050 52586,-6701059 52579,-6701080 52574,-6701089 52570,-6701097 52567,-6701101 52564,-6701103 52548,-6701109 52539,-6701114 52526,-6701123 52454,-6701205 52420,-6701251 52399,-6701276 52332,-6701348 52323,-6701371 52318,-6701390 52299,-6701385 52298,-6701386 52295,-6701390 52292,-6701394 52291,-6701401 52291,-6701410 52295,-6701444 52303,-6701474 52278,-6701504 52271,-6701508 52267,-6701510 52263,-6701510 52254,-6701508 52235,-6701503 52212,-6701486 52209,-6701485 52204,-6701484 52198,-6701484 52193,-6701485 52187,-6701489 52181,-6701497 52175,-6701506 52171,-6701515 52169,-6701523 52168,-6701530 52168,-6701535 52169,-6701540 52175,-6701550 52184,-6701573 52183,-6701583 52173,-6701608 52155,-6701636 52138,-6701701 52132,-6701711 52131,-6701716 52131,-6701723 52131,-6701730 52133,-6701735 52138,-6701743 52148,-6701754 52137,-6701779 52113,-6701816 52088,-6701857 52079,-6701878 52074,-6701911 52072,-6701917 52070,-6701923 52060,-6701932 52057,-6701938 52054,-6701944 52053,-6701950 52051,-6701963 52049,-6701983 52049,-6701994 52059,-6702037 52059,-6702043 52058,-6702049 52055,-6702054 52052,-6702058 52044,-6702064 52027,-6702070 52007,-6702081 52003,-6702085 51982,-6702110 51971,-6702115 51943,-6702124 51921,-6702128 51880,-6702138 51874,-6702138 51865,-6702136 51859,-6702134 51856,-6702131 51852,-6702127 51849,-6702121 51847,-6702113 51846,-6702106 51848,-6702087 51848,-6702080 51845,-6702071 51842,-6702063 51840,-6702060 51837,-6702058 51831,-6702056 51816,-6702057 51808,-6702060 51774,-6702083 51764,-6702088 51757,-6702091 51740,-6702095 51729,-6702096 51716,-6702095 51704,-6702091 51686,-6702084 51672,-6702075 51662,-6702071 51644,-6702068 51638,-6702069 51627,-6702076 51619,-6702086 51614,-6702096 51610,-6702101 51604,-6702103 51601,-6702104 51578,-6702103 51544,-6702091 51530,-6702084 51520,-6702081 51500,-6702078 51489,-6702079 51482,-6702081 51469,-6702088 51450,-6702092 51442,-6702095 51426,-6702103 51419,-6702108 51412,-6702118 51398,-6702147 51378,-6702185 51368,-6702204 51359,-6702223 51345,-6702259 51302,-6702332 51288,-6702352 51271,-6702371 51253,-6702386 51246,-6702390 51239,-6702393 51231,-6702395 51217,-6702396 51203,-6702403 51198,-6702406 51189,-6702416 51170,-6702443 51163,-6702450 51154,-6702456 51146,-6702461 51138,-6702464 51132,-6702466 51127,-6702466 51121,-6702464 51116,-6702462 51111,-6702458 51107,-6702455 51105,-6702450 51103,-6702440 51103,-6702408 51105,-6702387 51122,-6702342 51131,-6702300 51129,-6702272 51127,-6702267 51123,-6702232 51120,-6702188 51117,-6702183 51110,-6702176 51100,-6702168 51094,-6702166 51085,-6702165 51076,-6702165 51065,-6702168 51055,-6702174 51047,-6702179 51040,-6702186 51027,-6702203 51023,-6702211 51017,-6702224 51013,-6702252 51012,-6702265 51012,-6702283 51014,-6702291 51017,-6702298 51021,-6702305 51032,-6702333 51036,-6702348 51037,-6702357 51037,-6702368 51035,-6702377 51032,-6702385 51028,-6702393 51023,-6702398 51018,-6702401 50997,-6702408 50973,-6702422 50957,-6702429 50949,-6702433 50940,-6702440 50928,-6702452 50912,-6702468 50889,-6702490 50881,-6702499 50869,-6702514 50859,-6702528 50853,-6702539 50848,-6702550 50845,-6702562 50844,-6702573 50844,-6702583 50848,-6702598 50877,-6702650 50892,-6702684 50908,-6702711 50940,-6702747 50947,-6702760 50958,-6702785 50970,-6702820 50981,-6702865 50983,-6702884 50982,-6702894 50980,-6702903 50969,-6702947 50946,-6702997 50940,-6703015 50934,-6703036 50931,-6703046 50922,-6703109 50918,-6703121 50910,-6703138 50905,-6703147 50893,-6703162 50883,-6703173 50861,-6703193 50856,-6703196 50850,-6703198 50844,-6703198 50838,-6703198 50819,-6703194 50814,-6703193 50808,-6703194 50793,-6703201 50784,-6703205 50774,-6703207 50765,-6703208 50739,-6703206 50735,-6703207 50727,-6703209 50719,-6703212 50709,-6703217 50698,-6703224 50687,-6703234 50677,-6703243 50670,-6703250 50665,-6703258 50659,-6703272 50640,-6703374 50636,-6703385 50630,-6703396 50624,-6703405 50618,-6703412 50603,-6703420 50598,-6703426 50588,-6703443 50584,-6703448 50569,-6703459 50560,-6703463 50548,-6703467 50510,-6703472 50375,-6703514 50118,-6703584 49773,-6703685 49822,-6703845 50004,-6704537 50011,-6704568 50105,-6704996 50183,-6705345 50245,-6705634 50329,-6706091 50363,-6706235 50414,-6706426 50454,-6706548 50531,-6706748 50565,-6706844 50595,-6706924 50716,-6707183 50750,-6707254 50893,-6707536 50925,-6707593 50985,-6707687 51028,-6707757 51043,-6707779 51058,-6707802 51168,-6707940 51293,-6708086 51450,-6708261 51581,-6708416 51719,-6708572 51847,-6708720 52055,-6708961 52057,-6708968 52076,-6708993 52100,-6709019 52121,-6709043 52177,-6709093 52238,-6709140 52402,-6709248 52442,-6709273 52608,-6709367 52619,-6709372 52635,-6709379 52656,-6709391 52719,-6709420 52780,-6709448 52811,-6709458 52826,-6709464 52911,-6709498 52958,-6709514 53048,-6709539 53087,-6709552 53385,-6709634 53524,-6709675 53615,-6709698 53691,-6709721 53796,-6709748 53831,-6709758 53902,-6709780 54141,-6709846 54301,-6709893 54460,-6709944 54547,-6709971 54815,-6710059 54866,-6710072 54964,-6710090 55074,-6710105 55128,-6710107 55160,-6710109 55252,-6710118 55370,-6710127 55485,-6710131 55540,-6710134 55676,-6710136 55821,-6710127 55884,-6710126 56011,-6710116 56092,-6710113 56155,-6710106 56217,-6710102 56351,-6710115 56509,-6710134 56631,-6710155 56794,-6710185 56848,-6710198 56907,-6710215 56983,-6710241 57032,-6710259 57124,-6710295 57147,-6710303 57173,-6710311 57253,-6710332 57359,-6710349 57384,-6710355 57409,-6710361 57456,-6710377 57510,-6710393 57570,-6710407 57628,-6710419 57696,-6710436 57723,-6710442 57822,-6710468 57883,-6710485 58130,-6710557 58225,-6710583 58260,-6710583 58295,-6710585 58432,-6710597 58465,-6710602 58533,-6710612 58583,-6710622 58711,-6710642 58748,-6710651 58821,-6710666 58845,-6710669 58890,-6710675 59000,-6710684 59055,-6710688 59090,-6710691 59219,-6710697 59422,-6710708 59493,-6710709 59507,-6710710 59547,-6710715 59588,-6710721 59628,-6710729 59678,-6710740 59826,-6710755 59969,-6710780 60089,-6710776 60147,-6710776 60196,-6710775 60334,-6710768 60381,-6710766 60436,-6710766 60490,-6710766 60561,-6710769 60642,-6710755 60688,-6710749 60753,-6710741 60795,-6710726 60825,-6710717 60855,-6710709 60883,-6710703 60911,-6710699 60942,-6710695 60988,-6710692 61007,-6710689 61158,-6710659 61276,-6710634 61506,-6710580 61513,-6710580 61561,-6710577 61648,-6710575 61787,-6710576 61828,-6710580 61859,-6710582 61889,-6710583 61930,-6710582 61962,-6710580 61995,-6710577 62036,-6710572 62120,-6710571 62192,-6710569 62243,-6710567 62381,-6710558 62450,-6710556 62520,-6710557 62554,-6710559 62626,-6710564 62673,-6710564 62706,-6710561 62734,-6710556 62767,-6710548 62814,-6710534 62825,-6710531 62879,-6710521 62938,-6710514 62971,-6710512 63015,-6710511 63059,-6710511 63172,-6710506 63233,-6710507 63265,-6710507 63302,-6710505 63349,-6710500 63414,-6710490 63435,-6710487 63477,-6710483 63517,-6710481 63557,-6710481 63599,-6710482 63690,-6710491 63743,-6710503 63817,-6710517 63851,-6710522 63917,-6710529 63978,-6710531 64010,-6710530 64050,-6710528 64252,-6710532 64321,-6710545 64360,-6710551 64398,-6710556 64433,-6710559 64510,-6710561 64556,-6710561 64622,-6710559 64695,-6710563 64751,-6710564 64834,-6710565 64869,-6710564 64900,-6710564 64929,-6710563 64960,-6710562 64991,-6710564 65013,-6710565 65059,-6710571 65088,-6710572 65103,-6710571 65130,-6710567 65155,-6710561 65234,-6710550 65327,-6710533 65382,-6710528 65423,-6710526 65481,-6710546 65552,-6710573 65589,-6710589 65624,-6710605 65657,-6710622 65700,-6710646 65710,-6710651 65725,-6710656 65738,-6710658 65750,-6710659 65762,-6710659 65782,-6710657 65908,-6710604 65954,-6710585 66008,-6710575 66051,-6710569 66107,-6710563 66135,-6710560 66185,-6710558 66329,-6710546 66491,-6710529 66633,-6710512 66750,-6710495 67075,-6710468 67310,-6710450 67553,-6710429 67791,-6710417 68156,-6710402 68837,-6710367 69209,-6710355 69316,-6710353 69452,-6710355 69521,-6710356 69589,-6710358 69686,-6710362 69822,-6710371 69890,-6710376 69958,-6710381 70037,-6710389 70178,-6710406 70319,-6710425 70449,-6710445 70519,-6710457 70660,-6710483 70730,-6710497 74440,-6710793 74705,-6710814 74975,-6710838 75087,-6710845 75264,-6710858 75465,-6710878 75471,-6710526 75475,-6710166" stroke="white" stroke-width="69" /></ns0:svg>    <rect x="20" y="50"  width="250" height="25"  rx="0"  fill="#E8EDEE" fill-opacity="0.8" />    <text x="145" y="70" text-anchor="middle" font-family="Frutiger" font-weight="bold" font-size="30" fill="#AE2573">Medway</text>    <rect x="35" y="195" width="220" height="160" rx="15" fill="#724F95"/>    <g font-family="Frutiger" font-size="15" fill="white">        <g> <text x="45" y="218">Self-harm</text> <text x="245" y="218" text-anchor="end">36</text> </g>        <g> <text x="45" y="243">SEN</text> <text x="245" y="243" text-anchor="end">67</text> </g>        <g> <text x="45" y="268">Difficulties</text> <text x="245" y="268" text-anchor="end">78</text> </g>        <g> <text x="45" y="293">Child Carer</text> <text x="245" y="293" text-anchor="end">13</text> </g>        <g> <text x="45" y="318">Drinkers</text> <text x="245" y="318" text-anchor="end">43</text> </g>        <g> <text x="45" y="343">Safeguarding £</text> <text x="245" y="343" text-anchor="end">13</text> </g>    </g></svg>