<?xml version="1.0" standalone="no"?>
<!DOCTYPE svg PUBLIC "-//W3C//DTD SVG 1.1//EN"
"http://www.w3.org/Graphics/SVG/1.1/DTD/svg11.dtd">
<svg height="1800" version="1.1" width="1800" xmlns="http://www.w3.org/2000/svg"><defs><style type="text/css">@font-face {font-family: 'Frutiger';font-style: normal;font-weight: normal;src: local('Frutiger'), url('../fonts/Frutiger.woff') format('woff');}@font-face {font-family: 'Frutiger Bold';font-style: normal;font-weight: normal;src: local('Frutiger Bold'), url('../fonts/Frutiger_bold.woff') format('woff');}        </style>    </defs>    <rect x="20" y="20"  width="250" height="350" rx="15" fill="#009639" />    <rect x="35" y="35"  width="220" height="145" rx="15" fill="#E8EDEE" /><ns0:svg xmlns:ns0="http://www.w3.org/2000/svg" height="115" version="1.1" viewBox="-47041 -7134870 20169 19148" width="220" x="35" y="50"><ns0:polygon fill="#006747" points=" -35191,-7134870 -34787,-7134028 -34447,-7133326 -34432,-7133300 -34412,-7133272 -34396,-7133244 -34375,-7133195 -34306,-7133048 -34173,-7132776 -34043,-7132515 -33990,-7132408 -33939,-7132302 -33913,-7132242 -33896,-7132207 -33837,-7132096 -33828,-7132080 -33799,-7132036 -33780,-7132008 -33720,-7131935 -33687,-7131899 -33651,-7131863 -33405,-7131633 -33294,-7131533 -33087,-7131341 -32976,-7131241 -32841,-7131116 -32771,-7131048 -32632,-7130924 -32587,-7130879 -32537,-7130832 -32494,-7130786 -32427,-7130715 -32357,-7130638 -32317,-7130587 -32214,-7130461 -32179,-7130426 -32164,-7130405 -32159,-7130399 -31991,-7130199 -31844,-7130025 -31650,-7129794 -31488,-7129603 -31402,-7129498 -31320,-7129401 -31197,-7129253 -31090,-7129128 -30974,-7128988 -30954,-7129004 -30922,-7129029 -30825,-7129080 -30751,-7129114 -30717,-7129132 -30683,-7129151 -30602,-7129198 -30506,-7129246 -30483,-7129225 -30466,-7129207 -30449,-7129189 -30408,-7129141 -30360,-7129097 -30275,-7129172 -30232,-7129213 -30136,-7129303 -30019,-7129410 -29942,-7129485 -29903,-7129532 -29869,-7129551 -29856,-7129543 -29848,-7129521 -29830,-7129482 -29807,-7129446 -29782,-7129405 -29774,-7129377 -29772,-7129353 -29764,-7129332 -29746,-7129304 -29733,-7129288 -29694,-7129244 -29672,-7129224 -29655,-7129190 -29629,-7129150 -29605,-7129096 -29572,-7129044 -29562,-7129048 -29517,-7129070 -29497,-7129079 -29476,-7129087 -29433,-7129103 -29379,-7129126 -29327,-7129144 -29267,-7129160 -28842,-7129203 -28691,-7129216 -28680,-7129150 -28677,-7129061 -28665,-7128941 -28731,-7128928 -28734,-7128859 -28733,-7128820 -28727,-7128819 -28684,-7128816 -28636,-7128817 -28581,-7128817 -28520,-7128816 -28368,-7128820 -28365,-7128833 -28216,-7128838 -28133,-7128837 -28129,-7128852 -28088,-7128850 -28088,-7128802 -28092,-7128744 -28092,-7128685 -28089,-7128640 -28084,-7128598 -28086,-7128555 -28104,-7128490 -28132,-7128420 -28135,-7128409 -28116,-7128403 -28115,-7128259 -28118,-7128186 -28117,-7128111 -28122,-7128033 -28126,-7127908 -28134,-7127784 -28140,-7127721 -28162,-7127723 -28168,-7127652 -28171,-7127617 -28191,-7127462 -28266,-7127450 -28306,-7127433 -28312,-7127395 -28322,-7127279 -28324,-7127244 -28331,-7127208 -28065,-7127163 -28068,-7126717 -28315,-7126720 -28322,-7126697 -28333,-7126690 -28328,-7126649 -28327,-7126614 -28321,-7126588 -28318,-7126526 -28314,-7126516 -28319,-7126470 -28320,-7126438 -28330,-7126400 -28337,-7126362 -28337,-7126342 -28335,-7126302 -28328,-7126214 -28334,-7126190 -28345,-7126164 -28350,-7126149 -28354,-7126134 -28356,-7126119 -28358,-7126103 -28359,-7126086 -28358,-7126052 -28356,-7126035 -28352,-7126018 -28341,-7125977 -28332,-7125929 -28328,-7125886 -28323,-7125873 -28317,-7125860 -28292,-7125840 -28260,-7125818 -28251,-7125811 -28242,-7125802 -28225,-7125783 -28218,-7125773 -28207,-7125740 -28203,-7125709 -28204,-7125691 -28207,-7125682 -28211,-7125673 -28226,-7125643 -28232,-7125628 -28246,-7125585 -28259,-7125565 -28284,-7125534 -28294,-7125518 -28297,-7125492 -28292,-7125475 -28290,-7125473 -28235,-7125451 -28213,-7125439 -28193,-7125426 -28126,-7125339 -28104,-7125314 -28087,-7125294 -28063,-7125280 -28002,-7125262 -27970,-7125249 -27950,-7125234 -27941,-7125222 -27933,-7125210 -27928,-7125179 -27928,-7125153 -27933,-7125126 -27942,-7125103 -27956,-7125078 -27965,-7125068 -28001,-7125023 -28015,-7124999 -28018,-7124982 -28014,-7124962 -28000,-7124938 -27945,-7124906 -27921,-7124886 -27895,-7124858 -27880,-7124837 -27872,-7124820 -27867,-7124812 -27859,-7124800 -27842,-7124779 -27833,-7124770 -27817,-7124764 -27788,-7124766 -27758,-7124771 -27695,-7124774 -27636,-7124773 -27584,-7124756 -27516,-7124747 -27492,-7124746 -27450,-7124755 -27416,-7124759 -27366,-7124752 -27346,-7124748 -27326,-7124733 -27311,-7124714 -27307,-7124676 -27305,-7124645 -27309,-7124575 -27307,-7124541 -27286,-7124477 -27269,-7124437 -27263,-7124422 -27262,-7124408 -27261,-7124380 -27262,-7124311 -27262,-7124290 -27259,-7124266 -27255,-7124241 -27240,-7124175 -27226,-7124142 -27211,-7124117 -27173,-7124071 -27135,-7124033 -27122,-7124021 -27093,-7123999 -27033,-7123962 -27002,-7123954 -26955,-7123952 -26943,-7123952 -26923,-7123947 -26903,-7123939 -26885,-7123924 -26876,-7123902 -26872,-7123874 -26874,-7123843 -26883,-7123797 -26887,-7123770 -26919,-7123674 -26924,-7123647 -26927,-7123622 -26924,-7123605 -26916,-7123558 -26916,-7123539 -26921,-7123500 -26937,-7123422 -26957,-7123337 -26986,-7123239 -26996,-7123197 -27000,-7123173 -27009,-7123141 -27019,-7123130 -27100,-7123088 -27184,-7123036 -27217,-7123020 -27231,-7123011 -27244,-7123002 -27257,-7122992 -27293,-7122960 -27297,-7122953 -27303,-7122948 -27325,-7122924 -27341,-7122884 -27341,-7122864 -27339,-7122851 -27336,-7122837 -27317,-7122800 -27304,-7122771 -27268,-7122692 -27245,-7122642 -27239,-7122626 -27233,-7122598 -27235,-7122587 -27237,-7122575 -27250,-7122536 -27267,-7122506 -27287,-7122482 -27338,-7122437 -27381,-7122401 -27397,-7122382 -27407,-7122358 -27411,-7122328 -27406,-7122299 -27396,-7122271 -27362,-7122209 -27335,-7122179 -27287,-7122117 -27266,-7122080 -27260,-7122067 -27258,-7122033 -27260,-7122002 -27270,-7121971 -27285,-7121933 -27296,-7121899 -27312,-7121834 -27316,-7121820 -27322,-7121807 -27336,-7121781 -27363,-7121749 -27382,-7121729 -27436,-7121686 -27472,-7121640 -27487,-7121615 -27500,-7121581 -27511,-7121545 -27527,-7121457 -27533,-7121410 -27532,-7121377 -27528,-7121340 -27529,-7121295 -27530,-7121284 -27528,-7121254 -27525,-7121242 -27510,-7121183 -27506,-7121172 -27495,-7121150 -27483,-7121130 -27476,-7121120 -27452,-7121098 -27444,-7121092 -27434,-7121086 -27388,-7121065 -27362,-7121056 -27348,-7121052 -27316,-7121048 -27305,-7121046 -27223,-7121026 -27194,-7121018 -27168,-7121008 -27161,-7121005 -27120,-7120970 -27103,-7120953 -27079,-7120923 -27053,-7120887 -27049,-7120878 -27041,-7120841 -27040,-7120828 -27041,-7120821 -27049,-7120776 -27069,-7120734 -27096,-7120695 -27123,-7120664 -27144,-7120643 -27157,-7120626 -27162,-7120616 -27175,-7120577 -27182,-7120564 -27229,-7120485 -27248,-7120465 -27268,-7120441 -27300,-7120408 -27509,-7120180 -27670,-7120002 -27850,-7119806 -28057,-7119577 -28593,-7118990 -28757,-7119110 -28853,-7119182 -28929,-7119244 -28955,-7119265 -29003,-7119300 -29089,-7119372 -29157,-7119421 -29232,-7119470 -29290,-7119504 -29436,-7119596 -29526,-7119654 -29583,-7119686 -29702,-7119761 -29756,-7119792 -29861,-7119857 -29960,-7119912 -30034,-7119948 -30063,-7119959 -30116,-7119976 -30220,-7120006 -30295,-7120029 -30412,-7120066 -30540,-7120105 -30604,-7120121 -30635,-7120130 -30697,-7120149 -30782,-7120178 -30809,-7120185 -30835,-7120192 -31022,-7120222 -31049,-7120227 -31108,-7120243 -31154,-7120253 -31223,-7120265 -31296,-7120278 -31384,-7120291 -31485,-7120310 -31641,-7120334 -31716,-7120344 -31782,-7120355 -31875,-7120366 -31919,-7120374 -31961,-7120379 -32063,-7120393 -32082,-7120394 -32125,-7120390 -32186,-7120381 -32222,-7120377 -32258,-7120374 -32329,-7120371 -32407,-7120359 -32522,-7120345 -32667,-7120327 -32749,-7120319 -32855,-7120306 -32953,-7120297 -33009,-7120290 -33036,-7120285 -33175,-7120258 -33304,-7120236 -33343,-7120229 -33381,-7120221 -33454,-7120201 -33771,-7120100 -33817,-7120087 -33865,-7120072 -33992,-7120037 -34055,-7120014 -34106,-7119992 -34195,-7119957 -34232,-7119944 -34253,-7119936 -34414,-7119882 -34478,-7119859 -34566,-7119829 -34651,-7119801 -34748,-7119765 -34844,-7119733 -34955,-7119694 -35039,-7119665 -35259,-7119580 -35407,-7119537 -35478,-7119512 -35543,-7119482 -35600,-7119457 -35742,-7119402 -35828,-7119374 -35909,-7119344 -36060,-7119285 -36129,-7119258 -36162,-7119245 -36259,-7119202 -36338,-7119175 -36369,-7119162 -36465,-7119122 -36534,-7119094 -36600,-7119065 -36735,-7119003 -36844,-7118948 -36945,-7118905 -37003,-7118870 -37064,-7118840 -37104,-7118816 -37161,-7118786 -37203,-7118758 -37269,-7118712 -37371,-7118648 -37565,-7118535 -37647,-7118485 -37685,-7118462 -37742,-7118425 -37793,-7118383 -37842,-7118333 -37902,-7118278 -37965,-7118230 -38020,-7118186 -38071,-7118153 -38143,-7118110 -38218,-7118062 -38305,-7118011 -38485,-7117897 -38529,-7117871 -38645,-7117808 -38704,-7117773 -38795,-7117716 -38915,-7117643 -39105,-7117534 -39187,-7117488 -39257,-7117443 -39325,-7117402 -39452,-7117343 -39471,-7117335 -39617,-7117278 -39669,-7117248 -39780,-7117195 -39867,-7117163 -39966,-7117124 -40041,-7117089 -40169,-7117015 -40323,-7116954 -40377,-7116930 -40552,-7116857 -40734,-7116777 -40845,-7116738 -40892,-7116718 -40937,-7116699 -41006,-7116661 -41093,-7116630 -41213,-7116578 -41429,-7116493 -41516,-7116454 -41605,-7116429 -41689,-7116402 -41791,-7116367 -41913,-7116331 -42042,-7116283 -42187,-7116240 -42561,-7116126 -42632,-7116104 -42774,-7116056 -42928,-7116016 -43144,-7115954 -43236,-7115926 -43345,-7115907 -43459,-7115877 -43567,-7115861 -43576,-7115859 -43635,-7115847 -43806,-7115809 -44053,-7115765 -44148,-7115746 -44229,-7115735 -44311,-7115722 -44312,-7115722 -44404,-7116010 -44519,-7116387 -44610,-7116667 -44683,-7116900 -44736,-7117078 -44789,-7117241 -44842,-7117394 -44860,-7117445 -44875,-7117513 -44896,-7117587 -45041,-7117552 -45127,-7117528 -45304,-7117491 -45328,-7117489 -45407,-7117469 -45611,-7117422 -45634,-7117416 -45670,-7117403 -45710,-7117390 -45794,-7117367 -45814,-7117360 -45874,-7117343 -45912,-7117331 -46041,-7117291 -46142,-7117258 -46193,-7117244 -46226,-7117232 -46263,-7117221 -46279,-7117215 -46309,-7117201 -46328,-7117196 -46339,-7117196 -46344,-7117196 -46351,-7117201 -46358,-7117196 -46362,-7117190 -46383,-7117181 -46491,-7117149 -46635,-7117104 -46665,-7117225 -46699,-7117345 -46741,-7117519 -46835,-7117895 -46773,-7117919 -46801,-7118022 -46773,-7118038 -46826,-7118196 -46875,-7118218 -46891,-7118294 -46909,-7118419 -46922,-7118494 -46937,-7118628 -46948,-7118701 -46987,-7118694 -46995,-7118749 -47005,-7118844 -47015,-7118975 -47037,-7119165 -47041,-7119273 -47037,-7119322 -47032,-7119368 -47010,-7119469 -46991,-7119520 -46967,-7119570 -46941,-7119613 -46906,-7119662 -46869,-7119719 -46827,-7119780 -46781,-7119858 -46749,-7119923 -46737,-7119974 -46732,-7120004 -46729,-7120045 -46724,-7120194 -46436,-7120289 -46421,-7120364 -46409,-7120409 -46396,-7120435 -46377,-7120453 -46362,-7120494 -46356,-7120532 -46361,-7120558 -46355,-7120604 -46351,-7120621 -46339,-7120653 -46316,-7120676 -46304,-7120699 -46296,-7120732 -46286,-7120785 -46271,-7120837 -46252,-7120873 -46226,-7120914 -46168,-7120998 -46142,-7121044 -46111,-7121093 -46076,-7121156 -46040,-7121147 -46032,-7121160 -46011,-7121192 -45988,-7121233 -45976,-7121263 -45971,-7121261 -45944,-7121300 -45926,-7121332 -45909,-7121372 -45899,-7121402 -45886,-7121418 -45856,-7121452 -45860,-7121457 -45851,-7121473 -45820,-7121528 -45808,-7121532 -45801,-7121561 -45811,-7121569 -45807,-7121579 -45800,-7121604 -45787,-7121638 -45766,-7121679 -45760,-7121711 -45716,-7121855 -45695,-7121861 -45640,-7121870 -45641,-7121880 -45655,-7121944 -45687,-7122051 -45730,-7122208 -45745,-7122264 -45561,-7122281 -45515,-7122282 -45420,-7122295 -45379,-7122304 -45325,-7122337 -45238,-7122382 -45103,-7122454 -44920,-7122552 -44833,-7122598 -44756,-7122601 -44743,-7122948 -44924,-7122952 -44933,-7122953 -45164,-7122959 -45262,-7122964 -45357,-7122964 -45450,-7122969 -45546,-7122976 -45842,-7122990 -45980,-7122997 -46393,-7123022 -46560,-7123030 -46730,-7123042 -46919,-7123060 -47014,-7123056 -47015,-7123080 -47010,-7123121 -47007,-7123135 -46996,-7123166 -46987,-7123188 -46974,-7123219 -46966,-7123234 -46927,-7123292 -46916,-7123311 -46905,-7123330 -46886,-7123370 -46882,-7123389 -46874,-7123443 -46861,-7123493 -46859,-7123510 -46858,-7123528 -46868,-7123554 -46869,-7123578 -46868,-7123613 -46857,-7123654 -46886,-7123661 -46866,-7123752 -46833,-7123865 -46819,-7123927 -46811,-7123957 -46782,-7124073 -46747,-7124217 -46685,-7124463 -46614,-7124726 -46554,-7124952 -46538,-7124953 -46505,-7124948 -46454,-7124944 -46417,-7124937 -46370,-7124937 -46337,-7124945 -46302,-7124958 -46295,-7124968 -46288,-7124968 -46280,-7124968 -46262,-7124959 -46221,-7124956 -45982,-7124954 -45744,-7124945 -45502,-7124943 -45482,-7124944 -45463,-7125051 -45448,-7125138 -45430,-7125258 -45411,-7125340 -45381,-7125352 -45381,-7125361 -45352,-7125387 -45205,-7125517 -45155,-7125561 -45078,-7125632 -45052,-7125684 -44949,-7125746 -44931,-7125755 -44870,-7125787 -44801,-7125819 -44737,-7125847 -44694,-7125874 -44632,-7125921 -44467,-7126088 -44363,-7126192 -44324,-7126234 -44334,-7126264 -44320,-7126265 -44008,-7126254 -43883,-7126248 -43809,-7126272 -43658,-7126329 -43518,-7126390 -43471,-7126410 -43427,-7126432 -43385,-7126456 -43326,-7126502 -43266,-7126545 -43204,-7126593 -43205,-7126675 -43224,-7126898 -43125,-7126856 -43128,-7126960 -43147,-7127363 -43147,-7127441 -43160,-7127513 -43178,-7127574 -43199,-7127665 -43197,-7127714 -43201,-7127911 -43201,-7127921 -43384,-7127955 -43398,-7128042 -43474,-7128539 -43407,-7128525 -43428,-7128687 -43463,-7128994 -43473,-7129069 -43500,-7129284 -43538,-7129610 -43571,-7129909 -43611,-7130224 -43639,-7130514 -43661,-7130698 -43660,-7130698 -43581,-7130715 -43335,-7130725 -42666,-7130756 -42410,-7130775 -42162,-7130790 -41715,-7130821 -41595,-7130835 -41409,-7130847 -41241,-7130861 -41238,-7130861 -41002,-7130878 -40774,-7130892 -40644,-7130907 -40619,-7130924 -40588,-7130953 -40535,-7130937 -40343,-7131013 -40135,-7131090 -40049,-7131118 -40030,-7131121 -40025,-7131122 -40008,-7131126 -39980,-7131172 -39971,-7131193 -39968,-7131206 -39965,-7131226 -39964,-7131249 -39964,-7131268 -39966,-7131283 -39970,-7131300 -39975,-7131317 -39982,-7131333 -39990,-7131348 -39998,-7131359 -40014,-7131378 -40044,-7131407 -40057,-7131417 -40075,-7131429 -40097,-7131443 -40115,-7131452 -40154,-7131468 -40175,-7131475 -40220,-7131481 -40267,-7131487 -40369,-7131497 -40390,-7131503 -40404,-7131509 -40415,-7131516 -40427,-7131524 -40441,-7131537 -40455,-7131550 -40464,-7131561 -40472,-7131572 -40481,-7131586 -40490,-7131602 -40497,-7131618 -40503,-7131635 -40507,-7131654 -40566,-7131829 -40589,-7131902 -40630,-7132047 -40634,-7132066 -40646,-7132125 -40659,-7132260 -40674,-7132401 -40690,-7132459 -40695,-7132552 -40703,-7132663 -40714,-7132891 -40711,-7132918 -40706,-7132943 -40702,-7132951 -40692,-7132973 -40683,-7132988 -40667,-7133009 -40635,-7133043 -40605,-7133069 -40572,-7133096 -40531,-7133123 -40480,-7133164 -40443,-7133197 -40413,-7133230 -40358,-7133277 -40347,-7133288 -40335,-7133298 -40322,-7133307 -40311,-7133312 -40283,-7133323 -40218,-7133337 -40159,-7133339 -40098,-7133347 -39992,-7133351 -39950,-7133353 -39857,-7133371 -39839,-7133376 -39827,-7133380 -39807,-7133389 -39782,-7133402 -39759,-7133416 -39715,-7133446 -39702,-7133457 -39662,-7133493 -39595,-7133564 -39558,-7133609 -39545,-7133629 -39521,-7133662 -39514,-7133672 -39497,-7133705 -39444,-7133828 -39395,-7133937 -39385,-7133974 -39370,-7133976 -39369,-7133976 -38981,-7134023 -38805,-7134047 -38824,-7134161 -38709,-7134173 -38603,-7134186 -38488,-7134206 -38490,-7134255 -38491,-7134291 -38495,-7134306 -38511,-7134356 -38525,-7134372 -38380,-7134384 -38294,-7134388 -38166,-7134400 -38160,-7134389 -37995,-7134403 -37696,-7134437 -37688,-7134362 -37642,-7134368 -37581,-7134383 -37535,-7134405 -37451,-7134434 -37371,-7134454 -37298,-7134474 -37167,-7134508 -37053,-7134530 -36866,-7134567 -36833,-7134572 -36765,-7134583 -36678,-7134591 -36575,-7134606 -36479,-7134616 -36404,-7134626 -36345,-7134630 -36233,-7134644 -36189,-7134648 -36100,-7134662 -36006,-7134683 -35967,-7134695 -35946,-7134699 -35917,-7134702 -35886,-7134702 -35493,-7134797 -35191,-7134870" stroke="#006747" stroke-width="39" /></ns0:svg>    <rect x="20" y="50"  width="250" height="25"  rx="0"  fill="#006747" fill-opacity="0.8" />    <text x="145" y="70" text-anchor="middle" font-family="Frutiger" font-weight="bold" font-size="20" fill="white">Kingston upon Hull</text>    <rect x="35" y="195" width="220" height="160" rx="15" fill="#78BE20"/>    <g font-family="Frutiger" font-size="15" fill="#231F20">        <g> <text x="45" y="218">Self-harm</text> <text x="245" y="218" text-anchor="end">34</text> </g>        <g> <text x="45" y="243">SEN</text> <text x="245" y="243" text-anchor="end">17</text> </g>        <g> <text x="45" y="268">Difficulties</text> <text x="245" y="268" text-anchor="end">74</text> </g>        <g> <text x="45" y="293">Child Carer</text> <text x="245" y="293" text-anchor="end">13</text> </g>        <g> <text x="45" y="318">Drinkers</text> <text x="245" y="318" text-anchor="end">43</text> </g>        <g> <text x="45" y="343">Safeguarding £</text> <text x="245" y="343" text-anchor="end">25</text> </g>    </g></svg>