<?xml version="1.0" standalone="no"?>
<!DOCTYPE svg PUBLIC "-//W3C//DTD SVG 1.1//EN"
"http://www.w3.org/Graphics/SVG/1.1/DTD/svg11.dtd">
<svg height="390" version="1.1" width="290" xmlns="http://www.w3.org/2000/svg"><defs><style type="text/css">@font-face {font-family: 'Frutiger';font-style: normal;font-weight: normal;src: local('Frutiger'), url('../fonts/Frutiger.woff') format('woff');}@font-face {font-family: 'Frutiger Bold';font-style: normal;font-weight: normal;src: local('Frutiger Bold'), url('../fonts/Frutiger_bold.woff') format('woff');}        </style>    </defs>    <rect x="20" y="20"  width="250" height="350" rx="15" fill="#005EB8" />    <rect x="35" y="35"  width="220" height="145" rx="15" fill="white" /><ns0:svg xmlns:ns0="http://www.w3.org/2000/svg" height="115" version="1.1" viewBox="-704482 -6435513 5905 6044" width="220" x="35" y="50"><ns0:polygon fill="#003087" points=" -701138,-6435454 -701109,-6435420 -701095,-6435409 -701090,-6435406 -701085,-6435405 -701071,-6435405 -701066,-6435404 -701050,-6435398 -701041,-6435396 -700971,-6435402 -700947,-6435398 -700935,-6435397 -700916,-6435391 -700891,-6435387 -700876,-6435382 -700854,-6435378 -700837,-6435372 -700832,-6435369 -700829,-6435366 -700828,-6435363 -700827,-6435360 -700834,-6435330 -700832,-6435324 -700831,-6435321 -700817,-6435308 -700815,-6435304 -700813,-6435294 -700812,-6435292 -700810,-6435290 -700799,-6435292 -700796,-6435291 -700793,-6435289 -700783,-6435281 -700779,-6435279 -700762,-6435279 -700750,-6435277 -700722,-6435261 -700720,-6435261 -700711,-6435266 -700707,-6435266 -700703,-6435266 -700700,-6435264 -700697,-6435261 -700694,-6435253 -700692,-6435246 -700691,-6435235 -700689,-6435230 -700684,-6435228 -700678,-6435226 -700673,-6435225 -700671,-6435226 -700661,-6435232 -700654,-6435233 -700642,-6435230 -700637,-6435229 -700625,-6435232 -700622,-6435232 -700579,-6435219 -700576,-6435217 -700572,-6435211 -700565,-6435196 -700557,-6435187 -700553,-6435187 -700534,-6435192 -700522,-6435201 -700506,-6435208 -700487,-6435210 -700485,-6435210 -700475,-6435216 -700471,-6435217 -700463,-6435216 -700453,-6435225 -700429,-6435244 -700398,-6435259 -700377,-6435273 -700356,-6435283 -700348,-6435285 -700340,-6435286 -700327,-6435282 -700309,-6435281 -700295,-6435278 -700291,-6435278 -700289,-6435279 -700281,-6435283 -700277,-6435284 -700272,-6435283 -700265,-6435280 -700257,-6435274 -700241,-6435260 -700238,-6435259 -700225,-6435260 -700208,-6435256 -700204,-6435254 -700198,-6435250 -700180,-6435230 -700176,-6435224 -700176,-6435221 -700182,-6435218 -700186,-6435216 -700188,-6435215 -700191,-6435208 -700193,-6435193 -700194,-6435189 -700202,-6435178 -700206,-6435176 -700218,-6435174 -700222,-6435173 -700226,-6435170 -700236,-6435159 -700241,-6435150 -700246,-6435138 -700247,-6435135 -700250,-6435134 -700252,-6435133 -700260,-6435139 -700263,-6435141 -700266,-6435140 -700267,-6435139 -700269,-6435130 -700269,-6435097 -700267,-6435089 -700264,-6435085 -700260,-6435081 -700254,-6435081 -700247,-6435083 -700247,-6435084 -700250,-6435091 -700248,-6435092 -700244,-6435091 -700241,-6435089 -700237,-6435081 -700226,-6435067 -700213,-6435057 -700211,-6435055 -700209,-6435051 -700208,-6435041 -700205,-6435034 -700199,-6435023 -700194,-6434985 -700193,-6434982 -700187,-6434980 -700184,-6434977 -700181,-6434959 -700176,-6434944 -700152,-6434912 -700147,-6434900 -700142,-6434894 -700128,-6434883 -700120,-6434882 -700100,-6434879 -700080,-6434882 -700070,-6434882 -700057,-6434888 -700054,-6434888 -700048,-6434885 -700037,-6434880 -700027,-6434879 -700024,-6434877 -700020,-6434872 -700019,-6434869 -700020,-6434866 -700028,-6434860 -700029,-6434857 -700030,-6434844 -700031,-6434840 -700045,-6434823 -700044,-6434820 -700043,-6434818 -700030,-6434814 -700028,-6434812 -700028,-6434811 -700032,-6434800 -700031,-6434791 -700028,-6434787 -700026,-6434786 -700017,-6434785 -700015,-6434785 -700005,-6434775 -700001,-6434774 -699991,-6434773 -699975,-6434771 -699968,-6434771 -699963,-6434772 -699954,-6434779 -699950,-6434780 -699922,-6434776 -699912,-6434777 -699908,-6434777 -699882,-6434767 -699878,-6434764 -699870,-6434752 -699858,-6434739 -699846,-6434728 -699844,-6434726 -699843,-6434722 -699844,-6434718 -699845,-6434715 -699847,-6434713 -699859,-6434709 -699860,-6434708 -699870,-6434684 -699873,-6434682 -699886,-6434674 -699888,-6434672 -699902,-6434651 -699904,-6434643 -699903,-6434640 -699897,-6434629 -699889,-6434602 -699889,-6434599 -699895,-6434589 -699896,-6434585 -699894,-6434572 -699896,-6434535 -699896,-6434520 -699898,-6434506 -699897,-6434503 -699894,-6434499 -699891,-6434499 -699873,-6434516 -699870,-6434517 -699868,-6434518 -699866,-6434517 -699865,-6434515 -699864,-6434511 -699871,-6434502 -699886,-6434487 -699894,-6434481 -699900,-6434478 -699903,-6434478 -699914,-6434484 -699916,-6434484 -699919,-6434484 -699921,-6434482 -699926,-6434470 -699928,-6434462 -699927,-6434445 -699928,-6434441 -699940,-6434415 -699944,-6434411 -699950,-6434411 -699957,-6434406 -699960,-6434404 -699964,-6434394 -699965,-6434391 -699964,-6434385 -699960,-6434378 -699943,-6434355 -699934,-6434346 -699927,-6434343 -699923,-6434342 -699918,-6434344 -699910,-6434350 -699907,-6434351 -699903,-6434351 -699892,-6434346 -699888,-6434347 -699880,-6434349 -699875,-6434351 -699872,-6434354 -699872,-6434357 -699873,-6434360 -699875,-6434361 -699879,-6434362 -699892,-6434360 -699898,-6434360 -699902,-6434362 -699907,-6434365 -699910,-6434368 -699911,-6434369 -699909,-6434371 -699896,-6434375 -699892,-6434378 -699887,-6434384 -699863,-6434400 -699858,-6434406 -699857,-6434409 -699857,-6434411 -699859,-6434412 -699860,-6434411 -699863,-6434408 -699873,-6434402 -699874,-6434402 -699875,-6434405 -699875,-6434409 -699873,-6434412 -699861,-6434418 -699847,-6434435 -699837,-6434442 -699832,-6434444 -699826,-6434444 -699816,-6434441 -699814,-6434439 -699812,-6434436 -699811,-6434433 -699815,-6434425 -699816,-6434420 -699816,-6434416 -699812,-6434409 -699806,-6434403 -699805,-6434401 -699805,-6434397 -699809,-6434390 -699819,-6434380 -699819,-6434379 -699818,-6434374 -699815,-6434370 -699811,-6434369 -699792,-6434367 -699766,-6434376 -699764,-6434375 -699753,-6434371 -699750,-6434371 -699744,-6434375 -699741,-6434376 -699730,-6434376 -699727,-6434376 -699717,-6434383 -699710,-6434388 -699708,-6434389 -699705,-6434388 -699702,-6434387 -699703,-6434374 -699702,-6434370 -699700,-6434367 -699692,-6434365 -699682,-6434366 -699672,-6434364 -699670,-6434363 -699668,-6434357 -699664,-6434354 -699660,-6434351 -699649,-6434356 -699646,-6434356 -699638,-6434351 -699627,-6434346 -699626,-6434343 -699627,-6434334 -699623,-6434326 -699622,-6434319 -699621,-6434318 -699617,-6434316 -699613,-6434315 -699610,-6434315 -699608,-6434317 -699600,-6434325 -699595,-6434328 -699591,-6434330 -699573,-6434332 -699559,-6434337 -699551,-6434341 -699528,-6434351 -699517,-6434352 -699503,-6434355 -699492,-6434362 -699491,-6434362 -699474,-6434357 -699462,-6434354 -699459,-6434355 -699450,-6434361 -699445,-6434363 -699442,-6434362 -699437,-6434359 -699431,-6434354 -699425,-6434348 -699401,-6434352 -699381,-6434346 -699377,-6434347 -699375,-6434348 -699362,-6434359 -699354,-6434362 -699343,-6434358 -699328,-6434353 -699303,-6434343 -699294,-6434343 -699289,-6434345 -699275,-6434350 -699272,-6434350 -699265,-6434347 -699254,-6434345 -699225,-6434341 -699221,-6434340 -699209,-6434333 -699207,-6434331 -699207,-6434328 -699211,-6434320 -699212,-6434317 -699211,-6434307 -699211,-6434304 -699217,-6434295 -699217,-6434293 -699212,-6434263 -699212,-6434253 -699208,-6434216 -699203,-6434200 -699201,-6434191 -699202,-6434175 -699195,-6434153 -699193,-6434150 -699191,-6434148 -699189,-6434149 -699186,-6434152 -699184,-6434152 -699183,-6434151 -699180,-6434147 -699180,-6434139 -699174,-6434131 -699174,-6434129 -699175,-6434127 -699178,-6434124 -699181,-6434122 -699186,-6434122 -699190,-6434117 -699193,-6434112 -699194,-6434106 -699207,-6434083 -699210,-6434076 -699211,-6434070 -699210,-6434063 -699196,-6434045 -699192,-6434041 -699184,-6434038 -699180,-6434038 -699175,-6434040 -699170,-6434042 -699165,-6434046 -699160,-6434050 -699155,-6434063 -699151,-6434082 -699145,-6434093 -699144,-6434095 -699146,-6434098 -699158,-6434114 -699158,-6434117 -699142,-6434143 -699135,-6434147 -699134,-6434161 -699132,-6434164 -699130,-6434166 -699128,-6434166 -699121,-6434163 -699114,-6434159 -699109,-6434156 -699101,-6434145 -699098,-6434144 -699093,-6434149 -699089,-6434158 -699085,-6434163 -699080,-6434168 -699078,-6434169 -699069,-6434170 -699058,-6434170 -699054,-6434168 -699038,-6434159 -699036,-6434158 -699033,-6434161 -699023,-6434177 -699018,-6434182 -699014,-6434184 -699007,-6434184 -698981,-6434177 -698973,-6434169 -698966,-6434160 -698955,-6434152 -698950,-6434149 -698939,-6434149 -698920,-6434144 -698893,-6434133 -698878,-6434125 -698848,-6434106 -698837,-6434100 -698831,-6434096 -698826,-6434092 -698820,-6434082 -698811,-6434066 -698810,-6434061 -698809,-6434046 -698804,-6434032 -698802,-6434020 -698801,-6434019 -698798,-6434017 -698793,-6434016 -698789,-6434017 -698776,-6434024 -698774,-6434024 -698771,-6434024 -698760,-6434020 -698749,-6434016 -698747,-6434015 -698731,-6433991 -698722,-6433985 -698719,-6433980 -698718,-6433979 -698709,-6433976 -698706,-6433974 -698705,-6433971 -698705,-6433966 -698708,-6433953 -698710,-6433940 -698709,-6433938 -698705,-6433934 -698701,-6433930 -698695,-6433928 -698689,-6433931 -698685,-6433932 -698681,-6433932 -698675,-6433930 -698673,-6433926 -698672,-6433923 -698672,-6433919 -698674,-6433913 -698679,-6433906 -698692,-6433890 -698696,-6433883 -698698,-6433881 -698699,-6433877 -698710,-6433852 -698713,-6433848 -698726,-6433835 -698726,-6433833 -698724,-6433831 -698718,-6433827 -698718,-6433824 -698719,-6433821 -698720,-6433819 -698737,-6433810 -698773,-6433797 -698793,-6433792 -698829,-6433780 -698863,-6433772 -698869,-6433772 -698895,-6433775 -698906,-6433781 -698908,-6433787 -698910,-6433789 -698919,-6433790 -698933,-6433796 -698947,-6433800 -698968,-6433815 -698972,-6433818 -698977,-6433824 -698980,-6433828 -698984,-6433841 -698987,-6433845 -698992,-6433849 -698995,-6433851 -698999,-6433851 -699017,-6433844 -699028,-6433842 -699040,-6433843 -699063,-6433841 -699082,-6433843 -699089,-6433844 -699100,-6433850 -699105,-6433850 -699113,-6433856 -699114,-6433857 -699120,-6433855 -699129,-6433856 -699130,-6433857 -699132,-6433868 -699134,-6433874 -699140,-6433876 -699145,-6433874 -699149,-6433871 -699155,-6433863 -699159,-6433847 -699162,-6433832 -699161,-6433820 -699160,-6433816 -699153,-6433799 -699150,-6433788 -699150,-6433766 -699149,-6433756 -699150,-6433751 -699160,-6433738 -699156,-6433734 -699153,-6433728 -699155,-6433722 -699177,-6433701 -699179,-6433698 -699180,-6433696 -699178,-6433686 -699179,-6433681 -699182,-6433665 -699180,-6433657 -699174,-6433645 -699173,-6433644 -699170,-6433643 -699162,-6433648 -699159,-6433648 -699155,-6433646 -699148,-6433636 -699138,-6433630 -699128,-6433617 -699108,-6433602 -699102,-6433598 -699098,-6433596 -699085,-6433596 -699073,-6433594 -699069,-6433594 -699057,-6433599 -699044,-6433599 -699033,-6433594 -699030,-6433594 -699027,-6433595 -699018,-6433600 -699008,-6433603 -698999,-6433601 -698986,-6433593 -698981,-6433591 -698975,-6433589 -698973,-6433589 -698972,-6433591 -698972,-6433593 -698974,-6433596 -698986,-6433609 -698990,-6433616 -698988,-6433619 -698986,-6433620 -698985,-6433621 -698973,-6433617 -698970,-6433617 -698967,-6433620 -698960,-6433630 -698959,-6433631 -698954,-6433632 -698945,-6433630 -698933,-6433625 -698919,-6433624 -698916,-6433623 -698905,-6433617 -698898,-6433616 -698885,-6433616 -698865,-6433612 -698851,-6433605 -698835,-6433598 -698818,-6433588 -698802,-6433577 -698790,-6433562 -698789,-6433556 -698786,-6433548 -698784,-6433536 -698783,-6433510 -698778,-6433487 -698774,-6433465 -698761,-6433439 -698754,-6433428 -698750,-6433421 -698740,-6433393 -698740,-6433387 -698740,-6433378 -698742,-6433372 -698752,-6433356 -698753,-6433353 -698753,-6433349 -698752,-6433345 -698740,-6433329 -698738,-6433324 -698737,-6433318 -698738,-6433305 -698747,-6433287 -698748,-6433272 -698752,-6433262 -698751,-6433260 -698745,-6433250 -698745,-6433247 -698746,-6433243 -698748,-6433238 -698751,-6433235 -698755,-6433233 -698757,-6433232 -698764,-6433215 -698768,-6433211 -698792,-6433193 -698809,-6433179 -698818,-6433173 -698825,-6433166 -698834,-6433157 -698842,-6433150 -698848,-6433143 -698854,-6433130 -698860,-6433120 -698864,-6433111 -698866,-6433109 -698869,-6433106 -698880,-6433104 -698882,-6433102 -698883,-6433100 -698882,-6433097 -698881,-6433094 -698875,-6433089 -698875,-6433088 -698882,-6433080 -698893,-6433074 -698894,-6433072 -698892,-6433064 -698890,-6433057 -698884,-6433050 -698877,-6433045 -698865,-6433038 -698863,-6433036 -698861,-6433033 -698861,-6433029 -698868,-6433016 -698869,-6433007 -698870,-6433004 -698881,-6432993 -698882,-6432991 -698881,-6432988 -698877,-6432985 -698875,-6432985 -698865,-6432990 -698862,-6432991 -698859,-6432989 -698858,-6432985 -698858,-6432981 -698863,-6432971 -698863,-6432970 -698860,-6432967 -698853,-6432962 -698853,-6432959 -698853,-6432956 -698860,-6432948 -698861,-6432946 -698857,-6432942 -698848,-6432943 -698835,-6432949 -698824,-6432952 -698803,-6432952 -698792,-6432955 -698781,-6432953 -698778,-6432953 -698766,-6432955 -698762,-6432955 -698758,-6432956 -698731,-6432959 -698719,-6432961 -698695,-6432953 -698678,-6432945 -698675,-6432944 -698667,-6432945 -698653,-6432939 -698648,-6432938 -698634,-6432940 -698607,-6432941 -698590,-6432938 -698586,-6432936 -698585,-6432934 -698584,-6432932 -698585,-6432928 -698587,-6432923 -698595,-6432915 -698596,-6432915 -698604,-6432915 -698610,-6432912 -698621,-6432912 -698640,-6432908 -698649,-6432902 -698662,-6432901 -698666,-6432899 -698669,-6432897 -698670,-6432894 -698670,-6432892 -698668,-6432889 -698660,-6432886 -698647,-6432884 -698644,-6432881 -698641,-6432877 -698643,-6432867 -698644,-6432855 -698645,-6432848 -698643,-6432834 -698643,-6432832 -698647,-6432823 -698659,-6432806 -698665,-6432795 -698665,-6432790 -698664,-6432784 -698661,-6432781 -698659,-6432779 -698648,-6432775 -698648,-6432773 -698651,-6432769 -698665,-6432761 -698672,-6432754 -698677,-6432746 -698680,-6432740 -698680,-6432738 -698679,-6432737 -698675,-6432733 -698667,-6432726 -698666,-6432723 -698665,-6432713 -698664,-6432711 -698657,-6432705 -698655,-6432704 -698649,-6432704 -698629,-6432713 -698615,-6432723 -698603,-6432729 -698596,-6432733 -698591,-6432735 -698586,-6432734 -698580,-6432731 -698578,-6432729 -698577,-6432722 -698579,-6432713 -698579,-6432697 -698584,-6432669 -698588,-6432659 -698591,-6432654 -698596,-6432648 -698600,-6432645 -698610,-6432640 -698614,-6432638 -698620,-6432637 -698633,-6432637 -698636,-6432636 -698642,-6432632 -698648,-6432626 -698651,-6432622 -698652,-6432615 -698652,-6432603 -698652,-6432596 -698651,-6432594 -698646,-6432593 -698645,-6432592 -698646,-6432582 -698652,-6432558 -698652,-6432555 -698651,-6432546 -698652,-6432543 -698657,-6432536 -698658,-6432532 -698655,-6432522 -698654,-6432520 -698653,-6432519 -698642,-6432522 -698639,-6432522 -698633,-6432519 -698632,-6432515 -698634,-6432509 -698641,-6432501 -698649,-6432486 -698652,-6432478 -698652,-6432477 -698647,-6432472 -698644,-6432472 -698635,-6432472 -698632,-6432471 -698614,-6432462 -698606,-6432455 -698605,-6432452 -698604,-6432448 -698604,-6432444 -698604,-6432443 -698619,-6432439 -698621,-6432437 -698623,-6432434 -698623,-6432431 -698620,-6432411 -698618,-6432409 -698611,-6432408 -698608,-6432405 -698607,-6432404 -698609,-6432399 -698621,-6432385 -698643,-6432374 -698650,-6432374 -698662,-6432378 -698677,-6432391 -698682,-6432397 -698683,-6432398 -698695,-6432397 -698714,-6432400 -698725,-6432408 -698728,-6432408 -698738,-6432403 -698747,-6432401 -698748,-6432400 -698749,-6432396 -698750,-6432391 -698749,-6432389 -698736,-6432377 -698735,-6432374 -698734,-6432372 -698735,-6432365 -698738,-6432361 -698741,-6432359 -698746,-6432357 -698754,-6432356 -698783,-6432354 -698786,-6432352 -698793,-6432348 -698802,-6432338 -698812,-6432331 -698814,-6432328 -698817,-6432325 -698814,-6432318 -698814,-6432315 -698815,-6432310 -698818,-6432306 -698822,-6432305 -698826,-6432305 -698829,-6432307 -698842,-6432318 -698849,-6432322 -698852,-6432323 -698854,-6432321 -698854,-6432313 -698850,-6432291 -698849,-6432277 -698846,-6432256 -698844,-6432255 -698841,-6432255 -698837,-6432258 -698833,-6432262 -698828,-6432269 -698827,-6432270 -698824,-6432269 -698821,-6432267 -698819,-6432265 -698816,-6432255 -698813,-6432234 -698813,-6432225 -698810,-6432219 -698805,-6432213 -698803,-6432208 -698803,-6432203 -698803,-6432189 -698794,-6432156 -698792,-6432128 -698788,-6432109 -698786,-6432074 -698785,-6432072 -698782,-6432070 -698766,-6432064 -698761,-6432061 -698761,-6432060 -698762,-6432056 -698764,-6432053 -698768,-6432052 -698782,-6432053 -698802,-6432043 -698811,-6432040 -698820,-6432035 -698833,-6432032 -698837,-6432029 -698840,-6432025 -698843,-6432015 -698843,-6432013 -698834,-6432006 -698832,-6432003 -698830,-6431999 -698829,-6431995 -698830,-6431993 -698833,-6431991 -698855,-6431987 -698866,-6431983 -698873,-6431980 -698877,-6431976 -698880,-6431965 -698889,-6431954 -698894,-6431944 -698894,-6431920 -698896,-6431905 -698892,-6431892 -698889,-6431868 -698876,-6431842 -698876,-6431839 -698880,-6431828 -698882,-6431824 -698895,-6431812 -698903,-6431799 -698918,-6431783 -698927,-6431777 -698930,-6431776 -698943,-6431776 -698949,-6431774 -698963,-6431763 -698966,-6431760 -698967,-6431749 -698969,-6431746 -698982,-6431741 -698990,-6431736 -699010,-6431710 -699012,-6431699 -699021,-6431690 -699021,-6431687 -699018,-6431681 -699019,-6431678 -699026,-6431665 -699026,-6431661 -699026,-6431660 -699015,-6431643 -699007,-6431633 -699001,-6431617 -698994,-6431603 -698989,-6431598 -698986,-6431596 -698976,-6431592 -698975,-6431591 -698974,-6431588 -698974,-6431585 -698982,-6431570 -698989,-6431565 -698994,-6431563 -699006,-6431562 -699015,-6431556 -699019,-6431555 -699023,-6431555 -699026,-6431557 -699032,-6431566 -699038,-6431573 -699065,-6431599 -699067,-6431600 -699080,-6431603 -699085,-6431605 -699096,-6431613 -699101,-6431615 -699105,-6431616 -699109,-6431615 -699112,-6431614 -699118,-6431609 -699119,-6431608 -699131,-6431610 -699132,-6431609 -699139,-6431598 -699143,-6431595 -699148,-6431598 -699151,-6431601 -699154,-6431608 -699155,-6431608 -699161,-6431605 -699169,-6431596 -699173,-6431593 -699177,-6431594 -699189,-6431601 -699198,-6431604 -699210,-6431601 -699212,-6431599 -699215,-6431595 -699216,-6431591 -699215,-6431579 -699217,-6431574 -699219,-6431574 -699221,-6431575 -699223,-6431576 -699226,-6431587 -699228,-6431589 -699231,-6431590 -699233,-6431589 -699238,-6431576 -699249,-6431564 -699252,-6431555 -699251,-6431548 -699252,-6431546 -699254,-6431545 -699267,-6431543 -699271,-6431546 -699276,-6431554 -699278,-6431554 -699287,-6431554 -699293,-6431556 -699310,-6431570 -699313,-6431577 -699323,-6431582 -699341,-6431590 -699344,-6431592 -699346,-6431598 -699347,-6431619 -699350,-6431630 -699354,-6431635 -699365,-6431640 -699366,-6431643 -699366,-6431650 -699367,-6431653 -699371,-6431657 -699375,-6431660 -699378,-6431660 -699380,-6431659 -699386,-6431655 -699388,-6431654 -699390,-6431655 -699398,-6431662 -699400,-6431662 -699402,-6431661 -699406,-6431657 -699407,-6431657 -699410,-6431658 -699420,-6431664 -699422,-6431664 -699428,-6431660 -699433,-6431661 -699438,-6431663 -699441,-6431665 -699443,-6431668 -699442,-6431678 -699443,-6431680 -699445,-6431682 -699448,-6431682 -699453,-6431678 -699462,-6431667 -699463,-6431666 -699469,-6431667 -699470,-6431669 -699467,-6431677 -699467,-6431682 -699468,-6431684 -699473,-6431685 -699478,-6431682 -699481,-6431679 -699482,-6431661 -699483,-6431658 -699493,-6431651 -699496,-6431647 -699496,-6431645 -699492,-6431639 -699492,-6431636 -699493,-6431633 -699497,-6431630 -699498,-6431628 -699496,-6431619 -699500,-6431614 -699500,-6431611 -699500,-6431608 -699498,-6431605 -699494,-6431600 -699452,-6431581 -699439,-6431577 -699426,-6431571 -699397,-6431561 -699390,-6431561 -699362,-6431568 -699352,-6431569 -699343,-6431569 -699333,-6431565 -699321,-6431558 -699314,-6431550 -699309,-6431541 -699304,-6431537 -699293,-6431532 -699276,-6431528 -699255,-6431515 -699230,-6431496 -699210,-6431476 -699206,-6431468 -699203,-6431458 -699198,-6431451 -699186,-6431446 -699183,-6431442 -699179,-6431424 -699177,-6431420 -699170,-6431406 -699169,-6431401 -699170,-6431388 -699170,-6431385 -699166,-6431373 -699157,-6431343 -699153,-6431337 -699148,-6431330 -699141,-6431323 -699136,-6431319 -699125,-6431312 -699122,-6431309 -699122,-6431298 -699123,-6431294 -699128,-6431286 -699129,-6431281 -699128,-6431277 -699117,-6431261 -699111,-6431256 -699104,-6431251 -699087,-6431246 -699074,-6431237 -699073,-6431236 -699074,-6431232 -699083,-6431222 -699084,-6431219 -699084,-6431216 -699083,-6431213 -699073,-6431202 -699072,-6431200 -699073,-6431199 -699078,-6431194 -699091,-6431188 -699095,-6431188 -699098,-6431188 -699115,-6431196 -699137,-6431217 -699152,-6431224 -699166,-6431226 -699177,-6431232 -699185,-6431237 -699187,-6431253 -699185,-6431263 -699184,-6431275 -699185,-6431277 -699193,-6431283 -699193,-6431285 -699193,-6431289 -699184,-6431309 -699178,-6431321 -699176,-6431326 -699176,-6431334 -699179,-6431335 -699200,-6431330 -699208,-6431330 -699217,-6431333 -699227,-6431331 -699231,-6431332 -699232,-6431334 -699241,-6431349 -699247,-6431356 -699255,-6431361 -699265,-6431362 -699289,-6431372 -699302,-6431375 -699308,-6431375 -699312,-6431374 -699324,-6431368 -699332,-6431368 -699333,-6431369 -699334,-6431371 -699334,-6431380 -699334,-6431383 -699336,-6431385 -699339,-6431387 -699343,-6431388 -699346,-6431388 -699362,-6431384 -699366,-6431385 -699380,-6431390 -699385,-6431393 -699393,-6431403 -699396,-6431404 -699405,-6431403 -699418,-6431406 -699424,-6431406 -699427,-6431405 -699437,-6431398 -699440,-6431397 -699465,-6431403 -699468,-6431401 -699478,-6431391 -699488,-6431373 -699496,-6431351 -699505,-6431331 -699506,-6431327 -699504,-6431322 -699499,-6431319 -699486,-6431313 -699484,-6431312 -699484,-6431310 -699485,-6431307 -699487,-6431305 -699499,-6431297 -699500,-6431295 -699501,-6431277 -699500,-6431275 -699496,-6431271 -699481,-6431264 -699478,-6431261 -699477,-6431258 -699476,-6431250 -699474,-6431247 -699463,-6431240 -699462,-6431238 -699462,-6431233 -699468,-6431220 -699468,-6431209 -699468,-6431197 -699464,-6431186 -699462,-6431182 -699455,-6431184 -699451,-6431183 -699446,-6431180 -699440,-6431170 -699430,-6431156 -699428,-6431148 -699428,-6431145 -699429,-6431142 -699434,-6431139 -699447,-6431139 -699452,-6431141 -699473,-6431154 -699492,-6431161 -699501,-6431166 -699505,-6431165 -699508,-6431163 -699511,-6431157 -699518,-6431138 -699519,-6431131 -699519,-6431130 -699515,-6431127 -699511,-6431125 -699507,-6431127 -699504,-6431127 -699502,-6431126 -699500,-6431123 -699501,-6431114 -699500,-6431109 -699499,-6431104 -699495,-6431096 -699492,-6431092 -699473,-6431072 -699471,-6431070 -699448,-6431059 -699446,-6431057 -699444,-6431055 -699445,-6431050 -699451,-6431042 -699450,-6431039 -699450,-6431028 -699446,-6431011 -699445,-6431004 -699445,-6430999 -699447,-6430996 -699450,-6430993 -699454,-6430991 -699459,-6430991 -699463,-6430992 -699481,-6431003 -699509,-6431013 -699516,-6431017 -699530,-6431032 -699535,-6431028 -699547,-6431012 -699557,-6431005 -699558,-6431002 -699558,-6430999 -699552,-6430987 -699543,-6430968 -699543,-6430966 -699543,-6430962 -699546,-6430958 -699548,-6430955 -699562,-6430948 -699583,-6430931 -699605,-6430920 -699613,-6430911 -699615,-6430907 -699615,-6430904 -699612,-6430898 -699600,-6430885 -699598,-6430881 -699598,-6430878 -699603,-6430869 -699613,-6430862 -699622,-6430856 -699633,-6430849 -699641,-6430846 -699644,-6430846 -699652,-6430850 -699661,-6430849 -699663,-6430850 -699672,-6430856 -699674,-6430856 -699682,-6430852 -699685,-6430852 -699691,-6430855 -699702,-6430863 -699715,-6430866 -699716,-6430867 -699716,-6430870 -699714,-6430875 -699708,-6430881 -699707,-6430883 -699708,-6430885 -699714,-6430888 -699731,-6430902 -699734,-6430903 -699740,-6430905 -699750,-6430905 -699766,-6430900 -699778,-6430895 -699786,-6430894 -699802,-6430894 -699810,-6430895 -699832,-6430901 -699852,-6430900 -699856,-6430899 -699859,-6430897 -699864,-6430889 -699865,-6430886 -699862,-6430876 -699863,-6430873 -699865,-6430870 -699872,-6430866 -699873,-6430861 -699871,-6430854 -699871,-6430848 -699870,-6430843 -699867,-6430832 -699867,-6430828 -699868,-6430817 -699864,-6430806 -699866,-6430797 -699873,-6430786 -699873,-6430781 -699870,-6430771 -699871,-6430768 -699876,-6430761 -699882,-6430762 -699885,-6430761 -699889,-6430759 -699893,-6430746 -699889,-6430739 -699888,-6430736 -699888,-6430726 -699886,-6430724 -699884,-6430721 -699881,-6430720 -699880,-6430721 -699872,-6430727 -699871,-6430726 -699868,-6430722 -699868,-6430719 -699868,-6430716 -699881,-6430706 -699886,-6430704 -699911,-6430700 -699919,-6430700 -699921,-6430699 -699921,-6430697 -699920,-6430695 -699914,-6430689 -699908,-6430686 -699906,-6430684 -699906,-6430680 -699907,-6430678 -699909,-6430677 -699913,-6430676 -699917,-6430675 -699925,-6430678 -699935,-6430672 -699938,-6430671 -699969,-6430686 -699974,-6430688 -699991,-6430691 -699994,-6430693 -700015,-6430709 -700024,-6430713 -700076,-6430729 -700090,-6430729 -700111,-6430724 -700136,-6430721 -700141,-6430720 -700145,-6430717 -700146,-6430715 -700147,-6430710 -700149,-6430706 -700152,-6430703 -700157,-6430704 -700168,-6430710 -700172,-6430711 -700181,-6430708 -700193,-6430712 -700207,-6430709 -700211,-6430709 -700247,-6430716 -700261,-6430717 -700266,-6430718 -700268,-6430719 -700269,-6430721 -700267,-6430730 -700270,-6430732 -700272,-6430732 -700285,-6430724 -700292,-6430723 -700294,-6430723 -700296,-6430725 -700296,-6430726 -700296,-6430734 -700298,-6430737 -700301,-6430737 -700307,-6430735 -700310,-6430736 -700316,-6430744 -700319,-6430749 -700319,-6430753 -700319,-6430756 -700312,-6430765 -700311,-6430766 -700313,-6430773 -700317,-6430779 -700321,-6430782 -700326,-6430785 -700330,-6430786 -700333,-6430785 -700339,-6430782 -700341,-6430782 -700345,-6430782 -700362,-6430790 -700370,-6430792 -700379,-6430793 -700385,-6430792 -700390,-6430791 -700401,-6430786 -700408,-6430786 -700442,-6430768 -700469,-6430762 -700486,-6430754 -700496,-6430753 -700513,-6430754 -700517,-6430755 -700524,-6430757 -700529,-6430760 -700550,-6430781 -700567,-6430794 -700573,-6430795 -700577,-6430793 -700581,-6430793 -700584,-6430790 -700588,-6430789 -700589,-6430788 -700581,-6430777 -700579,-6430771 -700578,-6430765 -700579,-6430760 -700581,-6430756 -700583,-6430755 -700589,-6430756 -700606,-6430763 -700615,-6430770 -700618,-6430773 -700619,-6430778 -700618,-6430786 -700621,-6430799 -700625,-6430806 -700634,-6430810 -700646,-6430825 -700651,-6430834 -700654,-6430836 -700664,-6430838 -700667,-6430840 -700686,-6430853 -700689,-6430858 -700690,-6430859 -700698,-6430857 -700701,-6430858 -700706,-6430861 -700717,-6430874 -700724,-6430885 -700727,-6430889 -700730,-6430892 -700734,-6430893 -700744,-6430890 -700757,-6430882 -700766,-6430874 -700780,-6430870 -700790,-6430862 -700792,-6430861 -700809,-6430856 -700810,-6430857 -700813,-6430862 -700819,-6430868 -700819,-6430872 -700815,-6430880 -700815,-6430881 -700817,-6430883 -700822,-6430884 -700831,-6430879 -700834,-6430879 -700839,-6430879 -700841,-6430881 -700848,-6430888 -700849,-6430892 -700847,-6430902 -700848,-6430903 -700855,-6430905 -700855,-6430906 -700848,-6430915 -700850,-6430916 -700853,-6430916 -700859,-6430916 -700877,-6430910 -700881,-6430907 -700885,-6430901 -700890,-6430893 -700899,-6430885 -700904,-6430878 -700914,-6430866 -700920,-6430856 -700921,-6430852 -700923,-6430843 -700922,-6430837 -700920,-6430825 -700922,-6430812 -700922,-6430809 -700920,-6430805 -700918,-6430803 -700916,-6430803 -700911,-6430806 -700905,-6430814 -700902,-6430817 -700898,-6430819 -700895,-6430820 -700892,-6430819 -700892,-6430816 -700893,-6430809 -700898,-6430795 -700898,-6430785 -700894,-6430765 -700884,-6430747 -700883,-6430743 -700883,-6430741 -700887,-6430739 -700888,-6430740 -700891,-6430743 -700899,-6430754 -700900,-6430753 -700900,-6430740 -700906,-6430731 -700907,-6430728 -700906,-6430717 -700907,-6430713 -700908,-6430712 -700915,-6430714 -700932,-6430709 -700934,-6430707 -700932,-6430699 -700930,-6430697 -700929,-6430695 -700919,-6430696 -700917,-6430696 -700915,-6430693 -700915,-6430690 -700915,-6430687 -700917,-6430684 -700919,-6430682 -700922,-6430681 -700925,-6430681 -700938,-6430685 -700940,-6430685 -700949,-6430667 -700950,-6430664 -700946,-6430657 -700946,-6430656 -700953,-6430651 -700956,-6430651 -700960,-6430653 -700964,-6430655 -700974,-6430665 -700976,-6430666 -700988,-6430665 -701012,-6430672 -701028,-6430671 -701034,-6430673 -701039,-6430679 -701042,-6430694 -701043,-6430696 -701046,-6430698 -701049,-6430700 -701060,-6430699 -701063,-6430699 -701066,-6430701 -701069,-6430703 -701071,-6430709 -701075,-6430713 -701081,-6430717 -701089,-6430714 -701091,-6430714 -701099,-6430719 -701104,-6430729 -701109,-6430732 -701115,-6430734 -701128,-6430732 -701130,-6430732 -701142,-6430737 -701180,-6430738 -701210,-6430733 -701221,-6430736 -701223,-6430735 -701229,-6430733 -701232,-6430733 -701241,-6430735 -701251,-6430734 -701256,-6430735 -701266,-6430740 -701269,-6430741 -701276,-6430742 -701279,-6430743 -701284,-6430746 -701316,-6430770 -701328,-6430773 -701338,-6430780 -701339,-6430784 -701335,-6430790 -701332,-6430792 -701327,-6430794 -701323,-6430794 -701309,-6430787 -701296,-6430785 -701286,-6430788 -701283,-6430795 -701284,-6430798 -701308,-6430807 -701329,-6430813 -701348,-6430826 -701370,-6430844 -701372,-6430847 -701372,-6430854 -701372,-6430855 -701376,-6430857 -701390,-6430865 -701391,-6430867 -701386,-6430875 -701385,-6430878 -701386,-6430881 -701395,-6430889 -701407,-6430894 -701412,-6430895 -701413,-6430899 -701415,-6430915 -701417,-6430919 -701419,-6430921 -701430,-6430922 -701432,-6430923 -701432,-6430925 -701432,-6430933 -701433,-6430942 -701432,-6430949 -701432,-6430955 -701435,-6430959 -701447,-6430969 -701450,-6430971 -701459,-6430973 -701467,-6430974 -701472,-6430974 -701478,-6430973 -701482,-6430971 -701485,-6430965 -701486,-6430961 -701484,-6430958 -701479,-6430953 -701479,-6430950 -701480,-6430941 -701479,-6430939 -701478,-6430938 -701471,-6430941 -701468,-6430941 -701468,-6430940 -701472,-6430935 -701474,-6430933 -701488,-6430929 -701502,-6430921 -701516,-6430914 -701520,-6430916 -701522,-6430918 -701525,-6430924 -701531,-6430927 -701541,-6430926 -701553,-6430924 -701559,-6430925 -701570,-6430928 -701571,-6430928 -701575,-6430921 -701579,-6430908 -701582,-6430904 -701584,-6430903 -701586,-6430903 -701596,-6430906 -701598,-6430906 -701601,-6430902 -701603,-6430898 -701603,-6430895 -701602,-6430894 -701591,-6430884 -701590,-6430882 -701591,-6430880 -701598,-6430871 -701599,-6430868 -701599,-6430866 -701598,-6430864 -701596,-6430864 -701595,-6430865 -701585,-6430874 -701583,-6430874 -701581,-6430871 -701580,-6430859 -701572,-6430845 -701573,-6430843 -701575,-6430841 -701586,-6430834 -701590,-6430833 -701602,-6430833 -701606,-6430831 -701608,-6430828 -701608,-6430825 -701603,-6430817 -701599,-6430809 -701592,-6430800 -701583,-6430782 -701581,-6430770 -701579,-6430765 -701566,-6430756 -701556,-6430746 -701556,-6430743 -701559,-6430735 -701559,-6430733 -701556,-6430730 -701543,-6430726 -701537,-6430722 -701523,-6430709 -701520,-6430707 -701488,-6430693 -701457,-6430681 -701439,-6430677 -701409,-6430674 -701406,-6430675 -701398,-6430678 -701390,-6430680 -701388,-6430681 -701378,-6430699 -701357,-6430702 -701354,-6430704 -701353,-6430706 -701354,-6430709 -701356,-6430713 -701367,-6430726 -701369,-6430729 -701371,-6430739 -701370,-6430740 -701367,-6430741 -701355,-6430741 -701353,-6430742 -701349,-6430747 -701346,-6430754 -701343,-6430755 -701334,-6430756 -701329,-6430756 -701325,-6430754 -701307,-6430744 -701301,-6430738 -701299,-6430734 -701300,-6430728 -701306,-6430728 -701310,-6430726 -701311,-6430724 -701312,-6430712 -701314,-6430708 -701316,-6430704 -701322,-6430699 -701323,-6430697 -701318,-6430688 -701317,-6430683 -701317,-6430680 -701319,-6430678 -701323,-6430677 -701327,-6430679 -701332,-6430685 -701336,-6430693 -701339,-6430695 -701342,-6430695 -701346,-6430692 -701349,-6430687 -701350,-6430682 -701350,-6430678 -701341,-6430664 -701324,-6430654 -701321,-6430650 -701321,-6430647 -701325,-6430634 -701328,-6430604 -701328,-6430592 -701324,-6430577 -701324,-6430573 -701328,-6430554 -701328,-6430551 -701322,-6430532 -701322,-6430522 -701323,-6430517 -701330,-6430504 -701330,-6430502 -701329,-6430498 -701322,-6430492 -701315,-6430492 -701312,-6430491 -701312,-6430489 -701313,-6430481 -701313,-6430477 -701311,-6430476 -701303,-6430473 -701295,-6430467 -701284,-6430452 -701284,-6430451 -701284,-6430448 -701287,-6430446 -701289,-6430445 -701292,-6430445 -701299,-6430449 -701309,-6430462 -701313,-6430462 -701317,-6430462 -701326,-6430456 -701334,-6430456 -701339,-6430454 -701342,-6430451 -701343,-6430448 -701342,-6430442 -701342,-6430440 -701349,-6430427 -701357,-6430420 -701359,-6430419 -701370,-6430417 -701383,-6430413 -701386,-6430408 -701388,-6430407 -701391,-6430408 -701394,-6430410 -701398,-6430418 -701399,-6430419 -701400,-6430419 -701409,-6430412 -701410,-6430412 -701413,-6430413 -701419,-6430422 -701421,-6430422 -701429,-6430418 -701432,-6430414 -701433,-6430412 -701430,-6430402 -701431,-6430398 -701434,-6430395 -701437,-6430394 -701439,-6430394 -701453,-6430400 -701460,-6430402 -701466,-6430402 -701478,-6430402 -701483,-6430401 -701495,-6430395 -701498,-6430395 -701498,-6430396 -701496,-6430403 -701499,-6430412 -701498,-6430418 -701496,-6430426 -701493,-6430433 -701491,-6430436 -701487,-6430437 -701474,-6430438 -701472,-6430439 -701462,-6430447 -701460,-6430452 -701460,-6430455 -701462,-6430456 -701469,-6430456 -701494,-6430446 -701512,-6430446 -701521,-6430444 -701524,-6430441 -701530,-6430433 -701529,-6430417 -701531,-6430413 -701540,-6430399 -701542,-6430394 -701538,-6430381 -701539,-6430368 -701533,-6430367 -701531,-6430366 -701529,-6430360 -701529,-6430351 -701528,-6430348 -701527,-6430345 -701524,-6430344 -701522,-6430345 -701520,-6430346 -701521,-6430353 -701526,-6430370 -701526,-6430372 -701525,-6430374 -701523,-6430376 -701521,-6430376 -701519,-6430375 -701509,-6430360 -701505,-6430359 -701497,-6430360 -701496,-6430359 -701495,-6430357 -701497,-6430345 -701496,-6430338 -701486,-6430332 -701483,-6430328 -701481,-6430325 -701480,-6430321 -701479,-6430320 -701469,-6430314 -701468,-6430311 -701468,-6430289 -701466,-6430280 -701463,-6430273 -701460,-6430269 -701448,-6430255 -701445,-6430247 -701446,-6430245 -701448,-6430243 -701455,-6430240 -701457,-6430239 -701457,-6430237 -701453,-6430232 -701451,-6430231 -701447,-6430231 -701443,-6430234 -701438,-6430241 -701435,-6430241 -701432,-6430238 -701432,-6430233 -701434,-6430228 -701437,-6430224 -701443,-6430218 -701444,-6430214 -701443,-6430211 -701442,-6430208 -701440,-6430206 -701436,-6430204 -701434,-6430203 -701423,-6430205 -701417,-6430202 -701413,-6430197 -701413,-6430192 -701413,-6430190 -701406,-6430185 -701393,-6430182 -701391,-6430181 -701387,-6430177 -701384,-6430172 -701384,-6430168 -701385,-6430165 -701393,-6430160 -701394,-6430157 -701395,-6430155 -701395,-6430145 -701393,-6430142 -701390,-6430139 -701387,-6430140 -701384,-6430140 -701376,-6430138 -701370,-6430135 -701366,-6430131 -701363,-6430126 -701362,-6430120 -701365,-6430108 -701362,-6430104 -701359,-6430102 -701355,-6430102 -701355,-6430099 -701353,-6430095 -701338,-6430085 -701335,-6430082 -701334,-6430079 -701333,-6430076 -701336,-6430064 -701335,-6430047 -701338,-6430037 -701330,-6430027 -701328,-6430021 -701329,-6430018 -701331,-6430014 -701338,-6430005 -701342,-6429995 -701345,-6429984 -701347,-6429976 -701347,-6429969 -701346,-6429963 -701342,-6429950 -701342,-6429947 -701343,-6429945 -701353,-6429939 -701370,-6429932 -701375,-6429928 -701380,-6429923 -701387,-6429909 -701392,-6429905 -701405,-6429897 -701408,-6429894 -701410,-6429889 -701408,-6429877 -701409,-6429875 -701415,-6429870 -701411,-6429860 -701411,-6429857 -701415,-6429846 -701418,-6429843 -701421,-6429841 -701425,-6429840 -701429,-6429842 -701440,-6429851 -701443,-6429852 -701446,-6429852 -701450,-6429849 -701454,-6429842 -701459,-6429836 -701462,-6429834 -701471,-6429832 -701489,-6429820 -701502,-6429814 -701507,-6429810 -701510,-6429806 -701511,-6429799 -701510,-6429791 -701516,-6429783 -701526,-6429775 -701529,-6429769 -701529,-6429767 -701525,-6429762 -701501,-6429749 -701495,-6429737 -701493,-6429733 -701478,-6429723 -701474,-6429719 -701471,-6429714 -701471,-6429709 -701473,-6429705 -701476,-6429703 -701481,-6429701 -701484,-6429701 -701498,-6429703 -701503,-6429694 -701520,-6429678 -701520,-6429676 -701516,-6429668 -701517,-6429666 -701523,-6429664 -701524,-6429663 -701523,-6429660 -701518,-6429651 -701518,-6429648 -701526,-6429642 -701527,-6429640 -701525,-6429635 -701526,-6429632 -701527,-6429630 -701539,-6429629 -701540,-6429626 -701539,-6429623 -701531,-6429612 -701530,-6429609 -701531,-6429606 -701532,-6429606 -701536,-6429607 -701565,-6429624 -701568,-6429624 -701570,-6429623 -701571,-6429622 -701569,-6429615 -701567,-6429612 -701564,-6429609 -701547,-6429599 -701544,-6429596 -701541,-6429592 -701539,-6429587 -701539,-6429582 -701539,-6429581 -701551,-6429569 -701555,-6429567 -701558,-6429566 -701562,-6429566 -701566,-6429567 -701572,-6429571 -701576,-6429575 -701597,-6429597 -701609,-6429608 -701611,-6429602 -701611,-6429591 -701612,-6429587 -701616,-6429583 -701618,-6429583 -701624,-6429586 -701637,-6429600 -701651,-6429608 -701655,-6429610 -701668,-6429609 -701666,-6429607 -701672,-6429595 -701674,-6429593 -701676,-6429592 -701686,-6429592 -701688,-6429591 -701690,-6429586 -701691,-6429582 -701691,-6429577 -701690,-6429570 -701689,-6429569 -701677,-6429557 -701675,-6429553 -701664,-6429549 -701663,-6429546 -701666,-6429529 -701669,-6429519 -701669,-6429516 -701667,-6429512 -701661,-6429507 -701636,-6429497 -701628,-6429492 -701628,-6429489 -701629,-6429483 -701631,-6429478 -701642,-6429471 -701655,-6429469 -701667,-6429471 -701677,-6429476 -701695,-6429481 -701700,-6429481 -701713,-6429475 -701721,-6429473 -701727,-6429473 -701743,-6429478 -701753,-6429490 -701768,-6429503 -701773,-6429510 -701773,-6429512 -701770,-6429514 -701759,-6429513 -701758,-6429513 -701758,-6429515 -701758,-6429517 -701762,-6429520 -701775,-6429529 -701777,-6429531 -701784,-6429548 -701788,-6429550 -701797,-6429553 -701807,-6429559 -701810,-6429563 -701815,-6429575 -701817,-6429589 -701824,-6429602 -701823,-6429604 -701822,-6429605 -701813,-6429608 -701810,-6429611 -701809,-6429615 -701812,-6429627 -701812,-6429638 -701814,-6429646 -701814,-6429650 -701810,-6429661 -701811,-6429665 -701808,-6429669 -701799,-6429680 -701798,-6429681 -701803,-6429691 -701827,-6429708 -701831,-6429709 -701832,-6429708 -701843,-6429691 -701846,-6429687 -701854,-6429682 -701869,-6429677 -701873,-6429677 -701877,-6429679 -701889,-6429700 -701890,-6429701 -701897,-6429704 -701899,-6429703 -701915,-6429691 -701919,-6429690 -701926,-6429684 -701929,-6429684 -701934,-6429690 -701936,-6429694 -701935,-6429699 -701934,-6429704 -701927,-6429714 -701927,-6429717 -701928,-6429717 -701937,-6429714 -701947,-6429706 -701950,-6429706 -701960,-6429708 -701965,-6429707 -701967,-6429705 -701972,-6429695 -701980,-6429685 -701988,-6429682 -701989,-6429680 -701991,-6429672 -701996,-6429661 -701998,-6429658 -701997,-6429657 -701990,-6429654 -701981,-6429648 -701980,-6429645 -701980,-6429642 -701982,-6429641 -701993,-6429635 -701998,-6429631 -702003,-6429624 -702006,-6429622 -702011,-6429620 -702017,-6429624 -702021,-6429630 -702027,-6429640 -702036,-6429654 -702039,-6429661 -702041,-6429672 -702039,-6429685 -702031,-6429695 -702028,-6429701 -702029,-6429712 -702029,-6429715 -702034,-6429724 -702035,-6429728 -702034,-6429734 -702034,-6429736 -702038,-6429737 -702040,-6429736 -702042,-6429734 -702044,-6429727 -702047,-6429726 -702059,-6429726 -702061,-6429725 -702063,-6429723 -702063,-6429722 -702061,-6429710 -702063,-6429707 -702065,-6429706 -702068,-6429706 -702076,-6429713 -702084,-6429733 -702085,-6429739 -702084,-6429742 -702081,-6429744 -702074,-6429747 -702073,-6429750 -702073,-6429764 -702072,-6429770 -702070,-6429774 -702071,-6429777 -702073,-6429783 -702083,-6429794 -702084,-6429796 -702084,-6429799 -702084,-6429802 -702079,-6429810 -702080,-6429821 -702077,-6429828 -702063,-6429835 -702062,-6429836 -702062,-6429844 -702067,-6429857 -702066,-6429869 -702059,-6429880 -702059,-6429885 -702063,-6429896 -702063,-6429903 -702056,-6429920 -702043,-6429948 -702043,-6429959 -702042,-6429962 -702036,-6429975 -702028,-6429982 -702026,-6429986 -702025,-6429988 -702027,-6429995 -702033,-6430013 -702036,-6430018 -702039,-6430021 -702042,-6430022 -702055,-6430022 -702064,-6430023 -702067,-6430025 -702068,-6430028 -702066,-6430033 -702063,-6430034 -702053,-6430035 -702050,-6430037 -702048,-6430040 -702047,-6430043 -702047,-6430047 -702048,-6430051 -702050,-6430052 -702053,-6430052 -702059,-6430050 -702066,-6430047 -702080,-6430037 -702083,-6430036 -702086,-6430037 -702088,-6430039 -702087,-6430042 -702083,-6430048 -702076,-6430049 -702074,-6430051 -702073,-6430055 -702073,-6430060 -702075,-6430062 -702076,-6430063 -702079,-6430062 -702090,-6430052 -702093,-6430051 -702094,-6430053 -702095,-6430059 -702088,-6430084 -702082,-6430100 -702081,-6430104 -702083,-6430110 -702086,-6430116 -702090,-6430121 -702096,-6430124 -702105,-6430127 -702117,-6430130 -702121,-6430132 -702125,-6430136 -702125,-6430139 -702120,-6430150 -702119,-6430153 -702119,-6430155 -702121,-6430156 -702148,-6430173 -702159,-6430177 -702176,-6430184 -702182,-6430189 -702188,-6430197 -702192,-6430199 -702194,-6430200 -702203,-6430198 -702209,-6430200 -702210,-6430202 -702211,-6430204 -702209,-6430213 -702209,-6430215 -702217,-6430215 -702221,-6430216 -702224,-6430217 -702226,-6430219 -702230,-6430227 -702233,-6430232 -702236,-6430242 -702237,-6430244 -702249,-6430256 -702257,-6430271 -702258,-6430277 -702256,-6430287 -702251,-6430297 -702250,-6430300 -702251,-6430313 -702252,-6430315 -702255,-6430318 -702260,-6430321 -702282,-6430320 -702283,-6430321 -702284,-6430323 -702285,-6430326 -702282,-6430334 -702283,-6430336 -702288,-6430345 -702288,-6430347 -702279,-6430350 -702278,-6430355 -702276,-6430357 -702274,-6430357 -702272,-6430356 -702270,-6430353 -702264,-6430336 -702260,-6430331 -702258,-6430331 -702256,-6430332 -702255,-6430333 -702254,-6430358 -702254,-6430361 -702263,-6430370 -702268,-6430373 -702271,-6430375 -702274,-6430374 -702278,-6430372 -702287,-6430364 -702290,-6430363 -702292,-6430364 -702293,-6430366 -702292,-6430370 -702291,-6430377 -702289,-6430383 -702287,-6430385 -702285,-6430386 -702271,-6430389 -702268,-6430391 -702266,-6430398 -702264,-6430405 -702265,-6430408 -702267,-6430412 -702277,-6430424 -702281,-6430428 -702286,-6430436 -702287,-6430438 -702292,-6430440 -702301,-6430442 -702307,-6430440 -702320,-6430432 -702325,-6430426 -702326,-6430422 -702323,-6430409 -702324,-6430407 -702325,-6430405 -702330,-6430402 -702331,-6430400 -702330,-6430393 -702331,-6430390 -702332,-6430387 -702335,-6430386 -702337,-6430386 -702341,-6430389 -702344,-6430392 -702347,-6430405 -702346,-6430409 -702344,-6430413 -702337,-6430419 -702336,-6430421 -702339,-6430428 -702350,-6430440 -702352,-6430444 -702352,-6430447 -702351,-6430449 -702345,-6430453 -702344,-6430454 -702353,-6430471 -702356,-6430472 -702362,-6430473 -702363,-6430471 -702362,-6430457 -702363,-6430454 -702369,-6430448 -702374,-6430449 -702383,-6430474 -702391,-6430483 -702396,-6430486 -702417,-6430493 -702425,-6430496 -702433,-6430504 -702436,-6430509 -702438,-6430510 -702451,-6430508 -702466,-6430507 -702473,-6430509 -702490,-6430520 -702496,-6430525 -702498,-6430529 -702506,-6430545 -702507,-6430556 -702505,-6430558 -702501,-6430558 -702495,-6430552 -702485,-6430537 -702476,-6430529 -702473,-6430528 -702467,-6430529 -702460,-6430529 -702457,-6430529 -702452,-6430535 -702449,-6430538 -702445,-6430539 -702443,-6430538 -702440,-6430536 -702430,-6430527 -702425,-6430524 -702421,-6430523 -702419,-6430526 -702418,-6430528 -702418,-6430538 -702420,-6430542 -702429,-6430549 -702445,-6430558 -702456,-6430565 -702457,-6430567 -702457,-6430574 -702462,-6430577 -702465,-6430578 -702473,-6430578 -702493,-6430586 -702502,-6430585 -702505,-6430585 -702517,-6430590 -702530,-6430591 -702534,-6430592 -702539,-6430595 -702546,-6430600 -702550,-6430603 -702551,-6430606 -702551,-6430613 -702545,-6430627 -702545,-6430629 -702548,-6430630 -702558,-6430628 -702565,-6430630 -702567,-6430631 -702570,-6430635 -702571,-6430643 -702574,-6430648 -702575,-6430648 -702577,-6430645 -702580,-6430645 -702585,-6430647 -702589,-6430649 -702590,-6430651 -702592,-6430659 -702593,-6430662 -702596,-6430665 -702599,-6430667 -702608,-6430669 -702620,-6430675 -702622,-6430676 -702628,-6430676 -702629,-6430674 -702629,-6430669 -702619,-6430651 -702601,-6430638 -702602,-6430637 -702603,-6430635 -702606,-6430634 -702612,-6430635 -702630,-6430643 -702636,-6430649 -702648,-6430654 -702654,-6430657 -702664,-6430666 -702673,-6430671 -702673,-6430673 -702673,-6430675 -702670,-6430680 -702670,-6430682 -702672,-6430684 -702675,-6430685 -702679,-6430685 -702682,-6430684 -702687,-6430675 -702689,-6430674 -702701,-6430672 -702704,-6430670 -702706,-6430667 -702708,-6430664 -702708,-6430662 -702706,-6430654 -702710,-6430634 -702711,-6430632 -702718,-6430626 -702720,-6430623 -702722,-6430620 -702722,-6430617 -702721,-6430615 -702719,-6430612 -702716,-6430609 -702708,-6430608 -702707,-6430607 -702708,-6430600 -702710,-6430597 -702719,-6430589 -702719,-6430587 -702718,-6430585 -702710,-6430579 -702708,-6430576 -702708,-6430573 -702709,-6430571 -702719,-6430561 -702724,-6430558 -702727,-6430559 -702736,-6430564 -702740,-6430564 -702753,-6430557 -702759,-6430556 -702761,-6430557 -702763,-6430559 -702767,-6430566 -702774,-6430575 -702785,-6430578 -702792,-6430582 -702804,-6430595 -702806,-6430598 -702805,-6430600 -702798,-6430611 -702793,-6430614 -702781,-6430626 -702780,-6430630 -702781,-6430632 -702783,-6430635 -702794,-6430643 -702799,-6430647 -702809,-6430659 -702819,-6430668 -702843,-6430682 -702854,-6430690 -702853,-6430703 -702853,-6430707 -702855,-6430713 -702859,-6430720 -702903,-6430768 -702914,-6430781 -702926,-6430797 -702938,-6430817 -702946,-6430826 -702966,-6430844 -702972,-6430853 -702972,-6430855 -702966,-6430859 -702952,-6430862 -702950,-6430863 -702948,-6430867 -702947,-6430878 -702945,-6430893 -702945,-6430895 -702953,-6430903 -702958,-6430914 -702957,-6430922 -702955,-6430927 -702941,-6430936 -702932,-6430941 -702927,-6430942 -702913,-6430936 -702910,-6430935 -702884,-6430944 -702867,-6430944 -702856,-6430945 -702815,-6430963 -702791,-6430976 -702779,-6430981 -702774,-6430982 -702771,-6430980 -702768,-6430977 -702768,-6430975 -702773,-6430961 -702775,-6430952 -702779,-6430916 -702788,-6430872 -702787,-6430857 -702783,-6430844 -702778,-6430834 -702776,-6430830 -702771,-6430826 -702767,-6430825 -702752,-6430823 -702744,-6430819 -702740,-6430816 -702737,-6430810 -702733,-6430806 -702728,-6430802 -702724,-6430800 -702720,-6430800 -702709,-6430801 -702707,-6430801 -702705,-6430804 -702704,-6430807 -702705,-6430814 -702710,-6430834 -702712,-6430858 -702712,-6430870 -702713,-6430876 -702721,-6430890 -702723,-6430896 -702727,-6430908 -702729,-6430927 -702730,-6430929 -702740,-6430946 -702740,-6430950 -702739,-6430955 -702731,-6430965 -702730,-6430966 -702728,-6430966 -702711,-6430948 -702707,-6430945 -702699,-6430944 -702695,-6430944 -702693,-6430945 -702677,-6430963 -702670,-6430968 -702650,-6430979 -702649,-6430982 -702654,-6430999 -702656,-6431002 -702659,-6431004 -702664,-6431005 -702673,-6431002 -702684,-6430994 -702690,-6430988 -702697,-6430980 -702701,-6430972 -702703,-6430971 -702706,-6430970 -702717,-6430970 -702719,-6430971 -702722,-6430974 -702724,-6430978 -702724,-6430981 -702717,-6430993 -702715,-6430999 -702714,-6431003 -702720,-6431011 -702725,-6431022 -702730,-6431031 -702731,-6431039 -702723,-6431048 -702721,-6431052 -702722,-6431062 -702721,-6431065 -702718,-6431067 -702710,-6431066 -702708,-6431067 -702708,-6431079 -702706,-6431088 -702707,-6431094 -702708,-6431097 -702710,-6431098 -702712,-6431098 -702717,-6431098 -702724,-6431096 -702726,-6431099 -702728,-6431106 -702728,-6431113 -702726,-6431139 -702726,-6431146 -702727,-6431148 -702729,-6431151 -702733,-6431153 -702743,-6431151 -702746,-6431152 -702750,-6431154 -702753,-6431157 -702755,-6431161 -702760,-6431182 -702770,-6431208 -702775,-6431216 -702779,-6431219 -702790,-6431227 -702805,-6431235 -702851,-6431256 -702872,-6431264 -702902,-6431268 -702918,-6431268 -702960,-6431278 -703006,-6431286 -703012,-6431286 -703030,-6431285 -703050,-6431286 -703061,-6431282 -703067,-6431279 -703072,-6431275 -703078,-6431269 -703090,-6431254 -703092,-6431252 -703096,-6431250 -703119,-6431245 -703147,-6431234 -703194,-6431221 -703202,-6431213 -703205,-6431212 -703208,-6431199 -703207,-6431184 -703206,-6431164 -703205,-6431155 -703200,-6431125 -703198,-6431091 -703199,-6431089 -703211,-6431078 -703212,-6431078 -703219,-6431082 -703238,-6431111 -703243,-6431117 -703254,-6431127 -703258,-6431127 -703264,-6431123 -703273,-6431110 -703274,-6431105 -703273,-6431102 -703267,-6431089 -703262,-6431073 -703260,-6431071 -703254,-6431069 -703253,-6431069 -703250,-6431076 -703248,-6431077 -703246,-6431077 -703243,-6431073 -703243,-6431069 -703248,-6431059 -703248,-6431055 -703241,-6431024 -703241,-6431015 -703249,-6431003 -703249,-6430999 -703244,-6430990 -703245,-6430983 -703256,-6430964 -703259,-6430956 -703259,-6430953 -703257,-6430944 -703259,-6430934 -703267,-6430919 -703268,-6430915 -703267,-6430907 -703260,-6430903 -703258,-6430903 -703255,-6430904 -703254,-6430905 -703250,-6430924 -703245,-6430931 -703240,-6430947 -703238,-6430950 -703235,-6430951 -703233,-6430951 -703230,-6430942 -703225,-6430936 -703223,-6430936 -703221,-6430939 -703220,-6430942 -703221,-6430949 -703221,-6430951 -703217,-6430960 -703217,-6430962 -703218,-6430964 -703227,-6430974 -703230,-6430980 -703229,-6430982 -703226,-6430984 -703225,-6430984 -703215,-6430977 -703213,-6430976 -703211,-6430977 -703209,-6430979 -703208,-6430984 -703207,-6430990 -703207,-6430995 -703209,-6431001 -703212,-6431007 -703222,-6431017 -703229,-6431037 -703229,-6431040 -703228,-6431042 -703226,-6431044 -703224,-6431044 -703219,-6431042 -703212,-6431038 -703204,-6431030 -703185,-6430995 -703181,-6430984 -703180,-6430979 -703181,-6430970 -703183,-6430962 -703186,-6430957 -703196,-6430945 -703197,-6430942 -703197,-6430930 -703200,-6430918 -703197,-6430911 -703192,-6430904 -703191,-6430902 -703192,-6430889 -703193,-6430883 -703204,-6430870 -703205,-6430868 -703203,-6430858 -703204,-6430856 -703205,-6430856 -703213,-6430859 -703216,-6430858 -703218,-6430856 -703219,-6430852 -703218,-6430850 -703212,-6430840 -703205,-6430833 -703204,-6430830 -703203,-6430826 -703207,-6430819 -703210,-6430821 -703213,-6430822 -703218,-6430821 -703220,-6430815 -703219,-6430812 -703214,-6430804 -703214,-6430802 -703217,-6430797 -703230,-6430785 -703233,-6430779 -703239,-6430762 -703241,-6430759 -703243,-6430756 -703251,-6430751 -703259,-6430746 -703263,-6430745 -703265,-6430739 -703265,-6430737 -703264,-6430736 -703261,-6430736 -703249,-6430739 -703246,-6430738 -703245,-6430737 -703245,-6430735 -703246,-6430732 -703250,-6430728 -703254,-6430725 -703269,-6430720 -703272,-6430720 -703285,-6430722 -703288,-6430722 -703290,-6430721 -703293,-6430716 -703295,-6430710 -703295,-6430706 -703294,-6430702 -703292,-6430701 -703281,-6430707 -703278,-6430709 -703273,-6430709 -703270,-6430705 -703270,-6430702 -703274,-6430697 -703274,-6430691 -703271,-6430687 -703271,-6430685 -703272,-6430681 -703274,-6430679 -703276,-6430678 -703286,-6430681 -703288,-6430680 -703290,-6430679 -703291,-6430676 -703291,-6430674 -703285,-6430657 -703285,-6430646 -703283,-6430639 -703277,-6430634 -703276,-6430634 -703274,-6430637 -703271,-6430637 -703260,-6430631 -703260,-6430628 -703265,-6430619 -703265,-6430617 -703262,-6430615 -703254,-6430610 -703253,-6430609 -703256,-6430601 -703258,-6430599 -703266,-6430593 -703269,-6430588 -703270,-6430583 -703271,-6430575 -703265,-6430568 -703234,-6430545 -703228,-6430538 -703227,-6430532 -703230,-6430517 -703228,-6430507 -703226,-6430504 -703213,-6430494 -703203,-6430479 -703202,-6430476 -703202,-6430473 -703204,-6430467 -703207,-6430462 -703215,-6430454 -703215,-6430452 -703214,-6430445 -703219,-6430437 -703220,-6430434 -703208,-6430425 -703190,-6430416 -703179,-6430405 -703158,-6430392 -703142,-6430379 -703136,-6430373 -703131,-6430364 -703124,-6430351 -703119,-6430334 -703115,-6430326 -703114,-6430326 -703111,-6430326 -703109,-6430327 -703104,-6430334 -703101,-6430337 -703098,-6430338 -703095,-6430338 -703090,-6430336 -703084,-6430329 -703081,-6430327 -703085,-6430320 -703085,-6430317 -703084,-6430295 -703077,-6430287 -703078,-6430284 -703084,-6430280 -703089,-6430273 -703089,-6430266 -703093,-6430260 -703094,-6430257 -703092,-6430252 -703092,-6430250 -703093,-6430246 -703101,-6430236 -703101,-6430232 -703100,-6430230 -703096,-6430229 -703093,-6430229 -703086,-6430231 -703079,-6430230 -703076,-6430226 -703073,-6430225 -703068,-6430225 -703057,-6430218 -703056,-6430215 -703058,-6430210 -703057,-6430204 -703053,-6430193 -703044,-6430181 -703044,-6430179 -703045,-6430172 -703044,-6430170 -703033,-6430161 -703031,-6430161 -703037,-6430155 -703051,-6430147 -703060,-6430140 -703061,-6430139 -703064,-6430143 -703064,-6430152 -703066,-6430155 -703070,-6430157 -703079,-6430158 -703094,-6430163 -703103,-6430163 -703116,-6430159 -703118,-6430155 -703126,-6430148 -703134,-6430147 -703138,-6430149 -703139,-6430150 -703138,-6430159 -703139,-6430166 -703142,-6430175 -703150,-6430188 -703151,-6430193 -703150,-6430198 -703152,-6430202 -703158,-6430209 -703159,-6430212 -703157,-6430217 -703154,-6430224 -703151,-6430229 -703149,-6430229 -703146,-6430228 -703144,-6430226 -703146,-6430219 -703145,-6430219 -703139,-6430220 -703138,-6430221 -703133,-6430241 -703136,-6430252 -703135,-6430263 -703138,-6430266 -703140,-6430268 -703145,-6430270 -703151,-6430274 -703168,-6430280 -703169,-6430282 -703169,-6430285 -703167,-6430299 -703168,-6430303 -703171,-6430311 -703178,-6430323 -703189,-6430336 -703202,-6430350 -703209,-6430357 -703220,-6430365 -703240,-6430372 -703244,-6430375 -703260,-6430376 -703276,-6430378 -703279,-6430378 -703289,-6430375 -703301,-6430375 -703313,-6430374 -703330,-6430375 -703332,-6430375 -703333,-6430377 -703332,-6430379 -703331,-6430381 -703328,-6430384 -703316,-6430392 -703314,-6430395 -703312,-6430408 -703313,-6430411 -703316,-6430416 -703319,-6430419 -703325,-6430420 -703330,-6430424 -703334,-6430435 -703335,-6430437 -703338,-6430438 -703341,-6430438 -703344,-6430437 -703352,-6430429 -703368,-6430422 -703369,-6430420 -703368,-6430416 -703367,-6430411 -703362,-6430406 -703351,-6430403 -703346,-6430403 -703335,-6430407 -703332,-6430407 -703330,-6430406 -703330,-6430404 -703330,-6430401 -703331,-6430398 -703334,-6430396 -703343,-6430392 -703345,-6430388 -703346,-6430376 -703350,-6430370 -703352,-6430369 -703370,-6430369 -703373,-6430368 -703378,-6430362 -703386,-6430346 -703390,-6430342 -703393,-6430340 -703397,-6430339 -703401,-6430339 -703404,-6430341 -703406,-6430343 -703405,-6430351 -703407,-6430366 -703410,-6430378 -703415,-6430389 -703419,-6430394 -703424,-6430398 -703429,-6430400 -703436,-6430401 -703442,-6430400 -703447,-6430399 -703452,-6430395 -703455,-6430391 -703458,-6430382 -703458,-6430382 -703462,-6430379 -703464,-6430368 -703469,-6430360 -703477,-6430355 -703489,-6430355 -703490,-6430354 -703490,-6430346 -703492,-6430344 -703495,-6430342 -703499,-6430343 -703504,-6430345 -703507,-6430347 -703508,-6430350 -703509,-6430366 -703513,-6430367 -703517,-6430370 -703524,-6430371 -703525,-6430367 -703528,-6430363 -703533,-6430359 -703537,-6430357 -703540,-6430357 -703541,-6430358 -703542,-6430371 -703543,-6430372 -703551,-6430376 -703554,-6430379 -703556,-6430383 -703557,-6430386 -703557,-6430388 -703552,-6430397 -703552,-6430402 -703574,-6430404 -703588,-6430406 -703589,-6430405 -703591,-6430398 -703593,-6430395 -703599,-6430391 -703603,-6430390 -703615,-6430392 -703624,-6430389 -703628,-6430389 -703639,-6430390 -703650,-6430396 -703656,-6430397 -703658,-6430397 -703662,-6430384 -703660,-6430371 -703660,-6430359 -703657,-6430348 -703657,-6430347 -703658,-6430344 -703662,-6430342 -703665,-6430342 -703667,-6430342 -703670,-6430344 -703675,-6430352 -703678,-6430355 -703681,-6430357 -703683,-6430357 -703702,-6430354 -703703,-6430353 -703704,-6430350 -703703,-6430346 -703697,-6430338 -703696,-6430336 -703696,-6430332 -703698,-6430326 -703702,-6430317 -703706,-6430317 -703708,-6430317 -703709,-6430319 -703712,-6430326 -703719,-6430315 -703728,-6430302 -703730,-6430306 -703734,-6430316 -703735,-6430316 -703745,-6430305 -703748,-6430302 -703749,-6430301 -703751,-6430302 -703753,-6430304 -703758,-6430311 -703760,-6430296 -703762,-6430294 -703764,-6430294 -703773,-6430299 -703775,-6430298 -703775,-6430297 -703774,-6430291 -703776,-6430284 -703781,-6430280 -703785,-6430279 -703799,-6430284 -703802,-6430284 -703804,-6430282 -703807,-6430272 -703808,-6430269 -703810,-6430266 -703812,-6430265 -703823,-6430272 -703838,-6430278 -703843,-6430278 -703851,-6430275 -703855,-6430275 -703858,-6430278 -703860,-6430282 -703861,-6430286 -703862,-6430301 -703863,-6430302 -703865,-6430303 -703867,-6430302 -703889,-6430286 -703892,-6430287 -703896,-6430296 -703899,-6430297 -703909,-6430296 -703920,-6430292 -703926,-6430293 -703929,-6430295 -703929,-6430296 -703926,-6430302 -703921,-6430307 -703920,-6430308 -703921,-6430311 -703923,-6430314 -703925,-6430316 -703928,-6430317 -703929,-6430316 -703935,-6430304 -703942,-6430299 -703943,-6430300 -703944,-6430300 -703945,-6430309 -703944,-6430312 -703936,-6430320 -703935,-6430322 -703935,-6430324 -703938,-6430328 -703950,-6430333 -703958,-6430332 -703960,-6430332 -703961,-6430334 -703960,-6430337 -703959,-6430341 -703953,-6430350 -703953,-6430354 -703956,-6430354 -703966,-6430350 -703971,-6430350 -703973,-6430352 -703976,-6430364 -703975,-6430368 -703968,-6430384 -703966,-6430387 -703958,-6430394 -703957,-6430396 -703960,-6430405 -703960,-6430408 -703958,-6430411 -703955,-6430413 -703949,-6430417 -703948,-6430418 -703947,-6430421 -703950,-6430423 -703954,-6430424 -703965,-6430422 -703969,-6430423 -703972,-6430424 -703974,-6430428 -703975,-6430432 -703975,-6430434 -703971,-6430436 -703959,-6430441 -703956,-6430445 -703955,-6430448 -703956,-6430456 -703955,-6430465 -703956,-6430468 -703960,-6430475 -703960,-6430477 -703958,-6430485 -703958,-6430494 -703957,-6430507 -703957,-6430513 -703964,-6430521 -703970,-6430525 -703971,-6430525 -703974,-6430521 -703974,-6430518 -703971,-6430504 -703973,-6430497 -703975,-6430491 -703977,-6430490 -703979,-6430489 -703981,-6430490 -703987,-6430495 -703988,-6430496 -703996,-6430495 -704001,-6430498 -704004,-6430497 -704019,-6430481 -704022,-6430479 -704024,-6430479 -704026,-6430481 -704028,-6430485 -704028,-6430487 -704024,-6430497 -704025,-6430500 -704026,-6430501 -704028,-6430501 -704034,-6430497 -704036,-6430496 -704039,-6430496 -704039,-6430497 -704040,-6430504 -704038,-6430514 -704039,-6430515 -704044,-6430516 -704046,-6430517 -704047,-6430520 -704048,-6430522 -704046,-6430535 -704047,-6430538 -704054,-6430540 -704067,-6430549 -704081,-6430566 -704083,-6430570 -704082,-6430575 -704077,-6430582 -704075,-6430585 -704075,-6430589 -704076,-6430591 -704083,-6430591 -704094,-6430595 -704098,-6430595 -704106,-6430592 -704111,-6430592 -704120,-6430589 -704121,-6430590 -704122,-6430592 -704123,-6430604 -704124,-6430608 -704126,-6430616 -704126,-6430637 -704131,-6430641 -704143,-6430642 -704144,-6430641 -704151,-6430632 -704158,-6430627 -704167,-6430626 -704169,-6430630 -704171,-6430632 -704172,-6430632 -704188,-6430624 -704191,-6430623 -704196,-6430624 -704201,-6430631 -704206,-6430633 -704221,-6430631 -704230,-6430633 -704232,-6430633 -704240,-6430627 -704243,-6430627 -704252,-6430631 -704262,-6430633 -704270,-6430643 -704272,-6430648 -704272,-6430658 -704267,-6430663 -704259,-6430666 -704248,-6430677 -704234,-6430683 -704231,-6430686 -704229,-6430689 -704227,-6430694 -704228,-6430706 -704228,-6430710 -704225,-6430711 -704222,-6430710 -704220,-6430713 -704220,-6430718 -704223,-6430727 -704224,-6430731 -704223,-6430735 -704220,-6430737 -704218,-6430738 -704206,-6430737 -704200,-6430737 -704200,-6430738 -704207,-6430742 -704215,-6430744 -704217,-6430745 -704218,-6430748 -704218,-6430751 -704216,-6430753 -704211,-6430756 -704210,-6430760 -704210,-6430765 -704212,-6430768 -704213,-6430769 -704222,-6430772 -704225,-6430774 -704237,-6430787 -704238,-6430788 -704246,-6430787 -704250,-6430788 -704257,-6430793 -704270,-6430801 -704271,-6430803 -704274,-6430809 -704275,-6430811 -704280,-6430811 -704291,-6430807 -704295,-6430807 -704307,-6430812 -704310,-6430813 -704314,-6430813 -704325,-6430806 -704327,-6430806 -704336,-6430808 -704338,-6430810 -704338,-6430812 -704335,-6430819 -704323,-6430833 -704321,-6430839 -704322,-6430841 -704322,-6430843 -704324,-6430844 -704335,-6430846 -704338,-6430849 -704340,-6430853 -704340,-6430858 -704340,-6430863 -704336,-6430871 -704335,-6430872 -704331,-6430872 -704331,-6430873 -704331,-6430885 -704323,-6430895 -704321,-6430899 -704320,-6430902 -704320,-6430905 -704322,-6430909 -704324,-6430912 -704325,-6430912 -704331,-6430912 -704334,-6430913 -704341,-6430918 -704344,-6430921 -704350,-6430932 -704353,-6430934 -704370,-6430945 -704374,-6430945 -704382,-6430937 -704384,-6430937 -704400,-6430941 -704405,-6430945 -704410,-6430953 -704410,-6430959 -704410,-6430964 -704408,-6430967 -704405,-6430969 -704395,-6430972 -704390,-6430974 -704387,-6430977 -704386,-6430981 -704386,-6430984 -704390,-6430987 -704393,-6430993 -704393,-6430996 -704391,-6431001 -704387,-6431009 -704391,-6431019 -704390,-6431022 -704385,-6431032 -704386,-6431035 -704390,-6431040 -704392,-6431039 -704396,-6431031 -704398,-6431030 -704401,-6431031 -704405,-6431035 -704411,-6431050 -704414,-6431062 -704417,-6431068 -704419,-6431068 -704432,-6431066 -704435,-6431066 -704441,-6431071 -704442,-6431077 -704441,-6431094 -704442,-6431100 -704446,-6431114 -704448,-6431117 -704453,-6431121 -704457,-6431125 -704465,-6431126 -704467,-6431126 -704471,-6431122 -704477,-6431121 -704482,-6431123 -704482,-6431125 -704482,-6431127 -704481,-6431129 -704458,-6431151 -704455,-6431152 -704445,-6431154 -704442,-6431157 -704441,-6431159 -704442,-6431168 -704441,-6431171 -704430,-6431184 -704431,-6431189 -704428,-6431196 -704421,-6431204 -704415,-6431206 -704414,-6431211 -704414,-6431224 -704413,-6431227 -704410,-6431231 -704407,-6431234 -704404,-6431234 -704401,-6431233 -704400,-6431232 -704400,-6431228 -704398,-6431225 -704395,-6431224 -704394,-6431224 -704372,-6431245 -704357,-6431257 -704345,-6431263 -704331,-6431269 -704329,-6431271 -704328,-6431273 -704327,-6431281 -704324,-6431283 -704312,-6431288 -704300,-6431297 -704294,-6431307 -704283,-6431319 -704282,-6431321 -704282,-6431324 -704283,-6431327 -704288,-6431332 -704287,-6431334 -704281,-6431342 -704281,-6431344 -704280,-6431352 -704285,-6431357 -704294,-6431361 -704296,-6431367 -704300,-6431368 -704309,-6431368 -704314,-6431368 -704319,-6431370 -704329,-6431377 -704331,-6431380 -704330,-6431389 -704324,-6431398 -704306,-6431408 -704301,-6431410 -704292,-6431411 -704279,-6431423 -704276,-6431424 -704273,-6431424 -704263,-6431421 -704261,-6431421 -704252,-6431428 -704249,-6431428 -704246,-6431427 -704243,-6431425 -704241,-6431420 -704237,-6431418 -704233,-6431416 -704228,-6431416 -704225,-6431418 -704210,-6431427 -704208,-6431429 -704209,-6431438 -704208,-6431442 -704205,-6431448 -704199,-6431455 -704190,-6431460 -704189,-6431462 -704187,-6431475 -704186,-6431478 -704185,-6431480 -704174,-6431488 -704172,-6431490 -704170,-6431498 -704166,-6431505 -704152,-6431512 -704136,-6431511 -704134,-6431513 -704134,-6431528 -704135,-6431533 -704140,-6431544 -704140,-6431548 -704139,-6431551 -704134,-6431557 -704130,-6431560 -704128,-6431561 -704121,-6431561 -704109,-6431554 -704104,-6431554 -704100,-6431556 -704094,-6431562 -704094,-6431564 -704102,-6431574 -704103,-6431578 -704104,-6431583 -704099,-6431607 -704098,-6431620 -704094,-6431627 -704077,-6431649 -704076,-6431652 -704074,-6431657 -704077,-6431673 -704080,-6431680 -704084,-6431683 -704085,-6431683 -704103,-6431676 -704112,-6431674 -704116,-6431674 -704121,-6431675 -704122,-6431678 -704120,-6431689 -704120,-6431692 -704128,-6431697 -704140,-6431694 -704146,-6431694 -704149,-6431696 -704151,-6431698 -704152,-6431701 -704150,-6431712 -704151,-6431715 -704155,-6431720 -704155,-6431721 -704152,-6431724 -704145,-6431728 -704129,-6431732 -704118,-6431736 -704110,-6431738 -704100,-6431738 -704097,-6431740 -704094,-6431744 -704092,-6431752 -704094,-6431756 -704092,-6431758 -704088,-6431759 -704086,-6431759 -704077,-6431756 -704075,-6431756 -704052,-6431766 -704039,-6431770 -704036,-6431773 -704030,-6431785 -704030,-6431786 -704037,-6431790 -704039,-6431791 -704041,-6431798 -704041,-6431809 -704019,-6431822 -704014,-6431826 -704003,-6431836 -704001,-6431838 -703998,-6431838 -703984,-6431837 -703981,-6431835 -703978,-6431831 -703977,-6431822 -703976,-6431821 -703975,-6431820 -703972,-6431821 -703967,-6431823 -703963,-6431828 -703955,-6431837 -703952,-6431839 -703947,-6431841 -703930,-6431843 -703914,-6431847 -703900,-6431847 -703893,-6431840 -703891,-6431834 -703889,-6431819 -703888,-6431817 -703882,-6431815 -703881,-6431815 -703866,-6431825 -703851,-6431840 -703846,-6431845 -703823,-6431855 -703822,-6431857 -703816,-6431876 -703814,-6431881 -703811,-6431885 -703804,-6431887 -703800,-6431889 -703799,-6431890 -703799,-6431893 -703802,-6431897 -703814,-6431908 -703816,-6431911 -703817,-6431920 -703811,-6431934 -703813,-6431936 -703821,-6431940 -703825,-6431944 -703826,-6431947 -703826,-6431952 -703824,-6431955 -703820,-6431958 -703825,-6431966 -703835,-6431978 -703836,-6431980 -703836,-6431984 -703835,-6431986 -703832,-6431987 -703826,-6431985 -703823,-6431984 -703806,-6431969 -703798,-6431967 -703794,-6431968 -703792,-6431970 -703790,-6431973 -703792,-6431982 -703791,-6431985 -703788,-6431989 -703785,-6431992 -703780,-6431994 -703774,-6431996 -703757,-6431994 -703739,-6431996 -703736,-6431995 -703731,-6431991 -703729,-6431989 -703726,-6431988 -703723,-6431989 -703721,-6431992 -703719,-6431996 -703720,-6431998 -703725,-6432006 -703725,-6432008 -703706,-6432016 -703702,-6432016 -703699,-6432015 -703698,-6432013 -703697,-6432011 -703698,-6432002 -703698,-6432000 -703695,-6431998 -703684,-6431993 -703681,-6431991 -703676,-6431982 -703662,-6431964 -703647,-6431951 -703637,-6431947 -703633,-6431944 -703624,-6431935 -703617,-6431924 -703615,-6431923 -703606,-6431924 -703603,-6431923 -703599,-6431912 -703596,-6431911 -703580,-6431911 -703576,-6431909 -703569,-6431902 -703556,-6431897 -703549,-6431891 -703513,-6431871 -703496,-6431866 -703488,-6431866 -703468,-6431865 -703453,-6431868 -703449,-6431871 -703440,-6431885 -703438,-6431886 -703434,-6431885 -703431,-6431884 -703431,-6431879 -703433,-6431871 -703433,-6431869 -703431,-6431868 -703426,-6431870 -703422,-6431869 -703420,-6431866 -703420,-6431864 -703421,-6431861 -703438,-6431850 -703441,-6431849 -703443,-6431849 -703451,-6431854 -703455,-6431853 -703457,-6431852 -703462,-6431846 -703465,-6431845 -703483,-6431847 -703485,-6431846 -703484,-6431844 -703482,-6431841 -703457,-6431827 -703432,-6431818 -703428,-6431818 -703410,-6431820 -703402,-6431822 -703397,-6431825 -703388,-6431832 -703369,-6431845 -703348,-6431856 -703333,-6431866 -703305,-6431882 -703295,-6431891 -703285,-6431906 -703276,-6431916 -703276,-6431920 -703277,-6431926 -703281,-6431933 -703287,-6431938 -703319,-6431955 -703341,-6431969 -703347,-6431972 -703361,-6431972 -703380,-6431982 -703386,-6431988 -703387,-6431992 -703390,-6432002 -703392,-6432005 -703400,-6432012 -703406,-6432014 -703417,-6432014 -703419,-6432013 -703429,-6432006 -703434,-6432004 -703438,-6432004 -703443,-6432008 -703447,-6432015 -703453,-6432046 -703454,-6432055 -703452,-6432066 -703452,-6432071 -703453,-6432074 -703456,-6432076 -703459,-6432077 -703473,-6432079 -703494,-6432085 -703499,-6432085 -703512,-6432085 -703527,-6432080 -703531,-6432080 -703536,-6432081 -703547,-6432086 -703548,-6432087 -703548,-6432089 -703547,-6432091 -703540,-6432097 -703540,-6432098 -703541,-6432100 -703545,-6432105 -703546,-6432107 -703545,-6432108 -703542,-6432112 -703537,-6432117 -703533,-6432118 -703529,-6432118 -703517,-6432116 -703513,-6432116 -703506,-6432119 -703497,-6432130 -703491,-6432144 -703492,-6432148 -703491,-6432153 -703489,-6432154 -703484,-6432154 -703472,-6432151 -703472,-6432148 -703473,-6432141 -703470,-6432140 -703467,-6432140 -703457,-6432142 -703454,-6432142 -703451,-6432141 -703447,-6432136 -703444,-6432134 -703441,-6432134 -703438,-6432137 -703436,-6432141 -703430,-6432153 -703427,-6432156 -703421,-6432159 -703416,-6432161 -703411,-6432162 -703406,-6432161 -703403,-6432160 -703400,-6432151 -703397,-6432150 -703386,-6432154 -703359,-6432158 -703356,-6432157 -703350,-6432151 -703347,-6432149 -703330,-6432146 -703326,-6432146 -703324,-6432147 -703318,-6432152 -703316,-6432152 -703303,-6432151 -703297,-6432149 -703294,-6432146 -703290,-6432137 -703288,-6432136 -703276,-6432128 -703259,-6432112 -703251,-6432107 -703244,-6432103 -703232,-6432103 -703226,-6432106 -703216,-6432112 -703207,-6432119 -703184,-6432147 -703169,-6432166 -703161,-6432175 -703146,-6432162 -703152,-6432157 -703163,-6432141 -703177,-6432116 -703188,-6432100 -703203,-6432072 -703214,-6432037 -703222,-6432004 -703227,-6431989 -703234,-6431959 -703239,-6431922 -703242,-6431904 -703246,-6431870 -703245,-6431841 -703240,-6431818 -703238,-6431817 -703205,-6431815 -703196,-6431813 -703180,-6431804 -703177,-6431802 -703176,-6431801 -703180,-6431792 -703182,-6431791 -703185,-6431790 -703208,-6431799 -703214,-6431798 -703209,-6431796 -703208,-6431793 -703206,-6431781 -703208,-6431766 -703208,-6431760 -703208,-6431751 -703206,-6431743 -703201,-6431727 -703191,-6431713 -703171,-6431699 -703165,-6431696 -703140,-6431690 -703134,-6431688 -703125,-6431684 -703105,-6431677 -703090,-6431674 -703074,-6431677 -703057,-6431678 -703019,-6431677 -702987,-6431684 -702960,-6431687 -702936,-6431688 -702926,-6431691 -702905,-6431694 -702870,-6431703 -702839,-6431711 -702808,-6431721 -702773,-6431735 -702765,-6431738 -702762,-6431740 -702757,-6431745 -702724,-6431766 -702694,-6431790 -702689,-6431795 -702682,-6431805 -702682,-6431811 -702685,-6431828 -702687,-6431835 -702693,-6431843 -702695,-6431846 -702698,-6431867 -702702,-6431880 -702702,-6431887 -702700,-6431903 -702695,-6431906 -702693,-6431906 -702679,-6431904 -702678,-6431904 -702668,-6431909 -702662,-6431910 -702650,-6431918 -702635,-6431923 -702626,-6431924 -702624,-6431926 -702627,-6431936 -702626,-6431939 -702602,-6431958 -702594,-6431960 -702577,-6431956 -702571,-6431949 -702576,-6431947 -702599,-6431939 -702603,-6431932 -702602,-6431930 -702596,-6431929 -702575,-6431932 -702561,-6431932 -702556,-6431931 -702543,-6431927 -702522,-6431915 -702507,-6431910 -702496,-6431910 -702493,-6431912 -702490,-6431914 -702486,-6431919 -702464,-6431945 -702452,-6431957 -702439,-6431972 -702399,-6432015 -702381,-6432046 -702373,-6432067 -702361,-6432087 -702356,-6432099 -702346,-6432124 -702341,-6432139 -702341,-6432141 -702347,-6432151 -702346,-6432166 -702352,-6432184 -702372,-6432208 -702375,-6432216 -702376,-6432220 -702374,-6432240 -702375,-6432243 -702376,-6432244 -702385,-6432237 -702387,-6432237 -702392,-6432239 -702396,-6432241 -702398,-6432244 -702398,-6432247 -702396,-6432252 -702394,-6432254 -702385,-6432254 -702382,-6432254 -702379,-6432256 -702370,-6432268 -702367,-6432272 -702351,-6432283 -702344,-6432283 -702342,-6432285 -702337,-6432295 -702335,-6432298 -702333,-6432300 -702327,-6432301 -702324,-6432303 -702322,-6432309 -702322,-6432347 -702325,-6432357 -702326,-6432372 -702332,-6432390 -702339,-6432403 -702352,-6432415 -702370,-6432443 -702371,-6432448 -702365,-6432454 -702363,-6432457 -702363,-6432459 -702365,-6432459 -702374,-6432459 -702383,-6432462 -702385,-6432465 -702386,-6432476 -702387,-6432478 -702389,-6432480 -702400,-6432484 -702411,-6432494 -702423,-6432499 -702425,-6432499 -702432,-6432494 -702448,-6432472 -702450,-6432471 -702458,-6432471 -702460,-6432470 -702464,-6432459 -702469,-6432453 -702472,-6432452 -702476,-6432450 -702482,-6432450 -702499,-6432453 -702502,-6432455 -702508,-6432459 -702510,-6432462 -702510,-6432464 -702509,-6432466 -702505,-6432470 -702501,-6432473 -702495,-6432473 -702484,-6432471 -702481,-6432472 -702476,-6432475 -702475,-6432482 -702472,-6432484 -702461,-6432486 -702460,-6432487 -702461,-6432493 -702462,-6432497 -702467,-6432505 -702467,-6432509 -702473,-6432511 -702500,-6432503 -702503,-6432503 -702513,-6432506 -702529,-6432508 -702547,-6432506 -702572,-6432506 -702592,-6432509 -702612,-6432509 -702619,-6432510 -702635,-6432513 -702650,-6432515 -702684,-6432523 -702705,-6432530 -702711,-6432530 -702712,-6432529 -702714,-6432527 -702715,-6432524 -702713,-6432522 -702711,-6432521 -702660,-6432506 -702638,-6432502 -702636,-6432501 -702635,-6432498 -702637,-6432497 -702650,-6432494 -702656,-6432493 -702662,-6432494 -702678,-6432497 -702696,-6432497 -702724,-6432505 -702734,-6432511 -702753,-6432516 -702763,-6432517 -702768,-6432519 -702786,-6432532 -702795,-6432537 -702803,-6432540 -702806,-6432541 -702811,-6432540 -702821,-6432537 -702824,-6432537 -702828,-6432539 -702834,-6432547 -702838,-6432558 -702844,-6432569 -702845,-6432571 -702846,-6432581 -702847,-6432583 -702855,-6432590 -702863,-6432595 -702865,-6432597 -702873,-6432612 -702875,-6432620 -702875,-6432623 -702875,-6432624 -702865,-6432632 -702863,-6432633 -702854,-6432633 -702850,-6432634 -702843,-6432641 -702830,-6432646 -702819,-6432645 -702803,-6432651 -702798,-6432652 -702788,-6432649 -702785,-6432650 -702781,-6432655 -702770,-6432661 -702764,-6432661 -702749,-6432655 -702745,-6432655 -702741,-6432657 -702734,-6432661 -702716,-6432670 -702694,-6432684 -702681,-6432687 -702672,-6432694 -702670,-6432695 -702661,-6432695 -702653,-6432700 -702650,-6432700 -702639,-6432701 -702635,-6432702 -702625,-6432709 -702621,-6432710 -702609,-6432710 -702603,-6432709 -702601,-6432706 -702602,-6432702 -702607,-6432700 -702614,-6432698 -702627,-6432696 -702639,-6432689 -702644,-6432681 -702641,-6432678 -702636,-6432678 -702621,-6432683 -702609,-6432685 -702591,-6432690 -702577,-6432699 -702571,-6432701 -702569,-6432701 -702567,-6432699 -702567,-6432697 -702571,-6432689 -702571,-6432687 -702567,-6432685 -702543,-6432674 -702530,-6432670 -702520,-6432665 -702517,-6432665 -702501,-6432672 -702498,-6432672 -702491,-6432666 -702487,-6432663 -702476,-6432660 -702471,-6432660 -702456,-6432663 -702451,-6432663 -702442,-6432659 -702428,-6432654 -702422,-6432655 -702406,-6432662 -702395,-6432668 -702393,-6432673 -702394,-6432676 -702398,-6432680 -702399,-6432682 -702399,-6432685 -702393,-6432688 -702383,-6432690 -702359,-6432699 -702349,-6432705 -702345,-6432711 -702343,-6432720 -702345,-6432743 -702344,-6432748 -702339,-6432759 -702339,-6432770 -702341,-6432780 -702348,-6432796 -702350,-6432806 -702348,-6432811 -702336,-6432826 -702335,-6432829 -702335,-6432839 -702337,-6432869 -702342,-6432893 -702345,-6432913 -702349,-6432919 -702360,-6432928 -702366,-6432935 -702370,-6432937 -702374,-6432937 -702400,-6432932 -702414,-6432925 -702419,-6432924 -702422,-6432925 -702425,-6432927 -702429,-6432932 -702430,-6432935 -702429,-6432942 -702424,-6432948 -702413,-6432956 -702411,-6432959 -702411,-6432962 -702413,-6432965 -702414,-6432966 -702424,-6432968 -702435,-6432979 -702444,-6432980 -702447,-6432982 -702450,-6432992 -702452,-6432994 -702455,-6432993 -702462,-6432987 -702466,-6432987 -702481,-6433006 -702483,-6433006 -702486,-6433006 -702499,-6432998 -702502,-6432995 -702502,-6432989 -702510,-6432982 -702513,-6432981 -702523,-6432979 -702531,-6432981 -702546,-6432987 -702551,-6432987 -702553,-6432986 -702561,-6432982 -702564,-6432982 -702573,-6432984 -702577,-6432983 -702595,-6432971 -702607,-6432967 -702626,-6432953 -702630,-6432950 -702635,-6432949 -702669,-6432950 -702706,-6432939 -702732,-6432935 -702747,-6432939 -702748,-6432939 -702764,-6432933 -702765,-6432933 -702774,-6432939 -702777,-6432938 -702789,-6432933 -702795,-6432933 -702797,-6432934 -702805,-6432942 -702808,-6432943 -702817,-6432944 -702818,-6432945 -702834,-6432962 -702836,-6432963 -702843,-6432962 -702845,-6432962 -702848,-6432965 -702853,-6432974 -702854,-6432975 -702869,-6432979 -702874,-6432982 -702878,-6432985 -702885,-6432996 -702886,-6433004 -702884,-6433009 -702882,-6433011 -702875,-6433015 -702877,-6433024 -702883,-6433034 -702881,-6433048 -702879,-6433051 -702866,-6433060 -702864,-6433062 -702862,-6433071 -702862,-6433081 -702859,-6433084 -702857,-6433085 -702855,-6433085 -702850,-6433080 -702846,-6433079 -702844,-6433079 -702840,-6433083 -702837,-6433088 -702836,-6433091 -702835,-6433100 -702834,-6433102 -702832,-6433103 -702829,-6433102 -702818,-6433098 -702815,-6433098 -702805,-6433102 -702797,-6433104 -702795,-6433103 -702792,-6433097 -702791,-6433095 -702789,-6433095 -702778,-6433099 -702769,-6433097 -702752,-6433099 -702737,-6433097 -702716,-6433105 -702706,-6433107 -702703,-6433106 -702702,-6433104 -702702,-6433100 -702704,-6433098 -702711,-6433097 -702714,-6433095 -702715,-6433093 -702714,-6433091 -702713,-6433091 -702704,-6433093 -702696,-6433094 -702685,-6433090 -702667,-6433086 -702641,-6433078 -702634,-6433079 -702630,-6433080 -702629,-6433082 -702628,-6433085 -702629,-6433102 -702627,-6433106 -702621,-6433117 -702620,-6433120 -702615,-6433151 -702620,-6433162 -702630,-6433179 -702639,-6433185 -702642,-6433188 -702644,-6433195 -702645,-6433198 -702647,-6433199 -702649,-6433198 -702654,-6433195 -702657,-6433195 -702661,-6433196 -702663,-6433198 -702665,-6433203 -702666,-6433208 -702666,-6433213 -702668,-6433214 -702672,-6433216 -702679,-6433217 -702680,-6433218 -702684,-6433227 -702692,-6433234 -702693,-6433234 -702699,-6433226 -702701,-6433214 -702705,-6433207 -702707,-6433207 -702710,-6433208 -702713,-6433210 -702714,-6433215 -702713,-6433223 -702708,-6433231 -702701,-6433239 -702697,-6433249 -702698,-6433255 -702700,-6433259 -702715,-6433277 -702721,-6433280 -702722,-6433280 -702724,-6433279 -702727,-6433266 -702728,-6433264 -702730,-6433264 -702732,-6433263 -702740,-6433267 -702742,-6433272 -702745,-6433286 -702745,-6433289 -702744,-6433291 -702742,-6433293 -702737,-6433296 -702722,-6433301 -702718,-6433303 -702716,-6433306 -702716,-6433308 -702718,-6433320 -702718,-6433327 -702719,-6433330 -702728,-6433340 -702735,-6433350 -702738,-6433352 -702740,-6433352 -702743,-6433351 -702747,-6433349 -702755,-6433340 -702759,-6433338 -702763,-6433338 -702765,-6433339 -702767,-6433342 -702772,-6433351 -702778,-6433369 -702784,-6433382 -702787,-6433396 -702798,-6433414 -702799,-6433420 -702799,-6433423 -702793,-6433428 -702790,-6433427 -702780,-6433421 -702777,-6433421 -702762,-6433430 -702759,-6433433 -702758,-6433435 -702758,-6433437 -702766,-6433447 -702770,-6433451 -702771,-6433452 -702782,-6433447 -702786,-6433447 -702789,-6433447 -702792,-6433450 -702794,-6433458 -702795,-6433459 -702803,-6433461 -702809,-6433467 -702811,-6433471 -702816,-6433482 -702816,-6433486 -702814,-6433489 -702812,-6433492 -702808,-6433495 -702797,-6433499 -702793,-6433503 -702790,-6433507 -702790,-6433512 -702793,-6433517 -702797,-6433522 -702801,-6433526 -702805,-6433528 -702808,-6433528 -702809,-6433528 -702821,-6433518 -702828,-6433517 -702830,-6433521 -702829,-6433524 -702825,-6433531 -702833,-6433533 -702841,-6433531 -702847,-6433533 -702847,-6433533 -702837,-6433539 -702837,-6433542 -702845,-6433559 -702845,-6433561 -702841,-6433569 -702841,-6433572 -702844,-6433573 -702854,-6433568 -702856,-6433567 -702858,-6433568 -702860,-6433571 -702865,-6433590 -702868,-6433599 -702868,-6433630 -702870,-6433638 -702875,-6433654 -702876,-6433663 -702874,-6433665 -702863,-6433670 -702860,-6433675 -702859,-6433677 -702860,-6433680 -702862,-6433681 -702868,-6433683 -702869,-6433684 -702869,-6433688 -702868,-6433693 -702867,-6433696 -702865,-6433697 -702855,-6433695 -702852,-6433696 -702851,-6433699 -702851,-6433702 -702852,-6433703 -702864,-6433710 -702867,-6433714 -702870,-6433718 -702871,-6433721 -702870,-6433725 -702869,-6433729 -702867,-6433731 -702865,-6433733 -702855,-6433736 -702852,-6433744 -702847,-6433749 -702844,-6433750 -702832,-6433754 -702828,-6433762 -702819,-6433771 -702804,-6433788 -702803,-6433790 -702803,-6433798 -702801,-6433800 -702789,-6433808 -702784,-6433813 -702784,-6433822 -702783,-6433824 -702776,-6433830 -702765,-6433847 -702747,-6433882 -702731,-6433902 -702723,-6433913 -702710,-6433926 -702697,-6433947 -702675,-6433968 -702659,-6433985 -702648,-6433994 -702635,-6434006 -702619,-6434019 -702614,-6434023 -702609,-6434034 -702586,-6434056 -702570,-6434078 -702558,-6434090 -702527,-6434128 -702497,-6434160 -702469,-6434179 -702461,-6434187 -702460,-6434191 -702463,-6434220 -702462,-6434223 -702457,-6434231 -702455,-6434260 -702449,-6434290 -702442,-6434304 -702443,-6434307 -702455,-6434314 -702458,-6434317 -702461,-6434322 -702466,-6434336 -702484,-6434362 -702495,-6434372 -702498,-6434373 -702498,-6434383 -702495,-6434387 -702485,-6434397 -702485,-6434402 -702488,-6434417 -702488,-6434421 -702484,-6434433 -702484,-6434440 -702482,-6434451 -702484,-6434458 -702485,-6434460 -702497,-6434466 -702501,-6434467 -702515,-6434463 -702535,-6434461 -702563,-6434461 -702567,-6434461 -702571,-6434459 -702573,-6434455 -702574,-6434451 -702575,-6434443 -702575,-6434442 -702593,-6434429 -702615,-6434419 -702618,-6434418 -702631,-6434420 -702649,-6434422 -702654,-6434420 -702673,-6434408 -702708,-6434390 -702713,-6434389 -702715,-6434390 -702722,-6434393 -702724,-6434394 -702735,-6434391 -702742,-6434393 -702745,-6434395 -702756,-6434406 -702757,-6434409 -702757,-6434412 -702755,-6434414 -702752,-6434417 -702734,-6434427 -702716,-6434435 -702692,-6434450 -702686,-6434455 -702685,-6434457 -702686,-6434468 -702688,-6434469 -702698,-6434467 -702699,-6434469 -702699,-6434472 -702697,-6434476 -702695,-6434480 -702690,-6434485 -702682,-6434490 -702678,-6434492 -702672,-6434491 -702671,-6434492 -702668,-6434495 -702663,-6434506 -702660,-6434508 -702657,-6434508 -702645,-6434505 -702643,-6434505 -702631,-6434511 -702617,-6434520 -702613,-6434521 -702602,-6434516 -702600,-6434515 -702575,-6434517 -702572,-6434519 -702570,-6434523 -702571,-6434525 -702583,-6434526 -702590,-6434528 -702593,-6434529 -702593,-6434530 -702591,-6434533 -702589,-6434536 -702585,-6434537 -702560,-6434545 -702498,-6434581 -702493,-6434587 -702493,-6434592 -702488,-6434603 -702455,-6434637 -702447,-6434643 -702443,-6434645 -702439,-6434645 -702436,-6434644 -702434,-6434640 -702434,-6434639 -702437,-6434633 -702440,-6434629 -702468,-6434602 -702481,-6434583 -702489,-6434572 -702497,-6434567 -702522,-6434554 -702540,-6434547 -702548,-6434540 -702550,-6434537 -702548,-6434533 -702546,-6434532 -702544,-6434532 -702531,-6434536 -702512,-6434544 -702483,-6434552 -702463,-6434562 -702457,-6434566 -702452,-6434571 -702449,-6434574 -702439,-6434597 -702434,-6434615 -702414,-6434653 -702413,-6434656 -702413,-6434673 -702407,-6434687 -702407,-6434698 -702405,-6434704 -702396,-6434717 -702391,-6434717 -702388,-6434718 -702385,-6434724 -702384,-6434730 -702382,-6434753 -702380,-6434766 -702383,-6434778 -702382,-6434792 -702385,-6434799 -702386,-6434802 -702386,-6434803 -702381,-6434808 -702376,-6434813 -702375,-6434813 -702363,-6434810 -702359,-6434811 -702336,-6434824 -702329,-6434829 -702285,-6434870 -702268,-6434886 -702263,-6434892 -702246,-6434909 -702228,-6434931 -702224,-6434935 -702207,-6434946 -702181,-6434966 -702171,-6434975 -702142,-6434993 -702131,-6434998 -702102,-6435007 -702072,-6435021 -702045,-6435030 -702031,-6435035 -702013,-6435036 -701996,-6435038 -701989,-6435039 -701972,-6435036 -701958,-6435039 -701942,-6435038 -701919,-6435038 -701893,-6435030 -701852,-6435021 -701834,-6435014 -701831,-6435012 -701828,-6435004 -701827,-6435003 -701823,-6435002 -701804,-6435003 -701791,-6435008 -701789,-6435007 -701787,-6435006 -701786,-6435000 -701785,-6434998 -701783,-6434996 -701779,-6434996 -701768,-6435001 -701765,-6435002 -701738,-6435000 -701734,-6435002 -701718,-6435019 -701715,-6435020 -701707,-6435022 -701690,-6435032 -701675,-6435041 -701659,-6435052 -701653,-6435054 -701641,-6435056 -701634,-6435059 -701634,-6435062 -701638,-6435072 -701636,-6435076 -701634,-6435077 -701633,-6435076 -701629,-6435073 -701627,-6435073 -701623,-6435074 -701618,-6435076 -701612,-6435080 -701609,-6435083 -701609,-6435085 -701614,-6435096 -701627,-6435109 -701627,-6435112 -701626,-6435120 -701630,-6435128 -701631,-6435131 -701630,-6435134 -701628,-6435135 -701619,-6435140 -701604,-6435144 -701597,-6435146 -701596,-6435144 -701598,-6435135 -701597,-6435132 -701595,-6435131 -701593,-6435130 -701590,-6435130 -701583,-6435136 -701581,-6435140 -701577,-6435142 -701576,-6435142 -701572,-6435139 -701571,-6435135 -701557,-6435138 -701548,-6435143 -701542,-6435150 -701542,-6435156 -701539,-6435161 -701536,-6435165 -701533,-6435166 -701531,-6435166 -701522,-6435158 -701521,-6435158 -701517,-6435160 -701505,-6435163 -701485,-6435175 -701483,-6435177 -701483,-6435180 -701484,-6435184 -701487,-6435188 -701503,-6435200 -701505,-6435204 -701507,-6435208 -701505,-6435215 -701505,-6435227 -701504,-6435229 -701495,-6435235 -701493,-6435238 -701498,-6435243 -701502,-6435244 -701512,-6435244 -701515,-6435245 -701519,-6435248 -701522,-6435251 -701524,-6435256 -701526,-6435269 -701526,-6435272 -701523,-6435275 -701521,-6435277 -701518,-6435278 -701503,-6435277 -701492,-6435280 -701490,-6435282 -701490,-6435285 -701493,-6435292 -701490,-6435298 -701484,-6435303 -701482,-6435305 -701480,-6435309 -701479,-6435316 -701480,-6435320 -701482,-6435323 -701492,-6435327 -701522,-6435335 -701527,-6435337 -701534,-6435345 -701541,-6435353 -701548,-6435366 -701557,-6435375 -701558,-6435377 -701560,-6435389 -701559,-6435396 -701555,-6435404 -701552,-6435408 -701538,-6435422 -701529,-6435427 -701522,-6435431 -701506,-6435435 -701483,-6435433 -701442,-6435432 -701438,-6435433 -701435,-6435435 -701412,-6435454 -701410,-6435455 -701393,-6435459 -701371,-6435471 -701342,-6435496 -701325,-6435508 -701317,-6435512 -701306,-6435513 -701268,-6435508 -701252,-6435505 -701217,-6435496 -701170,-6435480 -701163,-6435476 -701150,-6435465 -701138,-6435454" stroke="#003087" stroke-width="11" /></ns0:svg>    <rect x="20" y="50"  width="250" height="25"  rx="0"  fill="#003087" fill-opacity="0.8" />    <text x="145" y="70" text-anchor="middle" font-family="Frutiger" font-weight="bold" font-size="30" fill="white">Isles of Scilly</text>    <rect x="35" y="195" width="220" height="160" rx="15" fill="#41B6E6"/>    <g font-family="Frutiger" font-size="15" fill="white">        <g> <text x="45" y="218">Self-harm</text> <text x="245" y="218" text-anchor="end"></text> </g>        <g> <text x="45" y="243">SEN</text> <text x="245" y="243" text-anchor="end"></text> </g>        <g> <text x="45" y="268">Difficulties</text> <text x="245" y="268" text-anchor="end"></text> </g>        <g> <text x="45" y="293">Child Carer</text> <text x="245" y="293" text-anchor="end"></text> </g>        <g> <text x="45" y="318">Drinkers</text> <text x="245" y="318" text-anchor="end"></text> </g>        <g> <text x="45" y="343">Safeguarding </text> <text x="245" y="343" text-anchor="end">100</text> </g>    </g></svg>