<?xml version="1.0" standalone="no"?>
<!DOCTYPE svg PUBLIC "-//W3C//DTD SVG 1.1//EN"
"http://www.w3.org/Graphics/SVG/1.1/DTD/svg11.dtd">
<svg height="390" version="1.1" width="290" xmlns="http://www.w3.org/2000/svg"><defs><style type="text/css">@font-face {font-family: 'Frutiger';font-style: normal;font-weight: normal;src: local('Frutiger'), url('../fonts/Frutiger.woff') format('woff');}@font-face {font-family: 'Frutiger Bold';font-style: normal;font-weight: normal;src: local('Frutiger Bold'), url('../fonts/Frutiger_bold.woff') format('woff');}        </style>    </defs>    <rect x="20" y="20"  width="250" height="350" rx="15" fill="#005EB8" />    <rect x="35" y="35"  width="220" height="145" rx="15" fill="white" /><ns0:svg xmlns:ns0="http://www.w3.org/2000/svg" height="115" version="1.1" viewBox="-105754 -7118148 83445 50528" width="220" x="35" y="50"><ns0:polygon fill="#003087" points=" -59826,-7112167 -59794,-7112166 -59688,-7112166 -59575,-7112160 -59517,-7112158 -59473,-7112158 -59436,-7112159 -59367,-7112166 -59342,-7112167 -59244,-7112166 -59146,-7112168 -59064,-7112165 -59049,-7112164 -58952,-7112167 -58869,-7112172 -58851,-7112172 -58826,-7112171 -58792,-7112169 -58740,-7112163 -58527,-7112129 -58411,-7112113 -58290,-7112093 -58221,-7112084 -58175,-7112081 -58159,-7112081 -58138,-7112082 -58095,-7112086 -58021,-7112097 -57901,-7112118 -57781,-7112135 -57725,-7112145 -57487,-7112197 -57349,-7112226 -57218,-7112259 -57075,-7112290 -56964,-7112306 -56663,-7112344 -56472,-7112373 -56169,-7112416 -56068,-7112436 -55965,-7112465 -55780,-7112518 -55747,-7112529 -55706,-7112543 -55677,-7112555 -55644,-7112570 -55600,-7112592 -55559,-7112614 -55523,-7112637 -55506,-7112648 -55410,-7112717 -55342,-7112770 -55276,-7112831 -55237,-7112864 -55197,-7112898 -55103,-7112973 -55049,-7113029 -54980,-7113090 -54902,-7113161 -54871,-7113186 -54834,-7113218 -54774,-7113278 -54723,-7113326 -54682,-7113359 -54659,-7113377 -54585,-7113427 -54563,-7113441 -54527,-7113459 -54473,-7113481 -54445,-7113491 -54187,-7113569 -53749,-7113847 -53656,-7113910 -53488,-7114010 -53357,-7114078 -53183,-7114165 -53030,-7114247 -52931,-7114294 -52665,-7114407 -52587,-7114446 -52412,-7114522 -52368,-7114540 -52336,-7114551 -52302,-7114563 -52083,-7114629 -51980,-7114654 -51850,-7114683 -51707,-7114712 -51650,-7114722 -51525,-7114741 -51260,-7114776 -51123,-7114788 -50833,-7114826 -50519,-7114865 -50487,-7114868 -50445,-7114874 -50364,-7114891 -50307,-7114907 -50252,-7114926 -50200,-7114947 -50064,-7114988 -49892,-7115028 -49805,-7115047 -49683,-7115064 -49643,-7115066 -49621,-7115067 -49605,-7115065 -49583,-7115062 -49550,-7115054 -49452,-7115044 -49365,-7115039 -49337,-7115040 -49327,-7115042 -49311,-7115045 -49283,-7115053 -49255,-7115062 -49082,-7115125 -48951,-7113995 -48934,-7113999 -48924,-7114001 -48905,-7114002 -48845,-7114000 -48820,-7114003 -48787,-7114010 -48746,-7114014 -48694,-7114026 -48601,-7114039 -48522,-7114048 -48450,-7114048 -48409,-7114049 -48325,-7114059 -48257,-7114062 -48199,-7114060 -48173,-7114062 -48141,-7114066 -48125,-7114065 -48108,-7114065 -48063,-7114061 -47979,-7114050 -47976,-7114046 -48025,-7114040 -48069,-7114036 -48091,-7114033 -48145,-7114024 -48157,-7114022 -48211,-7114020 -48262,-7114013 -48285,-7114009 -48328,-7113997 -48383,-7113991 -48399,-7113987 -48432,-7113969 -48463,-7113956 -48539,-7113939 -48594,-7113924 -48637,-7113916 -48762,-7113896 -48783,-7113891 -48803,-7113883 -48820,-7113873 -48830,-7113866 -48861,-7113841 -48898,-7113806 -48911,-7113791 -48967,-7113727 -48975,-7113719 -48983,-7113712 -48993,-7113706 -49009,-7113698 -49027,-7113691 -49035,-7113688 -49077,-7113679 -49098,-7113675 -49147,-7113675 -49155,-7113674 -49175,-7113668 -49189,-7113663 -49196,-7113663 -49223,-7113670 -49297,-7113712 -49338,-7113730 -49359,-7113735 -49422,-7113744 -49431,-7113744 -49450,-7113742 -49433,-7113733 -49413,-7113726 -49393,-7113718 -49373,-7113708 -49364,-7113702 -49330,-7113677 -49325,-7113664 -49324,-7113655 -49323,-7113646 -49324,-7113638 -49326,-7113632 -49329,-7113624 -49334,-7113614 -49346,-7113597 -49342,-7113589 -49307,-7113589 -49289,-7113588 -49277,-7113586 -49266,-7113582 -49246,-7113573 -49228,-7113559 -49215,-7113552 -49202,-7113547 -49173,-7113539 -49130,-7113542 -49067,-7113535 -49038,-7113531 -49009,-7113526 -48947,-7113515 -48835,-7113491 -48815,-7113484 -48805,-7113480 -48790,-7113468 -48787,-7113466 -48786,-7113462 -48786,-7113458 -48790,-7113443 -48787,-7113436 -48764,-7113428 -48748,-7113425 -48731,-7113424 -48701,-7113424 -48619,-7113424 -48576,-7113419 -48556,-7113417 -48550,-7113417 -48538,-7113418 -48528,-7113420 -48511,-7113427 -48490,-7113428 -48472,-7113426 -48467,-7113426 -48463,-7113427 -48446,-7113439 -48438,-7113443 -48429,-7113445 -48412,-7113438 -48383,-7113412 -48353,-7113393 -48333,-7113394 -48320,-7113394 -48295,-7113390 -48282,-7113391 -48271,-7113397 -48266,-7113400 -48261,-7113407 -48256,-7113428 -48251,-7113434 -48244,-7113438 -48228,-7113443 -48220,-7113444 -48178,-7113439 -48145,-7113423 -48140,-7113423 -48135,-7113424 -48125,-7113435 -48112,-7113445 -48094,-7113463 -48071,-7113467 -48045,-7113467 -48019,-7113461 -47996,-7113458 -47958,-7113440 -47946,-7113437 -47940,-7113437 -47929,-7113440 -47909,-7113452 -47906,-7113452 -47896,-7113450 -47891,-7113451 -47879,-7113453 -47862,-7113465 -47839,-7113473 -47801,-7113469 -47790,-7113470 -47778,-7113474 -47774,-7113477 -47771,-7113481 -47768,-7113488 -47764,-7113524 -47763,-7113529 -47759,-7113534 -47757,-7113535 -47746,-7113536 -47730,-7113536 -47717,-7113534 -47708,-7113532 -47684,-7113524 -47672,-7113522 -47656,-7113524 -47646,-7113527 -47639,-7113533 -47631,-7113544 -47623,-7113550 -47616,-7113553 -47607,-7113556 -47592,-7113558 -47493,-7113553 -47453,-7113553 -47440,-7113555 -47432,-7113558 -47407,-7113569 -47391,-7113573 -47368,-7113569 -47344,-7113567 -47276,-7113573 -47249,-7113574 -47173,-7113576 -47087,-7113574 -46921,-7113591 -46872,-7113598 -46843,-7113599 -46749,-7113604 -46715,-7113605 -46609,-7113604 -46512,-7113610 -46467,-7113622 -46450,-7113624 -46433,-7113627 -46343,-7113632 -46312,-7113635 -46197,-7113649 -46123,-7113663 -46092,-7113670 -46061,-7113678 -45862,-7113734 -45824,-7113746 -45751,-7113774 -45720,-7113784 -45695,-7113799 -45656,-7113817 -45625,-7113828 -45613,-7113831 -45570,-7113837 -45554,-7113839 -45525,-7113838 -45518,-7113839 -45504,-7113841 -45474,-7113852 -45452,-7113861 -45434,-7113869 -45419,-7113877 -45400,-7113892 -45365,-7113903 -45354,-7113906 -45276,-7113920 -45235,-7113929 -45140,-7113942 -45033,-7113970 -44955,-7113980 -44906,-7113985 -44891,-7113984 -44862,-7113977 -44851,-7113976 -44789,-7113977 -44748,-7113977 -44701,-7113975 -44688,-7113972 -44680,-7113972 -44664,-7113972 -44584,-7113980 -44443,-7113994 -44284,-7114013 -44180,-7114036 -44160,-7114037 -44052,-7114056 -43945,-7114071 -43911,-7114075 -43893,-7114072 -43766,-7114082 -43721,-7114085 -43635,-7114081 -43569,-7114073 -43542,-7114074 -43490,-7114069 -43448,-7114068 -43424,-7114069 -43363,-7114072 -43171,-7114077 -43127,-7114085 -42954,-7114096 -42842,-7114118 -42735,-7114145 -42718,-7114152 -42524,-7114210 -42451,-7114234 -42362,-7114251 -42342,-7114256 -42295,-7114273 -42270,-7114285 -42215,-7114302 -42150,-7114325 -42061,-7114352 -41991,-7114377 -41877,-7114412 -41806,-7114437 -41719,-7114463 -41520,-7114496 -41470,-7114508 -41426,-7114523 -41418,-7114525 -41322,-7114540 -41232,-7114556 -41217,-7114559 -41153,-7114576 -41120,-7114583 -40991,-7114601 -40944,-7114608 -40849,-7114635 -40689,-7114667 -40583,-7114695 -40237,-7114790 -40155,-7114811 -40078,-7114829 -40041,-7114839 -40005,-7114850 -39936,-7114874 -39832,-7114906 -39778,-7114927 -39724,-7114949 -39591,-7115003 -39484,-7115045 -39399,-7115076 -39123,-7115198 -39033,-7115237 -38995,-7115246 -38964,-7115257 -38919,-7115278 -38870,-7115298 -38806,-7115331 -38766,-7115354 -38674,-7115398 -38614,-7115429 -38463,-7115489 -38389,-7115524 -38368,-7115534 -38246,-7115579 -38153,-7115617 -38029,-7115660 -37836,-7115717 -37749,-7115746 -37637,-7115781 -37507,-7115817 -37461,-7115834 -37369,-7115873 -37270,-7115908 -37175,-7115935 -37154,-7115947 -37145,-7115951 -37019,-7115992 -36974,-7116001 -36934,-7116007 -36865,-7116021 -36815,-7116036 -36738,-7116056 -36704,-7116064 -36688,-7116067 -36656,-7116070 -36618,-7116077 -36550,-7116101 -36523,-7116108 -36472,-7116114 -36437,-7116120 -36422,-7116123 -36358,-7116141 -36339,-7116147 -36286,-7116167 -36254,-7116176 -36150,-7116196 -36077,-7116206 -35999,-7116222 -35906,-7116249 -35862,-7116267 -35770,-7116285 -35614,-7116319 -35519,-7116333 -35473,-7116343 -35427,-7116353 -35332,-7116378 -35279,-7116388 -35227,-7116401 -35063,-7116435 -34942,-7116453 -34775,-7116485 -34687,-7116497 -34647,-7116505 -34600,-7116509 -34475,-7116527 -34375,-7116552 -34335,-7116550 -34317,-7116551 -34218,-7116563 -34173,-7116571 -34150,-7116573 -34083,-7116578 -34052,-7116577 -34013,-7116581 -33962,-7116587 -33928,-7116590 -33822,-7116595 -33666,-7116622 -33606,-7116636 -33478,-7116656 -33377,-7116674 -33324,-7116682 -33260,-7116697 -33208,-7116707 -33170,-7116713 -33075,-7116720 -33044,-7116720 -32968,-7116715 -32924,-7116708 -32866,-7116693 -32849,-7116687 -32834,-7116681 -32783,-7116658 -32726,-7116629 -32659,-7116586 -32627,-7116562 -32609,-7116552 -32592,-7116541 -32535,-7116511 -32509,-7116495 -32497,-7116486 -32462,-7116458 -32438,-7116436 -32399,-7116399 -32359,-7116356 -32331,-7116330 -32308,-7116307 -32288,-7116280 -32266,-7116240 -32256,-7116224 -32245,-7116209 -32225,-7116186 -32204,-7116167 -32163,-7116137 -32119,-7116102 -32026,-7116030 -32009,-7116018 -31998,-7116012 -31987,-7116006 -31951,-7115993 -31913,-7115983 -31842,-7115974 -31826,-7115973 -31796,-7115973 -31733,-7115976 -31699,-7115973 -31642,-7115958 -31600,-7115946 -31578,-7115938 -31473,-7115890 -31323,-7115813 -31268,-7115782 -31255,-7115774 -31196,-7115720 -31157,-7115678 -31115,-7115658 -31047,-7115620 -31016,-7115601 -30998,-7115588 -30922,-7115517 -30891,-7115484 -30862,-7115463 -30832,-7115435 -30816,-7115420 -30742,-7115340 -30729,-7115323 -30711,-7115293 -30680,-7115240 -30616,-7115118 -30544,-7114986 -30479,-7114896 -30467,-7114881 -30439,-7114853 -30379,-7114787 -30347,-7114754 -30312,-7114700 -30303,-7114684 -30289,-7114643 -30236,-7114560 -30206,-7114508 -30179,-7114473 -30147,-7114420 -30080,-7114302 -30070,-7114285 -30053,-7114260 -30036,-7114221 -30007,-7114167 -29959,-7114061 -29922,-7113972 -29900,-7113909 -29884,-7113852 -29860,-7113791 -29843,-7113740 -29807,-7113660 -29782,-7113614 -29763,-7113573 -29750,-7113541 -29732,-7113483 -29687,-7113376 -29647,-7113236 -29638,-7113207 -29617,-7113146 -29598,-7113095 -29573,-7113035 -29540,-7112953 -29504,-7112827 -29498,-7112807 -29481,-7112769 -29466,-7112732 -29451,-7112693 -29421,-7112612 -29396,-7112560 -29355,-7112484 -29328,-7112431 -29317,-7112395 -29305,-7112347 -29287,-7112312 -29277,-7112280 -29216,-7112164 -29205,-7112142 -29182,-7112076 -29146,-7111995 -29142,-7111985 -29136,-7111967 -29134,-7111959 -29133,-7111950 -29134,-7111935 -29135,-7111929 -29141,-7111922 -29122,-7111915 -29112,-7111917 -29105,-7111913 -29084,-7111871 -29040,-7111795 -29022,-7111760 -29010,-7111740 -29001,-7111717 -28998,-7111685 -28995,-7111665 -28981,-7111612 -28961,-7111563 -28942,-7111543 -28911,-7111500 -28867,-7111374 -28837,-7111298 -28826,-7111271 -28796,-7111214 -28785,-7111190 -28755,-7111118 -28734,-7111072 -28726,-7111039 -28724,-7111011 -28719,-7110993 -28714,-7110975 -28706,-7110954 -28686,-7110905 -28602,-7110716 -28568,-7110646 -28533,-7110566 -28507,-7110513 -28484,-7110456 -28454,-7110403 -28431,-7110348 -28396,-7110275 -28387,-7110254 -28355,-7110170 -28348,-7110154 -28334,-7110124 -28321,-7110088 -28264,-7109986 -28223,-7109902 -28200,-7109854 -28177,-7109811 -28151,-7109744 -28115,-7109701 -28105,-7109687 -28081,-7109646 -28054,-7109594 -28017,-7109520 -27972,-7109436 -27896,-7109301 -27844,-7109206 -27791,-7109124 -27696,-7108968 -27663,-7108922 -27612,-7108840 -27594,-7108815 -27533,-7108734 -27497,-7108683 -27449,-7108610 -27409,-7108557 -27339,-7108456 -27311,-7108413 -27275,-7108368 -27239,-7108329 -27206,-7108291 -27165,-7108245 -27117,-7108192 -27072,-7108148 -26994,-7108064 -26931,-7107999 -26857,-7107919 -26809,-7107863 -26794,-7107849 -26696,-7107754 -26576,-7107656 -26471,-7107565 -26412,-7107511 -26297,-7107403 -26268,-7107371 -26261,-7107365 -26168,-7107286 -26103,-7107222 -26025,-7107142 -25922,-7107043 -25853,-7106969 -25753,-7106836 -25715,-7106769 -25677,-7106707 -25653,-7106667 -25640,-7106647 -25563,-7106509 -25445,-7106284 -25416,-7106225 -25362,-7106117 -25302,-7106000 -25261,-7105876 -25255,-7105863 -25194,-7105735 -25131,-7105607 -25058,-7105473 -25002,-7105395 -24952,-7105342 -24903,-7105228 -24846,-7105101 -24812,-7105012 -24781,-7104916 -24768,-7104888 -24759,-7104872 -24737,-7104835 -24683,-7104774 -24680,-7104771 -24644,-7104748 -24618,-7104731 -24587,-7104710 -24565,-7104691 -24541,-7104662 -24522,-7104643 -24506,-7104629 -24484,-7104617 -24441,-7104603 -24371,-7104581 -24341,-7104570 -24314,-7104559 -24246,-7104530 -24198,-7104505 -24149,-7104471 -24094,-7104429 -24025,-7104365 -23915,-7104279 -23814,-7104201 -23767,-7104161 -23731,-7104138 -23698,-7104121 -23647,-7104102 -23631,-7104096 -23625,-7104086 -23624,-7104068 -23622,-7104042 -23615,-7104005 -23610,-7103941 -23606,-7103888 -23612,-7103843 -23623,-7103787 -23631,-7103744 -23633,-7103706 -23631,-7103681 -23629,-7103670 -23627,-7103654 -23612,-7103631 -23595,-7103612 -23569,-7103596 -23541,-7103580 -23517,-7103554 -23488,-7103509 -23464,-7103467 -23448,-7103441 -23426,-7103422 -23402,-7103402 -23378,-7103377 -23363,-7103348 -23338,-7103293 -23295,-7103206 -23273,-7103169 -23241,-7103126 -23215,-7103096 -23175,-7103054 -23124,-7103002 -23096,-7102966 -23060,-7102919 -23025,-7102870 -22985,-7102823 -22935,-7102770 -22855,-7102697 -22825,-7102669 -22787,-7102627 -22780,-7102623 -22759,-7102627 -22736,-7102640 -22715,-7102656 -22700,-7102669 -22685,-7102682 -22667,-7102692 -22644,-7102697 -22622,-7102700 -22601,-7102694 -22578,-7102683 -22549,-7102648 -22507,-7102588 -22351,-7102372 -22310,-7102311 -22309,-7102309 -22349,-7102256 -22423,-7102158 -22442,-7102133 -22457,-7102115 -22467,-7102103 -22477,-7102094 -22489,-7102084 -22504,-7102074 -22515,-7102067 -22541,-7102057 -22581,-7102046 -22594,-7102039 -22602,-7102034 -22606,-7102029 -22609,-7102023 -22613,-7102003 -22619,-7101993 -22623,-7101989 -22635,-7101983 -22639,-7101979 -22650,-7101973 -22656,-7101968 -22660,-7101959 -22668,-7101947 -22671,-7101945 -22680,-7101941 -22696,-7101939 -22701,-7101937 -22704,-7101935 -22705,-7101931 -22706,-7101928 -22704,-7101922 -22703,-7101909 -22716,-7101897 -22756,-7101874 -22784,-7101859 -22805,-7101838 -22855,-7101811 -22872,-7101797 -22897,-7101773 -22950,-7101706 -22971,-7101688 -22979,-7101680 -23008,-7101659 -23061,-7101630 -23080,-7101617 -23102,-7101599 -23172,-7101535 -23247,-7101477 -23294,-7101434 -23379,-7101360 -23431,-7101320 -23446,-7101309 -23494,-7101264 -23516,-7101250 -23520,-7101247 -23548,-7101220 -23588,-7101185 -23690,-7101094 -23775,-7101024 -23845,-7100952 -23856,-7100944 -23871,-7100935 -23884,-7100928 -23927,-7100913 -23943,-7100900 -24025,-7100829 -24126,-7100752 -24201,-7100687 -24377,-7100557 -24453,-7100516 -24483,-7100497 -24534,-7100460 -24558,-7100439 -24566,-7100430 -24612,-7100370 -24659,-7100318 -24700,-7100261 -24730,-7100229 -24776,-7100197 -24836,-7100150 -24856,-7100130 -24869,-7100115 -24878,-7100106 -24895,-7100092 -24997,-7100021 -25007,-7100011 -25024,-7099994 -25051,-7099967 -25080,-7099944 -25142,-7099891 -25186,-7099849 -25263,-7099779 -25307,-7099747 -25388,-7099694 -25416,-7099673 -25432,-7099656 -25442,-7099648 -25452,-7099640 -25475,-7099625 -25495,-7099601 -25505,-7099591 -25559,-7099543 -25594,-7099516 -25642,-7099473 -25672,-7099468 -25692,-7099467 -25710,-7099460 -25717,-7099455 -25723,-7099449 -25732,-7099432 -25734,-7099417 -25738,-7099398 -25746,-7099381 -25785,-7099354 -25848,-7099307 -25894,-7099266 -25966,-7099237 -25986,-7099236 -25991,-7099236 -25998,-7099240 -26081,-7099288 -26098,-7099295 -26147,-7099311 -26203,-7099340 -26271,-7099373 -26296,-7099380 -26360,-7099388 -26449,-7099388 -26476,-7099383 -26502,-7099377 -26523,-7099363 -26530,-7099340 -26520,-7099307 -26504,-7099269 -26492,-7099235 -26490,-7099203 -26502,-7099200 -26549,-7099187 -26723,-7099149 -26828,-7099132 -26827,-7099179 -26835,-7099226 -26890,-7099209 -26898,-7099190 -26906,-7099187 -26991,-7099162 -27050,-7099143 -27079,-7099139 -27108,-7099135 -27153,-7099136 -27291,-7099142 -27315,-7099139 -27347,-7099142 -27403,-7099140 -27429,-7099136 -27450,-7099130 -27483,-7099127 -27560,-7099112 -27641,-7099112 -27684,-7099113 -27749,-7099109 -27799,-7099093 -27811,-7099087 -27824,-7099085 -27864,-7099080 -27917,-7099076 -27936,-7099076 -27981,-7099053 -28092,-7098976 -28103,-7098971 -28143,-7098954 -28162,-7098944 -28167,-7098935 -28217,-7098818 -28267,-7098790 -28387,-7098732 -28457,-7098712 -28580,-7098685 -28720,-7098651 -28734,-7098644 -28798,-7098618 -28837,-7098609 -28909,-7098600 -28963,-7098596 -29054,-7098580 -29063,-7098577 -29118,-7098537 -29126,-7098529 -29162,-7098464 -29262,-7098414 -29357,-7098397 -29371,-7098392 -29383,-7098383 -29406,-7098365 -29458,-7098321 -29563,-7098245 -29585,-7098231 -29607,-7098217 -29679,-7098178 -29702,-7098164 -29744,-7098138 -29762,-7098131 -29852,-7098112 -29865,-7098110 -29942,-7098122 -29976,-7098126 -30014,-7098124 -30139,-7098110 -30235,-7098121 -30295,-7098102 -30383,-7098062 -30427,-7098049 -30507,-7098034 -30691,-7098021 -30709,-7098036 -30822,-7098033 -30862,-7098029 -30925,-7098020 -30965,-7098012 -31015,-7098000 -31085,-7097987 -31179,-7098024 -31187,-7098022 -31353,-7097962 -31461,-7097926 -31437,-7097855 -31440,-7097853 -31469,-7097834 -31518,-7097812 -31599,-7097781 -31686,-7097756 -31710,-7097751 -31726,-7097742 -31747,-7097727 -31790,-7097689 -31829,-7097647 -31851,-7097627 -31873,-7097610 -31885,-7097600 -31895,-7097594 -31950,-7097565 -31978,-7097546 -32036,-7097469 -32101,-7097387 -32107,-7097380 -32123,-7097368 -32139,-7097363 -32274,-7097351 -32298,-7097346 -32338,-7097333 -32518,-7097251 -32524,-7097250 -32532,-7097268 -32537,-7097301 -32775,-7097219 -33199,-7097118 -33294,-7097348 -33369,-7097521 -33439,-7097687 -33499,-7097836 -33583,-7097772 -33703,-7097680 -33827,-7097588 -33888,-7097547 -33885,-7097476 -33910,-7097460 -33946,-7097441 -33985,-7097424 -34004,-7097417 -34023,-7097411 -34069,-7097401 -34083,-7097400 -34097,-7097400 -34175,-7097423 -34221,-7097434 -34252,-7097441 -34301,-7097449 -34334,-7097450 -34348,-7097450 -34319,-7097309 -34252,-7096949 -34218,-7096811 -34182,-7096675 -34160,-7096615 -34140,-7096564 -34153,-7096558 -34068,-7096367 -34057,-7096308 -34036,-7096261 -34036,-7096239 -34064,-7096205 -34085,-7096149 -34082,-7096138 -34079,-7096128 -34042,-7096066 -34021,-7096035 -33974,-7095903 -33953,-7095853 -33949,-7095836 -33946,-7095820 -33946,-7095768 -33955,-7095724 -33963,-7095697 -33962,-7095648 -33948,-7095609 -33941,-7095593 -33932,-7095574 -33919,-7095553 -33901,-7095530 -33846,-7095470 -33819,-7095434 -33744,-7095304 -33777,-7095277 -33738,-7095209 -33823,-7095116 -33748,-7095032 -33810,-7094972 -33820,-7094955 -33829,-7094938 -33841,-7094885 -33847,-7094864 -33706,-7094499 -33718,-7094470 -33659,-7094360 -33630,-7094313 -33580,-7094217 -33562,-7094180 -33532,-7094093 -33520,-7094066 -33510,-7094042 -33503,-7094020 -33495,-7093995 -33489,-7093971 -33483,-7093947 -33479,-7093925 -33477,-7093903 -33477,-7093884 -33478,-7093877 -33482,-7093865 -33487,-7093849 -33709,-7093754 -33771,-7093727 -33790,-7093716 -33843,-7093681 -33865,-7093663 -33884,-7093644 -33891,-7093636 -33896,-7093627 -33905,-7093610 -33908,-7093596 -33870,-7093441 -33776,-7093034 -33876,-7093010 -33949,-7092987 -34039,-7092962 -34125,-7092942 -34172,-7092935 -34254,-7092925 -34315,-7092917 -34329,-7092918 -34345,-7092923 -34488,-7092920 -34605,-7092915 -34575,-7092787 -34545,-7092575 -34611,-7092566 -34597,-7092459 -34710,-7092454 -34764,-7092460 -34742,-7092345 -34829,-7092337 -34780,-7092091 -34998,-7092057 -34986,-7091752 -35091,-7091736 -35141,-7091721 -35122,-7091680 -35139,-7091670 -35110,-7091615 -35281,-7091519 -35210,-7091436 -35415,-7091259 -35357,-7091190 -35573,-7091014 -35610,-7090988 -35689,-7090945 -35727,-7090930 -35672,-7090883 -35655,-7090863 -35623,-7090816 -35671,-7090773 -35690,-7090758 -35706,-7090743 -35721,-7090727 -35735,-7090708 -35748,-7090689 -35760,-7090668 -35800,-7090587 -35813,-7090563 -35852,-7090494 -35874,-7090460 -35909,-7090412 -35942,-7090370 -35994,-7090301 -36023,-7090269 -36014,-7090245 -36005,-7090223 -36000,-7090213 -35994,-7090203 -35981,-7090185 -35937,-7090139 -35961,-7090095 -35979,-7090047 -35991,-7090018 -36017,-7089965 -36074,-7089860 -36168,-7089697 -36238,-7089575 -36271,-7089519 -36300,-7089473 -36380,-7089349 -36399,-7089299 -36449,-7089195 -36467,-7089139 -36498,-7089077 -36515,-7089028 -36562,-7088940 -36599,-7088862 -36622,-7088795 -36650,-7088684 -36659,-7088651 -36680,-7088588 -36720,-7088447 -36780,-7088434 -36814,-7088355 -36860,-7088243 -36921,-7088111 -36982,-7087971 -37035,-7087839 -37082,-7087749 -37126,-7087641 -37189,-7087490 -37212,-7087451 -37232,-7087425 -37240,-7087327 -37266,-7087314 -37286,-7087267 -37304,-7087221 -37314,-7087189 -37336,-7087131 -37358,-7087104 -37362,-7087094 -37365,-7087083 -37368,-7087080 -37381,-7087044 -37392,-7087014 -37396,-7087004 -37490,-7086996 -37547,-7086995 -37596,-7087002 -37639,-7087016 -37701,-7087027 -37746,-7087041 -37792,-7087051 -37811,-7087056 -37841,-7087062 -37880,-7087077 -37911,-7087081 -37959,-7087088 -37980,-7087090 -37984,-7087090 -38031,-7087093 -38089,-7087100 -38208,-7087110 -38270,-7087114 -38308,-7087121 -38332,-7087129 -38390,-7087142 -38436,-7087147 -38607,-7087158 -38687,-7087158 -38735,-7087161 -38812,-7087170 -38791,-7087139 -38761,-7087103 -38720,-7087059 -38682,-7087017 -38668,-7087004 -38623,-7086968 -38555,-7086912 -38529,-7086898 -38500,-7086879 -38547,-7086799 -38582,-7086752 -38617,-7086704 -38638,-7086671 -38675,-7086607 -38703,-7086571 -38731,-7086523 -38754,-7086506 -38777,-7086494 -38797,-7086484 -38826,-7086477 -38853,-7086474 -38888,-7086475 -38892,-7086476 -38988,-7086505 -39017,-7086516 -39066,-7086519 -39191,-7086514 -39464,-7086520 -39662,-7086522 -39665,-7086522 -39749,-7086593 -39875,-7086696 -40006,-7086808 -40043,-7086841 -40063,-7086855 -40212,-7086918 -40262,-7086941 -40303,-7086957 -40342,-7086975 -40356,-7086981 -40352,-7086988 -40386,-7087004 -40425,-7087008 -40452,-7087011 -40561,-7087024 -40753,-7087050 -40844,-7087061 -40931,-7087067 -41006,-7087071 -41027,-7087102 -41036,-7087119 -41041,-7087124 -41049,-7087136 -41063,-7087136 -41109,-7087118 -41138,-7087106 -41162,-7087093 -41169,-7087090 -41244,-7087083 -41280,-7087074 -41346,-7087063 -41393,-7087063 -41548,-7087067 -41593,-7087070 -41706,-7087080 -41894,-7087095 -42024,-7087110 -42074,-7087108 -42130,-7087111 -42264,-7087128 -42374,-7087143 -42404,-7087138 -42470,-7087156 -42566,-7087169 -42604,-7087170 -42665,-7087169 -42682,-7087170 -42726,-7087183 -42773,-7087192 -42795,-7087194 -42837,-7087195 -42880,-7087196 -42904,-7087195 -42993,-7087192 -43091,-7087203 -43139,-7087204 -43162,-7087206 -43207,-7087212 -43230,-7087215 -43284,-7087226 -43396,-7087264 -43430,-7087273 -43462,-7087282 -43526,-7087298 -43587,-7087317 -43713,-7087346 -43758,-7087359 -43853,-7087375 -43872,-7087377 -43908,-7087379 -43986,-7087396 -44127,-7087424 -44175,-7087437 -44206,-7087446 -44244,-7087447 -44257,-7087448 -44289,-7087458 -44305,-7087462 -44352,-7087470 -44409,-7087489 -44455,-7087507 -44489,-7087517 -44514,-7087523 -44539,-7087528 -44588,-7087528 -44645,-7087534 -44753,-7087539 -44837,-7087551 -44940,-7087572 -44954,-7087583 -44960,-7087587 -44985,-7087583 -45085,-7087614 -45114,-7087622 -45159,-7087625 -45222,-7087632 -45402,-7087648 -45512,-7087659 -45586,-7087679 -45709,-7087710 -45951,-7087787 -45996,-7087801 -46046,-7087808 -46165,-7087831 -46204,-7087835 -46299,-7087847 -46328,-7087849 -46346,-7087851 -46369,-7087856 -46416,-7087864 -46530,-7087902 -46612,-7087931 -46644,-7087943 -46717,-7087969 -46736,-7087982 -46754,-7088004 -46779,-7088066 -46808,-7088126 -46894,-7088317 -46941,-7088425 -47027,-7088606 -47061,-7088680 -47128,-7088830 -47171,-7088924 -47235,-7089071 -47251,-7089095 -47315,-7089180 -47353,-7089235 -47370,-7089262 -47396,-7089297 -47421,-7089333 -47441,-7089359 -47471,-7089404 -47528,-7089480 -47535,-7089489 -47551,-7089503 -47572,-7089523 -47598,-7089558 -47611,-7089568 -47623,-7089574 -47630,-7089580 -47644,-7089594 -47656,-7089609 -47666,-7089624 -47670,-7089632 -47672,-7089639 -47679,-7089666 -47682,-7089690 -47686,-7089701 -47691,-7089711 -47696,-7089720 -47715,-7089745 -47719,-7089753 -47722,-7089760 -47727,-7089777 -47727,-7089805 -47724,-7089862 -47719,-7089903 -47721,-7089928 -47730,-7089964 -47740,-7089977 -47756,-7089984 -47796,-7089966 -47849,-7089940 -47873,-7089926 -47905,-7089902 -47967,-7089874 -48021,-7089850 -48071,-7089824 -48111,-7089798 -48123,-7089789 -48151,-7089765 -48189,-7089739 -48261,-7089702 -48323,-7089664 -48348,-7089644 -48405,-7089582 -48433,-7089560 -48492,-7089519 -48525,-7089494 -48578,-7089457 -48661,-7089387 -48738,-7089315 -48746,-7089312 -48785,-7089275 -48833,-7089249 -48848,-7089243 -48880,-7089229 -48903,-7089204 -48914,-7089191 -48924,-7089178 -48941,-7089150 -48958,-7089116 -48976,-7089074 -48986,-7089037 -48989,-7089018 -48994,-7088968 -49006,-7088934 -49019,-7088907 -49059,-7088850 -49082,-7088823 -49111,-7088796 -49164,-7088745 -49182,-7088721 -49199,-7088692 -49204,-7088678 -49214,-7088649 -49223,-7088616 -49235,-7088565 -49243,-7088513 -49247,-7088486 -49253,-7088458 -49261,-7088436 -49277,-7088408 -49304,-7088382 -49337,-7088347 -49393,-7088279 -49419,-7088244 -49456,-7088176 -49487,-7088116 -49496,-7088097 -49518,-7088039 -49525,-7088023 -49532,-7088008 -49547,-7087981 -49604,-7087916 -49639,-7087879 -49695,-7087825 -49718,-7087809 -49732,-7087803 -49777,-7087787 -49799,-7087784 -49808,-7087782 -49817,-7087778 -49834,-7087765 -49855,-7087737 -49893,-7087695 -49918,-7087666 -49930,-7087651 -49951,-7087614 -49997,-7087543 -50020,-7087517 -50029,-7087502 -50037,-7087487 -50053,-7087450 -50069,-7087383 -50082,-7087346 -50090,-7087314 -50096,-7087282 -50105,-7087211 -50114,-7087169 -50134,-7087059 -50136,-7087043 -50140,-7087001 -50147,-7086980 -50151,-7086964 -50167,-7086934 -50178,-7086888 -50180,-7086880 -50196,-7086893 -50225,-7086918 -50236,-7086929 -50247,-7086943 -50270,-7086976 -50336,-7087068 -50349,-7087144 -50353,-7087151 -50359,-7087157 -50394,-7087169 -50423,-7087178 -50457,-7087176 -50543,-7087157 -50585,-7087147 -50620,-7087129 -50644,-7087118 -50658,-7087112 -50670,-7087107 -50681,-7087105 -50702,-7087140 -50727,-7087135 -50748,-7087133 -50790,-7087123 -50826,-7087123 -50859,-7087128 -50862,-7087129 -50906,-7087089 -50917,-7087075 -50927,-7087061 -50946,-7087049 -51004,-7087079 -51027,-7087080 -51032,-7087079 -51037,-7087076 -51064,-7087026 -51082,-7087001 -51099,-7086988 -51118,-7086975 -51231,-7086923 -51288,-7086904 -51302,-7086895 -51317,-7086872 -51323,-7086860 -51328,-7086848 -51332,-7086826 -51329,-7086810 -51310,-7086772 -51307,-7086760 -51353,-7086705 -51392,-7086673 -51410,-7086652 -51431,-7086637 -51451,-7086620 -51474,-7086614 -51480,-7086607 -51485,-7086599 -51489,-7086586 -51492,-7086572 -51497,-7086545 -51499,-7086517 -51510,-7086504 -51537,-7086497 -51565,-7086496 -51604,-7086495 -51639,-7086491 -51665,-7086481 -51690,-7086485 -51704,-7086502 -51710,-7086510 -51722,-7086527 -51748,-7086524 -51771,-7086521 -51792,-7086514 -51803,-7086510 -51812,-7086514 -51824,-7086520 -51838,-7086516 -51867,-7086473 -51920,-7086418 -51931,-7086398 -51938,-7086367 -51941,-7086330 -51955,-7086271 -51964,-7086243 -51974,-7086200 -51990,-7086134 -51994,-7086118 -52003,-7086078 -52009,-7085885 -52007,-7085837 -52006,-7085668 -51979,-7085492 -51962,-7085413 -51959,-7085394 -51955,-7085356 -51954,-7085337 -51963,-7085329 -51971,-7085271 -51988,-7085193 -52063,-7085198 -52149,-7085174 -52273,-7085156 -52382,-7085167 -52461,-7085176 -52483,-7085177 -52514,-7085182 -52553,-7085188 -52616,-7085172 -52642,-7085170 -52659,-7085167 -52798,-7085078 -52833,-7085058 -52861,-7085039 -52892,-7084991 -52908,-7084964 -52889,-7084929 -52884,-7084918 -52885,-7084901 -52889,-7084899 -52916,-7084883 -52928,-7084871 -52948,-7084848 -52969,-7084813 -52981,-7084790 -53003,-7084745 -53036,-7084661 -53047,-7084622 -53065,-7084622 -53092,-7084624 -53159,-7084623 -53264,-7084624 -53330,-7084614 -53344,-7084613 -53383,-7084613 -53468,-7084607 -53518,-7084599 -53556,-7084606 -53711,-7084572 -53778,-7084569 -53797,-7084565 -53806,-7084545 -53812,-7084515 -53821,-7084507 -53837,-7084504 -53838,-7084503 -53842,-7084505 -53874,-7084520 -53878,-7084521 -53901,-7084524 -54154,-7084561 -54234,-7084576 -54366,-7084590 -54389,-7084592 -54450,-7084596 -54529,-7084603 -54581,-7084610 -54647,-7084615 -54649,-7084615 -54652,-7084584 -54655,-7084560 -54660,-7084535 -54668,-7084498 -54676,-7084467 -54684,-7084437 -54703,-7084379 -54722,-7084330 -54736,-7084296 -54755,-7084256 -54770,-7084227 -54797,-7084180 -54809,-7084163 -54999,-7083851 -55038,-7083806 -55148,-7083686 -55255,-7083560 -55266,-7083547 -55279,-7083535 -55312,-7083507 -55344,-7083485 -55460,-7083425 -55491,-7083411 -55510,-7083401 -55545,-7083381 -55582,-7083355 -55599,-7083341 -55633,-7083312 -55665,-7083278 -55667,-7083276 -55722,-7083218 -55760,-7083160 -55781,-7083109 -55794,-7083069 -55799,-7083039 -55796,-7083039 -55697,-7083040 -55564,-7083053 -55353,-7083054 -55166,-7083063 -54970,-7083068 -54851,-7083091 -54837,-7083093 -54807,-7083097 -54777,-7083100 -54633,-7083115 -54580,-7083117 -54542,-7083121 -54417,-7083127 -54343,-7083129 -54125,-7083142 -54101,-7083144 -54066,-7083148 -54015,-7083152 -53974,-7083158 -53933,-7083162 -53872,-7083166 -53814,-7083168 -53684,-7083176 -53649,-7083179 -53585,-7083186 -53532,-7083196 -53464,-7083209 -53406,-7083219 -53272,-7083246 -53243,-7083251 -53181,-7083259 -53124,-7083269 -53065,-7083283 -53006,-7083297 -52923,-7083322 -52873,-7083335 -52849,-7083337 -52791,-7083338 -52770,-7083341 -52757,-7083343 -52689,-7083362 -52610,-7083384 -52547,-7083401 -52386,-7083446 -52288,-7083477 -52251,-7083492 -52165,-7083528 -52109,-7083550 -52081,-7083558 -52037,-7083571 -52011,-7083579 -51967,-7083590 -51962,-7083591 -51902,-7083598 -51859,-7083602 -51844,-7083606 -51814,-7083616 -51764,-7083635 -51708,-7083651 -51672,-7083662 -51653,-7083664 -51607,-7083670 -51587,-7083673 -51574,-7083678 -51516,-7083701 -51456,-7083726 -51395,-7083743 -51371,-7083749 -51327,-7083765 -51295,-7083777 -51220,-7083803 -51177,-7083821 -51152,-7083829 -51130,-7083835 -51076,-7083850 -51044,-7083864 -51026,-7083877 -51020,-7083881 -51007,-7083889 -50975,-7083898 -50921,-7083915 -50857,-7083941 -50809,-7083960 -50726,-7083993 -50653,-7084023 -50628,-7084034 -50605,-7084045 -50574,-7084062 -50558,-7084069 -50546,-7084072 -50528,-7084073 -50512,-7084073 -50477,-7084073 -50446,-7084074 -50413,-7084082 -50372,-7084093 -50348,-7084098 -50327,-7084099 -50255,-7084103 -50205,-7084103 -50169,-7084104 -50157,-7084115 -50156,-7084133 -50157,-7084150 -50159,-7084189 -50159,-7084225 -50158,-7084231 -50156,-7084241 -50153,-7084250 -50148,-7084261 -50131,-7084272 -50108,-7084280 -50043,-7084299 -49997,-7084309 -49933,-7084315 -49841,-7084329 -49785,-7084339 -49730,-7084356 -49693,-7084371 -49666,-7084384 -49626,-7084404 -49558,-7084453 -49422,-7084549 -49399,-7084566 -49329,-7084620 -49300,-7084643 -49280,-7084679 -49268,-7084683 -49200,-7084680 -49145,-7084677 -49127,-7084677 -49069,-7084692 -49003,-7084704 -48972,-7084711 -48934,-7084717 -48905,-7084718 -48886,-7084716 -48853,-7084708 -48819,-7084700 -48716,-7084663 -48706,-7084653 -48703,-7084651 -48685,-7084640 -48651,-7084630 -48602,-7084629 -48534,-7084631 -48459,-7084628 -48361,-7084619 -48318,-7084615 -48299,-7084614 -48282,-7084613 -48245,-7084616 -48154,-7084622 -48121,-7084628 -48079,-7084638 -48053,-7084651 -47951,-7084702 -47941,-7084701 -47909,-7084658 -47875,-7084612 -47850,-7084570 -47818,-7084516 -47789,-7084469 -47751,-7084440 -47681,-7084389 -47654,-7084364 -47634,-7084345 -47617,-7084323 -47609,-7084312 -47604,-7084284 -47599,-7084264 -47598,-7084261 -47598,-7084259 -47595,-7084243 -47593,-7084224 -47598,-7084195 -47610,-7084124 -47612,-7084104 -47610,-7084065 -47608,-7084056 -47600,-7084024 -47592,-7083974 -47587,-7083930 -47586,-7083900 -47584,-7083868 -47584,-7083837 -47587,-7083777 -47591,-7083744 -47591,-7083741 -47590,-7083737 -47586,-7083716 -47577,-7083692 -47539,-7083603 -47527,-7083563 -47511,-7083517 -47509,-7083513 -47506,-7083503 -47504,-7083499 -47500,-7083491 -47468,-7083435 -47435,-7083379 -47403,-7083325 -47349,-7083228 -47322,-7083181 -47287,-7083121 -47277,-7083102 -47251,-7083072 -47232,-7083040 -47149,-7082887 -47107,-7082814 -47090,-7082776 -47084,-7082762 -47078,-7082744 -47055,-7082689 -47043,-7082657 -47014,-7082591 -46967,-7082481 -46961,-7082474 -46956,-7082470 -46949,-7082468 -46934,-7082471 -46913,-7082478 -46855,-7082497 -46826,-7082507 -46808,-7082511 -46732,-7082517 -46674,-7082522 -46594,-7082535 -46563,-7082542 -46518,-7082563 -46475,-7082585 -46442,-7082600 -46383,-7082633 -46354,-7082648 -46292,-7082677 -46268,-7082683 -46248,-7082693 -46220,-7082710 -46182,-7082735 -46167,-7082741 -46159,-7082742 -46148,-7082739 -46130,-7082735 -46104,-7082726 -46035,-7082705 -46001,-7082694 -45979,-7082686 -45952,-7082669 -45931,-7082650 -45918,-7082640 -45902,-7082626 -45896,-7082613 -45872,-7082530 -45863,-7082494 -45813,-7082437 -45778,-7082400 -45760,-7082382 -45736,-7082367 -45716,-7082350 -45693,-7082330 -45668,-7082305 -45642,-7082268 -45610,-7082234 -45581,-7082209 -45548,-7082188 -45498,-7082143 -45459,-7082100 -45446,-7082080 -45444,-7082068 -45434,-7082036 -45430,-7082007 -45428,-7081981 -45427,-7081955 -45430,-7081886 -45430,-7081869 -45430,-7081854 -45430,-7081835 -45420,-7081729 -45413,-7081692 -45406,-7081669 -45398,-7081661 -45409,-7081646 -45466,-7081591 -45495,-7081562 -45523,-7081534 -45584,-7081476 -45566,-7081446 -45541,-7081407 -45542,-7081396 -45549,-7081382 -45550,-7081362 -45532,-7081319 -45518,-7081285 -45512,-7081254 -45495,-7081189 -45475,-7081134 -45453,-7081084 -45420,-7081021 -45407,-7080992 -45400,-7080982 -45395,-7080974 -45380,-7080946 -45362,-7080915 -45347,-7080875 -45321,-7080803 -45287,-7080721 -45269,-7080687 -45255,-7080670 -45227,-7080632 -45214,-7080612 -45203,-7080543 -45198,-7080501 -45196,-7080482 -45196,-7080446 -45196,-7080370 -45192,-7080319 -45188,-7080279 -45183,-7080247 -45180,-7080222 -45176,-7080188 -45185,-7080168 -45195,-7080141 -45226,-7080064 -45265,-7079971 -45279,-7079932 -45287,-7079899 -45291,-7079873 -45292,-7079848 -45293,-7079824 -45291,-7079800 -45276,-7079738 -45270,-7079714 -45258,-7079698 -45215,-7079638 -45198,-7079600 -45176,-7079556 -45153,-7079504 -45143,-7079483 -45127,-7079436 -45115,-7079404 -45094,-7079344 -45092,-7079322 -45129,-7079323 -45147,-7079318 -45159,-7079311 -45191,-7079305 -45206,-7079294 -45258,-7079271 -45337,-7079236 -45366,-7079220 -45383,-7079215 -45453,-7079184 -45513,-7079163 -45568,-7079135 -45598,-7079126 -45617,-7079104 -45662,-7079085 -45765,-7079035 -45874,-7078984 -45944,-7078963 -45989,-7078942 -46028,-7078931 -46051,-7078915 -46081,-7078899 -46103,-7078891 -46124,-7078875 -46134,-7078861 -46162,-7078846 -46189,-7078825 -46228,-7078793 -46242,-7078784 -46256,-7078775 -46268,-7078772 -46305,-7078775 -46334,-7078772 -46363,-7078772 -46430,-7078772 -46463,-7078776 -46484,-7078778 -46494,-7078776 -46513,-7078769 -46524,-7078765 -46559,-7078748 -46591,-7078714 -46608,-7078706 -46652,-7078696 -46695,-7078680 -46754,-7078669 -46838,-7078665 -46886,-7078657 -46932,-7078653 -46942,-7078649 -46953,-7078632 -46964,-7078614 -46978,-7078605 -46999,-7078594 -47032,-7078583 -47079,-7078568 -47108,-7078558 -47135,-7078531 -47187,-7078499 -47224,-7078479 -47278,-7078431 -47300,-7078414 -47312,-7078407 -47353,-7078408 -47363,-7078403 -47380,-7078389 -47403,-7078370 -47429,-7078362 -47431,-7078362 -47463,-7078362 -47485,-7078365 -47499,-7078367 -47512,-7078357 -47528,-7078345 -47540,-7078334 -47556,-7078325 -47569,-7078317 -47589,-7078315 -47610,-7078314 -47635,-7078314 -47657,-7078312 -47693,-7078305 -47728,-7078298 -47759,-7078287 -47783,-7078270 -47795,-7078263 -47808,-7078264 -47827,-7078265 -47858,-7078266 -47890,-7078267 -47903,-7078261 -47939,-7078254 -47993,-7078239 -48037,-7078221 -48071,-7078211 -48145,-7078202 -48190,-7078196 -48270,-7078175 -48290,-7078171 -48308,-7078168 -48381,-7078162 -48407,-7078159 -48449,-7078155 -48486,-7078149 -48578,-7078121 -48633,-7078100 -48683,-7078075 -48708,-7078063 -48725,-7078058 -48736,-7078055 -48744,-7078057 -48755,-7078060 -48779,-7078066 -48794,-7078068 -48811,-7078065 -48870,-7078068 -48922,-7078050 -48996,-7078016 -49013,-7077996 -49032,-7077983 -49057,-7077976 -49071,-7077974 -49086,-7077970 -49100,-7077960 -49122,-7077937 -49132,-7077925 -49143,-7077919 -49162,-7077919 -49181,-7077917 -49190,-7077911 -49208,-7077890 -49219,-7077873 -49231,-7077861 -49238,-7077854 -49274,-7077848 -49301,-7077842 -49325,-7077824 -49341,-7077811 -49362,-7077805 -49391,-7077801 -49429,-7077783 -49445,-7077779 -49503,-7077781 -49524,-7077774 -49548,-7077772 -49599,-7077762 -49629,-7077751 -49647,-7077749 -49677,-7077754 -49699,-7077756 -49720,-7077749 -49746,-7077733 -49772,-7077734 -49793,-7077740 -49820,-7077741 -49849,-7077733 -49871,-7077718 -49902,-7077706 -49925,-7077690 -49938,-7077675 -49952,-7077668 -50032,-7077671 -50070,-7077659 -50090,-7077648 -50106,-7077648 -50127,-7077660 -50154,-7077665 -50179,-7077658 -50198,-7077655 -50248,-7077660 -50305,-7077660 -50333,-7077655 -50357,-7077655 -50389,-7077670 -50417,-7077672 -50442,-7077663 -50458,-7077665 -50499,-7077685 -50558,-7077685 -50607,-7077691 -50625,-7077698 -50638,-7077708 -50648,-7077719 -50676,-7077730 -50704,-7077742 -50728,-7077747 -50780,-7077746 -50802,-7077749 -50836,-7077759 -50896,-7077781 -50925,-7077800 -50944,-7077809 -50955,-7077816 -50985,-7077817 -51030,-7077817 -51067,-7077837 -51110,-7077852 -51142,-7077856 -51166,-7077863 -51189,-7077874 -51204,-7077879 -51245,-7077876 -51325,-7077875 -51350,-7077884 -51380,-7077892 -51397,-7077889 -51422,-7077882 -51448,-7077881 -51481,-7077878 -51509,-7077876 -51529,-7077882 -51557,-7077886 -51581,-7077883 -51623,-7077873 -51714,-7077874 -51801,-7077858 -51907,-7077852 -51982,-7077844 -52005,-7077840 -52072,-7077815 -52189,-7077781 -52225,-7077768 -52253,-7077763 -52304,-7077752 -52331,-7077745 -52367,-7077735 -52396,-7077731 -52420,-7077732 -52444,-7077733 -52470,-7077734 -52492,-7077733 -52535,-7077727 -52574,-7077722 -52598,-7077716 -52624,-7077709 -52655,-7077703 -52680,-7077701 -52717,-7077700 -52822,-7077703 -52862,-7077697 -52890,-7077698 -52945,-7077709 -52970,-7077705 -53037,-7077683 -53079,-7077664 -53119,-7077655 -53178,-7077630 -53207,-7077619 -53243,-7077612 -53273,-7077596 -53331,-7077541 -53483,-7077413 -53580,-7077329 -53661,-7077282 -53757,-7077231 -53795,-7077211 -53883,-7077175 -53944,-7077150 -53998,-7077125 -54093,-7077081 -54133,-7077066 -54167,-7077055 -54215,-7077038 -54254,-7077023 -54283,-7077007 -54300,-7076990 -54328,-7076965 -54356,-7076942 -54366,-7076934 -54364,-7076930 -54353,-7076905 -54343,-7076893 -54330,-7076888 -54311,-7076884 -54289,-7076882 -54258,-7076890 -54228,-7076898 -54211,-7076897 -54188,-7076892 -54166,-7076878 -54156,-7076873 -54138,-7076857 -54115,-7076832 -54082,-7076790 -54039,-7076744 -54017,-7076714 -54006,-7076697 -54003,-7076689 -53996,-7076651 -53925,-7076519 -53909,-7076482 -53904,-7076457 -53892,-7076438 -53876,-7076400 -53866,-7076373 -53855,-7076317 -53835,-7076288 -53822,-7076269 -53813,-7076242 -53795,-7076213 -53786,-7076205 -53762,-7076184 -53752,-7076177 -53744,-7076161 -53731,-7076137 -53712,-7076113 -53700,-7076097 -53690,-7076058 -53664,-7075977 -53646,-7075922 -53624,-7075864 -53605,-7075812 -53590,-7075774 -53587,-7075745 -53584,-7075720 -53581,-7075702 -53576,-7075686 -53562,-7075656 -53558,-7075645 -53558,-7075632 -53557,-7075619 -53557,-7075606 -53562,-7075572 -53564,-7075543 -53559,-7075529 -53553,-7075514 -53542,-7075493 -53539,-7075476 -53542,-7075467 -53546,-7075456 -53554,-7075437 -53551,-7075418 -53546,-7075402 -53542,-7075394 -53536,-7075386 -53523,-7075370 -53516,-7075359 -53514,-7075353 -53510,-7075331 -53509,-7075322 -53511,-7075305 -53515,-7075294 -53524,-7075273 -53531,-7075259 -53552,-7075232 -53584,-7075199 -53595,-7075181 -53602,-7075164 -53606,-7075152 -53610,-7075142 -53630,-7075084 -53662,-7074994 -53689,-7074935 -53719,-7074876 -53738,-7074848 -53759,-7074826 -53779,-7074807 -53787,-7074799 -53795,-7074779 -53809,-7074732 -53837,-7074632 -53834,-7074584 -53847,-7074541 -53858,-7074513 -53875,-7074474 -53889,-7074473 -53911,-7074464 -53905,-7074414 -53918,-7074393 -53936,-7074378 -53960,-7074356 -53969,-7074344 -53971,-7074335 -53973,-7074286 -53975,-7074270 -53978,-7074254 -53980,-7074241 -53990,-7074219 -54005,-7074193 -54041,-7074150 -54067,-7074110 -54080,-7074084 -54096,-7074038 -54107,-7074012 -54122,-7073995 -54163,-7073973 -54199,-7073957 -54225,-7073937 -54237,-7073919 -54243,-7073905 -54244,-7073897 -54245,-7073881 -54251,-7073858 -54253,-7073849 -54276,-7073796 -54298,-7073745 -54299,-7073719 -54294,-7073710 -54287,-7073704 -54266,-7073688 -54250,-7073672 -54240,-7073655 -54236,-7073642 -54235,-7073625 -54239,-7073605 -54254,-7073558 -54264,-7073515 -54266,-7073497 -54266,-7073486 -54266,-7073476 -54262,-7073465 -54259,-7073449 -54262,-7073416 -54272,-7073403 -54284,-7073387 -54296,-7073376 -54328,-7073348 -54346,-7073315 -54369,-7073284 -54377,-7073274 -54383,-7073267 -54392,-7073250 -54395,-7073235 -54393,-7073215 -54389,-7073199 -54369,-7073159 -54338,-7073120 -54328,-7073096 -54303,-7073032 -54294,-7073012 -54289,-7072998 -54288,-7072977 -54291,-7072926 -54295,-7072892 -54299,-7072838 -54288,-7072788 -54266,-7072694 -54235,-7072611 -54204,-7072489 -54180,-7072401 -54171,-7072371 -54159,-7072341 -54135,-7072283 -54119,-7072265 -54092,-7072252 -54064,-7072241 -54038,-7072230 -54005,-7072214 -53987,-7072201 -53943,-7072167 -53909,-7072144 -53884,-7072132 -53843,-7072112 -53803,-7072093 -53721,-7072054 -53672,-7072027 -53601,-7071978 -53577,-7071967 -53456,-7071933 -53320,-7071894 -53300,-7071886 -53292,-7071871 -53288,-7071864 -53283,-7071857 -53269,-7071842 -53249,-7071827 -53200,-7071805 -53177,-7071796 -53161,-7071792 -53141,-7071787 -53114,-7071786 -53101,-7071784 -53084,-7071782 -53069,-7071782 -53058,-7071782 -53054,-7071780 -53044,-7071771 -53026,-7071752 -53019,-7071742 -53014,-7071738 -53009,-7071734 -52990,-7071724 -52916,-7071712 -52847,-7071703 -52818,-7071698 -52787,-7071688 -52769,-7071681 -52753,-7071674 -52728,-7071662 -52716,-7071655 -52706,-7071646 -52700,-7071637 -52691,-7071622 -52672,-7071576 -52642,-7071536 -52592,-7071474 -52560,-7071439 -52539,-7071424 -52525,-7071412 -52517,-7071396 -52511,-7071381 -52511,-7071345 -52514,-7071324 -52540,-7071315 -52581,-7071302 -52688,-7071264 -52887,-7071194 -53055,-7071136 -53136,-7071104 -53239,-7071067 -53327,-7071038 -53510,-7070976 -53721,-7070901 -53828,-7070865 -53968,-7070826 -54050,-7070805 -54168,-7070773 -54291,-7070739 -54400,-7070711 -54476,-7070688 -54608,-7070645 -54679,-7070623 -54741,-7070602 -54791,-7070584 -54892,-7070550 -54992,-7070523 -55058,-7070505 -55114,-7070488 -55261,-7070450 -55438,-7070402 -55586,-7070361 -55663,-7070342 -55735,-7070315 -55840,-7070267 -55981,-7070194 -56251,-7070075 -56248,-7070035 -56652,-7069950 -56637,-7069993 -56798,-7069999 -56880,-7070007 -56974,-7070007 -57066,-7069998 -57073,-7069997 -57228,-7069941 -57289,-7069921 -57448,-7069862 -57589,-7069808 -57657,-7069782 -57725,-7069756 -57768,-7069729 -57787,-7069720 -57805,-7069711 -57843,-7069696 -57947,-7069663 -57997,-7069653 -58028,-7069642 -58125,-7069603 -58335,-7069489 -58492,-7069425 -58748,-7069339 -58973,-7069275 -58967,-7069256 -59092,-7069231 -59332,-7069160 -59462,-7069128 -59465,-7069123 -59560,-7069097 -59689,-7069068 -59827,-7069039 -59925,-7069022 -59981,-7069014 -60026,-7069010 -60119,-7069012 -60153,-7069007 -60175,-7069002 -60198,-7068997 -60255,-7068980 -60360,-7068951 -60511,-7068912 -60634,-7068887 -60687,-7068875 -61026,-7068795 -61209,-7068749 -61416,-7068695 -61424,-7068453 -61425,-7068453 -61487,-7068454 -61636,-7068435 -61788,-7068401 -61925,-7068371 -61963,-7068364 -62114,-7068333 -62297,-7068310 -62632,-7068252 -62771,-7068230 -62842,-7068222 -63012,-7068192 -63142,-7068175 -63531,-7068126 -63629,-7068115 -63716,-7068112 -63801,-7068106 -63871,-7068105 -63980,-7068096 -64099,-7068083 -64197,-7068070 -64370,-7068050 -64453,-7068048 -64527,-7068045 -64666,-7068031 -64726,-7068021 -64801,-7068004 -64954,-7067977 -65064,-7067956 -65206,-7067950 -65332,-7067941 -65537,-7067934 -65657,-7067929 -65798,-7067925 -65844,-7067923 -65924,-7067914 -66070,-7067909 -66119,-7067911 -66256,-7067908 -66299,-7067911 -66410,-7067930 -66428,-7067933 -66476,-7067932 -66507,-7067928 -66541,-7067914 -66600,-7067899 -66647,-7067891 -66702,-7067886 -66729,-7067888 -66733,-7067870 -66876,-7067873 -66982,-7067877 -67250,-7067895 -67360,-7067896 -67400,-7067898 -67476,-7067906 -67537,-7067915 -67645,-7067938 -67747,-7067956 -67806,-7067964 -67831,-7067962 -67859,-7067965 -67886,-7067966 -67953,-7067961 -68065,-7067961 -68283,-7067972 -68471,-7067993 -68528,-7068000 -68697,-7068029 -68732,-7068035 -68845,-7068060 -69017,-7068098 -69106,-7068116 -69204,-7068135 -69274,-7068140 -69414,-7068142 -69485,-7068139 -69581,-7068140 -69727,-7068156 -69788,-7068173 -69897,-7068196 -69950,-7068201 -70032,-7068204 -70103,-7068209 -70102,-7068255 -70045,-7068347 -69975,-7068445 -69905,-7068545 -69902,-7068546 -69891,-7068548 -69815,-7068618 -69764,-7068773 -69759,-7068854 -69755,-7068899 -69758,-7068928 -69781,-7068959 -69818,-7069088 -69843,-7069137 -69891,-7069223 -69914,-7069268 -69945,-7069343 -69973,-7069401 -69983,-7069423 -70007,-7069450 -70023,-7069487 -70060,-7069529 -70091,-7069566 -70165,-7069649 -70212,-7069721 -70269,-7069796 -70326,-7069890 -70382,-7069950 -70477,-7070056 -70527,-7070124 -70666,-7070329 -70639,-7070354 -70503,-7070488 -70516,-7070588 -70517,-7070645 -70552,-7070692 -70586,-7070745 -70634,-7070799 -70665,-7070858 -70624,-7070880 -70590,-7070907 -70590,-7070922 -70625,-7070979 -70587,-7071013 -70414,-7071128 -70473,-7071236 -70500,-7071294 -70525,-7071341 -70420,-7071422 -70426,-7071440 -70486,-7071606 -70507,-7071685 -70573,-7072031 -70591,-7072110 -70614,-7072285 -70487,-7072296 -70399,-7072303 -70386,-7072414 -70373,-7072524 -70353,-7072536 -70362,-7072607 -70374,-7072612 -70393,-7072742 -70447,-7072957 -70465,-7073011 -70492,-7073082 -70533,-7073188 -70561,-7073263 -70571,-7073265 -70580,-7073277 -70583,-7073293 -70578,-7073305 -70562,-7073308 -70146,-7073404 -70158,-7073455 -70196,-7073604 -70249,-7073753 -70275,-7073838 -70241,-7073852 -70056,-7073907 -70001,-7073930 -69958,-7073926 -69958,-7073936 -69958,-7073949 -69958,-7073961 -69964,-7073987 -69965,-7073997 -69971,-7074116 -69962,-7074131 -69963,-7074192 -69973,-7074226 -69981,-7074247 -69981,-7074271 -69980,-7074297 -69941,-7074422 -69910,-7074473 -69908,-7074475 -69853,-7074633 -69655,-7075198 -69653,-7075289 -69656,-7075499 -69659,-7075708 -69660,-7075772 -69660,-7075776 -69771,-7076495 -69801,-7076676 -69875,-7077034 -69930,-7077302 -69884,-7077426 -69519,-7078425 -69518,-7078428 -70320,-7078459 -70573,-7078466 -70956,-7078475 -71340,-7078499 -71347,-7078505 -71458,-7078507 -71539,-7078507 -71547,-7078502 -71717,-7078505 -72013,-7078523 -72137,-7078530 -72364,-7078553 -72649,-7078571 -72842,-7078582 -73075,-7078598 -73199,-7078604 -73263,-7078617 -73287,-7078619 -73403,-7078617 -73456,-7078612 -73556,-7078601 -73729,-7078577 -74175,-7078516 -74354,-7078475 -74526,-7078452 -74776,-7078423 -75219,-7078369 -75230,-7078396 -75245,-7078409 -75255,-7078444 -75257,-7078449 -75266,-7078463 -75278,-7078471 -75286,-7078475 -75327,-7078487 -75355,-7078491 -75362,-7078493 -75367,-7078495 -75372,-7078500 -75379,-7078509 -75406,-7078547 -75419,-7078562 -75429,-7078566 -75436,-7078563 -75440,-7078561 -75448,-7078549 -75460,-7078521 -75467,-7078512 -75479,-7078509 -75493,-7078512 -75504,-7078523 -75513,-7078556 -75518,-7078570 -75519,-7078572 -75522,-7078578 -75535,-7078588 -75546,-7078591 -75572,-7078592 -75600,-7078584 -75629,-7078576 -75668,-7078565 -75691,-7078556 -75700,-7078552 -75708,-7078548 -75726,-7078543 -75742,-7078541 -75755,-7078547 -75767,-7078553 -75780,-7078560 -75794,-7078568 -75817,-7078583 -75817,-7078595 -75812,-7078608 -75809,-7078616 -75807,-7078642 -75811,-7078655 -75815,-7078667 -75822,-7078683 -75828,-7078693 -75836,-7078710 -75849,-7078730 -75857,-7078740 -75866,-7078750 -75882,-7078757 -75906,-7078758 -75943,-7078752 -75969,-7078747 -76006,-7078745 -76043,-7078736 -76059,-7078738 -76084,-7078747 -76097,-7078747 -76103,-7078737 -76108,-7078719 -76110,-7078706 -76114,-7078694 -76119,-7078687 -76127,-7078682 -76138,-7078676 -76167,-7078667 -76186,-7078665 -76198,-7078664 -76209,-7078664 -76221,-7078668 -76233,-7078676 -76234,-7078682 -76235,-7078687 -76239,-7078699 -76265,-7078740 -76281,-7078762 -76291,-7078773 -76323,-7078790 -76328,-7078802 -76323,-7078882 -76340,-7078904 -76362,-7078923 -76380,-7078935 -76396,-7078952 -76407,-7078975 -76414,-7079005 -76415,-7079022 -76429,-7079039 -76444,-7079051 -76454,-7079058 -76477,-7079071 -76500,-7079085 -76515,-7079092 -76534,-7079081 -76576,-7079055 -76596,-7079050 -76614,-7079046 -76640,-7079039 -76646,-7079033 -76649,-7079027 -76653,-7079017 -76661,-7078993 -76667,-7078981 -76677,-7078976 -76686,-7078974 -76694,-7078978 -76724,-7078992 -76729,-7078994 -76756,-7079008 -76798,-7079010 -76813,-7079011 -76837,-7079021 -76922,-7079060 -76923,-7079060 -76953,-7079061 -76974,-7079056 -76991,-7079048 -77002,-7079041 -77010,-7079032 -77029,-7079017 -77042,-7079010 -77046,-7079010 -77054,-7079008 -77064,-7079010 -77082,-7079013 -77144,-7079036 -77174,-7079049 -77198,-7079051 -77206,-7079050 -77220,-7079048 -77256,-7079046 -77321,-7079068 -77360,-7079070 -77387,-7079072 -77416,-7079075 -77440,-7079074 -77469,-7079068 -77488,-7079065 -77523,-7079062 -77543,-7079060 -77584,-7079049 -77610,-7079039 -77622,-7079037 -77655,-7079046 -77670,-7079048 -77685,-7079040 -77693,-7079024 -77688,-7078991 -77689,-7078967 -77695,-7078950 -77709,-7078937 -77714,-7078932 -77720,-7078929 -77727,-7078928 -77765,-7078926 -77805,-7078925 -77835,-7078920 -77874,-7078911 -77896,-7078905 -77903,-7078900 -77918,-7078889 -77927,-7078882 -77934,-7078874 -77942,-7078861 -77934,-7078841 -77927,-7078827 -77915,-7078804 -77914,-7078792 -77914,-7078774 -77916,-7078759 -77930,-7078754 -77971,-7078744 -78000,-7078728 -78031,-7078707 -78054,-7078689 -78082,-7078678 -78099,-7078679 -78117,-7078684 -78133,-7078690 -78153,-7078699 -78192,-7078719 -78256,-7078743 -78301,-7078762 -78340,-7078777 -78415,-7078806 -78488,-7078834 -78533,-7078849 -78541,-7078853 -78559,-7078858 -78691,-7078904 -78825,-7078949 -79026,-7079022 -79114,-7079050 -79217,-7079089 -79326,-7079129 -79469,-7079178 -79574,-7079211 -79659,-7079235 -79825,-7079274 -79841,-7079279 -79907,-7079305 -79923,-7079309 -79974,-7079320 -79990,-7079324 -80005,-7079330 -80021,-7079337 -80049,-7079353 -80096,-7079371 -80222,-7079396 -80364,-7079428 -80403,-7079439 -80525,-7079476 -80737,-7079534 -80857,-7079570 -81027,-7079605 -81207,-7079651 -81276,-7079661 -81356,-7079669 -81358,-7079637 -81400,-7079643 -81627,-7079690 -81656,-7079695 -81706,-7079701 -81958,-7079716 -82086,-7079724 -82218,-7079740 -82330,-7079757 -82357,-7079661 -82388,-7079558 -82421,-7079431 -82431,-7079387 -82446,-7079296 -82462,-7079212 -82484,-7079122 -82517,-7078910 -82544,-7078795 -82553,-7078752 -82561,-7078709 -82574,-7078620 -82587,-7078568 -82590,-7078551 -82593,-7078526 -82597,-7078475 -82606,-7078387 -82615,-7078330 -82633,-7078235 -82665,-7078087 -82676,-7078053 -82688,-7078022 -82703,-7077984 -82726,-7077930 -82765,-7077854 -82797,-7077797 -82876,-7077666 -82918,-7077585 -82943,-7077542 -82991,-7077465 -83017,-7077426 -83110,-7077306 -83123,-7077287 -83173,-7077205 -83262,-7077069 -83314,-7076984 -83360,-7076903 -83393,-7076848 -83414,-7076808 -83415,-7076805 -83427,-7076778 -83435,-7076754 -83450,-7076701 -83459,-7076675 -83554,-7076453 -83586,-7076375 -83619,-7076307 -83663,-7076222 -83681,-7076189 -83707,-7076147 -83724,-7076124 -83737,-7076110 -83750,-7076097 -83764,-7076085 -83780,-7076073 -83797,-7076063 -83812,-7076056 -83827,-7076050 -83841,-7076046 -83852,-7076043 -83870,-7076041 -83895,-7076039 -83918,-7076039 -83948,-7076041 -84013,-7076049 -84138,-7076072 -84189,-7076084 -84354,-7076134 -84433,-7076149 -84533,-7076169 -84552,-7076171 -84604,-7076172 -84635,-7076174 -84698,-7076187 -84714,-7076189 -84733,-7076190 -84889,-7076189 -84937,-7076185 -85022,-7076174 -85050,-7076169 -85079,-7076162 -85102,-7076156 -85124,-7076149 -85172,-7076131 -85218,-7076109 -85273,-7076078 -85305,-7076057 -85326,-7076039 -85382,-7075986 -85411,-7075956 -85421,-7075944 -85484,-7075857 -85505,-7075824 -85515,-7075801 -85525,-7075769 -85533,-7075745 -85544,-7075701 -85551,-7075657 -85554,-7075615 -85554,-7075481 -85552,-7075420 -85550,-7075380 -85547,-7075350 -85538,-7075281 -85536,-7075240 -85535,-7075047 -85538,-7075019 -85541,-7075007 -85563,-7074949 -85574,-7074922 -85588,-7074899 -85640,-7074823 -85648,-7074812 -85662,-7074798 -85675,-7074787 -85708,-7074766 -85723,-7074755 -85740,-7074739 -85779,-7074698 -85815,-7074665 -85851,-7074634 -85944,-7074548 -85974,-7074521 -86022,-7074483 -86068,-7074439 -86094,-7074412 -86110,-7074393 -86124,-7074376 -86132,-7074365 -86175,-7074300 -86187,-7074283 -86196,-7074273 -86198,-7074271 -86220,-7074258 -86230,-7074247 -86238,-7074237 -86256,-7074202 -86273,-7074174 -86290,-7074146 -86303,-7074120 -86311,-7074101 -86322,-7074069 -86334,-7074018 -86342,-7073971 -86344,-7073947 -86347,-7073871 -86347,-7073837 -86344,-7073804 -86343,-7073787 -86338,-7073763 -86324,-7073714 -86253,-7073550 -86167,-7073384 -86054,-7073204 -86022,-7073149 -86003,-7073114 -85983,-7073071 -85964,-7073028 -85934,-7072951 -85923,-7072918 -85900,-7072850 -85881,-7072784 -85865,-7072720 -85852,-7072657 -85846,-7072626 -85838,-7072568 -85834,-7072520 -85831,-7072473 -85830,-7072449 -85831,-7072401 -85834,-7072366 -85838,-7072332 -85842,-7072301 -85855,-7072241 -85863,-7072210 -85872,-7072182 -85890,-7072133 -85901,-7072110 -85909,-7072093 -85926,-7072067 -85951,-7072033 -85970,-7072010 -85991,-7071997 -86012,-7071986 -86034,-7071976 -86057,-7071968 -86074,-7071963 -86090,-7071960 -86111,-7071957 -86132,-7071957 -86164,-7071959 -86267,-7071979 -86357,-7071998 -86385,-7072006 -86429,-7072015 -86472,-7072021 -86500,-7072024 -86552,-7072027 -86601,-7072025 -86629,-7072023 -86656,-7072019 -86688,-7072014 -86721,-7072008 -86751,-7072000 -86783,-7071991 -86809,-7071982 -86829,-7071974 -86863,-7071958 -86912,-7071941 -86948,-7071931 -86994,-7071916 -87017,-7071907 -87061,-7071886 -87115,-7071856 -87140,-7071840 -87164,-7071823 -87185,-7071808 -87188,-7071806 -87210,-7071787 -87230,-7071768 -87247,-7071751 -87277,-7071716 -87291,-7071698 -87317,-7071660 -87331,-7071636 -87345,-7071611 -87365,-7071567 -87374,-7071544 -87389,-7071501 -87402,-7071452 -87441,-7071244 -87446,-7071194 -87449,-7071151 -87450,-7071068 -87447,-7070975 -87444,-7070925 -87421,-7070678 -87401,-7070450 -87365,-7069976 -87350,-7069814 -87333,-7069649 -87313,-7069552 -87307,-7069520 -87294,-7069428 -87289,-7069363 -87289,-7069314 -87291,-7069287 -87294,-7069259 -87299,-7069232 -87304,-7069208 -87315,-7069174 -87317,-7069168 -87501,-7068876 -87606,-7068747 -87751,-7068596 -87877,-7068463 -88130,-7068203 -88258,-7068068 -88368,-7067962 -88503,-7067842 -88577,-7067783 -88649,-7067722 -88687,-7067692 -88775,-7067620 -88803,-7067649 -88827,-7067670 -88845,-7067686 -88876,-7067701 -88922,-7067722 -89032,-7067765 -89066,-7067772 -89111,-7067777 -89165,-7067783 -89253,-7067822 -89356,-7067864 -89588,-7067987 -89633,-7068008 -89661,-7068019 -89998,-7068127 -90129,-7068169 -90265,-7068202 -90274,-7068183 -90384,-7068212 -90531,-7068247 -90563,-7068255 -90599,-7068267 -90617,-7068273 -90988,-7068421 -91033,-7068439 -91053,-7068444 -91108,-7068460 -91142,-7068462 -91294,-7068493 -91537,-7068544 -91802,-7068599 -92010,-7068642 -92183,-7068679 -92340,-7068710 -92560,-7068759 -92850,-7068820 -93067,-7068864 -93074,-7068865 -93326,-7068919 -93566,-7068969 -93669,-7068996 -93695,-7069003 -93939,-7069058 -94236,-7069118 -95144,-7069311 -95234,-7069331 -95462,-7069380 -95735,-7069439 -96058,-7069508 -96355,-7069571 -96702,-7069647 -97032,-7069718 -97061,-7069722 -97072,-7069716 -97105,-7069572 -97175,-7069251 -97254,-7068899 -97263,-7068819 -97285,-7068834 -97304,-7068841 -97326,-7068844 -97408,-7068826 -97420,-7068822 -97437,-7068819 -97453,-7068816 -97466,-7068815 -97497,-7068815 -97506,-7068816 -97517,-7068816 -97549,-7068819 -97619,-7068825 -97737,-7068854 -97790,-7068850 -97855,-7068850 -97937,-7068859 -97988,-7068866 -98084,-7068888 -98164,-7068889 -98185,-7068887 -98196,-7068886 -98242,-7068887 -98262,-7068889 -98282,-7068891 -98333,-7068900 -98379,-7068907 -98405,-7068909 -98455,-7068909 -98479,-7068913 -98495,-7068917 -98605,-7068938 -98668,-7068942 -98719,-7068932 -98755,-7068920 -98803,-7068904 -98823,-7068899 -98845,-7068899 -98849,-7068898 -98951,-7068900 -99002,-7068895 -99073,-7068881 -99143,-7068882 -99265,-7068881 -99431,-7068875 -99459,-7068874 -99548,-7068873 -99584,-7068874 -99620,-7068876 -99640,-7068878 -99721,-7068888 -99753,-7068891 -99807,-7068896 -99834,-7068894 -99857,-7068890 -99880,-7068885 -99916,-7068871 -99941,-7068862 -99973,-7068848 -100051,-7068812 -100103,-7068785 -100125,-7068775 -100152,-7068765 -100177,-7068756 -100196,-7068750 -100235,-7068742 -100255,-7068739 -100290,-7068734 -100331,-7068731 -100422,-7068732 -100458,-7068733 -100480,-7068734 -100533,-7068739 -100547,-7068740 -100577,-7068738 -100611,-7068733 -100667,-7068724 -100724,-7068713 -100733,-7068712 -100771,-7068710 -100958,-7068716 -101037,-7068720 -101084,-7068724 -101254,-7068737 -101288,-7068737 -101305,-7068736 -101324,-7068734 -101336,-7068732 -101341,-7068731 -101367,-7068724 -101413,-7068700 -101499,-7068653 -101514,-7068646 -101546,-7068632 -101572,-7068629 -101595,-7068628 -101623,-7068631 -101647,-7068637 -101691,-7068650 -101747,-7068672 -101822,-7068702 -101836,-7068705 -101851,-7068704 -101871,-7068700 -101893,-7068691 -101928,-7068670 -101967,-7068631 -101996,-7068598 -101997,-7068599 -101999,-7068601 -102017,-7068623 -102043,-7068718 -102071,-7068785 -102110,-7068813 -102135,-7068835 -102164,-7068864 -102175,-7068879 -102187,-7068896 -102196,-7068913 -102204,-7068931 -102215,-7068956 -102227,-7068992 -102244,-7069033 -102290,-7069105 -102326,-7069152 -102347,-7069217 -102400,-7069290 -102439,-7069372 -102465,-7069381 -102475,-7069412 -102482,-7069432 -102483,-7069446 -102482,-7069465 -102479,-7069485 -102476,-7069499 -102471,-7069513 -102464,-7069533 -102454,-7069552 -102441,-7069572 -102415,-7069610 -102395,-7069635 -102316,-7069715 -102162,-7069849 -101976,-7070017 -101830,-7070144 -101683,-7070273 -101574,-7070367 -101533,-7070404 -101468,-7070441 -101294,-7070547 -101237,-7070577 -101207,-7070598 -101140,-7070649 -101016,-7070734 -101008,-7070740 -100952,-7070786 -100869,-7070841 -100868,-7070842 -100768,-7070904 -100705,-7070958 -100651,-7070982 -100567,-7071019 -100494,-7071068 -100429,-7071110 -100354,-7071180 -100319,-7071225 -100274,-7071306 -100239,-7071377 -100245,-7071383 -100283,-7071429 -100354,-7071513 -100664,-7071906 -100750,-7072029 -100880,-7072196 -101057,-7072438 -101244,-7072686 -101301,-7072762 -101649,-7073214 -102454,-7074276 -102546,-7074399 -102705,-7074610 -102986,-7074977 -103168,-7075212 -103224,-7075294 -103367,-7075481 -103579,-7075758 -103697,-7075908 -104146,-7076496 -104123,-7076534 -104169,-7076551 -103968,-7077273 -103825,-7077784 -103760,-7078022 -104303,-7078177 -104902,-7078343 -105294,-7078450 -105754,-7078581 -105732,-7078696 -105724,-7078732 -105711,-7078803 -105624,-7079206 -105530,-7079625 -105521,-7079678 -105521,-7079701 -105549,-7079802 -105571,-7079826 -105583,-7079838 -105576,-7079874 -105560,-7079967 -105545,-7080055 -105501,-7080254 -105501,-7080268 -105501,-7080280 -105498,-7080299 -105492,-7080316 -105489,-7080327 -105492,-7080341 -105492,-7080357 -105487,-7080378 -105475,-7080404 -105455,-7080446 -105445,-7080500 -105389,-7080764 -105314,-7081115 -105368,-7081143 -105250,-7081405 -105053,-7081762 -104654,-7081722 -104363,-7081690 -104325,-7081681 -104009,-7081650 -103615,-7081835 -103221,-7082023 -102999,-7082128 -102609,-7082169 -102121,-7082221 -101581,-7082278 -101099,-7082328 -101071,-7082315 -100601,-7082209 -100236,-7082132 -100036,-7082147 -99973,-7082158 -99972,-7082158 -99924,-7082179 -99888,-7082196 -99770,-7082371 -99644,-7082563 -99636,-7082576 -99534,-7082728 -99444,-7082865 -99442,-7082867 -99439,-7082881 -99418,-7082912 -99362,-7082994 -99360,-7082995 -99356,-7082999 -99351,-7083003 -99347,-7083008 -99343,-7083012 -99339,-7083017 -99336,-7083023 -99334,-7083028 -99331,-7083034 -99329,-7083040 -99328,-7083046 -99327,-7083051 -99326,-7083057 -99326,-7083062 -99326,-7083064 -99327,-7083068 -99327,-7083072 -99328,-7083076 -99328,-7083077 -99330,-7083081 -99331,-7083085 -99363,-7083163 -99481,-7083427 -99609,-7083711 -99688,-7083887 -99697,-7083900 -99774,-7083975 -99916,-7084110 -100160,-7084337 -100165,-7084345 -100168,-7084353 -100328,-7084996 -100324,-7085010 -100243,-7085318 -100240,-7085469 -100234,-7085707 -100223,-7086073 -100217,-7086431 -100219,-7086439 -100221,-7086448 -100206,-7086483 -100170,-7086586 -100079,-7086839 -100050,-7086918 -99958,-7087184 -99906,-7087329 -99841,-7087510 -99698,-7087910 -99578,-7088240 -99575,-7088252 -99571,-7088266 -99566,-7088280 -99560,-7088294 -99554,-7088307 -99547,-7088320 -99539,-7088333 -99538,-7088335 -99536,-7088338 -99535,-7088341 -99533,-7088344 -99531,-7088347 -99529,-7088349 -99526,-7088351 -99521,-7088354 -99515,-7088355 -99509,-7088356 -99505,-7088356 -99502,-7088353 -99444,-7088327 -99297,-7088258 -99296,-7088257 -99293,-7088257 -99291,-7088256 -99288,-7088256 -99286,-7088255 -99283,-7088256 -99281,-7088256 -99278,-7088258 -99276,-7088259 -99274,-7088261 -99272,-7088263 -99271,-7088266 -99270,-7088268 -99185,-7088491 -99307,-7088533 -99391,-7088562 -99719,-7088683 -99767,-7088700 -99971,-7088773 -100311,-7088897 -100303,-7088921 -100278,-7089034 -100272,-7089059 -100230,-7089272 -100164,-7089592 -100146,-7089669 -100108,-7089851 -100042,-7090188 -100010,-7090338 -100008,-7090347 -99972,-7090522 -99894,-7090893 -99810,-7091294 -99813,-7091296 -99815,-7091308 -99798,-7091388 -99768,-7091558 -99873,-7091595 -99956,-7091625 -99864,-7091876 -99750,-7092182 -99632,-7092517 -99490,-7092903 -99350,-7093275 -99192,-7093697 -99075,-7094037 -98924,-7094455 -98831,-7094719 -98786,-7094835 -98746,-7094918 -98728,-7094954 -98726,-7095140 -98720,-7095418 -98720,-7095673 -98715,-7095990 -98716,-7096012 -98712,-7096155 -98709,-7096517 -98739,-7096579 -98692,-7096693 -98573,-7096954 -98447,-7097236 -98287,-7097586 -98132,-7097920 -98122,-7097916 -97988,-7098206 -97867,-7098473 -97717,-7098793 -97564,-7099116 -97510,-7099247 -97422,-7099450 -97316,-7099688 -97268,-7099795 -97160,-7100031 -97092,-7100178 -96912,-7100574 -96904,-7100592 -96537,-7101390 -96436,-7101606 -96329,-7101838 -96284,-7101819 -96151,-7101759 -95783,-7101591 -95593,-7101503 -95272,-7101358 -95189,-7101319 -94971,-7101213 -94779,-7101126 -94601,-7101039 -94428,-7100961 -93991,-7101219 -93643,-7101425 -93544,-7101549 -93428,-7101679 -93291,-7101838 -93170,-7101973 -93054,-7102109 -92957,-7102215 -92858,-7102335 -92787,-7102417 -92727,-7102463 -92646,-7102500 -92388,-7102602 -92353,-7102625 -92351,-7102629 -92343,-7102671 -92335,-7102722 -92316,-7102830 -92300,-7102876 -92205,-7102839 -92194,-7102833 -92181,-7102824 -92160,-7102805 -92141,-7102793 -92129,-7102788 -92115,-7102784 -92101,-7102782 -92087,-7102782 -92078,-7102783 -92069,-7102785 -92041,-7102793 -91964,-7102830 -91935,-7102840 -91863,-7102863 -91800,-7102884 -91699,-7102915 -91551,-7102962 -91474,-7102984 -91454,-7102988 -91435,-7102992 -91417,-7102994 -91380,-7102996 -91312,-7103184 -91292,-7103238 -91289,-7103233 -91174,-7103186 -90901,-7103177 -90715,-7102955 -90667,-7102934 -90634,-7102909 -90609,-7102934 -90596,-7102946 -90580,-7102959 -90557,-7102975 -90540,-7102986 -90529,-7102991 -90489,-7103007 -90459,-7103023 -90347,-7103096 -90320,-7103109 -90269,-7103132 -90212,-7103161 -90120,-7103210 -90039,-7103250 -89981,-7103282 -89951,-7103301 -89880,-7103350 -89740,-7103435 -89701,-7103462 -89662,-7103495 -89661,-7103495 -89645,-7103511 -89626,-7103533 -89606,-7103563 -89560,-7103644 -89545,-7103673 -89526,-7103717 -89504,-7103783 -89498,-7103805 -89485,-7103862 -89474,-7103930 -89468,-7103992 -89466,-7104026 -89467,-7104080 -89466,-7104103 -89463,-7104129 -89460,-7104142 -89445,-7104205 -89422,-7104313 -89417,-7104331 -89406,-7104366 -89395,-7104395 -89377,-7104434 -89356,-7104472 -89326,-7104520 -89272,-7104589 -89235,-7104648 -89227,-7104659 -89200,-7104692 -89164,-7104730 -89162,-7104733 -89135,-7104764 -89032,-7104894 -88778,-7105117 -88547,-7105320 -88434,-7105415 -88332,-7105515 -88246,-7105573 -88045,-7105715 -87863,-7105836 -87840,-7105853 -87820,-7105866 -87802,-7105877 -87783,-7105885 -87748,-7105900 -87685,-7105923 -87546,-7105969 -87394,-7106023 -87254,-7106055 -87107,-7106095 -87011,-7106135 -86991,-7106135 -86978,-7106136 -86964,-7106139 -86953,-7106144 -86943,-7106148 -86917,-7106166 -86779,-7106231 -86706,-7106268 -86683,-7106278 -86649,-7106291 -86640,-7106295 -86560,-7106364 -86477,-7106431 -86360,-7106513 -86286,-7106570 -86198,-7106632 -86119,-7106683 -85996,-7106762 -85953,-7106791 -85822,-7106558 -85737,-7106426 -85721,-7106408 -85712,-7106393 -85705,-7106376 -85703,-7106367 -85702,-7106350 -85704,-7106333 -85711,-7106304 -85721,-7106276 -85791,-7106125 -85810,-7106088 -85835,-7106045 -85843,-7106033 -85860,-7106010 -85870,-7105999 -85892,-7105976 -85980,-7105903 -85997,-7105887 -86031,-7105847 -86074,-7105789 -86147,-7105686 -86160,-7105671 -86173,-7105658 -86188,-7105646 -86213,-7105630 -86216,-7105313 -85953,-7105440 -85931,-7105452 -85731,-7105558 -85557,-7105652 -85375,-7105738 -85144,-7105857 -84963,-7105949 -84628,-7106125 -84535,-7106174 -84120,-7106387 -83850,-7106532 -83894,-7106553 -83985,-7106601 -84119,-7106668 -84213,-7106711 -84302,-7106761 -84489,-7106845 -84420,-7106907 -84315,-7107007 -84275,-7107041 -84224,-7107085 -84100,-7107185 -84054,-7107218 -84038,-7107229 -83857,-7107328 -83664,-7107419 -83348,-7107566 -83068,-7107700 -83088,-7107741 -83098,-7107784 -83111,-7107831 -83061,-7107857 -82980,-7107889 -82895,-7107924 -82758,-7107982 -82307,-7108163 -82159,-7108222 -81913,-7108324 -81565,-7108461 -81323,-7108558 -81162,-7108565 -80975,-7108567 -80821,-7108577 -80641,-7108590 -80505,-7108605 -80508,-7108652 -80470,-7108719 -80460,-7108751 -80456,-7108772 -80452,-7108794 -80449,-7108835 -80450,-7108849 -80454,-7108909 -80453,-7108928 -80448,-7108976 -80447,-7108999 -80450,-7109018 -80459,-7109060 -80461,-7109080 -80459,-7109096 -80452,-7109127 -80450,-7109143 -80453,-7109157 -80455,-7109166 -80464,-7109183 -80493,-7109224 -80526,-7109257 -80532,-7109266 -80538,-7109276 -80542,-7109286 -80548,-7109311 -80551,-7109333 -80555,-7109373 -80554,-7109391 -80550,-7109408 -80543,-7109427 -80505,-7109497 -80497,-7109511 -80475,-7109541 -80419,-7109607 -80408,-7109618 -80396,-7109630 -80380,-7109642 -80364,-7109653 -80346,-7109663 -80329,-7109671 -80311,-7109678 -80292,-7109683 -80276,-7109686 -80265,-7109687 -80253,-7109686 -80217,-7109680 -80192,-7109677 -80151,-7109674 -80136,-7109674 -80118,-7109677 -80101,-7109680 -80087,-7109684 -80074,-7109689 -80049,-7109701 -80021,-7109720 -79988,-7109748 -79975,-7109757 -79947,-7109773 -79927,-7109781 -79926,-7109781 -79893,-7109453 -79779,-7109462 -79612,-7109465 -79556,-7109404 -79464,-7109302 -79238,-7109307 -79068,-7109297 -79056,-7109258 -78954,-7109267 -78926,-7109266 -78885,-7109269 -78872,-7109271 -78820,-7109286 -78793,-7109291 -78741,-7109296 -78700,-7109298 -78678,-7109301 -78660,-7109305 -78600,-7109328 -78528,-7109350 -78511,-7109356 -78484,-7109370 -78476,-7109373 -78468,-7109375 -78459,-7109376 -78449,-7109375 -78438,-7109372 -78423,-7109365 -78196,-7109312 -78225,-7109418 -78245,-7109490 -78260,-7109542 -78292,-7109641 -78313,-7109694 -78327,-7109725 -78340,-7109751 -78356,-7109779 -78375,-7109807 -78390,-7109826 -78398,-7109835 -78407,-7109842 -78437,-7109861 -78450,-7109871 -78453,-7109876 -78459,-7109888 -78460,-7109896 -78459,-7109904 -78452,-7109933 -78445,-7109976 -78438,-7109999 -78432,-7110013 -78424,-7110030 -78403,-7110067 -78323,-7110181 -78227,-7110298 -78083,-7110482 -78039,-7110520 -77992,-7110521 -77755,-7110650 -77271,-7110909 -77325,-7111015 -77371,-7111108 -77474,-7111335 -77534,-7111502 -77671,-7111932 -77716,-7112083 -77722,-7112105 -77734,-7112172 -77771,-7112332 -77779,-7112385 -77782,-7112414 -77783,-7112436 -77783,-7112460 -77781,-7112486 -77776,-7112527 -77773,-7112554 -77765,-7112599 -77753,-7112667 -77747,-7112701 -77742,-7112722 -77720,-7112795 -77696,-7112923 -77674,-7113020 -77654,-7113093 -77632,-7113210 -77600,-7113340 -77537,-7113637 -77449,-7113645 -77401,-7113648 -77319,-7113651 -77276,-7113655 -77247,-7113658 -77178,-7113669 -77135,-7113677 -77085,-7113688 -77037,-7113701 -76990,-7113715 -76952,-7113727 -76922,-7113739 -76894,-7113752 -76880,-7113759 -76837,-7113783 -76770,-7113821 -76737,-7113841 -76704,-7113863 -76629,-7113918 -76570,-7113963 -76476,-7114037 -76245,-7114212 -75863,-7114488 -75694,-7114615 -75508,-7114757 -75107,-7115070 -75069,-7115102 -75049,-7115116 -75014,-7115140 -74980,-7115159 -74936,-7115182 -74905,-7115195 -74816,-7115246 -74554,-7115428 -74380,-7115552 -74327,-7115587 -74005,-7115926 -73906,-7116022 -73748,-7116170 -73710,-7116196 -73690,-7116208 -73649,-7116230 -73623,-7116240 -73570,-7116257 -73428,-7116298 -73372,-7116307 -73294,-7116323 -73213,-7116341 -73141,-7116356 -73088,-7116369 -72968,-7116421 -72881,-7116470 -72816,-7116508 -72782,-7116528 -72702,-7116578 -72658,-7116603 -72513,-7116661 -72456,-7116682 -72249,-7116759 -72089,-7116815 -71760,-7116944 -71623,-7116999 -71261,-7117136 -71092,-7117202 -71029,-7117231 -70979,-7117257 -70721,-7117375 -70620,-7117425 -70332,-7117604 -70118,-7117732 -70006,-7117795 -69870,-7117862 -69820,-7117881 -69707,-7117928 -69586,-7117971 -69396,-7118032 -69082,-7118114 -68979,-7118138 -68932,-7118144 -68901,-7118146 -68867,-7118147 -68831,-7118148 -68800,-7118147 -68774,-7118145 -68517,-7118108 -68283,-7118067 -68191,-7118047 -68148,-7118035 -68066,-7118010 -67968,-7117975 -67878,-7117943 -67676,-7117865 -67551,-7117821 -67106,-7117677 -66984,-7117636 -66955,-7117624 -66829,-7117551 -66756,-7117497 -66593,-7117343 -66452,-7117203 -66288,-7117031 -66223,-7116963 -66155,-7116882 -66124,-7116844 -66061,-7116761 -66024,-7116705 -66007,-7116677 -65898,-7116518 -65756,-7116320 -65586,-7116074 -65544,-7116011 -65529,-7115988 -65438,-7115871 -65300,-7115685 -65162,-7115515 -64996,-7115313 -64764,-7115040 -64563,-7114822 -64289,-7114539 -64120,-7114392 -64000,-7114300 -63840,-7114194 -63655,-7114076 -63336,-7113880 -63232,-7113815 -63097,-7113720 -62992,-7113635 -62900,-7113555 -62807,-7113475 -62624,-7113315 -62578,-7113296 -62284,-7113140 -62040,-7113017 -61870,-7112931 -61714,-7112847 -61564,-7112770 -61391,-7112676 -61233,-7112603 -61113,-7112545 -61055,-7112523 -60790,-7112426 -60583,-7112346 -60525,-7112321 -60493,-7112309 -60462,-7112299 -60395,-7112283 -60376,-7112278 -60342,-7112265 -60271,-7112233 -60258,-7112228 -60238,-7112222 -60207,-7112215 -60143,-7112202 -59989,-7112181 -59917,-7112173 -59826,-7112167" stroke="#003087" stroke-width="133" /></ns0:svg>    <rect x="20" y="50"  width="250" height="25"  rx="0"  fill="#003087" fill-opacity="0.8" />    <text x="145" y="70" text-anchor="middle" font-family="Frutiger" font-weight="bold" font-size="20" fill="white">North Lincolnshire</text>    <rect x="35" y="195" width="220" height="160" rx="15" fill="#41B6E6"/>    <g font-family="Frutiger" font-size="15" fill="white">        <g> <text x="45" y="218">Self-harm</text> <text x="245" y="218" text-anchor="end">13</text> </g>        <g> <text x="45" y="243">SEN</text> <text x="245" y="243" text-anchor="end">27</text> </g>        <g> <text x="45" y="268">Difficulties</text> <text x="245" y="268" text-anchor="end">79</text> </g>        <g> <text x="45" y="293">Child Carer</text> <text x="245" y="293" text-anchor="end">1</text> </g>        <g> <text x="45" y="318">Drinkers</text> <text x="245" y="318" text-anchor="end">53</text> </g>        <g> <text x="45" y="343">Safeguarding </text> <text x="245" y="343" text-anchor="end">27</text> </g>    </g></svg>