<?xml version="1.0" standalone="no"?>
<!DOCTYPE svg PUBLIC "-//W3C//DTD SVG 1.1//EN"
"http://www.w3.org/Graphics/SVG/1.1/DTD/svg11.dtd">
<svg height="390" version="1.1" width="290" xmlns="http://www.w3.org/2000/svg"><defs><style type="text/css">@font-face {font-family: 'Frutiger';font-style: normal;font-weight: normal;src: local('Frutiger'), url('../fonts/Frutiger.woff') format('woff');}@font-face {font-family: 'Frutiger Bold';font-style: normal;font-weight: normal;src: local('Frutiger Bold'), url('../fonts/Frutiger_bold.woff') format('woff');}        </style>    </defs>    <rect x="20" y="20"  width="250" height="350" rx="15" fill="#005EB8" />    <rect x="35" y="35"  width="220" height="145" rx="15" fill="white" /><ns0:svg xmlns:ns0="http://www.w3.org/2000/svg" height="115" version="1.1" viewBox="-233449 -6903684 19921 19820" width="220" x="35" y="50"><ns0:polygon fill="#003087" points=" -224456,-6903614 -224436,-6903561 -224389,-6903561 -224389,-6903570 -224372,-6903569 -224373,-6903562 -224191,-6903561 -224030,-6903563 -224017,-6903538 -224007,-6903525 -223985,-6903510 -223980,-6903490 -223980,-6903488 -223979,-6903485 -223956,-6903454 -223949,-6903445 -223864,-6903673 -223861,-6903681 -223763,-6903602 -223683,-6903539 -223607,-6903482 -223542,-6903442 -223498,-6903414 -223377,-6903335 -223282,-6903281 -223134,-6903202 -222966,-6903118 -222894,-6903088 -222842,-6903063 -222761,-6903032 -222649,-6902988 -222616,-6902977 -222482,-6902933 -222377,-6902898 -222261,-6902852 -222192,-6902820 -222179,-6902824 -222124,-6902799 -222125,-6902793 -222037,-6902752 -222016,-6902742 -222007,-6902759 -222005,-6902763 -222002,-6902764 -221995,-6902769 -221979,-6902758 -221920,-6902731 -221907,-6902731 -221893,-6902743 -221871,-6902762 -221860,-6902768 -221847,-6902766 -221839,-6902761 -221832,-6902759 -221825,-6902756 -221786,-6902731 -221765,-6902719 -221748,-6902713 -221704,-6902717 -221699,-6902713 -221672,-6902692 -221618,-6902651 -221591,-6902635 -221582,-6902631 -221560,-6902622 -221530,-6902614 -221470,-6902597 -221453,-6902590 -221420,-6902573 -221345,-6902521 -221301,-6902483 -221258,-6902443 -221208,-6902380 -221200,-6902370 -221186,-6902347 -221171,-6902322 -221159,-6902302 -221105,-6902243 -221092,-6902234 -221050,-6902212 -221004,-6902188 -220956,-6902165 -220933,-6902151 -220895,-6902125 -220847,-6902101 -220827,-6902087 -220764,-6902035 -220731,-6902005 -220583,-6901863 -220560,-6901852 -220529,-6901801 -220485,-6901780 -220474,-6901758 -220455,-6901757 -220414,-6901775 -220331,-6901789 -220328,-6901789 -220216,-6901657 -220167,-6901591 -220077,-6901458 -220026,-6901380 -219970,-6901298 -219911,-6901208 -219895,-6901234 -219882,-6901269 -219881,-6901274 -219844,-6901378 -219831,-6901425 -219819,-6901473 -219809,-6901514 -219804,-6901542 -219804,-6901550 -219804,-6901586 -219792,-6901628 -219791,-6901650 -219793,-6901750 -219804,-6901841 -219797,-6901842 -219666,-6901863 -219625,-6901874 -219568,-6901888 -219493,-6901899 -219376,-6901906 -219240,-6901912 -218978,-6901925 -218979,-6902015 -218969,-6902136 -218962,-6902209 -218965,-6902209 -219003,-6902216 -219001,-6902226 -218988,-6902273 -218942,-6902438 -218942,-6902441 -218948,-6902492 -218827,-6902523 -218823,-6902514 -218774,-6902537 -218686,-6902576 -218647,-6902611 -218554,-6902546 -218442,-6902470 -218373,-6902426 -218359,-6902417 -218258,-6902351 -218178,-6902326 -217879,-6902331 -217734,-6902336 -217718,-6902338 -217637,-6902350 -217525,-6902426 -217520,-6902423 -217494,-6902412 -217482,-6902405 -217459,-6902390 -217427,-6902367 -217357,-6902300 -217350,-6902299 -217281,-6902295 -217276,-6902270 -217282,-6902167 -217288,-6902129 -217301,-6902133 -217323,-6902136 -217345,-6901890 -217357,-6901737 -217370,-6901573 -217379,-6901488 -217349,-6901490 -217303,-6901481 -217274,-6901472 -217233,-6901461 -217210,-6901450 -217191,-6901441 -217174,-6901443 -217160,-6901441 -217142,-6901445 -217093,-6901443 -217061,-6901431 -217040,-6901419 -217017,-6901411 -216997,-6901408 -217002,-6901425 -217009,-6901471 -216915,-6901520 -216824,-6901559 -216787,-6901593 -216697,-6901699 -216630,-6901779 -216583,-6901819 -216538,-6901862 -216497,-6901895 -216468,-6901932 -216450,-6901966 -216438,-6901983 -216429,-6902004 -216416,-6901999 -216325,-6902000 -216276,-6902003 -216279,-6902036 -216285,-6902056 -216284,-6902060 -216283,-6902064 -216282,-6902065 -216254,-6902087 -216247,-6902093 -216216,-6902160 -215998,-6902200 -215991,-6902139 -215971,-6902137 -215864,-6902088 -215834,-6902070 -215732,-6902004 -215666,-6902043 -215643,-6902061 -215577,-6902084 -215563,-6902095 -215466,-6902076 -215429,-6902058 -215366,-6902038 -215327,-6902038 -215283,-6902027 -215280,-6902024 -215247,-6901988 -215191,-6901949 -215175,-6901938 -215136,-6901898 -215126,-6901888 -215163,-6901835 -215163,-6901834 -215172,-6901822 -215190,-6901783 -215203,-6901742 -215215,-6901720 -215234,-6901690 -215256,-6901658 -215281,-6901628 -215333,-6901581 -215364,-6901553 -215132,-6901314 -215155,-6901140 -215187,-6900893 -215162,-6900879 -215154,-6900881 -215125,-6900885 -215085,-6900890 -215038,-6900891 -214940,-6900876 -214866,-6900859 -214777,-6900839 -214714,-6900816 -214667,-6900795 -214615,-6900763 -214573,-6900739 -214552,-6900727 -214504,-6900698 -214455,-6900669 -214359,-6900613 -214294,-6900568 -214248,-6900534 -214223,-6900514 -214162,-6900466 -214110,-6900419 -214077,-6900386 -214006,-6900298 -213870,-6900141 -213789,-6900024 -213714,-6899929 -213667,-6899909 -213620,-6899862 -213590,-6899820 -213563,-6899776 -213528,-6899696 -213567,-6899646 -213582,-6899627 -213623,-6899585 -213643,-6899569 -213661,-6899553 -213696,-6899531 -213712,-6899520 -213750,-6899502 -213826,-6899474 -213865,-6899467 -213888,-6899464 -213948,-6899463 -214025,-6899465 -214197,-6899472 -214291,-6899476 -214375,-6899478 -214411,-6899477 -214445,-6899477 -214491,-6899473 -214529,-6899467 -214590,-6899456 -214721,-6899430 -214778,-6899425 -214804,-6899425 -214980,-6899445 -215039,-6899445 -215151,-6899432 -215197,-6899423 -215174,-6899375 -215146,-6899341 -215078,-6899272 -215040,-6899227 -214971,-6899155 -214879,-6899055 -214840,-6899016 -214828,-6898998 -214806,-6898957 -214798,-6898936 -214786,-6898889 -214784,-6898876 -214779,-6898836 -214779,-6898811 -214800,-6898652 -214815,-6898532 -214825,-6898437 -214834,-6898275 -214840,-6898140 -214852,-6897908 -214864,-6897614 -214869,-6897457 -214883,-6897157 -214885,-6897143 -214884,-6897102 -214876,-6897052 -214871,-6897030 -214854,-6896973 -214784,-6896767 -214869,-6896842 -214978,-6896927 -215037,-6896964 -215082,-6897002 -215114,-6897013 -215122,-6897016 -215131,-6896999 -215139,-6896984 -215145,-6896987 -215161,-6896996 -215192,-6897013 -215197,-6897014 -215216,-6897021 -215219,-6897022 -215247,-6897032 -215267,-6897031 -215291,-6897024 -215326,-6897015 -215349,-6897006 -215361,-6897001 -215365,-6896999 -215455,-6896955 -215485,-6896950 -215504,-6896946 -215513,-6896943 -215560,-6896920 -215579,-6896915 -215602,-6896902 -215626,-6896896 -215632,-6896896 -215653,-6896896 -215668,-6896903 -215677,-6896906 -215705,-6896928 -215731,-6896944 -215776,-6896963 -215802,-6896976 -215851,-6897009 -215889,-6897029 -215895,-6897034 -215901,-6897039 -215905,-6897046 -215907,-6897051 -215906,-6897065 -215906,-6897086 -215914,-6897099 -215925,-6897107 -215938,-6897113 -215966,-6897121 -216016,-6897147 -216057,-6897158 -216072,-6897164 -216099,-6897184 -216128,-6897196 -216145,-6897200 -216196,-6897212 -216271,-6897229 -216310,-6897234 -216342,-6897233 -216374,-6897226 -216419,-6897219 -216463,-6897219 -216508,-6897227 -216540,-6897233 -216577,-6897238 -216604,-6897239 -216624,-6897236 -216646,-6897232 -216691,-6897213 -216733,-6897195 -216758,-6897181 -216782,-6897167 -216786,-6897162 -216791,-6897157 -216794,-6897149 -216794,-6897147 -216794,-6897137 -216790,-6897123 -216773,-6897097 -216765,-6897083 -216764,-6897067 -216765,-6897064 -216768,-6897052 -216779,-6897038 -216786,-6897034 -216793,-6897030 -216831,-6897019 -216844,-6897008 -216847,-6897003 -216854,-6896982 -216861,-6896939 -216871,-6896910 -216874,-6896904 -216888,-6896883 -216903,-6896868 -216915,-6896856 -216922,-6896849 -216966,-6896806 -216980,-6896783 -216998,-6896738 -217011,-6896693 -217028,-6896656 -217050,-6896619 -217078,-6896584 -217099,-6896562 -217123,-6896535 -217141,-6896523 -217185,-6896501 -217211,-6896492 -217256,-6896484 -217272,-6896483 -217302,-6896481 -217343,-6896481 -217374,-6896484 -217385,-6896486 -217410,-6896492 -217458,-6896508 -217493,-6896517 -217528,-6896518 -217546,-6896515 -217558,-6896511 -217574,-6896500 -217591,-6896489 -217597,-6896487 -217611,-6896480 -217643,-6896472 -217730,-6896472 -217763,-6896470 -217827,-6896479 -217848,-6896476 -217891,-6896475 -217915,-6896480 -217927,-6896487 -217943,-6896502 -217955,-6896525 -217956,-6896547 -217952,-6896601 -217955,-6896626 -217963,-6896678 -217972,-6896779 -217972,-6896786 -217979,-6896786 -217991,-6896780 -218141,-6896774 -218163,-6896779 -218212,-6896776 -218212,-6896775 -218212,-6896762 -218212,-6896748 -218213,-6896733 -218213,-6896730 -218214,-6896717 -218215,-6896702 -218217,-6896685 -218222,-6896660 -218230,-6896604 -218239,-6896570 -218273,-6896474 -218309,-6896409 -218320,-6896390 -218334,-6896363 -218363,-6896324 -218381,-6896301 -218396,-6896269 -218406,-6896239 -218416,-6896198 -218417,-6896156 -218412,-6896126 -218402,-6896093 -218389,-6896057 -218362,-6895996 -218324,-6895917 -218280,-6895802 -218258,-6895746 -218221,-6895659 -218198,-6895595 -218186,-6895556 -218169,-6895486 -218159,-6895444 -218151,-6895410 -218136,-6895357 -218122,-6895250 -218131,-6895191 -218134,-6895173 -218135,-6895146 -218130,-6895124 -218129,-6895118 -218122,-6895100 -218100,-6895038 -218061,-6894968 -218008,-6894867 -217989,-6894828 -217975,-6894795 -217969,-6894769 -217965,-6894732 -217967,-6894695 -217975,-6894651 -217993,-6894592 -218002,-6894541 -218006,-6894517 -218017,-6894483 -218032,-6894448 -218045,-6894421 -218052,-6894409 -218059,-6894398 -218066,-6894390 -218085,-6894368 -218116,-6894342 -218143,-6894323 -218161,-6894303 -218175,-6894283 -218178,-6894255 -218180,-6894234 -218181,-6894213 -218186,-6894197 -218200,-6894175 -218208,-6894163 -218247,-6894125 -218391,-6893993 -218403,-6893980 -218420,-6893956 -218429,-6893933 -218438,-6893901 -218445,-6893750 -218450,-6893689 -218475,-6893597 -218478,-6893573 -218480,-6893540 -218478,-6893519 -218469,-6893472 -218447,-6893383 -218438,-6893355 -218358,-6893189 -218286,-6893044 -218233,-6892931 -218177,-6892866 -218157,-6892843 -218138,-6892826 -218138,-6892809 -218153,-6892811 -218329,-6892837 -218406,-6892847 -218416,-6892763 -218427,-6892650 -218434,-6892570 -218435,-6892566 -218334,-6892554 -218326,-6892553 -218346,-6892501 -218383,-6892446 -218387,-6892440 -218389,-6892437 -218392,-6892435 -218405,-6892426 -218317,-6892257 -218314,-6892251 -218412,-6892112 -218488,-6892004 -218493,-6891994 -218522,-6891937 -218419,-6891899 -218417,-6891905 -218186,-6891794 -218116,-6891761 -218049,-6891727 -217932,-6891668 -217933,-6891660 -217884,-6891637 -217873,-6891631 -217881,-6891613 -217683,-6891523 -217687,-6891333 -217601,-6891348 -217388,-6891356 -217355,-6891355 -217249,-6891318 -217231,-6891312 -217214,-6891310 -217206,-6891322 -217164,-6891314 -217113,-6891295 -217113,-6891293 -217122,-6891263 -216991,-6891208 -216933,-6891183 -216929,-6891194 -216927,-6891198 -216926,-6891198 -216838,-6891161 -216843,-6891147 -216819,-6891137 -216822,-6891130 -216595,-6891036 -216588,-6891040 -216587,-6891040 -216587,-6891040 -216575,-6891046 -216294,-6890933 -216278,-6890937 -216265,-6890945 -216263,-6890948 -216255,-6890975 -216233,-6890968 -216246,-6890937 -216247,-6890934 -216060,-6890860 -215896,-6890804 -215751,-6890753 -215754,-6890745 -215766,-6890717 -215812,-6890712 -215878,-6890700 -215900,-6890694 -215971,-6890674 -215995,-6890663 -216042,-6890639 -216117,-6890592 -216189,-6890527 -216219,-6890495 -216255,-6890452 -216287,-6890412 -216328,-6890368 -216392,-6890300 -216436,-6890264 -216439,-6890261 -216434,-6890231 -216403,-6890030 -216385,-6890020 -216475,-6889925 -216498,-6889886 -216510,-6889886 -216516,-6889887 -216533,-6889870 -216571,-6889862 -216575,-6889861 -216592,-6889792 -216488,-6889692 -216477,-6889683 -216404,-6889613 -216280,-6889509 -216337,-6889441 -216340,-6889438 -216311,-6889414 -216309,-6889412 -216350,-6889346 -216364,-6889354 -216398,-6889201 -216621,-6889252 -216645,-6889159 -216747,-6888758 -216748,-6888758 -216749,-6888754 -216827,-6888772 -216853,-6888778 -216895,-6888670 -216898,-6888664 -216953,-6888674 -217040,-6888690 -217053,-6888665 -217072,-6888630 -217129,-6888482 -217139,-6888455 -217151,-6888398 -217153,-6888389 -217019,-6888340 -217100,-6888137 -217158,-6887982 -217159,-6887978 -217209,-6887948 -217215,-6887944 -217212,-6887938 -217247,-6887901 -217322,-6887973 -217349,-6887999 -217361,-6887987 -217369,-6887978 -217372,-6887981 -217374,-6887983 -217472,-6887933 -217486,-6887926 -217570,-6887880 -217646,-6887851 -217703,-6887826 -217754,-6887807 -217784,-6887810 -217839,-6887837 -217926,-6887867 -218015,-6887894 -218030,-6887887 -218050,-6887899 -218067,-6887905 -218097,-6887909 -218229,-6887907 -218341,-6887892 -218386,-6887885 -218387,-6887872 -218445,-6887850 -218482,-6887831 -218548,-6887795 -218608,-6887764 -218632,-6887748 -218686,-6887688 -218708,-6887662 -218737,-6887626 -218772,-6887563 -218774,-6887560 -218815,-6887502 -218819,-6887488 -218820,-6887485 -218855,-6887411 -218865,-6887396 -218884,-6887369 -218898,-6887319 -218947,-6887228 -218969,-6887194 -218981,-6887176 -219015,-6887136 -219046,-6887105 -219087,-6887065 -219148,-6887000 -219153,-6886994 -219121,-6886973 -219139,-6886950 -219135,-6886933 -219159,-6886872 -219160,-6886869 -219163,-6886867 -219168,-6886866 -219167,-6886854 -219190,-6886799 -219085,-6886748 -219034,-6886720 -218986,-6886688 -218953,-6886661 -218784,-6886530 -218908,-6886398 -218921,-6886385 -218977,-6886327 -218979,-6886324 -218946,-6886274 -218941,-6886267 -218931,-6886279 -218832,-6886227 -218825,-6886167 -218824,-6886162 -218893,-6886117 -218987,-6886044 -219037,-6886010 -219111,-6885967 -219116,-6885964 -219126,-6885960 -219231,-6885902 -219372,-6885777 -219406,-6885745 -219507,-6885628 -219572,-6885563 -219606,-6885538 -219720,-6885451 -219763,-6885416 -219908,-6885276 -219970,-6885217 -220041,-6885149 -220105,-6885088 -220132,-6885069 -220178,-6885039 -220263,-6884997 -220304,-6884979 -220343,-6884964 -220397,-6884945 -220449,-6884928 -220531,-6884904 -220603,-6884880 -220611,-6884877 -220733,-6884841 -220823,-6884815 -220940,-6884782 -220975,-6884774 -221012,-6884773 -221035,-6884770 -221149,-6884750 -221201,-6884739 -221298,-6884711 -221347,-6884694 -221436,-6884642 -221473,-6884630 -221570,-6884602 -221663,-6884571 -221727,-6884558 -221753,-6884550 -221810,-6884532 -221849,-6884519 -221867,-6884513 -221906,-6884500 -221967,-6884475 -222041,-6884445 -222116,-6884412 -222179,-6884385 -222290,-6884337 -222312,-6884325 -222345,-6884312 -222385,-6884299 -222417,-6884298 -222456,-6884300 -222504,-6884310 -222561,-6884322 -222641,-6884335 -222797,-6884354 -222832,-6884355 -222871,-6884351 -222894,-6884345 -222970,-6884323 -223007,-6884306 -223034,-6884284 -223036,-6884283 -223058,-6884262 -223101,-6884222 -223127,-6884204 -223226,-6884175 -223261,-6884158 -223287,-6884147 -223346,-6884127 -223447,-6884094 -223518,-6884080 -223609,-6884085 -223767,-6884102 -223777,-6884104 -223847,-6884114 -223914,-6884115 -223933,-6884116 -224105,-6884129 -224113,-6884130 -224113,-6884148 -224106,-6884148 -224087,-6884146 -224086,-6884148 -224083,-6884167 -224073,-6884188 -224074,-6884304 -224081,-6884418 -224085,-6884503 -224087,-6884593 -224097,-6884661 -224113,-6884771 -224131,-6884906 -224142,-6884970 -224163,-6885079 -224174,-6885175 -224181,-6885235 -224183,-6885259 -224189,-6885313 -224205,-6885417 -224215,-6885485 -224239,-6885603 -224261,-6885670 -224298,-6885768 -224334,-6885842 -224372,-6885911 -224414,-6885978 -224471,-6886052 -224528,-6886125 -224566,-6886179 -224651,-6886305 -224671,-6886338 -224694,-6886366 -224695,-6886367 -224710,-6886388 -224760,-6886470 -224808,-6886549 -224868,-6886644 -224887,-6886699 -224906,-6886741 -224938,-6886807 -224974,-6886867 -225013,-6886976 -225040,-6887091 -225064,-6887186 -225105,-6887360 -225139,-6887371 -225171,-6887486 -225182,-6887460 -225188,-6887445 -225188,-6887444 -225221,-6887360 -225226,-6887346 -225250,-6887317 -225314,-6887272 -225336,-6887256 -225520,-6887125 -225723,-6886982 -225808,-6886926 -225901,-6886856 -225982,-6886798 -226054,-6886806 -226122,-6886825 -226164,-6886777 -226360,-6886568 -226489,-6886444 -226524,-6886418 -226625,-6886353 -226707,-6886311 -226760,-6886288 -226780,-6886278 -226790,-6886267 -226809,-6886240 -226837,-6886237 -226914,-6886219 -227086,-6886175 -227206,-6886142 -227251,-6886179 -227282,-6886205 -227286,-6886208 -227318,-6886136 -227362,-6886021 -227409,-6885952 -227438,-6885907 -227491,-6885836 -227545,-6885775 -227617,-6885682 -227640,-6885663 -227657,-6885653 -227671,-6885650 -227688,-6885648 -227708,-6885647 -227741,-6885647 -227749,-6885646 -227766,-6885644 -227779,-6885641 -227799,-6885634 -227823,-6885623 -227836,-6885615 -227847,-6885607 -227866,-6885589 -227874,-6885579 -227883,-6885567 -227891,-6885552 -227900,-6885531 -227904,-6885506 -227910,-6885415 -227912,-6885366 -227912,-6885351 -227917,-6885287 -227919,-6885245 -227926,-6885103 -227939,-6885099 -227960,-6885098 -227984,-6885102 -228020,-6885040 -228026,-6885028 -228063,-6884959 -228078,-6884926 -228082,-6884914 -228138,-6884930 -228161,-6884854 -228162,-6884834 -228197,-6884712 -228204,-6884691 -228224,-6884705 -228230,-6884684 -228264,-6884556 -228267,-6884558 -228292,-6884572 -228306,-6884504 -228324,-6884420 -228442,-6884487 -228527,-6884533 -228541,-6884517 -228576,-6884479 -228594,-6884459 -228625,-6884429 -228653,-6884409 -228660,-6884408 -228680,-6884402 -228719,-6884378 -228739,-6884362 -228742,-6884360 -228771,-6884332 -228770,-6884324 -228781,-6884313 -228784,-6884268 -228812,-6884210 -228814,-6884211 -228907,-6884261 -228915,-6884245 -228923,-6884227 -228946,-6884257 -228951,-6884261 -228960,-6884262 -228978,-6884255 -228996,-6884238 -229024,-6884230 -229032,-6884228 -229049,-6884214 -229058,-6884207 -229073,-6884189 -229081,-6884179 -229098,-6884164 -229124,-6884153 -229130,-6884150 -229141,-6884143 -229163,-6884132 -229174,-6884130 -229178,-6884122 -229179,-6884119 -229197,-6884100 -229208,-6884091 -229224,-6884091 -229233,-6884094 -229235,-6884095 -229251,-6884109 -229264,-6884116 -229275,-6884118 -229295,-6884123 -229322,-6884124 -229326,-6884127 -229339,-6884134 -229352,-6884136 -229367,-6884146 -229380,-6884148 -229384,-6884146 -229392,-6884143 -229402,-6884148 -229407,-6884152 -229415,-6884161 -229434,-6884166 -229468,-6884164 -229474,-6884166 -229482,-6884169 -229495,-6884170 -229505,-6884177 -229527,-6884178 -229530,-6884177 -229559,-6884165 -229565,-6884162 -229586,-6884149 -229620,-6884139 -229646,-6884140 -229670,-6884141 -229671,-6884140 -229686,-6884138 -229694,-6884133 -229701,-6884128 -229711,-6884122 -229728,-6884106 -229739,-6884084 -229755,-6884051 -229764,-6884040 -229781,-6884027 -229801,-6884016 -229819,-6884005 -229829,-6884003 -229849,-6884003 -229863,-6884005 -229882,-6884012 -229905,-6884020 -229917,-6884021 -229930,-6884019 -229953,-6884012 -229973,-6884011 -229994,-6884011 -230016,-6884013 -230026,-6884014 -230044,-6884010 -230055,-6884006 -230068,-6883997 -230093,-6883977 -230100,-6883972 -230111,-6883966 -230170,-6883969 -230211,-6883970 -230224,-6883968 -230241,-6883963 -230264,-6883953 -230298,-6883943 -230310,-6883943 -230324,-6883943 -230368,-6883942 -230396,-6883941 -230437,-6883931 -230452,-6883926 -230491,-6883907 -230518,-6883902 -230582,-6883884 -230588,-6883882 -230639,-6883868 -230663,-6883864 -230673,-6883865 -230677,-6883866 -230691,-6883875 -230704,-6883892 -230733,-6883909 -230755,-6883918 -230780,-6883922 -230810,-6883957 -230821,-6883966 -230834,-6883969 -230838,-6883970 -230856,-6883979 -230866,-6883987 -230872,-6883991 -230887,-6884025 -230890,-6884051 -230894,-6884091 -230887,-6884105 -230880,-6884130 -230880,-6884134 -230877,-6884173 -230879,-6884215 -230885,-6884252 -230891,-6884289 -230902,-6884324 -230905,-6884335 -230914,-6884354 -230945,-6884389 -230975,-6884426 -230986,-6884438 -230995,-6884444 -231005,-6884449 -231045,-6884452 -231073,-6884454 -231078,-6884455 -231111,-6884520 -231112,-6884522 -231160,-6884461 -231170,-6884462 -231293,-6884474 -231314,-6884470 -231336,-6884460 -231355,-6884444 -231368,-6884429 -231379,-6884403 -231390,-6884366 -231396,-6884344 -231438,-6884306 -231458,-6884283 -231472,-6884273 -231474,-6884273 -231491,-6884272 -231498,-6884272 -231565,-6884289 -231570,-6884292 -231586,-6884301 -231589,-6884304 -231598,-6884313 -231603,-6884324 -231612,-6884341 -231630,-6884356 -231631,-6884357 -231709,-6884395 -231719,-6884400 -231730,-6884407 -231735,-6884411 -231741,-6884415 -231750,-6884464 -231790,-6884569 -231804,-6884604 -231828,-6884644 -231855,-6884680 -231866,-6884719 -231899,-6884766 -231918,-6884784 -231925,-6884791 -231942,-6884794 -231981,-6884789 -232048,-6884790 -232060,-6884790 -232072,-6884798 -232074,-6884800 -232082,-6884809 -232087,-6884826 -232087,-6884827 -232090,-6884832 -232097,-6884846 -232100,-6884849 -232115,-6884863 -232146,-6884877 -232158,-6884884 -232163,-6884887 -232172,-6884897 -232177,-6884912 -232177,-6884944 -232180,-6884954 -232184,-6884958 -232187,-6884962 -232203,-6884968 -232233,-6884966 -232241,-6884966 -232247,-6884969 -232258,-6884981 -232287,-6885012 -232305,-6885031 -232370,-6885050 -232415,-6885063 -232505,-6885119 -232527,-6885136 -232546,-6885162 -232566,-6885180 -232575,-6885184 -232586,-6885188 -232593,-6885188 -232612,-6885188 -232653,-6885171 -232664,-6885166 -232673,-6885164 -232695,-6885155 -232730,-6885153 -232758,-6885154 -232775,-6885160 -232789,-6885172 -232807,-6885185 -232847,-6885202 -233003,-6885240 -233062,-6885250 -233087,-6885252 -233120,-6885245 -233127,-6885243 -233192,-6885250 -233273,-6885242 -233298,-6885247 -233366,-6885256 -233404,-6885267 -233417,-6885267 -233445,-6885264 -233447,-6885264 -233449,-6885293 -233442,-6885304 -233427,-6885322 -233424,-6885340 -233423,-6885341 -233418,-6885348 -233424,-6885355 -233426,-6885390 -233427,-6885403 -233434,-6885412 -233440,-6885461 -233402,-6885539 -233401,-6885563 -233400,-6885581 -233392,-6885591 -233388,-6885595 -233387,-6885599 -233381,-6885636 -233359,-6885646 -233323,-6885650 -233291,-6885647 -233277,-6885647 -233266,-6885651 -233259,-6885656 -233252,-6885672 -233246,-6885702 -233239,-6885743 -233242,-6885762 -233254,-6885776 -233256,-6885784 -233253,-6885797 -233245,-6885821 -233245,-6885842 -233250,-6885854 -233254,-6885865 -233255,-6885881 -233264,-6885900 -233266,-6885907 -233267,-6885916 -233265,-6885923 -233253,-6885961 -233241,-6885988 -233226,-6886008 -233210,-6886064 -233197,-6886095 -233196,-6886109 -233194,-6886124 -233181,-6886131 -233176,-6886149 -233162,-6886168 -233156,-6886176 -233154,-6886184 -233152,-6886192 -233130,-6886215 -233088,-6886223 -233069,-6886240 -233049,-6886245 -233041,-6886241 -233017,-6886250 -233015,-6886249 -233007,-6886245 -232981,-6886243 -232980,-6886242 -232974,-6886235 -232968,-6886235 -232959,-6886248 -232936,-6886245 -232924,-6886260 -232918,-6886257 -232914,-6886255 -232805,-6886366 -232773,-6886374 -232649,-6886397 -232629,-6886405 -232620,-6886409 -232582,-6886406 -232563,-6886401 -232550,-6886391 -232539,-6886383 -232509,-6886374 -232492,-6886373 -232482,-6886372 -232459,-6886374 -232456,-6886374 -232420,-6886360 -232382,-6886349 -232377,-6886338 -232365,-6886323 -232292,-6886307 -232266,-6886307 -232265,-6886307 -232241,-6886325 -232212,-6886327 -232203,-6886330 -232181,-6886347 -232152,-6886353 -232134,-6886363 -232097,-6886363 -232070,-6886383 -232052,-6886390 -232033,-6886391 -231999,-6886406 -231976,-6886413 -231975,-6886413 -231973,-6886413 -231948,-6886420 -231942,-6886422 -231962,-6886447 -231992,-6886461 -231994,-6886462 -231994,-6886476 -231988,-6886480 -231936,-6886515 -231879,-6886556 -231764,-6886645 -231745,-6886605 -231744,-6886606 -231704,-6886622 -231659,-6886631 -231600,-6886686 -231585,-6886696 -231575,-6886702 -231569,-6886708 -231562,-6886716 -231556,-6886720 -231537,-6886729 -231512,-6886755 -231489,-6886794 -231483,-6886803 -231479,-6886807 -231455,-6886834 -231439,-6886851 -231431,-6886864 -231428,-6886869 -231430,-6886882 -231444,-6886909 -231448,-6886916 -231446,-6886917 -231445,-6886918 -231435,-6886928 -231432,-6886932 -231424,-6886937 -231408,-6886946 -231373,-6886976 -231339,-6887005 -231322,-6887004 -231314,-6887003 -231305,-6887002 -231286,-6886993 -231267,-6887012 -231260,-6887014 -231241,-6887011 -231231,-6886994 -231223,-6886956 -231197,-6886926 -231184,-6886921 -231183,-6886921 -231160,-6886920 -231158,-6886919 -231142,-6886904 -231114,-6886876 -231065,-6886875 -231045,-6886871 -230992,-6886885 -230968,-6886896 -230965,-6886897 -230952,-6886901 -230934,-6886897 -230908,-6886900 -230882,-6886898 -230854,-6886891 -230841,-6886882 -230818,-6886885 -230812,-6886888 -230796,-6886909 -230789,-6886935 -230786,-6886965 -230792,-6887018 -230785,-6887040 -230762,-6887099 -230758,-6887159 -230754,-6887174 -230745,-6887191 -230738,-6887211 -230726,-6887225 -230708,-6887240 -230696,-6887252 -230675,-6887270 -230663,-6887286 -230654,-6887314 -230643,-6887337 -230630,-6887359 -230612,-6887379 -230593,-6887404 -230590,-6887415 -230594,-6887439 -230600,-6887450 -230608,-6887470 -230612,-6887491 -230609,-6887500 -230603,-6887507 -230581,-6887518 -230574,-6887527 -230574,-6887569 -230566,-6887584 -230547,-6887621 -230528,-6887632 -230517,-6887642 -230498,-6887664 -230490,-6887677 -230481,-6887701 -230464,-6887719 -230414,-6887768 -230410,-6887773 -230390,-6887828 -230376,-6887859 -230357,-6887871 -230352,-6887872 -230333,-6887875 -230330,-6887875 -230321,-6887883 -230236,-6888113 -230229,-6888134 -230211,-6888182 -230235,-6888191 -230265,-6888201 -230269,-6888192 -230335,-6888189 -230334,-6888208 -230331,-6888232 -230349,-6888247 -230359,-6888284 -230363,-6888331 -230364,-6888338 -230312,-6888344 -230290,-6888355 -230276,-6888355 -230266,-6888355 -230267,-6888361 -230279,-6888437 -230276,-6888502 -230241,-6888523 -230237,-6888525 -230235,-6888526 -230232,-6888527 -230230,-6888529 -230228,-6888529 -230216,-6888529 -230166,-6888462 -230164,-6888459 -230163,-6888457 -230095,-6888367 -230087,-6888373 -229973,-6888458 -229962,-6888496 -229953,-6888527 -229933,-6888572 -229902,-6888609 -229900,-6888611 -229844,-6888661 -229799,-6888695 -229939,-6888893 -230020,-6889011 -230025,-6889053 -230051,-6889111 -230084,-6889121 -230098,-6889125 -230101,-6889126 -230109,-6889131 -230114,-6889139 -230111,-6889142 -230100,-6889152 -230081,-6889166 -230199,-6889237 -230264,-6889277 -230316,-6889309 -230359,-6889335 -230389,-6889354 -230424,-6889404 -230445,-6889434 -230437,-6889460 -230427,-6889491 -230416,-6889517 -230445,-6889540 -230462,-6889553 -230449,-6889578 -230452,-6889592 -230454,-6889620 -230445,-6889665 -230430,-6889677 -230429,-6889732 -230411,-6889790 -230397,-6889851 -230394,-6889899 -230400,-6889955 -230404,-6889983 -230404,-6890018 -230398,-6890026 -230393,-6890032 -230376,-6890038 -230351,-6890047 -230326,-6890064 -230301,-6890092 -230293,-6890106 -230289,-6890134 -230269,-6890181 -230264,-6890205 -230266,-6890249 -230271,-6890279 -230275,-6890299 -230288,-6890337 -230289,-6890340 -230301,-6890369 -230302,-6890379 -230293,-6890401 -230291,-6890405 -230238,-6890427 -230207,-6890441 -230178,-6890462 -230145,-6890484 -230132,-6890495 -230108,-6890518 -230108,-6890519 -230124,-6890558 -230151,-6890651 -230165,-6890684 -230173,-6890704 -230174,-6890706 -230163,-6890705 -230129,-6890702 -230116,-6890697 -230110,-6890702 -230104,-6890698 -230089,-6890698 -230080,-6890690 -230075,-6890686 -230072,-6890685 -230059,-6890683 -230051,-6890687 -230039,-6890681 -230032,-6890684 -230018,-6890683 -229987,-6890683 -229983,-6890686 -229979,-6890689 -229973,-6890688 -229970,-6890688 -229966,-6890694 -229963,-6890697 -229963,-6890697 -229951,-6890700 -229953,-6890708 -229938,-6890730 -229926,-6890736 -229926,-6890744 -229904,-6890743 -229875,-6890758 -229896,-6890778 -229888,-6890799 -229861,-6890805 -229840,-6890834 -229830,-6890859 -229819,-6890858 -229817,-6890851 -229812,-6890851 -229808,-6890857 -229808,-6890857 -229808,-6890858 -229806,-6890861 -229801,-6890886 -229789,-6890892 -229787,-6890901 -229795,-6890910 -229797,-6890913 -229794,-6890918 -229782,-6890919 -229771,-6890930 -229770,-6890937 -229771,-6890938 -229783,-6890948 -229782,-6890949 -229766,-6890964 -229764,-6890966 -229756,-6890957 -229747,-6890956 -229741,-6890968 -229719,-6890981 -229704,-6890995 -229683,-6891002 -229678,-6890996 -229672,-6890989 -229670,-6890989 -229665,-6890990 -229628,-6891009 -229624,-6891018 -229623,-6891022 -229641,-6891013 -229648,-6891015 -229665,-6891031 -229665,-6891032 -229658,-6891042 -229659,-6891055 -229660,-6891059 -229666,-6891077 -229668,-6891082 -229674,-6891101 -229675,-6891108 -229675,-6891119 -229676,-6891120 -229685,-6891133 -229691,-6891139 -229690,-6891168 -229699,-6891190 -229706,-6891194 -229712,-6891215 -229712,-6891233 -229711,-6891248 -229704,-6891261 -229697,-6891258 -229692,-6891267 -229687,-6891278 -229691,-6891282 -229691,-6891285 -229686,-6891320 -229665,-6891358 -229660,-6891383 -229647,-6891423 -229640,-6891430 -229601,-6891439 -229588,-6891439 -229540,-6891457 -229527,-6891457 -229490,-6891467 -229465,-6891473 -229444,-6891482 -229435,-6891487 -229431,-6891494 -229420,-6891511 -229422,-6891525 -229459,-6891584 -229464,-6891633 -229442,-6891654 -229425,-6891775 -229423,-6891805 -229420,-6891836 -229418,-6891860 -229420,-6891860 -229460,-6891878 -229471,-6891898 -229482,-6891910 -229475,-6891915 -229455,-6891930 -229426,-6891977 -229429,-6891995 -229430,-6892004 -229443,-6892013 -229443,-6892043 -229450,-6892060 -229499,-6892089 -229484,-6892120 -229482,-6892151 -229477,-6892207 -229471,-6892267 -229472,-6892337 -229512,-6892413 -229521,-6892429 -229590,-6892453 -229588,-6892458 -229557,-6892562 -229550,-6892566 -229542,-6892594 -229546,-6892601 -229544,-6892605 -229538,-6892630 -229531,-6892639 -229505,-6892679 -229498,-6892695 -229491,-6892699 -229482,-6892727 -229488,-6892733 -229480,-6892764 -229472,-6892793 -229416,-6892781 -229409,-6892768 -229408,-6892766 -229355,-6892767 -229315,-6892760 -229308,-6892765 -229276,-6892793 -229251,-6892817 -229214,-6892850 -229191,-6892875 -229177,-6892897 -229171,-6892905 -229158,-6892925 -229118,-6892983 -229106,-6892985 -229113,-6892991 -229082,-6893034 -229061,-6893094 -229118,-6893116 -229099,-6893188 -229098,-6893191 -229073,-6893185 -229068,-6893184 -229067,-6893190 -229066,-6893195 -229035,-6893187 -229031,-6893193 -229028,-6893199 -229027,-6893216 -229014,-6893280 -229012,-6893286 -229047,-6893293 -229235,-6893335 -229288,-6893347 -229324,-6893356 -229368,-6893372 -229419,-6893393 -229477,-6893428 -229592,-6893496 -229676,-6893550 -229755,-6893617 -229769,-6893628 -229800,-6893677 -229819,-6893716 -229869,-6893871 -229926,-6894019 -229967,-6894112 -230020,-6894226 -230107,-6894387 -230190,-6894525 -230241,-6894602 -230282,-6894664 -230386,-6894803 -230436,-6894864 -230488,-6894924 -230516,-6894957 -230542,-6894986 -230591,-6895037 -230597,-6895043 -230654,-6895103 -230724,-6895171 -230785,-6895228 -230862,-6895296 -230957,-6895370 -231009,-6895407 -231056,-6895437 -231074,-6895447 -231081,-6895449 -231099,-6895458 -231121,-6895462 -231165,-6895468 -231287,-6895461 -231498,-6895447 -231498,-6895488 -231512,-6895570 -231515,-6895648 -231519,-6895727 -231521,-6895773 -231522,-6895838 -231522,-6895919 -231519,-6895980 -231514,-6896047 -231510,-6896108 -231508,-6896117 -231508,-6896126 -231507,-6896130 -231502,-6896170 -231482,-6896261 -231459,-6896349 -231438,-6896421 -231421,-6896475 -231409,-6896502 -231407,-6896501 -231399,-6896498 -231395,-6896509 -231393,-6896520 -231407,-6896526 -231406,-6896528 -231390,-6896591 -231384,-6896614 -231382,-6896614 -231362,-6896606 -231360,-6896615 -231376,-6896620 -231310,-6896836 -231288,-6896828 -231287,-6896836 -231300,-6896841 -231285,-6896896 -231268,-6896959 -231248,-6896956 -231224,-6897029 -231227,-6897031 -231279,-6897054 -231306,-6897070 -231356,-6897112 -231382,-6897142 -231389,-6897160 -231394,-6897169 -231397,-6897178 -231411,-6897230 -231434,-6897302 -231462,-6897398 -231466,-6897433 -231467,-6897450 -231467,-6897475 -231463,-6897521 -231463,-6897525 -231441,-6897566 -231398,-6897521 -231367,-6897489 -231323,-6897443 -231293,-6897419 -231188,-6897335 -231148,-6897326 -231089,-6897280 -231089,-6897296 -231070,-6897366 -231067,-6897386 -231062,-6897417 -231013,-6897538 -231003,-6897592 -230985,-6897674 -230944,-6897688 -230932,-6897691 -230932,-6897691 -230929,-6897693 -230922,-6897721 -230929,-6897723 -230937,-6897724 -230929,-6897736 -230910,-6897830 -230890,-6897903 -230895,-6897905 -231013,-6897946 -231012,-6897949 -230954,-6898163 -230949,-6898180 -230828,-6898137 -230791,-6898249 -230787,-6898260 -230781,-6898257 -230775,-6898256 -230748,-6898362 -230733,-6898413 -230716,-6898428 -230724,-6898448 -230693,-6898459 -230704,-6898476 -230802,-6898441 -230794,-6898477 -230789,-6898514 -230765,-6898689 -230764,-6898695 -230753,-6898796 -230743,-6898915 -230738,-6899017 -230740,-6899175 -230748,-6899229 -230767,-6899428 -230757,-6899430 -230749,-6899432 -230750,-6899442 -230759,-6899442 -230768,-6899443 -230799,-6899670 -230789,-6899669 -230778,-6899668 -230776,-6899677 -230803,-6899685 -230812,-6899725 -230811,-6899789 -230832,-6899920 -230844,-6900021 -230870,-6900168 -230785,-6900198 -230710,-6900225 -230667,-6900235 -230654,-6900237 -230639,-6900238 -230594,-6900239 -230547,-6900233 -230477,-6900223 -230473,-6900223 -230471,-6900192 -230442,-6900121 -230388,-6899983 -230365,-6899900 -230351,-6899843 -230321,-6899722 -230300,-6899727 -230263,-6899737 -230242,-6899746 -230183,-6899774 -230112,-6899844 -230085,-6899868 -230054,-6899882 -230052,-6899883 -229968,-6899910 -229837,-6899953 -229700,-6899992 -229693,-6899994 -229665,-6899898 -229649,-6899856 -229624,-6899815 -229609,-6899788 -229574,-6899732 -229539,-6899688 -229520,-6899667 -229490,-6899636 -229481,-6899626 -229419,-6899665 -229412,-6899675 -229372,-6899695 -229342,-6899709 -229319,-6899713 -229208,-6899773 -229205,-6899781 -229111,-6899831 -228947,-6899914 -228873,-6899952 -228714,-6900036 -228677,-6900063 -228603,-6900124 -228448,-6900202 -228374,-6900238 -228355,-6900255 -228348,-6900262 -228347,-6900263 -228290,-6900284 -228288,-6900317 -228289,-6900336 -228277,-6900432 -228275,-6900471 -228279,-6900505 -228290,-6900568 -228301,-6900642 -228314,-6900689 -228280,-6900680 -228245,-6900657 -228186,-6900624 -228137,-6900591 -228102,-6900569 -228073,-6900549 -228070,-6900547 -228074,-6900537 -228077,-6900527 -228033,-6900508 -228021,-6900507 -227983,-6900538 -227973,-6900556 -227907,-6900598 -227871,-6900615 -227760,-6900670 -227673,-6900714 -227565,-6900768 -227410,-6900843 -227259,-6900920 -227239,-6900945 -227235,-6900960 -227232,-6900974 -227209,-6900993 -227163,-6900951 -227160,-6900948 -227117,-6901014 -227102,-6901011 -227096,-6901023 -227091,-6901032 -227074,-6901066 -227017,-6901208 -226993,-6901281 -226948,-6901390 -226944,-6901399 -226929,-6901429 -226924,-6901439 -226862,-6901546 -226815,-6901622 -226814,-6901624 -226791,-6901624 -226698,-6901661 -226584,-6901706 -226556,-6901721 -226553,-6901722 -226551,-6901724 -226518,-6901742 -226445,-6901794 -226390,-6901840 -226177,-6902038 -226137,-6902072 -226131,-6902077 -226071,-6902110 -226053,-6902120 -225951,-6902177 -225949,-6902174 -225889,-6902208 -225823,-6902246 -225816,-6902250 -225797,-6902248 -225790,-6902252 -225731,-6902282 -225724,-6902280 -225696,-6902297 -225698,-6902303 -225627,-6902347 -225609,-6902358 -225562,-6902384 -225462,-6902438 -225473,-6902467 -225453,-6902478 -225506,-6902590 -225555,-6902686 -225650,-6902864 -225409,-6903022 -225057,-6903279 -224516,-6903680 -224510,-6903684 -224456,-6903614" stroke="#003087" stroke-width="39" /></ns0:svg>    <rect x="20" y="50"  width="250" height="25"  rx="0"  fill="#003087" fill-opacity="0.8" />    <text x="145" y="70" text-anchor="middle" font-family="Frutiger" font-weight="bold" font-size="30" fill="white">Sandwell</text>    <rect x="35" y="195" width="220" height="160" rx="15" fill="#41B6E6"/>    <g font-family="Frutiger" font-size="15" fill="white">        <g> <text x="45" y="218">Self-harm</text> <text x="245" y="218" text-anchor="end">24</text> </g>        <g> <text x="45" y="243">SEN</text> <text x="245" y="243" text-anchor="end">49</text> </g>        <g> <text x="45" y="268">Difficulties</text> <text x="245" y="268" text-anchor="end">63</text> </g>        <g> <text x="45" y="293">Child Carer</text> <text x="245" y="293" text-anchor="end">3</text> </g>        <g> <text x="45" y="318">Drinkers</text> <text x="245" y="318" text-anchor="end">30</text> </g>        <g> <text x="45" y="343">Safeguarding £</text> <text x="245" y="343" text-anchor="end">23</text> </g>    </g></svg>