<?xml version="1.0" standalone="no"?>
<!DOCTYPE svg PUBLIC "-//W3C//DTD SVG 1.1//EN"
"http://www.w3.org/Graphics/SVG/1.1/DTD/svg11.dtd">
<svg height="1800" version="1.1" width="1800" xmlns="http://www.w3.org/2000/svg"><defs><style type="text/css">@font-face {font-family: 'Frutiger';font-style: normal;font-weight: normal;src: local('Frutiger'), url('../fonts/Frutiger.woff') format('woff');}@font-face {font-family: 'Frutiger Bold';font-style: normal;font-weight: normal;src: local('Frutiger Bold'), url('../fonts/Frutiger_bold.woff') format('woff');}        </style>    </defs>    <rect x="20" y="20"  width="250" height="350" rx="15" fill="#AE2573" />    <rect x="35" y="35"  width="220" height="145" rx="15" fill="#330072" /><ns0:svg xmlns:ns0="http://www.w3.org/2000/svg" height="115" version="1.1" viewBox="-182537 -7376423 26379 17869" width="220" x="35" y="50"><ns0:polygon fill="white" points=" -163308,-7376389 -163266,-7376320 -163216,-7376331 -162979,-7376363 -162972,-7376330 -162769,-7376278 -162723,-7376303 -162636,-7376353 -162624,-7376328 -162605,-7376312 -162584,-7376299 -162503,-7376287 -162471,-7376270 -162457,-7376264 -162431,-7376266 -162417,-7376264 -162402,-7376253 -162383,-7376254 -162354,-7376268 -162338,-7376267 -162323,-7376280 -162300,-7376287 -162297,-7376291 -162267,-7376304 -162247,-7376323 -162208,-7376336 -162197,-7376335 -162189,-7376327 -162188,-7376306 -162179,-7376289 -162185,-7376280 -162197,-7376271 -162207,-7376262 -162218,-7376251 -162222,-7376247 -162235,-7376234 -162235,-7376210 -162213,-7376193 -162204,-7376193 -162166,-7376195 -162147,-7376204 -162115,-7376213 -162102,-7376224 -162076,-7376241 -162044,-7376256 -162040,-7376255 -162031,-7376254 -162033,-7376244 -162055,-7376227 -162065,-7376223 -162079,-7376217 -162094,-7376209 -162095,-7376197 -162079,-7376196 -162065,-7376205 -162036,-7376223 -162002,-7376246 -161991,-7376248 -161992,-7376241 -162048,-7376200 -162075,-7376178 -162077,-7376173 -162097,-7376160 -162158,-7376119 -162177,-7376115 -162195,-7376115 -162196,-7376109 -162190,-7376102 -162190,-7376093 -162232,-7376075 -162245,-7376061 -162240,-7376037 -162243,-7376029 -162223,-7376009 -162229,-7375993 -162214,-7375964 -162212,-7375939 -162201,-7375933 -162192,-7375911 -162195,-7375881 -162189,-7375865 -162190,-7375846 -162182,-7375846 -162179,-7375819 -162165,-7375786 -162156,-7375767 -162149,-7375748 -162178,-7375774 -162187,-7375773 -162188,-7375763 -162159,-7375743 -162157,-7375732 -162123,-7375714 -162096,-7375706 -162077,-7375693 -162077,-7375680 -162080,-7375676 -162111,-7375679 -162131,-7375694 -162179,-7375735 -162186,-7375735 -162182,-7375709 -162153,-7375687 -162109,-7375661 -162095,-7375626 -162070,-7375622 -162075,-7375670 -162061,-7375669 -162056,-7375649 -162040,-7375628 -162019,-7375620 -161976,-7375614 -161920,-7375605 -161898,-7375592 -161879,-7375581 -161880,-7375593 -161870,-7375596 -161805,-7375596 -161776,-7375585 -161766,-7375588 -161773,-7375624 -161772,-7375640 -161756,-7375656 -161753,-7375670 -161749,-7375684 -161754,-7375709 -161771,-7375729 -161783,-7375750 -161790,-7375754 -161790,-7375767 -161772,-7375788 -161757,-7375820 -161755,-7375876 -161758,-7375920 -161776,-7375937 -161786,-7375956 -161781,-7375965 -161763,-7375975 -161744,-7375981 -161721,-7375999 -161724,-7376042 -161698,-7376063 -161701,-7376089 -161690,-7376106 -161657,-7376114 -161644,-7376122 -161627,-7376126 -161620,-7376120 -161621,-7376115 -161631,-7376104 -161630,-7376056 -161642,-7376040 -161648,-7376030 -161638,-7376020 -161640,-7375984 -161653,-7375962 -161644,-7375924 -161627,-7375893 -161630,-7375881 -161623,-7375857 -161622,-7375855 -161625,-7375831 -161640,-7375806 -161650,-7375766 -161660,-7375731 -161619,-7375724 -161580,-7375765 -161565,-7375788 -161531,-7375800 -161507,-7375802 -161520,-7375833 -161510,-7375850 -161501,-7375874 -161499,-7375892 -161492,-7375892 -161482,-7375918 -161461,-7375961 -161449,-7375969 -161454,-7375940 -161443,-7375936 -161425,-7375946 -161411,-7375945 -161403,-7375950 -161401,-7375973 -161381,-7375995 -161366,-7375996 -161364,-7376004 -161346,-7376005 -161345,-7376015 -161320,-7376021 -161300,-7376021 -161265,-7376014 -161264,-7376039 -161259,-7376039 -161271,-7376051 -161273,-7376062 -161227,-7376066 -161215,-7376054 -161185,-7376037 -161155,-7376005 -161149,-7375993 -161145,-7375981 -161139,-7375958 -161131,-7375942 -161125,-7375927 -161131,-7375909 -161155,-7375865 -161149,-7375855 -161157,-7375842 -161163,-7375832 -161174,-7375828 -161205,-7375823 -161234,-7375818 -161236,-7375792 -161202,-7375782 -161188,-7375759 -161168,-7375737 -161178,-7375727 -161185,-7375728 -161206,-7375747 -161226,-7375762 -161242,-7375762 -161236,-7375737 -161249,-7375716 -161241,-7375698 -161232,-7375679 -161231,-7375669 -161218,-7375663 -161200,-7375624 -161202,-7375614 -161207,-7375614 -161223,-7375645 -161242,-7375644 -161244,-7375633 -161249,-7375627 -161251,-7375608 -161223,-7375567 -161224,-7375560 -161245,-7375568 -161262,-7375569 -161263,-7375561 -161241,-7375543 -161229,-7375504 -161233,-7375484 -161242,-7375458 -161248,-7375429 -161249,-7375412 -161260,-7375382 -161262,-7375343 -161278,-7375334 -161311,-7375337 -161338,-7375333 -161368,-7375312 -161388,-7375284 -161374,-7375260 -161374,-7375248 -161390,-7375234 -161395,-7375235 -161405,-7375251 -161413,-7375272 -161470,-7375232 -161464,-7375212 -161441,-7375173 -161437,-7375154 -161422,-7375130 -161423,-7375105 -161400,-7375069 -161387,-7375033 -161389,-7375004 -161405,-7375012 -161414,-7375038 -161427,-7375039 -161428,-7375021 -161420,-7375013 -161418,-7374992 -161407,-7374978 -161410,-7374963 -161382,-7374955 -161381,-7374951 -161353,-7374941 -161362,-7374928 -161360,-7374909 -161350,-7374900 -161353,-7374887 -161333,-7374870 -161330,-7374846 -161346,-7374818 -161345,-7374798 -161336,-7374791 -161337,-7374783 -161341,-7374782 -161343,-7374762 -161368,-7374758 -161378,-7374759 -161381,-7374746 -161362,-7374709 -161365,-7374681 -161376,-7374668 -161385,-7374669 -161396,-7374679 -161411,-7374684 -161425,-7374679 -161426,-7374666 -161409,-7374645 -161420,-7374638 -161421,-7374631 -161420,-7374614 -161423,-7374602 -161428,-7374593 -161447,-7374595 -161457,-7374592 -161468,-7374588 -161480,-7374595 -161489,-7374598 -161512,-7374602 -161555,-7374598 -161560,-7374591 -161558,-7374576 -161540,-7374571 -161530,-7374560 -161531,-7374555 -161555,-7374533 -161571,-7374512 -161578,-7374490 -161588,-7374478 -161595,-7374479 -161601,-7374484 -161607,-7374478 -161615,-7374478 -161621,-7374487 -161632,-7374490 -161643,-7374486 -161647,-7374475 -161648,-7374461 -161643,-7374444 -161633,-7374425 -161626,-7374409 -161626,-7374394 -161638,-7374389 -161639,-7374385 -161636,-7374378 -161638,-7374373 -161646,-7374369 -161656,-7374368 -161660,-7374371 -161664,-7374371 -161671,-7374365 -161670,-7374359 -161658,-7374342 -161657,-7374328 -161663,-7374324 -161675,-7374321 -161683,-7374326 -161687,-7374343 -161691,-7374357 -161696,-7374365 -161704,-7374369 -161728,-7374371 -161742,-7374360 -161745,-7374349 -161745,-7374338 -161760,-7374317 -161764,-7374304 -161768,-7374276 -161766,-7374253 -161763,-7374240 -161760,-7374236 -161754,-7374236 -161749,-7374239 -161730,-7374255 -161712,-7374279 -161699,-7374287 -161691,-7374286 -161681,-7374278 -161682,-7374225 -161676,-7374203 -161676,-7374181 -161686,-7374177 -161689,-7374175 -161697,-7374182 -161704,-7374189 -161716,-7374198 -161723,-7374200 -161729,-7374198 -161744,-7374184 -161751,-7374169 -161751,-7374165 -161750,-7374147 -161742,-7374122 -161740,-7374103 -161743,-7374101 -161749,-7374098 -161752,-7374092 -161782,-7374077 -161804,-7374056 -161822,-7374030 -161861,-7373997 -161856,-7373978 -161824,-7373904 -161819,-7373870 -161807,-7373858 -161794,-7373821 -161780,-7373792 -161752,-7373771 -161743,-7373769 -161724,-7373769 -161678,-7373783 -161662,-7373781 -161655,-7373771 -161648,-7373752 -161643,-7373744 -161629,-7373743 -161634,-7373736 -161628,-7373700 -161629,-7373678 -161639,-7373659 -161635,-7373652 -161627,-7373651 -161604,-7373652 -161595,-7373646 -161591,-7373638 -161591,-7373627 -161599,-7373621 -161607,-7373620 -161602,-7373591 -161596,-7373568 -161575,-7373567 -161569,-7373568 -161566,-7373573 -161565,-7373596 -161561,-7373616 -161544,-7373612 -161525,-7373607 -161528,-7373546 -161543,-7373533 -161547,-7373522 -161548,-7373503 -161545,-7373492 -161539,-7373489 -161520,-7373487 -161513,-7373481 -161504,-7373458 -161484,-7373436 -161483,-7373414 -161484,-7373401 -161493,-7373401 -161501,-7373408 -161505,-7373406 -161505,-7373386 -161513,-7373376 -161509,-7373363 -161484,-7373337 -161480,-7373322 -161486,-7373315 -161487,-7373304 -161482,-7373292 -161469,-7373280 -161463,-7373252 -161456,-7373238 -161458,-7373226 -161464,-7373216 -161461,-7373206 -161455,-7373192 -161456,-7373171 -161442,-7373156 -161462,-7373156 -161467,-7373149 -161476,-7373148 -161501,-7373157 -161503,-7373144 -161503,-7373131 -161512,-7373099 -161516,-7373074 -161513,-7373040 -161503,-7373025 -161494,-7373021 -161479,-7373020 -161477,-7373015 -161455,-7372925 -161421,-7372806 -161429,-7372802 -161464,-7372798 -161476,-7372786 -161484,-7372764 -161492,-7372734 -161495,-7372692 -161488,-7372647 -161476,-7372600 -161459,-7372563 -161449,-7372543 -161436,-7372536 -161398,-7372525 -161328,-7372524 -161309,-7372517 -161271,-7372470 -161270,-7372426 -161266,-7372425 -161257,-7372423 -161258,-7372406 -161264,-7372393 -161273,-7372375 -161272,-7372366 -161260,-7372324 -161242,-7372324 -161222,-7372340 -161214,-7372362 -161212,-7372365 -161210,-7372369 -161208,-7372372 -161208,-7372373 -161202,-7372382 -161197,-7372415 -161183,-7372457 -161181,-7372458 -161164,-7372474 -161155,-7372422 -161150,-7372386 -161144,-7372361 -161149,-7372340 -161150,-7372336 -161172,-7372323 -161182,-7372305 -161184,-7372285 -161191,-7372274 -161210,-7372260 -161207,-7372251 -161192,-7372256 -161182,-7372246 -161177,-7372246 -161169,-7372259 -161158,-7372259 -161156,-7372245 -161162,-7372233 -161166,-7372223 -161168,-7372200 -161139,-7372206 -161129,-7372190 -161114,-7372151 -161112,-7372104 -161147,-7372116 -161149,-7372100 -161140,-7372088 -161112,-7372078 -161111,-7372068 -161123,-7372050 -161134,-7372037 -161134,-7372022 -161134,-7372010 -161128,-7371987 -161106,-7371933 -161095,-7371913 -161081,-7371859 -161051,-7371774 -161028,-7371729 -160998,-7371677 -160977,-7371625 -160954,-7371595 -160913,-7371514 -160876,-7371455 -160868,-7371438 -160858,-7371416 -160829,-7371391 -160774,-7371322 -160758,-7371308 -160744,-7371295 -160725,-7371273 -160693,-7371211 -160664,-7371148 -160646,-7371104 -160628,-7371075 -160601,-7371034 -160565,-7370983 -160540,-7370959 -160522,-7370942 -160505,-7370940 -160502,-7370944 -160491,-7370945 -160484,-7370953 -160463,-7370952 -160454,-7370958 -160446,-7370958 -160441,-7370954 -160428,-7370951 -160420,-7370935 -160421,-7370924 -160416,-7370913 -160401,-7370923 -160393,-7370928 -160388,-7370930 -160376,-7370929 -160364,-7370917 -160358,-7370895 -160343,-7370857 -160331,-7370793 -160328,-7370764 -160324,-7370751 -160317,-7370745 -160305,-7370743 -160292,-7370746 -160270,-7370745 -160263,-7370755 -160263,-7370764 -160266,-7370779 -160277,-7370783 -160276,-7370813 -160272,-7370824 -160228,-7370844 -160208,-7370840 -160193,-7370847 -160158,-7370868 -160137,-7370866 -160110,-7370831 -160116,-7370819 -160131,-7370810 -160147,-7370778 -160157,-7370777 -160164,-7370793 -160183,-7370788 -160177,-7370760 -160164,-7370761 -160155,-7370753 -160137,-7370703 -160127,-7370695 -160116,-7370665 -160087,-7370636 -160088,-7370622 -160108,-7370629 -160112,-7370619 -160109,-7370603 -160081,-7370569 -160065,-7370537 -160058,-7370504 -160038,-7370490 -160037,-7370469 -160048,-7370464 -160061,-7370467 -160073,-7370483 -160081,-7370513 -160084,-7370528 -160093,-7370541 -160099,-7370571 -160112,-7370576 -160123,-7370591 -160125,-7370602 -160139,-7370625 -160161,-7370622 -160179,-7370626 -160181,-7370607 -160183,-7370593 -160194,-7370578 -160188,-7370551 -160187,-7370541 -160177,-7370540 -160154,-7370535 -160137,-7370524 -160136,-7370520 -160120,-7370480 -160103,-7370475 -160097,-7370461 -160086,-7370428 -160079,-7370415 -160071,-7370418 -160053,-7370435 -160045,-7370434 -160029,-7370416 -160019,-7370416 -160011,-7370425 -160004,-7370440 -160002,-7370458 -160017,-7370491 -160028,-7370518 -160030,-7370531 -160031,-7370544 -160029,-7370559 -160017,-7370560 -160000,-7370533 -159997,-7370506 -159983,-7370467 -159958,-7370421 -159907,-7370362 -159900,-7370330 -159921,-7370310 -159873,-7370306 -159839,-7370242 -159841,-7370227 -159838,-7370200 -159810,-7370174 -159770,-7370154 -159751,-7370162 -159745,-7370164 -159733,-7370163 -159722,-7370155 -159705,-7370142 -159696,-7370142 -159688,-7370147 -159672,-7370144 -159649,-7370128 -159588,-7370114 -159529,-7370142 -159516,-7370141 -159513,-7370141 -159499,-7370124 -159481,-7370111 -159400,-7370122 -159349,-7370128 -159341,-7370129 -159340,-7370121 -159348,-7370120 -159442,-7370107 -159443,-7370100 -159490,-7370095 -159496,-7370088 -159528,-7370081 -159596,-7370076 -159608,-7370074 -159622,-7370054 -159622,-7370040 -159617,-7370013 -159610,-7370000 -159598,-7369986 -159560,-7369957 -159541,-7369948 -159517,-7369948 -159484,-7369937 -159476,-7369915 -159455,-7369914 -159449,-7369914 -159438,-7369907 -159414,-7369892 -159397,-7369891 -159380,-7369889 -159411,-7369873 -159382,-7369847 -159360,-7369869 -159328,-7369861 -159328,-7369846 -159322,-7369834 -159302,-7369833 -159291,-7369812 -159254,-7369812 -159253,-7369812 -159240,-7369802 -159235,-7369799 -159234,-7369781 -159249,-7369761 -159272,-7369713 -159299,-7369665 -159281,-7369624 -159268,-7369611 -159215,-7369606 -159211,-7369604 -159207,-7369575 -159254,-7369577 -159265,-7369564 -159264,-7369550 -159250,-7369537 -159262,-7369524 -159264,-7369510 -159270,-7369504 -159277,-7369490 -159295,-7369475 -159302,-7369465 -159306,-7369449 -159294,-7369439 -159293,-7369425 -159288,-7369420 -159290,-7369411 -159283,-7369409 -159272,-7369418 -159255,-7369419 -159218,-7369450 -159211,-7369453 -159188,-7369449 -159171,-7369451 -159150,-7369464 -159133,-7369464 -159126,-7369471 -159082,-7369495 -159078,-7369518 -159060,-7369522 -159059,-7369539 -159079,-7369546 -159086,-7369555 -159085,-7369568 -159091,-7369569 -159092,-7369575 -159084,-7369586 -159083,-7369586 -159079,-7369587 -159065,-7369590 -159018,-7369584 -158963,-7369571 -158958,-7369561 -158950,-7369554 -158919,-7369547 -158909,-7369541 -158880,-7369520 -158858,-7369499 -158828,-7369499 -158823,-7369485 -158827,-7369481 -158851,-7369481 -158861,-7369474 -158878,-7369476 -158892,-7369489 -158927,-7369491 -158950,-7369457 -158963,-7369453 -158972,-7369466 -158994,-7369465 -159012,-7369447 -159009,-7369427 -158993,-7369415 -158987,-7369400 -158963,-7369395 -158955,-7369382 -158954,-7369357 -158942,-7369353 -158938,-7369350 -158939,-7369339 -158945,-7369332 -158952,-7369329 -158971,-7369329 -158978,-7369322 -158978,-7369318 -158971,-7369305 -158970,-7369294 -158980,-7369297 -158984,-7369297 -158985,-7369292 -158978,-7369277 -158988,-7369277 -159001,-7369282 -159011,-7369277 -159009,-7369270 -159003,-7369257 -158995,-7369251 -158980,-7369250 -158892,-7369220 -158874,-7369206 -158876,-7369197 -158885,-7369194 -158897,-7369193 -158899,-7369170 -158894,-7369160 -158879,-7369154 -158850,-7369162 -158797,-7369132 -158758,-7369132 -158750,-7369120 -158753,-7369109 -158759,-7369099 -158824,-7369099 -158853,-7369089 -158856,-7369065 -158857,-7369053 -158822,-7369050 -158824,-7369032 -158853,-7369030 -158863,-7369011 -158861,-7369003 -158853,-7368996 -158823,-7368990 -158821,-7368984 -158825,-7368978 -158849,-7368980 -158861,-7368975 -158867,-7368967 -158900,-7368967 -158899,-7368943 -158874,-7368922 -158884,-7368902 -158934,-7368894 -158949,-7368893 -158963,-7368893 -158990,-7368898 -159013,-7368900 -159027,-7368903 -159087,-7368919 -159103,-7368922 -159136,-7368926 -159154,-7368916 -159181,-7368923 -159187,-7368911 -159193,-7368886 -159183,-7368872 -159160,-7368863 -159071,-7368845 -159045,-7368842 -159043,-7368834 -159048,-7368825 -159044,-7368819 -159033,-7368818 -159025,-7368810 -159024,-7368795 -158987,-7368787 -158926,-7368785 -158911,-7368776 -158912,-7368769 -158932,-7368760 -158947,-7368763 -158956,-7368753 -158968,-7368753 -158972,-7368763 -158978,-7368763 -158993,-7368776 -159003,-7368766 -159025,-7368771 -159039,-7368782 -159083,-7368777 -159110,-7368778 -159222,-7368820 -159238,-7368814 -159234,-7368791 -159242,-7368788 -159251,-7368786 -159247,-7368767 -159223,-7368767 -159135,-7368741 -159088,-7368740 -159056,-7368729 -159054,-7368720 -159009,-7368717 -158985,-7368698 -158975,-7368682 -158981,-7368678 -159004,-7368686 -159034,-7368681 -159058,-7368664 -159063,-7368661 -159064,-7368661 -159075,-7368653 -159095,-7368656 -159116,-7368663 -159137,-7368662 -159164,-7368646 -159255,-7368638 -159267,-7368637 -159267,-7368631 -159267,-7368554 -159269,-7368521 -159266,-7368506 -159261,-7368492 -159249,-7368467 -159228,-7368444 -159212,-7368438 -159206,-7368454 -159196,-7368459 -159187,-7368463 -159182,-7368465 -159157,-7368461 -159131,-7368444 -159096,-7368434 -159054,-7368432 -158958,-7368450 -158939,-7368454 -158912,-7368464 -158894,-7368475 -158885,-7368459 -158884,-7368437 -158869,-7368429 -158858,-7368442 -158846,-7368441 -158848,-7368419 -158838,-7368414 -158815,-7368433 -158803,-7368432 -158782,-7368443 -158773,-7368443 -158772,-7368435 -158802,-7368423 -158799,-7368406 -158836,-7368378 -158818,-7368367 -158792,-7368363 -158792,-7368357 -158805,-7368354 -158815,-7368349 -158816,-7368326 -158829,-7368318 -158826,-7368305 -158797,-7368303 -158793,-7368283 -158812,-7368280 -158816,-7368273 -158858,-7368272 -158873,-7368255 -158857,-7368241 -158801,-7368241 -158793,-7368246 -158757,-7368248 -158742,-7368238 -158740,-7368235 -158738,-7368222 -158729,-7368218 -158704,-7368216 -158677,-7368212 -158673,-7368220 -158659,-7368224 -158644,-7368222 -158634,-7368213 -158599,-7368196 -158600,-7368173 -158609,-7368162 -158625,-7368158 -158672,-7368174 -158695,-7368172 -158693,-7368151 -158671,-7368138 -158671,-7368130 -158677,-7368122 -158701,-7368122 -158711,-7368095 -158732,-7368087 -158735,-7368074 -158785,-7368078 -158841,-7368085 -158881,-7368078 -158921,-7368064 -158959,-7368064 -158967,-7368059 -158970,-7368054 -158968,-7368046 -158942,-7368027 -158914,-7368026 -158915,-7368012 -158925,-7368009 -158928,-7368003 -158946,-7368000 -158954,-7367988 -158963,-7367985 -158973,-7367976 -158993,-7367974 -159002,-7367969 -159006,-7367964 -159009,-7367955 -159008,-7367928 -159017,-7367924 -159019,-7367919 -159019,-7367903 -159015,-7367887 -159015,-7367880 -159015,-7367867 -159011,-7367865 -158999,-7367864 -158991,-7367858 -158991,-7367848 -159007,-7367840 -159009,-7367832 -159000,-7367797 -159006,-7367793 -159016,-7367799 -159025,-7367793 -159027,-7367793 -159025,-7367778 -159007,-7367719 -158991,-7367678 -158975,-7367635 -158959,-7367603 -158945,-7367595 -158933,-7367601 -158921,-7367580 -158898,-7367587 -158871,-7367620 -158845,-7367642 -158816,-7367664 -158801,-7367674 -158796,-7367662 -158813,-7367649 -158851,-7367610 -158875,-7367581 -158887,-7367560 -158920,-7367544 -158929,-7367538 -158932,-7367531 -158931,-7367524 -158924,-7367517 -158895,-7367510 -158882,-7367501 -158857,-7367493 -158841,-7367492 -158809,-7367502 -158788,-7367519 -158766,-7367524 -158748,-7367525 -158744,-7367524 -158740,-7367521 -158740,-7367513 -158744,-7367512 -158746,-7367508 -158752,-7367508 -158764,-7367506 -158765,-7367504 -158802,-7367481 -158804,-7367476 -158803,-7367454 -158807,-7367441 -158830,-7367411 -158829,-7367397 -158791,-7367409 -158789,-7367419 -158779,-7367435 -158773,-7367437 -158767,-7367442 -158748,-7367441 -158744,-7367448 -158735,-7367450 -158731,-7367456 -158722,-7367456 -158724,-7367432 -158719,-7367432 -158718,-7367425 -158713,-7367425 -158713,-7367416 -158724,-7367417 -158730,-7367417 -158745,-7367419 -158762,-7367414 -158762,-7367406 -158771,-7367395 -158749,-7367379 -158733,-7367359 -158721,-7367327 -158694,-7367295 -158690,-7367284 -158664,-7367254 -158634,-7367213 -158617,-7367177 -158610,-7367149 -158596,-7367107 -158584,-7367053 -158572,-7367011 -158569,-7366981 -158570,-7366957 -158564,-7366945 -158554,-7366939 -158550,-7366934 -158548,-7366915 -158542,-7366907 -158514,-7366895 -158513,-7366886 -158521,-7366870 -158521,-7366858 -158519,-7366846 -158501,-7366812 -158464,-7366770 -158425,-7366722 -158415,-7366704 -158413,-7366685 -158399,-7366648 -158388,-7366628 -158370,-7366606 -158338,-7366551 -158325,-7366543 -158308,-7366537 -158289,-7366528 -158252,-7366496 -158241,-7366480 -158229,-7366472 -158206,-7366463 -158192,-7366459 -158174,-7366460 -158153,-7366470 -158121,-7366494 -158115,-7366508 -158094,-7366516 -158069,-7366535 -158058,-7366528 -158058,-7366523 -158067,-7366519 -158072,-7366510 -158080,-7366506 -158084,-7366496 -158066,-7366495 -158060,-7366487 -158061,-7366475 -158051,-7366475 -158038,-7366482 -158032,-7366483 -158016,-7366468 -158009,-7366468 -157997,-7366476 -157991,-7366476 -157990,-7366460 -157981,-7366461 -157968,-7366471 -157956,-7366473 -157941,-7366476 -157928,-7366487 -157922,-7366487 -157916,-7366479 -157904,-7366485 -157906,-7366503 -157900,-7366505 -157893,-7366495 -157893,-7366477 -157897,-7366470 -157892,-7366468 -157874,-7366468 -157871,-7366447 -157865,-7366447 -157857,-7366456 -157850,-7366457 -157849,-7366449 -157834,-7366455 -157829,-7366465 -157822,-7366464 -157823,-7366457 -157828,-7366449 -157840,-7366445 -157842,-7366432 -157850,-7366429 -157848,-7366406 -157835,-7366410 -157830,-7366401 -157838,-7366390 -157840,-7366380 -157831,-7366366 -157833,-7366365 -157838,-7366363 -157838,-7366360 -157829,-7366328 -157861,-7366293 -157856,-7366269 -157849,-7366257 -157846,-7366252 -157851,-7366218 -157856,-7366213 -157883,-7366213 -157889,-7366205 -157883,-7366197 -157842,-7366196 -157843,-7366182 -157883,-7366183 -157886,-7366118 -157861,-7366097 -157884,-7366069 -157866,-7366063 -157869,-7366048 -157878,-7366039 -157893,-7366040 -157899,-7366018 -157900,-7365996 -157905,-7365979 -157913,-7365980 -157917,-7365966 -157935,-7365955 -157955,-7365962 -157976,-7365951 -158011,-7365990 -158042,-7366003 -158058,-7365998 -158063,-7365985 -158040,-7365963 -158014,-7365941 -157974,-7365889 -157975,-7365873 -157967,-7365867 -157964,-7365847 -157974,-7365848 -157976,-7365835 -157968,-7365835 -157978,-7365812 -157977,-7365795 -157953,-7365779 -157948,-7365771 -157960,-7365763 -157980,-7365769 -157984,-7365764 -157983,-7365751 -157969,-7365719 -157968,-7365702 -157947,-7365668 -157939,-7365655 -157931,-7365645 -157920,-7365630 -157911,-7365621 -157897,-7365610 -157880,-7365602 -157849,-7365595 -157836,-7365586 -157812,-7365561 -157789,-7365566 -157783,-7365587 -157788,-7365588 -157789,-7365598 -157769,-7365599 -157768,-7365631 -157764,-7365630 -157762,-7365647 -157754,-7365647 -157743,-7365604 -157720,-7365616 -157704,-7365617 -157702,-7365608 -157718,-7365601 -157717,-7365583 -157680,-7365583 -157673,-7365567 -157679,-7365561 -157681,-7365535 -157658,-7365537 -157659,-7365543 -157649,-7365543 -157648,-7365548 -157638,-7365550 -157640,-7365559 -157632,-7365559 -157628,-7365552 -157596,-7365551 -157589,-7365545 -157558,-7365546 -157556,-7365541 -157536,-7365542 -157525,-7365557 -157535,-7365580 -157522,-7365582 -157509,-7365582 -157484,-7365567 -157465,-7365533 -157510,-7365532 -157500,-7365517 -157443,-7365512 -157431,-7365464 -157440,-7365461 -157449,-7365477 -157482,-7365472 -157490,-7365464 -157483,-7365446 -157451,-7365405 -157446,-7365385 -157447,-7365356 -157435,-7365356 -157432,-7365342 -157421,-7365341 -157420,-7365325 -157427,-7365323 -157421,-7365294 -157442,-7365293 -157449,-7365262 -157442,-7365260 -157464,-7365209 -157461,-7365193 -157465,-7365181 -157469,-7365141 -157441,-7365134 -157435,-7365124 -157440,-7365097 -157438,-7365091 -157437,-7365086 -157383,-7365071 -157383,-7365071 -157381,-7365073 -157372,-7365090 -157354,-7365086 -157253,-7365072 -157164,-7365045 -157135,-7365028 -157090,-7365011 -157045,-7365005 -157011,-7364994 -156946,-7364967 -156889,-7364954 -156746,-7364918 -156694,-7364898 -156650,-7364898 -156644,-7364895 -156635,-7364888 -156635,-7364880 -156639,-7364873 -156637,-7364869 -156623,-7364841 -156622,-7364839 -156470,-7364794 -156296,-7364741 -156179,-7364704 -156160,-7364695 -156158,-7364689 -156158,-7364680 -156162,-7364673 -156168,-7364668 -156176,-7364665 -156184,-7364666 -156192,-7364672 -156195,-7364685 -156386,-7364746 -156871,-7364892 -156856,-7364878 -156876,-7364880 -156892,-7364881 -156915,-7364888 -156964,-7364888 -157112,-7364951 -157220,-7364976 -157263,-7364991 -157326,-7365005 -157327,-7364995 -157323,-7364994 -157323,-7364986 -157334,-7364989 -157334,-7365006 -157410,-7365034 -157489,-7365057 -157543,-7365069 -157575,-7365074 -157606,-7365079 -157629,-7365089 -157643,-7365089 -157675,-7365086 -157692,-7365080 -157702,-7365074 -157719,-7365074 -157725,-7365064 -157721,-7365029 -157719,-7365018 -157704,-7365005 -157682,-7364997 -157671,-7364995 -157650,-7364979 -157632,-7364973 -157630,-7364965 -157608,-7364964 -157600,-7364948 -157582,-7364949 -157583,-7364926 -157572,-7364926 -157567,-7364922 -157568,-7364906 -157554,-7364900 -157554,-7364892 -157535,-7364889 -157535,-7364877 -157547,-7364867 -157545,-7364833 -157543,-7364806 -157555,-7364798 -157561,-7364770 -157557,-7364718 -157571,-7364662 -157559,-7364658 -157570,-7364627 -157574,-7364621 -157583,-7364621 -157585,-7364593 -157589,-7364580 -157597,-7364581 -157611,-7364599 -157617,-7364587 -157612,-7364562 -157627,-7364552 -157626,-7364544 -157651,-7364532 -157642,-7364513 -157649,-7364505 -157652,-7364491 -157687,-7364489 -157687,-7364477 -157708,-7364477 -157720,-7364465 -157721,-7364441 -157751,-7364442 -157762,-7364450 -157786,-7364447 -157795,-7364455 -157816,-7364455 -157813,-7364421 -157754,-7364395 -157757,-7364375 -157768,-7364372 -157815,-7364371 -157816,-7364366 -157840,-7364375 -157842,-7364385 -157862,-7364395 -157881,-7364394 -157940,-7364423 -157935,-7364439 -157951,-7364458 -157965,-7364469 -157978,-7364472 -157999,-7364470 -158009,-7364473 -158015,-7364478 -158022,-7364493 -158032,-7364504 -158040,-7364507 -158054,-7364506 -158069,-7364499 -158077,-7364500 -158095,-7364504 -158102,-7364504 -158109,-7364498 -158117,-7364483 -158128,-7364481 -158135,-7364484 -158141,-7364479 -158150,-7364475 -158159,-7364480 -158172,-7364482 -158174,-7364477 -158182,-7364451 -158176,-7364440 -158176,-7364415 -158185,-7364417 -158190,-7364411 -158198,-7364410 -158234,-7364444 -158248,-7364443 -158253,-7364448 -158264,-7364452 -158275,-7364440 -158275,-7364407 -158264,-7364401 -158256,-7364389 -158255,-7364373 -158251,-7364361 -158242,-7364361 -158237,-7364370 -158232,-7364370 -158214,-7364348 -158179,-7364350 -158174,-7364323 -158147,-7364317 -158125,-7364305 -158132,-7364286 -158135,-7364252 -158144,-7364231 -158146,-7364222 -158147,-7364206 -158145,-7364187 -158155,-7364183 -158164,-7364204 -158195,-7364188 -158207,-7364185 -158230,-7364182 -158244,-7364180 -158276,-7364182 -158286,-7364184 -158295,-7364186 -158305,-7364191 -158314,-7364197 -158339,-7364221 -158364,-7364233 -158382,-7364248 -158409,-7364254 -158414,-7364270 -158427,-7364291 -158450,-7364340 -158461,-7364362 -158476,-7364373 -158487,-7364396 -158514,-7364401 -158538,-7364402 -158555,-7364396 -158572,-7364396 -158594,-7364426 -158600,-7364444 -158610,-7364464 -158627,-7364480 -158640,-7364480 -158680,-7364464 -158686,-7364448 -158703,-7364434 -158701,-7364419 -158694,-7364398 -158694,-7364385 -158702,-7364376 -158719,-7364375 -158720,-7364367 -158733,-7364367 -158751,-7364390 -158745,-7364397 -158821,-7364454 -158826,-7364466 -158837,-7364468 -158845,-7364449 -158843,-7364427 -158850,-7364415 -158850,-7364379 -158887,-7364383 -158911,-7364401 -158927,-7364394 -158958,-7364389 -158970,-7364392 -158972,-7364387 -158969,-7364365 -158979,-7364359 -159009,-7364361 -159042,-7364356 -159074,-7364346 -159098,-7364338 -159139,-7364308 -159173,-7364275 -159211,-7364246 -159226,-7364227 -159234,-7364204 -159245,-7364170 -159258,-7364147 -159278,-7364135 -159288,-7364114 -159297,-7364077 -159297,-7364039 -159310,-7364017 -159336,-7363953 -159337,-7363938 -159343,-7363924 -159353,-7363910 -159357,-7363899 -159354,-7363894 -159337,-7363895 -159332,-7363898 -159313,-7363905 -159298,-7363902 -159293,-7363889 -159285,-7363885 -159285,-7363880 -159285,-7363871 -159286,-7363869 -159290,-7363862 -159324,-7363839 -159345,-7363831 -159353,-7363831 -159360,-7363851 -159369,-7363850 -159376,-7363844 -159369,-7363829 -159371,-7363809 -159367,-7363795 -159358,-7363788 -159342,-7363786 -159323,-7363789 -159313,-7363777 -159303,-7363776 -159285,-7363777 -159271,-7363760 -159270,-7363745 -159277,-7363736 -159309,-7363724 -159319,-7363711 -159339,-7363705 -159352,-7363701 -159362,-7363693 -159389,-7363678 -159398,-7363675 -159405,-7363674 -159426,-7363674 -159437,-7363674 -159446,-7363672 -159460,-7363668 -159483,-7363661 -159503,-7363651 -159508,-7363646 -159468,-7363597 -159311,-7363464 -159507,-7363391 -159674,-7363324 -159848,-7363246 -160016,-7363166 -160176,-7363079 -160227,-7363049 -160274,-7363020 -160301,-7362997 -160341,-7362962 -160366,-7362938 -160392,-7362912 -160411,-7362891 -160425,-7362871 -160437,-7362852 -160444,-7362839 -160456,-7362810 -160468,-7362765 -160471,-7362755 -160492,-7362707 -160541,-7362597 -160569,-7362524 -160578,-7362499 -160598,-7362436 -160604,-7362410 -160611,-7362385 -160621,-7362335 -160629,-7362280 -160632,-7362246 -160634,-7362181 -160634,-7362143 -160630,-7362075 -160621,-7362013 -160615,-7361921 -160617,-7361873 -160619,-7361818 -160661,-7361429 -160664,-7361411 -160671,-7361375 -160680,-7361337 -160690,-7361300 -160746,-7361136 -160795,-7361050 -160827,-7360998 -160846,-7360962 -160907,-7360820 -160967,-7360666 -160997,-7360590 -161029,-7360512 -161062,-7360436 -161072,-7360417 -161145,-7360296 -161246,-7360135 -161352,-7359978 -161375,-7359946 -161484,-7359800 -161579,-7359670 -161639,-7359592 -161668,-7359561 -161689,-7359549 -161725,-7359528 -161785,-7359497 -161870,-7359459 -161923,-7359438 -161982,-7359410 -162010,-7359398 -162039,-7359387 -162066,-7359378 -162095,-7359369 -162138,-7359359 -162201,-7359345 -162411,-7359327 -162524,-7359324 -162651,-7359325 -162773,-7359330 -162825,-7359333 -162877,-7359338 -162983,-7359351 -163017,-7359340 -163053,-7359325 -163069,-7359319 -163086,-7359313 -163103,-7359308 -163104,-7359308 -163121,-7359304 -163139,-7359301 -163156,-7359298 -163174,-7359296 -163191,-7359295 -163209,-7359295 -163211,-7359295 -163228,-7359296 -163246,-7359297 -163264,-7359299 -163281,-7359302 -163299,-7359306 -163308,-7359308 -163322,-7359313 -163337,-7359317 -163350,-7359323 -163364,-7359329 -163377,-7359336 -163387,-7359344 -163394,-7359350 -163400,-7359357 -163407,-7359365 -163412,-7359372 -163418,-7359380 -163424,-7359388 -163424,-7359388 -163435,-7359405 -163442,-7359414 -163445,-7359417 -163447,-7359419 -163452,-7359423 -163458,-7359428 -163464,-7359431 -163466,-7359432 -163473,-7359436 -163480,-7359439 -163487,-7359441 -163494,-7359443 -163501,-7359446 -163520,-7359451 -163539,-7359456 -163546,-7359458 -163629,-7359475 -163696,-7359483 -163772,-7359489 -163847,-7359499 -163878,-7359501 -163910,-7359501 -163919,-7359501 -163951,-7359501 -163968,-7359500 -163994,-7359497 -164025,-7359496 -164125,-7359483 -164234,-7359472 -164283,-7359464 -164332,-7359455 -164378,-7359445 -164529,-7359407 -164654,-7359379 -164737,-7359369 -164905,-7359361 -164929,-7359360 -165115,-7359361 -165150,-7359360 -165394,-7359358 -165476,-7359363 -165623,-7359380 -165770,-7359394 -165950,-7359403 -166075,-7359408 -166454,-7359421 -166755,-7359424 -166967,-7359418 -167218,-7359411 -167465,-7359405 -167520,-7359411 -167708,-7359402 -167712,-7359401 -168081,-7359380 -168278,-7359366 -168715,-7359329 -168933,-7359305 -168971,-7359299 -169046,-7359283 -169120,-7359265 -169157,-7359255 -169255,-7359226 -169340,-7359197 -169408,-7359172 -169494,-7359136 -169537,-7359116 -169624,-7359075 -169723,-7359024 -169820,-7358970 -169870,-7358939 -169906,-7358916 -169942,-7358892 -170013,-7358842 -170045,-7358816 -170065,-7358799 -170104,-7358764 -170143,-7358728 -170177,-7358692 -170214,-7358652 -170231,-7358633 -170397,-7358750 -170391,-7358761 -170400,-7358768 -170411,-7358763 -170412,-7358764 -170425,-7358773 -170433,-7358805 -170505,-7358869 -170573,-7358930 -170617,-7358972 -170623,-7358980 -170624,-7358982 -170643,-7359002 -170703,-7359058 -170714,-7359082 -170730,-7359100 -170767,-7359061 -170812,-7359010 -170865,-7358947 -170914,-7358893 -170953,-7358846 -170975,-7358806 -170990,-7358800 -171014,-7358771 -171024,-7358756 -171061,-7358725 -171093,-7358693 -171139,-7358649 -171170,-7358618 -171185,-7358602 -171179,-7358587 -171184,-7358581 -171190,-7358583 -171194,-7358580 -171193,-7358571 -171197,-7358559 -171209,-7358554 -171220,-7358559 -171250,-7358565 -171309,-7358576 -171341,-7358586 -171392,-7358604 -171430,-7358629 -171408,-7358854 -171383,-7358858 -171370,-7358861 -171351,-7358918 -171339,-7358955 -171328,-7358991 -171311,-7359040 -171302,-7359084 -171301,-7359116 -171300,-7359149 -171306,-7359195 -171314,-7359216 -171324,-7359246 -171323,-7359291 -171271,-7359316 -171258,-7359323 -171257,-7359340 -171252,-7359351 -171258,-7359366 -171266,-7359365 -171300,-7359442 -171333,-7359501 -171371,-7359582 -171409,-7359658 -171433,-7359728 -171435,-7359735 -171453,-7359808 -171481,-7359904 -171509,-7359900 -171511,-7359900 -171627,-7359863 -171678,-7359848 -171761,-7359825 -171851,-7359800 -171906,-7359785 -171997,-7359760 -172075,-7359736 -172077,-7359756 -172092,-7359833 -172101,-7359918 -172114,-7359992 -172130,-7360066 -172146,-7360149 -172159,-7360187 -172175,-7360226 -172196,-7360285 -172208,-7360334 -172260,-7360400 -172313,-7360434 -172344,-7360372 -172362,-7360332 -172381,-7360278 -172399,-7360217 -172405,-7360188 -172424,-7360182 -172432,-7360146 -172412,-7360145 -172415,-7360123 -172432,-7360078 -172441,-7360060 -172451,-7360043 -172471,-7360017 -172482,-7360007 -172495,-7359999 -172502,-7360010 -172539,-7359988 -172538,-7359996 -172568,-7360030 -172655,-7359973 -172699,-7359943 -172711,-7359939 -172738,-7359930 -172781,-7359901 -172787,-7359893 -172788,-7359887 -172790,-7359875 -172800,-7359867 -172805,-7359874 -172865,-7359958 -172874,-7359970 -172928,-7360047 -173008,-7360155 -173080,-7360265 -173161,-7360394 -173252,-7360579 -173322,-7360548 -173400,-7360520 -173460,-7360498 -173506,-7360468 -173522,-7360447 -173551,-7360415 -173581,-7360376 -173611,-7360351 -173640,-7360321 -173679,-7360287 -173738,-7360239 -173782,-7360213 -173797,-7360204 -173808,-7360227 -173820,-7360250 -173834,-7360273 -173859,-7360310 -173889,-7360342 -173944,-7360360 -173990,-7360375 -173960,-7360445 -173946,-7360482 -173887,-7360620 -173828,-7360771 -173799,-7360857 -173746,-7361004 -173725,-7361062 -173712,-7361102 -173694,-7361149 -173668,-7361250 -173635,-7361361 -173620,-7361431 -173605,-7361493 -173590,-7361568 -173560,-7361748 -173544,-7361840 -173539,-7361868 -173538,-7361902 -173536,-7362013 -173530,-7362122 -173529,-7362226 -173526,-7362296 -173518,-7362518 -173513,-7362582 -173491,-7362785 -173493,-7362916 -173491,-7362942 -173519,-7362951 -173567,-7362971 -173609,-7362991 -173661,-7363016 -173718,-7363045 -173764,-7363077 -173781,-7363076 -173797,-7363072 -173819,-7363074 -173837,-7363074 -173856,-7363070 -173894,-7363059 -173969,-7363044 -174023,-7363025 -174039,-7363008 -174059,-7363010 -174083,-7363015 -174126,-7362990 -174172,-7362958 -174238,-7362916 -174312,-7362866 -174353,-7362845 -174384,-7362838 -174408,-7362828 -174454,-7362800 -174491,-7362781 -174517,-7362772 -174580,-7362763 -174651,-7362730 -174653,-7362729 -174664,-7362723 -174674,-7362718 -174685,-7362714 -174696,-7362710 -174708,-7362707 -174719,-7362704 -174721,-7362704 -174723,-7362703 -174726,-7362702 -174729,-7362701 -174731,-7362701 -174734,-7362701 -174737,-7362702 -174740,-7362704 -174743,-7362706 -174745,-7362707 -174747,-7362710 -174749,-7362713 -174751,-7362716 -174754,-7362719 -174756,-7362720 -174759,-7362721 -174763,-7362723 -174767,-7362724 -174770,-7362724 -174775,-7362724 -174780,-7362724 -174785,-7362722 -174789,-7362721 -174790,-7362720 -174795,-7362718 -174799,-7362716 -174803,-7362713 -174808,-7362710 -174857,-7362679 -174931,-7362638 -174970,-7362628 -174992,-7362627 -174987,-7362662 -174987,-7362713 -174987,-7362779 -174998,-7362871 -175016,-7362995 -175037,-7363166 -175053,-7363163 -175063,-7363186 -175294,-7363144 -175265,-7362968 -175566,-7362899 -175621,-7363122 -175633,-7363182 -175647,-7363236 -175658,-7363268 -175683,-7363271 -175689,-7363301 -175700,-7363367 -175703,-7363413 -175701,-7363459 -175708,-7363544 -175715,-7363579 -175726,-7363618 -175738,-7363665 -175751,-7363697 -175769,-7363728 -175797,-7363766 -175861,-7363740 -175868,-7363737 -175973,-7363694 -176057,-7363666 -176126,-7363643 -176214,-7363617 -176321,-7363591 -176391,-7363578 -176527,-7363557 -176595,-7363550 -176651,-7363545 -176717,-7363544 -176771,-7363542 -176821,-7363543 -176885,-7363548 -176957,-7363551 -177023,-7363559 -177078,-7363568 -177154,-7363579 -177241,-7363596 -177403,-7363629 -177455,-7363638 -177557,-7363655 -177685,-7363678 -177758,-7363690 -177842,-7363707 -177891,-7363718 -177912,-7363722 -177999,-7363744 -178111,-7363755 -178119,-7363773 -178140,-7363775 -178160,-7363821 -178181,-7363879 -178211,-7363972 -178231,-7364108 -178235,-7364149 -178237,-7364188 -178225,-7364266 -178186,-7364450 -178144,-7364642 -178112,-7364785 -178079,-7364945 -178050,-7365072 -178014,-7365233 -178006,-7365276 -177993,-7365303 -177930,-7365445 -177872,-7365566 -177829,-7365663 -177812,-7365707 -177766,-7365806 -177740,-7365878 -177670,-7366000 -177621,-7366083 -177554,-7366250 -177485,-7366426 -177461,-7366486 -177438,-7366480 -177430,-7366464 -177426,-7366457 -177396,-7366499 -177370,-7366526 -177323,-7366571 -177272,-7366611 -177198,-7366652 -177129,-7366678 -177030,-7366717 -176948,-7366742 -176834,-7366776 -176750,-7366803 -176706,-7366870 -176701,-7366914 -176743,-7367007 -176783,-7367091 -176819,-7367165 -176861,-7367280 -176903,-7367369 -176940,-7367466 -176970,-7367550 -177004,-7367658 -177026,-7367718 -177055,-7367788 -177078,-7367857 -177098,-7367944 -177089,-7367974 -177124,-7368151 -177140,-7368152 -177165,-7368274 -177189,-7368383 -177216,-7368516 -177232,-7368596 -177241,-7368686 -177250,-7368776 -177257,-7368839 -177262,-7368917 -177266,-7369021 -177270,-7369131 -177277,-7369294 -177291,-7369427 -177341,-7369425 -177413,-7369426 -177413,-7369472 -177439,-7369506 -177522,-7369523 -177623,-7369537 -177683,-7369539 -177821,-7369547 -177839,-7369549 -177987,-7369561 -178155,-7369570 -178350,-7369585 -178446,-7369601 -178612,-7369628 -178776,-7369655 -179132,-7369705 -179262,-7369725 -179628,-7369812 -179957,-7369884 -180011,-7369871 -180088,-7369837 -180146,-7369807 -180151,-7369804 -180219,-7369764 -180277,-7369724 -180346,-7369658 -180417,-7369589 -180471,-7369549 -180485,-7369529 -180504,-7369511 -180539,-7369488 -180565,-7369477 -180580,-7369464 -180590,-7369454 -180604,-7369430 -180664,-7369446 -180642,-7369540 -180621,-7369616 -180608,-7369665 -180746,-7369699 -180765,-7369619 -180846,-7369638 -181013,-7369676 -181027,-7369910 -181032,-7369910 -181345,-7369914 -181431,-7369918 -181450,-7369919 -181550,-7369922 -181650,-7369926 -181828,-7369930 -182141,-7369941 -182244,-7369940 -182397,-7369934 -182402,-7369952 -182413,-7369992 -182428,-7370064 -182443,-7370117 -182460,-7370193 -182501,-7370331 -182515,-7370374 -182527,-7370407 -182532,-7370426 -182537,-7370481 -182516,-7370529 -182479,-7370598 -182462,-7370633 -182429,-7370687 -182401,-7370733 -182378,-7370762 -182342,-7370795 -182260,-7370860 -182220,-7370895 -182199,-7370910 -182127,-7370956 -182115,-7370971 -182053,-7371033 -181999,-7371063 -181983,-7371081 -181921,-7371179 -181696,-7371232 -181734,-7371372 -181766,-7371505 -181776,-7371595 -181790,-7371628 -181805,-7371705 -181814,-7371782 -181827,-7371885 -181842,-7371981 -181858,-7372041 -181880,-7372179 -181924,-7372383 -181965,-7372495 -181981,-7372553 -181984,-7372582 -181974,-7372626 -181976,-7372641 -181994,-7372642 -181998,-7372671 -182006,-7372724 -182012,-7372789 -182020,-7372853 -182028,-7372902 -182036,-7372953 -182067,-7373099 -182089,-7373225 -182110,-7373286 -182135,-7373424 -182166,-7373573 -182191,-7373632 -182206,-7373685 -182207,-7373707 -182218,-7373761 -182225,-7373816 -182236,-7373865 -182280,-7373953 -182322,-7374022 -182350,-7374048 -182396,-7374071 -182464,-7374108 -182488,-7374127 -182507,-7374151 -182520,-7374183 -182529,-7374216 -182530,-7374233 -182528,-7374268 -182526,-7374279 -182525,-7374291 -182523,-7374301 -182520,-7374312 -182516,-7374323 -182496,-7374358 -182465,-7374387 -182455,-7374396 -182437,-7374404 -182409,-7374416 -182357,-7374432 -182336,-7374444 -182329,-7374446 -182328,-7374446 -182178,-7374496 -182148,-7374531 -182119,-7374516 -182109,-7374512 -182098,-7374508 -182087,-7374505 -182082,-7374503 -182081,-7374503 -182071,-7374501 -182060,-7374499 -182048,-7374499 -182037,-7374498 -182026,-7374498 -182014,-7374498 -182012,-7374498 -181994,-7374499 -181976,-7374500 -181958,-7374502 -181941,-7374506 -181927,-7374508 -181909,-7374511 -181891,-7374515 -181876,-7374522 -181874,-7374524 -181871,-7374528 -181868,-7374532 -181865,-7374536 -181864,-7374539 -181863,-7374543 -181862,-7374547 -181862,-7374549 -181861,-7374553 -181861,-7374557 -181862,-7374561 -181863,-7374565 -181863,-7374567 -181828,-7374623 -181822,-7374623 -181816,-7374625 -181810,-7374626 -181804,-7374628 -181800,-7374629 -181797,-7374632 -181794,-7374634 -181792,-7374637 -181789,-7374640 -181789,-7374640 -181784,-7374646 -181780,-7374652 -181778,-7374655 -181772,-7374669 -181770,-7374674 -181701,-7374660 -181669,-7374632 -181633,-7374613 -181609,-7374606 -181587,-7374606 -181568,-7374521 -181228,-7374604 -181086,-7374640 -181074,-7374640 -181007,-7374656 -180990,-7374669 -180819,-7374711 -180699,-7374739 -180632,-7374756 -180478,-7374774 -180371,-7374698 -180362,-7374705 -180360,-7374703 -180355,-7374701 -180335,-7374695 -180320,-7374696 -180305,-7374704 -180277,-7374703 -180253,-7374664 -180244,-7374662 -180215,-7374672 -180208,-7374674 -180194,-7374671 -180178,-7374662 -180173,-7374657 -180169,-7374651 -180155,-7374625 -180150,-7374620 -180145,-7374617 -180133,-7374614 -180114,-7374621 -180107,-7374620 -180094,-7374597 -180076,-7374591 -180061,-7374571 -180052,-7374564 -180025,-7374561 -179891,-7374494 -179835,-7374465 -179794,-7374441 -179767,-7374433 -179740,-7374422 -179724,-7374433 -179704,-7374422 -179690,-7374413 -179667,-7374408 -179591,-7374395 -179532,-7374367 -179517,-7374365 -179513,-7374368 -179498,-7374384 -179491,-7374390 -179484,-7374394 -179472,-7374398 -179463,-7374394 -179458,-7374378 -179445,-7374354 -179433,-7374344 -179428,-7374343 -179423,-7374342 -179414,-7374346 -179390,-7374373 -179374,-7374375 -179348,-7374376 -179325,-7374370 -179319,-7374369 -179305,-7374381 -179237,-7374355 -179219,-7374359 -179196,-7374366 -179189,-7374391 -179176,-7374404 -179168,-7374406 -179160,-7374406 -179141,-7374393 -179133,-7374375 -179133,-7374353 -179105,-7374356 -179089,-7374359 -179074,-7374360 -179011,-7374375 -178958,-7374368 -178946,-7374377 -178911,-7374391 -178896,-7374407 -178885,-7374430 -178881,-7374438 -178864,-7374443 -178838,-7374436 -178809,-7374424 -178796,-7374438 -178788,-7374444 -178781,-7374448 -178762,-7374457 -178760,-7374463 -178759,-7374481 -178754,-7374502 -178740,-7374521 -178613,-7374527 -178574,-7374525 -178545,-7374530 -178519,-7374514 -178540,-7374469 -178542,-7374463 -178529,-7374455 -178517,-7374458 -178494,-7374466 -178467,-7374477 -178447,-7374470 -178433,-7374460 -178423,-7374462 -178412,-7374464 -178392,-7374472 -178366,-7374479 -178350,-7374484 -178335,-7374490 -178309,-7374502 -178284,-7374510 -178263,-7374519 -178243,-7374517 -178217,-7374505 -178195,-7374466 -178183,-7374458 -178170,-7374457 -178139,-7374472 -178117,-7374477 -178092,-7374474 -178075,-7374455 -178068,-7374449 -178054,-7374440 -178050,-7374430 -178050,-7374403 -178021,-7374397 -178009,-7374388 -178009,-7374375 -178009,-7374368 -178007,-7374361 -178004,-7374358 -177999,-7374356 -177977,-7374359 -177953,-7374362 -177912,-7374345 -177891,-7374333 -177882,-7374324 -177876,-7374323 -177869,-7374322 -177844,-7374338 -177833,-7374333 -177820,-7374298 -177811,-7374287 -177759,-7374274 -177734,-7374270 -177713,-7374261 -177677,-7374250 -177663,-7374245 -177634,-7374230 -177628,-7374235 -177613,-7374251 -177607,-7374255 -177587,-7374271 -177564,-7374284 -177543,-7374304 -177520,-7374308 -177513,-7374292 -177498,-7374299 -177479,-7374314 -177467,-7374310 -177451,-7374307 -177439,-7374310 -177427,-7374313 -177418,-7374318 -177410,-7374323 -177386,-7374340 -177367,-7374351 -177340,-7374349 -177317,-7374343 -177301,-7374335 -177284,-7374335 -177267,-7374340 -177247,-7374343 -177233,-7374340 -177200,-7374315 -177179,-7374305 -177167,-7374303 -177154,-7374301 -177109,-7374308 -177061,-7374310 -177001,-7374308 -176982,-7374302 -176953,-7374283 -176942,-7374276 -176919,-7374264 -176911,-7374258 -176903,-7374252 -176887,-7374234 -176872,-7374217 -176857,-7374197 -176833,-7374182 -176806,-7374173 -176743,-7374159 -176635,-7374137 -176617,-7374131 -176601,-7374125 -176571,-7374109 -176541,-7374088 -176510,-7374065 -176462,-7374018 -176425,-7373999 -176395,-7373995 -176360,-7373992 -176306,-7374009 -176292,-7374014 -176257,-7374032 -176217,-7374054 -176133,-7374072 -176084,-7374091 -176044,-7374103 -176022,-7374106 -175981,-7374108 -175926,-7374110 -175892,-7374113 -175808,-7374105 -175779,-7374100 -175773,-7374099 -175762,-7374118 -175722,-7374118 -175705,-7373995 -175686,-7373893 -175664,-7373780 -175640,-7373677 -175624,-7373598 -175609,-7373523 -175589,-7373460 -175569,-7373375 -175558,-7373310 -175553,-7373269 -175551,-7373206 -175549,-7373156 -175542,-7373127 -175534,-7373097 -175530,-7373070 -175526,-7373039 -175520,-7372997 -175525,-7372932 -175528,-7372877 -175534,-7372860 -175513,-7372857 -175484,-7372857 -175459,-7372848 -175438,-7372831 -175430,-7372809 -175430,-7372797 -175435,-7372758 -175435,-7372744 -175399,-7372725 -175337,-7372668 -175315,-7372656 -175298,-7372652 -175282,-7372649 -175269,-7372648 -175257,-7372647 -175244,-7372650 -175231,-7372653 -175205,-7372662 -175147,-7372689 -175115,-7372701 -175081,-7372709 -175069,-7372711 -175057,-7372712 -175032,-7372710 -175002,-7372695 -174988,-7372683 -174948,-7372647 -174936,-7372639 -174924,-7372631 -174891,-7372620 -174880,-7372616 -174854,-7372600 -174843,-7372595 -174799,-7372587 -174756,-7372574 -174714,-7372558 -174648,-7372527 -174620,-7372518 -174561,-7372510 -174530,-7372503 -174525,-7372503 -174515,-7372510 -174440,-7372484 -174419,-7372477 -174397,-7372473 -174375,-7372470 -174329,-7372467 -174283,-7372472 -174243,-7372474 -174211,-7372478 -174184,-7372480 -174164,-7372477 -174143,-7372470 -174081,-7372473 -174045,-7372482 -174003,-7372488 -173986,-7372486 -173934,-7372476 -173892,-7372462 -173772,-7372444 -173737,-7372444 -173708,-7372451 -173673,-7372456 -173637,-7372455 -173612,-7372453 -173533,-7372444 -173461,-7372433 -173370,-7372404 -173352,-7372398 -173328,-7372388 -173308,-7372387 -173233,-7372399 -173216,-7372409 -173177,-7372448 -173161,-7372459 -173121,-7372479 -173044,-7372522 -173013,-7372542 -172990,-7372561 -172976,-7372569 -172962,-7372577 -172915,-7372593 -172894,-7372598 -172886,-7372602 -172879,-7372606 -172855,-7372627 -172846,-7372634 -172823,-7372643 -172785,-7372653 -172755,-7372665 -172743,-7372682 -172721,-7372701 -172632,-7372738 -172613,-7372753 -172583,-7372759 -172571,-7372763 -172560,-7372767 -172543,-7372775 -172526,-7372776 -172465,-7372792 -172451,-7372795 -172421,-7372799 -172412,-7372801 -172399,-7372815 -172390,-7372830 -172385,-7372835 -172380,-7372839 -172358,-7372848 -172342,-7372862 -172327,-7372872 -172298,-7372860 -172276,-7372866 -172269,-7372875 -172244,-7372913 -172223,-7372917 -172203,-7372923 -172192,-7372930 -172184,-7372937 -172187,-7372949 -172168,-7372963 -172143,-7372982 -172111,-7373004 -172091,-7373018 -172073,-7373030 -172067,-7373035 -172046,-7373052 -172025,-7373074 -172020,-7373078 -172001,-7373095 -171981,-7373110 -171979,-7373111 -171959,-7373123 -171937,-7373137 -171911,-7373154 -171896,-7373156 -171877,-7373160 -171842,-7373172 -171819,-7373185 -171796,-7373203 -171775,-7373211 -171762,-7373212 -171758,-7373212 -171755,-7373216 -171752,-7373220 -171745,-7373234 -171737,-7373251 -171725,-7373276 -171704,-7373305 -171681,-7373335 -171658,-7373340 -171656,-7373362 -171651,-7373376 -171650,-7373403 -171645,-7373418 -171643,-7373437 -171638,-7373463 -171586,-7373445 -171583,-7373447 -171560,-7373467 -171558,-7373469 -171532,-7373621 -171496,-7373764 -171488,-7373773 -171475,-7373780 -171455,-7373787 -171433,-7373807 -171417,-7373828 -171372,-7373780 -171344,-7373736 -171313,-7373692 -171285,-7373650 -171252,-7373594 -171207,-7373513 -171143,-7373409 -171070,-7373283 -170996,-7373145 -170900,-7372967 -170835,-7372855 -170806,-7372805 -170766,-7372718 -170696,-7372591 -170630,-7372463 -170579,-7372382 -170535,-7372379 -170474,-7372378 -170372,-7372386 -170337,-7372383 -170304,-7372371 -170233,-7372334 -170192,-7372327 -170147,-7372328 -170035,-7372359 -170012,-7372363 -169985,-7372366 -169954,-7372364 -169928,-7372359 -169906,-7372348 -169885,-7372326 -169902,-7372420 -169905,-7372436 -169904,-7372446 -169813,-7372454 -169733,-7372451 -169683,-7372453 -169646,-7372457 -169469,-7372489 -169407,-7372493 -169338,-7372493 -169296,-7372494 -169225,-7372499 -169201,-7372499 -169178,-7372499 -169154,-7372496 -169082,-7372485 -168916,-7372464 -168882,-7372450 -168814,-7372429 -168779,-7372413 -168709,-7372386 -168686,-7372380 -168658,-7372378 -168656,-7372378 -168660,-7372455 -168671,-7372502 -168677,-7372545 -168584,-7372549 -168540,-7372551 -168422,-7372553 -168339,-7372547 -168124,-7372549 -168088,-7372297 -168063,-7372102 -168051,-7371993 -168032,-7371853 -168015,-7371669 -168002,-7371551 -167996,-7371492 -167979,-7371387 -167965,-7371267 -167959,-7371234 -167958,-7371212 -167953,-7371200 -167940,-7371191 -167914,-7371200 -167899,-7371211 -167865,-7371239 -167855,-7371245 -167833,-7371246 -167816,-7371253 -167801,-7371252 -167798,-7371252 -167770,-7371262 -167740,-7371276 -167679,-7371326 -167668,-7371334 -167604,-7371346 -167563,-7371372 -167537,-7371395 -167506,-7371418 -167492,-7371440 -167480,-7371468 -167474,-7371478 -167462,-7371495 -167451,-7371506 -167406,-7371508 -167398,-7371526 -167386,-7371542 -167370,-7371546 -167352,-7371544 -167332,-7371545 -167327,-7371550 -167313,-7371568 -167301,-7371586 -167298,-7371592 -167305,-7371627 -167304,-7371641 -167298,-7371644 -167292,-7371647 -167268,-7371648 -167254,-7371634 -167220,-7371624 -167216,-7371625 -167099,-7371673 -167044,-7371704 -167016,-7371719 -166988,-7371732 -166946,-7371751 -166923,-7371763 -166872,-7371789 -166856,-7371799 -166820,-7371820 -166746,-7371869 -166721,-7371886 -166666,-7371922 -166632,-7371947 -166604,-7371948 -166597,-7371950 -166590,-7371953 -166576,-7371964 -166556,-7371988 -166537,-7372024 -166502,-7372085 -166474,-7372119 -166420,-7372165 -166391,-7372188 -166378,-7372193 -166340,-7372205 -166321,-7372216 -166309,-7372226 -166299,-7372247 -166279,-7372275 -166262,-7372288 -166206,-7372325 -166180,-7372360 -166175,-7372372 -166171,-7372384 -166169,-7372418 -166167,-7372420 -166152,-7372433 -166126,-7372430 -166104,-7372427 -166081,-7372430 -166059,-7372433 -166034,-7372435 -166005,-7372443 -165978,-7372445 -165953,-7372445 -165929,-7372442 -165896,-7372433 -165893,-7372430 -165865,-7372408 -165788,-7372371 -165743,-7372354 -165724,-7372344 -165707,-7372333 -165677,-7372312 -165656,-7372288 -165622,-7372274 -165611,-7372299 -165604,-7372317 -165599,-7372349 -165597,-7372382 -165595,-7372421 -165591,-7372460 -165583,-7372497 -165575,-7372524 -165555,-7372564 -165554,-7372569 -165551,-7372614 -165554,-7372640 -165561,-7372687 -165565,-7372708 -165580,-7372755 -165591,-7372806 -165604,-7372807 -165610,-7372827 -165616,-7372847 -165628,-7372899 -165645,-7372959 -165665,-7373016 -165681,-7373083 -165702,-7373150 -165717,-7373212 -165728,-7373272 -165735,-7373298 -165742,-7373324 -165761,-7373381 -165769,-7373409 -165776,-7373437 -165773,-7373444 -165785,-7373492 -165802,-7373572 -165832,-7373671 -165845,-7373742 -165881,-7373904 -165889,-7373937 -165917,-7374033 -165925,-7374064 -165940,-7374153 -165945,-7374181 -165987,-7374309 -166006,-7374385 -166032,-7374470 -166050,-7374542 -166073,-7374603 -166120,-7374669 -166123,-7374683 -166125,-7374697 -166115,-7374697 -166039,-7374678 -166006,-7374667 -165945,-7374672 -165918,-7374665 -165850,-7374624 -165815,-7374609 -165762,-7374602 -165727,-7374603 -165694,-7374602 -165663,-7374610 -165627,-7374629 -165593,-7374654 -165576,-7374664 -165558,-7374673 -165513,-7374689 -165492,-7374694 -165451,-7374700 -165430,-7374702 -165389,-7374703 -165353,-7374701 -165309,-7374687 -165293,-7374689 -165243,-7374699 -165195,-7374706 -165156,-7374717 -165117,-7374743 -165083,-7374770 -165069,-7374784 -165055,-7374798 -165029,-7374841 -165005,-7374875 -164966,-7374887 -164955,-7374887 -164948,-7374887 -164889,-7374882 -164835,-7374881 -164789,-7374887 -164749,-7374899 -164713,-7374920 -164681,-7374944 -164660,-7374972 -164643,-7375004 -164650,-7375034 -164669,-7375064 -164670,-7375077 -164670,-7375090 -164657,-7375119 -164648,-7375144 -164642,-7375169 -164636,-7375186 -164613,-7375223 -164585,-7375289 -164566,-7375321 -164560,-7375329 -164548,-7375342 -164525,-7375383 -164510,-7375431 -164489,-7375480 -164483,-7375494 -164469,-7375515 -164471,-7375527 -164460,-7375533 -164456,-7375536 -164453,-7375540 -164447,-7375553 -164396,-7375566 -164370,-7375578 -164356,-7375584 -164347,-7375589 -164339,-7375597 -164324,-7375620 -164321,-7375625 -164312,-7375633 -164299,-7375642 -164274,-7375657 -164238,-7375671 -164177,-7375692 -164131,-7375704 -164114,-7375721 -164100,-7375744 -164094,-7375788 -164096,-7375845 -164092,-7375887 -164100,-7375911 -164100,-7375918 -164100,-7375921 -164096,-7375923 -164092,-7375923 -164082,-7375921 -164079,-7375922 -164072,-7375927 -164068,-7375932 -164056,-7375969 -164047,-7375991 -164029,-7376010 -163990,-7376036 -163956,-7376061 -163929,-7376074 -163874,-7376146 -163810,-7376244 -163781,-7376283 -163759,-7376308 -163750,-7376317 -163719,-7376335 -163573,-7376403 -163556,-7376361 -163428,-7376396 -163347,-7376423 -163308,-7376389" stroke="white" stroke-width="44" /></ns0:svg>    <rect x="20" y="50"  width="250" height="25"  rx="0"  fill="#E8EDEE" fill-opacity="0.8" />    <text x="145" y="70" text-anchor="middle" font-family="Frutiger" font-weight="bold" font-size="30" fill="#AE2573">North Tyneside</text>    <rect x="35" y="195" width="220" height="160" rx="15" fill="#724F95"/>    <g font-family="Frutiger" font-size="15" fill="white">        <g> <text x="45" y="218">Self-harm</text> <text x="245" y="218" text-anchor="end">60</text> </g>        <g> <text x="45" y="243">SEN</text> <text x="245" y="243" text-anchor="end">43</text> </g>        <g> <text x="45" y="268">Difficulties</text> <text x="245" y="268" text-anchor="end">72</text> </g>        <g> <text x="45" y="293">Child Carer</text> <text x="245" y="293" text-anchor="end"></text> </g>        <g> <text x="45" y="318">Drinkers</text> <text x="245" y="318" text-anchor="end">77</text> </g>        <g> <text x="45" y="343">Safeguarding </text> <text x="245" y="343" text-anchor="end">17</text> </g>    </g></svg>