<?xml version="1.0" standalone="no"?>
<!DOCTYPE svg PUBLIC "-//W3C//DTD SVG 1.1//EN"
"http://www.w3.org/Graphics/SVG/1.1/DTD/svg11.dtd">
<svg height="1800" version="1.1" width="1800" xmlns="http://www.w3.org/2000/svg"><defs><style type="text/css">@font-face {font-family: 'Frutiger';font-style: normal;font-weight: normal;src: local('Frutiger'), url('../fonts/Frutiger.woff') format('woff');}@font-face {font-family: 'Frutiger Bold';font-style: normal;font-weight: normal;src: local('Frutiger Bold'), url('../fonts/Frutiger_bold.woff') format('woff');}        </style>    </defs>    <rect x="20" y="20"  width="250" height="350" rx="15" fill="#009639" />    <rect x="35" y="35"  width="220" height="145" rx="15" fill="#E8EDEE" /><ns0:svg xmlns:ns0="http://www.w3.org/2000/svg" height="115" version="1.1" viewBox="-265325 -7107355 16620 29080" width="220" x="35" y="50"><ns0:polygon fill="#006747" points=" -262211,-7106515 -262207,-7106179 -262201,-7105922 -262160,-7105878 -261989,-7105755 -261972,-7105740 -261618,-7105663 -261427,-7105617 -261155,-7105539 -260924,-7105470 -260657,-7105393 -260507,-7105348 -260056,-7105213 -260024,-7105204 -259753,-7105121 -259599,-7105150 -259520,-7105148 -259367,-7105157 -259248,-7105174 -259061,-7105188 -259061,-7105200 -258991,-7105206 -258984,-7105206 -258877,-7105164 -258854,-7105171 -258816,-7105186 -258770,-7105201 -258744,-7105205 -258712,-7105205 -258624,-7105201 -258559,-7105205 -258532,-7105212 -258461,-7105240 -258422,-7105253 -258401,-7105256 -258367,-7105277 -258306,-7105279 -258289,-7105255 -258288,-7105237 -258278,-7105217 -258239,-7105193 -258205,-7105193 -258170,-7105168 -258136,-7105152 -258104,-7105129 -258087,-7105123 -258044,-7105113 -258011,-7105113 -257976,-7105117 -257958,-7105104 -257944,-7105097 -257929,-7105091 -257900,-7105083 -257899,-7105088 -257888,-7105089 -257889,-7105139 -257857,-7105135 -257813,-7105120 -257766,-7105100 -257783,-7105148 -257786,-7105172 -257782,-7105197 -257769,-7105237 -257755,-7105260 -257743,-7105274 -257663,-7105346 -257641,-7105373 -257602,-7105425 -257589,-7105454 -257584,-7105468 -257580,-7105481 -257565,-7105545 -257560,-7105562 -257556,-7105589 -257533,-7105640 -257529,-7105651 -257522,-7105678 -257519,-7105717 -257534,-7105766 -257533,-7105767 -257506,-7105784 -257477,-7105795 -257457,-7105812 -257432,-7105810 -257405,-7105824 -257377,-7105856 -257358,-7105870 -257343,-7105896 -257335,-7105973 -257345,-7105990 -257311,-7106004 -257253,-7106011 -257227,-7106018 -257191,-7106033 -257183,-7106054 -257177,-7106072 -257169,-7106084 -257162,-7106096 -257155,-7106104 -257141,-7106117 -257133,-7106123 -257123,-7106125 -257086,-7106130 -257044,-7106137 -257018,-7106148 -256992,-7106162 -256974,-7106167 -256933,-7106184 -256920,-7106190 -256896,-7106206 -256879,-7106223 -256875,-7106231 -256871,-7106241 -256861,-7106290 -256825,-7106302 -256818,-7106306 -256812,-7106309 -256809,-7106314 -256806,-7106321 -256803,-7106343 -256810,-7106373 -256808,-7106381 -256804,-7106389 -256794,-7106401 -256784,-7106415 -256752,-7106447 -256747,-7106455 -256743,-7106465 -256739,-7106478 -256724,-7106540 -256701,-7106583 -256686,-7106599 -256642,-7106640 -256609,-7106678 -256561,-7106730 -256538,-7106739 -256511,-7106744 -256496,-7106746 -256481,-7106758 -256476,-7106781 -256477,-7106802 -256488,-7106827 -256491,-7106835 -256476,-7106866 -256456,-7106888 -256416,-7106921 -256404,-7106933 -256394,-7106944 -256385,-7106956 -256366,-7107007 -256334,-7107034 -256302,-7107066 -256234,-7107138 -256220,-7107146 -256190,-7107155 -256182,-7107158 -256175,-7107162 -256161,-7107174 -256142,-7107222 -256130,-7107263 -256125,-7107271 -256120,-7107278 -256101,-7107290 -256058,-7107317 -256046,-7107345 -256015,-7107335 -256001,-7107329 -255988,-7107323 -255986,-7107322 -255972,-7107316 -255958,-7107310 -255945,-7107302 -255945,-7107302 -255940,-7107299 -255935,-7107296 -255930,-7107292 -255926,-7107289 -255921,-7107285 -255918,-7107282 -255915,-7107279 -255912,-7107275 -255909,-7107272 -255906,-7107268 -255903,-7107264 -255900,-7107261 -255897,-7107257 -255884,-7107234 -255873,-7107215 -255859,-7107193 -255845,-7107172 -255838,-7107162 -255825,-7107144 -255812,-7107126 -255801,-7107112 -255790,-7107100 -255769,-7107076 -255766,-7107073 -255734,-7107036 -255696,-7106994 -255669,-7106965 -255639,-7106935 -255615,-7106905 -255588,-7106863 -255560,-7106846 -255555,-7106832 -255549,-7106813 -255551,-7106758 -255559,-7106634 -255569,-7106597 -255579,-7106549 -255578,-7106535 -255547,-7106356 -255490,-7106181 -255453,-7106065 -255352,-7105693 -255347,-7105644 -255348,-7105615 -255355,-7105587 -255365,-7105572 -255378,-7105557 -255388,-7105540 -255394,-7105522 -255396,-7105501 -255360,-7105391 -255354,-7105370 -255348,-7105350 -255345,-7105326 -255347,-7105313 -255351,-7105301 -255403,-7105274 -255458,-7105254 -255472,-7105247 -255486,-7105239 -255518,-7105219 -255536,-7105205 -255577,-7105159 -255621,-7105105 -255636,-7105082 -255586,-7105082 -255553,-7105079 -255546,-7105066 -255543,-7105050 -255545,-7105039 -255547,-7105026 -255560,-7104967 -255559,-7104941 -255556,-7104927 -255543,-7104875 -255540,-7104858 -255543,-7104838 -255550,-7104818 -255554,-7104785 -255553,-7104772 -255545,-7104747 -255544,-7104727 -255554,-7104708 -255576,-7104687 -255574,-7104680 -255630,-7104667 -255675,-7104658 -255709,-7104639 -255721,-7104629 -255738,-7104596 -255766,-7104522 -255769,-7104503 -255772,-7104467 -255739,-7104189 -255742,-7104157 -255743,-7104109 -255747,-7104065 -255757,-7104045 -255764,-7103955 -255766,-7103853 -255741,-7103706 -255738,-7103688 -255732,-7103655 -255707,-7103547 -255692,-7103458 -255661,-7103319 -255624,-7103135 -255619,-7103109 -255613,-7103060 -255616,-7103034 -255614,-7102936 -255611,-7102899 -255588,-7102838 -255577,-7102814 -255570,-7102792 -255568,-7102769 -255568,-7102707 -255560,-7102550 -255541,-7102481 -255525,-7102430 -255508,-7102343 -255482,-7102291 -255454,-7102247 -255348,-7102146 -255337,-7102130 -255306,-7102068 -255293,-7102047 -255259,-7102005 -255179,-7101895 -255157,-7101849 -255151,-7101835 -255147,-7101822 -255126,-7101740 -255116,-7101706 -255066,-7101580 -255026,-7101518 -254985,-7101458 -254924,-7101381 -254920,-7101376 -254891,-7101338 -254881,-7101321 -254850,-7101254 -254837,-7101224 -254825,-7101194 -254802,-7101132 -254786,-7101078 -254777,-7101024 -254775,-7100991 -254799,-7100922 -254737,-7100848 -254618,-7100774 -254585,-7100753 -254551,-7100693 -254511,-7100617 -254491,-7100570 -254466,-7100537 -254458,-7100516 -254450,-7100428 -254440,-7100412 -254432,-7100394 -254424,-7100375 -254403,-7100320 -254379,-7100248 -254358,-7100168 -254341,-7100112 -254340,-7100104 -254341,-7100096 -254350,-7100036 -254271,-7099921 -254235,-7099871 -254199,-7099827 -254220,-7099788 -254232,-7099747 -254244,-7099721 -254257,-7099695 -254275,-7099668 -254294,-7099630 -254303,-7099599 -254309,-7099547 -254308,-7099523 -254138,-7099164 -254126,-7099127 -254121,-7099117 -254105,-7099105 -254082,-7099097 -254092,-7099037 -254108,-7099006 -254078,-7098886 -254076,-7098863 -254078,-7098845 -254094,-7098799 -254100,-7098781 -254109,-7098749 -254122,-7098691 -254160,-7098660 -254124,-7098561 -254057,-7098586 -253994,-7098621 -253971,-7098633 -253950,-7098646 -253918,-7098664 -253896,-7098683 -253889,-7098688 -253853,-7098667 -253825,-7098654 -253814,-7098636 -253803,-7098641 -253791,-7098632 -253737,-7098617 -253691,-7098597 -253639,-7098568 -253617,-7098578 -253612,-7098517 -253600,-7098441 -253593,-7098409 -253557,-7098272 -253365,-7098180 -253341,-7098298 -252979,-7098235 -252975,-7098176 -252947,-7097822 -252922,-7097630 -252911,-7097574 -252904,-7097546 -252901,-7097497 -252894,-7097485 -252878,-7097440 -252842,-7097382 -252828,-7097380 -252768,-7097306 -252720,-7097219 -252675,-7097156 -252637,-7097102 -252595,-7096973 -252575,-7096925 -252563,-7096875 -252527,-7096823 -252472,-7096736 -252401,-7096629 -252379,-7096595 -252320,-7096482 -252318,-7096479 -252317,-7096470 -252230,-7096379 -252218,-7096364 -252200,-7096346 -252184,-7096322 -252179,-7096306 -252167,-7096293 -252156,-7096287 -252151,-7096281 -252150,-7096268 -252073,-7096195 -252024,-7096224 -251931,-7096154 -251795,-7096035 -251787,-7096022 -251783,-7096010 -251783,-7095999 -251612,-7095932 -251515,-7095901 -251489,-7095895 -251434,-7095893 -251374,-7095891 -251298,-7095899 -251161,-7095906 -251124,-7095907 -251106,-7095910 -251083,-7095921 -251024,-7095950 -251015,-7095958 -250946,-7095991 -250807,-7096059 -250769,-7096074 -250735,-7096084 -250707,-7096092 -250666,-7096101 -250580,-7096115 -250567,-7096014 -250559,-7095961 -250538,-7095802 -250520,-7095684 -250508,-7095689 -250498,-7095650 -250486,-7095619 -250429,-7095515 -250405,-7095472 -250370,-7095423 -250353,-7095398 -250354,-7095391 -250359,-7095325 -250363,-7095309 -250372,-7095294 -250369,-7095281 -250332,-7095243 -250320,-7095226 -250315,-7095214 -250305,-7095201 -250294,-7095193 -250283,-7095177 -250273,-7095172 -250264,-7095162 -250244,-7095154 -250236,-7095147 -250224,-7095141 -250215,-7095143 -250171,-7095124 -250140,-7095124 -250129,-7095129 -250113,-7095127 -250099,-7095120 -250091,-7095119 -250087,-7095113 -250073,-7095111 -250048,-7095092 -250022,-7095064 -249999,-7095048 -249991,-7095043 -249977,-7095043 -249965,-7095041 -249951,-7095027 -249948,-7095011 -249935,-7094996 -249932,-7094988 -249918,-7094970 -249912,-7094934 -249904,-7094919 -249908,-7094897 -249910,-7094873 -249915,-7094838 -249921,-7094788 -249926,-7094780 -249926,-7094773 -249932,-7094767 -249932,-7094754 -249952,-7094739 -249952,-7094715 -249945,-7094703 -249949,-7094682 -249958,-7094658 -249972,-7094632 -249975,-7094599 -250041,-7094604 -250079,-7094615 -250125,-7094632 -250144,-7094640 -250168,-7094647 -250203,-7094650 -250223,-7094648 -250271,-7094641 -250373,-7094626 -250384,-7094625 -250410,-7094622 -250462,-7094618 -250521,-7094599 -250562,-7094584 -250586,-7094571 -250619,-7094544 -250638,-7094516 -250660,-7094485 -250685,-7094458 -250755,-7094404 -250787,-7094381 -250892,-7094324 -250933,-7094288 -250966,-7094273 -251025,-7094262 -251055,-7094242 -251086,-7094223 -251104,-7094203 -251129,-7094159 -251172,-7094074 -251244,-7093981 -251317,-7093898 -251387,-7093828 -251392,-7093724 -251397,-7093636 -251401,-7093583 -251414,-7093526 -251432,-7093468 -251456,-7093394 -251482,-7093308 -251495,-7093295 -251507,-7093295 -251516,-7093297 -251526,-7093300 -251544,-7093308 -251551,-7093310 -251559,-7093311 -251576,-7093310 -251597,-7093316 -251627,-7093321 -251707,-7093336 -251777,-7093350 -251820,-7093357 -251843,-7093359 -251855,-7093360 -251912,-7093361 -251981,-7093361 -252025,-7093358 -252068,-7093350 -252097,-7093344 -252124,-7093335 -252134,-7093329 -252137,-7093323 -252143,-7093311 -252157,-7093268 -252177,-7093224 -252195,-7093189 -252212,-7093171 -252238,-7093153 -252282,-7093146 -252293,-7093150 -252324,-7093149 -252359,-7093152 -252407,-7093168 -252464,-7093188 -252504,-7093209 -252574,-7093252 -252607,-7093261 -252642,-7093267 -252671,-7093263 -252692,-7093254 -252704,-7093242 -252705,-7093224 -252705,-7093186 -252703,-7093155 -252686,-7093112 -252681,-7093077 -252668,-7093050 -252647,-7093011 -252631,-7092969 -252626,-7092955 -252622,-7092937 -252620,-7092918 -252619,-7092901 -252619,-7092885 -252621,-7092862 -252624,-7092848 -252628,-7092831 -252638,-7092807 -252673,-7092754 -252693,-7092737 -252710,-7092729 -252733,-7092732 -252746,-7092738 -252765,-7092760 -252795,-7092808 -252817,-7092843 -252866,-7092887 -252916,-7092931 -252943,-7092944 -253034,-7093008 -253116,-7093051 -253163,-7093088 -253249,-7093137 -253277,-7093157 -253303,-7093175 -253330,-7093180 -253376,-7093187 -253405,-7093186 -253434,-7093170 -253452,-7093157 -253465,-7093136 -253492,-7093094 -253511,-7093044 -253546,-7092971 -253561,-7092959 -253597,-7092897 -253633,-7092832 -253647,-7092793 -253669,-7092681 -253672,-7092652 -253675,-7092612 -253674,-7092603 -253666,-7092573 -253628,-7092479 -253595,-7092406 -253592,-7092385 -253591,-7092374 -253587,-7092287 -253580,-7092225 -253580,-7092208 -253580,-7092166 -253584,-7092133 -253591,-7092108 -253597,-7092080 -253602,-7092071 -253611,-7092054 -253624,-7092043 -253650,-7092035 -253676,-7092040 -253712,-7092057 -253795,-7092090 -253821,-7092108 -253841,-7092142 -253850,-7092168 -253862,-7092187 -253902,-7092230 -253926,-7092252 -253952,-7092268 -253979,-7092292 -254014,-7092313 -254034,-7092320 -254045,-7092315 -254062,-7092302 -254079,-7092271 -254091,-7092228 -254095,-7092213 -254096,-7092200 -254094,-7092155 -254088,-7092086 -254082,-7092032 -254077,-7091987 -254082,-7091822 -254080,-7091784 -254072,-7091740 -254058,-7091702 -254031,-7091641 -254003,-7091601 -253975,-7091549 -253968,-7091525 -253968,-7091525 -253949,-7091532 -253941,-7091535 -253928,-7091537 -253901,-7091529 -253888,-7091523 -253881,-7091512 -253884,-7091500 -253900,-7091489 -253901,-7091482 -253886,-7091450 -253862,-7091408 -253852,-7091404 -253832,-7091398 -253798,-7091392 -253773,-7091393 -253735,-7091405 -253709,-7091409 -253691,-7091402 -253679,-7091383 -253673,-7091367 -253669,-7091312 -253668,-7091296 -253656,-7091280 -253634,-7091258 -253609,-7091236 -253594,-7091225 -253544,-7091178 -253540,-7091162 -253541,-7091145 -253548,-7091118 -253552,-7091045 -253545,-7091033 -253525,-7091024 -253405,-7090983 -253380,-7090983 -253362,-7090967 -253343,-7090970 -253329,-7090960 -253307,-7090950 -253273,-7090934 -253222,-7090921 -253189,-7090910 -253163,-7090912 -253128,-7090900 -253095,-7090880 -253066,-7090882 -253048,-7090889 -253021,-7090890 -252953,-7090904 -252938,-7090903 -252931,-7090904 -252890,-7090941 -252812,-7091006 -252783,-7091018 -252712,-7091040 -252616,-7091070 -252594,-7091074 -252526,-7091159 -252517,-7091174 -252516,-7091192 -252490,-7091243 -252486,-7091263 -252485,-7091318 -252466,-7091343 -252468,-7091400 -252449,-7091441 -252455,-7091462 -252465,-7091506 -252465,-7091599 -252471,-7091701 -252448,-7091776 -252437,-7091813 -252429,-7091845 -252402,-7091858 -252388,-7091861 -252368,-7091869 -252349,-7091884 -252311,-7091940 -252295,-7091972 -252284,-7091980 -252274,-7091983 -252193,-7092061 -252166,-7092075 -252145,-7092077 -252116,-7092068 -252035,-7092039 -252020,-7092029 -251975,-7091972 -251954,-7091960 -251934,-7091952 -251910,-7091947 -251856,-7091923 -251830,-7091929 -251782,-7091917 -251772,-7091909 -251763,-7091908 -251726,-7091909 -251700,-7091901 -251690,-7091905 -251665,-7091926 -251616,-7091941 -251581,-7091969 -251551,-7091986 -251531,-7092001 -251497,-7091999 -251450,-7091931 -251379,-7091855 -251300,-7091797 -251161,-7091688 -251121,-7091650 -251038,-7091561 -250990,-7091495 -250978,-7091473 -250976,-7091456 -250985,-7091401 -251000,-7091302 -250995,-7091246 -250981,-7091198 -250968,-7091172 -250893,-7091083 -250766,-7090924 -250662,-7090826 -250544,-7090717 -250552,-7090515 -250549,-7090475 -250545,-7090453 -250504,-7090373 -250482,-7090349 -250415,-7090271 -250363,-7090204 -250264,-7090072 -250187,-7089951 -250143,-7089885 -250100,-7089826 -249939,-7089663 -249840,-7089566 -249798,-7089525 -249723,-7089455 -249729,-7089425 -249767,-7089297 -249803,-7089166 -249915,-7089186 -249926,-7089185 -249949,-7089017 -249970,-7088874 -249722,-7088723 -249834,-7088546 -249843,-7088526 -249854,-7088492 -249895,-7088448 -249941,-7088385 -250008,-7088289 -250018,-7088268 -250027,-7088248 -250043,-7088207 -250048,-7088182 -250045,-7088158 -250049,-7088146 -250055,-7088141 -250057,-7088127 -250064,-7088111 -250074,-7088061 -250094,-7088011 -250118,-7087971 -250139,-7087942 -250150,-7087922 -250151,-7087911 -250153,-7087904 -250165,-7087894 -250260,-7087892 -250256,-7087859 -250225,-7087820 -250224,-7087792 -250212,-7087738 -250204,-7087725 -250177,-7087716 -250165,-7087709 -250170,-7087697 -250170,-7087658 -250154,-7087614 -250139,-7087612 -250117,-7087614 -250115,-7087600 -250108,-7087584 -250078,-7087557 -250049,-7087564 -250041,-7087566 -250027,-7087581 -250014,-7087583 -249985,-7087583 -249967,-7087590 -249943,-7087584 -249859,-7087605 -249851,-7087613 -249844,-7087626 -249837,-7087639 -249826,-7087645 -249811,-7087644 -249797,-7087638 -249791,-7087636 -249777,-7087621 -249751,-7087613 -249721,-7087596 -249700,-7087589 -249671,-7087561 -249647,-7087551 -249613,-7087553 -249580,-7087558 -249560,-7087556 -249552,-7087556 -249543,-7087558 -249543,-7087551 -249553,-7087534 -249549,-7087524 -249545,-7087512 -249537,-7087507 -249526,-7087506 -249517,-7087511 -249503,-7087526 -249468,-7087558 -249460,-7087558 -249451,-7087555 -249446,-7087545 -249446,-7087540 -249451,-7087533 -249453,-7087528 -249453,-7087512 -249452,-7087493 -249452,-7087483 -249434,-7087481 -249411,-7087475 -249375,-7087476 -249352,-7087468 -249328,-7087456 -249312,-7087451 -249299,-7087444 -249294,-7087431 -249292,-7087426 -249285,-7087426 -249280,-7087429 -249277,-7087437 -249275,-7087441 -249270,-7087444 -249261,-7087439 -249250,-7087432 -249243,-7087420 -249224,-7087402 -249216,-7087386 -249208,-7087366 -249188,-7087336 -249185,-7087320 -249180,-7087313 -249182,-7087302 -249177,-7087296 -249171,-7087294 -249161,-7087295 -249155,-7087292 -249150,-7087284 -249151,-7087275 -249151,-7087271 -249150,-7087267 -249139,-7087269 -249124,-7087277 -249112,-7087285 -249104,-7087278 -249073,-7087235 -249069,-7087230 -249058,-7087220 -249055,-7087195 -249052,-7087168 -249049,-7087161 -249043,-7087152 -249038,-7087147 -249030,-7087144 -249024,-7087145 -249022,-7087152 -249017,-7087155 -249008,-7087152 -248983,-7087142 -248977,-7087135 -248972,-7087123 -248970,-7087120 -248970,-7087116 -248981,-7087117 -249060,-7087061 -249182,-7086973 -249308,-7086890 -249366,-7086851 -249433,-7086806 -249495,-7086763 -249547,-7086728 -249509,-7086677 -249445,-7086593 -249372,-7086495 -249371,-7086494 -249306,-7086405 -249236,-7086306 -249180,-7086228 -249097,-7086111 -249076,-7086075 -249067,-7086074 -249062,-7086046 -249028,-7085923 -248990,-7085774 -248964,-7085678 -248951,-7085631 -248939,-7085591 -248920,-7085409 -248912,-7085324 -248904,-7085225 -248893,-7085118 -248886,-7085055 -248870,-7084900 -248863,-7084859 -248841,-7084784 -248839,-7084773 -248822,-7084707 -248801,-7084624 -248763,-7084482 -248751,-7084432 -248735,-7084328 -248713,-7084189 -248706,-7084144 -248705,-7084093 -248712,-7084038 -248741,-7083889 -248752,-7083866 -248728,-7083838 -248766,-7083811 -248791,-7083788 -248808,-7083768 -248822,-7083753 -248842,-7083740 -248852,-7083732 -248862,-7083734 -248909,-7083684 -248928,-7083663 -248945,-7083642 -248958,-7083618 -248960,-7083612 -248967,-7083583 -248961,-7083565 -248954,-7083553 -248950,-7083529 -248954,-7083507 -248965,-7083487 -248976,-7083475 -248987,-7083469 -249021,-7083432 -249048,-7083408 -249047,-7083301 -249105,-7083276 -249120,-7083289 -249182,-7083288 -249254,-7083372 -249217,-7083404 -249230,-7083420 -249227,-7083463 -249284,-7083529 -249375,-7083596 -249381,-7083607 -249386,-7083600 -249573,-7083774 -249624,-7083820 -249716,-7083885 -249820,-7083969 -249854,-7083998 -249888,-7084031 -249955,-7084100 -250044,-7084165 -250103,-7084204 -250170,-7084246 -250248,-7084293 -250368,-7084319 -250404,-7084332 -250466,-7084344 -250515,-7084356 -250567,-7084366 -250662,-7084378 -250663,-7084365 -250672,-7084352 -250684,-7084338 -250679,-7084328 -250805,-7084261 -250844,-7084248 -250928,-7084230 -251024,-7084208 -251251,-7084159 -251380,-7084129 -251406,-7084121 -251443,-7084105 -251484,-7084080 -251522,-7084050 -251564,-7084012 -251663,-7083910 -251803,-7083771 -251966,-7083606 -252119,-7083450 -252183,-7083387 -252313,-7083256 -252419,-7083148 -252459,-7083103 -252464,-7083088 -252474,-7083079 -252496,-7083037 -252502,-7083032 -252500,-7083030 -252511,-7083007 -252523,-7082971 -252543,-7082909 -252547,-7082850 -252548,-7082803 -252544,-7082751 -252529,-7082695 -252518,-7082682 -252525,-7082675 -252511,-7082658 -252513,-7082657 -252505,-7082650 -252514,-7082642 -252506,-7082631 -252477,-7082661 -252468,-7082655 -252465,-7082647 -252457,-7082648 -252446,-7082622 -252447,-7082603 -252505,-7082572 -252482,-7082530 -252451,-7082476 -252428,-7082419 -252405,-7082353 -252396,-7082310 -252392,-7082262 -252387,-7082177 -252382,-7082121 -252364,-7082066 -252347,-7082032 -252319,-7081972 -252292,-7081924 -252276,-7081878 -252265,-7081847 -252253,-7081766 -252251,-7081700 -252252,-7081685 -252262,-7081556 -252257,-7081414 -252251,-7081311 -252240,-7081138 -252233,-7081080 -252218,-7081023 -252204,-7081001 -252196,-7080982 -252095,-7080827 -252076,-7080781 -252064,-7080734 -252040,-7080647 -251902,-7080684 -251858,-7080705 -251725,-7080789 -251727,-7080793 -251703,-7080805 -251470,-7080957 -251290,-7081076 -251264,-7081091 -251220,-7081111 -250910,-7081218 -250731,-7081280 -250406,-7081391 -250095,-7081498 -250093,-7081479 -250140,-7081314 -250200,-7081102 -250236,-7080973 -250259,-7080892 -250279,-7080826 -250306,-7080736 -250309,-7080726 -250316,-7080729 -250319,-7080730 -250323,-7080713 -250333,-7080677 -250335,-7080669 -250582,-7080818 -250612,-7080815 -250661,-7080847 -250667,-7080847 -250691,-7080809 -250628,-7080772 -250629,-7080699 -250628,-7080644 -250626,-7080604 -250636,-7080571 -250630,-7080521 -250769,-7080548 -250855,-7080565 -250836,-7080514 -250831,-7080501 -250823,-7080470 -250815,-7080429 -250806,-7080366 -250795,-7080295 -250787,-7080236 -250858,-7080227 -250857,-7080193 -250849,-7080107 -250917,-7080100 -250916,-7080085 -250960,-7080081 -250956,-7080033 -250953,-7079973 -250945,-7079974 -250938,-7079894 -251026,-7079862 -251080,-7079857 -251096,-7079881 -251114,-7079865 -251191,-7079817 -251166,-7079771 -251163,-7079760 -251180,-7079753 -251178,-7079739 -251192,-7079730 -251209,-7079712 -251207,-7079646 -251209,-7079616 -251216,-7079545 -251219,-7079490 -251212,-7079434 -251214,-7079429 -251219,-7079420 -251232,-7079400 -251234,-7079400 -251243,-7079385 -251244,-7079384 -251283,-7079402 -251311,-7079421 -251314,-7079423 -251333,-7079398 -251339,-7079391 -251376,-7079401 -251401,-7079412 -251402,-7079413 -251412,-7079405 -251422,-7079399 -251428,-7079405 -251426,-7079430 -251472,-7079473 -251484,-7079458 -251493,-7079453 -251517,-7079440 -251605,-7079436 -251741,-7079434 -251796,-7079428 -251894,-7079418 -252011,-7079405 -252048,-7079402 -252145,-7079391 -252197,-7079383 -252329,-7079359 -252414,-7079342 -252441,-7079336 -252446,-7079335 -252502,-7079323 -252501,-7079320 -252500,-7079316 -252603,-7079293 -252603,-7079305 -252603,-7079318 -252609,-7079316 -252712,-7079297 -252774,-7079266 -252794,-7079266 -252800,-7079272 -252808,-7079281 -252822,-7079280 -252836,-7079280 -252861,-7079295 -252870,-7079300 -252874,-7079298 -252874,-7079298 -252881,-7079293 -252886,-7079289 -252923,-7079241 -252947,-7079220 -252976,-7079196 -252993,-7079188 -253007,-7079182 -253061,-7079157 -253134,-7079123 -253170,-7079110 -253192,-7079098 -253274,-7079076 -253357,-7079064 -253378,-7079062 -253430,-7079061 -253489,-7079060 -253532,-7079056 -253574,-7079043 -253735,-7078999 -253738,-7078998 -253770,-7079005 -253796,-7079011 -253822,-7079000 -253868,-7078993 -253896,-7078980 -253926,-7078961 -253957,-7078934 -254001,-7078920 -254041,-7078900 -254044,-7078894 -254049,-7078883 -254062,-7078874 -254079,-7078876 -254090,-7078878 -254095,-7078872 -254167,-7078784 -254187,-7078761 -254214,-7078727 -254231,-7078723 -254237,-7078722 -254237,-7078719 -254236,-7078714 -254268,-7078674 -254312,-7078624 -254317,-7078622 -254341,-7078613 -254342,-7078603 -254343,-7078599 -254354,-7078590 -254372,-7078578 -254374,-7078570 -254376,-7078565 -254414,-7078562 -254463,-7078535 -254551,-7078528 -254586,-7078534 -254588,-7078526 -254576,-7078519 -254568,-7078514 -254637,-7078493 -254732,-7078451 -254798,-7078425 -254818,-7078426 -254821,-7078426 -254868,-7078414 -254878,-7078401 -254880,-7078386 -254889,-7078373 -254910,-7078354 -254915,-7078344 -254919,-7078335 -254927,-7078322 -254931,-7078315 -254933,-7078313 -254936,-7078308 -254940,-7078306 -254955,-7078298 -254966,-7078286 -254974,-7078278 -255010,-7078275 -255022,-7078335 -255039,-7078425 -255066,-7078515 -255077,-7078575 -255115,-7078648 -255156,-7078695 -255219,-7078755 -255250,-7078776 -255372,-7078882 -255406,-7078909 -255437,-7078927 -255492,-7078943 -255587,-7078975 -255613,-7078976 -255645,-7078974 -255710,-7078956 -255738,-7078951 -255753,-7078950 -255778,-7078955 -255817,-7078971 -255980,-7079055 -256124,-7079114 -256186,-7079145 -256237,-7079179 -256268,-7079203 -256286,-7079223 -256299,-7079248 -256310,-7079275 -256314,-7079286 -256320,-7079307 -256324,-7079329 -256323,-7079343 -256321,-7079381 -256318,-7079408 -256300,-7079504 -256289,-7079559 -256270,-7079715 -256265,-7079783 -256264,-7079816 -256265,-7079843 -256274,-7079893 -256285,-7079948 -256300,-7080002 -256353,-7080120 -256383,-7080179 -256416,-7080226 -256419,-7080231 -256459,-7080283 -256487,-7080316 -256612,-7080459 -256799,-7080660 -256988,-7080856 -257028,-7080886 -257069,-7080929 -257096,-7080989 -257134,-7081032 -257187,-7081104 -257200,-7081114 -257227,-7081129 -257294,-7081155 -257336,-7081171 -257362,-7081176 -257400,-7081179 -257471,-7081173 -257685,-7081170 -257828,-7081160 -257928,-7081137 -258112,-7081094 -258138,-7081093 -258200,-7081080 -258312,-7081082 -258475,-7081077 -258539,-7081087 -258609,-7081089 -258672,-7081106 -258741,-7081119 -258764,-7081130 -258790,-7081147 -258859,-7081209 -258965,-7081303 -259016,-7081360 -259035,-7081383 -259052,-7081406 -259088,-7081466 -259122,-7081515 -259135,-7081526 -259191,-7081563 -259227,-7081581 -259274,-7081598 -259355,-7081624 -259422,-7081651 -259514,-7081687 -259540,-7081700 -259608,-7081740 -259664,-7081763 -259739,-7081805 -259764,-7081816 -259788,-7081826 -259884,-7081848 -259930,-7081876 -259954,-7081893 -259975,-7081912 -260001,-7081939 -260178,-7082175 -260286,-7082318 -260248,-7082443 -260237,-7082487 -260231,-7082495 -260218,-7082494 -260199,-7082490 -260186,-7082491 -260180,-7082501 -260177,-7082522 -260182,-7082531 -260199,-7082534 -260197,-7082543 -260186,-7082559 -260185,-7082577 -260170,-7082596 -260164,-7082614 -260165,-7082686 -260152,-7082709 -260152,-7082729 -260158,-7082751 -260162,-7082772 -260170,-7082785 -260176,-7082802 -260173,-7082817 -260185,-7082851 -260211,-7082875 -260213,-7082883 -260202,-7082889 -260204,-7082898 -260213,-7082904 -260218,-7082926 -260222,-7082939 -260235,-7082956 -260218,-7082965 -260205,-7082969 -260189,-7082982 -260177,-7082984 -260190,-7083000 -260188,-7083051 -260252,-7083135 -260322,-7083135 -260339,-7083152 -260347,-7083172 -260353,-7083197 -260351,-7083233 -260411,-7083330 -260487,-7083434 -260504,-7083485 -260531,-7083546 -260561,-7083617 -260595,-7083723 -260615,-7083734 -260639,-7083765 -260653,-7083821 -260654,-7083826 -260671,-7083915 -260677,-7083958 -260679,-7084023 -260686,-7084121 -260686,-7084172 -260679,-7084247 -260668,-7084379 -260666,-7084458 -260652,-7084616 -260712,-7084596 -260916,-7084501 -260943,-7084545 -260957,-7084571 -260959,-7084574 -261091,-7084702 -261143,-7084745 -261207,-7084802 -261327,-7084892 -261364,-7084908 -261409,-7084924 -261463,-7084938 -261517,-7084949 -261540,-7084953 -261608,-7084962 -261743,-7084970 -261810,-7084997 -261869,-7085022 -261910,-7085041 -261951,-7085061 -261991,-7085083 -262029,-7085106 -262066,-7085130 -262253,-7085261 -262353,-7085287 -262454,-7085314 -262586,-7085354 -262806,-7085433 -262984,-7085473 -262973,-7085640 -263517,-7085700 -263777,-7085852 -264226,-7086121 -264145,-7086160 -264077,-7086188 -264050,-7086195 -264036,-7086197 -264024,-7086197 -264012,-7086195 -264001,-7086192 -263876,-7086153 -263834,-7086138 -263757,-7086077 -263670,-7086024 -263645,-7086012 -263627,-7086006 -263608,-7086002 -263586,-7085999 -263561,-7085997 -263538,-7085998 -263516,-7086001 -263497,-7086004 -263461,-7086015 -263431,-7086029 -263404,-7086047 -263390,-7086059 -263375,-7086073 -263365,-7086085 -263357,-7086095 -263288,-7086198 -263200,-7086358 -263190,-7086369 -263150,-7086413 -263088,-7086473 -263073,-7086485 -263041,-7086513 -263037,-7086516 -263019,-7086526 -263001,-7086532 -262981,-7086534 -262957,-7086534 -262942,-7086530 -262934,-7086525 -262927,-7086519 -262923,-7086514 -262892,-7086450 -262878,-7086417 -262875,-7086366 -262869,-7086252 -262863,-7086165 -262857,-7086130 -262847,-7086081 -262841,-7086060 -262834,-7086042 -262826,-7086027 -262822,-7086019 -262773,-7085961 -262752,-7085942 -262741,-7085934 -262729,-7085927 -262717,-7085920 -262704,-7085915 -262691,-7085912 -262681,-7085911 -262670,-7085911 -262658,-7085913 -262643,-7085917 -262626,-7085924 -262600,-7085938 -262524,-7085993 -262499,-7086017 -262481,-7086038 -262463,-7086059 -262450,-7086075 -262440,-7086092 -262432,-7086107 -262387,-7086209 -262382,-7086226 -262375,-7086249 -262360,-7086340 -262357,-7086360 -262353,-7086395 -262344,-7086514 -262342,-7086532 -262341,-7086537 -262337,-7086548 -262330,-7086566 -262320,-7086583 -262311,-7086597 -262301,-7086609 -262290,-7086620 -262279,-7086629 -262259,-7086643 -262284,-7086712 -262313,-7086743 -262326,-7086779 -262407,-7086857 -262411,-7086861 -262395,-7086875 -262396,-7086902 -262375,-7086941 -262372,-7086957 -262369,-7086969 -262369,-7086976 -262369,-7086992 -262364,-7087004 -262347,-7087045 -262320,-7087085 -262306,-7087118 -262288,-7087171 -262280,-7087232 -262270,-7087326 -262272,-7087387 -262292,-7087498 -262292,-7087513 -262292,-7087518 -262294,-7087527 -262331,-7087660 -262358,-7087738 -262400,-7087828 -262400,-7087829 -262408,-7087857 -262415,-7087871 -262419,-7087869 -262439,-7087862 -262488,-7087992 -262489,-7087995 -262489,-7088042 -262511,-7088093 -262529,-7088140 -262623,-7088350 -262646,-7088395 -262661,-7088441 -262677,-7088465 -262682,-7088491 -262693,-7088505 -262703,-7088530 -262748,-7088629 -262760,-7088666 -262779,-7088704 -262824,-7088813 -262892,-7088800 -262932,-7088798 -263050,-7088812 -263075,-7088812 -263121,-7088815 -263211,-7088833 -263232,-7088838 -263249,-7088838 -263266,-7088837 -263298,-7088839 -263314,-7088831 -263321,-7088831 -263337,-7088838 -263375,-7088840 -263420,-7088856 -263451,-7088887 -263506,-7088940 -263537,-7088965 -263563,-7088978 -263589,-7088982 -263624,-7089016 -263641,-7089037 -263675,-7089080 -263699,-7089105 -263707,-7089139 -263718,-7089176 -263726,-7089190 -263776,-7089222 -263816,-7089234 -263867,-7089256 -263900,-7089256 -263933,-7089274 -263943,-7089272 -263956,-7089261 -264004,-7089265 -264015,-7089261 -264029,-7089254 -264038,-7089248 -264056,-7089247 -264077,-7089241 -264104,-7089244 -264118,-7089230 -264170,-7089218 -264193,-7089218 -264214,-7089213 -264233,-7089202 -264260,-7089236 -264250,-7089245 -264244,-7089257 -264240,-7089258 -264238,-7089261 -264241,-7089269 -264250,-7089277 -264260,-7089279 -264266,-7089284 -264271,-7089293 -264270,-7089323 -264264,-7089341 -264264,-7089352 -264273,-7089399 -264270,-7089411 -264269,-7089417 -264266,-7089425 -264249,-7089448 -264248,-7089485 -264256,-7089527 -264242,-7089542 -264214,-7089547 -264205,-7089550 -264196,-7089565 -264186,-7089603 -264141,-7089639 -264127,-7089652 -264118,-7089668 -264121,-7089693 -264137,-7089735 -264137,-7089810 -264108,-7089839 -264106,-7089851 -264111,-7089861 -264122,-7089864 -264164,-7089858 -264187,-7089872 -264177,-7089903 -264181,-7089937 -264188,-7090040 -264195,-7090070 -264199,-7090108 -264209,-7090128 -264208,-7090160 -264200,-7090170 -264195,-7090184 -264190,-7090214 -264207,-7090234 -264213,-7090270 -264226,-7090304 -264238,-7090308 -264237,-7090320 -264219,-7090334 -264218,-7090350 -264236,-7090387 -264247,-7090408 -264259,-7090422 -264262,-7090435 -264243,-7090450 -264250,-7090466 -264273,-7090491 -264292,-7090508 -264315,-7090506 -264326,-7090504 -264332,-7090503 -264338,-7090538 -264337,-7090552 -264327,-7090565 -264328,-7090579 -264335,-7090587 -264352,-7090596 -264362,-7090625 -264365,-7090647 -264361,-7090652 -264354,-7090666 -264343,-7090684 -264344,-7090713 -264350,-7090733 -264354,-7090759 -264357,-7090787 -264341,-7090858 -264333,-7090894 -264333,-7090916 -264347,-7090957 -264347,-7090999 -264326,-7091041 -264327,-7091046 -264376,-7091086 -264387,-7091092 -264400,-7091094 -264411,-7091104 -264440,-7091179 -264461,-7091192 -264469,-7091218 -264465,-7091235 -264475,-7091253 -264497,-7091261 -264524,-7091311 -264535,-7091310 -264565,-7091373 -264566,-7091391 -264561,-7091401 -264503,-7091453 -264495,-7091464 -264493,-7091497 -264494,-7091504 -264500,-7091518 -264507,-7091537 -264510,-7091593 -264506,-7091611 -264501,-7091620 -264485,-7091634 -264472,-7091665 -264452,-7091712 -264445,-7091768 -264432,-7091790 -264440,-7091854 -264460,-7091929 -264463,-7091965 -264457,-7091985 -264439,-7092002 -264427,-7092045 -264422,-7092084 -264417,-7092119 -264428,-7092119 -264455,-7092135 -264479,-7092189 -264495,-7092244 -264494,-7092305 -264505,-7092345 -264506,-7092384 -264513,-7092400 -264510,-7092416 -264518,-7092432 -264520,-7092441 -264515,-7092448 -264510,-7092456 -264511,-7092468 -264516,-7092470 -264538,-7092455 -264545,-7092456 -264561,-7092475 -264564,-7092483 -264559,-7092521 -264561,-7092556 -264537,-7092575 -264538,-7092591 -264548,-7092603 -264554,-7092616 -264554,-7092630 -264550,-7092667 -264526,-7092693 -264519,-7092703 -264515,-7092723 -264499,-7092728 -264485,-7092739 -264480,-7092771 -264478,-7092777 -264471,-7092783 -264441,-7092782 -264424,-7092786 -264401,-7092804 -264389,-7092819 -264383,-7092838 -264381,-7092850 -264379,-7092857 -264382,-7092883 -264381,-7092884 -264367,-7092897 -264372,-7092908 -264362,-7092949 -264361,-7092951 -264344,-7092968 -264340,-7092975 -264359,-7092985 -264368,-7092991 -264367,-7093035 -264384,-7093053 -264406,-7093069 -264422,-7093068 -264433,-7093074 -264440,-7093095 -264445,-7093102 -264455,-7093104 -264460,-7093097 -264464,-7093089 -264506,-7093119 -264491,-7093142 -264482,-7093172 -264485,-7093179 -264495,-7093184 -264506,-7093208 -264513,-7093225 -264536,-7093232 -264540,-7093238 -264540,-7093247 -264534,-7093260 -264533,-7093287 -264542,-7093294 -264558,-7093303 -264575,-7093335 -264576,-7093356 -264579,-7093362 -264594,-7093382 -264591,-7093421 -264598,-7093423 -264612,-7093433 -264587,-7093465 -264594,-7093492 -264595,-7093502 -264571,-7093516 -264552,-7093530 -264531,-7093531 -264518,-7093538 -264507,-7093537 -264484,-7093544 -264470,-7093544 -264454,-7093550 -264436,-7093559 -264415,-7093564 -264405,-7093559 -264377,-7093555 -264333,-7093576 -264325,-7093588 -264281,-7093588 -264265,-7093599 -264252,-7093605 -264242,-7093607 -264205,-7093612 -264196,-7093629 -264195,-7093639 -264163,-7093638 -264152,-7093641 -264155,-7093660 -264134,-7093667 -264122,-7093682 -264108,-7093694 -264100,-7093694 -264097,-7093692 -264083,-7093691 -264070,-7093704 -264059,-7093717 -264042,-7093720 -264033,-7093728 -264007,-7093745 -263983,-7093745 -263974,-7093751 -263960,-7093768 -263949,-7093771 -263928,-7093783 -263930,-7093788 -263914,-7093793 -263903,-7093794 -263895,-7093812 -263884,-7093820 -263808,-7093862 -263792,-7093867 -263748,-7093903 -263750,-7093905 -263734,-7093918 -263712,-7093920 -263685,-7093942 -263675,-7093961 -263664,-7093987 -263657,-7094002 -263648,-7094022 -263647,-7094023 -263644,-7094030 -263650,-7094073 -263657,-7094090 -263707,-7094144 -263714,-7094144 -263726,-7094157 -263737,-7094174 -263738,-7094208 -263741,-7094221 -263766,-7094277 -263750,-7094285 -263735,-7094305 -263721,-7094316 -263714,-7094319 -263708,-7094319 -263704,-7094323 -263692,-7094342 -263681,-7094350 -263667,-7094374 -263658,-7094383 -263661,-7094407 -263672,-7094419 -263676,-7094445 -263676,-7094456 -263669,-7094466 -263650,-7094485 -263647,-7094513 -263640,-7094525 -263627,-7094537 -263611,-7094545 -263596,-7094561 -263589,-7094579 -263590,-7094591 -263599,-7094596 -263601,-7094603 -263581,-7094657 -263570,-7094668 -263552,-7094669 -263541,-7094684 -263530,-7094696 -263537,-7094700 -263538,-7094705 -263545,-7094713 -263545,-7094723 -263538,-7094732 -263528,-7094732 -263521,-7094729 -263505,-7094746 -263491,-7094755 -263484,-7094768 -263481,-7094778 -263471,-7094787 -263474,-7094805 -263474,-7094820 -263458,-7094839 -263459,-7094866 -263451,-7094877 -263452,-7094884 -263458,-7094896 -263458,-7094910 -263456,-7094923 -263451,-7094939 -263444,-7094945 -263428,-7094969 -263425,-7094983 -263430,-7094990 -263429,-7095000 -263424,-7095011 -263420,-7095031 -263420,-7095048 -263427,-7095061 -263420,-7095077 -263419,-7095104 -263417,-7095116 -263417,-7095118 -263417,-7095122 -263378,-7095163 -263352,-7095182 -263357,-7095194 -263352,-7095207 -263331,-7095234 -263309,-7095251 -263302,-7095263 -263255,-7095280 -263244,-7095292 -263233,-7095312 -263227,-7095326 -263234,-7095332 -263234,-7095382 -263238,-7095403 -263249,-7095420 -263260,-7095441 -263279,-7095454 -263264,-7095511 -263273,-7095523 -263284,-7095549 -263286,-7095562 -263281,-7095572 -263257,-7095595 -263247,-7095612 -263219,-7095633 -263209,-7095644 -263194,-7095721 -263177,-7095782 -263174,-7095806 -263162,-7095822 -263150,-7095855 -263137,-7095878 -263123,-7095901 -263128,-7095950 -263129,-7095967 -263147,-7095971 -263152,-7095981 -263154,-7095999 -263163,-7096015 -263152,-7096061 -263150,-7096130 -263146,-7096156 -263126,-7096199 -263120,-7096210 -263119,-7096223 -263133,-7096255 -263177,-7096361 -263219,-7096459 -263098,-7096642 -263073,-7096672 -263047,-7096695 -263145,-7096839 -263201,-7096921 -263226,-7096958 -263273,-7097038 -263301,-7097080 -263391,-7097231 -263455,-7097333 -263525,-7097451 -263579,-7097538 -263667,-7097679 -263742,-7097641 -263762,-7097624 -263872,-7097670 -263963,-7097692 -264073,-7097726 -264115,-7097736 -264179,-7097749 -264272,-7097786 -264293,-7097799 -264309,-7097820 -264350,-7097888 -264386,-7097964 -264398,-7097960 -264408,-7097971 -264426,-7097979 -264529,-7098044 -264375,-7098146 -264423,-7098224 -264488,-7098182 -264497,-7098181 -264520,-7098240 -264541,-7098286 -264531,-7098294 -264602,-7098447 -264678,-7098612 -264717,-7098609 -264750,-7098601 -264784,-7098589 -264819,-7098589 -264838,-7098584 -264862,-7098571 -264877,-7098570 -264904,-7098668 -264740,-7098683 -264739,-7098695 -264718,-7098715 -264692,-7098724 -264585,-7098738 -264604,-7098786 -264634,-7098849 -264639,-7098874 -264535,-7098896 -264535,-7098905 -264578,-7098904 -264585,-7098902 -264603,-7098980 -264612,-7098978 -264622,-7098988 -264631,-7098992 -264661,-7099038 -264705,-7099106 -264720,-7099129 -264742,-7099115 -264744,-7099125 -264868,-7099248 -264948,-7099275 -265028,-7099320 -265079,-7099346 -265113,-7099373 -265177,-7099431 -265228,-7099472 -265262,-7099497 -265325,-7099555 -265258,-7099656 -265271,-7099670 -265176,-7099773 -265071,-7099892 -264904,-7099835 -264882,-7099841 -264861,-7099831 -264845,-7099827 -264833,-7099836 -264841,-7099861 -264858,-7099984 -264864,-7100030 -264868,-7100107 -264870,-7100159 -264863,-7100204 -264861,-7100259 -264859,-7100285 -264854,-7100340 -264848,-7100389 -264840,-7100407 -264834,-7100428 -264831,-7100487 -264843,-7100555 -264797,-7100554 -264735,-7100558 -264682,-7100566 -264653,-7100566 -264646,-7100569 -264566,-7100606 -264527,-7100732 -264261,-7100743 -264113,-7100748 -264086,-7100750 -263929,-7100770 -263940,-7100724 -263941,-7100686 -263942,-7100676 -263932,-7100674 -263938,-7100652 -263927,-7100655 -263927,-7100658 -263918,-7100665 -263912,-7100667 -263882,-7100672 -263875,-7100674 -263863,-7100679 -263865,-7100685 -263878,-7100689 -263883,-7100695 -263887,-7100711 -263885,-7100726 -263881,-7100737 -263874,-7100744 -263856,-7100748 -263842,-7100754 -263838,-7100770 -263832,-7100785 -263838,-7100810 -263841,-7100834 -263841,-7100846 -263831,-7100849 -263813,-7100864 -263808,-7100876 -263810,-7100888 -263818,-7100908 -263845,-7100949 -263853,-7100986 -263851,-7101004 -263842,-7101028 -263819,-7101091 -263808,-7101098 -263806,-7101106 -263797,-7101119 -263795,-7101138 -263786,-7101166 -263760,-7101184 -263718,-7101251 -263714,-7101270 -263704,-7101293 -263675,-7101328 -263666,-7101345 -263666,-7101359 -263674,-7101435 -263670,-7101454 -263660,-7101485 -263652,-7101535 -263649,-7101560 -263642,-7101590 -263641,-7101602 -263641,-7101625 -263646,-7101643 -263643,-7101683 -263691,-7101701 -263715,-7101731 -263705,-7101749 -263703,-7101762 -263692,-7101781 -263694,-7101807 -263686,-7101814 -263689,-7101832 -263659,-7101897 -263693,-7101899 -263718,-7101899 -263827,-7101898 -263838,-7101909 -263835,-7101922 -263833,-7101941 -263845,-7101963 -263865,-7102005 -263876,-7102012 -263883,-7102047 -263905,-7102095 -263921,-7102106 -263924,-7102114 -263926,-7102122 -263926,-7102140 -263950,-7102240 -263984,-7102343 -264005,-7102371 -264021,-7102477 -264054,-7102501 -264058,-7102511 -264071,-7102552 -264069,-7102567 -264069,-7102579 -264074,-7102589 -264086,-7102604 -264095,-7102629 -264105,-7102650 -264106,-7102687 -264104,-7102699 -264099,-7102724 -264096,-7102736 -264067,-7102796 -264032,-7102852 -264023,-7102882 -263995,-7102885 -263994,-7102915 -263980,-7102951 -263965,-7102983 -263933,-7103069 -263914,-7103115 -263909,-7103126 -263903,-7103133 -263880,-7103154 -263804,-7103189 -263739,-7103226 -263722,-7103222 -263707,-7103205 -263698,-7103204 -263689,-7103204 -263674,-7103206 -263623,-7103214 -263573,-7103217 -263499,-7103219 -263492,-7103372 -263470,-7103462 -263457,-7103543 -263472,-7103555 -263490,-7103557 -263500,-7103640 -263501,-7103683 -263500,-7103698 -263499,-7103713 -263489,-7103743 -263485,-7103776 -263465,-7103872 -263441,-7104010 -263428,-7104097 -263417,-7104171 -263397,-7104269 -263366,-7104387 -263321,-7104528 -263297,-7104573 -263282,-7104602 -263210,-7104730 -263174,-7104813 -263114,-7104937 -263044,-7105070 -263030,-7105111 -263019,-7105161 -263007,-7105272 -263020,-7105310 -263040,-7105347 -263118,-7105544 -263148,-7105599 -263281,-7105840 -263392,-7106031 -263516,-7106270 -263522,-7106268 -263575,-7106366 -263637,-7106490 -263712,-7106649 -263768,-7106781 -263841,-7106975 -263909,-7107171 -263964,-7107355 -263614,-7107234 -263183,-7107078 -262947,-7106997 -262892,-7106978 -262849,-7106967 -262220,-7106872 -262211,-7106515" stroke="#006747" stroke-width="45" /></ns0:svg>    <rect x="20" y="50"  width="250" height="25"  rx="0"  fill="#006747" fill-opacity="0.8" />    <text x="145" y="70" text-anchor="middle" font-family="Frutiger" font-weight="bold" font-size="30" fill="white">Bury</text>    <rect x="35" y="195" width="220" height="160" rx="15" fill="#78BE20"/>    <g font-family="Frutiger" font-size="15" fill="#231F20">        <g> <text x="45" y="218">Self-harm</text> <text x="245" y="218" text-anchor="end">38</text> </g>        <g> <text x="45" y="243">SEN</text> <text x="245" y="243" text-anchor="end">38</text> </g>        <g> <text x="45" y="268">Difficulties</text> <text x="245" y="268" text-anchor="end">65</text> </g>        <g> <text x="45" y="293">Child Carer</text> <text x="245" y="293" text-anchor="end">7</text> </g>        <g> <text x="45" y="318">Drinkers</text> <text x="245" y="318" text-anchor="end">54</text> </g>        <g> <text x="45" y="343">Safeguarding £</text> <text x="245" y="343" text-anchor="end">18</text> </g>    </g></svg>