<?xml version="1.0" standalone="no"?>
<!DOCTYPE svg PUBLIC "-//W3C//DTD SVG 1.1//EN"
"http://www.w3.org/Graphics/SVG/1.1/DTD/svg11.dtd">
<svg height="1800" version="1.1" width="1800" xmlns="http://www.w3.org/2000/svg"><defs><style type="text/css">@font-face {font-family: 'Frutiger';font-style: normal;font-weight: normal;src: local('Frutiger'), url('../fonts/Frutiger.woff') format('woff');}@font-face {font-family: 'Frutiger Bold';font-style: normal;font-weight: normal;src: local('Frutiger Bold'), url('../fonts/Frutiger_bold.woff') format('woff');}        </style>    </defs>    <rect x="20" y="20"  width="250" height="350" rx="15" fill="#AE2573" />    <rect x="35" y="35"  width="220" height="145" rx="15" fill="#330072" /><ns0:svg xmlns:ns0="http://www.w3.org/2000/svg" height="115" version="1.1" viewBox="-254096 -7110861 28472 29396" width="220" x="35" y="50"><ns0:polygon fill="white" points=" -237360,-7110544 -237262,-7110478 -237234,-7110463 -237208,-7110447 -237165,-7110415 -237131,-7110397 -237114,-7110384 -237095,-7110366 -237084,-7110356 -237016,-7110280 -236939,-7110200 -236880,-7110119 -236852,-7110076 -236846,-7110065 -236841,-7110044 -236813,-7109964 -236807,-7109917 -236784,-7109807 -236767,-7109735 -236763,-7109708 -236758,-7109649 -236753,-7109622 -236752,-7109594 -236748,-7109561 -236747,-7109529 -236750,-7109494 -236756,-7109468 -236767,-7109311 -236745,-7109197 -236734,-7109147 -236726,-7109109 -236694,-7108969 -236690,-7108959 -236687,-7108955 -236683,-7108952 -236550,-7108873 -236596,-7108813 -236444,-7108684 -236200,-7108479 -235784,-7108138 -235558,-7108135 -235394,-7108122 -235341,-7108117 -235280,-7108121 -235064,-7108163 -234707,-7108228 -234592,-7108247 -234222,-7108287 -233441,-7108397 -233377,-7108251 -233363,-7108223 -233358,-7108216 -233346,-7108203 -233340,-7108198 -233305,-7108171 -233290,-7108165 -233266,-7108142 -233232,-7108128 -233219,-7108120 -233197,-7108106 -233146,-7108055 -233143,-7108048 -233098,-7108004 -233063,-7107983 -233054,-7107974 -233043,-7107965 -233036,-7107962 -233008,-7107952 -232994,-7107949 -232987,-7107945 -232981,-7107934 -232959,-7107942 -232919,-7107947 -232904,-7107950 -232899,-7107952 -232888,-7107959 -232868,-7107978 -232855,-7107987 -232858,-7108010 -232834,-7108019 -232803,-7108028 -232799,-7108040 -232788,-7108043 -232755,-7108059 -232732,-7108066 -232689,-7108086 -232677,-7108086 -232657,-7108076 -232651,-7108058 -232645,-7108049 -232633,-7108043 -232623,-7108041 -232598,-7108042 -232581,-7108048 -232569,-7108049 -232532,-7108042 -232527,-7108040 -232519,-7108036 -232516,-7108034 -232510,-7108034 -232487,-7108069 -232460,-7108079 -232448,-7108080 -232439,-7108079 -232435,-7108077 -232428,-7108065 -232395,-7108047 -232372,-7108049 -232353,-7108052 -232337,-7108056 -232279,-7108079 -232272,-7108083 -232266,-7108089 -232261,-7108096 -232241,-7108116 -232224,-7108141 -232223,-7108174 -232232,-7108218 -232228,-7108250 -232220,-7108267 -232200,-7108274 -232192,-7108276 -232178,-7108276 -232171,-7108278 -232165,-7108283 -232144,-7108292 -232134,-7108299 -232115,-7108315 -232063,-7108406 -232058,-7108430 -232035,-7108456 -232033,-7108460 -232026,-7108484 -232001,-7108609 -232004,-7108669 -231982,-7108839 -231971,-7108955 -231964,-7109002 -231963,-7109018 -231963,-7109052 -231971,-7109117 -231975,-7109154 -231991,-7109292 -231996,-7109344 -231944,-7109371 -231918,-7109399 -231897,-7109421 -231886,-7109426 -231867,-7109430 -231825,-7109455 -231819,-7109457 -231804,-7109460 -231771,-7109464 -231756,-7109461 -231686,-7109473 -231645,-7109474 -231589,-7109472 -231574,-7109470 -231533,-7109461 -231519,-7109456 -231514,-7109453 -231511,-7109450 -231507,-7109446 -231504,-7109439 -231503,-7109419 -231499,-7109410 -231495,-7109405 -231475,-7109390 -231464,-7109387 -231454,-7109388 -231417,-7109383 -231406,-7109373 -231376,-7109343 -231341,-7109332 -231323,-7109325 -231269,-7109302 -231232,-7109300 -231229,-7109301 -231215,-7109304 -231207,-7109303 -231196,-7109299 -231184,-7109291 -231176,-7109288 -231162,-7109285 -231135,-7109284 -231129,-7109285 -231118,-7109288 -231096,-7109292 -231077,-7109297 -231074,-7109297 -231070,-7109297 -231066,-7109294 -231062,-7109290 -231060,-7109284 -231047,-7109270 -231041,-7109268 -231037,-7109268 -231028,-7109273 -231005,-7109296 -230997,-7109301 -230989,-7109305 -230940,-7109312 -230930,-7109313 -230917,-7109311 -230896,-7109300 -230883,-7109298 -230877,-7109298 -230871,-7109301 -230864,-7109308 -230861,-7109310 -230854,-7109312 -230829,-7109310 -230809,-7109315 -230803,-7109318 -230796,-7109326 -230790,-7109335 -230781,-7109350 -230706,-7109373 -230701,-7109378 -230700,-7109381 -230695,-7109408 -230693,-7109412 -230690,-7109418 -230685,-7109423 -230681,-7109426 -230671,-7109429 -230636,-7109440 -230631,-7109444 -230624,-7109458 -230623,-7109462 -230623,-7109477 -230612,-7109504 -230606,-7109531 -230599,-7109542 -230570,-7109570 -230562,-7109572 -230557,-7109572 -230541,-7109571 -230528,-7109572 -230521,-7109573 -230516,-7109576 -230511,-7109580 -230505,-7109586 -230494,-7109588 -230486,-7109603 -230482,-7109608 -230471,-7109619 -230441,-7109641 -230415,-7109654 -230411,-7109658 -230407,-7109664 -230393,-7109691 -230391,-7109694 -230381,-7109700 -230366,-7109716 -230360,-7109720 -230343,-7109728 -230311,-7109747 -230294,-7109755 -230247,-7109774 -230241,-7109799 -230234,-7109806 -230224,-7109811 -230204,-7109816 -230181,-7109835 -230160,-7109847 -230127,-7109873 -230114,-7109880 -230060,-7109902 -230042,-7109912 -230015,-7109936 -230001,-7109940 -229984,-7109957 -229976,-7109964 -229961,-7109974 -229934,-7109987 -229927,-7109992 -229918,-7110005 -229897,-7110025 -229881,-7110071 -229846,-7110095 -229811,-7110119 -229723,-7110167 -229599,-7110226 -229566,-7110249 -229548,-7110267 -229542,-7110275 -229526,-7110307 -229525,-7110312 -229523,-7110315 -229520,-7110318 -229517,-7110319 -229511,-7110319 -229456,-7110303 -229412,-7110297 -229391,-7110290 -229382,-7110289 -229375,-7110292 -229365,-7110301 -229360,-7110305 -229355,-7110307 -229348,-7110308 -229341,-7110308 -229334,-7110307 -229314,-7110301 -229312,-7110301 -229300,-7110307 -229278,-7110328 -229272,-7110331 -229255,-7110334 -229233,-7110338 -229066,-7110358 -229028,-7110366 -229012,-7110373 -229007,-7110373 -229002,-7110373 -228995,-7110369 -228991,-7110363 -228982,-7110339 -228979,-7110336 -228973,-7110335 -228970,-7110336 -228964,-7110340 -228959,-7110345 -228952,-7110357 -228950,-7110360 -228932,-7110350 -228928,-7110349 -228924,-7110349 -228917,-7110351 -228910,-7110354 -228904,-7110360 -228897,-7110373 -228822,-7110284 -228728,-7110311 -228674,-7110325 -228634,-7110339 -228586,-7110361 -228528,-7110386 -228343,-7110477 -228309,-7110398 -228211,-7110142 -228082,-7109826 -228225,-7109734 -228286,-7109692 -228348,-7109648 -228409,-7109601 -228435,-7109579 -228451,-7109564 -228474,-7109540 -228502,-7109508 -228527,-7109479 -228547,-7109453 -228594,-7109387 -228625,-7109336 -228677,-7109233 -228692,-7109201 -228701,-7109176 -228706,-7109157 -228708,-7109150 -228712,-7109120 -228725,-7109073 -228737,-7109018 -228745,-7108968 -228748,-7108947 -228748,-7108911 -228745,-7108870 -228743,-7108819 -228724,-7108656 -228720,-7108620 -228707,-7108552 -228693,-7108474 -228647,-7108269 -228631,-7108213 -228622,-7108179 -228617,-7108164 -228592,-7108114 -228576,-7108075 -228555,-7108032 -228529,-7107963 -228514,-7107937 -228499,-7107903 -228476,-7107858 -228462,-7107828 -228450,-7107800 -228333,-7107753 -228261,-7107736 -228229,-7107725 -228218,-7107719 -228205,-7107708 -228168,-7107681 -228162,-7107675 -228148,-7107657 -228090,-7107554 -228059,-7107496 -228040,-7107470 -227929,-7107344 -227904,-7107319 -227859,-7107274 -227681,-7107103 -227629,-7107052 -227599,-7107031 -227587,-7107023 -227555,-7107006 -227238,-7106804 -227192,-7106773 -227086,-7106702 -226969,-7106621 -226895,-7106561 -226793,-7106488 -226789,-7106484 -226768,-7106465 -226805,-7106386 -226773,-7106338 -226747,-7106306 -226704,-7106229 -226684,-7106173 -226661,-7106082 -226651,-7106035 -226621,-7105929 -226614,-7105899 -226606,-7105857 -226600,-7105812 -226598,-7105775 -226599,-7105748 -226612,-7105578 -226624,-7105512 -226644,-7105430 -226711,-7105145 -226740,-7105092 -226854,-7104864 -226925,-7104728 -226985,-7104617 -227014,-7104570 -227026,-7104553 -227048,-7104511 -227047,-7104489 -227040,-7104346 -227150,-7104319 -227133,-7104244 -227056,-7103956 -227118,-7103894 -227170,-7103842 -227160,-7103749 -227158,-7103719 -227174,-7103651 -227193,-7103587 -227204,-7103547 -227244,-7103384 -227267,-7103286 -227268,-7103277 -227271,-7103249 -227274,-7103210 -227275,-7103176 -227274,-7103134 -227277,-7103028 -227274,-7102932 -227273,-7102828 -227267,-7102736 -227258,-7102665 -227239,-7102529 -227218,-7102428 -226847,-7102033 -226749,-7101930 -226707,-7101896 -226579,-7101845 -226516,-7101823 -226495,-7101814 -226475,-7101805 -226390,-7101764 -226307,-7101727 -226224,-7101682 -226059,-7101596 -225978,-7101550 -225952,-7101462 -225924,-7101374 -225901,-7101290 -225870,-7101184 -225882,-7101067 -225902,-7100838 -225911,-7100755 -225924,-7100680 -225934,-7100631 -225940,-7100598 -225950,-7100548 -225959,-7100517 -225965,-7100497 -226005,-7100398 -226064,-7100274 -226077,-7100249 -226084,-7100232 -226088,-7100215 -226053,-7100122 -225985,-7099974 -225929,-7099867 -225768,-7099593 -225686,-7099438 -225650,-7099362 -225629,-7099311 -225624,-7099296 -225638,-7099271 -225677,-7099227 -225691,-7099209 -225830,-7099003 -225840,-7098980 -225873,-7098906 -225908,-7098834 -225934,-7098759 -225950,-7098724 -225958,-7098697 -225966,-7098655 -225977,-7098612 -225977,-7098437 -225976,-7098228 -225979,-7098162 -225980,-7098150 -225996,-7098077 -226011,-7098033 -226028,-7098002 -226046,-7097976 -226081,-7097941 -226115,-7097905 -226120,-7097899 -226158,-7097859 -226204,-7097779 -226223,-7097744 -226234,-7097719 -226251,-7097676 -226273,-7097600 -226283,-7097552 -226294,-7097483 -226301,-7097379 -226301,-7097283 -226291,-7097114 -226292,-7097043 -226290,-7096994 -226284,-7096963 -226271,-7096942 -226216,-7096876 -226195,-7096847 -226160,-7096809 -226147,-7096787 -226130,-7096746 -226124,-7096713 -226128,-7096680 -226136,-7096655 -226164,-7096572 -226199,-7096465 -226268,-7096282 -226305,-7096165 -226365,-7095998 -226441,-7095790 -226473,-7095700 -226516,-7095592 -226570,-7095622 -226595,-7095634 -226612,-7095600 -226633,-7095558 -226639,-7095560 -226712,-7095514 -226593,-7095394 -226627,-7095312 -226662,-7095301 -226760,-7095242 -226848,-7095191 -226869,-7095179 -226905,-7095153 -226920,-7095136 -226965,-7095108 -226951,-7095089 -227044,-7095032 -227249,-7094908 -227350,-7094843 -227560,-7094830 -227653,-7094809 -227769,-7094785 -227848,-7094766 -227907,-7094748 -227946,-7094737 -228010,-7094727 -228041,-7094719 -228126,-7094688 -228187,-7094659 -228219,-7094652 -228274,-7094621 -228324,-7094595 -228382,-7094571 -228400,-7094570 -228427,-7094559 -228493,-7094515 -228553,-7094490 -228561,-7094501 -228638,-7094459 -228667,-7094440 -228760,-7094375 -228775,-7094356 -228818,-7094292 -228883,-7094292 -228917,-7094286 -228970,-7094274 -228957,-7094219 -228867,-7094229 -228865,-7094191 -228859,-7094120 -228863,-7094093 -228857,-7094077 -228851,-7094060 -228831,-7094025 -228816,-7094001 -228797,-7093954 -228781,-7093892 -228775,-7093853 -228778,-7093808 -228772,-7093750 -228776,-7093748 -228804,-7093731 -228863,-7093689 -228984,-7093602 -229111,-7093511 -229184,-7093459 -229305,-7093352 -229559,-7093351 -229906,-7093342 -230132,-7093338 -230126,-7093416 -230153,-7093505 -230173,-7093550 -230184,-7093566 -230205,-7093590 -230217,-7093606 -230242,-7093620 -230290,-7093677 -230326,-7093723 -230367,-7093746 -230400,-7093763 -230435,-7093773 -230418,-7093822 -230623,-7093827 -230871,-7093833 -231156,-7093840 -231167,-7093849 -231200,-7093850 -231207,-7093858 -231251,-7093859 -231254,-7093865 -231270,-7093862 -231291,-7093857 -231313,-7093866 -231344,-7093865 -231378,-7093873 -231411,-7093873 -231414,-7093869 -231442,-7093874 -231448,-7093883 -231461,-7093881 -231476,-7093870 -231554,-7093870 -231574,-7093872 -231618,-7093866 -231629,-7093871 -231650,-7093868 -231663,-7093878 -231714,-7093868 -231733,-7093858 -231740,-7093849 -231756,-7093840 -231782,-7093844 -231805,-7093817 -231830,-7093795 -231838,-7093772 -231851,-7093754 -231868,-7093740 -231891,-7093732 -231903,-7093722 -231916,-7093722 -231924,-7093713 -231925,-7093719 -231952,-7093719 -231982,-7093715 -232094,-7093829 -232097,-7093837 -232120,-7093851 -232138,-7093852 -232142,-7093866 -232155,-7093882 -232151,-7093901 -232154,-7093910 -232189,-7093909 -232210,-7093916 -232217,-7093930 -232226,-7093932 -232267,-7093930 -232282,-7093947 -232341,-7093956 -232339,-7093971 -232347,-7093991 -232370,-7093996 -232392,-7094006 -232406,-7094017 -232428,-7094044 -232443,-7094094 -232460,-7094139 -232555,-7094090 -232559,-7094108 -232565,-7094118 -232570,-7094142 -232571,-7094165 -232579,-7094185 -232602,-7094209 -232608,-7094227 -232619,-7094240 -232641,-7094251 -232667,-7094260 -232685,-7094267 -232726,-7094267 -232737,-7094274 -232752,-7094271 -232764,-7094262 -232785,-7094257 -232793,-7094249 -232787,-7094213 -232801,-7094204 -232931,-7094135 -232958,-7094189 -233022,-7094154 -233138,-7094079 -233270,-7094072 -233338,-7094067 -233406,-7094049 -233465,-7094038 -233510,-7094027 -233550,-7094078 -233551,-7094078 -233575,-7094108 -233601,-7094138 -233618,-7094152 -233648,-7094172 -233690,-7094202 -233703,-7094217 -233719,-7094259 -233728,-7094266 -233729,-7094275 -233742,-7094295 -233756,-7094341 -233822,-7094327 -233842,-7094320 -233891,-7094293 -233931,-7094268 -233946,-7094266 -234051,-7094272 -234106,-7094271 -234151,-7094270 -234190,-7094278 -234214,-7094284 -234242,-7094298 -234271,-7094313 -234286,-7094318 -234313,-7094316 -234343,-7094311 -234372,-7094313 -234395,-7094319 -234408,-7094328 -234419,-7094339 -234441,-7094374 -234458,-7094396 -234482,-7094427 -234514,-7094458 -234527,-7094473 -234533,-7094484 -234544,-7094511 -234563,-7094575 -234587,-7094645 -234596,-7094643 -234642,-7094632 -234730,-7094580 -234780,-7094631 -234783,-7094640 -234855,-7094668 -234955,-7094707 -234967,-7094695 -235002,-7094662 -235080,-7094591 -235097,-7094584 -235170,-7094554 -235121,-7094495 -235113,-7094449 -235102,-7094354 -235080,-7094221 -235094,-7094122 -235113,-7093995 -235137,-7093834 -235148,-7093744 -235152,-7093692 -235176,-7093502 -235186,-7093406 -235278,-7093401 -235405,-7093391 -235491,-7093388 -235491,-7093374 -235555,-7093372 -235555,-7093408 -235585,-7093400 -235621,-7093395 -235749,-7093398 -235769,-7093395 -235814,-7093378 -235816,-7093370 -235826,-7093367 -235827,-7093366 -235836,-7093342 -235847,-7093331 -235848,-7093330 -235848,-7093330 -235856,-7093326 -235878,-7093325 -235884,-7093313 -235898,-7093305 -235902,-7093301 -235903,-7093300 -235904,-7093298 -235961,-7093241 -236054,-7093139 -236059,-7093144 -236062,-7093146 -236103,-7093100 -236136,-7093073 -236184,-7093023 -236186,-7093026 -236285,-7092925 -236285,-7092927 -236350,-7092859 -236342,-7092852 -236335,-7092847 -236274,-7092798 -236277,-7092792 -236321,-7092709 -236325,-7092709 -236329,-7092709 -236333,-7092701 -236392,-7092730 -236395,-7092732 -236416,-7092732 -236424,-7092715 -236425,-7092713 -236439,-7092720 -236442,-7092722 -236479,-7092639 -236488,-7092618 -236533,-7092521 -236559,-7092462 -236613,-7092336 -236645,-7092265 -236647,-7092229 -237005,-7092029 -237290,-7091864 -237299,-7091873 -237332,-7091838 -237361,-7091824 -237808,-7091610 -237828,-7091605 -237858,-7091589 -237861,-7091591 -237866,-7091587 -237868,-7091591 -237880,-7091629 -237887,-7091625 -237903,-7091619 -238090,-7091633 -238132,-7091636 -238490,-7091670 -238975,-7091713 -239211,-7091656 -239666,-7091540 -240070,-7091440 -239607,-7090826 -239607,-7090791 -239590,-7090556 -239570,-7090310 -239590,-7090295 -239607,-7090277 -239614,-7090263 -239622,-7090232 -239629,-7090205 -239629,-7090178 -239624,-7090162 -239617,-7090138 -239616,-7090113 -239619,-7090067 -239622,-7090051 -239621,-7090026 -239613,-7089986 -239587,-7089952 -239574,-7089945 -239542,-7089931 -239518,-7089603 -239496,-7089329 -239468,-7088972 -239442,-7088624 -239440,-7088597 -239458,-7088588 -239593,-7088464 -239669,-7088402 -239734,-7088363 -239750,-7088351 -239812,-7088322 -239865,-7088296 -239905,-7088273 -239916,-7088267 -239966,-7088244 -240041,-7088212 -240096,-7088188 -240142,-7088169 -240166,-7088148 -240193,-7088112 -240202,-7088085 -240204,-7088065 -240239,-7088063 -240269,-7088073 -240305,-7088082 -240394,-7088114 -240407,-7088107 -240419,-7088104 -240597,-7088012 -240643,-7087987 -240740,-7087940 -240781,-7087921 -240811,-7087906 -240851,-7087879 -240874,-7087858 -240900,-7087828 -240919,-7087812 -240935,-7087788 -240965,-7087723 -240983,-7087704 -241010,-7087677 -241026,-7087635 -241065,-7087569 -241086,-7087527 -241106,-7087497 -241118,-7087487 -241172,-7087457 -241179,-7087456 -241221,-7087426 -241246,-7087404 -241295,-7087355 -241319,-7087336 -241357,-7087296 -241368,-7087271 -241376,-7087213 -241385,-7087173 -241407,-7087090 -241420,-7087043 -241430,-7087033 -241433,-7087030 -241436,-7087027 -241469,-7087035 -241490,-7087039 -241511,-7087043 -241531,-7087040 -241563,-7087031 -241579,-7087025 -241609,-7087021 -241622,-7087017 -241638,-7087007 -241647,-7086998 -241656,-7086976 -241670,-7086946 -241689,-7086930 -241691,-7086932 -241702,-7086938 -241706,-7086937 -241736,-7086928 -241767,-7086929 -241785,-7086930 -241785,-7086925 -241784,-7086920 -241792,-7086915 -241790,-7086849 -241788,-7086842 -241781,-7086819 -241781,-7086735 -241783,-7086642 -241789,-7086578 -241790,-7086552 -241788,-7086551 -241777,-7086541 -241775,-7086478 -241791,-7086478 -241792,-7086478 -241814,-7086449 -241810,-7086438 -241795,-7086392 -241792,-7086364 -241791,-7086346 -241792,-7086282 -241800,-7086268 -241800,-7086265 -241806,-7086220 -241805,-7086137 -241802,-7086068 -241809,-7086010 -241808,-7085929 -241811,-7085912 -241812,-7085909 -241803,-7085909 -241802,-7085890 -241814,-7085889 -241805,-7085738 -241788,-7085719 -241773,-7085695 -241757,-7085658 -241758,-7085649 -241759,-7085635 -241754,-7085636 -241573,-7085666 -241567,-7085663 -241556,-7085647 -241553,-7085556 -241539,-7085207 -241534,-7085014 -241518,-7084712 -241501,-7084708 -241500,-7084668 -241566,-7084514 -241601,-7084448 -241645,-7084364 -241643,-7084227 -241711,-7084227 -241785,-7084067 -241917,-7083805 -241951,-7083818 -241995,-7083727 -242045,-7083629 -242124,-7083474 -242140,-7083434 -242154,-7083385 -242169,-7083322 -242178,-7083255 -242180,-7083212 -242230,-7083211 -242231,-7083201 -242276,-7083160 -242323,-7083118 -242357,-7083072 -242374,-7083056 -242393,-7083041 -242440,-7083008 -242455,-7083016 -242504,-7082866 -242562,-7082691 -242587,-7082644 -242634,-7082558 -242656,-7082514 -242711,-7082437 -242791,-7082322 -242880,-7082193 -243061,-7081914 -243342,-7081470 -243345,-7081465 -243443,-7081527 -243619,-7081645 -243657,-7081667 -243722,-7081699 -244214,-7081947 -244225,-7081950 -244280,-7081958 -244330,-7081963 -244408,-7081972 -244413,-7081973 -244495,-7081977 -244563,-7081979 -244606,-7081974 -244634,-7081973 -244658,-7081972 -244721,-7081975 -244786,-7081978 -244832,-7081976 -244877,-7081969 -244967,-7081971 -244987,-7081980 -244994,-7081979 -245004,-7081979 -245002,-7081996 -245002,-7081999 -245007,-7082003 -245022,-7081996 -245025,-7081995 -245085,-7082029 -245121,-7082032 -245129,-7082034 -245137,-7082037 -245141,-7082040 -245148,-7082035 -245159,-7082036 -245162,-7082037 -245171,-7082045 -245178,-7082050 -245207,-7082058 -245240,-7082069 -245247,-7082077 -245252,-7082082 -245279,-7082095 -245287,-7082096 -245294,-7082096 -245295,-7082099 -245296,-7082103 -245326,-7082116 -245344,-7082115 -245378,-7082113 -245404,-7082109 -245437,-7082133 -245443,-7082149 -245444,-7082152 -245461,-7082168 -245482,-7082182 -245512,-7082193 -245514,-7082194 -245531,-7082213 -245549,-7082219 -245551,-7082239 -245552,-7082241 -245553,-7082242 -245556,-7082246 -245573,-7082269 -245591,-7082306 -245597,-7082317 -245601,-7082322 -245648,-7082376 -245651,-7082389 -245653,-7082404 -245653,-7082405 -245656,-7082430 -245671,-7082458 -245669,-7082479 -245668,-7082533 -245667,-7082583 -245678,-7082628 -245676,-7082696 -245674,-7082728 -245661,-7082742 -245645,-7082756 -245632,-7082779 -245614,-7082797 -245573,-7082833 -245530,-7082887 -245531,-7082920 -245531,-7082933 -245553,-7082966 -245586,-7083016 -245661,-7083119 -245674,-7083146 -245695,-7083176 -245727,-7083216 -245742,-7083230 -245761,-7083234 -245798,-7083235 -245819,-7083230 -245831,-7083223 -245844,-7083221 -245853,-7083223 -245860,-7083231 -245875,-7083264 -245892,-7083282 -245892,-7083300 -245907,-7083332 -245932,-7083359 -245952,-7083403 -245984,-7083455 -246054,-7083497 -246067,-7083511 -246086,-7083549 -246108,-7083587 -246107,-7083635 -246118,-7083658 -246141,-7083682 -246178,-7083712 -246203,-7083752 -246233,-7083777 -246249,-7083796 -246263,-7083808 -246286,-7083817 -246306,-7083847 -246341,-7083885 -246346,-7083903 -246357,-7083918 -246365,-7083923 -246377,-7083922 -246390,-7083913 -246392,-7083891 -246441,-7083889 -246522,-7083920 -246567,-7083947 -246632,-7083930 -246650,-7083929 -246668,-7083928 -246718,-7083924 -246748,-7083933 -246789,-7083934 -246824,-7083943 -246849,-7083955 -246872,-7083967 -246864,-7084024 -246863,-7084093 -246868,-7084111 -246885,-7084163 -246911,-7084174 -246950,-7084196 -246959,-7084205 -246973,-7084231 -246987,-7084246 -246999,-7084248 -247030,-7084248 -247053,-7084242 -247069,-7084234 -247076,-7084223 -247080,-7084208 -247083,-7084189 -247086,-7084158 -247096,-7084130 -247107,-7084114 -247149,-7084078 -247216,-7084016 -247299,-7084018 -247329,-7084017 -247377,-7084001 -247401,-7083991 -247427,-7083975 -247461,-7083947 -247479,-7083937 -247524,-7083932 -247538,-7083928 -247584,-7083903 -247611,-7083892 -247633,-7083885 -247674,-7083884 -247710,-7083880 -247779,-7083865 -247817,-7083851 -247878,-7083831 -247917,-7083824 -247948,-7083820 -247963,-7083818 -247978,-7083815 -247988,-7083812 -247988,-7083812 -247993,-7083810 -247997,-7083808 -247998,-7083808 -247999,-7083807 -248019,-7083797 -248028,-7083788 -248035,-7083762 -248043,-7083741 -248062,-7083710 -248095,-7083663 -248115,-7083644 -248128,-7083640 -248143,-7083644 -248173,-7083660 -248191,-7083661 -248226,-7083645 -248283,-7083602 -248323,-7083582 -248356,-7083573 -248448,-7083563 -248618,-7083548 -248633,-7083545 -248644,-7083538 -248664,-7083509 -248669,-7083496 -248675,-7083477 -248680,-7083394 -248685,-7083377 -248702,-7083363 -248720,-7083364 -248766,-7083376 -248785,-7083375 -248817,-7083362 -248847,-7083339 -248860,-7083310 -248915,-7083316 -248964,-7083322 -248979,-7083322 -248995,-7083318 -249010,-7083311 -249047,-7083301 -249048,-7083408 -249021,-7083432 -248987,-7083469 -248976,-7083475 -248965,-7083487 -248954,-7083507 -248950,-7083529 -248954,-7083553 -248961,-7083565 -248967,-7083583 -248960,-7083612 -248958,-7083618 -248945,-7083642 -248928,-7083663 -248909,-7083684 -248862,-7083734 -248852,-7083732 -248842,-7083740 -248822,-7083753 -248808,-7083768 -248791,-7083788 -248766,-7083811 -248728,-7083838 -248752,-7083866 -248741,-7083889 -248712,-7084038 -248705,-7084093 -248706,-7084144 -248713,-7084189 -248735,-7084328 -248751,-7084432 -248763,-7084482 -248801,-7084624 -248822,-7084707 -248839,-7084773 -248841,-7084784 -248863,-7084859 -248870,-7084900 -248886,-7085055 -248893,-7085118 -248904,-7085225 -248912,-7085324 -248920,-7085409 -248939,-7085591 -248951,-7085631 -248964,-7085678 -248990,-7085774 -249028,-7085923 -249062,-7086046 -249067,-7086074 -249076,-7086075 -249097,-7086111 -249180,-7086228 -249236,-7086306 -249306,-7086405 -249371,-7086494 -249372,-7086495 -249445,-7086593 -249509,-7086677 -249547,-7086728 -249495,-7086763 -249433,-7086806 -249366,-7086851 -249308,-7086890 -249182,-7086973 -249060,-7087061 -248981,-7087117 -248970,-7087116 -248970,-7087120 -248972,-7087123 -248977,-7087135 -248983,-7087142 -249008,-7087152 -249017,-7087155 -249022,-7087152 -249024,-7087145 -249030,-7087144 -249038,-7087147 -249043,-7087152 -249049,-7087161 -249052,-7087168 -249055,-7087195 -249058,-7087220 -249069,-7087230 -249073,-7087235 -249104,-7087278 -249112,-7087285 -249124,-7087277 -249139,-7087269 -249150,-7087267 -249151,-7087271 -249151,-7087275 -249150,-7087284 -249155,-7087292 -249161,-7087295 -249171,-7087294 -249177,-7087296 -249182,-7087302 -249180,-7087313 -249185,-7087320 -249188,-7087336 -249208,-7087366 -249216,-7087386 -249224,-7087402 -249243,-7087420 -249250,-7087432 -249261,-7087439 -249270,-7087444 -249275,-7087441 -249277,-7087437 -249280,-7087429 -249285,-7087426 -249292,-7087426 -249294,-7087431 -249299,-7087444 -249312,-7087451 -249328,-7087456 -249352,-7087468 -249375,-7087476 -249411,-7087475 -249434,-7087481 -249452,-7087483 -249452,-7087493 -249453,-7087512 -249453,-7087528 -249451,-7087533 -249446,-7087540 -249446,-7087545 -249451,-7087555 -249460,-7087558 -249468,-7087558 -249503,-7087526 -249517,-7087511 -249526,-7087506 -249537,-7087507 -249545,-7087512 -249549,-7087524 -249553,-7087534 -249543,-7087551 -249543,-7087558 -249552,-7087556 -249560,-7087556 -249580,-7087558 -249613,-7087553 -249647,-7087551 -249671,-7087561 -249700,-7087589 -249721,-7087596 -249751,-7087613 -249777,-7087621 -249791,-7087636 -249797,-7087638 -249811,-7087644 -249826,-7087645 -249837,-7087639 -249844,-7087626 -249851,-7087613 -249859,-7087605 -249943,-7087584 -249967,-7087590 -249985,-7087583 -250014,-7087583 -250027,-7087581 -250041,-7087566 -250049,-7087564 -250078,-7087557 -250108,-7087584 -250115,-7087600 -250117,-7087614 -250139,-7087612 -250154,-7087614 -250170,-7087658 -250170,-7087697 -250165,-7087709 -250177,-7087716 -250204,-7087725 -250212,-7087738 -250224,-7087792 -250225,-7087820 -250256,-7087859 -250260,-7087892 -250165,-7087894 -250153,-7087904 -250151,-7087911 -250150,-7087922 -250139,-7087942 -250118,-7087971 -250094,-7088011 -250074,-7088061 -250064,-7088111 -250057,-7088127 -250055,-7088141 -250049,-7088146 -250045,-7088158 -250048,-7088182 -250043,-7088207 -250027,-7088248 -250018,-7088268 -250008,-7088289 -249941,-7088385 -249895,-7088448 -249854,-7088492 -249843,-7088526 -249834,-7088546 -249722,-7088723 -249970,-7088874 -249949,-7089017 -249926,-7089185 -249915,-7089186 -249803,-7089166 -249767,-7089297 -249729,-7089425 -249723,-7089455 -249798,-7089525 -249840,-7089566 -249939,-7089663 -250100,-7089826 -250143,-7089885 -250187,-7089951 -250264,-7090072 -250363,-7090204 -250415,-7090271 -250482,-7090349 -250504,-7090373 -250545,-7090453 -250549,-7090475 -250552,-7090515 -250544,-7090717 -250662,-7090826 -250766,-7090924 -250893,-7091083 -250968,-7091172 -250981,-7091198 -250995,-7091246 -251000,-7091302 -250985,-7091401 -250976,-7091456 -250978,-7091473 -250990,-7091495 -251038,-7091561 -251121,-7091650 -251161,-7091688 -251300,-7091797 -251379,-7091855 -251450,-7091931 -251497,-7091999 -251531,-7092001 -251551,-7091986 -251581,-7091969 -251616,-7091941 -251665,-7091926 -251690,-7091905 -251700,-7091901 -251726,-7091909 -251763,-7091908 -251772,-7091909 -251782,-7091917 -251830,-7091929 -251856,-7091923 -251910,-7091947 -251934,-7091952 -251954,-7091960 -251975,-7091972 -252020,-7092029 -252035,-7092039 -252116,-7092068 -252145,-7092077 -252166,-7092075 -252193,-7092061 -252274,-7091983 -252284,-7091980 -252295,-7091972 -252311,-7091940 -252349,-7091884 -252368,-7091869 -252388,-7091861 -252402,-7091858 -252429,-7091845 -252437,-7091813 -252448,-7091776 -252471,-7091701 -252465,-7091599 -252465,-7091506 -252455,-7091462 -252449,-7091441 -252468,-7091400 -252466,-7091343 -252485,-7091318 -252486,-7091263 -252490,-7091243 -252516,-7091192 -252517,-7091174 -252526,-7091159 -252594,-7091074 -252616,-7091070 -252712,-7091040 -252783,-7091018 -252812,-7091006 -252890,-7090941 -252931,-7090904 -252938,-7090903 -252953,-7090904 -253021,-7090890 -253048,-7090889 -253066,-7090882 -253095,-7090880 -253128,-7090900 -253163,-7090912 -253189,-7090910 -253222,-7090921 -253273,-7090934 -253307,-7090950 -253329,-7090960 -253343,-7090970 -253362,-7090967 -253380,-7090983 -253405,-7090983 -253525,-7091024 -253545,-7091033 -253552,-7091045 -253548,-7091118 -253541,-7091145 -253540,-7091162 -253544,-7091178 -253594,-7091225 -253609,-7091236 -253634,-7091258 -253656,-7091280 -253668,-7091296 -253669,-7091312 -253673,-7091367 -253679,-7091383 -253691,-7091402 -253709,-7091409 -253735,-7091405 -253773,-7091393 -253798,-7091392 -253832,-7091398 -253852,-7091404 -253862,-7091408 -253886,-7091450 -253901,-7091482 -253900,-7091489 -253884,-7091500 -253881,-7091512 -253888,-7091523 -253901,-7091529 -253928,-7091537 -253941,-7091535 -253949,-7091532 -253968,-7091525 -253968,-7091525 -253975,-7091549 -254003,-7091601 -254031,-7091641 -254058,-7091702 -254072,-7091740 -254080,-7091784 -254082,-7091822 -254077,-7091987 -254082,-7092032 -254088,-7092086 -254094,-7092155 -254096,-7092200 -254095,-7092213 -254091,-7092228 -254079,-7092271 -254062,-7092302 -254045,-7092315 -254034,-7092320 -254014,-7092313 -253979,-7092292 -253952,-7092268 -253926,-7092252 -253902,-7092230 -253862,-7092187 -253850,-7092168 -253841,-7092142 -253821,-7092108 -253795,-7092090 -253712,-7092057 -253676,-7092040 -253650,-7092035 -253624,-7092043 -253611,-7092054 -253602,-7092071 -253597,-7092080 -253591,-7092108 -253584,-7092133 -253580,-7092166 -253580,-7092208 -253580,-7092225 -253587,-7092287 -253591,-7092374 -253592,-7092385 -253595,-7092406 -253628,-7092479 -253666,-7092573 -253674,-7092603 -253675,-7092612 -253672,-7092652 -253669,-7092681 -253647,-7092793 -253633,-7092832 -253597,-7092897 -253561,-7092959 -253546,-7092971 -253511,-7093044 -253492,-7093094 -253465,-7093136 -253452,-7093157 -253434,-7093170 -253405,-7093186 -253376,-7093187 -253330,-7093180 -253303,-7093175 -253277,-7093157 -253249,-7093137 -253163,-7093088 -253116,-7093051 -253034,-7093008 -252943,-7092944 -252916,-7092931 -252866,-7092887 -252817,-7092843 -252795,-7092808 -252765,-7092760 -252746,-7092738 -252733,-7092732 -252710,-7092729 -252693,-7092737 -252673,-7092754 -252638,-7092807 -252628,-7092831 -252624,-7092848 -252621,-7092862 -252619,-7092885 -252619,-7092901 -252620,-7092918 -252622,-7092937 -252626,-7092955 -252631,-7092969 -252647,-7093011 -252668,-7093050 -252681,-7093077 -252686,-7093112 -252703,-7093155 -252705,-7093186 -252705,-7093224 -252704,-7093242 -252692,-7093254 -252671,-7093263 -252642,-7093267 -252607,-7093261 -252574,-7093252 -252504,-7093209 -252464,-7093188 -252407,-7093168 -252359,-7093152 -252324,-7093149 -252293,-7093150 -252282,-7093146 -252238,-7093153 -252212,-7093171 -252195,-7093189 -252177,-7093224 -252157,-7093268 -252143,-7093311 -252137,-7093323 -252134,-7093329 -252124,-7093335 -252097,-7093344 -252068,-7093350 -252025,-7093358 -251981,-7093361 -251912,-7093361 -251855,-7093360 -251843,-7093359 -251820,-7093357 -251777,-7093350 -251707,-7093336 -251627,-7093321 -251597,-7093316 -251576,-7093310 -251559,-7093311 -251551,-7093310 -251544,-7093308 -251526,-7093300 -251516,-7093297 -251507,-7093295 -251495,-7093295 -251482,-7093308 -251456,-7093394 -251432,-7093468 -251414,-7093526 -251401,-7093583 -251397,-7093636 -251392,-7093724 -251387,-7093828 -251317,-7093898 -251244,-7093981 -251172,-7094074 -251129,-7094159 -251104,-7094203 -251086,-7094223 -251055,-7094242 -251025,-7094262 -250966,-7094273 -250933,-7094288 -250892,-7094324 -250787,-7094381 -250755,-7094404 -250685,-7094458 -250660,-7094485 -250638,-7094516 -250619,-7094544 -250586,-7094571 -250562,-7094584 -250521,-7094599 -250462,-7094618 -250410,-7094622 -250384,-7094625 -250373,-7094626 -250271,-7094641 -250223,-7094648 -250203,-7094650 -250168,-7094647 -250144,-7094640 -250125,-7094632 -250079,-7094615 -250041,-7094604 -249975,-7094599 -249972,-7094632 -249958,-7094658 -249949,-7094682 -249945,-7094703 -249952,-7094715 -249952,-7094739 -249932,-7094754 -249932,-7094767 -249926,-7094773 -249926,-7094780 -249921,-7094788 -249915,-7094838 -249910,-7094873 -249908,-7094897 -249904,-7094919 -249912,-7094934 -249918,-7094970 -249932,-7094988 -249935,-7094996 -249948,-7095011 -249951,-7095027 -249965,-7095041 -249977,-7095043 -249991,-7095043 -249999,-7095048 -250022,-7095064 -250048,-7095092 -250073,-7095111 -250087,-7095113 -250091,-7095119 -250099,-7095120 -250113,-7095127 -250129,-7095129 -250140,-7095124 -250171,-7095124 -250215,-7095143 -250224,-7095141 -250236,-7095147 -250244,-7095154 -250264,-7095162 -250273,-7095172 -250283,-7095177 -250294,-7095193 -250305,-7095201 -250315,-7095214 -250320,-7095226 -250332,-7095243 -250369,-7095281 -250372,-7095294 -250363,-7095309 -250359,-7095325 -250354,-7095391 -250353,-7095398 -250370,-7095423 -250405,-7095472 -250429,-7095515 -250486,-7095619 -250498,-7095650 -250508,-7095689 -250520,-7095684 -250538,-7095802 -250559,-7095961 -250567,-7096014 -250580,-7096115 -250666,-7096101 -250707,-7096092 -250735,-7096084 -250769,-7096074 -250807,-7096059 -250946,-7095991 -251015,-7095958 -251024,-7095950 -251083,-7095921 -251106,-7095910 -251124,-7095907 -251161,-7095906 -251298,-7095899 -251374,-7095891 -251434,-7095893 -251489,-7095895 -251515,-7095901 -251612,-7095932 -251783,-7095999 -251783,-7096010 -251787,-7096022 -251795,-7096035 -251931,-7096154 -252024,-7096224 -252073,-7096195 -252150,-7096268 -252151,-7096281 -252156,-7096287 -252167,-7096293 -252179,-7096306 -252184,-7096322 -252200,-7096346 -252218,-7096364 -252230,-7096379 -252317,-7096470 -252318,-7096479 -252320,-7096482 -252379,-7096595 -252401,-7096629 -252472,-7096736 -252527,-7096823 -252563,-7096875 -252575,-7096925 -252595,-7096973 -252637,-7097102 -252675,-7097156 -252720,-7097219 -252768,-7097306 -252828,-7097380 -252842,-7097382 -252878,-7097440 -252894,-7097485 -252836,-7097518 -252817,-7097534 -252774,-7097595 -252750,-7097628 -252718,-7097661 -252629,-7097768 -252609,-7097785 -252604,-7097789 -252588,-7097795 -252571,-7097798 -252550,-7097795 -252516,-7097785 -252455,-7097769 -252435,-7097759 -252406,-7097738 -252345,-7097697 -252335,-7097681 -252333,-7097668 -252349,-7097621 -252387,-7097539 -252331,-7097523 -252303,-7097489 -252209,-7097530 -251890,-7097690 -251646,-7097807 -251649,-7097898 -251350,-7097851 -251408,-7097996 -251425,-7098041 -251484,-7098202 -251488,-7098222 -251493,-7098270 -251498,-7098365 -251496,-7098375 -251494,-7098384 -251489,-7098396 -251482,-7098407 -251475,-7098416 -251466,-7098424 -251444,-7098444 -251428,-7098460 -251401,-7098478 -251364,-7098491 -251307,-7098502 -251276,-7098504 -251263,-7098502 -251222,-7098589 -251261,-7098595 -251309,-7098607 -251360,-7098618 -251426,-7098635 -251438,-7098634 -251534,-7098623 -251558,-7098623 -251576,-7098632 -251582,-7098645 -251582,-7098653 -251577,-7098697 -251572,-7098723 -251566,-7098742 -251559,-7098761 -251549,-7098781 -251540,-7098813 -251540,-7098841 -251540,-7098843 -251646,-7098884 -251646,-7098884 -251644,-7098897 -251604,-7098950 -251608,-7098990 -251630,-7099147 -251628,-7099197 -251623,-7099250 -251633,-7099330 -251720,-7099324 -251742,-7099350 -251760,-7099377 -251773,-7099389 -251808,-7099411 -251864,-7099429 -251915,-7099455 -251918,-7099494 -251896,-7099555 -251878,-7099591 -251863,-7099641 -251859,-7099679 -251861,-7099722 -251866,-7099751 -251881,-7099805 -251885,-7099839 -251901,-7099918 -251909,-7099948 -251916,-7099989 -251919,-7100011 -251928,-7100136 -251934,-7100170 -252002,-7100359 -252008,-7100392 -252023,-7100531 -252022,-7100626 -252044,-7100800 -252068,-7101011 -252057,-7101013 -252066,-7101125 -252122,-7101569 -252145,-7101793 -252170,-7101993 -252188,-7102165 -252210,-7102196 -252249,-7102243 -252299,-7102300 -252338,-7102350 -252435,-7102456 -252424,-7102471 -252395,-7102508 -252381,-7102590 -252379,-7102602 -252389,-7102649 -252391,-7102683 -252396,-7102723 -252384,-7102773 -252425,-7102798 -252437,-7102817 -252446,-7102836 -252482,-7102867 -252517,-7102894 -252526,-7102937 -252534,-7102955 -252547,-7102963 -252589,-7102982 -252616,-7102997 -252628,-7103004 -252649,-7103023 -252658,-7103053 -252661,-7103068 -252664,-7103100 -252662,-7103130 -252652,-7103157 -252644,-7103169 -252635,-7103182 -252613,-7103205 -252590,-7103292 -252596,-7103322 -252599,-7103331 -252602,-7103339 -252610,-7103352 -252615,-7103355 -252656,-7103369 -252671,-7103379 -252675,-7103385 -252679,-7103391 -252682,-7103406 -252680,-7103421 -252677,-7103429 -252669,-7103441 -252635,-7103478 -252628,-7103491 -252625,-7103502 -252617,-7103542 -252612,-7103557 -252604,-7103566 -252546,-7103588 -252539,-7103594 -252536,-7103601 -252531,-7103625 -252520,-7103657 -252516,-7103663 -252512,-7103669 -252490,-7103692 -252460,-7103714 -252443,-7103732 -252439,-7103741 -252425,-7103772 -252420,-7103778 -252415,-7103784 -252387,-7103812 -252378,-7103821 -252371,-7103831 -252358,-7103850 -252350,-7103869 -252351,-7103875 -252354,-7103892 -252354,-7103899 -252354,-7103906 -252349,-7103921 -252337,-7103935 -252330,-7103941 -252324,-7103946 -252311,-7103951 -252303,-7103958 -252296,-7103966 -252291,-7103985 -252290,-7104003 -252292,-7104011 -252295,-7104019 -252319,-7104048 -252324,-7104068 -252321,-7104076 -252318,-7104084 -252310,-7104095 -252303,-7104105 -252289,-7104121 -252261,-7104134 -252242,-7104144 -252231,-7104171 -252229,-7104197 -252207,-7104265 -252197,-7104275 -252182,-7104280 -252154,-7104280 -252136,-7104280 -252123,-7104284 -252117,-7104298 -252111,-7104310 -252087,-7104332 -252056,-7104346 -252043,-7104354 -252030,-7104362 -251993,-7104388 -251960,-7104433 -251945,-7104447 -251905,-7104463 -251897,-7104502 -251895,-7104554 -251853,-7104603 -251850,-7104610 -251831,-7104662 -251805,-7104759 -251789,-7104806 -251773,-7104852 -251764,-7104873 -251753,-7104901 -251742,-7104921 -251720,-7104944 -251712,-7104949 -251709,-7104948 -251698,-7104939 -251676,-7104935 -251655,-7104946 -251630,-7104997 -251606,-7105059 -251582,-7105079 -251561,-7105094 -251548,-7105102 -251536,-7105109 -251522,-7105115 -251485,-7105126 -251462,-7105144 -251445,-7105134 -251401,-7105136 -251344,-7105134 -251312,-7105142 -251280,-7105142 -251237,-7105165 -251228,-7105180 -251186,-7105215 -251170,-7105222 -251114,-7105229 -251095,-7105242 -251075,-7105247 -251069,-7105249 -251042,-7105264 -251013,-7105289 -250995,-7105301 -250982,-7105311 -250927,-7105332 -250879,-7105364 -250860,-7105375 -250839,-7105402 -250808,-7105451 -250802,-7105504 -250793,-7105526 -250772,-7105562 -250712,-7105634 -250635,-7105723 -250620,-7105741 -250504,-7105884 -250417,-7105952 -250381,-7105985 -250350,-7106017 -250327,-7106045 -250305,-7106074 -250257,-7106141 -250190,-7106236 -250144,-7106308 -250072,-7106442 -250040,-7106539 -250005,-7106632 -250002,-7106657 -250010,-7106686 -250009,-7106687 -249085,-7107271 -248974,-7107341 -248585,-7107687 -248076,-7107911 -247820,-7108021 -247777,-7108048 -247752,-7107987 -247665,-7107883 -247559,-7107884 -247534,-7107876 -247527,-7107868 -247515,-7107847 -247499,-7107816 -247453,-7107807 -247442,-7107804 -247421,-7107771 -247405,-7107757 -247310,-7107715 -247190,-7107692 -247156,-7107692 -247088,-7107695 -246971,-7107705 -246876,-7107712 -246801,-7107578 -246750,-7107481 -246683,-7107357 -246656,-7107348 -246633,-7107349 -246610,-7107355 -246629,-7107306 -246636,-7107282 -246638,-7107228 -246636,-7107187 -246635,-7107170 -246615,-7107111 -246601,-7107082 -246587,-7107054 -246555,-7107003 -246529,-7106973 -246335,-7106781 -246259,-7106686 -246228,-7106655 -246224,-7106651 -246158,-7106645 -246072,-7106533 -246006,-7106456 -245897,-7106336 -245798,-7106240 -245722,-7106181 -245700,-7106163 -245729,-7106046 -245748,-7105992 -245756,-7105991 -245755,-7105953 -245782,-7105926 -245749,-7105814 -245737,-7105759 -245709,-7105714 -245697,-7105659 -245694,-7105617 -245693,-7105565 -245689,-7105538 -245684,-7105511 -245668,-7105470 -245657,-7105450 -245645,-7105440 -245565,-7105402 -245429,-7105333 -245398,-7105316 -245366,-7105298 -245336,-7105279 -245304,-7105258 -245314,-7105245 -245398,-7105288 -245434,-7105141 -245445,-7105090 -245466,-7105035 -245484,-7104963 -245207,-7104817 -245190,-7104809 -245166,-7104803 -244946,-7104690 -244756,-7104592 -244651,-7104535 -244639,-7104526 -244628,-7104510 -244623,-7104493 -244620,-7104470 -244606,-7104453 -244593,-7104410 -244585,-7104372 -244577,-7104355 -244568,-7104338 -244540,-7104315 -244534,-7104307 -244529,-7104300 -244524,-7104284 -244520,-7104276 -244501,-7104284 -244473,-7104277 -244447,-7104265 -244392,-7104264 -244373,-7104255 -244335,-7104229 -244308,-7104207 -244263,-7104188 -244227,-7104169 -244209,-7104156 -244184,-7104135 -244174,-7104129 -244164,-7104123 -244111,-7104107 -244080,-7104092 -244050,-7104075 -244028,-7104060 -243972,-7104027 -243942,-7104013 -243880,-7104004 -243828,-7103992 -243831,-7103973 -243827,-7103950 -243814,-7103923 -243786,-7103897 -243776,-7103887 -243769,-7103875 -243763,-7103862 -243762,-7103850 -243761,-7103838 -243763,-7103810 -243752,-7103796 -243743,-7103776 -243694,-7103786 -243685,-7103786 -243677,-7103784 -243646,-7103772 -243629,-7103759 -243571,-7103777 -243529,-7103794 -243519,-7103797 -243476,-7103798 -243442,-7103805 -243422,-7103807 -243400,-7103806 -243376,-7103801 -243351,-7103805 -243319,-7103812 -243301,-7103808 -243280,-7103801 -243271,-7103802 -243261,-7103803 -243232,-7103817 -243214,-7103828 -243174,-7103855 -243153,-7103850 -243140,-7103849 -243073,-7103851 -243044,-7103845 -242944,-7103819 -242965,-7103706 -242958,-7103663 -242938,-7103632 -242895,-7103625 -242874,-7103616 -242858,-7103595 -242852,-7103583 -242846,-7103570 -242832,-7103510 -242827,-7103485 -242822,-7103446 -242804,-7103395 -242802,-7103386 -242795,-7103354 -242796,-7103339 -242803,-7103329 -242819,-7103318 -242847,-7103311 -242878,-7103307 -242888,-7103309 -242907,-7103315 -242931,-7103325 -242952,-7103327 -242976,-7103322 -243050,-7103296 -243057,-7103292 -243062,-7103287 -243069,-7103272 -243069,-7103254 -243066,-7103250 -243048,-7103226 -243035,-7103180 -243020,-7103148 -243000,-7103128 -242986,-7103122 -242974,-7103100 -242973,-7103088 -242980,-7103050 -242981,-7103028 -242981,-7102972 -242979,-7102908 -242977,-7102827 -242942,-7102822 -242936,-7102812 -242931,-7102785 -242922,-7102711 -242882,-7102618 -242856,-7102590 -242834,-7102576 -242796,-7102562 -242790,-7102554 -242779,-7102537 -242774,-7102528 -242761,-7102486 -242743,-7102453 -242736,-7102434 -242733,-7102411 -242728,-7102387 -242728,-7102372 -242738,-7102359 -242763,-7102351 -242781,-7102354 -242792,-7102361 -242805,-7102366 -242823,-7102364 -242845,-7102355 -242855,-7102350 -242880,-7102334 -242891,-7102324 -242908,-7102296 -242913,-7102288 -242920,-7102281 -242927,-7102273 -242949,-7102258 -243044,-7102155 -243064,-7102143 -243093,-7102136 -243125,-7102122 -243136,-7102117 -243152,-7102103 -243177,-7102075 -243226,-7102012 -243277,-7101935 -243175,-7101956 -243104,-7101975 -242958,-7102005 -242785,-7102044 -242696,-7102061 -242431,-7102121 -242196,-7102172 -242136,-7102161 -242019,-7102137 -242005,-7102214 -241923,-7102232 -241799,-7102258 -241786,-7102261 -241785,-7102260 -241783,-7102258 -241781,-7102257 -241780,-7102255 -241778,-7102253 -241777,-7102251 -241775,-7102249 -241774,-7102247 -241774,-7102246 -241767,-7102261 -241764,-7102266 -241755,-7102268 -241453,-7102331 -241313,-7102368 -241094,-7102412 -240748,-7102488 -240665,-7102507 -240654,-7102510 -240600,-7102527 -240594,-7102545 -240589,-7102574 -240581,-7102642 -240565,-7102803 -240567,-7102930 -240548,-7103108 -240525,-7103590 -240523,-7103637 -240516,-7103827 -240600,-7103968 -240722,-7104238 -240774,-7104362 -240801,-7104416 -240828,-7104459 -240862,-7104527 -240885,-7104598 -240903,-7104692 -240914,-7104762 -240914,-7104780 -240903,-7104856 -240886,-7104966 -240888,-7105042 -240879,-7105061 -240875,-7105068 -240795,-7105245 -240720,-7105395 -240620,-7105567 -240438,-7105903 -240329,-7106086 -240149,-7106388 -239896,-7106823 -239856,-7107034 -239806,-7107311 -239767,-7107467 -239730,-7107667 -239721,-7107694 -239701,-7107734 -239652,-7107826 -239181,-7108749 -239151,-7109105 -239145,-7109142 -239142,-7109162 -239133,-7109232 -239123,-7109347 -239111,-7109461 -239108,-7109514 -239111,-7109656 -239120,-7109806 -239129,-7110161 -239018,-7110181 -238928,-7110202 -238906,-7110141 -238871,-7110039 -238853,-7109996 -238843,-7109966 -238833,-7109931 -238814,-7109868 -238786,-7109804 -238774,-7109767 -238756,-7109717 -238740,-7109685 -238715,-7109645 -238644,-7109535 -238617,-7109501 -238559,-7109444 -238548,-7109432 -238531,-7109416 -238522,-7109411 -238512,-7109406 -238501,-7109403 -238492,-7109403 -238484,-7109405 -238475,-7109408 -238464,-7109413 -238455,-7109420 -238448,-7109426 -238441,-7109434 -238414,-7109460 -238383,-7109517 -238367,-7109543 -238350,-7109576 -238345,-7109590 -238340,-7109630 -238321,-7109687 -238314,-7109713 -238310,-7109734 -238307,-7109764 -238287,-7109837 -238283,-7109852 -238278,-7109865 -238275,-7109877 -238271,-7109905 -238271,-7109980 -238268,-7110030 -238268,-7110080 -238263,-7110121 -238242,-7110209 -238229,-7110237 -238192,-7110311 -238183,-7110321 -238152,-7110349 -238133,-7110367 -238099,-7110406 -238013,-7110496 -237992,-7110513 -237982,-7110517 -237980,-7110517 -237967,-7110515 -237957,-7110516 -237921,-7110529 -237889,-7110536 -237886,-7110538 -237872,-7110547 -237865,-7110552 -237855,-7110563 -237809,-7110596 -237776,-7110625 -237761,-7110650 -237753,-7110656 -237737,-7110661 -237732,-7110665 -237728,-7110669 -237725,-7110673 -237723,-7110675 -237716,-7110707 -237715,-7110711 -237708,-7110722 -237688,-7110743 -237673,-7110747 -237669,-7110749 -237655,-7110761 -237650,-7110766 -237645,-7110773 -237641,-7110782 -237637,-7110790 -237631,-7110819 -237627,-7110825 -237624,-7110828 -237603,-7110839 -237592,-7110845 -237583,-7110851 -237569,-7110861 -237508,-7110770 -237485,-7110739 -237428,-7110610 -237360,-7110544" stroke="white" stroke-width="57" /></ns0:svg>    <rect x="20" y="50"  width="250" height="25"  rx="0"  fill="#E8EDEE" fill-opacity="0.8" />    <text x="145" y="70" text-anchor="middle" font-family="Frutiger" font-weight="bold" font-size="30" fill="#AE2573">Rochdale</text>    <rect x="35" y="195" width="220" height="160" rx="15" fill="#724F95"/>    <g font-family="Frutiger" font-size="15" fill="white">        <g> <text x="45" y="218">Self-harm</text> <text x="245" y="218" text-anchor="end">34</text> </g>        <g> <text x="45" y="243">SEN</text> <text x="245" y="243" text-anchor="end">20</text> </g>        <g> <text x="45" y="268">Difficulties</text> <text x="245" y="268" text-anchor="end">62</text> </g>        <g> <text x="45" y="293">Child Carer</text> <text x="245" y="293" text-anchor="end">6</text> </g>        <g> <text x="45" y="318">Drinkers</text> <text x="245" y="318" text-anchor="end">35</text> </g>        <g> <text x="45" y="343">Safeguarding £</text> <text x="245" y="343" text-anchor="end">19</text> </g>    </g></svg>