<?xml version="1.0" standalone="no"?>
<!DOCTYPE svg PUBLIC "-//W3C//DTD SVG 1.1//EN"
"http://www.w3.org/Graphics/SVG/1.1/DTD/svg11.dtd">
<svg height="1800" version="1.1" width="1800" xmlns="http://www.w3.org/2000/svg"><defs><style type="text/css">@font-face {font-family: 'Frutiger';font-style: normal;font-weight: normal;src: local('Frutiger'), url('../fonts/Frutiger.woff') format('woff');}@font-face {font-family: 'Frutiger Bold';font-style: normal;font-weight: normal;src: local('Frutiger Bold'), url('../fonts/Frutiger_bold.woff') format('woff');}        </style>    </defs>    <rect x="20" y="20"  width="250" height="350" rx="15" fill="#009639" />    <rect x="35" y="35"  width="220" height="145" rx="15" fill="#E8EDEE" /><ns0:svg xmlns:ns0="http://www.w3.org/2000/svg" height="115" version="1.1" viewBox="-229457 -7163183 46856 45059" width="220" x="35" y="50"><ns0:polygon fill="#006747" points=" -209425,-7163169 -209327,-7163147 -209297,-7163140 -209226,-7163121 -209170,-7163094 -209163,-7163089 -209157,-7163082 -209152,-7163075 -209148,-7163067 -209144,-7163057 -209138,-7163037 -209127,-7162960 -209116,-7162860 -209068,-7162576 -209066,-7162555 -209065,-7162516 -209065,-7162498 -209073,-7162393 -209080,-7162346 -209090,-7162314 -209098,-7162297 -209114,-7162268 -209154,-7162193 -209248,-7162009 -209260,-7161980 -209266,-7161953 -209268,-7161941 -209274,-7161809 -209270,-7161776 -209266,-7161752 -209252,-7161692 -209241,-7161667 -209210,-7161601 -209156,-7161501 -209051,-7161363 -209030,-7161330 -209024,-7161320 -209007,-7161284 -208997,-7161267 -208937,-7161116 -208925,-7161076 -208865,-7160938 -208849,-7160863 -208845,-7160840 -208843,-7160811 -208843,-7160796 -208848,-7160758 -208850,-7160752 -208872,-7160707 -208879,-7160686 -208881,-7160676 -208883,-7160610 -208873,-7160545 -208868,-7160485 -208806,-7160259 -208776,-7160122 -208758,-7160047 -208725,-7159946 -208699,-7159878 -208691,-7159864 -208677,-7159838 -208662,-7159812 -208629,-7159763 -208538,-7159659 -208474,-7159595 -208449,-7159574 -208409,-7159546 -208391,-7159532 -208356,-7159512 -208336,-7159503 -208303,-7159492 -208217,-7159458 -208126,-7159415 -208083,-7159397 -208008,-7159368 -207834,-7159307 -207793,-7159290 -207766,-7159276 -207694,-7159230 -207635,-7159195 -207622,-7159182 -207614,-7159173 -207582,-7159125 -207575,-7159104 -207566,-7159084 -207546,-7159049 -207538,-7159041 -207534,-7159039 -207528,-7159037 -207519,-7159037 -207447,-7159014 -207414,-7158999 -207370,-7158982 -207328,-7158956 -207315,-7158945 -207306,-7158936 -207300,-7158928 -207288,-7158908 -207273,-7158860 -207261,-7158820 -207248,-7158766 -207253,-7158747 -207253,-7158736 -207250,-7158722 -207246,-7158711 -207249,-7158673 -207247,-7158648 -207247,-7158635 -207250,-7158612 -207253,-7158596 -207258,-7158578 -207264,-7158543 -207280,-7158535 -207301,-7158443 -207311,-7158387 -207331,-7158317 -207351,-7158174 -207352,-7158147 -207352,-7158127 -207350,-7158099 -207372,-7157936 -207381,-7157887 -207385,-7157822 -207385,-7157750 -207357,-7157687 -207349,-7157664 -207341,-7157650 -207336,-7157640 -207310,-7157609 -207299,-7157599 -207244,-7157551 -207146,-7157459 -207113,-7157437 -207091,-7157424 -207068,-7157412 -207024,-7157393 -206999,-7157385 -206987,-7157381 -206966,-7157376 -206918,-7157364 -206886,-7157353 -206782,-7157343 -206652,-7157344 -206633,-7157342 -206611,-7157338 -206594,-7157333 -206584,-7157329 -206575,-7157323 -206566,-7157317 -206558,-7157310 -206524,-7157272 -206509,-7157253 -206491,-7157231 -206474,-7157209 -206455,-7157197 -206441,-7157188 -206329,-7157128 -206296,-7157113 -206254,-7157098 -206219,-7157095 -206189,-7157094 -206176,-7157095 -206147,-7157100 -206124,-7157102 -206091,-7157110 -206070,-7157117 -206017,-7157136 -205992,-7157151 -205939,-7157177 -205883,-7157215 -205850,-7157237 -205827,-7157245 -205799,-7157265 -205737,-7157320 -205672,-7157375 -205657,-7157386 -205649,-7157390 -205624,-7157401 -205611,-7157406 -205584,-7157412 -205550,-7157428 -205535,-7157432 -205487,-7157441 -205277,-7157460 -205245,-7157469 -205199,-7157470 -205179,-7157467 -205166,-7157462 -205147,-7157452 -205068,-7157388 -205030,-7157346 -205021,-7157339 -205006,-7157328 -204971,-7157306 -204931,-7157278 -204889,-7157236 -204865,-7157221 -204851,-7157213 -204815,-7157198 -204772,-7157185 -204741,-7157178 -204722,-7157176 -204683,-7157174 -204565,-7157165 -204535,-7157165 -204404,-7157178 -204419,-7157299 -204428,-7157308 -204451,-7157323 -204493,-7157357 -204508,-7157364 -204517,-7157365 -204546,-7157366 -204553,-7157366 -204559,-7157368 -204562,-7157370 -204578,-7157386 -204585,-7157391 -204595,-7157397 -204625,-7157408 -204633,-7157409 -204645,-7157412 -204650,-7157415 -204696,-7157453 -204702,-7157457 -204722,-7157469 -204790,-7157499 -204799,-7157504 -204847,-7157538 -204923,-7157596 -205000,-7157660 -205055,-7157697 -205076,-7157709 -205083,-7157712 -205127,-7157718 -205139,-7157722 -205145,-7157726 -205150,-7157731 -205155,-7157737 -205162,-7157751 -205284,-7157807 -205299,-7157817 -205310,-7157825 -205324,-7157838 -205357,-7157854 -205368,-7157855 -205378,-7157859 -205383,-7157863 -205387,-7157868 -205391,-7157875 -205418,-7157889 -205440,-7157905 -205463,-7157913 -205476,-7157919 -205488,-7157923 -205506,-7157926 -205561,-7157944 -205568,-7157948 -205575,-7157952 -205586,-7157964 -205620,-7157995 -205629,-7158004 -205634,-7158007 -205647,-7158011 -205677,-7158022 -205791,-7158049 -205786,-7158085 -205786,-7158090 -205788,-7158100 -205791,-7158109 -205794,-7158116 -205801,-7158125 -205796,-7158146 -205795,-7158159 -205794,-7158178 -205779,-7158227 -205775,-7158245 -205773,-7158252 -205770,-7158258 -205766,-7158263 -205749,-7158278 -205745,-7158287 -205740,-7158297 -205738,-7158305 -205734,-7158351 -205739,-7158371 -205737,-7158400 -205731,-7158405 -205728,-7158414 -205728,-7158419 -205733,-7158431 -205737,-7158435 -205739,-7158438 -205739,-7158442 -205739,-7158445 -205737,-7158448 -205725,-7158460 -205722,-7158469 -205718,-7158491 -205716,-7158496 -205712,-7158502 -205696,-7158514 -205693,-7158518 -205690,-7158526 -205689,-7158534 -205691,-7158545 -205702,-7158570 -205701,-7158604 -205687,-7158621 -205696,-7158640 -205698,-7158649 -205698,-7158655 -205698,-7158663 -205695,-7158673 -205693,-7158678 -205677,-7158686 -205681,-7158709 -205684,-7158716 -205686,-7158722 -205686,-7158729 -205677,-7158772 -205675,-7158794 -205680,-7158804 -205683,-7158865 -205690,-7158871 -205692,-7158875 -205694,-7158885 -205694,-7158897 -205683,-7158947 -205630,-7158929 -205621,-7158914 -205620,-7158909 -205610,-7158912 -205593,-7158905 -205570,-7158898 -205553,-7158882 -205529,-7158852 -205518,-7158842 -205510,-7158837 -205499,-7158833 -205467,-7158815 -205387,-7158779 -205338,-7158766 -205233,-7158731 -205210,-7158725 -205111,-7158703 -205054,-7158695 -205019,-7158683 -204997,-7158696 -204981,-7158701 -204903,-7158715 -204847,-7158718 -204739,-7158730 -204696,-7158737 -204653,-7158740 -204629,-7158739 -204601,-7158734 -204552,-7158722 -204515,-7158709 -204496,-7158703 -204475,-7158700 -204440,-7158697 -204414,-7158698 -204334,-7158703 -204321,-7158705 -204282,-7158716 -204152,-7158760 -204107,-7158779 -204104,-7158773 -203955,-7158824 -203912,-7158838 -203891,-7158838 -203862,-7158844 -203850,-7158850 -203728,-7158873 -203733,-7158796 -203735,-7158780 -203736,-7158770 -203734,-7158756 -203730,-7158740 -203732,-7158700 -203742,-7158646 -203743,-7158617 -203740,-7158489 -203736,-7158426 -203554,-7158438 -203370,-7158453 -203304,-7158461 -203285,-7158464 -203262,-7158470 -203242,-7158479 -203210,-7158506 -203162,-7158540 -203136,-7158556 -203125,-7158565 -203087,-7158598 -203058,-7158616 -203048,-7158619 -203042,-7158619 -203033,-7158618 -203024,-7158613 -203017,-7158608 -203014,-7158604 -203007,-7158585 -203004,-7158566 -202999,-7158539 -202999,-7158517 -202994,-7158506 -202989,-7158497 -202984,-7158492 -202979,-7158489 -202972,-7158486 -202825,-7158472 -202804,-7158469 -202778,-7158464 -202749,-7158457 -202681,-7158437 -202660,-7158433 -202647,-7158433 -202618,-7158433 -202548,-7158435 -202527,-7158438 -202494,-7158444 -202406,-7158494 -202375,-7158506 -202338,-7158519 -202316,-7158525 -202273,-7158533 -202228,-7158530 -202192,-7158525 -202163,-7158517 -202079,-7158492 -202070,-7158490 -202052,-7158489 -202043,-7158489 -202032,-7158490 -202000,-7158495 -201968,-7158498 -201949,-7158505 -201925,-7158520 -201919,-7158523 -201898,-7158530 -201723,-7158550 -201688,-7158566 -201634,-7158570 -201568,-7158573 -201534,-7158572 -201499,-7158572 -201466,-7158570 -201432,-7158567 -201418,-7158564 -201407,-7158563 -201396,-7158564 -201378,-7158567 -201346,-7158567 -201323,-7158573 -201312,-7158575 -201300,-7158575 -201288,-7158574 -201277,-7158573 -201201,-7158555 -201110,-7158551 -201068,-7158548 -201053,-7158550 -201034,-7158555 -201026,-7158558 -201010,-7158566 -200964,-7158587 -200954,-7158594 -200941,-7158616 -200924,-7158606 -200910,-7158583 -200892,-7158561 -200853,-7158527 -200837,-7158511 -200820,-7158492 -200804,-7158472 -200795,-7158458 -200787,-7158446 -200783,-7158438 -200777,-7158428 -200769,-7158409 -200756,-7158376 -200750,-7158356 -200746,-7158337 -200729,-7158246 -200726,-7158214 -200726,-7158179 -200732,-7158095 -200732,-7158081 -200730,-7158075 -200693,-7158036 -200375,-7158148 -200267,-7158188 -200225,-7158180 -200125,-7158159 -200114,-7158154 -200111,-7158151 -200096,-7158136 -200111,-7158128 -200118,-7158126 -200126,-7158121 -200130,-7158117 -200133,-7158112 -200135,-7158106 -200135,-7158096 -200129,-7158073 -200124,-7158062 -200115,-7158050 -200093,-7158031 -200080,-7158015 -200069,-7157995 -200064,-7157984 -200060,-7157972 -200059,-7157961 -200059,-7157949 -200062,-7157938 -200064,-7157932 -200078,-7157925 -200081,-7157922 -200087,-7157913 -200089,-7157908 -200089,-7157902 -200088,-7157893 -200085,-7157882 -200081,-7157875 -200059,-7157847 -200053,-7157834 -200049,-7157825 -200046,-7157805 -200047,-7157799 -200057,-7157771 -200065,-7157734 -200084,-7157707 -200077,-7157700 -200054,-7157676 -200045,-7157663 -199998,-7157619 -199994,-7157616 -199981,-7157611 -199960,-7157584 -199972,-7157549 -199978,-7157470 -199974,-7157435 -199973,-7157414 -199975,-7157379 -199971,-7157324 -199966,-7157276 -199968,-7157176 -199974,-7157131 -199974,-7157122 -199971,-7157106 -199971,-7157102 -199970,-7157082 -199979,-7157073 -200012,-7157048 -200022,-7157032 -200032,-7157003 -200038,-7156991 -200042,-7156986 -200063,-7156969 -200090,-7156967 -200146,-7156957 -200207,-7156941 -200195,-7156924 -200189,-7156915 -200176,-7156903 -200158,-7156889 -200146,-7156882 -200153,-7156856 -200095,-7156827 -200037,-7156810 -199999,-7156801 -199963,-7156793 -199927,-7156786 -199888,-7156780 -199852,-7156778 -199788,-7156770 -199722,-7156766 -199672,-7156765 -199634,-7156767 -199487,-7156786 -199137,-7156823 -199090,-7156826 -199030,-7156835 -198909,-7156840 -198861,-7156846 -198821,-7156850 -198749,-7156855 -198719,-7156858 -198715,-7156858 -198684,-7156857 -198665,-7156854 -198612,-7156853 -198552,-7156847 -198532,-7156843 -198438,-7156812 -198420,-7156804 -198413,-7156799 -198400,-7156789 -198390,-7156779 -198384,-7156770 -198371,-7156745 -198364,-7156722 -198359,-7156696 -198356,-7156682 -198298,-7156581 -198281,-7156555 -198272,-7156538 -198257,-7156504 -198245,-7156469 -198230,-7156425 -198207,-7156362 -198190,-7156300 -198185,-7156277 -198183,-7156258 -198181,-7156235 -198171,-7156149 -198156,-7156085 -198145,-7156055 -198140,-7156043 -198128,-7156020 -198063,-7155921 -198034,-7155869 -198021,-7155840 -197982,-7155783 -197924,-7155688 -197916,-7155675 -197907,-7155649 -197884,-7155595 -197874,-7155571 -197872,-7155568 -197832,-7155472 -197801,-7155417 -197767,-7155360 -197749,-7155341 -197712,-7155309 -197701,-7155301 -197676,-7155285 -197657,-7155275 -197641,-7155268 -197618,-7155259 -197597,-7155252 -197563,-7155244 -197529,-7155230 -197430,-7155202 -197379,-7155191 -197354,-7155187 -197289,-7155187 -197276,-7155188 -197245,-7155190 -197171,-7155199 -197146,-7155205 -197120,-7155211 -197082,-7155224 -197054,-7155236 -197036,-7155247 -197012,-7155253 -196991,-7155263 -196982,-7155269 -196946,-7155297 -196920,-7155315 -196915,-7155321 -196908,-7155334 -196892,-7155392 -196887,-7155419 -196881,-7155447 -196877,-7155475 -196863,-7155604 -196848,-7155667 -196846,-7155674 -196828,-7155710 -196814,-7155742 -196793,-7155778 -196782,-7155793 -196774,-7155803 -196754,-7155823 -196713,-7155851 -196658,-7155872 -196611,-7155892 -196558,-7155904 -196526,-7155912 -196509,-7155914 -196495,-7155913 -196481,-7155911 -196471,-7155908 -196433,-7155892 -196391,-7155872 -196376,-7155866 -196344,-7155856 -196320,-7155846 -196305,-7155841 -196289,-7155837 -196259,-7155830 -196192,-7155796 -196178,-7155787 -196168,-7155779 -196151,-7155760 -196133,-7155736 -196107,-7155699 -196095,-7155685 -196076,-7155663 -196044,-7155631 -196011,-7155603 -195880,-7155505 -195858,-7155487 -195790,-7155433 -195682,-7155344 -195614,-7155286 -195595,-7155277 -195567,-7155261 -195555,-7155254 -195538,-7155247 -195517,-7155239 -195497,-7155232 -195475,-7155227 -195422,-7155216 -195400,-7155213 -195389,-7155212 -195336,-7155219 -195323,-7155222 -195308,-7155228 -195289,-7155237 -195223,-7155274 -195100,-7155344 -195078,-7155358 -195067,-7155363 -195040,-7155375 -194896,-7155450 -194821,-7155487 -194779,-7155511 -194757,-7155516 -194740,-7155519 -194708,-7155520 -194633,-7155531 -194596,-7155545 -194569,-7155557 -194535,-7155567 -194455,-7155585 -194428,-7155592 -194404,-7155597 -194379,-7155599 -194346,-7155595 -194322,-7155587 -194300,-7155573 -194287,-7155562 -194278,-7155552 -194273,-7155544 -194267,-7155533 -194262,-7155519 -194259,-7155506 -194257,-7155469 -194271,-7155435 -194281,-7155409 -194312,-7155336 -194357,-7155245 -194366,-7155220 -194368,-7155207 -194371,-7155190 -194378,-7155100 -194382,-7155078 -194383,-7155060 -194383,-7155042 -194380,-7155014 -194372,-7154815 -194368,-7154768 -194363,-7154743 -194360,-7154734 -194352,-7154712 -194336,-7154684 -194327,-7154658 -194313,-7154628 -194297,-7154599 -194238,-7154533 -194228,-7154521 -194220,-7154510 -194203,-7154479 -194181,-7154423 -194178,-7154406 -194174,-7154394 -194170,-7154383 -194165,-7154374 -194119,-7154307 -194111,-7154293 -194086,-7154247 -194058,-7154190 -194020,-7154122 -193985,-7154066 -193936,-7153995 -193867,-7153913 -193817,-7153871 -193785,-7153841 -193763,-7153820 -193735,-7153799 -193712,-7153778 -193702,-7153770 -193644,-7153733 -193633,-7153723 -193612,-7153709 -193551,-7153677 -193532,-7153670 -193517,-7153665 -193400,-7153636 -193382,-7153628 -193370,-7153620 -193331,-7153600 -193305,-7153589 -193288,-7153584 -193260,-7153578 -193187,-7153560 -193110,-7153538 -192994,-7153487 -192965,-7153472 -192885,-7153429 -192858,-7153411 -192833,-7153391 -192676,-7153285 -192651,-7153271 -192613,-7153250 -192575,-7153232 -192549,-7153221 -192510,-7153207 -192473,-7153190 -192458,-7153185 -192416,-7153174 -192375,-7153167 -192354,-7153165 -192316,-7153164 -192302,-7153165 -192272,-7153167 -192275,-7153019 -192265,-7152992 -192274,-7152936 -192296,-7152907 -192311,-7152887 -192340,-7152872 -192342,-7152866 -192385,-7152849 -192401,-7152845 -192432,-7152828 -192457,-7152804 -192470,-7152715 -192501,-7152595 -192510,-7152549 -192508,-7152445 -192526,-7152438 -192536,-7152426 -192569,-7152332 -192601,-7152234 -192632,-7152139 -192639,-7152118 -192654,-7152071 -192660,-7152026 -192672,-7151929 -192683,-7151882 -192697,-7151845 -192700,-7151801 -192710,-7151782 -192721,-7151740 -192706,-7151690 -192708,-7151658 -192709,-7151644 -192661,-7151642 -192645,-7151647 -192639,-7151643 -192633,-7151634 -192634,-7151614 -192669,-7151617 -192679,-7151611 -192684,-7151590 -192726,-7151419 -192730,-7151388 -192733,-7151366 -192736,-7151357 -192741,-7151345 -192750,-7151332 -192755,-7151325 -192834,-7151256 -192838,-7151248 -192841,-7151234 -192840,-7151123 -192837,-7151093 -192834,-7151068 -192834,-7151056 -192821,-7151054 -192812,-7151016 -192812,-7150958 -192779,-7150885 -192722,-7150763 -192702,-7150713 -192694,-7150692 -192693,-7150675 -192703,-7150659 -192727,-7150625 -192736,-7150606 -192757,-7150592 -192773,-7150569 -192799,-7150556 -192804,-7150545 -192813,-7150506 -192810,-7150473 -192805,-7150467 -192764,-7150451 -192728,-7150451 -192703,-7150440 -192677,-7150411 -192662,-7150378 -192648,-7150355 -192634,-7150344 -192616,-7150320 -192600,-7150308 -192602,-7150299 -192584,-7150287 -192571,-7150285 -192557,-7150277 -192550,-7150279 -192532,-7150279 -192511,-7150286 -192501,-7150282 -192483,-7150285 -192451,-7150262 -192440,-7150253 -192426,-7150224 -192442,-7150221 -192452,-7150210 -192456,-7150197 -192438,-7150177 -192434,-7150153 -192427,-7150147 -192405,-7150148 -192395,-7150141 -192340,-7150148 -192317,-7150153 -192269,-7150174 -192243,-7150189 -192215,-7150185 -192209,-7150179 -192176,-7150162 -192136,-7150138 -192117,-7150130 -192096,-7150113 -192087,-7150112 -192069,-7150105 -192019,-7150080 -192001,-7150089 -191957,-7150090 -191947,-7150095 -191940,-7150090 -191915,-7150090 -191900,-7150081 -191880,-7150080 -191866,-7150084 -191849,-7150079 -191830,-7150072 -191785,-7150073 -191771,-7150080 -191771,-7150091 -191680,-7150088 -191601,-7150068 -191568,-7150061 -191552,-7150055 -191527,-7150037 -191509,-7150018 -191479,-7149994 -191461,-7149982 -191430,-7149973 -191306,-7149913 -191280,-7149907 -191249,-7149886 -191241,-7149872 -191239,-7149854 -191227,-7149849 -191189,-7149815 -191165,-7149793 -191160,-7149788 -191141,-7149778 -191163,-7149565 -191167,-7149565 -191286,-7149570 -191358,-7149576 -191497,-7149586 -191508,-7149595 -191535,-7149600 -191580,-7149575 -191642,-7149558 -191736,-7149531 -191762,-7149518 -191829,-7149471 -191828,-7149464 -191837,-7149455 -191903,-7149384 -192028,-7149252 -192045,-7149230 -192081,-7149161 -192088,-7149149 -192103,-7149126 -192117,-7149107 -192127,-7149095 -192154,-7149069 -192215,-7149018 -192221,-7149012 -192227,-7149003 -192269,-7148926 -192237,-7148870 -192236,-7148857 -192221,-7148821 -192211,-7148819 -192125,-7148647 -192074,-7148536 -192078,-7148537 -192146,-7148552 -192261,-7148553 -192388,-7148553 -192497,-7148550 -192537,-7148664 -192575,-7148653 -192602,-7148653 -192631,-7148657 -192655,-7148659 -192666,-7148659 -192677,-7148658 -192686,-7148659 -192701,-7148664 -192766,-7148691 -192816,-7148710 -192881,-7148732 -192926,-7148745 -192975,-7148756 -193036,-7148775 -193069,-7148781 -193086,-7148782 -193152,-7148782 -193174,-7148780 -193233,-7148774 -193306,-7148758 -193379,-7148740 -193429,-7148723 -193444,-7148718 -193483,-7148701 -193512,-7148686 -193552,-7148663 -193579,-7148649 -193621,-7148628 -193663,-7148599 -193714,-7148573 -193856,-7148515 -193900,-7148498 -193926,-7148486 -193929,-7148485 -193943,-7148451 -193958,-7148418 -193970,-7148383 -193973,-7148383 -194002,-7148383 -194019,-7148384 -194036,-7148387 -194057,-7148392 -194083,-7148401 -194437,-7148481 -194715,-7148542 -194726,-7148529 -194739,-7148506 -194747,-7148495 -194757,-7148484 -194767,-7148474 -194801,-7148448 -194818,-7148441 -194834,-7148437 -194856,-7148435 -194923,-7148418 -194951,-7148412 -195048,-7148400 -195263,-7148403 -195334,-7148402 -195419,-7148389 -195447,-7148384 -195499,-7148362 -195513,-7148353 -195516,-7148351 -195595,-7148397 -195630,-7148410 -195647,-7148411 -195655,-7148412 -195665,-7148416 -195675,-7148421 -195694,-7148433 -195697,-7148447 -195693,-7148451 -195697,-7148462 -195715,-7148484 -195722,-7148498 -195746,-7148511 -195755,-7148532 -195770,-7148542 -195782,-7148554 -195789,-7148564 -195810,-7148590 -195815,-7148602 -195819,-7148607 -195823,-7148611 -195831,-7148616 -195849,-7148636 -195857,-7148643 -195881,-7148661 -195906,-7148685 -195922,-7148693 -195935,-7148697 -195943,-7148701 -195952,-7148705 -195958,-7148711 -195965,-7148718 -195987,-7148746 -195999,-7148775 -196001,-7148793 -196033,-7148800 -196053,-7148815 -196091,-7148859 -196106,-7148879 -196115,-7148893 -196139,-7148914 -196194,-7148992 -196281,-7149093 -196284,-7149098 -196290,-7149111 -196299,-7149125 -196321,-7149127 -196330,-7149129 -196335,-7149130 -196351,-7149140 -196367,-7149150 -196396,-7149181 -196407,-7149205 -196476,-7149225 -196487,-7149231 -196525,-7149254 -196646,-7149336 -196709,-7149374 -196734,-7149392 -196735,-7149392 -196765,-7149315 -196860,-7149368 -196958,-7149399 -196983,-7149407 -197018,-7149397 -197058,-7149395 -197098,-7149378 -197101,-7149377 -197207,-7149335 -197421,-7149167 -197602,-7149277 -198096,-7149576 -197779,-7150078 -198979,-7150654 -199814,-7150225 -200026,-7149657 -200194,-7149212 -200334,-7148851 -200404,-7148673 -200422,-7148588 -200421,-7148587 -200197,-7148359 -200124,-7148203 -200070,-7148095 -199980,-7147914 -199975,-7147904 -199794,-7147553 -199409,-7147523 -199348,-7147523 -198943,-7147544 -198814,-7147552 -198653,-7147554 -198635,-7147546 -198580,-7147502 -198554,-7147475 -198507,-7147439 -198488,-7147428 -198439,-7147402 -198400,-7147373 -198339,-7147353 -198308,-7147354 -198260,-7147267 -198244,-7147254 -198237,-7147237 -198189,-7147228 -198156,-7147228 -198094,-7147212 -198076,-7147205 -198008,-7147192 -198024,-7147170 -198033,-7147162 -198044,-7147158 -198054,-7147148 -198055,-7147118 -198056,-7147101 -198066,-7147080 -198066,-7147041 -198074,-7147005 -198071,-7146987 -198061,-7146971 -198058,-7146967 -198056,-7146962 -198060,-7146925 -198032,-7146851 -198039,-7146831 -198084,-7146817 -198085,-7146803 -198080,-7146784 -198066,-7146772 -198059,-7146740 -198030,-7146725 -198008,-7146709 -198006,-7146703 -197997,-7146657 -197998,-7146635 -198015,-7146596 -198040,-7146542 -198038,-7146520 -198055,-7146465 -198081,-7146415 -198089,-7146396 -198081,-7146380 -198057,-7146351 -198042,-7146346 -198028,-7146327 -198024,-7146308 -198023,-7146272 -198008,-7146244 -198010,-7146203 -198003,-7146190 -198011,-7146177 -198013,-7146161 -198020,-7146149 -198019,-7146120 -198014,-7146105 -197991,-7146075 -197975,-7146061 -197979,-7146036 -197978,-7146028 -197977,-7146021 -197985,-7146006 -197961,-7145954 -197963,-7145925 -197952,-7145913 -197923,-7145903 -197903,-7145888 -197881,-7145864 -197853,-7145835 -197838,-7145817 -197816,-7145785 -197781,-7145758 -197766,-7145739 -197748,-7145725 -197712,-7145701 -197686,-7145678 -197650,-7145666 -197620,-7145647 -197594,-7145637 -197586,-7145636 -197575,-7145643 -197563,-7145663 -197553,-7145662 -197542,-7145649 -197527,-7145644 -197492,-7145643 -197462,-7145642 -197452,-7145625 -197445,-7145601 -197439,-7145567 -197428,-7145553 -197411,-7145546 -197379,-7145564 -197360,-7145569 -197348,-7145567 -197340,-7145558 -197340,-7145541 -197324,-7145513 -197305,-7145509 -197247,-7145447 -197241,-7145428 -197240,-7145398 -197264,-7145376 -197277,-7145357 -197276,-7145332 -197265,-7145323 -197244,-7145323 -197229,-7145328 -197219,-7145318 -197204,-7145294 -197180,-7145271 -197156,-7145256 -197123,-7145267 -197104,-7145268 -197094,-7145263 -197077,-7145234 -197047,-7145216 -197014,-7145218 -196999,-7145217 -196966,-7145207 -196953,-7145200 -196946,-7145194 -196942,-7145182 -196965,-7145175 -196979,-7145117 -196979,-7145082 -196975,-7145067 -196957,-7145054 -196943,-7145048 -196920,-7145063 -196906,-7145064 -196897,-7145061 -196858,-7145034 -196815,-7145014 -196797,-7145000 -196759,-7144968 -196751,-7144965 -196729,-7144964 -196714,-7144969 -196676,-7145002 -196660,-7145010 -196652,-7145007 -196651,-7144994 -196662,-7144976 -196654,-7144971 -196578,-7144974 -196567,-7144980 -196563,-7144985 -196558,-7144992 -196545,-7145001 -196485,-7145010 -196461,-7145010 -196433,-7145006 -196413,-7145006 -196400,-7145001 -196390,-7144943 -196386,-7144926 -196377,-7144912 -196359,-7144900 -196344,-7144900 -196333,-7144907 -196319,-7144908 -196306,-7144901 -196295,-7144884 -196297,-7144845 -196294,-7144821 -196283,-7144800 -196267,-7144788 -196243,-7144775 -196208,-7144756 -196199,-7144748 -196192,-7144738 -196185,-7144719 -196181,-7144703 -196165,-7144688 -196138,-7144681 -196116,-7144665 -196101,-7144647 -196079,-7144622 -196056,-7144614 -196045,-7144605 -196043,-7144602 -196040,-7144597 -196038,-7144591 -196046,-7144577 -196049,-7144563 -196045,-7144548 -196028,-7144516 -196024,-7144493 -196041,-7144462 -196042,-7144444 -196034,-7144416 -196033,-7144412 -196027,-7144401 -196020,-7144392 -196000,-7144378 -195979,-7144367 -195966,-7144371 -195965,-7144374 -195960,-7144388 -195936,-7144410 -195933,-7144413 -195929,-7144414 -195922,-7144414 -195909,-7144408 -195884,-7144383 -195821,-7144559 -195764,-7144730 -195696,-7144933 -195654,-7144922 -195640,-7144912 -195572,-7144903 -195478,-7144888 -195433,-7144874 -195418,-7144864 -195257,-7144825 -195230,-7144970 -195205,-7145097 -195138,-7145069 -195022,-7145026 -194983,-7145010 -194881,-7144963 -194829,-7144947 -194790,-7144945 -194654,-7144926 -194630,-7144909 -194580,-7144898 -194562,-7144890 -194551,-7144891 -194525,-7144879 -194368,-7144832 -194313,-7144805 -194243,-7144772 -194228,-7144773 -194215,-7144767 -194188,-7144741 -194232,-7144674 -194308,-7144578 -194351,-7144526 -194392,-7144482 -194404,-7144466 -194407,-7144448 -194412,-7144394 -194403,-7144324 -194362,-7144325 -194281,-7144317 -194193,-7144317 -194193,-7144310 -194135,-7144308 -194093,-7144309 -194059,-7144310 -194023,-7144318 -194017,-7144319 -193957,-7144336 -193898,-7144360 -193870,-7144372 -193736,-7144447 -193676,-7144482 -193569,-7144508 -193531,-7144526 -193520,-7144471 -193499,-7144368 -193275,-7144417 -193277,-7144444 -193272,-7144464 -193237,-7144465 -193202,-7144460 -193166,-7144453 -193150,-7144453 -193139,-7144452 -193131,-7144454 -193102,-7144468 -193007,-7144483 -192995,-7144478 -192985,-7144481 -192979,-7144485 -192967,-7144502 -192952,-7144509 -192922,-7144517 -192886,-7144535 -192842,-7144550 -192823,-7144555 -192800,-7144560 -192788,-7144564 -192776,-7144572 -192762,-7144583 -192732,-7144598 -192668,-7144610 -192669,-7144597 -192627,-7144597 -192562,-7144612 -192510,-7144618 -192481,-7144621 -192430,-7144626 -192410,-7144725 -192403,-7144761 -192400,-7144770 -192392,-7144776 -192379,-7144776 -192299,-7144770 -192218,-7144756 -192168,-7144762 -192129,-7144763 -192097,-7144756 -192066,-7144743 -192035,-7144730 -192023,-7144719 -192013,-7144695 -192008,-7144662 -191988,-7144643 -191967,-7144640 -191952,-7144640 -191890,-7144632 -191848,-7144618 -191816,-7144609 -191788,-7144603 -191737,-7144597 -191664,-7144593 -191657,-7144612 -191544,-7144582 -191523,-7144579 -191506,-7144607 -191416,-7144544 -191340,-7144466 -191297,-7144506 -191305,-7144513 -191285,-7144531 -191257,-7144539 -191153,-7144605 -191099,-7144650 -191083,-7144671 -191066,-7144690 -191013,-7144766 -190969,-7144836 -190944,-7144865 -190782,-7144745 -190736,-7144714 -190697,-7144687 -190663,-7144663 -190649,-7144652 -190587,-7144586 -190567,-7144558 -190550,-7144527 -190532,-7144470 -190488,-7144409 -190461,-7144405 -190435,-7144391 -190423,-7144382 -190394,-7144346 -190391,-7144349 -190351,-7144394 -190337,-7144419 -190317,-7144444 -190315,-7144456 -190284,-7144461 -190256,-7144459 -190201,-7144485 -190180,-7144498 -190183,-7144407 -190173,-7144354 -190172,-7144261 -190159,-7144261 -190160,-7144171 -190096,-7144143 -190077,-7144137 -190032,-7144103 -190016,-7144088 -189997,-7144051 -190035,-7144021 -190037,-7143999 -190023,-7143972 -189999,-7143960 -189978,-7143946 -189978,-7143889 -189918,-7143874 -189882,-7143871 -189830,-7143873 -189819,-7143834 -189814,-7143794 -189811,-7143739 -189758,-7143738 -189709,-7143741 -189683,-7143748 -189631,-7143752 -189569,-7143773 -189531,-7143790 -189482,-7143789 -189478,-7143692 -189485,-7143652 -189490,-7143576 -189483,-7143520 -189473,-7143466 -189460,-7143372 -189492,-7143374 -189483,-7143335 -189478,-7143279 -189433,-7143274 -189384,-7143270 -189227,-7143266 -189214,-7143156 -189209,-7143153 -189092,-7143183 -189044,-7143196 -189003,-7143205 -188956,-7143215 -188955,-7143217 -188897,-7143228 -188830,-7143241 -188749,-7143239 -188710,-7143230 -188696,-7143221 -188686,-7143186 -188697,-7143150 -188696,-7143110 -188702,-7143092 -188698,-7143033 -188696,-7142976 -188691,-7142969 -188697,-7142960 -188697,-7142846 -188691,-7142806 -188685,-7142795 -188661,-7142759 -188621,-7142714 -188608,-7142708 -188578,-7142518 -188570,-7142502 -188496,-7142379 -188469,-7142358 -188471,-7142354 -188520,-7142272 -188539,-7142224 -188552,-7142186 -188564,-7142126 -188566,-7142118 -188572,-7142072 -188575,-7142046 -188589,-7141930 -188598,-7141852 -188610,-7141816 -188613,-7141807 -188641,-7141780 -188676,-7141743 -188695,-7141717 -188704,-7141702 -188734,-7141604 -188809,-7141396 -188839,-7141324 -188852,-7141296 -188874,-7141271 -188903,-7141245 -188941,-7141220 -188959,-7141212 -188998,-7141194 -189078,-7141162 -189132,-7141130 -189172,-7141100 -189172,-7141095 -189224,-7141053 -189266,-7141023 -189295,-7140994 -189353,-7140931 -189373,-7140904 -189377,-7140858 -189388,-7140834 -189410,-7140797 -189452,-7140741 -189434,-7140726 -189469,-7140681 -189478,-7140665 -189488,-7140648 -189494,-7140611 -189498,-7140579 -189509,-7140545 -189535,-7140519 -189583,-7140466 -189609,-7140430 -189629,-7140394 -189652,-7140355 -189659,-7140337 -189650,-7140307 -189625,-7140220 -189619,-7140140 -189620,-7140121 -189598,-7140041 -189597,-7140003 -189601,-7139988 -189604,-7139905 -189612,-7139868 -189635,-7139805 -189668,-7139714 -189705,-7139619 -189750,-7139506 -189805,-7139369 -189630,-7139248 -189593,-7139224 -189628,-7139139 -189646,-7139114 -189670,-7139071 -189696,-7139016 -189721,-7138966 -189731,-7138929 -189747,-7138898 -189766,-7138868 -189768,-7138834 -189765,-7138794 -189742,-7138764 -189725,-7138744 -189726,-7138726 -189718,-7138706 -189721,-7138683 -189701,-7138654 -189704,-7138627 -189701,-7138589 -189657,-7138504 -189669,-7138478 -189700,-7138459 -189712,-7138442 -189713,-7138416 -189727,-7138393 -189751,-7138392 -189765,-7138396 -189787,-7138368 -189775,-7138328 -189773,-7138288 -189786,-7138252 -189789,-7138219 -189797,-7138182 -189817,-7138162 -189837,-7138151 -189843,-7138112 -189844,-7138079 -189870,-7138048 -189895,-7138008 -189915,-7137960 -189944,-7137880 -189940,-7137841 -189941,-7137838 -189943,-7137832 -189947,-7137825 -189953,-7137819 -189967,-7137810 -189972,-7137806 -189977,-7137799 -189981,-7137791 -189984,-7137782 -189985,-7137774 -189984,-7137766 -189982,-7137758 -189979,-7137751 -189975,-7137745 -189970,-7137739 -189965,-7137735 -189942,-7137728 -189930,-7137720 -189924,-7137715 -189918,-7137708 -189911,-7137699 -189907,-7137690 -189903,-7137680 -189901,-7137667 -189886,-7137641 -189868,-7137617 -189862,-7137583 -189864,-7137561 -189873,-7137498 -189890,-7137438 -189898,-7137403 -189915,-7137370 -189939,-7137354 -189952,-7137333 -189937,-7137311 -189914,-7137294 -189924,-7137279 -189923,-7137253 -189930,-7137226 -189938,-7137222 -189942,-7137219 -189946,-7137212 -189947,-7137206 -189946,-7137199 -189935,-7137185 -189923,-7137174 -189914,-7137169 -189900,-7137149 -189892,-7137135 -189885,-7137120 -189882,-7137097 -189876,-7137076 -189886,-7137051 -189870,-7137028 -189847,-7137004 -189846,-7136985 -189837,-7136965 -189847,-7136940 -189862,-7136918 -189870,-7136914 -189866,-7136889 -189846,-7136879 -189848,-7136836 -189823,-7136815 -189800,-7136768 -189796,-7136740 -189804,-7136715 -189809,-7136695 -189823,-7136678 -189826,-7136658 -189841,-7136646 -189852,-7136635 -189830,-7136617 -189813,-7136599 -189828,-7136589 -189839,-7136574 -189828,-7136559 -189838,-7136530 -189839,-7136514 -189851,-7136503 -189848,-7136492 -189869,-7136474 -189889,-7136454 -189887,-7136436 -189898,-7136422 -189887,-7136413 -189889,-7136379 -189873,-7136355 -189873,-7136353 -189879,-7136335 -189895,-7136309 -189899,-7136293 -189903,-7136278 -189905,-7136234 -189926,-7136222 -189922,-7136196 -189928,-7136178 -189938,-7136164 -189941,-7136141 -189951,-7136129 -189945,-7136115 -189946,-7136094 -189971,-7136043 -189974,-7136004 -189979,-7135960 -189992,-7135916 -189984,-7135877 -189996,-7135806 -190017,-7135729 -190026,-7135670 -190070,-7135527 -190092,-7135440 -190109,-7135356 -190127,-7135344 -190135,-7135327 -190132,-7135274 -190122,-7135259 -190128,-7135225 -190129,-7135212 -190124,-7135180 -190124,-7135162 -190124,-7135153 -190139,-7135116 -190143,-7135087 -190137,-7135033 -190129,-7134995 -190127,-7134974 -190121,-7134943 -190100,-7134926 -190075,-7134914 -190035,-7134822 -190022,-7134784 -190011,-7134736 -190022,-7134699 -190037,-7134657 -190042,-7134619 -190070,-7134552 -190077,-7134533 -190083,-7134489 -190088,-7134463 -190098,-7134433 -190119,-7134408 -190131,-7134351 -190129,-7134317 -190166,-7134272 -190169,-7134249 -190141,-7134220 -190135,-7134215 -190110,-7134197 -190091,-7134188 -190085,-7134126 -190077,-7134069 -190058,-7133987 -190035,-7133912 -189969,-7133763 -189936,-7133648 -189925,-7133593 -189915,-7133521 -189913,-7133464 -189914,-7133416 -189916,-7133395 -189923,-7133349 -189931,-7133301 -189937,-7133277 -189951,-7133221 -189979,-7133138 -189831,-7133062 -189674,-7132979 -189584,-7132935 -189451,-7132868 -189439,-7132861 -189387,-7132844 -189385,-7132795 -189576,-7132730 -189620,-7132718 -189653,-7132710 -189639,-7132674 -189650,-7132651 -189705,-7132502 -189757,-7132384 -189936,-7131938 -189966,-7131862 -190021,-7131716 -190052,-7131638 -190110,-7131495 -190192,-7131295 -190242,-7131187 -190286,-7131107 -190321,-7131072 -190346,-7131030 -190349,-7131025 -190461,-7130820 -190467,-7130815 -190478,-7130791 -190401,-7130754 -190365,-7130729 -190330,-7130705 -190308,-7130684 -190290,-7130667 -190214,-7130597 -190179,-7130554 -190127,-7130470 -190103,-7130428 -190078,-7130353 -190055,-7130267 -190046,-7130186 -190046,-7130101 -190055,-7130043 -190071,-7129977 -190085,-7129940 -190101,-7129915 -190101,-7129894 -190119,-7129861 -190199,-7129747 -190208,-7129720 -190356,-7129509 -190439,-7129386 -190472,-7129347 -190581,-7129197 -190578,-7129178 -190471,-7129167 -190380,-7129164 -190330,-7129169 -190322,-7129170 -190171,-7129185 -190079,-7129192 -189827,-7129213 -189794,-7129225 -189773,-7129225 -189624,-7129246 -189532,-7129259 -189455,-7129265 -189425,-7129263 -189375,-7129258 -189325,-7129295 -189275,-7129317 -189243,-7129315 -189200,-7129326 -189189,-7129333 -189114,-7129353 -189034,-7129353 -188923,-7129395 -188838,-7129381 -188810,-7129385 -188776,-7129401 -188738,-7129404 -188715,-7129406 -188687,-7129397 -188677,-7129406 -188660,-7129407 -188646,-7129418 -188626,-7129419 -188615,-7129411 -188607,-7129416 -188582,-7129413 -188567,-7129417 -188534,-7129417 -188525,-7129421 -188516,-7129418 -188490,-7129425 -188480,-7129438 -188459,-7129438 -188440,-7129457 -188428,-7129459 -188401,-7129472 -188401,-7129488 -188360,-7129505 -188323,-7129518 -188288,-7129546 -188269,-7129546 -188251,-7129561 -188227,-7129564 -188214,-7129555 -188209,-7129558 -188205,-7129561 -188198,-7129577 -188180,-7129577 -188168,-7129581 -188156,-7129575 -188152,-7129582 -188118,-7129586 -188091,-7129583 -188060,-7129590 -188046,-7129600 -188027,-7129608 -188003,-7129600 -187995,-7129603 -187992,-7129603 -187980,-7129611 -187975,-7129618 -187975,-7129627 -187966,-7129637 -187944,-7129636 -187935,-7129641 -187935,-7129677 -187923,-7129689 -187839,-7129690 -187787,-7129659 -187741,-7129634 -187718,-7129630 -187692,-7129599 -187678,-7129591 -187662,-7129595 -187657,-7129603 -187615,-7129626 -187606,-7129641 -187578,-7129644 -187496,-7129669 -187463,-7129695 -187438,-7129729 -187427,-7129732 -187428,-7129740 -187423,-7129749 -187392,-7129764 -187386,-7129768 -187381,-7129771 -187364,-7129790 -187344,-7129794 -187327,-7129805 -187269,-7129809 -187270,-7129792 -187262,-7129772 -187242,-7129746 -187247,-7129720 -187244,-7129705 -187229,-7129689 -187230,-7129664 -187219,-7129632 -187223,-7129592 -187221,-7129572 -187216,-7129555 -187216,-7129536 -187209,-7129520 -187196,-7129515 -187157,-7129494 -187159,-7129435 -187124,-7129393 -187119,-7129386 -187111,-7129379 -187104,-7129382 -187094,-7129398 -187087,-7129398 -187069,-7129382 -187059,-7129366 -187058,-7129338 -187050,-7129312 -187051,-7129279 -187046,-7129268 -187043,-7129268 -187030,-7129296 -187021,-7129301 -187010,-7129301 -186995,-7129285 -186996,-7129262 -186991,-7129247 -187005,-7129240 -187012,-7129234 -187003,-7129227 -186984,-7129223 -186960,-7129223 -186952,-7129218 -186955,-7129208 -186952,-7129197 -186943,-7129199 -186931,-7129214 -186924,-7129214 -186921,-7129207 -186922,-7129196 -186933,-7129190 -186932,-7129187 -186915,-7129172 -186914,-7129161 -186925,-7129153 -186928,-7129147 -186911,-7129137 -186901,-7129136 -186893,-7129125 -186883,-7129125 -186880,-7129130 -186879,-7129144 -186873,-7129154 -186866,-7129150 -186859,-7129133 -186846,-7129132 -186839,-7129126 -186848,-7129103 -186846,-7129090 -186798,-7129053 -186778,-7129052 -186752,-7129046 -186746,-7129038 -186746,-7129023 -186761,-7128999 -186776,-7128997 -186788,-7128987 -186783,-7128981 -186754,-7128966 -186744,-7128976 -186723,-7128976 -186717,-7128968 -186717,-7128957 -186729,-7128953 -186735,-7128944 -186735,-7128929 -186728,-7128916 -186697,-7128906 -186695,-7128900 -186701,-7128894 -186722,-7128894 -186705,-7128876 -186683,-7128869 -186654,-7128863 -186646,-7128858 -186673,-7128838 -186665,-7128831 -186648,-7128831 -186636,-7128838 -186638,-7128849 -186633,-7128856 -186621,-7128852 -186615,-7128843 -186623,-7128827 -186618,-7128820 -186604,-7128826 -186575,-7128812 -186555,-7128794 -186558,-7128780 -186576,-7128779 -186589,-7128774 -186594,-7128762 -186592,-7128750 -186585,-7128748 -186573,-7128757 -186564,-7128756 -186563,-7128735 -186582,-7128713 -186580,-7128705 -186573,-7128705 -186563,-7128711 -186554,-7128705 -186562,-7128691 -186563,-7128682 -186546,-7128665 -186533,-7128667 -186507,-7128683 -186498,-7128674 -186498,-7128661 -186472,-7128659 -186454,-7128669 -186436,-7128669 -186420,-7128655 -186420,-7128645 -186429,-7128630 -186426,-7128627 -186409,-7128625 -186410,-7128634 -186400,-7128641 -186397,-7128640 -186375,-7128639 -186382,-7128610 -186374,-7128601 -186367,-7128602 -186360,-7128609 -186364,-7128632 -186355,-7128636 -186354,-7128652 -186325,-7128652 -186325,-7128659 -186334,-7128665 -186334,-7128673 -186319,-7128672 -186314,-7128671 -186310,-7128669 -186307,-7128666 -186300,-7128651 -186303,-7128637 -186304,-7128623 -186295,-7128612 -186268,-7128613 -186255,-7128617 -186238,-7128634 -186233,-7128635 -186224,-7128626 -186223,-7128602 -186228,-7128588 -186228,-7128577 -186222,-7128572 -186214,-7128578 -186211,-7128594 -186203,-7128605 -186196,-7128604 -186184,-7128589 -186170,-7128587 -186154,-7128592 -186145,-7128562 -186137,-7128556 -186125,-7128562 -186102,-7128563 -186114,-7128597 -186077,-7128594 -186072,-7128587 -186055,-7128584 -186032,-7128572 -185975,-7128527 -185958,-7128525 -185947,-7128535 -185918,-7128537 -185902,-7128547 -185885,-7128548 -185864,-7128535 -185838,-7128541 -185822,-7128527 -185810,-7128526 -185803,-7128532 -185794,-7128531 -185788,-7128523 -185787,-7128507 -185766,-7128481 -185755,-7128483 -185746,-7128505 -185712,-7128487 -185710,-7128480 -185711,-7128470 -185681,-7128455 -185660,-7128454 -185638,-7128470 -185621,-7128502 -185610,-7128521 -185582,-7128529 -185573,-7128528 -185569,-7128521 -185566,-7128511 -185559,-7128503 -185544,-7128502 -185508,-7128515 -185501,-7128534 -185496,-7128549 -185461,-7128559 -185419,-7128585 -185373,-7128611 -185355,-7128615 -185328,-7128614 -185291,-7128621 -185279,-7128613 -185279,-7128587 -185275,-7128573 -185256,-7128558 -185245,-7128558 -185239,-7128562 -185239,-7128567 -185231,-7128573 -185166,-7128587 -185125,-7128589 -185107,-7128578 -185095,-7128566 -185073,-7128560 -185035,-7128560 -185027,-7128558 -185007,-7128554 -184991,-7128549 -184976,-7128540 -184969,-7128544 -184969,-7128558 -184972,-7128565 -184972,-7128572 -184967,-7128578 -184934,-7128577 -184915,-7128575 -184896,-7128579 -184890,-7128574 -184884,-7128566 -184883,-7128540 -184872,-7128528 -184862,-7128524 -184850,-7128532 -184839,-7128549 -184835,-7128559 -184835,-7128577 -184832,-7128581 -184830,-7128584 -184804,-7128582 -184787,-7128581 -184759,-7128566 -184738,-7128546 -184720,-7128536 -184693,-7128539 -184658,-7128558 -184646,-7128560 -184628,-7128560 -184605,-7128552 -184580,-7128557 -184552,-7128575 -184545,-7128594 -184524,-7128610 -184475,-7128627 -184462,-7128644 -184453,-7128640 -184444,-7128630 -184442,-7128620 -184449,-7128608 -184485,-7128575 -184486,-7128567 -184480,-7128558 -184463,-7128558 -184452,-7128564 -184438,-7128567 -184383,-7128593 -184365,-7128597 -184346,-7128596 -184330,-7128589 -184317,-7128572 -184308,-7128560 -184303,-7128557 -184290,-7128550 -184272,-7128548 -184230,-7128551 -184208,-7128563 -184182,-7128559 -184154,-7128546 -184142,-7128546 -184117,-7128554 -184103,-7128555 -184094,-7128545 -184051,-7128548 -184038,-7128544 -183997,-7128547 -183953,-7128540 -183906,-7128541 -183899,-7128548 -183895,-7128558 -183894,-7128563 -183875,-7128574 -183862,-7128573 -183854,-7128567 -183849,-7128557 -183843,-7128539 -183835,-7128536 -183827,-7128541 -183819,-7128553 -183819,-7128633 -183813,-7128637 -183795,-7128638 -183778,-7128629 -183778,-7128614 -183786,-7128600 -183785,-7128578 -183778,-7128569 -183761,-7128565 -183738,-7128553 -183726,-7128555 -183716,-7128567 -183707,-7128596 -183698,-7128601 -183689,-7128598 -183676,-7128583 -183676,-7128552 -183668,-7128544 -183654,-7128546 -183624,-7128568 -183595,-7128582 -183571,-7128585 -183563,-7128582 -183560,-7128575 -183564,-7128539 -183554,-7128531 -183528,-7128540 -183511,-7128543 -183505,-7128551 -183501,-7128581 -183499,-7128588 -183494,-7128593 -183480,-7128592 -183465,-7128585 -183456,-7128574 -183448,-7128539 -183442,-7128521 -183432,-7128513 -183419,-7128513 -183410,-7128519 -183394,-7128525 -183387,-7128535 -183370,-7128567 -183360,-7128569 -183350,-7128558 -183349,-7128537 -183341,-7128521 -183324,-7128521 -183307,-7128533 -183279,-7128545 -183256,-7128539 -183235,-7128538 -183219,-7128550 -183209,-7128575 -183207,-7128587 -183200,-7128599 -183200,-7128614 -183210,-7128638 -183212,-7128648 -183204,-7128654 -183161,-7128652 -183140,-7128630 -183131,-7128630 -183117,-7128644 -183108,-7128644 -183094,-7128631 -183090,-7128606 -183081,-7128597 -183075,-7128581 -183069,-7128558 -183033,-7128563 -183015,-7128542 -183016,-7128524 -183000,-7128526 -182979,-7128531 -182980,-7128542 -182988,-7128561 -182985,-7128564 -182974,-7128564 -182960,-7128557 -182945,-7128545 -182931,-7128546 -182924,-7128547 -182918,-7128550 -182908,-7128557 -182909,-7128570 -182915,-7128579 -182915,-7128593 -182909,-7128603 -182899,-7128603 -182874,-7128588 -182862,-7128588 -182858,-7128590 -182859,-7128597 -182870,-7128613 -182871,-7128628 -182862,-7128636 -182827,-7128633 -182799,-7128617 -182764,-7128603 -182754,-7128593 -182746,-7128578 -182747,-7128560 -182740,-7128548 -182726,-7128536 -182713,-7128536 -182699,-7128557 -182698,-7128580 -182692,-7128593 -182639,-7128591 -182633,-7128596 -182624,-7128587 -182624,-7128586 -182617,-7128575 -182611,-7128563 -182609,-7128540 -182609,-7128488 -182621,-7128470 -182624,-7128461 -182620,-7128451 -182606,-7128424 -182607,-7128397 -182612,-7128383 -182623,-7128374 -182635,-7128367 -182639,-7128360 -182639,-7128352 -182635,-7128347 -182616,-7128339 -182608,-7128327 -182608,-7128314 -182613,-7128306 -182613,-7128300 -182601,-7128284 -182607,-7128277 -182634,-7128278 -182637,-7128272 -182638,-7128257 -182644,-7128234 -182641,-7128224 -182641,-7128213 -182646,-7128204 -182642,-7128199 -182624,-7128197 -182615,-7128189 -182615,-7128179 -182618,-7128174 -182618,-7128165 -182608,-7128147 -182608,-7128122 -182610,-7128116 -182631,-7128117 -182640,-7128113 -182647,-7128102 -182648,-7128082 -182652,-7128068 -182665,-7128054 -182665,-7128046 -182649,-7128039 -182635,-7128033 -182620,-7128032 -182615,-7128027 -182612,-7127999 -182622,-7127993 -182628,-7127989 -182635,-7127979 -182636,-7127957 -182624,-7127923 -182607,-7127902 -182613,-7127894 -182624,-7127895 -182641,-7127903 -182657,-7127901 -182665,-7127898 -182665,-7127886 -182648,-7127858 -182657,-7127845 -182660,-7127833 -182632,-7127833 -182630,-7127802 -182629,-7127784 -182634,-7127771 -182653,-7127749 -182655,-7127692 -182669,-7127685 -182692,-7127659 -182692,-7127646 -182685,-7127642 -182656,-7127645 -182649,-7127642 -182650,-7127631 -182664,-7127619 -182668,-7127611 -182670,-7127577 -182662,-7127557 -182663,-7127534 -182688,-7127530 -182698,-7127523 -182707,-7127488 -182702,-7127481 -182680,-7127483 -182666,-7127471 -182663,-7127455 -182644,-7127437 -182644,-7127423 -182659,-7127405 -182677,-7127400 -182682,-7127393 -182680,-7127355 -182687,-7127352 -182706,-7127352 -182727,-7127359 -182742,-7127359 -182752,-7127352 -182748,-7127340 -182749,-7127331 -182755,-7127319 -182756,-7127309 -182761,-7127304 -182794,-7127297 -182823,-7127297 -182831,-7127290 -182831,-7127282 -182796,-7127247 -182797,-7127241 -182810,-7127234 -182817,-7127224 -182818,-7127212 -182798,-7127211 -182784,-7127206 -182784,-7127193 -182801,-7127180 -182814,-7127174 -182833,-7127170 -182838,-7127177 -182852,-7127210 -182859,-7127217 -182865,-7127215 -182870,-7127199 -182887,-7127199 -182887,-7127188 -182869,-7127172 -182868,-7127164 -182873,-7127164 -182900,-7127168 -182908,-7127161 -182909,-7127150 -182920,-7127142 -182937,-7127141 -182972,-7127144 -182974,-7127131 -182982,-7127123 -182999,-7127116 -183043,-7127116 -183061,-7127111 -183065,-7127108 -183065,-7127098 -183053,-7127091 -183054,-7127085 -183057,-7127082 -183076,-7127083 -183096,-7127080 -183110,-7127077 -183116,-7127073 -183140,-7127049 -183146,-7127027 -183151,-7127022 -183158,-7127023 -183168,-7127027 -183182,-7127031 -183200,-7127034 -183209,-7127029 -183219,-7127021 -183221,-7127009 -183234,-7127002 -183254,-7127002 -183284,-7126985 -183285,-7126984 -183288,-7126964 -183289,-7126960 -183323,-7126922 -183333,-7126916 -183341,-7126911 -183348,-7126891 -183347,-7126879 -183347,-7126867 -183350,-7126864 -183365,-7126852 -183379,-7126840 -183384,-7126835 -183373,-7126827 -183373,-7126819 -183378,-7126816 -183389,-7126807 -183405,-7126801 -183405,-7126820 -183408,-7126820 -183416,-7126820 -183440,-7126780 -183440,-7126772 -183440,-7126771 -183440,-7126769 -183440,-7126755 -183418,-7126754 -183411,-7126744 -183416,-7126737 -183429,-7126729 -183447,-7126711 -183455,-7126698 -183458,-7126692 -183465,-7126685 -183477,-7126674 -183481,-7126670 -183490,-7126668 -183501,-7126679 -183502,-7126680 -183519,-7126660 -183526,-7126645 -183548,-7126624 -183559,-7126603 -183617,-7126546 -183617,-7126536 -183628,-7126527 -183628,-7126520 -183604,-7126501 -183603,-7126482 -183595,-7126478 -183592,-7126468 -183596,-7126460 -183612,-7126447 -183613,-7126434 -183627,-7126424 -183638,-7126419 -183645,-7126412 -183644,-7126400 -183641,-7126393 -183629,-7126381 -183628,-7126377 -183637,-7126375 -183670,-7126376 -183673,-7126376 -183674,-7126376 -183673,-7126375 -183680,-7126351 -183697,-7126332 -183701,-7126313 -183702,-7126307 -183714,-7126300 -183725,-7126301 -183724,-7126310 -183724,-7126319 -183724,-7126321 -183730,-7126327 -183736,-7126327 -183743,-7126323 -183745,-7126322 -183757,-7126314 -183764,-7126308 -183784,-7126289 -183785,-7126289 -183782,-7126279 -183781,-7126273 -183791,-7126270 -183809,-7126251 -183818,-7126250 -183818,-7126260 -183824,-7126262 -183829,-7126265 -183831,-7126266 -183833,-7126265 -183844,-7126254 -183846,-7126252 -183843,-7126249 -183841,-7126248 -183842,-7126236 -183856,-7126219 -183864,-7126221 -183881,-7126232 -183891,-7126231 -183886,-7126204 -183882,-7126187 -183867,-7126158 -183875,-7126144 -183902,-7126129 -183929,-7126110 -183949,-7126096 -183992,-7126078 -184015,-7126062 -184042,-7126076 -184068,-7126078 -184087,-7126065 -184141,-7126062 -184173,-7126058 -184190,-7126061 -184202,-7126079 -184217,-7126093 -184232,-7126102 -184251,-7126110 -184255,-7126126 -184245,-7126141 -184262,-7126147 -184277,-7126129 -184309,-7126153 -184320,-7126138 -184335,-7126141 -184354,-7126181 -184371,-7126179 -184385,-7126188 -184389,-7126196 -184393,-7126197 -184399,-7126198 -184406,-7126197 -184410,-7126196 -184424,-7126180 -184430,-7126179 -184438,-7126176 -184442,-7126172 -184446,-7126165 -184450,-7126160 -184459,-7126163 -184475,-7126164 -184487,-7126157 -184497,-7126157 -184513,-7126165 -184529,-7126166 -184557,-7126155 -184573,-7126161 -184588,-7126194 -184610,-7126194 -184628,-7126194 -184642,-7126189 -184684,-7126183 -184693,-7126174 -184716,-7126198 -184747,-7126200 -184760,-7126179 -184777,-7126193 -184790,-7126180 -184839,-7126186 -184849,-7126166 -184864,-7126162 -184898,-7126166 -184903,-7126161 -184919,-7126156 -184929,-7126137 -184958,-7126157 -184978,-7126134 -184969,-7126127 -184980,-7126104 -185010,-7126100 -185016,-7126108 -185030,-7126103 -185040,-7126110 -185043,-7126123 -185057,-7126118 -185068,-7126118 -185088,-7126107 -185115,-7126104 -185104,-7126089 -185115,-7126088 -185131,-7126075 -185144,-7126070 -185136,-7126057 -185122,-7126045 -185122,-7126037 -185133,-7126037 -185151,-7126018 -185159,-7126008 -185167,-7126000 -185182,-7125989 -185169,-7125949 -185177,-7125949 -185183,-7125940 -185193,-7125928 -185181,-7125911 -185194,-7125897 -185191,-7125875 -185201,-7125855 -185198,-7125813 -185207,-7125791 -185213,-7125779 -185229,-7125772 -185245,-7125747 -185263,-7125740 -185273,-7125725 -185283,-7125707 -185292,-7125691 -185315,-7125670 -185317,-7125655 -185348,-7125650 -185346,-7125626 -185361,-7125621 -185371,-7125597 -185374,-7125592 -185379,-7125588 -185386,-7125578 -185403,-7125575 -185407,-7125557 -185436,-7125540 -185447,-7125527 -185469,-7125508 -185485,-7125493 -185494,-7125492 -185510,-7125476 -185518,-7125471 -185527,-7125467 -185534,-7125464 -185565,-7125448 -185587,-7125437 -185597,-7125427 -185610,-7125420 -185621,-7125419 -185630,-7125415 -185648,-7125397 -185666,-7125393 -185681,-7125384 -185699,-7125362 -185724,-7125355 -185730,-7125346 -185742,-7125345 -185759,-7125334 -185775,-7125334 -185787,-7125314 -185812,-7125302 -185822,-7125291 -185833,-7125287 -185859,-7125263 -185886,-7125252 -185902,-7125235 -185930,-7125230 -185969,-7125238 -185982,-7125243 -185996,-7125243 -186003,-7125249 -186022,-7125244 -186033,-7125235 -186050,-7125230 -186064,-7125215 -186110,-7125206 -186124,-7125211 -186145,-7125210 -186160,-7125234 -186177,-7125238 -186178,-7125229 -186228,-7125227 -186236,-7125220 -186260,-7125217 -186269,-7125204 -186273,-7125186 -186287,-7125190 -186318,-7125171 -186333,-7125153 -186335,-7125140 -186369,-7125117 -186366,-7125111 -186389,-7125093 -186389,-7125074 -186395,-7125057 -186413,-7125042 -186435,-7125029 -186441,-7125011 -186446,-7125012 -186455,-7125015 -186460,-7125007 -186466,-7125003 -186472,-7124991 -186482,-7124979 -186493,-7124978 -186502,-7124984 -186504,-7124980 -186504,-7124965 -186517,-7124947 -186541,-7124932 -186611,-7124916 -186645,-7124907 -186652,-7124900 -186662,-7124886 -186679,-7124869 -186695,-7124859 -186715,-7124854 -186731,-7124861 -186750,-7124813 -186755,-7124775 -186757,-7124768 -186761,-7124749 -186772,-7124723 -186787,-7124705 -186825,-7124674 -186856,-7124635 -186884,-7124589 -186898,-7124579 -186926,-7124530 -186955,-7124479 -187001,-7124413 -187037,-7124396 -187086,-7124316 -187134,-7124259 -187197,-7124168 -187203,-7124173 -187239,-7124198 -187367,-7124283 -187451,-7124327 -187506,-7124357 -187552,-7124381 -187610,-7124409 -187757,-7124474 -187772,-7124434 -187779,-7124436 -187795,-7124397 -187937,-7124453 -188059,-7124497 -188190,-7124547 -188199,-7124531 -188206,-7124536 -188084,-7124753 -188125,-7124799 -188129,-7124804 -188128,-7124806 -188127,-7124823 -188134,-7124826 -188197,-7124862 -188262,-7124895 -188289,-7124903 -188352,-7124919 -188361,-7124927 -188388,-7124935 -188413,-7124945 -188434,-7124958 -188471,-7124973 -188505,-7124980 -188536,-7124971 -188555,-7124966 -188565,-7124985 -188601,-7125009 -188626,-7125027 -188635,-7125052 -188659,-7125073 -188661,-7125075 -188669,-7125089 -188672,-7125095 -188676,-7125111 -188677,-7125110 -188702,-7125105 -188762,-7125158 -188774,-7125168 -188723,-7125203 -188722,-7125210 -188733,-7125211 -188775,-7125214 -188785,-7125215 -188838,-7125232 -188925,-7125265 -188990,-7125301 -188997,-7125290 -189004,-7125295 -189033,-7125319 -189086,-7125356 -189147,-7125409 -189197,-7125444 -189219,-7125459 -189300,-7125516 -189337,-7125544 -189413,-7125599 -189453,-7125559 -189461,-7125568 -189528,-7125651 -189570,-7125601 -189575,-7125606 -189630,-7125649 -189651,-7125663 -189692,-7125691 -189780,-7125743 -189786,-7125746 -189790,-7125738 -189833,-7125701 -189930,-7125624 -190011,-7125562 -190048,-7125532 -190055,-7125518 -190056,-7125516 -190064,-7125496 -190073,-7125480 -190073,-7125479 -190075,-7125475 -190077,-7125471 -190079,-7125466 -190082,-7125462 -190084,-7125458 -190086,-7125456 -190088,-7125452 -190091,-7125448 -190094,-7125444 -190097,-7125441 -190100,-7125437 -190104,-7125434 -190140,-7125400 -190220,-7125330 -190257,-7125298 -190329,-7125336 -190376,-7125358 -190395,-7125364 -190426,-7125370 -190457,-7125366 -190597,-7125325 -190663,-7125316 -190762,-7125326 -190849,-7125296 -190824,-7125253 -190813,-7125234 -190789,-7125214 -190768,-7125155 -190901,-7125096 -191237,-7124917 -191256,-7124952 -191284,-7124931 -191310,-7124909 -191293,-7124889 -191321,-7124868 -191340,-7124852 -191359,-7124834 -191391,-7124800 -191411,-7124758 -191420,-7124743 -191430,-7124749 -191439,-7124753 -191448,-7124755 -191456,-7124755 -191462,-7124754 -191475,-7124749 -191498,-7124747 -191506,-7124744 -191521,-7124738 -191535,-7124730 -191545,-7124722 -191559,-7124708 -191603,-7124672 -191637,-7124670 -191649,-7124669 -191673,-7124641 -191695,-7124621 -191703,-7124620 -191707,-7124619 -191712,-7124617 -191716,-7124613 -191719,-7124609 -191720,-7124605 -191721,-7124596 -191724,-7124589 -191728,-7124581 -191732,-7124575 -191737,-7124571 -191748,-7124565 -191779,-7124503 -191779,-7124491 -191780,-7124484 -191783,-7124477 -191786,-7124473 -191789,-7124470 -191799,-7124463 -191814,-7124455 -191834,-7124448 -191840,-7124444 -191848,-7124437 -191854,-7124429 -191859,-7124420 -191863,-7124410 -191867,-7124389 -191870,-7124376 -191877,-7124360 -191882,-7124349 -191885,-7124345 -191891,-7124340 -191899,-7124335 -191907,-7124332 -191919,-7124329 -191927,-7124327 -191935,-7124323 -191940,-7124320 -191947,-7124313 -191963,-7124286 -191964,-7124276 -191964,-7124266 -191959,-7124265 -191955,-7124264 -191950,-7124258 -191949,-7124254 -191949,-7124251 -191951,-7124248 -191953,-7124245 -191957,-7124243 -191961,-7124242 -191965,-7124242 -191972,-7124244 -191977,-7124243 -191982,-7124241 -191985,-7124237 -191987,-7124233 -191988,-7124228 -191986,-7124219 -191987,-7124211 -191991,-7124202 -191997,-7124195 -192002,-7124192 -192008,-7124190 -192016,-7124189 -192029,-7124189 -192045,-7124186 -192032,-7124167 -192031,-7124164 -192031,-7124160 -192032,-7124157 -192034,-7124155 -192039,-7124150 -192045,-7124147 -192055,-7124146 -192062,-7124144 -192065,-7124141 -192068,-7124138 -192070,-7124133 -192070,-7124125 -192074,-7124120 -192079,-7124115 -192092,-7124110 -192090,-7124097 -192104,-7124073 -192104,-7124054 -192115,-7124034 -192124,-7123998 -192137,-7123960 -192142,-7123952 -192154,-7123934 -192178,-7123911 -192193,-7123902 -192197,-7123856 -192190,-7123828 -192206,-7123804 -192184,-7123781 -192181,-7123778 -192179,-7123773 -192178,-7123769 -192179,-7123760 -192180,-7123757 -192187,-7123748 -192195,-7123745 -192201,-7123743 -192213,-7123729 -192224,-7123720 -192231,-7123705 -192221,-7123674 -192209,-7123666 -192210,-7123644 -192227,-7123634 -192240,-7123603 -192262,-7123603 -192265,-7123594 -192271,-7123574 -192280,-7123541 -192291,-7123521 -192283,-7123503 -192280,-7123492 -192280,-7123489 -192282,-7123486 -192285,-7123484 -192290,-7123483 -192296,-7123485 -192301,-7123478 -192307,-7123471 -192320,-7123444 -192331,-7123430 -192344,-7123432 -192344,-7123409 -192348,-7123398 -192365,-7123400 -192372,-7123382 -192371,-7123361 -192377,-7123351 -192387,-7123342 -192396,-7123314 -192404,-7123296 -192421,-7123299 -192442,-7123267 -192439,-7123251 -192451,-7123242 -192486,-7123244 -192507,-7123243 -192520,-7123251 -192531,-7123200 -192549,-7123213 -192563,-7123227 -192582,-7123216 -192600,-7123211 -192606,-7123199 -192626,-7123195 -192630,-7123176 -192627,-7123157 -192643,-7123141 -192663,-7123145 -192673,-7123130 -192684,-7123106 -192683,-7123085 -192666,-7123076 -192667,-7123063 -192682,-7123044 -192697,-7123013 -192713,-7122976 -192716,-7122958 -192715,-7122934 -192725,-7122920 -192735,-7122906 -192758,-7122879 -192786,-7122862 -192799,-7122833 -192816,-7122807 -192842,-7122785 -192862,-7122783 -192895,-7122747 -192918,-7122761 -192933,-7122758 -192935,-7122740 -192933,-7122711 -192951,-7122670 -192997,-7122633 -193018,-7122611 -193009,-7122589 -193013,-7122583 -193035,-7122551 -193045,-7122523 -193044,-7122511 -193043,-7122500 -193038,-7122476 -193021,-7122443 -193001,-7122371 -193001,-7122370 -193015,-7122362 -193068,-7122374 -193091,-7122384 -193123,-7122394 -193169,-7122407 -193185,-7122409 -193213,-7122411 -193248,-7122416 -193280,-7122417 -193284,-7122418 -193316,-7122421 -193321,-7122445 -193325,-7122454 -193332,-7122454 -193341,-7122450 -193347,-7122447 -193356,-7122444 -193372,-7122443 -193381,-7122446 -193388,-7122456 -193396,-7122463 -193420,-7122460 -193430,-7122444 -193433,-7122440 -193447,-7122438 -193465,-7122437 -193491,-7122442 -193514,-7122457 -193563,-7122481 -193575,-7122493 -193596,-7122504 -193622,-7122508 -193665,-7122499 -193675,-7122502 -193683,-7122508 -193687,-7122516 -193691,-7122525 -193695,-7122534 -193715,-7122541 -193749,-7122554 -193768,-7122557 -193786,-7122557 -193796,-7122534 -193814,-7122487 -193907,-7122448 -193927,-7122457 -193970,-7122448 -194004,-7122403 -194017,-7122413 -194027,-7122425 -194043,-7122459 -194059,-7122467 -194144,-7122459 -194181,-7122446 -194198,-7122437 -194202,-7122451 -194250,-7122431 -194287,-7122423 -194312,-7122411 -194329,-7122408 -194384,-7122418 -194416,-7122445 -194433,-7122447 -194443,-7122435 -194442,-7122409 -194458,-7122382 -194500,-7122351 -194514,-7122327 -194501,-7122294 -194459,-7122195 -194436,-7122130 -194431,-7122116 -194416,-7122060 -194405,-7122007 -194369,-7121821 -194356,-7121763 -194402,-7121731 -194467,-7121668 -194501,-7121625 -194528,-7121582 -194347,-7121502 -194357,-7121471 -194371,-7121405 -194388,-7121288 -194414,-7121156 -194415,-7121139 -194420,-7121134 -194439,-7121057 -194454,-7121002 -194459,-7120975 -194459,-7120931 -194452,-7120909 -194463,-7120887 -194467,-7120828 -194466,-7120782 -194471,-7120760 -194486,-7120735 -194490,-7120723 -194492,-7120690 -194490,-7120669 -194476,-7120618 -194450,-7120530 -194449,-7120498 -194438,-7120488 -194417,-7120415 -194418,-7120392 -194405,-7120342 -194401,-7120319 -194386,-7120209 -194373,-7120101 -194367,-7120090 -194352,-7120031 -194373,-7120010 -194404,-7120012 -194458,-7120012 -194505,-7120009 -194556,-7120008 -194587,-7120000 -194615,-7120001 -194656,-7120009 -194683,-7120007 -194693,-7120006 -194724,-7119999 -194757,-7119992 -194786,-7119988 -194800,-7119984 -194876,-7119993 -194903,-7119999 -194919,-7120006 -194927,-7120008 -194962,-7120015 -194975,-7120007 -194991,-7120006 -195018,-7120020 -195034,-7120038 -195064,-7120050 -195111,-7120057 -195137,-7120048 -195167,-7120048 -195215,-7120057 -195235,-7120053 -195283,-7120060 -195341,-7120072 -195384,-7120072 -195442,-7120068 -195497,-7120062 -195587,-7120056 -195657,-7120055 -195751,-7120054 -195930,-7120063 -195952,-7120058 -196023,-7120060 -196043,-7120044 -195967,-7119987 -196035,-7119958 -196086,-7119935 -196092,-7119902 -196094,-7119824 -196111,-7119784 -196130,-7119711 -196160,-7119649 -196246,-7119428 -196259,-7119425 -196286,-7119403 -196301,-7119400 -196300,-7119390 -196316,-7119366 -196323,-7119336 -196342,-7119328 -196340,-7119311 -196351,-7119274 -196351,-7119249 -196355,-7119242 -196344,-7119226 -196397,-7119176 -196409,-7119152 -196441,-7119126 -196459,-7119122 -196485,-7119109 -196488,-7119086 -196495,-7119084 -196523,-7119054 -196535,-7119044 -196567,-7119025 -196567,-7119010 -196583,-7118987 -196582,-7118971 -196614,-7118945 -196619,-7118926 -196645,-7118913 -196651,-7118884 -196665,-7118867 -196669,-7118850 -196676,-7118840 -196694,-7118827 -196728,-7118822 -196746,-7118821 -196804,-7118786 -196838,-7118741 -196861,-7118718 -196881,-7118710 -196890,-7118688 -196915,-7118678 -196932,-7118684 -196944,-7118671 -196940,-7118648 -196959,-7118647 -196957,-7118626 -196963,-7118621 -196961,-7118590 -196976,-7118572 -196994,-7118569 -197001,-7118557 -197003,-7118534 -197009,-7118523 -197029,-7118514 -197045,-7118517 -197045,-7118481 -197050,-7118474 -197049,-7118451 -197054,-7118438 -197069,-7118440 -197085,-7118418 -197084,-7118394 -197121,-7118360 -197160,-7118337 -197156,-7118326 -197169,-7118316 -197212,-7118319 -197266,-7118289 -197289,-7118281 -197315,-7118282 -197327,-7118273 -197303,-7118246 -197342,-7118216 -197369,-7118190 -197382,-7118190 -197381,-7118164 -197401,-7118146 -197417,-7118156 -197413,-7118130 -197448,-7118124 -197447,-7118170 -197461,-7118198 -197458,-7118223 -197494,-7118371 -197504,-7118414 -197519,-7118459 -197558,-7118563 -197603,-7118636 -197647,-7118709 -197688,-7118774 -197740,-7118865 -197775,-7118912 -197797,-7118944 -197851,-7118998 -197903,-7119055 -197963,-7119099 -197989,-7119121 -198037,-7119116 -198062,-7119095 -198063,-7119104 -198078,-7119118 -198096,-7119120 -198100,-7119136 -198081,-7119190 -198034,-7119225 -198017,-7119256 -198019,-7119283 -198027,-7119289 -198019,-7119324 -198035,-7119337 -198048,-7119392 -198047,-7119407 -198037,-7119439 -198054,-7119460 -198054,-7119481 -198043,-7119535 -198007,-7119532 -197996,-7119550 -197993,-7119582 -198008,-7119609 -198023,-7119632 -198056,-7119660 -198061,-7119677 -198057,-7119689 -198041,-7119700 -198030,-7119726 -198030,-7119740 -198031,-7119767 -198038,-7119792 -198060,-7119830 -198093,-7119914 -198116,-7119955 -198116,-7119972 -198098,-7119992 -198053,-7120036 -198035,-7120063 -198033,-7120088 -198048,-7120106 -198057,-7120125 -198057,-7120143 -198048,-7120173 -198032,-7120201 -198031,-7120224 -198056,-7120309 -198044,-7120342 -198037,-7120363 -198079,-7120411 -198084,-7120425 -198083,-7120449 -198074,-7120487 -198075,-7120519 -198085,-7120541 -198118,-7120568 -198122,-7120587 -198122,-7120624 -198133,-7120655 -198183,-7120670 -198213,-7120669 -198241,-7120695 -198266,-7120703 -198285,-7120703 -198304,-7120730 -198334,-7120752 -198335,-7120775 -198317,-7120799 -198316,-7120809 -198355,-7120840 -198370,-7120855 -198392,-7120868 -198409,-7120875 -198437,-7120883 -198464,-7120882 -198466,-7120909 -198488,-7120950 -198507,-7120956 -198521,-7120967 -198539,-7120970 -198546,-7120966 -198551,-7120946 -198580,-7120946 -198601,-7120951 -198618,-7120957 -198644,-7120979 -198659,-7120996 -198668,-7121006 -198698,-7121021 -198719,-7121035 -198727,-7121056 -198710,-7121094 -198692,-7121111 -198680,-7121130 -198672,-7121151 -198672,-7121181 -198680,-7121211 -198680,-7121230 -198689,-7121239 -198722,-7121241 -198734,-7121247 -198748,-7121278 -198761,-7121331 -198753,-7121371 -198753,-7121412 -198759,-7121432 -198765,-7121443 -198772,-7121448 -198795,-7121453 -198880,-7121488 -198890,-7121486 -198901,-7121485 -198914,-7121486 -198926,-7121487 -198948,-7121493 -198956,-7121495 -198967,-7121494 -198976,-7121493 -198995,-7121485 -199021,-7121487 -199027,-7121523 -199030,-7121539 -199033,-7121541 -199039,-7121543 -199067,-7121536 -199087,-7121523 -199128,-7121539 -199137,-7121550 -199135,-7121598 -199148,-7121646 -199151,-7121678 -199179,-7121691 -199184,-7121705 -199187,-7121715 -199206,-7121731 -199229,-7121729 -199237,-7121733 -199257,-7121744 -199264,-7121758 -199269,-7121769 -199274,-7121772 -199284,-7121778 -199295,-7121775 -199318,-7121785 -199331,-7121799 -199344,-7121812 -199362,-7121820 -199370,-7121823 -199380,-7121834 -199396,-7121852 -199405,-7121854 -199412,-7121856 -199416,-7121857 -199435,-7121852 -199460,-7121878 -199485,-7121910 -199501,-7121929 -199504,-7121938 -199515,-7121964 -199530,-7121983 -199544,-7121998 -199548,-7122005 -199556,-7122016 -199565,-7122024 -199575,-7122030 -199586,-7122033 -199597,-7122035 -199612,-7122035 -199664,-7122072 -199700,-7122085 -199718,-7122101 -199722,-7122121 -199755,-7122161 -199778,-7122178 -199787,-7122245 -199787,-7122253 -199784,-7122273 -199810,-7122306 -199825,-7122341 -199843,-7122347 -199875,-7122359 -199893,-7122377 -199902,-7122394 -199923,-7122410 -199930,-7122432 -199933,-7122455 -199907,-7122471 -199901,-7122487 -199900,-7122524 -199904,-7122563 -199883,-7122577 -199851,-7122577 -199832,-7122590 -199806,-7122602 -199798,-7122624 -199787,-7122634 -199771,-7122640 -199729,-7122676 -199715,-7122681 -199697,-7122702 -199687,-7122724 -199665,-7122741 -199654,-7122756 -199653,-7122791 -199642,-7122816 -199641,-7122878 -199650,-7122907 -199651,-7122923 -199663,-7122939 -199670,-7122958 -199662,-7122988 -199662,-7123018 -199660,-7123031 -199664,-7123043 -199665,-7123058 -199681,-7123060 -199689,-7123082 -199709,-7123103 -199708,-7123147 -199727,-7123172 -199737,-7123202 -199740,-7123226 -199743,-7123242 -199740,-7123252 -199719,-7123275 -199699,-7123314 -199692,-7123323 -199693,-7123342 -199699,-7123354 -199707,-7123363 -199728,-7123389 -199751,-7123414 -199760,-7123420 -199764,-7123429 -199767,-7123439 -199767,-7123449 -199760,-7123462 -199754,-7123472 -199766,-7123506 -199769,-7123525 -199784,-7123548 -199795,-7123573 -199821,-7123594 -199838,-7123607 -199851,-7123617 -199900,-7123625 -199938,-7123647 -199991,-7123664 -200001,-7123692 -200038,-7123711 -200056,-7123711 -200061,-7123714 -200065,-7123717 -200067,-7123720 -200075,-7123739 -200081,-7123749 -200089,-7123757 -200097,-7123764 -200107,-7123770 -200120,-7123774 -200151,-7123789 -200170,-7123793 -200183,-7123804 -200186,-7123815 -200192,-7123821 -200196,-7123823 -200200,-7123826 -200222,-7123824 -200231,-7123822 -200253,-7123812 -200278,-7123796 -200293,-7123793 -200311,-7123798 -200335,-7123823 -200350,-7123833 -200374,-7123858 -200392,-7123859 -200431,-7123852 -200459,-7123859 -200470,-7123863 -200478,-7123869 -200495,-7123880 -200498,-7123897 -200496,-7123927 -200501,-7123960 -200497,-7123991 -200502,-7124001 -200527,-7124006 -200544,-7124024 -200551,-7124044 -200572,-7124062 -200593,-7124071 -200579,-7124121 -200617,-7124166 -200654,-7124208 -200632,-7124233 -200611,-7124251 -200583,-7124287 -200575,-7124309 -200568,-7124330 -200561,-7124428 -200599,-7124480 -200604,-7124515 -200604,-7124544 -200616,-7124575 -200642,-7124602 -200647,-7124617 -200629,-7124638 -200614,-7124658 -200612,-7124692 -200607,-7124706 -200612,-7124715 -200649,-7124741 -200679,-7124775 -200702,-7124793 -200713,-7124815 -200741,-7124849 -200780,-7124878 -200814,-7124892 -200854,-7124932 -200905,-7124991 -200911,-7125012 -200946,-7125024 -200962,-7125048 -200993,-7125078 -200983,-7125080 -200984,-7125107 -201017,-7125126 -201048,-7125136 -201071,-7125134 -201078,-7125176 -201087,-7125216 -201098,-7125215 -201119,-7125232 -201128,-7125272 -201121,-7125281 -201147,-7125314 -201165,-7125323 -201174,-7125372 -201193,-7125420 -201203,-7125419 -201229,-7125403 -201239,-7125415 -201242,-7125433 -201288,-7125505 -201340,-7125556 -201352,-7125565 -201353,-7125565 -201392,-7125573 -201408,-7125599 -201408,-7125623 -201417,-7125658 -201452,-7125655 -201478,-7125634 -201493,-7125640 -201534,-7125644 -201553,-7125668 -201583,-7125667 -201606,-7125661 -201631,-7125663 -201647,-7125640 -201684,-7125644 -201723,-7125635 -201728,-7125626 -201734,-7125583 -201743,-7125574 -201775,-7125562 -201788,-7125566 -201796,-7125576 -201802,-7125579 -201811,-7125582 -201823,-7125583 -201838,-7125583 -201892,-7125572 -201952,-7125553 -201959,-7125569 -201968,-7125577 -201990,-7125578 -202009,-7125569 -202023,-7125572 -202032,-7125565 -202072,-7125555 -202100,-7125547 -202121,-7125556 -202172,-7125554 -202185,-7125565 -202208,-7125570 -202293,-7125569 -202314,-7125565 -202359,-7125565 -202376,-7125570 -202407,-7125595 -202422,-7125614 -202460,-7125622 -202476,-7125618 -202471,-7125598 -202485,-7125601 -202523,-7125587 -202539,-7125574 -202551,-7125583 -202557,-7125605 -202578,-7125622 -202601,-7125625 -202611,-7125620 -202625,-7125621 -202647,-7125628 -202710,-7125626 -202749,-7125609 -202789,-7125609 -202850,-7125574 -202871,-7125572 -202887,-7125560 -202905,-7125554 -202928,-7125542 -202953,-7125547 -202982,-7125545 -203007,-7125531 -203042,-7125538 -203060,-7125503 -203103,-7125500 -203123,-7125471 -203162,-7125445 -203202,-7125431 -203262,-7125396 -203317,-7125423 -203388,-7125449 -203410,-7125460 -203414,-7125467 -203428,-7125479 -203449,-7125484 -203473,-7125536 -203500,-7125496 -203523,-7125466 -203548,-7125437 -203596,-7125387 -203643,-7125340 -203780,-7125218 -203807,-7125162 -203837,-7125127 -203974,-7125002 -204013,-7124953 -204035,-7124928 -204057,-7124899 -204085,-7124833 -204125,-7124762 -204170,-7124708 -204182,-7124698 -204190,-7124693 -204199,-7124690 -204208,-7124689 -204217,-7124690 -204229,-7124693 -204377,-7124723 -204409,-7124735 -204432,-7124735 -204444,-7124761 -204479,-7124772 -204486,-7124774 -204497,-7124746 -204519,-7124684 -204548,-7124599 -204549,-7124597 -204596,-7124504 -204608,-7124484 -204624,-7124467 -204691,-7124409 -204710,-7124390 -204724,-7124365 -204756,-7124286 -204763,-7124219 -204775,-7124187 -204825,-7124078 -204854,-7124010 -204866,-7124002 -204881,-7123995 -204895,-7123991 -204941,-7123978 -204976,-7123968 -205044,-7123947 -205084,-7123944 -205143,-7123941 -205209,-7123925 -205244,-7123916 -205273,-7123906 -205319,-7123883 -205369,-7123843 -205390,-7123824 -205396,-7123803 -205404,-7123770 -205416,-7123737 -205449,-7123676 -205473,-7123638 -205502,-7123618 -205538,-7123560 -205604,-7123565 -205671,-7123571 -205694,-7123578 -205736,-7123608 -205759,-7123617 -205782,-7123615 -205788,-7123613 -205794,-7123610 -205799,-7123605 -205811,-7123585 -205831,-7123576 -205851,-7123571 -205931,-7123567 -205993,-7123595 -206012,-7123599 -206030,-7123596 -206045,-7123591 -206091,-7123557 -206149,-7123517 -206178,-7123495 -206231,-7123451 -206290,-7123391 -206321,-7123354 -206374,-7123255 -206387,-7123226 -206401,-7123174 -206406,-7123153 -206406,-7123148 -206402,-7123115 -206393,-7123077 -206381,-7123047 -206369,-7123029 -206341,-7122997 -206315,-7122968 -206298,-7122946 -206293,-7122938 -206278,-7122913 -206255,-7122876 -206255,-7122862 -206320,-7122804 -206355,-7122778 -206404,-7122735 -206433,-7122716 -206493,-7122692 -206518,-7122676 -206531,-7122662 -206539,-7122635 -206548,-7122632 -206561,-7122669 -206558,-7122697 -206563,-7122699 -206565,-7122709 -206558,-7122731 -206569,-7122743 -206576,-7122746 -206595,-7122735 -206605,-7122744 -206619,-7122779 -206625,-7122809 -206622,-7122834 -206627,-7122850 -206623,-7122917 -206636,-7122936 -206608,-7122948 -206583,-7122970 -206584,-7122989 -206574,-7122999 -206561,-7123019 -206562,-7123037 -206550,-7123062 -206538,-7123079 -206559,-7123105 -206585,-7123118 -206608,-7123127 -206615,-7123131 -206629,-7123145 -206637,-7123156 -206648,-7123165 -206737,-7123200 -206757,-7123214 -206797,-7123261 -206841,-7123286 -206918,-7123327 -207002,-7123369 -207019,-7123357 -207035,-7123340 -207057,-7123333 -207135,-7123380 -207161,-7123385 -207197,-7123393 -207235,-7123412 -207267,-7123413 -207292,-7123412 -207312,-7123401 -207329,-7123382 -207354,-7123341 -207378,-7123272 -207385,-7123265 -207415,-7123231 -207438,-7123206 -207463,-7123167 -207473,-7123162 -207491,-7123199 -207500,-7123213 -207514,-7123215 -207601,-7123197 -207616,-7123324 -207621,-7123463 -207638,-7123465 -207639,-7123465 -207689,-7123408 -207727,-7123397 -207754,-7123405 -207827,-7123450 -207891,-7123493 -207940,-7123534 -207983,-7123577 -207995,-7123601 -208003,-7123619 -208048,-7123739 -208070,-7123804 -208113,-7123872 -208118,-7123891 -208104,-7123942 -208128,-7123931 -208306,-7123879 -208379,-7123858 -208436,-7123874 -208454,-7123867 -208456,-7123866 -208462,-7123880 -208467,-7123956 -208434,-7124025 -208398,-7124075 -208332,-7124151 -208278,-7124219 -208220,-7124315 -208164,-7124410 -208145,-7124449 -208116,-7124506 -208108,-7124528 -208115,-7124539 -208130,-7124545 -208154,-7124556 -208161,-7124560 -208171,-7124571 -208169,-7124596 -208100,-7124731 -208104,-7124753 -208099,-7124780 -208099,-7124783 -208117,-7124818 -208109,-7124837 -208111,-7124851 -208114,-7124868 -208117,-7124876 -208185,-7124918 -208187,-7124956 -208190,-7124974 -208189,-7124992 -208189,-7125000 -208191,-7125011 -208196,-7125027 -208194,-7125032 -208182,-7125053 -208183,-7125056 -208187,-7125065 -208200,-7125084 -208249,-7125129 -208264,-7125148 -208290,-7125172 -208296,-7125197 -208285,-7125209 -208284,-7125214 -208285,-7125216 -208287,-7125218 -208300,-7125220 -208305,-7125217 -208312,-7125215 -208317,-7125216 -208321,-7125217 -208323,-7125219 -208326,-7125223 -208328,-7125231 -208370,-7125297 -208374,-7125306 -208377,-7125314 -208383,-7125345 -208388,-7125347 -208391,-7125349 -208393,-7125352 -208394,-7125355 -208389,-7125401 -208385,-7125413 -208378,-7125422 -208354,-7125437 -208363,-7125500 -208362,-7125517 -208360,-7125528 -208371,-7125575 -208366,-7125596 -208373,-7125623 -208375,-7125684 -208422,-7125679 -208425,-7125680 -208428,-7125682 -208431,-7125686 -208436,-7125721 -208437,-7125725 -208407,-7125765 -208404,-7125774 -208403,-7125779 -208409,-7125809 -208409,-7125814 -208406,-7125828 -208406,-7125836 -208407,-7125841 -208409,-7125844 -208424,-7125854 -208432,-7125858 -208437,-7125861 -208440,-7125867 -208442,-7125872 -208442,-7125943 -208445,-7125951 -208450,-7125955 -208449,-7125985 -208442,-7125987 -208415,-7126009 -208410,-7126019 -208416,-7126055 -208425,-7126083 -208427,-7126120 -208423,-7126151 -208422,-7126179 -208426,-7126210 -208437,-7126241 -208458,-7126290 -208458,-7126299 -208454,-7126312 -208444,-7126330 -208439,-7126334 -208436,-7126341 -208436,-7126346 -208438,-7126356 -208444,-7126385 -208444,-7126399 -208443,-7126427 -208443,-7126447 -208448,-7126474 -208441,-7126490 -208439,-7126498 -208432,-7126511 -208421,-7126532 -208419,-7126540 -208418,-7126550 -208405,-7126652 -208393,-7126692 -208379,-7126738 -208385,-7126752 -208401,-7126784 -208442,-7126848 -208452,-7126859 -208465,-7126878 -208484,-7126913 -208469,-7127008 -208463,-7127095 -208462,-7127106 -208466,-7127186 -208465,-7127198 -208460,-7127234 -208450,-7127246 -208448,-7127250 -208443,-7127276 -208438,-7127289 -208431,-7127313 -208423,-7127331 -208421,-7127341 -208418,-7127347 -208415,-7127352 -208395,-7127376 -208393,-7127382 -208392,-7127386 -208393,-7127392 -208403,-7127429 -208397,-7127523 -208391,-7127611 -208388,-7127675 -208385,-7127699 -208375,-7127723 -208398,-7127814 -208438,-7127940 -208452,-7127937 -208455,-7127942 -208462,-7127968 -208480,-7128129 -208505,-7128135 -208540,-7128335 -208546,-7128353 -208621,-7128375 -208639,-7128379 -208648,-7128380 -208668,-7128379 -209107,-7128384 -209121,-7128395 -209184,-7128459 -209226,-7128494 -209267,-7128525 -209355,-7128581 -209357,-7128582 -209377,-7128581 -209469,-7128591 -209570,-7128599 -209608,-7128605 -209656,-7128590 -209695,-7128580 -209719,-7128574 -209736,-7128572 -209758,-7128573 -209781,-7128569 -209820,-7128574 -209846,-7128579 -209919,-7128586 -209926,-7128586 -209947,-7128581 -210117,-7128529 -210147,-7128572 -210164,-7128603 -210279,-7128766 -210281,-7128767 -210306,-7128767 -210520,-7128781 -210569,-7128781 -210611,-7128781 -210709,-7128778 -210999,-7128776 -211004,-7128774 -211012,-7128768 -211014,-7128767 -211027,-7128766 -211110,-7128766 -211302,-7128775 -211469,-7128790 -211885,-7128817 -211926,-7128816 -211988,-7128818 -212212,-7128832 -212518,-7128858 -212827,-7128875 -213044,-7128890 -213135,-7128899 -213478,-7129187 -213910,-7129537 -214356,-7129887 -214379,-7129904 -214413,-7129932 -214440,-7129955 -214475,-7129981 -214510,-7130011 -214643,-7130028 -214665,-7130030 -214726,-7130033 -214777,-7130034 -214932,-7130013 -215404,-7129980 -215743,-7129959 -216118,-7129927 -216748,-7129882 -216766,-7129879 -216780,-7129874 -216798,-7129865 -217025,-7129783 -217153,-7129733 -217491,-7129620 -217860,-7129502 -218101,-7129421 -218141,-7129410 -218154,-7129405 -218171,-7129413 -218253,-7129432 -218338,-7129449 -218392,-7129463 -218653,-7129501 -218938,-7129545 -218966,-7129541 -219052,-7129566 -219105,-7129562 -219130,-7129575 -219178,-7129574 -219205,-7129586 -219835,-7129684 -220115,-7129726 -220507,-7129797 -220563,-7129962 -220636,-7130170 -220640,-7130189 -220702,-7130337 -220857,-7130780 -220969,-7131091 -220990,-7131153 -221006,-7131196 -221073,-7131388 -221165,-7131643 -221350,-7131765 -221686,-7131977 -222021,-7132196 -222183,-7132297 -222212,-7132323 -222232,-7132343 -222804,-7132868 -223122,-7133161 -223614,-7133614 -223714,-7133707 -223796,-7133705 -223918,-7133705 -224134,-7133741 -224252,-7133759 -224371,-7133777 -224390,-7133780 -224489,-7133794 -224519,-7133798 -224673,-7133820 -224761,-7133847 -224863,-7133875 -225068,-7133921 -225157,-7133944 -225278,-7133967 -225372,-7133992 -225416,-7134003 -225574,-7134048 -225657,-7134069 -225743,-7134067 -225850,-7134066 -225914,-7134065 -226058,-7134061 -226132,-7134069 -226158,-7134085 -226187,-7134173 -226195,-7134207 -226334,-7134389 -226415,-7134489 -226422,-7134497 -226423,-7134499 -226438,-7134543 -226449,-7134560 -226461,-7134583 -226471,-7134596 -226506,-7134634 -226520,-7134647 -226557,-7134679 -226566,-7134688 -226582,-7134705 -226592,-7134718 -226609,-7134744 -226618,-7134760 -226623,-7134771 -226625,-7134779 -226627,-7134790 -226630,-7134816 -226631,-7134857 -226649,-7134953 -226653,-7134970 -226663,-7135002 -226672,-7135022 -226684,-7135039 -226727,-7135089 -226736,-7135098 -226750,-7135113 -226856,-7135191 -226860,-7135196 -226887,-7135221 -227116,-7135365 -227149,-7135381 -227170,-7135401 -227221,-7135421 -227248,-7135445 -227296,-7135478 -227374,-7135526 -227382,-7135530 -227552,-7135624 -227597,-7135660 -227857,-7135864 -227920,-7135905 -228036,-7135973 -228124,-7136036 -228237,-7136116 -228367,-7136227 -228400,-7136257 -228639,-7136470 -228785,-7136599 -228907,-7136711 -228986,-7136777 -229075,-7136855 -229174,-7136948 -229284,-7137044 -229337,-7137092 -229457,-7137202 -229363,-7137245 -229016,-7137409 -228680,-7137570 -228314,-7137738 -228001,-7137876 -227862,-7137933 -227861,-7138017 -227825,-7138370 -227776,-7138773 -227725,-7139136 -227682,-7139488 -227656,-7139703 -227661,-7139749 -227667,-7139941 -227669,-7140032 -227669,-7140048 -227676,-7140128 -227676,-7140204 -227682,-7140260 -227687,-7140285 -227686,-7140392 -227696,-7140450 -227696,-7140495 -227706,-7140727 -227707,-7140753 -227725,-7141096 -227741,-7141502 -227754,-7141776 -227774,-7141825 -227759,-7141867 -227726,-7141929 -227656,-7142034 -227538,-7142152 -227223,-7142458 -227126,-7142558 -226908,-7142784 -226712,-7142976 -226683,-7142997 -226594,-7143077 -226565,-7143102 -226503,-7143147 -226411,-7143227 -226305,-7143310 -226168,-7143420 -226161,-7143438 -226123,-7143517 -226077,-7143601 -226043,-7143690 -225959,-7143846 -225942,-7143887 -225857,-7144086 -225712,-7144436 -225552,-7144786 -225468,-7144972 -225363,-7145205 -225242,-7145470 -225168,-7145639 -225060,-7145864 -225046,-7145856 -225039,-7145852 -225010,-7145838 -224832,-7145769 -224754,-7145744 -224687,-7145717 -224653,-7145705 -224619,-7145693 -224544,-7145670 -224462,-7145637 -224404,-7145617 -224346,-7145597 -224245,-7145567 -224140,-7145524 -224090,-7145672 -224022,-7145680 -223963,-7145695 -223819,-7145723 -223661,-7145756 -223588,-7145765 -223544,-7145773 -223499,-7145781 -223428,-7145799 -223341,-7145816 -223243,-7145836 -223158,-7145852 -223081,-7145869 -223027,-7145880 -222965,-7145892 -222947,-7145899 -222921,-7145915 -222888,-7145925 -222823,-7145933 -222804,-7145935 -222578,-7145964 -222555,-7145928 -222477,-7145820 -222323,-7145595 -222140,-7145331 -222136,-7145324 -222086,-7145327 -222036,-7145333 -221949,-7145305 -221750,-7145248 -221714,-7145236 -221696,-7145231 -221659,-7145223 -221631,-7145219 -221485,-7145183 -221446,-7145177 -221417,-7145174 -221396,-7145170 -221264,-7145146 -221133,-7145199 -220916,-7145289 -220799,-7145334 -220724,-7145346 -220694,-7145352 -220675,-7145359 -220434,-7145784 -220458,-7145793 -220414,-7145920 -220394,-7145956 -220385,-7145974 -220378,-7145993 -220347,-7146089 -220300,-7146219 -220283,-7146256 -220270,-7146292 -220264,-7146304 -220255,-7146319 -220245,-7146335 -220226,-7146368 -220088,-7146601 -220081,-7146619 -220076,-7146631 -220060,-7146726 -220049,-7146812 -220030,-7146944 -219981,-7147253 -219994,-7147318 -220025,-7147446 -220086,-7147734 -220166,-7148090 -220184,-7148167 -220200,-7148255 -220196,-7148286 -220188,-7148363 -220165,-7148505 -220139,-7148697 -220106,-7148923 -220115,-7148956 -220147,-7149057 -220190,-7149214 -220217,-7149316 -220227,-7149362 -220242,-7149423 -220259,-7149503 -220267,-7149526 -220289,-7149582 -220310,-7149624 -220366,-7149744 -220366,-7149761 -220382,-7149796 -220400,-7149811 -220433,-7149898 -220448,-7149910 -220494,-7149955 -220499,-7149970 -220502,-7149979 -220512,-7149989 -220514,-7149993 -220517,-7149998 -220558,-7150154 -220530,-7150257 -220499,-7150319 -220499,-7150331 -220506,-7150404 -220519,-7150442 -220526,-7150456 -220533,-7150563 -220535,-7150668 -220491,-7150674 -220450,-7150687 -220379,-7150728 -220353,-7150752 -220335,-7150773 -220326,-7150786 -220302,-7150828 -220294,-7150850 -220290,-7150865 -220288,-7150886 -220299,-7150933 -220302,-7150948 -220304,-7150992 -220311,-7151025 -220313,-7151041 -220314,-7151085 -220310,-7151127 -220314,-7151216 -220317,-7151240 -220317,-7151273 -220328,-7151314 -220338,-7151346 -220356,-7151392 -220360,-7151404 -220360,-7151412 -220358,-7151423 -220353,-7151441 -220347,-7151454 -220340,-7151462 -220332,-7151470 -220312,-7151477 -220279,-7151478 -220249,-7151474 -220223,-7151467 -220215,-7151463 -220169,-7151445 -220124,-7151422 -220115,-7151419 -220101,-7151415 -220075,-7151414 -220061,-7151416 -219960,-7151435 -219909,-7151447 -219843,-7151462 -219815,-7151479 -219720,-7151560 -219687,-7151591 -219684,-7151594 -219609,-7151655 -219577,-7151677 -219533,-7151697 -219448,-7151743 -219348,-7151817 -219304,-7151856 -219266,-7151886 -219257,-7151891 -219226,-7151911 -219187,-7151929 -219169,-7151938 -219151,-7151948 -219124,-7151966 -219120,-7151964 -219059,-7151944 -218889,-7151901 -218790,-7151880 -218764,-7151875 -218718,-7151872 -218673,-7151877 -218642,-7151875 -218590,-7151874 -218573,-7151874 -218565,-7151874 -218557,-7151876 -218541,-7151881 -218511,-7151895 -218434,-7151908 -218419,-7151909 -218368,-7151900 -218312,-7151894 -218236,-7151887 -218174,-7151884 -218040,-7151882 -217967,-7151874 -217923,-7151876 -217893,-7151875 -217799,-7151870 -217771,-7151869 -217672,-7151879 -217597,-7151892 -217537,-7151895 -217429,-7151900 -217358,-7151907 -217362,-7151955 -217370,-7152066 -217376,-7152093 -217380,-7152124 -217394,-7152171 -217400,-7152198 -217406,-7152234 -217414,-7152269 -217417,-7152298 -217421,-7152352 -217428,-7152371 -217431,-7152385 -217446,-7152423 -217444,-7152440 -217445,-7152448 -217447,-7152456 -217452,-7152473 -217442,-7152511 -217426,-7152561 -217427,-7152568 -217425,-7152578 -217425,-7152583 -217427,-7152591 -217430,-7152596 -217424,-7152633 -217426,-7152688 -217427,-7152706 -217433,-7152749 -217439,-7152776 -217458,-7152884 -217463,-7152929 -217466,-7152939 -217466,-7152944 -217460,-7152970 -217459,-7152982 -217457,-7152989 -217446,-7153009 -217444,-7153015 -217442,-7153028 -217441,-7153051 -217436,-7153080 -217436,-7153089 -217439,-7153146 -217441,-7153166 -217448,-7153203 -217422,-7153254 -217424,-7153279 -217419,-7153317 -217424,-7153362 -217430,-7153376 -217432,-7153390 -217431,-7153398 -217430,-7153405 -217425,-7153416 -217432,-7153452 -217459,-7153470 -217513,-7153517 -217529,-7153530 -217834,-7153836 -217902,-7153807 -218024,-7153999 -218039,-7154014 -218058,-7154051 -218079,-7154087 -218119,-7154143 -218136,-7154159 -218146,-7154176 -218161,-7154206 -218193,-7154264 -218202,-7154285 -218231,-7154360 -218282,-7154478 -218301,-7154521 -218356,-7154656 -218376,-7154696 -218416,-7154714 -218430,-7154722 -218500,-7154765 -218538,-7154793 -218580,-7154828 -218598,-7154846 -218710,-7154942 -218734,-7154963 -218772,-7155000 -218925,-7155119 -219066,-7155238 -219183,-7155333 -219222,-7155367 -219465,-7155572 -219528,-7155617 -219738,-7155786 -219767,-7155824 -219831,-7155919 -219923,-7156041 -220063,-7156232 -220061,-7156236 -220022,-7156284 -219990,-7156321 -219880,-7156464 -219712,-7156676 -219673,-7156717 -219513,-7156906 -219466,-7156890 -219466,-7156869 -219462,-7156853 -219455,-7156836 -219439,-7156817 -219415,-7156793 -219323,-7156737 -219323,-7156727 -219325,-7156722 -219336,-7156699 -219340,-7156683 -219343,-7156661 -219344,-7156633 -219345,-7156614 -219268,-7156577 -219254,-7156568 -219244,-7156563 -219226,-7156559 -219181,-7156532 -219169,-7156537 -218992,-7156441 -218961,-7156454 -218955,-7156450 -218907,-7156464 -218898,-7156469 -218868,-7156492 -218844,-7156508 -218841,-7156510 -218836,-7156537 -218828,-7156583 -218822,-7156743 -218825,-7156777 -218826,-7156800 -218834,-7156870 -218844,-7156990 -219078,-7157255 -219049,-7157272 -219032,-7157273 -219002,-7157289 -218995,-7157286 -218973,-7157290 -218923,-7157317 -218907,-7157337 -218843,-7157362 -218855,-7157397 -218851,-7157402 -218819,-7157414 -218787,-7157429 -218576,-7157514 -218557,-7157523 -218539,-7157533 -218528,-7157553 -218534,-7157568 -218553,-7157612 -218586,-7157676 -218601,-7157707 -218615,-7157738 -218655,-7157834 -218723,-7157978 -218737,-7158013 -218750,-7158049 -218791,-7158158 -218828,-7158248 -218854,-7158300 -218864,-7158349 -218886,-7158425 -218914,-7158544 -218921,-7158550 -218945,-7158547 -218970,-7158686 -218977,-7158703 -219012,-7158774 -219020,-7158788 -219026,-7158802 -219032,-7158822 -219044,-7158853 -219048,-7158868 -219051,-7158876 -219055,-7158883 -219083,-7158919 -219137,-7158979 -219179,-7159032 -219295,-7159158 -219300,-7159171 -219283,-7159184 -219351,-7159303 -219353,-7159352 -219357,-7159399 -219358,-7159431 -219357,-7159434 -219290,-7159459 -219284,-7159460 -219268,-7159461 -219226,-7159453 -219206,-7159450 -219189,-7159449 -219180,-7159450 -219168,-7159472 -219192,-7159497 -219212,-7159514 -219217,-7159519 -219227,-7159538 -219216,-7159542 -219205,-7159543 -219169,-7159545 -219147,-7159544 -219082,-7159533 -219047,-7159529 -219024,-7159523 -218993,-7159519 -218929,-7159525 -218917,-7159524 -218850,-7159513 -218830,-7159513 -218816,-7159511 -218797,-7159503 -218677,-7159464 -218623,-7159449 -218574,-7159431 -218563,-7159431 -218534,-7159430 -218441,-7159407 -218422,-7159438 -218435,-7159502 -218444,-7159568 -218449,-7159580 -218455,-7159590 -218454,-7159612 -218444,-7159613 -218455,-7159681 -218455,-7159712 -218450,-7159741 -218450,-7159787 -218451,-7159807 -218453,-7159816 -218457,-7159827 -218464,-7159840 -218481,-7159869 -218514,-7159883 -218517,-7159885 -218522,-7159891 -218526,-7159897 -218527,-7159906 -218522,-7159957 -218537,-7160060 -218567,-7160171 -218577,-7160235 -218583,-7160253 -218594,-7160260 -218609,-7160306 -218619,-7160321 -218699,-7160350 -218748,-7160358 -218874,-7160986 -218873,-7160987 -218517,-7161171 -218287,-7161286 -217986,-7161440 -217870,-7161417 -217628,-7161371 -217386,-7161328 -217178,-7161294 -217001,-7161262 -217053,-7161504 -217108,-7161769 -217149,-7161968 -216643,-7161894 -216403,-7161863 -216252,-7161472 -216185,-7161289 -216139,-7161168 -216088,-7161156 -216032,-7161136 -215922,-7161111 -215875,-7161110 -215799,-7161113 -215672,-7161102 -215318,-7161054 -215133,-7160903 -214942,-7160743 -214621,-7160779 -214323,-7161241 -214303,-7161275 -214284,-7161303 -214218,-7161406 -214176,-7161470 -214148,-7161527 -214122,-7161588 -214068,-7161710 -214041,-7161758 -214025,-7161758 -213952,-7161759 -213853,-7161761 -213771,-7161760 -213744,-7161762 -213703,-7161720 -213688,-7161680 -213674,-7161659 -213635,-7161622 -213593,-7161655 -213580,-7161651 -213478,-7161710 -213399,-7161736 -213320,-7161756 -213225,-7161783 -213167,-7161796 -213117,-7161805 -213076,-7161818 -213016,-7161822 -212972,-7161826 -212972,-7161872 -212959,-7161900 -212943,-7161928 -212921,-7161953 -212886,-7161977 -212838,-7162007 -212727,-7162057 -212646,-7162083 -212609,-7162092 -212541,-7162103 -212504,-7162107 -212468,-7162116 -212453,-7162122 -212437,-7162129 -212395,-7162153 -212370,-7162173 -212304,-7162216 -212278,-7162236 -212260,-7162256 -212249,-7162250 -212238,-7162261 -212230,-7162267 -212218,-7162273 -212205,-7162277 -212187,-7162279 -212125,-7162274 -212031,-7162247 -211984,-7162240 -211962,-7162242 -211931,-7162253 -211905,-7162260 -211899,-7162259 -211896,-7162258 -211894,-7162254 -211895,-7162224 -211902,-7162201 -211911,-7162182 -211924,-7162143 -211940,-7162106 -211935,-7162100 -211913,-7162080 -211910,-7162071 -211904,-7162061 -211895,-7162052 -211867,-7162035 -211821,-7162015 -211804,-7162001 -211783,-7161988 -211768,-7161983 -211753,-7161981 -211746,-7161978 -211741,-7161975 -211732,-7161968 -211700,-7161951 -211602,-7161874 -211581,-7161863 -211568,-7161861 -211558,-7161857 -211548,-7161848 -211528,-7161833 -211507,-7161828 -211468,-7161809 -211457,-7161798 -211441,-7161786 -211434,-7161777 -211426,-7161762 -211407,-7161737 -211396,-7161724 -211388,-7161717 -211383,-7161714 -211377,-7161712 -211366,-7161711 -211356,-7161712 -211322,-7161710 -211305,-7161711 -211285,-7161708 -211255,-7161698 -211237,-7161703 -211199,-7161708 -211185,-7161707 -211174,-7161705 -211166,-7161701 -211151,-7161694 -211133,-7161683 -211076,-7161668 -211029,-7161653 -210962,-7161662 -210955,-7161662 -210937,-7161661 -210899,-7161668 -210862,-7161681 -210839,-7161682 -210813,-7161687 -210785,-7161699 -210766,-7161709 -210743,-7161710 -210727,-7161719 -210696,-7161742 -210690,-7161748 -210685,-7161756 -210679,-7161767 -210676,-7161777 -210674,-7161798 -210654,-7161813 -210617,-7161848 -210591,-7161878 -210562,-7161916 -210542,-7161949 -210511,-7161981 -210486,-7162017 -210451,-7162081 -210420,-7162171 -210404,-7162253 -210390,-7162345 -210374,-7162418 -210370,-7162428 -210361,-7162447 -210347,-7162464 -210303,-7162510 -210263,-7162538 -210246,-7162545 -210236,-7162548 -210228,-7162548 -210212,-7162549 -210160,-7162576 -210106,-7162612 -210062,-7162651 -210042,-7162673 -210019,-7162711 -210005,-7162751 -209990,-7162753 -209956,-7162843 -209924,-7162931 -209896,-7162951 -209919,-7162978 -209922,-7162987 -209921,-7162994 -209920,-7162999 -209907,-7163034 -209892,-7163069 -209887,-7163087 -209886,-7163104 -209888,-7163121 -209888,-7163155 -209864,-7163152 -209849,-7163152 -209832,-7163153 -209802,-7163159 -209773,-7163169 -209726,-7163179 -209684,-7163183 -209637,-7163181 -209530,-7163177 -209425,-7163169" stroke="#006747" stroke-width="91" /></ns0:svg>    <rect x="20" y="50"  width="250" height="25"  rx="0"  fill="#006747" fill-opacity="0.8" />    <text x="145" y="70" text-anchor="middle" font-family="Frutiger" font-weight="bold" font-size="30" fill="white">Bradford</text>    <rect x="35" y="195" width="220" height="160" rx="15" fill="#78BE20"/>    <g font-family="Frutiger" font-size="15" fill="#231F20">        <g> <text x="45" y="218">Self-harm</text> <text x="245" y="218" text-anchor="end">36</text> </g>        <g> <text x="45" y="243">SEN</text> <text x="245" y="243" text-anchor="end">56</text> </g>        <g> <text x="45" y="268">Difficulties</text> <text x="245" y="268" text-anchor="end">62</text> </g>        <g> <text x="45" y="293">Child Carer</text> <text x="245" y="293" text-anchor="end">0</text> </g>        <g> <text x="45" y="318">Drinkers</text> <text x="245" y="318" text-anchor="end">49</text> </g>        <g> <text x="45" y="343">Safeguarding </text> <text x="245" y="343" text-anchor="end">11</text> </g>    </g></svg>