<?xml version="1.0" standalone="no"?>
<!DOCTYPE svg PUBLIC "-//W3C//DTD SVG 1.1//EN"
"http://www.w3.org/Graphics/SVG/1.1/DTD/svg11.dtd">
<svg height="390" version="1.1" width="290" xmlns="http://www.w3.org/2000/svg"><defs><style type="text/css">@font-face {font-family: 'Frutiger';font-style: normal;font-weight: normal;src: local('Frutiger'), url('../fonts/Frutiger.woff') format('woff');}@font-face {font-family: 'Frutiger Bold';font-style: normal;font-weight: normal;src: local('Frutiger Bold'), url('../fonts/Frutiger_bold.woff') format('woff');}        </style>    </defs>    <rect x="20" y="20"  width="250" height="350" rx="15" fill="#005EB8" />    <rect x="35" y="35"  width="220" height="145" rx="15" fill="white" /><ns0:svg xmlns:ns0="http://www.w3.org/2000/svg" height="115" version="1.1" viewBox="-277155 -7083936 27232 23636" width="220" x="35" y="50"><ns0:polygon fill="#003087" points=" -271301,-7083936 -271229,-7083907 -271148,-7083886 -271142,-7083884 -271045,-7083859 -270920,-7083831 -270718,-7083790 -270479,-7083758 -270466,-7083760 -270467,-7083756 -270395,-7083753 -270254,-7083744 -270123,-7083738 -269998,-7083741 -269998,-7083716 -269920,-7083713 -269921,-7083709 -269842,-7083708 -269742,-7083705 -269553,-7083652 -269553,-7083701 -269546,-7083699 -269465,-7083679 -269426,-7083667 -269380,-7083654 -269233,-7083600 -269127,-7083552 -268994,-7083484 -268949,-7083461 -268803,-7083384 -268743,-7083354 -268602,-7083299 -268482,-7083267 -268400,-7083248 -268342,-7083240 -268318,-7083237 -268312,-7083236 -268293,-7083235 -268293,-7083234 -268294,-7083200 -268291,-7083200 -268143,-7083197 -268034,-7083204 -267989,-7083219 -267939,-7083226 -267840,-7083212 -267821,-7083212 -267722,-7083213 -267691,-7083215 -267422,-7083228 -267421,-7083274 -267331,-7083272 -267229,-7083257 -267198,-7083252 -267178,-7083248 -267148,-7083242 -267048,-7083216 -267016,-7083206 -266995,-7083199 -266976,-7083162 -266972,-7083161 -266852,-7083121 -266798,-7083103 -266736,-7083076 -266690,-7083048 -266569,-7082961 -266497,-7082899 -266440,-7082840 -266384,-7082762 -266319,-7082667 -266305,-7082644 -266256,-7082566 -266204,-7082486 -266163,-7082430 -266119,-7082376 -266059,-7082307 -266041,-7082288 -265973,-7082220 -265903,-7082152 -265797,-7082078 -265747,-7082040 -265708,-7082022 -265676,-7082001 -265594,-7081955 -265539,-7081927 -265414,-7081877 -265326,-7081843 -265232,-7081813 -265074,-7081770 -264912,-7081726 -264795,-7081696 -264610,-7081643 -264472,-7081604 -264431,-7081591 -264390,-7081579 -264195,-7081521 -264027,-7081472 -263877,-7081423 -263818,-7081392 -263721,-7081340 -263670,-7081304 -263654,-7081364 -263641,-7081408 -263611,-7081493 -263399,-7081412 -263259,-7081362 -263048,-7081287 -262445,-7081067 -262092,-7080938 -262089,-7080937 -261922,-7081239 -261917,-7081246 -261914,-7081249 -261839,-7081379 -261792,-7081449 -261761,-7081486 -261723,-7081530 -261704,-7081562 -261686,-7081578 -261767,-7081606 -261768,-7081602 -261779,-7081606 -261782,-7081598 -261832,-7081612 -261831,-7081617 -261933,-7081651 -261931,-7081661 -261942,-7081659 -261952,-7081668 -261994,-7081682 -261981,-7081760 -261929,-7081753 -261924,-7081797 -261912,-7081835 -261907,-7081877 -261962,-7081887 -261950,-7081934 -261938,-7081979 -261907,-7082077 -261926,-7082085 -261961,-7082106 -262047,-7082137 -262118,-7082156 -262089,-7082234 -262055,-7082325 -262031,-7082374 -261975,-7082371 -261899,-7082332 -261876,-7082371 -261837,-7082433 -261886,-7082458 -261938,-7082491 -262019,-7082525 -262016,-7082547 -262012,-7082588 -262007,-7082583 -261961,-7082607 -261855,-7082593 -261843,-7082594 -261838,-7082600 -261789,-7082675 -261759,-7082718 -261721,-7082708 -261608,-7082685 -261568,-7082684 -261523,-7082684 -261475,-7082693 -261448,-7082702 -261413,-7082728 -261384,-7082758 -261376,-7082775 -261378,-7082799 -261384,-7082811 -261389,-7082816 -261394,-7082822 -261446,-7082870 -261461,-7082889 -261470,-7082899 -261473,-7082909 -261475,-7082919 -261475,-7082930 -261476,-7082938 -261461,-7082963 -261445,-7082998 -261419,-7083021 -261397,-7083032 -261369,-7083037 -261284,-7083039 -261239,-7083039 -261188,-7083043 -261147,-7083037 -261053,-7083007 -260818,-7082919 -260763,-7082889 -260697,-7082843 -260674,-7082816 -260646,-7082740 -260634,-7082718 -260576,-7082652 -260513,-7082597 -260465,-7082550 -260422,-7082498 -260363,-7082420 -260291,-7082324 -260286,-7082318 -260178,-7082175 -260001,-7081939 -259975,-7081912 -259954,-7081893 -259930,-7081876 -259884,-7081848 -259788,-7081826 -259764,-7081816 -259739,-7081805 -259664,-7081763 -259608,-7081740 -259540,-7081700 -259514,-7081687 -259422,-7081651 -259355,-7081624 -259274,-7081598 -259227,-7081581 -259191,-7081563 -259135,-7081526 -259122,-7081515 -259088,-7081466 -259052,-7081406 -259035,-7081383 -259016,-7081360 -258965,-7081303 -258859,-7081209 -258790,-7081147 -258764,-7081130 -258741,-7081119 -258672,-7081106 -258609,-7081089 -258539,-7081087 -258475,-7081077 -258312,-7081082 -258200,-7081080 -258138,-7081093 -258112,-7081094 -257928,-7081137 -257828,-7081160 -257685,-7081170 -257471,-7081173 -257400,-7081179 -257362,-7081176 -257336,-7081171 -257294,-7081155 -257227,-7081129 -257200,-7081114 -257187,-7081104 -257134,-7081032 -257096,-7080989 -257069,-7080929 -257028,-7080886 -256988,-7080856 -256799,-7080660 -256612,-7080459 -256487,-7080316 -256459,-7080283 -256419,-7080231 -256416,-7080226 -256383,-7080179 -256353,-7080120 -256300,-7080002 -256285,-7079948 -256274,-7079893 -256265,-7079843 -256264,-7079816 -256265,-7079783 -256270,-7079715 -256289,-7079559 -256300,-7079504 -256318,-7079408 -256321,-7079381 -256323,-7079343 -256324,-7079329 -256320,-7079307 -256314,-7079286 -256310,-7079275 -256299,-7079248 -256286,-7079223 -256268,-7079203 -256237,-7079179 -256186,-7079145 -256124,-7079114 -255980,-7079055 -255817,-7078971 -255778,-7078955 -255753,-7078950 -255738,-7078951 -255710,-7078956 -255645,-7078974 -255613,-7078976 -255587,-7078975 -255492,-7078943 -255437,-7078927 -255406,-7078909 -255372,-7078882 -255250,-7078776 -255219,-7078755 -255156,-7078695 -255115,-7078648 -255077,-7078575 -255066,-7078515 -255039,-7078425 -255022,-7078335 -255010,-7078275 -254974,-7078278 -254966,-7078286 -254955,-7078298 -254940,-7078306 -254936,-7078308 -254933,-7078313 -254931,-7078315 -254927,-7078322 -254919,-7078335 -254915,-7078344 -254910,-7078354 -254889,-7078373 -254880,-7078386 -254878,-7078401 -254868,-7078414 -254821,-7078426 -254818,-7078426 -254798,-7078425 -254732,-7078451 -254637,-7078493 -254568,-7078514 -254576,-7078519 -254588,-7078526 -254586,-7078534 -254551,-7078528 -254463,-7078535 -254414,-7078562 -254376,-7078565 -254374,-7078570 -254372,-7078578 -254354,-7078590 -254343,-7078599 -254342,-7078603 -254341,-7078613 -254317,-7078622 -254312,-7078624 -254268,-7078674 -254236,-7078714 -254237,-7078719 -254237,-7078722 -254231,-7078723 -254214,-7078727 -254187,-7078761 -254167,-7078784 -254095,-7078872 -254090,-7078878 -254079,-7078876 -254062,-7078874 -254049,-7078883 -254044,-7078894 -254041,-7078900 -254001,-7078920 -253957,-7078934 -253926,-7078961 -253896,-7078980 -253868,-7078993 -253822,-7079000 -253796,-7079011 -253770,-7079005 -253738,-7078998 -253735,-7078999 -253574,-7079043 -253532,-7079056 -253489,-7079060 -253430,-7079061 -253378,-7079062 -253357,-7079064 -253274,-7079076 -253192,-7079098 -253170,-7079110 -253134,-7079123 -253061,-7079157 -253007,-7079182 -252993,-7079188 -252976,-7079196 -252947,-7079220 -252923,-7079241 -252886,-7079289 -252881,-7079293 -252874,-7079298 -252874,-7079298 -252870,-7079300 -252861,-7079295 -252836,-7079280 -252822,-7079280 -252808,-7079281 -252800,-7079272 -252794,-7079266 -252774,-7079266 -252712,-7079297 -252609,-7079316 -252603,-7079318 -252603,-7079305 -252603,-7079293 -252500,-7079316 -252501,-7079320 -252502,-7079323 -252446,-7079335 -252441,-7079336 -252414,-7079342 -252329,-7079359 -252197,-7079383 -252145,-7079391 -252048,-7079402 -252011,-7079405 -251894,-7079418 -251796,-7079428 -251741,-7079434 -251605,-7079436 -251517,-7079440 -251493,-7079453 -251484,-7079458 -251472,-7079473 -251426,-7079430 -251428,-7079405 -251422,-7079399 -251412,-7079405 -251402,-7079413 -251401,-7079412 -251376,-7079401 -251339,-7079391 -251333,-7079398 -251314,-7079423 -251311,-7079421 -251283,-7079402 -251244,-7079384 -251239,-7079382 -251071,-7079328 -251035,-7079317 -250932,-7079278 -250650,-7079155 -250586,-7079126 -250526,-7079095 -250506,-7079086 -250494,-7079077 -250483,-7079067 -250478,-7079062 -250479,-7079043 -250431,-7079004 -250322,-7078910 -250223,-7078815 -250162,-7078750 -250125,-7078706 -250100,-7078664 -250049,-7078560 -250023,-7078504 -249997,-7078447 -249958,-7078348 -249946,-7078320 -249937,-7078300 -250009,-7078263 -250073,-7078197 -250076,-7078194 -250087,-7078167 -250105,-7078134 -250105,-7078111 -250102,-7078103 -250081,-7078099 -250087,-7078078 -250087,-7078062 -250105,-7078037 -250147,-7077991 -250184,-7077954 -250202,-7077936 -250221,-7077901 -250232,-7077881 -250240,-7077858 -250245,-7077831 -250255,-7077788 -250259,-7077788 -250280,-7077793 -250281,-7077790 -250282,-7077788 -250311,-7077794 -250353,-7077804 -250381,-7077809 -250388,-7077733 -250395,-7077709 -250408,-7077682 -250432,-7077637 -250505,-7077531 -250498,-7077529 -250344,-7077486 -250306,-7077476 -250341,-7077359 -250225,-7077319 -250182,-7077297 -249997,-7077236 -249997,-7077233 -249989,-7077179 -249983,-7077180 -249980,-7077156 -249985,-7077156 -249980,-7077126 -249975,-7077076 -249970,-7077077 -249967,-7077078 -249966,-7077075 -249964,-7077052 -249970,-7077050 -249961,-7076968 -249953,-7076969 -249952,-7076969 -249951,-7076960 -249949,-7076944 -249960,-7076943 -249959,-7076930 -249959,-7076925 -249991,-7076925 -250011,-7076890 -250035,-7076844 -250066,-7076788 -250086,-7076746 -250094,-7076724 -250102,-7076683 -250111,-7076617 -250122,-7076542 -250143,-7076472 -250243,-7076541 -250293,-7076579 -250334,-7076611 -250385,-7076640 -250557,-7076721 -250559,-7076718 -250639,-7076755 -250766,-7076613 -250745,-7076590 -250740,-7076585 -250741,-7076584 -250735,-7076577 -250732,-7076566 -250732,-7076560 -250742,-7076544 -250747,-7076540 -250749,-7076539 -250808,-7076441 -250828,-7076408 -250827,-7076402 -250826,-7076398 -250853,-7076355 -250891,-7076293 -250891,-7076287 -250900,-7076270 -250905,-7076266 -250925,-7076252 -250924,-7076250 -250913,-7076234 -250917,-7076231 -250940,-7076213 -250939,-7076211 -250985,-7076175 -250973,-7076161 -250977,-7076159 -250974,-7076156 -250983,-7076149 -250980,-7076145 -250973,-7076136 -250974,-7076134 -250984,-7076099 -251006,-7076097 -251006,-7076096 -251020,-7076094 -250947,-7075997 -250942,-7075986 -250942,-7075967 -250946,-7075949 -250956,-7075936 -250963,-7075927 -250977,-7075917 -251042,-7075879 -251072,-7075860 -251070,-7075856 -251048,-7075817 -251018,-7075765 -251016,-7075756 -251000,-7075730 -250988,-7075715 -250940,-7075630 -250938,-7075631 -250916,-7075592 -250917,-7075581 -250929,-7075574 -251009,-7075528 -250914,-7075363 -250848,-7075249 -250830,-7075234 -250768,-7075182 -250764,-7075176 -250762,-7075174 -250756,-7075166 -250747,-7075150 -250745,-7075138 -250745,-7075121 -250746,-7075095 -250756,-7075063 -250794,-7074928 -250853,-7074808 -250856,-7074803 -250766,-7074763 -250733,-7074751 -250690,-7074734 -250650,-7074710 -250636,-7074691 -250623,-7074672 -250569,-7074603 -250544,-7074556 -250543,-7074552 -250542,-7074511 -250556,-7074402 -250560,-7074355 -250556,-7074286 -250540,-7074207 -250535,-7074195 -250523,-7074170 -250517,-7074158 -250466,-7074122 -250440,-7074102 -250427,-7074092 -250394,-7074058 -250369,-7074026 -250364,-7074014 -250355,-7073920 -250347,-7073871 -250344,-7073857 -250333,-7073837 -250317,-7073824 -250196,-7073740 -250113,-7073676 -250050,-7073630 -250006,-7073599 -249955,-7073565 -249947,-7073554 -249941,-7073543 -249927,-7073512 -249923,-7073467 -249927,-7073421 -249952,-7073340 -249983,-7073244 -250019,-7073194 -250115,-7073105 -250120,-7073101 -250204,-7073020 -250283,-7072942 -250350,-7072883 -250430,-7072831 -250483,-7072794 -250528,-7072764 -250619,-7072718 -250701,-7072676 -250745,-7072653 -250833,-7072606 -250879,-7072576 -250957,-7072524 -251000,-7072487 -251077,-7072429 -251113,-7072397 -251182,-7072333 -251303,-7072196 -251381,-7072112 -251411,-7072077 -251492,-7071985 -251526,-7071945 -251594,-7071878 -251636,-7071843 -251661,-7071825 -251692,-7071807 -251715,-7071791 -251718,-7071789 -251759,-7071762 -251808,-7071730 -251841,-7071707 -251880,-7071672 -251903,-7071641 -251917,-7071611 -251938,-7071535 -251951,-7071476 -251961,-7071434 -251971,-7071386 -252004,-7071208 -252018,-7071142 -252033,-7071093 -252055,-7071054 -252084,-7071005 -252117,-7070966 -252137,-7070945 -252163,-7070930 -252174,-7070923 -252200,-7070907 -252248,-7070881 -252331,-7070835 -252377,-7070810 -252459,-7070758 -252572,-7070689 -252664,-7070632 -252755,-7070566 -252784,-7070543 -252831,-7070495 -252867,-7070464 -252891,-7070450 -252984,-7070367 -253053,-7070292 -253090,-7070252 -253156,-7070181 -253191,-7070143 -253254,-7070067 -253347,-7069951 -253383,-7069906 -253482,-7069786 -253503,-7069756 -253539,-7069715 -253572,-7069675 -253609,-7069634 -253641,-7069603 -253679,-7069573 -253708,-7069550 -253762,-7069514 -253806,-7069488 -253835,-7069475 -253865,-7069466 -253900,-7069457 -253948,-7069452 -253985,-7069452 -254020,-7069453 -254053,-7069457 -254081,-7069465 -254098,-7069473 -254190,-7069516 -254232,-7069536 -254241,-7069541 -254258,-7069552 -254304,-7069581 -254348,-7069611 -254389,-7069638 -254454,-7069678 -254644,-7069801 -255015,-7070031 -255350,-7070235 -255493,-7070317 -255646,-7070401 -255780,-7070483 -255970,-7070601 -256084,-7070670 -256188,-7070739 -256295,-7070815 -256343,-7070850 -256380,-7070877 -256525,-7070991 -256716,-7071143 -256852,-7071243 -256896,-7071274 -256936,-7071301 -256977,-7071341 -257050,-7071404 -257096,-7071446 -257197,-7071526 -257273,-7071584 -257296,-7071603 -257349,-7071643 -257410,-7071695 -257439,-7071718 -257497,-7071763 -257595,-7071837 -257736,-7071949 -257826,-7072018 -257854,-7072039 -257856,-7072040 -257942,-7072096 -257952,-7072101 -257980,-7072120 -258011,-7072136 -258063,-7072165 -258172,-7072218 -258307,-7072268 -258398,-7072295 -258490,-7072315 -258560,-7072326 -258661,-7072343 -258707,-7072350 -258848,-7072353 -258905,-7072351 -258965,-7072346 -259079,-7072335 -259135,-7072325 -259194,-7072313 -259246,-7072301 -259315,-7072282 -259336,-7072276 -259406,-7072250 -259448,-7072231 -259907,-7072045 -260166,-7071944 -260407,-7071842 -260541,-7071787 -260842,-7071670 -260878,-7071657 -261019,-7071606 -261185,-7071543 -261366,-7071481 -261653,-7071373 -261843,-7071296 -261872,-7071284 -261973,-7071244 -262045,-7071215 -262098,-7071191 -262150,-7071166 -262154,-7071164 -262400,-7071036 -262458,-7071003 -262584,-7070935 -262974,-7070716 -263249,-7070558 -263252,-7070556 -263310,-7070521 -263399,-7070468 -263670,-7070305 -263724,-7070275 -263914,-7070170 -264281,-7069956 -264521,-7069820 -264619,-7069761 -264651,-7069739 -264685,-7069717 -264768,-7069653 -264799,-7069621 -264822,-7069599 -264851,-7069571 -264934,-7069523 -264941,-7069520 -265022,-7069473 -265145,-7069405 -265167,-7069393 -265194,-7069379 -265242,-7069359 -265285,-7069343 -265367,-7069307 -265433,-7069277 -265559,-7069212 -265631,-7069175 -265703,-7069129 -265841,-7069034 -266027,-7068896 -266168,-7068782 -266216,-7068742 -266281,-7068690 -266415,-7068572 -266443,-7068546 -266581,-7068416 -266681,-7068325 -266756,-7068248 -266847,-7068150 -266918,-7068075 -267081,-7067886 -267280,-7067631 -267325,-7067567 -267424,-7067419 -267526,-7067276 -267778,-7066876 -267866,-7066706 -267965,-7066518 -267976,-7066493 -267999,-7066443 -268023,-7066388 -268048,-7066326 -268107,-7066193 -268180,-7066030 -268206,-7065964 -268220,-7065919 -268230,-7065878 -268231,-7065876 -268249,-7065814 -268250,-7065806 -268255,-7065779 -268260,-7065735 -268268,-7065606 -268268,-7065589 -268275,-7065564 -268276,-7065554 -268277,-7065547 -268277,-7065520 -268301,-7065442 -268363,-7065199 -268464,-7065029 -268516,-7064908 -268559,-7064803 -268590,-7064741 -268596,-7064726 -268602,-7064703 -268605,-7064682 -268614,-7064633 -268633,-7064552 -268637,-7064524 -268711,-7064482 -268712,-7064478 -268723,-7064445 -268724,-7064432 -268722,-7064426 -268717,-7064418 -268711,-7064413 -268671,-7064343 -268689,-7064300 -268698,-7064283 -268703,-7064275 -268704,-7064273 -268728,-7064241 -268735,-7064228 -268746,-7064205 -268759,-7064162 -268783,-7064054 -268806,-7063967 -268818,-7063910 -268836,-7063848 -268881,-7063752 -268903,-7063701 -268914,-7063673 -268971,-7063510 -268980,-7063475 -268991,-7063445 -268999,-7063425 -269090,-7063229 -269121,-7063168 -269170,-7063077 -269240,-7062969 -269313,-7062853 -269334,-7062824 -269346,-7062808 -269420,-7062715 -269523,-7062587 -269562,-7062542 -269620,-7062479 -269658,-7062438 -269721,-7062375 -269777,-7062322 -269940,-7062175 -269953,-7062164 -269967,-7062154 -269989,-7062141 -270032,-7062120 -270048,-7062116 -270060,-7062109 -270065,-7062105 -270104,-7062062 -270133,-7062035 -270152,-7062020 -270178,-7062002 -270225,-7061969 -270310,-7061910 -270965,-7061473 -271529,-7061093 -271897,-7060840 -272279,-7060589 -272300,-7060575 -272351,-7060536 -272493,-7060432 -272658,-7060307 -272663,-7060300 -272660,-7060349 -272656,-7060426 -272659,-7060455 -272661,-7060461 -272665,-7060469 -272671,-7060478 -272678,-7060486 -272691,-7060495 -272740,-7060504 -272755,-7060511 -272764,-7060518 -272769,-7060522 -272804,-7060561 -272816,-7060579 -272823,-7060595 -272836,-7060658 -272873,-7060805 -272874,-7060819 -272873,-7060830 -272872,-7060839 -272868,-7060850 -272839,-7060903 -272834,-7060912 -272825,-7060924 -272810,-7060942 -272765,-7060986 -272745,-7061012 -272740,-7061020 -272725,-7061071 -272719,-7061084 -272715,-7061090 -272705,-7061100 -272694,-7061109 -272667,-7061127 -272649,-7061151 -272642,-7061167 -272636,-7061187 -272631,-7061222 -272629,-7061309 -272629,-7061358 -272628,-7061375 -272616,-7061464 -272614,-7061499 -272620,-7061586 -272620,-7061604 -272623,-7061616 -272631,-7061635 -272654,-7061670 -272669,-7061689 -272687,-7061710 -272729,-7061750 -272767,-7061829 -272779,-7061861 -272795,-7061913 -272805,-7061954 -272841,-7062088 -272854,-7062137 -272894,-7062294 -272904,-7062320 -272914,-7062339 -272926,-7062361 -272927,-7062361 -272965,-7062413 -272980,-7062427 -272995,-7062439 -273061,-7062483 -273097,-7062517 -273139,-7062563 -273164,-7062587 -273174,-7062598 -273185,-7062613 -273194,-7062627 -273202,-7062643 -273278,-7062856 -273303,-7062932 -273338,-7062984 -273351,-7063003 -273376,-7063033 -273389,-7063047 -273411,-7063068 -273509,-7063180 -273621,-7063315 -273712,-7063448 -273763,-7063526 -273785,-7063562 -273809,-7063608 -273845,-7063680 -273923,-7063864 -273932,-7063887 -273995,-7064046 -274021,-7064098 -274037,-7064125 -274084,-7064168 -274116,-7064191 -274176,-7064230 -274195,-7064239 -274215,-7064246 -274233,-7064251 -274247,-7064254 -274274,-7064256 -274525,-7064247 -274551,-7064250 -274571,-7064254 -274613,-7064267 -274643,-7064280 -274662,-7064292 -274679,-7064304 -274688,-7064311 -274703,-7064326 -274731,-7064346 -274800,-7064408 -274808,-7064415 -274872,-7064466 -274964,-7064544 -275002,-7064574 -275048,-7064600 -275105,-7064613 -275129,-7064617 -275160,-7064620 -275225,-7064622 -275267,-7064622 -275277,-7064624 -275300,-7064630 -275335,-7064645 -275346,-7064649 -275372,-7064656 -275380,-7064660 -275394,-7064669 -275415,-7064689 -275429,-7064704 -275441,-7064721 -275463,-7064762 -275621,-7065023 -275671,-7065108 -275724,-7065207 -275771,-7065308 -275788,-7065336 -275841,-7065404 -275866,-7065443 -275873,-7065455 -275878,-7065469 -275881,-7065484 -275884,-7065500 -275884,-7065526 -275885,-7065559 -275884,-7065579 -275883,-7065589 -275879,-7065611 -275867,-7065640 -275848,-7065704 -275794,-7065859 -275790,-7065868 -275750,-7065932 -275717,-7065998 -275631,-7066198 -275622,-7066224 -275613,-7066260 -275612,-7066270 -275611,-7066285 -275613,-7066302 -275619,-7066327 -275625,-7066344 -275638,-7066366 -275733,-7066466 -275886,-7066621 -275935,-7066682 -276031,-7066825 -276140,-7066992 -276147,-7067002 -276229,-7067135 -276335,-7067328 -276376,-7067384 -276386,-7067396 -276398,-7067407 -276411,-7067418 -276424,-7067427 -276434,-7067433 -276452,-7067439 -276535,-7067478 -276552,-7067483 -276565,-7067489 -276585,-7067502 -276628,-7067539 -276674,-7067584 -276709,-7067609 -276727,-7067620 -276736,-7067626 -276743,-7067633 -276752,-7067643 -276759,-7067655 -276769,-7067676 -276792,-7067771 -276794,-7067780 -276795,-7067789 -276789,-7067855 -276787,-7067882 -276788,-7067892 -276791,-7067912 -276799,-7067933 -276814,-7067981 -276820,-7068037 -276821,-7068061 -276819,-7068100 -276821,-7068130 -276824,-7068149 -276829,-7068166 -276834,-7068183 -276839,-7068195 -276850,-7068214 -276891,-7068269 -276941,-7068332 -276958,-7068351 -276967,-7068360 -276977,-7068367 -276997,-7068380 -277059,-7068409 -277088,-7068426 -277128,-7068450 -277135,-7068457 -277141,-7068464 -277147,-7068473 -277150,-7068480 -277153,-7068489 -277154,-7068498 -277154,-7068513 -277155,-7068569 -277153,-7068587 -277153,-7068595 -277112,-7068622 -277059,-7068655 -277042,-7068659 -277038,-7068668 -277001,-7068668 -276967,-7068687 -276942,-7068673 -276913,-7068656 -276835,-7068625 -276808,-7068624 -276787,-7068634 -276738,-7068648 -276667,-7068665 -276619,-7068667 -276603,-7068675 -276591,-7068685 -276575,-7068686 -276555,-7068679 -276545,-7068677 -276532,-7068672 -276506,-7068669 -276464,-7068674 -276440,-7068681 -276422,-7068690 -276408,-7068708 -276398,-7068722 -276394,-7068737 -276395,-7068760 -276391,-7068772 -276381,-7068782 -276357,-7068793 -276339,-7068799 -276315,-7068816 -276289,-7068835 -276255,-7068852 -276227,-7068864 -276200,-7068880 -276170,-7068896 -276147,-7068899 -276087,-7068899 -276064,-7068903 -276046,-7068903 -276030,-7068883 -276016,-7068875 -276002,-7068873 -275978,-7068875 -275952,-7068882 -275849,-7068925 -275814,-7068942 -275768,-7068963 -275725,-7068979 -275718,-7068991 -275711,-7068999 -275703,-7068998 -275687,-7068996 -275521,-7068994 -275319,-7068987 -275096,-7068980 -274806,-7068973 -274525,-7068966 -274418,-7068963 -274416,-7068993 -274188,-7069029 -273950,-7069060 -273702,-7069092 -273509,-7069121 -273207,-7069166 -273115,-7069184 -272994,-7069199 -272647,-7069250 -272268,-7069301 -272141,-7069322 -271813,-7069366 -271533,-7069407 -271444,-7069421 -271216,-7069455 -271003,-7069486 -271023,-7069625 -271045,-7069786 -271116,-7070280 -271178,-7070704 -271188,-7070767 -271273,-7071378 -271296,-7071517 -271302,-7071560 -271340,-7071822 -271380,-7072116 -271401,-7072270 -271455,-7072641 -271457,-7072673 -271454,-7072705 -271449,-7072729 -271437,-7072765 -271423,-7072810 -271408,-7072848 -271404,-7072861 -271403,-7072870 -271401,-7072895 -271367,-7072955 -271358,-7072968 -271367,-7072976 -271348,-7072987 -271336,-7073004 -271311,-7073061 -271285,-7073077 -271277,-7073100 -271265,-7073142 -271260,-7073153 -271255,-7073160 -271251,-7073180 -271241,-7073219 -271237,-7073260 -271234,-7073293 -271231,-7073338 -271220,-7073356 -271214,-7073365 -271215,-7073386 -271225,-7073400 -271226,-7073422 -271224,-7073451 -271232,-7073469 -271230,-7073491 -271223,-7073512 -271222,-7073535 -271199,-7073556 -271184,-7073578 -271163,-7073598 -271133,-7073631 -271134,-7073681 -271142,-7073705 -271142,-7073755 -271138,-7073769 -271137,-7073843 -271156,-7073877 -271156,-7073911 -271158,-7073931 -271179,-7073952 -271178,-7073985 -271189,-7074008 -271189,-7074033 -271173,-7074131 -271175,-7074147 -271182,-7074170 -271186,-7074181 -271204,-7074213 -271202,-7074230 -271202,-7074244 -271218,-7074271 -271233,-7074306 -271253,-7074330 -271262,-7074345 -271287,-7074361 -271307,-7074382 -271320,-7074400 -271331,-7074410 -271336,-7074413 -271345,-7074418 -271365,-7074442 -271392,-7074459 -271426,-7074497 -271451,-7074564 -271453,-7074603 -271444,-7074616 -271423,-7074628 -271419,-7074660 -271403,-7074669 -271390,-7074685 -271381,-7074702 -271355,-7074730 -271316,-7074764 -271300,-7074770 -271288,-7074786 -271288,-7074805 -271278,-7074817 -271267,-7074819 -271257,-7074829 -271235,-7074843 -271208,-7074848 -271200,-7074856 -271186,-7074892 -271178,-7074915 -271163,-7074932 -271156,-7074937 -271145,-7074965 -271142,-7074974 -271117,-7074993 -271112,-7074998 -271110,-7075004 -271097,-7075043 -271093,-7075067 -271063,-7075098 -271058,-7075106 -271053,-7075175 -271052,-7075205 -271043,-7075222 -271030,-7075245 -271021,-7075259 -271018,-7075288 -271008,-7075327 -270985,-7075355 -270980,-7075369 -270974,-7075375 -270951,-7075387 -270952,-7075395 -270955,-7075404 -270953,-7075411 -270934,-7075429 -270927,-7075442 -270911,-7075457 -270909,-7075478 -270906,-7075490 -270890,-7075508 -270878,-7075518 -270859,-7075540 -270827,-7075550 -270810,-7075564 -270803,-7075581 -270791,-7075596 -270773,-7075601 -270752,-7075603 -270738,-7075622 -270737,-7075625 -270733,-7075638 -270721,-7075646 -270712,-7075647 -270701,-7075644 -270686,-7075656 -270686,-7075671 -270697,-7075674 -270698,-7075690 -270705,-7075708 -270730,-7075730 -270747,-7075750 -270753,-7075770 -270762,-7075780 -270776,-7075783 -270788,-7075794 -270789,-7075831 -270808,-7075891 -270826,-7075926 -270848,-7075960 -270853,-7076013 -270852,-7076116 -270852,-7076207 -270847,-7076232 -270841,-7076239 -270801,-7076260 -270781,-7076274 -270746,-7076289 -270716,-7076307 -270695,-7076314 -270687,-7076320 -270667,-7076327 -270655,-7076335 -270603,-7076356 -270566,-7076364 -270528,-7076367 -270535,-7076514 -270548,-7076723 -270555,-7076836 -270554,-7076922 -270404,-7076987 -270300,-7077029 -270229,-7077058 -270162,-7077083 -270093,-7077106 -269843,-7077181 -269716,-7077219 -269539,-7077269 -269519,-7077278 -269468,-7077291 -269449,-7077296 -269478,-7077341 -269542,-7077326 -269577,-7077365 -269568,-7077368 -269581,-7077387 -269614,-7077417 -269644,-7077438 -269645,-7077447 -269615,-7077464 -269566,-7077527 -269553,-7077554 -269560,-7077553 -269545,-7077581 -269581,-7077608 -269608,-7077645 -269647,-7077731 -269582,-7077762 -269424,-7077859 -269250,-7077965 -269332,-7078300 -269300,-7078288 -269277,-7078287 -269272,-7078284 -269246,-7078287 -269184,-7078290 -269177,-7078282 -269065,-7078281 -268999,-7078279 -268900,-7078273 -268875,-7078279 -268879,-7078290 -268899,-7078346 -268919,-7078415 -268920,-7078456 -268920,-7078486 -268920,-7078513 -268920,-7078542 -268920,-7078548 -268896,-7078583 -268857,-7078649 -268842,-7078662 -268834,-7078669 -268805,-7078721 -268788,-7078779 -268785,-7078813 -268812,-7078853 -268843,-7078901 -268861,-7078928 -268870,-7078941 -268880,-7078952 -268943,-7079021 -268965,-7079035 -268978,-7079051 -268988,-7079064 -269059,-7079181 -269200,-7079417 -269206,-7079416 -269219,-7079423 -269272,-7079472 -269445,-7079635 -269561,-7079746 -269591,-7079765 -269606,-7079774 -269702,-7079835 -269734,-7079844 -269767,-7079849 -269832,-7079866 -269907,-7079889 -269911,-7079898 -269932,-7079905 -269948,-7079906 -269998,-7079930 -270051,-7079954 -270094,-7079975 -270127,-7079994 -270154,-7080015 -270173,-7080033 -270194,-7080061 -270251,-7080072 -270296,-7080077 -270334,-7080091 -270458,-7080121 -270562,-7080147 -270606,-7080154 -270652,-7080161 -270700,-7080187 -270743,-7080203 -270777,-7080212 -270884,-7080240 -270982,-7080271 -271079,-7080295 -271202,-7080333 -271367,-7080388 -271519,-7080434 -271782,-7080510 -271971,-7080563 -271994,-7080567 -272275,-7080632 -272275,-7080638 -272335,-7080649 -272445,-7080682 -272703,-7080762 -272702,-7080768 -272808,-7080798 -272820,-7080808 -272888,-7080827 -272890,-7080818 -272936,-7080829 -272932,-7080838 -273012,-7080859 -273031,-7080861 -273143,-7080895 -273173,-7080898 -273178,-7080899 -273197,-7080902 -273197,-7080907 -273190,-7080934 -273186,-7080951 -273178,-7080961 -273163,-7080987 -273161,-7080994 -273159,-7081015 -273155,-7081025 -273148,-7081023 -273141,-7081028 -273099,-7081064 -273071,-7081090 -273060,-7081102 -273054,-7081116 -273051,-7081146 -273040,-7081151 -272991,-7081172 -272980,-7081177 -272957,-7081207 -272947,-7081219 -272942,-7081227 -272927,-7081259 -272923,-7081278 -272916,-7081288 -272906,-7081296 -272895,-7081310 -272886,-7081313 -272867,-7081315 -272860,-7081319 -272852,-7081337 -272850,-7081345 -272856,-7081371 -272854,-7081380 -272824,-7081375 -272765,-7081346 -272714,-7081334 -272619,-7081307 -272564,-7081307 -272524,-7081287 -272510,-7081300 -272513,-7081319 -272516,-7081346 -272517,-7081398 -272504,-7081432 -272509,-7081464 -272505,-7081474 -272492,-7081492 -272488,-7081523 -272465,-7081543 -272448,-7081553 -272409,-7081557 -272397,-7081562 -272383,-7081572 -272373,-7081600 -272367,-7081607 -272348,-7081620 -272337,-7081633 -272320,-7081670 -272310,-7081688 -272261,-7081685 -272250,-7081701 -272243,-7081719 -272238,-7081723 -272214,-7081737 -272206,-7081746 -272171,-7081800 -272167,-7081802 -272146,-7081807 -272132,-7081814 -272134,-7081853 -272114,-7081892 -272104,-7081930 -272092,-7081937 -272070,-7081944 -272050,-7081961 -272046,-7081978 -272042,-7082024 -272032,-7082041 -272017,-7082061 -272015,-7082064 -271978,-7082072 -271965,-7082081 -271968,-7082087 -271981,-7082106 -271980,-7082125 -271950,-7082164 -271935,-7082202 -271922,-7082260 -271884,-7082280 -271894,-7082329 -271870,-7082338 -271861,-7082314 -271860,-7082314 -271851,-7082318 -271847,-7082322 -271843,-7082326 -271839,-7082334 -271832,-7082353 -271827,-7082375 -271825,-7082387 -271823,-7082420 -271814,-7082428 -271798,-7082437 -271794,-7082440 -271783,-7082457 -271778,-7082483 -271772,-7082554 -271758,-7082608 -271784,-7082646 -271799,-7082703 -271838,-7082791 -271835,-7082834 -271828,-7082855 -271828,-7082857 -271821,-7082875 -271819,-7082892 -271817,-7082942 -271815,-7082952 -271815,-7082953 -271810,-7082969 -271801,-7083001 -271784,-7083036 -271784,-7083046 -271773,-7083070 -271768,-7083085 -271763,-7083102 -271755,-7083147 -271733,-7083195 -271729,-7083208 -271726,-7083220 -271726,-7083231 -271728,-7083270 -271719,-7083280 -271677,-7083306 -271673,-7083311 -271661,-7083334 -271633,-7083375 -271616,-7083395 -271606,-7083405 -271595,-7083415 -271583,-7083423 -271571,-7083431 -271484,-7083448 -271471,-7083452 -271456,-7083458 -271446,-7083474 -271435,-7083499 -271408,-7083521 -271396,-7083574 -271394,-7083583 -271373,-7083675 -271308,-7083915 -271307,-7083915 -271301,-7083936" stroke="#003087" stroke-width="50" /></ns0:svg>    <rect x="20" y="50"  width="250" height="25"  rx="0"  fill="#003087" fill-opacity="0.8" />    <text x="145" y="70" text-anchor="middle" font-family="Frutiger" font-weight="bold" font-size="30" fill="white">Salford</text>    <rect x="35" y="195" width="220" height="160" rx="15" fill="#41B6E6"/>    <g font-family="Frutiger" font-size="15" fill="white">        <g> <text x="45" y="218">Self-harm</text> <text x="245" y="218" text-anchor="end">52</text> </g>        <g> <text x="45" y="243">SEN</text> <text x="245" y="243" text-anchor="end">84</text> </g>        <g> <text x="45" y="268">Difficulties</text> <text x="245" y="268" text-anchor="end">69</text> </g>        <g> <text x="45" y="293">Child Carer</text> <text x="245" y="293" text-anchor="end">4</text> </g>        <g> <text x="45" y="318">Drinkers</text> <text x="245" y="318" text-anchor="end">64</text> </g>        <g> <text x="45" y="343">Safeguarding £</text> <text x="245" y="343" text-anchor="end">23</text> </g>    </g></svg>