<?xml version="1.0" standalone="no"?>
<!DOCTYPE svg PUBLIC "-//W3C//DTD SVG 1.1//EN"
"http://www.w3.org/Graphics/SVG/1.1/DTD/svg11.dtd">
<svg height="1800" version="1.1" width="1800" xmlns="http://www.w3.org/2000/svg"><defs><style type="text/css">@font-face {font-family: 'Frutiger';font-style: normal;font-weight: normal;src: local('Frutiger'), url('../fonts/Frutiger.woff') format('woff');}@font-face {font-family: 'Frutiger Bold';font-style: normal;font-weight: normal;src: local('Frutiger Bold'), url('../fonts/Frutiger_bold.woff') format('woff');}        </style>    </defs>    <rect x="20" y="20"  width="250" height="350" rx="15" fill="#AE2573" />    <rect x="35" y="35"  width="220" height="145" rx="15" fill="#330072" /><ns0:svg xmlns:ns0="http://www.w3.org/2000/svg" height="115" version="1.1" viewBox="-275900 -7072353 25095 22966" width="220" x="35" y="50"><ns0:polygon fill="white" points=" -253985,-7069452 -253948,-7069452 -253900,-7069457 -253865,-7069466 -253835,-7069475 -253806,-7069488 -253762,-7069514 -253708,-7069550 -253679,-7069573 -253641,-7069603 -253609,-7069634 -253572,-7069675 -253539,-7069715 -253503,-7069756 -253482,-7069786 -253383,-7069906 -253347,-7069951 -253254,-7070067 -253191,-7070143 -253156,-7070181 -253090,-7070252 -253053,-7070292 -252984,-7070367 -252891,-7070450 -252867,-7070464 -252831,-7070495 -252784,-7070543 -252755,-7070566 -252664,-7070632 -252572,-7070689 -252459,-7070758 -252377,-7070810 -252331,-7070835 -252248,-7070881 -252200,-7070907 -252174,-7070923 -252157,-7070892 -252149,-7070882 -252169,-7070856 -252192,-7070820 -252255,-7070703 -252275,-7070666 -252300,-7070620 -252329,-7070568 -252380,-7070493 -252414,-7070451 -252490,-7070358 -252429,-7070354 -252425,-7070356 -252412,-7070357 -252332,-7070347 -252319,-7070355 -252312,-7070345 -252271,-7070348 -252243,-7070353 -252217,-7070362 -252192,-7070321 -252141,-7070246 -252090,-7070182 -252151,-7070126 -252129,-7070092 -252112,-7070062 -252097,-7070027 -252090,-7070017 -252088,-7070014 -252073,-7069998 -252040,-7069975 -252034,-7069985 -252016,-7069974 -251991,-7069993 -251968,-7069967 -251972,-7069963 -251961,-7069950 -251947,-7069962 -251924,-7069933 -251900,-7069924 -251882,-7069933 -251851,-7069893 -251855,-7069890 -251803,-7069827 -251731,-7069734 -251714,-7069710 -251684,-7069676 -251618,-7069588 -251606,-7069579 -251576,-7069588 -251560,-7069537 -251548,-7069542 -251523,-7069461 -251472,-7069310 -251428,-7069268 -251433,-7069263 -251419,-7069248 -251419,-7069237 -251407,-7069230 -251409,-7069110 -251373,-7069110 -251373,-7069046 -251350,-7069046 -251350,-7068988 -251343,-7068984 -251305,-7068996 -251281,-7068998 -251263,-7068994 -251251,-7068987 -251178,-7068950 -251174,-7068949 -251170,-7068953 -251156,-7068951 -251125,-7068949 -251091,-7068958 -250996,-7068988 -250952,-7069005 -250934,-7069017 -250887,-7069059 -250883,-7069053 -250879,-7069031 -250869,-7069009 -250863,-7069012 -250832,-7068949 -250810,-7068874 -250805,-7068793 -250858,-7068775 -250849,-7068749 -250836,-7068727 -250835,-7068705 -250830,-7068688 -250830,-7068677 -250839,-7068665 -250849,-7068660 -250903,-7068643 -250907,-7068637 -250893,-7068597 -250888,-7068591 -250884,-7068580 -250892,-7068574 -250888,-7068560 -250879,-7068532 -251023,-7068495 -251088,-7068478 -251109,-7068468 -251186,-7068426 -251275,-7068378 -251360,-7068333 -251380,-7068323 -251395,-7068314 -251723,-7067979 -252099,-7067592 -252239,-7067448 -252386,-7067295 -252525,-7067151 -252527,-7067150 -252532,-7067147 -252618,-7067060 -252724,-7066948 -252858,-7066810 -252861,-7066807 -252894,-7066798 -252992,-7066784 -253026,-7066779 -253031,-7066779 -253066,-7066779 -253081,-7066778 -253120,-7066774 -253153,-7066770 -253217,-7066767 -253322,-7066767 -253343,-7066769 -253376,-7066776 -253441,-7066774 -253493,-7066768 -253574,-7066735 -253620,-7066718 -253677,-7066711 -253739,-7066708 -253760,-7066697 -253761,-7066660 -253767,-7066632 -253775,-7066563 -253781,-7066523 -253830,-7066522 -253934,-7066536 -253976,-7066540 -254002,-7066535 -254037,-7066524 -254087,-7066511 -254137,-7066510 -254157,-7066491 -254293,-7066489 -254294,-7066485 -254329,-7066487 -254354,-7066490 -254373,-7066493 -254427,-7066496 -254504,-7066503 -254601,-7066309 -254689,-7066133 -254734,-7066044 -254753,-7066008 -254800,-7065915 -254801,-7065913 -254874,-7065768 -254882,-7065753 -254906,-7065771 -254935,-7065794 -254957,-7065763 -254957,-7065755 -254951,-7065755 -254950,-7065749 -254957,-7065750 -255000,-7065772 -255123,-7065809 -255134,-7065795 -255172,-7065731 -255242,-7065614 -255269,-7065636 -255284,-7065595 -255284,-7065482 -255185,-7065449 -255144,-7065424 -255104,-7065403 -255089,-7065389 -255069,-7065365 -255052,-7065342 -255015,-7065278 -254992,-7065235 -254981,-7065199 -254952,-7065144 -254919,-7065084 -254908,-7065063 -254907,-7065045 -254916,-7065009 -254932,-7064984 -255030,-7064767 -255064,-7064722 -255087,-7064656 -255101,-7064649 -255138,-7064624 -255160,-7064613 -255184,-7064606 -255258,-7064596 -255330,-7064588 -255409,-7064585 -255438,-7064585 -255527,-7064580 -255511,-7064486 -255496,-7064414 -255485,-7064364 -255474,-7064323 -255444,-7064215 -255400,-7064068 -255419,-7064067 -255440,-7064061 -255492,-7064039 -255522,-7064029 -255532,-7064030 -255541,-7064032 -255551,-7064041 -255565,-7064049 -255596,-7064056 -255616,-7064062 -255636,-7064074 -255684,-7064128 -255697,-7064139 -255713,-7064144 -255740,-7064143 -255755,-7064147 -255773,-7064156 -255799,-7064175 -255817,-7064186 -255845,-7064194 -255870,-7064206 -255894,-7064225 -255959,-7064273 -256001,-7064304 -256012,-7064263 -256045,-7064177 -256055,-7064134 -256057,-7064121 -256057,-7064109 -256056,-7064096 -256054,-7064083 -256049,-7064056 -256035,-7064004 -256032,-7063982 -256029,-7063909 -256030,-7063851 -256032,-7063759 -256036,-7063717 -256039,-7063687 -256041,-7063679 -256042,-7063671 -256041,-7063641 -256036,-7063610 -256022,-7063581 -256019,-7063577 -255995,-7063555 -255965,-7063542 -255914,-7063525 -255845,-7063508 -255788,-7063494 -255755,-7063478 -255718,-7063459 -255670,-7063432 -255632,-7063413 -255593,-7063397 -255567,-7063392 -255542,-7063390 -255508,-7063393 -255460,-7063402 -255434,-7063409 -255381,-7063423 -255345,-7063431 -255316,-7063434 -255286,-7063435 -255266,-7063432 -255249,-7063428 -255160,-7063400 -255105,-7063376 -255061,-7063360 -255010,-7063348 -254975,-7063344 -254918,-7063341 -254884,-7063337 -254856,-7063329 -254821,-7063316 -254799,-7063303 -254777,-7063287 -254764,-7063276 -254748,-7063262 -254730,-7063244 -254707,-7063220 -254687,-7063196 -254670,-7063174 -254638,-7063128 -254608,-7063076 -254559,-7062978 -254520,-7062908 -254504,-7062876 -254486,-7062843 -254468,-7062791 -254462,-7062762 -254450,-7062683 -254436,-7062547 -254434,-7062533 -254426,-7062501 -254401,-7062420 -254335,-7062248 -254307,-7062169 -254292,-7062121 -254283,-7062098 -254272,-7062076 -254258,-7062055 -254240,-7062032 -254223,-7062011 -254214,-7062003 -254188,-7061978 -254162,-7061959 -254091,-7061913 -254061,-7061894 -254011,-7061868 -253965,-7061842 -253906,-7061812 -253878,-7061799 -253844,-7061790 -253808,-7061778 -253751,-7061761 -253667,-7061741 -253559,-7061714 -253423,-7061709 -253385,-7061700 -253324,-7061683 -253279,-7061662 -253205,-7061614 -253144,-7061573 -253111,-7061546 -253109,-7061545 -253098,-7061534 -253122,-7061484 -253164,-7061383 -253133,-7061369 -253153,-7061319 -253198,-7061209 -253201,-7061202 -253219,-7061155 -253300,-7060956 -253412,-7061002 -253418,-7060988 -253382,-7060968 -253362,-7060953 -253375,-7060938 -253387,-7060920 -253383,-7060918 -253406,-7060880 -253423,-7060863 -253470,-7060852 -253501,-7060844 -253536,-7060824 -253543,-7060818 -253565,-7060800 -253590,-7060767 -253599,-7060766 -253607,-7060752 -253616,-7060725 -253631,-7060626 -253632,-7060607 -253623,-7060584 -253619,-7060543 -253611,-7060503 -253609,-7060453 -253603,-7060420 -253594,-7060408 -253582,-7060373 -253580,-7060309 -253577,-7060260 -253573,-7060246 -253560,-7060235 -253561,-7060228 -253569,-7060221 -253595,-7060209 -253630,-7060201 -253640,-7060208 -253650,-7060211 -253721,-7060216 -253783,-7060202 -253840,-7060201 -253880,-7060197 -253918,-7060190 -253980,-7060186 -253996,-7060192 -254021,-7060215 -254048,-7060237 -254075,-7060262 -254110,-7060295 -254124,-7060310 -254152,-7060324 -254185,-7060340 -254216,-7060349 -254224,-7060352 -254243,-7060354 -254277,-7060351 -254288,-7060350 -254290,-7060349 -254310,-7060346 -254329,-7060336 -254342,-7060328 -254389,-7060281 -254404,-7060261 -254430,-7060235 -254449,-7060223 -254506,-7060205 -254507,-7060205 -254531,-7060187 -254546,-7060177 -254557,-7060168 -254616,-7060118 -254673,-7060170 -254690,-7060186 -254713,-7060214 -254728,-7060213 -254736,-7060212 -254744,-7060210 -254769,-7060202 -254776,-7060200 -254797,-7060204 -254801,-7060201 -254811,-7060194 -254820,-7060188 -254838,-7060172 -254841,-7060169 -254881,-7060128 -254900,-7060108 -254932,-7060061 -254963,-7060025 -254974,-7060016 -255022,-7059984 -255112,-7059936 -255156,-7059914 -255205,-7059895 -255258,-7059884 -255360,-7059868 -255364,-7059866 -255375,-7059855 -255380,-7059846 -255383,-7059838 -255396,-7059817 -255401,-7059809 -255432,-7059765 -255460,-7059732 -255478,-7059710 -255544,-7059644 -255579,-7059608 -255606,-7059575 -255607,-7059574 -255609,-7059575 -255613,-7059576 -255636,-7059562 -255647,-7059550 -255657,-7059527 -255671,-7059486 -255688,-7059449 -255716,-7059408 -255731,-7059387 -255735,-7059377 -255740,-7059357 -255755,-7059269 -255765,-7059214 -255769,-7059167 -255777,-7059113 -255784,-7059036 -255785,-7058968 -255780,-7058894 -255780,-7058893 -255796,-7058898 -255842,-7058928 -255868,-7058945 -255928,-7058980 -255977,-7059011 -255997,-7059027 -255998,-7059028 -256007,-7059039 -256016,-7059051 -256025,-7059072 -256027,-7059078 -256040,-7059097 -256053,-7059114 -256068,-7059129 -256087,-7059143 -256112,-7059155 -256128,-7059160 -256131,-7059162 -256158,-7059163 -256210,-7059164 -256242,-7059159 -256260,-7059155 -256309,-7059141 -256330,-7059133 -256346,-7059131 -256367,-7059133 -256396,-7059133 -256419,-7059124 -256420,-7059122 -256433,-7059122 -256444,-7059125 -256515,-7059175 -256546,-7059197 -256549,-7059197 -256570,-7059193 -256637,-7059191 -256638,-7059192 -256644,-7059192 -256668,-7059203 -256691,-7059210 -256738,-7059209 -256771,-7059197 -256820,-7059163 -256829,-7059161 -256841,-7059159 -256852,-7059164 -256872,-7059180 -256887,-7059181 -256905,-7059170 -256919,-7059171 -256944,-7059170 -256969,-7059167 -256994,-7059180 -257056,-7059183 -257105,-7059177 -257126,-7059173 -257157,-7059168 -257202,-7059170 -257227,-7059166 -257253,-7059163 -257284,-7059166 -257314,-7059168 -257339,-7059178 -257363,-7059181 -257395,-7059179 -257415,-7059175 -257433,-7059166 -257449,-7059166 -257479,-7059181 -257501,-7059191 -257530,-7059212 -257552,-7059233 -257580,-7059243 -257610,-7059270 -257629,-7059276 -257646,-7059279 -257662,-7059288 -257711,-7059324 -257736,-7059327 -257769,-7059342 -257788,-7059359 -257800,-7059367 -257822,-7059370 -257839,-7059375 -257864,-7059389 -257893,-7059403 -257924,-7059408 -257958,-7059416 -258026,-7059416 -258036,-7059410 -258052,-7059407 -258064,-7059409 -258076,-7059419 -258108,-7059459 -258120,-7059467 -258171,-7059490 -258192,-7059498 -258252,-7059503 -258090,-7059201 -257869,-7058785 -257753,-7058565 -257723,-7058509 -257667,-7058404 -257601,-7058279 -257536,-7058158 -257476,-7058046 -257318,-7057751 -257243,-7057609 -257185,-7057497 -257160,-7057453 -257132,-7057399 -257126,-7057390 -257107,-7057376 -257090,-7057366 -257085,-7057360 -257072,-7057335 -257068,-7057324 -257048,-7057284 -257041,-7057244 -257030,-7057209 -256992,-7057138 -256942,-7057041 -256923,-7057007 -256908,-7056976 -256899,-7056958 -256878,-7056914 -256851,-7056849 -256808,-7056822 -256783,-7056809 -256761,-7056801 -256744,-7056797 -256714,-7056802 -256695,-7056806 -256682,-7056807 -256672,-7056805 -256663,-7056797 -256658,-7056785 -256652,-7056782 -256646,-7056783 -256627,-7056793 -256603,-7056791 -256592,-7056788 -256572,-7056755 -256570,-7056735 -256550,-7056722 -256542,-7056711 -256540,-7056691 -256546,-7056679 -256543,-7056659 -256536,-7056643 -256541,-7056620 -256533,-7056604 -256523,-7056595 -256521,-7056578 -256515,-7056572 -256501,-7056545 -256478,-7056524 -256476,-7056512 -256466,-7056501 -256465,-7056484 -256459,-7056468 -256455,-7056461 -256446,-7056441 -256444,-7056427 -256434,-7056409 -256426,-7056402 -256423,-7056399 -256405,-7056368 -256396,-7056355 -256389,-7056336 -256358,-7056283 -256337,-7056247 -256314,-7056226 -256276,-7056193 -256252,-7056175 -256238,-7056172 -256227,-7056164 -256228,-7056151 -256221,-7056137 -256221,-7056123 -256209,-7056112 -256192,-7056112 -256192,-7056097 -256178,-7056079 -256177,-7056069 -256171,-7056062 -256157,-7056033 -256156,-7056022 -256151,-7056016 -256138,-7056019 -256135,-7056008 -256124,-7055999 -256115,-7055977 -256104,-7055971 -256113,-7055957 -256096,-7055938 -256087,-7055920 -256092,-7055899 -256082,-7055894 -256074,-7055890 -256070,-7055884 -256065,-7055876 -256057,-7055870 -256051,-7055867 -256046,-7055865 -256040,-7055865 -256039,-7055865 -256035,-7055860 -256035,-7055854 -256043,-7055849 -256043,-7055847 -256043,-7055840 -256038,-7055832 -256037,-7055832 -256028,-7055833 -256022,-7055825 -256021,-7055813 -256015,-7055803 -256015,-7055797 -256027,-7055787 -256036,-7055778 -256036,-7055767 -256044,-7055759 -256042,-7055725 -256044,-7055715 -256055,-7055703 -256055,-7055683 -256065,-7055675 -256066,-7055674 -256066,-7055669 -256049,-7055666 -256048,-7055664 -256044,-7055661 -256043,-7055648 -256041,-7055639 -256039,-7055632 -256030,-7055620 -256030,-7055608 -256036,-7055600 -256037,-7055572 -256040,-7055531 -256038,-7055517 -256034,-7055505 -256028,-7055496 -256025,-7055492 -256024,-7055481 -256019,-7055478 -256020,-7055472 -256024,-7055465 -256025,-7055451 -256021,-7055444 -256021,-7055431 -256027,-7055426 -256034,-7055425 -256040,-7055422 -256047,-7055419 -256050,-7055415 -256053,-7055409 -256077,-7055394 -256084,-7055376 -256088,-7055367 -256054,-7055355 -256049,-7055353 -256048,-7055343 -256060,-7055330 -256060,-7055326 -256059,-7055319 -256059,-7055318 -256052,-7055304 -256052,-7055295 -256053,-7055294 -256055,-7055290 -256056,-7055287 -256061,-7055285 -256074,-7055286 -256076,-7055282 -256076,-7055278 -256071,-7055274 -256071,-7055264 -256071,-7055262 -256067,-7055262 -256062,-7055262 -256058,-7055258 -256057,-7055252 -256063,-7055246 -256063,-7055244 -256063,-7055235 -256056,-7055229 -256044,-7055230 -256034,-7055225 -256024,-7055225 -256023,-7055224 -256017,-7055220 -256017,-7055212 -256021,-7055201 -256022,-7055199 -256020,-7055192 -256012,-7055189 -256010,-7055186 -256003,-7055179 -256002,-7055159 -256010,-7055158 -256016,-7055159 -256024,-7055161 -256032,-7055155 -256032,-7055149 -256033,-7055132 -256034,-7055129 -256032,-7055129 -256016,-7055123 -256016,-7055117 -256016,-7055112 -256005,-7055108 -255991,-7055103 -255987,-7055099 -255988,-7055095 -255993,-7055089 -255993,-7055073 -255998,-7055059 -256005,-7055051 -256004,-7055045 -256002,-7055036 -255992,-7055029 -255979,-7055023 -255965,-7055010 -255967,-7055006 -255977,-7054993 -255982,-7054976 -255982,-7054957 -255985,-7054948 -255995,-7054938 -256007,-7054938 -256008,-7054908 -255990,-7054907 -255990,-7054894 -255978,-7054878 -255966,-7054881 -255960,-7054877 -255954,-7054861 -255963,-7054851 -255962,-7054835 -255966,-7054829 -255965,-7054816 -255958,-7054809 -255940,-7054797 -255943,-7054770 -255940,-7054755 -255940,-7054737 -255951,-7054726 -255952,-7054716 -255959,-7054709 -255969,-7054710 -255987,-7054693 -256004,-7054659 -256006,-7054646 -256012,-7054637 -256011,-7054625 -256003,-7054609 -255988,-7054609 -255985,-7054604 -255985,-7054599 -256012,-7054580 -256049,-7054550 -256058,-7054529 -256061,-7054516 -256060,-7054499 -256053,-7054490 -256044,-7054469 -256028,-7054468 -256029,-7054449 -256020,-7054438 -256020,-7054407 -256007,-7054391 -255999,-7054391 -255976,-7054377 -255970,-7054363 -255951,-7054360 -255938,-7054342 -255927,-7054335 -255927,-7054315 -255918,-7054306 -255908,-7054302 -255888,-7054298 -255884,-7054293 -255880,-7054278 -255870,-7054270 -255871,-7054253 -255866,-7054249 -255839,-7054250 -255834,-7054246 -255823,-7054246 -255821,-7054231 -255811,-7054210 -255809,-7054202 -255815,-7054189 -255812,-7054182 -255788,-7054159 -255778,-7054139 -255771,-7054133 -255760,-7054133 -255755,-7054139 -255743,-7054137 -255729,-7054132 -255729,-7054121 -255726,-7054114 -255718,-7054111 -255709,-7054112 -255698,-7054104 -255686,-7054106 -255680,-7054099 -255677,-7054087 -255664,-7054071 -255655,-7054064 -255655,-7054038 -255650,-7054019 -255614,-7054004 -255558,-7053984 -255496,-7053949 -255468,-7053938 -255444,-7053928 -255428,-7053913 -255416,-7053922 -255405,-7053923 -255390,-7053919 -255389,-7053895 -255373,-7053884 -255368,-7053871 -255364,-7053858 -255351,-7053844 -255329,-7053820 -255313,-7053805 -255298,-7053796 -255249,-7053769 -255220,-7053748 -255218,-7053739 -255219,-7053716 -255216,-7053708 -255204,-7053690 -255202,-7053658 -255193,-7053650 -255181,-7053645 -255164,-7053630 -255149,-7053605 -255133,-7053590 -255114,-7053564 -255090,-7053531 -255079,-7053500 -255064,-7053474 -255049,-7053440 -255038,-7053429 -255018,-7053395 -255015,-7053379 -255006,-7053360 -254994,-7053340 -254991,-7053330 -254981,-7053323 -254966,-7053316 -254956,-7053307 -254942,-7053287 -254932,-7053268 -254929,-7053254 -254919,-7053230 -254908,-7053214 -254892,-7053206 -254871,-7053175 -254863,-7053143 -254854,-7053133 -254847,-7053115 -254819,-7053099 -254806,-7053089 -254784,-7053048 -254764,-7053019 -254743,-7053004 -254709,-7052984 -254689,-7052977 -254656,-7052964 -254638,-7052951 -254618,-7052931 -254612,-7052917 -254591,-7052921 -254558,-7052923 -254522,-7052923 -254488,-7052918 -254464,-7052910 -254439,-7052898 -254514,-7052824 -254516,-7052821 -254531,-7052811 -254530,-7052810 -254519,-7052797 -254522,-7052795 -254610,-7052688 -254675,-7052607 -254729,-7052540 -254781,-7052470 -254829,-7052400 -254934,-7052237 -254984,-7052238 -255004,-7052182 -255039,-7052106 -255057,-7052076 -255097,-7051996 -255120,-7051940 -255148,-7051874 -255169,-7051838 -255205,-7051800 -255203,-7051782 -255218,-7051783 -255223,-7051739 -255233,-7051690 -255258,-7051627 -255284,-7051570 -255308,-7051499 -255361,-7051354 -255409,-7051190 -255426,-7051141 -255448,-7051072 -255470,-7050988 -255457,-7050985 -255465,-7050959 -255478,-7050955 -255497,-7050895 -255515,-7050825 -255542,-7050732 -255565,-7050664 -255598,-7050584 -255609,-7050534 -255636,-7050457 -255615,-7050450 -255646,-7050387 -255677,-7050332 -255686,-7050316 -255724,-7050268 -255706,-7050250 -255754,-7050179 -255793,-7050120 -255878,-7050021 -255929,-7049971 -255990,-7049913 -256044,-7049869 -256063,-7049894 -256121,-7049844 -256228,-7049780 -256319,-7049726 -256380,-7049697 -256491,-7049653 -256570,-7049619 -256621,-7049600 -256659,-7049585 -256707,-7049565 -256791,-7049541 -256793,-7049547 -256805,-7049554 -256827,-7049556 -256840,-7049548 -256862,-7049543 -256886,-7049526 -257010,-7049506 -257092,-7049483 -257162,-7049464 -257228,-7049455 -257295,-7049436 -257362,-7049420 -257555,-7049417 -257561,-7049403 -257562,-7049391 -257593,-7049387 -257591,-7049390 -257588,-7049402 -257585,-7049419 -257576,-7049499 -257577,-7049519 -257579,-7049537 -257582,-7049548 -257586,-7049561 -257595,-7049581 -257605,-7049599 -257612,-7049610 -257620,-7049621 -257628,-7049631 -257640,-7049642 -257654,-7049655 -257666,-7049665 -257686,-7049677 -257696,-7049682 -257710,-7049687 -257726,-7049690 -257765,-7049695 -257828,-7049698 -257848,-7049699 -258005,-7049703 -258015,-7049705 -258023,-7049705 -258033,-7049703 -258042,-7049700 -258055,-7049692 -258078,-7049680 -258126,-7049650 -258152,-7049638 -258191,-7049617 -258204,-7049611 -258217,-7049607 -258227,-7049605 -258245,-7049606 -258250,-7049607 -258262,-7049614 -258289,-7049647 -258315,-7049671 -258347,-7049712 -258354,-7049721 -258389,-7049758 -258402,-7049769 -258408,-7049772 -258417,-7049775 -258427,-7049777 -258473,-7049784 -258486,-7049784 -258496,-7049783 -258513,-7049778 -258520,-7049774 -258524,-7049771 -258535,-7049760 -258550,-7049745 -258555,-7049739 -258561,-7049726 -258564,-7049717 -258565,-7049707 -258565,-7049698 -258563,-7049684 -258553,-7049655 -258535,-7049620 -258535,-7049609 -258537,-7049600 -258541,-7049593 -258559,-7049565 -258564,-7049560 -258573,-7049553 -258585,-7049546 -258597,-7049541 -258611,-7049537 -258623,-7049537 -258635,-7049541 -258642,-7049544 -258648,-7049548 -258654,-7049554 -258664,-7049567 -258681,-7049611 -258687,-7049661 -258691,-7049685 -258692,-7049698 -258692,-7049754 -258709,-7049808 -258710,-7049828 -258723,-7049884 -258726,-7049892 -258734,-7049909 -258735,-7049915 -258735,-7049922 -258733,-7049938 -258720,-7049989 -258716,-7050008 -258717,-7050014 -258718,-7050020 -258734,-7050062 -258741,-7050098 -258745,-7050112 -258750,-7050125 -258767,-7050137 -258780,-7050141 -258789,-7050144 -258798,-7050147 -258817,-7050151 -258864,-7050147 -258906,-7050147 -258917,-7050146 -258927,-7050145 -258948,-7050138 -258958,-7050137 -258989,-7050126 -259000,-7050118 -259018,-7050102 -259031,-7050085 -259036,-7050077 -259042,-7050065 -259046,-7050051 -259049,-7050034 -259057,-7050008 -259076,-7049993 -259131,-7049957 -259144,-7049953 -259154,-7049953 -259164,-7049955 -259196,-7049970 -259221,-7049984 -259268,-7050013 -259325,-7050054 -259359,-7050082 -259396,-7050116 -259417,-7050135 -259451,-7050170 -259468,-7050197 -259476,-7050223 -259476,-7050250 -259465,-7050284 -259446,-7050311 -259419,-7050341 -259345,-7050410 -259329,-7050450 -259322,-7050476 -259324,-7050523 -259331,-7050551 -259362,-7050602 -259380,-7050619 -259402,-7050633 -259415,-7050634 -259434,-7050630 -259443,-7050626 -259478,-7050607 -259494,-7050600 -259510,-7050593 -259536,-7050587 -259552,-7050590 -259569,-7050601 -259591,-7050620 -259611,-7050639 -259622,-7050658 -259632,-7050681 -259635,-7050713 -259635,-7050728 -259632,-7050773 -259632,-7050795 -259641,-7050819 -259648,-7050831 -259671,-7050864 -259697,-7050892 -259711,-7050901 -259725,-7050910 -259748,-7050920 -259773,-7050923 -259838,-7050922 -259841,-7050922 -259867,-7050930 -259947,-7050969 -259984,-7050993 -260079,-7051059 -260155,-7051126 -260178,-7051140 -260199,-7051147 -260216,-7051141 -260222,-7051136 -260233,-7051124 -260238,-7051117 -260240,-7051111 -260243,-7051088 -260231,-7051048 -260231,-7051031 -260235,-7051026 -260241,-7051021 -260256,-7051014 -260277,-7051011 -260303,-7051017 -260317,-7051022 -260330,-7051028 -260341,-7051036 -260352,-7051045 -260371,-7051067 -260382,-7051090 -260390,-7051112 -260427,-7051205 -260443,-7051225 -260458,-7051239 -260473,-7051244 -260483,-7051244 -260488,-7051243 -260496,-7051243 -260513,-7051241 -260566,-7051256 -260581,-7051263 -260593,-7051263 -260599,-7051259 -260609,-7051250 -260638,-7051218 -260670,-7051197 -260697,-7051184 -260732,-7051170 -260741,-7051164 -260754,-7051148 -260768,-7051136 -260797,-7051123 -260830,-7051120 -260835,-7051118 -260848,-7051114 -260860,-7051103 -260868,-7051100 -260876,-7051097 -260898,-7051090 -260922,-7051096 -260972,-7051124 -261018,-7051148 -261052,-7051157 -261060,-7051159 -261077,-7051172 -261148,-7051237 -261179,-7051261 -261216,-7051279 -261267,-7051300 -261311,-7051314 -261351,-7051330 -261365,-7051309 -261381,-7051255 -261390,-7051216 -261392,-7051199 -261394,-7051182 -261394,-7051140 -261389,-7051097 -261381,-7051054 -261382,-7051038 -261386,-7051029 -261390,-7051019 -261404,-7051001 -261422,-7050986 -261446,-7050976 -261476,-7050969 -261490,-7050968 -261508,-7050971 -261527,-7050976 -261562,-7050987 -261606,-7051007 -261645,-7051031 -261662,-7051042 -261677,-7051054 -261709,-7051084 -261727,-7051116 -261736,-7051148 -261734,-7051174 -261728,-7051199 -261730,-7051235 -261753,-7051265 -261771,-7051299 -261791,-7051331 -261801,-7051348 -261832,-7051380 -261852,-7051392 -261872,-7051403 -261900,-7051410 -261907,-7051408 -261919,-7051404 -261925,-7051401 -261930,-7051387 -261946,-7051356 -261960,-7051350 -261978,-7051354 -261986,-7051358 -261995,-7051363 -262017,-7051382 -262041,-7051398 -262042,-7051399 -262050,-7051403 -262081,-7051414 -262129,-7051425 -262182,-7051423 -262223,-7051433 -262271,-7051441 -262283,-7051443 -262294,-7051447 -262334,-7051462 -262349,-7051461 -262367,-7051457 -262403,-7051438 -262411,-7051433 -262417,-7051428 -262422,-7051421 -262425,-7051415 -262427,-7051403 -262411,-7051283 -262407,-7051266 -262392,-7051216 -262382,-7051163 -262389,-7051153 -262419,-7051140 -262465,-7051125 -262477,-7051123 -262520,-7051117 -262622,-7051131 -262660,-7051138 -262704,-7051149 -262725,-7051149 -262745,-7051143 -262763,-7051132 -262768,-7051124 -262782,-7051090 -262786,-7051046 -262773,-7050945 -262765,-7050923 -262760,-7050912 -262743,-7050883 -262645,-7050790 -262615,-7050760 -262611,-7050743 -262611,-7050725 -262625,-7050690 -262633,-7050680 -262641,-7050671 -262659,-7050659 -262685,-7050653 -262811,-7050627 -262828,-7050626 -262866,-7050630 -262873,-7050630 -262881,-7050629 -262921,-7050621 -262928,-7050621 -262934,-7050622 -262949,-7050626 -262976,-7050645 -262994,-7050660 -263049,-7050706 -263059,-7050712 -263067,-7050717 -263082,-7050715 -263093,-7050708 -263107,-7050692 -263110,-7050685 -263111,-7050679 -263111,-7050668 -263102,-7050646 -263100,-7050638 -263105,-7050622 -263116,-7050611 -263125,-7050609 -263138,-7050611 -263182,-7050612 -263203,-7050608 -263214,-7050603 -263220,-7050588 -263219,-7050578 -263203,-7050551 -263159,-7050517 -263154,-7050512 -263155,-7050498 -263159,-7050485 -263170,-7050481 -263180,-7050484 -263193,-7050484 -263205,-7050480 -263222,-7050476 -263240,-7050468 -263256,-7050451 -263273,-7050447 -263280,-7050448 -263302,-7050456 -263324,-7050472 -263339,-7050491 -263356,-7050543 -263362,-7050564 -263372,-7050602 -263382,-7050619 -263395,-7050635 -263449,-7050671 -263483,-7050698 -263489,-7050698 -263499,-7050688 -263505,-7050684 -263512,-7050679 -263523,-7050674 -263534,-7050670 -263557,-7050665 -263578,-7050669 -263588,-7050673 -263598,-7050678 -263623,-7050695 -263669,-7050705 -263675,-7050700 -263682,-7050690 -263689,-7050636 -263693,-7050615 -263697,-7050594 -263704,-7050583 -263710,-7050574 -263726,-7050560 -263748,-7050552 -263766,-7050553 -263775,-7050561 -263792,-7050593 -263797,-7050600 -263816,-7050609 -263845,-7050616 -263870,-7050624 -263879,-7050641 -263879,-7050660 -263865,-7050700 -263868,-7050704 -263871,-7050707 -263881,-7050708 -263901,-7050704 -263906,-7050708 -263912,-7050713 -263937,-7050762 -263940,-7050764 -264036,-7050805 -264082,-7050816 -264099,-7050834 -264136,-7050861 -264162,-7050899 -264173,-7050906 -264200,-7050919 -264219,-7050923 -264229,-7050924 -264258,-7050925 -264270,-7050923 -264300,-7050914 -264338,-7050898 -264387,-7050874 -264411,-7050864 -264413,-7050863 -264429,-7050860 -264439,-7050859 -264456,-7050860 -264471,-7050866 -264485,-7050875 -264498,-7050886 -264509,-7050899 -264527,-7050915 -264536,-7050921 -264565,-7050937 -264596,-7050971 -264605,-7050974 -264623,-7050977 -264663,-7050979 -264699,-7050983 -264712,-7050987 -264716,-7050990 -264720,-7050995 -264727,-7051005 -264731,-7051016 -264734,-7051026 -264736,-7051040 -264736,-7051061 -264729,-7051118 -264731,-7051128 -264733,-7051134 -264736,-7051139 -264740,-7051144 -264770,-7051170 -264820,-7051220 -264859,-7051270 -264865,-7051273 -264876,-7051276 -264907,-7051272 -264924,-7051273 -264932,-7051275 -264937,-7051278 -264940,-7051282 -264943,-7051288 -264948,-7051299 -264951,-7051311 -264951,-7051316 -264950,-7051320 -264948,-7051324 -264926,-7051341 -264921,-7051348 -264919,-7051352 -264918,-7051358 -264920,-7051371 -264926,-7051388 -264930,-7051395 -264933,-7051400 -264937,-7051404 -264964,-7051422 -264967,-7051426 -264969,-7051431 -264970,-7051434 -264968,-7051440 -264965,-7051448 -264959,-7051457 -264940,-7051477 -264935,-7051485 -264932,-7051491 -264931,-7051498 -264930,-7051504 -264931,-7051511 -264934,-7051518 -264937,-7051525 -264942,-7051531 -264950,-7051537 -264957,-7051541 -265003,-7051559 -265035,-7051566 -265043,-7051574 -265047,-7051580 -265049,-7051585 -265050,-7051590 -265049,-7051595 -265045,-7051602 -265039,-7051609 -265033,-7051614 -265016,-7051626 -265010,-7051631 -265008,-7051635 -265005,-7051642 -265004,-7051648 -265005,-7051656 -265015,-7051686 -265023,-7051699 -265037,-7051713 -265057,-7051726 -265090,-7051742 -265171,-7051778 -265176,-7051781 -265184,-7051783 -265189,-7051782 -265194,-7051780 -265213,-7051767 -265217,-7051763 -265220,-7051757 -265222,-7051747 -265215,-7051685 -265222,-7051653 -265223,-7051644 -265226,-7051640 -265229,-7051636 -265234,-7051633 -265239,-7051632 -265243,-7051631 -265247,-7051633 -265254,-7051637 -265310,-7051720 -265320,-7051728 -265340,-7051738 -265361,-7051748 -265399,-7051751 -265409,-7051751 -265419,-7051749 -265441,-7051743 -265450,-7051742 -265463,-7051741 -265486,-7051751 -265496,-7051752 -265569,-7051774 -265604,-7051780 -265619,-7051781 -265629,-7051782 -265645,-7051786 -265650,-7051789 -265655,-7051793 -265658,-7051797 -265698,-7051892 -265726,-7051931 -265729,-7051934 -265733,-7051936 -265737,-7051937 -265741,-7051937 -265795,-7051908 -265803,-7051905 -265813,-7051903 -265825,-7051902 -265883,-7051908 -265917,-7051907 -265929,-7051906 -265945,-7051903 -265965,-7051897 -265980,-7051892 -266020,-7051875 -266034,-7051869 -266065,-7051861 -266077,-7051861 -266084,-7051864 -266098,-7051873 -266109,-7051877 -266112,-7051880 -266113,-7051884 -266114,-7051890 -266106,-7051915 -266093,-7051944 -266086,-7051988 -266086,-7051995 -266088,-7052008 -266091,-7052019 -266103,-7052052 -266108,-7052060 -266115,-7052070 -266124,-7052081 -266131,-7052087 -266228,-7052165 -266239,-7052171 -266252,-7052177 -266260,-7052179 -266290,-7052181 -266359,-7052183 -266367,-7052184 -266375,-7052186 -266384,-7052190 -266392,-7052195 -266400,-7052201 -266411,-7052214 -266442,-7052263 -266447,-7052268 -266459,-7052278 -266497,-7052301 -266511,-7052311 -266529,-7052325 -266548,-7052340 -266606,-7052395 -266614,-7052407 -266617,-7052414 -266619,-7052420 -266619,-7052432 -266629,-7052460 -266641,-7052483 -266651,-7052498 -266739,-7052570 -266754,-7052576 -266772,-7052580 -266781,-7052580 -266801,-7052579 -266821,-7052574 -266831,-7052569 -266846,-7052561 -266901,-7052537 -266910,-7052536 -266921,-7052536 -266928,-7052538 -266935,-7052541 -266938,-7052543 -266936,-7052559 -266937,-7052580 -266935,-7052595 -266937,-7052638 -266952,-7052641 -267043,-7052647 -267051,-7052649 -267060,-7052650 -267156,-7052679 -267172,-7052682 -267206,-7052685 -267224,-7052694 -267232,-7052698 -267244,-7052707 -267251,-7052713 -267262,-7052729 -267269,-7052742 -267279,-7052778 -267281,-7052791 -267280,-7052804 -267279,-7052813 -267273,-7052833 -267263,-7052853 -267240,-7052881 -267183,-7052905 -267164,-7052907 -267154,-7052909 -267151,-7052909 -267139,-7052913 -267121,-7052923 -267116,-7052926 -267112,-7052929 -267108,-7052936 -267106,-7052945 -267108,-7052963 -267119,-7052991 -267125,-7053000 -267162,-7053066 -267177,-7053096 -267225,-7053158 -267268,-7053182 -267356,-7053239 -267371,-7053248 -267386,-7053254 -267427,-7053271 -267478,-7053282 -267485,-7053284 -267490,-7053285 -267493,-7053286 -267496,-7053287 -267502,-7053288 -267557,-7053298 -267580,-7053307 -267589,-7053312 -267597,-7053317 -267620,-7053332 -267665,-7053366 -267743,-7053416 -267761,-7053430 -267787,-7053444 -267805,-7053451 -267832,-7053465 -267848,-7053473 -267856,-7053478 -267874,-7053494 -267905,-7053519 -267959,-7053566 -267976,-7053593 -267984,-7053610 -267989,-7053623 -267991,-7053635 -267993,-7053654 -267993,-7053699 -267992,-7053709 -267994,-7053720 -267997,-7053724 -268010,-7053740 -268019,-7053753 -268027,-7053769 -268034,-7053784 -268041,-7053804 -268053,-7053859 -268059,-7053877 -268068,-7053900 -268079,-7053922 -268096,-7053950 -268107,-7053972 -268109,-7053977 -268111,-7053988 -268111,-7053997 -268110,-7054002 -268106,-7054008 -268103,-7054011 -268073,-7054029 -268047,-7054052 -268042,-7054062 -268040,-7054073 -268041,-7054084 -268045,-7054095 -268052,-7054104 -268061,-7054110 -268071,-7054114 -268077,-7054115 -268088,-7054114 -268105,-7054118 -268135,-7054138 -268175,-7054171 -268205,-7054197 -268283,-7054249 -268302,-7054269 -268326,-7054301 -268335,-7054311 -268346,-7054320 -268357,-7054328 -268369,-7054334 -268381,-7054338 -268393,-7054341 -268406,-7054342 -268428,-7054341 -268482,-7054331 -268520,-7054334 -268555,-7054341 -268571,-7054345 -268587,-7054351 -268604,-7054357 -268621,-7054365 -268633,-7054371 -268644,-7054378 -268667,-7054395 -268697,-7054421 -268702,-7054424 -268751,-7054440 -268773,-7054445 -268798,-7054449 -268822,-7054448 -268888,-7054430 -268897,-7054430 -268905,-7054433 -268914,-7054438 -268925,-7054446 -268943,-7054465 -268981,-7054493 -268989,-7054497 -268995,-7054498 -269006,-7054498 -269011,-7054497 -269018,-7054494 -269037,-7054482 -269048,-7054476 -269057,-7054475 -269063,-7054476 -269075,-7054480 -269089,-7054490 -269100,-7054500 -269112,-7054513 -269124,-7054530 -269133,-7054546 -269141,-7054564 -269173,-7054657 -269187,-7054701 -269204,-7054721 -269233,-7054751 -269247,-7054765 -269264,-7054775 -269273,-7054778 -269288,-7054777 -269300,-7054775 -269308,-7054773 -269326,-7054765 -269345,-7054760 -269357,-7054763 -269365,-7054766 -269371,-7054770 -269374,-7054773 -269387,-7054798 -269395,-7054819 -269412,-7054838 -269421,-7054845 -269431,-7054851 -269441,-7054854 -269465,-7054856 -269472,-7054854 -269496,-7054841 -269548,-7054801 -269581,-7054786 -269600,-7054782 -269621,-7054780 -269631,-7054780 -269665,-7054784 -269676,-7054793 -269682,-7054800 -269690,-7054811 -269690,-7054837 -269691,-7054845 -269695,-7054855 -269700,-7054864 -269721,-7054901 -269746,-7054928 -269755,-7054944 -269757,-7054946 -269761,-7054948 -269775,-7054949 -269782,-7054946 -269789,-7054941 -269794,-7054934 -269803,-7054899 -269809,-7054885 -269825,-7054864 -269837,-7054853 -269843,-7054849 -269857,-7054843 -269866,-7054840 -269895,-7054837 -269902,-7054839 -269911,-7054842 -269918,-7054846 -269928,-7054856 -269953,-7054931 -269955,-7054935 -269961,-7054941 -269966,-7054945 -269971,-7054947 -270035,-7054962 -270063,-7054969 -270099,-7054981 -270126,-7054991 -270157,-7055016 -270179,-7055038 -270183,-7055043 -270200,-7055071 -270201,-7055075 -270203,-7055080 -270205,-7055092 -270206,-7055101 -270201,-7055144 -270203,-7055159 -270212,-7055196 -270214,-7055211 -270218,-7055224 -270224,-7055235 -270230,-7055243 -270236,-7055250 -270251,-7055263 -270258,-7055265 -270265,-7055267 -270272,-7055268 -270278,-7055268 -270283,-7055267 -270288,-7055265 -270293,-7055262 -270297,-7055258 -270303,-7055248 -270308,-7055229 -270312,-7055184 -270314,-7055178 -270316,-7055176 -270323,-7055171 -270347,-7055165 -270364,-7055164 -270381,-7055165 -270398,-7055169 -270424,-7055171 -270481,-7055166 -270527,-7055145 -270584,-7055106 -270592,-7055099 -270606,-7055082 -270627,-7055055 -270628,-7055053 -270665,-7055044 -270684,-7055041 -270706,-7055038 -270728,-7055039 -270733,-7055041 -270739,-7055045 -270742,-7055048 -270757,-7055072 -270782,-7055104 -270785,-7055107 -270803,-7055117 -270811,-7055119 -270840,-7055121 -270862,-7055125 -270870,-7055129 -270878,-7055136 -270882,-7055143 -270884,-7055150 -270886,-7055158 -270886,-7055169 -270884,-7055185 -270882,-7055193 -270877,-7055214 -270869,-7055261 -270866,-7055294 -270868,-7055307 -270870,-7055313 -270874,-7055319 -270887,-7055330 -270937,-7055363 -270947,-7055367 -270956,-7055369 -270969,-7055370 -270982,-7055369 -270992,-7055366 -271001,-7055361 -271015,-7055353 -271048,-7055329 -271061,-7055322 -271071,-7055318 -271087,-7055315 -271104,-7055315 -271119,-7055316 -271127,-7055318 -271134,-7055321 -271144,-7055330 -271161,-7055352 -271163,-7055354 -271170,-7055357 -271173,-7055358 -271179,-7055357 -271189,-7055354 -271196,-7055350 -271216,-7055332 -271226,-7055325 -271234,-7055322 -271243,-7055319 -271252,-7055318 -271260,-7055318 -271268,-7055319 -271277,-7055322 -271285,-7055326 -271291,-7055332 -271296,-7055338 -271300,-7055344 -271308,-7055366 -271311,-7055371 -271314,-7055377 -271321,-7055385 -271426,-7055427 -271444,-7055438 -271454,-7055446 -271469,-7055461 -271480,-7055476 -271484,-7055484 -271487,-7055492 -271490,-7055509 -271489,-7055526 -271486,-7055543 -271473,-7055580 -271470,-7055605 -271472,-7055631 -271454,-7055682 -271451,-7055702 -271449,-7055729 -271454,-7055750 -271460,-7055758 -271465,-7055761 -271470,-7055763 -271477,-7055764 -271483,-7055763 -271487,-7055762 -271509,-7055751 -271536,-7055743 -271600,-7055738 -271603,-7055737 -271614,-7055729 -271623,-7055719 -271645,-7055679 -271661,-7055659 -271671,-7055652 -271684,-7055647 -271697,-7055644 -271711,-7055645 -271712,-7055645 -271755,-7055651 -271791,-7055653 -271803,-7055652 -271810,-7055654 -271819,-7055657 -271824,-7055661 -271827,-7055666 -271831,-7055678 -271837,-7055705 -271840,-7055715 -271846,-7055722 -271854,-7055731 -271862,-7055737 -271868,-7055740 -271886,-7055747 -271894,-7055753 -271898,-7055759 -271911,-7055782 -271914,-7055793 -271919,-7055821 -271921,-7055825 -271923,-7055828 -271930,-7055833 -271944,-7055838 -271950,-7055838 -271957,-7055837 -271978,-7055832 -271989,-7055832 -272012,-7055838 -272058,-7055856 -272069,-7055858 -272075,-7055858 -272083,-7055857 -272105,-7055848 -272117,-7055843 -272128,-7055841 -272143,-7055847 -272165,-7055859 -272191,-7055866 -272208,-7055868 -272229,-7055873 -272238,-7055881 -272243,-7055889 -272247,-7055897 -272247,-7055902 -272228,-7055928 -272220,-7055940 -272212,-7055955 -272206,-7055968 -272204,-7055974 -272206,-7055999 -272210,-7056004 -272217,-7056008 -272221,-7056009 -272250,-7056009 -272263,-7056012 -272270,-7056014 -272306,-7056037 -272311,-7056039 -272324,-7056042 -272332,-7056042 -272341,-7056040 -272369,-7056049 -272372,-7056052 -272375,-7056060 -272375,-7056067 -272373,-7056081 -272372,-7056103 -272373,-7056120 -272381,-7056149 -272382,-7056152 -272390,-7056162 -272400,-7056170 -272450,-7056197 -272464,-7056206 -272491,-7056227 -272531,-7056268 -272531,-7056271 -272516,-7056295 -272515,-7056300 -272514,-7056309 -272515,-7056317 -272517,-7056323 -272523,-7056335 -272530,-7056343 -272537,-7056350 -272543,-7056354 -272550,-7056358 -272558,-7056361 -272567,-7056363 -272580,-7056364 -272602,-7056361 -272641,-7056354 -272661,-7056356 -272747,-7056372 -272815,-7056383 -272824,-7056383 -272831,-7056381 -272844,-7056375 -272883,-7056342 -272921,-7056329 -272933,-7056329 -272938,-7056331 -272945,-7056334 -272950,-7056340 -272954,-7056347 -272956,-7056353 -272957,-7056358 -272951,-7056414 -272952,-7056418 -272956,-7056424 -272961,-7056429 -272966,-7056433 -272972,-7056435 -272982,-7056437 -273022,-7056427 -273048,-7056411 -273057,-7056409 -273062,-7056406 -273068,-7056399 -273070,-7056395 -273070,-7056386 -273067,-7056378 -273061,-7056371 -273049,-7056364 -273044,-7056359 -273040,-7056352 -273037,-7056344 -273037,-7056336 -273038,-7056328 -273045,-7056316 -273068,-7056292 -273101,-7056285 -273140,-7056283 -273150,-7056271 -273188,-7056217 -273223,-7056201 -273233,-7056195 -273240,-7056192 -273249,-7056191 -273257,-7056192 -273264,-7056195 -273270,-7056199 -273274,-7056204 -273278,-7056210 -273281,-7056219 -273308,-7056251 -273317,-7056258 -273324,-7056261 -273331,-7056263 -273337,-7056263 -273343,-7056262 -273349,-7056259 -273355,-7056256 -273361,-7056251 -273369,-7056238 -273387,-7056216 -273390,-7056210 -273397,-7056203 -273405,-7056199 -273414,-7056199 -273420,-7056200 -273425,-7056202 -273429,-7056206 -273433,-7056210 -273437,-7056218 -273448,-7056232 -273457,-7056238 -273466,-7056244 -273493,-7056254 -273500,-7056255 -273507,-7056254 -273514,-7056253 -273520,-7056250 -273525,-7056246 -273533,-7056236 -273547,-7056203 -273550,-7056198 -273560,-7056189 -273570,-7056184 -273575,-7056183 -273583,-7056183 -273592,-7056184 -273603,-7056188 -273634,-7056196 -273640,-7056196 -273647,-7056195 -273651,-7056193 -273656,-7056189 -273661,-7056184 -273665,-7056177 -273667,-7056170 -273667,-7056164 -273664,-7056155 -273661,-7056148 -273656,-7056088 -273650,-7056048 -273653,-7056041 -273657,-7056036 -273662,-7056032 -273667,-7056029 -273679,-7056027 -273689,-7056030 -273695,-7056033 -273723,-7056061 -273736,-7056069 -273743,-7056076 -273748,-7056082 -273755,-7056096 -273757,-7056110 -273757,-7056124 -273756,-7056132 -273752,-7056143 -273751,-7056149 -273751,-7056161 -273753,-7056172 -273754,-7056180 -273758,-7056188 -273767,-7056203 -273768,-7056205 -273807,-7056243 -273811,-7056250 -273820,-7056260 -273830,-7056267 -273840,-7056271 -273848,-7056274 -273862,-7056277 -273865,-7056276 -273872,-7056267 -273898,-7056228 -273905,-7056217 -273911,-7056211 -273917,-7056207 -273924,-7056204 -273932,-7056202 -273942,-7056203 -273950,-7056205 -273957,-7056209 -273998,-7056224 -274006,-7056225 -274013,-7056227 -274020,-7056232 -274025,-7056237 -274029,-7056246 -274031,-7056255 -274040,-7056282 -274042,-7056291 -274044,-7056297 -274048,-7056304 -274055,-7056310 -274064,-7056315 -274100,-7056327 -274125,-7056337 -274139,-7056341 -274165,-7056346 -274197,-7056348 -274208,-7056348 -274215,-7056346 -274224,-7056343 -274232,-7056338 -274243,-7056329 -274247,-7056324 -274250,-7056316 -274255,-7056302 -274270,-7056267 -274273,-7056257 -274277,-7056252 -274282,-7056247 -274288,-7056245 -274294,-7056244 -274300,-7056244 -274309,-7056247 -274316,-7056252 -274374,-7056278 -274412,-7056313 -274425,-7056330 -274434,-7056339 -274443,-7056346 -274455,-7056352 -274469,-7056357 -274484,-7056360 -274491,-7056364 -274496,-7056365 -274503,-7056365 -274509,-7056364 -274513,-7056362 -274517,-7056359 -274522,-7056353 -274524,-7056348 -274525,-7056343 -274524,-7056337 -274521,-7056326 -274508,-7056282 -274508,-7056268 -274510,-7056262 -274512,-7056257 -274516,-7056250 -274522,-7056244 -274545,-7056226 -274556,-7056218 -274570,-7056210 -274586,-7056203 -274609,-7056195 -274652,-7056193 -274691,-7056194 -274737,-7056196 -274746,-7056193 -274752,-7056190 -274757,-7056186 -274761,-7056181 -274764,-7056174 -274765,-7056167 -274763,-7056157 -274751,-7056135 -274740,-7056121 -274724,-7056105 -274720,-7056094 -274719,-7056087 -274721,-7056075 -274726,-7056063 -274730,-7056059 -274740,-7056049 -274755,-7056036 -274778,-7056021 -274820,-7055998 -274843,-7055983 -274876,-7055958 -274904,-7055943 -274925,-7055933 -274947,-7055925 -274967,-7055919 -275020,-7055904 -275045,-7055901 -275057,-7055900 -275075,-7055902 -275090,-7055904 -275129,-7055915 -275161,-7055925 -275211,-7055943 -275222,-7055948 -275233,-7055955 -275243,-7055962 -275253,-7055971 -275265,-7055984 -275274,-7055996 -275285,-7056015 -275307,-7056063 -275314,-7056079 -275328,-7056117 -275339,-7056137 -275347,-7056147 -275355,-7056155 -275364,-7056163 -275374,-7056169 -275384,-7056174 -275451,-7056198 -275485,-7056204 -275521,-7056214 -275555,-7056228 -275571,-7056236 -275595,-7056250 -275619,-7056281 -275641,-7056315 -275661,-7056349 -275671,-7056375 -275680,-7056392 -275689,-7056407 -275697,-7056419 -275719,-7056444 -275752,-7056473 -275767,-7056491 -275780,-7056500 -275791,-7056508 -275801,-7056515 -275853,-7056530 -275900,-7056626 -275886,-7056631 -275866,-7056639 -275837,-7056649 -275780,-7056665 -275699,-7056683 -275655,-7056695 -275623,-7056705 -275597,-7056714 -275560,-7056728 -275519,-7056746 -275492,-7056759 -275421,-7056798 -275395,-7056811 -275359,-7056827 -275316,-7056843 -275279,-7056854 -275258,-7056861 -275232,-7056871 -275195,-7056888 -275152,-7056912 -275123,-7056931 -275056,-7056971 -275034,-7056985 -275005,-7057005 -274953,-7057045 -274942,-7057055 -274933,-7057062 -274824,-7057156 -274787,-7057189 -274750,-7057223 -274706,-7057266 -274663,-7057309 -274611,-7057362 -274591,-7057384 -274553,-7057424 -274511,-7057472 -274469,-7057520 -274391,-7057614 -274303,-7057724 -274247,-7057798 -274231,-7057820 -274204,-7057859 -274162,-7057920 -274128,-7057972 -274091,-7058032 -274079,-7058051 -274025,-7058148 -273986,-7058223 -273948,-7058298 -273932,-7058332 -273899,-7058402 -273879,-7058442 -273723,-7058768 -273571,-7059068 -273494,-7059217 -273429,-7059353 -273410,-7059383 -273388,-7059422 -273354,-7059481 -273339,-7059508 -273338,-7059510 -273329,-7059525 -273304,-7059565 -273216,-7059698 -273201,-7059721 -273176,-7059755 -273164,-7059771 -273142,-7059799 -273123,-7059825 -273057,-7059913 -273045,-7059930 -273011,-7059967 -272860,-7060128 -272842,-7060162 -272825,-7060183 -272819,-7060189 -272808,-7060200 -272797,-7060209 -272789,-7060215 -272770,-7060226 -272663,-7060300 -272658,-7060307 -272493,-7060432 -272351,-7060536 -272300,-7060575 -272279,-7060589 -271897,-7060840 -271529,-7061093 -270965,-7061473 -270310,-7061910 -270225,-7061969 -270178,-7062002 -270152,-7062020 -270133,-7062035 -270104,-7062062 -270065,-7062105 -270060,-7062109 -270048,-7062116 -270032,-7062120 -269989,-7062141 -269967,-7062154 -269953,-7062164 -269940,-7062175 -269777,-7062322 -269721,-7062375 -269658,-7062438 -269620,-7062479 -269562,-7062542 -269523,-7062587 -269420,-7062715 -269346,-7062808 -269334,-7062824 -269313,-7062853 -269240,-7062969 -269170,-7063077 -269121,-7063168 -269090,-7063229 -268999,-7063425 -268991,-7063445 -268980,-7063475 -268971,-7063510 -268914,-7063673 -268903,-7063701 -268881,-7063752 -268836,-7063848 -268818,-7063910 -268806,-7063967 -268783,-7064054 -268759,-7064162 -268746,-7064205 -268735,-7064228 -268728,-7064241 -268704,-7064273 -268703,-7064275 -268698,-7064283 -268689,-7064300 -268671,-7064343 -268711,-7064413 -268717,-7064418 -268722,-7064426 -268724,-7064432 -268723,-7064445 -268712,-7064478 -268711,-7064482 -268637,-7064524 -268633,-7064552 -268614,-7064633 -268605,-7064682 -268602,-7064703 -268596,-7064726 -268590,-7064741 -268559,-7064803 -268516,-7064908 -268464,-7065029 -268363,-7065199 -268301,-7065442 -268277,-7065520 -268277,-7065547 -268276,-7065554 -268275,-7065564 -268268,-7065589 -268268,-7065606 -268260,-7065735 -268255,-7065779 -268250,-7065806 -268249,-7065814 -268231,-7065876 -268230,-7065878 -268220,-7065919 -268206,-7065964 -268180,-7066030 -268107,-7066193 -268048,-7066326 -268023,-7066388 -267999,-7066443 -267976,-7066493 -267965,-7066518 -267866,-7066706 -267778,-7066876 -267526,-7067276 -267424,-7067419 -267325,-7067567 -267280,-7067631 -267081,-7067886 -266918,-7068075 -266847,-7068150 -266756,-7068248 -266681,-7068325 -266581,-7068416 -266443,-7068546 -266415,-7068572 -266281,-7068690 -266216,-7068742 -266168,-7068782 -266027,-7068896 -265841,-7069034 -265703,-7069129 -265631,-7069175 -265559,-7069212 -265433,-7069277 -265367,-7069307 -265285,-7069343 -265242,-7069359 -265194,-7069379 -265167,-7069393 -265145,-7069405 -265022,-7069473 -264941,-7069520 -264934,-7069523 -264851,-7069571 -264822,-7069599 -264799,-7069621 -264768,-7069653 -264685,-7069717 -264651,-7069739 -264619,-7069761 -264521,-7069820 -264281,-7069956 -263914,-7070170 -263724,-7070275 -263670,-7070305 -263399,-7070468 -263310,-7070521 -263252,-7070556 -263249,-7070558 -262974,-7070716 -262584,-7070935 -262458,-7071003 -262400,-7071036 -262154,-7071164 -262150,-7071166 -262098,-7071191 -262045,-7071215 -261973,-7071244 -261872,-7071284 -261843,-7071296 -261653,-7071373 -261366,-7071481 -261185,-7071543 -261019,-7071606 -260878,-7071657 -260842,-7071670 -260541,-7071787 -260407,-7071842 -260166,-7071944 -259907,-7072045 -259448,-7072231 -259406,-7072250 -259336,-7072276 -259315,-7072282 -259246,-7072301 -259194,-7072313 -259135,-7072325 -259079,-7072335 -258965,-7072346 -258905,-7072351 -258848,-7072353 -258707,-7072350 -258661,-7072343 -258560,-7072326 -258490,-7072315 -258398,-7072295 -258307,-7072268 -258172,-7072218 -258063,-7072165 -258011,-7072136 -257980,-7072120 -257952,-7072101 -257942,-7072096 -257856,-7072040 -257854,-7072039 -257826,-7072018 -257736,-7071949 -257595,-7071837 -257497,-7071763 -257439,-7071718 -257410,-7071695 -257349,-7071643 -257296,-7071603 -257273,-7071584 -257197,-7071526 -257096,-7071446 -257050,-7071404 -256977,-7071341 -256936,-7071301 -256896,-7071274 -256852,-7071243 -256716,-7071143 -256525,-7070991 -256380,-7070877 -256343,-7070850 -256295,-7070815 -256188,-7070739 -256084,-7070670 -255970,-7070601 -255780,-7070483 -255646,-7070401 -255493,-7070317 -255350,-7070235 -255015,-7070031 -254644,-7069801 -254454,-7069678 -254389,-7069638 -254348,-7069611 -254304,-7069581 -254258,-7069552 -254241,-7069541 -254232,-7069536 -254190,-7069516 -254098,-7069473 -254081,-7069465 -254053,-7069457 -254020,-7069453 -253985,-7069452" stroke="white" stroke-width="48" /></ns0:svg>    <rect x="20" y="50"  width="250" height="25"  rx="0"  fill="#E8EDEE" fill-opacity="0.8" />    <text x="145" y="70" text-anchor="middle" font-family="Frutiger" font-weight="bold" font-size="30" fill="#AE2573">Trafford</text>    <rect x="35" y="195" width="220" height="160" rx="15" fill="#724F95"/>    <g font-family="Frutiger" font-size="15" fill="white">        <g> <text x="45" y="218">Self-harm</text> <text x="245" y="218" text-anchor="end">29</text> </g>        <g> <text x="45" y="243">SEN</text> <text x="245" y="243" text-anchor="end">20</text> </g>        <g> <text x="45" y="268">Difficulties</text> <text x="245" y="268" text-anchor="end">55</text> </g>        <g> <text x="45" y="293">Child Carer</text> <text x="245" y="293" text-anchor="end">3</text> </g>        <g> <text x="45" y="318">Drinkers</text> <text x="245" y="318" text-anchor="end">57</text> </g>        <g> <text x="45" y="343">Safeguarding £</text> <text x="245" y="343" text-anchor="end">16</text> </g>    </g></svg>