<?xml version="1.0" standalone="no"?>
<!DOCTYPE svg PUBLIC "-//W3C//DTD SVG 1.1//EN"
"http://www.w3.org/Graphics/SVG/1.1/DTD/svg11.dtd">
<svg height="390" version="1.1" width="290" xmlns="http://www.w3.org/2000/svg"><defs><style type="text/css">@font-face {font-family: 'Frutiger';font-style: normal;font-weight: normal;src: local('Frutiger'), url('../fonts/Frutiger.woff') format('woff');}@font-face {font-family: 'Frutiger Bold';font-style: normal;font-weight: normal;src: local('Frutiger Bold'), url('../fonts/Frutiger_bold.woff') format('woff');}        </style>    </defs>    <rect x="20" y="20"  width="250" height="350" rx="15" fill="#005EB8" />    <rect x="35" y="35"  width="220" height="145" rx="15" fill="white" /><ns0:svg xmlns:ns0="http://www.w3.org/2000/svg" height="115" version="1.1" viewBox="-250115 -7067596 28330 23823" width="220" x="35" y="50"><ns0:polygon fill="#003087" points=" -239953,-7067077 -239922,-7067012 -239921,-7067012 -239903,-7066980 -239901,-7066943 -239889,-7066922 -239882,-7066909 -239872,-7066893 -239868,-7066885 -239854,-7066869 -239808,-7066828 -239781,-7066819 -239727,-7066793 -239670,-7066759 -239643,-7066742 -239611,-7066730 -239608,-7066729 -239598,-7066720 -239601,-7066716 -239590,-7066710 -239583,-7066704 -239580,-7066701 -239576,-7066699 -239531,-7066662 -239446,-7066578 -239368,-7066497 -239365,-7066499 -239357,-7066505 -239357,-7066505 -239298,-7066447 -239253,-7066393 -239256,-7066391 -239220,-7066339 -239200,-7066306 -239181,-7066264 -239166,-7066230 -239156,-7066191 -239156,-7066189 -239179,-7066183 -239177,-7066176 -239184,-7066172 -239188,-7066170 -239178,-7066157 -239165,-7066139 -239163,-7066130 -239226,-7066078 -239199,-7066047 -239196,-7066043 -239205,-7066035 -239206,-7066034 -239166,-7066001 -239127,-7065965 -239079,-7065917 -239038,-7065874 -239000,-7065830 -238984,-7065826 -238928,-7065810 -238921,-7065817 -238904,-7065831 -238895,-7065839 -238885,-7065840 -238859,-7065829 -238835,-7065820 -238772,-7065793 -238749,-7065782 -238735,-7065780 -238719,-7065777 -238676,-7065751 -238666,-7065748 -238664,-7065746 -238637,-7065734 -238608,-7065717 -238604,-7065713 -238595,-7065700 -238580,-7065678 -238546,-7065656 -238587,-7065640 -238607,-7065629 -238619,-7065620 -238630,-7065606 -238636,-7065599 -238641,-7065593 -238646,-7065586 -238690,-7065533 -238732,-7065487 -238701,-7065438 -238684,-7065407 -238653,-7065331 -238642,-7065302 -238629,-7065288 -238609,-7065270 -238576,-7065252 -238522,-7065225 -238522,-7065214 -238515,-7065188 -238496,-7065119 -238486,-7065090 -238433,-7064859 -238417,-7064775 -238418,-7064775 -238474,-7064763 -238423,-7064535 -238411,-7064477 -238401,-7064503 -238397,-7064512 -238396,-7064540 -238388,-7064568 -238387,-7064604 -238385,-7064624 -238378,-7064650 -238366,-7064663 -238357,-7064671 -238336,-7064684 -238320,-7064690 -238305,-7064691 -238290,-7064688 -238280,-7064682 -238261,-7064648 -238249,-7064621 -238237,-7064578 -238227,-7064554 -238216,-7064535 -238192,-7064509 -238175,-7064491 -238154,-7064478 -238112,-7064465 -238066,-7064443 -238057,-7064435 -238034,-7064402 -238014,-7064388 -237993,-7064381 -237967,-7064383 -237941,-7064392 -237916,-7064408 -237899,-7064406 -237894,-7064412 -237885,-7064429 -237872,-7064451 -237863,-7064472 -237868,-7064496 -237874,-7064526 -237876,-7064555 -237871,-7064569 -237858,-7064596 -237827,-7064642 -237812,-7064659 -237787,-7064675 -237758,-7064681 -237740,-7064680 -237722,-7064657 -237718,-7064640 -237713,-7064615 -237694,-7064573 -237687,-7064540 -237690,-7064514 -237696,-7064493 -237703,-7064471 -237708,-7064446 -237710,-7064426 -237702,-7064393 -237695,-7064350 -237685,-7064340 -237659,-7064328 -237625,-7064313 -237600,-7064319 -237582,-7064333 -237555,-7064378 -237538,-7064412 -237528,-7064446 -237517,-7064472 -237499,-7064489 -237477,-7064501 -237445,-7064516 -237409,-7064529 -237379,-7064541 -237329,-7064571 -237289,-7064615 -237252,-7064651 -237225,-7064683 -237191,-7064698 -237172,-7064707 -237125,-7064718 -237097,-7064721 -237059,-7064719 -237020,-7064707 -236976,-7064689 -236941,-7064665 -236891,-7064633 -236849,-7064608 -236822,-7064596 -236756,-7064572 -236682,-7064549 -236649,-7064535 -236617,-7064518 -236574,-7064492 -236550,-7064473 -236526,-7064457 -236489,-7064443 -236441,-7064419 -236380,-7064387 -236363,-7064373 -236353,-7064371 -236333,-7064369 -236308,-7064382 -236299,-7064392 -236271,-7064444 -236262,-7064463 -236262,-7064481 -236267,-7064508 -236307,-7064552 -236342,-7064589 -236378,-7064628 -236397,-7064669 -236417,-7064724 -236426,-7064774 -236419,-7064825 -236417,-7064869 -236416,-7064919 -236410,-7064948 -236399,-7064966 -236368,-7064996 -236347,-7065014 -236330,-7065021 -236312,-7065015 -236292,-7064999 -236283,-7064982 -236240,-7064942 -236205,-7064908 -236139,-7064831 -236106,-7064796 -236073,-7064760 -236027,-7064720 -235984,-7064693 -235976,-7064684 -235961,-7064653 -235939,-7064614 -235925,-7064585 -235922,-7064563 -235922,-7064542 -235929,-7064521 -235951,-7064501 -235968,-7064485 -235991,-7064446 -236009,-7064411 -236034,-7064362 -236034,-7064347 -236055,-7064299 -236071,-7064259 -236075,-7064246 -236072,-7064226 -236065,-7064209 -236052,-7064184 -236039,-7064164 -236035,-7064146 -236027,-7064135 -236016,-7064129 -235994,-7064129 -235975,-7064135 -235964,-7064139 -235950,-7064149 -235942,-7064164 -235936,-7064186 -235932,-7064210 -235913,-7064228 -235890,-7064245 -235864,-7064254 -235838,-7064260 -235812,-7064257 -235790,-7064256 -235768,-7064257 -235735,-7064267 -235698,-7064289 -235678,-7064307 -235656,-7064328 -235643,-7064347 -235619,-7064388 -235595,-7064425 -235583,-7064442 -235571,-7064451 -235551,-7064457 -235516,-7064471 -235480,-7064489 -235463,-7064503 -235443,-7064525 -235429,-7064545 -235416,-7064571 -235408,-7064597 -235404,-7064622 -235413,-7064642 -235420,-7064655 -235435,-7064672 -235446,-7064682 -235464,-7064692 -235478,-7064696 -235503,-7064700 -235528,-7064699 -235563,-7064694 -235613,-7064677 -235671,-7064673 -235689,-7064673 -235699,-7064682 -235705,-7064691 -235708,-7064710 -235708,-7064728 -235700,-7064749 -235685,-7064798 -235671,-7064839 -235656,-7064860 -235632,-7064888 -235601,-7064916 -235572,-7064940 -235566,-7064943 -235553,-7064940 -235524,-7064927 -235503,-7064913 -235492,-7064906 -235486,-7064899 -235454,-7064851 -235396,-7064782 -235349,-7064740 -235269,-7064654 -235222,-7064585 -235161,-7064500 -235124,-7064456 -235054,-7064381 -235021,-7064344 -235001,-7064306 -234980,-7064257 -234975,-7064241 -234976,-7064215 -234990,-7064169 -234984,-7064144 -234958,-7064103 -234897,-7064019 -234875,-7063985 -234832,-7063942 -234744,-7063863 -234712,-7063832 -234705,-7063823 -234685,-7063790 -234666,-7063744 -234650,-7063712 -234628,-7063675 -234611,-7063653 -234591,-7063634 -234494,-7063579 -234469,-7063564 -234446,-7063556 -234389,-7063555 -234338,-7063556 -234295,-7063544 -234248,-7063519 -234243,-7063516 -234240,-7063513 -234217,-7063493 -234209,-7063486 -234191,-7063475 -234166,-7063460 -234150,-7063452 -234102,-7063431 -234072,-7063425 -234042,-7063423 -234003,-7063435 -233999,-7063436 -233996,-7063437 -233993,-7063439 -233989,-7063441 -233987,-7063443 -233984,-7063446 -233981,-7063449 -233981,-7063449 -233977,-7063453 -233975,-7063458 -233972,-7063463 -233970,-7063465 -233962,-7063478 -233955,-7063492 -233953,-7063496 -233938,-7063528 -233935,-7063535 -233931,-7063542 -233928,-7063548 -233923,-7063554 -233919,-7063559 -233914,-7063565 -233912,-7063566 -233907,-7063571 -233901,-7063575 -233895,-7063579 -233889,-7063583 -233882,-7063586 -233875,-7063589 -233868,-7063591 -233861,-7063594 -233852,-7063596 -233831,-7063598 -233783,-7063598 -233731,-7063593 -233663,-7063586 -233585,-7063572 -233561,-7063570 -233536,-7063566 -233510,-7063565 -233484,-7063569 -233465,-7063571 -233449,-7063584 -233430,-7063595 -233419,-7063600 -233405,-7063613 -233399,-7063625 -233400,-7063639 -233404,-7063664 -233418,-7063696 -233429,-7063713 -233453,-7063753 -233477,-7063802 -233493,-7063846 -233501,-7063880 -233512,-7063910 -233540,-7063992 -233555,-7064044 -233563,-7064079 -233566,-7064107 -233563,-7064139 -233544,-7064196 -233526,-7064229 -233501,-7064248 -233475,-7064254 -233442,-7064256 -233407,-7064256 -233393,-7064254 -233377,-7064248 -233334,-7064221 -233297,-7064203 -233203,-7064173 -233131,-7064151 -233099,-7064145 -233075,-7064155 -233054,-7064178 -233014,-7064230 -232994,-7064266 -232977,-7064300 -232972,-7064340 -232970,-7064344 -232942,-7064343 -232937,-7064335 -232912,-7064337 -232906,-7064329 -232899,-7064329 -232892,-7064331 -232889,-7064338 -232877,-7064347 -232869,-7064352 -232854,-7064358 -232847,-7064361 -232842,-7064359 -232836,-7064357 -232826,-7064349 -232817,-7064346 -232792,-7064360 -232770,-7064353 -232746,-7064347 -232735,-7064333 -232713,-7064323 -232696,-7064318 -232649,-7064309 -232619,-7064303 -232599,-7064300 -232550,-7064301 -232532,-7064292 -232506,-7064272 -232483,-7064242 -232439,-7064191 -232422,-7064171 -232418,-7064162 -232415,-7064155 -232404,-7064154 -232398,-7064147 -232391,-7064131 -232357,-7064101 -232346,-7064095 -232342,-7064088 -232341,-7064074 -232341,-7064055 -232338,-7064046 -232325,-7064023 -232312,-7064007 -232306,-7063993 -232305,-7063986 -232308,-7063979 -232310,-7063973 -232303,-7063964 -232296,-7063954 -232296,-7063926 -232295,-7063914 -232296,-7063907 -232284,-7063888 -232277,-7063856 -232275,-7063834 -232268,-7063819 -232256,-7063808 -232243,-7063806 -232223,-7063798 -232197,-7063790 -232177,-7063767 -232157,-7063770 -232115,-7063754 -232101,-7063761 -232097,-7063747 -232057,-7063739 -232048,-7063732 -232033,-7063712 -232025,-7063707 -232000,-7063710 -231993,-7063701 -232052,-7063662 -232099,-7063627 -232130,-7063601 -232040,-7063506 -232081,-7063469 -232119,-7063504 -232129,-7063501 -232154,-7063528 -232168,-7063529 -232247,-7063455 -232205,-7063412 -232169,-7063393 -232148,-7063393 -232138,-7063369 -232143,-7063335 -232141,-7063307 -232125,-7063292 -232128,-7063274 -232120,-7063245 -232123,-7063238 -232121,-7063225 -232118,-7063222 -232120,-7063207 -232132,-7063188 -232137,-7063170 -232141,-7063133 -232139,-7063073 -232138,-7063020 -232144,-7062961 -232181,-7062950 -232210,-7062947 -232208,-7062934 -232213,-7062905 -232221,-7062904 -232209,-7062867 -232206,-7062818 -232195,-7062791 -232190,-7062779 -232180,-7062771 -232139,-7062707 -232141,-7062696 -232090,-7062666 -232096,-7062657 -232090,-7062642 -232070,-7062610 -232061,-7062600 -232058,-7062541 -232038,-7062524 -232011,-7062519 -231962,-7062465 -231939,-7062461 -231914,-7062451 -231877,-7062429 -231887,-7062345 -231879,-7062343 -231825,-7062331 -231779,-7062312 -231728,-7062302 -231689,-7062288 -231625,-7062271 -231568,-7062248 -231562,-7062241 -231539,-7062236 -231522,-7062221 -231511,-7062221 -231475,-7062209 -231448,-7062208 -231434,-7062209 -231406,-7062217 -231402,-7062217 -231384,-7062231 -231338,-7062234 -231320,-7062240 -231291,-7062220 -231280,-7062221 -231220,-7062349 -231211,-7062349 -231193,-7062349 -231172,-7062359 -231159,-7062371 -231155,-7062374 -231148,-7062376 -231136,-7062369 -231103,-7062337 -231083,-7062326 -231083,-7062314 -231047,-7062284 -230996,-7062240 -230955,-7062183 -230886,-7062242 -230843,-7062278 -230774,-7062340 -230716,-7062400 -230711,-7062399 -230697,-7062411 -230700,-7062418 -230634,-7062473 -230605,-7062498 -230559,-7062530 -230515,-7062553 -230443,-7062586 -230429,-7062585 -230419,-7062580 -230388,-7062547 -230373,-7062523 -230369,-7062516 -230367,-7062513 -230357,-7062515 -230358,-7062521 -230358,-7062523 -230360,-7062535 -230355,-7062562 -230342,-7062594 -230326,-7062616 -230307,-7062631 -230275,-7062644 -230257,-7062647 -230230,-7062648 -230196,-7062656 -230156,-7062675 -230129,-7062692 -230076,-7062754 -230032,-7062798 -229999,-7062835 -229975,-7062858 -229910,-7062940 -229897,-7062957 -229894,-7062966 -229862,-7062957 -229842,-7062943 -229821,-7062921 -229754,-7062882 -229619,-7062787 -229555,-7062745 -229538,-7062811 -229517,-7062805 -229509,-7062832 -229525,-7062841 -229510,-7062913 -229452,-7062926 -229452,-7062955 -229349,-7063033 -229346,-7063016 -229327,-7062968 -229314,-7062946 -229304,-7062931 -229162,-7063020 -229125,-7063043 -229136,-7063124 -228992,-7063196 -228981,-7063204 -228864,-7063251 -228851,-7063259 -228849,-7063266 -228708,-7063249 -228712,-7063171 -228707,-7063159 -228686,-7063142 -228672,-7063142 -228642,-7063157 -228646,-7063171 -228600,-7063181 -228593,-7063160 -228509,-7063146 -228505,-7063135 -228291,-7063082 -228271,-7063085 -228259,-7063102 -228218,-7063061 -228205,-7063044 -228148,-7062976 -228112,-7062942 -228105,-7062940 -228067,-7062944 -227921,-7062947 -227731,-7062816 -227715,-7062838 -227646,-7062804 -227488,-7062742 -227476,-7062760 -227376,-7062716 -227332,-7062700 -227186,-7062626 -227180,-7062615 -227151,-7062587 -227079,-7062551 -227048,-7062537 -227075,-7062503 -227082,-7062474 -227088,-7062459 -227089,-7062446 -227053,-7062424 -227042,-7062419 -227009,-7062424 -226988,-7062409 -226949,-7062415 -226905,-7062403 -226865,-7062411 -226857,-7062410 -226845,-7062436 -226826,-7062454 -226808,-7062459 -226783,-7062461 -226724,-7062453 -226687,-7062447 -226656,-7062449 -226636,-7062453 -226593,-7062469 -226570,-7062482 -226551,-7062497 -226536,-7062513 -226527,-7062528 -226524,-7062548 -226517,-7062591 -226504,-7062620 -226478,-7062678 -226472,-7062683 -226428,-7062702 -226397,-7062706 -226336,-7062705 -226278,-7062700 -226239,-7062689 -226196,-7062672 -226164,-7062655 -226140,-7062647 -226115,-7062642 -226087,-7062640 -226056,-7062642 -226037,-7062646 -226009,-7062657 -225996,-7062665 -225978,-7062672 -225910,-7062727 -225860,-7062765 -225813,-7062799 -225748,-7062844 -225685,-7062872 -225608,-7062901 -225566,-7062922 -225561,-7062910 -225555,-7062901 -225553,-7062898 -225480,-7062810 -225458,-7062788 -225453,-7062782 -225450,-7062776 -225447,-7062749 -225440,-7062726 -225429,-7062711 -225411,-7062695 -225399,-7062676 -225394,-7062663 -225374,-7062617 -225360,-7062602 -225351,-7062591 -225342,-7062579 -225326,-7062553 -225319,-7062533 -225305,-7062469 -225359,-7062427 -225359,-7062426 -225350,-7062418 -225337,-7062421 -225324,-7062425 -225288,-7062440 -225244,-7062462 -225166,-7062477 -225145,-7062483 -225132,-7062482 -225110,-7062471 -225091,-7062469 -225068,-7062455 -225049,-7062445 -225043,-7062421 -225035,-7062406 -224995,-7062396 -224983,-7062392 -224967,-7062378 -224954,-7062361 -224934,-7062338 -224918,-7062317 -224897,-7062273 -224886,-7062245 -224881,-7062231 -224877,-7062178 -224870,-7062146 -224864,-7062093 -224857,-7062072 -224834,-7062023 -224843,-7061982 -224847,-7061970 -224851,-7061960 -224868,-7061935 -224880,-7061912 -224886,-7061891 -224894,-7061822 -224900,-7061804 -224913,-7061783 -224930,-7061701 -224937,-7061678 -224948,-7061657 -224957,-7061645 -224964,-7061641 -224969,-7061622 -224978,-7061609 -224985,-7061595 -225004,-7061556 -225008,-7061548 -224995,-7061514 -224967,-7061416 -224965,-7061407 -224976,-7061302 -225015,-7061316 -225139,-7061362 -225204,-7061384 -225248,-7061394 -225258,-7061303 -225272,-7061216 -225276,-7061184 -225278,-7061170 -225187,-7061134 -224743,-7060987 -224633,-7060964 -224495,-7060937 -224510,-7060837 -224533,-7060720 -224443,-7060699 -224329,-7060675 -224283,-7060666 -224310,-7060550 -224333,-7060437 -224227,-7060420 -224159,-7060406 -224163,-7060299 -224066,-7060351 -223938,-7060404 -223824,-7060456 -223748,-7060439 -223733,-7060436 -223596,-7060350 -223427,-7060257 -223286,-7060178 -223205,-7060138 -223063,-7060150 -223053,-7060125 -222918,-7060147 -222801,-7060165 -222729,-7060176 -222667,-7060184 -222404,-7060183 -222052,-7060175 -221894,-7060176 -221785,-7060169 -221882,-7059958 -221935,-7059863 -221967,-7059794 -221953,-7059770 -221946,-7059757 -221935,-7059731 -221924,-7059671 -221901,-7059582 -221895,-7059571 -221893,-7059564 -221893,-7059556 -221893,-7059548 -221897,-7059537 -221969,-7059047 -221971,-7059042 -221983,-7059034 -221992,-7059027 -222001,-7059019 -222006,-7059012 -222012,-7059005 -222022,-7058986 -222041,-7058963 -222048,-7058950 -222050,-7058943 -222053,-7058931 -222057,-7058915 -222072,-7058867 -222085,-7058821 -222098,-7058781 -222104,-7058673 -222107,-7058652 -222119,-7058608 -222153,-7058468 -222164,-7058431 -222176,-7058399 -222192,-7058366 -222216,-7058309 -222209,-7058275 -222207,-7058257 -222207,-7058245 -222208,-7058233 -222214,-7058204 -222222,-7058180 -222231,-7058161 -222236,-7058155 -222243,-7058149 -222249,-7058145 -222282,-7058129 -222293,-7058122 -222348,-7057992 -222363,-7057949 -222375,-7057912 -222454,-7057688 -222470,-7057649 -222482,-7057619 -222527,-7057523 -222573,-7057417 -222569,-7057411 -222587,-7057370 -222595,-7057352 -222636,-7057267 -222642,-7057250 -222646,-7057240 -222690,-7057088 -222699,-7057061 -222718,-7057010 -222735,-7056971 -222768,-7056892 -222788,-7056831 -222796,-7056799 -222801,-7056784 -222805,-7056774 -222811,-7056757 -222829,-7056694 -222831,-7056689 -222836,-7056677 -222847,-7056656 -222875,-7056609 -222925,-7056528 -222954,-7056479 -222988,-7056432 -223024,-7056378 -223066,-7056303 -223084,-7056268 -223089,-7056258 -223108,-7056225 -223137,-7056167 -223143,-7056149 -223144,-7056146 -223154,-7056113 -223166,-7056059 -223182,-7056000 -223197,-7055997 -223204,-7055961 -223215,-7055912 -223217,-7055860 -223211,-7055787 -223208,-7055750 -223205,-7055640 -223201,-7055579 -223201,-7055566 -223199,-7055490 -223198,-7055436 -223187,-7055248 -223172,-7055044 -223155,-7054780 -223277,-7054727 -223385,-7054678 -223473,-7054642 -223677,-7054551 -223765,-7054515 -223914,-7054444 -223968,-7054426 -224009,-7054403 -224048,-7054385 -224082,-7054372 -224093,-7054365 -224110,-7054304 -224120,-7054276 -224131,-7054247 -224161,-7054176 -224188,-7054100 -224212,-7054036 -224230,-7053980 -224243,-7053948 -224248,-7053933 -224252,-7053918 -224257,-7053889 -224257,-7053869 -224254,-7053851 -224269,-7053850 -224282,-7053839 -224301,-7053797 -224314,-7053764 -224316,-7053741 -224319,-7053717 -224321,-7053705 -224529,-7053878 -224586,-7053846 -224666,-7053793 -224739,-7053754 -224833,-7053710 -224836,-7053689 -224720,-7053645 -224708,-7053637 -224663,-7053531 -224605,-7053372 -224540,-7053194 -224635,-7053182 -224653,-7053186 -224673,-7053181 -224712,-7053171 -224768,-7053149 -224775,-7053152 -224970,-7053151 -224935,-7052882 -225076,-7052869 -225087,-7052844 -225055,-7052813 -225045,-7052796 -225039,-7052768 -225029,-7052677 -225091,-7052686 -225140,-7052661 -225208,-7052674 -225245,-7052657 -225227,-7052593 -225234,-7052592 -225255,-7052566 -225272,-7052552 -225288,-7052543 -225301,-7052528 -225318,-7052511 -225376,-7052480 -225396,-7052464 -225422,-7052449 -225434,-7052440 -225463,-7052434 -225470,-7052431 -225484,-7052423 -225493,-7052420 -225504,-7052418 -225528,-7052417 -225556,-7052408 -225575,-7052414 -225590,-7052423 -225597,-7052425 -225621,-7052428 -225640,-7052437 -225654,-7052441 -225704,-7052449 -225723,-7052457 -225741,-7052466 -225760,-7052471 -225777,-7052485 -225800,-7052495 -225811,-7052509 -225821,-7052516 -225832,-7052523 -225848,-7052530 -225871,-7052538 -225921,-7052567 -225964,-7052596 -225990,-7052618 -226010,-7052649 -226024,-7052681 -226046,-7052696 -226055,-7052701 -226067,-7052704 -226102,-7052711 -226125,-7052718 -226136,-7052720 -226169,-7052721 -226177,-7052723 -226184,-7052725 -226199,-7052737 -226235,-7052748 -226256,-7052753 -226265,-7052754 -226287,-7052749 -226322,-7052745 -226348,-7052749 -226349,-7052749 -226371,-7052763 -226398,-7052767 -226402,-7052747 -226402,-7052732 -226402,-7052721 -226397,-7052704 -226407,-7052697 -226399,-7052683 -226377,-7052668 -226347,-7052628 -226300,-7052570 -226238,-7052489 -226174,-7052418 -226134,-7052360 -226129,-7052354 -226071,-7052277 -226038,-7052225 -225992,-7052154 -225939,-7052065 -225896,-7051986 -225853,-7051908 -225825,-7051870 -225830,-7051866 -225852,-7051843 -225880,-7051817 -225901,-7051807 -225920,-7051799 -225933,-7051788 -225955,-7051785 -225965,-7051779 -225980,-7051774 -225996,-7051767 -226008,-7051760 -226020,-7051754 -226029,-7051754 -226037,-7051758 -226070,-7051767 -226096,-7051782 -226092,-7051795 -226087,-7051815 -226081,-7051852 -226077,-7051906 -226075,-7051966 -226078,-7051996 -226085,-7052015 -226104,-7052029 -226143,-7052050 -226186,-7052069 -226255,-7052095 -226268,-7052098 -226271,-7052112 -226304,-7052108 -226351,-7052108 -226470,-7052120 -226508,-7052126 -226528,-7052127 -226575,-7052129 -226652,-7052125 -226696,-7052120 -226748,-7052112 -226828,-7052101 -226916,-7052086 -226930,-7052114 -226950,-7052172 -226957,-7052247 -226964,-7052290 -226993,-7052296 -227007,-7052308 -227021,-7052324 -227038,-7052339 -227058,-7052357 -227082,-7052386 -227130,-7052451 -227137,-7052471 -227154,-7052496 -227175,-7052463 -227190,-7052435 -227194,-7052395 -227204,-7052337 -227207,-7052318 -227214,-7052237 -227222,-7052224 -227251,-7052206 -227261,-7052193 -227258,-7052172 -227258,-7052162 -227281,-7052146 -227299,-7052136 -227308,-7052128 -227331,-7052105 -227354,-7052097 -227371,-7052086 -227398,-7052074 -227428,-7052053 -227434,-7052043 -227429,-7052029 -227423,-7052019 -227435,-7052006 -227444,-7051978 -227453,-7051954 -227458,-7051945 -227479,-7051912 -227502,-7051891 -227509,-7051885 -227514,-7051878 -227528,-7051854 -227531,-7051850 -227565,-7051839 -227572,-7051833 -227599,-7051809 -227606,-7051804 -227626,-7051797 -227633,-7051792 -227639,-7051786 -227647,-7051771 -227669,-7051758 -227700,-7051729 -227726,-7051708 -227794,-7051641 -227800,-7051635 -227807,-7051630 -227834,-7051615 -227847,-7051614 -227861,-7051614 -227875,-7051615 -227914,-7051620 -227944,-7051620 -227981,-7051627 -228027,-7051630 -228052,-7051629 -228078,-7051616 -228089,-7051612 -228109,-7051605 -228143,-7051598 -228164,-7051590 -228204,-7051569 -228217,-7051562 -228234,-7051550 -228242,-7051544 -228286,-7051495 -228327,-7051432 -228345,-7051402 -228348,-7051390 -228354,-7051377 -228360,-7051342 -228377,-7051330 -228389,-7051305 -228405,-7051276 -228408,-7051264 -228426,-7051248 -228448,-7051241 -228487,-7051234 -228504,-7051236 -228527,-7051240 -228554,-7051241 -228596,-7051239 -228640,-7051234 -228671,-7051218 -228686,-7051195 -228711,-7051184 -228749,-7051173 -228761,-7051165 -228780,-7051160 -228797,-7051153 -228804,-7051138 -228807,-7051112 -228805,-7051085 -228804,-7051062 -228800,-7051036 -228803,-7051011 -228847,-7050936 -228866,-7050892 -228875,-7050867 -228881,-7050844 -228889,-7050813 -228893,-7050784 -228896,-7050756 -228894,-7050730 -228897,-7050710 -228902,-7050692 -228903,-7050685 -228901,-7050671 -228923,-7050648 -228936,-7050630 -228944,-7050620 -228968,-7050596 -228979,-7050563 -228972,-7050552 -228964,-7050543 -228969,-7050525 -228969,-7050517 -228976,-7050492 -228953,-7050485 -228915,-7050474 -228910,-7050317 -228956,-7050313 -228977,-7050301 -228988,-7050293 -228999,-7050285 -229016,-7050270 -229013,-7050248 -229035,-7050251 -229035,-7050251 -229041,-7050237 -229052,-7050217 -229119,-7050101 -229124,-7050104 -229138,-7050076 -229175,-7049932 -229182,-7049907 -229225,-7049912 -229238,-7049860 -229250,-7049775 -229269,-7049708 -229275,-7049678 -229282,-7049664 -229296,-7049649 -229340,-7049624 -229358,-7049615 -229372,-7049609 -229406,-7049596 -229421,-7049586 -229447,-7049576 -229459,-7049571 -229485,-7049602 -229500,-7049621 -229510,-7049631 -229521,-7049630 -229529,-7049623 -229536,-7049614 -229545,-7049605 -229555,-7049593 -229566,-7049588 -229574,-7049588 -229582,-7049589 -229593,-7049607 -229602,-7049621 -229608,-7049627 -229615,-7049625 -229625,-7049621 -229634,-7049616 -229642,-7049611 -229644,-7049611 -229646,-7049612 -229648,-7049613 -229651,-7049615 -229652,-7049615 -229656,-7049617 -229661,-7049619 -229664,-7049622 -229680,-7049636 -229703,-7049650 -229732,-7049602 -229750,-7049569 -229763,-7049540 -229788,-7049536 -229809,-7049527 -229826,-7049513 -229837,-7049497 -229849,-7049475 -229868,-7049450 -229879,-7049443 -229898,-7049439 -229907,-7049453 -229918,-7049467 -229930,-7049472 -229953,-7049474 -229975,-7049473 -230002,-7049465 -230017,-7049459 -230068,-7049437 -230076,-7049434 -230088,-7049431 -230101,-7049428 -230128,-7049440 -230130,-7049439 -230164,-7049410 -230174,-7049410 -230217,-7049381 -230236,-7049381 -230261,-7049398 -230264,-7049403 -230265,-7049408 -230264,-7049425 -230253,-7049453 -230250,-7049461 -230260,-7049471 -230312,-7049501 -230338,-7049501 -230380,-7049498 -230386,-7049498 -230395,-7049474 -230401,-7049470 -230407,-7049474 -230416,-7049482 -230424,-7049483 -230428,-7049479 -230429,-7049472 -230431,-7049462 -230475,-7049452 -230504,-7049454 -230516,-7049458 -230517,-7049459 -230512,-7049487 -230516,-7049498 -230527,-7049505 -230543,-7049504 -230545,-7049501 -230550,-7049479 -230546,-7049451 -230544,-7049432 -230544,-7049425 -230547,-7049420 -230550,-7049416 -230562,-7049413 -230586,-7049416 -230588,-7049442 -230610,-7049460 -230633,-7049471 -230637,-7049475 -230659,-7049482 -230663,-7049483 -230667,-7049483 -230667,-7049483 -230671,-7049483 -230675,-7049483 -230677,-7049482 -230679,-7049481 -230682,-7049480 -230684,-7049478 -230685,-7049476 -230686,-7049476 -230687,-7049473 -230688,-7049471 -230688,-7049468 -230689,-7049466 -230689,-7049463 -230689,-7049461 -230690,-7049451 -230692,-7049441 -230693,-7049437 -230695,-7049434 -230697,-7049431 -230700,-7049428 -230702,-7049425 -230705,-7049423 -230707,-7049422 -230710,-7049420 -230714,-7049419 -230717,-7049418 -230721,-7049417 -230725,-7049417 -230726,-7049417 -230729,-7049418 -230732,-7049419 -230734,-7049421 -230737,-7049423 -230739,-7049424 -230752,-7049432 -230763,-7049439 -230768,-7049443 -230794,-7049456 -230819,-7049461 -230959,-7049458 -230983,-7049459 -231005,-7049463 -231023,-7049467 -231032,-7049467 -231037,-7049461 -231043,-7049456 -231045,-7049454 -231047,-7049453 -231050,-7049453 -231052,-7049452 -231054,-7049452 -231057,-7049452 -231060,-7049453 -231061,-7049454 -231062,-7049455 -231063,-7049457 -231063,-7049459 -231064,-7049460 -231065,-7049461 -231069,-7049466 -231073,-7049472 -231078,-7049477 -231084,-7049481 -231095,-7049498 -231099,-7049500 -231103,-7049502 -231105,-7049503 -231107,-7049504 -231112,-7049505 -231115,-7049506 -231119,-7049506 -231124,-7049506 -231128,-7049506 -231132,-7049506 -231139,-7049505 -231145,-7049503 -231147,-7049503 -231164,-7049494 -231182,-7049495 -231206,-7049506 -231244,-7049524 -231280,-7049551 -231282,-7049553 -231287,-7049558 -231293,-7049563 -231299,-7049567 -231305,-7049572 -231312,-7049575 -231312,-7049575 -231314,-7049577 -231316,-7049578 -231318,-7049579 -231320,-7049580 -231322,-7049581 -231324,-7049582 -231326,-7049582 -231330,-7049581 -231333,-7049579 -231336,-7049576 -231339,-7049573 -231339,-7049572 -231342,-7049569 -231344,-7049566 -231360,-7049544 -231361,-7049544 -231383,-7049522 -231400,-7049530 -231408,-7049535 -231415,-7049541 -231422,-7049548 -231462,-7049606 -231475,-7049604 -231482,-7049594 -231516,-7049592 -231533,-7049592 -231557,-7049600 -231564,-7049605 -231569,-7049610 -231576,-7049628 -231603,-7049652 -231640,-7049679 -231696,-7049714 -231723,-7049725 -231746,-7049729 -231774,-7049728 -231869,-7049749 -231962,-7049784 -231971,-7049851 -231974,-7049892 -232011,-7049912 -232033,-7049924 -232058,-7049945 -232083,-7049970 -232103,-7049987 -232123,-7049997 -232147,-7050004 -232163,-7050025 -232189,-7050059 -232215,-7050090 -232250,-7050119 -232276,-7050148 -232286,-7050155 -232297,-7050162 -232314,-7050163 -232323,-7050167 -232335,-7050182 -232339,-7050214 -232356,-7050241 -232392,-7050284 -232392,-7050284 -232396,-7050289 -232400,-7050294 -232405,-7050299 -232409,-7050303 -232414,-7050307 -232420,-7050310 -232425,-7050314 -232431,-7050316 -232433,-7050317 -232453,-7050322 -232453,-7050322 -232456,-7050323 -232459,-7050323 -232460,-7050323 -232461,-7050323 -232464,-7050323 -232467,-7050324 -232469,-7050325 -232471,-7050326 -232473,-7050329 -232474,-7050333 -232475,-7050334 -232475,-7050338 -232476,-7050343 -232477,-7050347 -232479,-7050350 -232483,-7050355 -232487,-7050360 -232492,-7050365 -232495,-7050367 -232503,-7050372 -232511,-7050376 -232520,-7050380 -232527,-7050385 -232557,-7050414 -232594,-7050449 -232616,-7050472 -232620,-7050476 -232624,-7050481 -232628,-7050486 -232632,-7050491 -232636,-7050495 -232641,-7050499 -232647,-7050503 -232656,-7050506 -232664,-7050509 -232672,-7050512 -232672,-7050513 -232677,-7050515 -232682,-7050519 -232687,-7050522 -232692,-7050525 -232696,-7050529 -232700,-7050534 -232704,-7050541 -232708,-7050548 -232712,-7050556 -232712,-7050557 -232715,-7050567 -232718,-7050578 -232722,-7050588 -232722,-7050589 -232726,-7050598 -232730,-7050607 -232734,-7050613 -232736,-7050617 -232739,-7050621 -232742,-7050624 -232745,-7050628 -232749,-7050630 -232753,-7050633 -232775,-7050646 -232839,-7050672 -232891,-7050683 -232892,-7050684 -232902,-7050684 -232911,-7050686 -232920,-7050688 -232929,-7050691 -232930,-7050691 -232934,-7050692 -232939,-7050694 -232944,-7050695 -232949,-7050697 -232953,-7050699 -232957,-7050701 -232961,-7050705 -232963,-7050706 -232967,-7050710 -232970,-7050715 -232973,-7050720 -232976,-7050725 -232978,-7050728 -232980,-7050733 -232982,-7050739 -232993,-7050781 -233044,-7050831 -233048,-7050838 -233055,-7050859 -233058,-7050873 -233060,-7050877 -233062,-7050881 -233063,-7050882 -233064,-7050884 -233066,-7050886 -233067,-7050888 -233068,-7050889 -233070,-7050891 -233086,-7050888 -233088,-7050887 -233091,-7050887 -233094,-7050886 -233097,-7050885 -233100,-7050884 -233103,-7050884 -233106,-7050884 -233107,-7050884 -233110,-7050885 -233112,-7050886 -233115,-7050888 -233118,-7050890 -233120,-7050892 -233120,-7050892 -233125,-7050902 -233127,-7050913 -233127,-7050916 -233127,-7050919 -233128,-7050921 -233128,-7050924 -233128,-7050927 -233129,-7050930 -233131,-7050932 -233133,-7050934 -233136,-7050937 -233139,-7050939 -233142,-7050940 -233151,-7050942 -233162,-7050943 -233164,-7050943 -233168,-7050944 -233172,-7050944 -233176,-7050945 -233180,-7050946 -233184,-7050948 -233186,-7050949 -233189,-7050951 -233192,-7050953 -233194,-7050955 -233196,-7050958 -233198,-7050961 -233199,-7050962 -233199,-7050967 -233200,-7050971 -233200,-7050975 -233201,-7050980 -233202,-7050983 -233203,-7050986 -233204,-7050988 -233206,-7050991 -233208,-7050993 -233209,-7050993 -233218,-7050998 -233228,-7051000 -233234,-7051002 -233244,-7051004 -233266,-7051002 -233303,-7051001 -233341,-7051011 -233385,-7051015 -233424,-7051011 -233439,-7051007 -233475,-7050999 -233478,-7050998 -233488,-7050997 -233493,-7050997 -233494,-7050997 -233500,-7050996 -233506,-7050996 -233524,-7051000 -233550,-7051010 -233577,-7051019 -233594,-7051025 -233622,-7051033 -233628,-7051035 -233641,-7051039 -233643,-7051039 -233646,-7051040 -233649,-7051041 -233653,-7051041 -233656,-7051041 -233659,-7051040 -233662,-7051040 -233666,-7051038 -233669,-7051037 -233673,-7051036 -233678,-7051034 -233682,-7051032 -233686,-7051029 -233690,-7051026 -233693,-7051023 -233704,-7051016 -233726,-7051003 -233731,-7051000 -233736,-7050997 -233741,-7050994 -233746,-7050992 -233747,-7050992 -233749,-7050991 -233752,-7050990 -233754,-7050989 -233757,-7050988 -233760,-7050988 -233762,-7050988 -233764,-7050988 -233767,-7050989 -233769,-7050991 -233772,-7050992 -233774,-7050994 -233775,-7050996 -233777,-7050999 -233778,-7050999 -233782,-7051003 -233787,-7051006 -233792,-7051008 -233797,-7051010 -233803,-7051012 -233803,-7051012 -233806,-7051013 -233809,-7051014 -233811,-7051015 -233814,-7051015 -233817,-7051015 -233818,-7051014 -233822,-7051013 -233825,-7051012 -233827,-7051009 -233830,-7051007 -233832,-7051004 -233834,-7051002 -233837,-7050995 -233839,-7050989 -233842,-7050983 -233844,-7050980 -233846,-7050977 -233849,-7050974 -233852,-7050971 -233854,-7050969 -233859,-7050967 -233864,-7050965 -233869,-7050964 -233875,-7050963 -233876,-7050963 -233879,-7050963 -233883,-7050962 -233887,-7050962 -233891,-7050963 -233895,-7050963 -233896,-7050964 -233898,-7050964 -233900,-7050965 -233902,-7050966 -233904,-7050967 -233905,-7050968 -233906,-7050969 -233907,-7050970 -233908,-7050972 -233908,-7050974 -233908,-7050976 -233909,-7050978 -233909,-7050983 -233910,-7050987 -233911,-7050991 -233913,-7050995 -233913,-7050996 -233914,-7050998 -233915,-7051001 -233917,-7051002 -233920,-7051005 -233926,-7051006 -233931,-7051007 -233933,-7051007 -233939,-7051008 -233945,-7051008 -233950,-7051008 -233956,-7051008 -233996,-7051011 -233998,-7051011 -234002,-7051011 -234006,-7051011 -234010,-7051010 -234013,-7051009 -234016,-7051008 -234019,-7051006 -234022,-7051004 -234025,-7051002 -234026,-7051002 -234028,-7051001 -234030,-7051001 -234033,-7051000 -234035,-7051001 -234038,-7051002 -234042,-7051005 -234046,-7051007 -234048,-7051010 -234051,-7051013 -234054,-7051015 -234058,-7051017 -234060,-7051019 -234067,-7051020 -234075,-7051021 -234082,-7051021 -234087,-7051021 -234094,-7051021 -234101,-7051021 -234108,-7051020 -234110,-7051019 -234113,-7051019 -234116,-7051018 -234119,-7051017 -234122,-7051016 -234124,-7051015 -234129,-7051009 -234134,-7051002 -234135,-7051001 -234136,-7050999 -234138,-7050997 -234140,-7050996 -234142,-7050994 -234144,-7050994 -234150,-7050993 -234155,-7050994 -234158,-7050994 -234163,-7050994 -234169,-7050996 -234208,-7051002 -234226,-7050982 -234233,-7050978 -234239,-7050973 -234255,-7050960 -234270,-7050947 -234295,-7050915 -234310,-7050900 -234339,-7050903 -234360,-7050873 -234396,-7050835 -234425,-7050818 -234460,-7050817 -234463,-7050817 -234491,-7050830 -234508,-7050833 -234519,-7050828 -234524,-7050817 -234527,-7050795 -234562,-7050777 -234598,-7050758 -234668,-7050749 -234758,-7050741 -234863,-7050721 -234878,-7050722 -234891,-7050725 -234904,-7050728 -234917,-7050730 -234917,-7050731 -234928,-7050732 -234933,-7050733 -234939,-7050734 -234944,-7050733 -234946,-7050733 -234953,-7050732 -234959,-7050729 -234965,-7050727 -234971,-7050723 -234978,-7050720 -234979,-7050719 -234985,-7050715 -234990,-7050711 -234995,-7050706 -235000,-7050700 -235005,-7050695 -235011,-7050690 -235017,-7050686 -235020,-7050684 -235024,-7050682 -235025,-7050681 -235026,-7050680 -235027,-7050679 -235028,-7050678 -235030,-7050677 -235031,-7050676 -235032,-7050676 -235033,-7050676 -235034,-7050676 -235035,-7050678 -235036,-7050683 -235036,-7050685 -235036,-7050686 -235038,-7050691 -235039,-7050697 -235041,-7050702 -235044,-7050706 -235045,-7050708 -235047,-7050712 -235049,-7050715 -235052,-7050718 -235053,-7050719 -235059,-7050723 -235066,-7050726 -235073,-7050729 -235079,-7050731 -235086,-7050733 -235093,-7050735 -235128,-7050737 -235174,-7050746 -235198,-7050747 -235215,-7050744 -235231,-7050734 -235256,-7050717 -235287,-7050710 -235325,-7050710 -235365,-7050727 -235374,-7050733 -235374,-7050733 -235415,-7050757 -235464,-7050767 -235502,-7050762 -235544,-7050734 -235535,-7050713 -235527,-7050695 -235530,-7050687 -235542,-7050681 -235543,-7050681 -235547,-7050680 -235549,-7050679 -235556,-7050679 -235574,-7050679 -235578,-7050679 -235588,-7050679 -235590,-7050679 -235598,-7050679 -235599,-7050679 -235603,-7050679 -235605,-7050679 -235608,-7050679 -235609,-7050679 -235614,-7050680 -235615,-7050681 -235616,-7050681 -235618,-7050682 -235620,-7050684 -235622,-7050686 -235624,-7050689 -235625,-7050691 -235625,-7050694 -235625,-7050697 -235624,-7050699 -235624,-7050702 -235624,-7050705 -235624,-7050707 -235626,-7050709 -235626,-7050710 -235627,-7050712 -235629,-7050714 -235632,-7050715 -235634,-7050717 -235636,-7050717 -235639,-7050718 -235641,-7050718 -235644,-7050718 -235647,-7050718 -235651,-7050717 -235657,-7050717 -235662,-7050716 -235667,-7050714 -235671,-7050712 -235676,-7050710 -235679,-7050709 -235681,-7050707 -235683,-7050706 -235685,-7050704 -235686,-7050703 -235687,-7050701 -235688,-7050699 -235689,-7050697 -235689,-7050696 -235689,-7050694 -235689,-7050692 -235688,-7050690 -235688,-7050688 -235686,-7050687 -235685,-7050686 -235675,-7050675 -235676,-7050662 -235689,-7050656 -235709,-7050654 -235717,-7050661 -235726,-7050671 -235743,-7050669 -235780,-7050665 -235827,-7050661 -235860,-7050660 -235932,-7050652 -235948,-7050638 -235963,-7050623 -235984,-7050614 -236023,-7050602 -236075,-7050591 -236094,-7050549 -236104,-7050525 -236111,-7050514 -236119,-7050506 -236142,-7050496 -236143,-7050495 -236191,-7050472 -236198,-7050468 -236216,-7050449 -236239,-7050397 -236244,-7050371 -236262,-7050331 -236269,-7050307 -236281,-7050273 -236326,-7050244 -236353,-7050230 -236421,-7050237 -236483,-7050240 -236504,-7050246 -236532,-7050258 -236534,-7050259 -236516,-7050281 -236495,-7050305 -236525,-7050333 -236560,-7050364 -236608,-7050414 -236670,-7050470 -236708,-7050504 -236718,-7050525 -236738,-7050545 -236770,-7050572 -236782,-7050586 -236788,-7050596 -236789,-7050606 -236794,-7050616 -236801,-7050620 -236843,-7050610 -236844,-7050612 -236845,-7050614 -236856,-7050631 -236871,-7050667 -236904,-7050728 -236904,-7050728 -236923,-7050746 -236932,-7050753 -236970,-7050776 -236984,-7050782 -236996,-7050787 -237007,-7050790 -237023,-7050793 -237045,-7050790 -237112,-7050781 -237147,-7050784 -237215,-7050798 -237267,-7050798 -237400,-7050791 -237452,-7050792 -237463,-7050792 -237486,-7050797 -237528,-7050823 -237537,-7050831 -237587,-7050879 -237618,-7050905 -237660,-7050953 -237674,-7050966 -237724,-7051012 -237760,-7051043 -237767,-7051050 -237773,-7051058 -237792,-7051091 -237811,-7051140 -237817,-7051150 -237822,-7051159 -237835,-7051172 -237841,-7051175 -237855,-7051180 -237862,-7051182 -237883,-7051183 -237909,-7051179 -237934,-7051180 -237950,-7051194 -237964,-7051202 -238007,-7051211 -238031,-7051221 -238098,-7051239 -238115,-7051232 -238118,-7051187 -238141,-7051109 -238119,-7051101 -238099,-7051106 -238093,-7051106 -238080,-7051102 -238064,-7051103 -238052,-7051112 -238033,-7051116 -238013,-7051127 -238008,-7051120 -237975,-7051113 -237969,-7051107 -237969,-7051101 -237970,-7051095 -237977,-7051086 -237979,-7051078 -237982,-7051072 -237997,-7051050 -238016,-7050987 -238017,-7050973 -238030,-7050955 -238036,-7050940 -238043,-7050918 -238048,-7050910 -238059,-7050893 -238076,-7050872 -238080,-7050866 -238083,-7050859 -238086,-7050839 -238097,-7050824 -238109,-7050803 -238118,-7050796 -238134,-7050787 -238142,-7050778 -238149,-7050761 -238163,-7050737 -238165,-7050728 -238167,-7050720 -238170,-7050692 -238171,-7050685 -238176,-7050669 -238171,-7050652 -238157,-7050612 -238150,-7050586 -238147,-7050574 -238144,-7050548 -238149,-7050532 -238184,-7050515 -238180,-7050497 -238179,-7050477 -238178,-7050472 -238161,-7050434 -238156,-7050415 -238189,-7050411 -238189,-7050408 -238187,-7050393 -238178,-7050372 -238172,-7050350 -238164,-7050337 -238172,-7050322 -238175,-7050316 -238176,-7050300 -238181,-7050289 -238172,-7050279 -238163,-7050273 -238160,-7050268 -238157,-7050262 -238156,-7050250 -238160,-7050239 -238145,-7050218 -238141,-7050211 -238140,-7050205 -238137,-7050178 -238137,-7050162 -238146,-7050153 -238164,-7050099 -238167,-7050084 -238170,-7050078 -238173,-7050073 -238182,-7050063 -238185,-7050047 -238194,-7050035 -238201,-7050019 -238195,-7049985 -238196,-7049976 -238204,-7049946 -238209,-7049896 -238207,-7049875 -238201,-7049828 -238191,-7049827 -238182,-7049774 -238191,-7049729 -238191,-7049707 -238186,-7049689 -238179,-7049674 -238175,-7049663 -238165,-7049626 -238153,-7049539 -238150,-7049526 -238147,-7049515 -238136,-7049490 -238127,-7049465 -238131,-7049451 -238118,-7049426 -238064,-7049366 -238052,-7049351 -238043,-7049350 -238043,-7049328 -238040,-7049319 -238037,-7049310 -238022,-7049287 -238051,-7049239 -238143,-7049125 -238150,-7049115 -238161,-7049092 -238175,-7049069 -238198,-7049041 -238216,-7049005 -238237,-7048971 -238260,-7048944 -238283,-7048931 -238335,-7048907 -238352,-7048898 -238379,-7048879 -238398,-7048864 -238426,-7048843 -238468,-7048807 -238505,-7048784 -238528,-7048766 -238547,-7048749 -238597,-7048689 -238606,-7048676 -238615,-7048664 -238622,-7048650 -238628,-7048636 -238638,-7048608 -238647,-7048586 -238659,-7048568 -238671,-7048557 -238738,-7048483 -238786,-7048421 -238832,-7048364 -238861,-7048325 -238899,-7048343 -238927,-7048356 -238971,-7048282 -238993,-7048233 -238999,-7048227 -239005,-7048220 -239021,-7048213 -238967,-7048198 -238977,-7048169 -238952,-7048163 -239013,-7048090 -239055,-7048055 -239066,-7048048 -239072,-7048044 -239083,-7048038 -239090,-7048035 -239098,-7048032 -239106,-7048029 -239111,-7048028 -239119,-7048026 -239127,-7048025 -239131,-7048025 -239148,-7048023 -239154,-7048028 -239165,-7048023 -239164,-7048017 -239199,-7047985 -239243,-7047966 -239250,-7047964 -239256,-7047962 -239263,-7047960 -239266,-7047958 -239272,-7047955 -239278,-7047951 -239284,-7047947 -239286,-7047945 -239292,-7047940 -239299,-7047934 -239304,-7047927 -239307,-7047925 -239316,-7047914 -239324,-7047905 -239347,-7047876 -239355,-7047868 -239369,-7047851 -239354,-7047833 -239348,-7047827 -239381,-7047769 -239404,-7047734 -239438,-7047694 -239469,-7047654 -239417,-7047563 -239361,-7047482 -239290,-7047366 -239213,-7047249 -239173,-7047182 -239157,-7047153 -239126,-7047106 -239110,-7047079 -239082,-7047038 -239050,-7047042 -239033,-7047042 -239022,-7047034 -239011,-7047017 -238999,-7047002 -238971,-7046924 -238963,-7046907 -238934,-7046883 -238933,-7046873 -238905,-7046841 -238877,-7046821 -238839,-7046797 -238818,-7046779 -238795,-7046762 -238780,-7046750 -238772,-7046747 -238759,-7046746 -238749,-7046742 -238722,-7046713 -238680,-7046673 -238702,-7046643 -238732,-7046592 -238751,-7046562 -238742,-7046552 -238780,-7046503 -238815,-7046459 -238844,-7046419 -238927,-7046315 -238947,-7046280 -238965,-7046252 -238970,-7046242 -238972,-7046232 -238975,-7046211 -238975,-7046194 -238975,-7046188 -238970,-7046175 -238971,-7046170 -238973,-7046164 -238981,-7046156 -238996,-7046151 -239008,-7046147 -239016,-7046138 -239053,-7046091 -239091,-7046062 -239115,-7046053 -239126,-7046048 -239139,-7046038 -239150,-7046033 -239150,-7046019 -239178,-7045983 -239185,-7045971 -239189,-7045964 -239198,-7045946 -239220,-7045884 -239230,-7045869 -239236,-7045868 -239251,-7045869 -239259,-7045870 -239280,-7045877 -239286,-7045878 -239295,-7045871 -239306,-7045850 -239311,-7045844 -239336,-7045825 -239337,-7045820 -239338,-7045815 -239330,-7045800 -239321,-7045787 -239320,-7045781 -239319,-7045775 -239320,-7045766 -239323,-7045748 -239326,-7045738 -239366,-7045669 -239381,-7045627 -239404,-7045591 -239408,-7045583 -239414,-7045562 -239419,-7045523 -239435,-7045455 -239451,-7045414 -239455,-7045384 -239460,-7045302 -239463,-7045286 -239467,-7045275 -239471,-7045203 -239476,-7045179 -239476,-7045146 -239478,-7045104 -239478,-7045072 -239481,-7045049 -239483,-7045009 -239476,-7044991 -239474,-7044968 -239479,-7044942 -239480,-7044922 -239479,-7044900 -239480,-7044887 -239485,-7044852 -239484,-7044819 -239489,-7044773 -239494,-7044754 -239505,-7044724 -239512,-7044712 -239517,-7044708 -239525,-7044705 -239528,-7044699 -239532,-7044690 -239533,-7044685 -239529,-7044672 -239528,-7044625 -239527,-7044614 -239520,-7044600 -239517,-7044593 -239502,-7044555 -239496,-7044535 -239494,-7044527 -239493,-7044510 -239493,-7044504 -239500,-7044489 -239516,-7044474 -239545,-7044479 -239551,-7044474 -239555,-7044463 -239549,-7044455 -239542,-7044448 -239538,-7044428 -239538,-7044419 -239546,-7044399 -239539,-7044384 -239541,-7044381 -239569,-7044383 -239570,-7044370 -239562,-7044355 -239552,-7044341 -239555,-7044330 -239558,-7044320 -239560,-7044303 -239565,-7044274 -239551,-7044249 -239552,-7044246 -239562,-7044229 -239568,-7044219 -239582,-7044201 -239588,-7044195 -239602,-7044184 -239613,-7044168 -239622,-7044135 -239620,-7044113 -239609,-7044102 -239607,-7044085 -239604,-7044056 -239604,-7044045 -239614,-7044027 -239619,-7044004 -239627,-7044000 -239666,-7043970 -239715,-7043943 -239728,-7043926 -239735,-7043910 -239741,-7043889 -239743,-7043886 -239749,-7043878 -239754,-7043875 -239759,-7043871 -239764,-7043869 -239769,-7043866 -239775,-7043865 -239778,-7043864 -239784,-7043863 -239789,-7043862 -239795,-7043862 -239800,-7043862 -239806,-7043863 -239807,-7043863 -239813,-7043865 -239818,-7043866 -239824,-7043869 -239829,-7043871 -239833,-7043873 -239845,-7043879 -239853,-7043883 -239874,-7043886 -239898,-7043889 -239920,-7043892 -239931,-7043923 -239948,-7043924 -239995,-7043911 -240000,-7043920 -240007,-7043958 -240031,-7043964 -240056,-7043973 -240109,-7043980 -240108,-7043991 -240091,-7044008 -240092,-7044013 -240098,-7044021 -240102,-7044025 -240106,-7044027 -240130,-7044033 -240166,-7044058 -240179,-7044064 -240193,-7044065 -240216,-7044056 -240228,-7044055 -240242,-7044060 -240243,-7044060 -240253,-7044069 -240258,-7044071 -240270,-7044074 -240276,-7044075 -240282,-7044072 -240289,-7044068 -240309,-7044036 -240315,-7044028 -240340,-7044010 -240348,-7044003 -240364,-7043986 -240378,-7043970 -240395,-7043945 -240401,-7043938 -240411,-7043929 -240417,-7043926 -240434,-7043920 -240436,-7043920 -240441,-7043920 -240442,-7043920 -240452,-7043919 -240453,-7043918 -240463,-7043916 -240466,-7043915 -240469,-7043914 -240471,-7043913 -240474,-7043911 -240476,-7043909 -240477,-7043909 -240479,-7043906 -240481,-7043903 -240482,-7043899 -240483,-7043895 -240483,-7043891 -240483,-7043887 -240483,-7043884 -240482,-7043881 -240481,-7043878 -240479,-7043875 -240477,-7043873 -240474,-7043871 -240471,-7043869 -240471,-7043869 -240468,-7043867 -240465,-7043865 -240463,-7043863 -240461,-7043861 -240459,-7043858 -240458,-7043855 -240457,-7043852 -240457,-7043851 -240458,-7043849 -240458,-7043847 -240458,-7043845 -240459,-7043842 -240459,-7043840 -240460,-7043838 -240462,-7043837 -240465,-7043835 -240468,-7043834 -240471,-7043833 -240474,-7043833 -240479,-7043833 -240486,-7043836 -240493,-7043840 -240500,-7043845 -240501,-7043845 -240503,-7043847 -240506,-7043849 -240509,-7043851 -240512,-7043853 -240512,-7043853 -240514,-7043853 -240516,-7043854 -240519,-7043854 -240522,-7043855 -240525,-7043855 -240528,-7043854 -240531,-7043853 -240534,-7043852 -240537,-7043851 -240540,-7043849 -240542,-7043848 -240544,-7043846 -240545,-7043844 -240547,-7043842 -240548,-7043840 -240549,-7043838 -240549,-7043835 -240549,-7043832 -240548,-7043828 -240547,-7043825 -240547,-7043824 -240546,-7043821 -240544,-7043818 -240532,-7043804 -240524,-7043795 -240523,-7043794 -240521,-7043793 -240519,-7043792 -240517,-7043790 -240515,-7043788 -240514,-7043786 -240513,-7043786 -240513,-7043785 -240512,-7043783 -240512,-7043782 -240512,-7043781 -240512,-7043779 -240514,-7043777 -240517,-7043775 -240519,-7043774 -240522,-7043773 -240596,-7043780 -240600,-7043790 -240599,-7043811 -240598,-7043819 -240598,-7043829 -240592,-7043859 -240592,-7043860 -240590,-7043864 -240588,-7043868 -240587,-7043872 -240587,-7043873 -240587,-7043874 -240586,-7043876 -240586,-7043878 -240586,-7043879 -240586,-7043880 -240587,-7043882 -240588,-7043883 -240592,-7043884 -240596,-7043884 -240598,-7043884 -240602,-7043884 -240606,-7043884 -240624,-7043882 -240634,-7043883 -240637,-7043882 -240640,-7043882 -240643,-7043882 -240646,-7043881 -240649,-7043881 -240652,-7043882 -240654,-7043882 -240658,-7043884 -240661,-7043887 -240663,-7043887 -240665,-7043889 -240667,-7043891 -240668,-7043892 -240671,-7043893 -240674,-7043893 -240678,-7043894 -240681,-7043894 -240684,-7043893 -240687,-7043893 -240702,-7043886 -240721,-7043885 -240742,-7043894 -240793,-7043913 -240794,-7043916 -240796,-7043918 -240798,-7043920 -240800,-7043922 -240803,-7043924 -240805,-7043925 -240806,-7043926 -240808,-7043926 -240810,-7043927 -240811,-7043927 -240813,-7043927 -240815,-7043926 -240818,-7043924 -240820,-7043921 -240821,-7043918 -240822,-7043916 -240824,-7043913 -240824,-7043910 -240825,-7043888 -240825,-7043888 -240825,-7043884 -240825,-7043882 -240826,-7043879 -240827,-7043876 -240828,-7043875 -240829,-7043873 -240830,-7043872 -240831,-7043870 -240832,-7043869 -240834,-7043869 -240836,-7043868 -240837,-7043869 -240839,-7043869 -240841,-7043871 -240843,-7043872 -240844,-7043873 -240845,-7043875 -240846,-7043877 -240847,-7043879 -240847,-7043881 -240847,-7043883 -240847,-7043885 -240846,-7043887 -240845,-7043888 -240852,-7043908 -240863,-7043943 -240867,-7043953 -240886,-7043973 -240895,-7043988 -240901,-7044004 -240910,-7044020 -240924,-7044031 -240945,-7044034 -240974,-7044053 -240999,-7044068 -241053,-7044081 -241055,-7044081 -241062,-7044083 -241069,-7044085 -241075,-7044088 -241082,-7044092 -241088,-7044095 -241094,-7044099 -241099,-7044104 -241105,-7044109 -241107,-7044111 -241109,-7044113 -241112,-7044115 -241114,-7044118 -241116,-7044120 -241118,-7044123 -241119,-7044125 -241120,-7044128 -241120,-7044135 -241118,-7044146 -241118,-7044146 -241118,-7044157 -241117,-7044162 -241117,-7044169 -241118,-7044177 -241118,-7044181 -241118,-7044184 -241118,-7044188 -241119,-7044192 -241120,-7044196 -241121,-7044199 -241123,-7044202 -241123,-7044203 -241125,-7044206 -241127,-7044209 -241130,-7044211 -241133,-7044213 -241136,-7044215 -241139,-7044217 -241144,-7044218 -241149,-7044218 -241154,-7044218 -241159,-7044218 -241164,-7044217 -241167,-7044216 -241172,-7044215 -241177,-7044213 -241181,-7044211 -241186,-7044208 -241190,-7044205 -241201,-7044200 -241212,-7044195 -241215,-7044194 -241218,-7044192 -241221,-7044189 -241224,-7044187 -241228,-7044185 -241231,-7044183 -241235,-7044182 -241237,-7044182 -241240,-7044182 -241243,-7044181 -241246,-7044182 -241249,-7044182 -241252,-7044183 -241255,-7044184 -241258,-7044185 -241260,-7044187 -241262,-7044190 -241264,-7044193 -241266,-7044197 -241267,-7044201 -241268,-7044205 -241268,-7044209 -241268,-7044210 -241269,-7044214 -241268,-7044218 -241268,-7044222 -241267,-7044226 -241265,-7044230 -241263,-7044233 -241264,-7044239 -241264,-7044248 -241264,-7044248 -241264,-7044251 -241263,-7044253 -241263,-7044256 -241263,-7044258 -241264,-7044260 -241266,-7044263 -241268,-7044266 -241271,-7044268 -241273,-7044270 -241277,-7044272 -241282,-7044274 -241287,-7044276 -241293,-7044277 -241301,-7044277 -241309,-7044277 -241332,-7044284 -241354,-7044290 -241375,-7044307 -241416,-7044345 -241418,-7044347 -241424,-7044354 -241429,-7044361 -241435,-7044369 -241437,-7044372 -241439,-7044375 -241441,-7044378 -241443,-7044382 -241444,-7044386 -241445,-7044402 -241447,-7044432 -241447,-7044435 -241447,-7044440 -241448,-7044446 -241448,-7044452 -241449,-7044456 -241451,-7044462 -241454,-7044468 -241457,-7044475 -241458,-7044477 -241459,-7044480 -241460,-7044483 -241462,-7044485 -241463,-7044488 -241464,-7044490 -241466,-7044492 -241468,-7044494 -241470,-7044496 -241472,-7044497 -241473,-7044497 -241476,-7044498 -241478,-7044498 -241480,-7044498 -241483,-7044498 -241485,-7044497 -241485,-7044497 -241488,-7044495 -241490,-7044492 -241492,-7044490 -241494,-7044487 -241494,-7044486 -241496,-7044483 -241497,-7044480 -241498,-7044476 -241498,-7044473 -241498,-7044471 -241499,-7044467 -241500,-7044463 -241501,-7044459 -241503,-7044455 -241504,-7044453 -241507,-7044449 -241509,-7044446 -241513,-7044443 -241518,-7044440 -241522,-7044437 -241522,-7044437 -241525,-7044435 -241527,-7044432 -241529,-7044430 -241531,-7044427 -241532,-7044424 -241532,-7044421 -241533,-7044417 -241533,-7044414 -241534,-7044411 -241534,-7044411 -241536,-7044409 -241537,-7044407 -241538,-7044405 -241540,-7044404 -241540,-7044403 -241542,-7044402 -241544,-7044402 -241546,-7044401 -241547,-7044401 -241549,-7044401 -241552,-7044402 -241554,-7044404 -241556,-7044407 -241558,-7044410 -241559,-7044411 -241560,-7044415 -241561,-7044420 -241562,-7044425 -241562,-7044430 -241561,-7044435 -241561,-7044438 -241560,-7044442 -241559,-7044447 -241557,-7044451 -241555,-7044455 -241553,-7044459 -241550,-7044463 -241549,-7044465 -241546,-7044469 -241543,-7044474 -241543,-7044475 -241541,-7044478 -241540,-7044481 -241539,-7044484 -241539,-7044487 -241538,-7044488 -241538,-7044492 -241539,-7044494 -241539,-7044497 -241540,-7044500 -241541,-7044502 -241543,-7044505 -241545,-7044507 -241547,-7044509 -241550,-7044511 -241553,-7044512 -241555,-7044513 -241558,-7044514 -241559,-7044514 -241562,-7044514 -241565,-7044514 -241568,-7044513 -241571,-7044512 -241574,-7044511 -241574,-7044511 -241577,-7044509 -241580,-7044508 -241583,-7044507 -241584,-7044507 -241586,-7044506 -241587,-7044506 -241589,-7044505 -241590,-7044505 -241592,-7044506 -241593,-7044506 -241595,-7044508 -241596,-7044511 -241597,-7044514 -241597,-7044516 -241597,-7044519 -241597,-7044521 -241597,-7044524 -241596,-7044545 -241597,-7044559 -241598,-7044574 -241598,-7044576 -241598,-7044585 -241599,-7044589 -241600,-7044594 -241601,-7044598 -241603,-7044602 -241604,-7044605 -241605,-7044607 -241606,-7044609 -241608,-7044611 -241610,-7044612 -241610,-7044613 -241613,-7044614 -241616,-7044614 -241619,-7044614 -241623,-7044614 -241626,-7044613 -241629,-7044612 -241629,-7044612 -241632,-7044611 -241635,-7044609 -241638,-7044606 -241640,-7044604 -241642,-7044601 -241644,-7044597 -241645,-7044596 -241646,-7044593 -241647,-7044589 -241648,-7044586 -241649,-7044574 -241656,-7044559 -241668,-7044537 -241669,-7044522 -241670,-7044520 -241670,-7044517 -241672,-7044513 -241673,-7044510 -241674,-7044509 -241676,-7044506 -241678,-7044504 -241680,-7044502 -241682,-7044500 -241685,-7044498 -241688,-7044497 -241689,-7044497 -241692,-7044496 -241694,-7044495 -241697,-7044495 -241699,-7044495 -241702,-7044496 -241704,-7044497 -241706,-7044498 -241708,-7044499 -241710,-7044501 -241711,-7044503 -241713,-7044505 -241739,-7044524 -241772,-7044518 -241776,-7044519 -241781,-7044519 -241785,-7044519 -241790,-7044518 -241794,-7044517 -241798,-7044515 -241803,-7044513 -241807,-7044511 -241810,-7044508 -241811,-7044508 -241813,-7044507 -241814,-7044506 -241816,-7044504 -241817,-7044503 -241818,-7044501 -241819,-7044500 -241819,-7044496 -241818,-7044493 -241818,-7044490 -241817,-7044487 -241816,-7044484 -241814,-7044481 -241812,-7044478 -241810,-7044476 -241807,-7044473 -241805,-7044471 -241805,-7044470 -241804,-7044468 -241802,-7044466 -241801,-7044465 -241801,-7044463 -241800,-7044462 -241800,-7044460 -241800,-7044458 -241800,-7044457 -241802,-7044455 -241804,-7044453 -241806,-7044452 -241809,-7044451 -241813,-7044450 -241818,-7044451 -241824,-7044453 -241830,-7044455 -241830,-7044455 -241833,-7044456 -241836,-7044457 -241839,-7044459 -241842,-7044460 -241844,-7044462 -241847,-7044464 -241847,-7044464 -241849,-7044467 -241851,-7044470 -241852,-7044472 -241853,-7044476 -241853,-7044476 -241854,-7044479 -241856,-7044481 -241858,-7044484 -241860,-7044486 -241862,-7044488 -241864,-7044489 -241867,-7044490 -241870,-7044492 -241874,-7044492 -241875,-7044493 -241878,-7044493 -241881,-7044493 -241884,-7044493 -241887,-7044492 -241888,-7044492 -241891,-7044491 -241893,-7044489 -241896,-7044488 -241898,-7044486 -241899,-7044485 -241901,-7044482 -241903,-7044480 -241906,-7044479 -241909,-7044477 -241912,-7044476 -241914,-7044476 -241917,-7044475 -241920,-7044475 -241924,-7044476 -241926,-7044476 -241927,-7044477 -241929,-7044478 -241929,-7044478 -241931,-7044481 -241931,-7044484 -241932,-7044487 -241932,-7044488 -241932,-7044491 -241932,-7044494 -241931,-7044497 -241931,-7044501 -241931,-7044506 -241931,-7044512 -241931,-7044512 -241932,-7044514 -241932,-7044516 -241932,-7044518 -241933,-7044520 -241933,-7044521 -241936,-7044523 -241939,-7044525 -241942,-7044526 -241944,-7044526 -241947,-7044527 -241950,-7044528 -241953,-7044528 -241955,-7044528 -241964,-7044530 -241978,-7044533 -241981,-7044533 -241985,-7044534 -241990,-7044535 -241992,-7044536 -241994,-7044536 -241995,-7044536 -241997,-7044535 -241998,-7044535 -242000,-7044533 -242001,-7044532 -242003,-7044530 -242004,-7044522 -242005,-7044517 -242007,-7044510 -242008,-7044505 -242010,-7044500 -242012,-7044498 -242014,-7044494 -242016,-7044491 -242017,-7044489 -242019,-7044486 -242021,-7044485 -242023,-7044483 -242025,-7044482 -242027,-7044481 -242032,-7044480 -242034,-7044480 -242036,-7044479 -242039,-7044479 -242045,-7044481 -242049,-7044482 -242064,-7044492 -242069,-7044495 -242097,-7044516 -242104,-7044518 -242105,-7044519 -242107,-7044520 -242109,-7044521 -242111,-7044521 -242113,-7044521 -242116,-7044519 -242120,-7044517 -242123,-7044514 -242126,-7044512 -242128,-7044509 -242130,-7044505 -242132,-7044502 -242133,-7044498 -242135,-7044495 -242138,-7044492 -242140,-7044489 -242143,-7044486 -242147,-7044483 -242149,-7044482 -242151,-7044481 -242152,-7044480 -242154,-7044480 -242156,-7044479 -242158,-7044479 -242159,-7044480 -242161,-7044480 -242163,-7044481 -242164,-7044482 -242166,-7044484 -242167,-7044485 -242167,-7044487 -242169,-7044488 -242172,-7044489 -242174,-7044491 -242175,-7044492 -242177,-7044495 -242179,-7044496 -242180,-7044496 -242182,-7044497 -242184,-7044496 -242187,-7044496 -242189,-7044495 -242190,-7044495 -242192,-7044494 -242195,-7044492 -242196,-7044490 -242217,-7044482 -242219,-7044479 -242222,-7044477 -242225,-7044476 -242225,-7044475 -242228,-7044474 -242230,-7044473 -242233,-7044472 -242236,-7044472 -242239,-7044472 -242241,-7044472 -242244,-7044473 -242247,-7044474 -242247,-7044474 -242250,-7044476 -242252,-7044477 -242254,-7044479 -242273,-7044493 -242282,-7044498 -242312,-7044493 -242314,-7044492 -242332,-7044483 -242333,-7044482 -242336,-7044481 -242338,-7044479 -242340,-7044478 -242343,-7044478 -242346,-7044478 -242349,-7044479 -242353,-7044480 -242354,-7044481 -242357,-7044483 -242360,-7044484 -242363,-7044487 -242365,-7044489 -242367,-7044492 -242369,-7044495 -242370,-7044498 -242371,-7044499 -242374,-7044502 -242378,-7044505 -242382,-7044508 -242385,-7044510 -242389,-7044512 -242390,-7044513 -242392,-7044513 -242394,-7044514 -242395,-7044515 -242397,-7044515 -242400,-7044514 -242403,-7044513 -242405,-7044512 -242407,-7044510 -242441,-7044475 -242460,-7044492 -242466,-7044499 -242485,-7044506 -242492,-7044508 -242506,-7044508 -242517,-7044502 -242533,-7044489 -242542,-7044479 -242559,-7044450 -242565,-7044431 -242572,-7044423 -242584,-7044416 -242594,-7044404 -242599,-7044395 -242601,-7044387 -242601,-7044382 -242589,-7044357 -242590,-7044346 -242596,-7044336 -242602,-7044332 -242619,-7044325 -242640,-7044324 -242646,-7044326 -242650,-7044329 -242652,-7044332 -242653,-7044335 -242653,-7044340 -242652,-7044346 -242642,-7044383 -242641,-7044402 -242652,-7044438 -242668,-7044463 -242674,-7044471 -242692,-7044483 -242784,-7044524 -242803,-7044535 -242818,-7044548 -242825,-7044576 -242831,-7044583 -242840,-7044588 -242850,-7044589 -242870,-7044578 -242872,-7044575 -242873,-7044568 -242872,-7044565 -242861,-7044545 -242858,-7044539 -242862,-7044530 -242869,-7044525 -242879,-7044525 -242893,-7044527 -242898,-7044531 -242903,-7044536 -242906,-7044548 -242897,-7044580 -242917,-7044600 -242937,-7044618 -242956,-7044608 -242962,-7044606 -242972,-7044604 -242976,-7044605 -242979,-7044607 -243012,-7044638 -243013,-7044644 -243011,-7044652 -243009,-7044655 -243006,-7044657 -243002,-7044658 -242988,-7044659 -242976,-7044666 -242974,-7044673 -242977,-7044681 -242979,-7044684 -242988,-7044691 -242995,-7044695 -243023,-7044704 -243026,-7044707 -243028,-7044710 -243028,-7044714 -243025,-7044722 -243022,-7044727 -243009,-7044734 -243016,-7044740 -243081,-7044768 -243102,-7044780 -243111,-7044780 -243117,-7044776 -243123,-7044763 -243120,-7044733 -243121,-7044717 -243126,-7044708 -243137,-7044706 -243143,-7044717 -243148,-7044733 -243150,-7044790 -243151,-7044800 -243158,-7044804 -243168,-7044803 -243180,-7044797 -243190,-7044789 -243203,-7044780 -243219,-7044775 -243232,-7044777 -243246,-7044795 -243281,-7044828 -243324,-7044879 -243366,-7044935 -243374,-7044945 -243404,-7044974 -243451,-7045011 -243476,-7045030 -243495,-7045037 -243498,-7045038 -243513,-7045042 -243516,-7045043 -243524,-7045046 -243525,-7045047 -243528,-7045047 -243530,-7045048 -243532,-7045049 -243533,-7045050 -243534,-7045052 -243536,-7045054 -243537,-7045056 -243559,-7045086 -243557,-7045125 -243582,-7045148 -243595,-7045156 -243605,-7045185 -243615,-7045215 -243623,-7045223 -243690,-7045255 -243705,-7045299 -243703,-7045300 -243700,-7045303 -243697,-7045306 -243695,-7045310 -243693,-7045313 -243693,-7045313 -243692,-7045315 -243691,-7045317 -243690,-7045319 -243690,-7045320 -243690,-7045323 -243691,-7045327 -243692,-7045328 -243693,-7045331 -243702,-7045351 -243713,-7045383 -243727,-7045429 -243747,-7045480 -243776,-7045542 -243789,-7045575 -243789,-7045575 -243797,-7045596 -243819,-7045646 -243823,-7045654 -243825,-7045660 -243826,-7045664 -243829,-7045673 -243830,-7045673 -243832,-7045679 -243837,-7045688 -243838,-7045689 -243839,-7045692 -243842,-7045695 -243844,-7045698 -243847,-7045701 -243851,-7045702 -243854,-7045703 -243858,-7045704 -243866,-7045704 -243873,-7045703 -243874,-7045702 -243879,-7045701 -243883,-7045700 -243887,-7045698 -243891,-7045696 -243896,-7045695 -243900,-7045694 -243905,-7045694 -243907,-7045694 -243911,-7045695 -243915,-7045696 -243919,-7045697 -243923,-7045699 -243927,-7045701 -243932,-7045706 -243937,-7045711 -243942,-7045716 -243947,-7045725 -243953,-7045735 -243958,-7045745 -243960,-7045748 -243965,-7045755 -243971,-7045762 -243976,-7045769 -243982,-7045775 -243988,-7045781 -243991,-7045783 -244000,-7045790 -244011,-7045796 -244022,-7045801 -244033,-7045805 -244044,-7045809 -244077,-7045817 -244113,-7045822 -244114,-7045822 -244117,-7045823 -244121,-7045823 -244124,-7045824 -244125,-7045824 -244129,-7045826 -244132,-7045828 -244134,-7045830 -244137,-7045832 -244139,-7045835 -244142,-7045838 -244158,-7045851 -244190,-7045870 -244253,-7045886 -244239,-7045897 -244240,-7045935 -244182,-7045932 -244138,-7046022 -244102,-7046109 -244085,-7046155 -244090,-7046163 -244075,-7046195 -244095,-7046206 -244106,-7046235 -244115,-7046241 -244114,-7046261 -244110,-7046280 -244100,-7046301 -244090,-7046330 -244073,-7046345 -244068,-7046350 -244059,-7046366 -244042,-7046386 -244029,-7046407 -243994,-7046440 -243971,-7046455 -243958,-7046463 -243937,-7046473 -243920,-7046479 -243896,-7046486 -243893,-7046489 -243889,-7046492 -243878,-7046514 -243875,-7046528 -243874,-7046532 -243871,-7046534 -243866,-7046536 -243842,-7046543 -243821,-7046559 -243808,-7046558 -243798,-7046559 -243719,-7046571 -243635,-7046576 -243608,-7046576 -243579,-7046581 -243541,-7046578 -243532,-7046578 -243511,-7046586 -243452,-7046615 -243432,-7046632 -243408,-7046636 -243354,-7046626 -243329,-7046643 -243303,-7046652 -243268,-7046661 -243231,-7046670 -243158,-7046685 -243093,-7046700 -243018,-7046723 -242982,-7046721 -242968,-7046731 -242947,-7046751 -242925,-7046763 -242898,-7046779 -242873,-7046800 -242829,-7046849 -242785,-7046892 -242828,-7046922 -242835,-7046921 -242857,-7046978 -242864,-7046979 -242875,-7047003 -242868,-7047010 -242887,-7047038 -242900,-7047049 -242909,-7047052 -242924,-7047054 -242941,-7047051 -242952,-7047065 -242970,-7047096 -242983,-7047093 -242998,-7047129 -243009,-7047160 -243044,-7047204 -243098,-7047269 -243125,-7047304 -243191,-7047390 -243204,-7047417 -243214,-7047441 -243266,-7047433 -243278,-7047466 -243269,-7047480 -243334,-7047547 -243568,-7047767 -243484,-7047969 -243428,-7048092 -243390,-7048198 -243380,-7048219 -243358,-7048252 -243331,-7048297 -243312,-7048334 -243287,-7048377 -243282,-7048407 -243281,-7048421 -243283,-7048467 -243279,-7048483 -243282,-7048498 -243297,-7048495 -243325,-7048490 -243387,-7048485 -243487,-7048482 -243519,-7048485 -243536,-7048487 -243572,-7048494 -243642,-7048513 -243687,-7048523 -243737,-7048539 -243845,-7048587 -243850,-7048606 -243860,-7048609 -243884,-7048619 -243915,-7048638 -243938,-7048665 -243954,-7048677 -243971,-7048682 -244008,-7048685 -244028,-7048706 -244047,-7048730 -244057,-7048741 -244076,-7048759 -244116,-7048772 -244154,-7048782 -244218,-7048794 -244271,-7048809 -244378,-7048847 -244410,-7048854 -244464,-7048864 -244513,-7048876 -244567,-7048893 -244697,-7048922 -244786,-7048944 -244820,-7048952 -244881,-7048958 -244951,-7048974 -245095,-7049012 -245111,-7049014 -245118,-7048899 -245222,-7048907 -245457,-7048916 -245530,-7048911 -245628,-7048919 -245825,-7048934 -245830,-7048934 -245838,-7048935 -245845,-7048936 -245843,-7048941 -245767,-7049173 -245727,-7049270 -246089,-7049361 -246091,-7049361 -246521,-7049255 -246522,-7049308 -246535,-7049435 -246531,-7049482 -246545,-7049501 -246600,-7049503 -246708,-7049519 -246710,-7049588 -246707,-7049622 -246699,-7049656 -246753,-7049653 -246850,-7049623 -246869,-7049617 -246909,-7049608 -246958,-7049599 -247062,-7049587 -247079,-7049586 -247107,-7049639 -247156,-7049726 -247163,-7049761 -247232,-7049780 -247278,-7049795 -247357,-7049815 -247376,-7049826 -247411,-7049824 -247468,-7049830 -247512,-7049827 -247545,-7049826 -247595,-7049825 -247612,-7049795 -247626,-7049779 -247640,-7049760 -247644,-7049752 -247688,-7049772 -247718,-7049772 -247731,-7049769 -247771,-7049771 -247823,-7049764 -247891,-7049759 -247950,-7049755 -248010,-7049753 -248058,-7049749 -248104,-7049747 -248143,-7049740 -248240,-7049730 -248265,-7049726 -248347,-7049702 -248443,-7049671 -248558,-7049637 -248574,-7049643 -248581,-7049670 -248580,-7049711 -248574,-7049773 -248555,-7049918 -248645,-7049894 -248765,-7049832 -248803,-7049819 -248854,-7049795 -248888,-7049785 -248894,-7049784 -248962,-7049768 -248969,-7049766 -248979,-7049763 -249040,-7049745 -249087,-7049728 -249132,-7049723 -249173,-7049716 -249209,-7049717 -249247,-7049717 -249304,-7049724 -249353,-7049741 -249440,-7049787 -249443,-7049788 -249426,-7049852 -249412,-7049911 -249396,-7049988 -249379,-7050082 -249341,-7050224 -249347,-7050249 -249335,-7050254 -249301,-7050410 -249254,-7050620 -249223,-7050755 -249195,-7050873 -249180,-7050946 -249159,-7050979 -249161,-7051042 -249144,-7051104 -249105,-7051261 -249102,-7051305 -249086,-7051495 -249078,-7051535 -249070,-7051556 -249051,-7051632 -249014,-7051770 -249074,-7051807 -249104,-7051821 -249208,-7051870 -249208,-7051881 -249208,-7051882 -249205,-7051891 -249195,-7051924 -249200,-7051984 -249205,-7051991 -249208,-7052023 -249226,-7052074 -249228,-7052089 -249241,-7052117 -249245,-7052131 -249253,-7052133 -249271,-7052154 -249314,-7052179 -249335,-7052189 -249354,-7052190 -249364,-7052197 -249371,-7052199 -249383,-7052211 -249408,-7052235 -249409,-7052249 -249411,-7052255 -249410,-7052261 -249383,-7052270 -249367,-7052279 -249349,-7052280 -249343,-7052301 -249352,-7052328 -249357,-7052353 -249359,-7052378 -249373,-7052426 -249376,-7052449 -249385,-7052484 -249395,-7052497 -249400,-7052510 -249415,-7052520 -249474,-7052587 -249494,-7052611 -249518,-7052641 -249514,-7052661 -249522,-7052719 -249527,-7052749 -249531,-7052757 -249536,-7052764 -249542,-7052779 -249544,-7052798 -249540,-7052817 -249534,-7052823 -249533,-7052831 -249526,-7052841 -249513,-7052847 -249504,-7052866 -249502,-7052871 -249506,-7052878 -249508,-7052891 -249506,-7052900 -249517,-7052942 -249512,-7052955 -249513,-7052962 -249535,-7052971 -249551,-7052989 -249560,-7053006 -249558,-7053012 -249561,-7053027 -249549,-7053044 -249550,-7053053 -249567,-7053089 -249568,-7053100 -249558,-7053116 -249565,-7053137 -249560,-7053149 -249580,-7053176 -249580,-7053200 -249590,-7053220 -249587,-7053224 -249584,-7053259 -249552,-7053292 -249542,-7053310 -249515,-7053359 -249508,-7053363 -249497,-7053379 -249498,-7053390 -249505,-7053402 -249503,-7053409 -249495,-7053420 -249498,-7053429 -249488,-7053441 -249484,-7053456 -249483,-7053471 -249501,-7053469 -249494,-7053484 -249495,-7053494 -249490,-7053512 -249494,-7053541 -249487,-7053545 -249483,-7053548 -249483,-7053549 -249483,-7053555 -249492,-7053562 -249493,-7053581 -249504,-7053588 -249505,-7053597 -249498,-7053607 -249505,-7053618 -249489,-7053634 -249489,-7053642 -249481,-7053651 -249471,-7053674 -249461,-7053684 -249458,-7053710 -249468,-7053727 -249478,-7053751 -249495,-7053773 -249490,-7053792 -249489,-7053815 -249495,-7053823 -249508,-7053825 -249519,-7053839 -249530,-7053848 -249529,-7053860 -249537,-7053863 -249551,-7053865 -249557,-7053876 -249559,-7053891 -249566,-7053895 -249565,-7053911 -249567,-7053915 -249584,-7053914 -249589,-7053919 -249579,-7053930 -249578,-7053949 -249580,-7053959 -249572,-7053974 -249586,-7053978 -249591,-7053988 -249596,-7053992 -249617,-7053988 -249633,-7053991 -249647,-7054003 -249655,-7054004 -249668,-7054017 -249676,-7054022 -249676,-7054027 -249662,-7054041 -249649,-7054059 -249645,-7054067 -249645,-7054075 -249661,-7054085 -249676,-7054100 -249679,-7054120 -249689,-7054139 -249697,-7054163 -249697,-7054179 -249688,-7054194 -249686,-7054238 -249682,-7054254 -249675,-7054273 -249661,-7054318 -249650,-7054333 -249627,-7054344 -249627,-7054362 -249630,-7054369 -249635,-7054369 -249641,-7054363 -249658,-7054371 -249660,-7054384 -249674,-7054399 -249674,-7054420 -249668,-7054429 -249668,-7054441 -249673,-7054449 -249671,-7054464 -249685,-7054478 -249687,-7054525 -249676,-7054540 -249673,-7054544 -249655,-7054570 -249649,-7054593 -249645,-7054608 -249636,-7054642 -249626,-7054656 -249635,-7054674 -249641,-7054695 -249641,-7054753 -249640,-7054820 -249645,-7054915 -249647,-7055003 -249647,-7055034 -249778,-7055034 -249925,-7055047 -250048,-7055060 -250041,-7055129 -250022,-7055244 -249985,-7055452 -249994,-7055474 -249993,-7055510 -249791,-7055540 -249852,-7055715 -249904,-7055717 -249949,-7055714 -249994,-7055724 -250026,-7055723 -250021,-7055846 -250019,-7055909 -250011,-7056157 -250021,-7056178 -249947,-7056210 -249899,-7056231 -249846,-7056227 -249914,-7056350 -249931,-7056377 -249944,-7056396 -249955,-7056409 -249996,-7056467 -250046,-7056526 -250115,-7056596 -250029,-7056652 -249933,-7056715 -249770,-7056826 -249698,-7056872 -249699,-7056876 -249638,-7056917 -249648,-7056955 -249646,-7056976 -249643,-7056992 -249638,-7057021 -249634,-7057054 -249632,-7057068 -249622,-7057104 -249622,-7057110 -249626,-7057130 -249625,-7057135 -249625,-7057146 -249625,-7057166 -249630,-7057192 -249638,-7057234 -249632,-7057235 -249589,-7057240 -249559,-7057248 -249522,-7057259 -249462,-7057277 -249449,-7057282 -249423,-7057293 -249375,-7057322 -249335,-7057351 -249273,-7057402 -249238,-7057434 -249205,-7057460 -249148,-7057485 -249112,-7057498 -249042,-7057517 -248991,-7057524 -248931,-7057529 -248925,-7057530 -248894,-7057530 -248813,-7057527 -248750,-7057522 -248666,-7057510 -248535,-7057495 -248464,-7057492 -248363,-7057491 -248241,-7057488 -248223,-7057488 -248156,-7057489 -248092,-7057494 -248061,-7057493 -248017,-7057491 -247988,-7057492 -247947,-7057506 -247895,-7057524 -247872,-7057532 -247853,-7057541 -247835,-7057547 -247818,-7057553 -247774,-7057569 -247743,-7057574 -247703,-7057585 -247673,-7057590 -247589,-7057583 -247564,-7057581 -247526,-7057576 -247479,-7057563 -247429,-7057550 -247415,-7057555 -247402,-7057566 -247390,-7057578 -247380,-7057587 -247369,-7057599 -247354,-7057621 -247340,-7057638 -247302,-7057675 -247283,-7057691 -247274,-7057699 -247243,-7057721 -247215,-7057738 -247169,-7057770 -247143,-7057800 -247127,-7057819 -247116,-7057846 -247110,-7057859 -247106,-7057872 -247103,-7057883 -247086,-7057941 -247079,-7057977 -247071,-7058006 -247056,-7058056 -247054,-7058073 -247051,-7058108 -247054,-7058118 -247060,-7058139 -247071,-7058159 -247072,-7058245 -247073,-7058259 -247068,-7058280 -247054,-7058294 -247041,-7058305 -247004,-7058327 -246954,-7058347 -246929,-7058358 -246894,-7058369 -246754,-7058416 -246668,-7058443 -246648,-7058450 -246531,-7058507 -246500,-7058527 -246444,-7058559 -246438,-7058564 -246338,-7058619 -246304,-7058633 -246307,-7058639 -246337,-7058696 -246388,-7058800 -246422,-7058869 -246478,-7058981 -246534,-7059097 -246569,-7059145 -246586,-7059208 -246607,-7059304 -246624,-7059349 -246625,-7059366 -246520,-7059395 -246529,-7059418 -246592,-7059441 -246618,-7059459 -246602,-7059466 -246584,-7059480 -246582,-7059536 -246572,-7059587 -246551,-7059679 -246533,-7059775 -246528,-7059805 -246524,-7059831 -246515,-7059924 -246508,-7059980 -246501,-7060029 -246497,-7060068 -246496,-7060071 -246485,-7060153 -246469,-7060262 -246460,-7060391 -246450,-7060482 -246442,-7060584 -246436,-7060628 -246424,-7060699 -246420,-7060740 -246420,-7060769 -246413,-7060769 -246404,-7060822 -246397,-7060864 -246355,-7060848 -246255,-7060805 -246256,-7060804 -246257,-7060802 -246166,-7060763 -245979,-7060683 -245978,-7060684 -245955,-7060735 -245920,-7060809 -245895,-7060824 -245883,-7060832 -245856,-7060900 -245846,-7060896 -245840,-7060910 -245699,-7060852 -245646,-7060878 -245625,-7060876 -245616,-7060923 -245584,-7061002 -245595,-7061087 -245664,-7061080 -245695,-7061078 -245759,-7061082 -245750,-7061092 -245737,-7061152 -245698,-7061151 -245645,-7061215 -245659,-7061244 -245518,-7061368 -245511,-7061384 -245521,-7061390 -245490,-7061433 -245487,-7061463 -245451,-7061509 -245403,-7061474 -245312,-7061556 -245244,-7061614 -245170,-7061679 -245132,-7061715 -245109,-7061744 -245059,-7061824 -245067,-7061828 -245034,-7061889 -245018,-7061882 -245008,-7061907 -244952,-7062021 -244902,-7062130 -244884,-7062179 -244874,-7062233 -244868,-7062262 -244860,-7062287 -244852,-7062321 -244831,-7062351 -244798,-7062383 -244707,-7062453 -244656,-7062493 -244622,-7062519 -244574,-7062571 -244557,-7062582 -244528,-7062580 -244500,-7062581 -244487,-7062575 -244479,-7062566 -244457,-7062568 -244412,-7062545 -244343,-7062526 -244288,-7062507 -244258,-7062501 -244226,-7062504 -244204,-7062500 -244187,-7062502 -244164,-7062510 -244159,-7062509 -244147,-7062498 -244139,-7062497 -244143,-7062511 -244144,-7062602 -244139,-7062638 -244137,-7062727 -244136,-7062742 -244132,-7062795 -244120,-7062864 -244101,-7062950 -244088,-7063027 -244079,-7063071 -244064,-7063165 -244052,-7063240 -244024,-7063374 -244007,-7063480 -243999,-7063520 -243980,-7063615 -243961,-7063727 -243940,-7063893 -243939,-7063900 -243937,-7063906 -243895,-7063895 -243784,-7063864 -243741,-7063853 -243708,-7063847 -243673,-7063845 -243645,-7063846 -243601,-7063851 -243551,-7063869 -243552,-7063872 -243470,-7063912 -243537,-7064045 -243585,-7064130 -243589,-7064127 -243600,-7064134 -243627,-7064178 -243586,-7064173 -243533,-7064167 -243513,-7064180 -243503,-7064181 -243489,-7064146 -243505,-7064133 -243507,-7064126 -243498,-7064112 -243480,-7064112 -243470,-7064100 -243450,-7064102 -243432,-7064098 -243423,-7064090 -243424,-7064075 -243432,-7064066 -243410,-7064057 -243380,-7064063 -243375,-7064075 -243350,-7064074 -243340,-7064078 -243323,-7064075 -243304,-7064074 -243293,-7064063 -243292,-7064057 -243306,-7064050 -243304,-7064041 -243296,-7064030 -243278,-7064020 -243263,-7064006 -243256,-7063994 -243246,-7063992 -243217,-7063997 -243208,-7064003 -243198,-7064001 -243178,-7063988 -243164,-7063985 -243143,-7063985 -243123,-7063922 -243111,-7063907 -243082,-7063912 -243047,-7063921 -243037,-7063920 -243031,-7063912 -243016,-7063887 -243010,-7063879 -242988,-7063876 -242960,-7063886 -242947,-7063880 -242936,-7063874 -242888,-7063891 -242868,-7063895 -242857,-7063889 -242860,-7063881 -242854,-7063877 -242829,-7063869 -242821,-7063858 -242809,-7063853 -242805,-7063846 -242811,-7063836 -242800,-7063825 -242797,-7063812 -242785,-7063811 -242761,-7063822 -242741,-7063822 -242724,-7063813 -242715,-7063831 -242699,-7063830 -242692,-7063823 -242689,-7063810 -242676,-7063802 -242664,-7063801 -242655,-7063796 -242655,-7063793 -242684,-7063759 -242686,-7063752 -242636,-7063726 -242628,-7063730 -242618,-7063740 -242598,-7063740 -242592,-7063735 -242594,-7063720 -242581,-7063710 -242579,-7063730 -242566,-7063735 -242558,-7063725 -242559,-7063717 -242563,-7063711 -242563,-7063695 -242570,-7063682 -242565,-7063679 -242553,-7063683 -242539,-7063682 -242528,-7063675 -242523,-7063668 -242497,-7063665 -242484,-7063653 -242468,-7063646 -242452,-7063632 -242431,-7063626 -242426,-7063616 -242420,-7063598 -242412,-7063583 -242393,-7063565 -242381,-7063549 -242359,-7063506 -242336,-7063510 -242328,-7063503 -242315,-7063499 -242283,-7063514 -242268,-7063540 -242272,-7063553 -242225,-7063636 -242221,-7063651 -242223,-7063670 -242229,-7063682 -242236,-7063695 -242213,-7063745 -242198,-7063729 -242180,-7063720 -242172,-7063719 -242152,-7063751 -242145,-7063794 -242143,-7063808 -242135,-7063847 -242120,-7063927 -242109,-7063981 -242107,-7064014 -242102,-7064075 -242095,-7064153 -242095,-7064235 -242086,-7064365 -242090,-7064420 -242089,-7064426 -242088,-7064436 -242082,-7064476 -242077,-7064508 -242074,-7064541 -242057,-7064635 -242047,-7064675 -242035,-7064749 -242030,-7064806 -242017,-7064910 -242018,-7064944 -242025,-7064989 -242032,-7065017 -242035,-7065085 -242034,-7065125 -242034,-7065144 -242031,-7065193 -242025,-7065244 -242016,-7065290 -242015,-7065334 -242016,-7065385 -242005,-7065493 -242007,-7065490 -242002,-7065526 -241975,-7065662 -241948,-7065769 -241940,-7065807 -241917,-7065864 -241904,-7065860 -241869,-7065953 -241847,-7066019 -241854,-7066022 -241825,-7066082 -241822,-7066081 -241806,-7066118 -241795,-7066135 -241781,-7066161 -241781,-7066178 -241787,-7066178 -241793,-7066182 -241810,-7066216 -241824,-7066239 -241864,-7066270 -241876,-7066283 -241883,-7066299 -241856,-7066326 -241854,-7066322 -241809,-7066346 -241761,-7066375 -241721,-7066395 -241633,-7066441 -241551,-7066468 -241438,-7066509 -241376,-7066527 -241275,-7066564 -241269,-7066583 -241260,-7066610 -241242,-7066688 -241213,-7066831 -241188,-7066981 -241172,-7067063 -241155,-7067147 -241139,-7067232 -241120,-7067326 -241127,-7067329 -241118,-7067381 -241035,-7067321 -240982,-7067285 -240965,-7067276 -240967,-7067273 -240826,-7067178 -240743,-7067119 -240592,-7067013 -240609,-7067112 -240638,-7067261 -240588,-7067271 -240496,-7067288 -240436,-7067298 -240448,-7067364 -240455,-7067392 -240466,-7067418 -240490,-7067474 -240353,-7067530 -240279,-7067564 -240275,-7067566 -240282,-7067582 -240285,-7067587 -240277,-7067596 -240267,-7067580 -240254,-7067577 -240252,-7067556 -240253,-7067551 -240230,-7067506 -240207,-7067479 -240202,-7067475 -240188,-7067464 -240157,-7067412 -240151,-7067404 -240110,-7067341 -240060,-7067264 -239985,-7067148 -239953,-7067077" stroke="#003087" stroke-width="52" /></ns0:svg>    <rect x="20" y="50"  width="250" height="25"  rx="0"  fill="#003087" fill-opacity="0.8" />    <text x="145" y="70" text-anchor="middle" font-family="Frutiger" font-weight="bold" font-size="30" fill="white">Stockport</text>    <rect x="35" y="195" width="220" height="160" rx="15" fill="#41B6E6"/>    <g font-family="Frutiger" font-size="15" fill="white">        <g> <text x="45" y="218">Self-harm</text> <text x="245" y="218" text-anchor="end">39</text> </g>        <g> <text x="45" y="243">SEN</text> <text x="245" y="243" text-anchor="end">45</text> </g>        <g> <text x="45" y="268">Difficulties</text> <text x="245" y="268" text-anchor="end">65</text> </g>        <g> <text x="45" y="293">Child Carer</text> <text x="245" y="293" text-anchor="end">18</text> </g>        <g> <text x="45" y="318">Drinkers</text> <text x="245" y="318" text-anchor="end">58</text> </g>        <g> <text x="45" y="343">Safeguarding </text> <text x="245" y="343" text-anchor="end">11</text> </g>    </g></svg>