<?xml version="1.0" standalone="no"?>
<!DOCTYPE svg PUBLIC "-//W3C//DTD SVG 1.1//EN"
"http://www.w3.org/Graphics/SVG/1.1/DTD/svg11.dtd">
<svg height="390" version="1.1" width="290" xmlns="http://www.w3.org/2000/svg"><defs><style type="text/css">@font-face {font-family: 'Frutiger';font-style: normal;font-weight: normal;src: local('Frutiger'), url('../fonts/Frutiger.woff') format('woff');}@font-face {font-family: 'Frutiger Bold';font-style: normal;font-weight: normal;src: local('Frutiger Bold'), url('../fonts/Frutiger_bold.woff') format('woff');}        </style>    </defs>    <rect x="20" y="20"  width="250" height="350" rx="15" fill="#005EB8" />    <rect x="35" y="35"  width="220" height="145" rx="15" fill="white" /><ns0:svg xmlns:ns0="http://www.w3.org/2000/svg" height="115" version="1.1" viewBox="-208393 -6893692 31079 30445" width="220" x="35" y="50"><ns0:polygon fill="#003087" points=" -193872,-6891852 -193745,-6891529 -193641,-6891264 -193551,-6891043 -193507,-6890931 -193472,-6890850 -193443,-6890773 -193369,-6890587 -193318,-6890469 -193266,-6890335 -193236,-6890266 -193197,-6890165 -193129,-6890005 -193119,-6889979 -193089,-6889917 -193018,-6889758 -192992,-6889702 -192940,-6889606 -192925,-6889571 -192865,-6889467 -192803,-6889361 -192780,-6889314 -192732,-6889238 -192688,-6889170 -192668,-6889139 -192630,-6889082 -192581,-6889005 -192332,-6888664 -192211,-6888495 -192170,-6888442 -192098,-6888342 -192035,-6888259 -191916,-6888101 -191762,-6887890 -191750,-6887875 -191707,-6887822 -191609,-6887715 -191575,-6887677 -191530,-6887633 -191462,-6887565 -191361,-6887472 -191344,-6887458 -191299,-6887421 -191185,-6887334 -191117,-6887285 -190992,-6887202 -190938,-6887167 -190890,-6887139 -190943,-6887096 -190923,-6887073 -190726,-6886837 -190679,-6886779 -190666,-6886763 -190655,-6886746 -190645,-6886732 -190635,-6886714 -190625,-6886696 -190607,-6886659 -190589,-6886616 -190578,-6886588 -190569,-6886561 -190540,-6886464 -190496,-6886453 -190508,-6886310 -190513,-6886264 -190435,-6886260 -190440,-6886228 -190445,-6886171 -190448,-6886113 -190449,-6886055 -190449,-6886003 -190448,-6885897 -190447,-6885863 -190443,-6885804 -190436,-6885735 -190427,-6885658 -190416,-6885588 -190398,-6885458 -190381,-6885340 -190360,-6885152 -190348,-6885045 -190336,-6884931 -190340,-6884905 -190276,-6884896 -190251,-6884878 -190241,-6884867 -190219,-6884842 -190209,-6884830 -190203,-6884820 -190197,-6884805 -190192,-6884790 -190189,-6884775 -190186,-6884756 -190184,-6884725 -190184,-6884710 -190185,-6884695 -190187,-6884682 -190196,-6884647 -190199,-6884625 -190200,-6884609 -190200,-6884594 -190198,-6884574 -190197,-6884564 -190194,-6884554 -190191,-6884545 -190187,-6884537 -190183,-6884530 -190149,-6884474 -190075,-6884357 -190030,-6884291 -190028,-6884288 -189998,-6884237 -189978,-6884204 -189780,-6883943 -189764,-6883922 -189740,-6883892 -189723,-6883873 -189702,-6883851 -189674,-6883823 -189648,-6883799 -189628,-6883782 -189608,-6883766 -189458,-6883656 -189437,-6883642 -189418,-6883627 -189398,-6883612 -189369,-6883586 -189351,-6883568 -189334,-6883550 -189330,-6883545 -189318,-6883532 -189303,-6883513 -189288,-6883493 -189264,-6883459 -189249,-6883435 -189235,-6883411 -189221,-6883386 -189209,-6883361 -189198,-6883338 -189186,-6883309 -189174,-6883279 -189164,-6883250 -189154,-6883219 -189146,-6883189 -189133,-6883137 -189090,-6883008 -189082,-6882991 -189073,-6882973 -189049,-6882932 -189030,-6882901 -189011,-6882871 -188984,-6882834 -188983,-6882818 -188959,-6882777 -188911,-6882739 -188828,-6882601 -188720,-6882443 -188595,-6882272 -188569,-6882247 -188528,-6882188 -188526,-6882186 -188476,-6882132 -188386,-6882035 -188336,-6881978 -188314,-6881951 -188286,-6881910 -188285,-6881897 -188276,-6881884 -188267,-6881884 -188216,-6881787 -188197,-6881754 -188175,-6881721 -188154,-6881689 -188132,-6881659 -188125,-6881650 -188109,-6881631 -188092,-6881613 -188075,-6881596 -188060,-6881581 -188039,-6881561 -188010,-6881537 -188008,-6881535 -187902,-6881430 -187891,-6881419 -187881,-6881407 -187871,-6881395 -187862,-6881383 -187853,-6881369 -187839,-6881344 -187829,-6881326 -187820,-6881308 -187802,-6881264 -187789,-6881243 -187737,-6881232 -187733,-6881209 -187718,-6881154 -187709,-6881132 -187692,-6881098 -187641,-6881040 -187629,-6881030 -187624,-6881024 -187617,-6881013 -187611,-6880999 -187611,-6880997 -187622,-6880945 -187620,-6880903 -187613,-6880877 -187605,-6880851 -187574,-6880782 -187538,-6880743 -187557,-6880714 -187537,-6880606 -187537,-6880603 -187540,-6880596 -187539,-6880591 -187537,-6880586 -187531,-6880576 -187489,-6880545 -187485,-6880538 -187484,-6880533 -187485,-6880527 -187488,-6880522 -187494,-6880517 -187513,-6880487 -187520,-6880470 -187522,-6880460 -187522,-6880448 -187521,-6880418 -187515,-6880385 -187508,-6880356 -187483,-6880306 -187462,-6880272 -187460,-6880264 -187459,-6880251 -187446,-6880227 -187411,-6880175 -187382,-6880138 -187333,-6880102 -187301,-6880077 -187259,-6880037 -187252,-6880031 -187243,-6880025 -187224,-6880017 -187128,-6879987 -187107,-6879974 -187045,-6879921 -187019,-6879906 -187008,-6879904 -187004,-6879904 -186981,-6879906 -186963,-6879910 -186952,-6879909 -186945,-6879906 -186933,-6879899 -186887,-6879852 -186866,-6879850 -186835,-6879849 -186826,-6879847 -186816,-6879844 -186810,-6879841 -186801,-6879833 -186774,-6879798 -186768,-6879789 -186758,-6879763 -186746,-6879746 -186742,-6879742 -186736,-6879738 -186727,-6879734 -186661,-6879717 -186649,-6879710 -186645,-6879706 -186637,-6879695 -186635,-6879688 -186633,-6879680 -186633,-6879665 -186643,-6879612 -186654,-6879566 -186678,-6879493 -186699,-6879412 -186670,-6879405 -186653,-6879405 -186624,-6879415 -186613,-6879418 -186591,-6879419 -186573,-6879422 -186563,-6879426 -186556,-6879430 -186531,-6879448 -186384,-6879430 -186337,-6879435 -186244,-6879458 -186180,-6879471 -186132,-6879472 -186074,-6879476 -185995,-6879491 -185986,-6879490 -185980,-6879488 -185875,-6879430 -185813,-6879397 -185797,-6879392 -185784,-6879385 -185771,-6879378 -185722,-6879343 -185690,-6879332 -185569,-6879261 -185523,-6879250 -185430,-6879631 -185416,-6879681 -185369,-6879801 -185364,-6879817 -185330,-6879959 -185305,-6880047 -185299,-6880082 -185296,-6880083 -185292,-6880155 -185291,-6880207 -185302,-6880305 -185310,-6880361 -185313,-6880422 -185319,-6880481 -185336,-6880525 -185337,-6880531 -185338,-6880549 -185334,-6880565 -185331,-6880572 -185302,-6880618 -185193,-6880720 -185165,-6880738 -185091,-6880813 -185044,-6880862 -184992,-6880816 -184952,-6880761 -184896,-6880691 -184830,-6880623 -184810,-6880604 -184791,-6880586 -184603,-6880438 -184483,-6880350 -184438,-6880321 -184360,-6880268 -184266,-6880238 -184219,-6880215 -184197,-6880256 -184139,-6880250 -184133,-6880248 -184104,-6880229 -184070,-6880211 -184063,-6880209 -184050,-6880209 -184023,-6880218 -183988,-6880200 -183929,-6880220 -183849,-6880241 -183803,-6880250 -183780,-6880265 -183775,-6880273 -183771,-6880288 -183765,-6880301 -183762,-6880305 -183755,-6880309 -183700,-6880323 -183659,-6880342 -183646,-6880343 -183607,-6880341 -183594,-6880342 -183565,-6880352 -183501,-6880367 -183479,-6880373 -183466,-6880378 -183446,-6880390 -183401,-6880429 -183374,-6880434 -183354,-6880456 -183342,-6880460 -183330,-6880463 -183277,-6880463 -183260,-6880467 -183251,-6880470 -183244,-6880475 -183234,-6880486 -183225,-6880485 -183194,-6880466 -183148,-6880460 -183135,-6880474 -183128,-6880487 -183056,-6880522 -183014,-6880546 -182976,-6880582 -182926,-6880636 -182923,-6880638 -182918,-6880638 -182910,-6880634 -182905,-6880630 -182899,-6880627 -182894,-6880626 -182882,-6880627 -182865,-6880630 -182857,-6880632 -182809,-6880651 -182768,-6880669 -182740,-6880674 -182719,-6880688 -182621,-6880773 -182609,-6880788 -182592,-6880800 -182583,-6880808 -182561,-6880828 -182519,-6880903 -182491,-6880939 -182476,-6880953 -182455,-6880970 -182436,-6880997 -182429,-6881004 -182415,-6881018 -182391,-6881036 -182374,-6881059 -182385,-6881066 -182370,-6881088 -182367,-6881138 -182358,-6881183 -182344,-6881213 -182341,-6881233 -182321,-6881279 -182308,-6881273 -182297,-6881325 -182294,-6881382 -182295,-6881407 -182293,-6881421 -182290,-6881432 -182273,-6881463 -182256,-6881477 -182241,-6881494 -182190,-6881546 -182144,-6881597 -182136,-6881604 -182126,-6881611 -182118,-6881616 -182098,-6881623 -182072,-6881636 -182029,-6881651 -182002,-6881663 -181994,-6881689 -181991,-6881734 -181994,-6881768 -181979,-6881835 -181962,-6881890 -181960,-6881902 -181958,-6881914 -181962,-6881937 -181917,-6881942 -181890,-6881987 -181880,-6882010 -181874,-6882019 -181856,-6882039 -181846,-6882071 -181841,-6882208 -181831,-6882229 -181811,-6882268 -181801,-6882281 -181792,-6882293 -181742,-6882341 -181734,-6882353 -181727,-6882360 -181713,-6882368 -181670,-6882381 -181640,-6882403 -181614,-6882423 -181604,-6882430 -181589,-6882438 -181585,-6882442 -181559,-6882471 -181464,-6882560 -181419,-6882593 -181408,-6882607 -181370,-6882677 -181367,-6882690 -181357,-6882726 -181347,-6882750 -181317,-6882786 -181295,-6882808 -181287,-6882817 -181277,-6882831 -181242,-6882883 -181234,-6882895 -181217,-6882909 -181201,-6882938 -181158,-6882973 -181148,-6882983 -181133,-6883003 -181107,-6883033 -181068,-6883055 -181023,-6883077 -181002,-6883085 -180990,-6883092 -180941,-6883133 -180917,-6883160 -180909,-6883168 -180904,-6883171 -180898,-6883174 -180856,-6883187 -180870,-6883223 -180879,-6883245 -180892,-6883267 -180898,-6883284 -180911,-6883313 -180918,-6883337 -180920,-6883357 -180918,-6883405 -180922,-6883457 -180937,-6883493 -180965,-6883542 -180995,-6883590 -180999,-6883603 -181000,-6883616 -180999,-6883666 -180996,-6883691 -180996,-6883704 -180997,-6883708 -181005,-6883734 -181006,-6883741 -181006,-6883757 -180982,-6883817 -180980,-6883826 -180981,-6883833 -180982,-6883836 -181006,-6883880 -181052,-6883928 -181070,-6883953 -181077,-6883968 -181093,-6884021 -181096,-6884035 -181100,-6884102 -181103,-6884139 -181102,-6884150 -181101,-6884155 -181088,-6884163 -181072,-6884171 -181064,-6884178 -181038,-6884196 -181005,-6884223 -180987,-6884240 -180953,-6884266 -180922,-6884292 -180904,-6884301 -180894,-6884308 -180867,-6884330 -180833,-6884377 -180814,-6884383 -180792,-6884388 -180725,-6884382 -180700,-6884373 -180678,-6884360 -180667,-6884352 -180645,-6884354 -180530,-6884357 -180508,-6884366 -180245,-6884449 -180209,-6884465 -180150,-6884486 -180106,-6884449 -180041,-6884403 -180025,-6884394 -179990,-6884377 -179959,-6884362 -179916,-6884345 -179842,-6884325 -179799,-6884313 -179727,-6884295 -179693,-6884278 -179676,-6884254 -179633,-6884198 -179617,-6884156 -179615,-6884145 -179607,-6884128 -179583,-6884087 -179563,-6884063 -179552,-6884050 -179547,-6884046 -179532,-6884037 -179526,-6884031 -179516,-6884018 -179469,-6883930 -179460,-6883910 -179437,-6883842 -179435,-6883835 -179432,-6883777 -179423,-6883785 -179421,-6883784 -179412,-6883775 -179406,-6883768 -179411,-6883717 -179396,-6883676 -179399,-6883672 -179373,-6883630 -179350,-6883580 -179322,-6883524 -179303,-6883475 -179199,-6883447 -179041,-6883412 -179010,-6883413 -178962,-6883410 -178843,-6883409 -178780,-6883409 -178734,-6883356 -178689,-6883281 -178681,-6883264 -178648,-6883226 -178637,-6883228 -178611,-6883196 -178605,-6883191 -178599,-6883188 -178591,-6883186 -178576,-6883177 -178572,-6883173 -178568,-6883167 -178564,-6883160 -178550,-6883141 -178537,-6883127 -178522,-6883119 -178509,-6883115 -178444,-6883107 -178411,-6883112 -178399,-6883102 -178391,-6883096 -178372,-6883084 -178288,-6883010 -178282,-6882998 -178278,-6882994 -178273,-6882990 -178247,-6882975 -178242,-6882971 -178236,-6882962 -178232,-6882951 -178205,-6882927 -178202,-6882923 -178199,-6882919 -178198,-6882913 -178194,-6882885 -178173,-6882848 -178167,-6882841 -178141,-6882797 -178134,-6882789 -178128,-6882784 -178117,-6882777 -178090,-6882769 -178078,-6882760 -178071,-6882757 -178062,-6882753 -178044,-6882749 -178039,-6882746 -178030,-6882738 -177949,-6882695 -177937,-6882696 -177939,-6882705 -177942,-6882710 -177939,-6882724 -177922,-6882754 -177910,-6882781 -177881,-6882813 -177771,-6882894 -177743,-6882936 -177708,-6882956 -177682,-6882964 -177662,-6882965 -177651,-6882964 -177633,-6882959 -177608,-6882985 -177557,-6882887 -177484,-6882742 -177392,-6882543 -177487,-6882493 -177531,-6882461 -177428,-6882279 -177404,-6882236 -177458,-6882206 -177466,-6882216 -177655,-6882158 -177638,-6882114 -177609,-6882061 -177596,-6882063 -177591,-6882050 -177595,-6882040 -177595,-6882027 -177592,-6881934 -177588,-6881917 -177583,-6881912 -177572,-6881911 -177541,-6881870 -177532,-6881856 -177528,-6881847 -177521,-6881830 -177515,-6881801 -177508,-6881788 -177497,-6881773 -177482,-6881729 -177472,-6881723 -177454,-6881713 -177462,-6881685 -177467,-6881668 -177455,-6881661 -177433,-6881661 -177420,-6881645 -177408,-6881644 -177406,-6881643 -177406,-6881642 -177406,-6881615 -177377,-6881443 -177377,-6881414 -177366,-6881370 -177364,-6881355 -177360,-6881343 -177356,-6881332 -177347,-6881316 -177333,-6881303 -177334,-6881278 -177330,-6881254 -177330,-6881239 -177331,-6881226 -177334,-6881213 -177332,-6881197 -177331,-6881169 -177342,-6881157 -177344,-6881142 -177318,-6881066 -177314,-6881055 -177317,-6880996 -177321,-6880970 -177366,-6880892 -177371,-6880869 -177382,-6880867 -177385,-6880817 -177387,-6880798 -177399,-6880761 -177408,-6880745 -177411,-6880730 -177414,-6880719 -177420,-6880705 -177427,-6880669 -177427,-6880665 -177426,-6880658 -177427,-6880652 -177428,-6880646 -177434,-6880638 -177443,-6880633 -177447,-6880623 -177448,-6880617 -177449,-6880606 -177453,-6880581 -177451,-6880569 -177449,-6880563 -177447,-6880560 -177436,-6880554 -177445,-6880509 -177446,-6880500 -177453,-6880476 -177467,-6880439 -177483,-6880432 -177512,-6880358 -177526,-6880315 -177528,-6880307 -177531,-6880284 -177549,-6880217 -177544,-6880200 -177568,-6880136 -177584,-6880108 -177570,-6880100 -177575,-6880075 -177580,-6880064 -177585,-6880052 -177591,-6880041 -177612,-6880011 -177618,-6880018 -177622,-6880022 -177627,-6880024 -177633,-6880026 -177637,-6880026 -177650,-6880020 -177667,-6879960 -177676,-6879958 -177681,-6879954 -177683,-6879951 -177685,-6879943 -177689,-6879935 -177687,-6879913 -177687,-6879907 -177689,-6879897 -177697,-6879879 -177687,-6879872 -177687,-6879870 -177688,-6879866 -177689,-6879865 -177692,-6879858 -177707,-6879859 -177717,-6879877 -177732,-6879849 -177714,-6879834 -177711,-6879831 -177719,-6879817 -177732,-6879817 -177738,-6879794 -177741,-6879793 -177744,-6879796 -177753,-6879807 -177761,-6879814 -177766,-6879821 -177769,-6879828 -177770,-6879835 -177774,-6879840 -177798,-6879844 -177810,-6879843 -177816,-6879844 -177824,-6879846 -177837,-6879853 -177857,-6879861 -177861,-6879864 -177862,-6879870 -177856,-6879883 -177856,-6879886 -177892,-6879904 -177903,-6879910 -177913,-6879903 -177932,-6879904 -177933,-6879918 -177959,-6879937 -177967,-6879955 -177973,-6879966 -177983,-6879979 -177997,-6879986 -178007,-6879972 -178010,-6879970 -178015,-6879969 -178024,-6879970 -178041,-6879978 -178063,-6879982 -178078,-6879990 -178121,-6880021 -178171,-6880023 -178216,-6880040 -178235,-6880033 -178313,-6880043 -178487,-6880044 -178525,-6880055 -178572,-6880076 -178601,-6880085 -178607,-6880076 -178638,-6880084 -178655,-6880070 -178661,-6880075 -178668,-6880081 -178670,-6880080 -178703,-6880076 -178744,-6880086 -178769,-6880053 -178786,-6880038 -178804,-6880023 -178829,-6880000 -178849,-6879980 -178874,-6879964 -178898,-6879943 -178906,-6879935 -178912,-6879927 -178927,-6879904 -178968,-6879893 -178979,-6879891 -178994,-6879886 -179002,-6879880 -179022,-6879874 -179031,-6879865 -179037,-6879836 -179039,-6879831 -179045,-6879823 -179054,-6879813 -179055,-6879800 -179056,-6879795 -179059,-6879790 -179062,-6879786 -179069,-6879783 -179106,-6879770 -179112,-6879753 -179123,-6879744 -179130,-6879740 -179166,-6879727 -179169,-6879723 -179173,-6879715 -179175,-6879707 -179176,-6879694 -179164,-6879638 -179154,-6879582 -179161,-6879569 -179172,-6879502 -179177,-6879448 -179172,-6879423 -179160,-6879408 -179155,-6879403 -179153,-6879386 -179146,-6879362 -179135,-6879362 -179132,-6879357 -179110,-6879345 -179109,-6879341 -179106,-6879317 -179106,-6879294 -179108,-6879277 -179116,-6879236 -179120,-6879228 -179125,-6879220 -179134,-6879210 -179143,-6879204 -179194,-6879146 -179197,-6879085 -179187,-6878999 -179186,-6878962 -179196,-6878914 -179093,-6878878 -178937,-6878814 -178805,-6878784 -178818,-6878706 -178835,-6878534 -178839,-6878434 -178840,-6878434 -178912,-6878448 -178987,-6878469 -178987,-6878468 -178993,-6878446 -178999,-6878448 -179014,-6878452 -179049,-6878471 -179129,-6878501 -179191,-6878530 -179257,-6878570 -179288,-6878593 -179332,-6878617 -179379,-6878641 -179395,-6878594 -179405,-6878571 -179412,-6878555 -179424,-6878519 -179450,-6878478 -179468,-6878445 -179491,-6878408 -179494,-6878401 -179503,-6878376 -179512,-6878357 -179517,-6878352 -179520,-6878333 -179522,-6878328 -179526,-6878318 -179534,-6878305 -179546,-6878282 -179573,-6878206 -179582,-6878189 -179626,-6878098 -179644,-6878055 -179672,-6878007 -179689,-6877972 -179696,-6877956 -179714,-6877903 -179719,-6877880 -179682,-6877842 -179660,-6877819 -179663,-6877815 -179590,-6877743 -179568,-6877737 -179549,-6877733 -179540,-6877728 -179532,-6877720 -179529,-6877718 -179514,-6877720 -179487,-6877703 -179481,-6877700 -179465,-6877697 -179406,-6877663 -179361,-6877608 -179344,-6877606 -179314,-6877583 -179289,-6877569 -179269,-6877563 -179242,-6877553 -179233,-6877544 -179209,-6877535 -179202,-6877531 -179188,-6877522 -179178,-6877517 -179166,-6877519 -179129,-6877512 -179102,-6877501 -179088,-6877497 -179085,-6877496 -179046,-6877506 -179019,-6877500 -179005,-6877495 -178991,-6877494 -178982,-6877505 -178966,-6877502 -178946,-6877494 -178917,-6877491 -178862,-6877449 -178843,-6877422 -178829,-6877409 -178851,-6877391 -178878,-6877365 -178924,-6877340 -178939,-6877333 -178952,-6877330 -178966,-6877321 -179004,-6877278 -179023,-6877270 -179069,-6877223 -179089,-6877216 -179110,-6877198 -179135,-6877190 -179155,-6877176 -179164,-6877165 -179189,-6877133 -179195,-6877114 -179198,-6877111 -179201,-6877107 -179249,-6877064 -179257,-6877043 -179267,-6877032 -179274,-6877021 -179284,-6877011 -179294,-6876988 -179318,-6876943 -179324,-6876937 -179341,-6876927 -179354,-6876902 -179344,-6876890 -179346,-6876853 -179310,-6876839 -179271,-6876798 -179198,-6876722 -179154,-6876679 -179106,-6876636 -179010,-6876551 -178928,-6876473 -178877,-6876431 -178817,-6876372 -178767,-6876320 -178688,-6876234 -178663,-6876205 -178635,-6876185 -178625,-6876158 -178617,-6876146 -178600,-6876121 -178575,-6876083 -178533,-6876020 -178518,-6875986 -178506,-6875945 -178472,-6875839 -178471,-6875838 -178464,-6875842 -178444,-6875812 -178411,-6875778 -178374,-6875738 -178353,-6875706 -178356,-6875664 -178407,-6875675 -178421,-6875675 -178476,-6875684 -178500,-6875687 -178537,-6875687 -178610,-6875682 -178624,-6875680 -178615,-6875570 -178613,-6875492 -178606,-6875389 -178591,-6875190 -178598,-6875169 -178606,-6875142 -178591,-6875093 -178590,-6875090 -178587,-6875038 -178580,-6874939 -178563,-6874774 -178558,-6874717 -178549,-6874631 -178541,-6874552 -178527,-6874513 -178521,-6874454 -178521,-6874443 -178562,-6874442 -178552,-6874404 -178489,-6874192 -178501,-6874188 -178504,-6874192 -178765,-6874105 -178751,-6874087 -178747,-6874081 -178746,-6874077 -178740,-6874051 -178738,-6874039 -178737,-6874024 -178737,-6874004 -178739,-6873985 -178744,-6873929 -178750,-6873888 -178754,-6873877 -178756,-6873865 -178756,-6873857 -178755,-6873845 -178753,-6873837 -178751,-6873830 -178746,-6873818 -178737,-6873803 -178699,-6873771 -178628,-6873707 -178594,-6873683 -178562,-6873653 -178538,-6873627 -178527,-6873611 -178520,-6873593 -178361,-6873638 -178325,-6873642 -178264,-6873625 -178259,-6873624 -178254,-6873534 -178252,-6873506 -178247,-6873458 -178275,-6873465 -178318,-6873461 -178337,-6873462 -178393,-6873454 -178454,-6873440 -178515,-6873428 -178560,-6873423 -178568,-6873429 -178590,-6873410 -178575,-6873373 -178579,-6873211 -178587,-6873195 -178582,-6873165 -178585,-6873113 -178600,-6873103 -178587,-6873053 -178592,-6872954 -178594,-6872929 -178592,-6872910 -178588,-6872899 -178586,-6872898 -178577,-6872877 -178580,-6872848 -178595,-6872848 -178580,-6872781 -178586,-6872777 -178512,-6872617 -178497,-6872605 -178496,-6872585 -178405,-6872383 -178395,-6872341 -178381,-6872331 -178332,-6872213 -178308,-6872114 -178287,-6872035 -178291,-6872034 -178410,-6872011 -178361,-6871854 -178196,-6871874 -178196,-6871873 -178189,-6871821 -178174,-6871754 -178137,-6871584 -178124,-6871517 -178113,-6871475 -178136,-6871464 -178226,-6871475 -178239,-6871441 -178261,-6871324 -178289,-6871222 -178290,-6871222 -178315,-6871231 -178328,-6871209 -178373,-6871140 -178381,-6871123 -178391,-6871104 -178461,-6871017 -178442,-6870976 -178425,-6870947 -178404,-6870921 -178390,-6870907 -178305,-6870873 -178264,-6870859 -178228,-6870837 -178230,-6870824 -178231,-6870815 -178237,-6870801 -178266,-6870763 -178325,-6870716 -178375,-6870684 -178447,-6870638 -178476,-6870622 -178471,-6870617 -178338,-6870503 -178333,-6870481 -178395,-6870382 -178452,-6870299 -178492,-6870219 -178530,-6870234 -178532,-6870230 -178572,-6870152 -178600,-6870163 -178599,-6870168 -178616,-6870171 -178617,-6870164 -178671,-6870174 -178672,-6870171 -178674,-6870158 -178676,-6870144 -178680,-6870145 -178718,-6870020 -178621,-6869998 -178686,-6869839 -178781,-6869877 -178850,-6869911 -178894,-6869932 -178947,-6869971 -179091,-6869674 -179098,-6869696 -179113,-6869721 -179104,-6869727 -179118,-6869753 -179127,-6869746 -179150,-6869774 -179199,-6869751 -179156,-6869673 -179187,-6869654 -179255,-6869585 -179111,-6869482 -179023,-6869420 -178880,-6869311 -178890,-6869228 -178904,-6869156 -178922,-6869089 -178961,-6868975 -178919,-6868964 -178937,-6868918 -178950,-6868879 -178964,-6868814 -178976,-6868727 -178980,-6868598 -178986,-6868519 -178989,-6868485 -179003,-6868463 -179051,-6868483 -179046,-6868495 -179060,-6868501 -179066,-6868490 -179071,-6868492 -179102,-6868489 -179098,-6868469 -179101,-6868368 -179133,-6868350 -179412,-6868155 -179436,-6868158 -179512,-6868154 -179603,-6868150 -179662,-6868145 -179698,-6868146 -179735,-6868138 -179770,-6868129 -179805,-6868121 -179822,-6868117 -179908,-6868146 -179932,-6868142 -180029,-6868330 -180070,-6868376 -180131,-6868445 -180130,-6868001 -180127,-6867965 -180142,-6867935 -180141,-6867925 -180091,-6867929 -180068,-6867938 -180057,-6867931 -180045,-6867884 -180043,-6867877 -180028,-6867860 -180025,-6867821 -180012,-6867798 -180008,-6867782 -180010,-6867774 -180019,-6867749 -180024,-6867738 -180020,-6867714 -180022,-6867711 -180036,-6867697 -180063,-6867667 -180079,-6867645 -180091,-6867632 -180112,-6867621 -180128,-6867611 -180166,-6867596 -180173,-6867592 -180189,-6867565 -180194,-6867549 -180191,-6867532 -180194,-6867512 -180199,-6867501 -180220,-6867469 -180218,-6867448 -180218,-6867440 -180227,-6867406 -180229,-6867406 -180241,-6867406 -180268,-6867410 -180279,-6867415 -180323,-6867439 -180331,-6867432 -180391,-6867487 -180402,-6867498 -180416,-6867509 -180431,-6867520 -180464,-6867538 -180523,-6867575 -180560,-6867605 -180586,-6867622 -180601,-6867628 -180660,-6867646 -180687,-6867639 -180746,-6867629 -180752,-6867609 -180758,-6867573 -180768,-6867541 -180794,-6867489 -180819,-6867451 -180836,-6867432 -180862,-6867375 -180876,-6867351 -180885,-6867341 -180914,-6867316 -180949,-6867289 -180984,-6867260 -181007,-6867236 -181037,-6867183 -181053,-6867165 -181074,-6867157 -181014,-6867112 -180984,-6867095 -180954,-6867082 -180919,-6867074 -180823,-6867047 -180723,-6867010 -180699,-6866997 -180661,-6866987 -180643,-6866981 -180570,-6866971 -180526,-6866963 -180513,-6866964 -180445,-6866918 -180466,-6866885 -180471,-6866847 -180474,-6866834 -180486,-6866807 -180518,-6866760 -180544,-6866715 -180566,-6866683 -180561,-6866677 -180587,-6866640 -180616,-6866605 -180639,-6866587 -180657,-6866576 -180686,-6866556 -180699,-6866533 -180716,-6866493 -180752,-6866532 -180773,-6866545 -180855,-6866579 -180871,-6866590 -180878,-6866580 -180918,-6866601 -180934,-6866606 -180965,-6866613 -180977,-6866619 -180974,-6866628 -181002,-6866649 -181034,-6866671 -181053,-6866689 -181060,-6866693 -181105,-6866658 -181162,-6866611 -181254,-6866540 -181295,-6866511 -181335,-6866487 -181366,-6866465 -181414,-6866424 -181424,-6866412 -181501,-6866453 -181538,-6866471 -181614,-6866517 -181625,-6866521 -181637,-6866513 -181671,-6866487 -181716,-6866433 -181721,-6866428 -181768,-6866371 -181784,-6866347 -181834,-6866255 -181926,-6866295 -181992,-6866324 -182079,-6866381 -182137,-6866417 -182143,-6866422 -182148,-6866425 -182153,-6866426 -182158,-6866426 -182163,-6866426 -182169,-6866423 -182178,-6866416 -182225,-6866340 -182249,-6866305 -182281,-6866269 -182350,-6866212 -182393,-6866181 -182434,-6866164 -182484,-6866146 -182520,-6866127 -182549,-6866101 -182682,-6866001 -182720,-6865971 -182759,-6865943 -182818,-6865916 -182845,-6865908 -182896,-6865903 -182960,-6865892 -183001,-6865890 -183016,-6865885 -183022,-6865882 -183035,-6865871 -183041,-6865862 -183048,-6865834 -183053,-6865827 -183057,-6865823 -183064,-6865820 -183103,-6865818 -183107,-6865749 -183115,-6865710 -183119,-6865663 -183179,-6865588 -183219,-6865541 -183239,-6865480 -183283,-6865396 -183337,-6865308 -183387,-6865208 -183428,-6865130 -183466,-6865026 -183500,-6864916 -183501,-6864888 -183600,-6864871 -183607,-6864856 -183653,-6864849 -183670,-6864856 -183807,-6864832 -183823,-6864829 -183837,-6864901 -183857,-6865006 -183880,-6865110 -183904,-6865204 -183944,-6865327 -183967,-6865380 -183995,-6865429 -184011,-6865455 -184020,-6865470 -184048,-6865509 -184086,-6865557 -184297,-6865811 -184514,-6866070 -184694,-6866282 -184889,-6866515 -185241,-6866205 -185465,-6866293 -185548,-6866383 -185692,-6866300 -185737,-6866350 -185901,-6866376 -186135,-6866108 -186131,-6866101 -186145,-6866082 -186155,-6866086 -186185,-6866051 -186191,-6866055 -186378,-6866131 -186466,-6866173 -186514,-6866186 -186623,-6866192 -186708,-6866219 -186787,-6866235 -186879,-6866220 -186916,-6866159 -186935,-6866147 -186974,-6866137 -187019,-6866133 -187031,-6866135 -187063,-6866156 -187077,-6866159 -187083,-6866159 -187090,-6866158 -187110,-6866150 -187116,-6866147 -187121,-6866144 -187128,-6866131 -187139,-6866127 -187162,-6866126 -187180,-6866130 -187191,-6866132 -187211,-6866128 -187230,-6866122 -187264,-6866123 -187296,-6866112 -187352,-6866086 -187390,-6866082 -187422,-6866069 -187467,-6866074 -187470,-6866075 -187497,-6866070 -187511,-6866063 -187524,-6866052 -187538,-6866023 -187542,-6866007 -187541,-6865997 -187542,-6865983 -187536,-6865971 -187540,-6865956 -187540,-6865943 -187521,-6865921 -187523,-6865857 -187516,-6865818 -187489,-6865802 -187477,-6865789 -187476,-6865786 -187479,-6865768 -187487,-6865755 -187484,-6865739 -187480,-6865722 -187455,-6865692 -187438,-6865654 -187435,-6865643 -187432,-6865633 -187439,-6865607 -187440,-6865597 -187432,-6865570 -187426,-6865559 -187427,-6865553 -187429,-6865547 -187449,-6865521 -187450,-6865493 -187458,-6865486 -187489,-6865459 -187502,-6865441 -187542,-6865337 -187548,-6865327 -187554,-6865317 -187569,-6865298 -187595,-6865251 -187639,-6865204 -187649,-6865157 -187669,-6865140 -187693,-6865140 -187699,-6865138 -187704,-6865135 -187704,-6865127 -187704,-6865119 -187697,-6865108 -187702,-6865067 -187694,-6864995 -187669,-6864917 -187650,-6864910 -187628,-6864914 -187622,-6864914 -187618,-6864911 -187614,-6864901 -187612,-6864870 -187602,-6864845 -187581,-6864831 -187565,-6864754 -187578,-6864750 -187598,-6864714 -187619,-6864713 -187686,-6864675 -187690,-6864672 -187714,-6864613 -187736,-6864583 -187746,-6864564 -187784,-6864527 -187856,-6864467 -187903,-6864439 -187987,-6864403 -188072,-6864360 -188123,-6864324 -188163,-6864301 -188180,-6864293 -188216,-6864264 -188266,-6864237 -188281,-6864227 -188288,-6864221 -188298,-6864208 -188364,-6864098 -188379,-6864072 -188360,-6864052 -188422,-6863943 -188476,-6863941 -188500,-6863909 -188531,-6863871 -188562,-6863843 -188601,-6863913 -188673,-6864104 -188675,-6864106 -188686,-6864139 -188690,-6864152 -188698,-6864177 -188703,-6864189 -188725,-6864236 -188741,-6864273 -188757,-6864312 -188765,-6864334 -188776,-6864359 -188796,-6864401 -188801,-6864412 -188805,-6864419 -188808,-6864426 -188823,-6864457 -188861,-6864508 -188906,-6864570 -188952,-6864625 -189030,-6864703 -189102,-6864638 -189163,-6864586 -189245,-6864525 -189283,-6864530 -189294,-6864527 -189335,-6864505 -189359,-6864506 -189396,-6864487 -189430,-6864471 -189438,-6864471 -189468,-6864480 -189473,-6864481 -189478,-6864480 -189500,-6864472 -189523,-6864475 -189535,-6864474 -189559,-6864466 -189575,-6864467 -189597,-6864475 -189617,-6864476 -189632,-6864467 -189652,-6864450 -189698,-6864426 -189745,-6864431 -189761,-6864457 -189775,-6864468 -189843,-6864503 -189927,-6864541 -189969,-6864553 -189999,-6864562 -190013,-6864572 -190026,-6864590 -190046,-6864598 -190081,-6864604 -190107,-6864593 -190126,-6864588 -190142,-6864580 -190147,-6864578 -190163,-6864575 -190184,-6864576 -190210,-6864573 -190229,-6864560 -190264,-6864570 -190290,-6864566 -190320,-6864572 -190353,-6864572 -190386,-6864574 -190394,-6864577 -190409,-6864589 -190444,-6864624 -190457,-6864633 -190468,-6864637 -190489,-6864634 -190501,-6864635 -190505,-6864636 -190509,-6864639 -190515,-6864648 -190516,-6864664 -190521,-6864682 -190544,-6864691 -190556,-6864710 -190563,-6864733 -190593,-6864749 -190603,-6864755 -190616,-6864773 -190644,-6864790 -190649,-6864798 -190654,-6864807 -190662,-6864837 -190668,-6864878 -190661,-6864881 -190672,-6864898 -190708,-6864920 -190716,-6864926 -190738,-6864959 -190752,-6864965 -190770,-6864981 -190799,-6864990 -190853,-6865015 -190865,-6865028 -190909,-6865089 -190923,-6865107 -190986,-6865110 -191023,-6865118 -191040,-6865121 -191080,-6865122 -191089,-6865123 -191098,-6865124 -191151,-6865143 -191172,-6865155 -191175,-6865159 -191205,-6865215 -191284,-6865243 -191292,-6865229 -191298,-6865180 -191303,-6865164 -191307,-6865138 -191311,-6865112 -191312,-6865061 -191325,-6865023 -191331,-6864996 -191316,-6864901 -191315,-6864863 -191321,-6864826 -191302,-6864782 -191303,-6864749 -191307,-6864704 -191438,-6864895 -191492,-6864984 -191513,-6865045 -191530,-6865101 -191541,-6865138 -191550,-6865173 -191557,-6865218 -191559,-6865243 -191561,-6865290 -191561,-6865311 -191560,-6865336 -191556,-6865374 -191551,-6865474 -191521,-6865754 -191502,-6865911 -191485,-6866028 -191479,-6866059 -191468,-6866097 -191452,-6866141 -191443,-6866159 -191430,-6866186 -191360,-6866339 -191292,-6866483 -191249,-6866578 -191236,-6866633 -191218,-6866755 -191215,-6866831 -191215,-6866852 -191215,-6866885 -191216,-6866910 -191220,-6866959 -191224,-6867002 -191229,-6867036 -191234,-6867068 -191240,-6867098 -191250,-6867135 -191260,-6867172 -191272,-6867209 -191280,-6867232 -191310,-6867314 -191429,-6867608 -191498,-6867774 -191500,-6867773 -191521,-6867772 -191532,-6867771 -191550,-6867767 -191558,-6867765 -191572,-6867739 -191540,-6867716 -191551,-6867682 -191565,-6867663 -191593,-6867639 -191614,-6867632 -191652,-6867626 -191666,-6867618 -191730,-6867564 -191746,-6867546 -191762,-6867529 -191778,-6867508 -191809,-6867467 -191822,-6867453 -191834,-6867445 -191868,-6867442 -191912,-6867446 -191942,-6867440 -191993,-6867428 -192019,-6867417 -192043,-6867405 -192097,-6867421 -192113,-6867406 -192119,-6867400 -192142,-6867351 -192180,-6867347 -192203,-6867339 -192226,-6867324 -192243,-6867309 -192257,-6867305 -192274,-6867293 -192284,-6867288 -192293,-6867283 -192302,-6867280 -192312,-6867278 -192331,-6867278 -192347,-6867287 -192339,-6867296 -192343,-6867305 -192352,-6867325 -192360,-6867345 -192367,-6867365 -192385,-6867378 -192407,-6867383 -192418,-6867393 -192424,-6867394 -192429,-6867394 -192435,-6867390 -192441,-6867384 -192448,-6867374 -192448,-6867361 -192441,-6867337 -192439,-6867323 -192441,-6867314 -192454,-6867306 -192495,-6867316 -192514,-6867317 -192538,-6867316 -192560,-6867328 -192575,-6867342 -192591,-6867355 -192601,-6867375 -192620,-6867381 -192624,-6867385 -192629,-6867393 -192630,-6867397 -192611,-6867415 -192611,-6867417 -192616,-6867428 -192642,-6867437 -192689,-6867439 -192719,-6867443 -192738,-6867439 -192853,-6867415 -192868,-6867415 -192882,-6867415 -192915,-6867418 -192935,-6867422 -192955,-6867428 -192988,-6867446 -192993,-6867447 -192999,-6867447 -193013,-6867445 -193031,-6867435 -193085,-6867395 -193136,-6867349 -193165,-6867316 -193171,-6867302 -193170,-6867276 -193180,-6867257 -193202,-6867236 -193190,-6867209 -193190,-6867199 -193195,-6867189 -193215,-6867175 -193230,-6867150 -193234,-6867139 -193220,-6867121 -193222,-6867102 -193233,-6867093 -193246,-6867085 -193251,-6867069 -193268,-6867043 -193270,-6867037 -193273,-6867026 -193281,-6867016 -193283,-6867015 -193311,-6867019 -193314,-6866996 -193323,-6866983 -193318,-6866961 -193333,-6866912 -193377,-6866794 -193392,-6866737 -193419,-6866663 -193425,-6866643 -193435,-6866595 -193446,-6866563 -193466,-6866499 -193474,-6866478 -193497,-6866425 -193509,-6866387 -193511,-6866352 -193510,-6866315 -193503,-6866265 -193483,-6866173 -193466,-6866123 -193464,-6866105 -193469,-6866091 -193479,-6866074 -193476,-6866031 -193468,-6865999 -193462,-6865985 -193489,-6865940 -193496,-6865925 -193498,-6865916 -193486,-6865901 -193496,-6865879 -193505,-6865858 -193532,-6865835 -193552,-6865821 -193581,-6865810 -193590,-6865805 -193605,-6865778 -193596,-6865755 -193604,-6865716 -193622,-6865689 -193651,-6865658 -193689,-6865628 -193718,-6865612 -193751,-6865580 -193751,-6865558 -193775,-6865524 -193791,-6865506 -193799,-6865489 -193806,-6865453 -193812,-6865413 -193815,-6865392 -193811,-6865373 -193807,-6865343 -193807,-6865311 -193803,-6865263 -193805,-6865229 -193812,-6865188 -193827,-6865176 -193846,-6865151 -193856,-6865136 -193857,-6865133 -193854,-6865121 -193841,-6865110 -193828,-6865101 -193823,-6865093 -193842,-6864986 -193852,-6864966 -193869,-6864950 -193883,-6864942 -193898,-6864934 -193946,-6864919 -193955,-6864911 -193962,-6864890 -193973,-6864830 -193977,-6864818 -194004,-6864793 -194008,-6864787 -194024,-6864741 -194030,-6864726 -194058,-6864683 -194069,-6864668 -194079,-6864653 -194093,-6864638 -194108,-6864648 -194137,-6864640 -194205,-6864632 -194224,-6864630 -194236,-6864627 -194247,-6864623 -194278,-6864606 -194299,-6864591 -194334,-6864577 -194356,-6864565 -194382,-6864558 -194427,-6864550 -194499,-6864543 -194601,-6864537 -194632,-6864532 -194672,-6864528 -194711,-6864535 -194786,-6864535 -194811,-6864539 -194866,-6864560 -194886,-6864568 -194909,-6864579 -194930,-6864583 -194950,-6864602 -194982,-6864626 -195028,-6864681 -195034,-6864687 -195047,-6864696 -195049,-6864735 -195065,-6864737 -195129,-6864723 -195151,-6864757 -195200,-6864760 -195229,-6864775 -195342,-6864844 -195378,-6864866 -195413,-6864889 -195476,-6864932 -195644,-6865039 -195818,-6865136 -195841,-6865152 -195853,-6865163 -195869,-6865179 -195881,-6865191 -195894,-6865209 -195900,-6865221 -195906,-6865235 -195911,-6865252 -195915,-6865272 -195918,-6865291 -195920,-6865312 -195920,-6865337 -195920,-6865349 -195905,-6865507 -195892,-6865668 -195883,-6865804 -195878,-6865946 -195950,-6866025 -196028,-6866106 -196087,-6866165 -196127,-6866203 -196215,-6866243 -196233,-6866261 -196269,-6866276 -196368,-6866302 -196535,-6866337 -196564,-6866339 -196634,-6866337 -196674,-6866340 -196708,-6866340 -196778,-6866327 -196836,-6866314 -196909,-6866292 -196925,-6866287 -196940,-6866277 -196955,-6866263 -196968,-6866247 -197015,-6866240 -197053,-6866229 -197048,-6866240 -197053,-6866257 -197044,-6866278 -197043,-6866330 -197180,-6866402 -197260,-6866459 -197304,-6866481 -197389,-6866496 -197592,-6866542 -197674,-6866560 -197855,-6866446 -198062,-6866309 -198092,-6866277 -198140,-6866218 -198167,-6866179 -198135,-6865973 -198090,-6865701 -198062,-6865510 -198005,-6865526 -197996,-6865410 -197995,-6865274 -198000,-6865232 -198008,-6865200 -198028,-6865082 -197947,-6865077 -197945,-6864996 -197951,-6864855 -197907,-6864789 -197899,-6864767 -197876,-6864746 -197843,-6864688 -197765,-6864594 -197645,-6864692 -197520,-6864798 -197426,-6864873 -197354,-6864757 -197268,-6864733 -197242,-6864730 -197250,-6864618 -197330,-6864637 -197386,-6864667 -197446,-6864599 -197469,-6864569 -197567,-6864485 -197529,-6864439 -197533,-6864413 -197472,-6864301 -197394,-6864151 -197384,-6864136 -197375,-6864121 -197313,-6864058 -197292,-6864021 -197230,-6863969 -197241,-6863928 -197245,-6863893 -197337,-6863854 -197383,-6863825 -197449,-6863799 -197534,-6863755 -197557,-6863742 -197578,-6863728 -197616,-6863694 -197646,-6863659 -197675,-6863617 -197727,-6863592 -197710,-6863471 -197675,-6863287 -197718,-6863290 -197753,-6863299 -197852,-6863258 -197890,-6863247 -197911,-6863277 -198005,-6863274 -198082,-6863279 -198090,-6863358 -198283,-6863468 -198478,-6863575 -198652,-6863679 -198608,-6863764 -198565,-6863831 -198587,-6863857 -198596,-6863872 -198614,-6863906 -198623,-6863924 -198641,-6863976 -198655,-6864038 -198680,-6864177 -198688,-6864203 -198693,-6864217 -198700,-6864233 -198710,-6864252 -198728,-6864281 -198757,-6864321 -198773,-6864341 -198791,-6864360 -198806,-6864374 -198831,-6864395 -198927,-6864465 -198976,-6864522 -199021,-6864581 -199040,-6864604 -199257,-6864764 -199301,-6864794 -199427,-6864880 -199463,-6864901 -199507,-6864922 -199719,-6865004 -199878,-6865092 -199899,-6865102 -199920,-6865112 -200130,-6865201 -200191,-6865221 -200244,-6865226 -200291,-6865222 -200304,-6865222 -200312,-6865224 -200322,-6865227 -200330,-6865232 -200342,-6865243 -200374,-6865294 -200431,-6865404 -200446,-6865429 -200475,-6865479 -200516,-6865527 -200547,-6865571 -200643,-6865731 -200689,-6865823 -200730,-6865896 -200739,-6865909 -200742,-6865926 -200751,-6865938 -200760,-6865949 -200782,-6865969 -200802,-6865981 -200836,-6865994 -200842,-6865996 -200904,-6866014 -200917,-6866018 -200928,-6866022 -200956,-6866045 -200964,-6866054 -200986,-6866081 -201005,-6866113 -201016,-6866133 -201030,-6866163 -201064,-6866242 -201104,-6866404 -201132,-6866504 -201149,-6866564 -201160,-6866586 -201200,-6866650 -201218,-6866671 -201226,-6866677 -201235,-6866683 -201243,-6866686 -201255,-6866689 -201328,-6866690 -201488,-6866682 -201517,-6866679 -201532,-6866678 -201578,-6866672 -201635,-6866670 -201705,-6866671 -201742,-6866678 -201774,-6866684 -201800,-6866684 -201810,-6866661 -201829,-6866615 -201837,-6866591 -201849,-6866533 -201913,-6866547 -201970,-6866559 -202143,-6866596 -202299,-6866620 -202400,-6866633 -202513,-6866632 -202596,-6866624 -202671,-6866610 -202715,-6866593 -202741,-6866583 -202801,-6866561 -202812,-6866561 -202836,-6866572 -202864,-6866575 -202890,-6866582 -202972,-6866550 -203004,-6866544 -203078,-6866512 -203093,-6866570 -203105,-6866651 -203127,-6866646 -203368,-6866599 -203422,-6866676 -203616,-6866775 -203666,-6866806 -203739,-6866602 -203749,-6866575 -203880,-6866605 -203867,-6866715 -203918,-6866742 -203949,-6866700 -203974,-6866678 -204017,-6866631 -204056,-6866602 -204146,-6866704 -204209,-6866771 -204269,-6866831 -204312,-6866797 -204426,-6866717 -204458,-6866701 -204478,-6866695 -204496,-6866693 -204555,-6866703 -204572,-6866701 -204587,-6866699 -204616,-6866686 -204730,-6866597 -204830,-6866532 -204893,-6866497 -204999,-6866431 -205018,-6866425 -205042,-6866423 -205112,-6866424 -205154,-6866422 -205187,-6866426 -205238,-6866440 -205273,-6866453 -205312,-6866466 -205379,-6866513 -205432,-6866549 -205479,-6866572 -205538,-6866595 -205624,-6866624 -205801,-6866679 -205902,-6866705 -205906,-6866705 -206447,-6866693 -206586,-6866687 -206740,-6866687 -206902,-6866682 -207054,-6866680 -207104,-6866679 -207198,-6866672 -207354,-6866677 -207406,-6866680 -207426,-6866763 -207557,-6866814 -207598,-6866826 -207628,-6866836 -207701,-6866869 -207773,-6866895 -207838,-6866920 -207850,-6866924 -207865,-6866928 -207888,-6866934 -207920,-6866942 -207956,-6866949 -207978,-6866953 -207998,-6866955 -208021,-6866957 -208044,-6866958 -208064,-6866957 -208083,-6866956 -208159,-6866945 -208198,-6866938 -208217,-6866933 -208259,-6866921 -208393,-6866866 -208373,-6866909 -208369,-6866918 -208304,-6866982 -208256,-6867022 -208225,-6867053 -208213,-6867095 -208195,-6867149 -208188,-6867166 -208175,-6867187 -208173,-6867197 -208176,-6867208 -208188,-6867231 -208197,-6867250 -208202,-6867274 -208202,-6867282 -208200,-6867288 -208198,-6867293 -208196,-6867294 -208135,-6867300 -208121,-6867303 -208102,-6867311 -208083,-6867339 -208062,-6867340 -208053,-6867360 -208068,-6867386 -208053,-6867428 -208039,-6867428 -208030,-6867431 -208022,-6867435 -208017,-6867440 -208014,-6867444 -208013,-6867449 -208012,-6867467 -208011,-6867471 -208005,-6867477 -207991,-6867484 -207988,-6867487 -207985,-6867491 -207980,-6867501 -207978,-6867517 -207982,-6867541 -207981,-6867548 -207978,-6867556 -207975,-6867562 -207972,-6867566 -207968,-6867570 -207961,-6867573 -207957,-6867573 -207939,-6867569 -207932,-6867570 -207927,-6867573 -207921,-6867577 -207916,-6867582 -207913,-6867588 -207910,-6867595 -207908,-6867606 -207908,-6867615 -207922,-6867650 -207924,-6867656 -207923,-6867664 -207922,-6867669 -207904,-6867716 -207901,-6867723 -207896,-6867729 -207892,-6867734 -207880,-6867741 -207849,-6867754 -207829,-6867761 -207808,-6867802 -207785,-6867848 -207789,-6867875 -207789,-6867888 -207784,-6867896 -207774,-6867900 -207753,-6867902 -207728,-6867910 -207682,-6867922 -207651,-6867947 -207639,-6867967 -207629,-6867992 -207621,-6868030 -207618,-6868056 -207611,-6868123 -207602,-6868133 -207582,-6868148 -207566,-6868169 -207557,-6868183 -207549,-6868205 -207544,-6868224 -207534,-6868247 -207519,-6868264 -207492,-6868336 -207440,-6868394 -207432,-6868419 -207425,-6868448 -207424,-6868469 -207427,-6868496 -207426,-6868506 -207425,-6868510 -207421,-6868517 -207408,-6868536 -207403,-6868557 -207395,-6868577 -207396,-6868598 -207401,-6868623 -207402,-6868638 -207398,-6868654 -207390,-6868676 -207369,-6868708 -207334,-6868763 -207310,-6868792 -207278,-6868823 -207272,-6868829 -207268,-6868838 -207264,-6868850 -207263,-6868863 -207263,-6868876 -207266,-6868886 -207267,-6868892 -207278,-6868912 -207282,-6868925 -207282,-6868931 -207262,-6868981 -207260,-6869003 -207255,-6869027 -207241,-6869044 -207241,-6869044 -207228,-6869064 -207214,-6869089 -207205,-6869111 -207202,-6869138 -207202,-6869149 -207212,-6869179 -207224,-6869224 -207254,-6869322 -207257,-6869341 -207256,-6869368 -207254,-6869391 -207248,-6869417 -207235,-6869442 -207222,-6869471 -207203,-6869504 -207194,-6869523 -207191,-6869536 -207192,-6869543 -207194,-6869547 -207202,-6869561 -207207,-6869570 -207211,-6869592 -207213,-6869618 -207207,-6869631 -207186,-6869662 -207164,-6869693 -207159,-6869707 -207158,-6869714 -207159,-6869721 -207164,-6869733 -207172,-6869751 -207177,-6869759 -207187,-6869773 -207193,-6869786 -207198,-6869803 -207203,-6869824 -207201,-6869833 -207200,-6869836 -207195,-6869839 -207183,-6869838 -207176,-6869840 -207173,-6869842 -207170,-6869845 -207165,-6869858 -207155,-6869875 -207146,-6869882 -207132,-6869890 -207128,-6869892 -207116,-6869906 -207102,-6869915 -207090,-6869928 -207041,-6869994 -207033,-6870004 -206989,-6870084 -206980,-6870097 -206960,-6870121 -206942,-6870141 -206920,-6870152 -206913,-6870232 -206885,-6870230 -206873,-6870251 -206869,-6870263 -206863,-6870273 -206855,-6870283 -206847,-6870291 -206837,-6870298 -206832,-6870301 -206826,-6870304 -206816,-6870308 -206804,-6870311 -206794,-6870312 -206778,-6870309 -206772,-6870309 -206761,-6870310 -206755,-6870313 -206751,-6870314 -206746,-6870318 -206743,-6870322 -206740,-6870326 -206739,-6870329 -206739,-6870334 -206740,-6870338 -206741,-6870341 -206747,-6870351 -206752,-6870357 -206755,-6870360 -206796,-6870392 -206817,-6870418 -206838,-6870431 -206848,-6870442 -206856,-6870452 -206858,-6870457 -206859,-6870459 -206859,-6870464 -206858,-6870469 -206743,-6870613 -206739,-6870619 -206736,-6870622 -206733,-6870624 -206716,-6870629 -206680,-6870667 -206642,-6870705 -206630,-6870720 -206609,-6870746 -206565,-6870792 -206507,-6870858 -206474,-6870902 -206439,-6870953 -206409,-6870995 -206384,-6871022 -206351,-6871062 -206248,-6871183 -206214,-6871226 -206140,-6871312 -206081,-6871383 -206045,-6871424 -205981,-6871495 -205950,-6871532 -205928,-6871561 -205867,-6871641 -205829,-6871695 -205803,-6871737 -205730,-6871861 -205707,-6871903 -205654,-6872015 -205616,-6872116 -205572,-6872217 -205549,-6872276 -205533,-6872322 -205538,-6872325 -205489,-6872509 -205478,-6872555 -205475,-6872568 -205461,-6872633 -205451,-6872671 -205439,-6872736 -205438,-6872771 -205437,-6872850 -205471,-6872869 -205507,-6872887 -205556,-6872907 -205567,-6872910 -205574,-6872908 -205581,-6872905 -205613,-6872933 -205621,-6872941 -205652,-6872952 -205696,-6872972 -205709,-6872976 -205732,-6872979 -205742,-6872989 -205795,-6873010 -205806,-6873012 -205818,-6873024 -205856,-6873038 -205876,-6873053 -205905,-6873073 -205958,-6873084 -206012,-6873108 -206051,-6873040 -206059,-6873008 -206071,-6872975 -206087,-6872947 -206114,-6872899 -206130,-6872877 -206167,-6872912 -206204,-6872950 -206231,-6872978 -206281,-6873027 -206323,-6873058 -206347,-6873070 -206435,-6873104 -206571,-6873174 -206622,-6873202 -206656,-6873225 -206672,-6873244 -206694,-6873265 -206718,-6873279 -206741,-6873286 -206873,-6873316 -206949,-6873332 -206985,-6873342 -207021,-6873352 -207066,-6873368 -207140,-6873391 -207209,-6873418 -207250,-6873433 -207289,-6873458 -207311,-6873476 -207388,-6873549 -207413,-6873574 -207438,-6873620 -207476,-6873582 -207586,-6873654 -207613,-6873571 -207667,-6873581 -207754,-6873595 -207753,-6873607 -207908,-6873575 -207912,-6873563 -207989,-6873548 -208016,-6873544 -208027,-6873640 -208042,-6873665 -208057,-6873910 -208064,-6874019 -208068,-6874151 -208077,-6874201 -208075,-6874202 -208058,-6874209 -208032,-6874188 -208006,-6874235 -208005,-6874237 -207989,-6874251 -207962,-6874285 -207916,-6874329 -207883,-6874361 -207864,-6874356 -207846,-6874379 -207808,-6874452 -207785,-6874499 -207750,-6874568 -207741,-6874559 -207726,-6874542 -207717,-6874551 -207709,-6874560 -207681,-6874592 -207683,-6874594 -207734,-6874649 -207725,-6874656 -207726,-6874657 -207770,-6874705 -207784,-6874737 -207771,-6874740 -207793,-6874791 -207725,-6874819 -207659,-6874804 -207584,-6874782 -207572,-6874731 -207566,-6874706 -207560,-6874692 -207553,-6874670 -207514,-6874616 -207433,-6874530 -207412,-6874515 -207361,-6874479 -207329,-6874466 -207275,-6874452 -207186,-6874431 -207158,-6874419 -207127,-6874391 -207087,-6874393 -207006,-6874372 -206983,-6874364 -206953,-6874345 -206893,-6874319 -206870,-6874315 -206810,-6874312 -206551,-6874326 -206416,-6874330 -206379,-6874337 -206346,-6874357 -206322,-6874381 -206321,-6874382 -206321,-6874383 -206303,-6874402 -206262,-6874448 -206168,-6874550 -206126,-6874599 -206101,-6874625 -206076,-6874632 -206064,-6874635 -206053,-6874640 -206049,-6874644 -206047,-6874647 -206045,-6874657 -206034,-6874682 -206031,-6874683 -206024,-6874684 -205979,-6874658 -205969,-6874654 -205952,-6874677 -205917,-6874706 -205909,-6874710 -205878,-6874744 -205856,-6874750 -205850,-6874752 -205799,-6874608 -205798,-6874604 -205759,-6874606 -205702,-6874609 -205700,-6874604 -205698,-6874594 -205629,-6874609 -205601,-6874614 -205519,-6874627 -205411,-6874640 -205384,-6874647 -205339,-6874650 -205328,-6874647 -205291,-6874668 -205229,-6874696 -205217,-6874737 -205189,-6874842 -205200,-6874852 -205184,-6874909 -205129,-6875017 -205107,-6875009 -205091,-6875078 -205017,-6875146 -204956,-6875202 -204880,-6875263 -204875,-6875267 -204812,-6875319 -204787,-6875334 -204723,-6875394 -204657,-6875472 -204647,-6875482 -204621,-6875513 -204563,-6875603 -204524,-6875662 -204471,-6875717 -204456,-6875726 -204421,-6875765 -204400,-6875782 -204373,-6875810 -204302,-6875880 -204280,-6875910 -204270,-6875911 -204275,-6875921 -204248,-6875949 -204246,-6875947 -204231,-6875957 -204233,-6875964 -204227,-6875965 -204167,-6876041 -204129,-6876088 -204205,-6876163 -204130,-6876211 -204138,-6876225 -204076,-6876264 -204042,-6876287 -204040,-6876302 -204038,-6876321 -204036,-6876337 -204031,-6876382 -204019,-6876395 -203997,-6876458 -204000,-6876461 -203992,-6876473 -203992,-6876487 -203991,-6876495 -203989,-6876495 -203980,-6876497 -203944,-6876602 -203923,-6876662 -203859,-6876820 -203851,-6876822 -203845,-6876843 -203842,-6876848 -203806,-6876914 -203795,-6876936 -203758,-6876989 -203746,-6877015 -203742,-6877040 -203642,-6877189 -203542,-6877340 -203520,-6877380 -203491,-6877442 -203479,-6877477 -203443,-6877620 -203413,-6877737 -203397,-6877799 -203384,-6877847 -203359,-6877893 -203335,-6877933 -203275,-6878024 -203234,-6878082 -203215,-6878105 -203187,-6878124 -203183,-6878127 -203127,-6878157 -203038,-6878194 -202983,-6878213 -202761,-6878285 -202701,-6878307 -202645,-6878337 -202516,-6878415 -202488,-6878438 -202457,-6878469 -202401,-6878546 -202342,-6878623 -202302,-6878683 -202280,-6878723 -202269,-6878760 -202264,-6878779 -202257,-6878833 -202254,-6878853 -202247,-6878918 -202244,-6878948 -202246,-6879013 -202248,-6879189 -202245,-6879261 -202243,-6879275 -202237,-6879315 -202210,-6879431 -202173,-6879570 -202166,-6879639 -202168,-6879679 -202060,-6879683 -202047,-6879675 -202025,-6879675 -201995,-6879664 -201987,-6879665 -201981,-6879668 -201971,-6879696 -201948,-6879707 -201919,-6879731 -201912,-6879736 -201879,-6879787 -201877,-6879800 -201866,-6879803 -201865,-6879817 -201830,-6879920 -201817,-6879917 -201808,-6879937 -201809,-6879976 -201808,-6879978 -201794,-6879991 -201781,-6880029 -201751,-6880089 -201728,-6880115 -201712,-6880155 -201710,-6880158 -201700,-6880166 -201718,-6880172 -201719,-6880190 -201724,-6880189 -201799,-6880186 -201787,-6880210 -201775,-6880229 -201755,-6880248 -201692,-6880334 -201757,-6880444 -201663,-6880505 -201666,-6880511 -201741,-6880627 -201721,-6880637 -201699,-6880650 -201652,-6880697 -201546,-6880821 -201507,-6880858 -201480,-6880893 -201467,-6880910 -201455,-6880928 -201440,-6880949 -201438,-6880958 -201446,-6880969 -201489,-6881032 -201485,-6881035 -201474,-6881042 -201467,-6881044 -201445,-6881044 -201429,-6881048 -201411,-6881059 -201406,-6881062 -201400,-6881066 -201390,-6881074 -201383,-6881081 -201371,-6881100 -201339,-6881165 -201311,-6881227 -201296,-6881270 -201295,-6881273 -201261,-6881374 -201187,-6881617 -201148,-6881747 -201118,-6881845 -201111,-6881844 -201101,-6881844 -201067,-6881857 -201050,-6881860 -201050,-6881910 -201052,-6881949 -201072,-6881950 -201071,-6882002 -201068,-6882062 -201067,-6882106 -201067,-6882148 -201071,-6882189 -201061,-6882180 -201047,-6882169 -201034,-6882200 -200997,-6882339 -200968,-6882439 -200949,-6882460 -200945,-6882512 -200951,-6882549 -200960,-6882569 -200987,-6882595 -201028,-6882628 -201037,-6882647 -201039,-6882651 -200994,-6882718 -200993,-6882721 -200974,-6882761 -200968,-6882757 -200936,-6882737 -200921,-6882712 -200880,-6882775 -200726,-6883008 -200700,-6883044 -200700,-6883068 -200668,-6883114 -200657,-6883132 -200648,-6883128 -200576,-6883243 -200457,-6883377 -200452,-6883372 -200410,-6883419 -200409,-6883418 -200316,-6883338 -200235,-6883268 -200138,-6883179 -200107,-6883138 -200065,-6883072 -199894,-6882826 -199851,-6882863 -199810,-6882822 -199804,-6882828 -199799,-6882835 -199793,-6882829 -199741,-6882780 -199710,-6882734 -199684,-6882703 -199699,-6882693 -199705,-6882689 -199647,-6882658 -199627,-6882651 -199567,-6882616 -199581,-6882603 -199520,-6882560 -199517,-6882559 -199362,-6882498 -199397,-6882457 -199407,-6882445 -199356,-6882416 -199317,-6882396 -199315,-6882401 -199297,-6882440 -199293,-6882446 -199281,-6882445 -199197,-6882410 -199193,-6882415 -199148,-6882469 -199095,-6882425 -199094,-6882427 -199094,-6882429 -198845,-6882327 -198845,-6882325 -198638,-6882208 -198572,-6882170 -198579,-6882139 -198521,-6882107 -198491,-6882085 -198449,-6882060 -198433,-6882108 -198422,-6882104 -198406,-6882099 -198399,-6882116 -198331,-6882095 -198332,-6882087 -198332,-6882086 -198336,-6882071 -198303,-6882067 -198310,-6882026 -198295,-6882024 -198237,-6882018 -198237,-6882014 -198238,-6882005 -198178,-6881995 -198123,-6881988 -198051,-6881982 -198053,-6881932 -198049,-6881931 -197970,-6881933 -197920,-6881938 -197919,-6881979 -197907,-6881985 -197907,-6881985 -197887,-6881994 -197867,-6882019 -197861,-6882017 -197832,-6882013 -197813,-6882010 -197785,-6882009 -197708,-6882006 -197704,-6882055 -197697,-6882055 -197569,-6882055 -197565,-6882055 -197566,-6882027 -197566,-6882026 -197523,-6882027 -197494,-6882041 -197469,-6882052 -197446,-6882051 -197434,-6882063 -197421,-6882067 -197406,-6882087 -197382,-6882088 -197375,-6882088 -197365,-6882064 -197346,-6882052 -197345,-6882052 -197334,-6882052 -197315,-6882055 -197315,-6882054 -197311,-6882034 -197263,-6882047 -197267,-6882059 -197233,-6882069 -197230,-6882061 -197223,-6882045 -197126,-6882058 -197052,-6882075 -196996,-6882090 -196942,-6882103 -196925,-6882105 -196796,-6882066 -196707,-6882045 -196663,-6882038 -196665,-6882102 -196659,-6882102 -196621,-6882096 -196598,-6882097 -196499,-6882101 -196443,-6882098 -196392,-6882104 -196350,-6882112 -196302,-6882117 -196230,-6882122 -196183,-6882117 -196153,-6882107 -196119,-6882095 -196077,-6882072 -196073,-6882079 -196058,-6882111 -196055,-6882109 -196022,-6882089 -195975,-6882158 -195877,-6882252 -195773,-6882413 -195654,-6882599 -195543,-6882773 -195363,-6883051 -195918,-6883873 -196202,-6884292 -196215,-6884290 -196228,-6884330 -196298,-6884433 -196306,-6884511 -196322,-6884612 -196338,-6884838 -196339,-6884848 -196237,-6884957 -196113,-6885042 -195916,-6885007 -195866,-6885022 -195780,-6885049 -195778,-6885143 -195783,-6885182 -195799,-6885226 -195812,-6885249 -195837,-6885270 -195865,-6885309 -195867,-6885320 -195866,-6885335 -195862,-6885345 -195850,-6885362 -195846,-6885366 -195807,-6885408 -195791,-6885428 -195756,-6885488 -195723,-6885542 -195691,-6885620 -195675,-6885640 -195642,-6885666 -195589,-6885770 -195554,-6885838 -195532,-6885860 -195498,-6885888 -195472,-6885897 -195456,-6885897 -195450,-6885897 -195455,-6885905 -195496,-6885978 -195550,-6886073 -195613,-6886173 -195651,-6886229 -195772,-6886393 -195787,-6886431 -195804,-6886486 -195828,-6886545 -195829,-6886546 -195820,-6886583 -195820,-6886627 -195828,-6886754 -195766,-6886759 -195785,-6886929 -195787,-6886950 -195788,-6886958 -195786,-6886958 -195778,-6886958 -195792,-6887031 -195792,-6887111 -195812,-6887212 -195821,-6887297 -195877,-6887290 -195884,-6887289 -195887,-6887370 -195887,-6887377 -195903,-6887376 -195906,-6887454 -195840,-6887441 -195839,-6887441 -195840,-6887448 -195841,-6887458 -195796,-6887458 -195796,-6887496 -195797,-6887501 -195820,-6887502 -195822,-6887546 -195811,-6887546 -195812,-6887639 -195821,-6887649 -195822,-6887712 -195850,-6887711 -195861,-6887717 -195859,-6887809 -195856,-6887820 -195864,-6887841 -195879,-6887885 -195900,-6887921 -195816,-6887980 -195833,-6888008 -195828,-6888013 -195863,-6888097 -195915,-6888071 -195968,-6888110 -195973,-6888168 -196001,-6888166 -196005,-6888166 -196005,-6888178 -196004,-6888188 -196044,-6888317 -196096,-6888339 -196090,-6888344 -196058,-6888429 -196041,-6888478 -196038,-6888517 -196024,-6888529 -196018,-6888559 -196044,-6888574 -196068,-6888619 -196086,-6888633 -196142,-6888618 -196143,-6888611 -196144,-6888593 -196152,-6888586 -196170,-6888584 -196183,-6888599 -196205,-6888615 -196243,-6888598 -196266,-6888596 -196276,-6888605 -196280,-6888620 -196311,-6888677 -196329,-6888685 -196329,-6888705 -196308,-6888717 -196294,-6888738 -196291,-6888743 -196276,-6888747 -196243,-6888755 -196213,-6888778 -196189,-6888803 -196153,-6888848 -196128,-6888863 -196046,-6888897 -196067,-6888909 -196171,-6888937 -196181,-6888953 -196182,-6888975 -196186,-6889165 -196184,-6889233 -196122,-6889242 -196099,-6889282 -196084,-6889330 -196074,-6889362 -196059,-6889423 -196054,-6889440 -196043,-6889475 -196034,-6889502 -196032,-6889520 -196032,-6889551 -196028,-6889616 -196022,-6889690 -196017,-6889776 -196015,-6889877 -195969,-6889883 -195959,-6889891 -195958,-6889905 -195957,-6889933 -195951,-6889959 -195945,-6889982 -195932,-6890035 -195911,-6890076 -195892,-6890098 -195886,-6890105 -195863,-6890117 -195814,-6890153 -195806,-6890166 -195754,-6890244 -195684,-6890354 -195671,-6890366 -195621,-6890393 -195583,-6890448 -195564,-6890504 -195561,-6890524 -195561,-6890582 -195560,-6890586 -195535,-6890642 -195530,-6890657 -195530,-6890675 -195533,-6890703 -195532,-6890715 -195526,-6890763 -195518,-6890836 -195510,-6890872 -195502,-6890894 -195496,-6890909 -195452,-6890946 -195458,-6890949 -195565,-6891000 -195616,-6891022 -195700,-6891042 -195781,-6891061 -195795,-6891009 -195798,-6890999 -195935,-6891033 -195937,-6891026 -196057,-6891056 -196088,-6891061 -196093,-6891004 -196190,-6891020 -196197,-6891021 -196201,-6890991 -196387,-6891020 -196387,-6891026 -196364,-6891167 -196387,-6891171 -196389,-6891172 -196386,-6891187 -196445,-6891194 -196458,-6891186 -196460,-6891185 -196465,-6891184 -196468,-6891175 -196485,-6891178 -196484,-6891190 -196615,-6891211 -196723,-6891228 -196821,-6891242 -196822,-6891230 -196834,-6891229 -196833,-6891239 -196963,-6891257 -197065,-6891278 -197086,-6891297 -197089,-6891300 -197076,-6891342 -197075,-6891348 -197191,-6891378 -197206,-6891338 -197234,-6891345 -197235,-6891348 -197237,-6891355 -197241,-6891370 -197260,-6891382 -197278,-6891356 -197291,-6891359 -197308,-6891340 -197461,-6891322 -197543,-6891315 -197759,-6891292 -197895,-6891279 -197985,-6891269 -198044,-6891264 -198081,-6891255 -198231,-6891251 -198293,-6891253 -198389,-6891258 -198368,-6891308 -198374,-6891310 -198428,-6891337 -198431,-6891338 -198484,-6891343 -198573,-6891360 -198637,-6891377 -198675,-6891387 -198765,-6891412 -198976,-6891469 -199107,-6891501 -199259,-6891540 -199428,-6891584 -199472,-6891589 -199494,-6891590 -199550,-6891592 -199628,-6891588 -199691,-6891566 -199695,-6891577 -199761,-6891560 -199765,-6891559 -199778,-6891555 -199832,-6891528 -199891,-6891561 -199893,-6891563 -199975,-6891537 -199999,-6891531 -200034,-6891526 -200066,-6891528 -200090,-6891532 -200133,-6891544 -200164,-6891561 -200179,-6891568 -200218,-6891600 -200226,-6891607 -200234,-6891614 -200254,-6891639 -200275,-6891668 -200296,-6891718 -200308,-6891762 -200313,-6891798 -200313,-6891826 -200309,-6891888 -200303,-6891931 -200277,-6892006 -200229,-6892070 -200193,-6892098 -200100,-6892135 -199893,-6892178 -199741,-6892245 -199739,-6892330 -199720,-6892384 -199710,-6892448 -199709,-6892461 -199716,-6892492 -199718,-6892501 -199732,-6892524 -199742,-6892536 -199759,-6892546 -199787,-6892556 -199799,-6892560 -199763,-6892589 -199748,-6892617 -199728,-6892640 -199698,-6892658 -199668,-6892666 -199593,-6892670 -199513,-6892684 -199472,-6892698 -199455,-6892708 -199452,-6892712 -199445,-6892718 -199374,-6892722 -199243,-6892734 -199179,-6892741 -199110,-6892752 -199019,-6892765 -198962,-6892777 -198945,-6892781 -198945,-6892781 -198825,-6892810 -198662,-6892856 -198570,-6892889 -198428,-6892943 -198341,-6892984 -198203,-6893050 -197967,-6893178 -197828,-6893257 -197628,-6893366 -197486,-6893441 -197436,-6893464 -197391,-6893483 -197204,-6893553 -197061,-6893602 -196962,-6893627 -196866,-6893646 -196702,-6893670 -196603,-6893683 -196528,-6893688 -196412,-6893692 -196297,-6893692 -196153,-6893686 -195977,-6893661 -195916,-6893649 -195825,-6893632 -195605,-6893576 -195518,-6893547 -195424,-6893514 -195337,-6893475 -195242,-6893431 -195201,-6893413 -195069,-6893337 -194984,-6893287 -194903,-6893234 -194846,-6893195 -194770,-6893138 -194724,-6893101 -194614,-6893010 -194577,-6892977 -194502,-6892907 -194411,-6892818 -194366,-6892769 -194312,-6892706 -194280,-6892668 -194249,-6892630 -194196,-6892563 -194170,-6892526 -194138,-6892475 -194112,-6892437 -194096,-6892401 -194081,-6892370 -194056,-6892314 -194006,-6892198 -193956,-6892074 -193872,-6891852" stroke="#003087" stroke-width="61" /></ns0:svg>    <rect x="20" y="50"  width="250" height="25"  rx="0"  fill="#003087" fill-opacity="0.8" />    <text x="145" y="70" text-anchor="middle" font-family="Frutiger" font-weight="bold" font-size="30" fill="white">Solihull</text>    <rect x="35" y="195" width="220" height="160" rx="15" fill="#41B6E6"/>    <g font-family="Frutiger" font-size="15" fill="white">        <g> <text x="45" y="218">Self-harm</text> <text x="245" y="218" text-anchor="end">27</text> </g>        <g> <text x="45" y="243">SEN</text> <text x="245" y="243" text-anchor="end">46</text> </g>        <g> <text x="45" y="268">Difficulties</text> <text x="245" y="268" text-anchor="end">64</text> </g>        <g> <text x="45" y="293">Child Carer</text> <text x="245" y="293" text-anchor="end">48</text> </g>        <g> <text x="45" y="318">Drinkers</text> <text x="245" y="318" text-anchor="end">39</text> </g>        <g> <text x="45" y="343">Safeguarding </text> <text x="245" y="343" text-anchor="end">27</text> </g>    </g></svg>