<?xml version="1.0" standalone="no"?>
<!DOCTYPE svg PUBLIC "-//W3C//DTD SVG 1.1//EN"
"http://www.w3.org/Graphics/SVG/1.1/DTD/svg11.dtd">
<svg height="1800" version="1.1" width="1800" xmlns="http://www.w3.org/2000/svg"><defs><style type="text/css">@font-face {font-family: 'Frutiger';font-style: normal;font-weight: normal;src: local('Frutiger'), url('../fonts/Frutiger.woff') format('woff');}@font-face {font-family: 'Frutiger Bold';font-style: normal;font-weight: normal;src: local('Frutiger Bold'), url('../fonts/Frutiger_bold.woff') format('woff');}        </style>    </defs>    <rect x="20" y="20"  width="250" height="350" rx="15" fill="#009639" />    <rect x="35" y="35"  width="220" height="145" rx="15" fill="#E8EDEE" /><ns0:svg xmlns:ns0="http://www.w3.org/2000/svg" height="115" version="1.1" viewBox="-202889 -7097152 60878 32663" width="220" x="35" y="50"><ns0:polygon fill="#006747" points=" -161082,-7097086 -161067,-7097080 -161062,-7097129 -160999,-7097015 -160990,-7097020 -160981,-7097024 -160927,-7096910 -160817,-7096737 -160754,-7096682 -160689,-7096644 -160670,-7096628 -160659,-7096639 -160575,-7096608 -160508,-7096533 -160390,-7096373 -160305,-7096214 -160266,-7096157 -160210,-7096087 -160191,-7096099 -160140,-7096110 -160127,-7096106 -160053,-7096035 -160078,-7096023 -160000,-7096009 -159916,-7095990 -159889,-7096074 -159881,-7096088 -159889,-7096102 -159888,-7096138 -159862,-7096182 -159868,-7096187 -159830,-7096244 -159824,-7096245 -159828,-7096253 -159810,-7096260 -159809,-7096276 -159804,-7096284 -159661,-7096283 -159626,-7096389 -159570,-7096363 -159535,-7096412 -159512,-7096439 -159411,-7096347 -159458,-7096297 -159427,-7096268 -159400,-7096301 -159295,-7096188 -159211,-7096101 -159194,-7096072 -159194,-7096040 -159145,-7096021 -159097,-7095999 -159106,-7095985 -159110,-7095968 -159111,-7095900 -159127,-7095865 -159126,-7095802 -159120,-7095773 -159051,-7095699 -159039,-7095691 -159005,-7095686 -159006,-7095680 -158911,-7095669 -158823,-7095653 -158715,-7095633 -158655,-7095625 -158635,-7095618 -158622,-7095607 -158618,-7095603 -158611,-7095596 -158594,-7095564 -158583,-7095542 -158563,-7095513 -158536,-7095488 -158446,-7095424 -158443,-7095433 -158435,-7095428 -158438,-7095418 -158342,-7095381 -158253,-7095361 -158211,-7095359 -158144,-7095364 -158086,-7095372 -158043,-7095374 -157988,-7095364 -157963,-7095369 -157954,-7095377 -157935,-7095384 -157958,-7095439 -157965,-7095470 -157945,-7095455 -157903,-7095434 -157837,-7095407 -157796,-7095402 -157796,-7095386 -157549,-7095377 -157515,-7095337 -157463,-7095271 -157380,-7095174 -157267,-7095006 -157222,-7095018 -157200,-7095022 -157180,-7095020 -157157,-7095011 -157103,-7094999 -157103,-7095014 -157077,-7095025 -157069,-7095020 -157059,-7095030 -157045,-7095025 -157036,-7095004 -157022,-7094994 -156996,-7094993 -156975,-7094996 -156934,-7094994 -156868,-7095007 -156841,-7095006 -156825,-7095010 -156813,-7095005 -156784,-7094993 -156782,-7094992 -156745,-7094988 -156736,-7094991 -156720,-7095010 -156654,-7095027 -156619,-7094992 -156620,-7094970 -156611,-7094953 -156587,-7094954 -156562,-7094967 -156544,-7094971 -156521,-7094964 -156510,-7094960 -156495,-7094935 -156483,-7094922 -156485,-7094885 -156481,-7094870 -156470,-7094864 -156450,-7094856 -156431,-7094838 -156381,-7094832 -156370,-7094823 -156354,-7094823 -156325,-7094833 -156307,-7094831 -156281,-7094839 -156257,-7094847 -156219,-7094843 -156119,-7094824 -156068,-7094809 -156049,-7094806 -156040,-7094801 -156033,-7094794 -156028,-7094746 -156008,-7094710 -155970,-7094649 -155934,-7094592 -155919,-7094564 -155887,-7094512 -155874,-7094512 -155867,-7094512 -155848,-7094526 -155762,-7094563 -155634,-7094622 -155558,-7094664 -155510,-7094683 -155417,-7094730 -155413,-7094756 -155410,-7094780 -155396,-7094799 -155379,-7094816 -155361,-7094833 -155327,-7094867 -155293,-7094872 -155272,-7094872 -155222,-7094877 -155203,-7094885 -155164,-7094915 -155131,-7094945 -155107,-7094962 -155068,-7094973 -155052,-7094998 -155060,-7095006 -155046,-7095025 -155042,-7095029 -154946,-7095076 -154935,-7095084 -154928,-7095088 -154920,-7095091 -154897,-7095094 -154747,-7095158 -154516,-7095263 -154423,-7095299 -154400,-7095328 -154371,-7095352 -154332,-7095377 -154294,-7095374 -154255,-7095388 -154176,-7095429 -154127,-7095444 -154086,-7095467 -154053,-7095490 -154019,-7095528 -153971,-7095567 -153960,-7095596 -153939,-7095620 -153928,-7095634 -153897,-7095666 -153839,-7095729 -153799,-7095783 -153773,-7095802 -153692,-7095845 -153659,-7095852 -153643,-7095863 -153619,-7095879 -153609,-7095884 -153573,-7095938 -153560,-7095954 -153550,-7095965 -153548,-7095967 -153542,-7095972 -153537,-7095976 -153524,-7095983 -153518,-7095990 -153516,-7095994 -153512,-7095999 -153508,-7095999 -153468,-7096002 -153443,-7096001 -153411,-7095994 -153359,-7095978 -153325,-7095977 -153274,-7095969 -153253,-7095977 -153251,-7095976 -153241,-7095973 -153239,-7095951 -153221,-7095925 -153196,-7095893 -153086,-7095842 -153041,-7095815 -153004,-7095793 -152988,-7095785 -152954,-7095791 -152949,-7095792 -152917,-7095784 -152837,-7095762 -152739,-7095715 -152666,-7095680 -152621,-7095650 -152578,-7095614 -152541,-7095591 -152455,-7095548 -152411,-7095523 -152392,-7095497 -152372,-7095465 -152352,-7095437 -152333,-7095415 -152287,-7095402 -152264,-7095385 -152217,-7095376 -152139,-7095344 -152066,-7095298 -152043,-7095274 -152045,-7095266 -152013,-7095243 -151975,-7095188 -151951,-7095175 -151928,-7095153 -151900,-7095125 -151822,-7095100 -151824,-7095083 -151814,-7095062 -151789,-7095047 -151723,-7094969 -151689,-7094913 -151666,-7094891 -151637,-7094823 -151604,-7094793 -151547,-7094703 -151534,-7094693 -151476,-7094609 -151439,-7094544 -151419,-7094504 -151405,-7094436 -151396,-7094343 -151398,-7094283 -151386,-7094253 -151386,-7094165 -151201,-7094047 -150966,-7093895 -150962,-7093892 -150966,-7093819 -150965,-7093806 -150950,-7093752 -150931,-7093730 -150900,-7093692 -150891,-7093666 -150889,-7093618 -150884,-7093565 -150879,-7093526 -150863,-7093477 -150841,-7093429 -150822,-7093409 -150795,-7093365 -150795,-7093283 -150799,-7093262 -150799,-7093206 -150818,-7093161 -150838,-7093134 -150844,-7093114 -150866,-7093062 -150895,-7093006 -150922,-7092949 -150923,-7092887 -150930,-7092869 -150942,-7092844 -150957,-7092817 -150971,-7092786 -150981,-7092766 -150990,-7092696 -150980,-7092643 -150960,-7092588 -150920,-7092497 -150879,-7092405 -150846,-7092323 -150837,-7092288 -150809,-7092177 -150792,-7092176 -150758,-7092038 -150744,-7091964 -150743,-7091957 -150738,-7091922 -150715,-7091649 -150602,-7091472 -150486,-7091281 -150440,-7091213 -150257,-7091474 -150209,-7091540 -150140,-7091638 -150132,-7091633 -150108,-7091616 -150021,-7091620 -150019,-7091591 -150008,-7091551 -149983,-7091469 -149970,-7091449 -149966,-7091452 -149978,-7091390 -149991,-7091284 -150000,-7091226 -150001,-7091171 -150002,-7091120 -150013,-7091089 -150010,-7091023 -150013,-7090987 -150010,-7090968 -150004,-7090952 -149994,-7090938 -149985,-7090935 -149939,-7090956 -149924,-7090957 -149879,-7090910 -149860,-7090875 -149835,-7090842 -149822,-7090822 -149817,-7090810 -149787,-7090763 -149761,-7090726 -149731,-7090689 -149719,-7090670 -149709,-7090626 -149706,-7090605 -149710,-7090587 -149729,-7090548 -149750,-7090513 -149768,-7090486 -149786,-7090462 -149805,-7090435 -149755,-7090393 -149711,-7090352 -149698,-7090319 -149702,-7090275 -149666,-7090210 -149647,-7090174 -149626,-7090120 -149610,-7090075 -149567,-7090027 -149518,-7089948 -149471,-7089879 -149454,-7089844 -149443,-7089819 -149430,-7089790 -149416,-7089744 -149397,-7089639 -149367,-7089580 -149355,-7089567 -149324,-7089535 -149313,-7089522 -149301,-7089506 -149253,-7089397 -149241,-7089370 -149214,-7089327 -149201,-7089305 -149182,-7089283 -149180,-7089281 -149159,-7089258 -149135,-7089233 -149081,-7089149 -149057,-7089100 -149050,-7089082 -149036,-7089054 -149037,-7089034 -149024,-7088984 -149002,-7088922 -148993,-7088903 -148979,-7088883 -148926,-7088830 -148902,-7088809 -148879,-7088779 -148866,-7088753 -148862,-7088736 -148869,-7088690 -148870,-7088662 -148856,-7088631 -148830,-7088584 -148809,-7088560 -148789,-7088545 -148726,-7088474 -148715,-7088454 -148733,-7088431 -148725,-7088418 -148715,-7088397 -148682,-7088341 -148672,-7088342 -148616,-7088255 -148583,-7088218 -148523,-7088159 -148460,-7088102 -148442,-7088078 -148434,-7088067 -148384,-7088005 -148355,-7087958 -148344,-7087958 -148335,-7087945 -148329,-7087919 -148318,-7087881 -148323,-7087878 -148316,-7087855 -148296,-7087801 -148294,-7087799 -148286,-7087788 -148261,-7087757 -148220,-7087701 -148153,-7087580 -148127,-7087550 -148019,-7087483 -147938,-7087422 -147932,-7087412 -147914,-7087396 -147888,-7087367 -147802,-7087248 -147784,-7087215 -147749,-7087137 -147733,-7087107 -147690,-7087016 -147699,-7086921 -147520,-7086875 -147516,-7086858 -147469,-7086842 -147414,-7086824 -147360,-7086806 -147296,-7086796 -147268,-7086786 -147248,-7086779 -147221,-7086784 -147202,-7086801 -147164,-7086836 -147149,-7086853 -147089,-7086896 -147025,-7086929 -147007,-7086928 -146952,-7086923 -146912,-7086895 -146859,-7086870 -146824,-7086859 -146803,-7086850 -146779,-7086845 -146749,-7086842 -146714,-7086831 -146664,-7086831 -146632,-7086813 -146515,-7086683 -146395,-7086547 -146364,-7086538 -146266,-7086530 -146173,-7086492 -146133,-7086480 -146038,-7086456 -145987,-7086459 -145938,-7086465 -145881,-7086467 -145837,-7086457 -145676,-7086413 -145623,-7086403 -145568,-7086384 -145534,-7086376 -145432,-7086360 -145394,-7086347 -145318,-7086314 -145186,-7086278 -145165,-7086281 -145125,-7086239 -145069,-7086185 -145072,-7086180 -145048,-7086148 -144982,-7086070 -144928,-7086019 -144857,-7085957 -144814,-7085925 -144729,-7085864 -144614,-7085791 -144592,-7085774 -144555,-7085740 -144499,-7085702 -144454,-7085668 -144432,-7085647 -144410,-7085616 -144379,-7085569 -144367,-7085546 -144360,-7085520 -144329,-7085382 -144311,-7085348 -144290,-7085313 -144268,-7085278 -144166,-7085119 -144083,-7084983 -144040,-7084880 -144008,-7084820 -143978,-7084791 -143929,-7084747 -143891,-7084717 -143881,-7084713 -143873,-7084720 -143870,-7084717 -143871,-7084710 -143870,-7084706 -143868,-7084702 -143824,-7084657 -143772,-7084603 -143663,-7084489 -143575,-7084384 -143490,-7084287 -143449,-7084245 -143444,-7084236 -143442,-7084233 -143423,-7084118 -143422,-7084087 -143427,-7084085 -143416,-7084006 -143404,-7083950 -143388,-7083856 -143377,-7083774 -143366,-7083711 -143427,-7083682 -143498,-7083667 -143530,-7083655 -143478,-7083507 -143466,-7083468 -143431,-7083381 -143377,-7083261 -143342,-7083204 -143266,-7083078 -143386,-7083028 -143456,-7083005 -143516,-7082977 -143638,-7082937 -143690,-7082912 -143822,-7082824 -143885,-7082783 -143959,-7082750 -144026,-7082729 -143948,-7082637 -143862,-7082576 -143730,-7082494 -143692,-7082470 -143603,-7082423 -143579,-7082413 -143563,-7082397 -143535,-7082367 -143519,-7082334 -143509,-7082317 -143495,-7082269 -143487,-7082245 -143471,-7082196 -143458,-7082168 -143441,-7082135 -143417,-7082105 -143384,-7082071 -143375,-7082055 -143358,-7082033 -143335,-7082066 -143327,-7082076 -143316,-7082100 -143270,-7082145 -143250,-7082162 -143230,-7082173 -143209,-7082182 -143163,-7082203 -143128,-7082193 -143115,-7082189 -143107,-7082187 -143094,-7082182 -143083,-7082178 -143008,-7082099 -142994,-7082078 -143006,-7082027 -143014,-7082016 -143040,-7082002 -143046,-7081996 -143051,-7081973 -143050,-7081939 -143036,-7081901 -143009,-7081855 -142983,-7081817 -142933,-7081750 -142848,-7081710 -142828,-7081718 -142747,-7081763 -142674,-7081847 -142636,-7081917 -142516,-7081912 -142477,-7081878 -142460,-7081856 -142480,-7081808 -142221,-7081751 -142047,-7081715 -142043,-7081679 -142013,-7081611 -142011,-7081537 -142014,-7081517 -142019,-7081512 -142028,-7081307 -142032,-7081298 -142024,-7081289 -142075,-7081292 -142218,-7081329 -142459,-7081392 -142644,-7081444 -142647,-7081442 -142718,-7081332 -142768,-7081247 -142827,-7081151 -142839,-7081142 -142851,-7081127 -142883,-7081143 -142968,-7081184 -143070,-7081236 -143089,-7081236 -143145,-7081101 -143147,-7081102 -143161,-7081069 -143176,-7081034 -143171,-7081030 -143003,-7080864 -142850,-7080715 -142773,-7080636 -142681,-7080533 -142648,-7080480 -142617,-7080448 -142607,-7080449 -142540,-7080377 -142494,-7080324 -142472,-7080308 -142476,-7080297 -142440,-7080280 -142406,-7080254 -142315,-7080121 -142216,-7080013 -142099,-7079887 -142158,-7079833 -142194,-7079799 -142236,-7079753 -142321,-7079644 -142382,-7079554 -142457,-7079417 -142604,-7079141 -142617,-7079125 -142631,-7079112 -142650,-7079107 -142675,-7079106 -142704,-7079115 -142746,-7079130 -142774,-7079129 -142776,-7079128 -142782,-7079125 -142798,-7079117 -142810,-7079101 -142824,-7079057 -142830,-7079021 -142840,-7078963 -142843,-7078963 -142858,-7078965 -142882,-7078968 -142882,-7078944 -142884,-7078935 -142890,-7078935 -142924,-7078941 -142937,-7078922 -142937,-7078914 -142937,-7078899 -142955,-7078886 -142977,-7078872 -143079,-7078828 -143138,-7078801 -143153,-7078792 -143173,-7078778 -143192,-7078755 -143230,-7078769 -143299,-7078800 -143326,-7078818 -143345,-7078834 -143353,-7078843 -143360,-7078858 -143374,-7078913 -143389,-7078944 -143406,-7078961 -143425,-7078972 -143448,-7078977 -143477,-7078973 -143487,-7078972 -143508,-7078965 -143587,-7078925 -143594,-7078923 -143605,-7078921 -143627,-7078921 -143683,-7078940 -143708,-7078942 -143729,-7078940 -143823,-7078913 -143867,-7078909 -143887,-7078905 -143988,-7078878 -144013,-7078873 -144043,-7078874 -144063,-7078881 -144083,-7078892 -144106,-7078899 -144136,-7078901 -144166,-7078897 -144210,-7078888 -144234,-7078880 -144264,-7078854 -144285,-7078840 -144312,-7078831 -144336,-7078828 -144391,-7078826 -144449,-7078828 -144469,-7078832 -144484,-7078839 -144526,-7078859 -144558,-7078873 -144577,-7078877 -144608,-7078877 -144647,-7078868 -144729,-7078827 -144769,-7078806 -144839,-7078758 -144890,-7078728 -144979,-7078683 -145034,-7078656 -145078,-7078634 -145107,-7078622 -145130,-7078614 -145158,-7078610 -145185,-7078605 -145236,-7078601 -145298,-7078601 -145341,-7078603 -145411,-7078611 -145453,-7078615 -145503,-7078620 -145538,-7078620 -145557,-7078614 -145566,-7078612 -145574,-7078608 -145599,-7078590 -145673,-7078531 -145755,-7078476 -145797,-7078449 -145822,-7078432 -145838,-7078426 -145858,-7078423 -145908,-7078418 -145946,-7078420 -145962,-7078427 -145973,-7078436 -145985,-7078461 -145991,-7078483 -145980,-7078551 -145977,-7078584 -145985,-7078596 -145997,-7078605 -146079,-7078608 -146100,-7078607 -146113,-7078602 -146149,-7078582 -146178,-7078564 -146193,-7078554 -146248,-7078504 -146284,-7078475 -146320,-7078453 -146339,-7078447 -146351,-7078444 -146376,-7078439 -146416,-7078435 -146450,-7078438 -146472,-7078442 -146502,-7078456 -146534,-7078470 -146571,-7078471 -146623,-7078469 -146656,-7078467 -146677,-7078466 -146736,-7078469 -146771,-7078477 -146800,-7078490 -146829,-7078510 -146857,-7078540 -146882,-7078577 -146896,-7078600 -146916,-7078617 -146943,-7078628 -146970,-7078635 -146995,-7078640 -147012,-7078637 -147034,-7078629 -147051,-7078620 -147053,-7078619 -147069,-7078610 -147094,-7078589 -147108,-7078573 -147138,-7078542 -147167,-7078514 -147184,-7078500 -147198,-7078491 -147210,-7078486 -147226,-7078480 -147255,-7078474 -147263,-7078473 -147274,-7078475 -147309,-7078485 -147335,-7078490 -147364,-7078490 -147447,-7078481 -147459,-7078476 -147468,-7078468 -147515,-7078418 -147564,-7078366 -147579,-7078350 -147587,-7078343 -147610,-7078333 -147630,-7078344 -147647,-7078363 -147654,-7078382 -147655,-7078383 -147655,-7078384 -147661,-7078400 -147678,-7078422 -147687,-7078427 -147701,-7078437 -147756,-7078469 -147842,-7078519 -147865,-7078533 -147881,-7078553 -147899,-7078583 -147934,-7078640 -147968,-7078691 -147983,-7078710 -147994,-7078721 -147994,-7078722 -148002,-7078729 -148023,-7078742 -148065,-7078761 -148080,-7078767 -148091,-7078770 -148103,-7078772 -148107,-7078772 -148116,-7078773 -148140,-7078773 -148196,-7078765 -148250,-7078758 -148410,-7078731 -148484,-7078721 -148518,-7078717 -148565,-7078717 -148685,-7078727 -148836,-7078755 -148920,-7078767 -149022,-7078779 -149116,-7078792 -149225,-7078795 -149299,-7078794 -149322,-7078793 -149366,-7078784 -149473,-7078749 -149528,-7078733 -149558,-7078724 -149571,-7078708 -149581,-7078696 -149655,-7078668 -149713,-7078648 -149730,-7078645 -149830,-7078653 -149963,-7078651 -150089,-7078646 -150138,-7078645 -150154,-7078644 -150264,-7078636 -150312,-7078641 -150376,-7078632 -150431,-7078619 -150478,-7078613 -150638,-7078586 -150723,-7078569 -150802,-7078559 -150948,-7078533 -151026,-7078522 -151175,-7078493 -151192,-7078490 -151327,-7078467 -151410,-7078452 -151424,-7078454 -151769,-7078615 -151935,-7078692 -152163,-7078799 -152268,-7078848 -152381,-7078894 -152383,-7078874 -152385,-7078848 -152390,-7078850 -152392,-7078850 -152398,-7078808 -152415,-7078806 -152422,-7078788 -152410,-7078775 -152429,-7078732 -152427,-7078729 -152426,-7078727 -152430,-7078719 -152433,-7078720 -152475,-7078740 -152540,-7078761 -152571,-7078783 -152635,-7078779 -152688,-7078772 -152724,-7078772 -152783,-7078764 -152895,-7078757 -152960,-7078749 -152971,-7078747 -153122,-7078739 -153145,-7078734 -153175,-7078734 -153233,-7078727 -153298,-7078722 -153375,-7078710 -153396,-7078687 -153412,-7078683 -153423,-7078685 -153431,-7078691 -153447,-7078696 -153456,-7078713 -153464,-7078724 -153495,-7078740 -153515,-7078744 -153535,-7078726 -153549,-7078715 -153571,-7078700 -153582,-7078685 -153588,-7078693 -153603,-7078692 -153616,-7078684 -153631,-7078688 -153708,-7078637 -153722,-7078624 -153742,-7078597 -153845,-7078501 -154003,-7078375 -154040,-7078342 -154083,-7078299 -154203,-7078206 -154317,-7078108 -154464,-7077981 -154469,-7077983 -154584,-7077881 -154616,-7077854 -154694,-7077785 -154717,-7077766 -154777,-7077715 -154890,-7077621 -155113,-7077437 -155245,-7077320 -155357,-7077242 -155376,-7077216 -155409,-7077188 -155512,-7077091 -155512,-7077088 -155486,-7077059 -155462,-7077049 -155452,-7077032 -155451,-7077030 -155436,-7077017 -155449,-7077013 -155475,-7077006 -155704,-7076990 -155845,-7076979 -155972,-7076970 -156207,-7076952 -156213,-7076946 -156311,-7076946 -156468,-7076932 -156469,-7076884 -156464,-7076847 -156511,-7076832 -156509,-7076827 -156602,-7076793 -156616,-7076790 -156648,-7076773 -156670,-7076745 -156660,-7076728 -156705,-7076692 -156693,-7076678 -156713,-7076661 -156728,-7076651 -156727,-7076646 -156745,-7076634 -156749,-7076640 -156760,-7076643 -156771,-7076635 -156789,-7076661 -156807,-7076647 -156843,-7076594 -156867,-7076559 -156890,-7076516 -156926,-7076436 -156978,-7076332 -156990,-7076303 -156993,-7076287 -157017,-7076233 -157031,-7076207 -157081,-7076067 -157118,-7075999 -157200,-7075882 -157116,-7075842 -157110,-7075831 -157092,-7075820 -157091,-7075825 -157034,-7075791 -156927,-7075740 -156977,-7075661 -156980,-7075627 -156991,-7075595 -157011,-7075549 -157041,-7075474 -157050,-7075446 -157068,-7075423 -157084,-7075416 -157092,-7075400 -157113,-7075377 -157153,-7075316 -157158,-7075314 -157195,-7075297 -157228,-7075276 -157268,-7075244 -157283,-7075239 -157320,-7075209 -157368,-7075176 -157421,-7075148 -157459,-7075122 -157457,-7075112 -157561,-7075077 -157632,-7075054 -157648,-7075042 -157657,-7075028 -157667,-7075016 -157682,-7074983 -157685,-7074903 -157693,-7074882 -157700,-7074869 -157719,-7074839 -157723,-7074828 -157717,-7074819 -157698,-7074797 -157674,-7074782 -157643,-7074780 -157605,-7074772 -157578,-7074757 -157578,-7074746 -157553,-7074702 -157548,-7074658 -157536,-7074623 -157552,-7074615 -157581,-7074607 -157628,-7074604 -157682,-7074577 -157702,-7074572 -157716,-7074565 -157721,-7074569 -157747,-7074568 -157777,-7074537 -157808,-7074507 -157854,-7074476 -157905,-7074426 -157960,-7074373 -157982,-7074357 -158002,-7074375 -158027,-7074389 -158053,-7074390 -158051,-7074343 -158043,-7074320 -158056,-7074282 -158051,-7074265 -158054,-7074184 -158057,-7074140 -158064,-7074123 -158308,-7074115 -158341,-7074159 -158382,-7074204 -158410,-7074181 -158455,-7074145 -158520,-7074105 -158557,-7074073 -158611,-7074014 -158652,-7073959 -158690,-7073906 -158710,-7073841 -158733,-7073746 -158732,-7073730 -158755,-7073674 -158749,-7073667 -158805,-7073587 -158836,-7073545 -158895,-7073467 -158939,-7073413 -158960,-7073378 -158982,-7073406 -159026,-7073445 -159101,-7073498 -159205,-7073565 -159216,-7073566 -159220,-7073574 -159279,-7073609 -159394,-7073687 -159423,-7073701 -159521,-7073772 -159564,-7073796 -159662,-7073829 -159721,-7073842 -159767,-7073849 -159786,-7073852 -159811,-7073862 -159853,-7073893 -159933,-7073963 -159957,-7073982 -159966,-7073983 -159969,-7073990 -160059,-7074061 -160154,-7074154 -160262,-7074248 -160378,-7074348 -160393,-7074358 -160403,-7074361 -160417,-7074360 -160429,-7074354 -160498,-7074290 -160519,-7074269 -160525,-7074263 -160542,-7074231 -160559,-7074205 -160593,-7074145 -160646,-7074044 -160661,-7074003 -160711,-7073894 -160698,-7073892 -160686,-7073877 -160734,-7073833 -160795,-7073780 -160838,-7073752 -160925,-7073699 -161042,-7073626 -161262,-7073493 -161373,-7073423 -161410,-7073394 -161567,-7073273 -161658,-7073205 -161628,-7073109 -161606,-7073049 -161575,-7072982 -161548,-7072882 -161507,-7072720 -161499,-7072701 -161494,-7072614 -161485,-7072521 -161472,-7072360 -161458,-7072183 -161452,-7072009 -161452,-7071872 -161462,-7071795 -161472,-7071773 -161470,-7071761 -161524,-7071675 -161608,-7071580 -161662,-7071526 -161690,-7071498 -161731,-7071464 -161839,-7071365 -161870,-7071332 -161886,-7071316 -161884,-7071314 -161889,-7071308 -161896,-7071313 -161940,-7071277 -161967,-7071238 -161970,-7071238 -161976,-7071233 -161988,-7071237 -162169,-7071079 -162141,-7071024 -162117,-7070961 -162105,-7070913 -162088,-7070880 -162022,-7070780 -161996,-7070743 -161994,-7070740 -162046,-7070741 -162072,-7070747 -162128,-7070766 -162131,-7070772 -162139,-7070774 -162162,-7070852 -162189,-7070897 -162231,-7070951 -162244,-7070974 -162266,-7071016 -162274,-7071019 -162276,-7071020 -162311,-7071084 -162366,-7071181 -162421,-7071282 -162481,-7071373 -162530,-7071438 -162561,-7071495 -162577,-7071512 -162605,-7071537 -162616,-7071547 -162630,-7071549 -162632,-7071550 -162639,-7071551 -162646,-7071551 -162663,-7071554 -162667,-7071558 -162709,-7071598 -162713,-7071603 -162726,-7071617 -162764,-7071686 -162777,-7071709 -162799,-7071737 -162850,-7071813 -162882,-7071856 -162914,-7071886 -162957,-7071916 -162973,-7071924 -162976,-7071926 -162992,-7071933 -163009,-7071940 -163025,-7071947 -163043,-7071952 -163060,-7071957 -163066,-7071958 -163083,-7071962 -163100,-7071965 -163117,-7071967 -163134,-7071968 -163151,-7071969 -163155,-7071969 -163161,-7071970 -163168,-7071970 -163227,-7071962 -163243,-7071950 -163264,-7071915 -163269,-7071908 -163294,-7071920 -163315,-7071930 -163333,-7071948 -163334,-7071950 -163374,-7071955 -163526,-7071983 -163581,-7071997 -163641,-7072014 -163694,-7072031 -163740,-7072039 -163806,-7072048 -163888,-7072065 -163972,-7072086 -164104,-7072120 -164144,-7072124 -164185,-7072144 -164295,-7072175 -164344,-7072201 -164360,-7072205 -164381,-7072218 -164433,-7072239 -164461,-7072257 -164496,-7072266 -164576,-7072333 -164641,-7072380 -164704,-7072436 -164733,-7072463 -164774,-7072527 -164802,-7072563 -164870,-7072631 -164919,-7072697 -164978,-7072800 -165009,-7072847 -165063,-7072919 -165118,-7072986 -165204,-7073114 -165248,-7073161 -165291,-7073200 -165314,-7073229 -165347,-7073246 -165439,-7073285 -165505,-7073329 -165532,-7073351 -165558,-7073383 -165585,-7073407 -165611,-7073419 -165647,-7073420 -165749,-7073463 -165804,-7073486 -165870,-7073507 -165901,-7073512 -165932,-7073517 -165959,-7073518 -166002,-7073522 -166042,-7073525 -166175,-7073522 -166193,-7073488 -166211,-7073472 -166233,-7073458 -166272,-7073457 -166394,-7073456 -166419,-7073395 -166439,-7073325 -166450,-7073259 -166446,-7073219 -166431,-7073131 -166424,-7073077 -166421,-7072999 -166395,-7072866 -166384,-7072788 -166381,-7072717 -166380,-7072679 -166395,-7072646 -166397,-7072627 -166396,-7072619 -166387,-7072571 -166386,-7072527 -166386,-7072503 -166380,-7072484 -166403,-7072475 -166412,-7072464 -166431,-7072442 -166441,-7072412 -166448,-7072384 -166442,-7072374 -166442,-7072363 -166449,-7072349 -166495,-7072281 -166560,-7072176 -166667,-7072014 -166770,-7071845 -166827,-7071749 -166919,-7071602 -166966,-7071532 -166977,-7071504 -166991,-7071486 -166997,-7071470 -167031,-7071458 -167060,-7071413 -167076,-7071399 -167134,-7071315 -167264,-7071141 -167295,-7071099 -167375,-7070992 -167415,-7070931 -167497,-7070803 -167536,-7070745 -167560,-7070699 -167608,-7070586 -167634,-7070527 -167668,-7070483 -167696,-7070448 -167757,-7070309 -167764,-7070272 -167798,-7070186 -167822,-7070121 -167835,-7070078 -167837,-7070010 -167839,-7069899 -167837,-7069852 -167831,-7069832 -167851,-7069825 -167854,-7069816 -167853,-7069780 -167869,-7069772 -167874,-7069766 -167894,-7069769 -167899,-7069758 -167898,-7069749 -167929,-7069741 -167943,-7069746 -167971,-7069726 -167981,-7069727 -167992,-7069736 -168114,-7069687 -168260,-7069629 -168290,-7069619 -168318,-7069574 -168365,-7069532 -168413,-7069497 -168462,-7069449 -168509,-7069396 -168559,-7069327 -168628,-7069228 -168637,-7069154 -168642,-7069056 -168632,-7069036 -168634,-7069011 -168644,-7068976 -168631,-7068960 -168633,-7068880 -168673,-7068848 -168682,-7068796 -168694,-7068765 -168711,-7068739 -168795,-7068652 -168748,-7068592 -168739,-7068582 -168685,-7068523 -168652,-7068475 -168688,-7068435 -168747,-7068373 -168861,-7068272 -168889,-7068250 -168915,-7068230 -168860,-7068177 -168849,-7068167 -168839,-7068157 -168843,-7068154 -168950,-7068051 -169003,-7068027 -168989,-7068000 -168969,-7067941 -168948,-7067911 -168910,-7067842 -168898,-7067809 -168855,-7067744 -168783,-7067631 -168727,-7067545 -168699,-7067501 -168673,-7067443 -168655,-7067413 -168640,-7067396 -168626,-7067364 -168607,-7067312 -168581,-7067236 -168573,-7067194 -168563,-7067179 -168548,-7067131 -168511,-7067066 -168495,-7067039 -168445,-7066939 -168478,-7066910 -168495,-7066899 -168538,-7066863 -168578,-7066847 -168641,-7066815 -168661,-7066815 -168694,-7066802 -168693,-7066795 -168767,-7066757 -168819,-7066727 -168846,-7066709 -168859,-7066698 -168888,-7066663 -168905,-7066638 -168922,-7066621 -168960,-7066597 -168996,-7066561 -169010,-7066558 -169019,-7066546 -169020,-7066543 -169018,-7066534 -169011,-7066524 -169012,-7066509 -169065,-7066467 -169069,-7066448 -169076,-7066411 -169082,-7066405 -169073,-7066380 -169097,-7066338 -169087,-7066324 -169085,-7066279 -169079,-7066252 -169088,-7066229 -169114,-7066206 -169112,-7066165 -169134,-7066150 -169166,-7066144 -169183,-7066134 -169198,-7066093 -169196,-7066071 -169225,-7066004 -169236,-7065999 -169243,-7065981 -169244,-7065942 -169255,-7065930 -169280,-7065886 -169283,-7065856 -169274,-7065816 -169277,-7065793 -169269,-7065781 -169270,-7065758 -169261,-7065731 -169271,-7065720 -169277,-7065696 -169271,-7065671 -169297,-7065661 -169295,-7065641 -169308,-7065618 -169321,-7065588 -169368,-7065577 -169380,-7065573 -169391,-7065564 -169391,-7065543 -169395,-7065533 -169400,-7065528 -169410,-7065527 -169421,-7065523 -169428,-7065517 -169439,-7065485 -169486,-7065445 -169505,-7065426 -169523,-7065416 -169534,-7065405 -169559,-7065390 -169566,-7065380 -169566,-7065368 -169560,-7065350 -169581,-7065342 -169593,-7065331 -169571,-7065307 -169572,-7065285 -169603,-7065258 -169603,-7065245 -169597,-7065233 -169602,-7065214 -169617,-7065199 -169633,-7065181 -169634,-7065167 -169627,-7065153 -169626,-7065138 -169634,-7065110 -169647,-7065078 -169646,-7065068 -169635,-7065067 -169620,-7065059 -169622,-7065048 -169632,-7065041 -169653,-7065040 -169663,-7065029 -169671,-7065029 -169677,-7065023 -169676,-7065012 -169668,-7065000 -169663,-7064983 -169666,-7064970 -169674,-7064961 -169686,-7064953 -169705,-7064920 -169708,-7064907 -169716,-7064896 -169741,-7064880 -169754,-7064869 -169767,-7064865 -169783,-7064872 -169793,-7064872 -169800,-7064868 -169816,-7064861 -169822,-7064853 -169828,-7064830 -169836,-7064793 -169867,-7064712 -169908,-7064677 -169909,-7064645 -169914,-7064631 -169924,-7064623 -170018,-7064582 -170042,-7064556 -170064,-7064533 -170085,-7064533 -170130,-7064534 -170126,-7064548 -170144,-7064555 -170192,-7064551 -170243,-7064545 -170280,-7064546 -170330,-7064549 -170387,-7064543 -170438,-7064538 -170464,-7064539 -170492,-7064548 -170534,-7064565 -170547,-7064529 -170563,-7064510 -170560,-7064494 -170600,-7064498 -170633,-7064489 -170644,-7064489 -170652,-7064491 -170678,-7064517 -170694,-7064539 -170708,-7064550 -170717,-7064552 -170738,-7064547 -170762,-7064544 -170763,-7064576 -170770,-7064616 -170774,-7064628 -170783,-7064645 -170803,-7064680 -170829,-7064724 -170857,-7064771 -170873,-7064792 -170910,-7064824 -170955,-7064848 -170983,-7064866 -170993,-7064871 -171046,-7064892 -171055,-7064897 -171069,-7064906 -171074,-7064911 -171088,-7064928 -171121,-7064955 -171143,-7064968 -171176,-7064967 -171192,-7064964 -171225,-7064962 -171300,-7064956 -171358,-7064976 -171445,-7064982 -171493,-7064984 -171521,-7064987 -171544,-7064992 -171561,-7064996 -171591,-7065005 -171617,-7065018 -171661,-7065036 -171683,-7065044 -171710,-7065051 -171765,-7065061 -171840,-7065069 -171959,-7065092 -171988,-7065097 -172008,-7065101 -172056,-7065120 -172092,-7065139 -172120,-7065157 -172127,-7065171 -172130,-7065193 -172138,-7065235 -172148,-7065309 -172158,-7065339 -172178,-7065383 -172204,-7065434 -172247,-7065512 -172288,-7065588 -172315,-7065661 -172335,-7065699 -172354,-7065726 -172361,-7065734 -172374,-7065745 -172410,-7065772 -172485,-7065824 -172542,-7065869 -172566,-7065873 -172606,-7065893 -172653,-7065923 -172667,-7065938 -172680,-7065953 -172685,-7065963 -172687,-7066000 -172685,-7066022 -172683,-7066032 -172675,-7066055 -172647,-7066120 -172629,-7066159 -172593,-7066230 -172573,-7066258 -172546,-7066289 -172536,-7066300 -172532,-7066304 -172518,-7066316 -172478,-7066351 -172451,-7066377 -172439,-7066390 -172403,-7066431 -172369,-7066467 -172309,-7066543 -172285,-7066577 -172259,-7066627 -172255,-7066642 -172253,-7066652 -172257,-7066677 -172266,-7066702 -172288,-7066740 -172352,-7066827 -172392,-7066873 -172404,-7066884 -172524,-7066970 -172596,-7067027 -172640,-7067056 -172686,-7067083 -172786,-7067144 -172808,-7067161 -172822,-7067179 -172828,-7067193 -172832,-7067210 -172828,-7067311 -172816,-7067362 -172803,-7067409 -172790,-7067452 -172733,-7067599 -172699,-7067693 -172580,-7067701 -172215,-7067736 -171846,-7067771 -171669,-7067789 -171566,-7067797 -171559,-7067780 -171478,-7067816 -171461,-7067824 -171474,-7067883 -171493,-7067977 -171477,-7067989 -171371,-7068118 -171382,-7068141 -171382,-7068190 -171385,-7068254 -171399,-7068353 -171412,-7068392 -171430,-7068475 -171440,-7068531 -171453,-7068609 -171462,-7068699 -171467,-7068739 -171457,-7068779 -171447,-7068810 -171440,-7068818 -171416,-7068842 -171395,-7068851 -171381,-7068844 -171325,-7068863 -171339,-7068916 -171357,-7068994 -171373,-7069024 -171394,-7069042 -171464,-7069118 -171520,-7069200 -171524,-7069197 -171552,-7069237 -171574,-7069261 -171596,-7069296 -171628,-7069349 -171651,-7069394 -171669,-7069430 -171693,-7069481 -171714,-7069543 -171739,-7069639 -171753,-7069686 -171762,-7069706 -171799,-7069795 -171810,-7069822 -171882,-7069964 -171894,-7069998 -171903,-7070030 -171909,-7070065 -171918,-7070175 -171983,-7070300 -172030,-7070384 -172042,-7070400 -172066,-7070426 -172180,-7070523 -172262,-7070591 -172318,-7070641 -172335,-7070661 -172329,-7070679 -172264,-7070703 -172169,-7070734 -172114,-7070757 -172049,-7070780 -171931,-7070826 -171835,-7070911 -171902,-7070927 -171932,-7070970 -171960,-7071010 -172024,-7071108 -172050,-7071132 -172060,-7071137 -172076,-7071156 -172092,-7071175 -172104,-7071201 -172126,-7071235 -172163,-7071278 -172216,-7071373 -172237,-7071413 -172269,-7071480 -172305,-7071541 -172340,-7071591 -172354,-7071617 -172356,-7071621 -172361,-7071649 -172375,-7071705 -172391,-7071747 -172407,-7071781 -172439,-7071835 -172472,-7071896 -172507,-7072001 -172714,-7072079 -172947,-7072171 -173124,-7072241 -173364,-7072332 -173350,-7072390 -173350,-7072440 -173354,-7072474 -173355,-7072482 -173360,-7072500 -173372,-7072528 -173397,-7072571 -173400,-7072578 -173402,-7072587 -173404,-7072604 -173400,-7072640 -173403,-7072681 -173407,-7072702 -173414,-7072722 -173424,-7072748 -173458,-7072807 -173488,-7072854 -173539,-7072918 -173576,-7072950 -173609,-7072974 -173640,-7072985 -173707,-7072994 -173717,-7072998 -173744,-7073011 -173774,-7073021 -173777,-7073023 -173781,-7073027 -173784,-7073033 -173785,-7073038 -173784,-7073044 -173778,-7073057 -173754,-7073088 -173787,-7073113 -173805,-7073114 -173844,-7073105 -173875,-7073100 -173899,-7073099 -173914,-7073101 -173934,-7073115 -173974,-7073146 -174013,-7073154 -174042,-7073164 -174066,-7073174 -174109,-7073199 -174221,-7073200 -174234,-7073252 -174238,-7073309 -174343,-7073338 -174358,-7073346 -174372,-7073378 -174299,-7073400 -174299,-7073413 -174384,-7073429 -174461,-7073452 -174485,-7073455 -174549,-7073461 -174578,-7073455 -174618,-7073465 -174659,-7073464 -174677,-7073493 -174685,-7073485 -174688,-7073475 -174699,-7073468 -174722,-7073465 -174862,-7073470 -174862,-7073464 -174978,-7073450 -175069,-7073457 -175101,-7073454 -175152,-7073447 -175239,-7073420 -175283,-7073422 -175315,-7073409 -175478,-7073436 -175571,-7073468 -175637,-7073497 -175715,-7073517 -175808,-7073543 -175843,-7073555 -175910,-7073579 -175926,-7073591 -176007,-7073629 -176095,-7073663 -176117,-7073661 -176122,-7073665 -176130,-7073672 -176140,-7073687 -176140,-7073698 -176151,-7073699 -176164,-7073705 -176209,-7073709 -176231,-7073716 -176270,-7073729 -176331,-7073739 -176389,-7073738 -176418,-7073754 -176438,-7073765 -176458,-7073765 -176480,-7073771 -176510,-7073777 -176603,-7073800 -176612,-7073807 -176629,-7073807 -176649,-7073806 -176654,-7073806 -176666,-7073809 -176709,-7073830 -176717,-7073838 -176758,-7073885 -176773,-7073909 -176796,-7073925 -176813,-7073949 -176830,-7073970 -176856,-7073993 -176875,-7074016 -176889,-7074023 -176909,-7074043 -176932,-7074070 -176939,-7074082 -176952,-7074085 -176956,-7074085 -176989,-7074102 -177025,-7074131 -177038,-7074152 -177080,-7074149 -177234,-7074211 -177302,-7074247 -177352,-7074259 -177407,-7074268 -177571,-7074277 -177653,-7074312 -177793,-7074367 -177903,-7074390 -177919,-7074397 -178118,-7074439 -178231,-7074463 -178359,-7074510 -178375,-7074451 -178423,-7074474 -178517,-7074516 -178648,-7074588 -178844,-7074697 -178945,-7074614 -179006,-7074572 -179120,-7074510 -179117,-7074498 -179134,-7074480 -179134,-7074472 -179152,-7074466 -179174,-7074566 -179180,-7074576 -179185,-7074582 -179194,-7074588 -179211,-7074605 -179264,-7074653 -179333,-7074715 -179352,-7074731 -179392,-7074753 -179422,-7074767 -179441,-7074776 -179457,-7074778 -179477,-7074782 -179527,-7074765 -179655,-7074750 -179720,-7074744 -179729,-7074730 -179731,-7074648 -179741,-7074437 -179745,-7074317 -179775,-7074260 -179839,-7074289 -179934,-7074330 -180014,-7074357 -180089,-7074381 -180217,-7074424 -180342,-7074462 -180460,-7074496 -180550,-7074517 -180700,-7074545 -180814,-7074559 -180832,-7074551 -180958,-7074570 -180995,-7074577 -181056,-7074580 -181180,-7074582 -181326,-7074579 -181421,-7074580 -181466,-7074580 -181587,-7074583 -181602,-7074583 -181751,-7074585 -181765,-7074586 -181793,-7074588 -181816,-7074591 -181846,-7074595 -181877,-7074601 -181886,-7074603 -181935,-7074614 -181982,-7074627 -182049,-7074647 -182156,-7074682 -182263,-7074718 -182337,-7074742 -182451,-7074783 -182486,-7074802 -182528,-7074826 -182604,-7074871 -182650,-7074896 -182704,-7074917 -182756,-7074932 -182854,-7074950 -182908,-7074954 -182987,-7074958 -183052,-7074963 -183130,-7074977 -183270,-7075011 -183336,-7075028 -183404,-7075041 -183451,-7075055 -183486,-7075066 -183598,-7075108 -183650,-7075135 -183676,-7075148 -183712,-7075169 -183748,-7075186 -183774,-7075194 -183812,-7075209 -183819,-7075219 -183861,-7075242 -183906,-7075264 -183984,-7075299 -184041,-7075332 -184056,-7075335 -184097,-7075356 -184112,-7075358 -184155,-7075383 -184228,-7075426 -184229,-7075422 -184243,-7075425 -184249,-7075436 -184299,-7075466 -184347,-7075499 -184416,-7075553 -184465,-7075590 -184519,-7075630 -184573,-7075671 -184618,-7075698 -184661,-7075724 -184713,-7075749 -184777,-7075774 -184811,-7075789 -184944,-7075828 -185104,-7075876 -185197,-7075910 -185265,-7075935 -185422,-7076004 -185499,-7076039 -185595,-7076083 -185640,-7076103 -185721,-7076132 -185763,-7076141 -185798,-7076150 -185861,-7076157 -185915,-7076161 -186070,-7076161 -186165,-7076160 -186306,-7076158 -186413,-7076156 -186656,-7076141 -186665,-7076130 -186664,-7076117 -186680,-7076117 -186683,-7076133 -186715,-7076139 -186831,-7076137 -186905,-7076133 -187066,-7076123 -187066,-7076101 -187068,-7076089 -187072,-7076076 -187086,-7076064 -187140,-7076035 -187145,-7076025 -187140,-7076011 -187159,-7076002 -187227,-7075974 -187248,-7075960 -187262,-7075944 -187255,-7075926 -187262,-7075920 -187272,-7075944 -187305,-7075936 -187332,-7075923 -187371,-7075897 -187396,-7075875 -187425,-7075848 -187460,-7075816 -187514,-7075925 -187539,-7075913 -187564,-7075903 -187623,-7075890 -187674,-7075879 -187733,-7075866 -187775,-7075858 -187801,-7075853 -187840,-7075844 -187893,-7075843 -187995,-7075860 -187992,-7075894 -187988,-7075923 -187992,-7075937 -188003,-7075955 -188015,-7075967 -188038,-7075973 -188112,-7075981 -188187,-7075995 -188193,-7075993 -188209,-7075924 -188237,-7075935 -188287,-7075958 -188371,-7075999 -188405,-7076022 -188461,-7076052 -188505,-7076060 -188525,-7076080 -188525,-7076098 -188517,-7076103 -188557,-7076124 -188648,-7076172 -188705,-7076212 -188775,-7076260 -188793,-7076277 -188832,-7076305 -188851,-7076315 -188887,-7076330 -188925,-7076355 -189049,-7076472 -189050,-7076481 -189071,-7076500 -189081,-7076500 -189182,-7076549 -189190,-7076549 -189194,-7076555 -189227,-7076571 -189267,-7076587 -189294,-7076598 -189321,-7076605 -189346,-7076608 -189364,-7076609 -189377,-7076606 -189390,-7076600 -189403,-7076598 -189430,-7076585 -189466,-7076571 -189489,-7076568 -189575,-7076567 -189575,-7076562 -189581,-7076561 -189576,-7076498 -189576,-7076496 -189574,-7076491 -189574,-7076486 -189573,-7076481 -189573,-7076477 -189573,-7076473 -189574,-7076470 -189574,-7076467 -189590,-7076453 -189600,-7076436 -189602,-7076431 -189605,-7076425 -189607,-7076417 -189609,-7076408 -189610,-7076407 -189611,-7076399 -189611,-7076370 -189641,-7076364 -189667,-7076363 -189680,-7076368 -189700,-7076369 -189737,-7076348 -189762,-7076329 -189769,-7076317 -189786,-7076296 -189791,-7076286 -189810,-7076269 -189836,-7076239 -189851,-7076231 -189867,-7076229 -189877,-7076233 -189882,-7076244 -189881,-7076272 -189883,-7076308 -189887,-7076320 -189905,-7076335 -189918,-7076341 -189932,-7076340 -189957,-7076330 -190005,-7076299 -190031,-7076287 -190053,-7076278 -190087,-7076281 -190120,-7076286 -190144,-7076286 -190162,-7076277 -190185,-7076267 -190211,-7076266 -190233,-7076279 -190257,-7076289 -190288,-7076288 -190301,-7076284 -190310,-7076275 -190323,-7076263 -190340,-7076258 -190346,-7076256 -190379,-7076254 -190393,-7076261 -190440,-7076271 -190455,-7076268 -190468,-7076260 -190473,-7076248 -190475,-7076236 -190473,-7076216 -190466,-7076195 -190469,-7076173 -190483,-7076137 -190519,-7076072 -190550,-7076034 -190561,-7075989 -190573,-7075972 -190580,-7075968 -190592,-7075968 -190610,-7075971 -190627,-7075979 -190644,-7075983 -190655,-7075979 -190663,-7075970 -190668,-7075954 -190668,-7075939 -190648,-7075869 -190620,-7075820 -190611,-7075798 -190611,-7075781 -190632,-7075765 -190662,-7075749 -190701,-7075722 -190730,-7075702 -190780,-7075658 -190800,-7075638 -190808,-7075624 -190817,-7075598 -190825,-7075546 -190822,-7075537 -190806,-7075520 -190779,-7075501 -190769,-7075485 -190763,-7075466 -190760,-7075454 -190759,-7075428 -190763,-7075401 -190783,-7075359 -190803,-7075335 -190863,-7075285 -190893,-7075260 -190950,-7075213 -190986,-7075177 -190997,-7075158 -190999,-7075149 -191005,-7075118 -191007,-7075051 -191013,-7075018 -191016,-7074986 -191017,-7074965 -191023,-7074933 -191032,-7074917 -191069,-7074919 -191095,-7074920 -191104,-7074918 -191141,-7074904 -191164,-7074891 -191197,-7074859 -191212,-7074838 -191232,-7074824 -191264,-7074802 -191311,-7074777 -191338,-7074759 -191348,-7074743 -191374,-7074717 -191389,-7074710 -191404,-7074706 -191415,-7074702 -191421,-7074693 -191424,-7074649 -191430,-7074631 -191447,-7074612 -191473,-7074593 -191489,-7074607 -191507,-7074615 -191527,-7074621 -191546,-7074632 -191574,-7074647 -191607,-7074651 -191636,-7074646 -191647,-7074638 -191653,-7074627 -191653,-7074615 -191652,-7074605 -191649,-7074591 -191627,-7074548 -191628,-7074524 -191668,-7074510 -191675,-7074504 -191710,-7074500 -191737,-7074498 -191751,-7074492 -191762,-7074478 -191763,-7074469 -191771,-7074451 -191782,-7074440 -191810,-7074441 -191825,-7074444 -191847,-7074446 -191884,-7074446 -191927,-7074437 -191945,-7074434 -191971,-7074440 -192012,-7074440 -192025,-7074437 -192043,-7074427 -192056,-7074426 -192087,-7074436 -192104,-7074438 -192167,-7074437 -192206,-7074432 -192237,-7074427 -192264,-7074415 -192296,-7074404 -192323,-7074402 -192373,-7074403 -192461,-7074402 -192500,-7074402 -192514,-7074387 -192528,-7074376 -192542,-7074376 -192560,-7074387 -192587,-7074396 -192616,-7074393 -192623,-7074401 -192641,-7074397 -192666,-7074395 -192685,-7074392 -192701,-7074386 -192716,-7074376 -192775,-7074347 -192803,-7074321 -192812,-7074309 -192840,-7074259 -192840,-7074240 -192851,-7074223 -192851,-7074203 -192844,-7074180 -192844,-7074160 -192844,-7074139 -192842,-7074131 -192843,-7074122 -192849,-7074113 -192871,-7074096 -192882,-7074065 -192900,-7074016 -192915,-7073999 -192926,-7073967 -192926,-7073945 -192919,-7073946 -192918,-7073933 -192923,-7073921 -192931,-7073905 -192963,-7073869 -192976,-7073839 -192977,-7073826 -192981,-7073815 -192981,-7073797 -192988,-7073791 -193000,-7073791 -193009,-7073789 -193027,-7073765 -193027,-7073730 -193045,-7073715 -193054,-7073705 -193054,-7073688 -193061,-7073669 -193073,-7073664 -193090,-7073664 -193109,-7073649 -193119,-7073618 -193145,-7073569 -193161,-7073554 -193169,-7073545 -193182,-7073518 -193184,-7073497 -193193,-7073466 -193193,-7073454 -193182,-7073436 -193181,-7073411 -193194,-7073382 -193195,-7073336 -193206,-7073314 -193207,-7073287 -193225,-7073215 -193227,-7073182 -193231,-7073174 -193246,-7073162 -193254,-7073114 -193267,-7073085 -193267,-7073056 -193264,-7073040 -193263,-7072992 -193273,-7072973 -193282,-7072962 -193293,-7072951 -193301,-7072935 -193304,-7072925 -193311,-7072896 -193313,-7072863 -193331,-7072827 -193341,-7072788 -193348,-7072775 -193358,-7072758 -193382,-7072738 -193386,-7072730 -193386,-7072702 -193406,-7072663 -193407,-7072656 -193420,-7072643 -193421,-7072623 -193430,-7072611 -193430,-7072592 -193436,-7072577 -193434,-7072561 -193411,-7072541 -193406,-7072530 -193404,-7072516 -193395,-7072510 -193378,-7072510 -193369,-7072504 -193365,-7072499 -193361,-7072490 -193358,-7072468 -193348,-7072460 -193336,-7072459 -193326,-7072449 -193315,-7072422 -193301,-7072397 -193300,-7072358 -193316,-7072309 -193316,-7072287 -193307,-7072257 -193305,-7072235 -193301,-7072231 -193286,-7072175 -193288,-7072167 -193301,-7072152 -193330,-7072141 -193343,-7072128 -193345,-7072093 -193353,-7072085 -193365,-7072030 -193388,-7071990 -193389,-7071956 -193395,-7071950 -193413,-7071939 -193427,-7071928 -193429,-7071911 -193438,-7071895 -193449,-7071861 -193445,-7071843 -193451,-7071837 -193480,-7071797 -193522,-7071764 -193530,-7071759 -193552,-7071750 -193568,-7071746 -193586,-7071743 -193603,-7071742 -193618,-7071743 -193630,-7071745 -193641,-7071749 -193652,-7071756 -193661,-7071763 -193669,-7071770 -193698,-7071809 -193708,-7071828 -193723,-7071852 -193743,-7071878 -193750,-7071885 -193756,-7071889 -193764,-7071895 -193775,-7071899 -193792,-7071904 -193845,-7071925 -193857,-7071934 -193869,-7071945 -193878,-7071956 -193883,-7071963 -193889,-7071973 -193893,-7071983 -193898,-7072001 -193914,-7072044 -193946,-7072097 -193951,-7072104 -193964,-7072115 -193979,-7072124 -194066,-7072159 -194079,-7072161 -194088,-7072161 -194097,-7072159 -194105,-7072156 -194113,-7072152 -194151,-7072128 -194188,-7072108 -194198,-7072103 -194230,-7072093 -194242,-7072092 -194250,-7072094 -194275,-7072105 -194290,-7072109 -194305,-7072111 -194318,-7072112 -194332,-7072110 -194343,-7072107 -194365,-7072096 -194379,-7072094 -194388,-7072094 -194398,-7072094 -194407,-7072096 -194415,-7072099 -194427,-7072104 -194458,-7072121 -194465,-7072127 -194477,-7072136 -194485,-7072146 -194491,-7072155 -194506,-7072180 -194607,-7072215 -194666,-7072240 -194677,-7072248 -194696,-7072256 -194708,-7072259 -194723,-7072261 -194739,-7072261 -194781,-7072257 -194804,-7072255 -194844,-7072255 -194884,-7072259 -194903,-7072262 -194932,-7072267 -195033,-7072296 -195056,-7072301 -195072,-7072305 -195100,-7072315 -195151,-7072344 -195203,-7072376 -195240,-7072394 -195270,-7072404 -195320,-7072416 -195327,-7072417 -195343,-7072416 -195352,-7072414 -195366,-7072410 -195399,-7072405 -195433,-7072411 -195464,-7072423 -195508,-7072434 -195533,-7072442 -195558,-7072452 -195614,-7072474 -195627,-7072477 -195639,-7072479 -195649,-7072479 -195663,-7072478 -195708,-7072467 -195725,-7072462 -195760,-7072449 -195778,-7072443 -195794,-7072439 -195806,-7072437 -195827,-7072437 -195877,-7072440 -195954,-7072426 -195979,-7072426 -195994,-7072427 -196024,-7072434 -196033,-7072438 -196041,-7072443 -196047,-7072447 -196053,-7072453 -196061,-7072463 -196096,-7072490 -196105,-7072501 -196114,-7072508 -196124,-7072513 -196133,-7072516 -196140,-7072517 -196147,-7072517 -196164,-7072514 -196172,-7072512 -196202,-7072498 -196216,-7072494 -196227,-7072491 -196245,-7072490 -196253,-7072491 -196264,-7072495 -196274,-7072501 -196295,-7072517 -196306,-7072525 -196318,-7072532 -196331,-7072538 -196344,-7072543 -196355,-7072546 -196365,-7072547 -196382,-7072546 -196411,-7072540 -196425,-7072536 -196442,-7072529 -196469,-7072515 -196483,-7072504 -196502,-7072492 -196514,-7072487 -196525,-7072483 -196539,-7072481 -196553,-7072480 -196573,-7072481 -196589,-7072484 -196606,-7072489 -196620,-7072496 -196696,-7072538 -196721,-7072550 -196732,-7072553 -196739,-7072553 -196753,-7072551 -196758,-7072551 -196773,-7072554 -196802,-7072563 -196816,-7072570 -196842,-7072594 -196881,-7072610 -197113,-7072717 -197127,-7072726 -197152,-7072737 -197178,-7072744 -197208,-7072747 -197246,-7072744 -197299,-7072736 -197314,-7072735 -197338,-7072735 -197362,-7072736 -197386,-7072738 -197402,-7072740 -197431,-7072746 -197447,-7072751 -197480,-7072762 -197522,-7072781 -197552,-7072798 -197640,-7072860 -197690,-7072880 -197739,-7072900 -197826,-7072945 -197892,-7072970 -197997,-7073014 -198154,-7073084 -198194,-7073100 -198238,-7073116 -198271,-7073126 -198302,-7073135 -198366,-7073151 -198435,-7073164 -198491,-7073173 -198523,-7073177 -198554,-7073180 -198614,-7073186 -198664,-7073187 -198708,-7073184 -198733,-7073182 -198763,-7073177 -198790,-7073171 -198820,-7073162 -198850,-7073153 -198872,-7073144 -198913,-7073125 -198956,-7073102 -198983,-7073086 -199067,-7073016 -199151,-7072930 -199196,-7072882 -199265,-7072801 -199280,-7072784 -199312,-7072752 -199345,-7072725 -199375,-7072704 -199406,-7072686 -199443,-7072669 -199481,-7072655 -199524,-7072644 -199682,-7072621 -199795,-7072612 -199924,-7072593 -200067,-7072564 -200211,-7072537 -200358,-7072505 -200538,-7072468 -200533,-7072543 -200537,-7072603 -200536,-7072720 -200544,-7072856 -200548,-7072907 -200556,-7073001 -200572,-7073068 -200571,-7073080 -200566,-7073088 -200557,-7073098 -200558,-7073139 -200551,-7073164 -200550,-7073180 -200550,-7073187 -200563,-7073234 -200562,-7073246 -200561,-7073260 -200571,-7073302 -200577,-7073345 -200578,-7073369 -200579,-7073386 -200573,-7073414 -200579,-7073439 -200572,-7073466 -200572,-7073486 -200580,-7073504 -200581,-7073507 -200581,-7073508 -200570,-7073525 -200571,-7073531 -200573,-7073544 -200570,-7073545 -200556,-7073551 -200557,-7073566 -200557,-7073569 -200546,-7073576 -200527,-7073589 -200498,-7073622 -200491,-7073639 -200488,-7073646 -200474,-7073660 -200444,-7073693 -200441,-7073699 -200434,-7073712 -200420,-7073730 -200419,-7073764 -200412,-7073779 -200403,-7073795 -200402,-7073799 -200402,-7073804 -200402,-7073818 -200405,-7073862 -200407,-7073871 -200422,-7073918 -200412,-7073955 -200409,-7073997 -200396,-7074049 -200384,-7074102 -200385,-7074129 -200390,-7074140 -200395,-7074160 -200397,-7074182 -200397,-7074183 -200397,-7074200 -200395,-7074215 -200392,-7074235 -200389,-7074257 -200387,-7074271 -200394,-7074301 -200390,-7074305 -200385,-7074311 -200383,-7074322 -200383,-7074324 -200389,-7074332 -200399,-7074354 -200401,-7074373 -200393,-7074387 -200387,-7074401 -200386,-7074407 -200387,-7074415 -200391,-7074425 -200398,-7074438 -200408,-7074453 -200408,-7074467 -200408,-7074482 -200402,-7074500 -200398,-7074520 -200396,-7074525 -200393,-7074536 -200393,-7074551 -200396,-7074574 -200392,-7074604 -200391,-7074615 -200397,-7074655 -200405,-7074667 -200408,-7074677 -200406,-7074685 -200393,-7074694 -200376,-7074696 -200362,-7074700 -200360,-7074707 -200360,-7074717 -200369,-7074720 -200375,-7074722 -200377,-7074731 -200378,-7074735 -200383,-7074740 -200389,-7074748 -200395,-7074762 -200404,-7074781 -200389,-7074788 -200372,-7074803 -200354,-7074815 -200342,-7074818 -200328,-7074813 -200300,-7074809 -200293,-7074808 -200289,-7074808 -200267,-7074811 -200251,-7074808 -200226,-7074796 -200201,-7074783 -200173,-7074781 -200147,-7074787 -200135,-7074803 -200128,-7074820 -200126,-7074826 -200116,-7074858 -200094,-7074879 -200073,-7074885 -200034,-7074889 -199997,-7074899 -199980,-7074908 -199946,-7074932 -199912,-7074956 -199912,-7074971 -199911,-7074976 -199911,-7074977 -199909,-7074985 -199895,-7075007 -199887,-7075044 -199883,-7075051 -199881,-7075059 -199881,-7075066 -199882,-7075077 -199890,-7075090 -199912,-7075113 -199915,-7075126 -199913,-7075139 -199910,-7075148 -199853,-7075202 -199837,-7075218 -199827,-7075236 -199825,-7075242 -199818,-7075261 -199816,-7075282 -199816,-7075302 -199817,-7075326 -199818,-7075340 -199837,-7075361 -199840,-7075364 -199842,-7075366 -199853,-7075378 -199857,-7075410 -199843,-7075443 -199848,-7075472 -199837,-7075478 -199835,-7075488 -199843,-7075493 -199849,-7075505 -199848,-7075515 -199825,-7075556 -199818,-7075598 -199827,-7075686 -199850,-7075726 -199855,-7075737 -199858,-7075748 -199860,-7075773 -199869,-7075793 -199872,-7075806 -199888,-7075844 -199885,-7075862 -199890,-7075886 -199905,-7075907 -199914,-7075930 -199888,-7075995 -199904,-7076013 -199901,-7076037 -199894,-7076090 -199893,-7076137 -199892,-7076170 -199891,-7076206 -199915,-7076240 -199934,-7076262 -199938,-7076271 -199937,-7076287 -199923,-7076315 -199921,-7076352 -199939,-7076424 -199939,-7076440 -199925,-7076475 -199934,-7076505 -199933,-7076519 -199944,-7076530 -199950,-7076547 -199965,-7076562 -199973,-7076578 -199959,-7076600 -199961,-7076615 -199967,-7076615 -199973,-7076612 -199979,-7076608 -199982,-7076604 -199983,-7076600 -199993,-7076594 -199996,-7076592 -200012,-7076594 -200005,-7076625 -200005,-7076627 -200007,-7076629 -200022,-7076642 -200018,-7076662 -200034,-7076672 -200044,-7076697 -200052,-7076718 -200075,-7076739 -200092,-7076741 -200100,-7076749 -200102,-7076759 -200136,-7076762 -200139,-7076763 -200149,-7076765 -200155,-7076775 -200140,-7076792 -200160,-7076800 -200163,-7076816 -200203,-7076838 -200222,-7076849 -200235,-7076859 -200247,-7076856 -200250,-7076857 -200256,-7076859 -200262,-7076868 -200262,-7076888 -200267,-7076898 -200278,-7076902 -200293,-7076894 -200296,-7076893 -200324,-7076900 -200339,-7076897 -200356,-7076896 -200362,-7076895 -200373,-7076899 -200372,-7076908 -200363,-7076915 -200367,-7076927 -200372,-7076926 -200378,-7076923 -200391,-7076923 -200405,-7076924 -200409,-7076925 -200416,-7076928 -200431,-7076934 -200444,-7076921 -200450,-7076916 -200458,-7076923 -200484,-7076924 -200494,-7076938 -200492,-7076955 -200492,-7076955 -200499,-7076964 -200519,-7076955 -200521,-7076949 -200522,-7076945 -200547,-7076950 -200565,-7076953 -200576,-7076946 -200589,-7076947 -200588,-7076957 -200588,-7076964 -200623,-7076958 -200639,-7076955 -200656,-7076959 -200670,-7076962 -200716,-7076965 -200754,-7076974 -200787,-7076970 -200814,-7076974 -200825,-7076977 -200834,-7076980 -200838,-7076991 -200862,-7076997 -200876,-7077001 -200921,-7077018 -200953,-7077029 -200988,-7077036 -201011,-7077047 -201034,-7077044 -201040,-7077060 -201042,-7077065 -201107,-7077080 -201123,-7077082 -201142,-7077112 -201158,-7077117 -201166,-7077110 -201179,-7077109 -201184,-7077119 -201197,-7077129 -201199,-7077135 -201200,-7077140 -201202,-7077142 -201213,-7077149 -201230,-7077154 -201238,-7077166 -201254,-7077170 -201265,-7077172 -201276,-7077165 -201294,-7077173 -201335,-7077180 -201372,-7077171 -201390,-7077166 -201406,-7077159 -201471,-7077198 -201532,-7077211 -201389,-7077331 -201270,-7077433 -201110,-7077569 -200962,-7077697 -200889,-7077765 -200821,-7077833 -200688,-7077948 -200670,-7077964 -200603,-7078026 -200542,-7078083 -200461,-7078155 -200594,-7078177 -200728,-7078205 -200998,-7078267 -201095,-7078283 -201139,-7078288 -201183,-7078291 -201267,-7078282 -201435,-7078265 -201453,-7078260 -201480,-7078251 -201570,-7078252 -201643,-7078259 -201767,-7078277 -201870,-7078286 -201889,-7078289 -201907,-7078293 -201939,-7078305 -202010,-7078345 -202147,-7078404 -202294,-7078451 -202380,-7078480 -202467,-7078509 -202548,-7078538 -202557,-7078624 -202566,-7078725 -202594,-7078849 -202629,-7079036 -202637,-7079080 -202687,-7079441 -202689,-7079489 -202699,-7079517 -202716,-7079553 -202746,-7079597 -202889,-7079772 -202862,-7079897 -202855,-7079934 -202849,-7079973 -202837,-7080000 -202563,-7080411 -202187,-7080970 -201855,-7081469 -201591,-7081862 -201367,-7082198 -201156,-7082509 -200901,-7082881 -200851,-7082955 -200840,-7082894 -200831,-7082869 -200792,-7082835 -200716,-7082768 -200645,-7082717 -200587,-7082659 -200514,-7082597 -200455,-7082566 -200358,-7082485 -200309,-7082461 -200213,-7082420 -200089,-7082369 -199955,-7082377 -199843,-7082406 -199778,-7082427 -199709,-7082459 -199685,-7082474 -199612,-7082521 -199541,-7082572 -199451,-7082649 -199410,-7082652 -199348,-7082658 -199301,-7082672 -199174,-7082678 -199105,-7082682 -199082,-7082671 -199054,-7082656 -198992,-7082615 -198921,-7082589 -198873,-7082572 -198828,-7082565 -198775,-7082545 -198744,-7082538 -198688,-7082545 -198512,-7082580 -198369,-7082604 -198267,-7082621 -197865,-7082672 -197819,-7082675 -197793,-7082673 -197682,-7082634 -197601,-7082587 -197525,-7082538 -197489,-7082517 -197449,-7082485 -197383,-7082434 -197336,-7082396 -197305,-7082378 -197275,-7082366 -197244,-7082363 -197234,-7082364 -197222,-7082366 -197191,-7082374 -196850,-7082545 -196695,-7082623 -196533,-7082701 -196331,-7082741 -196231,-7082758 -195983,-7082798 -195507,-7082881 -195456,-7082893 -195360,-7082949 -195175,-7083052 -195067,-7083113 -195021,-7083139 -194973,-7083166 -194869,-7083225 -194790,-7083267 -194715,-7083307 -194561,-7083391 -194427,-7083463 -194292,-7083538 -194118,-7083632 -193974,-7083711 -193948,-7083717 -193900,-7083711 -193869,-7083715 -193838,-7083739 -193817,-7083763 -193798,-7083793 -193708,-7083902 -193681,-7083924 -193532,-7084030 -193175,-7084298 -193146,-7084318 -193057,-7084381 -192927,-7084475 -192869,-7084529 -192591,-7084787 -192577,-7084804 -192521,-7084908 -192500,-7084912 -192494,-7084920 -192533,-7085021 -192524,-7085020 -192470,-7085007 -192449,-7085029 -192431,-7085076 -192423,-7085121 -192412,-7085176 -192374,-7085265 -192351,-7085316 -192300,-7085402 -192276,-7085449 -192251,-7085474 -192202,-7085510 -192167,-7085550 -192080,-7085628 -192046,-7085663 -192008,-7085730 -191960,-7085807 -192056,-7086002 -192177,-7086230 -192138,-7086255 -192130,-7086261 -192102,-7086327 -192055,-7086401 -191985,-7086653 -191937,-7086828 -191862,-7087099 -191823,-7087248 -191548,-7087254 -191041,-7087267 -190555,-7087285 -190337,-7087291 -190058,-7087301 -189888,-7087306 -189702,-7087308 -189685,-7087309 -189621,-7087164 -189531,-7086973 -189389,-7086655 -189302,-7086469 -189283,-7086425 -189235,-7086320 -189196,-7086235 -189135,-7086102 -189043,-7086102 -189001,-7086106 -188950,-7086105 -188865,-7086108 -188819,-7086108 -188716,-7086109 -188572,-7086111 -188422,-7086110 -188354,-7086108 -188123,-7086117 -187554,-7086118 -186997,-7086117 -186916,-7086116 -186709,-7086120 -186649,-7086127 -186539,-7086143 -186455,-7086158 -185974,-7086166 -185970,-7086166 -185970,-7086166 -185958,-7086165 -185860,-7086016 -185861,-7086009 -185862,-7086006 -185858,-7086001 -185856,-7086000 -185849,-7085999 -185846,-7085996 -185844,-7085992 -185772,-7086073 -185759,-7086087 -185742,-7086068 -185721,-7086048 -185717,-7086045 -185696,-7086040 -185656,-7086033 -185614,-7086029 -185552,-7086032 -185490,-7086033 -185443,-7086040 -185442,-7086057 -185343,-7086066 -185225,-7086067 -185212,-7086073 -185195,-7086086 -185173,-7086083 -185146,-7086076 -185122,-7086075 -185096,-7086065 -185084,-7086063 -185072,-7086062 -185055,-7086067 -185034,-7086063 -185011,-7086075 -185003,-7086080 -185005,-7086095 -184998,-7086111 -185017,-7086180 -185040,-7086221 -184989,-7086255 -184968,-7086264 -184988,-7086323 -185000,-7086371 -184982,-7086424 -184985,-7086448 -184985,-7086478 -185004,-7086504 -185013,-7086518 -185049,-7086543 -185073,-7086580 -185091,-7086612 -185109,-7086636 -185128,-7086660 -185155,-7086691 -185227,-7086793 -185161,-7086871 -185068,-7086976 -184969,-7087093 -184890,-7087181 -184887,-7087185 -184843,-7087127 -184842,-7087124 -184723,-7087223 -184721,-7087225 -184709,-7087224 -184700,-7087190 -184652,-7087103 -184626,-7087054 -184595,-7087070 -184582,-7087076 -184513,-7087110 -184533,-7087154 -184558,-7087194 -184573,-7087218 -184531,-7087250 -184512,-7087278 -184384,-7087334 -184385,-7087340 -184386,-7087347 -184407,-7087366 -184315,-7087379 -184274,-7087374 -184225,-7087373 -184210,-7087377 -184208,-7087357 -184149,-7087357 -184068,-7087364 -183999,-7087377 -183929,-7087394 -183886,-7087398 -183836,-7087418 -183827,-7087421 -183855,-7087455 -183854,-7087465 -183854,-7087469 -183844,-7087481 -183830,-7087499 -183804,-7087538 -183790,-7087559 -183778,-7087567 -183765,-7087575 -183694,-7087573 -183643,-7087549 -183593,-7087614 -183577,-7087629 -183529,-7087650 -183480,-7087673 -183464,-7087673 -183445,-7087673 -183407,-7087682 -183356,-7087696 -183296,-7087705 -183231,-7087696 -183163,-7087692 -183121,-7087689 -183103,-7087688 -183065,-7087691 -183007,-7087707 -182987,-7087701 -182957,-7087702 -182937,-7087695 -182928,-7087696 -182918,-7087708 -182894,-7087709 -182879,-7087712 -182866,-7087720 -182853,-7087714 -182841,-7087719 -182824,-7087721 -182803,-7087724 -182764,-7087723 -182765,-7087716 -182719,-7087714 -182719,-7087723 -182706,-7087721 -182634,-7087704 -182608,-7087688 -182569,-7087688 -182564,-7087698 -182536,-7087701 -182485,-7087694 -182470,-7087707 -182457,-7087707 -182454,-7087698 -182422,-7087707 -182384,-7087695 -182366,-7087701 -182350,-7087696 -182337,-7087704 -182319,-7087692 -182287,-7087715 -182248,-7087728 -182239,-7087745 -182205,-7087742 -182203,-7087756 -182174,-7087749 -182158,-7087756 -182143,-7087759 -182121,-7087748 -182106,-7087756 -182077,-7087751 -182062,-7087767 -182002,-7087784 -181967,-7087798 -181959,-7087817 -181920,-7087814 -181905,-7087823 -181879,-7087823 -181860,-7087829 -181848,-7087816 -181839,-7087816 -181839,-7087822 -181818,-7087859 -181806,-7087859 -181793,-7087850 -181789,-7087864 -181775,-7087864 -181760,-7087845 -181744,-7087861 -181726,-7087865 -181700,-7087856 -181685,-7087860 -181648,-7087862 -181614,-7087876 -181590,-7087879 -181577,-7087889 -181561,-7087890 -181544,-7087881 -181521,-7087885 -181502,-7087899 -181479,-7087905 -181445,-7087892 -181390,-7087899 -181367,-7087892 -181346,-7087895 -181326,-7087889 -181275,-7087890 -181270,-7087912 -181262,-7087916 -181251,-7087914 -181233,-7087905 -181235,-7087894 -181224,-7087869 -181214,-7087887 -181200,-7087888 -181144,-7087918 -181121,-7087936 -181109,-7087925 -181096,-7087918 -181075,-7087918 -181062,-7087910 -181048,-7087921 -181016,-7087923 -180999,-7087913 -180987,-7087912 -180968,-7087919 -180956,-7087905 -180938,-7087903 -180919,-7087895 -180916,-7087886 -180883,-7087873 -180866,-7087871 -180865,-7087877 -180849,-7087873 -180836,-7087865 -180789,-7087858 -180754,-7087862 -180735,-7087855 -180707,-7087838 -180668,-7087830 -180653,-7087800 -180627,-7087800 -180597,-7087805 -180584,-7087798 -180568,-7087807 -180535,-7087792 -180499,-7087805 -180475,-7087827 -180453,-7087838 -180437,-7087839 -180409,-7087826 -180397,-7087827 -180361,-7087858 -180340,-7087846 -180307,-7087844 -180271,-7087847 -180256,-7087842 -180241,-7087843 -180234,-7087844 -180228,-7087845 -180214,-7087850 -180202,-7087850 -180175,-7087840 -180164,-7087840 -180145,-7087849 -180129,-7087867 -180119,-7087864 -180114,-7087857 -180090,-7087856 -180044,-7087844 -180032,-7087843 -180025,-7087849 -180023,-7087862 -180017,-7087865 -180008,-7087861 -179994,-7087852 -179971,-7087840 -179948,-7087827 -179928,-7087825 -179914,-7087825 -179851,-7087829 -179862,-7087872 -179864,-7087896 -179879,-7087940 -179894,-7087993 -179908,-7088025 -179928,-7088051 -179936,-7088069 -179936,-7088092 -179941,-7088108 -179883,-7088134 -179848,-7088139 -179821,-7088151 -179802,-7088159 -179761,-7088176 -179716,-7088216 -179713,-7088212 -179689,-7088236 -179675,-7088264 -179646,-7088326 -179625,-7088377 -179618,-7088390 -179589,-7088428 -179563,-7088469 -179550,-7088512 -179529,-7088548 -179484,-7088637 -179470,-7088673 -179465,-7088691 -179461,-7088709 -179459,-7088748 -179464,-7088785 -179479,-7088836 -179473,-7088868 -179464,-7088905 -179444,-7088942 -179407,-7089009 -179381,-7089057 -179314,-7089145 -179271,-7089266 -179269,-7089281 -179256,-7089355 -179244,-7089401 -179203,-7089496 -179186,-7089516 -179169,-7089519 -179155,-7089509 -179149,-7089501 -179135,-7089501 -179134,-7089489 -179129,-7089484 -179117,-7089488 -179106,-7089485 -179098,-7089480 -179086,-7089479 -179083,-7089472 -179047,-7089469 -179043,-7089464 -179050,-7089454 -179031,-7089448 -179025,-7089449 -179017,-7089442 -179000,-7089444 -178995,-7089435 -178975,-7089425 -178978,-7089413 -178968,-7089404 -178951,-7089404 -178911,-7089418 -178896,-7089430 -178853,-7089566 -178827,-7089661 -178808,-7089680 -178800,-7089688 -178688,-7089748 -178664,-7089771 -178616,-7089821 -178572,-7089860 -178540,-7089882 -178456,-7089943 -178395,-7089982 -178336,-7090027 -178288,-7090071 -178199,-7090142 -178158,-7090174 -178086,-7090230 -178047,-7090267 -177998,-7090314 -177930,-7090373 -177898,-7090392 -177885,-7090399 -177864,-7090407 -177840,-7090412 -177805,-7090412 -177772,-7090413 -177736,-7090414 -177698,-7090430 -177688,-7090446 -177691,-7090453 -177705,-7090480 -177742,-7090472 -177803,-7090498 -177827,-7090503 -177898,-7090493 -178018,-7090479 -178089,-7090494 -178110,-7090497 -178140,-7090512 -178139,-7090527 -178138,-7090543 -178113,-7090620 -178100,-7090654 -178094,-7090706 -178089,-7090769 -178074,-7090836 -178052,-7090856 -178005,-7090858 -177951,-7090857 -177930,-7090871 -177912,-7090895 -177898,-7090940 -177887,-7090963 -177889,-7090978 -177923,-7090995 -177935,-7091005 -177944,-7091030 -177988,-7091071 -178014,-7091137 -178031,-7091156 -178051,-7091161 -178076,-7091164 -178104,-7091181 -178164,-7091207 -178189,-7091221 -178205,-7091267 -178253,-7091307 -178262,-7091336 -178285,-7091365 -178286,-7091394 -178298,-7091441 -178309,-7091500 -178357,-7091551 -178368,-7091567 -178367,-7091628 -178374,-7091661 -178370,-7091703 -178355,-7091721 -178347,-7091790 -178353,-7091813 -178369,-7091850 -178370,-7091863 -178380,-7091882 -178380,-7091910 -178397,-7091936 -178381,-7091955 -178385,-7091960 -178342,-7091986 -178326,-7092003 -178310,-7092047 -178299,-7092067 -178284,-7092082 -178255,-7092104 -178155,-7092174 -178181,-7092201 -178228,-7092265 -178241,-7092284 -178250,-7092302 -178306,-7092466 -178265,-7092484 -178248,-7092520 -178190,-7092552 -178147,-7092582 -178031,-7092671 -178061,-7092697 -178069,-7092730 -178068,-7092743 -178048,-7092751 -177955,-7092761 -177885,-7092773 -177872,-7092810 -177860,-7092899 -177852,-7092931 -177685,-7092993 -177546,-7093057 -177514,-7093078 -177429,-7093125 -177416,-7093148 -177364,-7093190 -177275,-7093259 -177158,-7093289 -177093,-7093340 -177073,-7093360 -177059,-7093387 -176989,-7093537 -176987,-7093558 -176979,-7093584 -176968,-7093606 -176957,-7093615 -176940,-7093621 -176905,-7093563 -176872,-7093541 -176853,-7093540 -176772,-7093540 -176740,-7093694 -176703,-7093796 -176685,-7093855 -176638,-7094020 -176619,-7094109 -176609,-7094167 -176592,-7094361 -176568,-7094579 -176571,-7094682 -176578,-7094699 -176621,-7094732 -176612,-7094748 -176581,-7094766 -176563,-7094782 -176519,-7094808 -176509,-7094809 -176489,-7094801 -176474,-7094794 -176458,-7094795 -176459,-7094823 -176462,-7094861 -176468,-7094863 -176477,-7094902 -176481,-7094952 -176501,-7095088 -176510,-7095139 -176561,-7095257 -176619,-7095404 -176624,-7095401 -176652,-7095472 -176657,-7095473 -176660,-7095474 -176668,-7095477 -176678,-7095467 -176681,-7095444 -176693,-7095448 -176709,-7095440 -176726,-7095411 -176783,-7095469 -176803,-7095516 -176835,-7095577 -176884,-7095656 -176949,-7095771 -177045,-7095911 -177126,-7096034 -177112,-7096041 -177094,-7096044 -176991,-7096094 -176969,-7096068 -176911,-7096063 -176909,-7096041 -176894,-7096026 -176866,-7096016 -176819,-7096010 -176799,-7095980 -176787,-7095979 -176770,-7095997 -176746,-7096015 -176723,-7096017 -176702,-7096041 -176666,-7096080 -176603,-7096108 -176596,-7096093 -176574,-7096090 -176561,-7096085 -176537,-7096085 -176529,-7096079 -176535,-7096058 -176531,-7096038 -176525,-7096029 -176495,-7096018 -176480,-7096019 -176474,-7096012 -176472,-7096005 -176480,-7095970 -176476,-7095937 -176440,-7095915 -176418,-7095896 -176391,-7095868 -176382,-7095867 -176355,-7095866 -176338,-7095845 -176319,-7095837 -176311,-7095832 -176277,-7095816 -176210,-7095828 -176191,-7095838 -176108,-7095836 -176077,-7095854 -176033,-7095877 -176031,-7095895 -176026,-7095906 -176015,-7095915 -175996,-7095911 -175978,-7095894 -175958,-7095896 -175933,-7095906 -175890,-7095941 -175880,-7095958 -175856,-7095988 -175828,-7096008 -175771,-7096036 -175729,-7096047 -175695,-7096063 -175671,-7096078 -175634,-7096116 -175572,-7096163 -175573,-7096176 -175558,-7096183 -175547,-7096182 -175530,-7096172 -175510,-7096172 -175494,-7096179 -175426,-7096222 -175379,-7096246 -175339,-7096260 -175239,-7096281 -175193,-7096283 -175120,-7096299 -175002,-7096377 -174992,-7096377 -174856,-7096305 -174741,-7096251 -174652,-7096206 -174560,-7096158 -174525,-7096108 -174500,-7096085 -174469,-7096068 -174343,-7096011 -174290,-7096029 -174253,-7096045 -174175,-7096061 -174138,-7096103 -174100,-7096119 -174074,-7096135 -174052,-7096154 -174050,-7096187 -173983,-7096208 -173952,-7096213 -173917,-7096195 -173892,-7096187 -173870,-7096189 -173850,-7096191 -173766,-7096190 -173732,-7096184 -173708,-7096178 -173697,-7096171 -173645,-7096129 -173639,-7096121 -173633,-7096110 -173636,-7096092 -173651,-7096073 -173667,-7096047 -173670,-7096029 -173653,-7096013 -173634,-7096010 -173615,-7096024 -173597,-7096030 -173570,-7096052 -173547,-7096055 -173526,-7096058 -173517,-7096056 -173503,-7096041 -173492,-7096006 -173485,-7095988 -173419,-7095939 -173390,-7095910 -173387,-7095896 -173391,-7095871 -173399,-7095850 -173398,-7095821 -173391,-7095806 -173367,-7095776 -173359,-7095766 -173354,-7095755 -173351,-7095746 -173345,-7095742 -173342,-7095741 -173332,-7095734 -173310,-7095736 -173287,-7095738 -173264,-7095729 -173213,-7095721 -173208,-7095721 -173128,-7095713 -173101,-7095713 -173097,-7095713 -173093,-7095713 -173061,-7095709 -173042,-7095703 -173030,-7095699 -172976,-7095677 -172922,-7095658 -172864,-7095637 -172838,-7095630 -172718,-7095598 -172623,-7095578 -172600,-7095569 -172571,-7095554 -172533,-7095527 -172537,-7095512 -172536,-7095501 -172513,-7095465 -172498,-7095452 -172496,-7095421 -172486,-7095409 -172474,-7095402 -172467,-7095387 -172447,-7095364 -172432,-7095354 -172412,-7095348 -172387,-7095349 -172370,-7095355 -172342,-7095375 -172330,-7095381 -172307,-7095384 -172285,-7095379 -172262,-7095366 -172247,-7095355 -172245,-7095348 -172248,-7095338 -172263,-7095318 -172298,-7095285 -172310,-7095267 -172312,-7095253 -172307,-7095239 -172287,-7095214 -172278,-7095203 -172274,-7095200 -172268,-7095198 -172263,-7095198 -172235,-7095210 -172208,-7095219 -172192,-7095219 -172181,-7095213 -172177,-7095205 -172175,-7095195 -172168,-7095195 -172160,-7095185 -172155,-7095160 -172150,-7095119 -172148,-7095056 -172148,-7094995 -172143,-7094985 -172083,-7094875 -171951,-7094664 -171893,-7094658 -171873,-7094632 -171856,-7094617 -171838,-7094610 -171823,-7094610 -171784,-7094632 -171772,-7094632 -171760,-7094624 -171752,-7094611 -171754,-7094600 -171757,-7094596 -171768,-7094571 -171763,-7094552 -171743,-7094538 -171708,-7094522 -171709,-7094478 -171702,-7094470 -171692,-7094469 -171682,-7094472 -171674,-7094481 -171670,-7094494 -171654,-7094522 -171644,-7094534 -171634,-7094539 -171621,-7094541 -171610,-7094537 -171605,-7094531 -171601,-7094524 -171600,-7094502 -171602,-7094493 -171631,-7094444 -171612,-7094416 -171591,-7094393 -171563,-7094327 -171551,-7094319 -171537,-7094316 -171509,-7094325 -171488,-7094325 -171424,-7094307 -171410,-7094295 -171408,-7094281 -171410,-7094271 -171424,-7094256 -171429,-7094241 -171426,-7094225 -171412,-7094205 -171400,-7094176 -171409,-7094148 -171415,-7094124 -171407,-7094105 -171394,-7094097 -171350,-7094097 -171334,-7094073 -171314,-7094024 -171301,-7094001 -171270,-7093972 -171258,-7093954 -171248,-7093925 -171236,-7093912 -171222,-7093890 -171201,-7093860 -171168,-7093891 -171153,-7093893 -171114,-7093892 -171090,-7093885 -171062,-7093869 -171048,-7093857 -171048,-7093837 -171054,-7093825 -171093,-7093799 -171091,-7093793 -171050,-7093767 -171029,-7093765 -171022,-7093761 -171021,-7093746 -171027,-7093722 -171049,-7093660 -171049,-7093639 -171045,-7093614 -171042,-7093602 -171034,-7093592 -171027,-7093589 -170994,-7093588 -170974,-7093580 -170965,-7093591 -170949,-7093603 -170920,-7093613 -170862,-7093635 -170837,-7093630 -170800,-7093617 -170786,-7093616 -170745,-7093598 -170715,-7093587 -170695,-7093572 -170650,-7093585 -170587,-7093600 -170556,-7093601 -170554,-7093586 -170541,-7093578 -170490,-7093513 -170465,-7093492 -170430,-7093476 -170405,-7093473 -170350,-7093514 -170421,-7093585 -170456,-7093599 -170413,-7093616 -170378,-7093619 -170300,-7093649 -170303,-7093666 -170306,-7093695 -170299,-7093734 -170290,-7093769 -170248,-7093886 -170235,-7093928 -170228,-7093936 -170138,-7094205 -170010,-7094237 -169986,-7094241 -169905,-7094265 -169860,-7094278 -169758,-7094307 -169734,-7094315 -169690,-7094334 -169631,-7094382 -169455,-7094475 -169332,-7094553 -169195,-7094634 -169057,-7094709 -169043,-7094682 -169012,-7094602 -168986,-7094555 -168971,-7094532 -168953,-7094506 -168915,-7094461 -168854,-7094397 -168825,-7094369 -168791,-7094337 -168746,-7094381 -168665,-7094338 -168415,-7094199 -168332,-7094188 -168295,-7094200 -168262,-7094218 -168208,-7094239 -168189,-7094239 -168174,-7094233 -168132,-7094173 -168076,-7094197 -168143,-7094290 -167999,-7094369 -167909,-7094420 -167912,-7094422 -167875,-7094443 -167783,-7094329 -167657,-7094405 -167500,-7094505 -167373,-7094584 -167150,-7094744 -167144,-7094739 -167133,-7094730 -166739,-7094390 -166596,-7094269 -166584,-7094440 -166575,-7094592 -166549,-7094778 -166512,-7094968 -166471,-7095161 -166442,-7095283 -166435,-7095360 -166307,-7095340 -166242,-7095325 -166168,-7095304 -166042,-7095281 -166072,-7095160 -166086,-7095100 -166123,-7094903 -166163,-7094709 -166190,-7094566 -166192,-7094513 -166191,-7094481 -166187,-7094442 -166102,-7094234 -166103,-7094198 -166086,-7094171 -166074,-7094159 -166065,-7094153 -166040,-7094140 -165930,-7094095 -165809,-7094056 -165776,-7094063 -165706,-7094093 -165629,-7094114 -165520,-7094143 -165456,-7094162 -165319,-7094199 -165299,-7094108 -165288,-7094106 -165290,-7094080 -165285,-7094063 -165279,-7094005 -165261,-7093971 -165250,-7093941 -165246,-7093914 -165233,-7093870 -165232,-7093816 -165225,-7093813 -165189,-7093801 -165165,-7093799 -165094,-7093830 -165076,-7093844 -165066,-7093853 -165056,-7093863 -165036,-7093888 -164973,-7093961 -164962,-7093978 -164948,-7094017 -164930,-7094041 -164892,-7094074 -164884,-7094079 -164839,-7094100 -164810,-7094098 -164775,-7094114 -164748,-7094132 -164713,-7094150 -164673,-7094190 -164634,-7094317 -164593,-7094454 -164562,-7094451 -164544,-7094459 -164530,-7094489 -164472,-7094558 -164428,-7094604 -164387,-7094639 -164314,-7094693 -164238,-7094742 -164180,-7094779 -164171,-7094817 -164156,-7094845 -164151,-7094877 -164117,-7094928 -164115,-7094958 -164115,-7094990 -164084,-7095025 -164069,-7095009 -164013,-7094970 -163998,-7094949 -163968,-7094918 -163927,-7094945 -163829,-7095009 -163754,-7095060 -163345,-7095335 -163247,-7095405 -163131,-7095479 -163066,-7095519 -162967,-7095582 -162920,-7095614 -162930,-7095627 -162814,-7095703 -162717,-7095777 -162638,-7095841 -162571,-7095882 -162573,-7095894 -162541,-7095902 -162510,-7095919 -162449,-7095941 -162423,-7095925 -162394,-7095976 -162365,-7096004 -162360,-7095995 -162262,-7096056 -162256,-7096067 -162179,-7096108 -162166,-7096116 -162082,-7096168 -162026,-7096206 -161979,-7096243 -161975,-7096246 -161921,-7096300 -161836,-7096392 -161800,-7096425 -161740,-7096476 -161688,-7096536 -161659,-7096556 -161649,-7096576 -161628,-7096602 -161564,-7096648 -161506,-7096703 -161394,-7096796 -161317,-7096852 -161262,-7096893 -161223,-7096928 -161195,-7096956 -161174,-7096991 -161168,-7097008 -161158,-7097068 -161151,-7097108 -161149,-7097152 -161147,-7097151 -161095,-7097090 -161082,-7097086" stroke="#006747" stroke-width="93" /></ns0:svg>    <rect x="20" y="50"  width="250" height="25"  rx="0"  fill="#006747" fill-opacity="0.8" />    <text x="145" y="70" text-anchor="middle" font-family="Frutiger" font-weight="bold" font-size="30" fill="white">Barnsley</text>    <rect x="35" y="195" width="220" height="160" rx="15" fill="#78BE20"/>    <g font-family="Frutiger" font-size="15" fill="#231F20">        <g> <text x="45" y="218">Self-harm</text> <text x="245" y="218" text-anchor="end">65</text> </g>        <g> <text x="45" y="243">SEN</text> <text x="245" y="243" text-anchor="end">60</text> </g>        <g> <text x="45" y="268">Difficulties</text> <text x="245" y="268" text-anchor="end">69</text> </g>        <g> <text x="45" y="293">Child Carer</text> <text x="245" y="293" text-anchor="end">3</text> </g>        <g> <text x="45" y="318">Drinkers</text> <text x="245" y="318" text-anchor="end">91</text> </g>        <g> <text x="45" y="343">Safeguarding </text> <text x="245" y="343" text-anchor="end">21</text> </g>    </g></svg>