<?xml version="1.0" standalone="no"?>
<!DOCTYPE svg PUBLIC "-//W3C//DTD SVG 1.1//EN"
"http://www.w3.org/Graphics/SVG/1.1/DTD/svg11.dtd">
<svg height="1800" version="1.1" width="1800" xmlns="http://www.w3.org/2000/svg"><defs><style type="text/css">@font-face {font-family: 'Frutiger';font-style: normal;font-weight: normal;src: local('Frutiger'), url('../fonts/Frutiger.woff') format('woff');}@font-face {font-family: 'Frutiger Bold';font-style: normal;font-weight: normal;src: local('Frutiger Bold'), url('../fonts/Frutiger_bold.woff') format('woff');}        </style>    </defs>    <rect x="20" y="20"  width="250" height="350" rx="15" fill="#009639" />    <rect x="35" y="35"  width="220" height="145" rx="15" fill="#E8EDEE" /><ns0:svg xmlns:ns0="http://www.w3.org/2000/svg" height="115" version="1.1" viewBox="-325344 -7076759 19951 29381" width="220" x="35" y="50"><ns0:polygon fill="#006747" points=" -320994,-7076583 -320849,-7076549 -320821,-7076543 -320799,-7076542 -320767,-7076540 -320694,-7076498 -320506,-7076392 -320475,-7076366 -320439,-7076339 -320294,-7076267 -320242,-7076238 -320195,-7076226 -320179,-7076219 -320167,-7076210 -320152,-7076197 -320131,-7076183 -320014,-7076135 -319928,-7076076 -319903,-7076054 -319857,-7076032 -319846,-7075983 -319846,-7075927 -319819,-7075832 -319801,-7075775 -319785,-7075715 -319767,-7075592 -319760,-7075520 -319750,-7075466 -319731,-7075397 -319712,-7075320 -319679,-7075229 -319645,-7075159 -319633,-7075136 -319621,-7075114 -319605,-7075089 -319564,-7075021 -319491,-7074935 -319451,-7074898 -319375,-7074839 -319347,-7074819 -319243,-7074741 -319088,-7074630 -318986,-7074564 -318970,-7074555 -318947,-7074544 -318909,-7074534 -318802,-7074500 -318724,-7074478 -318667,-7074452 -318613,-7074412 -318538,-7074355 -318527,-7074356 -318488,-7074395 -318447,-7074429 -318318,-7074534 -318282,-7074549 -318028,-7074595 -317731,-7074650 -317607,-7074673 -317527,-7074682 -317438,-7074703 -317360,-7074734 -317331,-7074751 -317311,-7074763 -317290,-7074762 -317242,-7074741 -317161,-7074650 -317069,-7074553 -317016,-7074513 -316777,-7074340 -316690,-7074281 -316614,-7074221 -316603,-7074215 -316592,-7074205 -316585,-7074193 -316581,-7074180 -316581,-7074175 -316582,-7074167 -316588,-7074134 -316595,-7074113 -316608,-7074088 -316634,-7074004 -316642,-7073970 -316613,-7073931 -316566,-7073877 -316525,-7073816 -316525,-7073759 -316549,-7073641 -316556,-7073571 -316589,-7073365 -316635,-7073091 -316639,-7073055 -316522,-7073038 -316431,-7073026 -316041,-7072975 -315967,-7072966 -315825,-7072949 -315757,-7072948 -315442,-7072910 -315399,-7072912 -315270,-7072889 -315243,-7072886 -315149,-7072876 -315101,-7072867 -315065,-7072866 -314896,-7072849 -314739,-7072829 -314608,-7072808 -314541,-7072803 -314473,-7073257 -314387,-7073094 -314337,-7072994 -314309,-7072940 -314274,-7072851 -314255,-7072807 -314249,-7072786 -314240,-7072774 -314232,-7072764 -314141,-7072633 -314019,-7072462 -313903,-7072301 -313817,-7072170 -313683,-7072027 -313622,-7071967 -313563,-7071887 -313559,-7071881 -313572,-7071782 -313582,-7071728 -313596,-7071651 -313610,-7071571 -313637,-7071435 -313649,-7071346 -313654,-7071289 -313681,-7071054 -313694,-7070935 -313707,-7070845 -313723,-7070743 -313742,-7070634 -313759,-7070534 -313770,-7070440 -313774,-7070329 -313779,-7070140 -313780,-7069993 -313778,-7069864 -313777,-7069831 -313708,-7069837 -313639,-7069843 -313474,-7069856 -313416,-7069861 -313276,-7069866 -313118,-7069864 -312924,-7069866 -312866,-7069867 -312786,-7069870 -312635,-7069881 -312471,-7069888 -312309,-7069892 -312215,-7069895 -312215,-7069895 -312193,-7069896 -312185,-7069896 -312189,-7069882 -312204,-7069857 -312209,-7069846 -312207,-7069837 -312213,-7069829 -312227,-7069806 -312234,-7069787 -312238,-7069738 -312244,-7069730 -312252,-7069721 -312260,-7069668 -312268,-7069623 -312269,-7069606 -312274,-7069605 -312278,-7069605 -312277,-7069592 -312276,-7069581 -312284,-7069581 -312292,-7069560 -312292,-7069539 -312299,-7069495 -312310,-7069468 -312331,-7069396 -312333,-7069360 -312341,-7069340 -312349,-7069278 -312392,-7069144 -312399,-7069050 -312411,-7068905 -312415,-7068785 -312425,-7068595 -312441,-7068348 -312474,-7067763 -312350,-7067730 -312269,-7067710 -312263,-7067708 -312283,-7067654 -312292,-7067620 -312293,-7067612 -312294,-7067604 -312295,-7067595 -312295,-7067587 -312296,-7067579 -312296,-7067570 -312296,-7067553 -312296,-7067535 -312296,-7067516 -312295,-7067497 -312294,-7067478 -312292,-7067460 -312290,-7067441 -312290,-7067434 -312286,-7067397 -312282,-7067361 -312277,-7067330 -312272,-7067301 -312244,-7067200 -312198,-7067054 -312167,-7066949 -312160,-7066933 -312150,-7066921 -312138,-7066907 -312094,-7066874 -312030,-7066829 -311980,-7066797 -311978,-7066796 -311976,-7066794 -311975,-7066793 -311973,-7066791 -311972,-7066791 -311971,-7066789 -311969,-7066787 -311968,-7066785 -311967,-7066784 -311965,-7066782 -311964,-7066780 -311963,-7066776 -311961,-7066771 -311959,-7066766 -311958,-7066763 -311957,-7066758 -311956,-7066755 -311956,-7066753 -311955,-7066750 -311955,-7066747 -311954,-7066745 -311953,-7066741 -311952,-7066739 -311951,-7066736 -311951,-7066735 -311950,-7066734 -311949,-7066733 -311948,-7066732 -311947,-7066731 -311947,-7066730 -311945,-7066728 -311944,-7066727 -311943,-7066727 -311938,-7066722 -311933,-7066717 -311928,-7066712 -311913,-7066698 -311908,-7066694 -311905,-7066691 -311898,-7066684 -311896,-7066683 -311890,-7066676 -311843,-7066634 -311758,-7066553 -311746,-7066540 -311742,-7066535 -311739,-7066530 -311723,-7066513 -311698,-7066467 -311632,-7066338 -311532,-7066142 -311445,-7065971 -311373,-7065833 -311267,-7065653 -311216,-7065573 -311159,-7065496 -311149,-7065464 -311146,-7065436 -311145,-7065408 -311148,-7065364 -311155,-7065366 -311158,-7065359 -311163,-7065350 -311185,-7065305 -311228,-7065214 -311261,-7065140 -311287,-7065077 -311310,-7065004 -311334,-7064922 -311338,-7064924 -311372,-7064948 -311429,-7064993 -311493,-7065029 -311536,-7065047 -311577,-7065058 -311627,-7065061 -311641,-7065062 -311654,-7065063 -311668,-7065064 -311682,-7065064 -311695,-7065064 -311709,-7065063 -311715,-7065063 -311808,-7065066 -311887,-7065069 -311963,-7065070 -312065,-7065074 -312136,-7065074 -312137,-7065060 -312137,-7065056 -312175,-7065043 -312210,-7065021 -312230,-7065005 -312254,-7064973 -312268,-7064945 -312281,-7064881 -312290,-7064826 -312292,-7064789 -312289,-7064736 -312275,-7064662 -312248,-7064588 -312238,-7064561 -312242,-7064559 -312254,-7064553 -312253,-7064551 -312229,-7064507 -312208,-7064518 -312183,-7064479 -312150,-7064442 -312122,-7064412 -312082,-7064383 -312037,-7064356 -312037,-7064352 -312037,-7064347 -312011,-7064337 -312009,-7064339 -312007,-7064342 -311960,-7064331 -311898,-7064325 -311842,-7064315 -311786,-7064300 -311747,-7064287 -311708,-7064260 -311697,-7064248 -311686,-7064226 -311686,-7064193 -311680,-7064159 -311665,-7064132 -311652,-7064114 -311628,-7064094 -311603,-7064078 -311576,-7064067 -311540,-7064061 -311511,-7064061 -311433,-7064074 -311420,-7064077 -311398,-7064081 -311392,-7064081 -311389,-7064060 -311344,-7064059 -311339,-7064059 -311349,-7063983 -311354,-7063924 -311363,-7063878 -311393,-7063782 -311443,-7063637 -311406,-7063627 -311358,-7063622 -311326,-7063623 -311272,-7063628 -311198,-7063636 -311141,-7063641 -311094,-7063646 -311047,-7063655 -311022,-7063658 -311018,-7063627 -311013,-7063578 -310997,-7063580 -310989,-7063580 -310964,-7063526 -310941,-7063465 -310947,-7063465 -311003,-7063457 -310988,-7063342 -310968,-7063223 -310952,-7063130 -310928,-7063136 -310886,-7063139 -310875,-7063137 -310850,-7063132 -310824,-7063133 -310796,-7063126 -310782,-7063123 -310757,-7063121 -310737,-7063117 -310706,-7063099 -310688,-7063088 -310673,-7063081 -310661,-7063070 -310647,-7063062 -310633,-7063059 -310613,-7063056 -310584,-7063048 -310556,-7063040 -310506,-7063040 -310437,-7063036 -310376,-7063017 -310352,-7063006 -310352,-7063006 -310350,-7063005 -310344,-7063003 -310330,-7063006 -310318,-7063018 -310311,-7063022 -310310,-7063023 -310302,-7063025 -310291,-7063029 -310274,-7063034 -310262,-7063024 -310255,-7063018 -310228,-7062993 -310204,-7062964 -310183,-7062932 -310176,-7062913 -310167,-7062882 -310166,-7062875 -310165,-7062868 -310165,-7062867 -310163,-7062860 -310162,-7062854 -310161,-7062851 -310160,-7062847 -310159,-7062843 -310157,-7062840 -310156,-7062836 -310154,-7062833 -310152,-7062831 -310151,-7062830 -310150,-7062828 -310148,-7062827 -310147,-7062826 -310139,-7062818 -310130,-7062810 -310104,-7062796 -310091,-7062789 -310076,-7062783 -309927,-7062718 -309906,-7062706 -309878,-7062690 -309873,-7062683 -309865,-7062673 -309847,-7062674 -309846,-7062674 -309841,-7062676 -309823,-7062683 -309795,-7062685 -309742,-7062676 -309719,-7062672 -309708,-7062673 -309692,-7062673 -309663,-7062668 -309654,-7062666 -309532,-7062597 -309503,-7062574 -309463,-7062538 -309449,-7062519 -309442,-7062510 -309431,-7062504 -309405,-7062494 -309387,-7062495 -309331,-7062511 -309325,-7062513 -309290,-7062483 -309187,-7062412 -309149,-7062387 -309045,-7062316 -309046,-7062313 -309069,-7062248 -309103,-7062150 -309136,-7062059 -309149,-7062037 -309154,-7062003 -309156,-7061983 -309176,-7061913 -309187,-7061890 -309230,-7061797 -309306,-7061626 -309348,-7061551 -309375,-7061496 -309370,-7061489 -309365,-7061482 -309369,-7061470 -309380,-7061446 -309412,-7061374 -309430,-7061329 -309443,-7061298 -309465,-7061247 -309490,-7061175 -309491,-7061173 -309511,-7061181 -309546,-7061199 -309648,-7061242 -309654,-7061226 -309668,-7061188 -309672,-7061174 -309622,-7061144 -309673,-7061055 -309715,-7060985 -309741,-7060939 -309704,-7060922 -309723,-7060869 -309741,-7060821 -309730,-7060818 -309703,-7060805 -309671,-7060779 -309595,-7060699 -309476,-7060574 -309422,-7060517 -309313,-7060416 -309268,-7060376 -309270,-7060367 -309273,-7060352 -309285,-7060338 -309306,-7060316 -309308,-7060313 -309310,-7060310 -309311,-7060307 -309313,-7060303 -309315,-7060300 -309316,-7060297 -309318,-7060283 -309318,-7060278 -309320,-7060269 -309332,-7060263 -309457,-7060242 -309621,-7060215 -309710,-7060205 -309717,-7060205 -309733,-7060198 -309827,-7060183 -309905,-7060170 -309999,-7060153 -310101,-7060139 -310099,-7060125 -310096,-7060107 -310094,-7060092 -310092,-7060075 -310090,-7060062 -310090,-7060036 -310090,-7060022 -310088,-7060003 -310091,-7059980 -310093,-7059950 -310100,-7059909 -310101,-7059862 -310101,-7059839 -310100,-7059820 -310100,-7059805 -310098,-7059760 -310096,-7059712 -310093,-7059669 -310094,-7059556 -310094,-7059525 -310094,-7059503 -310091,-7059464 -310090,-7059448 -310086,-7059427 -310084,-7059410 -310080,-7059388 -310076,-7059364 -310075,-7059349 -310072,-7059331 -310067,-7059306 -310044,-7059158 -310034,-7059103 -309977,-7058922 -309954,-7058814 -309936,-7058713 -309934,-7058702 -309931,-7058692 -309928,-7058681 -309928,-7058680 -309928,-7058675 -309927,-7058670 -309927,-7058665 -309927,-7058660 -309927,-7058658 -309927,-7058653 -309927,-7058648 -309928,-7058642 -309928,-7058637 -309929,-7058631 -309930,-7058626 -309931,-7058620 -309933,-7058615 -309934,-7058610 -309935,-7058604 -309936,-7058599 -309937,-7058595 -309940,-7058584 -309943,-7058577 -309981,-7058491 -310006,-7058430 -310024,-7058384 -310069,-7058245 -310097,-7058145 -310117,-7058073 -310134,-7058011 -310135,-7058005 -310135,-7058003 -310135,-7058000 -310137,-7057979 -310145,-7057925 -310159,-7057873 -310179,-7057834 -310200,-7057786 -310212,-7057744 -310220,-7057698 -310222,-7057636 -310223,-7057618 -310223,-7057613 -310222,-7057554 -310208,-7057553 -310194,-7057553 -310193,-7057552 -310179,-7057551 -310173,-7057551 -310163,-7057550 -310156,-7057550 -310153,-7057550 -310143,-7057550 -310141,-7057550 -310083,-7057549 -310036,-7057547 -309996,-7057547 -309927,-7057539 -309811,-7057523 -309693,-7057512 -309627,-7057503 -309517,-7057491 -309380,-7057470 -309336,-7057464 -309180,-7057440 -309078,-7057421 -309028,-7057415 -309017,-7057415 -308968,-7057410 -308875,-7057398 -308791,-7057385 -308675,-7057369 -308606,-7057360 -308533,-7057354 -308367,-7057346 -308271,-7057341 -308181,-7057338 -308096,-7057345 -308003,-7057344 -307953,-7057345 -307925,-7057351 -307837,-7057350 -307722,-7057360 -307567,-7057373 -307440,-7057387 -307242,-7057409 -307151,-7057423 -307040,-7057443 -306949,-7057461 -306893,-7057474 -306810,-7057490 -306739,-7057503 -306676,-7057515 -306604,-7057534 -306522,-7057564 -306507,-7057564 -306408,-7057594 -306171,-7057663 -306046,-7057693 -306028,-7057697 -305963,-7057714 -305890,-7057746 -305861,-7057759 -305841,-7057764 -305809,-7057768 -305774,-7057765 -305733,-7057754 -305693,-7057739 -305679,-7057727 -305664,-7057708 -305591,-7057723 -305592,-7057717 -305593,-7057710 -305594,-7057702 -305594,-7057695 -305594,-7057693 -305594,-7057690 -305595,-7057680 -305594,-7057670 -305594,-7057661 -305594,-7057660 -305593,-7057652 -305593,-7057645 -305592,-7057637 -305591,-7057630 -305591,-7057625 -305591,-7057615 -305592,-7057604 -305593,-7057594 -305594,-7057583 -305594,-7057580 -305595,-7057573 -305596,-7057566 -305597,-7057559 -305598,-7057552 -305599,-7057545 -305601,-7057538 -305603,-7057531 -305605,-7057525 -305619,-7057491 -305644,-7057448 -305648,-7057439 -305654,-7057427 -305660,-7057416 -305666,-7057404 -305672,-7057392 -305677,-7057380 -305683,-7057369 -305687,-7057356 -305690,-7057349 -305692,-7057344 -305696,-7057332 -305699,-7057324 -305702,-7057315 -305704,-7057305 -305707,-7057295 -305709,-7057286 -305711,-7057276 -305713,-7057266 -305714,-7057256 -305716,-7057246 -305716,-7057235 -305717,-7057223 -305718,-7057212 -305717,-7057201 -305717,-7057190 -305717,-7057179 -305716,-7057167 -305715,-7057156 -305712,-7057138 -305707,-7057113 -305701,-7057087 -305694,-7057061 -305688,-7057042 -305681,-7057017 -305673,-7056992 -305666,-7056972 -305650,-7056923 -305640,-7056895 -305638,-7056890 -305633,-7056874 -305628,-7056859 -305622,-7056844 -305616,-7056829 -305614,-7056823 -305607,-7056808 -305601,-7056795 -305594,-7056781 -305557,-7056718 -305501,-7056629 -305491,-7056613 -305488,-7056608 -305440,-7056527 -305393,-7056452 -305427,-7056452 -305496,-7056448 -305494,-7056437 -305483,-7056400 -305474,-7056369 -305560,-7056337 -305562,-7056336 -305570,-7056332 -305578,-7056328 -305582,-7056327 -305587,-7056325 -305595,-7056322 -305603,-7056319 -305612,-7056316 -305618,-7056314 -305622,-7056313 -305627,-7056311 -305632,-7056310 -305637,-7056309 -305642,-7056308 -305647,-7056307 -305652,-7056306 -305657,-7056305 -305662,-7056305 -305666,-7056304 -305674,-7056304 -305681,-7056304 -305684,-7056305 -305701,-7056306 -305702,-7056306 -305716,-7056306 -305730,-7056306 -305733,-7056306 -305742,-7056306 -305751,-7056306 -305760,-7056306 -305769,-7056305 -305782,-7056303 -305800,-7056300 -305819,-7056297 -305895,-7056277 -305904,-7056275 -305917,-7056271 -305945,-7056264 -305973,-7056256 -306001,-7056248 -306009,-7056245 -306019,-7056242 -306021,-7056242 -306029,-7056239 -306039,-7056236 -306049,-7056232 -306058,-7056228 -306071,-7056222 -306090,-7056213 -306103,-7056207 -306117,-7056201 -306131,-7056195 -306145,-7056190 -306157,-7056185 -306171,-7056181 -306186,-7056176 -306200,-7056172 -306186,-7056127 -306173,-7056073 -306171,-7056049 -306159,-7056004 -306134,-7055910 -306035,-7055913 -305890,-7055914 -305861,-7055913 -305806,-7055912 -305814,-7055872 -305812,-7055823 -305839,-7055672 -305839,-7055669 -305840,-7055620 -305848,-7055573 -305871,-7055479 -305897,-7055412 -305902,-7055396 -305886,-7055284 -305893,-7055235 -305901,-7055214 -305907,-7055203 -305913,-7055195 -305921,-7055185 -305933,-7055175 -305943,-7055168 -305959,-7055160 -305977,-7055156 -306042,-7055150 -306068,-7055125 -306193,-7055002 -306213,-7054977 -306287,-7054916 -306311,-7054892 -306307,-7054887 -306295,-7054875 -306293,-7054871 -306291,-7054866 -306290,-7054861 -306290,-7054856 -306291,-7054851 -306294,-7054845 -306299,-7054840 -306305,-7054836 -306314,-7054833 -306395,-7054718 -306417,-7054704 -306440,-7054695 -306485,-7054675 -306565,-7054644 -306644,-7054629 -306657,-7054635 -306738,-7054616 -306773,-7054609 -306785,-7054605 -306795,-7054600 -306806,-7054593 -306820,-7054583 -306921,-7054535 -306954,-7054517 -306967,-7054512 -307022,-7054496 -307085,-7054476 -307191,-7054441 -307244,-7054425 -307271,-7054408 -307242,-7054381 -307232,-7054373 -307210,-7054360 -307161,-7054336 -307139,-7054324 -307118,-7054309 -307106,-7054298 -307092,-7054284 -307082,-7054273 -307065,-7054251 -306994,-7054136 -307002,-7054131 -306984,-7054094 -306981,-7054089 -306970,-7054069 -306967,-7054061 -306965,-7054052 -306962,-7054029 -306962,-7053995 -306964,-7053978 -306974,-7053908 -306982,-7053800 -306980,-7053737 -307069,-7053769 -307092,-7053785 -307114,-7053805 -307250,-7053965 -307277,-7054004 -307294,-7054021 -307300,-7054018 -307306,-7054037 -307354,-7054032 -307393,-7054028 -307425,-7054026 -307441,-7054028 -307460,-7054030 -307464,-7054031 -307478,-7054035 -307500,-7054042 -307557,-7054057 -307620,-7054084 -307674,-7054094 -307745,-7054102 -307749,-7054117 -307779,-7054132 -307805,-7054148 -307895,-7054183 -307986,-7054228 -308031,-7054259 -308068,-7054289 -308073,-7054296 -308079,-7054300 -308087,-7054304 -308095,-7054305 -308102,-7054305 -308113,-7054302 -308136,-7054301 -308157,-7054297 -308167,-7054297 -308180,-7054299 -308187,-7054301 -308216,-7054321 -308249,-7054327 -308273,-7054326 -308278,-7054325 -308282,-7054322 -308355,-7054276 -308382,-7054246 -308418,-7054214 -308435,-7054193 -308441,-7054184 -308483,-7054166 -308499,-7054162 -308508,-7054162 -308518,-7054163 -308534,-7054167 -308556,-7054164 -308567,-7054161 -308578,-7054157 -308586,-7054152 -308593,-7054146 -308600,-7054138 -308605,-7054131 -308609,-7054119 -308629,-7054024 -308642,-7053986 -308645,-7053970 -308658,-7053966 -308681,-7053873 -308695,-7053816 -308700,-7053806 -308703,-7053801 -308707,-7053796 -308712,-7053793 -308723,-7053789 -308749,-7053791 -308777,-7053783 -308789,-7053789 -308800,-7053791 -308826,-7053789 -308846,-7053789 -308853,-7053788 -308872,-7053772 -308885,-7053770 -308903,-7053765 -308919,-7053762 -308922,-7053760 -308926,-7053756 -308930,-7053750 -308939,-7053743 -308980,-7053734 -309036,-7053773 -309050,-7053782 -309070,-7053790 -309097,-7053796 -309098,-7053791 -309105,-7053718 -309127,-7053613 -309133,-7053601 -309131,-7053594 -309139,-7053562 -309139,-7053539 -309176,-7053431 -309193,-7053385 -309198,-7053371 -309242,-7053227 -309283,-7053105 -309305,-7053113 -309331,-7053002 -309335,-7052955 -309336,-7052863 -309343,-7052793 -309344,-7052789 -309364,-7052792 -309377,-7052794 -309398,-7052792 -309415,-7052790 -309434,-7052785 -309435,-7052783 -309439,-7052772 -309452,-7052684 -309467,-7052619 -309457,-7052611 -309482,-7052488 -309500,-7052406 -309508,-7052349 -309527,-7052275 -309541,-7052224 -309562,-7052150 -309591,-7052085 -309610,-7052049 -309614,-7052041 -309617,-7052036 -309654,-7051947 -309684,-7051885 -309694,-7051865 -309723,-7051810 -309713,-7051806 -309595,-7051759 -309538,-7051738 -309495,-7051720 -309498,-7051714 -309504,-7051703 -309506,-7051674 -309509,-7051657 -309523,-7051613 -309534,-7051588 -309546,-7051569 -309553,-7051535 -309557,-7051522 -309584,-7051478 -309615,-7051417 -309647,-7051339 -309680,-7051265 -309674,-7051262 -309664,-7051259 -309665,-7051255 -309678,-7051221 -309685,-7051199 -309683,-7051192 -309680,-7051185 -309679,-7051179 -309643,-7051159 -309628,-7051153 -309599,-7051142 -309599,-7051139 -309613,-7051050 -309579,-7051031 -309569,-7051026 -309571,-7051024 -309586,-7050999 -309643,-7050889 -309682,-7050815 -309732,-7050725 -309773,-7050655 -309774,-7050638 -309762,-7050629 -309762,-7050620 -309821,-7050505 -309875,-7050413 -309892,-7050377 -309960,-7050254 -309974,-7050230 -309976,-7050227 -309928,-7050207 -309908,-7050199 -309899,-7050195 -309906,-7050181 -309921,-7050153 -309945,-7050106 -309953,-7050096 -310005,-7050002 -310006,-7050000 -310018,-7049972 -310052,-7049880 -310081,-7049807 -310114,-7049730 -310110,-7049728 -310140,-7049648 -310169,-7049571 -310173,-7049543 -310163,-7049536 -310186,-7049470 -310217,-7049391 -310255,-7049296 -310275,-7049239 -310279,-7049225 -310280,-7049200 -310280,-7049182 -310281,-7049175 -310359,-7049173 -310463,-7049167 -310544,-7049164 -310673,-7049157 -310792,-7049153 -310881,-7049147 -310964,-7049142 -311049,-7049135 -311124,-7049124 -311194,-7049115 -311194,-7049120 -311195,-7049124 -311276,-7049118 -311386,-7049110 -311387,-7049105 -311387,-7049100 -311453,-7049097 -311457,-7049101 -311459,-7049106 -311464,-7049118 -311486,-7049118 -311494,-7049107 -311505,-7049107 -311516,-7049107 -311552,-7049109 -311589,-7049110 -311625,-7049111 -311662,-7049110 -311685,-7049110 -311722,-7049108 -311758,-7049105 -311794,-7049102 -311895,-7049091 -312020,-7049075 -312124,-7049063 -312189,-7049052 -312255,-7049039 -312339,-7049024 -312520,-7048987 -312581,-7048973 -312703,-7048950 -312705,-7048947 -312711,-7048932 -312727,-7048907 -312747,-7048885 -312776,-7048854 -312833,-7048794 -312911,-7048706 -312971,-7048643 -312976,-7048639 -312979,-7048593 -313024,-7048541 -313060,-7048505 -313089,-7048472 -313151,-7048407 -313190,-7048370 -313252,-7048311 -313313,-7048251 -313367,-7048188 -313403,-7048150 -313492,-7048060 -313500,-7048066 -313505,-7048058 -313516,-7048033 -313522,-7048005 -313525,-7047989 -313527,-7047963 -313533,-7047916 -313535,-7047904 -313544,-7047862 -313546,-7047855 -313550,-7047840 -313562,-7047812 -313581,-7047780 -313620,-7047739 -313658,-7047711 -313688,-7047696 -313708,-7047689 -313744,-7047683 -313753,-7047682 -313752,-7047631 -313787,-7047629 -313788,-7047629 -313808,-7047629 -313866,-7047622 -314015,-7047606 -314124,-7047594 -314199,-7047587 -314230,-7047596 -314223,-7047620 -314277,-7047639 -314319,-7047622 -314367,-7047601 -314426,-7047581 -314470,-7047565 -314544,-7047539 -314575,-7047528 -314640,-7047505 -314707,-7047487 -314742,-7047476 -314808,-7047460 -314848,-7047448 -314850,-7047448 -314890,-7047437 -314931,-7047427 -314971,-7047418 -315013,-7047410 -315047,-7047404 -315088,-7047398 -315130,-7047392 -315172,-7047388 -315214,-7047384 -315233,-7047382 -315275,-7047380 -315317,-7047378 -315360,-7047378 -315402,-7047378 -315412,-7047378 -315432,-7047378 -315474,-7047382 -315569,-7047388 -315592,-7047393 -315695,-7047409 -315777,-7047427 -315813,-7047434 -315900,-7047456 -315917,-7047446 -315922,-7047442 -315978,-7047454 -316092,-7047480 -316192,-7047504 -316200,-7047516 -316202,-7047519 -316245,-7047595 -316267,-7047639 -316291,-7047674 -316319,-7047726 -316336,-7047744 -316341,-7047760 -316422,-7047920 -316480,-7048031 -316510,-7048090 -316586,-7048262 -316588,-7048266 -316676,-7048428 -316723,-7048513 -316764,-7048585 -316804,-7048667 -316825,-7048698 -316849,-7048739 -316852,-7048745 -316855,-7048749 -316891,-7048812 -316922,-7048872 -316953,-7048968 -316963,-7048999 -317008,-7049112 -317058,-7049221 -317078,-7049242 -317088,-7049265 -317120,-7049337 -317122,-7049351 -317155,-7049422 -317163,-7049433 -317185,-7049480 -317216,-7049558 -317230,-7049585 -317267,-7049655 -317268,-7049657 -317318,-7049744 -317378,-7049881 -317405,-7049932 -317448,-7050012 -317486,-7050084 -317492,-7050097 -317509,-7050133 -317512,-7050140 -317506,-7050142 -317531,-7050197 -317559,-7050260 -317586,-7050327 -317621,-7050425 -317649,-7050523 -317655,-7050565 -317662,-7050714 -317664,-7050848 -317668,-7050926 -317667,-7050985 -317662,-7051032 -317654,-7051071 -317631,-7051146 -317610,-7051202 -317575,-7051314 -317569,-7051332 -317562,-7051354 -317534,-7051434 -317519,-7051481 -317516,-7051491 -317509,-7051516 -317501,-7051542 -317495,-7051567 -317494,-7051569 -317493,-7051574 -317492,-7051579 -317485,-7051622 -317486,-7051626 -317486,-7051627 -317487,-7051646 -317490,-7051691 -317492,-7051739 -317497,-7051797 -317508,-7051927 -317511,-7051970 -317524,-7052106 -317528,-7052151 -317536,-7052203 -317542,-7052254 -317552,-7052291 -317563,-7052351 -317571,-7052420 -317575,-7052440 -317587,-7052498 -317592,-7052519 -317592,-7052523 -317604,-7052602 -317626,-7052694 -317627,-7052699 -317652,-7052812 -317666,-7052884 -317690,-7052990 -317705,-7053044 -317726,-7053090 -317737,-7053112 -317753,-7053138 -317765,-7053153 -317778,-7053167 -317790,-7053181 -317803,-7053195 -317897,-7053306 -317949,-7053366 -317946,-7053378 -317925,-7053397 -317897,-7053398 -317873,-7053414 -317837,-7053444 -317751,-7053502 -317708,-7053533 -317683,-7053564 -317611,-7053658 -317608,-7053660 -317599,-7053668 -317582,-7053678 -317548,-7053704 -317497,-7053745 -317476,-7053759 -317466,-7053766 -317419,-7053766 -317358,-7053764 -317285,-7053758 -317251,-7053762 -317228,-7053768 -317208,-7053772 -317151,-7053786 -317075,-7053805 -317063,-7053808 -317046,-7053812 -317031,-7053814 -317028,-7053816 -317022,-7053819 -317012,-7053826 -316998,-7053835 -316983,-7053845 -316966,-7053855 -316946,-7053868 -316917,-7053897 -316893,-7053938 -316881,-7053948 -316795,-7053961 -316683,-7053980 -316640,-7053983 -316611,-7053978 -316560,-7053965 -316530,-7053961 -316513,-7053951 -316505,-7053947 -316501,-7053944 -316497,-7053941 -316493,-7053938 -316489,-7053936 -316485,-7053934 -316483,-7053932 -316478,-7053930 -316474,-7053928 -316470,-7053926 -316465,-7053925 -316461,-7053923 -316456,-7053922 -316452,-7053921 -316447,-7053919 -316446,-7053919 -316443,-7053918 -316438,-7053917 -316434,-7053916 -316416,-7053910 -316398,-7053905 -316380,-7053901 -316368,-7053899 -316353,-7053896 -316339,-7053893 -316324,-7053891 -316319,-7053891 -316267,-7053885 -316266,-7053885 -316252,-7053883 -316238,-7053882 -316227,-7053881 -316186,-7053878 -316164,-7053877 -316149,-7053877 -316105,-7053875 -316086,-7053875 -316067,-7053875 -316062,-7053875 -316026,-7053877 -316012,-7053877 -315991,-7053875 -315964,-7053874 -315950,-7053876 -315909,-7053876 -315867,-7053872 -315794,-7053872 -315768,-7053866 -315697,-7053849 -315671,-7053841 -315645,-7053835 -315641,-7053834 -315611,-7053826 -315606,-7053825 -315600,-7053825 -315594,-7053824 -315588,-7053824 -315582,-7053824 -315576,-7053823 -315570,-7053824 -315564,-7053824 -315559,-7053825 -315553,-7053825 -315548,-7053826 -315542,-7053827 -315512,-7053830 -315496,-7053833 -315463,-7053844 -315436,-7053854 -315417,-7053863 -315398,-7053871 -315353,-7053891 -315352,-7053892 -315343,-7053895 -315334,-7053898 -315325,-7053901 -315318,-7053902 -315316,-7053902 -315313,-7053902 -315311,-7053901 -315308,-7053901 -315306,-7053901 -315303,-7053900 -315300,-7053900 -315295,-7053899 -315290,-7053898 -315285,-7053897 -315280,-7053895 -315275,-7053894 -315270,-7053892 -315269,-7053891 -315265,-7053890 -315262,-7053888 -315258,-7053886 -315254,-7053884 -315251,-7053882 -315247,-7053880 -315244,-7053878 -315241,-7053876 -315236,-7053873 -315231,-7053869 -315226,-7053865 -315221,-7053861 -315217,-7053857 -315214,-7053855 -315208,-7053850 -315202,-7053843 -315196,-7053837 -315190,-7053831 -315189,-7053831 -315175,-7053819 -315156,-7053802 -315132,-7053782 -315107,-7053778 -315084,-7053776 -315064,-7053775 -315044,-7053775 -315031,-7053776 -315029,-7053777 -315025,-7053778 -315021,-7053779 -315018,-7053781 -315011,-7053783 -315006,-7053785 -314999,-7053790 -314993,-7053792 -314985,-7053794 -314971,-7053794 -314958,-7053794 -314953,-7053793 -314948,-7053791 -314943,-7053789 -314938,-7053787 -314935,-7053786 -314930,-7053783 -314925,-7053781 -314921,-7053778 -314916,-7053775 -314907,-7053770 -314905,-7053768 -314886,-7053754 -314871,-7053739 -314845,-7053710 -314821,-7053684 -314802,-7053659 -314766,-7053673 -314723,-7053682 -314648,-7053691 -314532,-7053704 -314490,-7053702 -314467,-7053687 -314434,-7053648 -314416,-7053631 -314403,-7053619 -314388,-7053615 -314381,-7053615 -314356,-7053614 -314315,-7053614 -314289,-7053618 -314273,-7053624 -314256,-7053630 -314239,-7053642 -314219,-7053662 -314201,-7053683 -314193,-7053692 -314177,-7053706 -314175,-7053707 -314174,-7053708 -314166,-7053715 -314151,-7053723 -314138,-7053723 -314160,-7053775 -314191,-7053846 -314213,-7053900 -314219,-7053940 -314220,-7053975 -314222,-7053995 -314231,-7054010 -314242,-7054020 -314259,-7054030 -314273,-7054041 -314293,-7054057 -314337,-7054104 -314367,-7054139 -314443,-7054239 -314484,-7054294 -314536,-7054368 -314567,-7054420 -314585,-7054447 -314591,-7054465 -314593,-7054490 -314597,-7054503 -314605,-7054517 -314637,-7054552 -314662,-7054580 -314687,-7054597 -314717,-7054615 -314774,-7054646 -314804,-7054663 -314822,-7054670 -314857,-7054680 -314875,-7054690 -314890,-7054701 -314911,-7054723 -314926,-7054744 -314936,-7054767 -314953,-7054821 -314963,-7054847 -314976,-7054866 -315027,-7054918 -315053,-7054943 -315100,-7054982 -315115,-7054986 -315139,-7054990 -315155,-7054992 -315173,-7054998 -315192,-7055005 -315206,-7055015 -315260,-7055062 -315324,-7055120 -315334,-7055135 -315362,-7055181 -315380,-7055211 -315396,-7055236 -315408,-7055248 -315440,-7055268 -315437,-7055286 -315434,-7055303 -315431,-7055327 -315429,-7055345 -315421,-7055353 -315411,-7055356 -315402,-7055367 -315393,-7055376 -315393,-7055385 -315390,-7055390 -315381,-7055392 -315377,-7055396 -315370,-7055411 -315357,-7055433 -315352,-7055436 -315340,-7055440 -315336,-7055449 -315337,-7055454 -315342,-7055459 -315348,-7055464 -315347,-7055469 -315344,-7055474 -315335,-7055492 -315329,-7055515 -315329,-7055531 -315347,-7055551 -315359,-7055553 -315362,-7055557 -315361,-7055566 -315352,-7055586 -315350,-7055595 -315353,-7055606 -315349,-7055613 -315343,-7055621 -315344,-7055629 -315343,-7055636 -315338,-7055644 -315337,-7055653 -315333,-7055658 -315326,-7055656 -315313,-7055652 -315311,-7055656 -315311,-7055664 -315311,-7055675 -315315,-7055681 -315327,-7055688 -315328,-7055692 -315320,-7055695 -315309,-7055703 -315303,-7055714 -315300,-7055725 -315288,-7055725 -315280,-7055726 -315280,-7055735 -315282,-7055741 -315288,-7055742 -315295,-7055740 -315297,-7055744 -315298,-7055753 -315296,-7055761 -315293,-7055774 -315295,-7055788 -315294,-7055797 -315289,-7055806 -315271,-7055806 -315262,-7055824 -315257,-7055835 -315264,-7055841 -315271,-7055848 -315274,-7055855 -315273,-7055865 -315269,-7055872 -315261,-7055881 -315256,-7055895 -315258,-7055906 -315270,-7055920 -315281,-7055934 -315289,-7055970 -315284,-7055985 -315284,-7056006 -315283,-7056021 -315281,-7056031 -315285,-7056038 -315293,-7056048 -315294,-7056056 -315294,-7056076 -315302,-7056108 -315307,-7056119 -315306,-7056131 -315306,-7056153 -315312,-7056174 -315328,-7056204 -315327,-7056216 -315341,-7056227 -315348,-7056239 -315355,-7056249 -315368,-7056266 -315372,-7056282 -315372,-7056293 -315376,-7056301 -315383,-7056308 -315385,-7056319 -315389,-7056329 -315392,-7056338 -315389,-7056343 -315384,-7056350 -315387,-7056357 -315394,-7056366 -315403,-7056377 -315405,-7056386 -315403,-7056396 -315394,-7056411 -315388,-7056426 -315384,-7056449 -315385,-7056462 -315389,-7056478 -315391,-7056501 -315393,-7056522 -315399,-7056539 -315410,-7056558 -315421,-7056579 -315429,-7056603 -315461,-7056665 -315473,-7056695 -315481,-7056702 -315486,-7056700 -315503,-7056682 -315524,-7056661 -315536,-7056654 -315544,-7056656 -315560,-7056666 -315566,-7056675 -315586,-7056694 -315596,-7056711 -315609,-7056735 -315622,-7056754 -315629,-7056762 -315628,-7056769 -315627,-7056776 -315624,-7056785 -315630,-7056804 -315630,-7056818 -315633,-7056831 -315641,-7056834 -315652,-7056835 -315660,-7056840 -315674,-7056853 -315688,-7056865 -315693,-7056873 -315698,-7056895 -315707,-7056917 -315727,-7056944 -315734,-7056959 -315738,-7056977 -315746,-7056984 -315759,-7056989 -315770,-7056998 -315776,-7057008 -315783,-7057028 -315790,-7057046 -315795,-7057066 -315795,-7057090 -315802,-7057111 -315804,-7057130 -315801,-7057145 -315798,-7057163 -315801,-7057173 -315808,-7057181 -315830,-7057206 -315834,-7057284 -315851,-7057307 -315859,-7057314 -315867,-7057323 -315878,-7057320 -315881,-7057317 -315884,-7057315 -315888,-7057312 -315891,-7057309 -315894,-7057306 -315898,-7057303 -315902,-7057301 -315906,-7057298 -315910,-7057296 -315912,-7057295 -315918,-7057291 -315924,-7057288 -315931,-7057284 -315938,-7057281 -315944,-7057278 -315947,-7057277 -315966,-7057268 -315985,-7057259 -316004,-7057251 -316058,-7057220 -316145,-7057182 -316287,-7057125 -316338,-7057106 -316406,-7057085 -316414,-7057081 -316415,-7057080 -316423,-7057076 -316431,-7057072 -316434,-7057070 -316454,-7057061 -316500,-7057044 -316600,-7057011 -316705,-7056969 -316755,-7056942 -316774,-7056926 -316862,-7056879 -316993,-7056801 -317038,-7056766 -317042,-7056764 -317231,-7056832 -317301,-7056788 -317419,-7056710 -317631,-7056576 -317866,-7056419 -317871,-7056421 -317882,-7056426 -317910,-7056446 -317915,-7056439 -317934,-7056415 -317945,-7056400 -317952,-7056391 -317967,-7056401 -317980,-7056410 -318002,-7056422 -318020,-7056435 -318062,-7056460 -318101,-7056485 -318119,-7056495 -318152,-7056514 -318203,-7056547 -318232,-7056565 -318284,-7056598 -318351,-7056633 -318497,-7056715 -318585,-7056763 -318670,-7056811 -318715,-7056837 -318819,-7056892 -318892,-7056933 -318899,-7056936 -318958,-7056968 -318967,-7056971 -319008,-7056994 -319008,-7056996 -319008,-7057005 -319012,-7057007 -319012,-7057008 -319033,-7057020 -319059,-7057034 -319086,-7057048 -319102,-7057056 -319157,-7057084 -319198,-7057103 -319226,-7057115 -319243,-7057122 -319257,-7057127 -319285,-7057137 -319307,-7057144 -319323,-7057149 -319328,-7057151 -319346,-7057155 -319346,-7057155 -319388,-7057166 -319481,-7057191 -319537,-7057206 -319568,-7057241 -319664,-7057367 -319694,-7057403 -319700,-7057414 -319713,-7057445 -319757,-7057564 -319760,-7057580 -319778,-7057612 -319792,-7057649 -319795,-7057646 -319816,-7057638 -319876,-7057602 -319956,-7057558 -320024,-7057520 -320047,-7057510 -320051,-7057513 -320071,-7057531 -320073,-7057529 -320081,-7057521 -320082,-7057520 -320102,-7057556 -320125,-7057598 -320134,-7057614 -320222,-7057766 -320247,-7057807 -320285,-7057879 -320308,-7057921 -320330,-7057960 -320401,-7058088 -320475,-7058217 -320551,-7058350 -320572,-7058388 -320620,-7058474 -320706,-7058629 -320742,-7058659 -320757,-7058672 -320766,-7058724 -320786,-7058830 -320787,-7058833 -320788,-7058842 -320787,-7058844 -320787,-7058860 -320802,-7058856 -320877,-7058840 -321057,-7058796 -321191,-7058765 -321300,-7058738 -321394,-7058715 -321551,-7058678 -321597,-7058666 -321687,-7058644 -321773,-7058625 -321782,-7058653 -321790,-7058683 -321794,-7058698 -321800,-7058745 -321810,-7058808 -321812,-7058850 -321821,-7058893 -321847,-7058987 -321878,-7059101 -321900,-7059182 -321925,-7059255 -321942,-7059265 -321958,-7059315 -321962,-7059318 -321973,-7059328 -321973,-7059336 -321981,-7059342 -321982,-7059406 -321978,-7059450 -321978,-7059457 -321976,-7059535 -321976,-7059541 -321966,-7059548 -321940,-7059547 -321923,-7059552 -321907,-7059565 -321874,-7059600 -321836,-7059640 -321751,-7059768 -321684,-7059855 -321646,-7059831 -321633,-7059836 -321622,-7059848 -321597,-7059889 -321579,-7059923 -321561,-7059957 -321519,-7060041 -321516,-7060045 -321434,-7060124 -321297,-7060260 -321207,-7060353 -321161,-7060400 -321160,-7060401 -321131,-7060430 -321124,-7060438 -321082,-7060434 -321079,-7060434 -321068,-7060450 -321059,-7060474 -321056,-7060484 -320961,-7060440 -320891,-7060411 -320856,-7060396 -320858,-7060391 -320814,-7060374 -320758,-7060351 -320748,-7060346 -320737,-7060339 -320729,-7060333 -320697,-7060313 -320697,-7060312 -320671,-7060296 -320573,-7060235 -320452,-7060158 -320412,-7060132 -320317,-7060072 -320213,-7060006 -320098,-7059933 -320045,-7059899 -320024,-7059886 -319970,-7059851 -319919,-7059815 -319843,-7059762 -319794,-7059733 -319755,-7059709 -319732,-7059701 -319660,-7059666 -319630,-7059649 -319621,-7059646 -319621,-7059646 -319616,-7059645 -319603,-7059649 -319593,-7059654 -319593,-7059662 -319583,-7059683 -319563,-7059725 -319543,-7059768 -319506,-7059855 -319432,-7060017 -319380,-7060145 -319343,-7060240 -319341,-7060243 -319294,-7060322 -319204,-7060470 -319171,-7060524 -319136,-7060578 -319085,-7060663 -319060,-7060703 -319033,-7060750 -319034,-7060799 -319034,-7060800 -319035,-7060813 -319039,-7060838 -319043,-7060850 -319048,-7060864 -319059,-7060889 -319075,-7060913 -319097,-7060936 -319124,-7060958 -319187,-7061009 -319194,-7061004 -319201,-7060999 -319208,-7061002 -319219,-7061005 -319228,-7061016 -319228,-7061021 -319226,-7061029 -319226,-7061051 -319224,-7061100 -319225,-7061145 -319229,-7061166 -319255,-7061161 -319257,-7061173 -319268,-7061230 -319315,-7061434 -319352,-7061598 -319362,-7061672 -319353,-7061695 -319337,-7061730 -319318,-7061760 -319295,-7061785 -319289,-7061791 -319289,-7061801 -319332,-7061837 -319356,-7061859 -319438,-7061934 -319473,-7061964 -319478,-7061968 -319456,-7062005 -319450,-7062014 -319469,-7062024 -319497,-7062030 -319487,-7062078 -319465,-7062132 -319443,-7062182 -319426,-7062204 -319387,-7062246 -319364,-7062244 -319327,-7062244 -319302,-7062270 -319281,-7062293 -319280,-7062361 -319241,-7062403 -319161,-7062487 -319101,-7062499 -319099,-7062501 -319082,-7062520 -319081,-7062521 -319091,-7062531 -319061,-7062566 -319101,-7062598 -319134,-7062630 -319144,-7062629 -319149,-7062629 -319160,-7062653 -319206,-7062697 -319208,-7062710 -319210,-7062719 -319211,-7062725 -319212,-7062731 -319213,-7062740 -319213,-7062750 -319214,-7062759 -319214,-7062761 -319215,-7062772 -319217,-7062782 -319219,-7062793 -319221,-7062803 -319224,-7062813 -319224,-7062815 -319225,-7062819 -319226,-7062825 -319227,-7062829 -319228,-7062832 -319229,-7062836 -319230,-7062839 -319231,-7062842 -319232,-7062845 -319234,-7062849 -319235,-7062852 -319235,-7062852 -319237,-7062855 -319239,-7062858 -319241,-7062861 -319243,-7062864 -319245,-7062867 -319247,-7062870 -319249,-7062872 -319251,-7062874 -319253,-7062877 -319255,-7062879 -319257,-7062882 -319258,-7062884 -319260,-7062887 -319261,-7062888 -319262,-7062891 -319264,-7062894 -319265,-7062897 -319266,-7062900 -319267,-7062902 -319293,-7062987 -319345,-7063041 -319329,-7063060 -319330,-7063095 -319409,-7063173 -319381,-7063203 -319365,-7063220 -319383,-7063295 -319403,-7063367 -319418,-7063445 -319352,-7063489 -319438,-7063574 -319537,-7063668 -319581,-7063710 -319609,-7063765 -319616,-7063767 -319625,-7063773 -319647,-7063788 -319672,-7063806 -319677,-7063810 -319698,-7063830 -319719,-7063849 -319783,-7063910 -319760,-7063927 -319704,-7063967 -319782,-7064050 -319826,-7064106 -319849,-7064133 -319867,-7064153 -319847,-7064169 -319759,-7064243 -319722,-7064271 -319664,-7064320 -319673,-7064328 -319681,-7064335 -319686,-7064340 -319683,-7064342 -319676,-7064347 -319665,-7064356 -319655,-7064362 -319648,-7064368 -319600,-7064408 -319580,-7064425 -319596,-7064437 -319579,-7064455 -319561,-7064545 -319547,-7064670 -319539,-7064726 -319531,-7064782 -319515,-7064876 -319511,-7064931 -319503,-7064975 -319498,-7065023 -319493,-7065044 -319492,-7065056 -319492,-7065071 -319493,-7065086 -319500,-7065121 -319504,-7065141 -319520,-7065170 -319525,-7065180 -319526,-7065184 -319529,-7065197 -319537,-7065214 -319546,-7065227 -319564,-7065247 -319564,-7065258 -319552,-7065276 -319551,-7065302 -319541,-7065313 -319533,-7065326 -319530,-7065344 -319533,-7065362 -319529,-7065378 -319517,-7065396 -319505,-7065421 -319499,-7065453 -319492,-7065483 -319481,-7065488 -319456,-7065497 -319443,-7065507 -319428,-7065526 -319416,-7065534 -319391,-7065550 -319388,-7065559 -319386,-7065582 -319376,-7065600 -319361,-7065616 -319348,-7065625 -319319,-7065642 -319301,-7065660 -319291,-7065682 -319285,-7065718 -319284,-7065745 -319304,-7065816 -319298,-7065835 -319285,-7065872 -319286,-7065889 -319297,-7065937 -319297,-7065958 -319303,-7065996 -319297,-7066051 -319288,-7066073 -319285,-7066097 -319277,-7066158 -319270,-7066185 -319257,-7066218 -319256,-7066254 -319262,-7066286 -319264,-7066318 -319253,-7066348 -319239,-7066373 -319222,-7066399 -319222,-7066414 -319236,-7066469 -319248,-7066541 -319275,-7066585 -319300,-7066631 -319312,-7066663 -319328,-7066681 -319352,-7066704 -319375,-7066716 -319401,-7066732 -319415,-7066744 -319447,-7066777 -319458,-7066796 -319466,-7066825 -319470,-7066847 -319488,-7066879 -319497,-7066899 -319499,-7066927 -319507,-7066952 -319516,-7066964 -319529,-7066976 -319552,-7066998 -319564,-7067012 -319573,-7067030 -319583,-7067060 -319593,-7067096 -319615,-7067141 -319633,-7067179 -319686,-7067237 -319719,-7067275 -319740,-7067288 -319756,-7067299 -319769,-7067314 -319785,-7067323 -319798,-7067334 -319826,-7067345 -319842,-7067352 -319853,-7067362 -319867,-7067369 -319893,-7067384 -319916,-7067397 -319927,-7067399 -319941,-7067402 -319949,-7067404 -319955,-7067412 -319955,-7067424 -319964,-7067435 -319982,-7067455 -320016,-7067486 -320018,-7067508 -320022,-7067519 -320029,-7067533 -320041,-7067547 -320057,-7067562 -320092,-7067581 -320115,-7067591 -320145,-7067598 -320158,-7067609 -320179,-7067620 -320196,-7067627 -320235,-7067678 -320260,-7067703 -320273,-7067716 -320285,-7067721 -320297,-7067721 -320309,-7067720 -320314,-7067725 -320324,-7067740 -320332,-7067741 -320353,-7067737 -320379,-7067753 -320395,-7067766 -320406,-7067771 -320424,-7067779 -320441,-7067795 -320459,-7067812 -320468,-7067822 -320474,-7067840 -320479,-7067850 -320497,-7067869 -320517,-7067888 -320539,-7067904 -320588,-7067924 -320633,-7067942 -320657,-7067951 -320670,-7067961 -320677,-7067974 -320688,-7067992 -320703,-7068003 -320729,-7068019 -320740,-7068031 -320754,-7068053 -320779,-7068073 -320812,-7068106 -320825,-7068122 -320846,-7068135 -320875,-7068153 -320892,-7068171 -320911,-7068173 -320927,-7068176 -320939,-7068183 -320979,-7068188 -320987,-7068205 -321030,-7068251 -321039,-7068274 -321054,-7068285 -321062,-7068295 -321073,-7068311 -321089,-7068318 -321101,-7068326 -321112,-7068343 -321124,-7068351 -321148,-7068354 -321158,-7068363 -321171,-7068377 -321186,-7068381 -321201,-7068382 -321224,-7068422 -321234,-7068430 -321250,-7068433 -321260,-7068439 -321267,-7068449 -321268,-7068471 -321274,-7068480 -321297,-7068488 -321323,-7068496 -321360,-7068513 -321389,-7068531 -321417,-7068556 -321424,-7068583 -321429,-7068610 -321468,-7068644 -321485,-7068653 -321512,-7068665 -321530,-7068669 -321549,-7068678 -321561,-7068691 -321572,-7068700 -321588,-7068702 -321601,-7068705 -321621,-7068717 -321649,-7068729 -321661,-7068738 -321684,-7068764 -321682,-7068775 -321683,-7068801 -321689,-7068810 -321707,-7068817 -321724,-7068822 -321725,-7068846 -321714,-7068855 -321716,-7068865 -321728,-7068891 -321728,-7068900 -321722,-7068906 -321723,-7068916 -321731,-7068927 -321735,-7068939 -321733,-7068949 -321710,-7068993 -321742,-7069019 -321756,-7069023 -321775,-7069024 -321801,-7069035 -321814,-7069037 -321830,-7069041 -321843,-7069047 -321845,-7069059 -321848,-7069069 -321857,-7069071 -321868,-7069072 -321878,-7069080 -321878,-7069092 -321881,-7069098 -321892,-7069102 -321893,-7069113 -321880,-7069121 -321873,-7069125 -321877,-7069134 -321882,-7069136 -321888,-7069138 -321915,-7069144 -321915,-7069148 -321914,-7069168 -321920,-7069166 -321936,-7069154 -321947,-7069152 -321955,-7069156 -321964,-7069160 -321972,-7069158 -321989,-7069154 -322033,-7069176 -322051,-7069179 -322091,-7069229 -322095,-7069242 -322111,-7069253 -322115,-7069262 -322120,-7069286 -322130,-7069285 -322141,-7069284 -322143,-7069291 -322138,-7069298 -322131,-7069310 -322133,-7069320 -322139,-7069321 -322150,-7069323 -322158,-7069325 -322160,-7069335 -322158,-7069344 -322154,-7069356 -322159,-7069359 -322168,-7069359 -322178,-7069361 -322180,-7069367 -322179,-7069371 -322168,-7069380 -322164,-7069388 -322161,-7069396 -322157,-7069407 -322158,-7069416 -322164,-7069418 -322179,-7069418 -322185,-7069422 -322201,-7069443 -322212,-7069450 -322231,-7069457 -322236,-7069464 -322240,-7069487 -322250,-7069506 -322282,-7069594 -322303,-7069649 -322297,-7069672 -322274,-7069667 -322257,-7069663 -322257,-7069670 -322276,-7069693 -322276,-7069784 -322283,-7069848 -322286,-7069878 -322286,-7069885 -322333,-7069913 -322504,-7070024 -322861,-7070255 -322958,-7070299 -323000,-7070320 -323089,-7070353 -323096,-7070356 -323105,-7070357 -323145,-7070362 -323268,-7070383 -323317,-7070390 -323346,-7070395 -323367,-7070400 -323384,-7070405 -323414,-7070416 -323449,-7070429 -323479,-7070443 -323486,-7070446 -323471,-7070413 -323454,-7070378 -323420,-7070296 -323414,-7070274 -323398,-7070204 -323393,-7070187 -323389,-7070179 -323389,-7070178 -323377,-7070165 -323363,-7070151 -323358,-7070144 -323352,-7070133 -323349,-7070099 -323347,-7070079 -323345,-7070072 -323342,-7070058 -323339,-7070047 -323329,-7070032 -323309,-7070017 -323290,-7069998 -323280,-7069980 -323276,-7069976 -323270,-7069967 -323266,-7069959 -323265,-7069951 -323264,-7069940 -323264,-7069926 -323266,-7069907 -323285,-7069840 -323337,-7069646 -323360,-7069545 -323364,-7069536 -323374,-7069523 -323392,-7069508 -323410,-7069499 -323438,-7069486 -323466,-7069477 -323476,-7069475 -323490,-7069475 -323506,-7069476 -323521,-7069479 -323535,-7069484 -323560,-7069497 -323572,-7069501 -323588,-7069506 -323604,-7069509 -323612,-7069510 -323634,-7069510 -323674,-7069506 -323682,-7069505 -323702,-7069508 -323730,-7069519 -323741,-7069522 -323753,-7069523 -323763,-7069523 -323779,-7069520 -323794,-7069514 -323808,-7069505 -323818,-7069497 -323874,-7069483 -323941,-7069484 -324001,-7069487 -324078,-7069499 -324176,-7069525 -324218,-7069526 -324274,-7069518 -324308,-7069487 -324321,-7069476 -324359,-7069453 -324379,-7069484 -324391,-7069493 -324427,-7069478 -324427,-7069479 -324437,-7069506 -324460,-7069561 -324484,-7069612 -324487,-7069619 -324488,-7069644 -324491,-7069661 -324491,-7069680 -324499,-7069696 -324500,-7069698 -324504,-7069706 -324507,-7069732 -324516,-7069751 -324518,-7069773 -324518,-7069787 -324519,-7069827 -324519,-7069840 -324520,-7069872 -324520,-7069905 -324525,-7070002 -324533,-7070028 -324542,-7070050 -324550,-7070072 -324554,-7070099 -324555,-7070142 -324568,-7070161 -324580,-7070198 -324660,-7070172 -324789,-7070126 -324874,-7070102 -324903,-7070097 -324909,-7070149 -324933,-7070146 -324935,-7070161 -324939,-7070194 -324943,-7070240 -324954,-7070282 -324961,-7070324 -324961,-7070328 -324973,-7070379 -324982,-7070403 -325054,-7070591 -325107,-7070734 -325173,-7070906 -325167,-7070913 -325057,-7071023 -325217,-7071206 -325344,-7071344 -325338,-7071347 -325275,-7071386 -325245,-7071414 -325210,-7071429 -325184,-7071447 -325139,-7071493 -325072,-7071566 -324985,-7071652 -324974,-7071661 -324964,-7071671 -324955,-7071681 -324937,-7071701 -324939,-7071715 -324939,-7071721 -324943,-7071772 -324952,-7071840 -324955,-7071876 -324950,-7071921 -324917,-7071924 -324884,-7071940 -324852,-7071958 -324831,-7071965 -324821,-7071975 -324817,-7071980 -324811,-7071992 -324809,-7072002 -324776,-7072045 -324762,-7072071 -324749,-7072096 -324749,-7072104 -324749,-7072109 -324747,-7072114 -324743,-7072118 -324738,-7072122 -324732,-7072124 -324722,-7072125 -324713,-7072127 -324705,-7072133 -324701,-7072145 -324700,-7072156 -324702,-7072164 -324708,-7072176 -324723,-7072191 -324721,-7072231 -324719,-7072249 -324719,-7072255 -324720,-7072260 -324736,-7072308 -324765,-7072343 -324822,-7072416 -324856,-7072447 -324900,-7072521 -325003,-7072670 -324786,-7072703 -324741,-7072713 -324710,-7072715 -324608,-7072713 -324572,-7072717 -324480,-7072736 -324414,-7072757 -324402,-7072761 -324374,-7072774 -324365,-7072779 -324332,-7072809 -324298,-7072849 -324279,-7072865 -324251,-7072882 -324246,-7072898 -324234,-7072917 -324198,-7072964 -324184,-7072989 -324180,-7073008 -324185,-7073031 -324193,-7073044 -324192,-7073067 -324183,-7073093 -324178,-7073104 -324153,-7073153 -324133,-7073192 -324121,-7073241 -324113,-7073268 -324109,-7073286 -324094,-7073297 -324078,-7073333 -324061,-7073379 -324029,-7073466 -324008,-7073522 -323971,-7073611 -323958,-7073641 -323941,-7073689 -323931,-7073706 -323916,-7073727 -323882,-7073796 -323843,-7073874 -323817,-7073932 -323809,-7073950 -323795,-7073972 -323776,-7073995 -323765,-7074006 -323745,-7074023 -323719,-7074041 -323692,-7074061 -323674,-7074086 -323649,-7074114 -323612,-7074173 -323574,-7074229 -323493,-7074379 -323463,-7074431 -323440,-7074474 -323422,-7074508 -323411,-7074522 -323410,-7074523 -323410,-7074524 -323381,-7074519 -323313,-7074493 -323256,-7074467 -323147,-7074470 -323108,-7074469 -323059,-7074465 -322803,-7074468 -322782,-7074468 -322775,-7074477 -322764,-7074489 -322761,-7074502 -322761,-7074523 -322764,-7074553 -322767,-7074567 -322774,-7074575 -322790,-7074583 -322803,-7074593 -322804,-7074606 -322798,-7074622 -322785,-7074656 -322785,-7074660 -322780,-7074680 -322766,-7074735 -322761,-7074777 -322754,-7074832 -322750,-7074844 -322746,-7074855 -322740,-7074866 -322734,-7074876 -322712,-7074906 -322692,-7074930 -322677,-7074942 -322661,-7074953 -322630,-7074972 -322603,-7074983 -322597,-7074989 -322593,-7074998 -322592,-7075004 -322593,-7075011 -322600,-7075035 -322603,-7075044 -322603,-7075051 -322601,-7075056 -322600,-7075059 -322596,-7075063 -322588,-7075067 -322571,-7075071 -322538,-7075073 -322529,-7075076 -322526,-7075078 -322504,-7075103 -322499,-7075116 -322478,-7075156 -322464,-7075168 -322458,-7075213 -322456,-7075223 -322445,-7075253 -322443,-7075268 -322446,-7075283 -322461,-7075315 -322462,-7075330 -322460,-7075338 -322453,-7075355 -322425,-7075403 -322424,-7075407 -322423,-7075417 -322424,-7075426 -322425,-7075431 -322433,-7075443 -322446,-7075454 -322472,-7075517 -322486,-7075547 -322499,-7075567 -322520,-7075594 -322547,-7075621 -322572,-7075643 -322586,-7075665 -322589,-7075694 -322590,-7075715 -322590,-7075722 -322593,-7075728 -322593,-7075729 -322602,-7075747 -322634,-7075805 -322643,-7075821 -322655,-7075843 -322667,-7075867 -322669,-7075870 -322680,-7075907 -322689,-7075938 -322694,-7075963 -322696,-7075986 -322689,-7076006 -322678,-7076021 -322676,-7076023 -322667,-7076042 -322662,-7076057 -322661,-7076074 -322662,-7076078 -322666,-7076102 -322660,-7076151 -322655,-7076168 -322650,-7076177 -322644,-7076186 -322617,-7076213 -322580,-7076247 -322580,-7076273 -322579,-7076280 -322575,-7076287 -322570,-7076292 -322566,-7076294 -322528,-7076313 -322499,-7076330 -322489,-7076337 -322456,-7076370 -322413,-7076405 -322376,-7076419 -322367,-7076424 -322358,-7076430 -322312,-7076473 -322293,-7076484 -322262,-7076501 -322245,-7076506 -322224,-7076508 -322189,-7076518 -322167,-7076545 -322151,-7076568 -322136,-7076579 -322122,-7076582 -322094,-7076583 -322068,-7076584 -322037,-7076588 -322012,-7076604 -321990,-7076620 -321976,-7076627 -321963,-7076625 -321885,-7076587 -321783,-7076572 -321731,-7076562 -321697,-7076557 -321674,-7076561 -321665,-7076569 -321631,-7076598 -321538,-7076690 -321520,-7076709 -321507,-7076722 -321496,-7076734 -321490,-7076741 -321488,-7076743 -321470,-7076758 -321455,-7076759 -321439,-7076759 -321313,-7076732 -321292,-7076727 -321201,-7076675 -321071,-7076604 -320994,-7076583" stroke="#006747" stroke-width="49" /></ns0:svg>    <rect x="20" y="50"  width="250" height="25"  rx="0"  fill="#006747" fill-opacity="0.8" />    <text x="145" y="70" text-anchor="middle" font-family="Frutiger" font-weight="bold" font-size="30" fill="white">Knowsley</text>    <rect x="35" y="195" width="220" height="160" rx="15" fill="#78BE20"/>    <g font-family="Frutiger" font-size="15" fill="#231F20">        <g> <text x="45" y="218">Self-harm</text> <text x="245" y="218" text-anchor="end">61</text> </g>        <g> <text x="45" y="243">SEN</text> <text x="245" y="243" text-anchor="end">59</text> </g>        <g> <text x="45" y="268">Difficulties</text> <text x="245" y="268" text-anchor="end">56</text> </g>        <g> <text x="45" y="293">Child Carer</text> <text x="245" y="293" text-anchor="end">7</text> </g>        <g> <text x="45" y="318">Drinkers</text> <text x="245" y="318" text-anchor="end">34</text> </g>        <g> <text x="45" y="343">Safeguarding </text> <text x="245" y="343" text-anchor="end">31</text> </g>    </g></svg>