<?xml version="1.0" standalone="no"?>
<!DOCTYPE svg PUBLIC "-//W3C//DTD SVG 1.1//EN"
"http://www.w3.org/Graphics/SVG/1.1/DTD/svg11.dtd">
<svg height="1800" version="1.1" width="1800" xmlns="http://www.w3.org/2000/svg"><defs><style type="text/css">@font-face {font-family: 'Frutiger';font-style: normal;font-weight: normal;src: local('Frutiger'), url('../fonts/Frutiger.woff') format('woff');}@font-face {font-family: 'Frutiger Bold';font-style: normal;font-weight: normal;src: local('Frutiger Bold'), url('../fonts/Frutiger_bold.woff') format('woff');}        </style>    </defs>    <rect x="20" y="20"  width="250" height="350" rx="15" fill="#009639" />    <rect x="35" y="35"  width="220" height="145" rx="15" fill="#E8EDEE" /><ns0:svg xmlns:ns0="http://www.w3.org/2000/svg" height="115" version="1.1" viewBox="-351070 -7114361 30336 50272" width="220" x="35" y="50"><ns0:polygon fill="#006747" points=" -328428,-7111957 -328155,-7111490 -328034,-7111290 -328211,-7111160 -328235,-7111145 -328250,-7111133 -328264,-7111120 -328277,-7111106 -328288,-7111091 -328298,-7111074 -328303,-7111064 -328378,-7110893 -328532,-7110578 -328645,-7110329 -328656,-7110307 -328665,-7110281 -328669,-7110262 -328671,-7110239 -328670,-7110211 -328647,-7110112 -328625,-7110067 -328408,-7109837 -328269,-7109726 -328147,-7109639 -328077,-7109603 -328047,-7109596 -328012,-7109591 -327843,-7109617 -327819,-7109626 -327771,-7109650 -327769,-7109650 -327758,-7109619 -327764,-7109613 -327773,-7109603 -327818,-7109554 -327847,-7109514 -327800,-7109478 -327784,-7109433 -327761,-7109394 -327749,-7109363 -327710,-7109165 -327696,-7109088 -327690,-7108942 -327694,-7108822 -327703,-7108679 -327716,-7108500 -327721,-7108462 -327729,-7108423 -327841,-7108097 -327898,-7107946 -327969,-7107731 -328024,-7107611 -328107,-7107406 -328067,-7107374 -327914,-7107254 -327831,-7107183 -327794,-7107128 -327666,-7106902 -327569,-7106739 -327500,-7106617 -327450,-7106397 -327399,-7106205 -327354,-7106012 -327295,-7105764 -327317,-7105728 -327377,-7105672 -327431,-7105625 -327462,-7105526 -327500,-7105438 -327526,-7105358 -327541,-7105328 -327684,-7105207 -327769,-7105138 -327844,-7105072 -327955,-7105003 -328042,-7104951 -328121,-7104899 -328187,-7104853 -328227,-7104817 -328276,-7104750 -328326,-7104683 -328377,-7104605 -328388,-7104585 -328417,-7104535 -328460,-7104461 -328496,-7104380 -328561,-7104268 -328608,-7104165 -328666,-7104056 -328740,-7103910 -328808,-7103779 -328860,-7103674 -328910,-7103583 -328958,-7103495 -329029,-7103363 -329145,-7103133 -329221,-7102998 -329266,-7102920 -329331,-7102812 -329369,-7102742 -329346,-7102676 -329297,-7102558 -329291,-7102540 -329284,-7102517 -329278,-7102489 -329275,-7102468 -329273,-7102452 -329273,-7102419 -329322,-7102344 -329375,-7102261 -329428,-7102185 -329437,-7102171 -329481,-7102099 -329544,-7102032 -329585,-7101988 -329668,-7101899 -329706,-7101859 -329726,-7101825 -329766,-7101766 -329825,-7101632 -329873,-7101529 -329915,-7101445 -329933,-7101403 -330009,-7101224 -330030,-7101177 -330077,-7101090 -330113,-7100995 -330164,-7100891 -330202,-7100812 -330230,-7100741 -330268,-7100691 -330313,-7100641 -330370,-7100591 -330430,-7100524 -330592,-7100357 -330632,-7100314 -330744,-7100193 -330835,-7100089 -330982,-7099938 -331199,-7099708 -331504,-7099381 -331752,-7099114 -331935,-7098928 -332202,-7099139 -332283,-7099203 -332374,-7099279 -332463,-7099349 -332527,-7099394 -332599,-7099449 -332657,-7099497 -332715,-7099548 -332854,-7099658 -332885,-7099683 -332916,-7099709 -332980,-7099765 -333018,-7099777 -333045,-7099797 -333119,-7099843 -333170,-7099881 -333190,-7099907 -333124,-7099941 -333222,-7100031 -333259,-7100067 -333507,-7099903 -333617,-7099836 -333661,-7099807 -333723,-7099766 -333753,-7099737 -333863,-7099627 -333972,-7099515 -334040,-7099449 -334039,-7099448 -334038,-7099447 -334037,-7099447 -334035,-7099446 -334034,-7099445 -334033,-7099444 -334033,-7099444 -334009,-7099425 -334012,-7099418 -334012,-7099417 -334026,-7099384 -334004,-7099326 -334002,-7099314 -334014,-7099287 -334151,-7099173 -334153,-7099170 -334154,-7099167 -334147,-7099150 -334145,-7099139 -334150,-7099102 -334161,-7099089 -334148,-7099066 -334145,-7099057 -334143,-7099048 -334136,-7099031 -334136,-7099024 -334137,-7099016 -334151,-7098993 -334154,-7098982 -334176,-7098967 -334197,-7098948 -334205,-7098943 -334214,-7098939 -334240,-7098935 -334246,-7098915 -334247,-7098912 -334267,-7098911 -334296,-7098866 -334310,-7098840 -334324,-7098804 -334327,-7098800 -334331,-7098797 -334363,-7098781 -334446,-7098719 -334476,-7098666 -334492,-7098652 -334535,-7098618 -334548,-7098605 -334556,-7098596 -334573,-7098552 -334591,-7098501 -334610,-7098459 -334612,-7098447 -334602,-7098418 -334602,-7098414 -334605,-7098394 -334617,-7098383 -334630,-7098349 -334638,-7098307 -334639,-7098290 -334652,-7098254 -334664,-7098216 -334691,-7098146 -334700,-7098107 -334722,-7098047 -334730,-7098019 -334731,-7098004 -334719,-7097975 -334715,-7097967 -334714,-7097962 -334714,-7097958 -334716,-7097952 -334719,-7097947 -334732,-7097935 -334750,-7097929 -334766,-7097921 -334780,-7097909 -334801,-7097893 -334844,-7097895 -334854,-7097893 -334858,-7097890 -334861,-7097887 -334866,-7097878 -334872,-7097838 -334871,-7097830 -334873,-7097822 -334877,-7097817 -334884,-7097814 -334899,-7097814 -334922,-7097813 -334928,-7097818 -334936,-7097816 -334947,-7097790 -334950,-7097779 -334943,-7097758 -334953,-7097747 -334985,-7097729 -335004,-7097721 -335019,-7097706 -335052,-7097687 -335069,-7097676 -335103,-7097664 -335149,-7097624 -335191,-7097590 -335221,-7097560 -335224,-7097556 -335229,-7097546 -335239,-7097481 -335245,-7097467 -335256,-7097425 -335264,-7097409 -335275,-7097397 -335278,-7097391 -335281,-7097378 -335282,-7097371 -335280,-7097359 -335265,-7097331 -335263,-7097312 -335255,-7097298 -335249,-7097278 -335259,-7097238 -335265,-7097221 -335270,-7097192 -335278,-7097176 -335330,-7097135 -335336,-7097119 -335341,-7097095 -335342,-7097083 -335349,-7097072 -335354,-7097069 -335371,-7097058 -335382,-7097045 -335407,-7097008 -335415,-7096998 -335442,-7096981 -335469,-7096934 -335480,-7096924 -335494,-7096916 -335499,-7096911 -335504,-7096906 -335527,-7096877 -335544,-7096868 -335563,-7096858 -335591,-7096851 -335615,-7096831 -335643,-7096803 -335670,-7096789 -335681,-7096780 -335716,-7096744 -335751,-7096715 -335774,-7096704 -335798,-7096696 -335851,-7096675 -335967,-7096607 -335992,-7096573 -336004,-7096568 -336023,-7096565 -336033,-7096562 -336047,-7096557 -336063,-7096548 -336082,-7096535 -336118,-7096511 -336141,-7096494 -336166,-7096468 -336187,-7096443 -336196,-7096431 -336199,-7096425 -336203,-7096410 -336202,-7096387 -336193,-7096361 -336192,-7096331 -336190,-7096291 -336190,-7096285 -336192,-7096279 -336216,-7096236 -336224,-7096203 -336228,-7096163 -336232,-7096149 -336235,-7096136 -336239,-7096129 -336254,-7096102 -336335,-7096019 -336353,-7095997 -336362,-7095982 -336386,-7095934 -336411,-7095920 -336436,-7095900 -336466,-7095881 -336492,-7095863 -336546,-7095847 -336568,-7095838 -336572,-7095836 -336597,-7095808 -336610,-7095797 -336684,-7095761 -336696,-7095758 -336706,-7095750 -336711,-7095740 -336716,-7095719 -336729,-7095684 -336732,-7095675 -336733,-7095656 -336735,-7095651 -336744,-7095644 -336748,-7095641 -336750,-7095637 -336764,-7095614 -336786,-7095591 -336815,-7095555 -336825,-7095525 -336833,-7095507 -336840,-7095499 -336852,-7095485 -336859,-7095479 -336876,-7095468 -336897,-7095457 -336981,-7095422 -337012,-7095386 -337035,-7095380 -337055,-7095368 -337075,-7095350 -337084,-7095340 -337092,-7095329 -337117,-7095284 -337122,-7095261 -337133,-7095237 -337166,-7095197 -337176,-7095172 -337185,-7095148 -337195,-7095114 -337181,-7095092 -337197,-7095077 -337205,-7095069 -337212,-7095060 -337216,-7095053 -337220,-7095045 -337229,-7095013 -337257,-7095004 -337271,-7094996 -337271,-7094989 -337269,-7094965 -337272,-7094950 -337287,-7094924 -337310,-7094901 -337309,-7094886 -337317,-7094864 -337304,-7094846 -337315,-7094812 -337313,-7094782 -337325,-7094762 -337327,-7094734 -337333,-7094717 -337316,-7094713 -337313,-7094707 -337317,-7094681 -337324,-7094660 -337340,-7094639 -337367,-7094594 -337375,-7094580 -337387,-7094546 -337396,-7094530 -337420,-7094520 -337427,-7094515 -337453,-7094518 -337479,-7094517 -337494,-7094496 -337514,-7094497 -337525,-7094496 -337529,-7094494 -337533,-7094490 -337537,-7094486 -337540,-7094475 -337522,-7094396 -337522,-7094378 -337524,-7094364 -337541,-7094319 -337544,-7094306 -337542,-7094299 -337538,-7094292 -337525,-7094293 -337520,-7094291 -337519,-7094289 -337517,-7094284 -337518,-7094277 -337521,-7094271 -337531,-7094261 -337532,-7094248 -337538,-7094236 -337552,-7094223 -337560,-7094204 -337562,-7094188 -337559,-7094182 -337493,-7094145 -337488,-7094142 -337478,-7094142 -337475,-7094140 -337473,-7094138 -337464,-7094092 -337460,-7094083 -337453,-7094073 -337447,-7094070 -337440,-7094068 -337436,-7094068 -337414,-7094071 -337416,-7093991 -337407,-7093962 -337410,-7093878 -337426,-7093836 -337437,-7093786 -337459,-7093704 -337458,-7093588 -337456,-7093506 -337480,-7093493 -337485,-7093490 -337494,-7093481 -337502,-7093472 -337507,-7093464 -337511,-7093456 -337517,-7093441 -337530,-7093376 -337546,-7093285 -337551,-7093242 -337541,-7093200 -337540,-7093177 -337542,-7093168 -337544,-7093156 -337550,-7093137 -337567,-7093110 -337573,-7093092 -337579,-7093075 -337581,-7093067 -337582,-7093059 -337581,-7093054 -337591,-7093039 -337592,-7093034 -337592,-7093030 -337581,-7093021 -337576,-7093012 -337578,-7092989 -337556,-7092965 -337552,-7092951 -337551,-7092926 -337569,-7092910 -337605,-7092859 -337609,-7092788 -337609,-7092783 -337601,-7092781 -337593,-7092779 -337566,-7092776 -337561,-7092767 -337562,-7092754 -337571,-7092740 -337573,-7092716 -337575,-7092712 -337577,-7092708 -337588,-7092698 -337599,-7092689 -337613,-7092676 -337616,-7092673 -337619,-7092670 -337623,-7092646 -337634,-7092631 -337646,-7092607 -337663,-7092595 -337678,-7092578 -337691,-7092552 -337709,-7092523 -337723,-7092520 -337742,-7092518 -337750,-7092514 -337755,-7092508 -337760,-7092482 -337762,-7092481 -337787,-7092472 -337796,-7092468 -337817,-7092453 -337849,-7092444 -337872,-7092440 -337877,-7092438 -337888,-7092431 -337902,-7092424 -337954,-7092380 -337957,-7092376 -337964,-7092366 -337964,-7092364 -337928,-7092351 -337910,-7092336 -337898,-7092320 -337893,-7092301 -337901,-7092285 -337850,-7092274 -337783,-7092262 -337736,-7092265 -337634,-7092247 -337651,-7092127 -337670,-7091971 -337670,-7091968 -337663,-7091966 -337471,-7091932 -337445,-7092042 -337406,-7092037 -337247,-7092009 -337248,-7091888 -337100,-7091857 -336869,-7091811 -336675,-7091776 -336405,-7091726 -336263,-7091700 -336270,-7091538 -336274,-7091432 -336279,-7091257 -336284,-7090959 -336290,-7090836 -336299,-7090732 -336320,-7090519 -336320,-7090411 -336324,-7090300 -336344,-7090264 -336353,-7090171 -336337,-7090151 -336347,-7090052 -336360,-7089889 -336506,-7089817 -336499,-7089629 -336489,-7089418 -336476,-7089061 -336619,-7089054 -336653,-7089055 -336675,-7089054 -336716,-7089049 -336743,-7089043 -336816,-7089020 -336889,-7088999 -336907,-7088995 -336938,-7088988 -337002,-7088977 -337053,-7088971 -337130,-7088966 -337206,-7088964 -337297,-7088965 -337490,-7088964 -337509,-7088959 -337540,-7088948 -337570,-7088934 -337587,-7088923 -337721,-7088833 -337794,-7088772 -337858,-7088722 -338025,-7088601 -338167,-7088487 -338383,-7088330 -338412,-7088307 -338424,-7088293 -338428,-7088287 -338433,-7088281 -338438,-7088275 -338443,-7088268 -338446,-7088263 -338450,-7088256 -338454,-7088250 -338458,-7088243 -338461,-7088236 -338464,-7088228 -338467,-7088221 -338470,-7088214 -338473,-7088206 -338476,-7088199 -338480,-7088188 -338486,-7088173 -338491,-7088158 -338496,-7088143 -338500,-7088127 -338505,-7088112 -338509,-7088096 -338512,-7088081 -338513,-7088075 -338518,-7088054 -338522,-7088033 -338526,-7088011 -338529,-7087990 -338530,-7087978 -338531,-7087962 -338532,-7087946 -338532,-7087930 -338532,-7087914 -338532,-7087898 -338532,-7087882 -338531,-7087866 -338531,-7087857 -338529,-7087823 -338527,-7087789 -338526,-7087774 -338521,-7087725 -338510,-7087681 -338503,-7087676 -338500,-7087672 -338496,-7087666 -338493,-7087656 -338492,-7087644 -338494,-7087611 -338494,-7087596 -338491,-7087581 -338481,-7087518 -338471,-7087473 -338460,-7087443 -338434,-7087387 -338419,-7087360 -338395,-7087321 -338387,-7087307 -338377,-7087285 -338366,-7087255 -338357,-7087231 -338338,-7087165 -338335,-7087149 -338333,-7087134 -338330,-7087109 -338330,-7087079 -338331,-7087053 -338333,-7087031 -338370,-7086861 -338420,-7086607 -338427,-7086574 -338427,-7086571 -338428,-7086569 -338428,-7086566 -338428,-7086564 -338429,-7086562 -338429,-7086560 -338429,-7086557 -338429,-7086554 -338429,-7086552 -338429,-7086550 -338429,-7086542 -338429,-7086540 -338413,-7086476 -338386,-7086380 -338348,-7086260 -338332,-7086208 -338292,-7086073 -338293,-7086072 -338266,-7085979 -338264,-7085922 -338278,-7085745 -338304,-7085641 -338341,-7085515 -338373,-7085418 -338389,-7085372 -338405,-7085327 -338433,-7085259 -338475,-7085177 -338480,-7085168 -338626,-7084914 -338749,-7084694 -338832,-7084558 -338921,-7084392 -338983,-7084288 -339029,-7084196 -339048,-7084160 -339072,-7084124 -339083,-7084110 -339092,-7084100 -339099,-7084095 -339107,-7084089 -339118,-7084083 -339134,-7084076 -339142,-7084073 -339156,-7084068 -339013,-7084044 -338987,-7084035 -338975,-7084029 -338965,-7084024 -338954,-7084015 -338941,-7084003 -338927,-7083988 -338917,-7083977 -338886,-7083935 -338876,-7083918 -338872,-7083906 -338868,-7083893 -338865,-7083880 -338863,-7083867 -338863,-7083856 -338865,-7083829 -338872,-7083802 -338880,-7083780 -338903,-7083733 -338916,-7083711 -338923,-7083694 -338924,-7083687 -338924,-7083672 -338920,-7083654 -338917,-7083647 -338911,-7083637 -338881,-7083611 -338856,-7083588 -338843,-7083580 -338833,-7083576 -338822,-7083573 -338810,-7083572 -338799,-7083572 -338784,-7083573 -338770,-7083575 -338759,-7083578 -338749,-7083583 -338744,-7083586 -338732,-7083600 -338716,-7083635 -338698,-7083668 -338685,-7083698 -338674,-7083731 -338667,-7083743 -338658,-7083757 -338649,-7083769 -338633,-7083785 -338615,-7083798 -338563,-7083827 -338543,-7083835 -338519,-7083842 -338509,-7083843 -338492,-7083843 -338483,-7083841 -338476,-7083839 -338462,-7083830 -338437,-7083809 -338404,-7083775 -338370,-7083746 -338360,-7083734 -338317,-7083656 -338306,-7083633 -338287,-7083589 -338271,-7083552 -338267,-7083536 -338263,-7083512 -338260,-7083445 -338262,-7083421 -338265,-7083404 -338268,-7083395 -338278,-7083370 -338303,-7083321 -338322,-7083293 -338326,-7083286 -338328,-7083281 -338329,-7083274 -338329,-7083265 -338327,-7083255 -338323,-7083245 -338317,-7083236 -338311,-7083228 -338305,-7083223 -338271,-7083199 -338264,-7083196 -338255,-7083193 -338249,-7083192 -338235,-7083193 -338169,-7083202 -338157,-7083204 -338136,-7083210 -338060,-7083237 -338049,-7083242 -338039,-7083247 -338028,-7083256 -338021,-7083262 -337996,-7083286 -337985,-7083298 -337963,-7083328 -337951,-7083339 -337946,-7083342 -337936,-7083346 -337921,-7083349 -337913,-7083350 -337908,-7083350 -337903,-7083349 -337896,-7083345 -337891,-7083340 -337881,-7083325 -337854,-7083256 -337847,-7083241 -337827,-7083208 -337808,-7083170 -337801,-7083159 -337798,-7083155 -337778,-7083136 -337688,-7083077 -337638,-7083047 -337610,-7083034 -337587,-7083023 -337573,-7083018 -337513,-7083001 -337505,-7083001 -337498,-7083002 -337492,-7083003 -337488,-7083006 -337483,-7083011 -337475,-7083021 -337469,-7083034 -337464,-7083048 -337458,-7083066 -337447,-7083117 -337436,-7083152 -337432,-7083161 -337427,-7083170 -337416,-7083184 -337408,-7083193 -337380,-7083218 -337278,-7083288 -337249,-7083311 -337232,-7083321 -337225,-7083324 -337206,-7083330 -337164,-7083335 -337132,-7083340 -337122,-7083341 -337113,-7083340 -337106,-7083338 -337098,-7083334 -337090,-7083328 -337078,-7083316 -337073,-7083309 -337069,-7083301 -337062,-7083286 -337038,-7083222 -337024,-7083187 -337014,-7083171 -336998,-7083152 -336993,-7083147 -336983,-7083141 -336978,-7083139 -336972,-7083138 -336966,-7083139 -336958,-7083140 -336947,-7083143 -336930,-7083151 -336918,-7083160 -336895,-7083185 -336888,-7083194 -336839,-7083267 -336821,-7083304 -336813,-7083316 -336807,-7083322 -336800,-7083326 -336793,-7083329 -336783,-7083332 -336772,-7083333 -336764,-7083333 -336758,-7083331 -336751,-7083328 -336744,-7083324 -336722,-7083303 -336714,-7083293 -336704,-7083279 -336696,-7083265 -336689,-7083249 -336668,-7083197 -336652,-7083166 -336641,-7083150 -336631,-7083137 -336622,-7083127 -336612,-7083119 -336608,-7083115 -336586,-7083107 -336556,-7083100 -336498,-7083079 -336460,-7083068 -336452,-7083065 -336440,-7083059 -336432,-7083054 -336422,-7083047 -336398,-7083025 -336381,-7083007 -336310,-7082927 -336292,-7082912 -336279,-7082904 -336255,-7082895 -336179,-7082880 -336164,-7082872 -336144,-7082858 -336126,-7082841 -336117,-7082830 -336102,-7082811 -336084,-7082786 -336033,-7082676 -336029,-7082671 -336024,-7082667 -336017,-7082662 -336010,-7082660 -336003,-7082660 -335993,-7082661 -335827,-7082722 -335816,-7082724 -335809,-7082724 -335802,-7082723 -335795,-7082721 -335786,-7082717 -335778,-7082712 -335768,-7082702 -335717,-7082576 -335706,-7082560 -335693,-7082546 -335685,-7082540 -335676,-7082534 -335665,-7082530 -335653,-7082525 -335640,-7082522 -335629,-7082520 -335547,-7082516 -335537,-7082513 -335531,-7082510 -335525,-7082505 -335518,-7082498 -335513,-7082491 -335511,-7082486 -335509,-7082477 -335508,-7082467 -335508,-7082461 -335509,-7082455 -335512,-7082442 -335532,-7082394 -335535,-7082385 -335538,-7082367 -335538,-7082352 -335495,-7082247 -335494,-7082241 -335492,-7082228 -335492,-7082202 -335506,-7082132 -335507,-7082119 -335507,-7082110 -335504,-7082100 -335500,-7082091 -335495,-7082083 -335485,-7082074 -335383,-7081999 -335361,-7081995 -335345,-7081994 -335331,-7081993 -335306,-7081997 -335283,-7082003 -335268,-7082011 -335263,-7082015 -335258,-7082019 -335250,-7082030 -335215,-7082091 -335210,-7082101 -335206,-7082106 -335200,-7082110 -335192,-7082113 -335183,-7082113 -335171,-7082112 -335160,-7082109 -335154,-7082107 -335150,-7082104 -335144,-7082097 -335113,-7082037 -335108,-7082024 -335102,-7082015 -335094,-7082006 -335086,-7081999 -335073,-7081993 -334987,-7081968 -334981,-7081965 -334976,-7081961 -334973,-7081957 -334970,-7081950 -334964,-7081934 -334961,-7081890 -334989,-7081786 -334989,-7081784 -334993,-7081774 -334995,-7081766 -334996,-7081759 -334995,-7081745 -334992,-7081737 -334986,-7081724 -334944,-7081677 -334921,-7081640 -334883,-7081543 -334871,-7081531 -334854,-7081519 -334846,-7081515 -334827,-7081509 -334706,-7081520 -334695,-7081520 -334684,-7081519 -334673,-7081517 -334658,-7081510 -334601,-7081472 -334595,-7081468 -334586,-7081466 -334576,-7081465 -334561,-7081467 -334498,-7081495 -334489,-7081497 -334478,-7081497 -334470,-7081495 -334463,-7081492 -334318,-7081420 -334171,-7081351 -334101,-7081325 -334092,-7081319 -334084,-7081312 -334078,-7081303 -334074,-7081293 -334072,-7081286 -334070,-7081186 -334068,-7081177 -334066,-7081166 -334061,-7081155 -334057,-7081146 -334052,-7081138 -333989,-7081079 -333937,-7081027 -333909,-7081001 -333881,-7080975 -333840,-7080959 -333731,-7080933 -333598,-7080887 -333587,-7080882 -333580,-7080877 -333575,-7080871 -333569,-7080863 -333566,-7080855 -333564,-7080849 -333558,-7080761 -333554,-7080749 -333551,-7080743 -333547,-7080737 -333541,-7080732 -333535,-7080728 -333528,-7080725 -333517,-7080722 -333435,-7080723 -333422,-7080721 -333414,-7080717 -333408,-7080713 -333402,-7080707 -333399,-7080701 -333394,-7080686 -333393,-7080673 -333404,-7080594 -333404,-7080578 -333402,-7080566 -333399,-7080554 -333395,-7080545 -333386,-7080528 -333376,-7080515 -333361,-7080503 -333344,-7080493 -333325,-7080487 -333314,-7080485 -333302,-7080484 -333290,-7080484 -333267,-7080488 -333195,-7080514 -333183,-7080515 -333176,-7080514 -333170,-7080513 -333163,-7080509 -333151,-7080501 -333141,-7080491 -333130,-7080478 -333079,-7080383 -333075,-7080377 -333064,-7080365 -333052,-7080353 -333044,-7080347 -333014,-7080329 -332981,-7080317 -332904,-7080303 -332897,-7080301 -332890,-7080297 -332885,-7080293 -332881,-7080289 -332863,-7080264 -332855,-7080247 -332824,-7080103 -332821,-7080096 -332816,-7080089 -332811,-7080084 -332800,-7080077 -332641,-7080028 -332613,-7080031 -332499,-7080062 -332467,-7080066 -332443,-7080068 -332418,-7080068 -332394,-7080066 -332366,-7080063 -332338,-7080058 -332312,-7080051 -332292,-7080045 -332264,-7080032 -332247,-7080023 -332231,-7080013 -332195,-7079987 -332174,-7079970 -332155,-7079952 -332141,-7079938 -332131,-7079927 -332115,-7079904 -332111,-7079898 -332073,-7079807 -332031,-7079713 -332013,-7079684 -331990,-7079658 -331954,-7079627 -331933,-7079615 -331868,-7079577 -331797,-7079543 -331705,-7079438 -331630,-7079348 -331528,-7079229 -331426,-7079118 -331410,-7079102 -331396,-7079084 -331387,-7079070 -331379,-7079054 -331343,-7078942 -331340,-7078936 -331334,-7078924 -331328,-7078916 -331313,-7078900 -331307,-7078895 -331295,-7078889 -331286,-7078887 -331267,-7078886 -331133,-7078909 -331072,-7078927 -331035,-7078931 -330946,-7078916 -330924,-7078955 -330898,-7079021 -330891,-7079029 -330887,-7079033 -330876,-7079038 -330870,-7079040 -330864,-7079040 -330822,-7079037 -330803,-7079039 -330750,-7079076 -330713,-7079105 -330678,-7079142 -330638,-7079181 -330585,-7079222 -330494,-7079289 -330470,-7079312 -330435,-7079340 -330423,-7079366 -330417,-7079373 -330412,-7079377 -330403,-7079379 -330351,-7079384 -330308,-7079390 -330281,-7079402 -330093,-7079503 -330085,-7079505 -330076,-7079505 -330025,-7079493 -329994,-7079497 -329966,-7079508 -329951,-7079615 -329968,-7079656 -329969,-7079662 -329971,-7079682 -329971,-7079692 -329969,-7079705 -329966,-7079721 -329959,-7079738 -329945,-7079765 -329937,-7079788 -329926,-7079815 -329909,-7079858 -329908,-7079864 -329906,-7079877 -329908,-7079901 -329907,-7079993 -329901,-7080031 -329890,-7080076 -329888,-7080139 -329883,-7080160 -329876,-7080203 -329867,-7080242 -329839,-7080312 -329840,-7080330 -329846,-7080352 -329846,-7080355 -329839,-7080434 -329835,-7080463 -329840,-7080486 -329850,-7080511 -329855,-7080547 -329862,-7080580 -329862,-7080638 -329867,-7080674 -329875,-7080691 -329892,-7080715 -329904,-7080732 -329951,-7080775 -329959,-7080799 -329964,-7080815 -329968,-7080822 -330040,-7080898 -330058,-7080942 -330069,-7080962 -330147,-7081032 -330248,-7081129 -330265,-7081153 -330283,-7081221 -330296,-7081306 -330308,-7081345 -330339,-7081432 -330366,-7081514 -330386,-7081566 -330409,-7081597 -330440,-7081634 -330446,-7081645 -330447,-7081659 -330446,-7081670 -330450,-7081740 -330459,-7081770 -330471,-7081800 -330493,-7081849 -330513,-7081895 -330527,-7081927 -330554,-7082008 -330571,-7082070 -330580,-7082109 -330608,-7082153 -330621,-7082179 -330652,-7082270 -330663,-7082313 -330664,-7082323 -330665,-7082333 -330665,-7082389 -330671,-7082419 -330683,-7082444 -330743,-7082523 -330758,-7082546 -330826,-7082612 -330835,-7082625 -330865,-7082679 -330884,-7082706 -330932,-7082792 -330934,-7082822 -330929,-7082898 -330928,-7082975 -330945,-7083011 -330995,-7083083 -331028,-7083146 -331031,-7083159 -331030,-7083180 -331033,-7083188 -331039,-7083202 -331059,-7083241 -331068,-7083268 -331070,-7083277 -331081,-7083336 -331104,-7083445 -331123,-7083467 -331141,-7083484 -331191,-7083521 -331201,-7083527 -331219,-7083532 -331226,-7083535 -331230,-7083541 -331235,-7083558 -331238,-7083563 -331241,-7083566 -331247,-7083570 -331256,-7083574 -331265,-7083576 -331283,-7083576 -331289,-7083578 -331297,-7083584 -331307,-7083603 -331336,-7083637 -331345,-7083652 -331354,-7083666 -331364,-7083691 -331375,-7083728 -331377,-7083742 -331374,-7083761 -331375,-7083770 -331377,-7083775 -331381,-7083782 -331416,-7083823 -331426,-7083840 -331431,-7083850 -331437,-7083865 -331445,-7083897 -331455,-7083930 -331508,-7083989 -331524,-7084001 -331533,-7084010 -331540,-7084020 -331545,-7084030 -331548,-7084040 -331551,-7084055 -331554,-7084080 -331555,-7084136 -331561,-7084185 -331562,-7084209 -331563,-7084233 -331562,-7084248 -331560,-7084263 -331545,-7084319 -331538,-7084368 -331524,-7084418 -331519,-7084456 -331483,-7084511 -331476,-7084537 -331470,-7084564 -331466,-7084624 -331416,-7084611 -331439,-7084646 -331438,-7084657 -331434,-7084672 -331429,-7084680 -331420,-7084691 -331409,-7084702 -331387,-7084720 -331360,-7084743 -331340,-7084757 -331308,-7084774 -331279,-7084786 -331248,-7084790 -331240,-7084793 -331236,-7084796 -331234,-7084800 -331233,-7084805 -331233,-7084821 -331231,-7084827 -331228,-7084832 -331212,-7084847 -331201,-7084865 -331198,-7084869 -331193,-7084873 -331187,-7084876 -331180,-7084879 -331172,-7084880 -331166,-7084880 -331146,-7084875 -331129,-7084867 -331124,-7084867 -331120,-7084876 -331113,-7084897 -331109,-7084904 -331105,-7084905 -331101,-7084905 -331087,-7084900 -331084,-7084900 -331081,-7084902 -331080,-7084904 -331080,-7084921 -331077,-7084926 -331071,-7084933 -331066,-7084936 -331062,-7084938 -331056,-7084939 -331048,-7084938 -331037,-7084934 -330979,-7084956 -330983,-7084992 -330945,-7084978 -330931,-7084991 -330919,-7084999 -330909,-7085004 -330902,-7085006 -330893,-7085005 -330875,-7084999 -330857,-7084995 -330845,-7084995 -330833,-7084996 -330821,-7084998 -330808,-7085004 -330801,-7085007 -330792,-7085014 -330784,-7085010 -330778,-7085005 -330774,-7084999 -330772,-7084993 -330770,-7084984 -330770,-7084976 -330773,-7084962 -330772,-7084958 -330771,-7084954 -330766,-7084950 -330761,-7084946 -330756,-7084945 -330748,-7084945 -330726,-7084954 -330711,-7084963 -330706,-7084965 -330699,-7084962 -330694,-7084956 -330691,-7084948 -330683,-7084919 -330681,-7084916 -330679,-7084915 -330675,-7084915 -330672,-7084916 -330661,-7084926 -330657,-7084928 -330653,-7084926 -330650,-7084923 -330645,-7084908 -330638,-7084893 -330637,-7084887 -330638,-7084884 -330641,-7084882 -330644,-7084881 -330649,-7084881 -330655,-7084881 -330666,-7084885 -330673,-7084885 -330675,-7084883 -330677,-7084877 -330676,-7084873 -330673,-7084865 -330669,-7084858 -330666,-7084854 -330662,-7084850 -330657,-7084846 -330651,-7084844 -330641,-7084843 -330635,-7084843 -330625,-7084848 -330620,-7084853 -330613,-7084868 -330609,-7084871 -330554,-7084876 -330543,-7084877 -330538,-7084876 -330525,-7084872 -330523,-7084872 -330521,-7084873 -330519,-7084875 -330519,-7084878 -330523,-7084888 -330523,-7084890 -330519,-7084896 -330516,-7084897 -330511,-7084897 -330499,-7084896 -330490,-7084894 -330470,-7084888 -330467,-7084887 -330463,-7084888 -330459,-7084890 -330457,-7084893 -330450,-7084905 -330447,-7084907 -330443,-7084908 -330435,-7084907 -330421,-7084897 -330415,-7084894 -330398,-7084892 -330390,-7084893 -330386,-7084896 -330384,-7084899 -330384,-7084903 -330389,-7084918 -330389,-7084920 -330384,-7084923 -330373,-7084923 -330369,-7084923 -330363,-7084927 -330347,-7084940 -330339,-7084943 -330337,-7084943 -330331,-7084940 -330329,-7084937 -330322,-7084921 -330319,-7084918 -330313,-7084917 -330305,-7084917 -330258,-7084931 -330222,-7084946 -330203,-7084956 -330193,-7084962 -330188,-7084965 -330171,-7084988 -330167,-7084993 -330163,-7084994 -330160,-7084994 -330156,-7084993 -330152,-7084989 -330150,-7084981 -330150,-7084963 -330149,-7084959 -330142,-7084944 -330137,-7084938 -330133,-7084935 -330130,-7084934 -330114,-7084935 -330108,-7084938 -330090,-7084948 -330086,-7084950 -330080,-7084951 -330075,-7084951 -330070,-7084947 -330067,-7084942 -330064,-7084926 -330062,-7084922 -330058,-7084915 -330039,-7084898 -330019,-7084871 -330003,-7084846 -329995,-7084839 -329989,-7084835 -329980,-7084832 -329970,-7084830 -329960,-7084829 -329952,-7084830 -329948,-7084831 -329928,-7084842 -329924,-7084843 -329919,-7084843 -329915,-7084842 -329906,-7084836 -329902,-7084832 -329896,-7084822 -329894,-7084817 -329894,-7084812 -329894,-7084808 -329906,-7084771 -329905,-7084765 -329904,-7084763 -329901,-7084762 -329896,-7084760 -329891,-7084761 -329887,-7084762 -329885,-7084766 -329883,-7084778 -329882,-7084781 -329879,-7084784 -329876,-7084784 -329873,-7084784 -329871,-7084783 -329868,-7084780 -329866,-7084774 -329864,-7084759 -329862,-7084739 -329863,-7084734 -329865,-7084728 -329870,-7084719 -329861,-7084708 -329837,-7084716 -329681,-7084664 -329654,-7084651 -329641,-7084647 -329615,-7084640 -329582,-7084637 -329573,-7084636 -329562,-7084632 -329550,-7084628 -329540,-7084623 -329532,-7084618 -329525,-7084612 -329517,-7084603 -329509,-7084582 -329504,-7084575 -329498,-7084569 -329491,-7084565 -329483,-7084561 -329471,-7084557 -329378,-7084560 -329354,-7084562 -329345,-7084563 -329339,-7084565 -329333,-7084568 -329315,-7084580 -329309,-7084583 -329303,-7084585 -329299,-7084585 -329293,-7084584 -329287,-7084581 -329268,-7084570 -329262,-7084568 -329256,-7084568 -329252,-7084569 -329246,-7084573 -329234,-7084587 -329229,-7084591 -329221,-7084595 -329195,-7084603 -329170,-7084606 -329161,-7084609 -329157,-7084612 -329154,-7084616 -329152,-7084621 -329148,-7084638 -329146,-7084642 -329143,-7084646 -329137,-7084651 -329131,-7084655 -329124,-7084658 -329118,-7084659 -329111,-7084659 -329104,-7084658 -329098,-7084656 -329094,-7084653 -329089,-7084647 -329086,-7084633 -329085,-7084630 -329081,-7084626 -329077,-7084624 -329069,-7084622 -329061,-7084622 -329043,-7084625 -329022,-7084629 -328991,-7084638 -328965,-7084651 -328957,-7084653 -328950,-7084652 -328943,-7084649 -328940,-7084647 -328932,-7084635 -328912,-7084590 -328906,-7084580 -328894,-7084573 -328875,-7084567 -328851,-7084564 -328843,-7084561 -328839,-7084558 -328836,-7084554 -328828,-7084533 -328822,-7084524 -328817,-7084520 -328797,-7084507 -328690,-7084473 -328673,-7084466 -328645,-7084453 -328614,-7084435 -328584,-7084415 -328569,-7084404 -328550,-7084389 -328521,-7084362 -328496,-7084338 -328490,-7084318 -328350,-7084325 -328292,-7084327 -328274,-7084328 -328227,-7084333 -328202,-7084334 -328180,-7084334 -328168,-7084333 -328157,-7084330 -328153,-7084327 -328139,-7084314 -328102,-7084264 -328075,-7084222 -328004,-7084151 -327935,-7084078 -327914,-7084069 -327902,-7084061 -327893,-7084054 -327886,-7084044 -327868,-7084012 -327857,-7083988 -327855,-7083954 -327847,-7083901 -327804,-7083876 -327805,-7083841 -327789,-7083819 -327821,-7083769 -327802,-7083747 -327772,-7083723 -327713,-7083694 -327701,-7083721 -327698,-7083729 -327695,-7083734 -327689,-7083740 -327684,-7083742 -327677,-7083742 -327672,-7083742 -327651,-7083735 -327629,-7083722 -327619,-7083718 -327602,-7083716 -327544,-7083716 -327530,-7083714 -327515,-7083711 -327500,-7083704 -327486,-7083645 -327455,-7083643 -327437,-7083579 -327447,-7083527 -327450,-7083459 -327416,-7083495 -327398,-7083454 -327373,-7083424 -327355,-7083445 -327321,-7083406 -327268,-7083388 -327246,-7083353 -327237,-7083330 -327179,-7083354 -327166,-7083338 -327175,-7083286 -327136,-7083238 -327121,-7083286 -327100,-7083277 -327079,-7083239 -327044,-7083301 -327015,-7083244 -326917,-7083274 -326877,-7083242 -326840,-7083218 -326845,-7083191 -326826,-7083139 -326828,-7083122 -326848,-7083117 -326869,-7083108 -326876,-7083096 -326875,-7083057 -326848,-7083049 -326849,-7083047 -326857,-7083041 -326869,-7082996 -326877,-7082976 -326876,-7082968 -326873,-7082962 -326864,-7082958 -326841,-7082966 -326834,-7082967 -326820,-7082956 -326804,-7082969 -326789,-7082970 -326778,-7082980 -326774,-7082982 -326771,-7082983 -326764,-7082982 -326755,-7082976 -326737,-7082961 -326727,-7082947 -326706,-7082907 -326694,-7082893 -326701,-7082876 -326709,-7082865 -326715,-7082861 -326722,-7082868 -326724,-7082875 -326727,-7082878 -326730,-7082881 -326734,-7082882 -326739,-7082882 -326751,-7082878 -326754,-7082874 -326755,-7082862 -326752,-7082857 -326733,-7082831 -326725,-7082814 -326733,-7082809 -326745,-7082805 -326751,-7082800 -326747,-7082789 -326747,-7082774 -326743,-7082763 -326733,-7082754 -326717,-7082760 -326709,-7082760 -326704,-7082759 -326700,-7082758 -326687,-7082750 -326678,-7082739 -326681,-7082718 -326669,-7082698 -326658,-7082675 -326669,-7082622 -326672,-7082590 -326648,-7082579 -326614,-7082560 -326593,-7082512 -326565,-7082472 -326566,-7082449 -326581,-7082408 -326580,-7082398 -326575,-7082383 -326574,-7082355 -326590,-7082317 -326587,-7082281 -326567,-7082232 -326545,-7082187 -326521,-7082163 -326507,-7082100 -326498,-7082092 -326486,-7082090 -326462,-7082104 -326393,-7082014 -326353,-7081966 -326314,-7081911 -326312,-7081905 -326303,-7081875 -326258,-7081864 -326220,-7081882 -326155,-7081846 -326135,-7081811 -326109,-7081773 -326090,-7081757 -326076,-7081748 -326068,-7081745 -326057,-7081742 -325977,-7081743 -325967,-7081742 -325954,-7081736 -325903,-7081701 -325825,-7081643 -325776,-7081576 -325754,-7081551 -325739,-7081507 -325719,-7081454 -325706,-7081415 -325697,-7081354 -325699,-7081246 -325696,-7081138 -325692,-7081109 -325688,-7081092 -325677,-7081062 -325642,-7080998 -325614,-7080961 -325601,-7080946 -325591,-7080937 -325581,-7080930 -325569,-7080923 -325554,-7080916 -325491,-7080901 -325508,-7080881 -325510,-7080856 -325479,-7080815 -325436,-7080796 -325387,-7080746 -325366,-7080779 -325355,-7080789 -325344,-7080796 -325333,-7080802 -325326,-7080805 -325322,-7080805 -325310,-7080805 -325254,-7080792 -325238,-7080783 -325212,-7080763 -325186,-7080737 -325138,-7080696 -325061,-7080660 -324948,-7080588 -324870,-7080567 -324821,-7080546 -324761,-7080526 -324734,-7080519 -324717,-7080513 -324713,-7080504 -324711,-7080487 -324734,-7080424 -324706,-7080361 -324687,-7080368 -324690,-7080379 -324693,-7080391 -324691,-7080428 -324660,-7080451 -324644,-7080462 -324646,-7080472 -324643,-7080494 -324624,-7080503 -324607,-7080518 -324602,-7080520 -324598,-7080520 -324593,-7080517 -324586,-7080511 -324584,-7080508 -324582,-7080504 -324581,-7080490 -324577,-7080482 -324571,-7080463 -324568,-7080460 -324564,-7080459 -324561,-7080459 -324557,-7080461 -324550,-7080466 -324546,-7080468 -324542,-7080468 -324537,-7080466 -324544,-7080454 -324523,-7080422 -324520,-7080422 -324513,-7080430 -324500,-7080438 -324485,-7080434 -324464,-7080408 -324454,-7080394 -324434,-7080387 -324424,-7080391 -324422,-7080397 -324422,-7080403 -324424,-7080418 -324429,-7080426 -324430,-7080430 -324430,-7080434 -324423,-7080440 -324394,-7080443 -324392,-7080438 -324387,-7080424 -324385,-7080420 -324379,-7080414 -324376,-7080412 -324371,-7080412 -324364,-7080423 -324357,-7080425 -324351,-7080421 -324330,-7080405 -324323,-7080403 -324310,-7080428 -324310,-7080437 -324307,-7080447 -324304,-7080448 -324297,-7080448 -324294,-7080447 -324276,-7080419 -324269,-7080413 -324256,-7080422 -324243,-7080434 -324240,-7080436 -324234,-7080437 -324232,-7080436 -324231,-7080431 -324232,-7080427 -324240,-7080412 -324238,-7080404 -324218,-7080402 -324214,-7080403 -324205,-7080418 -324201,-7080423 -324198,-7080424 -324195,-7080424 -324192,-7080423 -324184,-7080419 -324181,-7080417 -324180,-7080397 -324182,-7080382 -324168,-7080365 -324160,-7080369 -324156,-7080373 -324143,-7080377 -324139,-7080379 -324133,-7080384 -324126,-7080396 -324123,-7080397 -324119,-7080397 -324097,-7080389 -324095,-7080386 -324090,-7080379 -324086,-7080371 -324086,-7080367 -324087,-7080360 -324090,-7080354 -324097,-7080340 -324101,-7080334 -324104,-7080332 -324107,-7080329 -324117,-7080325 -324130,-7080316 -324128,-7080308 -324118,-7080300 -324109,-7080292 -324095,-7080285 -324091,-7080283 -324083,-7080287 -324069,-7080309 -324056,-7080323 -324047,-7080327 -324043,-7080326 -324036,-7080323 -324031,-7080318 -324029,-7080315 -324031,-7080297 -324031,-7080293 -324030,-7080292 -324020,-7080295 -324017,-7080295 -323997,-7080288 -323987,-7080283 -323978,-7080276 -323968,-7080272 -323945,-7080269 -323934,-7080275 -323927,-7080272 -323906,-7080273 -323885,-7080283 -323878,-7080283 -323872,-7080281 -323863,-7080276 -323858,-7080257 -323853,-7080246 -323850,-7080243 -323826,-7080225 -323807,-7080216 -323800,-7080213 -323778,-7080234 -323775,-7080236 -323747,-7080229 -323726,-7080226 -323690,-7080225 -323679,-7080211 -323648,-7080167 -323630,-7080144 -323609,-7080128 -323590,-7080116 -323557,-7080100 -323544,-7080097 -323524,-7080092 -323494,-7080087 -323419,-7080086 -323308,-7080082 -323212,-7080082 -323118,-7080079 -323030,-7080079 -322997,-7080075 -322980,-7080080 -322951,-7080087 -322913,-7080100 -322890,-7080115 -322817,-7080143 -322801,-7080156 -322776,-7080148 -322766,-7080147 -322740,-7080148 -322734,-7080145 -322730,-7080142 -322734,-7080126 -322725,-7080115 -322694,-7080091 -322667,-7080066 -322661,-7080065 -322658,-7080066 -322656,-7080068 -322655,-7080071 -322655,-7080074 -322655,-7080077 -322658,-7080080 -322663,-7080096 -322663,-7080099 -322661,-7080103 -322659,-7080107 -322652,-7080111 -322634,-7080122 -322631,-7080125 -322628,-7080129 -322622,-7080148 -322620,-7080154 -322612,-7080159 -322587,-7080165 -322579,-7080157 -322561,-7080101 -322555,-7080092 -322547,-7080085 -322540,-7080082 -322533,-7080080 -322524,-7080080 -322514,-7080083 -322510,-7080086 -322508,-7080090 -322507,-7080094 -322506,-7080118 -322500,-7080125 -322470,-7080142 -322456,-7080143 -322456,-7080138 -322459,-7080113 -322457,-7080098 -322452,-7080086 -322435,-7080061 -322428,-7080055 -322420,-7080052 -322412,-7080052 -322407,-7080053 -322400,-7080057 -322398,-7080061 -322395,-7080070 -322399,-7080097 -322396,-7080106 -322388,-7080114 -322378,-7080116 -322367,-7080106 -322350,-7080098 -322351,-7080069 -322346,-7080066 -322332,-7080064 -322296,-7080027 -322291,-7080023 -322282,-7080022 -322242,-7080041 -322240,-7080043 -322236,-7080048 -322233,-7080054 -322232,-7080060 -322233,-7080074 -322205,-7080069 -322196,-7080068 -322188,-7080071 -322182,-7080073 -322173,-7080080 -322162,-7080093 -322157,-7080098 -322104,-7080101 -322094,-7080104 -322085,-7080108 -322045,-7080126 -322007,-7080139 -321996,-7080152 -321991,-7080155 -321987,-7080156 -321979,-7080154 -321960,-7080138 -321947,-7080132 -321923,-7080137 -321907,-7080155 -321898,-7080171 -321875,-7080182 -321860,-7080181 -321853,-7080179 -321842,-7080174 -321833,-7080165 -321815,-7080138 -321758,-7080129 -321753,-7080135 -321750,-7080146 -321745,-7080154 -321739,-7080162 -321725,-7080177 -321711,-7080178 -321704,-7080171 -321695,-7080171 -321684,-7080177 -321675,-7080192 -321671,-7080197 -321657,-7080184 -321652,-7080180 -321627,-7080179 -321611,-7080183 -321596,-7080154 -321587,-7080148 -321571,-7080142 -321562,-7080131 -321530,-7080124 -321518,-7080104 -321512,-7080098 -321509,-7080098 -321499,-7080103 -321488,-7080104 -321485,-7080103 -321480,-7080098 -321472,-7080082 -321428,-7080049 -321359,-7080004 -321301,-7079971 -321271,-7079963 -321247,-7079953 -321224,-7079955 -321203,-7079941 -321187,-7079935 -321146,-7079925 -321108,-7079904 -321071,-7079903 -321039,-7079891 -320965,-7079887 -320915,-7079886 -320861,-7079874 -320823,-7079863 -320791,-7079870 -320761,-7079824 -320734,-7079769 -320818,-7079744 -320913,-7079708 -320948,-7079696 -320972,-7079689 -321012,-7079685 -321051,-7079686 -321109,-7079609 -321216,-7079426 -321224,-7079376 -321233,-7079348 -321237,-7079323 -321246,-7079298 -321252,-7079273 -321359,-7078982 -321388,-7078909 -321399,-7078899 -321439,-7078796 -321459,-7078750 -321459,-7078750 -321508,-7078685 -321674,-7078484 -321702,-7078444 -321808,-7078318 -321902,-7078205 -321979,-7078111 -321971,-7078105 -321981,-7078091 -321944,-7078051 -321898,-7077930 -321831,-7077755 -321775,-7077613 -321691,-7077398 -321691,-7077391 -321688,-7077388 -321680,-7077365 -321675,-7077349 -321668,-7077325 -321662,-7077301 -321657,-7077285 -321649,-7077251 -321648,-7077247 -321646,-7077239 -321645,-7077233 -321644,-7077225 -321643,-7077219 -321642,-7077216 -321641,-7077214 -321640,-7077212 -321639,-7077210 -321638,-7077208 -321637,-7077207 -321636,-7077205 -321635,-7077204 -321634,-7077203 -321633,-7077202 -321632,-7077201 -321630,-7077201 -321629,-7077200 -321628,-7077198 -321627,-7077197 -321626,-7077196 -321625,-7077194 -321624,-7077193 -321624,-7077191 -321623,-7077189 -321622,-7077188 -321622,-7077187 -321621,-7077185 -321620,-7077183 -321620,-7077181 -321619,-7077179 -321619,-7077177 -321619,-7077176 -321616,-7077163 -321613,-7077150 -321612,-7077145 -321610,-7077138 -321606,-7077124 -321602,-7077110 -321600,-7077102 -321597,-7077088 -321595,-7077078 -321595,-7077074 -321595,-7077070 -321595,-7077070 -321593,-7077049 -321592,-7077042 -321592,-7077035 -321593,-7077031 -321593,-7077025 -321593,-7077018 -321593,-7077017 -321593,-7077011 -321593,-7077005 -321593,-7077003 -321593,-7077001 -321592,-7076999 -321592,-7076996 -321591,-7076994 -321591,-7076992 -321590,-7076990 -321589,-7076988 -321587,-7076985 -321585,-7076982 -321583,-7076978 -321581,-7076975 -321580,-7076971 -321578,-7076968 -321577,-7076964 -321576,-7076960 -321574,-7076956 -321573,-7076955 -321568,-7076943 -321562,-7076930 -321562,-7076929 -321554,-7076910 -321549,-7076898 -321537,-7076869 -321530,-7076849 -321528,-7076847 -321527,-7076844 -321525,-7076842 -321523,-7076839 -321515,-7076830 -321510,-7076818 -321506,-7076801 -321490,-7076741 -321496,-7076734 -321507,-7076722 -321520,-7076709 -321538,-7076690 -321631,-7076598 -321665,-7076569 -321674,-7076561 -321697,-7076557 -321731,-7076562 -321783,-7076572 -321885,-7076587 -321963,-7076625 -321976,-7076627 -321990,-7076620 -322012,-7076604 -322037,-7076588 -322068,-7076584 -322094,-7076583 -322122,-7076582 -322136,-7076579 -322151,-7076568 -322167,-7076545 -322189,-7076518 -322224,-7076508 -322245,-7076506 -322262,-7076501 -322293,-7076484 -322312,-7076473 -322358,-7076430 -322367,-7076424 -322376,-7076419 -322413,-7076405 -322456,-7076370 -322489,-7076337 -322499,-7076330 -322528,-7076313 -322566,-7076294 -322570,-7076292 -322575,-7076287 -322579,-7076280 -322580,-7076273 -322580,-7076247 -322617,-7076213 -322644,-7076186 -322650,-7076177 -322655,-7076168 -322660,-7076151 -322666,-7076102 -322662,-7076078 -322661,-7076074 -322662,-7076057 -322667,-7076042 -322676,-7076023 -322678,-7076021 -322689,-7076006 -322696,-7075986 -322694,-7075963 -322689,-7075938 -322680,-7075907 -322669,-7075870 -322667,-7075867 -322655,-7075843 -322643,-7075821 -322634,-7075805 -322602,-7075747 -322593,-7075729 -322593,-7075728 -322590,-7075722 -322590,-7075715 -322589,-7075694 -322586,-7075665 -322572,-7075643 -322547,-7075621 -322520,-7075594 -322499,-7075567 -322486,-7075547 -322472,-7075517 -322446,-7075454 -322433,-7075443 -322425,-7075431 -322424,-7075426 -322423,-7075417 -322424,-7075407 -322425,-7075403 -322453,-7075355 -322460,-7075338 -322462,-7075330 -322461,-7075315 -322446,-7075283 -322443,-7075268 -322445,-7075253 -322456,-7075223 -322458,-7075213 -322464,-7075168 -322478,-7075156 -322499,-7075116 -322504,-7075103 -322526,-7075078 -322529,-7075076 -322538,-7075073 -322571,-7075071 -322588,-7075067 -322596,-7075063 -322600,-7075059 -322601,-7075056 -322603,-7075051 -322603,-7075044 -322600,-7075035 -322593,-7075011 -322592,-7075004 -322593,-7074998 -322597,-7074989 -322603,-7074983 -322630,-7074972 -322661,-7074953 -322677,-7074942 -322692,-7074930 -322712,-7074906 -322734,-7074876 -322740,-7074866 -322746,-7074855 -322750,-7074844 -322754,-7074832 -322761,-7074777 -322766,-7074735 -322780,-7074680 -322785,-7074660 -322785,-7074656 -322798,-7074622 -322804,-7074606 -322803,-7074593 -322790,-7074583 -322774,-7074575 -322767,-7074567 -322764,-7074553 -322761,-7074523 -322761,-7074502 -322764,-7074489 -322775,-7074477 -322782,-7074468 -322803,-7074468 -323059,-7074465 -323108,-7074469 -323147,-7074470 -323256,-7074467 -323313,-7074493 -323381,-7074519 -323410,-7074524 -323410,-7074523 -323411,-7074522 -323422,-7074508 -323440,-7074474 -323463,-7074431 -323493,-7074379 -323574,-7074229 -323612,-7074173 -323649,-7074114 -323674,-7074086 -323692,-7074061 -323719,-7074041 -323745,-7074023 -323765,-7074006 -323776,-7073995 -323795,-7073972 -323809,-7073950 -323817,-7073932 -323843,-7073874 -323882,-7073796 -323916,-7073727 -323931,-7073706 -323941,-7073689 -323958,-7073641 -323971,-7073611 -324008,-7073522 -324029,-7073466 -324061,-7073379 -324078,-7073333 -324094,-7073297 -324109,-7073286 -324113,-7073268 -324121,-7073241 -324133,-7073192 -324153,-7073153 -324178,-7073104 -324183,-7073093 -324192,-7073067 -324193,-7073044 -324185,-7073031 -324180,-7073008 -324184,-7072989 -324198,-7072964 -324234,-7072917 -324246,-7072898 -324251,-7072882 -324279,-7072865 -324298,-7072849 -324332,-7072809 -324365,-7072779 -324374,-7072774 -324402,-7072761 -324414,-7072757 -324480,-7072736 -324572,-7072717 -324608,-7072713 -324710,-7072715 -324741,-7072713 -324786,-7072703 -325003,-7072670 -324900,-7072521 -324856,-7072447 -324822,-7072416 -324765,-7072343 -324736,-7072308 -324720,-7072260 -324719,-7072255 -324719,-7072249 -324721,-7072231 -324723,-7072191 -324708,-7072176 -324702,-7072164 -324700,-7072156 -324701,-7072145 -324705,-7072133 -324713,-7072127 -324722,-7072125 -324732,-7072124 -324738,-7072122 -324743,-7072118 -324747,-7072114 -324749,-7072109 -324749,-7072104 -324749,-7072096 -324762,-7072071 -324776,-7072045 -324809,-7072002 -324811,-7071992 -324817,-7071980 -324821,-7071975 -324831,-7071965 -324852,-7071958 -324884,-7071940 -324917,-7071924 -324950,-7071921 -324955,-7071876 -324952,-7071840 -324943,-7071772 -324939,-7071721 -324939,-7071715 -324937,-7071701 -324955,-7071681 -324964,-7071671 -324974,-7071661 -324985,-7071652 -325072,-7071566 -325139,-7071493 -325184,-7071447 -325210,-7071429 -325245,-7071414 -325275,-7071386 -325338,-7071347 -325344,-7071344 -325411,-7071308 -325422,-7071302 -325496,-7071256 -325591,-7071207 -325704,-7071142 -325901,-7071037 -325971,-7071057 -325971,-7071057 -325852,-7071155 -325973,-7071114 -325985,-7071112 -326031,-7071105 -326053,-7071102 -326099,-7071096 -326102,-7071096 -326149,-7071094 -326260,-7071069 -326308,-7071056 -326311,-7071061 -326384,-7071040 -326530,-7071003 -326539,-7071001 -326544,-7071129 -326544,-7071134 -326608,-7071132 -326664,-7071130 -326678,-7071129 -326813,-7071118 -327002,-7071103 -327076,-7071095 -327126,-7071097 -327168,-7071094 -327170,-7071094 -327174,-7071094 -327260,-7071088 -327261,-7071082 -327260,-7071044 -327260,-7071035 -327346,-7071026 -327460,-7071017 -327605,-7071002 -327780,-7070986 -327961,-7070966 -328076,-7070811 -328079,-7070818 -328079,-7070817 -328091,-7070843 -328156,-7070981 -328247,-7070971 -328366,-7070961 -328463,-7070951 -328604,-7070934 -328707,-7070927 -328764,-7070925 -328772,-7070925 -328784,-7070920 -328796,-7070913 -328813,-7070902 -328834,-7070886 -328931,-7070908 -328962,-7070861 -329018,-7070862 -329018,-7070866 -329018,-7070927 -329027,-7070939 -329042,-7070952 -329067,-7070963 -329094,-7070972 -329105,-7070915 -329112,-7070871 -329145,-7070740 -329191,-7070557 -329224,-7070431 -329228,-7070419 -329236,-7070389 -329249,-7070359 -329248,-7070345 -329246,-7070326 -329257,-7070296 -329273,-7070238 -329291,-7070179 -329297,-7070182 -329330,-7070197 -329343,-7070194 -329350,-7070186 -329355,-7070158 -329364,-7070133 -329391,-7070061 -329413,-7070004 -329427,-7069976 -329464,-7069975 -329520,-7069975 -329518,-7070036 -329525,-7070039 -329530,-7070041 -329605,-7070054 -329696,-7070072 -329719,-7070096 -329743,-7070084 -329791,-7070060 -329815,-7070053 -329885,-7070036 -329981,-7070025 -330092,-7070014 -330164,-7070009 -330185,-7070004 -330214,-7069997 -330219,-7069996 -330222,-7070003 -330240,-7070000 -330283,-7069997 -330296,-7069996 -330309,-7069995 -330316,-7069994 -330372,-7069930 -330443,-7069843 -330530,-7069741 -330594,-7069669 -330601,-7069660 -330602,-7069658 -330591,-7069644 -330584,-7069645 -330577,-7069648 -330575,-7069647 -330566,-7069637 -330571,-7069628 -330573,-7069624 -330571,-7069621 -330568,-7069617 -330606,-7069577 -330647,-7069529 -330668,-7069501 -330668,-7069493 -330727,-7069426 -330741,-7069410 -330798,-7069347 -330829,-7069312 -330892,-7069237 -330943,-7069183 -330953,-7069172 -330962,-7069153 -330964,-7069148 -330996,-7069111 -331025,-7069079 -331044,-7069058 -331041,-7069019 -331034,-7068990 -331030,-7068939 -331028,-7068921 -331024,-7068877 -331014,-7068785 -331007,-7068735 -330998,-7068571 -330942,-7068388 -330904,-7068244 -330892,-7068199 -330879,-7068145 -330873,-7068105 -330856,-7068026 -330846,-7067979 -330817,-7067851 -330815,-7067844 -330813,-7067843 -330802,-7067839 -330801,-7067697 -330798,-7067435 -330794,-7067158 -330795,-7067096 -330797,-7067091 -330833,-7066990 -330873,-7066878 -330926,-7066730 -330954,-7066658 -330955,-7066621 -331034,-7066619 -331028,-7066541 -331026,-7066516 -331015,-7066414 -330999,-7066245 -330996,-7066188 -330994,-7066171 -331058,-7066178 -331156,-7066187 -331159,-7066187 -331167,-7066078 -331171,-7066037 -331172,-7066020 -331208,-7065965 -331228,-7065938 -331316,-7065792 -331304,-7065750 -331297,-7065729 -331282,-7065675 -331233,-7065571 -331179,-7065456 -331168,-7065430 -331165,-7065425 -331209,-7065411 -331222,-7065407 -331305,-7065376 -331331,-7065367 -331465,-7065336 -331520,-7065365 -331561,-7065388 -331630,-7065427 -331670,-7065357 -331713,-7065279 -331736,-7065273 -331768,-7065265 -331782,-7065261 -331853,-7065241 -332004,-7065196 -332130,-7065154 -332218,-7065127 -332298,-7065102 -332310,-7065099 -332442,-7065057 -332505,-7065037 -332608,-7065004 -332752,-7064959 -332895,-7064914 -332900,-7064912 -332905,-7064910 -332905,-7064886 -332906,-7064876 -332912,-7064872 -332962,-7064843 -333030,-7064941 -333145,-7064863 -333169,-7064896 -333289,-7065089 -333408,-7065054 -333425,-7065050 -333424,-7065043 -333475,-7065029 -333477,-7065038 -333524,-7065018 -333663,-7064978 -333666,-7064977 -333664,-7064967 -333663,-7064962 -333843,-7064916 -333871,-7064907 -333982,-7064879 -333980,-7064875 -333955,-7064802 -334039,-7064775 -334141,-7064741 -334256,-7064702 -334384,-7064660 -334525,-7064614 -334536,-7064613 -334546,-7064614 -334555,-7064624 -334564,-7064647 -334626,-7064623 -334616,-7064594 -334615,-7064582 -334620,-7064573 -334633,-7064566 -334705,-7064541 -334761,-7064521 -334795,-7064508 -334798,-7064499 -334875,-7064486 -334905,-7064494 -334909,-7064495 -334910,-7064495 -334913,-7064496 -334916,-7064496 -334920,-7064497 -334933,-7064501 -335101,-7064444 -335204,-7064404 -335272,-7064382 -335447,-7064320 -335509,-7064298 -335610,-7064260 -335764,-7064205 -335922,-7064151 -336093,-7064089 -336104,-7064146 -336132,-7064264 -336165,-7064381 -336201,-7064482 -336233,-7064577 -336270,-7064677 -336302,-7064757 -336346,-7064854 -336383,-7064912 -336587,-7065299 -336629,-7065373 -336690,-7065475 -336732,-7065539 -336926,-7065821 -337021,-7065953 -337095,-7066064 -337148,-7066147 -337170,-7066176 -337355,-7066411 -337624,-7066754 -337793,-7066968 -337727,-7067003 -337347,-7067199 -337061,-7067342 -337052,-7067347 -336827,-7067463 -336610,-7067573 -336675,-7067605 -336758,-7067637 -336867,-7067672 -336959,-7067695 -336999,-7067653 -337039,-7067605 -337049,-7067596 -337056,-7067591 -337061,-7067589 -337073,-7067587 -337086,-7067588 -337092,-7067590 -337101,-7067596 -337130,-7067626 -337130,-7067637 -337136,-7067647 -337145,-7067647 -337189,-7067703 -337324,-7067882 -337422,-7068009 -337594,-7068234 -337749,-7068442 -337820,-7068537 -337892,-7068632 -338027,-7068806 -338385,-7069276 -338480,-7069401 -338531,-7069469 -338590,-7069565 -338597,-7069581 -338600,-7069594 -338602,-7069605 -338603,-7069617 -338601,-7069633 -338594,-7069664 -338587,-7069680 -338580,-7069703 -338574,-7069717 -338569,-7069725 -338563,-7069733 -338528,-7069769 -338567,-7069760 -338573,-7069759 -338578,-7069760 -338583,-7069762 -338591,-7069766 -338638,-7069816 -338730,-7069928 -338835,-7070061 -338951,-7070208 -339029,-7070307 -339078,-7070365 -339086,-7070373 -339111,-7070393 -339145,-7070414 -339156,-7070419 -339167,-7070423 -339183,-7070426 -339260,-7070476 -339315,-7070516 -339325,-7070525 -339343,-7070541 -339360,-7070559 -339386,-7070589 -339405,-7070616 -339438,-7070684 -339459,-7070749 -339467,-7070785 -339484,-7070911 -339499,-7070983 -339507,-7071005 -339521,-7071031 -339571,-7071095 -339645,-7071179 -339721,-7071261 -339765,-7071310 -339836,-7071381 -339925,-7071480 -339974,-7071541 -339984,-7071552 -339992,-7071567 -339999,-7071583 -340007,-7071610 -340013,-7071622 -340018,-7071630 -340025,-7071640 -340037,-7071652 -340102,-7071708 -340212,-7071786 -340244,-7071783 -340274,-7071787 -340309,-7071817 -340345,-7071834 -340375,-7071854 -340387,-7071874 -340398,-7071893 -340446,-7072018 -340473,-7072064 -340510,-7072116 -340556,-7072147 -340594,-7072182 -340623,-7072237 -340650,-7072302 -340669,-7072335 -340735,-7072445 -340818,-7072529 -340896,-7072620 -340920,-7072649 -340942,-7072679 -341008,-7072775 -341087,-7072913 -341120,-7072989 -341152,-7073073 -341169,-7073103 -341187,-7073133 -341246,-7073223 -341294,-7073287 -341339,-7073347 -341350,-7073372 -341357,-7073393 -341363,-7073416 -341367,-7073432 -341371,-7073453 -341373,-7073475 -341374,-7073501 -341376,-7073522 -341381,-7073543 -341389,-7073563 -341400,-7073582 -341407,-7073591 -341419,-7073604 -341443,-7073650 -341510,-7073771 -341574,-7073903 -341675,-7074107 -341707,-7074165 -341740,-7074222 -341768,-7074253 -341790,-7074283 -341805,-7074313 -341916,-7074456 -342016,-7074510 -342146,-7074574 -342203,-7074637 -342264,-7074767 -342314,-7074860 -342350,-7074917 -342418,-7075055 -342449,-7075127 -342475,-7075173 -342486,-7075198 -342508,-7075255 -342554,-7075370 -342570,-7075419 -342598,-7075489 -342625,-7075572 -342628,-7075595 -342648,-7075614 -342666,-7075612 -342693,-7075613 -342682,-7075625 -342668,-7075634 -342684,-7075645 -342680,-7075651 -342665,-7075664 -342658,-7075677 -342662,-7075681 -342681,-7075692 -342677,-7075702 -342679,-7075706 -342703,-7075712 -342691,-7075732 -342686,-7075751 -342694,-7075758 -342698,-7075772 -342690,-7075787 -342691,-7075822 -342688,-7075851 -342710,-7075912 -342726,-7075920 -342711,-7075932 -342703,-7075937 -342701,-7075947 -342694,-7075961 -342689,-7075965 -342673,-7075974 -342665,-7075976 -342657,-7075978 -342642,-7075977 -342615,-7075977 -342608,-7075975 -342582,-7075954 -342531,-7075948 -342535,-7075968 -342547,-7075970 -342554,-7075973 -342566,-7075983 -342583,-7075993 -342594,-7075997 -342622,-7076001 -342634,-7076009 -342658,-7076027 -342669,-7076031 -342682,-7076032 -342765,-7076017 -342794,-7076013 -342843,-7076010 -342852,-7076015 -342905,-7076061 -342924,-7076078 -342928,-7076085 -342929,-7076089 -342929,-7076094 -342928,-7076098 -342925,-7076102 -342905,-7076122 -342903,-7076127 -342903,-7076131 -342904,-7076134 -342907,-7076137 -342913,-7076139 -342922,-7076144 -342923,-7076148 -342925,-7076156 -342926,-7076166 -342924,-7076175 -342922,-7076183 -342917,-7076191 -342912,-7076199 -342901,-7076209 -342884,-7076234 -342877,-7076254 -342869,-7076283 -342838,-7076344 -342836,-7076358 -342845,-7076382 -342887,-7076548 -342929,-7076723 -342931,-7076732 -342938,-7076749 -342947,-7076768 -342956,-7076784 -342981,-7076818 -342992,-7076832 -343004,-7076845 -343025,-7076863 -343114,-7076923 -343124,-7076934 -343129,-7076942 -343132,-7076950 -343231,-7077217 -343245,-7077237 -343253,-7077247 -343259,-7077252 -343265,-7077256 -343275,-7077261 -343314,-7077271 -343337,-7077281 -343361,-7077338 -343407,-7077473 -343506,-7077704 -343551,-7077791 -343628,-7077947 -343630,-7077950 -343674,-7078047 -343686,-7078081 -343690,-7078098 -343695,-7078127 -343699,-7078155 -343702,-7078186 -343726,-7078389 -343740,-7078443 -343754,-7078509 -343755,-7078522 -343758,-7078567 -343756,-7078646 -343785,-7078794 -343806,-7078867 -343821,-7078892 -343857,-7078940 -343878,-7078960 -343890,-7078969 -343910,-7078982 -343968,-7079026 -344014,-7079066 -344039,-7079091 -344068,-7079104 -344105,-7079135 -344140,-7079156 -344242,-7079206 -344302,-7079243 -344397,-7079306 -344462,-7079345 -344550,-7079405 -344575,-7079428 -344656,-7079515 -344694,-7079561 -344731,-7079607 -344750,-7079638 -344799,-7079701 -344824,-7079742 -344846,-7079762 -344858,-7079776 -344887,-7079807 -344924,-7079853 -344958,-7079884 -345046,-7079971 -345089,-7080006 -345132,-7080037 -345216,-7080085 -345239,-7080098 -345286,-7080130 -345307,-7080152 -345347,-7080184 -345397,-7080214 -345467,-7080271 -345511,-7080313 -345611,-7080426 -345728,-7080533 -345768,-7080568 -345854,-7080633 -345917,-7080672 -345937,-7080691 -345987,-7080736 -346071,-7080800 -346218,-7080912 -346254,-7080941 -346322,-7081001 -346480,-7081115 -346689,-7081252 -346796,-7081314 -346867,-7081354 -346987,-7081435 -347141,-7081506 -347254,-7081560 -347321,-7081593 -347423,-7081657 -347489,-7081695 -347580,-7081739 -347781,-7081886 -347861,-7081935 -347933,-7081981 -348157,-7082097 -348205,-7082121 -348253,-7082144 -348398,-7082211 -348461,-7082236 -348584,-7082276 -348736,-7082316 -348766,-7082333 -348802,-7082342 -348844,-7082353 -348901,-7082371 -348960,-7082382 -349022,-7082391 -349083,-7082399 -349141,-7082401 -349218,-7082402 -349282,-7082405 -349320,-7082408 -349365,-7082414 -349408,-7082423 -349456,-7082428 -349495,-7082432 -349530,-7082435 -349563,-7082440 -349599,-7082447 -349641,-7082459 -349678,-7082471 -349713,-7082486 -349741,-7082501 -349777,-7082521 -349795,-7082531 -349817,-7082541 -349845,-7082552 -349888,-7082564 -349926,-7082575 -349978,-7082589 -350036,-7082604 -350073,-7082612 -350137,-7082634 -350159,-7082644 -350185,-7082655 -350223,-7082664 -350288,-7082680 -350355,-7082694 -350380,-7082697 -350427,-7082707 -350448,-7082708 -350478,-7082711 -350523,-7082717 -350565,-7082721 -350583,-7082727 -350608,-7082738 -350609,-7082738 -350611,-7082740 -350614,-7082741 -350617,-7082743 -350619,-7082744 -350622,-7082745 -350625,-7082746 -350627,-7082747 -350630,-7082748 -350633,-7082748 -350636,-7082749 -350639,-7082750 -350642,-7082750 -350645,-7082750 -350648,-7082751 -350652,-7082751 -350653,-7082751 -350657,-7082751 -350661,-7082750 -350665,-7082750 -350669,-7082749 -350673,-7082749 -350675,-7082748 -350679,-7082747 -350683,-7082746 -350687,-7082745 -350691,-7082744 -350704,-7082739 -350706,-7082738 -350709,-7082737 -350712,-7082735 -350713,-7082735 -350714,-7082735 -350715,-7082734 -350716,-7082734 -350717,-7082733 -350718,-7082733 -350719,-7082732 -350720,-7082732 -350721,-7082731 -350722,-7082731 -350723,-7082731 -350724,-7082731 -350725,-7082730 -350726,-7082730 -350727,-7082730 -350728,-7082730 -350733,-7082732 -350737,-7082736 -350742,-7082739 -350747,-7082742 -350751,-7082745 -350768,-7082760 -350779,-7082776 -350790,-7082787 -350800,-7082795 -350822,-7082805 -350840,-7082809 -350854,-7082811 -350872,-7082817 -350888,-7082818 -350905,-7082818 -350907,-7082817 -350910,-7082817 -350912,-7082816 -350914,-7082816 -350916,-7082816 -350918,-7082816 -350920,-7082816 -350922,-7082816 -350924,-7082817 -350926,-7082817 -350929,-7082818 -350931,-7082818 -350933,-7082819 -350934,-7082819 -350941,-7082820 -350948,-7082822 -350955,-7082824 -350959,-7082825 -350962,-7082827 -350966,-7082828 -350969,-7082830 -350973,-7082832 -350976,-7082834 -350979,-7082835 -350982,-7082837 -351009,-7082852 -351033,-7082867 -351053,-7082883 -351062,-7082892 -351063,-7082893 -351064,-7082894 -351065,-7082895 -351066,-7082895 -351066,-7082896 -351067,-7082897 -351067,-7082898 -351068,-7082899 -351068,-7082900 -351069,-7082901 -351069,-7082902 -351070,-7082903 -351070,-7082904 -351070,-7082905 -351070,-7082906 -351070,-7082907 -351070,-7082908 -351070,-7082909 -351070,-7082910 -351070,-7082911 -351070,-7082912 -351069,-7082913 -351069,-7082914 -351069,-7082915 -351068,-7082916 -351068,-7082917 -351068,-7082918 -351067,-7082920 -351066,-7082922 -351065,-7082924 -351064,-7082927 -351063,-7082929 -351062,-7082931 -351062,-7082931 -351060,-7082934 -351059,-7082937 -351057,-7082939 -351055,-7082942 -351053,-7082944 -351051,-7082947 -351049,-7082949 -351049,-7082950 -351022,-7082981 -350999,-7083008 -350981,-7083033 -350965,-7083058 -350965,-7083058 -350964,-7083059 -350964,-7083060 -350964,-7083060 -350964,-7083061 -350964,-7083061 -350963,-7083062 -350963,-7083062 -350963,-7083063 -350963,-7083064 -350963,-7083065 -350963,-7083065 -350963,-7083066 -350964,-7083067 -350964,-7083067 -350964,-7083068 -350965,-7083069 -350965,-7083069 -350965,-7083070 -350966,-7083070 -350966,-7083071 -350967,-7083071 -350967,-7083071 -350968,-7083072 -350969,-7083073 -350970,-7083073 -350970,-7083073 -350971,-7083074 -350972,-7083074 -350973,-7083074 -350974,-7083075 -350975,-7083075 -350976,-7083075 -350977,-7083075 -350978,-7083075 -350979,-7083075 -350979,-7083075 -350980,-7083075 -350981,-7083074 -350982,-7083075 -350983,-7083075 -350984,-7083075 -350984,-7083075 -350985,-7083075 -350986,-7083076 -350987,-7083076 -350988,-7083077 -350988,-7083077 -350989,-7083078 -350990,-7083078 -350990,-7083079 -350991,-7083080 -350991,-7083080 -350992,-7083081 -350993,-7083082 -350993,-7083082 -350993,-7083083 -350993,-7083084 -350993,-7083084 -350993,-7083085 -350993,-7083085 -350993,-7083085 -350992,-7083086 -350992,-7083086 -350992,-7083087 -350992,-7083087 -350991,-7083087 -350991,-7083088 -350990,-7083088 -350990,-7083088 -350990,-7083088 -350989,-7083089 -350989,-7083089 -350988,-7083090 -350987,-7083090 -350986,-7083091 -350985,-7083092 -350984,-7083092 -350983,-7083093 -350981,-7083093 -350980,-7083094 -350979,-7083094 -350961,-7083107 -350952,-7083117 -350946,-7083128 -350945,-7083129 -350945,-7083130 -350945,-7083131 -350945,-7083132 -350945,-7083133 -350945,-7083134 -350945,-7083135 -350945,-7083136 -350945,-7083137 -350945,-7083138 -350945,-7083139 -350946,-7083141 -350946,-7083142 -350947,-7083143 -350947,-7083143 -350948,-7083144 -350948,-7083145 -350949,-7083146 -350950,-7083147 -350952,-7083151 -350954,-7083154 -350957,-7083161 -350957,-7083163 -350957,-7083165 -350958,-7083167 -350958,-7083169 -350958,-7083170 -350957,-7083172 -350957,-7083174 -350957,-7083175 -350957,-7083177 -350956,-7083179 -350956,-7083181 -350955,-7083182 -350955,-7083184 -350954,-7083185 -350953,-7083186 -350953,-7083187 -350952,-7083188 -350951,-7083189 -350950,-7083190 -350949,-7083191 -350948,-7083193 -350947,-7083194 -350945,-7083196 -350944,-7083197 -350942,-7083198 -350940,-7083200 -350939,-7083201 -350937,-7083202 -350935,-7083203 -350933,-7083204 -350908,-7083220 -350904,-7083223 -350900,-7083227 -350896,-7083230 -350893,-7083234 -350889,-7083238 -350886,-7083242 -350882,-7083246 -350882,-7083247 -350880,-7083250 -350877,-7083253 -350875,-7083257 -350873,-7083260 -350871,-7083264 -350871,-7083265 -350869,-7083268 -350868,-7083271 -350867,-7083274 -350866,-7083277 -350865,-7083280 -350865,-7083283 -350864,-7083286 -350863,-7083289 -350863,-7083289 -350857,-7083306 -350847,-7083326 -350846,-7083327 -350846,-7083328 -350846,-7083328 -350845,-7083329 -350845,-7083329 -350844,-7083330 -350843,-7083331 -350843,-7083331 -350843,-7083331 -350842,-7083331 -350841,-7083332 -350841,-7083332 -350840,-7083332 -350839,-7083332 -350838,-7083332 -350838,-7083333 -350837,-7083333 -350836,-7083333 -350835,-7083333 -350835,-7083333 -350834,-7083332 -350833,-7083332 -350832,-7083332 -350831,-7083332 -350831,-7083331 -350830,-7083331 -350829,-7083331 -350828,-7083330 -350828,-7083330 -350827,-7083329 -350827,-7083328 -350826,-7083328 -350826,-7083327 -350825,-7083327 -350825,-7083326 -350825,-7083325 -350824,-7083324 -350824,-7083323 -350823,-7083323 -350823,-7083322 -350823,-7083321 -350819,-7083315 -350816,-7083309 -350813,-7083305 -350812,-7083304 -350810,-7083302 -350808,-7083300 -350806,-7083298 -350805,-7083296 -350803,-7083295 -350801,-7083293 -350799,-7083292 -350797,-7083291 -350795,-7083290 -350793,-7083288 -350790,-7083287 -350788,-7083286 -350786,-7083285 -350783,-7083285 -350781,-7083284 -350779,-7083283 -350776,-7083282 -350774,-7083282 -350772,-7083282 -350770,-7083281 -350767,-7083281 -350765,-7083281 -350762,-7083281 -350761,-7083281 -350749,-7083278 -350747,-7083277 -350745,-7083277 -350744,-7083277 -350742,-7083276 -350740,-7083276 -350738,-7083275 -350736,-7083275 -350734,-7083274 -350733,-7083273 -350731,-7083273 -350730,-7083272 -350728,-7083271 -350727,-7083270 -350725,-7083268 -350724,-7083267 -350722,-7083266 -350721,-7083265 -350720,-7083264 -350718,-7083262 -350717,-7083261 -350716,-7083260 -350714,-7083258 -350713,-7083256 -350712,-7083254 -350711,-7083252 -350710,-7083250 -350709,-7083248 -350708,-7083246 -350707,-7083244 -350706,-7083242 -350705,-7083240 -350704,-7083238 -350703,-7083235 -350702,-7083232 -350702,-7083229 -350701,-7083226 -350701,-7083223 -350700,-7083221 -350700,-7083218 -350699,-7083217 -350698,-7083209 -350697,-7083202 -350696,-7083195 -350696,-7083194 -350696,-7083191 -350696,-7083188 -350696,-7083185 -350697,-7083182 -350697,-7083179 -350697,-7083177 -350698,-7083175 -350699,-7083173 -350699,-7083171 -350700,-7083169 -350701,-7083168 -350702,-7083152 -350705,-7083137 -350711,-7083126 -350719,-7083114 -350737,-7083102 -350756,-7083087 -350770,-7083069 -350782,-7083052 -350792,-7083039 -350797,-7083023 -350805,-7083004 -350813,-7082985 -350817,-7082975 -350819,-7082973 -350820,-7082972 -350821,-7082970 -350822,-7082968 -350823,-7082966 -350824,-7082964 -350825,-7082962 -350825,-7082960 -350826,-7082958 -350826,-7082955 -350827,-7082953 -350827,-7082951 -350827,-7082949 -350827,-7082947 -350828,-7082945 -350828,-7082942 -350828,-7082940 -350828,-7082938 -350827,-7082936 -350827,-7082933 -350827,-7082931 -350826,-7082929 -350826,-7082926 -350825,-7082924 -350824,-7082921 -350823,-7082919 -350823,-7082916 -350822,-7082914 -350821,-7082912 -350820,-7082910 -350818,-7082908 -350817,-7082905 -350816,-7082903 -350814,-7082901 -350813,-7082899 -350811,-7082897 -350809,-7082895 -350809,-7082894 -350807,-7082893 -350805,-7082891 -350803,-7082889 -350801,-7082887 -350799,-7082886 -350797,-7082884 -350795,-7082883 -350793,-7082881 -350791,-7082880 -350774,-7082863 -350764,-7082857 -350750,-7082853 -350736,-7082853 -350722,-7082855 -350718,-7082855 -350715,-7082865 -350716,-7082877 -350715,-7082885 -350711,-7082897 -350702,-7082913 -350692,-7082930 -350678,-7082953 -350670,-7082969 -350663,-7082991 -350658,-7083008 -350650,-7083022 -350635,-7083047 -350614,-7083069 -350599,-7083090 -350588,-7083116 -350582,-7083135 -350573,-7083162 -350566,-7083187 -350561,-7083211 -350561,-7083214 -350560,-7083217 -350560,-7083220 -350560,-7083223 -350559,-7083227 -350558,-7083230 -350558,-7083231 -350557,-7083234 -350556,-7083237 -350555,-7083240 -350554,-7083242 -350553,-7083245 -350551,-7083248 -350551,-7083250 -350548,-7083256 -350545,-7083261 -350542,-7083267 -350540,-7083271 -350537,-7083274 -350535,-7083277 -350533,-7083280 -350531,-7083283 -350528,-7083285 -350528,-7083286 -350527,-7083287 -350526,-7083288 -350525,-7083288 -350524,-7083289 -350523,-7083290 -350523,-7083290 -350522,-7083290 -350521,-7083291 -350520,-7083291 -350519,-7083292 -350518,-7083292 -350516,-7083292 -350515,-7083293 -350514,-7083293 -350513,-7083293 -350513,-7083293 -350511,-7083293 -350510,-7083293 -350509,-7083293 -350508,-7083293 -350507,-7083292 -350505,-7083292 -350504,-7083292 -350503,-7083291 -350502,-7083291 -350501,-7083291 -350500,-7083290 -350498,-7083289 -350497,-7083289 -350496,-7083288 -350494,-7083287 -350493,-7083286 -350492,-7083285 -350454,-7083272 -350424,-7083264 -350391,-7083256 -350359,-7083251 -350355,-7083250 -350350,-7083250 -350346,-7083250 -350344,-7083250 -350339,-7083250 -350335,-7083250 -350330,-7083250 -350326,-7083251 -350324,-7083251 -350321,-7083252 -350318,-7083252 -350315,-7083253 -350313,-7083254 -350310,-7083255 -350307,-7083256 -350306,-7083256 -350303,-7083258 -350300,-7083259 -350296,-7083261 -350293,-7083262 -350290,-7083264 -350289,-7083265 -350286,-7083266 -350283,-7083269 -350280,-7083270 -350278,-7083272 -350276,-7083274 -350265,-7083282 -350264,-7083283 -350262,-7083284 -350261,-7083284 -350260,-7083285 -350259,-7083285 -350258,-7083286 -350257,-7083286 -350256,-7083286 -350255,-7083286 -350253,-7083287 -350252,-7083287 -350251,-7083287 -350250,-7083287 -350249,-7083286 -350248,-7083286 -350248,-7083286 -350247,-7083285 -350247,-7083285 -350247,-7083284 -350246,-7083284 -350246,-7083283 -350245,-7083283 -350245,-7083282 -350245,-7083282 -350245,-7083281 -350245,-7083281 -350244,-7083280 -350244,-7083279 -350244,-7083279 -350244,-7083278 -350244,-7083277 -350244,-7083277 -350245,-7083276 -350245,-7083275 -350245,-7083275 -350245,-7083274 -350245,-7083273 -350246,-7083273 -350247,-7083261 -350247,-7083260 -350247,-7083260 -350247,-7083259 -350248,-7083258 -350248,-7083257 -350248,-7083257 -350248,-7083256 -350248,-7083255 -350248,-7083255 -350248,-7083254 -350248,-7083253 -350248,-7083253 -350247,-7083252 -350247,-7083251 -350247,-7083251 -350246,-7083250 -350246,-7083250 -350245,-7083249 -350245,-7083249 -350244,-7083248 -350244,-7083247 -350243,-7083247 -350242,-7083246 -350242,-7083246 -350241,-7083246 -350240,-7083245 -350239,-7083245 -350239,-7083245 -350238,-7083245 -350237,-7083244 -350236,-7083244 -350236,-7083244 -350235,-7083244 -350234,-7083244 -350233,-7083244 -350232,-7083244 -350231,-7083244 -350230,-7083245 -350229,-7083245 -350228,-7083245 -350227,-7083246 -350225,-7083246 -350224,-7083247 -350223,-7083247 -350222,-7083247 -350217,-7083249 -350212,-7083250 -350208,-7083252 -350206,-7083252 -350158,-7083270 -350109,-7083291 -350068,-7083311 -350027,-7083325 -349978,-7083350 -349945,-7083364 -349921,-7083369 -349919,-7083370 -349917,-7083370 -349915,-7083370 -349913,-7083370 -349911,-7083371 -349909,-7083371 -349907,-7083371 -349905,-7083370 -349903,-7083370 -349901,-7083370 -349899,-7083370 -349898,-7083369 -349896,-7083369 -349894,-7083368 -349892,-7083368 -349890,-7083367 -349888,-7083366 -349886,-7083365 -349884,-7083365 -349883,-7083363 -349881,-7083362 -349880,-7083361 -349878,-7083360 -349878,-7083359 -349877,-7083358 -349876,-7083357 -349875,-7083356 -349875,-7083355 -349874,-7083353 -349873,-7083352 -349873,-7083351 -349872,-7083350 -349872,-7083348 -349872,-7083347 -349872,-7083346 -349872,-7083344 -349872,-7083343 -349872,-7083342 -349872,-7083341 -349872,-7083340 -349872,-7083339 -349873,-7083338 -349873,-7083337 -349874,-7083336 -349874,-7083336 -349875,-7083335 -349876,-7083334 -349876,-7083333 -349877,-7083332 -349878,-7083331 -349878,-7083330 -349879,-7083330 -349880,-7083329 -349881,-7083328 -349882,-7083327 -349883,-7083326 -349885,-7083325 -349886,-7083324 -349887,-7083323 -349889,-7083322 -349890,-7083322 -349893,-7083320 -349894,-7083319 -349895,-7083319 -349898,-7083317 -349902,-7083315 -349906,-7083314 -349909,-7083312 -349913,-7083311 -349917,-7083309 -349921,-7083308 -349925,-7083307 -349926,-7083306 -349978,-7083286 -350008,-7083271 -350022,-7083264 -350023,-7083264 -350023,-7083263 -350024,-7083263 -350024,-7083262 -350025,-7083262 -350025,-7083261 -350025,-7083261 -350026,-7083260 -350026,-7083260 -350026,-7083259 -350026,-7083258 -350027,-7083258 -350027,-7083257 -350027,-7083256 -350027,-7083256 -350027,-7083255 -350027,-7083254 -350027,-7083254 -350026,-7083253 -350026,-7083252 -350026,-7083252 -350026,-7083251 -350026,-7083250 -350025,-7083250 -350025,-7083249 -350024,-7083248 -350024,-7083248 -350023,-7083247 -350023,-7083247 -350022,-7083246 -350022,-7083246 -350021,-7083245 -350020,-7083244 -350019,-7083244 -350018,-7083244 -350017,-7083243 -350017,-7083243 -350016,-7083243 -350015,-7083243 -350014,-7083243 -350013,-7083242 -350012,-7083242 -350011,-7083242 -350010,-7083242 -350009,-7083242 -350008,-7083242 -350007,-7083242 -350003,-7083241 -349999,-7083240 -349995,-7083240 -349991,-7083240 -349987,-7083239 -349983,-7083239 -349979,-7083239 -349975,-7083240 -349974,-7083240 -349940,-7083241 -349896,-7083244 -349851,-7083253 -349807,-7083259 -349779,-7083263 -349758,-7083268 -349708,-7083284 -349677,-7083290 -349634,-7083298 -349608,-7083308 -349580,-7083313 -349536,-7083326 -349497,-7083335 -349461,-7083347 -349424,-7083356 -349423,-7083357 -349422,-7083357 -349421,-7083357 -349420,-7083357 -349419,-7083357 -349418,-7083357 -349417,-7083357 -349416,-7083357 -349415,-7083357 -349414,-7083357 -349414,-7083357 -349413,-7083357 -349412,-7083356 -349411,-7083356 -349410,-7083356 -349409,-7083355 -349409,-7083355 -349408,-7083354 -349407,-7083354 -349406,-7083353 -349406,-7083352 -349405,-7083351 -349405,-7083351 -349405,-7083350 -349404,-7083349 -349404,-7083349 -349404,-7083348 -349404,-7083347 -349404,-7083346 -349404,-7083346 -349404,-7083345 -349404,-7083344 -349404,-7083343 -349405,-7083343 -349405,-7083342 -349405,-7083341 -349405,-7083341 -349405,-7083340 -349406,-7083339 -349406,-7083338 -349407,-7083337 -349407,-7083336 -349408,-7083335 -349408,-7083335 -349409,-7083334 -349410,-7083333 -349410,-7083333 -349411,-7083332 -349412,-7083332 -349413,-7083331 -349414,-7083331 -349415,-7083330 -349415,-7083330 -349428,-7083315 -349447,-7083299 -349448,-7083299 -349449,-7083298 -349450,-7083298 -349451,-7083297 -349451,-7083296 -349452,-7083296 -349453,-7083295 -349453,-7083294 -349454,-7083293 -349455,-7083292 -349455,-7083292 -349456,-7083291 -349456,-7083290 -349457,-7083289 -349457,-7083288 -349457,-7083287 -349458,-7083286 -349458,-7083285 -349458,-7083284 -349457,-7083284 -349457,-7083284 -349457,-7083283 -349456,-7083283 -349456,-7083282 -349456,-7083282 -349455,-7083282 -349455,-7083282 -349454,-7083282 -349454,-7083281 -349453,-7083281 -349453,-7083281 -349452,-7083281 -349452,-7083281 -349451,-7083281 -349450,-7083281 -349450,-7083281 -349449,-7083281 -349449,-7083280 -349448,-7083280 -349447,-7083280 -349445,-7083280 -349444,-7083280 -349442,-7083280 -349441,-7083280 -349439,-7083280 -349438,-7083280 -349437,-7083280 -349435,-7083280 -349434,-7083280 -349433,-7083281 -349431,-7083281 -349430,-7083282 -349429,-7083282 -349427,-7083283 -349427,-7083283 -349394,-7083286 -349364,-7083289 -349333,-7083290 -349308,-7083287 -349283,-7083285 -349257,-7083290 -349227,-7083297 -349188,-7083304 -349145,-7083312 -349093,-7083323 -349038,-7083336 -348995,-7083348 -348954,-7083362 -348920,-7083373 -348892,-7083384 -348864,-7083394 -348850,-7083396 -348849,-7083395 -348848,-7083395 -348847,-7083395 -348846,-7083395 -348844,-7083394 -348843,-7083394 -348842,-7083394 -348841,-7083393 -348840,-7083392 -348839,-7083392 -348839,-7083391 -348838,-7083391 -348838,-7083390 -348837,-7083389 -348837,-7083389 -348837,-7083388 -348837,-7083387 -348837,-7083387 -348837,-7083386 -348837,-7083385 -348836,-7083384 -348836,-7083383 -348836,-7083382 -348836,-7083380 -348836,-7083378 -348836,-7083377 -348836,-7083375 -348836,-7083373 -348836,-7083371 -348836,-7083370 -348836,-7083368 -348837,-7083366 -348837,-7083364 -348838,-7083363 -348838,-7083361 -348839,-7083360 -348840,-7083358 -348841,-7083356 -348841,-7083355 -348842,-7083354 -348859,-7083324 -348884,-7083293 -348907,-7083254 -348920,-7083225 -348928,-7083203 -348941,-7083178 -348951,-7083156 -348958,-7083140 -348959,-7083139 -348959,-7083138 -348959,-7083137 -348960,-7083137 -348960,-7083136 -348960,-7083135 -348960,-7083134 -348960,-7083133 -348960,-7083132 -348960,-7083131 -348960,-7083130 -348960,-7083129 -348959,-7083128 -348959,-7083127 -348959,-7083127 -348958,-7083126 -348958,-7083126 -348958,-7083125 -348957,-7083125 -348957,-7083124 -348956,-7083124 -348955,-7083124 -348955,-7083123 -348954,-7083123 -348954,-7083123 -348952,-7083122 -348951,-7083122 -348950,-7083121 -348949,-7083121 -348948,-7083121 -348947,-7083120 -348946,-7083120 -348944,-7083119 -348943,-7083119 -348941,-7083119 -348939,-7083119 -348938,-7083119 -348936,-7083119 -348934,-7083119 -348933,-7083119 -348931,-7083120 -348930,-7083120 -348928,-7083121 -348927,-7083121 -348925,-7083121 -348924,-7083122 -348890,-7083123 -348863,-7083128 -348820,-7083140 -348794,-7083154 -348779,-7083169 -348669,-7083256 -348662,-7083264 -348656,-7083269 -348645,-7083274 -348639,-7083276 -348623,-7083278 -348595,-7083274 -348558,-7083271 -348517,-7083267 -348506,-7083262 -348503,-7083259 -348496,-7083248 -348495,-7083245 -348496,-7083242 -348499,-7083240 -348514,-7083238 -348522,-7083236 -348544,-7083228 -348620,-7083181 -348655,-7083153 -348673,-7083142 -348680,-7083136 -348684,-7083131 -348685,-7083126 -348686,-7083122 -348685,-7083117 -348683,-7083110 -348681,-7083107 -348665,-7083105 -348634,-7083125 -348567,-7083155 -348521,-7083179 -348506,-7083185 -348493,-7083189 -348481,-7083192 -348432,-7083198 -348420,-7083201 -348409,-7083205 -348400,-7083210 -348368,-7083232 -348354,-7083240 -348323,-7083253 -348306,-7083258 -348280,-7083263 -348248,-7083272 -348237,-7083273 -348234,-7083272 -348231,-7083270 -348230,-7083267 -348229,-7083259 -348233,-7083251 -348243,-7083239 -348245,-7083235 -348249,-7083216 -348248,-7083210 -348247,-7083205 -348243,-7083202 -348239,-7083201 -348235,-7083203 -348233,-7083205 -348215,-7083227 -348205,-7083236 -348172,-7083254 -348151,-7083263 -348127,-7083272 -348108,-7083277 -348083,-7083282 -348055,-7083283 -348021,-7083281 -348009,-7083279 -347993,-7083275 -347972,-7083267 -347951,-7083260 -347929,-7083249 -347917,-7083243 -347862,-7083211 -347797,-7083169 -347779,-7083158 -347684,-7083113 -347615,-7083077 -347581,-7083062 -347551,-7083053 -347476,-7083036 -347444,-7083024 -347393,-7083003 -347369,-7082996 -347340,-7082991 -347300,-7082989 -347252,-7082990 -347048,-7083017 -347018,-7083022 -346962,-7083035 -346938,-7083043 -346913,-7083051 -346892,-7083060 -346869,-7083071 -346838,-7083088 -346823,-7083097 -346786,-7083121 -346774,-7083128 -346760,-7083134 -346744,-7083140 -346724,-7083146 -346709,-7083149 -346699,-7083150 -346684,-7083150 -346668,-7083148 -346644,-7083143 -346630,-7083139 -346612,-7083131 -346602,-7083126 -346560,-7083099 -346507,-7083072 -346479,-7083056 -346466,-7083046 -346419,-7083010 -346405,-7083000 -346348,-7082965 -346326,-7082950 -346303,-7082932 -346280,-7082913 -346259,-7082892 -346228,-7082859 -346224,-7082854 -346221,-7082850 -346217,-7082845 -346212,-7082841 -346209,-7082838 -346204,-7082835 -346199,-7082832 -346194,-7082829 -346188,-7082827 -346182,-7082825 -346176,-7082823 -346170,-7082822 -346164,-7082821 -346157,-7082821 -346151,-7082821 -346149,-7082821 -346144,-7082822 -346140,-7082823 -346135,-7082825 -346131,-7082828 -346129,-7082830 -346127,-7082832 -346126,-7082835 -346125,-7082838 -346125,-7082840 -346124,-7082843 -346125,-7082845 -346125,-7082848 -346126,-7082850 -346128,-7082853 -346129,-7082855 -346131,-7082856 -346133,-7082858 -346135,-7082859 -346138,-7082860 -346139,-7082861 -346199,-7082900 -346229,-7082922 -346255,-7082944 -346301,-7082993 -346313,-7083004 -346341,-7083023 -346389,-7083049 -346516,-7083113 -346547,-7083127 -346593,-7083145 -346613,-7083154 -346640,-7083172 -346782,-7083294 -346816,-7083324 -346834,-7083340 -346916,-7083422 -346955,-7083459 -346983,-7083489 -346991,-7083499 -347025,-7083546 -347046,-7083582 -347070,-7083624 -347102,-7083685 -347136,-7083757 -347162,-7083820 -347210,-7083967 -347235,-7084053 -347251,-7084121 -347300,-7084272 -347330,-7084371 -347344,-7084411 -347350,-7084434 -347354,-7084459 -347355,-7084495 -347353,-7084522 -347349,-7084585 -347342,-7084631 -347322,-7084697 -347308,-7084737 -347306,-7084746 -347304,-7084758 -347304,-7084772 -347305,-7084788 -347308,-7084804 -347312,-7084817 -347318,-7084833 -347331,-7084852 -347365,-7084892 -347420,-7084966 -347430,-7084983 -347470,-7085107 -347483,-7085141 -347486,-7085159 -347486,-7085165 -347479,-7085190 -347477,-7085197 -347474,-7085202 -347470,-7085205 -347467,-7085207 -347460,-7085207 -347417,-7085155 -347398,-7085136 -347386,-7085127 -347380,-7085124 -347371,-7085121 -347360,-7085119 -347353,-7085118 -347349,-7085120 -347345,-7085122 -347342,-7085126 -347341,-7085130 -347341,-7085137 -347344,-7085150 -347355,-7085193 -347361,-7085237 -347365,-7085284 -347365,-7085313 -347364,-7085350 -347341,-7085484 -347338,-7085506 -347335,-7085564 -347331,-7085587 -347327,-7085605 -347313,-7085656 -347308,-7085682 -347304,-7085734 -347301,-7085829 -347298,-7085852 -347287,-7085922 -347286,-7085942 -347284,-7086017 -347274,-7086107 -347270,-7086179 -347265,-7086224 -347262,-7086246 -347254,-7086286 -347240,-7086335 -347224,-7086378 -347214,-7086422 -347213,-7086428 -347210,-7086432 -347208,-7086435 -347205,-7086436 -347201,-7086436 -347197,-7086434 -347194,-7086431 -347190,-7086427 -347188,-7086421 -347187,-7086415 -347188,-7086397 -347200,-7086266 -347201,-7086250 -347203,-7086169 -347209,-7086118 -347209,-7086105 -347208,-7086095 -347201,-7086051 -347200,-7086017 -347202,-7085940 -347205,-7085912 -347215,-7085880 -347217,-7085867 -347218,-7085841 -347212,-7085788 -347205,-7085741 -347204,-7085727 -347204,-7085719 -347208,-7085686 -347208,-7085678 -347206,-7085664 -347204,-7085652 -347202,-7085645 -347200,-7085643 -347196,-7085643 -347189,-7085648 -347187,-7085674 -347171,-7085723 -347163,-7085764 -347157,-7085819 -347151,-7085893 -347121,-7086052 -347112,-7086089 -347085,-7086167 -347080,-7086188 -347063,-7086273 -347036,-7086363 -347028,-7086393 -347017,-7086441 -347001,-7086518 -346993,-7086559 -346982,-7086629 -346975,-7086658 -346968,-7086679 -346943,-7086743 -346934,-7086768 -346926,-7086796 -346919,-7086845 -346917,-7086854 -346910,-7086875 -346895,-7086912 -346892,-7086920 -346888,-7086935 -346883,-7086980 -346880,-7086992 -346874,-7087010 -346862,-7087044 -346838,-7087094 -346836,-7087105 -346834,-7087129 -346830,-7087141 -346827,-7087145 -346822,-7087147 -346816,-7087146 -346810,-7087144 -346803,-7087140 -346800,-7087133 -346798,-7087113 -346797,-7087107 -346788,-7087090 -346786,-7087080 -346787,-7087076 -346795,-7087053 -346790,-7086894 -346790,-7086866 -346795,-7086827 -346805,-7086789 -346824,-7086737 -346829,-7086719 -346834,-7086694 -346838,-7086670 -346842,-7086634 -346846,-7086586 -346845,-7086567 -346841,-7086527 -346840,-7086468 -346836,-7086379 -346836,-7086365 -346838,-7086348 -346851,-7086294 -346861,-7086234 -346864,-7086216 -346877,-7086098 -346878,-7086082 -346882,-7086007 -346891,-7085945 -346888,-7085880 -346885,-7085849 -346886,-7085832 -346896,-7085808 -346915,-7085772 -346930,-7085737 -346936,-7085715 -346948,-7085648 -346953,-7085626 -346969,-7085582 -346971,-7085569 -346975,-7085537 -346979,-7085517 -346984,-7085503 -346993,-7085481 -347010,-7085448 -347033,-7085412 -347036,-7085408 -347043,-7085402 -347048,-7085400 -347052,-7085399 -347058,-7085399 -347065,-7085401 -347085,-7085409 -347103,-7085420 -347109,-7085421 -347113,-7085420 -347116,-7085418 -347117,-7085415 -347117,-7085411 -347116,-7085408 -347106,-7085397 -347089,-7085384 -347066,-7085374 -347060,-7085369 -347052,-7085361 -347044,-7085350 -347038,-7085339 -347031,-7085326 -347025,-7085311 -347021,-7085292 -347020,-7085260 -347019,-7085253 -347016,-7085248 -347010,-7085241 -346988,-7085230 -346983,-7085226 -346979,-7085220 -346976,-7085210 -346974,-7085198 -346974,-7085183 -346974,-7085175 -346981,-7085131 -346985,-7085105 -346985,-7085093 -346982,-7085074 -346973,-7085045 -346970,-7085032 -346969,-7085009 -346973,-7084984 -346973,-7084980 -346972,-7084977 -346969,-7084973 -346964,-7084970 -346961,-7084970 -346958,-7084974 -346955,-7085006 -346954,-7085012 -346952,-7085018 -346940,-7085041 -346939,-7085047 -346939,-7085052 -346941,-7085060 -346953,-7085082 -346955,-7085089 -346959,-7085106 -346963,-7085131 -346964,-7085156 -346964,-7085187 -346960,-7085279 -346960,-7085296 -346968,-7085452 -346967,-7085482 -346965,-7085504 -346957,-7085542 -346946,-7085579 -346941,-7085592 -346932,-7085616 -346915,-7085653 -346889,-7085696 -346884,-7085704 -346877,-7085720 -346872,-7085737 -346868,-7085756 -346861,-7085832 -346860,-7085873 -346858,-7085962 -346855,-7086018 -346853,-7086034 -346848,-7086065 -346834,-7086108 -346829,-7086128 -346828,-7086144 -346829,-7086180 -346827,-7086201 -346816,-7086246 -346814,-7086259 -346808,-7086310 -346794,-7086391 -346785,-7086455 -346774,-7086558 -346770,-7086614 -346767,-7086661 -346768,-7086721 -346767,-7086735 -346765,-7086750 -346760,-7086769 -346740,-7086816 -346734,-7086844 -346732,-7086862 -346731,-7086888 -346733,-7086959 -346733,-7087009 -346731,-7087050 -346726,-7087100 -346714,-7087169 -346705,-7087206 -346690,-7087252 -346684,-7087270 -346663,-7087319 -346656,-7087341 -346653,-7087352 -346643,-7087403 -346634,-7087434 -346576,-7087573 -346553,-7087635 -346545,-7087658 -346536,-7087692 -346524,-7087759 -346509,-7087851 -346505,-7087871 -346486,-7087951 -346475,-7087993 -346449,-7088082 -346431,-7088134 -346377,-7088289 -346353,-7088370 -346343,-7088397 -346313,-7088465 -346300,-7088499 -346280,-7088567 -346275,-7088583 -346270,-7088596 -346231,-7088677 -346192,-7088772 -346142,-7088882 -346091,-7089013 -346055,-7089100 -346040,-7089135 -345998,-7089222 -345990,-7089242 -345981,-7089267 -345965,-7089318 -345949,-7089360 -345930,-7089401 -345903,-7089454 -345886,-7089496 -345878,-7089518 -345850,-7089610 -345834,-7089655 -345818,-7089700 -345783,-7089790 -345740,-7089910 -345712,-7089984 -345667,-7090071 -345608,-7090212 -345477,-7090506 -345447,-7090570 -345438,-7090591 -345419,-7090638 -345406,-7090677 -345403,-7090688 -345394,-7090734 -345392,-7090744 -345383,-7090763 -345364,-7090797 -345359,-7090808 -345352,-7090828 -345329,-7090903 -345264,-7091072 -345230,-7091156 -345201,-7091237 -345190,-7091264 -345175,-7091299 -345144,-7091369 -345059,-7091588 -345006,-7091746 -344921,-7091944 -344816,-7092193 -344745,-7092354 -344733,-7092380 -344712,-7092426 -344656,-7092549 -344598,-7092687 -344577,-7092735 -344497,-7092900 -344457,-7092988 -344397,-7093115 -344332,-7093247 -344298,-7093336 -344263,-7093401 -344241,-7093458 -344205,-7093523 -344119,-7093682 -344082,-7093749 -344057,-7093789 -344016,-7093895 -343920,-7094099 -343869,-7094192 -343865,-7094201 -343858,-7094221 -343838,-7094274 -343818,-7094305 -343806,-7094328 -343751,-7094452 -343742,-7094469 -343712,-7094517 -343703,-7094535 -343687,-7094572 -343627,-7094730 -343597,-7094808 -343540,-7094966 -343459,-7095128 -343433,-7095181 -343385,-7095286 -343331,-7095399 -343288,-7095509 -343250,-7095601 -343209,-7095710 -343198,-7095750 -343193,-7095761 -343183,-7095784 -343168,-7095820 -343153,-7095853 -343136,-7095895 -343110,-7095971 -343102,-7096002 -343093,-7096026 -343076,-7096083 -343062,-7096130 -343050,-7096155 -343026,-7096245 -342954,-7096424 -342897,-7096561 -342884,-7096609 -342873,-7096641 -342862,-7096670 -342826,-7096770 -342718,-7097064 -342683,-7097156 -342666,-7097205 -342649,-7097255 -342627,-7097325 -342588,-7097439 -342555,-7097531 -342508,-7097674 -342472,-7097780 -342463,-7097811 -342441,-7097910 -342425,-7097970 -342409,-7098030 -342388,-7098100 -342382,-7098134 -342340,-7098304 -342317,-7098404 -342286,-7098494 -342259,-7098620 -342241,-7098671 -342213,-7098760 -342198,-7098805 -342146,-7098948 -342125,-7098997 -342114,-7099020 -342000,-7099732 -341981,-7099862 -341954,-7099976 -341928,-7100094 -341901,-7100218 -341871,-7100332 -341832,-7100459 -341794,-7100604 -341756,-7100731 -341728,-7100835 -341700,-7100938 -341667,-7101079 -341651,-7101149 -341623,-7101288 -341592,-7101453 -341574,-7101550 -341509,-7101916 -341461,-7102120 -341448,-7102174 -341440,-7102209 -341427,-7102280 -341415,-7102360 -341401,-7102463 -341377,-7102599 -341359,-7102693 -341354,-7102726 -341342,-7102850 -341325,-7102959 -341309,-7103075 -341297,-7103185 -341281,-7103319 -341271,-7103436 -341257,-7103563 -341251,-7103698 -341247,-7103761 -341246,-7103798 -341262,-7103987 -341266,-7104051 -341266,-7104078 -341264,-7104155 -341273,-7104273 -341275,-7104321 -341278,-7104340 -341282,-7104355 -341288,-7104376 -341291,-7104385 -341296,-7104391 -341302,-7104395 -341311,-7104398 -341321,-7104399 -341332,-7104398 -341345,-7104395 -341359,-7104387 -341379,-7104372 -341418,-7104332 -341459,-7104288 -341481,-7104269 -341497,-7104252 -341501,-7104249 -341505,-7104247 -341508,-7104247 -341512,-7104248 -341516,-7104251 -341519,-7104254 -341522,-7104259 -341524,-7104267 -341491,-7104357 -341464,-7104426 -341454,-7104456 -341421,-7104613 -341400,-7104707 -341395,-7104723 -341388,-7104737 -341378,-7104753 -341368,-7104767 -341358,-7104778 -341347,-7104788 -341334,-7104798 -341321,-7104806 -341307,-7104813 -341295,-7104818 -341254,-7104832 -341247,-7104835 -341229,-7104845 -341191,-7104869 -341111,-7104905 -340965,-7104974 -340921,-7104998 -340875,-7105028 -340846,-7105051 -340828,-7105066 -340803,-7105089 -340707,-7105187 -340702,-7105192 -340695,-7105198 -340598,-7105289 -340570,-7105322 -340501,-7105400 -340472,-7105444 -340450,-7105485 -340442,-7105511 -340440,-7105521 -340436,-7105553 -340429,-7105665 -340425,-7105682 -340420,-7105695 -340414,-7105707 -340404,-7105721 -340391,-7105736 -340374,-7105755 -340364,-7105764 -340326,-7105790 -340324,-7105794 -340326,-7105799 -340330,-7105801 -340365,-7105796 -340374,-7105798 -340402,-7105807 -340414,-7105808 -340418,-7105808 -340423,-7105807 -340427,-7105804 -340430,-7105801 -340433,-7105795 -340466,-7105657 -340470,-7105640 -340473,-7105618 -340475,-7105611 -340478,-7105604 -340498,-7105578 -340500,-7105578 -340506,-7105579 -340526,-7105609 -340539,-7105646 -340550,-7105691 -340564,-7105747 -340575,-7105822 -340575,-7105837 -340571,-7105850 -340545,-7105905 -340538,-7105915 -340523,-7105931 -340450,-7105987 -340415,-7106018 -340381,-7106053 -340248,-7106164 -340078,-7106281 -340008,-7106326 -339959,-7106352 -339913,-7106369 -339874,-7106381 -339862,-7106383 -339844,-7106385 -339826,-7106385 -339788,-7106381 -339768,-7106378 -339745,-7106373 -339694,-7106359 -339665,-7106346 -339572,-7106295 -339506,-7106246 -339431,-7106185 -339397,-7106152 -339377,-7106130 -339297,-7105998 -339291,-7105989 -339283,-7105980 -339274,-7105974 -339268,-7105970 -339258,-7105967 -339173,-7105926 -339111,-7105905 -339049,-7105881 -339004,-7105867 -338986,-7105865 -338958,-7105867 -338934,-7105867 -338910,-7105875 -338872,-7105901 -338850,-7105919 -338822,-7105958 -338816,-7105970 -338810,-7105982 -338793,-7106026 -338787,-7106046 -338782,-7106058 -338776,-7106068 -338762,-7106087 -338732,-7106115 -338708,-7106133 -338674,-7106149 -338644,-7106159 -338605,-7106163 -338581,-7106177 -338563,-7106186 -338559,-7106189 -338555,-7106195 -338554,-7106199 -338556,-7106228 -338554,-7106235 -338552,-7106238 -338530,-7106243 -338478,-7106250 -338460,-7106255 -338438,-7106270 -338434,-7106273 -338427,-7106291 -338424,-7106294 -338419,-7106297 -338414,-7106298 -338344,-7106284 -338323,-7106280 -338280,-7106277 -338273,-7106279 -338276,-7106282 -338283,-7106288 -338288,-7106291 -338313,-7106294 -338320,-7106297 -338323,-7106300 -338323,-7106331 -338344,-7106311 -338350,-7106309 -338356,-7106307 -338368,-7106306 -338381,-7106313 -338386,-7106315 -338399,-7106317 -338411,-7106319 -338421,-7106317 -338427,-7106315 -338469,-7106295 -338494,-7106280 -338556,-7106264 -338585,-7106247 -338641,-7106211 -338691,-7106173 -338728,-7106141 -338747,-7106122 -338795,-7106096 -338826,-7106072 -338870,-7106040 -338872,-7106036 -338872,-7106033 -338868,-7106030 -338842,-7106026 -338840,-7106024 -338838,-7106022 -338838,-7106016 -338839,-7106008 -338840,-7106003 -338843,-7105998 -338846,-7105995 -338868,-7105979 -338873,-7105975 -338885,-7105958 -338902,-7105941 -338905,-7105938 -338912,-7105935 -338920,-7105932 -338928,-7105931 -338938,-7105932 -338946,-7105933 -338965,-7105941 -339011,-7105963 -339019,-7105973 -339029,-7105987 -339033,-7105996 -339033,-7106001 -339033,-7106007 -339031,-7106015 -339028,-7106023 -339023,-7106029 -339017,-7106034 -338946,-7106073 -338932,-7106086 -338929,-7106094 -338930,-7106098 -338932,-7106099 -338935,-7106099 -338937,-7106099 -338940,-7106096 -338993,-7106078 -339016,-7106078 -339064,-7106069 -339074,-7106069 -339085,-7106071 -339092,-7106074 -339203,-7106137 -339247,-7106158 -339318,-7106202 -339343,-7106214 -339378,-7106239 -339440,-7106270 -339535,-7106324 -339546,-7106330 -339582,-7106335 -339596,-7106339 -339655,-7106368 -339694,-7106384 -339714,-7106390 -339746,-7106399 -339766,-7106404 -339805,-7106408 -339837,-7106408 -339913,-7106398 -340045,-7106366 -340074,-7106357 -340108,-7106341 -340184,-7106295 -340256,-7106249 -340272,-7106237 -340287,-7106225 -340321,-7106191 -340350,-7106155 -340381,-7106110 -340394,-7106096 -340405,-7106088 -340421,-7106077 -340462,-7106060 -340481,-7106056 -340489,-7106057 -340493,-7106056 -340498,-7106053 -340523,-7106027 -340580,-7105948 -340593,-7105919 -340601,-7105895 -340608,-7105867 -340613,-7105844 -340615,-7105821 -340616,-7105800 -340615,-7105783 -340610,-7105751 -340597,-7105712 -340580,-7105647 -340571,-7105617 -340568,-7105605 -340565,-7105582 -340524,-7105508 -340516,-7105489 -340514,-7105478 -340514,-7105472 -340515,-7105466 -340522,-7105454 -340549,-7105430 -340571,-7105408 -340640,-7105364 -340685,-7105328 -340709,-7105304 -340752,-7105254 -340851,-7105172 -340921,-7105116 -340972,-7105080 -341008,-7105059 -341112,-7105005 -341140,-7104992 -341202,-7104968 -341228,-7104955 -341249,-7104942 -341288,-7104917 -341327,-7104891 -341346,-7104876 -341360,-7104865 -341386,-7104838 -341411,-7104808 -341430,-7104780 -341446,-7104750 -341452,-7104735 -341458,-7104721 -341465,-7104696 -341474,-7104658 -341483,-7104611 -341500,-7104496 -341522,-7104397 -341525,-7104388 -341538,-7104348 -341547,-7104329 -341554,-7104319 -341583,-7104282 -341588,-7104277 -341592,-7104275 -341597,-7104275 -341600,-7104276 -341603,-7104279 -341604,-7104282 -341606,-7104291 -341599,-7104364 -341593,-7104402 -341592,-7104412 -341593,-7104419 -341597,-7104441 -341600,-7104450 -341610,-7104470 -341682,-7104571 -341703,-7104697 -341706,-7104724 -341707,-7104737 -341707,-7104800 -341709,-7104821 -341718,-7104888 -341722,-7104944 -341721,-7105002 -341717,-7105061 -341713,-7105167 -341695,-7105369 -341661,-7105590 -341648,-7105672 -341640,-7105708 -341623,-7105768 -341619,-7105784 -341616,-7105800 -341612,-7105851 -341608,-7105869 -341599,-7105896 -341583,-7105931 -341524,-7106100 -341486,-7106204 -341477,-7106235 -341453,-7106352 -341427,-7106449 -341383,-7106644 -341343,-7106835 -341279,-7107104 -341277,-7107118 -341275,-7107135 -341274,-7107171 -341283,-7107223 -341307,-7107426 -341309,-7107448 -341312,-7107508 -341311,-7107550 -341308,-7107590 -341302,-7107627 -341290,-7107678 -341275,-7107723 -341248,-7107799 -341217,-7107873 -341200,-7107910 -341164,-7107978 -341115,-7108056 -341097,-7108089 -341081,-7108121 -341067,-7108153 -341054,-7108188 -341047,-7108207 -341038,-7108234 -341025,-7108264 -341010,-7108290 -340967,-7108347 -340934,-7108388 -340902,-7108423 -340877,-7108448 -340794,-7108522 -340757,-7108552 -340728,-7108574 -340676,-7108614 -340659,-7108626 -340626,-7108647 -340565,-7108681 -340548,-7108689 -340493,-7108714 -340419,-7108745 -340337,-7108781 -340503,-7108992 -340769,-7109333 -340947,-7109567 -341184,-7109876 -341361,-7110108 -342016,-7110956 -341631,-7111207 -341279,-7111435 -340805,-7111736 -340686,-7111779 -339970,-7112085 -338949,-7112525 -338328,-7112796 -337899,-7112978 -337549,-7113132 -337348,-7112869 -337227,-7112708 -337098,-7112542 -336857,-7112224 -336737,-7112063 -336454,-7111690 -336257,-7111429 -336110,-7111456 -335745,-7111537 -335563,-7111575 -335514,-7111581 -335483,-7111585 -335445,-7111593 -335347,-7111618 -335260,-7111643 -335237,-7111650 -335164,-7111685 -335097,-7111714 -335060,-7111728 -335018,-7111743 -334998,-7111750 -334943,-7111765 -334930,-7111770 -334895,-7111787 -334876,-7111799 -334848,-7111821 -334809,-7111860 -334784,-7111887 -334749,-7111929 -334700,-7111993 -334612,-7112116 -334538,-7112254 -334521,-7112282 -334503,-7112310 -334493,-7112324 -334470,-7112353 -334443,-7112382 -334426,-7112397 -334411,-7112406 -334362,-7112432 -334309,-7112464 -334280,-7112484 -334245,-7112509 -334235,-7112518 -334216,-7112536 -334202,-7112552 -334194,-7112563 -334179,-7112585 -334164,-7112615 -334154,-7112644 -334150,-7112659 -334147,-7112675 -334146,-7112685 -334147,-7112706 -334153,-7112743 -334164,-7112807 -334186,-7112908 -334213,-7113028 -334250,-7113204 -334259,-7113262 -334263,-7113306 -334264,-7113349 -334265,-7113371 -334264,-7113388 -334262,-7113395 -334258,-7113407 -334251,-7113420 -334241,-7113433 -334227,-7113446 -334201,-7113466 -334179,-7113487 -334148,-7113520 -334110,-7113544 -334040,-7113585 -333969,-7113631 -333819,-7113771 -333712,-7113873 -333664,-7113900 -333489,-7113914 -333387,-7113929 -333334,-7113936 -333194,-7113954 -333122,-7113963 -333053,-7113974 -332911,-7113990 -332773,-7114011 -332651,-7114024 -332555,-7114033 -332408,-7114048 -331011,-7114229 -330255,-7114314 -329845,-7114361 -329614,-7113965 -329308,-7113454 -329302,-7113443 -329084,-7113071 -329000,-7112930 -328972,-7112885 -328710,-7112440 -328446,-7111989 -328428,-7111957" stroke="#006747" stroke-width="80" /></ns0:svg>    <rect x="20" y="50"  width="250" height="25"  rx="0"  fill="#006747" fill-opacity="0.8" />    <text x="145" y="70" text-anchor="middle" font-family="Frutiger" font-weight="bold" font-size="30" fill="white">Sefton</text>    <rect x="35" y="195" width="220" height="160" rx="15" fill="#78BE20"/>    <g font-family="Frutiger" font-size="15" fill="#231F20">        <g> <text x="45" y="218">Self-harm</text> <text x="245" y="218" text-anchor="end">51</text> </g>        <g> <text x="45" y="243">SEN</text> <text x="245" y="243" text-anchor="end">20</text> </g>        <g> <text x="45" y="268">Difficulties</text> <text x="245" y="268" text-anchor="end">65</text> </g>        <g> <text x="45" y="293">Child Carer</text> <text x="245" y="293" text-anchor="end">10</text> </g>        <g> <text x="45" y="318">Drinkers</text> <text x="245" y="318" text-anchor="end">39</text> </g>        <g> <text x="45" y="343">Safeguarding </text> <text x="245" y="343" text-anchor="end">17</text> </g>    </g></svg>