<?xml version="1.0" standalone="no"?>
<!DOCTYPE svg PUBLIC "-//W3C//DTD SVG 1.1//EN"
"http://www.w3.org/Graphics/SVG/1.1/DTD/svg11.dtd">
<svg height="1800" version="1.1" width="1800" xmlns="http://www.w3.org/2000/svg"><defs><style type="text/css">@font-face {font-family: 'Frutiger';font-style: normal;font-weight: normal;src: local('Frutiger'), url('../fonts/Frutiger.woff') format('woff');}@font-face {font-family: 'Frutiger Bold';font-style: normal;font-weight: normal;src: local('Frutiger Bold'), url('../fonts/Frutiger_bold.woff') format('woff');}        </style>    </defs>    <rect x="20" y="20"  width="250" height="350" rx="15" fill="#009639" />    <rect x="35" y="35"  width="220" height="145" rx="15" fill="#E8EDEE" /><ns0:svg xmlns:ns0="http://www.w3.org/2000/svg" height="115" version="1.1" viewBox="-244005 -6901695 20086 24172" width="220" x="35" y="50"><ns0:polygon fill="#006747" points=" -236104,-6901315 -235976,-6901083 -235926,-6900986 -235883,-6900901 -235840,-6900824 -235769,-6900702 -235828,-6900667 -235827,-6900664 -235804,-6900622 -235755,-6900525 -235689,-6900570 -235638,-6900450 -235598,-6900364 -235524,-6900201 -235471,-6900092 -235402,-6899956 -235497,-6899913 -235423,-6899750 -235408,-6899758 -235387,-6899695 -235260,-6899757 -235187,-6899787 -235129,-6899815 -235120,-6899808 -235111,-6899800 -235086,-6899763 -235047,-6899657 -235078,-6899550 -235083,-6899537 -235089,-6899524 -235107,-6899493 -235105,-6899470 -235083,-6899468 -235053,-6899468 -235014,-6899474 -235001,-6899477 -234975,-6899486 -234961,-6899493 -234934,-6899507 -234904,-6899526 -234843,-6899547 -234830,-6899501 -234803,-6899437 -234775,-6899357 -234749,-6899291 -234730,-6899289 -234717,-6899227 -234703,-6899150 -234688,-6899081 -234668,-6899088 -234661,-6899092 -234653,-6899097 -234634,-6899113 -234632,-6899116 -234570,-6899187 -234556,-6899203 -234492,-6899306 -234465,-6899345 -234450,-6899362 -234437,-6899373 -234409,-6899392 -234390,-6899402 -234368,-6899413 -234336,-6899426 -234293,-6899441 -234276,-6899446 -234242,-6899454 -234201,-6899462 -234120,-6899472 -234029,-6899476 -233953,-6899477 -233825,-6899475 -233728,-6899468 -233628,-6899472 -233543,-6899467 -233529,-6899462 -233517,-6899460 -233506,-6899459 -233494,-6899458 -233483,-6899459 -233471,-6899461 -233462,-6899464 -233444,-6899473 -233418,-6899490 -233376,-6899522 -233347,-6899543 -233258,-6899672 -233196,-6899749 -233123,-6899847 -233085,-6899761 -233069,-6899724 -233032,-6899747 -232965,-6899789 -232891,-6899818 -232805,-6899882 -232745,-6899927 -232663,-6899981 -232673,-6900037 -232679,-6900056 -232696,-6900112 -232623,-6900134 -232633,-6900207 -232579,-6900214 -232563,-6900225 -232577,-6900325 -232585,-6900384 -232586,-6900389 -232586,-6900395 -232585,-6900400 -232584,-6900405 -232583,-6900410 -232581,-6900415 -232579,-6900420 -232577,-6900425 -232574,-6900429 -232573,-6900430 -232570,-6900435 -232564,-6900443 -232550,-6900460 -232549,-6900461 -232548,-6900462 -232498,-6900283 -232442,-6900318 -232356,-6900379 -232259,-6900448 -232273,-6900479 -232233,-6900509 -232215,-6900521 -232200,-6900535 -232191,-6900551 -232175,-6900594 -232154,-6900640 -232138,-6900676 -232116,-6900696 -232101,-6900707 -232086,-6900714 -232063,-6900719 -232043,-6900718 -232028,-6900714 -232035,-6900707 -231976,-6900681 -231909,-6900657 -231863,-6900643 -231855,-6900641 -231847,-6900639 -231840,-6900639 -231832,-6900638 -231824,-6900638 -231816,-6900639 -231811,-6900640 -231806,-6900641 -231801,-6900643 -231797,-6900646 -231792,-6900649 -231788,-6900653 -231784,-6900656 -231780,-6900660 -231776,-6900664 -231772,-6900667 -231760,-6900677 -231751,-6900686 -231727,-6900708 -231718,-6900737 -231715,-6900742 -231712,-6900747 -231709,-6900753 -231708,-6900756 -231706,-6900762 -231705,-6900767 -231705,-6900773 -231704,-6900779 -231704,-6900785 -231702,-6900802 -231702,-6900818 -231702,-6900827 -231704,-6900837 -231705,-6900846 -231708,-6900855 -231709,-6900861 -231711,-6900888 -231713,-6900924 -231712,-6900931 -231710,-6900938 -231707,-6900945 -231706,-6900952 -231697,-6900987 -231688,-6901022 -231692,-6901061 -231694,-6901106 -231696,-6901143 -231686,-6901213 -231665,-6901296 -231652,-6901351 -231649,-6901360 -231646,-6901369 -231643,-6901378 -231639,-6901386 -231634,-6901394 -231629,-6901402 -231629,-6901403 -231623,-6901410 -231617,-6901417 -231611,-6901424 -231604,-6901430 -231597,-6901437 -231590,-6901442 -231582,-6901447 -231574,-6901452 -231569,-6901456 -231559,-6901461 -231550,-6901465 -231540,-6901470 -231530,-6901473 -231519,-6901476 -231509,-6901478 -231498,-6901480 -231498,-6901480 -231488,-6901481 -231478,-6901481 -231468,-6901480 -231458,-6901479 -231448,-6901477 -231438,-6901476 -231428,-6901474 -231424,-6901473 -231398,-6901469 -231371,-6901464 -231371,-6901464 -231326,-6901457 -231317,-6901438 -231343,-6901432 -231313,-6901378 -231286,-6901333 -231270,-6901298 -231259,-6901268 -231247,-6901222 -231216,-6901166 -231207,-6901147 -231199,-6901129 -231192,-6901111 -231187,-6901093 -231180,-6901067 -231164,-6901047 -231143,-6901002 -231117,-6900940 -231075,-6900824 -231064,-6900796 -231034,-6900756 -231018,-6900760 -231014,-6900750 -231027,-6900744 -231032,-6900722 -231015,-6900709 -231006,-6900701 -231006,-6900627 -230994,-6900577 -230974,-6900492 -230969,-6900473 -230946,-6900392 -230912,-6900287 -230898,-6900248 -230894,-6900233 -230884,-6900196 -230879,-6900166 -230870,-6900168 -230844,-6900021 -230832,-6899920 -230811,-6899789 -230812,-6899725 -230803,-6899685 -230776,-6899677 -230778,-6899668 -230789,-6899669 -230799,-6899670 -230768,-6899443 -230759,-6899442 -230750,-6899442 -230749,-6899432 -230757,-6899430 -230767,-6899428 -230748,-6899229 -230740,-6899175 -230738,-6899017 -230743,-6898915 -230753,-6898796 -230764,-6898695 -230765,-6898689 -230789,-6898514 -230794,-6898477 -230802,-6898441 -230704,-6898476 -230693,-6898459 -230724,-6898448 -230716,-6898428 -230733,-6898413 -230748,-6898362 -230775,-6898256 -230781,-6898257 -230787,-6898260 -230791,-6898249 -230828,-6898137 -230949,-6898180 -230954,-6898163 -231012,-6897949 -231013,-6897946 -230895,-6897905 -230890,-6897903 -230910,-6897830 -230929,-6897736 -230937,-6897724 -230929,-6897723 -230922,-6897721 -230929,-6897693 -230932,-6897691 -230932,-6897691 -230944,-6897688 -230985,-6897674 -231003,-6897592 -231013,-6897538 -231062,-6897417 -231067,-6897386 -231070,-6897366 -231089,-6897296 -231089,-6897280 -231148,-6897326 -231188,-6897335 -231293,-6897419 -231323,-6897443 -231367,-6897489 -231398,-6897521 -231441,-6897566 -231463,-6897525 -231463,-6897521 -231467,-6897475 -231467,-6897450 -231466,-6897433 -231462,-6897398 -231434,-6897302 -231411,-6897230 -231397,-6897178 -231394,-6897169 -231389,-6897160 -231382,-6897142 -231356,-6897112 -231306,-6897070 -231279,-6897054 -231227,-6897031 -231224,-6897029 -231248,-6896956 -231268,-6896959 -231285,-6896896 -231300,-6896841 -231287,-6896836 -231288,-6896828 -231310,-6896836 -231376,-6896620 -231360,-6896615 -231362,-6896606 -231382,-6896614 -231384,-6896614 -231390,-6896591 -231406,-6896528 -231407,-6896526 -231393,-6896520 -231395,-6896509 -231399,-6896498 -231407,-6896501 -231409,-6896502 -231421,-6896475 -231438,-6896421 -231459,-6896349 -231482,-6896261 -231502,-6896170 -231507,-6896130 -231508,-6896126 -231508,-6896117 -231510,-6896108 -231514,-6896047 -231519,-6895980 -231522,-6895919 -231522,-6895838 -231521,-6895773 -231519,-6895727 -231515,-6895648 -231512,-6895570 -231498,-6895488 -231498,-6895447 -231287,-6895461 -231165,-6895468 -231121,-6895462 -231099,-6895458 -231081,-6895449 -231074,-6895447 -231056,-6895437 -231009,-6895407 -230957,-6895370 -230862,-6895296 -230785,-6895228 -230724,-6895171 -230654,-6895103 -230597,-6895043 -230591,-6895037 -230542,-6894986 -230516,-6894957 -230488,-6894924 -230436,-6894864 -230386,-6894803 -230282,-6894664 -230241,-6894602 -230190,-6894525 -230107,-6894387 -230020,-6894226 -229967,-6894112 -229926,-6894019 -229869,-6893871 -229819,-6893716 -229800,-6893677 -229769,-6893628 -229755,-6893617 -229676,-6893550 -229592,-6893496 -229477,-6893428 -229419,-6893393 -229368,-6893372 -229324,-6893356 -229288,-6893347 -229235,-6893335 -229047,-6893293 -229012,-6893286 -229014,-6893280 -229027,-6893216 -229028,-6893199 -229031,-6893193 -229035,-6893187 -229066,-6893195 -229067,-6893190 -229068,-6893184 -229073,-6893185 -229098,-6893191 -229099,-6893188 -229118,-6893116 -229061,-6893094 -229082,-6893034 -229113,-6892991 -229106,-6892985 -229118,-6892983 -229158,-6892925 -229171,-6892905 -229177,-6892897 -229191,-6892875 -229214,-6892850 -229251,-6892817 -229276,-6892793 -229308,-6892765 -229315,-6892760 -229355,-6892767 -229408,-6892766 -229409,-6892768 -229416,-6892781 -229472,-6892793 -229480,-6892764 -229488,-6892733 -229482,-6892727 -229491,-6892699 -229498,-6892695 -229505,-6892679 -229531,-6892639 -229538,-6892630 -229544,-6892605 -229546,-6892601 -229542,-6892594 -229550,-6892566 -229557,-6892562 -229588,-6892458 -229590,-6892453 -229521,-6892429 -229512,-6892413 -229472,-6892337 -229471,-6892267 -229477,-6892207 -229482,-6892151 -229484,-6892120 -229499,-6892089 -229450,-6892060 -229443,-6892043 -229443,-6892013 -229430,-6892004 -229429,-6891995 -229426,-6891977 -229455,-6891930 -229475,-6891915 -229482,-6891910 -229471,-6891898 -229460,-6891878 -229420,-6891860 -229418,-6891860 -229420,-6891836 -229423,-6891805 -229425,-6891775 -229442,-6891654 -229464,-6891633 -229459,-6891584 -229422,-6891525 -229420,-6891511 -229431,-6891494 -229435,-6891487 -229444,-6891482 -229465,-6891473 -229490,-6891467 -229527,-6891457 -229540,-6891457 -229588,-6891439 -229601,-6891439 -229640,-6891430 -229647,-6891423 -229660,-6891383 -229665,-6891358 -229686,-6891320 -229691,-6891285 -229691,-6891282 -229687,-6891278 -229692,-6891267 -229697,-6891258 -229704,-6891261 -229711,-6891248 -229712,-6891233 -229712,-6891215 -229706,-6891194 -229699,-6891190 -229690,-6891168 -229691,-6891139 -229685,-6891133 -229676,-6891120 -229675,-6891119 -229675,-6891108 -229674,-6891101 -229668,-6891082 -229666,-6891077 -229660,-6891059 -229659,-6891055 -229658,-6891042 -229665,-6891032 -229665,-6891031 -229648,-6891015 -229641,-6891013 -229623,-6891022 -229624,-6891018 -229628,-6891009 -229665,-6890990 -229670,-6890989 -229672,-6890989 -229678,-6890996 -229683,-6891002 -229704,-6890995 -229719,-6890981 -229741,-6890968 -229747,-6890956 -229756,-6890957 -229764,-6890966 -229766,-6890964 -229782,-6890949 -229783,-6890948 -229771,-6890938 -229770,-6890937 -229771,-6890930 -229782,-6890919 -229794,-6890918 -229797,-6890913 -229795,-6890910 -229787,-6890901 -229789,-6890892 -229801,-6890886 -229806,-6890861 -229808,-6890858 -229808,-6890857 -229808,-6890857 -229812,-6890851 -229817,-6890851 -229819,-6890858 -229830,-6890859 -229840,-6890834 -229861,-6890805 -229888,-6890799 -229896,-6890778 -229875,-6890758 -229904,-6890743 -229926,-6890744 -229926,-6890736 -229938,-6890730 -229953,-6890708 -229951,-6890700 -229963,-6890697 -229963,-6890697 -229966,-6890694 -229970,-6890688 -229973,-6890688 -229979,-6890689 -229983,-6890686 -229987,-6890683 -230018,-6890683 -230032,-6890684 -230039,-6890681 -230051,-6890687 -230059,-6890683 -230072,-6890685 -230075,-6890686 -230080,-6890690 -230089,-6890698 -230104,-6890698 -230110,-6890702 -230116,-6890697 -230129,-6890702 -230163,-6890705 -230174,-6890706 -230173,-6890704 -230165,-6890684 -230151,-6890651 -230124,-6890558 -230108,-6890519 -230108,-6890518 -230132,-6890495 -230145,-6890484 -230178,-6890462 -230207,-6890441 -230238,-6890427 -230291,-6890405 -230293,-6890401 -230302,-6890379 -230301,-6890369 -230289,-6890340 -230288,-6890337 -230275,-6890299 -230271,-6890279 -230266,-6890249 -230264,-6890205 -230269,-6890181 -230289,-6890134 -230293,-6890106 -230301,-6890092 -230326,-6890064 -230351,-6890047 -230376,-6890038 -230393,-6890032 -230398,-6890026 -230404,-6890018 -230404,-6889983 -230400,-6889955 -230394,-6889899 -230397,-6889851 -230411,-6889790 -230429,-6889732 -230430,-6889677 -230445,-6889665 -230454,-6889620 -230452,-6889592 -230449,-6889578 -230462,-6889553 -230445,-6889540 -230416,-6889517 -230427,-6889491 -230437,-6889460 -230445,-6889434 -230424,-6889404 -230389,-6889354 -230359,-6889335 -230316,-6889309 -230264,-6889277 -230199,-6889237 -230081,-6889166 -230100,-6889152 -230111,-6889142 -230114,-6889139 -230109,-6889131 -230101,-6889126 -230098,-6889125 -230084,-6889121 -230051,-6889111 -230025,-6889053 -230020,-6889011 -229939,-6888893 -229799,-6888695 -229844,-6888661 -229900,-6888611 -229902,-6888609 -229933,-6888572 -229953,-6888527 -229962,-6888496 -229973,-6888458 -230087,-6888373 -230095,-6888367 -230163,-6888457 -230164,-6888459 -230166,-6888462 -230216,-6888529 -230228,-6888529 -230230,-6888529 -230232,-6888527 -230235,-6888526 -230237,-6888525 -230241,-6888523 -230276,-6888502 -230279,-6888437 -230267,-6888361 -230266,-6888355 -230276,-6888355 -230290,-6888355 -230312,-6888344 -230364,-6888338 -230363,-6888331 -230359,-6888284 -230349,-6888247 -230331,-6888232 -230334,-6888208 -230335,-6888189 -230269,-6888192 -230265,-6888201 -230235,-6888191 -230211,-6888182 -230229,-6888134 -230236,-6888113 -230321,-6887883 -230330,-6887875 -230333,-6887875 -230352,-6887872 -230357,-6887871 -230376,-6887859 -230390,-6887828 -230410,-6887773 -230414,-6887768 -230464,-6887719 -230481,-6887701 -230490,-6887677 -230498,-6887664 -230517,-6887642 -230528,-6887632 -230547,-6887621 -230566,-6887584 -230574,-6887569 -230574,-6887527 -230581,-6887518 -230603,-6887507 -230609,-6887500 -230612,-6887491 -230608,-6887470 -230600,-6887450 -230594,-6887439 -230590,-6887415 -230593,-6887404 -230612,-6887379 -230630,-6887359 -230643,-6887337 -230654,-6887314 -230663,-6887286 -230675,-6887270 -230696,-6887252 -230708,-6887240 -230726,-6887225 -230738,-6887211 -230745,-6887191 -230754,-6887174 -230758,-6887159 -230762,-6887099 -230785,-6887040 -230792,-6887018 -230786,-6886965 -230789,-6886935 -230796,-6886909 -230812,-6886888 -230818,-6886885 -230841,-6886882 -230854,-6886891 -230882,-6886898 -230908,-6886900 -230934,-6886897 -230952,-6886901 -230965,-6886897 -230968,-6886896 -230992,-6886885 -231045,-6886871 -231065,-6886875 -231114,-6886876 -231142,-6886904 -231158,-6886919 -231160,-6886920 -231183,-6886921 -231184,-6886921 -231197,-6886926 -231223,-6886956 -231231,-6886994 -231241,-6887011 -231260,-6887014 -231267,-6887012 -231286,-6886993 -231305,-6887002 -231314,-6887003 -231322,-6887004 -231339,-6887005 -231373,-6886976 -231408,-6886946 -231424,-6886937 -231432,-6886932 -231435,-6886928 -231445,-6886918 -231446,-6886917 -231448,-6886916 -231444,-6886909 -231430,-6886882 -231428,-6886869 -231431,-6886864 -231439,-6886851 -231455,-6886834 -231479,-6886807 -231483,-6886803 -231489,-6886794 -231512,-6886755 -231537,-6886729 -231556,-6886720 -231562,-6886716 -231569,-6886708 -231575,-6886702 -231585,-6886696 -231600,-6886686 -231659,-6886631 -231704,-6886622 -231744,-6886606 -231745,-6886605 -231764,-6886645 -231879,-6886556 -231936,-6886515 -231988,-6886480 -231994,-6886476 -231994,-6886462 -231992,-6886461 -231962,-6886447 -231942,-6886422 -231948,-6886420 -231973,-6886413 -231975,-6886413 -231976,-6886413 -231999,-6886406 -232033,-6886391 -232052,-6886390 -232070,-6886383 -232097,-6886363 -232134,-6886363 -232152,-6886353 -232181,-6886347 -232203,-6886330 -232212,-6886327 -232241,-6886325 -232265,-6886307 -232266,-6886307 -232292,-6886307 -232365,-6886323 -232377,-6886338 -232382,-6886349 -232420,-6886360 -232456,-6886374 -232459,-6886374 -232482,-6886372 -232492,-6886373 -232509,-6886374 -232539,-6886383 -232550,-6886391 -232563,-6886401 -232582,-6886406 -232620,-6886409 -232629,-6886405 -232649,-6886397 -232773,-6886374 -232805,-6886366 -232914,-6886255 -232918,-6886257 -232924,-6886260 -232936,-6886245 -232959,-6886248 -232968,-6886235 -232974,-6886235 -232980,-6886242 -232981,-6886243 -233007,-6886245 -233015,-6886249 -233017,-6886250 -233041,-6886241 -233049,-6886245 -233069,-6886240 -233088,-6886223 -233130,-6886215 -233152,-6886192 -233154,-6886184 -233156,-6886176 -233162,-6886168 -233176,-6886149 -233181,-6886131 -233194,-6886124 -233196,-6886109 -233197,-6886095 -233210,-6886064 -233226,-6886008 -233241,-6885988 -233253,-6885961 -233265,-6885923 -233267,-6885916 -233266,-6885907 -233264,-6885900 -233255,-6885881 -233254,-6885865 -233250,-6885854 -233245,-6885842 -233245,-6885821 -233253,-6885797 -233256,-6885784 -233254,-6885776 -233242,-6885762 -233239,-6885743 -233246,-6885702 -233252,-6885672 -233259,-6885656 -233266,-6885651 -233277,-6885647 -233291,-6885647 -233323,-6885650 -233359,-6885646 -233381,-6885636 -233387,-6885599 -233388,-6885595 -233392,-6885591 -233400,-6885581 -233401,-6885563 -233402,-6885539 -233440,-6885461 -233434,-6885412 -233427,-6885403 -233426,-6885390 -233424,-6885355 -233418,-6885348 -233423,-6885341 -233424,-6885340 -233427,-6885322 -233442,-6885304 -233449,-6885293 -233447,-6885264 -233445,-6885264 -233417,-6885267 -233404,-6885267 -233366,-6885256 -233298,-6885247 -233273,-6885242 -233192,-6885250 -233127,-6885243 -233120,-6885245 -233087,-6885252 -233062,-6885250 -233003,-6885240 -232847,-6885202 -232807,-6885185 -232789,-6885172 -232775,-6885160 -232758,-6885154 -232730,-6885153 -232695,-6885155 -232673,-6885164 -232664,-6885166 -232653,-6885171 -232612,-6885188 -232593,-6885188 -232586,-6885188 -232575,-6885184 -232566,-6885180 -232546,-6885162 -232527,-6885136 -232505,-6885119 -232415,-6885063 -232370,-6885050 -232305,-6885031 -232287,-6885012 -232258,-6884981 -232247,-6884969 -232241,-6884966 -232233,-6884966 -232203,-6884968 -232187,-6884962 -232184,-6884958 -232180,-6884954 -232177,-6884944 -232177,-6884912 -232172,-6884897 -232163,-6884887 -232158,-6884884 -232146,-6884877 -232115,-6884863 -232100,-6884849 -232097,-6884846 -232090,-6884832 -232087,-6884827 -232087,-6884826 -232082,-6884809 -232074,-6884800 -232072,-6884798 -232060,-6884790 -232048,-6884790 -231981,-6884789 -231942,-6884794 -231925,-6884791 -231918,-6884784 -231899,-6884766 -231866,-6884719 -231855,-6884680 -231828,-6884644 -231804,-6884604 -231790,-6884569 -231750,-6884464 -231741,-6884415 -231735,-6884411 -231730,-6884407 -231719,-6884400 -231709,-6884395 -231631,-6884357 -231630,-6884356 -231612,-6884341 -231603,-6884324 -231598,-6884313 -231589,-6884304 -231586,-6884301 -231570,-6884292 -231565,-6884289 -231498,-6884272 -231491,-6884272 -231474,-6884273 -231472,-6884273 -231458,-6884283 -231438,-6884306 -231396,-6884344 -231390,-6884366 -231379,-6884403 -231368,-6884429 -231355,-6884444 -231336,-6884460 -231314,-6884470 -231293,-6884474 -231170,-6884462 -231160,-6884461 -231112,-6884522 -231111,-6884520 -231078,-6884455 -231073,-6884454 -231045,-6884452 -231005,-6884449 -230995,-6884444 -230986,-6884438 -230975,-6884426 -230945,-6884389 -230914,-6884354 -230905,-6884335 -230902,-6884324 -230891,-6884289 -230885,-6884252 -230879,-6884215 -230877,-6884173 -230880,-6884134 -230880,-6884130 -230887,-6884105 -230894,-6884091 -230890,-6884051 -230887,-6884025 -230872,-6883991 -230866,-6883987 -230856,-6883979 -230838,-6883970 -230834,-6883969 -230821,-6883966 -230810,-6883957 -230780,-6883922 -230755,-6883918 -230733,-6883909 -230704,-6883892 -230691,-6883875 -230677,-6883866 -230673,-6883865 -230663,-6883864 -230639,-6883868 -230588,-6883882 -230582,-6883884 -230518,-6883902 -230491,-6883907 -230452,-6883926 -230437,-6883931 -230396,-6883941 -230368,-6883942 -230324,-6883943 -230310,-6883943 -230298,-6883943 -230264,-6883953 -230241,-6883963 -230224,-6883968 -230211,-6883970 -230170,-6883969 -230111,-6883966 -230100,-6883972 -230093,-6883977 -230068,-6883997 -230055,-6884006 -230044,-6884010 -230026,-6884014 -230016,-6884013 -229994,-6884011 -229973,-6884011 -229953,-6884012 -229930,-6884019 -229917,-6884021 -229905,-6884020 -229882,-6884012 -229863,-6884005 -229849,-6884003 -229829,-6884003 -229819,-6884005 -229801,-6884016 -229781,-6884027 -229764,-6884040 -229755,-6884051 -229739,-6884084 -229728,-6884106 -229711,-6884122 -229701,-6884128 -229694,-6884133 -229686,-6884138 -229671,-6884140 -229670,-6884141 -229646,-6884140 -229620,-6884139 -229586,-6884149 -229565,-6884162 -229559,-6884165 -229530,-6884177 -229527,-6884178 -229505,-6884177 -229495,-6884170 -229482,-6884169 -229474,-6884166 -229468,-6884164 -229434,-6884166 -229415,-6884161 -229407,-6884152 -229402,-6884148 -229392,-6884143 -229384,-6884146 -229380,-6884148 -229367,-6884146 -229352,-6884136 -229339,-6884134 -229326,-6884127 -229322,-6884124 -229295,-6884123 -229275,-6884118 -229264,-6884116 -229251,-6884109 -229235,-6884095 -229233,-6884094 -229224,-6884091 -229208,-6884091 -229197,-6884100 -229179,-6884119 -229178,-6884122 -229174,-6884130 -229163,-6884132 -229141,-6884143 -229130,-6884150 -229124,-6884153 -229098,-6884164 -229081,-6884179 -229073,-6884189 -229058,-6884207 -229049,-6884214 -229032,-6884228 -229024,-6884230 -228996,-6884238 -228978,-6884255 -228960,-6884262 -228951,-6884261 -228946,-6884257 -228923,-6884227 -228915,-6884245 -228907,-6884261 -228814,-6884211 -228812,-6884210 -228784,-6884268 -228781,-6884313 -228770,-6884324 -228771,-6884332 -228742,-6884360 -228739,-6884362 -228719,-6884378 -228680,-6884402 -228660,-6884408 -228653,-6884409 -228625,-6884429 -228594,-6884459 -228576,-6884479 -228541,-6884517 -228527,-6884533 -228442,-6884487 -228324,-6884420 -228306,-6884504 -228292,-6884572 -228267,-6884558 -228264,-6884556 -228230,-6884684 -228224,-6884705 -228204,-6884691 -228197,-6884712 -228162,-6884834 -228161,-6884854 -228138,-6884930 -228082,-6884914 -228078,-6884926 -228063,-6884959 -228026,-6885028 -228020,-6885040 -227984,-6885102 -227960,-6885098 -227939,-6885099 -227926,-6885103 -227919,-6885245 -227917,-6885287 -227912,-6885351 -227912,-6885366 -227910,-6885415 -227904,-6885506 -227900,-6885531 -227891,-6885552 -227883,-6885567 -227874,-6885579 -227866,-6885589 -227847,-6885607 -227836,-6885615 -227823,-6885623 -227799,-6885634 -227779,-6885641 -227766,-6885644 -227749,-6885646 -227741,-6885647 -227708,-6885647 -227688,-6885648 -227671,-6885650 -227657,-6885653 -227640,-6885663 -227617,-6885682 -227545,-6885775 -227491,-6885836 -227438,-6885907 -227409,-6885952 -227362,-6886021 -227318,-6886136 -227286,-6886208 -227282,-6886205 -227251,-6886179 -227206,-6886142 -227086,-6886175 -226914,-6886219 -226837,-6886237 -226809,-6886240 -226790,-6886267 -226780,-6886278 -226760,-6886288 -226707,-6886311 -226625,-6886353 -226524,-6886418 -226489,-6886444 -226360,-6886568 -226164,-6886777 -226122,-6886825 -226054,-6886806 -225982,-6886798 -225901,-6886856 -225808,-6886926 -225723,-6886982 -225520,-6887125 -225336,-6887256 -225314,-6887272 -225250,-6887317 -225226,-6887346 -225221,-6887360 -225188,-6887444 -225188,-6887445 -225182,-6887460 -225171,-6887486 -225139,-6887371 -225105,-6887360 -225064,-6887186 -225040,-6887091 -225013,-6886976 -224974,-6886867 -224938,-6886807 -224906,-6886741 -224887,-6886699 -224868,-6886644 -224808,-6886549 -224760,-6886470 -224710,-6886388 -224695,-6886367 -224694,-6886366 -224671,-6886338 -224651,-6886305 -224566,-6886179 -224528,-6886125 -224471,-6886052 -224414,-6885978 -224372,-6885911 -224334,-6885842 -224298,-6885768 -224261,-6885670 -224239,-6885603 -224215,-6885485 -224205,-6885417 -224189,-6885313 -224183,-6885259 -224181,-6885235 -224174,-6885175 -224163,-6885079 -224142,-6884970 -224131,-6884906 -224113,-6884771 -224097,-6884661 -224087,-6884593 -224085,-6884503 -224081,-6884418 -224074,-6884304 -224073,-6884188 -224083,-6884167 -224086,-6884148 -224087,-6884146 -224106,-6884148 -224113,-6884148 -224113,-6884130 -224113,-6884122 -224114,-6884019 -224112,-6883922 -224108,-6883867 -224095,-6883782 -224067,-6883770 -224058,-6883669 -224024,-6883542 -224003,-6883450 -223993,-6883414 -223989,-6883397 -223974,-6883337 -223947,-6883223 -223937,-6883134 -223928,-6883071 -223921,-6882990 -223919,-6882883 -223927,-6882781 -223928,-6882712 -223948,-6882557 -223965,-6882428 -223988,-6882304 -224011,-6882200 -224037,-6882124 -224066,-6882050 -224080,-6882013 -224090,-6881972 -224116,-6881912 -224134,-6881860 -224143,-6881841 -224141,-6881824 -224116,-6881788 -224134,-6881774 -224126,-6881745 -224121,-6881727 -224121,-6881698 -224124,-6881678 -224145,-6881637 -224112,-6881603 -224125,-6881586 -224164,-6881548 -224187,-6881530 -224223,-6881515 -224266,-6881506 -224298,-6881495 -224338,-6881476 -224356,-6881454 -224374,-6881424 -224398,-6881384 -224462,-6881333 -224477,-6881306 -224481,-6881273 -224468,-6881249 -224488,-6881172 -224494,-6881126 -224507,-6881056 -224520,-6880992 -224538,-6880832 -224555,-6880759 -224563,-6880727 -224571,-6880695 -224579,-6880672 -224578,-6880656 -224570,-6880500 -224568,-6880422 -224562,-6880314 -224552,-6880292 -224537,-6880228 -224531,-6880200 -224545,-6880122 -224545,-6880052 -224549,-6879956 -224529,-6879933 -224545,-6879835 -224553,-6879735 -224545,-6879711 -224540,-6879683 -224535,-6879660 -224535,-6879516 -224540,-6879486 -224550,-6879431 -224556,-6879400 -224558,-6879345 -224547,-6879279 -224535,-6879193 -224533,-6879142 -224535,-6879071 -224537,-6878980 -224544,-6878908 -224547,-6878855 -224546,-6878833 -224543,-6878816 -224541,-6878793 -224530,-6878741 -224594,-6878783 -224661,-6878817 -224720,-6878854 -224747,-6878841 -224823,-6878873 -224836,-6878878 -224843,-6878879 -224849,-6878878 -224861,-6878872 -224864,-6878871 -224869,-6878871 -224873,-6878872 -224879,-6878876 -224884,-6878881 -224887,-6878887 -224889,-6878893 -224888,-6878900 -224886,-6878907 -224881,-6878915 -224927,-6878904 -224960,-6878918 -224997,-6878930 -225012,-6878937 -225047,-6878956 -225098,-6878988 -225137,-6879007 -225143,-6879049 -225259,-6879102 -225295,-6879076 -225330,-6879107 -225355,-6879137 -225395,-6879142 -225389,-6879094 -225415,-6879070 -225409,-6879041 -225393,-6879000 -225408,-6878989 -225380,-6878977 -225390,-6878948 -225377,-6878928 -225363,-6878931 -225321,-6878907 -225312,-6878898 -225281,-6878859 -225275,-6878845 -225267,-6878818 -225265,-6878803 -225264,-6878786 -225264,-6878769 -225266,-6878754 -225270,-6878740 -225275,-6878727 -225281,-6878717 -225287,-6878706 -225299,-6878692 -225313,-6878681 -225329,-6878674 -225347,-6878668 -225377,-6878661 -225404,-6878655 -225420,-6878653 -225446,-6878650 -225537,-6878633 -225529,-6878452 -225527,-6878429 -225527,-6878415 -225529,-6878400 -225538,-6878366 -225549,-6878291 -225554,-6878280 -225559,-6878272 -225598,-6878214 -225614,-6878195 -225626,-6878184 -225640,-6878173 -225661,-6878158 -225733,-6878111 -225745,-6878107 -225764,-6878110 -225767,-6878110 -225772,-6878109 -225788,-6878098 -225792,-6878097 -225803,-6878097 -225821,-6878100 -225829,-6878100 -225841,-6878098 -225854,-6878095 -225868,-6878091 -225884,-6878086 -225903,-6878076 -225863,-6878044 -225863,-6878041 -225869,-6878007 -225890,-6878015 -225909,-6877964 -225919,-6877902 -225945,-6877790 -225945,-6877758 -225970,-6877739 -226025,-6877743 -226145,-6877765 -226242,-6877778 -226449,-6877795 -226520,-6877802 -226602,-6877799 -226634,-6877807 -226656,-6877810 -226675,-6877812 -226690,-6877812 -226708,-6877811 -226730,-6877808 -226756,-6877803 -226783,-6877831 -226751,-6877893 -226810,-6877893 -226821,-6877893 -226838,-6877923 -226847,-6877939 -226842,-6877962 -226842,-6877971 -226843,-6877981 -226848,-6878000 -226868,-6877994 -226881,-6878032 -226862,-6878043 -226857,-6878047 -226853,-6878063 -226851,-6878078 -226851,-6878086 -226859,-6878090 -226872,-6878085 -226877,-6878084 -226879,-6878092 -226879,-6878102 -226875,-6878114 -226866,-6878122 -226858,-6878125 -226849,-6878128 -226840,-6878128 -226816,-6878125 -226810,-6878162 -226795,-6878196 -226812,-6878200 -226831,-6878201 -226841,-6878243 -226856,-6878257 -226854,-6878265 -226842,-6878273 -226835,-6878273 -226814,-6878273 -226807,-6878284 -226806,-6878286 -226822,-6878306 -226820,-6878332 -226799,-6878352 -226778,-6878327 -226753,-6878351 -226757,-6878356 -226774,-6878373 -226796,-6878388 -226803,-6878395 -226810,-6878403 -226812,-6878407 -226801,-6878424 -226754,-6878421 -226748,-6878421 -226744,-6878422 -226743,-6878432 -226752,-6878440 -226763,-6878442 -226774,-6878446 -226765,-6878462 -226777,-6878464 -226785,-6878475 -226784,-6878486 -226780,-6878497 -226767,-6878501 -226764,-6878503 -226773,-6878518 -226777,-6878523 -226788,-6878530 -226790,-6878531 -226814,-6878533 -226831,-6878536 -226832,-6878546 -226807,-6878562 -226806,-6878564 -226806,-6878576 -226809,-6878593 -226836,-6878616 -226840,-6878639 -226838,-6878646 -226826,-6878672 -226816,-6878700 -226826,-6878709 -226839,-6878713 -226846,-6878711 -226868,-6878701 -226873,-6878699 -226884,-6878702 -226886,-6878707 -226887,-6878712 -226885,-6878724 -226862,-6878746 -226829,-6878792 -226823,-6878812 -226842,-6878818 -226860,-6878833 -226867,-6878842 -226875,-6878852 -226883,-6878881 -226867,-6878885 -226882,-6878906 -226912,-6878921 -226918,-6878932 -226915,-6878952 -226883,-6878993 -226909,-6879020 -226927,-6879043 -226927,-6879062 -226918,-6879070 -226919,-6879096 -226936,-6879111 -226951,-6879127 -226957,-6879157 -226961,-6879222 -226970,-6879255 -226974,-6879272 -226976,-6879289 -226977,-6879320 -226981,-6879338 -226988,-6879356 -226994,-6879364 -227000,-6879372 -227013,-6879379 -227016,-6879422 -227037,-6879472 -227065,-6879542 -227038,-6879556 -227047,-6879620 -227074,-6879631 -227070,-6879655 -227051,-6879662 -227039,-6879669 -227030,-6879682 -227037,-6879692 -227043,-6879708 -227038,-6879716 -227026,-6879725 -227013,-6879723 -227002,-6879727 -226998,-6879738 -226990,-6879748 -226981,-6879749 -226974,-6879745 -226966,-6879744 -226965,-6879754 -226959,-6879773 -226944,-6879789 -226933,-6879796 -226923,-6879806 -226928,-6879832 -226924,-6879850 -226939,-6879891 -226918,-6879910 -226885,-6879954 -226821,-6879958 -226812,-6879987 -226793,-6880015 -226772,-6880048 -226779,-6880064 -226787,-6880101 -226789,-6880122 -226788,-6880133 -226785,-6880157 -226769,-6880201 -226769,-6880209 -226771,-6880215 -226774,-6880221 -226779,-6880227 -226785,-6880234 -226795,-6880240 -226813,-6880246 -226817,-6880249 -226819,-6880253 -226821,-6880258 -226821,-6880264 -226819,-6880274 -226817,-6880279 -226814,-6880284 -226809,-6880289 -226816,-6880303 -226829,-6880304 -226839,-6880307 -226843,-6880310 -226847,-6880315 -226852,-6880321 -226856,-6880332 -226858,-6880343 -226858,-6880349 -226855,-6880361 -227062,-6880333 -227060,-6880304 -227052,-6880234 -227074,-6880208 -227089,-6880238 -227101,-6880261 -227119,-6880289 -227135,-6880311 -227273,-6880268 -227337,-6880245 -227379,-6880223 -227390,-6880240 -227473,-6880219 -227523,-6880208 -227598,-6880201 -227596,-6880177 -227602,-6880128 -227612,-6880090 -227739,-6880081 -227802,-6880069 -227881,-6880151 -228111,-6880018 -228173,-6880052 -228260,-6880104 -228287,-6880142 -228325,-6880166 -228344,-6880195 -228370,-6880228 -228407,-6880209 -228445,-6880174 -228503,-6880183 -228532,-6880187 -228562,-6880189 -228592,-6880189 -228605,-6880190 -228613,-6880192 -228629,-6880196 -228638,-6880206 -228627,-6880225 -228636,-6880244 -228654,-6880245 -228691,-6880237 -228705,-6880246 -228725,-6880265 -228758,-6880263 -228765,-6880282 -228812,-6880304 -228833,-6880318 -228840,-6880317 -228848,-6880315 -228872,-6880303 -228894,-6880281 -228916,-6880267 -228936,-6880262 -228955,-6880263 -228983,-6880246 -229000,-6880252 -229027,-6880258 -229076,-6880239 -229106,-6880229 -229150,-6880217 -229146,-6880184 -229148,-6880181 -229162,-6880163 -229172,-6880156 -229182,-6880148 -229202,-6880136 -229207,-6880112 -229217,-6880088 -229236,-6880074 -229250,-6880045 -229271,-6879991 -229265,-6879974 -229277,-6879962 -229274,-6879946 -229258,-6879930 -229245,-6879908 -229240,-6879897 -229234,-6879878 -229232,-6879870 -229233,-6879852 -229238,-6879829 -229245,-6879809 -229257,-6879736 -229254,-6879718 -229256,-6879693 -229248,-6879657 -229248,-6879646 -229253,-6879643 -229269,-6879635 -229264,-6879621 -229259,-6879609 -229257,-6879603 -229256,-6879596 -229257,-6879577 -229264,-6879562 -229276,-6879553 -229280,-6879548 -229293,-6879525 -229305,-6879489 -229307,-6879482 -229307,-6879455 -229315,-6879447 -229332,-6879444 -229341,-6879419 -229311,-6879401 -229302,-6879395 -229286,-6879410 -229258,-6879392 -229259,-6879368 -229269,-6879359 -229266,-6879341 -229247,-6879338 -229220,-6879322 -229219,-6879287 -229221,-6879267 -229236,-6879265 -229241,-6879258 -229244,-6879251 -229241,-6879236 -229230,-6879215 -229226,-6879208 -229208,-6879198 -229195,-6879194 -229177,-6879175 -229173,-6879169 -229179,-6879154 -229197,-6879160 -229193,-6879134 -229180,-6879127 -229169,-6879124 -229178,-6879103 -229179,-6879090 -229173,-6879078 -229168,-6879064 -229183,-6879068 -229193,-6879059 -229199,-6879044 -229200,-6879023 -229187,-6879030 -229175,-6879034 -229165,-6879028 -229160,-6879019 -229161,-6879013 -229162,-6879007 -229175,-6879001 -229195,-6879000 -229201,-6878999 -229198,-6878985 -229196,-6878977 -229193,-6878969 -229183,-6878952 -229167,-6878912 -229167,-6878904 -229170,-6878887 -229175,-6878872 -229177,-6878865 -229188,-6878852 -229194,-6878847 -229199,-6878841 -229202,-6878835 -229203,-6878830 -229201,-6878822 -229193,-6878804 -229190,-6878796 -229191,-6878778 -229193,-6878771 -229195,-6878764 -229199,-6878758 -229204,-6878753 -229218,-6878745 -229221,-6878741 -229223,-6878736 -229224,-6878730 -229222,-6878720 -229220,-6878715 -229217,-6878709 -229205,-6878700 -229203,-6878698 -229202,-6878695 -229202,-6878685 -229204,-6878681 -229206,-6878679 -229209,-6878677 -229214,-6878676 -229218,-6878676 -229223,-6878678 -229209,-6878650 -229218,-6878630 -229212,-6878587 -229210,-6878540 -229216,-6878521 -229204,-6878436 -229200,-6878396 -229204,-6878370 -229217,-6878341 -229220,-6878332 -229222,-6878323 -229224,-6878295 -229238,-6878279 -229249,-6878259 -229248,-6878239 -229247,-6878184 -229255,-6878126 -229263,-6878109 -229260,-6878084 -229260,-6878068 -229261,-6878055 -229264,-6878042 -229280,-6878000 -229288,-6877983 -229299,-6877971 -229319,-6877953 -229360,-6877908 -229371,-6877878 -229377,-6877842 -229397,-6877801 -229405,-6877810 -229415,-6877815 -229427,-6877818 -229440,-6877819 -229453,-6877816 -229460,-6877813 -229483,-6877798 -229495,-6877791 -229503,-6877788 -229511,-6877788 -229521,-6877790 -229532,-6877793 -229559,-6877803 -229566,-6877804 -229573,-6877805 -229587,-6877802 -229593,-6877800 -229602,-6877795 -229592,-6877782 -229860,-6877871 -229861,-6877888 -229918,-6877904 -229927,-6877905 -229937,-6877905 -229947,-6877905 -229962,-6877902 -229966,-6877943 -229955,-6877973 -229971,-6878033 -229989,-6878044 -230013,-6878069 -230058,-6878108 -230062,-6878119 -230066,-6878137 -230066,-6878146 -230066,-6878154 -230059,-6878172 -230059,-6878178 -230065,-6878194 -230065,-6878199 -230064,-6878204 -230062,-6878208 -230056,-6878214 -230031,-6878228 -230008,-6878239 -229998,-6878245 -229986,-6878253 -229971,-6878266 -229954,-6878283 -229937,-6878302 -229913,-6878331 -229905,-6878315 -229863,-6878330 -229812,-6878346 -229795,-6878365 -229743,-6878379 -229706,-6878462 -229692,-6878495 -229686,-6878507 -229666,-6878539 -229650,-6878570 -229644,-6878582 -229637,-6878607 -229633,-6878614 -229626,-6878622 -229609,-6878636 -229598,-6878650 -229592,-6878659 -229587,-6878669 -229583,-6878680 -229580,-6878692 -229579,-6878699 -229627,-6878702 -229688,-6878704 -229724,-6878706 -229827,-6878717 -229885,-6878720 -229903,-6878723 -229910,-6878723 -229917,-6878723 -229933,-6878721 -229945,-6878719 -229968,-6878710 -229990,-6878706 -229999,-6878705 -230042,-6878703 -230054,-6878704 -230063,-6878706 -230085,-6878715 -230096,-6878718 -230158,-6878718 -230168,-6878740 -230190,-6878756 -230209,-6878792 -230199,-6878818 -230210,-6878964 -230197,-6878975 -230191,-6878984 -230186,-6878993 -230184,-6879003 -230183,-6879019 -230190,-6879037 -230191,-6879040 -230190,-6879044 -230188,-6879050 -230181,-6879059 -230168,-6879076 -230173,-6879089 -230169,-6879099 -230167,-6879113 -230167,-6879121 -230170,-6879133 -230189,-6879172 -230197,-6879184 -230210,-6879197 -230214,-6879200 -230224,-6879199 -230233,-6879198 -230241,-6879193 -230239,-6879184 -230237,-6879181 -230227,-6879170 -230222,-6879161 -230223,-6879151 -230234,-6879153 -230240,-6879166 -230254,-6879154 -230263,-6879120 -230274,-6879098 -230273,-6879084 -230275,-6879067 -230288,-6879063 -230295,-6879086 -230345,-6879070 -230354,-6879051 -230366,-6879061 -230405,-6879042 -230392,-6879021 -230405,-6879001 -230414,-6879014 -230434,-6878995 -230448,-6878979 -230457,-6878971 -230465,-6878967 -230479,-6878962 -230493,-6878959 -230512,-6878958 -230528,-6878944 -230539,-6878927 -230550,-6878926 -230558,-6878959 -230579,-6878950 -230598,-6878966 -230610,-6878948 -230626,-6878964 -230640,-6878955 -230649,-6878951 -230658,-6878948 -230667,-6878946 -230676,-6878947 -230695,-6878954 -230703,-6878955 -230708,-6878953 -230711,-6878950 -230714,-6878947 -230724,-6878932 -230727,-6878929 -230730,-6878928 -230733,-6878928 -230736,-6878929 -230739,-6878931 -230747,-6878942 -230749,-6878945 -230756,-6878947 -230776,-6878948 -230787,-6878946 -230796,-6878942 -230805,-6878936 -230813,-6878928 -230819,-6878919 -230831,-6878896 -230837,-6878887 -230855,-6878872 -230854,-6878851 -230877,-6878847 -230894,-6878819 -230889,-6878799 -230902,-6878770 -230915,-6878764 -230910,-6878743 -230958,-6878745 -230968,-6878838 -230969,-6878873 -230977,-6878957 -230966,-6878981 -230984,-6878985 -231047,-6878977 -231073,-6878976 -231090,-6878976 -231112,-6878977 -231153,-6878985 -231167,-6878987 -231176,-6878987 -231202,-6878984 -231243,-6878976 -231314,-6878970 -231323,-6878897 -231325,-6878882 -231330,-6878863 -231338,-6878838 -231342,-6878825 -231351,-6878807 -231356,-6878800 -231363,-6878793 -231380,-6878779 -231415,-6878753 -231421,-6878747 -231438,-6878729 -231443,-6878725 -231452,-6878720 -231476,-6878712 -231490,-6878704 -231515,-6878683 -231532,-6878666 -231552,-6878669 -231569,-6878670 -231596,-6878667 -231616,-6878662 -231640,-6878652 -231658,-6878641 -231706,-6878612 -231744,-6878591 -231778,-6878567 -231813,-6878627 -231841,-6878683 -231924,-6878630 -231948,-6878639 -231963,-6878643 -231977,-6878645 -231994,-6878647 -232017,-6878647 -232044,-6878641 -232058,-6878643 -232066,-6878645 -232074,-6878648 -232081,-6878652 -232087,-6878658 -232093,-6878666 -232097,-6878674 -232100,-6878683 -232101,-6878696 -232157,-6878740 -232218,-6878785 -232157,-6878871 -232205,-6878906 -232235,-6878917 -232262,-6878920 -232275,-6879040 -232301,-6879055 -232306,-6879083 -232319,-6879099 -232321,-6879100 -232380,-6879084 -232375,-6879135 -232367,-6879163 -232381,-6879209 -232384,-6879238 -232390,-6879278 -232394,-6879321 -232390,-6879339 -232372,-6879408 -232355,-6879453 -232348,-6879481 -232348,-6879495 -232351,-6879512 -232360,-6879540 -232376,-6879572 -232379,-6879581 -232382,-6879595 -232393,-6879658 -232398,-6879681 -232403,-6879694 -232413,-6879707 -232414,-6879711 -232415,-6879715 -232415,-6879719 -232414,-6879722 -232404,-6879737 -232403,-6879744 -232403,-6879750 -232406,-6879763 -232411,-6879778 -232416,-6879789 -232421,-6879799 -232433,-6879815 -232454,-6879863 -232500,-6879983 -232499,-6880004 -232500,-6880023 -232502,-6880041 -232508,-6880072 -232512,-6880088 -232516,-6880100 -232522,-6880112 -232535,-6880135 -232542,-6880145 -232570,-6880179 -232597,-6880213 -232601,-6880217 -232610,-6880222 -232615,-6880222 -232634,-6880222 -232641,-6880223 -232651,-6880225 -232656,-6880227 -232659,-6880231 -232662,-6880235 -232663,-6880251 -232665,-6880254 -232668,-6880257 -232672,-6880259 -232705,-6880269 -232710,-6880274 -232713,-6880283 -232713,-6880290 -232712,-6880292 -232703,-6880303 -232701,-6880308 -232702,-6880315 -232703,-6880319 -232710,-6880332 -232715,-6880336 -232733,-6880348 -232735,-6880351 -232738,-6880354 -232742,-6880363 -232745,-6880373 -232750,-6880405 -232750,-6880421 -232729,-6880438 -232745,-6880465 -232742,-6880489 -232741,-6880492 -232705,-6880498 -232714,-6880537 -232687,-6880559 -232705,-6880574 -232719,-6880581 -232734,-6880589 -232750,-6880595 -232778,-6880604 -232811,-6880610 -232832,-6880616 -232896,-6880639 -232913,-6880646 -232928,-6880654 -232950,-6880667 -232971,-6880681 -233011,-6880710 -233032,-6880721 -233067,-6880734 -233084,-6880743 -233093,-6880748 -233118,-6880765 -233132,-6880809 -233130,-6880812 -233114,-6880832 -233094,-6880835 -233080,-6880856 -233013,-6880937 -232977,-6880997 -233022,-6881042 -233048,-6881030 -233070,-6881021 -233084,-6881017 -233136,-6881005 -233181,-6880991 -233207,-6880984 -233230,-6880980 -233250,-6880977 -233289,-6880975 -233308,-6880977 -233316,-6880978 -233330,-6880985 -233349,-6880996 -233368,-6881003 -233399,-6881008 -233433,-6881011 -233451,-6881010 -233479,-6881004 -233497,-6881020 -233530,-6881020 -233611,-6881042 -233623,-6881018 -233647,-6881013 -233682,-6881004 -233745,-6880984 -233776,-6880982 -233784,-6880973 -233802,-6880950 -233828,-6880910 -233842,-6880890 -233845,-6880870 -233872,-6880869 -233902,-6880853 -233918,-6880846 -233975,-6880826 -233990,-6880819 -233992,-6880806 -234020,-6880800 -234059,-6880796 -234099,-6880796 -234120,-6880798 -234167,-6880805 -234224,-6880808 -234239,-6880811 -234244,-6880812 -234284,-6880824 -234330,-6880834 -234355,-6880845 -234394,-6880786 -234402,-6880771 -234429,-6880710 -234442,-6880679 -234454,-6880639 -234464,-6880618 -234491,-6880577 -234543,-6880493 -234552,-6880480 -234559,-6880472 -234568,-6880463 -234578,-6880455 -234609,-6880438 -234625,-6880427 -234646,-6880411 -234671,-6880388 -234730,-6880327 -234740,-6880313 -234748,-6880300 -234763,-6880276 -234791,-6880238 -234812,-6880199 -234830,-6880176 -234833,-6880171 -234835,-6880162 -234837,-6880134 -234841,-6880115 -234857,-6880062 -234871,-6880021 -234878,-6880009 -234896,-6879986 -234908,-6879967 -234930,-6879914 -234939,-6879892 -234962,-6879851 -234968,-6879838 -234972,-6879826 -234978,-6879805 -234981,-6879799 -234989,-6879785 -235010,-6879759 -235024,-6879736 -235038,-6879707 -235053,-6879662 -235061,-6879646 -235077,-6879619 -235062,-6879607 -235079,-6879580 -235135,-6879617 -235158,-6879632 -235163,-6879621 -235171,-6879606 -235188,-6879617 -235192,-6879616 -235199,-6879611 -235206,-6879605 -235211,-6879600 -235215,-6879593 -235219,-6879585 -235222,-6879576 -235224,-6879562 -235256,-6879500 -235320,-6879400 -235325,-6879391 -235400,-6879285 -235418,-6879267 -235493,-6879201 -235599,-6879116 -235606,-6879113 -235626,-6879106 -235654,-6879067 -235669,-6879062 -235677,-6879058 -235685,-6879053 -235690,-6879047 -235698,-6879036 -235703,-6879023 -235712,-6879001 -235721,-6878971 -235806,-6878991 -235816,-6879033 -235885,-6879070 -235959,-6879113 -235979,-6879092 -235994,-6879080 -236006,-6879071 -236020,-6879064 -236064,-6879043 -236145,-6879002 -236177,-6878974 -236184,-6878970 -236212,-6878959 -236224,-6878952 -236240,-6878942 -236252,-6878933 -236261,-6878925 -236278,-6878904 -236291,-6878892 -236301,-6878885 -236318,-6878876 -236327,-6878872 -236335,-6878869 -236384,-6878862 -236430,-6878853 -236446,-6878855 -236457,-6878857 -236471,-6878863 -236610,-6878813 -236697,-6878790 -236861,-6878745 -236861,-6878710 -236863,-6878682 -236928,-6878670 -237076,-6878655 -237057,-6878592 -237032,-6878521 -237001,-6878419 -237082,-6878384 -237053,-6878311 -237029,-6878233 -237161,-6878184 -237191,-6878204 -237229,-6878218 -237290,-6878230 -237363,-6878238 -237363,-6878236 -237366,-6878208 -237371,-6878184 -237375,-6878164 -237386,-6878129 -237391,-6878116 -237395,-6878107 -237414,-6878076 -237421,-6878060 -237428,-6878041 -237432,-6878022 -237436,-6878001 -237438,-6877990 -237443,-6877937 -237453,-6877874 -237454,-6877842 -237454,-6877816 -237500,-6877825 -237522,-6877826 -237536,-6877828 -237548,-6877831 -237555,-6877833 -237560,-6877836 -237585,-6877853 -237590,-6877856 -237598,-6877858 -237615,-6877859 -237621,-6877861 -237625,-6877863 -237629,-6877866 -237643,-6877883 -237647,-6877887 -237652,-6877890 -237665,-6877892 -237689,-6877891 -237697,-6877892 -237711,-6877898 -237716,-6877898 -237720,-6877897 -237727,-6877890 -237739,-6877867 -237739,-6877866 -237741,-6877859 -237743,-6877846 -237747,-6877799 -237766,-6877690 -237774,-6877638 -237781,-6877570 -238013,-6877531 -238051,-6877554 -238124,-6877550 -238150,-6877551 -238227,-6877558 -238273,-6877557 -238342,-6877540 -238372,-6877538 -238402,-6877536 -238437,-6877536 -238473,-6877537 -238536,-6877540 -238586,-6877540 -238618,-6877532 -238621,-6877531 -238622,-6877531 -238630,-6877529 -238652,-6877524 -238662,-6877523 -238673,-6877524 -238698,-6877528 -238792,-6877555 -238872,-6877569 -238929,-6877580 -238958,-6877589 -239009,-6877608 -239066,-6877638 -239082,-6877645 -239168,-6877670 -239534,-6877806 -239920,-6877938 -240077,-6877980 -240226,-6878027 -240310,-6878053 -240305,-6878070 -240703,-6878194 -240854,-6878245 -240990,-6878288 -240994,-6878345 -241026,-6878429 -241060,-6878485 -241088,-6878564 -241117,-6878637 -241159,-6878735 -241187,-6878825 -241215,-6878910 -241234,-6878955 -241246,-6878972 -241271,-6879063 -241317,-6879205 -241332,-6879212 -241354,-6879229 -241358,-6879295 -241369,-6879325 -241380,-6879355 -241422,-6879457 -241457,-6879559 -241482,-6879624 -241502,-6879669 -241509,-6879687 -241545,-6879787 -241598,-6879908 -241622,-6879985 -241649,-6880055 -241671,-6880125 -241672,-6880132 -241674,-6880199 -241703,-6880338 -241762,-6880378 -241779,-6880472 -241807,-6880587 -241823,-6880692 -241849,-6880822 -241889,-6880996 -241907,-6881095 -241983,-6881444 -242017,-6881686 -242048,-6881800 -242088,-6882049 -242126,-6882242 -242131,-6882268 -242146,-6882359 -242161,-6882453 -242201,-6882531 -242233,-6882603 -242260,-6882670 -242269,-6882703 -242278,-6882735 -242283,-6882770 -242284,-6882784 -242285,-6882820 -242277,-6882925 -242270,-6882995 -242266,-6883009 -242247,-6883069 -242227,-6883157 -242200,-6883245 -242187,-6883299 -242126,-6883428 -242111,-6883470 -242093,-6883543 -242090,-6883553 -242013,-6883836 -242005,-6883876 -241996,-6883938 -241993,-6883971 -241993,-6883982 -241995,-6883999 -242001,-6884035 -242002,-6884051 -242002,-6884115 -242002,-6884118 -242010,-6884221 -242017,-6884247 -242037,-6884427 -242016,-6884454 -241919,-6884582 -241818,-6884720 -241808,-6884734 -241788,-6884755 -241736,-6884808 -241720,-6884879 -241678,-6885003 -241664,-6885042 -241616,-6885153 -241571,-6885251 -241534,-6885315 -241497,-6885383 -241507,-6885391 -241492,-6885435 -241481,-6885428 -241452,-6885478 -241414,-6885540 -241349,-6885636 -241294,-6885742 -241288,-6885767 -241286,-6885779 -241276,-6885839 -241293,-6885836 -241321,-6885834 -241329,-6885834 -241337,-6885836 -241343,-6885838 -241349,-6885842 -241358,-6885850 -241365,-6885861 -241368,-6885872 -241369,-6885898 -241370,-6885904 -241372,-6885912 -241380,-6885928 -241395,-6885949 -241401,-6885955 -241406,-6885959 -241411,-6885961 -241414,-6885961 -241421,-6885960 -241437,-6885951 -241441,-6885950 -241445,-6885951 -241449,-6885953 -241451,-6885957 -241452,-6885961 -241452,-6885976 -241452,-6885980 -241455,-6885986 -241459,-6885991 -241462,-6885994 -241469,-6885997 -241478,-6885999 -241488,-6886000 -241531,-6885999 -241618,-6886008 -241701,-6886022 -241742,-6886022 -241757,-6886025 -241764,-6886030 -241772,-6886037 -241779,-6886045 -241807,-6886085 -241911,-6886223 -241940,-6886283 -241946,-6886294 -241963,-6886307 -241982,-6886330 -241991,-6886347 -241998,-6886365 -242000,-6886376 -242002,-6886397 -242047,-6886479 -242088,-6886544 -242128,-6886616 -242198,-6886767 -242236,-6886839 -242270,-6886895 -242283,-6886941 -242295,-6886965 -242308,-6886988 -242337,-6887032 -242369,-6887088 -242359,-6887096 -242374,-6887114 -242383,-6887127 -242392,-6887142 -242399,-6887157 -242414,-6887210 -242439,-6887269 -242442,-6887278 -242448,-6887302 -242465,-6887414 -242469,-6887443 -242479,-6887540 -242482,-6887564 -242489,-6887619 -242509,-6887744 -242515,-6887790 -242515,-6887811 -242514,-6887824 -242510,-6887856 -242507,-6887878 -242503,-6887906 -242453,-6888123 -242417,-6888295 -242412,-6888320 -242440,-6888415 -242469,-6888510 -242532,-6888701 -242586,-6888872 -242622,-6888993 -242653,-6889077 -242700,-6889193 -242748,-6889326 -242791,-6889432 -242842,-6889562 -242926,-6889789 -243151,-6889739 -243252,-6890093 -243608,-6890020 -243640,-6890037 -243585,-6890175 -243503,-6890352 -243434,-6890501 -243389,-6890603 -243363,-6890657 -243339,-6890708 -243291,-6890815 -243216,-6890978 -243189,-6891042 -243209,-6891105 -243292,-6891158 -243383,-6891209 -243433,-6891238 -243477,-6891266 -243562,-6891364 -243606,-6891394 -243706,-6891459 -243829,-6891548 -243926,-6891607 -243934,-6891612 -243984,-6891662 -244005,-6891673 -243910,-6891754 -243725,-6891912 -243413,-6891917 -243459,-6892001 -243484,-6892095 -243531,-6892153 -243567,-6892351 -243467,-6892414 -243498,-6892460 -243565,-6892571 -243530,-6892577 -243521,-6892603 -243422,-6892620 -243387,-6892628 -243354,-6892640 -243327,-6892651 -243305,-6892601 -243259,-6892636 -243205,-6892665 -243106,-6892731 -243074,-6892752 -243037,-6892766 -243007,-6892781 -242995,-6892794 -242987,-6892801 -242978,-6892807 -242968,-6892813 -242955,-6892819 -242941,-6892822 -242923,-6892825 -242883,-6892843 -242882,-6892863 -242837,-6892867 -242820,-6892885 -242759,-6892920 -242733,-6892916 -242694,-6892944 -242699,-6892954 -242703,-6892964 -242705,-6892970 -242707,-6892983 -242709,-6892995 -242709,-6892999 -242707,-6893005 -242704,-6893008 -242698,-6893010 -242687,-6893008 -242684,-6893008 -242678,-6893010 -242671,-6893014 -242665,-6893017 -242662,-6893022 -242658,-6893028 -242649,-6893052 -242646,-6893056 -242638,-6893065 -242609,-6893087 -242576,-6893115 -242568,-6893121 -242552,-6893132 -242525,-6893148 -242480,-6893172 -242459,-6893180 -242419,-6893190 -242402,-6893195 -242362,-6893211 -242335,-6893220 -242284,-6893230 -242233,-6893248 -242188,-6893255 -242148,-6893263 -242128,-6893266 -242098,-6893268 -242008,-6893308 -241988,-6893294 -241966,-6893321 -241944,-6893342 -241938,-6893347 -241904,-6893368 -241886,-6893383 -241875,-6893389 -241868,-6893391 -241862,-6893391 -241841,-6893382 -241829,-6893380 -241818,-6893378 -241811,-6893379 -241805,-6893380 -241798,-6893382 -241792,-6893386 -241781,-6893400 -241774,-6893407 -241761,-6893416 -241739,-6893417 -241709,-6893417 -241682,-6893418 -241635,-6893448 -241626,-6893455 -241605,-6893475 -241592,-6893474 -241592,-6893462 -241589,-6893454 -241585,-6893447 -241579,-6893442 -241574,-6893439 -241568,-6893437 -241561,-6893436 -241554,-6893437 -241548,-6893439 -241541,-6893442 -241533,-6893449 -241483,-6893455 -241433,-6893456 -241436,-6893470 -241428,-6893492 -241383,-6893513 -241373,-6893505 -241363,-6893499 -241351,-6893493 -241329,-6893488 -241298,-6893485 -241286,-6893485 -241256,-6893488 -241246,-6893491 -241223,-6893501 -241191,-6893518 -241111,-6893575 -241098,-6893588 -241090,-6893599 -241078,-6893620 -241019,-6893639 -241022,-6893677 -241007,-6893692 -240990,-6893702 -240966,-6893719 -240827,-6893732 -240808,-6893723 -240797,-6893708 -240786,-6893687 -240763,-6893676 -240765,-6893659 -240712,-6893655 -240680,-6893631 -240392,-6893707 -240260,-6893741 -240166,-6893765 -240124,-6893813 -240113,-6893819 -240106,-6893821 -240093,-6893822 -240084,-6893820 -240046,-6893796 -240036,-6893792 -240029,-6893792 -240025,-6893794 -240021,-6893798 -240009,-6893814 -240004,-6893818 -239999,-6893820 -239993,-6893822 -239964,-6893825 -239936,-6893832 -239913,-6893832 -239891,-6893830 -239821,-6893819 -239711,-6893808 -239664,-6893800 -239647,-6893796 -239634,-6893792 -239621,-6893787 -239609,-6893781 -239588,-6893767 -239574,-6893755 -239544,-6893724 -239529,-6893710 -239508,-6893693 -239488,-6893679 -239478,-6893672 -239438,-6893647 -239417,-6893633 -239404,-6893628 -239397,-6893627 -239383,-6893627 -239372,-6893629 -239363,-6893652 -239246,-6893692 -239233,-6893695 -239225,-6893699 -239217,-6893703 -239211,-6893708 -239201,-6893729 -239191,-6893746 -239173,-6893766 -239149,-6893788 -239031,-6893882 -238975,-6893923 -238948,-6893940 -238917,-6893956 -238903,-6893964 -238886,-6893976 -238874,-6893985 -238862,-6893999 -238842,-6894029 -238828,-6894046 -238807,-6894069 -238728,-6894131 -238697,-6894158 -238692,-6894164 -238687,-6894172 -238682,-6894181 -238679,-6894190 -238678,-6894198 -238678,-6894205 -238681,-6894212 -238684,-6894219 -238689,-6894225 -238695,-6894231 -238703,-6894236 -238712,-6894239 -238725,-6894241 -238812,-6894284 -238779,-6894343 -238780,-6894388 -238776,-6894457 -238782,-6894477 -238784,-6894492 -238783,-6894507 -238781,-6894517 -238777,-6894528 -238773,-6894533 -238753,-6894558 -238747,-6894569 -238739,-6894584 -238733,-6894599 -238729,-6894615 -238726,-6894630 -238724,-6894645 -238724,-6894661 -238725,-6894670 -238741,-6894698 -238728,-6894736 -238738,-6894782 -238722,-6894841 -238729,-6894894 -238733,-6894953 -238756,-6894988 -238764,-6895031 -238779,-6895021 -238830,-6895096 -238896,-6895186 -238839,-6895203 -238864,-6895295 -238863,-6895337 -238872,-6895336 -238883,-6895328 -238898,-6895310 -239066,-6895460 -239100,-6895427 -239125,-6895381 -239193,-6895448 -239201,-6895454 -239204,-6895458 -239205,-6895459 -239254,-6895508 -239319,-6895578 -239343,-6895589 -239386,-6895610 -239511,-6895660 -239564,-6895724 -239566,-6895735 -239582,-6895741 -239575,-6895761 -239563,-6895783 -239550,-6895810 -239558,-6895833 -239511,-6895868 -239442,-6895919 -239366,-6895959 -239283,-6896011 -239205,-6896042 -239165,-6896056 -239106,-6896095 -239005,-6896167 -238991,-6896179 -238920,-6896255 -238895,-6896276 -238889,-6896283 -238885,-6896290 -238883,-6896297 -238881,-6896308 -238880,-6896320 -238883,-6896358 -238888,-6896387 -238888,-6896427 -238870,-6896427 -238864,-6896441 -238859,-6896450 -238848,-6896462 -238835,-6896472 -238799,-6896493 -238780,-6896505 -238771,-6896511 -238760,-6896522 -238748,-6896536 -238731,-6896557 -238713,-6896588 -238700,-6896602 -238694,-6896608 -238668,-6896628 -238648,-6896640 -238591,-6896674 -238562,-6896692 -238545,-6896704 -238533,-6896714 -238454,-6896787 -238377,-6896850 -238188,-6896991 -238155,-6897019 -238144,-6897026 -238135,-6897030 -238097,-6897041 -238074,-6897048 -238048,-6897058 -238035,-6897065 -238008,-6897080 -237931,-6897132 -237928,-6897134 -237933,-6897191 -237933,-6897212 -237907,-6897266 -237835,-6897259 -237830,-6897348 -237732,-6897345 -237730,-6897350 -237729,-6897354 -237714,-6897418 -237721,-6897419 -237751,-6897417 -237776,-6897418 -237797,-6897419 -237833,-6897423 -237861,-6897430 -237806,-6897513 -237766,-6897566 -237710,-6897636 -237844,-6897656 -237845,-6897658 -237846,-6897703 -237845,-6897734 -237843,-6897766 -237840,-6897787 -237812,-6897900 -237739,-6897897 -237740,-6897947 -237843,-6897952 -237849,-6898002 -237877,-6898003 -237862,-6898136 -237848,-6898221 -237836,-6898327 -237833,-6898355 -237832,-6898408 -237794,-6898402 -237788,-6898494 -237757,-6898493 -237766,-6898513 -237772,-6898535 -237777,-6898558 -237781,-6898607 -237789,-6898669 -237745,-6898692 -237740,-6898777 -237731,-6898835 -237719,-6898978 -237773,-6898972 -237774,-6898983 -237866,-6898990 -237885,-6899270 -237784,-6899367 -237832,-6899408 -237850,-6899477 -237843,-6899495 -237841,-6899509 -237841,-6899522 -237844,-6899535 -237852,-6899555 -237870,-6899608 -237888,-6899607 -237897,-6899645 -237939,-6899680 -237981,-6899721 -238011,-6899746 -238032,-6899759 -238096,-6899792 -238102,-6899796 -238109,-6899801 -238116,-6899810 -238124,-6899823 -238129,-6899835 -238108,-6899860 -238099,-6899884 -238075,-6899907 -238076,-6899931 -238060,-6899952 -238046,-6899964 -238030,-6899955 -238017,-6899974 -238021,-6900003 -238022,-6900034 -238004,-6900048 -238005,-6900089 -237953,-6900097 -237942,-6900105 -237945,-6900117 -237952,-6900129 -237946,-6900141 -237934,-6900147 -237915,-6900145 -237899,-6900180 -237892,-6900193 -237836,-6900259 -237825,-6900276 -237823,-6900281 -237822,-6900286 -237822,-6900306 -237819,-6900313 -237817,-6900316 -237814,-6900317 -237799,-6900318 -237794,-6900320 -237789,-6900325 -237786,-6900328 -237777,-6900345 -237770,-6900355 -237759,-6900367 -237751,-6900375 -237742,-6900381 -237731,-6900387 -237714,-6900394 -237715,-6900420 -237713,-6900440 -237698,-6900450 -237690,-6900432 -237678,-6900437 -237680,-6900459 -237667,-6900469 -237673,-6900486 -237654,-6900508 -237649,-6900491 -237618,-6900491 -237625,-6900513 -237620,-6900536 -237616,-6900557 -237614,-6900564 -237607,-6900577 -237577,-6900613 -237571,-6900622 -237566,-6900631 -237560,-6900650 -237557,-6900668 -237557,-6900675 -237561,-6900689 -237566,-6900699 -237554,-6900712 -237542,-6900755 -237517,-6900775 -237508,-6900804 -237495,-6900820 -237516,-6900880 -237502,-6900888 -237498,-6900934 -237485,-6900933 -237461,-6900937 -237432,-6900946 -237415,-6900949 -237343,-6900955 -237320,-6900955 -237298,-6900954 -237281,-6900952 -237251,-6900945 -237157,-6900910 -237128,-6900902 -237100,-6900899 -237025,-6900894 -236972,-6900894 -236930,-6900892 -236938,-6900931 -236936,-6900971 -236932,-6901004 -236943,-6901010 -236950,-6901021 -236934,-6901095 -236924,-6901160 -236901,-6901215 -236898,-6901229 -236895,-6901252 -236861,-6901287 -236813,-6901271 -236799,-6901318 -236819,-6901439 -236814,-6901502 -236811,-6901527 -236812,-6901533 -236815,-6901537 -236821,-6901543 -236868,-6901567 -236882,-6901572 -236901,-6901576 -236913,-6901581 -236925,-6901591 -236931,-6901599 -236931,-6901600 -236900,-6901642 -236888,-6901660 -236879,-6901670 -236869,-6901678 -236860,-6901684 -236851,-6901689 -236843,-6901692 -236836,-6901694 -236818,-6901695 -236800,-6901694 -236782,-6901689 -236746,-6901673 -236679,-6901645 -236588,-6901603 -236530,-6901580 -236470,-6901560 -236370,-6901532 -236197,-6901472 -236159,-6901459 -236174,-6901451 -236167,-6901437 -236104,-6901315" stroke="#006747" stroke-width="44" /></ns0:svg>    <rect x="20" y="50"  width="250" height="25"  rx="0"  fill="#006747" fill-opacity="0.8" />    <text x="145" y="70" text-anchor="middle" font-family="Frutiger" font-weight="bold" font-size="30" fill="white">Dudley</text>    <rect x="35" y="195" width="220" height="160" rx="15" fill="#78BE20"/>    <g font-family="Frutiger" font-size="15" fill="#231F20">        <g> <text x="45" y="218">Self-harm</text> <text x="245" y="218" text-anchor="end">39</text> </g>        <g> <text x="45" y="243">SEN</text> <text x="245" y="243" text-anchor="end">37</text> </g>        <g> <text x="45" y="268">Difficulties</text> <text x="245" y="268" text-anchor="end">68</text> </g>        <g> <text x="45" y="293">Child Carer</text> <text x="245" y="293" text-anchor="end">4</text> </g>        <g> <text x="45" y="318">Drinkers</text> <text x="245" y="318" text-anchor="end">70</text> </g>        <g> <text x="45" y="343">Safeguarding </text> <text x="245" y="343" text-anchor="end">27</text> </g>    </g></svg>