<?xml version="1.0" standalone="no"?>
<!DOCTYPE svg PUBLIC "-//W3C//DTD SVG 1.1//EN"
"http://www.w3.org/Graphics/SVG/1.1/DTD/svg11.dtd">
<svg height="1800" version="1.1" width="1800" xmlns="http://www.w3.org/2000/svg"><defs><style type="text/css">@font-face {font-family: 'Frutiger';font-style: normal;font-weight: normal;src: local('Frutiger'), url('../fonts/Frutiger.woff') format('woff');}@font-face {font-family: 'Frutiger Bold';font-style: normal;font-weight: normal;src: local('Frutiger Bold'), url('../fonts/Frutiger_bold.woff') format('woff');}        </style>    </defs>    <rect x="20" y="20"  width="250" height="350" rx="15" fill="#009639" />    <rect x="35" y="35"  width="220" height="145" rx="15" fill="#E8EDEE" /><ns0:svg xmlns:ns0="http://www.w3.org/2000/svg" height="115" version="1.1" viewBox="-336093 -7071344 22395 30507" width="220" x="35" y="50"><ns0:polygon fill="#006747" points=" -325217,-7071206 -325057,-7071023 -325167,-7070913 -325173,-7070906 -325107,-7070734 -325054,-7070591 -324982,-7070403 -324973,-7070379 -324961,-7070328 -324961,-7070324 -324954,-7070282 -324943,-7070240 -324939,-7070194 -324935,-7070161 -324933,-7070146 -324909,-7070149 -324903,-7070097 -324874,-7070102 -324789,-7070126 -324660,-7070172 -324580,-7070198 -324568,-7070161 -324555,-7070142 -324554,-7070099 -324550,-7070072 -324542,-7070050 -324533,-7070028 -324525,-7070002 -324520,-7069905 -324520,-7069872 -324519,-7069840 -324519,-7069827 -324518,-7069787 -324518,-7069773 -324516,-7069751 -324507,-7069732 -324504,-7069706 -324500,-7069698 -324499,-7069696 -324491,-7069680 -324491,-7069661 -324488,-7069644 -324487,-7069619 -324484,-7069612 -324460,-7069561 -324437,-7069506 -324427,-7069479 -324427,-7069478 -324391,-7069493 -324379,-7069484 -324359,-7069453 -324321,-7069476 -324308,-7069487 -324274,-7069518 -324218,-7069526 -324176,-7069525 -324078,-7069499 -324001,-7069487 -323941,-7069484 -323874,-7069483 -323818,-7069497 -323808,-7069505 -323794,-7069514 -323779,-7069520 -323763,-7069523 -323753,-7069523 -323741,-7069522 -323730,-7069519 -323702,-7069508 -323682,-7069505 -323674,-7069506 -323634,-7069510 -323612,-7069510 -323604,-7069509 -323588,-7069506 -323572,-7069501 -323560,-7069497 -323535,-7069484 -323521,-7069479 -323506,-7069476 -323490,-7069475 -323476,-7069475 -323466,-7069477 -323438,-7069486 -323410,-7069499 -323392,-7069508 -323374,-7069523 -323364,-7069536 -323360,-7069545 -323337,-7069646 -323285,-7069840 -323266,-7069907 -323264,-7069926 -323264,-7069940 -323265,-7069951 -323266,-7069959 -323270,-7069967 -323276,-7069976 -323280,-7069980 -323290,-7069998 -323309,-7070017 -323329,-7070032 -323339,-7070047 -323342,-7070058 -323345,-7070072 -323347,-7070079 -323349,-7070099 -323352,-7070133 -323358,-7070144 -323363,-7070151 -323377,-7070165 -323389,-7070178 -323389,-7070179 -323393,-7070187 -323398,-7070204 -323414,-7070274 -323420,-7070296 -323454,-7070378 -323471,-7070413 -323486,-7070446 -323479,-7070443 -323449,-7070429 -323414,-7070416 -323384,-7070405 -323367,-7070400 -323346,-7070395 -323317,-7070390 -323268,-7070383 -323145,-7070362 -323105,-7070357 -323096,-7070356 -323089,-7070353 -323000,-7070320 -322958,-7070299 -322861,-7070255 -322504,-7070024 -322333,-7069913 -322286,-7069885 -322286,-7069878 -322283,-7069848 -322276,-7069784 -322276,-7069693 -322257,-7069670 -322257,-7069663 -322274,-7069667 -322297,-7069672 -322303,-7069649 -322282,-7069594 -322250,-7069506 -322240,-7069487 -322236,-7069464 -322231,-7069457 -322212,-7069450 -322201,-7069443 -322185,-7069422 -322179,-7069418 -322164,-7069418 -322158,-7069416 -322157,-7069407 -322161,-7069396 -322164,-7069388 -322168,-7069380 -322179,-7069371 -322180,-7069367 -322178,-7069361 -322168,-7069359 -322159,-7069359 -322154,-7069356 -322158,-7069344 -322160,-7069335 -322158,-7069325 -322150,-7069323 -322139,-7069321 -322133,-7069320 -322131,-7069310 -322138,-7069298 -322143,-7069291 -322141,-7069284 -322130,-7069285 -322120,-7069286 -322115,-7069262 -322111,-7069253 -322095,-7069242 -322091,-7069229 -322051,-7069179 -322033,-7069176 -321989,-7069154 -321972,-7069158 -321964,-7069160 -321955,-7069156 -321947,-7069152 -321936,-7069154 -321920,-7069166 -321914,-7069168 -321915,-7069148 -321915,-7069144 -321888,-7069138 -321882,-7069136 -321877,-7069134 -321873,-7069125 -321880,-7069121 -321893,-7069113 -321892,-7069102 -321881,-7069098 -321878,-7069092 -321878,-7069080 -321868,-7069072 -321857,-7069071 -321848,-7069069 -321845,-7069059 -321843,-7069047 -321830,-7069041 -321814,-7069037 -321801,-7069035 -321775,-7069024 -321756,-7069023 -321742,-7069019 -321710,-7068993 -321733,-7068949 -321735,-7068939 -321731,-7068927 -321723,-7068916 -321722,-7068906 -321728,-7068900 -321728,-7068891 -321716,-7068865 -321714,-7068855 -321725,-7068846 -321724,-7068822 -321707,-7068817 -321689,-7068810 -321683,-7068801 -321682,-7068775 -321684,-7068764 -321661,-7068738 -321649,-7068729 -321621,-7068717 -321601,-7068705 -321588,-7068702 -321572,-7068700 -321561,-7068691 -321549,-7068678 -321530,-7068669 -321512,-7068665 -321485,-7068653 -321468,-7068644 -321429,-7068610 -321424,-7068583 -321417,-7068556 -321389,-7068531 -321360,-7068513 -321323,-7068496 -321297,-7068488 -321274,-7068480 -321268,-7068471 -321267,-7068449 -321260,-7068439 -321250,-7068433 -321234,-7068430 -321224,-7068422 -321201,-7068382 -321186,-7068381 -321171,-7068377 -321158,-7068363 -321148,-7068354 -321124,-7068351 -321112,-7068343 -321101,-7068326 -321089,-7068318 -321073,-7068311 -321062,-7068295 -321054,-7068285 -321039,-7068274 -321030,-7068251 -320987,-7068205 -320979,-7068188 -320939,-7068183 -320927,-7068176 -320911,-7068173 -320892,-7068171 -320875,-7068153 -320846,-7068135 -320825,-7068122 -320812,-7068106 -320779,-7068073 -320754,-7068053 -320740,-7068031 -320729,-7068019 -320703,-7068003 -320688,-7067992 -320677,-7067974 -320670,-7067961 -320657,-7067951 -320633,-7067942 -320588,-7067924 -320539,-7067904 -320517,-7067888 -320497,-7067869 -320479,-7067850 -320474,-7067840 -320468,-7067822 -320459,-7067812 -320441,-7067795 -320424,-7067779 -320406,-7067771 -320395,-7067766 -320379,-7067753 -320353,-7067737 -320332,-7067741 -320324,-7067740 -320314,-7067725 -320309,-7067720 -320297,-7067721 -320285,-7067721 -320273,-7067716 -320260,-7067703 -320235,-7067678 -320196,-7067627 -320179,-7067620 -320158,-7067609 -320145,-7067598 -320115,-7067591 -320092,-7067581 -320057,-7067562 -320041,-7067547 -320029,-7067533 -320022,-7067519 -320018,-7067508 -320016,-7067486 -319982,-7067455 -319964,-7067435 -319955,-7067424 -319955,-7067412 -319949,-7067404 -319941,-7067402 -319927,-7067399 -319916,-7067397 -319893,-7067384 -319867,-7067369 -319853,-7067362 -319842,-7067352 -319826,-7067345 -319798,-7067334 -319785,-7067323 -319769,-7067314 -319756,-7067299 -319740,-7067288 -319719,-7067275 -319686,-7067237 -319633,-7067179 -319615,-7067141 -319593,-7067096 -319583,-7067060 -319573,-7067030 -319564,-7067012 -319552,-7066998 -319529,-7066976 -319516,-7066964 -319507,-7066952 -319499,-7066927 -319497,-7066899 -319488,-7066879 -319470,-7066847 -319466,-7066825 -319458,-7066796 -319447,-7066777 -319415,-7066744 -319401,-7066732 -319375,-7066716 -319352,-7066704 -319328,-7066681 -319312,-7066663 -319300,-7066631 -319275,-7066585 -319248,-7066541 -319236,-7066469 -319222,-7066414 -319222,-7066399 -319239,-7066373 -319253,-7066348 -319264,-7066318 -319262,-7066286 -319256,-7066254 -319257,-7066218 -319270,-7066185 -319277,-7066158 -319285,-7066097 -319288,-7066073 -319297,-7066051 -319303,-7065996 -319297,-7065958 -319297,-7065937 -319286,-7065889 -319285,-7065872 -319298,-7065835 -319304,-7065816 -319284,-7065745 -319285,-7065718 -319291,-7065682 -319301,-7065660 -319319,-7065642 -319348,-7065625 -319361,-7065616 -319376,-7065600 -319386,-7065582 -319388,-7065559 -319391,-7065550 -319416,-7065534 -319428,-7065526 -319443,-7065507 -319456,-7065497 -319481,-7065488 -319492,-7065483 -319499,-7065453 -319505,-7065421 -319517,-7065396 -319529,-7065378 -319533,-7065362 -319530,-7065344 -319533,-7065326 -319541,-7065313 -319551,-7065302 -319552,-7065276 -319564,-7065258 -319564,-7065247 -319546,-7065227 -319537,-7065214 -319529,-7065197 -319526,-7065184 -319525,-7065180 -319520,-7065170 -319504,-7065141 -319500,-7065121 -319493,-7065086 -319492,-7065071 -319492,-7065056 -319493,-7065044 -319498,-7065023 -319503,-7064975 -319511,-7064931 -319515,-7064876 -319531,-7064782 -319539,-7064726 -319547,-7064670 -319561,-7064545 -319579,-7064455 -319596,-7064437 -319580,-7064425 -319600,-7064408 -319648,-7064368 -319655,-7064362 -319665,-7064356 -319676,-7064347 -319683,-7064342 -319686,-7064340 -319681,-7064335 -319673,-7064328 -319664,-7064320 -319722,-7064271 -319759,-7064243 -319847,-7064169 -319867,-7064153 -319849,-7064133 -319826,-7064106 -319782,-7064050 -319704,-7063967 -319760,-7063927 -319783,-7063910 -319719,-7063849 -319698,-7063830 -319677,-7063810 -319672,-7063806 -319647,-7063788 -319625,-7063773 -319616,-7063767 -319609,-7063765 -319581,-7063710 -319537,-7063668 -319438,-7063574 -319352,-7063489 -319418,-7063445 -319403,-7063367 -319383,-7063295 -319365,-7063220 -319381,-7063203 -319409,-7063173 -319330,-7063095 -319329,-7063060 -319345,-7063041 -319293,-7062987 -319267,-7062902 -319266,-7062900 -319265,-7062897 -319264,-7062894 -319262,-7062891 -319261,-7062888 -319260,-7062887 -319258,-7062884 -319257,-7062882 -319255,-7062879 -319253,-7062877 -319251,-7062874 -319249,-7062872 -319247,-7062870 -319245,-7062867 -319243,-7062864 -319241,-7062861 -319239,-7062858 -319237,-7062855 -319235,-7062852 -319235,-7062852 -319234,-7062849 -319232,-7062845 -319231,-7062842 -319230,-7062839 -319229,-7062836 -319228,-7062832 -319227,-7062829 -319226,-7062825 -319225,-7062819 -319224,-7062815 -319224,-7062813 -319221,-7062803 -319219,-7062793 -319217,-7062782 -319215,-7062772 -319214,-7062761 -319214,-7062759 -319213,-7062750 -319213,-7062740 -319212,-7062731 -319211,-7062725 -319210,-7062719 -319208,-7062710 -319206,-7062697 -319160,-7062653 -319149,-7062629 -319144,-7062629 -319134,-7062630 -319101,-7062598 -319061,-7062566 -319091,-7062531 -319081,-7062521 -319082,-7062520 -319099,-7062501 -319101,-7062499 -319161,-7062487 -319241,-7062403 -319280,-7062361 -319281,-7062293 -319302,-7062270 -319327,-7062244 -319364,-7062244 -319387,-7062246 -319426,-7062204 -319443,-7062182 -319465,-7062132 -319487,-7062078 -319497,-7062030 -319469,-7062024 -319450,-7062014 -319456,-7062005 -319478,-7061968 -319473,-7061964 -319438,-7061934 -319356,-7061859 -319332,-7061837 -319289,-7061801 -319289,-7061791 -319295,-7061785 -319318,-7061760 -319337,-7061730 -319353,-7061695 -319362,-7061672 -319352,-7061598 -319315,-7061434 -319268,-7061230 -319257,-7061173 -319255,-7061161 -319229,-7061166 -319225,-7061145 -319224,-7061100 -319226,-7061051 -319226,-7061029 -319228,-7061021 -319228,-7061016 -319219,-7061005 -319208,-7061002 -319201,-7060999 -319194,-7061004 -319187,-7061009 -319124,-7060958 -319097,-7060936 -319075,-7060913 -319059,-7060889 -319048,-7060864 -319043,-7060850 -319039,-7060838 -319035,-7060813 -319034,-7060800 -319034,-7060799 -319033,-7060750 -319060,-7060703 -319085,-7060663 -319136,-7060578 -319171,-7060524 -319204,-7060470 -319294,-7060322 -319341,-7060243 -319343,-7060240 -319380,-7060145 -319432,-7060017 -319506,-7059855 -319543,-7059768 -319563,-7059725 -319583,-7059683 -319593,-7059662 -319593,-7059654 -319603,-7059649 -319616,-7059645 -319621,-7059646 -319621,-7059646 -319630,-7059649 -319660,-7059666 -319732,-7059701 -319755,-7059709 -319794,-7059733 -319843,-7059762 -319919,-7059815 -319970,-7059851 -320024,-7059886 -320045,-7059899 -320098,-7059933 -320213,-7060006 -320317,-7060072 -320412,-7060132 -320452,-7060158 -320573,-7060235 -320671,-7060296 -320697,-7060312 -320697,-7060313 -320729,-7060333 -320737,-7060339 -320748,-7060346 -320758,-7060351 -320814,-7060374 -320858,-7060391 -320856,-7060396 -320891,-7060411 -320961,-7060440 -321056,-7060484 -321059,-7060474 -321068,-7060450 -321079,-7060434 -321082,-7060434 -321124,-7060438 -321131,-7060430 -321160,-7060401 -321161,-7060400 -321207,-7060353 -321297,-7060260 -321434,-7060124 -321516,-7060045 -321519,-7060041 -321561,-7059957 -321579,-7059923 -321597,-7059889 -321622,-7059848 -321633,-7059836 -321646,-7059831 -321684,-7059855 -321751,-7059768 -321836,-7059640 -321874,-7059600 -321907,-7059565 -321923,-7059552 -321940,-7059547 -321966,-7059548 -321976,-7059541 -321976,-7059535 -321978,-7059457 -321978,-7059450 -321982,-7059406 -321981,-7059342 -321973,-7059336 -321973,-7059328 -321962,-7059318 -321958,-7059315 -321942,-7059265 -321925,-7059255 -321900,-7059182 -321878,-7059101 -321847,-7058987 -321821,-7058893 -321812,-7058850 -321810,-7058808 -321800,-7058745 -321794,-7058698 -321790,-7058683 -321782,-7058653 -321773,-7058625 -321687,-7058644 -321597,-7058666 -321551,-7058678 -321394,-7058715 -321300,-7058738 -321191,-7058765 -321057,-7058796 -320877,-7058840 -320802,-7058856 -320787,-7058860 -320787,-7058844 -320788,-7058842 -320787,-7058833 -320786,-7058830 -320766,-7058724 -320757,-7058672 -320742,-7058659 -320706,-7058629 -320620,-7058474 -320572,-7058388 -320551,-7058350 -320475,-7058217 -320401,-7058088 -320330,-7057960 -320308,-7057921 -320285,-7057879 -320247,-7057807 -320222,-7057766 -320134,-7057614 -320125,-7057598 -320102,-7057556 -320082,-7057520 -320081,-7057521 -320073,-7057529 -320071,-7057531 -320051,-7057513 -320047,-7057510 -320024,-7057520 -319956,-7057558 -319876,-7057602 -319816,-7057638 -319795,-7057646 -319792,-7057649 -319778,-7057612 -319760,-7057580 -319757,-7057564 -319713,-7057445 -319700,-7057414 -319694,-7057403 -319664,-7057367 -319568,-7057241 -319537,-7057206 -319481,-7057191 -319388,-7057166 -319346,-7057155 -319346,-7057155 -319328,-7057151 -319323,-7057149 -319307,-7057144 -319285,-7057137 -319257,-7057127 -319243,-7057122 -319226,-7057115 -319198,-7057103 -319157,-7057084 -319102,-7057056 -319086,-7057048 -319059,-7057034 -319033,-7057020 -319012,-7057008 -319012,-7057007 -319008,-7057005 -319008,-7056996 -319008,-7056994 -318967,-7056971 -318958,-7056968 -318899,-7056936 -318892,-7056933 -318819,-7056892 -318715,-7056837 -318670,-7056811 -318585,-7056763 -318497,-7056715 -318351,-7056633 -318284,-7056598 -318232,-7056565 -318203,-7056547 -318152,-7056514 -318119,-7056495 -318101,-7056485 -318062,-7056460 -318020,-7056435 -318002,-7056422 -317980,-7056410 -317967,-7056401 -317952,-7056391 -317945,-7056400 -317934,-7056415 -317915,-7056439 -317910,-7056446 -317882,-7056426 -317871,-7056421 -317866,-7056419 -317631,-7056576 -317419,-7056710 -317301,-7056788 -317231,-7056832 -317042,-7056764 -317038,-7056766 -316993,-7056801 -316862,-7056879 -316774,-7056926 -316755,-7056942 -316705,-7056969 -316600,-7057011 -316500,-7057044 -316454,-7057061 -316434,-7057070 -316431,-7057072 -316423,-7057076 -316415,-7057080 -316414,-7057081 -316406,-7057085 -316338,-7057106 -316287,-7057125 -316145,-7057182 -316058,-7057220 -316004,-7057251 -315985,-7057259 -315966,-7057268 -315947,-7057277 -315944,-7057278 -315938,-7057281 -315931,-7057284 -315924,-7057288 -315918,-7057291 -315912,-7057295 -315910,-7057296 -315906,-7057298 -315902,-7057301 -315898,-7057303 -315894,-7057306 -315891,-7057309 -315888,-7057312 -315884,-7057315 -315881,-7057317 -315878,-7057320 -315867,-7057323 -315859,-7057314 -315851,-7057307 -315834,-7057284 -315830,-7057206 -315808,-7057181 -315801,-7057173 -315798,-7057163 -315801,-7057145 -315804,-7057130 -315802,-7057111 -315795,-7057090 -315795,-7057066 -315790,-7057046 -315783,-7057028 -315776,-7057008 -315770,-7056998 -315759,-7056989 -315746,-7056984 -315738,-7056977 -315734,-7056959 -315727,-7056944 -315707,-7056917 -315698,-7056895 -315693,-7056873 -315688,-7056865 -315674,-7056853 -315660,-7056840 -315652,-7056835 -315641,-7056834 -315633,-7056831 -315630,-7056818 -315630,-7056804 -315624,-7056785 -315627,-7056776 -315628,-7056769 -315629,-7056762 -315622,-7056754 -315609,-7056735 -315596,-7056711 -315586,-7056694 -315566,-7056675 -315560,-7056666 -315544,-7056656 -315536,-7056654 -315524,-7056661 -315503,-7056682 -315486,-7056700 -315481,-7056702 -315473,-7056695 -315461,-7056665 -315429,-7056603 -315421,-7056579 -315410,-7056558 -315399,-7056539 -315393,-7056522 -315391,-7056501 -315389,-7056478 -315385,-7056462 -315384,-7056449 -315388,-7056426 -315394,-7056411 -315403,-7056396 -315405,-7056386 -315403,-7056377 -315394,-7056366 -315387,-7056357 -315384,-7056350 -315389,-7056343 -315392,-7056338 -315389,-7056329 -315385,-7056319 -315383,-7056308 -315376,-7056301 -315372,-7056293 -315372,-7056282 -315368,-7056266 -315355,-7056249 -315348,-7056239 -315341,-7056227 -315327,-7056216 -315328,-7056204 -315312,-7056174 -315306,-7056153 -315306,-7056131 -315307,-7056119 -315302,-7056108 -315294,-7056076 -315294,-7056056 -315293,-7056048 -315285,-7056038 -315281,-7056031 -315283,-7056021 -315284,-7056006 -315284,-7055985 -315289,-7055970 -315281,-7055934 -315270,-7055920 -315258,-7055906 -315256,-7055895 -315261,-7055881 -315269,-7055872 -315273,-7055865 -315274,-7055855 -315271,-7055848 -315264,-7055841 -315257,-7055835 -315262,-7055824 -315271,-7055806 -315289,-7055806 -315294,-7055797 -315295,-7055788 -315293,-7055774 -315296,-7055761 -315298,-7055753 -315297,-7055744 -315295,-7055740 -315288,-7055742 -315282,-7055741 -315280,-7055735 -315280,-7055726 -315288,-7055725 -315300,-7055725 -315303,-7055714 -315309,-7055703 -315320,-7055695 -315328,-7055692 -315327,-7055688 -315315,-7055681 -315311,-7055675 -315311,-7055664 -315311,-7055656 -315313,-7055652 -315326,-7055656 -315333,-7055658 -315337,-7055653 -315338,-7055644 -315343,-7055636 -315344,-7055629 -315343,-7055621 -315349,-7055613 -315353,-7055606 -315350,-7055595 -315352,-7055586 -315361,-7055566 -315362,-7055557 -315359,-7055553 -315347,-7055551 -315329,-7055531 -315329,-7055515 -315335,-7055492 -315344,-7055474 -315347,-7055469 -315348,-7055464 -315342,-7055459 -315337,-7055454 -315336,-7055449 -315340,-7055440 -315352,-7055436 -315357,-7055433 -315370,-7055411 -315377,-7055396 -315381,-7055392 -315390,-7055390 -315393,-7055385 -315393,-7055376 -315402,-7055367 -315411,-7055356 -315421,-7055353 -315429,-7055345 -315431,-7055327 -315434,-7055303 -315437,-7055286 -315440,-7055268 -315408,-7055248 -315396,-7055236 -315380,-7055211 -315362,-7055181 -315334,-7055135 -315324,-7055120 -315260,-7055062 -315206,-7055015 -315192,-7055005 -315173,-7054998 -315155,-7054992 -315139,-7054990 -315115,-7054986 -315100,-7054982 -315053,-7054943 -315027,-7054918 -314976,-7054866 -314963,-7054847 -314953,-7054821 -314936,-7054767 -314926,-7054744 -314911,-7054723 -314890,-7054701 -314875,-7054690 -314857,-7054680 -314822,-7054670 -314804,-7054663 -314774,-7054646 -314717,-7054615 -314687,-7054597 -314662,-7054580 -314637,-7054552 -314605,-7054517 -314597,-7054503 -314593,-7054490 -314591,-7054465 -314585,-7054447 -314567,-7054420 -314536,-7054368 -314484,-7054294 -314443,-7054239 -314367,-7054139 -314337,-7054104 -314293,-7054057 -314273,-7054041 -314259,-7054030 -314242,-7054020 -314231,-7054010 -314222,-7053995 -314220,-7053975 -314219,-7053940 -314213,-7053900 -314191,-7053846 -314160,-7053775 -314138,-7053723 -314151,-7053723 -314166,-7053715 -314174,-7053708 -314175,-7053707 -314177,-7053706 -314193,-7053692 -314201,-7053683 -314219,-7053662 -314239,-7053642 -314256,-7053630 -314273,-7053624 -314289,-7053618 -314315,-7053614 -314356,-7053614 -314381,-7053615 -314388,-7053615 -314403,-7053619 -314416,-7053631 -314434,-7053648 -314467,-7053687 -314490,-7053702 -314532,-7053704 -314648,-7053691 -314723,-7053682 -314766,-7053673 -314802,-7053659 -314821,-7053684 -314845,-7053710 -314871,-7053739 -314886,-7053754 -314905,-7053768 -314907,-7053770 -314916,-7053775 -314921,-7053778 -314925,-7053781 -314930,-7053783 -314935,-7053786 -314938,-7053787 -314943,-7053789 -314948,-7053791 -314953,-7053793 -314958,-7053794 -314971,-7053794 -314985,-7053794 -314993,-7053792 -314999,-7053790 -315006,-7053785 -315011,-7053783 -315018,-7053781 -315021,-7053779 -315025,-7053778 -315029,-7053777 -315031,-7053776 -315044,-7053775 -315064,-7053775 -315084,-7053776 -315107,-7053778 -315132,-7053782 -315156,-7053802 -315175,-7053819 -315189,-7053831 -315190,-7053831 -315196,-7053837 -315202,-7053843 -315208,-7053850 -315214,-7053855 -315217,-7053857 -315221,-7053861 -315226,-7053865 -315231,-7053869 -315236,-7053873 -315241,-7053876 -315244,-7053878 -315247,-7053880 -315251,-7053882 -315254,-7053884 -315258,-7053886 -315262,-7053888 -315265,-7053890 -315269,-7053891 -315270,-7053892 -315275,-7053894 -315280,-7053895 -315285,-7053897 -315290,-7053898 -315295,-7053899 -315300,-7053900 -315303,-7053900 -315306,-7053901 -315308,-7053901 -315311,-7053901 -315313,-7053902 -315316,-7053902 -315318,-7053902 -315325,-7053901 -315334,-7053898 -315343,-7053895 -315352,-7053892 -315353,-7053891 -315398,-7053871 -315417,-7053863 -315436,-7053854 -315463,-7053844 -315496,-7053833 -315512,-7053830 -315542,-7053827 -315548,-7053826 -315553,-7053825 -315559,-7053825 -315564,-7053824 -315570,-7053824 -315576,-7053823 -315582,-7053824 -315588,-7053824 -315594,-7053824 -315600,-7053825 -315606,-7053825 -315611,-7053826 -315641,-7053834 -315645,-7053835 -315671,-7053841 -315697,-7053849 -315768,-7053866 -315794,-7053872 -315867,-7053872 -315909,-7053876 -315950,-7053876 -315964,-7053874 -315991,-7053875 -316012,-7053877 -316026,-7053877 -316062,-7053875 -316067,-7053875 -316086,-7053875 -316105,-7053875 -316149,-7053877 -316164,-7053877 -316186,-7053878 -316227,-7053881 -316238,-7053882 -316252,-7053883 -316266,-7053885 -316267,-7053885 -316319,-7053891 -316324,-7053891 -316339,-7053893 -316353,-7053896 -316368,-7053899 -316380,-7053901 -316398,-7053905 -316416,-7053910 -316434,-7053916 -316438,-7053917 -316443,-7053918 -316446,-7053919 -316447,-7053919 -316452,-7053921 -316456,-7053922 -316461,-7053923 -316465,-7053925 -316470,-7053926 -316474,-7053928 -316478,-7053930 -316483,-7053932 -316485,-7053934 -316489,-7053936 -316493,-7053938 -316497,-7053941 -316501,-7053944 -316505,-7053947 -316513,-7053951 -316530,-7053961 -316560,-7053965 -316611,-7053978 -316640,-7053983 -316683,-7053980 -316795,-7053961 -316881,-7053948 -316893,-7053938 -316917,-7053897 -316946,-7053868 -316966,-7053855 -316983,-7053845 -316998,-7053835 -317012,-7053826 -317022,-7053819 -317028,-7053816 -317031,-7053814 -317046,-7053812 -317063,-7053808 -317075,-7053805 -317151,-7053786 -317208,-7053772 -317228,-7053768 -317251,-7053762 -317285,-7053758 -317358,-7053764 -317419,-7053766 -317466,-7053766 -317476,-7053759 -317497,-7053745 -317548,-7053704 -317582,-7053678 -317599,-7053668 -317608,-7053660 -317611,-7053658 -317683,-7053564 -317708,-7053533 -317751,-7053502 -317837,-7053444 -317873,-7053414 -317897,-7053398 -317925,-7053397 -317946,-7053378 -317949,-7053366 -317897,-7053306 -317803,-7053195 -317790,-7053181 -317778,-7053167 -317765,-7053153 -317753,-7053138 -317737,-7053112 -317726,-7053090 -317705,-7053044 -317690,-7052990 -317666,-7052884 -317652,-7052812 -317627,-7052699 -317626,-7052694 -317604,-7052602 -317592,-7052523 -317592,-7052519 -317587,-7052498 -317575,-7052440 -317571,-7052420 -317563,-7052351 -317552,-7052291 -317542,-7052254 -317536,-7052203 -317528,-7052151 -317524,-7052106 -317511,-7051970 -317508,-7051927 -317497,-7051797 -317492,-7051739 -317490,-7051691 -317487,-7051646 -317486,-7051627 -317486,-7051626 -317485,-7051622 -317492,-7051579 -317493,-7051574 -317494,-7051569 -317495,-7051567 -317501,-7051542 -317509,-7051516 -317516,-7051491 -317519,-7051481 -317534,-7051434 -317562,-7051354 -317569,-7051332 -317575,-7051314 -317610,-7051202 -317631,-7051146 -317654,-7051071 -317662,-7051032 -317667,-7050985 -317668,-7050926 -317664,-7050848 -317662,-7050714 -317655,-7050565 -317649,-7050523 -317621,-7050425 -317586,-7050327 -317559,-7050260 -317531,-7050197 -317506,-7050142 -317512,-7050140 -317509,-7050133 -317492,-7050097 -317486,-7050084 -317448,-7050012 -317405,-7049932 -317378,-7049881 -317318,-7049744 -317268,-7049657 -317267,-7049655 -317230,-7049585 -317216,-7049558 -317185,-7049480 -317163,-7049433 -317155,-7049422 -317122,-7049351 -317120,-7049337 -317088,-7049265 -317078,-7049242 -317058,-7049221 -317008,-7049112 -316963,-7048999 -316953,-7048968 -316922,-7048872 -316891,-7048812 -316855,-7048749 -316852,-7048745 -316849,-7048739 -316825,-7048698 -316804,-7048667 -316764,-7048585 -316723,-7048513 -316676,-7048428 -316588,-7048266 -316586,-7048262 -316510,-7048090 -316480,-7048031 -316422,-7047920 -316341,-7047760 -316336,-7047744 -316319,-7047726 -316291,-7047674 -316267,-7047639 -316245,-7047595 -316202,-7047519 -316200,-7047516 -316192,-7047504 -316092,-7047480 -315978,-7047454 -315922,-7047442 -315917,-7047446 -315900,-7047456 -315813,-7047434 -315777,-7047427 -315695,-7047409 -315592,-7047393 -315569,-7047388 -315474,-7047382 -315432,-7047378 -315412,-7047378 -315402,-7047378 -315360,-7047378 -315317,-7047378 -315275,-7047380 -315233,-7047382 -315214,-7047384 -315172,-7047388 -315130,-7047392 -315088,-7047398 -315047,-7047404 -315013,-7047410 -314971,-7047418 -314931,-7047427 -314890,-7047437 -314850,-7047448 -314848,-7047448 -314808,-7047460 -314742,-7047476 -314707,-7047487 -314640,-7047505 -314575,-7047528 -314544,-7047539 -314470,-7047565 -314426,-7047581 -314367,-7047601 -314319,-7047622 -314277,-7047639 -314223,-7047620 -314230,-7047596 -314199,-7047587 -314124,-7047594 -314015,-7047606 -313866,-7047622 -313808,-7047629 -313788,-7047629 -313787,-7047593 -313788,-7047556 -313788,-7047530 -313784,-7047444 -313776,-7047355 -313780,-7047328 -313801,-7047184 -313804,-7047143 -313807,-7047124 -313815,-7047083 -313818,-7047070 -313825,-7047049 -313837,-7047013 -313859,-7046955 -313906,-7046823 -313853,-7046796 -313817,-7046759 -313757,-7046721 -313698,-7046693 -313710,-7046654 -313745,-7046597 -313793,-7046523 -313857,-7046435 -313903,-7046361 -313843,-7046327 -313777,-7046274 -313784,-7046120 -313785,-7046095 -313865,-7046108 -313962,-7046117 -313944,-7046213 -314068,-7046245 -314180,-7046267 -314201,-7046139 -314223,-7046016 -314233,-7045997 -314237,-7045992 -314242,-7045984 -314243,-7045981 -314252,-7045968 -314255,-7045963 -314265,-7045950 -314267,-7045948 -314277,-7045935 -314281,-7045915 -314284,-7045901 -314289,-7045870 -314294,-7045829 -314303,-7045769 -314304,-7045765 -314306,-7045750 -314307,-7045744 -314307,-7045741 -314309,-7045723 -314311,-7045705 -314311,-7045701 -314311,-7045689 -314311,-7045678 -314311,-7045674 -314310,-7045662 -314308,-7045650 -314314,-7045651 -314326,-7045651 -314338,-7045653 -314342,-7045653 -314355,-7045656 -314368,-7045659 -314380,-7045663 -314397,-7045669 -314402,-7045671 -314411,-7045675 -314416,-7045677 -314419,-7045678 -314436,-7045682 -314509,-7045700 -314517,-7045702 -314571,-7045714 -314610,-7045723 -314650,-7045730 -314666,-7045733 -314683,-7045736 -314700,-7045739 -314709,-7045740 -314718,-7045741 -314727,-7045741 -314736,-7045741 -314741,-7045740 -314750,-7045739 -314759,-7045738 -314778,-7045738 -314904,-7045733 -315045,-7045731 -315066,-7045730 -315089,-7045728 -315091,-7045728 -315105,-7045726 -315111,-7045725 -315125,-7045722 -315152,-7045722 -315163,-7045656 -315149,-7045653 -315154,-7045629 -315250,-7045638 -315249,-7045628 -315267,-7045629 -315286,-7045631 -315294,-7045631 -315307,-7045632 -315262,-7045475 -315204,-7045229 -315066,-7045061 -314891,-7044846 -314830,-7044773 -314822,-7044764 -314738,-7044665 -314704,-7044626 -314662,-7044582 -314549,-7044443 -314315,-7044170 -314181,-7044011 -313733,-7043478 -313723,-7042863 -313706,-7042161 -313813,-7042196 -314214,-7042315 -314394,-7042356 -314485,-7042376 -314576,-7042395 -314712,-7042409 -314936,-7042299 -315189,-7042198 -315408,-7042110 -315429,-7042102 -315604,-7042038 -315829,-7041953 -315968,-7041908 -316193,-7041840 -316329,-7041795 -316442,-7041756 -316454,-7041752 -316754,-7041644 -317023,-7041542 -317200,-7041478 -317283,-7041446 -317381,-7041412 -317439,-7041394 -317524,-7041371 -317578,-7041357 -317641,-7041344 -317692,-7041333 -317750,-7041322 -317880,-7041289 -317993,-7041267 -318053,-7041237 -318071,-7041219 -318091,-7041196 -318104,-7041180 -318130,-7041141 -318138,-7041127 -318214,-7041004 -318226,-7040986 -318233,-7040978 -318241,-7040970 -318249,-7040963 -318260,-7040956 -318275,-7040949 -318293,-7040942 -318370,-7040905 -318391,-7040896 -318437,-7040878 -318438,-7040878 -318462,-7040871 -318488,-7040864 -318510,-7040859 -318564,-7040851 -318590,-7040849 -318632,-7040847 -318681,-7040841 -318701,-7040839 -318720,-7040838 -318771,-7040837 -318810,-7040837 -319062,-7040850 -319243,-7040857 -319323,-7040857 -319391,-7040858 -319659,-7040875 -319783,-7040888 -319869,-7040895 -320010,-7040912 -320164,-7040934 -320329,-7040965 -320487,-7041013 -320648,-7041066 -320777,-7041121 -320817,-7041133 -320835,-7041140 -320870,-7041155 -320892,-7041166 -320914,-7041179 -320949,-7041203 -321017,-7041230 -321081,-7041276 -321119,-7041306 -321139,-7041314 -321149,-7041320 -321169,-7041335 -321364,-7041533 -321390,-7041566 -321407,-7041592 -321462,-7041689 -321472,-7041713 -321482,-7041730 -321490,-7041742 -321499,-7041754 -321518,-7041773 -321552,-7041801 -321570,-7041813 -321603,-7041832 -322689,-7042403 -322691,-7042404 -323070,-7042611 -323411,-7042815 -323604,-7042929 -323827,-7043055 -323946,-7043119 -323888,-7043330 -323829,-7043514 -323721,-7043895 -323684,-7044025 -323581,-7044373 -323518,-7044596 -323449,-7044831 -323395,-7045017 -323311,-7045310 -323249,-7045529 -323177,-7045781 -323341,-7045855 -323542,-7045939 -323667,-7045997 -323841,-7046069 -323918,-7046096 -324035,-7046144 -324065,-7046158 -324082,-7046168 -324114,-7046188 -324130,-7046199 -324153,-7046217 -324206,-7046254 -324476,-7046435 -324612,-7046540 -324886,-7046765 -324910,-7046784 -325076,-7046915 -325171,-7046989 -325478,-7047227 -325547,-7047278 -325634,-7047339 -325817,-7047440 -325990,-7047531 -326432,-7047768 -326556,-7047833 -326625,-7047868 -326778,-7047946 -326899,-7048006 -327057,-7048089 -327171,-7048142 -327266,-7048189 -327341,-7048229 -327384,-7048254 -327414,-7048273 -327442,-7048292 -327469,-7048310 -327502,-7048336 -327571,-7048394 -327708,-7048516 -327796,-7048600 -327839,-7048641 -327939,-7048744 -328078,-7048895 -328133,-7048955 -328202,-7049039 -328297,-7049142 -328395,-7049254 -328529,-7049403 -328622,-7049511 -328619,-7049514 -328654,-7049553 -328672,-7049574 -328736,-7049649 -328793,-7049713 -328877,-7049811 -329070,-7050030 -329117,-7050083 -329129,-7050105 -329137,-7050115 -329157,-7050138 -329182,-7050159 -329330,-7050252 -329359,-7050271 -329397,-7050295 -329430,-7050316 -329526,-7050373 -329718,-7050494 -329818,-7050558 -329927,-7050620 -330051,-7050688 -330308,-7050841 -330443,-7050917 -330555,-7050986 -330557,-7050987 -330648,-7051046 -330741,-7051105 -330882,-7051198 -330999,-7051277 -331126,-7051366 -331160,-7051392 -331218,-7051437 -331249,-7051466 -331303,-7051512 -331348,-7051549 -331470,-7051653 -331534,-7051707 -331550,-7051721 -331672,-7051846 -331703,-7051881 -331748,-7051938 -331766,-7051961 -331816,-7052033 -331874,-7052104 -331969,-7052247 -332098,-7052445 -332207,-7052607 -332373,-7052843 -332482,-7052990 -332635,-7053184 -332757,-7053327 -332895,-7053478 -333003,-7053605 -333032,-7053637 -333060,-7053668 -333117,-7053729 -333155,-7053766 -333216,-7053823 -333286,-7053894 -333335,-7053947 -333366,-7053982 -333396,-7054019 -333440,-7054076 -333540,-7054212 -333560,-7054241 -333579,-7054269 -333616,-7054327 -333642,-7054375 -333666,-7054423 -333694,-7054478 -333729,-7054561 -333744,-7054599 -333764,-7054656 -333808,-7054783 -333825,-7054832 -333841,-7054885 -333860,-7054952 -333869,-7054982 -333897,-7055092 -333940,-7055314 -333972,-7055622 -333982,-7055756 -334001,-7055842 -334028,-7055949 -334092,-7056233 -334131,-7056364 -334170,-7056488 -334231,-7056699 -334266,-7056809 -334340,-7057067 -334435,-7057375 -334468,-7057490 -334483,-7057543 -334523,-7057688 -334525,-7057694 -334532,-7057717 -334547,-7057767 -334561,-7057815 -334560,-7057817 -334575,-7057861 -334619,-7057990 -334642,-7058063 -334679,-7058196 -334790,-7058651 -334887,-7059070 -334945,-7059314 -334963,-7059387 -335001,-7059538 -335042,-7059723 -335087,-7059849 -335277,-7060346 -335330,-7060507 -335366,-7060632 -335450,-7060959 -335514,-7061201 -335538,-7061309 -335543,-7061334 -335548,-7061359 -335567,-7061466 -335567,-7061467 -335582,-7061576 -335590,-7061621 -335593,-7061639 -335605,-7061702 -335657,-7061952 -335692,-7062155 -335740,-7062406 -335798,-7062719 -335835,-7062895 -335856,-7062991 -335910,-7063232 -335964,-7063517 -335972,-7063561 -336030,-7063805 -336093,-7064089 -335922,-7064151 -335764,-7064205 -335610,-7064260 -335509,-7064298 -335447,-7064320 -335272,-7064382 -335204,-7064404 -335101,-7064444 -334933,-7064501 -334920,-7064497 -334916,-7064496 -334913,-7064496 -334910,-7064495 -334909,-7064495 -334905,-7064494 -334875,-7064486 -334798,-7064499 -334795,-7064508 -334761,-7064521 -334705,-7064541 -334633,-7064566 -334620,-7064573 -334615,-7064582 -334616,-7064594 -334626,-7064623 -334564,-7064647 -334555,-7064624 -334546,-7064614 -334536,-7064613 -334525,-7064614 -334384,-7064660 -334256,-7064702 -334141,-7064741 -334039,-7064775 -333955,-7064802 -333980,-7064875 -333982,-7064879 -333871,-7064907 -333843,-7064916 -333663,-7064962 -333664,-7064967 -333666,-7064977 -333663,-7064978 -333524,-7065018 -333477,-7065038 -333475,-7065029 -333424,-7065043 -333425,-7065050 -333408,-7065054 -333289,-7065089 -333169,-7064896 -333145,-7064863 -333030,-7064941 -332962,-7064843 -332912,-7064872 -332906,-7064876 -332905,-7064886 -332905,-7064910 -332900,-7064912 -332895,-7064914 -332752,-7064959 -332608,-7065004 -332505,-7065037 -332442,-7065057 -332310,-7065099 -332298,-7065102 -332218,-7065127 -332130,-7065154 -332004,-7065196 -331853,-7065241 -331782,-7065261 -331768,-7065265 -331736,-7065273 -331713,-7065279 -331670,-7065357 -331630,-7065427 -331561,-7065388 -331520,-7065365 -331465,-7065336 -331331,-7065367 -331305,-7065376 -331222,-7065407 -331209,-7065411 -331165,-7065425 -331168,-7065430 -331179,-7065456 -331233,-7065571 -331282,-7065675 -331297,-7065729 -331304,-7065750 -331316,-7065792 -331228,-7065938 -331208,-7065965 -331172,-7066020 -331171,-7066037 -331167,-7066078 -331159,-7066187 -331156,-7066187 -331058,-7066178 -330994,-7066171 -330996,-7066188 -330999,-7066245 -331015,-7066414 -331026,-7066516 -331028,-7066541 -331034,-7066619 -330955,-7066621 -330954,-7066658 -330926,-7066730 -330873,-7066878 -330833,-7066990 -330797,-7067091 -330795,-7067096 -330794,-7067158 -330798,-7067435 -330801,-7067697 -330802,-7067839 -330813,-7067843 -330815,-7067844 -330817,-7067851 -330846,-7067979 -330856,-7068026 -330873,-7068105 -330879,-7068145 -330892,-7068199 -330904,-7068244 -330942,-7068388 -330998,-7068571 -331007,-7068735 -331014,-7068785 -331024,-7068877 -331028,-7068921 -331030,-7068939 -331034,-7068990 -331041,-7069019 -331044,-7069058 -331025,-7069079 -330996,-7069111 -330964,-7069148 -330962,-7069153 -330953,-7069172 -330943,-7069183 -330892,-7069237 -330829,-7069312 -330798,-7069347 -330741,-7069410 -330727,-7069426 -330668,-7069493 -330668,-7069501 -330647,-7069529 -330606,-7069577 -330568,-7069617 -330571,-7069621 -330573,-7069624 -330571,-7069628 -330566,-7069637 -330575,-7069647 -330577,-7069648 -330584,-7069645 -330591,-7069644 -330602,-7069658 -330601,-7069660 -330594,-7069669 -330530,-7069741 -330443,-7069843 -330372,-7069930 -330316,-7069994 -330309,-7069995 -330296,-7069996 -330283,-7069997 -330240,-7070000 -330222,-7070003 -330219,-7069996 -330214,-7069997 -330185,-7070004 -330164,-7070009 -330092,-7070014 -329981,-7070025 -329885,-7070036 -329815,-7070053 -329791,-7070060 -329743,-7070084 -329719,-7070096 -329696,-7070072 -329605,-7070054 -329530,-7070041 -329525,-7070039 -329518,-7070036 -329520,-7069975 -329464,-7069975 -329427,-7069976 -329413,-7070004 -329391,-7070061 -329364,-7070133 -329355,-7070158 -329350,-7070186 -329343,-7070194 -329330,-7070197 -329297,-7070182 -329291,-7070179 -329273,-7070238 -329257,-7070296 -329246,-7070326 -329248,-7070345 -329249,-7070359 -329236,-7070389 -329228,-7070419 -329224,-7070431 -329191,-7070557 -329145,-7070740 -329112,-7070871 -329105,-7070915 -329094,-7070972 -329067,-7070963 -329042,-7070952 -329027,-7070939 -329018,-7070927 -329018,-7070866 -329018,-7070862 -328962,-7070861 -328931,-7070908 -328834,-7070886 -328813,-7070902 -328796,-7070913 -328784,-7070920 -328772,-7070925 -328764,-7070925 -328707,-7070927 -328604,-7070934 -328463,-7070951 -328366,-7070961 -328247,-7070971 -328156,-7070981 -328091,-7070843 -328079,-7070817 -328079,-7070818 -328076,-7070811 -327961,-7070966 -327780,-7070986 -327605,-7071002 -327460,-7071017 -327346,-7071026 -327260,-7071035 -327260,-7071044 -327261,-7071082 -327260,-7071088 -327174,-7071094 -327170,-7071094 -327168,-7071094 -327126,-7071097 -327076,-7071095 -327002,-7071103 -326813,-7071118 -326678,-7071129 -326664,-7071130 -326608,-7071132 -326544,-7071134 -326544,-7071129 -326539,-7071001 -326530,-7071003 -326384,-7071040 -326311,-7071061 -326308,-7071056 -326260,-7071069 -326149,-7071094 -326102,-7071096 -326099,-7071096 -326053,-7071102 -326031,-7071105 -325985,-7071112 -325973,-7071114 -325852,-7071155 -325971,-7071057 -325971,-7071057 -325901,-7071037 -325704,-7071142 -325591,-7071207 -325496,-7071256 -325422,-7071302 -325411,-7071308 -325344,-7071344 -325217,-7071206" stroke="#006747" stroke-width="52" /></ns0:svg>    <rect x="20" y="50"  width="250" height="25"  rx="0"  fill="#006747" fill-opacity="0.8" />    <text x="145" y="70" text-anchor="middle" font-family="Frutiger" font-weight="bold" font-size="30" fill="white">Liverpool</text>    <rect x="35" y="195" width="220" height="160" rx="15" fill="#78BE20"/>    <g font-family="Frutiger" font-size="15" fill="#231F20">        <g> <text x="45" y="218">Self-harm</text> <text x="245" y="218" text-anchor="end">40</text> </g>        <g> <text x="45" y="243">SEN</text> <text x="245" y="243" text-anchor="end">58</text> </g>        <g> <text x="45" y="268">Difficulties</text> <text x="245" y="268" text-anchor="end">56</text> </g>        <g> <text x="45" y="293">Child Carer</text> <text x="245" y="293" text-anchor="end">6</text> </g>        <g> <text x="45" y="318">Drinkers</text> <text x="245" y="318" text-anchor="end">30</text> </g>        <g> <text x="45" y="343">Safeguarding £</text> <text x="245" y="343" text-anchor="end">17</text> </g>    </g></svg>