<?xml version="1.0" standalone="no"?>
<!DOCTYPE svg PUBLIC "-//W3C//DTD SVG 1.1//EN"
"http://www.w3.org/Graphics/SVG/1.1/DTD/svg11.dtd">
<svg height="390" version="1.1" width="290" xmlns="http://www.w3.org/2000/svg"><defs><style type="text/css">@font-face {font-family: 'Frutiger';font-style: normal;font-weight: normal;src: local('Frutiger'), url('../fonts/Frutiger.woff') format('woff');}@font-face {font-family: 'Frutiger Bold';font-style: normal;font-weight: normal;src: local('Frutiger Bold'), url('../fonts/Frutiger_bold.woff') format('woff');}        </style>    </defs>    <rect x="20" y="20"  width="250" height="350" rx="15" fill="#005EB8" />    <rect x="35" y="35"  width="220" height="145" rx="15" fill="white" /><ns0:svg xmlns:ns0="http://www.w3.org/2000/svg" height="115" version="1.1" viewBox="-162169 -7078894 38033 39918" width="220" x="35" y="50"><ns0:polygon fill="#003087" points=" -152268,-7078848 -152163,-7078799 -151935,-7078692 -151769,-7078615 -151424,-7078454 -151410,-7078452 -151327,-7078467 -151192,-7078490 -151175,-7078493 -151026,-7078522 -150948,-7078533 -150802,-7078559 -150723,-7078569 -150638,-7078586 -150478,-7078613 -150431,-7078619 -150376,-7078632 -150312,-7078641 -150264,-7078636 -150154,-7078644 -150138,-7078645 -150089,-7078646 -149963,-7078651 -149830,-7078653 -149730,-7078645 -149713,-7078648 -149655,-7078668 -149581,-7078696 -149571,-7078708 -149558,-7078724 -149528,-7078733 -149473,-7078749 -149366,-7078784 -149322,-7078793 -149299,-7078794 -149225,-7078795 -149116,-7078792 -149022,-7078779 -148920,-7078767 -148836,-7078755 -148685,-7078727 -148565,-7078717 -148518,-7078717 -148484,-7078721 -148410,-7078731 -148250,-7078758 -148196,-7078765 -148140,-7078773 -148116,-7078773 -148107,-7078772 -148103,-7078772 -148091,-7078770 -148080,-7078767 -148065,-7078761 -148023,-7078742 -148002,-7078729 -147994,-7078722 -147994,-7078721 -147983,-7078710 -147968,-7078691 -147934,-7078640 -147899,-7078583 -147881,-7078553 -147865,-7078533 -147842,-7078519 -147756,-7078469 -147701,-7078437 -147687,-7078427 -147678,-7078422 -147661,-7078400 -147655,-7078384 -147655,-7078383 -147654,-7078382 -147647,-7078363 -147630,-7078344 -147610,-7078333 -147587,-7078343 -147579,-7078350 -147564,-7078366 -147515,-7078418 -147468,-7078468 -147459,-7078476 -147447,-7078481 -147364,-7078490 -147335,-7078490 -147309,-7078485 -147274,-7078475 -147263,-7078473 -147255,-7078474 -147226,-7078480 -147210,-7078486 -147198,-7078491 -147184,-7078500 -147167,-7078514 -147138,-7078542 -147108,-7078573 -147094,-7078589 -147069,-7078610 -147053,-7078619 -147051,-7078620 -147034,-7078629 -147012,-7078637 -146995,-7078640 -146970,-7078635 -146943,-7078628 -146916,-7078617 -146896,-7078600 -146882,-7078577 -146857,-7078540 -146829,-7078510 -146800,-7078490 -146771,-7078477 -146736,-7078469 -146677,-7078466 -146656,-7078467 -146623,-7078469 -146571,-7078471 -146534,-7078470 -146502,-7078456 -146472,-7078442 -146450,-7078438 -146416,-7078435 -146376,-7078439 -146351,-7078444 -146339,-7078447 -146320,-7078453 -146284,-7078475 -146248,-7078504 -146193,-7078554 -146178,-7078564 -146149,-7078582 -146113,-7078602 -146100,-7078607 -146101,-7078599 -146106,-7078564 -146115,-7078535 -146117,-7078505 -146110,-7078490 -146059,-7078419 -146041,-7078407 -145957,-7078297 -145961,-7078276 -145946,-7078249 -145945,-7078237 -145957,-7078159 -145980,-7078029 -145988,-7077977 -146009,-7077845 -146016,-7077799 -146026,-7077759 -146030,-7077687 -146035,-7077595 -146053,-7077517 -146058,-7077496 -146070,-7077480 -146074,-7077479 -146084,-7077476 -146088,-7077450 -146068,-7077462 -146080,-7077404 -146088,-7077369 -146106,-7077293 -146137,-7077031 -146172,-7076781 -146182,-7076711 -146195,-7076674 -146216,-7076591 -146212,-7076531 -146202,-7076465 -146188,-7076397 -146168,-7076332 -146151,-7076288 -146131,-7076232 -146099,-7076151 -146066,-7076065 -146025,-7075980 -145982,-7075890 -145973,-7075898 -145944,-7075844 -145829,-7075669 -145835,-7075638 -145761,-7075581 -145679,-7075526 -145622,-7075489 -145589,-7075471 -145568,-7075460 -145587,-7075424 -145529,-7075390 -145489,-7075363 -145376,-7075281 -145273,-7075207 -145138,-7075102 -145098,-7075067 -145047,-7075036 -144955,-7074976 -144916,-7074943 -144886,-7074914 -144863,-7074896 -144841,-7074887 -144851,-7074853 -144742,-7074792 -144638,-7074729 -144462,-7074660 -144337,-7074611 -144284,-7074589 -144284,-7074568 -144261,-7074560 -144249,-7074574 -144196,-7074534 -144174,-7074522 -144153,-7074515 -144096,-7074509 -144020,-7074501 -143888,-7074480 -143773,-7074470 -143783,-7074396 -143692,-7074370 -143681,-7074368 -143642,-7074360 -143597,-7074352 -143568,-7074350 -143497,-7074348 -143515,-7074232 -143547,-7074240 -143575,-7074255 -143608,-7074266 -143643,-7074268 -143644,-7074268 -143678,-7074271 -143698,-7074269 -143706,-7074267 -143715,-7074264 -143722,-7074262 -143730,-7074258 -143735,-7074256 -143745,-7074251 -143756,-7074245 -143760,-7074243 -143772,-7074224 -143777,-7074218 -143781,-7074214 -143797,-7074205 -143879,-7074135 -143890,-7074122 -143899,-7074106 -143903,-7074094 -143904,-7074076 -143863,-7074001 -143849,-7073965 -143847,-7073959 -143846,-7073946 -143852,-7073900 -143859,-7073883 -143863,-7073878 -143882,-7073861 -143901,-7073856 -143933,-7073842 -143945,-7073837 -143969,-7073821 -144008,-7073786 -144018,-7073775 -144025,-7073766 -144030,-7073758 -144037,-7073743 -144040,-7073726 -144040,-7073718 -144038,-7073705 -144019,-7073665 -143921,-7073508 -143912,-7073492 -143912,-7073448 -143914,-7073430 -143918,-7073418 -143922,-7073407 -143932,-7073391 -143957,-7073359 -143965,-7073351 -143976,-7073341 -143991,-7073331 -144014,-7073317 -144080,-7073285 -144210,-7073246 -144441,-7073182 -144461,-7073175 -144474,-7073172 -144487,-7073170 -144496,-7073169 -144523,-7073170 -144537,-7073169 -144562,-7073162 -144656,-7073151 -144670,-7073147 -144679,-7073143 -144695,-7073134 -144718,-7073113 -144793,-7073030 -144852,-7072955 -144858,-7072946 -144863,-7072932 -144869,-7072913 -144871,-7072903 -144869,-7072877 -144855,-7072811 -144850,-7072797 -144846,-7072791 -144839,-7072781 -144824,-7072767 -144812,-7072762 -144800,-7072759 -144794,-7072760 -144787,-7072762 -144764,-7072774 -144757,-7072780 -144743,-7072793 -144700,-7072843 -144691,-7072850 -144679,-7072858 -144672,-7072862 -144636,-7072877 -144622,-7072880 -144612,-7072881 -144599,-7072879 -144588,-7072876 -144569,-7072868 -144564,-7072864 -144561,-7072858 -144558,-7072849 -144556,-7072838 -144559,-7072792 -144565,-7072743 -144569,-7072693 -144571,-7072679 -144571,-7072667 -144570,-7072653 -144567,-7072638 -144562,-7072620 -144558,-7072609 -144551,-7072594 -144540,-7072580 -144531,-7072572 -144520,-7072564 -144500,-7072553 -144408,-7072523 -144353,-7072484 -144312,-7072449 -144303,-7072440 -144295,-7072430 -144287,-7072419 -144278,-7072403 -144271,-7072390 -144268,-7072381 -144267,-7072370 -144268,-7072364 -144272,-7072343 -144276,-7072334 -144304,-7072287 -144372,-7072166 -144378,-7072151 -144386,-7072131 -144391,-7072114 -144392,-7072102 -144392,-7072092 -144387,-7072070 -144382,-7072058 -144377,-7072046 -144351,-7071990 -144341,-7071974 -144335,-7071961 -144331,-7071946 -144329,-7071933 -144328,-7071921 -144329,-7071890 -144332,-7071840 -144336,-7071821 -144341,-7071803 -144347,-7071786 -144364,-7071752 -144367,-7071746 -144375,-7071739 -144383,-7071732 -144441,-7071697 -144497,-7071667 -144512,-7071660 -144522,-7071655 -144531,-7071648 -144540,-7071640 -144545,-7071634 -144555,-7071622 -144567,-7071602 -144575,-7071582 -144578,-7071572 -144579,-7071552 -144576,-7071506 -144574,-7071499 -144571,-7071491 -144567,-7071482 -144558,-7071471 -144547,-7071457 -144534,-7071445 -144517,-7071433 -144498,-7071420 -144461,-7071401 -144453,-7071398 -144382,-7071379 -144364,-7071420 -144271,-7071521 -144220,-7071579 -144158,-7071643 -143893,-7071739 -143767,-7071786 -143606,-7071849 -143409,-7071924 -142988,-7072085 -142862,-7072134 -142658,-7072211 -142643,-7072200 -142653,-7072190 -142727,-7072079 -142586,-7071985 -142557,-7072046 -142536,-7072074 -142516,-7072090 -142486,-7072107 -142468,-7072132 -142463,-7072126 -142407,-7072195 -142428,-7072212 -142402,-7072241 -142428,-7072243 -142441,-7072234 -142453,-7072236 -142476,-7072260 -142500,-7072288 -142505,-7072300 -142507,-7072322 -142346,-7072469 -142263,-7072540 -142215,-7072576 -142184,-7072587 -142185,-7072590 -142112,-7072616 -142074,-7072646 -142005,-7072747 -141971,-7072814 -141867,-7072775 -141843,-7072771 -141824,-7072776 -141806,-7072792 -141720,-7072965 -141775,-7073021 -141723,-7073050 -141691,-7073076 -141664,-7073128 -141651,-7073149 -141635,-7073164 -141594,-7073184 -141550,-7073208 -141532,-7073214 -141483,-7073261 -141436,-7073302 -141398,-7073349 -141378,-7073367 -141355,-7073376 -141340,-7073374 -141316,-7073336 -141307,-7073309 -141298,-7073302 -141263,-7073289 -141264,-7073285 -141217,-7073281 -141197,-7073274 -141179,-7073275 -141168,-7073282 -141164,-7073292 -141117,-7073239 -141075,-7073195 -141043,-7073174 -140990,-7073145 -140940,-7073120 -140912,-7073113 -140874,-7073104 -140860,-7073100 -140841,-7073090 -140807,-7073070 -140768,-7073042 -140740,-7073022 -140704,-7072994 -140676,-7072970 -140666,-7072962 -140644,-7072953 -140628,-7072953 -140590,-7072952 -140589,-7072949 -140588,-7072949 -140541,-7072948 -140451,-7072921 -140401,-7072897 -140353,-7072863 -140327,-7072841 -140229,-7072756 -140192,-7072729 -140096,-7072666 -140005,-7072610 -139965,-7072548 -139933,-7072510 -139902,-7072481 -139872,-7072463 -139831,-7072449 -139765,-7072436 -139740,-7072431 -139715,-7072446 -139691,-7072476 -139671,-7072510 -139621,-7072468 -139589,-7072432 -139549,-7072366 -139456,-7072212 -139369,-7072065 -139365,-7072058 -139284,-7071927 -139210,-7071803 -139141,-7071689 -139137,-7071673 -139147,-7071622 -139150,-7071596 -139158,-7071562 -139188,-7071485 -139237,-7071395 -139271,-7071335 -139325,-7071227 -139344,-7071202 -139410,-7071114 -139474,-7071043 -139584,-7070920 -139663,-7070837 -139733,-7070812 -139734,-7070745 -139719,-7070696 -139709,-7070695 -139729,-7070657 -139730,-7070654 -139733,-7070643 -139785,-7070558 -139795,-7070551 -139818,-7070509 -139868,-7070409 -139897,-7070339 -139936,-7070256 -139943,-7070253 -139985,-7070178 -140005,-7070044 -139999,-7070045 -139989,-7069951 -139988,-7069901 -139990,-7069858 -140013,-7069763 -140049,-7069666 -140074,-7069616 -140098,-7069586 -140115,-7069569 -140113,-7069564 -140137,-7069541 -140163,-7069513 -140171,-7069466 -140179,-7069390 -140186,-7069318 -140179,-7069270 -140164,-7069158 -140132,-7069021 -140116,-7068797 -140110,-7068715 -140105,-7068626 -140094,-7068505 -140130,-7068505 -140139,-7068497 -140130,-7068452 -140118,-7068430 -140095,-7068403 -140045,-7068353 -140011,-7068351 -139973,-7068353 -139943,-7068356 -139935,-7068297 -139921,-7068261 -139921,-7068237 -139931,-7068228 -139914,-7068216 -139898,-7068197 -139884,-7068174 -139877,-7068145 -139871,-7068095 -139866,-7068035 -139859,-7068018 -139775,-7067996 -139716,-7067955 -139539,-7067803 -139549,-7067788 -139542,-7067780 -139530,-7067796 -139493,-7067764 -139505,-7067738 -139385,-7067540 -139393,-7067529 -139384,-7067518 -139412,-7067491 -139601,-7067610 -139709,-7067674 -139800,-7067741 -139826,-7067761 -139860,-7067780 -139921,-7067809 -139935,-7067790 -139967,-7067768 -139988,-7067760 -140009,-7067755 -140046,-7067754 -140059,-7067709 -140063,-7067695 -140063,-7067650 -140057,-7067604 -140042,-7067555 -140021,-7067512 -139997,-7067477 -140003,-7067473 -140008,-7067469 -140008,-7067465 -140005,-7067436 -139979,-7067416 -139975,-7067401 -139976,-7067387 -139980,-7067361 -139969,-7067342 -139963,-7067327 -139964,-7067303 -139964,-7067294 -139957,-7067272 -139957,-7067261 -139959,-7067254 -139957,-7067245 -139945,-7067237 -139936,-7067224 -139931,-7067194 -139935,-7067186 -139934,-7067181 -139923,-7067173 -139927,-7067156 -139924,-7067136 -139894,-7067098 -139898,-7067085 -139880,-7067071 -139879,-7067063 -139861,-7067043 -139846,-7067029 -139812,-7067012 -139800,-7066996 -139779,-7066968 -139776,-7066958 -139771,-7066941 -139771,-7066925 -139761,-7066905 -139755,-7066859 -139757,-7066845 -139754,-7066829 -139733,-7066801 -139708,-7066759 -139692,-7066748 -139685,-7066731 -139668,-7066715 -139666,-7066709 -139643,-7066685 -139624,-7066685 -139614,-7066670 -139599,-7066672 -139587,-7066668 -139498,-7066578 -139471,-7066547 -139439,-7066520 -139395,-7066495 -139369,-7066465 -139350,-7066429 -139351,-7066416 -139370,-7066382 -139366,-7066359 -139373,-7066325 -139378,-7066298 -139404,-7066275 -139410,-7066246 -139399,-7066246 -139399,-7066239 -139414,-7066226 -139421,-7066213 -139423,-7066199 -139432,-7066190 -139435,-7066174 -139449,-7066167 -139450,-7066141 -139447,-7066137 -139431,-7066135 -139421,-7066132 -139421,-7066125 -139438,-7066121 -139440,-7066098 -139455,-7066078 -139455,-7066067 -139461,-7066059 -139471,-7066035 -139472,-7066024 -139489,-7065989 -139490,-7065971 -139497,-7065963 -139494,-7065947 -139496,-7065928 -139517,-7065908 -139518,-7065906 -139538,-7065878 -139552,-7065853 -139573,-7065806 -139571,-7065747 -139539,-7065678 -139530,-7065613 -139529,-7065581 -139544,-7065555 -139557,-7065529 -139562,-7065472 -139567,-7065407 -139564,-7065365 -139510,-7065264 -139479,-7065205 -139457,-7065180 -139433,-7065139 -139404,-7065110 -139387,-7065099 -139369,-7065080 -139363,-7065087 -139356,-7065079 -139351,-7065088 -139339,-7065079 -139333,-7065079 -139264,-7065089 -139264,-7065097 -139224,-7065092 -139233,-7064948 -139142,-7064951 -139010,-7064957 -138779,-7064967 -138562,-7064979 -138396,-7064987 -138266,-7064994 -138143,-7065003 -138141,-7064999 -138138,-7065003 -138073,-7065006 -138064,-7064995 -137909,-7065005 -137908,-7065012 -137838,-7065015 -137760,-7065020 -137755,-7064973 -137764,-7064947 -137789,-7064890 -137828,-7064785 -137851,-7064730 -137870,-7064668 -137896,-7064559 -137898,-7064543 -137916,-7064392 -137919,-7064360 -137921,-7064317 -137928,-7064263 -137937,-7064203 -137947,-7064170 -137952,-7064142 -137965,-7064104 -137998,-7064004 -138017,-7063931 -138025,-7063930 -138056,-7063815 -138057,-7063795 -138058,-7063790 -138058,-7063780 -138047,-7063775 -138012,-7063758 -137969,-7063667 -137972,-7063648 -137970,-7063628 -137958,-7063618 -137944,-7063598 -137927,-7063585 -137918,-7063576 -137893,-7063555 -137879,-7063539 -137840,-7063480 -137824,-7063450 -137780,-7063472 -137745,-7063485 -137713,-7063492 -137660,-7063501 -137630,-7063504 -137578,-7063513 -137542,-7063518 -137480,-7063536 -137466,-7063529 -137451,-7063528 -137407,-7063541 -137303,-7063571 -137262,-7063584 -137230,-7063593 -137221,-7063593 -137194,-7063588 -137180,-7063592 -137120,-7063593 -137078,-7063595 -137064,-7063594 -136923,-7063575 -136864,-7063575 -136815,-7063578 -136796,-7063573 -136792,-7063566 -136747,-7063573 -136669,-7063596 -136640,-7063603 -136610,-7063603 -136596,-7063613 -136580,-7063618 -136502,-7063625 -136436,-7063632 -136379,-7063635 -136337,-7063630 -136292,-7063622 -136245,-7063618 -136179,-7063616 -136164,-7063651 -136085,-7063653 -136087,-7063663 -136056,-7063667 -136029,-7063669 -135993,-7063680 -135961,-7063696 -135920,-7063731 -135859,-7063794 -135845,-7063802 -135689,-7063846 -135476,-7063877 -135421,-7063876 -135377,-7063870 -135361,-7063864 -135336,-7063844 -135330,-7063838 -135289,-7063795 -135253,-7063760 -135199,-7063715 -135132,-7063674 -135094,-7063658 -134983,-7063594 -134924,-7063562 -134891,-7063548 -134864,-7063529 -134850,-7063516 -134823,-7063491 -134787,-7063465 -134720,-7063424 -134708,-7063411 -134697,-7063395 -134694,-7063379 -134677,-7063360 -134671,-7063356 -134632,-7063334 -134588,-7063313 -134495,-7063282 -134440,-7063267 -134380,-7063257 -134319,-7063249 -134247,-7063249 -134197,-7063255 -134100,-7063251 -134024,-7063255 -133947,-7063266 -133916,-7063266 -133841,-7063268 -133786,-7063273 -133718,-7063267 -133635,-7063265 -133604,-7063274 -133544,-7063279 -133500,-7063275 -133450,-7063265 -133419,-7063260 -133384,-7063250 -133287,-7063226 -133249,-7063271 -133177,-7063348 -133163,-7063372 -133157,-7063384 -133148,-7063397 -133113,-7063449 -133096,-7063483 -133096,-7063499 -133103,-7063509 -133134,-7063530 -133138,-7063536 -133142,-7063557 -133143,-7063575 -133136,-7063643 -133136,-7063696 -133141,-7063739 -133147,-7063753 -133165,-7063788 -133175,-7063820 -133190,-7063901 -133189,-7063929 -133184,-7063993 -133183,-7064000 -133179,-7064010 -133163,-7064062 -133154,-7064078 -133139,-7064122 -133094,-7064219 -133072,-7064247 -133041,-7064269 -133038,-7064266 -132859,-7064140 -132822,-7064122 -132808,-7064121 -132791,-7064121 -132796,-7064060 -132804,-7063991 -132551,-7063953 -132512,-7063947 -132464,-7063941 -132385,-7063934 -132198,-7063920 -132114,-7063921 -132006,-7063920 -131999,-7063909 -132004,-7063896 -132008,-7063780 -132004,-7063746 -132004,-7063688 -132003,-7063641 -131969,-7063649 -131868,-7063645 -131789,-7063648 -131679,-7063657 -131605,-7063664 -131533,-7063682 -131535,-7063686 -131500,-7063698 -131499,-7063691 -131475,-7063700 -131406,-7063729 -131293,-7063780 -131250,-7063800 -131180,-7063828 -131127,-7063847 -131066,-7063864 -130996,-7063882 -130926,-7063895 -130867,-7063904 -130821,-7063909 -130819,-7063893 -130794,-7063898 -130799,-7063916 -130757,-7063933 -130739,-7063939 -130716,-7063944 -130700,-7063943 -130668,-7063933 -130539,-7063937 -130437,-7063941 -130373,-7063942 -130357,-7063940 -130343,-7063940 -130310,-7063935 -130276,-7063926 -130244,-7063912 -130214,-7063894 -130198,-7063881 -130172,-7063855 -130137,-7063807 -130132,-7063796 -130126,-7063785 -130120,-7063774 -130117,-7063767 -130099,-7063733 -130082,-7063698 -130077,-7063686 -130044,-7063600 -129999,-7063485 -129944,-7063340 -129944,-7063308 -129930,-7063308 -129912,-7063239 -129894,-7063183 -129879,-7063151 -129859,-7063118 -129837,-7063089 -129762,-7063021 -129705,-7062963 -129672,-7062926 -129639,-7062874 -129588,-7062770 -129572,-7062738 -129508,-7062648 -129448,-7062553 -129423,-7062505 -129423,-7062494 -129350,-7062351 -129308,-7062257 -129266,-7062159 -129237,-7062095 -129220,-7062048 -129203,-7061988 -129189,-7061937 -129181,-7061900 -129185,-7061880 -129150,-7061883 -129107,-7061880 -129019,-7061863 -128958,-7061857 -128926,-7061858 -128909,-7061863 -128883,-7061873 -128836,-7061900 -128793,-7061921 -128771,-7061925 -128709,-7061935 -128584,-7061946 -128441,-7061970 -128376,-7061980 -128299,-7061996 -128177,-7062034 -128113,-7062054 -128109,-7062052 -128060,-7062073 -128042,-7062083 -127960,-7062133 -127914,-7062157 -127859,-7062172 -127815,-7062177 -127739,-7062178 -127699,-7062185 -127633,-7062206 -127599,-7062211 -127576,-7062226 -127555,-7062252 -127510,-7062208 -127488,-7062190 -127463,-7062182 -127359,-7062177 -127333,-7062173 -127306,-7062165 -127218,-7062131 -127162,-7062109 -127075,-7062075 -127008,-7062052 -126995,-7062049 -126982,-7062046 -126980,-7062046 -126967,-7062044 -126929,-7062039 -126783,-7062039 -126703,-7062041 -126697,-7062045 -126684,-7062039 -126667,-7062039 -126543,-7062028 -126531,-7062004 -126461,-7061904 -126420,-7061838 -126442,-7061796 -126473,-7061752 -126532,-7061675 -126614,-7061583 -126687,-7061489 -126755,-7061384 -126811,-7061305 -126833,-7061279 -126878,-7061235 -126919,-7061208 -126946,-7061182 -126981,-7061140 -127039,-7061059 -127118,-7060933 -127172,-7060860 -127251,-7060762 -127281,-7060733 -127308,-7060706 -127323,-7060686 -127340,-7060645 -127368,-7060564 -127386,-7060502 -127398,-7060451 -127406,-7060425 -127432,-7060364 -127448,-7060322 -127452,-7060295 -127458,-7060235 -127464,-7060139 -127483,-7060059 -127489,-7059979 -127495,-7059913 -127500,-7059870 -127522,-7059785 -127543,-7059708 -127566,-7059634 -127556,-7059627 -127502,-7059626 -127458,-7059623 -127387,-7059617 -127336,-7059606 -127263,-7059589 -127133,-7059549 -127013,-7059515 -126906,-7059486 -126821,-7059473 -126769,-7059465 -126713,-7059454 -126614,-7059427 -126566,-7059412 -126520,-7059394 -126456,-7059363 -126405,-7059333 -126367,-7059303 -126327,-7059270 -126292,-7059228 -126276,-7059204 -126253,-7059170 -126210,-7059178 -126201,-7059145 -126183,-7059050 -126169,-7058965 -126098,-7058975 -126070,-7058999 -126051,-7059000 -126019,-7059012 -126004,-7059016 -125994,-7059014 -125982,-7059014 -125936,-7059027 -125933,-7059038 -125902,-7059040 -125889,-7059046 -125873,-7059043 -125849,-7059053 -125835,-7059042 -125819,-7059055 -125807,-7059045 -125793,-7059053 -125772,-7059050 -125764,-7059056 -125749,-7059057 -125728,-7059071 -125711,-7059067 -125703,-7059071 -125695,-7059081 -125683,-7059081 -125662,-7059086 -125652,-7059081 -125646,-7059069 -125622,-7059092 -125594,-7059093 -125576,-7059101 -125548,-7059100 -125509,-7059109 -125496,-7059101 -125489,-7059101 -125481,-7059107 -125477,-7059117 -125455,-7059127 -125448,-7059126 -125424,-7059114 -125101,-7059175 -125089,-7059182 -125072,-7059199 -125058,-7059208 -125046,-7059228 -125040,-7059233 -125032,-7059233 -125020,-7059226 -125004,-7059227 -124989,-7059231 -124979,-7059231 -124959,-7059243 -124920,-7059256 -124911,-7059265 -124898,-7059258 -124898,-7059246 -124839,-7059244 -124824,-7059240 -124793,-7059218 -124775,-7059234 -124775,-7059242 -124752,-7059241 -124739,-7059245 -124728,-7059240 -124713,-7059241 -124699,-7059249 -124669,-7059247 -124660,-7059253 -124644,-7059253 -124636,-7059258 -124624,-7059257 -124616,-7059241 -124583,-7059240 -124564,-7059247 -124557,-7059243 -124481,-7059374 -124460,-7059375 -124415,-7059333 -124406,-7059324 -124365,-7059305 -124343,-7059297 -124283,-7059263 -124248,-7059232 -124266,-7059207 -124261,-7059204 -124242,-7059195 -124236,-7059181 -124225,-7059144 -124212,-7059143 -124198,-7059123 -124216,-7059085 -124255,-7058987 -124257,-7058968 -124250,-7058965 -124262,-7058925 -124264,-7058858 -124261,-7058805 -124255,-7058780 -124237,-7058704 -124241,-7058704 -124229,-7058664 -124210,-7058597 -124191,-7058514 -124190,-7058477 -124191,-7058449 -124189,-7058437 -124193,-7058375 -124191,-7058318 -124186,-7058238 -124175,-7058136 -124167,-7058048 -124160,-7057997 -124153,-7057865 -124143,-7057800 -124139,-7057774 -124136,-7057680 -124136,-7057591 -124137,-7057565 -124142,-7057441 -124151,-7057371 -124163,-7057251 -124177,-7057149 -124187,-7057111 -124199,-7057066 -124207,-7057040 -124209,-7057032 -124216,-7057005 -124221,-7056977 -124223,-7056962 -124223,-7056949 -124223,-7056937 -124222,-7056924 -124221,-7056912 -124219,-7056899 -124217,-7056892 -124214,-7056880 -124210,-7056868 -124206,-7056856 -124193,-7056829 -124185,-7056807 -124190,-7056807 -124251,-7056819 -124287,-7056821 -124324,-7056839 -124367,-7056878 -124442,-7056901 -124511,-7056921 -124513,-7056927 -124589,-7056950 -124618,-7056967 -124715,-7056979 -124796,-7056991 -124827,-7056996 -124896,-7057004 -124990,-7057017 -124993,-7057012 -125006,-7056992 -125014,-7056964 -125056,-7056919 -125136,-7056821 -125181,-7056768 -125221,-7056714 -125247,-7056685 -125306,-7056627 -125345,-7056577 -125461,-7056451 -125516,-7056389 -125574,-7056302 -125604,-7056265 -125638,-7056230 -125675,-7056181 -125702,-7056136 -125706,-7056138 -125765,-7056159 -125794,-7056171 -125821,-7056184 -125853,-7056189 -125889,-7056196 -125959,-7056200 -125974,-7056165 -126016,-7056098 -126090,-7056006 -126148,-7055915 -126134,-7055906 -126119,-7055896 -126113,-7055893 -126137,-7055798 -126154,-7055729 -126155,-7055723 -126179,-7055742 -126223,-7055656 -126259,-7055578 -126282,-7055537 -126294,-7055500 -126303,-7055471 -126313,-7055422 -126082,-7055399 -125936,-7055382 -125929,-7055356 -125922,-7055288 -125914,-7055246 -125904,-7055191 -125897,-7055164 -125895,-7055135 -125909,-7055059 -125912,-7055024 -125911,-7054990 -125907,-7054960 -125912,-7054899 -125922,-7054840 -125925,-7054812 -125923,-7054791 -125913,-7054763 -125907,-7054725 -125896,-7054697 -125896,-7054636 -125904,-7054598 -125918,-7054556 -125940,-7054506 -126007,-7054432 -126030,-7054402 -126055,-7054358 -126063,-7054342 -126057,-7054240 -126080,-7054195 -126092,-7054157 -126104,-7054046 -126114,-7053989 -126129,-7053903 -126130,-7053896 -126111,-7053857 -126084,-7053802 -126051,-7053703 -126032,-7053666 -126024,-7053651 -126002,-7053629 -125963,-7053596 -125945,-7053577 -125936,-7053565 -125907,-7053525 -125902,-7053515 -125888,-7053483 -125883,-7053470 -125872,-7053452 -125853,-7053409 -125846,-7053391 -125847,-7053370 -125864,-7053324 -125871,-7053295 -125873,-7053265 -125895,-7053242 -125898,-7053232 -125901,-7053223 -125844,-7053195 -125826,-7053186 -125822,-7053184 -125790,-7053145 -125814,-7053054 -125818,-7052967 -125832,-7052898 -125836,-7052874 -125850,-7052772 -125894,-7052777 -125934,-7052781 -125974,-7052780 -126001,-7052781 -126002,-7052781 -126005,-7052720 -126005,-7052680 -126008,-7052647 -126014,-7052648 -126057,-7052655 -126142,-7052649 -126198,-7052641 -126212,-7052610 -126210,-7052597 -126193,-7052577 -126207,-7052559 -126227,-7052552 -126242,-7052548 -126249,-7052539 -126257,-7052510 -126253,-7052476 -126242,-7052438 -126229,-7052388 -126233,-7052360 -126251,-7052335 -126341,-7052295 -126415,-7052271 -126426,-7052268 -126446,-7052255 -126450,-7052251 -126461,-7052242 -126479,-7052225 -126487,-7052217 -126602,-7052185 -126680,-7052166 -126679,-7052158 -126705,-7052153 -126720,-7052151 -126755,-7052144 -126843,-7052135 -126885,-7052136 -126922,-7052138 -126944,-7052135 -126966,-7052125 -126986,-7052110 -126984,-7052092 -126970,-7052061 -126956,-7052000 -126954,-7051969 -126986,-7051929 -127024,-7051890 -127041,-7051877 -127044,-7051874 -127048,-7051871 -127052,-7051869 -127056,-7051867 -127060,-7051865 -127066,-7051866 -127075,-7051867 -127086,-7051869 -127116,-7051902 -127144,-7051929 -127167,-7051942 -127216,-7051969 -127231,-7051971 -127281,-7051968 -127325,-7051958 -127400,-7051935 -127408,-7051939 -127420,-7051946 -127451,-7051966 -127452,-7051964 -127477,-7051896 -127489,-7051854 -127531,-7051711 -127571,-7051571 -127575,-7051554 -127509,-7051535 -127417,-7051454 -127379,-7051416 -127373,-7051410 -127371,-7051318 -127372,-7051296 -127373,-7051267 -127374,-7051244 -127399,-7051209 -127415,-7051206 -127416,-7051206 -127418,-7051206 -127428,-7051204 -127463,-7051176 -127488,-7051139 -127511,-7051127 -127534,-7051100 -127565,-7051011 -127571,-7050994 -127565,-7050978 -127558,-7050959 -127621,-7050937 -127611,-7050800 -127608,-7050735 -127605,-7050702 -127598,-7050673 -127596,-7050646 -127599,-7050630 -127618,-7050605 -127568,-7050595 -127558,-7050592 -127523,-7050569 -127491,-7050530 -127482,-7050504 -127480,-7050498 -127279,-7050546 -127115,-7050586 -127089,-7050600 -127035,-7050611 -126995,-7050614 -126965,-7050625 -126962,-7050610 -126940,-7050527 -126933,-7050487 -126932,-7050451 -126931,-7050433 -126923,-7050387 -126917,-7050357 -126866,-7050293 -126840,-7050241 -126836,-7050234 -126837,-7050233 -126840,-7050227 -126848,-7050214 -126833,-7050177 -126813,-7050132 -126811,-7050127 -126790,-7050126 -126796,-7050031 -126815,-7049932 -126819,-7049888 -126819,-7049865 -126819,-7049841 -126812,-7049790 -126807,-7049726 -126804,-7049646 -126804,-7049610 -126804,-7049602 -126797,-7049602 -126796,-7049597 -126794,-7049560 -126786,-7049510 -126776,-7049452 -126765,-7049401 -126755,-7049349 -126749,-7049347 -126742,-7049284 -126740,-7049139 -126741,-7049104 -126856,-7049075 -126997,-7049050 -127158,-7049036 -127390,-7049006 -127455,-7048997 -127473,-7048990 -127486,-7048975 -127487,-7048964 -127491,-7048909 -127577,-7048894 -127723,-7048861 -127917,-7048814 -128085,-7048825 -128205,-7048839 -128224,-7048849 -128337,-7048925 -128418,-7048975 -128579,-7049074 -128699,-7049146 -128810,-7049204 -128956,-7049279 -129104,-7049352 -129347,-7049477 -129362,-7049440 -129370,-7049396 -129385,-7049321 -129414,-7049294 -129421,-7049279 -129422,-7049258 -129415,-7049246 -129414,-7049203 -129394,-7049191 -129396,-7049147 -129376,-7049142 -129366,-7049120 -129337,-7049105 -129332,-7049081 -129310,-7049065 -129326,-7048999 -129336,-7048980 -129333,-7048911 -129329,-7048882 -129348,-7048856 -129348,-7048819 -129348,-7048788 -129334,-7048777 -129339,-7048743 -129356,-7048723 -129369,-7048676 -129389,-7048651 -129387,-7048597 -129393,-7048593 -129387,-7048581 -129378,-7048543 -129376,-7048529 -129382,-7048510 -129387,-7048493 -129373,-7048481 -129378,-7048450 -129386,-7048440 -129394,-7048407 -129404,-7048403 -129404,-7048397 -129404,-7048387 -129410,-7048374 -129404,-7048351 -129399,-7048302 -129397,-7048296 -129370,-7048264 -129371,-7048251 -129367,-7048239 -129370,-7048225 -129360,-7048224 -129339,-7048225 -129337,-7048217 -129344,-7048211 -129346,-7048206 -129345,-7048189 -129333,-7048168 -129300,-7048170 -129289,-7048123 -129272,-7048119 -129260,-7048110 -129245,-7048098 -129224,-7048073 -129205,-7048072 -129191,-7048062 -129191,-7048036 -129183,-7048024 -129178,-7048011 -129140,-7048010 -129124,-7048005 -129117,-7047999 -129115,-7047997 -129121,-7047969 -129123,-7047950 -129120,-7047923 -129113,-7047912 -129113,-7047900 -129114,-7047881 -129113,-7047869 -129109,-7047855 -129109,-7047852 -129111,-7047848 -129119,-7047838 -129134,-7047836 -129141,-7047832 -129143,-7047821 -129144,-7047815 -129143,-7047810 -129142,-7047805 -129119,-7047770 -129116,-7047766 -129108,-7047751 -129090,-7047753 -129071,-7047747 -129062,-7047735 -129060,-7047733 -129053,-7047694 -129048,-7047672 -129044,-7047664 -129038,-7047660 -129012,-7047652 -129005,-7047649 -128999,-7047645 -128997,-7047642 -128988,-7047628 -128985,-7047625 -128963,-7047615 -128942,-7047606 -128942,-7047583 -128924,-7047574 -128925,-7047555 -128915,-7047544 -128908,-7047502 -128896,-7047498 -128889,-7047493 -128872,-7047446 -128875,-7047435 -128876,-7047426 -128876,-7047414 -128875,-7047411 -128872,-7047407 -128860,-7047397 -128852,-7047388 -128851,-7047372 -128863,-7047357 -128836,-7047328 -128831,-7047319 -128828,-7047313 -128826,-7047307 -128826,-7047300 -128824,-7047286 -128820,-7047268 -128817,-7047263 -128807,-7047255 -128793,-7047247 -128787,-7047240 -128782,-7047231 -128783,-7047209 -128791,-7047194 -128803,-7047169 -128803,-7047150 -128803,-7047146 -128800,-7047143 -128789,-7047124 -128791,-7047108 -128788,-7047096 -128790,-7047080 -128779,-7047064 -128764,-7047062 -128761,-7047063 -128738,-7047080 -128734,-7047080 -128729,-7047078 -128724,-7047074 -128721,-7047057 -128720,-7047054 -128716,-7047048 -128700,-7047036 -128691,-7047031 -128680,-7047027 -128667,-7047022 -128654,-7047028 -128635,-7047037 -128619,-7047038 -128602,-7047031 -128590,-7047029 -128562,-7047027 -128520,-7047030 -128507,-7047037 -128498,-7047033 -128486,-7047017 -128469,-7047003 -128457,-7046998 -128449,-7047001 -128445,-7047002 -128430,-7047016 -128429,-7047016 -128419,-7047018 -128403,-7047016 -128385,-7047019 -128379,-7047021 -128370,-7047026 -128357,-7047024 -128334,-7047012 -128328,-7047011 -128319,-7047010 -128314,-7047011 -128310,-7047013 -128293,-7047026 -128287,-7047030 -128281,-7047033 -128268,-7047039 -128240,-7047042 -128216,-7047041 -128177,-7047040 -128170,-7047039 -128166,-7047045 -128163,-7047048 -128160,-7047052 -128125,-7047053 -128121,-7047053 -128111,-7047064 -128107,-7047070 -128075,-7047089 -128064,-7047097 -128051,-7047096 -128035,-7047103 -128006,-7047103 -127993,-7047109 -127976,-7047123 -127969,-7047127 -127950,-7047130 -127934,-7047127 -127920,-7047122 -127905,-7047108 -127887,-7047111 -127867,-7047112 -127845,-7047123 -127838,-7047111 -127814,-7047109 -127807,-7047111 -127803,-7047114 -127794,-7047124 -127787,-7047128 -127770,-7047134 -127759,-7047136 -127751,-7047138 -127734,-7047152 -127718,-7047151 -127702,-7047156 -127670,-7047161 -127615,-7047164 -127598,-7047158 -127584,-7047168 -127562,-7047167 -127549,-7047174 -127544,-7047178 -127534,-7047182 -127507,-7047183 -127468,-7047207 -127466,-7047206 -127450,-7047199 -127428,-7047207 -127417,-7047220 -127416,-7047222 -127411,-7047237 -127383,-7047253 -127369,-7047252 -127345,-7047260 -127331,-7047271 -127302,-7047291 -127295,-7047296 -127267,-7047295 -127263,-7047296 -127231,-7047325 -127222,-7047334 -127216,-7047340 -127185,-7047339 -127171,-7047347 -127131,-7047375 -127105,-7047396 -127076,-7047405 -127055,-7047404 -127038,-7047400 -127016,-7047396 -127001,-7047386 -126996,-7047383 -126976,-7047374 -126965,-7047368 -126937,-7047356 -126936,-7047355 -126902,-7047253 -126877,-7047172 -126870,-7047146 -126832,-7047019 -126833,-7046986 -126809,-7046802 -126787,-7046610 -126761,-7046398 -126761,-7046395 -126774,-7046392 -126815,-7046374 -126869,-7046358 -126883,-7046352 -126919,-7046339 -126962,-7046328 -127005,-7046318 -127070,-7046313 -127280,-7046298 -127326,-7046294 -127377,-7046290 -127461,-7046285 -127489,-7046281 -127507,-7046273 -127520,-7046265 -127539,-7046252 -127581,-7046196 -127637,-7046124 -127662,-7046093 -127737,-7046007 -127784,-7045952 -127803,-7045929 -127833,-7045888 -127863,-7045859 -127865,-7045857 -127930,-7045812 -128018,-7045744 -128172,-7045629 -128173,-7045629 -128268,-7045559 -128392,-7045467 -128532,-7045366 -128700,-7045240 -128772,-7045181 -128831,-7045135 -128897,-7045073 -128954,-7045024 -128982,-7045000 -129005,-7044979 -129055,-7044935 -129062,-7044927 -129078,-7044908 -129091,-7044894 -129128,-7044847 -129141,-7044818 -129144,-7044805 -129148,-7044792 -129167,-7044747 -129184,-7044715 -129187,-7044708 -129196,-7044675 -129206,-7044644 -129214,-7044608 -129217,-7044580 -129219,-7044561 -129227,-7044481 -129364,-7044343 -129562,-7044139 -129567,-7044138 -129617,-7044137 -129660,-7044129 -129738,-7044115 -129779,-7044109 -129784,-7044108 -129791,-7044105 -129794,-7044104 -129824,-7044091 -129897,-7044047 -129914,-7044034 -129950,-7044002 -129984,-7043980 -130024,-7043959 -130046,-7043954 -130086,-7043948 -130121,-7043945 -130120,-7043914 -130157,-7043909 -130166,-7043882 -130197,-7043837 -130222,-7043823 -130215,-7043802 -130217,-7043794 -130219,-7043791 -130264,-7043772 -130271,-7043769 -130282,-7043762 -130289,-7043757 -130303,-7043743 -130327,-7043765 -130348,-7043765 -130359,-7043760 -130363,-7043757 -130370,-7043749 -130386,-7043697 -130386,-7043685 -130387,-7043681 -130396,-7043665 -130400,-7043650 -130400,-7043636 -130402,-7043633 -130404,-7043628 -130408,-7043625 -130419,-7043635 -130441,-7043678 -130460,-7043697 -130474,-7043705 -130487,-7043700 -130489,-7043687 -130488,-7043658 -130496,-7043650 -130519,-7043630 -130532,-7043623 -130536,-7043621 -130570,-7043609 -130582,-7043606 -130594,-7043603 -130600,-7043603 -130628,-7043600 -130642,-7043574 -130658,-7043536 -130661,-7043521 -130659,-7043496 -130660,-7043493 -130663,-7043490 -130675,-7043480 -130717,-7043487 -130719,-7043486 -130727,-7043483 -130754,-7043470 -130762,-7043469 -130777,-7043472 -130785,-7043473 -130798,-7043472 -130812,-7043468 -130817,-7043406 -130823,-7043401 -130839,-7043384 -130851,-7043370 -130856,-7043331 -130852,-7043306 -130838,-7043289 -130835,-7043275 -130839,-7043262 -130834,-7043250 -130818,-7043248 -130806,-7043247 -130799,-7043241 -130792,-7043231 -130786,-7043222 -130774,-7043179 -130769,-7043171 -130764,-7043166 -130748,-7043152 -130716,-7043149 -130711,-7043143 -130710,-7043141 -130710,-7043113 -130708,-7043102 -130706,-7043096 -130702,-7043090 -130694,-7043079 -130673,-7043069 -130636,-7043061 -130609,-7043047 -130575,-7043024 -130570,-7043013 -130569,-7042989 -130553,-7042967 -130540,-7042956 -130528,-7042955 -130517,-7042966 -130509,-7042979 -130497,-7042973 -130483,-7042956 -130482,-7042956 -130464,-7042934 -130470,-7042925 -130499,-7042930 -130519,-7042936 -130536,-7042938 -130556,-7042936 -130575,-7042926 -130643,-7042925 -130686,-7042919 -130758,-7042905 -130767,-7042903 -130751,-7042872 -130744,-7042859 -130715,-7042746 -130725,-7042714 -130742,-7042669 -130758,-7042666 -130794,-7042662 -130839,-7042663 -130888,-7042662 -130975,-7042667 -131042,-7042668 -131096,-7042665 -131136,-7042658 -131187,-7042649 -131222,-7042645 -131302,-7042627 -131350,-7042617 -131403,-7042604 -131431,-7042596 -131450,-7042591 -131533,-7042553 -131631,-7042515 -131708,-7042484 -131786,-7042455 -131870,-7042419 -131931,-7042394 -131973,-7042377 -132066,-7042340 -132092,-7042334 -132122,-7042334 -132148,-7042339 -132186,-7042348 -132242,-7042359 -132300,-7042373 -132337,-7042376 -132396,-7042377 -132448,-7042387 -132506,-7042397 -132505,-7042379 -132505,-7042375 -132493,-7042344 -132487,-7042327 -132483,-7042319 -132482,-7042316 -132502,-7042307 -132539,-7042291 -132545,-7042288 -132579,-7042280 -132631,-7042269 -132641,-7042265 -132640,-7042263 -132639,-7042216 -132646,-7042216 -132730,-7042214 -132733,-7042223 -132739,-7042221 -132739,-7042214 -132741,-7042169 -132752,-7042055 -132758,-7042041 -132764,-7042016 -132765,-7042010 -132777,-7041969 -132804,-7041908 -132825,-7041866 -132847,-7041820 -132870,-7041778 -132894,-7041734 -132923,-7041676 -132929,-7041657 -132934,-7041626 -132937,-7041594 -132940,-7041532 -132942,-7041478 -132953,-7041460 -132956,-7041454 -132956,-7041453 -132968,-7041448 -132978,-7041443 -132978,-7041437 -133025,-7041432 -133077,-7041435 -133083,-7041437 -133120,-7041444 -133150,-7041451 -133174,-7041440 -133210,-7041426 -133249,-7041419 -133272,-7041417 -133284,-7041400 -133311,-7041339 -133313,-7041337 -133345,-7041266 -133421,-7041096 -133530,-7040865 -133550,-7040820 -133553,-7040817 -133554,-7040814 -133567,-7040799 -133777,-7040338 -133920,-7040029 -133818,-7039811 -133873,-7039669 -133883,-7039610 -133909,-7039541 -133932,-7039483 -133943,-7039484 -133943,-7039470 -134134,-7039478 -134218,-7039482 -134323,-7039529 -134413,-7039572 -134443,-7039586 -134490,-7039609 -134638,-7039648 -134661,-7039661 -134675,-7039674 -134695,-7039671 -134725,-7039675 -134751,-7039685 -134766,-7039690 -134782,-7039688 -134783,-7039688 -134823,-7039700 -134841,-7039693 -134843,-7039694 -134862,-7039699 -134885,-7039686 -134906,-7039696 -134929,-7039696 -134945,-7039689 -134968,-7039685 -134975,-7039699 -135001,-7039695 -135014,-7039695 -135035,-7039685 -135054,-7039667 -135069,-7039665 -135082,-7039666 -135141,-7039650 -135144,-7039642 -135148,-7039634 -135152,-7039626 -135152,-7039625 -135153,-7039623 -135154,-7039621 -135155,-7039619 -135156,-7039617 -135158,-7039616 -135159,-7039615 -135162,-7039614 -135164,-7039613 -135166,-7039613 -135179,-7039605 -135206,-7039590 -135213,-7039587 -135274,-7039565 -135287,-7039560 -135315,-7039558 -135398,-7039542 -135406,-7039541 -135441,-7039541 -135456,-7039541 -135459,-7039539 -135484,-7039517 -135533,-7039497 -135539,-7039496 -135564,-7039494 -135585,-7039481 -135599,-7039481 -135618,-7039469 -135628,-7039469 -135635,-7039458 -135669,-7039438 -135688,-7039437 -135696,-7039433 -135710,-7039434 -135715,-7039443 -135735,-7039441 -135736,-7039435 -135753,-7039437 -135761,-7039444 -135796,-7039443 -135822,-7039456 -135843,-7039474 -135850,-7039500 -135860,-7039522 -135876,-7039531 -135897,-7039534 -135907,-7039546 -135923,-7039547 -135929,-7039556 -135943,-7039558 -135952,-7039576 -136012,-7039651 -136031,-7039654 -136092,-7039697 -136135,-7039720 -136148,-7039727 -136157,-7039733 -136187,-7039752 -136225,-7039785 -136238,-7039795 -136267,-7039816 -136353,-7039875 -136647,-7040078 -136926,-7040266 -136971,-7040278 -136999,-7040278 -137153,-7040237 -137179,-7040225 -137276,-7040152 -137379,-7040071 -137521,-7039961 -137592,-7039915 -137598,-7039914 -137613,-7039910 -137649,-7039892 -137682,-7039864 -137709,-7039837 -137724,-7039822 -137736,-7039806 -137749,-7039789 -137766,-7039759 -137791,-7039712 -137881,-7039537 -137884,-7039528 -137895,-7039513 -137917,-7039488 -137938,-7039464 -137965,-7039438 -138007,-7039404 -138084,-7039340 -138097,-7039321 -138114,-7039298 -138147,-7039249 -138199,-7039172 -138208,-7039143 -138252,-7039106 -138257,-7039093 -138270,-7039078 -138280,-7039071 -138308,-7039070 -138316,-7039061 -138331,-7039060 -138339,-7039059 -138342,-7039058 -138343,-7039043 -138345,-7039041 -138348,-7039031 -138357,-7039025 -138372,-7039024 -138397,-7039000 -138406,-7038990 -138434,-7038979 -138466,-7038976 -138475,-7038976 -138483,-7038980 -138505,-7038996 -138513,-7039000 -138520,-7039002 -138524,-7039002 -138560,-7038994 -138572,-7038995 -138586,-7038999 -138590,-7039002 -138593,-7039005 -138597,-7039016 -138599,-7039018 -138601,-7039020 -138614,-7039023 -138618,-7039025 -138630,-7039035 -138645,-7039043 -138651,-7039048 -138654,-7039052 -138673,-7039087 -138679,-7039097 -138694,-7039113 -138703,-7039121 -138722,-7039133 -138729,-7039136 -138754,-7039145 -138763,-7039149 -138788,-7039167 -138796,-7039170 -138813,-7039175 -138839,-7039177 -138884,-7039172 -138902,-7039179 -138913,-7039184 -138927,-7039181 -138938,-7039176 -138951,-7039175 -139052,-7039142 -139078,-7039133 -139110,-7039116 -139128,-7039092 -139144,-7039076 -139214,-7039048 -139235,-7039046 -139264,-7039035 -139276,-7039035 -139292,-7039037 -139309,-7039040 -139325,-7039040 -139371,-7039029 -139409,-7039024 -139436,-7039023 -139461,-7039019 -139526,-7039017 -139566,-7039016 -139623,-7039010 -139627,-7039010 -139636,-7039044 -139679,-7039092 -139707,-7039129 -139728,-7039141 -139745,-7039153 -139754,-7039159 -139769,-7039165 -139783,-7039170 -139827,-7039181 -139874,-7039197 -139896,-7039208 -139899,-7039210 -139905,-7039225 -139938,-7039243 -139967,-7039258 -139986,-7039276 -140011,-7039294 -140059,-7039319 -140101,-7039321 -140119,-7039321 -140126,-7039318 -140129,-7039318 -140153,-7039322 -140194,-7039335 -140282,-7039352 -140305,-7039364 -140333,-7039373 -140356,-7039390 -140384,-7039405 -140408,-7039418 -140420,-7039426 -140425,-7039430 -140449,-7039457 -140472,-7039478 -140493,-7039493 -140513,-7039501 -140522,-7039511 -140550,-7039543 -140595,-7039597 -140633,-7039622 -140668,-7039642 -140701,-7039667 -140724,-7039689 -140765,-7039710 -140783,-7039717 -140811,-7039722 -140857,-7039737 -140890,-7039729 -140946,-7039728 -140992,-7039734 -141022,-7039743 -141029,-7039744 -141106,-7039749 -141132,-7039767 -141167,-7039802 -141192,-7039829 -141195,-7039855 -141196,-7039866 -141203,-7039879 -141203,-7039913 -141199,-7039933 -141203,-7039976 -141214,-7039983 -141238,-7040031 -141250,-7040053 -141265,-7040074 -141286,-7040103 -141304,-7040123 -141307,-7040131 -141311,-7040139 -141314,-7040147 -141316,-7040156 -141318,-7040164 -141319,-7040167 -141320,-7040176 -141321,-7040184 -141321,-7040193 -141321,-7040197 -141321,-7040213 -141320,-7040229 -141320,-7040229 -141334,-7040250 -141333,-7040283 -141340,-7040303 -141342,-7040308 -141345,-7040317 -141342,-7040330 -141327,-7040343 -141328,-7040358 -141335,-7040378 -141359,-7040382 -141360,-7040376 -141360,-7040371 -141363,-7040371 -141442,-7040378 -141447,-7040378 -141447,-7040380 -141447,-7040393 -141466,-7040418 -141488,-7040411 -141489,-7040411 -141496,-7040419 -141510,-7040433 -141532,-7040439 -141534,-7040420 -141541,-7040419 -141548,-7040418 -141569,-7040436 -141586,-7040450 -141608,-7040467 -141631,-7040487 -141655,-7040505 -141670,-7040516 -141683,-7040531 -141691,-7040550 -141712,-7040557 -141749,-7040595 -141770,-7040611 -141776,-7040628 -141796,-7040634 -141807,-7040642 -141826,-7040646 -141833,-7040644 -141838,-7040638 -141844,-7040620 -141847,-7040616 -141857,-7040612 -141868,-7040600 -141885,-7040582 -141889,-7040571 -141894,-7040555 -141927,-7040524 -141970,-7040490 -141995,-7040470 -142019,-7040445 -142057,-7040416 -142071,-7040412 -142091,-7040400 -142140,-7040390 -142171,-7040387 -142177,-7040388 -142187,-7040389 -142234,-7040401 -142244,-7040402 -142280,-7040400 -142318,-7040402 -142351,-7040405 -142369,-7040407 -142400,-7040418 -142430,-7040425 -142503,-7040447 -142525,-7040450 -142540,-7040450 -142548,-7040450 -142568,-7040452 -142599,-7040460 -142627,-7040462 -142643,-7040462 -142712,-7040446 -142715,-7040449 -142765,-7040498 -142828,-7040572 -142832,-7040577 -142853,-7040578 -142856,-7040578 -142920,-7040656 -142933,-7040677 -142934,-7040701 -142970,-7040737 -143079,-7040846 -143161,-7040894 -143188,-7040906 -143231,-7040925 -143239,-7040921 -143255,-7040928 -143279,-7040925 -143425,-7040998 -143582,-7041077 -143740,-7041155 -143900,-7041233 -144010,-7041288 -144032,-7041302 -144053,-7041316 -144093,-7041343 -144119,-7041363 -144157,-7041395 -144188,-7041425 -144210,-7041454 -144234,-7041485 -144129,-7041528 -144156,-7041686 -144167,-7041789 -144174,-7041834 -144175,-7041857 -144179,-7041988 -144190,-7042104 -144194,-7042140 -144202,-7042186 -144205,-7042201 -144219,-7042250 -144228,-7042289 -144230,-7042324 -144235,-7042355 -144234,-7042385 -144233,-7042491 -144229,-7042528 -144222,-7042569 -144198,-7042675 -144190,-7042693 -144180,-7042709 -144177,-7042728 -144176,-7042743 -144168,-7042758 -144129,-7042810 -144112,-7042832 -144057,-7042890 -144048,-7042906 -144041,-7042928 -144018,-7042929 -144017,-7042929 -143966,-7042941 -143921,-7042956 -143897,-7042959 -143877,-7042956 -143859,-7042950 -143851,-7042940 -143847,-7042937 -143839,-7042938 -143826,-7042935 -143811,-7042938 -143794,-7042949 -143780,-7042956 -143764,-7042955 -143743,-7042951 -143728,-7042953 -143711,-7042962 -143702,-7042973 -143690,-7042981 -143676,-7042983 -143657,-7042981 -143648,-7042989 -143614,-7042995 -143602,-7043018 -143622,-7043052 -143631,-7043083 -143640,-7043101 -143629,-7043106 -143597,-7043120 -143588,-7043126 -143582,-7043139 -143568,-7043152 -143558,-7043171 -143555,-7043198 -143539,-7043221 -143525,-7043232 -143513,-7043282 -143507,-7043327 -143497,-7043348 -143485,-7043374 -143445,-7043570 -143498,-7043623 -143504,-7043629 -143530,-7043655 -143548,-7043672 -143596,-7043718 -143597,-7043720 -143667,-7043791 -143671,-7043795 -143700,-7043826 -143720,-7043847 -143719,-7043861 -143718,-7043869 -143726,-7043881 -143739,-7043896 -143752,-7043900 -143758,-7043902 -143760,-7043901 -143774,-7043890 -143788,-7043882 -143790,-7043882 -143798,-7043882 -143799,-7043890 -143795,-7043915 -143796,-7043930 -143804,-7043938 -143815,-7043945 -143847,-7043947 -143862,-7043965 -143880,-7043968 -143880,-7043982 -143902,-7043977 -143906,-7043976 -143906,-7043979 -143905,-7043988 -143915,-7043984 -143929,-7044003 -143939,-7044015 -143961,-7044028 -143964,-7044040 -143958,-7044052 -143955,-7044052 -143942,-7044055 -143930,-7044042 -143922,-7044041 -143921,-7044042 -143917,-7044047 -143953,-7044071 -143956,-7044084 -143973,-7044090 -143982,-7044096 -143986,-7044097 -143995,-7044098 -144014,-7044097 -144022,-7044090 -144042,-7044108 -144038,-7044114 -144019,-7044140 -144035,-7044137 -144055,-7044136 -144070,-7044140 -144076,-7044143 -144087,-7044152 -144091,-7044157 -144097,-7044168 -144100,-7044171 -144104,-7044173 -144112,-7044173 -144121,-7044176 -144123,-7044181 -144128,-7044204 -144133,-7044221 -144124,-7044256 -144157,-7044280 -144162,-7044287 -144169,-7044296 -144182,-7044294 -144203,-7044290 -144212,-7044290 -144214,-7044300 -144213,-7044304 -144211,-7044311 -144212,-7044328 -144208,-7044332 -144200,-7044341 -144208,-7044344 -144218,-7044343 -144229,-7044341 -144232,-7044334 -144229,-7044323 -144226,-7044312 -144233,-7044304 -144234,-7044303 -144240,-7044298 -144248,-7044304 -144250,-7044306 -144251,-7044316 -144248,-7044324 -144249,-7044327 -144252,-7044330 -144255,-7044331 -144258,-7044332 -144268,-7044321 -144283,-7044327 -144310,-7044327 -144319,-7044332 -144325,-7044336 -144327,-7044347 -144319,-7044349 -144313,-7044355 -144312,-7044363 -144315,-7044371 -144326,-7044385 -144338,-7044387 -144363,-7044386 -144378,-7044388 -144392,-7044395 -144389,-7044399 -144385,-7044406 -144382,-7044422 -144386,-7044432 -144402,-7044444 -144412,-7044452 -144413,-7044461 -144413,-7044463 -144415,-7044465 -144426,-7044477 -144427,-7044490 -144430,-7044496 -144442,-7044505 -144444,-7044511 -144442,-7044514 -144441,-7044519 -144428,-7044530 -144425,-7044539 -144440,-7044544 -144451,-7044550 -144457,-7044556 -144462,-7044563 -144490,-7044603 -144557,-7044681 -144575,-7044700 -144590,-7044722 -144601,-7044735 -144606,-7044741 -144612,-7044745 -144623,-7044751 -144630,-7044753 -144644,-7044714 -144700,-7044724 -144886,-7044736 -144890,-7044737 -144936,-7044743 -144961,-7044744 -145014,-7044759 -145045,-7044773 -145212,-7044873 -145276,-7044914 -145330,-7044946 -145380,-7044976 -145404,-7044976 -145446,-7044977 -145509,-7044977 -145540,-7044979 -145592,-7044980 -145666,-7044980 -145788,-7044998 -145856,-7045010 -145959,-7045028 -146043,-7045043 -146084,-7045050 -146064,-7044976 -146045,-7044876 -146024,-7044749 -146005,-7044748 -145995,-7044667 -145993,-7044668 -145849,-7044685 -145778,-7044685 -145760,-7044686 -145705,-7044688 -145693,-7044678 -145694,-7044670 -145744,-7044597 -145795,-7044638 -145809,-7044645 -145835,-7044647 -145861,-7044642 -145873,-7044637 -145885,-7044629 -145901,-7044608 -145912,-7044558 -145921,-7044528 -145958,-7044473 -145975,-7044436 -145986,-7044395 -145992,-7044367 -145991,-7044337 -145988,-7044320 -145975,-7044290 -145964,-7044272 -145945,-7044244 -145909,-7044189 -145888,-7044153 -145896,-7044152 -146071,-7044141 -146072,-7044151 -146147,-7044144 -146152,-7044154 -146163,-7044154 -146169,-7044116 -146184,-7044083 -146188,-7044064 -146186,-7044046 -146196,-7044035 -146204,-7044013 -146209,-7043995 -146214,-7043954 -146215,-7043952 -146239,-7043892 -146243,-7043883 -146237,-7043774 -146343,-7043660 -146380,-7043625 -146414,-7043614 -146442,-7043613 -146453,-7043674 -146484,-7043658 -146581,-7043617 -146602,-7043602 -146662,-7043574 -146704,-7043549 -146760,-7043529 -146805,-7043522 -146854,-7043511 -146880,-7043500 -146904,-7043492 -146958,-7043478 -147008,-7043470 -147048,-7043455 -147122,-7043434 -147130,-7043432 -147122,-7043452 -147117,-7043466 -147126,-7043469 -147132,-7043472 -147144,-7043478 -147133,-7043479 -147195,-7043803 -147197,-7043812 -147223,-7043810 -147274,-7043794 -147358,-7043746 -147355,-7043729 -147368,-7043727 -147373,-7043725 -147380,-7043746 -147390,-7043776 -147465,-7043734 -147471,-7043731 -147465,-7043783 -147474,-7043784 -147473,-7043793 -147467,-7043894 -147464,-7043980 -147461,-7044051 -147457,-7044106 -147452,-7044140 -147461,-7044295 -147492,-7044296 -147492,-7044305 -147474,-7044315 -147462,-7044324 -147468,-7044616 -147472,-7044739 -147486,-7044737 -147487,-7044787 -147470,-7044789 -147478,-7044932 -147488,-7044998 -147523,-7045150 -147557,-7045331 -147558,-7045382 -147555,-7045405 -147553,-7045436 -147566,-7045555 -147565,-7045568 -147561,-7045570 -147545,-7045579 -147553,-7045692 -147563,-7045812 -147572,-7045935 -147580,-7046054 -147589,-7046156 -147608,-7046376 -147632,-7046519 -147664,-7046648 -147689,-7046751 -147744,-7047023 -147785,-7047217 -147827,-7047424 -147872,-7047631 -147895,-7047736 -147903,-7047797 -148004,-7047782 -148064,-7047780 -148103,-7047788 -148129,-7047807 -148162,-7047836 -148170,-7047845 -148177,-7047855 -148184,-7047867 -148191,-7047890 -148194,-7047911 -148177,-7047991 -148174,-7048022 -148172,-7048061 -148157,-7048103 -148137,-7048149 -148122,-7048172 -148120,-7048191 -148124,-7048208 -148141,-7048236 -148172,-7048268 -148196,-7048290 -148232,-7048335 -148255,-7048374 -148263,-7048402 -148274,-7048442 -148286,-7048453 -148350,-7048448 -148376,-7048443 -148398,-7048430 -148453,-7048395 -148501,-7048382 -148560,-7048367 -148630,-7048354 -148655,-7048359 -148674,-7048368 -148692,-7048385 -148737,-7048444 -148847,-7048590 -148867,-7048609 -148891,-7048632 -148904,-7048642 -148910,-7048648 -148916,-7048656 -148917,-7048659 -148922,-7048669 -148928,-7048681 -148931,-7048693 -148937,-7048721 -148942,-7048789 -148943,-7048829 -148946,-7048850 -148950,-7048859 -148954,-7048869 -148961,-7048881 -148974,-7048898 -148998,-7048941 -149009,-7048965 -149023,-7049001 -149057,-7049083 -149083,-7049141 -149088,-7049164 -149116,-7049263 -149131,-7049319 -149142,-7049352 -149156,-7049385 -149163,-7049400 -149195,-7049453 -149202,-7049483 -149203,-7049495 -149203,-7049514 -149196,-7049540 -149199,-7049565 -149206,-7049587 -149226,-7049611 -149406,-7049789 -149444,-7049829 -149459,-7049844 -149493,-7049891 -149520,-7049923 -149534,-7049940 -149549,-7049955 -149570,-7049974 -149598,-7049997 -149642,-7050027 -149670,-7050048 -149742,-7050092 -149773,-7050134 -149799,-7050199 -149827,-7050260 -149840,-7050281 -149870,-7050323 -149893,-7050344 -149975,-7050425 -150116,-7050580 -150175,-7050650 -150256,-7050742 -150386,-7050902 -150438,-7050961 -150452,-7050982 -150477,-7051034 -150499,-7051082 -150516,-7051078 -150572,-7051065 -150588,-7051063 -150637,-7051057 -150671,-7051053 -150856,-7051056 -150856,-7051068 -150982,-7051067 -150982,-7051080 -151127,-7051081 -151297,-7051081 -151431,-7051094 -151425,-7051083 -151514,-7051097 -151572,-7051220 -151625,-7051344 -151670,-7051439 -151705,-7051509 -151752,-7051615 -151790,-7051717 -151811,-7051763 -151832,-7051789 -151835,-7051787 -151859,-7051829 -151870,-7051834 -151930,-7051903 -151984,-7051993 -152008,-7052065 -152074,-7052166 -152110,-7052212 -152174,-7052282 -152245,-7052355 -152323,-7052440 -152335,-7052439 -152433,-7052542 -152512,-7052645 -152563,-7052691 -152597,-7052721 -152615,-7052742 -152614,-7052751 -152669,-7052817 -152791,-7052947 -152844,-7053007 -152901,-7053078 -152940,-7053134 -152953,-7053149 -152967,-7053160 -153017,-7053192 -153068,-7053230 -153089,-7053248 -153114,-7053270 -153161,-7053317 -153227,-7053383 -153236,-7053387 -153243,-7053394 -153260,-7053411 -153274,-7053426 -153288,-7053466 -153290,-7053473 -153363,-7053559 -153447,-7053653 -153509,-7053712 -153605,-7053800 -153637,-7053827 -153736,-7053884 -153830,-7053942 -153910,-7053989 -154027,-7054050 -154119,-7054095 -154145,-7054106 -154249,-7054143 -154276,-7054150 -154342,-7054157 -154526,-7054158 -154630,-7054165 -154628,-7054201 -154635,-7054215 -154759,-7054218 -154797,-7054200 -154817,-7054201 -154838,-7054218 -154865,-7054218 -154889,-7054219 -154877,-7054258 -154864,-7054296 -154864,-7054323 -154826,-7054446 -154811,-7054503 -154803,-7054527 -154774,-7054596 -154744,-7054651 -154744,-7054687 -154728,-7054717 -154728,-7054731 -154678,-7054803 -154643,-7054851 -154606,-7054905 -154577,-7054944 -154550,-7054975 -154517,-7055008 -154469,-7055057 -154407,-7055117 -154340,-7055167 -154319,-7055188 -154304,-7055190 -154238,-7055234 -154238,-7055232 -154191,-7055257 -154177,-7055256 -154113,-7055298 -153947,-7055414 -153879,-7055461 -153824,-7055501 -153758,-7055555 -153712,-7055598 -153691,-7055621 -153683,-7055637 -153683,-7055660 -153673,-7055646 -153661,-7055636 -153644,-7055630 -153635,-7055629 -153602,-7055644 -153601,-7055653 -153594,-7055672 -153595,-7055689 -153603,-7055703 -153587,-7055723 -153553,-7055776 -153532,-7055799 -153518,-7055811 -153498,-7055820 -153453,-7055830 -153414,-7055837 -153383,-7055845 -153343,-7055864 -153308,-7055887 -153274,-7055910 -153246,-7055935 -153234,-7055947 -153220,-7055962 -153203,-7055993 -153175,-7056051 -153167,-7056076 -153158,-7056118 -153153,-7056151 -153153,-7056227 -153158,-7056253 -153166,-7056280 -153206,-7056351 -153231,-7056386 -153246,-7056403 -153313,-7056482 -153380,-7056550 -153405,-7056566 -153530,-7056737 -153507,-7056753 -153488,-7056772 -153490,-7056775 -153354,-7056925 -153318,-7056966 -153321,-7056972 -153299,-7056998 -153285,-7057017 -153285,-7057041 -153297,-7057077 -153319,-7057114 -153324,-7057132 -153333,-7057165 -153335,-7057188 -153502,-7057307 -153727,-7057467 -153817,-7057527 -153817,-7057527 -153813,-7057537 -153849,-7057670 -153862,-7057721 -153872,-7057751 -153895,-7057826 -153915,-7057882 -153959,-7057979 -153851,-7058042 -153817,-7058064 -153841,-7058200 -153851,-7058284 -153861,-7058292 -153904,-7058310 -153937,-7058342 -153949,-7058356 -153968,-7058391 -153997,-7058447 -154026,-7058503 -154079,-7058614 -154087,-7058634 -154100,-7058656 -154127,-7058682 -154136,-7058692 -154140,-7058705 -154168,-7058774 -154184,-7058842 -154187,-7058854 -154199,-7058872 -154214,-7058896 -154236,-7058949 -154243,-7058956 -154257,-7058998 -154265,-7059052 -154284,-7059111 -154296,-7059137 -154298,-7059159 -154305,-7059175 -154317,-7059194 -154318,-7059219 -154331,-7059254 -154353,-7059294 -154375,-7059333 -154388,-7059355 -154411,-7059380 -154427,-7059391 -154454,-7059406 -154486,-7059430 -154517,-7059457 -154535,-7059467 -154559,-7059493 -154569,-7059515 -154599,-7059550 -154642,-7059572 -154656,-7059577 -154692,-7059595 -154707,-7059606 -154729,-7059623 -154753,-7059654 -154771,-7059686 -154776,-7059702 -154785,-7059717 -154796,-7059747 -154797,-7059769 -154806,-7059782 -154808,-7059789 -154818,-7059842 -154820,-7059858 -154874,-7060001 -154915,-7060125 -154920,-7060154 -154920,-7060187 -154857,-7060287 -154790,-7060393 -154755,-7060433 -154721,-7060481 -154643,-7060656 -154661,-7060777 -154665,-7060808 -154730,-7060807 -154795,-7060801 -154850,-7060794 -154951,-7060779 -154982,-7060773 -155030,-7060764 -155036,-7060772 -155041,-7060780 -155071,-7060873 -155104,-7060985 -155127,-7061068 -155072,-7061082 -154912,-7061108 -154846,-7061119 -154679,-7061135 -154552,-7061149 -154488,-7061156 -154424,-7061164 -154367,-7061160 -154344,-7061163 -154309,-7061162 -154275,-7061162 -154274,-7061169 -154147,-7061169 -154112,-7061168 -154038,-7061184 -154038,-7061217 -153990,-7061224 -153960,-7061233 -153880,-7061261 -153880,-7061353 -153783,-7061382 -153799,-7061417 -153583,-7061516 -153622,-7061612 -153640,-7061659 -153630,-7061670 -153629,-7061743 -153657,-7061804 -153669,-7061819 -153669,-7061846 -153720,-7061872 -153802,-7061986 -153803,-7062045 -153805,-7062070 -153805,-7062084 -153812,-7062084 -153814,-7062084 -153813,-7062069 -153812,-7062040 -153849,-7062039 -153885,-7062041 -153884,-7062074 -153946,-7062067 -154136,-7062053 -154260,-7062044 -154364,-7062035 -154433,-7062024 -154455,-7062019 -154618,-7061974 -154767,-7061932 -154863,-7061906 -154944,-7061886 -154991,-7061879 -155035,-7061877 -155036,-7061849 -155074,-7061854 -155134,-7061862 -155178,-7061863 -155202,-7061863 -155226,-7061851 -155250,-7061838 -155275,-7061831 -155316,-7061826 -155348,-7061826 -155352,-7061825 -155357,-7061823 -155373,-7061810 -155387,-7061802 -155401,-7061794 -155426,-7061788 -155435,-7061838 -155433,-7061842 -155439,-7061862 -155440,-7061882 -155469,-7061897 -155498,-7061880 -155545,-7061967 -155660,-7061931 -155742,-7061896 -155735,-7061878 -155830,-7061837 -155941,-7061784 -156063,-7061720 -156162,-7061664 -156281,-7061585 -156400,-7061499 -156466,-7061448 -156558,-7061367 -156696,-7061238 -156793,-7061132 -156796,-7061137 -156851,-7061227 -156929,-7061346 -156929,-7061376 -156925,-7061394 -156912,-7061416 -156907,-7061424 -156920,-7061490 -156916,-7061505 -156931,-7061516 -156949,-7061542 -156954,-7061562 -156954,-7061582 -156969,-7061584 -157087,-7061656 -157120,-7061691 -157140,-7061762 -157178,-7061829 -157213,-7061938 -157266,-7062020 -157304,-7062068 -157384,-7062146 -157396,-7062161 -157452,-7062261 -157470,-7062286 -157489,-7062303 -157531,-7062323 -157549,-7062338 -157585,-7062395 -157602,-7062417 -157607,-7062508 -157672,-7062547 -157742,-7062685 -157781,-7062766 -157810,-7062766 -157825,-7062790 -157815,-7062809 -157815,-7062827 -157842,-7062853 -157847,-7062866 -157852,-7062891 -157860,-7062908 -157878,-7062933 -157919,-7062973 -157986,-7063034 -158061,-7063098 -158102,-7063132 -158147,-7063163 -158175,-7063186 -158210,-7063224 -158297,-7063298 -158428,-7063404 -158450,-7063424 -158483,-7063462 -158639,-7063605 -158703,-7063668 -158704,-7063669 -158796,-7063766 -158828,-7063811 -158872,-7063853 -158917,-7063893 -158961,-7063930 -159074,-7064021 -159198,-7064131 -159265,-7064192 -159396,-7064288 -159413,-7064304 -159454,-7064345 -159479,-7064376 -159555,-7064480 -159558,-7064483 -159600,-7064533 -159661,-7064604 -159660,-7064610 -159727,-7064676 -159814,-7064777 -159893,-7064871 -159915,-7064903 -159942,-7064947 -159974,-7065004 -160021,-7065091 -160136,-7065291 -160147,-7065302 -160171,-7065323 -160190,-7065346 -160233,-7065406 -160292,-7065502 -160335,-7065574 -160364,-7065629 -160384,-7065669 -160424,-7065737 -160470,-7065819 -160479,-7065843 -160506,-7065911 -160535,-7065965 -160569,-7066028 -160572,-7066052 -160584,-7066083 -160592,-7066087 -160609,-7066123 -160626,-7066164 -160641,-7066211 -160676,-7066327 -160698,-7066413 -160718,-7066480 -160741,-7066588 -160757,-7066668 -160768,-7066771 -160772,-7066823 -160772,-7066875 -160766,-7066920 -160772,-7067009 -160768,-7067220 -160769,-7067442 -160775,-7067480 -160774,-7067518 -160754,-7067595 -160735,-7067661 -160713,-7067729 -160727,-7067792 -160764,-7067867 -160785,-7067878 -160805,-7067895 -160822,-7067921 -160848,-7068003 -160876,-7068147 -160873,-7068148 -160902,-7068250 -160884,-7068288 -160929,-7068373 -160972,-7068462 -161000,-7068535 -161046,-7068682 -161073,-7068753 -161107,-7068820 -161154,-7068897 -161161,-7068907 -161182,-7068937 -161209,-7068974 -161223,-7069005 -161243,-7069045 -161276,-7069116 -161310,-7069188 -161345,-7069255 -161365,-7069309 -161393,-7069384 -161407,-7069432 -161444,-7069525 -161461,-7069557 -161473,-7069582 -161486,-7069626 -161508,-7069681 -161521,-7069716 -161540,-7069752 -161556,-7069793 -161571,-7069827 -161591,-7069851 -161607,-7069874 -161618,-7069891 -161639,-7069931 -161651,-7069951 -161672,-7069971 -161682,-7069990 -161697,-7070020 -161708,-7070049 -161724,-7070084 -161760,-7070161 -161789,-7070226 -161810,-7070270 -161824,-7070297 -161839,-7070335 -161861,-7070393 -161880,-7070436 -161903,-7070481 -161917,-7070518 -161932,-7070566 -161950,-7070612 -161969,-7070660 -161987,-7070724 -161998,-7070733 -161994,-7070740 -161996,-7070743 -162022,-7070780 -162088,-7070880 -162105,-7070913 -162117,-7070961 -162141,-7071024 -162169,-7071079 -161988,-7071237 -161976,-7071233 -161970,-7071238 -161967,-7071238 -161940,-7071277 -161896,-7071313 -161889,-7071308 -161884,-7071314 -161886,-7071316 -161870,-7071332 -161839,-7071365 -161731,-7071464 -161690,-7071498 -161662,-7071526 -161608,-7071580 -161524,-7071675 -161470,-7071761 -161472,-7071773 -161462,-7071795 -161452,-7071872 -161452,-7072009 -161458,-7072183 -161472,-7072360 -161485,-7072521 -161494,-7072614 -161499,-7072701 -161507,-7072720 -161548,-7072882 -161575,-7072982 -161606,-7073049 -161628,-7073109 -161658,-7073205 -161567,-7073273 -161410,-7073394 -161373,-7073423 -161262,-7073493 -161042,-7073626 -160925,-7073699 -160838,-7073752 -160795,-7073780 -160734,-7073833 -160686,-7073877 -160698,-7073892 -160711,-7073894 -160661,-7074003 -160646,-7074044 -160593,-7074145 -160559,-7074205 -160542,-7074231 -160525,-7074263 -160519,-7074269 -160498,-7074290 -160429,-7074354 -160417,-7074360 -160403,-7074361 -160393,-7074358 -160378,-7074348 -160262,-7074248 -160154,-7074154 -160059,-7074061 -159969,-7073990 -159966,-7073983 -159957,-7073982 -159933,-7073963 -159853,-7073893 -159811,-7073862 -159786,-7073852 -159767,-7073849 -159721,-7073842 -159662,-7073829 -159564,-7073796 -159521,-7073772 -159423,-7073701 -159394,-7073687 -159279,-7073609 -159220,-7073574 -159216,-7073566 -159205,-7073565 -159101,-7073498 -159026,-7073445 -158982,-7073406 -158960,-7073378 -158939,-7073413 -158895,-7073467 -158836,-7073545 -158805,-7073587 -158749,-7073667 -158755,-7073674 -158732,-7073730 -158733,-7073746 -158710,-7073841 -158690,-7073906 -158652,-7073959 -158611,-7074014 -158557,-7074073 -158520,-7074105 -158455,-7074145 -158410,-7074181 -158382,-7074204 -158341,-7074159 -158308,-7074115 -158064,-7074123 -158057,-7074140 -158054,-7074184 -158051,-7074265 -158056,-7074282 -158043,-7074320 -158051,-7074343 -158053,-7074390 -158027,-7074389 -158002,-7074375 -157982,-7074357 -157960,-7074373 -157905,-7074426 -157854,-7074476 -157808,-7074507 -157777,-7074537 -157747,-7074568 -157721,-7074569 -157716,-7074565 -157702,-7074572 -157682,-7074577 -157628,-7074604 -157581,-7074607 -157552,-7074615 -157536,-7074623 -157548,-7074658 -157553,-7074702 -157578,-7074746 -157578,-7074757 -157605,-7074772 -157643,-7074780 -157674,-7074782 -157698,-7074797 -157717,-7074819 -157723,-7074828 -157719,-7074839 -157700,-7074869 -157693,-7074882 -157685,-7074903 -157682,-7074983 -157667,-7075016 -157657,-7075028 -157648,-7075042 -157632,-7075054 -157561,-7075077 -157457,-7075112 -157459,-7075122 -157421,-7075148 -157368,-7075176 -157320,-7075209 -157283,-7075239 -157268,-7075244 -157228,-7075276 -157195,-7075297 -157158,-7075314 -157153,-7075316 -157113,-7075377 -157092,-7075400 -157084,-7075416 -157068,-7075423 -157050,-7075446 -157041,-7075474 -157011,-7075549 -156991,-7075595 -156980,-7075627 -156977,-7075661 -156927,-7075740 -157034,-7075791 -157091,-7075825 -157092,-7075820 -157110,-7075831 -157116,-7075842 -157200,-7075882 -157118,-7075999 -157081,-7076067 -157031,-7076207 -157017,-7076233 -156993,-7076287 -156990,-7076303 -156978,-7076332 -156926,-7076436 -156890,-7076516 -156867,-7076559 -156843,-7076594 -156807,-7076647 -156789,-7076661 -156771,-7076635 -156760,-7076643 -156749,-7076640 -156745,-7076634 -156727,-7076646 -156728,-7076651 -156713,-7076661 -156693,-7076678 -156705,-7076692 -156660,-7076728 -156670,-7076745 -156648,-7076773 -156616,-7076790 -156602,-7076793 -156509,-7076827 -156511,-7076832 -156464,-7076847 -156469,-7076884 -156468,-7076932 -156311,-7076946 -156213,-7076946 -156207,-7076952 -155972,-7076970 -155845,-7076979 -155704,-7076990 -155475,-7077006 -155449,-7077013 -155436,-7077017 -155451,-7077030 -155452,-7077032 -155462,-7077049 -155486,-7077059 -155512,-7077088 -155512,-7077091 -155409,-7077188 -155376,-7077216 -155357,-7077242 -155245,-7077320 -155113,-7077437 -154890,-7077621 -154777,-7077715 -154717,-7077766 -154694,-7077785 -154616,-7077854 -154584,-7077881 -154469,-7077983 -154464,-7077981 -154317,-7078108 -154203,-7078206 -154083,-7078299 -154040,-7078342 -154003,-7078375 -153845,-7078501 -153742,-7078597 -153722,-7078624 -153708,-7078637 -153631,-7078688 -153616,-7078684 -153603,-7078692 -153588,-7078693 -153582,-7078685 -153571,-7078700 -153549,-7078715 -153535,-7078726 -153515,-7078744 -153495,-7078740 -153464,-7078724 -153456,-7078713 -153447,-7078696 -153431,-7078691 -153423,-7078685 -153412,-7078683 -153396,-7078687 -153375,-7078710 -153298,-7078722 -153233,-7078727 -153175,-7078734 -153145,-7078734 -153122,-7078739 -152971,-7078747 -152960,-7078749 -152895,-7078757 -152783,-7078764 -152724,-7078772 -152688,-7078772 -152635,-7078779 -152571,-7078783 -152540,-7078761 -152475,-7078740 -152433,-7078720 -152430,-7078719 -152426,-7078727 -152427,-7078729 -152429,-7078732 -152410,-7078775 -152422,-7078788 -152415,-7078806 -152398,-7078808 -152392,-7078850 -152390,-7078850 -152385,-7078848 -152383,-7078874 -152381,-7078894 -152268,-7078848" stroke="#003087" stroke-width="77" /></ns0:svg>    <rect x="20" y="50"  width="250" height="25"  rx="0"  fill="#003087" fill-opacity="0.8" />    <text x="145" y="70" text-anchor="middle" font-family="Frutiger" font-weight="bold" font-size="30" fill="white">Rotherham</text>    <rect x="35" y="195" width="220" height="160" rx="15" fill="#41B6E6"/>    <g font-family="Frutiger" font-size="15" fill="white">        <g> <text x="45" y="218">Self-harm</text> <text x="245" y="218" text-anchor="end">23</text> </g>        <g> <text x="45" y="243">SEN</text> <text x="245" y="243" text-anchor="end">33</text> </g>        <g> <text x="45" y="268">Difficulties</text> <text x="245" y="268" text-anchor="end">77</text> </g>        <g> <text x="45" y="293">Child Carer</text> <text x="245" y="293" text-anchor="end">5</text> </g>        <g> <text x="45" y="318">Drinkers</text> <text x="245" y="318" text-anchor="end">81</text> </g>        <g> <text x="45" y="343">Safeguarding </text> <text x="245" y="343" text-anchor="end">62</text> </g>    </g></svg>