<?xml version="1.0" standalone="no"?>
<!DOCTYPE svg PUBLIC "-//W3C//DTD SVG 1.1//EN"
"http://www.w3.org/Graphics/SVG/1.1/DTD/svg11.dtd">
<svg height="390" version="1.1" width="290" xmlns="http://www.w3.org/2000/svg"><defs><style type="text/css">@font-face {font-family: 'Frutiger';font-style: normal;font-weight: normal;src: local('Frutiger'), url('../fonts/Frutiger.woff') format('woff');}@font-face {font-family: 'Frutiger Bold';font-style: normal;font-weight: normal;src: local('Frutiger Bold'), url('../fonts/Frutiger_bold.woff') format('woff');}        </style>    </defs>    <rect x="20" y="20"  width="250" height="350" rx="15" fill="#005EB8" />    <rect x="35" y="35"  width="220" height="145" rx="15" fill="white" /><ns0:svg xmlns:ns0="http://www.w3.org/2000/svg" height="115" version="1.1" viewBox="-150140 -7106255 53811 47847" width="220" x="35" y="50"><ns0:polygon fill="#003087" points=" -110236,-7105901 -110232,-7105834 -110226,-7105834 -110212,-7105834 -110204,-7105834 -110047,-7105833 -109785,-7105825 -109514,-7105825 -109273,-7105819 -108962,-7105811 -108814,-7105807 -108631,-7105803 -108229,-7105795 -107926,-7105786 -107637,-7105781 -107431,-7105773 -107335,-7105773 -107286,-7105765 -107067,-7105762 -106956,-7105762 -106811,-7105756 -106679,-7105753 -106621,-7105748 -106567,-7105750 -106497,-7105760 -106439,-7105764 -106386,-7105768 -106288,-7105780 -106210,-7105785 -106073,-7105789 -105914,-7105796 -105866,-7105798 -105819,-7105799 -105729,-7105797 -105669,-7105792 -105544,-7105771 -105506,-7105772 -105489,-7105774 -105479,-7105776 -105469,-7105781 -105458,-7105789 -105449,-7105799 -105443,-7105805 -105402,-7105864 -105139,-7105781 -105034,-7105736 -104961,-7105710 -104891,-7105681 -104754,-7105624 -104626,-7105570 -104409,-7105473 -104360,-7105450 -104202,-7105373 -104086,-7105313 -104032,-7105287 -103806,-7105178 -103716,-7105134 -103639,-7105101 -103456,-7105012 -103312,-7104945 -103206,-7104896 -103094,-7104830 -102990,-7104777 -102929,-7104749 -102776,-7104675 -102655,-7104620 -102477,-7104543 -102162,-7104402 -102044,-7104353 -101833,-7104260 -101747,-7104222 -101578,-7104145 -101488,-7104113 -101392,-7104071 -101324,-7104041 -100971,-7103889 -100902,-7103859 -100770,-7103798 -100720,-7103776 -100370,-7103624 -100176,-7103543 -100092,-7103504 -99918,-7103430 -99822,-7103382 -99674,-7103315 -99625,-7103293 -99267,-7103139 -99064,-7103050 -98902,-7102980 -98817,-7102942 -98534,-7102817 -98340,-7102734 -98264,-7102700 -97958,-7102564 -97797,-7102496 -97290,-7102271 -97113,-7102195 -96528,-7101936 -96415,-7101876 -96329,-7101838 -96436,-7101606 -96537,-7101390 -96904,-7100592 -96912,-7100574 -97092,-7100178 -97160,-7100031 -97268,-7099795 -97316,-7099688 -97422,-7099450 -97510,-7099247 -97564,-7099116 -97717,-7098793 -97867,-7098473 -97988,-7098206 -98122,-7097916 -98132,-7097920 -98287,-7097586 -98447,-7097236 -98573,-7096954 -98692,-7096693 -98739,-7096579 -98709,-7096517 -98712,-7096155 -98716,-7096012 -98715,-7095990 -98720,-7095673 -98720,-7095418 -98726,-7095140 -98728,-7094954 -98746,-7094918 -98786,-7094835 -98831,-7094719 -98924,-7094455 -99075,-7094037 -99192,-7093697 -99350,-7093275 -99490,-7092903 -99632,-7092517 -99750,-7092182 -99864,-7091876 -99956,-7091625 -99873,-7091595 -99768,-7091558 -99798,-7091388 -99815,-7091308 -99813,-7091296 -99810,-7091294 -99894,-7090893 -99972,-7090522 -100008,-7090347 -100010,-7090338 -100042,-7090188 -100108,-7089851 -100146,-7089669 -100164,-7089592 -100230,-7089272 -100272,-7089059 -100278,-7089034 -100303,-7088921 -100311,-7088897 -99971,-7088773 -99767,-7088700 -99719,-7088683 -99391,-7088562 -99307,-7088533 -99185,-7088491 -99270,-7088268 -99271,-7088266 -99272,-7088263 -99274,-7088261 -99276,-7088259 -99278,-7088258 -99281,-7088256 -99283,-7088256 -99286,-7088255 -99288,-7088256 -99291,-7088256 -99293,-7088257 -99296,-7088257 -99297,-7088258 -99444,-7088327 -99502,-7088353 -99505,-7088356 -99509,-7088356 -99515,-7088355 -99521,-7088354 -99526,-7088351 -99529,-7088349 -99531,-7088347 -99533,-7088344 -99535,-7088341 -99536,-7088338 -99538,-7088335 -99539,-7088333 -99547,-7088320 -99554,-7088307 -99560,-7088294 -99566,-7088280 -99571,-7088266 -99575,-7088252 -99578,-7088240 -99698,-7087910 -99841,-7087510 -99906,-7087329 -99958,-7087184 -100050,-7086918 -100079,-7086839 -100170,-7086586 -100206,-7086483 -100221,-7086448 -100219,-7086439 -100217,-7086431 -100223,-7086073 -100234,-7085707 -100240,-7085469 -100243,-7085318 -100324,-7085010 -100328,-7084996 -100168,-7084353 -100165,-7084345 -100160,-7084337 -99916,-7084110 -99774,-7083975 -99697,-7083900 -99688,-7083887 -99609,-7083711 -99481,-7083427 -99363,-7083163 -99331,-7083085 -99330,-7083081 -99328,-7083077 -99328,-7083076 -99327,-7083072 -99327,-7083068 -99326,-7083064 -99326,-7083062 -99326,-7083057 -99327,-7083051 -99328,-7083046 -99329,-7083040 -99331,-7083034 -99334,-7083028 -99336,-7083023 -99339,-7083017 -99343,-7083012 -99347,-7083008 -99351,-7083003 -99356,-7082999 -99360,-7082995 -99362,-7082994 -99418,-7082912 -99439,-7082881 -99442,-7082867 -99444,-7082865 -99534,-7082728 -99636,-7082576 -99644,-7082563 -99770,-7082371 -99888,-7082196 -99924,-7082179 -99972,-7082158 -99973,-7082158 -100036,-7082147 -100236,-7082132 -100601,-7082209 -101071,-7082315 -101099,-7082328 -101581,-7082278 -102121,-7082221 -102609,-7082169 -102999,-7082128 -103221,-7082023 -103615,-7081835 -104009,-7081650 -104325,-7081681 -104363,-7081690 -104654,-7081722 -105053,-7081762 -105250,-7081405 -105368,-7081143 -105314,-7081115 -105389,-7080764 -105445,-7080500 -105455,-7080446 -105475,-7080404 -105487,-7080378 -105492,-7080357 -105492,-7080341 -105489,-7080327 -105492,-7080316 -105498,-7080299 -105501,-7080280 -105501,-7080268 -105501,-7080254 -105545,-7080055 -105560,-7079967 -105576,-7079874 -105583,-7079838 -105571,-7079826 -105549,-7079802 -105521,-7079701 -105521,-7079678 -105530,-7079625 -105624,-7079206 -105711,-7078803 -105724,-7078732 -105732,-7078696 -105754,-7078581 -105294,-7078450 -104902,-7078343 -104303,-7078177 -103760,-7078022 -103825,-7077784 -103968,-7077273 -104169,-7076551 -104123,-7076534 -104146,-7076496 -104147,-7076497 -104149,-7076494 -104603,-7075721 -104888,-7075227 -105092,-7074872 -105096,-7074873 -105151,-7074784 -105237,-7074643 -105328,-7074484 -105498,-7074188 -105502,-7074173 -105645,-7073923 -105930,-7073427 -106116,-7073110 -106131,-7073102 -106619,-7072782 -106834,-7072642 -107149,-7072438 -107981,-7071893 -108131,-7071794 -108292,-7071688 -108555,-7071516 -108744,-7071397 -108744,-7071381 -109055,-7071329 -109194,-7071309 -109274,-7071295 -109336,-7071234 -109427,-7071147 -109554,-7071002 -109624,-7070906 -109675,-7070827 -109737,-7070745 -109758,-7070725 -109648,-7070485 -109504,-7070158 -109460,-7070046 -109477,-7069967 -109521,-7069755 -109554,-7069578 -109572,-7069451 -109647,-7069105 -109710,-7068796 -109788,-7068661 -109892,-7068486 -109996,-7068302 -110132,-7068065 -110131,-7068065 -110127,-7068062 -110406,-7067577 -110499,-7067423 -110612,-7067226 -110548,-7067167 -110443,-7067073 -110383,-7067020 -110364,-7067002 -110350,-7066997 -110337,-7066995 -110351,-7066963 -110362,-7066947 -110372,-7066934 -110431,-7066862 -110460,-7066827 -110475,-7066802 -110502,-7066767 -110538,-7066706 -110564,-7066652 -110612,-7066592 -110645,-7066531 -110671,-7066504 -110685,-7066474 -110696,-7066451 -110705,-7066426 -110718,-7066382 -110736,-7066313 -110743,-7066272 -110746,-7066247 -110742,-7066216 -110736,-7066173 -110740,-7066139 -110743,-7066131 -110760,-7066088 -110766,-7066074 -110783,-7066045 -110798,-7066025 -110803,-7066016 -110814,-7065993 -110836,-7065953 -110861,-7065892 -110866,-7065878 -110876,-7065852 -110888,-7065811 -110893,-7065798 -110914,-7065751 -110924,-7065735 -110934,-7065723 -110953,-7065697 -110977,-7065657 -110984,-7065640 -110989,-7065633 -110994,-7065626 -111001,-7065618 -111007,-7065613 -111019,-7065606 -111023,-7065600 -111027,-7065579 -111029,-7065565 -111029,-7065537 -111031,-7065518 -111041,-7065492 -111043,-7065487 -111043,-7065474 -111039,-7065450 -111039,-7065433 -111045,-7065388 -111041,-7065362 -111039,-7065355 -111036,-7065349 -111032,-7065342 -111024,-7065333 -111014,-7065323 -111002,-7065291 -111000,-7065274 -111000,-7065267 -111010,-7065192 -111019,-7065110 -111023,-7065082 -111033,-7065047 -111045,-7065016 -111059,-7064984 -111064,-7064970 -111066,-7064960 -111068,-7064930 -111084,-7064836 -111087,-7064817 -111086,-7064799 -111086,-7064763 -111091,-7064740 -111102,-7064685 -111120,-7064645 -111123,-7064639 -111127,-7064638 -111143,-7064631 -111149,-7064616 -111150,-7064588 -111150,-7064587 -111146,-7064584 -111136,-7064575 -111093,-7064570 -111065,-7064559 -111056,-7064555 -111011,-7064526 -110921,-7064466 -110902,-7064444 -110881,-7064421 -110865,-7064403 -110855,-7064327 -110847,-7064281 -110837,-7064230 -110848,-7064221 -110937,-7064157 -111009,-7064107 -111103,-7064048 -111156,-7064018 -111192,-7063994 -111226,-7063969 -111293,-7063915 -111335,-7063885 -111361,-7063869 -111373,-7063863 -111382,-7063859 -111392,-7063856 -111419,-7063851 -111482,-7063847 -111544,-7063845 -111625,-7063827 -111649,-7063818 -111668,-7063809 -111708,-7063787 -111719,-7063779 -111793,-7063713 -111814,-7063692 -111829,-7063679 -111847,-7063667 -111886,-7063645 -111909,-7063637 -111932,-7063631 -111944,-7063629 -111965,-7063627 -111980,-7063626 -112072,-7063630 -112119,-7063631 -112133,-7063632 -112164,-7063642 -112220,-7063656 -112247,-7063664 -112256,-7063666 -112265,-7063666 -112275,-7063665 -112285,-7063664 -112294,-7063662 -112302,-7063657 -112311,-7063648 -112316,-7063643 -112336,-7063618 -112361,-7063575 -112377,-7063532 -112400,-7063483 -112401,-7063481 -112409,-7063474 -112411,-7063471 -112420,-7063463 -112434,-7063457 -112444,-7063455 -112463,-7063453 -112488,-7063452 -112523,-7063455 -112538,-7063457 -112567,-7063462 -112628,-7063475 -112644,-7063479 -112655,-7063479 -112672,-7063477 -112688,-7063470 -112706,-7063458 -112727,-7063424 -112740,-7063387 -112745,-7063354 -112736,-7063287 -112708,-7063161 -112707,-7063138 -112708,-7063131 -112714,-7063070 -112725,-7063027 -112767,-7062889 -112814,-7062749 -112858,-7062604 -112886,-7062520 -112900,-7062467 -112911,-7062427 -112914,-7062413 -112920,-7062346 -112924,-7062306 -112916,-7062243 -113048,-7062279 -113166,-7062304 -113240,-7062320 -113272,-7062326 -113342,-7062330 -113394,-7062330 -113444,-7062312 -113475,-7062295 -113511,-7062285 -113540,-7062277 -113582,-7062269 -113604,-7062265 -113720,-7062254 -113816,-7062247 -113845,-7062131 -113898,-7061910 -113930,-7061925 -114056,-7061951 -114336,-7062004 -114337,-7062004 -114337,-7062026 -114341,-7062032 -114361,-7062040 -114390,-7062052 -114404,-7062064 -114413,-7062075 -114417,-7062080 -114482,-7062079 -114513,-7062064 -114564,-7062050 -114659,-7062038 -114709,-7062038 -114716,-7062038 -114699,-7062119 -114576,-7062604 -114576,-7062618 -114529,-7062802 -114566,-7062832 -114632,-7062886 -114647,-7062894 -114684,-7062889 -114703,-7062894 -114712,-7062899 -114723,-7062906 -114732,-7062914 -114737,-7062920 -114741,-7062927 -114744,-7062935 -114745,-7062944 -114745,-7062953 -114744,-7062961 -114742,-7062970 -114737,-7062983 -114764,-7063118 -114853,-7063097 -114891,-7063087 -114929,-7063077 -114969,-7063069 -115010,-7063068 -115111,-7063069 -115196,-7063068 -115351,-7063041 -115385,-7063034 -115416,-7063021 -115484,-7062997 -115572,-7062964 -115654,-7062938 -115697,-7062924 -115762,-7062903 -115801,-7062890 -115844,-7062871 -115878,-7062855 -115901,-7062842 -116047,-7062738 -116223,-7062615 -116283,-7062578 -116375,-7062538 -116813,-7062337 -116873,-7062306 -116999,-7062260 -117210,-7062168 -117296,-7062133 -117367,-7062107 -117429,-7062087 -117509,-7062069 -117516,-7062062 -117527,-7062060 -117538,-7062062 -117558,-7062058 -117588,-7062056 -117605,-7062058 -117634,-7062061 -117654,-7062064 -117670,-7062068 -117681,-7062071 -117686,-7062073 -117816,-7062118 -117936,-7062163 -118007,-7062187 -118166,-7062244 -118217,-7062264 -118384,-7062323 -118549,-7062381 -118563,-7062387 -118674,-7062428 -118872,-7062509 -118873,-7062510 -118882,-7062444 -118921,-7062451 -119003,-7062508 -119015,-7062517 -119040,-7062523 -119082,-7062530 -119101,-7062531 -119167,-7062547 -119197,-7062548 -119218,-7062556 -119237,-7062562 -119344,-7062568 -119403,-7062569 -119426,-7062572 -119448,-7062574 -119475,-7062572 -119491,-7062560 -119492,-7062560 -119530,-7062521 -119533,-7062518 -119550,-7062505 -119570,-7062487 -119605,-7062452 -119631,-7062432 -119634,-7062432 -119771,-7062413 -120137,-7062368 -120265,-7062351 -120273,-7062350 -120268,-7062333 -120255,-7062215 -120246,-7062144 -120241,-7062095 -120237,-7062069 -120228,-7062034 -120220,-7062006 -120213,-7061979 -120190,-7061912 -120158,-7061841 -120114,-7061740 -120111,-7061733 -120127,-7061592 -120131,-7061592 -120264,-7061599 -120302,-7061589 -120318,-7061584 -120326,-7061582 -120358,-7061550 -120360,-7061552 -120373,-7061567 -120393,-7061577 -120429,-7061592 -120477,-7061604 -120554,-7061614 -120595,-7061625 -120608,-7061633 -120637,-7061651 -120648,-7061663 -120659,-7061675 -120680,-7061713 -120686,-7061725 -120689,-7061747 -120689,-7061803 -120690,-7061817 -120701,-7061847 -120719,-7061870 -120744,-7061914 -120761,-7061965 -120766,-7061975 -120786,-7061994 -120799,-7062001 -120810,-7062013 -120832,-7062020 -120856,-7062024 -120942,-7062070 -121009,-7062103 -121068,-7062034 -121228,-7061847 -121367,-7061691 -121482,-7061560 -121534,-7061497 -121624,-7061394 -121663,-7061356 -121835,-7061212 -122222,-7060907 -122303,-7060847 -122310,-7060831 -122321,-7060807 -122327,-7060793 -122363,-7060713 -122437,-7060504 -122480,-7060404 -122532,-7060272 -122606,-7060109 -122651,-7060018 -122709,-7059883 -122803,-7059640 -122917,-7059366 -122936,-7059311 -122958,-7059276 -122963,-7059269 -122967,-7059257 -122974,-7059235 -123000,-7059179 -123012,-7059137 -123057,-7059037 -123126,-7058904 -123141,-7058879 -123204,-7058761 -123230,-7058710 -123269,-7058636 -123310,-7058549 -123326,-7058505 -123336,-7058493 -123354,-7058446 -123367,-7058430 -123383,-7058415 -123388,-7058409 -123398,-7058408 -123430,-7058425 -123468,-7058439 -123506,-7058452 -123511,-7058455 -123519,-7058460 -123525,-7058454 -123527,-7058452 -123624,-7058449 -123664,-7058447 -123701,-7058452 -123746,-7058465 -123809,-7058491 -123893,-7058539 -123950,-7058575 -124008,-7058610 -124074,-7058653 -124076,-7058655 -124188,-7058700 -124198,-7058702 -124210,-7058704 -124227,-7058704 -124237,-7058704 -124255,-7058780 -124261,-7058805 -124264,-7058858 -124262,-7058925 -124250,-7058965 -124257,-7058968 -124255,-7058987 -124216,-7059085 -124198,-7059123 -124212,-7059143 -124225,-7059144 -124236,-7059181 -124242,-7059195 -124261,-7059204 -124266,-7059207 -124248,-7059232 -124283,-7059263 -124343,-7059297 -124365,-7059305 -124406,-7059324 -124415,-7059333 -124460,-7059375 -124481,-7059374 -124557,-7059243 -124564,-7059247 -124583,-7059240 -124616,-7059241 -124624,-7059257 -124636,-7059258 -124644,-7059253 -124660,-7059253 -124669,-7059247 -124699,-7059249 -124713,-7059241 -124728,-7059240 -124739,-7059245 -124752,-7059241 -124775,-7059242 -124775,-7059234 -124793,-7059218 -124824,-7059240 -124839,-7059244 -124898,-7059246 -124898,-7059258 -124911,-7059265 -124920,-7059256 -124959,-7059243 -124979,-7059231 -124989,-7059231 -125004,-7059227 -125020,-7059226 -125032,-7059233 -125040,-7059233 -125046,-7059228 -125058,-7059208 -125072,-7059199 -125089,-7059182 -125101,-7059175 -125424,-7059114 -125448,-7059126 -125455,-7059127 -125477,-7059117 -125481,-7059107 -125489,-7059101 -125496,-7059101 -125509,-7059109 -125548,-7059100 -125576,-7059101 -125594,-7059093 -125622,-7059092 -125646,-7059069 -125652,-7059081 -125662,-7059086 -125683,-7059081 -125695,-7059081 -125703,-7059071 -125711,-7059067 -125728,-7059071 -125749,-7059057 -125764,-7059056 -125772,-7059050 -125793,-7059053 -125807,-7059045 -125819,-7059055 -125835,-7059042 -125849,-7059053 -125873,-7059043 -125889,-7059046 -125902,-7059040 -125933,-7059038 -125936,-7059027 -125982,-7059014 -125994,-7059014 -126004,-7059016 -126019,-7059012 -126051,-7059000 -126070,-7058999 -126098,-7058975 -126169,-7058965 -126183,-7059050 -126201,-7059145 -126210,-7059178 -126253,-7059170 -126276,-7059204 -126292,-7059228 -126327,-7059270 -126367,-7059303 -126405,-7059333 -126456,-7059363 -126520,-7059394 -126566,-7059412 -126614,-7059427 -126713,-7059454 -126769,-7059465 -126821,-7059473 -126906,-7059486 -127013,-7059515 -127133,-7059549 -127263,-7059589 -127336,-7059606 -127387,-7059617 -127458,-7059623 -127502,-7059626 -127556,-7059627 -127566,-7059634 -127543,-7059708 -127522,-7059785 -127500,-7059870 -127495,-7059913 -127489,-7059979 -127483,-7060059 -127464,-7060139 -127458,-7060235 -127452,-7060295 -127448,-7060322 -127432,-7060364 -127406,-7060425 -127398,-7060451 -127386,-7060502 -127368,-7060564 -127340,-7060645 -127323,-7060686 -127308,-7060706 -127281,-7060733 -127251,-7060762 -127172,-7060860 -127118,-7060933 -127039,-7061059 -126981,-7061140 -126946,-7061182 -126919,-7061208 -126878,-7061235 -126833,-7061279 -126811,-7061305 -126755,-7061384 -126687,-7061489 -126614,-7061583 -126532,-7061675 -126473,-7061752 -126442,-7061796 -126420,-7061838 -126461,-7061904 -126531,-7062004 -126543,-7062028 -126667,-7062039 -126684,-7062039 -126697,-7062045 -126703,-7062041 -126783,-7062039 -126929,-7062039 -126967,-7062044 -126980,-7062046 -126982,-7062046 -126995,-7062049 -127008,-7062052 -127075,-7062075 -127162,-7062109 -127218,-7062131 -127306,-7062165 -127333,-7062173 -127359,-7062177 -127463,-7062182 -127488,-7062190 -127510,-7062208 -127555,-7062252 -127576,-7062226 -127599,-7062211 -127633,-7062206 -127699,-7062185 -127739,-7062178 -127815,-7062177 -127859,-7062172 -127914,-7062157 -127960,-7062133 -128042,-7062083 -128060,-7062073 -128109,-7062052 -128113,-7062054 -128177,-7062034 -128299,-7061996 -128376,-7061980 -128441,-7061970 -128584,-7061946 -128709,-7061935 -128771,-7061925 -128793,-7061921 -128836,-7061900 -128883,-7061873 -128909,-7061863 -128926,-7061858 -128958,-7061857 -129019,-7061863 -129107,-7061880 -129150,-7061883 -129185,-7061880 -129181,-7061900 -129189,-7061937 -129203,-7061988 -129220,-7062048 -129237,-7062095 -129266,-7062159 -129308,-7062257 -129350,-7062351 -129423,-7062494 -129423,-7062505 -129448,-7062553 -129508,-7062648 -129572,-7062738 -129588,-7062770 -129639,-7062874 -129672,-7062926 -129705,-7062963 -129762,-7063021 -129837,-7063089 -129859,-7063118 -129879,-7063151 -129894,-7063183 -129912,-7063239 -129930,-7063308 -129944,-7063308 -129944,-7063340 -129999,-7063485 -130044,-7063600 -130077,-7063686 -130082,-7063698 -130099,-7063733 -130117,-7063767 -130120,-7063774 -130126,-7063785 -130132,-7063796 -130137,-7063807 -130172,-7063855 -130198,-7063881 -130214,-7063894 -130244,-7063912 -130276,-7063926 -130310,-7063935 -130343,-7063940 -130357,-7063940 -130373,-7063942 -130437,-7063941 -130539,-7063937 -130668,-7063933 -130700,-7063943 -130716,-7063944 -130739,-7063939 -130757,-7063933 -130799,-7063916 -130794,-7063898 -130819,-7063893 -130821,-7063909 -130867,-7063904 -130926,-7063895 -130996,-7063882 -131066,-7063864 -131127,-7063847 -131180,-7063828 -131250,-7063800 -131293,-7063780 -131406,-7063729 -131475,-7063700 -131499,-7063691 -131500,-7063698 -131535,-7063686 -131533,-7063682 -131605,-7063664 -131679,-7063657 -131789,-7063648 -131868,-7063645 -131969,-7063649 -132003,-7063641 -132004,-7063688 -132004,-7063746 -132008,-7063780 -132004,-7063896 -131999,-7063909 -132006,-7063920 -132114,-7063921 -132198,-7063920 -132385,-7063934 -132464,-7063941 -132512,-7063947 -132551,-7063953 -132804,-7063991 -132796,-7064060 -132791,-7064121 -132808,-7064121 -132822,-7064122 -132859,-7064140 -133038,-7064266 -133041,-7064269 -133072,-7064247 -133094,-7064219 -133139,-7064122 -133154,-7064078 -133163,-7064062 -133179,-7064010 -133183,-7064000 -133184,-7063993 -133189,-7063929 -133190,-7063901 -133175,-7063820 -133165,-7063788 -133147,-7063753 -133141,-7063739 -133136,-7063696 -133136,-7063643 -133143,-7063575 -133142,-7063557 -133138,-7063536 -133134,-7063530 -133103,-7063509 -133096,-7063499 -133096,-7063483 -133113,-7063449 -133148,-7063397 -133157,-7063384 -133163,-7063372 -133177,-7063348 -133249,-7063271 -133287,-7063226 -133384,-7063250 -133419,-7063260 -133450,-7063265 -133500,-7063275 -133544,-7063279 -133604,-7063274 -133635,-7063265 -133718,-7063267 -133786,-7063273 -133841,-7063268 -133916,-7063266 -133947,-7063266 -134024,-7063255 -134100,-7063251 -134197,-7063255 -134247,-7063249 -134319,-7063249 -134380,-7063257 -134440,-7063267 -134495,-7063282 -134588,-7063313 -134632,-7063334 -134671,-7063356 -134677,-7063360 -134694,-7063379 -134697,-7063395 -134708,-7063411 -134720,-7063424 -134787,-7063465 -134823,-7063491 -134850,-7063516 -134864,-7063529 -134891,-7063548 -134924,-7063562 -134983,-7063594 -135094,-7063658 -135132,-7063674 -135199,-7063715 -135253,-7063760 -135289,-7063795 -135330,-7063838 -135336,-7063844 -135361,-7063864 -135377,-7063870 -135421,-7063876 -135476,-7063877 -135689,-7063846 -135845,-7063802 -135859,-7063794 -135920,-7063731 -135961,-7063696 -135993,-7063680 -136029,-7063669 -136056,-7063667 -136087,-7063663 -136085,-7063653 -136164,-7063651 -136179,-7063616 -136245,-7063618 -136292,-7063622 -136337,-7063630 -136379,-7063635 -136436,-7063632 -136502,-7063625 -136580,-7063618 -136596,-7063613 -136610,-7063603 -136640,-7063603 -136669,-7063596 -136747,-7063573 -136792,-7063566 -136796,-7063573 -136815,-7063578 -136864,-7063575 -136923,-7063575 -137064,-7063594 -137078,-7063595 -137120,-7063593 -137180,-7063592 -137194,-7063588 -137221,-7063593 -137230,-7063593 -137262,-7063584 -137303,-7063571 -137407,-7063541 -137451,-7063528 -137466,-7063529 -137480,-7063536 -137542,-7063518 -137578,-7063513 -137630,-7063504 -137660,-7063501 -137713,-7063492 -137745,-7063485 -137780,-7063472 -137824,-7063450 -137840,-7063480 -137879,-7063539 -137893,-7063555 -137918,-7063576 -137927,-7063585 -137944,-7063598 -137958,-7063618 -137970,-7063628 -137972,-7063648 -137969,-7063667 -138012,-7063758 -138047,-7063775 -138058,-7063780 -138058,-7063790 -138057,-7063795 -138056,-7063815 -138025,-7063930 -138017,-7063931 -137998,-7064004 -137965,-7064104 -137952,-7064142 -137947,-7064170 -137937,-7064203 -137928,-7064263 -137921,-7064317 -137919,-7064360 -137916,-7064392 -137898,-7064543 -137896,-7064559 -137870,-7064668 -137851,-7064730 -137828,-7064785 -137789,-7064890 -137764,-7064947 -137755,-7064973 -137760,-7065020 -137838,-7065015 -137908,-7065012 -137909,-7065005 -138064,-7064995 -138073,-7065006 -138138,-7065003 -138141,-7064999 -138143,-7065003 -138266,-7064994 -138396,-7064987 -138562,-7064979 -138779,-7064967 -139010,-7064957 -139142,-7064951 -139233,-7064948 -139224,-7065092 -139264,-7065097 -139264,-7065089 -139333,-7065079 -139339,-7065079 -139351,-7065088 -139356,-7065079 -139363,-7065087 -139369,-7065080 -139387,-7065099 -139404,-7065110 -139433,-7065139 -139457,-7065180 -139479,-7065205 -139510,-7065264 -139564,-7065365 -139567,-7065407 -139562,-7065472 -139557,-7065529 -139544,-7065555 -139529,-7065581 -139530,-7065613 -139539,-7065678 -139571,-7065747 -139573,-7065806 -139552,-7065853 -139538,-7065878 -139518,-7065906 -139517,-7065908 -139496,-7065928 -139494,-7065947 -139497,-7065963 -139490,-7065971 -139489,-7065989 -139472,-7066024 -139471,-7066035 -139461,-7066059 -139455,-7066067 -139455,-7066078 -139440,-7066098 -139438,-7066121 -139421,-7066125 -139421,-7066132 -139431,-7066135 -139447,-7066137 -139450,-7066141 -139449,-7066167 -139435,-7066174 -139432,-7066190 -139423,-7066199 -139421,-7066213 -139414,-7066226 -139399,-7066239 -139399,-7066246 -139410,-7066246 -139404,-7066275 -139378,-7066298 -139373,-7066325 -139366,-7066359 -139370,-7066382 -139351,-7066416 -139350,-7066429 -139369,-7066465 -139395,-7066495 -139439,-7066520 -139471,-7066547 -139498,-7066578 -139587,-7066668 -139599,-7066672 -139614,-7066670 -139624,-7066685 -139643,-7066685 -139666,-7066709 -139668,-7066715 -139685,-7066731 -139692,-7066748 -139708,-7066759 -139733,-7066801 -139754,-7066829 -139757,-7066845 -139755,-7066859 -139761,-7066905 -139771,-7066925 -139771,-7066941 -139776,-7066958 -139779,-7066968 -139800,-7066996 -139812,-7067012 -139846,-7067029 -139861,-7067043 -139879,-7067063 -139880,-7067071 -139898,-7067085 -139894,-7067098 -139924,-7067136 -139927,-7067156 -139923,-7067173 -139934,-7067181 -139935,-7067186 -139931,-7067194 -139936,-7067224 -139945,-7067237 -139957,-7067245 -139959,-7067254 -139957,-7067261 -139957,-7067272 -139964,-7067294 -139964,-7067303 -139963,-7067327 -139969,-7067342 -139980,-7067361 -139976,-7067387 -139975,-7067401 -139979,-7067416 -140005,-7067436 -140008,-7067465 -140008,-7067469 -140003,-7067473 -139997,-7067477 -140021,-7067512 -140042,-7067555 -140057,-7067604 -140063,-7067650 -140063,-7067695 -140059,-7067709 -140046,-7067754 -140009,-7067755 -139988,-7067760 -139967,-7067768 -139935,-7067790 -139921,-7067809 -139860,-7067780 -139826,-7067761 -139800,-7067741 -139709,-7067674 -139601,-7067610 -139412,-7067491 -139384,-7067518 -139393,-7067529 -139385,-7067540 -139505,-7067738 -139493,-7067764 -139530,-7067796 -139542,-7067780 -139549,-7067788 -139539,-7067803 -139716,-7067955 -139775,-7067996 -139859,-7068018 -139866,-7068035 -139871,-7068095 -139877,-7068145 -139884,-7068174 -139898,-7068197 -139914,-7068216 -139931,-7068228 -139921,-7068237 -139921,-7068261 -139935,-7068297 -139943,-7068356 -139973,-7068353 -140011,-7068351 -140045,-7068353 -140095,-7068403 -140118,-7068430 -140130,-7068452 -140139,-7068497 -140130,-7068505 -140094,-7068505 -140105,-7068626 -140110,-7068715 -140116,-7068797 -140132,-7069021 -140164,-7069158 -140179,-7069270 -140186,-7069318 -140179,-7069390 -140171,-7069466 -140163,-7069513 -140137,-7069541 -140113,-7069564 -140115,-7069569 -140098,-7069586 -140074,-7069616 -140049,-7069666 -140013,-7069763 -139990,-7069858 -139988,-7069901 -139989,-7069951 -139999,-7070045 -140005,-7070044 -139985,-7070178 -139943,-7070253 -139936,-7070256 -139897,-7070339 -139868,-7070409 -139818,-7070509 -139795,-7070551 -139785,-7070558 -139733,-7070643 -139730,-7070654 -139729,-7070657 -139709,-7070695 -139719,-7070696 -139734,-7070745 -139733,-7070812 -139663,-7070837 -139584,-7070920 -139474,-7071043 -139410,-7071114 -139344,-7071202 -139325,-7071227 -139271,-7071335 -139237,-7071395 -139188,-7071485 -139158,-7071562 -139150,-7071596 -139147,-7071622 -139137,-7071673 -139141,-7071689 -139210,-7071803 -139284,-7071927 -139365,-7072058 -139369,-7072065 -139456,-7072212 -139549,-7072366 -139589,-7072432 -139621,-7072468 -139671,-7072510 -139691,-7072476 -139715,-7072446 -139740,-7072431 -139765,-7072436 -139831,-7072449 -139872,-7072463 -139902,-7072481 -139933,-7072510 -139965,-7072548 -140005,-7072610 -140096,-7072666 -140192,-7072729 -140229,-7072756 -140327,-7072841 -140353,-7072863 -140401,-7072897 -140451,-7072921 -140541,-7072948 -140588,-7072949 -140589,-7072949 -140590,-7072952 -140628,-7072953 -140644,-7072953 -140666,-7072962 -140676,-7072970 -140704,-7072994 -140740,-7073022 -140768,-7073042 -140807,-7073070 -140841,-7073090 -140860,-7073100 -140874,-7073104 -140912,-7073113 -140940,-7073120 -140990,-7073145 -141043,-7073174 -141075,-7073195 -141117,-7073239 -141164,-7073292 -141168,-7073282 -141179,-7073275 -141197,-7073274 -141217,-7073281 -141264,-7073285 -141263,-7073289 -141298,-7073302 -141307,-7073309 -141316,-7073336 -141340,-7073374 -141355,-7073376 -141378,-7073367 -141398,-7073349 -141436,-7073302 -141483,-7073261 -141532,-7073214 -141550,-7073208 -141594,-7073184 -141635,-7073164 -141651,-7073149 -141664,-7073128 -141691,-7073076 -141723,-7073050 -141775,-7073021 -141720,-7072965 -141806,-7072792 -141824,-7072776 -141843,-7072771 -141867,-7072775 -141971,-7072814 -142005,-7072747 -142074,-7072646 -142112,-7072616 -142185,-7072590 -142184,-7072587 -142215,-7072576 -142263,-7072540 -142346,-7072469 -142507,-7072322 -142505,-7072300 -142500,-7072288 -142476,-7072260 -142453,-7072236 -142441,-7072234 -142428,-7072243 -142402,-7072241 -142428,-7072212 -142407,-7072195 -142463,-7072126 -142468,-7072132 -142486,-7072107 -142516,-7072090 -142536,-7072074 -142557,-7072046 -142586,-7071985 -142727,-7072079 -142653,-7072190 -142643,-7072200 -142658,-7072211 -142862,-7072134 -142988,-7072085 -143409,-7071924 -143606,-7071849 -143767,-7071786 -143893,-7071739 -144158,-7071643 -144220,-7071579 -144271,-7071521 -144364,-7071420 -144382,-7071379 -144453,-7071398 -144461,-7071401 -144498,-7071420 -144517,-7071433 -144534,-7071445 -144547,-7071457 -144558,-7071471 -144567,-7071482 -144571,-7071491 -144574,-7071499 -144576,-7071506 -144579,-7071552 -144578,-7071572 -144575,-7071582 -144567,-7071602 -144555,-7071622 -144545,-7071634 -144540,-7071640 -144531,-7071648 -144522,-7071655 -144512,-7071660 -144497,-7071667 -144441,-7071697 -144383,-7071732 -144375,-7071739 -144367,-7071746 -144364,-7071752 -144347,-7071786 -144341,-7071803 -144336,-7071821 -144332,-7071840 -144329,-7071890 -144328,-7071921 -144329,-7071933 -144331,-7071946 -144335,-7071961 -144341,-7071974 -144351,-7071990 -144377,-7072046 -144382,-7072058 -144387,-7072070 -144392,-7072092 -144392,-7072102 -144391,-7072114 -144386,-7072131 -144378,-7072151 -144372,-7072166 -144304,-7072287 -144276,-7072334 -144272,-7072343 -144268,-7072364 -144267,-7072370 -144268,-7072381 -144271,-7072390 -144278,-7072403 -144287,-7072419 -144295,-7072430 -144303,-7072440 -144312,-7072449 -144353,-7072484 -144408,-7072523 -144500,-7072553 -144520,-7072564 -144531,-7072572 -144540,-7072580 -144551,-7072594 -144558,-7072609 -144562,-7072620 -144567,-7072638 -144570,-7072653 -144571,-7072667 -144571,-7072679 -144569,-7072693 -144565,-7072743 -144559,-7072792 -144556,-7072838 -144558,-7072849 -144561,-7072858 -144564,-7072864 -144569,-7072868 -144588,-7072876 -144599,-7072879 -144612,-7072881 -144622,-7072880 -144636,-7072877 -144672,-7072862 -144679,-7072858 -144691,-7072850 -144700,-7072843 -144743,-7072793 -144757,-7072780 -144764,-7072774 -144787,-7072762 -144794,-7072760 -144800,-7072759 -144812,-7072762 -144824,-7072767 -144839,-7072781 -144846,-7072791 -144850,-7072797 -144855,-7072811 -144869,-7072877 -144871,-7072903 -144869,-7072913 -144863,-7072932 -144858,-7072946 -144852,-7072955 -144793,-7073030 -144718,-7073113 -144695,-7073134 -144679,-7073143 -144670,-7073147 -144656,-7073151 -144562,-7073162 -144537,-7073169 -144523,-7073170 -144496,-7073169 -144487,-7073170 -144474,-7073172 -144461,-7073175 -144441,-7073182 -144210,-7073246 -144080,-7073285 -144014,-7073317 -143991,-7073331 -143976,-7073341 -143965,-7073351 -143957,-7073359 -143932,-7073391 -143922,-7073407 -143918,-7073418 -143914,-7073430 -143912,-7073448 -143912,-7073492 -143921,-7073508 -144019,-7073665 -144038,-7073705 -144040,-7073718 -144040,-7073726 -144037,-7073743 -144030,-7073758 -144025,-7073766 -144018,-7073775 -144008,-7073786 -143969,-7073821 -143945,-7073837 -143933,-7073842 -143901,-7073856 -143882,-7073861 -143863,-7073878 -143859,-7073883 -143852,-7073900 -143846,-7073946 -143847,-7073959 -143849,-7073965 -143863,-7074001 -143904,-7074076 -143903,-7074094 -143899,-7074106 -143890,-7074122 -143879,-7074135 -143797,-7074205 -143781,-7074214 -143777,-7074218 -143772,-7074224 -143760,-7074243 -143756,-7074245 -143745,-7074251 -143735,-7074256 -143730,-7074258 -143722,-7074262 -143715,-7074264 -143706,-7074267 -143698,-7074269 -143678,-7074271 -143644,-7074268 -143643,-7074268 -143608,-7074266 -143575,-7074255 -143547,-7074240 -143515,-7074232 -143497,-7074348 -143568,-7074350 -143597,-7074352 -143642,-7074360 -143681,-7074368 -143692,-7074370 -143783,-7074396 -143773,-7074470 -143888,-7074480 -144020,-7074501 -144096,-7074509 -144153,-7074515 -144174,-7074522 -144196,-7074534 -144249,-7074574 -144261,-7074560 -144284,-7074568 -144284,-7074589 -144337,-7074611 -144462,-7074660 -144638,-7074729 -144742,-7074792 -144851,-7074853 -144841,-7074887 -144863,-7074896 -144886,-7074914 -144916,-7074943 -144955,-7074976 -145047,-7075036 -145098,-7075067 -145138,-7075102 -145273,-7075207 -145376,-7075281 -145489,-7075363 -145529,-7075390 -145587,-7075424 -145568,-7075460 -145589,-7075471 -145622,-7075489 -145679,-7075526 -145761,-7075581 -145835,-7075638 -145829,-7075669 -145944,-7075844 -145973,-7075898 -145982,-7075890 -146025,-7075980 -146066,-7076065 -146099,-7076151 -146131,-7076232 -146151,-7076288 -146168,-7076332 -146188,-7076397 -146202,-7076465 -146212,-7076531 -146216,-7076591 -146195,-7076674 -146182,-7076711 -146172,-7076781 -146137,-7077031 -146106,-7077293 -146088,-7077369 -146080,-7077404 -146068,-7077462 -146088,-7077450 -146084,-7077476 -146074,-7077479 -146070,-7077480 -146058,-7077496 -146053,-7077517 -146035,-7077595 -146030,-7077687 -146026,-7077759 -146016,-7077799 -146009,-7077845 -145988,-7077977 -145980,-7078029 -145957,-7078159 -145945,-7078237 -145946,-7078249 -145961,-7078276 -145957,-7078297 -146041,-7078407 -146059,-7078419 -146110,-7078490 -146117,-7078505 -146115,-7078535 -146106,-7078564 -146101,-7078599 -146100,-7078607 -146079,-7078608 -145997,-7078605 -145985,-7078596 -145977,-7078584 -145980,-7078551 -145991,-7078483 -145985,-7078461 -145973,-7078436 -145962,-7078427 -145946,-7078420 -145908,-7078418 -145858,-7078423 -145838,-7078426 -145822,-7078432 -145797,-7078449 -145755,-7078476 -145673,-7078531 -145599,-7078590 -145574,-7078608 -145566,-7078612 -145557,-7078614 -145538,-7078620 -145503,-7078620 -145453,-7078615 -145411,-7078611 -145341,-7078603 -145298,-7078601 -145236,-7078601 -145185,-7078605 -145158,-7078610 -145130,-7078614 -145107,-7078622 -145078,-7078634 -145034,-7078656 -144979,-7078683 -144890,-7078728 -144839,-7078758 -144769,-7078806 -144729,-7078827 -144647,-7078868 -144608,-7078877 -144577,-7078877 -144558,-7078873 -144526,-7078859 -144484,-7078839 -144469,-7078832 -144449,-7078828 -144391,-7078826 -144336,-7078828 -144312,-7078831 -144285,-7078840 -144264,-7078854 -144234,-7078880 -144210,-7078888 -144166,-7078897 -144136,-7078901 -144106,-7078899 -144083,-7078892 -144063,-7078881 -144043,-7078874 -144013,-7078873 -143988,-7078878 -143887,-7078905 -143867,-7078909 -143823,-7078913 -143729,-7078940 -143708,-7078942 -143683,-7078940 -143627,-7078921 -143605,-7078921 -143594,-7078923 -143587,-7078925 -143508,-7078965 -143487,-7078972 -143477,-7078973 -143448,-7078977 -143425,-7078972 -143406,-7078961 -143389,-7078944 -143374,-7078913 -143360,-7078858 -143353,-7078843 -143345,-7078834 -143326,-7078818 -143299,-7078800 -143230,-7078769 -143192,-7078755 -143173,-7078778 -143153,-7078792 -143138,-7078801 -143079,-7078828 -142977,-7078872 -142955,-7078886 -142937,-7078899 -142937,-7078914 -142937,-7078922 -142924,-7078941 -142890,-7078935 -142884,-7078935 -142882,-7078944 -142882,-7078968 -142858,-7078965 -142843,-7078963 -142840,-7078963 -142830,-7079021 -142824,-7079057 -142810,-7079101 -142798,-7079117 -142782,-7079125 -142776,-7079128 -142774,-7079129 -142746,-7079130 -142704,-7079115 -142675,-7079106 -142650,-7079107 -142631,-7079112 -142617,-7079125 -142604,-7079141 -142457,-7079417 -142382,-7079554 -142321,-7079644 -142236,-7079753 -142194,-7079799 -142158,-7079833 -142099,-7079887 -142216,-7080013 -142315,-7080121 -142406,-7080254 -142440,-7080280 -142476,-7080297 -142472,-7080308 -142494,-7080324 -142540,-7080377 -142607,-7080449 -142617,-7080448 -142648,-7080480 -142681,-7080533 -142773,-7080636 -142850,-7080715 -143003,-7080864 -143171,-7081030 -143176,-7081034 -143161,-7081069 -143147,-7081102 -143145,-7081101 -143089,-7081236 -143070,-7081236 -142968,-7081184 -142883,-7081143 -142851,-7081127 -142839,-7081142 -142827,-7081151 -142768,-7081247 -142718,-7081332 -142647,-7081442 -142644,-7081444 -142459,-7081392 -142218,-7081329 -142075,-7081292 -142024,-7081289 -142032,-7081298 -142028,-7081307 -142019,-7081512 -142014,-7081517 -142011,-7081537 -142013,-7081611 -142043,-7081679 -142047,-7081715 -142221,-7081751 -142480,-7081808 -142460,-7081856 -142477,-7081878 -142516,-7081912 -142636,-7081917 -142674,-7081847 -142747,-7081763 -142828,-7081718 -142848,-7081710 -142933,-7081750 -142983,-7081817 -143009,-7081855 -143036,-7081901 -143050,-7081939 -143051,-7081973 -143046,-7081996 -143040,-7082002 -143014,-7082016 -143006,-7082027 -142994,-7082078 -143008,-7082099 -143083,-7082178 -143094,-7082182 -143107,-7082187 -143115,-7082189 -143128,-7082193 -143163,-7082203 -143209,-7082182 -143230,-7082173 -143250,-7082162 -143270,-7082145 -143316,-7082100 -143327,-7082076 -143335,-7082066 -143358,-7082033 -143375,-7082055 -143384,-7082071 -143417,-7082105 -143441,-7082135 -143458,-7082168 -143471,-7082196 -143487,-7082245 -143495,-7082269 -143509,-7082317 -143519,-7082334 -143535,-7082367 -143563,-7082397 -143579,-7082413 -143603,-7082423 -143692,-7082470 -143730,-7082494 -143862,-7082576 -143948,-7082637 -144026,-7082729 -143959,-7082750 -143885,-7082783 -143822,-7082824 -143690,-7082912 -143638,-7082937 -143516,-7082977 -143456,-7083005 -143386,-7083028 -143266,-7083078 -143342,-7083204 -143377,-7083261 -143431,-7083381 -143466,-7083468 -143478,-7083507 -143530,-7083655 -143498,-7083667 -143427,-7083682 -143366,-7083711 -143377,-7083774 -143388,-7083856 -143404,-7083950 -143416,-7084006 -143427,-7084085 -143422,-7084087 -143423,-7084118 -143442,-7084233 -143444,-7084236 -143449,-7084245 -143490,-7084287 -143575,-7084384 -143663,-7084489 -143772,-7084603 -143824,-7084657 -143868,-7084702 -143870,-7084706 -143871,-7084710 -143870,-7084717 -143873,-7084720 -143881,-7084713 -143891,-7084717 -143929,-7084747 -143978,-7084791 -144008,-7084820 -144040,-7084880 -144083,-7084983 -144166,-7085119 -144268,-7085278 -144290,-7085313 -144311,-7085348 -144329,-7085382 -144360,-7085520 -144367,-7085546 -144379,-7085569 -144410,-7085616 -144432,-7085647 -144454,-7085668 -144499,-7085702 -144555,-7085740 -144592,-7085774 -144614,-7085791 -144729,-7085864 -144814,-7085925 -144857,-7085957 -144928,-7086019 -144982,-7086070 -145048,-7086148 -145072,-7086180 -145069,-7086185 -145125,-7086239 -145165,-7086281 -145186,-7086278 -145318,-7086314 -145394,-7086347 -145432,-7086360 -145534,-7086376 -145568,-7086384 -145623,-7086403 -145676,-7086413 -145837,-7086457 -145881,-7086467 -145938,-7086465 -145987,-7086459 -146038,-7086456 -146133,-7086480 -146173,-7086492 -146266,-7086530 -146364,-7086538 -146395,-7086547 -146515,-7086683 -146632,-7086813 -146664,-7086831 -146714,-7086831 -146749,-7086842 -146779,-7086845 -146803,-7086850 -146824,-7086859 -146859,-7086870 -146912,-7086895 -146952,-7086923 -147007,-7086928 -147025,-7086929 -147089,-7086896 -147149,-7086853 -147164,-7086836 -147202,-7086801 -147221,-7086784 -147248,-7086779 -147268,-7086786 -147296,-7086796 -147360,-7086806 -147414,-7086824 -147469,-7086842 -147516,-7086858 -147520,-7086875 -147699,-7086921 -147690,-7087016 -147733,-7087107 -147749,-7087137 -147784,-7087215 -147802,-7087248 -147888,-7087367 -147914,-7087396 -147932,-7087412 -147938,-7087422 -148019,-7087483 -148127,-7087550 -148153,-7087580 -148220,-7087701 -148261,-7087757 -148286,-7087788 -148294,-7087799 -148296,-7087801 -148316,-7087855 -148323,-7087878 -148318,-7087881 -148329,-7087919 -148335,-7087945 -148344,-7087958 -148355,-7087958 -148384,-7088005 -148434,-7088067 -148442,-7088078 -148460,-7088102 -148523,-7088159 -148583,-7088218 -148616,-7088255 -148672,-7088342 -148682,-7088341 -148715,-7088397 -148725,-7088418 -148733,-7088431 -148715,-7088454 -148726,-7088474 -148789,-7088545 -148809,-7088560 -148830,-7088584 -148856,-7088631 -148870,-7088662 -148869,-7088690 -148862,-7088736 -148866,-7088753 -148879,-7088779 -148902,-7088809 -148926,-7088830 -148979,-7088883 -148993,-7088903 -149002,-7088922 -149024,-7088984 -149037,-7089034 -149036,-7089054 -149050,-7089082 -149057,-7089100 -149081,-7089149 -149135,-7089233 -149159,-7089258 -149180,-7089281 -149182,-7089283 -149201,-7089305 -149214,-7089327 -149241,-7089370 -149253,-7089397 -149301,-7089506 -149313,-7089522 -149324,-7089535 -149355,-7089567 -149367,-7089580 -149397,-7089639 -149416,-7089744 -149430,-7089790 -149443,-7089819 -149454,-7089844 -149471,-7089879 -149518,-7089948 -149567,-7090027 -149610,-7090075 -149626,-7090120 -149647,-7090174 -149666,-7090210 -149702,-7090275 -149698,-7090319 -149711,-7090352 -149755,-7090393 -149805,-7090435 -149786,-7090462 -149768,-7090486 -149750,-7090513 -149729,-7090548 -149710,-7090587 -149706,-7090605 -149709,-7090626 -149719,-7090670 -149731,-7090689 -149761,-7090726 -149787,-7090763 -149817,-7090810 -149822,-7090822 -149835,-7090842 -149860,-7090875 -149879,-7090910 -149924,-7090957 -149939,-7090956 -149985,-7090935 -149994,-7090938 -150004,-7090952 -150010,-7090968 -150013,-7090987 -150010,-7091023 -150013,-7091089 -150002,-7091120 -150001,-7091171 -150000,-7091226 -149991,-7091284 -149978,-7091390 -149966,-7091452 -149970,-7091449 -149983,-7091469 -150008,-7091551 -150019,-7091591 -150021,-7091620 -150108,-7091616 -150132,-7091633 -150140,-7091638 -150043,-7091771 -150032,-7091796 -149983,-7091791 -149906,-7091764 -149881,-7091759 -149843,-7091735 -149803,-7091724 -149777,-7091713 -149733,-7091694 -149627,-7091646 -149601,-7091633 -149578,-7091612 -149554,-7091597 -149528,-7091577 -149490,-7091555 -149473,-7091552 -149450,-7091549 -149437,-7091537 -149354,-7091495 -149333,-7091477 -149310,-7091465 -149296,-7091464 -149299,-7091454 -149303,-7091450 -149294,-7091432 -149239,-7091395 -149216,-7091378 -149212,-7091363 -149201,-7091353 -149167,-7091350 -149136,-7091331 -149101,-7091329 -149072,-7091339 -149063,-7091335 -149053,-7091325 -149038,-7091326 -149028,-7091330 -148986,-7091294 -148978,-7091270 -148966,-7091255 -148951,-7091245 -148935,-7091225 -148922,-7091224 -148902,-7091240 -148888,-7091243 -148872,-7091241 -148864,-7091231 -148865,-7091219 -148859,-7091214 -148837,-7091213 -148815,-7091196 -148796,-7091192 -148783,-7091191 -148768,-7091208 -148761,-7091208 -148754,-7091197 -148752,-7091182 -148728,-7091158 -148696,-7091120 -148692,-7091105 -148649,-7091050 -148611,-7091010 -148590,-7091013 -148569,-7091015 -148542,-7091006 -148539,-7091003 -148528,-7090993 -148505,-7090978 -148497,-7090965 -148492,-7090942 -148489,-7090931 -148479,-7090926 -148462,-7090926 -148447,-7090917 -148419,-7090912 -148411,-7090900 -148386,-7090916 -148328,-7090915 -148313,-7090909 -148309,-7090902 -148303,-7090886 -148288,-7090902 -148271,-7090899 -148251,-7090887 -148211,-7090886 -148200,-7090881 -148189,-7090902 -148175,-7090909 -148164,-7090906 -148145,-7090891 -148126,-7090889 -148106,-7090890 -148096,-7090885 -148084,-7090874 -148076,-7090874 -148063,-7090891 -148058,-7090893 -148042,-7090880 -148032,-7090880 -148023,-7090885 -148001,-7090872 -147986,-7090879 -147974,-7090868 -147964,-7090854 -147958,-7090855 -147952,-7090867 -147942,-7090869 -147929,-7090864 -147917,-7090852 -147899,-7090847 -147863,-7090848 -147811,-7090860 -147781,-7090870 -147734,-7090894 -147727,-7090887 -147663,-7090889 -147655,-7090884 -147655,-7090895 -147631,-7090901 -147608,-7090915 -147594,-7090937 -147579,-7090949 -147570,-7090971 -147538,-7090967 -147528,-7090971 -147527,-7090985 -147512,-7090989 -147494,-7090988 -147484,-7090994 -147452,-7090985 -147449,-7090966 -147442,-7090953 -147444,-7090949 -147426,-7090941 -147413,-7090939 -147401,-7090946 -147389,-7090946 -147389,-7090952 -147364,-7090943 -147339,-7090941 -147318,-7090930 -147286,-7090938 -147272,-7090944 -147249,-7090920 -147226,-7090935 -147193,-7090938 -147178,-7090946 -147188,-7090916 -147183,-7090912 -147162,-7090913 -147144,-7090902 -147130,-7090900 -147108,-7090892 -147075,-7090874 -147048,-7090854 -147029,-7090843 -147030,-7090828 -147016,-7090814 -147000,-7090810 -146980,-7090784 -146964,-7090773 -146963,-7090759 -146949,-7090749 -146942,-7090730 -146943,-7090715 -146956,-7090703 -146917,-7090667 -146893,-7090678 -146887,-7090649 -146863,-7090643 -146855,-7090638 -146845,-7090627 -146846,-7090607 -146830,-7090602 -146822,-7090601 -146798,-7090585 -146795,-7090570 -146796,-7090552 -146785,-7090552 -146767,-7090537 -146755,-7090545 -146746,-7090544 -146738,-7090537 -146710,-7090528 -146689,-7090531 -146677,-7090533 -146667,-7090529 -146663,-7090535 -146643,-7090516 -146639,-7090520 -146545,-7090499 -146514,-7090491 -146459,-7090467 -146460,-7090462 -146433,-7090454 -146415,-7090438 -146385,-7090415 -146377,-7090413 -146367,-7090411 -146356,-7090410 -146316,-7090409 -146292,-7090395 -146252,-7090400 -146216,-7090390 -146196,-7090389 -146163,-7090378 -146143,-7090366 -146104,-7090363 -146077,-7090362 -146067,-7090368 -146057,-7090377 -146046,-7090379 -146035,-7090387 -146025,-7090386 -146010,-7090367 -145999,-7090359 -145986,-7090352 -145971,-7090337 -145955,-7090326 -145872,-7090257 -145826,-7090220 -145798,-7090204 -145751,-7090192 -145708,-7090177 -145657,-7090161 -145607,-7090147 -145585,-7090142 -145574,-7090144 -145539,-7090155 -145524,-7090164 -145502,-7090183 -145481,-7090200 -145466,-7090211 -145357,-7090245 -145261,-7090276 -145157,-7090310 -145129,-7090335 -145032,-7090383 -144769,-7090488 -144667,-7090515 -144564,-7090534 -144508,-7090566 -144443,-7090590 -144412,-7090606 -144381,-7090619 -144360,-7090630 -144331,-7090679 -144310,-7090698 -144254,-7090720 -144274,-7090777 -144256,-7090774 -144248,-7090776 -144241,-7090783 -144232,-7090778 -144215,-7090775 -144201,-7090764 -144195,-7090771 -144195,-7090779 -144198,-7090797 -144196,-7090812 -144187,-7090824 -144176,-7090828 -144120,-7090823 -144108,-7090829 -144113,-7090889 -144083,-7090890 -144065,-7090870 -144049,-7090876 -144032,-7090911 -143998,-7090908 -143980,-7090919 -143964,-7090914 -143938,-7090943 -143934,-7090957 -143920,-7090948 -143913,-7090949 -143906,-7090959 -143893,-7090955 -143891,-7090978 -143879,-7090977 -143862,-7090969 -143829,-7090976 -143817,-7090967 -143808,-7090968 -143808,-7090990 -143793,-7090988 -143779,-7090983 -143788,-7090965 -143776,-7090961 -143762,-7090967 -143750,-7090977 -143718,-7090982 -143718,-7091002 -143707,-7091014 -143705,-7091025 -143688,-7091026 -143666,-7091019 -143651,-7091024 -143644,-7091037 -143627,-7091036 -143608,-7091045 -143608,-7091055 -143594,-7091055 -143595,-7091078 -143556,-7091067 -143555,-7091090 -143548,-7091102 -143554,-7091117 -143545,-7091108 -143499,-7091114 -143486,-7091136 -143474,-7091143 -143460,-7091136 -143447,-7091149 -143419,-7091145 -143407,-7091148 -143400,-7091170 -143377,-7091182 -143380,-7091205 -143368,-7091221 -143336,-7091246 -143301,-7091282 -143286,-7091284 -143269,-7091299 -143233,-7091323 -143223,-7091338 -143217,-7091359 -143215,-7091365 -143186,-7091414 -143170,-7091416 -143153,-7091426 -143165,-7091438 -143166,-7091448 -143160,-7091456 -143148,-7091457 -143137,-7091448 -143121,-7091450 -143105,-7091464 -143086,-7091468 -143036,-7091493 -143028,-7091512 -143020,-7091515 -143002,-7091509 -142982,-7091509 -142964,-7091518 -142962,-7091538 -142937,-7091544 -142909,-7091564 -142883,-7091564 -142863,-7091570 -142861,-7091571 -142842,-7091580 -142830,-7091586 -142814,-7091582 -142800,-7091572 -142786,-7091569 -142765,-7091576 -142743,-7091577 -142726,-7091614 -142705,-7091628 -142688,-7091673 -142673,-7091692 -142652,-7091714 -142641,-7091717 -142631,-7091712 -142617,-7091711 -142605,-7091717 -142570,-7091754 -142546,-7091793 -142540,-7091799 -142515,-7091825 -142500,-7091814 -142455,-7091891 -142454,-7091900 -142461,-7091916 -142459,-7091927 -142429,-7091950 -142427,-7091959 -142438,-7091979 -142438,-7091989 -142427,-7091998 -142415,-7092023 -142402,-7092037 -142380,-7092035 -142312,-7092030 -142302,-7092036 -142298,-7092050 -142285,-7092077 -142292,-7092087 -142290,-7092101 -142287,-7092113 -142285,-7092119 -142282,-7092124 -142245,-7092144 -142243,-7092154 -142274,-7092185 -142308,-7092225 -142345,-7092274 -142423,-7092412 -142422,-7092441 -142309,-7092592 -142283,-7092634 -142271,-7092669 -142211,-7092754 -142172,-7092809 -142120,-7092882 -142105,-7092877 -142076,-7092880 -142056,-7092886 -142046,-7092883 -142028,-7092864 -142021,-7092844 -141992,-7092844 -141974,-7092839 -141965,-7092842 -141956,-7092850 -141942,-7092856 -141888,-7092859 -141873,-7092851 -141865,-7092854 -141862,-7092865 -141815,-7092792 -141808,-7092781 -141779,-7092790 -141773,-7092793 -141763,-7092801 -141734,-7092800 -141684,-7092848 -141689,-7092885 -141697,-7092911 -141676,-7092914 -141651,-7092922 -141618,-7092918 -141591,-7092922 -141453,-7092908 -141453,-7092880 -141445,-7092870 -141429,-7092861 -141417,-7092866 -141409,-7092881 -141407,-7092905 -141363,-7092904 -141308,-7092901 -141315,-7092879 -141314,-7092857 -141305,-7092840 -141293,-7092833 -141270,-7092839 -141259,-7092841 -141246,-7092830 -141223,-7092807 -141207,-7092815 -141195,-7092799 -141175,-7092792 -141178,-7092814 -141156,-7092821 -141130,-7092836 -141117,-7092839 -141109,-7092848 -141109,-7092865 -141091,-7092889 -141060,-7092898 -141038,-7092909 -141022,-7092910 -141009,-7092867 -140990,-7092855 -140966,-7092849 -140937,-7092848 -140928,-7092858 -140941,-7092899 -140917,-7092897 -140903,-7092906 -140903,-7092916 -140913,-7092937 -140902,-7092952 -140888,-7092977 -140884,-7093003 -140875,-7093018 -140864,-7093022 -140843,-7093023 -140828,-7093032 -140820,-7093055 -140813,-7093066 -140804,-7093076 -140791,-7093082 -140768,-7093083 -140752,-7093090 -140743,-7093110 -140741,-7093127 -140732,-7093134 -140711,-7093134 -140673,-7093114 -140662,-7093099 -140651,-7093088 -140629,-7093087 -140614,-7093076 -140606,-7093053 -140596,-7093044 -140586,-7093041 -140578,-7093042 -140572,-7093047 -140566,-7093068 -140565,-7093094 -140573,-7093112 -140569,-7093124 -140550,-7093117 -140488,-7093112 -140487,-7093134 -140506,-7093170 -140507,-7093181 -140492,-7093184 -140472,-7093166 -140463,-7093164 -140450,-7093165 -140426,-7093170 -140406,-7093170 -140387,-7093152 -140377,-7093149 -140367,-7093154 -140347,-7093171 -140346,-7093182 -140350,-7093204 -140325,-7093214 -140323,-7093238 -140316,-7093244 -140300,-7093244 -140280,-7093235 -140250,-7093228 -140231,-7093217 -140218,-7093219 -140195,-7093230 -140188,-7093228 -140173,-7093222 -140169,-7093230 -140153,-7093233 -140099,-7093248 -140083,-7093257 -140067,-7093279 -140054,-7093273 -140046,-7093264 -140043,-7093261 -140030,-7093280 -139946,-7093395 -139898,-7093459 -139931,-7093499 -139926,-7093506 -139975,-7093582 -139980,-7093599 -139998,-7093668 -140013,-7093718 -140046,-7093797 -139986,-7093839 -139984,-7093841 -139965,-7093859 -139892,-7093913 -139847,-7093951 -139779,-7093998 -139614,-7094124 -139569,-7094152 -139473,-7094221 -139550,-7094302 -139603,-7094262 -139687,-7094185 -139725,-7094206 -139829,-7094283 -139879,-7094324 -139966,-7094403 -139753,-7094557 -139772,-7094585 -139786,-7094596 -139821,-7094582 -139870,-7094557 -139975,-7094489 -140016,-7094450 -140083,-7094529 -139993,-7094584 -140009,-7094629 -139969,-7094647 -139999,-7094734 -139925,-7094757 -139866,-7094767 -139785,-7094787 -139718,-7094823 -139650,-7094864 -139621,-7094876 -139593,-7094887 -139542,-7094898 -139425,-7094919 -139393,-7094925 -139339,-7094933 -139178,-7094970 -139137,-7094892 -139136,-7094883 -139167,-7094871 -139173,-7094877 -139262,-7094847 -139269,-7094835 -139217,-7094723 -138867,-7094888 -138838,-7094894 -138881,-7094965 -138919,-7095014 -138966,-7095049 -139033,-7095124 -139076,-7095215 -139139,-7095364 -139177,-7095421 -139226,-7095519 -139273,-7095673 -139303,-7095784 -139392,-7096089 -139394,-7096096 -139386,-7096104 -139364,-7096101 -139327,-7096109 -139302,-7096099 -139107,-7096181 -139009,-7096218 -138957,-7096230 -138898,-7096237 -138847,-7096231 -138810,-7096234 -138752,-7096247 -138710,-7096256 -138670,-7096266 -138647,-7096271 -138577,-7096293 -138667,-7096580 -138693,-7096636 -138702,-7096714 -138731,-7096820 -138783,-7097023 -138812,-7097131 -138835,-7097214 -138850,-7097291 -138861,-7097344 -138894,-7097509 -138927,-7097674 -138954,-7097830 -138882,-7097870 -138810,-7097902 -138756,-7097922 -138654,-7097955 -138568,-7097961 -138496,-7097970 -138441,-7097961 -138364,-7097964 -138325,-7097962 -138259,-7097955 -138220,-7097951 -138121,-7097959 -138029,-7097968 -137977,-7097969 -137880,-7097970 -137762,-7097966 -137652,-7097960 -137594,-7097952 -137522,-7097937 -137462,-7097921 -137396,-7097907 -137360,-7097898 -137294,-7097889 -137267,-7097890 -137234,-7097895 -137163,-7097910 -137115,-7097922 -137067,-7097934 -137067,-7097934 -137006,-7097951 -137002,-7097950 -136988,-7097937 -136974,-7097923 -136830,-7097928 -136811,-7097964 -136776,-7097988 -136745,-7098001 -136736,-7098004 -136690,-7098013 -136688,-7098016 -136700,-7098032 -136739,-7098040 -136754,-7098051 -136757,-7098068 -136757,-7098138 -136771,-7098191 -136798,-7098247 -136831,-7098288 -136867,-7098318 -136906,-7098334 -136953,-7098336 -136957,-7098336 -136999,-7098330 -137043,-7098308 -137060,-7098300 -137101,-7098380 -137106,-7098411 -137185,-7098595 -137239,-7098723 -137115,-7098775 -136977,-7098830 -136848,-7098871 -136798,-7098882 -136741,-7098900 -136706,-7098916 -136690,-7098920 -136675,-7098923 -136651,-7098923 -136594,-7098910 -136556,-7098894 -136551,-7098883 -136353,-7098979 -136186,-7099067 -136139,-7099073 -136088,-7099084 -136066,-7099096 -136037,-7099127 -136013,-7099147 -135969,-7099168 -135925,-7099164 -135855,-7099160 -135739,-7099170 -135715,-7099173 -135698,-7099178 -135681,-7099184 -135661,-7099209 -135605,-7099236 -135576,-7099265 -135546,-7099286 -135527,-7099307 -135535,-7099673 -135537,-7099688 -135542,-7099741 -135544,-7099775 -135544,-7099876 -135537,-7100028 -135527,-7100085 -135522,-7100134 -135538,-7100202 -135539,-7100209 -135516,-7100223 -135528,-7100269 -135537,-7100314 -135552,-7100425 -135563,-7100476 -135579,-7100533 -135595,-7100600 -135613,-7100597 -135622,-7100620 -135628,-7100654 -135630,-7100681 -135629,-7100792 -135630,-7100854 -135635,-7100915 -135639,-7100987 -135647,-7101011 -135693,-7101014 -135697,-7101122 -135698,-7101220 -135731,-7101227 -135769,-7101234 -135741,-7101647 -135653,-7101634 -135653,-7101637 -135645,-7101679 -135623,-7101782 -135604,-7101863 -135572,-7102090 -135565,-7102143 -135559,-7102197 -135551,-7102307 -135473,-7102286 -135397,-7102272 -135396,-7102318 -135387,-7102377 -135373,-7102444 -135352,-7102523 -135325,-7102641 -135300,-7102632 -135263,-7102613 -135237,-7102601 -135151,-7102586 -135057,-7102572 -135061,-7102549 -135006,-7102525 -134943,-7102500 -134795,-7102448 -134755,-7102593 -134697,-7102785 -134677,-7102863 -134640,-7102832 -134609,-7102817 -134532,-7102791 -134488,-7102780 -134454,-7102781 -134356,-7102786 -134311,-7102781 -134259,-7102758 -134223,-7102741 -134201,-7102736 -134186,-7102742 -134175,-7102759 -134144,-7102729 -134133,-7102708 -134126,-7102702 -134119,-7102695 -134106,-7102688 -134056,-7102659 -134016,-7102635 -133971,-7102607 -133937,-7102588 -133896,-7102570 -133840,-7102547 -133809,-7102543 -133778,-7102541 -133748,-7102524 -133679,-7102457 -133631,-7102412 -133604,-7102393 -133551,-7102366 -133529,-7102359 -133468,-7102342 -133447,-7102336 -133412,-7102316 -133388,-7102296 -133364,-7102272 -133337,-7102250 -133319,-7102222 -133308,-7102201 -133304,-7102149 -133299,-7102119 -133291,-7102093 -133274,-7102075 -133249,-7102069 -133212,-7102072 -133178,-7102080 -133158,-7102080 -133150,-7102077 -133143,-7102073 -133131,-7102058 -133126,-7102049 -133114,-7102020 -133098,-7102003 -133043,-7101969 -133001,-7101939 -132973,-7101913 -132950,-7101879 -132942,-7101866 -132930,-7101841 -132927,-7101817 -132929,-7101794 -132919,-7101748 -132894,-7101622 -132881,-7101591 -132841,-7101568 -132804,-7101551 -132766,-7101537 -132728,-7101526 -132690,-7101517 -132664,-7101514 -132569,-7101507 -132505,-7101502 -132464,-7101502 -132380,-7101505 -132328,-7101512 -132310,-7101515 -132293,-7101522 -132275,-7101538 -132259,-7101549 -132225,-7101557 -132088,-7101601 -131970,-7101648 -131922,-7101662 -131761,-7101710 -131705,-7101730 -131658,-7101750 -131642,-7101758 -131462,-7101825 -131393,-7101853 -131356,-7101864 -131323,-7101873 -131297,-7101878 -131258,-7101884 -131212,-7101889 -131093,-7101897 -130990,-7101901 -130895,-7101907 -130777,-7101918 -130739,-7101926 -130697,-7101943 -130682,-7101951 -130649,-7101974 -130533,-7102131 -130510,-7102159 -130501,-7102165 -130491,-7102170 -130463,-7102176 -130434,-7102174 -130411,-7102168 -130375,-7102148 -130339,-7102136 -130313,-7102137 -130285,-7102149 -130264,-7102165 -130248,-7102183 -130198,-7102243 -130185,-7102265 -130169,-7102278 -130133,-7102302 -130081,-7102344 -130038,-7102391 -130028,-7102400 -130007,-7102414 -129995,-7102420 -129984,-7102424 -129968,-7102428 -129950,-7102431 -129935,-7102433 -129909,-7102430 -129842,-7102418 -129810,-7102416 -129788,-7102417 -129768,-7102419 -129750,-7102423 -129731,-7102428 -129713,-7102436 -129696,-7102445 -129681,-7102455 -129667,-7102467 -129653,-7102482 -129643,-7102494 -129637,-7102504 -129620,-7102537 -129616,-7102545 -129601,-7102560 -129594,-7102566 -129518,-7102600 -129501,-7102610 -129479,-7102618 -129458,-7102621 -129321,-7102594 -129305,-7102595 -129284,-7102602 -129257,-7102621 -129231,-7102647 -129222,-7102659 -129197,-7102698 -129170,-7102723 -129084,-7102834 -129048,-7102873 -129040,-7102882 -129031,-7102891 -129020,-7102900 -129008,-7102907 -128996,-7102913 -128982,-7102917 -128967,-7102919 -128952,-7102920 -128939,-7102919 -128927,-7102917 -128908,-7102910 -128883,-7102896 -128872,-7102892 -128852,-7102884 -128833,-7102880 -128802,-7102877 -128710,-7102878 -128634,-7102873 -128554,-7102851 -128503,-7102828 -128423,-7102787 -128397,-7102775 -128384,-7102771 -128350,-7102779 -128319,-7102789 -128305,-7102792 -128292,-7102794 -128273,-7102790 -128256,-7102778 -128250,-7102773 -128246,-7102768 -128241,-7102757 -128149,-7102483 -128072,-7102266 -128015,-7102100 -128005,-7102080 -127997,-7102068 -127988,-7102057 -127979,-7102048 -127960,-7102032 -127951,-7102026 -127934,-7102018 -127926,-7102016 -127918,-7102015 -127904,-7102015 -127877,-7102017 -127793,-7102044 -127762,-7102051 -127674,-7102041 -127607,-7102032 -127583,-7102022 -127543,-7101996 -127530,-7101987 -127509,-7101961 -127495,-7101933 -127482,-7101891 -127471,-7101836 -127461,-7101800 -127451,-7101763 -127443,-7101748 -127323,-7101614 -127312,-7101600 -127295,-7101583 -127282,-7101572 -127268,-7101562 -127247,-7101551 -127218,-7101539 -127188,-7101530 -127166,-7101525 -127118,-7101517 -127103,-7101515 -127047,-7101512 -127029,-7101510 -127006,-7101507 -126995,-7101504 -126985,-7101500 -126968,-7101492 -126948,-7101478 -126940,-7101471 -126929,-7101461 -126918,-7101446 -126908,-7101431 -126898,-7101411 -126891,-7101389 -126886,-7101369 -126884,-7101360 -126862,-7101202 -126856,-7101185 -126851,-7101168 -126803,-7101076 -126797,-7101065 -126781,-7101042 -126763,-7101029 -126754,-7101025 -126737,-7101018 -126729,-7101016 -126708,-7101013 -126688,-7101011 -126668,-7101010 -126617,-7101008 -126601,-7101006 -126576,-7100999 -126563,-7100994 -126542,-7100983 -126511,-7100960 -126445,-7100916 -126427,-7100909 -126413,-7100906 -126392,-7100904 -126354,-7100911 -126302,-7100927 -126203,-7101031 -126174,-7101049 -126138,-7101055 -126064,-7101060 -125960,-7101079 -125913,-7101092 -125883,-7101104 -125854,-7101118 -125826,-7101134 -125799,-7101153 -125774,-7101173 -125753,-7101192 -125739,-7101209 -125716,-7101240 -125684,-7101289 -125665,-7101321 -125607,-7101481 -125532,-7101678 -125519,-7101709 -125516,-7101718 -125514,-7101727 -125477,-7101914 -125471,-7101936 -125468,-7101951 -125466,-7101963 -125465,-7101980 -125465,-7101998 -125468,-7102025 -125474,-7102053 -125488,-7102102 -125491,-7102108 -125496,-7102120 -125503,-7102129 -125512,-7102139 -125553,-7102195 -125572,-7102235 -125621,-7102422 -125688,-7102717 -125691,-7102742 -125691,-7102754 -125690,-7102778 -125688,-7102793 -125684,-7102813 -125679,-7102830 -125674,-7102841 -125668,-7102855 -125661,-7102868 -125654,-7102877 -125634,-7102899 -125624,-7102908 -125609,-7102919 -125590,-7102930 -125572,-7102939 -125556,-7102945 -125538,-7102950 -125519,-7102954 -125503,-7102956 -125481,-7102957 -125430,-7102953 -125396,-7102953 -125377,-7102954 -125347,-7102958 -125333,-7102962 -125321,-7102967 -125302,-7102974 -125276,-7102986 -125259,-7102996 -125247,-7103006 -125234,-7103016 -125186,-7103061 -125170,-7103079 -125163,-7103089 -125156,-7103100 -125138,-7103136 -125066,-7103307 -125054,-7103342 -125046,-7103359 -125036,-7103379 -125025,-7103399 -125003,-7103429 -124991,-7103443 -124975,-7103460 -124955,-7103478 -124934,-7103495 -124914,-7103508 -124893,-7103520 -124871,-7103530 -124850,-7103539 -124823,-7103548 -124792,-7103556 -124758,-7103563 -124725,-7103567 -124698,-7103568 -124681,-7103567 -124661,-7103565 -124632,-7103561 -124605,-7103554 -124578,-7103546 -124552,-7103536 -124528,-7103525 -124514,-7103518 -124485,-7103499 -124470,-7103486 -124455,-7103473 -124385,-7103402 -124359,-7103383 -124343,-7103373 -124329,-7103367 -124314,-7103362 -124298,-7103359 -124282,-7103357 -124267,-7103356 -124251,-7103356 -124238,-7103358 -124216,-7103363 -124201,-7103369 -124183,-7103378 -124167,-7103388 -124153,-7103400 -124123,-7103432 -124050,-7103525 -124037,-7103537 -124017,-7103553 -124002,-7103562 -123991,-7103567 -123974,-7103572 -123950,-7103576 -123703,-7103628 -123266,-7103728 -122629,-7103882 -122566,-7103900 -122500,-7103927 -121908,-7104145 -121867,-7104154 -121841,-7104156 -121815,-7104157 -121755,-7104155 -121701,-7104153 -121660,-7104148 -121638,-7104145 -121612,-7104137 -121587,-7104126 -121512,-7104110 -121458,-7104107 -121424,-7104112 -121409,-7104116 -121389,-7104122 -121371,-7104129 -121358,-7104135 -121334,-7104149 -121304,-7104171 -121280,-7104183 -121241,-7104210 -121216,-7104230 -121157,-7104284 -121037,-7104378 -121005,-7104398 -120933,-7104430 -120892,-7104444 -120841,-7104459 -120826,-7104462 -120792,-7104468 -120761,-7104471 -120684,-7104475 -120639,-7104471 -120572,-7104459 -120541,-7104451 -120510,-7104441 -120267,-7104346 -120068,-7104266 -119971,-7104225 -119802,-7104159 -119713,-7104127 -119518,-7104052 -119299,-7103964 -119242,-7103948 -119133,-7103928 -119070,-7103924 -118968,-7103922 -118936,-7103922 -118873,-7103923 -118841,-7103924 -118763,-7103931 -118702,-7103934 -118674,-7103938 -118660,-7103941 -118611,-7103956 -118577,-7103968 -118538,-7103978 -118456,-7104005 -118265,-7104072 -118087,-7104125 -117820,-7104210 -117765,-7104229 -117703,-7104248 -117652,-7104266 -117581,-7104288 -117458,-7104329 -117413,-7104348 -117306,-7104403 -117250,-7104435 -117197,-7104475 -117139,-7104533 -117100,-7104579 -117076,-7104623 -117066,-7104643 -117060,-7104658 -117053,-7104680 -117046,-7104702 -117033,-7104756 -117021,-7104831 -117007,-7104937 -117002,-7104956 -116997,-7104968 -116978,-7105009 -116939,-7105076 -116924,-7105096 -116857,-7105171 -116814,-7105215 -116793,-7105235 -116771,-7105255 -116736,-7105284 -116715,-7105302 -116647,-7105348 -116585,-7105374 -116517,-7105397 -116478,-7105409 -116460,-7105412 -116441,-7105415 -116399,-7105419 -116361,-7105419 -116308,-7105416 -116272,-7105416 -116246,-7105413 -116202,-7105404 -116170,-7105395 -116137,-7105383 -116074,-7105358 -116039,-7105341 -115986,-7105317 -115915,-7105280 -115885,-7105258 -115864,-7105239 -115818,-7105200 -115746,-7105138 -115705,-7105103 -115659,-7105065 -115637,-7105051 -115609,-7105037 -115565,-7105017 -115531,-7105006 -115463,-7104991 -115445,-7104989 -115426,-7104991 -115375,-7105002 -115349,-7105010 -115337,-7105014 -115194,-7105073 -115087,-7105114 -115049,-7105123 -115030,-7105125 -115001,-7105126 -114966,-7105124 -114762,-7105096 -114617,-7105080 -114597,-7105079 -114588,-7105080 -114564,-7105086 -114553,-7105088 -114527,-7105098 -114501,-7105108 -114469,-7105125 -114419,-7105155 -114373,-7105185 -114310,-7105233 -114263,-7105275 -114208,-7105309 -114114,-7105362 -113930,-7105457 -113866,-7105485 -113786,-7105519 -113747,-7105533 -113700,-7105554 -113656,-7105570 -113600,-7105594 -113567,-7105607 -113530,-7105619 -113434,-7105645 -113355,-7105663 -113314,-7105671 -113271,-7105675 -113149,-7105691 -112628,-7105767 -112462,-7105793 -112429,-7105795 -112256,-7105790 -111689,-7105779 -111283,-7105771 -111256,-7105771 -111186,-7105779 -111162,-7105784 -111132,-7105793 -111116,-7105800 -111093,-7105812 -110992,-7105860 -110806,-7105970 -110342,-7106239 -110325,-7106247 -110317,-7106248 -110309,-7106249 -110257,-7106255 -110257,-7106241 -110253,-7106134 -110244,-7106042 -110240,-7105984 -110238,-7105955 -110236,-7105901" stroke="#003087" stroke-width="101" /></ns0:svg>    <rect x="20" y="50"  width="250" height="25"  rx="0"  fill="#003087" fill-opacity="0.8" />    <text x="145" y="70" text-anchor="middle" font-family="Frutiger" font-weight="bold" font-size="30" fill="white">Doncaster</text>    <rect x="35" y="195" width="220" height="160" rx="15" fill="#41B6E6"/>    <g font-family="Frutiger" font-size="15" fill="white">        <g> <text x="45" y="218">Self-harm</text> <text x="245" y="218" text-anchor="end">39</text> </g>        <g> <text x="45" y="243">SEN</text> <text x="245" y="243" text-anchor="end">33</text> </g>        <g> <text x="45" y="268">Difficulties</text> <text x="245" y="268" text-anchor="end">77</text> </g>        <g> <text x="45" y="293">Child Carer</text> <text x="245" y="293" text-anchor="end">6</text> </g>        <g> <text x="45" y="318">Drinkers</text> <text x="245" y="318" text-anchor="end">58</text> </g>        <g> <text x="45" y="343">Safeguarding </text> <text x="245" y="343" text-anchor="end">29</text> </g>    </g></svg>