<?xml version="1.0" standalone="no"?>
<!DOCTYPE svg PUBLIC "-//W3C//DTD SVG 1.1//EN"
"http://www.w3.org/Graphics/SVG/1.1/DTD/svg11.dtd">
<svg height="1800" version="1.1" width="1800" xmlns="http://www.w3.org/2000/svg"><defs><style type="text/css">@font-face {font-family: 'Frutiger';font-style: normal;font-weight: normal;src: local('Frutiger'), url('../fonts/Frutiger.woff') format('woff');}@font-face {font-family: 'Frutiger Bold';font-style: normal;font-weight: normal;src: local('Frutiger Bold'), url('../fonts/Frutiger_bold.woff') format('woff');}        </style>    </defs>    <rect x="20" y="20"  width="250" height="350" rx="15" fill="#AE2573" />    <rect x="35" y="35"  width="220" height="145" rx="15" fill="#330072" /><ns0:svg xmlns:ns0="http://www.w3.org/2000/svg" height="115" version="1.1" viewBox="-363319 -7067894 40142 31748" width="220" x="35" y="50"><ns0:polygon fill="white" points=" -340449,-7067459 -340379,-7067430 -340308,-7067384 -340270,-7067370 -340223,-7067335 -340172,-7067315 -340151,-7067310 -340146,-7067307 -340123,-7067297 -340043,-7067214 -339990,-7067166 -339982,-7067153 -339984,-7067140 -340004,-7067113 -340028,-7067094 -340038,-7067086 -340062,-7067080 -340069,-7067069 -340084,-7067056 -340103,-7067046 -340114,-7067048 -340134,-7067053 -340142,-7067052 -340159,-7067049 -340207,-7067027 -340236,-7067003 -340288,-7066944 -340312,-7066900 -340326,-7066866 -340348,-7066821 -340364,-7066772 -340367,-7066748 -340358,-7066721 -340351,-7066650 -340345,-7066617 -340328,-7066576 -340320,-7066559 -340292,-7066546 -340261,-7066528 -340237,-7066513 -340201,-7066504 -340166,-7066497 -340134,-7066498 -340132,-7066498 -340059,-7066503 -339954,-7066516 -339911,-7066516 -339846,-7066508 -339742,-7066474 -339496,-7066397 -339395,-7066363 -339325,-7066335 -339291,-7066313 -339229,-7066262 -339174,-7066220 -339158,-7066201 -339153,-7066182 -339156,-7066164 -339163,-7066147 -339165,-7066143 -339180,-7066128 -339191,-7066120 -339236,-7066102 -339286,-7066085 -339318,-7066073 -339331,-7066071 -339340,-7066075 -339349,-7066071 -339392,-7066061 -339394,-7066074 -339413,-7066077 -339424,-7066090 -339445,-7066096 -339477,-7066116 -339488,-7066116 -339498,-7066112 -339505,-7066115 -339513,-7066125 -339526,-7066128 -339532,-7066138 -339531,-7066142 -339528,-7066158 -339536,-7066177 -339572,-7066202 -339670,-7066242 -339775,-7066267 -339863,-7066273 -339951,-7066278 -340018,-7066271 -340117,-7066258 -340130,-7066259 -340134,-7066260 -340175,-7066263 -340205,-7066261 -340255,-7066245 -340287,-7066233 -340300,-7066231 -340369,-7066228 -340401,-7066218 -340427,-7066205 -340451,-7066197 -340470,-7066195 -340505,-7066200 -340541,-7066203 -340589,-7066195 -340640,-7066188 -340685,-7066182 -340715,-7066184 -340735,-7066183 -340761,-7066179 -340811,-7066163 -340836,-7066156 -340854,-7066144 -340867,-7066127 -340868,-7066122 -340870,-7066103 -340881,-7066082 -340905,-7066037 -340870,-7066033 -340785,-7066017 -340646,-7065997 -340505,-7065969 -340281,-7065920 -340219,-7065907 -340199,-7065910 -340185,-7065909 -340174,-7065910 -340125,-7065896 -340099,-7065888 -339927,-7065853 -339867,-7065840 -339806,-7065829 -339715,-7065828 -339540,-7065835 -339443,-7065840 -339370,-7065830 -339336,-7065820 -339267,-7065797 -339233,-7065784 -339170,-7065756 -339099,-7065715 -339054,-7065691 -339000,-7065669 -338959,-7065657 -338925,-7065675 -338871,-7065699 -338894,-7065722 -338928,-7065746 -338970,-7065772 -339003,-7065791 -339037,-7065808 -339066,-7065819 -339080,-7065821 -339091,-7065816 -339100,-7065813 -339109,-7065817 -339113,-7065830 -339119,-7065853 -339118,-7065873 -339107,-7065882 -339092,-7065881 -339079,-7065872 -339066,-7065860 -339046,-7065852 -339024,-7065839 -338980,-7065814 -338934,-7065792 -338909,-7065775 -338865,-7065742 -338827,-7065710 -338803,-7065698 -338789,-7065689 -338769,-7065687 -338748,-7065686 -338716,-7065681 -338702,-7065669 -338696,-7065657 -338657,-7065657 -338611,-7065650 -338589,-7065651 -338567,-7065652 -338534,-7065666 -338500,-7065653 -338425,-7065674 -338350,-7065695 -338283,-7065714 -338138,-7065757 -338041,-7065784 -337618,-7065911 -337431,-7065967 -337095,-7066064 -337021,-7065953 -336926,-7065821 -336732,-7065539 -336690,-7065475 -336629,-7065373 -336587,-7065299 -336383,-7064912 -336346,-7064854 -336302,-7064757 -336270,-7064677 -336233,-7064577 -336201,-7064482 -336165,-7064381 -336132,-7064264 -336104,-7064146 -336093,-7064089 -336030,-7063805 -335972,-7063561 -335964,-7063517 -335910,-7063232 -335856,-7062991 -335835,-7062895 -335798,-7062719 -335740,-7062406 -335692,-7062155 -335657,-7061952 -335605,-7061702 -335593,-7061639 -335590,-7061621 -335582,-7061576 -335567,-7061467 -335567,-7061466 -335548,-7061359 -335543,-7061334 -335538,-7061309 -335514,-7061201 -335450,-7060959 -335366,-7060632 -335330,-7060507 -335277,-7060346 -335087,-7059849 -335042,-7059723 -335001,-7059538 -334963,-7059387 -334945,-7059314 -334887,-7059070 -334790,-7058651 -334679,-7058196 -334642,-7058063 -334619,-7057990 -334575,-7057861 -334560,-7057817 -334561,-7057815 -334547,-7057767 -334532,-7057717 -334525,-7057694 -334523,-7057688 -334483,-7057543 -334468,-7057490 -334435,-7057375 -334340,-7057067 -334266,-7056809 -334231,-7056699 -334170,-7056488 -334131,-7056364 -334092,-7056233 -334028,-7055949 -334001,-7055842 -333982,-7055756 -333972,-7055622 -333940,-7055314 -333897,-7055092 -333869,-7054982 -333860,-7054952 -333841,-7054885 -333825,-7054832 -333808,-7054783 -333764,-7054656 -333744,-7054599 -333729,-7054561 -333694,-7054478 -333666,-7054423 -333642,-7054375 -333616,-7054327 -333579,-7054269 -333560,-7054241 -333540,-7054212 -333440,-7054076 -333396,-7054019 -333366,-7053982 -333335,-7053947 -333286,-7053894 -333216,-7053823 -333155,-7053766 -333117,-7053729 -333060,-7053668 -333032,-7053637 -333003,-7053605 -332895,-7053478 -332757,-7053327 -332635,-7053184 -332482,-7052990 -332373,-7052843 -332207,-7052607 -332098,-7052445 -331969,-7052247 -331874,-7052104 -331816,-7052033 -331766,-7051961 -331748,-7051938 -331703,-7051881 -331672,-7051846 -331550,-7051721 -331534,-7051707 -331470,-7051653 -331348,-7051549 -331303,-7051512 -331249,-7051466 -331218,-7051437 -331160,-7051392 -331126,-7051366 -330999,-7051277 -330882,-7051198 -330741,-7051105 -330648,-7051046 -330557,-7050987 -330555,-7050986 -330443,-7050917 -330308,-7050841 -330051,-7050688 -329927,-7050620 -329818,-7050558 -329718,-7050494 -329526,-7050373 -329430,-7050316 -329397,-7050295 -329359,-7050271 -329330,-7050252 -329182,-7050159 -329157,-7050138 -329137,-7050115 -329129,-7050105 -329117,-7050083 -329070,-7050030 -328877,-7049811 -328793,-7049713 -328736,-7049649 -328672,-7049574 -328654,-7049553 -328619,-7049514 -328622,-7049511 -328529,-7049403 -328395,-7049254 -328297,-7049142 -328202,-7049039 -328133,-7048955 -328078,-7048895 -327939,-7048744 -327839,-7048641 -327796,-7048600 -327708,-7048516 -327571,-7048394 -327502,-7048336 -327469,-7048310 -327442,-7048292 -327414,-7048273 -327384,-7048254 -327341,-7048229 -327266,-7048189 -327171,-7048142 -327057,-7048089 -326899,-7048006 -326778,-7047946 -326625,-7047868 -326556,-7047833 -326432,-7047768 -325990,-7047531 -325817,-7047440 -325634,-7047339 -325547,-7047278 -325478,-7047227 -325171,-7046989 -325076,-7046915 -324910,-7046784 -324886,-7046765 -324612,-7046540 -324476,-7046435 -324206,-7046254 -324153,-7046217 -324130,-7046199 -324114,-7046188 -324082,-7046168 -324065,-7046158 -324035,-7046144 -323918,-7046096 -323841,-7046069 -323667,-7045997 -323542,-7045939 -323341,-7045855 -323177,-7045781 -323249,-7045529 -323311,-7045310 -323395,-7045017 -323449,-7044831 -323518,-7044596 -323581,-7044373 -323684,-7044025 -323721,-7043895 -323829,-7043514 -323888,-7043330 -323946,-7043119 -324142,-7042840 -324308,-7042612 -324443,-7042423 -324495,-7042352 -324682,-7042092 -325090,-7041527 -325327,-7041176 -325336,-7041164 -325435,-7041008 -325805,-7040501 -326007,-7040220 -326090,-7040118 -326165,-7040026 -326198,-7039986 -326257,-7039917 -326304,-7039862 -326344,-7039814 -326407,-7039873 -326410,-7039876 -326422,-7039890 -326425,-7039894 -326447,-7039927 -326455,-7039939 -326467,-7039955 -326477,-7039969 -326495,-7039990 -326499,-7039995 -326510,-7040007 -326521,-7040019 -326528,-7040026 -326543,-7040039 -326544,-7040041 -326566,-7040058 -326573,-7040064 -327229,-7040624 -327504,-7040296 -327526,-7040271 -327542,-7040253 -327623,-7040163 -327734,-7040035 -327823,-7039933 -327906,-7039833 -328012,-7039713 -328026,-7039697 -328108,-7039603 -328094,-7039600 -328093,-7039585 -328173,-7039472 -328294,-7039312 -328323,-7039274 -328388,-7039313 -328414,-7039329 -328443,-7039345 -328465,-7039357 -328505,-7039377 -328512,-7039381 -328521,-7039386 -328530,-7039391 -328552,-7039398 -328553,-7039398 -328573,-7039405 -328600,-7039413 -328635,-7039424 -328668,-7039435 -328711,-7039445 -328750,-7039454 -328753,-7039455 -328760,-7039456 -328764,-7039457 -328775,-7039459 -328786,-7039462 -328797,-7039464 -328823,-7039465 -328828,-7039465 -328839,-7039465 -328850,-7039466 -328868,-7039469 -328885,-7039471 -328892,-7039472 -328905,-7039474 -328908,-7039475 -328914,-7039476 -328951,-7039473 -328994,-7039470 -329006,-7039468 -329034,-7039466 -329084,-7039460 -329112,-7039457 -329133,-7039454 -329142,-7039452 -329163,-7039451 -329170,-7039451 -329182,-7039450 -329203,-7039451 -329229,-7039452 -329234,-7039453 -329241,-7039453 -329243,-7039453 -329252,-7039455 -329253,-7039455 -329262,-7039456 -329262,-7039456 -329271,-7039456 -329281,-7039456 -329285,-7039456 -329294,-7039455 -329302,-7039453 -329305,-7039453 -329313,-7039450 -329316,-7039450 -329323,-7039447 -329327,-7039446 -329334,-7039443 -329340,-7039439 -329342,-7039438 -329348,-7039433 -329354,-7039429 -329356,-7039427 -329360,-7039424 -329363,-7039421 -329365,-7039419 -329366,-7039416 -329368,-7039414 -329370,-7039411 -329370,-7039410 -329371,-7039408 -329371,-7039405 -329371,-7039400 -329371,-7039396 -329371,-7039396 -329371,-7039392 -329371,-7039391 -329371,-7039388 -329371,-7039387 -329372,-7039384 -329374,-7039381 -329374,-7039380 -329377,-7039374 -329381,-7039370 -329389,-7039361 -329394,-7039356 -329400,-7039350 -329400,-7039350 -329407,-7039344 -329413,-7039340 -329420,-7039335 -329429,-7039330 -329439,-7039325 -329450,-7039320 -329466,-7039314 -329482,-7039309 -329485,-7039308 -329491,-7039307 -329496,-7039305 -329502,-7039303 -329508,-7039302 -329514,-7039301 -329519,-7039301 -329523,-7039301 -329528,-7039302 -329531,-7039303 -329537,-7039304 -329539,-7039305 -329545,-7039308 -329551,-7039310 -329556,-7039314 -329559,-7039316 -329566,-7039320 -329573,-7039325 -329576,-7039328 -329582,-7039333 -329587,-7039338 -329592,-7039343 -329593,-7039345 -329598,-7039351 -329602,-7039357 -329605,-7039364 -329608,-7039370 -329611,-7039374 -329613,-7039377 -329617,-7039380 -329620,-7039383 -329621,-7039384 -329626,-7039386 -329631,-7039388 -329635,-7039390 -329640,-7039392 -329645,-7039393 -329651,-7039393 -329657,-7039393 -329663,-7039393 -329666,-7039393 -329672,-7039392 -329675,-7039392 -329681,-7039390 -329686,-7039389 -329691,-7039386 -329714,-7039379 -329841,-7039337 -329972,-7039293 -330078,-7039250 -330098,-7039240 -330156,-7039213 -330179,-7039201 -330306,-7039116 -330392,-7039062 -330311,-7038976 -330399,-7038917 -330515,-7039026 -330552,-7039023 -330571,-7039022 -330583,-7039022 -330595,-7039022 -330603,-7039023 -330626,-7039025 -330648,-7039029 -330657,-7039031 -330686,-7039037 -330712,-7039044 -330740,-7039053 -330760,-7039060 -330781,-7039071 -330801,-7039082 -330837,-7039104 -330875,-7039132 -330912,-7039162 -330929,-7039175 -330990,-7039229 -331016,-7039247 -331035,-7039257 -331079,-7039281 -331126,-7039304 -331170,-7039321 -331214,-7039330 -331239,-7039339 -331292,-7039358 -331370,-7039376 -331375,-7039378 -331381,-7039381 -331511,-7039421 -331679,-7039480 -331693,-7039530 -331722,-7039541 -331724,-7039542 -331728,-7039543 -331741,-7039548 -331750,-7039551 -331756,-7039553 -331841,-7039583 -331948,-7039618 -331979,-7039628 -332039,-7039649 -332075,-7039618 -332171,-7039653 -332233,-7039676 -332259,-7039675 -332332,-7039711 -332528,-7039790 -332632,-7039832 -332792,-7039894 -332842,-7039910 -332978,-7039948 -333080,-7039981 -333150,-7040008 -333161,-7039994 -333199,-7039957 -333255,-7039899 -333259,-7039902 -333321,-7039846 -333390,-7039774 -333439,-7039730 -333500,-7039689 -333516,-7039675 -333532,-7039665 -333544,-7039657 -333556,-7039651 -333573,-7039644 -333591,-7039638 -333618,-7039632 -333665,-7039594 -333807,-7039484 -333818,-7039470 -333835,-7039443 -333933,-7039363 -334008,-7039324 -334053,-7039288 -334109,-7039244 -334201,-7039160 -334232,-7039141 -334259,-7039124 -334314,-7039092 -334389,-7039045 -334509,-7038972 -334556,-7038947 -334681,-7038900 -334744,-7038880 -334820,-7038859 -334904,-7038830 -335010,-7038769 -335049,-7038758 -335079,-7038747 -335129,-7038729 -335209,-7038708 -335254,-7038676 -335283,-7038655 -335316,-7038618 -335365,-7038539 -335387,-7038492 -335430,-7038502 -335560,-7038536 -335603,-7038549 -335616,-7038553 -335686,-7038569 -335748,-7038589 -335785,-7038590 -335789,-7038590 -335963,-7038658 -336023,-7038685 -336325,-7038499 -336350,-7038462 -336407,-7038393 -336495,-7038464 -336628,-7038569 -336806,-7038345 -336868,-7038264 -336988,-7038337 -337030,-7038361 -337162,-7038435 -337264,-7038492 -337271,-7038496 -337346,-7038536 -337354,-7038540 -337448,-7038409 -337596,-7038521 -337667,-7038577 -337703,-7038606 -337835,-7038699 -337949,-7038785 -337985,-7038820 -338022,-7038859 -338032,-7038867 -338038,-7038874 -338042,-7038882 -338045,-7038890 -338012,-7039008 -338014,-7039038 -338019,-7039074 -338024,-7039110 -338030,-7039130 -338048,-7039192 -338098,-7039309 -338111,-7039330 -338146,-7039393 -338173,-7039455 -338193,-7039510 -338198,-7039526 -338203,-7039563 -338201,-7039575 -338213,-7039602 -338241,-7039643 -338298,-7039685 -338327,-7039697 -338362,-7039693 -338403,-7039678 -338430,-7039672 -338481,-7039669 -338488,-7039668 -338595,-7039652 -338611,-7039684 -338631,-7039740 -338641,-7039779 -338632,-7039792 -338628,-7039795 -338609,-7039810 -338591,-7039824 -338641,-7039871 -338668,-7039899 -338704,-7039915 -338724,-7039932 -338734,-7039952 -338749,-7039961 -338770,-7039970 -338817,-7039982 -338845,-7039989 -338895,-7040003 -338926,-7040003 -338966,-7040013 -338973,-7040015 -338976,-7040017 -339000,-7040033 -339063,-7040054 -339080,-7040075 -339098,-7040137 -339125,-7040217 -339188,-7040221 -339189,-7040223 -339199,-7040243 -339226,-7040289 -339237,-7040310 -339266,-7040367 -339268,-7040371 -339301,-7040433 -339320,-7040474 -339327,-7040497 -339334,-7040521 -339338,-7040581 -339343,-7040626 -339345,-7040725 -339369,-7040718 -339396,-7040713 -339465,-7040702 -339543,-7040693 -339617,-7040682 -339618,-7040681 -339659,-7040671 -339683,-7040664 -339742,-7040645 -339750,-7040635 -339753,-7040634 -339824,-7040604 -339877,-7040588 -339962,-7040557 -340170,-7040495 -340281,-7040459 -340454,-7040406 -340581,-7040367 -340599,-7040361 -340631,-7040402 -340661,-7040442 -340722,-7040521 -340731,-7040532 -340933,-7040761 -341067,-7040908 -341108,-7040953 -341111,-7040956 -341205,-7041035 -341558,-7041328 -341711,-7041435 -341838,-7041521 -341866,-7041545 -341874,-7041538 -342040,-7041634 -342044,-7041636 -342045,-7041637 -342125,-7041682 -342214,-7041735 -342314,-7041602 -342321,-7041593 -342302,-7041580 -342402,-7041451 -342462,-7041375 -342525,-7041412 -342595,-7041456 -342626,-7041474 -342657,-7041490 -342659,-7041488 -342683,-7041461 -342688,-7041442 -342704,-7041426 -342739,-7041383 -342762,-7041358 -342772,-7041346 -342781,-7041334 -342795,-7041306 -342832,-7041246 -342896,-7041170 -342901,-7041162 -342907,-7041151 -342925,-7041109 -342928,-7041098 -342930,-7041081 -342929,-7041067 -342938,-7041016 -342943,-7041005 -342947,-7040999 -342961,-7040985 -342961,-7040984 -342970,-7040971 -342973,-7040963 -342976,-7040953 -342977,-7040939 -342974,-7040927 -342974,-7040923 -342972,-7040904 -343005,-7040871 -343020,-7040859 -343039,-7040833 -343095,-7040769 -343169,-7040706 -343175,-7040702 -343190,-7040703 -343268,-7040654 -343305,-7040627 -343338,-7040602 -343384,-7040569 -343421,-7040529 -343458,-7040499 -343500,-7040474 -343555,-7040434 -343604,-7040404 -343626,-7040386 -343665,-7040360 -343778,-7040278 -343842,-7040239 -343849,-7040236 -343856,-7040234 -343865,-7040239 -343880,-7040239 -343945,-7040177 -343987,-7040138 -344073,-7040052 -344100,-7040039 -344121,-7040030 -344170,-7039985 -344189,-7039963 -344207,-7039946 -344267,-7039893 -344349,-7039817 -344405,-7039763 -344459,-7039716 -344500,-7039679 -344510,-7039671 -344534,-7039656 -344548,-7039642 -344591,-7039601 -344634,-7039562 -344709,-7039491 -344809,-7039399 -344891,-7039319 -345050,-7039165 -345120,-7039101 -345183,-7039039 -345271,-7038961 -345380,-7038853 -345558,-7038686 -345850,-7038406 -346068,-7038196 -346093,-7038172 -346142,-7038128 -346283,-7037992 -346629,-7037664 -346892,-7037412 -347160,-7037160 -347297,-7037030 -347434,-7036900 -347719,-7036626 -348039,-7036326 -348238,-7036146 -348544,-7036456 -348738,-7036662 -349439,-7037409 -350019,-7038026 -350245,-7038288 -350314,-7038368 -350326,-7038382 -351369,-7039591 -351550,-7039797 -351576,-7039827 -351586,-7039837 -351960,-7040263 -351980,-7040285 -352414,-7040779 -352469,-7040834 -352916,-7041224 -352981,-7041280 -353195,-7041458 -353201,-7041463 -353227,-7041484 -353379,-7041606 -353543,-7041738 -353930,-7042034 -354067,-7042141 -354665,-7042635 -354735,-7042694 -354752,-7042708 -354861,-7042801 -355127,-7043027 -355185,-7043076 -355886,-7043684 -356522,-7044281 -356569,-7044326 -357216,-7044948 -357674,-7045384 -358107,-7045823 -357936,-7045949 -357637,-7046177 -357454,-7046316 -357500,-7046365 -357506,-7046374 -357509,-7046379 -357523,-7046414 -357528,-7046423 -357536,-7046436 -357541,-7046444 -357582,-7046495 -357605,-7046530 -357611,-7046540 -357615,-7046552 -357619,-7046565 -357621,-7046577 -357622,-7046587 -357622,-7046595 -357617,-7046620 -357617,-7046628 -357619,-7046641 -357621,-7046651 -357626,-7046662 -357635,-7046679 -357655,-7046713 -357668,-7046742 -357675,-7046762 -357679,-7046781 -357680,-7046803 -357676,-7046827 -357669,-7046857 -357671,-7046910 -357675,-7046918 -357677,-7046933 -357688,-7046969 -357691,-7046987 -357692,-7047005 -357692,-7047018 -357690,-7047029 -357680,-7047050 -357675,-7047059 -357670,-7047064 -357664,-7047069 -357655,-7047073 -357611,-7047083 -357595,-7047085 -357578,-7047081 -357575,-7047079 -357574,-7047074 -357571,-7047057 -357568,-7047056 -357562,-7047054 -357559,-7047055 -357541,-7047062 -357513,-7047069 -357506,-7047068 -357503,-7047066 -357500,-7047064 -357498,-7047061 -357496,-7047054 -357496,-7047046 -357497,-7047040 -357505,-7047027 -357525,-7047004 -357527,-7046998 -357529,-7046991 -357530,-7046986 -357529,-7046983 -357524,-7046980 -357506,-7046980 -357501,-7046981 -357494,-7046986 -357484,-7046994 -357480,-7046996 -357474,-7046997 -357469,-7046997 -357467,-7046995 -357465,-7046993 -357452,-7046969 -357448,-7046965 -357434,-7046961 -357426,-7046962 -357400,-7046963 -357386,-7046959 -357380,-7046956 -357377,-7046954 -357374,-7046950 -357372,-7046945 -357370,-7046916 -357368,-7046913 -357357,-7046908 -357345,-7046904 -357331,-7046887 -357325,-7046882 -357315,-7046878 -357295,-7046873 -357291,-7046869 -357282,-7046859 -357274,-7046849 -357272,-7046847 -357269,-7046846 -357255,-7046847 -357251,-7046845 -357246,-7046841 -357231,-7046815 -357228,-7046812 -357223,-7046810 -357213,-7046807 -357211,-7046807 -357205,-7046798 -357202,-7046789 -357194,-7046774 -357192,-7046772 -357174,-7046760 -357170,-7046753 -357169,-7046748 -357170,-7046741 -357174,-7046729 -357174,-7046705 -357173,-7046698 -357170,-7046688 -357159,-7046670 -357150,-7046646 -357148,-7046638 -357144,-7046633 -357141,-7046616 -357143,-7046603 -357135,-7046560 -356971,-7046690 -356886,-7046752 -356886,-7046753 -356888,-7046761 -356891,-7046770 -356907,-7046808 -356948,-7046900 -356983,-7046969 -357002,-7047000 -357006,-7047010 -357009,-7047022 -357013,-7047046 -357013,-7047055 -357012,-7047060 -357011,-7047064 -357008,-7047067 -357005,-7047069 -357002,-7047070 -356999,-7047070 -356992,-7047067 -356986,-7047064 -356965,-7047045 -356957,-7047036 -356938,-7047020 -356881,-7046960 -356812,-7046895 -356786,-7046865 -356761,-7046840 -356693,-7046897 -356568,-7046992 -356395,-7047131 -356444,-7047180 -356483,-7047221 -356552,-7047300 -356574,-7047336 -356599,-7047358 -356608,-7047362 -356618,-7047365 -356641,-7047368 -356656,-7047373 -356664,-7047377 -356678,-7047386 -356703,-7047399 -356717,-7047408 -356728,-7047419 -356732,-7047427 -356731,-7047429 -356726,-7047436 -356712,-7047439 -356710,-7047440 -356706,-7047444 -356703,-7047450 -356701,-7047455 -356702,-7047459 -356703,-7047462 -356729,-7047490 -356771,-7047523 -356778,-7047534 -356783,-7047547 -356783,-7047549 -356775,-7047559 -356771,-7047562 -356768,-7047564 -356762,-7047564 -356751,-7047562 -356730,-7047557 -356724,-7047554 -356683,-7047546 -356670,-7047546 -356668,-7047547 -356666,-7047550 -356666,-7047552 -356668,-7047561 -356684,-7047587 -356698,-7047605 -356703,-7047613 -356710,-7047627 -356714,-7047645 -356715,-7047659 -356714,-7047664 -356709,-7047678 -356708,-7047684 -356710,-7047695 -356718,-7047706 -356737,-7047724 -356747,-7047735 -356755,-7047748 -356760,-7047758 -356764,-7047767 -356772,-7047796 -356790,-7047843 -356801,-7047868 -356804,-7047882 -356804,-7047889 -356801,-7047899 -356799,-7047901 -356797,-7047902 -356793,-7047901 -356776,-7047893 -356667,-7047801 -356619,-7047764 -356602,-7047748 -356590,-7047738 -356580,-7047733 -356486,-7047670 -356464,-7047651 -356441,-7047633 -356374,-7047593 -356293,-7047535 -356245,-7047504 -356219,-7047489 -356179,-7047468 -356151,-7047456 -356108,-7047440 -356311,-7047691 -356585,-7048022 -357037,-7048594 -357409,-7049074 -357824,-7049600 -358487,-7050431 -358523,-7050476 -359166,-7051292 -359585,-7051830 -359749,-7052424 -360001,-7053431 -360230,-7054344 -360302,-7054627 -360407,-7055045 -360442,-7055185 -360722,-7056285 -360985,-7057374 -360991,-7057400 -361000,-7057435 -362192,-7062121 -363118,-7065759 -363319,-7066579 -361422,-7065789 -359220,-7064863 -356852,-7063876 -355105,-7063140 -354746,-7062989 -353593,-7062504 -353063,-7062492 -352388,-7062475 -352383,-7062493 -352377,-7062502 -352374,-7062506 -352369,-7062508 -352361,-7062509 -352345,-7062507 -352338,-7062506 -352330,-7062502 -352326,-7062499 -352314,-7062489 -352308,-7062486 -352297,-7062485 -352291,-7062486 -352290,-7062487 -352297,-7062522 -352299,-7062535 -352268,-7062574 -352264,-7062577 -352256,-7062582 -352247,-7062585 -352238,-7062586 -352227,-7062586 -352218,-7062583 -352215,-7062582 -352204,-7062552 -352181,-7062543 -352178,-7062531 -352184,-7062505 -352153,-7062475 -352152,-7062447 -352144,-7062433 -352131,-7062446 -352112,-7062501 -352109,-7062535 -352109,-7062578 -352092,-7062604 -352074,-7062621 -352066,-7062616 -352059,-7062597 -352062,-7062569 -352055,-7062531 -352029,-7062506 -351993,-7062468 -351587,-7062457 -351300,-7062450 -350826,-7062439 -350781,-7062474 -350734,-7062495 -350646,-7062505 -350628,-7062508 -350592,-7062517 -350574,-7062523 -350550,-7062535 -350536,-7062544 -350517,-7062565 -350506,-7062579 -350497,-7062619 -350467,-7062662 -350416,-7062714 -350367,-7062797 -350366,-7062799 -350353,-7062807 -350318,-7062825 -350306,-7062825 -350299,-7062822 -350305,-7062796 -350299,-7062792 -350275,-7062826 -350258,-7062845 -350239,-7062841 -350230,-7062790 -350226,-7062729 -350221,-7062728 -350194,-7062766 -350155,-7062788 -350147,-7062796 -350142,-7062803 -350136,-7062815 -350120,-7062861 -350112,-7062878 -350100,-7062892 -350083,-7062896 -350074,-7062902 -350071,-7062907 -350069,-7062910 -350065,-7062935 -350062,-7062945 -350058,-7062954 -350051,-7062964 -350047,-7062968 -350042,-7062970 -350036,-7062971 -350022,-7062970 -350016,-7062971 -350006,-7062973 -349998,-7062976 -349991,-7062980 -349986,-7062985 -349973,-7063007 -349959,-7063025 -349947,-7063035 -349940,-7063039 -349931,-7063043 -349916,-7063047 -349886,-7063049 -349858,-7063054 -349834,-7063024 -349830,-7063011 -349826,-7062998 -349826,-7062966 -349825,-7062949 -349823,-7062938 -349821,-7062932 -349817,-7062926 -349812,-7062920 -349804,-7062913 -349785,-7062900 -349780,-7062894 -349776,-7062877 -349774,-7062862 -349772,-7062839 -349768,-7062833 -349761,-7062829 -349754,-7062828 -349684,-7062839 -349670,-7062836 -349661,-7062831 -349656,-7062827 -349636,-7062805 -349624,-7062786 -349619,-7062778 -349606,-7062734 -349598,-7062690 -349594,-7062662 -349587,-7062658 -349582,-7062657 -349578,-7062658 -349575,-7062660 -349568,-7062667 -349564,-7062673 -349557,-7062685 -349555,-7062687 -349551,-7062689 -349546,-7062690 -349536,-7062689 -349526,-7062684 -349522,-7062681 -349516,-7062675 -349511,-7062668 -349506,-7062655 -349489,-7062586 -349486,-7062574 -349481,-7062563 -349475,-7062553 -349445,-7062519 -349425,-7062495 -349420,-7062484 -349416,-7062471 -349415,-7062422 -349411,-7062407 -348450,-7062385 -348020,-7062373 -347919,-7062369 -347907,-7062418 -347902,-7062449 -347902,-7062457 -347906,-7062478 -347907,-7062493 -347906,-7062499 -347901,-7062515 -347838,-7062593 -347780,-7062651 -347774,-7062658 -347720,-7062706 -347686,-7062742 -347671,-7062761 -347666,-7062768 -347633,-7062837 -347615,-7062882 -347607,-7062905 -347596,-7062942 -347590,-7062975 -347565,-7063099 -347548,-7063242 -347547,-7063257 -347547,-7063293 -347551,-7063329 -347556,-7063360 -347563,-7063375 -347568,-7063384 -347577,-7063393 -347612,-7063418 -347623,-7063430 -347628,-7063437 -347650,-7063476 -347651,-7063480 -347652,-7063488 -347651,-7063494 -347641,-7063520 -347624,-7063534 -347619,-7063535 -347616,-7063535 -347577,-7063528 -347535,-7063513 -347430,-7063481 -347407,-7063472 -347383,-7063464 -347354,-7063450 -347266,-7063427 -347142,-7063326 -347056,-7063254 -346976,-7063172 -346919,-7063115 -346870,-7063053 -346836,-7062986 -346815,-7062940 -346786,-7062898 -346738,-7062847 -346708,-7062816 -346518,-7062912 -346359,-7062997 -346107,-7063129 -345934,-7063216 -345863,-7063254 -345845,-7063264 -345534,-7063427 -345622,-7063429 -345751,-7063434 -345822,-7063438 -345879,-7063443 -345976,-7063454 -346018,-7063460 -346069,-7063468 -346073,-7063470 -346135,-7063482 -346194,-7063492 -346297,-7063502 -346348,-7063505 -346439,-7063504 -346453,-7063505 -346465,-7063505 -346479,-7063502 -346493,-7063499 -346525,-7063485 -346551,-7063477 -346569,-7063473 -346581,-7063472 -346668,-7063474 -346719,-7063473 -346754,-7063470 -346794,-7063473 -346808,-7063475 -346840,-7063485 -346860,-7063500 -346931,-7063533 -346967,-7063545 -346974,-7063548 -346978,-7063548 -346983,-7063545 -346985,-7063542 -346986,-7063537 -346986,-7063531 -346983,-7063522 -346979,-7063518 -346975,-7063514 -346969,-7063511 -346949,-7063494 -346933,-7063472 -346931,-7063465 -346930,-7063456 -346934,-7063451 -346940,-7063446 -346948,-7063446 -346978,-7063440 -346990,-7063440 -347006,-7063440 -347035,-7063446 -347055,-7063452 -347108,-7063479 -347122,-7063485 -347150,-7063495 -347187,-7063505 -347202,-7063509 -347213,-7063515 -347225,-7063521 -347277,-7063556 -347331,-7063594 -347366,-7063627 -347421,-7063662 -347452,-7063681 -347493,-7063696 -347505,-7063699 -347525,-7063700 -347542,-7063703 -347570,-7063705 -347596,-7063704 -347610,-7063702 -347616,-7063703 -347621,-7063705 -347625,-7063709 -347628,-7063714 -347630,-7063719 -347629,-7063723 -347628,-7063728 -347624,-7063734 -347602,-7063751 -347586,-7063761 -347580,-7063765 -347571,-7063774 -347559,-7063788 -347553,-7063796 -347539,-7063857 -347537,-7063927 -347538,-7063934 -347542,-7063946 -347550,-7063955 -347556,-7063960 -347571,-7063965 -347593,-7063976 -347603,-7063984 -347607,-7063990 -347610,-7063997 -347611,-7064003 -347610,-7064012 -347606,-7064021 -347602,-7064025 -347593,-7064030 -347566,-7064061 -347558,-7064074 -347548,-7064098 -347537,-7064119 -347528,-7064132 -347518,-7064145 -347454,-7064217 -347388,-7064282 -347326,-7064348 -347298,-7064371 -347282,-7064381 -347256,-7064398 -347213,-7064424 -347127,-7064460 -347124,-7064461 -347120,-7064461 -347117,-7064460 -347113,-7064454 -347112,-7064448 -347113,-7064432 -347112,-7064429 -347110,-7064426 -347107,-7064423 -347104,-7064422 -347100,-7064422 -347093,-7064425 -347079,-7064438 -346981,-7064466 -346887,-7064497 -346844,-7064510 -346820,-7064522 -346796,-7064546 -346787,-7064553 -346781,-7064560 -346775,-7064569 -346772,-7064576 -346769,-7064590 -346769,-7064603 -346766,-7064613 -346761,-7064628 -346749,-7064658 -346733,-7064683 -346711,-7064760 -346698,-7064810 -346693,-7064824 -346684,-7064845 -346666,-7064882 -346659,-7064894 -346643,-7064916 -346621,-7064942 -346599,-7064967 -346566,-7065002 -346557,-7065014 -346548,-7065022 -346542,-7065026 -346536,-7065027 -346533,-7065027 -346519,-7065018 -346516,-7065015 -346514,-7065010 -346513,-7065002 -346513,-7064994 -346514,-7064989 -346516,-7064981 -346523,-7064969 -346531,-7064944 -346536,-7064934 -346551,-7064905 -346563,-7064886 -346593,-7064833 -346624,-7064767 -346657,-7064714 -346665,-7064697 -346669,-7064679 -346672,-7064653 -346703,-7064573 -346706,-7064568 -346707,-7064564 -346706,-7064560 -346705,-7064557 -346701,-7064554 -346687,-7064555 -346638,-7064585 -346601,-7064628 -346554,-7064705 -346519,-7064773 -346478,-7064858 -346414,-7064959 -346393,-7064982 -346343,-7065024 -346263,-7065095 -346201,-7065163 -346145,-7065218 -346118,-7065250 -346097,-7065256 -346079,-7065257 -346063,-7065264 -346020,-7065310 -345991,-7065349 -345970,-7065380 -345967,-7065383 -345962,-7065384 -345957,-7065385 -345953,-7065384 -345950,-7065381 -345947,-7065377 -345944,-7065371 -345943,-7065365 -345942,-7065360 -345943,-7065354 -345944,-7065350 -345948,-7065342 -345952,-7065308 -345967,-7065253 -345971,-7065234 -345972,-7065214 -345973,-7065188 -345971,-7065175 -345969,-7065167 -345967,-7065164 -345965,-7065162 -345961,-7065161 -345956,-7065161 -345931,-7065173 -345914,-7065193 -345906,-7065198 -345904,-7065198 -345887,-7065182 -345880,-7065189 -345887,-7065247 -345879,-7065290 -345879,-7065300 -345878,-7065305 -345876,-7065309 -345869,-7065317 -345866,-7065319 -345859,-7065318 -345854,-7065315 -345842,-7065301 -345834,-7065300 -345819,-7065316 -345804,-7065348 -345796,-7065358 -345791,-7065362 -345787,-7065363 -345763,-7065367 -345727,-7065376 -345716,-7065376 -345699,-7065381 -345694,-7065383 -345689,-7065387 -345686,-7065392 -345681,-7065402 -345679,-7065409 -345679,-7065413 -345681,-7065420 -345684,-7065427 -345689,-7065433 -345695,-7065439 -345706,-7065445 -345731,-7065475 -345735,-7065481 -345740,-7065490 -345744,-7065501 -345747,-7065513 -345749,-7065530 -345755,-7065553 -345756,-7065563 -345758,-7065569 -345761,-7065574 -345765,-7065578 -345768,-7065579 -345772,-7065580 -345777,-7065577 -345782,-7065573 -345785,-7065569 -345786,-7065563 -345785,-7065548 -345784,-7065538 -345787,-7065517 -345804,-7065454 -345807,-7065431 -345812,-7065415 -345820,-7065405 -345828,-7065402 -345833,-7065402 -345840,-7065403 -345846,-7065406 -345855,-7065412 -345879,-7065446 -345913,-7065533 -345949,-7065635 -345953,-7065643 -345960,-7065651 -345967,-7065657 -345977,-7065662 -345989,-7065666 -345998,-7065668 -346004,-7065667 -346010,-7065667 -346017,-7065664 -346024,-7065661 -346030,-7065656 -346034,-7065651 -346037,-7065646 -346062,-7065564 -346065,-7065543 -346066,-7065530 -346066,-7065511 -346070,-7065499 -346080,-7065493 -346085,-7065491 -346092,-7065491 -346102,-7065492 -346123,-7065503 -346127,-7065507 -346133,-7065515 -346137,-7065525 -346140,-7065536 -346140,-7065543 -346139,-7065555 -346136,-7065568 -346124,-7065607 -346108,-7065666 -346099,-7065685 -346095,-7065699 -346093,-7065714 -346092,-7065729 -346093,-7065738 -346098,-7065760 -346100,-7065767 -346103,-7065772 -346111,-7065782 -346167,-7065830 -346195,-7065832 -346209,-7065834 -346245,-7065846 -346275,-7065846 -346303,-7065848 -346335,-7065857 -346386,-7065872 -346418,-7065881 -346430,-7065883 -346458,-7065885 -346487,-7065892 -346495,-7065895 -346515,-7065906 -346601,-7065980 -346641,-7066021 -346654,-7066034 -346676,-7066057 -346688,-7066063 -346695,-7066070 -346699,-7066077 -346701,-7066084 -346701,-7066096 -346700,-7066102 -346698,-7066107 -346695,-7066112 -346690,-7066116 -346684,-7066120 -346678,-7066122 -346666,-7066121 -346606,-7066125 -346518,-7066121 -346490,-7066116 -346462,-7066113 -346440,-7066112 -346425,-7066112 -346415,-7066114 -346406,-7066116 -346382,-7066124 -346367,-7066128 -346344,-7066133 -346309,-7066137 -346289,-7066142 -346278,-7066143 -346269,-7066141 -346258,-7066138 -346233,-7066127 -346209,-7066111 -346193,-7066098 -346182,-7066101 -346177,-7066105 -346172,-7066107 -346167,-7066108 -346163,-7066107 -346157,-7066104 -346151,-7066097 -346144,-7066092 -346139,-7066090 -346132,-7066090 -346111,-7066091 -346097,-7066089 -346089,-7066086 -346081,-7066082 -346071,-7066075 -346066,-7066074 -346063,-7066075 -346060,-7066076 -346058,-7066079 -346056,-7066082 -346055,-7066088 -346049,-7066110 -346044,-7066118 -346040,-7066121 -346036,-7066123 -346032,-7066124 -346026,-7066124 -346021,-7066122 -346016,-7066119 -346010,-7066111 -345971,-7066089 -345962,-7066085 -345953,-7066084 -345940,-7066083 -345931,-7066084 -345923,-7066105 -345852,-7066085 -345840,-7066085 -345832,-7066084 -345823,-7066082 -345812,-7066078 -345803,-7066073 -345794,-7066068 -345784,-7066058 -345752,-7066082 -345747,-7066085 -345736,-7066087 -345723,-7066087 -345720,-7066086 -345714,-7066081 -345708,-7066076 -345698,-7066066 -345670,-7066067 -345664,-7066067 -345659,-7066065 -345652,-7066062 -345647,-7066058 -345647,-7066057 -345640,-7066050 -345633,-7066046 -345625,-7066044 -345619,-7066042 -345611,-7066040 -345603,-7066039 -345595,-7066038 -345591,-7066038 -345581,-7066037 -345572,-7066037 -345562,-7066038 -345555,-7066039 -345548,-7066041 -345547,-7066041 -345542,-7066043 -345537,-7066046 -345533,-7066048 -345529,-7066051 -345505,-7066074 -345494,-7066081 -345480,-7066059 -345477,-7066052 -345474,-7066049 -345470,-7066047 -345467,-7066045 -345464,-7066044 -345460,-7066043 -345456,-7066042 -345452,-7066042 -345448,-7066041 -345446,-7066041 -345442,-7066042 -345438,-7066043 -345437,-7066043 -345433,-7066044 -345429,-7066046 -345425,-7066048 -345422,-7066051 -345419,-7066053 -345408,-7066062 -345392,-7066067 -345388,-7066053 -345386,-7066049 -345384,-7066045 -345382,-7066042 -345379,-7066038 -345376,-7066035 -345372,-7066032 -345372,-7066032 -345368,-7066030 -345364,-7066028 -345360,-7066026 -345356,-7066026 -345352,-7066025 -345347,-7066024 -345343,-7066024 -345338,-7066024 -345334,-7066024 -345332,-7066023 -345318,-7066022 -345305,-7066021 -345291,-7066021 -345278,-7066021 -345256,-7066022 -345234,-7066023 -345211,-7066026 -345200,-7066027 -345169,-7066031 -345138,-7066036 -345134,-7066037 -345118,-7066041 -345102,-7066047 -345086,-7066052 -345071,-7066058 -345069,-7066062 -345045,-7066075 -345039,-7066081 -345036,-7066085 -345030,-7066098 -345022,-7066107 -345018,-7066109 -345010,-7066111 -345000,-7066111 -344991,-7066106 -344950,-7066091 -344936,-7066088 -344924,-7066088 -344913,-7066089 -344902,-7066091 -344875,-7066100 -344861,-7066103 -344848,-7066102 -344839,-7066101 -344823,-7066095 -344814,-7066089 -344766,-7066066 -344770,-7066063 -344782,-7066050 -344783,-7066044 -344769,-7066038 -344756,-7066023 -344746,-7066026 -344739,-7066027 -344732,-7066026 -344726,-7066024 -344704,-7066007 -344696,-7066003 -344683,-7066000 -344658,-7065990 -344631,-7065968 -344595,-7065930 -344560,-7065897 -344550,-7065890 -344544,-7065884 -344536,-7065876 -344531,-7065866 -344526,-7065856 -344523,-7065847 -344521,-7065822 -344523,-7065800 -344522,-7065789 -344517,-7065768 -344516,-7065760 -344517,-7065752 -344506,-7065730 -344493,-7065707 -344492,-7065707 -344485,-7065703 -344483,-7065701 -344481,-7065696 -344481,-7065689 -344482,-7065683 -344486,-7065678 -344491,-7065676 -344506,-7065625 -344519,-7065570 -344529,-7065491 -344530,-7065458 -344526,-7065391 -344519,-7065338 -344517,-7065326 -344513,-7065316 -344509,-7065310 -344498,-7065296 -344474,-7065270 -344439,-7065226 -344434,-7065218 -344421,-7065194 -344413,-7065174 -344405,-7065154 -344381,-7065081 -344378,-7065076 -344374,-7065071 -344368,-7065068 -344363,-7065067 -344361,-7065067 -344357,-7065069 -344355,-7065072 -344354,-7065077 -344356,-7065103 -344363,-7065121 -344367,-7065139 -344368,-7065157 -344364,-7065166 -344363,-7065172 -344363,-7065185 -344366,-7065194 -344382,-7065223 -344385,-7065231 -344387,-7065248 -344386,-7065254 -344383,-7065256 -344380,-7065257 -344376,-7065256 -344370,-7065254 -344364,-7065251 -344357,-7065243 -344354,-7065236 -344306,-7065172 -344286,-7065141 -344268,-7065107 -344257,-7065082 -344226,-7065029 -344204,-7064984 -344188,-7064942 -344165,-7064892 -344156,-7064864 -344115,-7064774 -344109,-7064758 -344099,-7064706 -344097,-7064683 -344096,-7064670 -344098,-7064657 -344098,-7064640 -344094,-7064622 -344087,-7064605 -344134,-7064535 -344164,-7064497 -344214,-7064466 -344270,-7064447 -344291,-7064442 -344307,-7064439 -344346,-7064436 -344401,-7064439 -344439,-7064444 -344467,-7064459 -344488,-7064479 -344533,-7064475 -344536,-7064443 -344550,-7064407 -344561,-7064365 -344570,-7064309 -344567,-7064264 -344553,-7064217 -344538,-7064187 -344513,-7064161 -344473,-7064126 -344427,-7064084 -344220,-7064219 -344074,-7064309 -343872,-7064435 -343824,-7064463 -343730,-7064519 -343838,-7064675 -343869,-7064721 -343880,-7064741 -343890,-7064762 -343901,-7064789 -343922,-7064846 -343947,-7064899 -343981,-7065035 -344018,-7065235 -344020,-7065325 -344022,-7065355 -344026,-7065393 -344023,-7065433 -344021,-7065443 -344013,-7065473 -344003,-7065490 -343998,-7065498 -343995,-7065501 -343989,-7065505 -343983,-7065507 -343979,-7065507 -343968,-7065500 -343956,-7065470 -343948,-7065455 -343943,-7065442 -343939,-7065426 -343938,-7065417 -343935,-7065371 -343930,-7065329 -343924,-7065311 -343920,-7065292 -343917,-7065278 -343916,-7065258 -343917,-7065230 -343915,-7065208 -343894,-7065107 -343862,-7064936 -343855,-7064911 -343827,-7064852 -343792,-7064787 -343742,-7064701 -343738,-7064694 -343732,-7064689 -343726,-7064688 -343723,-7064689 -343719,-7064692 -343715,-7064696 -343713,-7064699 -343706,-7064727 -343710,-7064750 -343710,-7064764 -343709,-7064771 -343705,-7064785 -343701,-7064794 -343700,-7064801 -343699,-7064806 -343696,-7064812 -343692,-7064816 -343688,-7064819 -343682,-7064821 -343677,-7064822 -343672,-7064821 -343668,-7064819 -343664,-7064816 -343659,-7064808 -343627,-7064714 -343624,-7064700 -343618,-7064653 -343617,-7064594 -343483,-7064694 -343520,-7064754 -343539,-7064778 -343557,-7064798 -343580,-7064827 -343589,-7064837 -343605,-7064851 -343632,-7064870 -343638,-7064872 -343642,-7064875 -343645,-7064880 -343647,-7064886 -343647,-7064892 -343644,-7064897 -343642,-7064899 -343639,-7064901 -343632,-7064903 -343626,-7064902 -343620,-7064900 -343611,-7064894 -343595,-7064881 -343565,-7064847 -343534,-7064817 -343481,-7064781 -343471,-7064775 -343439,-7064759 -343421,-7064754 -343409,-7064752 -343403,-7064751 -343277,-7064843 -343329,-7064844 -343342,-7064844 -343374,-7064847 -343431,-7064856 -343445,-7064861 -343451,-7064865 -343458,-7064871 -343465,-7064878 -343469,-7064884 -343471,-7064889 -343473,-7064895 -343473,-7064906 -343468,-7064923 -343461,-7064937 -343451,-7064950 -343440,-7064959 -343433,-7064963 -343414,-7064969 -343406,-7064974 -343402,-7064978 -343398,-7064984 -343397,-7064988 -343398,-7065000 -343400,-7065009 -343406,-7065025 -343417,-7065042 -343427,-7065052 -343429,-7065055 -343442,-7065082 -343448,-7065098 -343449,-7065106 -343449,-7065116 -343447,-7065123 -343442,-7065132 -343434,-7065139 -343428,-7065142 -343420,-7065145 -343413,-7065146 -343406,-7065145 -343355,-7065138 -343308,-7065130 -343281,-7065123 -343227,-7065107 -343175,-7065096 -343163,-7065096 -343156,-7065098 -343150,-7065102 -343137,-7065114 -343132,-7065121 -343111,-7065160 -343103,-7065168 -343097,-7065172 -343090,-7065173 -343081,-7065174 -343070,-7065174 -343060,-7065172 -343039,-7065164 -343028,-7065159 -343017,-7065152 -343010,-7065146 -342995,-7065125 -342987,-7065117 -342978,-7065110 -342968,-7065105 -342959,-7065103 -342949,-7065103 -342943,-7065101 -342938,-7065100 -342932,-7065102 -342928,-7065104 -342925,-7065108 -342924,-7065112 -342923,-7065117 -342924,-7065121 -342927,-7065126 -342940,-7065173 -342966,-7065232 -342985,-7065268 -343002,-7065295 -343025,-7065329 -343051,-7065377 -343052,-7065386 -343052,-7065391 -343048,-7065401 -343046,-7065404 -343043,-7065406 -343038,-7065409 -343032,-7065410 -343028,-7065410 -343005,-7065403 -342984,-7065397 -342967,-7065391 -342947,-7065381 -342916,-7065359 -342911,-7065356 -342889,-7065331 -342826,-7065273 -342768,-7065215 -342693,-7065277 -342722,-7065293 -342747,-7065308 -342796,-7065326 -342825,-7065341 -342838,-7065349 -342865,-7065367 -342970,-7065431 -342979,-7065432 -342984,-7065434 -342988,-7065438 -342991,-7065442 -343007,-7065480 -343008,-7065485 -343008,-7065491 -343006,-7065499 -343004,-7065505 -343000,-7065512 -342994,-7065519 -342989,-7065524 -342979,-7065527 -342965,-7065527 -342939,-7065521 -342928,-7065519 -342917,-7065519 -342906,-7065519 -342885,-7065523 -342882,-7065524 -342879,-7065527 -342878,-7065529 -342878,-7065532 -342881,-7065535 -342884,-7065539 -342892,-7065542 -342911,-7065546 -342929,-7065554 -342934,-7065559 -342938,-7065567 -342955,-7065626 -342956,-7065633 -342956,-7065639 -342955,-7065647 -342952,-7065653 -342949,-7065658 -342944,-7065662 -342939,-7065663 -342932,-7065664 -342925,-7065663 -342920,-7065661 -342899,-7065649 -342890,-7065645 -342882,-7065642 -342873,-7065640 -342862,-7065639 -342852,-7065639 -342843,-7065641 -342840,-7065642 -342863,-7065658 -342871,-7065663 -342897,-7065673 -342935,-7065685 -342967,-7065701 -343012,-7065737 -343038,-7065763 -343049,-7065781 -343053,-7065793 -343056,-7065803 -343056,-7065811 -343055,-7065818 -343051,-7065827 -343037,-7065850 -343033,-7065863 -343035,-7065885 -343038,-7065893 -343043,-7065902 -343049,-7065908 -343053,-7065910 -343059,-7065912 -343082,-7065915 -343092,-7065918 -343105,-7065926 -343120,-7065930 -343128,-7065934 -343133,-7065938 -343152,-7065957 -343160,-7065963 -343168,-7065968 -343172,-7065969 -343176,-7065970 -343188,-7065969 -343241,-7065969 -343268,-7065977 -343273,-7065980 -343277,-7065983 -343281,-7065988 -343284,-7065994 -343288,-7066012 -343288,-7066017 -343287,-7066027 -343285,-7066034 -343281,-7066038 -343278,-7066040 -343213,-7066055 -343122,-7066071 -343109,-7066072 -343070,-7066067 -343056,-7066067 -343043,-7066063 -343024,-7066049 -343016,-7066045 -343000,-7066040 -342974,-7066034 -342949,-7066026 -342940,-7066023 -342905,-7066005 -342861,-7065975 -342815,-7065940 -342768,-7065898 -342741,-7065871 -342726,-7065862 -342716,-7065857 -342702,-7065852 -342694,-7065850 -342647,-7065841 -342544,-7065834 -342486,-7065842 -342416,-7065890 -342370,-7065943 -342328,-7066017 -342305,-7066068 -342297,-7066092 -342298,-7066101 -342298,-7066113 -342295,-7066175 -342295,-7066203 -342283,-7066254 -342288,-7066306 -342313,-7066370 -342351,-7066437 -342406,-7066492 -342520,-7066601 -342670,-7066736 -342789,-7066835 -342857,-7066887 -342907,-7066919 -342967,-7066947 -343074,-7066986 -343127,-7066997 -343342,-7067040 -343440,-7067056 -343524,-7067066 -343592,-7067069 -343648,-7067060 -343844,-7067035 -343999,-7067012 -344176,-7066981 -344224,-7066969 -344284,-7066953 -344318,-7066949 -344362,-7066952 -344445,-7066977 -344464,-7066988 -344476,-7066999 -344483,-7067025 -344439,-7067054 -344357,-7067106 -344326,-7067127 -344298,-7067138 -344216,-7067158 -344039,-7067200 -343952,-7067237 -343836,-7067271 -343637,-7067347 -343538,-7067379 -343473,-7067406 -343442,-7067414 -343266,-7067417 -343011,-7067417 -342854,-7067417 -342757,-7067421 -342701,-7067431 -342615,-7067449 -342502,-7067477 -342410,-7067495 -342349,-7067500 -342300,-7067497 -342062,-7067461 -341983,-7067447 -341895,-7067434 -341826,-7067433 -341732,-7067446 -341613,-7067472 -341501,-7067516 -341403,-7067550 -341325,-7067588 -341226,-7067633 -341195,-7067648 -341049,-7067696 -340977,-7067721 -340878,-7067749 -340811,-7067771 -340751,-7067794 -340662,-7067840 -340607,-7067862 -340540,-7067881 -340476,-7067894 -340433,-7067891 -340407,-7067880 -340388,-7067854 -340380,-7067833 -340390,-7067784 -340435,-7067757 -340492,-7067710 -340533,-7067670 -340555,-7067639 -340573,-7067592 -340572,-7067541 -340551,-7067502 -340524,-7067484 -340507,-7067477 -340449,-7067459" stroke="white" stroke-width="71" /></ns0:svg>    <rect x="20" y="50"  width="250" height="25"  rx="0"  fill="#E8EDEE" fill-opacity="0.8" />    <text x="145" y="70" text-anchor="middle" font-family="Frutiger" font-weight="bold" font-size="30" fill="#AE2573">Wirral</text>    <rect x="35" y="195" width="220" height="160" rx="15" fill="#724F95"/>    <g font-family="Frutiger" font-size="15" fill="white">        <g> <text x="45" y="218">Self-harm</text> <text x="245" y="218" text-anchor="end">48</text> </g>        <g> <text x="45" y="243">SEN</text> <text x="245" y="243" text-anchor="end">76</text> </g>        <g> <text x="45" y="268">Difficulties</text> <text x="245" y="268" text-anchor="end">55</text> </g>        <g> <text x="45" y="293">Child Carer</text> <text x="245" y="293" text-anchor="end">3</text> </g>        <g> <text x="45" y="318">Drinkers</text> <text x="245" y="318" text-anchor="end">58</text> </g>        <g> <text x="45" y="343">Safeguarding £</text> <text x="245" y="343" text-anchor="end">24</text> </g>    </g></svg>