<?xml version="1.0" standalone="no"?>
<!DOCTYPE svg PUBLIC "-//W3C//DTD SVG 1.1//EN"
"http://www.w3.org/Graphics/SVG/1.1/DTD/svg11.dtd">
<svg height="390" version="1.1" width="290" xmlns="http://www.w3.org/2000/svg"><defs><style type="text/css">@font-face {font-family: 'Frutiger';font-style: normal;font-weight: normal;src: local('Frutiger'), url('../fonts/Frutiger.woff') format('woff');}@font-face {font-family: 'Frutiger Bold';font-style: normal;font-weight: normal;src: local('Frutiger Bold'), url('../fonts/Frutiger_bold.woff') format('woff');}        </style>    </defs>    <rect x="20" y="20"  width="250" height="350" rx="15" fill="#005EB8" />    <rect x="35" y="35"  width="220" height="145" rx="15" fill="white" /><ns0:svg xmlns:ns0="http://www.w3.org/2000/svg" height="115" version="1.1" viewBox="-174648 -7351040 24848 28077" width="220" x="35" y="50"><ns0:polygon fill="#003087" points=" -151991,-7351032 -151966,-7351025 -151935,-7351028 -151895,-7351026 -151836,-7351028 -151731,-7351025 -151754,-7350980 -151752,-7350925 -151743,-7350845 -151736,-7350798 -151729,-7350776 -151721,-7350754 -151708,-7350730 -151694,-7350706 -151680,-7350683 -151664,-7350661 -151634,-7350621 -151604,-7350597 -151586,-7350568 -151544,-7350553 -151509,-7350546 -151469,-7350540 -151455,-7350549 -151465,-7350585 -151449,-7350600 -151407,-7350611 -151372,-7350614 -151356,-7350615 -151316,-7350624 -151313,-7350625 -151292,-7350661 -151259,-7350655 -151238,-7350645 -151225,-7350621 -151187,-7350620 -151144,-7350625 -151112,-7350621 -151079,-7350613 -151055,-7350599 -151038,-7350593 -151012,-7350601 -151000,-7350592 -150999,-7350589 -151010,-7350555 -151028,-7350534 -150998,-7350513 -150988,-7350493 -150998,-7350468 -151003,-7350432 -150999,-7350400 -151000,-7350377 -151001,-7350374 -151064,-7350352 -151115,-7350350 -151199,-7350369 -151288,-7350386 -151314,-7350395 -151339,-7350403 -151379,-7350420 -151423,-7350450 -151465,-7350461 -151546,-7350495 -151586,-7350504 -151625,-7350501 -151669,-7350478 -151717,-7350446 -151709,-7350433 -151713,-7350406 -151735,-7350382 -151815,-7350301 -151911,-7350208 -151937,-7350169 -151959,-7350120 -151965,-7350101 -151969,-7350082 -151966,-7350040 -151966,-7349990 -151982,-7349957 -152010,-7349912 -152039,-7349868 -152063,-7349824 -152071,-7349783 -152075,-7349736 -152082,-7349692 -152092,-7349591 -152090,-7349564 -152090,-7349523 -152094,-7349454 -152097,-7349423 -152097,-7349411 -152096,-7349388 -152095,-7349375 -152089,-7349342 -152091,-7349323 -152101,-7349255 -152103,-7349213 -152099,-7349187 -152087,-7349157 -152077,-7349139 -152075,-7349133 -152072,-7349093 -152078,-7349052 -152078,-7349035 -152078,-7349019 -152074,-7348988 -152067,-7348960 -152047,-7348915 -152021,-7348878 -151972,-7348833 -151970,-7348822 -151962,-7348802 -151956,-7348792 -151943,-7348774 -151923,-7348753 -151877,-7348758 -151873,-7348752 -151882,-7348735 -151907,-7348714 -151911,-7348704 -151919,-7348680 -151923,-7348654 -151917,-7348646 -151902,-7348654 -151888,-7348681 -151883,-7348690 -151877,-7348698 -151865,-7348710 -151849,-7348713 -151834,-7348713 -151823,-7348708 -151824,-7348694 -151855,-7348615 -151854,-7348614 -151840,-7348608 -151818,-7348621 -151810,-7348625 -151801,-7348620 -151797,-7348604 -151796,-7348601 -151783,-7348602 -151781,-7348603 -151775,-7348626 -151768,-7348638 -151755,-7348630 -151746,-7348618 -151743,-7348604 -151748,-7348580 -151750,-7348571 -151771,-7348518 -151784,-7348470 -151794,-7348460 -151832,-7348451 -151828,-7348421 -151820,-7348410 -151806,-7348405 -151800,-7348393 -151784,-7348357 -151775,-7348318 -151773,-7348296 -151799,-7348291 -151808,-7348321 -151813,-7348332 -151818,-7348343 -151827,-7348356 -151841,-7348344 -151849,-7348314 -151847,-7348294 -151836,-7348290 -151836,-7348253 -151857,-7348239 -151846,-7348175 -151841,-7348123 -151833,-7348002 -151830,-7347947 -151822,-7347910 -151809,-7347871 -151800,-7347838 -151792,-7347780 -151791,-7347751 -151793,-7347736 -151809,-7347631 -151875,-7347602 -151872,-7347587 -151889,-7347580 -151867,-7347499 -151860,-7347460 -151844,-7347450 -151850,-7347428 -151827,-7347382 -151769,-7347283 -151755,-7347261 -151747,-7347273 -151739,-7347299 -151728,-7347316 -151725,-7347334 -151718,-7347349 -151724,-7347356 -151728,-7347370 -151711,-7347385 -151698,-7347382 -151693,-7347360 -151704,-7347348 -151696,-7347327 -151680,-7347324 -151650,-7347296 -151624,-7347274 -151656,-7347245 -151679,-7347282 -151694,-7347276 -151695,-7347275 -151696,-7347236 -151733,-7347212 -151697,-7347170 -151683,-7347155 -151655,-7347129 -151631,-7347110 -151575,-7347086 -151558,-7347082 -151509,-7347074 -151458,-7347058 -151450,-7347052 -151436,-7347039 -151424,-7347025 -151419,-7347018 -151418,-7347011 -151417,-7347006 -151419,-7346996 -151426,-7346985 -151437,-7346974 -151362,-7346976 -151322,-7346973 -151224,-7346964 -151152,-7346952 -151111,-7346943 -151037,-7346923 -150969,-7346901 -150917,-7346880 -150850,-7346847 -150765,-7346804 -150736,-7346785 -150650,-7346725 -150557,-7346649 -150537,-7346630 -150532,-7346622 -150531,-7346617 -150531,-7346611 -150533,-7346605 -150536,-7346601 -150540,-7346596 -150544,-7346593 -150550,-7346591 -150556,-7346590 -150563,-7346591 -150570,-7346594 -150575,-7346599 -150579,-7346604 -150581,-7346608 -150582,-7346619 -150605,-7346640 -150674,-7346696 -150737,-7346741 -150848,-7346805 -150876,-7346819 -150903,-7346831 -151012,-7346874 -151029,-7346880 -151047,-7346886 -151136,-7346908 -151178,-7346917 -151267,-7346931 -151303,-7346935 -151361,-7346936 -151444,-7346936 -151510,-7346933 -151545,-7346929 -151557,-7346871 -151577,-7346778 -151585,-7346736 -151606,-7346651 -151618,-7346609 -151633,-7346537 -151638,-7346500 -151650,-7346437 -151659,-7346377 -151662,-7346333 -151662,-7346313 -151662,-7346293 -151660,-7346280 -151658,-7346268 -151646,-7346221 -151642,-7346213 -151629,-7346197 -151621,-7346189 -151604,-7346178 -151583,-7346173 -151526,-7346170 -151499,-7346165 -151478,-7346166 -151452,-7346164 -151438,-7346158 -151433,-7346154 -151429,-7346150 -151420,-7346136 -151400,-7346147 -151380,-7346120 -151375,-7346113 -151440,-7345990 -151526,-7345831 -151517,-7345797 -151559,-7345785 -151496,-7345587 -151494,-7345588 -151487,-7345593 -151481,-7345598 -151467,-7345615 -151439,-7345606 -151446,-7345581 -151448,-7345565 -151449,-7345557 -151450,-7345550 -151451,-7345514 -151450,-7345475 -151441,-7345423 -151434,-7345397 -151426,-7345376 -151413,-7345352 -151400,-7345316 -151390,-7345295 -151359,-7345232 -151309,-7345255 -151260,-7345275 -151215,-7345296 -151165,-7345306 -151154,-7345307 -151143,-7345307 -151124,-7345302 -151100,-7345291 -151089,-7345283 -151068,-7345266 -151038,-7345237 -150972,-7345280 -150944,-7345302 -150903,-7345342 -150876,-7345370 -150816,-7345443 -150812,-7345447 -150804,-7345459 -150765,-7345518 -150739,-7345564 -150704,-7345638 -150679,-7345711 -150671,-7345745 -150663,-7345775 -150657,-7345804 -150645,-7345903 -150622,-7346195 -150588,-7346193 -150614,-7345866 -150620,-7345798 -150628,-7345762 -150633,-7345741 -150662,-7345645 -150677,-7345609 -150710,-7345543 -150729,-7345511 -150775,-7345443 -150779,-7345436 -150791,-7345416 -150834,-7345363 -150858,-7345336 -150904,-7345291 -150962,-7345241 -151004,-7345210 -151050,-7345185 -151076,-7345172 -151102,-7345160 -151151,-7345138 -151198,-7345109 -151214,-7345091 -151227,-7345063 -151235,-7345042 -151238,-7345031 -151241,-7345010 -151240,-7344999 -151235,-7344965 -151185,-7344853 -151144,-7344760 -151132,-7344734 -151096,-7344670 -151077,-7344641 -151052,-7344645 -151031,-7344645 -150992,-7344638 -150962,-7344629 -150948,-7344624 -150935,-7344619 -150927,-7344614 -150919,-7344608 -150909,-7344600 -150892,-7344585 -150885,-7344577 -150869,-7344557 -150840,-7344512 -150824,-7344477 -150757,-7344478 -150703,-7344495 -150684,-7344492 -150674,-7344480 -150676,-7344461 -150720,-7344438 -150719,-7344419 -150722,-7344416 -150746,-7344407 -150756,-7344394 -150760,-7344386 -150763,-7344377 -150756,-7344366 -150748,-7344345 -150724,-7344361 -150712,-7344345 -150747,-7344317 -150694,-7344166 -150659,-7344074 -150646,-7344034 -150635,-7344011 -150614,-7343977 -150607,-7343966 -150584,-7343896 -150582,-7343890 -150582,-7343888 -150372,-7343667 -150340,-7343636 -150329,-7343630 -150326,-7343628 -150325,-7343625 -150323,-7343612 -150328,-7343607 -150340,-7343603 -150445,-7343522 -150445,-7343510 -150449,-7343503 -150452,-7343501 -150466,-7343496 -150467,-7343495 -150720,-7343285 -150729,-7343286 -150768,-7343249 -150765,-7343242 -150770,-7343237 -150833,-7343185 -150866,-7343156 -150904,-7343126 -150970,-7343068 -151003,-7343041 -151073,-7342979 -151084,-7342970 -151110,-7342958 -151124,-7342894 -151127,-7342873 -151135,-7342848 -151139,-7342841 -151151,-7342825 -151177,-7342786 -151185,-7342775 -151202,-7342757 -151219,-7342741 -151237,-7342726 -151247,-7342720 -151258,-7342715 -151280,-7342706 -151313,-7342697 -151318,-7342680 -151329,-7342666 -151365,-7342627 -151405,-7342588 -151433,-7342529 -151456,-7342473 -151463,-7342454 -151475,-7342407 -151477,-7342396 -151477,-7342372 -151469,-7342323 -151452,-7342195 -151481,-7342188 -151483,-7342182 -151529,-7342169 -151533,-7342124 -151537,-7342076 -151516,-7342007 -151502,-7341943 -151489,-7341875 -151479,-7341800 -151457,-7341713 -151423,-7341588 -151373,-7341407 -151348,-7341322 -151344,-7341301 -151346,-7341279 -151352,-7341231 -151354,-7341218 -151354,-7341206 -151352,-7341170 -151346,-7341129 -151336,-7341080 -151331,-7341034 -151324,-7340994 -151320,-7340958 -151312,-7340917 -151305,-7340867 -151306,-7340855 -151308,-7340853 -151310,-7340852 -151322,-7340848 -151326,-7340845 -151309,-7340832 -151314,-7340829 -151339,-7340819 -151316,-7340816 -151310,-7340814 -151304,-7340811 -151294,-7340793 -151278,-7340790 -151266,-7340784 -151262,-7340779 -151255,-7340767 -151251,-7340754 -151250,-7340747 -151261,-7340739 -151289,-7340730 -151309,-7340726 -151322,-7340720 -151324,-7340704 -151320,-7340681 -151317,-7340674 -151314,-7340667 -151299,-7340649 -151295,-7340642 -151291,-7340624 -151277,-7340523 -151280,-7340508 -151287,-7340491 -151289,-7340465 -151288,-7340457 -151283,-7340432 -151277,-7340419 -151271,-7340411 -151268,-7340394 -151267,-7340364 -151259,-7340289 -151257,-7340280 -151248,-7340253 -151242,-7340225 -151234,-7340199 -151229,-7340170 -151218,-7340112 -151217,-7340102 -151217,-7340071 -151216,-7340061 -151213,-7340050 -151210,-7340038 -151205,-7340026 -151191,-7339996 -151186,-7339991 -151178,-7339993 -151174,-7339979 -151171,-7339964 -151171,-7339923 -151166,-7339877 -151151,-7339822 -151121,-7339721 -151120,-7339719 -151096,-7339644 -151076,-7339577 -151061,-7339537 -151058,-7339518 -151049,-7339458 -151040,-7339427 -151027,-7339401 -151018,-7339389 -151009,-7339378 -150987,-7339357 -150982,-7339342 -150972,-7339291 -150966,-7339263 -150955,-7339238 -150938,-7339211 -150922,-7339184 -150912,-7339171 -150898,-7339157 -150895,-7339152 -150892,-7339134 -150887,-7339115 -150876,-7339089 -150867,-7339072 -150862,-7339055 -150849,-7339025 -150829,-7338995 -150806,-7338966 -150795,-7338948 -150790,-7338940 -150788,-7338928 -150794,-7338923 -150797,-7338919 -150799,-7338914 -150800,-7338907 -150799,-7338900 -150793,-7338882 -150790,-7338865 -150778,-7338848 -150764,-7338835 -150758,-7338817 -150738,-7338805 -150711,-7338805 -150702,-7338804 -150694,-7338778 -150674,-7338720 -150658,-7338687 -150638,-7338672 -150618,-7338655 -150607,-7338637 -150613,-7338614 -150617,-7338581 -150621,-7338563 -150626,-7338547 -150641,-7338520 -150663,-7338504 -150692,-7338494 -150717,-7338488 -150746,-7338461 -150770,-7338415 -150799,-7338332 -150816,-7338302 -150819,-7338278 -150816,-7338259 -150819,-7338241 -150812,-7338210 -150804,-7338192 -150809,-7338145 -150808,-7338136 -150808,-7338127 -150801,-7338103 -150795,-7338085 -150794,-7338075 -150795,-7338065 -150800,-7338048 -150780,-7338045 -150773,-7338024 -150772,-7338013 -150773,-7338002 -150788,-7337979 -150800,-7337957 -150800,-7337927 -150795,-7337841 -150785,-7337790 -150768,-7337722 -150760,-7337710 -150740,-7337707 -150721,-7337707 -150714,-7337700 -150779,-7337674 -150785,-7337658 -150784,-7337634 -150746,-7337592 -150737,-7337569 -150729,-7337537 -150723,-7337492 -150700,-7337437 -150682,-7337389 -150666,-7337340 -150645,-7337272 -150628,-7337236 -150598,-7337182 -150581,-7337128 -150559,-7337015 -150555,-7336999 -150544,-7336963 -150528,-7336897 -150506,-7336871 -150488,-7336858 -150466,-7336846 -150459,-7336797 -150451,-7336779 -150449,-7336767 -150448,-7336755 -150446,-7336701 -150430,-7336725 -150423,-7336743 -150419,-7336760 -150410,-7336731 -150401,-7336690 -150399,-7336655 -150371,-7336545 -150366,-7336513 -150355,-7336481 -150343,-7336453 -150329,-7336434 -150276,-7336339 -150231,-7336243 -150219,-7336219 -150203,-7336188 -150155,-7336055 -150146,-7336022 -150136,-7335999 -150125,-7335978 -150105,-7335951 -150086,-7335932 -150064,-7335916 -150048,-7335900 -150030,-7335899 -149955,-7335921 -149943,-7335922 -149942,-7335922 -149932,-7335898 -149927,-7335877 -149912,-7335883 -149892,-7335898 -149877,-7335920 -149859,-7335934 -149833,-7335935 -149810,-7335930 -149800,-7335917 -149804,-7335904 -149829,-7335901 -149833,-7335878 -149843,-7335859 -149853,-7335855 -149874,-7335849 -149905,-7335843 -149924,-7335826 -149934,-7335807 -149933,-7335772 -149930,-7335739 -149923,-7335712 -149912,-7335699 -149909,-7335665 -149908,-7335630 -149900,-7335608 -149890,-7335621 -149875,-7335620 -149875,-7335597 -149884,-7335575 -149890,-7335548 -149879,-7335518 -149853,-7335500 -149850,-7335473 -149872,-7335411 -149885,-7335379 -149893,-7335343 -149898,-7335310 -149905,-7335282 -149917,-7335265 -149961,-7335233 -149990,-7335206 -149997,-7335198 -150003,-7335181 -150000,-7335159 -149985,-7335154 -149991,-7335130 -149994,-7335105 -149987,-7335093 -149969,-7335077 -149938,-7335000 -149925,-7334976 -149905,-7334951 -149876,-7334918 -149868,-7334907 -149865,-7334882 -149997,-7334864 -150034,-7334859 -150071,-7334858 -150105,-7334849 -150164,-7334828 -150185,-7334824 -150192,-7334817 -150196,-7334778 -150203,-7334761 -150218,-7334756 -150240,-7334759 -150264,-7334767 -150292,-7334783 -150347,-7334809 -150366,-7334813 -150388,-7334812 -150414,-7334815 -150481,-7334849 -150518,-7334859 -150543,-7334861 -150631,-7334831 -150649,-7334826 -150659,-7334822 -150707,-7334803 -150735,-7334796 -150744,-7334789 -150754,-7334745 -150765,-7334733 -150773,-7334715 -150791,-7334703 -150801,-7334687 -150814,-7334657 -150818,-7334649 -150841,-7334650 -150863,-7334640 -150874,-7334630 -150884,-7334619 -150902,-7334587 -150915,-7334557 -150925,-7334545 -150949,-7334554 -150977,-7334553 -151033,-7334521 -151052,-7334505 -151051,-7334492 -151045,-7334478 -151054,-7334464 -151098,-7334446 -151136,-7334435 -151162,-7334429 -151188,-7334431 -151202,-7334435 -151229,-7334425 -151256,-7334412 -151288,-7334402 -151326,-7334402 -151341,-7334404 -151352,-7334392 -151360,-7334375 -151365,-7334369 -151371,-7334364 -151389,-7334356 -151401,-7334335 -151414,-7334323 -151427,-7334334 -151430,-7334358 -151441,-7334367 -151459,-7334361 -151477,-7334340 -151495,-7334332 -151525,-7334343 -151539,-7334346 -151553,-7334348 -151604,-7334351 -151619,-7334353 -151632,-7334357 -151644,-7334361 -151657,-7334383 -151662,-7334391 -151700,-7334396 -151720,-7334385 -151747,-7334387 -151777,-7334384 -151797,-7334387 -151817,-7334394 -151831,-7334398 -151836,-7334391 -151833,-7334372 -151847,-7334367 -151864,-7334377 -151895,-7334382 -151912,-7334357 -151926,-7334320 -151948,-7334306 -151973,-7334300 -151988,-7334294 -152002,-7334299 -152013,-7334309 -152037,-7334316 -152063,-7334326 -152089,-7334331 -152126,-7334323 -152147,-7334322 -152169,-7334321 -152263,-7334319 -152331,-7334307 -152361,-7334297 -152381,-7334283 -152441,-7334229 -152482,-7334173 -152531,-7334102 -152639,-7333956 -152729,-7333840 -152771,-7333789 -152890,-7333625 -152932,-7333574 -152997,-7333470 -153032,-7333411 -153050,-7333384 -153068,-7333357 -153161,-7333229 -153186,-7333186 -153213,-7333137 -153233,-7333106 -153251,-7333074 -153253,-7333058 -153257,-7333019 -153294,-7333022 -153356,-7332940 -153389,-7332891 -153404,-7332871 -153440,-7332826 -153461,-7332807 -153475,-7332783 -153467,-7332781 -153496,-7332739 -153547,-7332656 -153592,-7332588 -153621,-7332536 -153647,-7332483 -153653,-7332472 -153687,-7332408 -153715,-7332365 -153769,-7332286 -153779,-7332293 -153806,-7332259 -153835,-7332291 -153847,-7332276 -153921,-7332352 -153983,-7332407 -154040,-7332440 -154057,-7332449 -154082,-7332434 -154119,-7332409 -154161,-7332380 -154200,-7332348 -154225,-7332327 -154264,-7332286 -154255,-7332274 -154261,-7332266 -154339,-7332194 -154365,-7332174 -154417,-7332143 -154577,-7332095 -154632,-7332083 -154751,-7332078 -154799,-7332062 -154830,-7332054 -154849,-7332048 -154903,-7332029 -154965,-7332002 -154997,-7331982 -155016,-7331974 -155022,-7331973 -155026,-7331973 -155038,-7331997 -155042,-7332002 -155051,-7332009 -155091,-7332030 -155106,-7332061 -155109,-7332074 -155113,-7332079 -155131,-7332079 -155164,-7332072 -155188,-7332061 -155204,-7332055 -155217,-7332051 -155244,-7332046 -155266,-7332046 -155288,-7332037 -155329,-7332028 -155376,-7332020 -155440,-7332007 -155453,-7332009 -155466,-7332010 -155470,-7332014 -155473,-7332019 -155475,-7332024 -155477,-7332034 -155490,-7332062 -155501,-7332083 -155514,-7332102 -155519,-7332106 -155546,-7332121 -155569,-7332121 -155597,-7332123 -155643,-7332122 -155661,-7332120 -155722,-7332120 -155739,-7332118 -155791,-7332107 -155795,-7332108 -155805,-7332115 -155821,-7332149 -155828,-7332151 -155840,-7332153 -155847,-7332153 -155876,-7332150 -155964,-7332115 -155986,-7332102 -156007,-7332092 -156029,-7332083 -156069,-7332071 -156133,-7332059 -156142,-7332056 -156159,-7332048 -156219,-7331995 -156250,-7331984 -156274,-7331972 -156305,-7331960 -156376,-7331939 -156400,-7331934 -156426,-7331938 -156457,-7331946 -156490,-7331958 -156512,-7331964 -156583,-7331988 -156618,-7331989 -156683,-7331982 -156688,-7331981 -156741,-7331962 -156754,-7331955 -156770,-7331951 -156787,-7331937 -156823,-7331903 -156837,-7331891 -156855,-7331882 -156869,-7331878 -156899,-7331877 -156981,-7331879 -157000,-7331879 -157030,-7331877 -157057,-7331874 -157095,-7331868 -157124,-7331866 -157143,-7331863 -157173,-7331867 -157217,-7331864 -157239,-7331863 -157253,-7331862 -157274,-7331857 -157314,-7331844 -157336,-7331833 -157358,-7331815 -157360,-7331797 -157360,-7331769 -157357,-7331753 -157355,-7331743 -157345,-7331730 -157307,-7331691 -157259,-7331656 -157252,-7331648 -157246,-7331636 -157238,-7331613 -157236,-7331602 -157232,-7331593 -157227,-7331586 -157220,-7331580 -157203,-7331532 -157179,-7331494 -157173,-7331479 -157169,-7331464 -157166,-7331437 -157161,-7331401 -157161,-7331370 -157167,-7331322 -157174,-7331279 -157183,-7331242 -157241,-7331230 -157332,-7331221 -157361,-7331222 -157371,-7331220 -157380,-7331217 -157386,-7331213 -157391,-7331209 -157394,-7331204 -157395,-7331198 -157396,-7331188 -157395,-7331181 -157389,-7331169 -157389,-7331166 -157389,-7331161 -157391,-7331157 -157397,-7331151 -157400,-7331149 -157406,-7331150 -157421,-7331160 -157428,-7331162 -157433,-7331161 -157440,-7331158 -157450,-7331152 -157469,-7331136 -157477,-7331132 -157484,-7331131 -157500,-7331129 -157561,-7331128 -157578,-7331125 -157585,-7331123 -157591,-7331120 -157596,-7331117 -157609,-7331102 -157620,-7331097 -157637,-7331095 -157651,-7331089 -157662,-7331081 -157675,-7331068 -157684,-7331062 -157695,-7331057 -157706,-7331054 -157714,-7331052 -157723,-7331053 -157736,-7331055 -157739,-7331057 -157753,-7331070 -157758,-7331073 -157767,-7331073 -157778,-7331070 -157797,-7331060 -157803,-7331056 -157819,-7331039 -157874,-7330981 -157883,-7330966 -157887,-7330958 -157901,-7330905 -157906,-7330897 -157913,-7330889 -157945,-7330863 -157982,-7330836 -158015,-7330817 -158056,-7330796 -158081,-7330782 -158090,-7330778 -158096,-7330776 -158105,-7330775 -158121,-7330774 -158142,-7330775 -158158,-7330777 -158175,-7330781 -158208,-7330782 -158244,-7330773 -158251,-7330671 -158249,-7330582 -158252,-7330506 -158248,-7330448 -158248,-7330371 -158243,-7330269 -158241,-7330237 -158234,-7330173 -158230,-7330080 -158212,-7330004 -158196,-7329943 -158191,-7329878 -158183,-7329812 -158174,-7329753 -158151,-7329651 -158139,-7329628 -158077,-7329541 -158060,-7329519 -158043,-7329498 -158016,-7329470 -157927,-7329354 -157841,-7329249 -157747,-7329147 -157728,-7329131 -157714,-7329116 -157698,-7329092 -157683,-7329065 -157676,-7329044 -157673,-7329030 -157671,-7329016 -157670,-7328998 -157657,-7328925 -157638,-7328852 -157634,-7328832 -157640,-7328812 -157653,-7328778 -157659,-7328762 -157676,-7328738 -157719,-7328699 -157703,-7328687 -157695,-7328680 -157687,-7328671 -157678,-7328653 -157664,-7328614 -157644,-7328569 -157621,-7328544 -157617,-7328539 -157603,-7328507 -157586,-7328476 -157579,-7328461 -157573,-7328445 -157569,-7328429 -157566,-7328411 -157565,-7328396 -157566,-7328366 -157569,-7328349 -157579,-7328312 -157583,-7328293 -157591,-7328236 -157515,-7328198 -157429,-7328150 -157368,-7328015 -157319,-7327921 -157308,-7327890 -157305,-7327833 -157293,-7327775 -157291,-7327745 -157289,-7327716 -157295,-7327648 -157299,-7327599 -157302,-7327564 -157311,-7327507 -157315,-7327464 -157323,-7327425 -157360,-7327372 -157396,-7327316 -157446,-7327248 -157441,-7327214 -157453,-7327208 -157441,-7327089 -157431,-7327027 -157427,-7327008 -157425,-7326992 -157424,-7326977 -157426,-7326952 -157428,-7326938 -157434,-7326919 -157447,-7326891 -157462,-7326862 -157473,-7326843 -157485,-7326827 -157505,-7326803 -157529,-7326778 -157567,-7326741 -157597,-7326718 -157610,-7326710 -157620,-7326706 -157637,-7326703 -157713,-7326700 -157733,-7326698 -157806,-7326683 -157812,-7326642 -157834,-7326665 -157848,-7326617 -157856,-7326568 -157864,-7326517 -157874,-7326395 -157883,-7326343 -157930,-7326125 -157951,-7326044 -157968,-7325957 -157981,-7325904 -157986,-7325890 -157991,-7325880 -157999,-7325868 -158008,-7325856 -158020,-7325846 -158029,-7325839 -158047,-7325830 -158060,-7325825 -158133,-7325781 -158177,-7325748 -158223,-7325718 -158265,-7325712 -158259,-7325656 -158257,-7325626 -158256,-7325596 -158256,-7325551 -158247,-7325488 -158269,-7325379 -158289,-7325289 -158291,-7325274 -158294,-7325240 -158293,-7325191 -158295,-7325159 -158300,-7325138 -158311,-7325108 -158318,-7325085 -158330,-7325047 -158347,-7324982 -158365,-7324927 -158371,-7324908 -158375,-7324891 -158382,-7324844 -158393,-7324802 -158396,-7324755 -158397,-7324741 -158400,-7324689 -158425,-7324554 -158442,-7324503 -158465,-7324446 -158475,-7324412 -158481,-7324374 -158484,-7324313 -158487,-7324289 -158489,-7324275 -158502,-7324240 -158505,-7324225 -158507,-7324206 -158507,-7324191 -158505,-7324179 -158501,-7324167 -158496,-7324154 -158489,-7324141 -158464,-7324101 -158451,-7324079 -158445,-7324067 -158434,-7324032 -158427,-7324019 -158399,-7323976 -158387,-7323955 -158378,-7323938 -158372,-7323923 -158365,-7323903 -158348,-7323838 -158346,-7323828 -158343,-7323803 -158344,-7323786 -158348,-7323775 -158356,-7323759 -158357,-7323758 -158402,-7323768 -158410,-7323769 -158441,-7323771 -158469,-7323771 -158492,-7323768 -158508,-7323764 -158538,-7323752 -158555,-7323743 -158568,-7323734 -158587,-7323720 -158628,-7323685 -158671,-7323644 -158720,-7323594 -158733,-7323582 -158766,-7323553 -158815,-7323525 -158883,-7323477 -158978,-7323422 -159059,-7323380 -159111,-7323344 -159161,-7323390 -159212,-7323447 -159316,-7323400 -159350,-7323386 -159434,-7323359 -159476,-7323352 -159617,-7323330 -159664,-7323315 -159732,-7323313 -159788,-7323315 -159855,-7323299 -159928,-7323279 -159961,-7323273 -159978,-7323268 -160005,-7323258 -160025,-7323248 -160198,-7323163 -160291,-7323114 -160357,-7323078 -160378,-7323086 -160446,-7323249 -160396,-7323304 -160367,-7323358 -160328,-7323440 -160328,-7323441 -160350,-7323458 -160364,-7323467 -160380,-7323473 -160398,-7323479 -160431,-7323486 -160482,-7323488 -160508,-7323492 -160531,-7323497 -160554,-7323503 -160578,-7323511 -160601,-7323519 -160620,-7323528 -160636,-7323536 -160653,-7323546 -160669,-7323556 -160689,-7323572 -160713,-7323595 -160747,-7323623 -160871,-7323541 -160978,-7323472 -161019,-7323444 -161047,-7323427 -161061,-7323418 -161135,-7323383 -161190,-7323353 -161220,-7323341 -161272,-7323323 -161342,-7323298 -161424,-7323277 -161457,-7323266 -161600,-7323215 -161618,-7323198 -161651,-7323222 -161738,-7323198 -161925,-7323150 -161948,-7323183 -161976,-7323250 -162108,-7323226 -162128,-7323241 -162084,-7323323 -162202,-7323378 -162305,-7323426 -162383,-7323439 -162545,-7323473 -162786,-7323404 -162900,-7323362 -163001,-7323318 -163086,-7323293 -163192,-7323269 -163366,-7323222 -163420,-7323205 -163482,-7323196 -163617,-7323181 -163743,-7323159 -163901,-7323136 -163980,-7323143 -164245,-7323139 -164390,-7323153 -164470,-7323160 -164516,-7323160 -164630,-7323135 -164758,-7323100 -164791,-7323082 -164835,-7323043 -164856,-7323022 -164879,-7323003 -164904,-7322986 -164930,-7322973 -164941,-7322969 -164951,-7322966 -164964,-7322964 -164985,-7322963 -165008,-7322965 -165058,-7322977 -165113,-7322998 -165200,-7323030 -165239,-7323064 -165265,-7323081 -165319,-7323085 -165398,-7323081 -165435,-7323078 -165523,-7323057 -165690,-7323030 -165808,-7323016 -165898,-7323009 -165946,-7323012 -166064,-7323066 -166094,-7323075 -166179,-7323101 -166201,-7323111 -166222,-7323121 -166256,-7323146 -166259,-7323156 -166288,-7323210 -166310,-7323257 -166337,-7323284 -166343,-7323292 -166349,-7323350 -166348,-7323372 -166314,-7323434 -166300,-7323428 -166255,-7323502 -166221,-7323570 -166169,-7323679 -166142,-7323729 -166100,-7323797 -166057,-7323871 -166033,-7323911 -166011,-7323945 -165988,-7323979 -165937,-7324040 -165895,-7324097 -165865,-7324135 -165852,-7324132 -165840,-7324161 -165837,-7324166 -165773,-7324247 -165704,-7324329 -165654,-7324395 -165594,-7324459 -165517,-7324551 -165515,-7324553 -165448,-7324628 -165399,-7324691 -165359,-7324738 -165312,-7324785 -165281,-7324815 -165249,-7324837 -165201,-7324864 -165150,-7324897 -165124,-7324914 -165028,-7324973 -164985,-7324998 -164959,-7325010 -165001,-7325075 -165071,-7325096 -165116,-7325098 -165172,-7325132 -165187,-7325119 -165234,-7325168 -165253,-7325230 -165262,-7325257 -165268,-7325274 -165277,-7325300 -165286,-7325319 -165292,-7325328 -165298,-7325337 -165305,-7325345 -165318,-7325361 -165334,-7325379 -165337,-7325382 -165353,-7325404 -165326,-7325437 -165347,-7325460 -165401,-7325480 -165430,-7325506 -165456,-7325493 -165588,-7325596 -165702,-7325688 -165769,-7325750 -165836,-7325812 -165952,-7325913 -165975,-7325932 -166094,-7326030 -166208,-7326124 -166286,-7326190 -166345,-7326239 -166218,-7326436 -166185,-7326487 -166174,-7326504 -166122,-7326590 -166119,-7326634 -166089,-7326697 -166132,-7326742 -166096,-7326786 -166039,-7326858 -165939,-7326990 -165898,-7327044 -165910,-7327072 -165908,-7327074 -165936,-7327143 -165975,-7327210 -166049,-7327320 -166097,-7327380 -166130,-7327429 -166154,-7327470 -166208,-7327566 -166267,-7327654 -166282,-7327680 -166621,-7327540 -166623,-7327529 -166637,-7327515 -166669,-7327525 -166701,-7327517 -166735,-7327708 -166743,-7327715 -166766,-7327712 -166847,-7327900 -166888,-7327991 -166933,-7328096 -166969,-7328159 -167031,-7328278 -167062,-7328346 -167157,-7328568 -167236,-7328764 -167366,-7328979 -167455,-7329179 -167456,-7329218 -167409,-7329346 -167390,-7329407 -167368,-7329491 -167332,-7329616 -167318,-7329699 -167313,-7329734 -167301,-7329801 -167298,-7329841 -167298,-7329882 -167297,-7329892 -167298,-7329932 -167300,-7329973 -167301,-7329987 -167305,-7330012 -167309,-7330036 -167314,-7330061 -167319,-7330085 -167343,-7330198 -167344,-7330200 -167348,-7330223 -167372,-7330362 -167376,-7330387 -167398,-7330533 -167435,-7330729 -167468,-7330935 -167510,-7331193 -167542,-7331382 -167549,-7331420 -167585,-7331612 -167636,-7331873 -167653,-7331967 -167666,-7332047 -167672,-7332080 -167706,-7332093 -167717,-7332197 -167740,-7332199 -167744,-7332200 -167747,-7332201 -167748,-7332202 -167751,-7332204 -167754,-7332206 -167757,-7332209 -167758,-7332210 -167759,-7332212 -167760,-7332215 -167761,-7332218 -167762,-7332221 -167762,-7332224 -167764,-7332231 -167765,-7332238 -167766,-7332245 -167766,-7332253 -167778,-7332408 -167795,-7332657 -167810,-7332724 -167823,-7332797 -167828,-7332826 -167838,-7332870 -167826,-7332880 -167831,-7332887 -167839,-7332900 -167847,-7332925 -167851,-7332961 -167850,-7333002 -167847,-7333076 -167871,-7333221 -167898,-7333374 -167932,-7333550 -167975,-7333795 -168010,-7334003 -168056,-7334264 -168072,-7334342 -168086,-7334420 -168094,-7334471 -168104,-7334549 -168105,-7334557 -168111,-7334623 -168116,-7334686 -168122,-7334762 -168124,-7334790 -168132,-7334908 -168134,-7335036 -168136,-7335131 -168132,-7335251 -168127,-7335343 -168117,-7335445 -168103,-7335557 -168091,-7335661 -168070,-7335779 -168046,-7335909 -168025,-7336016 -167992,-7336145 -167962,-7336246 -167938,-7336329 -167910,-7336407 -167904,-7336470 -167845,-7336589 -167816,-7336647 -167804,-7336705 -167799,-7336727 -167749,-7336828 -167721,-7336897 -167844,-7337014 -167976,-7337134 -168069,-7337227 -168116,-7337287 -168121,-7337284 -168133,-7337277 -168168,-7337333 -168211,-7337375 -168276,-7337432 -168378,-7337505 -168443,-7337546 -168494,-7337581 -168510,-7337596 -168516,-7337604 -168580,-7337638 -168589,-7337644 -168599,-7337650 -168609,-7337655 -168619,-7337659 -168630,-7337663 -168641,-7337667 -168652,-7337670 -168663,-7337672 -168674,-7337673 -168685,-7337674 -168696,-7337675 -168708,-7337675 -168709,-7337675 -168722,-7337675 -168735,-7337674 -168749,-7337672 -168761,-7337670 -168774,-7337667 -168783,-7337664 -168793,-7337660 -168803,-7337655 -168813,-7337650 -168817,-7337648 -168830,-7337641 -168834,-7337638 -168870,-7337670 -168863,-7337692 -168861,-7337697 -168859,-7337701 -168858,-7337706 -168858,-7337711 -168858,-7337715 -168858,-7337720 -168859,-7337725 -168860,-7337730 -168861,-7337735 -168863,-7337739 -168865,-7337743 -168868,-7337747 -168871,-7337750 -168875,-7337753 -168879,-7337755 -168882,-7337757 -168883,-7337758 -168887,-7337762 -168891,-7337767 -168891,-7337768 -168888,-7337783 -168899,-7337786 -168986,-7337809 -169093,-7337824 -169117,-7337828 -169157,-7337835 -169201,-7337842 -169206,-7337843 -169262,-7337851 -169276,-7337836 -169298,-7337828 -169351,-7337831 -169392,-7337838 -169418,-7337848 -169448,-7337859 -169495,-7337867 -169529,-7337879 -169563,-7337896 -169594,-7337921 -169587,-7337934 -169655,-7337983 -169701,-7338018 -169742,-7338056 -169781,-7338093 -169809,-7338120 -169833,-7338147 -169869,-7338124 -169912,-7338095 -169929,-7338085 -169989,-7338052 -170011,-7338037 -170026,-7338028 -170035,-7338027 -170049,-7338033 -170053,-7338034 -170080,-7338050 -170107,-7338058 -170121,-7338062 -170147,-7338063 -170152,-7338063 -170173,-7338069 -170193,-7338085 -170209,-7338104 -170224,-7338087 -170231,-7338081 -170253,-7338068 -170320,-7338054 -170382,-7338172 -170399,-7338195 -170406,-7338203 -170478,-7338250 -170490,-7338256 -170517,-7338260 -170529,-7338261 -170537,-7338261 -170553,-7338257 -170588,-7338237 -170624,-7338206 -170630,-7338203 -170636,-7338196 -170637,-7338192 -170637,-7338184 -170641,-7338064 -170646,-7338042 -170662,-7337973 -170694,-7337924 -170765,-7337843 -170934,-7337660 -171003,-7337593 -171095,-7337564 -171111,-7337556 -171151,-7337525 -171306,-7337725 -171316,-7337731 -171571,-7337391 -171606,-7337345 -171773,-7337409 -171862,-7337447 -171964,-7337487 -172081,-7337530 -172277,-7337610 -172288,-7337616 -172297,-7337617 -172338,-7337627 -172558,-7337694 -172608,-7337709 -172762,-7337754 -172795,-7337770 -172853,-7337802 -172897,-7337829 -172929,-7337828 -172986,-7337825 -173031,-7337822 -173140,-7337812 -173191,-7337809 -173242,-7337806 -173317,-7337803 -173393,-7337791 -173541,-7337786 -173634,-7337778 -173702,-7337776 -173822,-7337780 -173859,-7337782 -173865,-7337867 -173874,-7338101 -173877,-7338106 -173928,-7338177 -173912,-7338203 -173866,-7338272 -173819,-7338354 -173773,-7338439 -173699,-7338592 -173681,-7338646 -173669,-7338700 -173641,-7338796 -173606,-7338936 -173592,-7339005 -173591,-7339009 -173577,-7339084 -173567,-7339140 -173560,-7339183 -173549,-7339195 -173542,-7339280 -173536,-7339375 -173534,-7339386 -173531,-7339397 -173527,-7339407 -173523,-7339418 -173518,-7339428 -173513,-7339438 -173507,-7339448 -173501,-7339458 -173494,-7339467 -173486,-7339475 -173486,-7339476 -173479,-7339481 -173472,-7339486 -173465,-7339491 -173457,-7339495 -173450,-7339498 -173441,-7339502 -173433,-7339505 -173425,-7339508 -173416,-7339510 -173410,-7339512 -173396,-7339517 -173382,-7339520 -173367,-7339523 -173352,-7339525 -173338,-7339527 -173326,-7339528 -173300,-7339531 -173275,-7339532 -173261,-7339533 -173227,-7339539 -173224,-7339616 -173242,-7339629 -173330,-7339638 -173341,-7339640 -173351,-7339642 -173362,-7339645 -173372,-7339649 -173383,-7339653 -173392,-7339657 -173401,-7339662 -173411,-7339668 -173420,-7339674 -173429,-7339681 -173437,-7339688 -173445,-7339696 -173453,-7339704 -173458,-7339711 -173465,-7339720 -173472,-7339729 -173477,-7339739 -173483,-7339748 -173487,-7339759 -173492,-7339769 -173495,-7339780 -173497,-7339785 -173500,-7339797 -173503,-7339809 -173505,-7339821 -173506,-7339833 -173508,-7339845 -173508,-7339854 -173509,-7339873 -173510,-7339893 -173509,-7339912 -173508,-7339931 -173507,-7339938 -173508,-7340040 -173503,-7340125 -173494,-7340196 -173348,-7340196 -173343,-7340342 -173345,-7340342 -173346,-7340354 -173332,-7340717 -173331,-7340736 -173470,-7340757 -173471,-7340826 -173471,-7340834 -173493,-7340833 -173499,-7340940 -173504,-7341031 -173508,-7341123 -173510,-7341211 -173507,-7341222 -173506,-7341248 -173510,-7341370 -173503,-7341595 -173498,-7341887 -173495,-7342048 -173492,-7342253 -173481,-7342544 -173472,-7342913 -173465,-7342950 -173457,-7342997 -173634,-7343051 -173672,-7343128 -173713,-7343194 -173752,-7343256 -173781,-7343291 -173810,-7343332 -173837,-7343366 -173863,-7343393 -173898,-7343416 -173956,-7343451 -173968,-7343467 -173952,-7343487 -173876,-7343555 -173805,-7343609 -173760,-7343638 -173696,-7343690 -173668,-7343708 -173629,-7343720 -173569,-7343729 -173530,-7343736 -173510,-7343744 -173504,-7343746 -173485,-7343767 -173480,-7343800 -173480,-7343832 -173474,-7343855 -173402,-7343941 -173332,-7344010 -173334,-7344089 -173339,-7344160 -173333,-7344265 -173342,-7344301 -173359,-7344347 -173373,-7344401 -173402,-7344460 -173423,-7344527 -173427,-7344539 -173446,-7344596 -173478,-7344676 -173588,-7344966 -173611,-7345031 -173621,-7345070 -173624,-7345090 -173627,-7345110 -173630,-7345158 -173639,-7345222 -173649,-7345233 -173679,-7345264 -173696,-7345270 -173695,-7345284 -173695,-7345284 -173680,-7345294 -173662,-7345307 -173668,-7345316 -173678,-7345333 -173712,-7345375 -173728,-7345399 -173777,-7345475 -173816,-7345529 -173868,-7345598 -173950,-7345712 -174007,-7345792 -174047,-7345878 -174102,-7345997 -174139,-7346085 -174151,-7346112 -174241,-7346294 -174265,-7346341 -174275,-7346367 -174284,-7346394 -174321,-7346510 -174344,-7346589 -174362,-7346655 -174391,-7346774 -174418,-7346856 -174442,-7346934 -174447,-7346952 -174454,-7346973 -174475,-7347011 -174502,-7347047 -174535,-7347095 -174576,-7347148 -174648,-7347251 -174607,-7347276 -174553,-7347314 -174430,-7347405 -174370,-7347455 -174313,-7347495 -174209,-7347582 -174160,-7347620 -174056,-7347696 -173970,-7347761 -173958,-7347780 -173811,-7347892 -173576,-7348064 -173395,-7348198 -173291,-7348288 -173288,-7348290 -173270,-7348276 -173259,-7348263 -173195,-7348186 -172999,-7347945 -172932,-7347855 -172908,-7347844 -172841,-7347932 -172786,-7347994 -172531,-7348192 -172226,-7348413 -172142,-7348448 -172109,-7348461 -171864,-7348564 -171855,-7348545 -171771,-7348560 -171565,-7348597 -171260,-7348649 -170951,-7348700 -170943,-7348671 -170832,-7348638 -170788,-7348613 -170759,-7348615 -170678,-7348606 -170667,-7348605 -170649,-7348587 -170641,-7348579 -170605,-7348556 -170596,-7348561 -170594,-7348562 -170593,-7348563 -170601,-7348592 -170486,-7348717 -170399,-7348791 -170223,-7348882 -170170,-7348884 -170160,-7348899 -170125,-7348902 -170092,-7348892 -170066,-7348866 -170023,-7348886 -169958,-7348916 -169903,-7348922 -169846,-7348926 -169797,-7348922 -169757,-7348909 -169727,-7348903 -169706,-7348895 -169649,-7348868 -169551,-7348815 -169523,-7348797 -169411,-7348726 -169365,-7348693 -169302,-7348655 -169183,-7348564 -169136,-7348534 -169096,-7348510 -169051,-7348487 -169012,-7348471 -168921,-7348447 -168898,-7348443 -168876,-7348440 -168863,-7348444 -168850,-7348449 -168824,-7348465 -168769,-7348482 -168737,-7348495 -168722,-7348501 -168699,-7348520 -168677,-7348534 -168663,-7348553 -168646,-7348580 -168621,-7348606 -168595,-7348624 -168581,-7348629 -168558,-7348637 -168526,-7348634 -168499,-7348637 -168461,-7348658 -168398,-7348679 -168369,-7348672 -168349,-7348680 -168325,-7348702 -168291,-7348650 -168277,-7348641 -168260,-7348636 -168249,-7348624 -168227,-7348615 -168223,-7348597 -168200,-7348561 -168194,-7348552 -168188,-7348485 -168176,-7348456 -168165,-7348447 -168149,-7348441 -168117,-7348419 -168093,-7348386 -168032,-7348386 -167979,-7348380 -167961,-7348375 -167919,-7348372 -167889,-7348366 -167853,-7348371 -167792,-7348371 -167754,-7348382 -167669,-7348417 -167615,-7348445 -167599,-7348454 -167570,-7348471 -167533,-7348474 -167492,-7348472 -167442,-7348463 -167374,-7348456 -167318,-7348460 -167227,-7348443 -167201,-7348444 -167126,-7348420 -167102,-7348419 -167070,-7348410 -167035,-7348404 -167008,-7348393 -166997,-7348394 -166971,-7348418 -166921,-7348441 -166870,-7348436 -166840,-7348447 -166819,-7348448 -166796,-7348455 -166770,-7348454 -166753,-7348448 -166697,-7348447 -166650,-7348463 -166605,-7348490 -166571,-7348497 -166564,-7348494 -166535,-7348474 -166494,-7348457 -166403,-7348442 -166375,-7348443 -166328,-7348414 -166313,-7348390 -166266,-7348382 -166231,-7348385 -166221,-7348376 -166221,-7348360 -166211,-7348347 -166138,-7348321 -166119,-7348323 -166098,-7348327 -166085,-7348315 -166063,-7348315 -166038,-7348330 -165945,-7348352 -165744,-7348409 -165718,-7348410 -165674,-7348391 -165643,-7348358 -165611,-7348330 -165525,-7348253 -165489,-7348220 -165460,-7348184 -165429,-7348165 -165380,-7348116 -165361,-7348086 -165341,-7348065 -165339,-7348051 -165338,-7348049 -165349,-7348027 -165346,-7348016 -165335,-7348011 -165285,-7348020 -165269,-7348012 -165257,-7347998 -165238,-7347998 -165222,-7348013 -165208,-7348014 -165194,-7347999 -165175,-7347994 -165152,-7347976 -165128,-7347981 -165099,-7347981 -165065,-7347990 -165055,-7348000 -165038,-7348015 -164996,-7348040 -164971,-7348064 -164966,-7348123 -164964,-7348167 -164951,-7348178 -164933,-7348184 -164922,-7348195 -164914,-7348209 -164913,-7348225 -164876,-7348252 -164827,-7348251 -164808,-7348256 -164806,-7348249 -164783,-7348254 -164763,-7348268 -164756,-7348261 -164712,-7348270 -164602,-7348265 -164446,-7348247 -164394,-7348246 -164289,-7348251 -164219,-7348252 -164193,-7348253 -164131,-7348256 -164063,-7348257 -163983,-7348262 -163858,-7348260 -163803,-7348270 -163743,-7348275 -163663,-7348286 -163587,-7348290 -163329,-7348308 -163244,-7348319 -163180,-7348324 -163141,-7348332 -162966,-7348330 -162765,-7348343 -162590,-7348329 -162602,-7348421 -162603,-7348561 -162619,-7348628 -162620,-7348630 -162628,-7348675 -162625,-7348677 -162573,-7348698 -162523,-7348713 -162386,-7348752 -162307,-7348779 -162277,-7348792 -162235,-7348812 -162231,-7348814 -162148,-7348880 -162112,-7348900 -162071,-7348910 -162050,-7348917 -162029,-7348925 -162005,-7348942 -161941,-7348963 -161882,-7348970 -161871,-7348973 -161821,-7348989 -161807,-7348992 -161700,-7349014 -161605,-7349037 -161484,-7349045 -161422,-7349059 -161414,-7349060 -161346,-7349078 -161312,-7349084 -161302,-7349079 -161272,-7349064 -161242,-7349043 -161220,-7349031 -161212,-7349027 -161199,-7349017 -161191,-7349003 -161187,-7348991 -161180,-7348972 -161087,-7348968 -161015,-7348970 -160978,-7348968 -160950,-7348968 -160922,-7348969 -160861,-7348973 -160809,-7348978 -160703,-7348980 -160626,-7348979 -160579,-7348982 -160556,-7348961 -160533,-7348948 -160527,-7348883 -160517,-7348868 -160478,-7348854 -160365,-7348844 -160266,-7348836 -160249,-7348830 -160233,-7348828 -160147,-7348827 -160062,-7348835 -159998,-7348839 -159924,-7348840 -159831,-7348838 -159783,-7348840 -159629,-7348835 -159564,-7348835 -159496,-7348841 -159490,-7348809 -159466,-7348668 -159442,-7348546 -159431,-7348478 -159416,-7348374 -159390,-7348257 -159258,-7348290 -159211,-7348309 -159182,-7348324 -159134,-7348353 -159079,-7348381 -159044,-7348401 -159024,-7348413 -158887,-7348486 -158782,-7348526 -158755,-7348444 -158748,-7348398 -158740,-7348381 -158721,-7348376 -158673,-7348371 -158547,-7348365 -158498,-7348351 -158463,-7348340 -158358,-7348319 -158280,-7348306 -158115,-7348279 -158085,-7348276 -158003,-7348277 -157999,-7348357 -157993,-7348388 -157978,-7348540 -157967,-7348591 -157963,-7348636 -157941,-7348699 -157913,-7348774 -157907,-7348812 -157871,-7348863 -157824,-7348927 -157767,-7349017 -157752,-7349030 -157726,-7349062 -157559,-7349207 -157329,-7349354 -157279,-7349389 -157235,-7349417 -157145,-7349466 -157070,-7349500 -156994,-7349540 -156967,-7349551 -156916,-7349552 -156864,-7349564 -156755,-7349598 -156740,-7349595 -156718,-7349602 -156704,-7349607 -156703,-7349608 -156690,-7349621 -156605,-7349649 -156556,-7349706 -156535,-7349719 -156486,-7349731 -156457,-7349751 -156380,-7349814 -156371,-7349822 -156351,-7349855 -156301,-7349895 -156228,-7349924 -156144,-7349970 -156093,-7349989 -156042,-7350003 -155990,-7350027 -155959,-7350031 -155919,-7350043 -155845,-7350080 -155811,-7350091 -155769,-7350094 -155753,-7350086 -155750,-7350085 -155747,-7350087 -155700,-7350114 -155670,-7350130 -155636,-7350148 -155592,-7350156 -155528,-7350179 -155490,-7350179 -155446,-7350174 -155419,-7350179 -155326,-7350185 -155271,-7350163 -155246,-7350152 -155217,-7350137 -155190,-7350138 -155166,-7350154 -155152,-7350163 -155121,-7350159 -155111,-7350160 -155094,-7350160 -155065,-7350156 -155036,-7350148 -155011,-7350137 -154978,-7350134 -154976,-7350133 -154958,-7350131 -154956,-7350125 -154941,-7350071 -154919,-7350019 -154866,-7349976 -154830,-7349944 -154788,-7349917 -154734,-7349901 -154696,-7349889 -154659,-7349872 -154584,-7349852 -154543,-7349847 -154501,-7349848 -154459,-7349853 -154424,-7349859 -154399,-7349864 -154356,-7349884 -154328,-7349886 -154320,-7349896 -154255,-7349914 -154217,-7349949 -154194,-7349949 -154161,-7349964 -154146,-7349965 -154138,-7349973 -154125,-7349974 -154117,-7349987 -154098,-7349986 -154076,-7349976 -154037,-7349975 -154011,-7349959 -153978,-7349944 -153948,-7349941 -153928,-7349921 -153914,-7349916 -153844,-7349916 -153816,-7349893 -153769,-7349878 -153741,-7349881 -153718,-7349867 -153696,-7349844 -153691,-7349827 -153684,-7349815 -153672,-7349807 -153643,-7349793 -153627,-7349788 -153599,-7349760 -153575,-7349742 -153554,-7349722 -153541,-7349704 -153532,-7349681 -153522,-7349665 -153507,-7349652 -153489,-7349639 -153461,-7349654 -153450,-7349657 -153434,-7349661 -153421,-7349673 -153402,-7349685 -153372,-7349695 -153344,-7349701 -153311,-7349711 -153294,-7349713 -153293,-7349713 -153289,-7349713 -153286,-7349713 -153282,-7349713 -153281,-7349713 -153276,-7349711 -153272,-7349709 -153267,-7349706 -153261,-7349701 -153255,-7349694 -153249,-7349687 -153247,-7349686 -153245,-7349684 -153242,-7349682 -153239,-7349680 -153237,-7349679 -153233,-7349677 -153228,-7349676 -153228,-7349676 -153221,-7349677 -153214,-7349678 -153207,-7349678 -153203,-7349678 -153197,-7349677 -153191,-7349677 -153186,-7349675 -153184,-7349675 -153180,-7349674 -153177,-7349672 -153173,-7349670 -153172,-7349670 -153168,-7349667 -153165,-7349665 -153162,-7349662 -153140,-7349631 -153120,-7349854 -153098,-7350089 -153086,-7350177 -153062,-7350384 -153043,-7350499 -153035,-7350563 -153027,-7350628 -153012,-7350776 -152991,-7350915 -152939,-7350901 -152890,-7350902 -152787,-7350884 -152704,-7350877 -152615,-7350859 -152423,-7350837 -152260,-7350814 -152079,-7350785 -152077,-7350825 -152070,-7350874 -152063,-7350903 -152040,-7350990 -152030,-7351040 -151991,-7351032" stroke="#003087" stroke-width="52" /></ns0:svg>    <rect x="20" y="50"  width="250" height="25"  rx="0"  fill="#003087" fill-opacity="0.8" />    <text x="145" y="70" text-anchor="middle" font-family="Frutiger" font-weight="bold" font-size="30" fill="white">Sunderland</text>    <rect x="35" y="195" width="220" height="160" rx="15" fill="#41B6E6"/>    <g font-family="Frutiger" font-size="15" fill="white">        <g> <text x="45" y="218">Self-harm</text> <text x="245" y="218" text-anchor="end">24</text> </g>        <g> <text x="45" y="243">SEN</text> <text x="245" y="243" text-anchor="end">61</text> </g>        <g> <text x="45" y="268">Difficulties</text> <text x="245" y="268" text-anchor="end">65</text> </g>        <g> <text x="45" y="293">Child Carer</text> <text x="245" y="293" text-anchor="end">11</text> </g>        <g> <text x="45" y="318">Drinkers</text> <text x="245" y="318" text-anchor="end">88</text> </g>        <g> <text x="45" y="343">Safeguarding £</text> <text x="245" y="343" text-anchor="end">51</text> </g>    </g></svg>