<?xml version="1.0" standalone="no"?>
<!DOCTYPE svg PUBLIC "-//W3C//DTD SVG 1.1//EN"
"http://www.w3.org/Graphics/SVG/1.1/DTD/svg11.dtd">
<svg height="390" version="1.1" width="290" xmlns="http://www.w3.org/2000/svg"><defs><style type="text/css">@font-face {font-family: 'Frutiger';font-style: normal;font-weight: normal;src: local('Frutiger'), url('../fonts/Frutiger.woff') format('woff');}@font-face {font-family: 'Frutiger Bold';font-style: normal;font-weight: normal;src: local('Frutiger Bold'), url('../fonts/Frutiger_bold.woff') format('woff');}        </style>    </defs>    <rect x="20" y="20"  width="250" height="350" rx="15" fill="#005EB8" />    <rect x="35" y="35"  width="220" height="145" rx="15" fill="white" /><ns0:svg xmlns:ns0="http://www.w3.org/2000/svg" height="115" version="1.1" viewBox="-206244 -7358865 38111 20686" width="220" x="35" y="50"><ns0:polygon fill="#003087" points=" -198006,-7358445 -197970,-7358434 -197959,-7358435 -197941,-7358435 -197911,-7358451 -197848,-7358479 -197760,-7358439 -197641,-7358380 -197540,-7358325 -197419,-7358283 -197343,-7358266 -197194,-7358230 -197167,-7358224 -197009,-7358176 -197008,-7358176 -196894,-7358149 -196720,-7358136 -196711,-7358133 -196644,-7358124 -196612,-7358119 -196580,-7358114 -196548,-7358112 -196537,-7358111 -196504,-7358109 -196472,-7358109 -196440,-7358110 -196407,-7358112 -196399,-7358113 -196369,-7358116 -196339,-7358121 -196309,-7358126 -196280,-7358133 -196259,-7358138 -196222,-7358148 -196185,-7358159 -196148,-7358171 -196111,-7358184 -196075,-7358199 -196072,-7358200 -195853,-7358269 -195841,-7358274 -195664,-7358341 -195585,-7358371 -195348,-7358440 -195317,-7358448 -195285,-7358456 -195253,-7358462 -195220,-7358467 -195206,-7358468 -195173,-7358472 -195141,-7358474 -195108,-7358475 -195075,-7358475 -195042,-7358473 -195027,-7358473 -194993,-7358470 -194958,-7358465 -194924,-7358460 -194890,-7358453 -194856,-7358446 -194844,-7358444 -194791,-7358432 -194782,-7358430 -194737,-7358419 -194684,-7358404 -194632,-7358386 -194626,-7358384 -194580,-7358367 -194534,-7358348 -194489,-7358327 -194444,-7358306 -194400,-7358284 -194371,-7358270 -194299,-7358231 -194228,-7358190 -194158,-7358149 -194143,-7358140 -193928,-7358018 -193767,-7357907 -193708,-7357867 -193689,-7357861 -193680,-7357856 -193646,-7357836 -193456,-7357730 -193407,-7357703 -193248,-7357616 -193153,-7357565 -193032,-7357496 -192960,-7357455 -192793,-7357347 -192759,-7357330 -192601,-7357249 -192558,-7357226 -192516,-7357201 -192475,-7357175 -192457,-7357163 -192416,-7357136 -192414,-7357134 -192376,-7357108 -192337,-7357079 -192301,-7357047 -192282,-7357025 -192269,-7357008 -192257,-7356992 -192245,-7356974 -192235,-7356956 -192225,-7356938 -192215,-7356919 -192207,-7356900 -192199,-7356881 -192193,-7356863 -192187,-7356843 -192182,-7356824 -192178,-7356804 -192174,-7356784 -192171,-7356763 -192170,-7356743 -192169,-7356723 -192169,-7356718 -192170,-7356700 -192172,-7356682 -192176,-7356664 -192180,-7356646 -192184,-7356628 -192188,-7356610 -192192,-7356592 -192195,-7356575 -192196,-7356572 -192206,-7356497 -192213,-7356439 -192217,-7356418 -192219,-7356397 -192221,-7356377 -192222,-7356355 -192223,-7356334 -192222,-7356324 -192221,-7356303 -192219,-7356283 -192217,-7356262 -192213,-7356241 -192208,-7356220 -192203,-7356200 -192197,-7356180 -192190,-7356160 -192184,-7356143 -192175,-7356123 -192165,-7356103 -192155,-7356084 -192143,-7356065 -192131,-7356047 -192118,-7356029 -192105,-7356011 -192091,-7355994 -192077,-7355976 -192063,-7355960 -192056,-7355951 -192035,-7355928 -192012,-7355906 -191989,-7355884 -191966,-7355863 -191942,-7355843 -191917,-7355823 -191910,-7355817 -191878,-7355794 -191845,-7355772 -191812,-7355751 -191778,-7355731 -191743,-7355711 -191709,-7355692 -191688,-7355680 -191619,-7355641 -191549,-7355604 -191477,-7355573 -191464,-7355568 -191431,-7355557 -191399,-7355548 -191365,-7355540 -191332,-7355534 -191319,-7355531 -191298,-7355527 -191265,-7355522 -191235,-7355517 -191175,-7355507 -191114,-7355500 -191054,-7355494 -190995,-7355491 -190727,-7355455 -190697,-7355452 -190668,-7355450 -190638,-7355449 -190608,-7355450 -190605,-7355450 -190575,-7355451 -190546,-7355453 -190516,-7355457 -190487,-7355461 -190457,-7355467 -190428,-7355474 -190422,-7355476 -190396,-7355483 -190371,-7355491 -190346,-7355500 -190322,-7355510 -190298,-7355522 -190275,-7355534 -190257,-7355546 -190242,-7355557 -190227,-7355569 -190213,-7355581 -190199,-7355594 -190186,-7355607 -190173,-7355621 -190161,-7355636 -190150,-7355651 -190139,-7355667 -190129,-7355683 -190124,-7355691 -190115,-7355708 -190106,-7355725 -190099,-7355743 -190092,-7355761 -190086,-7355779 -190081,-7355798 -190075,-7355816 -190070,-7355834 -190062,-7355867 -190055,-7355899 -190052,-7355907 -190046,-7355924 -190039,-7355941 -190032,-7355958 -190024,-7355974 -190015,-7355989 -190007,-7356001 -189998,-7356013 -189988,-7356024 -189978,-7356035 -189967,-7356045 -189956,-7356056 -189944,-7356066 -189938,-7356071 -189922,-7356085 -189904,-7356097 -189887,-7356109 -189868,-7356121 -189850,-7356131 -189831,-7356141 -189812,-7356150 -189792,-7356159 -189772,-7356167 -189770,-7356168 -189746,-7356176 -189723,-7356184 -189698,-7356190 -189674,-7356195 -189650,-7356200 -189625,-7356204 -189601,-7356207 -189576,-7356210 -189552,-7356212 -189519,-7356214 -189486,-7356215 -189453,-7356215 -189420,-7356213 -189387,-7356211 -189354,-7356207 -189322,-7356203 -189286,-7356197 -189251,-7356190 -189216,-7356182 -189181,-7356172 -189146,-7356162 -189112,-7356150 -189110,-7356150 -189071,-7356136 -189033,-7356120 -189004,-7356106 -188959,-7356084 -188831,-7356000 -188692,-7355903 -188598,-7355827 -188536,-7355767 -188503,-7355728 -188467,-7355690 -188359,-7355606 -188204,-7355502 -188126,-7355455 -188079,-7355423 -188036,-7355395 -187759,-7355250 -187582,-7355167 -187538,-7355148 -187433,-7355106 -187287,-7355052 -187211,-7355026 -187159,-7355012 -187117,-7355005 -187079,-7355001 -187036,-7354997 -186996,-7354995 -186958,-7354995 -186920,-7354998 -186890,-7354996 -186856,-7355001 -186816,-7355011 -186776,-7355028 -186760,-7355035 -186710,-7355048 -186670,-7355054 -186650,-7355056 -186587,-7355059 -186547,-7355059 -186435,-7355050 -186340,-7355040 -186227,-7355030 -186159,-7355026 -186072,-7355010 -185836,-7354956 -185545,-7354886 -185418,-7354854 -185348,-7354840 -185256,-7354828 -185209,-7354818 -184773,-7354717 -184708,-7354697 -184621,-7354667 -184517,-7354624 -184451,-7354597 -184193,-7354487 -184048,-7354424 -183688,-7354279 -183500,-7354198 -183357,-7354136 -183328,-7354124 -183280,-7354109 -183106,-7354063 -182761,-7353994 -182572,-7353964 -182531,-7353962 -182494,-7353962 -182285,-7353955 -182225,-7353952 -182196,-7353949 -181946,-7353934 -181793,-7353922 -181689,-7353920 -181654,-7353920 -181577,-7353924 -181508,-7353930 -181468,-7353937 -181276,-7353977 -181107,-7354026 -180976,-7354069 -180821,-7354133 -180627,-7354221 -180479,-7354300 -180228,-7354464 -180192,-7354489 -180086,-7354563 -179962,-7354656 -179904,-7354705 -179840,-7354763 -179749,-7354862 -179620,-7354996 -179343,-7355270 -179288,-7355318 -179175,-7355397 -179120,-7355438 -179078,-7355472 -178891,-7355602 -178826,-7355628 -178785,-7355652 -178606,-7355750 -178467,-7355823 -178208,-7355940 -178018,-7356021 -177912,-7356067 -177837,-7356096 -177750,-7356123 -177719,-7356129 -177619,-7356143 -177577,-7356153 -177480,-7356163 -177428,-7356166 -177369,-7356167 -177284,-7356164 -177224,-7356160 -177173,-7356153 -177147,-7356149 -177095,-7356138 -177054,-7356128 -177018,-7356118 -176978,-7356106 -176934,-7356091 -176894,-7356074 -176854,-7356058 -176805,-7356035 -176781,-7356023 -176755,-7356007 -176738,-7355995 -176680,-7355946 -176561,-7355819 -176517,-7355770 -176465,-7355702 -176438,-7355665 -176353,-7355545 -176270,-7355436 -176232,-7355390 -176117,-7355264 -176098,-7355245 -176061,-7355209 -176028,-7355180 -175981,-7355143 -175940,-7355115 -175907,-7355093 -175828,-7355047 -175788,-7355026 -175770,-7355017 -175737,-7355003 -175701,-7354990 -175617,-7354961 -175529,-7354931 -175485,-7354927 -175425,-7354932 -175352,-7354943 -175332,-7354961 -175273,-7354977 -175227,-7354982 -175187,-7354993 -175147,-7355000 -175029,-7355025 -174998,-7355030 -174967,-7355034 -174927,-7355034 -174838,-7355033 -174791,-7355032 -174775,-7355030 -174728,-7355025 -174671,-7355014 -174633,-7355005 -174595,-7354992 -174547,-7354973 -174450,-7354927 -174417,-7354913 -174338,-7354870 -174272,-7354850 -174270,-7354849 -174132,-7354785 -173906,-7354636 -173829,-7354580 -173752,-7354519 -173621,-7354398 -173578,-7354357 -173503,-7354276 -173426,-7354199 -173412,-7354188 -173380,-7354161 -173377,-7354158 -173315,-7354104 -173252,-7354053 -173235,-7354037 -173223,-7354027 -173206,-7354015 -173197,-7354009 -173167,-7353994 -173126,-7353975 -173105,-7353966 -173068,-7353952 -173043,-7353945 -173006,-7353935 -172977,-7353929 -172941,-7353927 -172889,-7353929 -172844,-7353923 -172810,-7353923 -172801,-7353924 -172793,-7353925 -172735,-7353951 -172686,-7353975 -172598,-7354024 -172544,-7354065 -172474,-7354114 -172392,-7354166 -172345,-7354192 -172321,-7354203 -172188,-7354255 -172050,-7354313 -171960,-7354346 -171932,-7354352 -171897,-7354351 -171828,-7354341 -171816,-7354340 -171799,-7354340 -171781,-7354342 -171724,-7354351 -171706,-7354357 -171610,-7354383 -171500,-7354409 -171458,-7354422 -171430,-7354432 -171395,-7354446 -171364,-7354460 -171345,-7354471 -171303,-7354496 -171277,-7354515 -171264,-7354525 -171234,-7354554 -171156,-7354643 -171121,-7354689 -171097,-7354722 -171062,-7354775 -171046,-7354802 -171034,-7354824 -171011,-7354876 -170993,-7354921 -170933,-7355121 -170783,-7355095 -170727,-7355084 -170651,-7355051 -170609,-7355033 -170558,-7355005 -170486,-7354974 -170457,-7354958 -170434,-7354941 -170417,-7354923 -170398,-7354903 -170391,-7354890 -170371,-7354850 -170348,-7354818 -170317,-7354789 -170288,-7354774 -170255,-7354762 -170246,-7354757 -170227,-7354747 -170265,-7354530 -170310,-7354257 -170316,-7354218 -170341,-7354076 -170370,-7353858 -170382,-7353803 -170388,-7353776 -170368,-7353759 -170396,-7353714 -170322,-7353668 -170303,-7353678 -170246,-7353636 -170133,-7353578 -170071,-7353549 -169993,-7353627 -169912,-7353735 -169590,-7353634 -169474,-7353599 -169408,-7353609 -169165,-7353632 -169161,-7353729 -169155,-7353757 -169136,-7353824 -169115,-7353890 -169092,-7353964 -169058,-7353939 -169026,-7353913 -168979,-7353865 -168963,-7353853 -168948,-7353843 -168910,-7353824 -168862,-7353798 -168824,-7353774 -168785,-7353745 -168710,-7353628 -168685,-7353592 -168677,-7353559 -168676,-7353538 -168675,-7353517 -168676,-7353472 -168674,-7353443 -168674,-7353441 -168675,-7353404 -168673,-7353367 -168673,-7353342 -168683,-7353315 -168730,-7353230 -168773,-7353168 -168793,-7353132 -168837,-7353069 -168861,-7353019 -168882,-7352993 -168879,-7352934 -168875,-7352908 -168948,-7352823 -168938,-7352808 -168970,-7352762 -169009,-7352706 -169016,-7352694 -169021,-7352682 -169026,-7352671 -169031,-7352659 -169035,-7352646 -169038,-7352633 -169041,-7352620 -169043,-7352607 -169043,-7352606 -169046,-7352589 -169047,-7352572 -169048,-7352556 -169049,-7352541 -169048,-7352521 -169047,-7352501 -169045,-7352482 -169044,-7352474 -169036,-7352335 -169022,-7352157 -169018,-7352069 -169012,-7351994 -169006,-7351906 -168998,-7351820 -168994,-7351733 -168993,-7351661 -168989,-7351595 -168983,-7351552 -168977,-7351530 -168944,-7351489 -168928,-7351467 -168904,-7351420 -168866,-7351337 -168798,-7351272 -168808,-7351247 -168777,-7351167 -168795,-7351151 -168750,-7351040 -168728,-7350989 -168713,-7350951 -168694,-7350899 -168679,-7350854 -168665,-7350807 -168664,-7350804 -168657,-7350778 -168651,-7350755 -168620,-7350637 -168610,-7350598 -168559,-7350392 -168540,-7350318 -168532,-7350289 -168476,-7350080 -168416,-7349845 -168355,-7349614 -168301,-7349387 -168262,-7349209 -168213,-7349021 -168214,-7349009 -168214,-7349008 -168133,-7348699 -168158,-7348677 -168188,-7348648 -168227,-7348615 -168249,-7348624 -168260,-7348636 -168277,-7348641 -168291,-7348650 -168325,-7348702 -168349,-7348680 -168369,-7348672 -168398,-7348679 -168461,-7348658 -168499,-7348637 -168526,-7348634 -168558,-7348637 -168581,-7348629 -168595,-7348624 -168621,-7348606 -168646,-7348580 -168663,-7348553 -168677,-7348534 -168699,-7348520 -168722,-7348501 -168737,-7348495 -168769,-7348482 -168824,-7348465 -168850,-7348449 -168863,-7348444 -168876,-7348440 -168898,-7348443 -168921,-7348447 -169012,-7348471 -169051,-7348487 -169096,-7348510 -169136,-7348534 -169183,-7348564 -169302,-7348655 -169365,-7348693 -169411,-7348726 -169523,-7348797 -169551,-7348815 -169649,-7348868 -169706,-7348895 -169727,-7348903 -169757,-7348909 -169797,-7348922 -169846,-7348926 -169903,-7348922 -169958,-7348916 -170023,-7348886 -170066,-7348866 -170092,-7348892 -170125,-7348902 -170160,-7348899 -170170,-7348884 -170223,-7348882 -170399,-7348791 -170486,-7348717 -170601,-7348592 -170593,-7348563 -170594,-7348562 -170596,-7348561 -170605,-7348556 -170641,-7348579 -170649,-7348587 -170667,-7348605 -170678,-7348606 -170759,-7348615 -170788,-7348613 -170832,-7348638 -170943,-7348671 -170951,-7348700 -171260,-7348649 -171565,-7348597 -171771,-7348560 -171855,-7348545 -171864,-7348564 -172109,-7348461 -172142,-7348448 -172226,-7348413 -172531,-7348192 -172786,-7347994 -172841,-7347932 -172908,-7347844 -172932,-7347855 -172999,-7347945 -173195,-7348186 -173259,-7348263 -173270,-7348276 -173288,-7348290 -173291,-7348288 -173395,-7348198 -173576,-7348064 -173811,-7347892 -173958,-7347780 -173970,-7347761 -174056,-7347696 -174160,-7347620 -174209,-7347582 -174313,-7347495 -174370,-7347455 -174430,-7347405 -174553,-7347314 -174607,-7347276 -174648,-7347251 -174576,-7347148 -174535,-7347095 -174502,-7347047 -174475,-7347011 -174454,-7346973 -174447,-7346952 -174442,-7346934 -174418,-7346856 -174391,-7346774 -174362,-7346655 -174344,-7346589 -174321,-7346510 -174284,-7346394 -174275,-7346367 -174265,-7346341 -174241,-7346294 -174151,-7346112 -174139,-7346085 -174102,-7345997 -174047,-7345878 -174007,-7345792 -173950,-7345712 -173868,-7345598 -173816,-7345529 -173777,-7345475 -173728,-7345399 -173712,-7345375 -173678,-7345333 -173668,-7345316 -173662,-7345307 -173680,-7345294 -173695,-7345284 -173695,-7345284 -173696,-7345270 -173679,-7345264 -173649,-7345233 -173639,-7345222 -173630,-7345158 -173627,-7345110 -173624,-7345090 -173621,-7345070 -173611,-7345031 -173588,-7344966 -173478,-7344676 -173446,-7344596 -173427,-7344539 -173423,-7344527 -173402,-7344460 -173373,-7344401 -173359,-7344347 -173342,-7344301 -173333,-7344265 -173339,-7344160 -173334,-7344089 -173332,-7344010 -173402,-7343941 -173474,-7343855 -173480,-7343832 -173480,-7343800 -173485,-7343767 -173504,-7343746 -173510,-7343744 -173530,-7343736 -173569,-7343729 -173629,-7343720 -173668,-7343708 -173696,-7343690 -173760,-7343638 -173805,-7343609 -173876,-7343555 -173952,-7343487 -173968,-7343467 -173956,-7343451 -173898,-7343416 -173863,-7343393 -173837,-7343366 -173810,-7343332 -173781,-7343291 -173752,-7343256 -173713,-7343194 -173672,-7343128 -173634,-7343051 -173457,-7342997 -173465,-7342950 -173472,-7342913 -173481,-7342544 -173492,-7342253 -173495,-7342048 -173498,-7341887 -173503,-7341595 -173510,-7341370 -173506,-7341248 -173507,-7341222 -173510,-7341211 -173508,-7341123 -173504,-7341031 -173499,-7340940 -173493,-7340833 -173471,-7340834 -173471,-7340826 -173470,-7340757 -173331,-7340736 -173332,-7340717 -173346,-7340354 -173345,-7340342 -173343,-7340342 -173348,-7340196 -173494,-7340196 -173503,-7340125 -173508,-7340040 -173507,-7339938 -173508,-7339931 -173509,-7339912 -173510,-7339893 -173509,-7339873 -173508,-7339854 -173508,-7339845 -173506,-7339833 -173505,-7339821 -173503,-7339809 -173500,-7339797 -173497,-7339785 -173495,-7339780 -173492,-7339769 -173487,-7339759 -173483,-7339748 -173477,-7339739 -173472,-7339729 -173465,-7339720 -173458,-7339711 -173453,-7339704 -173445,-7339696 -173437,-7339688 -173429,-7339681 -173420,-7339674 -173411,-7339668 -173401,-7339662 -173392,-7339657 -173383,-7339653 -173372,-7339649 -173362,-7339645 -173351,-7339642 -173341,-7339640 -173330,-7339638 -173242,-7339629 -173224,-7339616 -173227,-7339539 -173261,-7339533 -173275,-7339532 -173300,-7339531 -173326,-7339528 -173338,-7339527 -173352,-7339525 -173367,-7339523 -173382,-7339520 -173396,-7339517 -173410,-7339512 -173416,-7339510 -173425,-7339508 -173433,-7339505 -173441,-7339502 -173450,-7339498 -173457,-7339495 -173465,-7339491 -173472,-7339486 -173479,-7339481 -173486,-7339476 -173486,-7339475 -173494,-7339467 -173501,-7339458 -173507,-7339448 -173513,-7339438 -173518,-7339428 -173523,-7339418 -173527,-7339407 -173531,-7339397 -173534,-7339386 -173536,-7339375 -173542,-7339280 -173549,-7339195 -173560,-7339183 -173567,-7339140 -173577,-7339084 -173591,-7339009 -173592,-7339005 -173727,-7338905 -173767,-7338879 -173782,-7338878 -173787,-7338866 -173788,-7338853 -173796,-7338842 -173818,-7338824 -173882,-7338773 -173923,-7338775 -173992,-7338768 -174092,-7338761 -174304,-7338750 -174390,-7338743 -174424,-7338733 -174556,-7338702 -174610,-7338680 -174656,-7338643 -174707,-7338623 -174735,-7338602 -174776,-7338572 -174790,-7338563 -174861,-7338521 -174885,-7338507 -174936,-7338489 -174982,-7338476 -175038,-7338465 -175195,-7338441 -175312,-7338427 -175419,-7338409 -175429,-7338408 -175428,-7338349 -175425,-7338281 -175529,-7338265 -175576,-7338250 -175651,-7338227 -175757,-7338194 -175874,-7338179 -175885,-7338256 -175896,-7338381 -175920,-7338524 -175947,-7338702 -175964,-7338816 -175972,-7338870 -175992,-7338997 -176020,-7339207 -176040,-7339357 -176066,-7339557 -176105,-7339800 -176124,-7339801 -176140,-7339897 -176151,-7340016 -176160,-7340089 -176174,-7340225 -176183,-7340281 -176187,-7340321 -176195,-7340359 -176208,-7340375 -176218,-7340397 -176223,-7340415 -176230,-7340465 -176235,-7340526 -176249,-7340638 -176259,-7340698 -176268,-7340740 -176278,-7340769 -176315,-7340816 -176327,-7340837 -176334,-7340865 -176337,-7340899 -176336,-7340914 -176331,-7340964 -176322,-7340995 -176322,-7341056 -176326,-7341092 -176343,-7341127 -176349,-7341140 -176362,-7341159 -176384,-7341176 -176448,-7341220 -176468,-7341256 -176475,-7341264 -176492,-7341280 -176501,-7341288 -176521,-7341294 -176537,-7341303 -176566,-7341336 -176585,-7341352 -176594,-7341358 -176614,-7341370 -176626,-7341375 -176636,-7341378 -176666,-7341383 -176726,-7341386 -176741,-7341386 -176759,-7341387 -176769,-7341391 -176788,-7341402 -176796,-7341409 -176808,-7341427 -176811,-7341435 -176818,-7341458 -176827,-7341491 -176840,-7341515 -176842,-7341538 -176836,-7341575 -176834,-7341587 -176835,-7341604 -176847,-7341618 -176856,-7341622 -176887,-7341632 -176910,-7341653 -176927,-7341676 -176931,-7341686 -176940,-7341713 -176959,-7341743 -176965,-7341753 -176989,-7341837 -177005,-7341878 -177018,-7341923 -177029,-7341962 -177043,-7342006 -177065,-7342105 -177073,-7342152 -177087,-7342197 -177094,-7342216 -177102,-7342235 -177124,-7342270 -177146,-7342295 -177167,-7342308 -177184,-7342317 -177182,-7342326 -177176,-7342348 -177175,-7342378 -177184,-7342410 -177200,-7342442 -177227,-7342481 -177260,-7342528 -177274,-7342541 -177323,-7342565 -177361,-7342595 -177383,-7342623 -177404,-7342648 -177414,-7342673 -177421,-7342707 -177422,-7342737 -177418,-7342749 -177401,-7342785 -177406,-7342805 -177417,-7342820 -177431,-7342831 -177461,-7342873 -177474,-7342865 -177493,-7342855 -177507,-7342852 -177526,-7342847 -177557,-7342849 -177588,-7342857 -177610,-7342857 -177613,-7342857 -177617,-7342858 -177620,-7342858 -177623,-7342857 -177627,-7342856 -177630,-7342855 -177633,-7342853 -177636,-7342851 -177637,-7342851 -177642,-7342848 -177645,-7342844 -177649,-7342840 -177650,-7342838 -177656,-7342831 -177660,-7342827 -177663,-7342824 -177671,-7342815 -177674,-7342814 -177677,-7342813 -177680,-7342813 -177682,-7342814 -177685,-7342814 -177688,-7342815 -177690,-7342815 -177710,-7342819 -177731,-7342823 -177732,-7342823 -177746,-7342823 -177751,-7342821 -177757,-7342820 -177763,-7342817 -177767,-7342814 -177770,-7342812 -177772,-7342808 -177775,-7342805 -177777,-7342803 -177781,-7342799 -177786,-7342795 -177791,-7342792 -177794,-7342791 -177798,-7342790 -177800,-7342790 -177804,-7342790 -177809,-7342790 -177813,-7342791 -177815,-7342791 -177825,-7342793 -177832,-7342794 -177835,-7342794 -177836,-7342794 -177840,-7342794 -177844,-7342793 -177849,-7342791 -177853,-7342789 -177855,-7342788 -177859,-7342786 -177863,-7342783 -177864,-7342782 -177867,-7342780 -177868,-7342779 -177873,-7342775 -177876,-7342773 -177883,-7342766 -177890,-7342759 -177896,-7342752 -177904,-7342744 -177943,-7342706 -177964,-7342686 -178010,-7342643 -178051,-7342598 -178087,-7342559 -178088,-7342558 -178095,-7342550 -178146,-7342493 -178160,-7342479 -178190,-7342451 -178194,-7342444 -178197,-7342437 -178198,-7342429 -178197,-7342412 -178196,-7342402 -178191,-7342378 -178181,-7342358 -178166,-7342339 -178141,-7342326 -178139,-7342325 -178137,-7342323 -178135,-7342321 -178134,-7342321 -178133,-7342319 -178132,-7342316 -178131,-7342314 -178130,-7342311 -178130,-7342309 -178130,-7342306 -178130,-7342305 -178131,-7342302 -178131,-7342299 -178133,-7342296 -178134,-7342293 -178136,-7342290 -178138,-7342287 -178140,-7342285 -178143,-7342282 -178146,-7342280 -178149,-7342279 -178153,-7342277 -178156,-7342277 -178158,-7342276 -178184,-7342265 -178192,-7342262 -178208,-7342246 -178216,-7342235 -178241,-7342230 -178271,-7342227 -178294,-7342220 -178296,-7342218 -178313,-7342208 -178329,-7342191 -178339,-7342182 -178352,-7342178 -178353,-7342178 -178372,-7342174 -178401,-7342170 -178420,-7342167 -178479,-7342158 -178483,-7342157 -178521,-7342154 -178527,-7342153 -178533,-7342153 -178534,-7342153 -178540,-7342153 -178546,-7342154 -178550,-7342155 -178553,-7342157 -178556,-7342159 -178558,-7342161 -178560,-7342163 -178564,-7342166 -178567,-7342170 -178569,-7342174 -178572,-7342178 -178574,-7342183 -178575,-7342187 -178577,-7342192 -178577,-7342195 -178593,-7342223 -178603,-7342228 -178620,-7342234 -178644,-7342239 -178650,-7342236 -178659,-7342225 -178664,-7342214 -178669,-7342205 -178668,-7342187 -178667,-7342174 -178666,-7342171 -178665,-7342169 -178665,-7342166 -178665,-7342165 -178665,-7342162 -178666,-7342159 -178667,-7342157 -178669,-7342155 -178671,-7342153 -178673,-7342151 -178675,-7342149 -178677,-7342147 -178678,-7342146 -178681,-7342144 -178685,-7342143 -178688,-7342142 -178692,-7342141 -178696,-7342141 -178699,-7342140 -178704,-7342140 -178709,-7342140 -178715,-7342140 -178721,-7342141 -178726,-7342143 -178732,-7342144 -178737,-7342146 -178742,-7342149 -178745,-7342150 -178777,-7342161 -178782,-7342164 -178806,-7342177 -178816,-7342177 -178818,-7342170 -178829,-7342168 -178841,-7342171 -178843,-7342172 -178862,-7342176 -178867,-7342176 -178884,-7342179 -178901,-7342173 -178926,-7342160 -178936,-7342149 -178937,-7342147 -178937,-7342144 -178937,-7342141 -178937,-7342137 -178937,-7342133 -178938,-7342123 -178936,-7342112 -178934,-7342109 -178929,-7342102 -178920,-7342095 -178914,-7342086 -178910,-7342072 -178912,-7342061 -178913,-7342055 -178914,-7342047 -178915,-7342031 -178912,-7342013 -178904,-7341997 -178895,-7341982 -178891,-7341976 -178879,-7341952 -178877,-7341948 -178876,-7341943 -178875,-7341941 -178874,-7341936 -178874,-7341931 -178874,-7341926 -178875,-7341921 -178876,-7341918 -178878,-7341916 -178880,-7341914 -178883,-7341912 -178885,-7341909 -178888,-7341908 -178891,-7341906 -178892,-7341905 -178897,-7341901 -178903,-7341898 -178908,-7341895 -178911,-7341894 -178935,-7341891 -178956,-7341897 -178958,-7341897 -178975,-7341898 -178989,-7341891 -179003,-7341881 -179015,-7341862 -179026,-7341834 -179032,-7341804 -179037,-7341779 -179047,-7341765 -179073,-7341741 -179095,-7341718 -179103,-7341710 -179128,-7341689 -179171,-7341649 -179207,-7341625 -179217,-7341615 -179225,-7341604 -179253,-7341581 -179273,-7341569 -179286,-7341562 -179302,-7341562 -179325,-7341565 -179350,-7341572 -179377,-7341575 -179387,-7341575 -179401,-7341575 -179418,-7341575 -179437,-7341569 -179445,-7341559 -179448,-7341548 -179451,-7341534 -179460,-7341517 -179462,-7341513 -179477,-7341485 -179502,-7341448 -179538,-7341398 -179558,-7341341 -179574,-7341314 -179604,-7341261 -179644,-7341197 -179667,-7341158 -179690,-7341123 -179713,-7341100 -179729,-7341077 -179743,-7341055 -179761,-7341017 -179777,-7341003 -179795,-7340991 -179814,-7340967 -179835,-7340951 -179858,-7340935 -179866,-7340922 -179882,-7340896 -179906,-7340867 -179916,-7340838 -179934,-7340786 -179946,-7340754 -179963,-7340732 -179983,-7340710 -180009,-7340682 -180054,-7340657 -180075,-7340635 -180095,-7340614 -180142,-7340581 -180150,-7340572 -180154,-7340562 -180156,-7340548 -180158,-7340527 -180163,-7340505 -180175,-7340470 -180185,-7340449 -180189,-7340446 -180193,-7340443 -180197,-7340439 -180200,-7340435 -180204,-7340431 -180204,-7340430 -180206,-7340427 -180208,-7340423 -180210,-7340420 -180210,-7340419 -180211,-7340413 -180211,-7340407 -180211,-7340405 -180211,-7340398 -180213,-7340382 -180215,-7340363 -180218,-7340339 -180224,-7340297 -180223,-7340269 -180210,-7340225 -180195,-7340173 -180177,-7340124 -180172,-7340108 -180176,-7340088 -180180,-7340067 -180182,-7340032 -180181,-7340027 -180180,-7340022 -180181,-7340016 -180181,-7340011 -180182,-7340005 -180183,-7340000 -180184,-7339997 -180186,-7339993 -180187,-7339989 -180189,-7339986 -180191,-7339983 -180193,-7339981 -180195,-7339979 -180197,-7339977 -180199,-7339975 -180202,-7339974 -180205,-7339973 -180207,-7339972 -180210,-7339972 -180213,-7339972 -180216,-7339973 -180218,-7339974 -180221,-7339975 -180314,-7340000 -180329,-7340012 -180367,-7340021 -180369,-7340022 -180377,-7340025 -180386,-7340028 -180394,-7340030 -180403,-7340032 -180412,-7340033 -180421,-7340033 -180424,-7340034 -180430,-7340034 -180437,-7340034 -180443,-7340033 -180449,-7340032 -180454,-7340031 -180461,-7340028 -180467,-7340025 -180474,-7340022 -180480,-7340017 -180485,-7340014 -180490,-7340010 -180494,-7340005 -180499,-7340001 -180503,-7339995 -180504,-7339995 -180506,-7339991 -180508,-7339986 -180511,-7339983 -180513,-7339980 -180516,-7339977 -180519,-7339975 -180522,-7339972 -180526,-7339971 -180532,-7339970 -180538,-7339970 -180544,-7339969 -180550,-7339968 -180553,-7339967 -180556,-7339966 -180559,-7339965 -180562,-7339963 -180564,-7339961 -180567,-7339958 -180570,-7339954 -180571,-7339950 -180573,-7339946 -180574,-7339941 -180574,-7339940 -180574,-7339937 -180574,-7339934 -180574,-7339931 -180574,-7339928 -180575,-7339926 -180575,-7339924 -180577,-7339922 -180578,-7339920 -180580,-7339918 -180581,-7339917 -180583,-7339916 -180585,-7339915 -180588,-7339915 -180591,-7339915 -180594,-7339916 -180597,-7339917 -180598,-7339917 -180601,-7339919 -180604,-7339920 -180606,-7339922 -180608,-7339925 -180610,-7339927 -180611,-7339930 -180637,-7339947 -180657,-7339969 -180690,-7340001 -180702,-7340013 -180711,-7340020 -180726,-7340027 -180737,-7340030 -180750,-7340032 -180761,-7340032 -180772,-7340030 -180781,-7340027 -180792,-7340022 -180870,-7339969 -180881,-7339965 -180887,-7339946 -180905,-7339951 -180912,-7339953 -180928,-7339957 -180945,-7339961 -180961,-7339956 -180979,-7339940 -180984,-7339932 -180989,-7339922 -181004,-7339906 -181015,-7339904 -181023,-7339903 -181036,-7339897 -181043,-7339887 -181049,-7339875 -181061,-7339868 -181113,-7339854 -181167,-7339839 -181185,-7339832 -181225,-7339750 -181271,-7339651 -181270,-7339626 -181274,-7339602 -181313,-7339580 -181398,-7339540 -181437,-7339540 -181449,-7339538 -181483,-7339545 -181501,-7339548 -181504,-7339548 -181531,-7339549 -181575,-7339546 -181626,-7339498 -181626,-7339494 -181629,-7339464 -181606,-7339431 -181600,-7339419 -181598,-7339411 -181598,-7339402 -181600,-7339389 -181675,-7339329 -181685,-7339309 -181694,-7339273 -181701,-7339258 -181707,-7339251 -181713,-7339245 -181720,-7339241 -181727,-7339238 -181734,-7339237 -181739,-7339238 -181765,-7339245 -181780,-7339247 -181792,-7339248 -181799,-7339247 -181812,-7339244 -181822,-7339239 -181833,-7339231 -181858,-7339207 -181865,-7339198 -181871,-7339189 -181876,-7339179 -181883,-7339160 -181888,-7339152 -181895,-7339144 -181904,-7339138 -181919,-7339132 -181973,-7339125 -181990,-7339114 -181997,-7339109 -182004,-7339102 -182012,-7339093 -182019,-7339082 -182028,-7339062 -182041,-7339020 -182044,-7338996 -182048,-7338981 -182054,-7338967 -182062,-7338953 -182072,-7338941 -182125,-7338893 -182185,-7338808 -182211,-7338793 -182261,-7338787 -182283,-7338777 -182304,-7338777 -182338,-7338774 -182372,-7338766 -182445,-7338753 -182474,-7338744 -182500,-7338723 -182504,-7338704 -182528,-7338607 -182533,-7338597 -182541,-7338586 -182560,-7338572 -182574,-7338564 -182589,-7338558 -182608,-7338553 -182793,-7338476 -182833,-7338449 -182902,-7338412 -182920,-7338398 -182933,-7338391 -182949,-7338385 -182974,-7338379 -183085,-7338374 -183160,-7338379 -183168,-7338381 -183179,-7338384 -183193,-7338391 -183245,-7338426 -183282,-7338426 -183300,-7338430 -183314,-7338437 -183329,-7338447 -183346,-7338455 -183364,-7338459 -183383,-7338461 -183486,-7338490 -183498,-7338493 -183543,-7338519 -183557,-7338524 -183566,-7338525 -183579,-7338526 -183591,-7338525 -183601,-7338524 -183614,-7338520 -183632,-7338513 -183673,-7338489 -183684,-7338486 -183707,-7338481 -183724,-7338478 -183732,-7338478 -183739,-7338480 -183745,-7338483 -183751,-7338486 -183756,-7338491 -183773,-7338513 -183778,-7338523 -183782,-7338534 -183786,-7338546 -183788,-7338560 -183789,-7338575 -183789,-7338597 -183796,-7338663 -183795,-7338677 -183791,-7338694 -183778,-7338720 -183771,-7338730 -183759,-7338747 -183750,-7338755 -183735,-7338763 -183723,-7338767 -183699,-7338774 -183664,-7338782 -183619,-7338784 -183573,-7338784 -183537,-7338776 -183506,-7338776 -183482,-7338778 -183455,-7338784 -183449,-7338789 -183439,-7338796 -183424,-7338798 -183412,-7338795 -183392,-7338801 -183337,-7338826 -183296,-7338837 -183290,-7338841 -183283,-7338847 -183276,-7338857 -183273,-7338862 -183271,-7338870 -183270,-7338881 -183271,-7338895 -183274,-7338908 -183281,-7338925 -183310,-7338974 -183333,-7339018 -183340,-7339027 -183324,-7339049 -183314,-7339064 -183307,-7339087 -183308,-7339113 -183311,-7339139 -183319,-7339175 -183329,-7339211 -183344,-7339204 -183355,-7339219 -183369,-7339259 -183407,-7339369 -183417,-7339387 -183422,-7339401 -183426,-7339416 -183429,-7339428 -183429,-7339438 -183428,-7339449 -183425,-7339462 -183427,-7339497 -183432,-7339536 -183443,-7339557 -183452,-7339672 -183297,-7339693 -183307,-7339760 -183316,-7339829 -183322,-7339947 -183289,-7339956 -183303,-7339973 -183309,-7340002 -183319,-7340079 -183328,-7340163 -183329,-7340195 -183325,-7340212 -183314,-7340218 -183301,-7340223 -183301,-7340236 -183304,-7340252 -183313,-7340275 -183317,-7340278 -183327,-7340281 -183343,-7340281 -183382,-7340275 -183408,-7340399 -183436,-7340537 -183480,-7340746 -183507,-7340882 -183601,-7341124 -183612,-7341129 -183631,-7341124 -183678,-7341248 -183725,-7341232 -183755,-7341228 -183812,-7341216 -183818,-7341215 -183826,-7341213 -183834,-7341212 -183848,-7341206 -183877,-7341192 -183915,-7341169 -183952,-7341147 -183954,-7341146 -183958,-7341144 -183963,-7341141 -183968,-7341139 -183969,-7341139 -183992,-7341135 -183995,-7341135 -184002,-7341134 -184010,-7341134 -184018,-7341135 -184025,-7341135 -184033,-7341135 -184041,-7341135 -184048,-7341134 -184055,-7341132 -184061,-7341131 -184062,-7341130 -184067,-7341128 -184074,-7341125 -184080,-7341121 -184085,-7341117 -184090,-7341113 -184101,-7341103 -184106,-7341098 -184116,-7341086 -184133,-7341053 -184138,-7341043 -184145,-7341040 -184167,-7341031 -184248,-7340993 -184328,-7340961 -184349,-7340941 -184364,-7340907 -184368,-7340866 -184371,-7340831 -184371,-7340798 -184371,-7340793 -184369,-7340764 -184370,-7340729 -184374,-7340714 -184385,-7340704 -184400,-7340694 -184426,-7340684 -184467,-7340674 -184491,-7340669 -184503,-7340667 -184534,-7340666 -184564,-7340668 -184596,-7340672 -184627,-7340676 -184784,-7340675 -184788,-7340683 -184797,-7340698 -184804,-7340717 -184804,-7340723 -184804,-7340728 -184794,-7340754 -184791,-7340762 -184790,-7340800 -184768,-7340861 -184761,-7340891 -184753,-7340914 -184746,-7340945 -184725,-7340987 -184711,-7341011 -184707,-7341027 -184707,-7341035 -184710,-7341056 -184700,-7341093 -184703,-7341101 -184711,-7341110 -184711,-7341145 -184713,-7341159 -184724,-7341182 -184731,-7341192 -184739,-7341201 -184754,-7341213 -184754,-7341217 -184754,-7341223 -184753,-7341227 -184753,-7341230 -184752,-7341233 -184752,-7341236 -184752,-7341237 -184752,-7341239 -184752,-7341241 -184753,-7341243 -184754,-7341244 -184765,-7341245 -184766,-7341245 -184767,-7341245 -184769,-7341245 -184772,-7341245 -184774,-7341245 -184777,-7341245 -184779,-7341245 -184782,-7341246 -184782,-7341247 -184784,-7341248 -184786,-7341250 -184788,-7341252 -184789,-7341254 -184796,-7341262 -184796,-7341263 -184798,-7341266 -184800,-7341269 -184802,-7341271 -184803,-7341272 -184806,-7341274 -184813,-7341277 -184816,-7341278 -184820,-7341280 -184822,-7341281 -184825,-7341281 -184829,-7341282 -184833,-7341282 -184837,-7341283 -184838,-7341284 -184840,-7341285 -184842,-7341286 -184843,-7341287 -184846,-7341290 -184847,-7341292 -184849,-7341294 -184849,-7341295 -184850,-7341299 -184852,-7341302 -184853,-7341305 -184855,-7341308 -184858,-7341311 -184860,-7341313 -184870,-7341318 -184882,-7341322 -184883,-7341323 -184885,-7341323 -184886,-7341324 -184887,-7341325 -184888,-7341333 -184888,-7341335 -184888,-7341338 -184888,-7341341 -184888,-7341344 -184889,-7341345 -184889,-7341347 -184890,-7341348 -184891,-7341349 -184892,-7341350 -184901,-7341350 -184904,-7341350 -184907,-7341350 -184910,-7341350 -184913,-7341350 -184917,-7341353 -184925,-7341359 -184926,-7341359 -184930,-7341362 -184933,-7341365 -184937,-7341367 -184940,-7341370 -184943,-7341374 -184946,-7341377 -184953,-7341393 -184956,-7341401 -184957,-7341407 -184959,-7341412 -184962,-7341416 -184967,-7341421 -184972,-7341425 -184975,-7341428 -184977,-7341429 -184982,-7341433 -184986,-7341438 -184990,-7341443 -184994,-7341450 -184998,-7341459 -184998,-7341460 -185000,-7341465 -185001,-7341471 -185004,-7341477 -185005,-7341480 -185006,-7341483 -185008,-7341485 -185010,-7341488 -185010,-7341488 -185013,-7341490 -185015,-7341491 -185017,-7341493 -185019,-7341494 -185020,-7341497 -185022,-7341500 -185023,-7341504 -185024,-7341510 -185024,-7341516 -185024,-7341518 -185024,-7341524 -185016,-7341538 -185022,-7341549 -185034,-7341561 -185047,-7341584 -185070,-7341606 -185078,-7341627 -185090,-7341639 -185093,-7341651 -185095,-7341656 -185103,-7341667 -185128,-7341696 -185130,-7341697 -185164,-7341673 -185199,-7341650 -185253,-7341610 -185302,-7341593 -185334,-7341577 -185390,-7341556 -185409,-7341555 -185427,-7341554 -185543,-7341562 -185629,-7341574 -185693,-7341586 -185711,-7341592 -185739,-7341608 -185818,-7341640 -185816,-7341653 -185854,-7341685 -185906,-7341724 -186015,-7341800 -186056,-7341835 -186110,-7341850 -186136,-7341860 -186185,-7341882 -186208,-7341893 -186224,-7341902 -186240,-7341911 -186334,-7341972 -186403,-7342024 -186488,-7342083 -186524,-7342113 -186538,-7342130 -186594,-7342224 -186626,-7342291 -186637,-7342308 -186657,-7342328 -186691,-7342356 -186725,-7342385 -186808,-7342452 -186803,-7342583 -186798,-7342715 -186796,-7342781 -186791,-7342825 -186773,-7342854 -186742,-7342913 -186705,-7342974 -186669,-7343053 -186631,-7343128 -186647,-7343137 -186665,-7343147 -186657,-7343173 -186642,-7343229 -186630,-7343312 -186612,-7343438 -186609,-7343456 -186602,-7343516 -186578,-7343574 -186540,-7343670 -186517,-7343753 -186508,-7343816 -186499,-7343875 -186507,-7343922 -186504,-7343961 -186487,-7343966 -186461,-7344140 -186442,-7344283 -186435,-7344333 -186514,-7344324 -186547,-7344324 -186578,-7344317 -186610,-7344306 -186647,-7344289 -186695,-7344267 -186821,-7344201 -186933,-7344144 -186936,-7344143 -186986,-7344098 -187024,-7344071 -187056,-7344052 -187115,-7344032 -187233,-7343991 -187241,-7343998 -187252,-7343996 -187280,-7344027 -187283,-7344030 -187331,-7344073 -187403,-7344135 -187504,-7344130 -187546,-7344113 -187614,-7344098 -187711,-7344071 -187762,-7344054 -187799,-7344044 -187813,-7344035 -187830,-7344019 -187844,-7344017 -187868,-7344015 -187882,-7343983 -187889,-7343971 -187896,-7343959 -187911,-7343938 -187973,-7343884 -187999,-7343867 -188006,-7343862 -188015,-7343847 -188034,-7343831 -188079,-7343744 -188075,-7343721 -188073,-7343695 -188054,-7343640 -188053,-7343624 -188050,-7343618 -188039,-7343604 -188036,-7343597 -188048,-7343576 -188069,-7343533 -188078,-7343522 -188084,-7343508 -188088,-7343522 -188108,-7343506 -188133,-7343480 -188151,-7343447 -188166,-7343435 -188172,-7343427 -188178,-7343419 -188186,-7343401 -188211,-7343381 -188215,-7343375 -188219,-7343362 -188221,-7343351 -188224,-7343326 -188234,-7343275 -188235,-7343260 -188233,-7343239 -188225,-7343211 -188219,-7343199 -188215,-7343183 -188215,-7343175 -188218,-7343158 -188226,-7343147 -188226,-7343127 -188211,-7343073 -188193,-7342998 -188235,-7342996 -188258,-7342996 -188282,-7342992 -188299,-7342992 -188318,-7342989 -188318,-7342985 -188330,-7342993 -188347,-7343014 -188380,-7343032 -188417,-7343052 -188456,-7343074 -188482,-7343089 -188488,-7343093 -188507,-7343106 -188521,-7343128 -188527,-7343150 -188530,-7343162 -188545,-7343206 -188574,-7343279 -188600,-7343308 -188640,-7343332 -188709,-7343356 -188747,-7343388 -188759,-7343397 -188764,-7343402 -188767,-7343408 -188781,-7343439 -188786,-7343447 -188798,-7343461 -188819,-7343481 -188824,-7343487 -188840,-7343521 -188856,-7343539 -188880,-7343584 -188893,-7343604 -188908,-7343621 -188938,-7343642 -188972,-7343689 -188962,-7343697 -188941,-7343712 -188900,-7343733 -188898,-7343733 -188895,-7343733 -188892,-7343734 -188889,-7343735 -188886,-7343737 -188884,-7343739 -188881,-7343741 -188880,-7343743 -188878,-7343746 -188876,-7343750 -188875,-7343753 -188875,-7343757 -188874,-7343762 -188875,-7343768 -188877,-7343773 -188878,-7343779 -188880,-7343782 -188882,-7343787 -188885,-7343792 -188888,-7343796 -188891,-7343801 -188895,-7343805 -188923,-7343819 -188943,-7343837 -188973,-7343869 -189005,-7343908 -189036,-7343962 -189074,-7344044 -189082,-7344064 -189085,-7344089 -189085,-7344112 -189077,-7344166 -189105,-7344199 -189103,-7344215 -189091,-7344218 -189066,-7344224 -189090,-7344235 -189192,-7344258 -189235,-7344265 -189307,-7344280 -189322,-7344276 -189341,-7344267 -189537,-7344258 -189623,-7344275 -189631,-7344266 -189807,-7344261 -189980,-7344257 -190095,-7344261 -190202,-7344262 -190272,-7344256 -190399,-7344251 -190402,-7344227 -190515,-7344211 -190618,-7344203 -190707,-7344179 -190723,-7344191 -190859,-7344129 -190901,-7344081 -190975,-7344044 -191013,-7344025 -191070,-7343983 -191135,-7344036 -191137,-7344115 -191192,-7344118 -191251,-7344101 -191287,-7344096 -191302,-7344090 -191361,-7344046 -191381,-7344033 -191419,-7344039 -191502,-7344058 -191603,-7344077 -191593,-7344123 -191583,-7344155 -191599,-7344159 -191659,-7344180 -191707,-7344209 -191717,-7344217 -191723,-7344225 -191728,-7344236 -191731,-7344245 -191733,-7344262 -191741,-7344307 -191747,-7344329 -191755,-7344349 -191783,-7344418 -191787,-7344424 -191797,-7344439 -191800,-7344441 -191805,-7344443 -191810,-7344444 -191817,-7344441 -191830,-7344430 -191903,-7344338 -192013,-7344222 -192015,-7344186 -192026,-7344204 -192068,-7344249 -192099,-7344298 -192111,-7344331 -192113,-7344343 -192115,-7344351 -192118,-7344357 -192122,-7344363 -192129,-7344370 -192156,-7344392 -192172,-7344412 -192173,-7344413 -192192,-7344427 -192207,-7344433 -192220,-7344435 -192247,-7344451 -192251,-7344452 -192261,-7344453 -192264,-7344453 -192301,-7344473 -192308,-7344485 -192319,-7344495 -192322,-7344503 -192323,-7344510 -192333,-7344544 -192337,-7344573 -192342,-7344618 -192363,-7344709 -192360,-7344717 -192356,-7344725 -192338,-7344741 -192322,-7344760 -192322,-7344763 -192325,-7344772 -192328,-7344779 -192340,-7344792 -192344,-7344800 -192346,-7344808 -192347,-7344817 -192346,-7344821 -192341,-7344840 -192341,-7344847 -192339,-7344854 -192336,-7344860 -192333,-7344864 -192328,-7344868 -192312,-7344879 -192309,-7344882 -192308,-7344885 -192308,-7344887 -192313,-7344895 -192326,-7344904 -192329,-7344910 -192329,-7344918 -192326,-7344925 -192325,-7344944 -192328,-7344957 -192341,-7344978 -192351,-7344990 -192362,-7345002 -192387,-7345024 -192401,-7345042 -192406,-7345065 -192415,-7345081 -192422,-7345105 -192430,-7345158 -192431,-7345187 -192433,-7345200 -192436,-7345209 -192439,-7345217 -192445,-7345227 -192472,-7345259 -192488,-7345284 -192491,-7345299 -192494,-7345303 -192512,-7345322 -192523,-7345329 -192548,-7345338 -192554,-7345338 -192557,-7345339 -192560,-7345342 -192561,-7345345 -192559,-7345359 -192550,-7345379 -192550,-7345383 -192551,-7345387 -192554,-7345390 -192557,-7345392 -192561,-7345391 -192568,-7345385 -192572,-7345383 -192576,-7345385 -192581,-7345388 -192591,-7345398 -192598,-7345410 -192599,-7345415 -192597,-7345424 -192599,-7345433 -192607,-7345442 -192608,-7345444 -192607,-7345447 -192598,-7345451 -192595,-7345453 -192590,-7345479 -192590,-7345495 -192592,-7345504 -192600,-7345519 -192620,-7345512 -192634,-7345510 -192640,-7345511 -192644,-7345513 -192648,-7345515 -192649,-7345517 -192650,-7345520 -192649,-7345524 -192648,-7345528 -192640,-7345536 -192647,-7345541 -192654,-7345543 -192655,-7345545 -192658,-7345565 -192662,-7345578 -192666,-7345590 -192677,-7345609 -192679,-7345616 -192678,-7345639 -192680,-7345650 -192682,-7345660 -192685,-7345664 -192694,-7345673 -192700,-7345677 -192707,-7345680 -192717,-7345682 -192733,-7345684 -192742,-7345685 -192768,-7345678 -192788,-7345682 -192826,-7345697 -192833,-7345697 -192841,-7345700 -192844,-7345704 -192847,-7345710 -192848,-7345714 -192846,-7345742 -192847,-7345758 -192849,-7345772 -192851,-7345777 -192858,-7345783 -192892,-7345797 -192898,-7345802 -192903,-7345812 -192906,-7345829 -192911,-7345844 -192915,-7345852 -192921,-7345861 -192926,-7345866 -192934,-7345874 -192927,-7345892 -192933,-7345896 -192947,-7345904 -192954,-7345907 -192974,-7345890 -192995,-7345879 -192999,-7345880 -193001,-7345881 -193002,-7345886 -193001,-7345890 -193001,-7345904 -193002,-7345910 -193009,-7345925 -193019,-7345938 -193025,-7345964 -193033,-7345982 -193042,-7345997 -193045,-7346000 -193052,-7346003 -193070,-7346008 -193089,-7346023 -193095,-7346026 -193120,-7346031 -193153,-7346034 -193164,-7346043 -193171,-7346047 -193188,-7346050 -193197,-7346050 -193203,-7346052 -193220,-7346063 -193236,-7346068 -193249,-7346074 -193260,-7346077 -193273,-7346080 -193283,-7346081 -193291,-7346080 -193306,-7346078 -193313,-7346075 -193339,-7346061 -193350,-7346058 -193357,-7346056 -193365,-7346057 -193404,-7346075 -193427,-7346103 -193482,-7346038 -193523,-7345980 -193541,-7345943 -193554,-7345914 -193585,-7345859 -193600,-7345803 -193610,-7345782 -193625,-7345760 -193636,-7345749 -193647,-7345744 -193654,-7345742 -193665,-7345741 -193680,-7345741 -193696,-7345743 -193711,-7345747 -193723,-7345752 -193742,-7345762 -193753,-7345771 -193812,-7345795 -193872,-7345825 -193883,-7345834 -193893,-7345840 -193902,-7345843 -193910,-7345846 -193925,-7345847 -193963,-7345846 -193979,-7345845 -193998,-7345841 -194018,-7345836 -194044,-7345827 -194094,-7345814 -194288,-7345730 -194361,-7345688 -194378,-7345680 -194388,-7345678 -194392,-7345679 -194398,-7345682 -194407,-7345690 -194415,-7345699 -194422,-7345708 -194430,-7345725 -194464,-7345788 -194474,-7345802 -194488,-7345821 -194503,-7345839 -194515,-7345851 -194524,-7345859 -194534,-7345866 -194550,-7345875 -194567,-7345882 -194621,-7345903 -194634,-7345907 -194652,-7345911 -194667,-7345912 -194685,-7345915 -194695,-7345915 -194704,-7345915 -194724,-7345911 -194747,-7345905 -194748,-7345905 -194765,-7345901 -194782,-7345896 -194798,-7345891 -194815,-7345884 -194829,-7345878 -194847,-7345869 -194863,-7345860 -194872,-7345855 -194884,-7345848 -194896,-7345840 -194907,-7345832 -194918,-7345823 -194925,-7345818 -194934,-7345808 -194944,-7345798 -194953,-7345787 -194961,-7345776 -195016,-7345685 -195020,-7345675 -195025,-7345664 -195085,-7345563 -195131,-7345479 -195176,-7345393 -195208,-7345325 -195225,-7345292 -195241,-7345260 -195271,-7345207 -195284,-7345183 -195296,-7345158 -195326,-7345088 -195385,-7344978 -195405,-7344944 -195413,-7344933 -195431,-7344911 -195446,-7344895 -195487,-7344848 -195520,-7344816 -195535,-7344796 -195561,-7344759 -195571,-7344747 -195581,-7344736 -195597,-7344723 -195610,-7344716 -195627,-7344708 -195700,-7344678 -195794,-7344641 -195854,-7344614 -195863,-7344609 -195890,-7344591 -195903,-7344578 -195908,-7344571 -195913,-7344562 -195921,-7344541 -195934,-7344422 -195937,-7344367 -195934,-7344316 -195935,-7344309 -195936,-7344289 -195940,-7344264 -195946,-7344238 -195952,-7344219 -195962,-7344194 -195970,-7344180 -195980,-7344166 -195990,-7344152 -196002,-7344140 -196014,-7344130 -196026,-7344121 -196037,-7344115 -196055,-7344108 -196107,-7344095 -196118,-7344093 -196138,-7344090 -196152,-7344090 -196180,-7344093 -196211,-7344100 -196399,-7344127 -196496,-7344134 -196518,-7344138 -196529,-7344142 -196539,-7344146 -196549,-7344151 -196560,-7344160 -196575,-7344172 -196589,-7344185 -196597,-7344194 -196602,-7344202 -196607,-7344212 -196610,-7344221 -196612,-7344230 -196613,-7344241 -196614,-7344295 -196615,-7344302 -196618,-7344311 -196621,-7344319 -196627,-7344326 -196634,-7344333 -196641,-7344340 -196653,-7344345 -196661,-7344348 -196674,-7344350 -196687,-7344352 -196697,-7344352 -196722,-7344349 -196731,-7344346 -196745,-7344340 -196766,-7344328 -196801,-7344295 -196814,-7344275 -196821,-7344262 -196829,-7344244 -196836,-7344225 -196841,-7344205 -196842,-7344194 -196844,-7344171 -196844,-7344162 -196842,-7344146 -196839,-7344130 -196834,-7344111 -196820,-7344085 -196806,-7344061 -196815,-7343926 -196809,-7343862 -196809,-7343852 -196811,-7343844 -196815,-7343836 -196824,-7343822 -196837,-7343809 -196849,-7343801 -196857,-7343797 -196875,-7343790 -196895,-7343784 -196916,-7343781 -196934,-7343780 -196952,-7343782 -196971,-7343786 -196992,-7343794 -197026,-7343814 -197095,-7343851 -197130,-7343872 -197134,-7343875 -197159,-7343893 -197209,-7343915 -197275,-7343962 -197336,-7344003 -197398,-7344058 -197514,-7344165 -197561,-7344207 -197607,-7344255 -197654,-7344313 -197684,-7344351 -197705,-7344374 -197723,-7344392 -197750,-7344413 -197775,-7344427 -197861,-7344470 -197980,-7344526 -198031,-7344560 -198101,-7344610 -198173,-7344652 -198288,-7344708 -198299,-7344712 -198311,-7344715 -198334,-7344717 -198344,-7344717 -198353,-7344715 -198361,-7344712 -198368,-7344708 -198376,-7344701 -198402,-7344670 -198406,-7344663 -198410,-7344655 -198413,-7344644 -198416,-7344613 -198421,-7344562 -198417,-7344495 -198414,-7344472 -198415,-7344458 -198416,-7344446 -198422,-7344425 -198431,-7344413 -198437,-7344407 -198444,-7344402 -198502,-7344371 -198525,-7344363 -198591,-7344342 -198661,-7344316 -198680,-7344304 -198715,-7344280 -198726,-7344273 -198737,-7344267 -198760,-7344259 -198783,-7344250 -198795,-7344247 -198819,-7344245 -198838,-7344246 -198894,-7344244 -199008,-7344231 -199040,-7344227 -199071,-7344222 -199186,-7344196 -199229,-7344189 -199251,-7344187 -199273,-7344185 -199320,-7344185 -199335,-7344184 -199365,-7344181 -199374,-7344178 -199385,-7344173 -199395,-7344167 -199401,-7344161 -199405,-7344155 -199411,-7344142 -199413,-7344134 -199414,-7344081 -199416,-7344067 -199426,-7344005 -199434,-7343977 -199442,-7343954 -199460,-7343918 -199473,-7343897 -199488,-7343874 -199518,-7343836 -199562,-7343768 -199593,-7343727 -199661,-7343580 -199688,-7343533 -199701,-7343506 -199708,-7343486 -199713,-7343466 -199716,-7343447 -199717,-7343427 -199717,-7343413 -199716,-7343386 -199708,-7343347 -199707,-7343315 -199708,-7343298 -199710,-7343282 -199712,-7343266 -199718,-7343246 -199724,-7343233 -199732,-7343219 -199739,-7343209 -199747,-7343200 -199756,-7343193 -199767,-7343185 -199780,-7343178 -199796,-7343172 -199810,-7343168 -199822,-7343166 -199839,-7343165 -199859,-7343165 -199900,-7343169 -199918,-7343174 -199930,-7343180 -199942,-7343188 -199954,-7343198 -199965,-7343210 -199973,-7343221 -199983,-7343239 -200038,-7343317 -200082,-7343375 -200164,-7343455 -200184,-7343482 -200204,-7343508 -200227,-7343556 -200244,-7343578 -200256,-7343592 -200278,-7343609 -200324,-7343639 -200347,-7343652 -200359,-7343657 -200383,-7343663 -200403,-7343663 -200414,-7343662 -200428,-7343657 -200439,-7343650 -200443,-7343645 -200451,-7343635 -200472,-7343588 -200499,-7343544 -200532,-7343509 -200567,-7343483 -200612,-7343431 -200635,-7343408 -200663,-7343383 -200683,-7343369 -200705,-7343358 -200740,-7343347 -200761,-7343344 -200785,-7343340 -200804,-7343339 -200823,-7343340 -200833,-7343342 -200860,-7343351 -200889,-7343364 -200920,-7343382 -200939,-7343396 -200956,-7343411 -200973,-7343428 -200985,-7343442 -200995,-7343456 -201006,-7343474 -201016,-7343494 -201031,-7343533 -201037,-7343552 -201042,-7343571 -201046,-7343593 -201048,-7343616 -201051,-7343656 -201053,-7343674 -201057,-7343691 -201063,-7343711 -201068,-7343726 -201074,-7343740 -201084,-7343758 -201095,-7343775 -201114,-7343799 -201156,-7343855 -201171,-7343867 -201179,-7343872 -201191,-7343877 -201205,-7343881 -201222,-7343883 -201242,-7343884 -201263,-7343882 -201289,-7343875 -201369,-7343846 -201441,-7343813 -201543,-7343769 -201648,-7343721 -201673,-7343707 -201732,-7343672 -201797,-7343632 -201828,-7343611 -201852,-7343592 -201872,-7343578 -201888,-7343568 -201921,-7343551 -201961,-7343534 -201991,-7343524 -202024,-7343516 -202050,-7343511 -202083,-7343507 -202132,-7343504 -202164,-7343506 -202203,-7343512 -202228,-7343517 -202278,-7343531 -202332,-7343558 -202377,-7343583 -202421,-7343600 -202457,-7343611 -202482,-7343621 -202499,-7343625 -202518,-7343628 -202533,-7343629 -202555,-7343628 -202605,-7343623 -202631,-7343618 -202643,-7343614 -202665,-7343604 -202694,-7343589 -202708,-7343582 -202714,-7343578 -202719,-7343592 -202717,-7343608 -202744,-7343618 -202767,-7343631 -202785,-7343635 -202801,-7343635 -202812,-7343635 -202825,-7343639 -202836,-7343648 -202832,-7343673 -202835,-7343678 -202840,-7343688 -202841,-7343692 -202841,-7343697 -202835,-7343710 -202835,-7343716 -202837,-7343722 -202841,-7343726 -202890,-7343804 -202894,-7343815 -202899,-7343822 -202942,-7343885 -202954,-7343909 -202965,-7343923 -202972,-7343935 -203001,-7343998 -203003,-7344010 -203006,-7344020 -203010,-7344028 -203013,-7344033 -203017,-7344035 -203025,-7344037 -203037,-7344037 -203063,-7344035 -203070,-7344036 -203084,-7344040 -203093,-7344045 -203112,-7344066 -203119,-7344076 -203125,-7344087 -203135,-7344111 -203144,-7344147 -203146,-7344159 -203149,-7344169 -203153,-7344178 -203158,-7344184 -203163,-7344189 -203182,-7344202 -203193,-7344206 -203248,-7344236 -203257,-7344243 -203265,-7344251 -203270,-7344259 -203279,-7344278 -203283,-7344286 -203287,-7344291 -203292,-7344297 -203306,-7344307 -203347,-7344331 -203362,-7344343 -203366,-7344348 -203367,-7344351 -203368,-7344360 -203367,-7344370 -203362,-7344391 -203357,-7344399 -203349,-7344407 -203341,-7344423 -203339,-7344429 -203340,-7344434 -203343,-7344438 -203349,-7344444 -203365,-7344451 -203370,-7344455 -203373,-7344456 -203377,-7344457 -203382,-7344457 -203387,-7344455 -203390,-7344451 -203395,-7344442 -203399,-7344438 -203404,-7344437 -203409,-7344438 -203412,-7344439 -203433,-7344453 -203437,-7344454 -203448,-7344455 -203465,-7344453 -203471,-7344454 -203478,-7344455 -203498,-7344461 -203521,-7344474 -203536,-7344484 -203550,-7344498 -203562,-7344507 -203574,-7344513 -203582,-7344516 -203589,-7344517 -203597,-7344515 -203622,-7344506 -203627,-7344505 -203630,-7344505 -203632,-7344506 -203650,-7344527 -203655,-7344531 -203661,-7344533 -203671,-7344535 -203691,-7344534 -203707,-7344539 -203716,-7344544 -203721,-7344545 -203729,-7344543 -203759,-7344535 -203773,-7344533 -203793,-7344546 -203803,-7344549 -203810,-7344548 -203815,-7344546 -203819,-7344544 -203824,-7344537 -203827,-7344536 -203833,-7344533 -203837,-7344533 -203841,-7344533 -203846,-7344536 -203852,-7344540 -203857,-7344546 -203868,-7344565 -203895,-7344572 -203915,-7344569 -203916,-7344573 -203916,-7344583 -203914,-7344588 -203911,-7344595 -203911,-7344600 -203915,-7344604 -203920,-7344608 -203934,-7344613 -203951,-7344623 -203974,-7344634 -203986,-7344635 -203991,-7344633 -203998,-7344634 -204001,-7344636 -204004,-7344639 -204005,-7344642 -204006,-7344648 -204013,-7344662 -204026,-7344667 -204088,-7344705 -204098,-7344711 -204108,-7344715 -204115,-7344716 -204136,-7344716 -204143,-7344717 -204151,-7344720 -204158,-7344724 -204164,-7344733 -204170,-7344749 -204181,-7344763 -204189,-7344787 -204193,-7344794 -204198,-7344802 -204207,-7344807 -204212,-7344808 -204227,-7344810 -204246,-7344824 -204267,-7344831 -204273,-7344831 -204279,-7344829 -204286,-7344825 -204310,-7344804 -204319,-7344797 -204327,-7344794 -204334,-7344793 -204347,-7344796 -204374,-7344807 -204400,-7344813 -204428,-7344824 -204482,-7344859 -204499,-7344874 -204508,-7344879 -204516,-7344882 -204525,-7344883 -204532,-7344883 -204540,-7344880 -204546,-7344874 -204550,-7344873 -204555,-7344873 -204558,-7344876 -204561,-7344879 -204562,-7344883 -204563,-7344888 -204561,-7344897 -204553,-7344913 -204553,-7344917 -204553,-7344922 -204554,-7344927 -204556,-7344930 -204562,-7344934 -204569,-7344933 -204578,-7344931 -204597,-7344928 -204607,-7344921 -204610,-7344917 -204613,-7344916 -204617,-7344916 -204621,-7344917 -204625,-7344921 -204629,-7344924 -204631,-7344928 -204633,-7344936 -204635,-7344939 -204642,-7344945 -204657,-7344950 -204664,-7344952 -204688,-7344960 -204705,-7344964 -204713,-7344969 -204748,-7344999 -204775,-7345016 -204784,-7345020 -204793,-7345024 -204800,-7345026 -204814,-7345026 -204840,-7345035 -204853,-7345037 -204864,-7345033 -204880,-7345027 -204886,-7345026 -204898,-7345026 -204904,-7345026 -204909,-7345027 -204918,-7345032 -204933,-7345042 -204936,-7345043 -204957,-7345045 -204982,-7345046 -204995,-7345049 -205005,-7345056 -205012,-7345064 -205021,-7345068 -205043,-7345066 -205068,-7345058 -205075,-7345058 -205084,-7345059 -205100,-7345065 -205144,-7345091 -205167,-7345107 -205177,-7345111 -205209,-7345123 -205240,-7345137 -205258,-7345151 -205270,-7345159 -205316,-7345187 -205331,-7345198 -205353,-7345217 -205359,-7345221 -205370,-7345227 -205386,-7345232 -205393,-7345234 -205411,-7345233 -205432,-7345242 -205445,-7345244 -205458,-7345250 -205478,-7345265 -205496,-7345264 -205516,-7345273 -205552,-7345282 -205589,-7345290 -205629,-7345295 -205677,-7345289 -205699,-7345271 -205720,-7345262 -205747,-7345264 -205775,-7345279 -205806,-7345289 -205833,-7345301 -205846,-7345318 -205868,-7345337 -205896,-7345350 -205921,-7345367 -205982,-7345426 -206004,-7345514 -206015,-7345545 -206040,-7345558 -206056,-7345568 -206061,-7345582 -206065,-7345605 -206066,-7345605 -206075,-7345618 -206092,-7345621 -206105,-7345626 -206122,-7345650 -206167,-7345736 -206174,-7345736 -206190,-7345750 -206204,-7345775 -206221,-7345802 -206235,-7345823 -206243,-7345854 -206244,-7345881 -206229,-7345873 -206216,-7345863 -206214,-7345858 -206200,-7345833 -206158,-7345861 -206165,-7345877 -206164,-7345895 -206157,-7345903 -206161,-7345914 -206157,-7345949 -206156,-7345955 -206154,-7345956 -206106,-7345968 -206110,-7345987 -206109,-7345987 -206110,-7345990 -206114,-7346013 -206099,-7346046 -206123,-7346056 -206139,-7346060 -206173,-7346068 -206172,-7346069 -206151,-7346113 -206107,-7346185 -206068,-7346241 -206016,-7346314 -206011,-7346318 -206005,-7346311 -205993,-7346338 -205920,-7346422 -205893,-7346431 -205893,-7346446 -205853,-7346473 -205809,-7346507 -205777,-7346536 -205760,-7346559 -205744,-7346589 -205727,-7346621 -205708,-7346648 -205682,-7346681 -205651,-7346743 -205578,-7346881 -205469,-7347093 -205479,-7347115 -205441,-7347218 -205361,-7347421 -205352,-7347436 -205340,-7347448 -205328,-7347501 -205313,-7347498 -205311,-7347510 -205321,-7347516 -205324,-7347529 -205317,-7347583 -205305,-7347630 -205290,-7347674 -205281,-7347703 -205272,-7347719 -205260,-7347713 -205255,-7347731 -205255,-7347736 -205250,-7347747 -205233,-7347766 -205214,-7347794 -205164,-7347828 -205117,-7347869 -205076,-7347894 -205032,-7347911 -205025,-7347896 -205006,-7347903 -205004,-7347913 -204992,-7348004 -204977,-7348128 -204964,-7348223 -204963,-7348226 -204962,-7348230 -204961,-7348233 -204960,-7348233 -204958,-7348236 -204955,-7348239 -204953,-7348240 -204950,-7348242 -204948,-7348243 -204945,-7348244 -204944,-7348245 -204933,-7348248 -204923,-7348252 -204912,-7348254 -204901,-7348257 -204890,-7348258 -204879,-7348259 -204868,-7348259 -204857,-7348259 -204632,-7348299 -204628,-7348288 -204514,-7348309 -204513,-7348319 -204290,-7348355 -204243,-7348373 -204170,-7348383 -204103,-7348389 -204083,-7348389 -203991,-7348382 -203888,-7348371 -203806,-7348360 -203740,-7348348 -203570,-7348345 -203498,-7348334 -203452,-7348319 -203452,-7348327 -203392,-7348329 -203389,-7348336 -203375,-7348336 -203378,-7348373 -203382,-7348410 -203382,-7348428 -203381,-7348440 -203426,-7348456 -203425,-7348463 -203412,-7348515 -203380,-7348604 -203351,-7348673 -203327,-7348746 -203292,-7348840 -203265,-7348938 -203226,-7349001 -203262,-7349025 -203280,-7349038 -203308,-7349065 -203321,-7349081 -203332,-7349105 -203351,-7349175 -203376,-7349302 -203393,-7349365 -203399,-7349390 -203402,-7349413 -203405,-7349439 -203405,-7349460 -203403,-7349478 -203405,-7349536 -203405,-7349550 -203403,-7349563 -203396,-7349603 -203396,-7349612 -203395,-7349618 -203393,-7349624 -203377,-7349644 -203360,-7349660 -203321,-7349685 -203300,-7349709 -203280,-7349724 -203261,-7349742 -203242,-7349767 -203239,-7349776 -203240,-7349783 -203243,-7349795 -203244,-7349799 -203242,-7349804 -203237,-7349812 -203224,-7349836 -203216,-7349861 -203203,-7349896 -203200,-7349919 -203195,-7349931 -203189,-7349943 -203159,-7349996 -203156,-7350004 -203153,-7350009 -203147,-7350013 -203141,-7350015 -203131,-7350015 -203120,-7350039 -203113,-7350062 -203116,-7350084 -203114,-7350108 -203113,-7350116 -203118,-7350127 -203139,-7350166 -203141,-7350174 -203141,-7350180 -203140,-7350214 -203141,-7350225 -203143,-7350233 -203151,-7350251 -203149,-7350277 -203142,-7350291 -203145,-7350303 -203159,-7350339 -203168,-7350380 -203168,-7350394 -203171,-7350403 -203176,-7350411 -203183,-7350419 -203188,-7350424 -203191,-7350424 -203194,-7350424 -203196,-7350422 -203204,-7350411 -203219,-7350429 -203234,-7350454 -203253,-7350480 -203273,-7350480 -203283,-7350481 -203289,-7350484 -203294,-7350487 -203297,-7350490 -203327,-7350539 -203331,-7350543 -203338,-7350547 -203387,-7350554 -203395,-7350558 -203399,-7350563 -203402,-7350569 -203403,-7350575 -203400,-7350599 -203400,-7350608 -203401,-7350612 -203403,-7350616 -203409,-7350619 -203461,-7350631 -203465,-7350633 -203468,-7350636 -203470,-7350641 -203471,-7350645 -203469,-7350657 -203470,-7350665 -203472,-7350672 -203478,-7350683 -203497,-7350701 -203505,-7350719 -203510,-7350726 -203515,-7350730 -203520,-7350733 -203529,-7350735 -203547,-7350743 -203557,-7350755 -203563,-7350765 -203567,-7350770 -203585,-7350784 -203593,-7350800 -203594,-7350809 -203598,-7350820 -203602,-7350826 -203611,-7350835 -203624,-7350853 -203644,-7350874 -203649,-7350884 -203653,-7350895 -203652,-7350922 -203656,-7350935 -203670,-7350940 -203687,-7350942 -203700,-7350947 -203707,-7350950 -203751,-7350996 -203769,-7351009 -203787,-7351019 -203800,-7351041 -203821,-7351055 -203834,-7351069 -203831,-7351096 -203839,-7351122 -203854,-7351153 -203856,-7351160 -203855,-7351166 -203853,-7351172 -203853,-7351172 -203850,-7351177 -203846,-7351181 -203836,-7351187 -203830,-7351188 -203823,-7351189 -203811,-7351187 -203804,-7351188 -203799,-7351191 -203791,-7351196 -203788,-7351201 -203783,-7351210 -203780,-7351236 -203778,-7351242 -203775,-7351248 -203753,-7351282 -203733,-7351329 -203729,-7351336 -203723,-7351343 -203712,-7351351 -203705,-7351353 -203701,-7351356 -203698,-7351359 -203695,-7351364 -203694,-7351369 -203695,-7351375 -203702,-7351386 -203708,-7351392 -203715,-7351398 -203725,-7351403 -203729,-7351437 -203729,-7351442 -203725,-7351465 -203722,-7351476 -203719,-7351482 -203714,-7351488 -203679,-7351509 -203684,-7351536 -203704,-7351541 -203712,-7351547 -203713,-7351551 -203715,-7351556 -203714,-7351561 -203713,-7351566 -203703,-7351581 -203700,-7351592 -203701,-7351601 -203702,-7351606 -203706,-7351610 -203710,-7351614 -203716,-7351617 -203727,-7351619 -203745,-7351628 -203756,-7351628 -203764,-7351630 -203771,-7351636 -203775,-7351642 -203774,-7351662 -203767,-7351661 -203761,-7351662 -203757,-7351666 -203753,-7351670 -203751,-7351675 -203750,-7351680 -203752,-7351685 -203755,-7351690 -203759,-7351693 -203775,-7351698 -203787,-7351698 -203793,-7351699 -203802,-7351705 -203807,-7351713 -203810,-7351720 -203830,-7351731 -203868,-7351777 -203866,-7351795 -203861,-7351803 -203858,-7351809 -203858,-7351815 -203858,-7351820 -203859,-7351824 -203870,-7351849 -203873,-7351858 -203875,-7351864 -203881,-7351872 -203900,-7351888 -203909,-7351900 -203929,-7351936 -203943,-7351964 -203954,-7351976 -203960,-7351986 -203964,-7351996 -203966,-7352003 -203966,-7352008 -203965,-7352014 -203962,-7352021 -203950,-7352036 -203945,-7352043 -203942,-7352050 -203940,-7352057 -203939,-7352063 -203940,-7352070 -203941,-7352075 -203948,-7352087 -203964,-7352104 -203977,-7352115 -203988,-7352128 -203991,-7352134 -203997,-7352148 -204020,-7352190 -204026,-7352197 -204028,-7352201 -204029,-7352209 -204026,-7352217 -204019,-7352223 -204014,-7352229 -204014,-7352235 -204015,-7352241 -204017,-7352246 -204022,-7352251 -204048,-7352292 -204078,-7352329 -204083,-7352343 -204089,-7352366 -204092,-7352372 -204097,-7352378 -204103,-7352384 -204107,-7352387 -204118,-7352391 -204125,-7352396 -204132,-7352401 -204138,-7352410 -204142,-7352419 -204142,-7352421 -204112,-7352428 -204095,-7352452 -204093,-7352459 -204093,-7352463 -204094,-7352468 -204098,-7352474 -204102,-7352477 -204127,-7352487 -204128,-7352517 -204109,-7352522 -204101,-7352526 -204098,-7352530 -204096,-7352535 -204094,-7352544 -204096,-7352550 -204097,-7352580 -204103,-7352602 -204105,-7352631 -204099,-7352672 -204097,-7352692 -204097,-7352712 -204099,-7352726 -204101,-7352737 -204105,-7352747 -204119,-7352778 -204124,-7352793 -204127,-7352803 -204126,-7352806 -204125,-7352810 -204122,-7352815 -204118,-7352818 -204113,-7352820 -204105,-7352820 -204098,-7352819 -204054,-7352807 -204049,-7352805 -204046,-7352806 -204042,-7352809 -204040,-7352811 -204015,-7352879 -203979,-7352954 -203974,-7352961 -203968,-7352967 -203958,-7352975 -203946,-7352982 -203922,-7352992 -203916,-7352995 -203909,-7353000 -203900,-7353009 -203891,-7353021 -203884,-7353032 -203880,-7353041 -203875,-7353056 -203860,-7353089 -203834,-7353097 -203809,-7353082 -203800,-7353081 -203795,-7353082 -203791,-7353085 -203788,-7353089 -203785,-7353097 -203766,-7353123 -203762,-7353128 -203752,-7353136 -203732,-7353145 -203711,-7353151 -203618,-7353161 -203605,-7353172 -203597,-7353192 -203594,-7353203 -203590,-7353209 -203585,-7353213 -203581,-7353215 -203577,-7353216 -203569,-7353217 -203560,-7353217 -203552,-7353217 -203538,-7353212 -203522,-7353200 -203516,-7353197 -203507,-7353195 -203492,-7353194 -203443,-7353202 -203420,-7353190 -203415,-7353186 -203410,-7353184 -203404,-7353183 -203399,-7353184 -203393,-7353187 -203389,-7353190 -203385,-7353197 -203326,-7353256 -203309,-7353251 -203295,-7353215 -203292,-7353212 -203289,-7353209 -203286,-7353208 -203282,-7353208 -203272,-7353210 -203264,-7353215 -203258,-7353222 -203253,-7353234 -203226,-7353264 -203213,-7353271 -203203,-7353273 -203194,-7353273 -203184,-7353272 -203174,-7353268 -203164,-7353263 -203155,-7353256 -203151,-7353251 -203142,-7353226 -203134,-7353189 -203130,-7353182 -203127,-7353178 -203120,-7353172 -203112,-7353167 -203103,-7353164 -203094,-7353164 -203081,-7353168 -203036,-7353199 -203009,-7353212 -202996,-7353218 -202988,-7353222 -202975,-7353232 -202957,-7353250 -202949,-7353261 -202941,-7353272 -202935,-7353283 -202927,-7353299 -202908,-7353348 -202896,-7353390 -202892,-7353419 -202892,-7353436 -202894,-7353448 -202897,-7353459 -202901,-7353468 -202907,-7353477 -202916,-7353487 -202944,-7353529 -202958,-7353548 -202973,-7353566 -202984,-7353573 -202989,-7353578 -202992,-7353584 -202993,-7353590 -202993,-7353598 -202992,-7353605 -202989,-7353612 -202980,-7353624 -202955,-7353642 -202950,-7353647 -202944,-7353659 -202942,-7353669 -202943,-7353673 -202947,-7353682 -202950,-7353685 -202967,-7353696 -202970,-7353699 -202979,-7353706 -202983,-7353711 -202985,-7353716 -202986,-7353723 -202986,-7353728 -202984,-7353736 -202981,-7353767 -202989,-7353793 -203005,-7353828 -203031,-7353870 -203047,-7353907 -203060,-7353972 -203058,-7353980 -203053,-7353986 -203048,-7353991 -203043,-7353994 -203034,-7353997 -203029,-7353998 -203020,-7353995 -202999,-7353984 -202983,-7353979 -202976,-7353978 -202969,-7353978 -202962,-7353980 -202956,-7353982 -202949,-7353986 -202925,-7354017 -202932,-7354031 -202954,-7354043 -202963,-7354050 -202969,-7354057 -202978,-7354072 -203009,-7354079 -203014,-7354090 -203005,-7354102 -202998,-7354107 -202960,-7354128 -202947,-7354139 -202935,-7354151 -202918,-7354182 -202924,-7354193 -202941,-7354204 -202952,-7354216 -202970,-7354237 -202983,-7354264 -203005,-7354303 -203029,-7354304 -203035,-7354300 -203044,-7354298 -203053,-7354299 -203060,-7354304 -203063,-7354308 -203065,-7354312 -203065,-7354316 -203065,-7354320 -203061,-7354328 -203049,-7354340 -203043,-7354350 -203039,-7354360 -203036,-7354370 -203036,-7354378 -203037,-7354387 -203039,-7354395 -203042,-7354402 -203048,-7354410 -203054,-7354416 -203060,-7354418 -203064,-7354418 -203070,-7354415 -203087,-7354392 -203110,-7354391 -203118,-7354406 -203121,-7354416 -203123,-7354427 -203123,-7354457 -203119,-7354473 -203116,-7354481 -203109,-7354491 -203102,-7354500 -203092,-7354509 -203079,-7354520 -203097,-7354551 -203099,-7354557 -203101,-7354564 -203102,-7354572 -203101,-7354579 -203099,-7354587 -203097,-7354592 -203081,-7354593 -203063,-7354592 -203052,-7354592 -203042,-7354595 -203034,-7354599 -203028,-7354603 -202981,-7354649 -202958,-7354687 -202946,-7354722 -202944,-7354748 -202940,-7354763 -202936,-7354775 -202925,-7354794 -202886,-7354844 -202879,-7354867 -202880,-7354897 -202872,-7354989 -202890,-7355021 -202890,-7355043 -202878,-7355052 -202862,-7355045 -202839,-7355041 -202762,-7355043 -202753,-7355047 -202748,-7355050 -202745,-7355055 -202743,-7355060 -202743,-7355063 -202746,-7355070 -202785,-7355103 -202795,-7355122 -202804,-7355141 -202811,-7355160 -202817,-7355179 -202827,-7355217 -202828,-7355222 -202809,-7355281 -202795,-7355315 -202775,-7355320 -202772,-7355308 -202744,-7355288 -202722,-7355278 -202691,-7355303 -202677,-7355314 -202636,-7355339 -202624,-7355341 -202615,-7355341 -202601,-7355338 -202597,-7355337 -202577,-7355323 -202567,-7355317 -202542,-7355314 -202520,-7355317 -202505,-7355341 -202501,-7355344 -202496,-7355345 -202492,-7355344 -202488,-7355342 -202479,-7355333 -202474,-7355331 -202469,-7355330 -202462,-7355333 -202457,-7355339 -202450,-7355355 -202445,-7355363 -202435,-7355375 -202406,-7355392 -202351,-7355436 -202346,-7355442 -202344,-7355446 -202344,-7355454 -202345,-7355464 -202352,-7355483 -202354,-7355490 -202354,-7355498 -202352,-7355506 -202349,-7355513 -202344,-7355520 -202335,-7355528 -202327,-7355562 -202318,-7355570 -202307,-7355563 -202262,-7355512 -202250,-7355504 -202239,-7355500 -202232,-7355500 -202226,-7355501 -202219,-7355503 -202213,-7355506 -202209,-7355510 -202197,-7355526 -202191,-7355531 -202177,-7355541 -202173,-7355542 -202165,-7355542 -202160,-7355540 -202155,-7355537 -202149,-7355524 -202143,-7355518 -202137,-7355514 -202129,-7355512 -202122,-7355511 -202118,-7355512 -202112,-7355514 -202104,-7355519 -202101,-7355522 -202084,-7355583 -202083,-7355584 -202069,-7355606 -202060,-7355617 -202056,-7355624 -202055,-7355629 -202054,-7355641 -202056,-7355648 -202060,-7355656 -202065,-7355661 -202090,-7355682 -202090,-7355698 -202108,-7355718 -202123,-7355746 -202154,-7355798 -202157,-7355809 -202158,-7355814 -202158,-7355817 -202155,-7355824 -202152,-7355829 -202148,-7355833 -202142,-7355837 -202134,-7355840 -202121,-7355843 -202090,-7355849 -202074,-7355876 -202053,-7355889 -202027,-7355909 -202002,-7355916 -201940,-7355910 -201939,-7355911 -201934,-7355925 -201941,-7355958 -201960,-7355985 -201948,-7355999 -201931,-7356001 -201919,-7356014 -201898,-7356059 -201879,-7356093 -201873,-7356110 -201892,-7356133 -201905,-7356174 -201916,-7356204 -201910,-7356232 -201890,-7356248 -201848,-7356258 -201812,-7356256 -201759,-7356248 -201744,-7356287 -201743,-7356305 -201745,-7356318 -201749,-7356336 -201778,-7356421 -201777,-7356443 -201743,-7356470 -201720,-7356485 -201710,-7356496 -201709,-7356507 -201711,-7356523 -201707,-7356528 -201683,-7356557 -201677,-7356576 -201677,-7356579 -201693,-7356602 -201713,-7356623 -201728,-7356633 -201754,-7356632 -201790,-7356629 -201813,-7356624 -201817,-7356624 -201821,-7356625 -201825,-7356626 -201826,-7356626 -201830,-7356628 -201833,-7356629 -201836,-7356632 -201839,-7356634 -201840,-7356635 -201842,-7356638 -201844,-7356641 -201846,-7356644 -201847,-7356647 -201849,-7356651 -201850,-7356656 -201851,-7356660 -201852,-7356665 -201852,-7356671 -201851,-7356676 -201851,-7356680 -201851,-7356682 -201850,-7356688 -201849,-7356694 -201847,-7356700 -201845,-7356706 -201842,-7356710 -201839,-7356714 -201836,-7356717 -201833,-7356719 -201830,-7356721 -201826,-7356723 -201823,-7356724 -201819,-7356724 -201815,-7356724 -201811,-7356725 -201808,-7356726 -201804,-7356728 -201800,-7356730 -201796,-7356733 -201792,-7356736 -201791,-7356737 -201788,-7356741 -201785,-7356745 -201783,-7356749 -201781,-7356753 -201779,-7356755 -201778,-7356760 -201778,-7356764 -201777,-7356769 -201777,-7356773 -201777,-7356778 -201774,-7356792 -201772,-7356799 -201770,-7356804 -201768,-7356808 -201765,-7356812 -201762,-7356815 -201759,-7356818 -201755,-7356821 -201751,-7356824 -201747,-7356827 -201741,-7356830 -201735,-7356834 -201729,-7356836 -201722,-7356840 -201708,-7356847 -201715,-7356853 -201749,-7356872 -201762,-7356880 -201792,-7356909 -201820,-7356937 -201832,-7356949 -201836,-7356968 -201835,-7356995 -201832,-7357036 -201840,-7357059 -201845,-7357072 -201846,-7357098 -201844,-7357132 -201840,-7357145 -201813,-7357169 -201808,-7357179 -201806,-7357181 -201801,-7357191 -201797,-7357200 -201797,-7357201 -201795,-7357208 -201794,-7357213 -201793,-7357219 -201793,-7357225 -201793,-7357225 -201794,-7357231 -201795,-7357237 -201796,-7357242 -201797,-7357247 -201801,-7357272 -201655,-7357321 -201447,-7357391 -201230,-7357481 -201053,-7357545 -200916,-7357598 -200807,-7357666 -200713,-7357729 -200679,-7357753 -200661,-7357765 -200561,-7357794 -200546,-7357797 -200485,-7357812 -200456,-7357826 -200415,-7357855 -200387,-7357878 -200384,-7357881 -200372,-7357885 -200345,-7357907 -200246,-7357991 -200106,-7358129 -200028,-7358231 -199948,-7358313 -199859,-7358388 -199760,-7358470 -199670,-7358554 -199604,-7358616 -199547,-7358657 -199496,-7358692 -199405,-7358728 -199330,-7358746 -199305,-7358751 -199164,-7358779 -199127,-7358792 -199078,-7358811 -198936,-7358831 -198931,-7358832 -198907,-7358839 -198883,-7358846 -198858,-7358851 -198834,-7358856 -198809,-7358860 -198795,-7358861 -198778,-7358863 -198760,-7358864 -198743,-7358865 -198726,-7358865 -198717,-7358864 -198702,-7358863 -198695,-7358862 -198673,-7358859 -198651,-7358854 -198651,-7358854 -198629,-7358849 -198608,-7358843 -198530,-7358783 -198445,-7358694 -198349,-7358633 -198264,-7358588 -198171,-7358536 -198094,-7358494 -198006,-7358445" stroke="#003087" stroke-width="58" /></ns0:svg>    <rect x="20" y="50"  width="250" height="25"  rx="0"  fill="#003087" fill-opacity="0.8" />    <text x="145" y="70" text-anchor="middle" font-family="Frutiger" font-weight="bold" font-size="30" fill="white">Gateshead</text>    <rect x="35" y="195" width="220" height="160" rx="15" fill="#41B6E6"/>    <g font-family="Frutiger" font-size="15" fill="white">        <g> <text x="45" y="218">Self-harm</text> <text x="245" y="218" text-anchor="end">30</text> </g>        <g> <text x="45" y="243">SEN</text> <text x="245" y="243" text-anchor="end">33</text> </g>        <g> <text x="45" y="268">Difficulties</text> <text x="245" y="268" text-anchor="end">78</text> </g>        <g> <text x="45" y="293">Child Carer</text> <text x="245" y="293" text-anchor="end">9</text> </g>        <g> <text x="45" y="318">Drinkers</text> <text x="245" y="318" text-anchor="end">88</text> </g>        <g> <text x="45" y="343">Safeguarding </text> <text x="245" y="343" text-anchor="end">20</text> </g>    </g></svg>