<?xml version="1.0" standalone="no"?>
<!DOCTYPE svg PUBLIC "-//W3C//DTD SVG 1.1//EN"
"http://www.w3.org/Graphics/SVG/1.1/DTD/svg11.dtd">
<svg height="390" version="1.1" width="290" xmlns="http://www.w3.org/2000/svg"><defs><style type="text/css">@font-face {font-family: 'Frutiger';font-style: normal;font-weight: normal;src: local('Frutiger'), url('../fonts/Frutiger.woff') format('woff');}@font-face {font-family: 'Frutiger Bold';font-style: normal;font-weight: normal;src: local('Frutiger Bold'), url('../fonts/Frutiger_bold.woff') format('woff');}        </style>    </defs>    <rect x="20" y="20"  width="250" height="350" rx="15" fill="#005EB8" />    <rect x="35" y="35"  width="220" height="145" rx="15" fill="white" /><ns0:svg xmlns:ns0="http://www.w3.org/2000/svg" height="115" version="1.1" viewBox="-179719 -6884607 21208 18416" width="220" x="35" y="50"><ns0:polygon fill="#003087" points=" -170933,-6883730 -170879,-6883634 -170855,-6883642 -170832,-6883609 -170814,-6883586 -170776,-6883550 -170750,-6883564 -170715,-6883525 -170598,-6883436 -170567,-6883409 -170503,-6883361 -170442,-6883313 -170415,-6883296 -170365,-6883256 -170282,-6883198 -170247,-6883180 -170199,-6883150 -170161,-6883129 -170138,-6883121 -170063,-6883099 -169965,-6883079 -169920,-6883076 -169864,-6883065 -169735,-6883062 -169623,-6883064 -169548,-6883059 -169433,-6883057 -169380,-6883058 -169338,-6883065 -169304,-6883076 -169263,-6883092 -169232,-6883109 -169183,-6883120 -169093,-6883129 -169047,-6883132 -168997,-6883137 -168935,-6883143 -168970,-6883069 -168998,-6883018 -169068,-6882904 -169089,-6882863 -169099,-6882846 -169113,-6882780 -169114,-6882776 -169116,-6882771 -169136,-6882744 -169140,-6882726 -169143,-6882707 -169168,-6882541 -169167,-6882514 -169161,-6882514 -169133,-6882504 -169088,-6882493 -169038,-6882477 -168892,-6882422 -168868,-6882413 -168805,-6882389 -168658,-6882335 -168548,-6882298 -168440,-6882262 -168442,-6882255 -168445,-6882249 -168435,-6882245 -168427,-6882243 -168421,-6882255 -168405,-6882249 -168383,-6882240 -168343,-6882225 -168262,-6882197 -168197,-6882175 -168110,-6882145 -168064,-6882125 -168011,-6882108 -167941,-6882080 -167860,-6882050 -167775,-6882018 -167610,-6881957 -167607,-6881956 -167560,-6881931 -167539,-6881920 -167494,-6881948 -167485,-6881955 -167411,-6881997 -167327,-6882027 -167293,-6882034 -167296,-6882055 -167278,-6882059 -167272,-6882050 -167215,-6882069 -167212,-6882058 -167210,-6882059 -167181,-6882066 -167143,-6882075 -167031,-6882090 -166988,-6882093 -166982,-6882093 -166929,-6882089 -166850,-6882085 -166836,-6882089 -166770,-6882113 -166775,-6882127 -166758,-6882137 -166733,-6882153 -166718,-6882167 -166703,-6882188 -166672,-6882205 -166646,-6882209 -166622,-6882216 -166555,-6882262 -166517,-6882310 -166467,-6882277 -166451,-6882295 -166462,-6882306 -166442,-6882322 -166429,-6882310 -166415,-6882320 -166420,-6882332 -166392,-6882348 -166344,-6882394 -166396,-6882447 -166288,-6882559 -166225,-6882638 -166163,-6882717 -166157,-6882716 -166155,-6882729 -166169,-6882735 -166175,-6882744 -166169,-6882751 -166183,-6882799 -166148,-6882807 -166056,-6882821 -166052,-6882924 -166049,-6882976 -166060,-6882987 -166057,-6883002 -166029,-6883066 -166010,-6883087 -166017,-6883090 -166078,-6883113 -166061,-6883159 -166061,-6883169 -166062,-6883180 -166072,-6883233 -166088,-6883290 -166125,-6883355 -166154,-6883403 -166178,-6883445 -166086,-6883472 -166029,-6883458 -166040,-6883432 -165952,-6883396 -165943,-6883417 -165930,-6883411 -165841,-6883373 -165829,-6883371 -165816,-6883393 -165813,-6883397 -165807,-6883407 -165802,-6883413 -165798,-6883418 -165794,-6883424 -165789,-6883429 -165785,-6883433 -165780,-6883437 -165774,-6883441 -165768,-6883445 -165758,-6883449 -165748,-6883452 -165738,-6883454 -165728,-6883456 -165721,-6883457 -165712,-6883458 -165704,-6883459 -165695,-6883459 -165687,-6883459 -165678,-6883458 -165673,-6883457 -165665,-6883455 -165657,-6883453 -165649,-6883450 -165641,-6883447 -165608,-6883433 -165578,-6883420 -165542,-6883407 -165513,-6883404 -165514,-6883301 -165467,-6883282 -165458,-6883281 -165446,-6883280 -165433,-6883279 -165430,-6883279 -165417,-6883279 -165404,-6883280 -165396,-6883281 -165389,-6883282 -165382,-6883284 -165374,-6883284 -165367,-6883284 -165356,-6883283 -165344,-6883280 -165338,-6883279 -165331,-6883278 -165324,-6883276 -165318,-6883274 -165317,-6883273 -165311,-6883271 -165304,-6883267 -165291,-6883255 -165280,-6883255 -165275,-6883231 -165264,-6883240 -165187,-6883316 -165110,-6883384 -165088,-6883381 -164947,-6883318 -164934,-6883312 -164850,-6883278 -164664,-6883201 -164630,-6883138 -164567,-6883166 -164543,-6883173 -164534,-6883176 -164526,-6883177 -164506,-6883178 -164452,-6883174 -164410,-6883165 -164318,-6883147 -164266,-6883135 -164156,-6883115 -164082,-6883099 -164029,-6883082 -164001,-6883074 -163966,-6883069 -163954,-6883069 -163941,-6883069 -163936,-6883070 -163922,-6883073 -163857,-6883092 -163797,-6883124 -163730,-6883171 -163646,-6883239 -163589,-6883284 -163563,-6883268 -163534,-6883288 -163505,-6883322 -163477,-6883343 -163364,-6883403 -163335,-6883407 -163315,-6883416 -163268,-6883437 -163228,-6883457 -163212,-6883461 -163191,-6883462 -163180,-6883462 -163166,-6883460 -163153,-6883458 -163141,-6883454 -163116,-6883444 -162998,-6883380 -162962,-6883423 -162870,-6883374 -162797,-6883342 -162770,-6883350 -162750,-6883336 -162746,-6883284 -162746,-6883269 -162749,-6883252 -162749,-6883245 -162740,-6883209 -162732,-6883185 -162721,-6883136 -162674,-6882959 -162615,-6882964 -162590,-6882962 -162579,-6882922 -162562,-6882859 -162501,-6882926 -162451,-6882872 -162421,-6882845 -162386,-6882771 -162434,-6882740 -162467,-6882708 -162509,-6882664 -162527,-6882645 -162530,-6882636 -162532,-6882627 -162530,-6882612 -162528,-6882602 -162535,-6882593 -162558,-6882587 -162565,-6882578 -162571,-6882570 -162573,-6882568 -162545,-6882552 -162486,-6882518 -162468,-6882499 -162481,-6882484 -162442,-6882455 -162422,-6882450 -162363,-6882426 -162359,-6882425 -162372,-6882392 -162263,-6882332 -162193,-6882280 -162191,-6882278 -162205,-6882262 -162207,-6882260 -162166,-6882233 -162120,-6882203 -162092,-6882183 -162068,-6882165 -162064,-6882163 -161995,-6882107 -161918,-6882050 -161843,-6881988 -161790,-6881954 -161654,-6881873 -161658,-6881842 -161654,-6881841 -161634,-6881832 -161560,-6881803 -161484,-6881757 -161336,-6881680 -161297,-6881660 -161227,-6881618 -161159,-6881571 -161124,-6881548 -161089,-6881526 -161030,-6881492 -160973,-6881455 -160947,-6881514 -160909,-6881592 -160871,-6881560 -160782,-6881493 -160706,-6881432 -160786,-6881372 -160705,-6881317 -160739,-6881290 -160781,-6881261 -160783,-6881245 -160858,-6881251 -160862,-6881220 -160874,-6881106 -160883,-6881056 -160902,-6880991 -160957,-6880845 -160973,-6880791 -161003,-6880695 -161017,-6880646 -161019,-6880640 -161040,-6880552 -160964,-6880510 -160868,-6880456 -160781,-6880413 -160615,-6880315 -160558,-6880279 -160471,-6880226 -160408,-6880185 -160313,-6880139 -160279,-6880127 -160279,-6880121 -160279,-6880108 -160307,-6880049 -160309,-6880045 -160310,-6880032 -160310,-6880020 -160169,-6879947 -160117,-6879922 -160070,-6879900 -159960,-6879857 -159860,-6879819 -159754,-6879778 -159649,-6879737 -159553,-6879702 -159491,-6879674 -159445,-6879653 -159394,-6879625 -159373,-6879604 -159349,-6879535 -159351,-6879532 -159375,-6879491 -159371,-6879491 -159179,-6879491 -159153,-6879422 -159144,-6879407 -159134,-6879392 -159123,-6879378 -159112,-6879364 -159103,-6879354 -159091,-6879341 -159078,-6879329 -159065,-6879317 -159051,-6879306 -159037,-6879296 -159023,-6879285 -159008,-6879275 -159003,-6879272 -158983,-6879260 -158963,-6879248 -158942,-6879237 -158920,-6879227 -158899,-6879217 -158892,-6879215 -158868,-6879205 -158843,-6879196 -158818,-6879189 -158792,-6879182 -158772,-6879177 -158756,-6879173 -158741,-6879169 -158725,-6879163 -158711,-6879157 -158696,-6879151 -158682,-6879144 -158681,-6879143 -158667,-6879135 -158653,-6879127 -158640,-6879118 -158626,-6879109 -158614,-6879099 -158602,-6879088 -158591,-6879077 -158580,-6879065 -158570,-6879052 -158563,-6879042 -158556,-6879031 -158550,-6879019 -158544,-6879007 -158539,-6878994 -158535,-6878981 -158531,-6878968 -158527,-6878955 -158524,-6878942 -158521,-6878929 -158518,-6878916 -158518,-6878911 -158515,-6878892 -158512,-6878872 -158511,-6878853 -158511,-6878834 -158511,-6878824 -158511,-6878814 -158511,-6878795 -158512,-6878782 -158513,-6878756 -158516,-6878729 -158520,-6878703 -158523,-6878682 -158534,-6878599 -158541,-6878556 -158554,-6878430 -158566,-6878380 -158598,-6878290 -158638,-6878157 -158709,-6877886 -158717,-6877865 -158745,-6877783 -158768,-6877715 -158794,-6877710 -158791,-6877621 -158791,-6877615 -158807,-6877613 -158869,-6877371 -158919,-6877194 -158968,-6877043 -159045,-6876810 -159083,-6876698 -159127,-6876552 -159156,-6876474 -159204,-6876342 -159272,-6876140 -159338,-6875954 -159374,-6875852 -159380,-6875814 -159382,-6875814 -159386,-6875814 -159449,-6875650 -159453,-6875639 -159508,-6875500 -159546,-6875414 -159570,-6875361 -159579,-6875340 -159610,-6875276 -159653,-6875192 -159679,-6875145 -159711,-6875090 -159744,-6875037 -159780,-6874985 -159782,-6874983 -159806,-6874952 -159831,-6874921 -159857,-6874891 -159884,-6874863 -159912,-6874836 -159923,-6874826 -159947,-6874806 -159972,-6874786 -159989,-6874773 -160011,-6874754 -160019,-6874747 -160028,-6874740 -160036,-6874733 -160043,-6874725 -160048,-6874719 -160054,-6874711 -160061,-6874702 -160067,-6874693 -160072,-6874683 -160076,-6874673 -160077,-6874671 -160079,-6874664 -160081,-6874656 -160082,-6874647 -160083,-6874639 -160083,-6874631 -160083,-6874622 -160083,-6874614 -160083,-6874606 -160083,-6874603 -160082,-6874588 -160081,-6874572 -160079,-6874557 -160076,-6874542 -160073,-6874528 -160069,-6874513 -160064,-6874498 -160059,-6874484 -160057,-6874482 -160031,-6874351 -160003,-6874251 -159977,-6874176 -159956,-6874140 -159935,-6874101 -159859,-6873968 -159777,-6873798 -159752,-6873753 -159671,-6873611 -159568,-6873439 -159481,-6873271 -159450,-6873207 -159420,-6873143 -159393,-6873078 -159372,-6873025 -159347,-6872959 -159322,-6872893 -159301,-6872826 -159286,-6872757 -159283,-6872745 -159279,-6872712 -159275,-6872679 -159273,-6872646 -159272,-6872619 -159272,-6872613 -159272,-6872580 -159273,-6872546 -159275,-6872513 -159276,-6872502 -159279,-6872468 -159284,-6872433 -159290,-6872399 -159297,-6872365 -159305,-6872331 -159314,-6872298 -159321,-6872274 -159331,-6872239 -159342,-6872205 -159357,-6872172 -159360,-6872169 -159367,-6872160 -159374,-6872151 -159382,-6872143 -159394,-6872130 -159410,-6872114 -159428,-6872098 -159428,-6872098 -159437,-6872024 -159439,-6872006 -159456,-6871995 -159468,-6871962 -159468,-6871919 -159482,-6871871 -159518,-6871814 -159585,-6871702 -159701,-6871541 -159834,-6871365 -159939,-6871243 -160005,-6871186 -160161,-6871016 -160305,-6870875 -160420,-6870746 -160441,-6870721 -160561,-6870616 -160629,-6870555 -160779,-6870398 -160865,-6870315 -160843,-6870302 -160852,-6870291 -160887,-6870249 -160917,-6870263 -160966,-6870202 -161009,-6870155 -161071,-6870098 -161171,-6870031 -161356,-6869902 -161513,-6869814 -161652,-6869749 -161676,-6869739 -161833,-6869672 -161861,-6869661 -162096,-6869579 -162156,-6869553 -162163,-6869550 -162229,-6869519 -162288,-6869489 -162353,-6869455 -162416,-6869420 -162474,-6869383 -162509,-6869358 -162542,-6869331 -162575,-6869304 -162607,-6869276 -162640,-6869249 -162646,-6869245 -162685,-6869215 -162742,-6869171 -162763,-6869155 -162830,-6869103 -162875,-6869067 -162873,-6869065 -162834,-6868953 -162817,-6868913 -162783,-6868825 -162764,-6868769 -162750,-6868737 -162729,-6868706 -162712,-6868695 -162688,-6868662 -162754,-6868601 -162837,-6868521 -162842,-6868512 -162835,-6868488 -162851,-6868472 -162861,-6868462 -162793,-6868401 -162725,-6868335 -162681,-6868291 -162618,-6868226 -162606,-6868208 -162590,-6868196 -162571,-6868181 -162663,-6868135 -162712,-6868077 -162722,-6868068 -162758,-6868049 -162790,-6868046 -162816,-6868037 -162875,-6868001 -162884,-6867998 -162893,-6867996 -162924,-6867999 -162931,-6867998 -162939,-6867995 -162943,-6867992 -162950,-6867984 -162954,-6867977 -162971,-6867914 -162973,-6867900 -163024,-6867950 -163076,-6867992 -163120,-6868036 -163231,-6868131 -163086,-6868279 -163049,-6868313 -163082,-6868349 -163103,-6868377 -163125,-6868414 -163237,-6868607 -163248,-6868615 -163254,-6868616 -163262,-6868618 -163361,-6868603 -163422,-6868587 -163718,-6868498 -163751,-6868484 -163787,-6868468 -163807,-6868457 -163826,-6868445 -163854,-6868427 -163911,-6868394 -163985,-6868347 -164116,-6868267 -164223,-6868198 -164235,-6868191 -164251,-6868183 -164297,-6868163 -164364,-6868140 -164413,-6868131 -164436,-6868128 -164454,-6868127 -164480,-6868126 -164712,-6868105 -164798,-6868092 -164827,-6868162 -164850,-6868215 -164878,-6868282 -164903,-6868337 -164924,-6868393 -164971,-6868510 -165006,-6868602 -165036,-6868595 -165090,-6868580 -165123,-6868572 -165189,-6868564 -165321,-6868552 -165353,-6868551 -165426,-6868551 -165488,-6868550 -165516,-6868551 -165562,-6868559 -165604,-6868563 -165740,-6868576 -165906,-6868585 -166058,-6868598 -166252,-6868612 -166261,-6868634 -166359,-6868645 -166527,-6868658 -166543,-6868631 -166568,-6868639 -166643,-6868648 -166725,-6868654 -166790,-6868659 -166931,-6868673 -166981,-6868676 -167073,-6868689 -167236,-6868709 -167385,-6868729 -167480,-6868728 -167522,-6868705 -167561,-6868675 -167648,-6868606 -167673,-6868561 -167685,-6868557 -167719,-6868559 -167750,-6868529 -167873,-6868387 -167888,-6868366 -167901,-6868344 -167915,-6868313 -167919,-6868299 -167928,-6868265 -167934,-6868227 -167938,-6868188 -167953,-6868081 -167960,-6868049 -167968,-6868013 -167986,-6867952 -168010,-6867892 -168021,-6867871 -168062,-6867801 -168123,-6867716 -168147,-6867678 -168201,-6867599 -168256,-6867524 -168296,-6867466 -168320,-6867437 -168353,-6867397 -168388,-6867360 -168407,-6867339 -168466,-6867269 -168515,-6867155 -168521,-6867135 -168527,-6867133 -168528,-6867133 -168567,-6867220 -168577,-6867240 -168588,-6867260 -168614,-6867301 -168649,-6867339 -168694,-6867382 -168738,-6867429 -168746,-6867438 -168841,-6867512 -168936,-6867595 -168947,-6867608 -168980,-6867658 -168993,-6867683 -169013,-6867745 -169019,-6867765 -169026,-6867802 -169031,-6867847 -169035,-6867951 -169205,-6867868 -169326,-6868134 -169184,-6868317 -169218,-6868387 -169226,-6868403 -169255,-6868433 -169302,-6868472 -169361,-6868524 -169431,-6868591 -169461,-6868615 -169488,-6868641 -169515,-6868674 -169641,-6868872 -169706,-6868987 -169723,-6869018 -170304,-6868734 -170309,-6868738 -170615,-6868438 -170859,-6868636 -170928,-6868692 -171003,-6868583 -171061,-6868504 -171117,-6868423 -171183,-6868332 -171339,-6868121 -171424,-6867998 -171447,-6867967 -171459,-6867951 -171494,-6867904 -171599,-6867771 -171663,-6867701 -171799,-6867533 -171901,-6867397 -172063,-6867171 -171860,-6866938 -171714,-6866776 -171642,-6866690 -171711,-6866621 -171752,-6866583 -171803,-6866638 -171842,-6866616 -171975,-6866553 -172136,-6866484 -172171,-6866468 -172189,-6866458 -172310,-6866536 -172358,-6866564 -172428,-6866609 -172477,-6866637 -172492,-6866618 -172605,-6866468 -172813,-6866191 -172846,-6866214 -173049,-6866379 -173102,-6866411 -173126,-6866424 -173141,-6866433 -173151,-6866411 -173163,-6866400 -173375,-6866526 -173335,-6866613 -173275,-6866736 -173195,-6866894 -173316,-6866969 -173464,-6867059 -173432,-6867111 -173342,-6867253 -173320,-6867246 -173314,-6867255 -173301,-6867307 -173292,-6867357 -173267,-6867470 -173232,-6867541 -173205,-6867601 -173163,-6867679 -173195,-6867697 -173217,-6867710 -173230,-6867717 -173265,-6867744 -173297,-6867754 -173198,-6867871 -173090,-6867978 -173101,-6867993 -173106,-6868001 -173108,-6868008 -173110,-6868017 -173111,-6868030 -173107,-6868050 -173101,-6868111 -173171,-6868146 -173199,-6868162 -173227,-6868177 -173276,-6868209 -173311,-6868229 -173355,-6868245 -173425,-6868268 -173515,-6868295 -173580,-6868325 -173681,-6868390 -173729,-6868419 -173739,-6868425 -173809,-6868460 -173846,-6868482 -173876,-6868494 -173906,-6868510 -173912,-6868513 -173920,-6868520 -173951,-6868561 -173956,-6868569 -173958,-6868580 -173959,-6868588 -173958,-6868596 -173956,-6868609 -173951,-6868660 -173950,-6868727 -173956,-6868753 -173964,-6868798 -174001,-6868938 -174008,-6868980 -174024,-6869033 -174050,-6869128 -174076,-6869218 -174108,-6869313 -174123,-6869359 -174140,-6869404 -174194,-6869546 -174215,-6869592 -174258,-6869669 -174284,-6869710 -174315,-6869747 -174362,-6869782 -174391,-6869805 -174409,-6869818 -174419,-6869827 -174433,-6869841 -174443,-6869852 -174447,-6869858 -174505,-6869983 -174526,-6869999 -174558,-6869985 -174611,-6869966 -174681,-6869943 -174737,-6869919 -174776,-6869906 -174801,-6869900 -174831,-6869896 -174817,-6869889 -174722,-6869840 -174687,-6869823 -174635,-6869797 -174722,-6869656 -174895,-6869728 -174924,-6869741 -174950,-6869726 -174977,-6869712 -174980,-6869704 -175056,-6869635 -175107,-6869590 -175234,-6869605 -175326,-6869615 -175428,-6869625 -175518,-6869636 -175501,-6869684 -175463,-6869803 -175415,-6869962 -175424,-6869963 -175540,-6869976 -175642,-6869986 -175850,-6870012 -175897,-6870020 -175986,-6870045 -176094,-6870078 -176181,-6870102 -176371,-6870156 -176419,-6870171 -176565,-6870199 -176602,-6870210 -176662,-6870221 -176752,-6870239 -176775,-6870242 -176817,-6870255 -176838,-6870265 -176920,-6870311 -176965,-6870329 -176990,-6870342 -177279,-6870490 -177436,-6870567 -177523,-6870488 -177528,-6870490 -177533,-6870493 -177642,-6870540 -177705,-6870573 -177820,-6870631 -177821,-6870630 -177854,-6870595 -177861,-6870600 -177937,-6870663 -178012,-6870725 -178111,-6870771 -178133,-6870737 -178149,-6870764 -178159,-6870781 -178212,-6870821 -178230,-6870824 -178228,-6870837 -178264,-6870859 -178305,-6870873 -178390,-6870907 -178404,-6870921 -178425,-6870947 -178442,-6870976 -178461,-6871017 -178391,-6871104 -178381,-6871123 -178373,-6871140 -178328,-6871209 -178315,-6871231 -178290,-6871222 -178289,-6871222 -178261,-6871324 -178239,-6871441 -178226,-6871475 -178136,-6871464 -178113,-6871475 -178124,-6871517 -178137,-6871584 -178174,-6871754 -178189,-6871821 -178196,-6871873 -178196,-6871874 -178361,-6871854 -178410,-6872011 -178291,-6872034 -178287,-6872035 -178308,-6872114 -178332,-6872213 -178381,-6872331 -178395,-6872341 -178405,-6872383 -178496,-6872585 -178497,-6872605 -178512,-6872617 -178586,-6872777 -178580,-6872781 -178595,-6872848 -178580,-6872848 -178577,-6872877 -178586,-6872898 -178588,-6872899 -178592,-6872910 -178594,-6872929 -178592,-6872954 -178587,-6873053 -178600,-6873103 -178585,-6873113 -178582,-6873165 -178587,-6873195 -178579,-6873211 -178575,-6873373 -178590,-6873410 -178568,-6873429 -178560,-6873423 -178515,-6873428 -178454,-6873440 -178393,-6873454 -178337,-6873462 -178318,-6873461 -178275,-6873465 -178247,-6873458 -178252,-6873506 -178254,-6873534 -178259,-6873624 -178264,-6873625 -178325,-6873642 -178361,-6873638 -178520,-6873593 -178527,-6873611 -178538,-6873627 -178562,-6873653 -178594,-6873683 -178628,-6873707 -178699,-6873771 -178737,-6873803 -178746,-6873818 -178751,-6873830 -178753,-6873837 -178755,-6873845 -178756,-6873857 -178756,-6873865 -178754,-6873877 -178750,-6873888 -178744,-6873929 -178739,-6873985 -178737,-6874004 -178737,-6874024 -178738,-6874039 -178740,-6874051 -178746,-6874077 -178747,-6874081 -178751,-6874087 -178765,-6874105 -178504,-6874192 -178501,-6874188 -178489,-6874192 -178552,-6874404 -178562,-6874442 -178521,-6874443 -178521,-6874454 -178527,-6874513 -178541,-6874552 -178549,-6874631 -178558,-6874717 -178563,-6874774 -178580,-6874939 -178587,-6875038 -178590,-6875090 -178591,-6875093 -178606,-6875142 -178598,-6875169 -178591,-6875190 -178606,-6875389 -178613,-6875492 -178615,-6875570 -178624,-6875680 -178610,-6875682 -178537,-6875687 -178500,-6875687 -178476,-6875684 -178421,-6875675 -178407,-6875675 -178356,-6875664 -178353,-6875706 -178374,-6875738 -178411,-6875778 -178444,-6875812 -178464,-6875842 -178471,-6875838 -178472,-6875839 -178506,-6875945 -178518,-6875986 -178533,-6876020 -178575,-6876083 -178600,-6876121 -178617,-6876146 -178625,-6876158 -178635,-6876185 -178663,-6876205 -178688,-6876234 -178767,-6876320 -178817,-6876372 -178877,-6876431 -178928,-6876473 -179010,-6876551 -179106,-6876636 -179154,-6876679 -179198,-6876722 -179271,-6876798 -179310,-6876839 -179346,-6876853 -179344,-6876890 -179354,-6876902 -179341,-6876927 -179324,-6876937 -179318,-6876943 -179294,-6876988 -179284,-6877011 -179274,-6877021 -179267,-6877032 -179257,-6877043 -179249,-6877064 -179201,-6877107 -179198,-6877111 -179195,-6877114 -179189,-6877133 -179164,-6877165 -179155,-6877176 -179135,-6877190 -179110,-6877198 -179089,-6877216 -179069,-6877223 -179023,-6877270 -179004,-6877278 -178966,-6877321 -178952,-6877330 -178939,-6877333 -178924,-6877340 -178878,-6877365 -178851,-6877391 -178829,-6877409 -178843,-6877422 -178862,-6877449 -178917,-6877491 -178946,-6877494 -178966,-6877502 -178982,-6877505 -178991,-6877494 -179005,-6877495 -179019,-6877500 -179046,-6877506 -179085,-6877496 -179088,-6877497 -179102,-6877501 -179129,-6877512 -179166,-6877519 -179178,-6877517 -179188,-6877522 -179202,-6877531 -179209,-6877535 -179233,-6877544 -179242,-6877553 -179269,-6877563 -179289,-6877569 -179314,-6877583 -179344,-6877606 -179361,-6877608 -179406,-6877663 -179465,-6877697 -179481,-6877700 -179487,-6877703 -179514,-6877720 -179529,-6877718 -179532,-6877720 -179540,-6877728 -179549,-6877733 -179568,-6877737 -179590,-6877743 -179663,-6877815 -179660,-6877819 -179682,-6877842 -179719,-6877880 -179714,-6877903 -179696,-6877956 -179689,-6877972 -179672,-6878007 -179644,-6878055 -179626,-6878098 -179582,-6878189 -179573,-6878206 -179546,-6878282 -179534,-6878305 -179526,-6878318 -179522,-6878328 -179520,-6878333 -179517,-6878352 -179512,-6878357 -179503,-6878376 -179494,-6878401 -179491,-6878408 -179468,-6878445 -179450,-6878478 -179424,-6878519 -179412,-6878555 -179405,-6878571 -179395,-6878594 -179379,-6878641 -179332,-6878617 -179288,-6878593 -179257,-6878570 -179191,-6878530 -179129,-6878501 -179049,-6878471 -179014,-6878452 -178999,-6878448 -178993,-6878446 -178987,-6878468 -178987,-6878469 -178912,-6878448 -178840,-6878434 -178839,-6878434 -178835,-6878534 -178818,-6878706 -178805,-6878784 -178937,-6878814 -179093,-6878878 -179196,-6878914 -179186,-6878962 -179187,-6878999 -179197,-6879085 -179194,-6879146 -179143,-6879204 -179134,-6879210 -179125,-6879220 -179120,-6879228 -179116,-6879236 -179108,-6879277 -179106,-6879294 -179106,-6879317 -179109,-6879341 -179110,-6879345 -179132,-6879357 -179135,-6879362 -179146,-6879362 -179153,-6879386 -179155,-6879403 -179160,-6879408 -179172,-6879423 -179177,-6879448 -179172,-6879502 -179161,-6879569 -179154,-6879582 -179164,-6879638 -179176,-6879694 -179175,-6879707 -179173,-6879715 -179169,-6879723 -179166,-6879727 -179130,-6879740 -179123,-6879744 -179112,-6879753 -179106,-6879770 -179069,-6879783 -179062,-6879786 -179059,-6879790 -179056,-6879795 -179055,-6879800 -179054,-6879813 -179045,-6879823 -179039,-6879831 -179037,-6879836 -179031,-6879865 -179022,-6879874 -179002,-6879880 -178994,-6879886 -178979,-6879891 -178968,-6879893 -178927,-6879904 -178912,-6879927 -178906,-6879935 -178898,-6879943 -178874,-6879964 -178849,-6879980 -178829,-6880000 -178804,-6880023 -178786,-6880038 -178769,-6880053 -178744,-6880086 -178703,-6880076 -178670,-6880080 -178668,-6880081 -178661,-6880075 -178655,-6880070 -178638,-6880084 -178607,-6880076 -178601,-6880085 -178572,-6880076 -178525,-6880055 -178487,-6880044 -178313,-6880043 -178235,-6880033 -178216,-6880040 -178171,-6880023 -178121,-6880021 -178078,-6879990 -178063,-6879982 -178041,-6879978 -178024,-6879970 -178015,-6879969 -178010,-6879970 -178007,-6879972 -177997,-6879986 -177983,-6879979 -177973,-6879966 -177967,-6879955 -177959,-6879937 -177933,-6879918 -177932,-6879904 -177913,-6879903 -177903,-6879910 -177892,-6879904 -177856,-6879886 -177856,-6879883 -177862,-6879870 -177861,-6879864 -177857,-6879861 -177837,-6879853 -177824,-6879846 -177816,-6879844 -177810,-6879843 -177798,-6879844 -177774,-6879840 -177770,-6879835 -177769,-6879828 -177766,-6879821 -177761,-6879814 -177753,-6879807 -177744,-6879796 -177741,-6879793 -177738,-6879794 -177732,-6879817 -177719,-6879817 -177711,-6879831 -177714,-6879834 -177732,-6879849 -177717,-6879877 -177707,-6879859 -177692,-6879858 -177689,-6879865 -177688,-6879866 -177687,-6879870 -177687,-6879872 -177697,-6879879 -177689,-6879897 -177687,-6879907 -177687,-6879913 -177689,-6879935 -177685,-6879943 -177683,-6879951 -177681,-6879954 -177676,-6879958 -177667,-6879960 -177650,-6880020 -177637,-6880026 -177633,-6880026 -177627,-6880024 -177622,-6880022 -177618,-6880018 -177612,-6880011 -177591,-6880041 -177585,-6880052 -177580,-6880064 -177575,-6880075 -177570,-6880100 -177584,-6880108 -177568,-6880136 -177544,-6880200 -177549,-6880217 -177531,-6880284 -177528,-6880307 -177526,-6880315 -177512,-6880358 -177483,-6880432 -177467,-6880439 -177453,-6880476 -177446,-6880500 -177445,-6880509 -177436,-6880554 -177447,-6880560 -177449,-6880563 -177451,-6880569 -177453,-6880581 -177449,-6880606 -177448,-6880617 -177447,-6880623 -177443,-6880633 -177434,-6880638 -177428,-6880646 -177427,-6880652 -177426,-6880658 -177427,-6880665 -177427,-6880669 -177420,-6880705 -177414,-6880719 -177411,-6880730 -177408,-6880745 -177399,-6880761 -177387,-6880798 -177385,-6880817 -177382,-6880867 -177371,-6880869 -177366,-6880892 -177321,-6880970 -177317,-6880996 -177314,-6881055 -177318,-6881066 -177344,-6881142 -177342,-6881157 -177331,-6881169 -177332,-6881197 -177334,-6881213 -177331,-6881226 -177330,-6881239 -177330,-6881254 -177334,-6881278 -177333,-6881303 -177347,-6881316 -177356,-6881332 -177360,-6881343 -177364,-6881355 -177366,-6881370 -177377,-6881414 -177377,-6881443 -177406,-6881615 -177406,-6881642 -177406,-6881643 -177408,-6881644 -177420,-6881645 -177433,-6881661 -177455,-6881661 -177467,-6881668 -177462,-6881685 -177454,-6881713 -177472,-6881723 -177482,-6881729 -177497,-6881773 -177508,-6881788 -177515,-6881801 -177521,-6881830 -177528,-6881847 -177532,-6881856 -177541,-6881870 -177572,-6881911 -177583,-6881912 -177588,-6881917 -177592,-6881934 -177595,-6882027 -177595,-6882040 -177591,-6882050 -177596,-6882063 -177609,-6882061 -177638,-6882114 -177655,-6882158 -177466,-6882216 -177458,-6882206 -177404,-6882236 -177428,-6882279 -177531,-6882461 -177487,-6882493 -177392,-6882543 -177484,-6882742 -177557,-6882887 -177608,-6882985 -177602,-6882991 -177581,-6882995 -177568,-6882996 -177540,-6882998 -177511,-6882998 -177536,-6883048 -177588,-6883088 -177626,-6883107 -177635,-6883143 -177648,-6883177 -177637,-6883290 -177645,-6883293 -177645,-6883316 -177659,-6883347 -177688,-6883389 -177723,-6883445 -177723,-6883446 -177719,-6883453 -177710,-6883463 -177707,-6883467 -177653,-6883609 -177650,-6883633 -177625,-6883692 -177580,-6883778 -177567,-6883811 -177545,-6883856 -177498,-6883925 -177486,-6883919 -177463,-6883969 -177443,-6883997 -177338,-6884017 -177327,-6884011 -177184,-6883997 -177143,-6883987 -177132,-6883985 -177102,-6883959 -177084,-6883948 -177064,-6883940 -176996,-6883932 -176991,-6884058 -176982,-6884079 -176727,-6883901 -176593,-6883809 -176513,-6883761 -176400,-6883703 -176303,-6883650 -176182,-6883590 -176069,-6883533 -176015,-6883511 -175911,-6883483 -175839,-6883454 -175799,-6883435 -175769,-6883416 -175740,-6883392 -175718,-6883403 -175716,-6883401 -175694,-6883404 -175674,-6883411 -175655,-6883420 -175640,-6883425 -175640,-6883436 -175631,-6883438 -175617,-6883436 -175608,-6883445 -175549,-6883432 -175540,-6883429 -175531,-6883426 -175511,-6883411 -175460,-6883406 -175418,-6883399 -175399,-6883384 -175372,-6883381 -175359,-6883379 -175325,-6883370 -175303,-6883369 -175298,-6883357 -175294,-6883355 -175280,-6883352 -175256,-6883350 -175225,-6883341 -175221,-6883351 -175202,-6883344 -175174,-6883320 -175161,-6883311 -175088,-6883265 -175075,-6883263 -175066,-6883262 -175051,-6883256 -175021,-6883236 -175011,-6883231 -174994,-6883226 -174973,-6883211 -174965,-6883206 -174954,-6883201 -174844,-6883182 -174837,-6883180 -174824,-6883174 -174800,-6883162 -174746,-6883124 -174722,-6883106 -174674,-6883068 -174668,-6883059 -174664,-6883056 -174656,-6883053 -174649,-6883052 -174621,-6883039 -174595,-6883016 -174540,-6883014 -174519,-6883014 -174494,-6883016 -174472,-6883017 -174451,-6883025 -174412,-6883027 -174393,-6883030 -174382,-6883030 -174377,-6883029 -174368,-6883024 -174357,-6883026 -174347,-6883019 -174344,-6883018 -174341,-6883018 -174331,-6883019 -174325,-6883018 -174306,-6883009 -174278,-6882999 -174270,-6882997 -174232,-6882990 -174221,-6882990 -174175,-6882997 -174151,-6883000 -174095,-6883004 -174065,-6883001 -174014,-6882998 -173987,-6882996 -173944,-6882970 -173915,-6882961 -173892,-6882944 -173872,-6882930 -173860,-6882922 -173850,-6882917 -173824,-6882889 -173817,-6882880 -173811,-6882874 -173800,-6882865 -173791,-6882857 -173779,-6882863 -173765,-6882874 -173700,-6882938 -173651,-6882980 -173536,-6883087 -173493,-6883121 -173463,-6883124 -173433,-6883121 -173335,-6883123 -173294,-6883120 -173268,-6883119 -173220,-6883120 -173180,-6883109 -173164,-6883105 -173130,-6883100 -173094,-6883093 -173063,-6883093 -173022,-6883081 -173022,-6883116 -172988,-6883106 -173001,-6883151 -172989,-6883156 -172988,-6883156 -172976,-6883131 -172961,-6883133 -172913,-6883143 -172865,-6883151 -172844,-6883157 -172786,-6883169 -172734,-6883178 -172727,-6883180 -172703,-6883190 -172691,-6883216 -172671,-6883253 -172645,-6883306 -172638,-6883317 -172605,-6883358 -172546,-6883421 -172534,-6883436 -172527,-6883447 -172520,-6883458 -172507,-6883489 -172510,-6883504 -172473,-6883532 -172453,-6883550 -172463,-6883578 -172459,-6883602 -172419,-6883617 -172388,-6883625 -172373,-6883627 -172343,-6883629 -172310,-6883630 -172306,-6883631 -172289,-6883642 -172273,-6883655 -172259,-6883680 -172243,-6883704 -172212,-6883738 -172187,-6883773 -172135,-6883830 -172120,-6883849 -172090,-6883892 -172049,-6883954 -172035,-6883973 -172020,-6883993 -172017,-6883996 -171992,-6884022 -171925,-6884080 -171906,-6884097 -171897,-6884111 -171870,-6884141 -171817,-6884188 -171769,-6884235 -171722,-6884277 -171705,-6884294 -171689,-6884311 -171618,-6884391 -171568,-6884459 -171488,-6884531 -171430,-6884590 -171408,-6884607 -171404,-6884581 -171289,-6884451 -171251,-6884405 -171229,-6884373 -171185,-6884307 -171136,-6884236 -171099,-6884173 -171066,-6884105 -171052,-6884061 -171029,-6883993 -171001,-6883909 -170978,-6883830 -170933,-6883730" stroke="#003087" stroke-width="39" /></ns0:svg>    <rect x="20" y="50"  width="250" height="25"  rx="0"  fill="#003087" fill-opacity="0.8" />    <text x="145" y="70" text-anchor="middle" font-family="Frutiger" font-weight="bold" font-size="30" fill="white">Coventry</text>    <rect x="35" y="195" width="220" height="160" rx="15" fill="#41B6E6"/>    <g font-family="Frutiger" font-size="15" fill="white">        <g> <text x="45" y="218">Self-harm</text> <text x="245" y="218" text-anchor="end">30</text> </g>        <g> <text x="45" y="243">SEN</text> <text x="245" y="243" text-anchor="end">34</text> </g>        <g> <text x="45" y="268">Difficulties</text> <text x="245" y="268" text-anchor="end">72</text> </g>        <g> <text x="45" y="293">Child Carer</text> <text x="245" y="293" text-anchor="end">4</text> </g>        <g> <text x="45" y="318">Drinkers</text> <text x="245" y="318" text-anchor="end">29</text> </g>        <g> <text x="45" y="343">Safeguarding £</text> <text x="245" y="343" text-anchor="end">38</text> </g>    </g></svg>