<?xml version="1.0" standalone="no"?>
<!DOCTYPE svg PUBLIC "-//W3C//DTD SVG 1.1//EN"
"http://www.w3.org/Graphics/SVG/1.1/DTD/svg11.dtd">
<svg height="390" version="1.1" width="290" xmlns="http://www.w3.org/2000/svg"><defs><style type="text/css">@font-face {font-family: 'Frutiger';font-style: normal;font-weight: normal;src: local('Frutiger'), url('../fonts/Frutiger.woff') format('woff');}@font-face {font-family: 'Frutiger Bold';font-style: normal;font-weight: normal;src: local('Frutiger Bold'), url('../fonts/Frutiger_bold.woff') format('woff');}        </style>    </defs>    <rect x="20" y="20"  width="250" height="350" rx="15" fill="#005EB8" />    <rect x="35" y="35"  width="220" height="145" rx="15" fill="white" /><ns0:svg xmlns:ns0="http://www.w3.org/2000/svg" height="115" version="1.1" viewBox="-170933 -7364068 20469 16092" width="220" x="35" y="50"><ns0:polygon fill="#003087" points=" -156038,-7363815 -156050,-7363804 -156066,-7363796 -156077,-7363793 -156090,-7363795 -156105,-7363805 -156107,-7363803 -156130,-7363783 -156166,-7363757 -156192,-7363742 -156227,-7363723 -156257,-7363708 -156298,-7363692 -156494,-7363625 -156490,-7363615 -156492,-7363605 -156497,-7363596 -156648,-7363543 -156730,-7363511 -156868,-7363447 -156910,-7363408 -156955,-7363362 -157088,-7363235 -157143,-7363178 -157148,-7363171 -157155,-7363159 -157216,-7363085 -157205,-7363079 -157195,-7363078 -157189,-7363075 -157173,-7363062 -157163,-7363042 -157156,-7363016 -157156,-7362973 -157146,-7362927 -157141,-7362906 -157134,-7362870 -157131,-7362841 -157136,-7362808 -157134,-7362768 -157133,-7362757 -157126,-7362693 -157109,-7362632 -157102,-7362609 -157076,-7362583 -157058,-7362564 -157047,-7362540 -157047,-7362521 -157038,-7362475 -157042,-7362454 -157053,-7362430 -157054,-7362429 -157051,-7362415 -157033,-7362354 -157016,-7362306 -156974,-7362253 -156947,-7362222 -156930,-7362198 -156924,-7362190 -156919,-7362172 -156911,-7362144 -156895,-7362102 -156884,-7362059 -156846,-7361974 -156839,-7361914 -156829,-7361870 -156821,-7361826 -156804,-7361775 -156763,-7361681 -156688,-7361505 -156637,-7361393 -156617,-7361364 -156563,-7361299 -156389,-7361123 -156349,-7361049 -156317,-7360979 -156289,-7360940 -156260,-7360909 -156226,-7360863 -156208,-7360832 -156203,-7360812 -156191,-7360747 -156181,-7360725 -156173,-7360712 -156164,-7360698 -156144,-7360680 -156131,-7360676 -156116,-7360673 -156094,-7360685 -156085,-7360692 -156075,-7360691 -156075,-7360679 -156081,-7360658 -156072,-7360652 -156046,-7360675 -156040,-7360668 -156016,-7360682 -156013,-7360688 -156023,-7360718 -156006,-7360731 -155970,-7360715 -155955,-7360702 -155938,-7360695 -155929,-7360675 -155935,-7360661 -155902,-7360671 -155902,-7360658 -155883,-7360667 -155873,-7360666 -155867,-7360660 -155861,-7360654 -155863,-7360646 -155865,-7360638 -155883,-7360620 -155877,-7360610 -155887,-7360581 -155888,-7360555 -155889,-7360547 -155891,-7360539 -155904,-7360518 -155890,-7360488 -155865,-7360452 -155854,-7360437 -155843,-7360423 -155819,-7360407 -155828,-7360364 -155826,-7360361 -155810,-7360338 -155782,-7360313 -155739,-7360298 -155648,-7360281 -155626,-7360282 -155621,-7360281 -155615,-7360276 -155612,-7360269 -155609,-7360251 -155604,-7360240 -155599,-7360235 -155594,-7360230 -155588,-7360226 -155579,-7360223 -155567,-7360221 -155535,-7360222 -155519,-7360227 -155506,-7360233 -155499,-7360233 -155491,-7360229 -155487,-7360225 -155476,-7360218 -155473,-7360216 -155443,-7360198 -155417,-7360179 -155381,-7360165 -155346,-7360157 -155312,-7360148 -155267,-7360150 -155239,-7360149 -155224,-7360147 -155197,-7360133 -155196,-7360133 -155183,-7360132 -155171,-7360139 -155151,-7360108 -155158,-7360082 -155160,-7360047 -155167,-7360028 -155182,-7359955 -155184,-7359939 -155187,-7359909 -155184,-7359886 -155168,-7359866 -155147,-7359849 -155138,-7359838 -155130,-7359827 -155118,-7359800 -155115,-7359781 -155123,-7359759 -155119,-7359733 -155118,-7359720 -155126,-7359668 -155133,-7359648 -155127,-7359629 -155106,-7359596 -155100,-7359590 -155094,-7359587 -155086,-7359585 -155037,-7359579 -155020,-7359576 -154985,-7359568 -154946,-7359571 -154895,-7359586 -154860,-7359593 -154832,-7359593 -154823,-7359615 -154808,-7359633 -154797,-7359652 -154774,-7359669 -154720,-7359689 -154698,-7359690 -154647,-7359709 -154616,-7359724 -154570,-7359744 -154549,-7359751 -154532,-7359752 -154511,-7359744 -154513,-7359728 -154501,-7359710 -154514,-7359689 -154518,-7359667 -154505,-7359641 -154469,-7359619 -154458,-7359611 -154447,-7359602 -154424,-7359579 -154412,-7359597 -154408,-7359602 -154380,-7359581 -154370,-7359583 -154364,-7359595 -154374,-7359612 -154371,-7359623 -154338,-7359605 -154344,-7359586 -154344,-7359575 -154354,-7359565 -154372,-7359557 -154353,-7359542 -154324,-7359529 -154310,-7359518 -154291,-7359541 -154272,-7359542 -154248,-7359532 -154258,-7359518 -154266,-7359516 -154277,-7359503 -154273,-7359496 -154262,-7359479 -154247,-7359464 -154239,-7359472 -154210,-7359504 -154205,-7359501 -154184,-7359481 -154160,-7359470 -154159,-7359463 -154177,-7359440 -154175,-7359431 -154188,-7359410 -154196,-7359406 -154207,-7359398 -154202,-7359383 -154209,-7359369 -154205,-7359362 -154167,-7359383 -154154,-7359378 -154159,-7359364 -154160,-7359354 -154168,-7359334 -154180,-7359314 -154184,-7359289 -154189,-7359277 -154194,-7359260 -154201,-7359239 -154178,-7359223 -154162,-7359235 -154148,-7359243 -154141,-7359223 -154115,-7359222 -154100,-7359257 -154086,-7359263 -154075,-7359261 -154073,-7359247 -154066,-7359237 -154049,-7359239 -154040,-7359246 -154040,-7359265 -154030,-7359278 -154034,-7359301 -154015,-7359293 -153970,-7359289 -153947,-7359296 -153929,-7359300 -153913,-7359325 -153903,-7359317 -153901,-7359293 -153893,-7359287 -153890,-7359264 -153880,-7359263 -153870,-7359282 -153857,-7359288 -153847,-7359308 -153829,-7359325 -153818,-7359333 -153815,-7359319 -153806,-7359309 -153801,-7359318 -153791,-7359317 -153782,-7359304 -153787,-7359281 -153784,-7359271 -153789,-7359248 -153780,-7359233 -153779,-7359218 -153766,-7359209 -153745,-7359189 -153747,-7359173 -153745,-7359168 -153741,-7359164 -153726,-7359157 -153705,-7359153 -153692,-7359130 -153682,-7359122 -153665,-7359128 -153652,-7359124 -153686,-7359087 -153662,-7359048 -153654,-7359048 -153637,-7359020 -153617,-7359002 -153588,-7359018 -153579,-7358995 -153559,-7358974 -153547,-7358975 -153540,-7358972 -153519,-7358958 -153534,-7358950 -153570,-7358945 -153581,-7358925 -153574,-7358923 -153557,-7358923 -153548,-7358903 -153541,-7358884 -153527,-7358866 -153512,-7358866 -153481,-7358843 -153473,-7358836 -153467,-7358828 -153461,-7358819 -153459,-7358797 -153454,-7358778 -153460,-7358757 -153460,-7358738 -153437,-7358734 -153432,-7358725 -153410,-7358719 -153409,-7358701 -153436,-7358682 -153461,-7358672 -153468,-7358657 -153412,-7358637 -153410,-7358620 -153400,-7358608 -153373,-7358611 -153370,-7358609 -153367,-7358607 -153368,-7358590 -153385,-7358559 -153395,-7358547 -153417,-7358545 -153439,-7358543 -153450,-7358558 -153470,-7358563 -153478,-7358559 -153489,-7358560 -153502,-7358552 -153520,-7358554 -153526,-7358567 -153535,-7358572 -153541,-7358592 -153547,-7358593 -153554,-7358593 -153603,-7358585 -153618,-7358575 -153639,-7358574 -153672,-7358576 -153691,-7358564 -153715,-7358494 -153696,-7358467 -153690,-7358465 -153677,-7358449 -153679,-7358426 -153656,-7358419 -153639,-7358394 -153609,-7358388 -153604,-7358372 -153614,-7358362 -153634,-7358351 -153640,-7358343 -153645,-7358335 -153642,-7358319 -153655,-7358279 -153660,-7358269 -153668,-7358266 -153667,-7358247 -153664,-7358237 -153659,-7358220 -153635,-7358183 -153627,-7358168 -153617,-7358151 -153604,-7358126 -153562,-7358074 -153546,-7358058 -153530,-7358045 -153524,-7358038 -153507,-7358008 -153494,-7357987 -153490,-7357976 -153480,-7357962 -153468,-7357953 -153461,-7357948 -153444,-7357941 -153436,-7357939 -153402,-7357934 -153390,-7357928 -153384,-7357922 -153379,-7357916 -153365,-7357892 -153360,-7357879 -153351,-7357848 -153345,-7357817 -153342,-7357806 -153336,-7357787 -153321,-7357749 -153276,-7357656 -153270,-7357646 -153262,-7357635 -153253,-7357625 -153241,-7357616 -153194,-7357583 -153179,-7357561 -153161,-7357537 -153151,-7357526 -153129,-7357504 -153112,-7357500 -153089,-7357519 -153068,-7357530 -153045,-7357511 -153003,-7357480 -153003,-7357453 -152994,-7357418 -152943,-7357348 -152910,-7357308 -152880,-7357279 -152852,-7357258 -152824,-7357234 -152804,-7357208 -152774,-7357196 -152743,-7357178 -152719,-7357156 -152690,-7357137 -152661,-7357124 -152652,-7357127 -152643,-7357131 -152607,-7357153 -152580,-7357188 -152553,-7357207 -152530,-7357208 -152503,-7357217 -152491,-7357208 -152480,-7357195 -152489,-7357184 -152515,-7357161 -152535,-7357146 -152512,-7357137 -152495,-7357128 -152500,-7357109 -152526,-7357091 -152551,-7357071 -152573,-7357057 -152580,-7357037 -152577,-7357014 -152568,-7357011 -152543,-7357024 -152525,-7357030 -152542,-7356981 -152535,-7356970 -152508,-7356952 -152501,-7356946 -152481,-7356919 -152473,-7356909 -152441,-7356921 -152374,-7356916 -152342,-7356900 -152307,-7356889 -152282,-7356860 -152255,-7356850 -152237,-7356836 -152240,-7356862 -152242,-7356871 -152225,-7356862 -152171,-7356826 -152162,-7356816 -152162,-7356733 -152164,-7356679 -152162,-7356678 -152147,-7356670 -152107,-7356682 -152029,-7356710 -152025,-7356709 -151992,-7356700 -151960,-7356686 -151934,-7356678 -151916,-7356657 -151905,-7356634 -151892,-7356630 -151889,-7356648 -151893,-7356670 -151873,-7356657 -151856,-7356603 -151842,-7356581 -151849,-7356560 -151854,-7356528 -151838,-7356508 -151817,-7356494 -151800,-7356479 -151775,-7356481 -151738,-7356480 -151712,-7356473 -151699,-7356482 -151698,-7356509 -151677,-7356513 -151660,-7356505 -151643,-7356492 -151632,-7356513 -151621,-7356500 -151616,-7356475 -151611,-7356476 -151606,-7356478 -151610,-7356533 -151591,-7356532 -151589,-7356531 -151580,-7356519 -151565,-7356490 -151543,-7356443 -151537,-7356423 -151514,-7356417 -151505,-7356407 -151480,-7356370 -151442,-7356380 -151412,-7356391 -151384,-7356395 -151370,-7356403 -151348,-7356386 -151331,-7356369 -151355,-7356350 -151361,-7356323 -151379,-7356279 -151411,-7356254 -151438,-7356215 -151469,-7356147 -151466,-7356131 -151423,-7356121 -151433,-7356107 -151451,-7356098 -151466,-7356083 -151472,-7356069 -151467,-7356053 -151484,-7356041 -151483,-7356022 -151463,-7356024 -151451,-7356045 -151432,-7356053 -151413,-7356024 -151401,-7356013 -151374,-7356013 -151363,-7356003 -151356,-7355900 -151319,-7355861 -151307,-7355817 -151297,-7355792 -151300,-7355781 -151328,-7355782 -151357,-7355730 -151364,-7355701 -151366,-7355694 -151380,-7355694 -151375,-7355672 -151362,-7355647 -151337,-7355662 -151305,-7355641 -151287,-7355652 -151264,-7355623 -151245,-7355610 -151194,-7355619 -151185,-7355608 -151184,-7355607 -151204,-7355585 -151204,-7355562 -151190,-7355561 -151176,-7355587 -151162,-7355578 -151159,-7355539 -151172,-7355511 -151174,-7355487 -151163,-7355460 -151137,-7355434 -151117,-7355408 -151116,-7355408 -151100,-7355429 -151085,-7355407 -151073,-7355392 -151071,-7355368 -151083,-7355359 -151070,-7355346 -151039,-7355336 -151004,-7355345 -151003,-7355343 -150998,-7355328 -151024,-7355317 -151045,-7355298 -151054,-7355277 -151054,-7355258 -151034,-7355242 -151010,-7355244 -150996,-7355255 -150984,-7355267 -150971,-7355243 -150971,-7355218 -150966,-7355198 -150957,-7355189 -150934,-7355202 -150932,-7355166 -150933,-7355135 -150932,-7355121 -150930,-7355108 -150924,-7355086 -150911,-7355092 -150897,-7355110 -150880,-7355104 -150876,-7355080 -150895,-7355074 -150916,-7355062 -150910,-7355040 -150895,-7355010 -150876,-7354961 -150860,-7354936 -150844,-7354949 -150820,-7354949 -150811,-7354942 -150775,-7354909 -150764,-7354889 -150770,-7354862 -150780,-7354783 -150779,-7354739 -150778,-7354717 -150776,-7354695 -150768,-7354641 -150750,-7354604 -150735,-7354596 -150710,-7354601 -150689,-7354581 -150698,-7354569 -150722,-7354558 -150724,-7354534 -150710,-7354515 -150701,-7354489 -150702,-7354487 -150710,-7354476 -150721,-7354498 -150745,-7354503 -150753,-7354473 -150771,-7354453 -150770,-7354444 -150769,-7354443 -150738,-7354459 -150717,-7354449 -150699,-7354427 -150689,-7354402 -150685,-7354362 -150683,-7354301 -150686,-7354273 -150672,-7354244 -150648,-7354181 -150653,-7354154 -150673,-7354151 -150666,-7354131 -150648,-7354128 -150643,-7354090 -150648,-7354062 -150665,-7354043 -150670,-7354016 -150662,-7353989 -150649,-7354006 -150638,-7354032 -150626,-7354026 -150628,-7353989 -150676,-7353924 -150682,-7353914 -150688,-7353903 -150692,-7353883 -150684,-7353860 -150674,-7353846 -150626,-7353845 -150611,-7353846 -150577,-7353852 -150548,-7353855 -150545,-7353844 -150580,-7353830 -150600,-7353824 -150592,-7353811 -150590,-7353809 -150539,-7353806 -150487,-7353793 -150509,-7353768 -150505,-7353751 -150472,-7353722 -150475,-7353694 -150487,-7353664 -150486,-7353613 -150494,-7353578 -150503,-7353554 -150534,-7353562 -150551,-7353516 -150582,-7353476 -150600,-7353447 -150606,-7353421 -150573,-7353440 -150562,-7353441 -150573,-7353400 -150549,-7353379 -150533,-7353339 -150523,-7353304 -150525,-7353272 -150521,-7353238 -150514,-7353227 -150479,-7353218 -150464,-7353207 -150481,-7353181 -150513,-7353190 -150535,-7353159 -150564,-7353120 -150585,-7353088 -150597,-7353062 -150595,-7353041 -150631,-7353041 -150651,-7353026 -150665,-7353003 -150653,-7352977 -150638,-7352955 -150644,-7352932 -150632,-7352886 -150612,-7352864 -150603,-7352841 -150595,-7352834 -150587,-7352827 -150562,-7352835 -150554,-7352817 -150566,-7352800 -150579,-7352790 -150569,-7352771 -150572,-7352754 -150595,-7352749 -150608,-7352669 -150619,-7352659 -150664,-7352614 -150672,-7352608 -150681,-7352602 -150704,-7352600 -150710,-7352571 -150681,-7352574 -150692,-7352556 -150708,-7352543 -150700,-7352520 -150685,-7352520 -150670,-7352520 -150648,-7352544 -150633,-7352561 -150608,-7352556 -150588,-7352564 -150569,-7352582 -150539,-7352567 -150539,-7352565 -150542,-7352542 -150571,-7352478 -150610,-7352434 -150610,-7352396 -150614,-7352364 -150614,-7352361 -150633,-7352329 -150623,-7352295 -150620,-7352249 -150638,-7352211 -150663,-7352172 -150673,-7352132 -150669,-7352088 -150655,-7352039 -150642,-7352024 -150634,-7352017 -150615,-7352017 -150614,-7351999 -150663,-7351944 -150690,-7351879 -150742,-7351786 -150753,-7351764 -150763,-7351742 -150767,-7351717 -150783,-7351633 -150796,-7351525 -150800,-7351486 -150788,-7351417 -150783,-7351339 -150776,-7351318 -150817,-7351322 -150851,-7351333 -150866,-7351382 -150880,-7351411 -150895,-7351456 -150932,-7351478 -150947,-7351483 -150933,-7351505 -150926,-7351542 -150917,-7351555 -150907,-7351568 -150873,-7351584 -150871,-7351588 -150858,-7351617 -150839,-7351696 -150834,-7351725 -150841,-7351757 -150861,-7351794 -150925,-7351881 -150959,-7351846 -150927,-7351812 -150891,-7351779 -150885,-7351757 -150901,-7351735 -150900,-7351709 -150893,-7351700 -150873,-7351735 -150857,-7351713 -150867,-7351695 -150877,-7351679 -150903,-7351669 -150935,-7351654 -150941,-7351640 -150969,-7351648 -150991,-7351642 -151002,-7351628 -151001,-7351592 -151003,-7351590 -151019,-7351583 -151052,-7351588 -151066,-7351596 -151072,-7351587 -151078,-7351577 -151071,-7351545 -151040,-7351514 -151009,-7351509 -151008,-7351507 -151004,-7351488 -151006,-7351476 -151009,-7351463 -151019,-7351455 -151029,-7351447 -151043,-7351446 -151059,-7351446 -151101,-7351451 -151135,-7351449 -151166,-7351433 -151179,-7351415 -151160,-7351406 -151123,-7351405 -151100,-7351394 -151123,-7351378 -151150,-7351366 -151161,-7351337 -151157,-7351287 -151151,-7351240 -151139,-7351232 -151126,-7351224 -151093,-7351224 -151085,-7351215 -151094,-7351191 -151083,-7351142 -151084,-7351134 -151100,-7351121 -151139,-7351095 -151160,-7351065 -151180,-7351048 -151184,-7351022 -151202,-7350992 -151214,-7350966 -151214,-7350947 -151253,-7350964 -151262,-7350980 -151299,-7350985 -151321,-7350991 -151321,-7351007 -151293,-7351029 -151278,-7351048 -151292,-7351061 -151327,-7351050 -151347,-7351029 -151390,-7351013 -151414,-7350992 -151434,-7350970 -151428,-7350939 -151420,-7350921 -151412,-7350903 -151389,-7350873 -151361,-7350873 -151345,-7350859 -151348,-7350848 -151370,-7350844 -151364,-7350832 -151363,-7350830 -151331,-7350823 -151305,-7350813 -151342,-7350748 -151373,-7350771 -151403,-7350804 -151460,-7350914 -151471,-7350938 -151488,-7350988 -151494,-7351004 -151501,-7351019 -151512,-7351040 -151534,-7351053 -151573,-7351062 -151607,-7351075 -151626,-7351099 -151647,-7351112 -151675,-7351086 -151711,-7351055 -151731,-7351025 -151836,-7351028 -151895,-7351026 -151935,-7351028 -151966,-7351025 -151991,-7351032 -152030,-7351040 -152040,-7350990 -152063,-7350903 -152070,-7350874 -152077,-7350825 -152079,-7350785 -152260,-7350814 -152423,-7350837 -152615,-7350859 -152704,-7350877 -152787,-7350884 -152890,-7350902 -152939,-7350901 -152991,-7350915 -153012,-7350776 -153027,-7350628 -153035,-7350563 -153043,-7350499 -153062,-7350384 -153086,-7350177 -153098,-7350089 -153120,-7349854 -153140,-7349631 -153162,-7349662 -153165,-7349665 -153168,-7349667 -153172,-7349670 -153173,-7349670 -153177,-7349672 -153180,-7349674 -153184,-7349675 -153186,-7349675 -153191,-7349677 -153197,-7349677 -153203,-7349678 -153207,-7349678 -153214,-7349678 -153221,-7349677 -153228,-7349676 -153228,-7349676 -153233,-7349677 -153237,-7349679 -153239,-7349680 -153242,-7349682 -153245,-7349684 -153247,-7349686 -153249,-7349687 -153255,-7349694 -153261,-7349701 -153267,-7349706 -153272,-7349709 -153276,-7349711 -153281,-7349713 -153282,-7349713 -153286,-7349713 -153289,-7349713 -153293,-7349713 -153294,-7349713 -153311,-7349711 -153344,-7349701 -153372,-7349695 -153402,-7349685 -153421,-7349673 -153434,-7349661 -153450,-7349657 -153461,-7349654 -153489,-7349639 -153507,-7349652 -153522,-7349665 -153532,-7349681 -153541,-7349704 -153554,-7349722 -153575,-7349742 -153599,-7349760 -153627,-7349788 -153643,-7349793 -153672,-7349807 -153684,-7349815 -153691,-7349827 -153696,-7349844 -153718,-7349867 -153741,-7349881 -153769,-7349878 -153816,-7349893 -153844,-7349916 -153914,-7349916 -153928,-7349921 -153948,-7349941 -153978,-7349944 -154011,-7349959 -154037,-7349975 -154076,-7349976 -154098,-7349986 -154117,-7349987 -154125,-7349974 -154138,-7349973 -154146,-7349965 -154161,-7349964 -154194,-7349949 -154217,-7349949 -154255,-7349914 -154320,-7349896 -154328,-7349886 -154356,-7349884 -154399,-7349864 -154424,-7349859 -154459,-7349853 -154501,-7349848 -154543,-7349847 -154584,-7349852 -154659,-7349872 -154696,-7349889 -154734,-7349901 -154788,-7349917 -154830,-7349944 -154866,-7349976 -154919,-7350019 -154941,-7350071 -154956,-7350125 -154958,-7350131 -154976,-7350133 -154978,-7350134 -155011,-7350137 -155036,-7350148 -155065,-7350156 -155094,-7350160 -155111,-7350160 -155121,-7350159 -155152,-7350163 -155166,-7350154 -155190,-7350138 -155217,-7350137 -155246,-7350152 -155271,-7350163 -155326,-7350185 -155419,-7350179 -155446,-7350174 -155490,-7350179 -155528,-7350179 -155592,-7350156 -155636,-7350148 -155670,-7350130 -155700,-7350114 -155747,-7350087 -155750,-7350085 -155753,-7350086 -155769,-7350094 -155811,-7350091 -155845,-7350080 -155919,-7350043 -155959,-7350031 -155990,-7350027 -156042,-7350003 -156093,-7349989 -156144,-7349970 -156228,-7349924 -156301,-7349895 -156351,-7349855 -156371,-7349822 -156380,-7349814 -156457,-7349751 -156486,-7349731 -156535,-7349719 -156556,-7349706 -156605,-7349649 -156690,-7349621 -156703,-7349608 -156704,-7349607 -156718,-7349602 -156740,-7349595 -156755,-7349598 -156864,-7349564 -156916,-7349552 -156967,-7349551 -156994,-7349540 -157070,-7349500 -157145,-7349466 -157235,-7349417 -157279,-7349389 -157329,-7349354 -157559,-7349207 -157726,-7349062 -157752,-7349030 -157767,-7349017 -157824,-7348927 -157871,-7348863 -157907,-7348812 -157913,-7348774 -157941,-7348699 -157963,-7348636 -157967,-7348591 -157978,-7348540 -157993,-7348388 -157999,-7348357 -158003,-7348277 -158085,-7348276 -158115,-7348279 -158280,-7348306 -158358,-7348319 -158463,-7348340 -158498,-7348351 -158547,-7348365 -158673,-7348371 -158721,-7348376 -158740,-7348381 -158748,-7348398 -158755,-7348444 -158782,-7348526 -158887,-7348486 -159024,-7348413 -159044,-7348401 -159079,-7348381 -159134,-7348353 -159182,-7348324 -159211,-7348309 -159258,-7348290 -159390,-7348257 -159416,-7348374 -159431,-7348478 -159442,-7348546 -159466,-7348668 -159490,-7348809 -159496,-7348841 -159564,-7348835 -159629,-7348835 -159783,-7348840 -159831,-7348838 -159924,-7348840 -159998,-7348839 -160062,-7348835 -160147,-7348827 -160233,-7348828 -160249,-7348830 -160266,-7348836 -160365,-7348844 -160478,-7348854 -160517,-7348868 -160527,-7348883 -160533,-7348948 -160556,-7348961 -160579,-7348982 -160626,-7348979 -160703,-7348980 -160809,-7348978 -160861,-7348973 -160922,-7348969 -160950,-7348968 -160978,-7348968 -161015,-7348970 -161087,-7348968 -161180,-7348972 -161187,-7348991 -161191,-7349003 -161199,-7349017 -161212,-7349027 -161220,-7349031 -161242,-7349043 -161272,-7349064 -161302,-7349079 -161312,-7349084 -161346,-7349078 -161414,-7349060 -161422,-7349059 -161484,-7349045 -161605,-7349037 -161700,-7349014 -161807,-7348992 -161821,-7348989 -161871,-7348973 -161882,-7348970 -161941,-7348963 -162005,-7348942 -162029,-7348925 -162050,-7348917 -162071,-7348910 -162112,-7348900 -162148,-7348880 -162231,-7348814 -162235,-7348812 -162277,-7348792 -162307,-7348779 -162386,-7348752 -162523,-7348713 -162573,-7348698 -162625,-7348677 -162628,-7348675 -162620,-7348630 -162619,-7348628 -162603,-7348561 -162602,-7348421 -162590,-7348329 -162765,-7348343 -162966,-7348330 -163141,-7348332 -163180,-7348324 -163244,-7348319 -163329,-7348308 -163587,-7348290 -163663,-7348286 -163743,-7348275 -163803,-7348270 -163858,-7348260 -163983,-7348262 -164063,-7348257 -164131,-7348256 -164193,-7348253 -164219,-7348252 -164289,-7348251 -164394,-7348246 -164446,-7348247 -164602,-7348265 -164712,-7348270 -164756,-7348261 -164763,-7348268 -164783,-7348254 -164806,-7348249 -164808,-7348256 -164827,-7348251 -164876,-7348252 -164913,-7348225 -164914,-7348209 -164922,-7348195 -164933,-7348184 -164951,-7348178 -164964,-7348167 -164966,-7348123 -164971,-7348064 -164996,-7348040 -165038,-7348015 -165055,-7348000 -165065,-7347990 -165099,-7347981 -165128,-7347981 -165152,-7347976 -165175,-7347994 -165194,-7347999 -165208,-7348014 -165222,-7348013 -165238,-7347998 -165257,-7347998 -165269,-7348012 -165285,-7348020 -165335,-7348011 -165346,-7348016 -165349,-7348027 -165338,-7348049 -165339,-7348051 -165341,-7348065 -165361,-7348086 -165380,-7348116 -165429,-7348165 -165460,-7348184 -165489,-7348220 -165525,-7348253 -165611,-7348330 -165643,-7348358 -165674,-7348391 -165718,-7348410 -165744,-7348409 -165945,-7348352 -166038,-7348330 -166063,-7348315 -166085,-7348315 -166098,-7348327 -166119,-7348323 -166138,-7348321 -166211,-7348347 -166221,-7348360 -166221,-7348376 -166231,-7348385 -166266,-7348382 -166313,-7348390 -166328,-7348414 -166375,-7348443 -166403,-7348442 -166494,-7348457 -166535,-7348474 -166564,-7348494 -166571,-7348497 -166605,-7348490 -166650,-7348463 -166697,-7348447 -166753,-7348448 -166770,-7348454 -166796,-7348455 -166819,-7348448 -166840,-7348447 -166870,-7348436 -166921,-7348441 -166971,-7348418 -166997,-7348394 -167008,-7348393 -167035,-7348404 -167070,-7348410 -167102,-7348419 -167126,-7348420 -167201,-7348444 -167227,-7348443 -167318,-7348460 -167374,-7348456 -167442,-7348463 -167492,-7348472 -167533,-7348474 -167570,-7348471 -167599,-7348454 -167615,-7348445 -167669,-7348417 -167754,-7348382 -167792,-7348371 -167853,-7348371 -167889,-7348366 -167919,-7348372 -167961,-7348375 -167979,-7348380 -168032,-7348386 -168093,-7348386 -168117,-7348419 -168149,-7348441 -168165,-7348447 -168176,-7348456 -168188,-7348485 -168194,-7348552 -168200,-7348561 -168223,-7348597 -168227,-7348615 -168188,-7348648 -168158,-7348677 -168133,-7348699 -168214,-7349008 -168214,-7349009 -168213,-7349021 -168262,-7349209 -168301,-7349387 -168355,-7349614 -168416,-7349845 -168476,-7350080 -168532,-7350289 -168540,-7350318 -168559,-7350392 -168610,-7350598 -168620,-7350637 -168651,-7350755 -168657,-7350778 -168664,-7350804 -168665,-7350807 -168679,-7350854 -168694,-7350899 -168713,-7350951 -168728,-7350989 -168750,-7351040 -168795,-7351151 -168777,-7351167 -168808,-7351247 -168798,-7351272 -168866,-7351337 -168904,-7351420 -168928,-7351467 -168944,-7351489 -168977,-7351530 -168983,-7351552 -168989,-7351595 -168993,-7351661 -168994,-7351733 -168998,-7351820 -169006,-7351906 -169012,-7351994 -169018,-7352069 -169022,-7352157 -169036,-7352335 -169044,-7352474 -169045,-7352482 -169047,-7352501 -169048,-7352521 -169049,-7352541 -169048,-7352556 -169047,-7352572 -169046,-7352589 -169043,-7352606 -169043,-7352607 -169041,-7352620 -169038,-7352633 -169035,-7352646 -169031,-7352659 -169026,-7352671 -169021,-7352682 -169016,-7352694 -169009,-7352706 -168970,-7352762 -168938,-7352808 -168948,-7352823 -168875,-7352908 -168879,-7352934 -168882,-7352993 -168861,-7353019 -168837,-7353069 -168793,-7353132 -168773,-7353168 -168730,-7353230 -168683,-7353315 -168673,-7353342 -168673,-7353367 -168675,-7353404 -168674,-7353441 -168674,-7353443 -168676,-7353472 -168675,-7353517 -168676,-7353538 -168677,-7353559 -168685,-7353592 -168710,-7353628 -168785,-7353745 -168824,-7353774 -168862,-7353798 -168910,-7353824 -168948,-7353843 -168963,-7353853 -168979,-7353865 -169026,-7353913 -169058,-7353939 -169092,-7353964 -169115,-7353890 -169136,-7353824 -169155,-7353757 -169161,-7353729 -169165,-7353632 -169408,-7353609 -169474,-7353599 -169590,-7353634 -169912,-7353735 -169993,-7353627 -170071,-7353549 -170133,-7353578 -170246,-7353636 -170303,-7353678 -170322,-7353668 -170396,-7353714 -170368,-7353759 -170388,-7353776 -170382,-7353803 -170370,-7353858 -170341,-7354076 -170316,-7354218 -170310,-7354257 -170265,-7354530 -170227,-7354747 -170246,-7354757 -170255,-7354762 -170288,-7354774 -170317,-7354789 -170348,-7354818 -170371,-7354850 -170391,-7354890 -170398,-7354903 -170417,-7354923 -170434,-7354941 -170457,-7354958 -170486,-7354974 -170558,-7355005 -170609,-7355033 -170651,-7355051 -170727,-7355084 -170783,-7355095 -170933,-7355121 -170923,-7355188 -170921,-7355195 -170907,-7355266 -170875,-7355564 -170857,-7355705 -170839,-7355869 -170822,-7356096 -170822,-7356199 -170816,-7356291 -170803,-7356449 -170796,-7356604 -170794,-7356638 -170788,-7356740 -170781,-7356845 -170742,-7357145 -170715,-7357367 -170702,-7357480 -170698,-7357520 -170683,-7357626 -170654,-7357736 -170644,-7357781 -170635,-7357821 -170632,-7357835 -170632,-7357835 -170606,-7357926 -170570,-7358026 -170552,-7358074 -170533,-7358121 -170486,-7358229 -170434,-7358335 -170409,-7358382 -170380,-7358431 -170349,-7358480 -170323,-7358517 -170294,-7358556 -170255,-7358605 -170231,-7358633 -170214,-7358652 -170177,-7358692 -170143,-7358728 -170104,-7358764 -170065,-7358799 -170045,-7358816 -170013,-7358842 -169942,-7358892 -169906,-7358916 -169870,-7358939 -169820,-7358970 -169723,-7359024 -169624,-7359075 -169537,-7359116 -169494,-7359136 -169408,-7359172 -169340,-7359197 -169255,-7359226 -169157,-7359255 -169120,-7359265 -169046,-7359283 -168971,-7359299 -168933,-7359305 -168715,-7359329 -168278,-7359366 -168081,-7359380 -167712,-7359401 -167708,-7359402 -167520,-7359411 -167465,-7359405 -167218,-7359411 -166967,-7359418 -166755,-7359424 -166454,-7359421 -166075,-7359408 -165950,-7359403 -165770,-7359394 -165623,-7359380 -165476,-7359363 -165394,-7359358 -165150,-7359360 -165115,-7359361 -164929,-7359360 -164905,-7359361 -164737,-7359369 -164654,-7359379 -164529,-7359407 -164378,-7359445 -164332,-7359455 -164283,-7359464 -164234,-7359472 -164125,-7359483 -164025,-7359496 -163994,-7359497 -163968,-7359500 -163951,-7359501 -163919,-7359501 -163910,-7359501 -163878,-7359501 -163847,-7359499 -163772,-7359489 -163696,-7359483 -163629,-7359475 -163546,-7359458 -163539,-7359456 -163520,-7359451 -163501,-7359446 -163494,-7359443 -163487,-7359441 -163480,-7359439 -163473,-7359436 -163466,-7359432 -163464,-7359431 -163458,-7359428 -163452,-7359423 -163447,-7359419 -163445,-7359417 -163442,-7359414 -163435,-7359405 -163424,-7359388 -163424,-7359388 -163418,-7359380 -163412,-7359372 -163407,-7359365 -163400,-7359357 -163394,-7359350 -163387,-7359344 -163377,-7359336 -163364,-7359329 -163350,-7359323 -163337,-7359317 -163322,-7359313 -163308,-7359308 -163299,-7359306 -163281,-7359302 -163264,-7359299 -163246,-7359297 -163228,-7359296 -163211,-7359295 -163209,-7359295 -163191,-7359295 -163174,-7359296 -163156,-7359298 -163139,-7359301 -163121,-7359304 -163104,-7359308 -163103,-7359308 -163086,-7359313 -163069,-7359319 -163053,-7359325 -163017,-7359340 -162983,-7359351 -162877,-7359338 -162825,-7359333 -162773,-7359330 -162651,-7359325 -162524,-7359324 -162411,-7359327 -162201,-7359345 -162138,-7359359 -162095,-7359369 -162066,-7359378 -162039,-7359387 -162010,-7359398 -161982,-7359410 -161923,-7359438 -161870,-7359459 -161785,-7359497 -161725,-7359528 -161689,-7359549 -161668,-7359561 -161639,-7359592 -161579,-7359670 -161484,-7359800 -161375,-7359946 -161352,-7359978 -161246,-7360135 -161145,-7360296 -161072,-7360417 -161062,-7360436 -161029,-7360512 -160997,-7360590 -160967,-7360666 -160907,-7360820 -160846,-7360962 -160827,-7360998 -160795,-7361050 -160746,-7361136 -160690,-7361300 -160680,-7361337 -160671,-7361375 -160664,-7361411 -160661,-7361429 -160619,-7361818 -160617,-7361873 -160615,-7361921 -160621,-7362013 -160630,-7362075 -160634,-7362143 -160634,-7362181 -160632,-7362246 -160629,-7362280 -160621,-7362335 -160611,-7362385 -160604,-7362410 -160598,-7362436 -160578,-7362499 -160569,-7362524 -160541,-7362597 -160492,-7362707 -160471,-7362755 -160468,-7362765 -160456,-7362810 -160444,-7362839 -160437,-7362852 -160425,-7362871 -160411,-7362891 -160392,-7362912 -160366,-7362938 -160341,-7362962 -160301,-7362997 -160274,-7363020 -160227,-7363049 -160176,-7363079 -160016,-7363166 -159848,-7363246 -159674,-7363324 -159507,-7363391 -159311,-7363464 -159153,-7363319 -159114,-7363280 -159062,-7363297 -159003,-7363307 -159015,-7363345 -159006,-7363339 -159001,-7363330 -158998,-7363318 -158995,-7363309 -158993,-7363301 -158953,-7363273 -158933,-7363270 -158911,-7363271 -158893,-7363288 -158867,-7363306 -158846,-7363321 -158802,-7363358 -158779,-7363377 -158767,-7363383 -158743,-7363394 -158699,-7363411 -158665,-7363424 -158618,-7363436 -158538,-7363459 -158521,-7363457 -158504,-7363455 -158492,-7363448 -158484,-7363437 -158482,-7363410 -158485,-7363388 -158492,-7363384 -158505,-7363371 -158511,-7363351 -158516,-7363339 -158520,-7363330 -158529,-7363319 -158534,-7363315 -158540,-7363309 -158533,-7363295 -158524,-7363275 -158501,-7363220 -158476,-7363166 -158472,-7363157 -158465,-7363141 -158443,-7363107 -158410,-7363062 -158369,-7362974 -158353,-7362955 -158292,-7362911 -158249,-7362870 -158165,-7362803 -158142,-7362783 -158106,-7362757 -158090,-7362741 -158063,-7362721 -158029,-7362693 -157973,-7362662 -157934,-7362643 -157895,-7362622 -157870,-7362613 -157843,-7362610 -157830,-7362611 -157817,-7362620 -157697,-7362728 -157698,-7362743 -157695,-7362748 -157688,-7362739 -157587,-7362833 -157530,-7362900 -157522,-7362914 -157475,-7362956 -157424,-7363005 -157419,-7363006 -157324,-7363107 -157284,-7363148 -157242,-7363193 -157233,-7363214 -157156,-7363292 -157147,-7363320 -157120,-7363369 -157103,-7363385 -157081,-7363402 -156962,-7363450 -156957,-7363449 -156949,-7363446 -156949,-7363446 -156883,-7363497 -156831,-7363526 -156775,-7363553 -156692,-7363586 -156670,-7363582 -156694,-7363593 -156697,-7363594 -156696,-7363600 -156682,-7363596 -156667,-7363593 -156568,-7363629 -156563,-7363624 -156479,-7363652 -156381,-7363688 -156353,-7363696 -156287,-7363720 -156236,-7363742 -156200,-7363762 -156171,-7363782 -156136,-7363809 -156107,-7363833 -156067,-7363873 -156038,-7363908 -156016,-7363938 -155995,-7363974 -155976,-7364011 -155989,-7364028 -155995,-7364045 -155987,-7364057 -155981,-7364062 -155972,-7364066 -155962,-7364068 -155950,-7364063 -155941,-7364050 -155941,-7364035 -155951,-7363999 -155969,-7363968 -155979,-7363950 -155987,-7363913 -155997,-7363899 -155990,-7363881 -155988,-7363871 -155990,-7363866 -156002,-7363851 -156018,-7363834 -156038,-7363815" stroke="#003087" stroke-width="36" /></ns0:svg>    <rect x="20" y="50"  width="250" height="25"  rx="0"  fill="#003087" fill-opacity="0.8" />    <text x="145" y="70" text-anchor="middle" font-family="Frutiger" font-weight="bold" font-size="30" fill="white">South Tyneside</text>    <rect x="35" y="195" width="220" height="160" rx="15" fill="#41B6E6"/>    <g font-family="Frutiger" font-size="15" fill="white">        <g> <text x="45" y="218">Self-harm</text> <text x="245" y="218" text-anchor="end">53</text> </g>        <g> <text x="45" y="243">SEN</text> <text x="245" y="243" text-anchor="end">49</text> </g>        <g> <text x="45" y="268">Difficulties</text> <text x="245" y="268" text-anchor="end">80</text> </g>        <g> <text x="45" y="293">Child Carer</text> <text x="245" y="293" text-anchor="end">10</text> </g>        <g> <text x="45" y="318">Drinkers</text> <text x="245" y="318" text-anchor="end">56</text> </g>        <g> <text x="45" y="343">Safeguarding £</text> <text x="245" y="343" text-anchor="end">33</text> </g>    </g></svg>