<?xml version="1.0" standalone="no"?>
<!DOCTYPE svg PUBLIC "-//W3C//DTD SVG 1.1//EN"
"http://www.w3.org/Graphics/SVG/1.1/DTD/svg11.dtd">
<svg height="1800" version="1.1" width="1800" xmlns="http://www.w3.org/2000/svg"><defs><style type="text/css">@font-face {font-family: 'Frutiger';font-style: normal;font-weight: normal;src: local('Frutiger'), url('../fonts/Frutiger.woff') format('woff');}@font-face {font-family: 'Frutiger Bold';font-style: normal;font-weight: normal;src: local('Frutiger Bold'), url('../fonts/Frutiger_bold.woff') format('woff');}        </style>    </defs>    <rect x="20" y="20"  width="250" height="350" rx="15" fill="#AE2573" />    <rect x="35" y="35"  width="220" height="145" rx="15" fill="#330072" /><ns0:svg xmlns:ns0="http://www.w3.org/2000/svg" height="115" version="1.1" viewBox="-241929 -7137202 49656 39566" width="220" x="35" y="50"><ns0:polygon fill="white" points=" -226132,-7134069 -226058,-7134061 -225914,-7134065 -225850,-7134066 -225743,-7134067 -225657,-7134069 -225574,-7134048 -225416,-7134003 -225372,-7133992 -225278,-7133967 -225157,-7133944 -225068,-7133921 -224863,-7133875 -224761,-7133847 -224673,-7133820 -224519,-7133798 -224489,-7133794 -224390,-7133780 -224371,-7133777 -224252,-7133759 -224134,-7133741 -223918,-7133705 -223796,-7133705 -223714,-7133707 -223614,-7133614 -223122,-7133161 -222804,-7132868 -222232,-7132343 -222212,-7132323 -222183,-7132297 -222021,-7132196 -221686,-7131977 -221350,-7131765 -221165,-7131643 -221073,-7131388 -221006,-7131196 -220990,-7131153 -220969,-7131091 -220857,-7130780 -220702,-7130337 -220640,-7130189 -220636,-7130170 -220563,-7129962 -220507,-7129797 -220115,-7129726 -219835,-7129684 -219205,-7129586 -219178,-7129574 -219130,-7129575 -219105,-7129562 -219052,-7129566 -218966,-7129541 -218938,-7129545 -218653,-7129501 -218392,-7129463 -218338,-7129449 -218253,-7129432 -218171,-7129413 -218154,-7129405 -218141,-7129410 -218101,-7129421 -217860,-7129502 -217491,-7129620 -217153,-7129733 -217025,-7129783 -216798,-7129865 -216780,-7129874 -216766,-7129879 -216748,-7129882 -216118,-7129927 -215743,-7129959 -215404,-7129980 -214932,-7130013 -214777,-7130034 -214726,-7130033 -214665,-7130030 -214643,-7130028 -214510,-7130011 -214475,-7129981 -214440,-7129955 -214413,-7129932 -214379,-7129904 -214356,-7129887 -213910,-7129537 -213478,-7129187 -213135,-7128899 -213044,-7128890 -212827,-7128875 -212518,-7128858 -212212,-7128832 -211988,-7128818 -211926,-7128816 -211885,-7128817 -211469,-7128790 -211302,-7128775 -211110,-7128766 -211027,-7128766 -211014,-7128767 -211012,-7128768 -211004,-7128774 -210999,-7128776 -210709,-7128778 -210611,-7128781 -210569,-7128781 -210520,-7128781 -210306,-7128767 -210281,-7128767 -210279,-7128766 -210164,-7128603 -210147,-7128572 -210117,-7128529 -209947,-7128581 -209926,-7128586 -209919,-7128586 -209846,-7128579 -209820,-7128574 -209781,-7128569 -209758,-7128573 -209736,-7128572 -209719,-7128574 -209695,-7128580 -209656,-7128590 -209608,-7128605 -209570,-7128599 -209469,-7128591 -209377,-7128581 -209357,-7128582 -209355,-7128581 -209267,-7128525 -209226,-7128494 -209184,-7128459 -209121,-7128395 -209107,-7128384 -208668,-7128379 -208648,-7128380 -208639,-7128379 -208621,-7128375 -208546,-7128353 -208540,-7128335 -208505,-7128135 -208480,-7128129 -208462,-7127968 -208455,-7127942 -208452,-7127937 -208438,-7127940 -208398,-7127814 -208375,-7127723 -208385,-7127699 -208388,-7127675 -208391,-7127611 -208397,-7127523 -208403,-7127429 -208393,-7127392 -208392,-7127386 -208393,-7127382 -208395,-7127376 -208415,-7127352 -208418,-7127347 -208421,-7127341 -208423,-7127331 -208431,-7127313 -208438,-7127289 -208443,-7127276 -208448,-7127250 -208450,-7127246 -208460,-7127234 -208465,-7127198 -208466,-7127186 -208462,-7127106 -208463,-7127095 -208469,-7127008 -208484,-7126913 -208465,-7126878 -208452,-7126859 -208442,-7126848 -208401,-7126784 -208385,-7126752 -208379,-7126738 -208393,-7126692 -208405,-7126652 -208418,-7126550 -208419,-7126540 -208421,-7126532 -208432,-7126511 -208439,-7126498 -208441,-7126490 -208448,-7126474 -208443,-7126447 -208443,-7126427 -208444,-7126399 -208444,-7126385 -208438,-7126356 -208436,-7126346 -208436,-7126341 -208439,-7126334 -208444,-7126330 -208454,-7126312 -208458,-7126299 -208458,-7126290 -208437,-7126241 -208426,-7126210 -208422,-7126179 -208423,-7126151 -208427,-7126120 -208425,-7126083 -208416,-7126055 -208410,-7126019 -208415,-7126009 -208442,-7125987 -208449,-7125985 -208450,-7125955 -208445,-7125951 -208442,-7125943 -208442,-7125872 -208440,-7125867 -208437,-7125861 -208432,-7125858 -208424,-7125854 -208409,-7125844 -208407,-7125841 -208406,-7125836 -208406,-7125828 -208409,-7125814 -208409,-7125809 -208403,-7125779 -208404,-7125774 -208407,-7125765 -208437,-7125725 -208436,-7125721 -208431,-7125686 -208428,-7125682 -208425,-7125680 -208422,-7125679 -208375,-7125684 -208373,-7125623 -208366,-7125596 -208371,-7125575 -208360,-7125528 -208362,-7125517 -208363,-7125500 -208354,-7125437 -208378,-7125422 -208385,-7125413 -208389,-7125401 -208394,-7125355 -208393,-7125352 -208391,-7125349 -208388,-7125347 -208383,-7125345 -208377,-7125314 -208374,-7125306 -208370,-7125297 -208328,-7125231 -208326,-7125223 -208323,-7125219 -208321,-7125217 -208317,-7125216 -208312,-7125215 -208305,-7125217 -208300,-7125220 -208287,-7125218 -208285,-7125216 -208284,-7125214 -208285,-7125209 -208296,-7125197 -208290,-7125172 -208264,-7125148 -208249,-7125129 -208200,-7125084 -208187,-7125065 -208183,-7125056 -208182,-7125053 -208194,-7125032 -208196,-7125027 -208191,-7125011 -208189,-7125000 -208189,-7124992 -208190,-7124974 -208187,-7124956 -208185,-7124918 -208117,-7124876 -208114,-7124868 -208111,-7124851 -208109,-7124837 -208117,-7124818 -208099,-7124783 -208099,-7124780 -208104,-7124753 -208100,-7124731 -208169,-7124596 -208171,-7124571 -208161,-7124560 -208154,-7124556 -208130,-7124545 -208115,-7124539 -208108,-7124528 -208116,-7124506 -208145,-7124449 -208164,-7124410 -208220,-7124315 -208278,-7124219 -208332,-7124151 -208398,-7124075 -208434,-7124025 -208467,-7123956 -208462,-7123880 -208456,-7123866 -208454,-7123867 -208436,-7123874 -208379,-7123858 -208306,-7123879 -208128,-7123931 -208104,-7123942 -208118,-7123891 -208113,-7123872 -208070,-7123804 -208048,-7123739 -208003,-7123619 -207995,-7123601 -207983,-7123577 -207940,-7123534 -207891,-7123493 -207827,-7123450 -207754,-7123405 -207727,-7123397 -207689,-7123408 -207639,-7123465 -207638,-7123465 -207621,-7123463 -207616,-7123324 -207601,-7123197 -207514,-7123215 -207500,-7123213 -207491,-7123199 -207473,-7123162 -207463,-7123167 -207438,-7123206 -207415,-7123231 -207385,-7123265 -207378,-7123272 -207354,-7123341 -207329,-7123382 -207312,-7123401 -207292,-7123412 -207267,-7123413 -207235,-7123412 -207197,-7123393 -207161,-7123385 -207135,-7123380 -207057,-7123333 -207035,-7123340 -207019,-7123357 -207002,-7123369 -206918,-7123327 -206841,-7123286 -206797,-7123261 -206757,-7123214 -206737,-7123200 -206648,-7123165 -206637,-7123156 -206629,-7123145 -206615,-7123131 -206608,-7123127 -206585,-7123118 -206559,-7123105 -206538,-7123079 -206550,-7123062 -206562,-7123037 -206561,-7123019 -206574,-7122999 -206584,-7122989 -206583,-7122970 -206608,-7122948 -206636,-7122936 -206623,-7122917 -206627,-7122850 -206622,-7122834 -206625,-7122809 -206619,-7122779 -206605,-7122744 -206595,-7122735 -206576,-7122746 -206569,-7122743 -206558,-7122731 -206565,-7122709 -206563,-7122699 -206558,-7122697 -206561,-7122669 -206548,-7122632 -206539,-7122635 -206531,-7122662 -206518,-7122676 -206493,-7122692 -206433,-7122716 -206404,-7122735 -206355,-7122778 -206320,-7122804 -206255,-7122862 -206255,-7122876 -206278,-7122913 -206293,-7122938 -206298,-7122946 -206315,-7122968 -206341,-7122997 -206369,-7123029 -206381,-7123047 -206393,-7123077 -206402,-7123115 -206406,-7123148 -206406,-7123153 -206401,-7123174 -206387,-7123226 -206374,-7123255 -206321,-7123354 -206290,-7123391 -206231,-7123451 -206178,-7123495 -206149,-7123517 -206091,-7123557 -206045,-7123591 -206030,-7123596 -206012,-7123599 -205993,-7123595 -205931,-7123567 -205851,-7123571 -205831,-7123576 -205811,-7123585 -205799,-7123605 -205794,-7123610 -205788,-7123613 -205782,-7123615 -205759,-7123617 -205736,-7123608 -205694,-7123578 -205671,-7123571 -205604,-7123565 -205538,-7123560 -205502,-7123618 -205473,-7123638 -205449,-7123676 -205416,-7123737 -205404,-7123770 -205396,-7123803 -205390,-7123824 -205369,-7123843 -205319,-7123883 -205273,-7123906 -205244,-7123916 -205209,-7123925 -205143,-7123941 -205084,-7123944 -205044,-7123947 -204976,-7123968 -204941,-7123978 -204895,-7123991 -204881,-7123995 -204866,-7124002 -204854,-7124010 -204825,-7124078 -204775,-7124187 -204763,-7124219 -204756,-7124286 -204724,-7124365 -204710,-7124390 -204691,-7124409 -204624,-7124467 -204608,-7124484 -204596,-7124504 -204549,-7124597 -204548,-7124599 -204519,-7124684 -204497,-7124746 -204486,-7124774 -204479,-7124772 -204444,-7124761 -204432,-7124735 -204409,-7124735 -204377,-7124723 -204229,-7124693 -204217,-7124690 -204208,-7124689 -204199,-7124690 -204190,-7124693 -204182,-7124698 -204170,-7124708 -204125,-7124762 -204085,-7124833 -204057,-7124899 -204035,-7124928 -204013,-7124953 -203974,-7125002 -203837,-7125127 -203807,-7125162 -203780,-7125218 -203643,-7125340 -203596,-7125387 -203548,-7125437 -203523,-7125466 -203500,-7125496 -203473,-7125536 -203449,-7125484 -203428,-7125479 -203414,-7125467 -203410,-7125460 -203388,-7125449 -203317,-7125423 -203262,-7125396 -203202,-7125431 -203162,-7125445 -203123,-7125471 -203103,-7125500 -203060,-7125503 -203042,-7125538 -203007,-7125531 -202982,-7125545 -202953,-7125547 -202928,-7125542 -202905,-7125554 -202887,-7125560 -202871,-7125572 -202850,-7125574 -202789,-7125609 -202749,-7125609 -202710,-7125626 -202647,-7125628 -202625,-7125621 -202611,-7125620 -202601,-7125625 -202578,-7125622 -202557,-7125605 -202551,-7125583 -202539,-7125574 -202523,-7125587 -202485,-7125601 -202471,-7125598 -202476,-7125618 -202460,-7125622 -202422,-7125614 -202407,-7125595 -202376,-7125570 -202359,-7125565 -202314,-7125565 -202293,-7125569 -202208,-7125570 -202185,-7125565 -202172,-7125554 -202121,-7125556 -202100,-7125547 -202072,-7125555 -202032,-7125565 -202023,-7125572 -202009,-7125569 -201990,-7125578 -201968,-7125577 -201959,-7125569 -201952,-7125553 -201892,-7125572 -201838,-7125583 -201823,-7125583 -201811,-7125582 -201802,-7125579 -201796,-7125576 -201788,-7125566 -201775,-7125562 -201743,-7125574 -201734,-7125583 -201728,-7125626 -201723,-7125635 -201684,-7125644 -201647,-7125640 -201631,-7125663 -201606,-7125661 -201583,-7125667 -201553,-7125668 -201534,-7125644 -201493,-7125640 -201478,-7125634 -201452,-7125655 -201417,-7125658 -201408,-7125623 -201408,-7125599 -201392,-7125573 -201353,-7125565 -201352,-7125565 -201340,-7125556 -201288,-7125505 -201242,-7125433 -201239,-7125415 -201229,-7125403 -201203,-7125419 -201193,-7125420 -201174,-7125372 -201165,-7125323 -201147,-7125314 -201121,-7125281 -201128,-7125272 -201119,-7125232 -201098,-7125215 -201087,-7125216 -201078,-7125176 -201071,-7125134 -201048,-7125136 -201017,-7125126 -200984,-7125107 -200983,-7125080 -200993,-7125078 -200962,-7125048 -200946,-7125024 -200911,-7125012 -200905,-7124991 -200854,-7124932 -200814,-7124892 -200780,-7124878 -200741,-7124849 -200713,-7124815 -200702,-7124793 -200679,-7124775 -200649,-7124741 -200612,-7124715 -200607,-7124706 -200612,-7124692 -200614,-7124658 -200629,-7124638 -200647,-7124617 -200642,-7124602 -200616,-7124575 -200604,-7124544 -200604,-7124515 -200599,-7124480 -200561,-7124428 -200568,-7124330 -200575,-7124309 -200583,-7124287 -200611,-7124251 -200632,-7124233 -200654,-7124208 -200617,-7124166 -200579,-7124121 -200593,-7124071 -200572,-7124062 -200551,-7124044 -200544,-7124024 -200527,-7124006 -200502,-7124001 -200497,-7123991 -200501,-7123960 -200496,-7123927 -200498,-7123897 -200495,-7123880 -200478,-7123869 -200470,-7123863 -200459,-7123859 -200431,-7123852 -200392,-7123859 -200374,-7123858 -200350,-7123833 -200335,-7123823 -200311,-7123798 -200293,-7123793 -200278,-7123796 -200253,-7123812 -200231,-7123822 -200222,-7123824 -200200,-7123826 -200196,-7123823 -200192,-7123821 -200186,-7123815 -200183,-7123804 -200170,-7123793 -200151,-7123789 -200120,-7123774 -200107,-7123770 -200097,-7123764 -200089,-7123757 -200081,-7123749 -200075,-7123739 -200067,-7123720 -200065,-7123717 -200061,-7123714 -200056,-7123711 -200038,-7123711 -200001,-7123692 -199991,-7123664 -199938,-7123647 -199900,-7123625 -199851,-7123617 -199838,-7123607 -199821,-7123594 -199795,-7123573 -199784,-7123548 -199769,-7123525 -199766,-7123506 -199754,-7123472 -199760,-7123462 -199767,-7123449 -199767,-7123439 -199764,-7123429 -199760,-7123420 -199751,-7123414 -199728,-7123389 -199707,-7123363 -199699,-7123354 -199693,-7123342 -199692,-7123323 -199699,-7123314 -199719,-7123275 -199740,-7123252 -199743,-7123242 -199740,-7123226 -199737,-7123202 -199727,-7123172 -199708,-7123147 -199709,-7123103 -199689,-7123082 -199681,-7123060 -199665,-7123058 -199664,-7123043 -199660,-7123031 -199662,-7123018 -199662,-7122988 -199670,-7122958 -199663,-7122939 -199651,-7122923 -199650,-7122907 -199641,-7122878 -199642,-7122816 -199653,-7122791 -199654,-7122756 -199665,-7122741 -199687,-7122724 -199697,-7122702 -199715,-7122681 -199729,-7122676 -199771,-7122640 -199787,-7122634 -199798,-7122624 -199806,-7122602 -199832,-7122590 -199851,-7122577 -199883,-7122577 -199904,-7122563 -199900,-7122524 -199901,-7122487 -199907,-7122471 -199933,-7122455 -199930,-7122432 -199923,-7122410 -199902,-7122394 -199893,-7122377 -199875,-7122359 -199843,-7122347 -199825,-7122341 -199810,-7122306 -199784,-7122273 -199787,-7122253 -199787,-7122245 -199778,-7122178 -199755,-7122161 -199722,-7122121 -199718,-7122101 -199700,-7122085 -199664,-7122072 -199612,-7122035 -199597,-7122035 -199586,-7122033 -199575,-7122030 -199565,-7122024 -199556,-7122016 -199548,-7122005 -199544,-7121998 -199530,-7121983 -199515,-7121964 -199504,-7121938 -199501,-7121929 -199485,-7121910 -199460,-7121878 -199435,-7121852 -199416,-7121857 -199412,-7121856 -199405,-7121854 -199396,-7121852 -199380,-7121834 -199370,-7121823 -199362,-7121820 -199344,-7121812 -199331,-7121799 -199318,-7121785 -199295,-7121775 -199284,-7121778 -199274,-7121772 -199269,-7121769 -199264,-7121758 -199257,-7121744 -199237,-7121733 -199229,-7121729 -199206,-7121731 -199187,-7121715 -199184,-7121705 -199179,-7121691 -199151,-7121678 -199148,-7121646 -199135,-7121598 -199137,-7121550 -199128,-7121539 -199087,-7121523 -199067,-7121536 -199039,-7121543 -199033,-7121541 -199030,-7121539 -199027,-7121523 -199021,-7121487 -198995,-7121485 -198976,-7121493 -198967,-7121494 -198956,-7121495 -198948,-7121493 -198926,-7121487 -198914,-7121486 -198901,-7121485 -198890,-7121486 -198880,-7121488 -198795,-7121453 -198772,-7121448 -198765,-7121443 -198759,-7121432 -198753,-7121412 -198753,-7121371 -198761,-7121331 -198748,-7121278 -198734,-7121247 -198722,-7121241 -198689,-7121239 -198680,-7121230 -198680,-7121211 -198672,-7121181 -198672,-7121151 -198680,-7121130 -198692,-7121111 -198710,-7121094 -198727,-7121056 -198719,-7121035 -198698,-7121021 -198668,-7121006 -198659,-7120996 -198644,-7120979 -198618,-7120957 -198601,-7120951 -198580,-7120946 -198551,-7120946 -198546,-7120966 -198539,-7120970 -198521,-7120967 -198507,-7120956 -198488,-7120950 -198466,-7120909 -198464,-7120882 -198437,-7120883 -198409,-7120875 -198392,-7120868 -198370,-7120855 -198355,-7120840 -198316,-7120809 -198317,-7120799 -198335,-7120775 -198334,-7120752 -198304,-7120730 -198285,-7120703 -198266,-7120703 -198241,-7120695 -198213,-7120669 -198183,-7120670 -198133,-7120655 -198122,-7120624 -198122,-7120587 -198118,-7120568 -198085,-7120541 -198075,-7120519 -198074,-7120487 -198083,-7120449 -198084,-7120425 -198079,-7120411 -198037,-7120363 -198044,-7120342 -198056,-7120309 -198031,-7120224 -198032,-7120201 -198048,-7120173 -198057,-7120143 -198057,-7120125 -198048,-7120106 -198033,-7120088 -198035,-7120063 -198053,-7120036 -198098,-7119992 -198116,-7119972 -198116,-7119955 -198093,-7119914 -198060,-7119830 -198038,-7119792 -198031,-7119767 -198030,-7119740 -198030,-7119726 -198041,-7119700 -198057,-7119689 -198061,-7119677 -198056,-7119660 -198023,-7119632 -198008,-7119609 -197993,-7119582 -197996,-7119550 -198007,-7119532 -198043,-7119535 -198054,-7119481 -198054,-7119460 -198037,-7119439 -198047,-7119407 -198048,-7119392 -198035,-7119337 -198019,-7119324 -198027,-7119289 -198019,-7119283 -198017,-7119256 -198034,-7119225 -198081,-7119190 -198100,-7119136 -198096,-7119120 -198078,-7119118 -198063,-7119104 -198062,-7119095 -198037,-7119116 -197989,-7119121 -197963,-7119099 -197903,-7119055 -197851,-7118998 -197797,-7118944 -197775,-7118912 -197740,-7118865 -197688,-7118774 -197647,-7118709 -197603,-7118636 -197558,-7118563 -197519,-7118459 -197504,-7118414 -197494,-7118371 -197458,-7118223 -197461,-7118198 -197447,-7118170 -197448,-7118124 -197413,-7118130 -197417,-7118156 -197401,-7118146 -197381,-7118164 -197382,-7118190 -197369,-7118190 -197342,-7118216 -197303,-7118246 -197327,-7118273 -197315,-7118282 -197289,-7118281 -197266,-7118289 -197212,-7118319 -197169,-7118316 -197156,-7118326 -197160,-7118337 -197121,-7118360 -197084,-7118394 -197085,-7118418 -197069,-7118440 -197054,-7118438 -197049,-7118451 -197050,-7118474 -197045,-7118481 -197031,-7118491 -197015,-7118486 -197001,-7118487 -196985,-7118495 -196973,-7118494 -196959,-7118490 -196941,-7118502 -196919,-7118495 -196901,-7118495 -196895,-7118503 -196885,-7118497 -196869,-7118498 -196852,-7118492 -196849,-7118482 -196841,-7118477 -196796,-7118475 -196772,-7118461 -196713,-7118461 -196705,-7118467 -196663,-7118479 -196658,-7118472 -196632,-7118480 -196623,-7118474 -196612,-7118475 -196600,-7118488 -196582,-7118492 -196558,-7118473 -196540,-7118476 -196496,-7118465 -196484,-7118440 -196460,-7118427 -196429,-7118418 -196397,-7118416 -196384,-7118406 -196373,-7118403 -196361,-7118413 -196347,-7118420 -196308,-7118416 -196286,-7118399 -196241,-7118389 -196206,-7118381 -196188,-7118379 -196178,-7118376 -196150,-7118375 -196119,-7118367 -196077,-7118365 -196059,-7118361 -196009,-7118327 -195973,-7118310 -195945,-7118308 -195909,-7118294 -195899,-7118298 -195863,-7118295 -195835,-7118295 -195807,-7118306 -195780,-7118320 -195754,-7118330 -195727,-7118363 -195638,-7118429 -195634,-7118440 -195606,-7118456 -195566,-7118465 -195522,-7118469 -195499,-7118468 -195469,-7118459 -195416,-7118454 -195396,-7118438 -195248,-7118406 -195213,-7118407 -195219,-7118296 -195229,-7118027 -195248,-7117903 -195250,-7117896 -195252,-7117887 -195410,-7117891 -195408,-7117830 -195401,-7117790 -195393,-7117772 -195395,-7117728 -195410,-7117676 -195410,-7117538 -195411,-7117443 -195377,-7117438 -195298,-7117434 -195254,-7117401 -195208,-7117372 -195117,-7117331 -195072,-7117316 -194973,-7117279 -194933,-7117261 -194923,-7117252 -194805,-7117234 -194678,-7117218 -194593,-7117204 -194614,-7117161 -194596,-7117155 -194590,-7117136 -194570,-7117114 -194565,-7117104 -194553,-7117096 -194526,-7117087 -194484,-7117088 -194469,-7117079 -194457,-7117081 -194439,-7117070 -194425,-7117071 -194408,-7117059 -194397,-7117077 -194352,-7117047 -194347,-7117041 -194249,-7116978 -194248,-7116862 -194243,-7116826 -194235,-7116713 -194200,-7116619 -194205,-7116569 -194210,-7116531 -194194,-7116521 -194189,-7116517 -194179,-7116526 -194139,-7116479 -194000,-7116600 -193908,-7116666 -193829,-7116724 -193804,-7116677 -193668,-7116531 -193584,-7116444 -193583,-7116444 -193576,-7116432 -193490,-7116345 -193378,-7116240 -193349,-7116210 -193342,-7116201 -193236,-7116033 -193337,-7116004 -193395,-7116003 -193445,-7115992 -193428,-7115913 -193436,-7115911 -193434,-7115898 -193463,-7115887 -193565,-7115830 -193490,-7115743 -193472,-7115719 -193388,-7115623 -193369,-7115595 -193290,-7115511 -193254,-7115478 -193260,-7115457 -193243,-7115387 -193234,-7115343 -193227,-7115297 -193228,-7115273 -193230,-7115254 -193235,-7115235 -193254,-7115204 -193267,-7115181 -193287,-7115143 -193321,-7115090 -193339,-7115068 -193406,-7114917 -193429,-7114881 -193441,-7114839 -193450,-7114790 -193476,-7114737 -193487,-7114711 -193488,-7114696 -193531,-7114601 -193543,-7114582 -193547,-7114573 -193565,-7114535 -193599,-7114483 -193615,-7114446 -193649,-7114414 -193652,-7114384 -193650,-7114308 -193605,-7114311 -193544,-7114315 -193550,-7114166 -193565,-7114086 -193564,-7114037 -193564,-7114020 -193557,-7113982 -193474,-7113976 -193357,-7113971 -193472,-7113774 -193568,-7113615 -193612,-7113543 -193639,-7113491 -193644,-7113440 -193639,-7113421 -193630,-7113395 -193623,-7113375 -193612,-7113350 -193557,-7113268 -193536,-7113236 -193521,-7113224 -193502,-7113213 -193485,-7113204 -193476,-7113200 -193448,-7113202 -193414,-7113207 -193395,-7113202 -193299,-7113040 -193279,-7113010 -193225,-7112934 -193189,-7112896 -193157,-7112855 -193072,-7112749 -192996,-7112671 -192955,-7112588 -192943,-7112566 -192985,-7112452 -193024,-7112338 -193056,-7112147 -193088,-7112025 -193136,-7111837 -193189,-7111634 -193198,-7111604 -193099,-7111418 -193119,-7111348 -193076,-7111329 -193030,-7111302 -192923,-7111140 -192772,-7110898 -192739,-7110861 -192711,-7110827 -192731,-7110817 -192741,-7110811 -192751,-7110803 -192760,-7110794 -192766,-7110787 -192772,-7110778 -192781,-7110744 -192800,-7110706 -192825,-7110644 -192615,-7110523 -192273,-7110311 -192376,-7110255 -192458,-7110214 -192494,-7110191 -192590,-7110126 -192629,-7110094 -192646,-7110074 -192655,-7110060 -192679,-7110024 -192703,-7109968 -192715,-7109926 -192727,-7109897 -192725,-7109853 -192739,-7109851 -192773,-7109848 -192787,-7109850 -192797,-7109852 -192806,-7109856 -192817,-7109862 -192844,-7109880 -192867,-7109902 -192885,-7109922 -192983,-7109998 -193051,-7110063 -193122,-7110120 -193180,-7110165 -193209,-7110194 -193222,-7110209 -193238,-7110231 -193249,-7110248 -193261,-7110272 -193266,-7110286 -193273,-7110314 -193279,-7110357 -193281,-7110382 -193282,-7110401 -193281,-7110442 -193286,-7110527 -193297,-7110603 -193300,-7110616 -193311,-7110657 -193316,-7110670 -193323,-7110683 -193330,-7110694 -193337,-7110701 -193347,-7110710 -193361,-7110719 -193375,-7110726 -193388,-7110731 -193401,-7110734 -193414,-7110735 -193429,-7110736 -193435,-7110737 -193455,-7110742 -193478,-7110749 -193494,-7110754 -193506,-7110760 -193540,-7110778 -193549,-7110784 -193566,-7110798 -193578,-7110812 -193608,-7110856 -193633,-7110899 -193678,-7110972 -193714,-7111023 -193729,-7111050 -193739,-7111068 -193758,-7111111 -193771,-7111149 -193781,-7111187 -193788,-7111226 -193790,-7111250 -193792,-7111274 -193792,-7111307 -193784,-7111447 -193788,-7111628 -193800,-7111708 -193817,-7111756 -193829,-7111834 -193870,-7111920 -193897,-7111958 -193928,-7111980 -193996,-7112008 -194068,-7112047 -194127,-7112094 -194189,-7112170 -194224,-7112209 -194281,-7112276 -194338,-7112370 -194345,-7112439 -194350,-7112449 -194359,-7112470 -194396,-7112503 -194443,-7112525 -194508,-7112527 -194557,-7112514 -194620,-7112480 -194636,-7112472 -194659,-7112457 -194687,-7112433 -194705,-7112413 -194775,-7112349 -194832,-7112310 -194881,-7112282 -194917,-7112263 -194953,-7112246 -194984,-7112233 -195007,-7112224 -195027,-7112219 -195080,-7112208 -195109,-7112202 -195119,-7112202 -195217,-7112196 -195341,-7112192 -195456,-7112184 -195531,-7112180 -195728,-7112208 -195765,-7112207 -195839,-7112188 -195905,-7112166 -195886,-7112096 -195885,-7112022 -195896,-7112010 -195911,-7112004 -195914,-7111991 -195913,-7111981 -195917,-7111976 -195925,-7111975 -195944,-7111977 -195969,-7111973 -195979,-7111969 -195987,-7111954 -196000,-7111947 -196006,-7111932 -196007,-7111887 -196013,-7111879 -196013,-7111873 -196003,-7111866 -196004,-7111850 -196021,-7111839 -196016,-7111820 -196009,-7111814 -196009,-7111795 -196001,-7111768 -196009,-7111763 -196002,-7111751 -196002,-7111742 -196017,-7111732 -196028,-7111717 -196047,-7111716 -196063,-7111703 -196070,-7111693 -196071,-7111674 -196079,-7111658 -196091,-7111628 -196102,-7111635 -196111,-7111633 -196120,-7111620 -196125,-7111604 -196121,-7111596 -196159,-7111600 -196168,-7111591 -196154,-7111583 -196161,-7111575 -196169,-7111580 -196172,-7111570 -196178,-7111565 -196185,-7111565 -196184,-7111579 -196187,-7111583 -196203,-7111581 -196214,-7111572 -196225,-7111570 -196225,-7111545 -196233,-7111540 -196234,-7111530 -196246,-7111519 -196255,-7111519 -196265,-7111527 -196279,-7111528 -196279,-7111518 -196296,-7111519 -196297,-7111507 -196301,-7111487 -196307,-7111484 -196317,-7111491 -196324,-7111492 -196325,-7111487 -196340,-7111488 -196349,-7111493 -196357,-7111494 -196368,-7111498 -196377,-7111488 -196373,-7111479 -196405,-7111473 -196414,-7111476 -196430,-7111469 -196436,-7111458 -196452,-7111467 -196465,-7111467 -196471,-7111449 -196481,-7111441 -196492,-7111446 -196502,-7111444 -196524,-7111439 -196533,-7111430 -196548,-7111437 -196557,-7111430 -196566,-7111434 -196572,-7111429 -196587,-7111430 -196592,-7111422 -196603,-7111418 -196612,-7111412 -196628,-7111411 -196648,-7111401 -196648,-7111386 -196657,-7111386 -196658,-7111391 -196663,-7111396 -196676,-7111387 -196694,-7111387 -196704,-7111378 -196725,-7111368 -196744,-7111368 -196749,-7111361 -196766,-7111364 -196777,-7111351 -196800,-7111352 -196799,-7111341 -196822,-7111336 -196834,-7111324 -196844,-7111323 -196855,-7111310 -196882,-7111297 -196896,-7111298 -196899,-7111290 -196908,-7111288 -196927,-7111290 -196953,-7111275 -196965,-7111258 -196979,-7111247 -196997,-7111240 -197014,-7111240 -197031,-7111235 -197051,-7111218 -197049,-7111208 -197056,-7111199 -197057,-7111190 -197075,-7111176 -197098,-7111168 -197103,-7111156 -197107,-7111145 -197111,-7111139 -197132,-7111121 -197143,-7111123 -197152,-7111115 -197171,-7111106 -197184,-7111083 -197196,-7111078 -197211,-7111068 -197216,-7111057 -197244,-7111036 -197258,-7111037 -197279,-7111029 -197295,-7111015 -197300,-7111014 -197312,-7111010 -197324,-7111009 -197338,-7110997 -197345,-7110988 -197348,-7110987 -197352,-7110991 -197360,-7110995 -197364,-7110988 -197375,-7110984 -197381,-7110980 -197399,-7110964 -197403,-7110957 -197407,-7110956 -197415,-7110958 -197420,-7110954 -197420,-7110945 -197434,-7110941 -197438,-7110923 -197449,-7110920 -197462,-7110921 -197465,-7110907 -197485,-7110907 -197493,-7110903 -197507,-7110881 -197517,-7110859 -197552,-7110831 -197583,-7110816 -197595,-7110814 -197606,-7110806 -197633,-7110795 -197657,-7110773 -197725,-7110741 -197793,-7110703 -197838,-7110690 -197866,-7110676 -197875,-7110675 -197897,-7110658 -197924,-7110651 -197937,-7110644 -197958,-7110644 -197971,-7110635 -197974,-7110624 -197994,-7110607 -198006,-7110607 -198015,-7110603 -198014,-7110593 -198033,-7110587 -198034,-7110577 -198037,-7110568 -198048,-7110561 -198054,-7110548 -198109,-7110502 -198123,-7110501 -198128,-7110487 -198152,-7110458 -198222,-7110442 -198321,-7110422 -198478,-7110383 -198617,-7110352 -198687,-7110328 -198742,-7110313 -198863,-7110282 -198942,-7110251 -199059,-7110293 -199164,-7110297 -199186,-7110309 -199261,-7110259 -199289,-7110251 -199328,-7110259 -199328,-7110269 -199355,-7110257 -199445,-7110210 -199474,-7110190 -199548,-7110167 -199569,-7110152 -199593,-7110146 -199598,-7110137 -199687,-7110109 -199702,-7110100 -199778,-7110064 -199833,-7110038 -199856,-7110040 -199876,-7110036 -200015,-7109985 -200095,-7109957 -200161,-7109929 -200220,-7109912 -200273,-7109902 -200295,-7109894 -200335,-7109881 -200355,-7109878 -200393,-7109889 -200434,-7109894 -200472,-7109890 -200497,-7109888 -200507,-7109885 -200533,-7109870 -200550,-7109865 -200599,-7109840 -200669,-7109820 -200720,-7109814 -200757,-7109756 -200795,-7109745 -200850,-7109670 -200905,-7109656 -200921,-7109642 -200940,-7109630 -200988,-7109611 -201093,-7109581 -201175,-7109562 -201281,-7109534 -201346,-7109515 -201389,-7109500 -201445,-7109479 -201482,-7109465 -201558,-7109427 -201588,-7109411 -201649,-7109376 -201698,-7109349 -201727,-7109332 -201817,-7109266 -201910,-7109193 -201939,-7109168 -202020,-7109090 -202071,-7109038 -202142,-7108958 -202199,-7108887 -202262,-7108813 -202291,-7108752 -202310,-7108688 -202337,-7108650 -202345,-7108624 -202367,-7108598 -202404,-7108541 -202438,-7108491 -202465,-7108451 -202477,-7108433 -202597,-7108335 -202635,-7108307 -202681,-7108280 -202774,-7108235 -202855,-7108193 -202971,-7108145 -203050,-7108102 -203073,-7108092 -203092,-7108080 -203112,-7108063 -203190,-7107994 -203238,-7107952 -203256,-7107948 -203282,-7107948 -203319,-7107954 -203366,-7107953 -203423,-7107924 -203435,-7107902 -203449,-7107889 -203474,-7107879 -203491,-7107877 -203508,-7107881 -203544,-7107905 -203570,-7107913 -203611,-7107914 -203658,-7107929 -203689,-7107942 -203715,-7107948 -203762,-7107944 -203845,-7107945 -203888,-7107940 -203883,-7107927 -203918,-7107924 -203958,-7107916 -204005,-7107905 -204050,-7107887 -204077,-7107875 -204148,-7107835 -204202,-7107798 -204256,-7107762 -204330,-7107711 -204344,-7107728 -204357,-7107742 -204371,-7107762 -204399,-7107801 -204441,-7107869 -204559,-7107985 -204589,-7108023 -204601,-7108035 -204650,-7108070 -204687,-7108091 -204719,-7108099 -204757,-7108105 -204785,-7108118 -204826,-7108140 -204844,-7108151 -204892,-7108149 -204910,-7108150 -204929,-7108156 -204960,-7108162 -204969,-7108179 -204983,-7108199 -205005,-7108210 -205021,-7108218 -205042,-7108226 -205073,-7108245 -205088,-7108260 -205122,-7108260 -205128,-7108265 -205141,-7108277 -205153,-7108281 -205167,-7108277 -205181,-7108278 -205193,-7108272 -205231,-7108274 -205243,-7108287 -205275,-7108287 -205309,-7108286 -205315,-7108292 -205331,-7108308 -205351,-7108319 -205379,-7108320 -205440,-7108341 -205472,-7108340 -205501,-7108355 -205507,-7108366 -205516,-7108369 -205524,-7108367 -205530,-7108359 -205535,-7108357 -205547,-7108352 -205565,-7108352 -205638,-7108349 -205686,-7108358 -205746,-7108354 -205759,-7108360 -205767,-7108369 -205780,-7108376 -205804,-7108378 -205809,-7108391 -205818,-7108397 -205825,-7108398 -205833,-7108398 -205861,-7108389 -205877,-7108373 -205894,-7108373 -205919,-7108393 -205938,-7108402 -205958,-7108403 -206012,-7108399 -206027,-7108409 -206045,-7108407 -206046,-7108409 -206047,-7108417 -206053,-7108428 -206063,-7108432 -206074,-7108430 -206081,-7108425 -206084,-7108416 -206087,-7108398 -206089,-7108391 -206096,-7108381 -206107,-7108370 -206113,-7108351 -206121,-7108337 -206123,-7108334 -206127,-7108331 -206135,-7108329 -206159,-7108330 -206188,-7108310 -206203,-7108308 -206216,-7108308 -206221,-7108304 -206243,-7108304 -206252,-7108314 -206254,-7108321 -206264,-7108328 -206283,-7108329 -206312,-7108360 -206318,-7108364 -206318,-7108365 -206324,-7108375 -206332,-7108379 -206345,-7108383 -206351,-7108381 -206353,-7108376 -206351,-7108348 -206357,-7108332 -206358,-7108311 -206345,-7108294 -206337,-7108281 -206334,-7108259 -206295,-7108223 -206288,-7108213 -206289,-7108200 -206263,-7108189 -206235,-7108162 -206209,-7108145 -206200,-7108132 -206198,-7108118 -206184,-7108087 -206169,-7108063 -206167,-7108054 -206152,-7108035 -206138,-7108016 -206128,-7107987 -206120,-7107984 -206091,-7107985 -206085,-7107982 -206085,-7107970 -206103,-7107964 -206103,-7107952 -206087,-7107948 -206078,-7107931 -206072,-7107880 -206073,-7107842 -206063,-7107837 -206052,-7107824 -206034,-7107804 -206023,-7107789 -205996,-7107775 -205982,-7107763 -205946,-7107764 -205938,-7107760 -205923,-7107764 -205915,-7107750 -205871,-7107748 -205863,-7107736 -205850,-7107724 -205849,-7107713 -205840,-7107706 -205841,-7107697 -205846,-7107687 -205842,-7107679 -205819,-7107667 -205819,-7107645 -205801,-7107634 -205796,-7107627 -205780,-7107617 -205780,-7107610 -205769,-7107600 -205768,-7107586 -205756,-7107569 -205733,-7107576 -205716,-7107575 -205706,-7107568 -205679,-7107533 -205665,-7107482 -205639,-7107472 -205634,-7107462 -205617,-7107462 -205594,-7107438 -205571,-7107437 -205538,-7107422 -205536,-7107415 -205526,-7107415 -205523,-7107412 -205522,-7107406 -205527,-7107400 -205526,-7107388 -205517,-7107379 -205498,-7107378 -205499,-7107367 -205489,-7107356 -205456,-7107352 -205436,-7107321 -205406,-7107287 -205394,-7107280 -205365,-7107275 -205312,-7107243 -205271,-7107211 -205247,-7107197 -205224,-7107175 -205359,-7107092 -205428,-7107050 -205496,-7107008 -205589,-7106947 -205695,-7106877 -205852,-7107080 -205886,-7107117 -205903,-7107142 -205945,-7107127 -206006,-7107107 -206059,-7107094 -206153,-7106999 -206197,-7106968 -206233,-7106945 -206266,-7106929 -206190,-7106815 -206258,-7106772 -206309,-7106743 -206301,-7106731 -206385,-7106696 -206524,-7106640 -206528,-7106643 -206549,-7106635 -206570,-7106675 -206717,-7106621 -206784,-7106598 -206866,-7106570 -206925,-7106555 -206985,-7106546 -207099,-7106530 -207056,-7106410 -207078,-7106400 -207110,-7106423 -207129,-7106433 -207154,-7106441 -207188,-7106447 -207242,-7106446 -207275,-7106437 -207297,-7106429 -207321,-7106413 -207340,-7106396 -207360,-7106373 -207382,-7106333 -207393,-7106296 -207396,-7106282 -207397,-7106277 -207414,-7106253 -207437,-7106226 -207464,-7106232 -207546,-7106234 -207566,-7106232 -207588,-7106223 -207614,-7106202 -207640,-7106181 -207673,-7106156 -207672,-7106144 -207695,-7106125 -207707,-7106114 -207713,-7106107 -207718,-7106101 -207723,-7106095 -207724,-7106093 -207730,-7106085 -207736,-7106077 -207741,-7106069 -207766,-7106012 -207784,-7105983 -207833,-7105932 -207913,-7106027 -207943,-7106056 -207961,-7106020 -207975,-7105993 -207995,-7105957 -208010,-7105930 -208024,-7105909 -208051,-7105872 -208161,-7105918 -208181,-7105875 -208236,-7105806 -208267,-7105787 -208273,-7105794 -208324,-7105760 -208447,-7105681 -208483,-7105652 -208539,-7105628 -208578,-7105668 -208595,-7105679 -208625,-7105702 -208629,-7105699 -208641,-7105718 -208689,-7105686 -208726,-7105662 -208738,-7105641 -208749,-7105617 -208733,-7105587 -208693,-7105511 -208738,-7105458 -208754,-7105443 -208827,-7105401 -208857,-7105381 -208892,-7105360 -208943,-7105315 -208941,-7105311 -209022,-7105244 -209019,-7105241 -209082,-7105190 -209174,-7105127 -209325,-7105025 -209366,-7104995 -209442,-7104940 -209460,-7104927 -209479,-7104915 -209537,-7104870 -209609,-7104805 -209702,-7104720 -209782,-7104656 -209806,-7104643 -209821,-7104631 -209854,-7104605 -209930,-7104531 -210022,-7104458 -210067,-7104422 -210137,-7104371 -210226,-7104303 -210222,-7104297 -210261,-7104248 -210301,-7104202 -210368,-7104137 -210405,-7104096 -210453,-7104045 -210468,-7104035 -210492,-7104029 -210512,-7104021 -210544,-7103992 -210577,-7103969 -210624,-7103927 -210698,-7103868 -210644,-7103760 -210659,-7103731 -210725,-7103687 -210757,-7103665 -210785,-7103641 -210804,-7103620 -210830,-7103577 -210868,-7103513 -210882,-7103446 -210905,-7103287 -211022,-7103236 -211089,-7103214 -211145,-7103195 -211158,-7103191 -211166,-7103189 -211180,-7103176 -211187,-7103171 -211193,-7103168 -211200,-7103163 -211208,-7103159 -211215,-7103155 -211220,-7103153 -211224,-7103151 -211229,-7103150 -211233,-7103149 -211238,-7103147 -211243,-7103146 -211247,-7103145 -211252,-7103144 -211257,-7103143 -211261,-7103142 -211264,-7103142 -211288,-7103136 -211313,-7103130 -211320,-7103129 -211407,-7103163 -211469,-7103170 -211483,-7103172 -211539,-7103178 -211647,-7103187 -211656,-7103189 -211666,-7103192 -211673,-7103194 -211688,-7103197 -211702,-7103199 -211717,-7103202 -211730,-7103204 -211784,-7103212 -211802,-7103215 -211875,-7103224 -212040,-7103203 -212083,-7103199 -212122,-7103222 -212172,-7103240 -212257,-7103278 -212285,-7103288 -212312,-7103291 -212388,-7103292 -212437,-7103295 -212525,-7103306 -212596,-7103315 -212632,-7103326 -212680,-7103340 -212712,-7103320 -212736,-7103325 -212751,-7103350 -212788,-7103355 -212845,-7103368 -212902,-7103373 -213146,-7103426 -213389,-7103480 -213437,-7103482 -213634,-7103526 -213670,-7103533 -213700,-7103539 -213713,-7103543 -213725,-7103546 -213730,-7103547 -213740,-7103549 -213751,-7103551 -213762,-7103553 -213772,-7103555 -213777,-7103555 -213803,-7103561 -213830,-7103567 -213843,-7103570 -214025,-7103611 -214269,-7103660 -214369,-7103681 -214463,-7103696 -214477,-7103704 -214506,-7103731 -214544,-7103755 -214585,-7103778 -214643,-7103804 -214645,-7103801 -214646,-7103797 -214692,-7103813 -214758,-7103828 -214795,-7103836 -214879,-7103849 -214897,-7103843 -214956,-7103855 -215011,-7103862 -215070,-7103862 -215152,-7103855 -215308,-7103835 -215321,-7103778 -215370,-7103646 -215414,-7103548 -215456,-7103398 -215509,-7103244 -215574,-7103152 -215665,-7103017 -215751,-7102898 -215806,-7102818 -215828,-7102784 -215847,-7102736 -215961,-7102581 -215999,-7102537 -216107,-7102415 -216156,-7102377 -216182,-7102342 -216192,-7102332 -216210,-7102319 -216236,-7102296 -216305,-7102230 -216502,-7102051 -216557,-7101997 -216594,-7101972 -216732,-7101845 -216749,-7101832 -216788,-7101806 -216829,-7101775 -217158,-7101579 -217297,-7101502 -217317,-7101486 -217361,-7101455 -217442,-7101414 -217572,-7101348 -217893,-7101168 -217975,-7101131 -218090,-7101081 -218195,-7101034 -218263,-7100999 -218319,-7100973 -218370,-7100961 -218422,-7100951 -218501,-7100928 -218544,-7100904 -218595,-7100842 -218647,-7100779 -218679,-7100728 -218694,-7100680 -218864,-7100281 -218910,-7100234 -219094,-7100073 -219246,-7099927 -219604,-7099598 -219650,-7099567 -219801,-7099477 -219941,-7099388 -220071,-7099306 -220122,-7099274 -220134,-7099266 -220274,-7099155 -220357,-7099089 -220456,-7099112 -220529,-7099134 -220637,-7099170 -220793,-7099201 -220991,-7099230 -221138,-7099251 -221228,-7099258 -221365,-7099266 -221568,-7099265 -221792,-7099254 -221938,-7099251 -222158,-7099190 -222686,-7099075 -222749,-7099059 -222802,-7099041 -222845,-7099031 -222905,-7099018 -223016,-7098999 -223144,-7098967 -223130,-7098880 -223111,-7098787 -223090,-7098666 -223089,-7098620 -223107,-7098533 -223097,-7098419 -223643,-7097959 -223693,-7097910 -223752,-7097884 -223825,-7097844 -223881,-7097817 -223922,-7097800 -224008,-7097760 -224053,-7097741 -224093,-7097720 -224182,-7097685 -224245,-7097650 -224254,-7097647 -224265,-7097644 -224283,-7097641 -224365,-7097636 -224380,-7097637 -224413,-7097650 -224459,-7097678 -224536,-7097710 -224580,-7097726 -224602,-7097736 -224634,-7097745 -224715,-7097758 -224766,-7097756 -224935,-7097742 -224943,-7097741 -225000,-7097741 -225203,-7097734 -225241,-7097796 -225269,-7097845 -225298,-7097892 -225350,-7097977 -225375,-7098025 -225403,-7098095 -225435,-7098211 -225466,-7098304 -225499,-7098415 -225540,-7098561 -225556,-7098608 -225582,-7098665 -225573,-7098765 -225563,-7098812 -225555,-7098860 -225554,-7098875 -225552,-7098969 -225559,-7099014 -225573,-7099073 -225593,-7099184 -225608,-7099247 -225621,-7099291 -225624,-7099296 -225629,-7099311 -225650,-7099362 -225686,-7099438 -225768,-7099593 -225929,-7099867 -225985,-7099974 -226053,-7100122 -226088,-7100215 -226084,-7100232 -226077,-7100249 -226064,-7100274 -226005,-7100398 -225965,-7100497 -225959,-7100517 -225950,-7100548 -225940,-7100598 -225934,-7100631 -225924,-7100680 -225911,-7100755 -225902,-7100838 -225882,-7101067 -225870,-7101184 -225901,-7101290 -225924,-7101374 -225952,-7101462 -225978,-7101550 -226059,-7101596 -226224,-7101682 -226307,-7101727 -226390,-7101764 -226475,-7101805 -226495,-7101814 -226516,-7101823 -226579,-7101845 -226707,-7101896 -226749,-7101930 -226847,-7102033 -227218,-7102428 -227239,-7102529 -227258,-7102665 -227267,-7102736 -227273,-7102828 -227274,-7102932 -227277,-7103028 -227274,-7103134 -227275,-7103176 -227274,-7103210 -227271,-7103249 -227268,-7103277 -227267,-7103286 -227244,-7103384 -227204,-7103547 -227193,-7103587 -227174,-7103651 -227158,-7103719 -227160,-7103749 -227170,-7103842 -227118,-7103894 -227056,-7103956 -227133,-7104244 -227150,-7104319 -227040,-7104346 -227047,-7104489 -227048,-7104511 -227026,-7104553 -227014,-7104570 -226985,-7104617 -226925,-7104728 -226854,-7104864 -226740,-7105092 -226711,-7105145 -226644,-7105430 -226624,-7105512 -226612,-7105578 -226599,-7105748 -226598,-7105775 -226600,-7105812 -226606,-7105857 -226614,-7105899 -226621,-7105929 -226651,-7106035 -226661,-7106082 -226684,-7106173 -226704,-7106229 -226747,-7106306 -226773,-7106338 -226805,-7106386 -226768,-7106465 -226789,-7106484 -226793,-7106488 -226895,-7106561 -226969,-7106621 -227086,-7106702 -227192,-7106773 -227238,-7106804 -227555,-7107006 -227587,-7107023 -227599,-7107031 -227629,-7107052 -227681,-7107103 -227859,-7107274 -227904,-7107319 -227929,-7107344 -228040,-7107470 -228059,-7107496 -228090,-7107554 -228148,-7107657 -228162,-7107675 -228168,-7107681 -228205,-7107708 -228218,-7107719 -228229,-7107725 -228261,-7107736 -228333,-7107753 -228450,-7107800 -228462,-7107828 -228476,-7107858 -228499,-7107903 -228514,-7107937 -228529,-7107963 -228555,-7108032 -228576,-7108075 -228592,-7108114 -228617,-7108164 -228622,-7108179 -228631,-7108213 -228647,-7108269 -228693,-7108474 -228707,-7108552 -228720,-7108620 -228724,-7108656 -228743,-7108819 -228745,-7108870 -228748,-7108911 -228748,-7108947 -228745,-7108968 -228737,-7109018 -228725,-7109073 -228712,-7109120 -228708,-7109150 -228706,-7109157 -228701,-7109176 -228692,-7109201 -228677,-7109233 -228625,-7109336 -228594,-7109387 -228547,-7109453 -228527,-7109479 -228502,-7109508 -228474,-7109540 -228451,-7109564 -228435,-7109579 -228409,-7109601 -228348,-7109648 -228286,-7109692 -228225,-7109734 -228082,-7109826 -228211,-7110142 -228309,-7110398 -228343,-7110477 -228528,-7110386 -228586,-7110361 -228634,-7110339 -228674,-7110325 -228728,-7110311 -228822,-7110284 -228897,-7110373 -228904,-7110360 -228910,-7110354 -228917,-7110351 -228924,-7110349 -228928,-7110349 -228932,-7110350 -228950,-7110360 -228952,-7110357 -228959,-7110345 -228964,-7110340 -228970,-7110336 -228973,-7110335 -228979,-7110336 -228982,-7110339 -228991,-7110363 -228995,-7110369 -229002,-7110373 -229007,-7110373 -229012,-7110373 -229028,-7110366 -229066,-7110358 -229233,-7110338 -229255,-7110334 -229272,-7110331 -229278,-7110328 -229300,-7110307 -229312,-7110301 -229314,-7110301 -229334,-7110307 -229341,-7110308 -229348,-7110308 -229355,-7110307 -229360,-7110305 -229365,-7110301 -229375,-7110292 -229382,-7110289 -229391,-7110290 -229412,-7110297 -229456,-7110303 -229511,-7110319 -229517,-7110319 -229520,-7110318 -229523,-7110315 -229525,-7110312 -229526,-7110307 -229542,-7110275 -229548,-7110267 -229566,-7110249 -229599,-7110226 -229723,-7110167 -229811,-7110119 -229846,-7110095 -229881,-7110071 -229897,-7110025 -229918,-7110005 -229927,-7109992 -229934,-7109987 -229961,-7109974 -229976,-7109964 -229984,-7109957 -230001,-7109940 -230015,-7109936 -230042,-7109912 -230060,-7109902 -230114,-7109880 -230127,-7109873 -230160,-7109847 -230181,-7109835 -230204,-7109816 -230224,-7109811 -230234,-7109806 -230241,-7109799 -230247,-7109774 -230294,-7109755 -230311,-7109747 -230343,-7109728 -230360,-7109720 -230366,-7109716 -230381,-7109700 -230391,-7109694 -230393,-7109691 -230407,-7109664 -230411,-7109658 -230415,-7109654 -230441,-7109641 -230471,-7109619 -230482,-7109608 -230486,-7109603 -230494,-7109588 -230505,-7109586 -230511,-7109580 -230516,-7109576 -230521,-7109573 -230528,-7109572 -230541,-7109571 -230557,-7109572 -230562,-7109572 -230570,-7109570 -230599,-7109542 -230606,-7109531 -230612,-7109504 -230623,-7109477 -230623,-7109462 -230624,-7109458 -230631,-7109444 -230636,-7109440 -230671,-7109429 -230681,-7109426 -230685,-7109423 -230690,-7109418 -230693,-7109412 -230695,-7109408 -230700,-7109381 -230701,-7109378 -230706,-7109373 -230781,-7109350 -230790,-7109335 -230796,-7109326 -230803,-7109318 -230809,-7109315 -230829,-7109310 -230854,-7109312 -230861,-7109310 -230864,-7109308 -230871,-7109301 -230877,-7109298 -230883,-7109298 -230896,-7109300 -230917,-7109311 -230930,-7109313 -230940,-7109312 -230989,-7109305 -230997,-7109301 -231005,-7109296 -231028,-7109273 -231037,-7109268 -231041,-7109268 -231047,-7109270 -231060,-7109284 -231062,-7109290 -231066,-7109294 -231070,-7109297 -231074,-7109297 -231077,-7109297 -231096,-7109292 -231118,-7109288 -231129,-7109285 -231135,-7109284 -231162,-7109285 -231176,-7109288 -231184,-7109291 -231196,-7109299 -231207,-7109303 -231215,-7109304 -231229,-7109301 -231232,-7109300 -231269,-7109302 -231323,-7109325 -231341,-7109332 -231376,-7109343 -231406,-7109373 -231417,-7109383 -231454,-7109388 -231464,-7109387 -231475,-7109390 -231495,-7109405 -231499,-7109410 -231503,-7109419 -231504,-7109439 -231507,-7109446 -231511,-7109450 -231514,-7109453 -231519,-7109456 -231533,-7109461 -231574,-7109470 -231589,-7109472 -231645,-7109474 -231686,-7109473 -231756,-7109461 -231771,-7109464 -231804,-7109460 -231819,-7109457 -231825,-7109455 -231867,-7109430 -231886,-7109426 -231897,-7109421 -231918,-7109399 -231944,-7109371 -231996,-7109344 -231991,-7109292 -231975,-7109154 -231971,-7109117 -231963,-7109052 -231963,-7109018 -231964,-7109002 -231971,-7108955 -231982,-7108839 -232004,-7108669 -232001,-7108609 -232026,-7108484 -232033,-7108460 -232035,-7108456 -232058,-7108430 -232063,-7108406 -232115,-7108315 -232134,-7108299 -232144,-7108292 -232165,-7108283 -232171,-7108278 -232178,-7108276 -232192,-7108276 -232200,-7108274 -232220,-7108267 -232228,-7108250 -232232,-7108218 -232223,-7108174 -232224,-7108141 -232241,-7108116 -232261,-7108096 -232266,-7108089 -232272,-7108083 -232279,-7108079 -232337,-7108056 -232353,-7108052 -232372,-7108049 -232395,-7108047 -232428,-7108065 -232435,-7108077 -232439,-7108079 -232448,-7108080 -232460,-7108079 -232487,-7108069 -232510,-7108034 -232516,-7108034 -232519,-7108036 -232527,-7108040 -232532,-7108042 -232569,-7108049 -232581,-7108048 -232598,-7108042 -232623,-7108041 -232633,-7108043 -232645,-7108049 -232651,-7108058 -232657,-7108076 -232677,-7108086 -232689,-7108086 -232732,-7108066 -232755,-7108059 -232788,-7108043 -232799,-7108040 -232803,-7108028 -232834,-7108019 -232858,-7108010 -232855,-7107987 -232868,-7107978 -232888,-7107959 -232899,-7107952 -232904,-7107950 -232919,-7107947 -232959,-7107942 -232981,-7107934 -232987,-7107945 -232994,-7107949 -233008,-7107952 -233036,-7107962 -233043,-7107965 -233054,-7107974 -233063,-7107983 -233098,-7108004 -233143,-7108048 -233146,-7108055 -233197,-7108106 -233219,-7108120 -233232,-7108128 -233266,-7108142 -233290,-7108165 -233305,-7108171 -233340,-7108198 -233346,-7108203 -233358,-7108216 -233363,-7108223 -233377,-7108251 -233441,-7108397 -234222,-7108287 -234592,-7108247 -234707,-7108228 -235064,-7108163 -235280,-7108121 -235341,-7108117 -235394,-7108122 -235558,-7108135 -235784,-7108138 -236200,-7108479 -236444,-7108684 -236596,-7108813 -236550,-7108873 -236683,-7108952 -236687,-7108955 -236690,-7108959 -236694,-7108969 -236726,-7109109 -236734,-7109147 -236745,-7109197 -236767,-7109311 -236756,-7109468 -236750,-7109494 -236747,-7109529 -236748,-7109561 -236752,-7109594 -236753,-7109622 -236758,-7109649 -236763,-7109708 -236767,-7109735 -236784,-7109807 -236807,-7109917 -236813,-7109964 -236841,-7110044 -236846,-7110065 -236852,-7110076 -236880,-7110119 -236939,-7110200 -237016,-7110280 -237084,-7110356 -237095,-7110366 -237114,-7110384 -237131,-7110397 -237165,-7110415 -237208,-7110447 -237234,-7110463 -237262,-7110478 -237360,-7110544 -237428,-7110610 -237485,-7110739 -237508,-7110770 -237569,-7110861 -237583,-7110851 -237592,-7110845 -237603,-7110839 -237624,-7110828 -237627,-7110825 -237631,-7110819 -237637,-7110790 -237641,-7110782 -237645,-7110773 -237650,-7110766 -237655,-7110761 -237669,-7110749 -237673,-7110747 -237688,-7110743 -237708,-7110722 -237715,-7110711 -237716,-7110707 -237723,-7110675 -237725,-7110673 -237728,-7110669 -237732,-7110665 -237737,-7110661 -237753,-7110656 -237761,-7110650 -237776,-7110625 -237809,-7110596 -237855,-7110563 -237865,-7110552 -237872,-7110547 -237886,-7110538 -237889,-7110536 -237921,-7110529 -237957,-7110516 -237967,-7110515 -237980,-7110517 -237982,-7110517 -237992,-7110513 -238013,-7110496 -238099,-7110406 -238133,-7110367 -238152,-7110349 -238183,-7110321 -238192,-7110311 -238229,-7110237 -238242,-7110209 -238263,-7110121 -238268,-7110080 -238268,-7110030 -238271,-7109980 -238271,-7109905 -238275,-7109877 -238278,-7109865 -238283,-7109852 -238287,-7109837 -238307,-7109764 -238310,-7109734 -238314,-7109713 -238321,-7109687 -238340,-7109630 -238345,-7109590 -238350,-7109576 -238367,-7109543 -238383,-7109517 -238414,-7109460 -238441,-7109434 -238448,-7109426 -238455,-7109420 -238464,-7109413 -238475,-7109408 -238484,-7109405 -238492,-7109403 -238501,-7109403 -238512,-7109406 -238522,-7109411 -238531,-7109416 -238548,-7109432 -238559,-7109444 -238617,-7109501 -238644,-7109535 -238715,-7109645 -238740,-7109685 -238756,-7109717 -238774,-7109767 -238786,-7109804 -238814,-7109868 -238833,-7109931 -238843,-7109966 -238853,-7109996 -238871,-7110039 -238906,-7110141 -238928,-7110202 -238985,-7110328 -238997,-7110358 -239054,-7110543 -239105,-7110747 -239125,-7110856 -239133,-7110895 -239134,-7110910 -239133,-7110933 -239124,-7110999 -239124,-7111029 -239121,-7111061 -239116,-7111086 -239109,-7111112 -239072,-7111287 -239045,-7111402 -239033,-7111448 -239021,-7111485 -239002,-7111537 -238951,-7111675 -238943,-7111696 -238858,-7111890 -238808,-7112003 -238796,-7112047 -238796,-7112056 -238801,-7112076 -238808,-7112094 -238818,-7112109 -238848,-7112137 -238893,-7112173 -238952,-7112225 -238952,-7112235 -239061,-7112314 -239241,-7112436 -239386,-7112525 -239450,-7112557 -239603,-7112645 -239662,-7112669 -240120,-7112861 -240302,-7112962 -240573,-7113104 -240650,-7113245 -240695,-7113323 -240737,-7113396 -240730,-7113557 -240719,-7113729 -240696,-7114035 -240685,-7114244 -240677,-7114364 -240688,-7114496 -240710,-7114719 -240731,-7114907 -240759,-7114981 -240787,-7115041 -240820,-7115120 -240901,-7115267 -240933,-7115311 -240980,-7115364 -241090,-7115460 -241096,-7115496 -241108,-7115581 -241117,-7115649 -241152,-7115851 -241192,-7116038 -241210,-7116084 -241273,-7116149 -241313,-7116209 -241411,-7116373 -241482,-7116502 -241567,-7116603 -241644,-7116663 -241707,-7116706 -241785,-7116771 -241761,-7116787 -241744,-7116817 -241730,-7116837 -241721,-7116870 -241694,-7116925 -241689,-7116943 -241684,-7116962 -241685,-7117007 -241693,-7117042 -241712,-7117086 -241666,-7117121 -241533,-7117195 -241632,-7117393 -241651,-7117428 -241678,-7117463 -241704,-7117496 -241698,-7117505 -241711,-7117549 -241744,-7117606 -241881,-7117797 -241929,-7117871 -241903,-7117915 -241859,-7117988 -241777,-7118126 -241756,-7118168 -241732,-7118225 -241725,-7118245 -241718,-7118286 -241701,-7118288 -241687,-7118294 -241651,-7118316 -241635,-7118325 -241601,-7118340 -241576,-7118361 -241534,-7118406 -241521,-7118422 -241494,-7118460 -241464,-7118498 -241435,-7118527 -241411,-7118548 -241402,-7118573 -241380,-7118586 -241356,-7118610 -241335,-7118629 -241314,-7118632 -241300,-7118639 -241304,-7118655 -241280,-7118679 -241271,-7118687 -241252,-7118691 -241243,-7118709 -241236,-7118731 -241225,-7118751 -241195,-7118774 -241182,-7118799 -241175,-7118821 -241169,-7118857 -241165,-7118893 -241161,-7118908 -241156,-7118923 -241145,-7118935 -241139,-7118951 -241138,-7118960 -241139,-7118993 -241132,-7119017 -241113,-7119045 -241094,-7119065 -241083,-7119081 -241042,-7119126 -241008,-7119156 -241013,-7119177 -241005,-7119184 -240993,-7119188 -240979,-7119246 -240978,-7119274 -240971,-7119308 -240931,-7119359 -240911,-7119377 -240903,-7119393 -240886,-7119424 -240867,-7119439 -240847,-7119441 -240828,-7119449 -240809,-7119466 -240780,-7119486 -240744,-7119484 -240733,-7119484 -240718,-7119499 -240711,-7119513 -240696,-7119521 -240680,-7119544 -240661,-7119562 -240640,-7119560 -240597,-7119557 -240590,-7119559 -240583,-7119562 -240572,-7119574 -240566,-7119591 -240559,-7119601 -240516,-7119606 -240508,-7119618 -240485,-7119619 -240477,-7119623 -240470,-7119628 -240454,-7119650 -240461,-7119664 -240461,-7119687 -240452,-7119707 -240410,-7119733 -240384,-7119739 -240366,-7119734 -240346,-7119746 -240320,-7119754 -240298,-7119758 -240281,-7119768 -240257,-7119771 -240229,-7119771 -240202,-7119773 -240179,-7119782 -240149,-7119780 -240114,-7119780 -240094,-7119843 -240056,-7119858 -240026,-7119875 -240026,-7119877 -240040,-7119917 -240051,-7119968 -240054,-7119984 -240084,-7120081 -240100,-7120109 -240081,-7120131 -240047,-7120157 -240014,-7120188 -239992,-7120179 -239973,-7120197 -239946,-7120177 -239924,-7120165 -239902,-7120154 -239868,-7120140 -239840,-7120118 -239800,-7120092 -239752,-7120064 -239678,-7120025 -239638,-7120078 -239627,-7120094 -239601,-7120133 -239577,-7120188 -239575,-7120188 -239561,-7120180 -239530,-7120155 -239507,-7120139 -239496,-7120132 -239463,-7120116 -239450,-7120112 -239382,-7120096 -239352,-7120088 -239339,-7120084 -239294,-7120058 -239275,-7120038 -239260,-7120018 -239255,-7120009 -239236,-7119960 -239235,-7119919 -239226,-7119920 -239209,-7119928 -239202,-7119935 -239165,-7119979 -239154,-7120012 -239147,-7120052 -239144,-7120064 -239134,-7120087 -239128,-7120147 -239118,-7120168 -239102,-7120190 -239092,-7120201 -239061,-7120229 -239020,-7120255 -239005,-7120262 -238977,-7120274 -238949,-7120277 -238918,-7120278 -238897,-7120283 -238885,-7120287 -238860,-7120298 -238847,-7120305 -238825,-7120325 -238819,-7120333 -238813,-7120340 -238806,-7120357 -238807,-7120381 -238803,-7120400 -238796,-7120414 -238780,-7120434 -238798,-7120467 -238804,-7120479 -238727,-7120523 -238643,-7120567 -238664,-7120592 -238677,-7120619 -238692,-7120644 -238709,-7120677 -238724,-7120758 -238741,-7120778 -238701,-7120777 -238708,-7120794 -238722,-7120806 -238733,-7120819 -238750,-7120842 -238758,-7120851 -238765,-7120865 -238761,-7120877 -238752,-7120880 -238736,-7120877 -238700,-7120876 -238674,-7120874 -238654,-7120871 -238638,-7120869 -238618,-7120866 -238585,-7120886 -238567,-7120901 -238562,-7120917 -238557,-7120945 -238553,-7120952 -238549,-7120959 -238527,-7120974 -238515,-7120988 -238521,-7121038 -238498,-7121075 -238472,-7121116 -238465,-7121140 -238449,-7121153 -238441,-7121160 -238425,-7121185 -238414,-7121216 -238407,-7121250 -238403,-7121280 -238395,-7121294 -238387,-7121307 -238356,-7121346 -238339,-7121370 -238336,-7121381 -238329,-7121408 -238326,-7121424 -238327,-7121451 -238332,-7121461 -238350,-7121485 -238344,-7121505 -238333,-7121533 -238335,-7121545 -238341,-7121571 -238354,-7121626 -238356,-7121636 -238355,-7121658 -238350,-7121679 -238356,-7121696 -238373,-7121723 -238378,-7121731 -238405,-7121746 -238414,-7121757 -238424,-7121783 -238431,-7121803 -238426,-7121820 -238414,-7121836 -238410,-7121846 -238406,-7121857 -238405,-7121874 -238405,-7121892 -238405,-7121949 -238409,-7121960 -238424,-7121987 -238424,-7121996 -238422,-7122004 -238418,-7122009 -238399,-7122029 -238391,-7122049 -238392,-7122071 -238398,-7122085 -238392,-7122102 -238394,-7122120 -238405,-7122127 -238409,-7122142 -238406,-7122148 -238401,-7122156 -238343,-7122198 -238324,-7122215 -238316,-7122233 -238311,-7122241 -238296,-7122263 -238286,-7122283 -238271,-7122301 -238218,-7122349 -238189,-7122372 -238160,-7122397 -238140,-7122420 -238121,-7122447 -238104,-7122465 -238084,-7122479 -238057,-7122494 -238049,-7122501 -238031,-7122523 -238017,-7122532 -237984,-7122537 -237962,-7122546 -237946,-7122570 -237933,-7122580 -237895,-7122587 -237883,-7122590 -237871,-7122614 -237866,-7122634 -237851,-7122650 -237832,-7122657 -237805,-7122657 -237780,-7122659 -237741,-7122669 -237720,-7122682 -237707,-7122696 -237693,-7122707 -237644,-7122728 -237608,-7122750 -237571,-7122785 -237526,-7122833 -237506,-7122863 -237492,-7122889 -237414,-7122977 -237331,-7123100 -237305,-7123146 -237277,-7123178 -237255,-7123209 -237241,-7123241 -237203,-7123340 -237173,-7123428 -237164,-7123466 -237165,-7123492 -237163,-7123517 -237160,-7123527 -237154,-7123548 -237150,-7123559 -237137,-7123577 -237124,-7123601 -237120,-7123618 -237109,-7123674 -237104,-7123688 -237099,-7123703 -237077,-7123755 -237069,-7123776 -237057,-7123814 -237088,-7123891 -237104,-7123943 -237136,-7124023 -237152,-7124069 -237202,-7124207 -237243,-7124329 -237271,-7124408 -237281,-7124444 -237287,-7124469 -237287,-7124480 -237285,-7124497 -237265,-7124625 -237261,-7124683 -237241,-7124822 -237232,-7124894 -237228,-7124920 -237214,-7124973 -237197,-7125051 -237118,-7125414 -237149,-7125514 -237195,-7125668 -237197,-7125805 -237197,-7125952 -237193,-7125965 -237179,-7126000 -237181,-7126018 -237179,-7126074 -237164,-7126175 -237147,-7126269 -237142,-7126329 -237118,-7126393 -237130,-7126460 -237132,-7126494 -237134,-7126529 -237132,-7126648 -237136,-7126778 -237144,-7126911 -237156,-7127047 -237162,-7127166 -237193,-7127322 -237230,-7127458 -237259,-7127547 -237267,-7127559 -237276,-7127571 -237410,-7127680 -237424,-7127693 -237449,-7127716 -237471,-7127739 -237492,-7127762 -237503,-7127774 -237540,-7127825 -237670,-7128005 -237708,-7128149 -237760,-7128361 -237765,-7128382 -237818,-7128620 -237805,-7128660 -237753,-7128768 -237718,-7128835 -237700,-7128855 -237616,-7128941 -237585,-7128981 -237544,-7129013 -237447,-7129128 -237352,-7129243 -237316,-7129295 -237273,-7129365 -237220,-7129470 -237164,-7129568 -237130,-7129600 -237095,-7129622 -236961,-7129682 -236812,-7129752 -236752,-7129832 -236662,-7129940 -236599,-7130024 -236542,-7130095 -236533,-7130118 -236535,-7130157 -236542,-7130180 -236560,-7130231 -236631,-7130419 -236656,-7130436 -236701,-7130464 -236855,-7130553 -236905,-7130583 -236926,-7130597 -236949,-7130609 -236979,-7130620 -236986,-7130623 -236998,-7130631 -237006,-7130637 -237012,-7130643 -237023,-7130658 -237029,-7130670 -237044,-7130722 -237050,-7130757 -237061,-7130768 -237071,-7130781 -237079,-7130792 -237060,-7130861 -237057,-7130913 -237047,-7130954 -237046,-7130978 -237046,-7130992 -237048,-7131002 -237054,-7131019 -237055,-7131024 -237055,-7131032 -237054,-7131036 -237053,-7131039 -237041,-7131045 -237037,-7131050 -237024,-7131078 -237021,-7131088 -237019,-7131107 -237016,-7131117 -237006,-7131134 -237004,-7131139 -237003,-7131164 -237000,-7131176 -236999,-7131178 -236964,-7131208 -236944,-7131229 -236936,-7131240 -236931,-7131247 -236921,-7131276 -236914,-7131291 -236912,-7131310 -236911,-7131313 -236902,-7131318 -236899,-7131321 -236896,-7131326 -236895,-7131341 -236893,-7131343 -236886,-7131349 -236873,-7131356 -236872,-7131359 -236871,-7131363 -236873,-7131368 -236879,-7131375 -236882,-7131385 -236882,-7131391 -236871,-7131461 -236870,-7131476 -236871,-7131489 -236875,-7131509 -236887,-7131532 -236887,-7131544 -236887,-7131551 -236887,-7131570 -236881,-7131644 -236878,-7131719 -236906,-7131760 -236913,-7131767 -236916,-7131772 -236918,-7131779 -236916,-7131791 -236917,-7131796 -236926,-7131808 -236926,-7131811 -236923,-7131828 -236922,-7131842 -236919,-7131851 -236915,-7131857 -236898,-7131878 -236893,-7131887 -236891,-7131896 -236889,-7131919 -236886,-7131932 -236874,-7131970 -236867,-7132001 -236865,-7132026 -236865,-7132042 -236867,-7132053 -236870,-7132064 -236875,-7132076 -236880,-7132087 -236886,-7132097 -236911,-7132128 -236914,-7132134 -236918,-7132146 -236920,-7132166 -236922,-7132171 -236928,-7132182 -236928,-7132184 -236927,-7132186 -236925,-7132189 -236919,-7132193 -236905,-7132199 -236880,-7132211 -236865,-7132225 -236860,-7132228 -236852,-7132231 -236845,-7132233 -236792,-7132254 -236779,-7132256 -236744,-7132261 -236695,-7132271 -236687,-7132277 -236668,-7132292 -236628,-7132328 -236447,-7132454 -236257,-7132599 -236110,-7132709 -236065,-7132743 -235945,-7132835 -235735,-7132990 -235506,-7133176 -235407,-7133247 -235244,-7133371 -235137,-7133445 -234731,-7133706 -234704,-7133724 -234576,-7133809 -234311,-7133976 -234097,-7134113 -234081,-7134123 -234022,-7134166 -233976,-7134202 -233891,-7134270 -233635,-7134485 -233634,-7134492 -233633,-7134498 -233573,-7134550 -233462,-7134647 -233369,-7134721 -233285,-7134775 -232919,-7135005 -232904,-7135015 -232889,-7135025 -232849,-7135064 -232788,-7135136 -232715,-7135218 -232692,-7135242 -232688,-7135246 -232646,-7135289 -232554,-7135388 -232435,-7135507 -232370,-7135583 -232290,-7135669 -232232,-7135731 -232138,-7135827 -232112,-7135847 -232085,-7135867 -231972,-7135919 -231970,-7135920 -231829,-7135983 -231576,-7136103 -231532,-7136124 -231502,-7136138 -231408,-7136183 -231338,-7136218 -231258,-7136259 -231068,-7136353 -230924,-7136422 -230397,-7136720 -230251,-7136806 -230112,-7136880 -229987,-7136953 -229927,-7136985 -229792,-7137048 -229606,-7137138 -229583,-7137149 -229457,-7137202 -229337,-7137092 -229284,-7137044 -229174,-7136948 -229075,-7136855 -228986,-7136777 -228907,-7136711 -228785,-7136599 -228639,-7136470 -228400,-7136257 -228367,-7136227 -228237,-7136116 -228124,-7136036 -228036,-7135973 -227920,-7135905 -227857,-7135864 -227597,-7135660 -227552,-7135624 -227382,-7135530 -227374,-7135526 -227296,-7135478 -227248,-7135445 -227221,-7135421 -227170,-7135401 -227149,-7135381 -227116,-7135365 -226887,-7135221 -226860,-7135196 -226856,-7135191 -226750,-7135113 -226736,-7135098 -226727,-7135089 -226684,-7135039 -226672,-7135022 -226663,-7135002 -226653,-7134970 -226649,-7134953 -226631,-7134857 -226630,-7134816 -226627,-7134790 -226625,-7134779 -226623,-7134771 -226618,-7134760 -226609,-7134744 -226592,-7134718 -226582,-7134705 -226566,-7134688 -226557,-7134679 -226520,-7134647 -226506,-7134634 -226471,-7134596 -226461,-7134583 -226449,-7134560 -226438,-7134543 -226423,-7134499 -226422,-7134497 -226415,-7134489 -226334,-7134389 -226195,-7134207 -226187,-7134173 -226158,-7134085 -226132,-7134069" stroke="white" stroke-width="89" /></ns0:svg>    <rect x="20" y="50"  width="250" height="25"  rx="0"  fill="#E8EDEE" fill-opacity="0.8" />    <text x="145" y="70" text-anchor="middle" font-family="Frutiger" font-weight="bold" font-size="30" fill="#AE2573">Calderdale</text>    <rect x="35" y="195" width="220" height="160" rx="15" fill="#724F95"/>    <g font-family="Frutiger" font-size="15" fill="white">        <g> <text x="45" y="218">Self-harm</text> <text x="245" y="218" text-anchor="end">22</text> </g>        <g> <text x="45" y="243">SEN</text> <text x="245" y="243" text-anchor="end">27</text> </g>        <g> <text x="45" y="268">Difficulties</text> <text x="245" y="268" text-anchor="end">71</text> </g>        <g> <text x="45" y="293">Child Carer</text> <text x="245" y="293" text-anchor="end">8</text> </g>        <g> <text x="45" y="318">Drinkers</text> <text x="245" y="318" text-anchor="end">66</text> </g>        <g> <text x="45" y="343">Safeguarding </text> <text x="245" y="343" text-anchor="end">32</text> </g>    </g></svg>