<?xml version="1.0" standalone="no"?>
<!DOCTYPE svg PUBLIC "-//W3C//DTD SVG 1.1//EN"
"http://www.w3.org/Graphics/SVG/1.1/DTD/svg11.dtd">
<svg height="1800" version="1.1" width="1800" xmlns="http://www.w3.org/2000/svg"><defs><style type="text/css">@font-face {font-family: 'Frutiger';font-style: normal;font-weight: normal;src: local('Frutiger'), url('../fonts/Frutiger.woff') format('woff');}@font-face {font-family: 'Frutiger Bold';font-style: normal;font-weight: normal;src: local('Frutiger Bold'), url('../fonts/Frutiger_bold.woff') format('woff');}        </style>    </defs>    <rect x="20" y="20"  width="250" height="350" rx="15" fill="#009639" />    <rect x="35" y="35"  width="220" height="145" rx="15" fill="#E8EDEE" /><ns0:svg xmlns:ns0="http://www.w3.org/2000/svg" height="115" version="1.1" viewBox="-258252 -7084378 19269 38218" width="220" x="35" y="50"><ns0:polygon fill="#006747" points=" -249573,-7083774 -249386,-7083600 -249381,-7083607 -249375,-7083596 -249284,-7083529 -249227,-7083463 -249230,-7083420 -249217,-7083404 -249254,-7083372 -249182,-7083288 -249120,-7083289 -249105,-7083276 -249047,-7083301 -249010,-7083311 -248995,-7083318 -248979,-7083322 -248964,-7083322 -248915,-7083316 -248860,-7083310 -248847,-7083339 -248817,-7083362 -248785,-7083375 -248766,-7083376 -248720,-7083364 -248702,-7083363 -248685,-7083377 -248680,-7083394 -248675,-7083477 -248669,-7083496 -248664,-7083509 -248644,-7083538 -248633,-7083545 -248618,-7083548 -248448,-7083563 -248356,-7083573 -248323,-7083582 -248283,-7083602 -248226,-7083645 -248191,-7083661 -248173,-7083660 -248143,-7083644 -248128,-7083640 -248115,-7083644 -248095,-7083663 -248062,-7083710 -248043,-7083741 -248035,-7083762 -248028,-7083788 -248019,-7083797 -247999,-7083807 -247998,-7083808 -247997,-7083808 -247993,-7083810 -247988,-7083812 -247988,-7083812 -247978,-7083815 -247963,-7083818 -247948,-7083820 -247917,-7083824 -247878,-7083831 -247817,-7083851 -247779,-7083865 -247710,-7083880 -247674,-7083884 -247633,-7083885 -247611,-7083892 -247584,-7083903 -247538,-7083928 -247524,-7083932 -247479,-7083937 -247461,-7083947 -247427,-7083975 -247401,-7083991 -247377,-7084001 -247329,-7084017 -247299,-7084018 -247216,-7084016 -247149,-7084078 -247107,-7084114 -247096,-7084130 -247086,-7084158 -247083,-7084189 -247080,-7084208 -247076,-7084223 -247069,-7084234 -247053,-7084242 -247030,-7084248 -246999,-7084248 -246987,-7084246 -246973,-7084231 -246959,-7084205 -246950,-7084196 -246911,-7084174 -246885,-7084163 -246868,-7084111 -246863,-7084093 -246864,-7084024 -246872,-7083967 -246849,-7083955 -246824,-7083943 -246789,-7083934 -246748,-7083933 -246718,-7083924 -246668,-7083928 -246650,-7083929 -246632,-7083930 -246567,-7083947 -246522,-7083920 -246441,-7083889 -246392,-7083891 -246390,-7083913 -246377,-7083922 -246365,-7083923 -246357,-7083918 -246346,-7083903 -246341,-7083885 -246306,-7083847 -246286,-7083817 -246263,-7083808 -246249,-7083796 -246233,-7083777 -246203,-7083752 -246178,-7083712 -246141,-7083682 -246118,-7083658 -246107,-7083635 -246108,-7083587 -246086,-7083549 -246067,-7083511 -246054,-7083497 -245984,-7083455 -245952,-7083403 -245932,-7083359 -245907,-7083332 -245892,-7083300 -245892,-7083282 -245875,-7083264 -245860,-7083231 -245853,-7083223 -245844,-7083221 -245831,-7083223 -245819,-7083230 -245798,-7083235 -245761,-7083234 -245742,-7083230 -245727,-7083216 -245695,-7083176 -245674,-7083146 -245661,-7083119 -245586,-7083016 -245553,-7082966 -245531,-7082933 -245531,-7082920 -245530,-7082887 -245573,-7082833 -245614,-7082797 -245632,-7082779 -245645,-7082756 -245661,-7082742 -245674,-7082728 -245676,-7082696 -245678,-7082628 -245667,-7082583 -245668,-7082533 -245669,-7082479 -245671,-7082458 -245656,-7082430 -245653,-7082405 -245653,-7082404 -245651,-7082389 -245648,-7082376 -245601,-7082322 -245597,-7082317 -245591,-7082306 -245573,-7082269 -245556,-7082246 -245553,-7082242 -245552,-7082241 -245551,-7082239 -245549,-7082219 -245531,-7082213 -245514,-7082194 -245512,-7082193 -245482,-7082182 -245461,-7082168 -245444,-7082152 -245443,-7082149 -245437,-7082133 -245404,-7082109 -245378,-7082113 -245344,-7082115 -245326,-7082116 -245296,-7082103 -245295,-7082099 -245294,-7082096 -245287,-7082096 -245279,-7082095 -245252,-7082082 -245247,-7082077 -245240,-7082069 -245207,-7082058 -245178,-7082050 -245171,-7082045 -245162,-7082037 -245159,-7082036 -245148,-7082035 -245141,-7082040 -245137,-7082037 -245129,-7082034 -245121,-7082032 -245085,-7082029 -245025,-7081995 -245022,-7081996 -245007,-7082003 -245002,-7081999 -245002,-7081996 -245004,-7081979 -244994,-7081979 -244987,-7081980 -244967,-7081971 -244877,-7081969 -244832,-7081976 -244786,-7081978 -244721,-7081975 -244658,-7081972 -244634,-7081973 -244606,-7081974 -244563,-7081979 -244495,-7081977 -244413,-7081973 -244408,-7081972 -244330,-7081963 -244280,-7081958 -244225,-7081950 -244214,-7081947 -243722,-7081699 -243657,-7081667 -243619,-7081645 -243443,-7081527 -243345,-7081465 -243332,-7081462 -243284,-7081460 -243224,-7081455 -243174,-7081451 -243161,-7081450 -243105,-7081436 -243006,-7081407 -242954,-7081391 -242640,-7081301 -242596,-7081292 -242575,-7081288 -242526,-7081275 -242478,-7081261 -242384,-7081230 -242353,-7081216 -242338,-7081209 -242317,-7081207 -242257,-7081202 -242130,-7081175 -241985,-7081144 -241798,-7081101 -241798,-7081102 -241801,-7081230 -241660,-7081217 -241661,-7081220 -241587,-7081219 -241587,-7081218 -241587,-7081191 -241586,-7081144 -241585,-7081002 -241599,-7080762 -241619,-7080509 -241468,-7080440 -241453,-7080412 -241369,-7080300 -241133,-7079992 -240988,-7079807 -240983,-7079800 -240802,-7079902 -240762,-7079926 -240627,-7080000 -240541,-7080054 -240359,-7080167 -240326,-7080107 -240289,-7080030 -240276,-7080010 -240114,-7079706 -240035,-7079552 -240007,-7079520 -239970,-7079459 -239959,-7079447 -239935,-7079430 -239918,-7079420 -239890,-7079424 -239880,-7079419 -239866,-7079400 -239874,-7079347 -239886,-7079298 -239922,-7079196 -239941,-7079156 -239981,-7079076 -240030,-7078985 -240031,-7078984 -240039,-7078989 -240039,-7079003 -240043,-7079041 -240054,-7079075 -240055,-7079077 -240093,-7079040 -240125,-7079012 -240147,-7078999 -240163,-7078985 -240177,-7078964 -240200,-7078948 -240235,-7078915 -240248,-7078903 -240271,-7078874 -240282,-7078842 -240265,-7078819 -240272,-7078814 -240288,-7078813 -240304,-7078809 -240317,-7078798 -240325,-7078783 -240324,-7078766 -240310,-7078750 -240317,-7078745 -240368,-7078740 -240390,-7078730 -240410,-7078708 -240422,-7078690 -240423,-7078681 -240419,-7078667 -240422,-7078662 -240435,-7078655 -240446,-7078654 -240472,-7078653 -240485,-7078649 -240495,-7078640 -240498,-7078631 -240497,-7078619 -240476,-7078588 -240476,-7078579 -240500,-7078565 -240531,-7078537 -240541,-7078528 -240542,-7078516 -240536,-7078511 -240504,-7078494 -240501,-7078487 -240498,-7078477 -240498,-7078470 -240500,-7078466 -240502,-7078460 -240516,-7078457 -240548,-7078449 -240579,-7078435 -240586,-7078435 -240593,-7078436 -240616,-7078442 -240642,-7078439 -240659,-7078431 -240677,-7078427 -240697,-7078431 -240721,-7078439 -240738,-7078448 -240767,-7078448 -240781,-7078441 -240793,-7078443 -240837,-7078460 -240874,-7078476 -240888,-7078489 -240908,-7078526 -240918,-7078543 -240925,-7078557 -240931,-7078565 -240938,-7078569 -240956,-7078569 -240977,-7078558 -241031,-7078548 -241045,-7078543 -241061,-7078541 -241072,-7078545 -241103,-7078566 -241119,-7078568 -241130,-7078564 -241147,-7078547 -241194,-7078548 -241227,-7078530 -241246,-7078528 -241274,-7078541 -241280,-7078544 -241297,-7078558 -241302,-7078561 -241308,-7078561 -241312,-7078556 -241327,-7078537 -241341,-7078532 -241386,-7078534 -241392,-7078541 -241399,-7078560 -241410,-7078564 -241421,-7078559 -241434,-7078546 -241452,-7078528 -241473,-7078528 -241488,-7078531 -241511,-7078524 -241538,-7078519 -241560,-7078508 -241615,-7078493 -241661,-7078486 -241691,-7078468 -241697,-7078470 -241699,-7078482 -241708,-7078491 -241718,-7078491 -241728,-7078481 -241729,-7078469 -241747,-7078450 -241747,-7078440 -241745,-7078429 -241735,-7078418 -241729,-7078403 -241731,-7078382 -241745,-7078372 -241773,-7078365 -241805,-7078365 -241851,-7078347 -241866,-7078337 -241872,-7078324 -241873,-7078304 -241876,-7078291 -241888,-7078277 -241900,-7078271 -241910,-7078273 -241920,-7078283 -241923,-7078292 -241922,-7078301 -241918,-7078311 -241906,-7078325 -241906,-7078328 -241915,-7078333 -241932,-7078333 -241945,-7078329 -241952,-7078320 -241952,-7078304 -241928,-7078260 -241930,-7078233 -241937,-7078221 -241949,-7078210 -241950,-7078198 -241944,-7078184 -241954,-7078154 -241956,-7078129 -241962,-7078108 -241974,-7078081 -241970,-7078064 -241972,-7078059 -241976,-7078049 -241986,-7078037 -242009,-7078018 -242017,-7078009 -242017,-7078001 -242014,-7077996 -241974,-7077982 -241964,-7077977 -241958,-7077972 -241972,-7077958 -241987,-7077945 -241989,-7077937 -241989,-7077910 -241995,-7077902 -242012,-7077917 -242025,-7077925 -242035,-7077931 -242042,-7077924 -242041,-7077909 -242024,-7077883 -242014,-7077869 -241998,-7077856 -241990,-7077853 -241980,-7077855 -241973,-7077863 -241965,-7077873 -241958,-7077875 -241956,-7077870 -241959,-7077859 -241965,-7077846 -241972,-7077832 -241990,-7077811 -242013,-7077798 -242022,-7077799 -242027,-7077803 -242028,-7077815 -242030,-7077823 -242034,-7077836 -242041,-7077843 -242054,-7077842 -242059,-7077838 -242063,-7077824 -242064,-7077804 -242060,-7077777 -242057,-7077768 -242041,-7077749 -242036,-7077729 -242038,-7077709 -242045,-7077703 -242059,-7077692 -242065,-7077680 -242074,-7077671 -242084,-7077666 -242098,-7077657 -242103,-7077648 -242106,-7077635 -242109,-7077626 -242116,-7077612 -242127,-7077599 -242139,-7077595 -242145,-7077588 -242144,-7077556 -242146,-7077547 -242152,-7077543 -242169,-7077542 -242179,-7077545 -242186,-7077543 -242191,-7077537 -242194,-7077527 -242191,-7077511 -242187,-7077493 -242185,-7077480 -242186,-7077450 -242210,-7077418 -242225,-7077409 -242252,-7077387 -242274,-7077377 -242285,-7077372 -242299,-7077357 -242314,-7077336 -242329,-7077333 -242344,-7077328 -242357,-7077328 -242382,-7077335 -242393,-7077334 -242399,-7077328 -242398,-7077302 -242417,-7077287 -242438,-7077275 -242449,-7077275 -242466,-7077290 -242483,-7077292 -242483,-7077291 -242484,-7077224 -242496,-7077219 -242532,-7077120 -242530,-7077119 -242502,-7077086 -242476,-7077065 -242457,-7077052 -242442,-7077045 -242317,-7077055 -242316,-7077050 -242292,-7077003 -242396,-7076969 -242395,-7076961 -242425,-7076957 -242406,-7076928 -242404,-7076930 -242374,-7076865 -242360,-7076871 -242355,-7076860 -242361,-7076831 -242336,-7076769 -242299,-7076735 -242265,-7076679 -242255,-7076684 -242241,-7076656 -242247,-7076654 -242232,-7076633 -242176,-7076521 -242147,-7076529 -242089,-7076547 -242033,-7076566 -241974,-7076582 -241969,-7076554 -241876,-7076572 -241660,-7076613 -241679,-7076599 -241733,-7076557 -241768,-7076529 -241782,-7076537 -241853,-7076481 -241816,-7076442 -241681,-7076364 -241651,-7076342 -241642,-7076354 -241641,-7076367 -241610,-7076345 -241583,-7076330 -241512,-7076277 -241497,-7076270 -241478,-7076260 -241453,-7076231 -241430,-7076226 -241400,-7076212 -241404,-7076194 -241381,-7076152 -241373,-7076144 -241356,-7076138 -241341,-7076122 -241327,-7076091 -241316,-7076078 -241289,-7076035 -241284,-7076026 -241274,-7076007 -241252,-7075992 -241236,-7075992 -241218,-7075977 -241216,-7075970 -241215,-7075943 -241206,-7075929 -241169,-7075890 -241163,-7075878 -241155,-7075870 -241129,-7075856 -241123,-7075851 -241115,-7075840 -241110,-7075835 -241090,-7075826 -240937,-7075935 -240904,-7075889 -240876,-7075889 -240857,-7075908 -240804,-7075849 -240748,-7075778 -240741,-7075769 -240687,-7075698 -240664,-7075713 -240657,-7075711 -240662,-7075674 -240674,-7075638 -240654,-7075611 -240654,-7075606 -240659,-7075603 -240638,-7075571 -240633,-7075542 -240647,-7075520 -240684,-7075490 -240702,-7075479 -240711,-7075474 -240740,-7075469 -240774,-7075460 -240778,-7075455 -240765,-7075416 -240779,-7075419 -240795,-7075422 -240829,-7075422 -240828,-7075396 -240824,-7075373 -240815,-7075359 -240817,-7075348 -240829,-7075336 -240829,-7075327 -240817,-7075313 -240808,-7075295 -240810,-7075282 -240822,-7075268 -240830,-7075249 -240832,-7075203 -240839,-7075156 -240849,-7075144 -240852,-7075133 -240860,-7075123 -240877,-7075092 -240890,-7075065 -240897,-7075034 -240901,-7074987 -240902,-7074946 -240901,-7074939 -240899,-7074917 -240894,-7074889 -240876,-7074841 -240849,-7074844 -240856,-7074823 -240873,-7074753 -240871,-7074741 -240886,-7074709 -240887,-7074704 -240790,-7074687 -240787,-7074687 -240792,-7074665 -240790,-7074632 -240793,-7074599 -240798,-7074580 -240808,-7074552 -240839,-7074496 -240857,-7074479 -240866,-7074470 -240877,-7074454 -240884,-7074429 -240892,-7074415 -240895,-7074413 -240902,-7074408 -240906,-7074408 -240907,-7074408 -240914,-7074407 -240919,-7074408 -240941,-7074411 -240952,-7074414 -240968,-7074419 -240974,-7074422 -240989,-7074428 -241003,-7074435 -241013,-7074438 -241015,-7074439 -241036,-7074438 -241079,-7074430 -241099,-7074434 -241114,-7074448 -241125,-7074436 -241141,-7074424 -241165,-7074393 -241179,-7074369 -241186,-7074347 -241189,-7074314 -241189,-7074293 -241188,-7074273 -241185,-7074254 -241181,-7074234 -241175,-7074215 -241167,-7074195 -241149,-7074168 -241141,-7074158 -241134,-7074138 -241127,-7074118 -241124,-7074100 -241124,-7074058 -241134,-7073995 -241143,-7073942 -241181,-7073937 -241233,-7073926 -241327,-7073906 -241388,-7073893 -241385,-7073879 -241415,-7073875 -241418,-7073883 -241454,-7073877 -241445,-7073830 -241475,-7073826 -241473,-7073815 -241485,-7073812 -241473,-7073754 -241443,-7073761 -241441,-7073755 -241437,-7073755 -241428,-7073717 -241463,-7073709 -241443,-7073626 -241498,-7073613 -241487,-7073557 -241525,-7073551 -241511,-7073420 -241454,-7073428 -241439,-7073360 -241476,-7073355 -241470,-7073331 -241459,-7073265 -241466,-7073265 -241448,-7073149 -241430,-7073080 -241412,-7073010 -241392,-7072948 -241367,-7072877 -241371,-7072876 -241366,-7072861 -241386,-7072854 -241384,-7072844 -241390,-7072843 -241388,-7072837 -241393,-7072835 -241394,-7072831 -241370,-7072771 -241348,-7072700 -241350,-7072672 -241349,-7072666 -241299,-7072532 -241303,-7072512 -241285,-7072507 -241289,-7072488 -241298,-7072441 -241276,-7072436 -241305,-7072304 -241330,-7072308 -241341,-7072310 -241346,-7072305 -241347,-7072299 -241340,-7072284 -241338,-7072284 -241337,-7072283 -241177,-7072242 -241175,-7072242 -241172,-7072241 -241154,-7072188 -241117,-7072199 -241114,-7072200 -241076,-7072083 -241072,-7072067 -241069,-7072059 -241070,-7072035 -241066,-7072029 -241066,-7072006 -241114,-7072029 -241102,-7072006 -241101,-7071944 -241097,-7071859 -241084,-7071854 -241082,-7071844 -241068,-7071840 -241055,-7071770 -241040,-7071762 -241021,-7071760 -241007,-7071702 -240842,-7071644 -240718,-7071602 -240698,-7071590 -240688,-7071573 -240682,-7071550 -240672,-7071501 -240646,-7071382 -240633,-7071338 -240624,-7071319 -240617,-7071322 -240600,-7071329 -240524,-7071346 -240523,-7071341 -240510,-7071344 -240512,-7071349 -240420,-7071371 -240289,-7071403 -240239,-7071400 -240125,-7071402 -240083,-7071403 -240024,-7071405 -239996,-7071407 -239996,-7071389 -239938,-7071313 -239941,-7071243 -239880,-7071244 -239856,-7071220 -239829,-7071198 -239777,-7071159 -239775,-7071162 -239757,-7071145 -239678,-7071091 -239678,-7071088 -239656,-7071074 -239602,-7071042 -239535,-7071007 -239526,-7071007 -239526,-7071002 -239516,-7071000 -239463,-7070972 -239462,-7070977 -239390,-7070938 -239380,-7070932 -239380,-7070896 -239369,-7070878 -239354,-7070855 -239351,-7070847 -239350,-7070794 -239352,-7070778 -239350,-7070614 -239350,-7070611 -239335,-7070610 -239334,-7070610 -239325,-7070583 -239294,-7070515 -239284,-7070467 -239272,-7070447 -239258,-7070427 -239221,-7070378 -239196,-7070367 -239188,-7070360 -239174,-7070328 -239150,-7070306 -239131,-7070272 -239097,-7070233 -239076,-7070191 -239070,-7070167 -239065,-7070138 -239067,-7070106 -239067,-7070096 -239064,-7070087 -239060,-7070079 -239035,-7070046 -239009,-7070022 -238998,-7070006 -238985,-7069984 -238983,-7069975 -238987,-7069944 -238995,-7069913 -239008,-7069875 -239066,-7069820 -239105,-7069781 -239104,-7069763 -239079,-7069744 -239090,-7069709 -239095,-7069656 -239093,-7069637 -239097,-7069624 -239112,-7069618 -239143,-7069613 -239157,-7069586 -239203,-7069557 -239211,-7069529 -239241,-7069506 -239241,-7069505 -239246,-7069469 -239253,-7069445 -239264,-7069423 -239282,-7069403 -239279,-7069376 -239280,-7069365 -239281,-7069363 -239304,-7069354 -239301,-7069323 -239325,-7069254 -239328,-7069249 -239333,-7069236 -239347,-7069229 -239372,-7069231 -239388,-7069223 -239400,-7069220 -239418,-7069224 -239429,-7069224 -239452,-7069221 -239470,-7069216 -239478,-7069212 -239498,-7069198 -239501,-7069194 -239510,-7069178 -239536,-7069190 -239569,-7069182 -239588,-7069179 -239606,-7069174 -239631,-7069162 -239646,-7069150 -239643,-7069093 -239620,-7069052 -239595,-7069003 -239568,-7069023 -239563,-7069022 -239556,-7069017 -239560,-7068986 -239547,-7068942 -239533,-7068920 -239523,-7068909 -239497,-7068899 -239469,-7068893 -239465,-7068868 -239450,-7068849 -239437,-7068831 -239431,-7068819 -239427,-7068802 -239403,-7068779 -239397,-7068768 -239382,-7068732 -239356,-7068690 -239346,-7068682 -239341,-7068679 -239334,-7068677 -239314,-7068676 -239287,-7068654 -239275,-7068643 -239237,-7068650 -239227,-7068651 -239235,-7068623 -239248,-7068610 -239249,-7068603 -239263,-7068595 -239276,-7068592 -239321,-7068591 -239402,-7068599 -239423,-7068582 -239351,-7068483 -239314,-7068468 -239252,-7068432 -239299,-7068308 -239353,-7068190 -239367,-7068158 -239383,-7068148 -239392,-7068142 -239425,-7068169 -239457,-7068132 -239458,-7068127 -239457,-7068123 -239483,-7068113 -239572,-7068116 -239597,-7068095 -239662,-7068030 -239714,-7067983 -239770,-7067942 -239880,-7067864 -239928,-7067836 -239955,-7067819 -239999,-7067790 -240062,-7067744 -240155,-7067678 -240190,-7067664 -240212,-7067646 -240277,-7067596 -240285,-7067587 -240282,-7067582 -240275,-7067566 -240279,-7067564 -240353,-7067530 -240490,-7067474 -240466,-7067418 -240455,-7067392 -240448,-7067364 -240436,-7067298 -240496,-7067288 -240588,-7067271 -240638,-7067261 -240609,-7067112 -240592,-7067013 -240743,-7067119 -240826,-7067178 -240967,-7067273 -240965,-7067276 -240982,-7067285 -241035,-7067321 -241118,-7067381 -241127,-7067329 -241120,-7067326 -241139,-7067232 -241155,-7067147 -241172,-7067063 -241188,-7066981 -241213,-7066831 -241242,-7066688 -241260,-7066610 -241269,-7066583 -241275,-7066564 -241376,-7066527 -241438,-7066509 -241551,-7066468 -241633,-7066441 -241721,-7066395 -241761,-7066375 -241809,-7066346 -241854,-7066322 -241856,-7066326 -241883,-7066299 -241876,-7066283 -241864,-7066270 -241824,-7066239 -241810,-7066216 -241793,-7066182 -241787,-7066178 -241781,-7066178 -241781,-7066161 -241795,-7066135 -241806,-7066118 -241822,-7066081 -241825,-7066082 -241854,-7066022 -241847,-7066019 -241869,-7065953 -241904,-7065860 -241917,-7065864 -241940,-7065807 -241948,-7065769 -241975,-7065662 -242002,-7065526 -242007,-7065490 -242005,-7065493 -242016,-7065385 -242015,-7065334 -242016,-7065290 -242025,-7065244 -242031,-7065193 -242034,-7065144 -242034,-7065125 -242035,-7065085 -242032,-7065017 -242025,-7064989 -242018,-7064944 -242017,-7064910 -242030,-7064806 -242035,-7064749 -242047,-7064675 -242057,-7064635 -242074,-7064541 -242077,-7064508 -242082,-7064476 -242088,-7064436 -242089,-7064426 -242090,-7064420 -242086,-7064365 -242095,-7064235 -242095,-7064153 -242102,-7064075 -242107,-7064014 -242109,-7063981 -242120,-7063927 -242135,-7063847 -242143,-7063808 -242145,-7063794 -242152,-7063751 -242172,-7063719 -242180,-7063720 -242198,-7063729 -242213,-7063745 -242236,-7063695 -242229,-7063682 -242223,-7063670 -242221,-7063651 -242225,-7063636 -242272,-7063553 -242268,-7063540 -242283,-7063514 -242315,-7063499 -242328,-7063503 -242336,-7063510 -242359,-7063506 -242381,-7063549 -242393,-7063565 -242412,-7063583 -242420,-7063598 -242426,-7063616 -242431,-7063626 -242452,-7063632 -242468,-7063646 -242484,-7063653 -242497,-7063665 -242523,-7063668 -242528,-7063675 -242539,-7063682 -242553,-7063683 -242565,-7063679 -242570,-7063682 -242563,-7063695 -242563,-7063711 -242559,-7063717 -242558,-7063725 -242566,-7063735 -242579,-7063730 -242581,-7063710 -242594,-7063720 -242592,-7063735 -242598,-7063740 -242618,-7063740 -242628,-7063730 -242636,-7063726 -242686,-7063752 -242684,-7063759 -242655,-7063793 -242655,-7063796 -242664,-7063801 -242676,-7063802 -242689,-7063810 -242692,-7063823 -242699,-7063830 -242715,-7063831 -242724,-7063813 -242741,-7063822 -242761,-7063822 -242785,-7063811 -242797,-7063812 -242800,-7063825 -242811,-7063836 -242805,-7063846 -242809,-7063853 -242821,-7063858 -242829,-7063869 -242854,-7063877 -242860,-7063881 -242857,-7063889 -242868,-7063895 -242888,-7063891 -242936,-7063874 -242947,-7063880 -242960,-7063886 -242988,-7063876 -243010,-7063879 -243016,-7063887 -243031,-7063912 -243037,-7063920 -243047,-7063921 -243082,-7063912 -243111,-7063907 -243123,-7063922 -243143,-7063985 -243164,-7063985 -243178,-7063988 -243198,-7064001 -243208,-7064003 -243217,-7063997 -243246,-7063992 -243256,-7063994 -243263,-7064006 -243278,-7064020 -243296,-7064030 -243304,-7064041 -243306,-7064050 -243292,-7064057 -243293,-7064063 -243304,-7064074 -243323,-7064075 -243340,-7064078 -243350,-7064074 -243375,-7064075 -243380,-7064063 -243410,-7064057 -243432,-7064066 -243424,-7064075 -243423,-7064090 -243432,-7064098 -243450,-7064102 -243470,-7064100 -243480,-7064112 -243498,-7064112 -243507,-7064126 -243505,-7064133 -243489,-7064146 -243503,-7064181 -243513,-7064180 -243533,-7064167 -243586,-7064173 -243627,-7064178 -243600,-7064134 -243589,-7064127 -243585,-7064130 -243537,-7064045 -243470,-7063912 -243552,-7063872 -243551,-7063869 -243601,-7063851 -243645,-7063846 -243673,-7063845 -243708,-7063847 -243741,-7063853 -243784,-7063864 -243895,-7063895 -243937,-7063906 -243939,-7063900 -243940,-7063893 -243961,-7063727 -243980,-7063615 -243999,-7063520 -244007,-7063480 -244024,-7063374 -244052,-7063240 -244064,-7063165 -244079,-7063071 -244088,-7063027 -244101,-7062950 -244120,-7062864 -244132,-7062795 -244136,-7062742 -244137,-7062727 -244139,-7062638 -244144,-7062602 -244143,-7062511 -244139,-7062497 -244147,-7062498 -244159,-7062509 -244164,-7062510 -244187,-7062502 -244204,-7062500 -244226,-7062504 -244258,-7062501 -244288,-7062507 -244343,-7062526 -244412,-7062545 -244457,-7062568 -244479,-7062566 -244487,-7062575 -244500,-7062581 -244528,-7062580 -244557,-7062582 -244574,-7062571 -244622,-7062519 -244656,-7062493 -244707,-7062453 -244798,-7062383 -244831,-7062351 -244852,-7062321 -244860,-7062287 -244868,-7062262 -244874,-7062233 -244884,-7062179 -244902,-7062130 -244952,-7062021 -245008,-7061907 -245018,-7061882 -245034,-7061889 -245067,-7061828 -245059,-7061824 -245109,-7061744 -245132,-7061715 -245170,-7061679 -245244,-7061614 -245312,-7061556 -245403,-7061474 -245451,-7061509 -245487,-7061463 -245490,-7061433 -245521,-7061390 -245511,-7061384 -245518,-7061368 -245659,-7061244 -245645,-7061215 -245698,-7061151 -245737,-7061152 -245750,-7061092 -245759,-7061082 -245695,-7061078 -245664,-7061080 -245595,-7061087 -245584,-7061002 -245616,-7060923 -245625,-7060876 -245646,-7060878 -245699,-7060852 -245840,-7060910 -245846,-7060896 -245856,-7060900 -245883,-7060832 -245895,-7060824 -245920,-7060809 -245955,-7060735 -245978,-7060684 -245979,-7060683 -246166,-7060763 -246257,-7060802 -246256,-7060804 -246255,-7060805 -246355,-7060848 -246397,-7060864 -246404,-7060822 -246413,-7060769 -246420,-7060769 -246420,-7060740 -246424,-7060699 -246436,-7060628 -246442,-7060584 -246450,-7060482 -246460,-7060391 -246469,-7060262 -246485,-7060153 -246496,-7060071 -246497,-7060068 -246501,-7060029 -246508,-7059980 -246515,-7059924 -246524,-7059831 -246528,-7059805 -246533,-7059775 -246551,-7059679 -246572,-7059587 -246582,-7059536 -246584,-7059480 -246602,-7059466 -246618,-7059459 -246592,-7059441 -246529,-7059418 -246520,-7059395 -246625,-7059366 -246624,-7059349 -246607,-7059304 -246586,-7059208 -246569,-7059145 -246534,-7059097 -246478,-7058981 -246422,-7058869 -246388,-7058800 -246337,-7058696 -246307,-7058639 -246304,-7058633 -246338,-7058619 -246438,-7058564 -246444,-7058559 -246500,-7058527 -246531,-7058507 -246648,-7058450 -246668,-7058443 -246754,-7058416 -246894,-7058369 -246929,-7058358 -246954,-7058347 -247004,-7058327 -247041,-7058305 -247054,-7058294 -247068,-7058280 -247073,-7058259 -247072,-7058245 -247071,-7058159 -247060,-7058139 -247054,-7058118 -247051,-7058108 -247054,-7058073 -247056,-7058056 -247071,-7058006 -247079,-7057977 -247086,-7057941 -247103,-7057883 -247106,-7057872 -247110,-7057859 -247116,-7057846 -247127,-7057819 -247143,-7057800 -247169,-7057770 -247215,-7057738 -247243,-7057721 -247274,-7057699 -247283,-7057691 -247302,-7057675 -247340,-7057638 -247354,-7057621 -247369,-7057599 -247380,-7057587 -247390,-7057578 -247402,-7057566 -247415,-7057555 -247429,-7057550 -247479,-7057563 -247526,-7057576 -247564,-7057581 -247589,-7057583 -247673,-7057590 -247703,-7057585 -247743,-7057574 -247774,-7057569 -247818,-7057553 -247835,-7057547 -247853,-7057541 -247872,-7057532 -247895,-7057524 -247947,-7057506 -247988,-7057492 -248017,-7057491 -248061,-7057493 -248092,-7057494 -248156,-7057489 -248223,-7057488 -248241,-7057488 -248363,-7057491 -248464,-7057492 -248535,-7057495 -248666,-7057510 -248750,-7057522 -248813,-7057527 -248894,-7057530 -248925,-7057530 -248931,-7057529 -248991,-7057524 -249042,-7057517 -249112,-7057498 -249148,-7057485 -249205,-7057460 -249238,-7057434 -249273,-7057402 -249335,-7057351 -249375,-7057322 -249423,-7057293 -249449,-7057282 -249462,-7057277 -249522,-7057259 -249559,-7057248 -249589,-7057240 -249632,-7057235 -249638,-7057234 -249630,-7057192 -249625,-7057166 -249625,-7057146 -249625,-7057135 -249626,-7057130 -249622,-7057110 -249622,-7057104 -249632,-7057068 -249634,-7057054 -249638,-7057021 -249643,-7056992 -249646,-7056976 -249648,-7056955 -249638,-7056917 -249699,-7056876 -249698,-7056872 -249770,-7056826 -249933,-7056715 -250029,-7056652 -250115,-7056596 -250046,-7056526 -249996,-7056467 -249955,-7056409 -249944,-7056396 -249931,-7056377 -249914,-7056350 -249846,-7056227 -249899,-7056231 -249947,-7056210 -250021,-7056178 -250011,-7056157 -250019,-7055909 -250021,-7055846 -250026,-7055723 -249994,-7055724 -249949,-7055714 -249904,-7055717 -249852,-7055715 -249791,-7055540 -249993,-7055510 -249994,-7055474 -249985,-7055452 -250022,-7055244 -250041,-7055129 -250048,-7055060 -249925,-7055047 -249778,-7055034 -249647,-7055034 -249647,-7055003 -249645,-7054915 -249640,-7054820 -249641,-7054753 -249641,-7054695 -249635,-7054674 -249626,-7054656 -249636,-7054642 -249645,-7054608 -249649,-7054593 -249655,-7054570 -249673,-7054544 -249676,-7054540 -249687,-7054525 -249685,-7054478 -249671,-7054464 -249673,-7054449 -249668,-7054441 -249668,-7054429 -249674,-7054420 -249674,-7054399 -249660,-7054384 -249658,-7054371 -249641,-7054363 -249635,-7054369 -249630,-7054369 -249627,-7054362 -249627,-7054344 -249650,-7054333 -249661,-7054318 -249675,-7054273 -249682,-7054254 -249686,-7054238 -249688,-7054194 -249697,-7054179 -249697,-7054163 -249689,-7054139 -249679,-7054120 -249676,-7054100 -249661,-7054085 -249645,-7054075 -249645,-7054067 -249649,-7054059 -249662,-7054041 -249676,-7054027 -249676,-7054022 -249668,-7054017 -249655,-7054004 -249647,-7054003 -249633,-7053991 -249617,-7053988 -249596,-7053992 -249591,-7053988 -249586,-7053978 -249572,-7053974 -249580,-7053959 -249578,-7053949 -249579,-7053930 -249589,-7053919 -249584,-7053914 -249567,-7053915 -249565,-7053911 -249566,-7053895 -249559,-7053891 -249557,-7053876 -249551,-7053865 -249537,-7053863 -249529,-7053860 -249530,-7053848 -249519,-7053839 -249508,-7053825 -249495,-7053823 -249489,-7053815 -249490,-7053792 -249495,-7053773 -249478,-7053751 -249468,-7053727 -249458,-7053710 -249461,-7053684 -249471,-7053674 -249481,-7053651 -249489,-7053642 -249489,-7053634 -249505,-7053618 -249498,-7053607 -249505,-7053597 -249504,-7053588 -249493,-7053581 -249492,-7053562 -249483,-7053555 -249483,-7053549 -249483,-7053548 -249487,-7053545 -249494,-7053541 -249490,-7053512 -249495,-7053494 -249494,-7053484 -249501,-7053469 -249483,-7053471 -249484,-7053456 -249488,-7053441 -249498,-7053429 -249495,-7053420 -249503,-7053409 -249505,-7053402 -249498,-7053390 -249497,-7053379 -249508,-7053363 -249515,-7053359 -249542,-7053310 -249552,-7053292 -249584,-7053259 -249587,-7053224 -249590,-7053220 -249580,-7053200 -249580,-7053176 -249560,-7053149 -249565,-7053137 -249558,-7053116 -249568,-7053100 -249567,-7053089 -249550,-7053053 -249549,-7053044 -249561,-7053027 -249558,-7053012 -249560,-7053006 -249551,-7052989 -249535,-7052971 -249513,-7052962 -249512,-7052955 -249517,-7052942 -249506,-7052900 -249508,-7052891 -249506,-7052878 -249502,-7052871 -249504,-7052866 -249513,-7052847 -249526,-7052841 -249533,-7052831 -249534,-7052823 -249540,-7052817 -249544,-7052798 -249542,-7052779 -249536,-7052764 -249531,-7052757 -249527,-7052749 -249522,-7052719 -249514,-7052661 -249518,-7052641 -249494,-7052611 -249474,-7052587 -249415,-7052520 -249400,-7052510 -249395,-7052497 -249385,-7052484 -249376,-7052449 -249373,-7052426 -249359,-7052378 -249357,-7052353 -249352,-7052328 -249343,-7052301 -249349,-7052280 -249367,-7052279 -249383,-7052270 -249410,-7052261 -249411,-7052255 -249409,-7052249 -249408,-7052235 -249383,-7052211 -249371,-7052199 -249364,-7052197 -249354,-7052190 -249335,-7052189 -249314,-7052179 -249271,-7052154 -249253,-7052133 -249245,-7052131 -249241,-7052117 -249228,-7052089 -249226,-7052074 -249208,-7052023 -249205,-7051991 -249200,-7051984 -249195,-7051924 -249205,-7051891 -249208,-7051882 -249208,-7051881 -249208,-7051870 -249104,-7051821 -249074,-7051807 -249014,-7051770 -249051,-7051632 -249070,-7051556 -249078,-7051535 -249086,-7051495 -249102,-7051305 -249105,-7051261 -249144,-7051104 -249161,-7051042 -249159,-7050979 -249180,-7050946 -249195,-7050873 -249223,-7050755 -249254,-7050620 -249301,-7050410 -249335,-7050254 -249347,-7050249 -249341,-7050224 -249379,-7050082 -249396,-7049988 -249412,-7049911 -249426,-7049852 -249443,-7049788 -249479,-7049803 -249532,-7049807 -249604,-7049804 -249758,-7049811 -249816,-7049826 -249824,-7049957 -249829,-7049957 -249822,-7050062 -249825,-7050064 -249925,-7050060 -249928,-7050062 -249932,-7050078 -249935,-7050080 -249998,-7050077 -250011,-7050081 -250096,-7050080 -250097,-7050078 -250095,-7050056 -250097,-7050054 -250168,-7050047 -250238,-7050032 -250324,-7050009 -250423,-7049978 -250580,-7050005 -250624,-7050008 -250702,-7050009 -250810,-7050019 -250925,-7050027 -250985,-7050026 -251022,-7050024 -251064,-7050019 -251186,-7049994 -251461,-7049770 -251463,-7049767 -251455,-7049593 -251430,-7049531 -251409,-7049375 -251407,-7049369 -251363,-7049319 -251363,-7049316 -251486,-7049252 -251598,-7049199 -251679,-7049165 -251704,-7049147 -251720,-7049128 -251738,-7049121 -251740,-7049118 -251727,-7049082 -251728,-7049079 -251761,-7049060 -251803,-7049033 -251848,-7048998 -251915,-7048924 -252029,-7048807 -252074,-7048758 -252095,-7048744 -252096,-7048742 -252020,-7048691 -252018,-7048688 -252048,-7048558 -252051,-7048554 -252196,-7048416 -252274,-7048335 -252279,-7048333 -252341,-7048324 -252344,-7048321 -252370,-7048149 -252368,-7048112 -252369,-7048109 -252452,-7048102 -252508,-7048104 -252565,-7048107 -252640,-7048112 -252778,-7048127 -252825,-7048132 -252866,-7048131 -252896,-7048133 -252918,-7048130 -252958,-7048121 -252992,-7048110 -253018,-7048099 -253067,-7048072 -253087,-7048060 -253123,-7048036 -253156,-7048010 -253228,-7047961 -253286,-7047929 -253372,-7047879 -253437,-7047845 -253510,-7047813 -253549,-7047794 -253602,-7047760 -253626,-7047744 -253627,-7047743 -253730,-7047548 -253756,-7047473 -253787,-7047411 -253794,-7047393 -253846,-7047266 -253851,-7047258 -253856,-7047255 -253860,-7047254 -253879,-7047250 -253881,-7047250 -253901,-7047251 -253931,-7047256 -253966,-7047266 -254130,-7047327 -254195,-7047332 -254249,-7047336 -254284,-7047340 -254320,-7047351 -254324,-7047351 -254502,-7047209 -254554,-7047168 -254554,-7047165 -254495,-7047108 -254461,-7047073 -254469,-7047062 -254507,-7047018 -254527,-7046964 -254541,-7046937 -254549,-7046917 -254556,-7046897 -254561,-7046869 -254567,-7046850 -254575,-7046838 -254584,-7046831 -254607,-7046811 -254629,-7046796 -254658,-7046773 -254672,-7046764 -254675,-7046761 -254677,-7046757 -254687,-7046734 -254691,-7046713 -254735,-7046695 -254762,-7046677 -254780,-7046663 -254802,-7046642 -254808,-7046638 -254849,-7046609 -254866,-7046597 -254896,-7046578 -254905,-7046570 -254911,-7046567 -254919,-7046565 -254927,-7046565 -254935,-7046566 -254941,-7046569 -254947,-7046574 -254951,-7046578 -254972,-7046623 -254988,-7046655 -254994,-7046662 -255004,-7046672 -255018,-7046683 -255032,-7046691 -255047,-7046697 -255063,-7046701 -255078,-7046702 -255088,-7046703 -255103,-7046701 -255126,-7046697 -255136,-7046695 -255173,-7046690 -255229,-7046692 -255297,-7046696 -255371,-7046709 -255373,-7046708 -255374,-7046708 -255379,-7046686 -255381,-7046683 -255416,-7046662 -255420,-7046661 -255479,-7046676 -255521,-7046701 -255536,-7046706 -255550,-7046709 -255569,-7046705 -255573,-7046702 -255586,-7046681 -255599,-7046647 -255629,-7046605 -255670,-7046521 -255674,-7046520 -255715,-7046532 -255718,-7046530 -255730,-7046504 -255733,-7046502 -255763,-7046495 -255793,-7046494 -255796,-7046492 -255801,-7046479 -255803,-7046477 -255953,-7046357 -255989,-7046325 -256007,-7046306 -256119,-7046210 -256182,-7046160 -256186,-7046160 -256195,-7046170 -256201,-7046191 -256203,-7046191 -256216,-7046180 -256219,-7046179 -256239,-7046201 -256350,-7046323 -256240,-7046412 -256071,-7046549 -255981,-7046619 -255926,-7046666 -255925,-7046669 -255931,-7046678 -255932,-7046682 -255895,-7046735 -255893,-7046736 -255887,-7046736 -255885,-7046737 -255866,-7046758 -255784,-7046814 -255782,-7046816 -255775,-7046828 -255751,-7046848 -255751,-7046851 -255779,-7046879 -255779,-7046881 -255778,-7046889 -255779,-7046890 -255789,-7046900 -255828,-7046966 -255818,-7046969 -255784,-7046965 -255774,-7046961 -255758,-7046982 -255738,-7047003 -255719,-7047009 -255694,-7047035 -255673,-7047046 -255655,-7047051 -255640,-7047060 -255638,-7047102 -255635,-7047153 -255635,-7047174 -255638,-7047191 -255642,-7047211 -255649,-7047230 -255658,-7047249 -255668,-7047265 -255679,-7047279 -255692,-7047292 -255714,-7047311 -255736,-7047325 -255760,-7047336 -255764,-7047339 -255828,-7047363 -255834,-7047365 -255838,-7047368 -255842,-7047372 -255845,-7047377 -255847,-7047393 -255847,-7047399 -255842,-7047427 -255839,-7047437 -255829,-7047463 -255802,-7047503 -255770,-7047535 -255766,-7047539 -255741,-7047574 -255730,-7047613 -255717,-7047648 -255694,-7047684 -255689,-7047695 -255687,-7047704 -255687,-7047715 -255689,-7047726 -255693,-7047738 -255699,-7047749 -255707,-7047761 -255718,-7047771 -255765,-7047815 -255771,-7047819 -255784,-7047826 -255803,-7047831 -255809,-7047831 -255824,-7047828 -255826,-7047828 -255853,-7047820 -255874,-7047818 -255898,-7047816 -255907,-7047817 -255910,-7047819 -255913,-7047823 -255914,-7047824 -255915,-7047827 -255916,-7047832 -255915,-7047841 -255892,-7047903 -255883,-7047938 -255883,-7047953 -255884,-7047963 -255887,-7047973 -255890,-7047981 -255895,-7047988 -255901,-7047994 -255909,-7047999 -255919,-7048003 -255931,-7048006 -255942,-7048008 -255953,-7048008 -255963,-7048007 -255964,-7048007 -255976,-7048005 -255989,-7048000 -255996,-7047997 -256040,-7047974 -256066,-7047945 -256076,-7047932 -256076,-7047931 -256086,-7047916 -256102,-7047885 -256105,-7047880 -256153,-7047824 -256158,-7047821 -256160,-7047819 -256169,-7047817 -256180,-7047818 -256190,-7047822 -256196,-7047826 -256201,-7047831 -256217,-7047853 -256218,-7047858 -256214,-7047889 -256207,-7047933 -256207,-7047955 -256206,-7047975 -256189,-7048023 -256186,-7048041 -256185,-7048055 -256185,-7048056 -256187,-7048064 -256190,-7048072 -256194,-7048079 -256199,-7048085 -256211,-7048095 -256222,-7048102 -256247,-7048118 -256256,-7048124 -256259,-7048125 -256261,-7048126 -256291,-7048132 -256304,-7048133 -256314,-7048132 -256325,-7048129 -256358,-7048105 -256370,-7048103 -256377,-7048103 -256384,-7048105 -256401,-7048112 -256406,-7048115 -256409,-7048116 -256423,-7048127 -256433,-7048137 -256477,-7048194 -256517,-7048280 -256520,-7048290 -256530,-7048335 -256531,-7048374 -256534,-7048398 -256535,-7048415 -256538,-7048423 -256543,-7048431 -256553,-7048441 -256589,-7048461 -256605,-7048474 -256612,-7048480 -256622,-7048491 -256629,-7048500 -256631,-7048503 -256637,-7048513 -256640,-7048523 -256647,-7048569 -256650,-7048577 -256654,-7048583 -256660,-7048589 -256668,-7048594 -256676,-7048596 -256692,-7048599 -256723,-7048609 -256762,-7048618 -256833,-7048625 -256857,-7048634 -256914,-7048661 -256930,-7048672 -256938,-7048679 -256945,-7048688 -256954,-7048700 -256963,-7048720 -256982,-7048755 -256994,-7048772 -257003,-7048783 -257021,-7048797 -257033,-7048804 -257062,-7048817 -257117,-7048836 -257184,-7048856 -257265,-7048858 -257366,-7048873 -257375,-7048876 -257388,-7048886 -257395,-7048892 -257414,-7048917 -257422,-7048929 -257427,-7048941 -257432,-7048955 -257437,-7048975 -257439,-7049028 -257438,-7049065 -257441,-7049100 -257444,-7049116 -257449,-7049131 -257453,-7049140 -257458,-7049147 -257465,-7049154 -257475,-7049162 -257487,-7049170 -257498,-7049176 -257557,-7049204 -257603,-7049230 -257615,-7049240 -257621,-7049249 -257626,-7049258 -257629,-7049266 -257631,-7049274 -257631,-7049285 -257629,-7049296 -257626,-7049307 -257618,-7049324 -257605,-7049360 -257596,-7049379 -257593,-7049387 -257562,-7049391 -257561,-7049403 -257555,-7049417 -257362,-7049420 -257295,-7049436 -257228,-7049455 -257162,-7049464 -257092,-7049483 -257010,-7049506 -256886,-7049526 -256862,-7049543 -256840,-7049548 -256827,-7049556 -256805,-7049554 -256793,-7049547 -256791,-7049541 -256707,-7049565 -256659,-7049585 -256621,-7049600 -256570,-7049619 -256491,-7049653 -256380,-7049697 -256319,-7049726 -256228,-7049780 -256121,-7049844 -256063,-7049894 -256044,-7049869 -255990,-7049913 -255929,-7049971 -255878,-7050021 -255793,-7050120 -255754,-7050179 -255706,-7050250 -255724,-7050268 -255686,-7050316 -255677,-7050332 -255646,-7050387 -255615,-7050450 -255636,-7050457 -255609,-7050534 -255598,-7050584 -255565,-7050664 -255542,-7050732 -255515,-7050825 -255497,-7050895 -255478,-7050955 -255465,-7050959 -255457,-7050985 -255470,-7050988 -255448,-7051072 -255426,-7051141 -255409,-7051190 -255361,-7051354 -255308,-7051499 -255284,-7051570 -255258,-7051627 -255233,-7051690 -255223,-7051739 -255218,-7051783 -255203,-7051782 -255205,-7051800 -255169,-7051838 -255148,-7051874 -255120,-7051940 -255097,-7051996 -255057,-7052076 -255039,-7052106 -255004,-7052182 -254984,-7052238 -254934,-7052237 -254829,-7052400 -254781,-7052470 -254729,-7052540 -254675,-7052607 -254610,-7052688 -254522,-7052795 -254519,-7052797 -254530,-7052810 -254531,-7052811 -254516,-7052821 -254514,-7052824 -254439,-7052898 -254464,-7052910 -254488,-7052918 -254522,-7052923 -254558,-7052923 -254591,-7052921 -254612,-7052917 -254618,-7052931 -254638,-7052951 -254656,-7052964 -254689,-7052977 -254709,-7052984 -254743,-7053004 -254764,-7053019 -254784,-7053048 -254806,-7053089 -254819,-7053099 -254847,-7053115 -254854,-7053133 -254863,-7053143 -254871,-7053175 -254892,-7053206 -254908,-7053214 -254919,-7053230 -254929,-7053254 -254932,-7053268 -254942,-7053287 -254956,-7053307 -254966,-7053316 -254981,-7053323 -254991,-7053330 -254994,-7053340 -255006,-7053360 -255015,-7053379 -255018,-7053395 -255038,-7053429 -255049,-7053440 -255064,-7053474 -255079,-7053500 -255090,-7053531 -255114,-7053564 -255133,-7053590 -255149,-7053605 -255164,-7053630 -255181,-7053645 -255193,-7053650 -255202,-7053658 -255204,-7053690 -255216,-7053708 -255219,-7053716 -255218,-7053739 -255220,-7053748 -255249,-7053769 -255298,-7053796 -255313,-7053805 -255329,-7053820 -255351,-7053844 -255364,-7053858 -255368,-7053871 -255373,-7053884 -255389,-7053895 -255390,-7053919 -255405,-7053923 -255416,-7053922 -255428,-7053913 -255444,-7053928 -255468,-7053938 -255496,-7053949 -255558,-7053984 -255614,-7054004 -255650,-7054019 -255655,-7054038 -255655,-7054064 -255664,-7054071 -255677,-7054087 -255680,-7054099 -255686,-7054106 -255698,-7054104 -255709,-7054112 -255718,-7054111 -255726,-7054114 -255729,-7054121 -255729,-7054132 -255743,-7054137 -255755,-7054139 -255760,-7054133 -255771,-7054133 -255778,-7054139 -255788,-7054159 -255812,-7054182 -255815,-7054189 -255809,-7054202 -255811,-7054210 -255821,-7054231 -255823,-7054246 -255834,-7054246 -255839,-7054250 -255866,-7054249 -255871,-7054253 -255870,-7054270 -255880,-7054278 -255884,-7054293 -255888,-7054298 -255908,-7054302 -255918,-7054306 -255927,-7054315 -255927,-7054335 -255938,-7054342 -255951,-7054360 -255970,-7054363 -255976,-7054377 -255999,-7054391 -256007,-7054391 -256020,-7054407 -256020,-7054438 -256029,-7054449 -256028,-7054468 -256044,-7054469 -256053,-7054490 -256060,-7054499 -256061,-7054516 -256058,-7054529 -256049,-7054550 -256012,-7054580 -255985,-7054599 -255985,-7054604 -255988,-7054609 -256003,-7054609 -256011,-7054625 -256012,-7054637 -256006,-7054646 -256004,-7054659 -255987,-7054693 -255969,-7054710 -255959,-7054709 -255952,-7054716 -255951,-7054726 -255940,-7054737 -255940,-7054755 -255943,-7054770 -255940,-7054797 -255958,-7054809 -255965,-7054816 -255966,-7054829 -255962,-7054835 -255963,-7054851 -255954,-7054861 -255960,-7054877 -255966,-7054881 -255978,-7054878 -255990,-7054894 -255990,-7054907 -256008,-7054908 -256007,-7054938 -255995,-7054938 -255985,-7054948 -255982,-7054957 -255982,-7054976 -255977,-7054993 -255967,-7055006 -255965,-7055010 -255979,-7055023 -255992,-7055029 -256002,-7055036 -256004,-7055045 -256005,-7055051 -255998,-7055059 -255993,-7055073 -255993,-7055089 -255988,-7055095 -255987,-7055099 -255991,-7055103 -256005,-7055108 -256016,-7055112 -256016,-7055117 -256016,-7055123 -256032,-7055129 -256034,-7055129 -256033,-7055132 -256032,-7055149 -256032,-7055155 -256024,-7055161 -256016,-7055159 -256010,-7055158 -256002,-7055159 -256003,-7055179 -256010,-7055186 -256012,-7055189 -256020,-7055192 -256022,-7055199 -256021,-7055201 -256017,-7055212 -256017,-7055220 -256023,-7055224 -256024,-7055225 -256034,-7055225 -256044,-7055230 -256056,-7055229 -256063,-7055235 -256063,-7055244 -256063,-7055246 -256057,-7055252 -256058,-7055258 -256062,-7055262 -256067,-7055262 -256071,-7055262 -256071,-7055264 -256071,-7055274 -256076,-7055278 -256076,-7055282 -256074,-7055286 -256061,-7055285 -256056,-7055287 -256055,-7055290 -256053,-7055294 -256052,-7055295 -256052,-7055304 -256059,-7055318 -256059,-7055319 -256060,-7055326 -256060,-7055330 -256048,-7055343 -256049,-7055353 -256054,-7055355 -256088,-7055367 -256084,-7055376 -256077,-7055394 -256053,-7055409 -256050,-7055415 -256047,-7055419 -256040,-7055422 -256034,-7055425 -256027,-7055426 -256021,-7055431 -256021,-7055444 -256025,-7055451 -256024,-7055465 -256020,-7055472 -256019,-7055478 -256024,-7055481 -256025,-7055492 -256028,-7055496 -256034,-7055505 -256038,-7055517 -256040,-7055531 -256037,-7055572 -256036,-7055600 -256030,-7055608 -256030,-7055620 -256039,-7055632 -256041,-7055639 -256043,-7055648 -256044,-7055661 -256048,-7055664 -256049,-7055666 -256066,-7055669 -256066,-7055674 -256065,-7055675 -256055,-7055683 -256055,-7055703 -256044,-7055715 -256042,-7055725 -256044,-7055759 -256036,-7055767 -256036,-7055778 -256027,-7055787 -256015,-7055797 -256015,-7055803 -256021,-7055813 -256022,-7055825 -256028,-7055833 -256037,-7055832 -256038,-7055832 -256043,-7055840 -256043,-7055847 -256043,-7055849 -256035,-7055854 -256035,-7055860 -256039,-7055865 -256040,-7055865 -256046,-7055865 -256051,-7055867 -256057,-7055870 -256065,-7055876 -256070,-7055884 -256074,-7055890 -256082,-7055894 -256092,-7055899 -256087,-7055920 -256096,-7055938 -256113,-7055957 -256104,-7055971 -256115,-7055977 -256124,-7055999 -256135,-7056008 -256138,-7056019 -256151,-7056016 -256156,-7056022 -256157,-7056033 -256171,-7056062 -256177,-7056069 -256178,-7056079 -256192,-7056097 -256192,-7056112 -256209,-7056112 -256221,-7056123 -256221,-7056137 -256228,-7056151 -256227,-7056164 -256238,-7056172 -256252,-7056175 -256276,-7056193 -256314,-7056226 -256337,-7056247 -256358,-7056283 -256389,-7056336 -256396,-7056355 -256405,-7056368 -256423,-7056399 -256426,-7056402 -256434,-7056409 -256444,-7056427 -256446,-7056441 -256455,-7056461 -256459,-7056468 -256465,-7056484 -256466,-7056501 -256476,-7056512 -256478,-7056524 -256501,-7056545 -256515,-7056572 -256521,-7056578 -256523,-7056595 -256533,-7056604 -256541,-7056620 -256536,-7056643 -256543,-7056659 -256546,-7056679 -256540,-7056691 -256542,-7056711 -256550,-7056722 -256570,-7056735 -256572,-7056755 -256592,-7056788 -256603,-7056791 -256627,-7056793 -256646,-7056783 -256652,-7056782 -256658,-7056785 -256663,-7056797 -256672,-7056805 -256682,-7056807 -256695,-7056806 -256714,-7056802 -256744,-7056797 -256761,-7056801 -256783,-7056809 -256808,-7056822 -256851,-7056849 -256878,-7056914 -256899,-7056958 -256908,-7056976 -256923,-7057007 -256942,-7057041 -256992,-7057138 -257030,-7057209 -257041,-7057244 -257048,-7057284 -257068,-7057324 -257072,-7057335 -257085,-7057360 -257090,-7057366 -257107,-7057376 -257126,-7057390 -257132,-7057399 -257160,-7057453 -257185,-7057497 -257243,-7057609 -257318,-7057751 -257476,-7058046 -257536,-7058158 -257601,-7058279 -257667,-7058404 -257723,-7058509 -257753,-7058565 -257869,-7058785 -258090,-7059201 -258252,-7059503 -258192,-7059498 -258171,-7059490 -258120,-7059467 -258108,-7059459 -258076,-7059419 -258064,-7059409 -258052,-7059407 -258036,-7059410 -258026,-7059416 -257958,-7059416 -257924,-7059408 -257893,-7059403 -257864,-7059389 -257839,-7059375 -257822,-7059370 -257800,-7059367 -257788,-7059359 -257769,-7059342 -257736,-7059327 -257711,-7059324 -257662,-7059288 -257646,-7059279 -257629,-7059276 -257610,-7059270 -257580,-7059243 -257552,-7059233 -257530,-7059212 -257501,-7059191 -257479,-7059181 -257449,-7059166 -257433,-7059166 -257415,-7059175 -257395,-7059179 -257363,-7059181 -257339,-7059178 -257314,-7059168 -257284,-7059166 -257253,-7059163 -257227,-7059166 -257202,-7059170 -257157,-7059168 -257126,-7059173 -257105,-7059177 -257056,-7059183 -256994,-7059180 -256969,-7059167 -256944,-7059170 -256919,-7059171 -256905,-7059170 -256887,-7059181 -256872,-7059180 -256852,-7059164 -256841,-7059159 -256829,-7059161 -256820,-7059163 -256771,-7059197 -256738,-7059209 -256691,-7059210 -256668,-7059203 -256644,-7059192 -256638,-7059192 -256637,-7059191 -256570,-7059193 -256549,-7059197 -256546,-7059197 -256515,-7059175 -256444,-7059125 -256433,-7059122 -256420,-7059122 -256419,-7059124 -256396,-7059133 -256367,-7059133 -256346,-7059131 -256330,-7059133 -256309,-7059141 -256260,-7059155 -256242,-7059159 -256210,-7059164 -256158,-7059163 -256131,-7059162 -256128,-7059160 -256112,-7059155 -256087,-7059143 -256068,-7059129 -256053,-7059114 -256040,-7059097 -256027,-7059078 -256025,-7059072 -256016,-7059051 -256007,-7059039 -255998,-7059028 -255997,-7059027 -255977,-7059011 -255928,-7058980 -255868,-7058945 -255842,-7058928 -255796,-7058898 -255780,-7058893 -255780,-7058894 -255785,-7058968 -255784,-7059036 -255777,-7059113 -255769,-7059167 -255765,-7059214 -255755,-7059269 -255740,-7059357 -255735,-7059377 -255731,-7059387 -255716,-7059408 -255688,-7059449 -255671,-7059486 -255657,-7059527 -255647,-7059550 -255636,-7059562 -255613,-7059576 -255609,-7059575 -255607,-7059574 -255606,-7059575 -255579,-7059608 -255544,-7059644 -255478,-7059710 -255460,-7059732 -255432,-7059765 -255401,-7059809 -255396,-7059817 -255383,-7059838 -255380,-7059846 -255375,-7059855 -255364,-7059866 -255360,-7059868 -255258,-7059884 -255205,-7059895 -255156,-7059914 -255112,-7059936 -255022,-7059984 -254974,-7060016 -254963,-7060025 -254932,-7060061 -254900,-7060108 -254881,-7060128 -254841,-7060169 -254838,-7060172 -254820,-7060188 -254811,-7060194 -254801,-7060201 -254797,-7060204 -254776,-7060200 -254769,-7060202 -254744,-7060210 -254736,-7060212 -254728,-7060213 -254713,-7060214 -254690,-7060186 -254673,-7060170 -254616,-7060118 -254557,-7060168 -254546,-7060177 -254531,-7060187 -254507,-7060205 -254506,-7060205 -254449,-7060223 -254430,-7060235 -254404,-7060261 -254389,-7060281 -254342,-7060328 -254329,-7060336 -254310,-7060346 -254290,-7060349 -254288,-7060350 -254277,-7060351 -254243,-7060354 -254224,-7060352 -254216,-7060349 -254185,-7060340 -254152,-7060324 -254124,-7060310 -254110,-7060295 -254075,-7060262 -254048,-7060237 -254021,-7060215 -253996,-7060192 -253980,-7060186 -253918,-7060190 -253880,-7060197 -253840,-7060201 -253783,-7060202 -253721,-7060216 -253650,-7060211 -253640,-7060208 -253630,-7060201 -253595,-7060209 -253569,-7060221 -253561,-7060228 -253560,-7060235 -253573,-7060246 -253577,-7060260 -253580,-7060309 -253582,-7060373 -253594,-7060408 -253603,-7060420 -253609,-7060453 -253611,-7060503 -253619,-7060543 -253623,-7060584 -253632,-7060607 -253631,-7060626 -253616,-7060725 -253607,-7060752 -253599,-7060766 -253590,-7060767 -253565,-7060800 -253543,-7060818 -253536,-7060824 -253501,-7060844 -253470,-7060852 -253423,-7060863 -253406,-7060880 -253383,-7060918 -253387,-7060920 -253375,-7060938 -253362,-7060953 -253382,-7060968 -253418,-7060988 -253412,-7061002 -253300,-7060956 -253219,-7061155 -253201,-7061202 -253198,-7061209 -253153,-7061319 -253133,-7061369 -253164,-7061383 -253122,-7061484 -253098,-7061534 -253109,-7061545 -253111,-7061546 -253144,-7061573 -253205,-7061614 -253279,-7061662 -253324,-7061683 -253385,-7061700 -253423,-7061709 -253559,-7061714 -253667,-7061741 -253751,-7061761 -253808,-7061778 -253844,-7061790 -253878,-7061799 -253906,-7061812 -253965,-7061842 -254011,-7061868 -254061,-7061894 -254091,-7061913 -254162,-7061959 -254188,-7061978 -254214,-7062003 -254223,-7062011 -254240,-7062032 -254258,-7062055 -254272,-7062076 -254283,-7062098 -254292,-7062121 -254307,-7062169 -254335,-7062248 -254401,-7062420 -254426,-7062501 -254434,-7062533 -254436,-7062547 -254450,-7062683 -254462,-7062762 -254468,-7062791 -254486,-7062843 -254504,-7062876 -254520,-7062908 -254559,-7062978 -254608,-7063076 -254638,-7063128 -254670,-7063174 -254687,-7063196 -254707,-7063220 -254730,-7063244 -254748,-7063262 -254764,-7063276 -254777,-7063287 -254799,-7063303 -254821,-7063316 -254856,-7063329 -254884,-7063337 -254918,-7063341 -254975,-7063344 -255010,-7063348 -255061,-7063360 -255105,-7063376 -255160,-7063400 -255249,-7063428 -255266,-7063432 -255286,-7063435 -255316,-7063434 -255345,-7063431 -255381,-7063423 -255434,-7063409 -255460,-7063402 -255508,-7063393 -255542,-7063390 -255567,-7063392 -255593,-7063397 -255632,-7063413 -255670,-7063432 -255718,-7063459 -255755,-7063478 -255788,-7063494 -255845,-7063508 -255914,-7063525 -255965,-7063542 -255995,-7063555 -256019,-7063577 -256022,-7063581 -256036,-7063610 -256041,-7063641 -256042,-7063671 -256041,-7063679 -256039,-7063687 -256036,-7063717 -256032,-7063759 -256030,-7063851 -256029,-7063909 -256032,-7063982 -256035,-7064004 -256049,-7064056 -256054,-7064083 -256056,-7064096 -256057,-7064109 -256057,-7064121 -256055,-7064134 -256045,-7064177 -256012,-7064263 -256001,-7064304 -255959,-7064273 -255894,-7064225 -255870,-7064206 -255845,-7064194 -255817,-7064186 -255799,-7064175 -255773,-7064156 -255755,-7064147 -255740,-7064143 -255713,-7064144 -255697,-7064139 -255684,-7064128 -255636,-7064074 -255616,-7064062 -255596,-7064056 -255565,-7064049 -255551,-7064041 -255541,-7064032 -255532,-7064030 -255522,-7064029 -255492,-7064039 -255440,-7064061 -255419,-7064067 -255400,-7064068 -255444,-7064215 -255474,-7064323 -255485,-7064364 -255496,-7064414 -255511,-7064486 -255527,-7064580 -255438,-7064585 -255409,-7064585 -255330,-7064588 -255258,-7064596 -255184,-7064606 -255160,-7064613 -255138,-7064624 -255101,-7064649 -255087,-7064656 -255064,-7064722 -255030,-7064767 -254932,-7064984 -254916,-7065009 -254907,-7065045 -254908,-7065063 -254919,-7065084 -254952,-7065144 -254981,-7065199 -254992,-7065235 -255015,-7065278 -255052,-7065342 -255069,-7065365 -255089,-7065389 -255104,-7065403 -255144,-7065424 -255185,-7065449 -255284,-7065482 -255284,-7065595 -255269,-7065636 -255242,-7065614 -255172,-7065731 -255134,-7065795 -255123,-7065809 -255000,-7065772 -254957,-7065750 -254950,-7065749 -254951,-7065755 -254957,-7065755 -254957,-7065763 -254935,-7065794 -254906,-7065771 -254882,-7065753 -254874,-7065768 -254801,-7065913 -254800,-7065915 -254753,-7066008 -254734,-7066044 -254689,-7066133 -254601,-7066309 -254504,-7066503 -254427,-7066496 -254373,-7066493 -254354,-7066490 -254329,-7066487 -254294,-7066485 -254293,-7066489 -254157,-7066491 -254137,-7066510 -254087,-7066511 -254037,-7066524 -254002,-7066535 -253976,-7066540 -253934,-7066536 -253830,-7066522 -253781,-7066523 -253775,-7066563 -253767,-7066632 -253761,-7066660 -253760,-7066697 -253739,-7066708 -253677,-7066711 -253620,-7066718 -253574,-7066735 -253493,-7066768 -253441,-7066774 -253376,-7066776 -253343,-7066769 -253322,-7066767 -253217,-7066767 -253153,-7066770 -253120,-7066774 -253081,-7066778 -253066,-7066779 -253031,-7066779 -253026,-7066779 -252992,-7066784 -252894,-7066798 -252861,-7066807 -252858,-7066810 -252724,-7066948 -252618,-7067060 -252532,-7067147 -252527,-7067150 -252525,-7067151 -252386,-7067295 -252239,-7067448 -252099,-7067592 -251723,-7067979 -251395,-7068314 -251380,-7068323 -251360,-7068333 -251275,-7068378 -251186,-7068426 -251109,-7068468 -251088,-7068478 -251023,-7068495 -250879,-7068532 -250888,-7068560 -250892,-7068574 -250884,-7068580 -250888,-7068591 -250893,-7068597 -250907,-7068637 -250903,-7068643 -250849,-7068660 -250839,-7068665 -250830,-7068677 -250830,-7068688 -250835,-7068705 -250836,-7068727 -250849,-7068749 -250858,-7068775 -250805,-7068793 -250810,-7068874 -250832,-7068949 -250863,-7069012 -250869,-7069009 -250879,-7069031 -250883,-7069053 -250887,-7069059 -250934,-7069017 -250952,-7069005 -250996,-7068988 -251091,-7068958 -251125,-7068949 -251156,-7068951 -251170,-7068953 -251174,-7068949 -251178,-7068950 -251251,-7068987 -251263,-7068994 -251281,-7068998 -251305,-7068996 -251343,-7068984 -251350,-7068988 -251350,-7069046 -251373,-7069046 -251373,-7069110 -251409,-7069110 -251407,-7069230 -251419,-7069237 -251419,-7069248 -251433,-7069263 -251428,-7069268 -251472,-7069310 -251523,-7069461 -251548,-7069542 -251560,-7069537 -251576,-7069588 -251606,-7069579 -251618,-7069588 -251684,-7069676 -251714,-7069710 -251731,-7069734 -251803,-7069827 -251855,-7069890 -251851,-7069893 -251882,-7069933 -251900,-7069924 -251924,-7069933 -251947,-7069962 -251961,-7069950 -251972,-7069963 -251968,-7069967 -251991,-7069993 -252016,-7069974 -252034,-7069985 -252040,-7069975 -252073,-7069998 -252088,-7070014 -252090,-7070017 -252097,-7070027 -252112,-7070062 -252129,-7070092 -252151,-7070126 -252090,-7070182 -252141,-7070246 -252192,-7070321 -252217,-7070362 -252243,-7070353 -252271,-7070348 -252312,-7070345 -252319,-7070355 -252332,-7070347 -252412,-7070357 -252425,-7070356 -252429,-7070354 -252490,-7070358 -252414,-7070451 -252380,-7070493 -252329,-7070568 -252300,-7070620 -252275,-7070666 -252255,-7070703 -252192,-7070820 -252169,-7070856 -252149,-7070882 -252157,-7070892 -252174,-7070923 -252163,-7070930 -252137,-7070945 -252117,-7070966 -252084,-7071005 -252055,-7071054 -252033,-7071093 -252018,-7071142 -252004,-7071208 -251971,-7071386 -251961,-7071434 -251951,-7071476 -251938,-7071535 -251917,-7071611 -251903,-7071641 -251880,-7071672 -251841,-7071707 -251808,-7071730 -251759,-7071762 -251718,-7071789 -251715,-7071791 -251692,-7071807 -251661,-7071825 -251636,-7071843 -251594,-7071878 -251526,-7071945 -251492,-7071985 -251411,-7072077 -251381,-7072112 -251303,-7072196 -251182,-7072333 -251113,-7072397 -251077,-7072429 -251000,-7072487 -250957,-7072524 -250879,-7072576 -250833,-7072606 -250745,-7072653 -250701,-7072676 -250619,-7072718 -250528,-7072764 -250483,-7072794 -250430,-7072831 -250350,-7072883 -250283,-7072942 -250204,-7073020 -250120,-7073101 -250115,-7073105 -250019,-7073194 -249983,-7073244 -249952,-7073340 -249927,-7073421 -249923,-7073467 -249927,-7073512 -249941,-7073543 -249947,-7073554 -249955,-7073565 -250006,-7073599 -250050,-7073630 -250113,-7073676 -250196,-7073740 -250317,-7073824 -250333,-7073837 -250344,-7073857 -250347,-7073871 -250355,-7073920 -250364,-7074014 -250369,-7074026 -250394,-7074058 -250427,-7074092 -250440,-7074102 -250466,-7074122 -250517,-7074158 -250523,-7074170 -250535,-7074195 -250540,-7074207 -250556,-7074286 -250560,-7074355 -250556,-7074402 -250542,-7074511 -250543,-7074552 -250544,-7074556 -250569,-7074603 -250623,-7074672 -250636,-7074691 -250650,-7074710 -250690,-7074734 -250733,-7074751 -250766,-7074763 -250856,-7074803 -250853,-7074808 -250794,-7074928 -250756,-7075063 -250746,-7075095 -250745,-7075121 -250745,-7075138 -250747,-7075150 -250756,-7075166 -250762,-7075174 -250764,-7075176 -250768,-7075182 -250830,-7075234 -250848,-7075249 -250914,-7075363 -251009,-7075528 -250929,-7075574 -250917,-7075581 -250916,-7075592 -250938,-7075631 -250940,-7075630 -250988,-7075715 -251000,-7075730 -251016,-7075756 -251018,-7075765 -251048,-7075817 -251070,-7075856 -251072,-7075860 -251042,-7075879 -250977,-7075917 -250963,-7075927 -250956,-7075936 -250946,-7075949 -250942,-7075967 -250942,-7075986 -250947,-7075997 -251020,-7076094 -251006,-7076096 -251006,-7076097 -250984,-7076099 -250974,-7076134 -250973,-7076136 -250980,-7076145 -250983,-7076149 -250974,-7076156 -250977,-7076159 -250973,-7076161 -250985,-7076175 -250939,-7076211 -250940,-7076213 -250917,-7076231 -250913,-7076234 -250924,-7076250 -250925,-7076252 -250905,-7076266 -250900,-7076270 -250891,-7076287 -250891,-7076293 -250853,-7076355 -250826,-7076398 -250827,-7076402 -250828,-7076408 -250808,-7076441 -250749,-7076539 -250747,-7076540 -250742,-7076544 -250732,-7076560 -250732,-7076566 -250735,-7076577 -250741,-7076584 -250740,-7076585 -250745,-7076590 -250766,-7076613 -250639,-7076755 -250559,-7076718 -250557,-7076721 -250385,-7076640 -250334,-7076611 -250293,-7076579 -250243,-7076541 -250143,-7076472 -250122,-7076542 -250111,-7076617 -250102,-7076683 -250094,-7076724 -250086,-7076746 -250066,-7076788 -250035,-7076844 -250011,-7076890 -249991,-7076925 -249959,-7076925 -249959,-7076930 -249960,-7076943 -249949,-7076944 -249951,-7076960 -249952,-7076969 -249953,-7076969 -249961,-7076968 -249970,-7077050 -249964,-7077052 -249966,-7077075 -249967,-7077078 -249970,-7077077 -249975,-7077076 -249980,-7077126 -249985,-7077156 -249980,-7077156 -249983,-7077180 -249989,-7077179 -249997,-7077233 -249997,-7077236 -250182,-7077297 -250225,-7077319 -250341,-7077359 -250306,-7077476 -250344,-7077486 -250498,-7077529 -250505,-7077531 -250432,-7077637 -250408,-7077682 -250395,-7077709 -250388,-7077733 -250381,-7077809 -250353,-7077804 -250311,-7077794 -250282,-7077788 -250281,-7077790 -250280,-7077793 -250259,-7077788 -250255,-7077788 -250245,-7077831 -250240,-7077858 -250232,-7077881 -250221,-7077901 -250202,-7077936 -250184,-7077954 -250147,-7077991 -250105,-7078037 -250087,-7078062 -250087,-7078078 -250081,-7078099 -250102,-7078103 -250105,-7078111 -250105,-7078134 -250087,-7078167 -250076,-7078194 -250073,-7078197 -250009,-7078263 -249937,-7078300 -249946,-7078320 -249958,-7078348 -249997,-7078447 -250023,-7078504 -250049,-7078560 -250100,-7078664 -250125,-7078706 -250162,-7078750 -250223,-7078815 -250322,-7078910 -250431,-7079004 -250479,-7079043 -250478,-7079062 -250483,-7079067 -250494,-7079077 -250506,-7079086 -250526,-7079095 -250586,-7079126 -250650,-7079155 -250932,-7079278 -251035,-7079317 -251071,-7079328 -251239,-7079382 -251244,-7079384 -251243,-7079385 -251234,-7079400 -251232,-7079400 -251219,-7079420 -251214,-7079429 -251212,-7079434 -251219,-7079490 -251216,-7079545 -251209,-7079616 -251207,-7079646 -251209,-7079712 -251192,-7079730 -251178,-7079739 -251180,-7079753 -251163,-7079760 -251166,-7079771 -251191,-7079817 -251114,-7079865 -251096,-7079881 -251080,-7079857 -251026,-7079862 -250938,-7079894 -250945,-7079974 -250953,-7079973 -250956,-7080033 -250960,-7080081 -250916,-7080085 -250917,-7080100 -250849,-7080107 -250857,-7080193 -250858,-7080227 -250787,-7080236 -250795,-7080295 -250806,-7080366 -250815,-7080429 -250823,-7080470 -250831,-7080501 -250836,-7080514 -250855,-7080565 -250769,-7080548 -250630,-7080521 -250636,-7080571 -250626,-7080604 -250628,-7080644 -250629,-7080699 -250628,-7080772 -250691,-7080809 -250667,-7080847 -250661,-7080847 -250612,-7080815 -250582,-7080818 -250335,-7080669 -250333,-7080677 -250323,-7080713 -250319,-7080730 -250316,-7080729 -250309,-7080726 -250306,-7080736 -250279,-7080826 -250259,-7080892 -250236,-7080973 -250200,-7081102 -250140,-7081314 -250093,-7081479 -250095,-7081498 -250406,-7081391 -250731,-7081280 -250910,-7081218 -251220,-7081111 -251264,-7081091 -251290,-7081076 -251470,-7080957 -251703,-7080805 -251727,-7080793 -251725,-7080789 -251858,-7080705 -251902,-7080684 -252040,-7080647 -252064,-7080734 -252076,-7080781 -252095,-7080827 -252196,-7080982 -252204,-7081001 -252218,-7081023 -252233,-7081080 -252240,-7081138 -252251,-7081311 -252257,-7081414 -252262,-7081556 -252252,-7081685 -252251,-7081700 -252253,-7081766 -252265,-7081847 -252276,-7081878 -252292,-7081924 -252319,-7081972 -252347,-7082032 -252364,-7082066 -252382,-7082121 -252387,-7082177 -252392,-7082262 -252396,-7082310 -252405,-7082353 -252428,-7082419 -252451,-7082476 -252482,-7082530 -252505,-7082572 -252447,-7082603 -252446,-7082622 -252457,-7082648 -252465,-7082647 -252468,-7082655 -252477,-7082661 -252506,-7082631 -252514,-7082642 -252505,-7082650 -252513,-7082657 -252511,-7082658 -252525,-7082675 -252518,-7082682 -252529,-7082695 -252544,-7082751 -252548,-7082803 -252547,-7082850 -252543,-7082909 -252523,-7082971 -252511,-7083007 -252500,-7083030 -252502,-7083032 -252496,-7083037 -252474,-7083079 -252464,-7083088 -252459,-7083103 -252419,-7083148 -252313,-7083256 -252183,-7083387 -252119,-7083450 -251966,-7083606 -251803,-7083771 -251663,-7083910 -251564,-7084012 -251522,-7084050 -251484,-7084080 -251443,-7084105 -251406,-7084121 -251380,-7084129 -251251,-7084159 -251024,-7084208 -250928,-7084230 -250844,-7084248 -250805,-7084261 -250679,-7084328 -250684,-7084338 -250672,-7084352 -250663,-7084365 -250662,-7084378 -250567,-7084366 -250515,-7084356 -250466,-7084344 -250404,-7084332 -250368,-7084319 -250248,-7084293 -250170,-7084246 -250103,-7084204 -250044,-7084165 -249955,-7084100 -249888,-7084031 -249854,-7083998 -249820,-7083969 -249716,-7083885 -249624,-7083820 -249573,-7083774" stroke="#006747" stroke-width="57" /></ns0:svg>    <rect x="20" y="50"  width="250" height="25"  rx="0"  fill="#006747" fill-opacity="0.8" />    <text x="145" y="70" text-anchor="middle" font-family="Frutiger" font-weight="bold" font-size="30" fill="white">Manchester</text>    <rect x="35" y="195" width="220" height="160" rx="15" fill="#78BE20"/>    <g font-family="Frutiger" font-size="15" fill="#231F20">        <g> <text x="45" y="218">Self-harm</text> <text x="245" y="218" text-anchor="end">20</text> </g>        <g> <text x="45" y="243">SEN</text> <text x="245" y="243" text-anchor="end">49</text> </g>        <g> <text x="45" y="268">Difficulties</text> <text x="245" y="268" text-anchor="end">64</text> </g>        <g> <text x="45" y="293">Child Carer</text> <text x="245" y="293" text-anchor="end">33</text> </g>        <g> <text x="45" y="318">Drinkers</text> <text x="245" y="318" text-anchor="end">18</text> </g>        <g> <text x="45" y="343">Safeguarding </text> <text x="245" y="343" text-anchor="end">44</text> </g>    </g></svg>