<?xml version="1.0" standalone="no"?>
<!DOCTYPE svg PUBLIC "-//W3C//DTD SVG 1.1//EN"
"http://www.w3.org/Graphics/SVG/1.1/DTD/svg11.dtd">
<svg height="390" version="1.1" width="290" xmlns="http://www.w3.org/2000/svg"><defs><style type="text/css">@font-face {font-family: 'Frutiger';font-style: normal;font-weight: normal;src: local('Frutiger'), url('../fonts/Frutiger.woff') format('woff');}@font-face {font-family: 'Frutiger Bold';font-style: normal;font-weight: normal;src: local('Frutiger Bold'), url('../fonts/Frutiger_bold.woff') format('woff');}        </style>    </defs>    <rect x="20" y="20"  width="250" height="350" rx="15" fill="#005EB8" />    <rect x="35" y="35"  width="220" height="145" rx="15" fill="white" /><ns0:svg xmlns:ns0="http://www.w3.org/2000/svg" height="115" version="1.1" viewBox="-241525 -7081902 22962 19719" width="220" x="35" y="50"><ns0:polygon fill="#003087" points=" -228618,-7081836 -228603,-7081826 -228593,-7081829 -228577,-7081848 -228529,-7081831 -228493,-7081810 -228420,-7081768 -228372,-7081743 -228329,-7081722 -228283,-7081721 -228177,-7081713 -228060,-7081700 -228055,-7081699 -228020,-7081693 -228020,-7081695 -227985,-7081689 -227952,-7081682 -227840,-7081659 -227776,-7081647 -227717,-7081638 -227598,-7081622 -227588,-7081618 -227437,-7081618 -227284,-7081619 -227243,-7081623 -227235,-7081618 -227194,-7081623 -227077,-7081642 -227068,-7081639 -227075,-7081618 -227065,-7081614 -227065,-7081611 -227059,-7081600 -227053,-7081562 -227049,-7081494 -227012,-7081491 -227012,-7081484 -226920,-7081463 -226939,-7081538 -226906,-7081548 -226896,-7081561 -226895,-7081575 -226900,-7081611 -226900,-7081622 -226806,-7081662 -226753,-7081683 -226728,-7081689 -226660,-7081695 -226652,-7081711 -226628,-7081702 -226580,-7081702 -226532,-7081702 -226520,-7081683 -226516,-7081633 -226513,-7081607 -226486,-7081538 -226477,-7081529 -226431,-7081556 -226417,-7081561 -226384,-7081557 -226372,-7081563 -226366,-7081577 -226357,-7081621 -226306,-7081635 -226283,-7081652 -226263,-7081677 -226261,-7081688 -226251,-7081689 -226246,-7081667 -226232,-7081657 -226191,-7081670 -226128,-7081668 -226124,-7081672 -226120,-7081667 -226059,-7081668 -226039,-7081673 -226027,-7081660 -225999,-7081630 -225972,-7081619 -225923,-7081604 -225893,-7081599 -225856,-7081580 -225834,-7081572 -225795,-7081563 -225782,-7081556 -225758,-7081554 -225757,-7081558 -225712,-7081556 -225675,-7081550 -225638,-7081537 -225622,-7081534 -225551,-7081506 -225527,-7081492 -225494,-7081461 -225466,-7081434 -225437,-7081409 -225412,-7081393 -225394,-7081380 -225389,-7081366 -225351,-7081363 -225346,-7081372 -225330,-7081374 -225296,-7081362 -225251,-7081347 -225248,-7081354 -225238,-7081353 -225216,-7081341 -225184,-7081304 -225187,-7081271 -225145,-7081232 -225108,-7081188 -225071,-7081140 -225024,-7081074 -224995,-7081037 -224997,-7081022 -224963,-7080979 -224927,-7080930 -224900,-7080892 -224801,-7080801 -224761,-7080764 -224748,-7080764 -224735,-7080770 -224653,-7080673 -224641,-7080630 -224632,-7080620 -224626,-7080608 -224590,-7080475 -224590,-7080466 -224641,-7080369 -224660,-7080327 -224677,-7080280 -224699,-7080209 -224720,-7080117 -224726,-7080092 -224729,-7080037 -224510,-7079994 -224457,-7079967 -224152,-7079818 -223949,-7079713 -223778,-7079648 -223655,-7079605 -223560,-7079641 -223453,-7079682 -223317,-7079713 -223237,-7079732 -223225,-7079735 -223106,-7079766 -222976,-7079808 -222802,-7079900 -222510,-7080048 -222296,-7080155 -222271,-7080136 -222121,-7080029 -221983,-7079939 -221904,-7079885 -221806,-7079821 -221758,-7079792 -221690,-7079740 -221619,-7079671 -221500,-7079573 -221431,-7079506 -221394,-7079466 -221338,-7079397 -221317,-7079366 -221232,-7079234 -221186,-7079151 -221056,-7079104 -220956,-7079068 -220920,-7079052 -220839,-7078994 -220760,-7078944 -220695,-7078916 -220629,-7078882 -220544,-7078850 -220449,-7078821 -220386,-7078802 -220298,-7078779 -220250,-7078761 -220169,-7078726 -220135,-7078706 -220014,-7078627 -219889,-7078557 -219867,-7078544 -219847,-7078530 -219828,-7078516 -219718,-7078411 -219639,-7078354 -219608,-7078336 -219519,-7078286 -219499,-7078274 -219471,-7078258 -219404,-7078228 -219107,-7078085 -219033,-7078032 -218997,-7078003 -218985,-7077995 -218973,-7077987 -218935,-7077967 -218876,-7077951 -218849,-7077944 -218681,-7077908 -218636,-7077889 -218563,-7077864 -218665,-7077743 -218784,-7077588 -218835,-7077505 -218846,-7077498 -218855,-7077479 -218861,-7077477 -218866,-7077462 -218874,-7077456 -218891,-7077462 -218902,-7077456 -218906,-7077434 -218958,-7077401 -218977,-7077339 -218990,-7077323 -219001,-7077306 -219007,-7077286 -219014,-7077267 -219024,-7077259 -219039,-7077261 -219052,-7077261 -219090,-7077210 -219101,-7077202 -219110,-7077191 -219116,-7077185 -219122,-7077181 -219141,-7077181 -219160,-7077171 -219174,-7077152 -219182,-7077133 -219206,-7077114 -219279,-7077044 -219314,-7077017 -219352,-7076991 -219381,-7076949 -219399,-7076926 -219407,-7076916 -219446,-7076878 -219448,-7076853 -219464,-7076840 -219475,-7076837 -219484,-7076824 -219491,-7076799 -219494,-7076789 -219510,-7076758 -219517,-7076731 -219541,-7076682 -219540,-7076662 -219536,-7076646 -219545,-7076620 -219553,-7076600 -219557,-7076578 -219557,-7076542 -219566,-7076526 -219580,-7076522 -219595,-7076510 -219602,-7076490 -219600,-7076462 -219589,-7076440 -219574,-7076422 -219569,-7076394 -219560,-7076361 -219546,-7076287 -219531,-7076254 -219525,-7076209 -219528,-7076190 -219536,-7076144 -219536,-7076132 -219535,-7076120 -219520,-7076081 -219519,-7076063 -219529,-7076045 -219541,-7076018 -219557,-7075956 -219554,-7075923 -219550,-7075915 -219549,-7075909 -219551,-7075899 -219555,-7075892 -219563,-7075885 -219570,-7075876 -219576,-7075864 -219577,-7075853 -219576,-7075846 -219568,-7075813 -219556,-7075785 -219553,-7075773 -219551,-7075762 -219550,-7075726 -219541,-7075687 -219529,-7075662 -219522,-7075650 -219518,-7075644 -219499,-7075621 -219479,-7075593 -219474,-7075582 -219468,-7075571 -219464,-7075556 -219461,-7075542 -219459,-7075513 -219456,-7075410 -219448,-7075341 -219436,-7075291 -219432,-7075258 -219429,-7075244 -219423,-7075227 -219401,-7075181 -219393,-7075165 -219388,-7075150 -219385,-7075131 -219395,-7075084 -219400,-7075065 -219422,-7075002 -219426,-7074984 -219427,-7074974 -219429,-7074907 -219443,-7074899 -219449,-7074880 -219446,-7074869 -219439,-7074865 -219435,-7074851 -219435,-7074837 -219445,-7074824 -219463,-7074799 -219500,-7074763 -219502,-7074713 -219515,-7074702 -219536,-7074694 -219544,-7074683 -219540,-7074662 -219520,-7074622 -219520,-7074608 -219535,-7074593 -219555,-7074549 -219565,-7074508 -219552,-7074474 -219551,-7074456 -219567,-7074442 -219587,-7074427 -219597,-7074417 -219614,-7074382 -219620,-7074367 -219627,-7074328 -219639,-7074311 -219661,-7074299 -219681,-7074277 -219686,-7074253 -219672,-7074239 -219677,-7074223 -219680,-7074202 -219704,-7074186 -219719,-7074172 -219721,-7074157 -219709,-7074113 -219735,-7074081 -219747,-7074053 -219738,-7074020 -219737,-7074000 -219736,-7073983 -219769,-7073938 -219784,-7073923 -219791,-7073908 -219795,-7073888 -219781,-7073868 -219775,-7073856 -219775,-7073851 -219779,-7073843 -219802,-7073825 -219808,-7073817 -219811,-7073809 -219814,-7073777 -219814,-7073767 -219819,-7073763 -219837,-7073755 -219844,-7073751 -219852,-7073744 -219859,-7073725 -219867,-7073696 -219898,-7073661 -219902,-7073641 -219899,-7073612 -219913,-7073598 -219939,-7073591 -219951,-7073582 -219972,-7073538 -219978,-7073535 -220002,-7073531 -220016,-7073519 -220028,-7073476 -220039,-7073465 -220049,-7073459 -220054,-7073457 -220091,-7073459 -220126,-7073453 -220150,-7073436 -220264,-7073416 -220272,-7073411 -220281,-7073400 -220280,-7073374 -220288,-7073355 -220295,-7073348 -220303,-7073344 -220312,-7073348 -220317,-7073348 -220328,-7073348 -220334,-7073351 -220341,-7073358 -220346,-7073361 -220379,-7073336 -220414,-7073310 -220447,-7073295 -220556,-7073277 -220575,-7073267 -220594,-7073227 -220612,-7073203 -220665,-7073165 -220707,-7073133 -220771,-7073091 -220805,-7073034 -220828,-7073000 -220839,-7072959 -220850,-7072930 -220868,-7072914 -220889,-7072902 -220914,-7072902 -220932,-7072887 -220937,-7072873 -220932,-7072841 -220929,-7072788 -220959,-7072747 -220983,-7072716 -221013,-7072665 -221018,-7072652 -221029,-7072637 -221047,-7072609 -221091,-7072602 -221098,-7072605 -221140,-7072620 -221155,-7072603 -221170,-7072597 -221200,-7072593 -221205,-7072592 -221236,-7072578 -221257,-7072526 -221283,-7072490 -221282,-7072458 -221262,-7072431 -221271,-7072397 -221283,-7072381 -221298,-7072366 -221313,-7072345 -221309,-7072318 -221301,-7072275 -221310,-7072219 -221346,-7072083 -221358,-7072021 -221377,-7071972 -221394,-7071823 -221409,-7071741 -221425,-7071688 -221439,-7071540 -221444,-7071460 -221449,-7071421 -221448,-7071394 -221450,-7071369 -221427,-7071351 -221411,-7071332 -221407,-7071328 -221380,-7071292 -221371,-7071271 -221359,-7071204 -221343,-7071153 -221324,-7071109 -221306,-7071067 -221272,-7071013 -221237,-7070961 -221233,-7070931 -221250,-7070907 -221292,-7070857 -221311,-7070824 -221321,-7070802 -221326,-7070758 -221312,-7070678 -221316,-7070668 -221325,-7070654 -221347,-7070628 -221358,-7070609 -221358,-7070590 -221351,-7070542 -221351,-7070457 -221362,-7070417 -221339,-7070375 -221303,-7070372 -221260,-7070335 -221255,-7070313 -221254,-7070277 -221253,-7070269 -221251,-7070257 -221247,-7070239 -221243,-7070230 -221230,-7070209 -221190,-7070153 -221179,-7070135 -221178,-7070119 -221180,-7070096 -221185,-7070057 -221184,-7070049 -221181,-7070026 -221174,-7069990 -221161,-7069946 -221139,-7069925 -221121,-7069922 -221052,-7069918 -221038,-7069917 -221024,-7069911 -220998,-7069883 -220945,-7069857 -220944,-7069856 -220902,-7069831 -220881,-7069818 -220868,-7069800 -220882,-7069753 -220879,-7069730 -220869,-7069707 -220858,-7069688 -220802,-7069635 -220768,-7069605 -220751,-7069587 -220734,-7069564 -220730,-7069547 -220730,-7069534 -220729,-7069514 -220706,-7069475 -220638,-7069414 -220605,-7069397 -220583,-7069385 -220570,-7069377 -220579,-7069331 -220580,-7069322 -220578,-7069307 -220576,-7069298 -220572,-7069287 -220564,-7069273 -220555,-7069260 -220527,-7069226 -220518,-7069213 -220508,-7069199 -220484,-7069162 -220478,-7069142 -220480,-7069128 -220482,-7069113 -220495,-7069101 -220514,-7069079 -220560,-7069057 -220599,-7069029 -220674,-7068965 -220712,-7068937 -220750,-7068935 -220798,-7068912 -220855,-7068884 -220938,-7068840 -220995,-7068797 -221030,-7068776 -221051,-7068767 -221078,-7068758 -221108,-7068744 -221146,-7068734 -221214,-7068725 -221242,-7068720 -221254,-7068715 -221276,-7068710 -221298,-7068690 -221321,-7068654 -221327,-7068606 -221327,-7068578 -221320,-7068529 -221313,-7068477 -221283,-7068437 -221246,-7068397 -221241,-7068370 -221239,-7068337 -221239,-7068327 -221247,-7068233 -221253,-7068179 -221263,-7068113 -221265,-7067959 -221250,-7067926 -221225,-7067910 -221212,-7067906 -221134,-7067851 -221113,-7067835 -221069,-7067800 -221057,-7067791 -221044,-7067774 -221037,-7067762 -221031,-7067749 -221032,-7067729 -221035,-7067715 -221037,-7067703 -221042,-7067686 -221057,-7067650 -221097,-7067581 -221129,-7067524 -221142,-7067505 -221167,-7067487 -221180,-7067480 -221194,-7067473 -221212,-7067472 -221255,-7067476 -221312,-7067464 -221392,-7067448 -221406,-7067444 -221424,-7067438 -221444,-7067433 -221464,-7067425 -221489,-7067411 -221512,-7067393 -221530,-7067376 -221548,-7067360 -221587,-7067314 -221614,-7067288 -221660,-7067250 -221682,-7067234 -221713,-7067218 -221727,-7067210 -221756,-7067199 -221765,-7067195 -221798,-7067177 -221819,-7067169 -221833,-7067156 -221876,-7067102 -221920,-7067029 -221940,-7066994 -222001,-7066901 -222072,-7066809 -222086,-7066784 -222090,-7066758 -222086,-7066713 -222084,-7066675 -222095,-7066622 -222083,-7066528 -222068,-7066449 -222055,-7066345 -222042,-7066211 -222044,-7066172 -222048,-7066121 -222056,-7066096 -222065,-7066077 -222080,-7066059 -222095,-7066037 -222140,-7065987 -222168,-7065943 -222186,-7065919 -222237,-7065883 -222280,-7065865 -222289,-7065865 -222327,-7065861 -222368,-7065865 -222418,-7065877 -222440,-7065883 -222457,-7065887 -222488,-7065903 -222522,-7065911 -222539,-7065908 -222564,-7065900 -222569,-7065897 -222602,-7065864 -222697,-7065776 -222720,-7065754 -222741,-7065730 -222774,-7065680 -222782,-7065667 -222802,-7065640 -222887,-7065595 -222905,-7065584 -222920,-7065574 -222965,-7065522 -222989,-7065494 -223000,-7065466 -223013,-7065429 -223029,-7065398 -223041,-7065375 -223057,-7065346 -223102,-7065319 -223148,-7065307 -223217,-7065296 -223258,-7065290 -223277,-7065286 -223343,-7065270 -223374,-7065255 -223413,-7065222 -223458,-7065196 -223500,-7065157 -223544,-7065110 -223555,-7065093 -223563,-7065075 -223563,-7065067 -223563,-7065060 -223563,-7065055 -223562,-7065045 -223559,-7065034 -223519,-7064998 -223478,-7064969 -223452,-7064964 -223439,-7064962 -223414,-7064958 -223394,-7064947 -223377,-7064925 -223360,-7064901 -223353,-7064887 -223325,-7064816 -223295,-7064748 -223293,-7064725 -223282,-7064693 -223247,-7064611 -223227,-7064585 -223206,-7064536 -223178,-7064475 -223171,-7064455 -223166,-7064444 -223161,-7064432 -223154,-7064386 -223161,-7064367 -223192,-7064340 -223212,-7064323 -223228,-7064307 -223233,-7064305 -223243,-7064286 -223243,-7064270 -223237,-7064249 -223228,-7064235 -223223,-7064230 -223216,-7064218 -223204,-7064203 -223190,-7064189 -223140,-7064156 -223102,-7064121 -223095,-7064116 -223089,-7064108 -223084,-7064100 -223087,-7064082 -223090,-7064063 -223108,-7064042 -223128,-7064036 -223164,-7064026 -223204,-7064017 -223228,-7064007 -223245,-7064004 -223279,-7064000 -223310,-7064001 -223407,-7063999 -223437,-7064001 -223468,-7064012 -223505,-7064036 -223564,-7064074 -223577,-7064091 -223601,-7064135 -223611,-7064152 -223632,-7064176 -223673,-7064198 -223701,-7064222 -223733,-7064259 -223756,-7064292 -223773,-7064329 -223799,-7064410 -223803,-7064423 -223813,-7064447 -223818,-7064457 -223823,-7064466 -223829,-7064476 -223851,-7064502 -223943,-7064602 -223954,-7064617 -223958,-7064625 -223963,-7064634 -223978,-7064699 -223989,-7064747 -223998,-7064775 -224007,-7064788 -224022,-7064795 -224040,-7064795 -224098,-7064793 -224159,-7064782 -224222,-7064760 -224252,-7064744 -224277,-7064724 -224302,-7064696 -224307,-7064682 -224310,-7064672 -224318,-7064647 -224340,-7064609 -224357,-7064585 -224382,-7064552 -224411,-7064521 -224439,-7064490 -224465,-7064461 -224482,-7064448 -224498,-7064450 -224515,-7064456 -224524,-7064466 -224534,-7064499 -224540,-7064519 -224550,-7064534 -224565,-7064545 -224595,-7064534 -224609,-7064523 -224625,-7064503 -224633,-7064479 -224635,-7064471 -224638,-7064457 -224641,-7064449 -224646,-7064428 -224651,-7064410 -224655,-7064396 -224670,-7064357 -224682,-7064348 -224701,-7064318 -224713,-7064294 -224727,-7064266 -224756,-7064207 -224768,-7064138 -224773,-7064112 -224784,-7064067 -224804,-7064030 -224811,-7064017 -224820,-7064005 -224834,-7063990 -224854,-7063973 -224872,-7063953 -224894,-7063936 -224931,-7063916 -224940,-7063913 -224956,-7063909 -224977,-7063900 -225004,-7063871 -225033,-7063850 -225053,-7063822 -225059,-7063813 -225087,-7063795 -225109,-7063779 -225124,-7063763 -225138,-7063743 -225153,-7063707 -225160,-7063674 -225161,-7063643 -225157,-7063599 -225155,-7063582 -225160,-7063535 -225172,-7063514 -225187,-7063503 -225212,-7063505 -225224,-7063510 -225281,-7063518 -225329,-7063501 -225395,-7063482 -225539,-7063452 -225615,-7063437 -225651,-7063418 -225668,-7063402 -225679,-7063385 -225680,-7063384 -225686,-7063371 -225692,-7063355 -225693,-7063329 -225680,-7063288 -225653,-7063242 -225644,-7063232 -225628,-7063214 -225620,-7063164 -225598,-7063096 -225583,-7063063 -225566,-7063041 -225542,-7063008 -225507,-7062953 -225516,-7062945 -225523,-7062939 -225561,-7062910 -225566,-7062922 -225608,-7062901 -225685,-7062872 -225748,-7062844 -225813,-7062799 -225860,-7062765 -225910,-7062727 -225978,-7062672 -225996,-7062665 -226009,-7062657 -226037,-7062646 -226056,-7062642 -226087,-7062640 -226115,-7062642 -226140,-7062647 -226164,-7062655 -226196,-7062672 -226239,-7062689 -226278,-7062700 -226336,-7062705 -226397,-7062706 -226428,-7062702 -226472,-7062683 -226478,-7062678 -226504,-7062620 -226517,-7062591 -226524,-7062548 -226527,-7062528 -226536,-7062513 -226551,-7062497 -226570,-7062482 -226593,-7062469 -226636,-7062453 -226656,-7062449 -226687,-7062447 -226724,-7062453 -226783,-7062461 -226808,-7062459 -226826,-7062454 -226845,-7062436 -226857,-7062410 -226865,-7062411 -226905,-7062403 -226949,-7062415 -226988,-7062409 -227009,-7062424 -227042,-7062419 -227053,-7062424 -227089,-7062446 -227088,-7062459 -227082,-7062474 -227075,-7062503 -227048,-7062537 -227079,-7062551 -227151,-7062587 -227180,-7062615 -227186,-7062626 -227332,-7062700 -227376,-7062716 -227476,-7062760 -227488,-7062742 -227646,-7062804 -227715,-7062838 -227731,-7062816 -227921,-7062947 -228067,-7062944 -228105,-7062940 -228112,-7062942 -228148,-7062976 -228205,-7063044 -228218,-7063061 -228259,-7063102 -228271,-7063085 -228291,-7063082 -228505,-7063135 -228509,-7063146 -228593,-7063160 -228600,-7063181 -228646,-7063171 -228642,-7063157 -228672,-7063142 -228686,-7063142 -228707,-7063159 -228712,-7063171 -228708,-7063249 -228849,-7063266 -228851,-7063259 -228864,-7063251 -228981,-7063204 -228992,-7063196 -229136,-7063124 -229125,-7063043 -229162,-7063020 -229304,-7062931 -229314,-7062946 -229327,-7062968 -229346,-7063016 -229349,-7063033 -229452,-7062955 -229452,-7062926 -229510,-7062913 -229525,-7062841 -229509,-7062832 -229517,-7062805 -229538,-7062811 -229555,-7062745 -229619,-7062787 -229754,-7062882 -229821,-7062921 -229842,-7062943 -229862,-7062957 -229894,-7062966 -229897,-7062957 -229910,-7062940 -229975,-7062858 -229999,-7062835 -230032,-7062798 -230076,-7062754 -230129,-7062692 -230156,-7062675 -230196,-7062656 -230230,-7062648 -230257,-7062647 -230275,-7062644 -230307,-7062631 -230326,-7062616 -230342,-7062594 -230355,-7062562 -230360,-7062535 -230358,-7062523 -230358,-7062521 -230357,-7062515 -230367,-7062513 -230369,-7062516 -230373,-7062523 -230388,-7062547 -230419,-7062580 -230429,-7062585 -230443,-7062586 -230515,-7062553 -230559,-7062530 -230605,-7062498 -230634,-7062473 -230700,-7062418 -230697,-7062411 -230711,-7062399 -230716,-7062400 -230774,-7062340 -230843,-7062278 -230886,-7062242 -230955,-7062183 -230996,-7062240 -231047,-7062284 -231083,-7062314 -231083,-7062326 -231103,-7062337 -231136,-7062369 -231148,-7062376 -231155,-7062374 -231159,-7062371 -231172,-7062359 -231193,-7062349 -231211,-7062349 -231220,-7062349 -231280,-7062221 -231291,-7062220 -231320,-7062240 -231338,-7062234 -231384,-7062231 -231402,-7062217 -231406,-7062217 -231434,-7062209 -231448,-7062208 -231475,-7062209 -231511,-7062221 -231522,-7062221 -231539,-7062236 -231562,-7062241 -231568,-7062248 -231625,-7062271 -231689,-7062288 -231728,-7062302 -231779,-7062312 -231825,-7062331 -231879,-7062343 -231887,-7062345 -231877,-7062429 -231914,-7062451 -231939,-7062461 -231962,-7062465 -232011,-7062519 -232038,-7062524 -232058,-7062541 -232061,-7062600 -232070,-7062610 -232090,-7062642 -232096,-7062657 -232090,-7062666 -232141,-7062696 -232139,-7062707 -232180,-7062771 -232190,-7062779 -232195,-7062791 -232206,-7062818 -232209,-7062867 -232221,-7062904 -232213,-7062905 -232208,-7062934 -232210,-7062947 -232181,-7062950 -232144,-7062961 -232138,-7063020 -232139,-7063073 -232141,-7063133 -232137,-7063170 -232132,-7063188 -232120,-7063207 -232118,-7063222 -232121,-7063225 -232123,-7063238 -232120,-7063245 -232128,-7063274 -232125,-7063292 -232141,-7063307 -232143,-7063335 -232138,-7063369 -232148,-7063393 -232169,-7063393 -232205,-7063412 -232247,-7063455 -232168,-7063529 -232154,-7063528 -232129,-7063501 -232119,-7063504 -232081,-7063469 -232040,-7063506 -232130,-7063601 -232099,-7063627 -232052,-7063662 -231993,-7063701 -232000,-7063710 -232025,-7063707 -232033,-7063712 -232048,-7063732 -232057,-7063739 -232097,-7063747 -232101,-7063761 -232115,-7063754 -232157,-7063770 -232177,-7063767 -232197,-7063790 -232223,-7063798 -232243,-7063806 -232256,-7063808 -232268,-7063819 -232275,-7063834 -232277,-7063856 -232284,-7063888 -232296,-7063907 -232295,-7063914 -232296,-7063926 -232296,-7063954 -232303,-7063964 -232310,-7063973 -232308,-7063979 -232305,-7063986 -232306,-7063993 -232312,-7064007 -232325,-7064023 -232338,-7064046 -232341,-7064055 -232341,-7064074 -232342,-7064088 -232346,-7064095 -232357,-7064101 -232391,-7064131 -232398,-7064147 -232404,-7064154 -232415,-7064155 -232418,-7064162 -232422,-7064171 -232439,-7064191 -232483,-7064242 -232506,-7064272 -232532,-7064292 -232550,-7064301 -232599,-7064300 -232619,-7064303 -232649,-7064309 -232696,-7064318 -232713,-7064323 -232735,-7064333 -232746,-7064347 -232770,-7064353 -232792,-7064360 -232817,-7064346 -232826,-7064349 -232836,-7064357 -232842,-7064359 -232847,-7064361 -232854,-7064358 -232869,-7064352 -232877,-7064347 -232889,-7064338 -232892,-7064331 -232899,-7064329 -232906,-7064329 -232912,-7064337 -232937,-7064335 -232942,-7064343 -232970,-7064344 -232972,-7064340 -232977,-7064300 -232994,-7064266 -233014,-7064230 -233054,-7064178 -233075,-7064155 -233099,-7064145 -233131,-7064151 -233203,-7064173 -233297,-7064203 -233334,-7064221 -233377,-7064248 -233393,-7064254 -233407,-7064256 -233442,-7064256 -233475,-7064254 -233501,-7064248 -233526,-7064229 -233544,-7064196 -233563,-7064139 -233566,-7064107 -233563,-7064079 -233555,-7064044 -233540,-7063992 -233512,-7063910 -233501,-7063880 -233493,-7063846 -233477,-7063802 -233453,-7063753 -233429,-7063713 -233418,-7063696 -233404,-7063664 -233400,-7063639 -233399,-7063625 -233405,-7063613 -233419,-7063600 -233430,-7063595 -233449,-7063584 -233465,-7063571 -233484,-7063569 -233510,-7063565 -233536,-7063566 -233561,-7063570 -233585,-7063572 -233663,-7063586 -233731,-7063593 -233783,-7063598 -233831,-7063598 -233852,-7063596 -233861,-7063594 -233868,-7063591 -233875,-7063589 -233882,-7063586 -233889,-7063583 -233895,-7063579 -233901,-7063575 -233907,-7063571 -233912,-7063566 -233914,-7063565 -233919,-7063559 -233923,-7063554 -233928,-7063548 -233931,-7063542 -233935,-7063535 -233938,-7063528 -233953,-7063496 -233955,-7063492 -233962,-7063478 -233970,-7063465 -233972,-7063463 -233975,-7063458 -233977,-7063453 -233981,-7063449 -233981,-7063449 -233984,-7063446 -233987,-7063443 -233989,-7063441 -233993,-7063439 -233996,-7063437 -233999,-7063436 -234003,-7063435 -234042,-7063423 -234072,-7063425 -234102,-7063431 -234150,-7063452 -234166,-7063460 -234191,-7063475 -234209,-7063486 -234217,-7063493 -234240,-7063513 -234243,-7063516 -234248,-7063519 -234295,-7063544 -234338,-7063556 -234389,-7063555 -234446,-7063556 -234469,-7063564 -234494,-7063579 -234591,-7063634 -234611,-7063653 -234628,-7063675 -234650,-7063712 -234666,-7063744 -234685,-7063790 -234705,-7063823 -234712,-7063832 -234744,-7063863 -234832,-7063942 -234875,-7063985 -234897,-7064019 -234958,-7064103 -234984,-7064144 -234990,-7064169 -234976,-7064215 -234975,-7064241 -234980,-7064257 -235001,-7064306 -235021,-7064344 -235054,-7064381 -235124,-7064456 -235161,-7064500 -235222,-7064585 -235269,-7064654 -235349,-7064740 -235396,-7064782 -235454,-7064851 -235486,-7064899 -235492,-7064906 -235503,-7064913 -235524,-7064927 -235553,-7064940 -235566,-7064943 -235572,-7064940 -235601,-7064916 -235632,-7064888 -235656,-7064860 -235671,-7064839 -235685,-7064798 -235700,-7064749 -235708,-7064728 -235708,-7064710 -235705,-7064691 -235699,-7064682 -235689,-7064673 -235671,-7064673 -235613,-7064677 -235563,-7064694 -235528,-7064699 -235503,-7064700 -235478,-7064696 -235464,-7064692 -235446,-7064682 -235435,-7064672 -235420,-7064655 -235413,-7064642 -235404,-7064622 -235408,-7064597 -235416,-7064571 -235429,-7064545 -235443,-7064525 -235463,-7064503 -235480,-7064489 -235516,-7064471 -235551,-7064457 -235571,-7064451 -235583,-7064442 -235595,-7064425 -235619,-7064388 -235643,-7064347 -235656,-7064328 -235678,-7064307 -235698,-7064289 -235735,-7064267 -235768,-7064257 -235790,-7064256 -235812,-7064257 -235838,-7064260 -235864,-7064254 -235890,-7064245 -235913,-7064228 -235932,-7064210 -235936,-7064186 -235942,-7064164 -235950,-7064149 -235964,-7064139 -235975,-7064135 -235994,-7064129 -236016,-7064129 -236027,-7064135 -236035,-7064146 -236039,-7064164 -236052,-7064184 -236065,-7064209 -236072,-7064226 -236075,-7064246 -236071,-7064259 -236055,-7064299 -236034,-7064347 -236034,-7064362 -236009,-7064411 -235991,-7064446 -235968,-7064485 -235951,-7064501 -235929,-7064521 -235922,-7064542 -235922,-7064563 -235925,-7064585 -235939,-7064614 -235961,-7064653 -235976,-7064684 -235984,-7064693 -236027,-7064720 -236073,-7064760 -236106,-7064796 -236139,-7064831 -236205,-7064908 -236240,-7064942 -236283,-7064982 -236292,-7064999 -236312,-7065015 -236330,-7065021 -236347,-7065014 -236368,-7064996 -236399,-7064966 -236410,-7064948 -236416,-7064919 -236417,-7064869 -236419,-7064825 -236426,-7064774 -236417,-7064724 -236397,-7064669 -236378,-7064628 -236342,-7064589 -236307,-7064552 -236267,-7064508 -236262,-7064481 -236262,-7064463 -236271,-7064444 -236299,-7064392 -236308,-7064382 -236333,-7064369 -236353,-7064371 -236363,-7064373 -236380,-7064387 -236441,-7064419 -236489,-7064443 -236526,-7064457 -236550,-7064473 -236574,-7064492 -236617,-7064518 -236649,-7064535 -236682,-7064549 -236756,-7064572 -236822,-7064596 -236849,-7064608 -236891,-7064633 -236941,-7064665 -236976,-7064689 -237020,-7064707 -237059,-7064719 -237097,-7064721 -237125,-7064718 -237172,-7064707 -237191,-7064698 -237225,-7064683 -237252,-7064651 -237289,-7064615 -237329,-7064571 -237379,-7064541 -237409,-7064529 -237445,-7064516 -237477,-7064501 -237499,-7064489 -237517,-7064472 -237528,-7064446 -237538,-7064412 -237555,-7064378 -237582,-7064333 -237600,-7064319 -237625,-7064313 -237659,-7064328 -237685,-7064340 -237695,-7064350 -237702,-7064393 -237710,-7064426 -237708,-7064446 -237703,-7064471 -237696,-7064493 -237690,-7064514 -237687,-7064540 -237694,-7064573 -237713,-7064615 -237718,-7064640 -237722,-7064657 -237740,-7064680 -237758,-7064681 -237787,-7064675 -237812,-7064659 -237827,-7064642 -237858,-7064596 -237871,-7064569 -237876,-7064555 -237874,-7064526 -237868,-7064496 -237863,-7064472 -237872,-7064451 -237885,-7064429 -237894,-7064412 -237899,-7064406 -237916,-7064408 -237941,-7064392 -237967,-7064383 -237993,-7064381 -238014,-7064388 -238034,-7064402 -238057,-7064435 -238066,-7064443 -238112,-7064465 -238154,-7064478 -238175,-7064491 -238192,-7064509 -238216,-7064535 -238227,-7064554 -238237,-7064578 -238249,-7064621 -238261,-7064648 -238280,-7064682 -238290,-7064688 -238305,-7064691 -238320,-7064690 -238336,-7064684 -238357,-7064671 -238366,-7064663 -238378,-7064650 -238385,-7064624 -238387,-7064604 -238388,-7064568 -238396,-7064540 -238397,-7064512 -238401,-7064503 -238411,-7064477 -238423,-7064535 -238474,-7064763 -238418,-7064775 -238417,-7064775 -238433,-7064859 -238486,-7065090 -238496,-7065119 -238515,-7065188 -238522,-7065214 -238522,-7065225 -238576,-7065252 -238609,-7065270 -238629,-7065288 -238642,-7065302 -238653,-7065331 -238684,-7065407 -238701,-7065438 -238732,-7065487 -238690,-7065533 -238646,-7065586 -238641,-7065593 -238636,-7065599 -238630,-7065606 -238619,-7065620 -238607,-7065629 -238587,-7065640 -238546,-7065656 -238580,-7065678 -238595,-7065700 -238604,-7065713 -238608,-7065717 -238637,-7065734 -238664,-7065746 -238666,-7065748 -238676,-7065751 -238719,-7065777 -238735,-7065780 -238749,-7065782 -238772,-7065793 -238835,-7065820 -238859,-7065829 -238885,-7065840 -238895,-7065839 -238904,-7065831 -238921,-7065817 -238928,-7065810 -238984,-7065826 -239000,-7065830 -239038,-7065874 -239079,-7065917 -239127,-7065965 -239166,-7066001 -239206,-7066034 -239205,-7066035 -239196,-7066043 -239199,-7066047 -239226,-7066078 -239163,-7066130 -239165,-7066139 -239178,-7066157 -239188,-7066170 -239184,-7066172 -239177,-7066176 -239179,-7066183 -239156,-7066189 -239156,-7066191 -239166,-7066230 -239181,-7066264 -239200,-7066306 -239220,-7066339 -239256,-7066391 -239253,-7066393 -239298,-7066447 -239357,-7066505 -239357,-7066505 -239365,-7066499 -239368,-7066497 -239446,-7066578 -239531,-7066662 -239576,-7066699 -239580,-7066701 -239583,-7066704 -239590,-7066710 -239601,-7066716 -239598,-7066720 -239608,-7066729 -239611,-7066730 -239643,-7066742 -239670,-7066759 -239727,-7066793 -239781,-7066819 -239808,-7066828 -239854,-7066869 -239868,-7066885 -239872,-7066893 -239882,-7066909 -239889,-7066922 -239901,-7066943 -239903,-7066980 -239921,-7067012 -239922,-7067012 -239953,-7067077 -239985,-7067148 -240060,-7067264 -240110,-7067341 -240151,-7067404 -240157,-7067412 -240188,-7067464 -240202,-7067475 -240207,-7067479 -240230,-7067506 -240253,-7067551 -240252,-7067556 -240254,-7067577 -240267,-7067580 -240277,-7067596 -240212,-7067646 -240190,-7067664 -240155,-7067678 -240062,-7067744 -239999,-7067790 -239955,-7067819 -239928,-7067836 -239880,-7067864 -239770,-7067942 -239714,-7067983 -239662,-7068030 -239597,-7068095 -239572,-7068116 -239483,-7068113 -239457,-7068123 -239458,-7068127 -239457,-7068132 -239425,-7068169 -239392,-7068142 -239383,-7068148 -239367,-7068158 -239353,-7068190 -239299,-7068308 -239252,-7068432 -239314,-7068468 -239351,-7068483 -239423,-7068582 -239402,-7068599 -239321,-7068591 -239276,-7068592 -239263,-7068595 -239249,-7068603 -239248,-7068610 -239235,-7068623 -239227,-7068651 -239237,-7068650 -239275,-7068643 -239287,-7068654 -239314,-7068676 -239334,-7068677 -239341,-7068679 -239346,-7068682 -239356,-7068690 -239382,-7068732 -239397,-7068768 -239403,-7068779 -239427,-7068802 -239431,-7068819 -239437,-7068831 -239450,-7068849 -239465,-7068868 -239469,-7068893 -239497,-7068899 -239523,-7068909 -239533,-7068920 -239547,-7068942 -239560,-7068986 -239556,-7069017 -239563,-7069022 -239568,-7069023 -239595,-7069003 -239620,-7069052 -239643,-7069093 -239646,-7069150 -239631,-7069162 -239606,-7069174 -239588,-7069179 -239569,-7069182 -239536,-7069190 -239510,-7069178 -239501,-7069194 -239498,-7069198 -239478,-7069212 -239470,-7069216 -239452,-7069221 -239429,-7069224 -239418,-7069224 -239400,-7069220 -239388,-7069223 -239372,-7069231 -239347,-7069229 -239333,-7069236 -239328,-7069249 -239325,-7069254 -239301,-7069323 -239304,-7069354 -239281,-7069363 -239280,-7069365 -239279,-7069376 -239282,-7069403 -239264,-7069423 -239253,-7069445 -239246,-7069469 -239241,-7069505 -239241,-7069506 -239211,-7069529 -239203,-7069557 -239157,-7069586 -239143,-7069613 -239112,-7069618 -239097,-7069624 -239093,-7069637 -239095,-7069656 -239090,-7069709 -239079,-7069744 -239104,-7069763 -239105,-7069781 -239066,-7069820 -239008,-7069875 -238995,-7069913 -238987,-7069944 -238983,-7069975 -238985,-7069984 -238998,-7070006 -239009,-7070022 -239035,-7070046 -239060,-7070079 -239064,-7070087 -239067,-7070096 -239067,-7070106 -239065,-7070138 -239070,-7070167 -239076,-7070191 -239097,-7070233 -239131,-7070272 -239150,-7070306 -239174,-7070328 -239188,-7070360 -239196,-7070367 -239221,-7070378 -239258,-7070427 -239272,-7070447 -239284,-7070467 -239294,-7070515 -239325,-7070583 -239334,-7070610 -239335,-7070610 -239350,-7070611 -239350,-7070614 -239352,-7070778 -239350,-7070794 -239351,-7070847 -239354,-7070855 -239369,-7070878 -239380,-7070896 -239380,-7070932 -239390,-7070938 -239462,-7070977 -239463,-7070972 -239516,-7071000 -239526,-7071002 -239526,-7071007 -239535,-7071007 -239602,-7071042 -239656,-7071074 -239678,-7071088 -239678,-7071091 -239757,-7071145 -239775,-7071162 -239777,-7071159 -239829,-7071198 -239856,-7071220 -239880,-7071244 -239941,-7071243 -239938,-7071313 -239996,-7071389 -239996,-7071407 -240024,-7071405 -240083,-7071403 -240125,-7071402 -240239,-7071400 -240289,-7071403 -240420,-7071371 -240512,-7071349 -240510,-7071344 -240523,-7071341 -240524,-7071346 -240600,-7071329 -240617,-7071322 -240624,-7071319 -240633,-7071338 -240646,-7071382 -240672,-7071501 -240682,-7071550 -240688,-7071573 -240698,-7071590 -240718,-7071602 -240842,-7071644 -241007,-7071702 -241021,-7071760 -241040,-7071762 -241055,-7071770 -241068,-7071840 -241082,-7071844 -241084,-7071854 -241097,-7071859 -241101,-7071944 -241102,-7072006 -241114,-7072029 -241066,-7072006 -241066,-7072029 -241070,-7072035 -241069,-7072059 -241072,-7072067 -241076,-7072083 -241114,-7072200 -241117,-7072199 -241154,-7072188 -241172,-7072241 -241175,-7072242 -241177,-7072242 -241337,-7072283 -241338,-7072284 -241340,-7072284 -241347,-7072299 -241346,-7072305 -241341,-7072310 -241330,-7072308 -241305,-7072304 -241276,-7072436 -241298,-7072441 -241289,-7072488 -241285,-7072507 -241303,-7072512 -241299,-7072532 -241349,-7072666 -241350,-7072672 -241348,-7072700 -241370,-7072771 -241394,-7072831 -241393,-7072835 -241388,-7072837 -241390,-7072843 -241384,-7072844 -241386,-7072854 -241366,-7072861 -241371,-7072876 -241367,-7072877 -241392,-7072948 -241412,-7073010 -241430,-7073080 -241448,-7073149 -241466,-7073265 -241459,-7073265 -241470,-7073331 -241476,-7073355 -241439,-7073360 -241454,-7073428 -241511,-7073420 -241525,-7073551 -241487,-7073557 -241498,-7073613 -241443,-7073626 -241463,-7073709 -241428,-7073717 -241437,-7073755 -241441,-7073755 -241443,-7073761 -241473,-7073754 -241485,-7073812 -241473,-7073815 -241475,-7073826 -241445,-7073830 -241454,-7073877 -241418,-7073883 -241415,-7073875 -241385,-7073879 -241388,-7073893 -241327,-7073906 -241233,-7073926 -241181,-7073937 -241143,-7073942 -241134,-7073995 -241124,-7074058 -241124,-7074100 -241127,-7074118 -241134,-7074138 -241141,-7074158 -241149,-7074168 -241167,-7074195 -241175,-7074215 -241181,-7074234 -241185,-7074254 -241188,-7074273 -241189,-7074293 -241189,-7074314 -241186,-7074347 -241179,-7074369 -241165,-7074393 -241141,-7074424 -241125,-7074436 -241114,-7074448 -241099,-7074434 -241079,-7074430 -241036,-7074438 -241015,-7074439 -241013,-7074438 -241003,-7074435 -240989,-7074428 -240974,-7074422 -240968,-7074419 -240952,-7074414 -240941,-7074411 -240919,-7074408 -240914,-7074407 -240907,-7074408 -240906,-7074408 -240902,-7074408 -240895,-7074413 -240892,-7074415 -240884,-7074429 -240877,-7074454 -240866,-7074470 -240857,-7074479 -240839,-7074496 -240808,-7074552 -240798,-7074580 -240793,-7074599 -240790,-7074632 -240792,-7074665 -240787,-7074687 -240780,-7074700 -240757,-7074714 -240734,-7074738 -240711,-7074761 -240696,-7074772 -240672,-7074781 -240646,-7074783 -240623,-7074783 -240577,-7074775 -240524,-7074775 -240476,-7074764 -240436,-7074753 -240402,-7074749 -240375,-7074750 -240364,-7074753 -240354,-7074757 -240334,-7074773 -240285,-7074798 -240263,-7074818 -240252,-7074836 -240246,-7074849 -240245,-7074860 -240243,-7074872 -240247,-7074916 -240246,-7074929 -240242,-7074941 -240227,-7074956 -240210,-7074967 -240194,-7074974 -240176,-7074977 -240154,-7074977 -240135,-7074972 -240109,-7074964 -240085,-7074949 -240070,-7074938 -240044,-7074907 -240033,-7074893 -240026,-7074885 -240009,-7074863 -239989,-7074829 -239972,-7074811 -239965,-7074810 -239962,-7074810 -239940,-7074818 -239924,-7074821 -239916,-7074822 -239896,-7074824 -239879,-7074811 -239873,-7074808 -239857,-7074800 -239852,-7074794 -239850,-7074767 -239849,-7074757 -239843,-7074731 -239832,-7074707 -239808,-7074689 -239791,-7074686 -239770,-7074688 -239745,-7074696 -239732,-7074696 -239707,-7074697 -239666,-7074694 -239586,-7074691 -239526,-7074691 -239523,-7074691 -239505,-7074689 -239497,-7074693 -239495,-7074695 -239493,-7074707 -239492,-7074725 -239488,-7074730 -239488,-7074731 -239485,-7074733 -239473,-7074742 -239457,-7074744 -239429,-7074741 -239401,-7074737 -239373,-7074730 -239297,-7074714 -239279,-7074711 -239251,-7074713 -239218,-7074720 -239199,-7074718 -239186,-7074710 -239171,-7074700 -239160,-7074698 -239149,-7074704 -239147,-7074706 -239118,-7074741 -239108,-7074760 -239101,-7074784 -239085,-7074802 -239066,-7074821 -239050,-7074832 -239020,-7074848 -239000,-7074864 -238985,-7074859 -238980,-7074857 -238971,-7074850 -238966,-7074846 -238965,-7074843 -238952,-7074814 -238939,-7074805 -238930,-7074800 -238933,-7074791 -238934,-7074791 -238940,-7074787 -238940,-7074768 -238948,-7074763 -238947,-7074750 -238917,-7074723 -238912,-7074718 -238913,-7074696 -238904,-7074688 -238896,-7074672 -238890,-7074661 -238877,-7074652 -238873,-7074640 -238872,-7074623 -238850,-7074610 -238838,-7074609 -238834,-7074583 -238832,-7074573 -238827,-7074565 -238827,-7074530 -238828,-7074523 -238756,-7074500 -238701,-7074478 -238652,-7074477 -238580,-7074462 -238518,-7074443 -238489,-7074436 -238433,-7074406 -238412,-7074396 -238328,-7074365 -238271,-7074368 -238229,-7074381 -238209,-7074382 -238186,-7074387 -238164,-7074409 -238166,-7074411 -238115,-7074448 -238050,-7074472 -238040,-7074481 -238016,-7074490 -238008,-7074487 -238006,-7074486 -237996,-7074468 -237989,-7074456 -237924,-7074471 -237858,-7074494 -237803,-7074510 -237792,-7074514 -237784,-7074556 -237779,-7074615 -237769,-7074698 -237759,-7074752 -237755,-7074791 -237749,-7074887 -237738,-7074958 -237727,-7075025 -237714,-7075077 -237698,-7075119 -237689,-7075140 -237670,-7075171 -237652,-7075191 -237627,-7075227 -237566,-7075288 -237530,-7075330 -237503,-7075364 -237478,-7075397 -237397,-7075518 -237350,-7075589 -237292,-7075677 -237265,-7075703 -237243,-7075719 -237194,-7075741 -237157,-7075749 -237100,-7075753 -237043,-7075752 -236950,-7075742 -236902,-7075737 -236872,-7075738 -236836,-7075744 -236797,-7075754 -236757,-7075770 -236733,-7075786 -236701,-7075815 -236667,-7075842 -236639,-7075859 -236580,-7075890 -236553,-7075907 -236524,-7075929 -236510,-7075943 -236492,-7075961 -236484,-7075973 -236467,-7076000 -236448,-7076036 -236406,-7076105 -236409,-7076099 -236390,-7076124 -236366,-7076150 -236350,-7076157 -236311,-7076178 -236270,-7076193 -236255,-7076195 -236238,-7076193 -236216,-7076188 -236208,-7076174 -236207,-7076166 -236182,-7076166 -236165,-7076171 -236146,-7076183 -236101,-7076227 -236074,-7076261 -236044,-7076322 -236046,-7076363 -236059,-7076414 -236037,-7076501 -236022,-7076560 -236006,-7076651 -236002,-7076693 -236023,-7076710 -236040,-7076711 -236039,-7076713 -236030,-7076727 -236012,-7076745 -236009,-7076756 -236008,-7076755 -236004,-7076754 -235997,-7076777 -236006,-7076783 -236015,-7076797 -236015,-7076819 -236015,-7076820 -236008,-7076831 -236000,-7076840 -235990,-7076844 -235981,-7076845 -235980,-7076847 -235973,-7076869 -235970,-7076892 -235966,-7076920 -235960,-7076963 -235962,-7077029 -235962,-7077072 -235962,-7077097 -235949,-7077093 -235901,-7077089 -235875,-7077089 -235799,-7077101 -235786,-7077106 -235730,-7077125 -235691,-7077147 -235665,-7077163 -235614,-7077192 -235588,-7077205 -235558,-7077213 -235546,-7077216 -235517,-7077227 -235485,-7077234 -235469,-7077244 -235445,-7077260 -235364,-7077329 -235308,-7077379 -235231,-7077447 -235222,-7077462 -235214,-7077465 -235209,-7077464 -235208,-7077463 -235194,-7077474 -235191,-7077472 -235102,-7077516 -234993,-7077567 -234971,-7077584 -234960,-7077582 -234921,-7077595 -234843,-7077626 -234783,-7077645 -234704,-7077668 -234652,-7077680 -234638,-7077673 -234592,-7077679 -234548,-7077679 -234526,-7077697 -234527,-7077707 -234528,-7077710 -234490,-7077713 -234480,-7077716 -234423,-7077724 -234378,-7077732 -234344,-7077743 -234310,-7077756 -234264,-7077771 -234220,-7077790 -234198,-7077799 -234182,-7077813 -234171,-7077822 -234146,-7077832 -234142,-7077834 -234139,-7077835 -234127,-7077854 -234124,-7077864 -234123,-7077867 -234116,-7077892 -234092,-7077930 -234085,-7077940 -234075,-7077964 -234045,-7078036 -234037,-7078060 -234033,-7078083 -234013,-7078102 -234000,-7078112 -233952,-7078118 -233899,-7078129 -233872,-7078137 -233839,-7078147 -233825,-7078168 -233796,-7078188 -233778,-7078203 -233766,-7078220 -233754,-7078245 -233741,-7078272 -233717,-7078316 -233717,-7078326 -233717,-7078332 -233723,-7078343 -233713,-7078356 -233710,-7078359 -233720,-7078386 -233732,-7078404 -233733,-7078463 -233731,-7078506 -233725,-7078532 -233716,-7078553 -233702,-7078573 -233684,-7078590 -233672,-7078602 -233665,-7078610 -233664,-7078616 -233667,-7078626 -233669,-7078635 -233662,-7078646 -233650,-7078656 -233643,-7078659 -233629,-7078652 -233619,-7078640 -233617,-7078637 -233594,-7078624 -233577,-7078624 -233564,-7078636 -233562,-7078639 -233548,-7078659 -233540,-7078676 -233535,-7078701 -233523,-7078727 -233510,-7078747 -233473,-7078792 -233446,-7078810 -233425,-7078821 -233410,-7078829 -233377,-7078855 -233336,-7078885 -233303,-7078910 -233280,-7078932 -233271,-7078940 -233259,-7078956 -233233,-7078992 -233226,-7079004 -233223,-7079017 -233218,-7079039 -233214,-7079077 -233211,-7079130 -233206,-7079162 -233207,-7079193 -233215,-7079222 -233227,-7079244 -233246,-7079269 -233258,-7079287 -233262,-7079298 -233263,-7079305 -233263,-7079313 -233263,-7079327 -233254,-7079340 -233240,-7079351 -233222,-7079358 -233214,-7079361 -233207,-7079364 -233179,-7079376 -233149,-7079381 -233122,-7079385 -233116,-7079386 -233074,-7079402 -233054,-7079411 -233038,-7079417 -233048,-7079469 -233063,-7079547 -233050,-7079573 -233023,-7079606 -233010,-7079620 -233009,-7079621 -233006,-7079622 -232994,-7079648 -232989,-7079663 -232984,-7079680 -232985,-7079699 -232985,-7079700 -232997,-7079752 -233001,-7079756 -233011,-7079756 -233016,-7079781 -233019,-7079820 -233020,-7079884 -232894,-7079884 -232766,-7079886 -232461,-7079884 -232291,-7079886 -232195,-7079886 -232153,-7079886 -232036,-7079886 -231860,-7079887 -231362,-7079887 -231331,-7079846 -231309,-7079833 -231273,-7079809 -231251,-7079809 -231233,-7079820 -231221,-7079827 -231191,-7079834 -231094,-7079864 -231055,-7079876 -231016,-7079886 -231006,-7079892 -231000,-7079946 -230996,-7079965 -230984,-7079989 -230969,-7080001 -230948,-7080008 -230945,-7080003 -230942,-7079997 -230917,-7080003 -230913,-7080004 -230760,-7080008 -230664,-7080010 -230558,-7080012 -230545,-7080062 -230542,-7080072 -230541,-7080095 -230535,-7080095 -230508,-7080094 -230500,-7080076 -230492,-7080070 -230486,-7080070 -230478,-7080070 -230456,-7080080 -230455,-7080082 -230454,-7080089 -230453,-7080091 -230448,-7080091 -230428,-7080092 -230410,-7080107 -230405,-7080111 -230391,-7080116 -230365,-7080123 -230330,-7080143 -230320,-7080145 -230272,-7080173 -230267,-7080173 -230257,-7080179 -230245,-7080178 -230224,-7080184 -230205,-7080197 -230179,-7080200 -230166,-7080205 -230159,-7080212 -230143,-7080214 -230105,-7080227 -230053,-7080249 -230000,-7080263 -229967,-7080276 -229947,-7080278 -229875,-7080298 -229844,-7080296 -229844,-7080295 -229819,-7080164 -229814,-7080159 -229799,-7080060 -229786,-7080005 -229775,-7080001 -229767,-7080002 -229735,-7079996 -229701,-7079999 -229678,-7080014 -229662,-7080024 -229663,-7080031 -229641,-7080043 -229636,-7080044 -229629,-7080046 -229624,-7080053 -229615,-7080066 -229586,-7080086 -229573,-7080098 -229554,-7080153 -229541,-7080175 -229533,-7080198 -229530,-7080200 -229529,-7080200 -229525,-7080201 -229385,-7080250 -229310,-7080272 -229274,-7080284 -229229,-7080299 -229189,-7080311 -229139,-7080324 -228987,-7080232 -228904,-7080182 -228895,-7080177 -228815,-7080182 -228673,-7080193 -228666,-7080193 -228681,-7080334 -228700,-7080484 -228699,-7080486 -228680,-7080527 -228654,-7080605 -228633,-7080650 -228622,-7080678 -228582,-7080758 -228566,-7080792 -228553,-7080811 -228551,-7080813 -228556,-7080821 -228567,-7080827 -228567,-7080854 -228567,-7080855 -228565,-7080929 -228563,-7080961 -228575,-7081013 -228569,-7081029 -228570,-7081047 -228596,-7081081 -228601,-7081088 -228602,-7081089 -228607,-7081095 -228629,-7081120 -228654,-7081145 -228694,-7081199 -228730,-7081239 -228754,-7081285 -228769,-7081307 -228820,-7081385 -228834,-7081413 -228854,-7081442 -228869,-7081461 -228871,-7081464 -228901,-7081509 -228915,-7081510 -228941,-7081496 -229001,-7081500 -229017,-7081504 -229013,-7081582 -229013,-7081631 -229014,-7081633 -229019,-7081643 -229017,-7081647 -229007,-7081668 -229001,-7081728 -228993,-7081748 -228988,-7081754 -228977,-7081768 -228963,-7081774 -228938,-7081777 -228918,-7081784 -228891,-7081810 -228854,-7081831 -228835,-7081847 -228803,-7081875 -228757,-7081900 -228752,-7081902 -228728,-7081881 -228700,-7081865 -228669,-7081843 -228643,-7081836 -228618,-7081836" stroke="#003087" stroke-width="42" /></ns0:svg>    <rect x="20" y="50"  width="250" height="25"  rx="0"  fill="#003087" fill-opacity="0.8" />    <text x="145" y="70" text-anchor="middle" font-family="Frutiger" font-weight="bold" font-size="30" fill="white">Tameside</text>    <rect x="35" y="195" width="220" height="160" rx="15" fill="#41B6E6"/>    <g font-family="Frutiger" font-size="15" fill="white">        <g> <text x="45" y="218">Self-harm</text> <text x="245" y="218" text-anchor="end">38</text> </g>        <g> <text x="45" y="243">SEN</text> <text x="245" y="243" text-anchor="end">28</text> </g>        <g> <text x="45" y="268">Difficulties</text> <text x="245" y="268" text-anchor="end">62</text> </g>        <g> <text x="45" y="293">Child Carer</text> <text x="245" y="293" text-anchor="end">8</text> </g>        <g> <text x="45" y="318">Drinkers</text> <text x="245" y="318" text-anchor="end">66</text> </g>        <g> <text x="45" y="343">Safeguarding £</text> <text x="245" y="343" text-anchor="end">19</text> </g>    </g></svg>