<?xml version="1.0" standalone="no"?>
<!DOCTYPE svg PUBLIC "-//W3C//DTD SVG 1.1//EN"
"http://www.w3.org/Graphics/SVG/1.1/DTD/svg11.dtd">
<svg height="1800" version="1.1" width="1800" xmlns="http://www.w3.org/2000/svg"><defs><style type="text/css">@font-face {font-family: 'Frutiger';font-style: normal;font-weight: normal;src: local('Frutiger'), url('../fonts/Frutiger.woff') format('woff');}@font-face {font-family: 'Frutiger Bold';font-style: normal;font-weight: normal;src: local('Frutiger Bold'), url('../fonts/Frutiger_bold.woff') format('woff');}        </style>    </defs>    <rect x="20" y="20"  width="250" height="350" rx="15" fill="#AE2573" />    <rect x="35" y="35"  width="220" height="145" rx="15" fill="#330072" /><ns0:svg xmlns:ns0="http://www.w3.org/2000/svg" height="115" version="1.1" viewBox="-226383 -6910947 33929 41625" width="220" x="35" y="50"><ns0:polygon fill="white" points=" -203138,-6910775 -202758,-6910595 -202616,-6910529 -202497,-6910478 -202417,-6910445 -201809,-6910206 -201690,-6910156 -201525,-6910046 -201072,-6909760 -200825,-6909606 -200813,-6909596 -200805,-6909592 -200792,-6909590 -200710,-6909572 -200700,-6909570 -200689,-6909570 -200639,-6909571 -200630,-6909571 -200619,-6909569 -200600,-6909562 -200576,-6909552 -200561,-6909545 -200553,-6909540 -200542,-6909530 -200513,-6909510 -200449,-6909457 -200432,-6909443 -200413,-6909430 -200387,-6909413 -200302,-6909352 -200161,-6909257 -200125,-6909212 -200104,-6909196 -200090,-6909221 -200062,-6909212 -200028,-6909202 -199988,-6909188 -199982,-6909163 -199972,-6909135 -199961,-6909095 -199951,-6909061 -199937,-6909025 -199922,-6908983 -199910,-6908950 -199895,-6908914 -199877,-6908890 -199843,-6908823 -199810,-6908757 -199776,-6908700 -199737,-6908634 -199853,-6908450 -199752,-6908380 -199672,-6908308 -199578,-6908204 -199568,-6908208 -199534,-6908169 -199424,-6908038 -199323,-6907923 -199315,-6907915 -199315,-6907897 -199231,-6907799 -199211,-6907724 -199196,-6907634 -199183,-6907569 -199170,-6907508 -199151,-6907429 -199078,-6907264 -199073,-6907246 -199058,-6907157 -199051,-6907135 -199048,-6907124 -199042,-6907116 -199046,-6907075 -199050,-6907057 -199054,-6907051 -199057,-6907048 -199065,-6907043 -199073,-6907031 -199076,-6907017 -199077,-6907008 -199076,-6907001 -199074,-6906995 -199077,-6906977 -199078,-6906973 -199080,-6906970 -199083,-6906967 -199089,-6906963 -199090,-6906950 -199083,-6906940 -199073,-6906931 -199064,-6906916 -199060,-6906894 -199066,-6906822 -199075,-6906808 -199076,-6906802 -199072,-6906778 -199072,-6906772 -199074,-6906767 -199080,-6906755 -199082,-6906749 -199082,-6906746 -199074,-6906734 -199074,-6906732 -199074,-6906727 -199085,-6906701 -199088,-6906694 -199090,-6906679 -199088,-6906652 -199083,-6906644 -199073,-6906634 -199067,-6906624 -199060,-6906604 -199053,-6906594 -199053,-6906591 -199055,-6906579 -199056,-6906566 -199066,-6906545 -199070,-6906528 -199070,-6906524 -199068,-6906522 -199022,-6906499 -199011,-6906490 -199005,-6906478 -199007,-6906456 -199006,-6906453 -199000,-6906439 -198995,-6906425 -198989,-6906400 -198978,-6906377 -198929,-6906312 -198926,-6906303 -198923,-6906286 -198919,-6906271 -198905,-6906246 -198900,-6906239 -198889,-6906238 -198883,-6906235 -198878,-6906231 -198860,-6906215 -198840,-6906197 -198776,-6906129 -198767,-6906121 -198752,-6906112 -198749,-6906108 -198736,-6906085 -198715,-6906058 -198687,-6906003 -198679,-6905997 -198676,-6905997 -198674,-6905997 -198654,-6906004 -198637,-6905997 -198610,-6905993 -198597,-6905987 -198577,-6905974 -198562,-6905958 -198558,-6905951 -198558,-6905947 -198564,-6905926 -198563,-6905920 -198559,-6905912 -198554,-6905904 -198550,-6905899 -198537,-6905890 -198530,-6905889 -198499,-6905889 -198441,-6905824 -198399,-6905801 -198365,-6905774 -198344,-6905757 -198331,-6905750 -198305,-6905738 -198299,-6905733 -198298,-6905721 -198303,-6905706 -198302,-6905704 -198294,-6905689 -198286,-6905683 -198282,-6905681 -198261,-6905678 -198255,-6905675 -198252,-6905665 -198252,-6905652 -198247,-6905642 -198236,-6905608 -198236,-6905590 -198221,-6905568 -198210,-6905548 -198210,-6905544 -198212,-6905535 -198209,-6905524 -198178,-6905475 -198164,-6905460 -198156,-6905453 -198141,-6905453 -198126,-6905458 -198118,-6905459 -198102,-6905456 -198099,-6905454 -198092,-6905445 -198080,-6905412 -198080,-6905392 -198078,-6905377 -198071,-6905349 -198064,-6905334 -198063,-6905320 -198066,-6905290 -198062,-6905281 -198068,-6905272 -198071,-6905267 -198073,-6905261 -198074,-6905252 -198062,-6905237 -198060,-6905233 -198059,-6905229 -198058,-6905221 -198054,-6905215 -198055,-6905209 -198045,-6905164 -198036,-6905153 -198033,-6905147 -198030,-6905140 -198027,-6905132 -198020,-6905105 -198022,-6905084 -198021,-6905081 -198019,-6905079 -198007,-6905071 -198005,-6905069 -198004,-6905068 -198003,-6905063 -198002,-6905057 -198002,-6905050 -198003,-6905047 -198053,-6905041 -198054,-6905037 -198055,-6905029 -198054,-6905024 -198040,-6904999 -198037,-6904995 -198031,-6904988 -198017,-6904975 -198013,-6904967 -198019,-6904948 -198018,-6904917 -197993,-6904910 -197925,-6904906 -197920,-6904904 -197914,-6904889 -197914,-6904880 -197911,-6904856 -197929,-6904846 -197932,-6904841 -197931,-6904816 -197929,-6904804 -197925,-6904797 -197902,-6904784 -197890,-6904775 -197879,-6904763 -197856,-6904735 -197824,-6904715 -197792,-6904710 -197781,-6904701 -197777,-6904698 -197775,-6904689 -197725,-6904689 -197712,-6904704 -197674,-6904701 -197647,-6904692 -197618,-6904692 -197603,-6904689 -197597,-6904689 -197557,-6904695 -197547,-6904696 -197537,-6904696 -197510,-6904693 -197499,-6904694 -197494,-6904696 -197485,-6904702 -197433,-6904729 -197426,-6904739 -197421,-6904742 -197417,-6904745 -197411,-6904747 -197397,-6904745 -197379,-6904739 -197357,-6904742 -197333,-6904735 -197318,-6904737 -197309,-6904736 -197294,-6904729 -197275,-6904714 -197266,-6904713 -197254,-6904711 -197250,-6904712 -197247,-6904713 -197242,-6904718 -197231,-6904737 -197218,-6904743 -197178,-6904788 -197161,-6904781 -197158,-6904781 -197153,-6904783 -197144,-6904791 -197139,-6904793 -197107,-6904796 -197103,-6904795 -197077,-6904782 -197072,-6904776 -197071,-6904773 -197077,-6904765 -197082,-6904760 -197083,-6904758 -197083,-6904755 -197079,-6904748 -197010,-6904766 -197000,-6904764 -196987,-6904751 -196967,-6904723 -196969,-6904718 -196967,-6904712 -196960,-6904709 -196936,-6904703 -196934,-6904697 -196933,-6904683 -196930,-6904672 -196932,-6904657 -196929,-6904645 -196928,-6904643 -196925,-6904640 -196921,-6904639 -196916,-6904640 -196911,-6904643 -196894,-6904647 -196889,-6904646 -196882,-6904644 -196874,-6904637 -196865,-6904633 -196861,-6904633 -196853,-6904633 -196849,-6904634 -196837,-6904640 -196831,-6904642 -196829,-6904642 -196827,-6904639 -196817,-6904600 -196810,-6904588 -196803,-6904540 -196797,-6904533 -196795,-6904529 -196791,-6904510 -196783,-6904499 -196782,-6904496 -196782,-6904472 -196783,-6904468 -196785,-6904467 -196787,-6904466 -196807,-6904464 -196812,-6904463 -196816,-6904459 -196818,-6904456 -196832,-6904416 -196835,-6904403 -196835,-6904399 -196828,-6904377 -196815,-6904350 -196805,-6904319 -196803,-6904317 -196794,-6904313 -196792,-6904292 -196787,-6904267 -196778,-6904264 -196776,-6904262 -196778,-6904235 -196773,-6904227 -196765,-6904222 -196761,-6904219 -196752,-6904208 -196751,-6904206 -196750,-6904194 -196750,-6904192 -196755,-6904186 -196759,-6904184 -196764,-6904183 -196761,-6904174 -196746,-6904153 -196737,-6904140 -196716,-6904100 -196706,-6904081 -196703,-6904077 -196696,-6904070 -196684,-6904061 -196673,-6904054 -196631,-6904034 -196605,-6904026 -196579,-6904021 -196539,-6904017 -196530,-6904020 -196519,-6904029 -196507,-6904036 -196469,-6904045 -196454,-6904050 -196442,-6904052 -196395,-6904047 -196375,-6904046 -196369,-6904044 -196352,-6904035 -196317,-6904031 -196315,-6904024 -196315,-6903999 -196308,-6903985 -196300,-6903951 -196314,-6903935 -196314,-6903916 -196316,-6903904 -196318,-6903898 -196332,-6903878 -196349,-6903846 -196352,-6903839 -196353,-6903834 -196358,-6903827 -196363,-6903824 -196382,-6903818 -196386,-6903816 -196396,-6903807 -196403,-6903797 -196413,-6903780 -196422,-6903764 -196427,-6903756 -196427,-6903753 -196425,-6903741 -196426,-6903738 -196447,-6903728 -196451,-6903726 -196463,-6903713 -196474,-6903706 -196485,-6903691 -196491,-6903686 -196549,-6903667 -196564,-6903658 -196587,-6903647 -196608,-6903634 -196645,-6903629 -196671,-6903622 -196678,-6903619 -196688,-6903604 -196692,-6903600 -196701,-6903594 -196713,-6903590 -196718,-6903588 -196728,-6903577 -196731,-6903568 -196737,-6903562 -196787,-6903510 -196801,-6903499 -196814,-6903495 -196817,-6903495 -196833,-6903501 -196848,-6903496 -196861,-6903489 -196870,-6903506 -196887,-6903512 -196915,-6903518 -196928,-6903517 -196940,-6903515 -196966,-6903505 -196999,-6903496 -197006,-6903486 -197018,-6903480 -197046,-6903472 -197061,-6903465 -197073,-6903464 -197113,-6903434 -197146,-6903397 -197163,-6903403 -197174,-6903395 -197179,-6903388 -197180,-6903366 -197181,-6903362 -197189,-6903352 -197192,-6903351 -197219,-6903342 -197234,-6903332 -197257,-6903304 -197303,-6903244 -197315,-6903237 -197340,-6903222 -197338,-6903198 -197353,-6903194 -197363,-6903189 -197368,-6903177 -197368,-6903145 -197388,-6903119 -197411,-6903104 -197459,-6903064 -197470,-6903053 -197467,-6903035 -197466,-6903011 -197472,-6902965 -197489,-6902931 -197492,-6902923 -197495,-6902914 -197497,-6902896 -197499,-6902887 -197506,-6902868 -197403,-6902813 -197325,-6902777 -197265,-6902757 -197247,-6902751 -197199,-6902741 -197149,-6902727 -197130,-6902723 -197080,-6902697 -197017,-6902649 -196995,-6902626 -196959,-6902593 -196916,-6902546 -196928,-6902535 -196909,-6902516 -196860,-6902477 -196833,-6902457 -196788,-6902415 -196724,-6902351 -196691,-6902317 -196687,-6902259 -196690,-6902196 -196690,-6902072 -196691,-6902049 -196690,-6902017 -196692,-6901994 -196697,-6901975 -196726,-6901926 -196743,-6901877 -196782,-6901802 -196762,-6901785 -196756,-6901779 -196739,-6901758 -196699,-6901719 -196650,-6901664 -196622,-6901633 -196597,-6901595 -196595,-6901589 -196593,-6901583 -196591,-6901555 -196583,-6901553 -196574,-6901515 -196568,-6901503 -196547,-6901476 -196544,-6901458 -196533,-6901453 -196525,-6901425 -196516,-6901412 -196509,-6901411 -196494,-6901414 -196462,-6901417 -196376,-6901414 -196331,-6901409 -196303,-6901401 -196287,-6901394 -196262,-6901374 -196242,-6901365 -196235,-6901357 -196213,-6901346 -196195,-6901332 -196190,-6901329 -196173,-6901324 -196167,-6901323 -196146,-6901323 -196139,-6901322 -196127,-6901317 -196111,-6901313 -196024,-6901267 -196013,-6901261 -195991,-6901245 -195963,-6901235 -195917,-6901227 -195852,-6901229 -195755,-6901215 -195678,-6901210 -195656,-6901216 -195603,-6901245 -195595,-6901249 -195569,-6901256 -195521,-6901266 -195502,-6901225 -195476,-6901175 -195450,-6901066 -195438,-6900985 -195437,-6900968 -195433,-6900923 -195434,-6900890 -195431,-6900867 -195428,-6900846 -195421,-6900817 -195418,-6900767 -195404,-6900667 -195387,-6900592 -195380,-6900540 -195376,-6900479 -195363,-6900374 -195355,-6900316 -195336,-6900163 -195321,-6900072 -195279,-6899968 -195266,-6899910 -195245,-6899768 -195221,-6899522 -195220,-6899496 -195234,-6899414 -195234,-6899405 -195232,-6899393 -195229,-6899384 -195224,-6899374 -195207,-6899330 -195187,-6899288 -195136,-6899199 -195071,-6899095 -195051,-6899070 -195043,-6899062 -195028,-6899051 -194977,-6899022 -194896,-6898977 -194804,-6898936 -194782,-6898922 -194759,-6898908 -194674,-6898852 -194473,-6898713 -194411,-6898673 -194426,-6898661 -194457,-6898683 -194503,-6898675 -194577,-6898645 -194622,-6898621 -194697,-6898590 -194680,-6898536 -194674,-6898504 -194660,-6898474 -194658,-6898448 -194654,-6898350 -194659,-6898251 -194679,-6898110 -194680,-6898028 -194679,-6898000 -194673,-6897957 -194659,-6897828 -194644,-6897767 -194626,-6897722 -194723,-6897688 -194732,-6897719 -194797,-6897705 -194849,-6897690 -194910,-6897678 -194893,-6897595 -194889,-6897547 -194883,-6897450 -194871,-6897354 -194858,-6897277 -194854,-6897256 -194827,-6897162 -194776,-6896967 -194728,-6896837 -194707,-6896789 -194666,-6896766 -194659,-6896764 -194643,-6896761 -194626,-6896757 -194623,-6896757 -194608,-6896755 -194592,-6896753 -194576,-6896752 -194560,-6896752 -194545,-6896753 -194534,-6896754 -194518,-6896756 -194503,-6896758 -194488,-6896761 -194473,-6896765 -194458,-6896770 -194437,-6896778 -194416,-6896788 -194395,-6896798 -194386,-6896802 -194366,-6896814 -194346,-6896826 -194315,-6896853 -194265,-6896899 -194228,-6896935 -194201,-6896957 -194088,-6897022 -193957,-6896768 -193783,-6896841 -193738,-6896862 -193724,-6896866 -193672,-6896869 -193631,-6896879 -193605,-6896808 -193586,-6896728 -193547,-6896362 -193558,-6896356 -193574,-6896355 -193670,-6896381 -193668,-6896368 -193586,-6896302 -193570,-6896307 -193564,-6896292 -193386,-6896356 -193381,-6896351 -193352,-6896361 -193314,-6896348 -193291,-6896333 -193256,-6896322 -193256,-6896304 -193076,-6896231 -193035,-6896216 -192943,-6896182 -192757,-6896111 -192750,-6896104 -192744,-6896097 -192725,-6896018 -192707,-6895922 -192703,-6895897 -192690,-6895826 -192674,-6895775 -192629,-6895790 -192613,-6895747 -192599,-6895724 -192584,-6895698 -192563,-6895668 -192544,-6895643 -192488,-6895607 -192480,-6895541 -192457,-6895534 -192454,-6895517 -192469,-6895514 -192482,-6895510 -192502,-6895506 -192514,-6895502 -192524,-6895497 -192529,-6895493 -192536,-6895487 -192542,-6895481 -192547,-6895475 -192555,-6895460 -192561,-6895449 -192564,-6895441 -192569,-6895425 -192570,-6895417 -192581,-6895374 -192617,-6895305 -192620,-6895298 -192624,-6895291 -192629,-6895285 -192638,-6895277 -192639,-6895277 -192683,-6895259 -192727,-6895243 -192757,-6895236 -192767,-6895234 -192787,-6895234 -192794,-6895235 -192812,-6895242 -192822,-6895248 -192870,-6895272 -192915,-6895298 -192936,-6895308 -192957,-6895318 -193004,-6895337 -193053,-6895341 -193080,-6895337 -193119,-6895327 -193141,-6895318 -193156,-6895311 -193174,-6895299 -193194,-6895281 -193197,-6895278 -193256,-6895189 -193265,-6895177 -193271,-6895170 -193286,-6895157 -193307,-6895145 -193327,-6895139 -193381,-6895129 -193437,-6895113 -193487,-6895087 -193520,-6895052 -193539,-6895022 -193557,-6894996 -193598,-6894977 -193639,-6894956 -193685,-6894937 -193730,-6894917 -193770,-6894901 -193815,-6894870 -193855,-6894844 -193878,-6894833 -193912,-6894820 -193935,-6894815 -193951,-6894813 -194002,-6894811 -194021,-6894812 -194079,-6894817 -194113,-6894818 -194126,-6894817 -194135,-6894814 -194145,-6894809 -194194,-6894784 -194279,-6894737 -194290,-6894731 -194313,-6894721 -194333,-6894715 -194344,-6894712 -194355,-6894710 -194369,-6894708 -194380,-6894707 -194398,-6894708 -194409,-6894708 -194446,-6894714 -194452,-6894714 -194464,-6894718 -194515,-6894746 -194561,-6894766 -194589,-6894780 -194630,-6894819 -194640,-6894826 -194652,-6894833 -194662,-6894837 -194671,-6894840 -194681,-6894841 -194691,-6894840 -194702,-6894838 -194801,-6894829 -194815,-6894824 -194840,-6894812 -194870,-6894806 -194908,-6894804 -194958,-6894809 -195013,-6894823 -195059,-6894847 -195131,-6894881 -195175,-6894905 -195208,-6894915 -195233,-6894921 -195266,-6894615 -195289,-6894420 -195592,-6894388 -195585,-6894359 -195590,-6894336 -195596,-6894322 -195596,-6894302 -195591,-6894282 -195550,-6894213 -195542,-6894197 -195520,-6894172 -195474,-6894110 -195460,-6894090 -195451,-6894073 -195372,-6893965 -195357,-6893919 -195278,-6893949 -195264,-6893927 -195171,-6893623 -195247,-6893571 -195223,-6893494 -195201,-6893413 -195242,-6893431 -195337,-6893475 -195424,-6893514 -195518,-6893547 -195605,-6893576 -195825,-6893632 -195916,-6893649 -195977,-6893661 -196153,-6893686 -196297,-6893692 -196412,-6893692 -196528,-6893688 -196603,-6893683 -196702,-6893670 -196866,-6893646 -196962,-6893627 -197061,-6893602 -197204,-6893553 -197391,-6893483 -197436,-6893464 -197486,-6893441 -197628,-6893366 -197828,-6893257 -197967,-6893178 -198203,-6893050 -198341,-6892984 -198428,-6892943 -198570,-6892889 -198662,-6892856 -198825,-6892810 -198945,-6892781 -198945,-6892781 -198962,-6892777 -199019,-6892765 -199110,-6892752 -199179,-6892741 -199243,-6892734 -199374,-6892722 -199445,-6892718 -199452,-6892712 -199455,-6892708 -199472,-6892698 -199513,-6892684 -199593,-6892670 -199668,-6892666 -199698,-6892658 -199728,-6892640 -199748,-6892617 -199763,-6892589 -199799,-6892560 -199787,-6892556 -199759,-6892546 -199742,-6892536 -199732,-6892524 -199718,-6892501 -199716,-6892492 -199709,-6892461 -199710,-6892448 -199720,-6892384 -199739,-6892330 -199741,-6892245 -199893,-6892178 -200100,-6892135 -200193,-6892098 -200229,-6892070 -200277,-6892006 -200303,-6891931 -200309,-6891888 -200313,-6891826 -200313,-6891798 -200308,-6891762 -200296,-6891718 -200275,-6891668 -200254,-6891639 -200234,-6891614 -200226,-6891607 -200218,-6891600 -200179,-6891568 -200164,-6891561 -200133,-6891544 -200090,-6891532 -200066,-6891528 -200034,-6891526 -199999,-6891531 -199975,-6891537 -199893,-6891563 -199891,-6891561 -199832,-6891528 -199778,-6891555 -199765,-6891559 -199761,-6891560 -199695,-6891577 -199691,-6891566 -199628,-6891588 -199550,-6891592 -199494,-6891590 -199472,-6891589 -199428,-6891584 -199259,-6891540 -199107,-6891501 -198976,-6891469 -198765,-6891412 -198675,-6891387 -198637,-6891377 -198573,-6891360 -198484,-6891343 -198431,-6891338 -198428,-6891337 -198374,-6891310 -198368,-6891308 -198389,-6891258 -198293,-6891253 -198231,-6891251 -198081,-6891255 -198044,-6891264 -197985,-6891269 -197895,-6891279 -197759,-6891292 -197543,-6891315 -197461,-6891322 -197308,-6891340 -197291,-6891359 -197278,-6891356 -197260,-6891382 -197241,-6891370 -197237,-6891355 -197235,-6891348 -197234,-6891345 -197206,-6891338 -197191,-6891378 -197075,-6891348 -197076,-6891342 -197089,-6891300 -197086,-6891297 -197065,-6891278 -196963,-6891257 -196833,-6891239 -196834,-6891229 -196822,-6891230 -196821,-6891242 -196723,-6891228 -196615,-6891211 -196484,-6891190 -196485,-6891178 -196468,-6891175 -196465,-6891184 -196460,-6891185 -196458,-6891186 -196445,-6891194 -196386,-6891187 -196389,-6891172 -196387,-6891171 -196364,-6891167 -196387,-6891026 -196387,-6891020 -196201,-6890991 -196197,-6891021 -196190,-6891020 -196093,-6891004 -196088,-6891061 -196057,-6891056 -195937,-6891026 -195935,-6891033 -195798,-6890999 -195795,-6891009 -195781,-6891061 -195700,-6891042 -195616,-6891022 -195565,-6891000 -195458,-6890949 -195452,-6890946 -195496,-6890909 -195502,-6890894 -195510,-6890872 -195518,-6890836 -195526,-6890763 -195532,-6890715 -195533,-6890703 -195530,-6890675 -195530,-6890657 -195535,-6890642 -195560,-6890586 -195561,-6890582 -195561,-6890524 -195564,-6890504 -195583,-6890448 -195621,-6890393 -195671,-6890366 -195684,-6890354 -195754,-6890244 -195806,-6890166 -195814,-6890153 -195863,-6890117 -195886,-6890105 -195892,-6890098 -195911,-6890076 -195932,-6890035 -195945,-6889982 -195951,-6889959 -195957,-6889933 -195958,-6889905 -195959,-6889891 -195969,-6889883 -196015,-6889877 -196017,-6889776 -196022,-6889690 -196028,-6889616 -196032,-6889551 -196032,-6889520 -196034,-6889502 -196043,-6889475 -196054,-6889440 -196059,-6889423 -196074,-6889362 -196084,-6889330 -196099,-6889282 -196122,-6889242 -196184,-6889233 -196186,-6889165 -196182,-6888975 -196181,-6888953 -196171,-6888937 -196067,-6888909 -196046,-6888897 -196128,-6888863 -196153,-6888848 -196189,-6888803 -196213,-6888778 -196243,-6888755 -196276,-6888747 -196291,-6888743 -196294,-6888738 -196308,-6888717 -196329,-6888705 -196329,-6888685 -196311,-6888677 -196280,-6888620 -196276,-6888605 -196266,-6888596 -196243,-6888598 -196205,-6888615 -196183,-6888599 -196170,-6888584 -196152,-6888586 -196144,-6888593 -196143,-6888611 -196142,-6888618 -196086,-6888633 -196068,-6888619 -196044,-6888574 -196018,-6888559 -196024,-6888529 -196038,-6888517 -196041,-6888478 -196058,-6888429 -196090,-6888344 -196096,-6888339 -196044,-6888317 -196004,-6888188 -196005,-6888178 -196005,-6888166 -196001,-6888166 -195973,-6888168 -195968,-6888110 -195915,-6888071 -195863,-6888097 -195828,-6888013 -195833,-6888008 -195816,-6887980 -195900,-6887921 -195879,-6887885 -195864,-6887841 -195856,-6887820 -195859,-6887809 -195861,-6887717 -195850,-6887711 -195822,-6887712 -195821,-6887649 -195812,-6887639 -195811,-6887546 -195822,-6887546 -195820,-6887502 -195797,-6887501 -195796,-6887496 -195796,-6887458 -195841,-6887458 -195840,-6887448 -195839,-6887441 -195840,-6887441 -195906,-6887454 -195903,-6887376 -195887,-6887377 -195887,-6887370 -195884,-6887289 -195877,-6887290 -195821,-6887297 -195812,-6887212 -195792,-6887111 -195792,-6887031 -195778,-6886958 -195786,-6886958 -195788,-6886958 -195787,-6886950 -195785,-6886929 -195766,-6886759 -195828,-6886754 -195820,-6886627 -195820,-6886583 -195829,-6886546 -195828,-6886545 -195804,-6886486 -195787,-6886431 -195772,-6886393 -195651,-6886229 -195613,-6886173 -195550,-6886073 -195496,-6885978 -195455,-6885905 -195450,-6885897 -195456,-6885897 -195472,-6885897 -195498,-6885888 -195532,-6885860 -195554,-6885838 -195589,-6885770 -195642,-6885666 -195675,-6885640 -195691,-6885620 -195723,-6885542 -195756,-6885488 -195791,-6885428 -195807,-6885408 -195846,-6885366 -195850,-6885362 -195862,-6885345 -195866,-6885335 -195867,-6885320 -195865,-6885309 -195837,-6885270 -195812,-6885249 -195799,-6885226 -195783,-6885182 -195778,-6885143 -195780,-6885049 -195866,-6885022 -195916,-6885007 -196113,-6885042 -196237,-6884957 -196339,-6884848 -196338,-6884838 -196322,-6884612 -196306,-6884511 -196298,-6884433 -196228,-6884330 -196215,-6884290 -196202,-6884292 -195918,-6883873 -195363,-6883051 -195543,-6882773 -195654,-6882599 -195773,-6882413 -195877,-6882252 -195975,-6882158 -196022,-6882089 -196055,-6882109 -196058,-6882111 -196073,-6882079 -196077,-6882072 -196119,-6882095 -196153,-6882107 -196183,-6882117 -196230,-6882122 -196302,-6882117 -196350,-6882112 -196392,-6882104 -196443,-6882098 -196499,-6882101 -196598,-6882097 -196621,-6882096 -196659,-6882102 -196665,-6882102 -196663,-6882038 -196707,-6882045 -196796,-6882066 -196925,-6882105 -196942,-6882103 -196996,-6882090 -197052,-6882075 -197126,-6882058 -197223,-6882045 -197230,-6882061 -197233,-6882069 -197267,-6882059 -197263,-6882047 -197311,-6882034 -197315,-6882054 -197315,-6882055 -197334,-6882052 -197345,-6882052 -197346,-6882052 -197365,-6882064 -197375,-6882088 -197382,-6882088 -197406,-6882087 -197421,-6882067 -197434,-6882063 -197446,-6882051 -197469,-6882052 -197494,-6882041 -197523,-6882027 -197566,-6882026 -197566,-6882027 -197565,-6882055 -197569,-6882055 -197697,-6882055 -197704,-6882055 -197708,-6882006 -197785,-6882009 -197813,-6882010 -197832,-6882013 -197861,-6882017 -197867,-6882019 -197887,-6881994 -197907,-6881985 -197907,-6881985 -197919,-6881979 -197920,-6881938 -197970,-6881933 -198049,-6881931 -198053,-6881932 -198051,-6881982 -198123,-6881988 -198178,-6881995 -198238,-6882005 -198237,-6882014 -198237,-6882018 -198295,-6882024 -198310,-6882026 -198303,-6882067 -198336,-6882071 -198332,-6882086 -198332,-6882087 -198331,-6882095 -198399,-6882116 -198406,-6882099 -198422,-6882104 -198433,-6882108 -198449,-6882060 -198491,-6882085 -198521,-6882107 -198579,-6882139 -198572,-6882170 -198638,-6882208 -198845,-6882325 -198845,-6882327 -199094,-6882429 -199094,-6882427 -199095,-6882425 -199148,-6882469 -199193,-6882415 -199197,-6882410 -199281,-6882445 -199293,-6882446 -199297,-6882440 -199315,-6882401 -199317,-6882396 -199356,-6882416 -199407,-6882445 -199397,-6882457 -199362,-6882498 -199517,-6882559 -199520,-6882560 -199581,-6882603 -199567,-6882616 -199627,-6882651 -199647,-6882658 -199705,-6882689 -199699,-6882693 -199684,-6882703 -199710,-6882734 -199741,-6882780 -199793,-6882829 -199799,-6882835 -199804,-6882828 -199810,-6882822 -199851,-6882863 -199894,-6882826 -200065,-6883072 -200107,-6883138 -200138,-6883179 -200235,-6883268 -200316,-6883338 -200409,-6883418 -200410,-6883419 -200452,-6883372 -200457,-6883377 -200576,-6883243 -200648,-6883128 -200657,-6883132 -200668,-6883114 -200700,-6883068 -200700,-6883044 -200726,-6883008 -200880,-6882775 -200921,-6882712 -200936,-6882737 -200968,-6882757 -200974,-6882761 -200993,-6882721 -200994,-6882718 -201039,-6882651 -201037,-6882647 -201028,-6882628 -200987,-6882595 -200960,-6882569 -200951,-6882549 -200945,-6882512 -200949,-6882460 -200968,-6882439 -200997,-6882339 -201034,-6882200 -201047,-6882169 -201061,-6882180 -201071,-6882189 -201067,-6882148 -201067,-6882106 -201068,-6882062 -201071,-6882002 -201072,-6881950 -201052,-6881949 -201050,-6881910 -201050,-6881860 -201067,-6881857 -201101,-6881844 -201111,-6881844 -201118,-6881845 -201148,-6881747 -201187,-6881617 -201261,-6881374 -201295,-6881273 -201296,-6881270 -201311,-6881227 -201339,-6881165 -201371,-6881100 -201383,-6881081 -201390,-6881074 -201400,-6881066 -201406,-6881062 -201411,-6881059 -201429,-6881048 -201445,-6881044 -201467,-6881044 -201474,-6881042 -201485,-6881035 -201489,-6881032 -201446,-6880969 -201438,-6880958 -201440,-6880949 -201455,-6880928 -201467,-6880910 -201480,-6880893 -201507,-6880858 -201546,-6880821 -201652,-6880697 -201699,-6880650 -201721,-6880637 -201741,-6880627 -201666,-6880511 -201663,-6880505 -201757,-6880444 -201692,-6880334 -201755,-6880248 -201775,-6880229 -201787,-6880210 -201799,-6880186 -201724,-6880189 -201719,-6880190 -201718,-6880172 -201700,-6880166 -201710,-6880158 -201712,-6880155 -201728,-6880115 -201751,-6880089 -201781,-6880029 -201794,-6879991 -201808,-6879978 -201809,-6879976 -201808,-6879937 -201817,-6879917 -201830,-6879920 -201865,-6879817 -201866,-6879803 -201877,-6879800 -201879,-6879787 -201912,-6879736 -201919,-6879731 -201948,-6879707 -201971,-6879696 -201981,-6879668 -201987,-6879665 -201995,-6879664 -202025,-6879675 -202047,-6879675 -202060,-6879683 -202168,-6879679 -202166,-6879639 -202173,-6879570 -202210,-6879431 -202237,-6879315 -202243,-6879275 -202245,-6879261 -202248,-6879189 -202246,-6879013 -202244,-6878948 -202247,-6878918 -202254,-6878853 -202257,-6878833 -202264,-6878779 -202269,-6878760 -202280,-6878723 -202302,-6878683 -202342,-6878623 -202401,-6878546 -202457,-6878469 -202488,-6878438 -202516,-6878415 -202645,-6878337 -202701,-6878307 -202761,-6878285 -202983,-6878213 -203038,-6878194 -203127,-6878157 -203183,-6878127 -203187,-6878124 -203215,-6878105 -203234,-6878082 -203275,-6878024 -203335,-6877933 -203359,-6877893 -203384,-6877847 -203397,-6877799 -203413,-6877737 -203443,-6877620 -203479,-6877477 -203491,-6877442 -203520,-6877380 -203542,-6877340 -203642,-6877189 -203742,-6877040 -203746,-6877015 -203758,-6876989 -203795,-6876936 -203806,-6876914 -203842,-6876848 -203845,-6876843 -203851,-6876822 -203859,-6876820 -203923,-6876662 -203944,-6876602 -203980,-6876497 -203989,-6876495 -203991,-6876495 -203992,-6876487 -203992,-6876473 -204000,-6876461 -203997,-6876458 -204019,-6876395 -204031,-6876382 -204036,-6876337 -204038,-6876321 -204040,-6876302 -204042,-6876287 -204076,-6876264 -204138,-6876225 -204130,-6876211 -204205,-6876163 -204129,-6876088 -204167,-6876041 -204227,-6875965 -204233,-6875964 -204231,-6875957 -204246,-6875947 -204248,-6875949 -204275,-6875921 -204270,-6875911 -204280,-6875910 -204302,-6875880 -204373,-6875810 -204400,-6875782 -204421,-6875765 -204456,-6875726 -204471,-6875717 -204524,-6875662 -204563,-6875603 -204621,-6875513 -204647,-6875482 -204657,-6875472 -204723,-6875394 -204787,-6875334 -204812,-6875319 -204875,-6875267 -204880,-6875263 -204956,-6875202 -205017,-6875146 -205091,-6875078 -205107,-6875009 -205129,-6875017 -205184,-6874909 -205200,-6874852 -205189,-6874842 -205217,-6874737 -205229,-6874696 -205291,-6874668 -205328,-6874647 -205339,-6874650 -205384,-6874647 -205411,-6874640 -205519,-6874627 -205601,-6874614 -205629,-6874609 -205698,-6874594 -205700,-6874604 -205702,-6874609 -205759,-6874606 -205798,-6874604 -205799,-6874608 -205850,-6874752 -205856,-6874750 -205878,-6874744 -205909,-6874710 -205917,-6874706 -205952,-6874677 -205969,-6874654 -205979,-6874658 -206024,-6874684 -206031,-6874683 -206034,-6874682 -206045,-6874657 -206047,-6874647 -206049,-6874644 -206053,-6874640 -206064,-6874635 -206076,-6874632 -206101,-6874625 -206126,-6874599 -206168,-6874550 -206262,-6874448 -206303,-6874402 -206321,-6874383 -206321,-6874382 -206322,-6874381 -206346,-6874357 -206379,-6874337 -206416,-6874330 -206551,-6874326 -206810,-6874312 -206870,-6874315 -206893,-6874319 -206953,-6874345 -206983,-6874364 -207006,-6874372 -207087,-6874393 -207127,-6874391 -207158,-6874419 -207186,-6874431 -207275,-6874452 -207329,-6874466 -207361,-6874479 -207412,-6874515 -207433,-6874530 -207514,-6874616 -207553,-6874670 -207560,-6874692 -207566,-6874706 -207572,-6874731 -207584,-6874782 -207659,-6874804 -207725,-6874819 -207793,-6874791 -207771,-6874740 -207784,-6874737 -207770,-6874705 -207726,-6874657 -207725,-6874656 -207734,-6874649 -207683,-6874594 -207681,-6874592 -207709,-6874560 -207717,-6874551 -207726,-6874542 -207741,-6874559 -207750,-6874568 -207785,-6874499 -207808,-6874452 -207846,-6874379 -207864,-6874356 -207883,-6874361 -207916,-6874329 -207962,-6874285 -207989,-6874251 -208005,-6874237 -208006,-6874235 -208032,-6874188 -208058,-6874209 -208075,-6874202 -208077,-6874201 -208068,-6874151 -208064,-6874019 -208057,-6873910 -208042,-6873665 -208027,-6873640 -208118,-6873633 -208310,-6873631 -208359,-6873631 -208420,-6873632 -208425,-6873604 -208423,-6873403 -208425,-6873278 -208420,-6873276 -208422,-6873176 -208708,-6873198 -208712,-6873193 -208860,-6873208 -208996,-6873220 -209042,-6873222 -209069,-6873030 -209093,-6872861 -209108,-6872785 -209097,-6872757 -209119,-6872749 -209199,-6872761 -209232,-6872776 -209454,-6872753 -209580,-6872742 -209636,-6872855 -209727,-6873049 -209798,-6873200 -209907,-6873424 -209970,-6873571 -209941,-6873631 -210025,-6873634 -210071,-6873631 -210072,-6873631 -210110,-6873625 -210227,-6873604 -210371,-6873581 -210509,-6873574 -210509,-6873574 -210555,-6873576 -210637,-6873586 -210658,-6873585 -210698,-6873573 -210733,-6873561 -210770,-6873547 -210813,-6873524 -210848,-6873501 -210864,-6873490 -210903,-6873459 -210941,-6873434 -210958,-6873424 -210976,-6873415 -211050,-6873389 -211076,-6873383 -211100,-6873380 -211132,-6873384 -211215,-6873412 -211319,-6873443 -211394,-6873464 -211408,-6873467 -211422,-6873470 -211450,-6873473 -211583,-6873476 -211654,-6873470 -211675,-6873463 -211702,-6873452 -211810,-6873387 -211932,-6873355 -211975,-6873348 -211988,-6873348 -211999,-6873348 -212017,-6873350 -212026,-6873352 -212048,-6873360 -212078,-6873380 -212104,-6873399 -212150,-6873443 -212185,-6873482 -212197,-6873495 -212244,-6873523 -212270,-6873532 -212313,-6873541 -212398,-6873561 -212470,-6873562 -212556,-6873576 -212568,-6873579 -212583,-6873587 -212590,-6873594 -212597,-6873600 -212600,-6873606 -212605,-6873615 -212611,-6873634 -212633,-6873797 -212678,-6873911 -212710,-6873997 -212898,-6874083 -213029,-6874138 -213031,-6874121 -213041,-6874121 -213044,-6874109 -213055,-6874051 -213060,-6873991 -213137,-6874008 -213151,-6873867 -213164,-6873713 -213190,-6873463 -213210,-6873353 -213238,-6873283 -213299,-6873147 -213340,-6873057 -213364,-6873021 -213460,-6872896 -213543,-6872800 -213556,-6872677 -213567,-6872517 -213575,-6872446 -213692,-6872380 -213867,-6872280 -214004,-6872202 -214032,-6872160 -214055,-6872117 -214082,-6872087 -214122,-6872119 -214133,-6872126 -214169,-6872149 -214221,-6872173 -214276,-6872088 -214333,-6871996 -214388,-6871915 -214448,-6871820 -214504,-6871735 -214617,-6871567 -214654,-6871524 -214632,-6871479 -214657,-6871452 -214713,-6871396 -214755,-6871344 -214826,-6871276 -214865,-6871247 -214942,-6871182 -214962,-6871156 -214967,-6871151 -214986,-6871139 -215012,-6871115 -215061,-6871059 -215077,-6871044 -215121,-6871019 -215163,-6871013 -215164,-6871011 -215209,-6870920 -215237,-6870850 -215258,-6870806 -215279,-6870749 -215294,-6870751 -215314,-6870699 -215362,-6870567 -215359,-6870564 -215342,-6870534 -215309,-6870505 -215326,-6870447 -215382,-6870473 -215449,-6870506 -215553,-6870569 -215576,-6870588 -215626,-6870633 -215686,-6870696 -215710,-6870718 -215716,-6870723 -215737,-6870741 -215795,-6870779 -215897,-6870859 -215927,-6870867 -215923,-6870879 -215981,-6870904 -216028,-6870920 -216115,-6870935 -216126,-6870937 -216198,-6870949 -216267,-6870965 -216386,-6871014 -216420,-6871026 -216484,-6871054 -216496,-6871047 -216518,-6871056 -216669,-6871128 -216846,-6871218 -216932,-6871266 -216970,-6871291 -217042,-6871334 -217129,-6871390 -217218,-6871453 -217303,-6871519 -217356,-6871557 -217374,-6871565 -217395,-6871571 -217402,-6871571 -217415,-6871571 -217432,-6871568 -217440,-6871566 -217456,-6871561 -217464,-6871567 -217475,-6871566 -217548,-6871413 -217569,-6871376 -217635,-6871260 -217650,-6871235 -217684,-6871184 -217808,-6870980 -217820,-6870986 -217835,-6870960 -217855,-6870927 -217875,-6870894 -217896,-6870863 -217918,-6870831 -218029,-6870682 -218065,-6870632 -218099,-6870632 -218120,-6870631 -218127,-6870692 -218132,-6870757 -218135,-6870763 -218137,-6870767 -218147,-6870775 -218186,-6870783 -218234,-6870786 -218237,-6870786 -218323,-6870877 -218336,-6870896 -218339,-6870911 -218340,-6870916 -218349,-6870933 -218412,-6871016 -218437,-6871043 -218457,-6871062 -218527,-6871119 -218556,-6871151 -218575,-6871172 -218654,-6871267 -218700,-6871314 -218734,-6871351 -218758,-6871322 -218783,-6871293 -218788,-6871250 -218814,-6871180 -218817,-6871173 -218827,-6871154 -218830,-6871146 -218833,-6871138 -218836,-6871119 -218847,-6871018 -218862,-6870937 -218865,-6870925 -218871,-6870907 -218894,-6870854 -218906,-6870857 -218928,-6870857 -218956,-6870859 -219014,-6870858 -219065,-6870861 -219081,-6870861 -219095,-6870860 -219131,-6870854 -219168,-6870853 -219183,-6870808 -219237,-6870820 -219267,-6870895 -219328,-6870880 -219360,-6870889 -219395,-6870853 -219440,-6870847 -219479,-6870808 -219483,-6870760 -219517,-6870714 -219544,-6870707 -219539,-6870677 -219543,-6870667 -219559,-6870634 -219572,-6870610 -219669,-6870582 -219683,-6870537 -219738,-6870521 -219815,-6870502 -219827,-6870491 -219849,-6870475 -219920,-6870425 -220028,-6870483 -220045,-6870492 -220104,-6870492 -220124,-6870502 -220160,-6870526 -220167,-6870533 -220237,-6870503 -220255,-6870498 -220279,-6870558 -220293,-6870563 -220370,-6870535 -220400,-6870528 -220457,-6870517 -220485,-6870512 -220560,-6870502 -220668,-6870492 -220744,-6870487 -220785,-6870476 -220816,-6870465 -220833,-6870455 -220851,-6870441 -220882,-6870407 -220893,-6870391 -220930,-6870321 -220948,-6870297 -221005,-6870242 -221024,-6870220 -221074,-6870165 -221175,-6870083 -221232,-6870035 -221261,-6870009 -221324,-6869949 -221319,-6869934 -221308,-6869870 -221307,-6869855 -221307,-6869831 -221308,-6869804 -221311,-6869784 -221319,-6869757 -221343,-6869698 -221353,-6869678 -221369,-6869656 -221400,-6869620 -221411,-6869609 -221434,-6869590 -221445,-6869581 -221475,-6869563 -221485,-6869557 -221521,-6869545 -221540,-6869540 -221601,-6869526 -221696,-6869510 -221747,-6869503 -221826,-6869491 -221846,-6869484 -221879,-6869463 -221897,-6869449 -221935,-6869416 -221973,-6869381 -221993,-6869364 -222006,-6869355 -222017,-6869348 -222027,-6869343 -222038,-6869339 -222049,-6869336 -222073,-6869331 -222094,-6869329 -222123,-6869339 -222168,-6869344 -222211,-6869346 -222249,-6869344 -222279,-6869337 -222322,-6869325 -222340,-6869322 -222401,-6869324 -222422,-6869325 -222433,-6869327 -222445,-6869329 -222470,-6869335 -222498,-6869346 -222525,-6869360 -222563,-6869384 -222640,-6869425 -222652,-6869431 -222655,-6869457 -222662,-6869485 -222681,-6869536 -222755,-6869659 -222779,-6869703 -222785,-6869720 -222781,-6869778 -222796,-6869774 -222835,-6869766 -222862,-6869780 -222882,-6869771 -222882,-6869773 -222886,-6869780 -222888,-6869788 -222888,-6869788 -222891,-6869799 -222893,-6869810 -222894,-6869821 -222894,-6869832 -222894,-6869838 -222894,-6869846 -222894,-6869855 -222893,-6869863 -222891,-6869871 -222890,-6869876 -222888,-6869884 -222885,-6869892 -222884,-6869894 -222898,-6869894 -222927,-6869894 -222953,-6869891 -222979,-6869887 -222980,-6869875 -223102,-6869849 -223195,-6869885 -223254,-6869989 -223322,-6870162 -223385,-6870222 -223408,-6870235 -223450,-6870249 -223493,-6870276 -223503,-6870285 -223512,-6870293 -223537,-6870341 -223580,-6870397 -223782,-6870310 -223902,-6870255 -223912,-6870298 -223924,-6870314 -223924,-6870329 -223948,-6870362 -223952,-6870380 -223954,-6870399 -223962,-6870415 -223968,-6870439 -223983,-6870480 -223993,-6870514 -224015,-6870568 -224033,-6870596 -224052,-6870616 -224054,-6870628 -224064,-6870661 -224080,-6870714 -224086,-6870757 -224080,-6870787 -224091,-6870799 -224097,-6870809 -224098,-6870851 -224103,-6870907 -224088,-6870955 -224092,-6870979 -224090,-6871017 -224098,-6871055 -224099,-6871068 -224110,-6871138 -224122,-6871170 -224129,-6871223 -224136,-6871269 -224126,-6871330 -224135,-6871369 -224137,-6871381 -224155,-6871429 -224161,-6871444 -224192,-6871497 -224201,-6871557 -224203,-6871617 -224210,-6871703 -224217,-6871722 -224219,-6871724 -224263,-6871721 -224287,-6871756 -224300,-6871795 -224312,-6871802 -224317,-6871803 -224334,-6871801 -224365,-6871783 -224376,-6871778 -224387,-6871774 -224424,-6871762 -224451,-6871759 -224477,-6871752 -224520,-6871729 -224566,-6871778 -224627,-6871832 -224650,-6871854 -224705,-6871986 -224738,-6872049 -224772,-6872082 -224784,-6872101 -224801,-6872165 -224819,-6872274 -224837,-6872310 -224878,-6872470 -224910,-6872579 -224935,-6872653 -224941,-6872658 -224953,-6872668 -224995,-6872730 -225019,-6872777 -225016,-6872811 -225048,-6872810 -225091,-6872809 -225107,-6872824 -225171,-6872839 -225283,-6872864 -225407,-6872890 -225408,-6872890 -225412,-6872893 -225417,-6872894 -225422,-6872896 -225428,-6872897 -225433,-6872897 -225438,-6872898 -225439,-6872898 -225442,-6872898 -225445,-6872897 -225449,-6872897 -225452,-6872896 -225453,-6872896 -225455,-6872894 -225458,-6872893 -225460,-6872891 -225463,-6872889 -225463,-6872888 -225465,-6872886 -225466,-6872883 -225468,-6872880 -225469,-6872877 -225470,-6872876 -225477,-6872869 -225480,-6872866 -225483,-6872863 -225487,-6872861 -225490,-6872858 -225493,-6872856 -225494,-6872856 -225498,-6872854 -225501,-6872853 -225505,-6872852 -225509,-6872852 -225512,-6872852 -225516,-6872852 -225518,-6872852 -225520,-6872853 -225523,-6872853 -225525,-6872854 -225527,-6872855 -225529,-6872856 -225531,-6872858 -225533,-6872860 -225533,-6872860 -225534,-6872862 -225535,-6872865 -225536,-6872867 -225536,-6872869 -225536,-6872883 -225557,-6872874 -225594,-6872861 -225636,-6872853 -225693,-6872849 -225697,-6872849 -225714,-6872848 -225730,-6872847 -225747,-6872848 -225753,-6872848 -225777,-6872851 -225801,-6872855 -225874,-6872871 -225887,-6872874 -225914,-6872880 -225942,-6872886 -225969,-6872894 -225982,-6872898 -226006,-6872906 -226030,-6872915 -226054,-6872925 -226057,-6872926 -226071,-6872932 -226084,-6872938 -226098,-6872945 -226111,-6872952 -226124,-6872959 -226137,-6872967 -226149,-6872976 -226157,-6872983 -226169,-6872992 -226180,-6873003 -226192,-6873019 -226209,-6873040 -226224,-6873058 -226230,-6873066 -226255,-6873092 -226284,-6873124 -226308,-6873151 -226335,-6873174 -226383,-6873200 -226354,-6873231 -226355,-6873233 -226358,-6873244 -226362,-6873256 -226365,-6873268 -226365,-6873271 -226366,-6873277 -226368,-6873283 -226368,-6873289 -226368,-6873295 -226368,-6873296 -226368,-6873303 -226367,-6873309 -226365,-6873316 -226363,-6873323 -226360,-6873329 -226360,-6873331 -226357,-6873337 -226353,-6873343 -226349,-6873349 -226316,-6873373 -226271,-6873418 -226222,-6873460 -226205,-6873457 -226182,-6873507 -226154,-6873536 -226125,-6873571 -226129,-6873577 -226089,-6873629 -226032,-6873691 -225968,-6873774 -225914,-6873828 -225880,-6873850 -225865,-6873877 -225797,-6873910 -225762,-6873949 -225748,-6873972 -225746,-6873984 -225745,-6874001 -225742,-6874020 -225727,-6874046 -225707,-6874067 -225679,-6874074 -225679,-6874076 -225676,-6874098 -225689,-6874111 -225674,-6874157 -225740,-6874214 -225704,-6874255 -225624,-6874183 -225549,-6874119 -225330,-6873938 -225287,-6873950 -225217,-6873924 -225187,-6873950 -225180,-6873955 -225172,-6873963 -225163,-6873971 -225155,-6873979 -225146,-6873987 -225137,-6873994 -225128,-6874001 -225118,-6874007 -225108,-6874012 -225106,-6874014 -225091,-6874020 -225075,-6874024 -225059,-6874028 -225043,-6874030 -225026,-6874032 -225010,-6874033 -224993,-6874033 -224986,-6874034 -224975,-6874034 -224963,-6874033 -224952,-6874033 -224941,-6874032 -224929,-6874031 -224918,-6874029 -224907,-6874026 -224896,-6874023 -224892,-6874021 -224881,-6874017 -224871,-6874013 -224861,-6874007 -224851,-6874001 -224841,-6873995 -224832,-6873988 -224769,-6873939 -224692,-6873877 -224592,-6873794 -224539,-6873827 -224519,-6873836 -224506,-6873840 -224471,-6873846 -224400,-6873855 -224360,-6873876 -224344,-6873881 -224316,-6873893 -224285,-6873924 -224282,-6873939 -224288,-6873940 -224270,-6873957 -224262,-6873958 -224246,-6873995 -224238,-6874007 -224227,-6874031 -224144,-6874051 -224136,-6874055 -224112,-6874060 -224110,-6874061 -224102,-6874066 -224093,-6874071 -224085,-6874076 -224085,-6874076 -224077,-6874082 -224070,-6874089 -224063,-6874096 -224056,-6874103 -224050,-6874111 -224049,-6874112 -224044,-6874118 -224039,-6874126 -224035,-6874133 -224031,-6874140 -224028,-6874148 -224025,-6874156 -224023,-6874160 -224021,-6874169 -224020,-6874177 -224019,-6874185 -224013,-6874273 -224027,-6874290 -224024,-6874311 -224021,-6874334 -224021,-6874355 -224024,-6874371 -224041,-6874406 -224046,-6874449 -224063,-6874511 -224036,-6874512 -223960,-6874502 -223847,-6874520 -223795,-6874586 -223771,-6874610 -223667,-6874671 -223657,-6874652 -223648,-6874632 -223637,-6874594 -223608,-6874528 -223584,-6874514 -223568,-6874481 -223563,-6874457 -223556,-6874452 -223540,-6874349 -223520,-6874362 -223500,-6874376 -223479,-6874388 -223463,-6874397 -223445,-6874407 -223426,-6874416 -223407,-6874424 -223388,-6874432 -223372,-6874437 -223356,-6874442 -223339,-6874447 -223321,-6874451 -223304,-6874455 -223287,-6874458 -223269,-6874459 -223254,-6874460 -223236,-6874461 -223219,-6874460 -223201,-6874459 -223155,-6874459 -223131,-6874699 -223116,-6874753 -223106,-6874777 -223104,-6874776 -223085,-6874766 -223065,-6874757 -223045,-6874749 -223035,-6874745 -223022,-6874740 -223009,-6874735 -222995,-6874732 -222986,-6874729 -222974,-6874727 -222961,-6874725 -222949,-6874724 -222937,-6874724 -222924,-6874724 -222889,-6874732 -222870,-6874759 -222822,-6874734 -222832,-6874702 -222796,-6874679 -222751,-6874657 -222677,-6874638 -222648,-6874630 -222534,-6874582 -222484,-6874556 -222461,-6874583 -222432,-6874598 -222393,-6874553 -222393,-6874552 -222382,-6874564 -222326,-6874625 -222308,-6874645 -222296,-6874665 -222295,-6874717 -222290,-6874738 -222264,-6874810 -222253,-6874837 -222230,-6874886 -222216,-6874926 -222174,-6875023 -222156,-6875050 -222150,-6875056 -222130,-6875072 -222098,-6875088 -222064,-6875112 -222052,-6875121 -222010,-6875157 -221970,-6875190 -221886,-6875252 -221868,-6875232 -221858,-6875224 -221753,-6875250 -221728,-6875251 -221674,-6875248 -221645,-6875250 -221599,-6875267 -221583,-6875283 -221578,-6875288 -221572,-6875291 -221457,-6875327 -221399,-6875353 -221386,-6875389 -221378,-6875403 -221369,-6875414 -221353,-6875442 -221323,-6875497 -221288,-6875556 -221260,-6875615 -221246,-6875640 -221225,-6875640 -221207,-6875638 -221165,-6875697 -221147,-6875716 -221114,-6875764 -221108,-6875782 -221107,-6875793 -221084,-6875828 -221124,-6875865 -221131,-6875870 -221135,-6875871 -221142,-6875870 -221157,-6875862 -221160,-6875862 -221163,-6875863 -221168,-6875866 -221177,-6875873 -221209,-6875871 -221211,-6875868 -221253,-6875874 -221288,-6875876 -221327,-6875876 -221380,-6875763 -221388,-6875758 -221406,-6875750 -221456,-6875734 -221502,-6875719 -221529,-6875699 -221566,-6875662 -221601,-6875626 -221641,-6875588 -221730,-6875643 -221812,-6875686 -221893,-6875728 -221930,-6875748 -222072,-6875823 -222079,-6875808 -222191,-6875883 -222247,-6875923 -222311,-6875956 -222301,-6875991 -222297,-6876018 -222299,-6876037 -222306,-6876050 -222324,-6876062 -222373,-6876089 -222386,-6876095 -222406,-6876104 -222425,-6876115 -222440,-6876123 -222457,-6876134 -222473,-6876145 -222489,-6876157 -222505,-6876169 -222520,-6876182 -222529,-6876191 -222544,-6876206 -222559,-6876222 -222572,-6876238 -222585,-6876255 -222589,-6876259 -222601,-6876276 -222612,-6876294 -222623,-6876312 -222633,-6876330 -222642,-6876349 -222646,-6876358 -222654,-6876378 -222661,-6876397 -222668,-6876417 -222679,-6876470 -222796,-6876550 -222866,-6876606 -222842,-6876655 -222796,-6876747 -222780,-6876767 -222796,-6876768 -222933,-6876838 -222952,-6876851 -222934,-6876874 -222907,-6876907 -222898,-6876915 -222891,-6876921 -222871,-6876928 -222827,-6876947 -222823,-6876951 -222820,-6876959 -222822,-6876973 -222907,-6877158 -222982,-6877332 -222983,-6877335 -222993,-6877353 -223001,-6877372 -223009,-6877391 -223016,-6877410 -223022,-6877429 -223025,-6877438 -223029,-6877454 -223033,-6877471 -223036,-6877487 -223036,-6877489 -223038,-6877496 -223039,-6877502 -223040,-6877509 -223040,-6877516 -223041,-6877523 -223040,-6877530 -223040,-6877531 -223039,-6877537 -223038,-6877544 -223030,-6877568 -223032,-6877569 -223071,-6877582 -223086,-6877586 -223105,-6877589 -223119,-6877589 -223130,-6877677 -223136,-6877764 -223157,-6877954 -223160,-6877961 -223173,-6877951 -223178,-6877946 -223179,-6877945 -223182,-6877942 -223185,-6877939 -223188,-6877936 -223191,-6877934 -223196,-6877931 -223207,-6877928 -223215,-6877925 -223225,-6877920 -223272,-6877902 -223316,-6877887 -223324,-6877884 -223345,-6877879 -223349,-6877878 -223356,-6877876 -223362,-6877874 -223369,-6877873 -223375,-6877872 -223382,-6877871 -223384,-6877871 -223391,-6877872 -223398,-6877873 -223405,-6877874 -223412,-6877877 -223419,-6877879 -223420,-6877879 -223426,-6877882 -223428,-6877883 -223432,-6877885 -223438,-6877889 -223451,-6877903 -223511,-6877843 -223519,-6877835 -223602,-6877740 -223723,-6877616 -223735,-6877630 -223784,-6877686 -223852,-6877752 -223867,-6877751 -223873,-6877762 -223891,-6877778 -223924,-6877804 -223947,-6877821 -223967,-6877847 -223975,-6877864 -223982,-6877895 -223987,-6877903 -224019,-6877924 -224062,-6877965 -224105,-6878017 -224038,-6878215 -224050,-6878217 -224062,-6878215 -224076,-6878213 -224085,-6878211 -224095,-6878209 -224104,-6878207 -224113,-6878203 -224131,-6878195 -224150,-6878184 -224154,-6878181 -224173,-6878169 -224205,-6878143 -224239,-6878112 -224286,-6878068 -224359,-6877998 -224351,-6878084 -224350,-6878143 -224349,-6878198 -224349,-6878230 -224347,-6878274 -224351,-6878314 -224356,-6878359 -224365,-6878419 -224363,-6878477 -224359,-6878560 -224350,-6878597 -224342,-6878634 -224339,-6878648 -224346,-6878662 -224346,-6878662 -224350,-6878673 -224354,-6878683 -224358,-6878693 -224359,-6878696 -224361,-6878700 -224363,-6878705 -224366,-6878710 -224368,-6878714 -224371,-6878719 -224375,-6878723 -224378,-6878725 -224384,-6878730 -224391,-6878734 -224398,-6878737 -224403,-6878740 -224410,-6878743 -224416,-6878745 -224423,-6878747 -224430,-6878749 -224437,-6878750 -224444,-6878750 -224447,-6878750 -224454,-6878750 -224461,-6878749 -224468,-6878748 -224475,-6878747 -224530,-6878741 -224541,-6878793 -224543,-6878816 -224546,-6878833 -224547,-6878855 -224544,-6878908 -224537,-6878980 -224535,-6879071 -224533,-6879142 -224535,-6879193 -224547,-6879279 -224558,-6879345 -224556,-6879400 -224550,-6879431 -224540,-6879486 -224535,-6879516 -224535,-6879660 -224540,-6879683 -224545,-6879711 -224553,-6879735 -224545,-6879835 -224529,-6879933 -224549,-6879956 -224545,-6880052 -224545,-6880122 -224531,-6880200 -224537,-6880228 -224552,-6880292 -224562,-6880314 -224568,-6880422 -224570,-6880500 -224578,-6880656 -224579,-6880672 -224571,-6880695 -224563,-6880727 -224555,-6880759 -224538,-6880832 -224520,-6880992 -224507,-6881056 -224494,-6881126 -224488,-6881172 -224468,-6881249 -224481,-6881273 -224477,-6881306 -224462,-6881333 -224398,-6881384 -224374,-6881424 -224356,-6881454 -224338,-6881476 -224298,-6881495 -224266,-6881506 -224223,-6881515 -224187,-6881530 -224164,-6881548 -224125,-6881586 -224112,-6881603 -224145,-6881637 -224124,-6881678 -224121,-6881698 -224121,-6881727 -224126,-6881745 -224134,-6881774 -224116,-6881788 -224141,-6881824 -224143,-6881841 -224134,-6881860 -224116,-6881912 -224090,-6881972 -224080,-6882013 -224066,-6882050 -224037,-6882124 -224011,-6882200 -223988,-6882304 -223965,-6882428 -223948,-6882557 -223928,-6882712 -223927,-6882781 -223919,-6882883 -223921,-6882990 -223928,-6883071 -223937,-6883134 -223947,-6883223 -223974,-6883337 -223989,-6883397 -223993,-6883414 -224003,-6883450 -224024,-6883542 -224058,-6883669 -224067,-6883770 -224095,-6883782 -224108,-6883867 -224112,-6883922 -224114,-6884019 -224113,-6884122 -224113,-6884130 -224105,-6884129 -223933,-6884116 -223914,-6884115 -223847,-6884114 -223777,-6884104 -223767,-6884102 -223609,-6884085 -223518,-6884080 -223447,-6884094 -223346,-6884127 -223287,-6884147 -223261,-6884158 -223226,-6884175 -223127,-6884204 -223101,-6884222 -223058,-6884262 -223036,-6884283 -223034,-6884284 -223007,-6884306 -222970,-6884323 -222894,-6884345 -222871,-6884351 -222832,-6884355 -222797,-6884354 -222641,-6884335 -222561,-6884322 -222504,-6884310 -222456,-6884300 -222417,-6884298 -222385,-6884299 -222345,-6884312 -222312,-6884325 -222290,-6884337 -222179,-6884385 -222116,-6884412 -222041,-6884445 -221967,-6884475 -221906,-6884500 -221867,-6884513 -221849,-6884519 -221810,-6884532 -221753,-6884550 -221727,-6884558 -221663,-6884571 -221570,-6884602 -221473,-6884630 -221436,-6884642 -221347,-6884694 -221298,-6884711 -221201,-6884739 -221149,-6884750 -221035,-6884770 -221012,-6884773 -220975,-6884774 -220940,-6884782 -220823,-6884815 -220733,-6884841 -220611,-6884877 -220603,-6884880 -220531,-6884904 -220449,-6884928 -220397,-6884945 -220343,-6884964 -220304,-6884979 -220263,-6884997 -220178,-6885039 -220132,-6885069 -220105,-6885088 -220041,-6885149 -219970,-6885217 -219908,-6885276 -219763,-6885416 -219720,-6885451 -219606,-6885538 -219572,-6885563 -219507,-6885628 -219406,-6885745 -219372,-6885777 -219231,-6885902 -219126,-6885960 -219116,-6885964 -219111,-6885967 -219037,-6886010 -218987,-6886044 -218893,-6886117 -218824,-6886162 -218825,-6886167 -218832,-6886227 -218931,-6886279 -218941,-6886267 -218946,-6886274 -218979,-6886324 -218977,-6886327 -218921,-6886385 -218908,-6886398 -218784,-6886530 -218953,-6886661 -218986,-6886688 -219034,-6886720 -219085,-6886748 -219190,-6886799 -219167,-6886854 -219168,-6886866 -219163,-6886867 -219160,-6886869 -219159,-6886872 -219135,-6886933 -219139,-6886950 -219121,-6886973 -219153,-6886994 -219148,-6887000 -219087,-6887065 -219046,-6887105 -219015,-6887136 -218981,-6887176 -218969,-6887194 -218947,-6887228 -218898,-6887319 -218884,-6887369 -218865,-6887396 -218855,-6887411 -218820,-6887485 -218819,-6887488 -218815,-6887502 -218774,-6887560 -218772,-6887563 -218737,-6887626 -218708,-6887662 -218686,-6887688 -218632,-6887748 -218608,-6887764 -218548,-6887795 -218482,-6887831 -218445,-6887850 -218387,-6887872 -218386,-6887885 -218341,-6887892 -218229,-6887907 -218097,-6887909 -218067,-6887905 -218050,-6887899 -218030,-6887887 -218015,-6887894 -217926,-6887867 -217839,-6887837 -217784,-6887810 -217754,-6887807 -217703,-6887826 -217646,-6887851 -217570,-6887880 -217486,-6887926 -217472,-6887933 -217374,-6887983 -217372,-6887981 -217369,-6887978 -217361,-6887987 -217349,-6887999 -217322,-6887973 -217247,-6887901 -217212,-6887938 -217215,-6887944 -217209,-6887948 -217159,-6887978 -217158,-6887982 -217100,-6888137 -217019,-6888340 -217153,-6888389 -217151,-6888398 -217139,-6888455 -217129,-6888482 -217072,-6888630 -217053,-6888665 -217040,-6888690 -216953,-6888674 -216898,-6888664 -216895,-6888670 -216853,-6888778 -216827,-6888772 -216749,-6888754 -216748,-6888758 -216747,-6888758 -216645,-6889159 -216621,-6889252 -216398,-6889201 -216364,-6889354 -216350,-6889346 -216309,-6889412 -216311,-6889414 -216340,-6889438 -216337,-6889441 -216280,-6889509 -216404,-6889613 -216477,-6889683 -216488,-6889692 -216592,-6889792 -216575,-6889861 -216571,-6889862 -216533,-6889870 -216516,-6889887 -216510,-6889886 -216498,-6889886 -216475,-6889925 -216385,-6890020 -216403,-6890030 -216434,-6890231 -216439,-6890261 -216436,-6890264 -216392,-6890300 -216328,-6890368 -216287,-6890412 -216255,-6890452 -216219,-6890495 -216189,-6890527 -216117,-6890592 -216042,-6890639 -215995,-6890663 -215971,-6890674 -215900,-6890694 -215878,-6890700 -215812,-6890712 -215766,-6890717 -215754,-6890745 -215751,-6890753 -215896,-6890804 -216060,-6890860 -216247,-6890934 -216246,-6890937 -216233,-6890968 -216255,-6890975 -216263,-6890948 -216265,-6890945 -216278,-6890937 -216294,-6890933 -216575,-6891046 -216587,-6891040 -216587,-6891040 -216588,-6891040 -216595,-6891036 -216822,-6891130 -216819,-6891137 -216843,-6891147 -216838,-6891161 -216926,-6891198 -216927,-6891198 -216929,-6891194 -216933,-6891183 -216991,-6891208 -217122,-6891263 -217113,-6891293 -217113,-6891295 -217164,-6891314 -217206,-6891322 -217214,-6891310 -217231,-6891312 -217249,-6891318 -217355,-6891355 -217388,-6891356 -217601,-6891348 -217687,-6891333 -217683,-6891523 -217881,-6891613 -217873,-6891631 -217884,-6891637 -217933,-6891660 -217932,-6891668 -218049,-6891727 -218116,-6891761 -218186,-6891794 -218417,-6891905 -218419,-6891899 -218522,-6891937 -218493,-6891994 -218488,-6892004 -218412,-6892112 -218314,-6892251 -218317,-6892257 -218405,-6892426 -218392,-6892435 -218389,-6892437 -218387,-6892440 -218383,-6892446 -218346,-6892501 -218326,-6892553 -218334,-6892554 -218435,-6892566 -218434,-6892570 -218427,-6892650 -218416,-6892763 -218406,-6892847 -218329,-6892837 -218153,-6892811 -218138,-6892809 -218138,-6892826 -218157,-6892843 -218177,-6892866 -218233,-6892931 -218286,-6893044 -218358,-6893189 -218438,-6893355 -218447,-6893383 -218469,-6893472 -218478,-6893519 -218480,-6893540 -218478,-6893573 -218475,-6893597 -218450,-6893689 -218445,-6893750 -218438,-6893901 -218429,-6893933 -218420,-6893956 -218403,-6893980 -218391,-6893993 -218247,-6894125 -218208,-6894163 -218200,-6894175 -218186,-6894197 -218181,-6894213 -218180,-6894234 -218178,-6894255 -218175,-6894283 -218161,-6894303 -218143,-6894323 -218116,-6894342 -218085,-6894368 -218066,-6894390 -218059,-6894398 -218052,-6894409 -218045,-6894421 -218032,-6894448 -218017,-6894483 -218006,-6894517 -218002,-6894541 -217993,-6894592 -217975,-6894651 -217967,-6894695 -217965,-6894732 -217969,-6894769 -217975,-6894795 -217989,-6894828 -218008,-6894867 -218061,-6894968 -218100,-6895038 -218122,-6895100 -218129,-6895118 -218130,-6895124 -218135,-6895146 -218134,-6895173 -218131,-6895191 -218122,-6895250 -218136,-6895357 -218151,-6895410 -218159,-6895444 -218169,-6895486 -218186,-6895556 -218198,-6895595 -218221,-6895659 -218258,-6895746 -218280,-6895802 -218324,-6895917 -218362,-6895996 -218389,-6896057 -218402,-6896093 -218412,-6896126 -218417,-6896156 -218416,-6896198 -218406,-6896239 -218396,-6896269 -218381,-6896301 -218363,-6896324 -218334,-6896363 -218320,-6896390 -218309,-6896409 -218273,-6896474 -218239,-6896570 -218230,-6896604 -218222,-6896660 -218217,-6896685 -218215,-6896702 -218214,-6896717 -218213,-6896730 -218213,-6896733 -218212,-6896748 -218212,-6896762 -218212,-6896775 -218212,-6896776 -218163,-6896779 -218141,-6896774 -217991,-6896780 -217979,-6896786 -217972,-6896786 -217972,-6896779 -217963,-6896678 -217955,-6896626 -217952,-6896601 -217956,-6896547 -217955,-6896525 -217943,-6896502 -217927,-6896487 -217915,-6896480 -217891,-6896475 -217848,-6896476 -217827,-6896479 -217763,-6896470 -217730,-6896472 -217643,-6896472 -217611,-6896480 -217597,-6896487 -217591,-6896489 -217574,-6896500 -217558,-6896511 -217546,-6896515 -217528,-6896518 -217493,-6896517 -217458,-6896508 -217410,-6896492 -217385,-6896486 -217374,-6896484 -217343,-6896481 -217302,-6896481 -217272,-6896483 -217256,-6896484 -217211,-6896492 -217185,-6896501 -217141,-6896523 -217123,-6896535 -217099,-6896562 -217078,-6896584 -217050,-6896619 -217028,-6896656 -217011,-6896693 -216998,-6896738 -216980,-6896783 -216966,-6896806 -216922,-6896849 -216915,-6896856 -216903,-6896868 -216888,-6896883 -216874,-6896904 -216871,-6896910 -216861,-6896939 -216854,-6896982 -216847,-6897003 -216844,-6897008 -216831,-6897019 -216793,-6897030 -216786,-6897034 -216779,-6897038 -216768,-6897052 -216765,-6897064 -216764,-6897067 -216765,-6897083 -216773,-6897097 -216790,-6897123 -216794,-6897137 -216794,-6897147 -216794,-6897149 -216791,-6897157 -216786,-6897162 -216782,-6897167 -216758,-6897181 -216733,-6897195 -216691,-6897213 -216646,-6897232 -216624,-6897236 -216604,-6897239 -216577,-6897238 -216540,-6897233 -216508,-6897227 -216463,-6897219 -216419,-6897219 -216374,-6897226 -216342,-6897233 -216310,-6897234 -216271,-6897229 -216196,-6897212 -216145,-6897200 -216128,-6897196 -216099,-6897184 -216072,-6897164 -216057,-6897158 -216016,-6897147 -215966,-6897121 -215938,-6897113 -215925,-6897107 -215914,-6897099 -215906,-6897086 -215906,-6897065 -215907,-6897051 -215905,-6897046 -215901,-6897039 -215895,-6897034 -215889,-6897029 -215851,-6897009 -215802,-6896976 -215776,-6896963 -215731,-6896944 -215705,-6896928 -215677,-6896906 -215668,-6896903 -215653,-6896896 -215632,-6896896 -215626,-6896896 -215602,-6896902 -215579,-6896915 -215560,-6896920 -215513,-6896943 -215504,-6896946 -215485,-6896950 -215455,-6896955 -215365,-6896999 -215361,-6897001 -215349,-6897006 -215326,-6897015 -215291,-6897024 -215267,-6897031 -215247,-6897032 -215219,-6897022 -215216,-6897021 -215197,-6897014 -215192,-6897013 -215161,-6896996 -215145,-6896987 -215139,-6896984 -215131,-6896999 -215122,-6897016 -215114,-6897013 -215082,-6897002 -215037,-6896964 -214978,-6896927 -214869,-6896842 -214784,-6896767 -214854,-6896973 -214871,-6897030 -214876,-6897052 -214884,-6897102 -214885,-6897143 -214883,-6897157 -214869,-6897457 -214864,-6897614 -214852,-6897908 -214840,-6898140 -214834,-6898275 -214825,-6898437 -214815,-6898532 -214800,-6898652 -214779,-6898811 -214779,-6898836 -214784,-6898876 -214786,-6898889 -214798,-6898936 -214806,-6898957 -214828,-6898998 -214840,-6899016 -214879,-6899055 -214971,-6899155 -215040,-6899227 -215078,-6899272 -215146,-6899341 -215174,-6899375 -215197,-6899423 -215151,-6899432 -215039,-6899445 -214980,-6899445 -214804,-6899425 -214778,-6899425 -214721,-6899430 -214590,-6899456 -214529,-6899467 -214491,-6899473 -214445,-6899477 -214411,-6899477 -214375,-6899478 -214291,-6899476 -214197,-6899472 -214025,-6899465 -213948,-6899463 -213888,-6899464 -213865,-6899467 -213826,-6899474 -213750,-6899502 -213712,-6899520 -213696,-6899531 -213661,-6899553 -213643,-6899569 -213623,-6899585 -213582,-6899627 -213567,-6899646 -213528,-6899696 -213506,-6899735 -213447,-6899846 -213412,-6899898 -213377,-6899941 -213338,-6899983 -213324,-6899997 -213185,-6900121 -213099,-6900202 -213080,-6900222 -213060,-6900246 -213034,-6900278 -213006,-6900321 -212973,-6900372 -212931,-6900432 -212881,-6900494 -212860,-6900516 -212824,-6900545 -212784,-6900573 -212759,-6900585 -212734,-6900598 -212698,-6900619 -212611,-6900663 -212558,-6900692 -212531,-6900707 -212415,-6900780 -212307,-6900822 -212219,-6900858 -212124,-6900885 -211974,-6900920 -211803,-6900963 -211689,-6900988 -211649,-6900998 -211591,-6901024 -211540,-6901054 -211483,-6901105 -211435,-6901163 -211371,-6901267 -211295,-6901402 -211276,-6901445 -211269,-6901467 -211230,-6901584 -211192,-6901698 -211189,-6901708 -211168,-6901757 -211137,-6901811 -211106,-6901856 -211002,-6901979 -210880,-6902121 -210758,-6902263 -210658,-6902381 -210575,-6902470 -210575,-6902471 -210573,-6902472 -210533,-6902507 -210444,-6902566 -210320,-6902645 -210276,-6902677 -210226,-6902721 -210167,-6902781 -210061,-6902896 -210007,-6902959 -209973,-6902993 -209940,-6903026 -209877,-6903082 -209751,-6903195 -209680,-6903276 -209586,-6903386 -209504,-6903459 -209423,-6903518 -209255,-6903641 -209202,-6903681 -209137,-6903748 -209115,-6903785 -209094,-6903948 -209045,-6904322 -209022,-6904480 -209006,-6904593 -208987,-6904725 -208961,-6904913 -208918,-6905223 -208894,-6905369 -208870,-6905507 -208835,-6905699 -208826,-6905750 -208813,-6905803 -208787,-6905869 -208720,-6906022 -208695,-6906075 -208611,-6906252 -208554,-6906363 -208532,-6906413 -208507,-6906431 -208503,-6906426 -208485,-6906439 -208496,-6906471 -208494,-6906489 -208447,-6906580 -208452,-6906589 -208394,-6906702 -208340,-6906812 -208299,-6906883 -208289,-6906899 -208272,-6906922 -208247,-6906947 -208231,-6906966 -208183,-6907017 -208121,-6907077 -208107,-6907089 -208061,-6907125 -208011,-6907162 -207958,-6907189 -207923,-6907210 -207943,-6907251 -207866,-6907324 -207711,-6907476 -207611,-6907572 -207549,-6907637 -207521,-6907673 -207475,-6907740 -207373,-6907893 -207317,-6907986 -207186,-6908220 -206930,-6908698 -206802,-6908931 -206599,-6909301 -206568,-6909366 -206507,-6909507 -206485,-6909559 -206469,-6909589 -206458,-6909608 -206446,-6909626 -206428,-6909649 -206381,-6909701 -206361,-6909716 -206309,-6909757 -206236,-6909819 -205852,-6910154 -205833,-6910168 -205811,-6910184 -205796,-6910193 -205779,-6910201 -205747,-6910214 -205682,-6910233 -205665,-6910236 -205659,-6910237 -205575,-6910243 -205485,-6910252 -205465,-6910256 -205412,-6910276 -205325,-6910306 -205292,-6910319 -205225,-6910349 -205086,-6910408 -205001,-6910442 -204817,-6910530 -204764,-6910558 -204678,-6910608 -204636,-6910586 -204620,-6910585 -204609,-6910585 -204546,-6910671 -204545,-6910671 -204475,-6910696 -204416,-6910711 -204380,-6910716 -204324,-6910719 -204298,-6910719 -204277,-6910721 -204265,-6910724 -204248,-6910732 -204220,-6910739 -204155,-6910765 -204149,-6910767 -204133,-6910770 -204115,-6910772 -204052,-6910771 -204022,-6910771 -203989,-6910777 -203978,-6910779 -203931,-6910790 -203821,-6910821 -203777,-6910836 -203759,-6910843 -203740,-6910851 -203672,-6910885 -203647,-6910900 -203618,-6910913 -203540,-6910941 -203517,-6910946 -203506,-6910947 -203498,-6910947 -203490,-6910946 -203476,-6910941 -203448,-6910922 -203334,-6910867 -203138,-6910775" stroke="white" stroke-width="75" /></ns0:svg>    <rect x="20" y="50"  width="250" height="25"  rx="0"  fill="#E8EDEE" fill-opacity="0.8" />    <text x="145" y="70" text-anchor="middle" font-family="Frutiger" font-weight="bold" font-size="30" fill="#AE2573">Birmingham</text>    <rect x="35" y="195" width="220" height="160" rx="15" fill="#724F95"/>    <g font-family="Frutiger" font-size="15" fill="white">        <g> <text x="45" y="218">Self-harm</text> <text x="245" y="218" text-anchor="end">17</text> </g>        <g> <text x="45" y="243">SEN</text> <text x="245" y="243" text-anchor="end">28</text> </g>        <g> <text x="45" y="268">Difficulties</text> <text x="245" y="268" text-anchor="end">67</text> </g>        <g> <text x="45" y="293">Child Carer</text> <text x="245" y="293" text-anchor="end">6</text> </g>        <g> <text x="45" y="318">Drinkers</text> <text x="245" y="318" text-anchor="end">16</text> </g>        <g> <text x="45" y="343">Safeguarding </text> <text x="245" y="343" text-anchor="end">23</text> </g>    </g></svg>