<?xml version="1.0" standalone="no"?>
<!DOCTYPE svg PUBLIC "-//W3C//DTD SVG 1.1//EN"
"http://www.w3.org/Graphics/SVG/1.1/DTD/svg11.dtd">
<svg height="1800" version="1.1" width="1800" xmlns="http://www.w3.org/2000/svg"><defs><style type="text/css">@font-face {font-family: 'Frutiger';font-style: normal;font-weight: normal;src: local('Frutiger'), url('../fonts/Frutiger.woff') format('woff');}@font-face {font-family: 'Frutiger Bold';font-style: normal;font-weight: normal;src: local('Frutiger Bold'), url('../fonts/Frutiger_bold.woff') format('woff');}        </style>    </defs>    <rect x="20" y="20"  width="250" height="350" rx="15" fill="#AE2573" />    <rect x="35" y="35"  width="220" height="145" rx="15" fill="#330072" /><ns0:svg xmlns:ns0="http://www.w3.org/2000/svg" height="115" version="1.1" viewBox="-23764 -6723280 12040 10798" width="220" x="35" y="50"><ns0:polygon fill="white" points=" -18500,-6723246 -18471,-6723237 -18463,-6723238 -18450,-6723240 -18435,-6723236 -18395,-6723223 -18355,-6723210 -18353,-6723209 -18349,-6723208 -18344,-6723206 -18340,-6723204 -18336,-6723203 -18332,-6723201 -18328,-6723200 -18324,-6723198 -18319,-6723197 -18315,-6723197 -18306,-6723196 -18296,-6723195 -18287,-6723194 -18282,-6723194 -18273,-6723194 -18263,-6723194 -18253,-6723194 -18185,-6723199 -18098,-6723206 -17981,-6723228 -17974,-6723230 -17964,-6723233 -17953,-6723235 -17943,-6723238 -17933,-6723240 -17922,-6723242 -17912,-6723243 -17901,-6723245 -17899,-6723245 -17896,-6723245 -17892,-6723246 -17889,-6723246 -17886,-6723247 -17882,-6723247 -17879,-6723247 -17876,-6723247 -17873,-6723247 -17869,-6723247 -17869,-6723247 -17865,-6723247 -17862,-6723246 -17858,-6723245 -17855,-6723245 -17852,-6723244 -17849,-6723243 -17845,-6723242 -17845,-6723242 -17842,-6723241 -17838,-6723239 -17835,-6723238 -17832,-6723236 -17829,-6723235 -17826,-6723233 -17787,-6723210 -17681,-6723139 -17472,-6723118 -17295,-6723092 -17132,-6723069 -16996,-6723052 -16826,-6723036 -16734,-6723028 -16707,-6723017 -16670,-6722980 -16644,-6722962 -16601,-6722941 -16479,-6722890 -16371,-6722857 -16263,-6722826 -16152,-6722785 -16094,-6722770 -16073,-6722761 -16044,-6722746 -16011,-6722731 -15851,-6722617 -15850,-6722617 -15850,-6722589 -15860,-6722570 -15864,-6722553 -15829,-6722510 -15792,-6722445 -15767,-6722332 -15753,-6722259 -15726,-6722050 -15715,-6721975 -15715,-6721971 -15709,-6721925 -15705,-6721909 -15697,-6721880 -15658,-6721777 -15657,-6721771 -15656,-6721755 -15656,-6721738 -15656,-6721726 -15657,-6721716 -15672,-6721645 -15672,-6721606 -15671,-6721587 -15665,-6721555 -15661,-6721538 -15651,-6721504 -15647,-6721464 -15648,-6721412 -15652,-6721363 -15655,-6721350 -15659,-6721333 -15671,-6721298 -15692,-6721218 -15695,-6721206 -15697,-6721177 -15697,-6721165 -15696,-6721144 -15701,-6721083 -15699,-6721050 -15696,-6721032 -15693,-6721018 -15686,-6720994 -15680,-6720982 -15671,-6720967 -15660,-6720952 -15640,-6720920 -15547,-6720702 -15520,-6720643 -15500,-6720599 -15416,-6720420 -15403,-6720393 -15297,-6720183 -15290,-6720167 -15278,-6720145 -15267,-6720131 -15249,-6720112 -15197,-6720068 -15126,-6720035 -15078,-6720007 -15062,-6719995 -15053,-6719986 -15047,-6719979 -15041,-6719970 -15035,-6719958 -15012,-6719906 -14994,-6719872 -14985,-6719856 -14956,-6719813 -14914,-6719767 -14830,-6719673 -14709,-6719545 -14673,-6719517 -14619,-6719472 -14607,-6719461 -14582,-6719436 -14571,-6719419 -14566,-6719408 -14561,-6719395 -14559,-6719383 -14553,-6719321 -14548,-6719283 -14507,-6719146 -14486,-6719097 -14471,-6719073 -14450,-6719043 -14396,-6718981 -14395,-6718981 -14372,-6718957 -14272,-6718883 -14242,-6718862 -14221,-6718838 -14212,-6718826 -14202,-6718814 -14164,-6718761 -14157,-6718747 -14153,-6718737 -14150,-6718722 -14144,-6718709 -14122,-6718627 -14096,-6718468 -14080,-6718380 -14067,-6718304 -14063,-6718281 -14040,-6718125 -14022,-6718011 -14013,-6717945 -14016,-6717920 -14012,-6717897 -14004,-6717865 -13994,-6717819 -13988,-6717753 -13965,-6717690 -13941,-6717636 -13922,-6717588 -13921,-6717575 -13913,-6717528 -13896,-6717481 -13833,-6717342 -13806,-6717288 -13771,-6717239 -13731,-6717177 -13709,-6717132 -13697,-6717106 -13658,-6717003 -13645,-6716949 -13636,-6716903 -13622,-6716817 -13619,-6716761 -13617,-6716714 -13616,-6716671 -13614,-6716627 -13615,-6716573 -13616,-6716406 -13615,-6716403 -13618,-6716309 -13629,-6716075 -13640,-6715784 -13639,-6715734 -13639,-6715715 -13577,-6715727 -13491,-6715737 -13343,-6715753 -13245,-6715719 -13148,-6715685 -13083,-6715658 -13032,-6715636 -12969,-6715602 -12916,-6715563 -12912,-6715557 -12903,-6715544 -12896,-6715530 -12892,-6715518 -12888,-6715504 -12886,-6715488 -12879,-6715357 -12874,-6715285 -12862,-6715220 -12857,-6715204 -12851,-6715188 -12846,-6715178 -12832,-6715155 -12766,-6715085 -12742,-6715061 -12668,-6714991 -12660,-6714983 -12645,-6714975 -12624,-6714963 -12570,-6714943 -12601,-6714912 -12658,-6714848 -12715,-6714783 -12710,-6714773 -12699,-6714741 -12674,-6714674 -12651,-6714621 -12644,-6714607 -12632,-6714589 -12599,-6714554 -12527,-6714475 -12504,-6714458 -12486,-6714449 -12452,-6714433 -12375,-6714404 -12309,-6714381 -12240,-6714358 -12221,-6714351 -12198,-6714346 -12184,-6714336 -12166,-6714323 -12158,-6714320 -12129,-6714336 -12127,-6714330 -12104,-6714278 -12086,-6714236 -12057,-6714180 -12051,-6714171 -12050,-6714170 -11910,-6714188 -11869,-6714098 -11852,-6714063 -11836,-6714023 -11815,-6713961 -11801,-6713919 -11784,-6713847 -11740,-6713642 -11724,-6713535 -11778,-6713509 -11819,-6713487 -11856,-6713470 -11913,-6713442 -11953,-6713419 -11974,-6713410 -12000,-6713396 -12040,-6713401 -12134,-6713418 -12190,-6713425 -12295,-6713452 -12423,-6713476 -12502,-6713485 -12579,-6713490 -12667,-6713484 -12666,-6713478 -12663,-6713457 -12658,-6713432 -12656,-6713427 -12626,-6713375 -12560,-6713267 -12482,-6713121 -12479,-6713116 -12450,-6713045 -12421,-6712962 -12430,-6712961 -12432,-6712955 -12501,-6712941 -12499,-6712928 -12671,-6712870 -12763,-6713078 -12767,-6713088 -13052,-6712970 -13090,-6712942 -13175,-6712906 -13177,-6712905 -13202,-6712895 -13206,-6712873 -13210,-6712851 -13227,-6712843 -13279,-6712819 -13299,-6712813 -13394,-6712830 -13502,-6712864 -13560,-6712878 -13589,-6712835 -13677,-6712927 -13731,-6712864 -13754,-6712851 -13798,-6712805 -13855,-6712750 -13941,-6712683 -14045,-6712610 -14097,-6712570 -14119,-6712546 -14128,-6712536 -14139,-6712522 -14154,-6712492 -14165,-6712487 -14174,-6712484 -14185,-6712483 -14201,-6712482 -14214,-6712492 -14244,-6712519 -14276,-6712557 -14286,-6712566 -14342,-6712614 -14357,-6712622 -14358,-6712622 -14370,-6712627 -14397,-6712630 -14434,-6712745 -14452,-6712808 -14517,-6713069 -14521,-6713095 -14520,-6713112 -14510,-6713161 -14509,-6713169 -14516,-6713187 -14561,-6713278 -14588,-6713265 -14592,-6713263 -14598,-6713261 -14645,-6713249 -14744,-6713209 -14754,-6713289 -14803,-6713325 -14871,-6713390 -14899,-6713366 -14903,-6713360 -14907,-6713358 -14911,-6713357 -14915,-6713357 -14921,-6713360 -14966,-6713429 -14952,-6713442 -15054,-6713605 -15120,-6713563 -15172,-6713643 -15251,-6713597 -15363,-6713763 -15378,-6713797 -15382,-6713803 -15387,-6713811 -15397,-6713821 -15441,-6713875 -15490,-6713942 -15560,-6714037 -15634,-6714134 -15739,-6714270 -15904,-6714490 -15926,-6714489 -15950,-6714490 -15973,-6714495 -15973,-6714503 -15973,-6714516 -15962,-6714609 -15971,-6714623 -16026,-6714635 -16047,-6714627 -16044,-6714511 -16099,-6714523 -16106,-6714523 -16122,-6714522 -16160,-6714511 -16229,-6714739 -16382,-6714698 -16686,-6715801 -16793,-6716180 -16859,-6716413 -16999,-6716931 -17075,-6716922 -17132,-6716917 -17160,-6716913 -17187,-6716908 -17223,-6716900 -17251,-6716894 -17276,-6716886 -17305,-6716875 -17346,-6716857 -17538,-6716794 -17655,-6716752 -17745,-6716724 -17746,-6716724 -17862,-6716888 -18022,-6716813 -18185,-6716731 -18211,-6716714 -18230,-6716698 -18360,-6716620 -18541,-6716820 -18703,-6716997 -18721,-6717015 -18748,-6717038 -18815,-6717091 -18839,-6717107 -18858,-6717118 -18870,-6717124 -19020,-6716980 -19142,-6717086 -19312,-6716951 -19370,-6717024 -19377,-6717036 -19380,-6717045 -19382,-6717053 -19383,-6717067 -19358,-6717281 -19566,-6717306 -19845,-6717338 -19851,-6717338 -19854,-6717338 -19875,-6717338 -19897,-6717336 -19927,-6717332 -19933,-6717331 -19958,-6717322 -20007,-6717312 -20038,-6717302 -20054,-6717296 -20081,-6717285 -20212,-6717222 -20340,-6717154 -20465,-6717085 -20488,-6717064 -20504,-6717051 -20532,-6717030 -20551,-6717009 -20558,-6716999 -20635,-6716884 -20645,-6716867 -20897,-6716486 -20907,-6716478 -20914,-6716470 -20922,-6716458 -20990,-6716408 -21011,-6716395 -21043,-6716440 -21060,-6716460 -21072,-6716478 -21083,-6716491 -21098,-6716505 -21111,-6716515 -21129,-6716528 -21193,-6716575 -21239,-6716616 -21268,-6716648 -21290,-6716678 -21306,-6716702 -21313,-6716711 -21422,-6716861 -21442,-6716891 -21565,-6717065 -21753,-6717328 -21859,-6717483 -21875,-6717505 -21892,-6717525 -21911,-6717545 -22015,-6717683 -22135,-6717843 -22194,-6717919 -22397,-6718199 -22476,-6718321 -22479,-6718326 -22564,-6718451 -22619,-6718538 -22660,-6718594 -22677,-6718620 -22735,-6718714 -22736,-6718715 -22832,-6718859 -22903,-6718967 -22966,-6719061 -23019,-6719135 -23068,-6719198 -23074,-6719210 -23103,-6719244 -23148,-6719304 -23218,-6719387 -23282,-6719457 -23347,-6719534 -23409,-6719604 -23457,-6719664 -23516,-6719736 -23533,-6719757 -23566,-6719797 -23590,-6719828 -23639,-6719905 -23651,-6719924 -23686,-6719986 -23697,-6719997 -23734,-6720052 -23759,-6720087 -23764,-6720094 -23740,-6720112 -23708,-6720135 -23653,-6720186 -23611,-6720226 -23563,-6720267 -23513,-6720297 -23468,-6720322 -23377,-6720374 -23377,-6720374 -23326,-6720303 -23322,-6720298 -23289,-6720245 -23247,-6720193 -23245,-6720191 -23188,-6720219 -23155,-6720232 -23098,-6720255 -23039,-6720277 -22984,-6720299 -22966,-6720306 -22953,-6720308 -22939,-6720311 -22928,-6720314 -22925,-6720314 -22917,-6720276 -22917,-6720264 -22918,-6720252 -22914,-6720228 -22915,-6720160 -22910,-6720139 -22908,-6720115 -22904,-6720115 -22856,-6720121 -22829,-6720126 -22815,-6720134 -22794,-6720136 -22740,-6720160 -22715,-6720170 -22700,-6720173 -22670,-6720177 -22633,-6720184 -22571,-6720198 -22467,-6720224 -22444,-6720228 -22410,-6720236 -22370,-6720250 -22322,-6720266 -22279,-6720272 -22260,-6720273 -22195,-6720274 -22201,-6720290 -22203,-6720300 -22205,-6720322 -22207,-6720329 -22217,-6720355 -22224,-6720387 -22225,-6720397 -22224,-6720406 -22223,-6720415 -22219,-6720428 -22205,-6720463 -22163,-6720547 -22155,-6720555 -22139,-6720567 -22126,-6720581 -22109,-6720604 -22103,-6720615 -22097,-6720625 -22094,-6720637 -22094,-6720643 -22094,-6720678 -22091,-6720733 -22064,-6720766 -22036,-6720797 -21996,-6720755 -21989,-6720761 -21965,-6720779 -21930,-6720796 -21906,-6720809 -21891,-6720818 -21901,-6720846 -21906,-6720882 -21909,-6720932 -21919,-6720932 -21920,-6720934 -21918,-6720962 -21916,-6721027 -21918,-6721064 -21918,-6721067 -21906,-6721066 -21899,-6721080 -21888,-6721076 -21882,-6721088 -21842,-6721075 -21829,-6721073 -21811,-6721063 -21770,-6721049 -21743,-6721041 -21713,-6721038 -21688,-6721042 -21661,-6721056 -21661,-6721073 -21656,-6721082 -21646,-6721091 -21638,-6721096 -21626,-6721103 -21624,-6721104 -21605,-6721114 -21591,-6721119 -21576,-6721111 -21569,-6721106 -21550,-6721126 -21479,-6721167 -21406,-6721231 -21342,-6721238 -21304,-6721239 -21274,-6721248 -21254,-6721261 -21233,-6721282 -21221,-6721299 -21216,-6721323 -21205,-6721381 -21193,-6721428 -21189,-6721451 -21164,-6721581 -21165,-6721627 -21163,-6721666 -21150,-6721766 -21150,-6721784 -21147,-6721797 -21140,-6721816 -21136,-6721843 -21130,-6721861 -21108,-6721896 -21091,-6721904 -21083,-6721914 -21077,-6721928 -21071,-6721936 -21064,-6721943 -21057,-6721947 -21053,-6721949 -21003,-6721954 -20968,-6721989 -20971,-6721996 -20935,-6722015 -20916,-6722029 -20904,-6722035 -20895,-6722039 -20872,-6722045 -20863,-6722048 -20857,-6722052 -20844,-6722062 -20835,-6722067 -20815,-6722113 -20789,-6722142 -20782,-6722148 -20774,-6722156 -20765,-6722163 -20756,-6722170 -20754,-6722171 -20749,-6722175 -20743,-6722179 -20738,-6722183 -20732,-6722187 -20727,-6722191 -20721,-6722195 -20715,-6722198 -20667,-6722218 -20618,-6722239 -20563,-6722253 -20501,-6722274 -20480,-6722283 -20458,-6722298 -20422,-6722346 -20448,-6722383 -20431,-6722389 -20423,-6722392 -20280,-6722508 -20272,-6722517 -20257,-6722540 -20245,-6722555 -20238,-6722560 -20225,-6722568 -20136,-6722640 -20127,-6722645 -20143,-6722687 -20118,-6722687 -20092,-6722688 -20054,-6722692 -20004,-6722708 -19933,-6722732 -19930,-6722732 -19924,-6722732 -19918,-6722733 -19912,-6722733 -19906,-6722734 -19900,-6722735 -19894,-6722736 -19889,-6722737 -19883,-6722739 -19877,-6722740 -19871,-6722742 -19866,-6722744 -19860,-6722746 -19855,-6722748 -19854,-6722748 -19853,-6722749 -19851,-6722750 -19850,-6722750 -19848,-6722751 -19846,-6722751 -19845,-6722752 -19843,-6722753 -19842,-6722754 -19840,-6722755 -19839,-6722755 -19838,-6722756 -19836,-6722757 -19835,-6722759 -19834,-6722760 -19833,-6722761 -19832,-6722763 -19831,-6722764 -19830,-6722765 -19829,-6722767 -19828,-6722768 -19827,-6722770 -19826,-6722771 -19826,-6722773 -19825,-6722774 -19824,-6722776 -19824,-6722778 -19823,-6722779 -19823,-6722781 -19823,-6722783 -19823,-6722785 -19823,-6722786 -19823,-6722788 -19823,-6722790 -19823,-6722792 -19820,-6722823 -19778,-6722795 -19776,-6722794 -19743,-6722782 -19695,-6722780 -19646,-6722758 -19588,-6722727 -19581,-6722723 -19582,-6722709 -19499,-6722667 -19495,-6722644 -19465,-6722643 -19412,-6722613 -19405,-6722622 -19395,-6722637 -19378,-6722661 -19366,-6722677 -19350,-6722696 -19350,-6722732 -19336,-6722731 -19337,-6722790 -19338,-6722823 -19328,-6722885 -19316,-6722923 -19311,-6722934 -19306,-6722943 -19304,-6722947 -19297,-6722960 -19289,-6722972 -19288,-6722975 -19280,-6722987 -19272,-6723000 -19263,-6723012 -19221,-6723048 -19177,-6723088 -19154,-6723090 -19126,-6723114 -19123,-6723127 -19110,-6723147 -19072,-6723177 -19064,-6723181 -19033,-6723199 -18977,-6723220 -18915,-6723242 -18911,-6723243 -18826,-6723257 -18748,-6723264 -18629,-6723278 -18599,-6723280 -18571,-6723278 -18542,-6723271 -18511,-6723259 -18500,-6723246" stroke="white" stroke-width="22" /></ns0:svg>    <rect x="20" y="50"  width="250" height="25"  rx="0"  fill="#E8EDEE" fill-opacity="0.8" />    <text x="145" y="70" text-anchor="middle" font-family="Frutiger" font-weight="bold" font-size="30" fill="#AE2573">Camden</text>    <rect x="35" y="195" width="220" height="160" rx="15" fill="#724F95"/>    <g font-family="Frutiger" font-size="15" fill="white">        <g> <text x="45" y="218">Self-harm</text> <text x="245" y="218" text-anchor="end">7</text> </g>        <g> <text x="45" y="243">SEN</text> <text x="245" y="243" text-anchor="end">48</text> </g>        <g> <text x="45" y="268">Difficulties</text> <text x="245" y="268" text-anchor="end">69</text> </g>        <g> <text x="45" y="293">Child Carer</text> <text x="245" y="293" text-anchor="end">26</text> </g>        <g> <text x="45" y="318">Drinkers</text> <text x="245" y="318" text-anchor="end">16</text> </g>        <g> <text x="45" y="343">Safeguarding £</text> <text x="245" y="343" text-anchor="end">36</text> </g>    </g></svg>