<?xml version="1.0" standalone="no"?>
<!DOCTYPE svg PUBLIC "-//W3C//DTD SVG 1.1//EN"
"http://www.w3.org/Graphics/SVG/1.1/DTD/svg11.dtd">
<svg height="1800" version="1.1" width="1800" xmlns="http://www.w3.org/2000/svg"><defs><style type="text/css">@font-face {font-family: 'Frutiger';font-style: normal;font-weight: normal;src: local('Frutiger'), url('../fonts/Frutiger.woff') format('woff');}@font-face {font-family: 'Frutiger Bold';font-style: normal;font-weight: normal;src: local('Frutiger Bold'), url('../fonts/Frutiger_bold.woff') format('woff');}        </style>    </defs>    <rect x="20" y="20"  width="250" height="350" rx="15" fill="#009639" />    <rect x="35" y="35"  width="220" height="145" rx="15" fill="#E8EDEE" /><ns0:svg xmlns:ns0="http://www.w3.org/2000/svg" height="115" version="1.1" viewBox="-24052 -6717338 11688 10013" width="220" x="35" y="50"><ns0:polygon fill="#006747" points=" -19370,-6717024 -19312,-6716951 -19142,-6717086 -19020,-6716980 -18870,-6717124 -18858,-6717118 -18839,-6717107 -18815,-6717091 -18748,-6717038 -18721,-6717015 -18703,-6716997 -18541,-6716820 -18360,-6716620 -18230,-6716698 -18211,-6716714 -18185,-6716731 -18022,-6716813 -17862,-6716888 -17746,-6716724 -17745,-6716724 -17655,-6716752 -17538,-6716794 -17346,-6716857 -17305,-6716875 -17276,-6716886 -17251,-6716894 -17223,-6716900 -17187,-6716908 -17160,-6716913 -17132,-6716917 -17075,-6716922 -16999,-6716931 -16859,-6716413 -16793,-6716180 -16686,-6715801 -16382,-6714698 -16229,-6714739 -16160,-6714511 -16122,-6714522 -16106,-6714523 -16099,-6714523 -16044,-6714511 -16047,-6714627 -16026,-6714635 -15971,-6714623 -15962,-6714609 -15973,-6714516 -15973,-6714503 -15973,-6714495 -15950,-6714490 -15926,-6714489 -15904,-6714490 -15739,-6714270 -15634,-6714134 -15560,-6714037 -15490,-6713942 -15441,-6713875 -15397,-6713821 -15387,-6713811 -15382,-6713803 -15378,-6713797 -15363,-6713763 -15251,-6713597 -15172,-6713643 -15120,-6713563 -15054,-6713605 -14952,-6713442 -14966,-6713429 -14921,-6713360 -14915,-6713357 -14911,-6713357 -14907,-6713358 -14903,-6713360 -14899,-6713366 -14871,-6713390 -14803,-6713325 -14754,-6713289 -14744,-6713209 -14645,-6713249 -14598,-6713261 -14592,-6713263 -14588,-6713265 -14561,-6713278 -14516,-6713187 -14509,-6713169 -14510,-6713161 -14520,-6713112 -14521,-6713095 -14517,-6713069 -14452,-6712808 -14434,-6712745 -14397,-6712630 -14370,-6712627 -14358,-6712622 -14357,-6712622 -14342,-6712614 -14286,-6712566 -14276,-6712557 -14244,-6712519 -14214,-6712492 -14201,-6712482 -14185,-6712483 -14174,-6712484 -14165,-6712487 -14154,-6712492 -14139,-6712522 -14128,-6712536 -14119,-6712546 -14097,-6712570 -14045,-6712610 -13941,-6712683 -13855,-6712750 -13798,-6712805 -13754,-6712851 -13731,-6712864 -13677,-6712927 -13589,-6712835 -13560,-6712878 -13502,-6712864 -13394,-6712830 -13299,-6712813 -13279,-6712819 -13227,-6712843 -13210,-6712851 -13206,-6712873 -13202,-6712895 -13177,-6712905 -13175,-6712906 -13090,-6712942 -13052,-6712970 -12767,-6713088 -12763,-6713078 -12671,-6712870 -12499,-6712928 -12501,-6712941 -12432,-6712955 -12430,-6712961 -12421,-6712962 -12417,-6712952 -12415,-6712942 -12399,-6712865 -12368,-6712716 -12364,-6712692 -12390,-6712685 -12462,-6712666 -12449,-6712629 -12435,-6712579 -12502,-6712550 -12488,-6712524 -12506,-6712513 -12503,-6712508 -12511,-6712503 -12487,-6712457 -12471,-6712424 -12485,-6712420 -12483,-6712415 -12482,-6712412 -12452,-6712359 -12439,-6712365 -12432,-6712357 -12416,-6712317 -12412,-6712301 -12415,-6712265 -12417,-6712243 -12418,-6712170 -12417,-6712142 -12405,-6711966 -12470,-6711959 -12545,-6711947 -12677,-6711917 -12752,-6711898 -12794,-6711884 -12832,-6711871 -12861,-6711859 -12889,-6711846 -12945,-6711820 -13009,-6711779 -13072,-6711743 -13092,-6711731 -13111,-6711721 -13139,-6711697 -13170,-6711667 -13213,-6711613 -13270,-6711545 -13317,-6711478 -13354,-6711412 -13407,-6711312 -13416,-6711294 -13430,-6711269 -13444,-6711233 -13456,-6711181 -13472,-6711117 -13478,-6711084 -13490,-6710998 -13497,-6710926 -13504,-6710879 -13514,-6710789 -13551,-6710442 -13586,-6710115 -13593,-6710038 -13607,-6709904 -13615,-6709806 -13621,-6709702 -13622,-6709592 -13626,-6709540 -13633,-6709482 -13656,-6709326 -13666,-6709278 -13670,-6709242 -13676,-6709189 -13681,-6709159 -13690,-6709090 -13698,-6709058 -13710,-6709016 -13717,-6708987 -13730,-6708945 -13740,-6708914 -13747,-6708897 -13755,-6708880 -13770,-6708857 -13779,-6708832 -13786,-6708806 -13794,-6708776 -13795,-6708748 -13794,-6708703 -13795,-6708681 -13797,-6708664 -13804,-6708646 -13821,-6708606 -13863,-6708510 -13878,-6708480 -13895,-6708450 -13915,-6708412 -13966,-6708321 -14053,-6708171 -14091,-6708102 -14108,-6708073 -14150,-6708013 -14153,-6708010 -14161,-6707998 -14178,-6707977 -14193,-6707957 -14217,-6707931 -14235,-6707909 -14268,-6707863 -14292,-6707830 -14340,-6707774 -14372,-6707737 -14391,-6707714 -14412,-6707696 -14416,-6707693 -14422,-6707689 -14443,-6707675 -14465,-6707663 -14467,-6707667 -14510,-6707647 -14547,-6707625 -14724,-6707517 -14735,-6707512 -14761,-6707499 -14779,-6707488 -14789,-6707484 -14809,-6707476 -14935,-6707438 -15041,-6707407 -15210,-6707357 -15263,-6707344 -15289,-6707339 -15336,-6707332 -15371,-6707329 -15393,-6707329 -15422,-6707326 -15463,-6707325 -15469,-6707326 -15590,-6707331 -15621,-6707334 -15641,-6707337 -15664,-6707342 -15700,-6707352 -15770,-6707372 -15864,-6707395 -15908,-6707410 -15956,-6707423 -15966,-6707426 -16045,-6707433 -16058,-6707436 -16092,-6707445 -16115,-6707454 -16129,-6707458 -16157,-6707463 -16270,-6707470 -16389,-6707474 -16445,-6707472 -16567,-6707468 -16626,-6707464 -16677,-6707458 -16695,-6707623 -16704,-6707697 -16708,-6707712 -16716,-6707732 -16736,-6707757 -16852,-6707872 -16887,-6707904 -17083,-6708105 -17242,-6708258 -17349,-6708360 -17273,-6708439 -17303,-6708511 -17315,-6708550 -17324,-6708591 -17329,-6708619 -17343,-6708690 -17231,-6708782 -17361,-6709003 -17364,-6709007 -17253,-6709120 -17364,-6709234 -17356,-6709260 -17346,-6709276 -17345,-6709277 -17338,-6709285 -17322,-6709303 -17287,-6709336 -17312,-6709385 -17322,-6709415 -17327,-6709437 -17368,-6709774 -17373,-6709819 -17501,-6709962 -17571,-6710043 -17634,-6710412 -17641,-6710434 -17643,-6710444 -17644,-6710457 -17644,-6710472 -17641,-6710490 -17637,-6710621 -17638,-6710621 -17652,-6710618 -17716,-6710595 -17873,-6710534 -17895,-6710523 -17907,-6710515 -17922,-6710503 -17940,-6710486 -17958,-6710468 -17983,-6710438 -18071,-6710303 -18097,-6710271 -18126,-6710242 -18421,-6709986 -18454,-6710083 -18659,-6709915 -18691,-6709954 -18704,-6710019 -18721,-6710039 -18745,-6710044 -18881,-6710023 -19088,-6709984 -19122,-6709970 -19122,-6709956 -19196,-6709945 -19197,-6709931 -19317,-6709915 -19318,-6709901 -19987,-6709822 -20006,-6709984 -20072,-6710480 -20138,-6710473 -20187,-6710474 -20219,-6710473 -20264,-6710478 -20302,-6710483 -20325,-6710487 -20377,-6710499 -20508,-6710540 -20525,-6710597 -20660,-6711093 -20801,-6711609 -20917,-6712039 -20987,-6712035 -21116,-6712021 -21252,-6712011 -21339,-6711996 -21386,-6711984 -21480,-6712332 -21554,-6712310 -21600,-6712321 -21634,-6712492 -21712,-6712907 -21790,-6712894 -22173,-6712821 -22249,-6713219 -22255,-6713232 -22344,-6713434 -22426,-6713402 -22526,-6713590 -22591,-6713702 -22618,-6713754 -22626,-6713772 -22628,-6713785 -22634,-6713808 -22641,-6713843 -22645,-6713850 -22659,-6713877 -22674,-6713898 -22680,-6713908 -22675,-6713910 -22650,-6713923 -22607,-6713942 -22558,-6713957 -22508,-6713955 -22458,-6713950 -22433,-6713948 -22399,-6713946 -22346,-6713943 -22347,-6713923 -22331,-6713923 -22332,-6713938 -22387,-6714057 -22426,-6714142 -22431,-6714151 -22431,-6714161 -22434,-6714216 -22442,-6714264 -22443,-6714287 -22548,-6714336 -22561,-6714342 -22573,-6714347 -22597,-6714356 -22657,-6714390 -22693,-6714415 -22714,-6714442 -22747,-6714483 -22766,-6714521 -22822,-6714640 -22838,-6714678 -22872,-6714744 -22894,-6714786 -22918,-6714823 -22948,-6714859 -22985,-6714881 -23009,-6714892 -23037,-6714903 -23076,-6714912 -23078,-6714913 -23108,-6714916 -23132,-6714920 -23159,-6714924 -23178,-6714926 -23244,-6714946 -23287,-6714960 -23327,-6714973 -23373,-6714985 -23405,-6714992 -23514,-6715005 -23592,-6715015 -23674,-6715025 -23743,-6715030 -23792,-6715026 -23886,-6715013 -23938,-6715006 -23986,-6714999 -23994,-6714998 -24006,-6715033 -24023,-6715095 -24029,-6715121 -24033,-6715138 -24033,-6715154 -24031,-6715166 -24030,-6715171 -24021,-6715197 -24045,-6715215 -24052,-6715384 -24050,-6715419 -24046,-6715452 -24036,-6715507 -24029,-6715536 -24025,-6715538 -24007,-6715545 -23993,-6715549 -23983,-6715557 -23972,-6715564 -23965,-6715570 -23960,-6715577 -23956,-6715584 -23950,-6715598 -23945,-6715616 -23942,-6715632 -23941,-6715646 -23942,-6715656 -23949,-6715686 -23963,-6715762 -23967,-6715778 -23971,-6715799 -23971,-6715809 -23970,-6715816 -23967,-6715822 -23964,-6715826 -23960,-6715829 -23954,-6715834 -23896,-6715857 -23840,-6715870 -23824,-6715874 -23799,-6715881 -23778,-6715888 -23738,-6715901 -23715,-6715903 -23687,-6715905 -23670,-6715907 -23625,-6715909 -23567,-6715915 -23530,-6715926 -23491,-6715936 -23468,-6715945 -23394,-6715981 -23385,-6715986 -23339,-6716010 -23300,-6716028 -23258,-6716044 -23227,-6716057 -23145,-6716082 -23112,-6716090 -23077,-6716093 -23052,-6716094 -23017,-6716096 -22996,-6716097 -22957,-6716104 -22914,-6716109 -22876,-6716113 -22852,-6716114 -22773,-6716112 -22712,-6716107 -22661,-6716102 -22624,-6716101 -22603,-6716104 -22594,-6716105 -22578,-6716097 -22550,-6716083 -22516,-6716064 -22487,-6716051 -22470,-6716045 -22449,-6716043 -22433,-6716014 -22425,-6715997 -22420,-6715983 -22416,-6715971 -22405,-6715951 -22384,-6715927 -22373,-6715918 -22361,-6715908 -22336,-6715889 -22311,-6715875 -22243,-6715829 -22212,-6715807 -22195,-6715791 -22186,-6715780 -22169,-6715763 -22151,-6715753 -22134,-6715738 -22123,-6715727 -22114,-6715717 -22104,-6715704 -22071,-6715665 -22062,-6715652 -22037,-6715607 -22035,-6715599 -22031,-6715574 -22030,-6715516 -22038,-6715435 -22038,-6715426 -22035,-6715409 -22033,-6715380 -22035,-6715365 -22038,-6715357 -22046,-6715338 -22032,-6715293 -22016,-6715210 -21982,-6715201 -21954,-6715215 -21947,-6715217 -21941,-6715218 -21929,-6715217 -21919,-6715214 -21910,-6715202 -21910,-6715180 -21879,-6715166 -21878,-6715174 -21874,-6715180 -21861,-6715211 -21782,-6715362 -21624,-6715668 -21539,-6715830 -21509,-6715887 -21497,-6715910 -21469,-6715967 -21444,-6716026 -21432,-6716056 -21416,-6716103 -21413,-6716123 -21412,-6716160 -21413,-6716168 -21415,-6716176 -21456,-6716241 -21485,-6716299 -21480,-6716313 -21313,-6716711 -21306,-6716702 -21290,-6716678 -21268,-6716648 -21239,-6716616 -21193,-6716575 -21129,-6716528 -21111,-6716515 -21098,-6716505 -21083,-6716491 -21072,-6716478 -21060,-6716460 -21043,-6716440 -21011,-6716395 -20990,-6716408 -20922,-6716458 -20914,-6716470 -20907,-6716478 -20897,-6716486 -20645,-6716867 -20635,-6716884 -20558,-6716999 -20551,-6717009 -20532,-6717030 -20504,-6717051 -20488,-6717064 -20465,-6717085 -20340,-6717154 -20212,-6717222 -20081,-6717285 -20054,-6717296 -20038,-6717302 -20007,-6717312 -19958,-6717322 -19933,-6717331 -19927,-6717332 -19897,-6717336 -19875,-6717338 -19854,-6717338 -19851,-6717338 -19845,-6717338 -19566,-6717306 -19358,-6717281 -19383,-6717067 -19382,-6717053 -19380,-6717045 -19377,-6717036 -19370,-6717024" stroke="#006747" stroke-width="21" /></ns0:svg>    <rect x="20" y="50"  width="250" height="25"  rx="0"  fill="#006747" fill-opacity="0.8" />    <text x="145" y="70" text-anchor="middle" font-family="Frutiger" font-weight="bold" font-size="30" fill="white">Westminster</text>    <rect x="35" y="195" width="220" height="160" rx="15" fill="#78BE20"/>    <g font-family="Frutiger" font-size="15" fill="#231F20">        <g> <text x="45" y="218">Self-harm</text> <text x="245" y="218" text-anchor="end">3</text> </g>        <g> <text x="45" y="243">SEN</text> <text x="245" y="243" text-anchor="end">65</text> </g>        <g> <text x="45" y="268">Difficulties</text> <text x="245" y="268" text-anchor="end">62</text> </g>        <g> <text x="45" y="293">Child Carer</text> <text x="245" y="293" text-anchor="end">28</text> </g>        <g> <text x="45" y="318">Drinkers</text> <text x="245" y="318" text-anchor="end">4</text> </g>        <g> <text x="45" y="343">Safeguarding £</text> <text x="245" y="343" text-anchor="end">39</text> </g>    </g></svg>