<?xml version="1.0" standalone="no"?>
<!DOCTYPE svg PUBLIC "-//W3C//DTD SVG 1.1//EN"
"http://www.w3.org/Graphics/SVG/1.1/DTD/svg11.dtd">
<svg height="1800" version="1.1" width="1800" xmlns="http://www.w3.org/2000/svg"><defs><style type="text/css">@font-face {font-family: 'Frutiger';font-style: normal;font-weight: normal;src: local('Frutiger'), url('../fonts/Frutiger.woff') format('woff');}@font-face {font-family: 'Frutiger Bold';font-style: normal;font-weight: normal;src: local('Frutiger Bold'), url('../fonts/Frutiger_bold.woff') format('woff');}        </style>    </defs>    <rect x="20" y="20"  width="250" height="350" rx="15" fill="#009639" />    <rect x="35" y="35"  width="220" height="145" rx="15" fill="#E8EDEE" /><ns0:svg xmlns:ns0="http://www.w3.org/2000/svg" height="115" version="1.1" viewBox="-37354 -6728187 16041 13021" width="220" x="35" y="50"><ns0:polygon fill="#006747" points=" -29470,-6727795 -29416,-6727723 -29371,-6727667 -29340,-6727632 -29316,-6727605 -29238,-6727511 -29207,-6727471 -29152,-6727399 -29011,-6727209 -28914,-6727077 -28745,-6726825 -28722,-6726791 -28683,-6726733 -28653,-6726692 -28609,-6726644 -28453,-6726455 -28357,-6726340 -28302,-6726291 -28266,-6726253 -28264,-6726251 -28204,-6726187 -28175,-6726157 -28109,-6726068 -28042,-6725960 -27866,-6725681 -27825,-6725621 -27663,-6725357 -27636,-6725319 -27645,-6725308 -27660,-6725299 -27819,-6725235 -27869,-6725218 -27918,-6725200 -27983,-6725178 -28012,-6725157 -28054,-6725084 -28083,-6725038 -28096,-6725021 -28109,-6725007 -28148,-6724973 -28176,-6724949 -28184,-6724945 -28207,-6724937 -28221,-6724930 -28238,-6724918 -28253,-6724904 -28272,-6724881 -28286,-6724861 -28309,-6724821 -28314,-6724808 -28316,-6724800 -28316,-6724787 -28311,-6724754 -28309,-6724737 -28307,-6724703 -28307,-6724686 -28307,-6724645 -28309,-6724610 -28313,-6724580 -28320,-6724547 -28326,-6724527 -28337,-6724502 -28340,-6724491 -28342,-6724479 -28342,-6724466 -28340,-6724446 -28324,-6724356 -28318,-6724330 -28299,-6724262 -28283,-6724192 -28281,-6724183 -28266,-6724145 -28233,-6724071 -28227,-6724057 -28224,-6724049 -28208,-6724002 -28200,-6723972 -28187,-6723916 -28153,-6723772 -28140,-6723733 -28137,-6723722 -28129,-6723666 -28119,-6723628 -28089,-6723546 -28064,-6723485 -28045,-6723444 -28030,-6723412 -27987,-6723333 -27979,-6723316 -27977,-6723308 -27979,-6723298 -27981,-6723291 -27986,-6723285 -27993,-6723278 -28016,-6723260 -28034,-6723251 -28062,-6723241 -28084,-6723235 -28107,-6723231 -28121,-6723228 -28148,-6723228 -28157,-6723226 -28163,-6723222 -28166,-6723218 -28172,-6723208 -28175,-6723195 -28175,-6723183 -28172,-6723171 -28170,-6723166 -28165,-6723157 -28145,-6723099 -28123,-6723049 -28106,-6723016 -28058,-6722976 -28039,-6722958 -28024,-6722945 -28022,-6722941 -28006,-6722909 -27995,-6722882 -27980,-6722854 -27974,-6722830 -27969,-6722818 -27961,-6722804 -27955,-6722794 -27912,-6722766 -27882,-6722719 -27851,-6722669 -27830,-6722637 -27828,-6722633 -27803,-6722596 -27790,-6722583 -27780,-6722572 -27770,-6722562 -27763,-6722550 -27752,-6722544 -27735,-6722542 -27722,-6722530 -27715,-6722525 -27699,-6722512 -27690,-6722499 -27683,-6722486 -27670,-6722484 -27665,-6722483 -27629,-6722506 -27613,-6722499 -27589,-6722480 -27561,-6722473 -27527,-6722471 -27508,-6722480 -27497,-6722492 -27495,-6722500 -27502,-6722510 -27509,-6722519 -27524,-6722534 -27531,-6722544 -27536,-6722554 -27536,-6722559 -27535,-6722562 -27534,-6722563 -27514,-6722575 -27496,-6722570 -27477,-6722564 -27452,-6722564 -27449,-6722567 -27443,-6722573 -27440,-6722579 -27444,-6722600 -27452,-6722613 -27452,-6722619 -27450,-6722625 -27447,-6722629 -27435,-6722644 -27400,-6722676 -27393,-6722695 -27389,-6722707 -27388,-6722717 -27387,-6722728 -27388,-6722733 -27389,-6722736 -27391,-6722737 -27394,-6722738 -27402,-6722740 -27410,-6722738 -27422,-6722733 -27437,-6722713 -27444,-6722722 -27445,-6722750 -27439,-6722778 -27437,-6722821 -27433,-6722838 -27424,-6722856 -27384,-6722907 -27382,-6722913 -27382,-6722918 -27384,-6722923 -27397,-6722942 -27412,-6722955 -27434,-6722970 -27442,-6722979 -27462,-6723011 -27462,-6723014 -27463,-6723018 -27463,-6723022 -27461,-6723027 -27456,-6723036 -27451,-6723041 -27425,-6723062 -27394,-6723125 -27391,-6723132 -27389,-6723136 -27386,-6723138 -27381,-6723140 -27374,-6723140 -27367,-6723138 -27361,-6723135 -27358,-6723132 -27356,-6723129 -27343,-6723110 -27321,-6723090 -27297,-6723089 -27281,-6723096 -27259,-6723112 -27244,-6723135 -27231,-6723146 -27217,-6723156 -27213,-6723159 -27210,-6723168 -27208,-6723183 -27202,-6723197 -27196,-6723203 -27191,-6723206 -27184,-6723207 -27179,-6723206 -27176,-6723205 -27173,-6723202 -27170,-6723180 -27171,-6723168 -27171,-6723168 -27163,-6723162 -27150,-6723159 -27119,-6723163 -27089,-6723175 -27071,-6723184 -27048,-6723194 -27044,-6723196 -27038,-6723197 -27033,-6723197 -27024,-6723196 -27005,-6723191 -26991,-6723192 -26983,-6723200 -26983,-6723206 -26984,-6723213 -26987,-6723217 -26990,-6723220 -27001,-6723226 -27003,-6723228 -27004,-6723232 -27003,-6723235 -27002,-6723237 -26998,-6723242 -26991,-6723247 -26978,-6723248 -26960,-6723245 -26952,-6723246 -26938,-6723249 -26907,-6723239 -26880,-6723235 -26870,-6723226 -26869,-6723225 -26866,-6723222 -26865,-6723218 -26864,-6723211 -26867,-6723189 -26866,-6723177 -26863,-6723158 -26855,-6723144 -26848,-6723134 -26837,-6723125 -26820,-6723129 -26810,-6723158 -26801,-6723166 -26793,-6723167 -26790,-6723164 -26783,-6723158 -26786,-6723139 -26778,-6723138 -26776,-6723138 -26771,-6723143 -26765,-6723156 -26750,-6723168 -26729,-6723174 -26722,-6723175 -26715,-6723175 -26710,-6723174 -26707,-6723173 -26704,-6723170 -26703,-6723167 -26703,-6723163 -26710,-6723155 -26720,-6723137 -26722,-6723126 -26713,-6723120 -26703,-6723117 -26692,-6723120 -26685,-6723121 -26675,-6723123 -26651,-6723117 -26625,-6723120 -26608,-6723143 -26587,-6723150 -26569,-6723130 -26545,-6723101 -26540,-6723095 -26533,-6723088 -26510,-6723067 -26506,-6723065 -26500,-6723063 -26492,-6723063 -26485,-6723064 -26480,-6723066 -26474,-6723071 -26473,-6723074 -26472,-6723078 -26473,-6723082 -26478,-6723087 -26506,-6723105 -26511,-6723111 -26511,-6723114 -26511,-6723119 -26510,-6723122 -26507,-6723126 -26505,-6723127 -26501,-6723127 -26486,-6723122 -26466,-6723120 -26463,-6723122 -26460,-6723126 -26452,-6723145 -26451,-6723153 -26454,-6723158 -26464,-6723167 -26466,-6723170 -26467,-6723173 -26466,-6723176 -26464,-6723180 -26461,-6723184 -26453,-6723189 -26446,-6723191 -26442,-6723191 -26438,-6723189 -26423,-6723180 -26402,-6723170 -26399,-6723170 -26385,-6723171 -26338,-6723183 -26330,-6723184 -26322,-6723183 -26308,-6723182 -26286,-6723169 -26270,-6723160 -26259,-6723160 -26256,-6723160 -26253,-6723161 -26251,-6723167 -26252,-6723175 -26259,-6723182 -26256,-6723191 -26250,-6723198 -26247,-6723200 -26241,-6723203 -26226,-6723205 -26221,-6723205 -26201,-6723206 -26199,-6723204 -26197,-6723200 -26196,-6723195 -26196,-6723188 -26198,-6723183 -26202,-6723179 -26223,-6723173 -26233,-6723168 -26234,-6723159 -26229,-6723152 -26215,-6723149 -26212,-6723150 -26195,-6723152 -26183,-6723151 -26176,-6723147 -26168,-6723143 -26164,-6723133 -26158,-6723124 -26157,-6723121 -26154,-6723118 -26125,-6723098 -26120,-6723072 -26111,-6723063 -26102,-6723064 -26096,-6723065 -26091,-6723067 -26085,-6723076 -26075,-6723068 -26067,-6723065 -26051,-6723059 -26032,-6723068 -26018,-6723080 -25983,-6723101 -25849,-6722917 -25810,-6722859 -25748,-6722779 -25703,-6722716 -25661,-6722666 -25619,-6722605 -25579,-6722555 -25531,-6722483 -25482,-6722401 -25469,-6722382 -25449,-6722359 -25422,-6722335 -25381,-6722304 -25348,-6722276 -25287,-6722219 -25254,-6722192 -25235,-6722172 -25202,-6722131 -25149,-6722069 -25122,-6722037 -25098,-6722006 -25064,-6721955 -25052,-6721938 -25001,-6721879 -24944,-6721800 -24869,-6721694 -24785,-6721587 -24753,-6721546 -24705,-6721482 -24660,-6721412 -24621,-6721355 -24561,-6721255 -24552,-6721242 -24522,-6721186 -24412,-6720977 -24378,-6720918 -24337,-6720851 -24300,-6720799 -24239,-6720717 -24172,-6720634 -24147,-6720597 -24126,-6720565 -24099,-6720532 -24061,-6720488 -23986,-6720391 -23972,-6720373 -23914,-6720301 -23851,-6720217 -23790,-6720132 -23764,-6720094 -23759,-6720087 -23734,-6720052 -23697,-6719997 -23686,-6719986 -23651,-6719924 -23639,-6719905 -23590,-6719828 -23566,-6719797 -23533,-6719757 -23516,-6719736 -23457,-6719664 -23409,-6719604 -23347,-6719534 -23282,-6719457 -23218,-6719387 -23148,-6719304 -23103,-6719244 -23074,-6719210 -23068,-6719198 -23019,-6719135 -22966,-6719061 -22903,-6718967 -22832,-6718859 -22736,-6718715 -22735,-6718714 -22677,-6718620 -22660,-6718594 -22619,-6718538 -22564,-6718451 -22479,-6718326 -22476,-6718321 -22397,-6718199 -22194,-6717919 -22135,-6717843 -22015,-6717683 -21911,-6717545 -21892,-6717525 -21875,-6717505 -21859,-6717483 -21753,-6717328 -21565,-6717065 -21442,-6716891 -21422,-6716861 -21313,-6716711 -21480,-6716313 -21485,-6716299 -21456,-6716241 -21415,-6716176 -21413,-6716168 -21412,-6716160 -21413,-6716123 -21416,-6716103 -21432,-6716056 -21444,-6716026 -21469,-6715967 -21497,-6715910 -21509,-6715887 -21539,-6715830 -21624,-6715668 -21782,-6715362 -21861,-6715211 -21874,-6715180 -21878,-6715174 -21879,-6715166 -21910,-6715180 -21910,-6715202 -21919,-6715214 -21929,-6715217 -21941,-6715218 -21947,-6715217 -21954,-6715215 -21982,-6715201 -22016,-6715210 -22032,-6715293 -22046,-6715338 -22038,-6715357 -22035,-6715365 -22033,-6715380 -22035,-6715409 -22038,-6715426 -22038,-6715435 -22030,-6715516 -22031,-6715574 -22035,-6715599 -22037,-6715607 -22062,-6715652 -22071,-6715665 -22104,-6715704 -22114,-6715717 -22123,-6715727 -22134,-6715738 -22151,-6715753 -22169,-6715763 -22186,-6715780 -22195,-6715791 -22212,-6715807 -22243,-6715829 -22311,-6715875 -22336,-6715889 -22361,-6715908 -22373,-6715918 -22384,-6715927 -22405,-6715951 -22416,-6715971 -22420,-6715983 -22425,-6715997 -22433,-6716014 -22449,-6716043 -22470,-6716045 -22487,-6716051 -22516,-6716064 -22550,-6716083 -22578,-6716097 -22594,-6716105 -22603,-6716104 -22624,-6716101 -22661,-6716102 -22712,-6716107 -22773,-6716112 -22852,-6716114 -22876,-6716113 -22914,-6716109 -22957,-6716104 -22996,-6716097 -23017,-6716096 -23052,-6716094 -23077,-6716093 -23112,-6716090 -23145,-6716082 -23227,-6716057 -23258,-6716044 -23300,-6716028 -23339,-6716010 -23385,-6715986 -23394,-6715981 -23468,-6715945 -23491,-6715936 -23530,-6715926 -23567,-6715915 -23625,-6715909 -23670,-6715907 -23687,-6715905 -23715,-6715903 -23738,-6715901 -23778,-6715888 -23799,-6715881 -23824,-6715874 -23840,-6715870 -23896,-6715857 -23954,-6715834 -23960,-6715829 -23964,-6715826 -23967,-6715822 -23970,-6715816 -23971,-6715809 -23971,-6715799 -23967,-6715778 -23963,-6715762 -23949,-6715686 -23942,-6715656 -23941,-6715646 -23942,-6715632 -23945,-6715616 -23950,-6715598 -23956,-6715584 -23960,-6715577 -23965,-6715570 -23972,-6715564 -23983,-6715557 -23993,-6715549 -24007,-6715545 -24025,-6715538 -24029,-6715536 -24036,-6715507 -24046,-6715452 -24050,-6715419 -24052,-6715384 -24045,-6715215 -24085,-6715242 -24116,-6715264 -24161,-6715293 -24190,-6715309 -24262,-6715342 -24293,-6715355 -24344,-6715371 -24382,-6715380 -24433,-6715395 -24567,-6715431 -24599,-6715440 -24657,-6715456 -24674,-6715463 -24699,-6715472 -24743,-6715496 -24784,-6715520 -24801,-6715529 -24831,-6715545 -24864,-6715561 -24892,-6715572 -24911,-6715579 -24965,-6715593 -24999,-6715600 -25046,-6715610 -25093,-6715616 -25095,-6715592 -25095,-6715589 -25177,-6715584 -25235,-6715582 -25343,-6715571 -25342,-6715572 -25332,-6715613 -25332,-6715613 -25346,-6715615 -25361,-6715618 -25379,-6715623 -25396,-6715628 -25419,-6715639 -25434,-6715648 -25457,-6715669 -25468,-6715660 -25511,-6715675 -25537,-6715683 -25591,-6715708 -25609,-6715716 -25653,-6715735 -25683,-6715740 -25723,-6715762 -25755,-6715780 -25780,-6715796 -25862,-6715857 -25929,-6715910 -25962,-6715944 -26030,-6716004 -26067,-6716038 -26070,-6716041 -26093,-6716057 -26116,-6716050 -26167,-6716032 -26168,-6716031 -26200,-6716022 -26207,-6716019 -26322,-6715983 -26357,-6715971 -26419,-6715947 -26554,-6715936 -26630,-6715939 -26643,-6715939 -26657,-6715938 -26728,-6715935 -26769,-6715931 -26818,-6715921 -26836,-6715919 -26948,-6715908 -27073,-6715904 -27095,-6715905 -27105,-6715907 -27120,-6715912 -27151,-6715929 -27215,-6715959 -27243,-6715974 -27386,-6716056 -27405,-6716068 -27416,-6716078 -27425,-6716086 -27439,-6716101 -27468,-6716145 -27506,-6716198 -27510,-6716201 -27510,-6716201 -27518,-6716206 -27533,-6716214 -27566,-6716229 -27606,-6716242 -27718,-6716276 -27913,-6716334 -27930,-6716285 -27939,-6716284 -27954,-6716282 -27966,-6716283 -27978,-6716284 -27989,-6716286 -28001,-6716290 -28027,-6716302 -28029,-6716303 -28053,-6716318 -28059,-6716321 -28068,-6716324 -28087,-6716327 -28145,-6716324 -28276,-6716315 -28414,-6716305 -28458,-6716299 -28500,-6716293 -28510,-6716362 -28512,-6716371 -28513,-6716380 -28515,-6716389 -28517,-6716398 -28519,-6716407 -28521,-6716416 -28524,-6716424 -28527,-6716433 -28528,-6716435 -28530,-6716439 -28532,-6716442 -28535,-6716446 -28537,-6716449 -28539,-6716453 -28539,-6716454 -28541,-6716458 -28542,-6716462 -28544,-6716466 -28545,-6716469 -28554,-6716472 -28630,-6716503 -28647,-6716513 -28696,-6716540 -28722,-6716519 -28729,-6716515 -28768,-6716493 -28902,-6716429 -28954,-6716407 -28975,-6716391 -28988,-6716397 -29001,-6716366 -29010,-6716356 -29077,-6716289 -29171,-6716198 -29264,-6716110 -29316,-6716064 -29371,-6716031 -29434,-6715997 -29435,-6715996 -29480,-6715976 -29469,-6715941 -29470,-6715939 -29470,-6715936 -29471,-6715933 -29471,-6715929 -29472,-6715926 -29472,-6715925 -29479,-6715897 -29479,-6715896 -29479,-6715895 -29479,-6715893 -29479,-6715892 -29479,-6715891 -29479,-6715889 -29479,-6715888 -29479,-6715887 -29480,-6715885 -29480,-6715884 -29480,-6715883 -29481,-6715882 -29481,-6715881 -29482,-6715880 -29483,-6715878 -29484,-6715877 -29484,-6715876 -29485,-6715875 -29486,-6715874 -29487,-6715873 -29488,-6715872 -29489,-6715871 -29502,-6715850 -29507,-6715844 -29512,-6715837 -29517,-6715831 -29523,-6715824 -29528,-6715818 -29534,-6715812 -29537,-6715810 -29621,-6715730 -29676,-6715677 -29716,-6715650 -29778,-6715613 -29817,-6715598 -29851,-6715587 -29919,-6715578 -29911,-6715560 -29909,-6715555 -29944,-6715538 -29958,-6715536 -29969,-6715541 -29985,-6715556 -30017,-6715586 -30100,-6715543 -30119,-6715593 -30216,-6715575 -30307,-6715557 -30449,-6715529 -30646,-6715490 -30854,-6715448 -31039,-6715372 -31052,-6715358 -31065,-6715347 -31083,-6715358 -31120,-6715330 -31137,-6715327 -31182,-6715310 -31194,-6715306 -31220,-6715300 -31237,-6715309 -31403,-6715355 -31440,-6715365 -31498,-6715379 -31540,-6715394 -31633,-6715417 -31641,-6715408 -31640,-6715392 -31807,-6715438 -31847,-6715502 -31875,-6715529 -31944,-6715594 -32012,-6715669 -32078,-6715736 -32143,-6715798 -32177,-6715842 -32211,-6715884 -32101,-6715948 -31981,-6716008 -31888,-6716060 -31825,-6716089 -31816,-6716098 -31810,-6716106 -31804,-6716116 -31798,-6716134 -31756,-6716137 -31633,-6716206 -31616,-6716215 -31560,-6716090 -31420,-6716136 -31345,-6716161 -31334,-6716165 -31281,-6716063 -31272,-6716046 -31194,-6716083 -31140,-6716104 -31086,-6716132 -31056,-6716159 -31044,-6716181 -31032,-6716219 -31020,-6716258 -31010,-6716308 -30996,-6716402 -30961,-6716400 -30960,-6716405 -30951,-6716467 -30940,-6716473 -30931,-6716478 -30921,-6716493 -30943,-6716502 -30968,-6716520 -30994,-6716544 -31018,-6716570 -31038,-6716597 -31074,-6716640 -31134,-6716718 -31225,-6716845 -31345,-6716999 -31431,-6717118 -31443,-6717136 -31452,-6717129 -31475,-6717110 -31630,-6716993 -31738,-6716910 -31802,-6716865 -31918,-6716794 -32140,-6716677 -32301,-6716621 -32320,-6716612 -32509,-6716532 -32518,-6716529 -32604,-6716494 -32646,-6716475 -32672,-6716468 -32766,-6716483 -32841,-6716463 -32849,-6716461 -32855,-6716461 -32861,-6716462 -32867,-6716463 -32877,-6716470 -32881,-6716474 -32913,-6716523 -32923,-6716532 -32928,-6716534 -32934,-6716536 -32943,-6716538 -32954,-6716538 -32967,-6716537 -32981,-6716535 -32992,-6716532 -33013,-6716523 -33028,-6716515 -33045,-6716504 -33059,-6716494 -33072,-6716481 -33081,-6716472 -33095,-6716455 -33135,-6716383 -33180,-6716331 -33226,-6716279 -33343,-6716167 -33440,-6716093 -33553,-6716018 -33675,-6715967 -33697,-6715940 -33921,-6716027 -34067,-6716076 -34215,-6716128 -34224,-6716131 -34228,-6716134 -34219,-6716143 -34215,-6716147 -34198,-6716166 -34190,-6716189 -34181,-6716214 -34170,-6716234 -34151,-6716246 -34119,-6716257 -34109,-6716263 -34103,-6716270 -34098,-6716289 -34089,-6716342 -34082,-6716407 -34071,-6716480 -34064,-6716560 -34057,-6716659 -34056,-6716673 -34048,-6716788 -34049,-6716900 -34048,-6716952 -34059,-6717227 -34057,-6717273 -33925,-6717346 -33921,-6717349 -33919,-6717350 -33953,-6717397 -34008,-6717457 -34052,-6717510 -34099,-6717566 -34168,-6717681 -34179,-6717699 -34245,-6717804 -34347,-6717955 -34338,-6717960 -34335,-6717975 -34321,-6718003 -34307,-6718039 -34288,-6718097 -34283,-6718168 -34290,-6718183 -34336,-6718246 -34383,-6718263 -34382,-6718309 -34290,-6718312 -34204,-6718314 -34197,-6718316 -34194,-6718319 -34191,-6718322 -34186,-6718328 -34191,-6718336 -34202,-6718355 -34250,-6718424 -34303,-6718487 -34350,-6718529 -34441,-6718598 -34468,-6718616 -34483,-6718625 -34642,-6718703 -34650,-6718707 -34658,-6718714 -34672,-6718728 -34699,-6718763 -34723,-6718795 -34740,-6718826 -34755,-6718866 -34771,-6718913 -34787,-6718969 -34795,-6719013 -34819,-6719038 -34926,-6719129 -35001,-6719187 -35011,-6719175 -35154,-6719278 -35243,-6719339 -35237,-6719353 -35327,-6719418 -35358,-6719439 -35372,-6719454 -35394,-6719457 -35438,-6719487 -35514,-6719533 -35584,-6719573 -35674,-6719625 -35763,-6719678 -35841,-6719721 -35871,-6719740 -35928,-6719777 -36058,-6719854 -36148,-6719906 -36241,-6719966 -36301,-6720006 -36401,-6720062 -36506,-6720113 -36582,-6720135 -36666,-6720154 -36779,-6720179 -36888,-6720204 -36981,-6720229 -37090,-6720263 -37191,-6720292 -37195,-6720287 -37197,-6720283 -37200,-6720279 -37204,-6720274 -37259,-6720304 -37354,-6720343 -37350,-6720362 -37279,-6720567 -37175,-6720545 -37177,-6720596 -37180,-6720663 -37169,-6720754 -37113,-6720843 -37026,-6720971 -36939,-6721102 -36955,-6721123 -36868,-6721217 -36891,-6721228 -36880,-6721237 -36729,-6721364 -36719,-6721371 -36709,-6721378 -36698,-6721384 -36681,-6721389 -36643,-6721396 -36626,-6721397 -36593,-6721396 -36538,-6721405 -36546,-6721445 -36574,-6721494 -36547,-6721542 -36570,-6721694 -36576,-6721841 -36584,-6722019 -36629,-6722028 -36693,-6722068 -36697,-6722147 -36704,-6722224 -36653,-6722236 -36591,-6722259 -36454,-6722309 -36471,-6722351 -36370,-6722370 -36307,-6722376 -36265,-6722398 -36184,-6722434 -36195,-6722467 -36118,-6722505 -36042,-6722550 -35943,-6722625 -35859,-6722684 -35900,-6722765 -35946,-6722876 -36017,-6723024 -36077,-6723162 -36147,-6723314 -36157,-6723351 -36163,-6723375 -36167,-6723399 -36173,-6723445 -36175,-6723479 -36218,-6723797 -36224,-6723828 -36237,-6723877 -36277,-6723990 -36321,-6724119 -36342,-6724183 -36352,-6724221 -36356,-6724233 -36361,-6724265 -36366,-6724300 -36362,-6724317 -36207,-6724357 -36000,-6724429 -35735,-6724563 -35698,-6724583 -35643,-6724615 -35597,-6724646 -35537,-6724691 -35485,-6724732 -35295,-6724914 -34984,-6725194 -34908,-6725256 -34882,-6725276 -34848,-6725301 -34702,-6725395 -34571,-6725474 -34324,-6725612 -34154,-6725710 -34113,-6725729 -34071,-6725752 -34048,-6725763 -34036,-6725769 -33992,-6725784 -33985,-6725787 -33932,-6725801 -33848,-6725820 -33791,-6725830 -33734,-6725838 -33684,-6725841 -33631,-6725842 -33622,-6725841 -33525,-6725838 -33481,-6725834 -33448,-6725828 -33417,-6725819 -33400,-6725813 -33313,-6725778 -33238,-6725758 -33207,-6725753 -33189,-6725751 -33151,-6725752 -32915,-6725737 -32760,-6725717 -32514,-6725670 -32170,-6725601 -31619,-6725486 -31441,-6725442 -31440,-6725450 -31439,-6725452 -31437,-6725451 -31427,-6725448 -31425,-6725473 -31419,-6725565 -31423,-6725588 -31426,-6725603 -31430,-6725616 -31437,-6725635 -31451,-6725664 -31486,-6725743 -31506,-6725869 -31509,-6725935 -31514,-6725972 -31527,-6726033 -31541,-6726129 -31595,-6726304 -31611,-6726372 -31645,-6726432 -31660,-6726463 -31672,-6726487 -31684,-6726510 -31713,-6726555 -31741,-6726592 -31755,-6726609 -31774,-6726629 -31798,-6726652 -31824,-6726675 -31850,-6726696 -31878,-6726717 -31902,-6726735 -31923,-6726748 -31945,-6726760 -31981,-6726776 -32008,-6726787 -32106,-6726817 -32138,-6726830 -32178,-6726850 -32201,-6726863 -32222,-6726877 -32241,-6726890 -32268,-6726910 -32326,-6726968 -32320,-6726974 -32291,-6726999 -32249,-6727021 -32208,-6727039 -32182,-6727049 -32094,-6727078 -32057,-6727093 -32022,-6727102 -31959,-6727142 -31919,-6727173 -31914,-6727177 -31866,-6727215 -31849,-6727204 -31827,-6727190 -31812,-6727180 -31808,-6727193 -31791,-6727261 -31780,-6727267 -31767,-6727274 -31717,-6727293 -31677,-6727308 -31619,-6727333 -31537,-6727359 -31462,-6727375 -31363,-6727397 -31320,-6727409 -31096,-6727445 -31094,-6727445 -30778,-6727496 -30830,-6727564 -30679,-6727661 -30514,-6727757 -30513,-6727758 -30502,-6727766 -30490,-6727774 -30478,-6727781 -30466,-6727789 -30454,-6727795 -30442,-6727802 -30430,-6727808 -30426,-6727810 -30422,-6727812 -30413,-6727817 -30409,-6727819 -30404,-6727821 -30400,-6727823 -30396,-6727825 -30392,-6727827 -30387,-6727829 -30383,-6727831 -30378,-6727832 -30374,-6727834 -30369,-6727835 -30364,-6727836 -30356,-6727837 -30347,-6727837 -30338,-6727837 -30329,-6727837 -30320,-6727836 -30311,-6727835 -30304,-6727835 -30295,-6727834 -30286,-6727832 -30277,-6727831 -30235,-6727820 -30234,-6727819 -30232,-6727818 -30230,-6727817 -30228,-6727816 -30226,-6727815 -30223,-6727814 -30221,-6727814 -30219,-6727813 -30217,-6727813 -30214,-6727812 -30212,-6727812 -30210,-6727812 -30208,-6727812 -30206,-6727812 -30204,-6727812 -30202,-6727812 -30201,-6727812 -30199,-6727812 -30197,-6727812 -30195,-6727813 -30193,-6727813 -30191,-6727813 -30189,-6727814 -30188,-6727814 -30180,-6727819 -30166,-6727831 -30164,-6727832 -30149,-6727843 -30127,-6727866 -30082,-6727905 -30028,-6727955 -29994,-6727988 -29958,-6728019 -29922,-6728047 -29918,-6728049 -29906,-6728062 -29872,-6728081 -29830,-6728113 -29736,-6728187 -29725,-6728173 -29625,-6728018 -29578,-6727943 -29517,-6727862 -29470,-6727795" stroke="#006747" stroke-width="29" /></ns0:svg>    <rect x="20" y="50"  width="250" height="25"  rx="0"  fill="#006747" fill-opacity="0.8" />    <text x="145" y="70" text-anchor="middle" font-family="Frutiger" font-weight="bold" font-size="30" fill="white">Brent</text>    <rect x="35" y="195" width="220" height="160" rx="15" fill="#78BE20"/>    <g font-family="Frutiger" font-size="15" fill="#231F20">        <g> <text x="45" y="218">Self-harm</text> <text x="245" y="218" text-anchor="end">2</text> </g>        <g> <text x="45" y="243">SEN</text> <text x="245" y="243" text-anchor="end">27</text> </g>        <g> <text x="45" y="268">Difficulties</text> <text x="245" y="268" text-anchor="end">100</text> </g>        <g> <text x="45" y="293">Child Carer</text> <text x="245" y="293" text-anchor="end">19</text> </g>        <g> <text x="45" y="318">Drinkers</text> <text x="245" y="318" text-anchor="end">8</text> </g>        <g> <text x="45" y="343">Safeguarding £</text> <text x="245" y="343" text-anchor="end">24</text> </g>    </g></svg>