<?xml version="1.0" standalone="no"?>
<!DOCTYPE svg PUBLIC "-//W3C//DTD SVG 1.1//EN"
"http://www.w3.org/Graphics/SVG/1.1/DTD/svg11.dtd">
<svg height="1800" version="1.1" width="1800" xmlns="http://www.w3.org/2000/svg"><defs><style type="text/css">@font-face {font-family: 'Frutiger';font-style: normal;font-weight: normal;src: local('Frutiger'), url('../fonts/Frutiger.woff') format('woff');}@font-face {font-family: 'Frutiger Bold';font-style: normal;font-weight: normal;src: local('Frutiger Bold'), url('../fonts/Frutiger_bold.woff') format('woff');}        </style>    </defs>    <rect x="20" y="20"  width="250" height="350" rx="15" fill="#AE2573" />    <rect x="35" y="35"  width="220" height="145" rx="15" fill="#330072" /><ns0:svg xmlns:ns0="http://www.w3.org/2000/svg" height="115" version="1.1" viewBox="-28393 -6716078 8623 12313" width="220" x="35" y="50"><ns0:polygon fill="white" points=" -25962,-6715944 -25929,-6715910 -25862,-6715857 -25780,-6715796 -25755,-6715780 -25723,-6715762 -25683,-6715740 -25653,-6715735 -25609,-6715716 -25591,-6715708 -25537,-6715683 -25511,-6715675 -25468,-6715660 -25457,-6715669 -25434,-6715648 -25459,-6715563 -25418,-6715445 -25414,-6715433 -25408,-6715421 -25401,-6715409 -25380,-6715380 -25358,-6715344 -25349,-6715325 -25332,-6715286 -25323,-6715259 -25317,-6715236 -25312,-6715208 -25308,-6715174 -25306,-6715139 -25305,-6715100 -25305,-6715067 -25312,-6714920 -25313,-6714914 -25310,-6714863 -25308,-6714841 -25300,-6714748 -25297,-6714721 -25288,-6714654 -25224,-6714654 -25237,-6714217 -25236,-6714150 -25246,-6714142 -25386,-6714039 -25386,-6714010 -25411,-6713992 -25235,-6713755 -25241,-6713751 -25233,-6713742 -25225,-6713730 -25218,-6713721 -25214,-6713713 -25209,-6713713 -25208,-6713712 -25203,-6713705 -25196,-6713709 -25143,-6713632 -25119,-6713597 -25077,-6713528 -25052,-6713488 -25035,-6713460 -25016,-6713433 -24984,-6713377 -24963,-6713349 -24966,-6713344 -24967,-6713340 -24895,-6713213 -24813,-6713065 -24793,-6713029 -24777,-6713017 -24763,-6712974 -24755,-6712951 -24741,-6712917 -24713,-6712856 -24683,-6712782 -24652,-6712704 -24652,-6712703 -24650,-6712689 -24654,-6712659 -24639,-6712628 -24613,-6712564 -24547,-6712404 -24536,-6712377 -24526,-6712340 -24524,-6712336 -24517,-6712317 -24503,-6712276 -24492,-6712248 -24480,-6712219 -24474,-6712200 -24469,-6712181 -24464,-6712162 -24461,-6712153 -24439,-6712068 -24434,-6712044 -24409,-6711938 -24408,-6711931 -24358,-6711942 -24252,-6711964 -24270,-6712048 -24247,-6712051 -24241,-6712052 -24225,-6712055 -24220,-6712057 -24215,-6712059 -24210,-6712061 -24208,-6712063 -24181,-6712075 -24177,-6712077 -24153,-6712031 -24149,-6712025 -24149,-6712012 -24152,-6712005 -24154,-6712002 -24151,-6711994 -24143,-6711971 -24138,-6711951 -24133,-6711930 -24136,-6711908 -24110,-6711886 -24099,-6711872 -24093,-6711864 -24090,-6711850 -24052,-6711857 -24051,-6711851 -24021,-6711849 -23999,-6711746 -23991,-6711720 -23974,-6711660 -23953,-6711586 -23975,-6711580 -24026,-6711564 -24029,-6711563 -24052,-6711563 -24058,-6711563 -24059,-6711554 -24061,-6711541 -24063,-6711511 -24067,-6711461 -24048,-6711397 -24038,-6711364 -24069,-6711356 -24077,-6711357 -24078,-6711357 -24082,-6711366 -24085,-6711372 -24173,-6711344 -24263,-6711318 -24236,-6711247 -24219,-6711200 -24217,-6711197 -24224,-6711192 -24220,-6711181 -24200,-6711134 -24158,-6711024 -24154,-6711017 -24107,-6710926 -24087,-6710884 -24084,-6710875 -24080,-6710876 -24068,-6710881 -24044,-6710825 -23972,-6710702 -23927,-6710630 -23939,-6710621 -23899,-6710513 -23860,-6710421 -23834,-6710357 -23715,-6710191 -23663,-6710135 -23590,-6710066 -23561,-6710038 -23542,-6710021 -23466,-6709955 -23404,-6709884 -23380,-6709848 -23365,-6709821 -23328,-6709753 -23259,-6709648 -23175,-6709537 -23151,-6709507 -23083,-6709530 -23075,-6709511 -23074,-6709507 -23073,-6709502 -23071,-6709498 -23069,-6709493 -23068,-6709490 -23065,-6709487 -23062,-6709483 -23059,-6709480 -23055,-6709477 -23055,-6709475 -23052,-6709470 -23022,-6709436 -23009,-6709422 -22994,-6709410 -22965,-6709389 -22930,-6709362 -22886,-6709331 -22839,-6709294 -22793,-6709255 -22802,-6709244 -22749,-6709198 -22710,-6709153 -22682,-6709120 -22666,-6709105 -22645,-6709078 -22616,-6709043 -22608,-6709035 -22598,-6709025 -22609,-6709019 -22605,-6709012 -22595,-6708995 -22570,-6708951 -22547,-6708907 -22531,-6708875 -22511,-6708839 -22468,-6708767 -22465,-6708762 -22518,-6708734 -22526,-6708729 -22458,-6708632 -22365,-6708497 -22330,-6708444 -22302,-6708428 -22214,-6708304 -22191,-6708273 -22144,-6708216 -22152,-6708209 -22071,-6708095 -22063,-6708085 -22045,-6708065 -22027,-6708046 -22008,-6708028 -21987,-6708011 -21938,-6707975 -21865,-6707931 -21814,-6707961 -21740,-6707894 -21717,-6707874 -21694,-6707853 -21673,-6707831 -21669,-6707827 -21648,-6707804 -21628,-6707780 -21609,-6707756 -21593,-6707737 -21551,-6707682 -21510,-6707626 -21503,-6707616 -21476,-6707575 -21451,-6707534 -21434,-6707506 -21374,-6707407 -21350,-6707361 -21345,-6707365 -21340,-6707369 -21338,-6707371 -21302,-6707317 -21283,-6707282 -21262,-6707248 -21244,-6707220 -21236,-6707209 -21221,-6707187 -21197,-6707154 -21172,-6707123 -21165,-6707114 -21094,-6707016 -21041,-6706945 -20964,-6706827 -20956,-6706815 -20947,-6706800 -20879,-6706725 -20858,-6706701 -20839,-6706676 -20838,-6706675 -20819,-6706649 -20800,-6706623 -20800,-6706623 -20783,-6706601 -20763,-6706620 -20743,-6706594 -20729,-6706571 -20721,-6706556 -20707,-6706526 -20677,-6706453 -20667,-6706435 -20661,-6706426 -20633,-6706393 -20554,-6706303 -20544,-6706290 -20517,-6706250 -20483,-6706202 -20466,-6706182 -20451,-6706171 -20437,-6706164 -20415,-6706157 -20359,-6706149 -20349,-6706148 -20329,-6706146 -20319,-6706147 -20304,-6706150 -20284,-6706158 -20129,-6706240 -20116,-6706245 -20100,-6706251 -20083,-6706255 -20058,-6706259 -19999,-6706255 -19983,-6706253 -19960,-6706250 -19837,-6706220 -19806,-6706210 -19791,-6706206 -19781,-6706182 -19776,-6706167 -19773,-6706152 -19771,-6706135 -19770,-6706121 -19771,-6706105 -19771,-6706082 -19772,-6706072 -19775,-6706060 -19782,-6706041 -19812,-6705994 -19815,-6705985 -19820,-6705966 -19824,-6705950 -19825,-6705934 -19826,-6705930 -19827,-6705902 -19831,-6705882 -19851,-6705822 -19865,-6705757 -19885,-6705681 -19892,-6705652 -19898,-6705575 -19909,-6705519 -19925,-6705466 -19941,-6705433 -19947,-6705422 -19953,-6705416 -19972,-6705388 -19981,-6705369 -19993,-6705341 -20061,-6705128 -20066,-6705115 -20070,-6705100 -20077,-6705044 -20144,-6704866 -20205,-6704710 -20224,-6704669 -20259,-6704600 -20356,-6704414 -20366,-6704400 -20413,-6704342 -20430,-6704322 -20467,-6704281 -20506,-6704241 -20596,-6704152 -20649,-6704112 -20734,-6704057 -20743,-6704052 -20857,-6703983 -20906,-6703956 -21002,-6703908 -21042,-6703889 -21166,-6703841 -21193,-6703833 -21204,-6703831 -21228,-6703829 -21287,-6703818 -21316,-6703816 -21353,-6703811 -21503,-6703783 -21508,-6703782 -21688,-6703766 -21725,-6703765 -21891,-6703786 -21980,-6703799 -22056,-6703802 -22084,-6703798 -22135,-6703787 -22228,-6703799 -22375,-6703811 -22479,-6703831 -22546,-6703843 -22619,-6703858 -22691,-6703875 -22728,-6703884 -22799,-6703905 -22854,-6703923 -22885,-6703935 -22946,-6703959 -23034,-6703999 -23356,-6704136 -23556,-6704221 -23673,-6704282 -23750,-6704326 -23863,-6704393 -23972,-6704466 -24018,-6704504 -24041,-6704523 -24085,-6704563 -24161,-6704636 -24243,-6704718 -24283,-6704760 -24316,-6704796 -24322,-6704803 -24356,-6704842 -24370,-6704858 -24550,-6705097 -24680,-6705277 -24796,-6705442 -24838,-6705506 -24895,-6705593 -24925,-6705641 -24943,-6705672 -24961,-6705705 -24999,-6705781 -25052,-6705899 -25068,-6705942 -25071,-6705953 -25083,-6705994 -25087,-6706010 -25097,-6706064 -25104,-6706105 -25114,-6706206 -25119,-6706335 -25119,-6706456 -25112,-6706570 -25113,-6706672 -25126,-6706755 -25132,-6706813 -25132,-6706915 -25115,-6706959 -25123,-6707021 -25125,-6707024 -25142,-6707068 -25172,-6707163 -25187,-6707239 -25187,-6707241 -25211,-6707372 -25245,-6707513 -25263,-6707567 -25275,-6707598 -25299,-6707652 -25314,-6707681 -25338,-6707722 -25363,-6707761 -25387,-6707797 -25428,-6707851 -25457,-6707888 -25559,-6708009 -25632,-6708093 -25671,-6708125 -25713,-6708156 -25781,-6708217 -25790,-6708224 -25821,-6708249 -25904,-6708297 -25956,-6708324 -25976,-6708335 -26005,-6708344 -26035,-6708353 -26086,-6708362 -26105,-6708364 -26109,-6708365 -26129,-6708368 -26171,-6708368 -26265,-6708374 -26330,-6708376 -26362,-6708376 -26425,-6708374 -26462,-6708372 -26476,-6708370 -26487,-6708370 -26533,-6708363 -26574,-6708356 -26615,-6708347 -26655,-6708337 -26695,-6708325 -26735,-6708312 -26772,-6708297 -26808,-6708282 -26844,-6708265 -26879,-6708247 -26913,-6708227 -26939,-6708211 -26980,-6708180 -27002,-6708162 -27023,-6708143 -27052,-6708114 -27097,-6708059 -27221,-6708199 -27226,-6708215 -27253,-6708266 -27271,-6708259 -27302,-6708302 -27319,-6708337 -27307,-6708350 -27328,-6708404 -27334,-6708430 -27338,-6708459 -27338,-6708469 -27335,-6708576 -27322,-6708722 -27322,-6708727 -27317,-6708798 -27310,-6708917 -27302,-6708976 -27275,-6709191 -27267,-6709268 -27258,-6709333 -27252,-6709390 -27250,-6709425 -27239,-6709429 -27228,-6709466 -27221,-6709519 -27245,-6709521 -27245,-6709526 -27240,-6709563 -27238,-6709593 -27231,-6709611 -27230,-6709639 -27244,-6709744 -27230,-6709789 -27220,-6709788 -27206,-6709851 -27221,-6709854 -27225,-6709853 -27271,-6709842 -27285,-6709881 -27303,-6709930 -27312,-6709925 -27382,-6709885 -27421,-6709865 -27482,-6709831 -27521,-6709806 -27548,-6709791 -27578,-6709770 -27602,-6709754 -27669,-6709710 -27703,-6709692 -27742,-6709673 -27743,-6709676 -27759,-6709715 -27829,-6709855 -27909,-6710044 -27941,-6710101 -27952,-6710115 -27937,-6710122 -27968,-6710179 -27974,-6710191 -27977,-6710191 -27979,-6710194 -28010,-6710253 -28032,-6710287 -28065,-6710337 -28090,-6710369 -28143,-6710427 -28134,-6710438 -28163,-6710470 -28170,-6710469 -28177,-6710481 -28174,-6710500 -28173,-6710501 -28170,-6710504 -28169,-6710513 -28169,-6710519 -28173,-6710534 -28181,-6710598 -28190,-6710661 -28188,-6710680 -28197,-6710701 -28200,-6710726 -28201,-6710734 -28206,-6710741 -28216,-6710756 -28235,-6710779 -28264,-6710815 -28292,-6710857 -28314,-6710893 -28319,-6710907 -28325,-6710915 -28328,-6710919 -28329,-6710920 -28335,-6710926 -28391,-6710988 -28391,-6710989 -28393,-6710991 -28369,-6711014 -28335,-6710968 -28334,-6710966 -28332,-6710965 -28306,-6710973 -28234,-6710986 -28237,-6710998 -28246,-6711033 -28240,-6711034 -28138,-6711055 -28115,-6711060 -28110,-6711061 -28108,-6711031 -28107,-6711025 -27966,-6711050 -27943,-6711049 -27920,-6711032 -27864,-6711015 -27830,-6711015 -27819,-6711012 -27815,-6711032 -27813,-6711040 -27812,-6711043 -27791,-6711039 -27770,-6711035 -27765,-6711052 -27763,-6711056 -27754,-6711053 -27747,-6711013 -27720,-6711019 -27613,-6711043 -27608,-6711012 -27605,-6710998 -27453,-6711026 -27413,-6711034 -27348,-6711046 -27350,-6711052 -27349,-6711052 -27384,-6711179 -27407,-6711258 -27413,-6711277 -27424,-6711313 -27430,-6711338 -27435,-6711360 -27438,-6711395 -27439,-6711413 -27439,-6711423 -27290,-6711424 -27280,-6711424 -27310,-6711578 -27322,-6711615 -27353,-6711734 -27357,-6711760 -27357,-6711813 -27365,-6711861 -27376,-6711908 -27387,-6712000 -27406,-6712054 -27407,-6712058 -27430,-6712150 -27431,-6712154 -27454,-6712230 -27516,-6712355 -27573,-6712450 -27649,-6712584 -27695,-6712667 -27715,-6712701 -27721,-6712718 -27723,-6712725 -27726,-6712733 -27730,-6712764 -27747,-6712852 -27756,-6712888 -27764,-6712938 -27799,-6713048 -27852,-6713323 -27894,-6713535 -27905,-6713634 -27906,-6713640 -27907,-6713646 -27908,-6713653 -27908,-6713659 -27909,-6713665 -27909,-6713672 -27909,-6713672 -27909,-6713678 -27909,-6713685 -27908,-6713691 -27908,-6713697 -27907,-6713704 -27906,-6713709 -27905,-6713715 -27904,-6713720 -27902,-6713725 -27901,-6713730 -27899,-6713735 -27898,-6713740 -27897,-6713743 -27893,-6713752 -27890,-6713761 -27886,-6713771 -27882,-6713780 -27881,-6713783 -27861,-6713824 -27892,-6713871 -27904,-6713909 -28041,-6714196 -28051,-6714290 -28060,-6714367 -28078,-6714438 -28100,-6714506 -28121,-6714581 -28123,-6714618 -28121,-6714651 -28108,-6714706 -28093,-6714731 -28083,-6714750 -27953,-6714964 -27901,-6715030 -27867,-6715065 -27860,-6715081 -27860,-6715082 -27860,-6715104 -27860,-6715113 -27896,-6715189 -27889,-6715196 -27853,-6715233 -27834,-6715263 -27842,-6715267 -27879,-6715289 -27870,-6715301 -27787,-6715420 -27779,-6715431 -27764,-6715450 -27754,-6715442 -27752,-6715440 -27699,-6715494 -27657,-6715539 -27661,-6715549 -27574,-6715640 -27488,-6715716 -27452,-6715739 -27418,-6715758 -27387,-6715770 -27382,-6715771 -27373,-6715773 -27364,-6715775 -27331,-6715773 -27315,-6715773 -27300,-6715802 -27308,-6715807 -27413,-6715864 -27423,-6715860 -27492,-6715904 -27487,-6715915 -27486,-6715916 -27446,-6715983 -27430,-6716024 -27423,-6716048 -27416,-6716078 -27405,-6716068 -27386,-6716056 -27243,-6715974 -27215,-6715959 -27151,-6715929 -27120,-6715912 -27105,-6715907 -27095,-6715905 -27073,-6715904 -26948,-6715908 -26836,-6715919 -26818,-6715921 -26769,-6715931 -26728,-6715935 -26657,-6715938 -26643,-6715939 -26630,-6715939 -26554,-6715936 -26419,-6715947 -26357,-6715971 -26322,-6715983 -26207,-6716019 -26200,-6716022 -26168,-6716031 -26167,-6716032 -26116,-6716050 -26093,-6716057 -26070,-6716041 -26067,-6716038 -26030,-6716004 -25962,-6715944" stroke="white" stroke-width="20" /></ns0:svg>    <rect x="20" y="50"  width="250" height="25"  rx="0"  fill="#E8EDEE" fill-opacity="0.8" />    <text x="145" y="70" text-anchor="middle" font-family="Frutiger" font-weight="bold" font-size="20" fill="#AE2573">Hammersmith and Fulham</text>    <rect x="35" y="195" width="220" height="160" rx="15" fill="#724F95"/>    <g font-family="Frutiger" font-size="15" fill="white">        <g> <text x="45" y="218">Self-harm</text> <text x="245" y="218" text-anchor="end">14</text> </g>        <g> <text x="45" y="243">SEN</text> <text x="245" y="243" text-anchor="end">29</text> </g>        <g> <text x="45" y="268">Difficulties</text> <text x="245" y="268" text-anchor="end">59</text> </g>        <g> <text x="45" y="293">Child Carer</text> <text x="245" y="293" text-anchor="end">29</text> </g>        <g> <text x="45" y="318">Drinkers</text> <text x="245" y="318" text-anchor="end">14</text> </g>        <g> <text x="45" y="343">Safeguarding £</text> <text x="245" y="343" text-anchor="end">49</text> </g>    </g></svg>