<?xml version="1.0" standalone="no"?>
<!DOCTYPE svg PUBLIC "-//W3C//DTD SVG 1.1//EN"
"http://www.w3.org/Graphics/SVG/1.1/DTD/svg11.dtd">
<svg height="1800" version="1.1" width="1800" xmlns="http://www.w3.org/2000/svg"><defs><style type="text/css">@font-face {font-family: 'Frutiger';font-style: normal;font-weight: normal;src: local('Frutiger'), url('../fonts/Frutiger.woff') format('woff');}@font-face {font-family: 'Frutiger Bold';font-style: normal;font-weight: normal;src: local('Frutiger Bold'), url('../fonts/Frutiger_bold.woff') format('woff');}        </style>    </defs>    <rect x="20" y="20"  width="250" height="350" rx="15" fill="#AE2573" />    <rect x="35" y="35"  width="220" height="145" rx="15" fill="#330072" /><ns0:svg xmlns:ns0="http://www.w3.org/2000/svg" height="115" version="1.1" viewBox="-18020 -6696504 18388 24329" width="220" x="35" y="50"><ns0:polygon fill="white" points=" -12342,-6696486 -12296,-6696484 -12249,-6696487 -12235,-6696488 -12225,-6696488 -12198,-6696491 -12172,-6696489 -12154,-6696485 -12096,-6696468 -12007,-6696437 -11910,-6696407 -11854,-6696392 -11817,-6696387 -11803,-6696385 -11795,-6696385 -11774,-6696385 -11698,-6696391 -11642,-6696397 -11599,-6696398 -11215,-6696385 -11145,-6696387 -10996,-6696385 -10949,-6696384 -10918,-6696385 -10885,-6696387 -10852,-6696390 -10821,-6696395 -10784,-6696401 -10704,-6696418 -10554,-6696425 -10526,-6696428 -10499,-6696428 -10472,-6696427 -10452,-6696425 -10421,-6696419 -10398,-6696412 -10372,-6696402 -10350,-6696393 -10320,-6696379 -10272,-6696346 -10254,-6696322 -10212,-6696269 -10171,-6696233 -10138,-6696208 -10109,-6696188 -10037,-6696144 -10020,-6696135 -10005,-6696126 -9995,-6696119 -9984,-6696110 -9969,-6696097 -9945,-6696070 -9909,-6696023 -9843,-6695937 -9814,-6695912 -9794,-6695899 -9767,-6695882 -9678,-6695832 -9662,-6695821 -9639,-6695809 -9617,-6695801 -9591,-6695796 -9579,-6695795 -9555,-6695795 -9519,-6695798 -9460,-6695810 -9336,-6695847 -9273,-6695866 -9224,-6695877 -9222,-6695877 -9163,-6695884 -9096,-6695880 -8968,-6695868 -8935,-6695867 -8912,-6695867 -8870,-6695869 -8827,-6695875 -8802,-6695881 -8755,-6695894 -8741,-6695898 -8730,-6695888 -8738,-6695877 -8755,-6695858 -8777,-6695830 -8824,-6695774 -8851,-6695739 -8864,-6695717 -8885,-6695676 -8909,-6695627 -8928,-6695586 -8953,-6695544 -8992,-6695500 -9006,-6695484 -9013,-6695472 -9024,-6695445 -9026,-6695424 -9022,-6695419 -9013,-6695408 -9008,-6695403 -9010,-6695382 -9006,-6695330 -8996,-6695257 -8987,-6695214 -8958,-6695157 -8950,-6695147 -8954,-6695135 -8955,-6695134 -8948,-6695130 -8916,-6695112 -8872,-6695089 -8836,-6695077 -8795,-6695063 -8691,-6695022 -8675,-6695012 -8642,-6694984 -8604,-6694957 -8555,-6694926 -8541,-6694922 -8529,-6694923 -8516,-6694932 -8504,-6694925 -8460,-6694882 -8446,-6694868 -8429,-6694858 -8424,-6694854 -8409,-6694839 -8402,-6694833 -8382,-6694816 -8365,-6694802 -8349,-6694790 -8351,-6694789 -8365,-6694772 -8285,-6694716 -8248,-6694690 -8226,-6694676 -8209,-6694668 -8199,-6694663 -8196,-6694662 -8196,-6694652 -8161,-6694642 -8096,-6694621 -8113,-6694560 -8125,-6694511 -8144,-6694447 -8159,-6694402 -8174,-6694345 -8177,-6694329 -8180,-6694289 -8183,-6694225 -8181,-6694156 -8172,-6694069 -8155,-6694004 -8146,-6693978 -8127,-6693915 -8107,-6693869 -8082,-6693825 -8047,-6693768 -8006,-6693712 -7959,-6693658 -7904,-6693601 -7860,-6693543 -7812,-6693472 -7763,-6693383 -7753,-6693363 -7747,-6693346 -7736,-6693326 -7721,-6693294 -7706,-6693266 -7703,-6693250 -7702,-6693226 -7675,-6693181 -7676,-6693165 -7678,-6693134 -7670,-6693115 -7667,-6693109 -7668,-6693107 -7671,-6693101 -7649,-6693067 -7643,-6693053 -7633,-6693041 -7626,-6693033 -7601,-6693002 -7601,-6692997 -7597,-6692995 -7592,-6692998 -7585,-6692992 -7584,-6692991 -7582,-6692989 -7589,-6692982 -7593,-6692979 -7581,-6692969 -7578,-6692971 -7571,-6692976 -7569,-6692975 -7541,-6692946 -7523,-6692927 -7494,-6692902 -7477,-6692888 -7464,-6692876 -7456,-6692868 -7447,-6692859 -7435,-6692850 -7416,-6692836 -7389,-6692816 -7369,-6692807 -7350,-6692796 -7325,-6692780 -7298,-6692765 -7246,-6692745 -7225,-6692736 -7177,-6692720 -7186,-6692686 -7192,-6692663 -7119,-6692648 -7099,-6692635 -7096,-6692635 -7060,-6692632 -7002,-6692630 -6919,-6692629 -6755,-6692372 -6696,-6692275 -6755,-6692225 -6757,-6692222 -6741,-6692199 -6712,-6692221 -6610,-6692223 -6594,-6692237 -6549,-6692285 -6477,-6692342 -6394,-6692404 -6326,-6692446 -6242,-6692481 -6200,-6692506 -6148,-6692527 -6082,-6692545 -6003,-6692566 -5960,-6692576 -5922,-6692588 -5895,-6692617 -5838,-6692533 -5778,-6692443 -5729,-6692354 -5690,-6692324 -5635,-6692278 -5800,-6692051 -5717,-6691984 -5658,-6691949 -5615,-6692006 -5601,-6691997 -5654,-6691927 -5671,-6691843 -5764,-6691723 -5944,-6691494 -5928,-6691480 -5953,-6691450 -5922,-6691426 -5912,-6691436 -5854,-6691398 -5856,-6691391 -5854,-6691382 -5845,-6691348 -5835,-6691313 -5791,-6691300 -5755,-6691285 -5754,-6691232 -5754,-6691211 -5736,-6691219 -5736,-6691219 -5717,-6691195 -5618,-6691164 -5600,-6691160 -5529,-6691148 -5467,-6691155 -5426,-6691153 -5389,-6691150 -5347,-6691137 -5314,-6691113 -5298,-6691081 -5257,-6690987 -5252,-6690976 -5231,-6690936 -5210,-6690901 -5209,-6690900 -5173,-6690925 -5144,-6690928 -5133,-6690897 -5119,-6690861 -5085,-6690803 -5035,-6690734 -4974,-6690661 -4863,-6690549 -4803,-6690504 -4758,-6690474 -4703,-6690451 -4654,-6690438 -4647,-6690445 -4637,-6690455 -4592,-6690437 -4565,-6690428 -4502,-6690410 -4436,-6690386 -4401,-6690368 -4369,-6690368 -4352,-6690367 -4301,-6690362 -4254,-6690347 -4204,-6690339 -4128,-6690317 -4062,-6690297 -4064,-6690289 -4084,-6690141 -4132,-6689864 -4137,-6689835 -4168,-6689653 -4215,-6689364 -4211,-6689246 -4192,-6689072 -4134,-6688764 -4107,-6688601 -4043,-6688610 -4110,-6688255 -4092,-6688252 -4089,-6688260 -4076,-6688258 -4077,-6688243 -4066,-6688240 -4027,-6688235 -3973,-6688232 -3864,-6688243 -3713,-6688262 -3630,-6688272 -3486,-6688281 -3486,-6688281 -3474,-6688281 -3463,-6688282 -3452,-6688282 -3440,-6688283 -3429,-6688284 -3418,-6688286 -3407,-6688288 -3396,-6688289 -3385,-6688292 -3374,-6688294 -3363,-6688297 -3355,-6688299 -3348,-6688301 -3340,-6688304 -3332,-6688306 -3325,-6688309 -3317,-6688311 -3309,-6688314 -3302,-6688317 -3294,-6688320 -3287,-6688324 -3280,-6688327 -3273,-6688331 -3266,-6688335 -3259,-6688339 -3252,-6688343 -3245,-6688348 -3244,-6688349 -3237,-6688354 -3229,-6688360 -3222,-6688366 -3216,-6688373 -3209,-6688379 -3203,-6688386 -3196,-6688393 -3190,-6688400 -3184,-6688407 -3179,-6688414 -3173,-6688422 -3170,-6688425 -3166,-6688431 -3162,-6688437 -3158,-6688442 -3155,-6688448 -3151,-6688454 -3147,-6688460 -3144,-6688467 -3140,-6688473 -3137,-6688479 -3134,-6688486 -3131,-6688492 -3129,-6688498 -3126,-6688505 -3124,-6688512 -3122,-6688518 -3120,-6688525 -3118,-6688532 -3117,-6688537 -3116,-6688544 -3115,-6688551 -3114,-6688558 -3113,-6688565 -3113,-6688572 -3112,-6688579 -3112,-6688586 -3112,-6688593 -3112,-6688600 -3113,-6688607 -3114,-6688614 -3114,-6688621 -3118,-6688674 -2982,-6688677 -2982,-6688676 -2977,-6688629 -2968,-6688583 -2961,-6688542 -2950,-6688485 -2938,-6688411 -2914,-6688326 -2908,-6688327 -2903,-6688303 -2897,-6688293 -2892,-6688249 -2888,-6688223 -2884,-6688160 -2908,-6688155 -2881,-6688083 -2876,-6688085 -2871,-6688064 -2856,-6688019 -2832,-6687964 -2824,-6687944 -2802,-6687900 -2795,-6687877 -2791,-6687862 -2786,-6687832 -2781,-6687817 -2778,-6687809 -2713,-6687668 -2698,-6687576 -2689,-6687531 -2662,-6687474 -2623,-6687401 -2626,-6687325 -2629,-6687289 -2639,-6687257 -2646,-6687242 -2648,-6687239 -2639,-6687240 -2633,-6687240 -2633,-6687238 -2638,-6687225 -2638,-6687225 -2628,-6687224 -2629,-6687183 -2627,-6687092 -2626,-6687033 -2625,-6686995 -2621,-6686963 -2620,-6686951 -2614,-6686951 -2613,-6686932 -2620,-6686927 -2620,-6686927 -2622,-6686888 -2622,-6686836 -2620,-6686802 -2613,-6686756 -2597,-6686721 -2590,-6686708 -2586,-6686671 -2584,-6686618 -2577,-6686575 -2574,-6686536 -2570,-6686471 -2588,-6686468 -2596,-6686469 -2596,-6686478 -2596,-6686479 -2673,-6686468 -2673,-6686431 -2723,-6686431 -2722,-6686365 -2638,-6686235 -2645,-6686187 -2622,-6686166 -2592,-6686187 -2557,-6686217 -2476,-6686270 -2461,-6686245 -2441,-6686197 -2429,-6686186 -2397,-6686162 -2373,-6686130 -2362,-6686101 -2342,-6686070 -2330,-6686042 -2312,-6685997 -2308,-6685985 -2264,-6685951 -2241,-6685931 -2231,-6685920 -2217,-6685892 -2210,-6685881 -2202,-6685869 -2194,-6685861 -2179,-6685842 -2165,-6685823 -2154,-6685804 -2130,-6685765 -2121,-6685744 -2104,-6685719 -2098,-6685700 -2089,-6685674 -2086,-6685639 -2067,-6685595 -2053,-6685561 -2041,-6685528 -2040,-6685524 -2032,-6685505 -2023,-6685487 -2019,-6685475 -2045,-6685463 -2032,-6685445 -2018,-6685424 -1984,-6685398 -1964,-6685359 -1925,-6685327 -1837,-6685187 -1793,-6685105 -1739,-6685021 -1672,-6684953 -1606,-6684892 -1580,-6684867 -1552,-6684835 -1512,-6684786 -1484,-6684755 -1458,-6684725 -1457,-6684724 -1430,-6684717 -1381,-6684708 -1369,-6684702 -1353,-6684722 -1344,-6684740 -1334,-6684739 -1320,-6684737 -1319,-6684737 -1279,-6684717 -1234,-6684685 -1122,-6684602 -1078,-6684573 -1048,-6684547 -1032,-6684530 -1003,-6684498 -963,-6684478 -937,-6684446 -914,-6684397 -893,-6684369 -867,-6684318 -852,-6684288 -820,-6684242 -781,-6684198 -738,-6684145 -731,-6684131 -715,-6684117 -695,-6684100 -674,-6684070 -675,-6684068 -680,-6684059 -653,-6684027 -614,-6683962 -613,-6683961 -607,-6683949 -602,-6683941 -596,-6683929 -590,-6683916 -590,-6683915 -585,-6683900 -591,-6683899 -595,-6683897 -585,-6683881 -578,-6683865 -574,-6683857 -567,-6683823 -563,-6683798 -552,-6683745 -544,-6683697 -537,-6683661 -525,-6683601 -523,-6683573 -525,-6683487 -517,-6683408 -512,-6683362 -498,-6683339 -483,-6683292 -480,-6683253 -470,-6683232 -465,-6683205 -442,-6683131 -432,-6683040 -418,-6683010 -382,-6682869 -364,-6682785 -358,-6682749 -331,-6682675 -322,-6682651 -321,-6682641 -329,-6682640 -312,-6682555 -300,-6682517 -294,-6682475 -286,-6682426 -286,-6682396 -287,-6682369 -283,-6682348 -265,-6682268 -235,-6682155 -219,-6682089 -217,-6682081 -203,-6682035 -188,-6681961 -180,-6681913 -193,-6681908 -172,-6681789 -161,-6681791 -155,-6681792 -152,-6681748 -157,-6681744 -162,-6681742 -153,-6681722 -141,-6681694 -118,-6681609 -110,-6681556 -95,-6681484 -83,-6681406 -59,-6681319 -40,-6681270 -3,-6681088 8,-6681028 17,-6680968 46,-6680848 65,-6680749 63,-6680684 95,-6680579 104,-6680537 106,-6680527 96,-6680515 110,-6680503 150,-6680464 189,-6680411 218,-6680360 255,-6680319 293,-6680293 331,-6680273 368,-6680259 360,-6680165 346,-6680127 324,-6680101 324,-6680083 319,-6680058 320,-6680042 320,-6680040 325,-6679960 325,-6679942 324,-6679936 322,-6679931 317,-6679925 261,-6679862 246,-6679835 247,-6679780 250,-6679754 254,-6679728 255,-6679722 120,-6679700 3,-6679681 -55,-6679658 -83,-6679761 -128,-6679847 -186,-6679930 -256,-6679997 -392,-6680131 -519,-6680256 -559,-6680289 -627,-6680344 -745,-6680435 -802,-6680479 -792,-6680534 -901,-6680562 -915,-6680564 -929,-6680566 -943,-6680568 -958,-6680569 -972,-6680570 -986,-6680571 -989,-6680571 -1003,-6680571 -1017,-6680571 -1031,-6680571 -1045,-6680570 -1060,-6680568 -1074,-6680567 -1088,-6680565 -1102,-6680564 -1104,-6680563 -1122,-6680561 -1140,-6680558 -1158,-6680554 -1163,-6680552 -1171,-6680550 -1178,-6680548 -1185,-6680545 -1186,-6680545 -1210,-6680522 -1223,-6680509 -1208,-6680484 -1187,-6680426 -1215,-6680394 -1323,-6680391 -1482,-6680149 -1514,-6680147 -1523,-6680110 -1523,-6680029 -1530,-6680000 -1552,-6679967 -1581,-6679930 -1592,-6679867 -1594,-6679841 -1612,-6679873 -1626,-6679910 -1650,-6679961 -1677,-6679992 -1686,-6680010 -1694,-6680057 -1708,-6680101 -1728,-6680146 -1774,-6680234 -1805,-6680271 -1840,-6680323 -1895,-6680393 -1915,-6680407 -1932,-6680410 -1979,-6680398 -1983,-6680409 -1997,-6680466 -2018,-6680557 -2035,-6680607 -2089,-6680682 -2113,-6680743 -2126,-6680781 -2132,-6680802 -2157,-6680893 -2164,-6680911 -2172,-6680927 -2197,-6680949 -2231,-6680982 -2272,-6681035 -2282,-6681051 -2283,-6681053 -2275,-6681094 -2288,-6681148 -2360,-6681245 -2384,-6681269 -2455,-6681318 -2490,-6681337 -2546,-6681351 -2630,-6681364 -2659,-6681364 -2679,-6681367 -2700,-6681370 -2745,-6681381 -2794,-6681409 -2835,-6681393 -2889,-6681400 -2914,-6681395 -2943,-6681386 -2990,-6681373 -3053,-6681358 -3083,-6681348 -3113,-6681338 -3167,-6681314 -3204,-6681291 -3224,-6681280 -3241,-6681271 -3281,-6681258 -3360,-6681240 -3380,-6681228 -3393,-6681222 -3415,-6681214 -3436,-6681210 -3451,-6681209 -3542,-6681206 -3570,-6681207 -3595,-6681206 -3647,-6681201 -3710,-6681214 -3748,-6681230 -3815,-6681300 -3839,-6681315 -3854,-6681311 -3881,-6681313 -3935,-6681334 -3985,-6681355 -4038,-6681358 -4098,-6681389 -4112,-6681394 -4126,-6681398 -4160,-6681405 -4190,-6681407 -4218,-6681426 -4226,-6681415 -4283,-6681361 -4372,-6681263 -4393,-6681232 -4432,-6681163 -4451,-6681118 -4470,-6681065 -4497,-6681015 -4509,-6680982 -4520,-6680950 -4528,-6680921 -4552,-6680825 -4570,-6680758 -4598,-6680692 -4671,-6680554 -4773,-6680526 -4829,-6680526 -4953,-6680538 -5007,-6680529 -5056,-6680522 -5107,-6680510 -5182,-6680496 -5219,-6680470 -5272,-6680430 -5319,-6680412 -5360,-6680389 -5396,-6680372 -5417,-6680367 -5461,-6680359 -5484,-6680355 -5528,-6680354 -5595,-6680346 -5577,-6680260 -5574,-6680241 -5633,-6680209 -5658,-6680188 -5681,-6680159 -5688,-6680118 -5689,-6680064 -5686,-6680026 -5639,-6679913 -5615,-6679877 -5591,-6679845 -5542,-6679808 -5503,-6679767 -5448,-6679686 -5426,-6679647 -5462,-6679627 -5404,-6679525 -5384,-6679490 -5356,-6679420 -5344,-6679379 -5341,-6679360 -5347,-6679353 -5338,-6679323 -5324,-6679254 -5323,-6679219 -5330,-6679080 -5328,-6679028 -5364,-6679017 -5366,-6679030 -5389,-6679036 -5427,-6679050 -5481,-6679053 -5513,-6679043 -5539,-6679032 -5565,-6678978 -5615,-6678916 -5642,-6678865 -5657,-6678833 -5662,-6678822 -5665,-6678807 -5671,-6678755 -5674,-6678744 -5678,-6678734 -5706,-6678706 -5709,-6678607 -5712,-6678564 -5711,-6678530 -5762,-6678521 -5813,-6678516 -5842,-6678518 -5854,-6678507 -5886,-6678489 -5908,-6678471 -5970,-6678416 -6031,-6678369 -6109,-6678318 -6124,-6678317 -6202,-6678333 -6225,-6678353 -6261,-6678390 -6287,-6678376 -6312,-6678365 -6346,-6678338 -6418,-6678263 -6436,-6678244 -6468,-6678200 -6500,-6678162 -6540,-6678140 -6550,-6678136 -6559,-6678135 -6571,-6678134 -6633,-6678109 -6650,-6678104 -6671,-6678101 -6691,-6678101 -6703,-6678101 -6730,-6678105 -6752,-6678105 -6774,-6678090 -6787,-6678078 -6832,-6678027 -6850,-6678001 -6872,-6677985 -6902,-6677972 -6910,-6677951 -6948,-6677935 -7044,-6677893 -7101,-6677866 -7123,-6677851 -7129,-6677847 -7134,-6677844 -7138,-6677849 -7540,-6677883 -7795,-6677897 -7905,-6678314 -7966,-6678284 -8088,-6678232 -8100,-6678227 -8121,-6678210 -8175,-6678196 -8225,-6678180 -8260,-6678168 -8324,-6678142 -8362,-6678129 -8397,-6678125 -8472,-6678122 -8474,-6678099 -8555,-6678081 -8609,-6678074 -8728,-6678056 -8785,-6678053 -8783,-6677991 -8776,-6677835 -8775,-6677754 -8824,-6677752 -8833,-6677749 -8842,-6677747 -8845,-6677746 -8851,-6677744 -8857,-6677742 -8863,-6677740 -8869,-6677738 -8875,-6677735 -8906,-6677722 -8927,-6677706 -8951,-6677682 -8967,-6677665 -8994,-6677637 -9030,-6677589 -9022,-6677581 -9026,-6677568 -9043,-6677531 -9058,-6677518 -9077,-6677507 -9103,-6677518 -9126,-6677557 -9138,-6677562 -9151,-6677553 -9189,-6677528 -9247,-6677517 -9301,-6677503 -9313,-6677497 -9305,-6677450 -9372,-6677425 -9440,-6677358 -9379,-6677284 -9336,-6677228 -9291,-6677152 -9261,-6677080 -9225,-6677018 -9163,-6676885 -9146,-6676848 -9116,-6676778 -9108,-6676733 -9097,-6676645 -9108,-6676595 -9116,-6676541 -9120,-6676428 -9155,-6676409 -9177,-6676400 -9189,-6676392 -9207,-6676377 -9282,-6676322 -9316,-6676300 -9352,-6676280 -9511,-6676183 -9637,-6676110 -9645,-6676103 -9653,-6676091 -9662,-6676081 -9745,-6675994 -9840,-6675886 -9849,-6675874 -9864,-6675851 -9887,-6675818 -9876,-6675752 -9876,-6675734 -9879,-6675708 -9879,-6675674 -9880,-6675616 -9878,-6675579 -9867,-6675461 -9877,-6675441 -9884,-6675426 -9888,-6675400 -9891,-6675387 -9923,-6675335 -9926,-6675332 -9962,-6675321 -9971,-6675307 -9974,-6675299 -9979,-6675282 -9983,-6675264 -9985,-6675240 -10098,-6675236 -10114,-6675212 -10149,-6675136 -10134,-6675116 -10116,-6675098 -10125,-6675022 -10119,-6675007 -10124,-6674970 -10125,-6674951 -10126,-6674887 -10148,-6674794 -10426,-6674672 -10507,-6674641 -10550,-6674654 -10606,-6674768 -10646,-6674782 -10655,-6674797 -10690,-6674803 -10726,-6674778 -10839,-6674731 -10826,-6674700 -10837,-6674683 -10839,-6674670 -10836,-6674655 -10817,-6674594 -10825,-6674585 -10789,-6674551 -10722,-6674496 -10698,-6674481 -10661,-6674461 -10633,-6674449 -10612,-6674443 -10588,-6674439 -10509,-6674437 -10494,-6674432 -10500,-6674417 -10890,-6674128 -11048,-6674016 -11059,-6674008 -11083,-6673989 -11148,-6673933 -11172,-6673914 -11192,-6673900 -11209,-6673890 -11223,-6673883 -11232,-6673879 -11254,-6673872 -11258,-6673871 -11296,-6673860 -11369,-6673844 -11386,-6673838 -11404,-6673832 -11425,-6673821 -11466,-6673795 -11846,-6673524 -12051,-6673380 -12130,-6673323 -12173,-6673291 -12263,-6673222 -12362,-6673153 -12762,-6673186 -12772,-6673187 -12781,-6673185 -12788,-6673180 -12785,-6673165 -12783,-6673161 -12767,-6673081 -12756,-6673025 -12778,-6673016 -12787,-6673028 -12814,-6673013 -12807,-6673003 -12808,-6673003 -12816,-6672997 -12833,-6672982 -12861,-6672950 -12848,-6672934 -12882,-6672882 -12894,-6672864 -12906,-6672843 -12941,-6672778 -12952,-6672746 -12957,-6672741 -12961,-6672736 -12963,-6672729 -12978,-6672719 -12993,-6672708 -13009,-6672672 -13022,-6672641 -13030,-6672609 -13032,-6672593 -13026,-6672573 -13030,-6672515 -13035,-6672483 -13070,-6672405 -13091,-6672346 -13103,-6672307 -13111,-6672275 -13110,-6672235 -13163,-6672232 -13207,-6672230 -13492,-6672211 -13836,-6672175 -13842,-6672194 -13854,-6672217 -13860,-6672227 -13871,-6672244 -13887,-6672263 -13964,-6672374 -13999,-6672432 -14017,-6672451 -14032,-6672465 -14038,-6672504 -14043,-6672583 -14049,-6672648 -14053,-6672661 -14057,-6672668 -14143,-6672802 -14166,-6672835 -14243,-6672944 -14261,-6672963 -14274,-6672975 -14316,-6673030 -14414,-6673147 -14482,-6673215 -14485,-6673220 -14492,-6673230 -14530,-6673307 -14541,-6673334 -14564,-6673418 -14601,-6673505 -14619,-6673544 -14633,-6673586 -14633,-6673591 -14634,-6673600 -14634,-6673610 -14632,-6673619 -14629,-6673629 -14624,-6673639 -14619,-6673648 -14608,-6673661 -14591,-6673695 -14588,-6673703 -14592,-6673721 -14595,-6673726 -14611,-6673750 -14626,-6673766 -14686,-6673817 -14707,-6673843 -14728,-6673878 -14780,-6673957 -14792,-6673977 -14800,-6673986 -14809,-6673997 -14821,-6674008 -14838,-6674030 -14904,-6674141 -14962,-6674232 -14962,-6674238 -14964,-6674244 -14967,-6674246 -14970,-6674247 -14974,-6674247 -15090,-6674234 -15112,-6674243 -15130,-6674227 -15137,-6674222 -15159,-6674215 -15169,-6674215 -15175,-6674224 -15196,-6674371 -15207,-6674446 -15211,-6674495 -15227,-6674535 -15285,-6674671 -15292,-6674674 -15299,-6674674 -15309,-6674671 -15342,-6674651 -15350,-6674647 -15364,-6674641 -15420,-6674612 -15438,-6674603 -15449,-6674596 -15469,-6674582 -15551,-6674529 -15582,-6674509 -15615,-6674490 -15636,-6674476 -15647,-6674469 -15658,-6674457 -15662,-6674455 -15670,-6674453 -15679,-6674453 -15691,-6674454 -15719,-6674467 -15737,-6674473 -15773,-6674490 -15821,-6674508 -15848,-6674517 -15858,-6674520 -15892,-6674528 -15900,-6674529 -15980,-6674757 -16077,-6674629 -16124,-6674659 -16210,-6674502 -16213,-6674503 -16314,-6674542 -16482,-6674639 -16525,-6674658 -16641,-6674657 -16677,-6674569 -16697,-6674583 -16704,-6674587 -16725,-6674601 -16811,-6674661 -16814,-6674663 -16847,-6674685 -16975,-6674777 -16988,-6674787 -16994,-6674791 -17072,-6674831 -17289,-6674759 -17296,-6674778 -17441,-6675171 -17473,-6675180 -17478,-6675193 -17558,-6675321 -17548,-6675339 -17555,-6675350 -17257,-6675563 -17199,-6675681 -17270,-6675676 -17339,-6675679 -17412,-6675681 -17429,-6675688 -17448,-6675701 -17464,-6675718 -17484,-6675724 -17495,-6675727 -17419,-6675830 -17409,-6675843 -17384,-6675894 -17318,-6676040 -17259,-6676184 -17181,-6676358 -17178,-6676370 -17293,-6676385 -17322,-6676378 -17343,-6676387 -17391,-6676388 -17417,-6676396 -17434,-6676406 -17478,-6676442 -17514,-6676463 -17548,-6676478 -17595,-6676489 -17625,-6676488 -17625,-6676495 -17618,-6676521 -17612,-6676543 -17568,-6676690 -17544,-6676788 -17507,-6676887 -17496,-6676917 -17523,-6676984 -17532,-6677005 -17541,-6677026 -17548,-6677044 -17560,-6677082 -17575,-6677117 -17622,-6677197 -17628,-6677213 -17648,-6677239 -17695,-6677312 -17718,-6677343 -17734,-6677374 -17753,-6677454 -17762,-6677508 -17764,-6677578 -17801,-6677569 -17838,-6677550 -17864,-6677537 -17913,-6677607 -17932,-6677641 -17942,-6677653 -17944,-6677667 -17941,-6677681 -17932,-6677690 -17942,-6677733 -17948,-6677732 -17964,-6677792 -17962,-6677793 -17972,-6677831 -18008,-6677977 -18008,-6677978 -18018,-6678019 -18020,-6678027 -17665,-6678215 -17643,-6678226 -17414,-6678341 -17419,-6678350 -17426,-6678363 -17420,-6678365 -17416,-6678366 -17385,-6678377 -17343,-6678399 -17341,-6678400 -17354,-6678426 -17323,-6678442 -17312,-6678422 -17227,-6678480 -17089,-6678570 -16999,-6678629 -16929,-6678501 -16927,-6678498 -16917,-6678501 -16891,-6678511 -16863,-6678521 -16862,-6678521 -16848,-6678518 -16775,-6678483 -16761,-6678481 -16750,-6678486 -16750,-6678487 -16731,-6678498 -16649,-6678537 -16634,-6678545 -16587,-6678590 -16558,-6678570 -16515,-6678572 -16467,-6678572 -16428,-6678589 -16378,-6678613 -16311,-6678651 -16242,-6678694 -16211,-6678713 -16203,-6678717 -16203,-6678718 -16148,-6678878 -16057,-6679146 -16079,-6679149 -16070,-6679219 -16077,-6679248 -16254,-6679384 -16307,-6679421 -16353,-6679452 -16537,-6679597 -16620,-6679655 -16602,-6679666 -16478,-6679745 -16276,-6679859 -16098,-6679955 -16034,-6679994 -16141,-6680124 -16157,-6680150 -16188,-6680250 -16207,-6680308 -16222,-6680397 -16225,-6680470 -16237,-6680559 -16243,-6680604 -16267,-6680681 -16304,-6680832 -16345,-6681051 -16363,-6681189 -16384,-6681317 -16395,-6681314 -16422,-6681440 -16404,-6681445 -16403,-6681446 -16217,-6681508 -16155,-6681536 -16085,-6681567 -16056,-6681632 -16057,-6681641 -16063,-6681694 -16039,-6681712 -16005,-6681731 -15979,-6681748 -15967,-6681757 -15979,-6681783 -16010,-6681874 -16023,-6681904 -16039,-6681898 -16088,-6682017 -16093,-6682030 -16047,-6682056 -16047,-6682056 -16047,-6682057 -16049,-6682061 -16051,-6682065 -16015,-6682084 -15961,-6682122 -15915,-6682154 -15909,-6682145 -15820,-6682191 -15815,-6682194 -15829,-6682217 -15832,-6682222 -15811,-6682235 -15781,-6682251 -15755,-6682265 -15710,-6682288 -15472,-6682395 -15352,-6682448 -15257,-6682490 -15218,-6682505 -15196,-6682508 -15175,-6682511 -15166,-6682442 -15165,-6682443 -15156,-6682446 -15123,-6682452 -15080,-6682456 -15028,-6682458 -15000,-6682461 -14928,-6682460 -14855,-6682451 -14811,-6682440 -14757,-6682425 -14748,-6682423 -14766,-6682516 -14789,-6682620 -14790,-6682626 -14616,-6682631 -14594,-6682632 -14596,-6682639 -14613,-6682688 -14626,-6682728 -14628,-6682730 -14531,-6682749 -14483,-6682762 -14452,-6682773 -14431,-6682781 -14408,-6682795 -14390,-6682806 -14367,-6682823 -14356,-6682831 -14359,-6682837 -14372,-6682871 -14374,-6682876 -14344,-6682905 -14329,-6682919 -14327,-6682921 -14342,-6682952 -14342,-6682953 -14287,-6682985 -14285,-6682981 -14278,-6682966 -14273,-6682967 -14268,-6682968 -14196,-6682984 -14184,-6682959 -14173,-6682938 -14153,-6682876 -14148,-6682841 -14138,-6682717 -14135,-6682674 -14110,-6682631 -14115,-6682628 -14126,-6682622 -14125,-6682619 -14123,-6682596 -14151,-6682577 -14121,-6682528 -14118,-6682523 -14060,-6682557 -14026,-6682581 -14015,-6682591 -13979,-6682593 -13893,-6682600 -13435,-6682642 -13271,-6682654 -13236,-6682639 -13225,-6682657 -13206,-6682690 -13178,-6682660 -13056,-6682669 -13049,-6682672 -13012,-6682683 -13020,-6682843 -13062,-6682841 -13063,-6682850 -13083,-6683015 -13122,-6683208 -13135,-6683284 -13150,-6683350 -13165,-6683447 -13174,-6683548 -13190,-6683663 -13214,-6683799 -13245,-6683932 -13255,-6683986 -13256,-6683999 -13375,-6683982 -13390,-6684059 -13413,-6684182 -13436,-6684364 -13465,-6684532 -13514,-6684817 -13822,-6684764 -13831,-6684792 -13864,-6684928 -13860,-6684933 -13858,-6684934 -13879,-6685014 -13880,-6685020 -13740,-6685071 -13727,-6685029 -13569,-6685054 -13562,-6685055 -13658,-6685159 -13681,-6685207 -13626,-6685218 -13621,-6685219 -13618,-6685208 -13567,-6685218 -13560,-6685219 -13578,-6685312 -13579,-6685316 -13567,-6685320 -13584,-6685396 -13518,-6685410 -13509,-6685412 -13520,-6685453 -13505,-6685490 -13531,-6685601 -13519,-6685605 -13510,-6685608 -13506,-6685609 -13514,-6685636 -13515,-6685639 -13479,-6685672 -13488,-6685718 -13494,-6685758 -13497,-6685777 -13458,-6685812 -13500,-6686066 -13519,-6686062 -13518,-6686051 -13518,-6686047 -13525,-6686045 -13617,-6686029 -13619,-6686029 -13623,-6686040 -13633,-6686065 -13653,-6686086 -13696,-6686124 -13741,-6686147 -13807,-6686162 -13810,-6686175 -13812,-6686184 -13697,-6686221 -13588,-6686257 -13589,-6686280 -13589,-6686338 -13592,-6686388 -13602,-6686458 -13615,-6686522 -13619,-6686540 -13632,-6686584 -13635,-6686602 -13645,-6686628 -13653,-6686658 -13655,-6686680 -13680,-6686829 -13692,-6686924 -13699,-6686950 -13711,-6686997 -13719,-6687048 -13721,-6687062 -13723,-6687077 -13729,-6687103 -13729,-6687116 -13721,-6687126 -13722,-6687161 -13721,-6687167 -13722,-6687179 -13723,-6687200 -13727,-6687217 -13754,-6687262 -13764,-6687278 -13826,-6687407 -13881,-6687519 -13886,-6687530 -13875,-6687533 -13859,-6687536 -13863,-6687575 -13867,-6687614 -13883,-6687658 -13917,-6687678 -13997,-6687719 -14083,-6687772 -14219,-6687846 -14220,-6687847 -14229,-6687852 -14155,-6687868 -14098,-6687880 -14117,-6687973 -14119,-6687982 -14060,-6687984 -14049,-6687984 -14020,-6687998 -14017,-6687998 -14004,-6688004 -14030,-6688087 -14039,-6688085 -14048,-6688083 -14048,-6688084 -14085,-6688193 -14095,-6688238 -14109,-6688287 -14130,-6688313 -14141,-6688362 -14170,-6688501 -14199,-6688636 -14223,-6688741 -14233,-6688792 -14242,-6688835 -14254,-6688877 -14272,-6688907 -14318,-6688961 -14430,-6689097 -14500,-6689182 -14501,-6689184 -14502,-6689184 -14372,-6689219 -14319,-6689233 -14334,-6689274 -14345,-6689323 -14356,-6689394 -14363,-6689399 -14369,-6689455 -14395,-6689618 -14406,-6689665 -14416,-6689731 -14408,-6689752 -14386,-6689755 -14376,-6689758 -14372,-6689760 -14350,-6689769 -14340,-6689773 -14330,-6689796 -14340,-6689801 -14444,-6689857 -14542,-6689905 -14533,-6689914 -14493,-6689957 -14466,-6689986 -14443,-6690023 -14420,-6690058 -14412,-6690070 -14437,-6690100 -14459,-6690123 -14486,-6690150 -14558,-6690227 -14595,-6690264 -14597,-6690266 -14676,-6690345 -14677,-6690352 -14700,-6690369 -14740,-6690413 -14792,-6690459 -14831,-6690491 -14810,-6690524 -14765,-6690590 -14761,-6690595 -14770,-6690600 -14784,-6690609 -14804,-6690622 -14856,-6690656 -14913,-6690695 -14934,-6690710 -14957,-6690725 -14958,-6690726 -14956,-6690730 -14949,-6690738 -14945,-6690744 -14921,-6690771 -14907,-6690785 -14891,-6690798 -14862,-6690819 -14837,-6690834 -14700,-6690929 -14496,-6691061 -14422,-6691114 -14330,-6691193 -14346,-6691193 -14370,-6691191 -14416,-6691212 -14434,-6691223 -14398,-6691255 -14313,-6691341 -14236,-6691417 -14146,-6691521 -14072,-6691617 -13933,-6691798 -13858,-6691893 -13839,-6691910 -13817,-6691931 -13861,-6691969 -13847,-6691988 -13855,-6691995 -13871,-6692016 -13887,-6692026 -13913,-6692038 -13942,-6692048 -13992,-6692054 -13989,-6692064 -13967,-6692128 -13960,-6692142 -13958,-6692146 -13956,-6692151 -13955,-6692162 -13954,-6692170 -13960,-6692182 -13983,-6692224 -14014,-6692280 -14039,-6692327 -14048,-6692342 -14058,-6692356 -14081,-6692389 -14095,-6692411 -14107,-6692429 -14138,-6692475 -14159,-6692508 -14191,-6692563 -14206,-6692594 -14214,-6692605 -14222,-6692615 -14220,-6692616 -14216,-6692619 -14244,-6692659 -14247,-6692659 -14249,-6692660 -14276,-6692689 -14283,-6692696 -14300,-6692727 -14318,-6692751 -14344,-6692778 -14385,-6692816 -14405,-6692834 -14522,-6692937 -14524,-6692941 -14527,-6692946 -14537,-6692978 -14539,-6692988 -14544,-6693000 -14570,-6693035 -14598,-6693068 -14603,-6693075 -14611,-6693086 -14614,-6693096 -14616,-6693102 -14639,-6693235 -14641,-6693244 -14625,-6693250 -14629,-6693284 -14633,-6693293 -14635,-6693295 -14654,-6693311 -14726,-6693592 -14744,-6693856 -14720,-6693859 -14686,-6693865 -14692,-6693925 -14695,-6693945 -14696,-6693950 -14699,-6693966 -14701,-6693992 -14615,-6694000 -14614,-6694002 -14611,-6694052 -14575,-6694053 -14525,-6694058 -14524,-6694059 -14410,-6694065 -14410,-6694114 -14397,-6694116 -14376,-6694154 -14350,-6694208 -14330,-6694249 -14313,-6694281 -14317,-6694289 -14306,-6694305 -14304,-6694310 -14299,-6694321 -14281,-6694317 -14271,-6694310 -14267,-6694307 -14250,-6694358 -14224,-6694471 -14215,-6694500 -14203,-6694534 -14194,-6694553 -14218,-6694554 -14182,-6694585 -14172,-6694591 -14091,-6694638 -14053,-6694663 -14052,-6694663 -14048,-6694660 -14025,-6694637 -13999,-6694610 -13987,-6694634 -13977,-6694660 -13905,-6694728 -13856,-6694740 -13852,-6694741 -13857,-6694761 -13861,-6694779 -13859,-6694797 -13855,-6694824 -13851,-6694855 -13844,-6694855 -13835,-6694886 -13822,-6694925 -13808,-6694963 -13791,-6694967 -13764,-6694970 -13734,-6694982 -13703,-6695018 -13691,-6695038 -13688,-6695043 -13642,-6695039 -13631,-6695038 -13633,-6695068 -13637,-6695074 -13634,-6695081 -13631,-6695086 -13608,-6695123 -13600,-6695134 -13570,-6695175 -13545,-6695210 -13533,-6695245 -13530,-6695254 -13520,-6695274 -13503,-6695304 -13490,-6695328 -13481,-6695350 -13472,-6695368 -13463,-6695382 -13458,-6695390 -13450,-6695386 -13441,-6695398 -13444,-6695400 -13450,-6695404 -13449,-6695405 -13449,-6695405 -13442,-6695416 -13431,-6695435 -13408,-6695489 -13392,-6695530 -13380,-6695572 -13370,-6695599 -13361,-6695623 -13357,-6695669 -13338,-6695712 -13300,-6695744 -13254,-6695777 -13229,-6695795 -13183,-6695828 -13173,-6695836 -13158,-6695849 -13144,-6695861 -13115,-6695887 -13108,-6695893 -13104,-6695890 -13033,-6695939 -13013,-6695950 -12972,-6695973 -12928,-6695992 -12899,-6696010 -12878,-6696029 -12864,-6696042 -12848,-6696068 -12841,-6696076 -12835,-6696090 -12782,-6696144 -12784,-6696148 -12752,-6696196 -12747,-6696213 -12744,-6696222 -12742,-6696222 -12738,-6696223 -12738,-6696223 -12712,-6696271 -12702,-6696289 -12696,-6696298 -12685,-6696328 -12683,-6696336 -12667,-6696364 -12609,-6696419 -12579,-6696447 -12548,-6696485 -12544,-6696502 -12541,-6696504 -12470,-6696497 -12411,-6696492 -12342,-6696486" stroke="white" stroke-width="42" /></ns0:svg>    <rect x="20" y="50"  width="250" height="25"  rx="0"  fill="#E8EDEE" fill-opacity="0.8" />    <text x="145" y="70" text-anchor="middle" font-family="Frutiger" font-weight="bold" font-size="30" fill="#AE2573">Croydon</text>    <rect x="35" y="195" width="220" height="160" rx="15" fill="#724F95"/>    <g font-family="Frutiger" font-size="15" fill="white">        <g> <text x="45" y="218">Self-harm</text> <text x="245" y="218" text-anchor="end">16</text> </g>        <g> <text x="45" y="243">SEN</text> <text x="245" y="243" text-anchor="end">40</text> </g>        <g> <text x="45" y="268">Difficulties</text> <text x="245" y="268" text-anchor="end">54</text> </g>        <g> <text x="45" y="293">Child Carer</text> <text x="245" y="293" text-anchor="end">8</text> </g>        <g> <text x="45" y="318">Drinkers</text> <text x="245" y="318" text-anchor="end">22</text> </g>        <g> <text x="45" y="343">Safeguarding £</text> <text x="245" y="343" text-anchor="end">49</text> </g>    </g></svg>