<?xml version="1.0" standalone="no"?>
<!DOCTYPE svg PUBLIC "-//W3C//DTD SVG 1.1//EN"
"http://www.w3.org/Graphics/SVG/1.1/DTD/svg11.dtd">
<svg height="390" version="1.1" width="290" xmlns="http://www.w3.org/2000/svg"><defs><style type="text/css">@font-face {font-family: 'Frutiger';font-style: normal;font-weight: normal;src: local('Frutiger'), url('../fonts/Frutiger.woff') format('woff');}@font-face {font-family: 'Frutiger Bold';font-style: normal;font-weight: normal;src: local('Frutiger Bold'), url('../fonts/Frutiger_bold.woff') format('woff');}        </style>    </defs>    <rect x="20" y="20"  width="250" height="350" rx="15" fill="#005EB8" />    <rect x="35" y="35"  width="220" height="145" rx="15" fill="white" /><ns0:svg xmlns:ns0="http://www.w3.org/2000/svg" height="115" version="1.1" viewBox="-16832 -6711984 8118 17667" width="220" x="35" y="50"><ns0:polygon fill="#003087" points=" -12115,-6711662 -12108,-6711597 -12085,-6711605 -12076,-6711606 -12066,-6711556 -12064,-6711547 -12052,-6711491 -12046,-6711472 -12039,-6711454 -11948,-6711482 -11863,-6711166 -11862,-6711165 -11848,-6711110 -11845,-6711083 -11845,-6711057 -11849,-6711023 -11857,-6710989 -11860,-6710980 -11863,-6710943 -11854,-6710870 -11841,-6710822 -11959,-6710758 -11880,-6710616 -11812,-6710670 -11806,-6710650 -11802,-6710625 -11804,-6710613 -11806,-6710606 -11809,-6710600 -11791,-6710585 -11795,-6710578 -11855,-6710502 -11875,-6710517 -11888,-6710501 -12002,-6710362 -12040,-6710314 -12045,-6710307 -12059,-6710281 -12144,-6710059 -12183,-6709950 -12188,-6709928 -12188,-6709926 -12275,-6709660 -12276,-6709654 -12275,-6709643 -12402,-6709584 -12350,-6709428 -12348,-6709414 -12332,-6709400 -12316,-6709398 -12307,-6709395 -12298,-6709391 -12175,-6709317 -11926,-6709175 -11768,-6709091 -11723,-6709077 -11674,-6709061 -11673,-6709058 -11662,-6709024 -11652,-6708980 -11632,-6708955 -11618,-6708919 -11603,-6708878 -11601,-6708875 -11586,-6708833 -11568,-6708780 -11561,-6708783 -11544,-6708791 -11542,-6708788 -11527,-6708768 -11508,-6708749 -11521,-6708733 -11480,-6708694 -11507,-6708667 -11480,-6708642 -11491,-6708619 -11492,-6708619 -11506,-6708587 -11552,-6708513 -11595,-6708436 -11653,-6708351 -11722,-6708244 -11743,-6708211 -12033,-6707743 -12070,-6707689 -12050,-6707670 -12034,-6707653 -12018,-6707638 -12002,-6707627 -11858,-6707531 -11836,-6707517 -11858,-6707482 -11865,-6707453 -11879,-6707418 -11900,-6707369 -11933,-6707296 -11905,-6707282 -11888,-6707273 -11833,-6707232 -11759,-6707173 -11756,-6707170 -11786,-6707140 -11801,-6707125 -11756,-6707078 -11732,-6707037 -11722,-6707018 -11716,-6707018 -11703,-6707018 -11674,-6706971 -11643,-6706926 -11645,-6706904 -11643,-6706900 -11579,-6706805 -11583,-6706804 -11686,-6706784 -11747,-6706771 -12013,-6706720 -12029,-6706717 -12039,-6706714 -12043,-6706711 -12046,-6706706 -12047,-6706696 -12044,-6706692 -12027,-6706680 -12021,-6706676 -12003,-6706664 -11930,-6706616 -11747,-6706491 -11532,-6706347 -11297,-6706201 -11128,-6706084 -11141,-6706059 -11147,-6706044 -11166,-6705978 -11194,-6705711 -11205,-6705653 -11201,-6705632 -11198,-6705620 -11192,-6705608 -11170,-6705569 -11104,-6705468 -11078,-6705402 -11059,-6705325 -11045,-6705261 -11037,-6705247 -11008,-6705201 -10810,-6704980 -10683,-6704835 -10580,-6704892 -10549,-6704919 -10511,-6704950 -10497,-6704963 -10483,-6704976 -10472,-6704988 -10468,-6704995 -10461,-6705012 -10430,-6705142 -10423,-6705163 -10419,-6705172 -10404,-6705196 -10358,-6705236 -10353,-6705219 -10352,-6705216 -10343,-6705025 -10341,-6704990 -10333,-6704882 -10325,-6704842 -10320,-6704824 -10318,-6704816 -10268,-6704693 -10143,-6704429 -10031,-6704198 -10026,-6704179 -10024,-6704169 -10023,-6704156 -10023,-6704141 -10027,-6704093 -10090,-6703658 -10120,-6703575 -10141,-6703525 -10187,-6703425 -10262,-6703269 -10274,-6703254 -10299,-6703218 -10322,-6703197 -10332,-6703187 -10342,-6703173 -10360,-6703146 -10422,-6703070 -10477,-6702996 -10524,-6702920 -10542,-6702892 -10557,-6702866 -10575,-6702828 -10586,-6702800 -10589,-6702793 -10595,-6702779 -10628,-6702690 -10646,-6702641 -10665,-6702606 -10706,-6702562 -10747,-6702511 -10818,-6702428 -10862,-6702382 -10889,-6702361 -10972,-6702300 -11030,-6702247 -11134,-6702134 -11198,-6702067 -11233,-6702024 -11241,-6702007 -11253,-6701973 -11258,-6701957 -11244,-6701857 -11244,-6701834 -11247,-6701820 -11252,-6701804 -11277,-6701747 -11283,-6701733 -11292,-6701705 -11293,-6701686 -11293,-6701668 -11291,-6701650 -11287,-6701632 -11282,-6701614 -11278,-6701601 -11276,-6701597 -11255,-6701562 -11235,-6701525 -11226,-6701504 -11221,-6701489 -11218,-6701476 -11216,-6701464 -11217,-6701400 -11214,-6701346 -11213,-6701338 -11164,-6701337 -11151,-6701339 -11145,-6701339 -11136,-6701338 -11128,-6701335 -11120,-6701331 -11113,-6701325 -11107,-6701318 -11098,-6701300 -11089,-6701283 -11080,-6701258 -11065,-6701200 -11064,-6701176 -11062,-6701166 -11056,-6701140 -11051,-6701129 -11045,-6701119 -11005,-6701057 -10956,-6701002 -10901,-6700949 -10842,-6700884 -10695,-6700701 -10673,-6700659 -10650,-6700615 -10600,-6700516 -10588,-6700487 -10583,-6700472 -10576,-6700442 -10575,-6700427 -10573,-6700403 -10574,-6700368 -10577,-6700336 -10576,-6700324 -10574,-6700304 -10567,-6700272 -10517,-6700104 -10472,-6700000 -10461,-6699977 -10438,-6699933 -10420,-6699899 -10389,-6699847 -10372,-6699813 -10350,-6699750 -10335,-6699689 -10323,-6699646 -10298,-6699554 -10267,-6699425 -10242,-6699337 -10237,-6699313 -10227,-6699285 -10220,-6699272 -10208,-6699251 -10181,-6699195 -10148,-6699112 -10125,-6699034 -10089,-6698902 -10080,-6698864 -10067,-6698799 -10040,-6698629 -10018,-6698491 -9970,-6698208 -9938,-6698033 -9892,-6697807 -9848,-6697658 -9828,-6697612 -9818,-6697593 -9806,-6697576 -9779,-6697549 -9757,-6697532 -9710,-6697508 -9638,-6697483 -9584,-6697458 -9575,-6697457 -9570,-6697454 -9561,-6697447 -9558,-6697443 -9555,-6697438 -9554,-6697429 -9558,-6697407 -9564,-6697387 -9577,-6697361 -9581,-6697346 -9581,-6697338 -9580,-6697330 -9578,-6697322 -9575,-6697314 -9569,-6697306 -9559,-6697298 -9547,-6697293 -9508,-6697261 -9488,-6697241 -9487,-6697238 -9478,-6697222 -9454,-6697167 -9420,-6697091 -9389,-6697021 -9356,-6696948 -9332,-6696888 -9312,-6696819 -9306,-6696769 -9305,-6696734 -9301,-6696665 -9296,-6696584 -9293,-6696535 -9291,-6696479 -9289,-6696461 -9285,-6696462 -9219,-6696485 -9128,-6696519 -9100,-6696528 -9094,-6696526 -9091,-6696516 -9031,-6696342 -9002,-6696255 -8997,-6696257 -8940,-6696279 -8911,-6696291 -8886,-6696307 -8883,-6696302 -8861,-6696261 -8848,-6696238 -8843,-6696227 -8783,-6696206 -8808,-6696137 -8820,-6696101 -8821,-6696089 -8819,-6696085 -8816,-6696077 -8813,-6696075 -8809,-6696071 -8714,-6696034 -8716,-6696029 -8717,-6696026 -8725,-6695998 -8729,-6695972 -8735,-6695935 -8739,-6695929 -8742,-6695924 -8745,-6695902 -8741,-6695898 -8755,-6695894 -8802,-6695881 -8827,-6695875 -8870,-6695869 -8912,-6695867 -8935,-6695867 -8968,-6695868 -9096,-6695880 -9163,-6695884 -9222,-6695877 -9224,-6695877 -9273,-6695866 -9336,-6695847 -9460,-6695810 -9519,-6695798 -9555,-6695795 -9579,-6695795 -9591,-6695796 -9617,-6695801 -9639,-6695809 -9662,-6695821 -9678,-6695832 -9767,-6695882 -9794,-6695899 -9814,-6695912 -9843,-6695937 -9909,-6696023 -9945,-6696070 -9969,-6696097 -9984,-6696110 -9995,-6696119 -10005,-6696126 -10020,-6696135 -10037,-6696144 -10109,-6696188 -10138,-6696208 -10171,-6696233 -10212,-6696269 -10254,-6696322 -10272,-6696346 -10320,-6696379 -10350,-6696393 -10372,-6696402 -10398,-6696412 -10421,-6696419 -10452,-6696425 -10472,-6696427 -10499,-6696428 -10526,-6696428 -10554,-6696425 -10704,-6696418 -10784,-6696401 -10821,-6696395 -10852,-6696390 -10885,-6696387 -10918,-6696385 -10949,-6696384 -10996,-6696385 -11145,-6696387 -11215,-6696385 -11599,-6696398 -11642,-6696397 -11698,-6696391 -11774,-6696385 -11795,-6696385 -11803,-6696385 -11817,-6696387 -11854,-6696392 -11910,-6696407 -12007,-6696437 -12096,-6696468 -12154,-6696485 -12172,-6696489 -12198,-6696491 -12225,-6696488 -12235,-6696488 -12249,-6696487 -12296,-6696484 -12342,-6696486 -12411,-6696492 -12470,-6696497 -12541,-6696504 -12544,-6696502 -12548,-6696485 -12579,-6696447 -12609,-6696419 -12667,-6696364 -12683,-6696336 -12685,-6696328 -12696,-6696298 -12702,-6696289 -12712,-6696271 -12738,-6696223 -12738,-6696223 -12742,-6696222 -12744,-6696222 -12747,-6696213 -12752,-6696196 -12784,-6696148 -12782,-6696144 -12835,-6696090 -12841,-6696076 -12848,-6696068 -12864,-6696042 -12878,-6696029 -12899,-6696010 -12928,-6695992 -12972,-6695973 -13013,-6695950 -13033,-6695939 -13104,-6695890 -13108,-6695893 -13115,-6695887 -13144,-6695861 -13158,-6695849 -13173,-6695836 -13183,-6695828 -13229,-6695795 -13254,-6695777 -13300,-6695744 -13338,-6695712 -13357,-6695669 -13361,-6695623 -13370,-6695599 -13380,-6695572 -13392,-6695530 -13408,-6695489 -13431,-6695435 -13442,-6695416 -13449,-6695405 -13449,-6695405 -13450,-6695404 -13444,-6695400 -13441,-6695398 -13450,-6695386 -13458,-6695390 -13463,-6695382 -13472,-6695368 -13481,-6695350 -13490,-6695328 -13503,-6695304 -13520,-6695274 -13530,-6695254 -13533,-6695245 -13545,-6695210 -13570,-6695175 -13600,-6695134 -13608,-6695123 -13631,-6695086 -13634,-6695081 -13637,-6695074 -13633,-6695068 -13631,-6695038 -13642,-6695039 -13688,-6695043 -13691,-6695038 -13703,-6695018 -13734,-6694982 -13764,-6694970 -13791,-6694967 -13808,-6694963 -13822,-6694925 -13835,-6694886 -13844,-6694855 -13851,-6694855 -13855,-6694824 -13859,-6694797 -13861,-6694779 -13857,-6694761 -13852,-6694741 -13856,-6694740 -13905,-6694728 -13977,-6694660 -13987,-6694634 -13999,-6694610 -14025,-6694637 -14048,-6694660 -14052,-6694663 -14053,-6694663 -14091,-6694638 -14172,-6694591 -14182,-6694585 -14218,-6694554 -14219,-6694552 -14221,-6694543 -14233,-6694498 -14237,-6694499 -14702,-6694550 -14770,-6694560 -14825,-6694583 -14866,-6694600 -14865,-6694601 -14856,-6694623 -14844,-6694650 -14842,-6694655 -14866,-6694664 -14884,-6694619 -14886,-6694615 -14888,-6694609 -14892,-6694597 -14895,-6694571 -14898,-6694526 -14898,-6694512 -14905,-6694466 -14924,-6694321 -14925,-6694317 -14961,-6694333 -15002,-6694351 -15027,-6694357 -15049,-6694359 -15078,-6694359 -15126,-6694373 -15209,-6694400 -15308,-6694436 -15370,-6694462 -15389,-6694475 -15417,-6694489 -15434,-6694497 -15512,-6694533 -15515,-6694534 -15531,-6694538 -15583,-6694562 -15716,-6694633 -15809,-6694697 -15869,-6694737 -15879,-6694738 -15919,-6694704 -16053,-6694599 -16071,-6694585 -16081,-6694582 -16091,-6694579 -16096,-6694571 -16116,-6694568 -16119,-6694567 -16123,-6694567 -16157,-6694594 -16194,-6694595 -16230,-6694596 -16339,-6694597 -16420,-6694629 -16482,-6694653 -16460,-6694685 -16429,-6694733 -16424,-6694741 -16397,-6694780 -16370,-6694819 -16346,-6694844 -16325,-6694861 -16295,-6694888 -16265,-6694916 -16213,-6694967 -16159,-6695017 -16065,-6695095 -16066,-6695096 -16101,-6695136 -16139,-6695176 -16129,-6695187 -15997,-6695328 -15921,-6695412 -15944,-6695437 -15759,-6695643 -15626,-6695791 -15527,-6695903 -15475,-6695960 -15416,-6696029 -15378,-6696077 -15342,-6696123 -15392,-6696287 -15416,-6696394 -15418,-6696402 -15451,-6696574 -15455,-6696607 -15461,-6696742 -15463,-6696777 -15462,-6696868 -15456,-6697013 -15444,-6697144 -15419,-6697353 -15413,-6697411 -15407,-6697488 -15404,-6697546 -15403,-6697633 -15399,-6697706 -15402,-6697771 -15401,-6697792 -15401,-6697792 -15402,-6697797 -15403,-6697810 -15327,-6697799 -15272,-6697791 -15215,-6697780 -15128,-6697767 -15080,-6697759 -15067,-6697757 -15062,-6697756 -15054,-6697770 -15065,-6697827 -15091,-6697926 -15122,-6698061 -15153,-6698219 -15187,-6698394 -15194,-6698410 -15212,-6698411 -15240,-6698413 -15314,-6698390 -15343,-6698385 -15384,-6698435 -15482,-6698570 -15525,-6698635 -15542,-6698660 -15548,-6698682 -15555,-6698722 -15560,-6698760 -15568,-6698828 -15578,-6698939 -15572,-6698964 -15552,-6699015 -15512,-6699061 -15506,-6699067 -15483,-6699087 -15468,-6699096 -15415,-6699126 -15393,-6699148 -15359,-6699186 -15338,-6699214 -15323,-6699243 -15304,-6699286 -15292,-6699333 -15290,-6699386 -15290,-6699389 -15281,-6699441 -15276,-6699449 -15276,-6699455 -15281,-6699460 -15279,-6699472 -15300,-6699498 -15302,-6699503 -15305,-6699514 -15303,-6699523 -15301,-6699531 -15296,-6699534 -15289,-6699557 -15253,-6699543 -15253,-6699543 -15249,-6699541 -15226,-6699603 -15213,-6699627 -15183,-6699700 -15148,-6699772 -15130,-6699815 -15125,-6699855 -15134,-6699856 -15139,-6699855 -15180,-6699838 -15182,-6699833 -15220,-6699819 -15287,-6699804 -15289,-6699804 -15346,-6699799 -15475,-6699801 -15671,-6699807 -15761,-6699809 -15844,-6699812 -15890,-6699813 -15946,-6699818 -15984,-6699825 -16007,-6699907 -16027,-6699970 -16064,-6700076 -16079,-6700115 -16093,-6700158 -16110,-6700195 -16122,-6700226 -16154,-6700294 -16183,-6700375 -16205,-6700460 -16215,-6700538 -16215,-6700545 -16214,-6700547 -16204,-6700561 -16203,-6700567 -16201,-6700624 -16187,-6700722 -16170,-6700805 -16157,-6700864 -16131,-6700968 -16115,-6701022 -16099,-6701051 -16034,-6701109 -15984,-6701158 -15955,-6701194 -15924,-6701245 -15910,-6701268 -15895,-6701293 -15869,-6701343 -15853,-6701383 -15845,-6701417 -15841,-6701455 -15840,-6701460 -15932,-6701478 -15983,-6701491 -16001,-6701499 -16096,-6701547 -16313,-6701644 -16401,-6701682 -16442,-6701700 -16403,-6701812 -16431,-6701813 -16433,-6701813 -16448,-6701972 -16467,-6702130 -16472,-6702153 -16469,-6702166 -16469,-6702199 -16481,-6702347 -16489,-6702428 -16509,-6702569 -16510,-6702588 -16513,-6702598 -16546,-6702696 -16579,-6702790 -16580,-6702791 -16607,-6702868 -16617,-6702907 -16627,-6702955 -16658,-6703291 -16660,-6703302 -16661,-6703306 -16671,-6703335 -16687,-6703374 -16701,-6703403 -16737,-6703472 -16746,-6703491 -16754,-6703511 -16768,-6703551 -16776,-6703580 -16783,-6703614 -16802,-6703754 -16804,-6703776 -16805,-6703824 -16832,-6704120 -16747,-6704137 -16758,-6704199 -16766,-6704367 -16766,-6704391 -16763,-6704430 -16733,-6704442 -16631,-6704501 -16394,-6704653 -16262,-6704737 -15942,-6704939 -15927,-6704949 -15879,-6704867 -15758,-6704969 -15748,-6704977 -15780,-6705018 -15691,-6705086 -15620,-6705140 -15567,-6705092 -15553,-6705100 -15505,-6705127 -15521,-6705152 -15535,-6705163 -15537,-6705165 -15526,-6705177 -15520,-6705176 -15500,-6705189 -15493,-6705191 -15488,-6705188 -15477,-6705194 -15442,-6705213 -15440,-6705198 -15434,-6705189 -15416,-6705195 -15398,-6705206 -15389,-6705214 -15364,-6705236 -15342,-6705266 -15302,-6705320 -15238,-6705408 -15210,-6705380 -15191,-6705360 -15179,-6705350 -15178,-6705349 -15176,-6705347 -15174,-6705345 -15173,-6705344 -15171,-6705342 -15169,-6705341 -15167,-6705340 -15165,-6705338 -15145,-6705338 -15126,-6705339 -15112,-6705341 -15103,-6705344 -15091,-6705350 -15064,-6705369 -15051,-6705384 -15033,-6705410 -15002,-6705451 -14997,-6705448 -14994,-6705447 -14976,-6705472 -14968,-6705507 -14969,-6705530 -14969,-6705533 -14973,-6705549 -14967,-6705551 -14963,-6705557 -14965,-6705565 -14973,-6705570 -14992,-6705584 -15017,-6705600 -15050,-6705622 -15011,-6705688 -15009,-6705691 -15020,-6705697 -14993,-6705742 -14972,-6705729 -14971,-6705731 -14941,-6705780 -14926,-6705799 -14920,-6705848 -14911,-6705863 -14901,-6705871 -14901,-6705903 -14895,-6705919 -14874,-6705971 -14838,-6706053 -14813,-6706109 -14761,-6706223 -14721,-6706312 -14703,-6706353 -14698,-6706364 -14690,-6706363 -14690,-6706364 -14687,-6706369 -14677,-6706396 -14672,-6706415 -14662,-6706451 -14648,-6706492 -14640,-6706509 -14625,-6706539 -14618,-6706551 -14598,-6706572 -14578,-6706600 -14563,-6706633 -14542,-6706679 -14540,-6706683 -14533,-6706682 -14531,-6706686 -14517,-6706723 -14509,-6706743 -14508,-6706745 -14507,-6706746 -14503,-6706750 -14493,-6706759 -14489,-6706762 -14462,-6706854 -14408,-6706887 -14376,-6706906 -14316,-6706936 -14244,-6706976 -14190,-6707005 -14179,-6707074 -14165,-6707158 -14152,-6707243 -14140,-6707292 -14120,-6707335 -14063,-6707441 -14082,-6707449 -14140,-6707466 -14215,-6707487 -14250,-6707491 -14265,-6707490 -14287,-6707531 -14296,-6707546 -14311,-6707568 -14366,-6707644 -14383,-6707665 -14403,-6707687 -14412,-6707696 -14391,-6707714 -14372,-6707737 -14340,-6707774 -14292,-6707830 -14268,-6707863 -14235,-6707909 -14217,-6707931 -14193,-6707957 -14178,-6707977 -14161,-6707998 -14153,-6708010 -14150,-6708013 -14108,-6708073 -14091,-6708102 -14053,-6708171 -13966,-6708321 -13915,-6708412 -13895,-6708450 -13878,-6708480 -13863,-6708510 -13821,-6708606 -13804,-6708646 -13797,-6708664 -13795,-6708681 -13794,-6708703 -13795,-6708748 -13794,-6708776 -13786,-6708806 -13779,-6708832 -13770,-6708857 -13755,-6708880 -13747,-6708897 -13740,-6708914 -13730,-6708945 -13717,-6708987 -13710,-6709016 -13698,-6709058 -13690,-6709090 -13681,-6709159 -13676,-6709189 -13670,-6709242 -13666,-6709278 -13656,-6709326 -13633,-6709482 -13626,-6709540 -13622,-6709592 -13621,-6709702 -13615,-6709806 -13607,-6709904 -13593,-6710038 -13586,-6710115 -13551,-6710442 -13514,-6710789 -13504,-6710879 -13497,-6710926 -13490,-6710998 -13478,-6711084 -13472,-6711117 -13456,-6711181 -13444,-6711233 -13430,-6711269 -13416,-6711294 -13407,-6711312 -13354,-6711412 -13317,-6711478 -13270,-6711545 -13213,-6711613 -13170,-6711667 -13139,-6711697 -13111,-6711721 -13092,-6711731 -13072,-6711743 -13009,-6711779 -12945,-6711820 -12889,-6711846 -12861,-6711859 -12832,-6711871 -12794,-6711884 -12752,-6711898 -12677,-6711917 -12545,-6711947 -12470,-6711959 -12405,-6711966 -12361,-6711971 -12310,-6711975 -12284,-6711976 -12235,-6711979 -12151,-6711984 -12150,-6711976 -12146,-6711941 -12122,-6711728 -12122,-6711724 -12115,-6711662" stroke="#003087" stroke-width="25" /></ns0:svg>    <rect x="20" y="50"  width="250" height="25"  rx="0"  fill="#003087" fill-opacity="0.8" />    <text x="145" y="70" text-anchor="middle" font-family="Frutiger" font-weight="bold" font-size="30" fill="white">Lambeth</text>    <rect x="35" y="195" width="220" height="160" rx="15" fill="#41B6E6"/>    <g font-family="Frutiger" font-size="15" fill="white">        <g> <text x="45" y="218">Self-harm</text> <text x="245" y="218" text-anchor="end">16</text> </g>        <g> <text x="45" y="243">SEN</text> <text x="245" y="243" text-anchor="end">49</text> </g>        <g> <text x="45" y="268">Difficulties</text> <text x="245" y="268" text-anchor="end">60</text> </g>        <g> <text x="45" y="293">Child Carer</text> <text x="245" y="293" text-anchor="end">24</text> </g>        <g> <text x="45" y="318">Drinkers</text> <text x="245" y="318" text-anchor="end">13</text> </g>        <g> <text x="45" y="343">Safeguarding £</text> <text x="245" y="343" text-anchor="end">37</text> </g>    </g></svg>