<?xml version="1.0" standalone="no"?>
<!DOCTYPE svg PUBLIC "-//W3C//DTD SVG 1.1//EN"
"http://www.w3.org/Graphics/SVG/1.1/DTD/svg11.dtd">
<svg height="1800" version="1.1" width="1800" xmlns="http://www.w3.org/2000/svg"><defs><style type="text/css">@font-face {font-family: 'Frutiger';font-style: normal;font-weight: normal;src: local('Frutiger'), url('../fonts/Frutiger.woff') format('woff');}@font-face {font-family: 'Frutiger Bold';font-style: normal;font-weight: normal;src: local('Frutiger Bold'), url('../fonts/Frutiger_bold.woff') format('woff');}        </style>    </defs>    <rect x="20" y="20"  width="250" height="350" rx="15" fill="#009639" />    <rect x="35" y="35"  width="220" height="145" rx="15" fill="#E8EDEE" /><ns0:svg xmlns:ns0="http://www.w3.org/2000/svg" height="115" version="1.1" viewBox="-8356 -6709068 12705 14294" width="220" x="35" y="50"><ns0:polygon fill="#006747" points=" -3310,-6708954 -3295,-6708911 -3262,-6708821 -3226,-6708721 -3157,-6708575 -3132,-6708520 -3096,-6708441 -3060,-6708378 -3034,-6708330 -3014,-6708305 -2980,-6708255 -2957,-6708226 -2889,-6708144 -2793,-6708035 -2762,-6708001 -2745,-6707981 -2713,-6707952 -2684,-6707925 -2649,-6707891 -2619,-6707866 -2615,-6707863 -2606,-6707856 -2691,-6707749 -2736,-6707691 -2750,-6707663 -2753,-6707656 -2763,-6707634 -2783,-6707589 -2802,-6707541 -2803,-6707534 -2804,-6707472 -2812,-6707419 -2813,-6707393 -2844,-6707257 -2862,-6707103 -2871,-6707034 -2878,-6707008 -2886,-6706990 -2898,-6706970 -2932,-6706925 -2936,-6706913 -2748,-6706857 -2575,-6706775 -2570,-6706686 -2565,-6706577 -2504,-6706589 -2264,-6706631 -2270,-6706684 -2225,-6706708 -2104,-6706773 -2081,-6706783 -2065,-6706789 -2045,-6706795 -2018,-6706796 -1986,-6706800 -1961,-6706772 -1902,-6706716 -1897,-6706711 -1873,-6706694 -1873,-6706693 -1879,-6706676 -1885,-6706665 -1892,-6706656 -1901,-6706649 -1915,-6706640 -1941,-6706633 -1961,-6706630 -1975,-6706628 -1995,-6706628 -2033,-6706624 -2042,-6706621 -2050,-6706617 -2058,-6706610 -2064,-6706603 -2071,-6706592 -2100,-6706557 -2108,-6706545 -2111,-6706537 -2115,-6706526 -2119,-6706499 -2126,-6706455 -2126,-6706426 -2127,-6706392 -2125,-6706371 -2127,-6706343 -2130,-6706315 -2134,-6706277 -2130,-6706247 -2122,-6706210 -2121,-6706199 -2119,-6706178 -2123,-6706166 -2125,-6706152 -2130,-6706143 -2141,-6706137 -2158,-6706129 -2174,-6706125 -2191,-6706123 -2211,-6706114 -2228,-6706105 -2247,-6706094 -2260,-6706086 -2273,-6706074 -2287,-6706058 -2298,-6706041 -2308,-6706025 -2309,-6706018 -2311,-6706010 -2311,-6706009 -2309,-6705992 -2307,-6705970 -2307,-6705967 -2304,-6705948 -2301,-6705915 -2296,-6705901 -2302,-6705887 -2306,-6705871 -2317,-6705854 -2328,-6705845 -2343,-6705843 -2378,-6705840 -2401,-6705838 -2423,-6705837 -2449,-6705835 -2463,-6705829 -2481,-6705819 -2504,-6705815 -2531,-6705813 -2531,-6705813 -2544,-6705806 -2549,-6705795 -2548,-6705784 -2549,-6705764 -2538,-6705701 -2535,-6705666 -2535,-6705654 -2536,-6705621 -2518,-6705619 -2514,-6705588 -2514,-6705586 -2521,-6705568 -2502,-6705565 -2496,-6705586 -2484,-6705586 -2467,-6705581 -2457,-6705578 -2449,-6705573 -2433,-6705562 -2431,-6705561 -2420,-6705575 -2399,-6705559 -2406,-6705548 -2386,-6705538 -2360,-6705525 -2350,-6705518 -2340,-6705510 -2327,-6705497 -2316,-6705485 -2312,-6705478 -2308,-6705471 -2307,-6705465 -2305,-6705454 -2297,-6705430 -2295,-6705427 -2292,-6705425 -2285,-6705422 -2259,-6705423 -2248,-6705420 -2236,-6705414 -2229,-6705407 -2224,-6705395 -2222,-6705390 -2221,-6705378 -2221,-6705365 -2224,-6705353 -2228,-6705343 -2232,-6705334 -2240,-6705323 -2261,-6705288 -2259,-6705279 -2256,-6705264 -2250,-6705246 -2239,-6705231 -2235,-6705227 -2229,-6705223 -2223,-6705221 -2211,-6705218 -2156,-6705222 -2150,-6705215 -2147,-6705211 -2143,-6705202 -2129,-6705118 -2124,-6705075 -2114,-6705059 -2099,-6705068 -2092,-6705053 -2107,-6705047 -2110,-6705046 -2106,-6705013 -2089,-6704989 -2075,-6704971 -2105,-6704950 -2115,-6704965 -2122,-6704961 -2134,-6704954 -2142,-6704945 -2130,-6704901 -2114,-6704867 -2114,-6704866 -2125,-6704847 -2078,-6704804 -2053,-6704785 -2023,-6704771 -1988,-6704762 -1972,-6704759 -1946,-6704754 -1920,-6704750 -1907,-6704738 -1907,-6704738 -1905,-6704730 -1902,-6704721 -1883,-6704687 -1840,-6704718 -1830,-6704686 -1824,-6704676 -1808,-6704652 -1767,-6704596 -1756,-6704584 -1729,-6704557 -1717,-6704545 -1700,-6704525 -1676,-6704505 -1669,-6704505 -1628,-6704540 -1610,-6704553 -1567,-6704583 -1497,-6704635 -1458,-6704666 -1497,-6704745 -1524,-6704794 -1537,-6704817 -1560,-6704865 -1566,-6704877 -1602,-6704976 -1651,-6705106 -1687,-6705172 -1639,-6705193 -1615,-6705198 -1614,-6705198 -1615,-6705237 -1616,-6705240 -1584,-6705306 -1563,-6705334 -1519,-6705301 -1484,-6705283 -1460,-6705279 -1430,-6705276 -1390,-6705274 -1297,-6705283 -1146,-6705312 -1119,-6705322 -1006,-6705344 -987,-6705345 -956,-6705348 -903,-6705348 -816,-6705326 -771,-6705317 -741,-6705312 -623,-6705285 -397,-6705234 -258,-6705205 -163,-6705184 -144,-6705181 -129,-6705180 -106,-6705180 -37,-6705184 2,-6705186 43,-6705191 100,-6705202 185,-6705217 319,-6705240 421,-6705260 508,-6705275 605,-6705293 836,-6705335 1029,-6705369 1132,-6705384 1348,-6705423 1512,-6705453 1601,-6705469 1700,-6705487 1899,-6705525 2011,-6705543 2020,-6705544 1982,-6705520 1845,-6705469 1805,-6705454 1787,-6705448 1670,-6705406 1667,-6705359 1672,-6705308 1681,-6705262 1696,-6705197 1712,-6705136 1730,-6705083 1772,-6704967 1799,-6704886 1805,-6704870 1806,-6704865 1806,-6704856 1816,-6704847 1822,-6704841 1835,-6704829 1851,-6704790 1861,-6704765 1853,-6704757 1852,-6704735 1843,-6704701 1820,-6704674 1796,-6704698 1788,-6704706 1787,-6704706 1779,-6704707 1767,-6704715 1765,-6704722 1731,-6704742 1701,-6704759 1671,-6704779 1622,-6704802 1601,-6704810 1564,-6704819 1534,-6704825 1515,-6704825 1505,-6704825 1504,-6704834 1503,-6704837 1449,-6704829 1405,-6704821 1437,-6704641 1451,-6704575 1455,-6704549 1457,-6704520 1455,-6704497 1447,-6704479 1425,-6704452 1415,-6704431 1412,-6704407 1415,-6704384 1423,-6704367 1451,-6704333 1465,-6704312 1477,-6704290 1467,-6704285 1447,-6704276 1431,-6704270 1421,-6704268 1392,-6704258 1348,-6704226 1317,-6704202 1293,-6704189 1278,-6704182 1261,-6704177 1217,-6704163 1199,-6704158 1170,-6704153 1109,-6704140 1015,-6704118 1017,-6704109 1024,-6704063 1020,-6704019 1012,-6703982 1003,-6703936 1003,-6703915 1006,-6703901 1010,-6703887 1018,-6703864 1034,-6703799 1035,-6703790 1039,-6703755 1047,-6703719 1064,-6703653 1073,-6703607 1084,-6703564 1093,-6703517 1096,-6703478 1098,-6703438 1096,-6703377 1094,-6703319 1089,-6703274 1087,-6703226 1096,-6703122 1101,-6703040 1105,-6702989 1110,-6702951 1128,-6702896 1150,-6702832 1165,-6702795 1187,-6702727 1204,-6702685 1227,-6702626 1253,-6702568 1255,-6702563 1269,-6702536 1273,-6702527 1281,-6702511 1281,-6702491 1281,-6702479 1281,-6702477 1284,-6702464 1285,-6702464 1305,-6702452 1329,-6702436 1370,-6702409 1406,-6702386 1447,-6702361 1467,-6702349 1508,-6702330 1564,-6702305 1583,-6702298 1605,-6702290 1651,-6702275 1707,-6702260 1786,-6702236 1948,-6702184 1952,-6702183 1947,-6702139 1945,-6702131 1943,-6702123 1944,-6702103 1944,-6702099 1946,-6702074 1948,-6702062 1950,-6702048 1951,-6702030 1951,-6702017 1962,-6701964 1973,-6701925 1990,-6701866 1998,-6701843 2007,-6701825 2011,-6701819 2043,-6701566 2043,-6701565 2150,-6701584 2177,-6701587 2189,-6701523 2197,-6701496 2200,-6701483 2215,-6701414 2211,-6701413 1686,-6701323 1673,-6701393 1658,-6701390 1679,-6701288 1928,-6701198 2005,-6701177 2136,-6701154 2281,-6701127 2403,-6701106 2443,-6701096 2466,-6701054 2467,-6701044 2471,-6701020 2473,-6701004 2484,-6700971 2496,-6700948 2503,-6700931 2527,-6700863 2543,-6700824 2556,-6700783 2535,-6700772 2399,-6700707 2364,-6700691 2366,-6700515 2369,-6700431 2369,-6700388 2387,-6700329 2395,-6700290 2394,-6700290 2295,-6700248 2351,-6700105 2394,-6699985 2402,-6699981 2460,-6699956 2538,-6699919 2592,-6699888 2634,-6699868 2693,-6699845 2721,-6699836 2749,-6699827 2786,-6699817 2832,-6699807 2921,-6699790 2970,-6699783 2992,-6699778 3039,-6699772 3093,-6699766 3143,-6699770 3182,-6699778 3192,-6699780 3217,-6699786 3219,-6699787 3271,-6699801 3269,-6699790 3240,-6699760 3240,-6699744 3227,-6699724 3218,-6699698 3211,-6699662 3197,-6699617 3184,-6699577 3183,-6699531 3200,-6699451 3217,-6699385 3216,-6699356 3210,-6699324 3210,-6699279 3196,-6699276 2896,-6699204 2893,-6699218 2762,-6699182 2759,-6699167 2761,-6699126 2771,-6699060 2773,-6698998 2778,-6698978 2789,-6698929 2799,-6698921 2818,-6698800 2817,-6698797 2815,-6698784 2827,-6698727 2841,-6698735 2868,-6698781 2927,-6698816 3035,-6698882 3081,-6698881 3085,-6698881 3086,-6698873 3119,-6698870 3178,-6698859 3191,-6698856 3194,-6698855 3195,-6698854 3216,-6698767 3227,-6698690 3233,-6698613 3238,-6698544 3234,-6698489 3221,-6698464 3187,-6698432 3184,-6698430 3243,-6698383 3298,-6698339 3331,-6698312 3327,-6698308 3348,-6698287 3361,-6698271 3372,-6698262 3398,-6698249 3467,-6698195 3493,-6698173 3496,-6698171 3459,-6698104 3470,-6698086 3492,-6698120 3501,-6698135 3513,-6698155 3519,-6698167 3582,-6698132 3589,-6698088 3615,-6698049 3701,-6698110 3754,-6698014 3859,-6698084 4145,-6698274 4196,-6698306 4199,-6698308 4191,-6698230 4187,-6698203 4183,-6698152 4183,-6698142 4181,-6698136 4176,-6698108 4175,-6698083 4179,-6698028 4177,-6697996 4188,-6697972 4179,-6697957 4189,-6697923 4194,-6697908 4201,-6697883 4211,-6697819 4212,-6697808 4214,-6697789 4224,-6697751 4234,-6697716 4252,-6697621 4245,-6697616 4246,-6697613 4257,-6697572 4266,-6697532 4263,-6697496 4270,-6697359 4262,-6697353 4251,-6697344 4214,-6697316 4214,-6697313 4217,-6697282 4219,-6697282 4284,-6697281 4281,-6697206 4296,-6697120 4301,-6697089 4306,-6697089 4319,-6697088 4324,-6697039 4325,-6697011 4337,-6697013 4338,-6697010 4344,-6696941 4346,-6696921 4348,-6696908 4349,-6696884 4348,-6696843 4347,-6696779 4347,-6696759 4324,-6696760 4307,-6696753 4173,-6696561 4031,-6696348 3894,-6696481 3850,-6696531 3825,-6696570 3787,-6696620 3761,-6696656 3734,-6696682 3703,-6696709 3664,-6696739 3621,-6696781 3602,-6696794 3583,-6696806 3505,-6696882 3477,-6696909 3429,-6696939 3375,-6696973 3351,-6696992 3336,-6697010 3295,-6697076 3244,-6697131 3169,-6697205 3032,-6697366 2998,-6697396 2904,-6697485 2831,-6697530 2823,-6697524 2794,-6697500 2725,-6697448 2697,-6697429 2674,-6697419 2643,-6697400 2642,-6697391 2616,-6697369 2584,-6697331 2557,-6697312 2510,-6697283 2481,-6697264 2440,-6697229 2415,-6697207 2397,-6697195 2400,-6697181 2393,-6697176 2355,-6697147 2345,-6697144 2330,-6697142 2330,-6697143 2251,-6697159 2225,-6697169 2194,-6697183 2173,-6697180 2092,-6697184 2072,-6697177 2044,-6697167 2022,-6697165 1994,-6697162 1967,-6697158 1943,-6697148 1919,-6697135 1882,-6697107 1798,-6697041 1789,-6697034 1747,-6697026 1670,-6697025 1624,-6697029 1616,-6697030 1573,-6697028 1590,-6696931 1605,-6696859 1507,-6696833 1488,-6696764 1363,-6696672 1317,-6696649 1296,-6696586 1256,-6696570 1225,-6696548 1192,-6696509 1132,-6696403 1112,-6696369 996,-6696433 967,-6696449 902,-6696469 875,-6696367 838,-6696242 821,-6696171 778,-6696187 765,-6696192 758,-6696168 751,-6696144 767,-6696138 752,-6696092 704,-6696106 684,-6696061 676,-6696048 673,-6696033 671,-6696008 666,-6695978 659,-6695956 653,-6695939 640,-6695912 628,-6695892 615,-6695873 584,-6695803 616,-6695770 601,-6695750 596,-6695744 611,-6695688 634,-6695660 621,-6695649 574,-6695609 391,-6695462 360,-6695494 195,-6695668 122,-6695618 97,-6695597 69,-6695574 60,-6695557 18,-6695527 -5,-6695505 -11,-6695490 -13,-6695488 -15,-6695485 -16,-6695483 -18,-6695480 -19,-6695477 -19,-6695477 -20,-6695474 -20,-6695472 -21,-6695470 -21,-6695468 -21,-6695466 -21,-6695464 -21,-6695462 -21,-6695459 -22,-6695457 -22,-6695455 -22,-6695453 -28,-6695399 -32,-6695311 -32,-6695308 -30,-6695293 -35,-6695272 -53,-6695259 -94,-6695230 -92,-6695225 -81,-6695196 -91,-6695194 -376,-6695151 -378,-6695145 -397,-6695133 -385,-6695088 -362,-6695042 -552,-6694960 -555,-6694974 -556,-6694978 -559,-6694980 -570,-6694990 -570,-6695000 -571,-6695017 -578,-6695030 -599,-6695086 -610,-6695119 -613,-6695173 -664,-6695217 -672,-6695211 -677,-6695206 -697,-6695208 -727,-6695210 -740,-6695120 -743,-6695067 -742,-6695021 -734,-6694972 -841,-6694943 -853,-6694940 -870,-6694936 -907,-6694924 -941,-6694916 -966,-6694903 -990,-6694886 -1004,-6694871 -1017,-6694853 -1025,-6694832 -1170,-6694774 -1315,-6694774 -1420,-6694779 -1501,-6694783 -1584,-6694793 -1585,-6694816 -1585,-6694820 -1598,-6694824 -1597,-6694840 -1617,-6694841 -1590,-6695020 -1589,-6695021 -1586,-6695021 -1572,-6695022 -1572,-6695047 -1572,-6695051 -1602,-6695049 -1691,-6695040 -1761,-6695035 -1829,-6695032 -1841,-6695031 -1876,-6695031 -1930,-6695036 -1999,-6695043 -1998,-6695047 -1983,-6695165 -2252,-6695207 -2257,-6695211 -2263,-6695216 -2275,-6695220 -2283,-6695218 -2288,-6695210 -2289,-6695207 -2300,-6695203 -2339,-6695215 -2339,-6695221 -2339,-6695240 -2386,-6695274 -2389,-6695268 -2414,-6695294 -2441,-6695320 -2466,-6695344 -2416,-6695442 -2507,-6695486 -2443,-6695542 -2405,-6695587 -2388,-6695619 -2377,-6695642 -2369,-6695675 -2364,-6695716 -2361,-6695810 -2359,-6695821 -2356,-6695833 -2344,-6695855 -2339,-6695870 -2336,-6695879 -2324,-6695896 -2313,-6695910 -2310,-6695915 -2339,-6695942 -2345,-6695948 -2372,-6695970 -2402,-6695996 -2409,-6696005 -2405,-6696010 -2330,-6696089 -2328,-6696091 -2370,-6696134 -2457,-6696224 -2472,-6696239 -2475,-6696242 -2485,-6696228 -2490,-6696221 -2507,-6696207 -2513,-6696204 -2526,-6696228 -2549,-6696273 -2570,-6696313 -2574,-6696323 -2608,-6696374 -2636,-6696412 -2660,-6696436 -2689,-6696466 -2716,-6696488 -2754,-6696510 -2792,-6696528 -2834,-6696545 -2846,-6696560 -2854,-6696573 -2863,-6696579 -2865,-6696581 -2866,-6696585 -2868,-6696596 -2871,-6696593 -2891,-6696571 -2893,-6696572 -2912,-6696587 -2984,-6696639 -3007,-6696656 -3022,-6696666 -3049,-6696691 -3090,-6696726 -3091,-6696728 -3092,-6696744 -3094,-6696751 -3096,-6696762 -3102,-6696763 -3160,-6696803 -3277,-6696886 -3297,-6696899 -3313,-6696910 -3348,-6696933 -3363,-6696940 -3369,-6696941 -3383,-6696944 -3403,-6696942 -3450,-6696934 -3559,-6696914 -3552,-6696867 -3539,-6696766 -3600,-6696764 -3670,-6696761 -3685,-6696754 -3712,-6696754 -3735,-6696757 -3735,-6696759 -3736,-6696766 -3744,-6696767 -3808,-6696774 -3808,-6696777 -3807,-6696836 -3811,-6696835 -3836,-6696830 -3880,-6696819 -3961,-6696819 -3990,-6696818 -4022,-6696819 -4059,-6696817 -4169,-6696817 -4200,-6696767 -4236,-6696708 -4261,-6696663 -4280,-6696632 -4295,-6696637 -4334,-6696652 -4398,-6696676 -4428,-6696683 -4441,-6696684 -4485,-6696693 -4529,-6696694 -4568,-6696683 -4582,-6696672 -4600,-6696653 -4635,-6696615 -4640,-6696609 -4628,-6696578 -4765,-6696503 -4769,-6696501 -4777,-6696529 -4785,-6696533 -4819,-6696511 -4845,-6696496 -4870,-6696490 -4875,-6696489 -4860,-6696444 -4942,-6696417 -5149,-6696348 -5147,-6696395 -5119,-6696393 -5119,-6696418 -5119,-6696425 -5216,-6696427 -5256,-6696427 -5256,-6696428 -5254,-6696436 -5402,-6696433 -5423,-6696431 -5463,-6696423 -5488,-6696419 -5537,-6696415 -5563,-6696409 -5605,-6696401 -5617,-6696393 -5645,-6696382 -5702,-6696378 -5760,-6696375 -5759,-6696406 -5759,-6696455 -5764,-6696565 -5770,-6696565 -5844,-6696571 -6095,-6696591 -6096,-6696587 -6107,-6696547 -6136,-6696450 -6207,-6696474 -6209,-6696474 -6212,-6696462 -6213,-6696459 -6265,-6696458 -6277,-6696455 -6278,-6696455 -6295,-6696455 -6312,-6696456 -6318,-6696456 -6343,-6696463 -6425,-6696482 -6467,-6696492 -6467,-6696493 -6462,-6696509 -6468,-6696513 -6501,-6696533 -6595,-6696585 -6632,-6696606 -6662,-6696622 -6674,-6696629 -6834,-6696723 -6842,-6696731 -6841,-6696743 -6851,-6696760 -6837,-6696781 -6858,-6696793 -6896,-6696817 -6917,-6696829 -6935,-6696841 -6966,-6696853 -6967,-6696849 -6989,-6696854 -7001,-6696859 -7061,-6696865 -7061,-6696872 -7064,-6696872 -7169,-6696876 -7180,-6696831 -7188,-6696829 -7195,-6696832 -7218,-6696842 -7218,-6696854 -7219,-6696857 -7239,-6696862 -7241,-6696862 -7264,-6696864 -7292,-6696869 -7326,-6696876 -7351,-6696830 -7426,-6696879 -7447,-6696889 -7507,-6696927 -7563,-6696963 -7567,-6696966 -7559,-6696980 -7557,-6696983 -7594,-6696991 -7640,-6696996 -7643,-6696996 -7654,-6696981 -7660,-6696967 -7664,-6696928 -7703,-6696950 -7745,-6696977 -7820,-6697013 -7824,-6697015 -7827,-6697016 -7829,-6697017 -7834,-6697020 -7838,-6697022 -7843,-6697024 -7848,-6697027 -7853,-6697029 -7857,-6697031 -7862,-6697032 -7863,-6697033 -7871,-6697035 -7879,-6697036 -7887,-6697038 -7895,-6697039 -7898,-6697040 -7906,-6697041 -7914,-6697042 -7922,-6697042 -7939,-6697043 -7962,-6697047 -8003,-6697050 -8036,-6697051 -8054,-6697049 -8099,-6697044 -8131,-6697038 -8167,-6697034 -8195,-6697032 -8213,-6697027 -8219,-6697026 -8224,-6697024 -8227,-6697024 -8227,-6697034 -8233,-6697090 -8253,-6697187 -8271,-6697255 -8289,-6697287 -8323,-6697373 -8339,-6697420 -8349,-6697453 -8356,-6697496 -8351,-6697564 -8342,-6697627 -8338,-6697649 -8334,-6697666 -8188,-6697952 -8108,-6698083 -8097,-6698101 -8091,-6698110 -8082,-6698120 -8072,-6698129 -8063,-6698136 -8054,-6698141 -8036,-6698150 -8020,-6698154 -7968,-6698154 -7938,-6698152 -7913,-6698148 -7894,-6698148 -7866,-6698149 -7833,-6698156 -7810,-6698163 -7787,-6698169 -7747,-6698185 -7737,-6698190 -7680,-6698219 -7633,-6698246 -7539,-6698326 -7472,-6698370 -7423,-6698411 -7360,-6698480 -7348,-6698495 -7341,-6698506 -7334,-6698520 -7325,-6698538 -7320,-6698551 -7300,-6698617 -7279,-6698677 -7242,-6698768 -7210,-6698833 -7189,-6698903 -7183,-6698924 -7180,-6698940 -7173,-6698958 -7168,-6698968 -7162,-6698977 -7148,-6698992 -7139,-6698999 -7119,-6699011 -7071,-6699049 -7061,-6699057 -7061,-6699073 -7070,-6699097 -7088,-6699127 -7088,-6699137 -7091,-6699176 -7093,-6699316 -7099,-6699414 -7127,-6699648 -7152,-6699658 -7196,-6699676 -7235,-6699703 -7189,-6699770 -7152,-6699826 -7145,-6699837 -7140,-6699849 -7130,-6699871 -7107,-6699947 -7091,-6700008 -7084,-6700096 -7093,-6700238 -7089,-6700307 -7081,-6700355 -7064,-6700436 -7050,-6700489 -7037,-6700542 -7019,-6700601 -6999,-6700648 -6962,-6700739 -6937,-6700781 -6923,-6700809 -6907,-6700842 -6879,-6700889 -6830,-6700950 -6784,-6701001 -6640,-6701104 -6571,-6701159 -6530,-6701194 -6522,-6701204 -6464,-6701272 -6404,-6701343 -6291,-6701272 -6168,-6701192 -6091,-6701138 -6045,-6701103 -6017,-6701070 -6009,-6701060 -6003,-6701055 -5998,-6701053 -5984,-6701052 -5968,-6701053 -5961,-6701056 -5948,-6701062 -5904,-6701075 -5669,-6701194 -5555,-6701255 -5492,-6701288 -5461,-6701302 -5420,-6701306 -5367,-6701299 -5313,-6701292 -5222,-6701275 -5174,-6701268 -5134,-6701260 -5103,-6701317 -5060,-6701397 -5026,-6701454 -5028,-6701471 -5020,-6701502 -5006,-6701513 -4992,-6701519 -4951,-6701587 -4882,-6701714 -4857,-6701757 -4804,-6701839 -4782,-6701852 -4722,-6701977 -4633,-6702174 -4653,-6702182 -4668,-6702193 -4683,-6702205 -4755,-6702264 -4834,-6702342 -4965,-6702457 -5006,-6702472 -5135,-6702526 -5129,-6702555 -5118,-6702564 -5093,-6702654 -5089,-6702678 -5086,-6702693 -5075,-6702740 -5043,-6702887 -5040,-6702907 -5033,-6702963 -5026,-6703039 -5020,-6703119 -5019,-6703175 -5018,-6703235 -5020,-6703305 -5027,-6703394 -5032,-6703463 -5045,-6703535 -5057,-6703595 -5086,-6703698 -5117,-6703779 -5141,-6703826 -5158,-6703856 -5183,-6703892 -5203,-6703914 -5233,-6703946 -5265,-6703967 -5291,-6703994 -5309,-6704003 -5400,-6704074 -5363,-6704123 -5410,-6704154 -5457,-6704182 -5497,-6704202 -5521,-6704212 -5526,-6704214 -5552,-6704225 -5594,-6704241 -5620,-6704248 -5662,-6704255 -5654,-6704261 -5633,-6704277 -5627,-6704283 -5674,-6704342 -5710,-6704385 -5710,-6704386 -5688,-6704403 -5661,-6704423 -5673,-6704450 -5724,-6704560 -5750,-6704600 -5790,-6704669 -5817,-6704715 -5802,-6704737 -5761,-6704787 -5750,-6704802 -5750,-6704812 -5763,-6704870 -5783,-6704965 -5805,-6705072 -5870,-6705380 -5870,-6705542 -5868,-6705982 -5863,-6706287 -6044,-6706394 -6002,-6706501 -6003,-6706501 -6010,-6706504 -6008,-6706510 -5975,-6706605 -5974,-6706609 -5969,-6706607 -5966,-6706606 -5955,-6706637 -5950,-6706657 -5949,-6706672 -5954,-6706685 -5960,-6706687 -5960,-6706692 -5960,-6706704 -5943,-6706700 -5937,-6706698 -5936,-6706707 -5940,-6706708 -5953,-6706711 -5954,-6706729 -5951,-6706731 -5944,-6706735 -5931,-6706781 -5926,-6706793 -5921,-6706808 -5917,-6706818 -5914,-6706827 -5915,-6706827 -5926,-6706827 -5924,-6706832 -5910,-6706902 -5902,-6706955 -5899,-6706994 -5894,-6707072 -5890,-6707115 -5876,-6707116 -5876,-6707120 -5876,-6707134 -5881,-6707134 -5892,-6707134 -5892,-6707144 -5891,-6707165 -5894,-6707248 -5888,-6707252 -5888,-6707261 -5874,-6707263 -5878,-6707281 -5884,-6707281 -5895,-6707281 -5895,-6707283 -5910,-6707425 -5898,-6707428 -5893,-6707429 -5897,-6707467 -5897,-6707468 -5901,-6707507 -5907,-6707566 -5915,-6707567 -5918,-6707576 -5924,-6707575 -5932,-6707578 -5944,-6707589 -5958,-6707629 -5959,-6707679 -5912,-6707689 -5917,-6707710 -5905,-6707713 -5891,-6707716 -5891,-6707734 -5890,-6707765 -5888,-6707777 -5885,-6707785 -5881,-6707796 -5879,-6707800 -5883,-6707823 -5886,-6707837 -5889,-6707847 -5896,-6707866 -5900,-6707871 -5914,-6707888 -5917,-6707889 -5925,-6707892 -5932,-6707899 -5942,-6707908 -5954,-6707933 -5959,-6707945 -5978,-6707987 -6005,-6708062 -5884,-6708008 -5855,-6707993 -5854,-6707995 -5841,-6708022 -5831,-6708033 -5805,-6708040 -5799,-6708041 -5757,-6708039 -5708,-6708037 -5687,-6708042 -5648,-6708060 -5645,-6708061 -5634,-6708050 -5614,-6708061 -5605,-6708076 -5597,-6708091 -5601,-6708094 -5575,-6708133 -5581,-6708138 -5781,-6708276 -5726,-6708330 -5691,-6708350 -5654,-6708362 -5601,-6708386 -5524,-6708406 -5531,-6708421 -5491,-6708435 -5480,-6708438 -5476,-6708428 -5290,-6708497 -5295,-6708510 -5180,-6708564 -5180,-6708515 -5180,-6708492 -5136,-6708496 -5109,-6708470 -5099,-6708460 -5064,-6708473 -5019,-6708490 -5021,-6708498 -4979,-6708510 -4977,-6708495 -4959,-6708456 -4956,-6708453 -4950,-6708450 -4754,-6708435 -4712,-6708436 -4697,-6708437 -4729,-6708474 -4488,-6708621 -4567,-6708758 -4457,-6708817 -4512,-6708930 -4511,-6708931 -4491,-6708937 -4446,-6708957 -4442,-6708959 -4438,-6708960 -4435,-6708961 -4431,-6708962 -4427,-6708962 -4424,-6708963 -4420,-6708964 -4416,-6708964 -4415,-6708964 -4411,-6708965 -4407,-6708965 -4403,-6708965 -4400,-6708964 -4396,-6708964 -4392,-6708964 -4388,-6708963 -4385,-6708963 -4381,-6708962 -4377,-6708961 -4374,-6708960 -4370,-6708959 -4367,-6708958 -4363,-6708957 -4359,-6708955 -4357,-6708955 -4353,-6708953 -4348,-6708951 -4344,-6708949 -4340,-6708947 -4335,-6708945 -4331,-6708942 -4327,-6708940 -4322,-6708937 -4318,-6708934 -4314,-6708931 -4310,-6708928 -4307,-6708925 -4305,-6708925 -4301,-6708921 -4297,-6708917 -4292,-6708913 -4288,-6708909 -4284,-6708905 -4280,-6708900 -4276,-6708896 -4272,-6708891 -4270,-6708888 -4253,-6708872 -4241,-6708860 -4237,-6708857 -4233,-6708855 -4229,-6708852 -4226,-6708849 -4222,-6708847 -4218,-6708845 -4214,-6708843 -4210,-6708841 -4205,-6708839 -4201,-6708837 -4197,-6708835 -4193,-6708834 -4188,-6708832 -4188,-6708832 -4184,-6708831 -4181,-6708831 -4178,-6708831 -4174,-6708830 -4171,-6708830 -4168,-6708829 -4157,-6708828 -4150,-6708828 -3919,-6708902 -3707,-6708966 -3704,-6708967 -3698,-6708944 -3660,-6708955 -3620,-6708968 -3623,-6708972 -3605,-6708977 -3566,-6708988 -3552,-6708999 -3454,-6709027 -3385,-6709048 -3330,-6709068 -3316,-6708973 -3310,-6708954" stroke="#006747" stroke-width="26" /></ns0:svg>    <rect x="20" y="50"  width="250" height="25"  rx="0"  fill="#006747" fill-opacity="0.8" />    <text x="145" y="70" text-anchor="middle" font-family="Frutiger" font-weight="bold" font-size="30" fill="white">Lewisham</text>    <rect x="35" y="195" width="220" height="160" rx="15" fill="#78BE20"/>    <g font-family="Frutiger" font-size="15" fill="#231F20">        <g> <text x="45" y="218">Self-harm</text> <text x="245" y="218" text-anchor="end">19</text> </g>        <g> <text x="45" y="243">SEN</text> <text x="245" y="243" text-anchor="end">24</text> </g>        <g> <text x="45" y="268">Difficulties</text> <text x="245" y="268" text-anchor="end">70</text> </g>        <g> <text x="45" y="293">Child Carer</text> <text x="245" y="293" text-anchor="end">8</text> </g>        <g> <text x="45" y="318">Drinkers</text> <text x="245" y="318" text-anchor="end">19</text> </g>        <g> <text x="45" y="343">Safeguarding £</text> <text x="245" y="343" text-anchor="end">18</text> </g>    </g></svg>