<?xml version="1.0" standalone="no"?>
<!DOCTYPE svg PUBLIC "-//W3C//DTD SVG 1.1//EN"
"http://www.w3.org/Graphics/SVG/1.1/DTD/svg11.dtd">
<svg height="1800" version="1.1" width="1800" xmlns="http://www.w3.org/2000/svg"><defs><style type="text/css">@font-face {font-family: 'Frutiger';font-style: normal;font-weight: normal;src: local('Frutiger'), url('../fonts/Frutiger.woff') format('woff');}@font-face {font-family: 'Frutiger Bold';font-style: normal;font-weight: normal;src: local('Frutiger Bold'), url('../fonts/Frutiger_bold.woff') format('woff');}        </style>    </defs>    <rect x="20" y="20"  width="250" height="350" rx="15" fill="#009639" />    <rect x="35" y="35"  width="220" height="145" rx="15" fill="#E8EDEE" /><ns0:svg xmlns:ns0="http://www.w3.org/2000/svg" height="115" version="1.1" viewBox="-28841 -6707696 14778 12172" width="220" x="35" y="50"><ns0:polygon fill="#006747" points=" -14383,-6707665 -14366,-6707644 -14311,-6707568 -14296,-6707546 -14287,-6707531 -14265,-6707490 -14250,-6707491 -14215,-6707487 -14140,-6707466 -14082,-6707449 -14063,-6707441 -14120,-6707335 -14140,-6707292 -14152,-6707243 -14165,-6707158 -14179,-6707074 -14190,-6707005 -14244,-6706976 -14316,-6706936 -14376,-6706906 -14408,-6706887 -14462,-6706854 -14489,-6706762 -14493,-6706759 -14503,-6706750 -14507,-6706746 -14508,-6706745 -14509,-6706743 -14517,-6706723 -14531,-6706686 -14533,-6706682 -14540,-6706683 -14542,-6706679 -14563,-6706633 -14578,-6706600 -14598,-6706572 -14618,-6706551 -14625,-6706539 -14640,-6706509 -14648,-6706492 -14662,-6706451 -14672,-6706415 -14677,-6706396 -14687,-6706369 -14690,-6706364 -14690,-6706363 -14698,-6706364 -14703,-6706353 -14721,-6706312 -14761,-6706223 -14813,-6706109 -14838,-6706053 -14874,-6705971 -14895,-6705919 -14901,-6705903 -14901,-6705871 -14911,-6705863 -14920,-6705848 -14926,-6705799 -14941,-6705780 -14971,-6705731 -14972,-6705729 -14993,-6705742 -15020,-6705697 -15009,-6705691 -15011,-6705688 -15050,-6705622 -15017,-6705600 -14992,-6705584 -14973,-6705570 -14965,-6705565 -14963,-6705557 -14967,-6705551 -14973,-6705549 -14969,-6705533 -14969,-6705530 -14968,-6705507 -14976,-6705472 -14994,-6705447 -14997,-6705448 -15002,-6705451 -15033,-6705410 -15051,-6705384 -15064,-6705369 -15091,-6705350 -15103,-6705344 -15112,-6705341 -15126,-6705339 -15145,-6705338 -15165,-6705338 -15167,-6705340 -15169,-6705341 -15171,-6705342 -15173,-6705344 -15174,-6705345 -15176,-6705347 -15178,-6705349 -15179,-6705350 -15191,-6705360 -15210,-6705380 -15238,-6705408 -15302,-6705320 -15342,-6705266 -15364,-6705236 -15389,-6705214 -15398,-6705206 -15416,-6705195 -15434,-6705189 -15440,-6705198 -15442,-6705213 -15477,-6705194 -15488,-6705188 -15493,-6705191 -15500,-6705189 -15520,-6705176 -15526,-6705177 -15537,-6705165 -15535,-6705163 -15521,-6705152 -15505,-6705127 -15553,-6705100 -15567,-6705092 -15620,-6705140 -15691,-6705086 -15780,-6705018 -15748,-6704977 -15758,-6704969 -15879,-6704867 -15927,-6704949 -15942,-6704939 -16262,-6704737 -16394,-6704653 -16631,-6704501 -16733,-6704442 -16763,-6704430 -16766,-6704391 -16766,-6704367 -16758,-6704199 -16747,-6704137 -16832,-6704120 -16805,-6703824 -16804,-6703776 -16802,-6703754 -16783,-6703614 -16776,-6703580 -16768,-6703551 -16754,-6703511 -16746,-6703491 -16737,-6703472 -16701,-6703403 -16687,-6703374 -16671,-6703335 -16661,-6703306 -16660,-6703302 -16658,-6703291 -16627,-6702955 -16617,-6702907 -16607,-6702868 -16580,-6702791 -16579,-6702790 -16546,-6702696 -16513,-6702598 -16510,-6702588 -16509,-6702569 -16489,-6702428 -16481,-6702347 -16469,-6702199 -16469,-6702166 -16472,-6702153 -16467,-6702130 -16448,-6701972 -16433,-6701813 -16431,-6701813 -16403,-6701812 -16442,-6701700 -16401,-6701682 -16313,-6701644 -16096,-6701547 -16001,-6701499 -15983,-6701491 -15932,-6701478 -15840,-6701460 -15841,-6701455 -15845,-6701417 -15853,-6701383 -15869,-6701343 -15895,-6701293 -15910,-6701268 -15924,-6701245 -15955,-6701194 -15984,-6701158 -16034,-6701109 -16099,-6701051 -16115,-6701022 -16131,-6700968 -16157,-6700864 -16170,-6700805 -16187,-6700722 -16201,-6700624 -16203,-6700567 -16204,-6700561 -16214,-6700547 -16215,-6700545 -16215,-6700538 -16205,-6700460 -16183,-6700375 -16154,-6700294 -16122,-6700226 -16110,-6700195 -16093,-6700158 -16079,-6700115 -16064,-6700076 -16027,-6699970 -16007,-6699907 -15984,-6699825 -15946,-6699818 -15890,-6699813 -15844,-6699812 -15761,-6699809 -15671,-6699807 -15475,-6699801 -15346,-6699799 -15289,-6699804 -15287,-6699804 -15220,-6699819 -15182,-6699833 -15180,-6699838 -15139,-6699855 -15134,-6699856 -15125,-6699855 -15130,-6699815 -15148,-6699772 -15183,-6699700 -15213,-6699627 -15226,-6699603 -15249,-6699541 -15253,-6699543 -15253,-6699543 -15289,-6699557 -15296,-6699534 -15301,-6699531 -15303,-6699523 -15305,-6699514 -15302,-6699503 -15300,-6699498 -15279,-6699472 -15281,-6699460 -15276,-6699455 -15276,-6699449 -15281,-6699441 -15290,-6699389 -15290,-6699386 -15292,-6699333 -15304,-6699286 -15323,-6699243 -15338,-6699214 -15359,-6699186 -15393,-6699148 -15415,-6699126 -15468,-6699096 -15483,-6699087 -15506,-6699067 -15512,-6699061 -15552,-6699015 -15572,-6698964 -15578,-6698939 -15568,-6698828 -15560,-6698760 -15555,-6698722 -15548,-6698682 -15542,-6698660 -15525,-6698635 -15482,-6698570 -15384,-6698435 -15343,-6698385 -15314,-6698390 -15240,-6698413 -15212,-6698411 -15194,-6698410 -15187,-6698394 -15153,-6698219 -15122,-6698061 -15091,-6697926 -15065,-6697827 -15054,-6697770 -15062,-6697756 -15067,-6697757 -15080,-6697759 -15128,-6697767 -15215,-6697780 -15272,-6697791 -15327,-6697799 -15403,-6697810 -15402,-6697797 -15401,-6697792 -15401,-6697792 -15402,-6697771 -15399,-6697706 -15403,-6697633 -15404,-6697546 -15407,-6697488 -15413,-6697411 -15419,-6697353 -15444,-6697144 -15456,-6697013 -15462,-6696868 -15463,-6696777 -15461,-6696742 -15455,-6696607 -15451,-6696574 -15418,-6696402 -15416,-6696394 -15392,-6696287 -15342,-6696123 -15378,-6696077 -15416,-6696029 -15475,-6695960 -15527,-6695903 -15626,-6695791 -15656,-6695767 -15680,-6695746 -15692,-6695736 -15712,-6695720 -15736,-6695702 -15757,-6695687 -15784,-6695670 -15807,-6695655 -15878,-6695613 -15892,-6695605 -15928,-6695586 -15972,-6695566 -15998,-6695555 -16027,-6695542 -16080,-6695524 -16083,-6695525 -16104,-6695534 -16139,-6695548 -16170,-6695574 -16171,-6695575 -16205,-6695595 -16225,-6695609 -16233,-6695616 -16236,-6695619 -16249,-6695632 -16255,-6695639 -16280,-6695671 -16302,-6695696 -16340,-6695731 -16351,-6695739 -16365,-6695741 -16410,-6695743 -16427,-6695742 -16435,-6695747 -16460,-6695770 -16493,-6695807 -16545,-6695849 -16609,-6695892 -16621,-6695900 -16644,-6695911 -16672,-6695921 -16686,-6695926 -16710,-6695935 -16726,-6695940 -16742,-6695939 -16756,-6695933 -16781,-6695919 -16806,-6695906 -16824,-6695900 -16842,-6695899 -16907,-6695932 -17061,-6696007 -17292,-6696123 -17336,-6696146 -17381,-6696160 -17456,-6696195 -17534,-6696238 -17606,-6696283 -17673,-6696325 -17729,-6696362 -17762,-6696383 -17772,-6696358 -17774,-6696361 -17774,-6696388 -17795,-6696396 -17799,-6696333 -17810,-6696339 -17810,-6696330 -17813,-6696320 -17798,-6696315 -17812,-6696278 -17804,-6696272 -17805,-6696269 -17817,-6696253 -17848,-6696268 -17848,-6696251 -17919,-6696093 -17939,-6696036 -17981,-6695914 -17986,-6695901 -17994,-6695901 -18110,-6695909 -18202,-6695915 -18269,-6695923 -18315,-6695932 -18375,-6695942 -18370,-6695958 -18351,-6695955 -18346,-6695986 -18372,-6695996 -18496,-6696018 -18535,-6696024 -18558,-6696028 -18591,-6696037 -18602,-6696033 -18650,-6696050 -18653,-6696055 -18746,-6696088 -18748,-6696101 -18831,-6696142 -18880,-6696170 -18992,-6696231 -19034,-6696259 -19040,-6696267 -19074,-6696297 -19097,-6696321 -19155,-6696374 -19169,-6696385 -19190,-6696398 -19237,-6696432 -19294,-6696473 -19321,-6696493 -19335,-6696465 -19341,-6696468 -19436,-6696524 -19434,-6696529 -19443,-6696533 -19458,-6696541 -19494,-6696559 -19543,-6696584 -19570,-6696596 -19646,-6696625 -19753,-6696661 -19812,-6696679 -19901,-6696698 -19931,-6696703 -20126,-6696737 -20250,-6696771 -20394,-6696916 -20473,-6697033 -20490,-6697064 -20518,-6697167 -20541,-6697286 -20542,-6697459 -20540,-6697555 -20538,-6697617 -20512,-6697800 -20502,-6697873 -20497,-6697928 -20507,-6697938 -20508,-6697939 -20517,-6697948 -20525,-6697955 -20523,-6697971 -20522,-6697999 -20526,-6698021 -20544,-6698056 -20562,-6698090 -20581,-6698114 -20623,-6698158 -20639,-6698191 -20676,-6698276 -20749,-6698238 -20766,-6698240 -20846,-6698244 -20847,-6698230 -20860,-6698085 -20864,-6698085 -20952,-6698087 -20962,-6698080 -20965,-6698087 -21064,-6698037 -21063,-6698035 -21046,-6697998 -21049,-6697996 -21125,-6697952 -21143,-6697985 -21172,-6698028 -21186,-6698047 -21193,-6698066 -21197,-6698086 -21200,-6698107 -21208,-6698137 -21222,-6698169 -21242,-6698208 -21266,-6698254 -21275,-6698293 -21277,-6698301 -21278,-6698312 -21278,-6698321 -21279,-6698329 -21279,-6698337 -21275,-6698358 -21273,-6698360 -21272,-6698362 -21270,-6698364 -21267,-6698368 -21265,-6698370 -21264,-6698372 -21262,-6698374 -21253,-6698385 -21244,-6698396 -21234,-6698407 -21234,-6698407 -21219,-6698441 -21189,-6698532 -21177,-6698569 -21168,-6698605 -21155,-6698653 -21135,-6698747 -21121,-6698813 -21108,-6698885 -21085,-6699021 -21075,-6699073 -21066,-6699160 -21060,-6699237 -21097,-6699239 -21117,-6699249 -21140,-6699277 -21178,-6699292 -21207,-6699302 -21222,-6699303 -21219,-6699309 -21206,-6699338 -21199,-6699372 -21199,-6699375 -21194,-6699373 -21182,-6699368 -21180,-6699374 -21171,-6699398 -21143,-6699448 -21141,-6699464 -21135,-6699502 -21125,-6699505 -21121,-6699506 -21141,-6699572 -21155,-6699639 -21155,-6699673 -21152,-6699709 -21151,-6699731 -21150,-6699750 -21152,-6699760 -21156,-6699758 -21158,-6699758 -21191,-6699746 -21428,-6699692 -21466,-6699682 -21528,-6699666 -21644,-6699631 -21654,-6699628 -21661,-6699646 -21866,-6699578 -21894,-6699561 -21946,-6699547 -22096,-6699501 -22439,-6699400 -22565,-6699361 -22595,-6699353 -22671,-6699330 -22734,-6699311 -22738,-6699320 -22768,-6699311 -22866,-6699280 -22916,-6699267 -23005,-6699254 -23072,-6699231 -23093,-6699224 -23138,-6699216 -23156,-6699213 -23187,-6699208 -23228,-6699201 -23277,-6699194 -23367,-6699177 -23417,-6699167 -23485,-6699151 -23561,-6699129 -23610,-6699118 -23622,-6699115 -23657,-6699109 -23683,-6699109 -23704,-6699108 -23725,-6699109 -23735,-6699112 -23795,-6699112 -23847,-6699109 -23943,-6699103 -23992,-6699097 -24009,-6699094 -24012,-6699094 -24033,-6699124 -24036,-6699129 -24041,-6699135 -24046,-6699141 -24050,-6699147 -24056,-6699153 -24061,-6699159 -24061,-6699160 -24068,-6699167 -24101,-6699201 -24140,-6699228 -24168,-6699241 -24190,-6699246 -24197,-6699248 -24204,-6699251 -24211,-6699253 -24218,-6699255 -24226,-6699256 -24233,-6699258 -24240,-6699259 -24247,-6699260 -24255,-6699261 -24262,-6699262 -24269,-6699263 -24272,-6699263 -24280,-6699263 -24287,-6699263 -24294,-6699263 -24302,-6699262 -24309,-6699262 -24316,-6699261 -24324,-6699260 -24331,-6699259 -24355,-6699256 -24393,-6699250 -24442,-6699235 -24454,-6699233 -24536,-6699219 -24613,-6699229 -24848,-6699272 -24963,-6699293 -24989,-6699243 -25021,-6699258 -25058,-6699270 -25100,-6699272 -25143,-6699264 -25264,-6699245 -25337,-6699231 -25468,-6699212 -25521,-6699200 -25611,-6699184 -25652,-6699175 -25701,-6699172 -25720,-6699172 -25748,-6699164 -25785,-6699142 -25846,-6699113 -25953,-6699058 -26175,-6698945 -26277,-6698899 -26368,-6698855 -26448,-6698814 -26544,-6698769 -26625,-6698728 -26693,-6698694 -26770,-6698654 -26793,-6698643 -26847,-6698620 -26905,-6698594 -26965,-6698570 -27022,-6698545 -27074,-6698526 -27129,-6698504 -27170,-6698487 -27272,-6698440 -27378,-6698397 -27427,-6698376 -27544,-6698332 -27630,-6698294 -27690,-6698274 -27792,-6698230 -27858,-6698204 -27899,-6698186 -27915,-6698179 -27929,-6698174 -27947,-6698169 -27945,-6698181 -27942,-6698216 -27942,-6698282 -27941,-6698325 -27942,-6698340 -27948,-6698387 -27962,-6698442 -27966,-6698455 -27971,-6698467 -27984,-6698487 -27991,-6698495 -28007,-6698511 -28013,-6698516 -28026,-6698527 -28048,-6698543 -28060,-6698552 -28117,-6698598 -28130,-6698609 -28143,-6698619 -28153,-6698629 -28163,-6698642 -28173,-6698657 -28189,-6698685 -28197,-6698704 -28205,-6698731 -28211,-6698763 -28211,-6698796 -28211,-6698846 -28213,-6698883 -28218,-6698898 -28223,-6698912 -28229,-6698925 -28243,-6698952 -28251,-6698966 -28276,-6699003 -28282,-6699012 -28191,-6699072 -28054,-6699161 -27955,-6699225 -27722,-6699378 -27597,-6699458 -27375,-6699602 -27273,-6699670 -27209,-6699712 -27134,-6699761 -27070,-6699803 -27017,-6699839 -26987,-6699893 -26932,-6699986 -26898,-6700049 -26895,-6700056 -26941,-6700141 -26999,-6700242 -27051,-6700339 -27186,-6700582 -27214,-6700632 -27275,-6700729 -27329,-6700813 -27383,-6700899 -27458,-6701017 -27501,-6701088 -27520,-6701119 -27525,-6701126 -27529,-6701136 -27747,-6701304 -28099,-6701580 -28382,-6701801 -28841,-6702163 -28838,-6702223 -28831,-6702290 -28824,-6702353 -28799,-6702440 -28776,-6702520 -28776,-6702521 -28755,-6702592 -28734,-6702655 -28684,-6702772 -28641,-6702855 -28633,-6702884 -28623,-6702919 -28623,-6702949 -28611,-6702979 -28604,-6702998 -28591,-6703021 -28587,-6703029 -28585,-6703042 -28585,-6703044 -28722,-6703117 -28720,-6703123 -28707,-6703155 -28666,-6703249 -28664,-6703253 -28616,-6703366 -28562,-6703495 -28497,-6703612 -28443,-6703688 -28264,-6703900 -28222,-6703943 -28151,-6704001 -28030,-6704003 -27945,-6703999 -27765,-6703975 -27721,-6703971 -27676,-6703970 -27619,-6703973 -27276,-6704005 -27156,-6704003 -27049,-6703994 -26881,-6703971 -26310,-6703873 -26221,-6703857 -26183,-6703849 -26145,-6703840 -26108,-6703830 -25969,-6703782 -25972,-6703832 -25980,-6703864 -25988,-6703950 -25998,-6704020 -25999,-6704030 -26007,-6704089 -26006,-6704146 -26007,-6704148 -25997,-6704165 -25981,-6704189 -25965,-6704206 -25915,-6704254 -25971,-6704421 -25978,-6704447 -25981,-6704471 -25984,-6704524 -25978,-6704570 -25960,-6704645 -25946,-6704710 -25936,-6704801 -25931,-6704869 -25929,-6704919 -25922,-6704994 -25923,-6705080 -25928,-6705155 -25929,-6705156 -25937,-6705220 -25935,-6705231 -25933,-6705240 -25929,-6705250 -25906,-6705287 -25905,-6705302 -25904,-6705305 -25900,-6705312 -25892,-6705323 -25835,-6705355 -25792,-6705356 -25767,-6705362 -25724,-6705362 -25708,-6705360 -25690,-6705352 -25683,-6705348 -25676,-6705342 -25643,-6705310 -25599,-6705280 -25566,-6705252 -25554,-6705244 -25540,-6705238 -25521,-6705235 -25514,-6705235 -25498,-6705236 -25463,-6705236 -25437,-6705208 -25422,-6705201 -25417,-6705199 -25392,-6705191 -25356,-6705161 -25274,-6705114 -25242,-6705103 -25193,-6705089 -25126,-6705068 -25108,-6705051 -24970,-6705009 -24902,-6704992 -24892,-6704992 -24884,-6704993 -24878,-6704996 -24873,-6704999 -24868,-6705004 -24863,-6705010 -24860,-6705017 -24859,-6705025 -24858,-6705038 -24859,-6705051 -24864,-6705079 -24870,-6705089 -24881,-6705102 -24881,-6705104 -24881,-6705107 -24880,-6705112 -24868,-6705128 -24848,-6705149 -24821,-6705167 -24764,-6705218 -24680,-6705277 -24550,-6705097 -24370,-6704858 -24356,-6704842 -24322,-6704803 -24316,-6704796 -24283,-6704760 -24243,-6704718 -24161,-6704636 -24085,-6704563 -24041,-6704523 -24018,-6704504 -23972,-6704466 -23863,-6704393 -23750,-6704326 -23673,-6704282 -23556,-6704221 -23356,-6704136 -23034,-6703999 -22946,-6703959 -22885,-6703935 -22854,-6703923 -22799,-6703905 -22728,-6703884 -22691,-6703875 -22619,-6703858 -22546,-6703843 -22479,-6703831 -22375,-6703811 -22228,-6703799 -22135,-6703787 -22084,-6703798 -22056,-6703802 -21980,-6703799 -21891,-6703786 -21725,-6703765 -21688,-6703766 -21508,-6703782 -21503,-6703783 -21353,-6703811 -21316,-6703816 -21287,-6703818 -21228,-6703829 -21204,-6703831 -21193,-6703833 -21166,-6703841 -21042,-6703889 -21002,-6703908 -20906,-6703956 -20857,-6703983 -20743,-6704052 -20734,-6704057 -20649,-6704112 -20596,-6704152 -20506,-6704241 -20467,-6704281 -20430,-6704322 -20413,-6704342 -20366,-6704400 -20356,-6704414 -20259,-6704600 -20224,-6704669 -20205,-6704710 -20144,-6704866 -20077,-6705044 -20070,-6705100 -20066,-6705115 -20061,-6705128 -19993,-6705341 -19981,-6705369 -19972,-6705388 -19953,-6705416 -19947,-6705422 -19941,-6705433 -19925,-6705466 -19909,-6705519 -19898,-6705575 -19892,-6705652 -19885,-6705681 -19865,-6705757 -19851,-6705822 -19831,-6705882 -19827,-6705902 -19826,-6705930 -19825,-6705934 -19824,-6705950 -19820,-6705966 -19815,-6705985 -19812,-6705994 -19782,-6706041 -19775,-6706060 -19772,-6706072 -19771,-6706082 -19771,-6706105 -19770,-6706121 -19771,-6706135 -19773,-6706152 -19776,-6706167 -19781,-6706182 -19791,-6706206 -19754,-6706250 -19752,-6706254 -19722,-6706307 -19704,-6706340 -19668,-6706399 -19606,-6706498 -19576,-6706546 -19506,-6706641 -19472,-6706677 -19393,-6706740 -19360,-6706765 -19296,-6706810 -19204,-6706856 -19079,-6706917 -19024,-6706945 -19008,-6706949 -18997,-6706951 -18978,-6706950 -18951,-6706955 -18934,-6706957 -18925,-6706959 -18917,-6706962 -18884,-6706979 -18869,-6706988 -18853,-6706993 -18828,-6706998 -18785,-6707004 -18759,-6707011 -18733,-6707019 -18708,-6707035 -18697,-6707038 -18665,-6707044 -18564,-6707069 -18563,-6707069 -18519,-6707077 -18345,-6707114 -18310,-6707118 -18259,-6707120 -18207,-6707144 -18191,-6707150 -18174,-6707155 -18153,-6707160 -18094,-6707165 -17977,-6707183 -17881,-6707190 -17871,-6707191 -17847,-6707196 -17688,-6707234 -17652,-6707245 -17613,-6707248 -17583,-6707253 -17568,-6707256 -17310,-6707313 -17226,-6707329 -17157,-6707341 -17132,-6707347 -17114,-6707354 -17083,-6707362 -17070,-6707369 -17058,-6707374 -17047,-6707378 -17034,-6707381 -17009,-6707383 -16725,-6707452 -16677,-6707458 -16626,-6707464 -16567,-6707468 -16445,-6707472 -16389,-6707474 -16270,-6707470 -16157,-6707463 -16129,-6707458 -16115,-6707454 -16092,-6707445 -16058,-6707436 -16045,-6707433 -15966,-6707426 -15956,-6707423 -15908,-6707410 -15864,-6707395 -15770,-6707372 -15700,-6707352 -15664,-6707342 -15641,-6707337 -15621,-6707334 -15590,-6707331 -15469,-6707326 -15463,-6707325 -15422,-6707326 -15393,-6707329 -15371,-6707329 -15336,-6707332 -15289,-6707339 -15263,-6707344 -15210,-6707357 -15041,-6707407 -14935,-6707438 -14809,-6707476 -14789,-6707484 -14779,-6707488 -14761,-6707499 -14735,-6707512 -14724,-6707517 -14547,-6707625 -14510,-6707647 -14467,-6707667 -14465,-6707663 -14443,-6707675 -14422,-6707689 -14416,-6707693 -14412,-6707696 -14403,-6707687 -14383,-6707665" stroke="#006747" stroke-width="26" /></ns0:svg>    <rect x="20" y="50"  width="250" height="25"  rx="0"  fill="#006747" fill-opacity="0.8" />    <text x="145" y="70" text-anchor="middle" font-family="Frutiger" font-weight="bold" font-size="30" fill="white">Wandsworth</text>    <rect x="35" y="195" width="220" height="160" rx="15" fill="#78BE20"/>    <g font-family="Frutiger" font-size="15" fill="#231F20">        <g> <text x="45" y="218">Self-harm</text> <text x="245" y="218" text-anchor="end">14</text> </g>        <g> <text x="45" y="243">SEN</text> <text x="245" y="243" text-anchor="end">79</text> </g>        <g> <text x="45" y="268">Difficulties</text> <text x="245" y="268" text-anchor="end">77</text> </g>        <g> <text x="45" y="293">Child Carer</text> <text x="245" y="293" text-anchor="end">58</text> </g>        <g> <text x="45" y="318">Drinkers</text> <text x="245" y="318" text-anchor="end">19</text> </g>        <g> <text x="45" y="343">Safeguarding £</text> <text x="245" y="343" text-anchor="end">39</text> </g>    </g></svg>