<?xml version="1.0" standalone="no"?>
<!DOCTYPE svg PUBLIC "-//W3C//DTD SVG 1.1//EN"
"http://www.w3.org/Graphics/SVG/1.1/DTD/svg11.dtd">
<svg height="1800" version="1.1" width="1800" xmlns="http://www.w3.org/2000/svg"><defs><style type="text/css">@font-face {font-family: 'Frutiger';font-style: normal;font-weight: normal;src: local('Frutiger'), url('../fonts/Frutiger.woff') format('woff');}@font-face {font-family: 'Frutiger Bold';font-style: normal;font-weight: normal;src: local('Frutiger Bold'), url('../fonts/Frutiger_bold.woff') format('woff');}        </style>    </defs>    <rect x="20" y="20"  width="250" height="350" rx="15" fill="#AE2573" />    <rect x="35" y="35"  width="220" height="145" rx="15" fill="#330072" /><ns0:svg xmlns:ns0="http://www.w3.org/2000/svg" height="115" version="1.1" viewBox="-27318 -6691181 14306 12818" width="220" x="35" y="50"><ns0:polygon fill="white" points=" -19077,-6691014 -19075,-6691013 -19068,-6691020 -19048,-6691004 -19030,-6690986 -18997,-6690954 -18945,-6690902 -18940,-6690900 -18936,-6690899 -18918,-6690879 -18913,-6690849 -18914,-6690838 -18913,-6690831 -18908,-6690821 -18835,-6690765 -18797,-6690749 -18783,-6690744 -18737,-6690705 -18715,-6690684 -18704,-6690665 -18673,-6690610 -18655,-6690582 -18629,-6690560 -18603,-6690545 -18578,-6690537 -18555,-6690531 -18539,-6690525 -18528,-6690518 -18526,-6690517 -18516,-6690501 -18511,-6690486 -18504,-6690466 -18492,-6690418 -18482,-6690369 -18459,-6690332 -18441,-6690300 -18425,-6690267 -18408,-6690222 -18397,-6690211 -18377,-6690213 -18323,-6690224 -18299,-6690230 -18286,-6690234 -18272,-6690235 -18262,-6690239 -18253,-6690232 -18240,-6690229 -18227,-6690227 -18222,-6690226 -18209,-6690224 -18195,-6690223 -18181,-6690223 -18181,-6690223 -18167,-6690223 -18152,-6690224 -18138,-6690225 -18134,-6690226 -18128,-6690227 -18121,-6690243 -18021,-6690239 -18014,-6690239 -18005,-6690238 -17981,-6690225 -17946,-6690204 -17918,-6690183 -17878,-6690228 -17848,-6690264 -17811,-6690297 -17775,-6690321 -17703,-6690356 -17679,-6690371 -17663,-6690376 -17657,-6690372 -17653,-6690369 -17645,-6690363 -17621,-6690364 -17617,-6690365 -17619,-6690387 -17619,-6690392 -17618,-6690402 -17613,-6690412 -17600,-6690430 -17591,-6690439 -17574,-6690445 -17555,-6690446 -17545,-6690431 -17358,-6690462 -17327,-6690468 -17164,-6690498 -17010,-6690521 -17010,-6690529 -16992,-6690531 -16971,-6690532 -16970,-6690527 -16877,-6690541 -16730,-6690560 -16481,-6690600 -16379,-6690617 -16374,-6690618 -16361,-6690628 -16331,-6690649 -16069,-6690693 -15941,-6690645 -15936,-6690643 -15826,-6690511 -15811,-6690494 -15793,-6690457 -15784,-6690460 -15696,-6690502 -15656,-6690523 -15641,-6690526 -15607,-6690534 -15579,-6690535 -15549,-6690536 -15538,-6690537 -15512,-6690546 -15479,-6690554 -15362,-6690609 -15341,-6690614 -15321,-6690616 -15293,-6690618 -15293,-6690619 -15290,-6690623 -15288,-6690625 -15234,-6690629 -15214,-6690634 -15188,-6690645 -15152,-6690664 -15116,-6690686 -15084,-6690703 -15045,-6690722 -15022,-6690734 -15010,-6690745 -14994,-6690742 -14983,-6690739 -14956,-6690730 -14958,-6690726 -14957,-6690725 -14934,-6690710 -14913,-6690695 -14856,-6690656 -14804,-6690622 -14784,-6690609 -14770,-6690600 -14761,-6690595 -14765,-6690590 -14810,-6690524 -14831,-6690491 -14792,-6690459 -14740,-6690413 -14700,-6690369 -14677,-6690352 -14676,-6690345 -14597,-6690266 -14595,-6690264 -14558,-6690227 -14486,-6690150 -14459,-6690123 -14437,-6690100 -14412,-6690070 -14420,-6690058 -14443,-6690023 -14466,-6689986 -14493,-6689957 -14533,-6689914 -14542,-6689905 -14444,-6689857 -14340,-6689801 -14330,-6689796 -14340,-6689773 -14350,-6689769 -14372,-6689760 -14376,-6689758 -14386,-6689755 -14408,-6689752 -14416,-6689731 -14406,-6689665 -14395,-6689618 -14369,-6689455 -14363,-6689399 -14356,-6689394 -14345,-6689323 -14334,-6689274 -14319,-6689233 -14372,-6689219 -14502,-6689184 -14501,-6689184 -14500,-6689182 -14430,-6689097 -14318,-6688961 -14272,-6688907 -14254,-6688877 -14242,-6688835 -14233,-6688792 -14223,-6688741 -14199,-6688636 -14170,-6688501 -14141,-6688362 -14130,-6688313 -14109,-6688287 -14095,-6688238 -14085,-6688193 -14048,-6688084 -14048,-6688083 -14039,-6688085 -14030,-6688087 -14004,-6688004 -14017,-6687998 -14020,-6687998 -14049,-6687984 -14060,-6687984 -14119,-6687982 -14117,-6687973 -14098,-6687880 -14155,-6687868 -14229,-6687852 -14220,-6687847 -14219,-6687846 -14083,-6687772 -13997,-6687719 -13917,-6687678 -13883,-6687658 -13867,-6687614 -13863,-6687575 -13859,-6687536 -13875,-6687533 -13886,-6687530 -13881,-6687519 -13826,-6687407 -13764,-6687278 -13754,-6687262 -13727,-6687217 -13723,-6687200 -13722,-6687179 -13721,-6687167 -13722,-6687161 -13721,-6687126 -13729,-6687116 -13729,-6687103 -13723,-6687077 -13721,-6687062 -13719,-6687048 -13711,-6686997 -13699,-6686950 -13692,-6686924 -13680,-6686829 -13655,-6686680 -13653,-6686658 -13645,-6686628 -13635,-6686602 -13632,-6686584 -13619,-6686540 -13615,-6686522 -13602,-6686458 -13592,-6686388 -13589,-6686338 -13589,-6686280 -13588,-6686257 -13697,-6686221 -13812,-6686184 -13810,-6686175 -13807,-6686162 -13741,-6686147 -13696,-6686124 -13653,-6686086 -13633,-6686065 -13623,-6686040 -13619,-6686029 -13617,-6686029 -13525,-6686045 -13518,-6686047 -13518,-6686051 -13519,-6686062 -13500,-6686066 -13458,-6685812 -13497,-6685777 -13494,-6685758 -13488,-6685718 -13479,-6685672 -13515,-6685639 -13514,-6685636 -13506,-6685609 -13510,-6685608 -13519,-6685605 -13531,-6685601 -13505,-6685490 -13520,-6685453 -13509,-6685412 -13518,-6685410 -13584,-6685396 -13567,-6685320 -13579,-6685316 -13578,-6685312 -13560,-6685219 -13567,-6685218 -13618,-6685208 -13621,-6685219 -13626,-6685218 -13681,-6685207 -13658,-6685159 -13562,-6685055 -13569,-6685054 -13727,-6685029 -13740,-6685071 -13880,-6685020 -13879,-6685014 -13858,-6684934 -13860,-6684933 -13864,-6684928 -13831,-6684792 -13822,-6684764 -13514,-6684817 -13465,-6684532 -13436,-6684364 -13413,-6684182 -13390,-6684059 -13375,-6683982 -13256,-6683999 -13255,-6683986 -13245,-6683932 -13214,-6683799 -13190,-6683663 -13174,-6683548 -13165,-6683447 -13150,-6683350 -13135,-6683284 -13122,-6683208 -13083,-6683015 -13063,-6682850 -13062,-6682841 -13020,-6682843 -13012,-6682683 -13049,-6682672 -13056,-6682669 -13178,-6682660 -13206,-6682690 -13225,-6682657 -13236,-6682639 -13271,-6682654 -13435,-6682642 -13893,-6682600 -13979,-6682593 -14015,-6682591 -14026,-6682581 -14060,-6682557 -14118,-6682523 -14121,-6682528 -14151,-6682577 -14123,-6682596 -14125,-6682619 -14126,-6682622 -14115,-6682628 -14110,-6682631 -14135,-6682674 -14138,-6682717 -14148,-6682841 -14153,-6682876 -14173,-6682938 -14184,-6682959 -14196,-6682984 -14268,-6682968 -14273,-6682967 -14278,-6682966 -14285,-6682981 -14287,-6682985 -14342,-6682953 -14342,-6682952 -14327,-6682921 -14329,-6682919 -14344,-6682905 -14374,-6682876 -14372,-6682871 -14359,-6682837 -14356,-6682831 -14367,-6682823 -14390,-6682806 -14408,-6682795 -14431,-6682781 -14452,-6682773 -14483,-6682762 -14531,-6682749 -14628,-6682730 -14626,-6682728 -14613,-6682688 -14596,-6682639 -14594,-6682632 -14616,-6682631 -14790,-6682626 -14789,-6682620 -14766,-6682516 -14748,-6682423 -14757,-6682425 -14811,-6682440 -14855,-6682451 -14928,-6682460 -15000,-6682461 -15028,-6682458 -15080,-6682456 -15123,-6682452 -15156,-6682446 -15165,-6682443 -15166,-6682442 -15175,-6682511 -15196,-6682508 -15218,-6682505 -15257,-6682490 -15352,-6682448 -15472,-6682395 -15710,-6682288 -15755,-6682265 -15781,-6682251 -15811,-6682235 -15832,-6682222 -15829,-6682217 -15815,-6682194 -15820,-6682191 -15909,-6682145 -15915,-6682154 -15961,-6682122 -16015,-6682084 -16051,-6682065 -16049,-6682061 -16047,-6682057 -16047,-6682056 -16047,-6682056 -16093,-6682030 -16088,-6682017 -16039,-6681898 -16023,-6681904 -16010,-6681874 -15979,-6681783 -15967,-6681757 -15979,-6681748 -16005,-6681731 -16039,-6681712 -16063,-6681694 -16057,-6681641 -16056,-6681632 -16085,-6681567 -16155,-6681536 -16217,-6681508 -16403,-6681446 -16404,-6681445 -16422,-6681440 -16395,-6681314 -16384,-6681317 -16363,-6681189 -16345,-6681051 -16304,-6680832 -16267,-6680681 -16243,-6680604 -16237,-6680559 -16225,-6680470 -16222,-6680397 -16207,-6680308 -16188,-6680250 -16157,-6680150 -16141,-6680124 -16034,-6679994 -16098,-6679955 -16276,-6679859 -16478,-6679745 -16602,-6679666 -16620,-6679655 -16537,-6679597 -16353,-6679452 -16307,-6679421 -16254,-6679384 -16077,-6679248 -16070,-6679219 -16079,-6679149 -16057,-6679146 -16148,-6678878 -16203,-6678718 -16203,-6678717 -16211,-6678713 -16242,-6678694 -16311,-6678651 -16378,-6678613 -16428,-6678589 -16467,-6678572 -16515,-6678572 -16558,-6678570 -16587,-6678590 -16634,-6678545 -16649,-6678537 -16731,-6678498 -16750,-6678487 -16750,-6678486 -16761,-6678481 -16775,-6678483 -16848,-6678518 -16862,-6678521 -16863,-6678521 -16891,-6678511 -16917,-6678501 -16927,-6678498 -16929,-6678501 -16999,-6678629 -17089,-6678570 -17227,-6678480 -17312,-6678422 -17323,-6678442 -17354,-6678426 -17341,-6678400 -17343,-6678399 -17385,-6678377 -17416,-6678366 -17420,-6678365 -17426,-6678363 -17659,-6678802 -17692,-6678784 -17702,-6678803 -17877,-6678671 -18055,-6678893 -18131,-6678988 -18195,-6679068 -18273,-6679165 -18277,-6679170 -18208,-6679201 -18228,-6679262 -18286,-6679437 -18294,-6679469 -18296,-6679517 -18296,-6679541 -18278,-6679547 -18254,-6679552 -18253,-6679609 -18253,-6679623 -18204,-6679651 -18156,-6679664 -18070,-6679677 -18066,-6679677 -18153,-6679922 -18416,-6679869 -18744,-6679802 -18877,-6679788 -18931,-6679782 -18923,-6679865 -18912,-6679919 -18919,-6679917 -18942,-6679908 -19088,-6679895 -19131,-6679886 -19200,-6679881 -19218,-6679879 -19234,-6679878 -19243,-6679878 -19252,-6679902 -19264,-6679944 -19280,-6679993 -19311,-6680097 -19338,-6680191 -19356,-6680283 -19385,-6680447 -19443,-6680440 -19455,-6680496 -19466,-6680536 -19483,-6680554 -19547,-6680610 -19582,-6680644 -19602,-6680663 -19621,-6680679 -19870,-6680898 -19908,-6680929 -19967,-6680977 -20005,-6681018 -20128,-6681147 -20217,-6681236 -20233,-6681250 -20259,-6681274 -20294,-6681304 -20301,-6681309 -20430,-6681410 -20550,-6681513 -20582,-6681542 -20695,-6681637 -20842,-6681763 -20866,-6681778 -20865,-6681780 -20856,-6681796 -20914,-6681824 -20965,-6681850 -20966,-6681850 -21009,-6681873 -21092,-6681921 -21169,-6681965 -21250,-6682012 -21293,-6682034 -21510,-6682125 -21520,-6682129 -21642,-6682172 -21823,-6682251 -21829,-6682240 -21848,-6682199 -21895,-6682220 -21881,-6682263 -21878,-6682271 -21941,-6682292 -21965,-6682298 -21966,-6682296 -21979,-6682275 -21981,-6682275 -21992,-6682272 -22002,-6682278 -22007,-6682268 -22022,-6682239 -22044,-6682197 -22081,-6682129 -22090,-6682095 -22103,-6682067 -22124,-6682041 -22166,-6681994 -22188,-6681993 -22214,-6681993 -22271,-6681875 -22333,-6681755 -22397,-6681636 -22415,-6681644 -22415,-6681643 -22415,-6681642 -22415,-6681641 -22416,-6681640 -22416,-6681639 -22417,-6681638 -22418,-6681637 -22418,-6681636 -22419,-6681635 -22420,-6681634 -22420,-6681633 -22421,-6681632 -22422,-6681631 -22423,-6681631 -22424,-6681630 -22425,-6681629 -22426,-6681628 -22427,-6681628 -22428,-6681627 -22429,-6681627 -22430,-6681627 -22432,-6681626 -22433,-6681626 -22434,-6681626 -22435,-6681626 -22436,-6681626 -22437,-6681626 -22438,-6681626 -22440,-6681626 -22441,-6681626 -22442,-6681626 -22443,-6681627 -22444,-6681627 -22446,-6681627 -22447,-6681628 -22448,-6681628 -22448,-6681629 -22449,-6681629 -22451,-6681630 -22452,-6681631 -22453,-6681632 -22454,-6681632 -22472,-6681691 -22491,-6681683 -22495,-6681681 -22519,-6681673 -22551,-6681654 -22590,-6681628 -22651,-6681593 -22736,-6681533 -23012,-6681347 -23029,-6681336 -23333,-6681129 -23424,-6681070 -23488,-6681024 -23542,-6680989 -23585,-6680955 -23714,-6680863 -23627,-6680597 -23589,-6680465 -23650,-6680330 -23671,-6680285 -23677,-6680274 -23743,-6680129 -23823,-6679960 -23832,-6679938 -23851,-6679924 -23860,-6679920 -24033,-6679851 -24054,-6679844 -24135,-6679849 -24190,-6679849 -24350,-6679848 -24416,-6679848 -24494,-6679845 -24561,-6679845 -24567,-6679851 -24594,-6679851 -24595,-6679851 -24656,-6679947 -24728,-6680056 -24834,-6680187 -24949,-6680313 -25125,-6680492 -25266,-6680646 -25257,-6680658 -25307,-6680704 -25411,-6680808 -25458,-6680860 -25515,-6680924 -25579,-6681031 -25583,-6681037 -25431,-6681135 -25415,-6681145 -25408,-6681150 -25432,-6681166 -25365,-6681210 -25265,-6681267 -25250,-6681281 -25230,-6681315 -25175,-6681396 -25119,-6681469 -24983,-6681630 -24945,-6681664 -24899,-6681654 -24853,-6681636 -24743,-6681739 -24767,-6681780 -24790,-6681805 -24689,-6681897 -24608,-6681957 -24532,-6682016 -24466,-6682072 -24399,-6682125 -24308,-6682188 -24185,-6682261 -24201,-6682308 -24207,-6682331 -24236,-6682444 -24232,-6682450 -24242,-6682522 -24266,-6682654 -24242,-6682661 -24271,-6682723 -24283,-6682746 -24285,-6682749 -24307,-6682806 -24333,-6682892 -24347,-6682949 -24350,-6682957 -24361,-6682980 -24371,-6683020 -24411,-6683151 -24427,-6683196 -24460,-6683278 -24474,-6683336 -24477,-6683345 -24502,-6683425 -24510,-6683453 -24515,-6683473 -24517,-6683481 -24517,-6683495 -24511,-6683508 -24519,-6683563 -24528,-6683615 -24537,-6683692 -24633,-6683678 -24630,-6683648 -24723,-6683675 -24719,-6683688 -24713,-6683712 -24709,-6683751 -24705,-6683778 -24706,-6683816 -24708,-6683859 -24709,-6683916 -24718,-6683924 -24717,-6683934 -24709,-6683943 -24708,-6683956 -24707,-6683986 -24708,-6684018 -24710,-6684069 -24713,-6684112 -24722,-6684170 -24728,-6684215 -24733,-6684242 -24740,-6684268 -24759,-6684343 -24759,-6684345 -24766,-6684376 -24777,-6684462 -24788,-6684546 -24793,-6684586 -24799,-6684626 -24799,-6684645 -24793,-6684689 -24794,-6684702 -24798,-6684705 -24807,-6684708 -24809,-6684711 -24819,-6684755 -24838,-6684820 -24844,-6684835 -24846,-6684846 -24848,-6684862 -24854,-6684888 -24875,-6684942 -24893,-6684981 -24916,-6685036 -24942,-6685092 -24962,-6685123 -24970,-6685125 -24980,-6685143 -24990,-6685163 -25012,-6685214 -25038,-6685266 -25094,-6685367 -25174,-6685517 -25189,-6685538 -25196,-6685550 -25203,-6685568 -25207,-6685582 -25233,-6685635 -25255,-6685684 -25263,-6685690 -25438,-6685815 -25592,-6685938 -25601,-6685945 -25654,-6685999 -25779,-6686129 -25797,-6686144 -25813,-6686159 -25830,-6686178 -25916,-6686259 -25958,-6686293 -26028,-6686171 -26043,-6686182 -26067,-6686200 -26185,-6686284 -26259,-6686355 -26358,-6686434 -26388,-6686452 -26428,-6686459 -26474,-6686471 -26557,-6686483 -26596,-6686440 -26658,-6686452 -26775,-6686470 -26815,-6686476 -26836,-6686377 -26844,-6686338 -26853,-6686340 -27046,-6686383 -27227,-6686420 -27287,-6686434 -27318,-6686442 -27309,-6686469 -27305,-6686481 -27275,-6686602 -27259,-6686676 -27244,-6686771 -27240,-6686823 -27237,-6686837 -27232,-6686871 -27231,-6686883 -27229,-6686904 -27226,-6686952 -27221,-6687089 -27227,-6687165 -27238,-6687249 -27238,-6687272 -27237,-6687295 -27240,-6687418 -27240,-6687518 -27239,-6687542 -27236,-6687569 -27228,-6687572 -27228,-6687681 -27232,-6687794 -27241,-6687798 -27244,-6687809 -27247,-6687864 -27247,-6687889 -27247,-6687897 -27251,-6687917 -27254,-6687931 -27255,-6687945 -27263,-6688006 -27267,-6688047 -27279,-6688132 -27285,-6688192 -27292,-6688273 -27293,-6688287 -27293,-6688332 -27296,-6688494 -27291,-6688620 -27286,-6688685 -27276,-6688794 -27274,-6688804 -27269,-6688895 -27268,-6688904 -27262,-6688945 -27252,-6688942 -27247,-6688968 -27245,-6688967 -27234,-6689074 -27236,-6689081 -27213,-6689222 -27197,-6689310 -27178,-6689411 -27043,-6689313 -27040,-6689311 -27028,-6689334 -26998,-6689386 -26998,-6689389 -26998,-6689395 -26947,-6689502 -26931,-6689533 -26917,-6689565 -26894,-6689595 -26870,-6689622 -26832,-6689657 -26794,-6689691 -26720,-6689755 -26704,-6689769 -26686,-6689787 -26644,-6689819 -26623,-6689837 -26606,-6689844 -26593,-6689855 -26586,-6689863 -26574,-6689875 -26597,-6689981 -26599,-6689992 -26602,-6690010 -26604,-6690047 -26613,-6690079 -26627,-6690119 -26638,-6690163 -26653,-6690206 -26655,-6690241 -26657,-6690255 -26657,-6690280 -26667,-6690306 -26670,-6690331 -26667,-6690346 -26666,-6690370 -26666,-6690374 -26667,-6690379 -26669,-6690387 -26673,-6690416 -26674,-6690421 -26681,-6690446 -26679,-6690446 -26671,-6690449 -26629,-6690466 -26594,-6690490 -26575,-6690502 -26562,-6690511 -26551,-6690516 -26518,-6690527 -26446,-6690556 -26352,-6690585 -26341,-6690590 -26315,-6690603 -26119,-6690668 -26100,-6690585 -26097,-6690554 -26095,-6690537 -26089,-6690450 -26078,-6690400 -26069,-6690345 -26060,-6690306 -26050,-6690283 -26040,-6690253 -26009,-6690183 -26038,-6690163 -26011,-6690139 -25832,-6689963 -25722,-6689856 -25652,-6689788 -25477,-6689614 -25349,-6689493 -24998,-6689258 -24710,-6689059 -24598,-6688981 -24551,-6688953 -24524,-6688940 -24510,-6688929 -24488,-6688920 -24473,-6688915 -24454,-6688911 -24417,-6688907 -24393,-6688900 -24350,-6688860 -24319,-6688834 -24305,-6688822 -24280,-6688815 -24265,-6688838 -24252,-6688857 -24226,-6688900 -24205,-6688935 -24168,-6688982 -24125,-6689041 -24104,-6689071 -24075,-6689113 -24032,-6689181 -23982,-6689251 -23902,-6689358 -23886,-6689382 -23797,-6689510 -23809,-6689522 -23814,-6689528 -23763,-6689594 -23763,-6689593 -23752,-6689584 -23706,-6689646 -23725,-6689661 -23749,-6689681 -23723,-6689718 -23712,-6689712 -23700,-6689726 -23682,-6689746 -23667,-6689767 -23644,-6689801 -23625,-6689832 -23606,-6689862 -23591,-6689888 -23572,-6689918 -23546,-6689953 -23518,-6689996 -23490,-6690039 -23472,-6690075 -23434,-6690134 -23420,-6690147 -23413,-6690152 -23406,-6690157 -23393,-6690179 -23392,-6690181 -23391,-6690183 -23389,-6690186 -23382,-6690198 -23381,-6690200 -23389,-6690212 -23376,-6690224 -23363,-6690237 -23351,-6690260 -23318,-6690223 -23307,-6690214 -23299,-6690209 -23269,-6690193 -23250,-6690189 -23244,-6690188 -23231,-6690182 -23136,-6690116 -23122,-6690103 -23106,-6690085 -23075,-6690053 -23001,-6689998 -22931,-6689954 -22820,-6689875 -22652,-6690077 -22505,-6689891 -22317,-6689659 -22296,-6689673 -22208,-6689744 -22023,-6689878 -21874,-6689993 -21864,-6690000 -21850,-6690007 -21754,-6690044 -21743,-6690050 -21731,-6690059 -21587,-6690192 -21549,-6690156 -21507,-6690189 -21504,-6690191 -21489,-6690178 -21355,-6690024 -21333,-6690049 -21270,-6690005 -21252,-6689989 -21235,-6689973 -21207,-6689942 -21187,-6689923 -21184,-6689920 -21200,-6689894 -21161,-6689880 -21118,-6689881 -21109,-6689869 -21096,-6689852 -21099,-6689836 -21087,-6689835 -21035,-6689827 -20974,-6689761 -20971,-6689757 -20817,-6689899 -20711,-6689985 -20643,-6690039 -20539,-6690128 -20512,-6690148 -20486,-6690164 -20387,-6690201 -20356,-6690212 -20340,-6690219 -20338,-6690220 -20336,-6690221 -20309,-6690243 -20283,-6690270 -20184,-6690359 -20089,-6690449 -20040,-6690495 -20036,-6690500 -20018,-6690482 -19973,-6690523 -19952,-6690542 -19936,-6690561 -19909,-6690591 -19777,-6690771 -19646,-6690944 -19545,-6691078 -19463,-6691181 -19403,-6691137 -19371,-6691118 -19305,-6691079 -19263,-6691056 -19241,-6691044 -19198,-6691035 -19166,-6691029 -19122,-6691022 -19097,-6691018 -19094,-6691017 -19077,-6691014" stroke="white" stroke-width="27" /></ns0:svg>    <rect x="20" y="50"  width="250" height="25"  rx="0"  fill="#E8EDEE" fill-opacity="0.8" />    <text x="145" y="70" text-anchor="middle" font-family="Frutiger" font-weight="bold" font-size="30" fill="#AE2573">Sutton</text>    <rect x="35" y="195" width="220" height="160" rx="15" fill="#724F95"/>    <g font-family="Frutiger" font-size="15" fill="white">        <g> <text x="45" y="218">Self-harm</text> <text x="245" y="218" text-anchor="end">40</text> </g>        <g> <text x="45" y="243">SEN</text> <text x="245" y="243" text-anchor="end">27</text> </g>        <g> <text x="45" y="268">Difficulties</text> <text x="245" y="268" text-anchor="end">75</text> </g>        <g> <text x="45" y="293">Child Carer</text> <text x="245" y="293" text-anchor="end">5</text> </g>        <g> <text x="45" y="318">Drinkers</text> <text x="245" y="318" text-anchor="end">32</text> </g>        <g> <text x="45" y="343">Safeguarding £</text> <text x="245" y="343" text-anchor="end">23</text> </g>    </g></svg>