<?xml version="1.0" standalone="no"?>
<!DOCTYPE svg PUBLIC "-//W3C//DTD SVG 1.1//EN"
"http://www.w3.org/Graphics/SVG/1.1/DTD/svg11.dtd">
<svg height="1800" version="1.1" width="1800" xmlns="http://www.w3.org/2000/svg"><defs><style type="text/css">@font-face {font-family: 'Frutiger';font-style: normal;font-weight: normal;src: local('Frutiger'), url('../fonts/Frutiger.woff') format('woff');}@font-face {font-family: 'Frutiger Bold';font-style: normal;font-weight: normal;src: local('Frutiger Bold'), url('../fonts/Frutiger_bold.woff') format('woff');}        </style>    </defs>    <rect x="20" y="20"  width="250" height="350" rx="15" fill="#009639" />    <rect x="35" y="35"  width="220" height="145" rx="15" fill="#E8EDEE" /><ns0:svg xmlns:ns0="http://www.w3.org/2000/svg" height="115" version="1.1" viewBox="-28300 -6699760 14483 10945" width="220" x="35" y="50"><ns0:polygon fill="#006747" points=" -21155,-6699639 -21141,-6699572 -21121,-6699506 -21125,-6699505 -21135,-6699502 -21141,-6699464 -21143,-6699448 -21171,-6699398 -21180,-6699374 -21182,-6699368 -21194,-6699373 -21199,-6699375 -21199,-6699372 -21206,-6699338 -21219,-6699309 -21222,-6699303 -21207,-6699302 -21178,-6699292 -21140,-6699277 -21117,-6699249 -21097,-6699239 -21060,-6699237 -21066,-6699160 -21075,-6699073 -21085,-6699021 -21108,-6698885 -21121,-6698813 -21135,-6698747 -21155,-6698653 -21168,-6698605 -21177,-6698569 -21189,-6698532 -21219,-6698441 -21234,-6698407 -21234,-6698407 -21244,-6698396 -21253,-6698385 -21262,-6698374 -21264,-6698372 -21265,-6698370 -21267,-6698368 -21270,-6698364 -21272,-6698362 -21273,-6698360 -21275,-6698358 -21279,-6698337 -21279,-6698329 -21278,-6698321 -21278,-6698312 -21277,-6698301 -21275,-6698293 -21266,-6698254 -21242,-6698208 -21222,-6698169 -21208,-6698137 -21200,-6698107 -21197,-6698086 -21193,-6698066 -21186,-6698047 -21172,-6698028 -21143,-6697985 -21125,-6697952 -21049,-6697996 -21046,-6697998 -21063,-6698035 -21064,-6698037 -20965,-6698087 -20962,-6698080 -20952,-6698087 -20864,-6698085 -20860,-6698085 -20847,-6698230 -20846,-6698244 -20766,-6698240 -20749,-6698238 -20676,-6698276 -20639,-6698191 -20623,-6698158 -20581,-6698114 -20562,-6698090 -20544,-6698056 -20526,-6698021 -20522,-6697999 -20523,-6697971 -20525,-6697955 -20517,-6697948 -20508,-6697939 -20507,-6697938 -20497,-6697928 -20502,-6697873 -20512,-6697800 -20538,-6697617 -20540,-6697555 -20542,-6697459 -20541,-6697286 -20518,-6697167 -20490,-6697064 -20473,-6697033 -20394,-6696916 -20250,-6696771 -20126,-6696737 -19931,-6696703 -19901,-6696698 -19812,-6696679 -19753,-6696661 -19646,-6696625 -19570,-6696596 -19543,-6696584 -19494,-6696559 -19458,-6696541 -19443,-6696533 -19434,-6696529 -19436,-6696524 -19341,-6696468 -19335,-6696465 -19321,-6696493 -19294,-6696473 -19237,-6696432 -19190,-6696398 -19169,-6696385 -19155,-6696374 -19097,-6696321 -19074,-6696297 -19040,-6696267 -19034,-6696259 -18992,-6696231 -18880,-6696170 -18831,-6696142 -18748,-6696101 -18746,-6696088 -18653,-6696055 -18650,-6696050 -18602,-6696033 -18591,-6696037 -18558,-6696028 -18535,-6696024 -18496,-6696018 -18372,-6695996 -18346,-6695986 -18351,-6695955 -18370,-6695958 -18375,-6695942 -18315,-6695932 -18269,-6695923 -18202,-6695915 -18110,-6695909 -17994,-6695901 -17986,-6695901 -17981,-6695914 -17939,-6696036 -17919,-6696093 -17848,-6696251 -17848,-6696268 -17817,-6696253 -17805,-6696269 -17804,-6696272 -17812,-6696278 -17798,-6696315 -17813,-6696320 -17810,-6696330 -17810,-6696339 -17799,-6696333 -17795,-6696396 -17774,-6696388 -17774,-6696361 -17772,-6696358 -17762,-6696383 -17729,-6696362 -17673,-6696325 -17606,-6696283 -17534,-6696238 -17456,-6696195 -17381,-6696160 -17336,-6696146 -17292,-6696123 -17061,-6696007 -16907,-6695932 -16842,-6695899 -16824,-6695900 -16806,-6695906 -16781,-6695919 -16756,-6695933 -16742,-6695939 -16726,-6695940 -16710,-6695935 -16686,-6695926 -16672,-6695921 -16644,-6695911 -16621,-6695900 -16609,-6695892 -16545,-6695849 -16493,-6695807 -16460,-6695770 -16435,-6695747 -16427,-6695742 -16410,-6695743 -16365,-6695741 -16351,-6695739 -16340,-6695731 -16302,-6695696 -16280,-6695671 -16255,-6695639 -16249,-6695632 -16236,-6695619 -16233,-6695616 -16225,-6695609 -16205,-6695595 -16171,-6695575 -16170,-6695574 -16139,-6695548 -16104,-6695534 -16083,-6695525 -16080,-6695524 -16027,-6695542 -15998,-6695555 -15972,-6695566 -15928,-6695586 -15892,-6695605 -15878,-6695613 -15807,-6695655 -15784,-6695670 -15757,-6695687 -15736,-6695702 -15712,-6695720 -15692,-6695736 -15680,-6695746 -15656,-6695767 -15626,-6695791 -15759,-6695643 -15944,-6695437 -15921,-6695412 -15997,-6695328 -16129,-6695187 -16139,-6695176 -16101,-6695136 -16066,-6695096 -16065,-6695095 -16159,-6695017 -16213,-6694967 -16265,-6694916 -16295,-6694888 -16325,-6694861 -16346,-6694844 -16370,-6694819 -16397,-6694780 -16424,-6694741 -16429,-6694733 -16460,-6694685 -16482,-6694653 -16420,-6694629 -16339,-6694597 -16230,-6694596 -16194,-6694595 -16157,-6694594 -16123,-6694567 -16119,-6694567 -16116,-6694568 -16096,-6694571 -16091,-6694579 -16081,-6694582 -16071,-6694585 -16053,-6694599 -15919,-6694704 -15879,-6694738 -15869,-6694737 -15809,-6694697 -15716,-6694633 -15583,-6694562 -15531,-6694538 -15515,-6694534 -15512,-6694533 -15434,-6694497 -15417,-6694489 -15389,-6694475 -15370,-6694462 -15308,-6694436 -15209,-6694400 -15126,-6694373 -15078,-6694359 -15049,-6694359 -15027,-6694357 -15002,-6694351 -14961,-6694333 -14925,-6694317 -14924,-6694321 -14905,-6694466 -14898,-6694512 -14898,-6694526 -14895,-6694571 -14892,-6694597 -14888,-6694609 -14886,-6694615 -14884,-6694619 -14866,-6694664 -14842,-6694655 -14844,-6694650 -14856,-6694623 -14865,-6694601 -14866,-6694600 -14825,-6694583 -14770,-6694560 -14702,-6694550 -14237,-6694499 -14233,-6694498 -14221,-6694543 -14219,-6694552 -14218,-6694554 -14194,-6694553 -14203,-6694534 -14215,-6694500 -14224,-6694471 -14250,-6694358 -14267,-6694307 -14271,-6694310 -14281,-6694317 -14299,-6694321 -14304,-6694310 -14306,-6694305 -14317,-6694289 -14313,-6694281 -14330,-6694249 -14350,-6694208 -14376,-6694154 -14397,-6694116 -14410,-6694114 -14410,-6694065 -14524,-6694059 -14525,-6694058 -14575,-6694053 -14611,-6694052 -14614,-6694002 -14615,-6694000 -14701,-6693992 -14699,-6693966 -14696,-6693950 -14695,-6693945 -14692,-6693925 -14686,-6693865 -14720,-6693859 -14744,-6693856 -14726,-6693592 -14654,-6693311 -14635,-6693295 -14633,-6693293 -14629,-6693284 -14625,-6693250 -14641,-6693244 -14639,-6693235 -14616,-6693102 -14614,-6693096 -14611,-6693086 -14603,-6693075 -14598,-6693068 -14570,-6693035 -14544,-6693000 -14539,-6692988 -14537,-6692978 -14527,-6692946 -14524,-6692941 -14522,-6692937 -14405,-6692834 -14385,-6692816 -14344,-6692778 -14318,-6692751 -14300,-6692727 -14283,-6692696 -14276,-6692689 -14249,-6692660 -14247,-6692659 -14244,-6692659 -14216,-6692619 -14220,-6692616 -14222,-6692615 -14214,-6692605 -14206,-6692594 -14191,-6692563 -14159,-6692508 -14138,-6692475 -14107,-6692429 -14095,-6692411 -14081,-6692389 -14058,-6692356 -14048,-6692342 -14039,-6692327 -14014,-6692280 -13983,-6692224 -13960,-6692182 -13954,-6692170 -13955,-6692162 -13956,-6692151 -13958,-6692146 -13960,-6692142 -13967,-6692128 -13989,-6692064 -13992,-6692054 -13942,-6692048 -13913,-6692038 -13887,-6692026 -13871,-6692016 -13855,-6691995 -13847,-6691988 -13861,-6691969 -13817,-6691931 -13839,-6691910 -13858,-6691893 -13933,-6691798 -14072,-6691617 -14146,-6691521 -14236,-6691417 -14313,-6691341 -14398,-6691255 -14434,-6691223 -14416,-6691212 -14370,-6691191 -14346,-6691193 -14330,-6691193 -14422,-6691114 -14496,-6691061 -14700,-6690929 -14837,-6690834 -14862,-6690819 -14891,-6690798 -14907,-6690785 -14921,-6690771 -14945,-6690744 -14949,-6690738 -14956,-6690730 -14983,-6690739 -14994,-6690742 -15010,-6690745 -15022,-6690734 -15045,-6690722 -15084,-6690703 -15116,-6690686 -15152,-6690664 -15188,-6690645 -15214,-6690634 -15234,-6690629 -15288,-6690625 -15290,-6690623 -15293,-6690619 -15293,-6690618 -15321,-6690616 -15341,-6690614 -15362,-6690609 -15479,-6690554 -15512,-6690546 -15538,-6690537 -15549,-6690536 -15579,-6690535 -15607,-6690534 -15641,-6690526 -15656,-6690523 -15696,-6690502 -15784,-6690460 -15793,-6690457 -15811,-6690494 -15826,-6690511 -15936,-6690643 -15941,-6690645 -16069,-6690693 -16331,-6690649 -16361,-6690628 -16374,-6690618 -16379,-6690617 -16481,-6690600 -16730,-6690560 -16877,-6690541 -16970,-6690527 -16971,-6690532 -16992,-6690531 -17010,-6690529 -17010,-6690521 -17164,-6690498 -17327,-6690468 -17358,-6690462 -17545,-6690431 -17555,-6690446 -17574,-6690445 -17591,-6690439 -17600,-6690430 -17613,-6690412 -17618,-6690402 -17619,-6690392 -17619,-6690387 -17617,-6690365 -17621,-6690364 -17645,-6690363 -17653,-6690369 -17657,-6690372 -17663,-6690376 -17679,-6690371 -17703,-6690356 -17775,-6690321 -17811,-6690297 -17848,-6690264 -17878,-6690228 -17918,-6690183 -17946,-6690204 -17981,-6690225 -18005,-6690238 -18014,-6690239 -18021,-6690239 -18121,-6690243 -18128,-6690227 -18134,-6690226 -18138,-6690225 -18152,-6690224 -18167,-6690223 -18181,-6690223 -18181,-6690223 -18195,-6690223 -18209,-6690224 -18222,-6690226 -18227,-6690227 -18240,-6690229 -18253,-6690232 -18262,-6690239 -18272,-6690235 -18286,-6690234 -18299,-6690230 -18323,-6690224 -18377,-6690213 -18397,-6690211 -18408,-6690222 -18425,-6690267 -18441,-6690300 -18459,-6690332 -18482,-6690369 -18492,-6690418 -18504,-6690466 -18511,-6690486 -18516,-6690501 -18526,-6690517 -18528,-6690518 -18539,-6690525 -18555,-6690531 -18578,-6690537 -18603,-6690545 -18629,-6690560 -18655,-6690582 -18673,-6690610 -18704,-6690665 -18715,-6690684 -18737,-6690705 -18783,-6690744 -18797,-6690749 -18835,-6690765 -18908,-6690821 -18913,-6690831 -18914,-6690838 -18913,-6690849 -18918,-6690879 -18936,-6690899 -18940,-6690900 -18945,-6690902 -18997,-6690954 -19030,-6690986 -19048,-6691004 -19068,-6691020 -19075,-6691013 -19077,-6691014 -19094,-6691017 -19097,-6691018 -19122,-6691022 -19166,-6691029 -19198,-6691035 -19241,-6691044 -19263,-6691056 -19305,-6691079 -19371,-6691118 -19403,-6691137 -19463,-6691181 -19545,-6691078 -19646,-6690944 -19777,-6690771 -19909,-6690591 -19936,-6690561 -19952,-6690542 -19973,-6690523 -20018,-6690482 -20036,-6690500 -20040,-6690495 -20089,-6690449 -20184,-6690359 -20283,-6690270 -20309,-6690243 -20336,-6690221 -20338,-6690220 -20340,-6690219 -20356,-6690212 -20387,-6690201 -20486,-6690164 -20512,-6690148 -20539,-6690128 -20643,-6690039 -20711,-6689985 -20817,-6689899 -20971,-6689757 -20974,-6689761 -21035,-6689827 -21087,-6689835 -21099,-6689836 -21096,-6689852 -21109,-6689869 -21118,-6689881 -21161,-6689880 -21200,-6689894 -21184,-6689920 -21187,-6689923 -21207,-6689942 -21235,-6689973 -21252,-6689989 -21270,-6690005 -21333,-6690049 -21355,-6690024 -21489,-6690178 -21504,-6690191 -21507,-6690189 -21549,-6690156 -21587,-6690192 -21731,-6690059 -21743,-6690050 -21754,-6690044 -21850,-6690007 -21864,-6690000 -21874,-6689993 -22023,-6689878 -22208,-6689744 -22296,-6689673 -22317,-6689659 -22505,-6689891 -22652,-6690077 -22820,-6689875 -22931,-6689954 -23001,-6689998 -23075,-6690053 -23106,-6690085 -23122,-6690103 -23136,-6690116 -23231,-6690182 -23244,-6690188 -23250,-6690189 -23269,-6690193 -23299,-6690209 -23307,-6690214 -23318,-6690223 -23351,-6690260 -23363,-6690237 -23376,-6690224 -23389,-6690212 -23381,-6690200 -23382,-6690198 -23389,-6690186 -23391,-6690183 -23392,-6690181 -23393,-6690179 -23406,-6690157 -23413,-6690152 -23420,-6690147 -23434,-6690134 -23472,-6690075 -23490,-6690039 -23518,-6689996 -23546,-6689953 -23572,-6689918 -23591,-6689888 -23606,-6689862 -23625,-6689832 -23644,-6689801 -23667,-6689767 -23682,-6689746 -23700,-6689726 -23712,-6689712 -23723,-6689718 -23749,-6689681 -23725,-6689661 -23706,-6689646 -23752,-6689584 -23763,-6689593 -23763,-6689594 -23814,-6689528 -23809,-6689522 -23797,-6689510 -23886,-6689382 -23902,-6689358 -23982,-6689251 -24032,-6689181 -24075,-6689113 -24104,-6689071 -24125,-6689041 -24168,-6688982 -24205,-6688935 -24226,-6688900 -24252,-6688857 -24265,-6688838 -24280,-6688815 -24305,-6688822 -24319,-6688834 -24350,-6688860 -24393,-6688900 -24417,-6688907 -24454,-6688911 -24473,-6688915 -24488,-6688920 -24510,-6688929 -24524,-6688940 -24551,-6688953 -24598,-6688981 -24710,-6689059 -24998,-6689258 -25349,-6689493 -25477,-6689614 -25652,-6689788 -25722,-6689856 -25832,-6689963 -26011,-6690139 -26038,-6690163 -26009,-6690183 -26040,-6690253 -26050,-6690283 -26060,-6690306 -26069,-6690345 -26078,-6690400 -26089,-6690450 -26095,-6690537 -26097,-6690554 -26100,-6690585 -26119,-6690668 -26315,-6690603 -26341,-6690590 -26352,-6690585 -26446,-6690556 -26518,-6690527 -26551,-6690516 -26562,-6690511 -26575,-6690502 -26594,-6690490 -26629,-6690466 -26671,-6690449 -26679,-6690446 -26681,-6690446 -26685,-6690462 -26690,-6690474 -26701,-6690495 -26702,-6690525 -26708,-6690584 -26717,-6690640 -26717,-6690657 -26721,-6690685 -26726,-6690716 -26729,-6690737 -26725,-6690767 -26726,-6690785 -26740,-6690825 -26758,-6690880 -26766,-6690892 -26776,-6690926 -26783,-6690939 -26791,-6690946 -26801,-6690951 -26808,-6690955 -26821,-6690958 -26821,-6690960 -26812,-6690988 -26805,-6691005 -26807,-6691016 -26809,-6691025 -26818,-6691057 -26844,-6691135 -26858,-6691158 -26863,-6691165 -26863,-6691169 -26863,-6691175 -26902,-6691262 -26908,-6691271 -26916,-6691280 -26942,-6691300 -26968,-6691315 -26993,-6691327 -27024,-6691335 -27068,-6691341 -27108,-6691346 -27109,-6691346 -27131,-6691354 -27150,-6691365 -27167,-6691374 -27170,-6691374 -27185,-6691377 -27225,-6691404 -27238,-6691428 -27247,-6691460 -27269,-6691496 -27283,-6691518 -27325,-6691569 -27330,-6691581 -27335,-6691594 -27347,-6691610 -27356,-6691625 -27369,-6691654 -27382,-6691670 -27401,-6691699 -27415,-6691735 -27426,-6691755 -27436,-6691774 -27467,-6691814 -27486,-6691844 -27540,-6691924 -27540,-6691925 -27539,-6691933 -27516,-6691974 -27501,-6692002 -27488,-6692024 -27481,-6692050 -27467,-6692091 -27467,-6692110 -27466,-6692122 -27465,-6692141 -27463,-6692169 -27462,-6692175 -27458,-6692194 -27451,-6692215 -27449,-6692228 -27447,-6692249 -27450,-6692301 -27455,-6692352 -27461,-6692379 -27473,-6692426 -27476,-6692442 -27474,-6692445 -27470,-6692458 -27462,-6692473 -27458,-6692477 -27456,-6692480 -27435,-6692500 -27433,-6692501 -27395,-6692547 -27391,-6692553 -27348,-6692609 -27325,-6692634 -27312,-6692649 -27303,-6692662 -27297,-6692659 -27296,-6692660 -27278,-6692752 -27276,-6692762 -27275,-6692766 -27258,-6692840 -27254,-6692865 -27253,-6692872 -27241,-6692921 -27235,-6692964 -27237,-6693018 -27237,-6693043 -27235,-6693110 -27239,-6693135 -27249,-6693156 -27253,-6693178 -27258,-6693195 -27257,-6693217 -27264,-6693263 -27272,-6693308 -27276,-6693329 -27291,-6693375 -27292,-6693412 -27292,-6693428 -27295,-6693449 -27296,-6693452 -27310,-6693489 -27323,-6693524 -27329,-6693540 -27326,-6693561 -27315,-6693597 -27308,-6693609 -27310,-6693618 -27313,-6693623 -27323,-6693637 -27324,-6693645 -27326,-6693650 -27349,-6693681 -27355,-6693688 -27359,-6693702 -27360,-6693706 -27365,-6693707 -27386,-6693711 -27403,-6693717 -27415,-6693724 -27448,-6693740 -27463,-6693740 -27475,-6693745 -27488,-6693747 -27496,-6693755 -27504,-6693764 -27515,-6693777 -27521,-6693785 -27524,-6693799 -27525,-6693811 -27526,-6693816 -27531,-6693829 -27533,-6693842 -27537,-6693851 -27544,-6693863 -27549,-6693873 -27550,-6693875 -27553,-6693903 -27555,-6693936 -27555,-6693971 -27549,-6693981 -27541,-6693992 -27521,-6694014 -27520,-6694017 -27520,-6694018 -27518,-6694022 -27516,-6694027 -27514,-6694031 -27513,-6694034 -27510,-6694054 -27508,-6694066 -27512,-6694089 -27540,-6694218 -27546,-6694239 -27630,-6694522 -27705,-6694773 -27722,-6694829 -27758,-6694948 -27775,-6694993 -27782,-6695015 -27783,-6695027 -27776,-6695042 -27776,-6695058 -27782,-6695109 -27795,-6695200 -27799,-6695230 -27807,-6695301 -27808,-6695315 -27811,-6695392 -27810,-6695412 -27802,-6695466 -27792,-6695508 -27784,-6695536 -27782,-6695558 -27779,-6695582 -27782,-6695613 -27784,-6695635 -27787,-6695663 -27802,-6695721 -27810,-6695743 -27814,-6695757 -27843,-6695824 -27858,-6695856 -27870,-6695887 -27880,-6695930 -27886,-6695961 -27891,-6695993 -27890,-6696025 -27888,-6696064 -27892,-6696099 -27902,-6696121 -27910,-6696148 -27919,-6696201 -27930,-6696261 -27952,-6696339 -27957,-6696349 -27964,-6696361 -27966,-6696364 -27987,-6696390 -28017,-6696427 -28028,-6696436 -28052,-6696452 -28096,-6696463 -28137,-6696478 -28156,-6696498 -28156,-6696520 -28155,-6696543 -28152,-6696585 -28151,-6696649 -28146,-6696671 -28139,-6696694 -28128,-6696723 -28116,-6696760 -28104,-6696795 -28097,-6696818 -28086,-6696881 -28081,-6696929 -28078,-6696950 -28083,-6696972 -28087,-6696994 -28090,-6697009 -28097,-6697050 -28108,-6697087 -28139,-6697135 -28159,-6697173 -28170,-6697196 -28184,-6697242 -28193,-6697285 -28203,-6697320 -28219,-6697363 -28238,-6697400 -28258,-6697454 -28271,-6697495 -28271,-6697496 -28284,-6697537 -28286,-6697546 -28295,-6697573 -28300,-6697589 -28298,-6697603 -28297,-6697616 -28297,-6697635 -28289,-6697666 -28282,-6697689 -28265,-6697727 -28243,-6697771 -28230,-6697800 -28210,-6697834 -28197,-6697861 -28184,-6697874 -28172,-6697883 -28152,-6697895 -28122,-6697909 -28110,-6697918 -28093,-6697934 -28076,-6697961 -28061,-6697981 -28032,-6698025 -28018,-6698043 -28003,-6698066 -27966,-6698119 -27947,-6698169 -27929,-6698174 -27915,-6698179 -27899,-6698186 -27858,-6698204 -27792,-6698230 -27690,-6698274 -27630,-6698294 -27544,-6698332 -27427,-6698376 -27378,-6698397 -27272,-6698440 -27170,-6698487 -27129,-6698504 -27074,-6698526 -27022,-6698545 -26965,-6698570 -26905,-6698594 -26847,-6698620 -26793,-6698643 -26770,-6698654 -26693,-6698694 -26625,-6698728 -26544,-6698769 -26448,-6698814 -26368,-6698855 -26277,-6698899 -26175,-6698945 -25953,-6699058 -25846,-6699113 -25785,-6699142 -25748,-6699164 -25720,-6699172 -25701,-6699172 -25652,-6699175 -25611,-6699184 -25521,-6699200 -25468,-6699212 -25337,-6699231 -25264,-6699245 -25143,-6699264 -25100,-6699272 -25058,-6699270 -25021,-6699258 -24989,-6699243 -24963,-6699293 -24848,-6699272 -24613,-6699229 -24536,-6699219 -24454,-6699233 -24442,-6699235 -24393,-6699250 -24355,-6699256 -24331,-6699259 -24324,-6699260 -24316,-6699261 -24309,-6699262 -24302,-6699262 -24294,-6699263 -24287,-6699263 -24280,-6699263 -24272,-6699263 -24269,-6699263 -24262,-6699262 -24255,-6699261 -24247,-6699260 -24240,-6699259 -24233,-6699258 -24226,-6699256 -24218,-6699255 -24211,-6699253 -24204,-6699251 -24197,-6699248 -24190,-6699246 -24168,-6699241 -24140,-6699228 -24101,-6699201 -24068,-6699167 -24061,-6699160 -24061,-6699159 -24056,-6699153 -24050,-6699147 -24046,-6699141 -24041,-6699135 -24036,-6699129 -24033,-6699124 -24012,-6699094 -24009,-6699094 -23992,-6699097 -23943,-6699103 -23847,-6699109 -23795,-6699112 -23735,-6699112 -23725,-6699109 -23704,-6699108 -23683,-6699109 -23657,-6699109 -23622,-6699115 -23610,-6699118 -23561,-6699129 -23485,-6699151 -23417,-6699167 -23367,-6699177 -23277,-6699194 -23228,-6699201 -23187,-6699208 -23156,-6699213 -23138,-6699216 -23093,-6699224 -23072,-6699231 -23005,-6699254 -22916,-6699267 -22866,-6699280 -22768,-6699311 -22738,-6699320 -22734,-6699311 -22671,-6699330 -22595,-6699353 -22565,-6699361 -22439,-6699400 -22096,-6699501 -21946,-6699547 -21894,-6699561 -21866,-6699578 -21661,-6699646 -21654,-6699628 -21644,-6699631 -21528,-6699666 -21466,-6699682 -21428,-6699692 -21191,-6699746 -21158,-6699758 -21156,-6699758 -21152,-6699760 -21150,-6699750 -21151,-6699731 -21152,-6699709 -21155,-6699673 -21155,-6699639" stroke="#006747" stroke-width="25" /></ns0:svg>    <rect x="20" y="50"  width="250" height="25"  rx="0"  fill="#006747" fill-opacity="0.8" />    <text x="145" y="70" text-anchor="middle" font-family="Frutiger" font-weight="bold" font-size="30" fill="white">Merton</text>    <rect x="35" y="195" width="220" height="160" rx="15" fill="#78BE20"/>    <g font-family="Frutiger" font-size="15" fill="#231F20">        <g> <text x="45" y="218">Self-harm</text> <text x="245" y="218" text-anchor="end">14</text> </g>        <g> <text x="45" y="243">SEN</text> <text x="245" y="243" text-anchor="end">52</text> </g>        <g> <text x="45" y="268">Difficulties</text> <text x="245" y="268" text-anchor="end">73</text> </g>        <g> <text x="45" y="293">Child Carer</text> <text x="245" y="293" text-anchor="end">20</text> </g>        <g> <text x="45" y="318">Drinkers</text> <text x="245" y="318" text-anchor="end">16</text> </g>        <g> <text x="45" y="343">Safeguarding £</text> <text x="245" y="343" text-anchor="end">25</text> </g>    </g></svg>