<?xml version="1.0" standalone="no"?>
<!DOCTYPE svg PUBLIC "-//W3C//DTD SVG 1.1//EN"
"http://www.w3.org/Graphics/SVG/1.1/DTD/svg11.dtd">
<svg height="1800" version="1.1" width="1800" xmlns="http://www.w3.org/2000/svg"><defs><style type="text/css">@font-face {font-family: 'Frutiger';font-style: normal;font-weight: normal;src: local('Frutiger'), url('../fonts/Frutiger.woff') format('woff');}@font-face {font-family: 'Frutiger Bold';font-style: normal;font-weight: normal;src: local('Frutiger Bold'), url('../fonts/Frutiger_bold.woff') format('woff');}        </style>    </defs>    <rect x="20" y="20"  width="250" height="350" rx="15" fill="#AE2573" />    <rect x="35" y="35"  width="220" height="145" rx="15" fill="#330072" /><ns0:svg xmlns:ns0="http://www.w3.org/2000/svg" height="115" version="1.1" viewBox="-11631 -6724140 9795 10377" width="220" x="35" y="50"><ns0:polygon fill="white" points=" -6676,-6723717 -6647,-6723646 -6641,-6723630 -6606,-6723540 -6573,-6723475 -6549,-6723419 -6536,-6723375 -6536,-6723373 -6519,-6723320 -6512,-6723273 -6508,-6723232 -6503,-6723208 -6501,-6723198 -6478,-6723162 -6408,-6723086 -6354,-6723035 -6316,-6722989 -6300,-6722924 -6275,-6722888 -6250,-6722866 -6232,-6722855 -6216,-6722846 -6206,-6722844 -6183,-6722842 -6152,-6722843 -6117,-6722835 -6096,-6722828 -6083,-6722821 -6070,-6722811 -6057,-6722800 -6040,-6722781 -6027,-6722759 -5956,-6722568 -5939,-6722521 -5929,-6722507 -5914,-6722491 -5877,-6722458 -5778,-6722386 -5694,-6722338 -5693,-6722338 -5657,-6722312 -5650,-6722305 -5639,-6722292 -5612,-6722247 -5546,-6722182 -5468,-6722100 -5457,-6722087 -5447,-6722071 -5403,-6722014 -5388,-6721995 -5374,-6721978 -5367,-6721970 -5303,-6721908 -5290,-6721893 -5282,-6721883 -5210,-6721764 -5206,-6721753 -5203,-6721747 -5198,-6721739 -5195,-6721727 -5194,-6721722 -5192,-6721718 -5191,-6721713 -5190,-6721708 -5189,-6721703 -5188,-6721700 -5187,-6721695 -5187,-6721690 -5186,-6721686 -5186,-6721681 -5186,-6721676 -5186,-6721671 -5186,-6721666 -5186,-6721665 -5187,-6721661 -5187,-6721658 -5188,-6721654 -5189,-6721651 -5190,-6721648 -5191,-6721644 -5192,-6721641 -5193,-6721638 -5194,-6721635 -5196,-6721631 -5197,-6721628 -5198,-6721626 -5200,-6721622 -5202,-6721618 -5204,-6721614 -5207,-6721610 -5209,-6721607 -5212,-6721603 -5212,-6721602 -5232,-6721567 -5251,-6721536 -5253,-6721533 -5254,-6721530 -5256,-6721527 -5257,-6721524 -5259,-6721520 -5260,-6721517 -5261,-6721514 -5262,-6721512 -5262,-6721510 -5263,-6721507 -5264,-6721504 -5264,-6721501 -5265,-6721497 -5266,-6721494 -5266,-6721490 -5266,-6721487 -5267,-6721483 -5267,-6721480 -5267,-6721476 -5266,-6721473 -5266,-6721469 -5266,-6721466 -5265,-6721464 -5265,-6721461 -5264,-6721458 -5263,-6721455 -5262,-6721452 -5261,-6721449 -5260,-6721446 -5259,-6721443 -5258,-6721440 -5256,-6721437 -5255,-6721434 -5253,-6721432 -5251,-6721429 -5249,-6721426 -5249,-6721426 -5247,-6721424 -5245,-6721421 -5243,-6721419 -5241,-6721417 -5239,-6721415 -5237,-6721413 -5234,-6721411 -5232,-6721409 -5229,-6721407 -5227,-6721405 -5224,-6721403 -5222,-6721402 -5219,-6721400 -5218,-6721399 -5214,-6721397 -5210,-6721395 -5206,-6721393 -5202,-6721391 -5198,-6721389 -5194,-6721387 -5190,-6721386 -5186,-6721384 -5182,-6721383 -5181,-6721382 -5124,-6721369 -5087,-6721358 -5084,-6721355 -5045,-6721301 -5017,-6721270 -4977,-6721258 -4947,-6721260 -4935,-6721262 -4911,-6721266 -4865,-6721263 -4825,-6721242 -4760,-6721213 -4751,-6721209 -4732,-6721202 -4715,-6721200 -4693,-6721203 -4659,-6721208 -4640,-6721214 -4569,-6721244 -4532,-6721263 -4517,-6721267 -4502,-6721271 -4484,-6721274 -4471,-6721275 -4458,-6721274 -4439,-6721262 -4419,-6721246 -4380,-6721209 -4364,-6721191 -4350,-6721175 -4336,-6721165 -4320,-6721163 -4307,-6721164 -4281,-6721163 -4267,-6721164 -4242,-6721168 -4221,-6721173 -4191,-6721182 -4142,-6721210 -4125,-6721216 -4111,-6721220 -4095,-6721224 -4081,-6721225 -4072,-6721226 -4050,-6721225 -4006,-6721216 -3922,-6721184 -3896,-6721171 -3882,-6721163 -3862,-6721147 -3811,-6721111 -3768,-6721084 -3745,-6721075 -3727,-6721070 -3704,-6721067 -3656,-6721068 -3622,-6721077 -3578,-6721092 -3524,-6721119 -3469,-6721155 -3464,-6721159 -3458,-6721162 -3452,-6721166 -3446,-6721169 -3439,-6721172 -3433,-6721175 -3429,-6721177 -3423,-6721180 -3417,-6721183 -3410,-6721185 -3403,-6721187 -3397,-6721189 -3390,-6721191 -3383,-6721193 -3377,-6721194 -3370,-6721196 -3369,-6721196 -3362,-6721197 -3355,-6721198 -3349,-6721199 -3348,-6721199 -3341,-6721200 -3313,-6721198 -3309,-6721198 -3305,-6721197 -3290,-6721195 -3267,-6721192 -3244,-6721185 -3175,-6721147 -3128,-6721118 -3101,-6721100 -3061,-6721076 -2986,-6721021 -2947,-6720992 -2932,-6720981 -2913,-6720967 -2879,-6720942 -2839,-6720900 -2795,-6720847 -2774,-6720819 -2753,-6720789 -2741,-6720773 -2729,-6720754 -2718,-6720731 -2710,-6720715 -2699,-6720684 -2691,-6720650 -2676,-6720584 -2666,-6720529 -2665,-6720485 -2659,-6720484 -2618,-6720478 -2567,-6720468 -2561,-6720467 -2507,-6720427 -2438,-6720375 -2309,-6720282 -2269,-6720252 -2129,-6720148 -2092,-6720121 -2053,-6720092 -2009,-6719896 -1995,-6719919 -1978,-6719875 -1964,-6719832 -1945,-6719772 -1923,-6719592 -1910,-6719471 -1909,-6719465 -1908,-6719450 -1908,-6719447 -2009,-6719447 -2111,-6719452 -2108,-6719441 -2099,-6719420 -2094,-6719398 -2095,-6719369 -2101,-6719340 -2103,-6719315 -2106,-6719283 -2105,-6719251 -2098,-6719216 -2081,-6719172 -2038,-6719058 -2022,-6718976 -1992,-6718877 -1958,-6718792 -1945,-6718745 -1940,-6718724 -1927,-6718651 -1914,-6718591 -1895,-6718488 -1887,-6718441 -1879,-6718368 -1876,-6718319 -1875,-6718287 -1871,-6718263 -1871,-6718244 -1861,-6718187 -1847,-6718148 -1836,-6718070 -1837,-6718027 -1841,-6717980 -1841,-6717977 -1863,-6717982 -1869,-6717974 -1894,-6717982 -1936,-6717989 -1976,-6717995 -2062,-6718013 -2137,-6718018 -2211,-6718017 -2262,-6718016 -2385,-6718005 -2479,-6717999 -2485,-6717988 -2487,-6717984 -2507,-6717984 -2529,-6717982 -2558,-6717981 -2566,-6717981 -2565,-6717974 -2653,-6717970 -2818,-6717954 -2836,-6717960 -2840,-6717973 -2848,-6717976 -2853,-6717956 -2858,-6717948 -2864,-6717940 -2875,-6717934 -2947,-6717894 -3008,-6717867 -3044,-6717852 -3096,-6717829 -3156,-6717805 -3193,-6717792 -3225,-6717782 -3226,-6717785 -3242,-6717835 -3268,-6717890 -3278,-6717917 -3297,-6717935 -3328,-6717955 -3394,-6717980 -3442,-6717998 -3455,-6718009 -3505,-6718055 -3558,-6718106 -3661,-6718203 -3677,-6718212 -3689,-6718214 -3699,-6718212 -3713,-6718203 -3717,-6718198 -3743,-6718166 -3757,-6718146 -3768,-6718129 -3789,-6718101 -3841,-6718029 -3909,-6717977 -3990,-6717915 -4091,-6717816 -4200,-6717696 -4133,-6717631 -4134,-6717629 -4145,-6717616 -4157,-6717613 -4165,-6717604 -4167,-6717600 -4175,-6717592 -4177,-6717580 -4221,-6717512 -4300,-6717392 -4350,-6717311 -4467,-6717142 -4531,-6717035 -4572,-6716974 -4609,-6716920 -4715,-6716838 -4835,-6716749 -4847,-6716742 -4864,-6716748 -4876,-6716746 -4891,-6716735 -4928,-6716684 -4966,-6716642 -4973,-6716636 -4982,-6716629 -4990,-6716625 -4998,-6716622 -5115,-6716588 -5220,-6716568 -5246,-6716569 -5265,-6716571 -5292,-6716575 -5323,-6716585 -5339,-6716586 -5349,-6716587 -5361,-6716591 -5374,-6716597 -5387,-6716605 -5397,-6716612 -5405,-6716619 -5440,-6716657 -5484,-6716695 -5512,-6716715 -5521,-6716718 -5553,-6716730 -5590,-6716740 -5602,-6716742 -5618,-6716744 -5635,-6716744 -5653,-6716743 -5669,-6716741 -5721,-6716728 -5741,-6716718 -5759,-6716707 -5772,-6716698 -5801,-6716674 -5829,-6716644 -5850,-6716609 -5864,-6716575 -5875,-6716510 -5878,-6716467 -5898,-6716475 -5948,-6716495 -5992,-6716504 -6023,-6716509 -6051,-6716512 -6086,-6716508 -6104,-6716502 -6123,-6716500 -6144,-6716496 -6146,-6716495 -6147,-6716495 -6166,-6716488 -6191,-6716477 -6254,-6716447 -6321,-6716409 -6375,-6716377 -6405,-6716362 -6466,-6716337 -6537,-6716321 -6571,-6716317 -6604,-6716318 -6641,-6716323 -6666,-6716329 -6698,-6716342 -6717,-6716353 -6727,-6716360 -6749,-6716378 -6752,-6716381 -6780,-6716423 -6825,-6716483 -6865,-6716531 -6909,-6716562 -6951,-6716572 -6972,-6716534 -6987,-6716498 -6993,-6716478 -6992,-6716415 -6982,-6716343 -6978,-6716319 -6962,-6716263 -6949,-6716232 -6933,-6716192 -6925,-6716166 -6973,-6716155 -7039,-6716136 -7230,-6716104 -7245,-6716154 -7248,-6716161 -7273,-6716111 -7302,-6716026 -7332,-6715946 -7364,-6715854 -7378,-6715805 -7489,-6715789 -7566,-6715781 -7711,-6715770 -7779,-6715769 -7848,-6715765 -7926,-6715757 -7971,-6715750 -8003,-6715742 -8041,-6715736 -8099,-6715709 -8114,-6715701 -8139,-6715687 -8209,-6715646 -8239,-6715623 -8253,-6715611 -8276,-6715588 -8306,-6715548 -8338,-6715481 -8381,-6715372 -8399,-6715335 -8416,-6715305 -8421,-6715298 -8427,-6715291 -8461,-6715249 -8496,-6715205 -8556,-6715138 -8596,-6715102 -8492,-6715075 -8497,-6715026 -8517,-6714961 -8528,-6714939 -8528,-6714919 -8528,-6714898 -8527,-6714868 -8524,-6714821 -8519,-6714750 -8506,-6714563 -8447,-6714569 -8432,-6714486 -8426,-6714438 -8426,-6714420 -8431,-6714365 -8436,-6714340 -8439,-6714327 -8442,-6714314 -8458,-6714253 -8466,-6714222 -8475,-6714190 -8478,-6714181 -8507,-6714156 -8537,-6714192 -8583,-6714174 -8671,-6714143 -8706,-6714128 -8730,-6714072 -8732,-6714066 -8876,-6714095 -8987,-6714134 -9019,-6714146 -9045,-6714052 -9075,-6713979 -9098,-6713932 -9102,-6713927 -9127,-6713896 -9161,-6713852 -9206,-6713808 -9272,-6713763 -9483,-6713856 -9466,-6713909 -9448,-6713974 -9426,-6714084 -9406,-6714167 -9397,-6714242 -9385,-6714405 -9383,-6714440 -9372,-6714494 -9406,-6714493 -9474,-6714498 -9471,-6714588 -9508,-6714603 -9504,-6714618 -9489,-6714664 -9462,-6714727 -9431,-6714765 -9449,-6714848 -9461,-6714906 -9603,-6714852 -9621,-6714845 -9659,-6714832 -9685,-6714843 -9714,-6714855 -9730,-6714862 -9771,-6714889 -9775,-6714911 -9807,-6715016 -9827,-6715061 -9847,-6715091 -9854,-6715105 -9859,-6715112 -9866,-6715118 -9880,-6715128 -9910,-6715146 -9924,-6715153 -9971,-6715175 -10617,-6715441 -10588,-6715526 -10582,-6715548 -10581,-6715560 -10581,-6715572 -10584,-6715595 -10607,-6715668 -10630,-6715726 -10672,-6715820 -10712,-6715918 -10798,-6716119 -10745,-6716142 -10701,-6716164 -10685,-6716173 -10577,-6716236 -10577,-6716248 -10522,-6716282 -10514,-6716275 -10459,-6716308 -10436,-6716324 -10381,-6716361 -10299,-6716421 -10236,-6716470 -10192,-6716505 -10168,-6716523 -10101,-6716570 -10044,-6716616 -9984,-6716658 -9981,-6716660 -9919,-6716711 -9866,-6716757 -9815,-6716799 -9759,-6716843 -9727,-6716863 -9691,-6716878 -9661,-6716886 -9639,-6716884 -9634,-6716910 -9621,-6716937 -9615,-6716969 -9574,-6717148 -9535,-6717336 -9514,-6717442 -9424,-6717801 -9357,-6718078 -9310,-6718281 -9306,-6718310 -9329,-6718557 -9255,-6718552 -8871,-6718511 -8715,-6718492 -8550,-6718463 -8499,-6718512 -8497,-6718524 -8498,-6718566 -8503,-6718623 -8506,-6718685 -8528,-6718795 -8538,-6718828 -8541,-6718835 -8559,-6718884 -8578,-6718928 -8648,-6719061 -8652,-6719069 -8669,-6719106 -8756,-6719334 -8769,-6719355 -8776,-6719370 -8795,-6719404 -8828,-6719449 -8842,-6719463 -8847,-6719468 -8855,-6719476 -8871,-6719489 -8898,-6719500 -8934,-6719507 -9027,-6719519 -9260,-6719548 -9316,-6719546 -9390,-6719535 -9404,-6719531 -9418,-6719530 -9425,-6719531 -9479,-6719543 -9492,-6719545 -9504,-6719548 -9515,-6719552 -9530,-6719560 -9579,-6719600 -9600,-6719613 -9609,-6719619 -9627,-6719626 -9658,-6719635 -9681,-6719642 -9721,-6719656 -9743,-6719670 -9754,-6719683 -9764,-6719692 -9858,-6719872 -9910,-6719848 -9937,-6719835 -9963,-6719865 -9976,-6719877 -9988,-6719886 -10001,-6719894 -10019,-6719906 -10044,-6719907 -10060,-6719908 -10059,-6719957 -10052,-6720048 -10050,-6720125 -10045,-6720204 -10051,-6720363 -10062,-6720538 -10058,-6720548 -10048,-6720560 -10050,-6720566 -10057,-6720583 -10077,-6720654 -10101,-6720736 -10114,-6720776 -10132,-6720823 -10154,-6720877 -10184,-6720949 -10189,-6720967 -10192,-6720984 -10205,-6720995 -10257,-6721005 -10269,-6721008 -10324,-6721034 -10348,-6721039 -10363,-6721041 -10387,-6721043 -10420,-6721047 -10433,-6721054 -10493,-6721098 -10516,-6721111 -10553,-6721128 -10656,-6721166 -10687,-6721175 -10971,-6721105 -11071,-6721221 -11225,-6721388 -11236,-6721402 -11240,-6721406 -11251,-6721417 -11277,-6721435 -11286,-6721444 -11297,-6721456 -11343,-6721511 -11361,-6721535 -11369,-6721544 -11551,-6721729 -11631,-6721798 -11617,-6721810 -11608,-6721817 -11473,-6721952 -11282,-6722148 -11207,-6722231 -11022,-6722456 -10988,-6722498 -10918,-6722585 -10723,-6722824 -10689,-6722863 -10696,-6722871 -10708,-6722891 -10724,-6722923 -10733,-6722942 -10751,-6722996 -10760,-6723016 -10768,-6723032 -10780,-6723074 -10785,-6723094 -10845,-6723278 -10884,-6723394 -10869,-6723400 -10857,-6723405 -10833,-6723416 -10828,-6723418 -10820,-6723420 -10811,-6723422 -10803,-6723424 -10795,-6723426 -10789,-6723427 -10784,-6723428 -10778,-6723428 -10773,-6723429 -10770,-6723429 -10765,-6723429 -10760,-6723430 -10755,-6723430 -10752,-6723429 -10747,-6723429 -10742,-6723429 -10697,-6723414 -10635,-6723399 -10632,-6723398 -10621,-6723397 -10611,-6723395 -10600,-6723394 -10589,-6723393 -10586,-6723393 -10583,-6723393 -10579,-6723392 -10576,-6723392 -10573,-6723392 -10570,-6723392 -10567,-6723391 -10563,-6723391 -10560,-6723391 -10540,-6723389 -10525,-6723396 -10494,-6723417 -10441,-6723447 -10430,-6723453 -10414,-6723458 -10410,-6723459 -10377,-6723466 -10366,-6723468 -10357,-6723469 -10355,-6723469 -10345,-6723469 -10336,-6723469 -10327,-6723469 -10318,-6723468 -10314,-6723467 -10295,-6723464 -10276,-6723462 -10257,-6723460 -10255,-6723459 -10251,-6723459 -10246,-6723458 -10242,-6723458 -10237,-6723457 -10233,-6723457 -10228,-6723457 -10225,-6723457 -10221,-6723457 -10216,-6723458 -10211,-6723458 -10197,-6723459 -10192,-6723460 -10188,-6723460 -10181,-6723461 -10170,-6723463 -10156,-6723468 -10126,-6723481 -10089,-6723502 -10055,-6723520 -10048,-6723524 -10036,-6723527 -10032,-6723528 -10026,-6723530 -10013,-6723532 -9997,-6723533 -9965,-6723532 -9951,-6723531 -9943,-6723530 -9936,-6723529 -9929,-6723528 -9921,-6723528 -9906,-6723525 -9902,-6723524 -9886,-6723522 -9864,-6723520 -9839,-6723522 -9804,-6723531 -9792,-6723533 -9782,-6723534 -9770,-6723534 -9761,-6723534 -9749,-6723533 -9728,-6723531 -9667,-6723515 -9667,-6723529 -9676,-6723544 -9686,-6723552 -9701,-6723551 -9701,-6723555 -9707,-6723588 -9644,-6723598 -9580,-6723613 -9576,-6723614 -9554,-6723620 -9536,-6723648 -9448,-6723663 -9328,-6723675 -9304,-6723676 -9214,-6723697 -9151,-6723707 -9108,-6723723 -9000,-6723756 -8998,-6723747 -8884,-6723737 -8884,-6723731 -8830,-6723727 -8786,-6723720 -8732,-6723706 -8687,-6723695 -8682,-6723693 -8683,-6723689 -8683,-6723688 -8632,-6723674 -8629,-6723684 -8626,-6723683 -8574,-6723666 -8579,-6723656 -8574,-6723654 -8484,-6723629 -8454,-6723687 -8446,-6723704 -8433,-6723730 -8429,-6723728 -8394,-6723707 -8387,-6723703 -8382,-6723700 -8368,-6723701 -8365,-6723741 -8283,-6723751 -8283,-6723751 -8284,-6723764 -8278,-6723764 -8276,-6723752 -8261,-6723754 -8234,-6723758 -8208,-6723762 -8208,-6723768 -8194,-6723769 -8193,-6723758 -8192,-6723753 -8184,-6723754 -8184,-6723750 -8128,-6723756 -8097,-6723759 -8069,-6723751 -8054,-6723755 -8052,-6723755 -8047,-6723756 -8003,-6723767 -8000,-6723768 -7996,-6723752 -7995,-6723750 -7893,-6723765 -7843,-6723785 -7786,-6723799 -7759,-6723807 -7732,-6723814 -7715,-6723819 -7650,-6723837 -7603,-6723846 -7566,-6723855 -7503,-6723868 -7496,-6723869 -7481,-6723871 -7465,-6723875 -7426,-6723885 -7431,-6723932 -7358,-6723952 -7285,-6723975 -7190,-6724003 -7147,-6724027 -7095,-6724044 -6978,-6724084 -6808,-6724140 -6787,-6724075 -6753,-6723971 -6713,-6723850 -6685,-6723750 -6676,-6723717" stroke="white" stroke-width="20" /></ns0:svg>    <rect x="20" y="50"  width="250" height="25"  rx="0"  fill="#E8EDEE" fill-opacity="0.8" />    <text x="145" y="70" text-anchor="middle" font-family="Frutiger" font-weight="bold" font-size="30" fill="#AE2573">Hackney</text>    <rect x="35" y="195" width="220" height="160" rx="15" fill="#724F95"/>    <g font-family="Frutiger" font-size="15" fill="white">        <g> <text x="45" y="218">Self-harm</text> <text x="245" y="218" text-anchor="end">13</text> </g>        <g> <text x="45" y="243">SEN</text> <text x="245" y="243" text-anchor="end">71</text> </g>        <g> <text x="45" y="268">Difficulties</text> <text x="245" y="268" text-anchor="end">74</text> </g>        <g> <text x="45" y="293">Child Carer</text> <text x="245" y="293" text-anchor="end">56</text> </g>        <g> <text x="45" y="318">Drinkers</text> <text x="245" y="318" text-anchor="end">17</text> </g>        <g> <text x="45" y="343">Safeguarding £</text> <text x="245" y="343" text-anchor="end">48</text> </g>    </g></svg>