<?xml version="1.0" standalone="no"?>
<!DOCTYPE svg PUBLIC "-//W3C//DTD SVG 1.1//EN"
"http://www.w3.org/Graphics/SVG/1.1/DTD/svg11.dtd">
<svg height="1800" version="1.1" width="1800" xmlns="http://www.w3.org/2000/svg"><defs><style type="text/css">@font-face {font-family: 'Frutiger';font-style: normal;font-weight: normal;src: local('Frutiger'), url('../fonts/Frutiger.woff') format('woff');}@font-face {font-family: 'Frutiger Bold';font-style: normal;font-weight: normal;src: local('Frutiger Bold'), url('../fonts/Frutiger_bold.woff') format('woff');}        </style>    </defs>    <rect x="20" y="20"  width="250" height="350" rx="15" fill="#009639" />    <rect x="35" y="35"  width="220" height="145" rx="15" fill="#E8EDEE" /><ns0:svg xmlns:ns0="http://www.w3.org/2000/svg" height="115" version="1.1" viewBox="-15864 -6723733 7367 10198" width="220" x="35" y="50"><ns0:polygon fill="#006747" points=" -13270,-6723641 -13273,-6723638 -13259,-6723623 -13231,-6723594 -13232,-6723593 -13298,-6723539 -13307,-6723532 -13251,-6723529 -13229,-6723528 -13158,-6723509 -13110,-6723496 -13086,-6723489 -13071,-6723470 -13042,-6723431 -12975,-6723350 -12890,-6723252 -12864,-6723207 -12924,-6723139 -12921,-6723137 -12882,-6723110 -12844,-6723085 -12865,-6723037 -12866,-6723036 -12855,-6723025 -12821,-6723003 -12814,-6722999 -12814,-6722983 -12816,-6722895 -12817,-6722867 -12809,-6722862 -12804,-6722860 -12803,-6722856 -12803,-6722849 -12422,-6722577 -12321,-6722497 -12317,-6722493 -12279,-6722463 -12165,-6722351 -12137,-6722326 -12115,-6722305 -12110,-6722300 -12088,-6722276 -12066,-6722251 -12055,-6722237 -12002,-6722171 -11994,-6722159 -11976,-6722128 -11945,-6722089 -11910,-6722052 -11897,-6722036 -11867,-6721999 -11819,-6721947 -11671,-6721785 -11641,-6721809 -11625,-6721821 -11619,-6721811 -11617,-6721810 -11631,-6721798 -11551,-6721729 -11369,-6721544 -11361,-6721535 -11343,-6721511 -11297,-6721456 -11286,-6721444 -11277,-6721435 -11251,-6721417 -11240,-6721406 -11236,-6721402 -11225,-6721388 -11071,-6721221 -10971,-6721105 -10687,-6721175 -10656,-6721166 -10553,-6721128 -10516,-6721111 -10493,-6721098 -10433,-6721054 -10420,-6721047 -10387,-6721043 -10363,-6721041 -10348,-6721039 -10324,-6721034 -10269,-6721008 -10257,-6721005 -10205,-6720995 -10192,-6720984 -10189,-6720967 -10184,-6720949 -10154,-6720877 -10132,-6720823 -10114,-6720776 -10101,-6720736 -10077,-6720654 -10057,-6720583 -10050,-6720566 -10048,-6720560 -10058,-6720548 -10062,-6720538 -10051,-6720363 -10045,-6720204 -10050,-6720125 -10052,-6720048 -10059,-6719957 -10060,-6719908 -10044,-6719907 -10019,-6719906 -10001,-6719894 -9988,-6719886 -9976,-6719877 -9963,-6719865 -9937,-6719835 -9910,-6719848 -9858,-6719872 -9764,-6719692 -9754,-6719683 -9743,-6719670 -9721,-6719656 -9681,-6719642 -9658,-6719635 -9627,-6719626 -9609,-6719619 -9600,-6719613 -9579,-6719600 -9530,-6719560 -9515,-6719552 -9504,-6719548 -9492,-6719545 -9479,-6719543 -9425,-6719531 -9418,-6719530 -9404,-6719531 -9390,-6719535 -9316,-6719546 -9260,-6719548 -9027,-6719519 -8934,-6719507 -8898,-6719500 -8871,-6719489 -8855,-6719476 -8847,-6719468 -8842,-6719463 -8828,-6719449 -8795,-6719404 -8776,-6719370 -8769,-6719355 -8756,-6719334 -8669,-6719106 -8652,-6719069 -8648,-6719061 -8578,-6718928 -8559,-6718884 -8541,-6718835 -8538,-6718828 -8528,-6718795 -8506,-6718685 -8503,-6718623 -8498,-6718566 -8497,-6718524 -8499,-6718512 -8550,-6718463 -8715,-6718492 -8871,-6718511 -9255,-6718552 -9329,-6718557 -9306,-6718310 -9310,-6718281 -9357,-6718078 -9424,-6717801 -9514,-6717442 -9535,-6717336 -9574,-6717148 -9615,-6716969 -9621,-6716937 -9634,-6716910 -9639,-6716884 -9661,-6716886 -9691,-6716878 -9727,-6716863 -9759,-6716843 -9815,-6716799 -9866,-6716757 -9919,-6716711 -9981,-6716660 -9984,-6716658 -10044,-6716616 -10101,-6716570 -10168,-6716523 -10192,-6716505 -10236,-6716470 -10299,-6716421 -10381,-6716361 -10436,-6716324 -10459,-6716308 -10514,-6716275 -10522,-6716282 -10577,-6716248 -10577,-6716236 -10685,-6716173 -10701,-6716164 -10745,-6716142 -10798,-6716119 -10712,-6715918 -10672,-6715820 -10630,-6715726 -10607,-6715668 -10584,-6715595 -10581,-6715572 -10581,-6715560 -10582,-6715548 -10588,-6715526 -10617,-6715441 -9971,-6715175 -9924,-6715153 -9910,-6715146 -9880,-6715128 -9866,-6715118 -9859,-6715112 -9854,-6715105 -9847,-6715091 -9827,-6715061 -9807,-6715016 -9775,-6714911 -9771,-6714889 -9730,-6714862 -9714,-6714855 -9685,-6714843 -9659,-6714832 -9621,-6714845 -9603,-6714852 -9461,-6714906 -9449,-6714848 -9431,-6714765 -9462,-6714727 -9489,-6714664 -9504,-6714618 -9508,-6714603 -9471,-6714588 -9474,-6714498 -9406,-6714493 -9372,-6714494 -9383,-6714440 -9385,-6714405 -9397,-6714242 -9406,-6714167 -9426,-6714084 -9448,-6713974 -9466,-6713909 -9483,-6713856 -9501,-6713819 -9521,-6713766 -9549,-6713694 -9559,-6713669 -9595,-6713583 -9610,-6713589 -9742,-6713653 -9807,-6713691 -9864,-6713719 -9938,-6713757 -9983,-6713776 -9991,-6713780 -10016,-6713791 -9982,-6713919 -9981,-6713924 -10045,-6713939 -10118,-6713953 -10168,-6713964 -10218,-6713972 -10258,-6713978 -10280,-6713980 -10296,-6714062 -10383,-6714035 -10395,-6714069 -10415,-6714064 -10418,-6714080 -10447,-6714072 -10499,-6714061 -10506,-6714108 -10530,-6714210 -10564,-6714307 -10582,-6714357 -10682,-6714317 -10685,-6714325 -10736,-6714301 -10753,-6714364 -10759,-6714363 -10761,-6714362 -10763,-6714367 -10771,-6714390 -10903,-6714311 -10899,-6714305 -10895,-6714299 -10882,-6714277 -10873,-6714257 -10866,-6714240 -10852,-6714195 -10837,-6714128 -10836,-6714105 -10838,-6714087 -10839,-6714081 -10852,-6714083 -10858,-6714029 -10864,-6713981 -10869,-6713925 -10956,-6713901 -11006,-6713885 -11056,-6713862 -11090,-6713847 -11141,-6713821 -11157,-6713820 -11162,-6713819 -11176,-6713816 -11218,-6713794 -11248,-6713780 -11304,-6713751 -11331,-6713736 -11361,-6713720 -11491,-6713654 -11658,-6713572 -11723,-6713536 -11724,-6713535 -11740,-6713642 -11784,-6713847 -11801,-6713919 -11815,-6713961 -11836,-6714023 -11852,-6714063 -11869,-6714098 -11910,-6714188 -12050,-6714170 -12051,-6714171 -12057,-6714180 -12086,-6714236 -12104,-6714278 -12127,-6714330 -12129,-6714336 -12158,-6714320 -12166,-6714323 -12184,-6714336 -12198,-6714346 -12221,-6714351 -12240,-6714358 -12309,-6714381 -12375,-6714404 -12452,-6714433 -12486,-6714449 -12504,-6714458 -12527,-6714475 -12599,-6714554 -12632,-6714589 -12644,-6714607 -12651,-6714621 -12674,-6714674 -12699,-6714741 -12710,-6714773 -12715,-6714783 -12658,-6714848 -12601,-6714912 -12570,-6714943 -12624,-6714963 -12645,-6714975 -12660,-6714983 -12668,-6714991 -12742,-6715061 -12766,-6715085 -12832,-6715155 -12846,-6715178 -12851,-6715188 -12857,-6715204 -12862,-6715220 -12874,-6715285 -12879,-6715357 -12886,-6715488 -12888,-6715504 -12892,-6715518 -12896,-6715530 -12903,-6715544 -12912,-6715557 -12916,-6715563 -12969,-6715602 -13032,-6715636 -13083,-6715658 -13148,-6715685 -13245,-6715719 -13343,-6715753 -13491,-6715737 -13577,-6715727 -13639,-6715715 -13639,-6715734 -13640,-6715784 -13629,-6716075 -13618,-6716309 -13615,-6716403 -13616,-6716406 -13615,-6716573 -13614,-6716627 -13616,-6716671 -13617,-6716714 -13619,-6716761 -13622,-6716817 -13636,-6716903 -13645,-6716949 -13658,-6717003 -13697,-6717106 -13709,-6717132 -13731,-6717177 -13771,-6717239 -13806,-6717288 -13833,-6717342 -13896,-6717481 -13913,-6717528 -13921,-6717575 -13922,-6717588 -13941,-6717636 -13965,-6717690 -13988,-6717753 -13994,-6717819 -14004,-6717865 -14012,-6717897 -14016,-6717920 -14013,-6717945 -14022,-6718011 -14040,-6718125 -14063,-6718281 -14067,-6718304 -14080,-6718380 -14096,-6718468 -14122,-6718627 -14144,-6718709 -14150,-6718722 -14153,-6718737 -14157,-6718747 -14164,-6718761 -14202,-6718814 -14212,-6718826 -14221,-6718838 -14242,-6718862 -14272,-6718883 -14372,-6718957 -14395,-6718981 -14396,-6718981 -14450,-6719043 -14471,-6719073 -14486,-6719097 -14507,-6719146 -14548,-6719283 -14553,-6719321 -14559,-6719383 -14561,-6719395 -14566,-6719408 -14571,-6719419 -14582,-6719436 -14607,-6719461 -14619,-6719472 -14673,-6719517 -14709,-6719545 -14830,-6719673 -14914,-6719767 -14956,-6719813 -14985,-6719856 -14994,-6719872 -15012,-6719906 -15035,-6719958 -15041,-6719970 -15047,-6719979 -15053,-6719986 -15062,-6719995 -15078,-6720007 -15126,-6720035 -15197,-6720068 -15249,-6720112 -15267,-6720131 -15278,-6720145 -15290,-6720167 -15297,-6720183 -15403,-6720393 -15416,-6720420 -15500,-6720599 -15520,-6720643 -15547,-6720702 -15640,-6720920 -15660,-6720952 -15671,-6720967 -15680,-6720982 -15686,-6720994 -15693,-6721018 -15696,-6721032 -15699,-6721050 -15701,-6721083 -15696,-6721144 -15697,-6721165 -15697,-6721177 -15695,-6721206 -15692,-6721218 -15671,-6721298 -15659,-6721333 -15655,-6721350 -15652,-6721363 -15648,-6721412 -15647,-6721464 -15651,-6721504 -15661,-6721538 -15665,-6721555 -15671,-6721587 -15672,-6721606 -15672,-6721645 -15657,-6721716 -15656,-6721726 -15656,-6721738 -15656,-6721755 -15657,-6721771 -15658,-6721777 -15697,-6721880 -15705,-6721909 -15709,-6721925 -15715,-6721971 -15715,-6721975 -15726,-6722050 -15753,-6722259 -15767,-6722332 -15792,-6722445 -15829,-6722510 -15864,-6722553 -15860,-6722570 -15850,-6722589 -15823,-6722594 -15758,-6722614 -15683,-6722630 -15660,-6722638 -15639,-6722653 -15525,-6722746 -15481,-6722784 -15454,-6722806 -15434,-6722829 -15409,-6722846 -15406,-6722848 -15397,-6722854 -15367,-6722874 -15314,-6722915 -15279,-6722935 -15235,-6722958 -15214,-6722971 -15197,-6722984 -15155,-6723020 -15125,-6723038 -15092,-6723058 -15053,-6723084 -15046,-6723089 -14938,-6723183 -14850,-6723260 -14846,-6723263 -14815,-6723287 -14800,-6723296 -14780,-6723307 -14767,-6723313 -14730,-6723328 -14681,-6723351 -14661,-6723362 -14648,-6723371 -14623,-6723385 -14601,-6723392 -14582,-6723396 -14527,-6723409 -14441,-6723428 -14399,-6723435 -14330,-6723451 -14189,-6723490 -14148,-6723483 -14109,-6723486 -14101,-6723485 -14082,-6723481 -14049,-6723471 -14040,-6723467 -13965,-6723470 -13923,-6723476 -13898,-6723480 -13880,-6723486 -13870,-6723490 -13865,-6723511 -13862,-6723527 -13857,-6723527 -13845,-6723525 -13832,-6723524 -13814,-6723535 -13796,-6723555 -13783,-6723572 -13781,-6723575 -13775,-6723581 -13757,-6723583 -13737,-6723585 -13719,-6723585 -13623,-6723636 -13619,-6723625 -13555,-6723652 -13553,-6723653 -13551,-6723646 -13347,-6723724 -13316,-6723732 -13307,-6723733 -13304,-6723733 -13287,-6723688 -13270,-6723641" stroke="#006747" stroke-width="17" /></ns0:svg>    <rect x="20" y="50"  width="250" height="25"  rx="0"  fill="#006747" fill-opacity="0.8" />    <text x="145" y="70" text-anchor="middle" font-family="Frutiger" font-weight="bold" font-size="30" fill="white">Islington</text>    <rect x="35" y="195" width="220" height="160" rx="15" fill="#78BE20"/>    <g font-family="Frutiger" font-size="15" fill="#231F20">        <g> <text x="45" y="218">Self-harm</text> <text x="245" y="218" text-anchor="end">14</text> </g>        <g> <text x="45" y="243">SEN</text> <text x="245" y="243" text-anchor="end">62</text> </g>        <g> <text x="45" y="268">Difficulties</text> <text x="245" y="268" text-anchor="end">67</text> </g>        <g> <text x="45" y="293">Child Carer</text> <text x="245" y="293" text-anchor="end">14</text> </g>        <g> <text x="45" y="318">Drinkers</text> <text x="245" y="318" text-anchor="end">24</text> </g>        <g> <text x="45" y="343">Safeguarding £</text> <text x="245" y="343" text-anchor="end">81</text> </g>    </g></svg>