<?xml version="1.0" standalone="no"?>
<!DOCTYPE svg PUBLIC "-//W3C//DTD SVG 1.1//EN"
"http://www.w3.org/Graphics/SVG/1.1/DTD/svg11.dtd">
<svg height="390" version="1.1" width="290" xmlns="http://www.w3.org/2000/svg"><defs><style type="text/css">@font-face {font-family: 'Frutiger';font-style: normal;font-weight: normal;src: local('Frutiger'), url('../fonts/Frutiger.woff') format('woff');}@font-face {font-family: 'Frutiger Bold';font-style: normal;font-weight: normal;src: local('Frutiger Bold'), url('../fonts/Frutiger_bold.woff') format('woff');}        </style>    </defs>    <rect x="20" y="20"  width="250" height="350" rx="15" fill="#005EB8" />    <rect x="35" y="35"  width="220" height="145" rx="15" fill="white" /><ns0:svg xmlns:ns0="http://www.w3.org/2000/svg" height="115" version="1.1" viewBox="-51371 -6710728 24274 14671" width="220" x="35" y="50"><ns0:polygon fill="#003087" points=" -31195,-6710651 -31155,-6710592 -31150,-6710595 -31131,-6710564 -31117,-6710537 -31103,-6710511 -31080,-6710450 -31052,-6710371 -31037,-6710332 -31021,-6710293 -31004,-6710256 -30987,-6710219 -30967,-6710182 -30950,-6710154 -30932,-6710127 -30865,-6710037 -30803,-6709958 -30755,-6709912 -30689,-6709852 -30528,-6709733 -30469,-6709683 -30421,-6709643 -30382,-6709598 -30357,-6709564 -30329,-6709530 -30310,-6709440 -30294,-6709401 -30278,-6709370 -30253,-6709336 -30227,-6709305 -30212,-6709289 -30197,-6709275 -30165,-6709247 -30135,-6709225 -30059,-6709187 -29986,-6709159 -29933,-6709148 -29877,-6709141 -29837,-6709147 -29799,-6709151 -29794,-6709134 -29685,-6709153 -29558,-6709176 -29434,-6709198 -29360,-6709213 -29238,-6709230 -29196,-6709237 -29151,-6709247 -29147,-6709250 -29134,-6709257 -29124,-6709258 -29104,-6709261 -29088,-6709254 -29083,-6709254 -28980,-6709269 -28950,-6709276 -28913,-6709278 -28778,-6709294 -28665,-6709308 -28534,-6709314 -28482,-6709314 -28447,-6709312 -28432,-6709312 -28429,-6709413 -28426,-6709443 -28436,-6709466 -28442,-6709493 -28449,-6709503 -28453,-6709509 -28437,-6709516 -28428,-6709521 -28441,-6709553 -28413,-6709562 -28397,-6709565 -28396,-6709567 -28395,-6709600 -28394,-6709609 -28388,-6709648 -28387,-6709661 -28386,-6709677 -28348,-6709749 -28341,-6709763 -28298,-6709847 -28263,-6709923 -28227,-6710001 -28203,-6710043 -28174,-6710113 -28151,-6710169 -28137,-6710202 -28132,-6710232 -28133,-6710268 -28138,-6710284 -28145,-6710306 -28154,-6710335 -28156,-6710358 -28163,-6710405 -28168,-6710451 -28169,-6710461 -28170,-6710469 -28163,-6710470 -28134,-6710438 -28143,-6710427 -28090,-6710369 -28065,-6710337 -28032,-6710287 -28010,-6710253 -27979,-6710194 -27977,-6710191 -27974,-6710191 -27968,-6710179 -27937,-6710122 -27952,-6710115 -27941,-6710101 -27909,-6710044 -27829,-6709855 -27759,-6709715 -27743,-6709676 -27742,-6709673 -27703,-6709692 -27669,-6709710 -27602,-6709754 -27578,-6709770 -27548,-6709791 -27521,-6709806 -27482,-6709831 -27421,-6709865 -27382,-6709885 -27312,-6709925 -27303,-6709930 -27285,-6709881 -27271,-6709842 -27225,-6709853 -27221,-6709854 -27206,-6709851 -27220,-6709788 -27230,-6709789 -27244,-6709744 -27230,-6709639 -27231,-6709611 -27238,-6709593 -27240,-6709563 -27245,-6709526 -27245,-6709521 -27221,-6709519 -27228,-6709466 -27239,-6709429 -27250,-6709425 -27252,-6709390 -27258,-6709333 -27267,-6709268 -27275,-6709191 -27302,-6708976 -27310,-6708917 -27317,-6708798 -27322,-6708727 -27322,-6708722 -27335,-6708576 -27338,-6708469 -27338,-6708459 -27334,-6708430 -27328,-6708404 -27307,-6708350 -27319,-6708337 -27302,-6708302 -27271,-6708259 -27253,-6708266 -27226,-6708215 -27221,-6708199 -27097,-6708059 -27237,-6707899 -27292,-6707857 -27406,-6707768 -27474,-6707717 -27517,-6707682 -27577,-6707629 -27585,-6707622 -27625,-6707582 -27651,-6707552 -27668,-6707530 -27683,-6707508 -27698,-6707486 -27713,-6707462 -27726,-6707439 -27738,-6707413 -27803,-6707267 -27835,-6707179 -27843,-6707149 -27852,-6707116 -27861,-6707073 -27864,-6707056 -27868,-6707024 -27872,-6706991 -27881,-6706874 -27881,-6706822 -27872,-6706727 -27868,-6706666 -27867,-6706583 -27872,-6706464 -27885,-6706325 -27899,-6706211 -27906,-6706167 -27914,-6706122 -27986,-6705905 -28017,-6705808 -28021,-6705767 -28026,-6705746 -28032,-6705724 -28039,-6705703 -28043,-6705694 -28092,-6705622 -28114,-6705579 -28191,-6705448 -28209,-6705413 -28229,-6705381 -28239,-6705368 -28249,-6705356 -28277,-6705328 -28336,-6705275 -28369,-6705247 -28403,-6705221 -28437,-6705196 -28473,-6705173 -28509,-6705150 -28542,-6705131 -28577,-6705113 -28617,-6705094 -28658,-6705076 -28700,-6705059 -28742,-6705045 -28775,-6705035 -28806,-6705027 -28842,-6705019 -28879,-6705014 -28916,-6705009 -28953,-6705006 -28990,-6705004 -29027,-6705003 -29071,-6705003 -29125,-6705004 -29181,-6705007 -29237,-6705012 -29292,-6705018 -29347,-6705028 -29386,-6705036 -29420,-6705044 -29467,-6705057 -29513,-6705072 -29559,-6705088 -29603,-6705106 -29635,-6705120 -29665,-6705135 -29705,-6705156 -29744,-6705179 -29782,-6705203 -29838,-6705241 -29992,-6705361 -30045,-6705410 -30147,-6705516 -30230,-6705619 -30305,-6705730 -30338,-6705784 -30370,-6705839 -30442,-6705979 -30492,-6706084 -30575,-6706277 -30735,-6706784 -30748,-6706832 -30758,-6706862 -30770,-6706893 -30784,-6706925 -30799,-6706957 -30814,-6706986 -30831,-6707016 -30926,-6707149 -31019,-6707269 -31103,-6707357 -31144,-6707388 -31150,-6707396 -31155,-6707401 -31166,-6707408 -31179,-6707412 -31196,-6707414 -31218,-6707419 -31228,-6707422 -31243,-6707429 -31257,-6707437 -31403,-6707549 -31426,-6707573 -31458,-6707649 -31471,-6707668 -31480,-6707677 -31486,-6707684 -31611,-6707773 -31690,-6707814 -31802,-6707852 -31923,-6707890 -31938,-6707893 -31958,-6707896 -31974,-6707897 -31996,-6707897 -31997,-6707897 -32053,-6707899 -32072,-6707899 -32080,-6707900 -32097,-6707904 -32117,-6707914 -32213,-6707950 -32244,-6707958 -32261,-6707960 -32298,-6707963 -32468,-6707958 -32476,-6707956 -32515,-6707948 -32658,-6707883 -32720,-6707851 -32959,-6707729 -32989,-6707711 -33010,-6707697 -33030,-6707682 -33042,-6707672 -33051,-6707663 -33058,-6707655 -33066,-6707643 -33073,-6707630 -33081,-6707614 -33102,-6707575 -33152,-6707443 -33214,-6707315 -33290,-6707170 -33373,-6707032 -33495,-6706865 -33641,-6706698 -33734,-6706591 -33869,-6706383 -33930,-6706267 -33968,-6706178 -33980,-6706143 -33988,-6706121 -34008,-6706077 -34026,-6706044 -34039,-6706024 -34060,-6705994 -34088,-6705955 -34131,-6705900 -34172,-6705853 -34341,-6705703 -34458,-6705624 -34525,-6705579 -34564,-6705553 -34683,-6705477 -34870,-6705366 -34956,-6705319 -35038,-6705283 -35113,-6705236 -35163,-6705219 -35241,-6705188 -35273,-6705173 -35293,-6705163 -35331,-6705140 -35349,-6705127 -35422,-6705070 -35451,-6705044 -35467,-6705022 -35472,-6705015 -35478,-6705005 -35488,-6704984 -35533,-6704824 -35562,-6704706 -35581,-6704633 -35589,-6704595 -35609,-6704383 -35615,-6704331 -35632,-6704264 -35656,-6704184 -35703,-6704035 -35707,-6704035 -35812,-6704035 -35825,-6704035 -35899,-6704036 -35904,-6704036 -35911,-6704037 -35918,-6704037 -35925,-6704038 -35932,-6704038 -35939,-6704038 -35946,-6704038 -35953,-6704037 -35960,-6704037 -35962,-6704037 -35964,-6704036 -35967,-6704036 -35970,-6704036 -35973,-6704035 -35976,-6704035 -35979,-6704035 -35982,-6704034 -35985,-6704034 -35987,-6704033 -35990,-6704032 -35993,-6704031 -35998,-6704029 -36003,-6704026 -36009,-6704022 -36014,-6704018 -36019,-6704014 -36024,-6704010 -36029,-6704006 -36033,-6704002 -36038,-6703998 -36043,-6703993 -36047,-6703989 -36072,-6703955 -36102,-6703918 -36138,-6703871 -36162,-6703836 -36191,-6703777 -36221,-6703716 -36241,-6703672 -36244,-6703664 -36254,-6703625 -36257,-6703603 -36262,-6703585 -36271,-6703571 -36281,-6703555 -36287,-6703539 -36291,-6703514 -36296,-6703505 -36310,-6703495 -36316,-6703482 -36325,-6703430 -36362,-6703381 -36367,-6703364 -36373,-6703347 -36377,-6703329 -36378,-6703328 -36383,-6703311 -36386,-6703293 -36386,-6703292 -36386,-6703289 -36386,-6703286 -36386,-6703284 -36386,-6703281 -36386,-6703278 -36385,-6703275 -36384,-6703273 -36383,-6703272 -36383,-6703270 -36382,-6703269 -36381,-6703268 -36380,-6703267 -36379,-6703266 -36378,-6703265 -36377,-6703264 -36376,-6703263 -36375,-6703262 -36374,-6703262 -36373,-6703261 -36370,-6703258 -36367,-6703257 -36365,-6703256 -36363,-6703255 -36360,-6703254 -36358,-6703253 -36355,-6703252 -36353,-6703252 -36350,-6703251 -36348,-6703250 -36346,-6703248 -36344,-6703247 -36343,-6703246 -36341,-6703245 -36340,-6703243 -36338,-6703242 -36337,-6703240 -36336,-6703239 -36335,-6703237 -36334,-6703235 -36333,-6703234 -36332,-6703232 -36331,-6703230 -36330,-6703228 -36330,-6703227 -36329,-6703225 -36329,-6703223 -36328,-6703221 -36328,-6703220 -36328,-6703218 -36328,-6703216 -36328,-6703214 -36328,-6703212 -36328,-6703210 -36328,-6703208 -36328,-6703206 -36328,-6703204 -36328,-6703202 -36329,-6703200 -36329,-6703197 -36329,-6703194 -36330,-6703191 -36331,-6703188 -36332,-6703185 -36333,-6703182 -36334,-6703179 -36335,-6703176 -36336,-6703172 -36338,-6703170 -36338,-6703169 -36349,-6703136 -36357,-6703109 -36363,-6703086 -36364,-6703085 -36365,-6703083 -36365,-6703082 -36366,-6703081 -36366,-6703080 -36367,-6703079 -36367,-6703077 -36367,-6703076 -36368,-6703075 -36368,-6703073 -36368,-6703072 -36368,-6703071 -36368,-6703069 -36368,-6703068 -36368,-6703067 -36368,-6703065 -36368,-6703064 -36367,-6703063 -36367,-6703062 -36366,-6703060 -36366,-6703059 -36366,-6703059 -36365,-6703058 -36364,-6703057 -36364,-6703056 -36363,-6703055 -36362,-6703055 -36361,-6703054 -36360,-6703054 -36359,-6703053 -36359,-6703053 -36358,-6703052 -36357,-6703052 -36356,-6703051 -36355,-6703051 -36353,-6703050 -36352,-6703050 -36351,-6703049 -36350,-6703049 -36348,-6703048 -36345,-6703047 -36342,-6703047 -36339,-6703047 -36337,-6703046 -36334,-6703046 -36331,-6703045 -36329,-6703044 -36326,-6703043 -36324,-6703042 -36323,-6703041 -36322,-6703040 -36321,-6703039 -36319,-6703038 -36318,-6703037 -36317,-6703036 -36316,-6703034 -36315,-6703033 -36314,-6703032 -36314,-6703030 -36313,-6703029 -36313,-6703027 -36312,-6703026 -36312,-6703025 -36312,-6703024 -36313,-6703023 -36313,-6703022 -36313,-6703021 -36313,-6703020 -36313,-6703019 -36314,-6703018 -36314,-6703017 -36315,-6703016 -36316,-6703012 -36316,-6703011 -36317,-6703010 -36317,-6703010 -36318,-6703007 -36319,-6703004 -36321,-6703001 -36323,-6702998 -36324,-6702995 -36326,-6702993 -36328,-6702990 -36330,-6702987 -36331,-6702984 -36333,-6702982 -36334,-6702979 -36335,-6702976 -36336,-6702972 -36338,-6702968 -36339,-6702965 -36340,-6702961 -36340,-6702957 -36340,-6702956 -36339,-6702954 -36339,-6702953 -36339,-6702951 -36338,-6702950 -36338,-6702948 -36337,-6702947 -36337,-6702945 -36336,-6702944 -36335,-6702942 -36335,-6702941 -36334,-6702939 -36334,-6702939 -36332,-6702933 -36329,-6702928 -36327,-6702923 -36325,-6702919 -36322,-6702914 -36319,-6702909 -36316,-6702904 -36313,-6702900 -36290,-6702871 -36290,-6702870 -36289,-6702870 -36289,-6702869 -36288,-6702868 -36288,-6702867 -36287,-6702866 -36287,-6702865 -36287,-6702864 -36287,-6702864 -36287,-6702863 -36287,-6702862 -36287,-6702861 -36287,-6702860 -36287,-6702859 -36287,-6702859 -36287,-6702858 -36287,-6702857 -36287,-6702856 -36288,-6702855 -36288,-6702854 -36288,-6702854 -36289,-6702852 -36290,-6702851 -36290,-6702850 -36291,-6702849 -36292,-6702848 -36292,-6702847 -36293,-6702846 -36293,-6702846 -36294,-6702846 -36295,-6702845 -36296,-6702845 -36297,-6702845 -36298,-6702845 -36299,-6702845 -36300,-6702845 -36301,-6702844 -36301,-6702844 -36302,-6702844 -36303,-6702843 -36303,-6702843 -36304,-6702842 -36304,-6702841 -36305,-6702840 -36305,-6702840 -36305,-6702839 -36305,-6702839 -36305,-6702838 -36306,-6702838 -36306,-6702837 -36306,-6702836 -36306,-6702835 -36306,-6702834 -36306,-6702834 -36306,-6702833 -36306,-6702832 -36306,-6702831 -36306,-6702830 -36305,-6702830 -36305,-6702829 -36305,-6702828 -36304,-6702827 -36304,-6702827 -36303,-6702826 -36303,-6702825 -36302,-6702825 -36302,-6702824 -36301,-6702823 -36300,-6702823 -36300,-6702822 -36299,-6702822 -36298,-6702821 -36297,-6702821 -36296,-6702820 -36295,-6702820 -36294,-6702819 -36293,-6702819 -36279,-6702813 -36277,-6702790 -36257,-6702776 -36243,-6702758 -36239,-6702732 -36245,-6702709 -36258,-6702693 -36284,-6702682 -36306,-6702678 -36326,-6702645 -36346,-6702602 -36358,-6702585 -36389,-6702540 -36404,-6702533 -36412,-6702536 -36428,-6702529 -36469,-6702595 -36534,-6702686 -36556,-6702703 -36588,-6702714 -36627,-6702718 -36680,-6702713 -36773,-6702690 -36810,-6702665 -36853,-6702624 -36890,-6702585 -36937,-6702492 -36972,-6702457 -36993,-6702422 -37008,-6702330 -37018,-6702315 -37027,-6702301 -37051,-6702279 -37060,-6702264 -37070,-6702248 -37095,-6702231 -37122,-6702222 -37137,-6702219 -37145,-6702258 -37145,-6702263 -37209,-6702270 -37257,-6702276 -37404,-6702294 -37433,-6702298 -37460,-6702267 -37471,-6702229 -37510,-6702110 -37541,-6702120 -37559,-6702130 -37574,-6702147 -37586,-6702169 -37618,-6702251 -37594,-6702262 -37685,-6702372 -37688,-6702370 -37731,-6702335 -37779,-6702394 -37834,-6702464 -37899,-6702549 -37916,-6702579 -37921,-6702615 -37928,-6702662 -37927,-6702678 -37926,-6702703 -37918,-6702743 -37904,-6702799 -37886,-6702855 -37869,-6702908 -37861,-6702933 -37893,-6702933 -37910,-6702933 -37965,-6702916 -38019,-6702899 -38038,-6702894 -38053,-6702873 -38068,-6702848 -38085,-6702822 -38110,-6702784 -38144,-6702731 -38176,-6702721 -38238,-6702724 -38254,-6702722 -38277,-6702712 -38299,-6702706 -38327,-6702705 -38361,-6702709 -38385,-6702704 -38408,-6702697 -38435,-6702687 -38463,-6702660 -38469,-6702613 -38483,-6702602 -38518,-6702581 -38536,-6702573 -38559,-6702563 -38577,-6702561 -38585,-6702565 -38586,-6702564 -38628,-6702543 -38667,-6702526 -38688,-6702514 -38705,-6702509 -38707,-6702508 -38736,-6702500 -38815,-6702491 -38874,-6702494 -38975,-6702493 -39023,-6702492 -39056,-6702491 -39143,-6702492 -39228,-6702505 -39255,-6702506 -39256,-6702507 -39275,-6702508 -39275,-6702523 -39275,-6702602 -39295,-6702642 -39313,-6702681 -39344,-6702744 -39504,-6702773 -39534,-6702775 -39675,-6702784 -39715,-6702784 -39756,-6702783 -39798,-6702779 -39839,-6702774 -39917,-6702763 -40052,-6702751 -40233,-6702712 -40298,-6702679 -40342,-6702659 -40391,-6702653 -40541,-6702642 -40567,-6702639 -40571,-6702655 -40636,-6702676 -40848,-6702630 -40892,-6702618 -40917,-6702616 -40944,-6702610 -40977,-6702563 -41011,-6702523 -41013,-6702514 -41014,-6702509 -41016,-6702510 -41140,-6702527 -41166,-6702532 -41264,-6702546 -41405,-6702567 -41460,-6702577 -41474,-6702552 -41485,-6702532 -41488,-6702536 -41504,-6702572 -41524,-6702617 -41565,-6702584 -41653,-6702499 -41715,-6702454 -41773,-6702405 -41775,-6702390 -41846,-6702300 -41875,-6702265 -41906,-6702227 -41937,-6702189 -41995,-6702108 -42022,-6702073 -42050,-6702038 -42170,-6701892 -42268,-6701769 -42371,-6701635 -42536,-6701426 -42616,-6701327 -42682,-6701240 -42715,-6701200 -42720,-6701195 -42807,-6701264 -43167,-6701181 -43155,-6701170 -43143,-6701158 -43126,-6701127 -43074,-6701053 -43053,-6701025 -43032,-6701001 -43012,-6700980 -43007,-6700970 -43002,-6700961 -43000,-6700950 -42999,-6700939 -43005,-6700901 -43007,-6700886 -43009,-6700846 -43016,-6700802 -43017,-6700792 -43012,-6700773 -43002,-6700750 -43001,-6700720 -42999,-6700709 -42996,-6700699 -42987,-6700691 -42966,-6700674 -42939,-6700656 -42799,-6700549 -42762,-6700521 -42737,-6700502 -42661,-6700428 -42618,-6700398 -42503,-6700367 -42464,-6700356 -42362,-6700323 -42275,-6700280 -42271,-6700270 -42258,-6700260 -42277,-6700230 -42278,-6700196 -42268,-6700188 -42249,-6700170 -42241,-6700159 -42235,-6700148 -42231,-6700135 -42239,-6700111 -42257,-6700092 -42257,-6700073 -42245,-6700051 -42223,-6700023 -42197,-6699997 -42133,-6699960 -42103,-6699941 -42067,-6699929 -42034,-6699926 -42007,-6699930 -41981,-6699939 -41954,-6699959 -41932,-6700007 -41919,-6700024 -41899,-6700037 -41864,-6700045 -41849,-6700045 -41820,-6700044 -41804,-6700043 -41729,-6700026 -41710,-6700026 -41692,-6700026 -41625,-6700036 -41594,-6700055 -41587,-6700073 -41582,-6700102 -41578,-6700115 -41573,-6700127 -41566,-6700135 -41558,-6700142 -41538,-6700147 -41507,-6700147 -41476,-6700137 -41449,-6700116 -41421,-6700098 -41405,-6700094 -41353,-6700084 -41324,-6700077 -41296,-6700064 -41283,-6700055 -41271,-6700046 -41255,-6700027 -41251,-6700021 -41153,-6699944 -41150,-6699942 -41121,-6699919 -41098,-6699911 -41071,-6699902 -40996,-6699868 -40938,-6699836 -40902,-6699820 -40863,-6699802 -40835,-6699790 -41051,-6699636 -41230,-6699509 -41728,-6699163 -42064,-6698925 -42069,-6698837 -41869,-6698700 -41877,-6698693 -41885,-6698686 -41910,-6698661 -41963,-6698632 -42015,-6698605 -42061,-6698580 -42098,-6698553 -42175,-6698494 -42230,-6698440 -42469,-6698255 -42582,-6698161 -42607,-6698144 -42625,-6698130 -42667,-6698091 -42711,-6698037 -42755,-6697991 -42795,-6697953 -42845,-6697895 -42929,-6697805 -42969,-6697758 -43058,-6697661 -43091,-6697619 -43113,-6697588 -43179,-6697484 -43187,-6697469 -43127,-6697445 -43094,-6697385 -43199,-6697332 -43213,-6697360 -43232,-6697363 -43232,-6697353 -43203,-6697310 -43161,-6697234 -43150,-6697211 -43116,-6697135 -43045,-6696989 -43020,-6696945 -42999,-6696888 -42951,-6696773 -42918,-6696702 -42878,-6696631 -42847,-6696571 -42820,-6696512 -42769,-6696421 -42756,-6696402 -42755,-6696377 -42768,-6696330 -42788,-6696280 -42812,-6696234 -42839,-6696174 -42842,-6696167 -42847,-6696152 -42868,-6696119 -42874,-6696107 -42885,-6696080 -42892,-6696068 -42899,-6696057 -42913,-6696059 -42937,-6696078 -43007,-6696119 -43081,-6696173 -43212,-6696260 -43331,-6696344 -43424,-6696406 -43449,-6696423 -43460,-6696431 -43495,-6696455 -43537,-6696490 -43623,-6696513 -43673,-6696530 -43720,-6696544 -43735,-6696511 -43676,-6696481 -43645,-6696454 -43637,-6696447 -43609,-6696422 -43586,-6696386 -43569,-6696355 -43563,-6696341 -43566,-6696342 -43588,-6696357 -43610,-6696370 -43633,-6696384 -43656,-6696396 -43679,-6696409 -43701,-6696420 -43703,-6696420 -43727,-6696432 -43751,-6696442 -43775,-6696453 -43779,-6696454 -43806,-6696466 -43833,-6696476 -43861,-6696486 -43888,-6696495 -43916,-6696503 -43945,-6696511 -43955,-6696514 -43970,-6696518 -43983,-6696521 -44012,-6696527 -44040,-6696533 -44068,-6696538 -44097,-6696542 -44126,-6696546 -44154,-6696549 -44183,-6696552 -44207,-6696554 -44244,-6696557 -44280,-6696559 -44315,-6696560 -44317,-6696560 -44354,-6696561 -44391,-6696560 -44427,-6696559 -44464,-6696557 -44487,-6696555 -44521,-6696552 -44555,-6696548 -44589,-6696543 -44623,-6696538 -44656,-6696531 -44690,-6696524 -44723,-6696517 -44751,-6696510 -44782,-6696501 -44811,-6696491 -44841,-6696480 -44870,-6696469 -44900,-6696457 -44929,-6696445 -44958,-6696433 -44988,-6696421 -45008,-6696414 -45073,-6696389 -45124,-6696368 -45185,-6696401 -45234,-6696433 -45250,-6696445 -45301,-6696491 -45393,-6696564 -45446,-6696595 -45467,-6696610 -45476,-6696633 -45478,-6696658 -45489,-6696684 -45498,-6696712 -45502,-6696744 -45505,-6696811 -45512,-6696836 -45524,-6696866 -45530,-6696898 -45567,-6696953 -45586,-6696975 -45609,-6697004 -45647,-6697036 -45658,-6697047 -45677,-6697079 -45685,-6697098 -45693,-6697116 -45699,-6697149 -45728,-6697213 -45737,-6697236 -45773,-6697267 -45786,-6697278 -45815,-6697293 -45832,-6697298 -45867,-6697307 -45884,-6697310 -45934,-6697317 -45954,-6697320 -45984,-6697328 -45914,-6697493 -46125,-6697585 -46064,-6697724 -46313,-6697835 -46324,-6697811 -46349,-6697822 -46520,-6697894 -46506,-6697927 -46452,-6698053 -46498,-6698073 -46571,-6698044 -46584,-6698069 -46593,-6698083 -46596,-6698087 -46601,-6698096 -46619,-6698115 -46641,-6698126 -46651,-6698132 -46671,-6698131 -46753,-6698116 -46769,-6698112 -46790,-6698107 -46816,-6698105 -46852,-6698107 -46882,-6698098 -46913,-6698084 -46948,-6698061 -46984,-6698044 -47023,-6698023 -47057,-6697985 -47081,-6697965 -47143,-6697922 -47152,-6697918 -47152,-6697897 -47143,-6697867 -47220,-6697885 -47237,-6697883 -47302,-6697876 -47382,-6697855 -47406,-6697850 -47460,-6697851 -47503,-6697860 -47541,-6697858 -47575,-6697859 -47587,-6697857 -47592,-6697836 -47606,-6697772 -47624,-6697628 -47626,-6697604 -47625,-6697577 -47803,-6697603 -47815,-6697496 -47839,-6697496 -47864,-6697498 -47939,-6697510 -47987,-6697516 -48031,-6697523 -48069,-6697527 -48111,-6697528 -48135,-6697532 -48161,-6697535 -48190,-6697541 -48249,-6697554 -48280,-6697562 -48400,-6697602 -48552,-6697655 -48775,-6697741 -48876,-6697783 -48978,-6697822 -48979,-6697827 -48985,-6697878 -48985,-6697920 -48985,-6697980 -48983,-6698044 -48984,-6698074 -48985,-6698103 -48992,-6698158 -48994,-6698212 -48980,-6698339 -48970,-6698450 -48953,-6698535 -49120,-6698552 -49251,-6698558 -49363,-6698569 -49468,-6698578 -49556,-6698587 -49644,-6698591 -49756,-6698599 -49839,-6698604 -49818,-6698706 -49810,-6698770 -49794,-6698851 -49777,-6698971 -49762,-6699047 -49754,-6699106 -49722,-6699252 -49698,-6699408 -49680,-6699496 -49897,-6699420 -50049,-6699366 -50200,-6699316 -50328,-6699277 -50501,-6699227 -50515,-6699225 -50564,-6699213 -50575,-6699210 -50767,-6699166 -50813,-6699158 -50814,-6699179 -50811,-6699198 -50804,-6699217 -50801,-6699256 -50793,-6699301 -50784,-6699347 -50763,-6699434 -50762,-6699462 -50752,-6699494 -50739,-6699524 -50737,-6699552 -50745,-6699566 -50745,-6699575 -50743,-6699613 -50737,-6699652 -50731,-6699697 -50727,-6699720 -50722,-6699743 -50694,-6699845 -50693,-6699875 -50701,-6699892 -50714,-6699903 -50745,-6699919 -50793,-6699948 -50922,-6700032 -50921,-6700057 -50908,-6700251 -50906,-6700289 -50906,-6700329 -50907,-6700445 -50915,-6700506 -50918,-6700568 -50926,-6700694 -50931,-6700738 -50940,-6700778 -50941,-6700800 -50942,-6700847 -50941,-6700872 -50939,-6700900 -50932,-6700980 -50924,-6701085 -50924,-6701120 -50934,-6701136 -50949,-6701142 -50973,-6701143 -51079,-6701130 -51217,-6701118 -51296,-6701111 -51353,-6701105 -51371,-6701102 -51364,-6701339 -51358,-6701551 -51353,-6701710 -51340,-6701707 -51188,-6701682 -51157,-6701756 -51155,-6701760 -51128,-6701767 -51103,-6701892 -51095,-6701975 -51090,-6702114 -51082,-6702240 -51082,-6702325 -51079,-6702361 -51055,-6702411 -50967,-6702344 -50908,-6702297 -50850,-6702264 -50799,-6702242 -50745,-6702225 -50743,-6702224 -50741,-6702223 -50738,-6702222 -50736,-6702221 -50734,-6702221 -50732,-6702220 -50730,-6702219 -50728,-6702219 -50726,-6702219 -50725,-6702219 -50723,-6702218 -50720,-6702218 -50718,-6702218 -50716,-6702218 -50714,-6702218 -50711,-6702218 -50709,-6702218 -50707,-6702219 -50705,-6702219 -50704,-6702220 -50702,-6702220 -50700,-6702221 -50698,-6702222 -50697,-6702223 -50693,-6702225 -50692,-6702225 -50689,-6702227 -50687,-6702241 -50698,-6702261 -50701,-6702265 -50696,-6702287 -50673,-6702281 -50665,-6702284 -50619,-6702276 -50594,-6702271 -50551,-6702263 -50535,-6702258 -50534,-6702257 -50529,-6702254 -50529,-6702246 -50540,-6702238 -50550,-6702214 -50547,-6702184 -50530,-6702163 -50512,-6702149 -50421,-6702117 -50356,-6702091 -50227,-6702042 -50118,-6702004 -50027,-6701969 -49958,-6701950 -49885,-6701931 -49795,-6701916 -49683,-6701901 -49514,-6701876 -49423,-6701866 -49329,-6702077 -49269,-6702206 -49191,-6702378 -49157,-6702458 -49142,-6702498 -49068,-6702479 -49013,-6702470 -48958,-6702476 -48930,-6702477 -48849,-6702478 -48804,-6702480 -48676,-6702503 -48618,-6702511 -48550,-6702516 -48492,-6702516 -48458,-6702512 -48428,-6702507 -48393,-6702553 -48504,-6702603 -48603,-6702655 -48583,-6702734 -48570,-6702783 -48556,-6702819 -48526,-6702882 -48501,-6702929 -48495,-6702957 -48472,-6703006 -48433,-6703073 -48405,-6703127 -48372,-6703191 -48342,-6703242 -48310,-6703295 -48294,-6703331 -48265,-6703380 -48158,-6703448 -48053,-6703523 -47934,-6703601 -47853,-6703659 -47815,-6703685 -47685,-6703771 -47537,-6703874 -47401,-6703965 -47236,-6704076 -47138,-6704141 -47015,-6704224 -46985,-6704240 -46970,-6704248 -46943,-6704266 -46911,-6704275 -46862,-6704288 -46842,-6704287 -46808,-6704270 -46784,-6704281 -46781,-6704294 -46778,-6704319 -46769,-6704344 -46716,-6704374 -46624,-6704419 -46504,-6704474 -46467,-6704494 -46321,-6704565 -46139,-6704654 -45956,-6704740 -45771,-6704833 -45767,-6704835 -45781,-6704901 -45787,-6704937 -45821,-6704969 -45870,-6705021 -45956,-6705093 -45970,-6705110 -45977,-6705132 -45986,-6705159 -45987,-6705164 -46003,-6705210 -46030,-6705258 -46033,-6705262 -46040,-6705272 -46048,-6705282 -46055,-6705288 -46065,-6705296 -46081,-6705306 -46110,-6705329 -46128,-6705363 -46137,-6705386 -46147,-6705427 -46167,-6705462 -46171,-6705468 -46177,-6705473 -46183,-6705477 -46192,-6705480 -46235,-6705503 -46255,-6705517 -46272,-6705533 -46281,-6705554 -46286,-6705563 -46289,-6705573 -46283,-6705641 -46275,-6705685 -46272,-6705732 -46246,-6705784 -46189,-6705938 -46191,-6706057 -46198,-6706143 -46221,-6706202 -46225,-6706220 -46230,-6706238 -46262,-6706389 -46282,-6706432 -46294,-6706470 -46311,-6706512 -46315,-6706524 -46341,-6706624 -46345,-6706636 -46354,-6706653 -46380,-6706693 -46389,-6706721 -46395,-6706757 -46398,-6706798 -46390,-6706851 -46374,-6706923 -46362,-6707004 -46359,-6707016 -46359,-6707021 -46361,-6707027 -46365,-6707036 -46370,-6707040 -46385,-6707049 -46390,-6707054 -46395,-6707059 -46399,-6707067 -46402,-6707074 -46403,-6707081 -46402,-6707089 -46400,-6707096 -46393,-6707112 -46384,-6707124 -46379,-6707130 -46345,-6707160 -46338,-6707169 -46332,-6707179 -46327,-6707189 -46323,-6707206 -46312,-6707278 -46302,-6707306 -46291,-6707333 -46264,-6707379 -46214,-6707508 -46160,-6707654 -46088,-6707725 -46086,-6707728 -46084,-6707733 -46084,-6707738 -46085,-6707741 -46090,-6707748 -46093,-6707750 -46099,-6707751 -46135,-6707745 -46139,-6707746 -46143,-6707747 -46148,-6707749 -46151,-6707752 -46154,-6707756 -46155,-6707760 -46155,-6707765 -46149,-6707794 -46143,-6707809 -46108,-6707864 -46084,-6707926 -46082,-6707930 -46075,-6707936 -46067,-6707939 -46062,-6707939 -46052,-6707936 -46032,-6707931 -46023,-6707932 -46018,-6707934 -46013,-6707940 -46010,-6707946 -46014,-6707962 -46017,-6707970 -46017,-6707977 -46015,-6707987 -46014,-6707992 -46006,-6708002 -45994,-6708023 -45989,-6708034 -45982,-6708054 -45977,-6708075 -45976,-6708105 -45973,-6708117 -45969,-6708126 -45964,-6708136 -45958,-6708143 -45941,-6708159 -45936,-6708167 -45932,-6708177 -45930,-6708184 -45930,-6708195 -45915,-6708309 -45855,-6708806 -45855,-6708810 -45849,-6708868 -45822,-6709112 -45817,-6709150 -45795,-6709323 -45784,-6709362 -45772,-6709394 -45754,-6709431 -45746,-6709446 -45715,-6709496 -45708,-6709512 -45704,-6709526 -45701,-6709543 -45701,-6709560 -45702,-6709580 -45706,-6709614 -45737,-6709763 -45739,-6709774 -45739,-6709790 -45737,-6709810 -45735,-6709824 -45712,-6709897 -45603,-6710212 -45559,-6710275 -45457,-6710234 -45381,-6710200 -45334,-6710166 -45302,-6710149 -45294,-6710164 -45264,-6710153 -45064,-6710078 -44910,-6710011 -44837,-6709975 -44696,-6709912 -44552,-6709851 -44546,-6709859 -44521,-6709847 -44365,-6709782 -44293,-6709754 -44046,-6709646 -43861,-6709562 -43667,-6709478 -43492,-6709410 -43336,-6709353 -43213,-6709314 -43167,-6709307 -43152,-6709305 -43140,-6709298 -43089,-6709269 -42965,-6709260 -42934,-6709260 -42908,-6709260 -42874,-6709262 -42829,-6709267 -42789,-6709272 -42736,-6709281 -42713,-6709287 -42691,-6709292 -42670,-6709299 -42636,-6709312 -42593,-6709326 -42567,-6709337 -42542,-6709349 -42504,-6709365 -42430,-6709404 -42310,-6709472 -42266,-6709496 -42203,-6709532 -42204,-6709538 -42183,-6709551 -42132,-6709575 -42064,-6709612 -42060,-6709604 -42058,-6709601 -42040,-6709598 -42037,-6709596 -42041,-6709585 -42044,-6709578 -42047,-6709537 -42049,-6709511 -42063,-6709405 -41989,-6709379 -41973,-6709375 -41939,-6709377 -41901,-6709385 -41835,-6709396 -41817,-6709302 -41795,-6709240 -41767,-6709189 -41752,-6709159 -41738,-6709134 -41739,-6709132 -41743,-6709124 -41719,-6709064 -41701,-6709015 -41631,-6708830 -41609,-6708776 -41608,-6708775 -41601,-6708768 -41598,-6708765 -41588,-6708760 -41574,-6708757 -41554,-6708722 -41544,-6708713 -41524,-6708693 -41496,-6708661 -41481,-6708629 -41455,-6708607 -41443,-6708602 -41426,-6708602 -41402,-6708606 -41392,-6708591 -41377,-6708571 -41387,-6708548 -41391,-6708534 -41393,-6708524 -41394,-6708515 -41315,-6708553 -41164,-6708638 -41116,-6708661 -41039,-6708704 -40954,-6708751 -40955,-6708753 -40990,-6708815 -41005,-6708841 -40993,-6708844 -40966,-6708859 -40934,-6708875 -40893,-6708901 -40855,-6708924 -40853,-6708925 -40849,-6708927 -40847,-6708935 -40849,-6708941 -40848,-6708941 -40834,-6708952 -40823,-6708968 -40814,-6708984 -40795,-6709016 -40747,-6709061 -40718,-6709085 -40671,-6709025 -40627,-6709093 -40600,-6709140 -40579,-6709170 -40559,-6709193 -40526,-6709224 -40504,-6709253 -40488,-6709271 -40484,-6709326 -40476,-6709410 -40468,-6709412 -40466,-6709413 -40461,-6709417 -40439,-6709439 -40434,-6709460 -40427,-6709476 -40406,-6709491 -40396,-6709495 -40392,-6709494 -40385,-6709492 -40365,-6709496 -40352,-6709503 -40341,-6709508 -40325,-6709511 -40313,-6709512 -40286,-6709518 -40265,-6709535 -40265,-6709544 -40265,-6709549 -40257,-6709554 -40249,-6709559 -40239,-6709568 -40202,-6709587 -40179,-6709601 -40158,-6709616 -40136,-6709626 -40084,-6709642 -40026,-6709684 -39982,-6709720 -39930,-6709766 -39905,-6709794 -39899,-6709798 -39869,-6709814 -39853,-6709823 -39800,-6709825 -39772,-6709825 -39730,-6709834 -39693,-6709848 -39670,-6709858 -39661,-6709863 -39654,-6709867 -39640,-6709877 -39635,-6709880 -39609,-6709889 -39588,-6709893 -39572,-6709889 -39546,-6709894 -39532,-6709897 -39514,-6709910 -39501,-6709911 -39491,-6709911 -39472,-6709906 -39472,-6709907 -39469,-6709919 -39466,-6709920 -39329,-6709960 -39214,-6709999 -39065,-6710053 -39037,-6710059 -39019,-6710061 -38999,-6710061 -38981,-6710060 -38965,-6710057 -38951,-6710052 -38935,-6710045 -38919,-6710035 -38902,-6710021 -38767,-6709923 -38654,-6709848 -38534,-6709781 -38373,-6709686 -38235,-6709604 -38081,-6709511 -38003,-6709521 -38000,-6709506 -37878,-6709530 -37770,-6709540 -37694,-6709548 -37578,-6709549 -37488,-6709549 -37400,-6709542 -37339,-6709541 -37324,-6709541 -37256,-6709540 -37255,-6709531 -37183,-6709519 -37095,-6709496 -37030,-6709478 -36966,-6709450 -36936,-6709437 -36930,-6709449 -36873,-6709423 -36859,-6709417 -36841,-6709408 -36794,-6709387 -36730,-6709338 -36445,-6709510 -36390,-6709436 -36305,-6709330 -36253,-6709391 -36162,-6709491 -36149,-6709506 -36067,-6709461 -36002,-6709485 -35899,-6709423 -35784,-6709362 -35727,-6709331 -35679,-6709304 -35610,-6709249 -35531,-6709186 -35463,-6709234 -35422,-6709271 -35313,-6709363 -35157,-6709481 -35150,-6709486 -35112,-6709438 -35105,-6709432 -35098,-6709426 -35095,-6709424 -35138,-6709391 -35144,-6709387 -35038,-6709251 -35012,-6709220 -35004,-6709211 -35054,-6709162 -35072,-6709142 -35074,-6709139 -35050,-6709114 -35034,-6709093 -35029,-6709095 -34997,-6709047 -34965,-6709072 -34964,-6709073 -34958,-6709066 -34956,-6709064 -34946,-6709072 -34944,-6709073 -34913,-6709039 -34874,-6708986 -34821,-6708916 -34805,-6708893 -34799,-6708893 -34782,-6708870 -34726,-6708791 -34720,-6708783 -34613,-6708864 -34472,-6708967 -34377,-6709038 -34328,-6709072 -34287,-6709095 -34231,-6709121 -34123,-6709178 -33999,-6709242 -34023,-6709319 -34041,-6709388 -34045,-6709435 -34049,-6709489 -34047,-6709516 -34044,-6709536 -34022,-6709530 -33993,-6709513 -33976,-6709503 -33911,-6709475 -33832,-6709451 -33761,-6709436 -33691,-6709415 -33641,-6709402 -33544,-6709365 -33545,-6709339 -33542,-6709310 -33532,-6709274 -33517,-6709221 -33329,-6709260 -33201,-6709288 -33121,-6709305 -33179,-6709417 -33168,-6709422 -33194,-6709463 -33214,-6709494 -33263,-6709585 -33274,-6709609 -33290,-6709643 -33321,-6709713 -33342,-6709757 -33352,-6709777 -33369,-6709803 -33373,-6709808 -33387,-6709828 -33393,-6709847 -33399,-6709891 -33404,-6709921 -33412,-6709939 -33420,-6709953 -33427,-6709965 -33438,-6709977 -33456,-6710005 -33468,-6710085 -33473,-6710102 -33405,-6710138 -33368,-6710154 -33231,-6710228 -33033,-6710336 -32962,-6710375 -32904,-6710407 -32842,-6710443 -32764,-6710482 -32750,-6710489 -32744,-6710492 -32731,-6710498 -32719,-6710500 -32704,-6710502 -32685,-6710503 -32660,-6710500 -32617,-6710495 -32509,-6710480 -32433,-6710464 -32355,-6710441 -32276,-6710415 -32195,-6710388 -32135,-6710371 -32071,-6710364 -32033,-6710357 -31925,-6710337 -31851,-6710351 -31805,-6710358 -31793,-6710364 -31742,-6710389 -31731,-6710393 -31693,-6710410 -31601,-6710465 -31524,-6710513 -31444,-6710574 -31431,-6710593 -31282,-6710705 -31254,-6710728 -31248,-6710721 -31195,-6710651" stroke="#003087" stroke-width="38" /></ns0:svg>    <rect x="20" y="50"  width="250" height="25"  rx="0"  fill="#003087" fill-opacity="0.8" />    <text x="145" y="70" text-anchor="middle" font-family="Frutiger" font-weight="bold" font-size="30" fill="white">Hounslow</text>    <rect x="35" y="195" width="220" height="160" rx="15" fill="#41B6E6"/>    <g font-family="Frutiger" font-size="15" fill="white">        <g> <text x="45" y="218">Self-harm</text> <text x="245" y="218" text-anchor="end">27</text> </g>        <g> <text x="45" y="243">SEN</text> <text x="245" y="243" text-anchor="end">67</text> </g>        <g> <text x="45" y="268">Difficulties</text> <text x="245" y="268" text-anchor="end">68</text> </g>        <g> <text x="45" y="293">Child Carer</text> <text x="245" y="293" text-anchor="end">4</text> </g>        <g> <text x="45" y="318">Drinkers</text> <text x="245" y="318" text-anchor="end">15</text> </g>        <g> <text x="45" y="343">Safeguarding £</text> <text x="245" y="343" text-anchor="end">21</text> </g>    </g></svg>