<?xml version="1.0" standalone="no"?>
<!DOCTYPE svg PUBLIC "-//W3C//DTD SVG 1.1//EN"
"http://www.w3.org/Graphics/SVG/1.1/DTD/svg11.dtd">
<svg height="1800" version="1.1" width="1800" xmlns="http://www.w3.org/2000/svg"><defs><style type="text/css">@font-face {font-family: 'Frutiger';font-style: normal;font-weight: normal;src: local('Frutiger'), url('../fonts/Frutiger.woff') format('woff');}@font-face {font-family: 'Frutiger Bold';font-style: normal;font-weight: normal;src: local('Frutiger Bold'), url('../fonts/Frutiger_bold.woff') format('woff');}        </style>    </defs>    <rect x="20" y="20"  width="250" height="350" rx="15" fill="#AE2573" />    <rect x="35" y="35"  width="220" height="145" rx="15" fill="#330072" /><ns0:svg xmlns:ns0="http://www.w3.org/2000/svg" height="115" version="1.1" viewBox="-34016 -6740706 19643 20612" width="220" x="35" y="50"><ns0:polygon fill="white" points=" -22249,-6740706 -22227,-6740651 -22208,-6740562 -22191,-6740498 -22175,-6740449 -22165,-6740407 -22153,-6740353 -22136,-6740353 -22120,-6740354 -22107,-6740354 -21970,-6740350 -21922,-6740345 -21886,-6740343 -21836,-6740411 -21776,-6740394 -21690,-6740371 -21740,-6740250 -21743,-6740229 -21774,-6740150 -21823,-6740024 -21890,-6739867 -21892,-6739864 -21791,-6739833 -21722,-6739815 -21576,-6739776 -21432,-6739733 -21401,-6739718 -21353,-6739689 -21320,-6739661 -21286,-6739617 -21269,-6739580 -21262,-6739589 -21255,-6739596 -21187,-6739728 -21082,-6739927 -21091,-6739932 -21034,-6740046 -20904,-6740295 -20683,-6740408 -20590,-6740415 -20587,-6740404 -20315,-6740422 -20269,-6740425 -20275,-6740410 -20390,-6740122 -20480,-6739912 -20617,-6739574 -20670,-6739447 -20690,-6739390 -20470,-6739316 -20443,-6739309 -20327,-6739258 -20290,-6739244 -20090,-6739178 -19927,-6739119 -19645,-6739018 -19539,-6738983 -19197,-6738860 -18369,-6738562 -18198,-6738552 -18174,-6738538 -18117,-6738516 -17964,-6738381 -17916,-6738340 -17865,-6738298 -17619,-6738209 -17583,-6738221 -17569,-6738200 -17566,-6738197 -17555,-6738190 -17313,-6738110 -17241,-6738084 -17227,-6738079 -17219,-6738018 -17220,-6737989 -17185,-6737976 -17162,-6737957 -17127,-6737921 -17116,-6737924 -17106,-6737887 -17096,-6737809 -17085,-6737738 -17089,-6737702 -17083,-6737679 -17118,-6737671 -17138,-6737665 -17166,-6737621 -17145,-6737546 -17117,-6737561 -17084,-6737570 -17078,-6737557 -17068,-6737527 -17039,-6737455 -17016,-6737417 -16980,-6737350 -16974,-6737331 -16973,-6737323 -16962,-6737219 -16957,-6737150 -16956,-6737115 -16954,-6737096 -16947,-6737059 -16897,-6737070 -16808,-6737100 -16686,-6736870 -16887,-6736759 -16948,-6736725 -16960,-6736663 -16849,-6736604 -16813,-6736585 -16836,-6736546 -16849,-6736525 -16840,-6736517 -16936,-6736337 -16873,-6736307 -16890,-6736255 -16843,-6736240 -16819,-6736237 -16785,-6736235 -16732,-6736236 -16610,-6736244 -16603,-6736237 -16601,-6736232 -16597,-6736199 -16597,-6736174 -16598,-6736161 -16603,-6736135 -16603,-6736124 -16589,-6736042 -16570,-6735986 -16536,-6735850 -16528,-6735822 -16489,-6735724 -16463,-6735666 -16149,-6735768 -16020,-6735472 -15921,-6735328 -15872,-6735255 -15820,-6735179 -15839,-6735170 -15814,-6735131 -15810,-6735121 -15778,-6735076 -15735,-6735016 -15702,-6734968 -15673,-6734930 -15630,-6734877 -15569,-6734813 -15407,-6734668 -15396,-6734657 -15373,-6734638 -15324,-6734599 -15159,-6734480 -15080,-6734430 -15056,-6734412 -14996,-6734364 -14973,-6734341 -14951,-6734311 -14946,-6734299 -14943,-6734292 -14973,-6734261 -14942,-6734231 -14962,-6734212 -14944,-6734193 -14914,-6734224 -14905,-6734211 -14896,-6734198 -14879,-6734175 -14899,-6734154 -14873,-6734125 -14835,-6734085 -14800,-6734061 -14755,-6734035 -14700,-6734005 -14696,-6734002 -14619,-6733961 -14561,-6733946 -14507,-6733933 -14428,-6733920 -14377,-6733906 -14373,-6733906 -14392,-6733826 -14419,-6733762 -14446,-6733671 -14491,-6733682 -14518,-6733630 -14547,-6733573 -14556,-6733525 -14596,-6733439 -14541,-6733403 -14520,-6733388 -14530,-6733374 -14563,-6733378 -14595,-6733323 -14600,-6733310 -14598,-6733299 -14594,-6733285 -14592,-6733281 -14623,-6733238 -14613,-6733233 -14636,-6733197 -14664,-6733150 -14687,-6733115 -14702,-6733095 -14714,-6733068 -14724,-6733039 -14737,-6733013 -14754,-6732979 -14769,-6732952 -14786,-6732931 -14810,-6732905 -14814,-6732902 -14818,-6732898 -14823,-6732894 -14827,-6732890 -14831,-6732886 -14836,-6732882 -14840,-6732878 -14843,-6732873 -14847,-6732869 -14849,-6732867 -14851,-6732864 -14853,-6732862 -14854,-6732859 -14856,-6732857 -14856,-6732856 -14858,-6732854 -14859,-6732853 -14859,-6732852 -14860,-6732850 -14861,-6732849 -14861,-6732848 -14862,-6732847 -14862,-6732845 -14862,-6732845 -14863,-6732843 -14863,-6732842 -14863,-6732841 -14863,-6732839 -14863,-6732838 -14863,-6732836 -14863,-6732835 -14864,-6732789 -14867,-6732778 -14889,-6732697 -14920,-6732587 -14921,-6732566 -14927,-6732524 -14927,-6732522 -14934,-6732520 -14940,-6732518 -14950,-6732506 -14952,-6732494 -14954,-6732474 -14947,-6732456 -14939,-6732442 -14936,-6732421 -14938,-6732415 -14945,-6732396 -14968,-6732337 -14975,-6732318 -14996,-6732255 -15010,-6732203 -15021,-6732171 -15033,-6732125 -15064,-6732118 -15074,-6732125 -15088,-6732135 -15077,-6732018 -15076,-6732009 -15155,-6731926 -15212,-6731861 -15273,-6731794 -15311,-6731746 -15396,-6731642 -15418,-6731618 -15511,-6731494 -15524,-6731477 -15563,-6731443 -15554,-6731435 -15573,-6731408 -15653,-6731299 -15668,-6731289 -15683,-6731291 -15692,-6731292 -15694,-6731290 -15701,-6731285 -15725,-6731266 -15728,-6731239 -15732,-6731233 -15735,-6731224 -15742,-6731214 -15755,-6731199 -15766,-6731177 -15775,-6731161 -15785,-6731136 -15793,-6731098 -15800,-6731066 -15810,-6731060 -15817,-6731055 -15807,-6731030 -15813,-6731025 -15811,-6731020 -15810,-6731017 -15883,-6730982 -15885,-6730986 -15893,-6730982 -15934,-6730963 -16000,-6730933 -16020,-6730926 -16042,-6730918 -16086,-6730896 -16008,-6730771 -15910,-6730610 -15902,-6730597 -15815,-6730457 -15739,-6730334 -15675,-6730245 -15612,-6730157 -15547,-6730070 -15540,-6730061 -15446,-6729948 -15708,-6729830 -15896,-6729743 -15966,-6729706 -15966,-6729596 -15963,-6729538 -15961,-6729517 -15961,-6729507 -15949,-6729436 -15933,-6729300 -15927,-6729258 -15909,-6729183 -15906,-6729173 -15896,-6729149 -15877,-6729097 -15849,-6729040 -15840,-6729026 -15828,-6729001 -15814,-6728944 -15808,-6728888 -15807,-6728799 -15808,-6728785 -15817,-6728743 -15820,-6728710 -15824,-6728699 -15831,-6728691 -15861,-6728651 -15922,-6728575 -15928,-6728568 -15933,-6728560 -15936,-6728550 -15944,-6728517 -15967,-6728470 -15980,-6728436 -16007,-6728388 -16014,-6728368 -16017,-6728362 -16030,-6728342 -16049,-6728320 -16081,-6728220 -16085,-6728196 -16085,-6728160 -16082,-6728144 -16149,-6728104 -16325,-6727997 -16361,-6727977 -16417,-6727945 -16407,-6727917 -16446,-6727897 -16560,-6727832 -16848,-6727663 -16849,-6727664 -16867,-6727689 -16875,-6727705 -16924,-6727812 -17020,-6727952 -17032,-6727983 -17042,-6728039 -17053,-6728091 -17077,-6728246 -17080,-6728277 -17081,-6728298 -17077,-6728362 -17076,-6728421 -17071,-6728495 -17063,-6728601 -17094,-6728659 -17140,-6728735 -17190,-6728821 -17204,-6728851 -17212,-6728862 -17228,-6728885 -17272,-6728936 -17281,-6728946 -17297,-6728960 -17378,-6729034 -17379,-6729037 -17381,-6729044 -17380,-6729054 -17378,-6729070 -17361,-6729097 -17403,-6729081 -17407,-6729079 -17426,-6729040 -17449,-6729003 -17504,-6728864 -17667,-6728495 -17662,-6728487 -17800,-6728162 -18000,-6727705 -18005,-6727690 -18006,-6727679 -18007,-6727669 -18005,-6727654 -18006,-6727610 -18004,-6727586 -17999,-6727554 -17974,-6727456 -17931,-6727278 -17922,-6727245 -17916,-6727195 -17885,-6727122 -17862,-6727084 -17852,-6727060 -17837,-6727017 -17833,-6726997 -17833,-6726972 -17830,-6726951 -17827,-6726937 -17791,-6726825 -17787,-6726805 -17783,-6726779 -17772,-6726735 -17681,-6726755 -17676,-6726736 -17662,-6726700 -17662,-6726697 -17662,-6726684 -17664,-6726678 -17668,-6726669 -17704,-6726639 -17716,-6726631 -17736,-6726611 -17750,-6726612 -17763,-6726507 -17780,-6726423 -17786,-6726398 -17791,-6726366 -17789,-6726349 -17782,-6726279 -17827,-6726274 -17824,-6726212 -17823,-6726187 -17824,-6726162 -17824,-6726149 -17816,-6726150 -17817,-6726085 -17818,-6726050 -17819,-6726008 -17819,-6726008 -17818,-6725989 -17838,-6725967 -17656,-6725966 -17656,-6725936 -17655,-6725895 -17655,-6725895 -17655,-6725891 -17658,-6725891 -17663,-6725891 -17663,-6725885 -17663,-6725865 -17665,-6725820 -17664,-6725725 -17549,-6725717 -17522,-6725714 -17509,-6725682 -17495,-6725649 -17494,-6725648 -17515,-6725648 -17576,-6725651 -17577,-6725647 -17581,-6725565 -17719,-6725394 -17761,-6725344 -17768,-6725336 -17795,-6725359 -17814,-6725376 -17838,-6725397 -17868,-6725429 -17903,-6725467 -17931,-6725496 -17944,-6725497 -17958,-6725482 -17966,-6725473 -18021,-6725409 -18037,-6725388 -18063,-6725365 -18087,-6725346 -18106,-6725335 -18166,-6725318 -18204,-6725301 -18206,-6725303 -18206,-6725303 -18212,-6725310 -18218,-6725308 -18219,-6725307 -18225,-6725313 -18232,-6725305 -18288,-6725249 -18308,-6725246 -18323,-6725243 -18350,-6725211 -18370,-6725182 -18366,-6725180 -18354,-6725172 -18387,-6725153 -18448,-6725114 -18450,-6725065 -18491,-6724979 -18516,-6724927 -18517,-6724925 -18500,-6724903 -18575,-6724888 -18576,-6724887 -18582,-6724877 -18589,-6724863 -18594,-6724851 -18603,-6724813 -18611,-6724770 -18611,-6724738 -18613,-6724664 -18612,-6724648 -18611,-6724643 -18602,-6724642 -18597,-6724642 -18596,-6724478 -18589,-6724477 -18571,-6724321 -18569,-6724296 -18593,-6724275 -18610,-6724254 -18623,-6724232 -18627,-6724225 -18606,-6724219 -18596,-6724217 -18629,-6724156 -18637,-6724138 -18658,-6724088 -18671,-6724063 -18708,-6723987 -18730,-6723999 -18848,-6724076 -18849,-6724073 -18861,-6724024 -18873,-6723986 -18879,-6723960 -18886,-6723924 -18894,-6723892 -18875,-6723883 -18871,-6723781 -18880,-6723784 -18875,-6723723 -18866,-6723622 -18862,-6723590 -18861,-6723554 -18864,-6723503 -18863,-6723463 -18864,-6723459 -18915,-6723434 -18986,-6723407 -19028,-6723397 -19053,-6723393 -19059,-6723287 -19064,-6723181 -19072,-6723177 -19110,-6723147 -19123,-6723127 -19126,-6723114 -19154,-6723090 -19177,-6723088 -19221,-6723048 -19263,-6723012 -19272,-6723000 -19280,-6722987 -19288,-6722975 -19289,-6722972 -19297,-6722960 -19304,-6722947 -19306,-6722943 -19311,-6722934 -19316,-6722923 -19328,-6722885 -19338,-6722823 -19337,-6722790 -19336,-6722731 -19350,-6722732 -19350,-6722696 -19366,-6722677 -19378,-6722661 -19395,-6722637 -19405,-6722622 -19412,-6722613 -19465,-6722643 -19495,-6722644 -19499,-6722667 -19582,-6722709 -19581,-6722723 -19588,-6722727 -19646,-6722758 -19695,-6722780 -19743,-6722782 -19776,-6722794 -19778,-6722795 -19820,-6722823 -19823,-6722792 -19823,-6722790 -19823,-6722788 -19823,-6722786 -19823,-6722785 -19823,-6722783 -19823,-6722781 -19823,-6722779 -19824,-6722778 -19824,-6722776 -19825,-6722774 -19826,-6722773 -19826,-6722771 -19827,-6722770 -19828,-6722768 -19829,-6722767 -19830,-6722765 -19831,-6722764 -19832,-6722763 -19833,-6722761 -19834,-6722760 -19835,-6722759 -19836,-6722757 -19838,-6722756 -19839,-6722755 -19840,-6722755 -19842,-6722754 -19843,-6722753 -19845,-6722752 -19846,-6722751 -19848,-6722751 -19850,-6722750 -19851,-6722750 -19853,-6722749 -19854,-6722748 -19855,-6722748 -19860,-6722746 -19866,-6722744 -19871,-6722742 -19877,-6722740 -19883,-6722739 -19889,-6722737 -19894,-6722736 -19900,-6722735 -19906,-6722734 -19912,-6722733 -19918,-6722733 -19924,-6722732 -19930,-6722732 -19933,-6722732 -20004,-6722708 -20054,-6722692 -20092,-6722688 -20118,-6722687 -20143,-6722687 -20127,-6722645 -20136,-6722640 -20225,-6722568 -20238,-6722560 -20245,-6722555 -20257,-6722540 -20272,-6722517 -20280,-6722508 -20423,-6722392 -20431,-6722389 -20448,-6722383 -20422,-6722346 -20458,-6722298 -20480,-6722283 -20501,-6722274 -20563,-6722253 -20618,-6722239 -20667,-6722218 -20715,-6722198 -20721,-6722195 -20727,-6722191 -20732,-6722187 -20738,-6722183 -20743,-6722179 -20749,-6722175 -20754,-6722171 -20756,-6722170 -20765,-6722163 -20774,-6722156 -20782,-6722148 -20789,-6722142 -20815,-6722113 -20835,-6722067 -20844,-6722062 -20857,-6722052 -20863,-6722048 -20872,-6722045 -20895,-6722039 -20904,-6722035 -20916,-6722029 -20935,-6722015 -20971,-6721996 -20968,-6721989 -21003,-6721954 -21053,-6721949 -21057,-6721947 -21064,-6721943 -21071,-6721936 -21077,-6721928 -21083,-6721914 -21091,-6721904 -21108,-6721896 -21130,-6721861 -21136,-6721843 -21140,-6721816 -21147,-6721797 -21150,-6721784 -21150,-6721766 -21163,-6721666 -21165,-6721627 -21164,-6721581 -21189,-6721451 -21193,-6721428 -21205,-6721381 -21216,-6721323 -21221,-6721299 -21233,-6721282 -21254,-6721261 -21274,-6721248 -21304,-6721239 -21342,-6721238 -21406,-6721231 -21479,-6721167 -21550,-6721126 -21569,-6721106 -21576,-6721111 -21591,-6721119 -21605,-6721114 -21624,-6721104 -21626,-6721103 -21638,-6721096 -21646,-6721091 -21656,-6721082 -21661,-6721073 -21661,-6721056 -21688,-6721042 -21713,-6721038 -21743,-6721041 -21770,-6721049 -21811,-6721063 -21829,-6721073 -21842,-6721075 -21882,-6721088 -21888,-6721076 -21899,-6721080 -21906,-6721066 -21918,-6721067 -21918,-6721064 -21916,-6721027 -21918,-6720962 -21920,-6720934 -21919,-6720932 -21909,-6720932 -21906,-6720882 -21901,-6720846 -21891,-6720818 -21906,-6720809 -21930,-6720796 -21965,-6720779 -21989,-6720761 -21996,-6720755 -22036,-6720797 -22064,-6720766 -22091,-6720733 -22094,-6720678 -22094,-6720643 -22094,-6720637 -22097,-6720625 -22103,-6720615 -22109,-6720604 -22126,-6720581 -22139,-6720567 -22155,-6720555 -22163,-6720547 -22205,-6720463 -22219,-6720428 -22223,-6720415 -22224,-6720406 -22225,-6720397 -22224,-6720387 -22217,-6720355 -22207,-6720329 -22205,-6720322 -22203,-6720300 -22201,-6720290 -22195,-6720274 -22260,-6720273 -22279,-6720272 -22322,-6720266 -22370,-6720250 -22410,-6720236 -22444,-6720228 -22467,-6720224 -22571,-6720198 -22633,-6720184 -22670,-6720177 -22700,-6720173 -22715,-6720170 -22740,-6720160 -22794,-6720136 -22815,-6720134 -22829,-6720126 -22856,-6720121 -22904,-6720115 -22908,-6720115 -22910,-6720139 -22915,-6720160 -22914,-6720228 -22918,-6720252 -22917,-6720264 -22917,-6720276 -22925,-6720314 -22928,-6720314 -22939,-6720311 -22953,-6720308 -22966,-6720306 -22984,-6720299 -23039,-6720277 -23098,-6720255 -23155,-6720232 -23188,-6720219 -23245,-6720191 -23247,-6720193 -23289,-6720245 -23322,-6720298 -23326,-6720303 -23377,-6720374 -23377,-6720374 -23468,-6720322 -23513,-6720297 -23563,-6720267 -23611,-6720226 -23653,-6720186 -23708,-6720135 -23740,-6720112 -23764,-6720094 -23790,-6720132 -23851,-6720217 -23914,-6720301 -23972,-6720373 -23986,-6720391 -24061,-6720488 -24099,-6720532 -24126,-6720565 -24147,-6720597 -24172,-6720634 -24239,-6720717 -24300,-6720799 -24337,-6720851 -24378,-6720918 -24412,-6720977 -24522,-6721186 -24552,-6721242 -24561,-6721255 -24621,-6721355 -24660,-6721412 -24705,-6721482 -24753,-6721546 -24785,-6721587 -24869,-6721694 -24944,-6721800 -25001,-6721879 -25052,-6721938 -25064,-6721955 -25098,-6722006 -25122,-6722037 -25149,-6722069 -25202,-6722131 -25235,-6722172 -25254,-6722192 -25287,-6722219 -25348,-6722276 -25381,-6722304 -25422,-6722335 -25449,-6722359 -25469,-6722382 -25482,-6722401 -25531,-6722483 -25579,-6722555 -25619,-6722605 -25661,-6722666 -25703,-6722716 -25748,-6722779 -25810,-6722859 -25849,-6722917 -25983,-6723101 -26018,-6723080 -26032,-6723068 -26051,-6723059 -26067,-6723065 -26075,-6723068 -26085,-6723076 -26091,-6723067 -26096,-6723065 -26102,-6723064 -26111,-6723063 -26120,-6723072 -26125,-6723098 -26154,-6723118 -26157,-6723121 -26158,-6723124 -26164,-6723133 -26168,-6723143 -26176,-6723147 -26183,-6723151 -26195,-6723152 -26212,-6723150 -26215,-6723149 -26229,-6723152 -26234,-6723159 -26233,-6723168 -26223,-6723173 -26202,-6723179 -26198,-6723183 -26196,-6723188 -26196,-6723195 -26197,-6723200 -26199,-6723204 -26201,-6723206 -26221,-6723205 -26226,-6723205 -26241,-6723203 -26247,-6723200 -26250,-6723198 -26256,-6723191 -26259,-6723182 -26252,-6723175 -26251,-6723167 -26253,-6723161 -26256,-6723160 -26259,-6723160 -26270,-6723160 -26286,-6723169 -26308,-6723182 -26322,-6723183 -26330,-6723184 -26338,-6723183 -26385,-6723171 -26399,-6723170 -26402,-6723170 -26423,-6723180 -26438,-6723189 -26442,-6723191 -26446,-6723191 -26453,-6723189 -26461,-6723184 -26464,-6723180 -26466,-6723176 -26467,-6723173 -26466,-6723170 -26464,-6723167 -26454,-6723158 -26451,-6723153 -26452,-6723145 -26460,-6723126 -26463,-6723122 -26466,-6723120 -26486,-6723122 -26501,-6723127 -26505,-6723127 -26507,-6723126 -26510,-6723122 -26511,-6723119 -26511,-6723114 -26511,-6723111 -26506,-6723105 -26478,-6723087 -26473,-6723082 -26472,-6723078 -26473,-6723074 -26474,-6723071 -26480,-6723066 -26485,-6723064 -26492,-6723063 -26500,-6723063 -26506,-6723065 -26510,-6723067 -26533,-6723088 -26540,-6723095 -26545,-6723101 -26569,-6723130 -26587,-6723150 -26608,-6723143 -26625,-6723120 -26651,-6723117 -26675,-6723123 -26685,-6723121 -26692,-6723120 -26703,-6723117 -26713,-6723120 -26722,-6723126 -26720,-6723137 -26710,-6723155 -26703,-6723163 -26703,-6723167 -26704,-6723170 -26707,-6723173 -26710,-6723174 -26715,-6723175 -26722,-6723175 -26729,-6723174 -26750,-6723168 -26765,-6723156 -26771,-6723143 -26776,-6723138 -26778,-6723138 -26786,-6723139 -26783,-6723158 -26790,-6723164 -26793,-6723167 -26801,-6723166 -26810,-6723158 -26820,-6723129 -26837,-6723125 -26848,-6723134 -26855,-6723144 -26863,-6723158 -26866,-6723177 -26867,-6723189 -26864,-6723211 -26865,-6723218 -26866,-6723222 -26869,-6723225 -26870,-6723226 -26880,-6723235 -26907,-6723239 -26938,-6723249 -26952,-6723246 -26960,-6723245 -26978,-6723248 -26991,-6723247 -26998,-6723242 -27002,-6723237 -27003,-6723235 -27004,-6723232 -27003,-6723228 -27001,-6723226 -26990,-6723220 -26987,-6723217 -26984,-6723213 -26983,-6723206 -26983,-6723200 -26991,-6723192 -27005,-6723191 -27024,-6723196 -27033,-6723197 -27038,-6723197 -27044,-6723196 -27048,-6723194 -27071,-6723184 -27089,-6723175 -27119,-6723163 -27150,-6723159 -27163,-6723162 -27171,-6723168 -27171,-6723168 -27170,-6723180 -27173,-6723202 -27176,-6723205 -27179,-6723206 -27184,-6723207 -27191,-6723206 -27196,-6723203 -27202,-6723197 -27208,-6723183 -27210,-6723168 -27213,-6723159 -27217,-6723156 -27231,-6723146 -27244,-6723135 -27259,-6723112 -27281,-6723096 -27297,-6723089 -27321,-6723090 -27343,-6723110 -27356,-6723129 -27358,-6723132 -27361,-6723135 -27367,-6723138 -27374,-6723140 -27381,-6723140 -27386,-6723138 -27389,-6723136 -27391,-6723132 -27394,-6723125 -27425,-6723062 -27451,-6723041 -27456,-6723036 -27461,-6723027 -27463,-6723022 -27463,-6723018 -27462,-6723014 -27462,-6723011 -27442,-6722979 -27434,-6722970 -27412,-6722955 -27397,-6722942 -27384,-6722923 -27382,-6722918 -27382,-6722913 -27384,-6722907 -27424,-6722856 -27433,-6722838 -27437,-6722821 -27439,-6722778 -27445,-6722750 -27444,-6722722 -27437,-6722713 -27422,-6722733 -27410,-6722738 -27402,-6722740 -27394,-6722738 -27391,-6722737 -27389,-6722736 -27388,-6722733 -27387,-6722728 -27388,-6722717 -27389,-6722707 -27393,-6722695 -27400,-6722676 -27435,-6722644 -27447,-6722629 -27450,-6722625 -27452,-6722619 -27452,-6722613 -27444,-6722600 -27440,-6722579 -27443,-6722573 -27449,-6722567 -27452,-6722564 -27477,-6722564 -27496,-6722570 -27514,-6722575 -27534,-6722563 -27535,-6722562 -27536,-6722559 -27536,-6722554 -27531,-6722544 -27524,-6722534 -27509,-6722519 -27502,-6722510 -27495,-6722500 -27497,-6722492 -27508,-6722480 -27527,-6722471 -27561,-6722473 -27589,-6722480 -27613,-6722499 -27629,-6722506 -27665,-6722483 -27670,-6722484 -27683,-6722486 -27690,-6722499 -27699,-6722512 -27715,-6722525 -27722,-6722530 -27735,-6722542 -27752,-6722544 -27763,-6722550 -27770,-6722562 -27780,-6722572 -27790,-6722583 -27803,-6722596 -27828,-6722633 -27830,-6722637 -27851,-6722669 -27882,-6722719 -27912,-6722766 -27955,-6722794 -27961,-6722804 -27969,-6722818 -27974,-6722830 -27980,-6722854 -27995,-6722882 -28006,-6722909 -28022,-6722941 -28024,-6722945 -28039,-6722958 -28058,-6722976 -28106,-6723016 -28123,-6723049 -28145,-6723099 -28165,-6723157 -28170,-6723166 -28172,-6723171 -28175,-6723183 -28175,-6723195 -28172,-6723208 -28166,-6723218 -28163,-6723222 -28157,-6723226 -28148,-6723228 -28121,-6723228 -28107,-6723231 -28084,-6723235 -28062,-6723241 -28034,-6723251 -28016,-6723260 -27993,-6723278 -27986,-6723285 -27981,-6723291 -27979,-6723298 -27977,-6723308 -27979,-6723316 -27987,-6723333 -28030,-6723412 -28045,-6723444 -28064,-6723485 -28089,-6723546 -28119,-6723628 -28129,-6723666 -28137,-6723722 -28140,-6723733 -28153,-6723772 -28187,-6723916 -28200,-6723972 -28208,-6724002 -28224,-6724049 -28227,-6724057 -28233,-6724071 -28266,-6724145 -28281,-6724183 -28283,-6724192 -28299,-6724262 -28318,-6724330 -28324,-6724356 -28340,-6724446 -28342,-6724466 -28342,-6724479 -28340,-6724491 -28337,-6724502 -28326,-6724527 -28320,-6724547 -28313,-6724580 -28309,-6724610 -28307,-6724645 -28307,-6724686 -28307,-6724703 -28309,-6724737 -28311,-6724754 -28316,-6724787 -28316,-6724800 -28314,-6724808 -28309,-6724821 -28286,-6724861 -28272,-6724881 -28253,-6724904 -28238,-6724918 -28221,-6724930 -28207,-6724937 -28184,-6724945 -28176,-6724949 -28148,-6724973 -28109,-6725007 -28096,-6725021 -28083,-6725038 -28054,-6725084 -28012,-6725157 -27983,-6725178 -27918,-6725200 -27869,-6725218 -27819,-6725235 -27660,-6725299 -27645,-6725308 -27636,-6725319 -27663,-6725357 -27825,-6725621 -27866,-6725681 -28042,-6725960 -28109,-6726068 -28175,-6726157 -28204,-6726187 -28264,-6726251 -28266,-6726253 -28302,-6726291 -28357,-6726340 -28453,-6726455 -28609,-6726644 -28653,-6726692 -28683,-6726733 -28722,-6726791 -28745,-6726825 -28914,-6727077 -29011,-6727209 -29152,-6727399 -29207,-6727471 -29238,-6727511 -29316,-6727605 -29340,-6727632 -29371,-6727667 -29416,-6727723 -29470,-6727795 -29517,-6727862 -29578,-6727943 -29625,-6728018 -29725,-6728173 -29736,-6728187 -29788,-6728252 -29880,-6728385 -29912,-6728429 -30062,-6728617 -30081,-6728640 -30384,-6729022 -30477,-6729145 -30598,-6729363 -30602,-6729370 -30640,-6729431 -30672,-6729477 -30725,-6729557 -30771,-6729612 -30794,-6729636 -30848,-6729687 -30867,-6729713 -30937,-6729810 -31027,-6729941 -31093,-6730042 -31096,-6730047 -31183,-6730171 -31331,-6730397 -31411,-6730515 -31546,-6730683 -31607,-6730746 -31632,-6730770 -31657,-6730794 -31757,-6730883 -31835,-6730970 -31918,-6731083 -31929,-6731098 -32009,-6731195 -32023,-6731222 -32058,-6731307 -32088,-6731354 -32235,-6731556 -32466,-6731866 -32577,-6732021 -32630,-6732101 -32710,-6732209 -32765,-6732297 -32823,-6732388 -32857,-6732442 -32937,-6732548 -33089,-6732764 -33138,-6732830 -33173,-6732873 -33245,-6732956 -33310,-6733035 -33410,-6733176 -33453,-6733252 -33524,-6733368 -33597,-6733471 -33636,-6733523 -33675,-6733576 -33833,-6733762 -33892,-6733863 -33955,-6733997 -34001,-6734103 -34016,-6734238 -34014,-6734276 -34013,-6734288 -33955,-6734468 -33892,-6734638 -33888,-6734636 -33877,-6734632 -33872,-6734642 -33856,-6734652 -33837,-6734660 -33817,-6734662 -33790,-6734658 -33767,-6734653 -33749,-6734641 -33735,-6734632 -33731,-6734629 -33726,-6734626 -33720,-6734622 -33698,-6734599 -33664,-6734638 -33591,-6734621 -33532,-6734600 -33516,-6734595 -33496,-6734588 -33467,-6734568 -33461,-6734564 -33446,-6734555 -33430,-6734546 -33416,-6734541 -33404,-6734538 -33379,-6734532 -33355,-6734528 -33350,-6734528 -33329,-6734524 -33262,-6734531 -33255,-6734532 -33248,-6734533 -33226,-6734535 -33197,-6734538 -33141,-6734533 -33085,-6734527 -32964,-6734476 -32770,-6734512 -32737,-6734527 -32680,-6734558 -32651,-6734575 -32523,-6734643 -32507,-6734652 -32490,-6734661 -32473,-6734663 -32433,-6734663 -32344,-6734681 -32272,-6734695 -32214,-6734686 -32199,-6734684 -32184,-6734680 -32098,-6734660 -32068,-6734663 -32036,-6734667 -31974,-6734691 -31938,-6734700 -31891,-6734715 -31836,-6734729 -31781,-6734745 -31745,-6734766 -31732,-6734777 -31684,-6734831 -31643,-6734862 -31600,-6734897 -31493,-6734937 -31324,-6734996 -31227,-6734990 -31214,-6734990 -31172,-6734986 -31102,-6734984 -31060,-6734988 -31015,-6734992 -30971,-6735005 -30940,-6735016 -30921,-6735022 -30871,-6735040 -30834,-6735054 -30806,-6735073 -30777,-6735089 -30711,-6735079 -30667,-6735075 -30623,-6735070 -30582,-6735066 -30501,-6735060 -30469,-6735054 -30470,-6735071 -30497,-6735085 -30517,-6735098 -30518,-6735113 -30519,-6735130 -30521,-6735168 -30489,-6735270 -30468,-6735340 -30450,-6735375 -30429,-6735436 -30407,-6735483 -30403,-6735506 -30401,-6735518 -30397,-6735550 -30378,-6735609 -30374,-6735644 -30375,-6735669 -30270,-6735670 -30226,-6735667 -30178,-6735660 -30125,-6735662 -30060,-6735667 -30025,-6735681 -29993,-6735700 -29990,-6735695 -29920,-6735705 -29861,-6735720 -29867,-6735788 -29876,-6735840 -29878,-6735876 -29877,-6735918 -29877,-6735934 -29876,-6735941 -29871,-6735973 -29872,-6735980 -29696,-6736030 -29558,-6736018 -29523,-6736013 -29476,-6735993 -29469,-6735995 -29460,-6735986 -29456,-6735980 -29449,-6735974 -29444,-6735966 -29438,-6735957 -29428,-6735943 -29413,-6735980 -29392,-6735971 -29307,-6736159 -29299,-6736156 -29288,-6736150 -29270,-6736139 -29249,-6736123 -29239,-6736114 -29214,-6736086 -29187,-6736061 -29168,-6736045 -29145,-6736031 -29132,-6736021 -29121,-6736008 -29108,-6735991 -29091,-6735967 -29086,-6735958 -29084,-6735952 -29082,-6735937 -29081,-6735904 -29078,-6735892 -29072,-6735876 -29059,-6735849 -29055,-6735839 -29046,-6735807 -29042,-6735796 -29037,-6735789 -29022,-6735772 -28993,-6735748 -28971,-6735734 -28960,-6735728 -28945,-6735722 -28913,-6735711 -28873,-6735695 -28864,-6735691 -28822,-6735677 -28802,-6735673 -28763,-6735666 -28763,-6735650 -28707,-6735645 -28687,-6735641 -28674,-6735636 -28662,-6735631 -28646,-6735621 -28636,-6735644 -28596,-6735756 -28549,-6735856 -28516,-6735919 -28440,-6735874 -28437,-6735882 -28433,-6735892 -28426,-6735908 -28357,-6735939 -28329,-6735952 -28280,-6736042 -28238,-6736138 -28160,-6736302 -28114,-6736394 -28080,-6736470 -28057,-6736531 -28038,-6736586 -28023,-6736638 -28003,-6736719 -27985,-6736791 -27983,-6736798 -27971,-6736854 -27962,-6736895 -27947,-6736988 -27926,-6737129 -27876,-6737461 -27813,-6737914 -27869,-6737924 -27893,-6737933 -27911,-6737943 -27917,-6737949 -27929,-6737962 -27946,-6737981 -27957,-6737995 -27978,-6738022 -27969,-6738032 -27961,-6738041 -27969,-6738076 -27969,-6738080 -27964,-6738106 -27958,-6738115 -27945,-6738129 -27920,-6738150 -27894,-6738173 -27880,-6738177 -27875,-6738181 -27857,-6738188 -27839,-6738172 -27824,-6738170 -27812,-6738175 -27797,-6738193 -27757,-6738173 -27716,-6738153 -27704,-6738137 -27661,-6738100 -27637,-6738085 -27606,-6738051 -27592,-6738028 -27466,-6738087 -27437,-6738106 -27385,-6738139 -27366,-6738148 -27287,-6738186 -27238,-6738219 -27205,-6738252 -27178,-6738261 -27160,-6738267 -27150,-6738271 -27120,-6738286 -27090,-6738297 -27068,-6738301 -27048,-6738301 -27033,-6738303 -27015,-6738306 -27003,-6738311 -26980,-6738320 -26950,-6738335 -26926,-6738351 -26868,-6738379 -26827,-6738313 -26712,-6738374 -26674,-6738392 -26627,-6738414 -26546,-6738458 -26490,-6738484 -26524,-6738566 -26456,-6738595 -26409,-6738629 -26392,-6738633 -26380,-6738641 -26346,-6738661 -26323,-6738670 -26292,-6738680 -26244,-6738691 -26173,-6738704 -26151,-6738702 -26127,-6738701 -26092,-6738624 -26074,-6738567 -26056,-6738580 -26033,-6738587 -25997,-6738598 -25964,-6738616 -25873,-6738666 -25745,-6738740 -25729,-6738755 -25716,-6738766 -25681,-6738774 -25665,-6738784 -25614,-6738820 -25591,-6738833 -25575,-6738832 -25543,-6738856 -25483,-6738876 -25471,-6738866 -25435,-6738874 -25427,-6738800 -25421,-6738771 -25410,-6738739 -25431,-6738736 -25404,-6738674 -25387,-6738628 -25377,-6738607 -25302,-6738500 -25267,-6738443 -25226,-6738391 -25209,-6738371 -25143,-6738428 -25163,-6738454 -25109,-6738496 -25043,-6738543 -24925,-6738631 -24810,-6738729 -24668,-6738836 -24628,-6738876 -24516,-6738964 -24468,-6738999 -24425,-6739016 -24406,-6739024 -24367,-6738892 -24170,-6738992 -23909,-6739185 -23880,-6739212 -23766,-6739298 -23754,-6739307 -23690,-6739231 -23647,-6739166 -23614,-6739123 -23586,-6739146 -23548,-6739170 -23489,-6739206 -23375,-6739271 -23165,-6739382 -23139,-6739394 -23343,-6739833 -23424,-6739981 -23503,-6740129 -23359,-6740238 -23149,-6740064 -23090,-6740158 -23050,-6740214 -22902,-6740404 -22891,-6740424 -22788,-6740403 -22693,-6740377 -22659,-6740357 -22628,-6740346 -22615,-6740333 -22579,-6740318 -22561,-6740305 -22512,-6740281 -22528,-6740399 -22544,-6740489 -22552,-6740519 -22554,-6740552 -22637,-6740698 -22529,-6740688 -22462,-6740686 -22382,-6740687 -22277,-6740698 -22249,-6740706" stroke="white" stroke-width="40" /></ns0:svg>    <rect x="20" y="50"  width="250" height="25"  rx="0"  fill="#E8EDEE" fill-opacity="0.8" />    <text x="145" y="70" text-anchor="middle" font-family="Frutiger" font-weight="bold" font-size="30" fill="#AE2573">Barnet</text>    <rect x="35" y="195" width="220" height="160" rx="15" fill="#724F95"/>    <g font-family="Frutiger" font-size="15" fill="white">        <g> <text x="45" y="218">Self-harm</text> <text x="245" y="218" text-anchor="end">19</text> </g>        <g> <text x="45" y="243">SEN</text> <text x="245" y="243" text-anchor="end">45</text> </g>        <g> <text x="45" y="268">Difficulties</text> <text x="245" y="268" text-anchor="end">65</text> </g>        <g> <text x="45" y="293">Child Carer</text> <text x="245" y="293" text-anchor="end">7</text> </g>        <g> <text x="45" y="318">Drinkers</text> <text x="245" y="318" text-anchor="end">31</text> </g>        <g> <text x="45" y="343">Safeguarding £</text> <text x="245" y="343" text-anchor="end">36</text> </g>    </g></svg>