<?xml version="1.0" standalone="no"?>
<!DOCTYPE svg PUBLIC "-//W3C//DTD SVG 1.1//EN"
"http://www.w3.org/Graphics/SVG/1.1/DTD/svg11.dtd">
<svg height="1800" version="1.1" width="1800" xmlns="http://www.w3.org/2000/svg"><defs><style type="text/css">@font-face {font-family: 'Frutiger';font-style: normal;font-weight: normal;src: local('Frutiger'), url('../fonts/Frutiger.woff') format('woff');}@font-face {font-family: 'Frutiger Bold';font-style: normal;font-weight: normal;src: local('Frutiger Bold'), url('../fonts/Frutiger_bold.woff') format('woff');}        </style>    </defs>    <rect x="20" y="20"  width="250" height="350" rx="15" fill="#AE2573" />    <rect x="35" y="35"  width="220" height="145" rx="15" fill="#330072" /><ns0:svg xmlns:ns0="http://www.w3.org/2000/svg" height="115" version="1.1" viewBox="15382 -6733810 21803 26425" width="220" x="35" y="50"><ns0:polygon fill="white" points=" 25842,-6733001 25926,-6732914 25951,-6732891 25997,-6732832 26023,-6732798 26047,-6732767 26069,-6732748 26126,-6732704 26207,-6732629 26269,-6732574 26364,-6732505 26422,-6732462 26421,-6732436 26441,-6732437 26449,-6732444 26465,-6732432 26483,-6732420 26491,-6732414 26507,-6732401 26505,-6732381 26524,-6732381 26575,-6732334 26656,-6732265 26681,-6732249 26722,-6732230 26811,-6732176 26885,-6732128 26936,-6732090 26986,-6732048 27094,-6731975 27200,-6731898 27312,-6731818 27363,-6731789 27426,-6731759 27465,-6731729 27535,-6731686 27563,-6731667 27570,-6731663 27591,-6731649 27609,-6731637 27617,-6731632 27637,-6731619 27641,-6731616 27660,-6731604 27745,-6731551 27793,-6731519 27796,-6731517 27802,-6731513 27805,-6731511 27862,-6731474 27905,-6731440 27952,-6731404 27988,-6731376 28012,-6731356 28074,-6731306 28125,-6731259 28129,-6731255 28134,-6731251 28137,-6731248 28140,-6731245 28196,-6731189 28282,-6731098 28308,-6731065 28340,-6731026 28418,-6730921 28454,-6730883 28523,-6730820 28618,-6730733 28686,-6730663 28694,-6730642 28735,-6730485 28754,-6730448 28785,-6730419 28819,-6730358 28837,-6730322 28860,-6730288 28921,-6730214 28992,-6730117 29058,-6730032 29124,-6729939 29196,-6729853 29258,-6729786 29305,-6729768 29332,-6729757 29352,-6729746 29378,-6729732 29399,-6729712 29450,-6729612 29442,-6729609 29441,-6729609 29440,-6729608 29438,-6729607 29437,-6729606 29435,-6729605 29434,-6729604 29433,-6729603 29431,-6729601 29429,-6729599 29428,-6729597 29426,-6729594 29425,-6729592 29424,-6729589 29422,-6729587 29421,-6729584 29420,-6729582 29419,-6729580 29419,-6729577 29418,-6729576 29417,-6729573 29417,-6729571 29416,-6729569 29416,-6729567 29415,-6729565 29415,-6729563 29415,-6729561 29415,-6729559 29414,-6729556 29415,-6729555 29415,-6729553 29415,-6729551 29415,-6729549 29415,-6729547 29416,-6729545 29416,-6729542 29417,-6729540 29418,-6729538 29418,-6729536 29424,-6729524 29289,-6729432 29268,-6729443 29239,-6729451 29198,-6729460 29189,-6729460 29179,-6729461 29169,-6729461 29159,-6729460 29156,-6729460 29152,-6729460 29149,-6729460 29145,-6729460 29141,-6729460 29138,-6729459 29134,-6729459 29133,-6729458 29129,-6729458 29126,-6729457 29123,-6729456 29119,-6729455 29116,-6729454 29113,-6729453 29112,-6729452 29109,-6729451 29105,-6729449 29081,-6729434 29020,-6729403 28933,-6729353 28907,-6729338 28879,-6729330 28769,-6729295 28756,-6729295 28729,-6729287 28733,-6729257 28736,-6729230 28746,-6729202 28747,-6729150 28745,-6729124 28744,-6729081 28737,-6729038 28729,-6729019 28720,-6729001 28706,-6728991 28686,-6728998 28669,-6728999 28648,-6729006 28642,-6729009 28639,-6729009 28634,-6729009 28631,-6729008 28626,-6729003 28628,-6728974 28637,-6728949 28624,-6728930 28606,-6728880 28592,-6728880 28585,-6728876 28581,-6728872 28577,-6728866 28574,-6728859 28562,-6728850 28554,-6728836 28552,-6728829 28550,-6728821 28549,-6728809 28549,-6728803 28559,-6728786 28567,-6728767 28552,-6728748 28535,-6728720 28528,-6728715 28520,-6728711 28516,-6728716 28513,-6728719 28508,-6728721 28502,-6728722 28497,-6728722 28493,-6728720 28489,-6728717 28486,-6728714 28482,-6728706 28482,-6728701 28482,-6728695 28485,-6728686 28488,-6728671 28467,-6728669 28443,-6728670 28434,-6728643 28419,-6728612 28404,-6728599 28387,-6728594 28371,-6728614 28359,-6728614 28352,-6728610 28346,-6728602 28342,-6728593 28342,-6728583 28349,-6728556 28344,-6728549 28343,-6728549 28316,-6728558 28298,-6728547 28296,-6728541 28294,-6728531 28293,-6728522 28296,-6728497 28296,-6728488 28267,-6728475 28265,-6728465 28264,-6728454 28292,-6728436 28289,-6728419 28276,-6728407 28291,-6728394 28323,-6728386 28359,-6728387 28365,-6728360 28419,-6728344 28449,-6728340 28480,-6728336 28548,-6728340 28616,-6728351 28702,-6728349 28710,-6728349 28718,-6728347 28726,-6728343 28732,-6728338 28737,-6728333 28740,-6728326 28746,-6728304 28748,-6728285 28895,-6728233 28953,-6728215 29028,-6728193 29040,-6728190 29154,-6728144 29156,-6728143 29196,-6728125 29252,-6728116 29343,-6728098 29388,-6728091 29432,-6728079 29446,-6728079 29536,-6728067 29678,-6728061 29731,-6728056 29731,-6728048 29784,-6728044 29848,-6728047 29956,-6728039 30042,-6728044 30060,-6727967 30073,-6727905 30085,-6727856 30092,-6727826 30095,-6727777 30098,-6727727 30099,-6727707 30094,-6727638 30087,-6727591 30078,-6727550 30071,-6727512 30051,-6727473 30039,-6727438 30027,-6727399 30014,-6727370 29999,-6727342 29986,-6727314 29982,-6727292 29982,-6727274 29992,-6727237 30008,-6727180 30017,-6727129 30027,-6727077 30033,-6727023 30036,-6726978 30041,-6726929 30040,-6726903 30038,-6726881 30034,-6726861 30048,-6726731 30070,-6726601 30087,-6726525 30109,-6726481 30136,-6726435 30141,-6726424 30152,-6726402 30159,-6726380 30163,-6726369 30181,-6726326 30206,-6726282 30202,-6726222 30198,-6726189 30198,-6726187 30197,-6726185 30197,-6726182 30196,-6726180 30196,-6726179 30196,-6726177 30196,-6726174 30196,-6726172 30196,-6726170 30197,-6726168 30197,-6726165 30197,-6726163 30198,-6726161 30198,-6726159 30198,-6726157 30199,-6726155 30200,-6726152 30201,-6726150 30202,-6726148 30203,-6726144 30205,-6726140 30207,-6726136 30209,-6726132 30212,-6726127 30214,-6726124 30217,-6726119 30219,-6726116 30220,-6726115 30231,-6726094 30252,-6726044 30266,-6726014 30273,-6725978 30282,-6725950 30289,-6725925 30294,-6725918 30304,-6725901 30330,-6725872 30377,-6725835 30420,-6725810 30456,-6725789 30483,-6725766 30484,-6725758 30530,-6725685 30572,-6725613 30590,-6725566 30625,-6725500 30654,-6725448 30657,-6725445 30682,-6725421 30720,-6725362 30766,-6725299 30791,-6725262 30786,-6725253 30888,-6725097 30922,-6725029 30966,-6724964 31011,-6724896 31077,-6724803 31126,-6724738 31156,-6724695 31219,-6724594 31256,-6724532 31306,-6724447 31343,-6724381 31367,-6724330 31395,-6724328 31402,-6724279 31447,-6724190 31480,-6724112 31528,-6724009 31552,-6723943 31600,-6723827 31638,-6723723 31688,-6723597 31731,-6723495 31732,-6723491 31734,-6723488 31736,-6723485 31738,-6723482 31740,-6723479 31742,-6723476 31744,-6723474 31747,-6723471 31749,-6723468 31751,-6723466 31754,-6723463 31757,-6723461 31759,-6723459 31762,-6723457 31765,-6723455 31768,-6723453 31771,-6723451 31774,-6723449 31777,-6723447 31781,-6723445 31784,-6723444 31787,-6723442 31789,-6723441 31795,-6723438 31800,-6723436 31805,-6723434 31810,-6723432 31816,-6723430 31821,-6723429 31826,-6723427 31829,-6723426 31836,-6723424 31843,-6723423 31850,-6723421 31855,-6723420 31870,-6723387 31879,-6723378 31898,-6723383 31910,-6723387 31921,-6723366 31945,-6723310 31947,-6723304 31950,-6723298 31952,-6723292 31954,-6723286 31956,-6723280 31958,-6723273 31960,-6723267 31961,-6723261 31962,-6723260 31963,-6723254 31964,-6723247 31965,-6723241 31965,-6723234 31966,-6723228 31966,-6723221 31967,-6723214 31967,-6723208 31967,-6723203 31966,-6723194 31966,-6723186 31965,-6723177 31965,-6723169 31964,-6723130 31954,-6723100 31934,-6723069 31922,-6723055 31921,-6723054 31920,-6723054 31919,-6723053 31918,-6723052 31917,-6723051 31917,-6723050 31916,-6723050 31915,-6723049 31915,-6723048 31914,-6723047 31914,-6723046 31913,-6723045 31913,-6723044 31913,-6723043 31913,-6723041 31913,-6723040 31913,-6723039 31913,-6723038 31912,-6723037 31912,-6723036 31913,-6723035 31913,-6723034 31913,-6723031 31913,-6723030 31913,-6723028 31913,-6723026 31913,-6723024 31914,-6723022 31914,-6723020 31915,-6723016 31916,-6723014 31917,-6723009 31918,-6723003 31920,-6722998 31922,-6722992 31924,-6722987 31926,-6722982 31927,-6722979 31944,-6722940 31967,-6722893 31991,-6722822 32015,-6722746 32036,-6722681 32066,-6722595 32103,-6722487 32129,-6722406 32153,-6722306 32178,-6722225 32203,-6722112 32227,-6722026 32259,-6721935 32289,-6721818 32305,-6721760 32314,-6721725 32512,-6721756 32670,-6721776 32789,-6721790 32912,-6721803 33051,-6721817 33183,-6721829 33337,-6721847 33422,-6721851 33419,-6721861 33450,-6721867 33487,-6721867 33648,-6721877 33787,-6721892 33905,-6721903 33902,-6721922 34088,-6721944 34090,-6721927 34182,-6721934 34508,-6721960 34846,-6721997 34851,-6721963 34854,-6721947 34857,-6721932 34865,-6721908 34870,-6721874 34878,-6721841 34883,-6721765 34894,-6721704 34898,-6721656 34904,-6721641 34922,-6721626 34970,-6721443 34972,-6721428 34971,-6721416 34972,-6721395 34973,-6721390 34981,-6721371 34980,-6721366 34972,-6721361 34971,-6721359 34969,-6721348 34970,-6721342 34973,-6721332 34978,-6721325 34988,-6721292 34992,-6721265 34998,-6721242 35000,-6721228 35008,-6721181 35020,-6721095 35022,-6721054 35024,-6721037 35028,-6720981 35034,-6720930 35039,-6720867 35040,-6720822 35045,-6720801 35054,-6720800 35058,-6720798 35065,-6720792 35068,-6720787 35070,-6720782 35071,-6720776 35070,-6720765 35079,-6720677 35083,-6720612 35086,-6720597 35093,-6720577 35098,-6720567 35104,-6720559 35111,-6720553 35136,-6720536 35198,-6720542 35232,-6720541 35277,-6720512 35372,-6720442 35422,-6720403 35448,-6720379 35457,-6720334 35468,-6720232 35476,-6720128 35480,-6720116 35484,-6720109 35492,-6720100 35499,-6720094 35506,-6720089 35513,-6720086 35525,-6720082 35575,-6720056 35625,-6720030 35699,-6719989 35747,-6719968 35788,-6719953 35832,-6719931 35845,-6719922 35850,-6719916 35853,-6719911 35857,-6719900 35857,-6719892 35855,-6719884 35853,-6719878 35854,-6719817 35854,-6719754 35867,-6719678 35869,-6719673 35873,-6719668 35878,-6719663 35885,-6719659 35892,-6719657 35900,-6719657 35907,-6719658 35915,-6719661 35979,-6719681 36092,-6719712 36121,-6719715 36161,-6719711 36196,-6719712 36215,-6719679 36224,-6719652 36229,-6719639 36236,-6719626 36246,-6719611 36261,-6719590 36290,-6719552 36320,-6719509 36338,-6719487 36363,-6719459 36377,-6719447 36409,-6719422 36462,-6719374 36492,-6719343 36496,-6719335 36500,-6719322 36506,-6719252 36512,-6719064 36512,-6719002 36513,-6718988 36511,-6718949 36509,-6718933 36509,-6718920 36510,-6718907 36513,-6718896 36517,-6718885 36522,-6718878 36547,-6718848 36561,-6718827 36574,-6718804 36583,-6718786 36585,-6718780 36593,-6718752 36600,-6718702 36603,-6718691 36607,-6718677 36612,-6718664 36619,-6718650 36627,-6718635 36638,-6718619 36676,-6718550 36635,-6718473 36612,-6718419 36629,-6718413 36674,-6718418 36757,-6718430 36814,-6718437 36896,-6718438 36945,-6718329 37022,-6718174 37061,-6718092 37077,-6718058 37123,-6717931 37149,-6717868 37169,-6717821 37124,-6717670 37106,-6717601 37139,-6717596 37154,-6717591 37160,-6717586 37163,-6717583 37164,-6717578 37164,-6717573 37163,-6717566 37163,-6717550 37185,-6717494 37183,-6717465 37045,-6717425 36894,-6717383 36892,-6717408 36892,-6717446 36901,-6717492 36904,-6717503 36912,-6717517 36871,-6717511 36805,-6717511 36749,-6717508 36694,-6717507 36640,-6717506 36498,-6717503 36443,-6717499 36403,-6717494 36346,-6717490 36299,-6717493 36210,-6717491 36147,-6717488 36015,-6717474 35894,-6717467 35792,-6717465 35690,-6717447 35596,-6717433 35342,-6717396 35279,-6717389 35276,-6717374 35223,-6717371 35155,-6717360 35096,-6717354 35092,-6717364 35003,-6717361 34941,-6717351 34876,-6717343 34847,-6717338 34769,-6717332 34727,-6717326 34673,-6717323 34567,-6717312 34565,-6717258 34513,-6717248 34483,-6717246 34432,-6717246 34416,-6717239 34231,-6717224 34155,-6717215 34133,-6717212 34106,-6717210 34103,-6717220 34034,-6717214 33901,-6717197 33805,-6717187 33692,-6717178 33515,-6717159 33476,-6717152 33484,-6717106 33491,-6717041 33278,-6716999 33119,-6716964 33084,-6716956 33108,-6716787 33129,-6716663 33142,-6716593 33145,-6716537 32897,-6716500 32828,-6716491 32728,-6716469 32605,-6716457 32503,-6716441 32435,-6716433 32382,-6716424 32331,-6716419 32341,-6716388 32267,-6716401 32165,-6716400 32098,-6716402 32068,-6716400 32021,-6716394 32007,-6716392 31982,-6716387 31957,-6716381 31942,-6716377 31911,-6716360 31832,-6716350 31783,-6716339 31689,-6716333 31619,-6716323 31556,-6716317 31447,-6716300 31365,-6716290 31255,-6716261 31119,-6716214 30991,-6716182 30882,-6716149 30762,-6716109 30749,-6716154 30699,-6716139 30660,-6716122 30654,-6716120 30621,-6716113 30608,-6716112 30576,-6716111 30560,-6716112 30536,-6716115 30511,-6716121 30493,-6716126 30458,-6716138 30441,-6716144 30405,-6716152 30385,-6716155 30351,-6716158 30331,-6716159 30293,-6716158 30134,-6716139 30020,-6716113 29990,-6716103 29970,-6716096 29932,-6716079 29796,-6716028 29744,-6716011 29663,-6715990 29624,-6715982 29612,-6715979 29538,-6715970 29551,-6715509 29551,-6715340 29556,-6715197 29555,-6715121 29551,-6714821 29542,-6714691 29542,-6714682 29545,-6714665 29553,-6714643 29557,-6714635 29562,-6714630 29574,-6714621 29581,-6714617 29593,-6714614 29652,-6714610 29694,-6714603 29695,-6714481 29689,-6714388 29682,-6714325 29576,-6714322 29500,-6714315 29424,-6714110 29416,-6714090 29406,-6714058 29396,-6714012 29392,-6713990 29387,-6713946 29382,-6713875 29381,-6713846 29373,-6713554 29363,-6713473 29353,-6713415 29247,-6713425 29199,-6713426 29165,-6713426 29141,-6713428 29128,-6713431 29121,-6713433 29112,-6713439 29099,-6713451 29041,-6713483 29003,-6713500 28985,-6713504 28976,-6713504 28971,-6713503 28965,-6713501 28958,-6713495 28940,-6713492 28918,-6713484 28893,-6713463 28884,-6713451 28881,-6713441 28881,-6713437 28883,-6713432 28887,-6713424 28888,-6713409 28886,-6713406 28883,-6713404 28864,-6713404 28837,-6713400 28823,-6713396 28818,-6713395 28810,-6713397 28793,-6713408 28788,-6713410 28756,-6713413 28730,-6713408 28724,-6713407 28712,-6713408 28687,-6713413 28665,-6713414 28654,-6713413 28647,-6713412 28633,-6713407 28594,-6713399 28586,-6713398 28580,-6713399 28575,-6713400 28565,-6713406 28559,-6713407 28551,-6713406 28544,-6713405 28515,-6713394 28502,-6713387 28496,-6713384 28487,-6713381 28476,-6713380 28467,-6713379 28453,-6713381 28421,-6713391 28399,-6713393 28381,-6713392 28371,-6713392 28366,-6713393 28353,-6713401 28338,-6713406 28321,-6713411 28283,-6713420 28256,-6713418 28249,-6713525 28243,-6713632 28240,-6713683 28229,-6713730 28220,-6713769 28219,-6713771 28212,-6713799 28210,-6713831 28210,-6713873 28206,-6713919 28195,-6713975 28179,-6714038 28158,-6714106 28137,-6714171 28125,-6714221 28121,-6714282 28112,-6714344 28104,-6714395 28100,-6714432 28105,-6714476 28106,-6714516 28097,-6714606 28089,-6714653 28080,-6714687 28073,-6714705 28060,-6714724 28035,-6714771 28015,-6714816 28000,-6714864 27997,-6714896 27995,-6714934 27998,-6714970 27997,-6715021 27991,-6715082 27988,-6715139 27961,-6715223 27946,-6715273 27938,-6715308 27932,-6715340 27924,-6715374 27907,-6715372 27807,-6715365 27753,-6715359 27714,-6715348 27714,-6715215 27705,-6715121 27639,-6715147 27543,-6715064 27481,-6715024 27431,-6714979 27420,-6714964 27416,-6714956 27413,-6714951 27412,-6714945 27411,-6714936 27411,-6714928 27413,-6714922 27416,-6714914 27425,-6714900 27476,-6714801 27496,-6714768 27503,-6714746 27506,-6714733 27506,-6714720 27505,-6714707 27503,-6714696 27461,-6714561 27458,-6714552 27444,-6714529 27440,-6714524 27434,-6714520 27427,-6714516 27423,-6714516 27410,-6714515 27385,-6714457 27366,-6714425 27247,-6714483 27034,-6714582 27030,-6714547 27025,-6714529 27021,-6714518 26978,-6714437 26939,-6714382 26886,-6714320 26857,-6714290 26846,-6714282 26839,-6714274 26832,-6714262 26820,-6714217 26808,-6714179 26805,-6714172 26797,-6714156 26794,-6714146 26789,-6714124 26789,-6714112 26791,-6714050 26797,-6714012 26847,-6714003 26913,-6713978 26960,-6713963 26991,-6713955 27025,-6713951 27044,-6713948 27062,-6713944 27083,-6713937 27106,-6713930 27122,-6713924 27147,-6713912 27195,-6713880 27211,-6713862 27220,-6713850 27236,-6713823 27210,-6713798 27187,-6713753 27221,-6713709 27268,-6713622 27271,-6713609 27272,-6713596 27269,-6713586 27266,-6713580 27262,-6713574 27257,-6713568 27251,-6713563 27186,-6713515 27154,-6713498 27074,-6713524 26834,-6713633 26769,-6713669 26755,-6713674 26738,-6713680 26706,-6713686 26484,-6713683 26402,-6713677 26512,-6713401 26555,-6713302 26649,-6713085 26665,-6713025 26729,-6712886 26765,-6712840 26788,-6712788 26826,-6712717 26843,-6712677 26819,-6712652 26808,-6712622 26766,-6712612 26750,-6712607 26736,-6712601 26715,-6712587 26713,-6712553 26720,-6712515 26732,-6712479 26735,-6712464 26744,-6712413 26747,-6712385 26749,-6712344 26750,-6712257 26758,-6712217 26758,-6712175 26750,-6712142 26769,-6712144 26769,-6712136 26769,-6712134 26769,-6712132 26769,-6712129 26769,-6712126 26769,-6712124 26769,-6712121 26770,-6712118 26770,-6712117 26770,-6712115 26771,-6712114 26771,-6712112 26771,-6712111 26772,-6712110 26772,-6712108 26773,-6712106 26774,-6712106 26774,-6712105 26774,-6712104 26775,-6712103 26775,-6712103 26775,-6712102 26776,-6712101 26776,-6712101 26777,-6712100 26777,-6712100 26778,-6712099 26779,-6712099 26779,-6712099 26780,-6712098 26781,-6712098 26782,-6712098 26783,-6712098 26783,-6712098 26784,-6712098 26785,-6712098 26786,-6712098 26786,-6712098 26787,-6712098 26788,-6712098 26789,-6712098 26789,-6712099 26790,-6712099 26791,-6712099 26791,-6712100 26792,-6712100 26818,-6712102 26851,-6712104 26883,-6712118 26877,-6712082 26901,-6712014 26922,-6711931 26931,-6711849 26943,-6711758 26942,-6711717 26941,-6711669 26940,-6711669 26923,-6711672 26925,-6711663 26930,-6711642 26916,-6711636 26876,-6711629 26840,-6711620 26801,-6711612 26775,-6711607 26716,-6711597 26712,-6711578 26721,-6711568 26714,-6711562 26717,-6711541 26705,-6711527 26699,-6711520 26615,-6711514 26412,-6711487 26261,-6711467 26210,-6711461 26172,-6711457 26160,-6711458 26144,-6711462 26118,-6711460 26086,-6711450 26057,-6711442 26022,-6711427 25986,-6711411 25959,-6711409 25882,-6711403 25849,-6711404 25830,-6711407 25811,-6711414 25782,-6711416 25722,-6711417 25691,-6711419 25652,-6711428 25602,-6711434 25546,-6711436 25487,-6711435 25433,-6711430 25305,-6711413 25304,-6711413 25298,-6711413 25293,-6711413 25287,-6711412 25281,-6711412 25275,-6711411 25270,-6711410 25264,-6711409 25258,-6711407 25253,-6711406 25247,-6711404 25242,-6711402 25241,-6711402 25240,-6711402 25237,-6711401 25236,-6711401 25235,-6711400 25234,-6711400 25233,-6711399 25231,-6711399 25230,-6711398 25230,-6711398 25228,-6711396 25227,-6711395 25226,-6711394 25224,-6711392 25223,-6711391 25222,-6711389 25221,-6711388 25220,-6711386 25219,-6711385 25218,-6711383 25202,-6711279 25160,-6711270 25165,-6711257 25165,-6711255 25161,-6711248 25182,-6711191 25202,-6711153 25215,-6711111 25225,-6711067 25226,-6711021 25241,-6710985 25276,-6710916 25317,-6710831 25321,-6710821 25330,-6710796 25339,-6710761 25344,-6710718 25359,-6710663 25388,-6710582 25422,-6710498 25462,-6710399 25510,-6710300 25556,-6710206 25599,-6710105 25575,-6710095 25542,-6710089 25486,-6710074 25453,-6710059 25412,-6710036 25370,-6710015 25365,-6710009 25353,-6709990 25343,-6709993 25336,-6709990 25304,-6709958 25260,-6709916 25197,-6709861 25147,-6709826 25127,-6709811 25090,-6709786 25050,-6709770 25002,-6709754 24975,-6709740 24968,-6709738 24967,-6709738 24938,-6709779 24913,-6709803 24894,-6709831 24893,-6709833 24891,-6709844 24879,-6709834 24878,-6709834 24862,-6709830 24821,-6709824 24782,-6709822 24748,-6709820 24706,-6709827 24689,-6709828 24674,-6709827 24652,-6709822 24610,-6709813 24503,-6709777 24453,-6709763 24449,-6709755 24448,-6709740 24445,-6709737 24438,-6709733 24431,-6709731 24361,-6709717 24310,-6709700 24290,-6709687 24262,-6709667 24245,-6709658 24226,-6709650 24217,-6709645 24192,-6709630 24175,-6709616 24170,-6709613 24159,-6709608 24077,-6709597 24040,-6709586 24015,-6709602 24001,-6709615 23996,-6709615 23987,-6709614 23979,-6709611 23969,-6709604 23968,-6709604 23948,-6709597 23936,-6709590 23929,-6709585 23906,-6709562 23869,-6709527 23860,-6709515 23853,-6709517 23839,-6709510 23823,-6709471 23807,-6709421 23789,-6709382 23771,-6709327 23758,-6709325 23749,-6709326 23733,-6709329 23719,-6709328 23700,-6709235 23695,-6709222 23694,-6709214 23694,-6709208 23696,-6709201 23699,-6709191 23701,-6709165 23697,-6709153 23694,-6709138 23694,-6709130 23695,-6709113 23693,-6709027 23693,-6709020 23690,-6709006 23684,-6708987 23653,-6708948 23648,-6708941 23645,-6708934 23641,-6708922 23639,-6708902 23636,-6708891 23630,-6708880 23616,-6708862 23609,-6708818 23605,-6708731 23601,-6708679 23598,-6708656 23592,-6708617 23590,-6708614 23586,-6708610 23581,-6708608 23554,-6708598 23544,-6708594 23537,-6708592 23536,-6708553 23530,-6708529 23525,-6708515 23510,-6708504 23485,-6708490 23438,-6708474 23429,-6708436 23427,-6708353 23423,-6708106 23418,-6707948 23414,-6707694 23335,-6707682 23234,-6707677 23188,-6707672 23171,-6707670 23123,-6707661 22837,-6707593 22642,-6707551 22555,-6707532 22316,-6707464 22186,-6707434 22157,-6707428 22128,-6707424 22082,-6707420 21947,-6707404 21855,-6707396 21772,-6707391 21373,-6707385 21182,-6707402 21150,-6707406 21090,-6707417 20972,-6707435 20950,-6707438 20886,-6707459 20870,-6707465 20849,-6707475 20805,-6707500 20747,-6707529 20722,-6707542 20647,-6707586 20613,-6707607 20576,-6707631 20485,-6707698 20411,-6707756 20336,-6707829 20311,-6707854 20279,-6707889 20224,-6707952 20155,-6708040 20132,-6708074 20101,-6708124 20042,-6708245 19992,-6708355 19930,-6708512 19876,-6708692 19856,-6708759 19845,-6708806 19823,-6708895 19805,-6708981 19798,-6709025 19783,-6709125 19727,-6709462 19708,-6709615 19694,-6709689 19664,-6709801 19658,-6709819 19629,-6709896 19624,-6709913 19602,-6709993 19585,-6710069 19582,-6710078 19564,-6710183 19535,-6710272 19478,-6710425 19464,-6710460 19443,-6710504 19413,-6710560 19386,-6710607 19313,-6710726 19281,-6710771 19238,-6710837 19214,-6710872 19007,-6711122 18966,-6711167 18916,-6711215 18890,-6711238 18836,-6711282 18809,-6711304 18760,-6711341 18697,-6711385 18649,-6711417 18583,-6711457 18444,-6711533 18388,-6711562 18352,-6711580 18248,-6711635 18213,-6711653 18095,-6711698 18006,-6711730 17978,-6711739 17939,-6711752 17900,-6711762 17871,-6711768 17820,-6711777 17585,-6711786 17577,-6711787 17577,-6711800 17593,-6711902 17607,-6711999 17621,-6712089 17633,-6712171 17654,-6712303 17668,-6712398 17670,-6712408 17678,-6712454 17684,-6712503 17693,-6712554 17692,-6712579 17697,-6712604 17695,-6712624 17693,-6712641 17695,-6712657 17695,-6712694 17708,-6712742 17718,-6712786 17723,-6712790 17725,-6712806 17719,-6712813 17757,-6712987 17775,-6713066 17784,-6713091 17795,-6713110 17793,-6713123 17803,-6713160 17829,-6713245 17834,-6713265 17844,-6713281 17849,-6713308 17861,-6713346 17868,-6713367 17875,-6713382 17886,-6713415 17901,-6713465 17920,-6713516 17923,-6713534 17925,-6713546 17930,-6713567 17946,-6713595 17960,-6713657 17963,-6713677 17979,-6713733 18003,-6713821 18017,-6713871 18063,-6714030 18070,-6714063 18074,-6714098 18074,-6714111 18073,-6714122 18064,-6714167 18062,-6714180 18063,-6714191 18065,-6714202 18072,-6714217 18099,-6714312 18112,-6714341 18116,-6714354 18127,-6714425 18141,-6714491 18160,-6714541 18194,-6714606 18206,-6714654 18223,-6714692 18227,-6714715 18226,-6714728 18227,-6714736 18230,-6714749 18236,-6714758 18243,-6714765 18254,-6714781 18261,-6714795 18264,-6714806 18265,-6714816 18265,-6714825 18259,-6714845 18257,-6714861 18257,-6714873 18257,-6714881 18259,-6714890 18264,-6714906 18299,-6714977 18309,-6715002 18312,-6715009 18309,-6715026 18305,-6715046 18308,-6715057 18308,-6715059 18310,-6715062 18338,-6715101 18358,-6715134 18362,-6715139 18369,-6715157 18383,-6715183 18392,-6715210 18404,-6715247 18414,-6715279 18421,-6715304 18430,-6715323 18444,-6715331 18449,-6715332 18465,-6715335 18472,-6715343 18480,-6715370 18488,-6715380 18492,-6715382 18506,-6715389 18508,-6715394 18522,-6715410 18531,-6715420 18532,-6715421 18534,-6715460 18538,-6715468 18544,-6715477 18552,-6715491 18562,-6715510 18568,-6715522 18573,-6715530 18582,-6715540 18591,-6715547 18604,-6715553 18608,-6715555 18619,-6715561 18628,-6715566 18638,-6715574 18642,-6715578 18644,-6715581 18645,-6715585 18647,-6715592 18648,-6715606 18654,-6715620 18670,-6715636 18675,-6715641 18684,-6715656 18688,-6715675 18690,-6715690 18695,-6715706 18702,-6715718 18710,-6715727 18720,-6715734 18730,-6715737 18746,-6715742 18758,-6715753 18764,-6715762 18767,-6715772 18772,-6715786 18774,-6715791 18778,-6715798 18787,-6715808 18804,-6715823 18842,-6715859 18861,-6715885 18878,-6715906 18885,-6715914 18906,-6715937 18940,-6715981 18952,-6715995 18967,-6716014 18976,-6716024 18981,-6716028 18994,-6716038 19012,-6716055 19017,-6716064 19042,-6716119 19052,-6716137 19054,-6716141 19063,-6716171 19076,-6716194 19081,-6716215 19086,-6716232 19097,-6716249 19108,-6716262 19110,-6716267 19118,-6716285 19126,-6716309 19130,-6716330 19136,-6716340 19139,-6716349 19139,-6716356 19140,-6716371 19135,-6716395 19136,-6716419 19140,-6716441 19141,-6716445 19146,-6716462 19150,-6716482 19156,-6716494 19163,-6716504 19175,-6716531 19179,-6716545 19187,-6716573 19189,-6716588 19195,-6716597 19213,-6716642 19273,-6716742 19304,-6716809 19348,-6716911 19363,-6716947 19430,-6717037 19453,-6717066 19470,-6717089 19484,-6717105 19533,-6717143 19572,-6717173 19611,-6717202 19632,-6717219 19648,-6717234 19687,-6717253 19703,-6717261 19735,-6717283 19753,-6717291 19780,-6717289 19796,-6717290 19807,-6717290 19811,-6717291 19825,-6717295 19831,-6717298 19839,-6717308 19848,-6717314 19869,-6717335 19887,-6717364 19900,-6717382 19904,-6717387 19919,-6717403 19933,-6717413 19951,-6717426 19956,-6717434 19956,-6717438 19957,-6717445 19958,-6717455 19958,-6717470 19960,-6717477 19972,-6717502 19982,-6717532 19988,-6717568 19995,-6717595 20002,-6717617 20003,-6717643 19998,-6717662 19998,-6717665 20000,-6717677 20007,-6717686 20010,-6717699 20009,-6717703 20005,-6717718 19998,-6717732 19998,-6717738 19996,-6717793 19999,-6717838 20003,-6717856 20011,-6717880 20019,-6717889 20019,-6717916 20019,-6717947 20021,-6717950 20040,-6717979 20042,-6717995 20042,-6717999 20049,-6718046 20066,-6718076 20081,-6718110 20100,-6718138 20133,-6718172 20159,-6718203 20175,-6718220 20193,-6718247 20211,-6718285 20226,-6718314 20237,-6718325 20309,-6718399 20326,-6718410 20326,-6718420 20349,-6718431 20361,-6718447 20395,-6718473 20436,-6718507 20447,-6718519 20468,-6718530 20505,-6718559 20536,-6718584 20589,-6718626 20604,-6718635 20634,-6718648 20643,-6718651 20660,-6718657 20684,-6718669 20694,-6718687 20707,-6718724 20709,-6718729 20712,-6718736 20726,-6718764 20740,-6718789 20747,-6718797 20762,-6718841 20771,-6718871 20784,-6718913 20785,-6718929 20790,-6718946 20791,-6718955 20799,-6718970 20811,-6719012 20824,-6719051 20840,-6719070 20844,-6719076 20846,-6719102 20850,-6719116 20865,-6719153 20868,-6719166 20871,-6719178 20871,-6719200 20955,-6719288 20983,-6719322 21031,-6719369 21056,-6719398 21065,-6719413 21083,-6719420 21107,-6719425 21111,-6719436 21114,-6719457 21117,-6719484 21121,-6719521 21132,-6719541 21143,-6719561 21151,-6719577 21153,-6719596 21152,-6719614 21161,-6719629 21167,-6719634 21174,-6719639 21173,-6719645 21162,-6719659 21146,-6719671 21116,-6719724 21098,-6719736 21076,-6719745 21068,-6719751 21061,-6719757 21048,-6719774 21041,-6719781 21033,-6719788 21016,-6719797 20999,-6719813 20990,-6719833 20987,-6719855 20956,-6719882 20934,-6719887 20918,-6719895 20911,-6719909 20918,-6719921 20928,-6719927 20935,-6719944 20926,-6719957 20907,-6719962 20888,-6719963 20879,-6719975 20874,-6719996 20881,-6720009 20893,-6720020 20898,-6720033 20887,-6720066 20883,-6720083 20871,-6720100 20860,-6720123 20839,-6720146 20820,-6720158 20815,-6720172 20813,-6720193 20807,-6720200 20800,-6720207 20759,-6720219 20746,-6720231 20733,-6720265 20703,-6720283 20694,-6720300 20671,-6720308 20647,-6720312 20589,-6720306 20568,-6720315 20568,-6720330 20567,-6720352 20574,-6720352 20589,-6720356 20598,-6720370 20599,-6720386 20583,-6720395 20569,-6720425 20572,-6720443 20578,-6720456 20572,-6720471 20561,-6720494 20542,-6720513 20531,-6720532 20530,-6720539 20531,-6720554 20532,-6720562 20535,-6720578 20530,-6720590 20535,-6720611 20543,-6720629 20549,-6720650 20546,-6720670 20550,-6720684 20550,-6720693 20546,-6720721 20550,-6720727 20572,-6720752 20575,-6720770 20577,-6720816 20570,-6720831 20565,-6720846 20568,-6720859 20564,-6720877 20565,-6720898 20570,-6720922 20571,-6720929 20564,-6720948 20553,-6720968 20548,-6720987 20545,-6720993 20503,-6721018 20502,-6721018 20439,-6721057 20419,-6721086 20389,-6721123 20368,-6721140 20358,-6721153 20348,-6721165 20340,-6721184 20332,-6721190 20348,-6721251 20394,-6721363 20414,-6721423 20423,-6721442 20423,-6721447 20431,-6721459 20434,-6721473 20440,-6721480 20446,-6721499 20467,-6721579 20479,-6721630 20484,-6721648 20493,-6721664 20505,-6721679 20535,-6721710 20554,-6721731 20571,-6721752 20598,-6721790 20613,-6721805 20610,-6721813 20608,-6721817 20606,-6721824 20605,-6721830 20604,-6721852 20606,-6721891 20614,-6721942 20612,-6721941 20517,-6721860 20464,-6721816 20443,-6721799 20428,-6721785 20406,-6721789 20385,-6721793 20334,-6721802 20249,-6721810 20244,-6721813 20214,-6721815 20201,-6721807 20194,-6721803 20163,-6721804 20097,-6721822 20075,-6721822 20059,-6721829 19981,-6721832 19931,-6721839 19888,-6721840 19827,-6721836 19753,-6721825 19699,-6721815 19677,-6721811 19625,-6721799 19596,-6721802 19545,-6721813 19527,-6721818 19442,-6721838 19349,-6721864 19304,-6721868 19266,-6721845 19245,-6721829 19210,-6721824 19161,-6721818 19135,-6721809 19086,-6721791 19064,-6721781 18991,-6721737 18966,-6721725 18942,-6721709 18930,-6721701 18917,-6721694 18888,-6721681 18862,-6721666 18833,-6721645 18813,-6721626 18794,-6721612 18771,-6721600 18759,-6721596 18740,-6721588 18697,-6721581 18682,-6721578 18655,-6721573 18611,-6721569 18562,-6721556 18543,-6721551 18519,-6721541 18490,-6721520 18458,-6721503 18443,-6721486 18403,-6721464 18357,-6721437 18302,-6721404 18238,-6721363 18191,-6721335 18147,-6721311 18117,-6721296 18082,-6721275 18022,-6721243 18012,-6721252 17998,-6721266 17978,-6721283 17962,-6721295 17922,-6721311 17893,-6721327 17889,-6721328 17878,-6721355 17873,-6721369 17867,-6721383 17836,-6721408 17820,-6721425 17811,-6721457 17806,-6721469 17788,-6721506 17754,-6721533 17718,-6721566 17691,-6721588 17668,-6721611 17644,-6721643 17612,-6721674 17589,-6721668 17581,-6721676 17552,-6721708 17488,-6721764 17445,-6721805 17427,-6721831 17404,-6721857 17390,-6721865 17362,-6721881 17348,-6721888 17322,-6721899 17308,-6721910 17281,-6721935 17268,-6721948 17233,-6721992 17218,-6722009 17176,-6722055 17152,-6722082 17105,-6722139 17054,-6722195 16987,-6722263 16963,-6722294 16897,-6722358 16860,-6722386 16841,-6722397 16834,-6722394 16827,-6722391 16810,-6722364 16802,-6722356 16794,-6722349 16785,-6722349 16765,-6722351 16740,-6722356 16727,-6722360 16707,-6722368 16699,-6722380 16696,-6722391 16692,-6722397 16685,-6722402 16678,-6722405 16674,-6722406 16653,-6722406 16636,-6722405 16626,-6722409 16581,-6722470 16561,-6722499 16408,-6722489 16401,-6722508 16393,-6722517 16379,-6722525 16360,-6722527 16340,-6722526 16338,-6722546 16340,-6722560 16347,-6722568 16334,-6722605 16327,-6722641 16497,-6722666 16673,-6722692 16667,-6722725 16662,-6722764 16642,-6722772 16621,-6722795 16618,-6722833 16603,-6723004 16618,-6723008 16610,-6723094 16585,-6723325 16466,-6723304 16468,-6723307 16482,-6723340 16482,-6723408 16480,-6723449 16480,-6723529 16488,-6723572 16498,-6723653 16501,-6723677 16498,-6723699 16490,-6723753 16482,-6723781 16365,-6723763 16370,-6723888 16384,-6724041 16387,-6724093 16392,-6724166 16402,-6724452 16416,-6724679 16520,-6724672 16538,-6724709 16590,-6724820 16663,-6724959 16700,-6725000 16749,-6725054 16770,-6725086 16789,-6725151 16804,-6725210 16806,-6725286 16810,-6725473 16819,-6725718 16824,-6725916 16829,-6726044 16834,-6726172 16829,-6726239 16828,-6726293 16821,-6726349 16803,-6726419 16781,-6726505 16764,-6726559 16779,-6726788 16783,-6726938 16796,-6727005 16809,-6727175 16826,-6727303 16793,-6727366 16754,-6727447 16708,-6727536 16680,-6727597 16675,-6727593 16484,-6727467 16486,-6727476 16495,-6727541 16487,-6727542 16440,-6727547 16440,-6727548 16453,-6727621 16469,-6727721 16477,-6727791 16492,-6727868 16490,-6727883 16498,-6727934 16502,-6727947 16504,-6727955 16514,-6727999 16545,-6728166 16574,-6728308 16576,-6728321 16583,-6728356 16584,-6728393 16584,-6728398 16593,-6728415 16599,-6728443 16643,-6728641 16611,-6728699 16598,-6728721 16583,-6728745 16589,-6728756 16576,-6728784 16566,-6728813 16555,-6728865 16547,-6728901 16543,-6728926 16541,-6728985 16538,-6728997 16540,-6729055 16530,-6729146 16528,-6729185 16528,-6729218 16532,-6729241 16544,-6729289 16558,-6729380 16563,-6729442 16559,-6729473 16559,-6729508 16558,-6729552 16559,-6729602 16555,-6729615 16555,-6729637 16554,-6729677 16543,-6729721 16536,-6729751 16518,-6729804 16503,-6729868 16493,-6729892 16482,-6729933 16469,-6729981 16458,-6730037 16456,-6730120 16451,-6730186 16429,-6730293 16419,-6730334 16409,-6730360 16402,-6730377 16391,-6730401 16359,-6730468 16348,-6730502 16323,-6730552 16306,-6730584 16265,-6730642 16265,-6730643 16256,-6730655 16245,-6730672 16226,-6730692 16207,-6730712 16197,-6730729 16191,-6730747 16183,-6730774 16177,-6730797 16177,-6730812 16175,-6730826 16169,-6730841 16162,-6730854 16156,-6730872 16146,-6730922 16137,-6730967 16123,-6731000 16111,-6731029 16085,-6731111 16068,-6731136 16056,-6731154 16036,-6731175 16021,-6731204 16003,-6731235 15962,-6731322 15951,-6731351 15941,-6731378 15932,-6731393 15906,-6731437 15880,-6731485 15861,-6731519 15833,-6731561 15828,-6731567 15819,-6731578 15805,-6731614 15692,-6731816 15683,-6731834 15677,-6731843 15661,-6731865 15647,-6731879 15618,-6731915 15597,-6731946 15499,-6732120 15382,-6732341 15571,-6732328 16144,-6732302 16566,-6732284 16595,-6732284 16681,-6732281 16817,-6732288 16963,-6732293 16989,-6732298 17007,-6732301 17041,-6732303 17074,-6732301 17211,-6732304 17246,-6732305 17280,-6732306 17315,-6732305 17356,-6732301 17422,-6732293 17594,-6732264 17899,-6732209 18092,-6732168 18121,-6732206 18123,-6732206 18158,-6732200 18194,-6732191 18253,-6732174 18307,-6732162 18366,-6732153 18421,-6732144 18461,-6732132 18501,-6732116 18648,-6732055 18671,-6732047 18689,-6732040 18712,-6732029 18729,-6732020 18741,-6732012 18755,-6732002 18787,-6731972 18802,-6731960 18888,-6732013 18958,-6732048 19127,-6732136 19289,-6732226 19414,-6732291 19514,-6732349 19725,-6732405 19792,-6732426 19800,-6732429 19887,-6732460 19975,-6732480 20015,-6732487 20032,-6732491 20057,-6732499 20081,-6732508 20089,-6732597 20097,-6732663 20104,-6732722 20105,-6732734 20125,-6732714 20136,-6732709 20138,-6732710 20139,-6732711 20140,-6732712 20142,-6732713 20143,-6732714 20144,-6732715 20145,-6732717 20146,-6732718 20147,-6732720 20148,-6732721 20148,-6732722 20149,-6732723 20150,-6732725 20150,-6732726 20151,-6732728 20151,-6732742 20175,-6732750 20223,-6732755 20276,-6732754 20315,-6732747 20347,-6732732 20379,-6732706 20390,-6732691 20421,-6732689 20429,-6732680 20446,-6732678 20501,-6732647 20557,-6732604 20636,-6732537 20694,-6732492 20697,-6732490 20717,-6732507 20732,-6732520 20735,-6732523 20725,-6732576 20717,-6732621 20712,-6732663 20705,-6732696 20826,-6732688 20969,-6732676 20995,-6732625 21018,-6732580 21083,-6732511 21100,-6732548 21102,-6732603 21130,-6732621 21171,-6732620 21197,-6732622 21220,-6732627 21238,-6732633 21283,-6732650 21394,-6732678 21450,-6732691 21528,-6732697 21592,-6732706 21682,-6732730 21778,-6732721 21928,-6732704 22111,-6732650 22196,-6732622 22298,-6732591 22337,-6732596 22387,-6732600 22487,-6732607 22563,-6732618 22597,-6732619 22617,-6732622 22649,-6732628 22666,-6732633 22703,-6732647 22793,-6732688 22870,-6732716 22902,-6732731 22922,-6732742 22935,-6732751 22947,-6732761 22965,-6732778 22987,-6732803 22998,-6732814 23009,-6732822 23018,-6732828 23032,-6732835 23061,-6732849 23111,-6732866 23186,-6732897 23205,-6732904 23213,-6732906 23236,-6732909 23313,-6732908 23328,-6732909 23378,-6732915 23414,-6732912 23472,-6732914 23533,-6732928 23627,-6732957 23611,-6732994 23632,-6732999 23645,-6733004 23662,-6733011 23684,-6733026 23742,-6733074 23786,-6733062 23821,-6733079 23852,-6733098 23922,-6733139 23982,-6733181 24014,-6733193 24048,-6733224 24135,-6733286 24217,-6733336 24273,-6733359 24312,-6733370 24386,-6733402 24469,-6733442 24541,-6733455 24601,-6733476 24721,-6733521 24743,-6733542 24809,-6733621 24892,-6733729 24945,-6733810 24965,-6733793 25011,-6733754 25094,-6733669 25170,-6733599 25249,-6733511 25300,-6733458 25331,-6733431 25405,-6733379 25508,-6733303 25580,-6733241 25656,-6733169 25731,-6733097 25807,-6733031 25842,-6733001" stroke="white" stroke-width="48" /></ns0:svg>    <rect x="20" y="50"  width="250" height="25"  rx="0"  fill="#E8EDEE" fill-opacity="0.8" />    <text x="145" y="70" text-anchor="middle" font-family="Frutiger" font-weight="bold" font-size="30" fill="#AE2573">Havering</text>    <rect x="35" y="195" width="220" height="160" rx="15" fill="#724F95"/>    <g font-family="Frutiger" font-size="15" fill="white">        <g> <text x="45" y="218">Self-harm</text> <text x="245" y="218" text-anchor="end">0</text> </g>        <g> <text x="45" y="243">SEN</text> <text x="245" y="243" text-anchor="end">0</text> </g>        <g> <text x="45" y="268">Difficulties</text> <text x="245" y="268" text-anchor="end">64</text> </g>        <g> <text x="45" y="293">Child Carer</text> <text x="245" y="293" text-anchor="end">5</text> </g>        <g> <text x="45" y="318">Drinkers</text> <text x="245" y="318" text-anchor="end">40</text> </g>        <g> <text x="45" y="343">Safeguarding £</text> <text x="245" y="343" text-anchor="end">31</text> </g>    </g></svg>