<?xml version="1.0" standalone="no"?>
<!DOCTYPE svg PUBLIC "-//W3C//DTD SVG 1.1//EN"
"http://www.w3.org/Graphics/SVG/1.1/DTD/svg11.dtd">
<svg height="1800" version="1.1" width="1800" xmlns="http://www.w3.org/2000/svg"><defs><style type="text/css">@font-face {font-family: 'Frutiger';font-style: normal;font-weight: normal;src: local('Frutiger'), url('../fonts/Frutiger.woff') format('woff');}@font-face {font-family: 'Frutiger Bold';font-style: normal;font-weight: normal;src: local('Frutiger Bold'), url('../fonts/Frutiger_bold.woff') format('woff');}        </style>    </defs>    <rect x="20" y="20"  width="250" height="350" rx="15" fill="#009639" />    <rect x="35" y="35"  width="220" height="145" rx="15" fill="#E8EDEE" /><ns0:svg xmlns:ns0="http://www.w3.org/2000/svg" height="115" version="1.1" viewBox="-20690 -6744603 19697 15472" width="220" x="35" y="50"><ns0:polygon fill="#006747" points=" -10782,-6744365 -10758,-6744351 -10746,-6744355 -10670,-6744325 -10608,-6744299 -10550,-6744286 -10496,-6744281 -10359,-6744272 -10244,-6744261 -10180,-6744252 -10142,-6744253 -10035,-6744248 -9962,-6744251 -9907,-6744254 -9850,-6744263 -9779,-6744276 -9695,-6744290 -9640,-6744291 -9610,-6744295 -9596,-6744296 -9553,-6744295 -9503,-6744292 -9442,-6744281 -9340,-6744260 -9279,-6744233 -9201,-6744206 -9137,-6744171 -9133,-6744169 -9129,-6744166 -9125,-6744163 -9120,-6744160 -9115,-6744157 -9111,-6744154 -9106,-6744151 -9102,-6744149 -9097,-6744147 -9092,-6744145 -9087,-6744143 -9081,-6744141 -9076,-6744139 -9070,-6744137 -9058,-6744133 -9046,-6744130 -9043,-6744129 -9032,-6744126 -9022,-6744123 -9011,-6744121 -9009,-6744121 -9001,-6744119 -8990,-6744117 -8979,-6744116 -8969,-6744115 -8961,-6744114 -8889,-6744101 -8886,-6744101 -8883,-6744100 -8880,-6744100 -8877,-6744099 -8874,-6744099 -8871,-6744098 -8869,-6744098 -8867,-6744097 -8865,-6744096 -8864,-6744095 -8862,-6744095 -8859,-6744093 -8856,-6744092 -8853,-6744090 -8850,-6744088 -8847,-6744086 -8824,-6744077 -8793,-6744071 -8701,-6744010 -8665,-6743984 -8622,-6743953 -8551,-6743905 -8505,-6743874 -8453,-6743845 -8404,-6743810 -8354,-6743779 -8265,-6743732 -8233,-6743720 -8128,-6743655 -8063,-6743612 -8013,-6743579 -7967,-6743550 -7876,-6743477 -7797,-6743417 -7732,-6743369 -7676,-6743331 -7628,-6743302 -7565,-6743261 -7557,-6743258 -7518,-6743238 -7478,-6743212 -7385,-6743161 -7331,-6743140 -7289,-6743122 -7241,-6743104 -7181,-6743084 -7136,-6743071 -7100,-6743068 -7095,-6743068 -7075,-6743066 -7064,-6743062 -7040,-6743047 -6903,-6743010 -6847,-6743002 -6802,-6742992 -6787,-6742991 -6748,-6742989 -6727,-6742987 -6650,-6742981 -6600,-6742982 -6572,-6743012 -6547,-6743009 -6542,-6742995 -6438,-6742997 -6375,-6743006 -6348,-6743006 -6300,-6743007 -6222,-6743026 -6171,-6743039 -6135,-6743055 -6099,-6743069 -6054,-6743069 -6026,-6743068 -5948,-6743074 -5882,-6743077 -5806,-6743096 -5754,-6743105 -5728,-6743113 -5690,-6743135 -5686,-6743136 -5636,-6743160 -5617,-6743169 -5587,-6743184 -5544,-6743207 -5474,-6743237 -5462,-6743203 -5446,-6743197 -5427,-6743190 -5407,-6743189 -5378,-6743202 -5351,-6743167 -5328,-6743137 -5324,-6743133 -5320,-6743129 -5316,-6743126 -5311,-6743122 -5307,-6743119 -5302,-6743116 -5297,-6743113 -5296,-6743112 -5291,-6743109 -5286,-6743106 -5281,-6743104 -5276,-6743101 -5271,-6743099 -5266,-6743097 -5261,-6743095 -5255,-6743093 -5255,-6743092 -5249,-6743091 -5244,-6743089 -5238,-6743088 -5233,-6743087 -5227,-6743086 -5221,-6743085 -5216,-6743084 -5211,-6743083 -5203,-6743082 -5195,-6743081 -5187,-6743081 -5178,-6743080 -5170,-6743080 -5162,-6743080 -5153,-6743080 -5145,-6743081 -5137,-6743082 -5129,-6743082 -5127,-6743083 -5102,-6743084 -5033,-6743089 -4972,-6743087 -4925,-6743087 -4912,-6743083 -4859,-6743072 -4856,-6743070 -4866,-6743040 -4857,-6743038 -4861,-6743026 -4730,-6743015 -4729,-6743030 -4725,-6743029 -4615,-6743018 -4571,-6743013 -4411,-6742995 -4134,-6742975 -4130,-6742974 -4127,-6742974 -4127,-6742963 -4128,-6742956 -4128,-6742955 -4128,-6742951 -4119,-6742951 -4119,-6742937 -4107,-6742936 -3840,-6742913 -3811,-6742911 -3811,-6742926 -3717,-6742918 -3683,-6742915 -3669,-6742914 -3666,-6742921 -3414,-6742905 -3410,-6742927 -3274,-6742907 -3158,-6742889 -3082,-6742874 -3068,-6742864 -3017,-6742852 -2961,-6742845 -2888,-6742829 -2805,-6742807 -2748,-6742790 -2722,-6742781 -2688,-6742769 -2601,-6742745 -2579,-6742757 -2548,-6742750 -2462,-6742736 -2330,-6742703 -2200,-6742677 -2185,-6742675 -2024,-6742658 -1978,-6742652 -1946,-6742652 -1780,-6742650 -1674,-6742648 -1559,-6742641 -1355,-6742628 -1326,-6742628 -1248,-6742627 -1231,-6742627 -1236,-6742602 -1238,-6742594 -1237,-6742483 -1222,-6742399 -1220,-6742384 -1199,-6742280 -1187,-6742188 -1176,-6742101 -1161,-6741985 -1153,-6741904 -1149,-6741872 -1149,-6741866 -1152,-6741825 -1163,-6741789 -1171,-6741745 -1174,-6741731 -1185,-6741663 -1194,-6741614 -1202,-6741572 -1206,-6741535 -1212,-6741480 -1235,-6741274 -1263,-6741020 -1270,-6740899 -1270,-6740887 -1271,-6740875 -1270,-6740863 -1270,-6740851 -1270,-6740849 -1269,-6740837 -1269,-6740833 -1268,-6740825 -1267,-6740813 -1265,-6740801 -1263,-6740790 -1262,-6740787 -1260,-6740779 -1258,-6740772 -1256,-6740765 -1253,-6740758 -1251,-6740751 -1248,-6740744 -1247,-6740740 -1212,-6740639 -1183,-6740584 -1182,-6740578 -1180,-6740572 -1179,-6740565 -1178,-6740559 -1177,-6740553 -1177,-6740552 -1176,-6740546 -1176,-6740539 -1175,-6740533 -1175,-6740527 -1175,-6740520 -1175,-6740514 -1176,-6740508 -1176,-6740507 -1176,-6740503 -1177,-6740498 -1178,-6740494 -1180,-6740490 -1181,-6740486 -1182,-6740481 -1184,-6740477 -1187,-6740468 -1188,-6740464 -1189,-6740462 -1194,-6740448 -1199,-6740434 -1205,-6740420 -1211,-6740407 -1214,-6740399 -1217,-6740394 -1219,-6740389 -1222,-6740383 -1224,-6740378 -1226,-6740373 -1228,-6740367 -1228,-6740366 -1230,-6740360 -1231,-6740355 -1232,-6740349 -1234,-6740343 -1235,-6740338 -1236,-6740326 -1237,-6740321 -1241,-6740297 -1245,-6740274 -1245,-6740272 -1248,-6740246 -1251,-6740219 -1253,-6740192 -1255,-6740165 -1256,-6740137 -1256,-6740110 -1256,-6740095 -1266,-6739850 -1279,-6739588 -1279,-6739579 -1279,-6739570 -1278,-6739562 -1278,-6739553 -1277,-6739544 -1276,-6739539 -1275,-6739530 -1273,-6739522 -1271,-6739513 -1270,-6739505 -1267,-6739497 -1265,-6739488 -1262,-6739480 -1260,-6739472 -1257,-6739465 -1253,-6739458 -1250,-6739450 -1246,-6739443 -1242,-6739436 -1238,-6739429 -1234,-6739422 -1231,-6739415 -1228,-6739411 -1199,-6739356 -1182,-6739325 -1133,-6739248 -1094,-6739198 -1079,-6739180 -1073,-6739172 -1067,-6739165 -1061,-6739157 -1056,-6739149 -1050,-6739141 -1045,-6739133 -1040,-6739124 -1035,-6739116 -1031,-6739107 -1026,-6739098 -1026,-6739097 -1022,-6739089 -1018,-6739080 -1014,-6739071 -1011,-6739062 -1008,-6739052 -1005,-6739043 -1002,-6739034 -1000,-6739024 -998,-6739015 -997,-6739010 -995,-6739002 -994,-6738993 -994,-6738985 -993,-6738977 -993,-6738969 -993,-6738961 -993,-6738952 -993,-6738944 -993,-6738936 -994,-6738928 -995,-6738920 -996,-6738911 -996,-6738907 -998,-6738897 -999,-6738887 -1001,-6738877 -1003,-6738868 -1006,-6738858 -1008,-6738848 -1011,-6738839 -1014,-6738829 -1018,-6738820 -1020,-6738814 -1091,-6738518 -1152,-6738268 -1153,-6738266 -1235,-6737945 -1274,-6737784 -1303,-6737666 -1305,-6737657 -1307,-6737649 -1309,-6737640 -1311,-6737631 -1312,-6737622 -1312,-6737621 -1313,-6737612 -1314,-6737603 -1315,-6737593 -1315,-6737590 -1315,-6737580 -1315,-6737571 -1315,-6737561 -1315,-6737552 -1315,-6737550 -1314,-6737519 -1313,-6737487 -1310,-6737455 -1308,-6737424 -1304,-6737392 -1300,-6737361 -1290,-6737227 -1291,-6737148 -1295,-6737043 -1317,-6736879 -1321,-6736851 -1344,-6736603 -1344,-6736599 -1364,-6736412 -1364,-6736410 -1413,-6735925 -1462,-6735398 -1462,-6735394 -1475,-6735265 -1482,-6735224 -1501,-6735147 -1554,-6734954 -1621,-6734756 -1643,-6734708 -1643,-6734707 -1651,-6734656 -1649,-6734620 -1666,-6734563 -1696,-6734486 -1715,-6734444 -1775,-6734321 -1850,-6734174 -1871,-6734132 -1894,-6734082 -1980,-6733907 -2077,-6733711 -2211,-6733443 -2493,-6732865 -2551,-6732748 -2577,-6732703 -2597,-6732662 -2615,-6732633 -2648,-6732582 -2674,-6732538 -2700,-6732489 -2719,-6732447 -2734,-6732407 -2745,-6732375 -2754,-6732337 -2763,-6732308 -2777,-6732266 -2794,-6732202 -2807,-6732155 -2818,-6732128 -2844,-6732074 -2886,-6732017 -2891,-6732022 -2905,-6732001 -2922,-6731980 -3002,-6731878 -3006,-6731874 -3040,-6731826 -3052,-6731809 -3093,-6731752 -3109,-6731728 -3188,-6731617 -3276,-6731496 -3313,-6731451 -3368,-6731383 -3473,-6731271 -3500,-6731240 -3517,-6731219 -3526,-6731208 -3544,-6731185 -3569,-6731152 -3593,-6731118 -3606,-6731100 -3617,-6731081 -3628,-6731062 -3639,-6731043 -3649,-6731024 -3660,-6731005 -3663,-6730999 -3712,-6730917 -3716,-6730910 -3781,-6730778 -3851,-6730646 -3895,-6730568 -3901,-6730555 -3907,-6730542 -3912,-6730529 -3914,-6730523 -3919,-6730510 -3924,-6730496 -3928,-6730483 -3931,-6730473 -3933,-6730464 -3935,-6730455 -3936,-6730449 -3936,-6730446 -3938,-6730437 -3939,-6730431 -3943,-6730416 -3943,-6730415 -3947,-6730400 -3951,-6730385 -3953,-6730380 -3954,-6730373 -3956,-6730367 -3957,-6730360 -3958,-6730353 -3959,-6730346 -3960,-6730339 -3960,-6730336 -3960,-6730329 -3961,-6730322 -3961,-6730315 -3961,-6730308 -3960,-6730301 -3960,-6730294 -3959,-6730287 -3958,-6730280 -3957,-6730273 -3957,-6730272 -3955,-6730266 -3954,-6730260 -3952,-6730255 -3950,-6730249 -3948,-6730244 -3946,-6730238 -3943,-6730233 -3941,-6730228 -3938,-6730222 -3936,-6730217 -3935,-6730213 -3928,-6730197 -3920,-6730181 -3912,-6730165 -3904,-6730150 -3896,-6730134 -3887,-6730119 -3879,-6730106 -3824,-6730012 -3820,-6730005 -3816,-6729998 -3812,-6729990 -3809,-6729982 -3806,-6729975 -3802,-6729967 -3800,-6729959 -3797,-6729951 -3794,-6729943 -3792,-6729935 -3790,-6729927 -3788,-6729919 -3786,-6729911 -3785,-6729903 -3784,-6729894 -3783,-6729886 -3782,-6729878 -3781,-6729870 -3781,-6729863 -3781,-6729861 -3781,-6729853 -3781,-6729844 -3782,-6729836 -3782,-6729834 -3783,-6729827 -3784,-6729822 -3784,-6729820 -3785,-6729814 -3787,-6729807 -3788,-6729800 -3790,-6729793 -3792,-6729787 -3794,-6729780 -3796,-6729773 -3799,-6729767 -3801,-6729760 -3804,-6729754 -3807,-6729747 -3811,-6729741 -3814,-6729734 -3818,-6729728 -3822,-6729721 -3826,-6729715 -3831,-6729709 -3835,-6729703 -3839,-6729697 -3844,-6729691 -3848,-6729685 -3850,-6729683 -3863,-6729664 -3877,-6729644 -3892,-6729626 -3895,-6729622 -3902,-6729615 -3909,-6729609 -3916,-6729602 -3924,-6729596 -3931,-6729590 -3939,-6729584 -3947,-6729579 -3954,-6729573 -3962,-6729567 -3970,-6729561 -3978,-6729556 -3980,-6729554 -3985,-6729550 -4002,-6729538 -4025,-6729522 -4048,-6729508 -4055,-6729503 -4221,-6729404 -4302,-6729355 -4513,-6729227 -4520,-6729222 -4527,-6729217 -4534,-6729212 -4535,-6729212 -4540,-6729208 -4547,-6729202 -4553,-6729197 -4560,-6729191 -4564,-6729187 -4566,-6729185 -4570,-6729182 -4575,-6729176 -4581,-6729169 -4587,-6729163 -4592,-6729157 -4597,-6729150 -4602,-6729143 -4607,-6729136 -4611,-6729131 -4650,-6729142 -4768,-6729176 -4930,-6729218 -5046,-6729254 -5299,-6729337 -5346,-6729354 -5392,-6729368 -5432,-6729385 -5461,-6729395 -5486,-6729404 -5522,-6729415 -5556,-6729427 -5588,-6729439 -5735,-6729507 -5733,-6729513 -5731,-6729518 -5760,-6729536 -5806,-6729553 -5853,-6729569 -5887,-6729573 -5887,-6729612 -5896,-6729615 -5895,-6729626 -5894,-6729633 -5893,-6729635 -5887,-6729645 -5891,-6729648 -5898,-6729653 -5905,-6729658 -6006,-6729696 -6050,-6729709 -6188,-6729715 -6246,-6729710 -6462,-6729698 -6571,-6729688 -6812,-6729674 -6942,-6729666 -7008,-6729664 -7238,-6729660 -7260,-6729661 -7286,-6729667 -7378,-6729674 -7463,-6729719 -7463,-6729719 -7471,-6729723 -7508,-6729674 -7512,-6729670 -7525,-6729671 -7539,-6729672 -7546,-6729672 -7566,-6729701 -7606,-6729677 -7710,-6729686 -7718,-6729687 -7753,-6729688 -7753,-6729673 -7828,-6729677 -7869,-6729682 -7878,-6729682 -7885,-6729684 -7889,-6729685 -7887,-6729694 -7886,-6729697 -7956,-6729684 -7981,-6729681 -8021,-6729677 -8022,-6729686 -8031,-6729685 -8109,-6729673 -8219,-6729661 -8321,-6729647 -8415,-6729636 -8423,-6729635 -8473,-6729631 -8532,-6729628 -8578,-6729631 -8696,-6729640 -8758,-6729644 -8791,-6729645 -8811,-6729644 -8827,-6729645 -8862,-6729646 -8982,-6729644 -9055,-6729637 -9123,-6729638 -9143,-6729639 -9267,-6729645 -9390,-6729642 -9408,-6729641 -9441,-6729639 -9554,-6729639 -9635,-6729648 -9696,-6729656 -9740,-6729661 -9793,-6729668 -9837,-6729679 -9873,-6729689 -9980,-6729701 -9984,-6729701 -10113,-6729716 -10116,-6729697 -10117,-6729696 -10176,-6729696 -10209,-6729715 -10212,-6729710 -10215,-6729705 -10219,-6729707 -10248,-6729722 -10249,-6729722 -10249,-6729739 -10248,-6729745 -10291,-6729751 -10291,-6729746 -10292,-6729706 -10300,-6729708 -10346,-6729717 -10414,-6729734 -10463,-6729702 -10590,-6729672 -10610,-6729702 -10611,-6729716 -10638,-6729781 -10663,-6729787 -10708,-6729781 -10733,-6729772 -10774,-6729759 -10775,-6729758 -10803,-6729743 -10824,-6729715 -10835,-6729719 -10837,-6729720 -10838,-6729720 -10845,-6729720 -10868,-6729720 -10871,-6729720 -10849,-6729648 -10889,-6729643 -11028,-6729638 -11125,-6729637 -11172,-6729639 -11219,-6729640 -11250,-6729646 -11271,-6729648 -11297,-6729647 -11327,-6729643 -11350,-6729637 -11374,-6729629 -11411,-6729563 -11465,-6729597 -11520,-6729631 -11543,-6729632 -11568,-6729634 -11591,-6729635 -11717,-6729634 -11764,-6729619 -11786,-6729619 -11785,-6729624 -11785,-6729629 -11786,-6729628 -11828,-6729630 -11905,-6729608 -11919,-6729605 -11920,-6729604 -12163,-6729605 -12230,-6729600 -12230,-6729604 -12230,-6729605 -12289,-6729616 -12295,-6729618 -12301,-6729620 -12294,-6729648 -12292,-6729654 -12310,-6729659 -12312,-6729659 -12332,-6729664 -12334,-6729665 -12335,-6729659 -12339,-6729640 -12411,-6729638 -12551,-6729631 -12669,-6729626 -12669,-6729618 -12670,-6729618 -12695,-6729618 -12722,-6729619 -12739,-6729626 -12740,-6729627 -12760,-6729632 -12838,-6729631 -12861,-6729631 -12900,-6729631 -12899,-6729609 -12905,-6729610 -13053,-6729633 -13079,-6729591 -13148,-6729630 -13214,-6729672 -13266,-6729620 -13302,-6729631 -13506,-6729661 -13532,-6729665 -13557,-6729667 -13581,-6729667 -13626,-6729676 -13705,-6729692 -13731,-6729686 -13744,-6729683 -13749,-6729681 -13803,-6729750 -13800,-6729753 -13794,-6729758 -13810,-6729771 -13818,-6729780 -13821,-6729783 -13814,-6729785 -13913,-6729888 -13900,-6729903 -13951,-6729917 -14022,-6729849 -14011,-6729839 -14060,-6729788 -14065,-6729792 -14075,-6729801 -14179,-6729802 -14235,-6729813 -14323,-6729831 -14439,-6729877 -14569,-6729948 -14615,-6729973 -14671,-6729986 -14834,-6730053 -15021,-6730126 -15056,-6730131 -15081,-6730108 -15132,-6730073 -15158,-6730058 -15329,-6729989 -15446,-6729948 -15540,-6730061 -15547,-6730070 -15612,-6730157 -15675,-6730245 -15739,-6730334 -15815,-6730457 -15902,-6730597 -15910,-6730610 -16008,-6730771 -16086,-6730896 -16042,-6730918 -16020,-6730926 -16000,-6730933 -15934,-6730963 -15893,-6730982 -15885,-6730986 -15883,-6730982 -15810,-6731017 -15811,-6731020 -15813,-6731025 -15807,-6731030 -15817,-6731055 -15810,-6731060 -15800,-6731066 -15793,-6731098 -15785,-6731136 -15775,-6731161 -15766,-6731177 -15755,-6731199 -15742,-6731214 -15735,-6731224 -15732,-6731233 -15728,-6731239 -15725,-6731266 -15701,-6731285 -15694,-6731290 -15692,-6731292 -15683,-6731291 -15668,-6731289 -15653,-6731299 -15573,-6731408 -15554,-6731435 -15563,-6731443 -15524,-6731477 -15511,-6731494 -15418,-6731618 -15396,-6731642 -15311,-6731746 -15273,-6731794 -15212,-6731861 -15155,-6731926 -15076,-6732009 -15077,-6732018 -15088,-6732135 -15074,-6732125 -15064,-6732118 -15033,-6732125 -15021,-6732171 -15010,-6732203 -14996,-6732255 -14975,-6732318 -14968,-6732337 -14945,-6732396 -14938,-6732415 -14936,-6732421 -14939,-6732442 -14947,-6732456 -14954,-6732474 -14952,-6732494 -14950,-6732506 -14940,-6732518 -14934,-6732520 -14927,-6732522 -14927,-6732524 -14921,-6732566 -14920,-6732587 -14889,-6732697 -14867,-6732778 -14864,-6732789 -14863,-6732835 -14863,-6732836 -14863,-6732838 -14863,-6732839 -14863,-6732841 -14863,-6732842 -14863,-6732843 -14862,-6732845 -14862,-6732845 -14862,-6732847 -14861,-6732848 -14861,-6732849 -14860,-6732850 -14859,-6732852 -14859,-6732853 -14858,-6732854 -14856,-6732856 -14856,-6732857 -14854,-6732859 -14853,-6732862 -14851,-6732864 -14849,-6732867 -14847,-6732869 -14843,-6732873 -14840,-6732878 -14836,-6732882 -14831,-6732886 -14827,-6732890 -14823,-6732894 -14818,-6732898 -14814,-6732902 -14810,-6732905 -14786,-6732931 -14769,-6732952 -14754,-6732979 -14737,-6733013 -14724,-6733039 -14714,-6733068 -14702,-6733095 -14687,-6733115 -14664,-6733150 -14636,-6733197 -14613,-6733233 -14623,-6733238 -14592,-6733281 -14594,-6733285 -14598,-6733299 -14600,-6733310 -14595,-6733323 -14563,-6733378 -14530,-6733374 -14520,-6733388 -14541,-6733403 -14596,-6733439 -14556,-6733525 -14547,-6733573 -14518,-6733630 -14491,-6733682 -14446,-6733671 -14419,-6733762 -14392,-6733826 -14373,-6733906 -14377,-6733906 -14428,-6733920 -14507,-6733933 -14561,-6733946 -14619,-6733961 -14696,-6734002 -14700,-6734005 -14755,-6734035 -14800,-6734061 -14835,-6734085 -14873,-6734125 -14899,-6734154 -14879,-6734175 -14896,-6734198 -14905,-6734211 -14914,-6734224 -14944,-6734193 -14962,-6734212 -14942,-6734231 -14973,-6734261 -14943,-6734292 -14946,-6734299 -14951,-6734311 -14973,-6734341 -14996,-6734364 -15056,-6734412 -15080,-6734430 -15159,-6734480 -15324,-6734599 -15373,-6734638 -15396,-6734657 -15407,-6734668 -15569,-6734813 -15630,-6734877 -15673,-6734930 -15702,-6734968 -15735,-6735016 -15778,-6735076 -15810,-6735121 -15814,-6735131 -15839,-6735170 -15820,-6735179 -15872,-6735255 -15921,-6735328 -16020,-6735472 -16149,-6735768 -16463,-6735666 -16489,-6735724 -16528,-6735822 -16536,-6735850 -16570,-6735986 -16589,-6736042 -16603,-6736124 -16603,-6736135 -16598,-6736161 -16597,-6736174 -16597,-6736199 -16601,-6736232 -16603,-6736237 -16610,-6736244 -16732,-6736236 -16785,-6736235 -16819,-6736237 -16843,-6736240 -16890,-6736255 -16873,-6736307 -16936,-6736337 -16840,-6736517 -16849,-6736525 -16836,-6736546 -16813,-6736585 -16849,-6736604 -16960,-6736663 -16948,-6736725 -16887,-6736759 -16686,-6736870 -16808,-6737100 -16897,-6737070 -16947,-6737059 -16954,-6737096 -16956,-6737115 -16957,-6737150 -16962,-6737219 -16973,-6737323 -16974,-6737331 -16980,-6737350 -17016,-6737417 -17039,-6737455 -17068,-6737527 -17078,-6737557 -17084,-6737570 -17117,-6737561 -17145,-6737546 -17166,-6737621 -17138,-6737665 -17118,-6737671 -17083,-6737679 -17089,-6737702 -17085,-6737738 -17096,-6737809 -17106,-6737887 -17116,-6737924 -17127,-6737921 -17162,-6737957 -17185,-6737976 -17220,-6737989 -17219,-6738018 -17227,-6738079 -17241,-6738084 -17313,-6738110 -17555,-6738190 -17566,-6738197 -17569,-6738200 -17583,-6738221 -17619,-6738209 -17865,-6738298 -17916,-6738340 -17964,-6738381 -18117,-6738516 -18174,-6738538 -18198,-6738552 -18369,-6738562 -19197,-6738860 -19539,-6738983 -19645,-6739018 -19927,-6739119 -20090,-6739178 -20290,-6739244 -20327,-6739258 -20443,-6739309 -20470,-6739316 -20690,-6739390 -20670,-6739447 -20617,-6739574 -20480,-6739912 -20390,-6740122 -20275,-6740410 -20269,-6740425 -20209,-6740486 -20029,-6740671 -19970,-6740735 -19848,-6740862 -19797,-6740919 -19671,-6741052 -19704,-6741156 -19635,-6741150 -19529,-6741141 -19554,-6741243 -19517,-6741294 -19476,-6741252 -19199,-6741230 -19099,-6741397 -18959,-6741639 -18727,-6742046 -18682,-6742129 -18594,-6742275 -18417,-6742578 -18404,-6742591 -18386,-6742615 -18330,-6742709 -18212,-6742902 -18208,-6743260 -18204,-6743281 -18198,-6743383 -18197,-6743481 -18201,-6743534 -18206,-6743592 -18207,-6743673 -18200,-6743815 -18199,-6743927 -18163,-6743925 -18110,-6743924 -18042,-6743907 -17976,-6743885 -17924,-6743864 -17866,-6743852 -17810,-6743838 -17772,-6743832 -17725,-6743817 -17587,-6743770 -17553,-6743755 -17549,-6743753 -17544,-6743751 -17540,-6743748 -17535,-6743745 -17531,-6743743 -17527,-6743740 -17523,-6743737 -17519,-6743734 -17515,-6743731 -17511,-6743727 -17508,-6743724 -17505,-6743721 -17502,-6743718 -17500,-6743715 -17498,-6743711 -17495,-6743708 -17493,-6743706 -17491,-6743703 -17488,-6743701 -17486,-6743699 -17483,-6743697 -17483,-6743696 -17463,-6743685 -17388,-6743645 -17320,-6743616 -17241,-6743584 -17217,-6743575 -17139,-6743549 -17060,-6743522 -16991,-6743505 -16919,-6743492 -16858,-6743481 -16807,-6743474 -16749,-6743466 -16677,-6743464 -16627,-6743461 -16558,-6743478 -16463,-6743507 -16401,-6743523 -16322,-6743535 -16265,-6743549 -16207,-6743572 -16180,-6743590 -16143,-6743596 -16103,-6743608 -16036,-6743639 -15948,-6743688 -15850,-6743743 -15760,-6743791 -15693,-6743823 -15620,-6743857 -15538,-6743893 -15463,-6743921 -15406,-6743944 -15323,-6743972 -15240,-6743995 -15156,-6744015 -15070,-6744037 -14989,-6744052 -14940,-6744030 -14894,-6744034 -14886,-6744037 -14882,-6744045 -14881,-6744057 -14833,-6744065 -14779,-6744071 -14712,-6744071 -14609,-6744068 -14499,-6744071 -14408,-6744067 -14328,-6744064 -14236,-6744061 -14158,-6744052 -14095,-6744047 -14027,-6744041 -13923,-6744030 -13818,-6744023 -13696,-6744011 -13650,-6744007 -13640,-6744006 -13631,-6744006 -13621,-6744005 -13620,-6744005 -13611,-6744005 -13601,-6744005 -13591,-6744005 -13584,-6744005 -13575,-6744006 -13567,-6744007 -13559,-6744008 -13551,-6744010 -13543,-6744011 -13534,-6744013 -13524,-6744015 -13515,-6744017 -13506,-6744020 -13497,-6744023 -13490,-6744025 -13456,-6744033 -13438,-6744037 -13380,-6744056 -13293,-6744074 -13239,-6744083 -13182,-6744093 -13163,-6744075 -13132,-6744083 -13134,-6744106 -13112,-6744126 -13007,-6744165 -12932,-6744206 -12878,-6744238 -12821,-6744271 -12776,-6744294 -12705,-6744321 -12664,-6744343 -12621,-6744373 -12567,-6744414 -12535,-6744428 -12493,-6744448 -12383,-6744483 -12304,-6744505 -12202,-6744534 -12217,-6744567 -12162,-6744579 -12039,-6744593 -11966,-6744600 -11880,-6744603 -11809,-6744603 -11775,-6744603 -11748,-6744603 -11671,-6744598 -11595,-6744589 -11556,-6744585 -11503,-6744569 -11445,-6744548 -11388,-6744532 -11319,-6744511 -11242,-6744497 -11162,-6744479 -11080,-6744466 -11059,-6744449 -10989,-6744437 -10957,-6744432 -10929,-6744417 -10823,-6744376 -10782,-6744365" stroke="#006747" stroke-width="35" /></ns0:svg>    <rect x="20" y="50"  width="250" height="25"  rx="0"  fill="#006747" fill-opacity="0.8" />    <text x="145" y="70" text-anchor="middle" font-family="Frutiger" font-weight="bold" font-size="30" fill="white">Enfield</text>    <rect x="35" y="195" width="220" height="160" rx="15" fill="#78BE20"/>    <g font-family="Frutiger" font-size="15" fill="#231F20">        <g> <text x="45" y="218">Self-harm</text> <text x="245" y="218" text-anchor="end">3</text> </g>        <g> <text x="45" y="243">SEN</text> <text x="245" y="243" text-anchor="end">54</text> </g>        <g> <text x="45" y="268">Difficulties</text> <text x="245" y="268" text-anchor="end">70</text> </g>        <g> <text x="45" y="293">Child Carer</text> <text x="245" y="293" text-anchor="end">13</text> </g>        <g> <text x="45" y="318">Drinkers</text> <text x="245" y="318" text-anchor="end">7</text> </g>        <g> <text x="45" y="343">Safeguarding £</text> <text x="245" y="343" text-anchor="end">9</text> </g>    </g></svg>