<?xml version="1.0" standalone="no"?>
<!DOCTYPE svg PUBLIC "-//W3C//DTD SVG 1.1//EN"
"http://www.w3.org/Graphics/SVG/1.1/DTD/svg11.dtd">
<svg height="1800" version="1.1" width="1800" xmlns="http://www.w3.org/2000/svg"><defs><style type="text/css">@font-face {font-family: 'Frutiger';font-style: normal;font-weight: normal;src: local('Frutiger'), url('../fonts/Frutiger.woff') format('woff');}@font-face {font-family: 'Frutiger Bold';font-style: normal;font-weight: normal;src: local('Frutiger Bold'), url('../fonts/Frutiger_bold.woff') format('woff');}        </style>    </defs>    <rect x="20" y="20"  width="250" height="350" rx="15" fill="#009639" />    <rect x="35" y="35"  width="220" height="145" rx="15" fill="#E8EDEE" /><ns0:svg xmlns:ns0="http://www.w3.org/2000/svg" height="115" version="1.1" viewBox="-44978 -6735388 15242 15675" width="220" x="35" y="50"><ns0:polygon fill="#006747" points=" -34001,-6734103 -33955,-6733997 -33892,-6733863 -33833,-6733762 -33675,-6733576 -33636,-6733523 -33597,-6733471 -33524,-6733368 -33453,-6733252 -33410,-6733176 -33310,-6733035 -33245,-6732956 -33173,-6732873 -33138,-6732830 -33089,-6732764 -32937,-6732548 -32857,-6732442 -32823,-6732388 -32765,-6732297 -32710,-6732209 -32630,-6732101 -32577,-6732021 -32466,-6731866 -32235,-6731556 -32088,-6731354 -32058,-6731307 -32023,-6731222 -32009,-6731195 -31929,-6731098 -31918,-6731083 -31835,-6730970 -31757,-6730883 -31657,-6730794 -31632,-6730770 -31607,-6730746 -31546,-6730683 -31411,-6730515 -31331,-6730397 -31183,-6730171 -31096,-6730047 -31093,-6730042 -31027,-6729941 -30937,-6729810 -30867,-6729713 -30848,-6729687 -30794,-6729636 -30771,-6729612 -30725,-6729557 -30672,-6729477 -30640,-6729431 -30602,-6729370 -30598,-6729363 -30477,-6729145 -30384,-6729022 -30081,-6728640 -30062,-6728617 -29912,-6728429 -29880,-6728385 -29788,-6728252 -29736,-6728187 -29830,-6728113 -29872,-6728081 -29906,-6728062 -29918,-6728049 -29922,-6728047 -29958,-6728019 -29994,-6727988 -30028,-6727955 -30082,-6727905 -30127,-6727866 -30149,-6727843 -30164,-6727832 -30166,-6727831 -30180,-6727819 -30188,-6727814 -30189,-6727814 -30191,-6727813 -30193,-6727813 -30195,-6727813 -30197,-6727812 -30199,-6727812 -30201,-6727812 -30202,-6727812 -30204,-6727812 -30206,-6727812 -30208,-6727812 -30210,-6727812 -30212,-6727812 -30214,-6727812 -30217,-6727813 -30219,-6727813 -30221,-6727814 -30223,-6727814 -30226,-6727815 -30228,-6727816 -30230,-6727817 -30232,-6727818 -30234,-6727819 -30235,-6727820 -30277,-6727831 -30286,-6727832 -30295,-6727834 -30304,-6727835 -30311,-6727835 -30320,-6727836 -30329,-6727837 -30338,-6727837 -30347,-6727837 -30356,-6727837 -30364,-6727836 -30369,-6727835 -30374,-6727834 -30378,-6727832 -30383,-6727831 -30387,-6727829 -30392,-6727827 -30396,-6727825 -30400,-6727823 -30404,-6727821 -30409,-6727819 -30413,-6727817 -30422,-6727812 -30426,-6727810 -30430,-6727808 -30442,-6727802 -30454,-6727795 -30466,-6727789 -30478,-6727781 -30490,-6727774 -30502,-6727766 -30513,-6727758 -30514,-6727757 -30679,-6727661 -30830,-6727564 -30778,-6727496 -31094,-6727445 -31096,-6727445 -31320,-6727409 -31363,-6727397 -31462,-6727375 -31537,-6727359 -31619,-6727333 -31677,-6727308 -31717,-6727293 -31767,-6727274 -31780,-6727267 -31791,-6727261 -31808,-6727193 -31812,-6727180 -31827,-6727190 -31849,-6727204 -31866,-6727215 -31914,-6727177 -31919,-6727173 -31959,-6727142 -32022,-6727102 -32057,-6727093 -32094,-6727078 -32182,-6727049 -32208,-6727039 -32249,-6727021 -32291,-6726999 -32320,-6726974 -32326,-6726968 -32268,-6726910 -32241,-6726890 -32222,-6726877 -32201,-6726863 -32178,-6726850 -32138,-6726830 -32106,-6726817 -32008,-6726787 -31981,-6726776 -31945,-6726760 -31923,-6726748 -31902,-6726735 -31878,-6726717 -31850,-6726696 -31824,-6726675 -31798,-6726652 -31774,-6726629 -31755,-6726609 -31741,-6726592 -31713,-6726555 -31684,-6726510 -31672,-6726487 -31660,-6726463 -31645,-6726432 -31611,-6726372 -31595,-6726304 -31541,-6726129 -31527,-6726033 -31514,-6725972 -31509,-6725935 -31506,-6725869 -31486,-6725743 -31451,-6725664 -31437,-6725635 -31430,-6725616 -31426,-6725603 -31423,-6725588 -31419,-6725565 -31425,-6725473 -31427,-6725448 -31437,-6725451 -31439,-6725452 -31440,-6725450 -31441,-6725442 -31619,-6725486 -32170,-6725601 -32514,-6725670 -32760,-6725717 -32915,-6725737 -33151,-6725752 -33189,-6725751 -33207,-6725753 -33238,-6725758 -33313,-6725778 -33400,-6725813 -33417,-6725819 -33448,-6725828 -33481,-6725834 -33525,-6725838 -33622,-6725841 -33631,-6725842 -33684,-6725841 -33734,-6725838 -33791,-6725830 -33848,-6725820 -33932,-6725801 -33985,-6725787 -33992,-6725784 -34036,-6725769 -34048,-6725763 -34071,-6725752 -34113,-6725729 -34154,-6725710 -34324,-6725612 -34571,-6725474 -34702,-6725395 -34848,-6725301 -34882,-6725276 -34908,-6725256 -34984,-6725194 -35295,-6724914 -35485,-6724732 -35537,-6724691 -35597,-6724646 -35643,-6724615 -35698,-6724583 -35735,-6724563 -36000,-6724429 -36207,-6724357 -36362,-6724317 -36366,-6724300 -36361,-6724265 -36356,-6724233 -36352,-6724221 -36342,-6724183 -36321,-6724119 -36277,-6723990 -36237,-6723877 -36224,-6723828 -36218,-6723797 -36175,-6723479 -36173,-6723445 -36167,-6723399 -36163,-6723375 -36157,-6723351 -36147,-6723314 -36077,-6723162 -36017,-6723024 -35946,-6722876 -35900,-6722765 -35859,-6722684 -35943,-6722625 -36042,-6722550 -36118,-6722505 -36195,-6722467 -36184,-6722434 -36265,-6722398 -36307,-6722376 -36370,-6722370 -36471,-6722351 -36454,-6722309 -36591,-6722259 -36653,-6722236 -36704,-6722224 -36697,-6722147 -36693,-6722068 -36629,-6722028 -36584,-6722019 -36576,-6721841 -36570,-6721694 -36547,-6721542 -36574,-6721494 -36546,-6721445 -36538,-6721405 -36593,-6721396 -36626,-6721397 -36643,-6721396 -36681,-6721389 -36698,-6721384 -36709,-6721378 -36719,-6721371 -36729,-6721364 -36880,-6721237 -36891,-6721228 -36868,-6721217 -36955,-6721123 -36939,-6721102 -37026,-6720971 -37113,-6720843 -37169,-6720754 -37180,-6720663 -37177,-6720596 -37175,-6720545 -37279,-6720567 -37350,-6720362 -37354,-6720343 -37356,-6720334 -37382,-6720345 -37390,-6720354 -37433,-6720363 -37437,-6720364 -37444,-6720368 -37531,-6720415 -37578,-6720432 -37607,-6720443 -37659,-6720458 -37687,-6720464 -37719,-6720471 -37740,-6720474 -37959,-6720492 -38006,-6720494 -38086,-6720503 -38129,-6720502 -38129,-6720510 -38178,-6720521 -38289,-6720560 -38361,-6720602 -38444,-6720660 -38444,-6720666 -38457,-6720675 -38467,-6720676 -38478,-6720685 -38514,-6720714 -38645,-6720831 -38653,-6720859 -38687,-6720899 -38830,-6720855 -39038,-6720797 -39136,-6720774 -39367,-6720723 -39562,-6720673 -39756,-6720618 -39993,-6720540 -40095,-6720525 -40108,-6720514 -40235,-6720489 -40322,-6720471 -40342,-6720466 -40331,-6720417 -40317,-6720371 -40323,-6720351 -40328,-6720332 -40343,-6720327 -40358,-6720321 -40354,-6720310 -40350,-6720299 -40362,-6720296 -40373,-6720293 -40366,-6720275 -40355,-6720244 -40403,-6720226 -40424,-6720219 -40463,-6720207 -40517,-6720184 -40559,-6720169 -40578,-6720163 -40592,-6720158 -40595,-6720158 -40598,-6720157 -40627,-6720151 -40653,-6720151 -40659,-6720151 -40745,-6720131 -40757,-6720129 -40806,-6720117 -40794,-6720086 -40822,-6720073 -40851,-6720059 -40886,-6720058 -40914,-6720055 -40917,-6720055 -40931,-6720053 -40954,-6720049 -41032,-6720026 -41060,-6720015 -41097,-6719999 -41124,-6719997 -41145,-6719992 -41168,-6719986 -41196,-6719976 -41200,-6719974 -41225,-6719961 -41255,-6719941 -41266,-6719928 -41298,-6719910 -41342,-6719891 -41346,-6719889 -41356,-6719886 -41373,-6719879 -41386,-6719875 -41400,-6719871 -41412,-6719870 -41420,-6719874 -41427,-6719877 -41460,-6719874 -41503,-6719830 -41560,-6719885 -41598,-6719848 -41620,-6719865 -41734,-6719790 -41838,-6719713 -41908,-6719798 -41915,-6719794 -41956,-6719857 -41997,-6719920 -42028,-6719987 -42040,-6720029 -42035,-6720031 -42036,-6720032 -42042,-6720057 -42043,-6720060 -42055,-6720058 -42060,-6720057 -42071,-6720092 -42075,-6720120 -42083,-6720148 -42101,-6720190 -42116,-6720222 -42146,-6720285 -42162,-6720324 -42174,-6720357 -42184,-6720399 -42191,-6720431 -42203,-6720472 -42216,-6720524 -42230,-6720563 -42254,-6720619 -42277,-6720677 -42312,-6720745 -42331,-6720796 -42322,-6720820 -42314,-6720838 -42302,-6720856 -42309,-6720874 -42311,-6720881 -42316,-6720896 -42345,-6720902 -42338,-6720974 -42328,-6721022 -42328,-6721058 -42333,-6721076 -42355,-6721127 -42363,-6721146 -42377,-6721177 -42406,-6721215 -42453,-6721299 -42495,-6721368 -42507,-6721388 -42521,-6721408 -42564,-6721474 -42538,-6721492 -42518,-6721505 -42528,-6721522 -42542,-6721544 -42571,-6721596 -42577,-6721622 -42578,-6721646 -42577,-6721667 -42566,-6721726 -42563,-6721754 -42563,-6721767 -42566,-6721799 -42576,-6721851 -42596,-6721938 -42618,-6722023 -42629,-6722066 -42686,-6722237 -42666,-6722253 -42747,-6722446 -42781,-6722525 -42805,-6722573 -42800,-6722592 -42814,-6722627 -42858,-6722720 -42931,-6722859 -42959,-6722919 -43018,-6723024 -42973,-6723078 -42934,-6723130 -42965,-6723195 -43040,-6723335 -43062,-6723385 -43099,-6723471 -43129,-6723531 -43198,-6723636 -43135,-6723693 -43164,-6723733 -43172,-6723751 -43176,-6723761 -43220,-6723962 -43235,-6724045 -43257,-6724135 -43303,-6724202 -43374,-6724344 -43433,-6724476 -43504,-6724627 -43548,-6724730 -43536,-6724735 -43553,-6724763 -43563,-6724779 -43587,-6724816 -43579,-6724843 -43528,-6724846 -43531,-6724908 -43539,-6725057 -43542,-6725085 -43527,-6725086 -43528,-6725099 -43537,-6725179 -43546,-6725272 -43562,-6725273 -43569,-6725339 -43582,-6725432 -43581,-6725512 -43583,-6725621 -43604,-6725787 -43605,-6725794 -43616,-6725831 -43622,-6725875 -43628,-6725920 -43638,-6726029 -43654,-6726059 -43694,-6726097 -43731,-6726126 -43754,-6726153 -43801,-6726221 -43821,-6726268 -43873,-6726368 -43910,-6726409 -43935,-6726403 -43929,-6726386 -43956,-6726375 -43986,-6726384 -44023,-6726365 -44028,-6726401 -44029,-6726426 -44029,-6726451 -44026,-6726476 -44024,-6726498 -44021,-6726562 -44023,-6726619 -44029,-6726668 -44035,-6726697 -44036,-6726708 -44045,-6726736 -44074,-6726830 -44089,-6726868 -44103,-6726915 -44112,-6726942 -44120,-6726974 -44126,-6727010 -44132,-6727063 -44135,-6727149 -44135,-6727186 -44134,-6727223 -44136,-6727240 -44143,-6727265 -44157,-6727293 -44183,-6727338 -44198,-6727366 -44205,-6727380 -44229,-6727417 -44252,-6727459 -44269,-6727496 -44273,-6727521 -44273,-6727535 -44270,-6727548 -44269,-6727558 -44267,-6727573 -44262,-6727587 -44313,-6727597 -44404,-6727616 -44502,-6727639 -44562,-6727659 -44532,-6727750 -44532,-6727751 -44532,-6727760 -44521,-6727802 -44556,-6727866 -44587,-6727919 -44632,-6727989 -44661,-6728048 -44668,-6728064 -44682,-6728101 -44702,-6728175 -44712,-6728236 -44727,-6728285 -44745,-6728345 -44765,-6728400 -44788,-6728468 -44808,-6728648 -44808,-6728703 -44797,-6728784 -44797,-6728814 -44802,-6728898 -44806,-6728989 -44807,-6729051 -44794,-6729115 -44789,-6729217 -44770,-6729243 -44740,-6729288 -44723,-6729307 -44743,-6729325 -44762,-6729355 -44789,-6729450 -44803,-6729534 -44805,-6729591 -44817,-6729621 -44841,-6729663 -44854,-6729692 -44873,-6729718 -44885,-6729751 -44893,-6729807 -44904,-6729871 -44907,-6729945 -44905,-6730031 -44922,-6730162 -44935,-6730234 -44957,-6730325 -44978,-6730484 -44971,-6730484 -44881,-6730484 -44833,-6730482 -44784,-6730488 -44712,-6730482 -44685,-6730481 -44675,-6730482 -44656,-6730487 -44613,-6730507 -44606,-6730512 -44600,-6730514 -44591,-6730516 -44586,-6730516 -44576,-6730514 -44522,-6730512 -44489,-6730523 -44468,-6730524 -44356,-6730570 -44292,-6730607 -44225,-6730649 -44190,-6730667 -44135,-6730689 -44053,-6730715 -43948,-6730764 -43882,-6730789 -43785,-6730814 -43712,-6730842 -43592,-6730859 -43502,-6730869 -43400,-6730877 -43362,-6730882 -43325,-6730888 -43299,-6730904 -43240,-6730903 -43174,-6730899 -43113,-6730907 -43092,-6730911 -43067,-6730917 -43043,-6730923 -43011,-6730934 -42955,-6730956 -42883,-6730984 -42810,-6731019 -42739,-6731052 -42691,-6731079 -42658,-6731106 -42533,-6731239 -42526,-6731243 -42523,-6731245 -42496,-6731252 -42468,-6731254 -42407,-6731254 -42351,-6731251 -42297,-6731265 -42199,-6731295 -42135,-6731307 -42107,-6731313 -42030,-6731312 -41963,-6731337 -41916,-6731357 -41858,-6731377 -41838,-6731381 -41787,-6731401 -41733,-6731428 -41641,-6731484 -41548,-6731519 -41504,-6731531 -41463,-6731547 -41367,-6731590 -41330,-6731612 -41237,-6731672 -41174,-6731719 -41107,-6731762 -41063,-6731781 -40984,-6731823 -40883,-6731842 -40845,-6731847 -40827,-6731854 -40810,-6731862 -40769,-6731888 -40762,-6731893 -40691,-6731945 -40649,-6731983 -40600,-6732035 -40457,-6732161 -40446,-6732177 -40366,-6732334 -40363,-6732340 -40359,-6732345 -40345,-6732336 -40339,-6732343 -40274,-6732374 -40244,-6732428 -40221,-6732472 -40194,-6732507 -40175,-6732534 -40154,-6732556 -40095,-6732612 -40084,-6732622 -40049,-6732645 -40039,-6732649 -40014,-6732657 -39963,-6732669 -39911,-6732677 -39870,-6732680 -39830,-6732681 -39799,-6732685 -39736,-6732707 -39690,-6732714 -39658,-6732724 -39630,-6732739 -39601,-6732750 -39548,-6732775 -39541,-6732777 -39524,-6732780 -39515,-6732780 -39497,-6732778 -39451,-6732780 -39420,-6732785 -39297,-6732827 -39243,-6732837 -39216,-6732844 -39137,-6732868 -39049,-6732886 -39015,-6732887 -39008,-6732888 -39001,-6732891 -38948,-6732917 -38910,-6732933 -38875,-6732945 -38858,-6732953 -38842,-6732963 -38767,-6733014 -38686,-6733068 -38622,-6733105 -38561,-6733141 -38524,-6733157 -38476,-6733175 -38417,-6733199 -38374,-6733230 -38328,-6733259 -38309,-6733273 -38051,-6733469 -37896,-6733583 -37836,-6733629 -37832,-6733631 -37827,-6733644 -37805,-6733601 -37774,-6733560 -37735,-6733514 -37718,-6733515 -37711,-6733509 -37716,-6733500 -37717,-6733487 -37686,-6733446 -37685,-6733443 -37657,-6733404 -37565,-6733523 -37564,-6733533 -37557,-6733537 -37536,-6733564 -37492,-6733618 -37450,-6733672 -37417,-6733721 -37367,-6733776 -37330,-6733816 -37282,-6733878 -37251,-6733912 -37241,-6733923 -37232,-6733933 -37196,-6733973 -37147,-6734029 -37132,-6734045 -37098,-6734084 -37079,-6734106 -37070,-6734118 -37076,-6734135 -37076,-6734140 -37076,-6734152 -37074,-6734167 -37066,-6734187 -37052,-6734181 -37022,-6734170 -37008,-6734185 -36928,-6734271 -36827,-6734372 -36733,-6734456 -36660,-6734507 -36604,-6734545 -36548,-6734582 -36438,-6734652 -36406,-6734654 -36376,-6734684 -36350,-6734704 -36281,-6734738 -36249,-6734751 -36133,-6734788 -35973,-6734842 -35876,-6734868 -35785,-6734894 -35683,-6734930 -35599,-6734973 -35558,-6735001 -35521,-6735037 -35480,-6735110 -35470,-6735129 -35455,-6735166 -35448,-6735204 -35444,-6735216 -35425,-6735244 -35406,-6735280 -35374,-6735308 -35343,-6735337 -35300,-6735368 -35278,-6735377 -35251,-6735388 -35165,-6735325 -35053,-6735253 -34981,-6735221 -34948,-6735203 -34882,-6735169 -34863,-6735159 -34808,-6735127 -34767,-6735106 -34697,-6735080 -34650,-6735065 -34625,-6735056 -34599,-6735046 -34408,-6734961 -34387,-6734949 -34309,-6734914 -34249,-6734888 -34171,-6734853 -34101,-6734821 -33994,-6734774 -33966,-6734754 -33922,-6734707 -33916,-6734701 -33906,-6734686 -33899,-6734674 -33897,-6734664 -33898,-6734656 -33903,-6734643 -33892,-6734638 -33955,-6734468 -34013,-6734288 -34014,-6734276 -34016,-6734238 -34001,-6734103" stroke="#006747" stroke-width="30" /></ns0:svg>    <rect x="20" y="50"  width="250" height="25"  rx="0"  fill="#006747" fill-opacity="0.8" />    <text x="145" y="70" text-anchor="middle" font-family="Frutiger" font-weight="bold" font-size="30" fill="white">Harrow</text>    <rect x="35" y="195" width="220" height="160" rx="15" fill="#78BE20"/>    <g font-family="Frutiger" font-size="15" fill="#231F20">        <g> <text x="45" y="218">Self-harm</text> <text x="245" y="218" text-anchor="end">9</text> </g>        <g> <text x="45" y="243">SEN</text> <text x="245" y="243" text-anchor="end">20</text> </g>        <g> <text x="45" y="268">Difficulties</text> <text x="245" y="268" text-anchor="end">67</text> </g>        <g> <text x="45" y="293">Child Carer</text> <text x="245" y="293" text-anchor="end">25</text> </g>        <g> <text x="45" y="318">Drinkers</text> <text x="245" y="318" text-anchor="end">10</text> </g>        <g> <text x="45" y="343">Safeguarding £</text> <text x="245" y="343" text-anchor="end">25</text> </g>    </g></svg>