<?xml version="1.0" standalone="no"?>
<!DOCTYPE svg PUBLIC "-//W3C//DTD SVG 1.1//EN"
"http://www.w3.org/Graphics/SVG/1.1/DTD/svg11.dtd">
<svg height="1800" version="1.1" width="1800" xmlns="http://www.w3.org/2000/svg"><defs><style type="text/css">@font-face {font-family: 'Frutiger';font-style: normal;font-weight: normal;src: local('Frutiger'), url('../fonts/Frutiger.woff') format('woff');}@font-face {font-family: 'Frutiger Bold';font-style: normal;font-weight: normal;src: local('Frutiger Bold'), url('../fonts/Frutiger_bold.woff') format('woff');}        </style>    </defs>    <rect x="20" y="20"  width="250" height="350" rx="15" fill="#009639" />    <rect x="35" y="35"  width="220" height="145" rx="15" fill="#E8EDEE" /><ns0:svg xmlns:ns0="http://www.w3.org/2000/svg" height="115" version="1.1" viewBox="-43735 -6708376 19055 17549" width="220" x="35" y="50"><ns0:polygon fill="#006747" points=" -26265,-6708374 -26171,-6708368 -26129,-6708368 -26109,-6708365 -26105,-6708364 -26086,-6708362 -26035,-6708353 -26005,-6708344 -25976,-6708335 -25956,-6708324 -25904,-6708297 -25821,-6708249 -25790,-6708224 -25781,-6708217 -25713,-6708156 -25671,-6708125 -25632,-6708093 -25559,-6708009 -25457,-6707888 -25428,-6707851 -25387,-6707797 -25363,-6707761 -25338,-6707722 -25314,-6707681 -25299,-6707652 -25275,-6707598 -25263,-6707567 -25245,-6707513 -25211,-6707372 -25187,-6707241 -25187,-6707239 -25172,-6707163 -25142,-6707068 -25125,-6707024 -25123,-6707021 -25115,-6706959 -25132,-6706915 -25132,-6706813 -25126,-6706755 -25113,-6706672 -25112,-6706570 -25119,-6706456 -25119,-6706335 -25114,-6706206 -25104,-6706105 -25097,-6706064 -25087,-6706010 -25083,-6705994 -25071,-6705953 -25068,-6705942 -25052,-6705899 -24999,-6705781 -24961,-6705705 -24943,-6705672 -24925,-6705641 -24895,-6705593 -24838,-6705506 -24796,-6705442 -24680,-6705277 -24764,-6705218 -24821,-6705167 -24848,-6705149 -24868,-6705128 -24880,-6705112 -24881,-6705107 -24881,-6705104 -24881,-6705102 -24870,-6705089 -24864,-6705079 -24859,-6705051 -24858,-6705038 -24859,-6705025 -24860,-6705017 -24863,-6705010 -24868,-6705004 -24873,-6704999 -24878,-6704996 -24884,-6704993 -24892,-6704992 -24902,-6704992 -24970,-6705009 -25108,-6705051 -25126,-6705068 -25193,-6705089 -25242,-6705103 -25274,-6705114 -25356,-6705161 -25392,-6705191 -25417,-6705199 -25422,-6705201 -25437,-6705208 -25463,-6705236 -25498,-6705236 -25514,-6705235 -25521,-6705235 -25540,-6705238 -25554,-6705244 -25566,-6705252 -25599,-6705280 -25643,-6705310 -25676,-6705342 -25683,-6705348 -25690,-6705352 -25708,-6705360 -25724,-6705362 -25767,-6705362 -25792,-6705356 -25835,-6705355 -25892,-6705323 -25900,-6705312 -25904,-6705305 -25905,-6705302 -25906,-6705287 -25929,-6705250 -25933,-6705240 -25935,-6705231 -25937,-6705220 -25929,-6705156 -25928,-6705155 -25923,-6705080 -25922,-6704994 -25929,-6704919 -25931,-6704869 -25936,-6704801 -25946,-6704710 -25960,-6704645 -25978,-6704570 -25984,-6704524 -25981,-6704471 -25978,-6704447 -25971,-6704421 -25915,-6704254 -25965,-6704206 -25981,-6704189 -25997,-6704165 -26007,-6704148 -26006,-6704146 -26007,-6704089 -25999,-6704030 -25998,-6704020 -25988,-6703950 -25980,-6703864 -25972,-6703832 -25969,-6703782 -26108,-6703830 -26145,-6703840 -26183,-6703849 -26221,-6703857 -26310,-6703873 -26881,-6703971 -27049,-6703994 -27156,-6704003 -27276,-6704005 -27619,-6703973 -27676,-6703970 -27721,-6703971 -27765,-6703975 -27945,-6703999 -28030,-6704003 -28151,-6704001 -28222,-6703943 -28264,-6703900 -28443,-6703688 -28497,-6703612 -28562,-6703495 -28616,-6703366 -28664,-6703253 -28666,-6703249 -28707,-6703155 -28720,-6703123 -28722,-6703117 -28585,-6703044 -28585,-6703042 -28587,-6703029 -28591,-6703021 -28604,-6702998 -28611,-6702979 -28623,-6702949 -28623,-6702919 -28633,-6702884 -28641,-6702855 -28684,-6702772 -28734,-6702655 -28755,-6702592 -28776,-6702521 -28776,-6702520 -28799,-6702440 -28824,-6702353 -28831,-6702290 -28838,-6702223 -28841,-6702163 -28382,-6701801 -28099,-6701580 -27747,-6701304 -27529,-6701136 -27525,-6701126 -27520,-6701119 -27501,-6701088 -27458,-6701017 -27383,-6700899 -27329,-6700813 -27275,-6700729 -27214,-6700632 -27186,-6700582 -27051,-6700339 -26999,-6700242 -26941,-6700141 -26895,-6700056 -26898,-6700049 -26932,-6699986 -26987,-6699893 -27017,-6699839 -27070,-6699803 -27134,-6699761 -27209,-6699712 -27273,-6699670 -27375,-6699602 -27597,-6699458 -27722,-6699378 -27955,-6699225 -28054,-6699161 -28191,-6699072 -28282,-6699012 -28328,-6698982 -28387,-6698944 -28399,-6698934 -28413,-6698924 -28459,-6698892 -28515,-6698894 -28518,-6698899 -28535,-6698886 -28532,-6698882 -28546,-6698872 -28526,-6698849 -28533,-6698844 -28540,-6698839 -28585,-6698809 -28623,-6698782 -28730,-6698710 -28805,-6698659 -28942,-6698571 -28987,-6698531 -29043,-6698498 -29147,-6698429 -29186,-6698408 -29249,-6698361 -29273,-6698346 -29414,-6698256 -29452,-6698231 -29530,-6698168 -29587,-6698125 -29637,-6698085 -29688,-6698031 -29757,-6697965 -29800,-6697934 -29833,-6697904 -29876,-6697881 -29906,-6697852 -29936,-6697827 -29985,-6697781 -30088,-6697693 -30124,-6697661 -30160,-6697629 -30177,-6697605 -30186,-6697594 -30207,-6697569 -30294,-6697453 -30387,-6697331 -30448,-6697252 -30519,-6697157 -30653,-6696974 -30703,-6696920 -30770,-6696833 -30811,-6696775 -30813,-6696776 -31218,-6696257 -31466,-6696149 -31473,-6696146 -31718,-6696035 -31794,-6695999 -31858,-6695972 -31903,-6695956 -31995,-6696287 -32214,-6697042 -32225,-6697080 -32232,-6697105 -32268,-6697232 -32278,-6697270 -32285,-6697297 -32351,-6697530 -32357,-6697530 -32610,-6697521 -32616,-6697521 -32602,-6697461 -32647,-6697453 -32651,-6697452 -32657,-6697207 -32658,-6697193 -32658,-6697138 -32659,-6697088 -32662,-6697088 -32813,-6697079 -32812,-6697114 -32811,-6697138 -32806,-6697176 -32830,-6697178 -32883,-6697182 -32885,-6697182 -32877,-6697234 -32888,-6697290 -32928,-6697323 -32942,-6697311 -32943,-6697309 -32964,-6697328 -32974,-6697336 -33020,-6697374 -33077,-6697417 -33094,-6697438 -33114,-6697454 -33131,-6697476 -33137,-6697477 -33143,-6697484 -33178,-6697523 -33206,-6697557 -33203,-6697560 -33194,-6697568 -33269,-6697639 -33403,-6697781 -33438,-6697820 -33465,-6697849 -33493,-6697877 -33524,-6697911 -33573,-6697966 -33623,-6697916 -33597,-6697873 -33563,-6697807 -33589,-6697782 -33591,-6697780 -33635,-6697829 -33864,-6697899 -34046,-6697951 -34054,-6697954 -34075,-6697931 -34088,-6697922 -34090,-6697803 -34107,-6697804 -34108,-6697804 -34109,-6697737 -34167,-6697738 -34167,-6697743 -34167,-6697755 -34201,-6697756 -34205,-6697754 -34209,-6697752 -34225,-6697764 -34255,-6697785 -34296,-6697815 -34347,-6697851 -34342,-6697855 -34293,-6697903 -34295,-6697905 -34437,-6698038 -34466,-6698068 -34482,-6698093 -34504,-6698098 -34519,-6698100 -34521,-6698099 -34553,-6698071 -34582,-6698105 -34608,-6698068 -34731,-6697914 -34756,-6697874 -34820,-6697772 -34924,-6697567 -34948,-6697506 -34977,-6697450 -35004,-6697400 -34887,-6697322 -34861,-6697302 -34828,-6697278 -34770,-6697238 -34710,-6697194 -34629,-6697128 -34549,-6697062 -34508,-6697021 -34465,-6696987 -34424,-6696944 -34348,-6696846 -34283,-6696752 -34258,-6696701 -34227,-6696644 -34169,-6696531 -34160,-6696512 -34143,-6696465 -34121,-6696408 -34101,-6696350 -34092,-6696321 -34085,-6696293 -34072,-6696240 -34065,-6696190 -34064,-6696146 -34074,-6696120 -34106,-6696042 -34121,-6695986 -34127,-6695956 -34132,-6695926 -34138,-6695863 -34139,-6695812 -34138,-6695758 -34140,-6695702 -34158,-6695638 -34188,-6695545 -34198,-6695517 -34220,-6695464 -34228,-6695442 -34235,-6695419 -34241,-6695395 -34247,-6695370 -34249,-6695353 -34259,-6695308 -34318,-6695077 -34325,-6695036 -34328,-6694998 -34334,-6694967 -34336,-6694936 -34336,-6694905 -34339,-6694845 -34340,-6694816 -34340,-6694787 -34339,-6694768 -34333,-6694694 -34333,-6694642 -34335,-6694590 -34340,-6694551 -34363,-6694428 -34377,-6694327 -34404,-6694050 -34405,-6694027 -34405,-6694016 -34402,-6693808 -34395,-6693550 -34396,-6693518 -34395,-6693472 -34397,-6693436 -34394,-6693361 -34393,-6693349 -34377,-6693206 -34364,-6693071 -34361,-6692979 -34363,-6692885 -34371,-6692749 -34383,-6692651 -34397,-6692570 -34403,-6692540 -34423,-6692468 -34434,-6692437 -34440,-6692421 -34468,-6692358 -34472,-6692351 -34483,-6692338 -34501,-6692323 -34530,-6692294 -34560,-6692265 -34587,-6692237 -34670,-6692144 -34716,-6692090 -34727,-6692073 -34731,-6692066 -34745,-6692024 -34752,-6692003 -34787,-6691901 -34794,-6691892 -34838,-6691840 -34975,-6691676 -35246,-6691364 -35335,-6691266 -35352,-6691245 -35365,-6691226 -35429,-6691163 -35457,-6691138 -35485,-6691114 -35516,-6691091 -35552,-6691067 -35603,-6691034 -35627,-6691026 -35671,-6691013 -35703,-6691002 -35724,-6690994 -35756,-6690979 -35799,-6690966 -35852,-6690949 -35878,-6690940 -36033,-6690874 -36133,-6690840 -36161,-6690834 -36253,-6690827 -36274,-6690829 -36286,-6690830 -36368,-6690848 -36408,-6690861 -36457,-6690879 -36466,-6690883 -36475,-6690888 -36492,-6690900 -36508,-6690913 -36535,-6690935 -36553,-6690950 -36587,-6690984 -36645,-6691061 -36732,-6691168 -36749,-6691193 -36764,-6691217 -36822,-6691302 -36830,-6691314 -36858,-6691367 -36926,-6691521 -36969,-6691601 -36987,-6691628 -37009,-6691652 -37181,-6691854 -37290,-6691976 -37369,-6692065 -37381,-6692080 -37399,-6692107 -37460,-6692183 -37507,-6692244 -37522,-6692265 -37537,-6692288 -37592,-6692372 -37615,-6692412 -37638,-6692460 -37663,-6692506 -37664,-6692509 -37679,-6692542 -37694,-6692580 -37731,-6692666 -37757,-6692701 -37802,-6692771 -37824,-6692800 -37852,-6692834 -37873,-6692857 -37905,-6692894 -37919,-6692908 -37943,-6692928 -37959,-6692938 -37983,-6692953 -38005,-6692965 -38060,-6692985 -38085,-6692993 -38139,-6693007 -38171,-6693016 -38187,-6693022 -38198,-6693027 -38214,-6693035 -38238,-6693050 -38270,-6693066 -38306,-6693094 -38340,-6693123 -38363,-6693140 -38541,-6693328 -38557,-6693341 -38586,-6693366 -38621,-6693392 -38636,-6693405 -38645,-6693411 -38687,-6693431 -38721,-6693450 -38739,-6693459 -38764,-6693473 -38830,-6693509 -38872,-6693537 -38914,-6693574 -38925,-6693584 -38949,-6693602 -38955,-6693607 -38965,-6693618 -39013,-6693687 -39028,-6693705 -39037,-6693713 -39086,-6693746 -39106,-6693761 -39141,-6693791 -39179,-6693821 -39253,-6693885 -39291,-6693913 -39383,-6693987 -39420,-6694014 -39453,-6694043 -39530,-6694106 -39534,-6694111 -39539,-6694121 -39544,-6694157 -39545,-6694173 -39544,-6694188 -39541,-6694207 -39542,-6694241 -39545,-6694255 -39550,-6694263 -39558,-6694275 -39587,-6694292 -39689,-6694340 -39751,-6694371 -39776,-6694386 -39812,-6694404 -39829,-6694411 -39886,-6694427 -39893,-6694431 -39905,-6694440 -39939,-6694461 -39968,-6694476 -39979,-6694480 -40036,-6694498 -40049,-6694501 -40073,-6694504 -40114,-6694505 -40151,-6694506 -40212,-6694505 -40257,-6694500 -40344,-6694492 -40420,-6694481 -40564,-6694438 -40602,-6694425 -40644,-6694408 -40719,-6694375 -40745,-6694365 -40762,-6694358 -40796,-6694342 -40812,-6694332 -40825,-6694324 -40888,-6694277 -40919,-6694258 -40946,-6694240 -40999,-6694211 -41079,-6694172 -41089,-6694166 -41111,-6694155 -41215,-6694090 -41479,-6693920 -41504,-6693906 -41538,-6693890 -41580,-6693882 -41617,-6693872 -41655,-6693862 -41731,-6693847 -41807,-6693839 -41870,-6693834 -41897,-6693829 -41903,-6693827 -41974,-6693795 -42012,-6693785 -42045,-6693773 -42064,-6693768 -42089,-6693764 -42237,-6693754 -42256,-6693755 -42324,-6693765 -42433,-6693786 -42452,-6693791 -42483,-6693805 -42567,-6693834 -42635,-6693862 -42674,-6693880 -42682,-6694048 -42725,-6694058 -42721,-6694162 -42781,-6694170 -42866,-6694183 -42996,-6694208 -43022,-6694212 -43040,-6694214 -43061,-6694212 -43086,-6694207 -43118,-6694203 -43175,-6694198 -43322,-6694198 -43336,-6694266 -43375,-6694264 -43389,-6694391 -43404,-6694536 -43418,-6694641 -43430,-6694759 -43447,-6694915 -43383,-6694918 -43303,-6694920 -43250,-6694921 -43143,-6694917 -42982,-6694904 -42986,-6694910 -42992,-6694920 -43000,-6694952 -43006,-6694969 -43035,-6695037 -43033,-6695043 -43017,-6695086 -43015,-6695099 -43018,-6695126 -43023,-6695167 -43024,-6695193 -43030,-6695299 -43026,-6695307 -43033,-6695355 -43049,-6695470 -43053,-6695491 -43054,-6695507 -43066,-6695552 -43079,-6695611 -43105,-6695709 -43124,-6695751 -43124,-6695752 -43157,-6695805 -43083,-6695881 -43044,-6695935 -43040,-6695940 -43380,-6696204 -43453,-6696259 -43511,-6696304 -43533,-6696319 -43554,-6696334 -43563,-6696341 -43569,-6696355 -43586,-6696386 -43609,-6696422 -43637,-6696447 -43645,-6696454 -43676,-6696481 -43735,-6696511 -43720,-6696544 -43673,-6696530 -43623,-6696513 -43537,-6696490 -43495,-6696455 -43460,-6696431 -43449,-6696423 -43424,-6696406 -43331,-6696344 -43212,-6696260 -43081,-6696173 -43007,-6696119 -42937,-6696078 -42913,-6696059 -42899,-6696057 -42892,-6696068 -42885,-6696080 -42874,-6696107 -42868,-6696119 -42847,-6696152 -42842,-6696167 -42839,-6696174 -42812,-6696234 -42788,-6696280 -42768,-6696330 -42755,-6696377 -42756,-6696402 -42769,-6696421 -42820,-6696512 -42847,-6696571 -42878,-6696631 -42918,-6696702 -42951,-6696773 -42999,-6696888 -43020,-6696945 -43045,-6696989 -43116,-6697135 -43150,-6697211 -43161,-6697234 -43203,-6697310 -43232,-6697353 -43232,-6697363 -43213,-6697360 -43199,-6697332 -43094,-6697385 -43127,-6697445 -43187,-6697469 -43179,-6697484 -43113,-6697588 -43091,-6697619 -43058,-6697661 -42969,-6697758 -42929,-6697805 -42845,-6697895 -42795,-6697953 -42755,-6697991 -42711,-6698037 -42667,-6698091 -42625,-6698130 -42607,-6698144 -42582,-6698161 -42469,-6698255 -42230,-6698440 -42175,-6698494 -42098,-6698553 -42061,-6698580 -42015,-6698605 -41963,-6698632 -41910,-6698661 -41885,-6698686 -41877,-6698693 -41869,-6698700 -42069,-6698837 -42064,-6698925 -41728,-6699163 -41230,-6699509 -41051,-6699636 -40835,-6699790 -40863,-6699802 -40902,-6699820 -40938,-6699836 -40996,-6699868 -41071,-6699902 -41098,-6699911 -41121,-6699919 -41150,-6699942 -41153,-6699944 -41251,-6700021 -41255,-6700027 -41271,-6700046 -41283,-6700055 -41296,-6700064 -41324,-6700077 -41353,-6700084 -41405,-6700094 -41421,-6700098 -41449,-6700116 -41476,-6700137 -41507,-6700147 -41538,-6700147 -41558,-6700142 -41566,-6700135 -41573,-6700127 -41578,-6700115 -41582,-6700102 -41587,-6700073 -41594,-6700055 -41625,-6700036 -41692,-6700026 -41710,-6700026 -41729,-6700026 -41804,-6700043 -41820,-6700044 -41849,-6700045 -41864,-6700045 -41899,-6700037 -41919,-6700024 -41932,-6700007 -41954,-6699959 -41981,-6699939 -42007,-6699930 -42034,-6699926 -42067,-6699929 -42103,-6699941 -42133,-6699960 -42197,-6699997 -42223,-6700023 -42245,-6700051 -42257,-6700073 -42257,-6700092 -42239,-6700111 -42231,-6700135 -42235,-6700148 -42241,-6700159 -42249,-6700170 -42268,-6700188 -42278,-6700196 -42277,-6700230 -42258,-6700260 -42271,-6700270 -42275,-6700280 -42362,-6700323 -42464,-6700356 -42503,-6700367 -42618,-6700398 -42661,-6700428 -42737,-6700502 -42762,-6700521 -42799,-6700549 -42939,-6700656 -42966,-6700674 -42987,-6700691 -42996,-6700699 -42999,-6700709 -43001,-6700720 -43002,-6700750 -43012,-6700773 -43017,-6700792 -43016,-6700802 -43009,-6700846 -43007,-6700886 -43005,-6700901 -42999,-6700939 -43000,-6700950 -43002,-6700961 -43007,-6700970 -43012,-6700980 -43032,-6701001 -43053,-6701025 -43074,-6701053 -43126,-6701127 -43143,-6701158 -43155,-6701170 -43167,-6701181 -42807,-6701264 -42720,-6701195 -42715,-6701200 -42682,-6701240 -42616,-6701327 -42536,-6701426 -42371,-6701635 -42268,-6701769 -42170,-6701892 -42050,-6702038 -42022,-6702073 -41995,-6702108 -41937,-6702189 -41906,-6702227 -41875,-6702265 -41846,-6702300 -41775,-6702390 -41773,-6702405 -41715,-6702454 -41653,-6702499 -41565,-6702584 -41524,-6702617 -41504,-6702572 -41488,-6702536 -41485,-6702532 -41474,-6702552 -41460,-6702577 -41405,-6702567 -41264,-6702546 -41166,-6702532 -41140,-6702527 -41016,-6702510 -41014,-6702509 -41013,-6702514 -41011,-6702523 -40977,-6702563 -40944,-6702610 -40917,-6702616 -40892,-6702618 -40848,-6702630 -40636,-6702676 -40571,-6702655 -40567,-6702639 -40541,-6702642 -40391,-6702653 -40342,-6702659 -40298,-6702679 -40233,-6702712 -40052,-6702751 -39917,-6702763 -39839,-6702774 -39798,-6702779 -39756,-6702783 -39715,-6702784 -39675,-6702784 -39534,-6702775 -39504,-6702773 -39344,-6702744 -39313,-6702681 -39295,-6702642 -39275,-6702602 -39275,-6702523 -39275,-6702508 -39256,-6702507 -39255,-6702506 -39228,-6702505 -39143,-6702492 -39056,-6702491 -39023,-6702492 -38975,-6702493 -38874,-6702494 -38815,-6702491 -38736,-6702500 -38707,-6702508 -38705,-6702509 -38688,-6702514 -38667,-6702526 -38628,-6702543 -38586,-6702564 -38585,-6702565 -38577,-6702561 -38559,-6702563 -38536,-6702573 -38518,-6702581 -38483,-6702602 -38469,-6702613 -38463,-6702660 -38435,-6702687 -38408,-6702697 -38385,-6702704 -38361,-6702709 -38327,-6702705 -38299,-6702706 -38277,-6702712 -38254,-6702722 -38238,-6702724 -38176,-6702721 -38144,-6702731 -38110,-6702784 -38085,-6702822 -38068,-6702848 -38053,-6702873 -38038,-6702894 -38019,-6702899 -37965,-6702916 -37910,-6702933 -37893,-6702933 -37861,-6702933 -37869,-6702908 -37886,-6702855 -37904,-6702799 -37918,-6702743 -37926,-6702703 -37927,-6702678 -37928,-6702662 -37921,-6702615 -37916,-6702579 -37899,-6702549 -37834,-6702464 -37779,-6702394 -37731,-6702335 -37688,-6702370 -37685,-6702372 -37594,-6702262 -37618,-6702251 -37586,-6702169 -37574,-6702147 -37559,-6702130 -37541,-6702120 -37510,-6702110 -37471,-6702229 -37460,-6702267 -37433,-6702298 -37404,-6702294 -37257,-6702276 -37209,-6702270 -37145,-6702263 -37145,-6702258 -37137,-6702219 -37122,-6702222 -37095,-6702231 -37070,-6702248 -37060,-6702264 -37051,-6702279 -37027,-6702301 -37018,-6702315 -37008,-6702330 -36993,-6702422 -36972,-6702457 -36937,-6702492 -36890,-6702585 -36853,-6702624 -36810,-6702665 -36773,-6702690 -36680,-6702713 -36627,-6702718 -36588,-6702714 -36556,-6702703 -36534,-6702686 -36469,-6702595 -36428,-6702529 -36412,-6702536 -36404,-6702533 -36389,-6702540 -36358,-6702585 -36346,-6702602 -36326,-6702645 -36306,-6702678 -36284,-6702682 -36258,-6702693 -36245,-6702709 -36239,-6702732 -36243,-6702758 -36257,-6702776 -36277,-6702790 -36279,-6702813 -36293,-6702819 -36294,-6702819 -36295,-6702820 -36296,-6702820 -36297,-6702821 -36298,-6702821 -36299,-6702822 -36300,-6702822 -36300,-6702823 -36301,-6702823 -36302,-6702824 -36302,-6702825 -36303,-6702825 -36303,-6702826 -36304,-6702827 -36304,-6702827 -36305,-6702828 -36305,-6702829 -36305,-6702830 -36306,-6702830 -36306,-6702831 -36306,-6702832 -36306,-6702833 -36306,-6702834 -36306,-6702834 -36306,-6702835 -36306,-6702836 -36306,-6702837 -36306,-6702838 -36305,-6702838 -36305,-6702839 -36305,-6702839 -36305,-6702840 -36305,-6702840 -36304,-6702841 -36304,-6702842 -36303,-6702843 -36303,-6702843 -36302,-6702844 -36301,-6702844 -36301,-6702844 -36300,-6702845 -36299,-6702845 -36298,-6702845 -36297,-6702845 -36296,-6702845 -36295,-6702845 -36294,-6702846 -36293,-6702846 -36293,-6702846 -36292,-6702847 -36292,-6702848 -36291,-6702849 -36290,-6702850 -36290,-6702851 -36289,-6702852 -36288,-6702854 -36288,-6702854 -36288,-6702855 -36287,-6702856 -36287,-6702857 -36287,-6702858 -36287,-6702859 -36287,-6702859 -36287,-6702860 -36287,-6702861 -36287,-6702862 -36287,-6702863 -36287,-6702864 -36287,-6702864 -36287,-6702865 -36287,-6702866 -36288,-6702867 -36288,-6702868 -36289,-6702869 -36289,-6702870 -36290,-6702870 -36290,-6702871 -36313,-6702900 -36316,-6702904 -36319,-6702909 -36322,-6702914 -36325,-6702919 -36327,-6702923 -36329,-6702928 -36332,-6702933 -36334,-6702939 -36334,-6702939 -36335,-6702941 -36335,-6702942 -36336,-6702944 -36337,-6702945 -36337,-6702947 -36338,-6702948 -36338,-6702950 -36339,-6702951 -36339,-6702953 -36339,-6702954 -36340,-6702956 -36340,-6702957 -36340,-6702961 -36339,-6702965 -36338,-6702968 -36336,-6702972 -36335,-6702976 -36334,-6702979 -36333,-6702982 -36331,-6702984 -36330,-6702987 -36328,-6702990 -36326,-6702993 -36324,-6702995 -36323,-6702998 -36321,-6703001 -36319,-6703004 -36318,-6703007 -36317,-6703010 -36317,-6703010 -36316,-6703011 -36316,-6703012 -36315,-6703016 -36314,-6703017 -36314,-6703018 -36313,-6703019 -36313,-6703020 -36313,-6703021 -36313,-6703022 -36313,-6703023 -36312,-6703024 -36312,-6703025 -36312,-6703026 -36313,-6703027 -36313,-6703029 -36314,-6703030 -36314,-6703032 -36315,-6703033 -36316,-6703034 -36317,-6703036 -36318,-6703037 -36319,-6703038 -36321,-6703039 -36322,-6703040 -36323,-6703041 -36324,-6703042 -36326,-6703043 -36329,-6703044 -36331,-6703045 -36334,-6703046 -36337,-6703046 -36339,-6703047 -36342,-6703047 -36345,-6703047 -36348,-6703048 -36350,-6703049 -36351,-6703049 -36352,-6703050 -36353,-6703050 -36355,-6703051 -36356,-6703051 -36357,-6703052 -36358,-6703052 -36359,-6703053 -36359,-6703053 -36360,-6703054 -36361,-6703054 -36362,-6703055 -36363,-6703055 -36364,-6703056 -36364,-6703057 -36365,-6703058 -36366,-6703059 -36366,-6703059 -36366,-6703060 -36367,-6703062 -36367,-6703063 -36368,-6703064 -36368,-6703065 -36368,-6703067 -36368,-6703068 -36368,-6703069 -36368,-6703071 -36368,-6703072 -36368,-6703073 -36368,-6703075 -36367,-6703076 -36367,-6703077 -36367,-6703079 -36366,-6703080 -36366,-6703081 -36365,-6703082 -36365,-6703083 -36364,-6703085 -36363,-6703086 -36357,-6703109 -36349,-6703136 -36338,-6703169 -36338,-6703170 -36336,-6703172 -36335,-6703176 -36334,-6703179 -36333,-6703182 -36332,-6703185 -36331,-6703188 -36330,-6703191 -36329,-6703194 -36329,-6703197 -36329,-6703200 -36328,-6703202 -36328,-6703204 -36328,-6703206 -36328,-6703208 -36328,-6703210 -36328,-6703212 -36328,-6703214 -36328,-6703216 -36328,-6703218 -36328,-6703220 -36328,-6703221 -36329,-6703223 -36329,-6703225 -36330,-6703227 -36330,-6703228 -36331,-6703230 -36332,-6703232 -36333,-6703234 -36334,-6703235 -36335,-6703237 -36336,-6703239 -36337,-6703240 -36338,-6703242 -36340,-6703243 -36341,-6703245 -36343,-6703246 -36344,-6703247 -36346,-6703248 -36348,-6703250 -36350,-6703251 -36353,-6703252 -36355,-6703252 -36358,-6703253 -36360,-6703254 -36363,-6703255 -36365,-6703256 -36367,-6703257 -36370,-6703258 -36373,-6703261 -36374,-6703262 -36375,-6703262 -36376,-6703263 -36377,-6703264 -36378,-6703265 -36379,-6703266 -36380,-6703267 -36381,-6703268 -36382,-6703269 -36383,-6703270 -36383,-6703272 -36384,-6703273 -36385,-6703275 -36386,-6703278 -36386,-6703281 -36386,-6703284 -36386,-6703286 -36386,-6703289 -36386,-6703292 -36386,-6703293 -36383,-6703311 -36378,-6703328 -36377,-6703329 -36373,-6703347 -36367,-6703364 -36362,-6703381 -36325,-6703430 -36316,-6703482 -36310,-6703495 -36296,-6703505 -36291,-6703514 -36287,-6703539 -36281,-6703555 -36271,-6703571 -36262,-6703585 -36257,-6703603 -36254,-6703625 -36244,-6703664 -36241,-6703672 -36221,-6703716 -36191,-6703777 -36162,-6703836 -36138,-6703871 -36102,-6703918 -36072,-6703955 -36047,-6703989 -36043,-6703993 -36038,-6703998 -36033,-6704002 -36029,-6704006 -36024,-6704010 -36019,-6704014 -36014,-6704018 -36009,-6704022 -36003,-6704026 -35998,-6704029 -35993,-6704031 -35990,-6704032 -35987,-6704033 -35985,-6704034 -35982,-6704034 -35979,-6704035 -35976,-6704035 -35973,-6704035 -35970,-6704036 -35967,-6704036 -35964,-6704036 -35962,-6704037 -35960,-6704037 -35953,-6704037 -35946,-6704038 -35939,-6704038 -35932,-6704038 -35925,-6704038 -35918,-6704037 -35911,-6704037 -35904,-6704036 -35899,-6704036 -35825,-6704035 -35812,-6704035 -35707,-6704035 -35703,-6704035 -35656,-6704184 -35632,-6704264 -35615,-6704331 -35609,-6704383 -35589,-6704595 -35581,-6704633 -35562,-6704706 -35533,-6704824 -35488,-6704984 -35478,-6705005 -35472,-6705015 -35467,-6705022 -35451,-6705044 -35422,-6705070 -35349,-6705127 -35331,-6705140 -35293,-6705163 -35273,-6705173 -35241,-6705188 -35163,-6705219 -35113,-6705236 -35038,-6705283 -34956,-6705319 -34870,-6705366 -34683,-6705477 -34564,-6705553 -34525,-6705579 -34458,-6705624 -34341,-6705703 -34172,-6705853 -34131,-6705900 -34088,-6705955 -34060,-6705994 -34039,-6706024 -34026,-6706044 -34008,-6706077 -33988,-6706121 -33980,-6706143 -33968,-6706178 -33930,-6706267 -33869,-6706383 -33734,-6706591 -33641,-6706698 -33495,-6706865 -33373,-6707032 -33290,-6707170 -33214,-6707315 -33152,-6707443 -33102,-6707575 -33081,-6707614 -33073,-6707630 -33066,-6707643 -33058,-6707655 -33051,-6707663 -33042,-6707672 -33030,-6707682 -33010,-6707697 -32989,-6707711 -32959,-6707729 -32720,-6707851 -32658,-6707883 -32515,-6707948 -32476,-6707956 -32468,-6707958 -32298,-6707963 -32261,-6707960 -32244,-6707958 -32213,-6707950 -32117,-6707914 -32097,-6707904 -32080,-6707900 -32072,-6707899 -32053,-6707899 -31997,-6707897 -31996,-6707897 -31974,-6707897 -31958,-6707896 -31938,-6707893 -31923,-6707890 -31802,-6707852 -31690,-6707814 -31611,-6707773 -31486,-6707684 -31480,-6707677 -31471,-6707668 -31458,-6707649 -31426,-6707573 -31403,-6707549 -31257,-6707437 -31243,-6707429 -31228,-6707422 -31218,-6707419 -31196,-6707414 -31179,-6707412 -31166,-6707408 -31155,-6707401 -31150,-6707396 -31144,-6707388 -31103,-6707357 -31019,-6707269 -30926,-6707149 -30831,-6707016 -30814,-6706986 -30799,-6706957 -30784,-6706925 -30770,-6706893 -30758,-6706862 -30748,-6706832 -30735,-6706784 -30575,-6706277 -30492,-6706084 -30442,-6705979 -30370,-6705839 -30338,-6705784 -30305,-6705730 -30230,-6705619 -30147,-6705516 -30045,-6705410 -29992,-6705361 -29838,-6705241 -29782,-6705203 -29744,-6705179 -29705,-6705156 -29665,-6705135 -29635,-6705120 -29603,-6705106 -29559,-6705088 -29513,-6705072 -29467,-6705057 -29420,-6705044 -29386,-6705036 -29347,-6705028 -29292,-6705018 -29237,-6705012 -29181,-6705007 -29125,-6705004 -29071,-6705003 -29027,-6705003 -28990,-6705004 -28953,-6705006 -28916,-6705009 -28879,-6705014 -28842,-6705019 -28806,-6705027 -28775,-6705035 -28742,-6705045 -28700,-6705059 -28658,-6705076 -28617,-6705094 -28577,-6705113 -28542,-6705131 -28509,-6705150 -28473,-6705173 -28437,-6705196 -28403,-6705221 -28369,-6705247 -28336,-6705275 -28277,-6705328 -28249,-6705356 -28239,-6705368 -28229,-6705381 -28209,-6705413 -28191,-6705448 -28114,-6705579 -28092,-6705622 -28043,-6705694 -28039,-6705703 -28032,-6705724 -28026,-6705746 -28021,-6705767 -28017,-6705808 -27986,-6705905 -27914,-6706122 -27906,-6706167 -27899,-6706211 -27885,-6706325 -27872,-6706464 -27867,-6706583 -27868,-6706666 -27872,-6706727 -27881,-6706822 -27881,-6706874 -27872,-6706991 -27868,-6707024 -27864,-6707056 -27861,-6707073 -27852,-6707116 -27843,-6707149 -27835,-6707179 -27803,-6707267 -27738,-6707413 -27726,-6707439 -27713,-6707462 -27698,-6707486 -27683,-6707508 -27668,-6707530 -27651,-6707552 -27625,-6707582 -27585,-6707622 -27577,-6707629 -27517,-6707682 -27474,-6707717 -27406,-6707768 -27292,-6707857 -27237,-6707899 -27097,-6708059 -27052,-6708114 -27023,-6708143 -27002,-6708162 -26980,-6708180 -26939,-6708211 -26913,-6708227 -26879,-6708247 -26844,-6708265 -26808,-6708282 -26772,-6708297 -26735,-6708312 -26695,-6708325 -26655,-6708337 -26615,-6708347 -26574,-6708356 -26533,-6708363 -26487,-6708370 -26476,-6708370 -26462,-6708372 -26425,-6708374 -26362,-6708376 -26330,-6708376 -26265,-6708374" stroke="#006747" stroke-width="36" /></ns0:svg>    <rect x="20" y="50"  width="250" height="25"  rx="0"  fill="#006747" fill-opacity="0.8" />    <text x="145" y="70" text-anchor="middle" font-family="Frutiger" font-weight="bold" font-size="20" fill="white">Richmond upon Thames</text>    <rect x="35" y="195" width="220" height="160" rx="15" fill="#78BE20"/>    <g font-family="Frutiger" font-size="15" fill="#231F20">        <g> <text x="45" y="218">Self-harm</text> <text x="245" y="218" text-anchor="end">30</text> </g>        <g> <text x="45" y="243">SEN</text> <text x="245" y="243" text-anchor="end">22</text> </g>        <g> <text x="45" y="268">Difficulties</text> <text x="245" y="268" text-anchor="end">57</text> </g>        <g> <text x="45" y="293">Child Carer</text> <text x="245" y="293" text-anchor="end">5</text> </g>        <g> <text x="45" y="318">Drinkers</text> <text x="245" y="318" text-anchor="end">67</text> </g>        <g> <text x="45" y="343">Safeguarding £</text> <text x="245" y="343" text-anchor="end">9</text> </g>    </g></svg>