<?xml version="1.0" standalone="no"?>
<!DOCTYPE svg PUBLIC "-//W3C//DTD SVG 1.1//EN"
"http://www.w3.org/Graphics/SVG/1.1/DTD/svg11.dtd">
<svg height="1800" version="1.1" width="1800" xmlns="http://www.w3.org/2000/svg"><defs><style type="text/css">@font-face {font-family: 'Frutiger';font-style: normal;font-weight: normal;src: local('Frutiger'), url('../fonts/Frutiger.woff') format('woff');}@font-face {font-family: 'Frutiger Bold';font-style: normal;font-weight: normal;src: local('Frutiger Bold'), url('../fonts/Frutiger_bold.woff') format('woff');}        </style>    </defs>    <rect x="20" y="20"  width="250" height="350" rx="15" fill="#009639" />    <rect x="35" y="35"  width="220" height="145" rx="15" fill="#E8EDEE" /><ns0:svg xmlns:ns0="http://www.w3.org/2000/svg" height="115" version="1.1" viewBox="-12402 -6711991 9136 15957" width="220" x="35" y="50"><ns0:polygon fill="#006747" points=" -11751,-6711987 -11705,-6711985 -11645,-6711985 -11647,-6711948 -11648,-6711948 -11660,-6711944 -11657,-6711939 -11657,-6711937 -11647,-6711937 -11647,-6711911 -11651,-6711849 -11659,-6711847 -11657,-6711845 -11650,-6711839 -11650,-6711831 -11652,-6711761 -11656,-6711751 -11656,-6711734 -11650,-6711723 -11597,-6711725 -11597,-6711739 -11600,-6711761 -11599,-6711793 -11598,-6711837 -11584,-6711844 -11596,-6711853 -11597,-6711932 -11580,-6711941 -11578,-6711943 -11594,-6711948 -11594,-6711981 -11531,-6711981 -11496,-6711975 -11305,-6711973 -11152,-6711958 -11123,-6711956 -11052,-6711949 -11015,-6711943 -10967,-6711937 -10876,-6711924 -10778,-6711908 -10685,-6711888 -10653,-6711879 -10606,-6711863 -10566,-6711848 -10462,-6711810 -10368,-6711767 -10330,-6711749 -10310,-6711741 -10278,-6711729 -10230,-6711714 -10138,-6711696 -10072,-6711682 -10052,-6711678 -9960,-6711665 -9911,-6711655 -9901,-6711653 -9862,-6711647 -9804,-6711636 -9766,-6711629 -9765,-6711629 -9755,-6711627 -9656,-6711616 -9581,-6711606 -9545,-6711602 -9541,-6711602 -9534,-6711601 -9480,-6711594 -9447,-6711586 -9370,-6711566 -9340,-6711556 -9288,-6711547 -9199,-6711525 -9116,-6711505 -9058,-6711490 -9028,-6711482 -9020,-6711480 -8989,-6711471 -8935,-6711452 -8923,-6711447 -8900,-6711436 -8882,-6711426 -8819,-6711395 -8785,-6711383 -8736,-6711362 -8707,-6711348 -8704,-6711347 -8691,-6711341 -8595,-6711299 -8495,-6711251 -8372,-6711194 -8240,-6711146 -8207,-6711133 -8145,-6711104 -8092,-6711074 -7995,-6711007 -7931,-6710960 -7891,-6710930 -7850,-6710902 -7842,-6710898 -7813,-6710881 -7800,-6710873 -7774,-6710860 -7693,-6710821 -7589,-6710776 -7556,-6710761 -7535,-6710757 -7450,-6710719 -7402,-6710701 -7364,-6710683 -7334,-6710670 -7195,-6710623 -7147,-6710607 -7078,-6710590 -7022,-6710577 -6942,-6710561 -6776,-6710525 -6725,-6710522 -6699,-6710517 -6683,-6710516 -6664,-6710517 -6623,-6710525 -6545,-6710543 -6486,-6710558 -6420,-6710575 -6367,-6710591 -6338,-6710604 -6273,-6710630 -6273,-6710631 -6228,-6710646 -6184,-6710669 -6138,-6710697 -6105,-6710719 -5969,-6710834 -5873,-6710926 -5831,-6710964 -5813,-6710978 -5766,-6711017 -5722,-6711055 -5502,-6711262 -5412,-6711345 -5356,-6711396 -5224,-6711511 -5180,-6711544 -5161,-6711559 -5115,-6711597 -5061,-6711638 -5023,-6711659 -4931,-6711698 -4887,-6711716 -4851,-6711727 -4822,-6711735 -4752,-6711746 -4683,-6711755 -4659,-6711757 -4598,-6711761 -4553,-6711763 -4514,-6711763 -4475,-6711762 -4407,-6711761 -4321,-6711757 -4248,-6711749 -4212,-6711738 -4169,-6711727 -4143,-6711716 -4083,-6711690 -4000,-6711663 -3958,-6711639 -3889,-6711600 -3819,-6711564 -3730,-6711519 -3675,-6711499 -3644,-6711485 -3607,-6711471 -3581,-6711449 -3537,-6711410 -3530,-6711404 -3520,-6711389 -3509,-6711375 -3495,-6711361 -3479,-6711347 -3453,-6711335 -3430,-6711319 -3421,-6711310 -3409,-6711295 -3404,-6711286 -3402,-6711282 -3392,-6711262 -3371,-6711233 -3345,-6711185 -3336,-6711153 -3326,-6711130 -3318,-6711097 -3304,-6711048 -3292,-6711005 -3290,-6711000 -3291,-6710998 -3296,-6710979 -3298,-6710945 -3292,-6710901 -3286,-6710844 -3275,-6710760 -3267,-6710708 -3266,-6710700 -3268,-6710689 -3272,-6710663 -3273,-6710639 -3276,-6710593 -3287,-6710419 -3302,-6710244 -3320,-6710137 -3324,-6710088 -3329,-6710030 -3339,-6709934 -3340,-6709871 -3341,-6709780 -3348,-6709708 -3350,-6709693 -3359,-6709515 -3360,-6709457 -3360,-6709412 -3359,-6709384 -3352,-6709266 -3340,-6709161 -3338,-6709143 -3330,-6709068 -3385,-6709048 -3454,-6709027 -3552,-6708999 -3566,-6708988 -3605,-6708977 -3623,-6708972 -3620,-6708968 -3660,-6708955 -3698,-6708944 -3704,-6708967 -3707,-6708966 -3919,-6708902 -4150,-6708828 -4157,-6708828 -4168,-6708829 -4171,-6708830 -4174,-6708830 -4178,-6708831 -4181,-6708831 -4184,-6708831 -4188,-6708832 -4188,-6708832 -4193,-6708834 -4197,-6708835 -4201,-6708837 -4205,-6708839 -4210,-6708841 -4214,-6708843 -4218,-6708845 -4222,-6708847 -4226,-6708849 -4229,-6708852 -4233,-6708855 -4237,-6708857 -4241,-6708860 -4253,-6708872 -4270,-6708888 -4272,-6708891 -4276,-6708896 -4280,-6708900 -4284,-6708905 -4288,-6708909 -4292,-6708913 -4297,-6708917 -4301,-6708921 -4305,-6708925 -4307,-6708925 -4310,-6708928 -4314,-6708931 -4318,-6708934 -4322,-6708937 -4327,-6708940 -4331,-6708942 -4335,-6708945 -4340,-6708947 -4344,-6708949 -4348,-6708951 -4353,-6708953 -4357,-6708955 -4359,-6708955 -4363,-6708957 -4367,-6708958 -4370,-6708959 -4374,-6708960 -4377,-6708961 -4381,-6708962 -4385,-6708963 -4388,-6708963 -4392,-6708964 -4396,-6708964 -4400,-6708964 -4403,-6708965 -4407,-6708965 -4411,-6708965 -4415,-6708964 -4416,-6708964 -4420,-6708964 -4424,-6708963 -4427,-6708962 -4431,-6708962 -4435,-6708961 -4438,-6708960 -4442,-6708959 -4446,-6708957 -4491,-6708937 -4511,-6708931 -4512,-6708930 -4457,-6708817 -4567,-6708758 -4488,-6708621 -4729,-6708474 -4697,-6708437 -4712,-6708436 -4754,-6708435 -4950,-6708450 -4956,-6708453 -4959,-6708456 -4977,-6708495 -4979,-6708510 -5021,-6708498 -5019,-6708490 -5064,-6708473 -5099,-6708460 -5109,-6708470 -5136,-6708496 -5180,-6708492 -5180,-6708515 -5180,-6708564 -5295,-6708510 -5290,-6708497 -5476,-6708428 -5480,-6708438 -5491,-6708435 -5531,-6708421 -5524,-6708406 -5601,-6708386 -5654,-6708362 -5691,-6708350 -5726,-6708330 -5781,-6708276 -5581,-6708138 -5575,-6708133 -5601,-6708094 -5597,-6708091 -5605,-6708076 -5614,-6708061 -5634,-6708050 -5645,-6708061 -5648,-6708060 -5687,-6708042 -5708,-6708037 -5757,-6708039 -5799,-6708041 -5805,-6708040 -5831,-6708033 -5841,-6708022 -5854,-6707995 -5855,-6707993 -5884,-6708008 -6005,-6708062 -5978,-6707987 -5959,-6707945 -5954,-6707933 -5942,-6707908 -5932,-6707899 -5925,-6707892 -5917,-6707889 -5914,-6707888 -5900,-6707871 -5896,-6707866 -5889,-6707847 -5886,-6707837 -5883,-6707823 -5879,-6707800 -5881,-6707796 -5885,-6707785 -5888,-6707777 -5890,-6707765 -5891,-6707734 -5891,-6707716 -5905,-6707713 -5917,-6707710 -5912,-6707689 -5959,-6707679 -5958,-6707629 -5944,-6707589 -5932,-6707578 -5924,-6707575 -5918,-6707576 -5915,-6707567 -5907,-6707566 -5901,-6707507 -5897,-6707468 -5897,-6707467 -5893,-6707429 -5898,-6707428 -5910,-6707425 -5895,-6707283 -5895,-6707281 -5884,-6707281 -5878,-6707281 -5874,-6707263 -5888,-6707261 -5888,-6707252 -5894,-6707248 -5891,-6707165 -5892,-6707144 -5892,-6707134 -5881,-6707134 -5876,-6707134 -5876,-6707120 -5876,-6707116 -5890,-6707115 -5894,-6707072 -5899,-6706994 -5902,-6706955 -5910,-6706902 -5924,-6706832 -5926,-6706827 -5915,-6706827 -5914,-6706827 -5917,-6706818 -5921,-6706808 -5926,-6706793 -5931,-6706781 -5944,-6706735 -5951,-6706731 -5954,-6706729 -5953,-6706711 -5940,-6706708 -5936,-6706707 -5937,-6706698 -5943,-6706700 -5960,-6706704 -5960,-6706692 -5960,-6706687 -5954,-6706685 -5949,-6706672 -5950,-6706657 -5955,-6706637 -5966,-6706606 -5969,-6706607 -5974,-6706609 -5975,-6706605 -6008,-6706510 -6010,-6706504 -6003,-6706501 -6002,-6706501 -6044,-6706394 -5863,-6706287 -5868,-6705982 -5870,-6705542 -5870,-6705380 -5805,-6705072 -5783,-6704965 -5763,-6704870 -5750,-6704812 -5750,-6704802 -5761,-6704787 -5802,-6704737 -5817,-6704715 -5790,-6704669 -5750,-6704600 -5724,-6704560 -5673,-6704450 -5661,-6704423 -5688,-6704403 -5710,-6704386 -5710,-6704385 -5674,-6704342 -5627,-6704283 -5633,-6704277 -5654,-6704261 -5662,-6704255 -5620,-6704248 -5594,-6704241 -5552,-6704225 -5526,-6704214 -5521,-6704212 -5497,-6704202 -5457,-6704182 -5410,-6704154 -5363,-6704123 -5400,-6704074 -5309,-6704003 -5291,-6703994 -5265,-6703967 -5233,-6703946 -5203,-6703914 -5183,-6703892 -5158,-6703856 -5141,-6703826 -5117,-6703779 -5086,-6703698 -5057,-6703595 -5045,-6703535 -5032,-6703463 -5027,-6703394 -5020,-6703305 -5018,-6703235 -5019,-6703175 -5020,-6703119 -5026,-6703039 -5033,-6702963 -5040,-6702907 -5043,-6702887 -5075,-6702740 -5086,-6702693 -5089,-6702678 -5093,-6702654 -5118,-6702564 -5129,-6702555 -5135,-6702526 -5006,-6702472 -4965,-6702457 -4834,-6702342 -4755,-6702264 -4683,-6702205 -4668,-6702193 -4653,-6702182 -4633,-6702174 -4722,-6701977 -4782,-6701852 -4804,-6701839 -4857,-6701757 -4882,-6701714 -4951,-6701587 -4992,-6701519 -5006,-6701513 -5020,-6701502 -5028,-6701471 -5026,-6701454 -5060,-6701397 -5103,-6701317 -5134,-6701260 -5174,-6701268 -5222,-6701275 -5313,-6701292 -5367,-6701299 -5420,-6701306 -5461,-6701302 -5492,-6701288 -5555,-6701255 -5669,-6701194 -5904,-6701075 -5948,-6701062 -5961,-6701056 -5968,-6701053 -5984,-6701052 -5998,-6701053 -6003,-6701055 -6009,-6701060 -6017,-6701070 -6045,-6701103 -6091,-6701138 -6168,-6701192 -6291,-6701272 -6404,-6701343 -6464,-6701272 -6522,-6701204 -6530,-6701194 -6571,-6701159 -6640,-6701104 -6784,-6701001 -6830,-6700950 -6879,-6700889 -6907,-6700842 -6923,-6700809 -6937,-6700781 -6962,-6700739 -6999,-6700648 -7019,-6700601 -7037,-6700542 -7050,-6700489 -7064,-6700436 -7081,-6700355 -7089,-6700307 -7093,-6700238 -7084,-6700096 -7091,-6700008 -7107,-6699947 -7130,-6699871 -7140,-6699849 -7145,-6699837 -7152,-6699826 -7189,-6699770 -7235,-6699703 -7196,-6699676 -7152,-6699658 -7127,-6699648 -7099,-6699414 -7093,-6699316 -7091,-6699176 -7088,-6699137 -7088,-6699127 -7070,-6699097 -7061,-6699073 -7061,-6699057 -7071,-6699049 -7119,-6699011 -7139,-6698999 -7148,-6698992 -7162,-6698977 -7168,-6698968 -7173,-6698958 -7180,-6698940 -7183,-6698924 -7189,-6698903 -7210,-6698833 -7242,-6698768 -7279,-6698677 -7300,-6698617 -7320,-6698551 -7325,-6698538 -7334,-6698520 -7341,-6698506 -7348,-6698495 -7360,-6698480 -7423,-6698411 -7472,-6698370 -7539,-6698326 -7633,-6698246 -7680,-6698219 -7737,-6698190 -7747,-6698185 -7787,-6698169 -7810,-6698163 -7833,-6698156 -7866,-6698149 -7894,-6698148 -7913,-6698148 -7938,-6698152 -7968,-6698154 -8020,-6698154 -8036,-6698150 -8054,-6698141 -8063,-6698136 -8072,-6698129 -8082,-6698120 -8091,-6698110 -8097,-6698101 -8108,-6698083 -8188,-6697952 -8334,-6697666 -8338,-6697649 -8342,-6697627 -8351,-6697564 -8356,-6697496 -8349,-6697453 -8339,-6697420 -8323,-6697373 -8289,-6697287 -8271,-6697255 -8253,-6697187 -8233,-6697090 -8227,-6697034 -8227,-6697024 -8229,-6697023 -8235,-6697022 -8240,-6697020 -8245,-6697019 -8250,-6697017 -8255,-6697015 -8261,-6697012 -8267,-6697010 -8272,-6697007 -8278,-6697004 -8283,-6697000 -8288,-6696997 -8294,-6696993 -8296,-6696991 -8299,-6696989 -8302,-6696987 -8305,-6696984 -8309,-6696982 -8312,-6696980 -8315,-6696977 -8317,-6696974 -8320,-6696972 -8323,-6696969 -8326,-6696966 -8328,-6696963 -8331,-6696960 -8333,-6696957 -8334,-6696956 -8336,-6696953 -8338,-6696949 -8340,-6696946 -8342,-6696943 -8343,-6696939 -8345,-6696936 -8347,-6696932 -8348,-6696928 -8349,-6696925 -8350,-6696921 -8396,-6696814 -8420,-6696760 -8524,-6696496 -8635,-6696231 -8684,-6696106 -8706,-6696054 -8714,-6696034 -8809,-6696071 -8813,-6696075 -8816,-6696077 -8819,-6696085 -8821,-6696089 -8820,-6696101 -8808,-6696137 -8783,-6696206 -8843,-6696227 -8848,-6696238 -8861,-6696261 -8883,-6696302 -8886,-6696307 -8911,-6696291 -8940,-6696279 -8997,-6696257 -9002,-6696255 -9031,-6696342 -9091,-6696516 -9094,-6696526 -9100,-6696528 -9128,-6696519 -9219,-6696485 -9285,-6696462 -9289,-6696461 -9291,-6696479 -9293,-6696535 -9296,-6696584 -9301,-6696665 -9305,-6696734 -9306,-6696769 -9312,-6696819 -9332,-6696888 -9356,-6696948 -9389,-6697021 -9420,-6697091 -9454,-6697167 -9478,-6697222 -9487,-6697238 -9488,-6697241 -9508,-6697261 -9547,-6697293 -9559,-6697298 -9569,-6697306 -9575,-6697314 -9578,-6697322 -9580,-6697330 -9581,-6697338 -9581,-6697346 -9577,-6697361 -9564,-6697387 -9558,-6697407 -9554,-6697429 -9555,-6697438 -9558,-6697443 -9561,-6697447 -9570,-6697454 -9575,-6697457 -9584,-6697458 -9638,-6697483 -9710,-6697508 -9757,-6697532 -9779,-6697549 -9806,-6697576 -9818,-6697593 -9828,-6697612 -9848,-6697658 -9892,-6697807 -9938,-6698033 -9970,-6698208 -10018,-6698491 -10040,-6698629 -10067,-6698799 -10080,-6698864 -10089,-6698902 -10125,-6699034 -10148,-6699112 -10181,-6699195 -10208,-6699251 -10220,-6699272 -10227,-6699285 -10237,-6699313 -10242,-6699337 -10267,-6699425 -10298,-6699554 -10323,-6699646 -10335,-6699689 -10350,-6699750 -10372,-6699813 -10389,-6699847 -10420,-6699899 -10438,-6699933 -10461,-6699977 -10472,-6700000 -10517,-6700104 -10567,-6700272 -10574,-6700304 -10576,-6700324 -10577,-6700336 -10574,-6700368 -10573,-6700403 -10575,-6700427 -10576,-6700442 -10583,-6700472 -10588,-6700487 -10600,-6700516 -10650,-6700615 -10673,-6700659 -10695,-6700701 -10842,-6700884 -10901,-6700949 -10956,-6701002 -11005,-6701057 -11045,-6701119 -11051,-6701129 -11056,-6701140 -11062,-6701166 -11064,-6701176 -11065,-6701200 -11080,-6701258 -11089,-6701283 -11098,-6701300 -11107,-6701318 -11113,-6701325 -11120,-6701331 -11128,-6701335 -11136,-6701338 -11145,-6701339 -11151,-6701339 -11164,-6701337 -11213,-6701338 -11214,-6701346 -11217,-6701400 -11216,-6701464 -11218,-6701476 -11221,-6701489 -11226,-6701504 -11235,-6701525 -11255,-6701562 -11276,-6701597 -11278,-6701601 -11282,-6701614 -11287,-6701632 -11291,-6701650 -11293,-6701668 -11293,-6701686 -11292,-6701705 -11283,-6701733 -11277,-6701747 -11252,-6701804 -11247,-6701820 -11244,-6701834 -11244,-6701857 -11258,-6701957 -11253,-6701973 -11241,-6702007 -11233,-6702024 -11198,-6702067 -11134,-6702134 -11030,-6702247 -10972,-6702300 -10889,-6702361 -10862,-6702382 -10818,-6702428 -10747,-6702511 -10706,-6702562 -10665,-6702606 -10646,-6702641 -10628,-6702690 -10595,-6702779 -10589,-6702793 -10586,-6702800 -10575,-6702828 -10557,-6702866 -10542,-6702892 -10524,-6702920 -10477,-6702996 -10422,-6703070 -10360,-6703146 -10342,-6703173 -10332,-6703187 -10322,-6703197 -10299,-6703218 -10274,-6703254 -10262,-6703269 -10187,-6703425 -10141,-6703525 -10120,-6703575 -10090,-6703658 -10027,-6704093 -10023,-6704141 -10023,-6704156 -10024,-6704169 -10026,-6704179 -10031,-6704198 -10143,-6704429 -10268,-6704693 -10318,-6704816 -10320,-6704824 -10325,-6704842 -10333,-6704882 -10341,-6704990 -10343,-6705025 -10352,-6705216 -10353,-6705219 -10358,-6705236 -10404,-6705196 -10419,-6705172 -10423,-6705163 -10430,-6705142 -10461,-6705012 -10468,-6704995 -10472,-6704988 -10483,-6704976 -10497,-6704963 -10511,-6704950 -10549,-6704919 -10580,-6704892 -10683,-6704835 -10810,-6704980 -11008,-6705201 -11037,-6705247 -11045,-6705261 -11059,-6705325 -11078,-6705402 -11104,-6705468 -11170,-6705569 -11192,-6705608 -11198,-6705620 -11201,-6705632 -11205,-6705653 -11194,-6705711 -11166,-6705978 -11147,-6706044 -11141,-6706059 -11128,-6706084 -11297,-6706201 -11532,-6706347 -11747,-6706491 -11930,-6706616 -12003,-6706664 -12021,-6706676 -12027,-6706680 -12044,-6706692 -12047,-6706696 -12046,-6706706 -12043,-6706711 -12039,-6706714 -12029,-6706717 -12013,-6706720 -11747,-6706771 -11686,-6706784 -11583,-6706804 -11579,-6706805 -11643,-6706900 -11645,-6706904 -11643,-6706926 -11674,-6706971 -11703,-6707018 -11716,-6707018 -11722,-6707018 -11732,-6707037 -11756,-6707078 -11801,-6707125 -11786,-6707140 -11756,-6707170 -11759,-6707173 -11833,-6707232 -11888,-6707273 -11905,-6707282 -11933,-6707296 -11900,-6707369 -11879,-6707418 -11865,-6707453 -11858,-6707482 -11836,-6707517 -11858,-6707531 -12002,-6707627 -12018,-6707638 -12034,-6707653 -12050,-6707670 -12070,-6707689 -12033,-6707743 -11743,-6708211 -11722,-6708244 -11653,-6708351 -11595,-6708436 -11552,-6708513 -11506,-6708587 -11492,-6708619 -11491,-6708619 -11480,-6708642 -11507,-6708667 -11480,-6708694 -11521,-6708733 -11508,-6708749 -11527,-6708768 -11542,-6708788 -11544,-6708791 -11561,-6708783 -11568,-6708780 -11586,-6708833 -11601,-6708875 -11603,-6708878 -11618,-6708919 -11632,-6708955 -11652,-6708980 -11662,-6709024 -11673,-6709058 -11674,-6709061 -11723,-6709077 -11768,-6709091 -11926,-6709175 -12175,-6709317 -12298,-6709391 -12307,-6709395 -12316,-6709398 -12332,-6709400 -12348,-6709414 -12350,-6709428 -12402,-6709584 -12275,-6709643 -12276,-6709654 -12275,-6709660 -12188,-6709926 -12188,-6709928 -12183,-6709950 -12144,-6710059 -12059,-6710281 -12045,-6710307 -12040,-6710314 -12002,-6710362 -11888,-6710501 -11875,-6710517 -11855,-6710502 -11795,-6710578 -11791,-6710585 -11809,-6710600 -11806,-6710606 -11804,-6710613 -11802,-6710625 -11806,-6710650 -11812,-6710670 -11880,-6710616 -11959,-6710758 -11841,-6710822 -11854,-6710870 -11863,-6710943 -11860,-6710980 -11857,-6710989 -11849,-6711023 -11845,-6711057 -11845,-6711083 -11848,-6711110 -11862,-6711165 -11863,-6711166 -11948,-6711482 -12039,-6711454 -12046,-6711472 -12052,-6711491 -12064,-6711547 -12066,-6711556 -12076,-6711606 -12085,-6711605 -12108,-6711597 -12115,-6711662 -12122,-6711724 -12122,-6711728 -12146,-6711941 -12150,-6711976 -12151,-6711984 -12074,-6711987 -12010,-6711990 -11948,-6711990 -11906,-6711991 -11854,-6711991 -11751,-6711987" stroke="#006747" stroke-width="25" /></ns0:svg>    <rect x="20" y="50"  width="250" height="25"  rx="0"  fill="#006747" fill-opacity="0.8" />    <text x="145" y="70" text-anchor="middle" font-family="Frutiger" font-weight="bold" font-size="30" fill="white">Southwark</text>    <rect x="35" y="195" width="220" height="160" rx="15" fill="#78BE20"/>    <g font-family="Frutiger" font-size="15" fill="#231F20">        <g> <text x="45" y="218">Self-harm</text> <text x="245" y="218" text-anchor="end">16</text> </g>        <g> <text x="45" y="243">SEN</text> <text x="245" y="243" text-anchor="end">45</text> </g>        <g> <text x="45" y="268">Difficulties</text> <text x="245" y="268" text-anchor="end">73</text> </g>        <g> <text x="45" y="293">Child Carer</text> <text x="245" y="293" text-anchor="end">40</text> </g>        <g> <text x="45" y="318">Drinkers</text> <text x="245" y="318" text-anchor="end">9</text> </g>        <g> <text x="45" y="343">Safeguarding £</text> <text x="245" y="343" text-anchor="end">37</text> </g>    </g></svg>