<?xml version="1.0" standalone="no"?>
<!DOCTYPE svg PUBLIC "-//W3C//DTD SVG 1.1//EN"
"http://www.w3.org/Graphics/SVG/1.1/DTD/svg11.dtd">
<svg height="390" version="1.1" width="290" xmlns="http://www.w3.org/2000/svg"><defs><style type="text/css">@font-face {font-family: 'Frutiger';font-style: normal;font-weight: normal;src: local('Frutiger'), url('../fonts/Frutiger.woff') format('woff');}@font-face {font-family: 'Frutiger Bold';font-style: normal;font-weight: normal;src: local('Frutiger Bold'), url('../fonts/Frutiger_bold.woff') format('woff');}        </style>    </defs>    <rect x="20" y="20"  width="250" height="350" rx="15" fill="#005EB8" />    <rect x="35" y="35"  width="220" height="145" rx="15" fill="white" /><ns0:svg xmlns:ns0="http://www.w3.org/2000/svg" height="115" version="1.1" viewBox="968 -6733324 15675 15310" width="220" x="35" y="50"><ns0:polygon fill="#003087" points=" 2428,-6733289 2454,-6733270 2513,-6733226 2559,-6733192 2667,-6733113 2737,-6733054 2773,-6733019 2882,-6732911 2937,-6732837 2949,-6732812 2963,-6732790 2970,-6732781 2987,-6732765 3002,-6732754 3010,-6732749 3021,-6732745 3052,-6732737 3069,-6732733 3094,-6732730 3109,-6732726 3122,-6732721 3133,-6732714 3148,-6732703 3180,-6732671 3237,-6732622 3238,-6732620 3224,-6732544 3263,-6732537 3265,-6732532 3277,-6732494 3282,-6732482 3293,-6732462 3302,-6732452 3323,-6732431 3420,-6732358 3397,-6732296 3503,-6732262 3528,-6732231 3580,-6732181 3606,-6732155 3631,-6732129 3649,-6732108 3662,-6732087 3675,-6732063 3787,-6731900 3806,-6731869 3814,-6731849 3818,-6731843 3850,-6731805 3863,-6731789 3950,-6731701 3971,-6731671 4006,-6731622 4021,-6731605 4049,-6731570 4085,-6731510 4125,-6731456 4161,-6731417 4172,-6731405 4177,-6731372 4179,-6731329 4186,-6731323 4201,-6731333 4274,-6731256 4278,-6731262 4476,-6731062 4465,-6731033 4454,-6731006 4472,-6730997 4498,-6730984 4531,-6730967 4532,-6730967 4527,-6730956 4525,-6730952 4540,-6730940 4540,-6730940 4553,-6730930 4564,-6730951 4576,-6730973 4595,-6730996 4624,-6731021 4660,-6731055 4696,-6731080 4732,-6731103 4776,-6731128 4814,-6731140 4865,-6731157 4933,-6731173 4993,-6731192 5057,-6731212 5138,-6731208 5143,-6731235 5154,-6731238 5167,-6731230 5241,-6731230 5327,-6731241 5337,-6731260 5468,-6731304 5559,-6731325 5636,-6731344 5716,-6731368 5830,-6731400 5910,-6731423 5930,-6731420 5941,-6731402 5958,-6731397 5979,-6731397 6015,-6731336 6038,-6731306 6043,-6731299 6053,-6731280 6054,-6731275 6055,-6731267 6054,-6731260 6048,-6731239 6044,-6731228 6035,-6731203 6030,-6731187 6030,-6731178 6033,-6731163 6039,-6731153 6041,-6731147 6042,-6731141 6041,-6731134 6039,-6731126 6034,-6731118 6026,-6731108 5976,-6731071 5969,-6731062 5965,-6731058 5954,-6731052 5947,-6731050 5938,-6731048 5930,-6731049 5923,-6731051 5916,-6731055 5900,-6731068 5894,-6731075 5880,-6731097 5871,-6731106 5861,-6731113 5850,-6731120 5838,-6731125 5824,-6731128 5805,-6731132 5788,-6731134 5765,-6731132 5758,-6731131 5752,-6731129 5742,-6731122 5730,-6731109 5724,-6731104 5715,-6731100 5651,-6731082 5626,-6731078 5589,-6731062 5585,-6731058 5578,-6731050 5569,-6731037 5561,-6731022 5548,-6730991 5541,-6730978 5531,-6730964 5518,-6730949 5505,-6730937 5494,-6730928 5462,-6730909 5449,-6730899 5438,-6730887 5431,-6730878 5426,-6730869 5397,-6730806 5385,-6730769 5380,-6730751 5378,-6730738 5377,-6730725 5377,-6730713 5382,-6730682 5383,-6730679 5399,-6730653 5402,-6730646 5403,-6730641 5402,-6730628 5400,-6730621 5395,-6730612 5389,-6730603 5372,-6730587 5365,-6730580 5359,-6730571 5355,-6730562 5351,-6730551 5349,-6730541 5349,-6730531 5350,-6730520 5353,-6730508 5359,-6730498 5367,-6730489 5369,-6730487 5389,-6730522 5406,-6730542 5422,-6730554 5434,-6730557 5445,-6730553 5461,-6730544 5573,-6730470 5661,-6730407 5744,-6730346 5775,-6730327 5858,-6730274 5881,-6730255 5916,-6730225 5950,-6730194 6020,-6730135 6235,-6729966 6289,-6729925 6394,-6729854 6494,-6729781 6602,-6729705 6679,-6729659 6756,-6729604 6808,-6729556 6806,-6729542 6861,-6729496 6876,-6729492 6908,-6729455 6962,-6729389 6965,-6729386 6987,-6729384 7012,-6729359 7055,-6729396 7125,-6729415 7202,-6729361 7282,-6729311 7290,-6729304 7343,-6729253 7421,-6729234 7492,-6729219 7534,-6729207 7580,-6729192 7670,-6729148 7738,-6729108 7828,-6729062 7905,-6729035 7980,-6729010 8043,-6728987 8107,-6728961 8183,-6729005 8219,-6729032 8368,-6729121 8493,-6729221 8561,-6729268 8672,-6729327 8774,-6729374 8788,-6729379 8803,-6729382 8813,-6729384 8835,-6729383 8854,-6729381 8909,-6729372 8960,-6729360 9014,-6729351 9074,-6729337 9131,-6729313 9218,-6729271 9261,-6729282 9273,-6729282 9285,-6729281 9333,-6729270 9403,-6729260 9449,-6729226 9487,-6729180 9515,-6729143 9522,-6729114 9531,-6729116 9624,-6728996 9650,-6728961 9663,-6728961 9672,-6728951 9673,-6728950 9700,-6728921 9898,-6728990 9899,-6729050 9947,-6729086 9977,-6729109 10018,-6729127 10046,-6729136 10053,-6729118 10070,-6729134 10177,-6729181 10277,-6729221 10296,-6729227 10306,-6729231 10297,-6729248 10209,-6729461 10227,-6729593 10313,-6729819 10432,-6729869 10453,-6729891 10472,-6729921 10484,-6729952 10490,-6729980 10489,-6730010 10490,-6730030 10541,-6730047 10557,-6730052 10554,-6730055 10540,-6730086 10525,-6730123 10502,-6730174 10463,-6730269 10432,-6730341 10424,-6730357 10414,-6730375 10392,-6730412 10333,-6730491 10273,-6730554 10335,-6730579 10424,-6730625 10562,-6730702 10695,-6730772 10743,-6730793 10801,-6730809 10813,-6730814 10848,-6730834 10867,-6730846 10916,-6730885 11072,-6730559 11150,-6730401 11307,-6730462 11512,-6730532 11559,-6730370 11588,-6730380 11685,-6730417 11754,-6730442 11802,-6730461 11917,-6730500 11983,-6730531 12204,-6730623 12234,-6730646 12629,-6730908 12883,-6731080 12992,-6731154 12993,-6731154 13203,-6730875 13281,-6730875 13350,-6730913 13396,-6730944 13455,-6730999 13467,-6731009 13482,-6731020 13511,-6731038 13586,-6731088 13605,-6731096 13617,-6731102 13640,-6731117 13727,-6731190 13747,-6731201 13792,-6731231 13825,-6731258 13836,-6731269 13850,-6731286 13893,-6731351 13906,-6731377 13915,-6731401 13936,-6731487 13954,-6731519 13993,-6731575 14037,-6731642 14117,-6731676 14142,-6731688 14147,-6731691 14169,-6731712 14183,-6731721 14189,-6731724 14206,-6731729 14238,-6731745 14256,-6731757 14273,-6731782 14294,-6731800 14312,-6731814 14346,-6731831 14381,-6731964 14494,-6731994 14538,-6732018 14587,-6732046 14615,-6732060 14718,-6732102 14731,-6732109 14766,-6732142 14813,-6732176 14936,-6732270 15086,-6732329 15118,-6732342 15140,-6732348 15151,-6732351 15157,-6732352 15166,-6732351 15284,-6732350 15298,-6732353 15308,-6732353 15316,-6732352 15325,-6732348 15355,-6732348 15382,-6732341 15499,-6732120 15597,-6731946 15618,-6731915 15647,-6731879 15661,-6731865 15677,-6731843 15683,-6731834 15692,-6731816 15805,-6731614 15819,-6731578 15828,-6731567 15833,-6731561 15861,-6731519 15880,-6731485 15906,-6731437 15932,-6731393 15941,-6731378 15951,-6731351 15962,-6731322 16003,-6731235 16021,-6731204 16036,-6731175 16056,-6731154 16068,-6731136 16085,-6731111 16111,-6731029 16123,-6731000 16137,-6730967 16146,-6730922 16156,-6730872 16162,-6730854 16169,-6730841 16175,-6730826 16177,-6730812 16177,-6730797 16183,-6730774 16191,-6730747 16197,-6730729 16207,-6730712 16226,-6730692 16245,-6730672 16256,-6730655 16265,-6730643 16265,-6730642 16306,-6730584 16323,-6730552 16348,-6730502 16359,-6730468 16391,-6730401 16402,-6730377 16409,-6730360 16419,-6730334 16429,-6730293 16451,-6730186 16456,-6730120 16458,-6730037 16469,-6729981 16482,-6729933 16493,-6729892 16503,-6729868 16518,-6729804 16536,-6729751 16543,-6729721 16554,-6729677 16555,-6729637 16555,-6729615 16559,-6729602 16558,-6729552 16559,-6729508 16559,-6729473 16563,-6729442 16558,-6729380 16544,-6729289 16532,-6729241 16528,-6729218 16528,-6729185 16530,-6729146 16540,-6729055 16538,-6728997 16541,-6728985 16543,-6728926 16547,-6728901 16555,-6728865 16566,-6728813 16576,-6728784 16589,-6728756 16583,-6728745 16598,-6728721 16611,-6728699 16643,-6728641 16599,-6728443 16593,-6728415 16584,-6728398 16584,-6728393 16583,-6728356 16576,-6728321 16574,-6728308 16545,-6728166 16514,-6727999 16504,-6727955 16502,-6727947 16498,-6727934 16491,-6727939 16480,-6727946 16429,-6727969 16318,-6728020 16214,-6727914 15900,-6727608 15803,-6727512 15799,-6727507 15726,-6727430 15649,-6727355 15455,-6727164 15327,-6727037 15316,-6727023 15303,-6727021 15296,-6727008 15225,-6726957 15111,-6726866 14827,-6726647 14706,-6726554 14536,-6726420 14425,-6726338 14444,-6726256 14456,-6726213 14475,-6726147 14496,-6726095 14523,-6726036 14543,-6725987 14586,-6725884 14495,-6725860 14460,-6725851 14442,-6725845 14417,-6725836 14308,-6725804 14081,-6725747 14070,-6725742 14180,-6725331 14165,-6725242 14210,-6725234 14252,-6725073 14258,-6725049 14248,-6724961 14246,-6724939 14226,-6724919 14223,-6724877 14224,-6724829 14388,-6724808 14666,-6724779 14713,-6724776 14756,-6724772 14762,-6724763 14765,-6724759 14781,-6724729 14801,-6724698 14792,-6724694 14795,-6724689 14809,-6724653 14811,-6724649 14811,-6724650 14829,-6724656 14847,-6724612 14859,-6724576 14867,-6724530 14566,-6724424 14563,-6724423 14550,-6724368 14565,-6724372 14569,-6724373 14594,-6724302 14582,-6724295 14595,-6724241 14605,-6724195 14618,-6724139 14627,-6724102 14628,-6724071 14628,-6724061 14653,-6724015 14454,-6723911 14382,-6723878 14384,-6723828 14389,-6723776 14394,-6723753 14394,-6723668 14393,-6723601 14397,-6723549 14401,-6723547 14402,-6723546 14402,-6723518 14403,-6723495 14404,-6723490 14409,-6723455 14410,-6723453 14433,-6723402 14452,-6723370 14480,-6723302 14482,-6723297 14539,-6723329 14567,-6723353 14573,-6723347 14569,-6723332 14575,-6723321 14589,-6723274 14605,-6723216 14609,-6723210 14647,-6723075 14648,-6723074 14561,-6723050 14463,-6723022 14464,-6723010 14466,-6722980 14473,-6722971 14473,-6722954 14471,-6722915 14473,-6722889 14477,-6722881 14484,-6722867 14508,-6722875 14514,-6722871 14517,-6722869 14521,-6722860 14523,-6722840 14525,-6722804 14523,-6722795 14515,-6722747 14497,-6722687 14479,-6722629 14453,-6722571 14439,-6722535 14431,-6722501 14430,-6722457 14435,-6722420 14438,-6722406 14443,-6722359 14443,-6722346 14444,-6722337 14434,-6722283 14418,-6722183 14405,-6722145 14401,-6722142 14398,-6722125 14396,-6722115 14336,-6722113 14319,-6722110 14302,-6722107 14275,-6722096 14247,-6722083 14209,-6722055 14190,-6722036 14172,-6722011 14148,-6721967 14127,-6721936 14101,-6721901 14078,-6721878 14026,-6721837 13995,-6721806 13974,-6721780 13953,-6721762 13916,-6721732 13887,-6721707 13356,-6721544 13321,-6721534 13305,-6721527 13284,-6721517 13253,-6721504 13235,-6721444 13333,-6721401 13216,-6721125 13080,-6720805 13118,-6720782 13165,-6720762 13239,-6720739 13415,-6720694 13243,-6720480 13147,-6720480 13138,-6720488 13042,-6720487 13044,-6720399 12618,-6720475 12597,-6720388 12551,-6720332 12705,-6720207 12705,-6720206 12711,-6720171 12713,-6720169 12774,-6720118 12773,-6720117 12549,-6719841 12510,-6719793 12510,-6719792 12507,-6719788 12510,-6719702 12460,-6719641 12371,-6719609 12227,-6719629 12070,-6719648 12055,-6719533 12039,-6719535 12035,-6719535 12025,-6719536 11998,-6719538 11978,-6719529 11961,-6719523 11957,-6719520 11948,-6719509 11935,-6719489 11866,-6719399 11823,-6719336 11803,-6719320 11773,-6719288 11739,-6719244 11721,-6719224 11700,-6719205 11667,-6719179 11644,-6719161 11628,-6719150 11605,-6719130 11581,-6719120 11538,-6719101 11490,-6719081 11427,-6719059 11414,-6719050 11382,-6719025 11281,-6718973 11214,-6718943 11165,-6718917 11136,-6718900 11105,-6718883 11087,-6718869 11074,-6718858 11006,-6718799 10959,-6718761 10928,-6718739 10907,-6718725 10891,-6718713 10855,-6718684 10811,-6718660 10754,-6718627 10737,-6718610 10729,-6718604 10648,-6718556 10586,-6718521 10508,-6718479 10482,-6718466 10448,-6718446 10411,-6718422 10391,-6718451 10387,-6718465 10381,-6718466 10372,-6718502 10356,-6718563 10341,-6718628 10337,-6718646 10310,-6718755 10280,-6718878 10277,-6718891 10270,-6718920 10269,-6718949 10272,-6718968 10291,-6719038 10303,-6719082 10310,-6719103 10245,-6719060 10226,-6719031 10209,-6719005 10204,-6718989 10198,-6718968 10191,-6718949 10187,-6718930 10198,-6718886 10200,-6718877 10197,-6718865 10187,-6718858 10175,-6718856 10115,-6718845 10104,-6718836 10092,-6718826 10081,-6718808 10076,-6718801 10065,-6718797 10041,-6718797 10032,-6718795 10014,-6718792 9992,-6718787 9970,-6718783 9906,-6718771 9851,-6718760 9823,-6718756 9800,-6718752 9760,-6718743 9650,-6718720 9605,-6718709 9575,-6718697 9542,-6718677 9486,-6718627 9450,-6718599 9388,-6718556 9367,-6718538 9346,-6718528 9283,-6718492 9272,-6718485 9259,-6718477 9236,-6718464 9223,-6718455 9212,-6718439 9185,-6718416 9167,-6718401 9148,-6718387 9124,-6718380 9108,-6718380 9097,-6718378 9095,-6718377 9092,-6718376 9086,-6718368 9084,-6718356 9088,-6718347 9098,-6718330 9095,-6718320 9085,-6718309 9084,-6718308 9075,-6718302 9074,-6718301 9064,-6718293 9044,-6718288 9039,-6718287 8993,-6718270 8920,-6718233 8863,-6718203 8772,-6718167 8745,-6718156 8733,-6718151 8711,-6718140 8699,-6718127 8695,-6718117 8693,-6718113 8675,-6718097 8660,-6718128 8642,-6718163 8627,-6718193 8627,-6718194 8617,-6718187 8578,-6718161 8553,-6718197 8551,-6718200 8545,-6718194 8542,-6718189 8532,-6718176 8486,-6718143 8441,-6718116 8412,-6718093 8341,-6718073 8291,-6718065 8267,-6718062 8218,-6718056 8178,-6718059 8163,-6718059 8152,-6718058 8153,-6718050 8134,-6718049 8122,-6718048 8095,-6718047 8095,-6718058 8045,-6718058 8015,-6718058 8011,-6718058 8000,-6718026 7998,-6718021 7994,-6718014 7977,-6718021 7919,-6718049 7910,-6718051 7890,-6718055 7834,-6718077 7763,-6718102 7755,-6718105 7750,-6718106 7744,-6718108 7734,-6718111 7724,-6718114 7695,-6718123 7696,-6718137 7609,-6718165 7613,-6718185 7623,-6718225 7635,-6718291 7642,-6718385 7642,-6718423 7646,-6718456 7651,-6718508 7647,-6718574 7640,-6718668 7648,-6718691 7652,-6718724 7648,-6718774 7635,-6718850 7632,-6718877 7625,-6718943 7616,-6719028 7614,-6719048 7599,-6719159 7592,-6719218 7581,-6719367 7564,-6719501 7550,-6719713 7455,-6719706 7441,-6719840 7426,-6719940 7415,-6720011 7400,-6720036 7378,-6720063 7346,-6720103 7313,-6720158 7327,-6720178 7314,-6720197 7278,-6720245 7234,-6720312 7208,-6720298 7196,-6720320 7151,-6720383 7131,-6720405 7099,-6720440 7081,-6720473 6950,-6720410 6843,-6720362 6804,-6720346 6777,-6720337 6737,-6720332 6699,-6720315 6694,-6720317 6687,-6720322 6679,-6720331 6651,-6720361 6646,-6720371 6643,-6720380 6642,-6720388 6642,-6720401 6639,-6720406 6636,-6720409 6629,-6720412 6620,-6720413 6615,-6720412 6602,-6720405 6596,-6720403 6590,-6720403 6584,-6720406 6579,-6720412 6575,-6720420 6575,-6720425 6576,-6720430 6578,-6720436 6578,-6720438 6576,-6720443 6573,-6720447 6569,-6720450 6564,-6720453 6557,-6720456 6545,-6720456 6533,-6720468 6530,-6720479 6528,-6720483 6525,-6720488 6510,-6720501 6505,-6720507 6501,-6720514 6496,-6720529 6490,-6720569 6488,-6720571 6474,-6720581 6467,-6720577 6455,-6720573 6445,-6720572 6433,-6720575 6431,-6720576 6410,-6720597 6377,-6720601 6361,-6720616 6347,-6720642 6349,-6720694 6348,-6720701 6347,-6720707 6343,-6720715 6338,-6720722 6334,-6720726 6330,-6720728 6326,-6720730 6318,-6720728 6313,-6720724 6306,-6720714 6302,-6720709 6297,-6720705 6291,-6720702 6283,-6720700 6278,-6720699 6274,-6720701 6270,-6720703 6267,-6720707 6264,-6720715 6263,-6720725 6263,-6720729 6270,-6720739 6273,-6720747 6274,-6720754 6273,-6720759 6243,-6720796 6212,-6720826 6204,-6720837 6192,-6720846 6179,-6720853 6165,-6720857 6150,-6720859 6120,-6720870 6095,-6720878 6086,-6720879 6079,-6720881 6071,-6720886 6065,-6720892 6062,-6720899 6059,-6720907 6053,-6720922 6051,-6720932 6050,-6720940 6051,-6720955 6055,-6720971 6059,-6721012 6052,-6721026 6041,-6721035 6035,-6721043 6030,-6721051 6027,-6721059 6026,-6721067 6025,-6721076 6027,-6721090 6025,-6721109 6004,-6721115 5989,-6721121 5979,-6721128 5966,-6721138 5960,-6721144 5954,-6721152 5948,-6721162 5941,-6721178 5921,-6721220 5914,-6721229 5910,-6721233 5904,-6721237 5895,-6721240 5881,-6721242 5875,-6721244 5869,-6721246 5863,-6721250 5858,-6721255 5853,-6721262 5847,-6721277 5825,-6721291 5795,-6721307 5759,-6721329 5736,-6721350 5721,-6721371 5678,-6721476 5649,-6721531 5640,-6721550 5614,-6721642 5604,-6721669 5418,-6721582 5355,-6721549 5283,-6721513 5228,-6721489 5155,-6721450 5080,-6721416 4968,-6721358 4889,-6721322 4869,-6721310 4748,-6721254 4711,-6721234 4670,-6721215 4688,-6721159 4706,-6721075 4739,-6720921 4771,-6720791 4792,-6720678 4773,-6720664 4844,-6720611 4907,-6720557 4921,-6720543 4945,-6720519 4951,-6720491 4962,-6720436 4973,-6720397 4993,-6720357 5017,-6720313 5061,-6720237 5108,-6720157 5133,-6720113 5147,-6720080 5155,-6720057 5157,-6720027 5138,-6720031 5044,-6720038 4860,-6720055 4676,-6720070 4650,-6720057 4623,-6720052 4581,-6720054 4467,-6720062 4369,-6720071 4241,-6720084 4140,-6720092 4022,-6720103 3945,-6720105 3937,-6720106 3900,-6720099 3881,-6720093 3796,-6720064 3767,-6720053 3723,-6720035 3677,-6720018 3598,-6719987 3585,-6719984 3537,-6719979 3443,-6719963 3279,-6719941 3257,-6719948 3228,-6719953 3202,-6719955 3139,-6719950 3069,-6719942 2977,-6719927 2824,-6719892 2818,-6720010 2816,-6720158 2753,-6720161 2648,-6720155 2641,-6720171 2625,-6720219 2626,-6720329 2624,-6720346 2622,-6720353 2617,-6720362 2610,-6720373 2602,-6720381 2595,-6720387 2589,-6720390 2580,-6720394 2569,-6720396 2540,-6720383 2516,-6720364 2508,-6720348 2505,-6720269 2469,-6720274 2427,-6720281 2377,-6720290 2327,-6720284 2284,-6720276 2267,-6720287 2236,-6720324 2200,-6720381 2121,-6720495 2078,-6720547 2034,-6720596 2021,-6720615 2009,-6720631 1993,-6720649 1978,-6720671 1910,-6720740 1871,-6720774 1850,-6720791 1815,-6720817 1792,-6720829 1778,-6720834 1760,-6720840 1742,-6720845 1715,-6720850 1673,-6720855 1645,-6720855 1614,-6721016 1582,-6721192 1581,-6721275 1581,-6721276 1583,-6721357 1582,-6721489 1587,-6721569 1591,-6721629 1593,-6721653 1596,-6721742 1601,-6721797 1612,-6721889 1609,-6721958 1739,-6721957 1840,-6721960 1914,-6721959 1952,-6721965 1979,-6721973 2003,-6721984 2023,-6721997 2044,-6722013 2060,-6722030 2083,-6722056 2090,-6722070 2098,-6722085 2098,-6722085 2102,-6722094 2106,-6722103 2110,-6722112 2113,-6722121 2116,-6722130 2118,-6722139 2119,-6722144 2120,-6722155 2121,-6722166 2121,-6722177 2120,-6722188 2119,-6722199 2118,-6722201 2116,-6722212 2114,-6722223 2111,-6722233 2107,-6722244 2069,-6722359 2069,-6722360 2053,-6722442 2023,-6722548 1996,-6722650 1972,-6722735 1969,-6722746 1974,-6722755 1983,-6722760 2003,-6722764 2024,-6722769 2034,-6722769 2045,-6722765 2055,-6722755 2075,-6722738 2099,-6722721 2126,-6722713 2132,-6722718 2125,-6722804 2120,-6722902 2112,-6723059 2106,-6723149 2105,-6723167 2091,-6723159 2008,-6723108 1994,-6723136 1982,-6723160 1965,-6723187 1948,-6723210 1930,-6723225 1902,-6723239 1859,-6723258 1835,-6723264 1822,-6723267 1835,-6723305 1876,-6723392 1917,-6723483 1930,-6723507 1938,-6723536 1938,-6723569 1935,-6723629 1934,-6723712 1931,-6723800 1937,-6723911 1941,-6724081 1935,-6724106 1852,-6724392 1825,-6724415 1781,-6724560 1698,-6724843 1709,-6724849 1720,-6724855 1747,-6724871 1731,-6724891 1725,-6724905 1714,-6724932 1700,-6724987 1717,-6724991 1715,-6725025 1718,-6725067 1728,-6725143 1657,-6725146 1572,-6725148 1491,-6725215 1486,-6725272 1480,-6725355 1465,-6725506 1453,-6725613 1441,-6725784 1431,-6725901 1414,-6726083 1408,-6726148 1402,-6726206 1395,-6726294 1393,-6726395 1382,-6726464 1382,-6726499 1389,-6726556 1369,-6726588 1369,-6726607 1366,-6726623 1368,-6726690 1360,-6726708 1360,-6726715 1348,-6726714 1348,-6726811 1353,-6726865 1358,-6726934 1359,-6726947 1372,-6727066 1376,-6727099 1377,-6727107 1378,-6727118 1380,-6727137 1384,-6727165 1386,-6727189 1398,-6727289 1406,-6727389 1405,-6727476 1414,-6727568 1426,-6727708 1434,-6727832 1439,-6727951 1449,-6727979 1475,-6728048 1494,-6728101 1535,-6728187 1577,-6728289 1652,-6728438 1754,-6728669 1900,-6728991 1916,-6729027 1940,-6729072 1943,-6729080 1946,-6729084 2005,-6729163 2004,-6729176 2013,-6729191 2021,-6729197 2005,-6729205 2037,-6729290 2085,-6729404 2129,-6729513 2131,-6729517 2167,-6729492 2179,-6729485 2165,-6729518 2152,-6729568 2144,-6729595 2144,-6729597 2163,-6729600 2171,-6729601 2174,-6729620 2183,-6729653 2187,-6729669 2191,-6729682 2181,-6729685 2177,-6729687 2189,-6729711 2193,-6729721 2212,-6729752 2250,-6729873 2270,-6729861 2276,-6729873 2305,-6729943 2297,-6729961 2322,-6730021 2346,-6730011 2361,-6730048 2382,-6730118 2360,-6730125 2374,-6730169 2379,-6730197 2382,-6730228 2382,-6730249 2381,-6730278 2375,-6730299 2370,-6730313 2366,-6730320 2345,-6730354 2291,-6730432 1812,-6731141 1798,-6731149 1788,-6731156 1761,-6731178 1703,-6731207 1639,-6731240 1508,-6731301 1184,-6731442 1015,-6731518 1005,-6731523 968,-6731540 1007,-6731559 1055,-6731556 1076,-6731560 1085,-6731557 1097,-6731553 1103,-6731544 1105,-6731540 1107,-6731540 1116,-6731540 1128,-6731536 1129,-6731537 1138,-6731546 1139,-6731555 1141,-6731554 1152,-6731546 1157,-6731542 1170,-6731530 1191,-6731517 1213,-6731535 1249,-6731538 1277,-6731544 1319,-6731544 1365,-6731543 1409,-6731539 1560,-6731506 1583,-6731503 1598,-6731505 1617,-6731509 1636,-6731600 1641,-6731624 1640,-6731661 1633,-6731696 1623,-6731719 1610,-6731740 1596,-6731760 1600,-6731765 1610,-6731777 1615,-6731778 1631,-6731780 1641,-6731786 1654,-6731805 1676,-6731826 1686,-6731839 1699,-6731853 1699,-6731861 1700,-6731864 1727,-6731857 1731,-6731857 1738,-6731861 1746,-6731869 1763,-6731869 1764,-6731871 1782,-6731912 1783,-6731917 1784,-6731917 1800,-6731925 1811,-6731936 1816,-6731944 1815,-6731959 1812,-6731963 1806,-6731967 1801,-6731968 1798,-6731969 1796,-6731974 1797,-6731976 1808,-6731994 1809,-6731997 1810,-6732001 1805,-6732024 1813,-6732031 1845,-6732036 1889,-6732053 1893,-6732056 1898,-6732061 1902,-6732066 1905,-6732072 1907,-6732083 1906,-6732089 1905,-6732107 1897,-6732125 1896,-6732127 1898,-6732127 1903,-6732130 1913,-6732132 1922,-6732135 1933,-6732135 1943,-6732122 1946,-6732121 1958,-6732120 1972,-6732129 1996,-6732149 2013,-6732163 2028,-6732176 2035,-6732186 2038,-6732190 2049,-6732198 2058,-6732208 2062,-6732217 2068,-6732231 2076,-6732259 2090,-6732272 2096,-6732279 2098,-6732286 2096,-6732297 2090,-6732306 2083,-6732314 2070,-6732317 2058,-6732330 2057,-6732339 2067,-6732344 2080,-6732346 2094,-6732347 2102,-6732348 2107,-6732350 2113,-6732353 2122,-6732360 2124,-6732366 2123,-6732377 2118,-6732380 2106,-6732371 2097,-6732378 2092,-6732387 2090,-6732396 2095,-6732417 2089,-6732431 2075,-6732432 2071,-6732440 2071,-6732451 2075,-6732455 2099,-6732453 2118,-6732474 2119,-6732558 2120,-6732575 2133,-6732581 2145,-6732586 2147,-6732591 2147,-6732594 2131,-6732608 2164,-6732643 2170,-6732664 2170,-6732674 2167,-6732686 2167,-6732703 2163,-6732715 2169,-6732730 2185,-6732746 2206,-6732768 2205,-6732772 2206,-6732773 2205,-6732773 2202,-6732793 2207,-6732799 2221,-6732805 2236,-6732822 2236,-6732832 2236,-6732858 2240,-6732864 2244,-6732877 2244,-6732884 2244,-6732888 2244,-6732890 2220,-6732922 2220,-6732929 2220,-6732940 2220,-6732952 2220,-6732959 2220,-6732959 2220,-6732965 2255,-6733002 2261,-6733009 2275,-6733007 2282,-6733010 2287,-6733015 2292,-6733022 2295,-6733033 2295,-6733043 2290,-6733057 2288,-6733071 2280,-6733082 2281,-6733091 2290,-6733114 2291,-6733129 2291,-6733139 2303,-6733165 2304,-6733177 2300,-6733187 2301,-6733189 2303,-6733193 2317,-6733192 2338,-6733199 2344,-6733197 2351,-6733195 2351,-6733198 2353,-6733204 2353,-6733214 2347,-6733227 2335,-6733244 2328,-6733265 2328,-6733281 2334,-6733291 2336,-6733305 2343,-6733307 2360,-6733294 2371,-6733288 2376,-6733291 2379,-6733292 2383,-6733301 2370,-6733312 2377,-6733322 2379,-6733324 2403,-6733308 2428,-6733289" stroke="#003087" stroke-width="30" /></ns0:svg>    <rect x="20" y="50"  width="250" height="25"  rx="0"  fill="#003087" fill-opacity="0.8" />    <text x="145" y="70" text-anchor="middle" font-family="Frutiger" font-weight="bold" font-size="30" fill="white">Redbridge</text>    <rect x="35" y="195" width="220" height="160" rx="15" fill="#41B6E6"/>    <g font-family="Frutiger" font-size="15" fill="white">        <g> <text x="45" y="218">Self-harm</text> <text x="245" y="218" text-anchor="end">2</text> </g>        <g> <text x="45" y="243">SEN</text> <text x="245" y="243" text-anchor="end">21</text> </g>        <g> <text x="45" y="268">Difficulties</text> <text x="245" y="268" text-anchor="end">62</text> </g>        <g> <text x="45" y="293">Child Carer</text> <text x="245" y="293" text-anchor="end">8</text> </g>        <g> <text x="45" y="318">Drinkers</text> <text x="245" y="318" text-anchor="end">0</text> </g>        <g> <text x="45" y="343">Safeguarding £</text> <text x="245" y="343" text-anchor="end">20</text> </g>    </g></svg>