<?xml version="1.0" standalone="no"?>
<!DOCTYPE svg PUBLIC "-//W3C//DTD SVG 1.1//EN"
"http://www.w3.org/Graphics/SVG/1.1/DTD/svg11.dtd">
<svg height="1800" version="1.1" width="1800" xmlns="http://www.w3.org/2000/svg"><defs><style type="text/css">@font-face {font-family: 'Frutiger';font-style: normal;font-weight: normal;src: local('Frutiger'), url('../fonts/Frutiger.woff') format('woff');}@font-face {font-family: 'Frutiger Bold';font-style: normal;font-weight: normal;src: local('Frutiger Bold'), url('../fonts/Frutiger_bold.woff') format('woff');}        </style>    </defs>    <rect x="20" y="20"  width="250" height="350" rx="15" fill="#009639" />    <rect x="35" y="35"  width="220" height="145" rx="15" fill="#E8EDEE" /><ns0:svg xmlns:ns0="http://www.w3.org/2000/svg" height="115" version="1.1" viewBox="7422 -6728020 13752 16233" width="220" x="35" y="50"><ns0:polygon fill="#006747" points=" 16486,-6727476 16484,-6727467 16675,-6727593 16680,-6727597 16708,-6727536 16754,-6727447 16793,-6727366 16826,-6727303 16809,-6727175 16796,-6727005 16783,-6726938 16779,-6726788 16764,-6726559 16781,-6726505 16803,-6726419 16821,-6726349 16828,-6726293 16829,-6726239 16834,-6726172 16829,-6726044 16824,-6725916 16819,-6725718 16810,-6725473 16806,-6725286 16804,-6725210 16789,-6725151 16770,-6725086 16749,-6725054 16700,-6725000 16663,-6724959 16590,-6724820 16538,-6724709 16520,-6724672 16416,-6724679 16402,-6724452 16392,-6724166 16387,-6724093 16384,-6724041 16370,-6723888 16365,-6723763 16482,-6723781 16490,-6723753 16498,-6723699 16501,-6723677 16498,-6723653 16488,-6723572 16480,-6723529 16480,-6723449 16482,-6723408 16482,-6723340 16468,-6723307 16466,-6723304 16585,-6723325 16610,-6723094 16618,-6723008 16603,-6723004 16618,-6722833 16621,-6722795 16642,-6722772 16662,-6722764 16667,-6722725 16673,-6722692 16497,-6722666 16327,-6722641 16334,-6722605 16347,-6722568 16340,-6722560 16338,-6722546 16340,-6722526 16360,-6722527 16379,-6722525 16393,-6722517 16401,-6722508 16408,-6722489 16561,-6722499 16581,-6722470 16626,-6722409 16636,-6722405 16653,-6722406 16674,-6722406 16678,-6722405 16685,-6722402 16692,-6722397 16696,-6722391 16699,-6722380 16707,-6722368 16727,-6722360 16740,-6722356 16765,-6722351 16785,-6722349 16794,-6722349 16802,-6722356 16810,-6722364 16827,-6722391 16834,-6722394 16841,-6722397 16860,-6722386 16897,-6722358 16963,-6722294 16987,-6722263 17054,-6722195 17105,-6722139 17152,-6722082 17176,-6722055 17218,-6722009 17233,-6721992 17268,-6721948 17281,-6721935 17308,-6721910 17322,-6721899 17348,-6721888 17362,-6721881 17390,-6721865 17404,-6721857 17427,-6721831 17445,-6721805 17488,-6721764 17552,-6721708 17581,-6721676 17589,-6721668 17612,-6721674 17644,-6721643 17668,-6721611 17691,-6721588 17718,-6721566 17754,-6721533 17788,-6721506 17806,-6721469 17811,-6721457 17820,-6721425 17836,-6721408 17867,-6721383 17873,-6721369 17878,-6721355 17889,-6721328 17893,-6721327 17922,-6721311 17962,-6721295 17978,-6721283 17998,-6721266 18012,-6721252 18022,-6721243 18082,-6721275 18117,-6721296 18147,-6721311 18191,-6721335 18238,-6721363 18302,-6721404 18357,-6721437 18403,-6721464 18443,-6721486 18458,-6721503 18490,-6721520 18519,-6721541 18543,-6721551 18562,-6721556 18611,-6721569 18655,-6721573 18682,-6721578 18697,-6721581 18740,-6721588 18759,-6721596 18771,-6721600 18794,-6721612 18813,-6721626 18833,-6721645 18862,-6721666 18888,-6721681 18917,-6721694 18930,-6721701 18942,-6721709 18966,-6721725 18991,-6721737 19064,-6721781 19086,-6721791 19135,-6721809 19161,-6721818 19210,-6721824 19245,-6721829 19266,-6721845 19304,-6721868 19349,-6721864 19442,-6721838 19527,-6721818 19545,-6721813 19596,-6721802 19625,-6721799 19677,-6721811 19699,-6721815 19753,-6721825 19827,-6721836 19888,-6721840 19931,-6721839 19981,-6721832 20059,-6721829 20075,-6721822 20097,-6721822 20163,-6721804 20194,-6721803 20201,-6721807 20214,-6721815 20244,-6721813 20249,-6721810 20334,-6721802 20385,-6721793 20406,-6721789 20428,-6721785 20443,-6721799 20464,-6721816 20517,-6721860 20612,-6721941 20614,-6721942 20606,-6721891 20604,-6721852 20605,-6721830 20606,-6721824 20608,-6721817 20610,-6721813 20613,-6721805 20598,-6721790 20571,-6721752 20554,-6721731 20535,-6721710 20505,-6721679 20493,-6721664 20484,-6721648 20479,-6721630 20467,-6721579 20446,-6721499 20440,-6721480 20434,-6721473 20431,-6721459 20423,-6721447 20423,-6721442 20414,-6721423 20394,-6721363 20348,-6721251 20332,-6721190 20340,-6721184 20348,-6721165 20358,-6721153 20368,-6721140 20389,-6721123 20419,-6721086 20439,-6721057 20502,-6721018 20503,-6721018 20545,-6720993 20548,-6720987 20553,-6720968 20564,-6720948 20571,-6720929 20570,-6720922 20565,-6720898 20564,-6720877 20568,-6720859 20565,-6720846 20570,-6720831 20577,-6720816 20575,-6720770 20572,-6720752 20550,-6720727 20546,-6720721 20550,-6720693 20550,-6720684 20546,-6720670 20549,-6720650 20543,-6720629 20535,-6720611 20530,-6720590 20535,-6720578 20532,-6720562 20531,-6720554 20530,-6720539 20531,-6720532 20542,-6720513 20561,-6720494 20572,-6720471 20578,-6720456 20572,-6720443 20569,-6720425 20583,-6720395 20599,-6720386 20598,-6720370 20589,-6720356 20574,-6720352 20567,-6720352 20568,-6720330 20568,-6720315 20589,-6720306 20647,-6720312 20671,-6720308 20694,-6720300 20703,-6720283 20733,-6720265 20746,-6720231 20759,-6720219 20800,-6720207 20807,-6720200 20813,-6720193 20815,-6720172 20820,-6720158 20839,-6720146 20860,-6720123 20871,-6720100 20883,-6720083 20887,-6720066 20898,-6720033 20893,-6720020 20881,-6720009 20874,-6719996 20879,-6719975 20888,-6719963 20907,-6719962 20926,-6719957 20935,-6719944 20928,-6719927 20918,-6719921 20911,-6719909 20918,-6719895 20934,-6719887 20956,-6719882 20987,-6719855 20990,-6719833 20999,-6719813 21016,-6719797 21033,-6719788 21041,-6719781 21048,-6719774 21061,-6719757 21068,-6719751 21076,-6719745 21098,-6719736 21116,-6719724 21146,-6719671 21162,-6719659 21173,-6719645 21174,-6719639 21167,-6719634 21161,-6719629 21152,-6719614 21153,-6719596 21151,-6719577 21143,-6719561 21132,-6719541 21121,-6719521 21117,-6719484 21114,-6719457 21111,-6719436 21107,-6719425 21083,-6719420 21065,-6719413 21056,-6719398 21031,-6719369 20983,-6719322 20955,-6719288 20871,-6719200 20871,-6719178 20868,-6719166 20865,-6719153 20850,-6719116 20846,-6719102 20844,-6719076 20840,-6719070 20824,-6719051 20811,-6719012 20799,-6718970 20791,-6718955 20790,-6718946 20785,-6718929 20784,-6718913 20771,-6718871 20762,-6718841 20747,-6718797 20740,-6718789 20726,-6718764 20712,-6718736 20709,-6718729 20707,-6718724 20694,-6718687 20684,-6718669 20660,-6718657 20643,-6718651 20634,-6718648 20604,-6718635 20589,-6718626 20536,-6718584 20505,-6718559 20468,-6718530 20447,-6718519 20436,-6718507 20395,-6718473 20361,-6718447 20349,-6718431 20326,-6718420 20326,-6718410 20309,-6718399 20237,-6718325 20226,-6718314 20211,-6718285 20193,-6718247 20175,-6718220 20159,-6718203 20133,-6718172 20100,-6718138 20081,-6718110 20066,-6718076 20049,-6718046 20042,-6717999 20042,-6717995 20040,-6717979 20021,-6717950 20019,-6717947 20019,-6717916 20019,-6717889 20011,-6717880 20003,-6717856 19999,-6717838 19996,-6717793 19998,-6717738 19998,-6717732 20005,-6717718 20009,-6717703 20010,-6717699 20007,-6717686 20000,-6717677 19998,-6717665 19998,-6717662 20003,-6717643 20002,-6717617 19995,-6717595 19988,-6717568 19982,-6717532 19972,-6717502 19960,-6717477 19958,-6717470 19958,-6717455 19957,-6717445 19956,-6717438 19956,-6717434 19951,-6717426 19933,-6717413 19919,-6717403 19904,-6717387 19900,-6717382 19887,-6717364 19869,-6717335 19848,-6717314 19839,-6717308 19831,-6717298 19825,-6717295 19811,-6717291 19807,-6717290 19796,-6717290 19780,-6717289 19753,-6717291 19735,-6717283 19703,-6717261 19687,-6717253 19648,-6717234 19632,-6717219 19611,-6717202 19572,-6717173 19533,-6717143 19484,-6717105 19470,-6717089 19453,-6717066 19430,-6717037 19363,-6716947 19348,-6716911 19304,-6716809 19273,-6716742 19213,-6716642 19195,-6716597 19189,-6716588 19187,-6716573 19179,-6716545 19175,-6716531 19163,-6716504 19156,-6716494 19150,-6716482 19146,-6716462 19141,-6716445 19140,-6716441 19136,-6716419 19135,-6716395 19140,-6716371 19139,-6716356 19139,-6716349 19136,-6716340 19130,-6716330 19126,-6716309 19118,-6716285 19110,-6716267 19108,-6716262 19097,-6716249 19086,-6716232 19081,-6716215 19076,-6716194 19063,-6716171 19054,-6716141 19052,-6716137 19042,-6716119 19017,-6716064 19012,-6716055 18994,-6716038 18981,-6716028 18976,-6716024 18967,-6716014 18952,-6715995 18940,-6715981 18906,-6715937 18885,-6715914 18878,-6715906 18861,-6715885 18842,-6715859 18804,-6715823 18787,-6715808 18778,-6715798 18774,-6715791 18772,-6715786 18767,-6715772 18764,-6715762 18758,-6715753 18746,-6715742 18730,-6715737 18720,-6715734 18710,-6715727 18702,-6715718 18695,-6715706 18690,-6715690 18688,-6715675 18684,-6715656 18675,-6715641 18670,-6715636 18654,-6715620 18648,-6715606 18647,-6715592 18645,-6715585 18644,-6715581 18642,-6715578 18638,-6715574 18628,-6715566 18619,-6715561 18608,-6715555 18604,-6715553 18591,-6715547 18582,-6715540 18573,-6715530 18568,-6715522 18562,-6715510 18552,-6715491 18544,-6715477 18538,-6715468 18534,-6715460 18532,-6715421 18531,-6715420 18522,-6715410 18508,-6715394 18506,-6715389 18492,-6715382 18488,-6715380 18480,-6715370 18472,-6715343 18465,-6715335 18449,-6715332 18444,-6715331 18430,-6715323 18421,-6715304 18414,-6715279 18404,-6715247 18392,-6715210 18383,-6715183 18369,-6715157 18362,-6715139 18358,-6715134 18338,-6715101 18310,-6715062 18308,-6715059 18308,-6715057 18305,-6715046 18309,-6715026 18312,-6715009 18309,-6715002 18299,-6714977 18264,-6714906 18259,-6714890 18257,-6714881 18257,-6714873 18257,-6714861 18259,-6714845 18265,-6714825 18265,-6714816 18264,-6714806 18261,-6714795 18254,-6714781 18243,-6714765 18236,-6714758 18230,-6714749 18227,-6714736 18226,-6714728 18227,-6714715 18223,-6714692 18206,-6714654 18194,-6714606 18160,-6714541 18141,-6714491 18127,-6714425 18116,-6714354 18112,-6714341 18099,-6714312 18072,-6714217 18065,-6714202 18063,-6714191 18062,-6714180 18064,-6714167 18073,-6714122 18074,-6714111 18074,-6714098 18070,-6714063 18063,-6714030 18017,-6713871 18003,-6713821 17979,-6713733 17963,-6713677 17960,-6713657 17946,-6713595 17930,-6713567 17925,-6713546 17923,-6713534 17920,-6713516 17901,-6713465 17886,-6713415 17875,-6713382 17868,-6713367 17861,-6713346 17849,-6713308 17844,-6713281 17834,-6713265 17829,-6713245 17803,-6713160 17793,-6713123 17795,-6713110 17784,-6713091 17775,-6713066 17757,-6712987 17719,-6712813 17725,-6712806 17723,-6712790 17718,-6712786 17708,-6712742 17695,-6712694 17695,-6712657 17693,-6712641 17695,-6712624 17697,-6712604 17692,-6712579 17693,-6712554 17684,-6712503 17678,-6712454 17670,-6712408 17668,-6712398 17654,-6712303 17633,-6712171 17621,-6712089 17607,-6711999 17593,-6711902 17577,-6711800 17577,-6711787 17414,-6711806 17220,-6711843 17063,-6711874 16991,-6711893 16824,-6711950 16694,-6711989 16611,-6712023 16488,-6712072 16351,-6712136 16093,-6712291 15972,-6712366 15847,-6712452 15684,-6712552 15579,-6712617 15481,-6712681 15364,-6712736 15236,-6712789 15134,-6712829 14874,-6712902 14774,-6712938 14674,-6712953 14533,-6712979 14363,-6712995 14341,-6712997 14277,-6712998 14220,-6712997 14141,-6712992 14062,-6712985 13949,-6712979 13948,-6712979 13941,-6712978 13850,-6712959 13791,-6712945 13736,-6712929 13688,-6712912 13610,-6712880 13564,-6712862 13537,-6712851 13484,-6712828 13446,-6712810 13410,-6712791 13359,-6712763 13284,-6712717 13171,-6712648 13104,-6712617 12981,-6712569 12923,-6712560 12820,-6712537 12747,-6712514 12668,-6712486 12518,-6712432 12472,-6712414 12379,-6712375 12273,-6712334 12224,-6712322 12127,-6712302 12046,-6712286 12023,-6712282 11988,-6712278 11934,-6712276 11871,-6712276 11816,-6712280 11775,-6712283 11651,-6712293 11522,-6712301 11402,-6712318 11232,-6712350 11102,-6712347 11105,-6712648 11112,-6712809 11032,-6712841 10978,-6712887 10921,-6712938 10869,-6712984 10808,-6713014 10730,-6713055 10669,-6713108 10642,-6713139 10631,-6713152 10606,-6713190 10592,-6713213 10580,-6713235 10564,-6713268 10548,-6713336 10536,-6713382 10531,-6713418 10529,-6713462 10531,-6713484 10534,-6713513 10540,-6713543 10566,-6713766 10571,-6713795 10579,-6713823 10581,-6713830 10583,-6713850 10580,-6713873 10566,-6713899 10558,-6713911 10554,-6713917 10547,-6713926 10535,-6713939 10507,-6713967 10451,-6714037 10361,-6714150 10307,-6714222 10298,-6714240 10292,-6714287 10283,-6714320 10284,-6714336 10288,-6714379 10289,-6714427 10291,-6714468 10301,-6714494 10307,-6714509 10326,-6714608 10336,-6714658 10340,-6714696 10338,-6714724 10326,-6714787 10310,-6714814 10301,-6714823 10283,-6714836 10270,-6714847 10256,-6714854 10230,-6714861 10207,-6714861 10164,-6714852 10150,-6714849 10133,-6714846 10119,-6714846 10108,-6714847 10097,-6714848 10084,-6714852 10072,-6714856 10063,-6714861 10052,-6714868 10042,-6714876 10035,-6714883 10014,-6714911 10005,-6714921 9982,-6714942 9969,-6714949 9955,-6714955 9935,-6714957 9928,-6714957 9889,-6714956 9852,-6714948 9808,-6714939 9750,-6714915 9685,-6714882 9667,-6714872 9652,-6714863 9627,-6714848 9612,-6714840 9593,-6714835 9572,-6714833 9531,-6714834 9480,-6714850 9446,-6714868 9416,-6714889 9364,-6714933 9309,-6714984 9260,-6715016 9228,-6715034 9195,-6715051 9125,-6715082 9091,-6715095 9058,-6715107 9022,-6715124 9011,-6715130 8986,-6715142 8970,-6715153 8961,-6715162 8949,-6715173 8923,-6715201 8896,-6715234 8858,-6715280 8829,-6715317 8781,-6715387 8733,-6715436 8713,-6715450 8676,-6715466 8663,-6715470 8653,-6715473 8600,-6715474 8555,-6715479 8518,-6715491 8491,-6715505 8485,-6715508 8479,-6715514 8470,-6715523 8425,-6715525 8415,-6715528 8408,-6715531 8404,-6715535 8406,-6715554 8406,-6715557 8403,-6715562 8394,-6715565 8385,-6715563 8362,-6715542 8327,-6715532 8317,-6715527 8308,-6715526 8302,-6715530 8295,-6715531 8290,-6715530 8268,-6715519 8252,-6715521 8172,-6715484 8147,-6715472 8147,-6715472 8131,-6715466 8121,-6715461 8108,-6715458 8097,-6715455 8097,-6715508 8093,-6715584 8085,-6715670 8081,-6715726 8074,-6715797 8058,-6715888 8041,-6715989 8015,-6716094 8008,-6716113 7987,-6716105 7985,-6716110 7981,-6716126 7957,-6716184 7946,-6716211 7929,-6716257 7842,-6716465 7817,-6716519 7814,-6716527 7771,-6716622 7755,-6716664 7747,-6716682 7737,-6716705 7734,-6716711 7725,-6716720 7703,-6716721 7668,-6716701 7659,-6716697 7651,-6716697 7642,-6716700 7623,-6716703 7606,-6716703 7594,-6716700 7586,-6716695 7579,-6716689 7578,-6716687 7577,-6716676 7572,-6716684 7565,-6716694 7573,-6716705 7579,-6716712 7585,-6716718 7599,-6716739 7604,-6716775 7605,-6716802 7601,-6716836 7671,-6716872 7664,-6716883 7638,-6716934 7624,-6716960 7599,-6717008 7565,-6717080 7531,-6717148 7505,-6717198 7495,-6717220 7480,-6717252 7457,-6717305 7443,-6717352 7436,-6717389 7433,-6717409 7431,-6717432 7424,-6717470 7422,-6717529 7424,-6717556 7427,-6717587 7428,-6717601 7429,-6717608 7431,-6717621 7433,-6717634 7435,-6717648 7438,-6717661 7441,-6717674 7445,-6717688 7466,-6717763 7486,-6717824 7501,-6717865 7539,-6717949 7567,-6718021 7590,-6718088 7602,-6718136 7604,-6718142 7604,-6718143 7609,-6718165 7696,-6718137 7695,-6718123 7724,-6718114 7734,-6718111 7744,-6718108 7750,-6718106 7755,-6718105 7763,-6718102 7834,-6718077 7890,-6718055 7910,-6718051 7919,-6718049 7977,-6718021 7994,-6718014 7998,-6718021 8000,-6718026 8011,-6718058 8015,-6718058 8045,-6718058 8095,-6718058 8095,-6718047 8122,-6718048 8134,-6718049 8153,-6718050 8152,-6718058 8163,-6718059 8178,-6718059 8218,-6718056 8267,-6718062 8291,-6718065 8341,-6718073 8412,-6718093 8441,-6718116 8486,-6718143 8532,-6718176 8542,-6718189 8545,-6718194 8551,-6718200 8553,-6718197 8578,-6718161 8617,-6718187 8627,-6718194 8627,-6718193 8642,-6718163 8660,-6718128 8675,-6718097 8693,-6718113 8695,-6718117 8699,-6718127 8711,-6718140 8733,-6718151 8745,-6718156 8772,-6718167 8863,-6718203 8920,-6718233 8993,-6718270 9039,-6718287 9044,-6718288 9064,-6718293 9074,-6718301 9075,-6718302 9084,-6718308 9085,-6718309 9095,-6718320 9098,-6718330 9088,-6718347 9084,-6718356 9086,-6718368 9092,-6718376 9095,-6718377 9097,-6718378 9108,-6718380 9124,-6718380 9148,-6718387 9167,-6718401 9185,-6718416 9212,-6718439 9223,-6718455 9236,-6718464 9259,-6718477 9272,-6718485 9283,-6718492 9346,-6718528 9367,-6718538 9388,-6718556 9450,-6718599 9486,-6718627 9542,-6718677 9575,-6718697 9605,-6718709 9650,-6718720 9760,-6718743 9800,-6718752 9823,-6718756 9851,-6718760 9906,-6718771 9970,-6718783 9992,-6718787 10014,-6718792 10032,-6718795 10041,-6718797 10065,-6718797 10076,-6718801 10081,-6718808 10092,-6718826 10104,-6718836 10115,-6718845 10175,-6718856 10187,-6718858 10197,-6718865 10200,-6718877 10198,-6718886 10187,-6718930 10191,-6718949 10198,-6718968 10204,-6718989 10209,-6719005 10226,-6719031 10245,-6719060 10310,-6719103 10303,-6719082 10291,-6719038 10272,-6718968 10269,-6718949 10270,-6718920 10277,-6718891 10280,-6718878 10310,-6718755 10337,-6718646 10341,-6718628 10356,-6718563 10372,-6718502 10381,-6718466 10387,-6718465 10391,-6718451 10411,-6718422 10448,-6718446 10482,-6718466 10508,-6718479 10586,-6718521 10648,-6718556 10729,-6718604 10737,-6718610 10754,-6718627 10811,-6718660 10855,-6718684 10891,-6718713 10907,-6718725 10928,-6718739 10959,-6718761 11006,-6718799 11074,-6718858 11087,-6718869 11105,-6718883 11136,-6718900 11165,-6718917 11214,-6718943 11281,-6718973 11382,-6719025 11414,-6719050 11427,-6719059 11490,-6719081 11538,-6719101 11581,-6719120 11605,-6719130 11628,-6719150 11644,-6719161 11667,-6719179 11700,-6719205 11721,-6719224 11739,-6719244 11773,-6719288 11803,-6719320 11823,-6719336 11866,-6719399 11935,-6719489 11948,-6719509 11957,-6719520 11961,-6719523 11978,-6719529 11998,-6719538 12025,-6719536 12035,-6719535 12039,-6719535 12055,-6719533 12070,-6719648 12227,-6719629 12371,-6719609 12460,-6719641 12510,-6719702 12507,-6719788 12510,-6719792 12510,-6719793 12549,-6719841 12773,-6720117 12774,-6720118 12713,-6720169 12711,-6720171 12705,-6720206 12705,-6720207 12551,-6720332 12597,-6720388 12618,-6720475 13044,-6720399 13042,-6720487 13138,-6720488 13147,-6720480 13243,-6720480 13415,-6720694 13239,-6720739 13165,-6720762 13118,-6720782 13080,-6720805 13216,-6721125 13333,-6721401 13235,-6721444 13253,-6721504 13284,-6721517 13305,-6721527 13321,-6721534 13356,-6721544 13887,-6721707 13916,-6721732 13953,-6721762 13974,-6721780 13995,-6721806 14026,-6721837 14078,-6721878 14101,-6721901 14127,-6721936 14148,-6721967 14172,-6722011 14190,-6722036 14209,-6722055 14247,-6722083 14275,-6722096 14302,-6722107 14319,-6722110 14336,-6722113 14396,-6722115 14398,-6722125 14401,-6722142 14405,-6722145 14418,-6722183 14434,-6722283 14444,-6722337 14443,-6722346 14443,-6722359 14438,-6722406 14435,-6722420 14430,-6722457 14431,-6722501 14439,-6722535 14453,-6722571 14479,-6722629 14497,-6722687 14515,-6722747 14523,-6722795 14525,-6722804 14523,-6722840 14521,-6722860 14517,-6722869 14514,-6722871 14508,-6722875 14484,-6722867 14477,-6722881 14473,-6722889 14471,-6722915 14473,-6722954 14473,-6722971 14466,-6722980 14464,-6723010 14463,-6723022 14561,-6723050 14648,-6723074 14647,-6723075 14609,-6723210 14605,-6723216 14589,-6723274 14575,-6723321 14569,-6723332 14573,-6723347 14567,-6723353 14539,-6723329 14482,-6723297 14480,-6723302 14452,-6723370 14433,-6723402 14410,-6723453 14409,-6723455 14404,-6723490 14403,-6723495 14402,-6723518 14402,-6723546 14401,-6723547 14397,-6723549 14393,-6723601 14394,-6723668 14394,-6723753 14389,-6723776 14384,-6723828 14382,-6723878 14454,-6723911 14653,-6724015 14628,-6724061 14628,-6724071 14627,-6724102 14618,-6724139 14605,-6724195 14595,-6724241 14582,-6724295 14594,-6724302 14569,-6724373 14565,-6724372 14550,-6724368 14563,-6724423 14566,-6724424 14867,-6724530 14859,-6724576 14847,-6724612 14829,-6724656 14811,-6724650 14811,-6724649 14809,-6724653 14795,-6724689 14792,-6724694 14801,-6724698 14781,-6724729 14765,-6724759 14762,-6724763 14756,-6724772 14713,-6724776 14666,-6724779 14388,-6724808 14224,-6724829 14223,-6724877 14226,-6724919 14246,-6724939 14248,-6724961 14258,-6725049 14252,-6725073 14210,-6725234 14165,-6725242 14180,-6725331 14070,-6725742 14081,-6725747 14308,-6725804 14417,-6725836 14442,-6725845 14460,-6725851 14495,-6725860 14586,-6725884 14543,-6725987 14523,-6726036 14496,-6726095 14475,-6726147 14456,-6726213 14444,-6726256 14425,-6726338 14536,-6726420 14706,-6726554 14827,-6726647 15111,-6726866 15225,-6726957 15296,-6727008 15303,-6727021 15316,-6727023 15327,-6727037 15455,-6727164 15649,-6727355 15726,-6727430 15799,-6727507 15803,-6727512 15900,-6727608 16214,-6727914 16318,-6728020 16429,-6727969 16480,-6727946 16491,-6727939 16498,-6727934 16490,-6727883 16492,-6727868 16477,-6727791 16469,-6727721 16453,-6727621 16440,-6727548 16440,-6727547 16487,-6727542 16495,-6727541 16486,-6727476" stroke="#006747" stroke-width="29" /></ns0:svg>    <rect x="20" y="50"  width="250" height="25"  rx="0"  fill="#006747" fill-opacity="0.8" />    <text x="145" y="70" text-anchor="middle" font-family="Frutiger" font-weight="bold" font-size="20" fill="white">Barking and Dagenham</text>    <rect x="35" y="195" width="220" height="160" rx="15" fill="#78BE20"/>    <g font-family="Frutiger" font-size="15" fill="#231F20">        <g> <text x="45" y="218">Self-harm</text> <text x="245" y="218" text-anchor="end">0</text> </g>        <g> <text x="45" y="243">SEN</text> <text x="245" y="243" text-anchor="end">48</text> </g>        <g> <text x="45" y="268">Difficulties</text> <text x="245" y="268" text-anchor="end">66</text> </g>        <g> <text x="45" y="293">Child Carer</text> <text x="245" y="293" text-anchor="end">11</text> </g>        <g> <text x="45" y="318">Drinkers</text> <text x="245" y="318" text-anchor="end">6</text> </g>        <g> <text x="45" y="343">Safeguarding £</text> <text x="245" y="343" text-anchor="end">32</text> </g>    </g></svg>