<?xml version="1.0" standalone="no"?>
<!DOCTYPE svg PUBLIC "-//W3C//DTD SVG 1.1//EN"
"http://www.w3.org/Graphics/SVG/1.1/DTD/svg11.dtd">
<svg height="1800" version="1.1" width="1800" xmlns="http://www.w3.org/2000/svg"><defs><style type="text/css">@font-face {font-family: 'Frutiger';font-style: normal;font-weight: normal;src: local('Frutiger'), url('../fonts/Frutiger.woff') format('woff');}@font-face {font-family: 'Frutiger Bold';font-style: normal;font-weight: normal;src: local('Frutiger Bold'), url('../fonts/Frutiger_bold.woff') format('woff');}        </style>    </defs>    <rect x="20" y="20"  width="250" height="350" rx="15" fill="#009639" />    <rect x="35" y="35"  width="220" height="145" rx="15" fill="#E8EDEE" /><ns0:svg xmlns:ns0="http://www.w3.org/2000/svg" height="115" version="1.1" viewBox="-56812 -6733815 14967 31949" width="220" x="35" y="50"><ns0:polygon fill="#006747" points=" -55059,-6733686 -55053,-6733686 -55026,-6733690 -55019,-6733691 -55013,-6733689 -55008,-6733687 -55003,-6733685 -54991,-6733675 -54969,-6733649 -54964,-6733640 -54956,-6733617 -54951,-6733606 -54948,-6733603 -54941,-6733599 -54936,-6733598 -54930,-6733599 -54924,-6733601 -54907,-6733615 -54904,-6733617 -54899,-6733619 -54893,-6733619 -54888,-6733619 -54879,-6733615 -54851,-6733603 -54826,-6733593 -54813,-6733591 -54807,-6733592 -54796,-6733594 -54776,-6733601 -54767,-6733607 -54752,-6733617 -54717,-6733636 -54672,-6733542 -54608,-6733413 -54519,-6733248 -54489,-6733185 -54464,-6733134 -54459,-6733122 -54444,-6733082 -54438,-6733067 -54426,-6733047 -54416,-6733033 -54395,-6733007 -54385,-6732994 -54337,-6732946 -54308,-6732918 -54267,-6732886 -54225,-6732857 -54183,-6732831 -54159,-6732814 -54112,-6732774 -54057,-6732731 -54031,-6732710 -53983,-6732669 -53937,-6732632 -53922,-6732620 -53902,-6732602 -53867,-6732573 -53847,-6732559 -53826,-6732546 -53805,-6732536 -53775,-6732522 -53730,-6732504 -53706,-6732491 -53696,-6732483 -53660,-6732448 -53649,-6732439 -53621,-6732423 -53613,-6732417 -53585,-6732393 -53522,-6732349 -53512,-6732356 -53450,-6732297 -53365,-6732227 -53299,-6732172 -53247,-6732135 -53243,-6732133 -53242,-6732138 -53225,-6732129 -53223,-6732129 -53177,-6732106 -53138,-6732087 -53104,-6732072 -53088,-6732064 -53065,-6732046 -53041,-6732025 -53014,-6731998 -53002,-6731982 -52961,-6731911 -52944,-6731881 -52923,-6731872 -52858,-6731802 -52792,-6731735 -52754,-6731690 -52704,-6731628 -52645,-6731571 -52648,-6731560 -52602,-6731520 -52484,-6731422 -52483,-6731422 -52441,-6731391 -52401,-6731353 -52227,-6731137 -52198,-6731115 -52168,-6731092 -52087,-6731033 -51998,-6730977 -51914,-6730913 -51772,-6730820 -51706,-6730776 -51638,-6730734 -51567,-6730690 -51496,-6730647 -51473,-6730655 -51453,-6730634 -51444,-6730625 -51423,-6730612 -51282,-6730536 -51244,-6730515 -51185,-6730479 -51180,-6730476 -51070,-6730418 -50964,-6730364 -50915,-6730336 -50887,-6730324 -50853,-6730336 -50816,-6730349 -50768,-6730369 -50757,-6730373 -50721,-6730382 -50712,-6730385 -50689,-6730397 -50637,-6730431 -50601,-6730459 -50515,-6730514 -50368,-6730612 -50291,-6730660 -50157,-6730745 -50106,-6730775 -50064,-6730796 -50051,-6730804 -50025,-6730820 -50001,-6730839 -49968,-6730867 -49953,-6730884 -49898,-6730951 -49891,-6730961 -49883,-6730974 -49875,-6730992 -49868,-6731011 -49862,-6731031 -49849,-6731091 -49838,-6731133 -49826,-6731163 -49808,-6731199 -49801,-6731217 -49780,-6731276 -49753,-6731339 -49701,-6731470 -49678,-6731520 -49659,-6731556 -49641,-6731584 -49615,-6731621 -49604,-6731633 -49598,-6731638 -49588,-6731645 -49577,-6731651 -49567,-6731652 -49549,-6731651 -49520,-6731647 -49474,-6731643 -49462,-6731642 -49457,-6731639 -49440,-6731631 -49380,-6731619 -49363,-6731618 -49353,-6731615 -49343,-6731616 -49319,-6731623 -49295,-6731627 -49258,-6731630 -49216,-6731638 -49185,-6731651 -49127,-6731684 -49106,-6731692 -49090,-6731699 -49056,-6731715 -49044,-6731719 -49012,-6731715 -48975,-6731713 -48911,-6731699 -48885,-6731696 -48806,-6731694 -48789,-6731692 -48777,-6731687 -48768,-6731681 -48747,-6731665 -48726,-6731653 -48693,-6731636 -48648,-6731624 -48641,-6731623 -48624,-6731616 -48618,-6731613 -48569,-6731592 -48555,-6731586 -48556,-6731575 -48546,-6731562 -48520,-6731557 -48507,-6731552 -48486,-6731543 -48468,-6731536 -48434,-6731525 -48396,-6731509 -48390,-6731506 -48364,-6731494 -48337,-6731481 -48298,-6731464 -48282,-6731458 -48255,-6731448 -48248,-6731445 -48232,-6731438 -48216,-6731430 -48202,-6731424 -48190,-6731417 -48171,-6731409 -48085,-6731393 -48022,-6731376 -48015,-6731388 -48000,-6731386 -47959,-6731380 -47903,-6731366 -47876,-6731358 -47804,-6731333 -47771,-6731323 -47753,-6731318 -47706,-6731308 -47688,-6731303 -47674,-6731296 -47639,-6731276 -47551,-6731210 -47535,-6731198 -47512,-6731184 -47497,-6731177 -47487,-6731172 -47475,-6731169 -47459,-6731166 -47441,-6731164 -47432,-6731164 -47401,-6731166 -47388,-6731165 -47338,-6731157 -47252,-6731152 -47213,-6731150 -47179,-6731151 -47132,-6731158 -47111,-6731159 -47064,-6731159 -47010,-6731160 -46946,-6731158 -46882,-6731158 -46854,-6731156 -46817,-6731151 -46740,-6731141 -46723,-6731138 -46673,-6731127 -46615,-6731115 -46573,-6731100 -46556,-6731095 -46540,-6731094 -46498,-6731094 -46463,-6731089 -46414,-6731077 -46377,-6731065 -46342,-6731049 -46313,-6731033 -46297,-6731018 -46289,-6731010 -46274,-6730997 -46257,-6730984 -46233,-6730966 -46163,-6730919 -46012,-6730808 -45995,-6730794 -45959,-6730755 -45937,-6730734 -45863,-6730664 -45861,-6730663 -45847,-6730651 -45827,-6730633 -45783,-6730605 -45767,-6730596 -45752,-6730593 -45688,-6730590 -45641,-6730588 -45527,-6730580 -45452,-6730559 -45431,-6730556 -45375,-6730557 -45327,-6730549 -45126,-6730527 -45087,-6730514 -44978,-6730484 -44957,-6730325 -44935,-6730234 -44922,-6730162 -44905,-6730031 -44907,-6729945 -44904,-6729871 -44893,-6729807 -44885,-6729751 -44873,-6729718 -44854,-6729692 -44841,-6729663 -44817,-6729621 -44805,-6729591 -44803,-6729534 -44789,-6729450 -44762,-6729355 -44743,-6729325 -44723,-6729307 -44740,-6729288 -44770,-6729243 -44789,-6729217 -44794,-6729115 -44807,-6729051 -44806,-6728989 -44802,-6728898 -44797,-6728814 -44797,-6728784 -44808,-6728703 -44808,-6728648 -44788,-6728468 -44765,-6728400 -44745,-6728345 -44727,-6728285 -44712,-6728236 -44702,-6728175 -44682,-6728101 -44668,-6728064 -44661,-6728048 -44632,-6727989 -44587,-6727919 -44556,-6727866 -44521,-6727802 -44532,-6727760 -44532,-6727751 -44532,-6727750 -44562,-6727659 -44502,-6727639 -44404,-6727616 -44313,-6727597 -44262,-6727587 -44267,-6727573 -44269,-6727558 -44270,-6727548 -44273,-6727535 -44273,-6727521 -44269,-6727496 -44252,-6727459 -44229,-6727417 -44205,-6727380 -44198,-6727366 -44183,-6727338 -44157,-6727293 -44143,-6727265 -44136,-6727240 -44134,-6727223 -44135,-6727186 -44135,-6727149 -44132,-6727063 -44126,-6727010 -44120,-6726974 -44112,-6726942 -44103,-6726915 -44089,-6726868 -44074,-6726830 -44045,-6726736 -44036,-6726708 -44035,-6726697 -44029,-6726668 -44023,-6726619 -44021,-6726562 -44024,-6726498 -44026,-6726476 -44029,-6726451 -44029,-6726426 -44028,-6726401 -44023,-6726365 -43986,-6726384 -43956,-6726375 -43929,-6726386 -43935,-6726403 -43910,-6726409 -43873,-6726368 -43821,-6726268 -43801,-6726221 -43754,-6726153 -43731,-6726126 -43694,-6726097 -43654,-6726059 -43638,-6726029 -43628,-6725920 -43622,-6725875 -43616,-6725831 -43605,-6725794 -43604,-6725787 -43583,-6725621 -43581,-6725512 -43582,-6725432 -43569,-6725339 -43562,-6725273 -43546,-6725272 -43537,-6725179 -43528,-6725099 -43527,-6725086 -43542,-6725085 -43539,-6725057 -43531,-6724908 -43528,-6724846 -43579,-6724843 -43587,-6724816 -43563,-6724779 -43553,-6724763 -43536,-6724735 -43548,-6724730 -43504,-6724627 -43433,-6724476 -43374,-6724344 -43303,-6724202 -43257,-6724135 -43235,-6724045 -43220,-6723962 -43176,-6723761 -43172,-6723751 -43164,-6723733 -43135,-6723693 -43198,-6723636 -43129,-6723531 -43099,-6723471 -43062,-6723385 -43040,-6723335 -42965,-6723195 -42934,-6723130 -42973,-6723078 -43018,-6723024 -42959,-6722919 -42931,-6722859 -42858,-6722720 -42814,-6722627 -42800,-6722592 -42805,-6722573 -42781,-6722525 -42747,-6722446 -42666,-6722253 -42686,-6722237 -42629,-6722066 -42618,-6722023 -42596,-6721938 -42576,-6721851 -42566,-6721799 -42563,-6721767 -42563,-6721754 -42566,-6721726 -42577,-6721667 -42578,-6721646 -42577,-6721622 -42571,-6721596 -42542,-6721544 -42528,-6721522 -42518,-6721505 -42538,-6721492 -42564,-6721474 -42521,-6721408 -42507,-6721388 -42495,-6721368 -42453,-6721299 -42406,-6721215 -42377,-6721177 -42363,-6721146 -42355,-6721127 -42333,-6721076 -42328,-6721058 -42328,-6721022 -42338,-6720974 -42345,-6720902 -42316,-6720896 -42311,-6720881 -42309,-6720874 -42302,-6720856 -42314,-6720838 -42322,-6720820 -42331,-6720796 -42312,-6720745 -42277,-6720677 -42254,-6720619 -42230,-6720563 -42216,-6720524 -42203,-6720472 -42191,-6720431 -42184,-6720399 -42174,-6720357 -42162,-6720324 -42146,-6720285 -42116,-6720222 -42101,-6720190 -42083,-6720148 -42075,-6720120 -42071,-6720092 -42060,-6720057 -42055,-6720058 -42054,-6720053 -42051,-6720041 -42041,-6720004 -42128,-6719949 -42320,-6719824 -42372,-6719784 -42394,-6719760 -42467,-6719703 -42503,-6719670 -42517,-6719653 -42629,-6719562 -42734,-6719480 -42820,-6719417 -42885,-6719374 -42988,-6719328 -43078,-6719284 -43137,-6719262 -43197,-6719228 -43253,-6719191 -43290,-6719171 -43295,-6719175 -43311,-6719190 -43434,-6719126 -43629,-6719034 -43649,-6719024 -43727,-6718984 -43800,-6718957 -43851,-6718932 -43878,-6718923 -43967,-6718942 -43977,-6718892 -43978,-6718889 -43969,-6718810 -43956,-6718742 -44044,-6718745 -44136,-6718756 -44187,-6718761 -44218,-6718766 -44251,-6718771 -44285,-6718777 -44344,-6718795 -44369,-6718795 -44380,-6718789 -44383,-6718787 -44367,-6718743 -44364,-6718734 -44364,-6718735 -44362,-6718730 -44354,-6718731 -44350,-6718731 -44340,-6718677 -44339,-6718672 -44339,-6718672 -44338,-6718666 -44348,-6718663 -44352,-6718662 -44310,-6718476 -44292,-6718398 -44290,-6718388 -44197,-6718411 -44201,-6718424 -44142,-6718442 -44118,-6718391 -44107,-6718365 -44102,-6718349 -44090,-6718310 -44072,-6718246 -44064,-6718213 -44061,-6718202 -44054,-6718151 -44051,-6718108 -44048,-6718108 -44034,-6718107 -44033,-6718099 -44025,-6718039 -44010,-6717909 -43999,-6717831 -44221,-6717795 -44266,-6717791 -44432,-6717803 -44531,-6717812 -44571,-6717816 -44671,-6717828 -44695,-6717827 -44769,-6717824 -44777,-6717829 -44888,-6717831 -44954,-6717830 -45009,-6717828 -45065,-6717823 -45128,-6717811 -45315,-6717755 -45410,-6717726 -45402,-6717698 -45496,-6717680 -45578,-6717651 -45722,-6717614 -45855,-6717572 -45928,-6717548 -46017,-6717528 -46079,-6717512 -46133,-6717498 -46174,-6717483 -46223,-6717461 -46236,-6717457 -46246,-6717454 -46287,-6717434 -46311,-6717422 -46323,-6717418 -46358,-6717409 -46384,-6717408 -46399,-6717401 -46450,-6717400 -46463,-6717397 -46481,-6717393 -46496,-6717390 -46537,-6717390 -46565,-6717391 -46572,-6717395 -46589,-6717406 -46595,-6717414 -46587,-6717417 -46588,-6717419 -46601,-6717420 -46609,-6717421 -46617,-6717424 -46631,-6717431 -46635,-6717434 -46647,-6717448 -46654,-6717451 -46663,-6717455 -46670,-6717456 -46674,-6717455 -46678,-6717454 -46686,-6717449 -46690,-6717436 -46694,-6717426 -46697,-6717418 -46698,-6717406 -46698,-6717398 -46695,-6717380 -46692,-6717372 -46686,-6717358 -46658,-6717333 -46645,-6717319 -46636,-6717307 -46628,-6717297 -46621,-6717288 -46607,-6717270 -46597,-6717259 -46592,-6717257 -46575,-6717241 -46566,-6717238 -46559,-6717236 -46555,-6717234 -46554,-6717233 -46549,-6717228 -46547,-6717223 -46548,-6717218 -46557,-6717212 -46565,-6717206 -46574,-6717203 -46592,-6717189 -46605,-6717176 -46655,-6717166 -46678,-6717161 -46691,-6717153 -46706,-6717141 -46708,-6717133 -46709,-6717127 -46708,-6717121 -46706,-6717115 -46693,-6717081 -46682,-6717063 -46674,-6717056 -46661,-6717051 -46649,-6717048 -46634,-6717044 -46624,-6717042 -46612,-6717037 -46579,-6717020 -46547,-6717010 -46513,-6717003 -46493,-6716998 -46485,-6716995 -46480,-6716992 -46479,-6716992 -46474,-6716986 -46469,-6716981 -46466,-6716975 -46464,-6716966 -46465,-6716951 -46469,-6716940 -46474,-6716922 -46478,-6716909 -46486,-6716874 -46492,-6716850 -46493,-6716839 -46495,-6716817 -46492,-6716805 -46489,-6716799 -46484,-6716792 -46471,-6716778 -46462,-6716768 -46452,-6716761 -46442,-6716757 -46435,-6716754 -46421,-6716751 -46404,-6716751 -46390,-6716750 -46363,-6716755 -46319,-6716765 -46299,-6716767 -46283,-6716768 -46264,-6716767 -46246,-6716765 -46233,-6716760 -46224,-6716752 -46214,-6716717 -46207,-6716700 -46197,-6716684 -46188,-6716672 -46179,-6716662 -46162,-6716648 -46155,-6716645 -46145,-6716642 -46104,-6716633 -46086,-6716628 -46078,-6716625 -46073,-6716622 -46067,-6716614 -46052,-6716581 -46047,-6716517 -46044,-6716483 -46039,-6716461 -46033,-6716436 -46028,-6716429 -46026,-6716425 -46017,-6716417 -46007,-6716413 -45996,-6716408 -45982,-6716406 -45939,-6716404 -45919,-6716402 -45908,-6716400 -45897,-6716395 -45891,-6716391 -45883,-6716387 -45878,-6716382 -45872,-6716376 -45866,-6716368 -45862,-6716361 -45857,-6716350 -45852,-6716337 -45848,-6716323 -45842,-6716316 -45759,-6716352 -45746,-6716336 -45743,-6716332 -45714,-6716333 -45670,-6716327 -45590,-6716303 -45571,-6716302 -45351,-6716227 -45298,-6716216 -45154,-6716175 -45137,-6716169 -45109,-6716159 -45088,-6716156 -45077,-6716154 -45062,-6716149 -45044,-6716143 -45035,-6716143 -45014,-6716141 -44807,-6716102 -44681,-6716072 -44537,-6716037 -44370,-6715998 -44189,-6715951 -44172,-6715947 -44110,-6715934 -44066,-6715930 -44006,-6715922 -43909,-6715899 -43808,-6715872 -43673,-6715836 -43475,-6715765 -43394,-6715743 -43368,-6715737 -43331,-6715728 -43331,-6715696 -43286,-6715662 -43233,-6715621 -43174,-6715575 -43095,-6715509 -43091,-6715506 -43064,-6715570 -43047,-6715613 -43038,-6715654 -43037,-6715656 -43027,-6715655 -42952,-6715652 -42931,-6715641 -42803,-6715588 -42744,-6715570 -42574,-6715521 -42480,-6715498 -42409,-6715480 -42258,-6715446 -42193,-6715433 -42039,-6715414 -41961,-6715401 -41912,-6715391 -41895,-6715386 -41885,-6715379 -41876,-6715373 -41876,-6715372 -41876,-6715370 -41883,-6715116 -41880,-6715034 -41870,-6714988 -41866,-6714937 -41852,-6714854 -41848,-6714822 -41845,-6714790 -41850,-6714745 -41864,-6714700 -41873,-6714675 -41895,-6714638 -41914,-6714614 -41924,-6714592 -41963,-6714554 -41982,-6714514 -42043,-6714393 -42118,-6714237 -42137,-6714198 -42178,-6714120 -42199,-6714073 -42225,-6714025 -42291,-6713909 -42322,-6713860 -42391,-6713752 -42401,-6713744 -42455,-6713644 -42492,-6713562 -42496,-6713552 -42510,-6713533 -42531,-6713504 -42574,-6713453 -42585,-6713440 -42585,-6713435 -42589,-6713428 -42590,-6713426 -42618,-6713428 -42677,-6713354 -42682,-6713348 -42714,-6713301 -42736,-6713270 -42773,-6713223 -42809,-6713185 -42816,-6713178 -42838,-6713159 -42854,-6713145 -42882,-6713125 -42979,-6713063 -43053,-6713017 -43085,-6712996 -43258,-6712887 -43303,-6712854 -43343,-6712814 -43364,-6712787 -43414,-6712711 -43431,-6712673 -43455,-6712617 -43461,-6712581 -43461,-6712580 -43470,-6712546 -43482,-6712514 -43496,-6712466 -43514,-6712400 -43533,-6712332 -43584,-6712139 -43662,-6711858 -43706,-6711705 -43720,-6711653 -43730,-6711613 -43740,-6711588 -43748,-6711565 -43759,-6711541 -43779,-6711506 -43792,-6711489 -43811,-6711465 -43826,-6711450 -43845,-6711435 -43851,-6711431 -43856,-6711427 -43862,-6711423 -43868,-6711419 -43897,-6711400 -43969,-6711354 -44050,-6711302 -44135,-6711250 -44275,-6711161 -44422,-6711070 -44511,-6711011 -44580,-6710972 -44661,-6710940 -44670,-6710937 -44694,-6710929 -44718,-6710921 -44741,-6710912 -44764,-6710902 -44771,-6710900 -44779,-6710896 -44787,-6710893 -44795,-6710890 -44803,-6710886 -44811,-6710883 -44818,-6710879 -44826,-6710875 -44833,-6710871 -44835,-6710870 -44843,-6710865 -44851,-6710859 -44859,-6710853 -44867,-6710847 -44875,-6710841 -44882,-6710834 -44890,-6710827 -44897,-6710821 -44904,-6710814 -44911,-6710806 -44917,-6710799 -44924,-6710791 -44930,-6710784 -44936,-6710776 -44958,-6710741 -45001,-6710673 -45097,-6710503 -45100,-6710498 -45231,-6710276 -45294,-6710164 -45302,-6710149 -45334,-6710166 -45381,-6710200 -45457,-6710234 -45559,-6710275 -45603,-6710212 -45712,-6709897 -45735,-6709824 -45737,-6709810 -45739,-6709790 -45739,-6709774 -45737,-6709763 -45706,-6709614 -45702,-6709580 -45701,-6709560 -45701,-6709543 -45704,-6709526 -45708,-6709512 -45715,-6709496 -45746,-6709446 -45754,-6709431 -45772,-6709394 -45784,-6709362 -45795,-6709323 -45817,-6709150 -45822,-6709112 -45849,-6708868 -45855,-6708810 -45855,-6708806 -45915,-6708309 -45930,-6708195 -45930,-6708184 -45932,-6708177 -45936,-6708167 -45941,-6708159 -45958,-6708143 -45964,-6708136 -45969,-6708126 -45973,-6708117 -45976,-6708105 -45977,-6708075 -45982,-6708054 -45989,-6708034 -45994,-6708023 -46006,-6708002 -46014,-6707992 -46015,-6707987 -46017,-6707977 -46017,-6707970 -46014,-6707962 -46010,-6707946 -46013,-6707940 -46018,-6707934 -46023,-6707932 -46032,-6707931 -46052,-6707936 -46062,-6707939 -46067,-6707939 -46075,-6707936 -46082,-6707930 -46084,-6707926 -46108,-6707864 -46143,-6707809 -46149,-6707794 -46155,-6707765 -46155,-6707760 -46154,-6707756 -46151,-6707752 -46148,-6707749 -46143,-6707747 -46139,-6707746 -46135,-6707745 -46099,-6707751 -46093,-6707750 -46090,-6707748 -46085,-6707741 -46084,-6707738 -46084,-6707733 -46086,-6707728 -46088,-6707725 -46160,-6707654 -46214,-6707508 -46264,-6707379 -46291,-6707333 -46302,-6707306 -46312,-6707278 -46323,-6707206 -46327,-6707189 -46332,-6707179 -46338,-6707169 -46345,-6707160 -46379,-6707130 -46384,-6707124 -46393,-6707112 -46400,-6707096 -46402,-6707089 -46403,-6707081 -46402,-6707074 -46399,-6707067 -46395,-6707059 -46390,-6707054 -46385,-6707049 -46370,-6707040 -46365,-6707036 -46361,-6707027 -46359,-6707021 -46359,-6707016 -46362,-6707004 -46374,-6706923 -46390,-6706851 -46398,-6706798 -46395,-6706757 -46389,-6706721 -46380,-6706693 -46354,-6706653 -46345,-6706636 -46341,-6706624 -46315,-6706524 -46311,-6706512 -46294,-6706470 -46282,-6706432 -46262,-6706389 -46230,-6706238 -46225,-6706220 -46221,-6706202 -46198,-6706143 -46191,-6706057 -46189,-6705938 -46246,-6705784 -46272,-6705732 -46275,-6705685 -46283,-6705641 -46289,-6705573 -46286,-6705563 -46281,-6705554 -46272,-6705533 -46255,-6705517 -46235,-6705503 -46192,-6705480 -46183,-6705477 -46177,-6705473 -46171,-6705468 -46167,-6705462 -46147,-6705427 -46137,-6705386 -46128,-6705363 -46110,-6705329 -46081,-6705306 -46065,-6705296 -46055,-6705288 -46048,-6705282 -46040,-6705272 -46033,-6705262 -46030,-6705258 -46003,-6705210 -45987,-6705164 -45986,-6705159 -45977,-6705132 -45970,-6705110 -45956,-6705093 -45870,-6705021 -45821,-6704969 -45787,-6704937 -45781,-6704901 -45767,-6704835 -45771,-6704833 -45956,-6704740 -46139,-6704654 -46321,-6704565 -46467,-6704494 -46504,-6704474 -46624,-6704419 -46716,-6704374 -46769,-6704344 -46778,-6704319 -46781,-6704294 -46784,-6704281 -46808,-6704270 -46842,-6704287 -46862,-6704288 -46911,-6704275 -46943,-6704266 -46970,-6704248 -46985,-6704240 -47015,-6704224 -47138,-6704141 -47236,-6704076 -47401,-6703965 -47537,-6703874 -47685,-6703771 -47815,-6703685 -47853,-6703659 -47934,-6703601 -48053,-6703523 -48158,-6703448 -48265,-6703380 -48294,-6703331 -48310,-6703295 -48342,-6703242 -48372,-6703191 -48405,-6703127 -48433,-6703073 -48472,-6703006 -48495,-6702957 -48501,-6702929 -48526,-6702882 -48556,-6702819 -48570,-6702783 -48583,-6702734 -48603,-6702655 -48504,-6702603 -48393,-6702553 -48428,-6702507 -48458,-6702512 -48492,-6702516 -48550,-6702516 -48618,-6702511 -48676,-6702503 -48804,-6702480 -48849,-6702478 -48930,-6702477 -48958,-6702476 -49013,-6702470 -49068,-6702479 -49142,-6702498 -49157,-6702458 -49191,-6702378 -49269,-6702206 -49329,-6702077 -49423,-6701866 -49514,-6701876 -49683,-6701901 -49795,-6701916 -49885,-6701931 -49958,-6701950 -50027,-6701969 -50118,-6702004 -50227,-6702042 -50356,-6702091 -50421,-6702117 -50512,-6702149 -50530,-6702163 -50547,-6702184 -50550,-6702214 -50540,-6702238 -50529,-6702246 -50529,-6702254 -50534,-6702257 -50535,-6702258 -50551,-6702263 -50594,-6702271 -50619,-6702276 -50665,-6702284 -50673,-6702281 -50696,-6702287 -50701,-6702265 -50698,-6702261 -50687,-6702241 -50689,-6702227 -50692,-6702225 -50693,-6702225 -50697,-6702223 -50698,-6702222 -50700,-6702221 -50702,-6702220 -50704,-6702220 -50705,-6702219 -50707,-6702219 -50709,-6702218 -50711,-6702218 -50714,-6702218 -50716,-6702218 -50718,-6702218 -50720,-6702218 -50723,-6702218 -50725,-6702219 -50726,-6702219 -50728,-6702219 -50730,-6702219 -50732,-6702220 -50734,-6702221 -50736,-6702221 -50738,-6702222 -50741,-6702223 -50743,-6702224 -50745,-6702225 -50799,-6702242 -50850,-6702264 -50908,-6702297 -50967,-6702344 -51055,-6702411 -51098,-6702440 -51106,-6702448 -51116,-6702456 -51125,-6702463 -51135,-6702471 -51146,-6702478 -51159,-6702487 -51173,-6702496 -51188,-6702505 -51203,-6702513 -51216,-6702520 -51229,-6702527 -51242,-6702533 -51256,-6702539 -51270,-6702545 -51284,-6702550 -51297,-6702556 -51306,-6702559 -51320,-6702563 -51323,-6702564 -51334,-6702567 -51349,-6702571 -51363,-6702575 -51378,-6702578 -51393,-6702581 -51478,-6702587 -51610,-6702608 -51618,-6702609 -51709,-6702622 -51777,-6702636 -51865,-6702663 -51874,-6702665 -51885,-6702669 -51896,-6702672 -51908,-6702676 -51919,-6702678 -51932,-6702681 -51945,-6702683 -51959,-6702685 -51973,-6702687 -51975,-6702687 -51989,-6702689 -52003,-6702690 -52017,-6702691 -52030,-6702691 -52078,-6702691 -52136,-6702692 -52159,-6702692 -52160,-6702692 -52164,-6702692 -52171,-6702692 -52175,-6702692 -52178,-6702692 -52182,-6702692 -52185,-6702693 -52188,-6702693 -52192,-6702694 -52195,-6702695 -52199,-6702696 -52202,-6702697 -52205,-6702698 -52274,-6702709 -52388,-6702730 -52482,-6702752 -52483,-6702752 -52598,-6702787 -52608,-6702790 -52636,-6702798 -52664,-6702807 -52691,-6702816 -52693,-6702817 -52698,-6702818 -52702,-6702820 -52707,-6702821 -52712,-6702823 -52716,-6702825 -52720,-6702827 -52725,-6702829 -52729,-6702832 -52734,-6702834 -52738,-6702837 -52742,-6702840 -52747,-6702843 -52751,-6702846 -52755,-6702850 -52759,-6702853 -52818,-6702915 -52893,-6703000 -52974,-6703084 -53020,-6703178 -53021,-6703179 -53003,-6703184 -52976,-6703192 -52977,-6703194 -52978,-6703198 -52979,-6703202 -52980,-6703206 -52982,-6703209 -52983,-6703213 -52985,-6703216 -52986,-6703218 -52988,-6703222 -52991,-6703226 -52993,-6703230 -52996,-6703234 -52999,-6703237 -53001,-6703240 -53005,-6703244 -53009,-6703249 -53013,-6703253 -53017,-6703257 -53022,-6703261 -53026,-6703264 -53031,-6703268 -53035,-6703272 -53037,-6703272 -53043,-6703277 -53050,-6703281 -53058,-6703285 -53065,-6703289 -53072,-6703292 -53080,-6703296 -53087,-6703299 -53093,-6703301 -53102,-6703305 -53112,-6703308 -53122,-6703310 -53132,-6703313 -53142,-6703315 -53153,-6703317 -53163,-6703319 -53173,-6703321 -53184,-6703322 -53194,-6703323 -53204,-6703324 -53215,-6703324 -53312,-6703327 -53394,-6703326 -53469,-6703320 -53551,-6703312 -53577,-6703317 -53658,-6703314 -53676,-6703301 -53849,-6703297 -53973,-6703298 -53987,-6703297 -54006,-6703298 -54025,-6703299 -54045,-6703300 -54057,-6703301 -54085,-6703304 -54113,-6703307 -54131,-6703310 -54151,-6703313 -54171,-6703317 -54174,-6703318 -54194,-6703322 -54214,-6703326 -54276,-6703347 -54345,-6703369 -54403,-6703389 -54404,-6703389 -54405,-6703389 -54406,-6703390 -54408,-6703391 -54409,-6703391 -54410,-6703392 -54411,-6703392 -54412,-6703392 -54413,-6703393 -54415,-6703393 -54416,-6703393 -54420,-6703392 -54424,-6703391 -54428,-6703389 -54430,-6703389 -54432,-6703388 -54435,-6703387 -54437,-6703386 -54439,-6703385 -54442,-6703383 -54444,-6703382 -54447,-6703382 -54449,-6703381 -54452,-6703380 -54455,-6703380 -54459,-6703380 -54462,-6703379 -54465,-6703379 -54468,-6703380 -54472,-6703380 -54475,-6703380 -54478,-6703381 -54481,-6703381 -54483,-6703382 -54487,-6703382 -54491,-6703384 -54495,-6703385 -54499,-6703386 -54503,-6703388 -54506,-6703389 -54510,-6703391 -54514,-6703393 -54515,-6703394 -54519,-6703396 -54522,-6703398 -54526,-6703400 -54529,-6703403 -54532,-6703405 -54536,-6703408 -54540,-6703418 -54547,-6703433 -54558,-6703454 -54564,-6703463 -54567,-6703467 -54569,-6703471 -54571,-6703474 -54574,-6703478 -54578,-6703482 -54578,-6703482 -54579,-6703483 -54581,-6703484 -54582,-6703485 -54584,-6703486 -54585,-6703487 -54588,-6703489 -54589,-6703489 -54592,-6703492 -54596,-6703494 -54600,-6703496 -54604,-6703498 -54608,-6703500 -54612,-6703501 -54616,-6703503 -54620,-6703504 -54623,-6703505 -54719,-6703553 -54764,-6703577 -54792,-6703600 -54836,-6703603 -54864,-6703603 -54892,-6703593 -54908,-6703583 -54909,-6703582 -54911,-6703581 -54912,-6703579 -54914,-6703578 -54915,-6703577 -54916,-6703576 -54918,-6703574 -54919,-6703573 -54920,-6703571 -54921,-6703570 -54922,-6703568 -54923,-6703567 -54924,-6703565 -54924,-6703563 -54926,-6703560 -54928,-6703556 -54929,-6703553 -54930,-6703551 -54958,-6703554 -54976,-6703555 -54995,-6703614 -55026,-6703674 -55051,-6703718 -55091,-6703771 -55125,-6703825 -55135,-6703839 -55146,-6703860 -55167,-6703892 -55201,-6703937 -55235,-6703983 -55283,-6704045 -55329,-6704094 -55324,-6704119 -55329,-6704125 -55354,-6704148 -55385,-6704173 -55450,-6704218 -55464,-6704217 -55493,-6704238 -55534,-6704266 -55590,-6704295 -55639,-6704318 -55698,-6704343 -55760,-6704364 -55820,-6704384 -55894,-6704402 -55966,-6704421 -55970,-6704422 -55983,-6704426 -55997,-6704429 -56010,-6704433 -56024,-6704437 -56038,-6704440 -56051,-6704442 -56075,-6704446 -56110,-6704449 -56145,-6704451 -56151,-6704451 -56186,-6704453 -56221,-6704454 -56228,-6704455 -56236,-6704456 -56243,-6704457 -56251,-6704458 -56259,-6704459 -56267,-6704459 -56274,-6704459 -56282,-6704459 -56290,-6704459 -56298,-6704458 -56305,-6704458 -56309,-6704457 -56314,-6704457 -56319,-6704456 -56324,-6704455 -56330,-6704455 -56335,-6704454 -56340,-6704452 -56345,-6704451 -56347,-6704450 -56351,-6704449 -56355,-6704448 -56358,-6704447 -56362,-6704446 -56365,-6704444 -56369,-6704443 -56372,-6704441 -56376,-6704439 -56379,-6704438 -56382,-6704436 -56384,-6704434 -56388,-6704432 -56391,-6704429 -56395,-6704427 -56398,-6704424 -56401,-6704421 -56404,-6704417 -56407,-6704414 -56410,-6704411 -56413,-6704408 -56415,-6704405 -56418,-6704401 -56420,-6704398 -56423,-6704394 -56425,-6704390 -56427,-6704387 -56429,-6704383 -56441,-6704353 -56455,-6704335 -56474,-6704305 -56481,-6704310 -56515,-6704325 -56521,-6704325 -56528,-6704327 -56538,-6704327 -56565,-6704328 -56586,-6704328 -56603,-6704330 -56637,-6704337 -56675,-6704357 -56707,-6704381 -56716,-6704384 -56803,-6704410 -56804,-6704456 -56808,-6704471 -56811,-6704490 -56812,-6704514 -56810,-6704537 -56802,-6704564 -56794,-6704601 -56790,-6704636 -56739,-6704708 -56736,-6704714 -56733,-6704713 -56729,-6704713 -56725,-6704712 -56721,-6704712 -56717,-6704712 -56713,-6704712 -56709,-6704712 -56707,-6704712 -56702,-6704712 -56698,-6704713 -56694,-6704713 -56689,-6704714 -56685,-6704715 -56681,-6704716 -56677,-6704717 -56676,-6704717 -56670,-6704719 -56665,-6704722 -56659,-6704724 -56653,-6704727 -56648,-6704730 -56643,-6704733 -56637,-6704736 -56632,-6704740 -56617,-6704751 -56603,-6704765 -56590,-6704780 -56577,-6704795 -56564,-6704810 -56564,-6704811 -56551,-6704827 -56538,-6704843 -56525,-6704860 -56513,-6704877 -56501,-6704894 -56487,-6704916 -56473,-6704940 -56459,-6704964 -56446,-6704989 -56440,-6705000 -56429,-6705023 -56418,-6705045 -56408,-6705067 -56380,-6705136 -56366,-6705173 -56343,-6705234 -56334,-6705260 -56321,-6705299 -56308,-6705337 -56302,-6705358 -56280,-6705442 -56274,-6705462 -56269,-6705480 -56260,-6705517 -56250,-6705554 -56242,-6705592 -56238,-6705611 -56237,-6705617 -56231,-6705649 -56225,-6705688 -56219,-6705726 -56218,-6705733 -56214,-6705771 -56214,-6705772 -56210,-6705811 -56200,-6705889 -56185,-6706002 -56167,-6706150 -56162,-6706184 -56155,-6706204 -56135,-6706242 -56130,-6706276 -56125,-6706330 -56128,-6706350 -56132,-6706385 -56130,-6706421 -56125,-6706456 -56119,-6706489 -56110,-6706522 -56095,-6706573 -56073,-6706647 -56048,-6706736 -56016,-6706825 -56011,-6706835 -55998,-6706868 -55992,-6706884 -55958,-6706970 -55958,-6706971 -55935,-6707028 -55911,-6707087 -55877,-6707154 -55849,-6707203 -55811,-6707268 -55778,-6707322 -55750,-6707367 -55707,-6707429 -55643,-6707529 -55579,-6707624 -55557,-6707657 -55548,-6707655 -55542,-6707655 -55539,-6707656 -55537,-6707658 -55534,-6707662 -55534,-6707671 -55538,-6707685 -55544,-6707697 -55544,-6707701 -55541,-6707704 -55530,-6707709 -55525,-6707713 -55520,-6707719 -55517,-6707724 -55514,-6707730 -55514,-6707735 -55515,-6707739 -55517,-6707744 -55520,-6707748 -55525,-6707751 -55534,-6707756 -55549,-6707755 -55552,-6707756 -55555,-6707759 -55556,-6707761 -55556,-6707764 -55555,-6707777 -55552,-6707799 -55550,-6707809 -55544,-6707829 -55543,-6707834 -55544,-6707838 -55548,-6707845 -55555,-6707852 -55559,-6707855 -55564,-6707856 -55570,-6707857 -55581,-6707856 -55591,-6707854 -55606,-6707849 -55610,-6707849 -55613,-6707850 -55616,-6707852 -55619,-6707856 -55623,-6707865 -55623,-6707867 -55621,-6707871 -55609,-6707883 -55608,-6707889 -55609,-6707892 -55618,-6707904 -55619,-6707911 -55619,-6707921 -55618,-6707929 -55614,-6707939 -55604,-6707956 -55588,-6707972 -55586,-6707975 -55584,-6707982 -55587,-6708001 -55587,-6708006 -55585,-6708009 -55578,-6708016 -55557,-6708035 -55552,-6708043 -55551,-6708048 -55551,-6708052 -55554,-6708057 -55568,-6708070 -55572,-6708077 -55572,-6708080 -55571,-6708103 -55567,-6708147 -55568,-6708173 -55567,-6708177 -55565,-6708180 -55562,-6708181 -55558,-6708180 -55554,-6708179 -55545,-6708168 -55535,-6708151 -55533,-6708150 -55529,-6708150 -55524,-6708152 -55503,-6708178 -55499,-6708181 -55496,-6708183 -55493,-6708183 -55490,-6708181 -55486,-6708175 -55481,-6708157 -55479,-6708154 -55476,-6708152 -55473,-6708153 -55471,-6708154 -55468,-6708159 -55453,-6708192 -55439,-6708210 -55435,-6708218 -55434,-6708222 -55434,-6708231 -55437,-6708240 -55441,-6708248 -55445,-6708254 -55450,-6708256 -55454,-6708256 -55469,-6708249 -55474,-6708248 -55479,-6708249 -55487,-6708257 -55506,-6708286 -55508,-6708294 -55507,-6708299 -55479,-6708325 -55475,-6708328 -55472,-6708329 -55456,-6708331 -55449,-6708335 -55445,-6708340 -55440,-6708358 -55436,-6708365 -55427,-6708371 -55408,-6708378 -55394,-6708385 -55386,-6708392 -55378,-6708399 -55368,-6708410 -55367,-6708410 -55330,-6708378 -55307,-6708387 -55295,-6708393 -55286,-6708400 -55279,-6708407 -55273,-6708413 -55267,-6708423 -55262,-6708432 -55261,-6708436 -55262,-6708440 -55263,-6708444 -55265,-6708448 -55269,-6708451 -55279,-6708457 -55283,-6708458 -55300,-6708458 -55319,-6708463 -55322,-6708470 -55322,-6708471 -55323,-6708475 -55322,-6708482 -55319,-6708486 -55307,-6708501 -55299,-6708518 -55292,-6708526 -55286,-6708529 -55282,-6708530 -55271,-6708530 -55241,-6708527 -55224,-6708523 -55221,-6708523 -55216,-6708525 -55212,-6708528 -55206,-6708536 -55203,-6708541 -55201,-6708547 -55199,-6708570 -55196,-6708578 -55185,-6708596 -55164,-6708623 -55153,-6708638 -55145,-6708645 -55140,-6708646 -55122,-6708646 -55114,-6708649 -55103,-6708657 -55096,-6708666 -55093,-6708677 -55091,-6708707 -55092,-6708725 -55093,-6708732 -55100,-6708746 -55113,-6708764 -55119,-6708769 -55132,-6708777 -55139,-6708784 -55141,-6708790 -55141,-6708796 -55137,-6708808 -55125,-6708827 -55112,-6708843 -55094,-6708860 -55090,-6708864 -55088,-6708869 -55087,-6708873 -55087,-6708895 -55086,-6708901 -55084,-6708906 -55080,-6708910 -55075,-6708913 -55068,-6708916 -55053,-6708919 -54974,-6708919 -54954,-6708917 -54942,-6708918 -54937,-6708919 -54918,-6708933 -54909,-6708936 -54904,-6708936 -54897,-6708935 -54868,-6708927 -54854,-6708923 -54849,-6708923 -54845,-6708924 -54841,-6708927 -54832,-6708941 -54827,-6708945 -54807,-6708959 -54793,-6708966 -54790,-6708967 -54731,-6708972 -54717,-6708974 -54711,-6708976 -54707,-6708978 -54705,-6708980 -54666,-6709054 -54650,-6709078 -54641,-6709089 -54633,-6709097 -54626,-6709102 -54602,-6709111 -54598,-6709115 -54595,-6709120 -54593,-6709124 -54593,-6709130 -54593,-6709140 -54594,-6709147 -54599,-6709164 -54598,-6709170 -54594,-6709176 -54580,-6709183 -54577,-6709186 -54574,-6709192 -54573,-6709195 -54563,-6709229 -54559,-6709249 -54549,-6709277 -54549,-6709279 -54543,-6709296 -54537,-6709309 -54526,-6709319 -54503,-6709337 -54500,-6709341 -54497,-6709346 -54494,-6709355 -54493,-6709363 -54493,-6709369 -54494,-6709373 -54496,-6709377 -54508,-6709392 -54510,-6709396 -54511,-6709402 -54506,-6709410 -54502,-6709415 -54491,-6709424 -54484,-6709428 -54458,-6709441 -54453,-6709444 -54450,-6709448 -54442,-6709466 -54434,-6709475 -54423,-6709481 -54415,-6709485 -54406,-6709489 -54402,-6709493 -54398,-6709498 -54397,-6709501 -54407,-6709564 -54408,-6709582 -54408,-6709590 -54406,-6709596 -54397,-6709610 -54391,-6709623 -54389,-6709633 -54389,-6709641 -54390,-6709650 -54398,-6709663 -54411,-6709678 -54419,-6709688 -54428,-6709701 -54432,-6709712 -54435,-6709732 -54443,-6709752 -54447,-6709758 -54452,-6709762 -54456,-6709765 -54472,-6709769 -54478,-6709772 -54485,-6709781 -54487,-6709785 -54487,-6709790 -54486,-6709793 -54483,-6709795 -54471,-6709801 -54467,-6709804 -54465,-6709815 -54466,-6709845 -54464,-6709853 -54461,-6709861 -54457,-6709869 -54453,-6709875 -54438,-6709886 -54434,-6709890 -54431,-6709896 -54425,-6709909 -54421,-6709925 -54417,-6709941 -54416,-6709953 -54416,-6709958 -54418,-6709962 -54420,-6709966 -54424,-6709968 -54433,-6709971 -54451,-6709971 -54474,-6709969 -54494,-6709970 -54498,-6709972 -54507,-6709978 -54511,-6709986 -54519,-6710012 -54520,-6710019 -54520,-6710025 -54518,-6710034 -54511,-6710049 -54497,-6710078 -54461,-6710129 -54439,-6710156 -54423,-6710175 -54419,-6710181 -54410,-6710202 -54408,-6710213 -54409,-6710217 -54415,-6710236 -54415,-6710239 -54413,-6710244 -54410,-6710250 -54406,-6710256 -54399,-6710255 -54366,-6710282 -54357,-6710293 -54355,-6710295 -54351,-6710296 -54348,-6710295 -54345,-6710293 -54338,-6710282 -54332,-6710277 -54325,-6710272 -54321,-6710271 -54313,-6710271 -54300,-6710276 -54296,-6710276 -54276,-6710276 -54269,-6710278 -54263,-6710281 -54258,-6710286 -54252,-6710293 -54248,-6710301 -54245,-6710309 -54244,-6710316 -54245,-6710322 -54257,-6710365 -54255,-6710382 -54252,-6710388 -54248,-6710392 -54245,-6710394 -54238,-6710396 -54228,-6710398 -54218,-6710398 -54210,-6710396 -54201,-6710394 -54192,-6710390 -54184,-6710385 -54165,-6710373 -54156,-6710368 -54149,-6710366 -54142,-6710366 -54135,-6710367 -54128,-6710372 -54122,-6710377 -54119,-6710381 -54118,-6710386 -54116,-6710402 -54117,-6710406 -54124,-6710422 -54126,-6710434 -54123,-6710454 -54123,-6710462 -54127,-6710506 -54128,-6710530 -54128,-6710540 -54128,-6710545 -54126,-6710549 -54123,-6710552 -54106,-6710562 -54103,-6710566 -54099,-6710571 -54097,-6710576 -54094,-6710581 -54090,-6710592 -54085,-6710612 -54083,-6710616 -54077,-6710623 -54064,-6710636 -54050,-6710656 -54039,-6710667 -54028,-6710674 -54009,-6710682 -54006,-6710685 -54004,-6710689 -54003,-6710693 -54003,-6710733 -54002,-6710739 -54000,-6710745 -53996,-6710750 -53990,-6710758 -53973,-6710775 -53968,-6710783 -53967,-6710786 -53969,-6710793 -53979,-6710809 -53981,-6710815 -53981,-6710819 -53980,-6710823 -53978,-6710827 -53953,-6710855 -53952,-6710859 -53951,-6710864 -53951,-6710869 -53956,-6710878 -53959,-6710882 -53962,-6710884 -53979,-6710891 -53993,-6710899 -53999,-6710904 -54003,-6710909 -54005,-6710914 -54007,-6710921 -54008,-6710929 -54008,-6710939 -54007,-6710947 -54005,-6710955 -53999,-6710964 -53976,-6710987 -53972,-6710996 -53971,-6711002 -53972,-6711008 -53974,-6711013 -53976,-6711018 -53979,-6711021 -54014,-6711044 -54015,-6711046 -54016,-6711051 -54015,-6711056 -53994,-6711126 -53990,-6711132 -53987,-6711135 -53968,-6711145 -53965,-6711148 -53963,-6711153 -53962,-6711158 -53963,-6711164 -53968,-6711187 -53968,-6711193 -53966,-6711199 -53961,-6711209 -53956,-6711218 -53950,-6711224 -53945,-6711228 -53940,-6711231 -53931,-6711233 -53924,-6711231 -53907,-6711223 -53898,-6711221 -53882,-6711219 -53877,-6711220 -53872,-6711222 -53869,-6711225 -53867,-6711228 -53866,-6711232 -53865,-6711253 -53860,-6711291 -53846,-6711341 -53842,-6711369 -53840,-6711374 -53836,-6711380 -53833,-6711384 -53827,-6711388 -53811,-6711395 -53794,-6711400 -53788,-6711404 -53786,-6711407 -53785,-6711418 -53786,-6711435 -53785,-6711475 -53785,-6711493 -53788,-6711507 -53790,-6711513 -53795,-6711521 -53801,-6711529 -53808,-6711537 -53815,-6711543 -53828,-6711550 -53848,-6711554 -53853,-6711556 -53860,-6711559 -53867,-6711564 -53871,-6711569 -53874,-6711574 -53875,-6711580 -53876,-6711587 -53876,-6711600 -53875,-6711611 -53873,-6711617 -53870,-6711621 -53864,-6711624 -53832,-6711629 -53823,-6711635 -53821,-6711638 -53820,-6711643 -53819,-6711650 -53820,-6711659 -53824,-6711667 -53827,-6711672 -53830,-6711675 -53835,-6711677 -53855,-6711681 -53860,-6711682 -53865,-6711685 -53879,-6711695 -53894,-6711710 -53901,-6711722 -53902,-6711727 -53902,-6711748 -53905,-6711764 -53910,-6711775 -53913,-6711779 -53917,-6711782 -53933,-6711789 -53941,-6711795 -53950,-6711803 -53956,-6711810 -53960,-6711819 -53966,-6711832 -53977,-6711853 -53984,-6711883 -54005,-6711897 -54013,-6711903 -54019,-6711909 -54045,-6711938 -54080,-6711972 -54043,-6711974 -54049,-6712012 -54051,-6712023 -54068,-6712042 -54070,-6712044 -54107,-6712028 -54132,-6712035 -54143,-6712094 -54189,-6712093 -54249,-6712161 -54271,-6712155 -54316,-6712186 -54359,-6712206 -54367,-6712218 -54371,-6712222 -54396,-6712243 -54406,-6712249 -54419,-6712256 -54429,-6712258 -54442,-6712258 -54452,-6712258 -54472,-6712255 -54478,-6712255 -54484,-6712256 -54495,-6712259 -54506,-6712264 -54512,-6712268 -54516,-6712271 -54522,-6712280 -54524,-6712285 -54527,-6712308 -54539,-6712347 -54543,-6712370 -54543,-6712383 -54543,-6712388 -54541,-6712395 -54537,-6712402 -54521,-6712419 -54516,-6712429 -54514,-6712446 -54514,-6712482 -54517,-6712513 -54528,-6712569 -54537,-6712603 -54537,-6712618 -54533,-6712632 -54505,-6712682 -54502,-6712688 -54499,-6712698 -54496,-6712711 -54496,-6712723 -54496,-6712731 -54497,-6712736 -54503,-6712751 -54518,-6712774 -54542,-6712805 -54596,-6712879 -54610,-6712897 -54628,-6712915 -54640,-6712925 -54644,-6712928 -54665,-6712934 -54670,-6712937 -54673,-6712939 -54680,-6712947 -54682,-6712953 -54694,-6712981 -54727,-6713035 -54739,-6713055 -54746,-6713070 -54753,-6713093 -54756,-6713108 -54755,-6713133 -54756,-6713143 -54760,-6713159 -54767,-6713182 -54774,-6713203 -54780,-6713219 -54788,-6713236 -54802,-6713263 -54805,-6713273 -54806,-6713280 -54806,-6713292 -54804,-6713310 -54777,-6713425 -54756,-6713504 -54746,-6713540 -54729,-6713592 -54728,-6713599 -54726,-6713606 -54723,-6713616 -54718,-6713626 -54705,-6713649 -54681,-6713682 -54671,-6713692 -54662,-6713700 -54634,-6713720 -54620,-6713732 -54610,-6713743 -54603,-6713753 -54599,-6713760 -54593,-6713782 -54590,-6713798 -54587,-6713826 -54585,-6713878 -54586,-6713889 -54587,-6713897 -54589,-6713906 -54594,-6713917 -54600,-6713927 -54606,-6713934 -54613,-6713941 -54620,-6713948 -54626,-6713952 -54646,-6713960 -54651,-6713963 -54657,-6713968 -54663,-6713977 -54669,-6713988 -54673,-6713999 -54676,-6714011 -54677,-6714025 -54676,-6714038 -54674,-6714053 -54671,-6714065 -54659,-6714098 -54618,-6714187 -54611,-6714208 -54608,-6714219 -54604,-6714240 -54602,-6714264 -54611,-6714372 -54611,-6714389 -54602,-6714440 -54582,-6714552 -54576,-6714597 -54575,-6714616 -54574,-6714629 -54575,-6714645 -54578,-6714663 -54582,-6714682 -54588,-6714699 -54608,-6714745 -54621,-6714779 -54631,-6714807 -54637,-6714829 -54641,-6714862 -54642,-6714895 -54642,-6714911 -54637,-6714949 -54635,-6714962 -54625,-6714995 -54617,-6715014 -54613,-6715021 -54609,-6715025 -54599,-6715032 -54572,-6715046 -54558,-6715055 -54548,-6715061 -54537,-6715071 -54532,-6715080 -54515,-6715109 -54496,-6715138 -54485,-6715159 -54469,-6715200 -54444,-6715287 -54432,-6715336 -54431,-6715346 -54429,-6715371 -54431,-6715419 -54433,-6715432 -54434,-6715440 -54442,-6715461 -54476,-6715523 -54509,-6715596 -54514,-6715607 -54527,-6715639 -54533,-6715663 -54535,-6715676 -54535,-6715695 -54534,-6715708 -54531,-6715744 -54532,-6715765 -54536,-6715797 -54538,-6715816 -54542,-6715833 -54544,-6715839 -54557,-6715870 -54560,-6715881 -54565,-6715906 -54565,-6715916 -54565,-6715924 -54559,-6715946 -54559,-6715950 -54560,-6715956 -54564,-6715961 -54569,-6715964 -54586,-6715973 -54591,-6715977 -54595,-6715981 -54597,-6715985 -54598,-6715995 -54593,-6716016 -54593,-6716022 -54595,-6716027 -54599,-6716030 -54604,-6716032 -54609,-6716032 -54627,-6716028 -54632,-6716028 -54634,-6716029 -54637,-6716032 -54639,-6716035 -54640,-6716041 -54637,-6716062 -54638,-6716066 -54642,-6716074 -54655,-6716091 -54661,-6716105 -54674,-6716149 -54678,-6716171 -54680,-6716190 -54680,-6716201 -54679,-6716209 -54674,-6716224 -54667,-6716238 -54660,-6716253 -54648,-6716272 -54630,-6716294 -54621,-6716304 -54604,-6716317 -54601,-6716320 -54600,-6716323 -54600,-6716329 -54601,-6716333 -54605,-6716337 -54608,-6716340 -54617,-6716344 -54661,-6716349 -54669,-6716352 -54676,-6716355 -54680,-6716359 -54687,-6716366 -54695,-6716379 -54698,-6716386 -54701,-6716394 -54706,-6716411 -54713,-6716443 -54715,-6716451 -54724,-6716465 -54739,-6716482 -54819,-6716550 -54868,-6716588 -54895,-6716607 -54907,-6716618 -54917,-6716630 -54936,-6716664 -54959,-6716694 -54968,-6716708 -54984,-6716738 -54989,-6716749 -54995,-6716768 -55004,-6716810 -55024,-6716861 -55038,-6716902 -55045,-6716916 -55062,-6716945 -55068,-6716955 -55101,-6716992 -55107,-6717001 -55123,-6717030 -55130,-6717041 -55146,-6717058 -55149,-6717063 -55152,-6717069 -55155,-6717077 -55157,-6717093 -55157,-6717114 -55155,-6717126 -55153,-6717130 -55131,-6717156 -55124,-6717163 -55119,-6717170 -55110,-6717187 -55106,-6717191 -55102,-6717194 -55088,-6717205 -55084,-6717209 -55077,-6717219 -55064,-6717242 -55030,-6717327 -54978,-6717426 -54968,-6717448 -54960,-6717469 -54954,-6717488 -54950,-6717517 -54950,-6717533 -54949,-6717545 -54948,-6717549 -54945,-6717555 -54936,-6717565 -54926,-6717573 -54898,-6717586 -54884,-6717591 -54850,-6717601 -54818,-6717607 -54802,-6717612 -54788,-6717619 -54774,-6717628 -54756,-6717644 -54747,-6717656 -54745,-6717662 -54743,-6717668 -54743,-6717672 -54745,-6717683 -54759,-6717737 -54764,-6717754 -54777,-6717784 -54780,-6717794 -54780,-6717804 -54780,-6717813 -54772,-6717853 -54756,-6717916 -54751,-6717930 -54735,-6717960 -54724,-6717990 -54720,-6718010 -54717,-6718029 -54716,-6718039 -54715,-6718073 -54714,-6718082 -54711,-6718091 -54692,-6718149 -54689,-6718157 -54679,-6718171 -54672,-6718179 -54661,-6718191 -54641,-6718238 -54634,-6718262 -54633,-6718270 -54633,-6718277 -54634,-6718283 -54637,-6718288 -54641,-6718294 -54646,-6718299 -54652,-6718304 -54664,-6718309 -54669,-6718310 -54688,-6718310 -54698,-6718313 -54706,-6718316 -54713,-6718319 -54717,-6718324 -54720,-6718328 -54721,-6718335 -54721,-6718339 -54716,-6718364 -54718,-6718395 -54715,-6718407 -54707,-6718426 -54705,-6718433 -54703,-6718456 -54701,-6718462 -54697,-6718471 -54692,-6718478 -54686,-6718484 -54680,-6718488 -54677,-6718489 -54606,-6718473 -54589,-6718470 -54574,-6718469 -54558,-6718470 -54544,-6718471 -54534,-6718473 -54514,-6718480 -54504,-6718486 -54488,-6718496 -54476,-6718508 -54469,-6718517 -54464,-6718527 -54461,-6718535 -54461,-6718544 -54462,-6718553 -54465,-6718564 -54469,-6718573 -54480,-6718591 -54485,-6718603 -54489,-6718620 -54493,-6718649 -54492,-6718660 -54489,-6718666 -54486,-6718670 -54482,-6718672 -54468,-6718675 -54450,-6718679 -54418,-6718681 -54384,-6718680 -54374,-6718681 -54366,-6718685 -54356,-6718690 -54347,-6718697 -54340,-6718705 -54330,-6718721 -54310,-6718772 -54293,-6718821 -54287,-6718844 -54285,-6718854 -54282,-6718880 -54274,-6718951 -54265,-6718989 -54255,-6719019 -54244,-6719045 -54227,-6719079 -54216,-6719104 -54181,-6719152 -54167,-6719171 -54140,-6719202 -54122,-6719219 -54096,-6719238 -54086,-6719247 -54064,-6719272 -54046,-6719286 -54033,-6719294 -54028,-6719296 -53999,-6719312 -53976,-6719321 -53964,-6719329 -53958,-6719337 -53931,-6719381 -53919,-6719410 -53916,-6719415 -53909,-6719422 -53903,-6719425 -53892,-6719430 -53876,-6719435 -53860,-6719439 -53840,-6719440 -53814,-6719437 -53800,-6719434 -53773,-6719424 -53766,-6719423 -53759,-6719424 -53750,-6719426 -53742,-6719429 -53730,-6719437 -53669,-6719528 -53624,-6719591 -53588,-6719645 -53404,-6719887 -53308,-6720030 -53265,-6719999 -53214,-6720048 -53202,-6720033 -53195,-6720030 -53186,-6720031 -53182,-6720033 -53179,-6720036 -53164,-6720068 -53156,-6720088 -53152,-6720093 -53137,-6720106 -53136,-6720108 -53134,-6720114 -53135,-6720130 -53134,-6720138 -53126,-6720161 -53123,-6720175 -53123,-6720184 -53123,-6720199 -53127,-6720230 -53128,-6720259 -53120,-6720332 -53114,-6720352 -53091,-6720406 -53081,-6720426 -53076,-6720439 -53076,-6720458 -53084,-6720508 -53085,-6720522 -53085,-6720537 -53084,-6720545 -53082,-6720551 -53078,-6720559 -53072,-6720571 -53058,-6720592 -53055,-6720597 -53054,-6720602 -53054,-6720609 -53055,-6720617 -53060,-6720635 -53093,-6720707 -53096,-6720722 -53097,-6720731 -53096,-6720737 -53093,-6720745 -53087,-6720750 -53073,-6720758 -53068,-6720762 -53064,-6720769 -53060,-6720777 -53058,-6720788 -53056,-6720800 -53057,-6720810 -53058,-6720819 -53063,-6720837 -53075,-6720860 -53087,-6720876 -53097,-6720888 -53106,-6720899 -53136,-6720937 -53154,-6721004 -53157,-6721006 -53193,-6721019 -53221,-6721028 -53244,-6721035 -53258,-6721037 -53265,-6721038 -53304,-6721035 -53318,-6721034 -53340,-6721036 -53355,-6721040 -53377,-6721047 -53407,-6721059 -53466,-6721094 -53475,-6721099 -53480,-6721101 -53487,-6721102 -53491,-6721102 -53499,-6721099 -53524,-6721080 -53527,-6721078 -53532,-6721076 -53538,-6721077 -53544,-6721078 -53549,-6721081 -53554,-6721087 -53558,-6721092 -53560,-6721096 -53563,-6721112 -53566,-6721128 -53566,-6721133 -53565,-6721138 -53563,-6721143 -53560,-6721146 -53549,-6721154 -53542,-6721166 -53538,-6721179 -53541,-6721198 -53540,-6721205 -53537,-6721212 -53523,-6721226 -53519,-6721233 -53515,-6721244 -53513,-6721252 -53512,-6721263 -53517,-6721274 -53554,-6721320 -53560,-6721329 -53574,-6721356 -53581,-6721364 -53589,-6721373 -53598,-6721380 -53607,-6721386 -53744,-6721460 -53740,-6721498 -53734,-6721525 -53717,-6721594 -53713,-6721605 -53709,-6721610 -53695,-6721625 -53691,-6721631 -53685,-6721645 -53683,-6721656 -53684,-6721665 -53688,-6721678 -53694,-6721690 -53700,-6721702 -53711,-6721718 -53727,-6721741 -53758,-6721780 -53772,-6721804 -53779,-6721817 -53784,-6721833 -53789,-6721851 -53791,-6721868 -53791,-6721875 -53769,-6721874 -53764,-6721904 -53745,-6721941 -53720,-6721980 -53750,-6722026 -53762,-6722042 -53788,-6722072 -53817,-6722101 -53824,-6722107 -53830,-6722111 -53835,-6722112 -53841,-6722113 -53862,-6722113 -53869,-6722114 -53891,-6722125 -53894,-6722127 -53913,-6722139 -53938,-6722150 -53948,-6722158 -53953,-6722163 -53957,-6722170 -53962,-6722180 -53963,-6722185 -53948,-6722262 -53938,-6722310 -53919,-6722415 -53910,-6722448 -53909,-6722458 -53909,-6722463 -53913,-6722473 -53928,-6722498 -53938,-6722517 -53941,-6722526 -53941,-6722535 -53940,-6722540 -53934,-6722565 -53933,-6722576 -53932,-6722606 -53929,-6722626 -53917,-6722666 -53905,-6722724 -53891,-6722777 -53889,-6722790 -53888,-6722801 -53887,-6722850 -53881,-6722903 -53878,-6722934 -53880,-6722960 -53882,-6722974 -53887,-6722990 -53893,-6723003 -53899,-6723015 -53904,-6723021 -53943,-6723070 -53968,-6723106 -53984,-6723131 -53991,-6723145 -53996,-6723158 -54001,-6723172 -54007,-6723195 -54009,-6723210 -54012,-6723235 -54027,-6723285 -54039,-6723395 -54042,-6723411 -54048,-6723429 -54049,-6723434 -54048,-6723439 -54046,-6723442 -54038,-6723449 -53977,-6723481 -53967,-6723488 -53957,-6723496 -53946,-6723506 -53938,-6723515 -53917,-6723551 -53897,-6723582 -53882,-6723612 -53877,-6723630 -53876,-6723636 -53877,-6723651 -53881,-6723664 -53892,-6723689 -53899,-6723698 -53906,-6723703 -53910,-6723705 -53920,-6723706 -53964,-6723700 -53980,-6723700 -53989,-6723701 -54008,-6723706 -54024,-6723714 -54039,-6723724 -54048,-6723733 -54062,-6723752 -54069,-6723758 -54077,-6723765 -54096,-6723778 -54104,-6723782 -54120,-6723791 -54148,-6723794 -54171,-6723800 -54207,-6723814 -54220,-6723820 -54252,-6723837 -54279,-6723854 -54292,-6723864 -54312,-6723880 -54330,-6723902 -54335,-6723911 -54339,-6723918 -54340,-6723925 -54341,-6723930 -54335,-6723955 -54334,-6723962 -54334,-6723979 -54337,-6723989 -54344,-6723999 -54351,-6724005 -54362,-6724012 -54370,-6724016 -54397,-6724023 -54404,-6724026 -54411,-6724031 -54419,-6724038 -54428,-6724048 -54436,-6724065 -54458,-6724136 -54481,-6724189 -54487,-6724206 -54488,-6724217 -54488,-6724229 -54486,-6724247 -54480,-6724261 -54457,-6724301 -54453,-6724315 -54451,-6724336 -54450,-6724340 -54445,-6724351 -54440,-6724362 -54430,-6724378 -54412,-6724398 -54403,-6724410 -54395,-6724424 -54390,-6724434 -54386,-6724451 -54385,-6724469 -54388,-6724492 -54394,-6724522 -54401,-6724575 -54425,-6724663 -54437,-6724695 -54457,-6724733 -54468,-6724761 -54483,-6724809 -54502,-6724854 -54514,-6724878 -54521,-6724888 -54534,-6724904 -54549,-6724921 -54550,-6724922 -54603,-6724979 -54639,-6725021 -54662,-6725043 -54673,-6725052 -54676,-6725055 -54699,-6725072 -54726,-6725092 -54738,-6725099 -54832,-6725157 -54870,-6725181 -54902,-6725204 -54972,-6725263 -55016,-6725297 -55030,-6725310 -55041,-6725322 -55052,-6725336 -55060,-6725348 -55069,-6725364 -55083,-6725393 -55104,-6725449 -55111,-6725476 -55114,-6725490 -55115,-6725509 -55115,-6725511 -55116,-6725526 -55115,-6725541 -55111,-6725581 -55098,-6725644 -55095,-6725682 -55095,-6725701 -55096,-6725710 -55105,-6725735 -55132,-6725789 -55140,-6725809 -55142,-6725816 -55154,-6725881 -55167,-6725937 -55171,-6725950 -55185,-6725991 -55195,-6726011 -55203,-6726024 -55214,-6726037 -55223,-6726047 -55238,-6726058 -55260,-6726068 -55266,-6726072 -55270,-6726076 -55274,-6726081 -55277,-6726087 -55285,-6726110 -55290,-6726119 -55320,-6726163 -55336,-6726187 -55349,-6726210 -55360,-6726237 -55389,-6726310 -55400,-6726347 -55403,-6726360 -55409,-6726395 -55410,-6726405 -55420,-6726469 -55427,-6726501 -55439,-6726509 -55458,-6726509 -55477,-6726508 -55496,-6726509 -55509,-6726516 -55512,-6726528 -55520,-6726534 -55525,-6726540 -55528,-6726547 -55529,-6726550 -55530,-6726553 -55529,-6726564 -55528,-6726575 -55525,-6726586 -55513,-6726615 -55501,-6726647 -55506,-6726669 -55512,-6726673 -55520,-6726678 -55528,-6726678 -55544,-6726675 -55558,-6726678 -55564,-6726678 -55578,-6726680 -55587,-6726684 -55594,-6726688 -55600,-6726694 -55605,-6726703 -55608,-6726712 -55610,-6726720 -55610,-6726727 -55609,-6726735 -55607,-6726748 -55601,-6726770 -55595,-6726787 -55591,-6726795 -55588,-6726800 -55583,-6726804 -55558,-6726826 -55546,-6726838 -55539,-6726847 -55533,-6726856 -55529,-6726865 -55524,-6726880 -55523,-6726886 -55524,-6726912 -55524,-6726918 -55516,-6726945 -55512,-6726982 -55504,-6727024 -55502,-6727038 -55500,-6727072 -55500,-6727125 -55501,-6727134 -55504,-6727144 -55507,-6727154 -55513,-6727164 -55517,-6727170 -55565,-6727226 -55572,-6727235 -55577,-6727244 -55583,-6727256 -55588,-6727268 -55593,-6727281 -55596,-6727296 -55598,-6727310 -55601,-6727351 -55603,-6727393 -55604,-6727472 -55616,-6727520 -55632,-6727575 -55670,-6727704 -55715,-6727836 -55720,-6727856 -55722,-6727868 -55724,-6727881 -55725,-6727898 -55724,-6727914 -55718,-6727988 -55720,-6728017 -55721,-6728039 -55726,-6728065 -55733,-6728092 -55744,-6728117 -55756,-6728139 -55757,-6728145 -55757,-6728152 -55757,-6728158 -55742,-6728189 -55729,-6728227 -55717,-6728300 -55714,-6728311 -55705,-6728333 -55701,-6728340 -55696,-6728345 -55691,-6728348 -55685,-6728351 -55666,-6728357 -55650,-6728361 -55608,-6728370 -55597,-6728371 -55583,-6728371 -55570,-6728370 -55559,-6728368 -55552,-6728365 -55540,-6728359 -55526,-6728347 -55487,-6728305 -55473,-6728295 -55458,-6728290 -55420,-6728280 -55405,-6728277 -55396,-6728278 -55379,-6728286 -55356,-6728304 -55329,-6728323 -55321,-6728329 -55299,-6728353 -55290,-6728368 -55288,-6728373 -55286,-6728384 -55288,-6728394 -55294,-6728408 -55295,-6728414 -55295,-6728421 -55291,-6728437 -55276,-6728475 -55273,-6728504 -55270,-6728516 -55268,-6728521 -55252,-6728542 -55249,-6728550 -55248,-6728556 -55248,-6728564 -55250,-6728574 -55254,-6728583 -55258,-6728591 -55264,-6728597 -55284,-6728616 -55308,-6728635 -55321,-6728650 -55328,-6728662 -55335,-6728674 -55341,-6728689 -55344,-6728698 -55347,-6728716 -55350,-6728745 -55374,-6728859 -55376,-6728884 -55373,-6728913 -55370,-6728929 -55367,-6728943 -55356,-6728969 -55353,-6728984 -55353,-6728993 -55355,-6728999 -55383,-6729064 -55408,-6729157 -55419,-6729206 -55430,-6729247 -55433,-6729272 -55437,-6729333 -55441,-6729357 -55450,-6729394 -55485,-6729489 -55491,-6729507 -55493,-6729517 -55494,-6729531 -55492,-6729564 -55495,-6729587 -55500,-6729608 -55507,-6729620 -55515,-6729630 -55537,-6729651 -55557,-6729667 -55561,-6729671 -55565,-6729677 -55570,-6729687 -55573,-6729698 -55574,-6729709 -55574,-6729721 -55572,-6729730 -55567,-6729742 -55563,-6729747 -55555,-6729754 -55536,-6729769 -55484,-6729799 -55477,-6729806 -55474,-6729810 -55472,-6729819 -55472,-6729825 -55473,-6729832 -55476,-6729846 -55513,-6729895 -55535,-6729919 -55540,-6729926 -55544,-6729934 -55545,-6729939 -55544,-6729960 -55528,-6730015 -55526,-6730028 -55534,-6730073 -55541,-6730099 -55542,-6730111 -55541,-6730118 -55539,-6730127 -55536,-6730137 -55531,-6730148 -55525,-6730158 -55520,-6730164 -55516,-6730168 -55498,-6730182 -55494,-6730187 -55490,-6730195 -55487,-6730206 -55486,-6730218 -55486,-6730228 -55493,-6730253 -55496,-6730264 -55499,-6730288 -55498,-6730298 -55492,-6730320 -55468,-6730387 -55459,-6730409 -55442,-6730445 -55430,-6730474 -55425,-6730493 -55422,-6730518 -55422,-6730530 -55423,-6730544 -55428,-6730576 -55430,-6730591 -55430,-6730623 -55429,-6730640 -55427,-6730657 -55424,-6730674 -55410,-6730727 -55406,-6730737 -55401,-6730746 -55398,-6730750 -55388,-6730759 -55370,-6730770 -55347,-6730777 -55337,-6730782 -55333,-6730787 -55330,-6730794 -55329,-6730806 -55328,-6730827 -55316,-6730866 -55310,-6730886 -55291,-6730964 -55283,-6730989 -55268,-6731029 -55227,-6731126 -55223,-6731136 -55221,-6731144 -55220,-6731155 -55220,-6731162 -55222,-6731200 -55221,-6731214 -55218,-6731225 -55208,-6731263 -55203,-6731292 -55196,-6731314 -55193,-6731320 -55175,-6731350 -55170,-6731361 -55149,-6731449 -55146,-6731470 -55146,-6731489 -55148,-6731512 -55151,-6731529 -55154,-6731539 -55160,-6731552 -55164,-6731559 -55183,-6731586 -55206,-6731630 -55215,-6731643 -55226,-6731658 -55238,-6731671 -55248,-6731681 -55256,-6731687 -55283,-6731701 -55288,-6731706 -55292,-6731711 -55297,-6731723 -55301,-6731756 -55302,-6731763 -55304,-6731781 -55304,-6731795 -55327,-6731810 -55333,-6731815 -55343,-6731820 -55375,-6731835 -55390,-6731840 -55420,-6731850 -55456,-6731860 -55515,-6731873 -55541,-6731881 -55545,-6731887 -55559,-6731894 -55577,-6731904 -55591,-6731921 -55600,-6731939 -55615,-6731961 -55636,-6732007 -55637,-6732009 -55667,-6732056 -55676,-6732076 -55679,-6732087 -55680,-6732098 -55674,-6732117 -55672,-6732136 -55664,-6732171 -55662,-6732190 -55662,-6732202 -55665,-6732228 -55674,-6732267 -55675,-6732290 -55675,-6732303 -55673,-6732319 -55670,-6732337 -55662,-6732365 -55649,-6732399 -55637,-6732426 -55631,-6732436 -55618,-6732444 -55610,-6732454 -55594,-6732469 -55569,-6732495 -55520,-6732529 -55503,-6732534 -55484,-6732550 -55475,-6732563 -55469,-6732575 -55469,-6732603 -55478,-6732640 -55478,-6732646 -55470,-6732654 -55460,-6732664 -55448,-6732676 -55422,-6732738 -55417,-6732752 -55412,-6732771 -55408,-6732814 -55400,-6732857 -55396,-6732902 -55396,-6732913 -55398,-6732922 -55400,-6732929 -55409,-6732941 -55463,-6732984 -55472,-6732992 -55507,-6733034 -55546,-6733070 -55559,-6733083 -55569,-6733094 -55576,-6733102 -55605,-6733148 -55623,-6733174 -55666,-6733230 -55680,-6733249 -55685,-6733258 -55689,-6733266 -55694,-6733284 -55693,-6733297 -55693,-6733305 -55689,-6733318 -55682,-6733330 -55671,-6733339 -55655,-6733350 -55639,-6733363 -55631,-6733373 -55627,-6733380 -55625,-6733387 -55620,-6733418 -55620,-6733428 -55620,-6733460 -55619,-6733478 -55618,-6733490 -55614,-6733511 -55606,-6733536 -55599,-6733551 -55589,-6733567 -55577,-6733585 -55561,-6733604 -55500,-6733663 -55486,-6733673 -55462,-6733685 -55458,-6733689 -55451,-6733696 -55420,-6733733 -55395,-6733761 -55370,-6733782 -55350,-6733796 -55330,-6733803 -55325,-6733805 -55308,-6733810 -55291,-6733813 -55279,-6733815 -55265,-6733814 -55249,-6733812 -55238,-6733809 -55229,-6733804 -55221,-6733798 -55214,-6733790 -55210,-6733785 -55198,-6733758 -55188,-6733741 -55177,-6733723 -55170,-6733715 -55162,-6733708 -55134,-6733699 -55102,-6733696 -55068,-6733688 -55059,-6733686" stroke="#006747" stroke-width="46" /></ns0:svg>    <rect x="20" y="50"  width="250" height="25"  rx="0"  fill="#006747" fill-opacity="0.8" />    <text x="145" y="70" text-anchor="middle" font-family="Frutiger" font-weight="bold" font-size="30" fill="white">Hillingdon</text>    <rect x="35" y="195" width="220" height="160" rx="15" fill="#78BE20"/>    <g font-family="Frutiger" font-size="15" fill="#231F20">        <g> <text x="45" y="218">Self-harm</text> <text x="245" y="218" text-anchor="end">8</text> </g>        <g> <text x="45" y="243">SEN</text> <text x="245" y="243" text-anchor="end">6</text> </g>        <g> <text x="45" y="268">Difficulties</text> <text x="245" y="268" text-anchor="end">59</text> </g>        <g> <text x="45" y="293">Child Carer</text> <text x="245" y="293" text-anchor="end">9</text> </g>        <g> <text x="45" y="318">Drinkers</text> <text x="245" y="318" text-anchor="end">27</text> </g>        <g> <text x="45" y="343">Safeguarding </text> <text x="245" y="343" text-anchor="end">26</text> </g>    </g></svg>