<?xml version="1.0" standalone="no"?>
<!DOCTYPE svg PUBLIC "-//W3C//DTD SVG 1.1//EN"
"http://www.w3.org/Graphics/SVG/1.1/DTD/svg11.dtd">
<svg height="1800" version="1.1" width="1800" xmlns="http://www.w3.org/2000/svg"><defs><style type="text/css">@font-face {font-family: 'Frutiger';font-style: normal;font-weight: normal;src: local('Frutiger'), url('../fonts/Frutiger.woff') format('woff');}@font-face {font-family: 'Frutiger Bold';font-style: normal;font-weight: normal;src: local('Frutiger Bold'), url('../fonts/Frutiger_bold.woff') format('woff');}        </style>    </defs>    <rect x="20" y="20"  width="250" height="350" rx="15" fill="#009639" />    <rect x="35" y="35"  width="220" height="145" rx="15" fill="#E8EDEE" /><ns0:svg xmlns:ns0="http://www.w3.org/2000/svg" height="115" version="1.1" viewBox="-46709 -6720899 19429 12384" width="220" x="35" y="50"><ns0:polygon fill="#006747" points=" -38129,-6720510 -38129,-6720502 -38086,-6720503 -38006,-6720494 -37959,-6720492 -37740,-6720474 -37719,-6720471 -37687,-6720464 -37659,-6720458 -37607,-6720443 -37578,-6720432 -37531,-6720415 -37444,-6720368 -37437,-6720364 -37433,-6720363 -37390,-6720354 -37382,-6720345 -37356,-6720334 -37354,-6720343 -37259,-6720304 -37204,-6720274 -37200,-6720279 -37197,-6720283 -37195,-6720287 -37191,-6720292 -37090,-6720263 -36981,-6720229 -36888,-6720204 -36779,-6720179 -36666,-6720154 -36582,-6720135 -36506,-6720113 -36401,-6720062 -36301,-6720006 -36241,-6719966 -36148,-6719906 -36058,-6719854 -35928,-6719777 -35871,-6719740 -35841,-6719721 -35763,-6719678 -35674,-6719625 -35584,-6719573 -35514,-6719533 -35438,-6719487 -35394,-6719457 -35372,-6719454 -35358,-6719439 -35327,-6719418 -35237,-6719353 -35243,-6719339 -35154,-6719278 -35011,-6719175 -35001,-6719187 -34926,-6719129 -34819,-6719038 -34795,-6719013 -34787,-6718969 -34771,-6718913 -34755,-6718866 -34740,-6718826 -34723,-6718795 -34699,-6718763 -34672,-6718728 -34658,-6718714 -34650,-6718707 -34642,-6718703 -34483,-6718625 -34468,-6718616 -34441,-6718598 -34350,-6718529 -34303,-6718487 -34250,-6718424 -34202,-6718355 -34191,-6718336 -34186,-6718328 -34191,-6718322 -34194,-6718319 -34197,-6718316 -34204,-6718314 -34290,-6718312 -34382,-6718309 -34383,-6718263 -34336,-6718246 -34290,-6718183 -34283,-6718168 -34288,-6718097 -34307,-6718039 -34321,-6718003 -34335,-6717975 -34338,-6717960 -34347,-6717955 -34245,-6717804 -34179,-6717699 -34168,-6717681 -34099,-6717566 -34052,-6717510 -34008,-6717457 -33953,-6717397 -33919,-6717350 -33921,-6717349 -33925,-6717346 -34057,-6717273 -34059,-6717227 -34048,-6716952 -34049,-6716900 -34048,-6716788 -34056,-6716673 -34057,-6716659 -34064,-6716560 -34071,-6716480 -34082,-6716407 -34089,-6716342 -34098,-6716289 -34103,-6716270 -34109,-6716263 -34119,-6716257 -34151,-6716246 -34170,-6716234 -34181,-6716214 -34190,-6716189 -34198,-6716166 -34215,-6716147 -34219,-6716143 -34228,-6716134 -34224,-6716131 -34215,-6716128 -34067,-6716076 -33921,-6716027 -33697,-6715940 -33675,-6715967 -33553,-6716018 -33440,-6716093 -33343,-6716167 -33226,-6716279 -33180,-6716331 -33135,-6716383 -33095,-6716455 -33081,-6716472 -33072,-6716481 -33059,-6716494 -33045,-6716504 -33028,-6716515 -33013,-6716523 -32992,-6716532 -32981,-6716535 -32967,-6716537 -32954,-6716538 -32943,-6716538 -32934,-6716536 -32928,-6716534 -32923,-6716532 -32913,-6716523 -32881,-6716474 -32877,-6716470 -32867,-6716463 -32861,-6716462 -32855,-6716461 -32849,-6716461 -32841,-6716463 -32766,-6716483 -32672,-6716468 -32646,-6716475 -32604,-6716494 -32518,-6716529 -32509,-6716532 -32320,-6716612 -32301,-6716621 -32140,-6716677 -31918,-6716794 -31802,-6716865 -31738,-6716910 -31630,-6716993 -31475,-6717110 -31452,-6717129 -31443,-6717136 -31431,-6717118 -31345,-6716999 -31225,-6716845 -31134,-6716718 -31074,-6716640 -31038,-6716597 -31018,-6716570 -30994,-6716544 -30968,-6716520 -30943,-6716502 -30921,-6716493 -30931,-6716478 -30940,-6716473 -30951,-6716467 -30960,-6716405 -30961,-6716400 -30996,-6716402 -31010,-6716308 -31020,-6716258 -31032,-6716219 -31044,-6716181 -31056,-6716159 -31086,-6716132 -31140,-6716104 -31194,-6716083 -31272,-6716046 -31281,-6716063 -31334,-6716165 -31345,-6716161 -31420,-6716136 -31560,-6716090 -31616,-6716215 -31633,-6716206 -31756,-6716137 -31798,-6716134 -31804,-6716116 -31810,-6716106 -31816,-6716098 -31825,-6716089 -31888,-6716060 -31981,-6716008 -32101,-6715948 -32211,-6715884 -32177,-6715842 -32143,-6715798 -32078,-6715736 -32012,-6715669 -31944,-6715594 -31875,-6715529 -31847,-6715502 -31807,-6715438 -31640,-6715392 -31641,-6715408 -31633,-6715417 -31540,-6715394 -31498,-6715379 -31440,-6715365 -31403,-6715355 -31237,-6715309 -31220,-6715300 -31194,-6715306 -31182,-6715310 -31137,-6715327 -31120,-6715330 -31083,-6715358 -31065,-6715347 -31052,-6715358 -31039,-6715372 -30854,-6715448 -30646,-6715490 -30449,-6715529 -30307,-6715557 -30216,-6715575 -30119,-6715593 -30100,-6715543 -30017,-6715586 -29985,-6715556 -29969,-6715541 -29958,-6715536 -29944,-6715538 -29909,-6715555 -29911,-6715560 -29919,-6715578 -29851,-6715587 -29817,-6715598 -29778,-6715613 -29716,-6715650 -29676,-6715677 -29621,-6715730 -29537,-6715810 -29534,-6715812 -29528,-6715818 -29523,-6715824 -29517,-6715831 -29512,-6715837 -29507,-6715844 -29502,-6715850 -29489,-6715871 -29488,-6715872 -29487,-6715873 -29486,-6715874 -29485,-6715875 -29484,-6715876 -29484,-6715877 -29483,-6715878 -29482,-6715880 -29481,-6715881 -29481,-6715882 -29480,-6715883 -29480,-6715884 -29480,-6715885 -29479,-6715887 -29479,-6715888 -29479,-6715889 -29479,-6715891 -29479,-6715892 -29479,-6715893 -29479,-6715895 -29479,-6715896 -29479,-6715897 -29472,-6715925 -29472,-6715926 -29471,-6715929 -29471,-6715933 -29470,-6715936 -29470,-6715939 -29469,-6715941 -29480,-6715976 -29435,-6715996 -29434,-6715997 -29371,-6716031 -29316,-6716064 -29264,-6716110 -29171,-6716198 -29077,-6716289 -29010,-6716356 -29001,-6716366 -28988,-6716397 -28975,-6716391 -28954,-6716407 -28902,-6716429 -28768,-6716493 -28729,-6716515 -28722,-6716519 -28696,-6716540 -28647,-6716513 -28630,-6716503 -28554,-6716472 -28545,-6716469 -28544,-6716466 -28542,-6716462 -28541,-6716458 -28539,-6716454 -28539,-6716453 -28537,-6716449 -28535,-6716446 -28532,-6716442 -28530,-6716439 -28528,-6716435 -28527,-6716433 -28524,-6716424 -28521,-6716416 -28519,-6716407 -28517,-6716398 -28515,-6716389 -28513,-6716380 -28512,-6716371 -28510,-6716362 -28500,-6716293 -28458,-6716299 -28414,-6716305 -28276,-6716315 -28145,-6716324 -28087,-6716327 -28068,-6716324 -28059,-6716321 -28053,-6716318 -28029,-6716303 -28027,-6716302 -28001,-6716290 -27989,-6716286 -27978,-6716284 -27966,-6716283 -27954,-6716282 -27939,-6716284 -27930,-6716285 -27913,-6716334 -27718,-6716276 -27606,-6716242 -27566,-6716229 -27533,-6716214 -27518,-6716206 -27510,-6716201 -27510,-6716201 -27506,-6716198 -27468,-6716145 -27439,-6716101 -27425,-6716086 -27416,-6716078 -27423,-6716048 -27430,-6716024 -27446,-6715983 -27486,-6715916 -27487,-6715915 -27492,-6715904 -27423,-6715860 -27413,-6715864 -27308,-6715807 -27300,-6715802 -27315,-6715773 -27331,-6715773 -27364,-6715775 -27373,-6715773 -27382,-6715771 -27387,-6715770 -27418,-6715758 -27452,-6715739 -27488,-6715716 -27574,-6715640 -27661,-6715549 -27657,-6715539 -27699,-6715494 -27752,-6715440 -27754,-6715442 -27764,-6715450 -27779,-6715431 -27787,-6715420 -27870,-6715301 -27879,-6715289 -27842,-6715267 -27834,-6715263 -27853,-6715233 -27889,-6715196 -27896,-6715189 -27860,-6715113 -27860,-6715104 -27860,-6715082 -27860,-6715081 -27867,-6715065 -27901,-6715030 -27953,-6714964 -28083,-6714750 -28093,-6714731 -28108,-6714706 -28121,-6714651 -28123,-6714618 -28121,-6714581 -28100,-6714506 -28078,-6714438 -28060,-6714367 -28051,-6714290 -28041,-6714196 -27904,-6713909 -27892,-6713871 -27861,-6713824 -27881,-6713783 -27882,-6713780 -27886,-6713771 -27890,-6713761 -27893,-6713752 -27897,-6713743 -27898,-6713740 -27899,-6713735 -27901,-6713730 -27902,-6713725 -27904,-6713720 -27905,-6713715 -27906,-6713709 -27907,-6713704 -27908,-6713697 -27908,-6713691 -27909,-6713685 -27909,-6713678 -27909,-6713672 -27909,-6713672 -27909,-6713665 -27908,-6713659 -27908,-6713653 -27907,-6713646 -27906,-6713640 -27905,-6713634 -27894,-6713535 -27852,-6713323 -27799,-6713048 -27764,-6712938 -27756,-6712888 -27747,-6712852 -27730,-6712764 -27726,-6712733 -27723,-6712725 -27721,-6712718 -27715,-6712701 -27695,-6712667 -27649,-6712584 -27573,-6712450 -27516,-6712355 -27454,-6712230 -27431,-6712154 -27430,-6712150 -27407,-6712058 -27406,-6712054 -27387,-6712000 -27376,-6711908 -27365,-6711861 -27357,-6711813 -27357,-6711760 -27353,-6711734 -27322,-6711615 -27310,-6711578 -27280,-6711424 -27290,-6711424 -27439,-6711423 -27439,-6711413 -27438,-6711395 -27435,-6711360 -27430,-6711338 -27424,-6711313 -27413,-6711277 -27407,-6711258 -27384,-6711179 -27349,-6711052 -27350,-6711052 -27348,-6711046 -27413,-6711034 -27453,-6711026 -27605,-6710998 -27608,-6711012 -27613,-6711043 -27720,-6711019 -27747,-6711013 -27754,-6711053 -27763,-6711056 -27765,-6711052 -27770,-6711035 -27791,-6711039 -27812,-6711043 -27813,-6711040 -27815,-6711032 -27819,-6711012 -27830,-6711015 -27864,-6711015 -27920,-6711032 -27943,-6711049 -27966,-6711050 -28107,-6711025 -28108,-6711031 -28110,-6711061 -28115,-6711060 -28138,-6711055 -28240,-6711034 -28246,-6711033 -28237,-6710998 -28234,-6710986 -28306,-6710973 -28332,-6710965 -28334,-6710966 -28335,-6710968 -28369,-6711014 -28393,-6710991 -28391,-6710989 -28391,-6710988 -28335,-6710926 -28329,-6710920 -28328,-6710919 -28325,-6710915 -28319,-6710907 -28314,-6710893 -28292,-6710857 -28264,-6710815 -28235,-6710779 -28216,-6710756 -28206,-6710741 -28201,-6710734 -28200,-6710726 -28197,-6710701 -28188,-6710680 -28190,-6710661 -28181,-6710598 -28173,-6710534 -28169,-6710519 -28169,-6710513 -28170,-6710504 -28173,-6710501 -28174,-6710500 -28177,-6710481 -28170,-6710469 -28169,-6710461 -28168,-6710451 -28163,-6710405 -28156,-6710358 -28154,-6710335 -28145,-6710306 -28138,-6710284 -28133,-6710268 -28132,-6710232 -28137,-6710202 -28151,-6710169 -28174,-6710113 -28203,-6710043 -28227,-6710001 -28263,-6709923 -28298,-6709847 -28341,-6709763 -28348,-6709749 -28386,-6709677 -28387,-6709661 -28388,-6709648 -28394,-6709609 -28395,-6709600 -28396,-6709567 -28397,-6709565 -28413,-6709562 -28441,-6709553 -28428,-6709521 -28437,-6709516 -28453,-6709509 -28449,-6709503 -28442,-6709493 -28436,-6709466 -28426,-6709443 -28429,-6709413 -28432,-6709312 -28447,-6709312 -28482,-6709314 -28534,-6709314 -28665,-6709308 -28778,-6709294 -28913,-6709278 -28950,-6709276 -28980,-6709269 -29083,-6709254 -29088,-6709254 -29104,-6709261 -29124,-6709258 -29134,-6709257 -29147,-6709250 -29151,-6709247 -29196,-6709237 -29238,-6709230 -29360,-6709213 -29434,-6709198 -29558,-6709176 -29685,-6709153 -29794,-6709134 -29799,-6709151 -29837,-6709147 -29877,-6709141 -29933,-6709148 -29986,-6709159 -30059,-6709187 -30135,-6709225 -30165,-6709247 -30197,-6709275 -30212,-6709289 -30227,-6709305 -30253,-6709336 -30278,-6709370 -30294,-6709401 -30310,-6709440 -30329,-6709530 -30357,-6709564 -30382,-6709598 -30421,-6709643 -30469,-6709683 -30528,-6709733 -30689,-6709852 -30755,-6709912 -30803,-6709958 -30865,-6710037 -30932,-6710127 -30950,-6710154 -30967,-6710182 -30987,-6710219 -31004,-6710256 -31021,-6710293 -31037,-6710332 -31052,-6710371 -31080,-6710450 -31103,-6710511 -31117,-6710537 -31131,-6710564 -31150,-6710595 -31155,-6710592 -31195,-6710651 -31248,-6710721 -31254,-6710728 -31282,-6710705 -31431,-6710593 -31444,-6710574 -31524,-6710513 -31601,-6710465 -31693,-6710410 -31731,-6710393 -31742,-6710389 -31793,-6710364 -31805,-6710358 -31851,-6710351 -31925,-6710337 -32033,-6710357 -32071,-6710364 -32135,-6710371 -32195,-6710388 -32276,-6710415 -32355,-6710441 -32433,-6710464 -32509,-6710480 -32617,-6710495 -32660,-6710500 -32685,-6710503 -32704,-6710502 -32719,-6710500 -32731,-6710498 -32744,-6710492 -32750,-6710489 -32764,-6710482 -32842,-6710443 -32904,-6710407 -32962,-6710375 -33033,-6710336 -33231,-6710228 -33368,-6710154 -33405,-6710138 -33473,-6710102 -33468,-6710085 -33456,-6710005 -33438,-6709977 -33427,-6709965 -33420,-6709953 -33412,-6709939 -33404,-6709921 -33399,-6709891 -33393,-6709847 -33387,-6709828 -33373,-6709808 -33369,-6709803 -33352,-6709777 -33342,-6709757 -33321,-6709713 -33290,-6709643 -33274,-6709609 -33263,-6709585 -33214,-6709494 -33194,-6709463 -33168,-6709422 -33179,-6709417 -33121,-6709305 -33201,-6709288 -33329,-6709260 -33517,-6709221 -33532,-6709274 -33542,-6709310 -33545,-6709339 -33544,-6709365 -33641,-6709402 -33691,-6709415 -33761,-6709436 -33832,-6709451 -33911,-6709475 -33976,-6709503 -33993,-6709513 -34022,-6709530 -34044,-6709536 -34047,-6709516 -34049,-6709489 -34045,-6709435 -34041,-6709388 -34023,-6709319 -33999,-6709242 -34123,-6709178 -34231,-6709121 -34287,-6709095 -34328,-6709072 -34377,-6709038 -34472,-6708967 -34613,-6708864 -34720,-6708783 -34726,-6708791 -34782,-6708870 -34799,-6708893 -34805,-6708893 -34821,-6708916 -34874,-6708986 -34913,-6709039 -34944,-6709073 -34946,-6709072 -34956,-6709064 -34958,-6709066 -34964,-6709073 -34965,-6709072 -34997,-6709047 -35029,-6709095 -35034,-6709093 -35050,-6709114 -35074,-6709139 -35072,-6709142 -35054,-6709162 -35004,-6709211 -35012,-6709220 -35038,-6709251 -35144,-6709387 -35138,-6709391 -35095,-6709424 -35098,-6709426 -35105,-6709432 -35112,-6709438 -35150,-6709486 -35157,-6709481 -35313,-6709363 -35422,-6709271 -35463,-6709234 -35531,-6709186 -35610,-6709249 -35679,-6709304 -35727,-6709331 -35784,-6709362 -35899,-6709423 -36002,-6709485 -36067,-6709461 -36149,-6709506 -36162,-6709491 -36253,-6709391 -36305,-6709330 -36390,-6709436 -36445,-6709510 -36730,-6709338 -36794,-6709387 -36841,-6709408 -36859,-6709417 -36873,-6709423 -36930,-6709449 -36936,-6709437 -36966,-6709450 -37030,-6709478 -37095,-6709496 -37183,-6709519 -37255,-6709531 -37256,-6709540 -37324,-6709541 -37339,-6709541 -37400,-6709542 -37488,-6709549 -37578,-6709549 -37694,-6709548 -37770,-6709540 -37878,-6709530 -38000,-6709506 -38003,-6709521 -38081,-6709511 -38235,-6709604 -38373,-6709686 -38534,-6709781 -38654,-6709848 -38767,-6709923 -38902,-6710021 -38919,-6710035 -38935,-6710045 -38951,-6710052 -38965,-6710057 -38981,-6710060 -38999,-6710061 -39019,-6710061 -39037,-6710059 -39065,-6710053 -39214,-6709999 -39329,-6709960 -39466,-6709920 -39469,-6709919 -39472,-6709907 -39472,-6709906 -39491,-6709911 -39501,-6709911 -39514,-6709910 -39532,-6709897 -39546,-6709894 -39572,-6709889 -39588,-6709893 -39609,-6709889 -39635,-6709880 -39640,-6709877 -39654,-6709867 -39661,-6709863 -39670,-6709858 -39693,-6709848 -39730,-6709834 -39772,-6709825 -39800,-6709825 -39853,-6709823 -39869,-6709814 -39899,-6709798 -39905,-6709794 -39930,-6709766 -39982,-6709720 -40026,-6709684 -40084,-6709642 -40136,-6709626 -40158,-6709616 -40179,-6709601 -40202,-6709587 -40239,-6709568 -40249,-6709559 -40257,-6709554 -40265,-6709549 -40265,-6709544 -40265,-6709535 -40286,-6709518 -40313,-6709512 -40325,-6709511 -40341,-6709508 -40352,-6709503 -40365,-6709496 -40385,-6709492 -40392,-6709494 -40396,-6709495 -40406,-6709491 -40427,-6709476 -40434,-6709460 -40439,-6709439 -40461,-6709417 -40466,-6709413 -40468,-6709412 -40476,-6709410 -40484,-6709326 -40488,-6709271 -40504,-6709253 -40526,-6709224 -40559,-6709193 -40579,-6709170 -40600,-6709140 -40627,-6709093 -40671,-6709025 -40718,-6709085 -40747,-6709061 -40795,-6709016 -40814,-6708984 -40823,-6708968 -40834,-6708952 -40848,-6708941 -40849,-6708941 -40847,-6708935 -40849,-6708927 -40853,-6708925 -40855,-6708924 -40893,-6708901 -40934,-6708875 -40966,-6708859 -40993,-6708844 -41005,-6708841 -40990,-6708815 -40955,-6708753 -40954,-6708751 -41039,-6708704 -41116,-6708661 -41164,-6708638 -41315,-6708553 -41394,-6708515 -41393,-6708524 -41391,-6708534 -41387,-6708548 -41377,-6708571 -41392,-6708591 -41402,-6708606 -41426,-6708602 -41443,-6708602 -41455,-6708607 -41481,-6708629 -41496,-6708661 -41524,-6708693 -41544,-6708713 -41554,-6708722 -41574,-6708757 -41588,-6708760 -41598,-6708765 -41601,-6708768 -41608,-6708775 -41609,-6708776 -41631,-6708830 -41701,-6709015 -41719,-6709064 -41743,-6709124 -41739,-6709132 -41738,-6709134 -41752,-6709159 -41767,-6709189 -41795,-6709240 -41817,-6709302 -41835,-6709396 -41901,-6709385 -41939,-6709377 -41973,-6709375 -41989,-6709379 -42063,-6709405 -42049,-6709511 -42047,-6709537 -42044,-6709578 -42041,-6709585 -42037,-6709596 -42040,-6709598 -42058,-6709601 -42060,-6709604 -42064,-6709612 -42132,-6709575 -42183,-6709551 -42204,-6709538 -42203,-6709532 -42266,-6709496 -42310,-6709472 -42430,-6709404 -42504,-6709365 -42542,-6709349 -42567,-6709337 -42593,-6709326 -42636,-6709312 -42670,-6709299 -42691,-6709292 -42713,-6709287 -42736,-6709281 -42789,-6709272 -42829,-6709267 -42874,-6709262 -42908,-6709260 -42934,-6709260 -42965,-6709260 -43089,-6709269 -43140,-6709298 -43152,-6709305 -43167,-6709307 -43213,-6709314 -43336,-6709353 -43492,-6709410 -43667,-6709478 -43861,-6709562 -44046,-6709646 -44293,-6709754 -44365,-6709782 -44521,-6709847 -44546,-6709859 -44552,-6709851 -44696,-6709912 -44837,-6709975 -44910,-6710011 -45064,-6710078 -45264,-6710153 -45294,-6710164 -45231,-6710276 -45100,-6710498 -45097,-6710503 -45001,-6710673 -44958,-6710741 -44936,-6710776 -44930,-6710784 -44924,-6710791 -44917,-6710799 -44911,-6710806 -44904,-6710814 -44897,-6710821 -44890,-6710827 -44882,-6710834 -44875,-6710841 -44867,-6710847 -44859,-6710853 -44851,-6710859 -44843,-6710865 -44835,-6710870 -44833,-6710871 -44826,-6710875 -44818,-6710879 -44811,-6710883 -44803,-6710886 -44795,-6710890 -44787,-6710893 -44779,-6710896 -44771,-6710900 -44764,-6710902 -44741,-6710912 -44718,-6710921 -44694,-6710929 -44670,-6710937 -44661,-6710940 -44580,-6710972 -44511,-6711011 -44422,-6711070 -44275,-6711161 -44135,-6711250 -44050,-6711302 -43969,-6711354 -43897,-6711400 -43868,-6711419 -43862,-6711423 -43856,-6711427 -43851,-6711431 -43845,-6711435 -43826,-6711450 -43811,-6711465 -43792,-6711489 -43779,-6711506 -43759,-6711541 -43748,-6711565 -43740,-6711588 -43730,-6711613 -43720,-6711653 -43706,-6711705 -43662,-6711858 -43584,-6712139 -43533,-6712332 -43514,-6712400 -43496,-6712466 -43482,-6712514 -43470,-6712546 -43461,-6712580 -43461,-6712581 -43455,-6712617 -43431,-6712673 -43414,-6712711 -43364,-6712787 -43343,-6712814 -43303,-6712854 -43258,-6712887 -43085,-6712996 -43053,-6713017 -42979,-6713063 -42882,-6713125 -42854,-6713145 -42838,-6713159 -42816,-6713178 -42809,-6713185 -42773,-6713223 -42736,-6713270 -42714,-6713301 -42682,-6713348 -42677,-6713354 -42618,-6713428 -42590,-6713426 -42589,-6713428 -42585,-6713435 -42585,-6713440 -42574,-6713453 -42531,-6713504 -42510,-6713533 -42496,-6713552 -42492,-6713562 -42455,-6713644 -42401,-6713744 -42391,-6713752 -42322,-6713860 -42291,-6713909 -42225,-6714025 -42199,-6714073 -42178,-6714120 -42137,-6714198 -42118,-6714237 -42043,-6714393 -41982,-6714514 -41963,-6714554 -41924,-6714592 -41914,-6714614 -41895,-6714638 -41873,-6714675 -41864,-6714700 -41850,-6714745 -41845,-6714790 -41848,-6714822 -41852,-6714854 -41866,-6714937 -41870,-6714988 -41880,-6715034 -41883,-6715116 -41876,-6715370 -41876,-6715372 -41876,-6715373 -41885,-6715379 -41895,-6715386 -41912,-6715391 -41961,-6715401 -42039,-6715414 -42193,-6715433 -42258,-6715446 -42409,-6715480 -42480,-6715498 -42574,-6715521 -42744,-6715570 -42803,-6715588 -42931,-6715641 -42952,-6715652 -43027,-6715655 -43037,-6715656 -43038,-6715654 -43047,-6715613 -43064,-6715570 -43091,-6715506 -43095,-6715509 -43174,-6715575 -43233,-6715621 -43286,-6715662 -43331,-6715696 -43331,-6715728 -43368,-6715737 -43394,-6715743 -43475,-6715765 -43673,-6715836 -43808,-6715872 -43909,-6715899 -44006,-6715922 -44066,-6715930 -44110,-6715934 -44172,-6715947 -44189,-6715951 -44370,-6715998 -44537,-6716037 -44681,-6716072 -44807,-6716102 -45014,-6716141 -45035,-6716143 -45044,-6716143 -45062,-6716149 -45077,-6716154 -45088,-6716156 -45109,-6716159 -45137,-6716169 -45154,-6716175 -45298,-6716216 -45351,-6716227 -45571,-6716302 -45590,-6716303 -45670,-6716327 -45714,-6716333 -45743,-6716332 -45746,-6716336 -45759,-6716352 -45842,-6716316 -45848,-6716323 -45852,-6716337 -45857,-6716350 -45862,-6716361 -45866,-6716368 -45872,-6716376 -45878,-6716382 -45883,-6716387 -45891,-6716391 -45897,-6716395 -45908,-6716400 -45919,-6716402 -45939,-6716404 -45982,-6716406 -45996,-6716408 -46007,-6716413 -46017,-6716417 -46026,-6716425 -46028,-6716429 -46033,-6716436 -46039,-6716461 -46044,-6716483 -46047,-6716517 -46052,-6716581 -46067,-6716614 -46073,-6716622 -46078,-6716625 -46086,-6716628 -46104,-6716633 -46145,-6716642 -46155,-6716645 -46162,-6716648 -46179,-6716662 -46188,-6716672 -46197,-6716684 -46207,-6716700 -46214,-6716717 -46224,-6716752 -46233,-6716760 -46246,-6716765 -46264,-6716767 -46283,-6716768 -46299,-6716767 -46319,-6716765 -46363,-6716755 -46390,-6716750 -46404,-6716751 -46421,-6716751 -46435,-6716754 -46442,-6716757 -46452,-6716761 -46462,-6716768 -46471,-6716778 -46484,-6716792 -46489,-6716799 -46492,-6716805 -46495,-6716817 -46493,-6716839 -46492,-6716850 -46486,-6716874 -46478,-6716909 -46474,-6716922 -46469,-6716940 -46465,-6716951 -46464,-6716966 -46466,-6716975 -46469,-6716981 -46474,-6716986 -46479,-6716992 -46480,-6716992 -46485,-6716995 -46493,-6716998 -46513,-6717003 -46547,-6717010 -46579,-6717020 -46612,-6717037 -46624,-6717042 -46634,-6717044 -46649,-6717048 -46661,-6717051 -46674,-6717056 -46682,-6717063 -46693,-6717081 -46706,-6717115 -46708,-6717121 -46709,-6717127 -46708,-6717133 -46706,-6717141 -46691,-6717153 -46678,-6717161 -46655,-6717166 -46605,-6717176 -46592,-6717189 -46574,-6717203 -46565,-6717206 -46557,-6717212 -46548,-6717218 -46547,-6717223 -46549,-6717228 -46554,-6717233 -46555,-6717234 -46559,-6717236 -46566,-6717238 -46575,-6717241 -46592,-6717257 -46597,-6717259 -46607,-6717270 -46621,-6717288 -46628,-6717297 -46636,-6717307 -46645,-6717319 -46658,-6717333 -46686,-6717358 -46692,-6717372 -46695,-6717380 -46698,-6717398 -46698,-6717406 -46697,-6717418 -46694,-6717426 -46690,-6717436 -46686,-6717449 -46678,-6717454 -46674,-6717455 -46670,-6717456 -46663,-6717455 -46654,-6717451 -46647,-6717448 -46635,-6717434 -46631,-6717431 -46617,-6717424 -46609,-6717421 -46601,-6717420 -46588,-6717419 -46587,-6717417 -46595,-6717414 -46589,-6717406 -46572,-6717395 -46565,-6717391 -46537,-6717390 -46496,-6717390 -46481,-6717393 -46463,-6717397 -46450,-6717400 -46399,-6717401 -46384,-6717408 -46358,-6717409 -46323,-6717418 -46311,-6717422 -46287,-6717434 -46246,-6717454 -46236,-6717457 -46223,-6717461 -46174,-6717483 -46133,-6717498 -46079,-6717512 -46017,-6717528 -45928,-6717548 -45855,-6717572 -45722,-6717614 -45578,-6717651 -45496,-6717680 -45402,-6717698 -45410,-6717726 -45315,-6717755 -45128,-6717811 -45065,-6717823 -45009,-6717828 -44954,-6717830 -44888,-6717831 -44777,-6717829 -44769,-6717824 -44695,-6717827 -44671,-6717828 -44571,-6717816 -44531,-6717812 -44432,-6717803 -44266,-6717791 -44221,-6717795 -43999,-6717831 -44010,-6717909 -44025,-6718039 -44033,-6718099 -44034,-6718107 -44048,-6718108 -44051,-6718108 -44054,-6718151 -44061,-6718202 -44064,-6718213 -44072,-6718246 -44090,-6718310 -44102,-6718349 -44107,-6718365 -44118,-6718391 -44142,-6718442 -44201,-6718424 -44197,-6718411 -44290,-6718388 -44292,-6718398 -44310,-6718476 -44352,-6718662 -44348,-6718663 -44338,-6718666 -44339,-6718672 -44339,-6718672 -44340,-6718677 -44350,-6718731 -44354,-6718731 -44362,-6718730 -44364,-6718735 -44364,-6718734 -44367,-6718743 -44383,-6718787 -44380,-6718789 -44369,-6718795 -44344,-6718795 -44285,-6718777 -44251,-6718771 -44218,-6718766 -44187,-6718761 -44136,-6718756 -44044,-6718745 -43956,-6718742 -43969,-6718810 -43978,-6718889 -43977,-6718892 -43967,-6718942 -43878,-6718923 -43851,-6718932 -43800,-6718957 -43727,-6718984 -43649,-6719024 -43629,-6719034 -43434,-6719126 -43311,-6719190 -43295,-6719175 -43290,-6719171 -43253,-6719191 -43197,-6719228 -43137,-6719262 -43078,-6719284 -42988,-6719328 -42885,-6719374 -42820,-6719417 -42734,-6719480 -42629,-6719562 -42517,-6719653 -42503,-6719670 -42467,-6719703 -42394,-6719760 -42372,-6719784 -42320,-6719824 -42128,-6719949 -42041,-6720004 -42051,-6720041 -42054,-6720053 -42055,-6720058 -42043,-6720060 -42042,-6720057 -42036,-6720032 -42035,-6720031 -42040,-6720029 -42028,-6719987 -41997,-6719920 -41956,-6719857 -41915,-6719794 -41908,-6719798 -41838,-6719713 -41734,-6719790 -41620,-6719865 -41598,-6719848 -41560,-6719885 -41503,-6719830 -41460,-6719874 -41427,-6719877 -41420,-6719874 -41412,-6719870 -41400,-6719871 -41386,-6719875 -41373,-6719879 -41356,-6719886 -41346,-6719889 -41342,-6719891 -41298,-6719910 -41266,-6719928 -41255,-6719941 -41225,-6719961 -41200,-6719974 -41196,-6719976 -41168,-6719986 -41145,-6719992 -41124,-6719997 -41097,-6719999 -41060,-6720015 -41032,-6720026 -40954,-6720049 -40931,-6720053 -40917,-6720055 -40914,-6720055 -40886,-6720058 -40851,-6720059 -40822,-6720073 -40794,-6720086 -40806,-6720117 -40757,-6720129 -40745,-6720131 -40659,-6720151 -40653,-6720151 -40627,-6720151 -40598,-6720157 -40595,-6720158 -40592,-6720158 -40578,-6720163 -40559,-6720169 -40517,-6720184 -40463,-6720207 -40424,-6720219 -40403,-6720226 -40355,-6720244 -40366,-6720275 -40373,-6720293 -40362,-6720296 -40350,-6720299 -40354,-6720310 -40358,-6720321 -40343,-6720327 -40328,-6720332 -40323,-6720351 -40317,-6720371 -40331,-6720417 -40342,-6720466 -40322,-6720471 -40235,-6720489 -40108,-6720514 -40095,-6720525 -39993,-6720540 -39756,-6720618 -39562,-6720673 -39367,-6720723 -39136,-6720774 -39038,-6720797 -38830,-6720855 -38687,-6720899 -38653,-6720859 -38645,-6720831 -38514,-6720714 -38478,-6720685 -38467,-6720676 -38457,-6720675 -38444,-6720666 -38444,-6720660 -38361,-6720602 -38289,-6720560 -38178,-6720521 -38129,-6720510" stroke="#006747" stroke-width="31" /></ns0:svg>    <rect x="20" y="50"  width="250" height="25"  rx="0"  fill="#006747" fill-opacity="0.8" />    <text x="145" y="70" text-anchor="middle" font-family="Frutiger" font-weight="bold" font-size="30" fill="white">Ealing</text>    <rect x="35" y="195" width="220" height="160" rx="15" fill="#78BE20"/>    <g font-family="Frutiger" font-size="15" fill="#231F20">        <g> <text x="45" y="218">Self-harm</text> <text x="245" y="218" text-anchor="end">8</text> </g>        <g> <text x="45" y="243">SEN</text> <text x="245" y="243" text-anchor="end">28</text> </g>        <g> <text x="45" y="268">Difficulties</text> <text x="245" y="268" text-anchor="end">64</text> </g>        <g> <text x="45" y="293">Child Carer</text> <text x="245" y="293" text-anchor="end">22</text> </g>        <g> <text x="45" y="318">Drinkers</text> <text x="245" y="318" text-anchor="end">11</text> </g>        <g> <text x="45" y="343">Safeguarding £</text> <text x="245" y="343" text-anchor="end">18</text> </g>    </g></svg>