<?xml version="1.0" standalone="no"?>
<!DOCTYPE svg PUBLIC "-//W3C//DTD SVG 1.1//EN"
"http://www.w3.org/Graphics/SVG/1.1/DTD/svg11.dtd">
<svg height="1800" version="1.1" width="1800" xmlns="http://www.w3.org/2000/svg"><defs><style type="text/css">@font-face {font-family: 'Frutiger';font-style: normal;font-weight: normal;src: local('Frutiger'), url('../fonts/Frutiger.woff') format('woff');}@font-face {font-family: 'Frutiger Bold';font-style: normal;font-weight: normal;src: local('Frutiger Bold'), url('../fonts/Frutiger_bold.woff') format('woff');}        </style>    </defs>    <rect x="20" y="20"  width="250" height="350" rx="15" fill="#009639" />    <rect x="35" y="35"  width="220" height="145" rx="15" fill="#E8EDEE" /><ns0:svg xmlns:ns0="http://www.w3.org/2000/svg" height="115" version="1.1" viewBox="-9026 -6700267 27102 27630" width="220" x="35" y="50"><ns0:polygon fill="#006747" points=" 3673,-6700155 3684,-6700148 3686,-6700149 3696,-6700152 3718,-6700139 3728,-6700138 3741,-6700129 3742,-6700127 3747,-6700121 3769,-6700111 3781,-6700086 3784,-6700075 3786,-6700073 3791,-6700068 3802,-6700058 3820,-6700046 3822,-6700045 3851,-6700026 3855,-6700017 3856,-6700014 3881,-6699992 3913,-6699973 3925,-6699964 3927,-6699963 3952,-6699940 3953,-6699939 3959,-6699933 3980,-6699930 3998,-6699923 4003,-6699923 4008,-6699923 4015,-6699916 4029,-6699909 4073,-6699879 4088,-6699863 4096,-6699862 4101,-6699856 4116,-6699850 4120,-6699840 4188,-6699815 4221,-6699791 4266,-6699756 4287,-6699746 4323,-6699735 4349,-6699722 4380,-6699702 4413,-6699683 4427,-6699674 4435,-6699672 4455,-6699653 4466,-6699641 4464,-6699630 4468,-6699623 4561,-6699533 4611,-6699487 4673,-6699435 4698,-6699404 4713,-6699366 4730,-6699325 4733,-6699316 4757,-6699252 4779,-6699201 4783,-6699193 4814,-6699117 4824,-6699094 4854,-6699077 4936,-6698991 4999,-6698922 5032,-6698890 5028,-6698854 5028,-6698821 5101,-6698720 5145,-6698646 5169,-6698609 5193,-6698575 5246,-6698495 5322,-6698381 5387,-6698305 5485,-6698196 5517,-6698163 5585,-6698092 5685,-6697984 5717,-6697936 5808,-6697797 5842,-6697740 5894,-6697648 5953,-6697531 6002,-6697434 6060,-6697341 6093,-6697294 6106,-6697268 6235,-6697086 6280,-6697025 6282,-6697021 6435,-6696847 6481,-6696797 6525,-6696745 6540,-6696759 6552,-6696759 6571,-6696759 6587,-6696765 6599,-6696768 6663,-6696796 6753,-6696829 6782,-6696832 6830,-6696651 6872,-6696592 7009,-6696659 7038,-6696676 7045,-6696681 7054,-6696688 7059,-6696695 7069,-6696711 7074,-6696723 7127,-6696780 7176,-6696827 7149,-6696884 7148,-6696884 7214,-6696910 7206,-6696928 7414,-6696999 7394,-6697057 7454,-6697125 7632,-6697283 7787,-6697439 7809,-6697458 7827,-6697475 7932,-6697570 7977,-6697610 8011,-6697649 8044,-6697700 8181,-6697936 8133,-6697957 8165,-6698027 8243,-6697991 8274,-6697977 8333,-6697859 8372,-6697999 8390,-6698066 8416,-6698057 8575,-6697995 8846,-6697897 8949,-6697858 8951,-6697846 8965,-6697849 8987,-6697849 9019,-6697833 9064,-6697812 9149,-6697773 9198,-6697747 9231,-6697721 9258,-6697695 9294,-6697654 9316,-6697622 9353,-6697558 9400,-6697470 9481,-6697314 9532,-6697228 9573,-6697158 9628,-6697064 9680,-6696984 9715,-6696929 9732,-6696907 9753,-6696878 9785,-6696839 9868,-6696731 9880,-6696708 9903,-6696678 9923,-6696651 9954,-6696615 10000,-6696559 10028,-6696520 10055,-6696491 10080,-6696463 10094,-6696447 10125,-6696422 10125,-6696421 10138,-6696407 10157,-6696386 10183,-6696363 10194,-6696351 10222,-6696320 10254,-6696283 10287,-6696245 10341,-6696189 10352,-6696173 10390,-6696134 10421,-6696107 10454,-6696078 10476,-6696060 10493,-6696043 10494,-6696038 10496,-6696031 10555,-6695975 10562,-6695969 10651,-6695888 10761,-6695794 10769,-6695786 10845,-6695722 10917,-6695657 10960,-6695616 10987,-6695592 11080,-6695514 11184,-6695432 11256,-6695381 11388,-6695279 11407,-6695259 11407,-6695259 11406,-6695254 11401,-6695250 11407,-6695240 11415,-6695243 11424,-6695240 11426,-6695239 11436,-6695231 11452,-6695210 11467,-6695191 11481,-6695176 11494,-6695161 11507,-6695152 11526,-6695141 11549,-6695126 11559,-6695120 11594,-6695097 11633,-6695072 11659,-6695057 11768,-6694997 11847,-6694955 11915,-6694922 11915,-6694918 11914,-6694900 11937,-6694891 11970,-6694876 11983,-6694870 12063,-6694836 12122,-6694816 12196,-6694789 12202,-6694794 12286,-6694770 12393,-6694743 12444,-6694732 12479,-6694726 12507,-6694716 12525,-6694707 12528,-6694694 12532,-6694680 12593,-6694660 12635,-6694686 12644,-6694693 12731,-6694692 12808,-6694693 12918,-6694707 12958,-6694711 13017,-6694710 13059,-6694715 13136,-6694716 13157,-6694718 13203,-6694722 13233,-6694725 13257,-6694729 13304,-6694738 13348,-6694749 13379,-6694756 13442,-6694777 13560,-6694814 13585,-6694823 13633,-6694842 13703,-6694874 13813,-6694931 13870,-6694960 13896,-6694966 13926,-6694978 13955,-6694989 13962,-6694995 13974,-6694995 13993,-6694998 14017,-6694999 14047,-6694998 14056,-6694992 14064,-6694984 14098,-6694967 14108,-6694976 14123,-6694991 14130,-6694998 14142,-6695005 14155,-6695013 14168,-6695021 14181,-6695025 14198,-6695028 14223,-6695027 14252,-6695028 14277,-6695027 14366,-6695016 14449,-6694998 14507,-6694982 14645,-6694947 14682,-6694937 14712,-6694928 14745,-6694917 14787,-6694901 14831,-6694880 14886,-6694851 14912,-6694839 14934,-6694828 14955,-6694822 14955,-6694812 15063,-6694733 15139,-6694681 15181,-6694652 15239,-6694604 15259,-6694598 15312,-6694565 15332,-6694553 15364,-6694529 15384,-6694512 15404,-6694501 15432,-6694476 15459,-6694448 15491,-6694428 15506,-6694420 15553,-6694402 15583,-6694388 15627,-6694365 15653,-6694353 15752,-6694297 15807,-6694268 15826,-6694258 15876,-6694228 15999,-6694160 16053,-6694129 16078,-6694113 16109,-6694093 16167,-6694061 16204,-6694045 16204,-6694044 16204,-6694036 16220,-6694031 16242,-6694027 16321,-6693995 16405,-6693962 16474,-6693928 16545,-6693888 16567,-6693874 16575,-6693870 16560,-6693831 16552,-6693807 16615,-6693762 16663,-6693729 16712,-6693685 16737,-6693647 16741,-6693642 16747,-6693632 16753,-6693622 16759,-6693612 16761,-6693610 16766,-6693602 16771,-6693596 16776,-6693589 16781,-6693582 16786,-6693576 16792,-6693569 16798,-6693563 16800,-6693560 16805,-6693555 16810,-6693551 16815,-6693546 16820,-6693541 16825,-6693537 16830,-6693532 16836,-6693528 16842,-6693524 16847,-6693520 16848,-6693520 16854,-6693516 16860,-6693513 16866,-6693509 16872,-6693506 16878,-6693503 16885,-6693500 16891,-6693497 16898,-6693495 16905,-6693492 16911,-6693490 16918,-6693488 16920,-6693488 16926,-6693486 16929,-6693485 16933,-6693484 16936,-6693483 16939,-6693482 16942,-6693482 16946,-6693481 16949,-6693480 16952,-6693480 16955,-6693479 16958,-6693479 16962,-6693479 16965,-6693479 16968,-6693479 16969,-6693480 16972,-6693480 16976,-6693480 16979,-6693481 16982,-6693482 16985,-6693483 16988,-6693483 16999,-6693488 17012,-6693475 17010,-6693474 17009,-6693472 17008,-6693471 17007,-6693469 17006,-6693467 17005,-6693465 17005,-6693464 17004,-6693463 17004,-6693462 17003,-6693461 17003,-6693460 17002,-6693458 17002,-6693457 17002,-6693456 17002,-6693455 17002,-6693453 17001,-6693451 17002,-6693449 17002,-6693448 17002,-6693446 17003,-6693444 17003,-6693443 17003,-6693442 17003,-6693440 17004,-6693439 17005,-6693437 17055,-6693357 17057,-6693357 17060,-6693357 17063,-6693357 17066,-6693356 17069,-6693355 17070,-6693355 17072,-6693355 17073,-6693355 17074,-6693354 17076,-6693354 17077,-6693353 17079,-6693353 17080,-6693352 17081,-6693352 17083,-6693351 17084,-6693350 17086,-6693349 17087,-6693348 17088,-6693347 17089,-6693346 17090,-6693345 17091,-6693344 17092,-6693343 17119,-6693309 17142,-6693278 17176,-6693237 17215,-6693176 17271,-6693075 17282,-6693065 17270,-6693047 17250,-6693009 17268,-6693002 17288,-6692996 17311,-6692994 17347,-6692923 17361,-6692894 17389,-6692837 17414,-6692801 17421,-6692783 17425,-6692770 17435,-6692729 17449,-6692682 17469,-6692645 17488,-6692605 17501,-6692559 17510,-6692526 17517,-6692496 17518,-6692453 17524,-6692413 17535,-6692367 17551,-6692282 17564,-6692218 17555,-6692178 17555,-6692120 17557,-6692073 17558,-6692025 17579,-6691984 17586,-6691957 17591,-6691923 17597,-6691896 17613,-6691856 17640,-6691786 17660,-6691726 17677,-6691675 17689,-6691635 17697,-6691610 17710,-6691588 17730,-6691547 17740,-6691547 17757,-6691510 17750,-6691504 17773,-6691457 17801,-6691401 17842,-6691334 17865,-6691292 17891,-6691252 17904,-6691233 17921,-6691209 17954,-6691162 17991,-6691116 18024,-6691077 18054,-6691043 18076,-6691016 17998,-6691001 17957,-6690995 17945,-6690993 17889,-6690989 17836,-6690983 17764,-6690979 17700,-6690979 17618,-6690971 17523,-6690984 17408,-6690991 17313,-6690999 17237,-6691006 17210,-6691011 17116,-6691016 17046,-6691017 16989,-6691022 16939,-6691026 16854,-6691034 16773,-6691041 16698,-6691045 16576,-6691053 16482,-6691066 16446,-6691072 16442,-6690992 16423,-6690957 16473,-6690896 16544,-6690815 16633,-6690763 16668,-6690742 16679,-6690727 16669,-6690706 16662,-6690687 16655,-6690664 16646,-6690632 16644,-6690590 16640,-6690568 16634,-6690550 16623,-6690526 16592,-6690478 16576,-6690449 16568,-6690431 16557,-6690394 16549,-6690361 16548,-6690334 16559,-6690314 16595,-6690244 16632,-6690189 16575,-6690139 16588,-6690115 16624,-6690060 16665,-6689984 16689,-6689961 16690,-6689959 16710,-6689940 16711,-6689939 16713,-6689937 16715,-6689935 16717,-6689933 16719,-6689932 16721,-6689930 16723,-6689928 16725,-6689927 16727,-6689925 16728,-6689923 16731,-6689919 16733,-6689915 16735,-6689911 16736,-6689907 16738,-6689903 16739,-6689901 16741,-6689897 16742,-6689893 16743,-6689889 16744,-6689885 16745,-6689881 16746,-6689878 16747,-6689876 16747,-6689873 16747,-6689870 16748,-6689867 16748,-6689864 16749,-6689862 16749,-6689859 16749,-6689856 16749,-6689853 16748,-6689850 16748,-6689850 16748,-6689849 16748,-6689848 16748,-6689847 16748,-6689847 16748,-6689846 16748,-6689845 16748,-6689844 16748,-6689843 16748,-6689842 16748,-6689842 16748,-6689841 16748,-6689840 16748,-6689839 16748,-6689838 16747,-6689838 16747,-6689837 16747,-6689836 16746,-6689836 16745,-6689835 16745,-6689835 16744,-6689834 16744,-6689834 16743,-6689833 16742,-6689833 16742,-6689833 16741,-6689832 16740,-6689832 16739,-6689832 16739,-6689832 16738,-6689832 16737,-6689832 16697,-6689830 16691,-6689798 16685,-6689740 16675,-6689657 16678,-6689592 16678,-6689549 16676,-6689472 16674,-6689443 16684,-6689438 16705,-6689430 16749,-6689403 16750,-6689285 16749,-6689189 16748,-6689080 16747,-6689079 16745,-6689077 16742,-6689075 16742,-6689075 16741,-6689075 16740,-6689074 16739,-6689073 16738,-6689072 16737,-6689072 16736,-6689071 16735,-6689071 16734,-6689070 16734,-6689069 16733,-6689069 16733,-6689068 16732,-6689067 16732,-6689066 16731,-6689065 16731,-6689064 16730,-6689063 16730,-6689062 16730,-6689061 16730,-6689060 16730,-6689059 16730,-6689058 16730,-6689057 16730,-6689056 16730,-6689055 16730,-6689054 16739,-6688983 16654,-6688982 16651,-6688953 16654,-6688921 16659,-6688844 16654,-6688804 16693,-6688788 16725,-6688779 16824,-6688770 16822,-6688725 16806,-6688625 16882,-6688587 16959,-6688555 16941,-6688491 16968,-6688479 16982,-6688470 17004,-6688460 17035,-6688452 17058,-6688438 17054,-6688422 17046,-6688370 17040,-6688339 17015,-6688274 17005,-6688236 17005,-6688235 17003,-6688218 16991,-6688179 16984,-6688131 16986,-6688082 16990,-6688043 16990,-6688013 16987,-6687967 16980,-6687937 16915,-6687961 16891,-6687974 16874,-6687954 16845,-6687914 16820,-6687879 16786,-6687822 16773,-6687797 16685,-6687700 16673,-6687684 16653,-6687644 16790,-6687526 16786,-6687504 16784,-6687467 16791,-6687425 16807,-6687408 16832,-6687395 16712,-6687033 16794,-6687001 16926,-6686950 16901,-6686821 16880,-6686728 16880,-6686726 16880,-6686724 16880,-6686723 16879,-6686721 16879,-6686719 16878,-6686717 16878,-6686716 16877,-6686714 16876,-6686712 16876,-6686711 16875,-6686709 16874,-6686707 16873,-6686706 16872,-6686705 16872,-6686704 16871,-6686703 16870,-6686702 16869,-6686701 16869,-6686700 16868,-6686699 16867,-6686698 16866,-6686697 16865,-6686697 16864,-6686696 16863,-6686695 16862,-6686695 16860,-6686694 16859,-6686693 16857,-6686693 16855,-6686693 16853,-6686692 16851,-6686692 16850,-6686692 16847,-6686692 16844,-6686692 16840,-6686693 16837,-6686693 16834,-6686695 16831,-6686696 16828,-6686697 16825,-6686699 16822,-6686700 16819,-6686702 16818,-6686702 16815,-6686704 16812,-6686706 16809,-6686707 16806,-6686709 16803,-6686711 16777,-6686733 16724,-6686777 16644,-6686846 16635,-6686855 16594,-6686772 16582,-6686737 16572,-6686670 16547,-6686632 16403,-6686489 16395,-6686472 16391,-6686465 16396,-6686460 16452,-6686415 16513,-6686358 16465,-6686271 16402,-6686156 16314,-6686004 16230,-6685865 16166,-6685761 16165,-6685760 16146,-6685730 16170,-6685695 16184,-6685668 16180,-6685657 16175,-6685646 16170,-6685635 16168,-6685633 16163,-6685622 16156,-6685612 16150,-6685602 16144,-6685591 16138,-6685581 16136,-6685577 16130,-6685565 16124,-6685554 16119,-6685542 16114,-6685530 16110,-6685517 16107,-6685508 16103,-6685497 16099,-6685486 16096,-6685475 16094,-6685463 16091,-6685452 16089,-6685440 16087,-6685430 16086,-6685421 16085,-6685411 16085,-6685401 16084,-6685392 16084,-6685382 16084,-6685372 16084,-6685368 16085,-6685361 16085,-6685360 16086,-6685359 16086,-6685358 16086,-6685356 16087,-6685356 16087,-6685354 16088,-6685352 16089,-6685350 16090,-6685349 16091,-6685347 16092,-6685345 16094,-6685343 16095,-6685342 16096,-6685340 16098,-6685339 16100,-6685337 16101,-6685336 16103,-6685334 16105,-6685333 16108,-6685330 16110,-6685329 16111,-6685328 16113,-6685326 16114,-6685325 16126,-6685315 16138,-6685304 16146,-6685298 16152,-6685293 16158,-6685289 16163,-6685286 16165,-6685286 16167,-6685285 16169,-6685284 16171,-6685284 16173,-6685283 16176,-6685283 16178,-6685282 16180,-6685282 16182,-6685282 16184,-6685282 16182,-6685255 16180,-6685238 16175,-6685225 16170,-6685212 16166,-6685201 16163,-6685188 16159,-6685175 16156,-6685162 16152,-6685149 16151,-6685144 16146,-6685126 16146,-6685123 16146,-6685121 16146,-6685118 16146,-6685116 16146,-6685113 16146,-6685112 16145,-6685105 16145,-6685099 16145,-6685097 16145,-6685095 16146,-6685092 16146,-6685090 16147,-6685086 16148,-6685083 16148,-6685081 16149,-6685079 16149,-6685074 16150,-6685069 16150,-6685065 16150,-6685061 16150,-6685058 16150,-6685054 16149,-6685050 16149,-6685048 16149,-6685043 16148,-6685038 16147,-6685034 16147,-6685032 16136,-6684994 16132,-6684982 16130,-6684976 16129,-6684972 16128,-6684966 16127,-6684960 16126,-6684956 16124,-6684943 16183,-6684925 16241,-6684905 16214,-6684724 16172,-6684542 16154,-6684467 16126,-6684423 16061,-6684314 16059,-6684313 16057,-6684312 16054,-6684311 16052,-6684310 16050,-6684309 16048,-6684308 16045,-6684308 16043,-6684307 16040,-6684307 16038,-6684306 16035,-6684306 16035,-6684306 16031,-6684282 16029,-6684271 16013,-6684156 16004,-6684093 16003,-6684088 16002,-6684083 16001,-6684078 16001,-6684072 16000,-6684067 16000,-6684062 16000,-6684057 16000,-6684052 16000,-6684046 16000,-6684041 16004,-6684027 15988,-6683977 15934,-6683983 15932,-6683981 15919,-6683953 15912,-6683937 15904,-6683913 15899,-6683894 15897,-6683882 15895,-6683856 15894,-6683814 15887,-6683765 15886,-6683742 15886,-6683719 15893,-6683672 15894,-6683633 15889,-6683624 15888,-6683621 15887,-6683619 15886,-6683616 15884,-6683613 15883,-6683610 15882,-6683608 15881,-6683605 15880,-6683602 15880,-6683599 15879,-6683596 15879,-6683595 15878,-6683592 15877,-6683588 15877,-6683584 15876,-6683580 15876,-6683576 15876,-6683572 15876,-6683570 15875,-6683570 15694,-6683465 15728,-6683400 15727,-6683356 15707,-6683347 15699,-6683338 15676,-6683315 15655,-6683306 15643,-6683299 15631,-6683292 15620,-6683282 15600,-6683263 15580,-6683243 15568,-6683230 15557,-6683216 15549,-6683203 15532,-6683175 15501,-6683110 15441,-6682998 15434,-6682978 15528,-6682958 15522,-6682901 15499,-6682907 15488,-6682909 15477,-6682912 15466,-6682914 15457,-6682915 15426,-6682919 15423,-6682919 15420,-6682920 15417,-6682920 15415,-6682920 15414,-6682920 15411,-6682921 15408,-6682921 15405,-6682921 15404,-6682921 15401,-6682921 15398,-6682921 15394,-6682920 15391,-6682920 15386,-6682850 15385,-6682850 15381,-6682849 15378,-6682848 15374,-6682847 15371,-6682845 15370,-6682845 15366,-6682844 15363,-6682842 15360,-6682840 15356,-6682839 15353,-6682837 15350,-6682835 15347,-6682833 15346,-6682832 15342,-6682829 15339,-6682827 15335,-6682824 15332,-6682821 15329,-6682817 15326,-6682814 15323,-6682811 15319,-6682807 15318,-6682805 15316,-6682803 15314,-6682801 15313,-6682799 15311,-6682797 15310,-6682795 15309,-6682793 15307,-6682791 15306,-6682789 15305,-6682787 15304,-6682785 15303,-6682782 15302,-6682780 15302,-6682780 15302,-6682778 15301,-6682776 15301,-6682774 15300,-6682772 15300,-6682770 15299,-6682769 15299,-6682767 15299,-6682765 15299,-6682763 15299,-6682761 15299,-6682759 15299,-6682757 15299,-6682755 15299,-6682754 15300,-6682752 15300,-6682751 15300,-6682749 15301,-6682748 15302,-6682746 15302,-6682744 15303,-6682742 15304,-6682741 15305,-6682739 15306,-6682737 15272,-6682703 15270,-6682705 15267,-6682707 15264,-6682710 15260,-6682712 15257,-6682714 15255,-6682715 15253,-6682716 15251,-6682718 15249,-6682719 15247,-6682720 15245,-6682721 15243,-6682722 15241,-6682722 15239,-6682723 15238,-6682723 15236,-6682724 15235,-6682724 15234,-6682724 15232,-6682725 15231,-6682725 15229,-6682725 15228,-6682725 15226,-6682726 15225,-6682726 15224,-6682726 15222,-6682725 15221,-6682725 15219,-6682725 15218,-6682725 15216,-6682724 15215,-6682724 15214,-6682723 15213,-6682723 15211,-6682722 15210,-6682721 15209,-6682721 15208,-6682720 15207,-6682719 15206,-6682718 15205,-6682717 15204,-6682716 15203,-6682715 15202,-6682714 15201,-6682713 15201,-6682712 15200,-6682711 15161,-6682715 15161,-6682713 15160,-6682710 15160,-6682707 15159,-6682703 15159,-6682700 15159,-6682697 15158,-6682693 15159,-6682690 15159,-6682686 15159,-6682683 15159,-6682680 15160,-6682676 15160,-6682673 15161,-6682671 15161,-6682669 15162,-6682667 15162,-6682665 15163,-6682663 15163,-6682661 15164,-6682658 15165,-6682656 15165,-6682655 15166,-6682653 15167,-6682651 15168,-6682649 15170,-6682646 15182,-6682634 15183,-6682633 15194,-6682620 15196,-6682618 15200,-6682615 15204,-6682611 15208,-6682607 15212,-6682603 15216,-6682599 15219,-6682594 15223,-6682590 15227,-6682584 15232,-6682577 15236,-6682570 15240,-6682563 15244,-6682556 15247,-6682549 15248,-6682546 15252,-6682540 15253,-6682537 15255,-6682533 15256,-6682530 15258,-6682526 15259,-6682523 15260,-6682520 15261,-6682516 15262,-6682513 15263,-6682509 15263,-6682508 15264,-6682504 15265,-6682500 15265,-6682496 15265,-6682491 15265,-6682487 15265,-6682483 15265,-6682478 15264,-6682474 15264,-6682473 15264,-6682470 15264,-6682467 15263,-6682463 15262,-6682459 15261,-6682455 15260,-6682451 15259,-6682446 15258,-6682442 15252,-6682419 15246,-6682401 15215,-6682419 15200,-6682427 15169,-6682444 15138,-6682460 15137,-6682460 15113,-6682472 15089,-6682482 15065,-6682493 15063,-6682493 15009,-6682520 15001,-6682524 14992,-6682528 14975,-6682536 14964,-6682541 14947,-6682547 14930,-6682554 14912,-6682560 14906,-6682562 14879,-6682572 14852,-6682580 14843,-6682583 14744,-6682613 14714,-6682623 14669,-6682638 14657,-6682583 14634,-6682587 14598,-6682593 14599,-6682597 14521,-6682613 14444,-6682626 14412,-6682631 14412,-6682628 14349,-6682639 14213,-6682658 14168,-6682658 14169,-6682668 14152,-6682672 14133,-6682675 14130,-6682675 14106,-6682678 14082,-6682681 14060,-6682682 14036,-6682684 13999,-6682688 13996,-6682688 13993,-6682688 13986,-6682689 13983,-6682689 13980,-6682689 13977,-6682689 13974,-6682690 13970,-6682691 13969,-6682691 13967,-6682691 13965,-6682692 13963,-6682693 13961,-6682693 13960,-6682694 13958,-6682695 13956,-6682696 13954,-6682697 13953,-6682698 13938,-6682703 13929,-6682702 13878,-6682681 13804,-6682640 13787,-6682632 13770,-6682622 13758,-6682615 13751,-6682609 13753,-6682571 13697,-6682539 13655,-6682515 13607,-6682487 13557,-6682467 13504,-6682449 13427,-6682431 13354,-6682413 13350,-6682429 13339,-6682427 13270,-6682416 13203,-6682407 13186,-6682396 13144,-6682344 13101,-6682276 13090,-6682278 13090,-6682242 13089,-6682215 13071,-6682218 13050,-6682221 13032,-6682133 13017,-6682055 12988,-6681920 12988,-6681889 13024,-6681756 13055,-6681618 13082,-6681625 13188,-6681654 13248,-6681423 13169,-6681373 13228,-6681201 13259,-6681063 13290,-6680952 13311,-6680842 13336,-6680808 13359,-6680720 13392,-6680679 13459,-6680615 13537,-6680546 13545,-6680523 13524,-6680501 13473,-6680409 13415,-6680305 13385,-6680256 13370,-6680240 13327,-6680198 13296,-6680167 13248,-6680120 13223,-6680096 13213,-6680087 13198,-6680073 13183,-6680058 13180,-6680055 13173,-6680048 13166,-6680040 13159,-6680033 13152,-6680025 13147,-6680019 13141,-6680011 13135,-6680003 13129,-6679994 13123,-6679986 13123,-6679986 13121,-6679982 13120,-6679978 13118,-6679974 13117,-6679970 13117,-6679969 13116,-6679965 13115,-6679961 13114,-6679957 13113,-6679953 13112,-6679949 13112,-6679945 13111,-6679936 13111,-6679928 13111,-6679919 13112,-6679911 13112,-6679905 13114,-6679878 13119,-6679831 13123,-6679820 13125,-6679815 13064,-6679783 13024,-6679824 12984,-6679876 12884,-6679787 12821,-6679666 12713,-6679412 12694,-6679411 12653,-6679422 12581,-6679441 12582,-6679446 12429,-6679474 12388,-6679486 12319,-6679525 12288,-6679526 12262,-6679525 12259,-6679520 12257,-6679511 12247,-6679434 12236,-6679395 12225,-6679366 12218,-6679285 12160,-6679304 12088,-6679353 12020,-6679382 11952,-6679421 11937,-6679434 11910,-6679424 11893,-6679417 11862,-6679409 11828,-6679408 11781,-6679417 11709,-6679422 11696,-6679421 11677,-6679414 11663,-6679402 11656,-6679389 11620,-6679321 11612,-6679306 11601,-6679289 11589,-6679273 11576,-6679258 11567,-6679248 11530,-6679208 11492,-6679162 11482,-6679158 11471,-6679157 11416,-6679161 11370,-6679160 11355,-6679155 11346,-6679132 11263,-6679108 11220,-6679089 11222,-6679067 11222,-6679054 11221,-6679041 11218,-6679029 11191,-6678932 11185,-6678904 11177,-6678878 11169,-6678855 11164,-6678845 11151,-6678819 11087,-6678729 11079,-6678719 11062,-6678702 11024,-6678666 10965,-6678608 10878,-6678500 10818,-6678433 10745,-6678367 10706,-6678324 10651,-6678288 10517,-6678181 10474,-6678151 10444,-6678136 10407,-6678117 10391,-6678107 10346,-6678074 10339,-6678068 10327,-6678060 10262,-6678037 10208,-6678008 10186,-6677993 10131,-6677975 10119,-6677970 10082,-6677952 10038,-6677927 10004,-6677908 9976,-6677887 9956,-6677876 9943,-6677870 9917,-6677859 9873,-6677848 9843,-6677834 9822,-6677826 9772,-6677793 9734,-6677714 9713,-6677675 9702,-6677656 9664,-6677594 9605,-6677526 9567,-6677484 9505,-6677419 9465,-6677386 9466,-6677347 9472,-6677317 9476,-6677304 9478,-6677299 9494,-6677266 9512,-6677220 9518,-6677202 9533,-6677165 9528,-6677160 9525,-6677157 9523,-6677152 9492,-6676993 9472,-6676916 9466,-6676883 9463,-6676859 9467,-6676812 9470,-6676798 9470,-6676789 9470,-6676776 9461,-6676738 9456,-6676705 9453,-6676699 9443,-6676683 9422,-6676660 9417,-6676653 9408,-6676639 9401,-6676624 9395,-6676610 9369,-6676510 9365,-6676504 9364,-6676492 9307,-6676439 9305,-6676432 9303,-6676407 9324,-6676387 9340,-6676322 9339,-6676312 9340,-6676300 9344,-6676288 9351,-6676263 9352,-6676259 9361,-6676246 9367,-6676230 9381,-6676142 9389,-6676107 9397,-6676080 9403,-6676067 9411,-6676054 9416,-6676046 9425,-6676038 9430,-6676031 9433,-6676023 9434,-6676018 9432,-6676010 9426,-6676001 9360,-6675971 9360,-6675968 9360,-6675966 9375,-6675936 9379,-6675927 9398,-6675858 9421,-6675810 9425,-6675797 9428,-6675745 9448,-6675609 9384,-6675593 9299,-6675563 9257,-6675549 9226,-6675539 9219,-6675535 9260,-6675423 9280,-6675386 9357,-6675265 9406,-6675190 9424,-6675155 9454,-6675096 9478,-6675054 9510,-6674981 9563,-6674840 9574,-6674811 9577,-6674793 9580,-6674767 9580,-6674729 9585,-6674671 9597,-6674595 9604,-6674575 9611,-6674563 9615,-6674557 9648,-6674524 9682,-6674483 9706,-6674456 9730,-6674430 9749,-6674411 9780,-6674375 9866,-6674261 9929,-6674167 9946,-6674146 9956,-6674135 9961,-6674130 10008,-6674091 10150,-6673967 10140,-6673956 10125,-6673941 10113,-6673931 10100,-6673923 10093,-6673920 9998,-6673877 9980,-6673868 9970,-6673862 9964,-6673859 9951,-6673849 9936,-6673836 9756,-6673621 9720,-6673575 9695,-6673550 9695,-6673541 9684,-6673469 9675,-6673453 9628,-6673401 9619,-6673387 9609,-6673375 9599,-6673368 9586,-6673354 9572,-6673333 9559,-6673325 9548,-6673312 9539,-6673301 9528,-6673294 9512,-6673285 9493,-6673273 9459,-6673265 9341,-6673226 9287,-6673173 9271,-6673154 9227,-6673150 9175,-6673135 9151,-6673129 9136,-6673124 9130,-6673123 9127,-6673122 9124,-6673121 9121,-6673120 9119,-6673119 9116,-6673117 9113,-6673116 9110,-6673115 9107,-6673113 9105,-6673111 9102,-6673108 9099,-6673106 9097,-6673104 9094,-6673101 9091,-6673099 9089,-6673096 9087,-6673094 9085,-6673091 9083,-6673088 9082,-6673086 9081,-6673082 9081,-6673080 9081,-6673079 9075,-6673077 9065,-6673086 9051,-6673080 9028,-6673071 8992,-6673062 8969,-6673057 8962,-6673055 8956,-6673054 8947,-6673052 8937,-6673051 8927,-6673050 8917,-6673049 8907,-6673049 8901,-6673049 8892,-6673044 8878,-6673047 8871,-6673045 8868,-6673050 8841,-6673052 8825,-6673052 8786,-6673058 8778,-6673059 8749,-6673069 8737,-6673069 8726,-6673070 8714,-6673070 8702,-6673064 8646,-6673062 8628,-6673067 8621,-6673068 8606,-6673070 8575,-6673071 8575,-6673054 8569,-6673055 8556,-6673057 8539,-6673060 8528,-6673060 8509,-6673061 8501,-6673063 8497,-6673060 8494,-6673065 8468,-6673065 8438,-6673061 8390,-6673058 8368,-6673056 8340,-6673056 8294,-6673051 8230,-6673047 8207,-6673043 8167,-6673038 8160,-6673036 8152,-6673034 8134,-6673028 8114,-6673025 8092,-6673023 8070,-6673015 8051,-6673008 8049,-6673008 8040,-6673005 8032,-6673003 8023,-6673001 8015,-6672999 8006,-6672996 7998,-6672993 7989,-6672990 7968,-6672981 7939,-6672965 7918,-6672956 7903,-6672949 7880,-6672939 7885,-6672928 7876,-6672926 7868,-6672931 7848,-6672935 7826,-6672939 7619,-6672876 7521,-6672846 7521,-6672820 7502,-6672824 7483,-6672825 7479,-6672825 7475,-6672826 7470,-6672826 7465,-6672826 7460,-6672827 7456,-6672827 7455,-6672828 7453,-6672828 7451,-6672828 7449,-6672829 7448,-6672829 7446,-6672829 7446,-6672829 7444,-6672829 7443,-6672829 7441,-6672829 7422,-6672826 7396,-6672822 7347,-6672813 7345,-6672813 7341,-6672812 7338,-6672812 7332,-6672811 7328,-6672810 7325,-6672810 7322,-6672809 7319,-6672809 7315,-6672808 7312,-6672807 7308,-6672805 7299,-6672799 7291,-6672793 7282,-6672788 7275,-6672784 7257,-6672775 7238,-6672767 7222,-6672760 7205,-6672753 7203,-6672752 7198,-6672750 7193,-6672748 7188,-6672746 7183,-6672744 7177,-6672742 7172,-6672739 7167,-6672738 7162,-6672736 7156,-6672734 7151,-6672733 7145,-6672732 7137,-6672731 7120,-6672730 7103,-6672730 7085,-6672731 7084,-6672731 7073,-6672731 7062,-6672731 7051,-6672732 7041,-6672733 7030,-6672734 6992,-6672741 6965,-6672745 6954,-6672738 6947,-6672737 6928,-6672730 6835,-6672703 6792,-6672694 6756,-6672689 6716,-6672681 6669,-6672674 6603,-6672656 6529,-6672639 6513,-6672637 6500,-6672653 6475,-6672683 6473,-6672686 6470,-6672689 6467,-6672692 6464,-6672695 6461,-6672699 6459,-6672702 6456,-6672705 6451,-6672714 6446,-6672724 6443,-6672733 6439,-6672743 6436,-6672753 6428,-6672778 6421,-6672804 6417,-6672819 6412,-6672834 6412,-6672836 6411,-6672839 6411,-6672842 6410,-6672845 6410,-6672848 6409,-6672851 6408,-6672854 6407,-6672856 6404,-6672862 6402,-6672867 6399,-6672872 6398,-6672875 6395,-6672879 6392,-6672883 6389,-6672887 6387,-6672892 6386,-6672894 6381,-6672904 6377,-6672915 6374,-6672922 6371,-6672930 6368,-6672938 6365,-6672946 6361,-6672956 6356,-6672967 6351,-6672976 6344,-6672987 6339,-6672998 6336,-6673003 6333,-6673010 6330,-6673017 6327,-6673025 6323,-6673032 6322,-6673034 6317,-6673043 6311,-6673052 6305,-6673062 6287,-6673087 6284,-6673091 6280,-6673097 6276,-6673102 6272,-6673107 6268,-6673113 6264,-6673119 6264,-6673120 6261,-6673126 6257,-6673132 6254,-6673138 6252,-6673144 6249,-6673150 6247,-6673157 6239,-6673178 6228,-6673175 6209,-6673168 6198,-6673163 6186,-6673158 6174,-6673154 6162,-6673150 6150,-6673146 6138,-6673142 6126,-6673139 6113,-6673136 6095,-6673131 6054,-6673124 6006,-6673167 5974,-6673192 5963,-6673200 5945,-6673214 5927,-6673227 5925,-6673228 5898,-6673245 5871,-6673263 5860,-6673270 5833,-6673289 5791,-6673321 5787,-6673324 5772,-6673335 5758,-6673346 5743,-6673358 5741,-6673360 5738,-6673362 5735,-6673365 5732,-6673367 5729,-6673370 5726,-6673373 5723,-6673376 5705,-6673400 5684,-6673430 5682,-6673432 5681,-6673434 5679,-6673437 5678,-6673439 5677,-6673441 5675,-6673443 5674,-6673445 5672,-6673447 5671,-6673449 5669,-6673451 5668,-6673453 5666,-6673454 5665,-6673455 5664,-6673456 5663,-6673457 5661,-6673458 5660,-6673459 5659,-6673460 5658,-6673460 5657,-6673461 5653,-6673462 5649,-6673463 5645,-6673463 5641,-6673463 5637,-6673463 5633,-6673463 5631,-6673463 5624,-6673462 5617,-6673461 5610,-6673460 5565,-6673450 5547,-6673446 5518,-6673439 5506,-6673436 5470,-6673427 5465,-6673426 5459,-6673424 5452,-6673422 5446,-6673421 5439,-6673419 5433,-6673418 5426,-6673417 5425,-6673417 5421,-6673416 5416,-6673416 5412,-6673415 5407,-6673415 5403,-6673415 5398,-6673415 5398,-6673415 5389,-6673415 5381,-6673416 5373,-6673418 5365,-6673419 5354,-6673422 5334,-6673427 5325,-6673429 5301,-6673436 5299,-6673437 5265,-6673445 5260,-6673446 5254,-6673448 5248,-6673449 5242,-6673451 5236,-6673452 5236,-6673452 5230,-6673453 5224,-6673453 5217,-6673454 5216,-6673454 5197,-6673457 5179,-6673460 5124,-6673467 5122,-6673468 5090,-6673465 5066,-6673450 5048,-6673427 5037,-6673387 5019,-6673342 4983,-6673302 4921,-6673271 4914,-6673267 4908,-6673265 4901,-6673262 4893,-6673259 4889,-6673256 4880,-6673253 4872,-6673249 4863,-6673246 4854,-6673243 4846,-6673240 4841,-6673239 4835,-6673237 4828,-6673235 4821,-6673234 4814,-6673232 4807,-6673231 4800,-6673230 4793,-6673229 4787,-6673228 4780,-6673228 4773,-6673227 4765,-6673227 4758,-6673227 4752,-6673227 4741,-6673227 4737,-6673227 4726,-6673228 4719,-6673228 4720,-6673230 4727,-6673283 4750,-6673385 4753,-6673404 4758,-6673440 4760,-6673457 4761,-6673484 4771,-6673580 4781,-6673604 4785,-6673618 4787,-6673632 4791,-6673697 4802,-6673812 4808,-6673854 4821,-6673924 4823,-6673930 4833,-6673952 4836,-6673963 4843,-6674002 4848,-6674012 4861,-6674052 4866,-6674070 4877,-6674143 4880,-6674161 4902,-6674200 4907,-6674209 4905,-6674211 4895,-6674220 4906,-6674242 4916,-6674248 4919,-6674250 4931,-6674280 4917,-6674288 4888,-6674304 4873,-6674316 4848,-6674336 4828,-6674348 4810,-6674356 4797,-6674364 4796,-6674448 4796,-6674472 4793,-6674503 4787,-6674536 4785,-6674563 4772,-6674658 4764,-6674708 4754,-6674741 4738,-6674784 4724,-6674823 4721,-6674838 4709,-6674875 4684,-6674921 4672,-6674939 4652,-6674981 4620,-6675042 4620,-6675053 4624,-6675063 4621,-6675065 4607,-6675044 4579,-6675018 4575,-6675015 4566,-6675028 4554,-6675017 4538,-6675037 4550,-6675049 4500,-6675104 4481,-6675125 4474,-6675118 4465,-6675107 4389,-6675167 4322,-6675232 4265,-6675319 4213,-6675368 4197,-6675386 4093,-6675512 4088,-6675515 4081,-6675518 4075,-6675511 4052,-6675543 4060,-6675549 4066,-6675554 4045,-6675576 4028,-6675590 4012,-6675602 3962,-6675633 3909,-6675687 3797,-6675751 3780,-6675762 3772,-6675768 3758,-6675781 3731,-6675810 3700,-6675844 3663,-6675871 3602,-6675775 3567,-6675746 3556,-6675737 3532,-6675723 3476,-6675685 3467,-6675675 3463,-6675669 3442,-6675621 3412,-6675573 3406,-6675560 3382,-6675534 3370,-6675522 3294,-6675498 3279,-6675491 3270,-6675486 3243,-6675467 3197,-6675430 3127,-6675379 3114,-6675367 3077,-6675317 3026,-6675237 3020,-6675230 2994,-6675204 2985,-6675194 2922,-6675110 2909,-6675094 2885,-6675068 2808,-6674979 2765,-6674916 2742,-6674869 2733,-6674845 2723,-6674815 2712,-6674780 2697,-6674728 2676,-6674640 2672,-6674612 2670,-6674599 2664,-6674583 2653,-6674554 2646,-6674527 2640,-6674510 2627,-6674480 2621,-6674469 2586,-6674405 2572,-6674376 2561,-6674357 2542,-6674325 2481,-6674222 2453,-6674168 2378,-6674059 2370,-6674046 2359,-6674025 2332,-6673959 2321,-6673926 2315,-6673880 2314,-6673867 2315,-6673851 2317,-6673832 2321,-6673809 2326,-6673759 2323,-6673744 2314,-6673715 2309,-6673703 2298,-6673685 2266,-6673612 2263,-6673602 2259,-6673587 2256,-6673561 2244,-6673483 2235,-6673454 2233,-6673446 2226,-6673399 2221,-6673362 2213,-6673321 2165,-6673165 2141,-6673100 2126,-6673052 2097,-6673055 2018,-6673061 1929,-6673069 1813,-6673078 1745,-6673078 1670,-6673070 1669,-6673075 1629,-6673165 1615,-6673206 1608,-6673244 1596,-6673303 1592,-6673333 1588,-6673412 1585,-6673433 1568,-6673520 1556,-6673526 1552,-6673554 1527,-6673666 1518,-6673732 1493,-6673867 1454,-6673934 1446,-6673987 1433,-6674055 1418,-6674144 1400,-6674231 1376,-6674327 1372,-6674386 1353,-6674461 1334,-6674496 1325,-6674523 1316,-6674550 1311,-6674578 1303,-6674605 1296,-6674629 1287,-6674657 1282,-6674688 1273,-6674725 1263,-6674770 1255,-6674816 1248,-6674843 1238,-6674884 1231,-6674967 1235,-6674976 1233,-6674990 1235,-6675061 1222,-6675080 1217,-6675087 1213,-6675101 1205,-6675203 1209,-6675220 1209,-6675228 1203,-6675255 1185,-6675312 1172,-6675349 1170,-6675354 1166,-6675360 1163,-6675367 1163,-6675373 1164,-6675379 1168,-6675386 1172,-6675411 1161,-6675450 1146,-6675517 1145,-6675536 1133,-6675569 1126,-6675590 1116,-6675619 1109,-6675638 1102,-6675654 1092,-6675671 1080,-6675691 1070,-6675706 1068,-6675717 1070,-6675733 1065,-6675746 1055,-6675762 1052,-6675780 1053,-6675796 1051,-6675819 1044,-6675860 1026,-6675922 1006,-6676010 1003,-6676038 1014,-6676089 944,-6676322 938,-6676346 934,-6676377 933,-6676404 933,-6676431 938,-6676463 948,-6676497 966,-6676543 996,-6676602 1012,-6676655 1018,-6676699 1021,-6676760 1028,-6676820 1056,-6676958 1067,-6676991 1070,-6677000 1064,-6677014 1071,-6677031 1082,-6677080 1109,-6677169 1126,-6677263 1152,-6677406 1125,-6677404 1059,-6677395 1041,-6677390 1030,-6677389 1014,-6677389 936,-6677370 912,-6677361 900,-6677355 881,-6677343 835,-6677327 798,-6677318 779,-6677316 733,-6677319 732,-6677320 732,-6677335 722,-6677420 685,-6677579 671,-6677643 629,-6677769 617,-6677817 609,-6677871 606,-6677899 605,-6677927 601,-6678025 595,-6678075 586,-6678122 576,-6678161 571,-6678199 566,-6678237 547,-6678438 542,-6678464 498,-6678595 453,-6678784 431,-6678849 417,-6678897 414,-6678962 401,-6679027 391,-6679107 378,-6679190 365,-6679257 354,-6679340 345,-6679370 326,-6679433 306,-6679531 278,-6679632 263,-6679680 255,-6679722 254,-6679728 250,-6679754 247,-6679780 246,-6679835 261,-6679862 317,-6679925 322,-6679931 324,-6679936 325,-6679942 325,-6679960 320,-6680040 320,-6680042 319,-6680058 324,-6680083 324,-6680101 346,-6680127 360,-6680165 368,-6680259 331,-6680273 293,-6680293 255,-6680319 218,-6680360 189,-6680411 150,-6680464 110,-6680503 96,-6680515 106,-6680527 104,-6680537 95,-6680579 63,-6680684 65,-6680749 46,-6680848 17,-6680968 8,-6681028 -3,-6681088 -40,-6681270 -59,-6681319 -83,-6681406 -95,-6681484 -110,-6681556 -118,-6681609 -141,-6681694 -153,-6681722 -162,-6681742 -157,-6681744 -152,-6681748 -155,-6681792 -161,-6681791 -172,-6681789 -193,-6681908 -180,-6681913 -188,-6681961 -203,-6682035 -217,-6682081 -219,-6682089 -235,-6682155 -265,-6682268 -283,-6682348 -287,-6682369 -286,-6682396 -286,-6682426 -294,-6682475 -300,-6682517 -312,-6682555 -329,-6682640 -321,-6682641 -322,-6682651 -331,-6682675 -358,-6682749 -364,-6682785 -382,-6682869 -418,-6683010 -432,-6683040 -442,-6683131 -465,-6683205 -470,-6683232 -480,-6683253 -483,-6683292 -498,-6683339 -512,-6683362 -517,-6683408 -525,-6683487 -523,-6683573 -525,-6683601 -537,-6683661 -544,-6683697 -552,-6683745 -563,-6683798 -567,-6683823 -574,-6683857 -578,-6683865 -585,-6683881 -595,-6683897 -591,-6683899 -585,-6683900 -590,-6683915 -590,-6683916 -596,-6683929 -602,-6683941 -607,-6683949 -613,-6683961 -614,-6683962 -653,-6684027 -680,-6684059 -675,-6684068 -674,-6684070 -695,-6684100 -715,-6684117 -731,-6684131 -738,-6684145 -781,-6684198 -820,-6684242 -852,-6684288 -867,-6684318 -893,-6684369 -914,-6684397 -937,-6684446 -963,-6684478 -1003,-6684498 -1032,-6684530 -1048,-6684547 -1078,-6684573 -1122,-6684602 -1234,-6684685 -1279,-6684717 -1319,-6684737 -1320,-6684737 -1334,-6684739 -1344,-6684740 -1353,-6684722 -1369,-6684702 -1381,-6684708 -1430,-6684717 -1457,-6684724 -1458,-6684725 -1484,-6684755 -1512,-6684786 -1552,-6684835 -1580,-6684867 -1606,-6684892 -1672,-6684953 -1739,-6685021 -1793,-6685105 -1837,-6685187 -1925,-6685327 -1964,-6685359 -1984,-6685398 -2018,-6685424 -2032,-6685445 -2045,-6685463 -2019,-6685475 -2023,-6685487 -2032,-6685505 -2040,-6685524 -2041,-6685528 -2053,-6685561 -2067,-6685595 -2086,-6685639 -2089,-6685674 -2098,-6685700 -2104,-6685719 -2121,-6685744 -2130,-6685765 -2154,-6685804 -2165,-6685823 -2179,-6685842 -2194,-6685861 -2202,-6685869 -2210,-6685881 -2217,-6685892 -2231,-6685920 -2241,-6685931 -2264,-6685951 -2308,-6685985 -2312,-6685997 -2330,-6686042 -2342,-6686070 -2362,-6686101 -2373,-6686130 -2397,-6686162 -2429,-6686186 -2441,-6686197 -2461,-6686245 -2476,-6686270 -2557,-6686217 -2592,-6686187 -2622,-6686166 -2645,-6686187 -2638,-6686235 -2722,-6686365 -2723,-6686431 -2673,-6686431 -2673,-6686468 -2596,-6686479 -2596,-6686478 -2596,-6686469 -2588,-6686468 -2570,-6686471 -2574,-6686536 -2577,-6686575 -2584,-6686618 -2586,-6686671 -2590,-6686708 -2597,-6686721 -2613,-6686756 -2620,-6686802 -2622,-6686836 -2622,-6686888 -2620,-6686927 -2620,-6686927 -2613,-6686932 -2614,-6686951 -2620,-6686951 -2621,-6686963 -2625,-6686995 -2626,-6687033 -2627,-6687092 -2629,-6687183 -2628,-6687224 -2638,-6687225 -2638,-6687225 -2633,-6687238 -2633,-6687240 -2639,-6687240 -2648,-6687239 -2646,-6687242 -2639,-6687257 -2629,-6687289 -2626,-6687325 -2623,-6687401 -2662,-6687474 -2689,-6687531 -2698,-6687576 -2713,-6687668 -2778,-6687809 -2781,-6687817 -2786,-6687832 -2791,-6687862 -2795,-6687877 -2802,-6687900 -2824,-6687944 -2832,-6687964 -2856,-6688019 -2871,-6688064 -2876,-6688085 -2881,-6688083 -2908,-6688155 -2884,-6688160 -2888,-6688223 -2892,-6688249 -2897,-6688293 -2903,-6688303 -2908,-6688327 -2914,-6688326 -2938,-6688411 -2950,-6688485 -2961,-6688542 -2968,-6688583 -2977,-6688629 -2982,-6688676 -2982,-6688677 -3118,-6688674 -3114,-6688621 -3114,-6688614 -3113,-6688607 -3112,-6688600 -3112,-6688593 -3112,-6688586 -3112,-6688579 -3113,-6688572 -3113,-6688565 -3114,-6688558 -3115,-6688551 -3116,-6688544 -3117,-6688537 -3118,-6688532 -3120,-6688525 -3122,-6688518 -3124,-6688512 -3126,-6688505 -3129,-6688498 -3131,-6688492 -3134,-6688486 -3137,-6688479 -3140,-6688473 -3144,-6688467 -3147,-6688460 -3151,-6688454 -3155,-6688448 -3158,-6688442 -3162,-6688437 -3166,-6688431 -3170,-6688425 -3173,-6688422 -3179,-6688414 -3184,-6688407 -3190,-6688400 -3196,-6688393 -3203,-6688386 -3209,-6688379 -3216,-6688373 -3222,-6688366 -3229,-6688360 -3237,-6688354 -3244,-6688349 -3245,-6688348 -3252,-6688343 -3259,-6688339 -3266,-6688335 -3273,-6688331 -3280,-6688327 -3287,-6688324 -3294,-6688320 -3302,-6688317 -3309,-6688314 -3317,-6688311 -3325,-6688309 -3332,-6688306 -3340,-6688304 -3348,-6688301 -3355,-6688299 -3363,-6688297 -3374,-6688294 -3385,-6688292 -3396,-6688289 -3407,-6688288 -3418,-6688286 -3429,-6688284 -3440,-6688283 -3452,-6688282 -3463,-6688282 -3474,-6688281 -3486,-6688281 -3486,-6688281 -3630,-6688272 -3713,-6688262 -3864,-6688243 -3973,-6688232 -4027,-6688235 -4066,-6688240 -4077,-6688243 -4076,-6688258 -4089,-6688260 -4092,-6688252 -4110,-6688255 -4043,-6688610 -4107,-6688601 -4134,-6688764 -4192,-6689072 -4211,-6689246 -4215,-6689364 -4168,-6689653 -4137,-6689835 -4132,-6689864 -4084,-6690141 -4064,-6690289 -4062,-6690297 -4128,-6690317 -4204,-6690339 -4254,-6690347 -4301,-6690362 -4352,-6690367 -4369,-6690368 -4401,-6690368 -4436,-6690386 -4502,-6690410 -4565,-6690428 -4592,-6690437 -4637,-6690455 -4647,-6690445 -4654,-6690438 -4703,-6690451 -4758,-6690474 -4803,-6690504 -4863,-6690549 -4974,-6690661 -5035,-6690734 -5085,-6690803 -5119,-6690861 -5133,-6690897 -5144,-6690928 -5173,-6690925 -5209,-6690900 -5210,-6690901 -5231,-6690936 -5252,-6690976 -5257,-6690987 -5298,-6691081 -5314,-6691113 -5347,-6691137 -5389,-6691150 -5426,-6691153 -5467,-6691155 -5529,-6691148 -5600,-6691160 -5618,-6691164 -5717,-6691195 -5736,-6691219 -5736,-6691219 -5754,-6691211 -5754,-6691232 -5755,-6691285 -5791,-6691300 -5835,-6691313 -5845,-6691348 -5854,-6691382 -5856,-6691391 -5854,-6691398 -5912,-6691436 -5922,-6691426 -5953,-6691450 -5928,-6691480 -5944,-6691494 -5764,-6691723 -5671,-6691843 -5654,-6691927 -5601,-6691997 -5615,-6692006 -5658,-6691949 -5717,-6691984 -5800,-6692051 -5635,-6692278 -5690,-6692324 -5729,-6692354 -5778,-6692443 -5838,-6692533 -5895,-6692617 -5922,-6692588 -5960,-6692576 -6003,-6692566 -6082,-6692545 -6148,-6692527 -6200,-6692506 -6242,-6692481 -6326,-6692446 -6394,-6692404 -6477,-6692342 -6549,-6692285 -6594,-6692237 -6610,-6692223 -6712,-6692221 -6741,-6692199 -6757,-6692222 -6755,-6692225 -6696,-6692275 -6755,-6692372 -6919,-6692629 -7002,-6692630 -7060,-6692632 -7096,-6692635 -7099,-6692635 -7119,-6692648 -7192,-6692663 -7186,-6692686 -7177,-6692720 -7225,-6692736 -7246,-6692745 -7298,-6692765 -7325,-6692780 -7350,-6692796 -7369,-6692807 -7389,-6692816 -7416,-6692836 -7435,-6692850 -7447,-6692859 -7456,-6692868 -7464,-6692876 -7477,-6692888 -7494,-6692902 -7523,-6692927 -7541,-6692946 -7569,-6692975 -7571,-6692976 -7578,-6692971 -7581,-6692969 -7593,-6692979 -7589,-6692982 -7582,-6692989 -7584,-6692991 -7585,-6692992 -7592,-6692998 -7597,-6692995 -7601,-6692997 -7601,-6693002 -7626,-6693033 -7633,-6693041 -7643,-6693053 -7649,-6693067 -7671,-6693101 -7668,-6693107 -7667,-6693109 -7670,-6693115 -7678,-6693134 -7676,-6693165 -7675,-6693181 -7702,-6693226 -7703,-6693250 -7706,-6693266 -7721,-6693294 -7736,-6693326 -7747,-6693346 -7753,-6693363 -7763,-6693383 -7812,-6693472 -7860,-6693543 -7904,-6693601 -7959,-6693658 -8006,-6693712 -8047,-6693768 -8082,-6693825 -8107,-6693869 -8127,-6693915 -8146,-6693978 -8155,-6694004 -8172,-6694069 -8181,-6694156 -8183,-6694225 -8180,-6694289 -8177,-6694329 -8174,-6694345 -8159,-6694402 -8144,-6694447 -8125,-6694511 -8113,-6694560 -8096,-6694621 -8161,-6694642 -8196,-6694652 -8196,-6694662 -8199,-6694663 -8209,-6694668 -8226,-6694676 -8248,-6694690 -8285,-6694716 -8365,-6694772 -8351,-6694789 -8349,-6694790 -8365,-6694802 -8382,-6694816 -8402,-6694833 -8409,-6694839 -8424,-6694854 -8429,-6694858 -8446,-6694868 -8460,-6694882 -8504,-6694925 -8516,-6694932 -8529,-6694923 -8541,-6694922 -8555,-6694926 -8604,-6694957 -8642,-6694984 -8675,-6695012 -8691,-6695022 -8795,-6695063 -8836,-6695077 -8872,-6695089 -8916,-6695112 -8948,-6695130 -8955,-6695134 -8954,-6695135 -8950,-6695147 -8958,-6695157 -8987,-6695214 -8996,-6695257 -9006,-6695330 -9010,-6695382 -9008,-6695403 -9013,-6695408 -9022,-6695419 -9026,-6695424 -9024,-6695445 -9013,-6695472 -9006,-6695484 -8992,-6695500 -8953,-6695544 -8928,-6695586 -8909,-6695627 -8885,-6695676 -8864,-6695717 -8851,-6695739 -8824,-6695774 -8777,-6695830 -8755,-6695858 -8738,-6695877 -8730,-6695888 -8741,-6695898 -8745,-6695902 -8742,-6695924 -8739,-6695929 -8735,-6695935 -8729,-6695972 -8725,-6695998 -8717,-6696026 -8716,-6696029 -8714,-6696034 -8706,-6696054 -8684,-6696106 -8635,-6696231 -8524,-6696496 -8420,-6696760 -8396,-6696814 -8350,-6696921 -8349,-6696925 -8348,-6696928 -8347,-6696932 -8345,-6696936 -8343,-6696939 -8342,-6696943 -8340,-6696946 -8338,-6696949 -8336,-6696953 -8334,-6696956 -8333,-6696957 -8331,-6696960 -8328,-6696963 -8326,-6696966 -8323,-6696969 -8320,-6696972 -8317,-6696974 -8315,-6696977 -8312,-6696980 -8309,-6696982 -8305,-6696984 -8302,-6696987 -8299,-6696989 -8296,-6696991 -8294,-6696993 -8288,-6696997 -8283,-6697000 -8278,-6697004 -8272,-6697007 -8267,-6697010 -8261,-6697012 -8255,-6697015 -8250,-6697017 -8245,-6697019 -8240,-6697020 -8235,-6697022 -8229,-6697023 -8227,-6697024 -8224,-6697024 -8219,-6697026 -8213,-6697027 -8195,-6697032 -8167,-6697034 -8131,-6697038 -8099,-6697044 -8054,-6697049 -8036,-6697051 -8003,-6697050 -7962,-6697047 -7939,-6697043 -7922,-6697042 -7914,-6697042 -7906,-6697041 -7898,-6697040 -7895,-6697039 -7887,-6697038 -7879,-6697036 -7871,-6697035 -7863,-6697033 -7862,-6697032 -7857,-6697031 -7853,-6697029 -7848,-6697027 -7843,-6697024 -7838,-6697022 -7834,-6697020 -7829,-6697017 -7827,-6697016 -7824,-6697015 -7820,-6697013 -7745,-6696977 -7703,-6696950 -7664,-6696928 -7660,-6696967 -7654,-6696981 -7643,-6696996 -7640,-6696996 -7594,-6696991 -7557,-6696983 -7559,-6696980 -7567,-6696966 -7563,-6696963 -7507,-6696927 -7447,-6696889 -7426,-6696879 -7351,-6696830 -7326,-6696876 -7292,-6696869 -7264,-6696864 -7241,-6696862 -7239,-6696862 -7219,-6696857 -7218,-6696854 -7218,-6696842 -7195,-6696832 -7188,-6696829 -7180,-6696831 -7169,-6696876 -7064,-6696872 -7061,-6696872 -7061,-6696865 -7001,-6696859 -6989,-6696854 -6967,-6696849 -6966,-6696853 -6935,-6696841 -6917,-6696829 -6896,-6696817 -6858,-6696793 -6837,-6696781 -6851,-6696760 -6841,-6696743 -6842,-6696731 -6834,-6696723 -6674,-6696629 -6662,-6696622 -6632,-6696606 -6595,-6696585 -6501,-6696533 -6468,-6696513 -6462,-6696509 -6467,-6696493 -6467,-6696492 -6425,-6696482 -6343,-6696463 -6318,-6696456 -6312,-6696456 -6295,-6696455 -6278,-6696455 -6277,-6696455 -6265,-6696458 -6213,-6696459 -6212,-6696462 -6209,-6696474 -6207,-6696474 -6136,-6696450 -6107,-6696547 -6096,-6696587 -6095,-6696591 -5844,-6696571 -5770,-6696565 -5764,-6696565 -5759,-6696455 -5759,-6696406 -5760,-6696375 -5702,-6696378 -5645,-6696382 -5617,-6696393 -5605,-6696401 -5563,-6696409 -5537,-6696415 -5488,-6696419 -5463,-6696423 -5423,-6696431 -5402,-6696433 -5254,-6696436 -5256,-6696428 -5256,-6696427 -5216,-6696427 -5119,-6696425 -5119,-6696418 -5119,-6696393 -5147,-6696395 -5149,-6696348 -4942,-6696417 -4860,-6696444 -4875,-6696489 -4870,-6696490 -4845,-6696496 -4819,-6696511 -4785,-6696533 -4777,-6696529 -4769,-6696501 -4765,-6696503 -4628,-6696578 -4640,-6696609 -4635,-6696615 -4600,-6696653 -4582,-6696672 -4568,-6696683 -4529,-6696694 -4485,-6696693 -4441,-6696684 -4428,-6696683 -4398,-6696676 -4334,-6696652 -4295,-6696637 -4280,-6696632 -4261,-6696663 -4236,-6696708 -4200,-6696767 -4169,-6696817 -4059,-6696817 -4022,-6696819 -3990,-6696818 -3961,-6696819 -3880,-6696819 -3836,-6696830 -3811,-6696835 -3807,-6696836 -3808,-6696777 -3808,-6696774 -3744,-6696767 -3736,-6696766 -3735,-6696759 -3735,-6696757 -3712,-6696754 -3685,-6696754 -3670,-6696761 -3600,-6696764 -3539,-6696766 -3552,-6696867 -3559,-6696914 -3450,-6696934 -3403,-6696942 -3383,-6696944 -3369,-6696941 -3363,-6696940 -3348,-6696933 -3313,-6696910 -3297,-6696899 -3277,-6696886 -3160,-6696803 -3102,-6696763 -3096,-6696762 -3094,-6696751 -3092,-6696744 -3091,-6696728 -3090,-6696726 -3049,-6696691 -3022,-6696666 -3007,-6696656 -2984,-6696639 -2912,-6696587 -2893,-6696572 -2891,-6696571 -2871,-6696593 -2868,-6696596 -2866,-6696585 -2865,-6696581 -2863,-6696579 -2854,-6696573 -2846,-6696560 -2834,-6696545 -2792,-6696528 -2754,-6696510 -2716,-6696488 -2689,-6696466 -2660,-6696436 -2636,-6696412 -2608,-6696374 -2574,-6696323 -2570,-6696313 -2549,-6696273 -2526,-6696228 -2513,-6696204 -2507,-6696207 -2490,-6696221 -2485,-6696228 -2475,-6696242 -2472,-6696239 -2457,-6696224 -2370,-6696134 -2328,-6696091 -2330,-6696089 -2405,-6696010 -2409,-6696005 -2402,-6695996 -2372,-6695970 -2345,-6695948 -2339,-6695942 -2310,-6695915 -2313,-6695910 -2324,-6695896 -2336,-6695879 -2339,-6695870 -2344,-6695855 -2356,-6695833 -2359,-6695821 -2361,-6695810 -2364,-6695716 -2369,-6695675 -2377,-6695642 -2388,-6695619 -2405,-6695587 -2443,-6695542 -2507,-6695486 -2416,-6695442 -2466,-6695344 -2441,-6695320 -2414,-6695294 -2389,-6695268 -2386,-6695274 -2339,-6695240 -2339,-6695221 -2339,-6695215 -2300,-6695203 -2289,-6695207 -2288,-6695210 -2283,-6695218 -2275,-6695220 -2263,-6695216 -2257,-6695211 -2252,-6695207 -1983,-6695165 -1998,-6695047 -1999,-6695043 -1930,-6695036 -1876,-6695031 -1841,-6695031 -1829,-6695032 -1761,-6695035 -1691,-6695040 -1602,-6695049 -1572,-6695051 -1572,-6695047 -1572,-6695022 -1586,-6695021 -1589,-6695021 -1590,-6695020 -1617,-6694841 -1597,-6694840 -1598,-6694824 -1585,-6694820 -1585,-6694816 -1584,-6694793 -1501,-6694783 -1420,-6694779 -1315,-6694774 -1170,-6694774 -1025,-6694832 -1017,-6694853 -1004,-6694871 -990,-6694886 -966,-6694903 -941,-6694916 -907,-6694924 -870,-6694936 -853,-6694940 -841,-6694943 -734,-6694972 -742,-6695021 -743,-6695067 -740,-6695120 -727,-6695210 -697,-6695208 -677,-6695206 -672,-6695211 -664,-6695217 -613,-6695173 -610,-6695119 -599,-6695086 -578,-6695030 -571,-6695017 -570,-6695000 -570,-6694990 -559,-6694980 -556,-6694978 -555,-6694974 -552,-6694960 -362,-6695042 -385,-6695088 -397,-6695133 -378,-6695145 -376,-6695151 -91,-6695194 -81,-6695196 -92,-6695225 -94,-6695230 -53,-6695259 -35,-6695272 -30,-6695293 -32,-6695308 -32,-6695311 -28,-6695399 -22,-6695453 -22,-6695455 -22,-6695457 -21,-6695459 -21,-6695462 -21,-6695464 -21,-6695466 -21,-6695468 -21,-6695470 -20,-6695472 -20,-6695474 -19,-6695477 -19,-6695477 -18,-6695480 -16,-6695483 -15,-6695485 -13,-6695488 -11,-6695490 -5,-6695505 18,-6695527 60,-6695557 69,-6695574 97,-6695597 122,-6695618 195,-6695668 360,-6695494 391,-6695462 574,-6695609 621,-6695649 634,-6695660 611,-6695688 596,-6695744 601,-6695750 616,-6695770 584,-6695803 615,-6695873 628,-6695892 640,-6695912 653,-6695939 659,-6695956 666,-6695978 671,-6696008 673,-6696033 676,-6696048 684,-6696061 704,-6696106 752,-6696092 767,-6696138 751,-6696144 758,-6696168 765,-6696192 778,-6696187 821,-6696171 838,-6696242 875,-6696367 902,-6696469 967,-6696449 996,-6696433 1112,-6696369 1132,-6696403 1192,-6696509 1225,-6696548 1256,-6696570 1296,-6696586 1317,-6696649 1363,-6696672 1488,-6696764 1507,-6696833 1605,-6696859 1590,-6696931 1573,-6697028 1616,-6697030 1624,-6697029 1670,-6697025 1747,-6697026 1789,-6697034 1798,-6697041 1882,-6697107 1919,-6697135 1943,-6697148 1967,-6697158 1994,-6697162 2022,-6697165 2044,-6697167 2072,-6697177 2092,-6697184 2173,-6697180 2194,-6697183 2225,-6697169 2251,-6697159 2330,-6697143 2330,-6697142 2345,-6697144 2355,-6697147 2393,-6697176 2400,-6697181 2397,-6697195 2415,-6697207 2440,-6697229 2481,-6697264 2510,-6697283 2557,-6697312 2584,-6697331 2616,-6697369 2642,-6697391 2643,-6697400 2674,-6697419 2697,-6697429 2725,-6697448 2794,-6697500 2823,-6697524 2831,-6697530 2904,-6697485 2998,-6697396 3032,-6697366 3169,-6697205 3244,-6697131 3295,-6697076 3336,-6697010 3351,-6696992 3375,-6696973 3429,-6696939 3477,-6696909 3505,-6696882 3583,-6696806 3602,-6696794 3621,-6696781 3664,-6696739 3703,-6696709 3734,-6696682 3761,-6696656 3787,-6696620 3825,-6696570 3850,-6696531 3894,-6696481 4031,-6696348 4173,-6696561 4307,-6696753 4324,-6696760 4347,-6696759 4347,-6696779 4348,-6696843 4349,-6696884 4348,-6696908 4346,-6696921 4344,-6696941 4338,-6697010 4337,-6697013 4325,-6697011 4324,-6697039 4319,-6697088 4306,-6697089 4301,-6697089 4296,-6697120 4281,-6697206 4284,-6697281 4219,-6697282 4217,-6697282 4214,-6697313 4214,-6697316 4251,-6697344 4262,-6697353 4270,-6697359 4263,-6697496 4266,-6697532 4257,-6697572 4246,-6697613 4245,-6697616 4252,-6697621 4234,-6697716 4224,-6697751 4214,-6697789 4212,-6697808 4211,-6697819 4201,-6697883 4194,-6697908 4189,-6697923 4179,-6697957 4188,-6697972 4177,-6697996 4179,-6698028 4175,-6698083 4176,-6698108 4181,-6698136 4183,-6698142 4183,-6698152 4187,-6698203 4191,-6698230 4199,-6698308 4196,-6698306 4145,-6698274 3859,-6698084 3754,-6698014 3701,-6698110 3615,-6698049 3589,-6698088 3582,-6698132 3519,-6698167 3513,-6698155 3501,-6698135 3492,-6698120 3470,-6698086 3459,-6698104 3496,-6698171 3493,-6698173 3467,-6698195 3398,-6698249 3372,-6698262 3361,-6698271 3348,-6698287 3327,-6698308 3331,-6698312 3298,-6698339 3243,-6698383 3184,-6698430 3187,-6698432 3221,-6698464 3234,-6698489 3238,-6698544 3233,-6698613 3227,-6698690 3216,-6698767 3195,-6698854 3194,-6698855 3191,-6698856 3178,-6698859 3119,-6698870 3086,-6698873 3085,-6698881 3081,-6698881 3035,-6698882 2927,-6698816 2868,-6698781 2841,-6698735 2827,-6698727 2815,-6698784 2817,-6698797 2818,-6698800 2799,-6698921 2789,-6698929 2778,-6698978 2773,-6698998 2771,-6699060 2761,-6699126 2759,-6699167 2762,-6699182 2893,-6699218 2896,-6699204 3196,-6699276 3210,-6699279 3210,-6699324 3216,-6699356 3217,-6699385 3200,-6699451 3183,-6699531 3184,-6699577 3197,-6699617 3211,-6699662 3218,-6699698 3227,-6699724 3240,-6699744 3240,-6699760 3269,-6699790 3271,-6699801 3295,-6699807 3295,-6699845 3295,-6699850 3294,-6699874 3340,-6700081 3378,-6700266 3398,-6700267 3407,-6700267 3427,-6700253 3453,-6700248 3485,-6700241 3491,-6700238 3527,-6700212 3575,-6700201 3596,-6700192 3623,-6700178 3643,-6700174 3673,-6700155" stroke="#006747" stroke-width="54" /></ns0:svg>    <rect x="20" y="50"  width="250" height="25"  rx="0"  fill="#006747" fill-opacity="0.8" />    <text x="145" y="70" text-anchor="middle" font-family="Frutiger" font-weight="bold" font-size="30" fill="white">Bromley</text>    <rect x="35" y="195" width="220" height="160" rx="15" fill="#78BE20"/>    <g font-family="Frutiger" font-size="15" fill="#231F20">        <g> <text x="45" y="218">Self-harm</text> <text x="245" y="218" text-anchor="end">10</text> </g>        <g> <text x="45" y="243">SEN</text> <text x="245" y="243" text-anchor="end">45</text> </g>        <g> <text x="45" y="268">Difficulties</text> <text x="245" y="268" text-anchor="end">69</text> </g>        <g> <text x="45" y="293">Child Carer</text> <text x="245" y="293" text-anchor="end">8</text> </g>        <g> <text x="45" y="318">Drinkers</text> <text x="245" y="318" text-anchor="end">46</text> </g>        <g> <text x="45" y="343">Safeguarding </text> <text x="245" y="343" text-anchor="end">21</text> </g>    </g></svg>