<?xml version="1.0" standalone="no"?>
<!DOCTYPE svg PUBLIC "-//W3C//DTD SVG 1.1//EN"
"http://www.w3.org/Graphics/SVG/1.1/DTD/svg11.dtd">
<svg height="1800" version="1.1" width="1800" xmlns="http://www.w3.org/2000/svg"><defs><style type="text/css">@font-face {font-family: 'Frutiger';font-style: normal;font-weight: normal;src: local('Frutiger'), url('../fonts/Frutiger.woff') format('woff');}@font-face {font-family: 'Frutiger Bold';font-style: normal;font-weight: normal;src: local('Frutiger Bold'), url('../fonts/Frutiger_bold.woff') format('woff');}        </style>    </defs>    <rect x="20" y="20"  width="250" height="350" rx="15" fill="#AE2573" />    <rect x="35" y="35"  width="220" height="145" rx="15" fill="#330072" /><ns0:svg xmlns:ns0="http://www.w3.org/2000/svg" height="115" version="1.1" viewBox="-2364 -6721669 13476 12165" width="220" x="35" y="50"><ns0:polygon fill="white" points=" 6274,-6720701 6278,-6720699 6283,-6720700 6291,-6720702 6297,-6720705 6302,-6720709 6306,-6720714 6313,-6720724 6318,-6720728 6326,-6720730 6330,-6720728 6334,-6720726 6338,-6720722 6343,-6720715 6347,-6720707 6348,-6720701 6349,-6720694 6347,-6720642 6361,-6720616 6377,-6720601 6410,-6720597 6431,-6720576 6433,-6720575 6445,-6720572 6455,-6720573 6467,-6720577 6474,-6720581 6488,-6720571 6490,-6720569 6496,-6720529 6501,-6720514 6505,-6720507 6510,-6720501 6525,-6720488 6528,-6720483 6530,-6720479 6533,-6720468 6545,-6720456 6557,-6720456 6564,-6720453 6569,-6720450 6573,-6720447 6576,-6720443 6578,-6720438 6578,-6720436 6576,-6720430 6575,-6720425 6575,-6720420 6579,-6720412 6584,-6720406 6590,-6720403 6596,-6720403 6602,-6720405 6615,-6720412 6620,-6720413 6629,-6720412 6636,-6720409 6639,-6720406 6642,-6720401 6642,-6720388 6643,-6720380 6646,-6720371 6651,-6720361 6679,-6720331 6687,-6720322 6694,-6720317 6699,-6720315 6737,-6720332 6777,-6720337 6804,-6720346 6843,-6720362 6950,-6720410 7081,-6720473 7099,-6720440 7131,-6720405 7151,-6720383 7196,-6720320 7208,-6720298 7234,-6720312 7278,-6720245 7314,-6720197 7327,-6720178 7313,-6720158 7346,-6720103 7378,-6720063 7400,-6720036 7415,-6720011 7426,-6719940 7441,-6719840 7455,-6719706 7550,-6719713 7564,-6719501 7581,-6719367 7592,-6719218 7599,-6719159 7614,-6719048 7616,-6719028 7625,-6718943 7632,-6718877 7635,-6718850 7648,-6718774 7652,-6718724 7648,-6718691 7640,-6718668 7647,-6718574 7651,-6718508 7646,-6718456 7642,-6718423 7642,-6718385 7635,-6718291 7623,-6718225 7613,-6718185 7609,-6718165 7604,-6718143 7604,-6718142 7602,-6718136 7590,-6718088 7567,-6718021 7539,-6717949 7501,-6717865 7486,-6717824 7466,-6717763 7445,-6717688 7441,-6717674 7438,-6717661 7435,-6717648 7433,-6717634 7431,-6717621 7429,-6717608 7428,-6717601 7427,-6717587 7424,-6717556 7422,-6717529 7424,-6717470 7431,-6717432 7433,-6717409 7436,-6717389 7443,-6717352 7457,-6717305 7480,-6717252 7495,-6717220 7505,-6717198 7531,-6717148 7565,-6717080 7599,-6717008 7624,-6716960 7638,-6716934 7664,-6716883 7671,-6716872 7601,-6716836 7605,-6716802 7604,-6716775 7599,-6716739 7585,-6716718 7579,-6716712 7573,-6716705 7565,-6716694 7572,-6716684 7577,-6716676 7578,-6716687 7579,-6716689 7586,-6716695 7594,-6716700 7606,-6716703 7623,-6716703 7642,-6716700 7651,-6716697 7659,-6716697 7668,-6716701 7703,-6716721 7725,-6716720 7734,-6716711 7737,-6716705 7747,-6716682 7755,-6716664 7771,-6716622 7814,-6716527 7817,-6716519 7842,-6716465 7929,-6716257 7946,-6716211 7957,-6716184 7981,-6716126 7985,-6716110 7987,-6716105 8008,-6716113 8015,-6716094 8041,-6715989 8058,-6715888 8074,-6715797 8081,-6715726 8085,-6715670 8093,-6715584 8097,-6715508 8097,-6715455 8108,-6715458 8121,-6715461 8131,-6715466 8147,-6715472 8147,-6715472 8172,-6715484 8252,-6715521 8268,-6715519 8290,-6715530 8295,-6715531 8302,-6715530 8308,-6715526 8317,-6715527 8327,-6715532 8362,-6715542 8385,-6715563 8394,-6715565 8403,-6715562 8406,-6715557 8406,-6715554 8404,-6715535 8408,-6715531 8415,-6715528 8425,-6715525 8470,-6715523 8479,-6715514 8485,-6715508 8491,-6715505 8518,-6715491 8555,-6715479 8600,-6715474 8653,-6715473 8663,-6715470 8676,-6715466 8713,-6715450 8733,-6715436 8781,-6715387 8829,-6715317 8858,-6715280 8896,-6715234 8923,-6715201 8949,-6715173 8961,-6715162 8970,-6715153 8986,-6715142 9011,-6715130 9022,-6715124 9058,-6715107 9091,-6715095 9125,-6715082 9195,-6715051 9228,-6715034 9260,-6715016 9309,-6714984 9364,-6714933 9416,-6714889 9446,-6714868 9480,-6714850 9531,-6714834 9572,-6714833 9593,-6714835 9612,-6714840 9627,-6714848 9652,-6714863 9667,-6714872 9685,-6714882 9750,-6714915 9808,-6714939 9852,-6714948 9889,-6714956 9928,-6714957 9935,-6714957 9955,-6714955 9969,-6714949 9982,-6714942 10005,-6714921 10014,-6714911 10035,-6714883 10042,-6714876 10052,-6714868 10063,-6714861 10072,-6714856 10084,-6714852 10097,-6714848 10108,-6714847 10119,-6714846 10133,-6714846 10150,-6714849 10164,-6714852 10207,-6714861 10230,-6714861 10256,-6714854 10270,-6714847 10283,-6714836 10301,-6714823 10310,-6714814 10326,-6714787 10338,-6714724 10340,-6714696 10336,-6714658 10326,-6714608 10307,-6714509 10301,-6714494 10291,-6714468 10289,-6714427 10288,-6714379 10284,-6714336 10283,-6714320 10292,-6714287 10298,-6714240 10307,-6714222 10361,-6714150 10451,-6714037 10507,-6713967 10535,-6713939 10547,-6713926 10554,-6713917 10558,-6713911 10566,-6713899 10580,-6713873 10583,-6713850 10581,-6713830 10579,-6713823 10571,-6713795 10566,-6713766 10540,-6713543 10534,-6713513 10531,-6713484 10529,-6713462 10531,-6713418 10536,-6713382 10548,-6713336 10564,-6713268 10580,-6713235 10592,-6713213 10606,-6713190 10631,-6713152 10642,-6713139 10669,-6713108 10730,-6713055 10808,-6713014 10869,-6712984 10921,-6712938 10978,-6712887 11032,-6712841 11112,-6712809 11105,-6712648 11102,-6712347 10955,-6712337 10752,-6712312 10713,-6712307 10628,-6712305 10557,-6712299 10466,-6712284 10420,-6712275 10373,-6712266 10291,-6712245 10194,-6712210 10158,-6712198 10127,-6712185 10103,-6712173 10030,-6712125 10005,-6712108 9830,-6711971 9804,-6711951 9767,-6711911 9693,-6711837 9566,-6711692 9511,-6711622 9459,-6711558 9439,-6711528 9419,-6711498 9382,-6711428 9351,-6711355 9311,-6711253 9255,-6711147 9216,-6711071 9214,-6711067 9129,-6710907 9067,-6710796 8938,-6710605 8867,-6710497 8810,-6710417 8764,-6710348 8746,-6710321 8736,-6710306 8684,-6710240 8653,-6710200 8617,-6710160 8585,-6710127 8531,-6710080 8474,-6710034 8439,-6710004 8396,-6709971 8336,-6709928 8274,-6709895 8231,-6709872 8177,-6709846 8150,-6709835 8146,-6709834 7965,-6709769 7590,-6709676 7371,-6709641 7117,-6709619 7013,-6709608 6957,-6709604 6891,-6709598 6852,-6709595 6767,-6709588 6684,-6709582 6599,-6709579 6529,-6709581 6482,-6709585 6306,-6709604 6096,-6709630 6007,-6709640 5951,-6709647 5922,-6709650 5881,-6709655 5832,-6709661 5767,-6709669 5728,-6709674 5660,-6709683 5584,-6709697 5514,-6709713 5442,-6709717 5341,-6709725 5247,-6709730 5106,-6709740 4970,-6709748 4922,-6709749 4874,-6709744 4769,-6709736 4695,-6709731 4604,-6709727 4509,-6709722 4472,-6709719 4434,-6709713 4366,-6709704 4290,-6709681 4232,-6709672 4154,-6709662 4057,-6709652 3956,-6709654 3892,-6709650 3885,-6709648 3764,-6709625 3606,-6709586 3502,-6709570 3447,-6709553 3291,-6709529 3236,-6709519 3094,-6709506 2992,-6709504 2862,-6709511 2751,-6709517 2676,-6709530 2578,-6709556 2442,-6709597 2305,-6709662 2207,-6709710 2139,-6709746 2051,-6709802 1956,-6709876 1956,-6709876 1808,-6710005 1740,-6710074 1710,-6710110 1671,-6710162 1575,-6710298 1490,-6710412 1429,-6710494 1385,-6710553 1252,-6710739 1178,-6710852 1142,-6710900 1107,-6710948 1076,-6710984 1020,-6711050 985,-6711089 958,-6711115 915,-6711154 848,-6711204 924,-6711318 979,-6711395 1010,-6711439 1024,-6711466 1043,-6711521 1063,-6711584 1077,-6711606 1095,-6711664 1101,-6711687 1101,-6711708 1095,-6711727 1086,-6711747 1078,-6711763 1070,-6711779 1050,-6711809 1027,-6711834 1010,-6711847 987,-6711862 944,-6711881 899,-6711896 873,-6711905 858,-6711907 854,-6711907 810,-6711916 757,-6711929 724,-6711942 697,-6711958 686,-6711966 670,-6711986 663,-6712005 663,-6712021 670,-6712047 683,-6712081 689,-6712091 690,-6712101 694,-6712112 741,-6712174 772,-6712208 803,-6712287 812,-6712320 827,-6712334 846,-6712368 853,-6712384 859,-6712396 877,-6712420 892,-6712492 896,-6712541 892,-6712585 882,-6712607 881,-6712633 876,-6712647 852,-6712680 842,-6712699 830,-6712724 822,-6712743 814,-6712757 793,-6712771 772,-6712778 743,-6712784 715,-6712785 701,-6712782 682,-6712782 621,-6712754 612,-6712746 587,-6712704 568,-6712684 550,-6712649 546,-6712631 539,-6712619 532,-6712595 524,-6712561 516,-6712508 517,-6712460 522,-6712402 517,-6712351 506,-6712272 496,-6712231 490,-6712204 483,-6712184 477,-6712169 457,-6712136 448,-6712127 441,-6712121 433,-6712116 416,-6712108 397,-6712105 368,-6712104 344,-6712104 291,-6712116 281,-6712121 276,-6712125 268,-6712133 259,-6712150 254,-6712165 250,-6712189 251,-6712222 253,-6712237 259,-6712263 265,-6712284 279,-6712329 310,-6712421 368,-6712562 392,-6712630 404,-6712664 426,-6712719 446,-6712764 451,-6712777 454,-6712791 458,-6712810 460,-6712837 453,-6712867 448,-6712882 436,-6712909 426,-6712925 405,-6712951 356,-6713004 335,-6713023 299,-6713050 286,-6713059 260,-6713076 220,-6713101 193,-6713117 66,-6713185 -70,-6713290 -158,-6713361 -228,-6713420 -243,-6713429 -252,-6713432 -259,-6713433 -267,-6713434 -278,-6713433 -358,-6713416 -383,-6713403 -403,-6713391 -409,-6713385 -420,-6713371 -442,-6713321 -456,-6713283 -466,-6713265 -495,-6713216 -504,-6713205 -509,-6713200 -517,-6713194 -537,-6713185 -553,-6713181 -561,-6713180 -573,-6713181 -588,-6713183 -595,-6713186 -622,-6713207 -629,-6713215 -634,-6713222 -637,-6713230 -640,-6713239 -642,-6713248 -644,-6713336 -653,-6713369 -668,-6713406 -706,-6713492 -746,-6713558 -755,-6713572 -773,-6713594 -797,-6713619 -837,-6713652 -858,-6713667 -879,-6713682 -954,-6713733 -982,-6713758 -990,-6713776 -1003,-6713846 -1005,-6713892 -1003,-6713931 -987,-6713991 -962,-6714055 -945,-6714076 -943,-6714079 -940,-6714089 -913,-6714171 -907,-6714204 -892,-6714220 -879,-6714255 -866,-6714303 -868,-6714329 -871,-6714334 -900,-6714391 -903,-6714408 -904,-6714438 -899,-6714480 -896,-6714535 -885,-6714683 -875,-6714727 -869,-6714749 -868,-6714752 -864,-6714758 -853,-6714774 -837,-6714805 -832,-6714830 -828,-6714869 -834,-6714905 -847,-6714929 -860,-6714950 -892,-6714985 -912,-6715019 -928,-6715050 -938,-6715089 -952,-6715133 -968,-6715155 -991,-6715177 -1047,-6715221 -1115,-6715284 -1133,-6715299 -1149,-6715323 -1158,-6715341 -1164,-6715372 -1173,-6715417 -1180,-6715441 -1197,-6715463 -1213,-6715478 -1241,-6715488 -1318,-6715505 -1407,-6715520 -1463,-6715532 -1516,-6715557 -1519,-6715558 -1551,-6715574 -1560,-6715586 -1562,-6715590 -1564,-6715595 -1574,-6715615 -1586,-6715633 -1619,-6715657 -1662,-6715677 -1723,-6715701 -1830,-6715763 -1873,-6715791 -1909,-6715822 -1938,-6715852 -1939,-6715853 -1950,-6715868 -1976,-6715938 -2004,-6715983 -2022,-6716008 -2026,-6716024 -2027,-6716052 -2020,-6716081 -2005,-6716116 -2001,-6716123 -1997,-6716137 -1999,-6716169 -1999,-6716171 -2014,-6716208 -2021,-6716221 -2042,-6716247 -2075,-6716279 -2098,-6716306 -2107,-6716323 -2112,-6716341 -2115,-6716368 -2116,-6716410 -2121,-6716435 -2130,-6716469 -2150,-6716515 -2173,-6716562 -2190,-6716594 -2214,-6716626 -2239,-6716657 -2272,-6716674 -2289,-6716684 -2319,-6716698 -2331,-6716713 -2353,-6716752 -2354,-6716781 -2359,-6716813 -2361,-6716824 -2364,-6716842 -2362,-6716863 -2344,-6716900 -2315,-6716939 -2290,-6716964 -2288,-6716966 -2285,-6716968 -2245,-6716997 -2223,-6717009 -2212,-6717018 -2197,-6717030 -2186,-6717040 -2168,-6717059 -2167,-6717060 -2167,-6717061 -2159,-6717068 -2138,-6717113 -2128,-6717155 -2115,-6717218 -2102,-6717259 -2090,-6717279 -2072,-6717301 -2035,-6717335 -2012,-6717362 -1994,-6717389 -1987,-6717407 -1979,-6717430 -1974,-6717469 -1978,-6717519 -1973,-6717542 -1958,-6717556 -1940,-6717568 -1915,-6717578 -1889,-6717589 -1865,-6717600 -1848,-6717621 -1835,-6717645 -1826,-6717690 -1816,-6717758 -1801,-6717794 -1799,-6717796 -1790,-6717811 -1788,-6717829 -1812,-6717881 -1828,-6717912 -1833,-6717925 -1838,-6717946 -1841,-6717967 -1841,-6717977 -1841,-6717980 -1837,-6718027 -1836,-6718070 -1847,-6718148 -1861,-6718187 -1871,-6718244 -1871,-6718263 -1875,-6718287 -1876,-6718319 -1879,-6718368 -1887,-6718441 -1895,-6718488 -1914,-6718591 -1927,-6718651 -1940,-6718724 -1945,-6718745 -1958,-6718792 -1992,-6718877 -2022,-6718976 -2038,-6719058 -2081,-6719172 -2098,-6719216 -2105,-6719251 -2106,-6719283 -2103,-6719315 -2101,-6719340 -2095,-6719369 -2094,-6719398 -2099,-6719420 -2108,-6719441 -2111,-6719452 -2009,-6719447 -1908,-6719447 -1905,-6719423 -1904,-6719413 -1886,-6719416 -1885,-6719423 -1883,-6719448 -1744,-6719472 -1598,-6719501 -1514,-6719520 -1484,-6719527 -1460,-6719533 -1437,-6719540 -1374,-6719562 -1312,-6719583 -1300,-6719589 -1234,-6719620 -1209,-6719634 -1202,-6719635 -1189,-6719636 -1176,-6719634 -1162,-6719630 -1155,-6719627 -1135,-6719615 -1106,-6719595 -1085,-6719582 -1051,-6719562 -1024,-6719487 -1020,-6719466 -1017,-6719438 -1018,-6719392 -1017,-6719361 -1014,-6719325 -1003,-6719276 -986,-6719219 -971,-6719156 -963,-6719152 -962,-6719152 -948,-6719152 -930,-6719158 -889,-6719174 -775,-6719213 -698,-6719237 -663,-6719252 -632,-6719268 -560,-6719307 -422,-6719371 -404,-6719329 -290,-6719379 -175,-6719429 -121,-6719448 -102,-6719454 -36,-6719473 39,-6719486 144,-6719503 236,-6719515 280,-6719523 346,-6719540 356,-6719517 362,-6719504 399,-6719513 425,-6719520 427,-6719511 430,-6719488 557,-6719504 557,-6719504 553,-6719545 579,-6719547 585,-6719492 587,-6719492 641,-6719498 649,-6719464 649,-6719463 647,-6719435 644,-6719386 639,-6719359 625,-6719314 615,-6719283 646,-6719281 762,-6719322 844,-6719345 859,-6719348 910,-6719355 1061,-6719386 1055,-6719414 1061,-6719424 1076,-6719448 1127,-6719489 1153,-6719515 1207,-6719570 1074,-6719780 1239,-6719952 1296,-6719866 1553,-6720012 1625,-6720052 1742,-6719872 1750,-6719856 1780,-6719802 1812,-6719742 1864,-6719772 1889,-6719735 1999,-6719808 2071,-6719860 2160,-6719899 2155,-6719914 2237,-6719954 2399,-6720038 2366,-6720085 2376,-6720091 2267,-6720287 2284,-6720276 2327,-6720284 2377,-6720290 2427,-6720281 2469,-6720274 2505,-6720269 2508,-6720348 2516,-6720364 2540,-6720383 2569,-6720396 2580,-6720394 2589,-6720390 2595,-6720387 2602,-6720381 2610,-6720373 2617,-6720362 2622,-6720353 2624,-6720346 2626,-6720329 2625,-6720219 2641,-6720171 2648,-6720155 2753,-6720161 2816,-6720158 2818,-6720010 2824,-6719892 2977,-6719927 3069,-6719942 3139,-6719950 3202,-6719955 3228,-6719953 3257,-6719948 3279,-6719941 3443,-6719963 3537,-6719979 3585,-6719984 3598,-6719987 3677,-6720018 3723,-6720035 3767,-6720053 3796,-6720064 3881,-6720093 3900,-6720099 3937,-6720106 3945,-6720105 4022,-6720103 4140,-6720092 4241,-6720084 4369,-6720071 4467,-6720062 4581,-6720054 4623,-6720052 4650,-6720057 4676,-6720070 4860,-6720055 5044,-6720038 5138,-6720031 5157,-6720027 5155,-6720057 5147,-6720080 5133,-6720113 5108,-6720157 5061,-6720237 5017,-6720313 4993,-6720357 4973,-6720397 4962,-6720436 4951,-6720491 4945,-6720519 4921,-6720543 4907,-6720557 4844,-6720611 4773,-6720664 4792,-6720678 4771,-6720791 4739,-6720921 4706,-6721075 4688,-6721159 4670,-6721215 4711,-6721234 4748,-6721254 4869,-6721310 4889,-6721322 4968,-6721358 5080,-6721416 5155,-6721450 5228,-6721489 5283,-6721513 5355,-6721549 5418,-6721582 5604,-6721669 5614,-6721642 5640,-6721550 5649,-6721531 5678,-6721476 5721,-6721371 5736,-6721350 5759,-6721329 5795,-6721307 5825,-6721291 5847,-6721277 5853,-6721262 5858,-6721255 5863,-6721250 5869,-6721246 5875,-6721244 5881,-6721242 5895,-6721240 5904,-6721237 5910,-6721233 5914,-6721229 5921,-6721220 5941,-6721178 5948,-6721162 5954,-6721152 5960,-6721144 5966,-6721138 5979,-6721128 5989,-6721121 6004,-6721115 6025,-6721109 6027,-6721090 6025,-6721076 6026,-6721067 6027,-6721059 6030,-6721051 6035,-6721043 6041,-6721035 6052,-6721026 6059,-6721012 6055,-6720971 6051,-6720955 6050,-6720940 6051,-6720932 6053,-6720922 6059,-6720907 6062,-6720899 6065,-6720892 6071,-6720886 6079,-6720881 6086,-6720879 6095,-6720878 6120,-6720870 6150,-6720859 6165,-6720857 6179,-6720853 6192,-6720846 6204,-6720837 6212,-6720826 6243,-6720796 6273,-6720759 6274,-6720754 6273,-6720747 6270,-6720739 6263,-6720729 6263,-6720725 6264,-6720715 6267,-6720707 6270,-6720703 6274,-6720701" stroke="white" stroke-width="25" /></ns0:svg>    <rect x="20" y="50"  width="250" height="25"  rx="0"  fill="#E8EDEE" fill-opacity="0.8" />    <text x="145" y="70" text-anchor="middle" font-family="Frutiger" font-weight="bold" font-size="30" fill="#AE2573">Newham</text>    <rect x="35" y="195" width="220" height="160" rx="15" fill="#724F95"/>    <g font-family="Frutiger" font-size="15" fill="white">        <g> <text x="45" y="218">Self-harm</text> <text x="245" y="218" text-anchor="end">3</text> </g>        <g> <text x="45" y="243">SEN</text> <text x="245" y="243" text-anchor="end">26</text> </g>        <g> <text x="45" y="268">Difficulties</text> <text x="245" y="268" text-anchor="end">69</text> </g>        <g> <text x="45" y="293">Child Carer</text> <text x="245" y="293" text-anchor="end">11</text> </g>        <g> <text x="45" y="318">Drinkers</text> <text x="245" y="318" text-anchor="end">0</text> </g>        <g> <text x="45" y="343">Safeguarding £</text> <text x="245" y="343" text-anchor="end">26</text> </g>    </g></svg>