<?xml version="1.0" standalone="no"?>
<!DOCTYPE svg PUBLIC "-//W3C//DTD SVG 1.1//EN"
"http://www.w3.org/Graphics/SVG/1.1/DTD/svg11.dtd">
<svg height="115" version="1.1" viewBox="-154040 -7309094 26297 20311" width="220" xmlns="http://www.w3.org/2000/svg"><polygon fill="#003087" points=" -141203,-7308891 -141178,-7308886 -141169,-7308889 -141152,-7308910 -141147,-7308919 -141129,-7309005 -141124,-7309016 -141116,-7309024 -141112,-7309028 -141099,-7309033 -141086,-7309035 -141072,-7309034 -140997,-7309019 -140950,-7309003 -140918,-7308990 -140896,-7308969 -140822,-7308884 -140815,-7308878 -140806,-7308872 -140797,-7308868 -140786,-7308865 -140772,-7308863 -140757,-7308863 -140744,-7308865 -140732,-7308869 -140724,-7308873 -140710,-7308885 -140701,-7308896 -140700,-7308899 -140693,-7308925 -140689,-7308932 -140682,-7308940 -140675,-7308947 -140662,-7308953 -140621,-7308957 -140602,-7308957 -140581,-7308948 -140580,-7308919 -140525,-7308902 -140508,-7308879 -140486,-7308868 -140462,-7308857 -140397,-7308836 -140376,-7308827 -140365,-7308828 -140327,-7308816 -140313,-7308819 -140166,-7308859 -140121,-7308876 -140102,-7308879 -140133,-7308756 -139989,-7308792 -139987,-7308782 -139978,-7308781 -139939,-7308588 -139914,-7308471 -139901,-7308414 -139888,-7308369 -139844,-7308222 -139828,-7308181 -139813,-7308141 -139779,-7308067 -139767,-7308043 -139752,-7308015 -139735,-7307988 -139712,-7307958 -139607,-7307826 -139565,-7307783 -139547,-7307771 -139522,-7307759 -139487,-7307718 -139445,-7307685 -139356,-7307639 -139307,-7307662 -139267,-7307682 -139215,-7307721 -139012,-7307853 -138936,-7308039 -138883,-7308176 -138681,-7308154 -138573,-7308109 -138483,-7308016 -138460,-7308029 -138450,-7308043 -138397,-7308107 -138352,-7308148 -138316,-7308180 -138251,-7308237 -138003,-7308452 -137987,-7308432 -137939,-7308400 -137898,-7308370 -137842,-7308325 -137808,-7308293 -137801,-7308289 -137680,-7308235 -137649,-7308218 -137633,-7308207 -137622,-7308197 -137609,-7308186 -137597,-7308173 -137588,-7308162 -137532,-7308077 -137519,-7308064 -137507,-7308056 -137450,-7308036 -137438,-7308031 -137425,-7308023 -137415,-7308015 -137395,-7307999 -137393,-7307996 -137346,-7307923 -137322,-7307889 -137302,-7307863 -137240,-7307800 -137161,-7307731 -137131,-7307703 -137111,-7307686 -137089,-7307673 -137057,-7307658 -137036,-7307645 -137019,-7307633 -137003,-7307620 -136986,-7307602 -136978,-7307593 -136962,-7307568 -136897,-7307443 -136884,-7307425 -136878,-7307420 -136850,-7307398 -136818,-7307377 -136705,-7307327 -136641,-7307297 -136621,-7307289 -136612,-7307284 -136602,-7307277 -136593,-7307269 -136407,-7307116 -136407,-7307115 -136379,-7307100 -136359,-7307088 -136306,-7307060 -136293,-7307052 -136279,-7307043 -136249,-7307019 -136231,-7307007 -136196,-7306984 -136142,-7306951 -136108,-7306928 -136036,-7306864 -135986,-7306818 -135919,-7306756 -135876,-7306714 -135850,-7306695 -135837,-7306687 -135824,-7306680 -135698,-7306621 -135624,-7306593 -135615,-7306589 -135604,-7306569 -135573,-7306537 -135500,-7306499 -135476,-7306490 -135450,-7306483 -135417,-7306475 -135404,-7306474 -135398,-7306475 -135389,-7306482 -135383,-7306501 -135381,-7306507 -135377,-7306511 -135373,-7306515 -135361,-7306516 -135348,-7306509 -135294,-7306474 -135161,-7306349 -135114,-7306312 -135090,-7306289 -135070,-7306276 -135044,-7306267 -135022,-7306257 -135001,-7306239 -134985,-7306204 -134978,-7306191 -134971,-7306179 -134957,-7306163 -134940,-7306153 -134858,-7306147 -134836,-7306143 -134817,-7306137 -134783,-7306097 -134751,-7306052 -134712,-7306005 -134670,-7305967 -134647,-7305913 -134632,-7305885 -134608,-7305851 -134584,-7305825 -134559,-7305807 -134521,-7305786 -134492,-7305772 -134478,-7305764 -134463,-7305754 -134452,-7305747 -134383,-7305699 -134364,-7305691 -134300,-7305651 -134277,-7305630 -134259,-7305609 -134225,-7305576 -134194,-7305530 -134174,-7305507 -134150,-7305486 -134109,-7305459 -134089,-7305448 -134056,-7305434 -133988,-7305410 -133976,-7305407 -133954,-7305405 -133937,-7305398 -133894,-7305366 -133870,-7305352 -133815,-7305316 -133795,-7305306 -133757,-7305283 -133673,-7305214 -133615,-7305164 -133563,-7305130 -133512,-7305101 -133373,-7305039 -133281,-7305012 -133184,-7304953 -133066,-7304881 -133056,-7304928 -133032,-7304938 -133019,-7304978 -133064,-7305023 -133042,-7305040 -133028,-7305028 -133013,-7305033 -133004,-7305024 -132996,-7304997 -133005,-7304983 -132998,-7304975 -132975,-7304969 -132952,-7304955 -132922,-7304924 -132916,-7304914 -132905,-7304913 -132887,-7304897 -132882,-7304886 -132865,-7304843 -132844,-7304875 -132812,-7304888 -132800,-7304926 -132784,-7304896 -132760,-7304895 -132767,-7304844 -132745,-7304848 -132735,-7304848 -132723,-7304852 -132711,-7304844 -132704,-7304861 -132693,-7304868 -132662,-7304883 -132653,-7304873 -132635,-7304877 -132631,-7304871 -132630,-7304859 -132624,-7304848 -132624,-7304841 -132631,-7304832 -132669,-7304812 -132670,-7304811 -132669,-7304796 -132653,-7304783 -132618,-7304796 -132611,-7304771 -132602,-7304748 -132598,-7304730 -132597,-7304707 -132625,-7304705 -132630,-7304698 -132615,-7304669 -132616,-7304664 -132623,-7304652 -132621,-7304645 -132630,-7304636 -132644,-7304627 -132630,-7304608 -132618,-7304608 -132591,-7304581 -132551,-7304558 -132500,-7304584 -132503,-7304562 -132524,-7304555 -132527,-7304537 -132513,-7304534 -132492,-7304543 -132470,-7304551 -132405,-7304558 -132379,-7304566 -132351,-7304608 -132352,-7304588 -132367,-7304552 -132318,-7304609 -132294,-7304667 -132296,-7304690 -132289,-7304703 -132302,-7304710 -132306,-7304768 -132290,-7304780 -132289,-7304792 -132270,-7304809 -132262,-7304819 -132251,-7304823 -132252,-7304838 -132243,-7304843 -132229,-7304841 -132213,-7304841 -132172,-7304828 -132133,-7304821 -132121,-7304807 -132118,-7304798 -132109,-7304786 -132107,-7304774 -132108,-7304760 -132096,-7304733 -132090,-7304726 -132082,-7304719 -132067,-7304707 -132057,-7304702 -132027,-7304717 -132013,-7304690 -132014,-7304681 -132022,-7304679 -132040,-7304675 -132049,-7304675 -132067,-7304675 -132074,-7304677 -132082,-7304679 -132101,-7304700 -132108,-7304703 -132115,-7304697 -132120,-7304686 -132117,-7304670 -132118,-7304664 -132108,-7304649 -132101,-7304652 -132100,-7304659 -132090,-7304666 -132082,-7304662 -132077,-7304656 -132059,-7304656 -132052,-7304649 -132040,-7304648 -132031,-7304642 -132020,-7304642 -132004,-7304621 -132002,-7304619 -131994,-7304615 -131989,-7304606 -131991,-7304599 -132000,-7304595 -132013,-7304598 -132016,-7304599 -132018,-7304597 -132020,-7304595 -132021,-7304582 -132028,-7304577 -132036,-7304577 -132039,-7304583 -132042,-7304589 -132044,-7304606 -132045,-7304610 -132067,-7304596 -132067,-7304577 -132072,-7304566 -132065,-7304565 -132054,-7304558 -132051,-7304554 -132047,-7304538 -132047,-7304537 -132076,-7304517 -132075,-7304501 -132085,-7304477 -132082,-7304468 -132081,-7304467 -132051,-7304471 -132057,-7304488 -132053,-7304491 -132036,-7304500 -132025,-7304518 -131995,-7304532 -131987,-7304534 -131982,-7304519 -131995,-7304503 -131986,-7304456 -131988,-7304444 -131991,-7304432 -131983,-7304430 -131974,-7304416 -132000,-7304394 -132002,-7304381 -131992,-7304370 -131976,-7304382 -131968,-7304373 -131969,-7304358 -131956,-7304342 -131950,-7304343 -131939,-7304329 -131945,-7304321 -131931,-7304300 -131937,-7304289 -131927,-7304275 -131910,-7304267 -131885,-7304284 -131863,-7304275 -131855,-7304261 -131855,-7304249 -131831,-7304224 -131811,-7304229 -131804,-7304236 -131806,-7304274 -131818,-7304275 -131823,-7304304 -131817,-7304317 -131821,-7304332 -131818,-7304338 -131815,-7304343 -131805,-7304350 -131798,-7304359 -131786,-7304368 -131762,-7304356 -131757,-7304365 -131755,-7304378 -131754,-7304382 -131740,-7304387 -131733,-7304379 -131727,-7304368 -131706,-7304352 -131720,-7304333 -131708,-7304320 -131704,-7304320 -131681,-7304339 -131666,-7304339 -131660,-7304332 -131640,-7304340 -131628,-7304339 -131593,-7304369 -131583,-7304371 -131555,-7304392 -131542,-7304388 -131518,-7304402 -131507,-7304402 -131499,-7304384 -131492,-7304374 -131493,-7304364 -131499,-7304356 -131486,-7304346 -131476,-7304345 -131473,-7304360 -131467,-7304371 -131487,-7304392 -131485,-7304404 -131492,-7304416 -131485,-7304430 -131491,-7304443 -131493,-7304457 -131499,-7304488 -131502,-7304501 -131497,-7304509 -131492,-7304512 -131486,-7304513 -131475,-7304510 -131451,-7304475 -131463,-7304459 -131454,-7304436 -131438,-7304418 -131438,-7304414 -131438,-7304409 -131442,-7304400 -131443,-7304379 -131447,-7304369 -131447,-7304361 -131447,-7304353 -131442,-7304341 -131464,-7304305 -131455,-7304299 -131422,-7304329 -131409,-7304335 -131400,-7304334 -131397,-7304324 -131388,-7304317 -131378,-7304325 -131376,-7304323 -131373,-7304318 -131372,-7304314 -131392,-7304278 -131402,-7304266 -131432,-7304249 -131447,-7304253 -131472,-7304237 -131474,-7304225 -131470,-7304207 -131458,-7304195 -131463,-7304186 -131452,-7304173 -131440,-7304169 -131432,-7304176 -131428,-7304184 -131414,-7304201 -131387,-7304192 -131379,-7304190 -131360,-7304203 -131345,-7304199 -131333,-7304202 -131324,-7304193 -131324,-7304182 -131322,-7304171 -131329,-7304156 -131320,-7304140 -131301,-7304119 -131297,-7304112 -131307,-7304105 -131310,-7304104 -131319,-7304106 -131323,-7304103 -131312,-7304081 -131309,-7304070 -131305,-7304066 -131286,-7304055 -131284,-7304044 -131272,-7304044 -131262,-7304037 -131260,-7304025 -131254,-7304025 -131233,-7304051 -131215,-7304066 -131203,-7304060 -131195,-7304064 -131187,-7304062 -131183,-7304057 -131185,-7304049 -131191,-7304043 -131197,-7304036 -131207,-7304028 -131213,-7304030 -131217,-7304030 -131232,-7304010 -131222,-7304004 -131215,-7304007 -131210,-7304003 -131206,-7303999 -131205,-7303990 -131186,-7303983 -131183,-7303972 -131179,-7303971 -131174,-7303971 -131154,-7303995 -131155,-7304004 -131148,-7304020 -131148,-7304035 -131144,-7304048 -131147,-7304054 -131144,-7304071 -131150,-7304080 -131146,-7304089 -131135,-7304097 -131120,-7304092 -131108,-7304090 -131094,-7304106 -131078,-7304098 -131063,-7304085 -131055,-7304071 -131076,-7304044 -131088,-7304026 -131076,-7304015 -131065,-7304003 -131055,-7303995 -131036,-7303974 -131030,-7303962 -131028,-7303949 -131043,-7303943 -131053,-7303944 -131058,-7303954 -131070,-7303966 -131076,-7303970 -131093,-7303979 -131099,-7303986 -131107,-7303991 -131120,-7303979 -131132,-7303941 -131122,-7303927 -131108,-7303913 -131103,-7303910 -131097,-7303906 -131088,-7303903 -131071,-7303898 -131063,-7303897 -131049,-7303901 -131046,-7303906 -131048,-7303916 -131043,-7303926 -131025,-7303939 -131011,-7303927 -131015,-7303916 -131011,-7303907 -131020,-7303895 -131060,-7303859 -131075,-7303860 -131087,-7303853 -131096,-7303858 -131102,-7303860 -131108,-7303861 -131120,-7303855 -131133,-7303860 -131152,-7303837 -131146,-7303834 -131136,-7303833 -131124,-7303828 -131120,-7303819 -131107,-7303816 -131094,-7303807 -131082,-7303813 -131072,-7303807 -131077,-7303790 -131075,-7303783 -131079,-7303770 -131076,-7303763 -131063,-7303746 -131053,-7303739 -131038,-7303746 -131030,-7303738 -131028,-7303726 -131015,-7303725 -131014,-7303720 -131013,-7303715 -131023,-7303697 -131030,-7303668 -131024,-7303666 -131019,-7303656 -131018,-7303647 -131012,-7303615 -130999,-7303601 -130985,-7303592 -130980,-7303585 -130963,-7303563 -130952,-7303552 -130949,-7303555 -130947,-7303564 -130952,-7303587 -130926,-7303599 -130912,-7303549 -130911,-7303537 -130902,-7303539 -130895,-7303534 -130895,-7303518 -130885,-7303519 -130881,-7303514 -130877,-7303509 -130879,-7303498 -130873,-7303493 -130861,-7303498 -130852,-7303495 -130847,-7303502 -130845,-7303514 -130831,-7303519 -130816,-7303498 -130813,-7303487 -130814,-7303478 -130822,-7303468 -130822,-7303452 -130829,-7303440 -130811,-7303415 -130809,-7303405 -130791,-7303405 -130783,-7303397 -130784,-7303389 -130800,-7303381 -130802,-7303369 -130806,-7303361 -130807,-7303352 -130812,-7303342 -130806,-7303336 -130803,-7303321 -130810,-7303306 -130812,-7303289 -130811,-7303281 -130809,-7303275 -130801,-7303269 -130797,-7303256 -130777,-7303226 -130776,-7303207 -130762,-7303204 -130758,-7303187 -130747,-7303185 -130748,-7303178 -130749,-7303171 -130741,-7303138 -130769,-7303145 -130766,-7303122 -130760,-7303095 -130763,-7303077 -130782,-7303078 -130783,-7303089 -130810,-7303089 -130812,-7303079 -130813,-7303068 -130808,-7303056 -130786,-7303048 -130782,-7303040 -130772,-7303036 -130773,-7303026 -130774,-7303025 -130799,-7303022 -130806,-7303002 -130836,-7302999 -130837,-7302988 -130849,-7302982 -130851,-7302939 -130840,-7302940 -130834,-7302948 -130818,-7302944 -130818,-7302936 -130819,-7302926 -130824,-7302908 -130832,-7302893 -130844,-7302882 -130858,-7302882 -130862,-7302867 -130868,-7302861 -130866,-7302854 -130858,-7302842 -130859,-7302816 -130860,-7302807 -130842,-7302799 -130831,-7302803 -130818,-7302790 -130802,-7302793 -130795,-7302784 -130802,-7302774 -130814,-7302764 -130816,-7302745 -130823,-7302744 -130851,-7302741 -130859,-7302739 -130863,-7302733 -130857,-7302709 -130860,-7302703 -130869,-7302701 -130878,-7302710 -130886,-7302701 -130875,-7302687 -130862,-7302671 -130861,-7302668 -130860,-7302662 -130858,-7302653 -130858,-7302652 -130868,-7302639 -130861,-7302626 -130859,-7302622 -130850,-7302623 -130842,-7302600 -130846,-7302586 -130848,-7302579 -130767,-7302448 -130671,-7302294 -130683,-7302286 -130686,-7302283 -130825,-7302516 -130860,-7302566 -130896,-7302609 -130929,-7302639 -130955,-7302681 -130986,-7302708 -131032,-7302723 -131077,-7302723 -131105,-7302719 -131155,-7302698 -131143,-7302666 -131157,-7302639 -131191,-7302632 -131219,-7302568 -131199,-7302557 -131159,-7302563 -131149,-7302537 -131169,-7302532 -131166,-7302480 -131179,-7302473 -131226,-7302504 -131229,-7302489 -131240,-7302489 -131251,-7302512 -131285,-7302479 -131341,-7302481 -131371,-7302499 -131408,-7302516 -131499,-7302514 -131555,-7302498 -131609,-7302522 -131626,-7302524 -131632,-7302531 -131654,-7302531 -131668,-7302568 -131686,-7302593 -131720,-7302605 -131704,-7302627 -131764,-7302605 -131824,-7302585 -131841,-7302568 -131868,-7302552 -131895,-7302549 -131917,-7302562 -131926,-7302563 -132236,-7302588 -132237,-7302577 -132243,-7302564 -132252,-7302551 -132270,-7302548 -132284,-7302548 -132300,-7302555 -132320,-7302570 -132336,-7302574 -132363,-7302571 -132392,-7302543 -132456,-7302518 -132528,-7302490 -132561,-7302490 -132595,-7302483 -132659,-7302439 -132660,-7302439 -132679,-7302438 -132704,-7302423 -132756,-7302362 -132792,-7302304 -132842,-7302263 -132869,-7302225 -132893,-7302180 -132896,-7302143 -132907,-7302125 -132950,-7302106 -132976,-7302080 -132977,-7302064 -132962,-7302035 -132946,-7302006 -132929,-7301953 -132894,-7301880 -132854,-7301817 -132827,-7301774 -132791,-7301717 -132759,-7301661 -132760,-7301660 -132764,-7301652 -132816,-7301552 -132820,-7301551 -132830,-7301549 -132852,-7301545 -132910,-7301515 -132917,-7301511 -132924,-7301468 -132934,-7301433 -132948,-7301402 -133050,-7301256 -133083,-7301221 -133118,-7301187 -133158,-7301161 -133189,-7301142 -133229,-7301129 -133246,-7301123 -133278,-7301112 -133301,-7301108 -133343,-7301104 -133356,-7301097 -133363,-7301090 -133365,-7301085 -133367,-7301080 -133377,-7301069 -133382,-7301047 -133384,-7301024 -133387,-7300994 -133386,-7300933 -133387,-7300878 -133389,-7300799 -133386,-7300767 -133382,-7300749 -133390,-7300726 -133394,-7300698 -133392,-7300669 -133382,-7300630 -133369,-7300590 -133370,-7300551 -133349,-7300514 -133343,-7300497 -133331,-7300472 -133318,-7300415 -133315,-7300353 -133317,-7300342 -133324,-7300328 -133324,-7300325 -133324,-7300321 -133321,-7300318 -133318,-7300316 -133310,-7300313 -133299,-7300254 -133292,-7300220 -133292,-7300189 -133289,-7300169 -133269,-7300141 -133261,-7300105 -133243,-7300059 -133243,-7300038 -133237,-7300002 -133242,-7299955 -133228,-7299946 -133230,-7299938 -133234,-7299931 -133224,-7299870 -133194,-7299835 -133177,-7299804 -133130,-7299733 -133072,-7299646 -133065,-7299627 -133052,-7299596 -133045,-7299578 -132991,-7299427 -132962,-7299351 -132899,-7299262 -132829,-7299175 -132711,-7299041 -132646,-7298958 -132608,-7298925 -132596,-7298909 -132556,-7298860 -132543,-7298844 -132537,-7298822 -132535,-7298813 -132535,-7298807 -132537,-7298801 -132546,-7298793 -132566,-7298789 -132583,-7298790 -132616,-7298814 -132620,-7298816 -132626,-7298816 -132632,-7298816 -132633,-7298815 -132635,-7298812 -132635,-7298810 -132631,-7298802 -132626,-7298795 -132620,-7298787 -132612,-7298779 -132588,-7298759 -132577,-7298747 -132568,-7298743 -132557,-7298741 -132551,-7298738 -132525,-7298725 -132519,-7298724 -132513,-7298725 -132508,-7298730 -132501,-7298740 -132492,-7298744 -132483,-7298745 -132471,-7298741 -132461,-7298736 -132414,-7298710 -132392,-7298703 -132377,-7298695 -132306,-7298677 -132299,-7298674 -132292,-7298670 -132272,-7298653 -132257,-7298637 -132238,-7298599 -132222,-7298574 -132213,-7298555 -132210,-7298542 -132206,-7298511 -132208,-7298483 -132217,-7298442 -132232,-7298407 -132238,-7298390 -132239,-7298382 -132239,-7298366 -132234,-7298327 -132225,-7298285 -132213,-7298247 -132204,-7298221 -132192,-7298193 -132191,-7298085 -132182,-7298047 -132169,-7297956 -132156,-7297917 -132150,-7297897 -132147,-7297897 -132143,-7297897 -132129,-7297902 -132098,-7297936 -132087,-7297927 -132067,-7297942 -132054,-7297942 -132056,-7297935 -132077,-7297901 -132069,-7297885 -132067,-7297883 -132039,-7297889 -132036,-7297889 -132033,-7297888 -132026,-7297879 -132010,-7297888 -132005,-7297876 -132022,-7297857 -132038,-7297848 -132049,-7297826 -132050,-7297807 -132049,-7297791 -132062,-7297779 -132075,-7297766 -132083,-7297777 -132085,-7297786 -132090,-7297786 -132100,-7297778 -132094,-7297767 -132094,-7297759 -132081,-7297752 -132083,-7297742 -132089,-7297733 -132088,-7297728 -132076,-7297732 -132049,-7297747 -132045,-7297740 -132049,-7297732 -132070,-7297711 -132065,-7297694 -132070,-7297682 -132067,-7297670 -132072,-7297662 -132071,-7297620 -132070,-7297605 -132061,-7297577 -132051,-7297569 -132012,-7297539 -131952,-7297482 -131905,-7297432 -131869,-7297432 -131858,-7297424 -131854,-7297408 -131829,-7297406 -131828,-7297405 -131829,-7297395 -131899,-7297391 -131927,-7297388 -131938,-7297393 -131955,-7297403 -131971,-7297415 -131983,-7297416 -131991,-7297410 -131971,-7297384 -131954,-7297348 -131949,-7297332 -131947,-7297324 -131947,-7297317 -131948,-7297304 -131908,-7297198 -131815,-7297041 -131797,-7297020 -131787,-7297008 -131781,-7296982 -131781,-7296961 -131783,-7296946 -131793,-7296931 -131827,-7296894 -131829,-7296887 -131827,-7296876 -131826,-7296875 -131770,-7296884 -131762,-7296884 -131755,-7296883 -131741,-7296879 -131730,-7296871 -131726,-7296863 -131694,-7296792 -131666,-7296738 -131621,-7296633 -131598,-7296605 -131588,-7296584 -131581,-7296563 -131568,-7296535 -131512,-7296439 -131509,-7296434 -131487,-7296392 -131458,-7296346 -131442,-7296324 -131414,-7296274 -131406,-7296250 -131404,-7296240 -131404,-7296231 -131406,-7296211 -131409,-7296200 -131422,-7296173 -131426,-7296164 -131428,-7296156 -131428,-7296150 -131427,-7296143 -131415,-7296120 -131405,-7296097 -131381,-7296125 -131374,-7296129 -131370,-7296124 -131368,-7296102 -131366,-7296092 -131360,-7296084 -131327,-7296050 -131314,-7296045 -131299,-7296048 -131291,-7296054 -131284,-7296060 -131277,-7296068 -131262,-7296088 -131251,-7296090 -131237,-7296086 -131217,-7296070 -131187,-7296049 -131176,-7296039 -131153,-7296015 -131120,-7295976 -131089,-7295928 -131069,-7295887 -131064,-7295870 -131064,-7295848 -131071,-7295843 -131076,-7295842 -131081,-7295842 -131092,-7295844 -131097,-7295843 -131101,-7295841 -131103,-7295829 -131089,-7295818 -131066,-7295785 -131044,-7295757 -131038,-7295748 -131028,-7295723 -131023,-7295698 -131020,-7295674 -131012,-7295653 -130961,-7295572 -130952,-7295561 -130887,-7295487 -130864,-7295467 -130859,-7295459 -130854,-7295452 -130837,-7295403 -130821,-7295380 -130803,-7295359 -130782,-7295341 -130742,-7295302 -130734,-7295291 -130706,-7295246 -130698,-7295234 -130677,-7295207 -130631,-7295167 -130624,-7295162 -130560,-7295122 -130541,-7295106 -130522,-7295087 -130413,-7294958 -130367,-7294911 -130317,-7294864 -130296,-7294848 -130188,-7294760 -130173,-7294747 -130156,-7294740 -130132,-7294727 -130116,-7294715 -130103,-7294694 -130067,-7294664 -129985,-7294583 -129945,-7294548 -129915,-7294518 -129890,-7294498 -129857,-7294477 -129835,-7294461 -129823,-7294452 -129813,-7294443 -129804,-7294433 -129776,-7294401 -129740,-7294352 -129726,-7294334 -129636,-7294234 -129604,-7294196 -129577,-7294168 -129541,-7294130 -129468,-7294067 -129425,-7294036 -129360,-7293980 -129324,-7293952 -129311,-7293943 -129286,-7293929 -129257,-7293918 -129212,-7293907 -129163,-7293901 -129120,-7293892 -129030,-7293878 -128885,-7293920 -128722,-7293909 -128519,-7293896 -127927,-7293858 -127743,-7293845 -127751,-7293810 -127776,-7293751 -127786,-7293738 -127821,-7293694 -127884,-7293641 -127930,-7293605 -127955,-7293586 -127996,-7293558 -128049,-7293519 -128197,-7293425 -128233,-7293407 -128283,-7293370 -128322,-7293334 -128347,-7293301 -128354,-7293282 -128361,-7293256 -128357,-7293179 -128351,-7293139 -128348,-7293089 -128340,-7293020 -128328,-7292952 -128313,-7292883 -128279,-7292694 -128269,-7292647 -128251,-7292513 -128244,-7292442 -128242,-7292416 -128240,-7292305 -128248,-7292221 -128255,-7292175 -128257,-7292132 -128301,-7291947 -128323,-7291875 -128371,-7291749 -128380,-7291728 -128401,-7291688 -128414,-7291648 -128443,-7291581 -128467,-7291512 -128550,-7291296 -128572,-7291248 -128614,-7291172 -128638,-7291131 -128709,-7290983 -128734,-7290946 -128774,-7290890 -128813,-7290840 -128818,-7290832 -128826,-7290814 -128830,-7290805 -128834,-7290780 -128851,-7290704 -128860,-7290663 -128866,-7290613 -128869,-7290558 -128884,-7290472 -128897,-7290378 -128906,-7290287 -129015,-7290289 -129048,-7290293 -129083,-7290290 -129141,-7290291 -129198,-7290295 -129304,-7290317 -129338,-7290319 -129384,-7290325 -129445,-7290337 -129497,-7290350 -129610,-7290381 -129720,-7290430 -129781,-7290454 -129847,-7290485 -129956,-7290530 -129997,-7290547 -130068,-7290573 -130209,-7290627 -130313,-7290651 -130356,-7290670 -130405,-7290688 -130508,-7290716 -130564,-7290730 -130603,-7290738 -130642,-7290743 -130663,-7290746 -130688,-7290745 -130713,-7290744 -130804,-7290737 -130951,-7290717 -130997,-7290715 -131033,-7290716 -131050,-7290717 -131077,-7290723 -131107,-7290737 -131122,-7290743 -131137,-7290748 -131162,-7290755 -131177,-7290755 -131241,-7290753 -131334,-7290756 -131487,-7290741 -131581,-7290734 -131648,-7290732 -131757,-7290733 -131834,-7290739 -131874,-7290740 -131941,-7290736 -131973,-7290730 -132069,-7290721 -132144,-7290718 -132171,-7290716 -132207,-7290702 -132233,-7290686 -132255,-7290668 -132297,-7290617 -132307,-7290599 -132328,-7290577 -132359,-7290548 -132388,-7290516 -132416,-7290491 -132506,-7290432 -132523,-7290407 -132535,-7290382 -132561,-7290333 -132593,-7290285 -132627,-7290216 -132631,-7290202 -132632,-7290178 -132629,-7290163 -132617,-7290138 -132597,-7290116 -132558,-7290066 -132542,-7290048 -132529,-7290010 -132525,-7289988 -132524,-7289974 -132523,-7289961 -132525,-7289936 -132534,-7289902 -132541,-7289886 -132549,-7289869 -132570,-7289833 -132603,-7289794 -132645,-7289755 -132689,-7289709 -132849,-7289527 -132912,-7289462 -132960,-7289402 -132978,-7289387 -132996,-7289374 -133107,-7289300 -133237,-7289206 -133284,-7289179 -133301,-7289167 -133409,-7289112 -133511,-7289058 -133543,-7289041 -133604,-7289017 -133648,-7289013 -133725,-7289011 -133783,-7289004 -133863,-7288988 -133936,-7288978 -133993,-7288968 -134103,-7288939 -134190,-7288912 -134254,-7288889 -134406,-7288832 -134436,-7288820 -134483,-7288808 -134501,-7288804 -134562,-7288795 -134629,-7288786 -134669,-7288783 -134732,-7288784 -134753,-7288785 -134815,-7288791 -134860,-7288793 -134951,-7288792 -134989,-7288794 -134989,-7288794 -135010,-7288799 -135029,-7288810 -135037,-7288817 -135056,-7288837 -135113,-7288915 -135137,-7288948 -135166,-7288988 -135213,-7289040 -135233,-7289055 -135264,-7289076 -135292,-7289087 -135328,-7289094 -135341,-7289094 -135389,-7289082 -135496,-7289057 -135643,-7289023 -135676,-7289017 -135706,-7289018 -135739,-7289027 -135791,-7289055 -135816,-7289078 -135832,-7289099 -135848,-7289124 -135856,-7289147 -135849,-7289172 -135833,-7289215 -135789,-7289305 -135780,-7289333 -135779,-7289365 -135788,-7289396 -135790,-7289405 -135809,-7289433 -135822,-7289446 -135840,-7289455 -135855,-7289457 -135882,-7289454 -135911,-7289441 -135936,-7289434 -135976,-7289424 -136005,-7289394 -136027,-7289377 -136036,-7289364 -136054,-7289298 -136079,-7289245 -136102,-7289211 -136131,-7289180 -136150,-7289164 -136174,-7289155 -136192,-7289153 -136220,-7289152 -136246,-7289160 -136254,-7289166 -136277,-7289190 -136296,-7289216 -136312,-7289245 -136320,-7289265 -136318,-7289295 -136305,-7289344 -136301,-7289389 -136305,-7289426 -136311,-7289451 -136332,-7289474 -136345,-7289482 -136360,-7289486 -136360,-7289495 -136357,-7289502 -136344,-7289520 -136324,-7289528 -136280,-7289535 -136217,-7289535 -136156,-7289539 -136133,-7289546 -136103,-7289575 -136095,-7289588 -136094,-7289604 -136099,-7289623 -136104,-7289633 -136121,-7289653 -136137,-7289664 -136165,-7289686 -136186,-7289694 -136204,-7289695 -136233,-7289687 -136266,-7289674 -136308,-7289653 -136311,-7289651 -136329,-7289640 -136333,-7289637 -136362,-7289610 -136379,-7289586 -136386,-7289573 -136422,-7289495 -136422,-7289475 -136459,-7289467 -136480,-7289466 -136500,-7289474 -136508,-7289484 -136511,-7289509 -136509,-7289534 -136499,-7289573 -136478,-7289618 -136471,-7289652 -136472,-7289678 -136479,-7289703 -136492,-7289726 -136514,-7289752 -136544,-7289781 -136560,-7289789 -136569,-7289793 -136588,-7289794 -136623,-7289786 -136656,-7289772 -136703,-7289746 -136715,-7289738 -136756,-7289712 -136783,-7289691 -136796,-7289675 -136807,-7289656 -136816,-7289629 -136815,-7289599 -136807,-7289567 -136804,-7289550 -136803,-7289509 -136805,-7289489 -136810,-7289462 -136817,-7289444 -136834,-7289433 -136852,-7289429 -136874,-7289432 -136900,-7289432 -136912,-7289436 -136924,-7289445 -136932,-7289464 -136930,-7289487 -136917,-7289518 -136911,-7289542 -136913,-7289580 -136916,-7289600 -136912,-7289613 -136911,-7289625 -136915,-7289642 -136930,-7289667 -136946,-7289682 -136966,-7289688 -136984,-7289686 -137001,-7289678 -137007,-7289670 -137010,-7289663 -137039,-7289605 -137053,-7289587 -137078,-7289561 -137102,-7289543 -137120,-7289538 -137140,-7289540 -137156,-7289543 -137171,-7289554 -137183,-7289570 -137187,-7289583 -137193,-7289620 -137199,-7289647 -137203,-7289732 -137203,-7289779 -137210,-7289800 -137226,-7289824 -137252,-7289847 -137288,-7289886 -137300,-7289912 -137303,-7289929 -137302,-7289946 -137293,-7289972 -137280,-7290004 -137274,-7290026 -137272,-7290050 -137279,-7290072 -137288,-7290088 -137308,-7290123 -137320,-7290136 -137334,-7290148 -137347,-7290158 -137362,-7290164 -137370,-7290167 -137391,-7290169 -137411,-7290162 -137466,-7290138 -137483,-7290138 -137503,-7290140 -137543,-7290145 -137561,-7290143 -137578,-7290140 -137609,-7290129 -137632,-7290109 -137641,-7290100 -137659,-7290090 -137697,-7290073 -137738,-7290054 -137777,-7290038 -137829,-7290016 -137854,-7290011 -137882,-7290008 -137896,-7290002 -137910,-7289989 -137916,-7289975 -137917,-7289955 -137908,-7289931 -137866,-7289880 -137857,-7289863 -137831,-7289815 -137810,-7289793 -137780,-7289777 -137746,-7289753 -137735,-7289739 -137731,-7289724 -137732,-7289702 -137742,-7289696 -137775,-7289696 -137790,-7289705 -137821,-7289717 -137852,-7289719 -137870,-7289717 -137886,-7289711 -137898,-7289694 -137899,-7289674 -137919,-7289650 -137927,-7289633 -137942,-7289614 -137959,-7289598 -137985,-7289581 -138029,-7289559 -138046,-7289544 -138065,-7289517 -138077,-7289498 -138079,-7289469 -138078,-7289418 -138080,-7289404 -138088,-7289383 -138099,-7289373 -138105,-7289367 -138110,-7289365 -138118,-7289365 -138127,-7289368 -138135,-7289371 -138151,-7289384 -138172,-7289415 -138198,-7289449 -138278,-7289490 -138318,-7289508 -138340,-7289515 -138454,-7289520 -138501,-7289538 -138541,-7289569 -138568,-7289583 -138638,-7289617 -138663,-7289626 -138693,-7289626 -138737,-7289608 -138756,-7289605 -138838,-7289604 -138867,-7289598 -138896,-7289576 -138962,-7289517 -138990,-7289510 -139019,-7289509 -139037,-7289504 -139066,-7289475 -139088,-7289467 -139102,-7289467 -139114,-7289474 -139139,-7289480 -139176,-7289474 -139195,-7289475 -139220,-7289488 -139234,-7289482 -139234,-7289481 -139243,-7289475 -139246,-7289473 -139264,-7289428 -139267,-7289409 -139274,-7289395 -139307,-7289361 -139318,-7289355 -139328,-7289348 -139333,-7289347 -139368,-7289319 -139387,-7289291 -139421,-7289223 -139428,-7289218 -139439,-7289218 -139493,-7289239 -139528,-7289240 -139541,-7289243 -139554,-7289249 -139599,-7289253 -139610,-7289251 -139616,-7289248 -139624,-7289241 -139633,-7289217 -139646,-7289204 -139681,-7289195 -139685,-7289192 -139690,-7289174 -139703,-7289157 -139718,-7289143 -139728,-7289122 -139741,-7289112 -139811,-7289110 -139819,-7289117 -139835,-7289124 -139850,-7289127 -139860,-7289127 -139870,-7289122 -139886,-7289109 -139897,-7289106 -139915,-7289121 -139934,-7289133 -139950,-7289145 -139961,-7289163 -139977,-7289207 -140000,-7289228 -140005,-7289253 -140003,-7289268 -139997,-7289268 -139973,-7289246 -139954,-7289295 -139924,-7289368 -139885,-7289448 -139885,-7289456 -139845,-7289544 -139968,-7289602 -140016,-7289633 -140124,-7289702 -140179,-7289550 -140196,-7289488 -140215,-7289421 -140240,-7289389 -140242,-7289382 -140245,-7289346 -140300,-7289358 -140331,-7289362 -140361,-7289356 -140362,-7289356 -140382,-7289359 -140399,-7289373 -140428,-7289386 -140442,-7289401 -140487,-7289402 -140500,-7289408 -140533,-7289385 -140581,-7289366 -140603,-7289352 -140602,-7289325 -140608,-7289315 -140645,-7289316 -140670,-7289314 -140678,-7289307 -140688,-7289289 -140702,-7289285 -140725,-7289294 -140734,-7289292 -140741,-7289277 -140747,-7289273 -140769,-7289272 -140783,-7289275 -140803,-7289274 -140824,-7289271 -140841,-7289271 -140874,-7289274 -140892,-7289272 -140908,-7289268 -140934,-7289265 -140996,-7289263 -141029,-7289259 -141040,-7289261 -141045,-7289273 -141050,-7289295 -141054,-7289318 -141062,-7289341 -141073,-7289347 -141091,-7289341 -141095,-7289338 -141102,-7289355 -141105,-7289373 -141105,-7289493 -141106,-7289540 -141109,-7289618 -141115,-7289628 -141164,-7289582 -141203,-7289551 -141215,-7289549 -141231,-7289623 -141261,-7289691 -141311,-7289663 -141375,-7289626 -141516,-7289540 -141545,-7289523 -141592,-7289490 -141687,-7289565 -141732,-7289595 -141783,-7289613 -141807,-7289615 -141821,-7289636 -141919,-7289734 -141951,-7289768 -141942,-7289777 -142056,-7289857 -142100,-7289876 -142178,-7289902 -142232,-7289925 -142282,-7289950 -142316,-7289972 -142364,-7290012 -142390,-7290030 -142475,-7290048 -142503,-7290049 -142752,-7290009 -142904,-7289986 -142961,-7289977 -143035,-7289975 -143069,-7289961 -143162,-7289936 -143191,-7290038 -143458,-7289925 -143728,-7289806 -143737,-7289825 -143770,-7289896 -143786,-7289921 -143805,-7289972 -143878,-7290144 -143948,-7290109 -143983,-7290104 -144014,-7290093 -144115,-7290043 -144234,-7289994 -144242,-7290021 -144292,-7290005 -144303,-7290003 -144356,-7289991 -144404,-7289987 -144565,-7289992 -144605,-7289997 -144605,-7290001 -144584,-7290155 -144569,-7290288 -144565,-7290325 -144558,-7290490 -144558,-7290607 -144575,-7290765 -144585,-7290858 -144588,-7290944 -144583,-7291051 -144565,-7291138 -144534,-7291260 -144525,-7291277 -144501,-7291382 -144505,-7291393 -144510,-7291391 -144517,-7291390 -144517,-7291445 -144773,-7291498 -144829,-7291504 -144933,-7291504 -145021,-7291492 -145040,-7291500 -145075,-7291543 -145107,-7291588 -145154,-7291636 -145206,-7291668 -145241,-7291679 -145288,-7291687 -145354,-7291688 -145372,-7291694 -145386,-7291681 -145431,-7291698 -145451,-7291697 -145461,-7291707 -145492,-7291721 -145501,-7291732 -145504,-7291743 -145521,-7291757 -145530,-7291767 -145533,-7291777 -145538,-7291790 -145548,-7291800 -145564,-7291826 -145564,-7291834 -145580,-7291862 -145581,-7291882 -145593,-7291895 -145600,-7291903 -145608,-7291917 -145611,-7291934 -145621,-7291954 -145639,-7291959 -145649,-7291975 -145653,-7291990 -145653,-7292001 -145643,-7292020 -145635,-7292034 -145651,-7292063 -145674,-7292076 -145698,-7292102 -145742,-7292146 -145769,-7292159 -145795,-7292183 -145807,-7292204 -145833,-7292249 -145839,-7292263 -145859,-7292278 -145876,-7292282 -145889,-7292286 -145898,-7292292 -145905,-7292314 -145919,-7292336 -145926,-7292343 -145937,-7292356 -145946,-7292367 -145946,-7292377 -145941,-7292415 -145943,-7292427 -145959,-7292438 -145978,-7292446 -145988,-7292449 -146003,-7292453 -146014,-7292463 -146027,-7292477 -146036,-7292502 -146045,-7292523 -146044,-7292538 -146034,-7292546 -146021,-7292541 -146001,-7292523 -145998,-7292521 -145991,-7292519 -145985,-7292518 -145982,-7292519 -145976,-7292523 -145973,-7292527 -145969,-7292536 -145966,-7292544 -145966,-7292550 -145969,-7292587 -145973,-7292622 -145987,-7292665 -146003,-7292681 -146016,-7292676 -146035,-7292676 -146057,-7292687 -146073,-7292704 -146100,-7292722 -146120,-7292732 -146145,-7292764 -146189,-7292811 -146210,-7292824 -146227,-7292817 -146244,-7292823 -146260,-7292842 -146287,-7292856 -146312,-7292871 -146333,-7292892 -146350,-7292915 -146360,-7292945 -146374,-7292953 -146393,-7292957 -146413,-7292971 -146414,-7292983 -146424,-7292995 -146437,-7293028 -146449,-7293039 -146451,-7293048 -146442,-7293062 -146431,-7293069 -146409,-7293074 -146399,-7293085 -146400,-7293096 -146428,-7293139 -146447,-7293162 -146458,-7293170 -146472,-7293197 -146472,-7293219 -146476,-7293228 -146501,-7293273 -146527,-7293299 -146528,-7293307 -146531,-7293313 -146537,-7293315 -146554,-7293304 -146587,-7293286 -146597,-7293272 -146601,-7293249 -146607,-7293239 -146624,-7293231 -146639,-7293232 -146669,-7293269 -146692,-7293318 -146713,-7293316 -146798,-7293310 -146878,-7293298 -146901,-7293286 -146913,-7293286 -146925,-7293281 -146943,-7293264 -146991,-7293265 -147026,-7293253 -147045,-7293247 -147087,-7293229 -147129,-7293200 -147153,-7293188 -147162,-7293182 -147253,-7293203 -147309,-7293203 -147389,-7293217 -147413,-7293222 -147432,-7293226 -147530,-7293259 -147579,-7293273 -147643,-7293290 -147644,-7293240 -147647,-7293227 -147649,-7293215 -147651,-7293181 -147666,-7293167 -147682,-7293158 -147773,-7293176 -147801,-7293173 -147812,-7293167 -147843,-7293163 -147873,-7293139 -147908,-7293103 -147928,-7293078 -147941,-7293020 -147944,-7292984 -147964,-7292947 -147993,-7292904 -147991,-7292870 -147976,-7292800 -147976,-7292704 -147978,-7292682 -147971,-7292396 -147962,-7292349 -147961,-7292311 -147956,-7292273 -147956,-7292203 -147953,-7292088 -147951,-7292034 -147952,-7291980 -147952,-7291962 -147959,-7291847 -147965,-7291824 -147971,-7291778 -147992,-7291676 -148000,-7291640 -148017,-7291600 -148035,-7291543 -148071,-7291462 -148111,-7291384 -148131,-7291357 -148158,-7291303 -148178,-7291273 -148266,-7291114 -148275,-7291109 -148293,-7291081 -148338,-7291020 -148370,-7290953 -148377,-7290935 -148427,-7290875 -148438,-7290863 -148458,-7290838 -148511,-7290775 -148519,-7290765 -148558,-7290696 -148600,-7290641 -148618,-7290639 -148650,-7290646 -148640,-7290667 -148640,-7290676 -148652,-7290698 -148669,-7290718 -148684,-7290746 -148694,-7290818 -148705,-7290865 -148706,-7290884 -148726,-7290946 -148763,-7291044 -148822,-7291156 -148843,-7291198 -148878,-7291299 -148895,-7291329 -148909,-7291351 -148939,-7291379 -148975,-7291413 -149011,-7291443 -149047,-7291489 -149077,-7291532 -149124,-7291577 -149136,-7291586 -149186,-7291602 -149232,-7291622 -149297,-7291656 -149338,-7291674 -149353,-7291674 -149372,-7291681 -149396,-7291680 -149414,-7291677 -149450,-7291668 -149475,-7291680 -149580,-7291742 -149621,-7291763 -149661,-7291793 -149709,-7291810 -149869,-7291879 -149898,-7291890 -150023,-7291943 -150036,-7291951 -150047,-7291958 -150069,-7291977 -150099,-7292000 -150132,-7292024 -150181,-7292048 -150206,-7292058 -150246,-7292073 -150269,-7292079 -150277,-7292080 -150339,-7292083 -150388,-7292071 -150508,-7292033 -150524,-7292032 -150548,-7292024 -150571,-7292010 -150625,-7291982 -150650,-7291974 -150697,-7291963 -150727,-7291953 -150768,-7291944 -150812,-7291937 -150843,-7291939 -150892,-7291950 -150970,-7291970 -151000,-7291981 -151041,-7291996 -151055,-7292003 -151074,-7292015 -151133,-7292056 -151224,-7292123 -151230,-7292130 -151281,-7292157 -151325,-7292183 -151382,-7292216 -151390,-7292225 -151456,-7292268 -151521,-7292328 -151614,-7292391 -151660,-7292426 -151701,-7292466 -151719,-7292484 -151741,-7292498 -151754,-7292508 -151789,-7292552 -151838,-7292616 -151873,-7292650 -151906,-7292691 -151933,-7292720 -152020,-7292798 -152066,-7292827 -152111,-7292869 -152127,-7292879 -152139,-7292892 -152159,-7292911 -152202,-7292939 -152266,-7292976 -152347,-7292989 -152443,-7293004 -152529,-7293017 -152574,-7293020 -152617,-7293015 -152660,-7293006 -152702,-7293004 -152740,-7293001 -152789,-7293002 -152854,-7293005 -152882,-7293011 -152916,-7293020 -152945,-7293026 -153008,-7293027 -153117,-7293004 -153203,-7292966 -153293,-7292969 -153311,-7292967 -153333,-7292963 -153392,-7292946 -153425,-7292939 -153491,-7292937 -153571,-7292938 -153604,-7292954 -153667,-7292981 -153714,-7293038 -153720,-7293062 -153735,-7293086 -153748,-7293115 -153754,-7293125 -153761,-7293133 -153766,-7293136 -153778,-7293139 -153811,-7293131 -153851,-7293127 -153876,-7293129 -153885,-7293130 -153894,-7293133 -153905,-7293139 -153914,-7293146 -153920,-7293154 -153924,-7293159 -153926,-7293168 -153943,-7293256 -153952,-7293286 -153958,-7293300 -153963,-7293310 -153985,-7293338 -154036,-7293426 -154036,-7293461 -154040,-7293506 -154039,-7293509 -153961,-7293508 -153882,-7293506 -153807,-7293504 -153750,-7293510 -153643,-7293505 -153573,-7293498 -153548,-7293496 -153499,-7293497 -153483,-7293498 -153438,-7293505 -153347,-7293522 -153327,-7293527 -153245,-7293548 -153175,-7293563 -153132,-7293574 -153120,-7293576 -153111,-7293576 -153101,-7293576 -153036,-7293568 -153016,-7293569 -153010,-7293570 -152912,-7293623 -152844,-7293663 -152824,-7293674 -152740,-7293712 -152726,-7293718 -152703,-7293726 -152685,-7293732 -152633,-7293745 -152564,-7293767 -152492,-7293785 -152455,-7293792 -152419,-7293801 -152403,-7293806 -152392,-7293811 -152381,-7293819 -152355,-7293844 -152331,-7293861 -152304,-7293878 -152241,-7293909 -152233,-7293914 -152220,-7293924 -152213,-7293930 -152172,-7293971 -152157,-7293985 -152141,-7293996 -152120,-7294007 -152111,-7294010 -152101,-7294011 -152091,-7294011 -152082,-7294009 -152078,-7294008 -152068,-7294000 -152052,-7293981 -152028,-7293958 -152011,-7293939 -152002,-7293933 -151996,-7293930 -151983,-7293928 -151937,-7293929 -151927,-7293930 -151918,-7293933 -151912,-7293937 -151891,-7293956 -151885,-7293960 -151852,-7293980 -151766,-7294038 -151753,-7294046 -151737,-7294054 -151715,-7294063 -151691,-7294071 -151660,-7294079 -151638,-7294083 -151609,-7294084 -151533,-7294080 -151517,-7294079 -151479,-7294083 -151431,-7294093 -151395,-7294103 -151317,-7294129 -151265,-7294057 -151252,-7294035 -151235,-7294012 -151223,-7293998 -151209,-7293983 -151193,-7293970 -151175,-7293958 -151160,-7293949 -151145,-7293944 -151132,-7293941 -151118,-7293941 -151087,-7293946 -151040,-7293957 -151004,-7293973 -150995,-7293975 -150988,-7293976 -150982,-7293975 -150974,-7293970 -150955,-7293940 -150946,-7293915 -150943,-7293911 -150941,-7293908 -150937,-7293906 -150931,-7293905 -150925,-7293905 -150919,-7293908 -150911,-7293913 -150902,-7293921 -150864,-7293963 -150817,-7293976 -150673,-7294013 -150648,-7294021 -150625,-7294027 -150602,-7294031 -150584,-7294034 -150559,-7294035 -150528,-7294036 -150504,-7294035 -150486,-7294032 -150465,-7294026 -150427,-7294009 -150412,-7294002 -150368,-7293976 -150340,-7293964 -150322,-7293958 -150304,-7293955 -150288,-7293954 -150272,-7293956 -150258,-7293959 -150253,-7293961 -150247,-7293978 -150256,-7293986 -150270,-7294257 -150269,-7294371 -150244,-7294371 -150228,-7294373 -150216,-7294375 -150182,-7294384 -150156,-7294395 -150141,-7294399 -150131,-7294399 -150123,-7294397 -150113,-7294392 -150045,-7294348 -149951,-7294368 -149887,-7294376 -149818,-7294378 -149619,-7294359 -149608,-7294340 -149600,-7294329 -149590,-7294318 -149579,-7294308 -149567,-7294299 -149553,-7294291 -149542,-7294287 -149517,-7294281 -149489,-7294276 -149471,-7294273 -149436,-7294269 -149335,-7294260 -149323,-7294261 -149315,-7294264 -149307,-7294273 -149304,-7294279 -149299,-7294290 -149300,-7294404 -149302,-7294428 -149315,-7294495 -149322,-7294518 -149336,-7294546 -149339,-7294555 -149349,-7294597 -149351,-7294606 -149356,-7294614 -149373,-7294636 -149377,-7294643 -149379,-7294649 -149379,-7294655 -149369,-7294701 -149369,-7294714 -149371,-7294738 -149370,-7294753 -149360,-7294794 -149354,-7294805 -149349,-7294809 -149329,-7294818 -149325,-7294821 -149321,-7294827 -149316,-7294835 -149314,-7294844 -149313,-7294853 -149313,-7294860 -149315,-7294866 -149327,-7294896 -149338,-7294915 -149346,-7294930 -149378,-7294982 -149387,-7294994 -149406,-7295010 -149412,-7295019 -149425,-7295056 -149456,-7295137 -149465,-7295155 -149470,-7295162 -149477,-7295167 -149500,-7295181 -149507,-7295187 -149512,-7295193 -149514,-7295197 -149518,-7295218 -149519,-7295232 -149518,-7295269 -149521,-7295282 -149526,-7295290 -149541,-7295302 -149546,-7295308 -149550,-7295318 -149553,-7295328 -149554,-7295336 -149553,-7295343 -149546,-7295366 -149545,-7295376 -149556,-7295469 -149558,-7295501 -149556,-7295528 -149554,-7295543 -149550,-7295555 -149545,-7295569 -149527,-7295612 -149520,-7295635 -149516,-7295659 -149516,-7295671 -149518,-7295681 -149521,-7295689 -149527,-7295697 -149537,-7295705 -149574,-7295733 -149586,-7295744 -149588,-7295748 -149596,-7295772 -149598,-7295775 -149605,-7295781 -149610,-7295785 -149632,-7295797 -149657,-7295814 -149673,-7295827 -149691,-7295846 -149700,-7295853 -149716,-7295861 -149721,-7295862 -149729,-7295862 -149733,-7295859 -149744,-7295847 -149758,-7295836 -149768,-7295831 -149772,-7295830 -149779,-7295831 -149784,-7295832 -149866,-7295861 -149899,-7295869 -149909,-7295869 -149912,-7295868 -149928,-7295859 -149942,-7295855 -149956,-7295854 -149972,-7295857 -149978,-7295859 -149990,-7295867 -150000,-7295878 -150004,-7295884 -150006,-7295889 -150007,-7295896 -150007,-7295902 -150006,-7295907 -149998,-7295925 -149994,-7295930 -149986,-7295938 -149946,-7295954 -149942,-7295957 -149940,-7295960 -149939,-7295963 -149938,-7295984 -149936,-7295987 -149934,-7295990 -149929,-7295993 -149910,-7295998 -149884,-7296009 -149875,-7296016 -149871,-7296020 -149867,-7296028 -149863,-7296039 -149856,-7296075 -149855,-7296084 -149856,-7296092 -149858,-7296099 -149862,-7296104 -149875,-7296120 -149877,-7296124 -149880,-7296136 -149881,-7296143 -149880,-7296154 -149837,-7296176 -149854,-7296208 -149876,-7296254 -149886,-7296297 -149922,-7296286 -149956,-7296329 -149933,-7296341 -149915,-7296361 -149874,-7296374 -149883,-7296446 -149920,-7296485 -149955,-7296514 -150009,-7296573 -150022,-7296580 -150031,-7296589 -150036,-7296595 -150039,-7296602 -150041,-7296609 -150042,-7296616 -150042,-7296622 -150037,-7296644 -150031,-7296656 -150026,-7296660 -150022,-7296662 -149999,-7296666 -149986,-7296672 -149963,-7296684 -149940,-7296697 -149921,-7296713 -149913,-7296723 -149907,-7296734 -149902,-7296764 -149900,-7296797 -149900,-7296830 -149900,-7296842 -149901,-7296856 -149906,-7296891 -149907,-7296901 -149906,-7296910 -149901,-7296932 -149894,-7296948 -149876,-7296975 -149841,-7297017 -149828,-7297028 -149823,-7297031 -149815,-7297034 -149788,-7297040 -149772,-7297045 -149741,-7297057 -149724,-7297064 -149689,-7297082 -149680,-7297089 -149675,-7297094 -149663,-7297116 -149652,-7297131 -149640,-7297143 -149627,-7297152 -149619,-7297155 -149614,-7297156 -149607,-7297156 -149592,-7297154 -149584,-7297153 -149567,-7297147 -149560,-7297147 -149557,-7297150 -149555,-7297153 -149554,-7297158 -149554,-7297167 -149545,-7297191 -149546,-7297224 -149544,-7297271 -149486,-7297269 -149473,-7297271 -149466,-7297275 -149459,-7297280 -149441,-7297297 -149429,-7297315 -149420,-7297333 -149418,-7297344 -149418,-7297350 -149422,-7297361 -149460,-7297421 -149465,-7297432 -149466,-7297439 -149465,-7297450 -149463,-7297463 -149450,-7297506 -149449,-7297513 -149448,-7297529 -149450,-7297542 -149455,-7297550 -149456,-7297551 -149463,-7297558 -149493,-7297583 -149509,-7297604 -149512,-7297611 -149521,-7297639 -149544,-7297750 -149561,-7297815 -149534,-7297821 -149437,-7297828 -149368,-7297836 -149320,-7297843 -149284,-7297841 -149247,-7297841 -149244,-7297863 -149240,-7297877 -149234,-7297891 -149226,-7297904 -149213,-7297920 -149200,-7297933 -149190,-7297941 -149181,-7297946 -149173,-7297948 -149165,-7297948 -149141,-7297943 -149134,-7297942 -149122,-7297944 -149089,-7297955 -149001,-7297976 -148986,-7297982 -148969,-7297990 -148955,-7297999 -148947,-7298005 -148933,-7298020 -148914,-7298047 -148889,-7298084 -148866,-7298116 -148857,-7298126 -148850,-7298134 -148815,-7298164 -148796,-7298185 -148747,-7298248 -148690,-7298332 -148651,-7298328 -148597,-7298324 -148536,-7298317 -148521,-7298370 -148507,-7298413 -148476,-7298456 -148418,-7298549 -148393,-7298592 -148350,-7298690 -148343,-7298719 -148343,-7298724 -148360,-7298755 -148360,-7298758 -148356,-7298789 -148350,-7298811 -148346,-7298825 -148329,-7298869 -148321,-7298901 -148319,-7298916 -148319,-7298933 -148324,-7298978 -148326,-7299023 -148321,-7299093 -148320,-7299115 -148321,-7299131 -148324,-7299154 -148340,-7299223 -148359,-7299273 -148391,-7299326 -148411,-7299426 -148439,-7299469 -148400,-7299486 -148333,-7299494 -148319,-7299493 -148304,-7299495 -148295,-7299497 -148284,-7299503 -148275,-7299508 -148270,-7299512 -148269,-7299514 -148268,-7299516 -148267,-7299519 -148271,-7299557 -148275,-7299634 -148276,-7299680 -148273,-7299747 -148273,-7299784 -148271,-7299804 -148260,-7299856 -148256,-7299957 -148245,-7300035 -148241,-7300073 -148238,-7300110 -148237,-7300129 -148239,-7300159 -148244,-7300194 -148248,-7300203 -148258,-7300225 -148260,-7300235 -148260,-7300239 -148256,-7300246 -148252,-7300249 -148246,-7300253 -148238,-7300256 -148229,-7300257 -148210,-7300254 -148188,-7300245 -148169,-7300243 -148155,-7300246 -148159,-7300349 -148160,-7300417 -148172,-7300418 -148189,-7300614 -148199,-7300678 -148202,-7300707 -148204,-7300715 -148207,-7300720 -148210,-7300725 -148214,-7300728 -148220,-7300731 -148224,-7300732 -148249,-7300735 -148278,-7300745 -148283,-7300748 -148287,-7300752 -148289,-7300756 -148290,-7300761 -148287,-7300771 -148276,-7300794 -148268,-7300808 -148280,-7300816 -148263,-7300873 -148244,-7300944 -148240,-7300965 -148238,-7300994 -148238,-7301009 -148240,-7301025 -148247,-7301071 -148254,-7301137 -148264,-7301187 -148280,-7301245 -148283,-7301261 -148287,-7301305 -148291,-7301326 -148295,-7301336 -148307,-7301358 -148327,-7301387 -148352,-7301413 -148426,-7301517 -148479,-7301602 -148495,-7301629 -148478,-7301637 -148500,-7301668 -148538,-7301734 -148549,-7301748 -148554,-7301753 -148562,-7301759 -148574,-7301765 -148599,-7301776 -148624,-7301784 -148664,-7301792 -148712,-7301800 -148764,-7301810 -148825,-7301820 -148878,-7301833 -148906,-7301836 -148924,-7301836 -148983,-7301833 -149020,-7301830 -149102,-7301864 -149146,-7301884 -149217,-7301920 -149232,-7301927 -149279,-7301943 -149305,-7301951 -149422,-7301996 -149541,-7302037 -149610,-7302063 -149686,-7302090 -149671,-7302148 -149666,-7302149 -149496,-7302169 -149298,-7302201 -149177,-7302215 -149077,-7302223 -149075,-7302222 -148963,-7302237 -148731,-7302262 -148630,-7302276 -148542,-7302286 -148534,-7302303 -148391,-7302321 -148354,-7302182 -148326,-7302086 -148298,-7301970 -148273,-7301956 -148201,-7301925 -148084,-7301865 -148070,-7301855 -148060,-7301850 -148051,-7301848 -148035,-7301846 -148023,-7301847 -148013,-7301849 -148007,-7301851 -148000,-7301855 -147993,-7301861 -147989,-7301865 -147985,-7301870 -147980,-7301881 -147955,-7301921 -147944,-7301948 -147931,-7301970 -147917,-7301992 -147885,-7302035 -147825,-7302123 -147782,-7302198 -147694,-7302170 -147670,-7302164 -147638,-7302158 -147607,-7302156 -147575,-7302157 -147564,-7302158 -147447,-7302171 -147430,-7302175 -147397,-7302186 -147387,-7302189 -147378,-7302190 -147368,-7302190 -147352,-7302189 -147328,-7302185 -147277,-7302174 -147268,-7302173 -147246,-7302173 -147187,-7302174 -147161,-7302173 -147146,-7302172 -147131,-7302168 -147098,-7302155 -147087,-7302152 -147076,-7302151 -147061,-7302151 -146997,-7302158 -146965,-7302164 -146917,-7302178 -146885,-7302180 -146878,-7302183 -146871,-7302188 -146867,-7302193 -146865,-7302198 -146865,-7302204 -146868,-7302215 -146892,-7302279 -146899,-7302299 -146911,-7302397 -146913,-7302446 -146913,-7302458 -146902,-7302470 -146900,-7302490 -146897,-7302506 -146893,-7302521 -146889,-7302530 -146884,-7302537 -146878,-7302544 -146869,-7302551 -146873,-7302568 -146806,-7302611 -146763,-7302640 -146743,-7302655 -146698,-7302691 -146683,-7302702 -146647,-7302723 -146557,-7302765 -146543,-7302770 -146536,-7302772 -146496,-7302779 -146487,-7302782 -146455,-7302797 -146437,-7302807 -146427,-7302814 -146422,-7302818 -146407,-7302833 -146359,-7302887 -146333,-7302913 -146315,-7302929 -146311,-7302931 -146277,-7302957 -146168,-7303049 -146158,-7303051 -146147,-7303054 -146136,-7303062 -146128,-7303071 -146125,-7303078 -146122,-7303087 -146121,-7303096 -146122,-7303105 -146126,-7303113 -146133,-7303123 -146189,-7303231 -146219,-7303297 -146250,-7303375 -146269,-7303427 -146301,-7303464 -146276,-7303489 -146224,-7303539 -146197,-7303563 -146144,-7303610 -146144,-7303614 -146150,-7303647 -146164,-7303684 -146223,-7303870 -146238,-7303921 -146258,-7304001 -146257,-7304095 -146174,-7304101 -146103,-7304109 -146020,-7304117 -145851,-7304140 -145820,-7304146 -145756,-7304159 -145754,-7304174 -145752,-7304245 -145752,-7304337 -145739,-7304347 -145730,-7304352 -145720,-7304356 -145703,-7304361 -145671,-7304363 -145654,-7304365 -145639,-7304368 -145623,-7304372 -145608,-7304377 -145597,-7304382 -145588,-7304388 -145581,-7304394 -145541,-7304440 -145515,-7304467 -145481,-7304509 -145435,-7304558 -145409,-7304592 -145410,-7304604 -145428,-7304629 -145422,-7304632 -145393,-7304642 -145291,-7304668 -145195,-7304688 -145186,-7304688 -145180,-7304689 -145173,-7304693 -145169,-7304698 -145167,-7304701 -145166,-7304706 -145167,-7304764 -145165,-7304821 -145166,-7304870 -145184,-7304945 -145073,-7304948 -145073,-7304950 -145073,-7304989 -145079,-7305042 -145081,-7305066 -145083,-7305141 -145096,-7305190 -145109,-7305248 -145139,-7305335 -145065,-7305356 -144995,-7305376 -144906,-7305402 -144906,-7305402 -144877,-7305409 -144863,-7305419 -144860,-7305430 -144860,-7305440 -144868,-7305454 -144872,-7305460 -144895,-7305487 -144931,-7305550 -144936,-7305562 -144937,-7305568 -144940,-7305596 -144939,-7305605 -144934,-7305631 -144926,-7305654 -144917,-7305672 -144898,-7305699 -144886,-7305732 -144882,-7305746 -144881,-7305761 -144882,-7305790 -144883,-7305805 -144889,-7305824 -144908,-7305844 -144919,-7305857 -144936,-7305876 -144949,-7305894 -144956,-7305913 -144968,-7305942 -144978,-7305980 -144980,-7305990 -144982,-7306030 -144988,-7306059 -145001,-7306088 -145020,-7306121 -145042,-7306152 -145057,-7306175 -145079,-7306202 -145109,-7306221 -145135,-7306230 -145166,-7306278 -145175,-7306294 -145184,-7306318 -145184,-7306326 -145182,-7306330 -145179,-7306332 -145171,-7306334 -145159,-7306336 -145152,-7306335 -145138,-7306332 -145132,-7306332 -145126,-7306335 -145121,-7306338 -145116,-7306345 -145114,-7306356 -145114,-7306363 -145118,-7306384 -145133,-7306414 -145141,-7306437 -145148,-7306448 -145154,-7306452 -145162,-7306455 -145175,-7306456 -145182,-7306486 -145206,-7306532 -145219,-7306572 -145212,-7306591 -145253,-7306650 -145280,-7306707 -145329,-7306790 -145304,-7306847 -145245,-7306968 -145239,-7306985 -145235,-7307002 -145232,-7307024 -145229,-7307065 -145232,-7307089 -145235,-7307105 -145240,-7307118 -145246,-7307129 -145253,-7307139 -145270,-7307159 -145301,-7307193 -145329,-7307234 -145181,-7307374 -145131,-7307418 -145124,-7307424 -145123,-7307424 -145103,-7307389 -145102,-7307382 -145102,-7307349 -145098,-7307325 -145086,-7307312 -145079,-7307308 -145073,-7307305 -145069,-7307307 -145062,-7307312 -145059,-7307315 -145058,-7307319 -145058,-7307324 -145061,-7307331 -145064,-7307334 -145075,-7307343 -145075,-7307352 -145045,-7307366 -145004,-7307358 -144973,-7307360 -144958,-7307382 -144943,-7307392 -144913,-7307370 -144874,-7307407 -144811,-7307428 -144770,-7307445 -144756,-7307458 -144748,-7307467 -144737,-7307483 -144719,-7307497 -144689,-7307522 -144639,-7307545 -144607,-7307554 -144585,-7307558 -144554,-7307555 -144529,-7307562 -144429,-7307562 -144408,-7307545 -144399,-7307542 -144393,-7307543 -144386,-7307546 -144358,-7307570 -144331,-7307570 -144320,-7307574 -144289,-7307589 -144280,-7307590 -144272,-7307589 -144255,-7307586 -144225,-7307585 -144175,-7307589 -144148,-7307598 -144130,-7307595 -144096,-7307586 -144058,-7307557 -144020,-7307547 -144001,-7307539 -143973,-7307523 -143939,-7307498 -143922,-7307490 -143882,-7307480 -143860,-7307448 -143846,-7307440 -143793,-7307426 -143759,-7307428 -143736,-7307426 -143703,-7307418 -143655,-7307402 -143646,-7307401 -143635,-7307403 -143634,-7307404 -143629,-7307406 -143620,-7307413 -143596,-7307448 -143535,-7307456 -143524,-7307496 -143501,-7307517 -143487,-7307535 -143433,-7307588 -143418,-7307599 -143403,-7307610 -143386,-7307615 -143353,-7307628 -143334,-7307646 -143311,-7307657 -143291,-7307672 -143264,-7307681 -143250,-7307689 -143237,-7307698 -143195,-7307738 -143160,-7307747 -143125,-7307778 -143105,-7307793 -143087,-7307819 -143078,-7307835 -143059,-7307869 -143028,-7307890 -143002,-7307913 -142957,-7307950 -142949,-7307971 -142930,-7307994 -142901,-7308032 -142862,-7308076 -142839,-7308090 -142807,-7308104 -142802,-7308108 -142796,-7308114 -142790,-7308121 -142787,-7308128 -142786,-7308132 -142787,-7308137 -142790,-7308146 -142795,-7308172 -142795,-7308186 -142760,-7308219 -142762,-7308248 -142761,-7308257 -142759,-7308274 -142758,-7308282 -142751,-7308293 -142745,-7308295 -142695,-7308274 -142687,-7308309 -142686,-7308310 -142678,-7308311 -142654,-7308305 -142631,-7308291 -142627,-7308291 -142624,-7308292 -142620,-7308296 -142554,-7308337 -142486,-7308376 -142452,-7308377 -142436,-7308385 -142328,-7308418 -142313,-7308428 -142289,-7308439 -142259,-7308443 -142156,-7308513 -142130,-7308533 -142109,-7308555 -142102,-7308565 -142095,-7308574 -142088,-7308586 -142075,-7308611 -142065,-7308638 -142052,-7308676 -142038,-7308724 -142023,-7308744 -142002,-7308766 -141984,-7308751 -141963,-7308741 -141921,-7308717 -141908,-7308721 -141898,-7308723 -141886,-7308721 -141875,-7308717 -141867,-7308718 -141859,-7308720 -141791,-7308741 -141776,-7308738 -141766,-7308737 -141757,-7308740 -141747,-7308746 -141723,-7308761 -141670,-7308753 -141655,-7308755 -141619,-7308813 -141593,-7308851 -141577,-7308874 -141536,-7308927 -141506,-7308965 -141447,-7309066 -141435,-7309079 -141429,-7309083 -141420,-7309088 -141409,-7309092 -141403,-7309094 -141393,-7309093 -141382,-7309089 -141373,-7309082 -141354,-7309057 -141330,-7309047 -141308,-7309014 -141286,-7308967 -141265,-7308933 -141249,-7308912 -141230,-7308901 -141217,-7308896 -141203,-7308891" stroke="#003087" stroke-width="46" /></svg>