<?xml version="1.0" standalone="no"?>
<!DOCTYPE svg PUBLIC "-//W3C//DTD SVG 1.1//EN"
"http://www.w3.org/Graphics/SVG/1.1/DTD/svg11.dtd">
<svg height="115" version="1.1" viewBox="-215693 -6582536 21925 12538" width="220" xmlns="http://www.w3.org/2000/svg"><polygon fill="#003087" points=" -210877,-6582480 -210870,-6582479 -210866,-6582479 -210848,-6582483 -210839,-6582485 -210827,-6582486 -210811,-6582483 -210796,-6582474 -210789,-6582468 -210770,-6582437 -210739,-6582397 -210736,-6582391 -210717,-6582349 -210708,-6582340 -210652,-6582310 -210608,-6582289 -210590,-6582279 -210531,-6582244 -210510,-6582227 -210414,-6582149 -210367,-6582096 -210299,-6582022 -210251,-6581970 -210206,-6581909 -210168,-6581864 -210152,-6581849 -210132,-6581823 -210089,-6581776 -210076,-6581765 -210049,-6581748 -210035,-6581734 -210029,-6581726 -210022,-6581708 -210019,-6581695 -210019,-6581683 -210021,-6581668 -210023,-6581658 -210026,-6581653 -210034,-6581642 -210051,-6581621 -210062,-6581613 -210068,-6581609 -210088,-6581600 -210103,-6581597 -210117,-6581592 -210121,-6581589 -210134,-6581579 -210142,-6581572 -210146,-6581567 -210151,-6581549 -210151,-6581541 -210136,-6581488 -210129,-6581465 -210126,-6581452 -210123,-6581439 -210119,-6581384 -210115,-6581366 -210111,-6581358 -210104,-6581342 -210099,-6581335 -210060,-6581294 -209971,-6581196 -209935,-6581163 -209921,-6581147 -209914,-6581142 -209898,-6581131 -209809,-6581101 -209747,-6581091 -209671,-6581076 -209670,-6581076 -209607,-6581065 -209580,-6581059 -209550,-6581046 -209540,-6581040 -209510,-6581021 -209482,-6580994 -209469,-6580978 -209442,-6580929 -209413,-6580858 -209404,-6580840 -209394,-6580826 -209385,-6580818 -209334,-6580793 -209309,-6580785 -209284,-6580777 -209230,-6580764 -209202,-6580757 -209182,-6580751 -209163,-6580745 -209115,-6580725 -209092,-6580714 -209086,-6580710 -209067,-6580692 -209040,-6580662 -209033,-6580651 -208942,-6580480 -208817,-6580286 -208793,-6580245 -208767,-6580206 -208757,-6580188 -208747,-6580170 -208704,-6580059 -208692,-6580034 -208676,-6579997 -208648,-6579956 -208638,-6579937 -208635,-6579931 -208633,-6579920 -208631,-6579891 -208634,-6579865 -208636,-6579853 -208641,-6579839 -208646,-6579826 -208656,-6579806 -208675,-6579774 -208704,-6579734 -208708,-6579725 -208711,-6579714 -208712,-6579695 -208708,-6579676 -208704,-6579656 -208695,-6579632 -208684,-6579617 -208651,-6579584 -208604,-6579558 -208582,-6579550 -208544,-6579544 -208551,-6579529 -208516,-6579522 -208505,-6579522 -208481,-6579524 -208460,-6579533 -208447,-6579541 -208440,-6579546 -208425,-6579551 -208394,-6579573 -208369,-6579592 -208351,-6579602 -208337,-6579607 -208331,-6579609 -208319,-6579610 -208301,-6579606 -208248,-6579590 -208232,-6579583 -208215,-6579570 -208208,-6579547 -208205,-6579533 -208183,-6579509 -208165,-6579494 -208146,-6579483 -208092,-6579472 -208061,-6579471 -208037,-6579473 -208024,-6579475 -208000,-6579480 -207972,-6579489 -207934,-6579508 -207886,-6579534 -207862,-6579544 -207829,-6579554 -207807,-6579568 -207748,-6579596 -207723,-6579609 -207723,-6579618 -207691,-6579630 -207686,-6579621 -207653,-6579634 -207646,-6579638 -207632,-6579648 -207626,-6579653 -207619,-6579660 -207600,-6579666 -207591,-6579671 -207583,-6579675 -207565,-6579688 -207548,-6579701 -207540,-6579709 -207512,-6579738 -207473,-6579788 -207412,-6579899 -207379,-6579955 -207361,-6579981 -207339,-6580024 -207320,-6580045 -207269,-6580088 -207262,-6580096 -207254,-6580103 -207243,-6580122 -207235,-6580133 -207210,-6580153 -207160,-6580200 -207143,-6580222 -207083,-6580289 -207070,-6580307 -207050,-6580328 -207004,-6580393 -206953,-6580463 -206932,-6580484 -206903,-6580508 -206859,-6580539 -206818,-6580564 -206773,-6580587 -206748,-6580619 -206714,-6580675 -206708,-6580691 -206705,-6580702 -206703,-6580718 -206709,-6580780 -206719,-6580844 -206718,-6580875 -206714,-6580943 -206713,-6580946 -206709,-6580950 -206705,-6580952 -206686,-6580957 -206679,-6580966 -206668,-6580985 -206660,-6580999 -206653,-6581015 -206646,-6581035 -206641,-6581054 -206638,-6581074 -206630,-6581104 -206633,-6581129 -206606,-6581187 -206593,-6581199 -206586,-6581203 -206579,-6581206 -206569,-6581210 -206555,-6581213 -206540,-6581215 -206526,-6581216 -206515,-6581216 -206508,-6581215 -206504,-6581214 -206497,-6581210 -206479,-6581195 -206470,-6581190 -206466,-6581189 -206463,-6581190 -206458,-6581193 -206426,-6581170 -206420,-6581163 -206414,-6581160 -206406,-6581156 -206398,-6581155 -206384,-6581155 -206304,-6581176 -206293,-6581180 -206285,-6581185 -206275,-6581194 -206250,-6581230 -206228,-6581269 -206221,-6581280 -206205,-6581299 -206198,-6581305 -206191,-6581311 -206169,-6581323 -206139,-6581333 -206122,-6581342 -206115,-6581345 -206108,-6581346 -206091,-6581345 -206072,-6581340 -206065,-6581337 -206059,-6581333 -206049,-6581324 -206031,-6581301 -206007,-6581264 -206009,-6581239 -205983,-6581220 -205945,-6581188 -205913,-6581156 -205886,-6581117 -205807,-6581041 -205773,-6581015 -205766,-6581008 -205759,-6581000 -205743,-6580976 -205730,-6580959 -205709,-6580932 -205700,-6580917 -205692,-6580902 -205689,-6580892 -205684,-6580872 -205682,-6580857 -205682,-6580848 -205684,-6580840 -205686,-6580834 -205696,-6580818 -205701,-6580809 -205718,-6580755 -205721,-6580736 -205721,-6580724 -205720,-6580714 -205717,-6580702 -205713,-6580689 -205707,-6580676 -205697,-6580660 -205688,-6580647 -205676,-6580632 -205646,-6580596 -205634,-6580584 -205615,-6580567 -205604,-6580560 -205580,-6580548 -205523,-6580531 -205453,-6580509 -205426,-6580510 -205386,-6580498 -205330,-6580494 -205314,-6580492 -205299,-6580488 -205287,-6580484 -205259,-6580472 -205252,-6580466 -205246,-6580458 -205244,-6580454 -205244,-6580446 -205246,-6580442 -205252,-6580435 -205278,-6580418 -205288,-6580412 -205327,-6580394 -205341,-6580386 -205350,-6580380 -205361,-6580370 -205375,-6580356 -205394,-6580333 -205406,-6580311 -205412,-6580295 -205415,-6580285 -205415,-6580284 -205418,-6580269 -205419,-6580253 -205419,-6580238 -205417,-6580205 -205412,-6580179 -205408,-6580169 -205399,-6580151 -205392,-6580142 -205384,-6580133 -205371,-6580121 -205349,-6580104 -205332,-6580096 -205301,-6580080 -205284,-6580067 -205280,-6580062 -205276,-6580056 -205269,-6580035 -205263,-6580002 -205260,-6579990 -205238,-6579913 -205228,-6579884 -205220,-6579867 -205206,-6579842 -205141,-6579736 -205138,-6579728 -205136,-6579723 -205135,-6579712 -205133,-6579689 -205134,-6579654 -205135,-6579648 -205138,-6579632 -205141,-6579623 -205149,-6579602 -205175,-6579556 -205180,-6579551 -205219,-6579532 -205227,-6579525 -205230,-6579522 -205231,-6579518 -205231,-6579494 -205230,-6579463 -205229,-6579429 -205184,-6579372 -205120,-6579289 -205086,-6579232 -205070,-6579213 -205065,-6579208 -205055,-6579204 -205047,-6579202 -205003,-6579183 -204972,-6579178 -204945,-6579162 -204917,-6579150 -204883,-6579134 -204853,-6579116 -204842,-6579111 -204824,-6579109 -204811,-6579105 -204805,-6579103 -204795,-6579098 -204786,-6579088 -204781,-6579079 -204754,-6579050 -204750,-6579047 -204735,-6579037 -204704,-6579028 -204682,-6579016 -204675,-6579011 -204636,-6578983 -204578,-6578925 -204573,-6578920 -204552,-6578901 -204537,-6578881 -204523,-6578853 -204503,-6578833 -204481,-6578809 -204469,-6578801 -204456,-6578794 -204427,-6578781 -204344,-6578731 -204303,-6578711 -204220,-6578677 -204176,-6578653 -204154,-6578643 -204139,-6578644 -204109,-6578625 -204080,-6578603 -204044,-6578577 -204026,-6578567 -204013,-6578561 -204001,-6578557 -203987,-6578554 -203976,-6578553 -203957,-6578553 -203896,-6578548 -203793,-6578542 -203694,-6578540 -203627,-6578538 -203554,-6578532 -203484,-6578527 -203408,-6578514 -203349,-6578505 -203312,-6578497 -203287,-6578494 -203268,-6578494 -203242,-6578494 -203150,-6578494 -203062,-6578494 -202869,-6578507 -202823,-6578507 -202734,-6578513 -202556,-6578597 -202520,-6578622 -202494,-6578588 -202461,-6578539 -202339,-6578477 -202304,-6578460 -202289,-6578450 -202282,-6578444 -202268,-6578427 -202242,-6578379 -202225,-6578328 -202195,-6578298 -202185,-6578284 -202176,-6578271 -202158,-6578250 -202140,-6578223 -202128,-6578135 -202083,-6578108 -202066,-6578101 -202026,-6578047 -201988,-6578007 -201970,-6577984 -201977,-6577971 -202027,-6577942 -202108,-6577904 -202117,-6577909 -202121,-6577908 -202139,-6577895 -202158,-6577887 -202182,-6577877 -202241,-6577850 -202261,-6577851 -202274,-6577840 -202278,-6577836 -202280,-6577831 -202284,-6577821 -202289,-6577804 -202295,-6577791 -202300,-6577773 -202301,-6577768 -202301,-6577759 -202299,-6577746 -202287,-6577726 -202284,-6577717 -202279,-6577681 -202276,-6577670 -202278,-6577638 -202277,-6577630 -202274,-6577615 -202262,-6577589 -202254,-6577578 -202243,-6577569 -202237,-6577560 -202231,-6577528 -202230,-6577516 -202230,-6577502 -202241,-6577447 -202242,-6577437 -202242,-6577431 -202240,-6577419 -202232,-6577395 -202231,-6577388 -202232,-6577322 -202231,-6577310 -202213,-6577247 -202199,-6577220 -202182,-6577176 -202177,-6577167 -202166,-6577156 -202162,-6577150 -202146,-6577126 -202141,-6577119 -202120,-6577098 -202102,-6577074 -202087,-6577055 -202085,-6577049 -202082,-6577023 -202079,-6577009 -202061,-6576966 -202050,-6576931 -202046,-6576920 -202040,-6576860 -202040,-6576850 -202041,-6576841 -202054,-6576807 -202056,-6576801 -202058,-6576789 -202059,-6576771 -202060,-6576766 -202065,-6576753 -202069,-6576729 -202073,-6576689 -202072,-6576678 -202070,-6576659 -202070,-6576629 -202075,-6576587 -202073,-6576521 -202071,-6576504 -202068,-6576496 -202053,-6576475 -202051,-6576468 -202050,-6576453 -202050,-6576445 -202059,-6576426 -202055,-6576392 -202055,-6576361 -202053,-6576336 -202050,-6576320 -202048,-6576305 -202044,-6576282 -202044,-6576270 -202037,-6576233 -202030,-6576217 -202027,-6576200 -202027,-6576192 -202033,-6576178 -202040,-6576154 -202044,-6576135 -202060,-6576145 -202066,-6576150 -202070,-6576152 -202077,-6576152 -202082,-6576152 -202088,-6576148 -202091,-6576146 -202093,-6576142 -202101,-6576122 -202101,-6576121 -202109,-6576074 -202111,-6576046 -202110,-6576036 -202107,-6576024 -202102,-6576015 -202096,-6576007 -202088,-6575999 -202084,-6575996 -202064,-6575986 -202026,-6575971 -202004,-6575964 -201959,-6575942 -201927,-6575924 -201870,-6575899 -201857,-6575893 -201814,-6575878 -201702,-6575828 -201674,-6575819 -201622,-6575811 -201612,-6575807 -201606,-6575804 -201600,-6575798 -201595,-6575791 -201591,-6575784 -201590,-6575776 -201589,-6575766 -201592,-6575748 -201593,-6575739 -201593,-6575731 -201589,-6575717 -201586,-6575711 -201581,-6575706 -201576,-6575702 -201570,-6575699 -201565,-6575698 -201515,-6575692 -201485,-6575690 -201459,-6575694 -201445,-6575699 -201430,-6575703 -201406,-6575715 -201395,-6575723 -201384,-6575731 -201366,-6575753 -201342,-6575773 -201330,-6575780 -201319,-6575786 -201310,-6575787 -201294,-6575793 -201265,-6575796 -201261,-6575796 -201256,-6575795 -201229,-6575777 -201218,-6575765 -201213,-6575756 -201208,-6575747 -201204,-6575733 -201197,-6575721 -201176,-6575684 -201163,-6575677 -201154,-6575675 -201109,-6575666 -201102,-6575663 -201081,-6575653 -201064,-6575635 -201056,-6575627 -201050,-6575622 -201037,-6575615 -201020,-6575609 -201011,-6575608 -201000,-6575607 -200986,-6575609 -200907,-6575645 -200890,-6575650 -200881,-6575651 -200877,-6575651 -200861,-6575646 -200821,-6575616 -200809,-6575602 -200799,-6575585 -200776,-6575535 -200767,-6575509 -200765,-6575498 -200765,-6575472 -200767,-6575462 -200770,-6575455 -200783,-6575429 -200787,-6575425 -200794,-6575422 -200799,-6575419 -200853,-6575402 -200882,-6575390 -200885,-6575388 -200888,-6575385 -200890,-6575381 -200891,-6575377 -200890,-6575372 -200888,-6575368 -200882,-6575358 -200868,-6575342 -200861,-6575339 -200838,-6575334 -200760,-6575327 -200739,-6575324 -200673,-6575306 -200638,-6575289 -200612,-6575283 -200597,-6575280 -200557,-6575278 -200535,-6575282 -200506,-6575291 -200450,-6575309 -200422,-6575310 -200408,-6575308 -200392,-6575305 -200359,-6575296 -200348,-6575292 -200305,-6575270 -200293,-6575265 -200266,-6575258 -200225,-6575253 -200181,-6575252 -200144,-6575259 -200128,-6575264 -200039,-6575307 -200012,-6575317 -200008,-6575318 -199987,-6575319 -199972,-6575317 -199963,-6575313 -199954,-6575309 -199947,-6575303 -199941,-6575296 -199933,-6575287 -199929,-6575280 -199923,-6575268 -199904,-6575217 -199881,-6575133 -199846,-6575016 -199836,-6574992 -199821,-6574966 -199813,-6574955 -199807,-6574949 -199791,-6574937 -199780,-6574931 -199767,-6574926 -199758,-6574923 -199745,-6574921 -199710,-6574921 -199697,-6574923 -199669,-6574933 -199652,-6574934 -199642,-6574932 -199632,-6574929 -199624,-6574925 -199613,-6574916 -199601,-6574900 -199594,-6574884 -199592,-6574876 -199591,-6574869 -199591,-6574852 -199597,-6574824 -199601,-6574812 -199601,-6574811 -199616,-6574769 -199648,-6574697 -199659,-6574665 -199663,-6574649 -199666,-6574639 -199671,-6574619 -199672,-6574610 -199672,-6574592 -199671,-6574579 -199670,-6574570 -199667,-6574559 -199662,-6574547 -199659,-6574540 -199646,-6574522 -199636,-6574510 -199631,-6574505 -199613,-6574491 -199591,-6574477 -199555,-6574455 -199510,-6574429 -199504,-6574420 -199498,-6574407 -199488,-6574362 -199482,-6574341 -199472,-6574313 -199463,-6574291 -199444,-6574230 -199443,-6574226 -199440,-6574208 -199435,-6574188 -199433,-6574175 -199433,-6574161 -199438,-6574120 -199443,-6574093 -199452,-6574072 -199457,-6574061 -199462,-6574054 -199468,-6574047 -199477,-6574038 -199490,-6574029 -199503,-6574022 -199517,-6574017 -199533,-6574014 -199541,-6574014 -199580,-6574016 -199601,-6574021 -199649,-6574027 -199672,-6574027 -199681,-6574026 -199710,-6574019 -199715,-6574015 -199726,-6574007 -199736,-6573996 -199745,-6573986 -199752,-6573977 -199757,-6573967 -199759,-6573962 -199765,-6573916 -199762,-6573908 -199737,-6573846 -199722,-6573825 -199708,-6573809 -199701,-6573802 -199690,-6573792 -199650,-6573767 -199616,-6573749 -199572,-6573730 -199359,-6573673 -199222,-6573639 -199131,-6573616 -199086,-6573605 -199058,-6573592 -199029,-6573575 -199004,-6573569 -198982,-6573567 -198950,-6573567 -198914,-6573572 -198892,-6573576 -198880,-6573580 -198868,-6573584 -198844,-6573595 -198814,-6573615 -198790,-6573630 -198741,-6573665 -198734,-6573669 -198702,-6573683 -198653,-6573696 -198630,-6573700 -198607,-6573702 -198564,-6573700 -198517,-6573695 -198479,-6573685 -198384,-6573649 -198313,-6573618 -198238,-6573589 -198186,-6573567 -198162,-6573564 -198140,-6573564 -198115,-6573568 -198100,-6573572 -198051,-6573585 -198041,-6573588 -198011,-6573602 -197930,-6573651 -197920,-6573657 -197907,-6573662 -197893,-6573667 -197864,-6573671 -197820,-6573681 -197796,-6573689 -197755,-6573702 -197706,-6573724 -197699,-6573724 -197687,-6573722 -197637,-6573696 -197546,-6573698 -197482,-6573681 -197466,-6573676 -197430,-6573662 -197410,-6573647 -197394,-6573635 -197374,-6573612 -197358,-6573587 -197354,-6573578 -197342,-6573547 -197339,-6573539 -197322,-6573491 -197315,-6573476 -197299,-6573446 -197284,-6573428 -197245,-6573389 -197208,-6573359 -197172,-6573335 -197131,-6573318 -197051,-6573292 -197028,-6573282 -196984,-6573262 -196926,-6573227 -196884,-6573198 -196864,-6573183 -196838,-6573152 -196809,-6573111 -196790,-6573080 -196771,-6573036 -196765,-6573019 -196760,-6573005 -196756,-6572989 -196751,-6572942 -196750,-6572888 -196747,-6572828 -196746,-6572810 -196742,-6572794 -196729,-6572749 -196695,-6572647 -196680,-6572598 -196665,-6572555 -196647,-6572512 -196602,-6572433 -196535,-6572351 -196501,-6572331 -196379,-6572273 -196319,-6572248 -196161,-6572194 -196056,-6572161 -195966,-6572138 -195913,-6572120 -195865,-6572107 -195686,-6572070 -195628,-6572060 -195538,-6572040 -195411,-6572024 -195376,-6572021 -195244,-6572016 -195181,-6572017 -195108,-6572016 -195048,-6572018 -194953,-6572020 -194902,-6572024 -194868,-6572029 -194830,-6572040 -194783,-6572058 -194751,-6572076 -194701,-6572110 -194680,-6572129 -194662,-6572150 -194651,-6572165 -194645,-6572170 -194642,-6572172 -194624,-6572175 -194499,-6572175 -193995,-6572182 -193820,-6572183 -193778,-6572184 -193768,-6572116 -193778,-6572094 -193803,-6572048 -193827,-6572009 -193818,-6571976 -193809,-6571959 -193809,-6571950 -193820,-6571941 -193835,-6571900 -193844,-6571876 -193841,-6571854 -193822,-6571828 -193815,-6571817 -193824,-6571810 -193878,-6571786 -193900,-6571762 -193903,-6571739 -193905,-6571711 -193896,-6571694 -193893,-6571685 -193907,-6571680 -193910,-6571678 -193942,-6571658 -193974,-6571634 -193988,-6571604 -193977,-6571571 -193954,-6571560 -193950,-6571549 -193961,-6571547 -193974,-6571551 -194012,-6571535 -194033,-6571516 -194042,-6571489 -194040,-6571450 -194026,-6571435 -194011,-6571430 -194007,-6571424 -194028,-6571426 -194040,-6571426 -194049,-6571415 -194075,-6571406 -194084,-6571391 -194088,-6571358 -194081,-6571329 -194064,-6571319 -194070,-6571316 -194081,-6571318 -194107,-6571303 -194125,-6571292 -194136,-6571265 -194138,-6571235 -194124,-6571224 -194116,-6571217 -194118,-6571213 -194133,-6571219 -194159,-6571204 -194186,-6571187 -194195,-6571158 -194196,-6571136 -194188,-6571123 -194196,-6571108 -194212,-6571097 -194222,-6571084 -194226,-6571071 -194227,-6571058 -194225,-6571037 -194220,-6571022 -194220,-6571006 -194223,-6570988 -194231,-6570964 -194236,-6570945 -194237,-6570934 -194236,-6570913 -194235,-6570899 -194237,-6570885 -194244,-6570872 -194253,-6570866 -194281,-6570853 -194295,-6570845 -194314,-6570833 -194328,-6570828 -194334,-6570821 -194345,-6570805 -194348,-6570791 -194348,-6570782 -194353,-6570772 -194370,-6570766 -194391,-6570761 -194409,-6570753 -194419,-6570744 -194424,-6570728 -194428,-6570718 -194443,-6570712 -194460,-6570709 -194471,-6570705 -194487,-6570696 -194496,-6570685 -194501,-6570672 -194501,-6570666 -194501,-6570662 -194508,-6570659 -194536,-6570654 -194561,-6570647 -194575,-6570644 -194582,-6570639 -194600,-6570625 -194602,-6570619 -194597,-6570613 -194595,-6570607 -194595,-6570600 -194600,-6570596 -194615,-6570588 -194628,-6570584 -194642,-6570581 -194647,-6570578 -194657,-6570569 -194659,-6570553 -194671,-6570516 -194669,-6570468 -194662,-6570333 -194663,-6570333 -194680,-6570331 -194684,-6570396 -194730,-6570441 -194804,-6570495 -194848,-6570507 -194897,-6570532 -194989,-6570573 -195024,-6570599 -195070,-6570625 -195135,-6570655 -195219,-6570693 -195267,-6570730 -195299,-6570745 -195393,-6570798 -195422,-6570810 -195431,-6570814 -195476,-6570823 -195588,-6570859 -195725,-6570899 -195964,-6570980 -196061,-6571010 -196346,-6571108 -196398,-6571124 -196807,-6571231 -196998,-6571278 -197097,-6571298 -197345,-6571341 -197373,-6571347 -197578,-6571395 -197682,-6571414 -197863,-6571443 -198063,-6571473 -198326,-6571520 -198428,-6571540 -198554,-6571562 -198639,-6571578 -198739,-6571594 -198827,-6571610 -198832,-6571604 -198931,-6571613 -199025,-6571634 -199084,-6571634 -199117,-6571632 -199131,-6571632 -199144,-6571635 -199188,-6571651 -199223,-6571660 -199247,-6571667 -199260,-6571668 -199277,-6571669 -199308,-6571669 -199334,-6571673 -199370,-6571681 -199418,-6571688 -199461,-6571692 -199515,-6571696 -199575,-6571712 -199612,-6571722 -199672,-6571739 -199673,-6571739 -199759,-6571759 -199820,-6571773 -199854,-6571783 -199879,-6571783 -199904,-6571785 -199934,-6571786 -199966,-6571788 -199986,-6571795 -200009,-6571802 -200034,-6571813 -200082,-6571822 -200128,-6571834 -200164,-6571844 -200207,-6571853 -200219,-6571853 -200247,-6571850 -200275,-6571847 -200301,-6571845 -200323,-6571847 -200349,-6571850 -200381,-6571853 -200416,-6571857 -200432,-6571863 -200460,-6571874 -200481,-6571879 -200513,-6571889 -200544,-6571899 -200573,-6571905 -200587,-6571908 -200602,-6571908 -200612,-6571911 -200629,-6571913 -200644,-6571918 -200666,-6571926 -200683,-6571929 -200701,-6571927 -200706,-6571929 -200731,-6571931 -200770,-6571931 -200795,-6571932 -200807,-6571935 -200830,-6571940 -200864,-6571948 -200911,-6571955 -200933,-6571959 -200954,-6571962 -200976,-6571961 -200997,-6571960 -201023,-6571964 -201051,-6571971 -201071,-6571976 -201105,-6571979 -201130,-6571979 -201131,-6571962 -201252,-6571979 -201277,-6571988 -201280,-6571965 -201308,-6571969 -201335,-6571972 -201362,-6571974 -201387,-6571976 -201399,-6571979 -201419,-6571985 -201507,-6572003 -201547,-6572004 -201547,-6571988 -201565,-6571989 -201577,-6571993 -201601,-6571997 -201624,-6571997 -201654,-6571999 -201683,-6572002 -201713,-6572005 -201739,-6572010 -201757,-6572012 -201789,-6572018 -201791,-6571984 -201808,-6571985 -201823,-6571987 -201844,-6571991 -201852,-6571996 -201855,-6571993 -201886,-6571999 -201919,-6572007 -201946,-6572012 -202001,-6572018 -202051,-6572023 -202089,-6572026 -202118,-6572032 -202136,-6572033 -202157,-6572033 -202187,-6572032 -202189,-6571982 -202224,-6571982 -202239,-6571985 -202248,-6571985 -202279,-6571993 -202294,-6572000 -202296,-6572002 -202318,-6572004 -202334,-6572006 -202355,-6572007 -202370,-6572005 -202390,-6572004 -202410,-6572007 -202438,-6572007 -202469,-6572006 -202490,-6572001 -202511,-6571993 -202537,-6571990 -202562,-6571990 -202595,-6571992 -202652,-6571999 -202674,-6572001 -202695,-6572002 -202719,-6572004 -202741,-6572003 -202763,-6572001 -202781,-6571998 -202795,-6571995 -202804,-6571991 -202817,-6571991 -202828,-6571994 -202845,-6571994 -202866,-6571994 -202879,-6571995 -202889,-6571996 -202904,-6571998 -202927,-6571999 -202948,-6572001 -202980,-6572000 -203002,-6571996 -203007,-6571994 -203017,-6571991 -203069,-6571990 -203089,-6571987 -203104,-6571986 -203117,-6571982 -203126,-6571977 -203137,-6571971 -203143,-6571966 -203151,-6571964 -203156,-6571964 -203167,-6571965 -203177,-6571966 -203184,-6571970 -203198,-6571971 -203210,-6571975 -203222,-6571977 -203235,-6571979 -203246,-6571980 -203264,-6571981 -203281,-6571985 -203300,-6571986 -203319,-6571984 -203333,-6571984 -203341,-6571980 -203352,-6571977 -203369,-6571974 -203392,-6571973 -203414,-6571973 -203425,-6571972 -203431,-6571966 -203435,-6571962 -203444,-6571956 -203456,-6571952 -203478,-6571951 -203497,-6571954 -203516,-6571956 -203535,-6571959 -203558,-6571965 -203574,-6571969 -203586,-6571973 -203597,-6571973 -203608,-6571972 -203615,-6571975 -203622,-6571978 -203640,-6571978 -203654,-6571977 -203658,-6571976 -203669,-6571973 -203677,-6571972 -203687,-6571970 -203704,-6571971 -203715,-6571969 -203726,-6571966 -203737,-6571964 -203750,-6571958 -203761,-6571954 -203774,-6571953 -203792,-6571953 -203816,-6571954 -203844,-6571951 -203878,-6571948 -203911,-6571946 -203944,-6571942 -203968,-6571938 -203979,-6571936 -203985,-6571933 -203990,-6571927 -203996,-6571923 -204005,-6571917 -204018,-6571917 -204033,-6571920 -204056,-6571925 -204078,-6571929 -204097,-6571928 -204120,-6571926 -204144,-6571924 -204164,-6571923 -204173,-6571920 -204183,-6571917 -204207,-6571913 -204225,-6571909 -204237,-6571905 -204257,-6571899 -204284,-6571891 -204308,-6571889 -204331,-6571888 -204352,-6571890 -204372,-6571890 -204392,-6571890 -204412,-6571888 -204431,-6571885 -204444,-6571885 -204468,-6571885 -204481,-6571884 -204493,-6571881 -204519,-6571876 -204541,-6571872 -204554,-6571868 -204577,-6571862 -204591,-6571861 -204680,-6571849 -204702,-6571843 -204724,-6571843 -204747,-6571841 -204782,-6571835 -204805,-6571832 -204817,-6571827 -204837,-6571821 -204863,-6571817 -204891,-6571813 -204920,-6571814 -204951,-6571814 -204984,-6571812 -205010,-6571810 -205037,-6571809 -205062,-6571802 -205087,-6571791 -205094,-6571788 -205130,-6571779 -205132,-6571779 -205151,-6571776 -205174,-6571778 -205178,-6571780 -205189,-6571784 -205210,-6571788 -205218,-6571789 -205241,-6571793 -205245,-6571794 -205259,-6571795 -205260,-6571796 -205279,-6571794 -205297,-6571791 -205319,-6571788 -205339,-6571789 -205352,-6571792 -205370,-6571793 -205387,-6571791 -205403,-6571786 -205415,-6571782 -205429,-6571779 -205446,-6571776 -205463,-6571766 -205482,-6571765 -205557,-6571756 -205620,-6571745 -205640,-6571742 -205671,-6571739 -205723,-6571731 -205772,-6571725 -205828,-6571714 -205852,-6571709 -205856,-6571705 -205856,-6571700 -205862,-6571698 -205875,-6571697 -205902,-6571696 -205919,-6571693 -205936,-6571694 -205957,-6571698 -205975,-6571695 -205987,-6571691 -206001,-6571687 -206025,-6571688 -206058,-6571685 -206087,-6571681 -206114,-6571676 -206156,-6571670 -206203,-6571665 -206215,-6571662 -206232,-6571659 -206250,-6571659 -206279,-6571657 -206283,-6571657 -206358,-6571649 -206377,-6571646 -206391,-6571645 -206453,-6571632 -206471,-6571627 -206488,-6571625 -206504,-6571625 -206531,-6571627 -206557,-6571624 -206574,-6571622 -206587,-6571621 -206603,-6571620 -206616,-6571617 -206635,-6571612 -206654,-6571607 -206669,-6571602 -206677,-6571596 -206687,-6571593 -206707,-6571590 -206725,-6571586 -206746,-6571583 -206760,-6571583 -206775,-6571583 -206796,-6571582 -206814,-6571579 -206833,-6571578 -206855,-6571577 -206875,-6571573 -206890,-6571569 -206907,-6571569 -206918,-6571566 -206924,-6571562 -206947,-6571556 -206971,-6571551 -206981,-6571553 -206993,-6571558 -207000,-6571559 -207010,-6571558 -207017,-6571556 -207030,-6571558 -207042,-6571557 -207058,-6571554 -207086,-6571553 -207115,-6571550 -207142,-6571545 -207175,-6571541 -207233,-6571528 -207279,-6571518 -207304,-6571509 -207334,-6571503 -207360,-6571499 -207386,-6571494 -207410,-6571487 -207436,-6571484 -207457,-6571480 -207480,-6571472 -207507,-6571463 -207544,-6571451 -207598,-6571434 -207608,-6571430 -207622,-6571427 -207625,-6571427 -207635,-6571428 -207643,-6571429 -207655,-6571429 -207685,-6571429 -207705,-6571427 -207730,-6571424 -207761,-6571417 -207800,-6571410 -207837,-6571399 -207862,-6571391 -207878,-6571388 -207907,-6571388 -207933,-6571383 -207956,-6571378 -207986,-6571377 -208000,-6571372 -208030,-6571362 -208049,-6571357 -208063,-6571347 -208087,-6571340 -208100,-6571337 -208111,-6571334 -208140,-6571327 -208167,-6571324 -208195,-6571317 -208226,-6571311 -208257,-6571300 -208285,-6571292 -208307,-6571286 -208332,-6571276 -208352,-6571266 -208371,-6571256 -208391,-6571247 -208414,-6571237 -208436,-6571232 -208462,-6571226 -208473,-6571222 -208486,-6571214 -208493,-6571207 -208506,-6571203 -208530,-6571192 -208545,-6571190 -208564,-6571185 -208578,-6571179 -208623,-6571179 -208651,-6571174 -208671,-6571163 -208681,-6571150 -208696,-6571136 -208713,-6571121 -208741,-6571112 -208765,-6571102 -208781,-6571099 -208805,-6571101 -208836,-6571102 -208857,-6571099 -208863,-6571098 -208886,-6571089 -208921,-6571084 -208953,-6571077 -209038,-6571062 -209072,-6571050 -209094,-6571040 -209109,-6571030 -209127,-6571010 -209161,-6571001 -209225,-6570981 -209290,-6570971 -209369,-6570961 -209410,-6570945 -209452,-6570934 -209465,-6570921 -209480,-6570908 -209498,-6570902 -209524,-6570899 -209553,-6570896 -209585,-6570894 -209622,-6570888 -209668,-6570879 -209681,-6570877 -209707,-6570874 -209733,-6570866 -209769,-6570852 -209800,-6570836 -209833,-6570816 -209885,-6570801 -209995,-6570773 -210035,-6570764 -210070,-6570754 -210096,-6570744 -210128,-6570728 -210142,-6570716 -210151,-6570706 -210168,-6570700 -210187,-6570693 -210213,-6570688 -210245,-6570676 -210271,-6570664 -210313,-6570653 -210354,-6570641 -210398,-6570618 -210431,-6570607 -210458,-6570592 -210486,-6570566 -210503,-6570556 -210521,-6570546 -210541,-6570539 -210570,-6570529 -210599,-6570517 -210628,-6570506 -210644,-6570498 -210667,-6570487 -210693,-6570478 -210711,-6570467 -210742,-6570460 -210775,-6570439 -210801,-6570423 -210826,-6570412 -210862,-6570403 -210891,-6570395 -210911,-6570385 -210941,-6570369 -210973,-6570347 -211028,-6570312 -211103,-6570278 -211167,-6570250 -211195,-6570227 -211223,-6570205 -211244,-6570201 -211271,-6570190 -211299,-6570172 -211334,-6570152 -211365,-6570127 -211395,-6570100 -211415,-6570081 -211425,-6570071 -211445,-6570058 -211481,-6570039 -211536,-6570010 -211575,-6569998 -211607,-6570054 -211624,-6570081 -211676,-6570167 -211836,-6570413 -211924,-6570547 -212009,-6570670 -212090,-6570794 -212121,-6570852 -212192,-6570959 -212266,-6571072 -212326,-6571159 -212349,-6571189 -212346,-6571207 -212332,-6571262 -212314,-6571353 -212305,-6571412 -212267,-6571610 -212229,-6571824 -212209,-6571940 -212201,-6572000 -212192,-6572109 -212187,-6572199 -212170,-6572355 -212160,-6572466 -212153,-6572552 -212153,-6572560 -212152,-6572565 -212144,-6572721 -212142,-6572783 -212139,-6572854 -212136,-6572880 -212127,-6572912 -212100,-6572999 -212084,-6573040 -212043,-6573138 -211982,-6573289 -211951,-6573371 -211933,-6573423 -211901,-6573505 -211880,-6573549 -211864,-6573586 -211848,-6573624 -211827,-6573681 -211805,-6573738 -211792,-6573778 -211711,-6574004 -211685,-6574073 -211673,-6574100 -211659,-6574130 -211619,-6574201 -211606,-6574226 -211598,-6574251 -211592,-6574258 -211583,-6574266 -211516,-6574318 -211491,-6574336 -211472,-6574354 -211468,-6574361 -211465,-6574368 -211430,-6574471 -211375,-6574619 -211344,-6574697 -211326,-6574736 -211317,-6574755 -211299,-6574780 -211274,-6574808 -211230,-6574845 -211220,-6574855 -211199,-6574877 -211177,-6574911 -211170,-6574932 -211152,-6574982 -211141,-6575028 -211132,-6575056 -211123,-6575094 -211121,-6575105 -211117,-6575135 -211110,-6575214 -211103,-6575239 -211092,-6575259 -211066,-6575282 -211025,-6575312 -210970,-6575359 -210877,-6575438 -210822,-6575482 -210807,-6575496 -210792,-6575510 -210757,-6575545 -210732,-6575573 -210642,-6575668 -210561,-6575741 -210520,-6575772 -210542,-6575789 -210580,-6575814 -210597,-6575824 -210660,-6575854 -210672,-6575869 -210735,-6575956 -210748,-6575977 -210766,-6575996 -210779,-6576003 -210795,-6576008 -210849,-6576028 -210960,-6576062 -211219,-6576131 -211287,-6576150 -211355,-6576170 -211495,-6576215 -211675,-6576268 -211956,-6576350 -212183,-6576418 -212296,-6576451 -212354,-6576468 -212492,-6576506 -212607,-6576534 -212686,-6576561 -212792,-6576594 -212865,-6576614 -212865,-6576632 -213148,-6576712 -213244,-6576741 -213269,-6576749 -213534,-6576828 -213568,-6576842 -213583,-6576850 -213598,-6576859 -213663,-6576908 -213705,-6576937 -213751,-6576971 -213877,-6577061 -214017,-6577154 -214122,-6577220 -214224,-6577286 -214346,-6577368 -214352,-6577373 -214501,-6577475 -214856,-6577712 -214899,-6577741 -214996,-6577800 -215101,-6577872 -215191,-6577932 -215278,-6577987 -215285,-6577994 -215310,-6578013 -215410,-6578077 -215445,-6578098 -215508,-6578125 -215529,-6578133 -215570,-6578147 -215636,-6578172 -215654,-6578177 -215693,-6578189 -215665,-6578223 -215652,-6578240 -215587,-6578317 -215545,-6578366 -215418,-6578515 -215384,-6578560 -215324,-6578631 -215288,-6578672 -215142,-6578846 -215074,-6578924 -215067,-6578933 -215016,-6578995 -214937,-6579087 -214898,-6579125 -214776,-6579300 -214747,-6579338 -214745,-6579351 -214687,-6579426 -214659,-6579475 -214619,-6579530 -214601,-6579552 -214494,-6579694 -214491,-6579701 -214490,-6579731 -214567,-6579805 -214625,-6579855 -214636,-6579871 -214609,-6579902 -214604,-6579912 -214604,-6579920 -214607,-6579928 -214610,-6579932 -214624,-6579941 -214628,-6579946 -214630,-6579950 -214632,-6579955 -214634,-6579966 -214634,-6579974 -214624,-6580008 -214609,-6580043 -214605,-6580059 -214603,-6580082 -214604,-6580122 -214603,-6580132 -214590,-6580179 -214574,-6580230 -214558,-6580287 -214546,-6580320 -214530,-6580363 -214525,-6580386 -214519,-6580398 -214511,-6580406 -214492,-6580420 -214401,-6580515 -214387,-6580537 -214362,-6580570 -214348,-6580589 -214328,-6580612 -214322,-6580632 -214319,-6580639 -214282,-6580678 -214277,-6580682 -214270,-6580686 -214265,-6580687 -214243,-6580690 -214244,-6580702 -214248,-6580723 -214250,-6580740 -214249,-6580750 -214245,-6580769 -214237,-6580790 -214230,-6580816 -214219,-6580877 -214206,-6580903 -214204,-6580915 -214208,-6580920 -214205,-6580937 -214190,-6580981 -214218,-6581005 -214198,-6581026 -214184,-6581033 -214155,-6581055 -214139,-6581073 -214120,-6581098 -214073,-6581178 -214060,-6581209 -214055,-6581232 -213999,-6581269 -213936,-6581307 -213963,-6581368 -213960,-6581371 -213916,-6581405 -213810,-6581492 -213735,-6581547 -213718,-6581551 -213681,-6581546 -213646,-6581534 -213655,-6581510 -213665,-6581493 -213690,-6581463 -213725,-6581432 -213734,-6581420 -213736,-6581415 -213736,-6581410 -213735,-6581402 -213730,-6581392 -213711,-6581369 -213688,-6581350 -213678,-6581347 -213656,-6581341 -213634,-6581337 -213615,-6581335 -213587,-6581337 -213583,-6581355 -213580,-6581365 -213576,-6581374 -213571,-6581380 -213565,-6581387 -213543,-6581404 -213535,-6581416 -213511,-6581454 -213479,-6581501 -213467,-6581513 -213456,-6581518 -213410,-6581524 -213397,-6581525 -213384,-6581522 -213379,-6581519 -213361,-6581506 -213302,-6581445 -213235,-6581381 -213224,-6581366 -213218,-6581354 -213216,-6581350 -213180,-6581312 -213174,-6581307 -213168,-6581303 -213163,-6581301 -213158,-6581300 -213147,-6581299 -213118,-6581304 -213090,-6581311 -213071,-6581319 -213065,-6581324 -213041,-6581342 -213021,-6581354 -213014,-6581359 -212995,-6581375 -212989,-6581381 -212980,-6581392 -212970,-6581408 -212960,-6581436 -212957,-6581448 -212955,-6581524 -212951,-6581561 -212949,-6581627 -212944,-6581640 -212940,-6581647 -212930,-6581659 -212924,-6581665 -212895,-6581685 -212884,-6581688 -212858,-6581689 -212837,-6581688 -212815,-6581680 -212806,-6581679 -212775,-6581683 -212771,-6581683 -212766,-6581681 -212761,-6581676 -212756,-6581670 -212751,-6581660 -212742,-6581647 -212734,-6581635 -212727,-6581627 -212716,-6581616 -212712,-6581614 -212708,-6581613 -212702,-6581613 -212689,-6581617 -212661,-6581631 -212643,-6581638 -212638,-6581639 -212600,-6581637 -212568,-6581637 -212556,-6581638 -212539,-6581642 -212521,-6581650 -212498,-6581667 -212465,-6581697 -212438,-6581729 -212416,-6581767 -212388,-6581817 -212375,-6581849 -212370,-6581857 -212355,-6581879 -212319,-6581914 -212299,-6581931 -212201,-6581992 -212173,-6582006 -212152,-6582013 -212041,-6582048 -212009,-6582054 -211983,-6582056 -211889,-6582055 -211800,-6582050 -211773,-6582052 -211764,-6582054 -211746,-6582057 -211722,-6582063 -211705,-6582072 -211699,-6582077 -211684,-6582093 -211681,-6582097 -211676,-6582107 -211670,-6582118 -211660,-6582142 -211657,-6582150 -211651,-6582185 -211646,-6582205 -211640,-6582217 -211636,-6582222 -211626,-6582232 -211620,-6582236 -211614,-6582239 -211601,-6582244 -211579,-6582247 -211491,-6582235 -211480,-6582230 -211462,-6582220 -211436,-6582201 -211426,-6582195 -211411,-6582190 -211402,-6582189 -211390,-6582189 -211379,-6582191 -211351,-6582201 -211314,-6582225 -211306,-6582231 -211299,-6582236 -211293,-6582243 -211292,-6582245 -211292,-6582246 -211298,-6582253 -211307,-6582256 -211313,-6582257 -211346,-6582255 -211349,-6582255 -211352,-6582257 -211353,-6582260 -211352,-6582265 -211336,-6582288 -211330,-6582302 -211328,-6582317 -211329,-6582323 -211329,-6582327 -211328,-6582331 -211325,-6582334 -211318,-6582337 -211263,-6582338 -211252,-6582341 -211249,-6582343 -211246,-6582346 -211242,-6582352 -211241,-6582369 -211243,-6582382 -211242,-6582399 -211228,-6582407 -211218,-6582409 -211212,-6582410 -211207,-6582408 -211201,-6582405 -211196,-6582401 -211192,-6582396 -211187,-6582388 -211167,-6582406 -211155,-6582414 -211148,-6582425 -211145,-6582431 -211142,-6582442 -211139,-6582476 -211138,-6582484 -211134,-6582491 -211127,-6582503 -211122,-6582508 -211116,-6582513 -211101,-6582521 -211100,-6582522 -211085,-6582528 -211069,-6582533 -211060,-6582534 -211039,-6582536 -210999,-6582531 -210973,-6582525 -210943,-6582513 -210930,-6582505 -210884,-6582482 -210877,-6582480" stroke="#003087" stroke-width="34" /></svg>