<?xml version="1.0" standalone="no"?>
<!DOCTYPE svg PUBLIC "-//W3C//DTD SVG 1.1//EN"
"http://www.w3.org/Graphics/SVG/1.1/DTD/svg11.dtd">
<svg height="115" version="1.1" viewBox="-138810 -6986456 17905 23959" width="220" xmlns="http://www.w3.org/2000/svg"><polygon fill="#003087" points=" -131708,-6986098 -131738,-6986001 -131797,-6985823 -131855,-6985670 -131756,-6985650 -131638,-6985644 -131540,-6985638 -131487,-6985631 -131428,-6985628 -131291,-6985624 -131144,-6985622 -130883,-6985612 -130818,-6985611 -130724,-6985610 -130608,-6985603 -130605,-6985601 -130599,-6985596 -130495,-6985597 -130379,-6985593 -130331,-6985581 -130243,-6985597 -130129,-6985617 -129995,-6985638 -129956,-6985403 -129911,-6985115 -129895,-6985018 -129885,-6984962 -129871,-6984883 -129771,-6984907 -129719,-6984926 -129527,-6985045 -129383,-6985149 -129377,-6985036 -129369,-6984970 -128906,-6984962 -128930,-6984883 -128964,-6984781 -128821,-6984770 -128744,-6984767 -128533,-6984758 -128480,-6984669 -128479,-6984598 -128490,-6984524 -128377,-6984484 -128259,-6984440 -128188,-6984414 -128172,-6984437 -128126,-6984537 -128116,-6984541 -128099,-6984546 -128013,-6984500 -127872,-6984421 -127777,-6984368 -127740,-6984345 -127633,-6984508 -127616,-6984523 -127537,-6984451 -127468,-6984370 -127354,-6984259 -127295,-6984200 -127321,-6984151 -127390,-6984046 -127422,-6984005 -127445,-6983978 -127455,-6983963 -127467,-6983942 -127482,-6983910 -127529,-6983782 -127553,-6983727 -127568,-6983698 -127590,-6983666 -127601,-6983652 -127611,-6983641 -127678,-6983571 -127695,-6983551 -127703,-6983539 -127718,-6983515 -127723,-6983503 -127727,-6983480 -127729,-6983419 -127734,-6983368 -127738,-6983319 -127745,-6983290 -127763,-6983233 -127774,-6983211 -127779,-6983202 -127804,-6983165 -127817,-6983151 -127823,-6983147 -127851,-6983129 -127880,-6983115 -127896,-6983109 -127910,-6983103 -127931,-6983090 -127971,-6983057 -127976,-6983052 -127983,-6983042 -127990,-6983030 -127996,-6983016 -128000,-6983003 -128003,-6982983 -128007,-6982956 -128008,-6982927 -128008,-6982906 -128004,-6982876 -128003,-6982868 -128033,-6982827 -128073,-6982801 -128082,-6982795 -128219,-6982699 -128285,-6982646 -128315,-6982623 -128362,-6982577 -128378,-6982556 -128400,-6982523 -128424,-6982477 -128378,-6982441 -128335,-6982420 -128316,-6982407 -128282,-6982376 -128270,-6982365 -128269,-6982365 -128255,-6982370 -128146,-6982431 -128080,-6982464 -128004,-6982510 -127989,-6982520 -127914,-6982568 -127817,-6982487 -127638,-6982646 -127582,-6982697 -127513,-6982645 -127400,-6982562 -127355,-6982530 -127331,-6982512 -127322,-6982521 -127119,-6982403 -127074,-6982380 -127051,-6982364 -127061,-6982346 -127041,-6982335 -127023,-6982325 -127005,-6982314 -127000,-6982309 -126996,-6982304 -126987,-6982277 -126982,-6982241 -126973,-6982141 -126958,-6982036 -126940,-6982034 -126822,-6982037 -126758,-6982038 -126709,-6982044 -126734,-6981985 -126760,-6981926 -126804,-6981817 -126812,-6981796 -126815,-6981789 -126862,-6981652 -126869,-6981636 -126871,-6981635 -126908,-6981627 -126903,-6981499 -126904,-6981479 -126906,-6981439 -126900,-6981377 -126898,-6981316 -126894,-6981279 -126897,-6981228 -126903,-6981195 -126912,-6981109 -126923,-6981062 -126950,-6980972 -126972,-6980906 -127001,-6980836 -127033,-6980763 -127107,-6980610 -127171,-6980485 -127181,-6980462 -127158,-6980448 -127139,-6980442 -127083,-6980433 -127032,-6980423 -126884,-6980398 -126839,-6980405 -126796,-6980414 -126743,-6980438 -126689,-6980456 -126649,-6980474 -126596,-6980483 -126549,-6980490 -126508,-6980498 -126481,-6980505 -126406,-6980507 -126329,-6980505 -126263,-6980498 -126193,-6980481 -126180,-6980488 -126104,-6980503 -125923,-6980422 -125899,-6980411 -125678,-6980314 -125627,-6980289 -125535,-6980250 -125389,-6980185 -125369,-6980176 -125345,-6980162 -125281,-6980105 -125092,-6979940 -124987,-6979940 -125067,-6979854 -125080,-6979840 -125137,-6979780 -125225,-6979683 -125308,-6979596 -125296,-6979585 -125264,-6979573 -125327,-6979412 -125288,-6979331 -125238,-6979221 -125197,-6979140 -125018,-6978755 -124968,-6978650 -124958,-6978628 -124891,-6978500 -124824,-6978357 -124750,-6978318 -124733,-6978295 -124731,-6978258 -124740,-6978220 -124740,-6978199 -124728,-6978148 -124710,-6978038 -124696,-6977950 -124695,-6977911 -124683,-6977834 -124682,-6977832 -124671,-6977730 -124667,-6977644 -124667,-6977562 -124659,-6977558 -124656,-6977481 -124650,-6977344 -124650,-6977334 -124656,-6977270 -124669,-6977191 -124679,-6977098 -124687,-6977062 -124689,-6977048 -124657,-6977008 -124617,-6976969 -124530,-6976903 -124513,-6976885 -124496,-6976867 -124454,-6976815 -124383,-6976721 -124343,-6976690 -124321,-6976666 -124314,-6976648 -124246,-6976580 -124149,-6976507 -124142,-6976499 -124113,-6976469 -124097,-6976460 -124081,-6976457 -124066,-6976464 -124022,-6976488 -123987,-6976512 -123966,-6976527 -123873,-6976562 -123835,-6976580 -123809,-6976578 -123787,-6976568 -123694,-6976485 -123627,-6976423 -123595,-6976397 -123541,-6976385 -123505,-6976369 -123476,-6976364 -123446,-6976358 -123426,-6976358 -123358,-6976358 -123303,-6976361 -123273,-6976363 -123140,-6976356 -123111,-6976356 -123086,-6976357 -123062,-6976360 -123019,-6976366 -122976,-6976358 -122903,-6976356 -122889,-6976233 -122885,-6976176 -122882,-6976088 -122884,-6975994 -122833,-6976017 -122823,-6975990 -122770,-6976010 -122734,-6976027 -122682,-6976063 -122672,-6975958 -122670,-6975940 -122638,-6975618 -122617,-6975406 -122588,-6975410 -122571,-6975412 -122521,-6975389 -122497,-6975383 -122469,-6975367 -122446,-6975345 -122424,-6975337 -122398,-6975311 -122331,-6975303 -122233,-6975286 -122174,-6975265 -122110,-6975239 -122077,-6975216 -121983,-6975141 -121958,-6975121 -121930,-6975095 -121883,-6975048 -121848,-6974997 -122038,-6974835 -122103,-6974774 -122077,-6974766 -122066,-6974763 -122002,-6974742 -121899,-6974717 -121884,-6974688 -121847,-6974691 -121725,-6974680 -121651,-6974665 -121578,-6974648 -121565,-6974592 -121590,-6974579 -121646,-6974573 -121655,-6974568 -121650,-6974541 -121612,-6974480 -121569,-6974428 -121551,-6974396 -121546,-6974366 -121546,-6974339 -121513,-6974324 -121469,-6974310 -121397,-6974275 -121308,-6974224 -121269,-6974194 -121227,-6974157 -121193,-6974118 -121127,-6974047 -121098,-6974003 -121078,-6973965 -121069,-6973943 -121041,-6973874 -120983,-6973680 -120969,-6973638 -120941,-6973560 -120920,-6973516 -120905,-6973490 -120985,-6973453 -121070,-6973405 -121143,-6973355 -121251,-6973290 -121345,-6973222 -121378,-6973192 -121403,-6973166 -121698,-6972934 -121888,-6972768 -121931,-6972726 -121937,-6972720 -121964,-6972687 -122000,-6972641 -122038,-6972576 -122059,-6972544 -122080,-6972513 -122123,-6972453 -122162,-6972404 -122183,-6972385 -122218,-6972358 -122230,-6972350 -122256,-6972338 -122317,-6972311 -122415,-6972272 -122505,-6972257 -122537,-6972257 -122591,-6972264 -122684,-6972283 -122745,-6972294 -122839,-6972320 -122849,-6972323 -122890,-6972340 -122943,-6972368 -122966,-6972380 -122983,-6972391 -123137,-6972505 -123247,-6972585 -123316,-6972643 -123361,-6972679 -123404,-6972705 -123444,-6972725 -123471,-6972732 -123503,-6972738 -123599,-6972749 -123658,-6972755 -123704,-6972759 -123749,-6972759 -123782,-6972753 -123865,-6972736 -123897,-6972726 -123954,-6972710 -123985,-6972699 -124007,-6972687 -124064,-6972652 -124132,-6972624 -124164,-6972609 -124182,-6972597 -124205,-6972587 -124273,-6972548 -124280,-6972544 -124323,-6972526 -124351,-6972518 -124412,-6972495 -124458,-6972480 -124573,-6972453 -124832,-6972408 -124874,-6972407 -124916,-6972408 -124933,-6972412 -124951,-6972418 -125021,-6972438 -125111,-6972474 -125158,-6972488 -125229,-6972514 -125243,-6972518 -125268,-6972525 -125278,-6972526 -125286,-6972527 -125296,-6972526 -125310,-6972523 -125373,-6972536 -125409,-6972534 -125440,-6972535 -125480,-6972537 -125510,-6972535 -125557,-6972532 -125597,-6972528 -125638,-6972524 -125743,-6972510 -125834,-6972493 -125968,-6972435 -125969,-6972435 -125986,-6972427 -125996,-6972420 -126025,-6972400 -126078,-6972346 -126111,-6972307 -126286,-6972074 -126304,-6972049 -126336,-6971996 -126369,-6971935 -126407,-6971857 -126473,-6971695 -126499,-6971629 -126513,-6971606 -126554,-6971559 -126563,-6971546 -126619,-6971440 -126631,-6971421 -126636,-6971412 -126645,-6971389 -126662,-6971328 -126723,-6971077 -126783,-6970813 -126793,-6970769 -126821,-6970662 -126834,-6970610 -126869,-6970562 -126890,-6970539 -126911,-6970520 -126923,-6970512 -126944,-6970499 -126971,-6970484 -127010,-6970464 -127043,-6970455 -127050,-6970452 -127113,-6970427 -127145,-6970420 -127167,-6970416 -127184,-6970413 -127234,-6970410 -127270,-6970406 -127302,-6970405 -127327,-6970406 -127423,-6970420 -127465,-6970423 -127505,-6970430 -127544,-6970441 -127589,-6970456 -127600,-6970457 -127615,-6970461 -127626,-6970467 -127636,-6970474 -127646,-6970483 -127684,-6970512 -127705,-6970523 -127730,-6970540 -127749,-6970557 -127779,-6970592 -127794,-6970611 -127839,-6970673 -127856,-6970700 -127872,-6970727 -127880,-6970742 -127900,-6970785 -127924,-6970843 -127982,-6970965 -128035,-6971103 -128056,-6971139 -128071,-6971162 -128080,-6971173 -128109,-6971212 -128135,-6971241 -128143,-6971250 -128167,-6971271 -128186,-6971285 -128227,-6971325 -128272,-6971358 -128353,-6971130 -128368,-6971128 -128373,-6971126 -128383,-6971119 -128387,-6971115 -128392,-6971108 -128454,-6970917 -128480,-6970835 -128470,-6970814 -128537,-6970586 -128569,-6970449 -128629,-6970151 -128635,-6970109 -128664,-6969892 -128677,-6969758 -128679,-6969741 -128698,-6969593 -128704,-6969557 -128724,-6969552 -128733,-6969404 -128731,-6969315 -128765,-6969010 -128778,-6968915 -128785,-6968832 -128811,-6968598 -128821,-6968518 -128827,-6968436 -128884,-6967972 -128902,-6967819 -128929,-6967565 -128933,-6967507 -128965,-6967264 -128971,-6967202 -128994,-6967006 -129002,-6966948 -129004,-6966928 -129007,-6966882 -129014,-6966752 -129017,-6966710 -129018,-6966622 -129027,-6966520 -129027,-6966492 -129020,-6966339 -129084,-6966327 -129106,-6966316 -129113,-6966312 -129131,-6966310 -129124,-6966271 -129034,-6965702 -129010,-6965560 -128992,-6965558 -128983,-6965547 -128981,-6965543 -128981,-6965538 -128991,-6965518 -128994,-6965294 -128993,-6965050 -128991,-6964999 -128983,-6964909 -128977,-6964830 -128978,-6964797 -128974,-6964629 -128975,-6964533 -129066,-6964542 -129120,-6964543 -129134,-6964546 -129179,-6964558 -129248,-6964572 -129261,-6964574 -129268,-6964574 -129296,-6964572 -129336,-6964577 -129389,-6964578 -129413,-6964578 -129429,-6964572 -129456,-6964555 -129483,-6964529 -129483,-6964509 -129488,-6964482 -129495,-6964458 -129506,-6964445 -129512,-6964443 -129523,-6964442 -129535,-6964443 -129546,-6964447 -129552,-6964449 -129563,-6964457 -129575,-6964483 -129579,-6964486 -129583,-6964489 -129588,-6964490 -129590,-6964487 -129585,-6964446 -129585,-6964437 -129587,-6964425 -129589,-6964414 -129592,-6964404 -129597,-6964395 -129599,-6964391 -129610,-6964385 -129643,-6964384 -129693,-6964371 -129783,-6964357 -129814,-6964336 -129828,-6964326 -129832,-6964322 -129843,-6964307 -129850,-6964292 -129852,-6964289 -129859,-6964284 -129886,-6964274 -129897,-6964250 -129914,-6964225 -129915,-6964221 -129915,-6964211 -129910,-6964187 -129912,-6964180 -129916,-6964177 -129919,-6964176 -129922,-6964176 -129944,-6964188 -129967,-6964172 -129993,-6964159 -130008,-6964154 -130025,-6964148 -130101,-6964127 -130104,-6964124 -130109,-6964118 -130110,-6964114 -130116,-6964085 -130117,-6964080 -130122,-6964070 -130129,-6964059 -130133,-6964054 -130147,-6964043 -130171,-6964049 -130179,-6964048 -130182,-6964047 -130186,-6964042 -130200,-6963991 -130210,-6963966 -130213,-6963962 -130219,-6963958 -130224,-6963956 -130232,-6963955 -130252,-6963949 -130256,-6963946 -130263,-6963938 -130269,-6963929 -130274,-6963918 -130276,-6963911 -130276,-6963893 -130273,-6963883 -130260,-6963852 -130251,-6963824 -130250,-6963818 -130255,-6963788 -130253,-6963774 -130250,-6963769 -130249,-6963765 -130250,-6963761 -130252,-6963756 -130256,-6963752 -130259,-6963751 -130284,-6963747 -130302,-6963740 -130314,-6963734 -130361,-6963701 -130367,-6963694 -130369,-6963686 -130368,-6963680 -130346,-6963640 -130343,-6963626 -130340,-6963613 -130340,-6963604 -130344,-6963582 -130350,-6963563 -130352,-6963558 -130359,-6963548 -130372,-6963535 -130383,-6963518 -130386,-6963507 -130386,-6963499 -130388,-6963487 -130389,-6963468 -130393,-6963454 -130445,-6963338 -130459,-6963300 -130481,-6963270 -130515,-6963235 -130563,-6963184 -130612,-6963139 -130621,-6963111 -130628,-6963101 -130632,-6963096 -130635,-6963094 -130665,-6963085 -130668,-6963081 -130671,-6963074 -130673,-6963066 -130673,-6963060 -130668,-6963041 -130642,-6963010 -130639,-6963003 -130639,-6962996 -130642,-6962987 -130648,-6962965 -130652,-6962952 -130659,-6962936 -130695,-6962875 -130703,-6962855 -130706,-6962841 -130739,-6962780 -130750,-6962758 -130763,-6962687 -130777,-6962664 -130783,-6962655 -130786,-6962648 -130792,-6962613 -130798,-6962603 -130803,-6962598 -130812,-6962592 -130857,-6962577 -130862,-6962577 -130867,-6962577 -130872,-6962580 -130878,-6962587 -130902,-6962595 -130911,-6962596 -130915,-6962595 -130919,-6962593 -130924,-6962587 -130931,-6962572 -130938,-6962556 -130955,-6962509 -130959,-6962504 -130968,-6962500 -131002,-6962497 -131072,-6962551 -131087,-6962562 -131174,-6962624 -131219,-6962647 -131222,-6962651 -131224,-6962655 -131224,-6962662 -131216,-6962684 -131210,-6962695 -131206,-6962705 -131204,-6962717 -131203,-6962735 -131193,-6962771 -131192,-6962799 -131187,-6962830 -131178,-6962861 -131157,-6962918 -131322,-6962993 -131433,-6963035 -131448,-6963042 -131473,-6963054 -131497,-6963067 -131533,-6963087 -131650,-6963151 -131665,-6963158 -131689,-6963166 -131794,-6963204 -132022,-6963291 -132269,-6963389 -132283,-6963395 -132419,-6963471 -132478,-6963491 -132490,-6963492 -132497,-6963494 -132511,-6963500 -132650,-6963581 -132697,-6963609 -132694,-6963626 -132685,-6963659 -132666,-6963715 -132583,-6963895 -132644,-6963910 -132662,-6963919 -132716,-6963947 -132917,-6964065 -132955,-6964085 -132985,-6964097 -133077,-6964126 -133125,-6964014 -133203,-6964048 -133231,-6964059 -133255,-6964065 -133328,-6964083 -133446,-6964104 -133458,-6964106 -133463,-6964108 -133469,-6964111 -133475,-6964116 -133499,-6964138 -133611,-6964209 -133616,-6964216 -133617,-6964219 -133618,-6964238 -133662,-6964263 -133797,-6964341 -133802,-6964340 -133825,-6964325 -133835,-6964337 -133871,-6964368 -133896,-6964367 -133938,-6964431 -133952,-6964432 -133977,-6964471 -133995,-6964465 -134063,-6964546 -134137,-6964539 -134140,-6964541 -134166,-6964561 -134232,-6964615 -134275,-6964648 -134285,-6964653 -134314,-6964663 -134473,-6964763 -134661,-6964881 -134691,-6964895 -134704,-6964902 -134720,-6964913 -134748,-6964934 -134800,-6964962 -134818,-6964978 -134841,-6965004 -134855,-6964976 -134859,-6964965 -134866,-6964956 -134877,-6964947 -134908,-6964900 -134950,-6964815 -134961,-6964804 -134970,-6964777 -134981,-6964746 -135015,-6964701 -135029,-6964685 -135046,-6964667 -135056,-6964659 -135089,-6964638 -135112,-6964621 -135134,-6964609 -135151,-6964602 -135211,-6964583 -135246,-6964578 -135261,-6964567 -135270,-6964564 -135290,-6964562 -135303,-6964562 -135318,-6964557 -135352,-6964553 -135385,-6964547 -135400,-6964546 -135415,-6964547 -135428,-6964552 -135456,-6964578 -135471,-6964591 -135509,-6964623 -135531,-6964642 -135523,-6964655 -135504,-6964691 -135486,-6964718 -135475,-6964731 -135457,-6964752 -135352,-6964888 -135334,-6964907 -135318,-6964918 -135275,-6964979 -135235,-6965032 -135195,-6965085 -135161,-6965128 -135158,-6965132 -135146,-6965156 -135140,-6965170 -135134,-6965189 -135128,-6965220 -135124,-6965322 -135132,-6965336 -135143,-6965346 -135188,-6965374 -135147,-6965455 -135138,-6965481 -135127,-6965532 -135122,-6965563 -135118,-6965593 -135116,-6965646 -135116,-6965719 -135119,-6965748 -135119,-6965778 -135104,-6965945 -135080,-6966338 -135079,-6966356 -135070,-6966400 -135054,-6966447 -135049,-6966467 -135045,-6966479 -135035,-6966499 -135003,-6966537 -134973,-6966582 -134928,-6966641 -134894,-6966678 -134882,-6966690 -134836,-6966729 -134806,-6966757 -134796,-6966765 -134780,-6966775 -134752,-6966786 -134695,-6966810 -134672,-6966821 -134594,-6966842 -134542,-6966852 -134525,-6966854 -134522,-6966855 -134507,-6966856 -134470,-6966858 -134435,-6966857 -134419,-6966857 -134399,-6966854 -134363,-6966855 -134345,-6966853 -134295,-6966842 -134218,-6966818 -134201,-6966809 -134081,-6966737 -134024,-6966702 -134004,-6966688 -133965,-6966659 -133921,-6966624 -133884,-6966591 -133865,-6966571 -133845,-6966550 -133800,-6966494 -133793,-6966483 -133778,-6966472 -133661,-6966399 -133643,-6966385 -133624,-6966371 -133580,-6966322 -133566,-6966314 -133517,-6966287 -133503,-6966281 -133484,-6966274 -133473,-6966271 -133372,-6966319 -133327,-6966348 -133312,-6966360 -133301,-6966370 -133285,-6966389 -133225,-6966444 -133198,-6966473 -133184,-6966492 -133119,-6966564 -133045,-6966635 -133001,-6966674 -132938,-6966724 -132894,-6966764 -132846,-6966818 -132842,-6966822 -132818,-6966848 -132805,-6966859 -132670,-6966973 -132595,-6967037 -132576,-6967051 -132563,-6967059 -132530,-6967075 -132354,-6967179 -132343,-6967187 -132336,-6967191 -132320,-6967196 -132308,-6967198 -132258,-6967216 -132244,-6967221 -132232,-6967227 -132216,-6967237 -132195,-6967251 -132184,-6967259 -132032,-6967385 -131978,-6967434 -131807,-6967577 -131785,-6967597 -131768,-6967611 -131744,-6967628 -131613,-6967721 -131696,-6967822 -131741,-6967879 -131855,-6968040 -132021,-6968255 -132096,-6968349 -132140,-6968383 -132196,-6968446 -132260,-6968509 -132296,-6968561 -132479,-6968817 -132493,-6968833 -132507,-6968856 -132523,-6968892 -132620,-6968994 -132599,-6969017 -132606,-6969029 -132719,-6969167 -132823,-6969312 -132842,-6969331 -132872,-6969354 -132880,-6969362 -132887,-6969371 -132913,-6969411 -132927,-6969428 -132942,-6969446 -133026,-6969553 -133112,-6969665 -133131,-6969694 -133276,-6969875 -133296,-6969897 -133269,-6969941 -133208,-6969995 -133289,-6970093 -133471,-6970287 -133635,-6970107 -133756,-6970243 -133891,-6970401 -133888,-6970409 -133877,-6970433 -133901,-6970456 -133929,-6970482 -134152,-6970687 -134157,-6970690 -134208,-6970639 -134256,-6970571 -134316,-6970619 -134572,-6970798 -134580,-6970782 -134595,-6970736 -134606,-6970708 -134611,-6970697 -134617,-6970683 -134623,-6970671 -134710,-6970701 -134778,-6970719 -134801,-6970724 -134816,-6970727 -134856,-6970732 -134867,-6970718 -134892,-6970722 -135006,-6970734 -135045,-6970742 -135072,-6970750 -135285,-6970797 -135274,-6970868 -135247,-6971011 -135221,-6971183 -135243,-6971211 -135306,-6971259 -135332,-6971291 -135338,-6971299 -135354,-6971330 -135369,-6971351 -135378,-6971366 -135389,-6971388 -135398,-6971408 -135402,-6971418 -135431,-6971499 -135448,-6971535 -135457,-6971559 -135486,-6971654 -135491,-6971664 -135493,-6971672 -135494,-6971685 -135489,-6971704 -135489,-6971709 -135489,-6971722 -135490,-6971728 -135494,-6971747 -135493,-6971760 -135496,-6971789 -135500,-6971802 -135506,-6971809 -135512,-6971824 -135516,-6971843 -135519,-6971853 -135526,-6971875 -135534,-6971907 -135558,-6971959 -135577,-6971989 -135582,-6972000 -135592,-6972012 -135596,-6972016 -135602,-6972020 -135611,-6972024 -135617,-6972025 -135632,-6972026 -135639,-6972025 -135647,-6972023 -135665,-6972018 -135728,-6972009 -135757,-6972030 -135771,-6972034 -135777,-6972035 -135787,-6972033 -135797,-6972030 -135810,-6972022 -135824,-6972028 -135905,-6972048 -135924,-6972055 -135938,-6972063 -135963,-6972080 -135999,-6972094 -136021,-6972106 -136120,-6972166 -136127,-6972179 -136130,-6972183 -136151,-6972201 -136156,-6972212 -136172,-6972255 -136176,-6972263 -136182,-6972269 -136190,-6972276 -136198,-6972280 -136229,-6972292 -136238,-6972313 -136258,-6972335 -136274,-6972356 -136283,-6972362 -136296,-6972334 -136298,-6972332 -136304,-6972329 -136310,-6972329 -136350,-6972343 -136366,-6972345 -136376,-6972348 -136389,-6972353 -136494,-6972367 -136515,-6972354 -136517,-6972352 -136534,-6972270 -136550,-6972183 -136556,-6972154 -136561,-6972137 -136567,-6972125 -136573,-6972113 -136577,-6972107 -136645,-6972120 -136646,-6972147 -136725,-6972195 -136749,-6972207 -136770,-6972214 -136783,-6972216 -136884,-6972225 -136899,-6972227 -136913,-6972231 -136919,-6972234 -136925,-6972239 -136933,-6972247 -136954,-6972262 -136988,-6972294 -137031,-6972312 -137054,-6972318 -137078,-6972327 -137084,-6972327 -137096,-6972323 -137142,-6972293 -137158,-6972286 -137168,-6972283 -137178,-6972283 -137193,-6972285 -137207,-6972322 -137275,-6972334 -137280,-6972334 -137287,-6972333 -137302,-6972330 -137321,-6972325 -137337,-6972319 -137399,-6972291 -137378,-6972483 -137382,-6972523 -137389,-6972560 -137397,-6972581 -137402,-6972591 -137409,-6972600 -137424,-6972617 -137439,-6972649 -137459,-6972677 -137462,-6972682 -137468,-6972695 -137497,-6972766 -137505,-6972790 -137512,-6972804 -137547,-6972866 -137552,-6972883 -137561,-6972890 -137564,-6972891 -137574,-6972892 -137585,-6972892 -137597,-6972890 -137622,-6972904 -137782,-6972960 -137799,-6972970 -137809,-6972979 -137817,-6972987 -137838,-6973013 -137862,-6973029 -137882,-6973047 -137928,-6973071 -137967,-6973100 -137982,-6973112 -138023,-6973148 -138108,-6973220 -138163,-6973261 -138241,-6973324 -138245,-6973330 -138247,-6973334 -138264,-6973367 -138291,-6973407 -138306,-6973426 -138334,-6973453 -138385,-6973510 -138488,-6973617 -138520,-6973641 -138559,-6973663 -138561,-6973666 -138567,-6973676 -138569,-6973683 -138569,-6973691 -138565,-6973734 -138566,-6973751 -138569,-6973773 -138580,-6973798 -138600,-6973827 -138610,-6973837 -138615,-6973846 -138639,-6973869 -138668,-6973906 -138673,-6973913 -138680,-6973928 -138707,-6974019 -138716,-6974053 -138730,-6974091 -138785,-6974299 -138795,-6974327 -138803,-6974345 -138806,-6974370 -138810,-6974395 -138807,-6974417 -138805,-6974428 -138758,-6974581 -138730,-6974648 -138724,-6974679 -138673,-6974846 -138629,-6974966 -138564,-6975125 -138513,-6975251 -138467,-6975371 -138434,-6975462 -138424,-6975486 -138419,-6975492 -138409,-6975504 -138406,-6975548 -138379,-6975662 -138374,-6975694 -138364,-6975751 -138402,-6975771 -138311,-6975910 -138283,-6975935 -138233,-6975976 -138250,-6975999 -138179,-6976052 -138146,-6976049 -138145,-6976075 -138140,-6976096 -138134,-6976118 -138120,-6976166 -138092,-6976173 -138090,-6976198 -138083,-6976234 -138081,-6976250 -138075,-6976270 -138067,-6976285 -138061,-6976292 -138055,-6976299 -138047,-6976304 -138041,-6976308 -138026,-6976312 -137985,-6976344 -137983,-6976383 -137974,-6976440 -137959,-6976531 -137953,-6976564 -137950,-6976576 -137943,-6976600 -137939,-6976606 -137883,-6976698 -137793,-6976797 -137749,-6976833 -137719,-6976845 -137608,-6976878 -137565,-6976894 -137484,-6976901 -137469,-6976903 -137396,-6976925 -137340,-6976940 -137263,-6976968 -137187,-6977003 -137143,-6977014 -137151,-6977033 -137200,-6977128 -137220,-6977158 -137228,-6977170 -137276,-6977235 -137290,-6977271 -137287,-6977296 -137296,-6977325 -137307,-6977375 -137334,-6977422 -137361,-6977472 -137435,-6977643 -137487,-6977723 -137524,-6977720 -137577,-6977723 -137630,-6977721 -137676,-6977727 -137679,-6977728 -137699,-6977778 -137714,-6977798 -137718,-6977813 -137726,-6977855 -137734,-6977879 -137751,-6977916 -137775,-6977963 -137786,-6977985 -137794,-6978028 -137812,-6978104 -137833,-6978205 -137856,-6978282 -137886,-6978356 -137918,-6978407 -137949,-6978482 -138001,-6978610 -138009,-6978632 -138015,-6978652 -138019,-6978669 -138022,-6978688 -138025,-6978717 -138027,-6978745 -138026,-6978774 -138019,-6978817 -138019,-6978856 -138069,-6978872 -138080,-6978876 -138091,-6978883 -138099,-6978889 -138112,-6978900 -138117,-6978907 -138123,-6978916 -138127,-6978925 -138132,-6978937 -138238,-6978919 -138326,-6978897 -138347,-6978929 -138389,-6978989 -138420,-6979025 -138427,-6979034 -138441,-6979054 -138454,-6979077 -138463,-6979095 -138474,-6979125 -138484,-6979163 -138529,-6979317 -138534,-6979374 -138546,-6979412 -138580,-6979518 -138602,-6979565 -138635,-6979626 -138647,-6979687 -138667,-6979718 -138709,-6979776 -138725,-6979799 -138739,-6979825 -138749,-6979846 -138760,-6979874 -138767,-6979895 -138768,-6979903 -138744,-6979923 -138770,-6980018 -138797,-6980139 -138720,-6980211 -138644,-6980264 -138606,-6980244 -138471,-6980121 -138315,-6979993 -138273,-6979962 -138199,-6979924 -138136,-6979889 -138083,-6979862 -138039,-6979835 -138004,-6979809 -137967,-6979790 -137955,-6979787 -137860,-6979791 -137807,-6979794 -137750,-6979799 -137744,-6979799 -137726,-6979794 -137680,-6979773 -137652,-6979767 -137635,-6979765 -137623,-6979764 -137597,-6979765 -137585,-6979766 -137536,-6979771 -137521,-6979772 -137506,-6979771 -137485,-6979770 -137466,-6979766 -137444,-6979759 -137416,-6979746 -137391,-6979735 -137365,-6979720 -137354,-6979715 -137339,-6979709 -137323,-6979704 -137304,-6979701 -137285,-6979698 -137201,-6979694 -137163,-6979694 -137150,-6979693 -137124,-6979689 -137121,-6979682 -137090,-6979677 -136986,-6979663 -136954,-6979662 -136934,-6979658 -136927,-6979656 -136903,-6979644 -136805,-6979600 -136761,-6979571 -136745,-6979566 -136730,-6979560 -136691,-6979553 -136650,-6979538 -136606,-6979525 -136560,-6979518 -136519,-6979510 -136504,-6979510 -136497,-6979510 -136491,-6979511 -136487,-6979514 -136486,-6979516 -136484,-6979519 -136462,-6979561 -136444,-6979607 -136437,-6979618 -136408,-6979653 -136383,-6979681 -136355,-6979711 -136351,-6979714 -136345,-6979717 -136340,-6979718 -136333,-6979719 -136323,-6979717 -136318,-6979715 -136307,-6979708 -136297,-6979701 -136292,-6979695 -136221,-6979610 -136199,-6979643 -136184,-6979660 -136147,-6979679 -136142,-6979683 -136127,-6979698 -136121,-6979706 -136117,-6979715 -136115,-6979724 -136114,-6979731 -136115,-6979737 -136118,-6979749 -136117,-6979754 -136112,-6979769 -136090,-6979815 -136048,-6979873 -136033,-6979914 -136084,-6979954 -136225,-6980038 -136265,-6980068 -136243,-6980119 -136215,-6980161 -136173,-6980221 -136141,-6980284 -136116,-6980354 -136097,-6980395 -136091,-6980413 -136025,-6980359 -135966,-6980315 -135906,-6980274 -135826,-6980226 -135790,-6980201 -135755,-6980174 -135685,-6980119 -135626,-6980069 -135580,-6980035 -135483,-6979979 -135429,-6979941 -135378,-6979908 -135324,-6979889 -135276,-6979879 -135258,-6979880 -135244,-6979883 -135229,-6979889 -135219,-6979894 -135205,-6979904 -135191,-6979912 -135187,-6979916 -135166,-6979942 -135138,-6979972 -135127,-6979986 -135120,-6980002 -135117,-6980015 -135104,-6980046 -135095,-6980060 -135073,-6980093 -135069,-6980108 -135058,-6980121 -135054,-6980129 -135053,-6980135 -135053,-6980141 -135055,-6980152 -135055,-6980156 -135054,-6980162 -135048,-6980176 -134993,-6980219 -134875,-6980321 -134834,-6980367 -134799,-6980403 -134789,-6980413 -134771,-6980418 -134768,-6980420 -134762,-6980431 -134758,-6980436 -134755,-6980438 -134750,-6980440 -134744,-6980440 -134739,-6980440 -134729,-6980436 -134717,-6980436 -134699,-6980442 -134684,-6980449 -134668,-6980457 -134630,-6980467 -134576,-6980485 -134527,-6980508 -134429,-6980562 -134366,-6980584 -134324,-6980602 -134298,-6980611 -134257,-6980623 -134241,-6980624 -134225,-6980620 -134213,-6980615 -134198,-6980614 -134194,-6980616 -134190,-6980617 -134185,-6980629 -134180,-6980641 -134172,-6980665 -134107,-6980641 -134050,-6980616 -133985,-6980598 -133983,-6980606 -133973,-6980654 -133956,-6980691 -134068,-6980738 -134193,-6980783 -134244,-6980815 -134329,-6980854 -134442,-6980898 -134520,-6980931 -134591,-6980971 -134659,-6981014 -134712,-6981050 -134794,-6981107 -134827,-6981134 -134868,-6981170 -134906,-6981198 -134933,-6981215 -134946,-6981219 -135025,-6981231 -135136,-6981258 -135209,-6981274 -135244,-6981289 -135279,-6981308 -135321,-6981325 -135344,-6981333 -135381,-6981343 -135417,-6981350 -135511,-6981374 -135627,-6981400 -135710,-6981425 -135698,-6981462 -135680,-6981527 -135672,-6981570 -135669,-6981654 -135665,-6981686 -135662,-6981700 -135657,-6981716 -135630,-6981789 -135607,-6981842 -135578,-6981900 -135557,-6981938 -135533,-6981976 -135513,-6982008 -135431,-6982122 -135254,-6982361 -135215,-6982426 -135186,-6982477 -135134,-6982516 -135343,-6982952 -135390,-6983029 -135407,-6983075 -135453,-6983128 -135477,-6983165 -135493,-6983192 -135505,-6983211 -135525,-6983238 -135538,-6983253 -135551,-6983268 -135565,-6983282 -135587,-6983301 -135599,-6983313 -135633,-6983347 -135674,-6983393 -135695,-6983425 -135708,-6983443 -135721,-6983460 -135750,-6983493 -135787,-6983538 -135812,-6983574 -135825,-6983585 -135876,-6983627 -135852,-6983716 -135841,-6983782 -135834,-6983844 -135822,-6983891 -135823,-6983947 -135809,-6983991 -135792,-6984016 -135770,-6984052 -135726,-6984110 -135717,-6984123 -135709,-6984131 -135696,-6984142 -135656,-6984164 -135665,-6984197 -135676,-6984207 -135730,-6984249 -135781,-6984285 -135863,-6984326 -135941,-6984372 -135964,-6984367 -136053,-6984362 -136073,-6984359 -136089,-6984358 -136104,-6984358 -136118,-6984359 -136130,-6984360 -136142,-6984364 -136154,-6984369 -136166,-6984377 -136212,-6984396 -136258,-6984424 -136285,-6984445 -136308,-6984456 -136327,-6984459 -136355,-6984483 -136382,-6984495 -136337,-6984591 -136251,-6984581 -136214,-6984575 -136177,-6984569 -136112,-6984553 -136075,-6984548 -136007,-6984596 -135932,-6984646 -135851,-6984706 -135789,-6984759 -135726,-6984819 -135642,-6984863 -135572,-6984898 -135425,-6985007 -135346,-6985071 -135302,-6985109 -135258,-6985146 -135171,-6985223 -135112,-6985271 -135039,-6985333 -135027,-6985345 -135011,-6985362 -134994,-6985385 -134981,-6985403 -134965,-6985430 -134951,-6985460 -134918,-6985533 -134893,-6985595 -134830,-6985731 -134814,-6985773 -134804,-6985802 -134797,-6985828 -134790,-6985858 -134785,-6985888 -134775,-6985961 -134768,-6986018 -134762,-6986050 -134757,-6986066 -134745,-6986101 -134726,-6986148 -134705,-6986232 -134704,-6986255 -134708,-6986305 -134714,-6986336 -134683,-6986354 -134632,-6986362 -134624,-6986366 -134614,-6986375 -134608,-6986379 -134589,-6986383 -134567,-6986397 -134547,-6986405 -134527,-6986413 -134499,-6986423 -134478,-6986427 -134458,-6986437 -134441,-6986445 -134429,-6986448 -134411,-6986448 -134387,-6986451 -134368,-6986447 -134328,-6986454 -134296,-6986456 -134255,-6986453 -134208,-6986451 -134132,-6986438 -134078,-6986429 -134032,-6986415 -133919,-6986390 -133836,-6986354 -133742,-6986315 -133698,-6986306 -133640,-6986259 -133635,-6986254 -133627,-6986244 -133618,-6986229 -133604,-6986178 -133589,-6986141 -133577,-6986108 -133458,-6986032 -133387,-6985970 -133376,-6985962 -133363,-6985953 -133350,-6985947 -133340,-6985943 -133327,-6985940 -133302,-6985938 -133255,-6985931 -133103,-6985879 -133095,-6985876 -133047,-6985856 -133003,-6985883 -132955,-6985898 -132886,-6985936 -132802,-6985987 -132717,-6986036 -132583,-6986118 -132521,-6986147 -132456,-6986172 -132412,-6986190 -132399,-6986193 -132390,-6986197 -132381,-6986201 -132373,-6986206 -132365,-6986212 -132354,-6986225 -132346,-6986237 -132341,-6986256 -132332,-6986271 -132295,-6986309 -132282,-6986321 -132214,-6986306 -132115,-6986286 -132096,-6986248 -132081,-6986245 -132070,-6986243 -132060,-6986239 -132048,-6986233 -132035,-6986226 -132023,-6986217 -132011,-6986207 -132001,-6986198 -131995,-6986189 -131988,-6986179 -131981,-6986166 -131920,-6986076 -131899,-6986054 -131884,-6986043 -131868,-6986033 -131860,-6986029 -131842,-6986071 -131837,-6986084 -131832,-6986105 -131826,-6986129 -131820,-6986167 -131819,-6986184 -131819,-6986213 -131816,-6986228 -131812,-6986242 -131806,-6986255 -131798,-6986267 -131791,-6986276 -131785,-6986282 -131779,-6986286 -131769,-6986291 -131733,-6986302 -131722,-6986308 -131713,-6986316 -131707,-6986326 -131702,-6986338 -131696,-6986355 -131690,-6986380 -131674,-6986405 -131662,-6986433 -131652,-6986424 -131652,-6986395 -131647,-6986349 -131652,-6986320 -131699,-6986133 -131708,-6986098" stroke="#003087" stroke-width="41" /></svg>