<?xml version="1.0" standalone="no"?>
<!DOCTYPE svg PUBLIC "-//W3C//DTD SVG 1.1//EN"
"http://www.w3.org/Graphics/SVG/1.1/DTD/svg11.dtd">
<svg height="115" version="1.1" viewBox="-173307 -6977109 19344 19771" width="220" xmlns="http://www.w3.org/2000/svg"><polygon fill="#003087" points=" -164833,-6977090 -164810,-6977087 -164787,-6977094 -164762,-6977102 -164735,-6977052 -164720,-6977014 -164715,-6976995 -164788,-6976963 -164804,-6976954 -164788,-6976947 -164771,-6976918 -164737,-6976852 -164726,-6976831 -164705,-6976785 -164686,-6976756 -164678,-6976743 -164663,-6976713 -164632,-6976646 -164625,-6976613 -164620,-6976593 -164614,-6976574 -164601,-6976537 -164585,-6976460 -164507,-6976422 -164490,-6976417 -164428,-6976414 -164413,-6976411 -164384,-6976401 -164381,-6976404 -164378,-6976406 -164358,-6976462 -164343,-6976486 -164324,-6976507 -164294,-6976549 -164259,-6976582 -164233,-6976604 -164217,-6976619 -164208,-6976628 -164187,-6976664 -164181,-6976671 -164171,-6976683 -164166,-6976688 -164155,-6976698 -164125,-6976662 -164092,-6976626 -164079,-6976614 -164052,-6976593 -164024,-6976574 -164010,-6976566 -163914,-6976526 -163884,-6976513 -163822,-6976492 -163787,-6976487 -163773,-6976486 -163760,-6976487 -163675,-6976494 -163602,-6976510 -163570,-6976519 -163541,-6976529 -163491,-6976537 -163445,-6976541 -163424,-6976540 -163416,-6976537 -163403,-6976530 -163397,-6976526 -163388,-6976515 -163377,-6976493 -163367,-6976464 -163350,-6976421 -163344,-6976405 -163333,-6976366 -163320,-6976335 -163316,-6976315 -163296,-6976268 -163284,-6976237 -163266,-6976180 -163265,-6976165 -163256,-6976117 -163254,-6976102 -163251,-6976061 -163251,-6976021 -163254,-6975996 -163262,-6975969 -163295,-6975902 -163341,-6975831 -163371,-6975775 -163384,-6975758 -163395,-6975736 -163399,-6975724 -163402,-6975712 -163405,-6975685 -163397,-6975562 -163390,-6975539 -163372,-6975506 -163343,-6975465 -163307,-6975400 -163289,-6975373 -163269,-6975343 -163249,-6975311 -163233,-6975277 -163223,-6975253 -163216,-6975230 -163214,-6975219 -163214,-6975208 -163215,-6975170 -163220,-6975138 -163230,-6975107 -163235,-6975098 -163239,-6975089 -163251,-6975068 -163263,-6975042 -163289,-6974998 -163307,-6974969 -163323,-6974945 -163331,-6974935 -163342,-6974921 -163352,-6974900 -163360,-6974877 -163368,-6974847 -163370,-6974835 -163371,-6974820 -163371,-6974805 -163371,-6974801 -163369,-6974780 -163365,-6974758 -163361,-6974743 -163355,-6974726 -163346,-6974706 -163339,-6974692 -163324,-6974667 -163300,-6974633 -163291,-6974622 -163281,-6974611 -163271,-6974603 -163262,-6974596 -163240,-6974586 -163213,-6974568 -163203,-6974555 -163197,-6974535 -163195,-6974499 -163195,-6974496 -163197,-6974482 -163201,-6974465 -163207,-6974449 -163215,-6974432 -163223,-6974419 -163233,-6974406 -163242,-6974395 -163251,-6974387 -163267,-6974376 -163286,-6974363 -163306,-6974353 -163331,-6974341 -163345,-6974313 -163346,-6974302 -163348,-6974236 -163359,-6974182 -163364,-6974165 -163372,-6974147 -163376,-6974139 -163420,-6974078 -163430,-6974062 -163439,-6974046 -163446,-6974029 -163455,-6974006 -163460,-6973994 -163465,-6973973 -163470,-6973930 -163473,-6973911 -163478,-6973876 -163099,-6973791 -162812,-6973725 -162762,-6973713 -162453,-6973650 -162475,-6973585 -162495,-6973542 -162499,-6973530 -162366,-6973501 -162373,-6973460 -162299,-6973439 -162281,-6973431 -162279,-6973431 -162238,-6973472 -162203,-6973505 -162180,-6973522 -161789,-6973456 -161746,-6973451 -161715,-6973383 -161714,-6973366 -161719,-6973285 -161647,-6973360 -161465,-6973547 -161442,-6973467 -161427,-6973468 -161406,-6973406 -161380,-6973425 -161363,-6973435 -161135,-6973518 -161121,-6973523 -161104,-6973528 -161057,-6973542 -160938,-6973584 -160863,-6973607 -160800,-6973621 -160717,-6973636 -160650,-6973645 -160592,-6973650 -160498,-6973651 -160446,-6973655 -160420,-6973663 -160250,-6973739 -160004,-6973839 -159961,-6973855 -159875,-6973886 -159759,-6973934 -159691,-6973965 -159635,-6973996 -159637,-6973975 -159632,-6973967 -159620,-6973963 -159587,-6973949 -159496,-6973923 -159454,-6973908 -159444,-6973904 -159395,-6973880 -159366,-6973869 -159335,-6973861 -159291,-6973856 -159220,-6973851 -159152,-6973843 -159067,-6973820 -159036,-6973814 -159011,-6973811 -158978,-6973812 -158892,-6973818 -158814,-6973821 -158787,-6973821 -158706,-6973817 -158642,-6973815 -158559,-6973811 -158525,-6973811 -158459,-6973818 -158406,-6973823 -158371,-6973829 -158266,-6973850 -158101,-6973887 -157833,-6973870 -157736,-6973866 -157561,-6973854 -157331,-6973839 -157069,-6973823 -156880,-6973814 -157202,-6973471 -157371,-6973298 -157454,-6973209 -157676,-6972971 -157823,-6972664 -157914,-6972471 -157948,-6972406 -158252,-6971949 -158340,-6971756 -158390,-6971649 -158396,-6971636 -158459,-6971490 -158464,-6971399 -158469,-6971289 -158471,-6971202 -158472,-6971192 -158474,-6971184 -158480,-6971170 -158506,-6971125 -158514,-6971103 -158470,-6971111 -158290,-6970747 -158247,-6970663 -158240,-6970640 -158192,-6970573 -158129,-6970489 -158124,-6970481 -158131,-6970470 -158133,-6970463 -158134,-6970455 -158131,-6970450 -158127,-6970445 -158098,-6970415 -158062,-6970388 -158007,-6970335 -157996,-6970326 -157990,-6970324 -157984,-6970323 -157975,-6970328 -157967,-6970330 -157948,-6970328 -157940,-6970327 -157931,-6970328 -157915,-6970332 -157902,-6970342 -157890,-6970359 -157885,-6970369 -157844,-6970371 -157822,-6970370 -157810,-6970378 -157790,-6970377 -157742,-6970365 -157720,-6970366 -157711,-6970363 -157713,-6970356 -157735,-6970332 -157738,-6970320 -157727,-6970317 -157714,-6970321 -157702,-6970321 -157646,-6970310 -157602,-6970301 -157574,-6970298 -157542,-6970295 -157527,-6970290 -157502,-6970304 -157490,-6970304 -157482,-6970300 -157485,-6970291 -157484,-6970287 -157483,-6970283 -157478,-6970278 -157475,-6970278 -157461,-6970283 -157446,-6970285 -157421,-6970271 -157410,-6970266 -157359,-6970261 -157348,-6970265 -157318,-6970295 -157305,-6970289 -157289,-6970274 -157238,-6970257 -157206,-6970249 -157176,-6970248 -157155,-6970253 -157096,-6970249 -157084,-6970267 -157056,-6970261 -157050,-6970260 -157030,-6970261 -157014,-6970252 -157000,-6970251 -156968,-6970262 -156950,-6970272 -156941,-6970272 -156930,-6970270 -156919,-6970267 -156901,-6970261 -156876,-6970266 -156862,-6970273 -156843,-6970285 -156836,-6970291 -156832,-6970301 -156826,-6970301 -156820,-6970300 -156796,-6970284 -156784,-6970280 -156772,-6970271 -156762,-6970258 -156759,-6970256 -156737,-6970260 -156723,-6970260 -156694,-6970267 -156679,-6970281 -156642,-6970284 -156622,-6970283 -156614,-6970294 -156597,-6970308 -156579,-6970312 -156556,-6970312 -156518,-6970320 -156484,-6970335 -156468,-6970350 -156454,-6970359 -156436,-6970358 -156421,-6970360 -156404,-6970372 -156386,-6970372 -156379,-6970376 -156360,-6970395 -156354,-6970405 -156361,-6970430 -156359,-6970444 -156350,-6970454 -156337,-6970455 -156320,-6970476 -156313,-6970482 -156298,-6970486 -156269,-6970476 -156245,-6970473 -156237,-6970470 -156231,-6970468 -156217,-6970437 -156208,-6970427 -156178,-6970401 -156140,-6970362 -156099,-6970314 -156076,-6970291 -156043,-6970252 -156009,-6970214 -155978,-6970178 -155958,-6970162 -155938,-6970151 -155923,-6970146 -155908,-6970157 -155898,-6970156 -155855,-6970149 -155799,-6970134 -155755,-6970121 -155663,-6970099 -155625,-6970086 -155614,-6970082 -155604,-6970078 -155578,-6970064 -155552,-6970056 -155531,-6970045 -155490,-6970007 -155460,-6969974 -155439,-6969953 -155429,-6969936 -155438,-6969888 -155445,-6969841 -155453,-6969792 -155394,-6969788 -155352,-6969779 -155296,-6969770 -155206,-6969761 -155168,-6969756 -155130,-6969751 -155060,-6969738 -155000,-6969733 -154939,-6969724 -154865,-6969715 -154833,-6969711 -154826,-6969709 -154819,-6969706 -154758,-6969672 -154683,-6969633 -154557,-6969562 -154518,-6969536 -154478,-6969518 -154459,-6969531 -154437,-6969527 -154406,-6969514 -154388,-6969521 -154370,-6969521 -154360,-6969519 -154332,-6969494 -154326,-6969481 -154349,-6969446 -154296,-6969427 -154210,-6969391 -154169,-6969377 -154143,-6969365 -154131,-6969355 -154122,-6969353 -154111,-6969339 -154069,-6969327 -154045,-6969318 -153983,-6969312 -153963,-6969308 -154001,-6969188 -154032,-6969082 -154055,-6968992 -154058,-6968952 -154058,-6968918 -154113,-6968915 -154215,-6968915 -154268,-6968925 -154322,-6968928 -154338,-6968857 -154363,-6968800 -154374,-6968769 -154384,-6968738 -154398,-6968685 -154410,-6968651 -154493,-6968674 -154546,-6968690 -154618,-6968700 -154668,-6968711 -154690,-6968719 -154692,-6968639 -154700,-6968578 -154699,-6968516 -154693,-6968438 -154693,-6968402 -154687,-6968363 -154681,-6968324 -154671,-6968267 -154664,-6968218 -154648,-6968162 -154637,-6968115 -154625,-6968075 -154588,-6967988 -154566,-6967951 -154547,-6967909 -154532,-6967880 -154528,-6967857 -154534,-6967796 -154530,-6967700 -154530,-6967661 -154524,-6967614 -154518,-6967582 -154504,-6967531 -154494,-6967483 -154493,-6967431 -154485,-6967382 -154480,-6967336 -154478,-6967240 -154478,-6967237 -154480,-6967107 -154482,-6967058 -154480,-6967012 -154479,-6967003 -154488,-6966972 -154495,-6966930 -154498,-6966886 -154501,-6966846 -154502,-6966813 -154501,-6966796 -154496,-6966739 -154488,-6966631 -154497,-6966613 -154511,-6966564 -154530,-6966528 -154547,-6966511 -154550,-6966499 -154539,-6966481 -154536,-6966475 -154538,-6966470 -154551,-6966449 -154562,-6966421 -154579,-6966384 -154595,-6966346 -154612,-6966311 -154655,-6966242 -154662,-6966231 -154670,-6966222 -154699,-6966191 -154732,-6966149 -154744,-6966143 -154771,-6966136 -154777,-6966133 -154783,-6966130 -154793,-6966119 -154794,-6966109 -154792,-6966100 -154801,-6966097 -154812,-6966089 -154818,-6966079 -154821,-6966068 -154837,-6966049 -154847,-6966026 -154874,-6965972 -154884,-6965935 -154893,-6965916 -154897,-6965909 -154906,-6965910 -154916,-6965909 -154927,-6965902 -154931,-6965889 -154930,-6965870 -154930,-6965832 -154930,-6965800 -154929,-6965760 -154871,-6965724 -154805,-6965674 -154842,-6965587 -154847,-6965572 -154855,-6965543 -154870,-6965480 -154878,-6965453 -154880,-6965427 -154874,-6965361 -154857,-6965305 -154843,-6965271 -154835,-6965259 -154793,-6965203 -154778,-6965174 -154751,-6965112 -154726,-6965060 -154700,-6965017 -154682,-6964989 -154658,-6964959 -154648,-6964944 -154623,-6964900 -154586,-6964846 -154561,-6964813 -154540,-6964792 -154598,-6964798 -154807,-6964831 -154877,-6964842 -154931,-6964849 -154978,-6964857 -155046,-6964862 -155139,-6964864 -155177,-6964860 -155254,-6964855 -155313,-6964847 -155477,-6964830 -155651,-6964812 -155690,-6964807 -155753,-6964794 -155783,-6964789 -155838,-6964772 -155848,-6964771 -155857,-6964769 -155864,-6964771 -155884,-6964779 -155901,-6964757 -155927,-6964722 -155937,-6964711 -155951,-6964700 -155982,-6964680 -156025,-6964655 -156062,-6964638 -156087,-6964628 -156113,-6964619 -156155,-6964607 -156160,-6964523 -156161,-6964446 -156163,-6964403 -156164,-6964370 -156167,-6964335 -156184,-6964282 -156189,-6964264 -156191,-6964249 -156193,-6964233 -156195,-6964200 -156199,-6964169 -156198,-6964120 -156207,-6964060 -156210,-6964045 -156218,-6964021 -156225,-6963993 -156232,-6963973 -156235,-6963957 -156230,-6963941 -156214,-6963914 -156189,-6963865 -156178,-6963836 -156175,-6963826 -156173,-6963804 -156176,-6963782 -156192,-6963713 -156193,-6963711 -156282,-6963706 -156447,-6963693 -156495,-6963685 -156497,-6963673 -156499,-6963646 -156499,-6963595 -156504,-6963548 -156506,-6963512 -156539,-6963521 -156571,-6963527 -156565,-6963451 -156566,-6963379 -156571,-6963347 -156602,-6963356 -156599,-6963338 -156593,-6963323 -156591,-6963315 -156588,-6963297 -156588,-6963288 -156593,-6963269 -156602,-6963245 -156614,-6963230 -156627,-6963244 -156650,-6963169 -156726,-6962953 -156691,-6962941 -156693,-6962909 -156694,-6962872 -156687,-6962809 -156686,-6962758 -156691,-6962672 -156692,-6962619 -156699,-6962605 -156773,-6962599 -156784,-6962574 -156791,-6962569 -156880,-6962554 -156894,-6962509 -156909,-6962438 -156945,-6962361 -156938,-6962264 -156932,-6962110 -156931,-6962052 -156930,-6962019 -156930,-6962005 -156973,-6962024 -156988,-6962030 -157002,-6962038 -157015,-6961996 -157018,-6961985 -157037,-6961904 -157042,-6961879 -157047,-6961824 -157055,-6961771 -157072,-6961716 -157087,-6961680 -157129,-6961632 -157145,-6961614 -157215,-6961624 -157275,-6961626 -157350,-6961617 -157370,-6961616 -157381,-6961617 -157397,-6961620 -157449,-6961640 -157514,-6961662 -157643,-6961706 -157710,-6961720 -157743,-6961721 -157758,-6961714 -157803,-6961690 -157823,-6961682 -157866,-6961678 -157900,-6961677 -157952,-6961670 -157947,-6961592 -157967,-6961548 -157989,-6961506 -158013,-6961455 -158021,-6961441 -158029,-6961427 -158048,-6961399 -158073,-6961357 -158103,-6961269 -158103,-6961267 -158113,-6961215 -158115,-6961185 -158125,-6961123 -158126,-6961075 -158138,-6961038 -158145,-6960974 -158145,-6960936 -158135,-6960812 -158127,-6960761 -158097,-6960676 -158080,-6960640 -158074,-6960628 -158063,-6960611 -158040,-6960592 -158028,-6960579 -158079,-6960520 -158084,-6960513 -158029,-6960462 -157984,-6960402 -157929,-6960338 -157907,-6960317 -157895,-6960309 -157864,-6960290 -157877,-6960273 -157830,-6960216 -157729,-6960104 -157692,-6960055 -157683,-6960044 -157680,-6960038 -157751,-6960009 -157826,-6959984 -157945,-6959947 -158037,-6959920 -158259,-6959851 -158490,-6959782 -158642,-6959728 -158675,-6959712 -158678,-6959688 -158667,-6959634 -158654,-6959594 -158652,-6959579 -158650,-6959549 -158650,-6959534 -158656,-6959518 -158677,-6959472 -158721,-6959390 -158769,-6959328 -158791,-6959304 -158813,-6959284 -158846,-6959264 -158890,-6959231 -158971,-6959176 -159026,-6959132 -159078,-6959083 -159118,-6959047 -159134,-6959036 -159162,-6959026 -159104,-6958993 -159063,-6958964 -159035,-6958941 -159013,-6958916 -158947,-6958825 -158926,-6958799 -158911,-6958773 -158888,-6958779 -158851,-6958776 -158834,-6958793 -158790,-6958785 -158757,-6958828 -158721,-6958814 -158700,-6958816 -158639,-6958789 -158629,-6958780 -158616,-6958759 -158611,-6958696 -158611,-6958683 -158611,-6958669 -158616,-6958624 -158581,-6958536 -158555,-6958481 -158542,-6958431 -158508,-6958316 -158499,-6958292 -158497,-6958268 -158470,-6958079 -158591,-6958043 -158614,-6958054 -158690,-6958041 -158749,-6958030 -158766,-6958042 -158831,-6958032 -158959,-6958020 -158928,-6957870 -158988,-6957863 -159038,-6957862 -159072,-6957862 -159154,-6957851 -159237,-6957834 -159387,-6957806 -159554,-6957772 -159699,-6957741 -159781,-6957725 -159782,-6957718 -159850,-6957700 -159855,-6957709 -159899,-6957701 -159939,-6957694 -160008,-6957676 -160067,-6957666 -160065,-6957614 -160069,-6957575 -160070,-6957536 -160083,-6957493 -160100,-6957455 -160134,-6957483 -160151,-6957501 -160170,-6957536 -160197,-6957592 -160219,-6957584 -160298,-6957553 -160390,-6957527 -160398,-6957566 -160425,-6957524 -160462,-6957476 -160473,-6957463 -160537,-6957418 -160578,-6957397 -160598,-6957388 -160653,-6957367 -160696,-6957349 -160742,-6957340 -160754,-6957339 -160779,-6957338 -160809,-6957343 -160838,-6957351 -160873,-6957360 -160912,-6957367 -160993,-6957385 -160950,-6957419 -160915,-6957457 -160879,-6957493 -160843,-6957540 -160817,-6957600 -160817,-6957617 -160817,-6957634 -160826,-6957667 -160839,-6957734 -160848,-6957753 -160858,-6957763 -160897,-6957797 -160960,-6957876 -160973,-6957887 -161011,-6957918 -161020,-6957930 -161042,-6957945 -161068,-6957960 -161090,-6957974 -161134,-6958048 -161195,-6958143 -161218,-6958181 -161262,-6958255 -161284,-6958290 -161303,-6958321 -161313,-6958335 -161322,-6958346 -161334,-6958360 -161349,-6958374 -161364,-6958386 -161388,-6958403 -161402,-6958424 -161425,-6958431 -161459,-6958437 -161477,-6958430 -161485,-6958430 -161491,-6958435 -161497,-6958440 -161509,-6958474 -161515,-6958484 -161523,-6958494 -161548,-6958521 -161613,-6958580 -161712,-6958658 -161736,-6958678 -161787,-6958712 -161859,-6958755 -161898,-6958779 -161998,-6958843 -162022,-6958859 -162138,-6958931 -162261,-6959010 -162587,-6959217 -162878,-6959405 -162944,-6959445 -162981,-6959459 -163006,-6959465 -163324,-6959526 -163350,-6959302 -163379,-6959086 -163597,-6959104 -163889,-6959122 -163945,-6959128 -164023,-6959129 -164358,-6959152 -164549,-6959162 -164733,-6959175 -164734,-6959175 -164916,-6959186 -165112,-6959204 -165245,-6959214 -165234,-6959189 -165202,-6959143 -165155,-6959063 -165156,-6959062 -165178,-6959049 -165352,-6959018 -165439,-6958999 -165481,-6958984 -165537,-6958969 -165591,-6958950 -165592,-6958941 -165588,-6958917 -165590,-6958899 -165618,-6958896 -165674,-6958893 -165737,-6958884 -165762,-6958878 -165815,-6958869 -165836,-6958869 -165905,-6958865 -165981,-6958872 -165997,-6958877 -166011,-6958895 -166021,-6958897 -166048,-6958896 -166075,-6958897 -166118,-6958912 -166211,-6958949 -166223,-6958951 -166224,-6958951 -166234,-6958928 -166253,-6958933 -166274,-6958939 -166368,-6959002 -166443,-6959057 -166397,-6959215 -166346,-6959383 -166312,-6959494 -166266,-6959657 -166288,-6959677 -166463,-6959851 -166460,-6959857 -166416,-6959897 -166478,-6959953 -166543,-6960015 -166607,-6960064 -166610,-6960111 -166619,-6960196 -166613,-6960250 -166661,-6960253 -166684,-6960256 -166714,-6960262 -166767,-6960282 -166890,-6960321 -166966,-6960327 -166968,-6960382 -166966,-6960401 -166956,-6960433 -166965,-6960464 -166968,-6960511 -166978,-6960650 -166972,-6960672 -166953,-6960701 -166934,-6960753 -166926,-6960781 -166918,-6960827 -166913,-6960885 -166897,-6961048 -166883,-6961055 -166886,-6961074 -166884,-6961105 -166886,-6961139 -166903,-6961258 -166922,-6961330 -167023,-6961244 -167173,-6961110 -167181,-6961102 -167184,-6961103 -167202,-6961127 -167215,-6961144 -167217,-6961165 -167205,-6961201 -167162,-6961318 -167172,-6961322 -167179,-6961323 -167186,-6961323 -167200,-6961322 -167228,-6961318 -167243,-6961316 -167288,-6961303 -167298,-6961397 -167309,-6961526 -167325,-6961693 -167325,-6961725 -167405,-6961729 -167488,-6961734 -167582,-6961730 -167603,-6961734 -167614,-6961732 -167628,-6961731 -167641,-6961730 -167718,-6961730 -168046,-6961733 -168064,-6961727 -168194,-6961724 -168216,-6961730 -168221,-6961729 -168318,-6961719 -168419,-6961711 -168549,-6961698 -168605,-6961700 -168619,-6961743 -168674,-6961888 -168702,-6961951 -168714,-6961967 -168741,-6962023 -168795,-6962011 -168826,-6962019 -168877,-6962035 -168924,-6962047 -168985,-6962067 -169044,-6962083 -169074,-6962096 -169171,-6962116 -169200,-6962127 -169206,-6962129 -169222,-6962130 -169261,-6962131 -169318,-6962144 -169361,-6962146 -169451,-6962165 -169518,-6962162 -169551,-6962175 -169561,-6962186 -169570,-6962196 -169679,-6962463 -169682,-6962493 -169716,-6962691 -169733,-6962794 -169811,-6962815 -169914,-6962844 -169956,-6962830 -169975,-6962827 -170010,-6962823 -170015,-6962830 -170106,-6962802 -170141,-6962764 -170145,-6962756 -170147,-6962748 -170148,-6962740 -170147,-6962732 -170142,-6962716 -170227,-6962644 -170358,-6962566 -170411,-6962523 -170392,-6962489 -170425,-6962466 -170447,-6962454 -170584,-6962395 -170657,-6962362 -170685,-6962350 -170758,-6962314 -170803,-6962388 -170895,-6962355 -170974,-6962330 -171015,-6962377 -171087,-6962345 -171111,-6962388 -171140,-6962379 -171211,-6962383 -171244,-6962391 -171255,-6962396 -171269,-6962407 -171284,-6962409 -171309,-6962415 -171320,-6962421 -171331,-6962428 -171421,-6962493 -171394,-6962540 -171473,-6962594 -171620,-6962591 -171615,-6962812 -171623,-6962812 -171623,-6962876 -171619,-6962993 -171623,-6963028 -171623,-6963039 -171617,-6963070 -171620,-6963074 -171633,-6963089 -171661,-6963112 -171621,-6963158 -171552,-6963230 -171479,-6963312 -171391,-6963404 -171449,-6963423 -171549,-6963429 -171552,-6963431 -171577,-6963452 -171611,-6963485 -171627,-6963491 -171645,-6963521 -171702,-6963627 -171774,-6963856 -171763,-6963857 -171737,-6963873 -171721,-6963889 -171702,-6963926 -171810,-6964123 -171901,-6964296 -171985,-6964582 -172025,-6964567 -172153,-6964511 -172167,-6964518 -172199,-6964493 -172264,-6964450 -172306,-6964516 -172373,-6964649 -172391,-6964683 -172411,-6964717 -172461,-6964802 -172486,-6964788 -172477,-6964828 -172544,-6964931 -172673,-6964862 -172691,-6964896 -172731,-6964963 -172759,-6965007 -172764,-6965004 -172842,-6965134 -172945,-6965311 -172947,-6965324 -172990,-6965396 -173056,-6965516 -173095,-6965593 -173114,-6965638 -173119,-6965669 -173060,-6965674 -172978,-6965678 -172984,-6965713 -173016,-6965865 -173037,-6965979 -173063,-6966100 -173019,-6966133 -173028,-6966154 -173020,-6966186 -172994,-6966221 -173006,-6966261 -173049,-6966371 -173055,-6966386 -173079,-6966424 -173111,-6966522 -173139,-6966605 -173154,-6966665 -173159,-6966681 -173180,-6966746 -173213,-6966823 -173172,-6966844 -173220,-6966942 -173261,-6967018 -173193,-6967057 -173176,-6967070 -173307,-6967231 -173135,-6967346 -173006,-6967432 -172991,-6967442 -172747,-6967609 -172664,-6967669 -172666,-6967676 -172674,-6967719 -172689,-6967756 -172708,-6967808 -172730,-6967912 -172734,-6967928 -172723,-6967976 -172715,-6967992 -172709,-6968012 -172706,-6968029 -172708,-6968037 -172714,-6968063 -172720,-6968113 -172725,-6968124 -172729,-6968160 -172738,-6968231 -172753,-6968314 -172764,-6968356 -172781,-6968407 -172797,-6968474 -172830,-6968581 -172865,-6968689 -172825,-6968696 -172798,-6968697 -172749,-6968703 -172684,-6968706 -172631,-6968710 -172583,-6968719 -172520,-6968729 -172501,-6968735 -172483,-6968741 -172358,-6968790 -172294,-6968816 -172021,-6968931 -171884,-6968990 -171792,-6968996 -171672,-6969010 -171619,-6969015 -171428,-6969026 -171399,-6969032 -171392,-6969035 -171315,-6969066 -171235,-6969094 -171199,-6969109 -171186,-6969119 -171118,-6969196 -171053,-6969272 -170992,-6969336 -170904,-6969425 -170711,-6969661 -170677,-6969702 -170609,-6969781 -170577,-6969819 -170384,-6970051 -170345,-6970089 -170295,-6970139 -170237,-6970195 -170203,-6970237 -170171,-6970277 -170068,-6970406 -169985,-6970506 -169968,-6970518 -169907,-6970550 -169838,-6970583 -169826,-6970593 -169813,-6970613 -169724,-6970585 -169497,-6970511 -169400,-6970492 -169346,-6970500 -169289,-6970551 -169253,-6970596 -169220,-6970642 -169204,-6970660 -169191,-6970668 -169140,-6970691 -169055,-6970724 -168982,-6970758 -168901,-6970798 -168868,-6970811 -168835,-6970822 -168768,-6970844 -168724,-6970849 -168688,-6970859 -168632,-6970878 -168590,-6970889 -168450,-6970965 -168370,-6971001 -168302,-6971027 -168292,-6971037 -168284,-6971057 -168269,-6971151 -168279,-6971163 -168285,-6971176 -168263,-6971337 -168255,-6971375 -168216,-6971512 -168200,-6971565 -168024,-6971506 -167962,-6971480 -167873,-6971436 -167862,-6971482 -167808,-6971649 -167786,-6971719 -167784,-6971726 -167736,-6971842 -167728,-6971848 -167719,-6971840 -167714,-6971882 -167718,-6971894 -167720,-6971897 -167743,-6971910 -167753,-6971933 -167758,-6971950 -167767,-6971967 -167778,-6971983 -167772,-6972017 -167773,-6972020 -167775,-6972022 -167779,-6972023 -167798,-6972029 -167823,-6972039 -167834,-6972046 -167838,-6972050 -167844,-6972063 -167849,-6972077 -167850,-6972082 -167849,-6972087 -167847,-6972095 -167845,-6972099 -167827,-6972114 -167819,-6972123 -167817,-6972128 -167816,-6972134 -167814,-6972164 -167816,-6972189 -167822,-6972210 -167839,-6972239 -167843,-6972242 -167853,-6972248 -167857,-6972251 -167861,-6972255 -167863,-6972260 -167865,-6972266 -167863,-6972272 -167861,-6972279 -167855,-6972293 -167847,-6972321 -167860,-6972333 -167871,-6972345 -167876,-6972361 -167876,-6972374 -167875,-6972380 -167870,-6972391 -167867,-6972397 -167849,-6972426 -167845,-6972434 -167842,-6972443 -167838,-6972471 -167837,-6972489 -167838,-6972495 -167840,-6972501 -167848,-6972515 -167851,-6972521 -167853,-6972541 -167853,-6972546 -167844,-6972574 -167844,-6972595 -167847,-6972618 -167853,-6972630 -167853,-6972650 -167860,-6972656 -167885,-6972651 -167888,-6972653 -167892,-6972659 -167893,-6972662 -167894,-6972681 -167889,-6972697 -167862,-6972708 -167856,-6972721 -167858,-6972725 -167860,-6972729 -167864,-6972733 -167870,-6972736 -167890,-6972745 -167905,-6972759 -167913,-6972764 -167922,-6972768 -167959,-6972779 -167961,-6972782 -167963,-6972785 -167964,-6972794 -167965,-6972802 -167965,-6972814 -167970,-6972823 -167987,-6972847 -167989,-6972854 -167990,-6972861 -167988,-6972886 -167996,-6972910 -167993,-6972929 -167993,-6972937 -167993,-6972945 -167997,-6972961 -168011,-6972974 -168038,-6972979 -168043,-6972982 -168052,-6972990 -168068,-6973012 -168074,-6973018 -168083,-6973023 -168092,-6973028 -168145,-6973045 -168160,-6973056 -168166,-6973077 -168081,-6973113 -167950,-6973164 -167860,-6973196 -167876,-6973245 -167881,-6973261 -167906,-6973351 -167819,-6973378 -167751,-6973398 -167705,-6973413 -167636,-6973445 -167655,-6973487 -167691,-6973558 -167720,-6973609 -167742,-6973654 -167754,-6973686 -167777,-6973800 -167796,-6973881 -167815,-6973945 -167825,-6973991 -167827,-6974026 -167828,-6974113 -167829,-6974147 -167831,-6974183 -167838,-6974259 -167846,-6974393 -167846,-6974429 -167839,-6974476 -167830,-6974554 -167783,-6974546 -167714,-6974531 -167655,-6974580 -167561,-6974655 -167546,-6974666 -167488,-6974709 -167447,-6974722 -167393,-6974737 -167380,-6974777 -167360,-6974796 -166910,-6974864 -166899,-6974865 -166847,-6974864 -166734,-6974864 -166727,-6974877 -166723,-6974897 -166733,-6974924 -166743,-6974975 -166753,-6975016 -166745,-6975035 -166728,-6975048 -166718,-6975059 -166712,-6975074 -166707,-6975094 -166697,-6975118 -166690,-6975129 -166666,-6975165 -166654,-6975186 -166647,-6975234 -166651,-6975257 -166650,-6975282 -166644,-6975308 -166639,-6975320 -166630,-6975341 -166600,-6975367 -166595,-6975383 -166590,-6975410 -166575,-6975442 -166565,-6975460 -166555,-6975477 -166545,-6975490 -166536,-6975502 -166520,-6975520 -166508,-6975537 -166496,-6975554 -166476,-6975592 -166457,-6975616 -166436,-6975632 -166418,-6975641 -166401,-6975643 -166392,-6975642 -166382,-6975641 -166357,-6975635 -166368,-6975659 -166387,-6975704 -166403,-6975737 -166437,-6975822 -166446,-6975841 -166466,-6975878 -166474,-6975898 -166482,-6975918 -166501,-6975980 -166539,-6976086 -166553,-6976129 -166568,-6976162 -166582,-6976198 -166575,-6976200 -166564,-6976206 -166561,-6976215 -166563,-6976224 -166571,-6976253 -166576,-6976280 -166597,-6976329 -166595,-6976331 -166539,-6976357 -166542,-6976374 -166563,-6976434 -166572,-6976465 -166583,-6976495 -166586,-6976520 -166559,-6976526 -166518,-6976530 -166467,-6976533 -166467,-6976548 -166469,-6976567 -166465,-6976629 -166467,-6976689 -166436,-6976700 -166356,-6976727 -166300,-6976738 -166245,-6976746 -166190,-6976757 -166118,-6976781 -166110,-6976761 -166100,-6976733 -166084,-6976696 -166067,-6976701 -166005,-6976723 -165971,-6976731 -165942,-6976747 -165912,-6976742 -165911,-6976742 -165874,-6976729 -165854,-6976728 -165825,-6976734 -165808,-6976736 -165743,-6976738 -165661,-6976747 -165632,-6976749 -165571,-6976748 -165526,-6976755 -165477,-6976750 -165442,-6976749 -165376,-6976748 -165343,-6976750 -165329,-6976754 -165302,-6976762 -165288,-6976768 -165256,-6976782 -165146,-6976844 -165123,-6976857 -165129,-6976877 -165156,-6976946 -165127,-6976963 -165056,-6977003 -165021,-6977024 -164962,-6977061 -164920,-6977084 -164881,-6977109 -164857,-6977098 -164833,-6977090" stroke="#003087" stroke-width="39" /></svg>