<?xml version="1.0" standalone="no"?>
<!DOCTYPE svg PUBLIC "-//W3C//DTD SVG 1.1//EN"
"http://www.w3.org/Graphics/SVG/1.1/DTD/svg11.dtd">
<svg height="115" version="1.1" viewBox="-249217 -7000166 17758 27113" width="220" xmlns="http://www.w3.org/2000/svg"><polygon fill="#003087" points=" -244452,-6999984 -244446,-6999984 -244426,-6999987 -244419,-6999988 -244412,-6999987 -244396,-6999981 -244380,-6999980 -244368,-6999981 -244363,-6999980 -244358,-6999978 -244353,-6999971 -244333,-6999944 -244317,-6999930 -244304,-6999926 -244296,-6999925 -244270,-6999926 -244250,-6999925 -244240,-6999924 -244182,-6999893 -244147,-6999878 -244113,-6999865 -244095,-6999851 -244080,-6999832 -244052,-6999802 -244032,-6999790 -244010,-6999793 -244004,-6999794 -243991,-6999792 -243966,-6999788 -243937,-6999774 -243906,-6999770 -243887,-6999774 -243880,-6999774 -243868,-6999772 -243844,-6999764 -243815,-6999755 -243793,-6999745 -243781,-6999741 -243748,-6999736 -243710,-6999733 -243674,-6999727 -243668,-6999711 -243668,-6999678 -243603,-6999666 -243533,-6999657 -243522,-6999657 -243513,-6999657 -243500,-6999660 -243488,-6999664 -243479,-6999669 -243471,-6999675 -243460,-6999689 -243454,-6999700 -243448,-6999706 -243384,-6999703 -243364,-6999703 -243350,-6999696 -243337,-6999683 -243330,-6999679 -243324,-6999675 -243318,-6999674 -243251,-6999681 -243227,-6999687 -243181,-6999678 -243142,-6999659 -243112,-6999642 -243097,-6999628 -243076,-6999612 -243060,-6999602 -243029,-6999596 -242984,-6999583 -242954,-6999570 -242941,-6999566 -242897,-6999552 -242875,-6999547 -242872,-6999547 -242858,-6999559 -242844,-6999570 -242827,-6999587 -242816,-6999600 -242810,-6999625 -242784,-6999621 -242780,-6999630 -242771,-6999655 -242758,-6999684 -242731,-6999725 -242687,-6999795 -242652,-6999856 -242632,-6999872 -242615,-6999893 -242602,-6999912 -242593,-6999920 -242575,-6999934 -242565,-6999940 -242550,-6999947 -242528,-6999950 -242513,-6999949 -242490,-6999938 -242482,-6999931 -242474,-6999923 -242446,-6999892 -242433,-6999880 -242431,-6999879 -242412,-6999883 -242335,-6999806 -242306,-6999763 -242290,-6999719 -242281,-6999706 -242261,-6999691 -242207,-6999660 -242181,-6999647 -242168,-6999641 -242141,-6999634 -242133,-6999635 -242122,-6999640 -242106,-6999638 -242092,-6999648 -242038,-6999709 -242008,-6999697 -241992,-6999679 -241972,-6999650 -241939,-6999622 -241929,-6999623 -241911,-6999639 -241898,-6999649 -241807,-6999583 -241780,-6999552 -241752,-6999560 -241726,-6999515 -241748,-6999488 -241797,-6999457 -241728,-6999373 -241680,-6999317 -241668,-6999326 -241591,-6999217 -241563,-6999175 -241509,-6999088 -241485,-6999092 -241443,-6998925 -241410,-6998802 -241451,-6998781 -241379,-6998657 -241360,-6998629 -241292,-6998458 -241267,-6998411 -241246,-6998404 -241227,-6998386 -241207,-6998363 -241177,-6998314 -241169,-6998300 -241151,-6998260 -241142,-6998221 -241135,-6998181 -241126,-6998132 -241115,-6998044 -241109,-6997995 -241110,-6997940 -241109,-6997931 -241104,-6997907 -241095,-6997876 -241080,-6997828 -241074,-6997799 -241069,-6997745 -241069,-6997711 -241068,-6997702 -241063,-6997684 -241042,-6997611 -241003,-6997497 -240987,-6997458 -240981,-6997445 -240945,-6997396 -240936,-6997380 -240916,-6997339 -240884,-6997279 -240864,-6997232 -240858,-6997215 -240854,-6997189 -240854,-6997162 -240867,-6997105 -240875,-6997074 -240880,-6997047 -240880,-6997041 -240875,-6997021 -240844,-6996964 -240837,-6996947 -240831,-6996931 -240813,-6996880 -240808,-6996825 -240803,-6996792 -240778,-6996715 -240766,-6996685 -240764,-6996641 -240770,-6996562 -240745,-6996560 -240730,-6996575 -240726,-6996578 -240720,-6996580 -240695,-6996581 -240686,-6996577 -240684,-6996566 -240680,-6996562 -240661,-6996557 -240679,-6996518 -240660,-6996508 -240649,-6996495 -240640,-6996470 -240641,-6996463 -240682,-6996438 -240672,-6996394 -240740,-6996372 -240740,-6996369 -240735,-6996342 -240723,-6996316 -240711,-6996297 -240694,-6996277 -240612,-6996300 -240602,-6996179 -240646,-6996165 -240647,-6996164 -240644,-6996147 -240637,-6996126 -240614,-6996095 -240606,-6996084 -240602,-6996073 -240598,-6996061 -240592,-6996006 -240590,-6996000 -240579,-6995980 -240577,-6995978 -240497,-6996000 -240449,-6996019 -240432,-6996029 -240413,-6996034 -240401,-6996037 -240370,-6996041 -240346,-6996041 -240320,-6996037 -240313,-6996028 -240300,-6996041 -240280,-6996044 -240277,-6996053 -240251,-6996062 -240240,-6996067 -240216,-6996071 -240206,-6996069 -240187,-6996089 -240176,-6996091 -240172,-6996099 -240158,-6996092 -240115,-6996050 -240105,-6996046 -240100,-6996045 -240095,-6996046 -240085,-6996049 -240075,-6996037 -240052,-6996048 -240045,-6996045 -240044,-6996046 -240024,-6996057 -240001,-6996065 -239991,-6996064 -239987,-6996062 -239983,-6996058 -239979,-6996049 -239970,-6996050 -239964,-6996059 -239958,-6996062 -239932,-6996056 -239926,-6996050 -239924,-6996040 -239932,-6996023 -239934,-6996018 -239933,-6996014 -239931,-6996010 -239927,-6996008 -239922,-6996007 -239909,-6996006 -239905,-6996005 -239903,-6996001 -239899,-6995984 -239900,-6995939 -239885,-6995944 -239875,-6995938 -239871,-6995939 -239854,-6995944 -239847,-6995942 -239842,-6995928 -239833,-6995925 -239817,-6995934 -239811,-6995936 -239789,-6995953 -239786,-6995955 -239782,-6995956 -239777,-6995956 -239763,-6995952 -239761,-6995951 -239761,-6995921 -239756,-6995910 -239755,-6995894 -239752,-6995880 -239739,-6995858 -239730,-6995852 -239716,-6995847 -239711,-6995850 -239697,-6995862 -239686,-6995864 -239672,-6995864 -239662,-6995887 -239657,-6995909 -239636,-6995912 -239619,-6995920 -239599,-6995940 -239572,-6995958 -239557,-6995971 -239522,-6995994 -239515,-6995987 -239492,-6995914 -239482,-6995884 -239475,-6995869 -239444,-6995889 -239414,-6995905 -239367,-6995937 -239315,-6995974 -239280,-6995993 -239276,-6995994 -239242,-6995947 -239240,-6995947 -239223,-6995953 -239154,-6995995 -239137,-6996006 -239116,-6996024 -239095,-6995970 -239085,-6995954 -239052,-6995919 -238991,-6995858 -238960,-6995823 -238946,-6995812 -238959,-6995793 -238900,-6995747 -238870,-6995725 -238826,-6995700 -238783,-6995679 -238770,-6995686 -238754,-6995693 -238738,-6995699 -238723,-6995702 -238708,-6995705 -238679,-6995707 -238659,-6995713 -238644,-6995703 -238630,-6995708 -238574,-6995769 -238569,-6995790 -238569,-6995809 -238561,-6995833 -238542,-6995827 -238523,-6995824 -238521,-6995814 -238516,-6995791 -238508,-6995738 -238494,-6995667 -238470,-6995678 -238455,-6995683 -238358,-6995712 -238293,-6995727 -238275,-6995731 -238265,-6995707 -238242,-6995713 -238228,-6995673 -238214,-6995632 -238229,-6995619 -238222,-6995606 -238240,-6995575 -238252,-6995544 -238258,-6995532 -238275,-6995504 -238280,-6995491 -238273,-6995482 -238251,-6995459 -238236,-6995413 -238223,-6995393 -238208,-6995362 -238200,-6995347 -238198,-6995343 -238194,-6995334 -238191,-6995326 -238199,-6995316 -238189,-6995290 -238183,-6995276 -238173,-6995264 -238163,-6995251 -238161,-6995241 -238154,-6995208 -238146,-6995191 -238144,-6995183 -238143,-6995180 -238137,-6995139 -238138,-6995124 -238142,-6995113 -238129,-6995075 -238099,-6995081 -238043,-6995109 -238010,-6995113 -237935,-6995107 -237895,-6995097 -237862,-6995085 -237834,-6995072 -237792,-6995043 -237765,-6995032 -237751,-6995027 -237736,-6995023 -237721,-6995021 -237638,-6995013 -237627,-6995013 -237602,-6995015 -237558,-6995026 -237526,-6995034 -237494,-6995041 -237444,-6995051 -237392,-6995065 -237331,-6995080 -237311,-6995084 -237291,-6995087 -237238,-6995089 -237126,-6995094 -237086,-6995099 -237062,-6995097 -237036,-6995098 -236999,-6995105 -236948,-6995117 -236886,-6995136 -236870,-6995140 -236847,-6995135 -236832,-6995126 -236820,-6995117 -236802,-6995104 -236780,-6995086 -236726,-6995042 -236698,-6995028 -236671,-6995019 -236637,-6994987 -236598,-6994952 -236608,-6994894 -236608,-6994893 -236622,-6994843 -236650,-6994765 -236669,-6994718 -236690,-6994671 -236696,-6994656 -236719,-6994559 -236726,-6994520 -236729,-6994489 -236732,-6994458 -236734,-6994415 -236743,-6994353 -236762,-6994253 -236770,-6994227 -236783,-6994173 -236805,-6994082 -236817,-6993995 -236818,-6993981 -236819,-6993957 -236817,-6993955 -236811,-6993945 -236813,-6993911 -236820,-6993861 -236822,-6993843 -236823,-6993823 -236822,-6993706 -236826,-6993591 -236829,-6993543 -236829,-6993491 -236831,-6993385 -236831,-6993285 -236832,-6993239 -236835,-6993203 -236838,-6993170 -236844,-6993124 -236845,-6993086 -236841,-6993059 -236837,-6993012 -236825,-6992953 -236825,-6992944 -236589,-6992802 -236455,-6992725 -236441,-6992739 -236411,-6992708 -236377,-6992668 -236315,-6992601 -236292,-6992581 -236272,-6992566 -236264,-6992547 -236227,-6992512 -236203,-6992504 -236184,-6992501 -236177,-6992507 -236156,-6992490 -236141,-6992473 -236191,-6992435 -236115,-6992344 -236094,-6992321 -236039,-6992259 -235977,-6992184 -235941,-6992146 -235905,-6992106 -235879,-6992079 -235834,-6992045 -235812,-6992029 -235776,-6992004 -235728,-6991968 -235695,-6991945 -235630,-6991895 -235616,-6991887 -235669,-6991815 -235691,-6991805 -235783,-6991787 -235792,-6991786 -235822,-6991786 -235879,-6991793 -235898,-6991799 -235923,-6991805 -235942,-6991811 -235950,-6991812 -235957,-6991787 -235900,-6991753 -235879,-6991737 -235822,-6991696 -235770,-6991663 -235797,-6991624 -235907,-6991688 -235954,-6991714 -235992,-6991737 -236053,-6991769 -236083,-6991789 -236128,-6991809 -236144,-6991817 -236206,-6991855 -236238,-6991873 -236294,-6991904 -236318,-6991916 -236410,-6991957 -236431,-6991963 -236438,-6991952 -236469,-6991962 -236509,-6991972 -236542,-6991975 -236549,-6991973 -236569,-6991969 -236595,-6991959 -236630,-6991955 -236661,-6991943 -236697,-6991909 -236726,-6991902 -236780,-6991904 -236796,-6991899 -236801,-6991895 -236787,-6991866 -236828,-6991866 -236855,-6991870 -236867,-6991872 -236877,-6991876 -236893,-6991892 -236918,-6991907 -236949,-6991878 -236973,-6991898 -237003,-6991928 -237019,-6991915 -237035,-6991925 -237089,-6991888 -237111,-6991871 -237135,-6991858 -237154,-6991849 -237173,-6991834 -237190,-6991816 -237231,-6991801 -237252,-6991789 -237273,-6991772 -237280,-6991768 -237288,-6991765 -237307,-6991758 -237308,-6991758 -237289,-6991734 -237275,-6991717 -237263,-6991696 -237248,-6991667 -237224,-6991610 -237177,-6991493 -237119,-6991346 -237106,-6991314 -237061,-6991206 -237017,-6991096 -237003,-6991062 -236917,-6990846 -236896,-6990798 -236877,-6990749 -236856,-6990707 -236823,-6990649 -236819,-6990634 -236815,-6990599 -236811,-6990586 -236806,-6990572 -236769,-6990482 -236740,-6990422 -236721,-6990425 -236712,-6990327 -236710,-6990293 -236712,-6990282 -236719,-6990245 -236752,-6990182 -236767,-6990159 -236761,-6990147 -236751,-6990150 -236739,-6990145 -236720,-6990140 -236751,-6990080 -236763,-6990058 -236769,-6990031 -236769,-6990005 -236768,-6989995 -236767,-6989987 -236739,-6989983 -236724,-6989978 -236717,-6989976 -236692,-6989957 -236662,-6989936 -236663,-6989920 -236659,-6989903 -236689,-6989866 -236724,-6989833 -236728,-6989816 -236726,-6989804 -236725,-6989786 -236728,-6989778 -236753,-6989728 -236763,-6989714 -236782,-6989697 -236822,-6989648 -236908,-6989737 -237017,-6989588 -236972,-6989518 -236958,-6989491 -236955,-6989483 -236948,-6989455 -236941,-6989433 -236921,-6989407 -236889,-6989370 -236824,-6989289 -236806,-6989269 -236778,-6989238 -236759,-6989219 -236732,-6989199 -236644,-6989124 -236617,-6989105 -236602,-6989100 -236556,-6989112 -236556,-6989058 -236554,-6989052 -236538,-6989041 -236525,-6989027 -236463,-6988934 -236454,-6988919 -236437,-6988890 -236420,-6988857 -236412,-6988840 -236411,-6988769 -236407,-6988743 -236406,-6988715 -236409,-6988679 -236417,-6988666 -236426,-6988643 -236437,-6988615 -236456,-6988574 -236478,-6988544 -236482,-6988535 -236472,-6988520 -236474,-6988495 -236459,-6988472 -236447,-6988438 -236408,-6988348 -236405,-6988326 -236398,-6988297 -236379,-6988241 -236373,-6988217 -236368,-6988188 -236359,-6988153 -236303,-6988212 -236295,-6988220 -236286,-6988226 -236278,-6988230 -236249,-6988241 -236241,-6988242 -236234,-6988241 -236224,-6988226 -236218,-6988211 -236218,-6988198 -236209,-6988178 -236141,-6988078 -236097,-6988118 -236051,-6988158 -236013,-6988118 -236004,-6988123 -235985,-6988101 -235961,-6988117 -235905,-6988055 -235929,-6988041 -235883,-6987940 -235864,-6987891 -235898,-6987875 -235921,-6987863 -235935,-6987852 -235945,-6987837 -235963,-6987788 -235971,-6987758 -235983,-6987731 -236009,-6987684 -236067,-6987585 -236085,-6987560 -236090,-6987550 -236096,-6987539 -236103,-6987501 -236115,-6987497 -236119,-6987493 -236126,-6987481 -236135,-6987463 -236150,-6987442 -236155,-6987426 -236153,-6987411 -236153,-6987393 -236159,-6987371 -236182,-6987328 -236190,-6987304 -236194,-6987283 -236200,-6987263 -236229,-6987214 -236247,-6987180 -236259,-6987162 -236265,-6987153 -236272,-6987146 -236304,-6987121 -236312,-6987113 -236325,-6987098 -236335,-6987080 -236337,-6987074 -236337,-6987057 -236340,-6987046 -236377,-6987025 -236402,-6987006 -236413,-6987001 -236399,-6986982 -236394,-6986962 -236387,-6986943 -236379,-6986938 -236371,-6986942 -236363,-6986940 -236343,-6986914 -236337,-6986900 -236346,-6986867 -236320,-6986835 -236309,-6986837 -236300,-6986842 -236299,-6986852 -236291,-6986858 -236277,-6986851 -236266,-6986856 -236253,-6986851 -236235,-6986840 -236224,-6986832 -236210,-6986831 -236202,-6986830 -236187,-6986825 -236179,-6986822 -236164,-6986810 -236161,-6986789 -236154,-6986777 -236144,-6986765 -236128,-6986760 -236111,-6986756 -236105,-6986752 -236104,-6986748 -236105,-6986739 -236112,-6986722 -236093,-6986709 -236102,-6986691 -236104,-6986678 -236107,-6986665 -236121,-6986573 -236123,-6986565 -236134,-6986557 -236155,-6986551 -236180,-6986555 -236209,-6986558 -236237,-6986554 -236248,-6986552 -236259,-6986549 -236274,-6986541 -236275,-6986540 -236278,-6986491 -236278,-6986479 -236274,-6986462 -236216,-6986462 -236226,-6986426 -236224,-6986412 -236205,-6986389 -236198,-6986374 -236189,-6986373 -236169,-6986335 -236164,-6986330 -236155,-6986343 -236138,-6986363 -236115,-6986376 -236095,-6986377 -236089,-6986380 -236077,-6986392 -236072,-6986401 -236068,-6986424 -236058,-6986446 -236051,-6986456 -236034,-6986446 -236005,-6986432 -235992,-6986427 -235968,-6986418 -235922,-6986404 -235882,-6986400 -235849,-6986399 -235832,-6986401 -235813,-6986382 -235777,-6986342 -235764,-6986328 -235736,-6986304 -235709,-6986285 -235700,-6986277 -235692,-6986269 -235680,-6986251 -235669,-6986234 -235664,-6986225 -235657,-6986204 -235645,-6986186 -235621,-6986167 -235602,-6986149 -235594,-6986154 -235573,-6986126 -235572,-6986116 -235551,-6986120 -235524,-6986113 -235482,-6986095 -235445,-6986062 -235429,-6986050 -235413,-6986029 -235400,-6986004 -235394,-6985984 -235397,-6985975 -235400,-6985966 -235427,-6985925 -235445,-6985894 -235452,-6985879 -235475,-6985819 -235510,-6985777 -235519,-6985766 -235535,-6985742 -235547,-6985728 -235544,-6985708 -235522,-6985671 -235482,-6985618 -235435,-6985567 -235387,-6985525 -235342,-6985500 -235300,-6985460 -235248,-6985546 -235218,-6985544 -235186,-6985546 -235174,-6985548 -235098,-6985568 -235076,-6985570 -235058,-6985570 -235048,-6985567 -235022,-6985557 -234990,-6985555 -234980,-6985555 -234960,-6985566 -234946,-6985562 -234936,-6985554 -234913,-6985546 -234911,-6985537 -234872,-6985521 -234864,-6985519 -234861,-6985531 -234843,-6985524 -234826,-6985517 -234876,-6985421 -234873,-6985419 -234834,-6985393 -234803,-6985371 -234793,-6985387 -234787,-6985405 -234789,-6985420 -234779,-6985434 -234766,-6985445 -234687,-6985404 -234690,-6985390 -234701,-6985343 -234653,-6985311 -234621,-6985295 -234576,-6985275 -234562,-6985268 -234530,-6985249 -234492,-6985230 -234488,-6985217 -234465,-6985202 -234440,-6985183 -234410,-6985166 -234403,-6985162 -234395,-6985147 -234283,-6985096 -234259,-6985085 -234210,-6985059 -234200,-6985053 -234191,-6985047 -234174,-6985033 -234164,-6985021 -234156,-6985006 -234154,-6984991 -234158,-6984983 -234163,-6984974 -234180,-6984948 -234194,-6984935 -234201,-6984927 -234207,-6984918 -234212,-6984908 -234215,-6984899 -234217,-6984891 -234218,-6984863 -234212,-6984853 -234180,-6984830 -234169,-6984822 -234147,-6984803 -234125,-6984783 -234116,-6984774 -234108,-6984764 -234107,-6984762 -234113,-6984738 -234116,-6984720 -234120,-6984705 -234095,-6984686 -234070,-6984661 -234063,-6984658 -234135,-6984543 -234160,-6984508 -234169,-6984496 -234187,-6984450 -234199,-6984391 -234215,-6984401 -234228,-6984383 -234202,-6984346 -234195,-6984328 -234176,-6984312 -234157,-6984298 -234152,-6984293 -234180,-6984259 -234203,-6984227 -234217,-6984211 -234223,-6984201 -234238,-6984195 -234263,-6984174 -234295,-6984142 -234330,-6984110 -234407,-6984036 -234437,-6984017 -234491,-6983972 -234513,-6983958 -234549,-6983932 -234565,-6983913 -234578,-6983895 -234585,-6983878 -234585,-6983834 -234584,-6983821 -234583,-6983806 -234578,-6983766 -234573,-6983710 -234570,-6983654 -234576,-6983621 -234587,-6983596 -234624,-6983549 -234638,-6983526 -234644,-6983511 -234645,-6983505 -234646,-6983490 -234646,-6983481 -234642,-6983458 -234630,-6983420 -234619,-6983387 -234588,-6983298 -234581,-6983263 -234524,-6983129 -234502,-6983068 -234449,-6982924 -234425,-6982847 -234382,-6982732 -234350,-6982644 -234329,-6982593 -234321,-6982571 -234305,-6982555 -234284,-6982541 -234226,-6982481 -234169,-6982431 -234154,-6982415 -234122,-6982383 -234089,-6982357 -234059,-6982338 -234021,-6982308 -234006,-6982293 -233978,-6982263 -233942,-6982220 -233912,-6982191 -233902,-6982181 -233894,-6982210 -233878,-6982233 -233866,-6982247 -233832,-6982268 -233845,-6982289 -233815,-6982314 -233770,-6982340 -233763,-6982348 -233744,-6982371 -233719,-6982402 -233694,-6982436 -233682,-6982453 -233657,-6982494 -233623,-6982473 -233611,-6982507 -233598,-6982546 -233560,-6982531 -233469,-6982503 -233435,-6982494 -233416,-6982556 -233371,-6982550 -233340,-6982541 -233319,-6982566 -233293,-6982566 -233291,-6982581 -233281,-6982582 -233277,-6982628 -233221,-6982670 -233221,-6982695 -233222,-6982768 -233202,-6982771 -233133,-6982776 -233106,-6982740 -232841,-6982784 -232787,-6982696 -232739,-6982715 -232727,-6982702 -232709,-6982688 -232696,-6982675 -232691,-6982671 -232672,-6982663 -232667,-6982651 -232662,-6982609 -232655,-6982579 -232642,-6982575 -232622,-6982575 -232602,-6982572 -232528,-6982497 -232498,-6982468 -232492,-6982446 -232486,-6982435 -232483,-6982414 -232484,-6982405 -232488,-6982381 -232488,-6982364 -232465,-6982322 -232444,-6982290 -232439,-6982270 -232439,-6982259 -232440,-6982248 -232445,-6982228 -232476,-6982181 -232478,-6982176 -232480,-6982153 -232475,-6982129 -232474,-6982123 -232477,-6982114 -232480,-6982105 -232489,-6982097 -232496,-6982093 -232498,-6982090 -232499,-6982087 -232501,-6982078 -232494,-6982078 -232486,-6982076 -232478,-6982074 -232472,-6982072 -232467,-6982069 -232458,-6982053 -232459,-6982030 -232462,-6982008 -232463,-6981985 -232448,-6981957 -232442,-6981937 -232446,-6981923 -232445,-6981904 -232440,-6981884 -232418,-6981865 -232410,-6981849 -232405,-6981804 -232405,-6981779 -232416,-6981745 -232413,-6981728 -232412,-6981706 -232418,-6981690 -232429,-6981672 -232444,-6981642 -232473,-6981602 -232501,-6981557 -232508,-6981546 -232515,-6981522 -232522,-6981511 -232552,-6981462 -232562,-6981444 -232570,-6981425 -232568,-6981416 -232563,-6981411 -232558,-6981409 -232549,-6981406 -232536,-6981403 -232532,-6981401 -232529,-6981387 -232531,-6981367 -232519,-6981344 -232503,-6981320 -232502,-6981317 -232502,-6981307 -232521,-6981292 -232526,-6981282 -232520,-6981269 -232510,-6981263 -232502,-6981262 -232479,-6981261 -232467,-6981253 -232469,-6981220 -232468,-6981214 -232466,-6981208 -232459,-6981191 -232442,-6981165 -232441,-6981161 -232440,-6981158 -232442,-6981127 -232437,-6981114 -232437,-6981089 -232438,-6981083 -232448,-6981062 -232459,-6981046 -232462,-6981044 -232489,-6981062 -232517,-6981077 -232636,-6981178 -232659,-6981196 -232683,-6981150 -232631,-6981111 -232691,-6980893 -232826,-6980819 -232827,-6980817 -232830,-6980786 -232819,-6980777 -232829,-6980683 -232832,-6980580 -232842,-6980456 -232839,-6980435 -232839,-6980412 -232853,-6980382 -232867,-6980336 -232844,-6980326 -232854,-6980285 -232722,-6980243 -232681,-6980224 -232661,-6980213 -232653,-6980207 -232638,-6980192 -232618,-6980159 -232567,-6980080 -232651,-6979986 -232647,-6979983 -232582,-6979930 -232510,-6979874 -232066,-6979528 -232038,-6979554 -232015,-6979485 -231993,-6979434 -231967,-6979381 -231928,-6979311 -231918,-6979297 -231959,-6979230 -232003,-6979164 -232050,-6979087 -232094,-6979018 -231901,-6978860 -231795,-6978765 -231655,-6978914 -231608,-6978796 -231565,-6978683 -231505,-6978528 -231585,-6978498 -231596,-6978492 -231624,-6978471 -231630,-6978464 -231599,-6978440 -231594,-6978434 -231578,-6978414 -231562,-6978395 -231543,-6978385 -231529,-6978372 -231520,-6978360 -231491,-6978319 -231459,-6978282 -231478,-6978238 -231484,-6978193 -231574,-6978240 -231594,-6978249 -231614,-6978258 -231671,-6978280 -231676,-6978295 -231780,-6978336 -231833,-6978355 -232001,-6978410 -232013,-6978379 -232028,-6978338 -232051,-6978296 -232062,-6978283 -232055,-6978278 -232067,-6978257 -232121,-6978196 -232152,-6978155 -232172,-6978133 -232198,-6978097 -232288,-6978142 -232309,-6978153 -232322,-6978153 -232332,-6978156 -232357,-6978168 -232373,-6978173 -232421,-6978191 -232433,-6978192 -232449,-6978162 -232458,-6978141 -232461,-6978127 -232434,-6978098 -232409,-6978080 -232326,-6978004 -232302,-6977978 -232293,-6977965 -232264,-6977919 -232219,-6977838 -232198,-6977800 -232157,-6977713 -232134,-6977669 -232104,-6977613 -232066,-6977539 -232054,-6977509 -232041,-6977485 -231958,-6977380 -231917,-6977338 -231896,-6977318 -231874,-6977289 -231859,-6977273 -231810,-6977224 -231756,-6977172 -231705,-6977131 -231762,-6977120 -231680,-6976878 -231744,-6976859 -231837,-6976824 -231919,-6976784 -231950,-6976772 -231970,-6976766 -231987,-6976756 -232046,-6976754 -232049,-6976713 -232049,-6976677 -232047,-6976646 -232038,-6976613 -232037,-6976601 -232105,-6976576 -232127,-6976568 -232160,-6976557 -232217,-6976547 -232254,-6976532 -232265,-6976529 -232297,-6976527 -232302,-6976524 -232325,-6976510 -232413,-6976462 -232553,-6976394 -232588,-6976376 -232684,-6976324 -232747,-6976293 -232810,-6976262 -232864,-6976239 -233044,-6976144 -233138,-6976090 -233200,-6976057 -233222,-6976045 -233331,-6975980 -233378,-6975958 -233470,-6975907 -233510,-6975882 -233589,-6975838 -233644,-6975809 -233731,-6975760 -233754,-6975746 -233770,-6975739 -233778,-6975737 -233787,-6975735 -233800,-6975735 -233815,-6975741 -233831,-6975753 -233853,-6975783 -233879,-6975833 -233902,-6975886 -233958,-6975986 -233996,-6976058 -234001,-6976080 -234004,-6976090 -234008,-6976098 -234013,-6976106 -234074,-6976195 -234105,-6976232 -234334,-6976102 -234439,-6976045 -234450,-6976036 -234451,-6976001 -234515,-6975996 -234565,-6975996 -234567,-6976047 -234644,-6976048 -234646,-6976026 -234727,-6976026 -234728,-6976038 -234742,-6976039 -234795,-6976040 -234839,-6976038 -234837,-6975984 -234831,-6975893 -234826,-6975849 -234819,-6975818 -234809,-6975796 -234803,-6975775 -234808,-6975716 -234806,-6975701 -234798,-6975655 -234791,-6975604 -234789,-6975582 -234790,-6975544 -234788,-6975516 -234788,-6975503 -234789,-6975490 -234797,-6975468 -234810,-6975441 -234836,-6975369 -234853,-6975331 -234868,-6975295 -234885,-6975260 -234879,-6975253 -234895,-6975218 -234904,-6975206 -234915,-6975199 -234929,-6975194 -234958,-6975188 -234972,-6975183 -234985,-6975178 -235048,-6975146 -235058,-6975140 -235100,-6975110 -235181,-6975068 -235263,-6975012 -235278,-6975006 -235347,-6974998 -235376,-6974991 -235405,-6974978 -235453,-6974950 -235482,-6974943 -235528,-6974932 -235649,-6974907 -235743,-6974883 -235761,-6974916 -235771,-6974917 -235782,-6974917 -235801,-6974906 -235806,-6974880 -235900,-6974879 -236181,-6974879 -236206,-6974917 -236234,-6974967 -236248,-6975002 -236264,-6975047 -236279,-6975108 -236321,-6975252 -236325,-6975280 -236337,-6975316 -236348,-6975339 -236373,-6975380 -236426,-6975463 -236444,-6975494 -236465,-6975532 -236495,-6975583 -236525,-6975645 -236546,-6975679 -236557,-6975701 -236564,-6975719 -236585,-6975785 -236612,-6975861 -236625,-6975900 -236649,-6975972 -236662,-6976012 -236685,-6976072 -236705,-6976131 -236734,-6976206 -236756,-6976279 -236762,-6976296 -236771,-6976315 -236805,-6976374 -236819,-6976406 -236838,-6976438 -236854,-6976466 -236879,-6976527 -236888,-6976580 -236889,-6976626 -236888,-6976665 -236892,-6976724 -236897,-6976758 -236905,-6976788 -236910,-6976811 -236918,-6976880 -236923,-6976903 -236941,-6976995 -236959,-6977068 -236963,-6977092 -236963,-6977104 -236961,-6977157 -236964,-6977203 -236975,-6977248 -236990,-6977304 -236994,-6977316 -237005,-6977343 -237024,-6977374 -237032,-6977389 -237078,-6977482 -237115,-6977567 -237134,-6977620 -237147,-6977653 -237155,-6977668 -237175,-6977690 -237194,-6977701 -237243,-6977725 -237254,-6977731 -237259,-6977734 -237261,-6977735 -237264,-6977737 -237271,-6977744 -237291,-6977771 -237338,-6977845 -237377,-6977898 -237400,-6977932 -237468,-6978036 -237513,-6978101 -237553,-6978154 -237584,-6978142 -237603,-6978136 -237621,-6978130 -237663,-6978119 -237757,-6978104 -237850,-6978097 -237942,-6978100 -237991,-6978104 -238035,-6978111 -238071,-6978116 -238152,-6978134 -238232,-6978163 -238309,-6978202 -238345,-6978223 -238434,-6978285 -238466,-6978302 -238520,-6978342 -238564,-6978370 -238627,-6978420 -238678,-6978454 -238703,-6978472 -238728,-6978490 -238780,-6978531 -238823,-6978556 -238859,-6978580 -238877,-6978563 -238935,-6978505 -238981,-6978454 -239066,-6978344 -239090,-6978304 -239115,-6978266 -239136,-6978228 -239163,-6978159 -239171,-6978137 -239180,-6978095 -239216,-6977999 -239228,-6977974 -239268,-6977929 -239284,-6977912 -239317,-6977883 -239319,-6977881 -239344,-6977857 -239360,-6977835 -239376,-6977812 -239393,-6977785 -239457,-6977724 -239477,-6977704 -239503,-6977671 -239511,-6977660 -239511,-6977577 -239513,-6977486 -239509,-6977269 -239506,-6977233 -239501,-6977204 -239478,-6977103 -239465,-6977070 -239445,-6977024 -239416,-6976947 -239411,-6976932 -239395,-6976871 -239379,-6976823 -239374,-6976796 -239362,-6976737 -239353,-6976684 -239322,-6976591 -239319,-6976578 -239373,-6976552 -239489,-6976508 -239462,-6976421 -239446,-6976363 -239528,-6976334 -239615,-6976299 -239666,-6976289 -239756,-6976260 -239768,-6976294 -239801,-6976401 -239856,-6976378 -239907,-6976363 -239957,-6976345 -240005,-6976332 -240233,-6976299 -240356,-6976279 -240394,-6976271 -240389,-6976222 -240382,-6976184 -240246,-6976184 -240255,-6975990 -240263,-6975821 -240263,-6975814 -240336,-6975814 -240348,-6975806 -240404,-6975806 -240409,-6975725 -240411,-6975698 -240418,-6975643 -240419,-6975569 -240418,-6975534 -240421,-6975504 -240425,-6975462 -240427,-6975451 -240434,-6975429 -240437,-6975422 -240440,-6975416 -240444,-6975412 -240455,-6975402 -240465,-6975394 -240479,-6975387 -240480,-6975379 -240542,-6975317 -240591,-6975272 -240614,-6975235 -240628,-6975225 -240651,-6975212 -240601,-6975137 -240641,-6975099 -240645,-6975093 -240648,-6975088 -240684,-6975040 -240695,-6975022 -240706,-6974991 -240720,-6974942 -240718,-6974899 -240706,-6974833 -240679,-6974723 -240668,-6974650 -240656,-6974625 -240663,-6974620 -240692,-6974530 -240726,-6974424 -240738,-6974376 -240861,-6974347 -240972,-6974330 -241105,-6974316 -241189,-6974305 -241217,-6974296 -241258,-6974281 -241304,-6974256 -241520,-6974141 -241579,-6974111 -241687,-6974074 -241711,-6974203 -241720,-6974251 -241748,-6974402 -241788,-6974607 -241809,-6974668 -241814,-6974663 -241842,-6974654 -241882,-6974621 -241903,-6974599 -241920,-6974588 -241929,-6974583 -241938,-6974579 -241951,-6974575 -241982,-6974570 -241996,-6974567 -242030,-6974555 -242042,-6974549 -242052,-6974542 -242057,-6974539 -242078,-6974518 -242088,-6974510 -242096,-6974507 -242129,-6974496 -242141,-6974491 -242164,-6974478 -242191,-6974463 -242207,-6974458 -242213,-6974457 -242249,-6974463 -242261,-6974464 -242273,-6974460 -242279,-6974457 -242288,-6974449 -242322,-6974442 -242331,-6974439 -242281,-6974388 -242266,-6974365 -242259,-6974353 -242249,-6974329 -242195,-6974108 -242185,-6974048 -242163,-6973961 -242149,-6973916 -242146,-6973907 -242124,-6973849 -242071,-6973734 -242064,-6973718 -242059,-6973702 -242046,-6973660 -242041,-6973626 -242039,-6973612 -242039,-6973588 -242041,-6973565 -242052,-6973524 -242064,-6973467 -242067,-6973437 -242068,-6973428 -242066,-6973388 -242051,-6973359 -242064,-6973338 -242067,-6973281 -242068,-6973243 -242102,-6973246 -242116,-6973252 -242129,-6973260 -242142,-6973287 -242182,-6973298 -242188,-6973321 -242200,-6973341 -242256,-6973354 -242324,-6973363 -242335,-6973362 -242344,-6973360 -242351,-6973358 -242356,-6973355 -242390,-6973335 -242423,-6973357 -242456,-6973377 -242508,-6973398 -242521,-6973401 -242561,-6973364 -242577,-6973337 -242590,-6973306 -242601,-6973284 -242622,-6973262 -242692,-6973192 -242745,-6973160 -242766,-6973140 -242799,-6973134 -242807,-6973104 -242829,-6973097 -242849,-6973071 -242855,-6973053 -242874,-6973071 -242930,-6973153 -242960,-6973176 -242987,-6973205 -242998,-6973222 -243002,-6973231 -243002,-6973239 -242998,-6973248 -242995,-6973251 -242991,-6973253 -242985,-6973255 -242967,-6973254 -242949,-6973249 -242925,-6973245 -242917,-6973247 -242910,-6973252 -242905,-6973257 -242902,-6973264 -242900,-6973271 -242899,-6973278 -242900,-6973287 -242902,-6973296 -242905,-6973304 -242909,-6973312 -242914,-6973319 -242916,-6973321 -242957,-6973359 -242989,-6973395 -243016,-6973430 -243043,-6973477 -243121,-6973576 -243166,-6973617 -243188,-6973646 -243195,-6973664 -243205,-6973702 -243209,-6973711 -243216,-6973731 -243236,-6973771 -243240,-6973780 -243241,-6973786 -243244,-6973821 -243250,-6973837 -243256,-6973850 -243266,-6973865 -243277,-6973881 -243294,-6973899 -243313,-6973916 -243344,-6973940 -243357,-6973948 -243364,-6973951 -243373,-6973953 -243383,-6973954 -243395,-6973953 -243405,-6973951 -243420,-6973945 -243435,-6973934 -243445,-6973924 -243477,-6973889 -243493,-6973874 -243518,-6973859 -243541,-6973849 -243841,-6973785 -243876,-6973778 -243929,-6973770 -243933,-6973802 -243941,-6973795 -243989,-6974042 -243991,-6974124 -243996,-6974200 -243988,-6974231 -243982,-6974258 -243978,-6974285 -243974,-6974326 -243973,-6974349 -243974,-6974372 -243975,-6974398 -243979,-6974431 -243983,-6974457 -243987,-6974474 -243997,-6974509 -244004,-6974530 -244023,-6974572 -244028,-6974582 -244099,-6974701 -244118,-6974739 -244141,-6974791 -244146,-6974806 -244183,-6974927 -244229,-6975090 -244232,-6975105 -244237,-6975116 -244252,-6975163 -244255,-6975176 -244267,-6975242 -244274,-6975303 -244275,-6975317 -244273,-6975346 -244273,-6975370 -244272,-6975423 -244265,-6975531 -244265,-6975620 -244260,-6975713 -244261,-6975751 -244266,-6975786 -244293,-6975886 -244319,-6975976 -244348,-6976061 -244360,-6976101 -244360,-6976124 -244357,-6976136 -244355,-6976170 -244361,-6976231 -244364,-6976276 -244374,-6976330 -244376,-6976346 -244388,-6976383 -244404,-6976421 -244409,-6976431 -244418,-6976446 -244434,-6976468 -244464,-6976503 -244484,-6976524 -244505,-6976543 -244570,-6976607 -244644,-6976688 -244672,-6976715 -244720,-6976771 -244760,-6976821 -244797,-6976879 -244813,-6976909 -244831,-6976951 -244853,-6976981 -244862,-6976993 -244903,-6977070 -244931,-6977117 -244951,-6977157 -244971,-6977162 -244998,-6977171 -245037,-6977180 -245039,-6977194 -245057,-6977202 -245063,-6977202 -245097,-6977203 -245133,-6977200 -245150,-6977202 -245184,-6977252 -245200,-6977269 -245208,-6977276 -245226,-6977286 -245245,-6977293 -245255,-6977296 -245276,-6977299 -245304,-6977305 -245323,-6977316 -245330,-6977323 -245350,-6977350 -245355,-6977363 -245369,-6977375 -245386,-6977393 -245406,-6977413 -245416,-6977424 -245424,-6977436 -245428,-6977445 -245439,-6977471 -245446,-6977513 -245450,-6977531 -245467,-6977575 -245481,-6977641 -245483,-6977664 -245488,-6977754 -245493,-6977776 -245503,-6977800 -245505,-6977861 -245519,-6977860 -245593,-6977835 -245609,-6977829 -245604,-6977795 -245625,-6977786 -245671,-6977761 -245680,-6977759 -245684,-6977761 -245693,-6977768 -245700,-6977778 -245728,-6977829 -245763,-6977908 -245780,-6977942 -245807,-6977994 -245865,-6978127 -245876,-6978160 -245883,-6978190 -245876,-6978196 -245882,-6978209 -245894,-6978263 -245905,-6978340 -245933,-6978473 -245944,-6978525 -245968,-6978626 -245973,-6978649 -245977,-6978671 -245981,-6978710 -245980,-6978733 -245981,-6978759 -245998,-6978819 -246005,-6978835 -246019,-6978864 -246027,-6978878 -246045,-6978906 -246040,-6978913 -246058,-6978945 -246072,-6978961 -246083,-6978978 -246088,-6978996 -246093,-6979006 -246101,-6979001 -246110,-6979009 -246141,-6979055 -246160,-6979081 -246206,-6979145 -246224,-6979175 -246253,-6979219 -246262,-6979235 -246275,-6979282 -246285,-6979308 -246292,-6979335 -246295,-6979373 -246295,-6979406 -246271,-6979409 -246206,-6979426 -246186,-6979429 -246163,-6979430 -246075,-6979431 -246059,-6979430 -245951,-6979418 -245935,-6979417 -245892,-6979416 -245860,-6979418 -245833,-6979414 -245797,-6979417 -245720,-6979443 -245677,-6979461 -245654,-6979469 -245583,-6979489 -245523,-6979511 -245505,-6979517 -245445,-6979534 -245386,-6979557 -245403,-6979577 -245446,-6979614 -245462,-6979625 -245472,-6979632 -245489,-6979647 -245496,-6979655 -245517,-6979697 -245546,-6979733 -245571,-6979762 -245577,-6979771 -245589,-6979794 -245601,-6979814 -245616,-6979829 -245633,-6979839 -245651,-6979845 -245671,-6979849 -245679,-6979852 -245705,-6979866 -245712,-6979868 -245739,-6979873 -245756,-6979873 -245771,-6979874 -245777,-6979878 -245798,-6979895 -245816,-6979895 -245840,-6979891 -245846,-6979902 -245854,-6979913 -245873,-6979943 -245875,-6979949 -245876,-6979956 -245875,-6979969 -245870,-6979975 -245858,-6979990 -245867,-6979996 -245871,-6979996 -245885,-6979990 -245897,-6980001 -245901,-6980005 -245901,-6980017 -245887,-6980046 -245888,-6980047 -245896,-6980055 -245914,-6980056 -245923,-6980060 -245942,-6980073 -245976,-6980097 -246007,-6980125 -246022,-6980141 -246030,-6980149 -246054,-6980183 -246057,-6980197 -246051,-6980210 -246031,-6980224 -246024,-6980231 -246027,-6980242 -246033,-6980252 -246041,-6980256 -246057,-6980259 -246061,-6980260 -246065,-6980267 -246077,-6980293 -246079,-6980305 -246081,-6980318 -246077,-6980326 -246068,-6980334 -246065,-6980343 -246069,-6980358 -246072,-6980362 -246076,-6980365 -246085,-6980368 -246088,-6980372 -246091,-6980378 -246090,-6980384 -246088,-6980396 -246086,-6980401 -246077,-6980408 -246061,-6980411 -246057,-6980413 -246053,-6980415 -246051,-6980419 -246050,-6980425 -246067,-6980463 -246075,-6980471 -246077,-6980493 -246074,-6980508 -246067,-6980519 -246042,-6980538 -246041,-6980542 -246040,-6980546 -246050,-6980576 -246055,-6980585 -246079,-6980619 -246085,-6980625 -246091,-6980628 -246098,-6980629 -246118,-6980629 -246144,-6980621 -246158,-6980616 -246175,-6980614 -246186,-6980622 -246196,-6980636 -246207,-6980660 -246232,-6980705 -246274,-6980787 -246293,-6980817 -246291,-6980831 -246274,-6980848 -246228,-6980885 -246226,-6980898 -246235,-6980928 -246252,-6980969 -246271,-6981027 -246281,-6981068 -246284,-6981079 -246300,-6981109 -246293,-6981126 -246286,-6981135 -246289,-6981148 -246290,-6981163 -246282,-6981175 -246278,-6981183 -246276,-6981192 -246276,-6981206 -246282,-6981221 -246299,-6981244 -246316,-6981271 -246317,-6981289 -246313,-6981311 -246308,-6981329 -246308,-6981345 -246328,-6981377 -246329,-6981385 -246330,-6981394 -246328,-6981412 -246326,-6981439 -246328,-6981449 -246329,-6981458 -246343,-6981489 -246351,-6981512 -246348,-6981524 -246341,-6981535 -246341,-6981540 -246343,-6981545 -246350,-6981560 -246358,-6981581 -246371,-6981606 -246363,-6981615 -246347,-6981621 -246325,-6981618 -246294,-6981619 -246294,-6981620 -246290,-6981631 -246305,-6981665 -246315,-6981683 -246325,-6981707 -246324,-6981715 -246319,-6981732 -246315,-6981741 -246306,-6981757 -246290,-6981762 -246283,-6981767 -246289,-6981779 -246301,-6981791 -246307,-6981800 -246312,-6981811 -246320,-6981833 -246333,-6981843 -246344,-6981854 -246324,-6981874 -246321,-6981878 -246319,-6981888 -246323,-6981899 -246332,-6981910 -246338,-6981914 -246360,-6981925 -246364,-6981928 -246374,-6981943 -246394,-6981968 -246399,-6981975 -246400,-6981989 -246394,-6982028 -246396,-6982067 -246407,-6982135 -246409,-6982174 -246412,-6982199 -246412,-6982216 -246401,-6982247 -246396,-6982264 -246391,-6982293 -246374,-6982315 -246372,-6982323 -246371,-6982330 -246374,-6982347 -246380,-6982364 -246408,-6982423 -246414,-6982445 -246415,-6982458 -246415,-6982473 -246414,-6982505 -246421,-6982527 -246453,-6982602 -246494,-6982690 -246507,-6982724 -246513,-6982752 -246530,-6982815 -246541,-6982840 -246570,-6982884 -246574,-6982893 -246579,-6982914 -246577,-6982938 -246570,-6982961 -246569,-6982987 -246574,-6982997 -246585,-6983015 -246620,-6983059 -246642,-6983098 -246644,-6983109 -246649,-6983141 -246655,-6983163 -246666,-6983186 -246678,-6983223 -246695,-6983262 -246703,-6983273 -246711,-6983284 -246729,-6983289 -246733,-6983289 -246768,-6983288 -246803,-6983291 -246816,-6983300 -246814,-6983306 -246795,-6983328 -246733,-6983393 -246722,-6983403 -246700,-6983432 -246679,-6983452 -246670,-6983462 -246819,-6983631 -246857,-6983676 -246889,-6983719 -246885,-6983728 -246882,-6983735 -246865,-6983755 -246831,-6983794 -246771,-6983866 -246746,-6983902 -246684,-6983980 -246671,-6983995 -246606,-6984053 -246547,-6984111 -246521,-6984133 -246423,-6984204 -246369,-6984236 -246311,-6984263 -246292,-6984270 -246252,-6984279 -246233,-6984285 -246203,-6984294 -246182,-6984299 -246200,-6984341 -246228,-6984394 -246239,-6984418 -246271,-6984491 -246289,-6984513 -246302,-6984530 -246265,-6984548 -246352,-6984802 -246394,-6984790 -246526,-6984748 -246576,-6984846 -246507,-6984868 -246508,-6984878 -246508,-6984879 -246597,-6984900 -246606,-6984932 -246614,-6984958 -246627,-6984956 -246645,-6985010 -246651,-6985039 -246652,-6985062 -246644,-6985130 -246639,-6985155 -246621,-6985234 -246617,-6985275 -246603,-6985280 -246607,-6985298 -246591,-6985301 -246605,-6985388 -246616,-6985439 -246608,-6985444 -246634,-6985549 -246618,-6985557 -246618,-6985563 -246610,-6985567 -246601,-6985570 -246561,-6985580 -246562,-6985593 -246558,-6985597 -246558,-6985599 -246562,-6985620 -246565,-6985636 -246567,-6985649 -246582,-6985718 -246592,-6985755 -246626,-6985829 -246614,-6985836 -246583,-6985866 -246541,-6985899 -246487,-6985925 -246454,-6985938 -246438,-6985944 -246422,-6985951 -246400,-6985957 -246366,-6985964 -246353,-6985968 -246287,-6985989 -246270,-6985993 -246192,-6986008 -246140,-6986014 -246115,-6986016 -246078,-6986021 -246044,-6986027 -245991,-6986040 -245969,-6986044 -245918,-6986056 -245890,-6986066 -245861,-6986075 -245840,-6986085 -245830,-6986090 -245820,-6986096 -245783,-6986125 -245735,-6986171 -245707,-6986207 -245663,-6986258 -245639,-6986288 -245629,-6986300 -245613,-6986325 -245601,-6986341 -245564,-6986388 -245547,-6986401 -245522,-6986413 -245493,-6986428 -245469,-6986438 -245458,-6986443 -245448,-6986449 -245440,-6986455 -245419,-6986476 -245378,-6986532 -245365,-6986546 -245352,-6986560 -245277,-6986633 -245263,-6986647 -245219,-6986668 -245183,-6986690 -245187,-6986702 -245193,-6986717 -245219,-6986770 -245240,-6986802 -245255,-6986798 -245266,-6986819 -245269,-6986826 -245277,-6986847 -245316,-6986934 -245328,-6986967 -245334,-6986971 -245367,-6987054 -245373,-6987069 -245382,-6987078 -245403,-6987128 -245418,-6987165 -245441,-6987240 -245455,-6987279 -245471,-6987346 -245485,-6987413 -245492,-6987446 -245501,-6987498 -245512,-6987558 -245515,-6987577 -245520,-6987630 -245524,-6987674 -245540,-6987757 -245540,-6987761 -245542,-6987772 -245544,-6987791 -245545,-6987808 -245545,-6987862 -245547,-6987904 -245550,-6987949 -245559,-6988031 -245573,-6988190 -245581,-6988242 -245554,-6988255 -245560,-6988286 -245561,-6988304 -245568,-6988333 -245574,-6988365 -245582,-6988451 -245588,-6988498 -245594,-6988559 -245599,-6988588 -245610,-6988665 -245620,-6988715 -245629,-6988768 -245631,-6988785 -245632,-6988815 -245633,-6988830 -245634,-6988836 -245646,-6988866 -245653,-6988893 -245686,-6988989 -245705,-6989055 -245719,-6989096 -245734,-6989139 -245751,-6989184 -245768,-6989226 -245797,-6989296 -245814,-6989332 -245829,-6989374 -245844,-6989416 -245879,-6989522 -245891,-6989555 -245904,-6989585 -245911,-6989598 -245928,-6989623 -245931,-6989637 -245945,-6989658 -245966,-6989691 -245977,-6989708 -246005,-6989744 -246026,-6989776 -246053,-6989813 -246076,-6989851 -246138,-6989938 -246168,-6989970 -246179,-6989982 -246208,-6990019 -246273,-6990111 -246314,-6990162 -246361,-6990232 -246397,-6990273 -246422,-6990306 -246447,-6990343 -246477,-6990382 -246527,-6990443 -246574,-6990486 -246568,-6990509 -246574,-6990516 -246596,-6990538 -246614,-6990559 -246635,-6990589 -246686,-6990660 -246692,-6990675 -246698,-6990685 -246722,-6990721 -246737,-6990727 -246750,-6990737 -246764,-6990758 -246771,-6990751 -246774,-6990744 -246777,-6990736 -246780,-6990714 -246786,-6990720 -246799,-6990734 -246815,-6990754 -246863,-6990823 -246912,-6990899 -246930,-6990931 -246954,-6990968 -246999,-6991031 -247027,-6991076 -247036,-6991092 -247054,-6991133 -247061,-6991160 -247062,-6991194 -247060,-6991250 -247063,-6991259 -247070,-6991279 -247080,-6991304 -247087,-6991319 -247088,-6991319 -247090,-6991322 -247109,-6991347 -247113,-6991355 -247148,-6991435 -247175,-6991519 -247215,-6991646 -247223,-6991680 -247224,-6991704 -247221,-6991710 -247248,-6991803 -247311,-6992071 -247320,-6992105 -247342,-6992168 -247338,-6992175 -247350,-6992228 -247353,-6992238 -247375,-6992320 -247370,-6992322 -247385,-6992391 -247418,-6992501 -247432,-6992505 -247460,-6992642 -247468,-6992724 -247480,-6992773 -247501,-6992849 -247556,-6993006 -247562,-6993032 -247570,-6993057 -247588,-6993057 -247639,-6993307 -247646,-6993311 -247666,-6993379 -247691,-6993516 -247714,-6993645 -247718,-6993656 -247726,-6993680 -247755,-6993681 -247766,-6993752 -247801,-6993877 -247808,-6993909 -247778,-6993923 -247797,-6993974 -247812,-6994007 -247821,-6994035 -247818,-6994039 -247846,-6994136 -247853,-6994161 -247864,-6994215 -247850,-6994226 -247893,-6994385 -247941,-6994505 -247961,-6994566 -247975,-6994614 -247968,-6994619 -247979,-6994684 -247987,-6994716 -248010,-6994795 -248055,-6994783 -248109,-6994764 -248146,-6994748 -248193,-6994737 -248241,-6994734 -248272,-6994734 -248287,-6994735 -248302,-6994737 -248382,-6994756 -248429,-6994768 -248525,-6994784 -248539,-6994788 -248553,-6994793 -248578,-6994804 -248601,-6994820 -248609,-6994828 -248623,-6994846 -248643,-6994875 -248703,-6994917 -248701,-6994941 -248693,-6995002 -248690,-6995048 -248680,-6995105 -248665,-6995165 -248652,-6995195 -248636,-6995228 -248631,-6995244 -248633,-6995255 -248639,-6995270 -248649,-6995285 -248672,-6995310 -248706,-6995349 -248716,-6995358 -248745,-6995386 -248760,-6995392 -248789,-6995396 -248797,-6995399 -248808,-6995405 -248813,-6995409 -248855,-6995456 -248887,-6995495 -248906,-6995511 -248915,-6995516 -248950,-6995534 -248956,-6995539 -248981,-6995563 -248987,-6995583 -248989,-6995615 -248987,-6995679 -248988,-6995696 -248990,-6995705 -248996,-6995725 -249005,-6995760 -249011,-6995802 -249021,-6995846 -249025,-6995873 -249029,-6995885 -249120,-6996015 -249165,-6996106 -249172,-6996121 -249183,-6996149 -249187,-6996162 -249189,-6996173 -249190,-6996185 -249188,-6996207 -249186,-6996230 -249180,-6996267 -249175,-6996290 -249165,-6996315 -249156,-6996330 -249137,-6996355 -249095,-6996396 -249090,-6996403 -249129,-6996469 -249163,-6996502 -249207,-6996549 -249217,-6996575 -249185,-6996618 -249070,-6996760 -249055,-6996770 -249029,-6996784 -248978,-6996808 -248917,-6996839 -248896,-6996870 -248828,-6996988 -248787,-6997050 -248721,-6997011 -248697,-6996996 -248695,-6996998 -248674,-6997026 -248644,-6997075 -248639,-6997075 -248625,-6997083 -248601,-6997122 -248559,-6997193 -248493,-6997281 -248493,-6997294 -248494,-6997311 -248441,-6997389 -248400,-6997443 -248385,-6997447 -248367,-6997446 -248345,-6997430 -248319,-6997400 -248307,-6997400 -248286,-6997390 -248281,-6997402 -248252,-6997390 -248250,-6997391 -248232,-6997409 -248191,-6997451 -248129,-6997525 -248057,-6997605 -247999,-6997673 -247951,-6997724 -247863,-6997619 -247828,-6997628 -247774,-6997650 -247726,-6997679 -247693,-6997701 -247668,-6997713 -247655,-6997725 -247653,-6997727 -247638,-6997742 -247624,-6997758 -247609,-6997775 -247578,-6997816 -247527,-6997866 -247516,-6997857 -247440,-6997914 -247394,-6997947 -247312,-6997999 -247320,-6998034 -247284,-6998070 -247269,-6998091 -247265,-6998102 -247258,-6998127 -247217,-6998201 -247209,-6998210 -247193,-6998214 -247160,-6998228 -247105,-6998236 -247059,-6998236 -247049,-6998236 -247042,-6998238 -247001,-6998254 -246898,-6998303 -246884,-6998304 -246839,-6998301 -246803,-6998302 -246772,-6998307 -246770,-6998334 -246778,-6998342 -246788,-6998358 -246795,-6998373 -246796,-6998380 -246795,-6998397 -246784,-6998487 -246773,-6998513 -246762,-6998532 -246738,-6998551 -246749,-6998558 -246753,-6998577 -246759,-6998641 -246751,-6998662 -246755,-6998670 -246742,-6998697 -246727,-6998722 -246703,-6998751 -246670,-6998793 -246667,-6998794 -246587,-6998813 -246557,-6998820 -246542,-6998824 -246532,-6998828 -246521,-6998832 -246465,-6998862 -246449,-6998873 -246409,-6998905 -246401,-6998911 -246392,-6998917 -246364,-6998933 -246305,-6998969 -246263,-6999003 -246218,-6999034 -246193,-6999054 -246184,-6999058 -246174,-6999058 -246164,-6999051 -246118,-6999001 -246076,-6998926 -246040,-6998875 -246021,-6998850 -245790,-6999063 -245697,-6999115 -245662,-6999097 -245653,-6999104 -245645,-6999104 -245626,-6999103 -245615,-6999101 -245510,-6999071 -245473,-6999059 -245461,-6999059 -245256,-6999079 -245235,-6999078 -245209,-6999075 -245074,-6999048 -245068,-6999047 -245055,-6999051 -245048,-6999059 -245051,-6999088 -245060,-6999141 -245078,-6999187 -245102,-6999234 -245114,-6999249 -245094,-6999262 -245093,-6999277 -245124,-6999292 -245082,-6999332 -245080,-6999415 -245074,-6999483 -245069,-6999493 -245065,-6999498 -245060,-6999503 -245049,-6999509 -245036,-6999516 -245008,-6999528 -245002,-6999521 -244856,-6999564 -244875,-6999660 -244900,-6999777 -244933,-6999911 -244946,-6999977 -244926,-7000000 -244914,-7000001 -244909,-7000003 -244903,-7000006 -244888,-7000018 -244865,-7000044 -244844,-7000065 -244819,-7000087 -244813,-7000093 -244803,-7000109 -244797,-7000131 -244795,-7000136 -244790,-7000141 -244785,-7000147 -244748,-7000166 -244719,-7000151 -244702,-7000145 -244672,-7000137 -244644,-7000131 -244603,-7000123 -244544,-7000107 -244525,-7000071 -244513,-7000045 -244500,-7000027 -244486,-7000009 -244475,-7000000 -244463,-6999989 -244458,-6999986 -244452,-6999984" stroke="#003087" stroke-width="44" /></svg>