<?xml version="1.0" standalone="no"?>
<!DOCTYPE svg PUBLIC "-//W3C//DTD SVG 1.1//EN"
"http://www.w3.org/Graphics/SVG/1.1/DTD/svg11.dtd">
<svg height="115" version="1.1" viewBox="-161707 -7293318 33293 34763" width="220" xmlns="http://www.w3.org/2000/svg"><polygon fill="#003087" points=" -146639,-7293232 -146624,-7293231 -146607,-7293239 -146601,-7293249 -146597,-7293272 -146587,-7293286 -146554,-7293304 -146537,-7293315 -146531,-7293313 -146528,-7293307 -146527,-7293299 -146501,-7293273 -146476,-7293228 -146472,-7293219 -146472,-7293197 -146458,-7293170 -146447,-7293162 -146428,-7293139 -146400,-7293096 -146399,-7293085 -146409,-7293074 -146431,-7293069 -146442,-7293062 -146451,-7293048 -146449,-7293039 -146437,-7293028 -146424,-7292995 -146414,-7292983 -146413,-7292971 -146393,-7292957 -146374,-7292953 -146360,-7292945 -146350,-7292915 -146333,-7292892 -146312,-7292871 -146287,-7292856 -146260,-7292842 -146244,-7292823 -146227,-7292817 -146210,-7292824 -146189,-7292811 -146145,-7292764 -146120,-7292732 -146100,-7292722 -146073,-7292704 -146057,-7292687 -146035,-7292676 -146016,-7292676 -146003,-7292681 -145987,-7292665 -145973,-7292622 -145969,-7292587 -145966,-7292550 -145966,-7292544 -145969,-7292536 -145973,-7292527 -145976,-7292523 -145982,-7292519 -145985,-7292518 -145991,-7292519 -145998,-7292521 -146001,-7292523 -146021,-7292541 -146034,-7292546 -146044,-7292538 -146045,-7292523 -146036,-7292502 -146027,-7292477 -146014,-7292463 -146003,-7292453 -145988,-7292449 -145978,-7292446 -145959,-7292438 -145943,-7292427 -145941,-7292415 -145946,-7292377 -145946,-7292367 -145937,-7292356 -145926,-7292343 -145919,-7292336 -145905,-7292314 -145898,-7292292 -145889,-7292286 -145876,-7292282 -145859,-7292278 -145839,-7292263 -145833,-7292249 -145807,-7292204 -145795,-7292183 -145769,-7292159 -145742,-7292146 -145698,-7292102 -145674,-7292076 -145651,-7292063 -145635,-7292034 -145643,-7292020 -145653,-7292001 -145653,-7291990 -145649,-7291975 -145639,-7291959 -145621,-7291954 -145611,-7291934 -145608,-7291917 -145600,-7291903 -145593,-7291895 -145581,-7291882 -145580,-7291862 -145564,-7291834 -145564,-7291826 -145548,-7291800 -145538,-7291790 -145533,-7291777 -145530,-7291767 -145521,-7291757 -145504,-7291743 -145501,-7291732 -145492,-7291721 -145461,-7291707 -145451,-7291697 -145431,-7291698 -145386,-7291681 -145372,-7291694 -145354,-7291688 -145288,-7291687 -145241,-7291679 -145206,-7291668 -145154,-7291636 -145107,-7291588 -145075,-7291543 -145040,-7291500 -145021,-7291492 -144933,-7291504 -144829,-7291504 -144773,-7291498 -144517,-7291445 -144517,-7291390 -144510,-7291391 -144505,-7291393 -144501,-7291382 -144525,-7291277 -144534,-7291260 -144565,-7291138 -144583,-7291051 -144588,-7290944 -144585,-7290858 -144575,-7290765 -144558,-7290607 -144558,-7290490 -144565,-7290325 -144569,-7290288 -144584,-7290155 -144605,-7290001 -144605,-7289997 -144565,-7289992 -144404,-7289987 -144356,-7289991 -144303,-7290003 -144292,-7290005 -144242,-7290021 -144234,-7289994 -144115,-7290043 -144014,-7290093 -143983,-7290104 -143948,-7290109 -143878,-7290144 -143805,-7289972 -143786,-7289921 -143770,-7289896 -143737,-7289825 -143728,-7289806 -143458,-7289925 -143191,-7290038 -143162,-7289936 -143069,-7289961 -143035,-7289975 -142961,-7289977 -142904,-7289986 -142752,-7290009 -142503,-7290049 -142475,-7290048 -142390,-7290030 -142364,-7290012 -142316,-7289972 -142282,-7289950 -142232,-7289925 -142178,-7289902 -142100,-7289876 -142056,-7289857 -141942,-7289777 -141951,-7289768 -141919,-7289734 -141821,-7289636 -141807,-7289615 -141783,-7289613 -141732,-7289595 -141687,-7289565 -141592,-7289490 -141545,-7289523 -141516,-7289540 -141375,-7289626 -141311,-7289663 -141261,-7289691 -141231,-7289623 -141215,-7289549 -141203,-7289551 -141164,-7289582 -141115,-7289628 -141109,-7289618 -141106,-7289540 -141105,-7289493 -141105,-7289373 -141102,-7289355 -141095,-7289338 -141091,-7289341 -141073,-7289347 -141062,-7289341 -141054,-7289318 -141050,-7289295 -141045,-7289273 -141040,-7289261 -141029,-7289259 -140996,-7289263 -140934,-7289265 -140908,-7289268 -140892,-7289272 -140874,-7289274 -140841,-7289271 -140824,-7289271 -140803,-7289274 -140783,-7289275 -140769,-7289272 -140747,-7289273 -140741,-7289277 -140734,-7289292 -140725,-7289294 -140702,-7289285 -140688,-7289289 -140678,-7289307 -140670,-7289314 -140645,-7289316 -140608,-7289315 -140602,-7289325 -140603,-7289352 -140581,-7289366 -140533,-7289385 -140500,-7289408 -140487,-7289402 -140442,-7289401 -140428,-7289386 -140399,-7289373 -140382,-7289359 -140362,-7289356 -140361,-7289356 -140331,-7289362 -140300,-7289358 -140245,-7289346 -140242,-7289382 -140240,-7289389 -140215,-7289421 -140196,-7289488 -140179,-7289550 -140124,-7289702 -140016,-7289633 -139968,-7289602 -139845,-7289544 -139885,-7289456 -139885,-7289448 -139924,-7289368 -139954,-7289295 -139973,-7289246 -139997,-7289268 -140003,-7289268 -140005,-7289253 -140000,-7289228 -139977,-7289207 -139961,-7289163 -139950,-7289145 -139934,-7289133 -139915,-7289121 -139897,-7289106 -139886,-7289109 -139870,-7289122 -139860,-7289127 -139850,-7289127 -139835,-7289124 -139819,-7289117 -139811,-7289110 -139741,-7289112 -139728,-7289122 -139718,-7289143 -139703,-7289157 -139690,-7289174 -139685,-7289192 -139681,-7289195 -139646,-7289204 -139633,-7289217 -139624,-7289241 -139616,-7289248 -139610,-7289251 -139599,-7289253 -139554,-7289249 -139541,-7289243 -139528,-7289240 -139493,-7289239 -139439,-7289218 -139428,-7289218 -139421,-7289223 -139387,-7289291 -139368,-7289319 -139333,-7289347 -139328,-7289348 -139318,-7289355 -139307,-7289361 -139274,-7289395 -139267,-7289409 -139264,-7289428 -139246,-7289473 -139243,-7289475 -139234,-7289481 -139234,-7289482 -139220,-7289488 -139195,-7289475 -139176,-7289474 -139139,-7289480 -139114,-7289474 -139102,-7289467 -139088,-7289467 -139066,-7289475 -139037,-7289504 -139019,-7289509 -138990,-7289510 -138962,-7289517 -138896,-7289576 -138867,-7289598 -138838,-7289604 -138756,-7289605 -138737,-7289608 -138693,-7289626 -138663,-7289626 -138638,-7289617 -138568,-7289583 -138541,-7289569 -138501,-7289538 -138454,-7289520 -138340,-7289515 -138318,-7289508 -138278,-7289490 -138198,-7289449 -138172,-7289415 -138151,-7289384 -138135,-7289371 -138127,-7289368 -138118,-7289365 -138110,-7289365 -138105,-7289367 -138099,-7289373 -138088,-7289383 -138080,-7289404 -138078,-7289418 -138079,-7289469 -138077,-7289498 -138065,-7289517 -138046,-7289544 -138029,-7289559 -137985,-7289581 -137959,-7289598 -137942,-7289614 -137927,-7289633 -137919,-7289650 -137899,-7289674 -137898,-7289694 -137886,-7289711 -137870,-7289717 -137852,-7289719 -137821,-7289717 -137790,-7289705 -137775,-7289696 -137742,-7289696 -137732,-7289702 -137731,-7289724 -137735,-7289739 -137746,-7289753 -137780,-7289777 -137810,-7289793 -137831,-7289815 -137857,-7289863 -137866,-7289880 -137908,-7289931 -137917,-7289955 -137916,-7289975 -137910,-7289989 -137896,-7290002 -137882,-7290008 -137854,-7290011 -137829,-7290016 -137777,-7290038 -137738,-7290054 -137697,-7290073 -137659,-7290090 -137641,-7290100 -137632,-7290109 -137609,-7290129 -137578,-7290140 -137561,-7290143 -137543,-7290145 -137503,-7290140 -137483,-7290138 -137466,-7290138 -137411,-7290162 -137391,-7290169 -137370,-7290167 -137362,-7290164 -137347,-7290158 -137334,-7290148 -137320,-7290136 -137308,-7290123 -137288,-7290088 -137279,-7290072 -137272,-7290050 -137274,-7290026 -137280,-7290004 -137293,-7289972 -137302,-7289946 -137303,-7289929 -137300,-7289912 -137288,-7289886 -137252,-7289847 -137226,-7289824 -137210,-7289800 -137203,-7289779 -137203,-7289732 -137199,-7289647 -137193,-7289620 -137187,-7289583 -137183,-7289570 -137171,-7289554 -137156,-7289543 -137140,-7289540 -137120,-7289538 -137102,-7289543 -137078,-7289561 -137053,-7289587 -137039,-7289605 -137010,-7289663 -137007,-7289670 -137001,-7289678 -136984,-7289686 -136966,-7289688 -136946,-7289682 -136930,-7289667 -136915,-7289642 -136911,-7289625 -136912,-7289613 -136916,-7289600 -136913,-7289580 -136911,-7289542 -136917,-7289518 -136930,-7289487 -136932,-7289464 -136924,-7289445 -136912,-7289436 -136900,-7289432 -136874,-7289432 -136852,-7289429 -136834,-7289433 -136817,-7289444 -136810,-7289462 -136805,-7289489 -136803,-7289509 -136804,-7289550 -136807,-7289567 -136815,-7289599 -136816,-7289629 -136807,-7289656 -136796,-7289675 -136783,-7289691 -136756,-7289712 -136715,-7289738 -136703,-7289746 -136656,-7289772 -136623,-7289786 -136588,-7289794 -136569,-7289793 -136560,-7289789 -136544,-7289781 -136514,-7289752 -136492,-7289726 -136479,-7289703 -136472,-7289678 -136471,-7289652 -136478,-7289618 -136499,-7289573 -136509,-7289534 -136511,-7289509 -136508,-7289484 -136500,-7289474 -136480,-7289466 -136459,-7289467 -136422,-7289475 -136422,-7289495 -136386,-7289573 -136379,-7289586 -136362,-7289610 -136333,-7289637 -136329,-7289640 -136311,-7289651 -136308,-7289653 -136266,-7289674 -136233,-7289687 -136204,-7289695 -136186,-7289694 -136165,-7289686 -136137,-7289664 -136121,-7289653 -136104,-7289633 -136099,-7289623 -136094,-7289604 -136095,-7289588 -136103,-7289575 -136133,-7289546 -136156,-7289539 -136217,-7289535 -136280,-7289535 -136324,-7289528 -136344,-7289520 -136357,-7289502 -136360,-7289495 -136360,-7289486 -136345,-7289482 -136332,-7289474 -136311,-7289451 -136305,-7289426 -136301,-7289389 -136305,-7289344 -136318,-7289295 -136320,-7289265 -136312,-7289245 -136296,-7289216 -136277,-7289190 -136254,-7289166 -136246,-7289160 -136220,-7289152 -136192,-7289153 -136174,-7289155 -136150,-7289164 -136131,-7289180 -136102,-7289211 -136079,-7289245 -136054,-7289298 -136036,-7289364 -136027,-7289377 -136005,-7289394 -135976,-7289424 -135936,-7289434 -135911,-7289441 -135882,-7289454 -135855,-7289457 -135840,-7289455 -135822,-7289446 -135809,-7289433 -135790,-7289405 -135788,-7289396 -135779,-7289365 -135780,-7289333 -135789,-7289305 -135833,-7289215 -135849,-7289172 -135856,-7289147 -135848,-7289124 -135832,-7289099 -135816,-7289078 -135791,-7289055 -135739,-7289027 -135706,-7289018 -135676,-7289017 -135643,-7289023 -135496,-7289057 -135389,-7289082 -135341,-7289094 -135328,-7289094 -135292,-7289087 -135264,-7289076 -135233,-7289055 -135213,-7289040 -135166,-7288988 -135137,-7288948 -135113,-7288915 -135056,-7288837 -135037,-7288817 -135029,-7288810 -135010,-7288799 -134989,-7288794 -134989,-7288794 -134951,-7288792 -134860,-7288793 -134815,-7288791 -134753,-7288785 -134732,-7288784 -134669,-7288783 -134629,-7288786 -134562,-7288795 -134501,-7288804 -134483,-7288808 -134436,-7288820 -134406,-7288832 -134254,-7288889 -134190,-7288912 -134103,-7288939 -133993,-7288968 -133936,-7288978 -133863,-7288988 -133783,-7289004 -133725,-7289011 -133648,-7289013 -133604,-7289017 -133543,-7289041 -133511,-7289058 -133409,-7289112 -133301,-7289167 -133284,-7289179 -133237,-7289206 -133107,-7289300 -132996,-7289374 -132978,-7289387 -132960,-7289402 -132912,-7289462 -132849,-7289527 -132689,-7289709 -132645,-7289755 -132603,-7289794 -132570,-7289833 -132549,-7289869 -132541,-7289886 -132534,-7289902 -132525,-7289936 -132523,-7289961 -132524,-7289974 -132525,-7289988 -132529,-7290010 -132542,-7290048 -132558,-7290066 -132597,-7290116 -132617,-7290138 -132629,-7290163 -132632,-7290178 -132631,-7290202 -132627,-7290216 -132593,-7290285 -132561,-7290333 -132535,-7290382 -132523,-7290407 -132506,-7290432 -132416,-7290491 -132388,-7290516 -132359,-7290548 -132328,-7290577 -132307,-7290599 -132297,-7290617 -132255,-7290668 -132233,-7290686 -132207,-7290702 -132171,-7290716 -132144,-7290718 -132069,-7290721 -131973,-7290730 -131941,-7290736 -131874,-7290740 -131834,-7290739 -131757,-7290733 -131648,-7290732 -131581,-7290734 -131487,-7290741 -131334,-7290756 -131241,-7290753 -131177,-7290755 -131162,-7290755 -131137,-7290748 -131122,-7290743 -131107,-7290737 -131077,-7290723 -131050,-7290717 -131033,-7290716 -130997,-7290715 -130951,-7290717 -130804,-7290737 -130713,-7290744 -130688,-7290745 -130663,-7290746 -130642,-7290743 -130603,-7290738 -130564,-7290730 -130508,-7290716 -130405,-7290688 -130356,-7290670 -130313,-7290651 -130209,-7290627 -130068,-7290573 -129997,-7290547 -129956,-7290530 -129847,-7290485 -129781,-7290454 -129720,-7290430 -129610,-7290381 -129497,-7290350 -129445,-7290337 -129384,-7290325 -129338,-7290319 -129304,-7290317 -129198,-7290295 -129141,-7290291 -129083,-7290290 -129048,-7290293 -129015,-7290289 -128906,-7290287 -128909,-7290240 -128910,-7290164 -128910,-7290117 -128908,-7290052 -128907,-7289979 -128905,-7289946 -128897,-7289882 -128881,-7289835 -128878,-7289822 -128869,-7289765 -128850,-7289667 -128826,-7289580 -128814,-7289530 -128767,-7289378 -128708,-7289195 -128653,-7289036 -128630,-7288971 -128569,-7288822 -128545,-7288752 -128512,-7288667 -128490,-7288595 -128450,-7288429 -128433,-7288330 -128419,-7288201 -128415,-7288135 -128414,-7288116 -128414,-7288025 -128416,-7287955 -128419,-7287924 -128420,-7287878 -128422,-7287803 -128423,-7287758 -128424,-7287742 -128425,-7287712 -128435,-7287586 -128446,-7287475 -128465,-7287339 -128481,-7287241 -128494,-7287179 -128507,-7287117 -128537,-7286993 -128550,-7286944 -128586,-7286823 -128608,-7286758 -128702,-7286501 -128731,-7286441 -128751,-7286402 -128775,-7286360 -128806,-7286310 -128840,-7286256 -128877,-7286205 -128896,-7286179 -128932,-7286136 -128935,-7286132 -128952,-7286113 -128986,-7286077 -129021,-7286042 -129058,-7286009 -129094,-7285978 -129343,-7285719 -129555,-7285502 -129710,-7285346 -129745,-7285311 -129836,-7285227 -129855,-7285212 -129870,-7285199 -129883,-7285185 -129897,-7285168 -129910,-7285150 -129960,-7285064 -129978,-7285038 -129985,-7285029 -130003,-7285011 -130024,-7284995 -130104,-7284918 -130174,-7284858 -130219,-7284810 -130225,-7284801 -130235,-7284778 -130244,-7284759 -130266,-7284719 -130285,-7284687 -130308,-7284653 -130421,-7284506 -130429,-7284494 -130435,-7284488 -130444,-7284482 -130488,-7284468 -130515,-7284454 -130583,-7284403 -130650,-7284349 -130671,-7284322 -130675,-7284313 -130689,-7284273 -130692,-7284269 -130717,-7284241 -130830,-7284127 -130991,-7283972 -131089,-7283874 -131098,-7283862 -131104,-7283851 -131109,-7283839 -131112,-7283828 -131114,-7283819 -131113,-7283797 -131114,-7283786 -131116,-7283770 -131122,-7283744 -131126,-7283725 -131131,-7283715 -131138,-7283701 -131146,-7283691 -131159,-7283677 -131367,-7283436 -131755,-7283015 -131790,-7282981 -131806,-7282967 -131839,-7282942 -131941,-7282879 -131969,-7282860 -131987,-7282847 -132010,-7282826 -132074,-7282757 -132112,-7282710 -132178,-7282646 -132212,-7282615 -132226,-7282600 -132243,-7282577 -132256,-7282553 -132262,-7282539 -132286,-7282479 -132300,-7282452 -132310,-7282434 -132328,-7282412 -132400,-7282334 -132937,-7281777 -133152,-7281554 -133203,-7281507 -133261,-7281457 -133338,-7281395 -133428,-7281326 -133490,-7281283 -133523,-7281262 -133588,-7281223 -133634,-7281197 -133682,-7281172 -133750,-7281139 -133784,-7281123 -133837,-7281102 -133905,-7281080 -133949,-7281067 -134128,-7281018 -134222,-7280998 -134302,-7280984 -134336,-7280980 -134404,-7280972 -134454,-7280968 -134501,-7280967 -134562,-7280966 -134592,-7280966 -134651,-7280969 -134673,-7280972 -134741,-7280981 -134807,-7280993 -134848,-7281002 -134927,-7281020 -135152,-7281076 -135567,-7281252 -135779,-7281344 -135898,-7281395 -135997,-7281432 -136045,-7281449 -136096,-7281465 -136147,-7281480 -136250,-7281510 -136632,-7281606 -136687,-7281622 -136702,-7281625 -136723,-7281634 -136892,-7281689 -137023,-7281741 -137128,-7281795 -137204,-7281830 -137347,-7281900 -137411,-7281935 -137511,-7281979 -137590,-7282016 -137616,-7282029 -137696,-7282084 -137722,-7282100 -137740,-7282113 -137766,-7282134 -137888,-7282245 -137969,-7282329 -138072,-7282416 -138087,-7282432 -138101,-7282449 -138117,-7282473 -138152,-7282519 -138177,-7282543 -138392,-7282714 -138512,-7282803 -138558,-7282831 -138630,-7282864 -138726,-7282898 -138815,-7282926 -138852,-7282933 -138972,-7282950 -138985,-7282953 -139007,-7282961 -139045,-7282980 -139056,-7282984 -139068,-7282987 -139078,-7282988 -139097,-7282987 -139274,-7282990 -139342,-7282972 -139370,-7282964 -139411,-7282949 -139464,-7282925 -139490,-7282912 -139529,-7282890 -139634,-7282837 -139670,-7282816 -139704,-7282794 -139727,-7282777 -139751,-7282758 -139775,-7282736 -139798,-7282714 -139824,-7282687 -139850,-7282658 -139880,-7282620 -139899,-7282595 -139914,-7282570 -139951,-7282500 -139962,-7282476 -139978,-7282440 -140019,-7282330 -140038,-7282266 -140058,-7282165 -140079,-7282043 -140124,-7281656 -140169,-7281209 -140215,-7280749 -140243,-7280495 -140296,-7279996 -140375,-7279425 -140396,-7279278 -140406,-7279226 -140410,-7279210 -140425,-7279166 -140478,-7279035 -140506,-7278976 -140547,-7278911 -140568,-7278880 -140592,-7278849 -140616,-7278818 -140641,-7278790 -140678,-7278753 -140862,-7278601 -140946,-7278543 -140974,-7278527 -141066,-7278477 -141133,-7278448 -141144,-7278444 -141282,-7278394 -141325,-7278379 -141360,-7278368 -141418,-7278353 -141543,-7278326 -141634,-7278311 -141704,-7278301 -141828,-7278292 -141918,-7278279 -141976,-7278270 -142093,-7278241 -142117,-7278234 -142175,-7278220 -142342,-7278158 -142465,-7278104 -142658,-7278014 -142711,-7277984 -142781,-7277949 -142758,-7277906 -142742,-7277893 -142728,-7277883 -142666,-7277839 -142632,-7277806 -142619,-7277787 -142613,-7277758 -142605,-7277747 -142593,-7277741 -142583,-7277731 -142581,-7277718 -142582,-7277698 -142562,-7277686 -142531,-7277623 -142506,-7277583 -142478,-7277522 -142440,-7277426 -142416,-7277386 -142393,-7277338 -142356,-7277251 -142352,-7277237 -142332,-7277192 -142287,-7277098 -142281,-7277085 -142271,-7277066 -142251,-7277038 -142232,-7277016 -142154,-7276936 -142131,-7276903 -142076,-7276811 -142063,-7276789 -141996,-7276709 -141962,-7276676 -141911,-7276642 -141871,-7276617 -141827,-7276582 -141782,-7276553 -141748,-7276533 -141726,-7276515 -141708,-7276505 -141665,-7276492 -141624,-7276476 -141603,-7276466 -141587,-7276458 -141562,-7276442 -141535,-7276420 -141506,-7276393 -141484,-7276367 -141477,-7276351 -141470,-7276331 -141465,-7276309 -141454,-7276262 -141449,-7276238 -141443,-7276171 -141444,-7276130 -141444,-7276116 -141445,-7276102 -141454,-7276054 -141461,-7276013 -141465,-7275988 -141482,-7275924 -141491,-7275869 -141502,-7275834 -141513,-7275808 -141526,-7275781 -141546,-7275741 -141574,-7275701 -141610,-7275663 -141645,-7275627 -141726,-7275564 -141739,-7275554 -141764,-7275542 -141777,-7275535 -141787,-7275521 -141793,-7275500 -141795,-7275457 -141808,-7275434 -141835,-7275408 -141859,-7275395 -141894,-7275382 -141935,-7275375 -141957,-7275374 -141974,-7275370 -141990,-7275360 -141998,-7275345 -142006,-7275296 -142020,-7275197 -142032,-7275070 -142045,-7275029 -142065,-7274853 -142065,-7274788 -142073,-7274771 -142086,-7274742 -142112,-7274701 -142153,-7274637 -142167,-7274611 -142178,-7274606 -142176,-7274577 -142171,-7274560 -142172,-7274539 -142148,-7274488 -142147,-7274473 -142157,-7274468 -142196,-7274473 -142243,-7274476 -142256,-7274470 -142267,-7274460 -142273,-7274447 -142273,-7274446 -142271,-7274429 -142255,-7274411 -142243,-7274379 -142239,-7274344 -142239,-7274319 -142240,-7274312 -142242,-7274262 -142252,-7274252 -142267,-7274241 -142289,-7274236 -142304,-7274236 -142325,-7274215 -142337,-7274202 -142342,-7274192 -142341,-7274183 -142325,-7274165 -142328,-7274146 -142336,-7274126 -142353,-7274113 -142363,-7274102 -142365,-7274073 -142369,-7274021 -142371,-7273994 -142371,-7273973 -142367,-7273943 -142360,-7273884 -142346,-7273845 -142342,-7273817 -142338,-7273790 -142344,-7273781 -142344,-7273771 -142335,-7273768 -142329,-7273747 -142329,-7273721 -142337,-7273700 -142343,-7273679 -142342,-7273648 -142344,-7273623 -142346,-7273590 -142356,-7273583 -142356,-7273575 -142352,-7273570 -142353,-7273559 -142363,-7273550 -142383,-7273534 -142399,-7273518 -142404,-7273508 -142406,-7273497 -142398,-7273484 -142402,-7273459 -142411,-7273429 -142423,-7273409 -142440,-7273391 -142453,-7273367 -142460,-7273345 -142469,-7273328 -142497,-7273286 -142499,-7273268 -142511,-7273249 -142535,-7273219 -142539,-7273191 -142567,-7273163 -142580,-7273159 -142585,-7273147 -142586,-7273134 -142599,-7273124 -142605,-7273109 -142606,-7273089 -142617,-7273068 -142618,-7273051 -142618,-7273041 -142617,-7273034 -142609,-7273022 -142609,-7273011 -142626,-7272994 -142635,-7272969 -142646,-7272958 -142666,-7272948 -142674,-7272939 -142678,-7272927 -142681,-7272912 -142692,-7272891 -142697,-7272865 -142707,-7272839 -142711,-7272835 -142728,-7272825 -142738,-7272812 -142756,-7272796 -142769,-7272789 -142779,-7272796 -142791,-7272795 -142797,-7272791 -142811,-7272768 -142823,-7272754 -142834,-7272749 -142843,-7272747 -142860,-7272747 -142868,-7272722 -142877,-7272708 -142885,-7272703 -142894,-7272704 -142901,-7272711 -142915,-7272730 -142922,-7272736 -142930,-7272735 -142933,-7272728 -142927,-7272708 -142927,-7272691 -142934,-7272681 -142947,-7272679 -142962,-7272668 -142985,-7272657 -142998,-7272619 -142998,-7272618 -142998,-7272615 -142987,-7272591 -142994,-7272572 -142995,-7272557 -142995,-7272545 -142997,-7272538 -143008,-7272537 -143020,-7272533 -143025,-7272527 -143023,-7272516 -143017,-7272505 -143006,-7272496 -143002,-7272481 -143003,-7272465 -143007,-7272456 -143014,-7272447 -143026,-7272438 -143049,-7272425 -143061,-7272410 -143085,-7272382 -143093,-7272376 -143094,-7272366 -143089,-7272355 -143080,-7272347 -143077,-7272337 -143077,-7272316 -143073,-7272305 -143064,-7272290 -143062,-7272274 -143057,-7272247 -143053,-7272206 -143047,-7272195 -143034,-7272183 -143040,-7272167 -143042,-7272137 -143050,-7272112 -143044,-7272046 -143036,-7272034 -143035,-7272025 -143040,-7271999 -143032,-7271978 -143029,-7271899 -143018,-7271820 -143016,-7271772 -143007,-7271744 -143006,-7271733 -143017,-7271709 -143019,-7271679 -143018,-7271642 -143010,-7271631 -143012,-7271618 -143017,-7271604 -143033,-7271586 -143036,-7271571 -143037,-7271553 -143024,-7271544 -143021,-7271529 -143010,-7271511 -143006,-7271495 -142999,-7271479 -143026,-7271428 -143043,-7271372 -143039,-7271355 -143039,-7271340 -143014,-7271346 -143007,-7271343 -143010,-7271322 -143015,-7271303 -143014,-7271291 -143015,-7271283 -143012,-7271274 -143013,-7271267 -143033,-7271263 -143046,-7271258 -143052,-7271248 -143053,-7271234 -143043,-7271223 -143036,-7271205 -143031,-7271159 -143015,-7271131 -143011,-7271107 -142998,-7271078 -142998,-7271057 -143019,-7271044 -143022,-7271035 -143020,-7270997 -143015,-7270995 -142999,-7270997 -142989,-7270992 -142986,-7270987 -142988,-7270980 -143001,-7270969 -143001,-7270964 -142972,-7270958 -142964,-7270952 -142963,-7270941 -142969,-7270933 -142963,-7270903 -142964,-7270887 -142982,-7270868 -142985,-7270860 -142984,-7270850 -142979,-7270844 -142948,-7270844 -142943,-7270839 -142961,-7270820 -142970,-7270810 -142971,-7270798 -142971,-7270789 -142968,-7270782 -142958,-7270783 -142942,-7270793 -142923,-7270791 -142906,-7270786 -142880,-7270772 -142881,-7270744 -142884,-7270736 -142892,-7270736 -142900,-7270739 -142913,-7270751 -142919,-7270751 -142923,-7270748 -142922,-7270727 -142915,-7270720 -142902,-7270720 -142891,-7270722 -142880,-7270717 -142866,-7270699 -142878,-7270688 -142881,-7270678 -142881,-7270656 -142876,-7270645 -142869,-7270639 -142846,-7270632 -142839,-7270627 -142836,-7270620 -142837,-7270597 -142834,-7270583 -142827,-7270570 -142821,-7270562 -142817,-7270552 -142816,-7270545 -142823,-7270532 -142825,-7270519 -142792,-7270498 -142778,-7270498 -142758,-7270506 -142751,-7270503 -142740,-7270494 -142724,-7270496 -142719,-7270493 -142718,-7270482 -142728,-7270457 -142729,-7270420 -142732,-7270409 -142738,-7270396 -142730,-7270368 -142731,-7270357 -142743,-7270348 -142752,-7270334 -142759,-7270323 -142761,-7270315 -142762,-7270291 -142759,-7270279 -142747,-7270259 -142748,-7270239 -142750,-7270218 -142746,-7270208 -142732,-7270197 -142724,-7270173 -142716,-7270161 -142717,-7270138 -142712,-7270120 -142713,-7270100 -142718,-7270047 -142724,-7270040 -142727,-7270019 -142738,-7269991 -142750,-7269956 -142760,-7269937 -142761,-7269910 -142782,-7269887 -142783,-7269876 -142793,-7269859 -142796,-7269840 -142796,-7269828 -142788,-7269812 -142788,-7269790 -142779,-7269783 -142760,-7269779 -142741,-7269753 -142725,-7269752 -142714,-7269746 -142704,-7269734 -142705,-7269714 -142699,-7269709 -142686,-7269691 -142683,-7269682 -142687,-7269673 -142699,-7269656 -142699,-7269645 -142690,-7269637 -142691,-7269611 -142660,-7269596 -142656,-7269583 -142634,-7269576 -142630,-7269552 -142635,-7269542 -142636,-7269517 -142648,-7269501 -142649,-7269498 -142649,-7269491 -142642,-7269482 -142615,-7269470 -142605,-7269463 -142602,-7269443 -142595,-7269429 -142596,-7269413 -142580,-7269385 -142572,-7269366 -142571,-7269359 -142575,-7269356 -142584,-7269349 -142590,-7269343 -142597,-7269335 -142611,-7269311 -142615,-7269307 -142628,-7269306 -142652,-7269307 -142655,-7269283 -142659,-7269273 -142667,-7269266 -142677,-7269260 -142684,-7269257 -142688,-7269254 -142686,-7269245 -142680,-7269235 -142678,-7269225 -142679,-7269215 -142682,-7269207 -142689,-7269207 -142698,-7269207 -142705,-7269207 -142711,-7269205 -142711,-7269193 -142705,-7269175 -142703,-7269168 -142715,-7269158 -142719,-7269149 -142719,-7269111 -142721,-7269101 -142717,-7269088 -142709,-7269079 -142709,-7269070 -142718,-7269068 -142742,-7269067 -142747,-7269063 -142750,-7269057 -142751,-7269041 -142739,-7269038 -142731,-7269025 -142730,-7269004 -142719,-7268994 -142719,-7268987 -142724,-7268982 -142735,-7268975 -142741,-7268964 -142739,-7268949 -142728,-7268936 -142701,-7268921 -142686,-7268917 -142656,-7268916 -142646,-7268928 -142637,-7268929 -142628,-7268925 -142612,-7268907 -142612,-7268892 -142601,-7268879 -142585,-7268875 -142583,-7268875 -142584,-7268869 -142584,-7268865 -142578,-7268859 -142572,-7268859 -142563,-7268863 -142548,-7268872 -142540,-7268877 -142494,-7268867 -142426,-7268859 -142414,-7268852 -142410,-7268840 -142406,-7268829 -142407,-7268819 -142417,-7268807 -142422,-7268798 -142406,-7268779 -142395,-7268776 -142388,-7268777 -142385,-7268777 -142364,-7268791 -142350,-7268791 -142334,-7268776 -142332,-7268773 -142330,-7268770 -142330,-7268767 -142331,-7268763 -142333,-7268761 -142335,-7268760 -142353,-7268758 -142366,-7268752 -142370,-7268749 -142373,-7268745 -142373,-7268741 -142373,-7268729 -142368,-7268723 -142358,-7268725 -142338,-7268738 -142330,-7268739 -142307,-7268723 -142305,-7268713 -142302,-7268704 -142266,-7268684 -142256,-7268675 -142260,-7268651 -142258,-7268643 -142241,-7268630 -142237,-7268620 -142238,-7268611 -142219,-7268599 -142204,-7268600 -142192,-7268608 -142172,-7268586 -142159,-7268596 -142148,-7268602 -142134,-7268601 -142125,-7268591 -142134,-7268582 -142134,-7268558 -142130,-7268552 -142107,-7268542 -142095,-7268533 -142088,-7268522 -142086,-7268510 -142080,-7268505 -142071,-7268504 -142048,-7268483 -142025,-7268476 -142015,-7268476 -142006,-7268469 -141999,-7268459 -141998,-7268450 -141975,-7268431 -141948,-7268430 -141942,-7268423 -141935,-7268411 -141922,-7268387 -141913,-7268380 -141901,-7268370 -141894,-7268363 -141884,-7268347 -141873,-7268314 -141850,-7268282 -141826,-7268273 -141811,-7268275 -141801,-7268280 -141790,-7268285 -141784,-7268286 -141776,-7268279 -141771,-7268269 -141769,-7268261 -141761,-7268254 -141745,-7268255 -141732,-7268260 -141718,-7268275 -141705,-7268285 -141687,-7268319 -141667,-7268308 -141662,-7268308 -141647,-7268312 -141616,-7268296 -141592,-7268301 -141580,-7268311 -141573,-7268311 -141567,-7268305 -141564,-7268290 -141557,-7268284 -141545,-7268284 -141537,-7268288 -141527,-7268287 -141519,-7268279 -141520,-7268266 -141514,-7268260 -141484,-7268259 -141470,-7268267 -141458,-7268259 -141444,-7268249 -141433,-7268249 -141412,-7268252 -141391,-7268242 -141379,-7268230 -141369,-7268226 -141351,-7268225 -141343,-7268229 -141343,-7268242 -141339,-7268249 -141326,-7268249 -141295,-7268234 -141263,-7268226 -141256,-7268219 -141241,-7268219 -141241,-7268230 -141233,-7268236 -141201,-7268236 -141189,-7268243 -141173,-7268242 -141170,-7268236 -141177,-7268227 -141174,-7268219 -141144,-7268210 -141136,-7268201 -141132,-7268190 -141133,-7268176 -141124,-7268175 -141107,-7268184 -141079,-7268201 -141071,-7268194 -141069,-7268180 -141046,-7268152 -141035,-7268143 -141037,-7268138 -141050,-7268142 -141056,-7268138 -141057,-7268128 -141041,-7268121 -141034,-7268112 -141030,-7268102 -141021,-7268095 -140997,-7268085 -140987,-7268085 -140978,-7268088 -140972,-7268084 -140966,-7268068 -140955,-7268048 -140957,-7268026 -140916,-7268000 -140896,-7267994 -140873,-7267993 -140848,-7267995 -140843,-7267992 -140832,-7267969 -140817,-7267958 -140793,-7267948 -140780,-7267933 -140779,-7267921 -140774,-7267914 -140760,-7267912 -140744,-7267915 -140735,-7267918 -140726,-7267916 -140709,-7267882 -140711,-7267851 -140692,-7267830 -140681,-7267830 -140659,-7267837 -140601,-7267833 -140590,-7267827 -140572,-7267806 -140558,-7267806 -140530,-7267831 -140505,-7267848 -140485,-7267855 -140455,-7267855 -140431,-7267857 -140397,-7267855 -140378,-7267847 -140357,-7267847 -140317,-7267827 -140309,-7267841 -140291,-7267862 -140267,-7267858 -140252,-7267859 -140234,-7267868 -140217,-7267869 -140158,-7267854 -140147,-7267850 -140140,-7267843 -140132,-7267834 -140129,-7267832 -140118,-7267828 -140096,-7267834 -140089,-7267831 -140078,-7267821 -140051,-7267787 -140044,-7267768 -140032,-7267768 -139941,-7267697 -139881,-7267640 -139868,-7267616 -139859,-7267610 -139860,-7267753 -139851,-7267801 -139544,-7267880 -139287,-7267939 -139286,-7267916 -139272,-7267896 -139254,-7267843 -139233,-7267780 -139223,-7267750 -139221,-7267725 -139200,-7267726 -139183,-7267712 -139164,-7267712 -139160,-7267697 -139159,-7267684 -139150,-7267677 -139129,-7267670 -139129,-7267684 -139110,-7267681 -139097,-7267672 -139093,-7267685 -139071,-7267688 -139057,-7267702 -139050,-7267703 -139033,-7267720 -139014,-7267719 -138988,-7267710 -138979,-7267700 -138978,-7267684 -138970,-7267673 -138966,-7267659 -138957,-7267653 -138947,-7267652 -138946,-7267665 -138913,-7267664 -138914,-7267652 -138874,-7267625 -138848,-7267628 -138831,-7267622 -138796,-7267602 -138791,-7267590 -138775,-7267589 -138743,-7267608 -138704,-7267603 -138689,-7267606 -138664,-7267617 -138631,-7267638 -138619,-7267640 -138566,-7267639 -138523,-7267641 -138506,-7267637 -138475,-7267617 -138467,-7267613 -138458,-7267609 -138443,-7267610 -138421,-7267615 -138389,-7267629 -138364,-7267631 -138351,-7267640 -138343,-7267641 -138330,-7267636 -138315,-7267633 -138294,-7267640 -138277,-7267644 -138264,-7267656 -138249,-7267692 -138228,-7267717 -138212,-7267736 -138198,-7267737 -138176,-7267728 -138151,-7267717 -138139,-7267707 -138138,-7267695 -138128,-7267678 -138090,-7267639 -138067,-7267627 -138043,-7267628 -138018,-7267635 -138007,-7267641 -137997,-7267643 -137970,-7267641 -137957,-7267631 -137940,-7267616 -137911,-7267603 -137890,-7267591 -137872,-7267576 -137849,-7267551 -137829,-7267529 -137811,-7267529 -137797,-7267492 -137797,-7267480 -137788,-7267469 -137716,-7267463 -137693,-7267469 -137645,-7267483 -137583,-7267439 -137562,-7267424 -137526,-7267394 -137515,-7267393 -137464,-7267402 -137456,-7267311 -137464,-7267302 -137450,-7267067 -137433,-7266867 -137433,-7266835 -137432,-7266814 -137427,-7266774 -137421,-7266742 -137411,-7266623 -137410,-7266602 -137473,-7266600 -137498,-7266609 -137529,-7266616 -137560,-7266620 -137735,-7266634 -137765,-7266634 -137831,-7266629 -137864,-7266621 -137870,-7266619 -137910,-7266483 -137931,-7266443 -137961,-7266371 -137972,-7266363 -137993,-7266321 -138041,-7266224 -138090,-7266134 -138183,-7265973 -138237,-7265884 -138257,-7265843 -138287,-7265773 -138291,-7265763 -138294,-7265742 -138368,-7265730 -138453,-7265714 -138489,-7265694 -138506,-7265686 -138512,-7265684 -138530,-7265679 -138541,-7265680 -138564,-7265685 -138576,-7265688 -138596,-7265701 -138604,-7265709 -138607,-7265714 -138610,-7265723 -138647,-7265809 -138659,-7265824 -138667,-7265831 -138672,-7265834 -138690,-7265836 -138697,-7265841 -138703,-7265843 -138709,-7265844 -138714,-7265844 -138723,-7265841 -138730,-7265837 -138752,-7265830 -138775,-7265799 -138791,-7265790 -138806,-7265781 -138825,-7265780 -138837,-7265766 -138843,-7265754 -138835,-7265734 -138835,-7265733 -138843,-7265726 -138852,-7265713 -138859,-7265714 -138872,-7265698 -138885,-7265700 -138904,-7265681 -138910,-7265677 -138926,-7265671 -138951,-7265667 -138966,-7265669 -138981,-7265672 -138980,-7265658 -138981,-7265652 -138982,-7265650 -139014,-7265658 -139018,-7265660 -139043,-7265675 -139061,-7265689 -139068,-7265684 -139069,-7265663 -139080,-7265654 -139101,-7265658 -139106,-7265656 -139119,-7265648 -139127,-7265645 -139168,-7265654 -139173,-7265661 -139179,-7265662 -139187,-7265659 -139190,-7265656 -139191,-7265654 -139187,-7265644 -139188,-7265642 -139192,-7265639 -139196,-7265637 -139201,-7265636 -139229,-7265640 -139243,-7265636 -139258,-7265666 -139263,-7265669 -139266,-7265669 -139270,-7265667 -139271,-7265665 -139277,-7265647 -139317,-7265645 -139332,-7265694 -139371,-7265680 -139383,-7265670 -139389,-7265669 -139402,-7265671 -139411,-7265673 -139432,-7265684 -139687,-7265662 -139725,-7265660 -139892,-7265637 -139884,-7265615 -139851,-7265501 -139849,-7265498 -139841,-7265492 -139797,-7265473 -139793,-7265470 -139774,-7265448 -139768,-7265440 -139761,-7265423 -139750,-7265379 -139740,-7265360 -139733,-7265342 -139725,-7265323 -139697,-7265296 -139677,-7265280 -139573,-7265209 -139563,-7265195 -139523,-7265128 -139512,-7264999 -139517,-7264979 -139518,-7264965 -139517,-7264948 -139519,-7264903 -139544,-7264895 -139556,-7264895 -139564,-7264893 -139570,-7264891 -139576,-7264887 -139586,-7264877 -139604,-7264863 -139611,-7264855 -139622,-7264840 -139647,-7264795 -139656,-7264774 -139659,-7264763 -139661,-7264749 -139662,-7264731 -139661,-7264717 -139659,-7264707 -139653,-7264689 -139632,-7264656 -139629,-7264648 -139628,-7264643 -139629,-7264629 -139657,-7264574 -139668,-7264551 -139681,-7264514 -139707,-7264487 -139742,-7264461 -139747,-7264454 -139765,-7264411 -139788,-7264338 -139794,-7264329 -139804,-7264314 -139817,-7264301 -139830,-7264291 -139847,-7264278 -139850,-7264275 -139852,-7264271 -139853,-7264262 -139859,-7264245 -139870,-7264188 -139876,-7264180 -139885,-7264170 -139908,-7264152 -139914,-7264157 -139946,-7264136 -139949,-7264133 -139951,-7264128 -139953,-7264122 -139952,-7264096 -139941,-7264031 -139936,-7264005 -139919,-7263951 -139915,-7263938 -139912,-7263914 -139900,-7263857 -139894,-7263807 -139893,-7263795 -139891,-7263765 -139891,-7263733 -139892,-7263714 -139895,-7263679 -139919,-7263525 -139962,-7263303 -139970,-7263271 -139975,-7263234 -139980,-7263130 -139978,-7263049 -139978,-7263021 -139976,-7262997 -139973,-7262994 -139983,-7262991 -139996,-7262990 -140054,-7262985 -140115,-7263044 -140120,-7263047 -140129,-7263051 -140140,-7263053 -140149,-7263054 -140177,-7263051 -140246,-7263069 -140264,-7263080 -140272,-7263084 -140283,-7263086 -140294,-7263087 -140310,-7263084 -140355,-7263068 -140365,-7263066 -140370,-7263067 -140404,-7263078 -140466,-7263086 -140479,-7263084 -140513,-7263065 -140563,-7263044 -140572,-7263042 -140593,-7263039 -140603,-7263040 -140619,-7263043 -140648,-7263035 -140672,-7263039 -140681,-7263041 -140688,-7263041 -140695,-7263040 -140702,-7263037 -140734,-7263041 -140753,-7263046 -140764,-7263050 -140786,-7263059 -140810,-7263081 -140829,-7263094 -140883,-7263153 -140890,-7263157 -140897,-7263161 -140911,-7263163 -141022,-7263149 -141056,-7263156 -141069,-7263162 -141087,-7263174 -141105,-7263175 -141109,-7263178 -141131,-7263216 -141138,-7263225 -141155,-7263231 -141165,-7263231 -141170,-7263230 -141180,-7263227 -141251,-7263190 -141280,-7263182 -141288,-7263182 -141297,-7263183 -141304,-7263186 -141318,-7263195 -141338,-7263203 -141346,-7263207 -141356,-7263216 -141405,-7263255 -141422,-7263277 -141428,-7263285 -141445,-7263298 -141455,-7263308 -141482,-7263342 -141493,-7263341 -141515,-7263343 -141524,-7263349 -141530,-7263351 -141537,-7263353 -141549,-7263353 -141577,-7263345 -141606,-7263350 -141628,-7263348 -141655,-7263355 -141704,-7263358 -141721,-7263369 -141730,-7263379 -141734,-7263386 -141737,-7263394 -141738,-7263398 -141722,-7263429 -141720,-7263437 -141718,-7263453 -141718,-7263496 -141690,-7263561 -141707,-7263575 -141736,-7263592 -141745,-7263599 -141756,-7263612 -141769,-7263635 -141773,-7263645 -141777,-7263651 -141782,-7263656 -141789,-7263661 -141793,-7263664 -141806,-7263668 -141826,-7263680 -141830,-7263684 -141848,-7263702 -141860,-7263710 -141865,-7263713 -141878,-7263715 -141912,-7263696 -141938,-7263686 -141959,-7263682 -141988,-7263679 -141995,-7263673 -142005,-7263669 -142012,-7263668 -142027,-7263669 -142040,-7263659 -142046,-7263657 -142064,-7263653 -142073,-7263648 -142079,-7263641 -142106,-7263553 -142117,-7263540 -142121,-7263526 -142123,-7263522 -142139,-7263509 -142149,-7263499 -142160,-7263485 -142232,-7263459 -142239,-7263458 -142249,-7263459 -142253,-7263460 -142264,-7263469 -142270,-7263473 -142290,-7263483 -142308,-7263495 -142324,-7263519 -142344,-7263540 -142350,-7263549 -142355,-7263554 -142362,-7263558 -142381,-7263563 -142402,-7263571 -142436,-7263574 -142449,-7263577 -142455,-7263579 -142471,-7263591 -142487,-7263593 -142503,-7263602 -142519,-7263605 -142530,-7263605 -142583,-7263597 -142597,-7263592 -142607,-7263588 -142620,-7263579 -142658,-7263543 -142683,-7263523 -142707,-7263505 -142728,-7263491 -142747,-7263480 -142771,-7263469 -142804,-7263455 -142841,-7263420 -142843,-7263407 -142923,-7263378 -142930,-7263375 -142935,-7263370 -142969,-7263332 -142980,-7263317 -142983,-7263311 -142985,-7263282 -142988,-7263270 -142996,-7263253 -143005,-7263243 -143016,-7263222 -143066,-7263114 -143084,-7263100 -143100,-7263091 -143114,-7263087 -143131,-7263089 -143142,-7263087 -143152,-7263086 -143160,-7263086 -143194,-7263095 -143208,-7263092 -143220,-7263089 -143241,-7263078 -143292,-7263038 -143300,-7263035 -143316,-7263034 -143321,-7263036 -143324,-7263039 -143325,-7263044 -143318,-7263074 -143315,-7263079 -143314,-7263083 -143314,-7263087 -143318,-7263093 -143324,-7263096 -143327,-7263096 -143339,-7263093 -143342,-7263089 -143344,-7263088 -143346,-7263089 -143348,-7263090 -143349,-7263092 -143344,-7263113 -143346,-7263119 -143348,-7263120 -143350,-7263121 -143356,-7263120 -143375,-7263106 -143381,-7263117 -143384,-7263118 -143389,-7263119 -143394,-7263119 -143402,-7263116 -143408,-7263112 -143419,-7263110 -143459,-7263098 -143448,-7263108 -143448,-7263114 -143474,-7263120 -143484,-7263118 -143498,-7263120 -143556,-7263122 -143549,-7263107 -143548,-7263097 -143548,-7263089 -143556,-7263063 -143556,-7263049 -143555,-7263043 -143552,-7263033 -143531,-7262996 -143518,-7262979 -143488,-7262957 -143471,-7262947 -143444,-7262937 -143429,-7262927 -143424,-7262922 -143419,-7262915 -143366,-7262825 -143360,-7262811 -143352,-7262786 -143348,-7262760 -143348,-7262759 -143348,-7262752 -143351,-7262674 -143349,-7262656 -143340,-7262622 -143340,-7262617 -143341,-7262587 -143342,-7262572 -143349,-7262546 -143349,-7262541 -143348,-7262531 -143346,-7262519 -143344,-7262514 -143308,-7262459 -143301,-7262445 -143292,-7262433 -143278,-7262421 -143249,-7262385 -143242,-7262374 -143230,-7262350 -143220,-7262293 -143220,-7262271 -143217,-7262245 -143214,-7262215 -143220,-7262176 -143228,-7262134 -143231,-7262126 -143235,-7262115 -143241,-7262105 -143248,-7262096 -143258,-7262087 -143271,-7262076 -143308,-7262039 -143342,-7262012 -143381,-7261989 -143425,-7261949 -143434,-7261944 -143447,-7261937 -143460,-7261933 -143471,-7261930 -143480,-7261930 -143491,-7261930 -143511,-7261934 -143584,-7261943 -143685,-7261963 -143698,-7261970 -143706,-7261977 -143712,-7261985 -143716,-7261992 -143718,-7262001 -143718,-7262009 -143717,-7262017 -143716,-7262022 -143659,-7262122 -143643,-7262187 -143642,-7262219 -143645,-7262250 -143649,-7262254 -143657,-7262260 -143672,-7262267 -143706,-7262275 -143721,-7262282 -143725,-7262282 -143740,-7262281 -143748,-7262277 -143763,-7262263 -143772,-7262257 -143779,-7262251 -143783,-7262246 -143788,-7262240 -143793,-7262230 -143796,-7262221 -143818,-7262165 -143844,-7262088 -143852,-7262032 -143871,-7261975 -143888,-7261941 -143921,-7261806 -143930,-7261781 -143939,-7261755 -143951,-7261725 -143964,-7261696 -143984,-7261654 -143987,-7261647 -143991,-7261631 -143995,-7261614 -143996,-7261601 -143995,-7261584 -143993,-7261569 -143990,-7261555 -143988,-7261543 -143989,-7261536 -143991,-7261529 -143996,-7261517 -144001,-7261511 -144010,-7261503 -144050,-7261484 -144064,-7261476 -144083,-7261469 -144101,-7261465 -144113,-7261465 -144136,-7261467 -144183,-7261480 -144272,-7261520 -144287,-7261524 -144300,-7261525 -144310,-7261525 -144328,-7261521 -144333,-7261520 -144375,-7261496 -144379,-7261488 -144385,-7261472 -144388,-7261456 -144390,-7261442 -144390,-7261421 -144392,-7261413 -144396,-7261399 -144416,-7261365 -144464,-7261310 -144489,-7261285 -144506,-7261259 -144517,-7261240 -144525,-7261225 -144539,-7261191 -144560,-7261109 -144585,-7261030 -144611,-7260955 -144620,-7260935 -144628,-7260925 -144644,-7260907 -144680,-7260877 -144705,-7260860 -144727,-7260836 -144734,-7260819 -144744,-7260805 -144752,-7260796 -144763,-7260789 -144773,-7260783 -144784,-7260780 -144794,-7260779 -144804,-7260778 -144817,-7260779 -145026,-7260782 -145036,-7260786 -145041,-7260788 -145051,-7260797 -145059,-7260809 -145063,-7260819 -145062,-7260828 -145058,-7260836 -145045,-7260854 -145037,-7260861 -145029,-7260866 -145020,-7260870 -145011,-7260872 -145001,-7260874 -144989,-7260873 -144909,-7260875 -144903,-7260877 -144899,-7260880 -144896,-7260883 -144895,-7260886 -144891,-7260905 -144896,-7260917 -144905,-7260928 -144917,-7260939 -144945,-7260953 -144964,-7260966 -144971,-7260976 -144973,-7260981 -144975,-7260988 -144974,-7260996 -144971,-7261005 -144962,-7261023 -144952,-7261037 -144950,-7261040 -144942,-7261070 -144940,-7261079 -144937,-7261171 -144940,-7261189 -144944,-7261202 -144953,-7261215 -144964,-7261225 -145046,-7261281 -145060,-7261288 -145070,-7261290 -145079,-7261291 -145089,-7261291 -145104,-7261288 -145194,-7261283 -145236,-7261272 -145326,-7261202 -145393,-7261190 -145410,-7261190 -145421,-7261188 -145432,-7261186 -145444,-7261181 -145456,-7261175 -145484,-7261153 -145501,-7261144 -145527,-7261120 -145533,-7261094 -145534,-7261077 -145533,-7261060 -145531,-7261044 -145534,-7261035 -145535,-7261034 -145575,-7261027 -145596,-7261027 -145605,-7261026 -145617,-7261023 -145629,-7261019 -145647,-7261009 -145655,-7261003 -145664,-7260994 -145672,-7260985 -145678,-7260975 -145687,-7260955 -145695,-7260918 -145730,-7260920 -145733,-7260923 -145750,-7260940 -145772,-7260981 -145795,-7261000 -145820,-7261012 -145844,-7261060 -145850,-7261070 -145881,-7261094 -145889,-7261101 -145898,-7261107 -145909,-7261113 -145917,-7261115 -145924,-7261117 -145940,-7261117 -146005,-7261103 -146044,-7261090 -146083,-7261076 -146107,-7261071 -146134,-7261079 -146175,-7261070 -146214,-7261033 -146252,-7261002 -146257,-7260986 -146266,-7260965 -146279,-7260948 -146311,-7260910 -146343,-7260847 -146364,-7260794 -146388,-7260753 -146408,-7260723 -146417,-7260714 -146427,-7260706 -146448,-7260696 -146458,-7260674 -146478,-7260631 -146496,-7260588 -146512,-7260543 -146519,-7260520 -146525,-7260495 -146540,-7260415 -146567,-7260317 -146598,-7260246 -146627,-7260203 -146704,-7260141 -146742,-7260106 -146753,-7260097 -146766,-7260088 -146858,-7260068 -146892,-7260061 -146985,-7260045 -147043,-7260032 -147093,-7260024 -147130,-7260006 -147148,-7260000 -147190,-7259990 -147255,-7259981 -147278,-7259974 -147299,-7259967 -147333,-7259950 -147402,-7259901 -147397,-7259877 -147401,-7259853 -147423,-7259841 -147469,-7259821 -147515,-7259792 -147582,-7259745 -147654,-7259699 -147737,-7259656 -147790,-7259627 -147916,-7259555 -147970,-7259522 -148023,-7259492 -148110,-7259437 -148275,-7259336 -148328,-7259300 -148396,-7259257 -148458,-7259224 -148510,-7259190 -148635,-7259116 -148786,-7259013 -148900,-7258944 -148947,-7258910 -149182,-7258753 -149315,-7258670 -149391,-7258631 -149415,-7258620 -149440,-7258610 -149503,-7258586 -149572,-7258556 -149603,-7258555 -149611,-7258558 -149614,-7258561 -149617,-7258565 -149618,-7258570 -149618,-7258575 -149617,-7258579 -149613,-7258585 -149607,-7258590 -149614,-7258612 -149632,-7258638 -149635,-7258647 -149637,-7258655 -149633,-7258670 -149632,-7258678 -149632,-7258687 -149635,-7258704 -149646,-7258724 -149645,-7258742 -149640,-7258755 -149639,-7258760 -149638,-7258767 -149639,-7258779 -149638,-7258802 -149626,-7258814 -149634,-7258830 -149653,-7258852 -149675,-7258858 -149693,-7258901 -149693,-7258914 -149693,-7258915 -149660,-7258911 -149655,-7258912 -149648,-7258915 -149644,-7258921 -149643,-7258926 -149644,-7258935 -149639,-7258958 -149610,-7258955 -149606,-7258953 -149600,-7258962 -149602,-7259007 -149579,-7259019 -149573,-7259042 -149558,-7259080 -149561,-7259101 -149542,-7259102 -149523,-7259109 -149520,-7259127 -149530,-7259148 -149529,-7259150 -149521,-7259160 -149499,-7259175 -149481,-7259192 -149460,-7259206 -149440,-7259215 -149425,-7259228 -149436,-7259235 -149470,-7259251 -149477,-7259258 -149479,-7259262 -149480,-7259267 -149479,-7259275 -149477,-7259278 -149465,-7259290 -149457,-7259300 -149447,-7259317 -149481,-7259318 -149490,-7259315 -149494,-7259315 -149500,-7259316 -149505,-7259318 -149509,-7259322 -149512,-7259327 -149514,-7259332 -149514,-7259336 -149512,-7259346 -149514,-7259354 -149513,-7259360 -149510,-7259366 -149505,-7259371 -149501,-7259373 -149495,-7259374 -149474,-7259368 -149468,-7259379 -149489,-7259396 -149496,-7259399 -149503,-7259398 -149507,-7259397 -149511,-7259394 -149513,-7259390 -149514,-7259387 -149515,-7259378 -149537,-7259345 -149545,-7259337 -149550,-7259334 -149563,-7259330 -149568,-7259330 -149576,-7259332 -149585,-7259337 -149595,-7259344 -149610,-7259363 -149602,-7259396 -149598,-7259426 -149605,-7259443 -149635,-7259454 -149663,-7259456 -149685,-7259470 -149701,-7259490 -149702,-7259495 -149702,-7259501 -149699,-7259506 -149695,-7259511 -149687,-7259515 -149683,-7259515 -149676,-7259513 -149651,-7259518 -149642,-7259525 -149642,-7259526 -149658,-7259550 -149666,-7259568 -149642,-7259583 -149627,-7259588 -149632,-7259605 -149632,-7259618 -149641,-7259627 -149663,-7259629 -149674,-7259645 -149681,-7259671 -149697,-7259686 -149714,-7259697 -149701,-7259713 -149682,-7259720 -149669,-7259741 -149631,-7259756 -149625,-7259773 -149659,-7259802 -149684,-7259799 -149689,-7259813 -149653,-7259821 -149645,-7259845 -149619,-7259853 -149609,-7259855 -149603,-7259858 -149599,-7259862 -149596,-7259867 -149594,-7259873 -149593,-7259878 -149595,-7259887 -149600,-7259893 -149647,-7259935 -149665,-7259938 -149666,-7259964 -149694,-7259978 -149687,-7260000 -149673,-7260013 -149681,-7260047 -149682,-7260067 -149681,-7260094 -149706,-7260113 -149715,-7260137 -149748,-7260139 -149747,-7260107 -149764,-7260105 -149780,-7260136 -149794,-7260157 -149817,-7260154 -149840,-7260154 -149856,-7260180 -149874,-7260186 -149893,-7260179 -149913,-7260182 -149926,-7260178 -149939,-7260174 -149964,-7260161 -149970,-7260142 -149973,-7260126 -150039,-7260122 -150047,-7260162 -150136,-7260164 -150168,-7260168 -150197,-7260178 -150220,-7260190 -150252,-7260196 -150259,-7260198 -150263,-7260223 -150274,-7260240 -150277,-7260250 -150281,-7260285 -150302,-7260301 -150342,-7260311 -150383,-7260330 -150410,-7260330 -150453,-7260302 -150505,-7260253 -150494,-7260241 -150539,-7260204 -150566,-7260174 -150620,-7260139 -150689,-7260134 -150708,-7260134 -150727,-7260134 -150764,-7260140 -150769,-7260142 -150814,-7260174 -150837,-7260188 -150859,-7260201 -150904,-7260224 -150971,-7260243 -150981,-7260245 -151003,-7260236 -151020,-7260203 -151033,-7260163 -151046,-7260124 -151053,-7260096 -151059,-7260069 -151067,-7260024 -151081,-7259983 -151098,-7259947 -151172,-7259845 -151197,-7259818 -151215,-7259818 -151248,-7259772 -151245,-7259750 -151278,-7259708 -151343,-7259639 -151383,-7259600 -151441,-7259537 -151491,-7259478 -151535,-7259429 -151542,-7259405 -151556,-7259341 -151561,-7259323 -151583,-7259277 -151597,-7259256 -151612,-7259235 -151649,-7259194 -151690,-7259148 -151735,-7259104 -151773,-7259052 -151816,-7258981 -151850,-7258945 -151886,-7258900 -151978,-7259044 -152076,-7259177 -152157,-7259301 -152238,-7259437 -152271,-7259477 -152310,-7259547 -152353,-7259609 -152391,-7259666 -152457,-7259747 -152498,-7259800 -152575,-7259880 -152642,-7259934 -152692,-7259996 -152792,-7260118 -152826,-7260172 -152839,-7260233 -152871,-7260316 -152890,-7260359 -152899,-7260373 -152909,-7260387 -152918,-7260397 -152930,-7260407 -152956,-7260425 -152991,-7260453 -152985,-7260469 -152962,-7260493 -152936,-7260526 -152960,-7260731 -152981,-7260886 -152986,-7260943 -152990,-7260982 -152996,-7261036 -153023,-7261171 -153032,-7261238 -153044,-7261317 -153049,-7261384 -153052,-7261451 -153057,-7261502 -153057,-7261569 -153053,-7261659 -153052,-7261831 -153050,-7261916 -153045,-7261975 -153037,-7262032 -153040,-7262054 -153039,-7262064 -153038,-7262075 -153031,-7262097 -153013,-7262132 -152999,-7262165 -152985,-7262249 -152978,-7262268 -152976,-7262279 -152976,-7262287 -152977,-7262297 -152988,-7262308 -152991,-7262320 -152982,-7262336 -152983,-7262341 -152991,-7262360 -152993,-7262368 -152995,-7262402 -152966,-7262415 -152943,-7262433 -152934,-7262433 -152929,-7262435 -152918,-7262440 -152906,-7262446 -152900,-7262450 -152872,-7262472 -152843,-7262479 -152830,-7262485 -152824,-7262489 -152812,-7262502 -152800,-7262498 -152793,-7262499 -152789,-7262501 -152787,-7262505 -152785,-7262510 -152785,-7262517 -152748,-7262536 -152722,-7262515 -152605,-7262612 -152611,-7262630 -152614,-7262637 -152615,-7262642 -152615,-7262649 -152613,-7262653 -152592,-7262676 -152555,-7262701 -152539,-7262747 -152539,-7262752 -152539,-7262762 -152540,-7262768 -152557,-7262797 -152606,-7262906 -152621,-7262934 -152648,-7262987 -152685,-7263053 -152727,-7263125 -152772,-7263172 -152799,-7263205 -152808,-7263215 -152923,-7263197 -152938,-7263229 -152948,-7263239 -152955,-7263257 -152990,-7263328 -153000,-7263357 -153026,-7263446 -153032,-7263460 -153046,-7263484 -153100,-7263531 -153116,-7263549 -153128,-7263566 -153133,-7263576 -153143,-7263618 -153148,-7263629 -153154,-7263636 -153157,-7263639 -153162,-7263640 -153183,-7263642 -153194,-7263645 -153199,-7263648 -153211,-7263656 -153221,-7263659 -153247,-7263666 -153343,-7263746 -153365,-7263768 -153375,-7263779 -153382,-7263789 -153388,-7263803 -153402,-7263851 -153429,-7263897 -153438,-7263911 -153443,-7263916 -153452,-7263925 -153481,-7263949 -153519,-7263960 -153545,-7263972 -153565,-7263986 -153593,-7264010 -153597,-7264015 -153602,-7264026 -153614,-7264093 -153660,-7264157 -153692,-7264184 -153696,-7264210 -153702,-7264228 -153704,-7264232 -153723,-7264260 -153733,-7264280 -153745,-7264269 -153753,-7264259 -153769,-7264241 -153812,-7264179 -153852,-7264100 -153901,-7263964 -153929,-7263893 -153938,-7263868 -153951,-7263812 -153953,-7263775 -153951,-7263748 -153948,-7263720 -153947,-7263670 -153904,-7263412 -153905,-7263359 -153905,-7263354 -153902,-7263339 -153897,-7263317 -153889,-7263295 -153854,-7263235 -153860,-7263141 -153863,-7263131 -153870,-7263111 -153879,-7263094 -153888,-7263079 -153906,-7263053 -153953,-7262999 -153962,-7262988 -153973,-7262977 -153986,-7262969 -154038,-7262933 -154049,-7262926 -154061,-7262921 -154075,-7262916 -154129,-7262904 -154161,-7262901 -154226,-7262900 -154317,-7262892 -154382,-7262891 -154504,-7262887 -154531,-7262889 -154547,-7262888 -154567,-7262886 -154604,-7262884 -154640,-7262878 -154657,-7262876 -154686,-7262875 -154692,-7262875 -154718,-7262875 -154816,-7262850 -154859,-7262833 -154948,-7262795 -154999,-7262769 -155133,-7262717 -155158,-7262704 -155171,-7262699 -155187,-7262695 -155193,-7262694 -155217,-7262691 -155254,-7262684 -155296,-7262680 -155326,-7262685 -155346,-7262690 -155366,-7262697 -155396,-7262714 -155426,-7262733 -155454,-7262756 -155543,-7262844 -155573,-7262879 -155599,-7262913 -155607,-7262925 -155616,-7262942 -155632,-7262970 -155646,-7263000 -155660,-7263032 -155669,-7263054 -155679,-7263089 -155686,-7263128 -155690,-7263169 -155685,-7263228 -155681,-7263293 -155669,-7263386 -155666,-7263407 -155661,-7263428 -155653,-7263459 -155628,-7263566 -155615,-7263663 -155615,-7263688 -155618,-7263719 -155648,-7263817 -155659,-7263849 -155727,-7264022 -155759,-7264062 -155780,-7264084 -155802,-7264106 -155902,-7264194 -156013,-7264275 -156053,-7264298 -156089,-7264319 -156101,-7264323 -156111,-7264326 -156125,-7264328 -156142,-7264328 -156151,-7264328 -156209,-7264329 -156259,-7264326 -156271,-7264325 -156312,-7264317 -156410,-7264305 -156467,-7264289 -156505,-7264275 -156526,-7264264 -156538,-7264256 -156572,-7264230 -156602,-7264212 -156603,-7264212 -156615,-7264203 -156636,-7264184 -156652,-7264167 -156678,-7264143 -156704,-7264108 -156718,-7264096 -156727,-7264086 -156738,-7264070 -156766,-7264020 -156812,-7263941 -156837,-7263896 -156866,-7263843 -156887,-7263798 -156908,-7263732 -156921,-7263699 -156934,-7263655 -156940,-7263629 -156952,-7263583 -156978,-7263472 -156981,-7263447 -156978,-7263432 -156969,-7263394 -156955,-7263356 -156927,-7263276 -156908,-7263236 -156895,-7263201 -156846,-7263027 -156835,-7262997 -156832,-7262986 -156791,-7262745 -156768,-7262585 -156758,-7262532 -156750,-7262477 -156736,-7262340 -156741,-7262148 -156741,-7262136 -156741,-7262090 -156743,-7262067 -156746,-7262044 -156751,-7262015 -156774,-7261859 -156801,-7261747 -156810,-7261697 -156848,-7261529 -156860,-7261483 -156871,-7261452 -156901,-7261373 -156926,-7261325 -156957,-7261272 -156998,-7261233 -157007,-7261223 -157035,-7261198 -157044,-7261189 -157055,-7261178 -157080,-7261151 -157106,-7261126 -157122,-7261116 -157172,-7261085 -157235,-7261063 -157270,-7261054 -157294,-7261049 -157337,-7261043 -157545,-7261025 -157649,-7261014 -157689,-7261012 -157711,-7261013 -157737,-7261015 -157751,-7261017 -157768,-7261020 -157785,-7261024 -157805,-7261029 -157819,-7261032 -157838,-7261033 -158028,-7261168 -158062,-7261194 -158076,-7261204 -158094,-7261214 -158132,-7261234 -158181,-7261269 -158236,-7261301 -158253,-7261310 -158323,-7261342 -158396,-7261366 -158423,-7261377 -158444,-7261381 -158494,-7261387 -158566,-7261389 -158652,-7261386 -158679,-7261393 -158775,-7261399 -158895,-7261411 -158953,-7261411 -159102,-7261417 -159259,-7261431 -159293,-7261438 -159307,-7261442 -159376,-7261466 -159392,-7261470 -159407,-7261476 -159414,-7261480 -159422,-7261487 -159433,-7261498 -159469,-7261525 -159490,-7261549 -159516,-7261585 -159533,-7261611 -159549,-7261657 -159556,-7261687 -159557,-7261702 -159557,-7261713 -159554,-7261737 -159550,-7261749 -159548,-7261761 -159543,-7261772 -159537,-7261779 -159519,-7261796 -159487,-7261825 -159463,-7261851 -159445,-7261866 -159428,-7261879 -159415,-7261888 -159400,-7261896 -159379,-7261907 -159354,-7261916 -159209,-7261990 -159176,-7262009 -159128,-7262038 -159029,-7262107 -158964,-7262164 -158951,-7262178 -158934,-7262194 -158919,-7262212 -158897,-7262251 -158878,-7262276 -158868,-7262294 -158843,-7262346 -158834,-7262358 -158826,-7262393 -158818,-7262437 -158810,-7262465 -158806,-7262507 -158815,-7262539 -158831,-7262575 -158835,-7262581 -158841,-7262587 -158851,-7262594 -158860,-7262599 -158886,-7262609 -158908,-7262614 -158935,-7262623 -158948,-7262630 -158974,-7262644 -159054,-7262683 -159068,-7262689 -159092,-7262698 -159118,-7262706 -159167,-7262727 -159241,-7262755 -159283,-7262766 -159351,-7262803 -159382,-7262817 -159437,-7262840 -159592,-7262934 -159645,-7262967 -159673,-7262985 -159726,-7263021 -159732,-7263027 -159712,-7263066 -159705,-7263093 -159688,-7263122 -159649,-7263198 -159583,-7263301 -159534,-7263372 -159574,-7263413 -159765,-7263590 -159823,-7263638 -159839,-7263660 -159865,-7263674 -159893,-7263698 -159833,-7263786 -159777,-7263853 -159749,-7263882 -159723,-7263920 -159785,-7264027 -159725,-7264074 -159710,-7264085 -159570,-7264165 -159552,-7264179 -159544,-7264182 -159550,-7264193 -159549,-7264203 -159572,-7264265 -159589,-7264290 -159556,-7264319 -159440,-7264379 -159352,-7264416 -159269,-7264458 -159213,-7264477 -159124,-7264506 -159110,-7264519 -159100,-7264542 -159094,-7264570 -159071,-7264650 -159026,-7264756 -158972,-7264881 -158941,-7264944 -158931,-7264952 -158921,-7264974 -158897,-7264999 -158876,-7265021 -158848,-7265045 -158829,-7265065 -158811,-7265097 -158783,-7265217 -158762,-7265294 -158746,-7265341 -158728,-7265380 -158705,-7265430 -158696,-7265454 -158680,-7265481 -158666,-7265490 -158658,-7265501 -158648,-7265549 -158643,-7265608 -158635,-7265679 -158628,-7265743 -158638,-7265771 -158638,-7265862 -158636,-7265936 -158646,-7266020 -158654,-7266139 -158670,-7266229 -158685,-7266291 -158687,-7266323 -158688,-7266402 -158686,-7266462 -158687,-7266508 -158690,-7266552 -158710,-7266650 -158713,-7266680 -158722,-7266710 -158724,-7266745 -158729,-7266758 -158746,-7266876 -158758,-7266895 -158773,-7266959 -158779,-7267006 -158823,-7267153 -158854,-7267252 -158869,-7267317 -158911,-7267466 -158946,-7267578 -158962,-7267652 -158991,-7267771 -159025,-7267863 -159032,-7267901 -159037,-7267929 -158922,-7267972 -158782,-7268019 -158639,-7268058 -158475,-7268102 -158454,-7268105 -158455,-7268210 -158461,-7268250 -158421,-7268353 -158391,-7268409 -158371,-7268439 -158355,-7268480 -158340,-7268493 -158305,-7268516 -158287,-7268531 -158284,-7268549 -158295,-7268585 -158290,-7268626 -158226,-7268761 -158224,-7268766 -158216,-7268794 -158214,-7268808 -158213,-7268824 -158213,-7268844 -158215,-7268861 -158220,-7268888 -158230,-7268924 -158228,-7268942 -158221,-7268963 -158234,-7268995 -158244,-7269069 -158245,-7269130 -158238,-7269160 -158239,-7269190 -158252,-7269233 -158260,-7269249 -158275,-7269266 -158293,-7269287 -158303,-7269302 -158313,-7269334 -158354,-7269432 -158383,-7269465 -158422,-7269501 -158470,-7269550 -158517,-7269585 -158528,-7269600 -158536,-7269609 -158555,-7269633 -158615,-7269696 -158661,-7269657 -158680,-7269649 -158687,-7269652 -158718,-7269679 -158744,-7269677 -158762,-7269667 -158787,-7269668 -158815,-7269694 -158838,-7269725 -158853,-7269758 -158867,-7269765 -158893,-7269787 -158918,-7269805 -158961,-7269827 -158995,-7269846 -159024,-7269854 -159081,-7269868 -159102,-7269885 -159118,-7269896 -159133,-7269914 -159158,-7269951 -159178,-7269969 -159218,-7269965 -159268,-7269964 -159327,-7269954 -159338,-7269951 -159346,-7269954 -159354,-7269971 -159368,-7269996 -159390,-7270036 -159397,-7270062 -159402,-7270067 -159407,-7270073 -159406,-7270081 -159432,-7270132 -159479,-7270217 -159545,-7270343 -159577,-7270398 -159608,-7270460 -159657,-7270553 -159676,-7270586 -159705,-7270627 -159713,-7270638 -159728,-7270637 -159747,-7270625 -159761,-7270616 -159766,-7270619 -159783,-7270652 -159788,-7270667 -159806,-7270687 -159826,-7270696 -159837,-7270703 -159854,-7270712 -159869,-7270713 -159880,-7270719 -159896,-7270718 -159914,-7270707 -159937,-7270696 -159977,-7270680 -160080,-7270628 -160084,-7270630 -160124,-7270690 -160133,-7270693 -160142,-7270691 -160147,-7270688 -160157,-7270703 -160158,-7270718 -160166,-7270729 -160267,-7270743 -160330,-7270751 -160434,-7270752 -160477,-7270749 -160538,-7270742 -160654,-7270725 -160676,-7270698 -160697,-7270685 -160722,-7270674 -160737,-7270656 -160762,-7270646 -160776,-7270636 -160796,-7270614 -160819,-7270600 -160827,-7270599 -160833,-7270627 -160840,-7270644 -160844,-7270664 -160864,-7270704 -160880,-7270744 -160895,-7270773 -160921,-7270831 -160927,-7270888 -160927,-7270939 -160925,-7270963 -160926,-7271009 -160938,-7271067 -160946,-7271101 -160964,-7271133 -160981,-7271197 -160983,-7271225 -160985,-7271234 -161006,-7271303 -161017,-7271323 -161039,-7271349 -161069,-7271384 -161104,-7271425 -161137,-7271466 -161164,-7271499 -161193,-7271532 -161291,-7271665 -161310,-7271690 -161332,-7271717 -161352,-7271735 -161356,-7271738 -161363,-7271743 -161369,-7271747 -161359,-7271782 -161329,-7271886 -161311,-7271945 -161307,-7271950 -161223,-7271940 -161160,-7271927 -161071,-7271907 -160958,-7271880 -160896,-7271944 -160839,-7272002 -160832,-7272013 -160777,-7272033 -160727,-7272048 -160740,-7272064 -160757,-7272113 -160764,-7272125 -160803,-7272157 -160818,-7272178 -160840,-7272197 -160862,-7272199 -160902,-7272209 -160916,-7272220 -160928,-7272249 -160927,-7272264 -160919,-7272278 -160933,-7272290 -160957,-7272306 -160964,-7272315 -160965,-7272332 -160958,-7272346 -160957,-7272359 -160961,-7272369 -160972,-7272378 -160986,-7272386 -161002,-7272402 -161003,-7272410 -161010,-7272423 -161025,-7272435 -161034,-7272454 -161047,-7272465 -161050,-7272478 -161076,-7272496 -161078,-7272562 -161060,-7272596 -161028,-7272623 -160997,-7272648 -160973,-7272670 -160972,-7272680 -160981,-7272705 -160981,-7272722 -160929,-7272802 -160890,-7272875 -160888,-7272892 -160888,-7272989 -160882,-7272999 -160871,-7273051 -160869,-7273096 -160867,-7273111 -160861,-7273125 -160856,-7273136 -160846,-7273144 -160787,-7273202 -160773,-7273221 -160765,-7273240 -160766,-7273279 -160772,-7273345 -160762,-7273357 -160765,-7273419 -160764,-7273456 -160752,-7273457 -160749,-7273506 -160746,-7273517 -160744,-7273522 -160727,-7273563 -160674,-7273615 -160673,-7273647 -160652,-7273659 -160627,-7273663 -160590,-7273675 -160587,-7273688 -160595,-7273719 -160607,-7273739 -160607,-7273757 -160624,-7273827 -160626,-7273843 -160651,-7273942 -160675,-7274039 -160689,-7274085 -160698,-7274129 -160707,-7274171 -160711,-7274204 -160707,-7274234 -160696,-7274267 -160693,-7274276 -160692,-7274352 -160714,-7274525 -160725,-7274594 -160739,-7274637 -160753,-7274706 -160755,-7274728 -160758,-7274812 -160764,-7274833 -160772,-7274861 -160782,-7274879 -160782,-7274920 -160791,-7274994 -160809,-7275074 -160818,-7275127 -160828,-7275144 -160861,-7275306 -160864,-7275329 -160873,-7275379 -160877,-7275406 -160889,-7275461 -160903,-7275510 -160914,-7275564 -160919,-7275579 -160926,-7275711 -160930,-7275766 -160939,-7275804 -160959,-7275868 -160983,-7275943 -161052,-7276103 -161022,-7276117 -161001,-7276124 -160907,-7276167 -160860,-7276187 -160718,-7276252 -160511,-7276338 -160377,-7276396 -160293,-7276431 -160226,-7276456 -160062,-7276578 -160023,-7276603 -159973,-7276640 -159969,-7276646 -159970,-7276661 -159879,-7276724 -159833,-7276761 -159792,-7276789 -159791,-7276808 -159855,-7276912 -159860,-7276926 -159861,-7276936 -159844,-7276956 -159816,-7276975 -159778,-7276994 -159759,-7277004 -159739,-7277017 -159693,-7277044 -159605,-7277087 -159559,-7277103 -159504,-7277132 -159488,-7277134 -159467,-7277149 -159387,-7277192 -159222,-7277280 -159176,-7277298 -159144,-7277317 -159088,-7277358 -158988,-7277411 -158969,-7277416 -158917,-7277442 -158898,-7277448 -158861,-7277467 -158831,-7277476 -158762,-7277503 -158724,-7277505 -158672,-7277515 -158640,-7277527 -158611,-7277533 -158557,-7277553 -158521,-7277557 -158466,-7277557 -158427,-7277561 -158353,-7277576 -158338,-7277579 -158281,-7277576 -158230,-7277572 -158159,-7277572 -158112,-7277576 -158008,-7277574 -157955,-7277572 -157834,-7277566 -157809,-7277567 -157761,-7277572 -157680,-7277579 -157640,-7277590 -157601,-7277610 -157554,-7277634 -157496,-7277675 -157387,-7277719 -157383,-7277721 -157297,-7277764 -157269,-7277775 -157232,-7277790 -157151,-7277834 -157138,-7277842 -157118,-7277855 -157112,-7277859 -157110,-7277860 -157108,-7277866 -157109,-7277868 -157133,-7277903 -157136,-7277901 -157253,-7278068 -157304,-7278146 -157341,-7278208 -157372,-7278248 -157399,-7278292 -157416,-7278324 -157454,-7278396 -157454,-7278406 -157481,-7278447 -157480,-7278470 -157458,-7278516 -157442,-7278541 -157475,-7278605 -157480,-7278642 -157489,-7278673 -157501,-7278699 -157567,-7278798 -157600,-7278856 -157661,-7278939 -157655,-7278942 -157543,-7279002 -157497,-7279028 -157481,-7279039 -157478,-7279048 -157437,-7279071 -157420,-7279098 -157468,-7279161 -157481,-7279192 -157533,-7279261 -157556,-7279283 -157607,-7279360 -157647,-7279444 -157669,-7279499 -157671,-7279518 -157714,-7279600 -157732,-7279669 -157734,-7279709 -157731,-7279722 -157729,-7279778 -157721,-7279789 -157707,-7279828 -157709,-7279851 -157719,-7279890 -157718,-7279974 -157696,-7280016 -157683,-7280044 -157644,-7280097 -157624,-7280142 -157624,-7280173 -157630,-7280219 -157639,-7280327 -157645,-7280400 -157617,-7280456 -157610,-7280547 -157586,-7280646 -157579,-7280700 -157560,-7280784 -157530,-7280891 -157515,-7280944 -157514,-7281099 -157510,-7281109 -157510,-7281133 -157502,-7281150 -157502,-7281193 -157487,-7281244 -157475,-7281306 -157471,-7281335 -157464,-7281357 -157462,-7281419 -157462,-7281454 -157452,-7281499 -157434,-7281547 -157417,-7281583 -157409,-7281620 -157401,-7281635 -157400,-7281659 -157386,-7281695 -157383,-7281711 -157361,-7281785 -157352,-7281839 -157319,-7281969 -157315,-7282009 -157309,-7282100 -157300,-7282154 -157291,-7282219 -157290,-7282262 -157302,-7282325 -157303,-7282358 -157277,-7282358 -157258,-7282367 -157243,-7282383 -157220,-7282398 -157197,-7282406 -157182,-7282409 -157173,-7282419 -157159,-7282425 -157153,-7282436 -157116,-7282454 -157105,-7282462 -157075,-7282492 -157029,-7282525 -157008,-7282537 -156974,-7282568 -156954,-7282584 -156944,-7282596 -156896,-7282634 -156847,-7282681 -156839,-7282701 -156833,-7282713 -156816,-7282769 -156810,-7282782 -156803,-7282789 -156803,-7282800 -156794,-7282815 -156787,-7282909 -156774,-7282929 -156757,-7282950 -156754,-7282995 -156745,-7283013 -156731,-7283030 -156731,-7283058 -156720,-7283074 -156717,-7283098 -156709,-7283127 -156695,-7283148 -156694,-7283159 -156701,-7283176 -156694,-7283203 -156687,-7283246 -156700,-7283254 -156698,-7283276 -156701,-7283280 -156701,-7283289 -156685,-7283299 -156667,-7283318 -156675,-7283396 -156665,-7283406 -156658,-7283412 -156666,-7283419 -156681,-7283423 -156696,-7283427 -156708,-7283438 -156725,-7283458 -156740,-7283477 -156744,-7283493 -156747,-7283534 -156754,-7283542 -156818,-7283544 -156836,-7283538 -156871,-7283536 -156908,-7283537 -156969,-7283560 -156981,-7283542 -156985,-7283525 -156991,-7283513 -156999,-7283502 -157011,-7283501 -157027,-7283503 -157068,-7283523 -157104,-7283549 -157109,-7283569 -157094,-7283646 -157131,-7283683 -157183,-7283727 -157199,-7283737 -157227,-7283745 -157258,-7283756 -157283,-7283760 -157299,-7283771 -157307,-7283785 -157317,-7283808 -157335,-7283827 -157355,-7283839 -157381,-7283850 -157399,-7283859 -157418,-7283872 -157457,-7283907 -157469,-7283931 -157483,-7283966 -157483,-7284001 -157466,-7284018 -157463,-7284028 -157463,-7284048 -157483,-7284099 -157504,-7284133 -157520,-7284153 -157552,-7284178 -157572,-7284179 -157605,-7284194 -157636,-7284213 -157650,-7284225 -157665,-7284250 -157667,-7284264 -157667,-7284283 -157660,-7284302 -157659,-7284330 -157671,-7284351 -157692,-7284368 -157722,-7284387 -157731,-7284396 -157741,-7284413 -157746,-7284429 -157746,-7284441 -157731,-7284469 -157731,-7284479 -157735,-7284490 -157744,-7284498 -157788,-7284529 -157812,-7284544 -157842,-7284554 -157881,-7284586 -157906,-7284583 -157925,-7284598 -157936,-7284602 -157955,-7284597 -157965,-7284592 -157982,-7284578 -158003,-7284553 -158018,-7284548 -158037,-7284575 -158078,-7284596 -158096,-7284603 -158116,-7284603 -158137,-7284614 -158147,-7284626 -158152,-7284649 -158165,-7284666 -158181,-7284677 -158197,-7284698 -158221,-7284710 -158235,-7284713 -158284,-7284712 -158293,-7284715 -158298,-7284722 -158309,-7284759 -158308,-7284821 -158315,-7284867 -158316,-7284901 -158320,-7284944 -158316,-7284974 -158311,-7284988 -158291,-7285008 -158274,-7285022 -158277,-7285051 -158331,-7285111 -158351,-7285146 -158368,-7285159 -158394,-7285176 -158403,-7285186 -158414,-7285201 -158429,-7285217 -158444,-7285219 -158461,-7285216 -158476,-7285210 -158487,-7285203 -158507,-7285195 -158534,-7285174 -158564,-7285161 -158596,-7285153 -158613,-7285141 -158624,-7285121 -158633,-7285113 -158644,-7285112 -158663,-7285121 -158687,-7285137 -158707,-7285145 -158723,-7285147 -158735,-7285146 -158745,-7285139 -158747,-7285131 -158731,-7285103 -158732,-7285090 -158744,-7285074 -158750,-7285072 -158777,-7285072 -158798,-7285084 -158808,-7285085 -158816,-7285071 -158828,-7285057 -158846,-7285043 -158875,-7285030 -158883,-7285002 -158884,-7284984 -158887,-7284972 -158895,-7284963 -158905,-7284962 -158930,-7284969 -158955,-7284971 -158968,-7284966 -158972,-7284961 -158968,-7284944 -158955,-7284921 -158956,-7284906 -158958,-7284904 -158966,-7284896 -158983,-7284887 -159020,-7284868 -159053,-7284845 -159067,-7284832 -159069,-7284803 -159072,-7284793 -159080,-7284782 -159100,-7284754 -159120,-7284745 -159131,-7284736 -159160,-7284683 -159160,-7284655 -159182,-7284620 -159182,-7284608 -159173,-7284597 -159141,-7284566 -159129,-7284524 -159125,-7284500 -159130,-7284456 -159130,-7284415 -159160,-7284374 -159163,-7284354 -159169,-7284321 -159169,-7284297 -159165,-7284253 -159158,-7284232 -159152,-7284224 -159142,-7284221 -159120,-7284219 -159108,-7284211 -159096,-7284191 -159096,-7284177 -159105,-7284152 -159110,-7284109 -159112,-7284090 -159131,-7284063 -159153,-7284024 -159153,-7284008 -159146,-7283988 -159143,-7283968 -159149,-7283961 -159192,-7283935 -159210,-7283918 -159220,-7283903 -159251,-7283869 -159285,-7283830 -159313,-7283803 -159321,-7283786 -159330,-7283740 -159339,-7283726 -159353,-7283716 -159366,-7283715 -159377,-7283723 -159392,-7283739 -159409,-7283750 -159418,-7283750 -159427,-7283747 -159445,-7283731 -159461,-7283716 -159476,-7283708 -159492,-7283707 -159517,-7283703 -159541,-7283694 -159557,-7283686 -159571,-7283682 -159580,-7283681 -159596,-7283686 -159598,-7283691 -159604,-7283720 -159613,-7283727 -159629,-7283727 -159642,-7283721 -159655,-7283707 -159666,-7283702 -159673,-7283703 -159699,-7283721 -159711,-7283722 -159732,-7283722 -159754,-7283726 -159768,-7283730 -159778,-7283737 -159783,-7283744 -159793,-7283764 -159819,-7283790 -159825,-7283793 -159834,-7283794 -159850,-7283790 -159878,-7283781 -159896,-7283772 -159908,-7283769 -159925,-7283763 -159944,-7283751 -159969,-7283730 -160007,-7283700 -160019,-7283694 -160035,-7283694 -160057,-7283706 -160064,-7283706 -160070,-7283698 -160075,-7283688 -160074,-7283664 -160077,-7283654 -160085,-7283648 -160099,-7283649 -160109,-7283656 -160117,-7283672 -160127,-7283699 -160135,-7283738 -160144,-7283753 -160153,-7283748 -160164,-7283737 -160185,-7283737 -160191,-7283754 -160200,-7283764 -160218,-7283767 -160253,-7283789 -160238,-7283813 -160233,-7283822 -160237,-7283841 -160255,-7283866 -160268,-7283882 -160277,-7283895 -160281,-7283903 -160286,-7283915 -160287,-7283920 -160286,-7283932 -160285,-7283936 -160277,-7283950 -160274,-7283961 -160272,-7283969 -160273,-7283972 -160274,-7283974 -160280,-7283977 -160311,-7283977 -160332,-7283984 -160334,-7284000 -160334,-7284013 -160334,-7284022 -160338,-7284037 -160347,-7284055 -160355,-7284067 -160365,-7284079 -160385,-7284096 -160433,-7284120 -160439,-7284127 -160447,-7284132 -160454,-7284134 -160461,-7284134 -160465,-7284134 -160475,-7284129 -160485,-7284119 -160492,-7284116 -160500,-7284114 -160507,-7284114 -160519,-7284117 -160544,-7284132 -160552,-7284152 -160550,-7284165 -160550,-7284175 -160551,-7284182 -160553,-7284186 -160557,-7284189 -160561,-7284191 -160569,-7284192 -160583,-7284198 -160588,-7284205 -160593,-7284214 -160631,-7284299 -160635,-7284308 -160654,-7284331 -160670,-7284338 -160676,-7284335 -160681,-7284334 -160688,-7284334 -160694,-7284337 -160699,-7284341 -160727,-7284386 -160733,-7284404 -160737,-7284411 -160742,-7284419 -160770,-7284452 -160791,-7284472 -160803,-7284485 -160817,-7284496 -160831,-7284515 -160848,-7284527 -160875,-7284531 -160878,-7284569 -160876,-7284583 -160870,-7284596 -160862,-7284608 -160854,-7284614 -160844,-7284621 -160826,-7284627 -160783,-7284650 -160775,-7284660 -160766,-7284675 -160762,-7284686 -160760,-7284698 -160759,-7284706 -160761,-7284720 -160806,-7284794 -160817,-7284815 -160838,-7284858 -160858,-7284892 -160882,-7284920 -160892,-7284928 -160900,-7284938 -160903,-7284944 -160906,-7284953 -160906,-7284961 -160904,-7284984 -160906,-7284994 -160908,-7285002 -160911,-7285007 -160919,-7285016 -160930,-7285022 -161026,-7285051 -161052,-7285100 -161048,-7285107 -161046,-7285114 -161045,-7285124 -161046,-7285131 -161048,-7285136 -161051,-7285140 -161075,-7285169 -161095,-7285200 -161108,-7285210 -161122,-7285219 -161154,-7285224 -161187,-7285221 -161217,-7285226 -161231,-7285224 -161239,-7285225 -161245,-7285227 -161251,-7285230 -161265,-7285241 -161272,-7285248 -161277,-7285257 -161281,-7285266 -161283,-7285273 -161284,-7285291 -161280,-7285309 -161281,-7285314 -161284,-7285320 -161289,-7285326 -161293,-7285329 -161321,-7285337 -161345,-7285371 -161356,-7285380 -161364,-7285384 -161371,-7285387 -161379,-7285388 -161391,-7285388 -161416,-7285393 -161436,-7285429 -161439,-7285447 -161439,-7285462 -161441,-7285472 -161445,-7285482 -161448,-7285488 -161454,-7285493 -161463,-7285497 -161467,-7285498 -161478,-7285497 -161496,-7285513 -161500,-7285521 -161502,-7285527 -161503,-7285535 -161503,-7285542 -161502,-7285549 -161500,-7285554 -161488,-7285575 -161488,-7285606 -161493,-7285657 -161496,-7285659 -161500,-7285663 -161523,-7285680 -161516,-7285712 -161523,-7285719 -161551,-7285743 -161547,-7285767 -161549,-7285780 -161557,-7285806 -161561,-7285818 -161568,-7285820 -161591,-7285821 -161595,-7285849 -161614,-7285860 -161623,-7285859 -161634,-7285860 -161640,-7285862 -161647,-7285867 -161651,-7285871 -161657,-7285881 -161660,-7285892 -161658,-7285925 -161663,-7285953 -161684,-7285939 -161698,-7285950 -161707,-7285973 -161700,-7285989 -161692,-7285998 -161688,-7286004 -161686,-7286009 -161686,-7286021 -161696,-7286046 -161690,-7286070 -161678,-7286083 -161650,-7286084 -161630,-7286092 -161630,-7286115 -161648,-7286132 -161652,-7286154 -161647,-7286160 -161627,-7286182 -161658,-7286218 -161657,-7286235 -161644,-7286252 -161658,-7286279 -161660,-7286302 -161635,-7286340 -161588,-7286373 -161560,-7286412 -161542,-7286454 -161518,-7286509 -161501,-7286557 -161496,-7286600 -161514,-7286638 -161498,-7286649 -161482,-7286653 -161465,-7286653 -161463,-7286645 -161457,-7286637 -161434,-7286629 -161414,-7286611 -161388,-7286610 -161364,-7286625 -161347,-7286633 -161325,-7286632 -161286,-7286656 -161274,-7286667 -161265,-7286680 -161248,-7286729 -161148,-7286742 -161123,-7286724 -161107,-7286706 -161100,-7286694 -161094,-7286688 -161089,-7286685 -161084,-7286683 -161080,-7286682 -161049,-7286685 -161034,-7286676 -160988,-7286667 -160941,-7286664 -160890,-7286658 -160799,-7286631 -160793,-7286628 -160788,-7286622 -160785,-7286616 -160783,-7286609 -160783,-7286601 -160785,-7286593 -160787,-7286588 -160795,-7286579 -160807,-7286572 -160810,-7286565 -160810,-7286562 -160810,-7286561 -160807,-7286549 -160805,-7286546 -160801,-7286543 -160795,-7286540 -160786,-7286541 -160762,-7286551 -160737,-7286557 -160708,-7286556 -160696,-7286579 -160688,-7286594 -160681,-7286604 -160666,-7286593 -160659,-7286584 -160653,-7286576 -160642,-7286567 -160631,-7286562 -160621,-7286561 -160599,-7286572 -160585,-7286588 -160573,-7286593 -160565,-7286598 -160561,-7286601 -160551,-7286638 -160537,-7286651 -160525,-7286683 -160509,-7286696 -160469,-7286709 -160460,-7286724 -160441,-7286733 -160434,-7286735 -160428,-7286736 -160416,-7286735 -160404,-7286731 -160393,-7286725 -160374,-7286737 -160363,-7286745 -160356,-7286748 -160348,-7286748 -160340,-7286747 -160329,-7286741 -160303,-7286745 -160280,-7286763 -160267,-7286787 -160257,-7286801 -160246,-7286813 -160234,-7286821 -160229,-7286827 -160225,-7286834 -160223,-7286841 -160223,-7286847 -160224,-7286856 -160228,-7286867 -160231,-7286896 -160243,-7286928 -160239,-7286939 -160232,-7286944 -160209,-7286959 -160219,-7286974 -160226,-7286996 -160220,-7287017 -160199,-7287038 -160177,-7287037 -160160,-7287027 -160121,-7287039 -160117,-7287050 -160112,-7287070 -160098,-7287074 -160076,-7287089 -160070,-7287093 -160049,-7287085 -160022,-7287120 -159998,-7287117 -159977,-7287121 -159938,-7287245 -159939,-7287272 -159943,-7287298 -159945,-7287324 -159927,-7287342 -159912,-7287350 -159893,-7287348 -159873,-7287349 -159855,-7287336 -159850,-7287354 -159827,-7287381 -159825,-7287380 -159811,-7287375 -159782,-7287353 -159761,-7287314 -159760,-7287306 -159757,-7287301 -159753,-7287297 -159749,-7287296 -159745,-7287295 -159737,-7287297 -159725,-7287312 -159716,-7287315 -159691,-7287307 -159670,-7287314 -159647,-7287298 -159630,-7287290 -159616,-7287302 -159601,-7287299 -159575,-7287297 -159546,-7287300 -159535,-7287299 -159524,-7287296 -159507,-7287283 -159488,-7287258 -159475,-7287255 -159462,-7287265 -159462,-7287282 -159444,-7287291 -159423,-7287305 -159427,-7287334 -159427,-7287352 -159413,-7287358 -159405,-7287356 -159400,-7287356 -159391,-7287357 -159387,-7287359 -159380,-7287366 -159384,-7287394 -159362,-7287436 -159349,-7287450 -159336,-7287463 -159309,-7287485 -159290,-7287475 -159284,-7287473 -159275,-7287473 -159271,-7287474 -159267,-7287477 -159264,-7287481 -159262,-7287486 -159261,-7287499 -159260,-7287504 -159257,-7287509 -159252,-7287513 -159246,-7287516 -159240,-7287517 -159229,-7287515 -159226,-7287516 -159222,-7287517 -159219,-7287519 -159216,-7287522 -159204,-7287547 -159183,-7287557 -159180,-7287553 -159173,-7287538 -159142,-7287543 -159106,-7287553 -159096,-7287553 -159091,-7287552 -159086,-7287549 -159082,-7287545 -159078,-7287537 -159038,-7287497 -159006,-7287501 -158959,-7287388 -158973,-7287321 -158978,-7287297 -158976,-7287261 -158986,-7287246 -159006,-7287220 -159011,-7287208 -159013,-7287201 -159014,-7287192 -159012,-7287178 -159011,-7287166 -159010,-7287159 -159008,-7287152 -159003,-7287144 -158996,-7287136 -158981,-7287122 -158927,-7287081 -158832,-7287017 -158819,-7287007 -158802,-7286966 -158768,-7286868 -158768,-7286862 -158766,-7286826 -158755,-7286828 -158700,-7286859 -158676,-7286876 -158599,-7286932 -158532,-7286978 -158497,-7287007 -158403,-7287077 -158354,-7287107 -158294,-7287141 -158251,-7287162 -158234,-7287172 -158218,-7287182 -158179,-7287211 -158137,-7287236 -158011,-7287289 -157943,-7287316 -157888,-7287347 -157869,-7287356 -157847,-7287370 -157839,-7287376 -157825,-7287389 -157807,-7287406 -157774,-7287443 -157767,-7287453 -157755,-7287491 -157733,-7287507 -157675,-7287550 -157624,-7287582 -157539,-7287639 -157389,-7287732 -157311,-7287785 -157274,-7287807 -157139,-7287927 -157030,-7288043 -156941,-7288164 -156939,-7288167 -156914,-7288211 -156912,-7288216 -156881,-7288263 -156822,-7288343 -156752,-7288471 -156747,-7288479 -156740,-7288487 -156730,-7288497 -156643,-7288567 -156604,-7288591 -156579,-7288603 -156574,-7288606 -156569,-7288610 -156566,-7288615 -156565,-7288620 -156565,-7288628 -156566,-7288638 -156574,-7288658 -156574,-7288666 -156571,-7288690 -156571,-7288704 -156572,-7288715 -156575,-7288723 -156579,-7288729 -156584,-7288736 -156599,-7288749 -156613,-7288758 -156625,-7288762 -156669,-7288776 -156732,-7288799 -156733,-7288826 -156758,-7288859 -156724,-7288872 -156633,-7288926 -156587,-7288966 -156559,-7289035 -156519,-7289076 -156496,-7289122 -156444,-7289151 -156379,-7289240 -156372,-7289233 -156365,-7289223 -156167,-7288930 -156064,-7289001 -156000,-7289049 -155973,-7289070 -155945,-7289092 -155859,-7289168 -155753,-7289256 -155826,-7289381 -155886,-7289475 -155923,-7289542 -155963,-7289602 -155973,-7289617 -156025,-7289685 -156015,-7289707 -155979,-7289778 -155962,-7289818 -155895,-7289945 -155750,-7289804 -155606,-7289923 -155588,-7289938 -155479,-7290028 -155485,-7290064 -155205,-7290170 -155222,-7290242 -155235,-7290286 -155282,-7290401 -155302,-7290461 -155329,-7290547 -155347,-7290596 -155331,-7290607 -155269,-7290648 -155258,-7290653 -155248,-7290654 -155218,-7290654 -155152,-7290666 -155122,-7290672 -155110,-7290677 -155104,-7290681 -155098,-7290687 -155092,-7290694 -155087,-7290705 -155094,-7290755 -155081,-7290777 -155053,-7290773 -155020,-7290771 -155011,-7290770 -154994,-7290764 -154951,-7290743 -154918,-7290723 -154911,-7290697 -154880,-7290704 -154872,-7290694 -154866,-7290689 -154855,-7290683 -154780,-7290666 -154747,-7290657 -154727,-7290653 -154714,-7290653 -154701,-7290655 -154684,-7290659 -154679,-7290644 -154658,-7290651 -154609,-7290664 -154546,-7290689 -154581,-7290762 -154582,-7290773 -154581,-7290781 -154578,-7290789 -154575,-7290795 -154570,-7290802 -154557,-7290813 -154542,-7290825 -154528,-7290835 -154520,-7290839 -154494,-7290850 -154484,-7290856 -154478,-7290861 -154457,-7290883 -154422,-7290912 -154435,-7290932 -154446,-7290942 -154478,-7290967 -154523,-7291002 -154532,-7291010 -154546,-7291028 -154569,-7291065 -154576,-7291079 -154586,-7291130 -154586,-7291141 -154584,-7291172 -154590,-7291212 -154595,-7291255 -154599,-7291271 -154604,-7291288 -154619,-7291329 -154632,-7291353 -154641,-7291367 -154649,-7291378 -154655,-7291384 -154676,-7291398 -154687,-7291404 -154707,-7291412 -154712,-7291415 -154716,-7291419 -154719,-7291424 -154722,-7291435 -154723,-7291458 -154717,-7291487 -154717,-7291493 -154717,-7291499 -154719,-7291504 -154723,-7291510 -154730,-7291516 -154756,-7291536 -154775,-7291557 -154790,-7291571 -154796,-7291585 -154798,-7291594 -154802,-7291621 -154823,-7291652 -154824,-7291665 -154816,-7291683 -154812,-7291688 -154808,-7291693 -154793,-7291695 -154773,-7291701 -154770,-7291707 -154768,-7291713 -154768,-7291729 -154777,-7291768 -154778,-7291791 -154772,-7291799 -154756,-7291819 -154759,-7291845 -154745,-7291877 -154759,-7291887 -154768,-7291895 -154785,-7291913 -154792,-7291926 -154796,-7291940 -154795,-7291961 -154793,-7291973 -154789,-7291986 -154778,-7292012 -154767,-7292027 -154764,-7292035 -154764,-7292040 -154765,-7292044 -154775,-7292065 -154779,-7292077 -154782,-7292096 -154785,-7292114 -154787,-7292127 -154786,-7292138 -154784,-7292147 -154781,-7292156 -154776,-7292167 -154769,-7292179 -154761,-7292191 -154753,-7292201 -154744,-7292210 -154733,-7292219 -154722,-7292228 -154707,-7292236 -154684,-7292246 -154634,-7292255 -154594,-7292260 -154583,-7292262 -154570,-7292267 -154556,-7292272 -154527,-7292288 -154516,-7292296 -154495,-7292313 -154478,-7292332 -154470,-7292343 -154464,-7292356 -154462,-7292364 -154460,-7292374 -154459,-7292407 -154461,-7292431 -154463,-7292444 -154475,-7292499 -154480,-7292529 -154479,-7292555 -154476,-7292575 -154474,-7292583 -154468,-7292595 -154438,-7292644 -154409,-7292682 -154396,-7292696 -154380,-7292705 -154335,-7292727 -154320,-7292737 -154270,-7292781 -154222,-7292827 -154191,-7292849 -154182,-7292857 -154156,-7292885 -154132,-7292905 -154124,-7292909 -154117,-7292911 -154111,-7292911 -154091,-7292904 -154084,-7292903 -154077,-7292903 -154069,-7292905 -154058,-7292909 -154043,-7292917 -154024,-7292934 -153968,-7292973 -153930,-7292995 -153911,-7293004 -153885,-7293015 -153858,-7293022 -153831,-7293025 -153811,-7293025 -153740,-7293041 -153720,-7293062 -153714,-7293038 -153667,-7292981 -153604,-7292954 -153571,-7292938 -153491,-7292937 -153425,-7292939 -153392,-7292946 -153333,-7292963 -153311,-7292967 -153293,-7292969 -153203,-7292966 -153117,-7293004 -153008,-7293027 -152945,-7293026 -152916,-7293020 -152882,-7293011 -152854,-7293005 -152789,-7293002 -152740,-7293001 -152702,-7293004 -152660,-7293006 -152617,-7293015 -152574,-7293020 -152529,-7293017 -152443,-7293004 -152347,-7292989 -152266,-7292976 -152202,-7292939 -152159,-7292911 -152139,-7292892 -152127,-7292879 -152111,-7292869 -152066,-7292827 -152020,-7292798 -151933,-7292720 -151906,-7292691 -151873,-7292650 -151838,-7292616 -151789,-7292552 -151754,-7292508 -151741,-7292498 -151719,-7292484 -151701,-7292466 -151660,-7292426 -151614,-7292391 -151521,-7292328 -151456,-7292268 -151390,-7292225 -151382,-7292216 -151325,-7292183 -151281,-7292157 -151230,-7292130 -151224,-7292123 -151133,-7292056 -151074,-7292015 -151055,-7292003 -151041,-7291996 -151000,-7291981 -150970,-7291970 -150892,-7291950 -150843,-7291939 -150812,-7291937 -150768,-7291944 -150727,-7291953 -150697,-7291963 -150650,-7291974 -150625,-7291982 -150571,-7292010 -150548,-7292024 -150524,-7292032 -150508,-7292033 -150388,-7292071 -150339,-7292083 -150277,-7292080 -150269,-7292079 -150246,-7292073 -150206,-7292058 -150181,-7292048 -150132,-7292024 -150099,-7292000 -150069,-7291977 -150047,-7291958 -150036,-7291951 -150023,-7291943 -149898,-7291890 -149869,-7291879 -149709,-7291810 -149661,-7291793 -149621,-7291763 -149580,-7291742 -149475,-7291680 -149450,-7291668 -149414,-7291677 -149396,-7291680 -149372,-7291681 -149353,-7291674 -149338,-7291674 -149297,-7291656 -149232,-7291622 -149186,-7291602 -149136,-7291586 -149124,-7291577 -149077,-7291532 -149047,-7291489 -149011,-7291443 -148975,-7291413 -148939,-7291379 -148909,-7291351 -148895,-7291329 -148878,-7291299 -148843,-7291198 -148822,-7291156 -148763,-7291044 -148726,-7290946 -148706,-7290884 -148705,-7290865 -148694,-7290818 -148684,-7290746 -148669,-7290718 -148652,-7290698 -148640,-7290676 -148640,-7290667 -148650,-7290646 -148618,-7290639 -148600,-7290641 -148558,-7290696 -148519,-7290765 -148511,-7290775 -148458,-7290838 -148438,-7290863 -148427,-7290875 -148377,-7290935 -148370,-7290953 -148338,-7291020 -148293,-7291081 -148275,-7291109 -148266,-7291114 -148178,-7291273 -148158,-7291303 -148131,-7291357 -148111,-7291384 -148071,-7291462 -148035,-7291543 -148017,-7291600 -148000,-7291640 -147992,-7291676 -147971,-7291778 -147965,-7291824 -147959,-7291847 -147952,-7291962 -147952,-7291980 -147951,-7292034 -147953,-7292088 -147956,-7292203 -147956,-7292273 -147961,-7292311 -147962,-7292349 -147971,-7292396 -147978,-7292682 -147976,-7292704 -147976,-7292800 -147991,-7292870 -147993,-7292904 -147964,-7292947 -147944,-7292984 -147941,-7293020 -147928,-7293078 -147908,-7293103 -147873,-7293139 -147843,-7293163 -147812,-7293167 -147801,-7293173 -147773,-7293176 -147682,-7293158 -147666,-7293167 -147651,-7293181 -147649,-7293215 -147647,-7293227 -147644,-7293240 -147643,-7293290 -147579,-7293273 -147530,-7293259 -147432,-7293226 -147413,-7293222 -147389,-7293217 -147309,-7293203 -147253,-7293203 -147162,-7293182 -147153,-7293188 -147129,-7293200 -147087,-7293229 -147045,-7293247 -147026,-7293253 -146991,-7293265 -146943,-7293264 -146925,-7293281 -146913,-7293286 -146901,-7293286 -146878,-7293298 -146798,-7293310 -146713,-7293316 -146692,-7293318 -146669,-7293269 -146639,-7293232" stroke="#003087" stroke-width="68" /></svg>