<?xml version="1.0" standalone="no"?>
<!DOCTYPE svg PUBLIC "-//W3C//DTD SVG 1.1//EN"
"http://www.w3.org/Graphics/SVG/1.1/DTD/svg11.dtd">
<svg height="115" version="1.1" viewBox="-347074 -6718168 67616 36222" width="220" xmlns="http://www.w3.org/2000/svg"><polygon fill="#003087" points=" -297572,-6718083 -297481,-6717980 -297449,-6717940 -297346,-6717814 -297080,-6717505 -296848,-6717227 -296654,-6717003 -296651,-6716988 -296649,-6716984 -296642,-6716970 -296622,-6716937 -296581,-6716899 -296568,-6716896 -296561,-6716887 -296547,-6716876 -296540,-6716864 -296520,-6716837 -296593,-6716713 -296603,-6716697 -296605,-6716689 -296607,-6716674 -296608,-6716661 -296607,-6716655 -296526,-6716456 -296549,-6716435 -296674,-6716326 -296707,-6716294 -296740,-6716263 -296742,-6716258 -296746,-6716249 -296747,-6716243 -296741,-6716218 -296686,-6716070 -296659,-6715975 -296623,-6715859 -296631,-6715848 -296639,-6715839 -296713,-6715758 -296588,-6715627 -296564,-6715602 -296575,-6715592 -296499,-6715512 -296484,-6715524 -296381,-6715422 -296252,-6715300 -296139,-6715180 -296130,-6715170 -296124,-6715164 -296117,-6715159 -296010,-6715092 -295978,-6715074 -295939,-6715043 -295897,-6715008 -295872,-6714973 -295849,-6714927 -295830,-6714884 -295829,-6714881 -295827,-6714870 -295824,-6714864 -295821,-6714859 -295771,-6714799 -295700,-6714714 -295684,-6714699 -295665,-6714677 -295648,-6714653 -295605,-6714585 -295585,-6714558 -295567,-6714532 -295560,-6714523 -295504,-6714463 -295416,-6714371 -295403,-6714353 -295398,-6714345 -295368,-6714275 -295342,-6714223 -295328,-6714199 -295316,-6714177 -295304,-6714159 -295286,-6714135 -295293,-6714120 -295152,-6713922 -295183,-6713900 -295161,-6713837 -295182,-6713783 -295212,-6713783 -295234,-6713781 -295239,-6713782 -295244,-6713781 -295249,-6713780 -295252,-6713778 -295284,-6713737 -295299,-6713733 -295299,-6713694 -295299,-6713670 -295301,-6713664 -295303,-6713659 -295313,-6713650 -295326,-6713635 -295330,-6713625 -295347,-6713612 -295371,-6713602 -295396,-6713581 -295404,-6713570 -295407,-6713566 -295413,-6713547 -295417,-6713520 -295421,-6713493 -295422,-6713472 -295414,-6713398 -295412,-6713364 -295392,-6713276 -295353,-6713128 -295352,-6713115 -295353,-6713096 -295356,-6713087 -295358,-6713082 -295365,-6713073 -295388,-6713052 -295454,-6712986 -295463,-6712972 -295471,-6712949 -295479,-6712908 -295496,-6712895 -295491,-6712837 -295488,-6712827 -295485,-6712823 -295484,-6712821 -295437,-6712809 -295486,-6712709 -295496,-6712673 -295279,-6712561 -295259,-6712553 -295230,-6712544 -295216,-6712538 -295164,-6712516 -294980,-6712455 -294970,-6712453 -294935,-6712444 -294856,-6712425 -294827,-6712418 -294805,-6712414 -294685,-6712395 -294680,-6712394 -294450,-6712363 -294383,-6712360 -294362,-6712375 -294351,-6712366 -294282,-6712368 -294176,-6712369 -294065,-6712383 -294045,-6712383 -294033,-6712382 -294006,-6712377 -293954,-6712374 -293894,-6712373 -293853,-6712377 -293766,-6712391 -293747,-6712373 -293718,-6712376 -293642,-6712389 -293525,-6712419 -293417,-6712452 -293299,-6712493 -293271,-6712503 -293184,-6712537 -292988,-6712620 -292871,-6712667 -292868,-6712669 -292725,-6712740 -292531,-6712813 -292493,-6712824 -292339,-6712853 -292151,-6712834 -292120,-6712833 -291969,-6712829 -291962,-6712825 -291960,-6712822 -291960,-6712816 -291939,-6712835 -291778,-6712877 -291748,-6712870 -291619,-6712844 -291521,-6712822 -291496,-6712813 -291220,-6712732 -291145,-6712707 -291066,-6712690 -291046,-6712684 -291036,-6712681 -291018,-6712677 -290816,-6712642 -290670,-6712624 -290591,-6712620 -290515,-6712614 -290464,-6712614 -290424,-6712617 -290401,-6712618 -290336,-6712620 -290275,-6712624 -290180,-6712633 -290134,-6712637 -289969,-6712667 -289953,-6712671 -289940,-6712673 -289882,-6712680 -289863,-6712684 -289853,-6712685 -289845,-6712685 -289825,-6712683 -289704,-6712684 -289702,-6712684 -289620,-6712707 -289603,-6712714 -289489,-6712762 -289466,-6712774 -289434,-6712787 -289318,-6712844 -289306,-6712848 -289288,-6712853 -289218,-6712879 -288958,-6712964 -288921,-6712957 -288836,-6713024 -288818,-6712994 -288776,-6713034 -288792,-6713052 -288646,-6713103 -288640,-6713099 -288615,-6713095 -288608,-6713095 -288597,-6713097 -288361,-6713179 -288317,-6713195 -288093,-6713270 -288062,-6713277 -287937,-6713301 -287926,-6713303 -287883,-6713309 -287763,-6713320 -287734,-6713321 -287524,-6713334 -287364,-6713333 -287314,-6713332 -287326,-6713234 -287327,-6713225 -287328,-6713218 -287334,-6713206 -287349,-6713156 -287352,-6713140 -287354,-6713124 -287350,-6713099 -287350,-6713081 -287358,-6713013 -287360,-6713005 -287364,-6712990 -287370,-6712977 -287376,-6712967 -287397,-6712938 -287401,-6712930 -287417,-6712894 -287418,-6712887 -287422,-6712851 -287427,-6712835 -287427,-6712832 -287438,-6712818 -287445,-6712787 -287456,-6712776 -287462,-6712768 -287466,-6712760 -287469,-6712751 -287481,-6712677 -287487,-6712614 -287492,-6712603 -287535,-6712546 -287547,-6712534 -287556,-6712527 -287570,-6712522 -287623,-6712518 -287642,-6712516 -287666,-6712512 -287693,-6712494 -287727,-6712471 -287738,-6712464 -287772,-6712450 -287841,-6712485 -287844,-6712486 -287850,-6712487 -287855,-6712485 -287858,-6712483 -287882,-6712459 -287890,-6712454 -287907,-6712446 -287927,-6712438 -287938,-6712435 -287962,-6712430 -287971,-6712427 -287984,-6712420 -288003,-6712408 -288077,-6712357 -288102,-6712336 -288114,-6712329 -288154,-6712314 -288220,-6712288 -288231,-6712282 -288236,-6712277 -288311,-6712184 -288342,-6712148 -288347,-6712141 -288365,-6712112 -288377,-6712089 -288403,-6712020 -288414,-6711997 -288420,-6711988 -288427,-6711979 -288445,-6711960 -288453,-6711950 -288373,-6711722 -288335,-6711713 -288314,-6711706 -288295,-6711699 -288276,-6711691 -288206,-6711633 -288155,-6711594 -288097,-6711601 -288096,-6711583 -288119,-6711551 -288124,-6711544 -288129,-6711539 -288138,-6711532 -288146,-6711444 -288147,-6711391 -288154,-6711378 -288155,-6711222 -288151,-6711207 -288140,-6711169 -288135,-6711145 -288130,-6711136 -288127,-6711133 -288122,-6711131 -288114,-6711128 -288087,-6711113 -288084,-6711111 -288081,-6711106 -288079,-6711102 -288071,-6711063 -288063,-6711012 -288063,-6711001 -288065,-6710986 -288066,-6710960 -288070,-6710941 -288076,-6710922 -288078,-6710900 -288077,-6710891 -288074,-6710870 -288064,-6710850 -288060,-6710837 -288060,-6710835 -288058,-6710823 -288060,-6710802 -288063,-6710780 -288068,-6710684 -288078,-6710626 -288087,-6710536 -288101,-6710495 -288111,-6710439 -288010,-6710430 -287788,-6710425 -287808,-6710493 -287820,-6710525 -287830,-6710548 -287772,-6710616 -287749,-6710641 -287707,-6710691 -287627,-6710628 -287473,-6710536 -287482,-6710505 -287432,-6710465 -287395,-6710431 -287340,-6710437 -287189,-6710358 -287185,-6710346 -287059,-6710384 -287047,-6710385 -286994,-6710390 -286988,-6710390 -286942,-6710361 -286892,-6710353 -286877,-6710361 -286858,-6710359 -286789,-6710356 -286729,-6710355 -286700,-6710353 -286601,-6710325 -286561,-6710312 -286536,-6710303 -286507,-6710301 -286435,-6710290 -286371,-6710242 -286323,-6710210 -286237,-6710156 -286207,-6710139 -286167,-6710131 -286126,-6710109 -286091,-6710088 -286083,-6710084 -286068,-6710088 -286014,-6710125 -285989,-6710138 -285948,-6710099 -285887,-6710050 -285842,-6710020 -285795,-6709995 -285729,-6709972 -285709,-6709963 -285642,-6709913 -285636,-6709907 -285620,-6709887 -285584,-6709829 -285566,-6709810 -285541,-6709786 -285536,-6709765 -285539,-6709738 -285544,-6709726 -285554,-6709714 -285558,-6709632 -285559,-6709613 -285565,-6709568 -285572,-6709536 -285503,-6709527 -285497,-6709484 -285498,-6709465 -285510,-6709434 -285511,-6709417 -285458,-6709408 -285386,-6709394 -285314,-6709382 -285262,-6709378 -285227,-6709377 -285207,-6709414 -285193,-6709439 -285154,-6709477 -285125,-6709433 -285114,-6709433 -285077,-6709455 -285034,-6709487 -285016,-6709508 -284999,-6709535 -284992,-6709548 -284985,-6709561 -284986,-6709582 -284766,-6709598 -284714,-6709604 -284624,-6709604 -284588,-6709597 -284562,-6709594 -284472,-6709577 -284401,-6709568 -284383,-6709566 -284400,-6709509 -284416,-6709468 -284430,-6709422 -284440,-6709397 -284450,-6709372 -284476,-6709317 -284493,-6709277 -284516,-6709232 -284549,-6709157 -284526,-6709107 -284504,-6709065 -284480,-6708993 -284466,-6708938 -284460,-6708911 -284378,-6708893 -284243,-6708870 -284185,-6708857 -284096,-6708839 -284070,-6708833 -284057,-6708831 -284042,-6708830 -284020,-6708831 -283940,-6708846 -283857,-6708857 -283772,-6708872 -283707,-6708879 -283618,-6708894 -283561,-6708901 -283461,-6708917 -283370,-6708930 -283329,-6708907 -283313,-6708903 -283224,-6708903 -283181,-6708907 -283135,-6708923 -283088,-6708942 -283049,-6708955 -283006,-6708958 -282993,-6708958 -282992,-6708959 -282992,-6708982 -282992,-6709005 -282993,-6709027 -282995,-6709049 -283002,-6709104 -283021,-6709199 -283033,-6709244 -283004,-6709310 -282962,-6709415 -282945,-6709457 -282907,-6709445 -282863,-6709430 -282728,-6709368 -282634,-6709325 -282610,-6709358 -282570,-6709427 -282522,-6709558 -282505,-6709624 -282492,-6709656 -282493,-6709665 -282495,-6709695 -282454,-6709686 -282453,-6709686 -282335,-6709673 -282234,-6709664 -282181,-6709656 -282120,-6709637 -281950,-6709554 -281934,-6709542 -281881,-6709498 -281832,-6709449 -281733,-6709523 -281669,-6709576 -281601,-6709530 -281580,-6709557 -281552,-6709536 -281559,-6709502 -281526,-6709475 -281441,-6709376 -281388,-6709311 -281397,-6709299 -281430,-6709294 -281426,-6709217 -281454,-6709190 -281477,-6709161 -281408,-6709114 -281412,-6709066 -281399,-6709068 -281390,-6709011 -281378,-6708973 -281382,-6708950 -281356,-6708905 -281332,-6708918 -281292,-6708943 -281250,-6708967 -281206,-6708984 -281143,-6709006 -281129,-6709007 -281118,-6709007 -281107,-6709006 -281098,-6709003 -281092,-6709001 -281086,-6708997 -281075,-6708986 -281027,-6708954 -280950,-6708894 -280912,-6708871 -280896,-6708867 -280881,-6708863 -280831,-6708866 -280794,-6708865 -280716,-6708873 -280653,-6708885 -280601,-6708892 -280479,-6708935 -280328,-6708962 -280306,-6708964 -280293,-6708982 -280255,-6709009 -280243,-6709015 -280189,-6709037 -280101,-6709063 -280096,-6709066 -280090,-6709070 -280085,-6709076 -280072,-6709103 -280064,-6709122 -280044,-6709083 -280026,-6709034 -280004,-6708980 -280076,-6708891 -279957,-6708796 -279962,-6708782 -279813,-6708662 -279760,-6708617 -279645,-6708527 -279592,-6708483 -279523,-6708428 -279538,-6708351 -279552,-6708327 -279566,-6708304 -279652,-6708198 -279709,-6708135 -279734,-6708105 -279757,-6708075 -279813,-6707999 -279846,-6707960 -279936,-6707846 -279982,-6707791 -280039,-6707718 -280088,-6707660 -280159,-6707564 -280136,-6707479 -280120,-6707404 -280075,-6707262 -280052,-6707167 -280010,-6707044 -279982,-6706957 -279973,-6706919 -279998,-6706915 -279995,-6706905 -279994,-6706901 -279977,-6706841 -279938,-6706725 -279909,-6706647 -279904,-6706604 -279895,-6706541 -279886,-6706533 -279873,-6706527 -279830,-6706439 -279813,-6706396 -279785,-6706330 -279758,-6706258 -279745,-6706218 -279729,-6706195 -279719,-6706155 -279708,-6706124 -279686,-6706067 -279663,-6705990 -279645,-6705923 -279628,-6705869 -279598,-6705789 -279576,-6705719 -279543,-6705604 -279539,-6705545 -279543,-6705464 -279540,-6705428 -279531,-6705364 -279522,-6705268 -279518,-6705239 -279516,-6705216 -279517,-6705201 -279516,-6705185 -279508,-6705162 -279504,-6705141 -279510,-6705115 -279555,-6704998 -279569,-6704957 -279573,-6704942 -279579,-6704898 -279579,-6704897 -279617,-6704910 -279675,-6704925 -279692,-6704928 -279702,-6704927 -279703,-6704927 -279718,-6704871 -279723,-6704842 -279724,-6704800 -279735,-6704752 -279737,-6704740 -279738,-6704729 -279737,-6704686 -279713,-6704678 -279705,-6704675 -279698,-6704670 -279684,-6704659 -279696,-6704641 -279705,-6704620 -279671,-6704609 -279666,-6704607 -279677,-6704571 -279679,-6704556 -279679,-6704549 -279674,-6704533 -279672,-6704513 -279678,-6704489 -279684,-6704465 -279694,-6704430 -279700,-6704404 -279705,-6704391 -279710,-6704377 -279732,-6704366 -279730,-6704352 -279729,-6704328 -279729,-6704264 -279729,-6704230 -279733,-6704200 -279734,-6704175 -279760,-6704116 -279773,-6704080 -279760,-6704071 -279711,-6704042 -279678,-6704026 -279662,-6704019 -279645,-6704013 -279612,-6704004 -279561,-6703999 -279570,-6703917 -279591,-6703792 -279596,-6703767 -279600,-6703754 -279618,-6703705 -279621,-6703699 -279624,-6703693 -279631,-6703694 -279640,-6703661 -279651,-6703615 -279648,-6703597 -279645,-6703571 -279645,-6703558 -279647,-6703544 -279661,-6703486 -279710,-6703495 -279706,-6703475 -279718,-6703465 -279742,-6703459 -279775,-6703453 -279778,-6703451 -279765,-6703428 -279762,-6703417 -279752,-6703376 -279749,-6703363 -279749,-6703358 -279798,-6703342 -279816,-6703338 -279855,-6703329 -279885,-6703326 -279890,-6703315 -279904,-6703279 -279909,-6703269 -279927,-6703239 -279936,-6703222 -279972,-6703179 -279984,-6703161 -279989,-6703152 -279997,-6703132 -280000,-6703121 -280005,-6703092 -280008,-6703057 -280061,-6703063 -280081,-6703064 -280093,-6703070 -280105,-6703069 -280114,-6703060 -280127,-6703039 -280152,-6703007 -280159,-6702999 -280184,-6702987 -280212,-6702970 -280235,-6702960 -280246,-6702953 -280277,-6702931 -280330,-6702912 -280346,-6702909 -280354,-6702904 -280355,-6702893 -280359,-6702855 -280366,-6702807 -280366,-6702798 -280364,-6702777 -280365,-6702758 -280369,-6702741 -280420,-6702685 -280425,-6702678 -280428,-6702671 -280431,-6702663 -280436,-6702645 -280437,-6702635 -280435,-6702603 -280436,-6702568 -280434,-6702545 -280429,-6702529 -280421,-6702518 -280414,-6702498 -280397,-6702451 -280392,-6702411 -280391,-6702409 -280384,-6702384 -280368,-6702339 -280354,-6702293 -280347,-6702272 -280342,-6702251 -280341,-6702242 -280344,-6702219 -280356,-6702181 -280360,-6702167 -280360,-6702143 -280357,-6702109 -280356,-6702099 -280368,-6702045 -280376,-6702018 -280397,-6702002 -280403,-6701997 -280414,-6701982 -280424,-6701973 -280433,-6701949 -280433,-6701924 -280425,-6701864 -280419,-6701831 -280413,-6701785 -280407,-6701765 -280406,-6701754 -280406,-6701751 -280406,-6701749 -280411,-6701743 -280437,-6701716 -280444,-6701706 -280507,-6701610 -280519,-6701590 -280531,-6701565 -280556,-6701527 -280581,-6701501 -280592,-6701476 -280613,-6701437 -280627,-6701419 -280645,-6701391 -280662,-6701376 -280679,-6701362 -280694,-6701348 -280703,-6701333 -280711,-6701315 -280722,-6701300 -280747,-6701279 -280755,-6701270 -280769,-6701254 -280778,-6701247 -280788,-6701241 -280808,-6701237 -280833,-6701232 -280851,-6701210 -280859,-6701203 -280869,-6701197 -280891,-6701187 -280903,-6701184 -280926,-6701180 -280963,-6701174 -280993,-6701170 -281001,-6701166 -281037,-6701143 -281056,-6701127 -281066,-6701118 -281076,-6701111 -281096,-6701099 -281120,-6701093 -281146,-6701098 -281137,-6701121 -281138,-6701132 -281199,-6701129 -281206,-6701130 -281220,-6701116 -281239,-6701107 -281262,-6701086 -281303,-6701054 -281329,-6701044 -281356,-6701034 -281380,-6701029 -281401,-6701031 -281424,-6701036 -281449,-6701037 -281504,-6701030 -281521,-6701027 -281541,-6701013 -281571,-6700998 -281630,-6700967 -281647,-6700954 -281663,-6700938 -281677,-6700920 -281689,-6700900 -281696,-6700882 -281696,-6700874 -281691,-6700836 -281691,-6700830 -281720,-6700786 -281752,-6700735 -281771,-6700711 -281777,-6700703 -281784,-6700691 -281808,-6700659 -281823,-6700647 -281848,-6700646 -281879,-6700650 -281921,-6700650 -281953,-6700654 -281970,-6700655 -282008,-6700655 -282014,-6700655 -282040,-6700656 -282062,-6700652 -282083,-6700645 -282105,-6700644 -282117,-6700647 -282143,-6700654 -282169,-6700662 -282179,-6700667 -282198,-6700677 -282222,-6700728 -282256,-6700795 -282262,-6700807 -282299,-6700798 -282354,-6700790 -282384,-6700784 -282386,-6700784 -282418,-6700775 -282449,-6700766 -282478,-6700755 -282493,-6700749 -282520,-6700735 -282543,-6700720 -282581,-6700687 -282607,-6700667 -282641,-6700642 -282653,-6700627 -282663,-6700605 -282675,-6700552 -282677,-6700541 -282678,-6700531 -282676,-6700517 -282676,-6700516 -282673,-6700504 -282668,-6700491 -282657,-6700467 -282651,-6700457 -282630,-6700433 -282597,-6700402 -282577,-6700385 -282547,-6700361 -282533,-6700352 -282506,-6700336 -282493,-6700329 -282465,-6700319 -282441,-6700314 -282392,-6700315 -282376,-6700316 -282342,-6700323 -282271,-6700342 -282161,-6700377 -282138,-6700383 -282091,-6700397 -282022,-6700419 -281993,-6700426 -281988,-6700434 -281939,-6700450 -281887,-6700471 -281874,-6700475 -281802,-6700491 -281786,-6700494 -281755,-6700496 -281725,-6700495 -281688,-6700489 -281655,-6700478 -281616,-6700461 -281572,-6700443 -281496,-6700408 -281479,-6700399 -281465,-6700390 -281451,-6700381 -281408,-6700344 -281394,-6700331 -281371,-6700306 -281350,-6700287 -281341,-6700277 -281305,-6700230 -281291,-6700208 -281276,-6700187 -281270,-6700175 -281261,-6700152 -281256,-6700140 -281251,-6700116 -281250,-6700093 -281247,-6700062 -281242,-6699953 -281247,-6699907 -281263,-6699794 -281269,-6699763 -281284,-6699701 -281292,-6699656 -281289,-6699621 -281284,-6699572 -281280,-6699509 -281282,-6699442 -281282,-6699388 -281282,-6699371 -281288,-6699313 -281286,-6699282 -281293,-6699212 -281301,-6699205 -281308,-6699060 -281310,-6699036 -281314,-6699000 -281316,-6698961 -281319,-6698922 -281315,-6698861 -281309,-6698827 -281306,-6698814 -281245,-6698686 -281235,-6698662 -281222,-6698641 -281200,-6698609 -281181,-6698576 -281177,-6698567 -281155,-6698506 -281137,-6698479 -281121,-6698447 -281083,-6698394 -281062,-6698370 -281045,-6698345 -281001,-6698286 -280958,-6698232 -280938,-6698201 -280919,-6698176 -280877,-6698136 -280828,-6698091 -280792,-6698066 -280725,-6698025 -280710,-6698017 -280681,-6698006 -280677,-6698004 -280545,-6697950 -280514,-6697938 -280498,-6697934 -280444,-6697928 -280407,-6697921 -280395,-6697917 -280359,-6697903 -280353,-6697907 -280284,-6697884 -280246,-6697875 -280190,-6697856 -280116,-6697825 -280116,-6697816 -280097,-6697809 -280049,-6697786 -280009,-6697765 -279904,-6697700 -279839,-6697663 -279813,-6697651 -279794,-6697645 -279726,-6697621 -279636,-6697590 -279621,-6697586 -279594,-6697581 -279580,-6697579 -279556,-6697578 -279494,-6697581 -279489,-6697580 -279481,-6697564 -279458,-6697555 -279474,-6697550 -279491,-6697550 -279507,-6697548 -279489,-6697541 -279458,-6697522 -279463,-6697493 -279481,-6697494 -279490,-6697480 -279573,-6697512 -279583,-6697515 -279601,-6697519 -279612,-6697524 -279645,-6697544 -279671,-6697556 -279707,-6697567 -279800,-6697592 -279834,-6697609 -279889,-6697631 -279906,-6697644 -279927,-6697650 -279943,-6697660 -279977,-6697677 -280041,-6697732 -280061,-6697746 -280086,-6697755 -280112,-6697761 -280133,-6697768 -280160,-6697784 -280169,-6697788 -280203,-6697800 -280272,-6697826 -280294,-6697831 -280320,-6697840 -280342,-6697849 -280359,-6697858 -280370,-6697861 -280403,-6697865 -280448,-6697866 -280462,-6697868 -280504,-6697877 -280554,-6697892 -280599,-6697909 -280622,-6697916 -280644,-6697923 -280664,-6697930 -280701,-6697951 -280741,-6697969 -280754,-6697980 -280762,-6697985 -280793,-6698003 -280835,-6698033 -280854,-6698052 -280909,-6698103 -280970,-6698166 -281008,-6698217 -281022,-6698234 -281057,-6698283 -281082,-6698322 -281091,-6698335 -281101,-6698348 -281119,-6698369 -281133,-6698387 -281148,-6698413 -281159,-6698433 -281170,-6698455 -281192,-6698504 -281197,-6698514 -281214,-6698543 -281225,-6698564 -281234,-6698555 -281263,-6698527 -281280,-6698514 -281285,-6698509 -281289,-6698504 -281312,-6698470 -281328,-6698465 -281338,-6698460 -281353,-6698443 -281376,-6698420 -281389,-6698411 -281395,-6698405 -281401,-6698398 -281410,-6698384 -281393,-6698376 -281388,-6698376 -281383,-6698377 -281371,-6698387 -281288,-6698391 -281273,-6698395 -281259,-6698380 -281234,-6698355 -281221,-6698335 -281218,-6698329 -281213,-6698314 -281206,-6698303 -281167,-6698280 -281162,-6698275 -281150,-6698262 -281144,-6698254 -281133,-6698235 -281168,-6698195 -281206,-6698146 -281219,-6698130 -281276,-6698065 -281328,-6698005 -281344,-6697983 -281347,-6697978 -281310,-6697948 -281272,-6697919 -281260,-6697910 -281170,-6697862 -281123,-6697828 -281062,-6697787 -281033,-6697771 -281008,-6697754 -280987,-6697741 -280964,-6697719 -280948,-6697703 -280942,-6697696 -280936,-6697682 -280944,-6697654 -280947,-6697632 -280948,-6697532 -280952,-6697402 -280942,-6697369 -280935,-6697324 -280939,-6697273 -280935,-6697234 -280934,-6697215 -280932,-6697203 -280925,-6697190 -280905,-6697167 -280876,-6697124 -280872,-6697117 -280869,-6697106 -280869,-6697092 -280875,-6697051 -280880,-6697034 -280882,-6697021 -280887,-6696990 -280856,-6696980 -280858,-6696949 -280862,-6696930 -280876,-6696932 -280883,-6696934 -280907,-6696945 -280917,-6696948 -280965,-6696958 -280999,-6696966 -281011,-6696968 -281023,-6696968 -281053,-6696964 -281074,-6696963 -281084,-6696963 -281103,-6696968 -281136,-6696972 -281174,-6696973 -281180,-6696972 -281187,-6696970 -281219,-6696956 -281233,-6696954 -281250,-6696955 -281273,-6696954 -281286,-6696949 -281304,-6696936 -281338,-6696905 -281389,-6696869 -281411,-6696843 -281418,-6696832 -281423,-6696827 -281436,-6696818 -281451,-6696810 -281459,-6696807 -281487,-6696804 -281502,-6696800 -281526,-6696790 -281552,-6696772 -281560,-6696766 -281571,-6696754 -281652,-6696658 -281727,-6696579 -281764,-6696536 -281784,-6696516 -281771,-6696495 -281764,-6696479 -281764,-6696454 -281769,-6696413 -281775,-6696394 -281778,-6696379 -281778,-6696367 -281774,-6696357 -281764,-6696349 -281722,-6696327 -281705,-6696315 -281648,-6696276 -281632,-6696262 -281605,-6696243 -281577,-6696217 -281568,-6696206 -281558,-6696190 -281556,-6696185 -281553,-6696174 -281553,-6696168 -281555,-6696154 -281557,-6696147 -281564,-6696133 -281582,-6696103 -281578,-6696089 -281605,-6696068 -281615,-6696057 -281646,-6696041 -281655,-6696036 -281674,-6696017 -281691,-6696001 -281709,-6695982 -281739,-6695956 -281755,-6695944 -281803,-6695909 -281846,-6695878 -281865,-6695862 -281881,-6695852 -281893,-6695841 -281916,-6695825 -281928,-6695812 -281936,-6695800 -281961,-6695747 -281993,-6695704 -282037,-6695637 -282050,-6695614 -282057,-6695607 -282070,-6695599 -282077,-6695595 -282089,-6695585 -282099,-6695574 -282109,-6695561 -282113,-6695554 -282116,-6695544 -282134,-6695477 -282109,-6695463 -282091,-6695452 -282064,-6695442 -282002,-6695418 -282030,-6695320 -282069,-6695320 -282121,-6695330 -282121,-6695328 -282123,-6695311 -282123,-6695300 -282121,-6695267 -282119,-6695245 -282105,-6695155 -282117,-6695152 -282117,-6695117 -282114,-6695085 -282112,-6695026 -282114,-6694963 -282116,-6694933 -282118,-6694923 -282134,-6694914 -282148,-6694910 -282160,-6694904 -282170,-6694892 -282176,-6694879 -282176,-6694867 -282168,-6694851 -282152,-6694837 -282139,-6694827 -282152,-6694808 -282164,-6694793 -282170,-6694781 -282194,-6694717 -282203,-6694698 -282242,-6694635 -282251,-6694623 -282257,-6694618 -282337,-6694551 -282390,-6694518 -282409,-6694502 -282409,-6694502 -282400,-6694482 -282386,-6694452 -282380,-6694442 -282360,-6694414 -282327,-6694367 -282320,-6694358 -282307,-6694343 -282385,-6694329 -282407,-6694324 -282430,-6694323 -282456,-6694316 -282483,-6694310 -282491,-6694308 -282505,-6694301 -282523,-6694288 -282537,-6694275 -282544,-6694272 -282552,-6694270 -282561,-6694268 -282570,-6694268 -282582,-6694268 -282595,-6694266 -282619,-6694246 -282629,-6694236 -282657,-6694206 -282676,-6694191 -282693,-6694173 -282745,-6694129 -282807,-6694093 -282847,-6694067 -282856,-6694060 -282884,-6694030 -282918,-6693996 -282972,-6693947 -283004,-6693924 -283009,-6693917 -283013,-6693910 -283016,-6693901 -283018,-6693892 -283020,-6693876 -283017,-6693838 -283018,-6693823 -283015,-6693808 -283009,-6693797 -283031,-6693792 -283067,-6693746 -283123,-6693678 -283185,-6693718 -283261,-6693772 -283295,-6693795 -283316,-6693811 -283327,-6693826 -283331,-6693832 -283339,-6693857 -283343,-6693887 -283356,-6693891 -283355,-6693898 -283382,-6693909 -283399,-6693915 -283416,-6693921 -283429,-6693924 -283463,-6693929 -283478,-6693931 -283506,-6693936 -283563,-6693936 -283587,-6693939 -283584,-6693972 -283604,-6693970 -283652,-6693943 -283672,-6693936 -283694,-6693933 -283736,-6693930 -283749,-6693938 -283752,-6693952 -283757,-6693970 -283758,-6693979 -283759,-6693997 -283758,-6694005 -283755,-6694013 -283806,-6694009 -283849,-6694009 -283886,-6694006 -284022,-6694004 -284058,-6693996 -284127,-6693983 -284188,-6693978 -284202,-6694035 -284213,-6694068 -284214,-6694071 -284299,-6694054 -284338,-6694045 -284347,-6694042 -284347,-6694041 -284360,-6694025 -284364,-6694028 -284363,-6694034 -284426,-6694023 -284444,-6694020 -284489,-6694016 -284517,-6694012 -284518,-6694011 -284517,-6693946 -284554,-6693935 -284562,-6693973 -284564,-6694026 -284570,-6694078 -284568,-6694114 -284567,-6694156 -284562,-6694234 -284555,-6694274 -284552,-6694293 -284548,-6694342 -284542,-6694368 -284577,-6694376 -284636,-6694376 -284653,-6694377 -284683,-6694379 -284711,-6694377 -284729,-6694372 -284742,-6694377 -284770,-6694372 -284802,-6694371 -284845,-6694361 -284898,-6694354 -284910,-6694354 -284921,-6694355 -284941,-6694362 -284943,-6694374 -284928,-6694434 -284961,-6694435 -285034,-6694444 -285075,-6694448 -285081,-6694431 -285092,-6694396 -285106,-6694340 -285126,-6694270 -285132,-6694251 -285139,-6694232 -285182,-6694128 -285211,-6694070 -285231,-6694038 -285246,-6694010 -285267,-6693979 -285284,-6693950 -285302,-6693952 -285327,-6693891 -285275,-6693862 -285228,-6693841 -285250,-6693819 -285259,-6693809 -285267,-6693799 -285287,-6693769 -285306,-6693746 -285314,-6693739 -285327,-6693734 -285330,-6693699 -285331,-6693689 -285342,-6693680 -285400,-6693654 -285437,-6693630 -285461,-6693613 -285464,-6693594 -285459,-6693571 -285458,-6693559 -285457,-6693535 -285457,-6693516 -285458,-6693509 -285469,-6693501 -285504,-6693480 -285545,-6693454 -285565,-6693449 -285560,-6693436 -285576,-6693429 -285568,-6693416 -285554,-6693389 -285536,-6693363 -285523,-6693338 -285510,-6693302 -285505,-6693282 -285503,-6693272 -285528,-6693260 -285560,-6693250 -285603,-6693237 -285638,-6693228 -285660,-6693228 -285739,-6693202 -285740,-6693201 -285712,-6693130 -285753,-6693111 -285778,-6693104 -285798,-6693092 -285816,-6693079 -285822,-6693072 -285822,-6693072 -285775,-6693007 -285820,-6692949 -285805,-6692935 -285759,-6692896 -285701,-6692852 -285768,-6692804 -285752,-6692740 -285777,-6692692 -285794,-6692650 -285820,-6692597 -285829,-6692582 -285894,-6692601 -285927,-6692559 -285974,-6692504 -286015,-6692454 -286066,-6692384 -286101,-6692343 -286135,-6692300 -286152,-6692276 -286175,-6692243 -286215,-6692257 -286253,-6692265 -286273,-6692271 -286281,-6692275 -286294,-6692288 -286307,-6692325 -286311,-6692335 -286312,-6692342 -286312,-6692348 -286307,-6692368 -286306,-6692374 -286308,-6692386 -286304,-6692402 -286303,-6692407 -286312,-6692422 -286312,-6692432 -286332,-6692444 -286474,-6692511 -286503,-6692465 -286526,-6692423 -286541,-6692407 -286610,-6692442 -286605,-6692452 -286688,-6692504 -286698,-6692497 -286797,-6692557 -286802,-6692552 -286814,-6692527 -286826,-6692507 -286841,-6692494 -286866,-6692464 -286873,-6692455 -286891,-6692427 -286909,-6692399 -286937,-6692349 -286993,-6692242 -287013,-6692247 -287034,-6692250 -287069,-6692271 -287071,-6692273 -287070,-6692292 -287094,-6692296 -287125,-6692307 -287150,-6692319 -287132,-6692353 -287145,-6692360 -287163,-6692369 -287173,-6692374 -287200,-6692394 -287234,-6692423 -287241,-6692428 -287277,-6692450 -287311,-6692470 -287323,-6692475 -287333,-6692479 -287402,-6692503 -287428,-6692515 -287435,-6692506 -287439,-6692498 -287449,-6692472 -287462,-6692453 -287470,-6692451 -287491,-6692452 -287491,-6692448 -287488,-6692433 -287488,-6692427 -287489,-6692420 -287496,-6692396 -287498,-6692380 -287513,-6692369 -287516,-6692364 -287518,-6692359 -287523,-6692338 -287531,-6692308 -287538,-6692300 -287574,-6692304 -287619,-6692311 -287623,-6692313 -287626,-6692317 -287628,-6692321 -287631,-6692341 -287632,-6692372 -287630,-6692406 -287632,-6692427 -287693,-6692432 -287695,-6692425 -287689,-6692399 -287690,-6692380 -287695,-6692365 -287700,-6692363 -287718,-6692361 -287739,-6692364 -287780,-6692379 -287781,-6692378 -287784,-6692365 -287794,-6692343 -287792,-6692331 -287788,-6692326 -287784,-6692321 -287769,-6692308 -287762,-6692299 -287761,-6692294 -287760,-6692289 -287762,-6692279 -287771,-6692270 -287791,-6692256 -287792,-6692256 -287797,-6692260 -287808,-6692270 -287821,-6692280 -287870,-6692243 -287885,-6692255 -287906,-6692236 -287934,-6692215 -287999,-6692177 -288006,-6692172 -288012,-6692167 -288035,-6692138 -288058,-6692113 -288069,-6692105 -288102,-6692104 -288136,-6692100 -288153,-6692097 -288188,-6692086 -288231,-6692068 -288239,-6692063 -288254,-6692051 -288282,-6692023 -288290,-6692016 -288309,-6692029 -288322,-6692013 -288346,-6691990 -288337,-6691980 -288333,-6691973 -288329,-6691966 -288328,-6691959 -288327,-6691952 -288328,-6691938 -288332,-6691918 -288364,-6691920 -288381,-6691924 -288415,-6691936 -288428,-6691945 -288461,-6691960 -288478,-6691975 -288497,-6691994 -288521,-6692015 -288529,-6692021 -288547,-6692030 -288562,-6692041 -288574,-6692014 -288577,-6692002 -288561,-6691978 -288538,-6691956 -288529,-6691941 -288558,-6691913 -288582,-6691894 -288590,-6691887 -288604,-6691871 -288638,-6691915 -288655,-6691941 -288686,-6691977 -288708,-6691996 -288720,-6691987 -288729,-6691974 -288758,-6691947 -288770,-6691944 -288778,-6691953 -288783,-6691973 -288815,-6691965 -288841,-6691969 -288868,-6691979 -288877,-6691982 -288888,-6691984 -288912,-6691988 -288926,-6691993 -288938,-6691990 -288948,-6691983 -288955,-6691986 -288977,-6692010 -288993,-6692030 -289005,-6692059 -289021,-6692068 -289054,-6692091 -289091,-6692107 -289119,-6692116 -289132,-6692127 -289149,-6692154 -289153,-6692162 -289159,-6692179 -289162,-6692188 -289160,-6692207 -289157,-6692217 -289148,-6692238 -289144,-6692247 -289135,-6692260 -289130,-6692270 -289112,-6692316 -289108,-6692332 -289107,-6692338 -289102,-6692384 -289107,-6692391 -289119,-6692385 -289129,-6692375 -289133,-6692372 -289142,-6692365 -289177,-6692349 -289199,-6692345 -289224,-6692371 -289231,-6692377 -289243,-6692386 -289256,-6692380 -289275,-6692374 -289286,-6692369 -289296,-6692371 -289303,-6692374 -289329,-6692388 -289348,-6692395 -289353,-6692394 -289364,-6692392 -289385,-6692382 -289402,-6692378 -289419,-6692374 -289445,-6692374 -289457,-6692376 -289481,-6692381 -289493,-6692384 -289515,-6692392 -289534,-6692396 -289545,-6692382 -289548,-6692376 -289551,-6692364 -289553,-6692358 -289553,-6692331 -289559,-6692311 -289559,-6692304 -289559,-6692297 -289545,-6692285 -289541,-6692280 -289541,-6692272 -289548,-6692266 -289615,-6692230 -289644,-6692205 -289664,-6692194 -289680,-6692187 -289741,-6692145 -289750,-6692158 -289777,-6692184 -289783,-6692187 -289806,-6692196 -289844,-6692207 -289856,-6692212 -289890,-6692228 -289896,-6692233 -289908,-6692245 -289914,-6692251 -289939,-6692302 -289959,-6692339 -289952,-6692351 -289966,-6692385 -289971,-6692405 -289979,-6692425 -289972,-6692435 -289996,-6692460 -290008,-6692475 -290013,-6692482 -290020,-6692496 -290042,-6692525 -290052,-6692535 -290062,-6692544 -290088,-6692564 -290132,-6692592 -290154,-6692605 -290162,-6692600 -290170,-6692592 -290185,-6692576 -290205,-6692555 -290223,-6692541 -290234,-6692531 -290247,-6692538 -290258,-6692545 -290268,-6692554 -290296,-6692579 -290305,-6692586 -290368,-6692598 -290402,-6692575 -290420,-6692559 -290427,-6692559 -290476,-6692561 -290498,-6692564 -290520,-6692565 -290577,-6692576 -290587,-6692582 -290596,-6692578 -290616,-6692572 -290623,-6692569 -290630,-6692566 -290650,-6692554 -290663,-6692551 -290673,-6692555 -290683,-6692574 -290699,-6692572 -290722,-6692565 -290753,-6692580 -290784,-6692599 -290795,-6692599 -290812,-6692592 -290821,-6692596 -290823,-6692609 -290818,-6692660 -290812,-6692675 -290804,-6692760 -290811,-6692765 -290827,-6692771 -290851,-6692782 -290865,-6692786 -290889,-6692810 -290907,-6692823 -290913,-6692826 -290929,-6692832 -290956,-6692837 -290959,-6692831 -290962,-6692796 -290964,-6692784 -290972,-6692781 -290996,-6692775 -291034,-6692772 -291076,-6692774 -291086,-6692783 -291089,-6692785 -291098,-6692785 -291108,-6692785 -291153,-6692778 -291212,-6692779 -291234,-6692780 -291243,-6692781 -291251,-6692794 -291296,-6692789 -291375,-6692784 -291375,-6692775 -291373,-6692759 -291367,-6692724 -291362,-6692688 -291363,-6692668 -291375,-6692668 -291397,-6692672 -291416,-6692677 -291440,-6692687 -291449,-6692689 -291457,-6692690 -291489,-6692693 -291519,-6692700 -291563,-6692703 -291562,-6692733 -291563,-6692740 -291570,-6692758 -291572,-6692764 -291572,-6692773 -291570,-6692791 -291563,-6692820 -291571,-6692824 -291569,-6692834 -291565,-6692846 -291563,-6692853 -291562,-6692860 -291563,-6692895 -291561,-6692929 -291567,-6692945 -291580,-6692946 -291570,-6692964 -291568,-6692971 -291561,-6692991 -291557,-6693024 -291556,-6693054 -291567,-6693069 -291572,-6693081 -291573,-6693091 -291575,-6693096 -291582,-6693105 -291597,-6693120 -291619,-6693138 -291628,-6693135 -291800,-6693104 -291808,-6693122 -291871,-6693126 -291862,-6693092 -291864,-6693085 -291866,-6693078 -291874,-6693061 -291894,-6693030 -291900,-6693022 -291915,-6693017 -291924,-6693020 -291955,-6693033 -291990,-6693044 -291986,-6693083 -292002,-6693090 -292016,-6693092 -292027,-6693084 -292031,-6693082 -292036,-6693081 -292056,-6693080 -292093,-6693075 -292123,-6693069 -292193,-6693060 -292267,-6693047 -292299,-6693046 -292317,-6693037 -292316,-6693031 -292311,-6693017 -292309,-6693006 -292302,-6692996 -292297,-6692987 -292293,-6692979 -292290,-6692969 -292295,-6692953 -292303,-6692919 -292328,-6692903 -292371,-6692870 -292379,-6692865 -292386,-6692860 -292402,-6692853 -292426,-6692841 -292446,-6692825 -292457,-6692820 -292477,-6692805 -292482,-6692800 -292486,-6692795 -292490,-6692786 -292494,-6692764 -292500,-6692749 -292506,-6692729 -292509,-6692726 -292514,-6692717 -292521,-6692714 -292524,-6692707 -292535,-6692709 -292538,-6692710 -292542,-6692688 -292661,-6692739 -292724,-6692765 -292730,-6692765 -292751,-6692760 -292751,-6692760 -292822,-6692733 -292867,-6692784 -292875,-6692788 -292880,-6692792 -292919,-6692802 -292924,-6692807 -292939,-6692829 -292957,-6692850 -292964,-6692856 -292977,-6692866 -293010,-6692887 -293025,-6692894 -293029,-6692901 -293048,-6692915 -293057,-6692925 -293077,-6692937 -293085,-6692944 -293088,-6692950 -293094,-6692957 -293105,-6692962 -293124,-6692964 -293132,-6692970 -293134,-6692973 -293136,-6692976 -293131,-6693018 -293131,-6693038 -293136,-6693060 -293134,-6693081 -293134,-6693094 -293139,-6693122 -293144,-6693143 -293145,-6693150 -293144,-6693163 -293140,-6693175 -293131,-6693196 -293126,-6693215 -293118,-6693230 -293115,-6693242 -293118,-6693258 -293117,-6693285 -293121,-6693299 -293129,-6693309 -293154,-6693335 -293171,-6693350 -293193,-6693371 -293205,-6693375 -293290,-6693415 -293315,-6693428 -293378,-6693601 -293350,-6693604 -293275,-6693620 -293255,-6693629 -293206,-6693648 -293186,-6693659 -293134,-6693690 -293085,-6693723 -293072,-6693735 -293048,-6693753 -293033,-6693768 -292989,-6693816 -292958,-6693873 -292934,-6693928 -292922,-6693952 -292918,-6693962 -292911,-6693985 -292905,-6694008 -292890,-6694080 -292869,-6694151 -292868,-6694160 -292868,-6694162 -292891,-6694168 -292904,-6694172 -292967,-6694186 -293013,-6694192 -293032,-6694193 -293032,-6694197 -293031,-6694201 -293026,-6694209 -293001,-6694236 -292988,-6694254 -292982,-6694263 -292971,-6694286 -292958,-6694304 -292936,-6694340 -292928,-6694359 -292916,-6694384 -292909,-6694403 -292895,-6694437 -292890,-6694469 -292888,-6694477 -292885,-6694484 -292876,-6694498 -292869,-6694512 -292864,-6694529 -292856,-6694566 -292850,-6694603 -292848,-6694672 -292845,-6694692 -292837,-6694711 -292834,-6694722 -292828,-6694752 -292818,-6694785 -292814,-6694793 -292810,-6694801 -292802,-6694805 -292792,-6694815 -292775,-6694848 -292771,-6694864 -292765,-6694883 -292764,-6694892 -292764,-6694901 -292768,-6694916 -292757,-6694941 -292746,-6694983 -292728,-6694984 -292672,-6694983 -292671,-6694985 -292652,-6695078 -292649,-6695119 -292646,-6695133 -292641,-6695148 -292639,-6695156 -292638,-6695165 -292636,-6695191 -292630,-6695212 -292629,-6695214 -292675,-6695219 -292717,-6695225 -292721,-6695236 -292754,-6695238 -292762,-6695230 -292771,-6695221 -292774,-6695220 -292792,-6695219 -292837,-6695212 -292898,-6695203 -292909,-6695213 -292912,-6695219 -292915,-6695225 -292918,-6695235 -292926,-6695303 -292937,-6695295 -292947,-6695312 -292966,-6695340 -292979,-6695360 -293002,-6695402 -293042,-6695467 -293051,-6695491 -293042,-6695509 -293029,-6695527 -292964,-6695588 -292890,-6695661 -292882,-6695668 -292863,-6695681 -292838,-6695695 -292864,-6695749 -292872,-6695770 -292878,-6695782 -292896,-6695813 -292905,-6695815 -292918,-6695838 -292938,-6695871 -292939,-6695881 -292947,-6695891 -292993,-6695938 -293018,-6695960 -293044,-6695987 -293061,-6696002 -293102,-6696023 -293156,-6696045 -293177,-6696052 -293196,-6696063 -293217,-6696075 -293258,-6696096 -293282,-6696113 -293281,-6696121 -293271,-6696129 -293284,-6696156 -293295,-6696185 -293298,-6696192 -293307,-6696204 -293312,-6696208 -293343,-6696228 -293365,-6696244 -293372,-6696248 -293389,-6696256 -293398,-6696259 -293430,-6696267 -293438,-6696272 -293447,-6696277 -293473,-6696308 -293494,-6696339 -293512,-6696373 -293519,-6696390 -293523,-6696412 -293527,-6696439 -293534,-6696460 -293538,-6696469 -293559,-6696497 -293558,-6696503 -293556,-6696504 -293553,-6696504 -293548,-6696501 -293545,-6696501 -293542,-6696501 -293540,-6696503 -293538,-6696506 -293529,-6696519 -293526,-6696523 -293508,-6696524 -293505,-6696527 -293503,-6696531 -293502,-6696534 -293502,-6696538 -293508,-6696554 -293505,-6696556 -293502,-6696558 -293499,-6696558 -293487,-6696558 -293479,-6696563 -293478,-6696568 -293476,-6696582 -293487,-6696606 -293483,-6696616 -293481,-6696628 -293479,-6696631 -293477,-6696634 -293465,-6696640 -293448,-6696642 -293426,-6696652 -293420,-6696655 -293415,-6696659 -293399,-6696677 -293397,-6696684 -293400,-6696691 -293406,-6696693 -293416,-6696691 -293426,-6696691 -293432,-6696697 -293431,-6696700 -293421,-6696714 -293400,-6696734 -293397,-6696738 -293378,-6696766 -293351,-6696803 -293342,-6696818 -293339,-6696831 -293337,-6696837 -293331,-6696848 -293327,-6696853 -293313,-6696862 -293283,-6696889 -293269,-6696903 -293250,-6696926 -293242,-6696930 -293237,-6696935 -293232,-6696940 -293229,-6696947 -293219,-6696968 -293216,-6696979 -293223,-6696989 -293222,-6696996 -293219,-6697000 -293209,-6697009 -293202,-6697023 -293203,-6697027 -293208,-6697046 -293207,-6697058 -293191,-6697070 -293185,-6697076 -293183,-6697083 -293185,-6697089 -293192,-6697092 -293204,-6697095 -293210,-6697099 -293210,-6697102 -293210,-6697106 -293196,-6697126 -293195,-6697135 -293188,-6697162 -293188,-6697180 -293182,-6697213 -293187,-6697220 -293204,-6697226 -293207,-6697263 -293207,-6697265 -293203,-6697314 -293206,-6697326 -293212,-6697353 -293212,-6697376 -293216,-6697393 -293217,-6697422 -293214,-6697444 -293209,-6697454 -293199,-6697472 -293179,-6697503 -293176,-6697517 -293174,-6697531 -293173,-6697563 -293165,-6697600 -293163,-6697635 -293159,-6697669 -293158,-6697707 -293156,-6697759 -293159,-6697787 -293157,-6697855 -293156,-6697936 -293158,-6697976 -293154,-6698009 -293154,-6698022 -293156,-6698073 -293155,-6698103 -293157,-6698145 -293154,-6698218 -293151,-6698251 -293156,-6698326 -293157,-6698348 -293157,-6698369 -293154,-6698404 -293154,-6698436 -293157,-6698539 -293153,-6698577 -293155,-6698680 -293160,-6698722 -293160,-6698722 -293159,-6698748 -293151,-6698760 -293135,-6698771 -293124,-6698778 -293084,-6698800 -293020,-6698829 -292967,-6698860 -292955,-6698868 -292897,-6698908 -292756,-6698999 -292717,-6699027 -292728,-6699048 -292765,-6699094 -292757,-6699105 -292766,-6699114 -292771,-6699111 -292828,-6699179 -292771,-6699226 -292789,-6699280 -292789,-6699299 -292788,-6699311 -292783,-6699352 -292787,-6699366 -292802,-6699404 -292812,-6699427 -292893,-6699391 -292919,-6699384 -292947,-6699381 -292979,-6699383 -292995,-6699383 -293095,-6699378 -293130,-6699379 -293174,-6699375 -293241,-6699367 -293261,-6699371 -293279,-6699376 -293317,-6699385 -293400,-6699397 -293434,-6699404 -293452,-6699408 -293477,-6699415 -293629,-6699478 -293643,-6699483 -293654,-6699487 -293727,-6699512 -293847,-6699562 -293892,-6699575 -293892,-6699579 -293882,-6699614 -293880,-6699626 -293880,-6699650 -293877,-6699679 -293876,-6699713 -293871,-6699739 -293865,-6699746 -293851,-6699760 -293843,-6699767 -293830,-6699777 -293819,-6699784 -293808,-6699793 -293768,-6699830 -293752,-6699826 -293739,-6699820 -293725,-6699822 -293696,-6699829 -293682,-6699833 -293657,-6699849 -293625,-6699899 -293615,-6699922 -293611,-6699934 -293602,-6699970 -293595,-6699977 -293541,-6700023 -293522,-6700047 -293508,-6700071 -293504,-6700095 -293524,-6700119 -293509,-6700136 -293512,-6700159 -293522,-6700220 -293523,-6700248 -293532,-6700259 -293446,-6700356 -293425,-6700375 -293408,-6700378 -293392,-6700376 -293379,-6700398 -293385,-6700407 -293395,-6700443 -293384,-6700456 -293350,-6700492 -293339,-6700505 -293329,-6700518 -293311,-6700543 -293262,-6700605 -293229,-6700649 -293113,-6700789 -293007,-6700736 -292850,-6700656 -292811,-6700639 -292794,-6700631 -292749,-6700607 -292732,-6700592 -292690,-6700613 -292653,-6700635 -292643,-6700640 -292631,-6700644 -292583,-6700654 -292508,-6700676 -292495,-6700680 -292468,-6700696 -292441,-6700684 -292436,-6700687 -292399,-6700822 -292389,-6700851 -292380,-6700891 -292375,-6700931 -292370,-6700957 -292372,-6700978 -292373,-6700984 -292372,-6700988 -292370,-6700992 -292347,-6701012 -292308,-6701047 -292302,-6701060 -292303,-6701075 -292307,-6701098 -292312,-6701115 -292316,-6701141 -292327,-6701184 -292337,-6701218 -292355,-6701272 -292381,-6701336 -292385,-6701349 -292396,-6701386 -292420,-6701436 -292433,-6701475 -292482,-6701588 -292527,-6701709 -292540,-6701752 -292541,-6701779 -292544,-6701803 -292549,-6701861 -292557,-6701922 -292562,-6701967 -292566,-6701984 -292573,-6702014 -292594,-6702086 -292623,-6702156 -292637,-6702187 -292667,-6702245 -292682,-6702267 -292690,-6702283 -292699,-6702296 -292744,-6702345 -292789,-6702382 -292796,-6702390 -292809,-6702408 -292846,-6702452 -292879,-6702497 -292898,-6702520 -292931,-6702567 -292960,-6702618 -292972,-6702643 -292973,-6702655 -292976,-6702664 -292979,-6702673 -292984,-6702696 -293000,-6702757 -293004,-6702798 -293003,-6702835 -292999,-6702869 -292993,-6702881 -292981,-6702903 -292975,-6702913 -292959,-6702931 -292951,-6702946 -292948,-6702970 -292944,-6703045 -292943,-6703076 -292943,-6703124 -292947,-6703174 -292953,-6703221 -292959,-6703282 -292960,-6703297 -292965,-6703317 -292967,-6703338 -292968,-6703344 -292992,-6703425 -293000,-6703442 -293008,-6703467 -293016,-6703485 -293032,-6703516 -293052,-6703567 -293058,-6703583 -293069,-6703609 -293084,-6703657 -293090,-6703694 -293101,-6703735 -293109,-6703766 -293128,-6703882 -293139,-6703928 -293147,-6703979 -293149,-6703996 -293158,-6704028 -293163,-6704046 -293166,-6704064 -293172,-6704097 -293189,-6704145 -293203,-6704188 -293220,-6704228 -293232,-6704249 -293256,-6704284 -293311,-6704353 -293331,-6704372 -293350,-6704388 -293380,-6704415 -293423,-6704451 -293512,-6704508 -293532,-6704520 -293571,-6704540 -293604,-6704553 -293683,-6704576 -293760,-6704589 -293805,-6704604 -293883,-6704625 -293905,-6704632 -293931,-6704645 -293965,-6704660 -294047,-6704689 -294072,-6704706 -294088,-6704715 -294105,-6704723 -294152,-6704741 -294206,-6704766 -294245,-6704785 -294276,-6704798 -294290,-6704805 -294304,-6704812 -294349,-6704838 -294402,-6704859 -294418,-6704867 -294473,-6704896 -294512,-6704915 -294524,-6704921 -294562,-6704946 -294617,-6704990 -294635,-6705007 -294655,-6705030 -294662,-6705039 -294678,-6705067 -294688,-6705083 -294701,-6705100 -294729,-6705134 -294743,-6705151 -294750,-6705158 -294785,-6705179 -294842,-6705212 -294849,-6705216 -294855,-6705221 -294869,-6705243 -294870,-6705273 -294871,-6705280 -294874,-6705292 -294878,-6705303 -294886,-6705319 -294917,-6705354 -294933,-6705367 -295024,-6705458 -295044,-6705485 -295047,-6705487 -295053,-6705491 -295067,-6705497 -295104,-6705503 -295111,-6705503 -295115,-6705504 -295119,-6705506 -295122,-6705509 -295124,-6705514 -295158,-6705598 -295164,-6705624 -295165,-6705666 -295173,-6705684 -295176,-6705734 -295179,-6705756 -295179,-6705769 -295178,-6705796 -295180,-6705873 -295187,-6706014 -295199,-6706139 -295198,-6706198 -295206,-6706223 -295221,-6706280 -295227,-6706328 -295230,-6706344 -295236,-6706368 -295243,-6706392 -295253,-6706418 -295267,-6706448 -295276,-6706474 -295288,-6706501 -295288,-6706501 -295296,-6706515 -295315,-6706543 -295422,-6706718 -295440,-6706742 -295492,-6706799 -295505,-6706819 -295511,-6706826 -295578,-6706891 -295675,-6706993 -295807,-6707135 -295836,-6707171 -295895,-6707246 -295984,-6707370 -296022,-6707424 -296040,-6707451 -296090,-6707530 -296204,-6707701 -296210,-6707710 -296227,-6707734 -296273,-6707784 -296301,-6707807 -296310,-6707812 -296324,-6707816 -296392,-6707842 -296399,-6707844 -296426,-6707844 -296467,-6707837 -296490,-6707832 -296513,-6707824 -296529,-6707815 -296535,-6707811 -296596,-6707749 -296602,-6707742 -296609,-6707731 -296618,-6707714 -296621,-6707705 -296640,-6707643 -296651,-6707611 -296695,-6707452 -296712,-6707385 -296719,-6707364 -296756,-6707361 -296764,-6707332 -296769,-6707317 -296784,-6707288 -296793,-6707277 -296912,-6707176 -296915,-6707160 -296914,-6707154 -296913,-6707148 -296907,-6707134 -296899,-6707114 -296897,-6707109 -296896,-6707099 -296901,-6707032 -296905,-6707020 -296909,-6707013 -296954,-6706957 -296962,-6706951 -296981,-6706935 -297014,-6706900 -297041,-6706879 -297086,-6706860 -297092,-6706865 -297094,-6706869 -297095,-6706875 -297094,-6706882 -297093,-6706886 -297067,-6706917 -297063,-6706922 -297052,-6706944 -297046,-6706951 -297038,-6706959 -297018,-6706982 -297007,-6707000 -296995,-6707018 -296982,-6707055 -296996,-6707055 -297000,-6707056 -297004,-6707058 -297008,-6707063 -297016,-6707077 -297020,-6707080 -297025,-6707081 -297028,-6707079 -297047,-6707063 -297077,-6707031 -297086,-6707017 -297094,-6707010 -297123,-6706991 -297166,-6706954 -297195,-6706926 -297214,-6706917 -297224,-6706909 -297252,-6706878 -297262,-6706868 -297279,-6706854 -297572,-6706688 -297589,-6706679 -297627,-6706662 -297727,-6706616 -297748,-6706608 -297757,-6706605 -297797,-6706597 -297817,-6706594 -297880,-6706586 -297918,-6706585 -297966,-6706589 -298016,-6706597 -298061,-6706606 -298110,-6706619 -298150,-6706631 -298188,-6706642 -298252,-6706660 -298299,-6706675 -298315,-6706680 -298334,-6706692 -298340,-6706695 -298352,-6706697 -298376,-6706706 -298390,-6706714 -298423,-6706738 -298436,-6706748 -298443,-6706752 -298520,-6706787 -298604,-6706839 -298611,-6706845 -298631,-6706865 -298649,-6706879 -298647,-6706886 -298698,-6706932 -298704,-6706945 -298733,-6706967 -298759,-6706938 -298773,-6706944 -298795,-6706865 -298796,-6706847 -298818,-6706797 -298824,-6706786 -298825,-6706779 -298824,-6706765 -298829,-6706729 -298849,-6706730 -298862,-6706736 -298871,-6706741 -298878,-6706746 -298881,-6706751 -298884,-6706757 -298885,-6706763 -298881,-6706823 -298875,-6706833 -298857,-6706915 -298861,-6706923 -298863,-6706927 -298863,-6706932 -298855,-6706974 -298848,-6706985 -298837,-6707035 -298837,-6707040 -298840,-6707046 -298958,-6707152 -299055,-6707230 -299063,-6707238 -299073,-6707243 -299098,-6707249 -299102,-6707250 -299178,-6707317 -299187,-6707329 -299190,-6707334 -299194,-6707345 -299208,-6707365 -299271,-6707430 -299314,-6707479 -299441,-6707630 -299537,-6707747 -299570,-6707792 -299579,-6707807 -299581,-6707809 -299587,-6707810 -299592,-6707810 -299599,-6707807 -299655,-6707768 -299665,-6707758 -299672,-6707752 -299683,-6707745 -299695,-6707741 -299707,-6707742 -299706,-6707751 -299684,-6707768 -299673,-6707781 -299656,-6707797 -299638,-6707820 -299633,-6707829 -299626,-6707842 -299626,-6707851 -299627,-6707854 -299630,-6707860 -299706,-6707947 -299731,-6707981 -299741,-6707995 -299759,-6708014 -299773,-6708031 -299835,-6708118 -299845,-6708134 -299870,-6708158 -299893,-6708187 -299896,-6708190 -299903,-6708190 -299937,-6708177 -299943,-6708177 -299949,-6708180 -299951,-6708184 -299952,-6708187 -299936,-6708218 -299935,-6708221 -299936,-6708225 -299938,-6708231 -299953,-6708246 -299963,-6708253 -299966,-6708254 -299997,-6708261 -300056,-6708283 -300064,-6708284 -300069,-6708286 -300076,-6708291 -300099,-6708304 -300101,-6708306 -300102,-6708311 -300103,-6708314 -300096,-6708345 -300098,-6708365 -300099,-6708374 -300101,-6708378 -300124,-6708411 -300133,-6708423 -300197,-6708499 -300214,-6708507 -300219,-6708510 -300235,-6708527 -300243,-6708536 -300246,-6708539 -300253,-6708555 -300263,-6708569 -300314,-6708622 -300319,-6708630 -300360,-6708670 -300390,-6708709 -300403,-6708730 -300454,-6708737 -300462,-6708741 -300472,-6708748 -300480,-6708758 -300489,-6708775 -300504,-6708808 -300514,-6708822 -300540,-6708848 -300555,-6708888 -300571,-6708905 -300590,-6708922 -300594,-6708924 -300598,-6708925 -300602,-6708925 -300630,-6708909 -300634,-6708907 -300639,-6708906 -300646,-6708907 -300651,-6708910 -300670,-6708913 -300682,-6708905 -300688,-6708904 -300693,-6708906 -300695,-6708909 -300700,-6708923 -300700,-6708926 -300699,-6708934 -300688,-6708969 -300682,-6708978 -300667,-6708995 -300667,-6708997 -300667,-6709000 -300690,-6709017 -300712,-6709028 -300723,-6709038 -300733,-6709047 -300743,-6709063 -300746,-6709067 -300754,-6709075 -300777,-6709093 -300783,-6709097 -300802,-6709104 -300856,-6709139 -300932,-6709182 -300941,-6709184 -300952,-6709183 -300960,-6709180 -300977,-6709166 -300982,-6709166 -300986,-6709167 -300989,-6709170 -300992,-6709173 -300994,-6709179 -300984,-6709204 -301018,-6709215 -301025,-6709216 -301038,-6709215 -301052,-6709217 -301056,-6709220 -301057,-6709224 -301067,-6709234 -301083,-6709238 -301085,-6709229 -301092,-6709200 -301097,-6709196 -301106,-6709192 -301114,-6709192 -301122,-6709192 -301127,-6709194 -301130,-6709195 -301139,-6709202 -301156,-6709226 -301164,-6709238 -301171,-6709246 -301185,-6709253 -301211,-6709280 -301225,-6709291 -301259,-6709299 -301271,-6709311 -301307,-6709321 -301319,-6709322 -301338,-6709327 -301359,-6709336 -301483,-6709382 -301514,-6709396 -301605,-6709442 -301644,-6709460 -301662,-6709470 -301751,-6709527 -301777,-6709547 -301812,-6709579 -301823,-6709593 -301837,-6709605 -301851,-6709596 -301854,-6709595 -301857,-6709595 -301861,-6709596 -301865,-6709599 -301867,-6709600 -301867,-6709605 -301858,-6709621 -301858,-6709623 -301858,-6709627 -301861,-6709635 -301909,-6709698 -301923,-6709715 -301932,-6709725 -301944,-6709746 -301987,-6709801 -302004,-6709819 -302114,-6709899 -302124,-6709908 -302142,-6709930 -302174,-6709945 -302220,-6709976 -302255,-6710013 -302307,-6710056 -302338,-6710082 -302358,-6710107 -302369,-6710124 -302381,-6710140 -302399,-6710156 -302423,-6710173 -302432,-6710181 -302446,-6710195 -302462,-6710217 -302518,-6710277 -302509,-6710281 -302397,-6710327 -302416,-6710351 -302432,-6710355 -302450,-6710375 -302461,-6710380 -302506,-6710422 -302528,-6710436 -302564,-6710455 -302586,-6710464 -302596,-6710466 -302631,-6710468 -302669,-6710468 -302712,-6710461 -302768,-6710448 -302912,-6710500 -302937,-6710506 -302954,-6710510 -302982,-6710514 -303040,-6710512 -303062,-6710512 -303122,-6710498 -303145,-6710494 -303160,-6710490 -303179,-6710484 -303189,-6710480 -303258,-6710446 -303428,-6710348 -303468,-6710325 -303503,-6710307 -303511,-6710311 -303515,-6710312 -303520,-6710312 -303526,-6710311 -303530,-6710310 -303536,-6710306 -303539,-6710301 -303539,-6710296 -303536,-6710285 -303537,-6710279 -303557,-6710248 -303566,-6710228 -303616,-6710158 -303645,-6710179 -303713,-6710232 -303792,-6710314 -303876,-6710419 -303951,-6710518 -303956,-6710531 -303960,-6710541 -303961,-6710551 -303961,-6710561 -303960,-6710573 -303958,-6710583 -303954,-6710593 -303948,-6710600 -303943,-6710606 -303942,-6710607 -303935,-6710613 -303924,-6710619 -303769,-6710676 -303766,-6710678 -303763,-6710682 -303762,-6710686 -303761,-6710692 -303764,-6710697 -303769,-6710699 -303775,-6710698 -303778,-6710695 -303941,-6710635 -303954,-6710629 -303960,-6710624 -303969,-6710614 -303976,-6710600 -303980,-6710594 -303984,-6710582 -303986,-6710575 -303987,-6710558 -303986,-6710547 -303981,-6710525 -303974,-6710510 -303970,-6710503 -303918,-6710437 -303869,-6710374 -303810,-6710301 -303779,-6710266 -303763,-6710250 -303745,-6710233 -303726,-6710217 -303562,-6710089 -303570,-6710057 -303600,-6710037 -303634,-6710060 -303637,-6710062 -303645,-6710063 -303666,-6710062 -303671,-6710059 -303673,-6710055 -303672,-6710050 -303670,-6710048 -303667,-6710047 -303665,-6710046 -303653,-6710046 -303641,-6710032 -303609,-6710006 -303608,-6709995 -303595,-6709994 -303594,-6709969 -303604,-6709933 -303611,-6709925 -303624,-6709888 -303646,-6709847 -303669,-6709820 -303689,-6709796 -303721,-6709771 -303735,-6709765 -303743,-6709764 -303754,-6709763 -303760,-6709764 -303764,-6709766 -303769,-6709766 -303773,-6709763 -303774,-6709760 -303774,-6709756 -303780,-6709742 -303789,-6709739 -303816,-6709723 -303831,-6709725 -303833,-6709724 -303901,-6709682 -303911,-6709676 -303917,-6709672 -303929,-6709658 -303936,-6709648 -303942,-6709638 -303951,-6709619 -303956,-6709603 -303958,-6709599 -303964,-6709591 -304002,-6709574 -304032,-6709558 -304048,-6709548 -304076,-6709529 -304089,-6709518 -304155,-6709461 -304187,-6709425 -304213,-6709392 -304239,-6709353 -304264,-6709315 -304294,-6709265 -304324,-6709221 -304326,-6709209 -304334,-6709190 -304333,-6709186 -304331,-6709182 -304327,-6709179 -304323,-6709178 -304317,-6709179 -304305,-6709177 -304275,-6709181 -304265,-6709180 -304258,-6709176 -304298,-6709164 -304314,-6709163 -304332,-6709166 -304338,-6709169 -304342,-6709173 -304346,-6709178 -304348,-6709183 -304348,-6709188 -304348,-6709193 -304339,-6709212 -304389,-6709202 -304397,-6709201 -304426,-6709201 -304498,-6709207 -304502,-6709207 -304505,-6709205 -304508,-6709202 -304510,-6709198 -304511,-6709194 -304511,-6709190 -304508,-6709183 -304494,-6709139 -304474,-6709094 -304467,-6709083 -304466,-6709078 -304464,-6709069 -304464,-6709061 -304468,-6709049 -304473,-6709039 -304512,-6708997 -304519,-6708983 -304523,-6708974 -304524,-6708964 -304522,-6708953 -304518,-6708944 -304494,-6708912 -304490,-6708907 -304478,-6708897 -304467,-6708888 -304458,-6708883 -304447,-6708878 -304435,-6708873 -304423,-6708870 -304415,-6708869 -304407,-6708869 -304398,-6708872 -304391,-6708875 -304349,-6708904 -304333,-6708910 -304323,-6708912 -304310,-6708912 -304262,-6708902 -304242,-6708901 -304215,-6708904 -304201,-6708900 -304187,-6708925 -304160,-6708951 -304108,-6708977 -304081,-6708987 -304074,-6708990 -304073,-6708990 -304035,-6708952 -304038,-6708945 -304042,-6708942 -304047,-6708942 -304054,-6708944 -304072,-6708960 -304077,-6708963 -304084,-6708965 -304089,-6708965 -304093,-6708964 -304131,-6708947 -304154,-6708932 -304182,-6708901 -304183,-6708885 -304185,-6708879 -304190,-6708875 -304193,-6708875 -304196,-6708875 -304199,-6708876 -304203,-6708882 -304207,-6708884 -304213,-6708886 -304280,-6708882 -304301,-6708891 -304310,-6708892 -304316,-6708891 -304325,-6708887 -304360,-6708860 -304370,-6708854 -304380,-6708849 -304388,-6708847 -304396,-6708845 -304407,-6708844 -304421,-6708845 -304433,-6708846 -304451,-6708851 -304459,-6708854 -304472,-6708861 -304485,-6708868 -304531,-6708905 -304546,-6708920 -304553,-6708930 -304563,-6708943 -304566,-6708949 -304568,-6708957 -304568,-6708967 -304567,-6708975 -304564,-6708981 -304529,-6709052 -304527,-6709060 -304527,-6709066 -304531,-6709075 -304576,-6709142 -304579,-6709144 -304584,-6709145 -304609,-6709139 -304619,-6709136 -304632,-6709129 -304645,-6709121 -304650,-6709117 -304666,-6709098 -304669,-6709097 -304671,-6709100 -304670,-6709102 -304657,-6709135 -304656,-6709142 -304657,-6709145 -304663,-6709147 -304698,-6709149 -304712,-6709148 -304731,-6709144 -304756,-6709139 -304776,-6709134 -304784,-6709131 -304823,-6709115 -304869,-6709099 -304924,-6709088 -304976,-6709080 -305058,-6709052 -305117,-6709029 -305170,-6709003 -305188,-6708998 -305198,-6708996 -305204,-6708997 -305238,-6709006 -305247,-6709007 -305254,-6709006 -305301,-6708992 -305314,-6708990 -305457,-6708979 -305571,-6708974 -305626,-6708968 -305846,-6708940 -305966,-6708931 -306023,-6708931 -306095,-6708934 -306169,-6708947 -306266,-6708959 -306322,-6708969 -306368,-6708979 -306400,-6708989 -306417,-6708990 -306419,-6708989 -306423,-6708985 -306425,-6708980 -306426,-6708977 -306421,-6708949 -306415,-6708903 -306414,-6708838 -306415,-6708833 -306420,-6708825 -306452,-6708791 -306465,-6708785 -306470,-6708784 -306483,-6708784 -306508,-6708789 -306534,-6708815 -306549,-6708829 -306564,-6708840 -306591,-6708857 -306614,-6708866 -306629,-6708868 -306650,-6708869 -306719,-6708864 -306780,-6708849 -306802,-6708859 -306853,-6708899 -306872,-6708880 -306890,-6708885 -306894,-6708896 -306896,-6708901 -306878,-6708922 -306892,-6708934 -306757,-6709105 -306778,-6709109 -306840,-6709121 -306843,-6709127 -306854,-6709130 -306856,-6709132 -306874,-6709154 -306897,-6709170 -306917,-6709189 -306922,-6709200 -306923,-6709205 -306923,-6709221 -306926,-6709236 -306928,-6709241 -306932,-6709247 -306938,-6709252 -306969,-6709272 -306985,-6709283 -307011,-6709307 -307080,-6709349 -307088,-6709352 -307094,-6709352 -307102,-6709350 -307108,-6709345 -307109,-6709342 -307111,-6709332 -307114,-6709326 -307124,-6709321 -307131,-6709318 -307138,-6709317 -307246,-6709322 -307269,-6709322 -307280,-6709325 -307294,-6709335 -307298,-6709338 -307301,-6709347 -307303,-6709350 -307305,-6709352 -307308,-6709353 -307310,-6709353 -307337,-6709347 -307348,-6709346 -307354,-6709346 -307360,-6709346 -307371,-6709350 -307391,-6709360 -307401,-6709362 -307409,-6709361 -307425,-6709355 -307432,-6709354 -307446,-6709356 -307453,-6709355 -307460,-6709354 -307468,-6709352 -307477,-6709347 -307483,-6709343 -307491,-6709332 -307528,-6709318 -307545,-6709314 -307576,-6709310 -307636,-6709309 -307760,-6709313 -307767,-6709312 -307775,-6709310 -307786,-6709306 -307801,-6709297 -307807,-6709296 -307817,-6709298 -307860,-6709301 -307871,-6709301 -307882,-6709300 -307894,-6709297 -307904,-6709294 -307922,-6709285 -307927,-6709284 -307956,-6709283 -307977,-6709277 -307985,-6709276 -307999,-6709276 -308012,-6709277 -308069,-6709284 -308079,-6709287 -308094,-6709289 -308109,-6709289 -308132,-6709284 -308156,-6709284 -308217,-6709290 -308260,-6709291 -308330,-6709283 -308406,-6709283 -308474,-6709286 -308508,-6709289 -308532,-6709289 -308557,-6709289 -308654,-6709284 -308688,-6709278 -308730,-6709267 -308736,-6709266 -308749,-6709265 -308752,-6709264 -308753,-6709262 -308756,-6709256 -308759,-6709247 -308757,-6709231 -308859,-6709228 -308877,-6709205 -308896,-6709184 -308981,-6709135 -309019,-6709112 -309101,-6709072 -309156,-6709043 -309219,-6708997 -309331,-6708935 -309437,-6708875 -309580,-6708779 -309770,-6708637 -309844,-6708587 -309915,-6708548 -309928,-6708538 -309938,-6708534 -309955,-6708529 -309985,-6708520 -310034,-6708462 -310055,-6708441 -310086,-6708415 -310170,-6708352 -310246,-6708296 -310325,-6708245 -310403,-6708194 -310537,-6708113 -310647,-6708051 -310706,-6708025 -310743,-6708010 -310843,-6707973 -310932,-6707945 -310973,-6707938 -310995,-6707931 -311014,-6707925 -311032,-6707920 -311051,-6707917 -311061,-6707915 -311117,-6707914 -311144,-6707909 -311165,-6707906 -311189,-6707899 -311192,-6707899 -311195,-6707900 -311197,-6707903 -311204,-6707913 -311208,-6707916 -311212,-6707918 -311214,-6707918 -311253,-6707910 -311254,-6707909 -311264,-6707896 -311266,-6707895 -311280,-6707894 -311284,-6707892 -311311,-6707878 -311357,-6707872 -311430,-6707859 -311448,-6707854 -311453,-6707852 -311486,-6707826 -311534,-6707804 -311568,-6707791 -311586,-6707785 -311649,-6707770 -311694,-6707750 -311729,-6707741 -311737,-6707736 -311753,-6707721 -311757,-6707719 -311767,-6707716 -311810,-6707705 -311826,-6707700 -311836,-6707694 -311859,-6707678 -311885,-6707664 -311898,-6707654 -311922,-6707629 -311958,-6707588 -311979,-6707568 -311990,-6707559 -312010,-6707547 -312031,-6707536 -312042,-6707529 -312062,-6707515 -312081,-6707500 -312084,-6707495 -312088,-6707485 -312093,-6707476 -312113,-6707462 -312134,-6707435 -312147,-6707424 -312176,-6707406 -312180,-6707402 -312188,-6707392 -312200,-6707369 -312205,-6707360 -312210,-6707354 -312217,-6707348 -312229,-6707340 -312254,-6707329 -312258,-6707326 -312268,-6707318 -312275,-6707307 -312290,-6707293 -312323,-6707264 -312365,-6707231 -312381,-6707215 -312388,-6707205 -312390,-6707199 -312391,-6707194 -312391,-6707183 -312392,-6707177 -312396,-6707170 -312400,-6707165 -312404,-6707162 -312419,-6707156 -312423,-6707153 -312430,-6707146 -312474,-6707083 -312484,-6707075 -312495,-6707067 -312512,-6707053 -312542,-6707024 -312562,-6707010 -312594,-6706990 -312601,-6706983 -312624,-6706955 -312642,-6706928 -312652,-6706916 -312662,-6706903 -312691,-6706871 -312692,-6706870 -312694,-6706847 -312698,-6706829 -312699,-6706823 -312701,-6706820 -312706,-6706818 -312716,-6706817 -312721,-6706815 -312726,-6706813 -312732,-6706806 -312737,-6706794 -312747,-6706781 -312761,-6706767 -312779,-6706753 -312807,-6706729 -312826,-6706700 -312832,-6706693 -312838,-6706687 -312865,-6706663 -312885,-6706641 -312905,-6706619 -312917,-6706602 -312928,-6706578 -312935,-6706558 -312937,-6706545 -312938,-6706531 -312937,-6706480 -312934,-6706469 -312928,-6706460 -312924,-6706457 -312919,-6706454 -312912,-6706453 -312890,-6706450 -312866,-6706445 -312859,-6706441 -312856,-6706438 -312855,-6706435 -312855,-6706430 -312857,-6706424 -312859,-6706420 -312862,-6706418 -312871,-6706413 -312893,-6706382 -312900,-6706370 -312906,-6706345 -312909,-6706324 -312910,-6706322 -312915,-6706317 -312923,-6706315 -312927,-6706314 -312947,-6706317 -312955,-6706318 -312974,-6706316 -313006,-6706305 -313028,-6706305 -313065,-6706310 -313075,-6706310 -313084,-6706309 -313090,-6706308 -313096,-6706305 -313108,-6706297 -313172,-6706231 -313182,-6706225 -313209,-6706210 -313221,-6706201 -313238,-6706183 -313251,-6706162 -313300,-6706059 -313304,-6706055 -313322,-6706041 -313338,-6706012 -313358,-6705982 -313376,-6705967 -313411,-6705944 -313430,-6705930 -313467,-6705890 -313500,-6705843 -313532,-6705809 -313536,-6705805 -313538,-6705802 -313540,-6705796 -313537,-6705770 -313538,-6705760 -313542,-6705752 -313562,-6705730 -313575,-6705698 -313578,-6705693 -313582,-6705688 -313590,-6705682 -313599,-6705677 -313626,-6705666 -313641,-6705654 -313683,-6705608 -313699,-6705595 -313709,-6705583 -313723,-6705543 -313734,-6705506 -313738,-6705499 -313742,-6705492 -313749,-6705486 -313757,-6705480 -313772,-6705470 -313798,-6705448 -313800,-6705447 -313808,-6705439 -313813,-6705431 -313819,-6705420 -313823,-6705408 -313827,-6705392 -313827,-6705387 -313823,-6705369 -313824,-6705364 -313825,-6705360 -313828,-6705355 -313834,-6705349 -313841,-6705344 -313861,-6705334 -313869,-6705328 -313875,-6705322 -313876,-6705318 -313875,-6705314 -313872,-6705311 -313865,-6705306 -313862,-6705303 -313859,-6705297 -313858,-6705292 -313860,-6705287 -313865,-6705279 -313872,-6705271 -313894,-6705250 -313897,-6705246 -313900,-6705241 -313901,-6705234 -313900,-6705230 -313898,-6705226 -313894,-6705223 -313884,-6705219 -313873,-6705208 -313871,-6705207 -313852,-6705203 -313844,-6705198 -313841,-6705194 -313840,-6705190 -313841,-6705186 -313842,-6705183 -313848,-6705177 -313851,-6705175 -313856,-6705174 -313867,-6705175 -313895,-6705168 -313912,-6705164 -313920,-6705162 -313927,-6705158 -313938,-6705150 -313949,-6705138 -313953,-6705131 -313956,-6705124 -313958,-6705112 -313958,-6705108 -313954,-6705096 -313954,-6705087 -313957,-6705075 -313970,-6705050 -314029,-6704964 -314095,-6704868 -314114,-6704851 -314131,-6704833 -314176,-6704779 -314201,-6704745 -314264,-6704675 -314305,-6704634 -314348,-6704588 -314424,-6704520 -314471,-6704480 -314485,-6704468 -314516,-6704446 -314556,-6704409 -314586,-6704384 -314693,-6704311 -314720,-6704294 -314782,-6704262 -314809,-6704250 -314870,-6704228 -314886,-6704221 -314997,-6704163 -315022,-6704134 -315055,-6704109 -315131,-6704053 -315157,-6704033 -315283,-6703933 -315343,-6703882 -315372,-6703862 -315439,-6703814 -315564,-6703713 -315619,-6703671 -315733,-6703588 -315811,-6703533 -315825,-6703522 -315880,-6703472 -315892,-6703459 -315922,-6703420 -315991,-6703346 -316021,-6703301 -316032,-6703286 -316051,-6703263 -316068,-6703244 -316101,-6703216 -316134,-6703181 -316150,-6703165 -316190,-6703132 -316225,-6703100 -316235,-6703089 -316262,-6703059 -316307,-6703023 -316324,-6703011 -316337,-6702998 -316346,-6702991 -316363,-6702980 -316382,-6702958 -316388,-6702953 -316401,-6702943 -316441,-6702916 -316481,-6702887 -316542,-6702847 -316600,-6702802 -316635,-6702769 -316692,-6702700 -316722,-6702670 -316764,-6702634 -316800,-6702606 -316828,-6702588 -316848,-6702577 -316888,-6702556 -316912,-6702542 -316927,-6702529 -316956,-6702496 -316961,-6702492 -317042,-6702442 -317050,-6702435 -317063,-6702423 -317094,-6702384 -317222,-6702280 -317243,-6702257 -317253,-6702250 -317297,-6702228 -317313,-6702212 -317370,-6702154 -317379,-6702144 -317388,-6702132 -317405,-6702106 -317426,-6702078 -317439,-6702055 -317458,-6702016 -317467,-6702001 -317472,-6701993 -317488,-6701972 -317577,-6701883 -317612,-6701842 -317617,-6701835 -317624,-6701821 -317630,-6701806 -317633,-6701791 -317634,-6701780 -317633,-6701767 -317626,-6701751 -317623,-6701743 -317621,-6701732 -317620,-6701721 -317621,-6701714 -317624,-6701688 -317627,-6701676 -317632,-6701663 -317634,-6701657 -317691,-6701558 -317736,-6701475 -317788,-6701385 -317804,-6701353 -317810,-6701344 -317835,-6701315 -317852,-6701290 -317887,-6701243 -317897,-6701231 -317902,-6701225 -317923,-6701202 -317952,-6701174 -318008,-6701125 -318049,-6701099 -318071,-6701061 -318084,-6701047 -318102,-6701017 -318110,-6701007 -318152,-6700964 -318155,-6700959 -318161,-6700945 -318205,-6700868 -318218,-6700847 -318229,-6700823 -318235,-6700814 -318243,-6700804 -318269,-6700780 -318306,-6700734 -318327,-6700692 -318341,-6700657 -318345,-6700645 -318369,-6700611 -318393,-6700574 -318424,-6700524 -318484,-6700432 -318492,-6700419 -318507,-6700388 -318534,-6700405 -318612,-6700447 -318640,-6700458 -318658,-6700463 -318700,-6700471 -318754,-6700477 -318782,-6700476 -318809,-6700473 -318837,-6700468 -318862,-6700461 -318881,-6700455 -318901,-6700450 -318922,-6700442 -318938,-6700432 -319024,-6700373 -319032,-6700367 -319039,-6700360 -319054,-6700340 -319074,-6700308 -319099,-6700271 -319109,-6700253 -319120,-6700225 -319125,-6700207 -319138,-6700138 -319143,-6700099 -319143,-6700080 -319140,-6700036 -319135,-6700005 -319126,-6699975 -319120,-6699958 -319105,-6699924 -319091,-6699897 -319078,-6699876 -319065,-6699856 -319051,-6699838 -319034,-6699820 -319010,-6699798 -318937,-6699748 -319049,-6699618 -319072,-6699589 -319101,-6699553 -319153,-6699490 -319221,-6699398 -319238,-6699381 -319268,-6699353 -319280,-6699341 -319302,-6699311 -319362,-6699248 -319390,-6699220 -319438,-6699169 -319475,-6699124 -319503,-6699092 -319544,-6699048 -319577,-6698997 -319646,-6698916 -319671,-6698895 -319719,-6698832 -319808,-6698727 -319852,-6698685 -319875,-6698661 -319936,-6698610 -319974,-6698580 -320119,-6698447 -320176,-6698399 -320193,-6698387 -320212,-6698375 -320255,-6698354 -320279,-6698340 -320291,-6698331 -320327,-6698300 -320349,-6698284 -320377,-6698259 -320410,-6698236 -320435,-6698220 -320454,-6698206 -320460,-6698198 -320475,-6698178 -320483,-6698170 -320490,-6698164 -320527,-6698136 -320543,-6698121 -320614,-6698050 -320643,-6698020 -320724,-6697944 -320759,-6697918 -320799,-6697888 -320808,-6697881 -320810,-6697880 -320839,-6697864 -320884,-6697835 -320906,-6697817 -320928,-6697797 -320987,-6697740 -321010,-6697715 -321026,-6697702 -321042,-6697691 -321060,-6697679 -321079,-6697670 -321093,-6697665 -321100,-6697663 -321111,-6697662 -321124,-6697661 -321131,-6697662 -321140,-6697664 -321165,-6697671 -321178,-6697673 -321195,-6697671 -321203,-6697669 -321211,-6697666 -321226,-6697659 -321295,-6697618 -321354,-6697575 -321375,-6697549 -321397,-6697514 -321439,-6697467 -321451,-6697452 -321469,-6697422 -321481,-6697395 -321487,-6697378 -321491,-6697366 -321493,-6697355 -321493,-6697330 -321535,-6697303 -322152,-6696924 -322539,-6696690 -323066,-6696360 -323571,-6696055 -325084,-6695121 -325824,-6694667 -326173,-6694450 -326828,-6694046 -327427,-6693658 -328494,-6692977 -330810,-6691518 -331835,-6690871 -333174,-6690025 -334762,-6689019 -335215,-6688737 -335218,-6688731 -335221,-6688725 -335770,-6688375 -336347,-6688008 -337257,-6687436 -338191,-6686850 -340153,-6685613 -341499,-6684760 -342038,-6684417 -342687,-6684004 -344277,-6682993 -345918,-6681947 -345918,-6681946 -346071,-6682734 -346533,-6685124 -346561,-6685264 -346838,-6686694 -346896,-6686991 -347059,-6687825 -347074,-6687912 -347069,-6687916 -346984,-6687979 -346157,-6688572 -345790,-6688836 -345341,-6689161 -344940,-6689446 -344794,-6689552 -344326,-6689890 -343172,-6690717 -342789,-6690990 -341526,-6691890 -340043,-6692945 -334867,-6696627 -334722,-6696760 -326934,-6702354 -325044,-6703710 -323345,-6704940 -323204,-6705033 -322236,-6705722 -320893,-6706674 -320237,-6707138 -319016,-6707996 -318990,-6708015 -318586,-6708312 -318459,-6708405 -317797,-6708891 -316842,-6709567 -315832,-6710281 -315533,-6710496 -313793,-6711749 -312145,-6712943 -311908,-6713112 -311474,-6713426 -311035,-6713736 -311000,-6713761 -310942,-6713801 -310702,-6713969 -310355,-6714228 -310094,-6714411 -309934,-6714529 -309764,-6714644 -309751,-6714654 -309627,-6714741 -309544,-6714737 -309532,-6714736 -309455,-6714731 -308920,-6714698 -308875,-6714697 -308695,-6714691 -308349,-6714673 -308089,-6714658 -307844,-6714644 -307385,-6714622 -306875,-6714593 -306360,-6714565 -305876,-6714538 -305045,-6714495 -304160,-6714448 -303946,-6714436 -303113,-6714389 -303020,-6714383 -302925,-6714379 -302635,-6714367 -301411,-6714303 -300743,-6714273 -300029,-6714235 -299993,-6714304 -299986,-6714322 -299980,-6714334 -299974,-6714343 -299960,-6714360 -299971,-6714368 -299970,-6714370 -299968,-6714373 -299947,-6714374 -299941,-6714381 -299936,-6714388 -299937,-6714393 -299942,-6714401 -299939,-6714405 -299936,-6714408 -299927,-6714403 -299889,-6714465 -299849,-6714522 -299772,-6714612 -299760,-6714625 -299754,-6714632 -299729,-6714678 -299562,-6714946 -299224,-6715481 -299217,-6715486 -299212,-6715487 -299203,-6715486 -299187,-6715477 -299180,-6715471 -299175,-6715468 -299158,-6715463 -299151,-6715462 -299140,-6715465 -299123,-6715475 -299121,-6715477 -299119,-6715480 -299119,-6715485 -299125,-6715499 -299126,-6715505 -299125,-6715508 -299119,-6715520 -299117,-6715526 -299120,-6715534 -299131,-6715550 -299133,-6715560 -299132,-6715569 -299131,-6715576 -299128,-6715581 -299126,-6715583 -299118,-6715587 -299114,-6715590 -299110,-6715596 -299101,-6715598 -299105,-6715619 -299104,-6715627 -299100,-6715645 -299090,-6715670 -299058,-6715738 -299040,-6715782 -299031,-6715809 -299031,-6715825 -299029,-6715834 -299024,-6715844 -298991,-6715889 -298988,-6715896 -298983,-6715911 -298985,-6715916 -298988,-6715925 -298988,-6715928 -298987,-6715932 -298983,-6715934 -298974,-6715935 -298966,-6715956 -298959,-6715958 -298958,-6715959 -298956,-6715965 -298957,-6715967 -298956,-6715971 -298954,-6715972 -298952,-6715973 -298945,-6715973 -298939,-6715975 -298935,-6715978 -298934,-6715980 -298933,-6715984 -298926,-6715996 -298920,-6715997 -298908,-6716022 -298906,-6716025 -298903,-6716027 -298899,-6716028 -298894,-6716029 -298897,-6716037 -298896,-6716042 -298894,-6716047 -298885,-6716064 -298879,-6716070 -298873,-6716071 -298870,-6716073 -298869,-6716075 -298869,-6716086 -298869,-6716089 -298866,-6716093 -298864,-6716095 -298857,-6716097 -298857,-6716102 -298861,-6716108 -298861,-6716112 -298859,-6716115 -298854,-6716117 -298835,-6716136 -298834,-6716141 -298834,-6716145 -298836,-6716149 -298842,-6716153 -298840,-6716161 -298831,-6716162 -298796,-6716206 -298795,-6716208 -298795,-6716212 -298796,-6716215 -298803,-6716222 -298793,-6716225 -298787,-6716224 -298782,-6716228 -298778,-6716235 -298778,-6716246 -298771,-6716249 -298769,-6716252 -298769,-6716257 -298768,-6716259 -298744,-6716291 -298745,-6716299 -298739,-6716303 -298728,-6716313 -298721,-6716330 -298716,-6716337 -298715,-6716340 -298715,-6716344 -298716,-6716352 -298709,-6716357 -298704,-6716367 -298689,-6716384 -298682,-6716390 -298679,-6716400 -298677,-6716418 -298662,-6716433 -298662,-6716435 -298663,-6716438 -298665,-6716441 -298669,-6716443 -298674,-6716450 -298669,-6716460 -298667,-6716461 -298660,-6716461 -298650,-6716460 -298647,-6716461 -298644,-6716463 -298640,-6716470 -298629,-6716486 -298626,-6716491 -298625,-6716509 -298625,-6716514 -298584,-6716557 -298577,-6716559 -298576,-6716569 -298574,-6716574 -298572,-6716576 -298564,-6716580 -298561,-6716583 -298564,-6716590 -298565,-6716595 -298565,-6716601 -298563,-6716603 -298557,-6716601 -298540,-6716594 -298516,-6716590 -298478,-6716587 -298469,-6716583 -298460,-6716576 -298456,-6716571 -298452,-6716562 -298440,-6716549 -298440,-6716546 -298435,-6716541 -298429,-6716527 -298425,-6716521 -298412,-6716499 -298407,-6716494 -298401,-6716489 -298397,-6716487 -298384,-6716483 -298387,-6716501 -298395,-6716513 -298404,-6716528 -298407,-6716534 -298412,-6716549 -298416,-6716556 -298428,-6716571 -298432,-6716578 -298436,-6716583 -298441,-6716585 -298447,-6716586 -298451,-6716588 -298468,-6716601 -298474,-6716603 -298484,-6716603 -298507,-6716609 -298494,-6716620 -298491,-6716623 -298484,-6716646 -298484,-6716651 -298487,-6716661 -298486,-6716665 -298484,-6716667 -298477,-6716670 -298476,-6716673 -298476,-6716675 -298477,-6716678 -298487,-6716684 -298488,-6716688 -298489,-6716693 -298488,-6716698 -298484,-6716705 -298475,-6716718 -298461,-6716752 -298457,-6716759 -298450,-6716767 -298447,-6716767 -298445,-6716780 -298446,-6716783 -298447,-6716786 -298453,-6716793 -298453,-6716796 -298453,-6716797 -298451,-6716798 -298447,-6716797 -298438,-6716801 -298435,-6716805 -298422,-6716839 -298419,-6716842 -298417,-6716846 -298402,-6716856 -298402,-6716861 -298409,-6716870 -298409,-6716875 -298408,-6716877 -298407,-6716878 -298398,-6716877 -298395,-6716886 -298396,-6716888 -298396,-6716892 -298395,-6716894 -298387,-6716897 -298385,-6716900 -298381,-6716913 -298379,-6716918 -298365,-6716937 -298360,-6716949 -298354,-6716958 -298353,-6716961 -298352,-6716965 -298351,-6716975 -298347,-6716980 -298347,-6716982 -298342,-6716991 -298334,-6717001 -298327,-6717019 -298324,-6717024 -298319,-6717027 -298314,-6717029 -298314,-6717031 -298315,-6717036 -298314,-6717041 -298311,-6717045 -298306,-6717046 -298309,-6717056 -298296,-6717066 -298289,-6717069 -298288,-6717082 -298286,-6717090 -298282,-6717094 -298259,-6717116 -298253,-6717137 -298248,-6717147 -298239,-6717153 -298236,-6717158 -298235,-6717162 -298235,-6717167 -298229,-6717175 -298222,-6717180 -298219,-6717184 -298216,-6717192 -298215,-6717198 -298199,-6717213 -298197,-6717217 -298192,-6717228 -298186,-6717235 -298184,-6717240 -298183,-6717248 -298178,-6717258 -298174,-6717264 -298157,-6717281 -298148,-6717292 -298140,-6717309 -298138,-6717321 -298134,-6717332 -298130,-6717340 -298123,-6717349 -298114,-6717358 -298111,-6717362 -298109,-6717366 -298108,-6717375 -298099,-6717385 -298097,-6717391 -298096,-6717409 -298086,-6717414 -298083,-6717416 -298082,-6717424 -298066,-6717439 -298063,-6717442 -298061,-6717450 -298062,-6717461 -298064,-6717466 -298064,-6717468 -298062,-6717470 -298052,-6717469 -298051,-6717480 -298050,-6717484 -298047,-6717488 -298037,-6717497 -298035,-6717499 -298033,-6717507 -298018,-6717521 -298012,-6717533 -298011,-6717540 -298010,-6717550 -297983,-6717585 -297980,-6717592 -297980,-6717601 -297975,-6717607 -297976,-6717612 -297966,-6717625 -297957,-6717635 -297947,-6717649 -297937,-6717660 -297935,-6717665 -297934,-6717669 -297933,-6717674 -297934,-6717681 -297925,-6717695 -297921,-6717703 -297917,-6717720 -297904,-6717731 -297886,-6717758 -297882,-6717768 -297877,-6717775 -297866,-6717784 -297857,-6717815 -297841,-6717845 -297823,-6717875 -297815,-6717892 -297807,-6717900 -297800,-6717916 -297799,-6717923 -297794,-6717936 -297793,-6717939 -297769,-6717965 -297768,-6717977 -297765,-6717986 -297759,-6717993 -297752,-6717996 -297754,-6718003 -297746,-6718007 -297740,-6718026 -297735,-6718026 -297717,-6718050 -297715,-6718055 -297711,-6718071 -297709,-6718073 -297708,-6718075 -297700,-6718074 -297696,-6718079 -297693,-6718087 -297687,-6718096 -297684,-6718116 -297682,-6718119 -297670,-6718138 -297654,-6718158 -297647,-6718168 -297572,-6718083" stroke="#003087" stroke-width="103" /></svg>