<?xml version="1.0" standalone="no"?>
<!DOCTYPE svg PUBLIC "-//W3C//DTD SVG 1.1//EN"
"http://www.w3.org/Graphics/SVG/1.1/DTD/svg11.dtd">
<svg height="115" version="1.1" viewBox="-98779 -6835703 32899 41140" width="220" xmlns="http://www.w3.org/2000/svg"><polygon fill="#003087" points=" -75934,-6835616 -75834,-6835592 -75824,-6835603 -75785,-6835633 -75758,-6835648 -75731,-6835662 -75699,-6835668 -75682,-6835650 -75669,-6835635 -75627,-6835649 -75610,-6835659 -75581,-6835663 -75533,-6835665 -75498,-6835660 -75382,-6835624 -75373,-6835623 -75363,-6835622 -75316,-6835624 -75301,-6835624 -75249,-6835621 -75169,-6835607 -75151,-6835608 -75123,-6835615 -75082,-6835632 -75040,-6835630 -74995,-6835647 -74972,-6835653 -74965,-6835654 -74940,-6835649 -74855,-6835623 -74858,-6835604 -74845,-6835599 -74785,-6835580 -74561,-6835493 -74494,-6835473 -74448,-6835466 -74408,-6835463 -74376,-6835467 -74373,-6835445 -74363,-6835395 -74359,-6835369 -74356,-6835343 -74355,-6835292 -74347,-6835283 -74321,-6835261 -74300,-6835224 -74287,-6835205 -74275,-6835188 -74250,-6835158 -74207,-6835120 -74165,-6835088 -74146,-6835056 -74137,-6835049 -74128,-6835041 -74111,-6835031 -74073,-6835019 -74032,-6835011 -73998,-6835009 -73980,-6835013 -73970,-6835012 -73960,-6835010 -73941,-6835005 -73861,-6834963 -73817,-6834936 -73777,-6834909 -73741,-6834897 -73695,-6834897 -73663,-6834893 -73639,-6834886 -73616,-6834875 -73591,-6834858 -73521,-6834818 -73431,-6834764 -73396,-6834739 -73364,-6834707 -73345,-6834685 -73307,-6834627 -73289,-6834605 -73235,-6834555 -73210,-6834528 -73186,-6834512 -73111,-6834489 -73076,-6834485 -73032,-6834485 -72979,-6834480 -72959,-6834483 -72939,-6834489 -72895,-6834487 -72856,-6834499 -72801,-6834502 -72713,-6834511 -72673,-6834514 -72663,-6834515 -72622,-6834522 -72541,-6834523 -72490,-6834541 -72468,-6834546 -72451,-6834543 -72440,-6834538 -72276,-6834522 -72255,-6834520 -72224,-6834508 -72178,-6834484 -72161,-6834477 -72122,-6834465 -72071,-6834443 -72037,-6834427 -72029,-6834424 -71965,-6834423 -71898,-6834416 -71660,-6834373 -71612,-6834353 -71596,-6834343 -71581,-6834333 -71580,-6834332 -71543,-6834301 -71521,-6834276 -71519,-6834274 -71512,-6834266 -71481,-6834207 -71473,-6834194 -71464,-6834180 -71436,-6834144 -71355,-6834053 -71347,-6834045 -71339,-6834038 -71318,-6834022 -71295,-6834010 -71231,-6833981 -71184,-6833966 -71148,-6833951 -71151,-6833921 -71175,-6833795 -71190,-6833719 -71219,-6833555 -71227,-6833444 -71217,-6833409 -71189,-6833361 -71104,-6833351 -70932,-6833319 -70895,-6833281 -70886,-6833279 -70751,-6833243 -70705,-6833232 -70624,-6833220 -70625,-6833203 -70591,-6833192 -70500,-6833160 -70392,-6833127 -70366,-6833120 -70292,-6833102 -70178,-6833090 -70175,-6833073 -70163,-6833060 -70124,-6833063 -70060,-6833060 -70014,-6833050 -69979,-6833047 -69954,-6833037 -69921,-6833028 -69879,-6833024 -69878,-6833024 -69847,-6833018 -69962,-6832743 -70032,-6832578 -70033,-6832576 -70042,-6832559 -70046,-6832547 -70050,-6832535 -70054,-6832514 -70055,-6832503 -70054,-6832493 -70053,-6832481 -70050,-6832468 -70020,-6832389 -69993,-6832345 -69965,-6832312 -69947,-6832279 -69941,-6832241 -69945,-6832207 -69937,-6832157 -69929,-6832127 -69900,-6832100 -69890,-6832086 -69884,-6832076 -69881,-6832066 -69877,-6832045 -69877,-6832037 -69878,-6832026 -69883,-6832000 -69887,-6831958 -69886,-6831947 -69884,-6831938 -69873,-6831908 -69867,-6831887 -69866,-6831877 -69865,-6831862 -69869,-6831812 -69872,-6831783 -69889,-6831713 -69900,-6831613 -69916,-6831543 -69930,-6831460 -69932,-6831400 -69933,-6831392 -69936,-6831382 -69941,-6831373 -69946,-6831364 -69958,-6831352 -69985,-6831333 -69997,-6831326 -70011,-6831320 -70033,-6831313 -70061,-6831309 -70073,-6831308 -70136,-6831310 -70159,-6831307 -70174,-6831304 -70195,-6831298 -70211,-6831291 -70220,-6831287 -70229,-6831282 -70239,-6831274 -70261,-6831253 -70274,-6831236 -70280,-6831224 -70284,-6831213 -70288,-6831190 -70292,-6831183 -70298,-6831171 -70306,-6831159 -70317,-6831144 -70329,-6831130 -70339,-6831120 -70358,-6831105 -70384,-6831076 -70446,-6831005 -70494,-6830946 -70592,-6830777 -70656,-6830658 -70667,-6830630 -70672,-6830612 -70675,-6830597 -70677,-6830583 -70678,-6830562 -70677,-6830530 -70668,-6830497 -70635,-6830344 -70631,-6830300 -70603,-6830283 -70575,-6830272 -70557,-6830257 -70526,-6830224 -70511,-6830204 -70487,-6830170 -70453,-6830123 -70375,-6830000 -70353,-6829969 -70276,-6829843 -70254,-6829800 -70234,-6829752 -70221,-6829690 -70204,-6829625 -70180,-6829551 -70166,-6829521 -70146,-6829456 -70138,-6829411 -70140,-6829308 -70126,-6829182 -70108,-6829136 -70096,-6829110 -70092,-6829091 -70088,-6829071 -70087,-6829020 -70116,-6828840 -70129,-6828720 -70129,-6828682 -70128,-6828598 -70149,-6828487 -70174,-6828384 -70182,-6828368 -70187,-6828353 -70191,-6828339 -70193,-6828324 -70197,-6828290 -70198,-6828225 -70198,-6828222 -70202,-6828200 -70205,-6828186 -70210,-6828173 -70216,-6828163 -70223,-6828155 -70233,-6828148 -70248,-6828141 -70270,-6828125 -70310,-6828098 -70401,-6828042 -70492,-6827981 -70611,-6827924 -70733,-6827877 -70777,-6827864 -70822,-6827852 -70869,-6827844 -70917,-6827837 -71109,-6827822 -71326,-6827823 -71331,-6827795 -71327,-6827786 -71332,-6827730 -71310,-6827673 -71292,-6827639 -71272,-6827623 -71258,-6827624 -71243,-6827614 -71197,-6827550 -71169,-6827502 -71150,-6827465 -71131,-6827439 -71126,-6827415 -71118,-6827399 -71059,-6827281 -70995,-6827150 -70990,-6827139 -70968,-6827099 -70931,-6827033 -70897,-6826993 -70883,-6826978 -70829,-6826890 -70802,-6826841 -70801,-6826828 -70848,-6826771 -70875,-6826744 -70906,-6826711 -70916,-6826718 -70969,-6826666 -70992,-6826648 -70998,-6826641 -71003,-6826634 -71006,-6826624 -71013,-6826590 -71008,-6826536 -71003,-6826514 -70996,-6826494 -70946,-6826434 -70939,-6826425 -70934,-6826415 -70929,-6826404 -70913,-6826357 -70881,-6826247 -70842,-6826163 -70816,-6826133 -70784,-6826089 -70730,-6826011 -70634,-6825931 -70616,-6825912 -70626,-6825890 -70645,-6825859 -70653,-6825842 -70660,-6825825 -70670,-6825794 -70675,-6825760 -70679,-6825689 -70754,-6825697 -70739,-6825661 -70727,-6825619 -70731,-6825592 -70736,-6825552 -70743,-6825414 -70743,-6825389 -70741,-6825368 -70738,-6825343 -70734,-6825336 -70731,-6825333 -70724,-6825330 -70681,-6825333 -70664,-6825202 -70645,-6825111 -70610,-6825103 -70483,-6825076 -70467,-6825074 -70431,-6825071 -70348,-6825060 -70333,-6825061 -70328,-6825060 -70293,-6825049 -70161,-6825014 -70145,-6825008 -70114,-6824991 -70107,-6824987 -70075,-6824964 -70055,-6824950 -70020,-6824929 -70012,-6824923 -70006,-6824916 -69998,-6824901 -69994,-6824892 -69980,-6824844 -69970,-6824824 -69959,-6824808 -69941,-6824796 -69938,-6824792 -69919,-6824756 -69903,-6824742 -69894,-6824735 -69831,-6824694 -69822,-6824686 -69819,-6824681 -69813,-6824667 -69810,-6824653 -69812,-6824623 -69789,-6824616 -69745,-6824600 -69690,-6824559 -69634,-6824535 -69622,-6824531 -69596,-6824525 -69508,-6824518 -69476,-6824506 -69456,-6824497 -69422,-6824474 -69374,-6824454 -69362,-6824453 -69353,-6824451 -69339,-6824445 -69240,-6824378 -69219,-6824361 -69108,-6824311 -69074,-6824295 -68959,-6824228 -68938,-6824221 -68906,-6824214 -68861,-6824209 -68840,-6824211 -68822,-6824213 -68809,-6824214 -68781,-6824212 -68772,-6824213 -68754,-6824217 -68664,-6824257 -68628,-6824261 -68618,-6824264 -68589,-6824281 -68570,-6824290 -68550,-6824299 -68529,-6824306 -68497,-6824323 -68474,-6824342 -68429,-6824356 -68384,-6824355 -68381,-6824368 -68366,-6824372 -68358,-6824372 -68332,-6824370 -68323,-6824367 -68315,-6824365 -68303,-6824365 -68297,-6824365 -68287,-6824366 -68256,-6824368 -68190,-6824372 -68168,-6824372 -68106,-6824370 -68073,-6824366 -67974,-6824346 -67944,-6824343 -67914,-6824343 -67790,-6824360 -67648,-6824384 -67626,-6824388 -67598,-6824366 -67578,-6824344 -67570,-6824334 -67550,-6824304 -67539,-6824287 -67530,-6824271 -67509,-6824217 -67504,-6824206 -67497,-6824194 -67486,-6824178 -67473,-6824166 -67455,-6824153 -67409,-6824066 -67326,-6823911 -67317,-6823890 -67309,-6823866 -67305,-6823853 -67299,-6823826 -67287,-6823812 -67276,-6823792 -67283,-6823787 -67248,-6823723 -67238,-6823707 -67230,-6823695 -67128,-6823561 -67123,-6823556 -67027,-6823471 -67018,-6823441 -66991,-6823371 -66982,-6823349 -66963,-6823310 -66956,-6823294 -66951,-6823285 -66928,-6823258 -66907,-6823228 -66893,-6823206 -66857,-6823164 -66841,-6823140 -66800,-6823086 -66739,-6822998 -66715,-6822961 -66705,-6822945 -66692,-6822929 -66674,-6822899 -66670,-6822891 -66666,-6822878 -66661,-6822839 -66657,-6822810 -66649,-6822768 -66648,-6822761 -66649,-6822753 -66651,-6822738 -66655,-6822695 -66663,-6822658 -66664,-6822654 -66669,-6822600 -66671,-6822584 -66682,-6822517 -66681,-6822503 -66678,-6822494 -66639,-6822422 -66603,-6822364 -66569,-6822262 -66547,-6822205 -66525,-6822123 -66509,-6822051 -66506,-6822018 -66501,-6821990 -66489,-6821869 -66486,-6821851 -66482,-6821833 -66476,-6821815 -66468,-6821792 -66455,-6821747 -66452,-6821732 -66449,-6821711 -66448,-6821689 -66448,-6821678 -66453,-6821638 -66460,-6821627 -66465,-6821617 -66470,-6821603 -66480,-6821586 -66484,-6821579 -66482,-6821525 -66478,-6821485 -66479,-6821445 -66478,-6821430 -66475,-6821391 -66484,-6821388 -66540,-6821305 -66551,-6821283 -66557,-6821271 -66563,-6821254 -66568,-6821235 -66570,-6821220 -66571,-6821215 -66569,-6821183 -66560,-6821136 -66550,-6821056 -66499,-6820956 -66402,-6820815 -66336,-6820714 -66316,-6820687 -66303,-6820673 -66272,-6820642 -66252,-6820618 -66235,-6820602 -66232,-6820600 -66227,-6820595 -66209,-6820583 -66187,-6820560 -66131,-6820521 -66115,-6820509 -66084,-6820492 -66035,-6820469 -66029,-6820463 -66018,-6820449 -66013,-6820441 -65976,-6820365 -65945,-6820319 -65925,-6820275 -65891,-6820209 -65880,-6820164 -65957,-6820150 -65966,-6820148 -66006,-6820133 -66028,-6820132 -66040,-6820127 -66086,-6820083 -66115,-6820047 -66122,-6820040 -66134,-6820032 -66140,-6820029 -66145,-6820027 -66163,-6820024 -66179,-6820013 -66211,-6819995 -66219,-6819989 -66227,-6819983 -66238,-6819971 -66258,-6819953 -66305,-6819911 -66329,-6819884 -66379,-6819853 -66400,-6819841 -66413,-6819832 -66459,-6819790 -66472,-6819779 -66487,-6819757 -66501,-6819739 -66533,-6819694 -66583,-6819631 -66595,-6819611 -66601,-6819589 -66613,-6819555 -66634,-6819513 -66638,-6819484 -66638,-6819472 -66663,-6819444 -66668,-6819439 -66684,-6819426 -66719,-6819400 -66731,-6819394 -66754,-6819391 -66801,-6819364 -66820,-6819350 -66830,-6819340 -66860,-6819307 -66868,-6819296 -66874,-6819283 -66879,-6819273 -66890,-6819232 -66892,-6819214 -66893,-6819208 -66896,-6819203 -66899,-6819200 -66912,-6819190 -66940,-6819183 -67000,-6819138 -66889,-6819013 -66582,-6818690 -66430,-6818532 -66478,-6818484 -66491,-6818469 -66500,-6818462 -66526,-6818446 -66540,-6818436 -66554,-6818427 -66568,-6818419 -66580,-6818414 -66593,-6818410 -66670,-6818389 -66719,-6818384 -66760,-6818382 -66779,-6818378 -66820,-6818361 -66839,-6818350 -66864,-6818333 -66893,-6818341 -66973,-6818294 -67033,-6818263 -67058,-6818254 -67068,-6818254 -67074,-6818251 -67080,-6818244 -67111,-6818212 -67127,-6818194 -67153,-6818171 -67177,-6818146 -67188,-6818133 -67204,-6818112 -67232,-6818068 -67240,-6818040 -67255,-6817955 -67262,-6817882 -67261,-6817809 -67259,-6817787 -67259,-6817756 -67283,-6817760 -67287,-6817723 -67296,-6817685 -67270,-6817677 -67266,-6817675 -67263,-6817671 -67261,-6817667 -67260,-6817663 -67260,-6817658 -67263,-6817650 -67278,-6817633 -67279,-6817627 -67278,-6817617 -67275,-6817606 -67274,-6817589 -67277,-6817565 -67277,-6817549 -67276,-6817539 -67277,-6817533 -67278,-6817527 -67291,-6817503 -67291,-6817492 -67296,-6817470 -67320,-6817448 -67329,-6817444 -67333,-6817444 -67345,-6817445 -67385,-6817447 -67392,-6817446 -67415,-6817436 -67457,-6817408 -67483,-6817388 -67495,-6817375 -67527,-6817341 -67566,-6817296 -67601,-6817241 -67580,-6817193 -67549,-6817119 -67532,-6817084 -67502,-6817035 -67509,-6817028 -67510,-6817026 -67511,-6817014 -67510,-6817009 -67508,-6817003 -67475,-6816938 -67462,-6816909 -67453,-6816874 -67445,-6816830 -67435,-6816799 -67436,-6816798 -67488,-6816766 -67501,-6816759 -67537,-6816745 -67557,-6816735 -67582,-6816715 -67592,-6816708 -67630,-6816683 -67726,-6816621 -67736,-6816628 -67742,-6816632 -67760,-6816637 -67781,-6816636 -67802,-6816632 -67835,-6816614 -67846,-6816606 -67872,-6816603 -67908,-6816578 -67921,-6816572 -67932,-6816562 -67949,-6816542 -67987,-6816487 -67988,-6816484 -67984,-6816474 -67989,-6816470 -68012,-6816455 -68021,-6816451 -68026,-6816448 -68039,-6816434 -68045,-6816431 -68075,-6816421 -68134,-6816403 -68151,-6816402 -68158,-6816401 -68174,-6816395 -68193,-6816385 -68204,-6816388 -68239,-6816369 -68278,-6816355 -68295,-6816348 -68304,-6816344 -68338,-6816324 -68347,-6816317 -68356,-6816312 -68371,-6816306 -68384,-6816298 -68406,-6816280 -68442,-6816254 -68480,-6816224 -68492,-6816210 -68510,-6816194 -68551,-6816163 -68560,-6816155 -68585,-6816131 -68601,-6816119 -68615,-6816106 -68629,-6816092 -68680,-6816006 -68699,-6815972 -68717,-6815928 -68762,-6815838 -68768,-6815825 -68791,-6815778 -68842,-6815657 -68851,-6815633 -68860,-6815620 -68863,-6815617 -68874,-6815608 -68951,-6815571 -68989,-6815550 -69025,-6815519 -69079,-6815461 -69126,-6815407 -69146,-6815389 -69163,-6815379 -69184,-6815368 -69219,-6815343 -69236,-6815335 -69246,-6815329 -69274,-6815305 -69297,-6815293 -69316,-6815287 -69319,-6815297 -69329,-6815296 -69366,-6815291 -69394,-6815281 -69416,-6815296 -69458,-6815339 -69475,-6815352 -69485,-6815355 -69496,-6815369 -69497,-6815370 -69512,-6815374 -69604,-6815392 -69627,-6815398 -69665,-6815410 -69682,-6815381 -69688,-6815369 -69693,-6815362 -69699,-6815357 -69707,-6815353 -69719,-6815350 -69729,-6815329 -69752,-6815297 -69774,-6815268 -69832,-6815197 -69840,-6815185 -69859,-6815149 -69862,-6815139 -69865,-6815129 -69868,-6815110 -69870,-6815103 -69887,-6815069 -69891,-6815057 -69895,-6815046 -69897,-6815034 -69899,-6815030 -69905,-6815024 -69914,-6815013 -69924,-6814994 -69926,-6814991 -69981,-6814969 -70024,-6814954 -70045,-6814951 -70094,-6814924 -70163,-6814880 -70168,-6814877 -70188,-6814861 -70199,-6814849 -70207,-6814841 -70221,-6814830 -70241,-6814811 -70282,-6814780 -70292,-6814734 -70299,-6814718 -70304,-6814710 -70343,-6814662 -70392,-6814574 -70401,-6814557 -70434,-6814528 -70470,-6814501 -70479,-6814493 -70492,-6814479 -70532,-6814451 -70539,-6814444 -70550,-6814432 -70624,-6814363 -70651,-6814336 -70665,-6814325 -70697,-6814303 -70728,-6814274 -70745,-6814255 -70773,-6814218 -70782,-6814202 -70803,-6814168 -70809,-6814157 -70819,-6814127 -70831,-6814103 -70848,-6814075 -70865,-6814024 -70873,-6814007 -70897,-6813959 -70918,-6813912 -70939,-6813865 -70959,-6813814 -70961,-6813801 -70960,-6813795 -70946,-6813756 -70938,-6813707 -70940,-6813691 -70972,-6813616 -71000,-6813554 -71048,-6813445 -71064,-6813404 -71075,-6813379 -71081,-6813358 -71083,-6813348 -71083,-6813330 -71081,-6813267 -71084,-6813248 -71087,-6813238 -71095,-6813221 -71096,-6813214 -71097,-6813197 -71098,-6813179 -71096,-6813168 -71093,-6813160 -71089,-6813118 -71085,-6813106 -71087,-6813099 -71135,-6812998 -71152,-6812973 -71162,-6812943 -71181,-6812918 -71193,-6812900 -71245,-6812815 -71263,-6812735 -71270,-6812718 -71288,-6812688 -71309,-6812647 -71316,-6812638 -71342,-6812611 -71349,-6812597 -71363,-6812553 -71363,-6812547 -71363,-6812529 -71367,-6812511 -71370,-6812490 -71372,-6812483 -71389,-6812441 -71400,-6812413 -71412,-6812393 -71420,-6812379 -71425,-6812373 -71484,-6812315 -71517,-6812287 -71593,-6812227 -71618,-6812210 -71643,-6812195 -71656,-6812189 -71670,-6812184 -71684,-6812181 -71702,-6812178 -71739,-6812164 -71757,-6812161 -71791,-6812158 -71838,-6812136 -71897,-6812117 -71918,-6812112 -71933,-6812107 -71964,-6812092 -72004,-6812082 -72020,-6812080 -72036,-6812077 -72057,-6812070 -72094,-6812059 -72154,-6812037 -72171,-6812032 -72207,-6812004 -72214,-6811997 -72221,-6811990 -72235,-6811980 -72242,-6811973 -72246,-6811967 -72266,-6811934 -72278,-6811918 -72284,-6811913 -72297,-6811904 -72386,-6811816 -72462,-6811739 -72469,-6811731 -72482,-6811714 -72489,-6811701 -72498,-6811672 -72504,-6811659 -72511,-6811635 -72516,-6811628 -72520,-6811624 -72527,-6811618 -72569,-6811563 -72575,-6811555 -72580,-6811546 -72593,-6811517 -72599,-6811506 -72621,-6811476 -72677,-6811391 -72698,-6811354 -72738,-6811296 -72752,-6811248 -72764,-6811213 -72800,-6811139 -72803,-6811128 -72804,-6811117 -72814,-6811081 -72815,-6811064 -72823,-6811038 -72825,-6811028 -72829,-6810989 -72831,-6810950 -72833,-6810929 -72836,-6810910 -72840,-6810898 -72845,-6810890 -72856,-6810879 -72880,-6810848 -72898,-6810827 -72901,-6810823 -72913,-6810807 -72948,-6810767 -72997,-6810721 -73013,-6810727 -73063,-6810681 -73120,-6810620 -73108,-6810602 -73117,-6810591 -73247,-6810406 -73249,-6810403 -73253,-6810397 -73265,-6810407 -73277,-6810413 -73368,-6810435 -73374,-6810431 -73379,-6810425 -73433,-6810326 -73495,-6810194 -73511,-6810151 -73476,-6810137 -73514,-6810065 -73581,-6809928 -73583,-6809925 -73608,-6809887 -73609,-6809887 -73708,-6809958 -73730,-6809910 -73765,-6809836 -73809,-6809746 -73818,-6809722 -73827,-6809691 -73837,-6809648 -73837,-6809639 -73838,-6809633 -73841,-6809628 -73844,-6809625 -73846,-6809624 -73870,-6809630 -73890,-6809583 -73901,-6809560 -73910,-6809548 -73916,-6809542 -73924,-6809536 -73933,-6809530 -73940,-6809526 -73957,-6809521 -73997,-6809501 -74018,-6809492 -74084,-6809471 -74092,-6809466 -74103,-6809458 -74112,-6809454 -74138,-6809432 -74189,-6809378 -74198,-6809365 -74204,-6809357 -74235,-6809325 -74281,-6809278 -74321,-6809242 -74341,-6809215 -74365,-6809166 -74379,-6809140 -74381,-6809134 -74386,-6809117 -74425,-6809045 -74433,-6809026 -74447,-6808974 -74451,-6808967 -74470,-6808938 -74425,-6808911 -74375,-6808876 -73920,-6808569 -73660,-6808373 -73340,-6808134 -73292,-6808096 -73288,-6808093 -72281,-6807337 -71920,-6807069 -71881,-6807044 -71834,-6807009 -71681,-6806917 -71603,-6806877 -71584,-6806864 -71583,-6806863 -71586,-6806798 -71602,-6806703 -71605,-6806694 -71611,-6806684 -71625,-6806651 -71663,-6806578 -71675,-6806553 -71646,-6806470 -71642,-6806462 -71632,-6806442 -71613,-6806414 -71607,-6806395 -71608,-6806356 -71613,-6806287 -71614,-6806252 -71614,-6806235 -71610,-6806132 -71611,-6806108 -71618,-6806042 -71623,-6806014 -71633,-6805983 -71644,-6805960 -71653,-6805928 -71668,-6805908 -71675,-6805898 -71683,-6805880 -71748,-6805820 -71767,-6805806 -71775,-6805793 -71778,-6805785 -71780,-6805772 -71780,-6805771 -71742,-6805742 -71617,-6805667 -71591,-6805656 -71570,-6805644 -71540,-6805625 -71494,-6805604 -71507,-6805581 -71532,-6805543 -71596,-6805452 -71628,-6805396 -71614,-6805384 -71630,-6805345 -71658,-6805289 -71667,-6805270 -71677,-6805238 -71609,-6805222 -71588,-6805222 -71567,-6805219 -71546,-6805214 -71526,-6805205 -71596,-6804978 -71530,-6804956 -71579,-6804809 -71549,-6804795 -71367,-6804718 -71353,-6804713 -71337,-6804705 -71336,-6804704 -71410,-6804604 -71266,-6804479 -71266,-6804478 -71268,-6804474 -71275,-6804460 -71278,-6804451 -71280,-6804428 -71281,-6804404 -71284,-6804396 -71287,-6804393 -71345,-6804357 -71760,-6804098 -71783,-6804086 -71800,-6804100 -71806,-6804101 -71812,-6804101 -71818,-6804099 -71825,-6804093 -71836,-6804079 -71846,-6804069 -71874,-6804056 -71882,-6804054 -71887,-6804053 -71895,-6804047 -71899,-6804043 -71914,-6804016 -71921,-6803991 -71938,-6803970 -71943,-6803961 -71955,-6803928 -71973,-6803902 -71987,-6803875 -71995,-6803862 -72008,-6803802 -72010,-6803788 -72013,-6803775 -72022,-6803751 -72055,-6803653 -72061,-6803639 -72073,-6803614 -72079,-6803572 -72079,-6803565 -72081,-6803561 -72087,-6803558 -72210,-6803528 -72471,-6803468 -72459,-6803438 -72397,-6803228 -72397,-6803223 -72400,-6803218 -72427,-6803199 -72411,-6803178 -72406,-6803171 -72389,-6803138 -72337,-6803048 -72332,-6803036 -72328,-6803025 -72326,-6803013 -72321,-6802976 -72317,-6802961 -72307,-6802929 -72298,-6802903 -72289,-6802884 -72275,-6802854 -72259,-6802810 -72173,-6802875 -72172,-6802875 -72157,-6802863 -72126,-6802843 -71984,-6802736 -71957,-6802718 -71941,-6802706 -71916,-6802683 -71849,-6802624 -71824,-6802605 -71812,-6802593 -71790,-6802566 -71778,-6802547 -71740,-6802494 -71697,-6802429 -71745,-6802411 -71662,-6802143 -71631,-6802088 -71829,-6801995 -71840,-6801992 -71914,-6801983 -72000,-6801990 -72018,-6801982 -72032,-6801979 -72065,-6801980 -72292,-6801981 -72331,-6801945 -72388,-6801902 -72430,-6801874 -72441,-6801860 -72455,-6801838 -72464,-6801820 -72494,-6801764 -72503,-6801743 -72517,-6801720 -72528,-6801705 -72549,-6801683 -72550,-6801681 -72634,-6801601 -72739,-6801493 -72820,-6801414 -72909,-6801307 -72983,-6801210 -73006,-6801169 -73044,-6801119 -73057,-6801100 -73063,-6801084 -73071,-6801037 -73081,-6801014 -73071,-6801008 -73065,-6801003 -73058,-6800994 -73074,-6800911 -73088,-6800861 -73094,-6800845 -73108,-6800819 -73114,-6800807 -73130,-6800773 -73158,-6800723 -73176,-6800674 -73179,-6800667 -73187,-6800655 -73201,-6800641 -73213,-6800617 -73237,-6800579 -73271,-6800527 -73325,-6800452 -73332,-6800439 -73384,-6800221 -73402,-6800132 -73411,-6800120 -73419,-6800115 -73428,-6800111 -73436,-6800109 -73456,-6800106 -73515,-6800100 -73540,-6800093 -73560,-6800088 -73586,-6800084 -73658,-6800077 -73644,-6800025 -73587,-6799826 -73550,-6799707 -73519,-6799594 -73497,-6799527 -73490,-6799493 -73480,-6799432 -73482,-6799381 -73481,-6799366 -73476,-6799335 -73477,-6799292 -73479,-6799257 -73483,-6799215 -73484,-6799164 -73395,-6798867 -73396,-6798854 -73433,-6798784 -73443,-6798764 -73483,-6798653 -73485,-6798642 -73486,-6798632 -73485,-6798619 -73476,-6798574 -73488,-6798564 -73495,-6798557 -73500,-6798551 -73504,-6798543 -73515,-6798512 -73540,-6798462 -73380,-6798391 -73370,-6798385 -73364,-6798382 -73352,-6798371 -73314,-6798333 -73301,-6798322 -73273,-6798307 -73227,-6798286 -73224,-6798284 -73217,-6798278 -73207,-6798265 -73170,-6798199 -73150,-6798169 -73116,-6798113 -73060,-6798063 -72991,-6798011 -72966,-6797992 -72974,-6797929 -72974,-6797922 -72971,-6797901 -72965,-6797832 -72965,-6797820 -72967,-6797813 -72971,-6797802 -73011,-6797746 -73022,-6797727 -73017,-6797684 -73012,-6797667 -72993,-6797620 -72990,-6797611 -72989,-6797604 -72989,-6797593 -72996,-6797584 -72979,-6797549 -72953,-6797492 -72933,-6797459 -72929,-6797454 -72926,-6797450 -72925,-6797445 -72925,-6797440 -72928,-6797435 -72965,-6797393 -72988,-6797372 -73019,-6797347 -73044,-6797321 -73052,-6797309 -73057,-6797298 -73051,-6797289 -73023,-6797271 -73019,-6797266 -73017,-6797262 -73015,-6797258 -73011,-6797216 -73005,-6797206 -73003,-6797198 -73002,-6797191 -73002,-6797181 -73022,-6797097 -73029,-6797078 -73051,-6797043 -73056,-6797032 -73060,-6797023 -73064,-6797002 -73063,-6796964 -73061,-6796946 -73058,-6796929 -73052,-6796908 -73044,-6796876 -73032,-6796857 -73011,-6796834 -73001,-6796822 -72993,-6796809 -72961,-6796755 -72939,-6796710 -72911,-6796643 -72877,-6796603 -72867,-6796592 -72843,-6796572 -72800,-6796542 -72780,-6796523 -72772,-6796515 -72599,-6796238 -72549,-6796151 -72501,-6796079 -72466,-6796035 -72416,-6795978 -72396,-6795964 -72367,-6795933 -72307,-6795874 -72277,-6795848 -72254,-6795826 -72247,-6795811 -72226,-6795760 -72190,-6795646 -72175,-6795591 -72151,-6795522 -72148,-6795507 -72143,-6795498 -72138,-6795491 -72131,-6795485 -72100,-6795446 -72077,-6795412 -72058,-6795385 -72011,-6795339 -71994,-6795317 -71963,-6795265 -71951,-6795249 -71945,-6795239 -71939,-6795222 -71936,-6795209 -71918,-6795176 -71889,-6795129 -71876,-6795105 -72009,-6795024 -72025,-6795013 -72035,-6795009 -72045,-6795005 -72059,-6795002 -72069,-6794996 -72076,-6794989 -72088,-6794992 -72107,-6794980 -72117,-6794974 -72131,-6794969 -72146,-6794965 -72164,-6794962 -72186,-6794953 -72204,-6794948 -72213,-6794944 -72227,-6794937 -72233,-6794934 -72247,-6794931 -72298,-6794928 -72338,-6794923 -72341,-6794932 -72362,-6794921 -72381,-6794909 -72413,-6794881 -72434,-6794861 -72447,-6794844 -72459,-6794820 -72464,-6794812 -72469,-6794804 -72475,-6794800 -72479,-6794799 -72525,-6794800 -72567,-6794780 -72595,-6794769 -72606,-6794763 -72612,-6794759 -72623,-6794749 -72628,-6794744 -72663,-6794688 -72676,-6794662 -72680,-6794645 -72683,-6794592 -72689,-6794563 -72902,-6794747 -73155,-6794972 -73168,-6794985 -73592,-6795323 -73709,-6795424 -74060,-6795728 -74095,-6795755 -74120,-6795776 -74144,-6795798 -74176,-6795831 -74294,-6795942 -74342,-6795993 -74419,-6796069 -74432,-6796084 -74446,-6796105 -74471,-6796198 -74479,-6796236 -74495,-6796234 -74528,-6796220 -74551,-6796204 -74575,-6796187 -74599,-6796165 -74622,-6796144 -74633,-6796130 -74635,-6796126 -74638,-6796118 -74638,-6796110 -74637,-6796101 -74636,-6796066 -74639,-6796031 -74637,-6796005 -74635,-6795987 -74635,-6795943 -74638,-6795927 -74646,-6795910 -74647,-6795899 -74672,-6795889 -74684,-6795887 -74683,-6795898 -74732,-6795898 -74750,-6795900 -74761,-6795899 -74779,-6795896 -74806,-6795895 -74816,-6795884 -74831,-6795895 -74852,-6795895 -74911,-6795901 -74954,-6795902 -74962,-6795902 -74978,-6795901 -75042,-6795894 -75060,-6795894 -75063,-6795901 -75089,-6795890 -75101,-6795889 -75111,-6795890 -75131,-6795894 -75243,-6795911 -75252,-6795916 -75258,-6795918 -75269,-6795920 -75278,-6795921 -75291,-6795921 -75368,-6795924 -75380,-6795922 -75399,-6795917 -75431,-6795932 -75431,-6795946 -75433,-6795951 -75438,-6795965 -75440,-6795971 -75443,-6795986 -75485,-6796148 -75502,-6796181 -75539,-6796204 -75557,-6796214 -75560,-6796216 -75594,-6796225 -75613,-6796231 -75650,-6796249 -75663,-6796256 -75692,-6796277 -75718,-6796294 -75738,-6796306 -75763,-6796319 -75780,-6796325 -75798,-6796331 -75817,-6796335 -75823,-6796339 -75894,-6796388 -75936,-6796431 -75946,-6796437 -75953,-6796440 -75967,-6796444 -76002,-6796454 -76021,-6796458 -76059,-6796463 -76157,-6796478 -76189,-6796491 -76219,-6796497 -76249,-6796499 -76263,-6796504 -76297,-6796524 -76309,-6796529 -76314,-6796534 -76320,-6796541 -76327,-6796561 -76328,-6796564 -76331,-6796566 -76336,-6796567 -76343,-6796566 -76348,-6796567 -76362,-6796570 -76449,-6796609 -76458,-6796611 -76520,-6796612 -76533,-6796615 -76556,-6796626 -76569,-6796621 -76577,-6796622 -76583,-6796624 -76585,-6796626 -76589,-6796641 -76613,-6796656 -76649,-6796685 -76662,-6796703 -76675,-6796708 -76683,-6796709 -76697,-6796710 -76707,-6796716 -76716,-6796719 -76738,-6796718 -76743,-6796729 -76745,-6796732 -76750,-6796734 -76754,-6796736 -76758,-6796736 -76783,-6796728 -76785,-6796728 -76788,-6796730 -76798,-6796742 -76809,-6796744 -76815,-6796747 -76818,-6796753 -76818,-6796758 -76833,-6796766 -76841,-6796768 -76843,-6796768 -76883,-6796796 -76892,-6796805 -76900,-6796811 -76905,-6796813 -76915,-6796810 -76945,-6796835 -76968,-6796831 -76997,-6796857 -76996,-6796882 -77041,-6796894 -77055,-6796880 -77083,-6796887 -77095,-6796899 -77123,-6796908 -77134,-6796915 -77141,-6796922 -77148,-6796931 -77153,-6796939 -77159,-6796953 -77173,-6796948 -77228,-6796950 -77236,-6796938 -77254,-6796938 -77257,-6796947 -77280,-6796947 -77329,-6796935 -77396,-6796912 -77407,-6796914 -77417,-6796914 -77429,-6796913 -77434,-6796912 -77461,-6796902 -77474,-6796901 -77482,-6796903 -77490,-6796906 -77495,-6796908 -77526,-6796954 -77535,-6796949 -77545,-6796955 -77574,-6796987 -77590,-6797001 -77602,-6797009 -77608,-6797013 -77637,-6797011 -77646,-6797024 -77653,-6797030 -77680,-6797051 -77694,-6797064 -77710,-6797082 -77775,-6797144 -77798,-6797172 -77814,-6797193 -77830,-6797214 -77845,-6797239 -77859,-6797255 -77878,-6797269 -77898,-6797281 -77907,-6797288 -77928,-6797307 -77931,-6797319 -77927,-6797488 -78098,-6797500 -78098,-6797515 -78095,-6797543 -78094,-6797557 -78095,-6797575 -78099,-6797607 -78105,-6797688 -78098,-6797768 -78212,-6797828 -78222,-6797839 -78230,-6797846 -78244,-6797855 -78259,-6797868 -78314,-6797928 -78324,-6797936 -78330,-6797944 -78341,-6797960 -78412,-6797968 -78644,-6798011 -78670,-6798014 -78675,-6798013 -78684,-6798009 -78696,-6797989 -78701,-6797982 -78707,-6797976 -78718,-6797970 -78721,-6797969 -78753,-6797969 -78772,-6797970 -78783,-6797972 -78961,-6798018 -79014,-6798035 -79039,-6798045 -79058,-6798054 -79080,-6798067 -79163,-6798112 -79171,-6798117 -79184,-6798128 -79220,-6798165 -79232,-6798176 -79245,-6798180 -79254,-6798187 -79260,-6798193 -79286,-6798222 -79298,-6798228 -79298,-6798234 -79317,-6798257 -79345,-6798264 -79356,-6798270 -79370,-6798278 -79383,-6798283 -79387,-6798283 -79413,-6798284 -79414,-6798280 -79414,-6798272 -79428,-6798250 -79429,-6798248 -79436,-6798234 -79444,-6798213 -79447,-6798197 -79450,-6798181 -79435,-6798158 -79433,-6798152 -79429,-6798145 -79420,-6798139 -79415,-6798137 -79407,-6798136 -79427,-6798089 -79457,-6798044 -79462,-6798033 -79470,-6798012 -79475,-6797978 -79477,-6797944 -79479,-6797934 -79478,-6797926 -79475,-6797918 -79470,-6797912 -79461,-6797905 -79504,-6797855 -79532,-6797828 -79549,-6797787 -79563,-6797742 -79569,-6797728 -79571,-6797719 -79572,-6797711 -79571,-6797702 -79568,-6797689 -79575,-6797621 -79597,-6797600 -79611,-6797589 -79635,-6797554 -79640,-6797545 -79644,-6797534 -79647,-6797523 -79649,-6797506 -79655,-6797486 -79655,-6797475 -79654,-6797468 -79649,-6797460 -79640,-6797452 -79636,-6797446 -79633,-6797442 -79626,-6797439 -79620,-6797438 -79616,-6797419 -79616,-6797409 -79618,-6797404 -79624,-6797396 -79668,-6797368 -79670,-6797366 -79672,-6797361 -79673,-6797351 -79665,-6797314 -79663,-6797305 -79662,-6797298 -79666,-6797287 -79793,-6797154 -79792,-6797114 -79817,-6797106 -79865,-6797026 -79881,-6797007 -79901,-6796980 -79905,-6796973 -79911,-6796952 -79912,-6796946 -79913,-6796935 -79911,-6796923 -79901,-6796897 -79875,-6796839 -79850,-6796804 -79826,-6796778 -79818,-6796771 -79803,-6796762 -79790,-6796752 -79771,-6796743 -79760,-6796738 -79740,-6796733 -79664,-6796709 -79631,-6796704 -79605,-6796702 -79593,-6796702 -79571,-6796704 -79557,-6796701 -79549,-6796698 -79536,-6796690 -79534,-6796689 -79521,-6796656 -79518,-6796651 -79513,-6796645 -79507,-6796639 -79500,-6796634 -79491,-6796629 -79475,-6796613 -79465,-6796598 -79464,-6796592 -79466,-6796585 -79470,-6796581 -79502,-6796567 -79508,-6796563 -79514,-6796559 -79519,-6796552 -79523,-6796545 -79524,-6796540 -79526,-6796521 -79520,-6796515 -79516,-6796513 -79512,-6796513 -79507,-6796513 -79493,-6796519 -79483,-6796522 -79472,-6796524 -79457,-6796524 -79449,-6796524 -79402,-6796494 -79394,-6796486 -79392,-6796481 -79391,-6796479 -79398,-6796452 -79394,-6796425 -79392,-6796418 -79388,-6796411 -79362,-6796380 -79355,-6796371 -79346,-6796360 -79340,-6796344 -79339,-6796325 -79341,-6796311 -79343,-6796308 -79347,-6796304 -79353,-6796301 -79364,-6796299 -79422,-6796311 -79478,-6796250 -79483,-6796237 -79484,-6796230 -79485,-6796217 -79475,-6796125 -79616,-6796067 -79686,-6796031 -79771,-6796005 -79860,-6795960 -80076,-6795861 -80356,-6795713 -80376,-6795705 -80399,-6795697 -80473,-6795685 -80505,-6795679 -80539,-6795669 -80558,-6795661 -80565,-6795658 -80584,-6795646 -80600,-6795633 -80667,-6795584 -80687,-6795565 -80700,-6795554 -80717,-6795542 -80854,-6795466 -80922,-6795419 -81003,-6795367 -81014,-6795360 -81098,-6795308 -81134,-6795290 -81171,-6795276 -81190,-6795271 -81222,-6795257 -81236,-6795248 -81241,-6795243 -81315,-6795127 -81335,-6795135 -81364,-6795140 -81406,-6795129 -81514,-6795089 -81606,-6795054 -81724,-6794999 -81971,-6794896 -82167,-6794805 -82202,-6794789 -82214,-6794783 -82249,-6794752 -82261,-6794749 -82268,-6794744 -82278,-6794734 -82406,-6794686 -82418,-6794678 -82445,-6794698 -82541,-6794789 -82711,-6794935 -82826,-6795047 -82897,-6795108 -82907,-6795118 -82914,-6795124 -83091,-6795252 -83091,-6795252 -83217,-6795345 -83157,-6795367 -83138,-6795378 -83129,-6795385 -83110,-6795400 -83097,-6795412 -83039,-6795475 -83000,-6795496 -82988,-6795505 -82970,-6795521 -82948,-6795537 -82919,-6795548 -82859,-6795579 -82849,-6795591 -82782,-6795651 -82815,-6795676 -82845,-6795692 -82892,-6795725 -82917,-6795745 -82949,-6795769 -83021,-6795811 -83050,-6795821 -83069,-6795829 -83118,-6795855 -83156,-6795882 -83228,-6795934 -83261,-6795955 -83288,-6795970 -83354,-6796021 -83386,-6796050 -83402,-6796063 -83437,-6796087 -83463,-6796104 -83454,-6796143 -83636,-6796289 -83646,-6796288 -83747,-6796367 -83850,-6796437 -83933,-6796508 -84094,-6796627 -84082,-6796642 -84105,-6796665 -84143,-6796721 -84221,-6796845 -84329,-6797015 -84342,-6797032 -84358,-6797053 -84379,-6797076 -84410,-6797107 -84531,-6797216 -84551,-6797230 -84567,-6797244 -84589,-6797266 -84662,-6797327 -84690,-6797347 -84701,-6797356 -84771,-6797429 -84794,-6797463 -84801,-6797475 -84825,-6797514 -84909,-6797478 -84918,-6797463 -85010,-6797420 -85146,-6797357 -85260,-6797309 -85411,-6797245 -85740,-6797092 -85796,-6797063 -85850,-6797036 -85906,-6797134 -86068,-6797434 -86201,-6797676 -86258,-6797780 -86414,-6798069 -86436,-6798064 -86479,-6798059 -86587,-6798056 -87143,-6798049 -87215,-6798036 -87315,-6797999 -87328,-6797998 -87362,-6797998 -87379,-6797996 -87495,-6797983 -87607,-6797962 -87640,-6797960 -87668,-6797960 -87709,-6797962 -87768,-6797960 -87784,-6797961 -87795,-6797960 -87811,-6797958 -87845,-6797949 -87857,-6797946 -87888,-6797939 -88106,-6797861 -88134,-6797854 -88202,-6797842 -88262,-6797827 -88400,-6797798 -88417,-6797799 -88498,-6797795 -88556,-6797802 -88790,-6797788 -88889,-6797785 -88914,-6797783 -88943,-6797781 -88955,-6797779 -88968,-6797777 -88996,-6797769 -89020,-6797762 -89051,-6797748 -89074,-6797734 -89183,-6797664 -89303,-6797590 -89312,-6797584 -89349,-6797563 -89372,-6797545 -89445,-6797504 -89451,-6797503 -89454,-6797504 -89462,-6797508 -89482,-6797520 -89537,-6797559 -89556,-6797615 -89557,-6797623 -89564,-6797667 -89566,-6797693 -89567,-6797726 -89579,-6797804 -89578,-6797823 -89580,-6797847 -89585,-6797877 -89600,-6797980 -89636,-6798263 -89670,-6798496 -89691,-6798649 -89723,-6798861 -89745,-6799047 -89747,-6799131 -89756,-6799356 -89759,-6799374 -89770,-6799439 -89806,-6799579 -89824,-6799676 -89843,-6799760 -89872,-6799895 -89916,-6800080 -89922,-6800110 -89934,-6800146 -89945,-6800188 -89972,-6800255 -90032,-6800406 -90135,-6800653 -90182,-6800760 -90219,-6800843 -90245,-6800896 -90296,-6800992 -90335,-6801061 -90364,-6801113 -90418,-6801213 -90435,-6801210 -90448,-6801207 -90461,-6801202 -90470,-6801197 -90479,-6801191 -90490,-6801182 -90516,-6801171 -90560,-6801153 -90567,-6801150 -90571,-6801140 -90577,-6801132 -90581,-6801130 -90591,-6801125 -90656,-6801118 -90694,-6801121 -90728,-6801115 -90762,-6801116 -90797,-6801117 -90842,-6801131 -90851,-6801133 -90853,-6801133 -90873,-6801108 -90949,-6801153 -91058,-6801223 -91057,-6801244 -91057,-6801249 -91058,-6801258 -91061,-6801272 -91064,-6801283 -91077,-6801306 -91087,-6801321 -91102,-6801345 -91169,-6801382 -91179,-6801384 -91186,-6801388 -91191,-6801393 -91195,-6801399 -91200,-6801417 -91208,-6801448 -91213,-6801486 -91215,-6801521 -91215,-6801566 -91213,-6801610 -91212,-6801659 -91211,-6801677 -91207,-6801713 -91204,-6801780 -91201,-6801816 -91201,-6801843 -91204,-6801878 -91205,-6801917 -91201,-6801965 -91201,-6801980 -91203,-6802011 -91199,-6802046 -91201,-6802050 -91212,-6802057 -91216,-6802059 -91219,-6802059 -91231,-6802055 -91233,-6802055 -91237,-6802057 -91239,-6802060 -91237,-6802076 -91235,-6802086 -91222,-6802110 -91225,-6802133 -91233,-6802157 -91226,-6802169 -91224,-6802176 -91219,-6802211 -91215,-6802218 -91208,-6802223 -91205,-6802227 -91204,-6802231 -91204,-6802234 -91205,-6802237 -91208,-6802240 -91213,-6802243 -91223,-6802248 -91230,-6802290 -91247,-6802315 -91261,-6802347 -91319,-6802396 -91352,-6802434 -91388,-6802455 -91391,-6802467 -91405,-6802472 -91544,-6802545 -91642,-6802622 -91677,-6802664 -91703,-6802703 -91718,-6802719 -91725,-6802726 -91742,-6802737 -91766,-6802753 -91797,-6802777 -91831,-6802806 -91854,-6802817 -91887,-6802826 -91892,-6802819 -91920,-6802817 -91948,-6802819 -91985,-6802818 -91995,-6802820 -92003,-6802822 -92014,-6802826 -92029,-6802833 -92044,-6802842 -92054,-6802848 -92063,-6802856 -92076,-6802872 -92084,-6802876 -92102,-6802884 -92123,-6802921 -92131,-6802931 -92137,-6802935 -92145,-6802939 -92154,-6802941 -92176,-6802943 -92182,-6802945 -92191,-6802948 -92200,-6802952 -92207,-6802957 -92219,-6802970 -92245,-6802994 -92262,-6802999 -92275,-6803004 -92289,-6803012 -92303,-6803024 -92341,-6803071 -92349,-6803082 -92370,-6803113 -92389,-6803132 -92410,-6803157 -92431,-6803190 -92447,-6803219 -92468,-6803254 -92477,-6803272 -92481,-6803281 -92497,-6803286 -92521,-6803318 -92541,-6803331 -92587,-6803354 -92592,-6803357 -92596,-6803363 -92601,-6803373 -92602,-6803378 -92601,-6803384 -92598,-6803391 -92590,-6803401 -92597,-6803406 -92623,-6803421 -92643,-6803423 -92650,-6803419 -92659,-6803417 -92667,-6803417 -92674,-6803420 -92682,-6803425 -92689,-6803431 -92692,-6803436 -92695,-6803440 -92696,-6803446 -92699,-6803458 -92701,-6803462 -92703,-6803464 -92707,-6803467 -92712,-6803469 -92720,-6803469 -92726,-6803467 -92752,-6803472 -92775,-6803455 -92783,-6803463 -92801,-6803457 -92891,-6803487 -92987,-6803537 -92994,-6803546 -93017,-6803574 -93152,-6803710 -93295,-6803846 -93365,-6803916 -93388,-6803936 -93411,-6803953 -93433,-6803964 -93452,-6803972 -93486,-6803992 -93551,-6804025 -93897,-6804171 -93911,-6804178 -93923,-6804180 -93980,-6804187 -94003,-6804194 -94035,-6804214 -94051,-6804227 -94060,-6804236 -94079,-6804258 -94084,-6804265 -94195,-6804447 -94229,-6804504 -94236,-6804515 -94250,-6804540 -94284,-6804580 -94295,-6804607 -94306,-6804642 -94325,-6804711 -94327,-6804728 -94331,-6804738 -94335,-6804746 -94338,-6804750 -94342,-6804754 -94349,-6804759 -94356,-6804761 -94361,-6804762 -94374,-6804762 -94421,-6804779 -94528,-6804811 -94566,-6804828 -94590,-6804851 -94586,-6804863 -94638,-6804902 -94662,-6804922 -94773,-6805017 -94817,-6805048 -94847,-6805065 -94883,-6805089 -94865,-6805125 -94839,-6805174 -94830,-6805192 -94843,-6805202 -94893,-6805239 -94920,-6805262 -94958,-6805298 -95014,-6805358 -95051,-6805395 -95080,-6805423 -95092,-6805434 -95124,-6805450 -95135,-6805459 -95146,-6805468 -95175,-6805501 -95186,-6805511 -95209,-6805532 -95277,-6805583 -95359,-6805634 -95388,-6805653 -95359,-6805707 -95331,-6805746 -95298,-6805787 -95287,-6805801 -95305,-6805815 -95279,-6805852 -95317,-6805895 -95341,-6805917 -95361,-6805942 -95386,-6805973 -95427,-6806021 -95471,-6806064 -95513,-6806101 -95488,-6806136 -95536,-6806197 -95573,-6806253 -95600,-6806288 -95614,-6806307 -95637,-6806333 -95635,-6806352 -95649,-6806365 -95728,-6806431 -95828,-6806522 -95880,-6806562 -95862,-6806592 -95983,-6806680 -96038,-6806718 -96089,-6806758 -96124,-6806782 -96159,-6806803 -96174,-6806814 -96220,-6806853 -96287,-6806907 -96337,-6806949 -96329,-6806965 -96301,-6807017 -96351,-6807045 -96418,-6807074 -96485,-6807094 -96524,-6807110 -96517,-6807169 -96504,-6807254 -96502,-6807277 -96501,-6807299 -96508,-6807379 -96617,-6807404 -96793,-6807431 -96898,-6807425 -96932,-6807418 -96959,-6807419 -96965,-6807404 -96995,-6807406 -96987,-6807428 -96985,-6807460 -96991,-6807545 -97000,-6807583 -97022,-6807614 -97030,-6807623 -97036,-6807632 -97039,-6807640 -97043,-6807651 -97045,-6807664 -97047,-6807684 -97047,-6807695 -97018,-6807748 -96976,-6807816 -96968,-6807840 -96960,-6807860 -96953,-6807879 -96940,-6807905 -96916,-6807937 -96898,-6807971 -96897,-6808007 -96901,-6808023 -96904,-6808029 -96907,-6808036 -96915,-6808049 -96908,-6808060 -96845,-6808140 -96829,-6808165 -96815,-6808194 -96816,-6808213 -96818,-6808222 -96818,-6808226 -96817,-6808230 -96815,-6808235 -96809,-6808242 -96784,-6808262 -96746,-6808280 -96730,-6808297 -96695,-6808338 -96657,-6808397 -96635,-6808429 -96618,-6808460 -96605,-6808477 -96595,-6808487 -96587,-6808493 -96579,-6808498 -96568,-6808502 -96472,-6808554 -96449,-6808564 -96432,-6808568 -96415,-6808571 -96398,-6808573 -96378,-6808573 -96370,-6808570 -96362,-6808567 -96358,-6808564 -96354,-6808560 -96351,-6808554 -96348,-6808543 -96330,-6808496 -96301,-6808441 -96296,-6808428 -96292,-6808423 -96288,-6808419 -96281,-6808415 -96268,-6808408 -96235,-6808394 -96202,-6808374 -96197,-6808374 -96191,-6808375 -96188,-6808377 -96185,-6808382 -96185,-6808388 -96190,-6808411 -96187,-6808420 -96185,-6808425 -96181,-6808429 -96174,-6808433 -96111,-6808452 -96094,-6808450 -96092,-6808449 -96087,-6808445 -96077,-6808425 -96058,-6808407 -96054,-6808398 -96054,-6808394 -96054,-6808377 -96054,-6808373 -96051,-6808365 -96048,-6808360 -96034,-6808342 -96029,-6808333 -96027,-6808330 -96023,-6808313 -96005,-6808308 -95971,-6808305 -95956,-6808302 -95918,-6808288 -95893,-6808290 -95864,-6808283 -95804,-6808272 -95781,-6808255 -95772,-6808250 -95738,-6808236 -95729,-6808231 -95721,-6808226 -95695,-6808202 -95688,-6808198 -95681,-6808194 -95675,-6808193 -95670,-6808194 -95661,-6808199 -95649,-6808212 -95616,-6808252 -95597,-6808270 -95570,-6808309 -95555,-6808335 -95533,-6808363 -95527,-6808372 -95522,-6808381 -95519,-6808390 -95516,-6808406 -95507,-6808439 -95499,-6808451 -95492,-6808457 -95470,-6808472 -95424,-6808502 -95411,-6808512 -95383,-6808534 -95358,-6808553 -95329,-6808583 -95305,-6808609 -95277,-6808650 -95262,-6808670 -95254,-6808680 -95243,-6808691 -95239,-6808698 -95237,-6808704 -95237,-6808712 -95239,-6808723 -95242,-6808734 -95246,-6808744 -95250,-6808752 -95258,-6808760 -95260,-6808765 -95262,-6808772 -95263,-6808779 -95262,-6808787 -95259,-6808794 -95256,-6808799 -95253,-6808804 -95243,-6808812 -95218,-6808820 -95211,-6808824 -95203,-6808833 -95178,-6808869 -95155,-6808907 -95132,-6808938 -95068,-6809002 -95036,-6809025 -95028,-6809033 -95022,-6809039 -95019,-6809043 -95009,-6809056 -95001,-6809071 -94993,-6809087 -94965,-6809135 -94955,-6809151 -94948,-6809162 -94944,-6809170 -94941,-6809180 -94939,-6809189 -94938,-6809208 -94936,-6809215 -94926,-6809242 -94920,-6809253 -94912,-6809262 -94896,-6809291 -94893,-6809298 -94892,-6809308 -94893,-6809323 -94896,-6809340 -94899,-6809351 -94907,-6809370 -94931,-6809419 -94946,-6809467 -94964,-6809541 -94967,-6809547 -94977,-6809566 -94987,-6809578 -95001,-6809590 -95032,-6809614 -95169,-6809683 -95170,-6809684 -95183,-6809688 -95206,-6809705 -95223,-6809733 -95233,-6809739 -95248,-6809745 -95258,-6809748 -95266,-6809749 -95277,-6809748 -95327,-6809751 -95424,-6809746 -95476,-6809749 -95512,-6809754 -95539,-6809772 -95571,-6809798 -95610,-6809836 -95643,-6809851 -95726,-6809919 -95752,-6809950 -95766,-6809969 -95779,-6809990 -95788,-6810006 -95804,-6810040 -95828,-6810107 -95835,-6810119 -95840,-6810132 -95842,-6810147 -95843,-6810157 -95841,-6810169 -95839,-6810176 -95832,-6810187 -95827,-6810192 -95748,-6810252 -95741,-6810259 -95735,-6810265 -95730,-6810274 -95723,-6810287 -95720,-6810298 -95719,-6810305 -95719,-6810311 -95721,-6810318 -95724,-6810325 -95753,-6810377 -95756,-6810387 -95757,-6810397 -95756,-6810409 -95754,-6810418 -95747,-6810436 -95746,-6810439 -95741,-6810450 -95729,-6810470 -95730,-6810512 -95732,-6810541 -95746,-6810588 -95757,-6810634 -95774,-6810681 -95790,-6810728 -95804,-6810749 -95827,-6810774 -95946,-6810853 -95955,-6810860 -95958,-6810863 -95969,-6810876 -95982,-6810896 -95988,-6810921 -95999,-6810942 -96008,-6810957 -96019,-6810971 -96030,-6810982 -96050,-6811003 -96061,-6811015 -96070,-6811030 -96068,-6811049 -96060,-6811069 -96056,-6811087 -96051,-6811104 -96039,-6811142 -96032,-6811150 -96005,-6811178 -95994,-6811191 -95973,-6811215 -95947,-6811246 -95913,-6811289 -95869,-6811346 -95828,-6811391 -95787,-6811439 -95776,-6811450 -95755,-6811472 -95731,-6811486 -95713,-6811498 -95685,-6811521 -95666,-6811535 -95653,-6811553 -95647,-6811565 -95647,-6811576 -95654,-6811590 -95661,-6811602 -95663,-6811613 -95659,-6811623 -95649,-6811637 -95640,-6811641 -95574,-6811651 -95564,-6811653 -95557,-6811655 -95543,-6811663 -95536,-6811669 -95528,-6811677 -95478,-6811706 -95477,-6811706 -95470,-6811712 -95455,-6811719 -95440,-6811722 -95432,-6811722 -95422,-6811721 -95411,-6811718 -95353,-6811711 -95344,-6811707 -95338,-6811705 -95328,-6811704 -95312,-6811703 -95277,-6811698 -95251,-6811697 -95204,-6811700 -95161,-6811706 -95110,-6811714 -95072,-6811723 -95042,-6811733 -95018,-6811745 -94964,-6811768 -94931,-6811782 -94897,-6811796 -94863,-6811806 -94860,-6811807 -94852,-6811809 -94775,-6811826 -94774,-6811826 -94745,-6811828 -94720,-6811832 -94711,-6811832 -94703,-6811832 -94692,-6811829 -94682,-6811825 -94673,-6811819 -94597,-6811786 -94578,-6811778 -94552,-6811773 -94521,-6811758 -94496,-6811743 -94477,-6811731 -94461,-6811715 -94446,-6811695 -94431,-6811672 -94414,-6811653 -94399,-6811645 -94389,-6811640 -94375,-6811635 -94362,-6811631 -94359,-6811631 -94338,-6811627 -94325,-6811629 -94301,-6811636 -94291,-6811635 -94274,-6811633 -94261,-6811620 -94250,-6811606 -94234,-6811588 -94225,-6811581 -94219,-6811579 -94205,-6811575 -94156,-6811565 -94137,-6811557 -94126,-6811551 -94119,-6811545 -94102,-6811524 -94090,-6811519 -94067,-6811520 -94049,-6811524 -94032,-6811524 -94010,-6811527 -93987,-6811530 -93974,-6811530 -93955,-6811530 -93946,-6811528 -93937,-6811527 -93915,-6811527 -93894,-6811531 -93866,-6811539 -93846,-6811541 -93815,-6811548 -93815,-6811548 -93760,-6811566 -93741,-6811572 -93712,-6811582 -93676,-6811596 -93636,-6811606 -93579,-6811627 -93516,-6811650 -93452,-6811674 -93442,-6811681 -93371,-6811728 -93355,-6811741 -93344,-6811752 -93327,-6811773 -93312,-6811802 -93289,-6811830 -93288,-6811832 -93272,-6811851 -93254,-6811871 -93235,-6811886 -93180,-6811935 -93155,-6811965 -93130,-6811996 -93101,-6812035 -93099,-6812038 -93099,-6812038 -93041,-6812111 -93039,-6812114 -93036,-6812116 -93034,-6812119 -93032,-6812122 -93030,-6812124 -93028,-6812127 -93026,-6812130 -93024,-6812132 -93022,-6812135 -93020,-6812138 -93019,-6812141 -93017,-6812143 -93015,-6812146 -93013,-6812149 -93012,-6812152 -93010,-6812155 -93009,-6812158 -93007,-6812161 -93006,-6812164 -93005,-6812167 -93004,-6812170 -93003,-6812173 -93002,-6812177 -93001,-6812180 -93000,-6812183 -92999,-6812186 -92999,-6812189 -92998,-6812193 -92997,-6812196 -92996,-6812199 -92995,-6812202 -92994,-6812206 -92993,-6812209 -92993,-6812212 -92992,-6812216 -92991,-6812219 -92990,-6812222 -92989,-6812226 -92988,-6812229 -92987,-6812232 -92987,-6812235 -92986,-6812239 -92985,-6812242 -92980,-6812256 -92950,-6812322 -92911,-6812398 -92876,-6812461 -92875,-6812462 -92861,-6812487 -92821,-6812532 -92794,-6812562 -92772,-6812583 -92751,-6812605 -92715,-6812648 -92706,-6812668 -92702,-6812689 -92702,-6812708 -92702,-6812710 -92690,-6812754 -92688,-6812770 -92687,-6812785 -92689,-6812809 -92704,-6812904 -92705,-6812923 -92703,-6812936 -92701,-6812949 -92693,-6812972 -92673,-6813015 -92668,-6813028 -92660,-6813044 -92654,-6813053 -92646,-6813061 -92640,-6813067 -92625,-6813077 -92599,-6813103 -92581,-6813117 -92553,-6813144 -92570,-6813142 -92584,-6813142 -92596,-6813141 -92604,-6813140 -92619,-6813141 -92632,-6813144 -92646,-6813147 -92660,-6813156 -92677,-6813162 -92704,-6813179 -92738,-6813201 -92767,-6813219 -92780,-6813229 -92791,-6813241 -92808,-6813253 -92848,-6813289 -92853,-6813299 -92855,-6813312 -92854,-6813323 -92852,-6813334 -92846,-6813365 -92845,-6813372 -92846,-6813380 -92850,-6813392 -92860,-6813414 -92895,-6813429 -92919,-6813441 -92924,-6813447 -92929,-6813457 -92932,-6813464 -92935,-6813473 -92935,-6813482 -92933,-6813494 -92929,-6813508 -92925,-6813528 -92925,-6813531 -92927,-6813542 -92944,-6813575 -92984,-6813644 -92995,-6813662 -92998,-6813666 -93007,-6813676 -93015,-6813683 -93021,-6813687 -93028,-6813690 -93041,-6813694 -93057,-6813698 -93062,-6813702 -93065,-6813709 -93069,-6813770 -93067,-6813884 -93069,-6813984 -93066,-6814026 -93060,-6814049 -93055,-6814058 -93044,-6814071 -93034,-6814081 -93003,-6814117 -92989,-6814148 -92983,-6814155 -92981,-6814160 -92979,-6814172 -92979,-6814178 -92985,-6814200 -92989,-6814212 -92998,-6814233 -93003,-6814251 -93005,-6814258 -93005,-6814264 -93001,-6814278 -92988,-6814305 -92984,-6814323 -92984,-6814331 -92985,-6814340 -92986,-6814344 -92994,-6814354 -92996,-6814359 -92998,-6814367 -92999,-6814378 -93000,-6814386 -92999,-6814390 -92991,-6814414 -92981,-6814453 -92980,-6814482 -92981,-6814494 -92991,-6814523 -92991,-6814527 -92991,-6814534 -92990,-6814540 -92988,-6814544 -92981,-6814555 -92979,-6814562 -92979,-6814569 -92980,-6814571 -92982,-6814574 -92986,-6814576 -92991,-6814577 -93002,-6814574 -93008,-6814574 -93014,-6814577 -93019,-6814580 -93023,-6814584 -93029,-6814598 -93034,-6814610 -93036,-6814619 -93038,-6814624 -93040,-6814628 -93043,-6814631 -93087,-6814658 -93125,-6814680 -93145,-6814704 -93149,-6814710 -93153,-6814722 -93156,-6814743 -93160,-6814754 -93170,-6814770 -93178,-6814788 -93187,-6814815 -93189,-6814828 -93195,-6814860 -93195,-6814871 -93194,-6814882 -93189,-6814904 -93188,-6814920 -93189,-6814939 -93217,-6814999 -93223,-6815018 -93230,-6815027 -93247,-6815036 -93265,-6815041 -93274,-6815041 -93279,-6815042 -93287,-6815045 -93291,-6815049 -93294,-6815053 -93298,-6815062 -93309,-6815075 -93342,-6815093 -93386,-6815113 -93400,-6815111 -93409,-6815111 -93415,-6815113 -93420,-6815116 -93428,-6815129 -93433,-6815134 -93445,-6815140 -93458,-6815150 -93475,-6815167 -93492,-6815185 -93525,-6815233 -93540,-6815250 -93554,-6815267 -93580,-6815288 -93592,-6815293 -93599,-6815294 -93607,-6815294 -93613,-6815293 -93619,-6815291 -93638,-6815279 -93661,-6815271 -93676,-6815270 -93685,-6815272 -93693,-6815274 -93697,-6815277 -93700,-6815281 -93702,-6815285 -93704,-6815291 -93703,-6815300 -93702,-6815305 -93699,-6815309 -93695,-6815312 -93691,-6815314 -93684,-6815315 -93664,-6815322 -93658,-6815324 -93654,-6815327 -93652,-6815329 -93651,-6815334 -93650,-6815340 -93652,-6815344 -93655,-6815348 -93686,-6815370 -93777,-6815418 -93793,-6815428 -93821,-6815453 -93841,-6815464 -93866,-6815476 -93872,-6815478 -93880,-6815481 -93892,-6815482 -93909,-6815481 -93929,-6815488 -93931,-6815490 -93934,-6815494 -93938,-6815504 -93938,-6815513 -93923,-6815569 -93922,-6815576 -93921,-6815584 -93922,-6815601 -93918,-6815613 -93917,-6815622 -93918,-6815630 -93921,-6815637 -93924,-6815642 -93944,-6815663 -93966,-6815683 -94001,-6815722 -94009,-6815729 -94018,-6815736 -94062,-6815760 -94067,-6815761 -94073,-6815766 -94075,-6815770 -94076,-6815776 -94076,-6815780 -94072,-6815800 -94073,-6815834 -94086,-6815900 -94094,-6815924 -94116,-6815981 -94129,-6816011 -94140,-6816024 -94161,-6816031 -94187,-6816046 -94197,-6816051 -94206,-6816059 -94212,-6816070 -94213,-6816074 -94213,-6816080 -94211,-6816089 -94198,-6816109 -94195,-6816118 -94195,-6816125 -94205,-6816169 -94205,-6816177 -94203,-6816186 -94201,-6816193 -94199,-6816198 -94194,-6816204 -94180,-6816213 -94175,-6816218 -94171,-6816223 -94169,-6816228 -94168,-6816239 -94178,-6816301 -94200,-6816379 -94201,-6816381 -94207,-6816398 -94209,-6816409 -94210,-6816418 -94208,-6816452 -94212,-6816477 -94216,-6816488 -94222,-6816503 -94229,-6816514 -94242,-6816530 -94251,-6816541 -94258,-6816546 -94261,-6816551 -94263,-6816557 -94264,-6816563 -94262,-6816568 -94260,-6816572 -94257,-6816575 -94254,-6816576 -94250,-6816577 -94235,-6816574 -94228,-6816575 -94221,-6816578 -94215,-6816583 -94211,-6816588 -94207,-6816602 -94207,-6816606 -94207,-6816611 -94211,-6816619 -94246,-6816673 -94255,-6816688 -94271,-6816705 -94279,-6816713 -94284,-6816716 -94297,-6816722 -94375,-6816741 -94400,-6816767 -94409,-6816773 -94416,-6816775 -94422,-6816776 -94456,-6816773 -94462,-6816770 -94467,-6816769 -94473,-6816770 -94480,-6816777 -94484,-6816783 -94490,-6816796 -94489,-6816804 -94491,-6816808 -94495,-6816812 -94499,-6816813 -94504,-6816813 -94508,-6816811 -94513,-6816808 -94546,-6816792 -94551,-6816791 -94553,-6816791 -94558,-6816792 -94563,-6816794 -94566,-6816796 -94570,-6816799 -94576,-6816807 -94583,-6816817 -94589,-6816825 -94595,-6816833 -94600,-6816837 -94608,-6816843 -94616,-6816847 -94630,-6816852 -94646,-6816849 -94663,-6816849 -94669,-6816848 -94674,-6816844 -94677,-6816841 -94678,-6816839 -94680,-6816834 -94680,-6816825 -94670,-6816803 -94670,-6816800 -94672,-6816796 -94676,-6816793 -94702,-6816794 -94711,-6816795 -94735,-6816800 -94754,-6816801 -94764,-6816800 -94773,-6816798 -94780,-6816795 -94796,-6816786 -94801,-6816785 -94808,-6816784 -94815,-6816784 -94821,-6816786 -94834,-6816792 -94866,-6816809 -94884,-6816816 -94908,-6816821 -94998,-6816830 -95025,-6816836 -95040,-6816843 -95075,-6816868 -95103,-6816883 -95119,-6816863 -95126,-6816853 -95127,-6816847 -95129,-6816843 -95133,-6816840 -95137,-6816838 -95143,-6816838 -95148,-6816839 -95153,-6816841 -95160,-6816847 -95165,-6816853 -95209,-6816896 -95216,-6816905 -95218,-6816911 -95219,-6816919 -95218,-6816932 -95220,-6816947 -95221,-6816948 -95230,-6816955 -95235,-6816956 -95246,-6816957 -95256,-6816955 -95260,-6816955 -95267,-6816956 -95275,-6816958 -95281,-6816962 -95286,-6816967 -95290,-6816972 -95293,-6816978 -95294,-6816983 -95294,-6817013 -95294,-6817017 -95296,-6817024 -95308,-6817041 -95313,-6817052 -95317,-6817063 -95318,-6817072 -95318,-6817077 -95317,-6817085 -95315,-6817097 -95315,-6817106 -95317,-6817122 -95322,-6817134 -95324,-6817144 -95325,-6817152 -95325,-6817157 -95322,-6817167 -95314,-6817179 -95311,-6817186 -95309,-6817195 -95307,-6817206 -95308,-6817217 -95312,-6817235 -95329,-6817279 -95330,-6817286 -95330,-6817302 -95329,-6817315 -95331,-6817329 -95341,-6817347 -95359,-6817371 -95367,-6817384 -95370,-6817388 -95376,-6817401 -95378,-6817406 -95383,-6817420 -95388,-6817435 -95399,-6817484 -95407,-6817503 -95427,-6817539 -95434,-6817555 -95444,-6817565 -95446,-6817566 -95447,-6817569 -95449,-6817576 -95447,-6817583 -95441,-6817590 -95430,-6817596 -95432,-6817618 -95441,-6817646 -95457,-6817678 -95464,-6817687 -95480,-6817703 -95489,-6817715 -95491,-6817720 -95492,-6817726 -95492,-6817733 -95490,-6817747 -95491,-6817754 -95494,-6817763 -95498,-6817770 -95502,-6817775 -95507,-6817778 -95512,-6817779 -95517,-6817778 -95523,-6817774 -95530,-6817766 -95538,-6817760 -95548,-6817756 -95554,-6817756 -95562,-6817758 -95657,-6817803 -95674,-6817805 -95679,-6817807 -95692,-6817817 -95706,-6817834 -95723,-6817848 -95733,-6817855 -95750,-6817863 -95767,-6817866 -95783,-6817865 -95797,-6817861 -95837,-6817842 -95844,-6817836 -95852,-6817833 -95853,-6817832 -95869,-6817835 -95882,-6817837 -95883,-6817837 -95917,-6817854 -95926,-6817863 -95939,-6817880 -95945,-6817888 -95950,-6817897 -95954,-6817902 -95960,-6817908 -95965,-6817912 -95973,-6817916 -95993,-6817924 -96030,-6817929 -96042,-6817929 -96083,-6817925 -96098,-6817925 -96112,-6817929 -96119,-6817932 -96126,-6817937 -96132,-6817942 -96167,-6817983 -96172,-6817998 -96176,-6818007 -96181,-6818014 -96184,-6818018 -96194,-6818026 -96206,-6818031 -96235,-6818051 -96243,-6818059 -96253,-6818077 -96259,-6818083 -96266,-6818088 -96274,-6818092 -96280,-6818094 -96286,-6818094 -96292,-6818094 -96298,-6818091 -96303,-6818088 -96307,-6818084 -96314,-6818074 -96327,-6818065 -96333,-6818064 -96342,-6818065 -96397,-6818098 -96425,-6818112 -96452,-6818124 -96475,-6818130 -96490,-6818130 -96499,-6818129 -96508,-6818126 -96518,-6818121 -96526,-6818115 -96530,-6818111 -96536,-6818102 -96541,-6818098 -96548,-6818096 -96556,-6818095 -96564,-6818097 -96571,-6818101 -96608,-6818124 -96645,-6818139 -96680,-6818148 -96694,-6818160 -96706,-6818203 -96710,-6818230 -96712,-6818236 -96718,-6818248 -96723,-6818253 -96727,-6818257 -96732,-6818258 -96738,-6818259 -96746,-6818256 -96761,-6818240 -96765,-6818231 -96769,-6818227 -96775,-6818224 -96778,-6818224 -96783,-6818224 -96787,-6818226 -96792,-6818229 -96795,-6818233 -96797,-6818238 -96801,-6818252 -96801,-6818258 -96800,-6818263 -96791,-6818279 -96787,-6818284 -96781,-6818289 -96760,-6818303 -96731,-6818324 -96723,-6818334 -96728,-6818375 -96729,-6818395 -96726,-6818403 -96723,-6818407 -96720,-6818411 -96715,-6818419 -96711,-6818424 -96706,-6818428 -96701,-6818430 -96697,-6818432 -96689,-6818433 -96665,-6818429 -96648,-6818423 -96640,-6818422 -96632,-6818421 -96623,-6818423 -96619,-6818432 -96610,-6818462 -96604,-6818470 -96599,-6818474 -96594,-6818476 -96588,-6818476 -96568,-6818465 -96557,-6818465 -96553,-6818467 -96537,-6818481 -96526,-6818496 -96521,-6818501 -96517,-6818505 -96506,-6818509 -96498,-6818508 -96494,-6818509 -96486,-6818512 -96480,-6818520 -96478,-6818526 -96465,-6818542 -96457,-6818550 -96450,-6818555 -96439,-6818562 -96422,-6818567 -96415,-6818571 -96405,-6818580 -96367,-6818640 -96352,-6818663 -96344,-6818677 -96337,-6818693 -96325,-6818735 -96322,-6818747 -96321,-6818759 -96322,-6818770 -96324,-6818778 -96327,-6818784 -96332,-6818790 -96355,-6818810 -96391,-6818835 -96422,-6818855 -96432,-6818868 -96438,-6818880 -96453,-6818889 -96478,-6818898 -96488,-6818906 -96493,-6818911 -96498,-6818922 -96505,-6818943 -96509,-6818950 -96538,-6818986 -96540,-6818990 -96541,-6818994 -96542,-6819002 -96535,-6819031 -96534,-6819046 -96546,-6819065 -96559,-6819075 -96563,-6819083 -96567,-6819086 -96572,-6819087 -96578,-6819087 -96584,-6819085 -96589,-6819081 -96593,-6819076 -96618,-6819037 -96628,-6819031 -96650,-6819017 -96656,-6819010 -96660,-6819007 -96668,-6819005 -96671,-6819005 -96676,-6819007 -96681,-6819011 -96684,-6819015 -96686,-6819022 -96694,-6819035 -96702,-6819047 -96716,-6819065 -96746,-6819081 -96756,-6819088 -96805,-6819123 -96813,-6819127 -96818,-6819131 -96823,-6819135 -96827,-6819140 -96832,-6819150 -96833,-6819159 -96831,-6819166 -96813,-6819206 -96808,-6819219 -96804,-6819247 -96803,-6819266 -96803,-6819281 -96808,-6819313 -96825,-6819371 -96826,-6819385 -96825,-6819391 -96821,-6819396 -96817,-6819399 -96812,-6819401 -96801,-6819404 -96794,-6819409 -96788,-6819416 -96785,-6819422 -96784,-6819429 -96785,-6819436 -96790,-6819446 -96792,-6819459 -96790,-6819470 -96787,-6819476 -96780,-6819481 -96772,-6819484 -96743,-6819483 -96738,-6819508 -96750,-6819528 -96771,-6819547 -96782,-6819555 -96794,-6819562 -96850,-6819580 -96858,-6819584 -96862,-6819589 -96867,-6819596 -96869,-6819600 -96874,-6819622 -96874,-6819631 -96873,-6819636 -96869,-6819642 -96864,-6819647 -96858,-6819651 -96850,-6819653 -96846,-6819653 -96829,-6819651 -96813,-6819653 -96807,-6819655 -96766,-6819672 -96755,-6819670 -96747,-6819669 -96740,-6819671 -96735,-6819674 -96730,-6819678 -96726,-6819684 -96722,-6819693 -96707,-6819714 -96694,-6819743 -96693,-6819747 -96694,-6819756 -96695,-6819762 -96699,-6819768 -96713,-6819798 -96737,-6819858 -96765,-6819930 -96769,-6819940 -96770,-6819945 -96771,-6819950 -96770,-6819957 -96767,-6819964 -96751,-6819992 -96750,-6819999 -96749,-6820006 -96750,-6820010 -96753,-6820016 -96760,-6820021 -96772,-6820025 -96783,-6820028 -96795,-6820035 -96802,-6820042 -96807,-6820050 -96810,-6820058 -96812,-6820067 -96812,-6820079 -96814,-6820103 -96817,-6820113 -96820,-6820117 -96826,-6820122 -96840,-6820126 -96849,-6820123 -96859,-6820103 -96861,-6820094 -96865,-6820087 -96869,-6820082 -96872,-6820079 -96875,-6820078 -96882,-6820077 -96885,-6820079 -96891,-6820083 -96896,-6820088 -96898,-6820092 -96901,-6820102 -96898,-6820134 -96899,-6820161 -96901,-6820169 -96902,-6820172 -96909,-6820185 -96993,-6820296 -96997,-6820304 -97000,-6820312 -97003,-6820322 -97003,-6820327 -97003,-6820337 -97004,-6820345 -97006,-6820352 -97009,-6820357 -97025,-6820372 -97032,-6820377 -97049,-6820386 -97075,-6820395 -97081,-6820400 -97087,-6820405 -97089,-6820408 -97111,-6820448 -97116,-6820455 -97140,-6820484 -97147,-6820493 -97153,-6820503 -97157,-6820509 -97162,-6820514 -97167,-6820517 -97178,-6820522 -97205,-6820523 -97230,-6820510 -97240,-6820484 -97245,-6820474 -97248,-6820469 -97252,-6820464 -97258,-6820460 -97266,-6820456 -97274,-6820453 -97281,-6820452 -97312,-6820460 -97321,-6820465 -97345,-6820482 -97366,-6820491 -97397,-6820490 -97400,-6820475 -97406,-6820458 -97408,-6820454 -97413,-6820447 -97419,-6820442 -97426,-6820440 -97433,-6820438 -97441,-6820439 -97450,-6820442 -97454,-6820445 -97496,-6820482 -97499,-6820488 -97505,-6820503 -97511,-6820526 -97513,-6820530 -97518,-6820535 -97529,-6820543 -97540,-6820556 -97549,-6820564 -97557,-6820568 -97571,-6820572 -97624,-6820576 -97631,-6820578 -97639,-6820579 -97645,-6820578 -97651,-6820575 -97655,-6820572 -97665,-6820561 -97671,-6820557 -97677,-6820555 -97715,-6820556 -97726,-6820559 -97742,-6820562 -97751,-6820564 -97756,-6820564 -97759,-6820563 -97763,-6820561 -97765,-6820558 -97767,-6820554 -97768,-6820548 -97767,-6820540 -97767,-6820525 -97767,-6820516 -97768,-6820510 -97777,-6820499 -97789,-6820494 -97844,-6820506 -97922,-6820532 -97940,-6820542 -97947,-6820562 -97960,-6820579 -97980,-6820586 -98003,-6820591 -98014,-6820576 -98018,-6820564 -98022,-6820552 -98026,-6820526 -98027,-6820522 -98043,-6820526 -98060,-6820560 -98092,-6820529 -98099,-6820524 -98106,-6820522 -98118,-6820520 -98124,-6820521 -98131,-6820523 -98137,-6820526 -98143,-6820530 -98148,-6820535 -98155,-6820545 -98193,-6820593 -98211,-6820611 -98220,-6820617 -98228,-6820622 -98236,-6820626 -98250,-6820632 -98312,-6820661 -98344,-6820677 -98370,-6820686 -98393,-6820681 -98400,-6820665 -98400,-6820662 -98402,-6820659 -98408,-6820655 -98408,-6820654 -98421,-6820648 -98441,-6820646 -98461,-6820641 -98465,-6820641 -98469,-6820643 -98472,-6820646 -98476,-6820654 -98483,-6820661 -98496,-6820669 -98501,-6820670 -98509,-6820669 -98579,-6820652 -98585,-6820651 -98592,-6820652 -98602,-6820655 -98621,-6820669 -98631,-6820670 -98637,-6820672 -98647,-6820676 -98651,-6820680 -98677,-6820709 -98716,-6820759 -98742,-6820802 -98774,-6820860 -98779,-6820882 -98779,-6820891 -98777,-6820897 -98771,-6820903 -98741,-6820917 -98697,-6820933 -98693,-6820935 -98686,-6820941 -98682,-6820945 -98677,-6820971 -98676,-6821000 -98673,-6821033 -98671,-6821041 -98666,-6821050 -98662,-6821057 -98658,-6821061 -98651,-6821065 -98645,-6821067 -98611,-6821069 -98604,-6821071 -98599,-6821074 -98596,-6821079 -98593,-6821086 -98577,-6821106 -98571,-6821115 -98554,-6821146 -98541,-6821162 -98532,-6821168 -98527,-6821170 -98522,-6821171 -98517,-6821169 -98510,-6821161 -98505,-6821159 -98500,-6821158 -98497,-6821158 -98487,-6821167 -98480,-6821182 -98473,-6821190 -98455,-6821195 -98436,-6821198 -98406,-6821200 -98397,-6821198 -98373,-6821230 -98367,-6821240 -98364,-6821246 -98355,-6821266 -98349,-6821294 -98347,-6821300 -98328,-6821322 -98289,-6821383 -98282,-6821401 -98280,-6821409 -98279,-6821419 -98278,-6821429 -98280,-6821439 -98284,-6821455 -98296,-6821479 -98298,-6821485 -98298,-6821496 -98296,-6821500 -98292,-6821504 -98285,-6821510 -98277,-6821514 -98270,-6821517 -98263,-6821519 -98254,-6821518 -98200,-6821507 -98195,-6821508 -98190,-6821509 -98185,-6821513 -98181,-6821518 -98178,-6821524 -98178,-6821529 -98179,-6821538 -98181,-6821547 -98185,-6821555 -98194,-6821567 -98224,-6821616 -98228,-6821626 -98230,-6821633 -98231,-6821641 -98230,-6821647 -98227,-6821657 -98222,-6821664 -98190,-6821687 -98188,-6821688 -98180,-6821687 -98143,-6821670 -98134,-6821679 -98133,-6821682 -98132,-6821687 -98132,-6821693 -98136,-6821702 -98139,-6821706 -98154,-6821718 -98159,-6821725 -98163,-6821731 -98164,-6821736 -98166,-6821742 -98166,-6821768 -98164,-6821811 -98162,-6821819 -98160,-6821825 -98156,-6821833 -98146,-6821844 -98117,-6821864 -98112,-6821865 -98107,-6821865 -98104,-6821864 -98089,-6821856 -98081,-6821855 -98072,-6821854 -98058,-6821860 -98043,-6821874 -98041,-6821878 -98037,-6821886 -98035,-6821895 -98034,-6821904 -98036,-6821912 -98044,-6821933 -98046,-6821941 -98047,-6821967 -98049,-6821975 -98053,-6821989 -98055,-6821997 -98055,-6822004 -98055,-6822010 -98052,-6822018 -98050,-6822031 -98050,-6822035 -98045,-6822120 -98046,-6822169 -98034,-6822180 -98022,-6822186 -98016,-6822192 -98014,-6822197 -98012,-6822203 -98012,-6822233 -98009,-6822242 -98006,-6822247 -98001,-6822251 -97978,-6822263 -97970,-6822266 -97967,-6822269 -97965,-6822272 -97963,-6822276 -97963,-6822282 -97964,-6822289 -97967,-6822299 -97989,-6822335 -98002,-6822356 -98007,-6822370 -98007,-6822375 -98005,-6822380 -97999,-6822395 -97996,-6822405 -97995,-6822413 -97997,-6822417 -98002,-6822422 -98043,-6822444 -98050,-6822450 -98053,-6822456 -98054,-6822463 -98052,-6822484 -98029,-6822525 -98026,-6822534 -98021,-6822541 -98014,-6822548 -98007,-6822551 -98003,-6822553 -97994,-6822553 -97971,-6822543 -97953,-6822538 -97947,-6822538 -97941,-6822542 -97935,-6822549 -97927,-6822577 -97924,-6822588 -97922,-6822601 -97922,-6822609 -97923,-6822615 -97923,-6822616 -97928,-6822626 -97969,-6822673 -97974,-6822680 -97979,-6822694 -97985,-6822713 -97991,-6822741 -98009,-6822789 -98024,-6822818 -98029,-6822831 -98031,-6822838 -98031,-6822854 -98027,-6822889 -98022,-6822914 -98026,-6822931 -98037,-6822965 -98041,-6823000 -97997,-6823026 -97956,-6823054 -97953,-6823055 -97939,-6823062 -97929,-6823051 -97893,-6823024 -97875,-6823007 -97852,-6822988 -97834,-6822965 -97577,-6823130 -97554,-6823155 -97539,-6823172 -97526,-6823178 -97511,-6823187 -97506,-6823201 -97435,-6823281 -97401,-6823308 -97298,-6823388 -97234,-6823441 -97202,-6823465 -97169,-6823490 -97083,-6823546 -96862,-6823675 -96807,-6823705 -96799,-6823713 -96800,-6823728 -96738,-6823776 -96734,-6823778 -96702,-6823697 -96696,-6823681 -96653,-6823684 -96617,-6823687 -96550,-6823686 -96492,-6823695 -96455,-6823698 -96401,-6823695 -96381,-6823705 -96357,-6823721 -96327,-6823736 -96303,-6823738 -96288,-6823731 -96277,-6823718 -96261,-6823715 -96226,-6823719 -96145,-6823748 -96081,-6823765 -96065,-6823768 -96034,-6823772 -96019,-6823773 -95985,-6823773 -95948,-6823767 -95913,-6823771 -95806,-6823801 -95776,-6823808 -95714,-6823829 -95646,-6823844 -95596,-6823863 -95567,-6823867 -95539,-6823868 -95511,-6823871 -95464,-6823881 -95426,-6823891 -95396,-6823895 -95343,-6823895 -95268,-6823896 -95247,-6823900 -95226,-6823904 -95176,-6823922 -95134,-6823936 -95094,-6823953 -95067,-6823960 -95014,-6823968 -95006,-6823965 -94987,-6823913 -94985,-6823887 -94978,-6823875 -94973,-6823845 -94967,-6823828 -94967,-6823812 -94965,-6823791 -94946,-6823736 -94948,-6823726 -94916,-6823681 -94865,-6823620 -94838,-6823600 -94812,-6823584 -94762,-6823546 -94705,-6823547 -94637,-6823561 -94595,-6823568 -94562,-6823568 -94546,-6823566 -94521,-6823569 -94500,-6823575 -94460,-6823580 -94418,-6823580 -94405,-6823579 -94392,-6823577 -94350,-6823567 -94328,-6823564 -94258,-6823558 -94233,-6823562 -94238,-6823573 -94189,-6823586 -94154,-6823598 -94104,-6823618 -94011,-6823646 -93985,-6823657 -93952,-6823660 -93916,-6823661 -93802,-6823687 -93764,-6823693 -93721,-6823705 -93672,-6823714 -93592,-6823720 -93566,-6823722 -93540,-6823727 -93432,-6823751 -93405,-6823758 -93379,-6823767 -93351,-6823777 -93324,-6823787 -93311,-6823794 -93298,-6823801 -93277,-6823815 -93248,-6823853 -93209,-6823901 -93180,-6823951 -93144,-6823998 -93113,-6824036 -93096,-6824052 -93089,-6824064 -93071,-6824095 -93057,-6824127 -93037,-6824180 -92894,-6824100 -92817,-6824045 -92722,-6823983 -92707,-6823976 -92691,-6823963 -92667,-6823937 -92657,-6823933 -92654,-6823931 -92647,-6823923 -92630,-6823892 -92622,-6823893 -92353,-6824045 -92195,-6824138 -92219,-6824378 -92222,-6824426 -92212,-6824419 -92227,-6824551 -92229,-6824604 -92242,-6824698 -92250,-6824721 -92253,-6824743 -92264,-6824800 -92275,-6824842 -92290,-6824898 -92301,-6824936 -92311,-6824970 -92347,-6825082 -92367,-6825151 -92431,-6825348 -92500,-6825564 -92546,-6825713 -92552,-6825739 -92572,-6825935 -92584,-6825994 -92594,-6826065 -92595,-6826083 -92598,-6826095 -92614,-6826147 -92568,-6826149 -92309,-6826147 -92080,-6826144 -91488,-6826129 -91261,-6826119 -91073,-6826124 -90991,-6826121 -90897,-6826118 -90699,-6825987 -90618,-6825927 -90592,-6826030 -90579,-6826094 -90569,-6826132 -90564,-6826163 -90534,-6826226 -90528,-6826234 -90523,-6826240 -90515,-6826247 -90496,-6826259 -90486,-6826264 -90478,-6826266 -90467,-6826268 -90479,-6826347 -90483,-6826392 -90481,-6826434 -90482,-6826476 -90485,-6826490 -90484,-6826500 -90483,-6826509 -90481,-6826514 -90474,-6826525 -90451,-6826552 -90389,-6826605 -90339,-6826667 -90328,-6826686 -90288,-6826785 -90277,-6826822 -90260,-6826848 -90246,-6826865 -90232,-6826883 -90218,-6826898 -90205,-6826909 -90191,-6826920 -90166,-6826936 -90114,-6826975 -90088,-6827002 -90077,-6827019 -90098,-6827032 -90087,-6827050 -90079,-6827066 -90076,-6827076 -90071,-6827093 -90067,-6827112 -90066,-6827125 -90064,-6827222 -90072,-6827267 -90088,-6827295 -90042,-6827364 -90005,-6827408 -89957,-6827456 -89922,-6827487 -89897,-6827514 -89885,-6827529 -89879,-6827539 -89873,-6827548 -89867,-6827562 -89862,-6827582 -89858,-6827601 -89856,-6827614 -89853,-6827703 -89852,-6827715 -89851,-6827727 -89845,-6827730 -89845,-6827741 -89849,-6827749 -89832,-6827779 -89828,-6827804 -89831,-6827831 -89843,-6827877 -89854,-6828016 -89865,-6828117 -89872,-6828165 -89881,-6828240 -89887,-6828269 -89891,-6828392 -89900,-6828559 -89830,-6828550 -89818,-6828549 -89808,-6828546 -89800,-6828545 -89787,-6828546 -89780,-6828548 -89764,-6828556 -89742,-6828568 -89734,-6828577 -89721,-6828599 -89715,-6828606 -89708,-6828613 -89700,-6828619 -89691,-6828624 -89682,-6828628 -89673,-6828630 -89658,-6828633 -89627,-6828632 -89604,-6828643 -89481,-6828647 -89445,-6828651 -89422,-6828656 -89411,-6828656 -89401,-6828656 -89390,-6828655 -89380,-6828655 -89370,-6828656 -89359,-6828659 -89353,-6828662 -89347,-6828666 -89340,-6828673 -89330,-6828686 -89326,-6828693 -89313,-6828724 -89305,-6828765 -89290,-6828827 -89280,-6828848 -89273,-6828867 -89272,-6828848 -89235,-6828788 -89189,-6828737 -89136,-6828689 -89071,-6828628 -89055,-6828616 -89046,-6828607 -89039,-6828599 -89023,-6828574 -89016,-6828562 -89006,-6828536 -88973,-6828403 -88937,-6828285 -88935,-6828266 -88912,-6828229 -88884,-6828209 -88866,-6828187 -88857,-6828174 -88849,-6828161 -88844,-6828136 -88801,-6828062 -88774,-6828047 -88759,-6828032 -88727,-6827950 -88705,-6827910 -88651,-6827930 -88562,-6827956 -88485,-6827991 -88398,-6828027 -88395,-6827989 -88387,-6827939 -88385,-6827930 -88379,-6827916 -88376,-6827907 -88374,-6827895 -88373,-6827882 -88374,-6827867 -88379,-6827847 -88399,-6827800 -88411,-6827768 -88415,-6827752 -88416,-6827721 -88338,-6827707 -88324,-6827686 -88280,-6827615 -88255,-6827580 -88244,-6827568 -88233,-6827560 -88224,-6827556 -88205,-6827550 -88191,-6827541 -88175,-6827534 -88147,-6827561 -88126,-6827576 -88074,-6827624 -88034,-6827645 -87994,-6827674 -87962,-6827713 -87922,-6827754 -87916,-6827763 -87910,-6827771 -87900,-6827814 -87891,-6827839 -87881,-6827857 -87870,-6827873 -87857,-6827886 -87844,-6827895 -87794,-6827953 -87717,-6828037 -87688,-6828062 -87684,-6828090 -87682,-6828102 -87680,-6828108 -87674,-6828117 -87659,-6828131 -87654,-6828139 -87650,-6828149 -87645,-6828163 -87640,-6828186 -87633,-6828245 -87617,-6828295 -87598,-6828321 -87579,-6828341 -87574,-6828381 -87567,-6828397 -87562,-6828432 -87541,-6828478 -87523,-6828507 -87518,-6828516 -87512,-6828538 -87505,-6828552 -87477,-6828596 -87460,-6828628 -87431,-6828665 -87402,-6828697 -87368,-6828759 -87348,-6828784 -87320,-6828815 -87295,-6828867 -87276,-6828913 -87266,-6828970 -87234,-6829079 -87230,-6829090 -87207,-6829139 -87209,-6829157 -87179,-6829212 -87150,-6829258 -87066,-6829367 -87051,-6829385 -87027,-6829411 -87017,-6829447 -86993,-6829498 -86940,-6829568 -86912,-6829617 -86894,-6829671 -86863,-6829716 -86887,-6829727 -86933,-6829757 -87027,-6829804 -87076,-6829819 -87094,-6829827 -87112,-6829835 -87151,-6829862 -87173,-6829867 -87172,-6829891 -87172,-6829949 -87171,-6830030 -87184,-6830182 -87080,-6830165 -87003,-6830154 -86936,-6830141 -86775,-6830121 -86754,-6830207 -86724,-6830331 -86689,-6830407 -86709,-6830417 -86682,-6830508 -86632,-6830655 -86622,-6830672 -86614,-6830682 -86603,-6830692 -86593,-6830699 -86583,-6830703 -86572,-6830706 -86555,-6830708 -86405,-6830701 -86374,-6830698 -86344,-6830696 -86341,-6830686 -86293,-6830687 -86174,-6830706 -86148,-6830711 -86115,-6830720 -86075,-6830732 -86018,-6830753 -85975,-6830771 -85939,-6830787 -85893,-6830816 -85800,-6830867 -85789,-6830880 -85652,-6830948 -85564,-6830980 -85495,-6831014 -85418,-6831040 -85347,-6831061 -85269,-6831095 -85196,-6831121 -85179,-6831081 -85154,-6831025 -85134,-6830972 -85125,-6830917 -85127,-6830857 -85123,-6830800 -85115,-6830740 -85111,-6830722 -85093,-6830675 -85082,-6830623 -85077,-6830592 -85074,-6830570 -85063,-6830522 -85058,-6830508 -85052,-6830493 -85044,-6830480 -85022,-6830450 -84975,-6830394 -84943,-6830338 -84926,-6830303 -84911,-6830272 -84905,-6830252 -84901,-6830227 -84901,-6830220 -84908,-6830171 -84911,-6830137 -84913,-6830071 -84912,-6830053 -84908,-6830011 -84900,-6829973 -84893,-6829950 -84878,-6829915 -84863,-6829870 -84848,-6829832 -84842,-6829813 -84840,-6829800 -84830,-6829732 -84813,-6829739 -84804,-6829743 -84791,-6829751 -84741,-6829796 -84724,-6829816 -84715,-6829828 -84711,-6829834 -84692,-6829893 -84678,-6829933 -84669,-6829963 -84653,-6829982 -84650,-6829986 -84642,-6830001 -84628,-6830028 -84623,-6830048 -84621,-6830058 -84621,-6830076 -84614,-6830102 -84610,-6830109 -84599,-6830124 -84585,-6830142 -84571,-6830158 -84556,-6830175 -84547,-6830184 -84493,-6830231 -84451,-6830271 -84410,-6830326 -84346,-6830394 -84327,-6830411 -84318,-6830418 -84299,-6830431 -84290,-6830437 -84247,-6830459 -84212,-6830473 -84191,-6830479 -84165,-6830484 -84128,-6830490 -84109,-6830492 -84085,-6830492 -84064,-6830491 -84031,-6830487 -83993,-6830477 -83945,-6830458 -83935,-6830456 -83921,-6830452 -83906,-6830449 -83883,-6830447 -83866,-6830448 -83849,-6830453 -83823,-6830460 -83775,-6830468 -83755,-6830474 -83725,-6830482 -83684,-6830485 -83607,-6830484 -83562,-6830493 -83549,-6830467 -83523,-6830426 -83482,-6830381 -83460,-6830355 -83418,-6830397 -83368,-6830459 -83314,-6830521 -83265,-6830569 -83204,-6830610 -83145,-6830647 -83101,-6830678 -83087,-6830687 -83073,-6830697 -83060,-6830709 -83051,-6830717 -83039,-6830733 -83033,-6830742 -83029,-6830752 -83028,-6830757 -83027,-6830760 -83025,-6830768 -83025,-6830775 -83026,-6830788 -83018,-6830834 -83015,-6830844 -83011,-6830853 -83005,-6830864 -82999,-6830874 -82980,-6830901 -82958,-6830931 -82947,-6830943 -82933,-6830956 -82910,-6830972 -82818,-6831023 -82730,-6831066 -82703,-6831078 -82676,-6831089 -82659,-6831095 -82626,-6831103 -82560,-6831112 -82460,-6831118 -82413,-6831118 -82309,-6831127 -82259,-6831135 -82253,-6831154 -82250,-6831183 -82254,-6831212 -82260,-6831226 -82261,-6831233 -82261,-6831248 -82260,-6831255 -82254,-6831271 -82237,-6831328 -82168,-6831457 -82145,-6831494 -82116,-6831554 -82090,-6831588 -82021,-6831577 -81987,-6831568 -81959,-6831562 -81931,-6831558 -81908,-6831555 -81879,-6831555 -81841,-6831558 -81822,-6831558 -81789,-6831557 -81780,-6831572 -81701,-6831698 -81645,-6831777 -81639,-6831787 -81629,-6831804 -81622,-6831819 -81604,-6831873 -81591,-6831905 -81523,-6832025 -81431,-6832170 -81324,-6832334 -81270,-6832425 -81191,-6832589 -81197,-6832597 -81180,-6832641 -81162,-6832643 -81150,-6832646 -81137,-6832650 -81127,-6832655 -81090,-6832677 -81026,-6832713 -80933,-6832790 -80891,-6832825 -80776,-6832889 -80761,-6832896 -80728,-6832911 -80694,-6832925 -80664,-6832937 -80636,-6832945 -80592,-6832955 -80537,-6832972 -80511,-6832982 -80485,-6832993 -80430,-6833028 -80405,-6833040 -80385,-6833046 -80354,-6833055 -80299,-6833061 -80284,-6833065 -80263,-6833071 -80232,-6833082 -80189,-6833104 -80156,-6833123 -80039,-6833203 -80014,-6833227 -79995,-6833250 -79952,-6833294 -79921,-6833333 -79887,-6833405 -79850,-6833464 -79838,-6833481 -79828,-6833496 -79820,-6833512 -79804,-6833552 -79788,-6833599 -79777,-6833623 -79726,-6833701 -79707,-6833725 -79695,-6833740 -79673,-6833762 -79598,-6833848 -79597,-6833849 -79574,-6833873 -79529,-6833920 -79497,-6833941 -79480,-6833946 -79448,-6833966 -79370,-6834040 -79350,-6834063 -79336,-6834081 -79322,-6834102 -79230,-6834209 -79217,-6834223 -79197,-6834241 -79177,-6834256 -79161,-6834267 -79150,-6834274 -79131,-6834282 -79117,-6834286 -79097,-6834289 -79069,-6834291 -79034,-6834290 -79016,-6834291 -78992,-6834294 -78970,-6834299 -78954,-6834303 -78937,-6834309 -78915,-6834318 -78898,-6834326 -78887,-6834333 -78859,-6834353 -78823,-6834385 -78797,-6834411 -78779,-6834433 -78674,-6834530 -78579,-6834620 -78571,-6834628 -78485,-6834695 -78496,-6834753 -78530,-6834838 -78445,-6834912 -78372,-6834962 -78291,-6835022 -78221,-6835082 -78151,-6835126 -78109,-6835153 -78092,-6835163 -78074,-6835172 -77962,-6835183 -77899,-6835197 -77841,-6835220 -77791,-6835245 -77781,-6835249 -77750,-6835263 -77724,-6835275 -77712,-6835280 -77697,-6835284 -77608,-6835303 -77516,-6835334 -77487,-6835348 -77461,-6835363 -77440,-6835377 -77426,-6835387 -77323,-6835467 -77308,-6835482 -77294,-6835494 -77284,-6835500 -77264,-6835509 -77217,-6835523 -77177,-6835531 -77156,-6835533 -77082,-6835540 -76953,-6835543 -76811,-6835568 -76755,-6835576 -76703,-6835583 -76652,-6835589 -76565,-6835598 -76498,-6835600 -76435,-6835608 -76371,-6835622 -76313,-6835647 -76263,-6835675 -76215,-6835703 -76190,-6835688 -76009,-6835638 -75934,-6835616" stroke="#003087" stroke-width="74" /></svg>