<?xml version="1.0" standalone="no"?>
<!DOCTYPE svg PUBLIC "-//W3C//DTD SVG 1.1//EN"
"http://www.w3.org/Graphics/SVG/1.1/DTD/svg11.dtd">
<svg height="115" version="1.1" viewBox="-227388 -6585795 16868 20656" width="220" xmlns="http://www.w3.org/2000/svg"><polygon fill="#003087" points=" -215512,-6584329 -215531,-6584215 -215536,-6584191 -215544,-6584166 -215546,-6584153 -215541,-6584115 -215540,-6584099 -215544,-6584068 -215551,-6584045 -215557,-6584031 -215577,-6583990 -215593,-6583953 -215605,-6583944 -215610,-6583940 -215616,-6583935 -215621,-6583927 -215653,-6583834 -215669,-6583800 -215674,-6583791 -215687,-6583776 -215709,-6583757 -215716,-6583752 -215814,-6583694 -215818,-6583690 -215828,-6583679 -215839,-6583655 -215844,-6583644 -215851,-6583620 -215851,-6583606 -215848,-6583587 -215846,-6583577 -215843,-6583568 -215834,-6583554 -215800,-6583520 -215768,-6583486 -215743,-6583461 -215731,-6583452 -215719,-6583446 -215691,-6583438 -215652,-6583431 -215640,-6583426 -215634,-6583422 -215630,-6583417 -215625,-6583409 -215622,-6583401 -215621,-6583394 -215619,-6583379 -215619,-6583367 -215620,-6583351 -215621,-6583335 -215630,-6583285 -215667,-6583172 -215673,-6583152 -215680,-6583108 -215681,-6583097 -215681,-6583088 -215677,-6583060 -215662,-6583015 -215639,-6582960 -215625,-6582940 -215614,-6582929 -215575,-6582900 -215540,-6582876 -215531,-6582871 -215522,-6582866 -215510,-6582863 -215443,-6582849 -215428,-6582842 -215421,-6582837 -215409,-6582826 -215396,-6582812 -215385,-6582796 -215349,-6582728 -215295,-6582671 -215257,-6582640 -215224,-6582616 -215223,-6582616 -215217,-6582609 -215208,-6582587 -215185,-6582506 -215172,-6582483 -215161,-6582471 -215149,-6582468 -215134,-6582468 -215076,-6582474 -214997,-6582496 -214937,-6582511 -214895,-6582517 -214824,-6582535 -214802,-6582540 -214757,-6582545 -214664,-6582553 -214648,-6582556 -214615,-6582566 -214603,-6582569 -214571,-6582583 -214512,-6582610 -214433,-6582656 -214415,-6582669 -214404,-6582680 -214389,-6582698 -214380,-6582708 -214370,-6582718 -214359,-6582728 -214346,-6582745 -214332,-6582773 -214318,-6582809 -214306,-6582894 -214300,-6582919 -214296,-6582931 -214275,-6582969 -214253,-6583003 -214222,-6583036 -214204,-6583050 -214181,-6583063 -214157,-6583071 -214144,-6583073 -214124,-6583074 -214082,-6583070 -214012,-6583058 -214000,-6583059 -213995,-6583061 -213984,-6583066 -213966,-6583077 -213948,-6583092 -213932,-6583110 -213892,-6583144 -213883,-6583149 -213836,-6583171 -213784,-6583188 -213760,-6583192 -213728,-6583191 -213720,-6583190 -213695,-6583183 -213689,-6583180 -213678,-6583174 -213669,-6583168 -213663,-6583160 -213656,-6583152 -213647,-6583137 -213638,-6583114 -213637,-6583109 -213636,-6583105 -213637,-6583091 -213654,-6583043 -213663,-6583025 -213685,-6582990 -213692,-6582979 -213694,-6582974 -213697,-6582963 -213699,-6582949 -213700,-6582933 -213699,-6582910 -213693,-6582877 -213680,-6582842 -213674,-6582831 -213659,-6582806 -213606,-6582694 -213598,-6582669 -213586,-6582631 -213584,-6582621 -213578,-6582578 -213580,-6582562 -213587,-6582542 -213614,-6582495 -213616,-6582489 -213625,-6582464 -213628,-6582441 -213627,-6582422 -213626,-6582414 -213623,-6582404 -213613,-6582383 -213609,-6582369 -213610,-6582356 -213620,-6582333 -213633,-6582307 -213649,-6582285 -213677,-6582263 -213702,-6582245 -213744,-6582211 -213757,-6582195 -213781,-6582159 -213798,-6582133 -213818,-6582109 -213831,-6582095 -213835,-6582089 -213863,-6582033 -213883,-6581987 -213893,-6581959 -213897,-6581942 -213906,-6581888 -213910,-6581805 -213909,-6581795 -213905,-6581782 -213899,-6581770 -213889,-6581754 -213883,-6581747 -213830,-6581700 -213815,-6581689 -213788,-6581681 -213782,-6581680 -213772,-6581680 -213754,-6581682 -213724,-6581683 -213712,-6581681 -213692,-6581673 -213683,-6581667 -213674,-6581660 -213660,-6581648 -213649,-6581635 -213645,-6581629 -213642,-6581623 -213639,-6581611 -213637,-6581588 -213638,-6581569 -213642,-6581550 -213646,-6581534 -213681,-6581546 -213718,-6581551 -213735,-6581547 -213810,-6581492 -213916,-6581405 -213960,-6581371 -213963,-6581368 -213936,-6581307 -213999,-6581269 -214055,-6581232 -214060,-6581209 -214073,-6581178 -214120,-6581098 -214139,-6581073 -214155,-6581055 -214184,-6581033 -214198,-6581026 -214218,-6581005 -214190,-6580981 -214205,-6580937 -214208,-6580920 -214204,-6580915 -214206,-6580903 -214219,-6580877 -214230,-6580816 -214237,-6580790 -214245,-6580769 -214249,-6580750 -214250,-6580740 -214248,-6580723 -214244,-6580702 -214243,-6580690 -214265,-6580687 -214270,-6580686 -214277,-6580682 -214282,-6580678 -214319,-6580639 -214322,-6580632 -214328,-6580612 -214348,-6580589 -214362,-6580570 -214387,-6580537 -214401,-6580515 -214492,-6580420 -214511,-6580406 -214519,-6580398 -214525,-6580386 -214530,-6580363 -214546,-6580320 -214558,-6580287 -214574,-6580230 -214590,-6580179 -214603,-6580132 -214604,-6580122 -214603,-6580082 -214605,-6580059 -214609,-6580043 -214624,-6580008 -214634,-6579974 -214634,-6579966 -214632,-6579955 -214630,-6579950 -214628,-6579946 -214624,-6579941 -214610,-6579932 -214607,-6579928 -214604,-6579920 -214604,-6579912 -214609,-6579902 -214636,-6579871 -214625,-6579855 -214567,-6579805 -214490,-6579731 -214491,-6579701 -214494,-6579694 -214601,-6579552 -214619,-6579530 -214659,-6579475 -214687,-6579426 -214745,-6579351 -214747,-6579338 -214776,-6579300 -214898,-6579125 -214937,-6579087 -215016,-6578995 -215067,-6578933 -215074,-6578924 -215142,-6578846 -215288,-6578672 -215324,-6578631 -215384,-6578560 -215418,-6578515 -215545,-6578366 -215587,-6578317 -215652,-6578240 -215665,-6578223 -215693,-6578189 -215654,-6578177 -215636,-6578172 -215570,-6578147 -215529,-6578133 -215508,-6578125 -215445,-6578098 -215410,-6578077 -215310,-6578013 -215285,-6577994 -215278,-6577987 -215191,-6577932 -215101,-6577872 -214996,-6577800 -214899,-6577741 -214856,-6577712 -214501,-6577475 -214352,-6577373 -214346,-6577368 -214224,-6577286 -214122,-6577220 -214017,-6577154 -213877,-6577061 -213751,-6576971 -213705,-6576937 -213663,-6576908 -213598,-6576859 -213583,-6576850 -213568,-6576842 -213534,-6576828 -213269,-6576749 -213244,-6576741 -213148,-6576712 -212865,-6576632 -212865,-6576614 -212792,-6576594 -212686,-6576561 -212607,-6576534 -212492,-6576506 -212354,-6576468 -212296,-6576451 -212183,-6576418 -211956,-6576350 -211675,-6576268 -211495,-6576215 -211355,-6576170 -211287,-6576150 -211219,-6576131 -210960,-6576062 -210849,-6576028 -210795,-6576008 -210779,-6576003 -210766,-6575996 -210748,-6575977 -210735,-6575956 -210672,-6575869 -210660,-6575854 -210597,-6575824 -210580,-6575814 -210542,-6575789 -210520,-6575772 -210561,-6575741 -210642,-6575668 -210732,-6575573 -210757,-6575545 -210792,-6575510 -210807,-6575496 -210822,-6575482 -210877,-6575438 -210970,-6575359 -211025,-6575312 -211066,-6575282 -211092,-6575259 -211103,-6575239 -211110,-6575214 -211117,-6575135 -211121,-6575105 -211123,-6575094 -211132,-6575056 -211141,-6575028 -211152,-6574982 -211170,-6574932 -211177,-6574911 -211199,-6574877 -211220,-6574855 -211230,-6574845 -211274,-6574808 -211299,-6574780 -211317,-6574755 -211326,-6574736 -211344,-6574697 -211375,-6574619 -211430,-6574471 -211465,-6574368 -211468,-6574361 -211472,-6574354 -211491,-6574336 -211516,-6574318 -211583,-6574266 -211592,-6574258 -211598,-6574251 -211606,-6574226 -211619,-6574201 -211659,-6574130 -211673,-6574100 -211685,-6574073 -211711,-6574004 -211792,-6573778 -211805,-6573738 -211827,-6573681 -211848,-6573624 -211864,-6573586 -211880,-6573549 -211901,-6573505 -211933,-6573423 -211951,-6573371 -211982,-6573289 -212043,-6573138 -212084,-6573040 -212100,-6572999 -212127,-6572912 -212136,-6572880 -212139,-6572854 -212142,-6572783 -212144,-6572721 -212152,-6572565 -212153,-6572560 -212153,-6572552 -212160,-6572466 -212170,-6572355 -212187,-6572199 -212192,-6572109 -212201,-6572000 -212209,-6571940 -212229,-6571824 -212267,-6571610 -212305,-6571412 -212314,-6571353 -212332,-6571262 -212346,-6571207 -212349,-6571189 -212326,-6571159 -212266,-6571072 -212192,-6570959 -212121,-6570852 -212090,-6570794 -212009,-6570670 -211924,-6570547 -211836,-6570413 -211676,-6570167 -211624,-6570081 -211607,-6570054 -211575,-6569998 -211580,-6569996 -211592,-6569993 -211606,-6569985 -211618,-6569979 -211630,-6569976 -211640,-6569970 -211657,-6569969 -211674,-6569959 -211696,-6569949 -211711,-6569942 -211724,-6569936 -211732,-6569931 -211737,-6569926 -211741,-6569922 -211746,-6569920 -211753,-6569914 -211760,-6569912 -211769,-6569908 -211779,-6569902 -211796,-6569894 -211813,-6569887 -211823,-6569880 -211832,-6569873 -211841,-6569864 -211853,-6569859 -211866,-6569852 -211879,-6569843 -211892,-6569835 -211910,-6569830 -211918,-6569825 -211931,-6569816 -211945,-6569809 -211961,-6569801 -211980,-6569791 -212004,-6569777 -212024,-6569760 -212040,-6569748 -212047,-6569737 -212070,-6569724 -212086,-6569713 -212098,-6569705 -212139,-6569677 -212161,-6569660 -212189,-6569644 -212224,-6569617 -212257,-6569594 -212303,-6569565 -212344,-6569533 -212407,-6569492 -212450,-6569461 -212479,-6569443 -212497,-6569432 -212527,-6569409 -212556,-6569391 -212574,-6569376 -212591,-6569364 -212623,-6569341 -212641,-6569326 -212657,-6569316 -212664,-6569311 -212716,-6569282 -212750,-6569258 -212817,-6569214 -212850,-6569192 -212870,-6569174 -212885,-6569167 -212912,-6569146 -212967,-6569107 -213013,-6569066 -213018,-6569062 -213021,-6569061 -213034,-6569053 -213039,-6569049 -213046,-6569041 -213052,-6569032 -213069,-6568997 -213077,-6568988 -213080,-6568985 -213097,-6568978 -213107,-6568975 -213153,-6568969 -213172,-6568964 -213202,-6568951 -213208,-6568944 -213210,-6568940 -213210,-6568937 -213208,-6568932 -213196,-6568924 -213193,-6568922 -213191,-6568920 -213190,-6568916 -213192,-6568913 -213197,-6568911 -213250,-6568862 -213315,-6568827 -213372,-6568794 -213412,-6568770 -213431,-6568761 -213446,-6568754 -213467,-6568746 -213480,-6568736 -213484,-6568730 -213484,-6568727 -213483,-6568724 -213480,-6568720 -213473,-6568714 -213462,-6568710 -213460,-6568708 -213458,-6568704 -213458,-6568700 -213459,-6568697 -213472,-6568676 -213479,-6568668 -213487,-6568661 -213508,-6568643 -213529,-6568625 -213636,-6568569 -213641,-6568564 -213646,-6568557 -213649,-6568551 -213649,-6568547 -213649,-6568544 -213645,-6568539 -213628,-6568528 -213828,-6568382 -213888,-6568341 -213891,-6568337 -213893,-6568333 -213895,-6568328 -213895,-6568323 -213894,-6568318 -213892,-6568316 -213883,-6568308 -213880,-6568304 -213879,-6568302 -213880,-6568294 -213884,-6568287 -213937,-6568241 -213991,-6568199 -214014,-6568184 -214027,-6568176 -214034,-6568172 -214063,-6568159 -214075,-6568152 -214169,-6568067 -214188,-6568042 -214189,-6568038 -214188,-6568036 -214186,-6568034 -214175,-6568031 -214157,-6568031 -214150,-6568030 -214144,-6568027 -214140,-6568024 -214139,-6568021 -214138,-6568018 -214139,-6568017 -214141,-6568015 -214150,-6568012 -214166,-6568005 -214171,-6568002 -214184,-6567997 -214191,-6567996 -214212,-6567993 -214222,-6567990 -214235,-6567984 -214247,-6567976 -214252,-6567972 -214280,-6567935 -214328,-6567900 -214346,-6567884 -214355,-6567873 -214363,-6567863 -214398,-6567806 -214423,-6567769 -214521,-6567669 -214553,-6567632 -214626,-6567538 -214651,-6567497 -214669,-6567473 -214680,-6567458 -214692,-6567444 -214720,-6567417 -214760,-6567387 -214770,-6567378 -214773,-6567375 -214804,-6567331 -214816,-6567313 -214824,-6567303 -214833,-6567294 -214844,-6567286 -214884,-6567242 -214908,-6567227 -214916,-6567220 -214923,-6567213 -214926,-6567211 -214933,-6567203 -214939,-6567195 -214946,-6567186 -214951,-6567178 -214957,-6567169 -214958,-6567168 -214969,-6567150 -214981,-6567131 -214982,-6567129 -214999,-6567103 -215003,-6567099 -215008,-6567093 -215015,-6567088 -215021,-6567083 -215028,-6567079 -215035,-6567074 -215039,-6567070 -215055,-6567056 -215071,-6567041 -215087,-6567025 -215088,-6567024 -215108,-6567002 -215127,-6566980 -215139,-6566966 -215183,-6566918 -215200,-6566898 -215210,-6566885 -215216,-6566874 -215222,-6566864 -215227,-6566853 -215229,-6566850 -215239,-6566834 -215248,-6566820 -215264,-6566799 -215272,-6566788 -215283,-6566775 -215294,-6566763 -215304,-6566753 -215333,-6566719 -215367,-6566665 -215403,-6566612 -215442,-6566557 -215480,-6566503 -215515,-6566450 -215544,-6566411 -215574,-6566375 -215600,-6566350 -215609,-6566332 -215614,-6566315 -215632,-6566294 -215637,-6566285 -215650,-6566260 -215660,-6566244 -215689,-6566226 -215707,-6566208 -215719,-6566191 -215726,-6566182 -215715,-6566170 -215726,-6566158 -215736,-6566169 -215765,-6566141 -215782,-6566135 -215789,-6566130 -215795,-6566125 -215798,-6566122 -215803,-6566117 -215808,-6566111 -215812,-6566107 -215815,-6566101 -215818,-6566095 -215821,-6566090 -215821,-6566088 -215834,-6566065 -215838,-6566060 -215842,-6566056 -215846,-6566052 -215851,-6566049 -215855,-6566047 -215858,-6566045 -215864,-6566040 -215870,-6566034 -215876,-6566029 -215878,-6566027 -215903,-6566006 -215930,-6565981 -215946,-6565965 -215960,-6565949 -215976,-6565931 -215980,-6565926 -215994,-6565910 -215999,-6565901 -216004,-6565893 -216009,-6565884 -216013,-6565877 -216023,-6565858 -216025,-6565852 -216038,-6565829 -216042,-6565824 -216046,-6565820 -216048,-6565818 -216053,-6565813 -216059,-6565809 -216064,-6565805 -216067,-6565803 -216064,-6565777 -216092,-6565756 -216100,-6565752 -216146,-6565710 -216156,-6565701 -216167,-6565693 -216167,-6565692 -216178,-6565684 -216189,-6565677 -216198,-6565671 -216212,-6565664 -216225,-6565658 -216229,-6565655 -216237,-6565649 -216245,-6565643 -216250,-6565638 -216261,-6565629 -216270,-6565621 -216293,-6565593 -216298,-6565568 -216302,-6565562 -216309,-6565558 -216311,-6565559 -216316,-6565561 -216320,-6565562 -216325,-6565563 -216329,-6565564 -216334,-6565564 -216339,-6565563 -216344,-6565563 -216349,-6565561 -216353,-6565560 -216357,-6565559 -216367,-6565557 -216377,-6565553 -216387,-6565550 -216390,-6565548 -216402,-6565543 -216414,-6565537 -216415,-6565537 -216447,-6565523 -216473,-6565514 -216495,-6565505 -216502,-6565501 -216509,-6565497 -216515,-6565492 -216520,-6565489 -216534,-6565481 -216541,-6565477 -216570,-6565462 -216618,-6565437 -216644,-6565423 -216671,-6565396 -216731,-6565349 -216815,-6565242 -216897,-6565139 -216967,-6565165 -217106,-6565224 -217140,-6565241 -217165,-6565256 -217196,-6565278 -217261,-6565332 -217270,-6565341 -217291,-6565365 -217309,-6565391 -217363,-6565463 -217511,-6565671 -217529,-6565699 -217549,-6565735 -217558,-6565755 -217566,-6565774 -217573,-6565794 -217586,-6565840 -217594,-6565881 -217599,-6565922 -217600,-6565945 -217600,-6565972 -217599,-6565999 -217597,-6566027 -217592,-6566070 -217588,-6566095 -217581,-6566121 -217574,-6566145 -217558,-6566188 -217517,-6566271 -217477,-6566344 -217391,-6566484 -217366,-6566522 -217339,-6566558 -217261,-6566656 -217228,-6566703 -217204,-6566739 -217200,-6566747 -217190,-6566768 -217163,-6566829 -217149,-6566865 -217136,-6566901 -217130,-6566919 -217095,-6567046 -217088,-6567071 -217070,-6567151 -217058,-6567223 -217054,-6567247 -217050,-6567282 -217043,-6567383 -217041,-6567470 -217041,-6567539 -217045,-6567616 -217058,-6567734 -217060,-6567752 -217064,-6567778 -217073,-6567840 -217078,-6567870 -217088,-6567920 -217099,-6567963 -217108,-6567990 -217118,-6568018 -217131,-6568051 -217145,-6568081 -217162,-6568114 -217198,-6568167 -217222,-6568198 -217259,-6568245 -217286,-6568278 -217300,-6568294 -217324,-6568319 -217381,-6568374 -217414,-6568406 -217475,-6568459 -217567,-6568537 -217659,-6568605 -217725,-6568651 -217870,-6568729 -217909,-6568749 -217962,-6568771 -218006,-6568788 -218033,-6568796 -218075,-6568809 -218090,-6568813 -218179,-6568836 -218198,-6568840 -218256,-6568849 -218364,-6568859 -218434,-6568862 -218528,-6568863 -218601,-6568868 -218682,-6568880 -218822,-6568898 -219069,-6568924 -219162,-6568937 -219305,-6568963 -219415,-6568987 -219506,-6569010 -219730,-6569075 -219889,-6569125 -219994,-6569158 -220031,-6569166 -220044,-6569168 -220065,-6569170 -220099,-6569169 -220162,-6569164 -220190,-6569161 -220226,-6569154 -220264,-6569143 -220299,-6569130 -220323,-6569119 -220356,-6569102 -220373,-6569093 -220453,-6569042 -220518,-6569004 -220562,-6568980 -220690,-6568921 -220789,-6568879 -220991,-6568803 -221248,-6568713 -221366,-6568669 -221506,-6568622 -221705,-6568552 -221958,-6568472 -222045,-6568442 -222165,-6568397 -222246,-6568372 -222358,-6568342 -222374,-6568339 -222534,-6568323 -222568,-6568321 -222590,-6568321 -222637,-6568322 -222667,-6568325 -222696,-6568329 -222738,-6568343 -222750,-6568349 -222790,-6568371 -222868,-6568414 -222895,-6568418 -222989,-6568456 -223021,-6568467 -223112,-6568508 -223195,-6568554 -223315,-6568627 -223361,-6568659 -223413,-6568698 -223444,-6568722 -223490,-6568753 -223520,-6568782 -223548,-6568814 -223625,-6568935 -223689,-6569053 -223725,-6569116 -223769,-6569187 -223801,-6569243 -223841,-6569297 -223857,-6569319 -223889,-6569355 -223949,-6569412 -223994,-6569456 -224066,-6569517 -224116,-6569554 -224178,-6569596 -224297,-6569668 -224564,-6569820 -224661,-6569877 -224789,-6569947 -224818,-6569958 -225091,-6570089 -225185,-6570127 -225215,-6570144 -225318,-6570193 -225360,-6570209 -225398,-6570226 -225440,-6570243 -225457,-6570249 -225583,-6570289 -225637,-6570305 -225659,-6570311 -225683,-6570317 -225752,-6570331 -225895,-6570356 -225945,-6570369 -225960,-6570374 -226017,-6570394 -226051,-6570408 -226079,-6570425 -226140,-6570455 -226169,-6570473 -226225,-6570513 -226255,-6570546 -226302,-6570590 -226344,-6570642 -226376,-6570686 -226422,-6570754 -226452,-6570802 -226479,-6570837 -226543,-6570908 -226611,-6570966 -226651,-6570996 -226719,-6571041 -226809,-6571078 -226847,-6571089 -226923,-6571114 -226982,-6571136 -227055,-6571177 -227104,-6571196 -227147,-6571217 -227178,-6571239 -227196,-6571252 -227257,-6571309 -227298,-6571354 -227322,-6571385 -227369,-6571460 -227372,-6571466 -227377,-6571485 -227380,-6571510 -227387,-6571587 -227388,-6571625 -227383,-6571647 -227374,-6571677 -227359,-6571699 -227332,-6571728 -227324,-6571743 -227319,-6571764 -227309,-6571780 -227268,-6571813 -227192,-6571871 -227161,-6571904 -227150,-6571922 -227149,-6571926 -227149,-6571930 -227157,-6571984 -227143,-6572015 -227134,-6572022 -227100,-6572036 -227121,-6572045 -227129,-6572049 -227135,-6572053 -227147,-6572067 -227155,-6572081 -227162,-6572110 -227162,-6572119 -227161,-6572129 -227155,-6572160 -227141,-6572210 -227108,-6572294 -227086,-6572370 -227081,-6572394 -227081,-6572438 -227075,-6572563 -227068,-6572627 -227061,-6572676 -227053,-6572707 -227038,-6572769 -227035,-6572798 -227030,-6572818 -227027,-6572825 -227015,-6572850 -226994,-6572878 -226974,-6572900 -226953,-6572920 -226931,-6572940 -226920,-6572949 -226875,-6572968 -226837,-6572981 -226813,-6572991 -226796,-6573001 -226778,-6573010 -226729,-6573046 -226712,-6573055 -226695,-6573066 -226675,-6573077 -226625,-6573087 -226592,-6573090 -226583,-6573091 -226527,-6573093 -226479,-6573104 -226444,-6573114 -226430,-6573120 -226418,-6573129 -226402,-6573145 -226375,-6573175 -226350,-6573202 -226328,-6573211 -226295,-6573223 -226286,-6573227 -226261,-6573241 -226255,-6573248 -226249,-6573255 -226242,-6573267 -226236,-6573290 -226232,-6573315 -226225,-6573344 -226221,-6573352 -226217,-6573355 -226211,-6573358 -226207,-6573359 -226201,-6573358 -226196,-6573356 -226191,-6573353 -226187,-6573351 -226179,-6573350 -226172,-6573350 -226167,-6573351 -226162,-6573354 -226110,-6573386 -226069,-6573398 -226066,-6573403 -226060,-6573419 -226057,-6573425 -226051,-6573433 -226047,-6573436 -226038,-6573441 -226039,-6573467 -225975,-6573478 -225664,-6573547 -225630,-6573553 -225556,-6573569 -225544,-6573575 -225510,-6573588 -225497,-6573587 -225482,-6573583 -225438,-6573561 -225410,-6573560 -225396,-6573559 -225386,-6573566 -225371,-6573601 -225356,-6573646 -225331,-6573730 -225322,-6573778 -225292,-6573870 -225289,-6573914 -225247,-6574057 -225177,-6574285 -225156,-6574352 -225151,-6574369 -225122,-6574483 -225111,-6574514 -225109,-6574525 -225105,-6574544 -225104,-6574554 -225106,-6574579 -225146,-6574826 -224614,-6574792 -224488,-6574786 -224481,-6574787 -224476,-6574807 -224473,-6574820 -224461,-6574836 -224446,-6574849 -224395,-6574835 -224380,-6574835 -224373,-6574836 -224365,-6574838 -224339,-6574847 -224178,-6574902 -224145,-6574912 -224154,-6574956 -224153,-6575001 -224153,-6575004 -224146,-6575094 -224144,-6575143 -224131,-6575237 -224131,-6575293 -224134,-6575430 -224134,-6575508 -224120,-6575783 -224113,-6575854 -224114,-6575867 -224121,-6575874 -224095,-6576295 -224077,-6576574 -224056,-6576891 -224053,-6576926 -224052,-6576931 -224037,-6577179 -224020,-6577422 -224001,-6577732 -223987,-6577997 -223984,-6578044 -223972,-6578235 -223970,-6578311 -223967,-6578373 -223958,-6578491 -223953,-6578594 -223946,-6578689 -223934,-6578874 -223932,-6578910 -223925,-6578991 -223920,-6579091 -223892,-6579526 -223886,-6579637 -223884,-6579678 -223877,-6579755 -223857,-6580103 -223850,-6580188 -223846,-6580280 -223833,-6580423 -223832,-6580478 -223824,-6580567 -223822,-6580618 -223813,-6580724 -223810,-6580755 -223802,-6580904 -223799,-6580990 -223790,-6581187 -223781,-6581370 -223780,-6581376 -223771,-6581478 -223764,-6581569 -223762,-6581621 -223759,-6581662 -223757,-6581689 -223750,-6581842 -223745,-6581897 -223740,-6581990 -223735,-6582051 -223731,-6582139 -223730,-6582172 -223739,-6582176 -223740,-6582199 -223736,-6582302 -223731,-6582377 -223707,-6582513 -223701,-6582547 -223699,-6582564 -223699,-6582621 -223702,-6582681 -223701,-6582688 -223694,-6582703 -223685,-6582805 -223680,-6582846 -223679,-6582896 -223676,-6582926 -223649,-6582922 -223569,-6582908 -223554,-6582903 -223525,-6582896 -223521,-6582896 -223510,-6582902 -223491,-6582906 -223474,-6582913 -223379,-6582934 -223327,-6582952 -223315,-6582957 -223276,-6582975 -223273,-6582978 -223257,-6582996 -223215,-6583037 -223201,-6583047 -223184,-6583058 -223106,-6583104 -223059,-6583134 -222999,-6583171 -222965,-6583195 -222921,-6583222 -222912,-6583226 -222885,-6583236 -222881,-6583238 -222852,-6583261 -222837,-6583275 -222831,-6583283 -222814,-6583311 -222801,-6583312 -222790,-6583312 -222776,-6583315 -222772,-6583316 -222769,-6583319 -222740,-6583357 -222722,-6583373 -222704,-6583397 -222695,-6583405 -222692,-6583408 -222690,-6583411 -222683,-6583452 -222682,-6583456 -222670,-6583485 -222661,-6583497 -222650,-6583537 -222648,-6583547 -222642,-6583561 -222640,-6583570 -222632,-6583608 -222623,-6583641 -222624,-6583665 -222620,-6583677 -222619,-6583683 -222619,-6583708 -222618,-6583712 -222611,-6583724 -222592,-6583765 -222582,-6583801 -222579,-6583817 -222571,-6583851 -222568,-6583861 -222560,-6583882 -222542,-6583901 -222541,-6583908 -222542,-6583983 -222541,-6584054 -222543,-6584065 -222546,-6584071 -222570,-6584113 -222573,-6584121 -222577,-6584144 -222580,-6584149 -222585,-6584157 -222590,-6584161 -222596,-6584164 -222600,-6584166 -222630,-6584171 -222675,-6584181 -222721,-6584184 -222740,-6584183 -222776,-6584175 -222790,-6584171 -222797,-6584170 -222806,-6584171 -222816,-6584173 -222827,-6584176 -222946,-6584223 -223028,-6584239 -223180,-6584266 -223193,-6584274 -223201,-6584283 -223223,-6584307 -223250,-6584336 -223266,-6584344 -223278,-6584352 -223286,-6584364 -223289,-6584375 -223292,-6584394 -223284,-6584397 -223234,-6584415 -223143,-6584449 -223101,-6584465 -223060,-6584482 -222966,-6584518 -222924,-6584533 -222879,-6584553 -222790,-6584589 -222764,-6584599 -222738,-6584608 -222694,-6584623 -222556,-6584677 -222475,-6584705 -222443,-6584714 -222409,-6584722 -222384,-6584725 -222323,-6584730 -222263,-6584730 -222177,-6584722 -222162,-6584719 -222147,-6584717 -222131,-6584713 -222098,-6584704 -222082,-6584699 -222008,-6584663 -221970,-6584646 -221930,-6584622 -221903,-6584602 -221857,-6584564 -221817,-6584527 -221777,-6584484 -221764,-6584471 -221729,-6584441 -221700,-6584419 -221647,-6584478 -221626,-6584464 -221594,-6584450 -221508,-6584423 -221474,-6584411 -221397,-6584396 -221375,-6584394 -221341,-6584387 -221329,-6584386 -221325,-6584386 -221302,-6584387 -221255,-6584397 -221230,-6584405 -221197,-6584410 -221170,-6584417 -221164,-6584419 -221149,-6584428 -221109,-6584454 -221083,-6584465 -221059,-6584474 -221035,-6584483 -221000,-6584487 -220961,-6584487 -220950,-6584487 -220934,-6584484 -220918,-6584476 -220911,-6584472 -220905,-6584466 -220866,-6584427 -220831,-6584400 -220820,-6584397 -220816,-6584396 -220803,-6584398 -220760,-6584423 -220746,-6584432 -220738,-6584442 -220724,-6584470 -220701,-6584488 -220689,-6584500 -220649,-6584529 -220636,-6584535 -220611,-6584540 -220571,-6584541 -220562,-6584540 -220545,-6584536 -220538,-6584533 -220527,-6584527 -220514,-6584517 -220506,-6584501 -220503,-6584491 -220501,-6584455 -220498,-6584437 -220489,-6584418 -220475,-6584403 -220469,-6584401 -220459,-6584398 -220443,-6584395 -220431,-6584394 -220396,-6584397 -220391,-6584399 -220376,-6584407 -220349,-6584433 -220309,-6584483 -220301,-6584497 -220292,-6584523 -220292,-6584540 -220293,-6584550 -220301,-6584599 -220301,-6584603 -220298,-6584611 -220279,-6584642 -220273,-6584649 -220259,-6584660 -220230,-6584672 -220203,-6584670 -220188,-6584673 -220161,-6584684 -220142,-6584684 -220092,-6584676 -220040,-6584669 -219995,-6584659 -219950,-6584645 -219913,-6584639 -219859,-6584640 -219795,-6584646 -219739,-6584649 -219696,-6584653 -219643,-6584660 -219604,-6584663 -219488,-6584660 -219470,-6584657 -219423,-6584647 -219414,-6584647 -219397,-6584653 -219350,-6584664 -219322,-6584664 -219262,-6584664 -219226,-6584660 -219187,-6584651 -219164,-6584642 -219151,-6584610 -219146,-6584606 -219106,-6584579 -219077,-6584557 -219011,-6584497 -218959,-6584441 -218928,-6584411 -218912,-6584398 -218886,-6584383 -218869,-6584374 -218840,-6584363 -218817,-6584359 -218789,-6584356 -218723,-6584360 -218615,-6584373 -218578,-6584356 -218553,-6584341 -218527,-6584324 -218512,-6584315 -218507,-6584312 -218468,-6584283 -218440,-6584273 -218401,-6584263 -218316,-6584244 -218302,-6584239 -218288,-6584234 -218267,-6584223 -218191,-6584186 -218172,-6584162 -218123,-6584146 -218037,-6584119 -217999,-6584106 -217981,-6584106 -217957,-6584108 -217943,-6584114 -217908,-6584136 -217821,-6584198 -217789,-6584215 -217730,-6584252 -217693,-6584272 -217671,-6584283 -217651,-6584290 -217600,-6584296 -217484,-6584315 -217441,-6584316 -217375,-6584315 -217330,-6584319 -217256,-6584321 -217210,-6584331 -217155,-6584348 -217130,-6584362 -217117,-6584370 -217112,-6584375 -217100,-6584389 -217057,-6584465 -217013,-6584520 -216963,-6584565 -216934,-6584589 -216922,-6584601 -216909,-6584615 -216872,-6584665 -216838,-6584707 -216810,-6584737 -216768,-6584804 -216739,-6584853 -216707,-6584893 -216621,-6585013 -216588,-6585050 -216562,-6585084 -216552,-6585094 -216518,-6585119 -216501,-6585134 -216484,-6585150 -216428,-6585210 -216381,-6585250 -216363,-6585262 -216305,-6585297 -216279,-6585316 -216266,-6585328 -216227,-6585367 -216171,-6585443 -216156,-6585468 -216152,-6585477 -216147,-6585513 -216143,-6585559 -216146,-6585640 -216143,-6585661 -216141,-6585673 -216139,-6585678 -216132,-6585694 -216120,-6585715 -216104,-6585736 -216074,-6585771 -216062,-6585779 -216057,-6585781 -216057,-6585782 -216016,-6585793 -216000,-6585795 -215992,-6585794 -215985,-6585793 -215962,-6585786 -215953,-6585784 -215925,-6585782 -215866,-6585764 -215736,-6585701 -215700,-6585679 -215665,-6585646 -215623,-6585611 -215584,-6585570 -215554,-6585534 -215532,-6585500 -215528,-6585490 -215524,-6585481 -215519,-6585461 -215524,-6585341 -215519,-6585294 -215514,-6585277 -215474,-6585218 -215463,-6585160 -215449,-6585105 -215443,-6585076 -215429,-6584987 -215426,-6584964 -215425,-6584953 -215425,-6584942 -215426,-6584879 -215430,-6584821 -215435,-6584779 -215442,-6584740 -215454,-6584689 -215458,-6584669 -215471,-6584599 -215476,-6584559 -215478,-6584504 -215482,-6584476 -215500,-6584391 -215512,-6584329" stroke="#003087" stroke-width="37" /></svg>