<?xml version="1.0" standalone="no"?>
<!DOCTYPE svg PUBLIC "-//W3C//DTD SVG 1.1//EN"
"http://www.w3.org/Graphics/SVG/1.1/DTD/svg11.dtd">
<svg height="115" version="1.1" viewBox="-180883 -7121412 47432 31270" width="220" xmlns="http://www.w3.org/2000/svg"><polygon fill="#003087" points=" -144262,-7120972 -144247,-7120972 -144229,-7120973 -144084,-7120961 -144044,-7120956 -144010,-7120948 -143991,-7120941 -143966,-7120930 -143918,-7120905 -143896,-7120892 -143876,-7120879 -143859,-7120866 -143844,-7120854 -143817,-7120830 -143799,-7120810 -143775,-7120783 -143754,-7120757 -143737,-7120734 -143642,-7120596 -143602,-7120547 -143564,-7120496 -143546,-7120474 -143525,-7120450 -143514,-7120439 -143402,-7120348 -143333,-7120295 -143263,-7120238 -143244,-7120218 -143229,-7120200 -143212,-7120176 -143200,-7120157 -143188,-7120132 -143166,-7120083 -143147,-7120034 -143129,-7119986 -143096,-7119892 -143066,-7119818 -143054,-7119788 -143047,-7119775 -143035,-7119750 -143016,-7119718 -142925,-7119585 -142907,-7119565 -142833,-7119479 -142709,-7119334 -142659,-7119264 -142589,-7119194 -142552,-7119161 -142530,-7119140 -142509,-7119119 -142487,-7119094 -142469,-7119073 -142456,-7119055 -142446,-7119038 -142422,-7118994 -142383,-7118916 -142364,-7118870 -142350,-7118828 -142317,-7118698 -142279,-7118605 -142257,-7118564 -142231,-7118530 -142221,-7118521 -142203,-7118504 -142157,-7118467 -142137,-7118453 -142121,-7118443 -142084,-7118424 -142070,-7118419 -142056,-7118415 -142037,-7118410 -142015,-7118405 -141991,-7118403 -141971,-7118401 -141932,-7118403 -141902,-7118408 -141854,-7118409 -141845,-7118408 -141827,-7118405 -141793,-7118397 -141750,-7118384 -141733,-7118378 -141717,-7118371 -141703,-7118363 -141690,-7118354 -141676,-7118342 -141661,-7118326 -141633,-7118294 -141606,-7118254 -141594,-7118231 -141583,-7118208 -141568,-7118170 -141504,-7118018 -141492,-7117984 -141482,-7117942 -141479,-7117924 -141476,-7117896 -141473,-7117856 -141471,-7117814 -141471,-7117805 -141470,-7117751 -141473,-7117627 -141473,-7117596 -141471,-7117566 -141466,-7117514 -141454,-7117445 -141438,-7117330 -141429,-7117296 -141408,-7117233 -141391,-7117182 -141380,-7117155 -141355,-7117083 -141345,-7117043 -141335,-7117003 -141319,-7116907 -141330,-7116624 -141330,-7116587 -141325,-7116535 -141321,-7116511 -141317,-7116494 -141312,-7116479 -141304,-7116458 -141294,-7116437 -141285,-7116420 -141267,-7116394 -141251,-7116377 -141231,-7116360 -141210,-7116347 -141199,-7116341 -141172,-7116330 -140946,-7116274 -140869,-7116258 -140766,-7116225 -140684,-7116195 -140662,-7116185 -140537,-7116096 -140427,-7116031 -140331,-7115980 -140223,-7115915 -140144,-7115867 -140006,-7115772 -139912,-7115756 -139892,-7115754 -139872,-7115753 -139855,-7115756 -139831,-7115769 -139767,-7115843 -139657,-7115903 -139622,-7115930 -139544,-7115951 -139476,-7115955 -139383,-7115931 -139281,-7115911 -139268,-7115906 -139255,-7115901 -139255,-7115900 -139152,-7115850 -139085,-7115808 -139016,-7115765 -138990,-7115756 -138960,-7115750 -138947,-7115749 -138925,-7115748 -138822,-7115759 -138672,-7115789 -138572,-7115815 -138473,-7115835 -138444,-7115845 -138383,-7115855 -138348,-7115859 -138030,-7115863 -137988,-7115861 -137965,-7115861 -137946,-7115863 -137926,-7115865 -137906,-7115869 -137888,-7115874 -137851,-7115887 -137814,-7115902 -137650,-7115982 -137535,-7116043 -137445,-7116093 -137356,-7116140 -137175,-7116223 -137089,-7116266 -136969,-7116321 -136948,-7116329 -136933,-7116338 -136925,-7116341 -136913,-7116345 -136900,-7116347 -136886,-7116347 -136875,-7116346 -136861,-7116343 -136844,-7116337 -136828,-7116329 -136816,-7116322 -136806,-7116315 -136799,-7116307 -136792,-7116298 -136784,-7116285 -136706,-7116107 -136686,-7116065 -136674,-7116035 -136659,-7115983 -136655,-7115965 -136649,-7115932 -136647,-7115912 -136646,-7115889 -136646,-7115867 -136648,-7115849 -136651,-7115823 -136658,-7115788 -136666,-7115759 -136677,-7115727 -136702,-7115675 -136707,-7115662 -136713,-7115636 -136715,-7115624 -136717,-7115606 -136718,-7115593 -136716,-7115570 -136710,-7115540 -136701,-7115509 -136692,-7115488 -136683,-7115473 -136674,-7115460 -136664,-7115448 -136653,-7115438 -136641,-7115429 -136628,-7115421 -136614,-7115414 -136603,-7115409 -136593,-7115406 -136582,-7115404 -136566,-7115403 -136537,-7115401 -136486,-7115402 -136457,-7115405 -136441,-7115409 -136421,-7115413 -136404,-7115418 -136388,-7115425 -136372,-7115432 -136357,-7115440 -136343,-7115448 -136328,-7115459 -136311,-7115474 -136270,-7115514 -136257,-7115530 -136252,-7115540 -136248,-7115550 -136245,-7115567 -136246,-7115581 -136247,-7115587 -136254,-7115603 -136264,-7115625 -136268,-7115633 -136340,-7115732 -136348,-7115745 -136354,-7115759 -136358,-7115773 -136359,-7115783 -136359,-7115792 -136357,-7115802 -136353,-7115814 -136340,-7115843 -136332,-7115856 -136325,-7115866 -136316,-7115874 -136306,-7115880 -136238,-7115906 -136210,-7115912 -136194,-7115915 -136174,-7115916 -136067,-7115931 -136044,-7115938 -136029,-7115944 -136014,-7115952 -136002,-7115961 -135957,-7115999 -135908,-7116047 -135885,-7116077 -135875,-7116093 -135788,-7116255 -135757,-7116231 -135753,-7116224 -135730,-7116178 -135647,-7115994 -135615,-7115923 -135594,-7115892 -135559,-7115851 -135551,-7115836 -135494,-7115674 -135491,-7115658 -135505,-7115605 -135545,-7115415 -135562,-7115351 -135568,-7115338 -135575,-7115326 -135593,-7115311 -135608,-7115303 -135630,-7115305 -135650,-7115304 -135675,-7115294 -135673,-7115250 -135667,-7115214 -135656,-7114995 -135652,-7114940 -135636,-7114877 -135324,-7114849 -135325,-7114770 -135327,-7114696 -135247,-7114675 -135267,-7114575 -135115,-7114500 -135014,-7114451 -134823,-7114352 -134589,-7114235 -134429,-7114148 -134290,-7114075 -134125,-7113993 -134027,-7113942 -133973,-7113931 -133737,-7113893 -133718,-7113889 -133706,-7113873 -133657,-7113851 -133626,-7113834 -133611,-7113823 -133533,-7113750 -133492,-7113709 -133475,-7113695 -133451,-7113681 -133499,-7113509 -133521,-7113413 -133547,-7113304 -133547,-7113302 -133534,-7113271 -133509,-7113173 -133510,-7113152 -133498,-7113095 -133485,-7113027 -133478,-7112974 -133476,-7112925 -133477,-7112898 -133480,-7112829 -133482,-7112699 -133471,-7112584 -133473,-7112582 -133524,-7112583 -133686,-7112579 -133808,-7112574 -134096,-7112557 -134287,-7112544 -134550,-7112520 -134670,-7112510 -134795,-7112495 -135137,-7112453 -135580,-7112397 -135840,-7112368 -135940,-7112358 -135972,-7112353 -135974,-7112352 -135983,-7112339 -135986,-7112337 -136059,-7112327 -136208,-7112303 -136359,-7112281 -136460,-7112280 -136581,-7112260 -136668,-7112250 -136742,-7112245 -136880,-7112242 -137052,-7112226 -137159,-7112219 -137239,-7112213 -137458,-7112190 -137460,-7112188 -137449,-7112176 -137449,-7112174 -137584,-7112167 -137862,-7112139 -138061,-7112124 -138172,-7112121 -138247,-7112121 -138377,-7112117 -138477,-7112119 -138513,-7112119 -138527,-7112119 -138514,-7112011 -138499,-7111986 -138482,-7111900 -138478,-7111880 -138476,-7111869 -138465,-7111710 -138406,-7111045 -138361,-7110621 -138345,-7110449 -138330,-7110295 -138316,-7110133 -138308,-7110000 -138306,-7109874 -138309,-7109802 -138326,-7109675 -138350,-7109551 -138363,-7109510 -138377,-7109473 -138407,-7109307 -138412,-7109262 -138412,-7109202 -138428,-7109063 -138433,-7109007 -138448,-7108855 -138458,-7108785 -138461,-7108761 -138464,-7108712 -138466,-7108675 -138468,-7108618 -138473,-7108561 -138473,-7108535 -138476,-7108515 -138510,-7108527 -138551,-7108532 -138587,-7108538 -138610,-7108535 -138630,-7108527 -138665,-7108440 -138753,-7108461 -138765,-7108329 -138796,-7108327 -138819,-7108313 -138894,-7108310 -138900,-7108311 -138901,-7108252 -138902,-7108250 -138919,-7108237 -138988,-7108237 -139013,-7108208 -139041,-7108161 -139112,-7108023 -139143,-7107912 -139173,-7107789 -139210,-7107726 -139283,-7107604 -139345,-7107524 -139381,-7107390 -139407,-7107276 -139404,-7107251 -139394,-7107152 -139366,-7106981 -139361,-7106876 -139341,-7106689 -139322,-7106613 -139284,-7106524 -139281,-7106511 -139284,-7106506 -139345,-7106493 -139428,-7106485 -139409,-7106374 -139405,-7106358 -139380,-7106303 -139336,-7106213 -139293,-7106130 -139206,-7105955 -139150,-7105844 -139063,-7105646 -139030,-7105563 -138987,-7105462 -138923,-7105317 -138885,-7105261 -138870,-7105245 -138810,-7105201 -138958,-7104908 -139140,-7104621 -139193,-7104532 -139211,-7104512 -139228,-7104497 -139278,-7104453 -139235,-7104391 -139186,-7104326 -139113,-7104220 -139092,-7104190 -139061,-7104157 -139061,-7104131 -139013,-7104077 -139064,-7104021 -139112,-7103962 -139157,-7103926 -139182,-7103939 -139227,-7103905 -139280,-7103875 -139336,-7103846 -139354,-7103844 -139386,-7103860 -139408,-7103878 -139424,-7103853 -139435,-7103844 -139437,-7103843 -139440,-7103843 -139448,-7103847 -139453,-7103854 -139454,-7103858 -139453,-7103862 -139440,-7103909 -139480,-7103923 -139485,-7103924 -139498,-7103919 -139511,-7103908 -139518,-7103904 -139547,-7103922 -139557,-7103925 -139565,-7103923 -139572,-7103919 -139574,-7103905 -139576,-7103881 -139597,-7103876 -139614,-7103874 -139631,-7103868 -139640,-7103873 -139646,-7103880 -139673,-7103881 -139681,-7103883 -139687,-7103886 -139692,-7103890 -139698,-7103895 -139704,-7103903 -139709,-7103946 -139711,-7103952 -139714,-7103954 -139719,-7103956 -139724,-7103955 -139730,-7103952 -139744,-7103776 -139750,-7103646 -139745,-7103603 -139750,-7103532 -139756,-7103481 -139763,-7103365 -139758,-7103286 -139750,-7103215 -139746,-7103169 -139742,-7103156 -139733,-7103138 -139727,-7103128 -139720,-7103119 -139715,-7103116 -139707,-7103113 -139691,-7103110 -139690,-7103109 -139684,-7103066 -139685,-7103064 -139692,-7103057 -139698,-7103050 -139704,-7103038 -139709,-7103027 -139713,-7103018 -139716,-7102998 -139717,-7102988 -139715,-7102970 -139700,-7102894 -139686,-7102839 -139673,-7102795 -139588,-7102570 -139557,-7102494 -139509,-7102417 -139422,-7102293 -139324,-7102167 -139220,-7102043 -139098,-7101903 -138955,-7101745 -138824,-7101608 -138686,-7101467 -138626,-7101394 -138610,-7101381 -138572,-7101348 -138461,-7101230 -138431,-7101193 -138428,-7101194 -138360,-7101258 -138357,-7101258 -138349,-7101231 -138343,-7101204 -138338,-7101102 -138335,-7101063 -138322,-7101038 -138237,-7100890 -138188,-7100770 -138142,-7100641 -138062,-7100446 -138053,-7100422 -138052,-7100420 -138056,-7100411 -138055,-7100409 -138049,-7100391 -138012,-7100297 -137981,-7100228 -137854,-7099941 -137854,-7099936 -137867,-7099917 -137867,-7099913 -137831,-7099827 -137820,-7099801 -137806,-7099781 -137788,-7099764 -137784,-7099759 -137748,-7099684 -137736,-7099650 -137708,-7099594 -137632,-7099454 -137549,-7099313 -137501,-7099235 -137457,-7099161 -137422,-7099107 -137415,-7099093 -137375,-7099014 -137301,-7098856 -137257,-7098757 -137239,-7098723 -137185,-7098595 -137106,-7098411 -137101,-7098380 -137060,-7098300 -137043,-7098308 -136999,-7098330 -136957,-7098336 -136953,-7098336 -136906,-7098334 -136867,-7098318 -136831,-7098288 -136798,-7098247 -136771,-7098191 -136757,-7098138 -136757,-7098068 -136754,-7098051 -136739,-7098040 -136700,-7098032 -136688,-7098016 -136690,-7098013 -136736,-7098004 -136745,-7098001 -136776,-7097988 -136811,-7097964 -136830,-7097928 -136974,-7097923 -136988,-7097937 -137002,-7097950 -137006,-7097951 -137067,-7097934 -137067,-7097934 -137115,-7097922 -137163,-7097910 -137234,-7097895 -137267,-7097890 -137294,-7097889 -137360,-7097898 -137396,-7097907 -137462,-7097921 -137522,-7097937 -137594,-7097952 -137652,-7097960 -137762,-7097966 -137880,-7097970 -137977,-7097969 -138029,-7097968 -138121,-7097959 -138220,-7097951 -138259,-7097955 -138325,-7097962 -138364,-7097964 -138441,-7097961 -138496,-7097970 -138568,-7097961 -138654,-7097955 -138756,-7097922 -138810,-7097902 -138882,-7097870 -138954,-7097830 -138927,-7097674 -138894,-7097509 -138861,-7097344 -138850,-7097291 -138835,-7097214 -138812,-7097131 -138783,-7097023 -138731,-7096820 -138702,-7096714 -138693,-7096636 -138667,-7096580 -138577,-7096293 -138647,-7096271 -138670,-7096266 -138710,-7096256 -138752,-7096247 -138810,-7096234 -138847,-7096231 -138898,-7096237 -138957,-7096230 -139009,-7096218 -139107,-7096181 -139302,-7096099 -139327,-7096109 -139364,-7096101 -139386,-7096104 -139394,-7096096 -139392,-7096089 -139303,-7095784 -139273,-7095673 -139226,-7095519 -139177,-7095421 -139139,-7095364 -139076,-7095215 -139033,-7095124 -138966,-7095049 -138919,-7095014 -138881,-7094965 -138838,-7094894 -138867,-7094888 -139217,-7094723 -139269,-7094835 -139262,-7094847 -139173,-7094877 -139167,-7094871 -139136,-7094883 -139137,-7094892 -139178,-7094970 -139339,-7094933 -139393,-7094925 -139425,-7094919 -139542,-7094898 -139593,-7094887 -139621,-7094876 -139650,-7094864 -139718,-7094823 -139785,-7094787 -139866,-7094767 -139925,-7094757 -139999,-7094734 -139969,-7094647 -140009,-7094629 -139993,-7094584 -140083,-7094529 -140016,-7094450 -139975,-7094489 -139870,-7094557 -139821,-7094582 -139786,-7094596 -139772,-7094585 -139753,-7094557 -139966,-7094403 -139879,-7094324 -139829,-7094283 -139725,-7094206 -139687,-7094185 -139603,-7094262 -139550,-7094302 -139473,-7094221 -139569,-7094152 -139614,-7094124 -139779,-7093998 -139847,-7093951 -139892,-7093913 -139965,-7093859 -139984,-7093841 -139986,-7093839 -140046,-7093797 -140013,-7093718 -139998,-7093668 -139980,-7093599 -139975,-7093582 -139926,-7093506 -139931,-7093499 -139898,-7093459 -139946,-7093395 -140030,-7093280 -140043,-7093261 -140046,-7093264 -140054,-7093273 -140067,-7093279 -140083,-7093257 -140099,-7093248 -140153,-7093233 -140169,-7093230 -140173,-7093222 -140188,-7093228 -140195,-7093230 -140218,-7093219 -140231,-7093217 -140250,-7093228 -140280,-7093235 -140300,-7093244 -140316,-7093244 -140323,-7093238 -140325,-7093214 -140350,-7093204 -140346,-7093182 -140347,-7093171 -140367,-7093154 -140377,-7093149 -140387,-7093152 -140406,-7093170 -140426,-7093170 -140450,-7093165 -140463,-7093164 -140472,-7093166 -140492,-7093184 -140507,-7093181 -140506,-7093170 -140487,-7093134 -140488,-7093112 -140550,-7093117 -140569,-7093124 -140573,-7093112 -140565,-7093094 -140566,-7093068 -140572,-7093047 -140578,-7093042 -140586,-7093041 -140596,-7093044 -140606,-7093053 -140614,-7093076 -140629,-7093087 -140651,-7093088 -140662,-7093099 -140673,-7093114 -140711,-7093134 -140732,-7093134 -140741,-7093127 -140743,-7093110 -140752,-7093090 -140768,-7093083 -140791,-7093082 -140804,-7093076 -140813,-7093066 -140820,-7093055 -140828,-7093032 -140843,-7093023 -140864,-7093022 -140875,-7093018 -140884,-7093003 -140888,-7092977 -140902,-7092952 -140913,-7092937 -140903,-7092916 -140903,-7092906 -140917,-7092897 -140941,-7092899 -140928,-7092858 -140937,-7092848 -140966,-7092849 -140990,-7092855 -141009,-7092867 -141022,-7092910 -141038,-7092909 -141060,-7092898 -141091,-7092889 -141109,-7092865 -141109,-7092848 -141117,-7092839 -141130,-7092836 -141156,-7092821 -141178,-7092814 -141175,-7092792 -141195,-7092799 -141207,-7092815 -141223,-7092807 -141246,-7092830 -141259,-7092841 -141270,-7092839 -141293,-7092833 -141305,-7092840 -141314,-7092857 -141315,-7092879 -141308,-7092901 -141363,-7092904 -141407,-7092905 -141409,-7092881 -141417,-7092866 -141429,-7092861 -141445,-7092870 -141453,-7092880 -141453,-7092908 -141591,-7092922 -141618,-7092918 -141651,-7092922 -141676,-7092914 -141697,-7092911 -141689,-7092885 -141684,-7092848 -141734,-7092800 -141763,-7092801 -141773,-7092793 -141779,-7092790 -141808,-7092781 -141815,-7092792 -141862,-7092865 -141865,-7092854 -141873,-7092851 -141888,-7092859 -141942,-7092856 -141956,-7092850 -141965,-7092842 -141974,-7092839 -141992,-7092844 -142021,-7092844 -142028,-7092864 -142046,-7092883 -142056,-7092886 -142076,-7092880 -142105,-7092877 -142120,-7092882 -142172,-7092809 -142211,-7092754 -142271,-7092669 -142283,-7092634 -142309,-7092592 -142422,-7092441 -142423,-7092412 -142345,-7092274 -142308,-7092225 -142274,-7092185 -142243,-7092154 -142245,-7092144 -142282,-7092124 -142285,-7092119 -142287,-7092113 -142290,-7092101 -142292,-7092087 -142285,-7092077 -142298,-7092050 -142302,-7092036 -142312,-7092030 -142380,-7092035 -142402,-7092037 -142415,-7092023 -142427,-7091998 -142438,-7091989 -142438,-7091979 -142427,-7091959 -142429,-7091950 -142459,-7091927 -142461,-7091916 -142454,-7091900 -142455,-7091891 -142500,-7091814 -142515,-7091825 -142540,-7091799 -142546,-7091793 -142570,-7091754 -142605,-7091717 -142617,-7091711 -142631,-7091712 -142641,-7091717 -142652,-7091714 -142673,-7091692 -142688,-7091673 -142705,-7091628 -142726,-7091614 -142743,-7091577 -142765,-7091576 -142786,-7091569 -142800,-7091572 -142814,-7091582 -142830,-7091586 -142842,-7091580 -142861,-7091571 -142863,-7091570 -142883,-7091564 -142909,-7091564 -142937,-7091544 -142962,-7091538 -142964,-7091518 -142982,-7091509 -143002,-7091509 -143020,-7091515 -143028,-7091512 -143036,-7091493 -143086,-7091468 -143105,-7091464 -143121,-7091450 -143137,-7091448 -143148,-7091457 -143160,-7091456 -143166,-7091448 -143165,-7091438 -143153,-7091426 -143170,-7091416 -143186,-7091414 -143215,-7091365 -143217,-7091359 -143223,-7091338 -143233,-7091323 -143269,-7091299 -143286,-7091284 -143301,-7091282 -143336,-7091246 -143368,-7091221 -143380,-7091205 -143377,-7091182 -143400,-7091170 -143407,-7091148 -143419,-7091145 -143447,-7091149 -143460,-7091136 -143474,-7091143 -143486,-7091136 -143499,-7091114 -143545,-7091108 -143554,-7091117 -143548,-7091102 -143555,-7091090 -143556,-7091067 -143595,-7091078 -143594,-7091055 -143608,-7091055 -143608,-7091045 -143627,-7091036 -143644,-7091037 -143651,-7091024 -143666,-7091019 -143688,-7091026 -143705,-7091025 -143707,-7091014 -143718,-7091002 -143718,-7090982 -143750,-7090977 -143762,-7090967 -143776,-7090961 -143788,-7090965 -143779,-7090983 -143793,-7090988 -143808,-7090990 -143808,-7090968 -143817,-7090967 -143829,-7090976 -143862,-7090969 -143879,-7090977 -143891,-7090978 -143893,-7090955 -143906,-7090959 -143913,-7090949 -143920,-7090948 -143934,-7090957 -143938,-7090943 -143964,-7090914 -143980,-7090919 -143998,-7090908 -144032,-7090911 -144049,-7090876 -144065,-7090870 -144083,-7090890 -144113,-7090889 -144108,-7090829 -144120,-7090823 -144176,-7090828 -144187,-7090824 -144196,-7090812 -144198,-7090797 -144195,-7090779 -144195,-7090771 -144201,-7090764 -144215,-7090775 -144232,-7090778 -144241,-7090783 -144248,-7090776 -144256,-7090774 -144274,-7090777 -144254,-7090720 -144310,-7090698 -144331,-7090679 -144360,-7090630 -144381,-7090619 -144412,-7090606 -144443,-7090590 -144508,-7090566 -144564,-7090534 -144667,-7090515 -144769,-7090488 -145032,-7090383 -145129,-7090335 -145157,-7090310 -145261,-7090276 -145357,-7090245 -145466,-7090211 -145481,-7090200 -145502,-7090183 -145524,-7090164 -145539,-7090155 -145574,-7090144 -145585,-7090142 -145607,-7090147 -145657,-7090161 -145708,-7090177 -145751,-7090192 -145798,-7090204 -145826,-7090220 -145872,-7090257 -145955,-7090326 -145971,-7090337 -145986,-7090352 -145999,-7090359 -146010,-7090367 -146025,-7090386 -146035,-7090387 -146046,-7090379 -146057,-7090377 -146067,-7090368 -146077,-7090362 -146104,-7090363 -146143,-7090366 -146163,-7090378 -146196,-7090389 -146216,-7090390 -146252,-7090400 -146292,-7090395 -146316,-7090409 -146356,-7090410 -146367,-7090411 -146377,-7090413 -146385,-7090415 -146415,-7090438 -146433,-7090454 -146460,-7090462 -146459,-7090467 -146514,-7090491 -146545,-7090499 -146639,-7090520 -146643,-7090516 -146663,-7090535 -146667,-7090529 -146677,-7090533 -146689,-7090531 -146710,-7090528 -146738,-7090537 -146746,-7090544 -146755,-7090545 -146767,-7090537 -146785,-7090552 -146796,-7090552 -146795,-7090570 -146798,-7090585 -146822,-7090601 -146830,-7090602 -146846,-7090607 -146845,-7090627 -146855,-7090638 -146863,-7090643 -146887,-7090649 -146893,-7090678 -146917,-7090667 -146956,-7090703 -146943,-7090715 -146942,-7090730 -146949,-7090749 -146963,-7090759 -146964,-7090773 -146980,-7090784 -147000,-7090810 -147016,-7090814 -147030,-7090828 -147029,-7090843 -147048,-7090854 -147075,-7090874 -147108,-7090892 -147130,-7090900 -147144,-7090902 -147162,-7090913 -147183,-7090912 -147188,-7090916 -147178,-7090946 -147193,-7090938 -147226,-7090935 -147249,-7090920 -147272,-7090944 -147286,-7090938 -147318,-7090930 -147339,-7090941 -147364,-7090943 -147389,-7090952 -147389,-7090946 -147401,-7090946 -147413,-7090939 -147426,-7090941 -147444,-7090949 -147442,-7090953 -147449,-7090966 -147452,-7090985 -147484,-7090994 -147494,-7090988 -147512,-7090989 -147527,-7090985 -147528,-7090971 -147538,-7090967 -147570,-7090971 -147579,-7090949 -147594,-7090937 -147608,-7090915 -147631,-7090901 -147655,-7090895 -147655,-7090884 -147663,-7090889 -147727,-7090887 -147734,-7090894 -147781,-7090870 -147811,-7090860 -147863,-7090848 -147899,-7090847 -147917,-7090852 -147929,-7090864 -147942,-7090869 -147952,-7090867 -147958,-7090855 -147964,-7090854 -147974,-7090868 -147986,-7090879 -148001,-7090872 -148023,-7090885 -148032,-7090880 -148042,-7090880 -148058,-7090893 -148063,-7090891 -148076,-7090874 -148084,-7090874 -148096,-7090885 -148106,-7090890 -148126,-7090889 -148145,-7090891 -148164,-7090906 -148175,-7090909 -148189,-7090902 -148200,-7090881 -148211,-7090886 -148251,-7090887 -148271,-7090899 -148288,-7090902 -148303,-7090886 -148309,-7090902 -148313,-7090909 -148328,-7090915 -148386,-7090916 -148411,-7090900 -148419,-7090912 -148447,-7090917 -148462,-7090926 -148479,-7090926 -148489,-7090931 -148492,-7090942 -148497,-7090965 -148505,-7090978 -148528,-7090993 -148539,-7091003 -148542,-7091006 -148569,-7091015 -148590,-7091013 -148611,-7091010 -148649,-7091050 -148692,-7091105 -148696,-7091120 -148728,-7091158 -148752,-7091182 -148754,-7091197 -148761,-7091208 -148768,-7091208 -148783,-7091191 -148796,-7091192 -148815,-7091196 -148837,-7091213 -148859,-7091214 -148865,-7091219 -148864,-7091231 -148872,-7091241 -148888,-7091243 -148902,-7091240 -148922,-7091224 -148935,-7091225 -148951,-7091245 -148966,-7091255 -148978,-7091270 -148986,-7091294 -149028,-7091330 -149038,-7091326 -149053,-7091325 -149063,-7091335 -149072,-7091339 -149101,-7091329 -149136,-7091331 -149167,-7091350 -149201,-7091353 -149212,-7091363 -149216,-7091378 -149239,-7091395 -149294,-7091432 -149303,-7091450 -149299,-7091454 -149296,-7091464 -149310,-7091465 -149333,-7091477 -149354,-7091495 -149437,-7091537 -149450,-7091549 -149473,-7091552 -149490,-7091555 -149528,-7091577 -149554,-7091597 -149578,-7091612 -149601,-7091633 -149627,-7091646 -149733,-7091694 -149777,-7091713 -149803,-7091724 -149843,-7091735 -149881,-7091759 -149906,-7091764 -149983,-7091791 -150032,-7091796 -150043,-7091771 -150140,-7091638 -150209,-7091540 -150257,-7091474 -150440,-7091213 -150486,-7091281 -150602,-7091472 -150715,-7091649 -150738,-7091922 -150743,-7091957 -150744,-7091964 -150758,-7092038 -150792,-7092176 -150809,-7092177 -150837,-7092288 -150846,-7092323 -150879,-7092405 -150920,-7092497 -150960,-7092588 -150980,-7092643 -150990,-7092696 -150981,-7092766 -150971,-7092786 -150957,-7092817 -150942,-7092844 -150930,-7092869 -150923,-7092887 -150922,-7092949 -150895,-7093006 -150866,-7093062 -150844,-7093114 -150838,-7093134 -150818,-7093161 -150799,-7093206 -150799,-7093262 -150795,-7093283 -150795,-7093365 -150822,-7093409 -150841,-7093429 -150863,-7093477 -150879,-7093526 -150884,-7093565 -150889,-7093618 -150891,-7093666 -150900,-7093692 -150931,-7093730 -150950,-7093752 -150965,-7093806 -150966,-7093819 -150962,-7093892 -150966,-7093895 -151201,-7094047 -151386,-7094165 -151386,-7094253 -151398,-7094283 -151396,-7094343 -151405,-7094436 -151419,-7094504 -151439,-7094544 -151476,-7094609 -151534,-7094693 -151547,-7094703 -151604,-7094793 -151637,-7094823 -151666,-7094891 -151689,-7094913 -151723,-7094969 -151789,-7095047 -151814,-7095062 -151824,-7095083 -151822,-7095100 -151900,-7095125 -151928,-7095153 -151951,-7095175 -151975,-7095188 -152013,-7095243 -152045,-7095266 -152043,-7095274 -152066,-7095298 -152139,-7095344 -152217,-7095376 -152264,-7095385 -152287,-7095402 -152333,-7095415 -152352,-7095437 -152372,-7095465 -152392,-7095497 -152411,-7095523 -152455,-7095548 -152541,-7095591 -152578,-7095614 -152621,-7095650 -152666,-7095680 -152739,-7095715 -152837,-7095762 -152917,-7095784 -152949,-7095792 -152954,-7095791 -152988,-7095785 -153004,-7095793 -153041,-7095815 -153086,-7095842 -153196,-7095893 -153221,-7095925 -153239,-7095951 -153241,-7095973 -153251,-7095976 -153253,-7095977 -153274,-7095969 -153325,-7095977 -153359,-7095978 -153411,-7095994 -153443,-7096001 -153468,-7096002 -153508,-7095999 -153512,-7095999 -153516,-7095994 -153518,-7095990 -153524,-7095983 -153537,-7095976 -153542,-7095972 -153548,-7095967 -153550,-7095965 -153560,-7095954 -153573,-7095938 -153609,-7095884 -153619,-7095879 -153643,-7095863 -153659,-7095852 -153692,-7095845 -153773,-7095802 -153799,-7095783 -153839,-7095729 -153897,-7095666 -153928,-7095634 -153939,-7095620 -153960,-7095596 -153971,-7095567 -154019,-7095528 -154053,-7095490 -154086,-7095467 -154127,-7095444 -154176,-7095429 -154255,-7095388 -154294,-7095374 -154332,-7095377 -154371,-7095352 -154400,-7095328 -154423,-7095299 -154516,-7095263 -154747,-7095158 -154897,-7095094 -154920,-7095091 -154928,-7095088 -154935,-7095084 -154946,-7095076 -155042,-7095029 -155046,-7095025 -155060,-7095006 -155052,-7094998 -155068,-7094973 -155107,-7094962 -155131,-7094945 -155164,-7094915 -155203,-7094885 -155222,-7094877 -155272,-7094872 -155293,-7094872 -155327,-7094867 -155361,-7094833 -155379,-7094816 -155396,-7094799 -155410,-7094780 -155413,-7094756 -155417,-7094730 -155510,-7094683 -155558,-7094664 -155634,-7094622 -155762,-7094563 -155848,-7094526 -155867,-7094512 -155874,-7094512 -155887,-7094512 -155919,-7094564 -155934,-7094592 -155970,-7094649 -156008,-7094710 -156028,-7094746 -156033,-7094794 -156040,-7094801 -156049,-7094806 -156068,-7094809 -156119,-7094824 -156219,-7094843 -156257,-7094847 -156281,-7094839 -156307,-7094831 -156325,-7094833 -156354,-7094823 -156370,-7094823 -156381,-7094832 -156431,-7094838 -156450,-7094856 -156470,-7094864 -156481,-7094870 -156485,-7094885 -156483,-7094922 -156495,-7094935 -156510,-7094960 -156521,-7094964 -156544,-7094971 -156562,-7094967 -156587,-7094954 -156611,-7094953 -156620,-7094970 -156619,-7094992 -156654,-7095027 -156720,-7095010 -156736,-7094991 -156745,-7094988 -156782,-7094992 -156784,-7094993 -156813,-7095005 -156825,-7095010 -156841,-7095006 -156868,-7095007 -156934,-7094994 -156975,-7094996 -156996,-7094993 -157022,-7094994 -157036,-7095004 -157045,-7095025 -157059,-7095030 -157069,-7095020 -157077,-7095025 -157103,-7095014 -157103,-7094999 -157157,-7095011 -157180,-7095020 -157200,-7095022 -157222,-7095018 -157267,-7095006 -157380,-7095174 -157463,-7095271 -157515,-7095337 -157549,-7095377 -157796,-7095386 -157796,-7095402 -157837,-7095407 -157903,-7095434 -157945,-7095455 -157965,-7095470 -157958,-7095439 -157935,-7095384 -157954,-7095377 -157963,-7095369 -157988,-7095364 -158043,-7095374 -158086,-7095372 -158144,-7095364 -158211,-7095359 -158253,-7095361 -158342,-7095381 -158438,-7095418 -158435,-7095428 -158443,-7095433 -158446,-7095424 -158536,-7095488 -158563,-7095513 -158583,-7095542 -158594,-7095564 -158611,-7095596 -158618,-7095603 -158622,-7095607 -158635,-7095618 -158655,-7095625 -158715,-7095633 -158823,-7095653 -158911,-7095669 -159006,-7095680 -159005,-7095686 -159039,-7095691 -159051,-7095699 -159120,-7095773 -159126,-7095802 -159127,-7095865 -159111,-7095900 -159110,-7095968 -159106,-7095985 -159097,-7095999 -159145,-7096021 -159194,-7096040 -159194,-7096072 -159211,-7096101 -159295,-7096188 -159400,-7096301 -159427,-7096268 -159458,-7096297 -159411,-7096347 -159512,-7096439 -159535,-7096412 -159570,-7096363 -159626,-7096389 -159661,-7096283 -159804,-7096284 -159809,-7096276 -159810,-7096260 -159828,-7096253 -159824,-7096245 -159830,-7096244 -159868,-7096187 -159862,-7096182 -159888,-7096138 -159889,-7096102 -159881,-7096088 -159889,-7096074 -159916,-7095990 -160000,-7096009 -160078,-7096023 -160053,-7096035 -160127,-7096106 -160140,-7096110 -160191,-7096099 -160210,-7096087 -160266,-7096157 -160305,-7096214 -160390,-7096373 -160508,-7096533 -160575,-7096608 -160659,-7096639 -160670,-7096628 -160689,-7096644 -160754,-7096682 -160817,-7096737 -160927,-7096910 -160981,-7097024 -160990,-7097020 -160999,-7097015 -161062,-7097129 -161067,-7097080 -161082,-7097086 -161095,-7097090 -161147,-7097151 -161149,-7097152 -161151,-7097108 -161158,-7097068 -161168,-7097008 -161174,-7096991 -161195,-7096956 -161223,-7096928 -161262,-7096893 -161317,-7096852 -161394,-7096796 -161506,-7096703 -161564,-7096648 -161628,-7096602 -161649,-7096576 -161659,-7096556 -161688,-7096536 -161740,-7096476 -161800,-7096425 -161836,-7096392 -161921,-7096300 -161975,-7096246 -161979,-7096243 -162026,-7096206 -162082,-7096168 -162166,-7096116 -162179,-7096108 -162256,-7096067 -162262,-7096056 -162360,-7095995 -162365,-7096004 -162394,-7095976 -162423,-7095925 -162449,-7095941 -162510,-7095919 -162541,-7095902 -162573,-7095894 -162571,-7095882 -162638,-7095841 -162717,-7095777 -162814,-7095703 -162930,-7095627 -162920,-7095614 -162967,-7095582 -163066,-7095519 -163131,-7095479 -163247,-7095405 -163345,-7095335 -163754,-7095060 -163829,-7095009 -163927,-7094945 -163968,-7094918 -163998,-7094949 -164013,-7094970 -164069,-7095009 -164084,-7095025 -164115,-7094990 -164115,-7094958 -164117,-7094928 -164151,-7094877 -164156,-7094845 -164171,-7094817 -164180,-7094779 -164238,-7094742 -164314,-7094693 -164387,-7094639 -164428,-7094604 -164472,-7094558 -164530,-7094489 -164544,-7094459 -164562,-7094451 -164593,-7094454 -164634,-7094317 -164673,-7094190 -164713,-7094150 -164748,-7094132 -164775,-7094114 -164810,-7094098 -164839,-7094100 -164884,-7094079 -164892,-7094074 -164930,-7094041 -164948,-7094017 -164962,-7093978 -164973,-7093961 -165036,-7093888 -165056,-7093863 -165066,-7093853 -165076,-7093844 -165094,-7093830 -165165,-7093799 -165189,-7093801 -165225,-7093813 -165232,-7093816 -165233,-7093870 -165246,-7093914 -165250,-7093941 -165261,-7093971 -165279,-7094005 -165285,-7094063 -165290,-7094080 -165288,-7094106 -165299,-7094108 -165319,-7094199 -165456,-7094162 -165520,-7094143 -165629,-7094114 -165706,-7094093 -165776,-7094063 -165809,-7094056 -165930,-7094095 -166040,-7094140 -166065,-7094153 -166074,-7094159 -166086,-7094171 -166103,-7094198 -166102,-7094234 -166187,-7094442 -166191,-7094481 -166192,-7094513 -166190,-7094566 -166163,-7094709 -166123,-7094903 -166086,-7095100 -166072,-7095160 -166042,-7095281 -166168,-7095304 -166242,-7095325 -166307,-7095340 -166435,-7095360 -166442,-7095283 -166471,-7095161 -166512,-7094968 -166549,-7094778 -166575,-7094592 -166584,-7094440 -166596,-7094269 -166739,-7094390 -167133,-7094730 -167144,-7094739 -167150,-7094744 -167373,-7094584 -167500,-7094505 -167657,-7094405 -167783,-7094329 -167875,-7094443 -167912,-7094422 -167909,-7094420 -167999,-7094369 -168143,-7094290 -168076,-7094197 -168132,-7094173 -168174,-7094233 -168189,-7094239 -168208,-7094239 -168262,-7094218 -168295,-7094200 -168332,-7094188 -168415,-7094199 -168665,-7094338 -168746,-7094381 -168791,-7094337 -168825,-7094369 -168854,-7094397 -168915,-7094461 -168953,-7094506 -168971,-7094532 -168986,-7094555 -169012,-7094602 -169043,-7094682 -169057,-7094709 -169195,-7094634 -169332,-7094553 -169455,-7094475 -169631,-7094382 -169690,-7094334 -169734,-7094315 -169758,-7094307 -169860,-7094278 -169905,-7094265 -169986,-7094241 -170010,-7094237 -170138,-7094205 -170228,-7093936 -170235,-7093928 -170248,-7093886 -170290,-7093769 -170299,-7093734 -170306,-7093695 -170303,-7093666 -170300,-7093649 -170378,-7093619 -170413,-7093616 -170456,-7093599 -170421,-7093585 -170350,-7093514 -170405,-7093473 -170430,-7093476 -170465,-7093492 -170490,-7093513 -170541,-7093578 -170554,-7093586 -170556,-7093601 -170587,-7093600 -170650,-7093585 -170695,-7093572 -170715,-7093587 -170745,-7093598 -170786,-7093616 -170800,-7093617 -170837,-7093630 -170862,-7093635 -170920,-7093613 -170949,-7093603 -170965,-7093591 -170974,-7093580 -170994,-7093588 -171027,-7093589 -171034,-7093592 -171042,-7093602 -171045,-7093614 -171049,-7093639 -171049,-7093660 -171027,-7093722 -171021,-7093746 -171022,-7093761 -171029,-7093765 -171050,-7093767 -171091,-7093793 -171093,-7093799 -171054,-7093825 -171048,-7093837 -171048,-7093857 -171062,-7093869 -171090,-7093885 -171114,-7093892 -171153,-7093893 -171168,-7093891 -171201,-7093860 -171222,-7093890 -171236,-7093912 -171248,-7093925 -171258,-7093954 -171270,-7093972 -171301,-7094001 -171314,-7094024 -171334,-7094073 -171350,-7094097 -171394,-7094097 -171407,-7094105 -171415,-7094124 -171409,-7094148 -171400,-7094176 -171412,-7094205 -171426,-7094225 -171429,-7094241 -171424,-7094256 -171410,-7094271 -171408,-7094281 -171410,-7094295 -171424,-7094307 -171488,-7094325 -171509,-7094325 -171537,-7094316 -171551,-7094319 -171563,-7094327 -171591,-7094393 -171612,-7094416 -171631,-7094444 -171602,-7094493 -171600,-7094502 -171601,-7094524 -171605,-7094531 -171610,-7094537 -171621,-7094541 -171634,-7094539 -171644,-7094534 -171654,-7094522 -171670,-7094494 -171674,-7094481 -171682,-7094472 -171692,-7094469 -171702,-7094470 -171709,-7094478 -171708,-7094522 -171743,-7094538 -171763,-7094552 -171768,-7094571 -171757,-7094596 -171754,-7094600 -171752,-7094611 -171760,-7094624 -171772,-7094632 -171784,-7094632 -171823,-7094610 -171838,-7094610 -171856,-7094617 -171873,-7094632 -171893,-7094658 -171951,-7094664 -172083,-7094875 -172143,-7094985 -172148,-7094995 -172148,-7095056 -172150,-7095119 -172155,-7095160 -172160,-7095185 -172168,-7095195 -172175,-7095195 -172177,-7095205 -172181,-7095213 -172192,-7095219 -172208,-7095219 -172235,-7095210 -172263,-7095198 -172268,-7095198 -172274,-7095200 -172278,-7095203 -172287,-7095214 -172307,-7095239 -172312,-7095253 -172310,-7095267 -172298,-7095285 -172263,-7095318 -172248,-7095338 -172245,-7095348 -172247,-7095355 -172262,-7095366 -172285,-7095379 -172307,-7095384 -172330,-7095381 -172342,-7095375 -172370,-7095355 -172387,-7095349 -172412,-7095348 -172432,-7095354 -172447,-7095364 -172467,-7095387 -172474,-7095402 -172486,-7095409 -172496,-7095421 -172498,-7095452 -172513,-7095465 -172536,-7095501 -172537,-7095512 -172533,-7095527 -172571,-7095554 -172600,-7095569 -172623,-7095578 -172718,-7095598 -172838,-7095630 -172864,-7095637 -172922,-7095658 -172976,-7095677 -173030,-7095699 -173042,-7095703 -173061,-7095709 -173093,-7095713 -173097,-7095713 -173101,-7095713 -173128,-7095713 -173208,-7095721 -173213,-7095721 -173264,-7095729 -173287,-7095738 -173310,-7095736 -173332,-7095734 -173342,-7095741 -173345,-7095742 -173351,-7095746 -173354,-7095755 -173359,-7095766 -173367,-7095776 -173391,-7095806 -173398,-7095821 -173399,-7095850 -173391,-7095871 -173387,-7095896 -173390,-7095910 -173419,-7095939 -173485,-7095988 -173492,-7096006 -173503,-7096041 -173517,-7096056 -173526,-7096058 -173547,-7096055 -173570,-7096052 -173597,-7096030 -173615,-7096024 -173634,-7096010 -173653,-7096013 -173670,-7096029 -173667,-7096047 -173651,-7096073 -173636,-7096092 -173633,-7096110 -173639,-7096121 -173645,-7096129 -173697,-7096171 -173708,-7096178 -173732,-7096184 -173766,-7096190 -173850,-7096191 -173870,-7096189 -173892,-7096187 -173917,-7096195 -173952,-7096213 -173983,-7096208 -174050,-7096187 -174052,-7096154 -174074,-7096135 -174100,-7096119 -174138,-7096103 -174175,-7096061 -174253,-7096045 -174290,-7096029 -174343,-7096011 -174469,-7096068 -174500,-7096085 -174525,-7096108 -174560,-7096158 -174652,-7096206 -174741,-7096251 -174856,-7096305 -174992,-7096377 -175002,-7096377 -175120,-7096299 -175193,-7096283 -175239,-7096281 -175339,-7096260 -175379,-7096246 -175426,-7096222 -175494,-7096179 -175510,-7096172 -175530,-7096172 -175547,-7096182 -175558,-7096183 -175573,-7096176 -175572,-7096163 -175634,-7096116 -175671,-7096078 -175695,-7096063 -175729,-7096047 -175771,-7096036 -175828,-7096008 -175856,-7095988 -175880,-7095958 -175890,-7095941 -175933,-7095906 -175958,-7095896 -175978,-7095894 -175996,-7095911 -176015,-7095915 -176026,-7095906 -176031,-7095895 -176033,-7095877 -176077,-7095854 -176108,-7095836 -176191,-7095838 -176210,-7095828 -176277,-7095816 -176311,-7095832 -176319,-7095837 -176338,-7095845 -176355,-7095866 -176382,-7095867 -176391,-7095868 -176418,-7095896 -176440,-7095915 -176476,-7095937 -176480,-7095970 -176472,-7096005 -176474,-7096012 -176480,-7096019 -176495,-7096018 -176525,-7096029 -176531,-7096038 -176535,-7096058 -176529,-7096079 -176537,-7096085 -176561,-7096085 -176574,-7096090 -176596,-7096093 -176603,-7096108 -176602,-7096118 -176619,-7096145 -176626,-7096156 -176587,-7096240 -176563,-7096284 -176562,-7096316 -176565,-7096350 -176575,-7096361 -176624,-7096381 -176637,-7096416 -176649,-7096453 -176638,-7096461 -176628,-7096461 -176630,-7096476 -176635,-7096482 -176642,-7096484 -176648,-7096490 -176648,-7096522 -176639,-7096542 -176637,-7096552 -176642,-7096560 -176642,-7096582 -176615,-7096601 -176614,-7096612 -176631,-7096638 -176630,-7096678 -176629,-7096704 -176656,-7096736 -176683,-7096768 -176715,-7096779 -176721,-7096781 -176745,-7096793 -176768,-7096796 -176764,-7096811 -176752,-7096832 -176755,-7096840 -176758,-7096843 -176788,-7096858 -176804,-7096852 -176814,-7096855 -176827,-7096872 -176826,-7096883 -176813,-7096893 -176813,-7096902 -176841,-7096930 -176853,-7096962 -176863,-7096967 -176878,-7096965 -176887,-7096970 -176907,-7097006 -176912,-7097026 -176906,-7097054 -176921,-7097073 -176922,-7097100 -176939,-7097129 -176938,-7097169 -176953,-7097183 -176966,-7097187 -176989,-7097187 -177016,-7097215 -177016,-7097228 -177002,-7097247 -177001,-7097261 -177027,-7097284 -177056,-7097295 -177069,-7097314 -177080,-7097324 -177102,-7097353 -177139,-7097390 -177151,-7097393 -177171,-7097387 -177179,-7097390 -177204,-7097446 -177196,-7097478 -177196,-7097483 -177196,-7097488 -177199,-7097498 -177201,-7097503 -177210,-7097514 -177264,-7097548 -177278,-7097563 -177308,-7097576 -177333,-7097579 -177362,-7097588 -177400,-7097620 -177429,-7097636 -177449,-7097641 -177492,-7097663 -177517,-7097680 -177527,-7097693 -177529,-7097706 -177526,-7097711 -177500,-7097706 -177487,-7097710 -177472,-7097722 -177466,-7097735 -177468,-7097782 -177475,-7097792 -177488,-7097794 -177508,-7097789 -177529,-7097772 -177540,-7097773 -177559,-7097786 -177570,-7097803 -177571,-7097830 -177593,-7097837 -177620,-7097843 -177654,-7097842 -177653,-7097860 -177628,-7097920 -177633,-7097928 -177677,-7097928 -177715,-7097914 -177722,-7097917 -177737,-7097925 -177751,-7097924 -177761,-7097935 -177763,-7097947 -177789,-7097969 -177810,-7097967 -177851,-7097966 -177848,-7097975 -177922,-7097970 -177947,-7097979 -177959,-7098005 -177973,-7098018 -177997,-7098029 -178025,-7098033 -178050,-7098043 -178065,-7098061 -178075,-7098080 -178092,-7098098 -178107,-7098112 -178120,-7098126 -178157,-7098160 -178174,-7098169 -178188,-7098171 -178203,-7098173 -178212,-7098148 -178255,-7098156 -178296,-7098152 -178309,-7098146 -178316,-7098140 -178328,-7098130 -178330,-7098111 -178305,-7098068 -178331,-7098058 -178343,-7098037 -178362,-7098026 -178373,-7098026 -178383,-7098041 -178386,-7098058 -178382,-7098098 -178394,-7098127 -178404,-7098136 -178391,-7098167 -178427,-7098185 -178452,-7098130 -178483,-7098155 -178508,-7098180 -178534,-7098188 -178550,-7098204 -178564,-7098220 -178568,-7098252 -178580,-7098260 -178593,-7098247 -178605,-7098247 -178626,-7098260 -178647,-7098279 -178689,-7098263 -178718,-7098271 -178725,-7098288 -178758,-7098299 -178758,-7098352 -178731,-7098358 -178730,-7098374 -178734,-7098382 -178761,-7098404 -178789,-7098433 -178802,-7098434 -178822,-7098426 -178837,-7098425 -178867,-7098434 -178875,-7098436 -178877,-7098430 -178896,-7098425 -178913,-7098424 -178947,-7098434 -178969,-7098464 -178991,-7098504 -178969,-7098518 -178986,-7098544 -178988,-7098568 -178979,-7098575 -178991,-7098598 -179009,-7098624 -179019,-7098646 -179025,-7098661 -179024,-7098701 -179034,-7098716 -179035,-7098754 -179012,-7098762 -179013,-7098774 -179026,-7098802 -179051,-7098838 -179083,-7098873 -179128,-7098912 -179122,-7098936 -179123,-7098943 -179137,-7098951 -179161,-7098985 -179172,-7098986 -179176,-7098993 -179207,-7099016 -179228,-7099054 -179270,-7099066 -179315,-7099074 -179314,-7099081 -179301,-7099090 -179297,-7099104 -179298,-7099113 -179337,-7099143 -179373,-7099140 -179386,-7099146 -179413,-7099154 -179411,-7099184 -179421,-7099197 -179421,-7099228 -179428,-7099252 -179432,-7099261 -179446,-7099269 -179467,-7099267 -179491,-7099258 -179526,-7099326 -179547,-7099333 -179555,-7099326 -179571,-7099345 -179604,-7099354 -179619,-7099367 -179633,-7099373 -179635,-7099382 -179639,-7099393 -179656,-7099420 -179643,-7099423 -179635,-7099430 -179636,-7099456 -179641,-7099467 -179665,-7099489 -179693,-7099528 -179712,-7099546 -179706,-7099552 -179713,-7099559 -179713,-7099565 -179713,-7099577 -179716,-7099586 -179725,-7099614 -179733,-7099627 -179728,-7099630 -179707,-7099646 -179689,-7099655 -179660,-7099666 -179602,-7099707 -179591,-7099714 -179552,-7099726 -179514,-7099753 -179494,-7099764 -179461,-7099774 -179442,-7099782 -179419,-7099812 -179355,-7099891 -179337,-7099917 -179319,-7099935 -179307,-7099945 -179287,-7099963 -179273,-7099983 -179258,-7100000 -179255,-7100012 -179268,-7100029 -179276,-7100039 -179301,-7100060 -179334,-7100073 -179360,-7100078 -179378,-7100086 -179397,-7100094 -179441,-7100126 -179497,-7100179 -179521,-7100202 -179596,-7100265 -179642,-7100299 -179685,-7100328 -179702,-7100336 -179771,-7100365 -179818,-7100384 -179817,-7100394 -179818,-7100422 -179825,-7100432 -179858,-7100436 -179855,-7100570 -179851,-7100735 -179759,-7100771 -179758,-7100767 -179695,-7100790 -179696,-7100794 -179568,-7100842 -179501,-7100870 -179463,-7100892 -179462,-7100900 -179487,-7100933 -179521,-7100976 -179568,-7101014 -179596,-7101063 -179623,-7101098 -179689,-7101144 -179764,-7101175 -179820,-7101224 -179869,-7101278 -179882,-7101301 -179916,-7101406 -179947,-7101509 -179950,-7101518 -179968,-7101580 -179980,-7101628 -180003,-7101707 -180022,-7101772 -180024,-7101840 -180069,-7101877 -180091,-7101909 -180108,-7101921 -180144,-7101945 -180176,-7101974 -180207,-7102014 -180239,-7102063 -180245,-7102059 -180275,-7102107 -180308,-7102076 -180362,-7102016 -180421,-7101962 -180469,-7101906 -180512,-7101858 -180549,-7101816 -180552,-7101789 -180564,-7101780 -180572,-7101777 -180586,-7101784 -180594,-7101793 -180596,-7101803 -180601,-7101822 -180618,-7101852 -180627,-7101869 -180632,-7101875 -180641,-7101884 -180659,-7101896 -180689,-7101914 -180694,-7101940 -180695,-7102000 -180711,-7102078 -180716,-7102118 -180717,-7102131 -180757,-7102155 -180717,-7102222 -180704,-7102258 -180696,-7102303 -180697,-7102340 -180693,-7102345 -180680,-7102414 -180678,-7102462 -180659,-7102502 -180627,-7102542 -180633,-7102584 -180640,-7102622 -180641,-7102636 -180642,-7102649 -180642,-7102671 -180639,-7102686 -180622,-7102707 -180609,-7102741 -180607,-7102768 -180583,-7102801 -180582,-7102822 -180572,-7102829 -180556,-7102829 -180540,-7102825 -180532,-7102834 -180531,-7102851 -180515,-7102856 -180500,-7102894 -180485,-7102900 -180471,-7102900 -180459,-7102921 -180455,-7102936 -180448,-7102950 -180424,-7102951 -180417,-7102977 -180394,-7103031 -180397,-7103067 -180393,-7103079 -180379,-7103087 -180365,-7103144 -180354,-7103164 -180350,-7103194 -180321,-7103222 -180322,-7103275 -180310,-7103284 -180305,-7103310 -180297,-7103318 -180293,-7103336 -180282,-7103358 -180280,-7103392 -180271,-7103414 -180257,-7103425 -180257,-7103442 -180248,-7103456 -180249,-7103469 -180270,-7103483 -180284,-7103501 -180290,-7103511 -180285,-7103524 -180275,-7103530 -180274,-7103541 -180282,-7103559 -180298,-7103565 -180309,-7103577 -180323,-7103586 -180338,-7103607 -180354,-7103614 -180368,-7103628 -180381,-7103634 -180389,-7103647 -180391,-7103663 -180401,-7103677 -180410,-7103699 -180430,-7103729 -180437,-7103755 -180445,-7103775 -180444,-7103794 -180439,-7103803 -180449,-7103811 -180451,-7103826 -180442,-7103834 -180443,-7103841 -180455,-7103851 -180455,-7103885 -180462,-7103900 -180490,-7103904 -180488,-7103923 -180496,-7103936 -180487,-7103943 -180487,-7103960 -180499,-7103972 -180531,-7104035 -180539,-7104055 -180529,-7104071 -180519,-7104070 -180514,-7104078 -180512,-7104088 -180518,-7104097 -180519,-7104112 -180512,-7104120 -180513,-7104143 -180518,-7104165 -180529,-7104179 -180543,-7104186 -180564,-7104184 -180564,-7104209 -180566,-7104219 -180576,-7104226 -180577,-7104235 -180589,-7104288 -180602,-7104307 -180610,-7104324 -180610,-7104340 -180618,-7104349 -180631,-7104358 -180643,-7104358 -180649,-7104368 -180649,-7104379 -180656,-7104387 -180687,-7104397 -180705,-7104398 -180713,-7104406 -180711,-7104434 -180719,-7104445 -180727,-7104454 -180727,-7104461 -180708,-7104480 -180707,-7104504 -180711,-7104513 -180710,-7104532 -180715,-7104534 -180733,-7104535 -180752,-7104532 -180757,-7104541 -180757,-7104556 -180773,-7104564 -180775,-7104571 -180764,-7104578 -180772,-7104594 -180770,-7104601 -180747,-7104603 -180745,-7104630 -180761,-7104643 -180763,-7104652 -180778,-7104656 -180784,-7104664 -180785,-7104687 -180788,-7104703 -180785,-7104714 -180780,-7104717 -180780,-7104722 -180784,-7104730 -180791,-7104733 -180801,-7104730 -180812,-7104728 -180827,-7104732 -180839,-7104739 -180844,-7104747 -180844,-7104760 -180845,-7104767 -180861,-7104785 -180870,-7104807 -180880,-7104822 -180883,-7104831 -180858,-7104860 -180865,-7104875 -180865,-7104890 -180856,-7104900 -180819,-7104899 -180804,-7104905 -180797,-7104913 -180793,-7104917 -180784,-7104914 -180783,-7104914 -180768,-7104913 -180737,-7104911 -180716,-7104904 -180698,-7104910 -180695,-7104925 -180703,-7104934 -180702,-7104948 -180696,-7104958 -180685,-7104966 -180671,-7104959 -180663,-7104950 -180657,-7104947 -180653,-7104958 -180640,-7104962 -180635,-7104969 -180637,-7104979 -180633,-7104985 -180623,-7104985 -180615,-7104981 -180602,-7104981 -180593,-7104994 -180563,-7104993 -180515,-7105017 -180511,-7105045 -180497,-7105082 -180497,-7105121 -180492,-7105147 -180484,-7105154 -180447,-7105153 -180423,-7105148 -180395,-7105147 -180377,-7105157 -180353,-7105157 -180345,-7105144 -180332,-7105144 -180307,-7105149 -180269,-7105151 -180251,-7105156 -180160,-7105155 -180136,-7105167 -180121,-7105167 -180089,-7105163 -180085,-7105189 -180079,-7105198 -180061,-7105204 -180046,-7105206 -180030,-7105213 -179974,-7105229 -179936,-7105230 -179902,-7105239 -179857,-7105244 -179818,-7105253 -179768,-7105254 -179735,-7105259 -179657,-7105277 -179593,-7105288 -179567,-7105296 -179523,-7105299 -179483,-7105311 -179456,-7105311 -179442,-7105318 -179417,-7105321 -179386,-7105325 -179370,-7105318 -179360,-7105311 -179349,-7105311 -179332,-7105321 -179309,-7105340 -179308,-7105352 -179318,-7105360 -179319,-7105377 -179312,-7105388 -179292,-7105403 -179272,-7105414 -179270,-7105423 -179279,-7105429 -179282,-7105438 -179277,-7105448 -179252,-7105450 -179241,-7105438 -179223,-7105422 -179208,-7105420 -179197,-7105423 -179177,-7105442 -179178,-7105454 -179168,-7105460 -179089,-7105458 -179083,-7105464 -179082,-7105479 -179070,-7105488 -179055,-7105489 -179039,-7105477 -179028,-7105460 -179016,-7105455 -178991,-7105456 -178982,-7105462 -178981,-7105470 -178974,-7105479 -178947,-7105478 -178920,-7105473 -178905,-7105466 -178891,-7105455 -178881,-7105455 -178862,-7105470 -178845,-7105493 -178835,-7105497 -178828,-7105492 -178824,-7105472 -178819,-7105463 -178813,-7105463 -178805,-7105467 -178800,-7105473 -178791,-7105506 -178783,-7105517 -178763,-7105517 -178714,-7105534 -178687,-7105562 -178665,-7105580 -178640,-7105589 -178625,-7105569 -178606,-7105572 -178606,-7105578 -178602,-7105579 -178556,-7105615 -178508,-7105617 -178461,-7105656 -178425,-7105656 -178411,-7105646 -178361,-7105631 -178348,-7105633 -178334,-7105644 -178310,-7105660 -178269,-7105667 -178233,-7105681 -178219,-7105690 -178203,-7105689 -178194,-7105681 -178180,-7105681 -178130,-7105695 -178122,-7105716 -178121,-7105736 -178151,-7105748 -178151,-7105765 -178130,-7105765 -178086,-7105771 -178067,-7105770 -178048,-7105758 -178045,-7105747 -178052,-7105725 -178051,-7105715 -178026,-7105721 -178007,-7105724 -177984,-7105725 -177974,-7105730 -177960,-7105728 -177947,-7105722 -177939,-7105722 -177921,-7105736 -177898,-7105747 -177860,-7105760 -177854,-7105771 -177853,-7105787 -177832,-7105795 -177812,-7105817 -177792,-7105827 -177775,-7105828 -177759,-7105824 -177743,-7105812 -177736,-7105812 -177728,-7105814 -177736,-7105826 -177704,-7105880 -177690,-7105895 -177677,-7105899 -177675,-7105911 -177683,-7105924 -177679,-7105930 -177660,-7105933 -177651,-7105937 -177647,-7105953 -177601,-7105984 -177598,-7105974 -177591,-7105968 -177586,-7105972 -177587,-7105988 -177580,-7105994 -177560,-7105996 -177545,-7105986 -177521,-7105978 -177498,-7105976 -177478,-7105973 -177439,-7105948 -177429,-7105934 -177412,-7105915 -177391,-7105907 -177361,-7105876 -177325,-7105860 -177286,-7105854 -177275,-7105868 -177273,-7105885 -177294,-7105900 -177295,-7105911 -177292,-7105926 -177257,-7106038 -177203,-7106177 -177149,-7106151 -177096,-7106118 -177082,-7106140 -177079,-7106138 -177077,-7106136 -177067,-7106150 -177064,-7106166 -177032,-7106223 -177047,-7106232 -177036,-7106248 -177050,-7106258 -177048,-7106263 -177052,-7106323 -177057,-7106347 -177060,-7106355 -177065,-7106364 -177130,-7106425 -177146,-7106443 -177155,-7106466 -177163,-7106517 -177158,-7106538 -177134,-7106564 -177179,-7106602 -177248,-7106657 -177318,-7106717 -177381,-7106766 -177390,-7106761 -177569,-7106912 -177568,-7106916 -177591,-7106936 -177589,-7106939 -177667,-7107015 -177690,-7107036 -177796,-7107147 -177914,-7107296 -177928,-7107303 -177927,-7107310 -177942,-7107325 -177962,-7107360 -178012,-7107414 -178028,-7107427 -178064,-7107457 -178217,-7107594 -178254,-7107617 -178257,-7107623 -178275,-7107638 -178297,-7107651 -178331,-7107685 -178396,-7107737 -178399,-7107733 -178431,-7107753 -178469,-7107764 -178526,-7107772 -178527,-7107764 -178577,-7107770 -178631,-7107767 -178858,-7107742 -178863,-7107787 -178896,-7107854 -178941,-7107928 -179003,-7108022 -179028,-7108056 -179056,-7108084 -178993,-7108205 -178955,-7108276 -179004,-7108347 -179059,-7108341 -179152,-7108355 -179255,-7108381 -179361,-7108424 -179567,-7108521 -179593,-7108535 -179614,-7108549 -179630,-7108561 -179646,-7108575 -179663,-7108593 -179680,-7108612 -179693,-7108631 -179705,-7108651 -179716,-7108674 -179724,-7108697 -179732,-7108722 -179745,-7108772 -179745,-7108773 -179749,-7108797 -179753,-7108822 -179755,-7108860 -179755,-7108898 -179755,-7109006 -179774,-7109156 -179794,-7109270 -179805,-7109328 -179749,-7109351 -179717,-7109353 -179681,-7109330 -179643,-7109377 -179587,-7109366 -179527,-7109357 -179487,-7109356 -179444,-7109390 -179428,-7109397 -179418,-7109401 -179400,-7109411 -179369,-7109411 -179336,-7109400 -179323,-7109393 -179315,-7109384 -179273,-7109428 -179256,-7109446 -179192,-7109486 -179186,-7109492 -179189,-7109497 -179148,-7109518 -179095,-7109540 -179049,-7109557 -178987,-7109585 -178988,-7109588 -178965,-7109601 -178946,-7109611 -178915,-7109616 -178881,-7109617 -178843,-7109621 -178781,-7109628 -178766,-7109636 -178738,-7109639 -178722,-7109643 -178673,-7109669 -178672,-7109673 -178660,-7109686 -178644,-7109699 -178634,-7109710 -178629,-7109753 -178628,-7109814 -178624,-7109846 -178619,-7109847 -178615,-7109895 -178605,-7109920 -178590,-7109945 -178576,-7109973 -178560,-7110032 -178542,-7110104 -178532,-7110126 -178513,-7110148 -178500,-7110175 -178496,-7110191 -178501,-7110202 -178504,-7110232 -178480,-7110256 -178463,-7110277 -178462,-7110287 -178444,-7110318 -178442,-7110333 -178433,-7110351 -178411,-7110366 -178409,-7110383 -178414,-7110408 -178417,-7110441 -178400,-7110467 -178359,-7110531 -178332,-7110520 -178266,-7110510 -178166,-7110504 -178084,-7110495 -177981,-7110478 -177972,-7110534 -177969,-7110550 -177938,-7110544 -177928,-7110566 -177920,-7110563 -177894,-7110628 -177869,-7110619 -177866,-7110655 -177849,-7110722 -177835,-7110776 -177835,-7110793 -177832,-7110803 -177811,-7110813 -177808,-7110824 -177768,-7110864 -177739,-7110928 -177709,-7110975 -177662,-7111030 -177652,-7111059 -177633,-7111071 -177613,-7111101 -177561,-7111141 -177548,-7111168 -177516,-7111203 -177493,-7111217 -177469,-7111245 -177470,-7111261 -177465,-7111275 -177445,-7111296 -177428,-7111335 -177392,-7111405 -177340,-7111468 -177315,-7111483 -177289,-7111491 -177251,-7111515 -177211,-7111538 -177233,-7111595 -177228,-7111627 -177230,-7111695 -177237,-7111721 -177238,-7111739 -177258,-7111842 -177257,-7111865 -177250,-7111894 -177246,-7111914 -177238,-7111929 -177238,-7111944 -177254,-7111944 -177254,-7111957 -177320,-7111952 -177345,-7111950 -177418,-7111941 -177469,-7111937 -177527,-7111938 -177604,-7111916 -177609,-7111904 -177641,-7111921 -177771,-7111944 -177768,-7111967 -177885,-7111989 -177971,-7112005 -178051,-7112019 -178170,-7112038 -178280,-7112055 -178389,-7112071 -178385,-7112099 -178359,-7112125 -178339,-7112148 -178322,-7112171 -178323,-7112176 -178338,-7112190 -178340,-7112207 -178360,-7112229 -178380,-7112277 -178395,-7112291 -178393,-7112330 -178377,-7112352 -178376,-7112407 -178368,-7112448 -178380,-7112461 -178368,-7112472 -178362,-7112488 -178365,-7112546 -178369,-7112599 -178360,-7112637 -178365,-7112657 -178392,-7112662 -178389,-7112700 -178370,-7112741 -178365,-7112758 -178349,-7112772 -178346,-7112775 -178341,-7112788 -178340,-7112808 -178351,-7112838 -178322,-7112839 -178292,-7112861 -178263,-7112877 -178229,-7112946 -178176,-7113041 -178166,-7113058 -178111,-7113112 -178100,-7113144 -178090,-7113157 -178064,-7113181 -178037,-7113228 -178034,-7113259 -178020,-7113285 -177966,-7113366 -177946,-7113404 -177934,-7113487 -177930,-7113502 -177918,-7113502 -177882,-7113519 -177823,-7113555 -177734,-7113607 -177712,-7113628 -177658,-7113656 -177645,-7113660 -177640,-7113655 -177635,-7113644 -177619,-7113611 -177591,-7113569 -177556,-7113542 -177462,-7113583 -177389,-7113627 -177374,-7113638 -177368,-7113639 -177310,-7113675 -177274,-7113706 -177186,-7113763 -177134,-7113799 -177104,-7113823 -177063,-7113890 -177045,-7113919 -177037,-7113932 -177031,-7113941 -177018,-7113953 -177003,-7113964 -176988,-7113973 -176930,-7113995 -176898,-7113998 -176877,-7114000 -176852,-7114005 -176823,-7114013 -176798,-7114021 -176784,-7114029 -176752,-7114040 -176723,-7114052 -176690,-7114078 -176683,-7114081 -176649,-7114097 -176604,-7114115 -176592,-7114115 -176578,-7114111 -176566,-7114110 -176535,-7114119 -176488,-7114124 -176464,-7114116 -176445,-7114128 -176412,-7114114 -176398,-7114116 -176380,-7114110 -176370,-7114112 -176361,-7114119 -176352,-7114124 -176345,-7114125 -176326,-7114129 -176275,-7114135 -176244,-7114148 -176208,-7114160 -176162,-7114165 -176025,-7114205 -176003,-7114218 -175957,-7114250 -175888,-7114280 -175863,-7114289 -175838,-7114298 -175757,-7114326 -175709,-7114360 -175691,-7114361 -175640,-7114372 -175620,-7114381 -175586,-7114400 -175527,-7114398 -175491,-7114412 -175480,-7114418 -175454,-7114433 -175416,-7114457 -175388,-7114464 -175353,-7114479 -175290,-7114539 -175251,-7114554 -175214,-7114580 -175123,-7114608 -175120,-7114621 -175064,-7114664 -175035,-7114676 -174970,-7114707 -174896,-7114747 -174883,-7114711 -174884,-7114705 -174851,-7114683 -174796,-7114650 -174788,-7114650 -174706,-7114592 -174579,-7114496 -174526,-7114454 -174496,-7114422 -174446,-7114361 -174425,-7114332 -174395,-7114301 -174382,-7114310 -174370,-7114291 -174362,-7114276 -174353,-7114266 -174338,-7114260 -174324,-7114246 -174286,-7114188 -174277,-7114161 -174261,-7114133 -174261,-7114120 -174269,-7114112 -174269,-7114105 -174263,-7114102 -174243,-7114099 -174223,-7114103 -174211,-7114098 -174173,-7114064 -174174,-7114053 -174180,-7114045 -174187,-7114046 -174197,-7114052 -174215,-7114039 -174219,-7114028 -174207,-7114009 -174209,-7113993 -174224,-7113962 -174220,-7113955 -174212,-7113955 -174194,-7113962 -174183,-7113963 -174168,-7113970 -174160,-7113969 -174151,-7113957 -174148,-7113939 -174151,-7113921 -174147,-7113914 -174128,-7113899 -174126,-7113890 -174137,-7113870 -174137,-7113860 -174123,-7113852 -174117,-7113853 -174107,-7113863 -174101,-7113862 -174085,-7113847 -174062,-7113854 -174040,-7113847 -174016,-7113847 -174013,-7113837 -174019,-7113809 -174008,-7113799 -173990,-7113815 -173983,-7113817 -173970,-7113803 -173956,-7113759 -173941,-7113739 -173939,-7113729 -173938,-7113701 -173936,-7113691 -173927,-7113684 -173896,-7113676 -173888,-7113680 -173888,-7113693 -173883,-7113699 -173874,-7113694 -173868,-7113677 -173829,-7113631 -173834,-7113613 -173832,-7113597 -173812,-7113587 -173808,-7113582 -173805,-7113572 -173796,-7113567 -173782,-7113565 -173757,-7113566 -173748,-7113549 -173759,-7113532 -173756,-7113519 -173723,-7113500 -173706,-7113495 -173705,-7113485 -173714,-7113463 -173739,-7113444 -173739,-7113435 -173729,-7113430 -173703,-7113433 -173689,-7113439 -173678,-7113440 -173660,-7113424 -173648,-7113425 -173638,-7113416 -173622,-7113393 -173609,-7113393 -173596,-7113380 -173583,-7113352 -173512,-7113420 -173485,-7113455 -173441,-7113511 -173423,-7113539 -173409,-7113567 -173385,-7113610 -173377,-7113650 -173343,-7113727 -173327,-7113799 -173300,-7113848 -173278,-7113881 -173261,-7113900 -173238,-7113950 -173172,-7114059 -173133,-7114058 -173107,-7114148 -173056,-7114088 -173053,-7114084 -173046,-7114075 -173015,-7114039 -172987,-7114001 -172985,-7114000 -172934,-7114108 -172888,-7114234 -172853,-7114340 -172832,-7114426 -172810,-7114515 -172777,-7114578 -172685,-7114738 -172645,-7114817 -172627,-7114840 -172538,-7114988 -172456,-7115114 -172428,-7115166 -172388,-7115225 -172362,-7115257 -172296,-7115337 -172278,-7115362 -172253,-7115394 -172225,-7115424 -172227,-7115449 -172220,-7115456 -172201,-7115453 -172162,-7115498 -172094,-7115564 -172022,-7115630 -171978,-7115665 -171834,-7115774 -171728,-7115862 -171689,-7115890 -171605,-7115945 -171571,-7115968 -171524,-7115994 -171517,-7116010 -171507,-7116017 -171485,-7116014 -171424,-7116050 -171391,-7116061 -171337,-7116084 -171267,-7116119 -171194,-7116157 -171080,-7116222 -171015,-7116260 -171001,-7116268 -170964,-7116294 -170945,-7116301 -170926,-7116304 -170908,-7116302 -170884,-7116290 -170855,-7116310 -170839,-7116313 -170819,-7116321 -170761,-7116356 -170750,-7116397 -170738,-7116441 -170729,-7116463 -170704,-7116506 -170651,-7116565 -170624,-7116596 -170524,-7116691 -170501,-7116711 -170421,-7116788 -170330,-7116887 -170294,-7116921 -170213,-7117003 -170114,-7117091 -170098,-7117095 -170090,-7117103 -170087,-7117124 -170017,-7117191 -169900,-7117297 -169802,-7117383 -169752,-7117426 -169668,-7117499 -169588,-7117567 -169481,-7117662 -169329,-7117801 -169218,-7117900 -169122,-7117983 -169056,-7118029 -169060,-7118045 -168979,-7118117 -168923,-7118168 -168892,-7118204 -168863,-7118231 -168795,-7118304 -168700,-7118417 -168592,-7118553 -168505,-7118675 -168465,-7118733 -168453,-7118723 -168451,-7118722 -168352,-7118874 -168262,-7119023 -168227,-7119074 -168199,-7119096 -168178,-7119110 -168136,-7119128 -168102,-7119134 -168067,-7119133 -167984,-7119120 -167906,-7119100 -167786,-7119072 -167606,-7119026 -167625,-7118869 -167643,-7118630 -167572,-7118630 -167500,-7118619 -167436,-7118607 -167405,-7118604 -167400,-7118605 -167381,-7118607 -167370,-7118622 -167347,-7118664 -167314,-7118612 -167252,-7118496 -167187,-7118397 -167262,-7118356 -167267,-7118365 -167359,-7118312 -167466,-7118245 -167269,-7118115 -167212,-7118059 -167151,-7118011 -167088,-7117984 -167008,-7117966 -166920,-7117948 -166846,-7117926 -166845,-7117951 -166660,-7117858 -166657,-7117855 -166661,-7117847 -166656,-7117846 -166637,-7117797 -166575,-7117784 -166503,-7117739 -166422,-7117734 -166322,-7117729 -166024,-7117712 -165991,-7117742 -165913,-7117770 -165916,-7117892 -165901,-7117881 -165847,-7117880 -165793,-7117884 -165784,-7117891 -165720,-7118399 -165676,-7118764 -165498,-7118757 -165403,-7118753 -165308,-7118750 -165180,-7118749 -165095,-7118748 -165091,-7118748 -164989,-7118748 -164954,-7118754 -164903,-7118763 -164885,-7118775 -164883,-7118776 -164863,-7118773 -164847,-7118771 -164811,-7118762 -164635,-7118781 -164462,-7118795 -164394,-7118797 -164316,-7118797 -164187,-7118787 -164046,-7118788 -163872,-7118791 -163600,-7118786 -163397,-7118778 -163245,-7118779 -163080,-7118791 -162999,-7118802 -162947,-7118805 -162790,-7118807 -162718,-7118807 -162661,-7118800 -162576,-7118786 -162528,-7118777 -162501,-7118768 -162484,-7118760 -162481,-7118761 -162464,-7118786 -162436,-7118765 -162404,-7118726 -162380,-7118724 -162363,-7118713 -162349,-7118710 -162340,-7118709 -162315,-7118708 -162265,-7118719 -162211,-7118699 -162160,-7118764 -162144,-7118772 -162124,-7118780 -162111,-7118784 -161996,-7118812 -161921,-7118829 -161867,-7118833 -161734,-7118841 -161563,-7118847 -161465,-7118847 -161328,-7118846 -161289,-7118851 -161246,-7118860 -161235,-7118837 -161171,-7118843 -161074,-7118843 -160955,-7118845 -160811,-7118848 -160781,-7118855 -160650,-7118852 -160603,-7118840 -160431,-7118784 -160343,-7118752 -160197,-7118689 -160123,-7118650 -160071,-7118615 -160015,-7118575 -159959,-7118543 -159875,-7118490 -159811,-7118448 -159724,-7118390 -159701,-7118374 -159689,-7118364 -159643,-7118322 -159576,-7118259 -159505,-7118184 -159384,-7118018 -159353,-7117969 -159334,-7117930 -159331,-7117928 -159315,-7117925 -159277,-7117932 -159274,-7117931 -159269,-7117911 -159270,-7117908 -159297,-7117894 -159298,-7117892 -159288,-7117885 -159259,-7117850 -159231,-7117815 -159133,-7117681 -159089,-7117615 -159081,-7117609 -159075,-7117606 -159070,-7117604 -159065,-7117604 -159051,-7117608 -159039,-7117614 -159036,-7117614 -158992,-7117557 -158973,-7117575 -158905,-7117638 -158868,-7117672 -158752,-7117763 -158651,-7117845 -158572,-7117894 -158468,-7117953 -158448,-7117961 -158433,-7117965 -158417,-7117969 -158397,-7117972 -158376,-7117973 -158354,-7117973 -158337,-7117972 -158325,-7117969 -158314,-7117966 -158303,-7117960 -158293,-7117954 -158277,-7117940 -158252,-7117900 -158227,-7117848 -158206,-7117817 -158165,-7117779 -158103,-7117725 -158079,-7117712 -158063,-7117706 -158037,-7117700 -157948,-7117704 -157878,-7117710 -157823,-7117710 -157755,-7117718 -157672,-7117732 -157602,-7117749 -157501,-7117800 -157471,-7117822 -157455,-7117831 -157437,-7117840 -157413,-7117850 -157390,-7117857 -157361,-7117864 -157321,-7117877 -157305,-7117881 -157271,-7117888 -157251,-7117890 -157226,-7117891 -157202,-7117891 -157180,-7117888 -157163,-7117885 -157140,-7117879 -157109,-7117869 -157087,-7117860 -157054,-7117844 -157028,-7117827 -157016,-7117819 -156992,-7117800 -156957,-7117768 -156946,-7117758 -156928,-7117746 -156910,-7117735 -156894,-7117728 -156806,-7117698 -156741,-7117674 -156698,-7117665 -156671,-7117657 -156645,-7117647 -156621,-7117635 -156602,-7117625 -156469,-7117536 -156325,-7117443 -156096,-7117293 -156050,-7117262 -156018,-7117243 -155948,-7117210 -155859,-7117181 -155844,-7117177 -155816,-7117175 -155771,-7117180 -155730,-7117189 -155684,-7117205 -155663,-7117216 -155651,-7117224 -155641,-7117231 -155584,-7117288 -155552,-7117340 -155514,-7117414 -155507,-7117428 -155495,-7117462 -155483,-7117507 -155479,-7117531 -155476,-7117578 -155450,-7117739 -155419,-7117824 -155404,-7117853 -155393,-7117872 -155380,-7117889 -155367,-7117905 -155356,-7117916 -155343,-7117926 -155322,-7117946 -155285,-7117978 -155257,-7117998 -155249,-7118004 -155233,-7118015 -155129,-7118058 -155094,-7118072 -154986,-7118105 -154886,-7118151 -154767,-7118194 -154684,-7118230 -154671,-7118236 -154574,-7118277 -154504,-7118303 -154434,-7118328 -154206,-7118403 -154011,-7118465 -153916,-7118503 -153811,-7118551 -153760,-7118588 -153712,-7118631 -153654,-7118671 -153631,-7118685 -153600,-7118709 -153495,-7118808 -153385,-7118937 -153291,-7119025 -153253,-7119054 -153220,-7119074 -153183,-7119092 -153154,-7119103 -152997,-7119146 -152966,-7119151 -152938,-7119152 -152888,-7119146 -152853,-7119141 -152805,-7119132 -152730,-7119107 -152680,-7119090 -152618,-7119082 -152525,-7119075 -152478,-7119074 -152451,-7119075 -152423,-7119078 -152373,-7119086 -152338,-7119095 -152318,-7119100 -152279,-7119113 -152248,-7119125 -152188,-7119150 -152131,-7119177 -152088,-7119199 -152053,-7119220 -152030,-7119236 -151925,-7119319 -151735,-7119451 -151710,-7119467 -151684,-7119482 -151654,-7119498 -151625,-7119512 -151581,-7119530 -151530,-7119546 -151508,-7119550 -151483,-7119554 -151459,-7119557 -151435,-7119558 -151411,-7119558 -151393,-7119556 -151357,-7119549 -151342,-7119544 -151329,-7119539 -151314,-7119531 -151300,-7119521 -151288,-7119512 -151262,-7119486 -151240,-7119479 -151192,-7119467 -151150,-7119458 -151123,-7119456 -151100,-7119455 -151083,-7119455 -151049,-7119459 -151033,-7119463 -151002,-7119473 -150962,-7119490 -150812,-7119563 -150753,-7119606 -150697,-7119632 -150595,-7119685 -150183,-7119883 -150037,-7119955 -149903,-7120022 -149702,-7120120 -149458,-7120241 -149363,-7120292 -149347,-7120305 -149311,-7120327 -149267,-7120349 -149247,-7120358 -149196,-7120376 -149177,-7120382 -149136,-7120395 -149097,-7120405 -149062,-7120410 -149043,-7120412 -149024,-7120413 -149007,-7120412 -148976,-7120408 -148901,-7120394 -148866,-7120384 -148847,-7120378 -148808,-7120362 -148713,-7120336 -148623,-7120301 -148499,-7120261 -148483,-7120257 -148459,-7120253 -148446,-7120252 -148429,-7120252 -148407,-7120254 -148385,-7120256 -148335,-7120266 -148314,-7120270 -148293,-7120276 -148229,-7120302 -148151,-7120344 -148100,-7120374 -148062,-7120394 -148007,-7120421 -147991,-7120426 -147976,-7120431 -147965,-7120433 -147944,-7120435 -147923,-7120435 -147899,-7120433 -147866,-7120430 -147839,-7120427 -147803,-7120418 -147782,-7120412 -147764,-7120404 -147750,-7120398 -147731,-7120388 -147706,-7120373 -147683,-7120356 -147664,-7120342 -147648,-7120329 -147622,-7120304 -147586,-7120269 -147552,-7120233 -147517,-7120195 -147469,-7120144 -147446,-7120127 -147430,-7120117 -147414,-7120108 -147400,-7120102 -147386,-7120098 -147368,-7120093 -147349,-7120090 -147334,-7120088 -147307,-7120089 -147285,-7120094 -147220,-7120113 -147193,-7120121 -147152,-7120137 -147105,-7120159 -147058,-7120186 -147032,-7120203 -147012,-7120217 -146986,-7120240 -146969,-7120257 -146950,-7120280 -146941,-7120291 -146893,-7120360 -146863,-7120407 -146804,-7120491 -146748,-7120574 -146711,-7120656 -146680,-7120720 -146618,-7120825 -146546,-7120935 -146487,-7121018 -146453,-7121056 -146452,-7121057 -146444,-7121067 -146401,-7121119 -146356,-7121164 -146305,-7121211 -146273,-7121234 -146250,-7121247 -146225,-7121259 -146204,-7121267 -146184,-7121272 -146159,-7121278 -146133,-7121281 -146099,-7121283 -146085,-7121283 -146061,-7121279 -146034,-7121270 -146020,-7121264 -146007,-7121257 -145994,-7121248 -145982,-7121238 -145971,-7121228 -145960,-7121216 -145948,-7121201 -145937,-7121185 -145923,-7121159 -145836,-7121023 -145801,-7120988 -145760,-7120950 -145733,-7120929 -145722,-7120923 -145709,-7120916 -145695,-7120910 -145678,-7120904 -145659,-7120901 -145638,-7120899 -145628,-7120899 -145609,-7120902 -145596,-7120906 -145578,-7120913 -145544,-7120932 -145523,-7120946 -145499,-7120964 -145380,-7121048 -145272,-7121140 -145204,-7121206 -145132,-7121281 -145112,-7121299 -145085,-7121321 -145046,-7121347 -145023,-7121359 -144992,-7121374 -144967,-7121384 -144942,-7121392 -144927,-7121398 -144906,-7121403 -144886,-7121408 -144865,-7121410 -144847,-7121412 -144804,-7121412 -144789,-7121411 -144751,-7121403 -144733,-7121398 -144709,-7121388 -144686,-7121378 -144662,-7121365 -144641,-7121353 -144612,-7121333 -144594,-7121319 -144579,-7121305 -144546,-7121266 -144508,-7121218 -144489,-7121189 -144435,-7121100 -144417,-7121078 -144405,-7121064 -144378,-7121038 -144360,-7121022 -144322,-7120993 -144304,-7120983 -144295,-7120979 -144280,-7120975 -144262,-7120972" stroke="#003087" stroke-width="78" /></svg>