<?xml version="1.0" standalone="no"?>
<!DOCTYPE svg PUBLIC "-//W3C//DTD SVG 1.1//EN"
"http://www.w3.org/Graphics/SVG/1.1/DTD/svg11.dtd">
<svg height="115" version="1.1" viewBox="-200538 -7076609 53086 37081" width="220" xmlns="http://www.w3.org/2000/svg"><polygon fill="#003087" points=" -189182,-7076549 -189081,-7076500 -189071,-7076500 -189050,-7076481 -189049,-7076472 -188925,-7076355 -188887,-7076330 -188851,-7076315 -188832,-7076305 -188793,-7076277 -188775,-7076260 -188705,-7076212 -188648,-7076172 -188557,-7076124 -188517,-7076103 -188525,-7076098 -188525,-7076080 -188505,-7076060 -188461,-7076052 -188405,-7076022 -188371,-7075999 -188287,-7075958 -188237,-7075935 -188209,-7075924 -188193,-7075993 -188187,-7075995 -188112,-7075981 -188038,-7075973 -188015,-7075967 -188003,-7075955 -187992,-7075937 -187988,-7075923 -187992,-7075894 -187995,-7075860 -187893,-7075843 -187840,-7075844 -187801,-7075853 -187775,-7075858 -187733,-7075866 -187674,-7075879 -187623,-7075890 -187564,-7075903 -187539,-7075913 -187514,-7075925 -187460,-7075816 -187425,-7075848 -187396,-7075875 -187371,-7075897 -187332,-7075923 -187305,-7075936 -187272,-7075944 -187262,-7075920 -187255,-7075926 -187262,-7075944 -187248,-7075960 -187227,-7075974 -187159,-7076002 -187140,-7076011 -187145,-7076025 -187140,-7076035 -187086,-7076064 -187072,-7076076 -187068,-7076089 -187066,-7076101 -187066,-7076123 -186905,-7076133 -186831,-7076137 -186715,-7076139 -186683,-7076133 -186680,-7076117 -186664,-7076117 -186665,-7076130 -186656,-7076141 -186413,-7076156 -186306,-7076158 -186165,-7076160 -186070,-7076161 -185915,-7076161 -185861,-7076157 -185798,-7076150 -185763,-7076141 -185721,-7076132 -185640,-7076103 -185595,-7076083 -185499,-7076039 -185422,-7076004 -185265,-7075935 -185197,-7075910 -185104,-7075876 -184944,-7075828 -184811,-7075789 -184777,-7075774 -184713,-7075749 -184661,-7075724 -184618,-7075698 -184573,-7075671 -184519,-7075630 -184465,-7075590 -184416,-7075553 -184347,-7075499 -184299,-7075466 -184249,-7075436 -184243,-7075425 -184229,-7075422 -184228,-7075426 -184155,-7075383 -184112,-7075358 -184097,-7075356 -184056,-7075335 -184041,-7075332 -183984,-7075299 -183906,-7075264 -183861,-7075242 -183819,-7075219 -183812,-7075209 -183774,-7075194 -183748,-7075186 -183712,-7075169 -183676,-7075148 -183650,-7075135 -183598,-7075108 -183486,-7075066 -183451,-7075055 -183404,-7075041 -183336,-7075028 -183270,-7075011 -183130,-7074977 -183052,-7074963 -182987,-7074958 -182908,-7074954 -182854,-7074950 -182756,-7074932 -182704,-7074917 -182650,-7074896 -182604,-7074871 -182528,-7074826 -182486,-7074802 -182451,-7074783 -182337,-7074742 -182263,-7074718 -182156,-7074682 -182049,-7074647 -181982,-7074627 -181935,-7074614 -181886,-7074603 -181877,-7074601 -181846,-7074595 -181816,-7074591 -181793,-7074588 -181765,-7074586 -181751,-7074585 -181602,-7074583 -181587,-7074583 -181466,-7074580 -181421,-7074580 -181326,-7074579 -181180,-7074582 -181056,-7074580 -180995,-7074577 -180958,-7074570 -180832,-7074551 -180814,-7074559 -180700,-7074545 -180550,-7074517 -180460,-7074496 -180342,-7074462 -180217,-7074424 -180089,-7074381 -180014,-7074357 -179934,-7074330 -179839,-7074289 -179775,-7074260 -179745,-7074317 -179741,-7074437 -179731,-7074648 -179729,-7074730 -179720,-7074744 -179655,-7074750 -179527,-7074765 -179477,-7074782 -179457,-7074778 -179441,-7074776 -179422,-7074767 -179392,-7074753 -179352,-7074731 -179333,-7074715 -179264,-7074653 -179211,-7074605 -179194,-7074588 -179185,-7074582 -179180,-7074576 -179174,-7074566 -179152,-7074466 -179134,-7074472 -179134,-7074480 -179117,-7074498 -179120,-7074510 -179006,-7074572 -178945,-7074614 -178844,-7074697 -178648,-7074588 -178517,-7074516 -178423,-7074474 -178375,-7074451 -178359,-7074510 -178231,-7074463 -178118,-7074439 -177919,-7074397 -177903,-7074390 -177793,-7074367 -177653,-7074312 -177571,-7074277 -177407,-7074268 -177352,-7074259 -177302,-7074247 -177234,-7074211 -177080,-7074149 -177038,-7074152 -177025,-7074131 -176989,-7074102 -176956,-7074085 -176952,-7074085 -176939,-7074082 -176932,-7074070 -176909,-7074043 -176889,-7074023 -176875,-7074016 -176856,-7073993 -176830,-7073970 -176813,-7073949 -176796,-7073925 -176773,-7073909 -176758,-7073885 -176717,-7073838 -176709,-7073830 -176666,-7073809 -176654,-7073806 -176649,-7073806 -176629,-7073807 -176612,-7073807 -176603,-7073800 -176510,-7073777 -176480,-7073771 -176458,-7073765 -176438,-7073765 -176418,-7073754 -176389,-7073738 -176331,-7073739 -176270,-7073729 -176231,-7073716 -176209,-7073709 -176164,-7073705 -176151,-7073699 -176140,-7073698 -176140,-7073687 -176130,-7073672 -176122,-7073665 -176117,-7073661 -176095,-7073663 -176007,-7073629 -175926,-7073591 -175910,-7073579 -175843,-7073555 -175808,-7073543 -175715,-7073517 -175637,-7073497 -175571,-7073468 -175478,-7073436 -175315,-7073409 -175283,-7073422 -175239,-7073420 -175152,-7073447 -175101,-7073454 -175069,-7073457 -174978,-7073450 -174862,-7073464 -174862,-7073470 -174722,-7073465 -174699,-7073468 -174688,-7073475 -174685,-7073485 -174677,-7073493 -174659,-7073464 -174618,-7073465 -174578,-7073455 -174549,-7073461 -174485,-7073455 -174461,-7073452 -174384,-7073429 -174299,-7073413 -174299,-7073400 -174372,-7073378 -174358,-7073346 -174343,-7073338 -174238,-7073309 -174234,-7073252 -174221,-7073200 -174109,-7073199 -174066,-7073174 -174042,-7073164 -174013,-7073154 -173974,-7073146 -173934,-7073115 -173914,-7073101 -173899,-7073099 -173875,-7073100 -173844,-7073105 -173805,-7073114 -173787,-7073113 -173754,-7073088 -173778,-7073057 -173784,-7073044 -173785,-7073038 -173784,-7073033 -173781,-7073027 -173777,-7073023 -173774,-7073021 -173744,-7073011 -173717,-7072998 -173707,-7072994 -173640,-7072985 -173609,-7072974 -173576,-7072950 -173539,-7072918 -173488,-7072854 -173458,-7072807 -173424,-7072748 -173414,-7072722 -173407,-7072702 -173403,-7072681 -173400,-7072640 -173404,-7072604 -173402,-7072587 -173400,-7072578 -173397,-7072571 -173372,-7072528 -173360,-7072500 -173355,-7072482 -173354,-7072474 -173350,-7072440 -173350,-7072390 -173364,-7072332 -173124,-7072241 -172947,-7072171 -172714,-7072079 -172507,-7072001 -172472,-7071896 -172439,-7071835 -172407,-7071781 -172391,-7071747 -172375,-7071705 -172361,-7071649 -172356,-7071621 -172354,-7071617 -172340,-7071591 -172305,-7071541 -172269,-7071480 -172237,-7071413 -172216,-7071373 -172163,-7071278 -172126,-7071235 -172104,-7071201 -172092,-7071175 -172076,-7071156 -172060,-7071137 -172050,-7071132 -172024,-7071108 -171960,-7071010 -171932,-7070970 -171902,-7070927 -171835,-7070911 -171931,-7070826 -172049,-7070780 -172114,-7070757 -172169,-7070734 -172264,-7070703 -172329,-7070679 -172335,-7070661 -172318,-7070641 -172262,-7070591 -172180,-7070523 -172066,-7070426 -172042,-7070400 -172030,-7070384 -171983,-7070300 -171918,-7070175 -171909,-7070065 -171903,-7070030 -171894,-7069998 -171882,-7069964 -171810,-7069822 -171799,-7069795 -171762,-7069706 -171753,-7069686 -171739,-7069639 -171714,-7069543 -171693,-7069481 -171669,-7069430 -171651,-7069394 -171628,-7069349 -171596,-7069296 -171574,-7069261 -171552,-7069237 -171524,-7069197 -171520,-7069200 -171464,-7069118 -171394,-7069042 -171373,-7069024 -171357,-7068994 -171339,-7068916 -171325,-7068863 -171381,-7068844 -171395,-7068851 -171416,-7068842 -171440,-7068818 -171447,-7068810 -171457,-7068779 -171467,-7068739 -171462,-7068699 -171453,-7068609 -171440,-7068531 -171430,-7068475 -171412,-7068392 -171399,-7068353 -171385,-7068254 -171382,-7068190 -171382,-7068141 -171371,-7068118 -171477,-7067989 -171493,-7067977 -171474,-7067883 -171461,-7067824 -171478,-7067816 -171559,-7067780 -171566,-7067797 -171669,-7067789 -171846,-7067771 -172215,-7067736 -172580,-7067701 -172699,-7067693 -172733,-7067599 -172790,-7067452 -172803,-7067409 -172816,-7067362 -172828,-7067311 -172832,-7067210 -172828,-7067193 -172822,-7067179 -172808,-7067161 -172786,-7067144 -172686,-7067083 -172640,-7067056 -172596,-7067027 -172524,-7066970 -172404,-7066884 -172392,-7066873 -172352,-7066827 -172288,-7066740 -172266,-7066702 -172257,-7066677 -172253,-7066652 -172255,-7066642 -172259,-7066627 -172285,-7066577 -172309,-7066543 -172369,-7066467 -172403,-7066431 -172439,-7066390 -172451,-7066377 -172478,-7066351 -172518,-7066316 -172532,-7066304 -172536,-7066300 -172546,-7066289 -172573,-7066258 -172593,-7066230 -172629,-7066159 -172647,-7066120 -172675,-7066055 -172683,-7066032 -172685,-7066022 -172687,-7066000 -172685,-7065963 -172680,-7065953 -172667,-7065938 -172653,-7065923 -172606,-7065893 -172566,-7065873 -172542,-7065869 -172485,-7065824 -172410,-7065772 -172374,-7065745 -172361,-7065734 -172354,-7065726 -172335,-7065699 -172315,-7065661 -172288,-7065588 -172247,-7065512 -172204,-7065434 -172178,-7065383 -172158,-7065339 -172148,-7065309 -172138,-7065235 -172130,-7065193 -172127,-7065171 -172120,-7065157 -172092,-7065139 -172056,-7065120 -172008,-7065101 -171988,-7065097 -171959,-7065092 -171840,-7065069 -171765,-7065061 -171710,-7065051 -171683,-7065044 -171661,-7065036 -171617,-7065018 -171591,-7065005 -171561,-7064996 -171544,-7064992 -171521,-7064987 -171493,-7064984 -171445,-7064982 -171358,-7064976 -171300,-7064956 -171225,-7064962 -171192,-7064964 -171176,-7064967 -171143,-7064968 -171121,-7064955 -171088,-7064928 -171074,-7064911 -171069,-7064906 -171055,-7064897 -171046,-7064892 -170993,-7064871 -170983,-7064866 -170955,-7064848 -170910,-7064824 -170873,-7064792 -170857,-7064771 -170829,-7064724 -170803,-7064680 -170783,-7064645 -170774,-7064628 -170770,-7064616 -170763,-7064576 -170762,-7064544 -170738,-7064547 -170717,-7064552 -170708,-7064550 -170694,-7064539 -170678,-7064517 -170652,-7064491 -170644,-7064489 -170633,-7064489 -170600,-7064498 -170560,-7064494 -170563,-7064510 -170547,-7064529 -170534,-7064565 -170492,-7064548 -170464,-7064539 -170438,-7064538 -170387,-7064543 -170330,-7064549 -170280,-7064546 -170243,-7064545 -170192,-7064551 -170144,-7064555 -170126,-7064548 -170130,-7064534 -170085,-7064533 -170064,-7064533 -170042,-7064556 -170018,-7064582 -169924,-7064623 -169914,-7064631 -169909,-7064645 -169908,-7064677 -169867,-7064712 -169836,-7064793 -169828,-7064830 -169822,-7064853 -169816,-7064861 -169800,-7064868 -169793,-7064872 -169783,-7064872 -169767,-7064865 -169754,-7064869 -169741,-7064880 -169716,-7064896 -169708,-7064907 -169705,-7064920 -169686,-7064953 -169674,-7064961 -169666,-7064970 -169663,-7064983 -169668,-7065000 -169676,-7065012 -169677,-7065023 -169671,-7065029 -169663,-7065029 -169653,-7065040 -169632,-7065041 -169622,-7065048 -169620,-7065059 -169635,-7065067 -169646,-7065068 -169647,-7065078 -169634,-7065110 -169626,-7065138 -169627,-7065153 -169634,-7065167 -169633,-7065181 -169617,-7065199 -169602,-7065214 -169597,-7065233 -169603,-7065245 -169603,-7065258 -169572,-7065285 -169571,-7065307 -169593,-7065331 -169581,-7065342 -169560,-7065350 -169566,-7065368 -169566,-7065380 -169559,-7065390 -169534,-7065405 -169523,-7065416 -169505,-7065426 -169486,-7065445 -169439,-7065485 -169428,-7065517 -169421,-7065523 -169410,-7065527 -169400,-7065528 -169395,-7065533 -169391,-7065543 -169391,-7065564 -169380,-7065573 -169368,-7065577 -169321,-7065588 -169308,-7065618 -169295,-7065641 -169297,-7065661 -169271,-7065671 -169277,-7065696 -169271,-7065720 -169261,-7065731 -169270,-7065758 -169269,-7065781 -169277,-7065793 -169274,-7065816 -169283,-7065856 -169280,-7065886 -169255,-7065930 -169244,-7065942 -169243,-7065981 -169236,-7065999 -169225,-7066004 -169196,-7066071 -169198,-7066093 -169183,-7066134 -169166,-7066144 -169134,-7066150 -169112,-7066165 -169114,-7066206 -169088,-7066229 -169079,-7066252 -169085,-7066279 -169087,-7066324 -169097,-7066338 -169073,-7066380 -169082,-7066405 -169076,-7066411 -169069,-7066448 -169065,-7066467 -169012,-7066509 -169011,-7066524 -169018,-7066534 -169020,-7066543 -169019,-7066546 -169010,-7066558 -168996,-7066561 -168960,-7066597 -168922,-7066621 -168905,-7066638 -168888,-7066663 -168859,-7066698 -168846,-7066709 -168819,-7066727 -168767,-7066757 -168693,-7066795 -168694,-7066802 -168661,-7066815 -168641,-7066815 -168578,-7066847 -168538,-7066863 -168495,-7066899 -168478,-7066910 -168445,-7066939 -168495,-7067039 -168511,-7067066 -168548,-7067131 -168563,-7067179 -168573,-7067194 -168581,-7067236 -168607,-7067312 -168626,-7067364 -168640,-7067396 -168655,-7067413 -168673,-7067443 -168699,-7067501 -168727,-7067545 -168783,-7067631 -168855,-7067744 -168898,-7067809 -168910,-7067842 -168948,-7067911 -168969,-7067941 -168989,-7068000 -169003,-7068027 -168950,-7068051 -168843,-7068154 -168839,-7068157 -168849,-7068167 -168860,-7068177 -168915,-7068230 -168889,-7068250 -168861,-7068272 -168747,-7068373 -168688,-7068435 -168652,-7068475 -168685,-7068523 -168739,-7068582 -168748,-7068592 -168795,-7068652 -168711,-7068739 -168694,-7068765 -168682,-7068796 -168673,-7068848 -168633,-7068880 -168631,-7068960 -168644,-7068976 -168634,-7069011 -168632,-7069036 -168642,-7069056 -168637,-7069154 -168628,-7069228 -168559,-7069327 -168509,-7069396 -168462,-7069449 -168413,-7069497 -168365,-7069532 -168318,-7069574 -168290,-7069619 -168260,-7069629 -168114,-7069687 -167992,-7069736 -167981,-7069727 -167971,-7069726 -167943,-7069746 -167929,-7069741 -167898,-7069749 -167899,-7069758 -167894,-7069769 -167874,-7069766 -167869,-7069772 -167853,-7069780 -167854,-7069816 -167851,-7069825 -167831,-7069832 -167837,-7069852 -167839,-7069899 -167837,-7070010 -167835,-7070078 -167822,-7070121 -167798,-7070186 -167764,-7070272 -167757,-7070309 -167696,-7070448 -167668,-7070483 -167634,-7070527 -167608,-7070586 -167560,-7070699 -167536,-7070745 -167497,-7070803 -167415,-7070931 -167375,-7070992 -167295,-7071099 -167264,-7071141 -167134,-7071315 -167076,-7071399 -167060,-7071413 -167031,-7071458 -166997,-7071470 -166991,-7071486 -166977,-7071504 -166966,-7071532 -166919,-7071602 -166827,-7071749 -166770,-7071845 -166667,-7072014 -166560,-7072176 -166495,-7072281 -166449,-7072349 -166442,-7072363 -166442,-7072374 -166448,-7072384 -166441,-7072412 -166431,-7072442 -166412,-7072464 -166403,-7072475 -166380,-7072484 -166386,-7072503 -166386,-7072527 -166387,-7072571 -166396,-7072619 -166397,-7072627 -166395,-7072646 -166380,-7072679 -166381,-7072717 -166384,-7072788 -166395,-7072866 -166421,-7072999 -166424,-7073077 -166431,-7073131 -166446,-7073219 -166450,-7073259 -166439,-7073325 -166419,-7073395 -166394,-7073456 -166272,-7073457 -166233,-7073458 -166211,-7073472 -166193,-7073488 -166175,-7073522 -166042,-7073525 -166002,-7073522 -165959,-7073518 -165932,-7073517 -165901,-7073512 -165870,-7073507 -165804,-7073486 -165749,-7073463 -165647,-7073420 -165611,-7073419 -165585,-7073407 -165558,-7073383 -165532,-7073351 -165505,-7073329 -165439,-7073285 -165347,-7073246 -165314,-7073229 -165291,-7073200 -165248,-7073161 -165204,-7073114 -165118,-7072986 -165063,-7072919 -165009,-7072847 -164978,-7072800 -164919,-7072697 -164870,-7072631 -164802,-7072563 -164774,-7072527 -164733,-7072463 -164704,-7072436 -164641,-7072380 -164576,-7072333 -164496,-7072266 -164461,-7072257 -164433,-7072239 -164381,-7072218 -164360,-7072205 -164344,-7072201 -164295,-7072175 -164185,-7072144 -164144,-7072124 -164104,-7072120 -163972,-7072086 -163888,-7072065 -163806,-7072048 -163740,-7072039 -163694,-7072031 -163641,-7072014 -163581,-7071997 -163526,-7071983 -163374,-7071955 -163334,-7071950 -163333,-7071948 -163315,-7071930 -163294,-7071920 -163269,-7071908 -163264,-7071915 -163243,-7071950 -163227,-7071962 -163168,-7071970 -163161,-7071970 -163155,-7071969 -163151,-7071969 -163134,-7071968 -163117,-7071967 -163100,-7071965 -163083,-7071962 -163066,-7071958 -163060,-7071957 -163043,-7071952 -163025,-7071947 -163009,-7071940 -162992,-7071933 -162976,-7071926 -162973,-7071924 -162957,-7071916 -162914,-7071886 -162882,-7071856 -162850,-7071813 -162799,-7071737 -162777,-7071709 -162764,-7071686 -162726,-7071617 -162713,-7071603 -162709,-7071598 -162667,-7071558 -162663,-7071554 -162646,-7071551 -162639,-7071551 -162632,-7071550 -162630,-7071549 -162616,-7071547 -162605,-7071537 -162577,-7071512 -162561,-7071495 -162530,-7071438 -162481,-7071373 -162421,-7071282 -162366,-7071181 -162311,-7071084 -162276,-7071020 -162274,-7071019 -162266,-7071016 -162244,-7070974 -162231,-7070951 -162189,-7070897 -162162,-7070852 -162139,-7070774 -162131,-7070772 -162128,-7070766 -162072,-7070747 -162046,-7070741 -161994,-7070740 -161998,-7070733 -161987,-7070724 -161969,-7070660 -161950,-7070612 -161932,-7070566 -161917,-7070518 -161903,-7070481 -161880,-7070436 -161861,-7070393 -161839,-7070335 -161824,-7070297 -161810,-7070270 -161789,-7070226 -161760,-7070161 -161724,-7070084 -161708,-7070049 -161697,-7070020 -161682,-7069990 -161672,-7069971 -161651,-7069951 -161639,-7069931 -161618,-7069891 -161607,-7069874 -161591,-7069851 -161571,-7069827 -161556,-7069793 -161540,-7069752 -161521,-7069716 -161508,-7069681 -161486,-7069626 -161473,-7069582 -161461,-7069557 -161444,-7069525 -161407,-7069432 -161393,-7069384 -161365,-7069309 -161345,-7069255 -161310,-7069188 -161276,-7069116 -161243,-7069045 -161223,-7069005 -161209,-7068974 -161182,-7068937 -161161,-7068907 -161154,-7068897 -161107,-7068820 -161073,-7068753 -161046,-7068682 -161000,-7068535 -160972,-7068462 -160929,-7068373 -160884,-7068288 -160902,-7068250 -160873,-7068148 -160876,-7068147 -160848,-7068003 -160822,-7067921 -160805,-7067895 -160785,-7067878 -160764,-7067867 -160727,-7067792 -160713,-7067729 -160735,-7067661 -160754,-7067595 -160774,-7067518 -160775,-7067480 -160769,-7067442 -160768,-7067220 -160772,-7067009 -160766,-7066920 -160772,-7066875 -160772,-7066823 -160768,-7066771 -160757,-7066668 -160741,-7066588 -160718,-7066480 -160698,-7066413 -160676,-7066327 -160641,-7066211 -160626,-7066164 -160609,-7066123 -160592,-7066087 -160584,-7066083 -160572,-7066052 -160569,-7066028 -160535,-7065965 -160506,-7065911 -160479,-7065843 -160470,-7065819 -160424,-7065737 -160384,-7065669 -160364,-7065629 -160335,-7065574 -160292,-7065502 -160233,-7065406 -160190,-7065346 -160171,-7065323 -160147,-7065302 -160136,-7065291 -160021,-7065091 -159974,-7065004 -159942,-7064947 -159915,-7064903 -159893,-7064871 -159814,-7064777 -159727,-7064676 -159660,-7064610 -159661,-7064604 -159600,-7064533 -159558,-7064483 -159555,-7064480 -159479,-7064376 -159454,-7064345 -159413,-7064304 -159396,-7064288 -159265,-7064192 -159198,-7064131 -159074,-7064021 -158961,-7063930 -158917,-7063893 -158872,-7063853 -158828,-7063811 -158796,-7063766 -158704,-7063669 -158703,-7063668 -158639,-7063605 -158483,-7063462 -158450,-7063424 -158428,-7063404 -158297,-7063298 -158210,-7063224 -158175,-7063186 -158147,-7063163 -158102,-7063132 -158061,-7063098 -157986,-7063034 -157919,-7062973 -157878,-7062933 -157860,-7062908 -157852,-7062891 -157847,-7062866 -157842,-7062853 -157815,-7062827 -157815,-7062809 -157825,-7062790 -157810,-7062766 -157781,-7062766 -157742,-7062685 -157672,-7062547 -157607,-7062508 -157602,-7062417 -157585,-7062395 -157549,-7062338 -157531,-7062323 -157489,-7062303 -157470,-7062286 -157452,-7062261 -157396,-7062161 -157384,-7062146 -157304,-7062068 -157266,-7062020 -157213,-7061938 -157178,-7061829 -157140,-7061762 -157120,-7061691 -157087,-7061656 -156969,-7061584 -156954,-7061582 -156954,-7061562 -156949,-7061542 -156931,-7061516 -156916,-7061505 -156920,-7061490 -156907,-7061424 -156912,-7061416 -156925,-7061394 -156929,-7061376 -156929,-7061346 -156851,-7061227 -156796,-7061137 -156793,-7061132 -156696,-7061238 -156558,-7061367 -156466,-7061448 -156400,-7061499 -156281,-7061585 -156162,-7061664 -156063,-7061720 -155941,-7061784 -155830,-7061837 -155735,-7061878 -155742,-7061896 -155660,-7061931 -155545,-7061967 -155498,-7061880 -155469,-7061897 -155440,-7061882 -155439,-7061862 -155433,-7061842 -155435,-7061838 -155426,-7061788 -155401,-7061794 -155387,-7061802 -155373,-7061810 -155357,-7061823 -155352,-7061825 -155348,-7061826 -155316,-7061826 -155275,-7061831 -155250,-7061838 -155226,-7061851 -155202,-7061863 -155178,-7061863 -155134,-7061862 -155074,-7061854 -155036,-7061849 -155035,-7061877 -154991,-7061879 -154944,-7061886 -154863,-7061906 -154767,-7061932 -154618,-7061974 -154455,-7062019 -154433,-7062024 -154364,-7062035 -154260,-7062044 -154136,-7062053 -153946,-7062067 -153884,-7062074 -153885,-7062041 -153849,-7062039 -153812,-7062040 -153813,-7062069 -153814,-7062084 -153812,-7062084 -153805,-7062084 -153805,-7062070 -153803,-7062045 -153802,-7061986 -153720,-7061872 -153669,-7061846 -153669,-7061819 -153657,-7061804 -153629,-7061743 -153630,-7061670 -153640,-7061659 -153622,-7061612 -153583,-7061516 -153799,-7061417 -153783,-7061382 -153880,-7061353 -153880,-7061261 -153960,-7061233 -153990,-7061224 -154038,-7061217 -154038,-7061184 -154112,-7061168 -154147,-7061169 -154274,-7061169 -154275,-7061162 -154309,-7061162 -154344,-7061163 -154367,-7061160 -154424,-7061164 -154488,-7061156 -154552,-7061149 -154679,-7061135 -154846,-7061119 -154912,-7061108 -155072,-7061082 -155127,-7061068 -155104,-7060985 -155071,-7060873 -155041,-7060780 -155036,-7060772 -155030,-7060764 -154982,-7060773 -154951,-7060779 -154850,-7060794 -154795,-7060801 -154730,-7060807 -154665,-7060808 -154661,-7060777 -154643,-7060656 -154721,-7060481 -154755,-7060433 -154790,-7060393 -154857,-7060287 -154920,-7060187 -154920,-7060154 -154915,-7060125 -154874,-7060001 -154820,-7059858 -154818,-7059842 -154808,-7059789 -154806,-7059782 -154797,-7059769 -154796,-7059747 -154785,-7059717 -154776,-7059702 -154771,-7059686 -154753,-7059654 -154729,-7059623 -154707,-7059606 -154692,-7059595 -154656,-7059577 -154642,-7059572 -154599,-7059550 -154569,-7059515 -154559,-7059493 -154535,-7059467 -154517,-7059457 -154486,-7059430 -154454,-7059406 -154427,-7059391 -154411,-7059380 -154388,-7059355 -154375,-7059333 -154353,-7059294 -154331,-7059254 -154318,-7059219 -154317,-7059194 -154305,-7059175 -154298,-7059159 -154296,-7059137 -154284,-7059111 -154265,-7059052 -154257,-7058998 -154243,-7058956 -154236,-7058949 -154214,-7058896 -154199,-7058872 -154187,-7058854 -154184,-7058842 -154168,-7058774 -154140,-7058705 -154136,-7058692 -154127,-7058682 -154100,-7058656 -154087,-7058634 -154079,-7058614 -154026,-7058503 -153997,-7058447 -153968,-7058391 -153949,-7058356 -153937,-7058342 -153904,-7058310 -153861,-7058292 -153851,-7058284 -153841,-7058200 -153817,-7058064 -153851,-7058042 -153959,-7057979 -153915,-7057882 -153895,-7057826 -153872,-7057751 -153862,-7057721 -153849,-7057670 -153813,-7057537 -153817,-7057527 -153817,-7057527 -153727,-7057467 -153502,-7057307 -153335,-7057188 -153333,-7057165 -153324,-7057132 -153319,-7057114 -153297,-7057077 -153285,-7057041 -153285,-7057017 -153299,-7056998 -153321,-7056972 -153318,-7056966 -153354,-7056925 -153490,-7056775 -153488,-7056772 -153507,-7056753 -153530,-7056737 -153405,-7056566 -153380,-7056550 -153313,-7056482 -153246,-7056403 -153231,-7056386 -153206,-7056351 -153166,-7056280 -153158,-7056253 -153153,-7056227 -153153,-7056151 -153158,-7056118 -153167,-7056076 -153175,-7056051 -153203,-7055993 -153220,-7055962 -153234,-7055947 -153246,-7055935 -153274,-7055910 -153308,-7055887 -153343,-7055864 -153383,-7055845 -153414,-7055837 -153453,-7055830 -153498,-7055820 -153518,-7055811 -153532,-7055799 -153553,-7055776 -153587,-7055723 -153603,-7055703 -153595,-7055689 -153594,-7055672 -153601,-7055653 -153602,-7055644 -153635,-7055629 -153644,-7055630 -153661,-7055636 -153673,-7055646 -153683,-7055660 -153683,-7055637 -153691,-7055621 -153712,-7055598 -153758,-7055555 -153824,-7055501 -153879,-7055461 -153947,-7055414 -154113,-7055298 -154177,-7055256 -154191,-7055257 -154238,-7055232 -154238,-7055234 -154304,-7055190 -154319,-7055188 -154340,-7055167 -154407,-7055117 -154469,-7055057 -154517,-7055008 -154550,-7054975 -154577,-7054944 -154606,-7054905 -154643,-7054851 -154678,-7054803 -154728,-7054731 -154728,-7054717 -154744,-7054687 -154744,-7054651 -154774,-7054596 -154803,-7054527 -154811,-7054503 -154826,-7054446 -154864,-7054323 -154864,-7054296 -154877,-7054258 -154889,-7054219 -154865,-7054218 -154838,-7054218 -154817,-7054201 -154797,-7054200 -154759,-7054218 -154635,-7054215 -154628,-7054201 -154630,-7054165 -154526,-7054158 -154342,-7054157 -154276,-7054150 -154249,-7054143 -154145,-7054106 -154119,-7054095 -154027,-7054050 -153910,-7053989 -153830,-7053942 -153736,-7053884 -153637,-7053827 -153605,-7053800 -153509,-7053712 -153447,-7053653 -153363,-7053559 -153290,-7053473 -153288,-7053466 -153274,-7053426 -153260,-7053411 -153243,-7053394 -153236,-7053387 -153227,-7053383 -153161,-7053317 -153114,-7053270 -153089,-7053248 -153068,-7053230 -153017,-7053192 -152967,-7053160 -152953,-7053149 -152940,-7053134 -152901,-7053078 -152844,-7053007 -152791,-7052947 -152669,-7052817 -152614,-7052751 -152615,-7052742 -152597,-7052721 -152563,-7052691 -152512,-7052645 -152433,-7052542 -152335,-7052439 -152323,-7052440 -152245,-7052355 -152174,-7052282 -152110,-7052212 -152074,-7052166 -152008,-7052065 -151984,-7051993 -151930,-7051903 -151870,-7051834 -151859,-7051829 -151835,-7051787 -151832,-7051789 -151811,-7051763 -151790,-7051717 -151752,-7051615 -151705,-7051509 -151670,-7051439 -151625,-7051344 -151572,-7051220 -151514,-7051097 -151425,-7051083 -151431,-7051094 -151297,-7051081 -151127,-7051081 -150982,-7051080 -150982,-7051067 -150856,-7051068 -150856,-7051056 -150671,-7051053 -150637,-7051057 -150588,-7051063 -150572,-7051065 -150516,-7051078 -150499,-7051082 -150477,-7051034 -150452,-7050982 -150438,-7050961 -150386,-7050902 -150256,-7050742 -150175,-7050650 -150116,-7050580 -149975,-7050425 -149893,-7050344 -149870,-7050323 -149840,-7050281 -149827,-7050260 -149799,-7050199 -149773,-7050134 -149742,-7050092 -149670,-7050048 -149642,-7050027 -149598,-7049997 -149570,-7049974 -149549,-7049955 -149534,-7049940 -149520,-7049923 -149493,-7049891 -149459,-7049844 -149444,-7049829 -149406,-7049789 -149226,-7049611 -149206,-7049587 -149199,-7049565 -149196,-7049540 -149203,-7049514 -149203,-7049495 -149202,-7049483 -149195,-7049453 -149163,-7049400 -149156,-7049385 -149142,-7049352 -149131,-7049319 -149116,-7049263 -149088,-7049164 -149083,-7049141 -149057,-7049083 -149023,-7049001 -149009,-7048965 -148998,-7048941 -148974,-7048898 -148961,-7048881 -148954,-7048869 -148950,-7048859 -148946,-7048850 -148943,-7048829 -148942,-7048789 -148937,-7048721 -148931,-7048693 -148928,-7048681 -148922,-7048669 -148917,-7048659 -148916,-7048656 -148910,-7048648 -148904,-7048642 -148891,-7048632 -148867,-7048609 -148847,-7048590 -148737,-7048444 -148692,-7048385 -148674,-7048368 -148655,-7048359 -148630,-7048354 -148560,-7048367 -148501,-7048382 -148453,-7048395 -148398,-7048430 -148376,-7048443 -148350,-7048448 -148286,-7048453 -148274,-7048442 -148263,-7048402 -148255,-7048374 -148232,-7048335 -148196,-7048290 -148172,-7048268 -148141,-7048236 -148124,-7048208 -148120,-7048191 -148122,-7048172 -148137,-7048149 -148157,-7048103 -148172,-7048061 -148174,-7048022 -148177,-7047991 -148194,-7047911 -148191,-7047890 -148184,-7047867 -148177,-7047855 -148170,-7047845 -148162,-7047836 -148129,-7047807 -148103,-7047788 -148064,-7047780 -148004,-7047782 -147903,-7047797 -147895,-7047736 -147872,-7047631 -147827,-7047424 -147785,-7047217 -147744,-7047023 -147689,-7046751 -147664,-7046648 -147632,-7046519 -147608,-7046376 -147589,-7046156 -147580,-7046054 -147572,-7045935 -147563,-7045812 -147553,-7045692 -147545,-7045579 -147561,-7045570 -147565,-7045568 -147566,-7045555 -147553,-7045436 -147555,-7045405 -147558,-7045382 -147557,-7045331 -147523,-7045150 -147488,-7044998 -147478,-7044932 -147470,-7044789 -147487,-7044787 -147486,-7044737 -147472,-7044739 -147468,-7044616 -147462,-7044324 -147474,-7044315 -147492,-7044305 -147492,-7044296 -147461,-7044295 -147452,-7044140 -147457,-7044106 -147461,-7044051 -147467,-7044052 -147523,-7044052 -147569,-7044052 -147586,-7044055 -147620,-7044061 -147661,-7044062 -147704,-7044070 -147721,-7044071 -147731,-7044074 -147741,-7044078 -147752,-7044085 -147768,-7044098 -147790,-7044110 -147794,-7044111 -147802,-7044111 -147812,-7044110 -147822,-7044108 -147831,-7044104 -147844,-7044097 -147857,-7044089 -147865,-7044082 -147883,-7044046 -147896,-7043942 -147898,-7043919 -147899,-7043912 -147901,-7043906 -147912,-7043866 -147917,-7043844 -147915,-7043837 -147908,-7043826 -147904,-7043823 -147893,-7043816 -147857,-7043790 -147849,-7043782 -147846,-7043776 -147840,-7043763 -147835,-7043749 -147836,-7043735 -147840,-7043716 -147850,-7043678 -147884,-7043617 -147925,-7043551 -147992,-7043444 -148004,-7043428 -148022,-7043414 -148058,-7043392 -148079,-7043376 -148141,-7043305 -148177,-7043267 -148226,-7043209 -148270,-7043145 -148324,-7043062 -148352,-7042999 -148362,-7042979 -148367,-7042956 -148359,-7042935 -148347,-7042922 -148337,-7042910 -148311,-7042886 -148307,-7042880 -148301,-7042869 -148298,-7042859 -148297,-7042850 -148297,-7042840 -148298,-7042829 -148302,-7042812 -148307,-7042802 -148312,-7042793 -148327,-7042771 -148332,-7042765 -148342,-7042754 -148357,-7042744 -148371,-7042735 -148394,-7042724 -148443,-7042709 -148461,-7042701 -148482,-7042690 -148517,-7042662 -148528,-7042651 -148558,-7042607 -148562,-7042599 -148567,-7042581 -148570,-7042570 -148567,-7042534 -148561,-7042523 -148559,-7042514 -148557,-7042504 -148558,-7042497 -148558,-7042472 -148568,-7042452 -148581,-7042433 -148602,-7042411 -148640,-7042364 -148682,-7042296 -148705,-7042247 -148717,-7042221 -148767,-7042089 -148775,-7042069 -148781,-7042051 -148787,-7042030 -148793,-7041998 -148802,-7041936 -148802,-7041928 -148801,-7041903 -148785,-7041853 -148775,-7041822 -148778,-7041798 -148781,-7041785 -148783,-7041777 -148788,-7041769 -148796,-7041759 -148823,-7041728 -148852,-7041691 -148861,-7041681 -148876,-7041665 -148888,-7041654 -148899,-7041645 -148908,-7041640 -148917,-7041636 -148933,-7041633 -148987,-7041635 -149005,-7041634 -149075,-7041618 -149113,-7041604 -149136,-7041597 -149170,-7041586 -149197,-7041577 -149204,-7041583 -149207,-7041585 -149272,-7041632 -149288,-7041642 -149302,-7041646 -149310,-7041648 -149323,-7041656 -149349,-7041679 -149267,-7041848 -149426,-7041958 -149507,-7042019 -149540,-7042030 -149850,-7042107 -149981,-7042139 -149973,-7042199 -149980,-7042199 -150104,-7042202 -150176,-7042207 -150466,-7042228 -150585,-7042239 -150621,-7042243 -150667,-7042243 -150698,-7042241 -150727,-7042237 -150747,-7042233 -150782,-7042234 -150804,-7042229 -150838,-7042218 -150873,-7042204 -150915,-7042187 -150943,-7042177 -150969,-7042175 -151109,-7042156 -151165,-7042149 -151402,-7042122 -151473,-7042113 -151563,-7042102 -151572,-7042121 -151574,-7042135 -151592,-7042127 -151606,-7042118 -151645,-7042059 -151689,-7042010 -151714,-7041980 -151722,-7041956 -151722,-7041918 -151711,-7041872 -151705,-7041858 -151656,-7041788 -151656,-7041730 -151651,-7041709 -151642,-7041689 -151608,-7041622 -151648,-7041592 -151661,-7041569 -151675,-7041543 -151681,-7041526 -151687,-7041504 -151686,-7041484 -151689,-7041485 -151720,-7041492 -151765,-7041502 -151791,-7041504 -151811,-7041512 -151822,-7041520 -151830,-7041527 -151838,-7041528 -151838,-7041528 -151849,-7041519 -151858,-7041516 -151863,-7041522 -151870,-7041548 -151878,-7041562 -151888,-7041576 -151915,-7041603 -151923,-7041606 -151987,-7041636 -152001,-7041641 -152035,-7041645 -152060,-7041648 -152132,-7041649 -152250,-7041652 -152349,-7041659 -152398,-7041664 -152446,-7041667 -152502,-7041670 -152562,-7041670 -152566,-7041672 -152580,-7041681 -152584,-7041684 -152629,-7041680 -152653,-7041676 -152673,-7041676 -152690,-7041679 -152704,-7041691 -152714,-7041700 -152714,-7041712 -152719,-7041721 -152764,-7041738 -152772,-7041735 -152774,-7041731 -152776,-7041727 -152784,-7041727 -152788,-7041727 -152800,-7041741 -152796,-7041770 -152801,-7041776 -152818,-7041783 -152871,-7041802 -152888,-7041820 -152901,-7041833 -152914,-7041841 -152952,-7041873 -152959,-7041888 -152967,-7041897 -152981,-7041899 -153000,-7041895 -153041,-7041886 -153055,-7041883 -153057,-7041883 -153110,-7041900 -153164,-7041909 -153183,-7041911 -153186,-7041909 -153196,-7041901 -153206,-7041894 -153216,-7041890 -153246,-7041893 -153275,-7041899 -153279,-7041904 -153279,-7041920 -153284,-7041926 -153291,-7041929 -153298,-7041929 -153305,-7041924 -153305,-7041923 -153315,-7041914 -153328,-7041907 -153342,-7041904 -153352,-7041899 -153414,-7041867 -153419,-7041867 -153454,-7041864 -153482,-7041859 -153496,-7041857 -153503,-7041881 -153513,-7041884 -153545,-7041891 -153558,-7041893 -153560,-7041893 -153577,-7041894 -153595,-7041891 -153614,-7041883 -153639,-7041869 -153670,-7041855 -153689,-7041849 -153719,-7041854 -153732,-7041860 -153757,-7041874 -153768,-7041880 -153780,-7041887 -153794,-7041895 -153821,-7041917 -153832,-7041922 -153851,-7041930 -153868,-7041937 -153937,-7041950 -153950,-7041957 -153975,-7041980 -153988,-7041991 -154005,-7041994 -154028,-7042004 -154041,-7042007 -154051,-7042001 -154081,-7041977 -154105,-7041959 -154107,-7041959 -154116,-7041960 -154146,-7041969 -154157,-7041978 -154170,-7041989 -154186,-7041996 -154204,-7042001 -154227,-7041999 -154260,-7041995 -154299,-7041986 -154322,-7041990 -154335,-7041993 -154343,-7041992 -154351,-7041988 -154354,-7041987 -154360,-7041974 -154367,-7041970 -154371,-7041968 -154381,-7041972 -154383,-7041987 -154393,-7042007 -154394,-7042019 -154390,-7042029 -154384,-7042045 -154390,-7042049 -154400,-7042050 -154405,-7042047 -154409,-7042044 -154414,-7042041 -154418,-7042020 -154422,-7042017 -154428,-7042016 -154433,-7042015 -154434,-7042024 -154429,-7042039 -154432,-7042047 -154442,-7042053 -154459,-7042058 -154474,-7042061 -154484,-7042070 -154487,-7042081 -154487,-7042107 -154496,-7042112 -154506,-7042111 -154512,-7042104 -154515,-7042101 -154520,-7042095 -154525,-7042097 -154536,-7042101 -154547,-7042108 -154560,-7042111 -154575,-7042116 -154588,-7042122 -154597,-7042133 -154603,-7042149 -154611,-7042162 -154625,-7042163 -154651,-7042173 -154670,-7042170 -154676,-7042157 -154679,-7042149 -154694,-7042136 -154701,-7042130 -154708,-7042128 -154715,-7042127 -154726,-7042132 -154729,-7042149 -154736,-7042165 -154747,-7042175 -154753,-7042181 -154750,-7042220 -154750,-7042229 -154752,-7042242 -154737,-7042252 -154746,-7042269 -154759,-7042279 -154761,-7042286 -154756,-7042309 -154763,-7042317 -154760,-7042336 -154782,-7042344 -154794,-7042346 -154797,-7042354 -154796,-7042374 -154801,-7042382 -154804,-7042387 -154795,-7042387 -154792,-7042388 -154781,-7042393 -154781,-7042406 -154795,-7042410 -154794,-7042440 -154808,-7042451 -154817,-7042480 -154824,-7042487 -154831,-7042508 -154839,-7042520 -154837,-7042542 -154831,-7042560 -154862,-7042594 -154863,-7042610 -154867,-7042617 -154862,-7042634 -154856,-7042642 -154872,-7042695 -154890,-7042700 -154898,-7042724 -154919,-7042724 -154930,-7042728 -154933,-7042736 -154926,-7042768 -154942,-7042860 -154950,-7042868 -154948,-7042896 -154957,-7042903 -154955,-7042917 -154949,-7042935 -154940,-7043007 -154934,-7043079 -154928,-7043122 -154861,-7043303 -154836,-7043371 -154802,-7043445 -154797,-7043453 -154788,-7043462 -154793,-7043476 -154788,-7043531 -154781,-7043542 -154779,-7043582 -154792,-7043593 -154797,-7043621 -154795,-7043640 -154807,-7043674 -154816,-7043724 -154817,-7043740 -154837,-7043782 -154826,-7043820 -154826,-7043838 -154837,-7043857 -154836,-7043876 -154851,-7043893 -154860,-7043936 -154866,-7043951 -154868,-7043955 -154862,-7043960 -154856,-7043966 -154861,-7043982 -154865,-7043993 -154863,-7043998 -154857,-7044010 -154851,-7044017 -154842,-7044052 -154831,-7044074 -154821,-7044119 -154832,-7044144 -154832,-7044145 -154824,-7044155 -154820,-7044166 -154824,-7044176 -154819,-7044188 -154820,-7044205 -154817,-7044216 -154803,-7044250 -154811,-7044302 -154802,-7044330 -154810,-7044350 -154793,-7044375 -154791,-7044387 -154790,-7044388 -154790,-7044391 -154783,-7044429 -154778,-7044444 -154774,-7044454 -154771,-7044464 -154773,-7044473 -154774,-7044482 -154777,-7044501 -154814,-7044579 -154664,-7044775 -154598,-7044858 -154592,-7044866 -154613,-7044882 -154587,-7044927 -154574,-7044956 -154567,-7044972 -154543,-7045024 -154518,-7045076 -154506,-7045105 -154502,-7045116 -154462,-7045075 -154425,-7045037 -154344,-7045128 -154353,-7045171 -154352,-7045184 -154352,-7045187 -154436,-7045252 -154475,-7045287 -154497,-7045311 -154521,-7045341 -154574,-7045399 -154613,-7045435 -154617,-7045441 -154618,-7045443 -154616,-7045448 -154600,-7045466 -154598,-7045469 -154596,-7045471 -154603,-7045475 -154607,-7045469 -154610,-7045464 -154615,-7045459 -154631,-7045453 -154638,-7045445 -154640,-7045437 -154653,-7045410 -154665,-7045400 -154673,-7045394 -154687,-7045390 -154709,-7045383 -154729,-7045379 -154762,-7045378 -154783,-7045389 -154811,-7045388 -154830,-7045394 -154841,-7045405 -154853,-7045409 -154863,-7045406 -154871,-7045406 -154874,-7045413 -154883,-7045418 -154911,-7045423 -154930,-7045425 -154945,-7045433 -154956,-7045442 -154993,-7045453 -155006,-7045462 -155024,-7045466 -155034,-7045481 -155057,-7045481 -155100,-7045492 -155116,-7045503 -155132,-7045503 -155159,-7045522 -155184,-7045532 -155200,-7045529 -155227,-7045555 -155253,-7045561 -155254,-7045561 -155254,-7045568 -155272,-7045574 -155291,-7045589 -155318,-7045591 -155349,-7045594 -155371,-7045600 -155426,-7045613 -155481,-7045630 -155511,-7045635 -155528,-7045640 -155545,-7045646 -155578,-7045661 -155594,-7045670 -155657,-7045677 -155668,-7045681 -155692,-7045700 -155735,-7045709 -155748,-7045713 -155759,-7045721 -155771,-7045732 -155801,-7045764 -155813,-7045778 -155830,-7045787 -155850,-7045795 -155929,-7045818 -155930,-7045819 -155976,-7045836 -156012,-7045846 -156080,-7045867 -156149,-7045891 -156168,-7045895 -156209,-7045884 -156222,-7045882 -156252,-7045897 -156262,-7045908 -156280,-7045918 -156309,-7045935 -156344,-7045947 -156391,-7045961 -156443,-7045978 -156518,-7046011 -156549,-7046022 -156559,-7046025 -156579,-7046044 -156585,-7046055 -156606,-7046072 -156640,-7046099 -156662,-7046121 -156689,-7046155 -156655,-7046221 -156638,-7046247 -156602,-7046296 -156686,-7046389 -156770,-7046478 -156798,-7046499 -156820,-7046504 -156982,-7046507 -157075,-7046509 -157083,-7046497 -157101,-7046453 -157113,-7046428 -157129,-7046411 -157217,-7046350 -157225,-7046342 -157222,-7046339 -157203,-7046326 -157195,-7046318 -157225,-7046235 -157237,-7046199 -157257,-7046117 -157297,-7046066 -157290,-7046044 -157290,-7046024 -157272,-7046006 -157258,-7045977 -157255,-7045929 -157248,-7045916 -157315,-7045839 -157389,-7045752 -157462,-7045827 -157523,-7045740 -157594,-7045630 -157621,-7045601 -157641,-7045581 -157662,-7045562 -157686,-7045542 -157698,-7045532 -157765,-7045476 -157783,-7045459 -157802,-7045442 -157830,-7045409 -157881,-7045369 -157903,-7045345 -157926,-7045322 -157963,-7045295 -157975,-7045279 -157991,-7045267 -158014,-7045250 -158106,-7045174 -158152,-7045138 -158170,-7045125 -158202,-7045176 -158202,-7045186 -158202,-7045188 -158199,-7045190 -158189,-7045200 -158205,-7045214 -158206,-7045209 -158207,-7045202 -158212,-7045202 -158233,-7045201 -158251,-7045193 -158264,-7045204 -158274,-7045212 -158281,-7045201 -158302,-7045207 -158305,-7045208 -158326,-7045210 -158328,-7045223 -158328,-7045224 -158340,-7045227 -158354,-7045229 -158362,-7045230 -158364,-7045233 -158364,-7045237 -158354,-7045242 -158342,-7045244 -158338,-7045256 -158341,-7045263 -158354,-7045264 -158358,-7045264 -158360,-7045267 -158366,-7045276 -158368,-7045268 -158376,-7045266 -158394,-7045261 -158399,-7045259 -158400,-7045262 -158406,-7045277 -158412,-7045276 -158418,-7045274 -158429,-7045286 -158423,-7045300 -158418,-7045311 -158432,-7045312 -158437,-7045312 -158437,-7045317 -158437,-7045323 -158426,-7045333 -158435,-7045341 -158449,-7045337 -158460,-7045334 -158461,-7045338 -158464,-7045351 -158462,-7045381 -158480,-7045383 -158517,-7045378 -158522,-7045377 -158527,-7045382 -158538,-7045392 -158548,-7045388 -158554,-7045385 -158560,-7045390 -158566,-7045395 -158589,-7045397 -158615,-7045410 -158638,-7045403 -158640,-7045403 -158651,-7045410 -158658,-7045413 -158707,-7045426 -158712,-7045433 -158723,-7045434 -158745,-7045426 -158754,-7045416 -158755,-7045416 -158776,-7045428 -158822,-7045429 -158827,-7045429 -158841,-7045423 -158867,-7045434 -158869,-7045435 -158879,-7045435 -158888,-7045439 -158898,-7045435 -158906,-7045438 -158914,-7045431 -158916,-7045428 -158919,-7045425 -158925,-7045427 -158934,-7045424 -158941,-7045420 -158952,-7045430 -158954,-7045430 -158991,-7045453 -159039,-7045461 -159074,-7045471 -159088,-7045483 -159099,-7045484 -159113,-7045488 -159124,-7045500 -159154,-7045514 -159177,-7045516 -159198,-7045526 -159216,-7045534 -159234,-7045546 -159293,-7045576 -159305,-7045578 -159314,-7045588 -159362,-7045612 -159390,-7045621 -159467,-7045627 -159492,-7045644 -159499,-7045649 -159503,-7045649 -159519,-7045652 -159536,-7045676 -159538,-7045677 -159568,-7045676 -159570,-7045690 -159570,-7045694 -159581,-7045702 -159585,-7045705 -159588,-7045707 -159594,-7045695 -159602,-7045673 -159622,-7045658 -159722,-7045654 -159848,-7045654 -159862,-7045661 -159936,-7045662 -159959,-7045652 -159970,-7045636 -160035,-7045601 -160058,-7045589 -160098,-7045587 -160107,-7045587 -160136,-7045566 -160141,-7045562 -160164,-7045556 -160167,-7045558 -160172,-7045562 -160191,-7045568 -160220,-7045537 -160224,-7045532 -160231,-7045528 -160258,-7045511 -160312,-7045494 -160357,-7045475 -160397,-7045461 -160427,-7045459 -160441,-7045467 -160452,-7045492 -160462,-7045517 -160519,-7045670 -160537,-7045650 -160548,-7045638 -160595,-7045644 -160637,-7045627 -160655,-7045604 -160689,-7045563 -160734,-7045501 -160773,-7045429 -160802,-7045411 -160856,-7045355 -160885,-7045322 -160944,-7045246 -160966,-7045219 -161019,-7045110 -161030,-7045104 -161031,-7045103 -161035,-7045092 -161068,-7045069 -161082,-7045044 -161124,-7045006 -161193,-7044914 -161195,-7044912 -161237,-7044854 -161281,-7044797 -161327,-7044741 -161340,-7044726 -161358,-7044703 -161376,-7044681 -161395,-7044660 -161421,-7044635 -161471,-7044592 -161502,-7044566 -161530,-7044545 -161557,-7044526 -161590,-7044508 -161628,-7044489 -161649,-7044478 -161680,-7044463 -161718,-7044447 -161743,-7044437 -161781,-7044426 -161812,-7044416 -161851,-7044407 -161896,-7044401 -161936,-7044396 -162044,-7044390 -162086,-7044390 -162296,-7044398 -162513,-7044402 -162498,-7044391 -162399,-7044322 -162362,-7044318 -162162,-7044181 -162152,-7044160 -162250,-7044023 -162256,-7044024 -162334,-7044036 -162413,-7044111 -162519,-7044218 -162655,-7044043 -162671,-7044017 -162714,-7043985 -162715,-7043984 -162713,-7043962 -162711,-7043939 -162702,-7043921 -162692,-7043895 -162662,-7043868 -162650,-7043859 -162632,-7043848 -162626,-7043841 -162620,-7043831 -162615,-7043820 -162607,-7043804 -162553,-7043760 -162507,-7043731 -162449,-7043700 -162436,-7043688 -162383,-7043652 -162307,-7043605 -162230,-7043593 -162147,-7043584 -162142,-7043556 -162129,-7043530 -162123,-7043513 -162116,-7043485 -162114,-7043457 -162120,-7043431 -162122,-7043362 -162114,-7043363 -162053,-7043365 -162038,-7043356 -162018,-7043347 -162004,-7043343 -161993,-7043339 -161984,-7043335 -161974,-7043322 -161941,-7043279 -161931,-7043258 -161926,-7043247 -161921,-7043237 -161910,-7043219 -161896,-7043210 -161892,-7043207 -161893,-7043207 -161988,-7043121 -162061,-7043057 -162061,-7043049 -162059,-7043011 -162046,-7042945 -162035,-7042895 -162019,-7042832 -161998,-7042769 -161995,-7042761 -161995,-7042760 -161994,-7042758 -161995,-7042758 -162061,-7042755 -162098,-7042753 -162129,-7042759 -162183,-7042744 -162206,-7042741 -162223,-7042739 -162223,-7042737 -162221,-7042681 -162219,-7042590 -162220,-7042545 -162221,-7042543 -162229,-7042536 -162251,-7042519 -162270,-7042504 -162290,-7042488 -162326,-7042460 -162358,-7042440 -162404,-7042415 -162496,-7042360 -162497,-7042361 -162523,-7042425 -162573,-7042423 -162578,-7042423 -162581,-7042425 -162637,-7042445 -162712,-7042449 -162789,-7042417 -162843,-7042390 -162863,-7042381 -162885,-7042370 -162906,-7042350 -162921,-7042342 -162934,-7042331 -162942,-7042324 -162952,-7042308 -162964,-7042311 -162964,-7042311 -162978,-7042301 -162985,-7042297 -163049,-7042236 -163071,-7042215 -163084,-7042208 -163102,-7042198 -163110,-7042194 -163128,-7042195 -163135,-7042194 -163150,-7042190 -163159,-7042185 -163170,-7042178 -163184,-7042163 -163218,-7042131 -163237,-7042111 -163292,-7042052 -163304,-7042052 -163310,-7042042 -163312,-7042038 -163320,-7042038 -163328,-7042039 -163330,-7042036 -163342,-7042004 -163355,-7041999 -163359,-7041997 -163359,-7041982 -163359,-7041969 -163365,-7041957 -163374,-7041955 -163381,-7041953 -163384,-7041944 -163385,-7041941 -163393,-7041937 -163396,-7041935 -163396,-7041934 -163397,-7041922 -163406,-7041918 -163406,-7041914 -163395,-7041889 -163402,-7041880 -163407,-7041873 -163421,-7041874 -163452,-7041877 -163460,-7041867 -163461,-7041866 -163478,-7041863 -163484,-7041865 -163511,-7041873 -163541,-7041876 -163569,-7041888 -163597,-7041885 -163624,-7041918 -163641,-7041918 -163648,-7041925 -163668,-7041926 -163743,-7041965 -163774,-7041965 -163791,-7041975 -163814,-7041992 -163828,-7042000 -163842,-7042015 -163846,-7042017 -163857,-7042014 -163873,-7042018 -163880,-7042028 -163884,-7042048 -163912,-7042048 -163966,-7042082 -163976,-7042077 -163985,-7042079 -164013,-7042101 -164018,-7042094 -164026,-7042103 -164036,-7042117 -164050,-7042121 -164057,-7042127 -164081,-7042104 -164090,-7042114 -164127,-7042128 -164191,-7042152 -164204,-7042166 -164214,-7042166 -164229,-7042175 -164268,-7042200 -164287,-7042200 -164299,-7042203 -164298,-7042215 -164312,-7042215 -164322,-7042220 -164329,-7042224 -164334,-7042230 -164345,-7042241 -164348,-7042241 -164368,-7042241 -164367,-7042250 -164372,-7042256 -164373,-7042256 -164375,-7042256 -164385,-7042251 -164401,-7042271 -164409,-7042276 -164420,-7042272 -164424,-7042271 -164435,-7042267 -164450,-7042278 -164460,-7042281 -164462,-7042281 -164465,-7042286 -164478,-7042282 -164493,-7042275 -164505,-7042273 -164515,-7042274 -164527,-7042284 -164550,-7042287 -164563,-7042291 -164577,-7042293 -164591,-7042292 -164619,-7042287 -164640,-7042284 -164662,-7042282 -164693,-7042284 -164708,-7042285 -164711,-7042282 -164713,-7042275 -164715,-7042260 -164718,-7042248 -164718,-7042234 -164727,-7042214 -164709,-7042207 -164709,-7042199 -164705,-7042181 -164713,-7042173 -164718,-7042171 -164727,-7042171 -164765,-7042175 -164771,-7042168 -164774,-7042164 -164792,-7042165 -164808,-7042167 -164823,-7042172 -164838,-7042177 -164857,-7042185 -164880,-7042183 -164899,-7042192 -164913,-7042196 -164928,-7042198 -164942,-7042200 -164960,-7042198 -164976,-7042191 -164991,-7042185 -165005,-7042181 -165014,-7042187 -165019,-7042195 -165023,-7042199 -165027,-7042201 -165031,-7042202 -165034,-7042201 -165037,-7042199 -165045,-7042189 -165048,-7042186 -165052,-7042184 -165066,-7042182 -165078,-7042190 -165090,-7042174 -165099,-7042174 -165113,-7042173 -165119,-7042171 -165123,-7042170 -165129,-7042172 -165136,-7042175 -165155,-7042179 -165159,-7042179 -165167,-7042181 -165171,-7042176 -165165,-7042158 -165169,-7042157 -165178,-7042154 -165183,-7042154 -165201,-7042153 -165212,-7042153 -165231,-7042150 -165239,-7042142 -165255,-7042139 -165268,-7042133 -165284,-7042137 -165287,-7042149 -165279,-7042171 -165277,-7042176 -165299,-7042164 -165319,-7042162 -165322,-7042156 -165325,-7042149 -165337,-7042134 -165351,-7042130 -165374,-7042123 -165379,-7042122 -165378,-7042119 -165377,-7042113 -165381,-7042112 -165433,-7042104 -165454,-7042100 -165483,-7042094 -165546,-7042077 -165559,-7042070 -165575,-7042070 -165666,-7042042 -165682,-7042030 -165693,-7042024 -165705,-7042019 -165716,-7042017 -165731,-7042015 -165756,-7042016 -165770,-7042015 -165782,-7042013 -165795,-7042008 -165802,-7042005 -165812,-7041986 -165828,-7041976 -165844,-7041974 -165871,-7041959 -165892,-7041960 -165910,-7041958 -165925,-7041956 -165933,-7041951 -165958,-7041938 -165964,-7041935 -165973,-7041927 -165984,-7041921 -165991,-7041919 -165999,-7041919 -166009,-7041919 -166021,-7041923 -166068,-7041922 -166081,-7041920 -166099,-7041923 -166125,-7041925 -166130,-7041922 -166158,-7041894 -166164,-7041886 -166170,-7041877 -166174,-7041866 -166177,-7041856 -166181,-7041833 -166184,-7041824 -166189,-7041816 -166194,-7041810 -166198,-7041806 -166210,-7041800 -166257,-7041787 -166306,-7041776 -166326,-7041772 -166365,-7041766 -166453,-7041754 -166487,-7041742 -166526,-7041738 -166548,-7041736 -166570,-7041734 -166612,-7041730 -166634,-7041735 -166690,-7041719 -166719,-7041719 -166728,-7041714 -166796,-7041702 -166808,-7041701 -166832,-7041699 -166868,-7041686 -166891,-7041684 -166954,-7041668 -166971,-7041666 -167007,-7041662 -167034,-7041658 -167047,-7041652 -167058,-7041646 -167081,-7041712 -167091,-7041742 -167120,-7041802 -167134,-7041819 -167216,-7041959 -167267,-7041935 -167292,-7041924 -167310,-7041917 -167361,-7041898 -167391,-7041884 -167479,-7041866 -167562,-7041834 -167592,-7041825 -167600,-7041823 -167630,-7041818 -167640,-7041812 -167642,-7041812 -167655,-7041812 -167656,-7041809 -167660,-7041800 -167668,-7041804 -167672,-7041807 -167695,-7041797 -167701,-7041795 -167702,-7041797 -167704,-7041800 -167732,-7041798 -167742,-7041794 -167751,-7041791 -167768,-7041785 -167770,-7041773 -167804,-7041761 -167838,-7041757 -167861,-7041748 -167882,-7041745 -167934,-7041734 -167951,-7041732 -168009,-7041711 -168092,-7041690 -168122,-7041680 -168146,-7041673 -168166,-7041666 -168177,-7041661 -168186,-7041653 -168208,-7041639 -168224,-7041632 -168235,-7041627 -168246,-7041621 -168255,-7041612 -168290,-7041573 -168299,-7041563 -168328,-7041533 -168338,-7041523 -168368,-7041497 -168374,-7041492 -168377,-7041489 -168405,-7041464 -168434,-7041449 -168451,-7041436 -168456,-7041427 -168465,-7041408 -168471,-7041396 -168481,-7041382 -168511,-7041362 -168537,-7041335 -168552,-7041325 -168598,-7041296 -168654,-7041265 -168678,-7041252 -168694,-7041231 -168704,-7041219 -168722,-7041195 -168739,-7041188 -168748,-7041181 -168753,-7041154 -168754,-7041152 -168755,-7041149 -168765,-7041137 -168762,-7041128 -168762,-7041121 -168766,-7041087 -168777,-7041068 -168774,-7041031 -168789,-7041026 -168796,-7041024 -168828,-7041006 -168830,-7040997 -168843,-7040990 -168850,-7040989 -168856,-7040984 -168869,-7040981 -168909,-7040957 -168924,-7040952 -168940,-7040949 -168958,-7040950 -168996,-7040953 -169020,-7040960 -169049,-7040958 -169053,-7040967 -169076,-7040968 -169087,-7040969 -169107,-7040974 -169116,-7040984 -169130,-7041003 -169138,-7041013 -169148,-7041020 -169157,-7041005 -169166,-7041005 -169176,-7041008 -169183,-7041017 -169184,-7041022 -169185,-7041024 -169184,-7041024 -169176,-7041029 -169173,-7041039 -169186,-7041040 -169195,-7041036 -169243,-7041047 -169260,-7041054 -169268,-7041057 -169279,-7041052 -169310,-7041057 -169322,-7041070 -169330,-7041075 -169333,-7041077 -169338,-7041078 -169368,-7041071 -169377,-7041062 -169376,-7040951 -169385,-7040882 -169386,-7040878 -169387,-7040869 -169484,-7040914 -169650,-7040986 -169671,-7041004 -169760,-7040968 -169786,-7040963 -169799,-7040960 -169837,-7040945 -169850,-7040938 -169864,-7040919 -169883,-7040883 -169895,-7040860 -169908,-7040819 -169912,-7040773 -169914,-7040754 -169913,-7040739 -169911,-7040724 -169912,-7040706 -169906,-7040687 -169894,-7040666 -169894,-7040621 -169912,-7040606 -169930,-7040604 -169936,-7040596 -169937,-7040595 -169941,-7040595 -169953,-7040595 -169960,-7040591 -169962,-7040589 -169984,-7040589 -169991,-7040589 -170016,-7040605 -170021,-7040603 -170028,-7040600 -170033,-7040602 -170035,-7040603 -170043,-7040605 -170045,-7040613 -170043,-7040622 -170044,-7040630 -170046,-7040634 -170050,-7040638 -170055,-7040640 -170059,-7040641 -170064,-7040641 -170068,-7040639 -170072,-7040636 -170076,-7040631 -170083,-7040627 -170102,-7040609 -170107,-7040606 -170110,-7040605 -170118,-7040607 -170123,-7040616 -170131,-7040627 -170136,-7040620 -170142,-7040621 -170153,-7040642 -170159,-7040658 -170164,-7040671 -170163,-7040683 -170162,-7040698 -170171,-7040710 -170178,-7040712 -170183,-7040708 -170189,-7040702 -170183,-7040694 -170180,-7040690 -170183,-7040685 -170185,-7040682 -170188,-7040680 -170191,-7040679 -170196,-7040677 -170197,-7040680 -170201,-7040686 -170205,-7040696 -170214,-7040699 -170222,-7040701 -170221,-7040689 -170226,-7040686 -170231,-7040687 -170239,-7040691 -170240,-7040695 -170239,-7040713 -170245,-7040715 -170247,-7040716 -170253,-7040718 -170259,-7040719 -170259,-7040694 -170259,-7040691 -170265,-7040687 -170271,-7040685 -170278,-7040694 -170285,-7040701 -170290,-7040684 -170296,-7040659 -170296,-7040658 -170287,-7040649 -170292,-7040645 -170307,-7040634 -170313,-7040631 -170316,-7040630 -170322,-7040628 -170326,-7040629 -170330,-7040632 -170333,-7040636 -170335,-7040642 -170335,-7040648 -170332,-7040657 -170328,-7040666 -170332,-7040671 -170337,-7040669 -170342,-7040667 -170350,-7040665 -170361,-7040658 -170366,-7040664 -170368,-7040668 -170385,-7040660 -170388,-7040653 -170408,-7040651 -170410,-7040639 -170411,-7040635 -170417,-7040632 -170427,-7040627 -170433,-7040625 -170435,-7040627 -170437,-7040630 -170437,-7040652 -170435,-7040669 -170442,-7040671 -170454,-7040668 -170461,-7040656 -170463,-7040646 -170475,-7040631 -170481,-7040625 -170487,-7040622 -170490,-7040617 -170489,-7040599 -170494,-7040595 -170496,-7040594 -170496,-7040588 -170496,-7040586 -170501,-7040582 -170503,-7040581 -170504,-7040573 -170501,-7040572 -170486,-7040566 -170481,-7040561 -170479,-7040558 -170478,-7040550 -170481,-7040544 -170483,-7040542 -170490,-7040539 -170522,-7040549 -170531,-7040546 -170532,-7040543 -170543,-7040527 -170535,-7040517 -170537,-7040505 -170539,-7040498 -170534,-7040490 -170533,-7040486 -170534,-7040481 -170535,-7040474 -170537,-7040473 -170546,-7040471 -170545,-7040459 -170545,-7040454 -170544,-7040449 -170538,-7040446 -170529,-7040441 -170529,-7040429 -170529,-7040417 -170520,-7040413 -170514,-7040406 -170516,-7040400 -170527,-7040394 -170536,-7040388 -170537,-7040382 -170538,-7040378 -170537,-7040374 -170534,-7040370 -170529,-7040368 -170520,-7040367 -170520,-7040363 -170520,-7040331 -170523,-7040313 -170530,-7040314 -170540,-7040322 -170547,-7040320 -170549,-7040312 -170562,-7040296 -170581,-7040296 -170580,-7040289 -170571,-7040280 -170570,-7040279 -170570,-7040277 -170571,-7040270 -170580,-7040266 -170586,-7040264 -170591,-7040263 -170593,-7040263 -170598,-7040262 -170601,-7040250 -170606,-7040246 -170610,-7040247 -170613,-7040248 -170620,-7040256 -170628,-7040264 -170636,-7040258 -170635,-7040251 -170635,-7040249 -170627,-7040242 -170635,-7040233 -170641,-7040225 -170644,-7040221 -170646,-7040210 -170650,-7040200 -170650,-7040191 -170655,-7040185 -170663,-7040183 -170672,-7040179 -170676,-7040176 -170680,-7040173 -170680,-7040165 -170680,-7040157 -170671,-7040145 -170667,-7040134 -170666,-7040123 -170672,-7040122 -170689,-7040124 -170698,-7040109 -170696,-7040103 -170696,-7040101 -170692,-7040096 -170684,-7040095 -170673,-7040105 -170668,-7040110 -170662,-7040106 -170665,-7040081 -170666,-7040077 -170666,-7040059 -170672,-7040052 -170686,-7040045 -170694,-7040035 -170698,-7040019 -170691,-7040020 -170679,-7040022 -170685,-7040000 -170672,-7039994 -170666,-7039985 -170670,-7039978 -170677,-7039979 -170679,-7039979 -170683,-7039977 -170682,-7039967 -170681,-7039967 -170674,-7039958 -170666,-7039958 -170649,-7039964 -170650,-7039953 -170652,-7039921 -170656,-7039916 -170659,-7039912 -170665,-7039907 -170675,-7039900 -170685,-7039899 -170690,-7039897 -170694,-7039892 -170687,-7039884 -170671,-7039883 -170671,-7039869 -170677,-7039862 -170678,-7039858 -170678,-7039857 -170677,-7039857 -170665,-7039856 -170665,-7039843 -170669,-7039836 -170673,-7039832 -170686,-7039833 -170720,-7039824 -170726,-7039816 -170736,-7039799 -170746,-7039796 -170747,-7039811 -170757,-7039811 -170769,-7039773 -170777,-7039764 -170792,-7039759 -170804,-7039759 -170808,-7039758 -170820,-7039723 -170828,-7039711 -170846,-7039707 -170860,-7039712 -170861,-7039721 -170853,-7039728 -170866,-7039751 -170873,-7039748 -170872,-7039732 -170873,-7039726 -170884,-7039721 -170888,-7039718 -170888,-7039710 -170876,-7039691 -170867,-7039675 -170870,-7039670 -170880,-7039664 -170892,-7039660 -170910,-7039672 -170922,-7039684 -170943,-7039667 -170944,-7039655 -170963,-7039641 -170972,-7039639 -170987,-7039644 -170997,-7039644 -171000,-7039641 -170998,-7039635 -171000,-7039631 -171006,-7039630 -171017,-7039628 -171022,-7039622 -171027,-7039610 -171033,-7039606 -171038,-7039611 -171038,-7039626 -171043,-7039628 -171052,-7039624 -171062,-7039629 -171074,-7039630 -171080,-7039622 -171080,-7039608 -171072,-7039592 -171069,-7039578 -171072,-7039568 -171089,-7039566 -171095,-7039571 -171107,-7039571 -171112,-7039560 -171113,-7039560 -171113,-7039559 -171115,-7039560 -171131,-7039571 -171138,-7039575 -171149,-7039579 -171162,-7039570 -171165,-7039567 -171167,-7039568 -171178,-7039573 -171234,-7039567 -171240,-7039566 -171245,-7039574 -171250,-7039582 -171251,-7039579 -171260,-7039561 -171263,-7039562 -171279,-7039564 -171290,-7039568 -171309,-7039573 -171321,-7039582 -171330,-7039577 -171331,-7039574 -171334,-7039557 -171346,-7039528 -171356,-7039529 -171367,-7039545 -171374,-7039554 -171376,-7039563 -171386,-7039565 -171387,-7039562 -171388,-7039556 -171388,-7039539 -171400,-7039535 -171406,-7039534 -171410,-7039538 -171416,-7039550 -171436,-7039543 -171456,-7039544 -171470,-7039549 -171473,-7039557 -171476,-7039561 -171479,-7039563 -171482,-7039569 -171494,-7039575 -171500,-7039577 -171500,-7039572 -171500,-7039561 -171503,-7039556 -171513,-7039556 -171536,-7039556 -171537,-7039559 -171535,-7039580 -171538,-7039589 -171535,-7039604 -171555,-7039596 -171562,-7039591 -171570,-7039574 -171577,-7039561 -171589,-7039556 -171616,-7039553 -171619,-7039567 -171622,-7039572 -171627,-7039581 -171633,-7039581 -171637,-7039580 -171650,-7039580 -171652,-7039582 -171658,-7039596 -171672,-7039602 -171675,-7039621 -171675,-7039627 -171676,-7039633 -171679,-7039637 -171681,-7039640 -171686,-7039642 -171692,-7039643 -171698,-7039641 -171699,-7039641 -171710,-7039642 -171712,-7039642 -171712,-7039644 -171710,-7039661 -171721,-7039668 -171727,-7039671 -171742,-7039678 -171753,-7039683 -171757,-7039676 -171768,-7039667 -171784,-7039673 -171805,-7039682 -171797,-7039696 -171801,-7039706 -171809,-7039710 -171817,-7039708 -171822,-7039703 -171834,-7039703 -171834,-7039704 -171838,-7039718 -171850,-7039716 -171857,-7039714 -171858,-7039716 -171866,-7039727 -171882,-7039722 -171886,-7039732 -171886,-7039739 -171886,-7039752 -171888,-7039761 -171898,-7039762 -171899,-7039762 -171902,-7039762 -171905,-7039752 -171907,-7039742 -171916,-7039739 -171929,-7039743 -171932,-7039744 -171944,-7039756 -171947,-7039767 -171968,-7039775 -171988,-7039775 -171991,-7039776 -171991,-7039778 -171994,-7039791 -172004,-7039789 -172007,-7039800 -172019,-7039802 -172032,-7039817 -172047,-7039816 -172045,-7039826 -172060,-7039828 -172075,-7039840 -172081,-7039847 -172088,-7039865 -172099,-7039862 -172109,-7039861 -172118,-7039863 -172134,-7039859 -172135,-7039860 -172146,-7039874 -172140,-7039886 -172150,-7039893 -172161,-7039893 -172163,-7039893 -172174,-7039893 -172174,-7039895 -172178,-7039903 -172193,-7039907 -172195,-7039922 -172206,-7039923 -172211,-7039924 -172232,-7039924 -172259,-7039951 -172260,-7039949 -172266,-7039943 -172280,-7039937 -172285,-7039940 -172294,-7039945 -172306,-7039944 -172316,-7039936 -172317,-7039935 -172319,-7039937 -172336,-7039949 -172350,-7039967 -172372,-7039979 -172416,-7039981 -172442,-7039984 -172446,-7039984 -172452,-7039980 -172461,-7039972 -172511,-7039917 -172535,-7039890 -172552,-7039872 -172576,-7039852 -172589,-7039843 -172598,-7039850 -172604,-7039853 -172611,-7039855 -172623,-7039854 -172684,-7039828 -172688,-7039827 -172745,-7039805 -172760,-7039810 -172781,-7039805 -172796,-7039802 -172824,-7039798 -172845,-7039793 -172909,-7039795 -172910,-7039795 -172916,-7039788 -172939,-7039782 -172962,-7039790 -172968,-7039800 -172986,-7039812 -173013,-7039815 -173078,-7039818 -173115,-7039791 -173161,-7039789 -173307,-7039702 -173388,-7039699 -173412,-7039687 -173486,-7039675 -173477,-7039687 -173428,-7039755 -173439,-7039759 -173573,-7039806 -173832,-7039873 -173850,-7039878 -173851,-7039878 -173861,-7039913 -173856,-7039933 -173830,-7039967 -173786,-7040026 -173755,-7040068 -173676,-7040152 -173623,-7040219 -173611,-7040262 -173604,-7040386 -173603,-7040394 -173602,-7040398 -173560,-7040498 -173524,-7040540 -173501,-7040540 -173444,-7040623 -173384,-7040704 -173345,-7040751 -173335,-7040751 -173313,-7040777 -173291,-7040799 -173274,-7040815 -173225,-7040834 -173209,-7040835 -173198,-7040827 -173185,-7040835 -173202,-7040859 -173209,-7040870 -173276,-7040960 -173330,-7041034 -173416,-7041148 -173416,-7041148 -173424,-7041148 -173490,-7041239 -173588,-7041220 -173608,-7041221 -173677,-7041235 -173729,-7041445 -173750,-7041532 -173759,-7041571 -173761,-7041572 -173810,-7041631 -173826,-7041643 -173851,-7041659 -173861,-7041657 -173872,-7041654 -173898,-7041639 -173909,-7041626 -173936,-7041583 -173971,-7041513 -174004,-7041424 -174020,-7041364 -174033,-7041331 -174075,-7041255 -174113,-7041223 -174137,-7041215 -174296,-7041223 -174336,-7041211 -174351,-7041235 -174398,-7041307 -174427,-7041351 -174493,-7041433 -174826,-7041360 -174892,-7041307 -174962,-7041268 -175072,-7041212 -175129,-7041194 -175132,-7041193 -175138,-7041192 -175183,-7041185 -175206,-7041176 -175196,-7041153 -175158,-7041108 -175123,-7041063 -175551,-7040961 -175744,-7040915 -175944,-7040870 -175952,-7040875 -175963,-7040885 -175970,-7040897 -175979,-7040916 -175993,-7040973 -176006,-7041052 -176008,-7041076 -176008,-7041087 -176006,-7041139 -176008,-7041246 -176008,-7041303 -176022,-7041349 -176039,-7041393 -176057,-7041425 -176070,-7041449 -176100,-7041488 -176189,-7041586 -176219,-7041612 -176095,-7041704 -176028,-7041744 -175954,-7041762 -175849,-7041783 -175765,-7041794 -175781,-7041810 -175823,-7041832 -175840,-7041858 -175877,-7041905 -175931,-7041981 -175951,-7042012 -176037,-7042156 -176085,-7042225 -176092,-7042225 -176106,-7042234 -176205,-7042386 -176315,-7042556 -176361,-7042623 -176393,-7042663 -176430,-7042705 -176444,-7042705 -176444,-7042706 -176550,-7042703 -176576,-7042704 -176590,-7042702 -176617,-7042690 -176632,-7042684 -176653,-7042671 -176680,-7042637 -176695,-7042604 -176696,-7042574 -176696,-7042564 -176683,-7042533 -176632,-7042466 -176625,-7042454 -176622,-7042435 -176627,-7042413 -176638,-7042396 -176656,-7042375 -176679,-7042359 -176767,-7042301 -176863,-7042233 -176943,-7042180 -176977,-7042155 -177033,-7042090 -177040,-7042092 -177134,-7041967 -177275,-7041781 -177346,-7041684 -177394,-7041622 -177517,-7041457 -177651,-7041277 -177828,-7041045 -177903,-7040944 -177981,-7040840 -177984,-7040827 -177992,-7040814 -178000,-7040794 -178010,-7040792 -178026,-7040789 -178018,-7040831 -178010,-7040881 -177991,-7041052 -177986,-7041113 -177985,-7041137 -177985,-7041177 -177987,-7041217 -177993,-7041260 -178021,-7041406 -178186,-7041603 -178187,-7041716 -178178,-7041845 -178184,-7041858 -178249,-7042005 -178280,-7042075 -178285,-7042082 -178291,-7042089 -178306,-7042101 -178344,-7042126 -178372,-7042149 -178415,-7042171 -178441,-7042186 -178445,-7042188 -178462,-7042197 -178518,-7042227 -178524,-7042232 -178544,-7042249 -178560,-7042269 -178603,-7042331 -178657,-7042378 -178685,-7042407 -178693,-7042421 -178700,-7042438 -178707,-7042452 -178718,-7042472 -178749,-7042519 -178775,-7042545 -178839,-7042601 -178891,-7042649 -178924,-7042676 -178998,-7042740 -179015,-7042761 -179048,-7042813 -179072,-7042848 -179089,-7042868 -179103,-7042879 -179125,-7042881 -179129,-7042882 -179135,-7042906 -179153,-7042896 -179172,-7042884 -179190,-7042875 -179208,-7042861 -179264,-7042815 -179314,-7042777 -179358,-7042746 -179431,-7042693 -179486,-7042657 -179571,-7042595 -179661,-7042516 -179674,-7042506 -179688,-7042497 -179707,-7042485 -179737,-7042469 -179826,-7042415 -179995,-7042288 -180102,-7042207 -180250,-7042101 -180274,-7042085 -180390,-7042020 -180401,-7042016 -180434,-7042004 -180464,-7041990 -180484,-7041985 -180498,-7041978 -180511,-7041972 -180536,-7041956 -180553,-7041942 -180636,-7041889 -180692,-7041861 -180784,-7041813 -180799,-7041806 -180828,-7041793 -180900,-7041762 -180949,-7041743 -180964,-7041741 -181041,-7041735 -181068,-7041732 -181110,-7041728 -181193,-7041713 -181218,-7041717 -181240,-7041725 -181253,-7041739 -181262,-7041755 -181263,-7041757 -181275,-7041787 -181282,-7041801 -181297,-7041836 -181310,-7041868 -181328,-7041896 -181350,-7041933 -181366,-7041957 -181492,-7042128 -181573,-7042242 -181655,-7042366 -181693,-7042448 -181712,-7042474 -181722,-7042500 -181754,-7042566 -181706,-7042628 -181622,-7042736 -181592,-7042777 -181534,-7042860 -181363,-7043073 -181098,-7043410 -181141,-7043444 -181219,-7043499 -181191,-7043689 -181177,-7043807 -181146,-7044000 -181146,-7044002 -181053,-7044128 -181015,-7044149 -180966,-7044187 -180937,-7044213 -180913,-7044236 -180849,-7044305 -180735,-7044360 -180729,-7044472 -180749,-7044491 -180593,-7044556 -180578,-7044572 -180573,-7044580 -180569,-7044586 -180563,-7044601 -180549,-7044646 -180546,-7044663 -180544,-7044682 -180546,-7044699 -180550,-7044712 -180558,-7044732 -180571,-7044785 -180580,-7044844 -180581,-7044856 -180581,-7044863 -180582,-7044892 -180580,-7044921 -180579,-7044942 -180572,-7044958 -180492,-7045040 -180447,-7045103 -180437,-7045112 -180418,-7045127 -180362,-7045199 -180317,-7045242 -180310,-7045250 -180283,-7045276 -180198,-7045310 -180155,-7045331 -180096,-7045368 -180042,-7045406 -180027,-7045420 -179999,-7045445 -179981,-7045463 -179955,-7045498 -179891,-7045678 -179886,-7045688 -179875,-7045709 -179862,-7045731 -179854,-7045743 -179837,-7045765 -179782,-7045817 -179735,-7045877 -179711,-7045920 -179684,-7045982 -179644,-7046106 -179605,-7046183 -179533,-7046324 -179462,-7046439 -179459,-7046565 -179465,-7046618 -179474,-7046661 -179487,-7046716 -179480,-7046738 -179463,-7046750 -179450,-7046755 -179359,-7046760 -179205,-7046760 -179140,-7046761 -179092,-7046753 -179064,-7046748 -178990,-7046669 -178962,-7046642 -178958,-7046641 -178926,-7046638 -178846,-7046630 -178777,-7046620 -178703,-7046611 -178614,-7046594 -178592,-7046589 -178584,-7046588 -178519,-7046589 -178493,-7046596 -178471,-7046600 -178286,-7046624 -178191,-7046645 -178169,-7046652 -178156,-7046658 -178148,-7046662 -178122,-7046681 -178048,-7046730 -178034,-7046739 -177985,-7046764 -177959,-7046775 -177927,-7046788 -177882,-7046803 -177820,-7046818 -177707,-7046853 -177673,-7046862 -177597,-7046899 -177526,-7046929 -177477,-7046954 -177382,-7046992 -177330,-7047011 -177314,-7047015 -177204,-7047043 -177161,-7047060 -177149,-7047069 -177137,-7047083 -177128,-7047099 -177113,-7047130 -177098,-7047154 -177092,-7047171 -177089,-7047178 -177075,-7047198 -177065,-7047215 -177055,-7047229 -177056,-7047234 -177058,-7047242 -177063,-7047249 -177068,-7047255 -177075,-7047259 -177107,-7047273 -177148,-7047286 -177177,-7047298 -177504,-7047401 -178058,-7047578 -178274,-7047645 -178446,-7047702 -178652,-7047768 -179074,-7047908 -179279,-7047971 -179466,-7048031 -179542,-7048060 -179681,-7048103 -179777,-7048135 -179850,-7048161 -179961,-7048191 -179991,-7048198 -180085,-7048214 -180612,-7048314 -180706,-7048334 -180832,-7048358 -180866,-7048362 -180928,-7048377 -180950,-7048383 -180961,-7048387 -180975,-7048394 -180992,-7048410 -181016,-7048434 -181030,-7048446 -181066,-7048480 -181206,-7048629 -181266,-7048711 -181306,-7048769 -181326,-7048800 -181358,-7048855 -181441,-7049009 -181516,-7049151 -181567,-7049170 -181743,-7049258 -181906,-7049337 -181992,-7049376 -182628,-7049685 -182937,-7049839 -183209,-7049969 -183522,-7050124 -183544,-7050135 -183597,-7050160 -183726,-7050226 -183849,-7050296 -184004,-7050379 -184166,-7050454 -184262,-7050490 -184405,-7050569 -184554,-7050646 -184657,-7050712 -184746,-7050766 -184835,-7050822 -184849,-7050836 -184885,-7050866 -184914,-7050893 -184982,-7050937 -185073,-7051000 -185185,-7051098 -185224,-7051147 -185230,-7051153 -185244,-7051172 -185250,-7051184 -185254,-7051196 -185254,-7051215 -185254,-7051234 -185247,-7051328 -185237,-7051348 -185227,-7051378 -185228,-7051410 -185226,-7051451 -185219,-7051490 -185218,-7051539 -185225,-7051577 -185221,-7051601 -185225,-7051608 -185201,-7051652 -185196,-7051712 -185188,-7051755 -185172,-7051813 -185168,-7051835 -185165,-7051862 -185161,-7051893 -185168,-7051902 -185178,-7051915 -185181,-7051939 -185173,-7051971 -185151,-7052083 -185141,-7052152 -185102,-7052312 -185091,-7052323 -185101,-7052349 -185102,-7052349 -185119,-7052370 -185128,-7052389 -185134,-7052398 -185138,-7052409 -185143,-7052424 -185147,-7052440 -185148,-7052448 -185144,-7052474 -185147,-7052484 -185157,-7052500 -185161,-7052512 -185156,-7052525 -185150,-7052538 -185132,-7052565 -185118,-7052583 -185080,-7052633 -185066,-7052660 -185051,-7052681 -185041,-7052698 -185034,-7052712 -185026,-7052732 -185018,-7052757 -185013,-7052777 -185010,-7052791 -184995,-7052882 -184988,-7052907 -184975,-7052921 -184958,-7052942 -184908,-7052998 -184884,-7053045 -184789,-7053219 -184738,-7053306 -184668,-7053437 -184614,-7053525 -184471,-7053731 -184413,-7053825 -184347,-7053918 -184261,-7054099 -184200,-7054229 -184070,-7054504 -184068,-7054553 -184071,-7054662 -184078,-7054793 -184095,-7055053 -184088,-7055354 -184085,-7055497 -184084,-7055613 -184076,-7055646 -184071,-7055657 -184096,-7055795 -184102,-7055822 -184109,-7055855 -184165,-7055973 -184180,-7056001 -184190,-7056016 -184202,-7056030 -184217,-7056036 -184221,-7056037 -184233,-7056039 -184260,-7056043 -184349,-7056056 -184514,-7056078 -184623,-7056093 -184679,-7056118 -184872,-7056122 -185023,-7056124 -185359,-7056125 -185467,-7056097 -185583,-7056067 -185690,-7056039 -185764,-7056128 -185961,-7056408 -186028,-7056486 -186068,-7056529 -186091,-7056552 -186115,-7056580 -186143,-7056620 -186235,-7056761 -186265,-7056788 -186345,-7056865 -186376,-7056894 -186408,-7056922 -186440,-7056950 -186608,-7057125 -186691,-7057207 -186744,-7057253 -186779,-7057278 -186873,-7057345 -187069,-7057516 -187155,-7057594 -187220,-7057665 -187266,-7057664 -187319,-7057660 -187373,-7057650 -187449,-7057648 -187581,-7057634 -187591,-7057633 -187649,-7057628 -187717,-7057623 -187965,-7057609 -188633,-7057549 -188670,-7057570 -188882,-7057700 -189052,-7057802 -189215,-7057902 -189314,-7057960 -189562,-7058121 -189795,-7058276 -189777,-7058297 -189766,-7058308 -189754,-7058319 -189726,-7058341 -189721,-7058346 -189711,-7058357 -189703,-7058369 -189693,-7058389 -189689,-7058398 -189685,-7058418 -189684,-7058432 -189685,-7058452 -189683,-7058490 -189682,-7058540 -189690,-7058626 -189693,-7058639 -189694,-7058651 -189694,-7058663 -189693,-7058672 -189679,-7058737 -189678,-7058759 -189679,-7058772 -189681,-7058784 -189694,-7058824 -189699,-7058839 -189701,-7058852 -189702,-7058879 -189661,-7059001 -189659,-7059004 -189619,-7059084 -189606,-7059133 -189579,-7059284 -189577,-7059323 -189575,-7059361 -189580,-7059395 -189585,-7059412 -189595,-7059448 -189611,-7059492 -189621,-7059518 -189648,-7059578 -189670,-7059680 -189671,-7059691 -189672,-7059702 -189671,-7059714 -189669,-7059725 -189664,-7059742 -189617,-7059849 -189603,-7059895 -189617,-7059932 -189641,-7060013 -189682,-7060116 -189729,-7060198 -189753,-7060168 -189761,-7060175 -189806,-7060218 -189860,-7060268 -189910,-7060316 -190060,-7060450 -190156,-7060537 -190192,-7060570 -190240,-7060591 -190259,-7060598 -190290,-7060608 -190306,-7060615 -190350,-7060614 -190373,-7060603 -190404,-7060578 -190412,-7060582 -190434,-7060593 -190454,-7060602 -190600,-7060721 -190738,-7060839 -190803,-7060893 -190843,-7060884 -190884,-7060879 -190917,-7060881 -190949,-7060886 -190982,-7060891 -191019,-7060903 -191064,-7060920 -191110,-7060936 -191111,-7060936 -191115,-7060938 -191146,-7060949 -191163,-7060952 -191282,-7060960 -191402,-7060931 -191560,-7060898 -191685,-7060886 -191842,-7060865 -191869,-7060805 -191898,-7060764 -191920,-7060738 -191956,-7060701 -192005,-7060658 -192043,-7060626 -192111,-7060580 -192215,-7060514 -192469,-7060356 -192522,-7060331 -192563,-7060312 -192577,-7060317 -192648,-7060356 -192720,-7060398 -192784,-7060466 -192849,-7060541 -192909,-7060615 -192962,-7060722 -193008,-7060791 -193064,-7060873 -193147,-7061010 -193199,-7061027 -193366,-7061091 -193425,-7061117 -193572,-7061187 -193644,-7061230 -193669,-7061252 -193683,-7061269 -193754,-7061375 -193876,-7061564 -193901,-7061600 -193929,-7061633 -193961,-7061669 -194028,-7061746 -194106,-7061828 -194114,-7061834 -194147,-7061861 -194219,-7061998 -194253,-7062055 -194308,-7062123 -194388,-7062158 -194396,-7062163 -194410,-7062174 -194420,-7062183 -194427,-7062191 -194433,-7062200 -194443,-7062219 -194445,-7062224 -194453,-7062252 -194451,-7062299 -194442,-7062353 -194426,-7062418 -194409,-7062471 -194403,-7062497 -194392,-7062521 -194388,-7062528 -194382,-7062536 -194374,-7062544 -194364,-7062552 -194315,-7062594 -194288,-7062623 -194261,-7062652 -194221,-7062703 -194201,-7062745 -194154,-7062856 -194144,-7062895 -194139,-7062925 -194144,-7062962 -194144,-7062976 -194146,-7062986 -194149,-7062994 -194154,-7063004 -194162,-7063016 -194185,-7063042 -194191,-7063052 -194194,-7063061 -194196,-7063068 -194196,-7063080 -194187,-7063123 -194179,-7063134 -194176,-7063141 -194173,-7063149 -194171,-7063160 -194171,-7063178 -194189,-7063249 -194199,-7063279 -194209,-7063309 -194231,-7063367 -194241,-7063387 -194276,-7063427 -194321,-7063482 -194399,-7063597 -194442,-7063649 -194457,-7063673 -194464,-7063686 -194472,-7063711 -194474,-7063715 -194473,-7063741 -194529,-7063830 -194548,-7063856 -194567,-7063882 -194608,-7063934 -194624,-7063946 -194630,-7063952 -194637,-7063960 -194644,-7063971 -194648,-7063982 -194651,-7063992 -194653,-7064000 -194655,-7064032 -194669,-7064095 -194671,-7064106 -194675,-7064176 -194676,-7064204 -194677,-7064216 -194680,-7064229 -194685,-7064247 -194692,-7064265 -194696,-7064273 -194716,-7064308 -194720,-7064319 -194729,-7064339 -194736,-7064361 -194740,-7064378 -194744,-7064406 -194763,-7064510 -194768,-7064543 -194773,-7064576 -194778,-7064639 -194776,-7064655 -194772,-7064663 -194754,-7064694 -194740,-7064733 -194732,-7064780 -194643,-7064821 -194632,-7064843 -194618,-7064880 -194553,-7064934 -194518,-7064965 -194504,-7064975 -194495,-7064982 -194487,-7064991 -194481,-7065001 -194477,-7065013 -194475,-7065024 -194475,-7065035 -194470,-7065087 -194459,-7065125 -194455,-7065135 -194444,-7065156 -194434,-7065171 -194429,-7065179 -194414,-7065193 -194357,-7065240 -194310,-7065297 -194304,-7065306 -194298,-7065319 -194289,-7065362 -194282,-7065384 -194263,-7065430 -194258,-7065440 -194247,-7065460 -194230,-7065484 -194193,-7065528 -194163,-7065558 -194160,-7065563 -194157,-7065569 -194155,-7065576 -194151,-7065630 -194149,-7065639 -194145,-7065651 -194138,-7065665 -194134,-7065672 -194122,-7065687 -194117,-7065694 -194112,-7065704 -194109,-7065714 -194105,-7065730 -194104,-7065741 -194105,-7065760 -194110,-7065800 -194115,-7065819 -194119,-7065829 -194130,-7065852 -194133,-7065861 -194135,-7065874 -194136,-7065892 -194136,-7065915 -194135,-7065933 -194130,-7065970 -194130,-7065986 -194131,-7065999 -194133,-7066008 -194141,-7066025 -194169,-7066061 -194180,-7066073 -194188,-7066084 -194195,-7066095 -194210,-7066134 -194214,-7066170 -194214,-7066225 -194213,-7066246 -194211,-7066263 -194208,-7066280 -194196,-7066349 -194187,-7066369 -194171,-7066383 -194187,-7066409 -194246,-7066518 -194287,-7066581 -194309,-7066623 -194355,-7066688 -194363,-7066703 -194374,-7066734 -194377,-7066756 -194378,-7066781 -194382,-7066787 -194386,-7066793 -194394,-7066820 -194395,-7066821 -194399,-7066865 -194409,-7066876 -194413,-7066881 -194424,-7066898 -194427,-7066911 -194426,-7066926 -194416,-7066950 -194407,-7066969 -194387,-7067017 -194384,-7067029 -194386,-7067049 -194387,-7067060 -194393,-7067078 -194399,-7067091 -194423,-7067141 -194444,-7067182 -194455,-7067202 -194465,-7067238 -194469,-7067252 -194473,-7067290 -194479,-7067360 -194483,-7067408 -194489,-7067473 -194489,-7067523 -194487,-7067541 -194485,-7067550 -194480,-7067565 -194475,-7067589 -194466,-7067617 -194441,-7067674 -194439,-7067686 -194437,-7067693 -194437,-7067701 -194439,-7067710 -194454,-7067747 -194459,-7067768 -194487,-7067820 -194499,-7067839 -194509,-7067858 -194516,-7067883 -194520,-7067901 -194521,-7067913 -194522,-7067919 -194523,-7067932 -194525,-7067938 -194537,-7067956 -194545,-7067966 -194557,-7067985 -194574,-7068016 -194580,-7068021 -194585,-7068025 -194598,-7068035 -194605,-7068043 -194605,-7068058 -194606,-7068073 -194602,-7068084 -194596,-7068090 -194571,-7068102 -194564,-7068105 -194552,-7068110 -194533,-7068118 -194522,-7068124 -194513,-7068129 -194504,-7068136 -194495,-7068145 -194484,-7068157 -194476,-7068190 -194476,-7068207 -194476,-7068224 -194478,-7068247 -194488,-7068311 -194488,-7068335 -194486,-7068357 -194477,-7068405 -194468,-7068433 -194459,-7068455 -194453,-7068470 -194446,-7068483 -194437,-7068495 -194421,-7068508 -194407,-7068520 -194399,-7068526 -194389,-7068535 -194387,-7068543 -194387,-7068549 -194390,-7068555 -194394,-7068564 -194401,-7068577 -194409,-7068591 -194415,-7068605 -194418,-7068613 -194421,-7068623 -194422,-7068639 -194422,-7068654 -194418,-7068676 -194413,-7068688 -194400,-7068714 -194314,-7068838 -194288,-7068895 -194283,-7068907 -194281,-7068915 -194281,-7068923 -194281,-7068931 -194284,-7068940 -194288,-7068949 -194295,-7068958 -194314,-7068976 -194337,-7068996 -194361,-7069021 -194363,-7069023 -194388,-7069070 -194424,-7069130 -194455,-7069180 -194485,-7069215 -194505,-7069239 -194529,-7069270 -194567,-7069302 -194587,-7069312 -194598,-7069315 -194626,-7069329 -194639,-7069333 -194679,-7069341 -194735,-7069349 -194761,-7069351 -194774,-7069352 -194787,-7069355 -194799,-7069359 -194814,-7069363 -194845,-7069377 -194883,-7069388 -194888,-7069390 -194894,-7069392 -194901,-7069398 -194910,-7069407 -194923,-7069421 -194946,-7069436 -194963,-7069443 -194970,-7069445 -194992,-7069444 -195009,-7069450 -195048,-7069463 -195058,-7069464 -195091,-7069467 -195105,-7069468 -195151,-7069464 -195180,-7069460 -195203,-7069455 -195216,-7069450 -195230,-7069435 -195237,-7069419 -195246,-7069390 -195252,-7069378 -195257,-7069367 -195263,-7069359 -195276,-7069347 -195289,-7069338 -195325,-7069327 -195396,-7069294 -195421,-7069286 -195444,-7069276 -195473,-7069271 -195486,-7069270 -195518,-7069270 -195551,-7069270 -195651,-7069277 -195677,-7069276 -195720,-7069270 -195753,-7069256 -195763,-7069252 -195770,-7069247 -195795,-7069230 -195818,-7069215 -195845,-7069209 -195847,-7069209 -195855,-7069208 -195864,-7069208 -195881,-7069209 -195911,-7069212 -195976,-7069224 -195998,-7069230 -196017,-7069234 -196066,-7069234 -196083,-7069231 -196107,-7069225 -196120,-7069223 -196135,-7069223 -196158,-7069224 -196202,-7069234 -196216,-7069237 -196240,-7069243 -196262,-7069255 -196266,-7069257 -196301,-7069269 -196333,-7069274 -196384,-7069279 -196425,-7069278 -196444,-7069281 -196469,-7069293 -196562,-7069317 -196591,-7069318 -196613,-7069321 -196643,-7069332 -196674,-7069347 -196713,-7069369 -196733,-7069381 -196744,-7069388 -196776,-7069400 -196783,-7069403 -196790,-7069405 -196806,-7069411 -196824,-7069416 -196840,-7069423 -196861,-7069434 -196871,-7069441 -196879,-7069447 -196887,-7069457 -196906,-7069481 -196920,-7069494 -196929,-7069504 -196936,-7069519 -196942,-7069544 -196945,-7069558 -196950,-7069568 -196957,-7069576 -196978,-7069587 -196996,-7069595 -197005,-7069600 -197018,-7069607 -197029,-7069613 -197035,-7069624 -197040,-7069634 -197045,-7069653 -197047,-7069674 -197045,-7069706 -197039,-7069730 -197037,-7069763 -197046,-7069790 -197059,-7069807 -197079,-7069828 -197090,-7069839 -197098,-7069842 -197104,-7069845 -197114,-7069849 -197126,-7069850 -197140,-7069850 -197170,-7069847 -197213,-7069843 -197230,-7069846 -197274,-7069851 -197321,-7069849 -197338,-7069855 -197345,-7069859 -197359,-7069871 -197370,-7069884 -197385,-7069913 -197393,-7069927 -197404,-7069934 -197424,-7069948 -197435,-7069953 -197454,-7069967 -197465,-7069974 -197486,-7069984 -197509,-7069982 -197517,-7069981 -197524,-7069982 -197529,-7069983 -197536,-7069987 -197544,-7069992 -197550,-7069999 -197569,-7070013 -197596,-7070032 -197643,-7070056 -197655,-7070057 -197662,-7070060 -197679,-7070064 -197694,-7070069 -197710,-7070083 -197725,-7070099 -197737,-7070117 -197751,-7070145 -197768,-7070206 -197775,-7070253 -197776,-7070257 -197778,-7070269 -197787,-7070312 -197802,-7070326 -197809,-7070345 -197811,-7070352 -197815,-7070379 -197819,-7070389 -197829,-7070405 -197852,-7070431 -197924,-7070481 -197930,-7070497 -197934,-7070526 -197945,-7070569 -197954,-7070591 -197955,-7070627 -197953,-7070634 -197951,-7070646 -197944,-7070666 -197936,-7070699 -197930,-7070720 -197920,-7070761 -197919,-7070798 -197924,-7070826 -197924,-7070830 -197923,-7070861 -197922,-7070876 -197951,-7070932 -197959,-7070954 -197966,-7070962 -197978,-7070973 -197983,-7070981 -197983,-7070988 -197982,-7070993 -197978,-7071027 -197980,-7071066 -197987,-7071079 -198011,-7071115 -198026,-7071147 -198028,-7071152 -198039,-7071182 -198043,-7071199 -198044,-7071202 -198048,-7071202 -198058,-7071204 -198111,-7071246 -198170,-7071302 -198218,-7071333 -198238,-7071342 -198270,-7071349 -198298,-7071358 -198318,-7071361 -198386,-7071361 -198400,-7071363 -198425,-7071381 -198441,-7071382 -198480,-7071401 -198525,-7071420 -198553,-7071430 -198584,-7071432 -198607,-7071434 -198647,-7071437 -198697,-7071443 -198722,-7071446 -198742,-7071442 -198759,-7071443 -198773,-7071471 -198783,-7071482 -198805,-7071481 -198836,-7071476 -198857,-7071446 -198858,-7071421 -198866,-7071413 -198883,-7071413 -198894,-7071428 -198905,-7071433 -198949,-7071432 -198959,-7071426 -198993,-7071441 -199006,-7071442 -199014,-7071437 -199028,-7071439 -199057,-7071440 -199071,-7071434 -199095,-7071420 -199107,-7071419 -199121,-7071426 -199141,-7071449 -199172,-7071451 -199192,-7071458 -199264,-7071462 -199287,-7071466 -199309,-7071477 -199314,-7071477 -199340,-7071477 -199350,-7071483 -199351,-7071494 -199340,-7071498 -199326,-7071501 -199319,-7071503 -199320,-7071512 -199326,-7071517 -199330,-7071518 -199345,-7071520 -199362,-7071536 -199376,-7071537 -199383,-7071526 -199382,-7071512 -199381,-7071509 -199377,-7071492 -199385,-7071494 -199401,-7071517 -199412,-7071524 -199419,-7071532 -199421,-7071538 -199418,-7071550 -199411,-7071566 -199410,-7071576 -199430,-7071577 -199443,-7071563 -199441,-7071540 -199446,-7071534 -199454,-7071537 -199455,-7071541 -199457,-7071550 -199453,-7071567 -199452,-7071584 -199458,-7071598 -199471,-7071611 -199483,-7071623 -199504,-7071629 -199509,-7071633 -199516,-7071640 -199515,-7071652 -199520,-7071661 -199521,-7071662 -199530,-7071668 -199540,-7071659 -199542,-7071647 -199542,-7071647 -199542,-7071643 -199540,-7071638 -199540,-7071637 -199541,-7071626 -199550,-7071624 -199562,-7071628 -199569,-7071630 -199577,-7071637 -199580,-7071650 -199583,-7071659 -199583,-7071666 -199587,-7071674 -199599,-7071673 -199620,-7071676 -199629,-7071679 -199636,-7071688 -199636,-7071689 -199642,-7071700 -199641,-7071715 -199638,-7071727 -199636,-7071734 -199642,-7071741 -199661,-7071749 -199708,-7071769 -199719,-7071769 -199733,-7071768 -199742,-7071770 -199745,-7071783 -199746,-7071785 -199739,-7071813 -199741,-7071837 -199748,-7071846 -199760,-7071857 -199774,-7071863 -199779,-7071868 -199786,-7071878 -199788,-7071907 -199792,-7071919 -199808,-7071926 -199825,-7071930 -199848,-7071935 -199858,-7071945 -199857,-7071949 -199853,-7071971 -199853,-7071983 -199855,-7071985 -199862,-7071989 -199892,-7071987 -199912,-7072000 -199918,-7072003 -199928,-7072003 -199938,-7072010 -199946,-7072021 -199965,-7072028 -199980,-7072040 -199990,-7072054 -200008,-7072068 -200024,-7072082 -200044,-7072082 -200054,-7072079 -200072,-7072070 -200082,-7072071 -200094,-7072082 -200105,-7072081 -200119,-7072075 -200136,-7072059 -200188,-7072035 -200249,-7072109 -200429,-7072335 -200538,-7072468 -200358,-7072505 -200211,-7072537 -200067,-7072564 -199924,-7072593 -199795,-7072612 -199682,-7072621 -199524,-7072644 -199481,-7072655 -199443,-7072669 -199406,-7072686 -199375,-7072704 -199345,-7072725 -199312,-7072752 -199280,-7072784 -199265,-7072801 -199196,-7072882 -199151,-7072930 -199067,-7073016 -198983,-7073086 -198956,-7073102 -198913,-7073125 -198872,-7073144 -198850,-7073153 -198820,-7073162 -198790,-7073171 -198763,-7073177 -198733,-7073182 -198708,-7073184 -198664,-7073187 -198614,-7073186 -198554,-7073180 -198523,-7073177 -198491,-7073173 -198435,-7073164 -198366,-7073151 -198302,-7073135 -198271,-7073126 -198238,-7073116 -198194,-7073100 -198154,-7073084 -197997,-7073014 -197892,-7072970 -197826,-7072945 -197739,-7072900 -197690,-7072880 -197640,-7072860 -197552,-7072798 -197522,-7072781 -197480,-7072762 -197447,-7072751 -197431,-7072746 -197402,-7072740 -197386,-7072738 -197362,-7072736 -197338,-7072735 -197314,-7072735 -197299,-7072736 -197246,-7072744 -197208,-7072747 -197178,-7072744 -197152,-7072737 -197127,-7072726 -197113,-7072717 -196881,-7072610 -196842,-7072594 -196816,-7072570 -196802,-7072563 -196773,-7072554 -196758,-7072551 -196753,-7072551 -196739,-7072553 -196732,-7072553 -196721,-7072550 -196696,-7072538 -196620,-7072496 -196606,-7072489 -196589,-7072484 -196573,-7072481 -196553,-7072480 -196539,-7072481 -196525,-7072483 -196514,-7072487 -196502,-7072492 -196483,-7072504 -196469,-7072515 -196442,-7072529 -196425,-7072536 -196411,-7072540 -196382,-7072546 -196365,-7072547 -196355,-7072546 -196344,-7072543 -196331,-7072538 -196318,-7072532 -196306,-7072525 -196295,-7072517 -196274,-7072501 -196264,-7072495 -196253,-7072491 -196245,-7072490 -196227,-7072491 -196216,-7072494 -196202,-7072498 -196172,-7072512 -196164,-7072514 -196147,-7072517 -196140,-7072517 -196133,-7072516 -196124,-7072513 -196114,-7072508 -196105,-7072501 -196096,-7072490 -196061,-7072463 -196053,-7072453 -196047,-7072447 -196041,-7072443 -196033,-7072438 -196024,-7072434 -195994,-7072427 -195979,-7072426 -195954,-7072426 -195877,-7072440 -195827,-7072437 -195806,-7072437 -195794,-7072439 -195778,-7072443 -195760,-7072449 -195725,-7072462 -195708,-7072467 -195663,-7072478 -195649,-7072479 -195639,-7072479 -195627,-7072477 -195614,-7072474 -195558,-7072452 -195533,-7072442 -195508,-7072434 -195464,-7072423 -195433,-7072411 -195399,-7072405 -195366,-7072410 -195352,-7072414 -195343,-7072416 -195327,-7072417 -195320,-7072416 -195270,-7072404 -195240,-7072394 -195203,-7072376 -195151,-7072344 -195100,-7072315 -195072,-7072305 -195056,-7072301 -195033,-7072296 -194932,-7072267 -194903,-7072262 -194884,-7072259 -194844,-7072255 -194804,-7072255 -194781,-7072257 -194739,-7072261 -194723,-7072261 -194708,-7072259 -194696,-7072256 -194677,-7072248 -194666,-7072240 -194607,-7072215 -194506,-7072180 -194491,-7072155 -194485,-7072146 -194477,-7072136 -194465,-7072127 -194458,-7072121 -194427,-7072104 -194415,-7072099 -194407,-7072096 -194398,-7072094 -194388,-7072094 -194379,-7072094 -194365,-7072096 -194343,-7072107 -194332,-7072110 -194318,-7072112 -194305,-7072111 -194290,-7072109 -194275,-7072105 -194250,-7072094 -194242,-7072092 -194230,-7072093 -194198,-7072103 -194188,-7072108 -194151,-7072128 -194113,-7072152 -194105,-7072156 -194097,-7072159 -194088,-7072161 -194079,-7072161 -194066,-7072159 -193979,-7072124 -193964,-7072115 -193951,-7072104 -193946,-7072097 -193914,-7072044 -193898,-7072001 -193893,-7071983 -193889,-7071973 -193883,-7071963 -193878,-7071956 -193869,-7071945 -193857,-7071934 -193845,-7071925 -193792,-7071904 -193775,-7071899 -193764,-7071895 -193756,-7071889 -193750,-7071885 -193743,-7071878 -193723,-7071852 -193708,-7071828 -193698,-7071809 -193669,-7071770 -193661,-7071763 -193652,-7071756 -193641,-7071749 -193630,-7071745 -193618,-7071743 -193603,-7071742 -193586,-7071743 -193568,-7071746 -193552,-7071750 -193530,-7071759 -193522,-7071764 -193480,-7071797 -193451,-7071837 -193445,-7071843 -193449,-7071861 -193438,-7071895 -193429,-7071911 -193427,-7071928 -193413,-7071939 -193395,-7071950 -193389,-7071956 -193388,-7071990 -193365,-7072030 -193353,-7072085 -193345,-7072093 -193343,-7072128 -193330,-7072141 -193301,-7072152 -193288,-7072167 -193286,-7072175 -193301,-7072231 -193305,-7072235 -193307,-7072257 -193316,-7072287 -193316,-7072309 -193300,-7072358 -193301,-7072397 -193315,-7072422 -193326,-7072449 -193336,-7072459 -193348,-7072460 -193358,-7072468 -193361,-7072490 -193365,-7072499 -193369,-7072504 -193378,-7072510 -193395,-7072510 -193404,-7072516 -193406,-7072530 -193411,-7072541 -193434,-7072561 -193436,-7072577 -193430,-7072592 -193430,-7072611 -193421,-7072623 -193420,-7072643 -193407,-7072656 -193406,-7072663 -193386,-7072702 -193386,-7072730 -193382,-7072738 -193358,-7072758 -193348,-7072775 -193341,-7072788 -193331,-7072827 -193313,-7072863 -193311,-7072896 -193304,-7072925 -193301,-7072935 -193293,-7072951 -193282,-7072962 -193273,-7072973 -193263,-7072992 -193264,-7073040 -193267,-7073056 -193267,-7073085 -193254,-7073114 -193246,-7073162 -193231,-7073174 -193227,-7073182 -193225,-7073215 -193207,-7073287 -193206,-7073314 -193195,-7073336 -193194,-7073382 -193181,-7073411 -193182,-7073436 -193193,-7073454 -193193,-7073466 -193184,-7073497 -193182,-7073518 -193169,-7073545 -193161,-7073554 -193145,-7073569 -193119,-7073618 -193109,-7073649 -193090,-7073664 -193073,-7073664 -193061,-7073669 -193054,-7073688 -193054,-7073705 -193045,-7073715 -193027,-7073730 -193027,-7073765 -193009,-7073789 -193000,-7073791 -192988,-7073791 -192981,-7073797 -192981,-7073815 -192977,-7073826 -192976,-7073839 -192963,-7073869 -192931,-7073905 -192923,-7073921 -192918,-7073933 -192919,-7073946 -192926,-7073945 -192926,-7073967 -192915,-7073999 -192900,-7074016 -192882,-7074065 -192871,-7074096 -192849,-7074113 -192843,-7074122 -192842,-7074131 -192844,-7074139 -192844,-7074160 -192844,-7074180 -192851,-7074203 -192851,-7074223 -192840,-7074240 -192840,-7074259 -192812,-7074309 -192803,-7074321 -192775,-7074347 -192716,-7074376 -192701,-7074386 -192685,-7074392 -192666,-7074395 -192641,-7074397 -192623,-7074401 -192616,-7074393 -192587,-7074396 -192560,-7074387 -192542,-7074376 -192528,-7074376 -192514,-7074387 -192500,-7074402 -192461,-7074402 -192373,-7074403 -192323,-7074402 -192296,-7074404 -192264,-7074415 -192237,-7074427 -192206,-7074432 -192167,-7074437 -192104,-7074438 -192087,-7074436 -192056,-7074426 -192043,-7074427 -192025,-7074437 -192012,-7074440 -191971,-7074440 -191945,-7074434 -191927,-7074437 -191884,-7074446 -191847,-7074446 -191825,-7074444 -191810,-7074441 -191782,-7074440 -191771,-7074451 -191763,-7074469 -191762,-7074478 -191751,-7074492 -191737,-7074498 -191710,-7074500 -191675,-7074504 -191668,-7074510 -191628,-7074524 -191627,-7074548 -191649,-7074591 -191652,-7074605 -191653,-7074615 -191653,-7074627 -191647,-7074638 -191636,-7074646 -191607,-7074651 -191574,-7074647 -191546,-7074632 -191527,-7074621 -191507,-7074615 -191489,-7074607 -191473,-7074593 -191447,-7074612 -191430,-7074631 -191424,-7074649 -191421,-7074693 -191415,-7074702 -191404,-7074706 -191389,-7074710 -191374,-7074717 -191348,-7074743 -191338,-7074759 -191311,-7074777 -191264,-7074802 -191232,-7074824 -191212,-7074838 -191197,-7074859 -191164,-7074891 -191141,-7074904 -191104,-7074918 -191095,-7074920 -191069,-7074919 -191032,-7074917 -191023,-7074933 -191017,-7074965 -191016,-7074986 -191013,-7075018 -191007,-7075051 -191005,-7075118 -190999,-7075149 -190997,-7075158 -190986,-7075177 -190950,-7075213 -190893,-7075260 -190863,-7075285 -190803,-7075335 -190783,-7075359 -190763,-7075401 -190759,-7075428 -190760,-7075454 -190763,-7075466 -190769,-7075485 -190779,-7075501 -190806,-7075520 -190822,-7075537 -190825,-7075546 -190817,-7075598 -190808,-7075624 -190800,-7075638 -190780,-7075658 -190730,-7075702 -190701,-7075722 -190662,-7075749 -190632,-7075765 -190611,-7075781 -190611,-7075798 -190620,-7075820 -190648,-7075869 -190668,-7075939 -190668,-7075954 -190663,-7075970 -190655,-7075979 -190644,-7075983 -190627,-7075979 -190610,-7075971 -190592,-7075968 -190580,-7075968 -190573,-7075972 -190561,-7075989 -190550,-7076034 -190519,-7076072 -190483,-7076137 -190469,-7076173 -190466,-7076195 -190473,-7076216 -190475,-7076236 -190473,-7076248 -190468,-7076260 -190455,-7076268 -190440,-7076271 -190393,-7076261 -190379,-7076254 -190346,-7076256 -190340,-7076258 -190323,-7076263 -190310,-7076275 -190301,-7076284 -190288,-7076288 -190257,-7076289 -190233,-7076279 -190211,-7076266 -190185,-7076267 -190162,-7076277 -190144,-7076286 -190120,-7076286 -190087,-7076281 -190053,-7076278 -190031,-7076287 -190005,-7076299 -189957,-7076330 -189932,-7076340 -189918,-7076341 -189905,-7076335 -189887,-7076320 -189883,-7076308 -189881,-7076272 -189882,-7076244 -189877,-7076233 -189867,-7076229 -189851,-7076231 -189836,-7076239 -189810,-7076269 -189791,-7076286 -189786,-7076296 -189769,-7076317 -189762,-7076329 -189737,-7076348 -189700,-7076369 -189680,-7076368 -189667,-7076363 -189641,-7076364 -189611,-7076370 -189611,-7076399 -189610,-7076407 -189609,-7076408 -189607,-7076417 -189605,-7076425 -189602,-7076431 -189600,-7076436 -189590,-7076453 -189574,-7076467 -189574,-7076470 -189573,-7076473 -189573,-7076477 -189573,-7076481 -189574,-7076486 -189574,-7076491 -189576,-7076496 -189576,-7076498 -189581,-7076561 -189575,-7076562 -189575,-7076567 -189489,-7076568 -189466,-7076571 -189430,-7076585 -189403,-7076598 -189390,-7076600 -189377,-7076606 -189364,-7076609 -189346,-7076608 -189321,-7076605 -189294,-7076598 -189267,-7076587 -189227,-7076571 -189194,-7076555 -189190,-7076549 -189182,-7076549" stroke="#003087" stroke-width="90" /></svg>