<?xml version="1.0" standalone="no"?>
<!DOCTYPE svg PUBLIC "-//W3C//DTD SVG 1.1//EN"
"http://www.w3.org/Graphics/SVG/1.1/DTD/svg11.dtd">
<svg height="115" version="1.1" viewBox="-197668 -7377289 27437 23369" width="220" xmlns="http://www.w3.org/2000/svg"><polygon fill="#003087" points=" -183419,-7377289 -183374,-7377207 -183335,-7377128 -183283,-7377018 -183209,-7376848 -183184,-7376791 -183144,-7376685 -183108,-7376581 -183063,-7376460 -183047,-7376416 -182995,-7376264 -182926,-7376062 -182858,-7375873 -182765,-7375609 -182750,-7375585 -182706,-7375521 -182691,-7375499 -182671,-7375469 -182653,-7375441 -182621,-7375399 -182585,-7375353 -182536,-7375301 -182523,-7375259 -182523,-7375258 -182522,-7375258 -182522,-7375257 -182472,-7375083 -182444,-7374972 -182418,-7374891 -182397,-7374802 -182378,-7374722 -182361,-7374624 -182346,-7374540 -182335,-7374482 -182329,-7374446 -182336,-7374444 -182357,-7374432 -182409,-7374416 -182437,-7374404 -182455,-7374396 -182465,-7374387 -182496,-7374358 -182516,-7374323 -182520,-7374312 -182523,-7374301 -182525,-7374291 -182526,-7374279 -182528,-7374268 -182530,-7374233 -182529,-7374216 -182520,-7374183 -182507,-7374151 -182488,-7374127 -182464,-7374108 -182396,-7374071 -182350,-7374048 -182322,-7374022 -182280,-7373953 -182236,-7373865 -182225,-7373816 -182218,-7373761 -182207,-7373707 -182206,-7373685 -182191,-7373632 -182166,-7373573 -182135,-7373424 -182110,-7373286 -182089,-7373225 -182067,-7373099 -182036,-7372953 -182028,-7372902 -182020,-7372853 -182012,-7372789 -182006,-7372724 -181998,-7372671 -181994,-7372642 -181976,-7372641 -181974,-7372626 -181984,-7372582 -181981,-7372553 -181965,-7372495 -181924,-7372383 -181880,-7372179 -181858,-7372041 -181842,-7371981 -181827,-7371885 -181814,-7371782 -181805,-7371705 -181790,-7371628 -181776,-7371595 -181766,-7371505 -181734,-7371372 -181696,-7371232 -181921,-7371179 -181983,-7371081 -181999,-7371063 -182053,-7371033 -182115,-7370971 -182127,-7370956 -182199,-7370910 -182220,-7370895 -182260,-7370860 -182342,-7370795 -182378,-7370762 -182401,-7370733 -182429,-7370687 -182462,-7370633 -182479,-7370598 -182516,-7370529 -182537,-7370481 -182532,-7370426 -182527,-7370407 -182515,-7370374 -182501,-7370331 -182460,-7370193 -182443,-7370117 -182428,-7370064 -182413,-7369992 -182402,-7369952 -182397,-7369934 -182244,-7369940 -182141,-7369941 -181828,-7369930 -181650,-7369926 -181550,-7369922 -181450,-7369919 -181431,-7369918 -181345,-7369914 -181032,-7369910 -181027,-7369910 -181013,-7369676 -180846,-7369638 -180765,-7369619 -180746,-7369699 -180608,-7369665 -180621,-7369616 -180642,-7369540 -180664,-7369446 -180604,-7369430 -180590,-7369454 -180580,-7369464 -180565,-7369477 -180539,-7369488 -180504,-7369511 -180485,-7369529 -180471,-7369549 -180417,-7369589 -180346,-7369658 -180277,-7369724 -180219,-7369764 -180151,-7369804 -180146,-7369807 -180088,-7369837 -180011,-7369871 -179957,-7369884 -179628,-7369812 -179262,-7369725 -179132,-7369705 -178776,-7369655 -178612,-7369628 -178446,-7369601 -178350,-7369585 -178155,-7369570 -177987,-7369561 -177839,-7369549 -177821,-7369547 -177683,-7369539 -177623,-7369537 -177522,-7369523 -177439,-7369506 -177413,-7369472 -177413,-7369426 -177341,-7369425 -177291,-7369427 -177277,-7369294 -177270,-7369131 -177266,-7369021 -177262,-7368917 -177257,-7368839 -177250,-7368776 -177241,-7368686 -177232,-7368596 -177216,-7368516 -177189,-7368383 -177165,-7368274 -177140,-7368152 -177124,-7368151 -177089,-7367974 -177098,-7367944 -177078,-7367857 -177055,-7367788 -177026,-7367718 -177004,-7367658 -176970,-7367550 -176940,-7367466 -176903,-7367369 -176861,-7367280 -176819,-7367165 -176783,-7367091 -176743,-7367007 -176701,-7366914 -176706,-7366870 -176750,-7366803 -176834,-7366776 -176948,-7366742 -177030,-7366717 -177129,-7366678 -177198,-7366652 -177272,-7366611 -177323,-7366571 -177370,-7366526 -177396,-7366499 -177426,-7366457 -177430,-7366464 -177438,-7366480 -177461,-7366486 -177485,-7366426 -177554,-7366250 -177621,-7366083 -177670,-7366000 -177740,-7365878 -177766,-7365806 -177812,-7365707 -177829,-7365663 -177872,-7365566 -177930,-7365445 -177993,-7365303 -178006,-7365276 -178014,-7365233 -178050,-7365072 -178079,-7364945 -178112,-7364785 -178144,-7364642 -178186,-7364450 -178225,-7364266 -178237,-7364188 -178235,-7364149 -178231,-7364108 -178211,-7363972 -178181,-7363879 -178160,-7363821 -178140,-7363775 -178119,-7363773 -178111,-7363755 -177999,-7363744 -177912,-7363722 -177891,-7363718 -177842,-7363707 -177758,-7363690 -177685,-7363678 -177557,-7363655 -177455,-7363638 -177403,-7363629 -177241,-7363596 -177154,-7363579 -177078,-7363568 -177023,-7363559 -176957,-7363551 -176885,-7363548 -176821,-7363543 -176771,-7363542 -176717,-7363544 -176651,-7363545 -176595,-7363550 -176527,-7363557 -176391,-7363578 -176321,-7363591 -176214,-7363617 -176126,-7363643 -176057,-7363666 -175973,-7363694 -175868,-7363737 -175861,-7363740 -175797,-7363766 -175769,-7363728 -175751,-7363697 -175738,-7363665 -175726,-7363618 -175715,-7363579 -175708,-7363544 -175701,-7363459 -175703,-7363413 -175700,-7363367 -175689,-7363301 -175683,-7363271 -175658,-7363268 -175647,-7363236 -175633,-7363182 -175621,-7363122 -175566,-7362899 -175265,-7362968 -175294,-7363144 -175063,-7363186 -175053,-7363163 -175037,-7363166 -175016,-7362995 -174998,-7362871 -174987,-7362779 -174987,-7362713 -174987,-7362662 -174992,-7362627 -174970,-7362628 -174931,-7362638 -174857,-7362679 -174808,-7362710 -174803,-7362713 -174799,-7362716 -174795,-7362718 -174790,-7362720 -174789,-7362721 -174785,-7362722 -174780,-7362724 -174775,-7362724 -174770,-7362724 -174767,-7362724 -174763,-7362723 -174759,-7362721 -174756,-7362720 -174754,-7362719 -174751,-7362716 -174749,-7362713 -174747,-7362710 -174745,-7362707 -174743,-7362706 -174740,-7362704 -174737,-7362702 -174734,-7362701 -174731,-7362701 -174729,-7362701 -174726,-7362702 -174723,-7362703 -174721,-7362704 -174719,-7362704 -174708,-7362707 -174696,-7362710 -174685,-7362714 -174674,-7362718 -174664,-7362723 -174653,-7362729 -174651,-7362730 -174580,-7362763 -174517,-7362772 -174491,-7362781 -174454,-7362800 -174408,-7362828 -174384,-7362838 -174353,-7362845 -174312,-7362866 -174238,-7362916 -174172,-7362958 -174126,-7362990 -174083,-7363015 -174059,-7363010 -174039,-7363008 -174023,-7363025 -173969,-7363044 -173894,-7363059 -173856,-7363070 -173837,-7363074 -173819,-7363074 -173797,-7363072 -173781,-7363076 -173764,-7363077 -173718,-7363045 -173661,-7363016 -173609,-7362991 -173567,-7362971 -173519,-7362951 -173491,-7362942 -173493,-7362916 -173491,-7362785 -173513,-7362582 -173518,-7362518 -173526,-7362296 -173529,-7362226 -173530,-7362122 -173536,-7362013 -173538,-7361902 -173539,-7361868 -173544,-7361840 -173560,-7361748 -173590,-7361568 -173605,-7361493 -173620,-7361431 -173635,-7361361 -173668,-7361250 -173694,-7361149 -173712,-7361102 -173725,-7361062 -173746,-7361004 -173799,-7360857 -173828,-7360771 -173887,-7360620 -173946,-7360482 -173960,-7360445 -173990,-7360375 -173944,-7360360 -173889,-7360342 -173859,-7360310 -173834,-7360273 -173820,-7360250 -173808,-7360227 -173797,-7360204 -173782,-7360213 -173738,-7360239 -173679,-7360287 -173640,-7360321 -173611,-7360351 -173581,-7360376 -173551,-7360415 -173522,-7360447 -173506,-7360468 -173460,-7360498 -173400,-7360520 -173322,-7360548 -173252,-7360579 -173161,-7360394 -173080,-7360265 -173008,-7360155 -172928,-7360047 -172874,-7359970 -172865,-7359958 -172805,-7359874 -172800,-7359867 -172790,-7359875 -172788,-7359887 -172787,-7359893 -172781,-7359901 -172738,-7359930 -172711,-7359939 -172699,-7359943 -172655,-7359973 -172568,-7360030 -172538,-7359996 -172539,-7359988 -172502,-7360010 -172495,-7359999 -172482,-7360007 -172471,-7360017 -172451,-7360043 -172441,-7360060 -172432,-7360078 -172415,-7360123 -172412,-7360145 -172432,-7360146 -172424,-7360182 -172405,-7360188 -172399,-7360217 -172381,-7360278 -172362,-7360332 -172344,-7360372 -172313,-7360434 -172260,-7360400 -172208,-7360334 -172196,-7360285 -172175,-7360226 -172159,-7360187 -172146,-7360149 -172130,-7360066 -172114,-7359992 -172101,-7359918 -172092,-7359833 -172077,-7359756 -172075,-7359736 -171997,-7359760 -171906,-7359785 -171851,-7359800 -171761,-7359825 -171678,-7359848 -171627,-7359863 -171511,-7359900 -171509,-7359900 -171481,-7359904 -171453,-7359808 -171435,-7359735 -171433,-7359728 -171409,-7359658 -171371,-7359582 -171333,-7359501 -171300,-7359442 -171266,-7359365 -171258,-7359366 -171252,-7359351 -171257,-7359340 -171258,-7359323 -171271,-7359316 -171323,-7359291 -171324,-7359246 -171314,-7359216 -171306,-7359195 -171300,-7359149 -171301,-7359116 -171302,-7359084 -171311,-7359040 -171328,-7358991 -171339,-7358955 -171351,-7358918 -171370,-7358861 -171383,-7358858 -171408,-7358854 -171430,-7358629 -171392,-7358604 -171341,-7358586 -171309,-7358576 -171250,-7358565 -171220,-7358559 -171209,-7358554 -171197,-7358559 -171193,-7358571 -171194,-7358580 -171190,-7358583 -171184,-7358581 -171179,-7358587 -171185,-7358602 -171170,-7358618 -171139,-7358649 -171093,-7358693 -171061,-7358725 -171024,-7358756 -171014,-7358771 -170990,-7358800 -170975,-7358806 -170953,-7358846 -170914,-7358893 -170865,-7358947 -170812,-7359010 -170767,-7359061 -170730,-7359100 -170714,-7359082 -170703,-7359058 -170643,-7359002 -170624,-7358982 -170623,-7358980 -170617,-7358972 -170573,-7358930 -170505,-7358869 -170433,-7358805 -170425,-7358773 -170412,-7358764 -170411,-7358763 -170400,-7358768 -170391,-7358761 -170397,-7358750 -170231,-7358633 -170255,-7358605 -170294,-7358556 -170323,-7358517 -170349,-7358480 -170380,-7358431 -170409,-7358382 -170434,-7358335 -170486,-7358229 -170533,-7358121 -170552,-7358074 -170570,-7358026 -170606,-7357926 -170632,-7357835 -170632,-7357835 -170635,-7357821 -170644,-7357781 -170654,-7357736 -170683,-7357626 -170698,-7357520 -170702,-7357480 -170715,-7357367 -170742,-7357145 -170781,-7356845 -170788,-7356740 -170794,-7356638 -170796,-7356604 -170803,-7356449 -170816,-7356291 -170822,-7356199 -170822,-7356096 -170839,-7355869 -170857,-7355705 -170875,-7355564 -170907,-7355266 -170921,-7355195 -170923,-7355188 -170933,-7355121 -170993,-7354921 -171011,-7354876 -171034,-7354824 -171046,-7354802 -171062,-7354775 -171097,-7354722 -171121,-7354689 -171156,-7354643 -171234,-7354554 -171264,-7354525 -171277,-7354515 -171303,-7354496 -171345,-7354471 -171364,-7354460 -171395,-7354446 -171430,-7354432 -171458,-7354422 -171500,-7354409 -171610,-7354383 -171706,-7354357 -171724,-7354351 -171781,-7354342 -171799,-7354340 -171816,-7354340 -171828,-7354341 -171897,-7354351 -171932,-7354352 -171960,-7354346 -172050,-7354313 -172188,-7354255 -172321,-7354203 -172345,-7354192 -172392,-7354166 -172474,-7354114 -172544,-7354065 -172598,-7354024 -172686,-7353975 -172735,-7353951 -172793,-7353925 -172801,-7353924 -172810,-7353923 -172844,-7353923 -172889,-7353929 -172941,-7353927 -172977,-7353929 -173006,-7353935 -173043,-7353945 -173068,-7353952 -173105,-7353966 -173126,-7353975 -173167,-7353994 -173197,-7354009 -173206,-7354015 -173223,-7354027 -173235,-7354037 -173252,-7354053 -173315,-7354104 -173377,-7354158 -173380,-7354161 -173412,-7354188 -173426,-7354199 -173503,-7354276 -173578,-7354357 -173621,-7354398 -173752,-7354519 -173829,-7354580 -173906,-7354636 -174132,-7354785 -174270,-7354849 -174272,-7354850 -174338,-7354870 -174417,-7354913 -174450,-7354927 -174547,-7354973 -174595,-7354992 -174633,-7355005 -174671,-7355014 -174728,-7355025 -174775,-7355030 -174791,-7355032 -174838,-7355033 -174927,-7355034 -174967,-7355034 -174998,-7355030 -175029,-7355025 -175147,-7355000 -175187,-7354993 -175227,-7354982 -175273,-7354977 -175332,-7354961 -175352,-7354943 -175425,-7354932 -175485,-7354927 -175529,-7354931 -175617,-7354961 -175701,-7354990 -175737,-7355003 -175770,-7355017 -175788,-7355026 -175828,-7355047 -175907,-7355093 -175940,-7355115 -175981,-7355143 -176028,-7355180 -176061,-7355209 -176098,-7355245 -176117,-7355264 -176232,-7355390 -176270,-7355436 -176353,-7355545 -176438,-7355665 -176465,-7355702 -176517,-7355770 -176561,-7355819 -176680,-7355946 -176738,-7355995 -176755,-7356007 -176781,-7356023 -176805,-7356035 -176854,-7356058 -176894,-7356074 -176934,-7356091 -176978,-7356106 -177018,-7356118 -177054,-7356128 -177095,-7356138 -177147,-7356149 -177173,-7356153 -177224,-7356160 -177284,-7356164 -177369,-7356167 -177428,-7356166 -177480,-7356163 -177577,-7356153 -177619,-7356143 -177719,-7356129 -177750,-7356123 -177837,-7356096 -177912,-7356067 -178018,-7356021 -178208,-7355940 -178467,-7355823 -178606,-7355750 -178785,-7355652 -178826,-7355628 -178891,-7355602 -179078,-7355472 -179120,-7355438 -179175,-7355397 -179288,-7355318 -179343,-7355270 -179620,-7354996 -179749,-7354862 -179840,-7354763 -179904,-7354705 -179962,-7354656 -180086,-7354563 -180192,-7354489 -180228,-7354464 -180479,-7354300 -180627,-7354221 -180821,-7354133 -180976,-7354069 -181107,-7354026 -181276,-7353977 -181468,-7353937 -181508,-7353930 -181577,-7353924 -181654,-7353920 -181689,-7353920 -181793,-7353922 -181946,-7353934 -182196,-7353949 -182225,-7353952 -182285,-7353955 -182494,-7353962 -182531,-7353962 -182572,-7353964 -182761,-7353994 -183106,-7354063 -183280,-7354109 -183328,-7354124 -183357,-7354136 -183500,-7354198 -183688,-7354279 -184048,-7354424 -184193,-7354487 -184451,-7354597 -184517,-7354624 -184621,-7354667 -184708,-7354697 -184773,-7354717 -185209,-7354818 -185256,-7354828 -185348,-7354840 -185418,-7354854 -185545,-7354886 -185836,-7354956 -186072,-7355010 -186159,-7355026 -186227,-7355030 -186340,-7355040 -186435,-7355050 -186547,-7355059 -186587,-7355059 -186650,-7355056 -186670,-7355054 -186710,-7355048 -186760,-7355035 -186776,-7355028 -186816,-7355011 -186856,-7355001 -186890,-7354996 -186920,-7354998 -186958,-7354995 -186996,-7354995 -187036,-7354997 -187079,-7355001 -187117,-7355005 -187159,-7355012 -187211,-7355026 -187287,-7355052 -187433,-7355106 -187538,-7355148 -187582,-7355167 -187759,-7355250 -188036,-7355395 -188079,-7355423 -188126,-7355455 -188204,-7355502 -188359,-7355606 -188467,-7355690 -188503,-7355728 -188536,-7355767 -188598,-7355827 -188692,-7355903 -188831,-7356000 -188959,-7356084 -189004,-7356106 -189033,-7356120 -189071,-7356136 -189110,-7356150 -189112,-7356150 -189146,-7356162 -189181,-7356172 -189216,-7356182 -189251,-7356190 -189286,-7356197 -189322,-7356203 -189354,-7356207 -189387,-7356211 -189420,-7356213 -189453,-7356215 -189486,-7356215 -189519,-7356214 -189552,-7356212 -189576,-7356210 -189601,-7356207 -189625,-7356204 -189650,-7356200 -189674,-7356195 -189698,-7356190 -189723,-7356184 -189746,-7356176 -189770,-7356168 -189772,-7356167 -189792,-7356159 -189812,-7356150 -189831,-7356141 -189850,-7356131 -189868,-7356121 -189887,-7356109 -189904,-7356097 -189922,-7356085 -189938,-7356071 -189944,-7356066 -189956,-7356056 -189967,-7356045 -189978,-7356035 -189988,-7356024 -189998,-7356013 -190007,-7356001 -190015,-7355989 -190024,-7355974 -190032,-7355958 -190039,-7355941 -190046,-7355924 -190052,-7355907 -190055,-7355899 -190062,-7355867 -190070,-7355834 -190075,-7355816 -190081,-7355798 -190086,-7355779 -190092,-7355761 -190099,-7355743 -190106,-7355725 -190115,-7355708 -190124,-7355691 -190129,-7355683 -190139,-7355667 -190150,-7355651 -190161,-7355636 -190173,-7355621 -190186,-7355607 -190199,-7355594 -190213,-7355581 -190227,-7355569 -190242,-7355557 -190257,-7355546 -190275,-7355534 -190298,-7355522 -190322,-7355510 -190346,-7355500 -190371,-7355491 -190396,-7355483 -190422,-7355476 -190428,-7355474 -190457,-7355467 -190487,-7355461 -190516,-7355457 -190546,-7355453 -190575,-7355451 -190605,-7355450 -190608,-7355450 -190638,-7355449 -190668,-7355450 -190697,-7355452 -190727,-7355455 -190995,-7355491 -191054,-7355494 -191114,-7355500 -191175,-7355507 -191235,-7355517 -191265,-7355522 -191298,-7355527 -191319,-7355531 -191332,-7355534 -191365,-7355540 -191399,-7355548 -191431,-7355557 -191464,-7355568 -191477,-7355573 -191549,-7355604 -191619,-7355641 -191688,-7355680 -191709,-7355692 -191743,-7355711 -191778,-7355731 -191812,-7355751 -191845,-7355772 -191878,-7355794 -191910,-7355817 -191917,-7355823 -191942,-7355843 -191966,-7355863 -191989,-7355884 -192012,-7355906 -192035,-7355928 -192056,-7355951 -192063,-7355960 -192077,-7355976 -192091,-7355994 -192105,-7356011 -192118,-7356029 -192131,-7356047 -192143,-7356065 -192155,-7356084 -192165,-7356103 -192175,-7356123 -192184,-7356143 -192190,-7356160 -192197,-7356180 -192203,-7356200 -192208,-7356220 -192213,-7356241 -192217,-7356262 -192219,-7356283 -192221,-7356303 -192222,-7356324 -192223,-7356334 -192222,-7356355 -192221,-7356377 -192219,-7356397 -192217,-7356418 -192213,-7356439 -192206,-7356497 -192196,-7356572 -192195,-7356575 -192192,-7356592 -192188,-7356610 -192184,-7356628 -192180,-7356646 -192176,-7356664 -192172,-7356682 -192170,-7356700 -192169,-7356718 -192169,-7356723 -192170,-7356743 -192171,-7356763 -192174,-7356784 -192178,-7356804 -192182,-7356824 -192187,-7356843 -192193,-7356863 -192199,-7356881 -192207,-7356900 -192215,-7356919 -192225,-7356938 -192235,-7356956 -192245,-7356974 -192257,-7356992 -192269,-7357008 -192282,-7357025 -192301,-7357047 -192337,-7357079 -192376,-7357108 -192414,-7357134 -192416,-7357136 -192457,-7357163 -192475,-7357175 -192516,-7357201 -192558,-7357226 -192601,-7357249 -192759,-7357330 -192793,-7357347 -192960,-7357455 -193032,-7357496 -193153,-7357565 -193248,-7357616 -193407,-7357703 -193456,-7357730 -193646,-7357836 -193680,-7357856 -193689,-7357861 -193708,-7357867 -193767,-7357907 -193928,-7358018 -194143,-7358140 -194158,-7358149 -194228,-7358190 -194299,-7358231 -194371,-7358270 -194400,-7358284 -194444,-7358306 -194489,-7358327 -194534,-7358348 -194580,-7358367 -194626,-7358384 -194632,-7358386 -194684,-7358404 -194737,-7358419 -194782,-7358430 -194791,-7358432 -194844,-7358444 -194856,-7358446 -194890,-7358453 -194924,-7358460 -194958,-7358465 -194993,-7358470 -195027,-7358473 -195042,-7358473 -195075,-7358475 -195108,-7358475 -195141,-7358474 -195173,-7358472 -195206,-7358468 -195220,-7358467 -195253,-7358462 -195285,-7358456 -195317,-7358448 -195348,-7358440 -195585,-7358371 -195664,-7358341 -195841,-7358274 -195853,-7358269 -196072,-7358200 -196075,-7358199 -196111,-7358184 -196148,-7358171 -196185,-7358159 -196222,-7358148 -196259,-7358138 -196280,-7358133 -196309,-7358126 -196339,-7358121 -196369,-7358116 -196399,-7358113 -196407,-7358112 -196440,-7358110 -196472,-7358109 -196504,-7358109 -196537,-7358111 -196548,-7358112 -196580,-7358114 -196612,-7358119 -196644,-7358124 -196711,-7358133 -196720,-7358136 -196894,-7358149 -197008,-7358176 -197011,-7358199 -197013,-7358214 -197018,-7358254 -197024,-7358298 -197039,-7358360 -197074,-7358473 -197153,-7358748 -197164,-7358801 -197166,-7358859 -197170,-7358882 -197174,-7358904 -197185,-7358919 -197182,-7358943 -197185,-7358972 -197189,-7358986 -197193,-7358999 -197206,-7359020 -197236,-7359082 -197279,-7359159 -197284,-7359181 -197289,-7359213 -197298,-7359252 -197312,-7359300 -197326,-7359340 -197346,-7359407 -197325,-7359457 -197327,-7359462 -197329,-7359466 -197359,-7359496 -197387,-7359520 -197448,-7359563 -197478,-7359583 -197510,-7359613 -197617,-7359761 -197666,-7359840 -197668,-7359853 -197667,-7359889 -197649,-7360055 -197644,-7360132 -197632,-7360146 -197625,-7360227 -197621,-7360290 -197614,-7360311 -197607,-7360341 -197601,-7360433 -197603,-7360557 -197601,-7360817 -197594,-7360891 -197570,-7360941 -197544,-7360984 -197492,-7361072 -197461,-7361119 -197433,-7361120 -197437,-7361215 -197445,-7361216 -197451,-7361328 -197455,-7361449 -197461,-7361601 -197476,-7361872 -197480,-7361949 -197500,-7362390 -197443,-7362399 -197451,-7362501 -197460,-7362636 -197463,-7362669 -197360,-7362650 -197200,-7362625 -196998,-7362596 -196968,-7362578 -196879,-7362566 -196872,-7362576 -196706,-7362553 -196614,-7362546 -196460,-7362522 -196263,-7362495 -196235,-7362486 -196224,-7362488 -196133,-7362479 -196012,-7362466 -195873,-7362452 -195700,-7362440 -195696,-7362439 -195691,-7362437 -195686,-7362436 -195681,-7362436 -195676,-7362436 -195671,-7362436 -195666,-7362437 -195661,-7362438 -195656,-7362440 -195650,-7362442 -195645,-7362445 -195641,-7362448 -195638,-7362450 -195634,-7362453 -195631,-7362456 -195629,-7362459 -195627,-7362462 -195625,-7362466 -195623,-7362470 -195611,-7362500 -195539,-7362499 -195551,-7362584 -195557,-7362633 -195561,-7362679 -195560,-7362720 -195558,-7362772 -195553,-7362856 -195546,-7362926 -195547,-7362934 -195553,-7362949 -195548,-7362959 -195546,-7363013 -195558,-7363059 -195572,-7363147 -195573,-7363238 -195574,-7363374 -195574,-7363378 -195574,-7363383 -195576,-7363581 -195578,-7363776 -195578,-7363879 -195574,-7363944 -195557,-7364255 -195537,-7364587 -195515,-7364961 -195350,-7364948 -195023,-7364911 -194926,-7364897 -194919,-7364951 -194901,-7365005 -194893,-7365038 -194894,-7365067 -194891,-7365099 -194893,-7365126 -194892,-7365152 -194881,-7365261 -194879,-7365286 -194872,-7365363 -194865,-7365521 -194871,-7365677 -194878,-7365727 -194882,-7365939 -194882,-7366105 -194871,-7366281 -194863,-7366333 -194857,-7366385 -194836,-7366529 -194792,-7366527 -194691,-7366530 -194628,-7366529 -194584,-7366533 -194528,-7366530 -194504,-7366532 -194477,-7366535 -194423,-7366533 -194374,-7366533 -194336,-7366535 -194294,-7366531 -194274,-7366533 -194246,-7366530 -194153,-7366534 -194057,-7366536 -193993,-7366540 -193944,-7366551 -193926,-7366556 -193891,-7366567 -193874,-7366574 -193865,-7366577 -193808,-7366597 -193765,-7366609 -193699,-7366638 -193693,-7366649 -193688,-7366660 -193674,-7366700 -193662,-7366760 -193684,-7366782 -193706,-7366814 -193706,-7366818 -193700,-7366846 -193657,-7366934 -193631,-7366981 -193620,-7367035 -193616,-7367075 -193596,-7367080 -193471,-7367104 -193512,-7367151 -193534,-7367182 -193559,-7367253 -193568,-7367274 -193576,-7367294 -193594,-7367345 -193604,-7367375 -193615,-7367433 -193619,-7367475 -193621,-7367538 -193620,-7367612 -193610,-7367612 -193536,-7367610 -193507,-7367614 -193469,-7367624 -193438,-7367630 -193407,-7367635 -193377,-7367637 -193350,-7367630 -193320,-7367619 -193286,-7367609 -193194,-7367603 -193150,-7367604 -193097,-7367612 -193046,-7367622 -193007,-7367636 -192975,-7367653 -192960,-7367663 -192954,-7367665 -192940,-7367669 -192914,-7367670 -192889,-7367673 -192864,-7367680 -192841,-7367690 -192835,-7367693 -192827,-7367702 -192814,-7367725 -192821,-7367764 -192825,-7367780 -192829,-7367818 -192829,-7367831 -192822,-7367857 -192811,-7367882 -192803,-7367898 -192795,-7367919 -192794,-7367928 -192792,-7367938 -192792,-7367969 -192794,-7368018 -192770,-7368031 -192721,-7368043 -192688,-7368049 -192657,-7368059 -192653,-7368062 -192613,-7368093 -192584,-7368090 -192550,-7368084 -192525,-7368085 -192504,-7368091 -192473,-7368107 -192437,-7368123 -192408,-7368143 -192383,-7368155 -192372,-7368161 -192346,-7368181 -192334,-7368193 -192314,-7368214 -192301,-7368199 -192276,-7368242 -192257,-7368275 -192240,-7368303 -192147,-7368296 -192105,-7368290 -192090,-7368289 -192075,-7368287 -192069,-7368287 -192054,-7368287 -192039,-7368287 -192032,-7368288 -192020,-7368290 -192008,-7368292 -191999,-7368294 -191985,-7368297 -191972,-7368301 -191959,-7368306 -191955,-7368308 -191870,-7368333 -191762,-7368358 -191639,-7368385 -191648,-7368481 -191623,-7368481 -191578,-7368482 -191531,-7368473 -191484,-7368472 -191424,-7368465 -191394,-7368464 -191342,-7368464 -191323,-7368465 -191302,-7368467 -191251,-7368473 -191229,-7368475 -191193,-7368477 -191126,-7368478 -191059,-7368482 -190994,-7368480 -190933,-7368480 -190860,-7368472 -190851,-7368472 -190973,-7368927 -190997,-7368947 -190998,-7368992 -191001,-7369015 -191004,-7369034 -191008,-7369056 -191012,-7369072 -191017,-7369093 -191023,-7369113 -191026,-7369121 -191035,-7369147 -191045,-7369173 -191056,-7369198 -191057,-7369199 -191093,-7369284 -191129,-7369366 -191056,-7369387 -190744,-7369472 -190631,-7369501 -190485,-7369533 -190532,-7369873 -190290,-7369893 -190202,-7369895 -190199,-7369954 -190203,-7370023 -190206,-7370072 -190169,-7370054 -190159,-7370050 -190148,-7370047 -190138,-7370044 -190138,-7370044 -190127,-7370042 -190116,-7370041 -190109,-7370040 -190089,-7370038 -190086,-7370038 -190062,-7370037 -190061,-7370037 -190028,-7370040 -189910,-7370046 -189844,-7370051 -189795,-7370060 -189750,-7370063 -189682,-7370075 -189657,-7370080 -189639,-7370091 -189600,-7370102 -189584,-7370107 -189555,-7370131 -189528,-7370144 -189495,-7370155 -189440,-7370170 -189384,-7370182 -189331,-7370197 -189266,-7370337 -189047,-7370288 -188882,-7370245 -188677,-7370195 -188673,-7370201 -188674,-7370211 -188686,-7370241 -188688,-7370250 -188691,-7370266 -188691,-7370273 -188689,-7370279 -188687,-7370285 -188673,-7370303 -188635,-7370360 -188623,-7370384 -188617,-7370405 -188613,-7370433 -188610,-7370462 -188610,-7370503 -188626,-7370578 -188623,-7370598 -188617,-7370627 -188616,-7370638 -188616,-7370649 -188618,-7370669 -188611,-7370679 -188621,-7370711 -188620,-7370722 -188618,-7370732 -188609,-7370754 -188593,-7370779 -188586,-7370798 -188574,-7370810 -188573,-7370820 -188582,-7370850 -188572,-7370933 -188580,-7370960 -188600,-7370994 -188602,-7371028 -188622,-7371086 -188647,-7371127 -188652,-7371155 -188655,-7371192 -188667,-7371256 -188679,-7371285 -188691,-7371321 -188680,-7371371 -188668,-7371405 -188651,-7371441 -188647,-7371458 -188645,-7371476 -188650,-7371499 -188655,-7371510 -188660,-7371522 -188675,-7371549 -188679,-7371559 -188697,-7371621 -188715,-7371655 -188736,-7371688 -188752,-7371707 -188802,-7371753 -188877,-7371807 -188948,-7371921 -189012,-7372038 -189161,-7372044 -189482,-7372064 -190125,-7372094 -190416,-7372110 -190469,-7372493 -190559,-7373119 -190612,-7373463 -190648,-7373723 -190699,-7374072 -190743,-7374362 -190774,-7374584 -190596,-7374595 -190330,-7374614 -190172,-7374624 -189700,-7374652 -189703,-7374736 -189732,-7374967 -189753,-7375174 -189762,-7375190 -189760,-7375210 -189763,-7375291 -189763,-7375538 -189758,-7375591 -189756,-7375644 -189657,-7375638 -189507,-7375634 -189365,-7375636 -189356,-7375701 -189321,-7375695 -189273,-7375683 -189222,-7375680 -189164,-7375674 -189051,-7375647 -188920,-7375629 -188891,-7375629 -188878,-7375567 -188765,-7375537 -188565,-7375485 -188278,-7375410 -188199,-7375549 -188209,-7375633 -188223,-7375730 -188242,-7375888 -188254,-7376013 -188246,-7376015 -188169,-7376037 -187953,-7376093 -187944,-7376094 -187883,-7376103 -187806,-7376113 -187730,-7376126 -187666,-7376141 -187602,-7376163 -187573,-7376176 -187529,-7376204 -187463,-7376234 -187354,-7376286 -187264,-7376326 -187142,-7376378 -187039,-7376421 -186985,-7376443 -186978,-7376445 -186895,-7376470 -186764,-7376508 -186600,-7376569 -186310,-7376666 -186034,-7376758 -185809,-7376831 -185743,-7376852 -185548,-7376914 -185310,-7376988 -185126,-7377051 -184995,-7377099 -184909,-7377121 -184839,-7377137 -184669,-7377171 -184516,-7377197 -184420,-7377211 -184295,-7377231 -184185,-7377246 -184127,-7377251 -184116,-7377251 -184083,-7377253 -184081,-7377253 -184075,-7377254 -184069,-7377255 -184063,-7377256 -184057,-7377256 -184051,-7377256 -184050,-7377256 -184044,-7377255 -184038,-7377253 -184033,-7377251 -184027,-7377249 -184022,-7377246 -183973,-7377237 -183935,-7377233 -183866,-7377229 -183790,-7377228 -183700,-7377243 -183578,-7377261 -183419,-7377289" stroke="#003087" stroke-width="50" /></svg>