<?xml version="1.0" standalone="no"?>
<!DOCTYPE svg PUBLIC "-//W3C//DTD SVG 1.1//EN"
"http://www.w3.org/Graphics/SVG/1.1/DTD/svg11.dtd">
<svg height="115" version="1.1" viewBox="-245668 -6916300 17684 17219" width="220" xmlns="http://www.w3.org/2000/svg"><polygon fill="#003087" points=" -235307,-6916300 -235263,-6916204 -235216,-6916111 -235193,-6916068 -235148,-6915959 -235104,-6915867 -235066,-6915791 -235039,-6915777 -235021,-6915778 -234912,-6915849 -234864,-6915764 -234813,-6915685 -234698,-6915686 -234598,-6915685 -234527,-6915679 -234509,-6915682 -234477,-6915732 -234463,-6915751 -234453,-6915761 -234431,-6915782 -234408,-6915797 -234400,-6915802 -234380,-6915811 -234359,-6915817 -234326,-6915823 -234312,-6915824 -234295,-6915824 -234269,-6915823 -234242,-6915821 -234194,-6915815 -234183,-6915813 -234111,-6915793 -234091,-6915788 -234052,-6915781 -234029,-6915779 -234006,-6915778 -233935,-6915778 -233911,-6915776 -233909,-6915775 -233914,-6915722 -233914,-6915714 -233913,-6915690 -233911,-6915665 -233909,-6915648 -233900,-6915608 -233887,-6915568 -233874,-6915515 -233866,-6915493 -233861,-6915484 -233856,-6915475 -233843,-6915457 -233828,-6915440 -233816,-6915428 -233808,-6915421 -233800,-6915414 -233790,-6915408 -233776,-6915402 -233752,-6915395 -233729,-6915392 -233732,-6915377 -233687,-6915355 -233639,-6915280 -233629,-6915260 -233618,-6915234 -233614,-6915222 -233612,-6915210 -233611,-6915198 -233611,-6915185 -233612,-6915169 -233615,-6915153 -233611,-6915095 -233617,-6915008 -233630,-6914879 -233636,-6914856 -233639,-6914842 -233641,-6914827 -233641,-6914814 -233641,-6914805 -233636,-6914773 -233635,-6914726 -233623,-6914686 -233622,-6914667 -233622,-6914665 -233639,-6914661 -233639,-6914647 -233639,-6914628 -233640,-6914619 -233644,-6914610 -233650,-6914603 -233652,-6914598 -233654,-6914589 -233654,-6914584 -233653,-6914574 -233650,-6914564 -233648,-6914557 -233637,-6914540 -233623,-6914524 -233615,-6914519 -233610,-6914513 -233609,-6914506 -233610,-6914497 -233608,-6914493 -233582,-6914475 -233581,-6914471 -233580,-6914468 -233588,-6914452 -233589,-6914449 -233588,-6914444 -233587,-6914440 -233583,-6914432 -233569,-6914413 -233558,-6914393 -233557,-6914389 -233557,-6914384 -233558,-6914381 -233564,-6914373 -233565,-6914369 -233564,-6914365 -233563,-6914361 -233560,-6914359 -233557,-6914358 -233548,-6914359 -233546,-6914357 -233546,-6914356 -233549,-6914347 -233557,-6914336 -233560,-6914333 -233565,-6914331 -233568,-6914331 -233570,-6914332 -233573,-6914337 -233574,-6914337 -233585,-6914334 -233587,-6914333 -233590,-6914327 -233595,-6914315 -233598,-6914287 -233598,-6914284 -233597,-6914280 -233588,-6914269 -233582,-6914250 -233576,-6914237 -233571,-6914229 -233563,-6914222 -233555,-6914219 -233551,-6914219 -233548,-6914221 -233543,-6914224 -233532,-6914234 -233528,-6914237 -233525,-6914238 -233521,-6914238 -233517,-6914236 -233512,-6914232 -233507,-6914226 -233503,-6914220 -233501,-6914212 -233501,-6914206 -233504,-6914191 -233505,-6914170 -233512,-6914147 -233512,-6914139 -233512,-6914132 -233511,-6914125 -233507,-6914117 -233480,-6914084 -233477,-6914078 -233474,-6914069 -233472,-6914061 -233472,-6914053 -233474,-6914046 -233477,-6914039 -233483,-6914030 -233486,-6914022 -233487,-6914011 -233487,-6914003 -233479,-6913979 -233477,-6913975 -233475,-6913970 -233461,-6913962 -233461,-6913948 -233463,-6913939 -233466,-6913930 -233474,-6913916 -233482,-6913906 -233503,-6913884 -233504,-6913879 -233503,-6913877 -233497,-6913870 -233497,-6913868 -233498,-6913866 -233504,-6913862 -233506,-6913859 -233507,-6913857 -233505,-6913854 -233494,-6913844 -233491,-6913837 -233490,-6913833 -233491,-6913829 -233494,-6913822 -233494,-6913819 -233492,-6913813 -233485,-6913803 -233484,-6913801 -233488,-6913790 -233494,-6913762 -233487,-6913743 -233478,-6913706 -233463,-6913677 -233460,-6913669 -233456,-6913645 -233407,-6913586 -233393,-6913575 -233389,-6913571 -233382,-6913552 -233361,-6913528 -233346,-6913516 -233336,-6913495 -233328,-6913468 -233318,-6913454 -233315,-6913447 -233312,-6913440 -233311,-6913432 -233311,-6913423 -233312,-6913418 -233316,-6913402 -233313,-6913375 -233294,-6913324 -233281,-6913288 -233241,-6913234 -233214,-6913189 -233193,-6913148 -233179,-6913131 -233151,-6913107 -233130,-6913087 -233060,-6913038 -233051,-6913029 -233048,-6913022 -233044,-6913011 -233042,-6913008 -233037,-6913005 -233024,-6912998 -233011,-6912993 -232992,-6912988 -232980,-6912988 -232969,-6912988 -232886,-6913002 -232849,-6912997 -232834,-6913003 -232690,-6912996 -232674,-6912996 -232665,-6912997 -232634,-6913003 -232599,-6913014 -232562,-6913000 -232518,-6912999 -232487,-6912988 -232479,-6912984 -232470,-6912950 -232433,-6912878 -232392,-6912787 -232392,-6912785 -232351,-6912653 -232327,-6912592 -232309,-6912534 -232305,-6912520 -232287,-6912489 -232263,-6912501 -232242,-6912448 -232230,-6912412 -232255,-6912396 -232217,-6912293 -232206,-6912258 -232196,-6912223 -232153,-6912060 -232138,-6912011 -232117,-6911948 -232102,-6911913 -232092,-6911894 -232059,-6911840 -232047,-6911822 -232024,-6911790 -232007,-6911771 -231989,-6911753 -231965,-6911732 -231954,-6911722 -231939,-6911711 -231924,-6911703 -231914,-6911700 -231897,-6911695 -231890,-6911652 -231796,-6911661 -231742,-6911671 -231734,-6911639 -231730,-6911593 -231688,-6911597 -231666,-6911597 -231656,-6911531 -231551,-6911550 -231498,-6911552 -231485,-6911553 -231474,-6911556 -231449,-6911563 -231397,-6911555 -231377,-6911554 -231357,-6911554 -231342,-6911555 -231299,-6911563 -231235,-6911572 -231169,-6911584 -231146,-6911589 -231017,-6911618 -230741,-6911680 -230715,-6911685 -230672,-6911690 -230625,-6911692 -230548,-6911690 -230519,-6911688 -230465,-6911682 -230417,-6911673 -230375,-6911661 -230348,-6911650 -230287,-6911622 -230227,-6911597 -230177,-6911570 -230133,-6911562 -230144,-6911733 -230144,-6911741 -230143,-6911751 -230140,-6911760 -230134,-6911771 -230127,-6911789 -230137,-6911889 -230153,-6912000 -230199,-6912232 -230223,-6912320 -230243,-6912400 -230268,-6912473 -230261,-6912495 -230273,-6912574 -230288,-6912653 -230288,-6912663 -230287,-6912669 -230281,-6912683 -230274,-6912691 -230170,-6912722 -230138,-6912737 -230118,-6912746 -230108,-6912750 -230064,-6912764 -230058,-6912767 -230045,-6912774 -230024,-6912788 -230019,-6912791 -229821,-6912915 -229794,-6912942 -229774,-6913017 -229768,-6913073 -229766,-6913124 -229763,-6913152 -229677,-6913177 -229626,-6913196 -229591,-6913204 -229579,-6913231 -229467,-6913256 -229427,-6913262 -229360,-6913284 -229303,-6913307 -229244,-6913323 -229140,-6913341 -229065,-6913351 -228970,-6913368 -228830,-6913389 -228728,-6913397 -228523,-6913421 -228504,-6913409 -228439,-6913418 -228412,-6913320 -228391,-6913316 -228351,-6913278 -228270,-6913237 -228272,-6913146 -228284,-6913111 -228333,-6912963 -228356,-6912881 -228374,-6912827 -228391,-6912789 -228511,-6912522 -228386,-6912466 -228234,-6912396 -228098,-6912340 -227984,-6912288 -228043,-6912084 -228122,-6911789 -228131,-6911787 -228161,-6911705 -228170,-6911672 -228197,-6911566 -228216,-6911415 -228229,-6911346 -228261,-6911219 -228292,-6911104 -228302,-6911066 -228300,-6911049 -228323,-6911044 -228316,-6911017 -228319,-6910930 -228324,-6910799 -228333,-6910649 -228335,-6910571 -228336,-6910514 -228364,-6910511 -228378,-6910509 -228438,-6910367 -228451,-6910284 -228471,-6910247 -228551,-6910101 -228539,-6910096 -228565,-6909979 -228573,-6909983 -228585,-6909916 -228611,-6909814 -228632,-6909737 -228656,-6909661 -228682,-6909592 -228716,-6909504 -228745,-6909520 -228786,-6909423 -228821,-6909335 -228814,-6909327 -228832,-6909280 -228879,-6909208 -228906,-6909158 -228949,-6909084 -228983,-6909032 -229014,-6909029 -229081,-6908982 -229112,-6908998 -229137,-6909003 -229218,-6908993 -229278,-6908980 -229317,-6908987 -229321,-6908977 -229333,-6908982 -229396,-6908944 -229434,-6908982 -229482,-6908944 -229536,-6908910 -229546,-6908919 -229594,-6908917 -229608,-6908944 -229616,-6908959 -229628,-6908943 -229639,-6908928 -229642,-6908923 -229644,-6908918 -229656,-6908913 -229674,-6908912 -229718,-6908919 -229780,-6908935 -229788,-6908880 -229809,-6908881 -229818,-6908838 -229874,-6908848 -229863,-6908906 -229924,-6908918 -229949,-6908916 -230023,-6908939 -230022,-6908892 -230016,-6908859 -229997,-6908843 -229960,-6908782 -229954,-6908769 -229955,-6908718 -229954,-6908658 -229957,-6908626 -229974,-6908615 -229979,-6908507 -229988,-6908416 -230020,-6908422 -230026,-6908360 -229998,-6908325 -230071,-6908243 -230124,-6908194 -230203,-6908131 -230270,-6908084 -230331,-6908158 -230388,-6908213 -230434,-6908251 -230466,-6908276 -230497,-6908296 -230527,-6908315 -230526,-6908077 -230640,-6907880 -230685,-6907860 -230762,-6907841 -230801,-6907831 -230785,-6907769 -230782,-6907739 -230788,-6907702 -230749,-6907698 -230711,-6907695 -230685,-6907688 -230693,-6907659 -230725,-6907668 -230761,-6907669 -230798,-6907666 -230811,-6907621 -230832,-6907537 -230876,-6907307 -230893,-6907242 -230920,-6907178 -230946,-6907134 -230978,-6907091 -231013,-6907051 -231034,-6907014 -231071,-6906976 -231105,-6906948 -231162,-6906902 -231185,-6906903 -231209,-6906890 -231211,-6906885 -231220,-6906867 -231287,-6906845 -231298,-6906806 -231302,-6906794 -231286,-6906785 -231284,-6906783 -231275,-6906778 -231012,-6906651 -230923,-6906598 -230802,-6906542 -230698,-6906492 -230692,-6906497 -230606,-6906457 -230607,-6906447 -230441,-6906369 -230437,-6906376 -230280,-6906302 -230294,-6906274 -230259,-6906255 -230239,-6906238 -230223,-6906223 -230208,-6906209 -230233,-6906171 -230227,-6906148 -230226,-6906122 -230228,-6906098 -230228,-6906087 -230231,-6906076 -230214,-6906059 -230197,-6906067 -230177,-6906068 -230133,-6906070 -230104,-6906071 -230083,-6906070 -230073,-6906065 -229985,-6905991 -229980,-6905971 -229972,-6905964 -229870,-6905881 -229767,-6905786 -229708,-6905730 -229657,-6905687 -229603,-6905651 -229594,-6905661 -229586,-6905656 -229582,-6905640 -229453,-6905555 -229329,-6905472 -229213,-6905394 -229121,-6905323 -229045,-6905271 -228955,-6905226 -228966,-6905214 -228905,-6905131 -228904,-6905113 -228904,-6905109 -228904,-6905090 -228821,-6905084 -228779,-6905056 -228864,-6904986 -228906,-6904943 -228961,-6904893 -228977,-6904909 -228964,-6904922 -229021,-6904979 -229062,-6904937 -228988,-6904865 -229113,-6904721 -228981,-6904607 -228994,-6904541 -228796,-6904491 -228810,-6904400 -228809,-6904403 -228785,-6904396 -228649,-6904353 -228592,-6904340 -228458,-6904325 -228321,-6904306 -228300,-6904299 -228282,-6904292 -228252,-6904277 -228207,-6904244 -228311,-6904096 -228353,-6904035 -228365,-6904009 -228407,-6903913 -228478,-6903765 -228524,-6903674 -228548,-6903610 -228566,-6903514 -228582,-6903412 -228589,-6903317 -228610,-6903148 -228638,-6903154 -228674,-6903108 -228741,-6903078 -228770,-6903066 -228813,-6903031 -228850,-6903013 -228876,-6903002 -228880,-6902990 -228928,-6902970 -228956,-6902959 -228958,-6902959 -228982,-6902961 -229005,-6902964 -229016,-6902955 -228991,-6902931 -229022,-6902893 -229043,-6902868 -229032,-6902858 -229089,-6902793 -229026,-6902628 -228996,-6902546 -228969,-6902478 -228942,-6902392 -228887,-6902281 -228869,-6902294 -228800,-6902202 -228883,-6902195 -228885,-6902122 -228945,-6902119 -228941,-6902030 -228975,-6902030 -228982,-6902027 -228988,-6902025 -229023,-6901999 -229107,-6901993 -229147,-6902025 -229205,-6901959 -229262,-6901885 -229256,-6901874 -229336,-6901777 -229412,-6901828 -229475,-6901748 -229491,-6901758 -229535,-6901700 -229410,-6901598 -229346,-6901543 -228929,-6901202 -228905,-6901212 -228885,-6901182 -228834,-6901123 -228711,-6901001 -228701,-6901004 -228650,-6900965 -228576,-6900911 -228449,-6900814 -228399,-6900770 -228337,-6900711 -228314,-6900689 -228301,-6900642 -228290,-6900568 -228279,-6900505 -228275,-6900471 -228277,-6900432 -228289,-6900336 -228288,-6900317 -228290,-6900284 -228347,-6900263 -228348,-6900262 -228355,-6900255 -228374,-6900238 -228448,-6900202 -228603,-6900124 -228677,-6900063 -228714,-6900036 -228873,-6899952 -228947,-6899914 -229111,-6899831 -229205,-6899781 -229208,-6899773 -229319,-6899713 -229342,-6899709 -229372,-6899695 -229412,-6899675 -229419,-6899665 -229481,-6899626 -229490,-6899636 -229520,-6899667 -229539,-6899688 -229574,-6899732 -229609,-6899788 -229624,-6899815 -229649,-6899856 -229665,-6899898 -229693,-6899994 -229700,-6899992 -229837,-6899953 -229968,-6899910 -230052,-6899883 -230054,-6899882 -230085,-6899868 -230112,-6899844 -230183,-6899774 -230242,-6899746 -230263,-6899737 -230300,-6899727 -230321,-6899722 -230351,-6899843 -230365,-6899900 -230388,-6899983 -230442,-6900121 -230471,-6900192 -230473,-6900223 -230477,-6900223 -230547,-6900233 -230594,-6900239 -230639,-6900238 -230654,-6900237 -230667,-6900235 -230710,-6900225 -230785,-6900198 -230870,-6900168 -230879,-6900166 -230884,-6900196 -230894,-6900233 -230898,-6900248 -230912,-6900287 -230946,-6900392 -230969,-6900473 -230974,-6900492 -230994,-6900577 -231006,-6900627 -231006,-6900701 -231015,-6900709 -231032,-6900722 -231027,-6900744 -231014,-6900750 -231018,-6900760 -231034,-6900756 -231064,-6900796 -231075,-6900824 -231117,-6900940 -231143,-6901002 -231164,-6901047 -231180,-6901067 -231187,-6901093 -231192,-6901111 -231199,-6901129 -231207,-6901147 -231216,-6901166 -231247,-6901222 -231259,-6901268 -231270,-6901298 -231286,-6901333 -231313,-6901378 -231343,-6901432 -231317,-6901438 -231326,-6901457 -231371,-6901464 -231371,-6901464 -231398,-6901469 -231424,-6901473 -231428,-6901474 -231438,-6901476 -231448,-6901477 -231458,-6901479 -231468,-6901480 -231478,-6901481 -231488,-6901481 -231498,-6901480 -231498,-6901480 -231509,-6901478 -231519,-6901476 -231530,-6901473 -231540,-6901470 -231550,-6901465 -231559,-6901461 -231569,-6901456 -231574,-6901452 -231582,-6901447 -231590,-6901442 -231597,-6901437 -231604,-6901430 -231611,-6901424 -231617,-6901417 -231623,-6901410 -231629,-6901403 -231629,-6901402 -231634,-6901394 -231639,-6901386 -231643,-6901378 -231646,-6901369 -231649,-6901360 -231652,-6901351 -231665,-6901296 -231686,-6901213 -231696,-6901143 -231694,-6901106 -231692,-6901061 -231688,-6901022 -231697,-6900987 -231706,-6900952 -231707,-6900945 -231710,-6900938 -231712,-6900931 -231713,-6900924 -231711,-6900888 -231709,-6900861 -231708,-6900855 -231705,-6900846 -231704,-6900837 -231702,-6900827 -231702,-6900818 -231702,-6900802 -231704,-6900785 -231704,-6900779 -231705,-6900773 -231705,-6900767 -231706,-6900762 -231708,-6900756 -231709,-6900753 -231712,-6900747 -231715,-6900742 -231718,-6900737 -231727,-6900708 -231751,-6900686 -231760,-6900677 -231772,-6900667 -231776,-6900664 -231780,-6900660 -231784,-6900656 -231788,-6900653 -231792,-6900649 -231797,-6900646 -231801,-6900643 -231806,-6900641 -231811,-6900640 -231816,-6900639 -231824,-6900638 -231832,-6900638 -231840,-6900639 -231847,-6900639 -231855,-6900641 -231863,-6900643 -231909,-6900657 -231976,-6900681 -232035,-6900707 -232028,-6900714 -232043,-6900718 -232063,-6900719 -232086,-6900714 -232101,-6900707 -232116,-6900696 -232138,-6900676 -232154,-6900640 -232175,-6900594 -232191,-6900551 -232200,-6900535 -232215,-6900521 -232233,-6900509 -232273,-6900479 -232259,-6900448 -232356,-6900379 -232442,-6900318 -232498,-6900283 -232548,-6900462 -232549,-6900461 -232550,-6900460 -232564,-6900443 -232570,-6900435 -232573,-6900430 -232574,-6900429 -232577,-6900425 -232579,-6900420 -232581,-6900415 -232583,-6900410 -232584,-6900405 -232585,-6900400 -232586,-6900395 -232586,-6900389 -232585,-6900384 -232577,-6900325 -232563,-6900225 -232579,-6900214 -232633,-6900207 -232623,-6900134 -232696,-6900112 -232679,-6900056 -232673,-6900037 -232663,-6899981 -232745,-6899927 -232805,-6899882 -232891,-6899818 -232965,-6899789 -233032,-6899747 -233069,-6899724 -233085,-6899761 -233123,-6899847 -233196,-6899749 -233258,-6899672 -233347,-6899543 -233376,-6899522 -233418,-6899490 -233444,-6899473 -233462,-6899464 -233471,-6899461 -233483,-6899459 -233494,-6899458 -233506,-6899459 -233517,-6899460 -233529,-6899462 -233543,-6899467 -233628,-6899472 -233728,-6899468 -233825,-6899475 -233953,-6899477 -234029,-6899476 -234120,-6899472 -234201,-6899462 -234242,-6899454 -234276,-6899446 -234293,-6899441 -234336,-6899426 -234368,-6899413 -234390,-6899402 -234409,-6899392 -234437,-6899373 -234450,-6899362 -234465,-6899345 -234492,-6899306 -234556,-6899203 -234570,-6899187 -234632,-6899116 -234634,-6899113 -234653,-6899097 -234661,-6899092 -234668,-6899088 -234688,-6899081 -234703,-6899150 -234717,-6899227 -234730,-6899289 -234749,-6899291 -234775,-6899357 -234803,-6899437 -234830,-6899501 -234843,-6899547 -234904,-6899526 -234934,-6899507 -234961,-6899493 -234975,-6899486 -235001,-6899477 -235014,-6899474 -235053,-6899468 -235083,-6899468 -235105,-6899470 -235107,-6899493 -235089,-6899524 -235083,-6899537 -235078,-6899550 -235047,-6899657 -235086,-6899763 -235111,-6899800 -235120,-6899808 -235129,-6899815 -235187,-6899787 -235260,-6899757 -235387,-6899695 -235408,-6899758 -235423,-6899750 -235497,-6899913 -235402,-6899956 -235471,-6900092 -235524,-6900201 -235598,-6900364 -235638,-6900450 -235689,-6900570 -235755,-6900525 -235804,-6900622 -235827,-6900664 -235828,-6900667 -235769,-6900702 -235840,-6900824 -235883,-6900901 -235926,-6900986 -235976,-6901083 -236104,-6901315 -236167,-6901437 -236174,-6901451 -236159,-6901459 -236197,-6901472 -236370,-6901532 -236470,-6901560 -236530,-6901580 -236588,-6901603 -236679,-6901645 -236746,-6901673 -236782,-6901689 -236800,-6901694 -236818,-6901695 -236836,-6901694 -236843,-6901692 -236851,-6901689 -236860,-6901684 -236869,-6901678 -236879,-6901670 -236888,-6901660 -236900,-6901642 -236931,-6901600 -236931,-6901599 -236925,-6901591 -236913,-6901581 -236901,-6901576 -236882,-6901572 -236868,-6901567 -236821,-6901543 -236815,-6901537 -236812,-6901533 -236811,-6901527 -236814,-6901502 -236819,-6901439 -236799,-6901318 -236813,-6901271 -236861,-6901287 -236895,-6901252 -236898,-6901229 -236901,-6901215 -236924,-6901160 -236934,-6901095 -236950,-6901021 -236943,-6901010 -236932,-6901004 -236936,-6900971 -236938,-6900931 -236930,-6900892 -236972,-6900894 -237025,-6900894 -237100,-6900899 -237128,-6900902 -237157,-6900910 -237251,-6900945 -237281,-6900952 -237298,-6900954 -237320,-6900955 -237343,-6900955 -237415,-6900949 -237432,-6900946 -237461,-6900937 -237485,-6900933 -237498,-6900934 -237523,-6900942 -237563,-6900960 -237601,-6900980 -237634,-6901000 -237651,-6901014 -237658,-6901022 -237662,-6901028 -237677,-6901058 -237683,-6901067 -237711,-6901095 -237761,-6901172 -237813,-6901258 -237825,-6901274 -237847,-6901298 -237851,-6901304 -237858,-6901316 -237858,-6901317 -237870,-6901346 -237880,-6901365 -237898,-6901396 -237945,-6901454 -237973,-6901491 -237995,-6901518 -238021,-6901545 -238028,-6901554 -238044,-6901584 -238052,-6901595 -238066,-6901612 -238082,-6901629 -238099,-6901644 -238121,-6901662 -238119,-6901667 -238138,-6901684 -238164,-6901685 -238168,-6901690 -238167,-6901700 -238203,-6901716 -238237,-6901734 -238301,-6901746 -238330,-6901753 -238357,-6901706 -238398,-6901626 -238419,-6901644 -238453,-6901633 -238472,-6901612 -238498,-6901541 -238513,-6901547 -238523,-6901527 -238530,-6901508 -238535,-6901486 -238546,-6901410 -238551,-6901396 -238558,-6901384 -238581,-6901349 -238634,-6901258 -238662,-6901231 -238677,-6901215 -238743,-6901121 -238758,-6901104 -238775,-6901086 -238810,-6901057 -238926,-6901187 -238979,-6901229 -239100,-6901093 -239156,-6901076 -239216,-6901062 -239254,-6901053 -239271,-6901049 -239315,-6901044 -239378,-6901040 -239406,-6901040 -239439,-6901040 -239476,-6901043 -239504,-6901046 -239579,-6901059 -239636,-6901066 -239653,-6901067 -239696,-6901067 -239698,-6901067 -239714,-6900982 -239673,-6900959 -239676,-6900862 -239795,-6900901 -239926,-6900900 -239931,-6900912 -239987,-6900893 -240015,-6900885 -240034,-6900880 -240050,-6900878 -240068,-6900876 -240096,-6900876 -240096,-6900855 -240129,-6900858 -240156,-6900847 -240151,-6900955 -240146,-6901000 -240215,-6901017 -240196,-6901081 -240271,-6901109 -240277,-6901111 -240402,-6901148 -240428,-6901153 -240453,-6901154 -240478,-6901153 -240490,-6901151 -240502,-6901148 -240515,-6901143 -240527,-6901137 -240542,-6901129 -240551,-6901151 -240667,-6901096 -240676,-6901152 -240712,-6901156 -240750,-6901161 -240796,-6901170 -240831,-6901178 -240847,-6901182 -240860,-6901187 -240872,-6901193 -240882,-6901198 -240889,-6901203 -240937,-6901246 -240955,-6901274 -241070,-6901231 -241063,-6901167 -241034,-6901166 -241032,-6901143 -241051,-6901135 -241061,-6901116 -241052,-6901027 -241045,-6900992 -241031,-6900947 -241007,-6900897 -241064,-6900886 -241155,-6900872 -241163,-6900897 -241203,-6900884 -241238,-6900881 -241241,-6900891 -241331,-6900921 -241398,-6900948 -241456,-6900960 -241474,-6901053 -241508,-6901141 -241525,-6901194 -241549,-6901240 -241579,-6901294 -241614,-6901253 -241667,-6901211 -241729,-6901157 -241764,-6901131 -241843,-6901075 -241876,-6901054 -241902,-6901039 -241920,-6901032 -241955,-6901021 -241974,-6901017 -241998,-6901013 -242026,-6901010 -242058,-6901007 -242095,-6901005 -242179,-6900996 -242181,-6901047 -242200,-6901073 -242205,-6901107 -242238,-6901241 -242252,-6901320 -242274,-6901376 -242264,-6901384 -242269,-6901405 -242275,-6901434 -242277,-6901464 -242277,-6901498 -242285,-6901499 -242266,-6901730 -242264,-6901748 -242259,-6901783 -242252,-6901819 -242249,-6901836 -242232,-6901896 -242229,-6901913 -242224,-6901982 -242216,-6901996 -242212,-6902002 -242201,-6902012 -242191,-6902018 -242175,-6902023 -242098,-6902036 -242107,-6902120 -242115,-6902225 -242115,-6902261 -242107,-6902327 -242105,-6902359 -242104,-6902385 -242105,-6902422 -242134,-6902571 -242156,-6902698 -242178,-6902842 -242314,-6902791 -242339,-6902842 -242402,-6902821 -242500,-6902784 -242585,-6902762 -242635,-6902751 -242659,-6902833 -242682,-6902905 -242699,-6902960 -242674,-6902978 -242644,-6903000 -242665,-6903055 -242668,-6903062 -242724,-6903044 -242755,-6903122 -242783,-6903192 -242775,-6903204 -242753,-6903202 -242719,-6903207 -242683,-6903217 -242655,-6903217 -242647,-6903219 -242596,-6903231 -242495,-6903237 -242406,-6903268 -242339,-6903295 -242345,-6903319 -242365,-6903371 -242387,-6903448 -242409,-6903517 -242416,-6903562 -242424,-6903597 -242465,-6903694 -242529,-6903858 -242553,-6903936 -242563,-6903985 -242563,-6903986 -242588,-6904054 -242555,-6904051 -242517,-6904048 -242546,-6904135 -242566,-6904195 -242614,-6904326 -242637,-6904404 -242664,-6904509 -242686,-6904577 -242703,-6904625 -242714,-6904677 -242751,-6904713 -242855,-6904669 -242847,-6904643 -242964,-6904604 -243023,-6904832 -243003,-6904836 -243065,-6905048 -243006,-6905121 -243004,-6905122 -243035,-6905123 -243059,-6905124 -243235,-6904954 -243233,-6904942 -243268,-6904912 -243273,-6904914 -243347,-6904845 -243422,-6904774 -243535,-6904673 -243597,-6904617 -243629,-6904744 -243628,-6904800 -243644,-6904869 -243661,-6904944 -243674,-6905004 -243674,-6905019 -243672,-6905043 -243734,-6905068 -243726,-6905183 -243807,-6905212 -243843,-6905220 -244082,-6905259 -244180,-6905281 -244277,-6905298 -244428,-6905312 -244464,-6905313 -244502,-6905302 -244512,-6905333 -244538,-6905321 -244562,-6905419 -244622,-6905380 -244639,-6905430 -244656,-6905475 -244669,-6905487 -244676,-6905505 -244693,-6905509 -244773,-6905500 -244782,-6905478 -244804,-6905471 -244828,-6905501 -244844,-6905505 -244863,-6905506 -244872,-6905506 -244891,-6905503 -244971,-6905481 -244979,-6905480 -244997,-6905478 -245023,-6905477 -245077,-6905479 -245103,-6905460 -245118,-6905494 -245143,-6905587 -245230,-6905774 -245220,-6905780 -245272,-6905904 -245202,-6905957 -245146,-6905986 -245265,-6906205 -245286,-6906240 -245294,-6906256 -245343,-6906391 -245309,-6906410 -245283,-6906410 -245248,-6906406 -245226,-6906401 -245195,-6906393 -245154,-6906376 -245137,-6906371 -245126,-6906368 -245104,-6906365 -245076,-6906362 -245020,-6906358 -244995,-6906355 -244972,-6906351 -244957,-6906347 -244944,-6906341 -244930,-6906334 -244909,-6906318 -244875,-6906333 -244891,-6906388 -244908,-6906416 -244957,-6906488 -245042,-6906641 -245088,-6906640 -245184,-6906630 -245309,-6906625 -245311,-6906641 -245378,-6906635 -245648,-6906632 -245663,-6906782 -245668,-6906890 -245535,-6906885 -245470,-6906886 -245397,-6906886 -245370,-6906888 -245320,-6906905 -245279,-6906915 -245226,-6906931 -245178,-6906953 -245145,-6906981 -245113,-6907020 -245079,-6907060 -245040,-6907101 -245011,-6907142 -244997,-6907170 -244965,-6907256 -244934,-6907251 -244930,-6907258 -244928,-6907259 -244887,-6907248 -244837,-6907237 -244825,-6907324 -244747,-6907309 -244728,-6907306 -244724,-6907319 -244706,-6907316 -244702,-6907365 -244637,-6907362 -244635,-6907299 -244650,-6907297 -244649,-6907272 -244663,-6907268 -244652,-6907221 -244661,-6907178 -244653,-6907178 -244603,-6907194 -244560,-6907196 -244507,-6907199 -244471,-6907215 -244445,-6907222 -244418,-6907228 -244367,-6907232 -244360,-6907254 -244299,-6907260 -244218,-6907270 -244176,-6907274 -244135,-6907277 -244133,-6907258 -244023,-6907258 -243945,-6907255 -243944,-6907268 -243908,-6907262 -243780,-6907260 -243712,-6907261 -243699,-6907291 -243695,-6907310 -243682,-6907389 -243668,-6907461 -243643,-6907547 -243627,-6907596 -243622,-6907628 -243620,-6907689 -243621,-6907722 -243628,-6907863 -243628,-6907900 -243628,-6907902 -243625,-6907946 -243618,-6907990 -243618,-6908002 -243618,-6908016 -243620,-6908065 -243620,-6908080 -243605,-6908205 -243603,-6908225 -243601,-6908275 -243604,-6908316 -243608,-6908347 -243614,-6908407 -243633,-6908571 -243652,-6908669 -243661,-6908728 -243715,-6908919 -243762,-6909156 -243775,-6909218 -243820,-6909441 -243843,-6909529 -243872,-6909634 -243876,-6909654 -243878,-6909684 -243886,-6909725 -243894,-6909757 -243901,-6909776 -243905,-6909785 -243977,-6909922 -244004,-6909964 -244117,-6909900 -244144,-6909887 -244128,-6909996 -244128,-6910010 -244173,-6910070 -244190,-6910092 -244199,-6910114 -244232,-6910165 -244275,-6910248 -244284,-6910294 -244301,-6910326 -244454,-6910283 -244470,-6910281 -244480,-6910279 -244500,-6910270 -244505,-6910283 -244506,-6910288 -244507,-6910296 -244505,-6910310 -244504,-6910330 -244517,-6910351 -244523,-6910366 -244534,-6910381 -244538,-6910390 -244541,-6910400 -244543,-6910409 -244543,-6910424 -244541,-6910434 -244542,-6910454 -244535,-6910477 -244501,-6910561 -244453,-6910548 -244393,-6910537 -244380,-6910609 -244368,-6910643 -244309,-6910600 -244295,-6910640 -244294,-6910640 -244288,-6910638 -244280,-6910638 -244270,-6910636 -244262,-6910630 -244252,-6910620 -244244,-6910613 -244236,-6910608 -244228,-6910604 -244220,-6910601 -244211,-6910600 -244202,-6910599 -244187,-6910600 -244157,-6910596 -244079,-6910606 -244022,-6910618 -244019,-6910665 -244012,-6910695 -244010,-6910716 -244010,-6910731 -244012,-6910748 -244007,-6910813 -243915,-6910824 -243805,-6910826 -243780,-6910835 -243626,-6910834 -243624,-6910847 -243622,-6910869 -243621,-6910891 -243623,-6910925 -243621,-6910991 -243479,-6911000 -243425,-6910756 -243423,-6910739 -243422,-6910725 -243421,-6910653 -243422,-6910635 -243425,-6910613 -243425,-6910598 -243413,-6910534 -243320,-6910544 -243280,-6910548 -243228,-6910555 -243159,-6910570 -243150,-6910569 -243142,-6910565 -243135,-6910560 -243132,-6910556 -243122,-6910531 -243113,-6910505 -243110,-6910460 -242711,-6910247 -242674,-6910316 -242649,-6910357 -242498,-6910581 -242419,-6910696 -242406,-6910708 -242394,-6910717 -242295,-6910800 -242283,-6910800 -242274,-6910801 -242266,-6910805 -242261,-6910810 -242254,-6910818 -242159,-6910902 -242038,-6911015 -242024,-6911024 -242013,-6911029 -241989,-6911038 -241980,-6911042 -241959,-6911074 -241941,-6911110 -241930,-6911128 -241901,-6911168 -241869,-6911208 -241836,-6911232 -241762,-6911264 -241760,-6911265 -241719,-6911286 -241676,-6911299 -241672,-6911297 -241664,-6911291 -241659,-6911283 -241656,-6911275 -241654,-6911267 -241655,-6911258 -241651,-6911217 -241652,-6911204 -241649,-6911164 -241641,-6911113 -241640,-6911073 -241642,-6911022 -241469,-6911060 -241513,-6911261 -241417,-6911294 -241443,-6911356 -241433,-6911383 -241426,-6911380 -241418,-6911381 -241415,-6911382 -241412,-6911385 -241409,-6911389 -241408,-6911396 -241410,-6911408 -241382,-6911422 -241297,-6911446 -241385,-6911560 -241393,-6911571 -241412,-6911607 -241466,-6911696 -241489,-6911725 -241503,-6911746 -241528,-6911785 -241608,-6911883 -241631,-6911914 -241653,-6911943 -241670,-6911976 -241570,-6912053 -241527,-6912083 -241484,-6912112 -241200,-6912226 -241156,-6912245 -241102,-6912261 -241121,-6912301 -241123,-6912306 -241123,-6912313 -241122,-6912319 -241118,-6912327 -241117,-6912327 -241047,-6912309 -241023,-6912356 -241008,-6912375 -240998,-6912388 -241071,-6912427 -241147,-6912472 -241219,-6912515 -241299,-6912562 -241395,-6912622 -241510,-6912690 -241497,-6912694 -241482,-6912694 -241478,-6912693 -241474,-6912692 -241470,-6912692 -241465,-6912692 -241463,-6912692 -241460,-6912692 -241457,-6912693 -241456,-6912693 -241453,-6912694 -241451,-6912695 -241449,-6912697 -241447,-6912698 -241445,-6912700 -241444,-6912703 -241442,-6912705 -241380,-6912830 -241380,-6912835 -241420,-6912869 -241415,-6912913 -241415,-6912914 -241413,-6912927 -241411,-6912940 -241407,-6912953 -241406,-6912959 -241404,-6912967 -241401,-6912975 -241398,-6912982 -241395,-6912990 -241392,-6912995 -241388,-6913001 -241384,-6913007 -241379,-6913013 -241374,-6913018 -241369,-6913023 -241363,-6913028 -241357,-6913032 -241351,-6913035 -241314,-6913061 -241298,-6913070 -241284,-6913090 -241136,-6912982 -240963,-6912854 -240642,-6912855 -240665,-6912920 -240684,-6912973 -240705,-6913030 -240716,-6913087 -240737,-6913163 -240760,-6913239 -240711,-6913255 -240633,-6913280 -240615,-6913287 -240558,-6913308 -240548,-6913312 -240534,-6913317 -240521,-6913322 -240508,-6913328 -240495,-6913334 -240482,-6913343 -240457,-6913361 -240433,-6913381 -240409,-6913400 -240387,-6913420 -240386,-6913421 -240331,-6913482 -240323,-6913490 -240309,-6913504 -240276,-6913533 -240252,-6913554 -240215,-6913583 -240178,-6913611 -240170,-6913618 -240145,-6913636 -240120,-6913653 -240094,-6913670 -240067,-6913686 -240067,-6913686 -240039,-6913701 -240010,-6913716 -239981,-6913729 -239952,-6913741 -239936,-6913747 -239905,-6913758 -239875,-6913767 -239793,-6913789 -239667,-6913821 -239509,-6913857 -239531,-6913941 -239579,-6914134 -239590,-6914210 -239607,-6914331 -239620,-6914361 -239662,-6914387 -239665,-6914395 -239670,-6914410 -239673,-6914423 -239674,-6914436 -239675,-6914500 -239668,-6914803 -239461,-6914799 -239244,-6914802 -239063,-6914806 -238760,-6914822 -238446,-6914827 -238353,-6914833 -238321,-6914834 -238255,-6914834 -238229,-6914834 -238160,-6914829 -238110,-6914822 -238081,-6914817 -238047,-6914809 -237916,-6914784 -237789,-6915062 -237778,-6915102 -237714,-6915248 -237676,-6915332 -237668,-6915348 -237650,-6915379 -237634,-6915402 -237610,-6915430 -237547,-6915500 -237491,-6915538 -237426,-6915618 -237380,-6915682 -237338,-6915734 -237317,-6915769 -237302,-6915798 -237282,-6915839 -237273,-6915865 -237268,-6915895 -237266,-6915932 -237267,-6915957 -237283,-6916074 -237299,-6916147 -237302,-6916177 -237300,-6916210 -237293,-6916247 -237160,-6916253 -237102,-6916256 -237039,-6916253 -236962,-6916247 -236889,-6916239 -236815,-6916229 -236773,-6916227 -236727,-6916210 -236690,-6916193 -236662,-6916180 -236578,-6916198 -236430,-6916207 -236331,-6916217 -236213,-6916230 -236108,-6916239 -236013,-6916246 -235900,-6916256 -235802,-6916262 -235796,-6916263 -235662,-6916219 -235564,-6916282 -235307,-6916300" stroke="#003087" stroke-width="34" /></svg>