<?xml version="1.0" standalone="no"?>
<!DOCTYPE svg PUBLIC "-//W3C//DTD SVG 1.1//EN"
"http://www.w3.org/Graphics/SVG/1.1/DTD/svg11.dtd">
<svg height="115" version="1.1" viewBox="-292616 -7103404 32464 23096" width="220" xmlns="http://www.w3.org/2000/svg"><polygon fill="#003087" points=" -270950,-7102729 -270801,-7102528 -270788,-7102493 -270780,-7102472 -270775,-7102461 -270754,-7102422 -270748,-7102409 -270735,-7102353 -270725,-7102316 -270714,-7102292 -270693,-7102257 -270685,-7102239 -270680,-7102221 -270666,-7102168 -270612,-7102046 -270590,-7102000 -270579,-7101980 -270570,-7101967 -270557,-7101948 -270543,-7101929 -270475,-7101854 -270347,-7101698 -270281,-7101612 -270197,-7101496 -270107,-7101377 -270077,-7101332 -270075,-7101277 -270070,-7101208 -270066,-7101075 -270066,-7100814 -270049,-7100804 -270052,-7100779 -270063,-7100725 -270064,-7100538 -270064,-7100367 -270051,-7100203 -270049,-7100090 -270048,-7100054 -270054,-7100051 -270063,-7099997 -270070,-7099927 -270073,-7099870 -270083,-7099780 -270100,-7099737 -270076,-7099687 -270043,-7099632 -270044,-7099614 -269988,-7099600 -269906,-7099555 -269766,-7099416 -269582,-7099234 -269520,-7099218 -269430,-7099200 -269385,-7099192 -269282,-7099186 -269182,-7099190 -269108,-7099197 -269041,-7099202 -269013,-7099204 -268974,-7099208 -268954,-7099218 -268873,-7099269 -268758,-7099355 -268706,-7099394 -268586,-7099417 -268471,-7099436 -268260,-7099527 -268179,-7099535 -268119,-7099537 -268037,-7099527 -267843,-7099494 -267765,-7099480 -267755,-7099478 -267718,-7099474 -267672,-7099469 -267661,-7099464 -267646,-7099453 -267638,-7099443 -267633,-7099430 -267620,-7099388 -267615,-7099378 -267608,-7099367 -267597,-7099356 -267589,-7099351 -267579,-7099346 -267561,-7099341 -267537,-7099336 -267508,-7099333 -267430,-7099340 -267405,-7099378 -267383,-7099383 -267358,-7099391 -267344,-7099394 -267331,-7099394 -267321,-7099391 -267308,-7099383 -267301,-7099378 -267291,-7099562 -267285,-7099610 -267258,-7099613 -267242,-7099660 -267236,-7099685 -267230,-7099710 -267219,-7099787 -267209,-7099832 -267189,-7099899 -267178,-7099945 -267175,-7099962 -267172,-7100025 -267168,-7100068 -267167,-7100091 -267169,-7100106 -267188,-7100173 -267195,-7100194 -267255,-7100215 -267225,-7100262 -267205,-7100304 -267182,-7100384 -267152,-7100462 -267150,-7100465 -267105,-7100556 -267025,-7100711 -266990,-7100752 -266926,-7100806 -266893,-7100800 -266858,-7100807 -266746,-7100820 -266220,-7100883 -265748,-7100936 -265602,-7100957 -265522,-7100773 -265507,-7100746 -265498,-7100733 -265484,-7100716 -265473,-7100703 -265461,-7100693 -265444,-7100681 -265405,-7100655 -265366,-7100633 -265349,-7100625 -265333,-7100618 -265320,-7100615 -265289,-7100610 -265274,-7100609 -265227,-7100609 -265206,-7100611 -265148,-7100622 -265137,-7100623 -265118,-7100623 -265104,-7100622 -265087,-7100619 -265064,-7100614 -265048,-7100609 -265018,-7100596 -264988,-7100578 -264957,-7100568 -264909,-7100561 -264886,-7100555 -264843,-7100555 -264831,-7100487 -264834,-7100428 -264840,-7100407 -264848,-7100389 -264854,-7100340 -264859,-7100285 -264861,-7100259 -264863,-7100204 -264870,-7100159 -264868,-7100107 -264864,-7100030 -264858,-7099984 -264841,-7099861 -264833,-7099836 -264845,-7099827 -264861,-7099831 -264882,-7099841 -264904,-7099835 -265071,-7099892 -265176,-7099773 -265271,-7099670 -265258,-7099656 -265325,-7099555 -265262,-7099497 -265228,-7099472 -265177,-7099431 -265113,-7099373 -265079,-7099346 -265028,-7099320 -264948,-7099275 -264868,-7099248 -264744,-7099125 -264742,-7099115 -264720,-7099129 -264705,-7099106 -264661,-7099038 -264631,-7098992 -264622,-7098988 -264612,-7098978 -264603,-7098980 -264585,-7098902 -264578,-7098904 -264535,-7098905 -264535,-7098896 -264639,-7098874 -264634,-7098849 -264604,-7098786 -264585,-7098738 -264692,-7098724 -264718,-7098715 -264739,-7098695 -264740,-7098683 -264904,-7098668 -264877,-7098570 -264862,-7098571 -264838,-7098584 -264819,-7098589 -264784,-7098589 -264750,-7098601 -264717,-7098609 -264678,-7098612 -264602,-7098447 -264531,-7098294 -264541,-7098286 -264520,-7098240 -264497,-7098181 -264488,-7098182 -264423,-7098224 -264375,-7098146 -264529,-7098044 -264426,-7097979 -264408,-7097971 -264398,-7097960 -264386,-7097964 -264350,-7097888 -264309,-7097820 -264293,-7097799 -264272,-7097786 -264179,-7097749 -264115,-7097736 -264073,-7097726 -263963,-7097692 -263872,-7097670 -263762,-7097624 -263742,-7097641 -263667,-7097679 -263579,-7097538 -263525,-7097451 -263455,-7097333 -263391,-7097231 -263301,-7097080 -263273,-7097038 -263226,-7096958 -263201,-7096921 -263145,-7096839 -263047,-7096695 -263073,-7096672 -263098,-7096642 -263219,-7096459 -263177,-7096361 -263133,-7096255 -263119,-7096223 -263120,-7096210 -263126,-7096199 -263146,-7096156 -263150,-7096130 -263152,-7096061 -263163,-7096015 -263154,-7095999 -263152,-7095981 -263147,-7095971 -263129,-7095967 -263128,-7095950 -263123,-7095901 -263137,-7095878 -263150,-7095855 -263162,-7095822 -263174,-7095806 -263177,-7095782 -263194,-7095721 -263209,-7095644 -263219,-7095633 -263247,-7095612 -263257,-7095595 -263281,-7095572 -263286,-7095562 -263284,-7095549 -263273,-7095523 -263264,-7095511 -263279,-7095454 -263260,-7095441 -263249,-7095420 -263238,-7095403 -263234,-7095382 -263234,-7095332 -263227,-7095326 -263233,-7095312 -263244,-7095292 -263255,-7095280 -263302,-7095263 -263309,-7095251 -263331,-7095234 -263352,-7095207 -263357,-7095194 -263352,-7095182 -263378,-7095163 -263417,-7095122 -263417,-7095118 -263417,-7095116 -263419,-7095104 -263420,-7095077 -263427,-7095061 -263420,-7095048 -263420,-7095031 -263424,-7095011 -263429,-7095000 -263430,-7094990 -263425,-7094983 -263428,-7094969 -263444,-7094945 -263451,-7094939 -263456,-7094923 -263458,-7094910 -263458,-7094896 -263452,-7094884 -263451,-7094877 -263459,-7094866 -263458,-7094839 -263474,-7094820 -263474,-7094805 -263471,-7094787 -263481,-7094778 -263484,-7094768 -263491,-7094755 -263505,-7094746 -263521,-7094729 -263528,-7094732 -263538,-7094732 -263545,-7094723 -263545,-7094713 -263538,-7094705 -263537,-7094700 -263530,-7094696 -263541,-7094684 -263552,-7094669 -263570,-7094668 -263581,-7094657 -263601,-7094603 -263599,-7094596 -263590,-7094591 -263589,-7094579 -263596,-7094561 -263611,-7094545 -263627,-7094537 -263640,-7094525 -263647,-7094513 -263650,-7094485 -263669,-7094466 -263676,-7094456 -263676,-7094445 -263672,-7094419 -263661,-7094407 -263658,-7094383 -263667,-7094374 -263681,-7094350 -263692,-7094342 -263704,-7094323 -263708,-7094319 -263714,-7094319 -263721,-7094316 -263735,-7094305 -263750,-7094285 -263766,-7094277 -263741,-7094221 -263738,-7094208 -263737,-7094174 -263726,-7094157 -263714,-7094144 -263707,-7094144 -263657,-7094090 -263650,-7094073 -263644,-7094030 -263647,-7094023 -263648,-7094022 -263657,-7094002 -263664,-7093987 -263675,-7093961 -263685,-7093942 -263712,-7093920 -263734,-7093918 -263750,-7093905 -263748,-7093903 -263792,-7093867 -263808,-7093862 -263884,-7093820 -263895,-7093812 -263903,-7093794 -263914,-7093793 -263930,-7093788 -263928,-7093783 -263949,-7093771 -263960,-7093768 -263974,-7093751 -263983,-7093745 -264007,-7093745 -264033,-7093728 -264042,-7093720 -264059,-7093717 -264070,-7093704 -264083,-7093691 -264097,-7093692 -264100,-7093694 -264108,-7093694 -264122,-7093682 -264134,-7093667 -264155,-7093660 -264152,-7093641 -264163,-7093638 -264195,-7093639 -264196,-7093629 -264205,-7093612 -264242,-7093607 -264252,-7093605 -264265,-7093599 -264281,-7093588 -264325,-7093588 -264333,-7093576 -264377,-7093555 -264405,-7093559 -264415,-7093564 -264436,-7093559 -264454,-7093550 -264470,-7093544 -264484,-7093544 -264507,-7093537 -264518,-7093538 -264531,-7093531 -264552,-7093530 -264571,-7093516 -264595,-7093502 -264594,-7093492 -264587,-7093465 -264612,-7093433 -264598,-7093423 -264591,-7093421 -264594,-7093382 -264579,-7093362 -264576,-7093356 -264575,-7093335 -264558,-7093303 -264542,-7093294 -264533,-7093287 -264534,-7093260 -264540,-7093247 -264540,-7093238 -264536,-7093232 -264513,-7093225 -264506,-7093208 -264495,-7093184 -264485,-7093179 -264482,-7093172 -264491,-7093142 -264506,-7093119 -264464,-7093089 -264460,-7093097 -264455,-7093104 -264445,-7093102 -264440,-7093095 -264433,-7093074 -264422,-7093068 -264406,-7093069 -264384,-7093053 -264367,-7093035 -264368,-7092991 -264359,-7092985 -264340,-7092975 -264344,-7092968 -264361,-7092951 -264362,-7092949 -264372,-7092908 -264367,-7092897 -264381,-7092884 -264382,-7092883 -264379,-7092857 -264381,-7092850 -264383,-7092838 -264389,-7092819 -264401,-7092804 -264424,-7092786 -264441,-7092782 -264471,-7092783 -264478,-7092777 -264480,-7092771 -264485,-7092739 -264499,-7092728 -264515,-7092723 -264519,-7092703 -264526,-7092693 -264550,-7092667 -264554,-7092630 -264554,-7092616 -264548,-7092603 -264538,-7092591 -264537,-7092575 -264561,-7092556 -264559,-7092521 -264564,-7092483 -264561,-7092475 -264545,-7092456 -264538,-7092455 -264516,-7092470 -264511,-7092468 -264510,-7092456 -264515,-7092448 -264520,-7092441 -264518,-7092432 -264510,-7092416 -264513,-7092400 -264506,-7092384 -264505,-7092345 -264494,-7092305 -264495,-7092244 -264479,-7092189 -264455,-7092135 -264428,-7092119 -264417,-7092119 -264422,-7092084 -264427,-7092045 -264439,-7092002 -264457,-7091985 -264463,-7091965 -264460,-7091929 -264440,-7091854 -264432,-7091790 -264445,-7091768 -264452,-7091712 -264472,-7091665 -264485,-7091634 -264501,-7091620 -264506,-7091611 -264510,-7091593 -264507,-7091537 -264500,-7091518 -264494,-7091504 -264493,-7091497 -264495,-7091464 -264503,-7091453 -264561,-7091401 -264566,-7091391 -264565,-7091373 -264535,-7091310 -264524,-7091311 -264497,-7091261 -264475,-7091253 -264465,-7091235 -264469,-7091218 -264461,-7091192 -264440,-7091179 -264411,-7091104 -264400,-7091094 -264387,-7091092 -264376,-7091086 -264327,-7091046 -264326,-7091041 -264347,-7090999 -264347,-7090957 -264333,-7090916 -264333,-7090894 -264341,-7090858 -264357,-7090787 -264354,-7090759 -264350,-7090733 -264344,-7090713 -264343,-7090684 -264354,-7090666 -264361,-7090652 -264365,-7090647 -264362,-7090625 -264352,-7090596 -264335,-7090587 -264328,-7090579 -264327,-7090565 -264337,-7090552 -264338,-7090538 -264332,-7090503 -264326,-7090504 -264315,-7090506 -264292,-7090508 -264273,-7090491 -264250,-7090466 -264243,-7090450 -264262,-7090435 -264259,-7090422 -264247,-7090408 -264236,-7090387 -264218,-7090350 -264219,-7090334 -264237,-7090320 -264238,-7090308 -264226,-7090304 -264213,-7090270 -264207,-7090234 -264190,-7090214 -264195,-7090184 -264200,-7090170 -264208,-7090160 -264209,-7090128 -264199,-7090108 -264195,-7090070 -264188,-7090040 -264181,-7089937 -264177,-7089903 -264187,-7089872 -264164,-7089858 -264122,-7089864 -264111,-7089861 -264106,-7089851 -264108,-7089839 -264137,-7089810 -264137,-7089735 -264121,-7089693 -264118,-7089668 -264127,-7089652 -264141,-7089639 -264186,-7089603 -264196,-7089565 -264205,-7089550 -264214,-7089547 -264242,-7089542 -264256,-7089527 -264248,-7089485 -264249,-7089448 -264266,-7089425 -264269,-7089417 -264270,-7089411 -264273,-7089399 -264264,-7089352 -264264,-7089341 -264270,-7089323 -264271,-7089293 -264266,-7089284 -264260,-7089279 -264250,-7089277 -264241,-7089269 -264238,-7089261 -264240,-7089258 -264244,-7089257 -264250,-7089245 -264260,-7089236 -264233,-7089202 -264214,-7089213 -264193,-7089218 -264170,-7089218 -264118,-7089230 -264104,-7089244 -264077,-7089241 -264056,-7089247 -264038,-7089248 -264029,-7089254 -264015,-7089261 -264004,-7089265 -263956,-7089261 -263943,-7089272 -263933,-7089274 -263900,-7089256 -263867,-7089256 -263816,-7089234 -263776,-7089222 -263726,-7089190 -263718,-7089176 -263707,-7089139 -263699,-7089105 -263675,-7089080 -263641,-7089037 -263624,-7089016 -263589,-7088982 -263563,-7088978 -263537,-7088965 -263506,-7088940 -263451,-7088887 -263420,-7088856 -263375,-7088840 -263337,-7088838 -263321,-7088831 -263314,-7088831 -263298,-7088839 -263266,-7088837 -263249,-7088838 -263232,-7088838 -263211,-7088833 -263121,-7088815 -263075,-7088812 -263050,-7088812 -262932,-7088798 -262892,-7088800 -262824,-7088813 -262779,-7088704 -262760,-7088666 -262748,-7088629 -262703,-7088530 -262693,-7088505 -262682,-7088491 -262677,-7088465 -262661,-7088441 -262646,-7088395 -262623,-7088350 -262529,-7088140 -262511,-7088093 -262489,-7088042 -262489,-7087995 -262488,-7087992 -262439,-7087862 -262419,-7087869 -262415,-7087871 -262408,-7087857 -262400,-7087829 -262400,-7087828 -262358,-7087738 -262331,-7087660 -262294,-7087527 -262292,-7087518 -262292,-7087513 -262292,-7087498 -262272,-7087387 -262270,-7087326 -262280,-7087232 -262288,-7087171 -262306,-7087118 -262320,-7087085 -262347,-7087045 -262364,-7087004 -262369,-7086992 -262369,-7086976 -262369,-7086969 -262372,-7086957 -262375,-7086941 -262396,-7086902 -262395,-7086875 -262411,-7086861 -262407,-7086857 -262326,-7086779 -262313,-7086743 -262284,-7086712 -262259,-7086643 -262279,-7086629 -262290,-7086620 -262301,-7086609 -262311,-7086597 -262320,-7086583 -262330,-7086566 -262337,-7086548 -262341,-7086537 -262342,-7086532 -262344,-7086514 -262353,-7086395 -262357,-7086360 -262360,-7086340 -262375,-7086249 -262382,-7086226 -262387,-7086209 -262432,-7086107 -262440,-7086092 -262450,-7086075 -262463,-7086059 -262481,-7086038 -262499,-7086017 -262524,-7085993 -262600,-7085938 -262626,-7085924 -262643,-7085917 -262658,-7085913 -262670,-7085911 -262681,-7085911 -262691,-7085912 -262704,-7085915 -262717,-7085920 -262729,-7085927 -262741,-7085934 -262752,-7085942 -262773,-7085961 -262822,-7086019 -262826,-7086027 -262834,-7086042 -262841,-7086060 -262847,-7086081 -262857,-7086130 -262863,-7086165 -262869,-7086252 -262875,-7086366 -262878,-7086417 -262892,-7086450 -262923,-7086514 -262927,-7086519 -262934,-7086525 -262942,-7086530 -262957,-7086534 -262981,-7086534 -263001,-7086532 -263019,-7086526 -263037,-7086516 -263041,-7086513 -263073,-7086485 -263088,-7086473 -263150,-7086413 -263190,-7086369 -263200,-7086358 -263288,-7086198 -263357,-7086095 -263365,-7086085 -263375,-7086073 -263390,-7086059 -263404,-7086047 -263431,-7086029 -263461,-7086015 -263497,-7086004 -263516,-7086001 -263538,-7085998 -263561,-7085997 -263586,-7085999 -263608,-7086002 -263627,-7086006 -263645,-7086012 -263670,-7086024 -263757,-7086077 -263834,-7086138 -263876,-7086153 -264001,-7086192 -264012,-7086195 -264024,-7086197 -264036,-7086197 -264050,-7086195 -264077,-7086188 -264145,-7086160 -264226,-7086121 -263777,-7085852 -263517,-7085700 -262973,-7085640 -262984,-7085473 -262806,-7085433 -262586,-7085354 -262454,-7085314 -262353,-7085287 -262253,-7085261 -262066,-7085130 -262029,-7085106 -261991,-7085083 -261951,-7085061 -261910,-7085041 -261869,-7085022 -261810,-7084997 -261743,-7084970 -261608,-7084962 -261540,-7084953 -261517,-7084949 -261463,-7084938 -261409,-7084924 -261364,-7084908 -261327,-7084892 -261207,-7084802 -261143,-7084745 -261091,-7084702 -260959,-7084574 -260957,-7084571 -260943,-7084545 -260916,-7084501 -260712,-7084596 -260652,-7084616 -260666,-7084458 -260668,-7084379 -260679,-7084247 -260686,-7084172 -260686,-7084121 -260679,-7084023 -260677,-7083958 -260671,-7083915 -260654,-7083826 -260653,-7083821 -260639,-7083765 -260615,-7083734 -260595,-7083723 -260561,-7083617 -260531,-7083546 -260504,-7083485 -260487,-7083434 -260411,-7083330 -260351,-7083233 -260353,-7083197 -260347,-7083172 -260339,-7083152 -260322,-7083135 -260252,-7083135 -260188,-7083051 -260190,-7083000 -260177,-7082984 -260189,-7082982 -260205,-7082969 -260218,-7082965 -260235,-7082956 -260222,-7082939 -260218,-7082926 -260213,-7082904 -260204,-7082898 -260202,-7082889 -260213,-7082883 -260211,-7082875 -260185,-7082851 -260173,-7082817 -260176,-7082802 -260170,-7082785 -260162,-7082772 -260158,-7082751 -260152,-7082729 -260152,-7082709 -260165,-7082686 -260164,-7082614 -260170,-7082596 -260185,-7082577 -260186,-7082559 -260197,-7082543 -260199,-7082534 -260182,-7082531 -260177,-7082522 -260180,-7082501 -260186,-7082491 -260199,-7082490 -260218,-7082494 -260231,-7082495 -260237,-7082487 -260248,-7082443 -260286,-7082318 -260291,-7082324 -260363,-7082420 -260422,-7082498 -260465,-7082550 -260513,-7082597 -260576,-7082652 -260634,-7082718 -260646,-7082740 -260674,-7082816 -260697,-7082843 -260763,-7082889 -260818,-7082919 -261053,-7083007 -261147,-7083037 -261188,-7083043 -261239,-7083039 -261284,-7083039 -261369,-7083037 -261397,-7083032 -261419,-7083021 -261445,-7082998 -261461,-7082963 -261476,-7082938 -261475,-7082930 -261475,-7082919 -261473,-7082909 -261470,-7082899 -261461,-7082889 -261446,-7082870 -261394,-7082822 -261389,-7082816 -261384,-7082811 -261378,-7082799 -261376,-7082775 -261384,-7082758 -261413,-7082728 -261448,-7082702 -261475,-7082693 -261523,-7082684 -261568,-7082684 -261608,-7082685 -261721,-7082708 -261759,-7082718 -261789,-7082675 -261838,-7082600 -261843,-7082594 -261855,-7082593 -261961,-7082607 -262007,-7082583 -262012,-7082588 -262016,-7082547 -262019,-7082525 -261938,-7082491 -261886,-7082458 -261837,-7082433 -261876,-7082371 -261899,-7082332 -261975,-7082371 -262031,-7082374 -262055,-7082325 -262089,-7082234 -262118,-7082156 -262047,-7082137 -261961,-7082106 -261926,-7082085 -261907,-7082077 -261938,-7081979 -261950,-7081934 -261962,-7081887 -261907,-7081877 -261912,-7081835 -261924,-7081797 -261929,-7081753 -261981,-7081760 -261994,-7081682 -261952,-7081668 -261942,-7081659 -261931,-7081661 -261933,-7081651 -261831,-7081617 -261832,-7081612 -261782,-7081598 -261779,-7081606 -261768,-7081602 -261767,-7081606 -261686,-7081578 -261704,-7081562 -261723,-7081530 -261761,-7081486 -261792,-7081449 -261839,-7081379 -261914,-7081249 -261917,-7081246 -261922,-7081239 -262089,-7080937 -262092,-7080938 -262445,-7081067 -263048,-7081287 -263259,-7081362 -263399,-7081412 -263611,-7081493 -263641,-7081408 -263654,-7081364 -263670,-7081304 -263721,-7081340 -263818,-7081392 -263877,-7081423 -264027,-7081472 -264195,-7081521 -264390,-7081579 -264431,-7081591 -264472,-7081604 -264610,-7081643 -264795,-7081696 -264912,-7081726 -265074,-7081770 -265232,-7081813 -265326,-7081843 -265414,-7081877 -265539,-7081927 -265594,-7081955 -265676,-7082001 -265708,-7082022 -265747,-7082040 -265797,-7082078 -265903,-7082152 -265973,-7082220 -266041,-7082288 -266059,-7082307 -266119,-7082376 -266163,-7082430 -266204,-7082486 -266256,-7082566 -266305,-7082644 -266319,-7082667 -266384,-7082762 -266440,-7082840 -266497,-7082899 -266569,-7082961 -266690,-7083048 -266736,-7083076 -266798,-7083103 -266852,-7083121 -266972,-7083161 -266976,-7083162 -266995,-7083199 -267016,-7083206 -267048,-7083216 -267148,-7083242 -267178,-7083248 -267198,-7083252 -267229,-7083257 -267331,-7083272 -267421,-7083274 -267422,-7083228 -267691,-7083215 -267722,-7083213 -267821,-7083212 -267840,-7083212 -267939,-7083226 -267989,-7083219 -268034,-7083204 -268143,-7083197 -268291,-7083200 -268294,-7083200 -268293,-7083234 -268293,-7083235 -268312,-7083236 -268318,-7083237 -268342,-7083240 -268400,-7083248 -268482,-7083267 -268602,-7083299 -268743,-7083354 -268803,-7083384 -268949,-7083461 -268994,-7083484 -269127,-7083552 -269233,-7083600 -269380,-7083654 -269426,-7083667 -269465,-7083679 -269546,-7083699 -269553,-7083701 -269553,-7083652 -269742,-7083705 -269842,-7083708 -269921,-7083709 -269920,-7083713 -269998,-7083716 -269998,-7083741 -270123,-7083738 -270254,-7083744 -270395,-7083753 -270467,-7083756 -270466,-7083760 -270479,-7083758 -270718,-7083790 -270920,-7083831 -271045,-7083859 -271142,-7083884 -271148,-7083886 -271229,-7083907 -271301,-7083936 -271307,-7083915 -271308,-7083915 -271373,-7083675 -271394,-7083583 -271396,-7083574 -271408,-7083521 -271435,-7083499 -271446,-7083474 -271456,-7083458 -271471,-7083452 -271484,-7083448 -271571,-7083431 -271583,-7083423 -271595,-7083415 -271606,-7083405 -271616,-7083395 -271633,-7083375 -271661,-7083334 -271673,-7083311 -271677,-7083306 -271719,-7083280 -271728,-7083270 -271726,-7083231 -271726,-7083220 -271729,-7083208 -271733,-7083195 -271755,-7083147 -271763,-7083102 -271768,-7083085 -271773,-7083070 -271784,-7083046 -271784,-7083036 -271801,-7083001 -271810,-7082969 -271815,-7082953 -271815,-7082952 -271817,-7082942 -271819,-7082892 -271821,-7082875 -271828,-7082857 -271828,-7082855 -271835,-7082834 -271838,-7082791 -271799,-7082703 -271784,-7082646 -271758,-7082608 -271772,-7082554 -271778,-7082483 -271783,-7082457 -271794,-7082440 -271798,-7082437 -271814,-7082428 -271823,-7082420 -271825,-7082387 -271827,-7082375 -271832,-7082353 -271839,-7082334 -271843,-7082326 -271847,-7082322 -271851,-7082318 -271860,-7082314 -271861,-7082314 -271870,-7082338 -271894,-7082329 -271884,-7082280 -271922,-7082260 -271935,-7082202 -271950,-7082164 -271980,-7082125 -271981,-7082106 -271968,-7082087 -271965,-7082081 -271978,-7082072 -272015,-7082064 -272017,-7082061 -272032,-7082041 -272042,-7082024 -272046,-7081978 -272050,-7081961 -272070,-7081944 -272092,-7081937 -272104,-7081930 -272114,-7081892 -272134,-7081853 -272132,-7081814 -272146,-7081807 -272167,-7081802 -272171,-7081800 -272206,-7081746 -272214,-7081737 -272238,-7081723 -272243,-7081719 -272250,-7081701 -272261,-7081685 -272310,-7081688 -272320,-7081670 -272337,-7081633 -272348,-7081620 -272367,-7081607 -272373,-7081600 -272383,-7081572 -272397,-7081562 -272409,-7081557 -272448,-7081553 -272465,-7081543 -272488,-7081523 -272492,-7081492 -272505,-7081474 -272509,-7081464 -272504,-7081432 -272517,-7081398 -272516,-7081346 -272513,-7081319 -272510,-7081300 -272524,-7081287 -272564,-7081307 -272619,-7081307 -272714,-7081334 -272765,-7081346 -272824,-7081375 -272854,-7081380 -272879,-7081394 -272945,-7081419 -273020,-7081439 -273076,-7081459 -273148,-7081477 -273231,-7081501 -273279,-7081520 -273348,-7081521 -273382,-7081526 -273399,-7081530 -273529,-7081580 -273556,-7081595 -273604,-7081613 -273638,-7081629 -273673,-7081650 -273709,-7081657 -273713,-7081658 -273715,-7081665 -273762,-7081677 -273836,-7081706 -273874,-7081720 -273902,-7081727 -273957,-7081735 -273985,-7081749 -274014,-7081770 -274039,-7081761 -274060,-7081771 -274094,-7081777 -274118,-7081769 -274160,-7081772 -274194,-7081777 -274240,-7081774 -274274,-7081772 -274302,-7081762 -274301,-7081767 -274347,-7081773 -274412,-7081778 -274522,-7081772 -274560,-7081825 -274651,-7081877 -274719,-7081915 -274741,-7081945 -274778,-7081970 -274803,-7081984 -274854,-7082002 -274876,-7082009 -274896,-7082018 -274944,-7082030 -274944,-7082025 -274983,-7082024 -275030,-7082004 -275065,-7081999 -275066,-7082005 -275101,-7081991 -275126,-7081968 -275135,-7081964 -275152,-7081960 -275203,-7081963 -275228,-7081967 -275241,-7081972 -275257,-7081981 -275283,-7081998 -275306,-7082013 -275309,-7082002 -275409,-7082045 -275402,-7082089 -275404,-7082090 -275422,-7082099 -275471,-7082122 -275518,-7082141 -275519,-7082142 -275533,-7082142 -275648,-7082187 -275786,-7082253 -275815,-7082268 -275842,-7082276 -275871,-7082285 -275892,-7082304 -275926,-7082298 -275965,-7082302 -276072,-7082291 -276096,-7082284 -276143,-7082279 -276196,-7082279 -276226,-7082281 -276256,-7082280 -276287,-7082283 -276326,-7082285 -276359,-7082290 -276408,-7082301 -276545,-7082327 -276601,-7082343 -276660,-7082366 -276807,-7082401 -276861,-7082415 -276925,-7082435 -277050,-7082488 -277108,-7082499 -277151,-7082501 -277154,-7082508 -277155,-7082565 -277165,-7082589 -277183,-7082602 -277196,-7082615 -277205,-7082638 -277203,-7082685 -277271,-7082703 -277312,-7082702 -277340,-7082715 -277376,-7082722 -277394,-7082735 -277406,-7082749 -277433,-7082764 -277491,-7082774 -277524,-7082778 -277538,-7082779 -277562,-7082784 -277585,-7082784 -277744,-7082828 -277905,-7082896 -277898,-7082930 -277892,-7082974 -277897,-7082974 -277977,-7082984 -278083,-7083039 -278144,-7083102 -278192,-7083142 -278210,-7083149 -278219,-7083152 -278232,-7083155 -278245,-7083157 -278292,-7083162 -278326,-7083162 -278343,-7083162 -278393,-7083144 -278438,-7083119 -278464,-7083104 -278541,-7083112 -278553,-7083119 -278583,-7083137 -278622,-7083147 -278630,-7083190 -278659,-7083230 -278672,-7083245 -278708,-7083246 -278717,-7083247 -278729,-7083253 -278735,-7083255 -278754,-7083259 -278769,-7083260 -278783,-7083259 -278815,-7083245 -278832,-7083252 -278840,-7083255 -278879,-7083262 -278874,-7083310 -278949,-7083325 -278950,-7083322 -278958,-7083273 -278962,-7083274 -279065,-7083290 -279068,-7083286 -279077,-7083272 -279080,-7083217 -279084,-7083161 -279091,-7083151 -279095,-7083125 -279112,-7083102 -279127,-7083086 -279139,-7083059 -279147,-7083037 -279145,-7082988 -279148,-7082974 -279154,-7082958 -279148,-7082947 -279187,-7082880 -279186,-7082858 -279194,-7082843 -279217,-7082817 -279226,-7082798 -279239,-7082776 -279246,-7082764 -279251,-7082758 -279265,-7082745 -279279,-7082732 -279298,-7082720 -279309,-7082705 -279313,-7082664 -279323,-7082645 -279313,-7082630 -279295,-7082590 -279317,-7082566 -279323,-7082551 -279325,-7082540 -279330,-7082510 -279351,-7082473 -279371,-7082484 -279380,-7082461 -279393,-7082442 -279408,-7082438 -279430,-7082410 -279431,-7082419 -279447,-7082436 -279475,-7082463 -279486,-7082480 -279511,-7082533 -279518,-7082532 -279536,-7082541 -279646,-7082686 -279705,-7082774 -279729,-7082807 -279747,-7082822 -279757,-7082814 -279772,-7082814 -279904,-7082766 -279977,-7082735 -280028,-7082732 -280029,-7082724 -280050,-7082694 -280043,-7082681 -280027,-7082670 -280025,-7082659 -280015,-7082647 -280009,-7082625 -280012,-7082611 -279987,-7082588 -280022,-7082550 -280019,-7082518 -280013,-7082499 -280007,-7082486 -280006,-7082476 -280009,-7082472 -280018,-7082476 -280034,-7082488 -280045,-7082488 -280053,-7082481 -280057,-7082473 -280076,-7082448 -280081,-7082431 -280082,-7082398 -280105,-7082368 -280081,-7082346 -280077,-7082340 -280080,-7082327 -280097,-7082311 -280097,-7082291 -280071,-7082255 -280072,-7082236 -280084,-7082223 -280089,-7082210 -280082,-7082196 -280071,-7082181 -280063,-7082165 -280060,-7082139 -280074,-7082111 -280079,-7082087 -280076,-7082056 -280055,-7081976 -280035,-7081911 -280015,-7081887 -280010,-7081869 -280015,-7081852 -280026,-7081828 -280030,-7081795 -280028,-7081766 -280017,-7081731 -280007,-7081700 -280007,-7081683 -280028,-7081655 -280040,-7081629 -280046,-7081608 -280048,-7081543 -280062,-7081531 -280065,-7081518 -280059,-7081503 -280067,-7081481 -280089,-7081466 -280097,-7081452 -280108,-7081438 -280118,-7081430 -280145,-7081416 -280196,-7081374 -280203,-7081361 -280211,-7081355 -280220,-7081365 -280229,-7081364 -280246,-7081350 -280269,-7081329 -280273,-7081355 -280283,-7081370 -280298,-7081371 -280305,-7081363 -280307,-7081351 -280320,-7081359 -280329,-7081359 -280335,-7081356 -280340,-7081348 -280345,-7081324 -280352,-7081316 -280367,-7081316 -280368,-7081305 -280349,-7081286 -280350,-7081278 -280359,-7081270 -280370,-7081272 -280376,-7081267 -280387,-7081253 -280398,-7081253 -280421,-7081243 -280432,-7081229 -280445,-7081228 -280452,-7081223 -280460,-7081239 -280457,-7081251 -280460,-7081256 -280480,-7081261 -280490,-7081254 -280498,-7081229 -280512,-7081209 -280519,-7081209 -280534,-7081216 -280536,-7081192 -280529,-7081173 -280544,-7081169 -280568,-7081151 -280585,-7081125 -280590,-7081124 -280590,-7081139 -280593,-7081141 -280603,-7081134 -280603,-7081115 -280629,-7081116 -280636,-7081128 -280636,-7081156 -280633,-7081163 -280633,-7081172 -280649,-7081186 -280657,-7081185 -280662,-7081180 -280665,-7081164 -280670,-7081151 -280679,-7081145 -280688,-7081144 -280691,-7081137 -280687,-7081127 -280722,-7081097 -280743,-7081101 -280786,-7081082 -280797,-7081102 -280809,-7081113 -280823,-7081105 -280824,-7081092 -280838,-7081082 -280838,-7081074 -280833,-7081063 -280832,-7081049 -280846,-7081052 -280864,-7081063 -280872,-7081051 -280873,-7081041 -280869,-7081033 -280870,-7081019 -280876,-7081015 -280880,-7081020 -280887,-7081022 -280929,-7081004 -280934,-7080997 -280969,-7080978 -280995,-7080966 -281023,-7080966 -281066,-7080952 -281091,-7080961 -281112,-7080968 -281126,-7080966 -281136,-7080953 -281139,-7080942 -281158,-7080933 -281181,-7080908 -281203,-7080897 -281210,-7080889 -281219,-7080870 -281257,-7080836 -281254,-7080826 -281255,-7080804 -281264,-7080797 -281276,-7080797 -281297,-7080804 -281334,-7080821 -281358,-7080823 -281374,-7080819 -281385,-7080812 -281385,-7080799 -281376,-7080790 -281366,-7080753 -281365,-7080736 -281371,-7080727 -281376,-7080693 -281357,-7080671 -281354,-7080659 -281357,-7080650 -281360,-7080647 -281367,-7080646 -281374,-7080648 -281385,-7080657 -281392,-7080664 -281400,-7080664 -281405,-7080657 -281402,-7080607 -281416,-7080593 -281392,-7080551 -281415,-7080545 -281413,-7080515 -281417,-7080511 -281429,-7080512 -281439,-7080534 -281450,-7080533 -281461,-7080530 -281484,-7080508 -281486,-7080500 -281484,-7080495 -281477,-7080484 -281455,-7080481 -281438,-7080468 -281438,-7080456 -281458,-7080410 -281470,-7080395 -281486,-7080403 -281494,-7080406 -281499,-7080406 -281506,-7080402 -281512,-7080401 -281521,-7080394 -281521,-7080378 -281514,-7080366 -281512,-7080354 -281524,-7080345 -281533,-7080343 -281546,-7080347 -281560,-7080355 -281589,-7080357 -281662,-7080357 -281679,-7080346 -281694,-7080340 -281726,-7080342 -281742,-7080341 -281761,-7080333 -281770,-7080321 -281785,-7080321 -281790,-7080324 -281791,-7080332 -281781,-7080347 -281776,-7080362 -281776,-7080381 -281780,-7080385 -281805,-7080383 -281824,-7080388 -281850,-7080381 -281864,-7080367 -281860,-7080345 -281867,-7080327 -281891,-7080308 -281900,-7080331 -281904,-7080370 -281938,-7080369 -281953,-7080374 -281955,-7080366 -281958,-7080349 -281964,-7080337 -281982,-7080337 -281996,-7080342 -282022,-7080335 -282055,-7080333 -282061,-7080344 -282061,-7080400 -282061,-7080428 -282059,-7080433 -282053,-7080443 -282058,-7080456 -282059,-7080459 -282088,-7080484 -282065,-7080504 -282056,-7080521 -282071,-7080530 -282078,-7080532 -282089,-7080533 -282109,-7080561 -282123,-7080569 -282144,-7080540 -282172,-7080541 -282195,-7080556 -282196,-7080566 -282187,-7080575 -282169,-7080584 -282162,-7080594 -282154,-7080610 -282153,-7080625 -282152,-7080639 -282154,-7080655 -282158,-7080668 -282165,-7080682 -282177,-7080698 -282196,-7080720 -282199,-7080732 -282211,-7080746 -282212,-7080764 -282206,-7080774 -282188,-7080780 -282182,-7080785 -282183,-7080790 -282221,-7080813 -282230,-7080828 -282239,-7080843 -282242,-7080861 -282239,-7080868 -282219,-7080874 -282210,-7080879 -282215,-7080888 -282229,-7080900 -282230,-7080926 -282243,-7080936 -282249,-7080931 -282252,-7080918 -282268,-7080903 -282275,-7080902 -282283,-7080907 -282303,-7080925 -282304,-7080956 -282311,-7080963 -282323,-7080965 -282333,-7080975 -282327,-7080986 -282325,-7080989 -282327,-7081012 -282326,-7081016 -282316,-7081043 -282317,-7081055 -282334,-7081080 -282346,-7081083 -282369,-7081084 -282384,-7081095 -282387,-7081118 -282375,-7081122 -282360,-7081138 -282349,-7081154 -282329,-7081182 -282336,-7081190 -282351,-7081206 -282359,-7081223 -282366,-7081231 -282376,-7081236 -282405,-7081227 -282416,-7081223 -282433,-7081228 -282439,-7081231 -282455,-7081236 -282447,-7081262 -282440,-7081284 -282445,-7081296 -282463,-7081306 -282477,-7081288 -282495,-7081284 -282519,-7081303 -282540,-7081324 -282542,-7081332 -282551,-7081345 -282558,-7081344 -282563,-7081338 -282563,-7081326 -282575,-7081310 -282580,-7081301 -282588,-7081301 -282601,-7081313 -282620,-7081339 -282589,-7081379 -282601,-7081382 -282658,-7081386 -282664,-7081411 -282663,-7081414 -282659,-7081425 -282675,-7081427 -282686,-7081434 -282702,-7081436 -282719,-7081434 -282729,-7081441 -282728,-7081471 -282737,-7081477 -282737,-7081477 -282736,-7081505 -282736,-7081519 -282722,-7081536 -282722,-7081544 -282729,-7081549 -282758,-7081539 -282762,-7081538 -282767,-7081536 -282776,-7081538 -282776,-7081552 -282767,-7081565 -282767,-7081566 -282780,-7081576 -282813,-7081572 -282830,-7081577 -282834,-7081588 -282835,-7081601 -282849,-7081622 -282845,-7081639 -282845,-7081657 -282845,-7081672 -282853,-7081678 -282879,-7081692 -282881,-7081695 -282884,-7081710 -282894,-7081721 -282900,-7081752 -282920,-7081774 -282932,-7081722 -282979,-7081739 -283028,-7081743 -283029,-7081744 -283035,-7081755 -283035,-7081834 -283063,-7081851 -283083,-7081851 -283088,-7081858 -283090,-7081881 -283081,-7081895 -283083,-7081927 -283090,-7081938 -283118,-7081947 -283129,-7081971 -283127,-7081982 -283113,-7081997 -283113,-7082003 -283155,-7082025 -283154,-7082053 -283146,-7082063 -283147,-7082069 -283154,-7082082 -283173,-7082109 -283172,-7082121 -283191,-7082128 -283202,-7082133 -283218,-7082153 -283227,-7082155 -283245,-7082176 -283296,-7082194 -283319,-7082196 -283342,-7082200 -283344,-7082215 -283351,-7082227 -283334,-7082253 -283313,-7082259 -283309,-7082266 -283332,-7082287 -283339,-7082290 -283345,-7082286 -283345,-7082275 -283381,-7082281 -283413,-7082302 -283437,-7082335 -283459,-7082355 -283496,-7082358 -283517,-7082369 -283546,-7082369 -283563,-7082379 -283580,-7082384 -283591,-7082411 -283595,-7082432 -283606,-7082428 -283621,-7082415 -283639,-7082417 -283657,-7082443 -283680,-7082464 -283693,-7082474 -283711,-7082476 -283746,-7082473 -283769,-7082480 -283790,-7082503 -283792,-7082509 -283782,-7082520 -283788,-7082554 -283800,-7082566 -283807,-7082555 -283818,-7082556 -283819,-7082546 -283826,-7082537 -283846,-7082547 -283863,-7082547 -283871,-7082551 -283879,-7082573 -283887,-7082582 -283895,-7082586 -283900,-7082601 -283899,-7082648 -283906,-7082656 -283916,-7082658 -283923,-7082649 -283927,-7082620 -283926,-7082610 -283925,-7082601 -283928,-7082594 -283938,-7082594 -283950,-7082606 -283966,-7082614 -283984,-7082615 -283994,-7082625 -283995,-7082649 -283978,-7082658 -283973,-7082667 -283985,-7082682 -284001,-7082685 -284015,-7082685 -284025,-7082697 -284027,-7082713 -284026,-7082736 -284033,-7082751 -284042,-7082755 -284055,-7082756 -284071,-7082757 -284084,-7082764 -284090,-7082779 -284096,-7082781 -284115,-7082769 -284129,-7082780 -284162,-7082780 -284176,-7082794 -284195,-7082798 -284234,-7082792 -284276,-7082800 -284272,-7082809 -284260,-7082812 -284262,-7082824 -284272,-7082824 -284278,-7082831 -284291,-7082865 -284295,-7082889 -284303,-7082900 -284319,-7082908 -284319,-7082915 -284311,-7082921 -284308,-7082928 -284308,-7082939 -284311,-7082944 -284352,-7082944 -284355,-7082944 -284359,-7082946 -284364,-7082951 -284369,-7082956 -284374,-7082967 -284370,-7082980 -284354,-7083006 -284353,-7083015 -284366,-7083017 -284382,-7083025 -284412,-7083028 -284434,-7083021 -284444,-7083017 -284473,-7083016 -284478,-7083034 -284508,-7083069 -284532,-7083087 -284547,-7083089 -284555,-7083096 -284555,-7083115 -284579,-7083124 -284582,-7083110 -284603,-7083094 -284616,-7083095 -284623,-7083101 -284617,-7083114 -284619,-7083144 -284625,-7083152 -284638,-7083150 -284645,-7083139 -284655,-7083130 -284674,-7083137 -284725,-7083148 -284735,-7083146 -284772,-7083136 -284800,-7083137 -284828,-7083125 -284849,-7083125 -284864,-7083132 -284897,-7083129 -284926,-7083140 -284943,-7083141 -284956,-7083137 -284963,-7083128 -284974,-7083126 -284984,-7083137 -284996,-7083141 -285013,-7083139 -285036,-7083151 -285032,-7083158 -285063,-7083176 -285105,-7083208 -285101,-7083246 -285124,-7083258 -285181,-7083308 -285193,-7083365 -285189,-7083386 -285176,-7083397 -285169,-7083412 -285181,-7083422 -285171,-7083449 -285164,-7083463 -285155,-7083463 -285150,-7083470 -285150,-7083476 -285154,-7083481 -285154,-7083489 -285151,-7083494 -285153,-7083509 -285165,-7083530 -285173,-7083561 -285172,-7083581 -285164,-7083599 -285160,-7083605 -285143,-7083627 -285132,-7083641 -285123,-7083647 -285103,-7083647 -285084,-7083665 -285062,-7083671 -285056,-7083677 -285059,-7083693 -285067,-7083692 -285069,-7083709 -285068,-7083724 -285057,-7083758 -285029,-7083780 -285026,-7083828 -285021,-7083835 -284969,-7083877 -284955,-7083888 -284920,-7083908 -284901,-7083938 -284883,-7083963 -284878,-7083978 -284878,-7083988 -284879,-7083997 -284882,-7084004 -284886,-7084013 -284910,-7084021 -284925,-7084099 -284886,-7084166 -284884,-7084184 -284890,-7084197 -284912,-7084229 -284891,-7084237 -284857,-7084267 -284831,-7084267 -284817,-7084272 -284809,-7084279 -284818,-7084296 -284818,-7084300 -284817,-7084304 -284813,-7084316 -284785,-7084321 -284774,-7084331 -284770,-7084344 -284769,-7084349 -284767,-7084369 -284768,-7084386 -284791,-7084433 -284825,-7084538 -284867,-7084630 -284905,-7084674 -284951,-7084718 -285025,-7084742 -285069,-7084763 -285103,-7084781 -285171,-7084814 -285236,-7084848 -285260,-7084867 -285300,-7084887 -285317,-7084896 -285334,-7084900 -285349,-7084901 -285375,-7084894 -285396,-7084882 -285413,-7084875 -285479,-7084876 -285509,-7084872 -285524,-7084872 -285541,-7084881 -285586,-7084890 -285631,-7084898 -285673,-7084899 -285712,-7084910 -285724,-7084922 -285736,-7084937 -285752,-7084952 -285778,-7084975 -285814,-7085014 -285855,-7085015 -285871,-7085011 -285890,-7084994 -285929,-7084988 -285965,-7084975 -285980,-7084952 -285993,-7084952 -286003,-7084945 -286005,-7084925 -286016,-7084941 -286027,-7084959 -286046,-7084986 -286039,-7085003 -286004,-7085030 -285988,-7085030 -285947,-7085120 -285915,-7085139 -285893,-7085153 -285851,-7085227 -285851,-7085322 -285861,-7085304 -285873,-7085300 -285885,-7085308 -285895,-7085326 -285896,-7085345 -285891,-7085353 -285879,-7085366 -285871,-7085386 -285865,-7085392 -285859,-7085397 -285838,-7085405 -285811,-7085394 -285783,-7085387 -285762,-7085384 -285752,-7085384 -285746,-7085385 -285740,-7085388 -285730,-7085394 -285720,-7085412 -285716,-7085432 -285722,-7085443 -285752,-7085470 -285761,-7085484 -285761,-7085505 -285757,-7085515 -285751,-7085538 -285735,-7085545 -285707,-7085549 -285651,-7085572 -285623,-7085572 -285599,-7085581 -285538,-7085592 -285506,-7085601 -285450,-7085601 -285421,-7085611 -285381,-7085665 -285379,-7085675 -285378,-7085688 -285381,-7085696 -285398,-7085706 -285399,-7085714 -285387,-7085725 -285366,-7085733 -285334,-7085732 -285304,-7085730 -285298,-7085730 -285279,-7085735 -285260,-7085756 -285259,-7085765 -285255,-7085830 -285273,-7085876 -285273,-7085920 -285210,-7085948 -285190,-7085961 -285178,-7085972 -285149,-7085983 -285127,-7085985 -285111,-7085991 -285088,-7086011 -285086,-7086022 -285089,-7086030 -285107,-7086039 -285112,-7086049 -285109,-7086060 -285093,-7086071 -285093,-7086139 -285099,-7086146 -285101,-7086161 -285101,-7086189 -285094,-7086212 -285092,-7086242 -285104,-7086267 -285105,-7086280 -285103,-7086292 -285072,-7086313 -285044,-7086329 -285021,-7086349 -284997,-7086359 -284992,-7086364 -284984,-7086373 -284976,-7086383 -284961,-7086414 -284958,-7086431 -284958,-7086442 -284959,-7086448 -284967,-7086466 -284978,-7086481 -284987,-7086522 -284993,-7086547 -285005,-7086559 -285029,-7086571 -285060,-7086600 -285072,-7086612 -285091,-7086612 -285106,-7086617 -285121,-7086629 -285135,-7086656 -285137,-7086671 -285143,-7086697 -285163,-7086719 -285169,-7086739 -285181,-7086748 -285197,-7086779 -285214,-7086784 -285227,-7086790 -285231,-7086795 -285232,-7086798 -285231,-7086809 -285223,-7086828 -285219,-7086839 -285219,-7086848 -285220,-7086857 -285219,-7086866 -285233,-7086882 -285256,-7086883 -285263,-7086891 -285268,-7086902 -285268,-7086909 -285266,-7086920 -285257,-7086948 -285257,-7086975 -285259,-7086987 -285268,-7087011 -285265,-7087066 -285279,-7087095 -285284,-7087127 -285293,-7087149 -285308,-7087158 -285333,-7087159 -285344,-7087164 -285350,-7087175 -285348,-7087191 -285336,-7087224 -285329,-7087247 -285322,-7087264 -285324,-7087280 -285330,-7087296 -285330,-7087320 -285315,-7087313 -285295,-7087324 -285242,-7087342 -285214,-7087361 -285174,-7087394 -285154,-7087413 -285138,-7087422 -285087,-7087444 -285058,-7087441 -285033,-7087454 -285016,-7087467 -284992,-7087478 -284975,-7087474 -284964,-7087468 -284947,-7087468 -284938,-7087476 -284936,-7087492 -284950,-7087526 -284966,-7087546 -284990,-7087574 -284991,-7087592 -284983,-7087608 -284982,-7087635 -284993,-7087657 -285015,-7087681 -285099,-7087664 -285122,-7087664 -285139,-7087675 -285146,-7087681 -285149,-7087688 -285153,-7087697 -285159,-7087719 -285162,-7087737 -285177,-7087746 -285219,-7087744 -285232,-7087746 -285241,-7087749 -285248,-7087753 -285256,-7087758 -285262,-7087764 -285280,-7087815 -285290,-7087829 -285297,-7087833 -285324,-7087817 -285329,-7087819 -285333,-7087828 -285326,-7087842 -285334,-7087868 -285347,-7087872 -285375,-7087872 -285404,-7087857 -285414,-7087856 -285456,-7087910 -285456,-7087941 -285467,-7087950 -285494,-7087947 -285508,-7087951 -285528,-7087970 -285534,-7087977 -285542,-7087983 -285554,-7087991 -285564,-7087996 -285578,-7087998 -285602,-7087992 -285645,-7088026 -285663,-7088031 -285665,-7088045 -285709,-7088082 -285741,-7088100 -285770,-7088103 -285785,-7088107 -285804,-7088120 -285817,-7088120 -285829,-7088112 -285860,-7088103 -285872,-7088104 -285866,-7088118 -285865,-7088127 -285881,-7088141 -285889,-7088139 -285891,-7088123 -285898,-7088116 -285928,-7088145 -285920,-7088162 -285913,-7088186 -285892,-7088200 -285868,-7088245 -285853,-7088260 -285837,-7088293 -285851,-7088304 -285874,-7088317 -285873,-7088326 -285858,-7088332 -285849,-7088338 -285843,-7088357 -285845,-7088393 -285850,-7088433 -285837,-7088461 -285828,-7088488 -285821,-7088492 -285828,-7088525 -285817,-7088526 -285818,-7088543 -285810,-7088552 -285791,-7088552 -285804,-7088583 -285790,-7088604 -285773,-7088621 -285779,-7088648 -285783,-7088684 -285777,-7088689 -285761,-7088686 -285751,-7088691 -285746,-7088700 -285745,-7088717 -285720,-7088730 -285710,-7088741 -285708,-7088764 -285687,-7088793 -285687,-7088809 -285671,-7088824 -285648,-7088860 -285642,-7088881 -285619,-7088875 -285611,-7088879 -285606,-7088892 -285606,-7088940 -285609,-7088967 -285609,-7089059 -285614,-7089082 -285614,-7089107 -285612,-7089119 -285621,-7089151 -285647,-7089176 -285708,-7089266 -285719,-7089285 -285745,-7089308 -285750,-7089318 -285762,-7089355 -285775,-7089361 -285792,-7089381 -285815,-7089399 -285828,-7089398 -285849,-7089408 -285860,-7089410 -285869,-7089418 -285884,-7089418 -285904,-7089415 -285921,-7089422 -285926,-7089456 -285926,-7089473 -285920,-7089491 -285916,-7089516 -285932,-7089525 -285941,-7089534 -285951,-7089531 -285958,-7089526 -285967,-7089538 -285989,-7089550 -285998,-7089563 -286007,-7089571 -286016,-7089577 -286025,-7089579 -286033,-7089568 -286051,-7089583 -286085,-7089606 -286106,-7089627 -286124,-7089638 -286138,-7089652 -286128,-7089668 -286142,-7089681 -286150,-7089682 -286157,-7089679 -286166,-7089679 -286170,-7089682 -286170,-7089695 -286166,-7089702 -286166,-7089708 -286169,-7089710 -286179,-7089710 -286182,-7089702 -286188,-7089695 -286193,-7089695 -286197,-7089702 -286196,-7089716 -286189,-7089726 -286190,-7089734 -286197,-7089740 -286201,-7089748 -286208,-7089755 -286217,-7089755 -286224,-7089754 -286231,-7089757 -286235,-7089766 -286236,-7089779 -286247,-7089785 -286261,-7089785 -286273,-7089777 -286277,-7089777 -286283,-7089781 -286284,-7089801 -286281,-7089816 -286288,-7089824 -286295,-7089825 -286305,-7089813 -286311,-7089807 -286319,-7089806 -286332,-7089826 -286332,-7089836 -286327,-7089846 -286327,-7089861 -286324,-7089879 -286328,-7089892 -286338,-7089903 -286345,-7089910 -286352,-7089909 -286358,-7089904 -286367,-7089899 -286371,-7089896 -286372,-7089889 -286369,-7089882 -286372,-7089880 -286376,-7089880 -286381,-7089885 -286393,-7089889 -286412,-7089889 -286427,-7089896 -286439,-7089907 -286455,-7089926 -286460,-7089935 -286462,-7089965 -286471,-7089974 -286482,-7089993 -286486,-7090002 -286488,-7090016 -286508,-7090035 -286513,-7090045 -286526,-7090060 -286526,-7090083 -286530,-7090098 -286545,-7090107 -286557,-7090109 -286557,-7090118 -286554,-7090125 -286552,-7090139 -286562,-7090150 -286562,-7090162 -286554,-7090165 -286573,-7090183 -286585,-7090206 -286584,-7090230 -286576,-7090235 -286570,-7090245 -286570,-7090256 -286575,-7090260 -286597,-7090263 -286596,-7090277 -286586,-7090283 -286587,-7090288 -286590,-7090298 -286603,-7090308 -286614,-7090313 -286633,-7090321 -286642,-7090327 -286642,-7090338 -286635,-7090346 -286635,-7090363 -286654,-7090392 -286660,-7090400 -286665,-7090405 -286685,-7090420 -286727,-7090433 -286740,-7090434 -286752,-7090442 -286763,-7090450 -286786,-7090451 -286800,-7090455 -286818,-7090454 -286833,-7090469 -286850,-7090480 -286871,-7090486 -286885,-7090487 -286902,-7090481 -286940,-7090478 -286940,-7090488 -286936,-7090494 -286945,-7090502 -286956,-7090507 -286977,-7090513 -286983,-7090520 -286993,-7090525 -286999,-7090533 -287004,-7090534 -287014,-7090530 -287026,-7090529 -287042,-7090553 -287043,-7090565 -287049,-7090580 -287068,-7090599 -287081,-7090609 -287094,-7090632 -287088,-7090646 -287088,-7090661 -287085,-7090673 -287085,-7090693 -287091,-7090698 -287091,-7090708 -287084,-7090726 -287071,-7090733 -287050,-7090732 -287042,-7090735 -287029,-7090751 -287002,-7090792 -286993,-7090816 -286989,-7090841 -286966,-7090876 -286949,-7090902 -286945,-7090909 -286945,-7090931 -286955,-7090953 -286950,-7090989 -286952,-7090997 -286963,-7091003 -286957,-7091030 -286952,-7091066 -286952,-7091087 -286953,-7091114 -286945,-7091128 -286945,-7091137 -286947,-7091151 -286940,-7091165 -286925,-7091164 -286927,-7091176 -286936,-7091185 -286937,-7091199 -286944,-7091209 -286960,-7091218 -286968,-7091238 -286982,-7091258 -286998,-7091266 -287023,-7091283 -287047,-7091295 -287067,-7091313 -287096,-7091323 -287115,-7091333 -287141,-7091351 -287178,-7091374 -287209,-7091397 -287234,-7091414 -287265,-7091444 -287296,-7091455 -287336,-7091478 -287383,-7091513 -287406,-7091516 -287407,-7091516 -287415,-7091518 -287428,-7091527 -287442,-7091541 -287452,-7091553 -287473,-7091589 -287477,-7091605 -287482,-7091619 -287504,-7091659 -287545,-7091726 -287588,-7091782 -287641,-7091846 -287728,-7091935 -287769,-7091963 -287787,-7091972 -287800,-7091974 -287837,-7092000 -287849,-7092005 -287886,-7092028 -287914,-7092044 -287941,-7092058 -288147,-7092177 -288184,-7092204 -288242,-7092237 -288285,-7092258 -288289,-7092254 -288317,-7092265 -288358,-7092284 -288453,-7092302 -288562,-7092374 -288584,-7092386 -288607,-7092391 -288753,-7092448 -288765,-7092451 -288838,-7092486 -288857,-7092498 -288914,-7092522 -288920,-7092576 -288927,-7092576 -288944,-7092572 -288955,-7092571 -288961,-7092579 -288965,-7092587 -288977,-7092630 -288982,-7092646 -288988,-7092655 -289001,-7092664 -289024,-7092668 -289076,-7092668 -289127,-7092665 -289190,-7092659 -289357,-7092659 -289441,-7092663 -289487,-7092663 -289512,-7092656 -289535,-7092661 -289579,-7092665 -289592,-7092661 -289600,-7092662 -289621,-7092667 -289630,-7092661 -289649,-7092630 -289660,-7092616 -289684,-7092605 -289696,-7092604 -289713,-7092590 -289743,-7092568 -289772,-7092553 -289787,-7092549 -289822,-7092547 -289846,-7092541 -289862,-7092546 -289957,-7092554 -289963,-7092564 -289981,-7092581 -290002,-7092582 -290032,-7092573 -290049,-7092577 -290066,-7092579 -290079,-7092584 -290104,-7092579 -290115,-7092569 -290143,-7092576 -290180,-7092596 -290189,-7092612 -290198,-7092633 -290212,-7092643 -290218,-7092656 -290231,-7092663 -290257,-7092688 -290266,-7092692 -290289,-7092712 -290314,-7092717 -290334,-7092731 -290373,-7092762 -290392,-7092754 -290435,-7092755 -290461,-7092788 -290462,-7092808 -290520,-7092834 -290539,-7092850 -290597,-7092867 -290636,-7092888 -290651,-7092903 -290670,-7092911 -290693,-7092931 -290724,-7092933 -290737,-7092935 -290748,-7092950 -290773,-7092956 -290789,-7092965 -290805,-7092978 -290838,-7092979 -290851,-7092982 -290878,-7092982 -290886,-7092971 -290906,-7092970 -290920,-7092968 -290925,-7092969 -290943,-7092976 -290960,-7092989 -290969,-7092990 -290975,-7092983 -290984,-7092981 -290995,-7092985 -291006,-7092998 -291015,-7093008 -291029,-7093009 -291042,-7093007 -291057,-7092994 -291078,-7093006 -291093,-7093006 -291108,-7093018 -291119,-7093018 -291136,-7093013 -291146,-7093007 -291156,-7093006 -291177,-7093020 -291184,-7093027 -291189,-7093039 -291231,-7093035 -291240,-7093024 -291248,-7093028 -291250,-7093037 -291259,-7093036 -291260,-7093025 -291269,-7093028 -291304,-7093061 -291309,-7093063 -291315,-7093064 -291350,-7093058 -291367,-7093058 -291412,-7093085 -291427,-7093086 -291435,-7093093 -291449,-7093092 -291471,-7093076 -291493,-7093077 -291498,-7093071 -291526,-7093071 -291544,-7093076 -291551,-7093074 -291559,-7093064 -291567,-7093060 -291611,-7093069 -291629,-7093068 -291671,-7093044 -291715,-7093014 -291718,-7092994 -291730,-7092976 -291766,-7092952 -291795,-7092947 -291816,-7092939 -291914,-7092910 -291934,-7092894 -291945,-7092888 -291983,-7092882 -292000,-7092875 -292008,-7092859 -292018,-7092855 -292046,-7092855 -292054,-7092847 -292057,-7092833 -292065,-7092823 -292078,-7092818 -292134,-7092815 -292162,-7092798 -292184,-7092796 -292211,-7092785 -292244,-7092785 -292267,-7092771 -292341,-7092775 -292364,-7092768 -292403,-7092784 -292422,-7092788 -292430,-7092793 -292441,-7092792 -292480,-7092781 -292493,-7092781 -292503,-7092788 -292511,-7092799 -292512,-7092809 -292505,-7092822 -292503,-7092831 -292514,-7092844 -292559,-7092880 -292589,-7092905 -292575,-7092921 -292572,-7092932 -292577,-7092941 -292603,-7092957 -292615,-7092972 -292616,-7092986 -292610,-7092999 -292599,-7093015 -292597,-7093028 -292598,-7093070 -292596,-7093084 -292589,-7093090 -292569,-7093093 -292568,-7093101 -292579,-7093119 -292579,-7093133 -292574,-7093146 -292575,-7093178 -292565,-7093187 -292545,-7093198 -292537,-7093207 -292535,-7093214 -292541,-7093247 -292538,-7093252 -292520,-7093262 -292510,-7093270 -292510,-7093278 -292515,-7093283 -292515,-7093291 -292506,-7093298 -292489,-7093304 -292476,-7093321 -292444,-7093352 -292433,-7093369 -292411,-7093392 -292401,-7093412 -292399,-7093439 -292401,-7093440 -292407,-7093447 -292410,-7093455 -292407,-7093465 -292395,-7093476 -292377,-7093488 -292368,-7093499 -292366,-7093544 -292359,-7093551 -292340,-7093550 -292331,-7093552 -292322,-7093565 -292314,-7093577 -292297,-7093570 -292289,-7093568 -292268,-7093573 -292229,-7093580 -292185,-7093596 -292177,-7093599 -292145,-7093610 -292118,-7093615 -292098,-7093616 -292083,-7093610 -292079,-7093608 -292068,-7093602 -292045,-7093586 -292000,-7093566 -291993,-7093565 -291978,-7093562 -291967,-7093564 -291955,-7093572 -291945,-7093579 -291931,-7093591 -291909,-7093625 -291921,-7093645 -291924,-7093649 -291894,-7093678 -291882,-7093689 -291877,-7093693 -291868,-7093699 -291839,-7093708 -291831,-7093717 -291817,-7093727 -291800,-7093730 -291781,-7093728 -291773,-7093713 -291761,-7093679 -291752,-7093668 -291741,-7093669 -291687,-7093676 -291648,-7093684 -291636,-7093692 -291634,-7093724 -291630,-7093740 -291623,-7093757 -291593,-7093790 -291584,-7093802 -291564,-7093822 -291551,-7093837 -291542,-7093853 -291533,-7093874 -291530,-7093882 -291523,-7093896 -291513,-7093905 -291501,-7093909 -291482,-7093920 -291422,-7093955 -291398,-7093964 -291367,-7093981 -291365,-7093986 -291365,-7093997 -291365,-7094003 -291370,-7094018 -291382,-7094044 -291412,-7094091 -291421,-7094116 -291426,-7094148 -291428,-7094173 -291427,-7094182 -291425,-7094190 -291419,-7094197 -291388,-7094203 -291370,-7094205 -291361,-7094206 -291352,-7094209 -291339,-7094221 -291338,-7094234 -291347,-7094271 -291346,-7094285 -291338,-7094302 -291326,-7094322 -291296,-7094354 -291274,-7094372 -291249,-7094387 -291243,-7094392 -291231,-7094409 -291224,-7094430 -291214,-7094444 -291207,-7094475 -291206,-7094486 -291207,-7094539 -291204,-7094598 -291203,-7094604 -291200,-7094610 -291186,-7094631 -291183,-7094637 -291177,-7094660 -291165,-7094698 -291162,-7094704 -291158,-7094710 -291139,-7094729 -291134,-7094735 -291133,-7094759 -291138,-7094778 -291153,-7094809 -291189,-7094858 -291191,-7094872 -291188,-7094885 -291184,-7094890 -291166,-7094909 -291153,-7094928 -291142,-7094955 -291130,-7094992 -291124,-7095016 -291124,-7095051 -291127,-7095077 -291144,-7095135 -291152,-7095200 -291151,-7095216 -291140,-7095257 -291126,-7095283 -291118,-7095291 -291113,-7095294 -291107,-7095297 -291080,-7095306 -291053,-7095318 -291018,-7095339 -291005,-7095349 -290982,-7095370 -290962,-7095396 -290947,-7095425 -290940,-7095441 -290933,-7095448 -290914,-7095458 -290852,-7095483 -290839,-7095483 -290804,-7095486 -290794,-7095490 -290776,-7095512 -290772,-7095519 -290768,-7095534 -290769,-7095551 -290765,-7095580 -290759,-7095593 -290741,-7095623 -290713,-7095662 -290685,-7095696 -290658,-7095712 -290624,-7095723 -290605,-7095731 -290586,-7095739 -290578,-7095745 -290571,-7095759 -290550,-7095792 -290531,-7095813 -290493,-7095859 -290475,-7095877 -290453,-7095890 -290424,-7095903 -290401,-7095944 -290393,-7095951 -290348,-7095980 -290329,-7095990 -290308,-7095993 -290292,-7095989 -290278,-7095981 -290269,-7095972 -290254,-7095970 -290235,-7095979 -290208,-7095988 -290175,-7096005 -290098,-7096038 -290062,-7096039 -290011,-7096068 -289974,-7096081 -289955,-7096145 -289933,-7096175 -289930,-7096179 -289879,-7096204 -289869,-7096210 -289833,-7096248 -289830,-7096252 -289796,-7096309 -289788,-7096342 -289785,-7096351 -289771,-7096373 -289760,-7096383 -289725,-7096405 -289704,-7096392 -289665,-7096344 -289636,-7096333 -289581,-7096343 -289512,-7096341 -289407,-7096384 -289371,-7096385 -289298,-7096420 -289259,-7096445 -289163,-7096462 -289152,-7096475 -289142,-7096495 -289133,-7096535 -289092,-7096588 -289073,-7096647 -289018,-7096730 -288989,-7096779 -288983,-7096785 -288977,-7096791 -288945,-7096788 -288893,-7096775 -288872,-7096769 -288828,-7096753 -288810,-7096743 -288798,-7096734 -288779,-7096715 -288739,-7096667 -288704,-7096638 -288674,-7096633 -288628,-7096629 -288520,-7096601 -288504,-7096593 -288484,-7096566 -288480,-7096561 -288465,-7096555 -288461,-7096552 -288455,-7096545 -288451,-7096538 -288449,-7096533 -288449,-7096528 -288449,-7096519 -288467,-7096491 -288480,-7096451 -288414,-7096417 -288373,-7096390 -288357,-7096392 -288319,-7096397 -288306,-7096393 -288301,-7096344 -288290,-7096286 -288253,-7096289 -288218,-7096300 -288204,-7096314 -288198,-7096322 -288189,-7096340 -288184,-7096344 -288179,-7096347 -288173,-7096349 -288167,-7096349 -288161,-7096348 -288157,-7096346 -288154,-7096343 -288152,-7096339 -288151,-7096332 -288151,-7096324 -288156,-7096310 -288173,-7096289 -288176,-7096284 -288177,-7096279 -288176,-7096269 -288168,-7096241 -288149,-7096232 -288132,-7096220 -288105,-7096208 -288098,-7096208 -288092,-7096208 -288059,-7096243 -288042,-7096248 -288036,-7096247 -288030,-7096246 -288027,-7096243 -288025,-7096240 -288025,-7096236 -288025,-7096231 -288027,-7096225 -288039,-7096204 -288031,-7096198 -288012,-7096201 -287998,-7096200 -287991,-7096193 -287972,-7096168 -287960,-7096152 -287973,-7096124 -287990,-7096129 -288011,-7096131 -288008,-7096107 -288014,-7096092 -288020,-7096080 -288023,-7096073 -288025,-7096062 -288023,-7096057 -288020,-7096049 -288014,-7096040 -288009,-7096034 -288004,-7096030 -287996,-7096026 -287983,-7096022 -287974,-7096002 -287976,-7095985 -287988,-7095955 -287980,-7095940 -287953,-7095896 -287931,-7095875 -287905,-7095841 -287882,-7095838 -287855,-7095843 -287853,-7095842 -287844,-7095831 -287857,-7095813 -287852,-7095806 -287845,-7095800 -287810,-7095785 -287782,-7095762 -287750,-7095760 -287728,-7095798 -287724,-7095800 -287719,-7095803 -287713,-7095803 -287707,-7095802 -287704,-7095800 -287701,-7095797 -287696,-7095789 -287694,-7095773 -287694,-7095766 -287709,-7095739 -287693,-7095739 -287672,-7095750 -287663,-7095746 -287651,-7095733 -287638,-7095723 -287635,-7095719 -287625,-7095705 -287593,-7095683 -287592,-7095672 -287590,-7095651 -287586,-7095643 -287584,-7095639 -287583,-7095638 -287578,-7095639 -287545,-7095642 -287540,-7095635 -287529,-7095619 -287530,-7095610 -287536,-7095587 -287537,-7095578 -287537,-7095572 -287535,-7095569 -287531,-7095563 -287527,-7095550 -287530,-7095543 -287545,-7095526 -287564,-7095525 -287571,-7095520 -287578,-7095515 -287583,-7095508 -287585,-7095499 -287585,-7095495 -287585,-7095473 -287579,-7095466 -287573,-7095464 -287540,-7095469 -287537,-7095469 -287532,-7095467 -287529,-7095465 -287523,-7095451 -287517,-7095441 -287516,-7095440 -287488,-7095436 -287473,-7095426 -287467,-7095411 -287467,-7095405 -287468,-7095401 -287471,-7095379 -287465,-7095368 -287444,-7095356 -287425,-7095345 -287421,-7095337 -287419,-7095321 -287419,-7095318 -287419,-7095314 -287427,-7095307 -287442,-7095295 -287451,-7095285 -287417,-7095260 -287391,-7095269 -287372,-7095271 -287363,-7095262 -287366,-7095253 -287387,-7095246 -287400,-7095235 -287401,-7095228 -287402,-7095222 -287401,-7095213 -287401,-7095207 -287392,-7095196 -287379,-7095196 -287352,-7095203 -287333,-7095207 -287323,-7095203 -287322,-7095198 -287321,-7095194 -287325,-7095188 -287335,-7095164 -287335,-7095160 -287337,-7095149 -287336,-7095141 -287330,-7095135 -287323,-7095131 -287319,-7095131 -287311,-7095133 -287309,-7095138 -287305,-7095149 -287297,-7095157 -287283,-7095152 -287272,-7095133 -287269,-7095115 -287268,-7095112 -287274,-7095079 -287290,-7095053 -287285,-7095045 -287261,-7095025 -287246,-7095017 -287229,-7095007 -287214,-7094997 -287208,-7094986 -287206,-7094981 -287199,-7094972 -287199,-7094956 -287205,-7094949 -287215,-7094948 -287223,-7094952 -287244,-7094968 -287246,-7094967 -287252,-7094963 -287246,-7094926 -287264,-7094898 -287265,-7094895 -287267,-7094873 -287274,-7094851 -287276,-7094841 -287306,-7094781 -287302,-7094766 -287289,-7094769 -287266,-7094774 -287258,-7094771 -287260,-7094763 -287261,-7094760 -287269,-7094746 -287268,-7094731 -287268,-7094724 -287263,-7094711 -287244,-7094674 -287237,-7094664 -287231,-7094658 -287217,-7094644 -287203,-7094641 -287196,-7094640 -287168,-7094629 -287162,-7094627 -287156,-7094622 -287150,-7094615 -287148,-7094611 -287147,-7094609 -287149,-7094603 -287152,-7094595 -287154,-7094589 -287155,-7094586 -287151,-7094577 -287149,-7094574 -287140,-7094574 -287133,-7094576 -287123,-7094584 -287109,-7094600 -287098,-7094607 -287084,-7094608 -287079,-7094607 -287075,-7094599 -287072,-7094593 -287078,-7094585 -287081,-7094583 -287099,-7094570 -287100,-7094557 -287089,-7094549 -287070,-7094549 -287058,-7094549 -287037,-7094565 -287026,-7094545 -287011,-7094526 -287011,-7094507 -287021,-7094488 -287027,-7094475 -287027,-7094464 -287023,-7094455 -287009,-7094457 -287006,-7094457 -286991,-7094464 -286976,-7094464 -286967,-7094452 -286972,-7094447 -286983,-7094433 -286998,-7094418 -287000,-7094407 -287002,-7094403 -286997,-7094388 -286996,-7094379 -286995,-7094370 -286993,-7094368 -286988,-7094362 -286977,-7094367 -286960,-7094370 -286943,-7094334 -286920,-7094311 -286916,-7094310 -286892,-7094303 -286850,-7094274 -286841,-7094261 -286844,-7094248 -286854,-7094240 -286857,-7094225 -286855,-7094212 -286847,-7094197 -286820,-7094177 -286837,-7094173 -286850,-7094165 -286859,-7094151 -286840,-7094127 -286835,-7094127 -286830,-7094129 -286828,-7094130 -286828,-7094130 -286806,-7094139 -286794,-7094136 -286776,-7094123 -286792,-7094095 -286793,-7094093 -286793,-7094092 -286786,-7094082 -286786,-7094080 -286793,-7094058 -286787,-7094036 -286774,-7094045 -286765,-7094070 -286752,-7094075 -286744,-7094081 -286732,-7094090 -286724,-7094098 -286717,-7094095 -286713,-7094090 -286706,-7094081 -286706,-7094068 -286717,-7094058 -286732,-7094055 -286739,-7094054 -286753,-7094042 -286750,-7094039 -286740,-7094031 -286739,-7094017 -286728,-7094010 -286717,-7094004 -286688,-7093998 -286679,-7093998 -286679,-7093998 -286669,-7093995 -286666,-7093986 -286667,-7093964 -286668,-7093943 -286676,-7093931 -286684,-7093915 -286690,-7093883 -286686,-7093867 -286670,-7093856 -286661,-7093849 -286639,-7093851 -286637,-7093851 -286623,-7093814 -286586,-7093812 -286577,-7093810 -286564,-7093807 -286552,-7093792 -286531,-7093788 -286526,-7093778 -286540,-7093749 -286539,-7093738 -286539,-7093718 -286536,-7093691 -286498,-7093709 -286475,-7093732 -286455,-7093747 -286417,-7093763 -286391,-7093787 -286304,-7093826 -286261,-7093851 -286182,-7093865 -286133,-7093883 -286118,-7093889 -286096,-7093913 -286089,-7093917 -286088,-7093917 -286077,-7093922 -286035,-7093928 -286026,-7093930 -286010,-7093936 -285959,-7093975 -285908,-7094001 -285824,-7094060 -285754,-7094111 -285742,-7094120 -285651,-7094173 -285562,-7094233 -285531,-7094265 -285477,-7094287 -285442,-7094309 -285440,-7094315 -285430,-7094325 -285417,-7094346 -285401,-7094354 -285390,-7094369 -285371,-7094375 -285357,-7094386 -285307,-7094397 -285301,-7094400 -285278,-7094414 -285265,-7094421 -285226,-7094453 -285202,-7094471 -285195,-7094477 -285187,-7094488 -285168,-7094505 -285137,-7094517 -285091,-7094532 -285009,-7094551 -284984,-7094556 -284932,-7094558 -284911,-7094582 -284921,-7094595 -284874,-7094676 -284873,-7094706 -284863,-7094723 -284870,-7094746 -284864,-7094823 -284842,-7094831 -284819,-7094842 -284791,-7094842 -284776,-7094848 -284771,-7094851 -284757,-7094872 -284755,-7094879 -284740,-7094906 -284733,-7094923 -284724,-7094960 -284720,-7095010 -284723,-7095052 -284721,-7095061 -284720,-7095066 -284718,-7095072 -284705,-7095104 -284672,-7095099 -284661,-7095207 -284664,-7095245 -284679,-7095258 -284683,-7095270 -284674,-7095291 -284676,-7095333 -284674,-7095337 -284673,-7095341 -284651,-7095359 -284626,-7095353 -284605,-7095381 -284606,-7095391 -284609,-7095402 -284601,-7095415 -284599,-7095428 -284600,-7095448 -284589,-7095468 -284580,-7095477 -284518,-7095495 -284508,-7095525 -284507,-7095558 -284522,-7095572 -284514,-7095579 -284508,-7095582 -284501,-7095585 -284492,-7095586 -284483,-7095586 -284472,-7095585 -284466,-7095583 -284455,-7095575 -284425,-7095590 -284405,-7095601 -284348,-7095614 -284282,-7095642 -284258,-7095642 -284240,-7095647 -284222,-7095653 -284205,-7095661 -284193,-7095667 -284185,-7095672 -284175,-7095680 -284164,-7095690 -284159,-7095697 -284150,-7095712 -284147,-7095724 -284145,-7095735 -284144,-7095747 -284144,-7095760 -284146,-7095772 -284154,-7095795 -284155,-7095800 -284154,-7095806 -284152,-7095817 -284136,-7095861 -284136,-7095871 -284139,-7095925 -284138,-7095944 -284136,-7095954 -284133,-7095964 -284129,-7095972 -284119,-7095990 -284103,-7096011 -284100,-7096019 -284098,-7096027 -284097,-7096039 -284096,-7096053 -284098,-7096082 -284111,-7096142 -284085,-7096169 -284084,-7096207 -284072,-7096224 -284053,-7096245 -284045,-7096249 -284040,-7096250 -284032,-7096249 -284027,-7096245 -284024,-7096239 -284021,-7096231 -284021,-7096226 -284024,-7096202 -283983,-7096196 -283939,-7096193 -283922,-7096198 -283909,-7096203 -283892,-7096210 -283884,-7096214 -283879,-7096218 -283874,-7096224 -283868,-7096231 -283864,-7096241 -283843,-7096289 -283823,-7096281 -283802,-7096289 -283782,-7096288 -283767,-7096296 -283727,-7096327 -283654,-7096340 -283639,-7096371 -283574,-7096405 -283569,-7096409 -283565,-7096414 -283563,-7096420 -283561,-7096426 -283562,-7096432 -283563,-7096436 -283574,-7096459 -283575,-7096463 -283575,-7096469 -283573,-7096473 -283570,-7096478 -283566,-7096481 -283562,-7096484 -283553,-7096485 -283550,-7096484 -283452,-7096446 -283432,-7096443 -283430,-7096443 -283405,-7096473 -283400,-7096478 -283395,-7096482 -283382,-7096489 -283371,-7096491 -283361,-7096490 -283325,-7096479 -283320,-7096478 -283310,-7096479 -283300,-7096482 -283282,-7096491 -283267,-7096505 -283257,-7096512 -283238,-7096518 -283218,-7096521 -283213,-7096522 -283208,-7096525 -283191,-7096539 -283174,-7096550 -283163,-7096555 -283150,-7096560 -283126,-7096567 -283117,-7096570 -283110,-7096576 -283104,-7096582 -283102,-7096587 -283101,-7096606 -283098,-7096613 -283094,-7096620 -283090,-7096626 -283086,-7096629 -283056,-7096647 -283054,-7096647 -283005,-7096645 -282987,-7096648 -282974,-7096652 -282949,-7096663 -282940,-7096665 -282918,-7096667 -282902,-7096672 -282894,-7096675 -282878,-7096685 -282873,-7096688 -282868,-7096689 -282862,-7096689 -282836,-7096686 -282815,-7096686 -282809,-7096689 -282791,-7096705 -282780,-7096711 -282777,-7096713 -282774,-7096717 -282773,-7096729 -282771,-7096733 -282767,-7096738 -282759,-7096743 -282746,-7096748 -282721,-7096752 -282715,-7096754 -282704,-7096759 -282675,-7096776 -282642,-7096793 -282636,-7096799 -282623,-7096817 -282617,-7096823 -282597,-7096834 -282593,-7096838 -282574,-7096856 -282549,-7096873 -282534,-7096885 -282528,-7096892 -282524,-7096897 -282511,-7096921 -282476,-7096975 -282472,-7096982 -282466,-7097011 -282460,-7097031 -282459,-7097038 -282460,-7097055 -282457,-7097063 -282446,-7097075 -282443,-7097079 -282440,-7097087 -282436,-7097104 -282431,-7097128 -282434,-7097148 -282406,-7097157 -282392,-7097168 -282384,-7097177 -282377,-7097188 -282373,-7097198 -282367,-7097222 -282343,-7097225 -282332,-7097262 -282328,-7097272 -282323,-7097279 -282317,-7097288 -282310,-7097296 -282299,-7097303 -282260,-7097319 -282250,-7097349 -282233,-7097375 -282220,-7097394 -282170,-7097443 -282133,-7097491 -282100,-7097505 -282091,-7097529 -282040,-7097580 -282036,-7097583 -282027,-7097588 -282019,-7097591 -282014,-7097591 -282008,-7097591 -281977,-7097586 -281966,-7097585 -281920,-7097597 -281855,-7097616 -281788,-7097650 -281762,-7097667 -281749,-7097677 -281729,-7097696 -281699,-7097728 -281673,-7097754 -281599,-7097844 -281582,-7097894 -281568,-7097956 -281531,-7097966 -281487,-7097986 -281481,-7097990 -281471,-7097999 -281463,-7098008 -281456,-7098016 -281449,-7098029 -281441,-7098051 -281432,-7098064 -281421,-7098073 -281406,-7098086 -281379,-7098105 -281364,-7098112 -281346,-7098118 -281309,-7098127 -281249,-7098147 -281225,-7098165 -281177,-7098201 -281126,-7098244 -281099,-7098267 -280976,-7098381 -280872,-7098485 -280746,-7098597 -280749,-7098614 -280667,-7098689 -280583,-7098770 -280487,-7098889 -280420,-7098964 -280368,-7099018 -280309,-7099076 -280227,-7099166 -279991,-7099391 -279970,-7099385 -279943,-7099437 -279863,-7099516 -279717,-7099657 -279626,-7099745 -279559,-7099827 -279533,-7099797 -279499,-7099756 -279458,-7099709 -279457,-7099708 -279425,-7099679 -279400,-7099659 -279364,-7099630 -279314,-7099596 -279247,-7099560 -279215,-7099545 -279181,-7099529 -279141,-7099513 -279088,-7099491 -278934,-7099431 -278732,-7099350 -278506,-7099253 -278438,-7099224 -278371,-7099197 -278239,-7099146 -278053,-7099068 -277959,-7099030 -277868,-7098985 -277722,-7098917 -277565,-7098834 -277343,-7098724 -277309,-7098706 -277189,-7098644 -277032,-7098559 -276852,-7098470 -276657,-7098365 -276607,-7098331 -276498,-7098262 -276319,-7098155 -276226,-7098096 -276044,-7097996 -275982,-7097958 -275868,-7097937 -275772,-7097923 -275639,-7097902 -275507,-7097893 -275379,-7097880 -275296,-7097873 -275292,-7097882 -275198,-7098080 -275158,-7098167 -275146,-7098165 -275129,-7098210 -275106,-7098280 -275066,-7098374 -275043,-7098422 -275026,-7098452 -275008,-7098494 -274995,-7098505 -274968,-7098525 -274953,-7098534 -274878,-7098576 -274841,-7098603 -274791,-7098633 -274766,-7098645 -274746,-7098648 -274724,-7098659 -274697,-7098674 -274654,-7098689 -274634,-7098696 -274615,-7098737 -274604,-7098757 -274594,-7098776 -274579,-7098798 -274540,-7098815 -274528,-7098827 -274516,-7098833 -274503,-7098839 -274486,-7098834 -274463,-7098824 -274431,-7098833 -274405,-7098849 -274369,-7098880 -274329,-7098913 -274313,-7098901 -274271,-7098911 -274231,-7098950 -274220,-7098927 -274228,-7098913 -274225,-7098890 -274204,-7098877 -274116,-7098804 -274054,-7098749 -274002,-7098699 -273993,-7098701 -273983,-7098690 -273963,-7098666 -273923,-7098635 -273902,-7098609 -273887,-7098585 -273812,-7098522 -273794,-7098532 -273720,-7098588 -273713,-7098581 -273638,-7098639 -273570,-7098699 -273370,-7098792 -273327,-7098775 -273291,-7098769 -273261,-7098799 -273153,-7098885 -273182,-7098920 -273216,-7098967 -273139,-7098996 -273112,-7099007 -273102,-7099015 -273091,-7099029 -273086,-7099036 -273083,-7099042 -273081,-7099053 -273081,-7099062 -273082,-7099070 -273084,-7099074 -273088,-7099079 -273101,-7099089 -273108,-7099097 -273116,-7099112 -273128,-7099165 -273166,-7099161 -273197,-7099162 -273207,-7099164 -273215,-7099171 -273219,-7099176 -273225,-7099185 -273229,-7099193 -273232,-7099215 -273235,-7099220 -273238,-7099225 -273244,-7099230 -273255,-7099234 -273294,-7099234 -273300,-7099239 -273306,-7099251 -273307,-7099263 -273303,-7099275 -273303,-7099277 -273306,-7099282 -273311,-7099286 -273318,-7099289 -273328,-7099290 -273370,-7099276 -273390,-7099273 -273408,-7099260 -273423,-7099247 -273432,-7099252 -273454,-7099255 -273465,-7099260 -273496,-7099286 -273511,-7099301 -273520,-7099305 -273538,-7099306 -273549,-7099311 -273562,-7099321 -273571,-7099330 -273584,-7099345 -273626,-7099360 -273655,-7099384 -273643,-7099408 -273636,-7099416 -273606,-7099434 -273601,-7099438 -273597,-7099443 -273589,-7099460 -273580,-7099487 -273570,-7099505 -273561,-7099515 -273557,-7099517 -273540,-7099521 -273534,-7099525 -273531,-7099529 -273521,-7099551 -273514,-7099562 -273495,-7099584 -273491,-7099590 -273481,-7099619 -273469,-7099652 -273466,-7099665 -273459,-7099730 -273458,-7099738 -273454,-7099750 -273450,-7099760 -273445,-7099769 -273440,-7099778 -273433,-7099786 -273425,-7099792 -273418,-7099796 -273411,-7099799 -273399,-7099802 -273385,-7099805 -273367,-7099806 -273313,-7099802 -273298,-7099805 -273280,-7099814 -273237,-7099867 -273205,-7099910 -273199,-7099918 -273182,-7099926 -273168,-7099934 -273156,-7099944 -273148,-7099952 -273142,-7099961 -273135,-7099980 -273127,-7099995 -273123,-7100000 -273118,-7100005 -273111,-7100008 -273099,-7100011 -273093,-7100011 -273085,-7100010 -273020,-7099985 -272944,-7099976 -272953,-7100019 -272968,-7100060 -272921,-7100044 -272904,-7100034 -272867,-7100010 -272806,-7099971 -272804,-7099979 -272763,-7100140 -272708,-7100373 -272671,-7100521 -272664,-7100545 -272649,-7100602 -272632,-7100624 -272621,-7100642 -272583,-7100701 -272553,-7100741 -272582,-7100758 -272603,-7100786 -272644,-7100869 -272663,-7100910 -272694,-7100971 -272696,-7101001 -272697,-7101025 -272692,-7101071 -272668,-7101074 -272664,-7101114 -272661,-7101263 -272654,-7101411 -272651,-7101426 -272648,-7101439 -272641,-7101453 -272590,-7101524 -272554,-7101573 -272564,-7101576 -272559,-7101603 -272527,-7101610 -272506,-7101637 -272514,-7101644 -272506,-7101652 -272510,-7101654 -272525,-7101664 -272571,-7101702 -272573,-7101705 -272605,-7101781 -272617,-7101812 -272640,-7101866 -272621,-7101866 -272586,-7101867 -272578,-7101872 -272579,-7101876 -272580,-7101883 -272577,-7101892 -272573,-7101904 -272607,-7102092 -272625,-7102137 -272636,-7102168 -272671,-7102242 -272687,-7102341 -272735,-7102457 -272762,-7102538 -272721,-7102548 -272698,-7102559 -272726,-7102626 -272672,-7102642 -272641,-7102646 -272628,-7102652 -272604,-7102658 -272572,-7102653 -272531,-7102629 -272465,-7102582 -272426,-7102539 -272374,-7102540 -272370,-7102541 -272289,-7102620 -272272,-7102629 -272285,-7102576 -272249,-7102582 -272245,-7102574 -272208,-7102595 -272205,-7102648 -272105,-7102667 -272070,-7102672 -272057,-7102675 -272039,-7102681 -272013,-7102692 -271962,-7102721 -271957,-7102724 -271960,-7102788 -271960,-7102819 -271957,-7102843 -271945,-7102862 -271921,-7102909 -271874,-7102979 -271796,-7103063 -271619,-7103249 -271477,-7103404 -271341,-7103264 -271273,-7103191 -271231,-7103135 -271033,-7102845 -270950,-7102729" stroke="#003087" stroke-width="55" /></svg>