<?xml version="1.0" standalone="no"?>
<!DOCTYPE svg PUBLIC "-//W3C//DTD SVG 1.1//EN"
"http://www.w3.org/Graphics/SVG/1.1/DTD/svg11.dtd">
<svg height="115" version="1.1" viewBox="-314482 -7081909 27641 27305" width="220" xmlns="http://www.w3.org/2000/svg"><polygon fill="#003087" points=" -308647,-7079868 -308635,-7079777 -308608,-7079731 -308556,-7079642 -308526,-7079594 -308492,-7079534 -308482,-7079515 -308469,-7079483 -308454,-7079433 -308444,-7079395 -308441,-7079380 -308440,-7079372 -308441,-7079355 -308447,-7079333 -308448,-7079326 -308448,-7079319 -308446,-7079303 -308430,-7079236 -308424,-7079213 -308416,-7079191 -308395,-7079143 -308377,-7079094 -308347,-7078996 -308344,-7078976 -308343,-7078967 -308344,-7078941 -308364,-7078809 -308336,-7078804 -308357,-7078733 -308360,-7078717 -308361,-7078709 -308360,-7078688 -308359,-7078678 -308356,-7078668 -308352,-7078658 -308346,-7078648 -308341,-7078643 -308333,-7078638 -308309,-7078624 -308300,-7078617 -308273,-7078591 -308255,-7078578 -308229,-7078565 -308203,-7078557 -308163,-7078551 -308095,-7078545 -308028,-7078536 -307998,-7078530 -307966,-7078522 -307935,-7078512 -307892,-7078495 -307807,-7078480 -307512,-7078415 -307408,-7078397 -307405,-7078397 -307296,-7078380 -307226,-7078371 -307223,-7078371 -307171,-7078508 -307170,-7078526 -307167,-7078540 -307154,-7078578 -307146,-7078596 -307137,-7078612 -307105,-7078652 -307097,-7078661 -307090,-7078666 -307079,-7078670 -307053,-7078676 -307033,-7078685 -307014,-7078698 -306992,-7078720 -306984,-7078725 -306976,-7078729 -306952,-7078738 -306923,-7078745 -306867,-7078754 -306837,-7078765 -306830,-7078766 -306822,-7078765 -306821,-7078765 -306804,-7078760 -306801,-7078760 -306798,-7078762 -306795,-7078765 -306794,-7078768 -306795,-7078781 -306794,-7078783 -306792,-7078785 -306790,-7078787 -306760,-7078798 -306749,-7078805 -306740,-7078812 -306711,-7078842 -306694,-7078860 -306643,-7078893 -306585,-7078946 -306559,-7078963 -306457,-7079019 -306443,-7079026 -306432,-7079030 -306421,-7079033 -306399,-7079037 -306377,-7079045 -306366,-7079046 -306355,-7079047 -306284,-7079044 -306254,-7079051 -306240,-7079053 -306138,-7079051 -306080,-7079053 -306029,-7079044 -305990,-7079032 -305955,-7079040 -305938,-7079033 -305909,-7079053 -305887,-7079061 -305881,-7079068 -305858,-7079097 -305835,-7079119 -305820,-7079137 -305792,-7079153 -305778,-7079157 -305750,-7079172 -305720,-7079192 -305564,-7079262 -305458,-7079289 -305440,-7079297 -305385,-7079319 -305358,-7079334 -305343,-7079341 -305308,-7079362 -305280,-7079388 -305239,-7079421 -305223,-7079431 -305191,-7079450 -305130,-7079480 -305109,-7079488 -305000,-7079527 -304936,-7079553 -304866,-7079570 -304795,-7079589 -304762,-7079603 -304684,-7079649 -304639,-7079672 -304616,-7079683 -304561,-7079704 -304516,-7079717 -304435,-7079715 -304410,-7079717 -304386,-7079719 -304368,-7079722 -304303,-7079734 -304251,-7079738 -304228,-7079737 -304202,-7079728 -304183,-7079723 -304092,-7079710 -304058,-7079714 -304041,-7079722 -304024,-7079730 -303997,-7079759 -303981,-7079801 -303962,-7079875 -303961,-7079880 -303960,-7079881 -303930,-7079831 -303885,-7079759 -303833,-7079669 -303823,-7079652 -303815,-7079636 -303807,-7079618 -303806,-7079615 -303804,-7079611 -303803,-7079607 -303802,-7079604 -303802,-7079600 -303801,-7079596 -303800,-7079594 -303792,-7079565 -303788,-7079552 -303784,-7079537 -303779,-7079523 -303775,-7079516 -303773,-7079511 -303770,-7079506 -303767,-7079502 -303764,-7079497 -303761,-7079492 -303758,-7079488 -303755,-7079483 -303752,-7079479 -303751,-7079477 -303730,-7079443 -303726,-7079437 -303721,-7079431 -303716,-7079425 -303714,-7079423 -303711,-7079419 -303708,-7079416 -303705,-7079413 -303701,-7079410 -303697,-7079407 -303694,-7079404 -303690,-7079401 -303686,-7079399 -303685,-7079398 -303681,-7079396 -303677,-7079394 -303673,-7079392 -303669,-7079390 -303665,-7079388 -303661,-7079387 -303657,-7079385 -303653,-7079384 -303648,-7079382 -303647,-7079381 -303629,-7079374 -303611,-7079368 -303611,-7079368 -303612,-7079357 -303613,-7079346 -303614,-7079336 -303614,-7079325 -303615,-7079322 -303615,-7079311 -303614,-7079300 -303614,-7079290 -303613,-7079279 -303613,-7079271 -303612,-7079249 -303610,-7079228 -303608,-7079222 -303607,-7079217 -303605,-7079212 -303604,-7079206 -303602,-7079201 -303601,-7079193 -303599,-7079185 -303598,-7079178 -303589,-7079155 -303586,-7079127 -303585,-7079091 -303584,-7079068 -303583,-7079048 -303582,-7079025 -303580,-7079002 -303579,-7078995 -303577,-7078983 -303575,-7078971 -303572,-7078959 -303570,-7078947 -303567,-7078934 -303567,-7078933 -303550,-7078850 -303541,-7078803 -303529,-7078773 -303495,-7078721 -303456,-7078645 -303425,-7078591 -303382,-7078525 -303349,-7078482 -303345,-7078473 -303341,-7078465 -303338,-7078457 -303334,-7078448 -303331,-7078439 -303328,-7078431 -303327,-7078428 -303318,-7078406 -303264,-7078327 -303254,-7078319 -303246,-7078311 -303237,-7078303 -303229,-7078295 -303220,-7078286 -303212,-7078277 -303205,-7078269 -303202,-7078264 -303198,-7078258 -303194,-7078253 -303190,-7078247 -303187,-7078242 -303184,-7078236 -303182,-7078231 -303179,-7078225 -303176,-7078219 -303174,-7078213 -303172,-7078207 -303170,-7078201 -303168,-7078194 -303166,-7078188 -303164,-7078182 -303163,-7078176 -303159,-7078164 -303156,-7078152 -303154,-7078140 -303153,-7078136 -303153,-7078131 -303152,-7078126 -303152,-7078121 -303153,-7078116 -303153,-7078111 -303153,-7078106 -303154,-7078102 -303154,-7078097 -303155,-7078092 -303155,-7078086 -303157,-7078077 -303159,-7078069 -303161,-7078061 -303163,-7078053 -303165,-7078045 -303166,-7078036 -303166,-7078035 -303168,-7078023 -303170,-7078010 -303171,-7077998 -303172,-7077986 -303187,-7077977 -303209,-7077965 -303203,-7077962 -303197,-7077958 -303191,-7077955 -303185,-7077951 -303180,-7077947 -303174,-7077943 -303173,-7077942 -303168,-7077938 -303163,-7077934 -303158,-7077929 -303153,-7077924 -303148,-7077919 -303143,-7077914 -303138,-7077910 -303138,-7077909 -303125,-7077897 -303024,-7078070 -303014,-7078079 -302997,-7078082 -302956,-7078086 -302931,-7078093 -302915,-7078101 -302903,-7078120 -302895,-7078120 -302869,-7078164 -302850,-7078194 -302828,-7078183 -302825,-7078182 -302823,-7078181 -302820,-7078180 -302817,-7078179 -302814,-7078178 -302812,-7078177 -302810,-7078177 -302808,-7078175 -302805,-7078174 -302802,-7078173 -302800,-7078171 -302798,-7078169 -302795,-7078168 -302793,-7078166 -302789,-7078164 -302784,-7078160 -302778,-7078157 -302772,-7078154 -302769,-7078152 -302763,-7078150 -302757,-7078147 -302750,-7078144 -302744,-7078165 -302729,-7078204 -302711,-7078213 -302710,-7078232 -302699,-7078231 -302698,-7078242 -302693,-7078242 -302687,-7078241 -302682,-7078240 -302677,-7078239 -302671,-7078237 -302666,-7078236 -302661,-7078235 -302654,-7078232 -302647,-7078229 -302640,-7078226 -302633,-7078223 -302630,-7078222 -302627,-7078220 -302624,-7078219 -302621,-7078217 -302618,-7078216 -302615,-7078215 -302612,-7078213 -302609,-7078212 -302606,-7078210 -302603,-7078208 -302600,-7078206 -302598,-7078204 -302595,-7078202 -302593,-7078200 -302592,-7078199 -302585,-7078192 -302580,-7078185 -302574,-7078177 -302573,-7078175 -302568,-7078169 -302564,-7078162 -302560,-7078156 -302546,-7078128 -302545,-7078126 -302543,-7078124 -302542,-7078121 -302541,-7078119 -302539,-7078114 -302538,-7078112 -302537,-7078110 -302536,-7078107 -302535,-7078105 -302534,-7078103 -302532,-7078101 -302531,-7078099 -302529,-7078097 -302528,-7078095 -302526,-7078093 -302524,-7078092 -302522,-7078090 -302520,-7078088 -302518,-7078087 -302516,-7078086 -302514,-7078084 -302512,-7078083 -302510,-7078082 -302508,-7078081 -302506,-7078080 -302505,-7078080 -302502,-7078079 -302500,-7078078 -302497,-7078077 -302494,-7078077 -302492,-7078076 -302489,-7078076 -302486,-7078076 -302484,-7078075 -302481,-7078076 -302478,-7078076 -302458,-7078079 -302457,-7078079 -302456,-7078079 -302455,-7078079 -302454,-7078080 -302453,-7078080 -302451,-7078080 -302450,-7078081 -302449,-7078081 -302448,-7078081 -302447,-7078081 -302441,-7078079 -302435,-7078077 -302432,-7078075 -302422,-7078071 -302413,-7078067 -302411,-7078066 -302397,-7078059 -302384,-7078051 -302370,-7078043 -302370,-7078042 -302368,-7078041 -302366,-7078040 -302363,-7078038 -302361,-7078036 -302359,-7078035 -302357,-7078033 -302355,-7078031 -302353,-7078029 -302350,-7078028 -302348,-7078026 -302346,-7078025 -302344,-7078024 -302341,-7078022 -302339,-7078021 -302336,-7078020 -302335,-7078020 -302333,-7078019 -302331,-7078019 -302329,-7078018 -302327,-7078018 -302326,-7078018 -302324,-7078017 -302322,-7078017 -302320,-7078017 -302318,-7078017 -302316,-7078017 -302315,-7078017 -302313,-7078017 -302310,-7078018 -302307,-7078019 -302303,-7078020 -302300,-7078022 -302297,-7078024 -302293,-7078026 -302290,-7078028 -302287,-7078030 -302283,-7078032 -302280,-7078035 -302276,-7078038 -302273,-7078041 -302269,-7078045 -302266,-7078048 -302263,-7078051 -302260,-7078055 -302257,-7078059 -302253,-7078064 -302249,-7078070 -302245,-7078076 -302244,-7078078 -302241,-7078081 -302240,-7078083 -302239,-7078085 -302238,-7078087 -302237,-7078088 -302236,-7078090 -302233,-7078107 -302227,-7078137 -302224,-7078148 -302220,-7078169 -302217,-7078189 -302216,-7078194 -302214,-7078213 -302212,-7078233 -302209,-7078252 -302209,-7078253 -302208,-7078259 -302207,-7078264 -302206,-7078270 -302206,-7078275 -302205,-7078281 -302204,-7078286 -302202,-7078292 -302201,-7078297 -302199,-7078302 -302196,-7078309 -302193,-7078316 -302190,-7078323 -302186,-7078330 -302183,-7078336 -302178,-7078344 -302173,-7078353 -302167,-7078361 -302161,-7078369 -302155,-7078377 -302149,-7078384 -302143,-7078392 -302141,-7078393 -302131,-7078404 -302119,-7078415 -302108,-7078426 -302106,-7078429 -302102,-7078434 -302098,-7078438 -302094,-7078443 -302090,-7078448 -302086,-7078452 -302082,-7078457 -302081,-7078458 -302076,-7078462 -302071,-7078466 -302066,-7078470 -302061,-7078474 -302059,-7078476 -302047,-7078484 -302035,-7078491 -302026,-7078496 -302020,-7078500 -302014,-7078504 -302007,-7078507 -302001,-7078510 -301994,-7078514 -301988,-7078517 -301949,-7078529 -301948,-7078530 -301946,-7078530 -301943,-7078531 -301941,-7078531 -301939,-7078532 -301935,-7078533 -301932,-7078533 -301930,-7078534 -301928,-7078534 -301926,-7078535 -301924,-7078535 -301922,-7078536 -301920,-7078537 -301918,-7078538 -301916,-7078539 -301914,-7078540 -301914,-7078541 -301912,-7078542 -301910,-7078543 -301908,-7078545 -301907,-7078547 -301905,-7078548 -301904,-7078550 -301902,-7078552 -301901,-7078554 -301900,-7078556 -301896,-7078562 -301894,-7078569 -301891,-7078576 -301890,-7078580 -301889,-7078584 -301888,-7078588 -301887,-7078593 -301886,-7078597 -301885,-7078601 -301884,-7078605 -301882,-7078609 -301880,-7078612 -301878,-7078617 -301876,-7078621 -301873,-7078626 -301870,-7078630 -301867,-7078635 -301864,-7078639 -301863,-7078641 -301859,-7078646 -301854,-7078652 -301849,-7078657 -301844,-7078662 -301838,-7078667 -301772,-7078713 -301770,-7078714 -301765,-7078718 -301760,-7078721 -301756,-7078725 -301751,-7078729 -301746,-7078732 -301741,-7078736 -301736,-7078739 -301731,-7078743 -301726,-7078746 -301721,-7078749 -301716,-7078752 -301711,-7078754 -301705,-7078756 -301699,-7078758 -301694,-7078760 -301688,-7078762 -301682,-7078764 -301676,-7078765 -301671,-7078754 -301624,-7078660 -301596,-7078609 -301554,-7078628 -301520,-7078567 -301517,-7078559 -301514,-7078550 -301511,-7078542 -301508,-7078533 -301506,-7078524 -301505,-7078521 -301503,-7078512 -301501,-7078503 -301499,-7078494 -301498,-7078485 -301497,-7078476 -301496,-7078467 -301496,-7078467 -301495,-7078457 -301494,-7078447 -301495,-7078437 -301495,-7078428 -301495,-7078418 -301495,-7078408 -301495,-7078398 -301495,-7078335 -301497,-7078289 -301493,-7078246 -301488,-7078192 -301476,-7078123 -301454,-7077997 -301432,-7077896 -301424,-7077846 -301412,-7077734 -301402,-7077641 -301400,-7077627 -301381,-7077502 -301360,-7077365 -301349,-7077276 -301343,-7077250 -301336,-7077232 -301321,-7077202 -301277,-7077108 -301259,-7077077 -301235,-7077094 -301218,-7077106 -301210,-7077112 -301203,-7077117 -301180,-7077071 -301188,-7077064 -301200,-7077054 -301217,-7077040 -301230,-7077029 -301190,-7076957 -301170,-7076921 -301151,-7076927 -301138,-7076932 -301136,-7076933 -301086,-7076948 -301037,-7076964 -300988,-7076979 -300956,-7076883 -300930,-7076808 -300924,-7076786 -300913,-7076769 -300865,-7076791 -300841,-7076805 -300820,-7076814 -300783,-7076824 -300748,-7076840 -300710,-7076855 -300677,-7076870 -300654,-7076882 -300642,-7076889 -300617,-7076861 -300616,-7076860 -300598,-7076840 -300581,-7076820 -300564,-7076800 -300556,-7076789 -300530,-7076755 -300529,-7076754 -300528,-7076752 -300526,-7076750 -300525,-7076748 -300518,-7076733 -300507,-7076708 -300463,-7076607 -300460,-7076600 -300454,-7076587 -300449,-7076573 -300444,-7076560 -300441,-7076550 -300437,-7076537 -300433,-7076523 -300435,-7076483 -300439,-7076405 -300303,-7076382 -300201,-7076374 -300177,-7076445 -300177,-7076445 -300171,-7076446 -300166,-7076447 -300164,-7076447 -300160,-7076447 -300156,-7076447 -300151,-7076448 -300146,-7076448 -300140,-7076447 -300135,-7076447 -300129,-7076446 -300127,-7076446 -300124,-7076445 -300120,-7076445 -300117,-7076444 -300113,-7076443 -300110,-7076442 -300106,-7076441 -300100,-7076439 -300092,-7076436 -300087,-7076434 -300084,-7076432 -300080,-7076431 -300077,-7076429 -300075,-7076428 -300074,-7076427 -300073,-7076426 -300072,-7076425 -300070,-7076424 -300069,-7076423 -300068,-7076422 -300066,-7076421 -300065,-7076421 -300064,-7076420 -300063,-7076419 -300061,-7076419 -300059,-7076418 -300056,-7076418 -300054,-7076418 -300051,-7076418 -300048,-7076418 -300045,-7076418 -300042,-7076419 -300039,-7076419 -300037,-7076420 -300035,-7076420 -300033,-7076421 -300031,-7076422 -300029,-7076422 -300027,-7076423 -300024,-7076423 -300023,-7076423 -300021,-7076424 -300019,-7076424 -300018,-7076424 -300016,-7076424 -300014,-7076424 -300012,-7076424 -300010,-7076423 -300008,-7076423 -300007,-7076423 -300005,-7076422 -300003,-7076422 -300001,-7076421 -299999,-7076420 -299997,-7076419 -299996,-7076419 -299993,-7076419 -299990,-7076419 -299988,-7076418 -299986,-7076418 -299984,-7076417 -299982,-7076417 -299979,-7076416 -299977,-7076415 -299974,-7076414 -299969,-7076412 -299967,-7076411 -299966,-7076410 -299963,-7076409 -299962,-7076408 -299960,-7076408 -299959,-7076407 -299957,-7076407 -299956,-7076407 -299955,-7076406 -299953,-7076406 -299951,-7076406 -299947,-7076406 -299943,-7076406 -299927,-7076409 -299925,-7076410 -299922,-7076410 -299918,-7076411 -299916,-7076411 -299914,-7076412 -299911,-7076413 -299909,-7076414 -299906,-7076415 -299900,-7076416 -299893,-7076418 -299888,-7076419 -299881,-7076421 -299867,-7076423 -299855,-7076425 -299837,-7076428 -299831,-7076428 -299823,-7076430 -299815,-7076431 -299813,-7076431 -299810,-7076432 -299807,-7076432 -299804,-7076433 -299802,-7076433 -299800,-7076434 -299797,-7076435 -299795,-7076436 -299792,-7076436 -299792,-7076437 -299790,-7076437 -299788,-7076437 -299786,-7076437 -299785,-7076438 -299783,-7076438 -299781,-7076438 -299779,-7076438 -299778,-7076438 -299777,-7076438 -299773,-7076437 -299769,-7076436 -299766,-7076436 -299762,-7076435 -299759,-7076434 -299732,-7076421 -299730,-7076420 -299718,-7076414 -299706,-7076408 -299703,-7076407 -299701,-7076405 -299699,-7076404 -299695,-7076401 -299692,-7076400 -299690,-7076398 -299688,-7076397 -299685,-7076396 -299683,-7076394 -299680,-7076394 -299679,-7076393 -299678,-7076393 -299676,-7076392 -299675,-7076392 -299673,-7076392 -299671,-7076391 -299668,-7076392 -299664,-7076392 -299661,-7076393 -299659,-7076393 -299657,-7076393 -299655,-7076394 -299653,-7076394 -299651,-7076395 -299649,-7076395 -299648,-7076395 -299648,-7076395 -299646,-7076395 -299645,-7076395 -299644,-7076395 -299644,-7076395 -299643,-7076395 -299642,-7076395 -299641,-7076395 -299640,-7076395 -299634,-7076389 -299632,-7076388 -299628,-7076385 -299624,-7076381 -299624,-7076381 -299623,-7076380 -299622,-7076380 -299622,-7076379 -299621,-7076379 -299620,-7076378 -299619,-7076378 -299619,-7076377 -299617,-7076377 -299616,-7076376 -299615,-7076376 -299613,-7076376 -299612,-7076376 -299611,-7076376 -299609,-7076376 -299608,-7076377 -299607,-7076377 -299606,-7076377 -299604,-7076377 -299602,-7076378 -299601,-7076378 -299600,-7076379 -299600,-7076379 -299599,-7076380 -299597,-7076380 -299595,-7076380 -299592,-7076380 -299591,-7076380 -299590,-7076380 -299588,-7076379 -299587,-7076377 -299585,-7076376 -299584,-7076375 -299583,-7076375 -299580,-7076374 -299578,-7076373 -299577,-7076373 -299576,-7076373 -299576,-7076373 -299575,-7076373 -299574,-7076372 -299574,-7076372 -299573,-7076372 -299573,-7076371 -299572,-7076371 -299572,-7076371 -299571,-7076370 -299571,-7076370 -299571,-7076370 -299570,-7076369 -299570,-7076369 -299570,-7076368 -299570,-7076368 -299569,-7076366 -299570,-7076362 -299570,-7076357 -299570,-7076356 -299571,-7076355 -299571,-7076355 -299571,-7076354 -299571,-7076353 -299571,-7076353 -299571,-7076352 -299571,-7076351 -299570,-7076349 -299570,-7076348 -299569,-7076348 -299569,-7076347 -299568,-7076347 -299567,-7076347 -299566,-7076347 -299564,-7076348 -299563,-7076349 -299561,-7076349 -299561,-7076349 -299561,-7076349 -299560,-7076349 -299559,-7076349 -299559,-7076349 -299558,-7076350 -299558,-7076350 -299557,-7076350 -299557,-7076350 -299556,-7076350 -299556,-7076349 -299555,-7076349 -299555,-7076349 -299554,-7076348 -299554,-7076347 -299553,-7076345 -299553,-7076344 -299552,-7076343 -299552,-7076342 -299551,-7076341 -299551,-7076340 -299551,-7076339 -299550,-7076339 -299549,-7076338 -299549,-7076337 -299548,-7076337 -299548,-7076336 -299547,-7076336 -299546,-7076336 -299545,-7076335 -299545,-7076335 -299544,-7076335 -299543,-7076334 -299542,-7076334 -299542,-7076333 -299540,-7076331 -299539,-7076330 -299538,-7076329 -299537,-7076328 -299536,-7076327 -299535,-7076326 -299534,-7076325 -299533,-7076324 -299532,-7076324 -299531,-7076323 -299529,-7076323 -299528,-7076322 -299527,-7076322 -299526,-7076322 -299525,-7076322 -299523,-7076321 -299522,-7076321 -299521,-7076321 -299520,-7076321 -299518,-7076321 -299517,-7076321 -299516,-7076320 -299515,-7076320 -299512,-7076318 -299510,-7076316 -299508,-7076314 -299506,-7076311 -299504,-7076309 -299503,-7076308 -299501,-7076306 -299500,-7076305 -299500,-7076304 -299499,-7076303 -299498,-7076302 -299497,-7076301 -299496,-7076299 -299496,-7076298 -299496,-7076298 -299495,-7076296 -299495,-7076295 -299495,-7076293 -299494,-7076292 -299494,-7076291 -299494,-7076289 -299494,-7076288 -299493,-7076286 -299493,-7076286 -299492,-7076285 -299492,-7076284 -299491,-7076283 -299491,-7076282 -299490,-7076281 -299490,-7076280 -299489,-7076279 -299488,-7076278 -299488,-7076277 -299487,-7076277 -299486,-7076276 -299486,-7076275 -299485,-7076275 -299484,-7076274 -299483,-7076273 -299482,-7076273 -299481,-7076273 -299481,-7076272 -299479,-7076272 -299478,-7076272 -299477,-7076271 -299475,-7076271 -299475,-7076271 -299473,-7076271 -299470,-7076271 -299468,-7076271 -299466,-7076272 -299464,-7076272 -299463,-7076272 -299457,-7076274 -299451,-7076276 -299447,-7076278 -299442,-7076279 -299437,-7076280 -299433,-7076281 -299432,-7076281 -299427,-7076282 -299422,-7076282 -299421,-7076282 -299420,-7076282 -299418,-7076282 -299417,-7076282 -299416,-7076282 -299415,-7076282 -299413,-7076283 -299412,-7076283 -299411,-7076283 -299410,-7076283 -299409,-7076284 -299408,-7076284 -299407,-7076285 -299407,-7076285 -299405,-7076286 -299403,-7076286 -299401,-7076286 -299399,-7076286 -299396,-7076286 -299394,-7076286 -299389,-7076286 -299388,-7076286 -299387,-7076286 -299386,-7076286 -299385,-7076286 -299384,-7076286 -299383,-7076286 -299382,-7076286 -299381,-7076286 -299380,-7076287 -299378,-7076287 -299377,-7076287 -299377,-7076287 -299376,-7076288 -299375,-7076287 -299374,-7076287 -299373,-7076287 -299372,-7076287 -299371,-7076286 -299370,-7076286 -299369,-7076286 -299368,-7076286 -299367,-7076286 -299366,-7076286 -299366,-7076286 -299365,-7076286 -299363,-7076287 -299362,-7076287 -299360,-7076287 -299357,-7076287 -299354,-7076287 -299354,-7076287 -299352,-7076287 -299350,-7076287 -299348,-7076287 -299345,-7076286 -299341,-7076285 -299338,-7076284 -299336,-7076284 -299335,-7076284 -299334,-7076284 -299332,-7076284 -299331,-7076283 -299330,-7076283 -299329,-7076283 -299328,-7076283 -299327,-7076283 -299326,-7076282 -299325,-7076282 -299324,-7076281 -299322,-7076279 -299320,-7076278 -299320,-7076278 -299319,-7076277 -299318,-7076277 -299316,-7076276 -299315,-7076275 -299315,-7076275 -299314,-7076275 -299313,-7076274 -299313,-7076274 -299312,-7076274 -299312,-7076274 -299311,-7076274 -299310,-7076274 -299308,-7076275 -299307,-7076276 -299305,-7076277 -299303,-7076278 -299302,-7076279 -299301,-7076280 -299301,-7076280 -299301,-7076281 -299300,-7076281 -299299,-7076282 -299299,-7076283 -299299,-7076283 -299298,-7076283 -299298,-7076283 -299298,-7076284 -299297,-7076284 -299297,-7076284 -299296,-7076284 -299296,-7076284 -299294,-7076284 -299293,-7076283 -299292,-7076282 -299291,-7076282 -299290,-7076282 -299289,-7076282 -299288,-7076282 -299287,-7076282 -299287,-7076281 -299285,-7076282 -299283,-7076282 -299281,-7076282 -299279,-7076283 -299278,-7076283 -299278,-7076283 -299277,-7076283 -299276,-7076284 -299275,-7076284 -299275,-7076284 -299274,-7076285 -299274,-7076285 -299273,-7076285 -299273,-7076286 -299272,-7076286 -299272,-7076286 -299271,-7076287 -299271,-7076287 -299271,-7076287 -299271,-7076288 -299271,-7076288 -299271,-7076289 -299271,-7076289 -299271,-7076289 -299271,-7076289 -299272,-7076290 -299272,-7076290 -299272,-7076290 -299273,-7076290 -299273,-7076291 -299273,-7076291 -299273,-7076292 -299274,-7076292 -299274,-7076292 -299274,-7076293 -299273,-7076293 -299273,-7076294 -299273,-7076294 -299273,-7076295 -299273,-7076295 -299272,-7076296 -299272,-7076297 -299271,-7076297 -299271,-7076298 -299270,-7076298 -299270,-7076298 -299269,-7076299 -299268,-7076299 -299267,-7076299 -299266,-7076300 -299265,-7076300 -299263,-7076300 -299261,-7076300 -299259,-7076300 -299257,-7076300 -299255,-7076299 -299253,-7076299 -299250,-7076298 -299248,-7076298 -299247,-7076297 -299246,-7076297 -299245,-7076296 -299244,-7076296 -299243,-7076295 -299242,-7076295 -299241,-7076294 -299240,-7076293 -299239,-7076293 -299238,-7076292 -299237,-7076291 -299236,-7076290 -299236,-7076289 -299235,-7076289 -299234,-7076288 -299234,-7076287 -299233,-7076286 -299233,-7076285 -299233,-7076284 -299232,-7076283 -299232,-7076282 -299232,-7076280 -299231,-7076280 -299231,-7076279 -299231,-7076278 -299231,-7076278 -299231,-7076277 -299231,-7076277 -299231,-7076276 -299232,-7076275 -299233,-7076274 -299233,-7076273 -299235,-7076271 -299235,-7076271 -299236,-7076271 -299236,-7076271 -299237,-7076270 -299237,-7076270 -299238,-7076270 -299238,-7076270 -299239,-7076269 -299239,-7076269 -299239,-7076269 -299240,-7076268 -299240,-7076268 -299240,-7076268 -299240,-7076267 -299240,-7076267 -299240,-7076266 -299240,-7076266 -299240,-7076265 -299240,-7076265 -299240,-7076264 -299240,-7076264 -299239,-7076263 -299238,-7076262 -299236,-7076262 -299234,-7076262 -299232,-7076261 -299232,-7076261 -299231,-7076260 -299230,-7076259 -299228,-7076259 -299228,-7076258 -299227,-7076258 -299226,-7076258 -299225,-7076257 -299225,-7076257 -299224,-7076257 -299223,-7076256 -299222,-7076256 -299221,-7076256 -299220,-7076256 -299220,-7076256 -299219,-7076256 -299218,-7076256 -299217,-7076257 -299216,-7076257 -299211,-7076259 -299211,-7076260 -299210,-7076260 -299209,-7076261 -299207,-7076261 -299206,-7076262 -299205,-7076262 -299204,-7076263 -299203,-7076263 -299201,-7076263 -299200,-7076263 -299199,-7076263 -299198,-7076263 -299197,-7076263 -299196,-7076263 -299196,-7076263 -299194,-7076263 -299192,-7076262 -299190,-7076262 -299189,-7076261 -299188,-7076261 -299187,-7076261 -299186,-7076260 -299185,-7076260 -299184,-7076260 -299183,-7076260 -299182,-7076260 -299181,-7076260 -299181,-7076260 -299180,-7076260 -299179,-7076260 -299178,-7076261 -299178,-7076261 -299177,-7076261 -299176,-7076262 -299175,-7076262 -299175,-7076263 -299174,-7076264 -299173,-7076265 -299173,-7076266 -299172,-7076266 -299172,-7076267 -299171,-7076267 -299171,-7076267 -299170,-7076267 -299170,-7076268 -299169,-7076268 -299168,-7076268 -299168,-7076268 -299167,-7076269 -299167,-7076269 -299166,-7076269 -299166,-7076269 -299165,-7076269 -299165,-7076269 -299164,-7076269 -299162,-7076267 -299160,-7076265 -299144,-7076254 -299143,-7076254 -299142,-7076253 -299141,-7076252 -299140,-7076251 -299139,-7076250 -299137,-7076249 -299132,-7076248 -299123,-7076246 -299121,-7076246 -299120,-7076245 -299118,-7076245 -299116,-7076245 -299115,-7076244 -299114,-7076244 -299113,-7076244 -299112,-7076243 -299110,-7076243 -299109,-7076241 -299107,-7076240 -299105,-7076238 -299104,-7076235 -299102,-7076233 -299100,-7076232 -299099,-7076231 -299098,-7076229 -299097,-7076229 -299096,-7076228 -299095,-7076228 -299095,-7076227 -299094,-7076227 -299093,-7076226 -299091,-7076226 -299089,-7076226 -299087,-7076225 -299086,-7076225 -299082,-7076222 -299078,-7076220 -299074,-7076217 -299070,-7076215 -299063,-7076212 -299034,-7076203 -299031,-7076202 -299028,-7076200 -299024,-7076199 -299021,-7076197 -299017,-7076196 -299014,-7076195 -299010,-7076193 -299007,-7076192 -299003,-7076191 -299000,-7076190 -298996,-7076189 -298993,-7076188 -298989,-7076188 -298985,-7076187 -298985,-7076187 -298983,-7076187 -298982,-7076187 -298980,-7076187 -298979,-7076186 -298977,-7076186 -298976,-7076186 -298975,-7076186 -298974,-7076186 -298973,-7076186 -298971,-7076186 -298970,-7076187 -298969,-7076187 -298968,-7076187 -298966,-7076189 -298963,-7076191 -298961,-7076192 -298959,-7076193 -298954,-7076198 -298949,-7076202 -298947,-7076205 -298945,-7076207 -298942,-7076209 -298940,-7076211 -298938,-7076214 -298937,-7076214 -298934,-7076217 -298930,-7076219 -298927,-7076221 -298923,-7076224 -298919,-7076226 -298917,-7076227 -298916,-7076228 -298914,-7076229 -298912,-7076229 -298910,-7076230 -298909,-7076231 -298907,-7076231 -298905,-7076232 -298903,-7076232 -298900,-7076233 -298898,-7076233 -298887,-7076223 -298856,-7076219 -298856,-7076219 -298855,-7076219 -298854,-7076220 -298853,-7076220 -298852,-7076220 -298851,-7076220 -298850,-7076220 -298849,-7076220 -298848,-7076220 -298848,-7076220 -298847,-7076220 -298846,-7076220 -298845,-7076220 -298844,-7076219 -298843,-7076219 -298842,-7076219 -298841,-7076218 -298841,-7076218 -298840,-7076217 -298836,-7076213 -298835,-7076213 -298835,-7076212 -298834,-7076211 -298833,-7076210 -298832,-7076209 -298832,-7076208 -298831,-7076207 -298830,-7076206 -298829,-7076205 -298829,-7076205 -298825,-7076204 -298822,-7076202 -298818,-7076201 -298815,-7076201 -298811,-7076200 -298797,-7076198 -298783,-7076197 -298776,-7076196 -298767,-7076195 -298759,-7076195 -298751,-7076194 -298743,-7076194 -298741,-7076194 -298733,-7076195 -298725,-7076195 -298700,-7076195 -298696,-7076168 -298691,-7076161 -298677,-7076142 -298660,-7076119 -298657,-7076116 -298654,-7076112 -298652,-7076108 -298648,-7076105 -298645,-7076101 -298642,-7076098 -298639,-7076095 -298635,-7076092 -298635,-7076091 -298634,-7076090 -298633,-7076089 -298632,-7076088 -298631,-7076088 -298629,-7076085 -298628,-7076084 -298627,-7076083 -298626,-7076082 -298625,-7076082 -298624,-7076081 -298624,-7076080 -298623,-7076079 -298622,-7076079 -298621,-7076078 -298620,-7076078 -298619,-7076077 -298618,-7076077 -298617,-7076077 -298615,-7076077 -298615,-7076077 -298613,-7076077 -298612,-7076077 -298610,-7076077 -298608,-7076078 -298607,-7076078 -298605,-7076078 -298604,-7076079 -298603,-7076079 -298601,-7076080 -298599,-7076082 -298597,-7076083 -298594,-7076084 -298594,-7076085 -298593,-7076086 -298591,-7076087 -298590,-7076089 -298588,-7076090 -298586,-7076093 -298584,-7076095 -298583,-7076096 -298582,-7076097 -298580,-7076099 -298578,-7076100 -298577,-7076100 -298576,-7076101 -298575,-7076102 -298574,-7076102 -298573,-7076103 -298572,-7076103 -298570,-7076104 -298569,-7076104 -298568,-7076105 -298567,-7076105 -298566,-7076105 -298564,-7076105 -298563,-7076106 -298562,-7076106 -298561,-7076106 -298560,-7076105 -298559,-7076105 -298558,-7076105 -298556,-7076105 -298555,-7076105 -298554,-7076104 -298553,-7076104 -298552,-7076103 -298551,-7076103 -298551,-7076103 -298550,-7076102 -298549,-7076102 -298548,-7076102 -298547,-7076101 -298547,-7076100 -298546,-7076100 -298545,-7076099 -298545,-7076099 -298544,-7076098 -298543,-7076097 -298543,-7076096 -298542,-7076096 -298542,-7076095 -298542,-7076094 -298541,-7076093 -298541,-7076091 -298541,-7076089 -298541,-7076087 -298541,-7076086 -298541,-7076084 -298542,-7076082 -298546,-7076068 -298546,-7076068 -298547,-7076066 -298548,-7076063 -298549,-7076061 -298550,-7076058 -298551,-7076056 -298552,-7076054 -298552,-7076051 -298553,-7076049 -298553,-7076048 -298553,-7076047 -298554,-7076045 -298554,-7076044 -298554,-7076043 -298554,-7076042 -298554,-7076041 -298554,-7076040 -298555,-7076038 -298555,-7076037 -298554,-7076036 -298554,-7076035 -298554,-7076034 -298553,-7076033 -298552,-7076031 -298551,-7076029 -298550,-7076028 -298549,-7076026 -298547,-7076025 -298546,-7076023 -298544,-7076022 -298542,-7076021 -298540,-7076020 -298536,-7076017 -298531,-7076015 -298526,-7076012 -298523,-7076010 -298518,-7076007 -298513,-7076004 -298437,-7075965 -298425,-7075956 -298411,-7075969 -298372,-7075941 -298356,-7075931 -298356,-7075890 -298357,-7075879 -298318,-7075867 -298312,-7075865 -298264,-7075852 -298232,-7075834 -298212,-7075827 -298209,-7075827 -298163,-7075822 -298137,-7075817 -298114,-7075817 -298086,-7075808 -298032,-7075827 -298001,-7075834 -297973,-7075832 -297942,-7075826 -297922,-7075824 -297858,-7075838 -297820,-7075838 -297800,-7075843 -297767,-7075841 -297675,-7075877 -297674,-7075892 -297669,-7075899 -297663,-7075907 -297650,-7075912 -297636,-7075904 -297632,-7075891 -297623,-7075877 -297603,-7075865 -297587,-7075861 -297570,-7075857 -297521,-7075855 -297493,-7075853 -297437,-7075865 -297401,-7075853 -297353,-7075876 -297334,-7075887 -297322,-7075910 -297276,-7075924 -297257,-7075942 -297238,-7075940 -297195,-7075932 -297186,-7075934 -297180,-7075940 -297180,-7075983 -297180,-7076007 -297154,-7076013 -297129,-7076016 -297055,-7076056 -297038,-7076057 -297008,-7076049 -296965,-7076032 -296935,-7076015 -296924,-7076010 -296903,-7076005 -296895,-7076004 -296882,-7076000 -296870,-7075996 -296840,-7075983 -296835,-7075982 -296817,-7075983 -296813,-7075981 -296810,-7075979 -296810,-7075975 -296811,-7075970 -296816,-7075961 -296815,-7075954 -296792,-7075937 -296785,-7075903 -296774,-7075873 -296774,-7075856 -296779,-7075832 -296780,-7075822 -296781,-7075773 -296776,-7075755 -296773,-7075748 -296769,-7075741 -296759,-7075728 -296754,-7075721 -296749,-7075713 -296747,-7075704 -296746,-7075696 -296756,-7075682 -296755,-7075676 -296752,-7075670 -296740,-7075658 -296737,-7075652 -296728,-7075627 -296717,-7075607 -296696,-7075580 -296694,-7075571 -296693,-7075549 -296693,-7075542 -296695,-7075529 -296691,-7075508 -296655,-7075444 -296651,-7075436 -296644,-7075415 -296643,-7075405 -296644,-7075387 -296645,-7075379 -296649,-7075367 -296652,-7075340 -296653,-7075297 -296655,-7075279 -296653,-7075269 -296604,-7075193 -296601,-7075186 -296593,-7075153 -296584,-7075124 -296566,-7075086 -296553,-7075065 -296547,-7075051 -296543,-7075036 -296540,-7075029 -296538,-7075025 -296535,-7075023 -296531,-7075022 -296527,-7075022 -296520,-7075024 -296516,-7075023 -296512,-7075022 -296499,-7075011 -296492,-7075003 -296485,-7074997 -296472,-7074986 -296456,-7074978 -296451,-7074978 -296444,-7074976 -296439,-7074970 -296431,-7074956 -296426,-7074950 -296422,-7074949 -296417,-7074950 -296412,-7074952 -296400,-7074961 -296393,-7074963 -296388,-7074963 -296385,-7074962 -296380,-7074957 -296378,-7074954 -296378,-7074950 -296378,-7074946 -296383,-7074940 -296388,-7074935 -296391,-7074929 -296389,-7074924 -296376,-7074910 -296342,-7074887 -296334,-7074884 -296324,-7074891 -296315,-7074901 -296313,-7074902 -296311,-7074902 -296307,-7074902 -296304,-7074900 -296302,-7074898 -296299,-7074891 -296294,-7074876 -296287,-7074866 -296262,-7074842 -296330,-7074788 -296368,-7074753 -296417,-7074722 -296456,-7074690 -296436,-7074677 -296403,-7074658 -296385,-7074650 -296374,-7074646 -296341,-7074640 -296264,-7074620 -296210,-7074601 -296138,-7074579 -296100,-7074574 -296085,-7074573 -296050,-7074573 -296012,-7074577 -295745,-7074626 -295721,-7074529 -295691,-7074420 -295671,-7074351 -295664,-7074334 -295660,-7074318 -295656,-7074300 -295654,-7074274 -295655,-7074228 -295655,-7074217 -295654,-7074213 -295652,-7074185 -295645,-7074146 -295616,-7074042 -295604,-7074003 -295592,-7073964 -295559,-7073867 -295545,-7073820 -295531,-7073773 -295502,-7073663 -295475,-7073578 -295458,-7073516 -295449,-7073491 -295362,-7073489 -295333,-7073487 -295312,-7073452 -295316,-7073382 -295316,-7073305 -295237,-7073272 -295209,-7073283 -295202,-7073240 -295167,-7073215 -295143,-7073179 -295043,-7073038 -295001,-7072981 -294958,-7072924 -294789,-7072715 -294774,-7072695 -294722,-7072638 -294699,-7072614 -294673,-7072587 -294515,-7072433 -294499,-7072419 -294500,-7072330 -294420,-7072338 -294389,-7072317 -294126,-7072336 -293948,-7072344 -293813,-7072353 -293712,-7072372 -293680,-7072376 -293647,-7072378 -293631,-7072378 -293595,-7072363 -293420,-7072399 -293228,-7072447 -293120,-7072475 -293055,-7072456 -293000,-7072438 -292892,-7072446 -292720,-7072489 -292538,-7072496 -292270,-7072515 -292084,-7072529 -291912,-7072547 -291746,-7072577 -291659,-7072612 -291655,-7072613 -291629,-7072617 -291603,-7072617 -291521,-7072627 -291310,-7072613 -291224,-7072612 -291202,-7072611 -291176,-7072576 -291134,-7072561 -291113,-7072546 -291093,-7072537 -291084,-7072534 -291073,-7072534 -291042,-7072540 -291034,-7072537 -291023,-7072531 -291010,-7072522 -290995,-7072509 -290985,-7072505 -290975,-7072504 -290970,-7072505 -290964,-7072508 -290944,-7072520 -290935,-7072525 -290923,-7072528 -290918,-7072527 -290901,-7072521 -290896,-7072521 -290871,-7072522 -290862,-7072523 -290855,-7072523 -290847,-7072521 -290837,-7072517 -290817,-7072507 -290781,-7072496 -290785,-7072380 -290791,-7072300 -290796,-7072231 -290800,-7072097 -290792,-7072054 -290793,-7071993 -290817,-7071992 -290862,-7071988 -290890,-7071953 -290898,-7071941 -290886,-7071932 -290873,-7071923 -290861,-7071914 -290850,-7071905 -290838,-7071895 -290826,-7071885 -290820,-7071879 -290801,-7071863 -290792,-7071854 -290789,-7071853 -290785,-7071781 -290471,-7071667 -290447,-7071548 -290772,-7071674 -290762,-7071546 -290756,-7071442 -290754,-7071384 -290752,-7071348 -290736,-7071289 -290711,-7071213 -290689,-7071203 -290663,-7071187 -290648,-7071170 -290638,-7071152 -290624,-7071117 -290598,-7071060 -290579,-7071017 -290491,-7070864 -290401,-7070716 -290306,-7070567 -290355,-7070485 -290355,-7070485 -290358,-7070486 -290361,-7070487 -290365,-7070488 -290368,-7070489 -290371,-7070490 -290374,-7070490 -290377,-7070491 -290380,-7070491 -290384,-7070491 -290387,-7070491 -290390,-7070491 -290392,-7070491 -290394,-7070490 -290396,-7070490 -290398,-7070489 -290400,-7070489 -290403,-7070488 -290405,-7070487 -290407,-7070486 -290409,-7070485 -290411,-7070484 -290413,-7070483 -290415,-7070482 -290418,-7070480 -290422,-7070478 -290425,-7070476 -290428,-7070473 -290431,-7070471 -290507,-7070491 -290583,-7070506 -290617,-7070513 -290650,-7070452 -290672,-7070409 -290674,-7070405 -290678,-7070401 -290681,-7070400 -290689,-7070400 -290696,-7070403 -290720,-7070422 -290752,-7070441 -290785,-7070456 -290794,-7070458 -290803,-7070460 -290831,-7070458 -290867,-7070472 -290890,-7070474 -290969,-7070476 -290988,-7070479 -291050,-7070480 -291043,-7070464 -291040,-7070454 -291038,-7070443 -291037,-7070431 -291037,-7070388 -291038,-7070373 -291041,-7070343 -291045,-7070321 -291049,-7070307 -291072,-7070227 -291087,-7070196 -291088,-7070166 -291059,-7070157 -291043,-7070150 -291075,-7070058 -291090,-7070057 -291103,-7070033 -291112,-7070011 -291199,-7070052 -291207,-7070017 -291208,-7069984 -291204,-7069962 -291221,-7069900 -291243,-7069835 -291258,-7069799 -291261,-7069793 -291265,-7069788 -291297,-7069775 -291301,-7069745 -291302,-7069732 -291301,-7069720 -291296,-7069709 -291287,-7069700 -291275,-7069676 -291265,-7069648 -291254,-7069633 -291250,-7069629 -291223,-7069606 -291211,-7069594 -291200,-7069581 -291183,-7069557 -291162,-7069531 -291136,-7069506 -291117,-7069485 -291116,-7069480 -291113,-7069470 -291113,-7069460 -291114,-7069449 -291118,-7069438 -291121,-7069432 -291134,-7069411 -291144,-7069403 -291143,-7069380 -291155,-7069312 -291155,-7069267 -291155,-7069257 -291152,-7069244 -291148,-7069233 -291140,-7069216 -291137,-7069211 -291134,-7069209 -291126,-7069205 -291118,-7069205 -291104,-7069198 -291092,-7069181 -291083,-7069170 -291068,-7069152 -291037,-7069110 -291018,-7069087 -291010,-7069080 -291001,-7069073 -290965,-7069052 -290959,-7069046 -290955,-7069039 -290952,-7069033 -290951,-7069027 -290951,-7069008 -290952,-7068997 -290955,-7068989 -290961,-7068969 -290963,-7068961 -290963,-7068952 -290961,-7068943 -290957,-7068936 -290946,-7068918 -290928,-7068899 -290920,-7068892 -290907,-7068884 -290890,-7068874 -290872,-7068867 -290856,-7068861 -290838,-7068857 -290808,-7068855 -290717,-7068839 -290682,-7068835 -290665,-7068837 -290635,-7068842 -290610,-7068848 -290603,-7068848 -290596,-7068848 -290583,-7068845 -290569,-7068841 -290532,-7068824 -290462,-7068795 -290445,-7068787 -290443,-7068731 -290379,-7068774 -290319,-7068790 -290266,-7068810 -290224,-7068819 -290209,-7068824 -290199,-7068826 -290190,-7068827 -290177,-7068827 -290157,-7068825 -290137,-7068822 -290114,-7068815 -290105,-7068810 -290059,-7068785 -290032,-7068773 -290003,-7068768 -289952,-7068767 -289942,-7068766 -289933,-7068764 -289923,-7068762 -289915,-7068758 -289908,-7068753 -289894,-7068741 -289885,-7068735 -289876,-7068729 -289867,-7068721 -289819,-7068712 -289813,-7068712 -289798,-7068715 -289791,-7068717 -289785,-7068721 -289775,-7068730 -289742,-7068741 -289599,-7068743 -289579,-7068741 -289566,-7068743 -289556,-7068746 -289550,-7068749 -289541,-7068754 -289534,-7068761 -289525,-7068770 -289498,-7068767 -289437,-7068735 -289399,-7068741 -289352,-7068748 -289350,-7068743 -289349,-7068740 -289347,-7068735 -289346,-7068729 -289345,-7068726 -289344,-7068722 -289343,-7068717 -289343,-7068712 -289342,-7068707 -289342,-7068702 -289341,-7068697 -289341,-7068692 -289340,-7068691 -289337,-7068678 -289335,-7068666 -289335,-7068662 -289335,-7068660 -289335,-7068658 -289336,-7068656 -289336,-7068654 -289337,-7068652 -289337,-7068650 -289338,-7068648 -289339,-7068646 -289339,-7068645 -289340,-7068644 -289341,-7068642 -289342,-7068641 -289343,-7068639 -289344,-7068638 -289345,-7068636 -289347,-7068635 -289348,-7068634 -289349,-7068633 -289350,-7068632 -289352,-7068631 -289353,-7068630 -289354,-7068629 -289356,-7068628 -289357,-7068628 -289359,-7068627 -289360,-7068626 -289361,-7068626 -289368,-7068621 -289369,-7068621 -289369,-7068620 -289370,-7068619 -289370,-7068618 -289371,-7068617 -289371,-7068616 -289372,-7068615 -289372,-7068614 -289373,-7068612 -289373,-7068610 -289374,-7068609 -289374,-7068607 -289375,-7068605 -289375,-7068603 -289375,-7068600 -289376,-7068598 -289376,-7068597 -289376,-7068592 -289377,-7068587 -289377,-7068581 -289378,-7068576 -289377,-7068571 -289377,-7068565 -289377,-7068560 -289377,-7068555 -289377,-7068549 -289377,-7068545 -289378,-7068510 -289377,-7068476 -289376,-7068466 -289375,-7068453 -289373,-7068441 -289371,-7068428 -289369,-7068416 -289367,-7068403 -289364,-7068391 -289361,-7068379 -289358,-7068369 -289354,-7068355 -289350,-7068342 -289345,-7068329 -289339,-7068316 -289334,-7068304 -289329,-7068291 -289323,-7068278 -289317,-7068265 -289312,-7068255 -289298,-7068224 -289292,-7068211 -289268,-7068164 -289238,-7068117 -289201,-7068072 -289139,-7068000 -289127,-7067988 -289114,-7067976 -289104,-7067967 -289101,-7067965 -289087,-7067953 -289074,-7067942 -289060,-7067931 -289046,-7067920 -289042,-7067917 -289032,-7067908 -289023,-7067901 -289014,-7067893 -289005,-7067886 -288997,-7067879 -288987,-7067873 -288978,-7067866 -288968,-7067860 -288959,-7067854 -288952,-7067850 -288942,-7067845 -288932,-7067839 -288922,-7067834 -288912,-7067829 -288901,-7067825 -288878,-7067813 -288845,-7067796 -288828,-7067790 -288810,-7067784 -288793,-7067778 -288791,-7067778 -288773,-7067772 -288755,-7067767 -288737,-7067762 -288718,-7067758 -288699,-7067754 -288685,-7067752 -288671,-7067750 -288657,-7067749 -288643,-7067748 -288629,-7067747 -288615,-7067746 -288600,-7067746 -288580,-7067746 -288559,-7067746 -288549,-7067746 -288539,-7067747 -288529,-7067748 -288518,-7067749 -288510,-7067752 -288491,-7067762 -288369,-7067784 -288313,-7067787 -288243,-7067800 -288168,-7067817 -288158,-7067777 -288134,-7067701 -288090,-7067691 -288016,-7067665 -287970,-7067647 -287950,-7067639 -287919,-7067610 -287884,-7067580 -287792,-7067523 -287746,-7067487 -287713,-7067462 -287698,-7067449 -287647,-7067398 -287595,-7067340 -287554,-7067295 -287632,-7067202 -287731,-7067080 -287639,-7066998 -287629,-7066896 -287623,-7066738 -287624,-7066710 -287618,-7066647 -287616,-7066571 -287607,-7066546 -287586,-7066492 -287573,-7066462 -287527,-7066391 -287498,-7066350 -287484,-7066338 -287454,-7066324 -287303,-7066273 -287147,-7066223 -287085,-7066201 -286862,-7065955 -286841,-7065936 -286865,-7065905 -286888,-7065875 -286930,-7065821 -286993,-7065737 -287020,-7065698 -287057,-7065639 -287065,-7065625 -287095,-7065564 -287135,-7065493 -287176,-7065405 -287205,-7065364 -287294,-7065245 -287354,-7065167 -287394,-7065116 -287439,-7065052 -287461,-7065021 -287481,-7065007 -287498,-7064996 -287526,-7064965 -287531,-7064960 -287562,-7064941 -287581,-7064937 -287602,-7064936 -287627,-7064939 -287642,-7064942 -287669,-7064916 -287715,-7064877 -287732,-7064864 -287769,-7064820 -287766,-7064760 -287776,-7064763 -287793,-7064768 -287795,-7064796 -287802,-7064824 -287814,-7064854 -287829,-7064885 -287850,-7064917 -287879,-7064961 -287936,-7065037 -287976,-7065094 -287984,-7065105 -287997,-7065125 -288011,-7065144 -288023,-7065164 -288031,-7065177 -288040,-7065192 -288048,-7065206 -288056,-7065221 -288063,-7065235 -288070,-7065250 -288077,-7065265 -288084,-7065280 -288089,-7065290 -288108,-7065325 -288145,-7065401 -288176,-7065466 -288177,-7065468 -288224,-7065564 -288258,-7065630 -288266,-7065645 -288280,-7065675 -288295,-7065704 -288310,-7065733 -288325,-7065758 -288334,-7065773 -288346,-7065823 -288359,-7065824 -288393,-7065879 -288439,-7065950 -288495,-7066028 -288537,-7066078 -288628,-7066176 -288712,-7066257 -288758,-7066293 -288802,-7066325 -288871,-7066372 -288923,-7066402 -288964,-7066436 -289027,-7066487 -289078,-7066534 -289148,-7066604 -289217,-7066676 -289284,-7066750 -289309,-7066735 -289306,-7066731 -289282,-7066696 -289250,-7066636 -289249,-7066634 -289198,-7066578 -289173,-7066524 -289150,-7066495 -289113,-7066450 -289090,-7066420 -289072,-7066380 -289058,-7066332 -289044,-7066251 -289029,-7066177 -289021,-7066103 -289003,-7065987 -288992,-7065922 -288982,-7065850 -288973,-7065800 -288970,-7065669 -288970,-7065523 -288972,-7065477 -288975,-7065429 -288977,-7065392 -288980,-7065379 -288986,-7065345 -288998,-7065321 -289011,-7065302 -289026,-7065289 -289043,-7065279 -289050,-7065277 -289058,-7065278 -289072,-7065278 -289082,-7065279 -289102,-7065283 -289261,-7065406 -289307,-7065439 -289333,-7065447 -289364,-7065453 -289393,-7065450 -289422,-7065448 -289452,-7065454 -289498,-7065461 -289516,-7065456 -289548,-7065405 -289577,-7065403 -289611,-7065362 -289642,-7065342 -289672,-7065287 -289699,-7065260 -289707,-7065258 -289715,-7065257 -289727,-7065258 -289749,-7065266 -289753,-7065266 -289780,-7065261 -289796,-7065257 -289822,-7065249 -289837,-7065252 -289889,-7065254 -289901,-7065257 -289912,-7065260 -289968,-7065291 -289976,-7065299 -289984,-7065304 -289992,-7065308 -290001,-7065311 -290009,-7065313 -290019,-7065313 -290033,-7065312 -290073,-7065323 -290136,-7065331 -290178,-7065315 -290238,-7065294 -290249,-7065292 -290260,-7065291 -290276,-7065292 -290288,-7065294 -290316,-7065290 -290359,-7065294 -290376,-7065295 -290486,-7065295 -290550,-7065255 -290564,-7065254 -290594,-7065244 -290656,-7065248 -290686,-7065218 -290690,-7065225 -290702,-7065229 -290702,-7065208 -290709,-7065206 -290712,-7065183 -290720,-7065164 -290735,-7065148 -290776,-7065119 -290808,-7065101 -290841,-7065087 -290906,-7065085 -290961,-7065076 -290974,-7065059 -290980,-7065022 -290989,-7065014 -291040,-7065013 -291051,-7065009 -291060,-7064997 -291066,-7064987 -291087,-7064979 -291127,-7064976 -291173,-7064950 -291192,-7064947 -291217,-7064936 -291219,-7064926 -291209,-7064884 -291225,-7064866 -291236,-7064861 -291271,-7064853 -291294,-7064823 -291295,-7064821 -291298,-7064806 -291322,-7064742 -291330,-7064732 -291347,-7064730 -291363,-7064719 -291353,-7064693 -291356,-7064655 -291371,-7064633 -291385,-7064601 -291403,-7064587 -291419,-7064569 -291435,-7064555 -291479,-7064554 -291501,-7064563 -291550,-7064558 -291561,-7064565 -291551,-7064581 -291553,-7064594 -291587,-7064587 -291607,-7064585 -291622,-7064578 -291609,-7064537 -291597,-7064522 -291572,-7064506 -291571,-7064495 -291587,-7064470 -291600,-7064464 -291618,-7064462 -291628,-7064467 -291637,-7064472 -291649,-7064471 -291655,-7064462 -291659,-7064440 -291673,-7064412 -291690,-7064399 -291705,-7064398 -291729,-7064407 -291763,-7064406 -291774,-7064389 -291773,-7064343 -291763,-7064304 -291762,-7064261 -291770,-7064252 -291794,-7064251 -291816,-7064244 -291867,-7064210 -291897,-7064200 -291910,-7064200 -291916,-7064213 -291926,-7064216 -291941,-7064211 -291957,-7064208 -291985,-7064222 -292005,-7064224 -292057,-7064202 -292080,-7064203 -292095,-7064204 -292107,-7064208 -292143,-7064210 -292161,-7064203 -292167,-7064201 -292174,-7064200 -292183,-7064199 -292190,-7064199 -292192,-7064199 -292194,-7064199 -292195,-7064199 -292197,-7064199 -292198,-7064199 -292200,-7064198 -292202,-7064198 -292203,-7064198 -292205,-7064197 -292206,-7064196 -292208,-7064196 -292209,-7064195 -292211,-7064194 -292212,-7064193 -292213,-7064192 -292215,-7064191 -292216,-7064190 -292217,-7064189 -292218,-7064188 -292220,-7064187 -292243,-7064168 -292246,-7064166 -292251,-7064162 -292256,-7064159 -292261,-7064155 -292266,-7064151 -292269,-7064148 -292274,-7064144 -292278,-7064139 -292303,-7064119 -292319,-7064102 -292324,-7064091 -292322,-7064066 -292318,-7064038 -292322,-7064017 -292336,-7063994 -292364,-7063955 -292395,-7063913 -292404,-7063900 -292408,-7063884 -292410,-7063858 -292405,-7063838 -292389,-7063810 -292383,-7063796 -292360,-7063763 -292377,-7063769 -292399,-7063770 -292435,-7063770 -292464,-7063764 -292487,-7063760 -292513,-7063769 -292537,-7063780 -292563,-7063803 -292586,-7063832 -292606,-7063838 -292632,-7063845 -292653,-7063845 -292678,-7063834 -292705,-7063835 -292729,-7063846 -292742,-7063864 -292760,-7063878 -292775,-7063897 -292793,-7063933 -292815,-7063999 -292825,-7064037 -292850,-7064075 -292860,-7064101 -292872,-7064128 -292879,-7064146 -292880,-7064175 -292885,-7064216 -292900,-7064257 -292933,-7064320 -292962,-7064357 -293002,-7064419 -293014,-7064456 -293010,-7064489 -293002,-7064537 -292988,-7064603 -292976,-7064612 -292951,-7064629 -292946,-7064641 -292939,-7064670 -292930,-7064705 -292933,-7064733 -292931,-7064747 -292929,-7064775 -292927,-7064832 -292930,-7064883 -292939,-7064929 -292956,-7064975 -292963,-7064988 -292969,-7065002 -292976,-7065015 -292979,-7065020 -292990,-7065040 -293002,-7065060 -293015,-7065079 -293019,-7065086 -293024,-7065093 -293028,-7065100 -293033,-7065107 -293038,-7065114 -293043,-7065121 -293048,-7065128 -293050,-7065130 -293056,-7065136 -293061,-7065142 -293067,-7065148 -293074,-7065154 -293080,-7065160 -293086,-7065166 -293143,-7065214 -293151,-7065221 -293160,-7065228 -293169,-7065235 -293178,-7065242 -293180,-7065244 -293185,-7065248 -293190,-7065251 -293195,-7065255 -293200,-7065258 -293205,-7065261 -293211,-7065264 -293215,-7065266 -293221,-7065269 -293228,-7065272 -293235,-7065275 -293242,-7065277 -293249,-7065280 -293253,-7065281 -293301,-7065291 -293344,-7065301 -293350,-7065301 -293355,-7065302 -293362,-7065305 -293369,-7065309 -293375,-7065316 -293386,-7065325 -293420,-7065348 -293454,-7065373 -293474,-7065384 -293487,-7065400 -293526,-7065429 -293536,-7065436 -293537,-7065436 -293559,-7065453 -293581,-7065469 -293595,-7065480 -293610,-7065492 -293624,-7065505 -293640,-7065517 -293655,-7065528 -293686,-7065548 -293688,-7065550 -293700,-7065559 -293712,-7065567 -293724,-7065576 -293725,-7065577 -293729,-7065581 -293752,-7065595 -293787,-7065625 -293789,-7065626 -293792,-7065627 -293795,-7065628 -293798,-7065629 -293801,-7065630 -293803,-7065630 -293806,-7065631 -293809,-7065631 -293812,-7065631 -293815,-7065632 -293818,-7065632 -293821,-7065632 -293824,-7065632 -293827,-7065631 -293830,-7065631 -293832,-7065630 -293836,-7065629 -293860,-7065621 -293885,-7065610 -293962,-7065593 -293982,-7065582 -294029,-7065555 -294064,-7065538 -294093,-7065531 -294143,-7065530 -294181,-7065533 -294247,-7065549 -294303,-7065570 -294347,-7065588 -294384,-7065596 -294439,-7065601 -294491,-7065604 -294513,-7065608 -294524,-7065615 -294529,-7065629 -294528,-7065643 -294517,-7065658 -294509,-7065679 -294509,-7065701 -294516,-7065722 -294543,-7065779 -294557,-7065806 -294578,-7065825 -294599,-7065833 -294630,-7065846 -294651,-7065861 -294671,-7065889 -294704,-7065933 -294725,-7065971 -294734,-7066004 -294752,-7066027 -294772,-7066048 -294788,-7066049 -294807,-7066044 -294848,-7066020 -294883,-7066004 -294908,-7065996 -294927,-7065993 -294941,-7066001 -294953,-7066024 -294964,-7066052 -294995,-7066072 -295009,-7066105 -295017,-7066115 -295042,-7066133 -295051,-7066142 -295056,-7066158 -295071,-7066176 -295084,-7066195 -295100,-7066225 -295118,-7066248 -295155,-7066273 -295198,-7066297 -295230,-7066320 -295259,-7066330 -295279,-7066333 -295302,-7066334 -295362,-7066332 -295450,-7066329 -295503,-7066325 -295524,-7066321 -295545,-7066304 -295560,-7066287 -295569,-7066282 -295586,-7066272 -295613,-7066264 -295655,-7066251 -295745,-7066224 -295809,-7066207 -295852,-7066195 -295877,-7066196 -295896,-7066203 -295953,-7066229 -295974,-7066243 -295985,-7066258 -295991,-7066277 -295999,-7066333 -296005,-7066358 -296013,-7066375 -296067,-7066430 -296080,-7066449 -296092,-7066469 -296103,-7066482 -296121,-7066486 -296162,-7066490 -296196,-7066493 -296218,-7066498 -296240,-7066509 -296288,-7066536 -296325,-7066549 -296351,-7066549 -296375,-7066546 -296417,-7066541 -296434,-7066535 -296459,-7066534 -296483,-7066538 -296510,-7066553 -296529,-7066569 -296541,-7066578 -296552,-7066578 -296563,-7066572 -296578,-7066562 -296609,-7066543 -296638,-7066532 -296665,-7066517 -296681,-7066516 -296694,-7066519 -296705,-7066527 -296719,-7066539 -296738,-7066558 -296760,-7066583 -296772,-7066596 -296784,-7066602 -296794,-7066601 -296824,-7066594 -296848,-7066582 -296872,-7066568 -296887,-7066565 -296900,-7066569 -296914,-7066583 -296937,-7066601 -296954,-7066606 -296970,-7066603 -296986,-7066600 -296997,-7066605 -297004,-7066617 -297011,-7066637 -297022,-7066656 -297040,-7066667 -297055,-7066673 -297071,-7066675 -297089,-7066670 -297103,-7066662 -297126,-7066644 -297147,-7066632 -297148,-7066632 -297168,-7066630 -297185,-7066633 -297204,-7066642 -297224,-7066652 -297244,-7066659 -297280,-7066657 -297296,-7066659 -297309,-7066666 -297324,-7066675 -297345,-7066695 -297368,-7066720 -297397,-7066757 -297430,-7066795 -297458,-7066810 -297481,-7066825 -297503,-7066843 -297512,-7066858 -297522,-7066882 -297533,-7066896 -297532,-7066911 -297531,-7066939 -297538,-7066946 -297552,-7066955 -297554,-7066964 -297555,-7066970 -297558,-7066990 -297577,-7067022 -297593,-7067036 -297606,-7067047 -297629,-7067124 -297631,-7067131 -297629,-7067134 -297623,-7067143 -297614,-7067154 -297609,-7067170 -297613,-7067186 -297630,-7067197 -297644,-7067202 -297665,-7067205 -297688,-7067210 -297702,-7067214 -297719,-7067218 -297758,-7067218 -297854,-7067210 -297865,-7067209 -297909,-7067206 -297959,-7067208 -297976,-7067207 -298002,-7067199 -298021,-7067194 -298020,-7067188 -298020,-7067171 -298022,-7067169 -298033,-7067162 -298048,-7067159 -298063,-7067153 -298069,-7067135 -298080,-7067098 -298094,-7067054 -298106,-7067004 -298107,-7066984 -298114,-7066973 -298125,-7066944 -298124,-7066935 -298133,-7066919 -298133,-7066904 -298133,-7066895 -298144,-7066884 -298172,-7066857 -298174,-7066822 -298177,-7066804 -298181,-7066781 -298178,-7066760 -298170,-7066744 -298159,-7066736 -298151,-7066728 -298129,-7066715 -298118,-7066702 -298103,-7066684 -298093,-7066666 -298085,-7066645 -298083,-7066636 -298078,-7066628 -298077,-7066617 -298081,-7066607 -298082,-7066604 -298082,-7066591 -298080,-7066577 -298075,-7066571 -298065,-7066569 -298058,-7066564 -298058,-7066559 -298074,-7066540 -298083,-7066528 -298084,-7066509 -298089,-7066489 -298085,-7066478 -298075,-7066470 -298075,-7066461 -298075,-7066443 -298072,-7066431 -298067,-7066418 -298052,-7066410 -298043,-7066402 -298042,-7066392 -298042,-7066361 -298045,-7066349 -298048,-7066338 -298044,-7066324 -298041,-7066311 -298049,-7066292 -298052,-7066272 -298055,-7066242 -298059,-7066227 -298071,-7066172 -298093,-7066099 -298122,-7066026 -298138,-7065987 -298142,-7065939 -298150,-7065871 -298160,-7065743 -298166,-7065661 -298190,-7065602 -298276,-7065645 -298367,-7065686 -298373,-7065664 -298402,-7065560 -298438,-7065440 -298485,-7065285 -298321,-7065222 -298317,-7065221 -298368,-7065109 -298502,-7064818 -298577,-7064661 -298576,-7064655 -298575,-7064646 -298572,-7064628 -298570,-7064611 -298569,-7064606 -298568,-7064602 -298567,-7064599 -298566,-7064596 -298505,-7064621 -298450,-7064643 -298381,-7064671 -298375,-7064674 -298336,-7064691 -298293,-7064710 -298266,-7064723 -298253,-7064728 -298211,-7064747 -298207,-7064640 -298183,-7064649 -298024,-7064702 -297927,-7064731 -297863,-7064759 -297724,-7064828 -297580,-7064895 -297446,-7064958 -297329,-7065013 -297318,-7065019 -297306,-7065025 -297295,-7065031 -297290,-7065033 -297278,-7065038 -297266,-7065043 -297255,-7065047 -297178,-7065025 -297139,-7065023 -297138,-7065023 -297113,-7065017 -297086,-7064999 -297078,-7064992 -297057,-7064973 -297045,-7064950 -297036,-7064921 -297036,-7064882 -297038,-7064871 -297040,-7064861 -297041,-7064851 -297044,-7064841 -297045,-7064834 -297048,-7064823 -297051,-7064812 -297055,-7064801 -297058,-7064789 -297062,-7064778 -297065,-7064771 -297075,-7064740 -297085,-7064709 -297094,-7064691 -297098,-7064684 -297102,-7064678 -297106,-7064671 -297110,-7064665 -297115,-7064659 -297119,-7064652 -297124,-7064646 -297126,-7064645 -297132,-7064637 -297148,-7064616 -297235,-7064535 -297257,-7064514 -297286,-7064507 -297315,-7064502 -297334,-7064489 -297392,-7064451 -297415,-7064424 -297427,-7064405 -297438,-7064373 -297438,-7064348 -297439,-7064333 -297433,-7064308 -297427,-7064285 -297409,-7064242 -297391,-7064199 -297384,-7064169 -297393,-7064112 -297397,-7064081 -297397,-7064080 -297399,-7064063 -297410,-7064045 -297424,-7064030 -297461,-7064002 -297502,-7063975 -297535,-7063964 -297608,-7063944 -297688,-7063924 -297760,-7063933 -297854,-7063946 -297891,-7063953 -297896,-7063955 -297841,-7063768 -297819,-7063695 -297810,-7063646 -297805,-7063623 -297800,-7063598 -297801,-7063583 -297804,-7063546 -297807,-7063510 -297809,-7063489 -297804,-7063473 -297794,-7063471 -297746,-7063429 -297709,-7063395 -297678,-7063375 -297620,-7063350 -297564,-7063325 -297526,-7063316 -297483,-7063317 -297434,-7063317 -297391,-7063324 -297344,-7063345 -297307,-7063358 -297279,-7063362 -297258,-7063363 -297241,-7063358 -297214,-7063352 -297189,-7063352 -297170,-7063352 -297130,-7063336 -297065,-7063306 -297039,-7063299 -296979,-7063304 -296949,-7063305 -296918,-7063294 -296858,-7063287 -296826,-7063280 -296805,-7063264 -296772,-7063233 -296754,-7063210 -296722,-7063198 -296689,-7063186 -296667,-7063190 -296655,-7063185 -296646,-7063178 -296637,-7063162 -296612,-7063109 -296593,-7063065 -296578,-7063021 -296565,-7062969 -296538,-7062873 -296528,-7062824 -296516,-7062760 -296504,-7062716 -296505,-7062695 -296509,-7062683 -296531,-7062648 -296537,-7062640 -296572,-7062614 -296623,-7062583 -296695,-7062559 -296741,-7062535 -296757,-7062514 -296759,-7062510 -296761,-7062471 -296775,-7062415 -296792,-7062375 -296805,-7062344 -296831,-7062284 -296835,-7062266 -296840,-7062255 -296853,-7062244 -296876,-7062220 -296924,-7062166 -296943,-7062159 -296967,-7062137 -297027,-7062072 -297069,-7062027 -297091,-7061997 -297107,-7061979 -297124,-7061973 -297137,-7061961 -297145,-7061949 -297168,-7061921 -297182,-7061896 -297195,-7061872 -297230,-7061847 -297252,-7061809 -297287,-7061753 -297298,-7061745 -297311,-7061723 -297362,-7061648 -297387,-7061630 -297403,-7061605 -297441,-7061562 -297437,-7061555 -297443,-7061534 -297469,-7061481 -297481,-7061445 -297473,-7061372 -297454,-7061216 -297449,-7061168 -297446,-7061125 -297441,-7061070 -297434,-7061013 -297427,-7060927 -297425,-7060875 -297423,-7060861 -297412,-7060858 -297408,-7060842 -297408,-7060841 -297407,-7060840 -297406,-7060839 -297406,-7060838 -297405,-7060837 -297404,-7060836 -297403,-7060836 -297402,-7060835 -297401,-7060834 -297400,-7060834 -297399,-7060833 -297398,-7060833 -297397,-7060832 -297396,-7060832 -297395,-7060832 -297394,-7060832 -297393,-7060831 -297392,-7060831 -297390,-7060831 -297389,-7060831 -297388,-7060830 -297385,-7060830 -297381,-7060829 -297378,-7060828 -297374,-7060828 -297371,-7060828 -297367,-7060828 -297364,-7060828 -297360,-7060828 -297356,-7060827 -297353,-7060827 -297350,-7060827 -297311,-7060825 -297286,-7060824 -297242,-7060822 -297224,-7060822 -297151,-7060820 -297067,-7060818 -297001,-7060814 -296998,-7060814 -296957,-7060813 -296946,-7060813 -296918,-7060814 -296899,-7060814 -296892,-7060793 -296885,-7060660 -296879,-7060522 -296873,-7060369 -296945,-7060346 -296955,-7060342 -297142,-7060285 -297199,-7060262 -297237,-7060239 -297273,-7060212 -297302,-7060184 -297305,-7060181 -297431,-7060187 -297444,-7059979 -297447,-7059906 -297447,-7059850 -297447,-7059806 -297452,-7059728 -297453,-7059631 -297454,-7059615 -297454,-7059598 -297455,-7059582 -297456,-7059569 -297458,-7059553 -297459,-7059547 -297460,-7059540 -297460,-7059537 -297472,-7059544 -297493,-7059452 -297499,-7059415 -297513,-7059331 -297520,-7059268 -297522,-7059261 -297527,-7059241 -297535,-7059223 -297559,-7059214 -297548,-7059154 -297546,-7059106 -297543,-7059007 -297556,-7058980 -297555,-7058961 -297547,-7058948 -297539,-7058931 -297540,-7058918 -297548,-7058802 -297534,-7058800 -297485,-7058781 -297465,-7058503 -297442,-7058182 -297429,-7058046 -297419,-7057891 -297411,-7057797 -297398,-7057637 -297390,-7057500 -297379,-7057416 -297376,-7057365 -297386,-7057362 -297437,-7057351 -297496,-7057335 -297529,-7057317 -297569,-7057284 -297595,-7057241 -297618,-7057196 -297637,-7057095 -297644,-7057039 -297645,-7057031 -297653,-7057021 -297666,-7057016 -297673,-7057013 -297680,-7057009 -297691,-7057002 -297722,-7056986 -297759,-7056961 -297759,-7056940 -297765,-7056916 -297774,-7056884 -297790,-7056839 -297795,-7056811 -297797,-7056758 -297805,-7056754 -297823,-7056668 -297837,-7056596 -297859,-7056520 -297870,-7056467 -297890,-7056400 -297896,-7056381 -297900,-7056363 -297905,-7056339 -297922,-7056294 -297928,-7056277 -297935,-7056241 -297940,-7056212 -297949,-7056180 -297954,-7056153 -297958,-7056127 -297958,-7056103 -297957,-7056083 -297951,-7056062 -297941,-7056037 -297931,-7056023 -297924,-7056013 -297920,-7055990 -297919,-7055982 -297915,-7055944 -297913,-7055914 -297916,-7055878 -297916,-7055840 -297922,-7055776 -297919,-7055746 -297917,-7055719 -297922,-7055694 -297931,-7055645 -297934,-7055563 -297928,-7055546 -297931,-7055533 -297930,-7055517 -297924,-7055507 -297921,-7055498 -297904,-7055465 -297894,-7055441 -297895,-7055415 -297898,-7055393 -297917,-7055368 -297924,-7055354 -297927,-7055337 -297920,-7055319 -297920,-7055305 -297918,-7055262 -297913,-7055198 -297915,-7055110 -297917,-7055071 -297925,-7055062 -297926,-7055050 -297926,-7055021 -297983,-7055006 -298245,-7054937 -298387,-7054900 -298527,-7054862 -298670,-7054828 -298870,-7054777 -299115,-7054714 -299364,-7054649 -299519,-7054604 -299583,-7054623 -299660,-7054644 -299750,-7054669 -299766,-7054673 -299844,-7054692 -300016,-7054739 -300099,-7054756 -300202,-7054776 -300362,-7054806 -300412,-7054817 -300492,-7054835 -300531,-7054844 -300581,-7054855 -300586,-7054856 -300623,-7054864 -300667,-7054874 -300682,-7054877 -300703,-7054880 -300733,-7054884 -300739,-7054884 -300744,-7054885 -300749,-7054884 -300754,-7054884 -300759,-7054884 -300759,-7054884 -300864,-7054877 -300936,-7054871 -300955,-7054869 -301017,-7054865 -301074,-7054860 -301109,-7054858 -301123,-7054858 -301113,-7054965 -301110,-7055030 -301109,-7055055 -301114,-7055066 -301128,-7055079 -301287,-7055149 -301436,-7055215 -301501,-7055242 -301593,-7055282 -301679,-7055319 -301706,-7055330 -301714,-7055333 -301702,-7055352 -301705,-7055439 -301701,-7055451 -301700,-7055454 -301763,-7055478 -301798,-7055492 -301820,-7055505 -301839,-7055513 -301847,-7055521 -301857,-7055523 -301867,-7055530 -301875,-7055530 -301944,-7055563 -301980,-7055579 -301987,-7055582 -302029,-7055705 -302083,-7055862 -302132,-7056009 -302156,-7056075 -302194,-7056194 -302201,-7056213 -302215,-7056253 -302239,-7056318 -302276,-7056452 -302321,-7056616 -302326,-7056634 -302332,-7056652 -302337,-7056671 -302357,-7056750 -302370,-7056881 -302378,-7056954 -302393,-7057047 -302408,-7057130 -302409,-7057154 -302406,-7057164 -302399,-7057167 -302398,-7057167 -302394,-7057167 -302389,-7057167 -302364,-7057164 -302311,-7057158 -302276,-7057154 -302257,-7057152 -302373,-7057193 -302384,-7057197 -302461,-7057226 -302577,-7057271 -302671,-7057300 -302746,-7057320 -302823,-7057330 -302895,-7057335 -302940,-7057330 -303014,-7057320 -303088,-7057310 -303089,-7057310 -303102,-7057308 -303115,-7057306 -303129,-7057304 -303142,-7057302 -303149,-7057300 -303162,-7057297 -303192,-7057295 -303319,-7057284 -303337,-7057284 -303344,-7057284 -303369,-7057283 -303395,-7057281 -303420,-7057279 -303421,-7057279 -303455,-7057278 -303488,-7057277 -303492,-7057276 -303520,-7057276 -303554,-7057274 -303570,-7057274 -303783,-7057271 -303935,-7057310 -303942,-7057312 -303976,-7057321 -304035,-7057339 -304095,-7057355 -304124,-7057362 -304155,-7057371 -304270,-7057398 -304366,-7057425 -304397,-7057434 -304429,-7057444 -304632,-7057506 -304688,-7057517 -304760,-7057527 -304828,-7057539 -304864,-7057545 -304906,-7057553 -305005,-7057579 -305027,-7057588 -305036,-7057590 -305046,-7057594 -305056,-7057597 -305066,-7057601 -305077,-7057605 -305128,-7057631 -305182,-7057659 -305261,-7057699 -305370,-7057765 -305445,-7057809 -305460,-7057805 -305462,-7057805 -305468,-7057804 -305508,-7057791 -305561,-7057775 -305563,-7057773 -305565,-7057771 -305567,-7057770 -305568,-7057768 -305570,-7057766 -305572,-7057764 -305573,-7057762 -305575,-7057760 -305577,-7057758 -305578,-7057756 -305580,-7057754 -305581,-7057752 -305583,-7057748 -305584,-7057745 -305586,-7057741 -305587,-7057738 -305588,-7057734 -305589,-7057730 -305591,-7057724 -305591,-7057723 -305664,-7057708 -305679,-7057727 -305693,-7057739 -305733,-7057754 -305774,-7057765 -305809,-7057768 -305841,-7057764 -305861,-7057759 -305890,-7057746 -305963,-7057714 -306028,-7057697 -306046,-7057693 -306171,-7057663 -306408,-7057594 -306507,-7057564 -306522,-7057564 -306604,-7057534 -306676,-7057515 -306739,-7057503 -306810,-7057490 -306893,-7057474 -306949,-7057461 -307040,-7057443 -307151,-7057423 -307242,-7057409 -307440,-7057387 -307567,-7057373 -307722,-7057360 -307837,-7057350 -307925,-7057351 -307953,-7057345 -308003,-7057344 -308096,-7057345 -308181,-7057338 -308271,-7057341 -308367,-7057346 -308533,-7057354 -308606,-7057360 -308675,-7057369 -308791,-7057385 -308875,-7057398 -308968,-7057410 -309017,-7057415 -309028,-7057415 -309078,-7057421 -309180,-7057440 -309336,-7057464 -309380,-7057470 -309517,-7057491 -309627,-7057503 -309693,-7057512 -309811,-7057523 -309927,-7057539 -309996,-7057547 -310036,-7057547 -310083,-7057549 -310141,-7057550 -310143,-7057550 -310153,-7057550 -310156,-7057550 -310163,-7057550 -310173,-7057551 -310179,-7057551 -310193,-7057552 -310194,-7057553 -310208,-7057553 -310222,-7057554 -310223,-7057613 -310223,-7057618 -310222,-7057636 -310220,-7057698 -310212,-7057744 -310200,-7057786 -310179,-7057834 -310159,-7057873 -310145,-7057925 -310137,-7057979 -310135,-7058000 -310135,-7058003 -310135,-7058005 -310134,-7058011 -310117,-7058073 -310097,-7058145 -310069,-7058245 -310024,-7058384 -310006,-7058430 -309981,-7058491 -309943,-7058577 -309940,-7058584 -309937,-7058595 -309936,-7058599 -309935,-7058604 -309934,-7058610 -309933,-7058615 -309931,-7058620 -309930,-7058626 -309929,-7058631 -309928,-7058637 -309928,-7058642 -309927,-7058648 -309927,-7058653 -309927,-7058658 -309927,-7058660 -309927,-7058665 -309927,-7058670 -309928,-7058675 -309928,-7058680 -309928,-7058681 -309931,-7058692 -309934,-7058702 -309936,-7058713 -309954,-7058814 -309977,-7058922 -310034,-7059103 -310044,-7059158 -310067,-7059306 -310072,-7059331 -310075,-7059349 -310076,-7059364 -310080,-7059388 -310084,-7059410 -310086,-7059427 -310090,-7059448 -310091,-7059464 -310094,-7059503 -310094,-7059525 -310094,-7059556 -310093,-7059669 -310096,-7059712 -310098,-7059760 -310100,-7059805 -310100,-7059820 -310101,-7059839 -310101,-7059862 -310100,-7059909 -310093,-7059950 -310091,-7059980 -310088,-7060003 -310090,-7060022 -310090,-7060036 -310090,-7060062 -310092,-7060075 -310094,-7060092 -310096,-7060107 -310099,-7060125 -310101,-7060139 -309999,-7060153 -309905,-7060170 -309827,-7060183 -309733,-7060198 -309717,-7060205 -309710,-7060205 -309621,-7060215 -309457,-7060242 -309332,-7060263 -309320,-7060269 -309318,-7060278 -309318,-7060283 -309316,-7060297 -309315,-7060300 -309313,-7060303 -309311,-7060307 -309310,-7060310 -309308,-7060313 -309306,-7060316 -309285,-7060338 -309273,-7060352 -309270,-7060367 -309268,-7060376 -309313,-7060416 -309422,-7060517 -309476,-7060574 -309595,-7060699 -309671,-7060779 -309703,-7060805 -309730,-7060818 -309741,-7060821 -309723,-7060869 -309704,-7060922 -309741,-7060939 -309715,-7060985 -309673,-7061055 -309622,-7061144 -309672,-7061174 -309668,-7061188 -309654,-7061226 -309648,-7061242 -309546,-7061199 -309511,-7061181 -309491,-7061173 -309490,-7061175 -309465,-7061247 -309443,-7061298 -309430,-7061329 -309412,-7061374 -309380,-7061446 -309369,-7061470 -309365,-7061482 -309370,-7061489 -309375,-7061496 -309348,-7061551 -309306,-7061626 -309230,-7061797 -309187,-7061890 -309176,-7061913 -309156,-7061983 -309154,-7062003 -309149,-7062037 -309136,-7062059 -309103,-7062150 -309069,-7062248 -309046,-7062313 -309045,-7062316 -309149,-7062387 -309187,-7062412 -309290,-7062483 -309325,-7062513 -309331,-7062511 -309387,-7062495 -309405,-7062494 -309431,-7062504 -309442,-7062510 -309449,-7062519 -309463,-7062538 -309503,-7062574 -309532,-7062597 -309654,-7062666 -309663,-7062668 -309692,-7062673 -309708,-7062673 -309719,-7062672 -309742,-7062676 -309795,-7062685 -309823,-7062683 -309841,-7062676 -309846,-7062674 -309847,-7062674 -309865,-7062673 -309873,-7062683 -309878,-7062690 -309906,-7062706 -309927,-7062718 -310076,-7062783 -310091,-7062789 -310104,-7062796 -310130,-7062810 -310139,-7062818 -310147,-7062826 -310148,-7062827 -310150,-7062828 -310151,-7062830 -310152,-7062831 -310154,-7062833 -310156,-7062836 -310157,-7062840 -310159,-7062843 -310160,-7062847 -310161,-7062851 -310162,-7062854 -310163,-7062860 -310165,-7062867 -310165,-7062868 -310166,-7062875 -310167,-7062882 -310176,-7062913 -310183,-7062932 -310204,-7062964 -310228,-7062993 -310255,-7063018 -310262,-7063024 -310274,-7063034 -310291,-7063029 -310302,-7063025 -310310,-7063023 -310311,-7063022 -310318,-7063018 -310330,-7063006 -310344,-7063003 -310350,-7063005 -310352,-7063006 -310352,-7063006 -310376,-7063017 -310437,-7063036 -310506,-7063040 -310556,-7063040 -310584,-7063048 -310613,-7063056 -310633,-7063059 -310647,-7063062 -310661,-7063070 -310673,-7063081 -310688,-7063088 -310706,-7063099 -310737,-7063117 -310757,-7063121 -310782,-7063123 -310796,-7063126 -310824,-7063133 -310850,-7063132 -310875,-7063137 -310886,-7063139 -310928,-7063136 -310952,-7063130 -310968,-7063223 -310988,-7063342 -311003,-7063457 -310947,-7063465 -310941,-7063465 -310964,-7063526 -310989,-7063580 -310997,-7063580 -311013,-7063578 -311018,-7063627 -311022,-7063658 -311047,-7063655 -311094,-7063646 -311141,-7063641 -311198,-7063636 -311272,-7063628 -311326,-7063623 -311358,-7063622 -311406,-7063627 -311443,-7063637 -311393,-7063782 -311363,-7063878 -311354,-7063924 -311349,-7063983 -311339,-7064059 -311344,-7064059 -311389,-7064060 -311392,-7064081 -311398,-7064081 -311420,-7064077 -311433,-7064074 -311511,-7064061 -311540,-7064061 -311576,-7064067 -311603,-7064078 -311628,-7064094 -311652,-7064114 -311665,-7064132 -311680,-7064159 -311686,-7064193 -311686,-7064226 -311697,-7064248 -311708,-7064260 -311747,-7064287 -311786,-7064300 -311842,-7064315 -311898,-7064325 -311960,-7064331 -312007,-7064342 -312009,-7064339 -312011,-7064337 -312037,-7064347 -312037,-7064352 -312037,-7064356 -312082,-7064383 -312122,-7064412 -312150,-7064442 -312183,-7064479 -312208,-7064518 -312229,-7064507 -312253,-7064551 -312254,-7064553 -312242,-7064559 -312238,-7064561 -312248,-7064588 -312275,-7064662 -312289,-7064736 -312292,-7064789 -312290,-7064826 -312281,-7064881 -312268,-7064945 -312254,-7064973 -312230,-7065005 -312210,-7065021 -312175,-7065043 -312137,-7065056 -312137,-7065060 -312136,-7065074 -312065,-7065074 -311963,-7065070 -311887,-7065069 -311808,-7065066 -311715,-7065063 -311709,-7065063 -311695,-7065064 -311682,-7065064 -311668,-7065064 -311654,-7065063 -311641,-7065062 -311627,-7065061 -311577,-7065058 -311536,-7065047 -311493,-7065029 -311429,-7064993 -311372,-7064948 -311338,-7064924 -311334,-7064922 -311310,-7065004 -311287,-7065077 -311261,-7065140 -311228,-7065214 -311185,-7065305 -311163,-7065350 -311158,-7065359 -311155,-7065366 -311148,-7065364 -311145,-7065408 -311146,-7065436 -311149,-7065464 -311159,-7065496 -311216,-7065573 -311267,-7065653 -311373,-7065833 -311445,-7065971 -311532,-7066142 -311632,-7066338 -311698,-7066467 -311723,-7066513 -311739,-7066530 -311742,-7066535 -311746,-7066540 -311758,-7066553 -311843,-7066634 -311890,-7066676 -311896,-7066683 -311898,-7066684 -311905,-7066691 -311908,-7066694 -311913,-7066698 -311928,-7066712 -311933,-7066717 -311938,-7066722 -311943,-7066727 -311944,-7066727 -311945,-7066728 -311947,-7066730 -311947,-7066731 -311948,-7066732 -311949,-7066733 -311950,-7066734 -311951,-7066735 -311951,-7066736 -311952,-7066739 -311953,-7066741 -311954,-7066745 -311955,-7066747 -311955,-7066750 -311956,-7066753 -311956,-7066755 -311957,-7066758 -311958,-7066763 -311959,-7066766 -311961,-7066771 -311963,-7066776 -311964,-7066780 -311965,-7066782 -311967,-7066784 -311968,-7066785 -311969,-7066787 -311971,-7066789 -311972,-7066791 -311973,-7066791 -311975,-7066793 -311976,-7066794 -311978,-7066796 -311980,-7066797 -312030,-7066829 -312094,-7066874 -312138,-7066907 -312150,-7066921 -312160,-7066933 -312167,-7066949 -312198,-7067054 -312244,-7067200 -312272,-7067301 -312277,-7067330 -312282,-7067361 -312286,-7067397 -312290,-7067434 -312290,-7067441 -312292,-7067460 -312294,-7067478 -312295,-7067497 -312296,-7067516 -312296,-7067535 -312296,-7067553 -312296,-7067570 -312296,-7067579 -312295,-7067587 -312295,-7067595 -312294,-7067604 -312293,-7067612 -312292,-7067620 -312283,-7067654 -312263,-7067708 -312269,-7067710 -312350,-7067730 -312474,-7067763 -312441,-7068348 -312425,-7068595 -312415,-7068785 -312411,-7068905 -312399,-7069050 -312392,-7069144 -312349,-7069278 -312341,-7069340 -312333,-7069360 -312331,-7069396 -312310,-7069468 -312299,-7069495 -312292,-7069539 -312292,-7069560 -312284,-7069581 -312276,-7069581 -312277,-7069592 -312278,-7069605 -312274,-7069605 -312269,-7069606 -312268,-7069623 -312260,-7069668 -312252,-7069721 -312244,-7069730 -312238,-7069738 -312234,-7069787 -312227,-7069806 -312213,-7069829 -312207,-7069837 -312209,-7069846 -312204,-7069857 -312189,-7069882 -312185,-7069896 -312193,-7069896 -312215,-7069895 -312215,-7069895 -312309,-7069892 -312471,-7069888 -312635,-7069881 -312786,-7069870 -312866,-7069867 -312924,-7069866 -313118,-7069864 -313276,-7069866 -313416,-7069861 -313474,-7069856 -313639,-7069843 -313708,-7069837 -313777,-7069831 -313778,-7069864 -313780,-7069993 -313779,-7070140 -313774,-7070329 -313770,-7070440 -313759,-7070534 -313742,-7070634 -313723,-7070743 -313707,-7070845 -313694,-7070935 -313681,-7071054 -313654,-7071289 -313649,-7071346 -313637,-7071435 -313610,-7071571 -313596,-7071651 -313582,-7071728 -313572,-7071782 -313559,-7071881 -313563,-7071887 -313622,-7071967 -313683,-7072027 -313817,-7072170 -313903,-7072301 -314019,-7072462 -314141,-7072633 -314232,-7072764 -314240,-7072774 -314249,-7072786 -314255,-7072807 -314274,-7072851 -314309,-7072940 -314337,-7072994 -314387,-7073094 -314473,-7073257 -314482,-7073274 -314481,-7073282 -314466,-7073386 -314414,-7073665 -314401,-7073776 -314393,-7073899 -314370,-7074077 -314316,-7074226 -314225,-7074449 -314169,-7074598 -314152,-7074637 -314082,-7074771 -314025,-7074883 -313991,-7074933 -313964,-7074973 -313938,-7075177 -313912,-7075365 -313911,-7075375 -313944,-7075626 -313975,-7075841 -313992,-7075921 -314026,-7076097 -314087,-7076395 -314086,-7076410 -314103,-7076488 -314117,-7076567 -314167,-7076792 -314206,-7076970 -314209,-7076983 -314088,-7076981 -313964,-7077294 -313875,-7077525 -313806,-7077674 -313775,-7077753 -313760,-7077791 -313711,-7077908 -313682,-7077981 -313653,-7078056 -313595,-7078224 -313576,-7078269 -313558,-7078304 -313545,-7078325 -313515,-7078368 -313504,-7078382 -313492,-7078394 -313478,-7078407 -313462,-7078419 -313449,-7078426 -313439,-7078431 -313434,-7078432 -313423,-7078435 -313382,-7078441 -313365,-7078444 -313304,-7078458 -313196,-7078502 -313096,-7078530 -312970,-7078577 -312948,-7078578 -312936,-7078579 -312922,-7078583 -312908,-7078587 -312897,-7078593 -312879,-7078604 -312863,-7078614 -312857,-7078618 -312853,-7078624 -312849,-7078630 -312847,-7078635 -312847,-7078639 -312848,-7078644 -312850,-7078649 -312852,-7078653 -312873,-7078671 -312882,-7078683 -312888,-7078694 -312894,-7078705 -312897,-7078714 -312899,-7078729 -312895,-7078765 -312898,-7078821 -312898,-7078870 -312898,-7078882 -312896,-7078894 -312892,-7078909 -312880,-7078946 -312866,-7079002 -312864,-7079015 -312863,-7079044 -312860,-7079058 -312858,-7079063 -312850,-7079072 -312842,-7079076 -312820,-7079081 -312813,-7079085 -312806,-7079090 -312800,-7079097 -312796,-7079103 -312789,-7079117 -312788,-7079125 -312788,-7079146 -312785,-7079154 -312779,-7079163 -312775,-7079168 -312715,-7079219 -312689,-7079250 -312683,-7079255 -312675,-7079261 -312668,-7079264 -312630,-7079276 -312618,-7079281 -312508,-7079369 -312463,-7079403 -312426,-7079428 -312332,-7079486 -312319,-7079494 -312305,-7079500 -312291,-7079505 -312261,-7079513 -312245,-7079516 -312225,-7079519 -312188,-7079519 -312172,-7079521 -312153,-7079524 -312139,-7079528 -312127,-7079534 -312105,-7079550 -312090,-7079557 -312082,-7079559 -312044,-7079562 -312031,-7079565 -311975,-7079585 -311903,-7079605 -311826,-7079633 -311769,-7079648 -311755,-7079654 -311737,-7079661 -311715,-7079673 -311706,-7079683 -311690,-7079705 -311683,-7079711 -311678,-7079713 -311672,-7079713 -311667,-7079712 -311655,-7079703 -311649,-7079703 -311644,-7079706 -311634,-7079725 -311629,-7079730 -311622,-7079735 -311614,-7079739 -311601,-7079744 -311568,-7079753 -311562,-7079754 -311530,-7079754 -311522,-7079755 -311514,-7079758 -311508,-7079761 -311503,-7079766 -311500,-7079769 -311499,-7079777 -311500,-7079796 -311499,-7079801 -311496,-7079805 -311493,-7079807 -311488,-7079808 -311484,-7079806 -311471,-7079796 -311469,-7079794 -311464,-7079794 -311461,-7079794 -311455,-7079799 -311445,-7079812 -311443,-7079814 -311406,-7079828 -311370,-7079841 -311358,-7079846 -311351,-7079851 -311344,-7079856 -311319,-7079881 -311312,-7079886 -311306,-7079890 -311293,-7079895 -311261,-7079905 -311247,-7079912 -311236,-7079920 -311214,-7079939 -311202,-7079947 -311164,-7079966 -311129,-7079986 -311107,-7080000 -311092,-7080012 -311011,-7080118 -310994,-7080145 -310981,-7080173 -310974,-7080192 -310967,-7080216 -310933,-7080312 -310887,-7080428 -310835,-7080562 -310817,-7080612 -310799,-7080661 -310756,-7080788 -310726,-7080819 -310678,-7080865 -310605,-7080924 -310481,-7081034 -310437,-7081081 -310399,-7081131 -310245,-7081295 -310177,-7081371 -310056,-7081511 -309992,-7081582 -309919,-7081682 -309828,-7081795 -309743,-7081909 -309675,-7081795 -309587,-7081648 -309436,-7081377 -309288,-7081140 -309173,-7080964 -309067,-7080803 -309004,-7080703 -308951,-7080626 -308932,-7080594 -308917,-7080568 -308894,-7080521 -308816,-7080349 -308783,-7080266 -308735,-7080138 -308728,-7080118 -308709,-7080050 -308675,-7079955 -308655,-7079894 -308647,-7079868" stroke="#003087" stroke-width="54" /></svg>