<?xml version="1.0" standalone="no"?>
<!DOCTYPE svg PUBLIC "-//W3C//DTD SVG 1.1//EN"
"http://www.w3.org/Graphics/SVG/1.1/DTD/svg11.dtd">
<svg height="115" version="1.1" viewBox="-243345 -7099296 30767 24931" width="220" xmlns="http://www.w3.org/2000/svg"><polygon fill="#003087" points=" -225241,-7097796 -225203,-7097734 -225000,-7097741 -224943,-7097741 -224935,-7097742 -224766,-7097756 -224715,-7097758 -224634,-7097745 -224602,-7097736 -224580,-7097726 -224536,-7097710 -224459,-7097678 -224413,-7097650 -224380,-7097637 -224365,-7097636 -224283,-7097641 -224265,-7097644 -224254,-7097647 -224245,-7097650 -224182,-7097685 -224093,-7097720 -224053,-7097741 -224008,-7097760 -223922,-7097800 -223881,-7097817 -223825,-7097844 -223752,-7097884 -223693,-7097910 -223669,-7097868 -223678,-7097843 -223679,-7097838 -223679,-7097831 -223677,-7097816 -223670,-7097797 -223666,-7097792 -223650,-7097782 -223641,-7097771 -223644,-7097755 -223633,-7097727 -223631,-7097719 -223632,-7097709 -223639,-7097694 -223641,-7097688 -223640,-7097682 -223629,-7097657 -223624,-7097631 -223604,-7097611 -223597,-7097600 -223594,-7097592 -223594,-7097579 -223589,-7097541 -223572,-7097515 -223562,-7097487 -223555,-7097477 -223545,-7097470 -223537,-7097465 -223533,-7097463 -223529,-7097463 -223526,-7097463 -223510,-7097471 -223507,-7097471 -223501,-7097469 -223498,-7097467 -223495,-7097463 -223493,-7097459 -223495,-7097439 -223494,-7097425 -223492,-7097415 -223474,-7097367 -223464,-7097321 -223463,-7097306 -223466,-7097247 -223466,-7097232 -223462,-7097225 -223451,-7097213 -223448,-7097207 -223446,-7097185 -223447,-7097173 -223449,-7097166 -223453,-7097160 -223456,-7097156 -223476,-7097147 -223478,-7097144 -223481,-7097138 -223481,-7097133 -223480,-7097126 -223478,-7097118 -223475,-7097113 -223472,-7097111 -223468,-7097108 -223462,-7097107 -223442,-7097105 -223399,-7097076 -223376,-7097060 -223312,-7096991 -223155,-7096830 -222967,-7096633 -222802,-7096453 -222717,-7096380 -222691,-7096351 -222657,-7096317 -222595,-7096252 -222570,-7096218 -222514,-7096149 -222504,-7096138 -222499,-7096133 -222504,-7096119 -222211,-7095766 -222179,-7095721 -222167,-7095695 -222144,-7095644 -222113,-7095565 -222061,-7095411 -222056,-7095397 -222049,-7095385 -222026,-7095349 -221988,-7095289 -221873,-7095123 -221853,-7095084 -221836,-7095056 -221794,-7094996 -221782,-7094977 -221760,-7094941 -221605,-7094663 -221249,-7093980 -221130,-7093755 -221059,-7093620 -220934,-7093371 -220925,-7093354 -220844,-7093212 -220816,-7093160 -220798,-7093122 -220790,-7093101 -220777,-7093061 -220732,-7092969 -220724,-7092950 -220718,-7092936 -220712,-7092924 -220697,-7092900 -220620,-7092798 -220595,-7092762 -220503,-7092665 -220464,-7092622 -220462,-7092621 -220372,-7092500 -220285,-7092387 -220239,-7092315 -220217,-7092284 -220168,-7092254 -220165,-7092248 -220162,-7092242 -220138,-7092226 -220065,-7092181 -219962,-7092119 -219914,-7092087 -219866,-7092058 -219777,-7092001 -219598,-7091896 -219534,-7091855 -219480,-7091818 -219428,-7091790 -219374,-7091681 -219335,-7091595 -219292,-7091528 -219263,-7091471 -219235,-7091425 -219169,-7091353 -219061,-7091230 -219030,-7091197 -219000,-7091126 -218985,-7091096 -218959,-7091033 -218950,-7091014 -218856,-7090978 -218809,-7090958 -218757,-7090936 -218632,-7090887 -218301,-7090753 -218160,-7090698 -218066,-7090658 -217805,-7090555 -217768,-7090528 -217615,-7090387 -217543,-7090319 -217505,-7090287 -217483,-7090266 -217490,-7090262 -217492,-7090259 -217496,-7090253 -217498,-7090246 -217499,-7090237 -217497,-7090227 -217493,-7090216 -217485,-7090202 -217420,-7090116 -217400,-7090092 -217248,-7089911 -217190,-7089848 -217176,-7089818 -217174,-7089818 -217159,-7089842 -217130,-7089872 -217108,-7089917 -217078,-7089885 -216993,-7089801 -216929,-7089739 -216862,-7089670 -216792,-7089588 -216755,-7089542 -216697,-7089454 -216672,-7089418 -216649,-7089371 -216594,-7089244 -216539,-7089093 -216524,-7089046 -216496,-7088969 -216471,-7088890 -216457,-7088834 -216448,-7088803 -216445,-7088774 -216432,-7088652 -216421,-7088582 -216393,-7088389 -216371,-7088258 -216361,-7088199 -216356,-7088168 -216340,-7088057 -216328,-7087991 -216313,-7087887 -216292,-7087757 -216263,-7087569 -215942,-7087334 -215865,-7087282 -215751,-7087199 -215653,-7087123 -215594,-7087084 -215547,-7087050 -215500,-7087017 -215419,-7086954 -215337,-7086897 -215161,-7086767 -215096,-7086717 -215008,-7086654 -214832,-7086535 -214784,-7086493 -214702,-7086434 -214681,-7086410 -214642,-7086358 -214570,-7086257 -214498,-7086160 -214444,-7086091 -214401,-7086039 -214364,-7085985 -214327,-7085933 -214286,-7085883 -214270,-7085872 -214228,-7085866 -214086,-7085902 -214022,-7085920 -213909,-7085950 -213857,-7085833 -213819,-7085760 -213773,-7085684 -213710,-7085602 -213663,-7085552 -213534,-7085582 -213357,-7085634 -213286,-7085657 -213211,-7085674 -213173,-7085679 -213046,-7085694 -212941,-7085696 -212923,-7085591 -212893,-7085368 -212875,-7085225 -212855,-7085086 -212843,-7084988 -212816,-7084800 -212801,-7084678 -212761,-7084464 -212724,-7084206 -212708,-7084094 -212684,-7083953 -212679,-7083889 -212668,-7083819 -212651,-7083701 -212633,-7083571 -212596,-7083335 -212578,-7083213 -212655,-7083186 -212740,-7083173 -212773,-7083166 -212830,-7083146 -212902,-7083083 -213006,-7082996 -213069,-7082929 -213093,-7082898 -213109,-7082859 -213127,-7082763 -213172,-7082500 -213201,-7082407 -213225,-7082352 -213233,-7082327 -213240,-7082302 -213257,-7082219 -213263,-7082193 -213349,-7082122 -213442,-7082053 -213495,-7082027 -213676,-7081964 -213763,-7081921 -213868,-7081865 -214005,-7081794 -214022,-7081690 -214024,-7081635 -214013,-7081623 -214029,-7081543 -214043,-7081443 -214046,-7081373 -214045,-7081305 -214043,-7081273 -214040,-7081241 -214029,-7081114 -214023,-7080955 -214027,-7080917 -214036,-7080842 -214052,-7080740 -214058,-7080712 -214071,-7080657 -214079,-7080630 -214097,-7080579 -214108,-7080538 -214110,-7080483 -214115,-7080417 -214116,-7080371 -214120,-7080323 -214130,-7080292 -214168,-7080260 -214266,-7080188 -214293,-7080156 -214339,-7080072 -214407,-7080007 -214416,-7080000 -214466,-7079963 -214488,-7079946 -214407,-7079856 -214390,-7079839 -214319,-7079766 -214198,-7079635 -214141,-7079577 -214078,-7079516 -214033,-7079465 -214014,-7079440 -213996,-7079415 -213987,-7079392 -213978,-7079367 -213962,-7079299 -213945,-7079245 -213940,-7079240 -213857,-7079157 -213751,-7079068 -213691,-7079022 -213643,-7078966 -213596,-7078919 -213551,-7078888 -213373,-7078738 -213412,-7078599 -213430,-7078528 -213455,-7078473 -213486,-7078440 -213537,-7078395 -213585,-7078354 -213639,-7078294 -213744,-7078139 -213791,-7078085 -213825,-7078028 -213880,-7077962 -213953,-7077888 -214026,-7077852 -214147,-7077829 -214178,-7077829 -214197,-7077825 -214213,-7077820 -214223,-7077817 -214229,-7077813 -214244,-7077800 -214252,-7077791 -214356,-7077686 -214409,-7077646 -214416,-7077654 -214500,-7077628 -214539,-7077615 -214670,-7077559 -214710,-7077539 -214795,-7077491 -214871,-7077444 -214991,-7077380 -215153,-7077297 -215203,-7077267 -215251,-7077242 -215256,-7077240 -215392,-7077153 -215459,-7077108 -215625,-7077174 -215764,-7077223 -215834,-7077237 -215870,-7077238 -215918,-7077236 -215967,-7077224 -216054,-7077228 -216180,-7077262 -216196,-7077264 -216207,-7077265 -216219,-7077264 -216230,-7077262 -216242,-7077259 -216254,-7077254 -216264,-7077249 -216271,-7077243 -216280,-7077235 -216323,-7077202 -216373,-7077157 -216396,-7077140 -216469,-7077086 -216506,-7077056 -216574,-7076987 -216620,-7076944 -216659,-7076916 -216726,-7076876 -216735,-7076872 -216747,-7076867 -216767,-7076862 -216851,-7076853 -216939,-7076851 -217006,-7076844 -217142,-7076814 -217156,-7076814 -217221,-7076811 -217399,-7076816 -217534,-7076833 -217607,-7076848 -217665,-7076854 -217682,-7076854 -217693,-7076856 -217704,-7076859 -217715,-7076864 -217727,-7076872 -217736,-7076880 -217748,-7076894 -217755,-7076907 -217846,-7076989 -217878,-7077012 -217898,-7077025 -217920,-7077039 -217978,-7077067 -218047,-7077086 -218093,-7077108 -218127,-7077130 -218184,-7077209 -218253,-7077292 -218301,-7077356 -218326,-7077388 -218332,-7077402 -218349,-7077453 -218358,-7077475 -218367,-7077497 -218393,-7077551 -218432,-7077621 -218513,-7077754 -218563,-7077864 -218636,-7077889 -218681,-7077908 -218849,-7077944 -218876,-7077951 -218935,-7077967 -218973,-7077987 -218985,-7077995 -218997,-7078003 -219033,-7078032 -219107,-7078085 -219404,-7078228 -219471,-7078258 -219499,-7078274 -219519,-7078286 -219608,-7078336 -219639,-7078354 -219718,-7078411 -219828,-7078516 -219847,-7078530 -219867,-7078544 -219889,-7078557 -220014,-7078627 -220135,-7078706 -220169,-7078726 -220250,-7078761 -220298,-7078779 -220386,-7078802 -220449,-7078821 -220544,-7078850 -220629,-7078882 -220695,-7078916 -220760,-7078944 -220839,-7078994 -220920,-7079052 -220956,-7079068 -221056,-7079104 -221186,-7079151 -221232,-7079234 -221317,-7079366 -221338,-7079397 -221394,-7079466 -221431,-7079506 -221500,-7079573 -221619,-7079671 -221690,-7079740 -221758,-7079792 -221806,-7079821 -221904,-7079885 -221983,-7079939 -222121,-7080029 -222271,-7080136 -222296,-7080155 -222510,-7080048 -222802,-7079900 -222976,-7079808 -223106,-7079766 -223225,-7079735 -223237,-7079732 -223317,-7079713 -223453,-7079682 -223560,-7079641 -223655,-7079605 -223778,-7079648 -223949,-7079713 -224152,-7079818 -224457,-7079967 -224510,-7079994 -224729,-7080037 -224726,-7080092 -224720,-7080117 -224699,-7080209 -224677,-7080280 -224660,-7080327 -224641,-7080369 -224590,-7080466 -224590,-7080475 -224626,-7080608 -224632,-7080620 -224641,-7080630 -224653,-7080673 -224735,-7080770 -224748,-7080764 -224761,-7080764 -224801,-7080801 -224900,-7080892 -224927,-7080930 -224963,-7080979 -224997,-7081022 -224995,-7081037 -225024,-7081074 -225071,-7081140 -225108,-7081188 -225145,-7081232 -225187,-7081271 -225184,-7081304 -225216,-7081341 -225238,-7081353 -225248,-7081354 -225251,-7081347 -225296,-7081362 -225330,-7081374 -225346,-7081372 -225351,-7081363 -225389,-7081366 -225394,-7081380 -225412,-7081393 -225437,-7081409 -225466,-7081434 -225494,-7081461 -225527,-7081492 -225551,-7081506 -225622,-7081534 -225638,-7081537 -225675,-7081550 -225712,-7081556 -225757,-7081558 -225758,-7081554 -225782,-7081556 -225795,-7081563 -225834,-7081572 -225856,-7081580 -225893,-7081599 -225923,-7081604 -225972,-7081619 -225999,-7081630 -226027,-7081660 -226039,-7081673 -226059,-7081668 -226120,-7081667 -226124,-7081672 -226128,-7081668 -226191,-7081670 -226232,-7081657 -226246,-7081667 -226251,-7081689 -226261,-7081688 -226263,-7081677 -226283,-7081652 -226306,-7081635 -226357,-7081621 -226366,-7081577 -226372,-7081563 -226384,-7081557 -226417,-7081561 -226431,-7081556 -226477,-7081529 -226486,-7081538 -226513,-7081607 -226516,-7081633 -226520,-7081683 -226532,-7081702 -226580,-7081702 -226628,-7081702 -226652,-7081711 -226660,-7081695 -226728,-7081689 -226753,-7081683 -226806,-7081662 -226900,-7081622 -226900,-7081611 -226895,-7081575 -226896,-7081561 -226906,-7081548 -226939,-7081538 -226920,-7081463 -227012,-7081484 -227012,-7081491 -227049,-7081494 -227053,-7081562 -227059,-7081600 -227065,-7081611 -227065,-7081614 -227075,-7081618 -227068,-7081639 -227077,-7081642 -227194,-7081623 -227235,-7081618 -227243,-7081623 -227284,-7081619 -227437,-7081618 -227588,-7081618 -227598,-7081622 -227717,-7081638 -227776,-7081647 -227840,-7081659 -227952,-7081682 -227985,-7081689 -228020,-7081695 -228020,-7081693 -228055,-7081699 -228060,-7081700 -228177,-7081713 -228283,-7081721 -228329,-7081722 -228372,-7081743 -228420,-7081768 -228493,-7081810 -228529,-7081831 -228577,-7081848 -228593,-7081829 -228603,-7081826 -228618,-7081836 -228643,-7081836 -228669,-7081843 -228700,-7081865 -228728,-7081881 -228752,-7081902 -228757,-7081900 -228803,-7081875 -228835,-7081847 -228854,-7081831 -228891,-7081810 -228918,-7081784 -228938,-7081777 -228963,-7081774 -228977,-7081768 -228988,-7081754 -228993,-7081748 -229001,-7081728 -229007,-7081668 -229017,-7081647 -229019,-7081643 -229014,-7081633 -229013,-7081631 -229013,-7081582 -229017,-7081504 -229001,-7081500 -228941,-7081496 -228915,-7081510 -228901,-7081509 -228871,-7081464 -228869,-7081461 -228854,-7081442 -228834,-7081413 -228820,-7081385 -228769,-7081307 -228754,-7081285 -228730,-7081239 -228694,-7081199 -228654,-7081145 -228629,-7081120 -228607,-7081095 -228602,-7081089 -228601,-7081088 -228596,-7081081 -228570,-7081047 -228569,-7081029 -228575,-7081013 -228563,-7080961 -228565,-7080929 -228567,-7080855 -228567,-7080854 -228567,-7080827 -228556,-7080821 -228551,-7080813 -228553,-7080811 -228566,-7080792 -228582,-7080758 -228622,-7080678 -228633,-7080650 -228654,-7080605 -228680,-7080527 -228699,-7080486 -228700,-7080484 -228681,-7080334 -228666,-7080193 -228673,-7080193 -228815,-7080182 -228895,-7080177 -228904,-7080182 -228987,-7080232 -229139,-7080324 -229189,-7080311 -229229,-7080299 -229274,-7080284 -229310,-7080272 -229385,-7080250 -229525,-7080201 -229529,-7080200 -229530,-7080200 -229533,-7080198 -229541,-7080175 -229554,-7080153 -229573,-7080098 -229586,-7080086 -229615,-7080066 -229624,-7080053 -229629,-7080046 -229636,-7080044 -229641,-7080043 -229663,-7080031 -229662,-7080024 -229678,-7080014 -229701,-7079999 -229735,-7079996 -229767,-7080002 -229775,-7080001 -229786,-7080005 -229799,-7080060 -229814,-7080159 -229819,-7080164 -229844,-7080295 -229844,-7080296 -229875,-7080298 -229947,-7080278 -229967,-7080276 -230000,-7080263 -230053,-7080249 -230105,-7080227 -230143,-7080214 -230159,-7080212 -230166,-7080205 -230179,-7080200 -230205,-7080197 -230224,-7080184 -230245,-7080178 -230257,-7080179 -230267,-7080173 -230272,-7080173 -230320,-7080145 -230330,-7080143 -230365,-7080123 -230391,-7080116 -230405,-7080111 -230410,-7080107 -230428,-7080092 -230448,-7080091 -230453,-7080091 -230454,-7080089 -230455,-7080082 -230456,-7080080 -230478,-7080070 -230486,-7080070 -230492,-7080070 -230500,-7080076 -230508,-7080094 -230535,-7080095 -230541,-7080095 -230542,-7080072 -230545,-7080062 -230558,-7080012 -230664,-7080010 -230760,-7080008 -230913,-7080004 -230917,-7080003 -230942,-7079997 -230945,-7080003 -230948,-7080008 -230969,-7080001 -230984,-7079989 -230996,-7079965 -231000,-7079946 -231006,-7079892 -231016,-7079886 -231055,-7079876 -231094,-7079864 -231191,-7079834 -231221,-7079827 -231233,-7079820 -231251,-7079809 -231273,-7079809 -231309,-7079833 -231331,-7079846 -231362,-7079887 -231860,-7079887 -232036,-7079886 -232153,-7079886 -232195,-7079886 -232291,-7079886 -232461,-7079884 -232766,-7079886 -232894,-7079884 -233020,-7079884 -233019,-7079820 -233016,-7079781 -233011,-7079756 -233001,-7079756 -232997,-7079752 -232985,-7079700 -232985,-7079699 -232984,-7079680 -232989,-7079663 -232994,-7079648 -233006,-7079622 -233009,-7079621 -233010,-7079620 -233023,-7079606 -233050,-7079573 -233063,-7079547 -233048,-7079469 -233038,-7079417 -233054,-7079411 -233074,-7079402 -233116,-7079386 -233122,-7079385 -233149,-7079381 -233179,-7079376 -233207,-7079364 -233214,-7079361 -233222,-7079358 -233240,-7079351 -233254,-7079340 -233263,-7079327 -233263,-7079313 -233263,-7079305 -233262,-7079298 -233258,-7079287 -233246,-7079269 -233227,-7079244 -233215,-7079222 -233207,-7079193 -233206,-7079162 -233211,-7079130 -233214,-7079077 -233218,-7079039 -233223,-7079017 -233226,-7079004 -233233,-7078992 -233259,-7078956 -233271,-7078940 -233280,-7078932 -233303,-7078910 -233336,-7078885 -233377,-7078855 -233410,-7078829 -233425,-7078821 -233446,-7078810 -233473,-7078792 -233510,-7078747 -233523,-7078727 -233535,-7078701 -233540,-7078676 -233548,-7078659 -233562,-7078639 -233564,-7078636 -233577,-7078624 -233594,-7078624 -233617,-7078637 -233619,-7078640 -233629,-7078652 -233643,-7078659 -233650,-7078656 -233662,-7078646 -233669,-7078635 -233667,-7078626 -233664,-7078616 -233665,-7078610 -233672,-7078602 -233684,-7078590 -233702,-7078573 -233716,-7078553 -233725,-7078532 -233731,-7078506 -233733,-7078463 -233732,-7078404 -233720,-7078386 -233710,-7078359 -233713,-7078356 -233723,-7078343 -233717,-7078332 -233717,-7078326 -233717,-7078316 -233741,-7078272 -233754,-7078245 -233766,-7078220 -233778,-7078203 -233796,-7078188 -233825,-7078168 -233839,-7078147 -233872,-7078137 -233899,-7078129 -233952,-7078118 -234000,-7078112 -234013,-7078102 -234033,-7078083 -234037,-7078060 -234045,-7078036 -234075,-7077964 -234085,-7077940 -234092,-7077930 -234116,-7077892 -234123,-7077867 -234124,-7077864 -234127,-7077854 -234139,-7077835 -234142,-7077834 -234146,-7077832 -234171,-7077822 -234182,-7077813 -234198,-7077799 -234220,-7077790 -234264,-7077771 -234310,-7077756 -234344,-7077743 -234378,-7077732 -234423,-7077724 -234480,-7077716 -234490,-7077713 -234528,-7077710 -234527,-7077707 -234526,-7077697 -234548,-7077679 -234592,-7077679 -234638,-7077673 -234652,-7077680 -234704,-7077668 -234783,-7077645 -234843,-7077626 -234921,-7077595 -234960,-7077582 -234971,-7077584 -234993,-7077567 -235102,-7077516 -235191,-7077472 -235194,-7077474 -235208,-7077463 -235209,-7077464 -235214,-7077465 -235222,-7077462 -235231,-7077447 -235308,-7077379 -235364,-7077329 -235445,-7077260 -235469,-7077244 -235485,-7077234 -235517,-7077227 -235546,-7077216 -235558,-7077213 -235588,-7077205 -235614,-7077192 -235665,-7077163 -235691,-7077147 -235730,-7077125 -235786,-7077106 -235799,-7077101 -235875,-7077089 -235901,-7077089 -235949,-7077093 -235962,-7077097 -235962,-7077072 -235962,-7077029 -235960,-7076963 -235966,-7076920 -235970,-7076892 -235973,-7076869 -235980,-7076847 -235981,-7076845 -235990,-7076844 -236000,-7076840 -236008,-7076831 -236015,-7076820 -236015,-7076819 -236015,-7076797 -236006,-7076783 -235997,-7076777 -236004,-7076754 -236008,-7076755 -236009,-7076756 -236012,-7076745 -236030,-7076727 -236039,-7076713 -236040,-7076711 -236023,-7076710 -236002,-7076693 -236006,-7076651 -236022,-7076560 -236037,-7076501 -236059,-7076414 -236046,-7076363 -236044,-7076322 -236074,-7076261 -236101,-7076227 -236146,-7076183 -236165,-7076171 -236182,-7076166 -236207,-7076166 -236208,-7076174 -236216,-7076188 -236238,-7076193 -236255,-7076195 -236270,-7076193 -236311,-7076178 -236350,-7076157 -236366,-7076150 -236390,-7076124 -236409,-7076099 -236406,-7076105 -236448,-7076036 -236467,-7076000 -236484,-7075973 -236492,-7075961 -236510,-7075943 -236524,-7075929 -236553,-7075907 -236580,-7075890 -236639,-7075859 -236667,-7075842 -236701,-7075815 -236733,-7075786 -236757,-7075770 -236797,-7075754 -236836,-7075744 -236872,-7075738 -236902,-7075737 -236950,-7075742 -237043,-7075752 -237100,-7075753 -237157,-7075749 -237194,-7075741 -237243,-7075719 -237265,-7075703 -237292,-7075677 -237350,-7075589 -237397,-7075518 -237478,-7075397 -237503,-7075364 -237530,-7075330 -237566,-7075288 -237627,-7075227 -237652,-7075191 -237670,-7075171 -237689,-7075140 -237698,-7075119 -237714,-7075077 -237727,-7075025 -237738,-7074958 -237749,-7074887 -237755,-7074791 -237759,-7074752 -237769,-7074698 -237779,-7074615 -237784,-7074556 -237792,-7074514 -237803,-7074510 -237858,-7074494 -237924,-7074471 -237989,-7074456 -237996,-7074468 -238006,-7074486 -238008,-7074487 -238016,-7074490 -238040,-7074481 -238050,-7074472 -238115,-7074448 -238166,-7074411 -238164,-7074409 -238186,-7074387 -238209,-7074382 -238229,-7074381 -238271,-7074368 -238328,-7074365 -238412,-7074396 -238433,-7074406 -238489,-7074436 -238518,-7074443 -238580,-7074462 -238652,-7074477 -238701,-7074478 -238756,-7074500 -238828,-7074523 -238827,-7074530 -238827,-7074565 -238832,-7074573 -238834,-7074583 -238838,-7074609 -238850,-7074610 -238872,-7074623 -238873,-7074640 -238877,-7074652 -238890,-7074661 -238896,-7074672 -238904,-7074688 -238913,-7074696 -238912,-7074718 -238917,-7074723 -238947,-7074750 -238948,-7074763 -238940,-7074768 -238940,-7074787 -238934,-7074791 -238933,-7074791 -238930,-7074800 -238939,-7074805 -238952,-7074814 -238965,-7074843 -238966,-7074846 -238971,-7074850 -238980,-7074857 -238985,-7074859 -239000,-7074864 -239020,-7074848 -239050,-7074832 -239066,-7074821 -239085,-7074802 -239101,-7074784 -239108,-7074760 -239118,-7074741 -239147,-7074706 -239149,-7074704 -239160,-7074698 -239171,-7074700 -239186,-7074710 -239199,-7074718 -239218,-7074720 -239251,-7074713 -239279,-7074711 -239297,-7074714 -239373,-7074730 -239401,-7074737 -239429,-7074741 -239457,-7074744 -239473,-7074742 -239485,-7074733 -239488,-7074731 -239488,-7074730 -239492,-7074725 -239493,-7074707 -239495,-7074695 -239497,-7074693 -239505,-7074689 -239523,-7074691 -239526,-7074691 -239586,-7074691 -239666,-7074694 -239707,-7074697 -239732,-7074696 -239745,-7074696 -239770,-7074688 -239791,-7074686 -239808,-7074689 -239832,-7074707 -239843,-7074731 -239849,-7074757 -239850,-7074767 -239852,-7074794 -239857,-7074800 -239873,-7074808 -239879,-7074811 -239896,-7074824 -239916,-7074822 -239924,-7074821 -239940,-7074818 -239962,-7074810 -239965,-7074810 -239972,-7074811 -239989,-7074829 -240009,-7074863 -240026,-7074885 -240033,-7074893 -240044,-7074907 -240070,-7074938 -240085,-7074949 -240109,-7074964 -240135,-7074972 -240154,-7074977 -240176,-7074977 -240194,-7074974 -240210,-7074967 -240227,-7074956 -240242,-7074941 -240246,-7074929 -240247,-7074916 -240243,-7074872 -240245,-7074860 -240246,-7074849 -240252,-7074836 -240263,-7074818 -240285,-7074798 -240334,-7074773 -240354,-7074757 -240364,-7074753 -240375,-7074750 -240402,-7074749 -240436,-7074753 -240476,-7074764 -240524,-7074775 -240577,-7074775 -240623,-7074783 -240646,-7074783 -240672,-7074781 -240696,-7074772 -240711,-7074761 -240734,-7074738 -240757,-7074714 -240780,-7074700 -240787,-7074687 -240790,-7074687 -240887,-7074704 -240886,-7074709 -240871,-7074741 -240873,-7074753 -240856,-7074823 -240849,-7074844 -240876,-7074841 -240894,-7074889 -240899,-7074917 -240901,-7074939 -240902,-7074946 -240901,-7074987 -240897,-7075034 -240890,-7075065 -240877,-7075092 -240860,-7075123 -240852,-7075133 -240849,-7075144 -240839,-7075156 -240832,-7075203 -240830,-7075249 -240822,-7075268 -240810,-7075282 -240808,-7075295 -240817,-7075313 -240829,-7075327 -240829,-7075336 -240817,-7075348 -240815,-7075359 -240824,-7075373 -240828,-7075396 -240829,-7075422 -240795,-7075422 -240779,-7075419 -240765,-7075416 -240778,-7075455 -240774,-7075460 -240740,-7075469 -240711,-7075474 -240702,-7075479 -240684,-7075490 -240647,-7075520 -240633,-7075542 -240638,-7075571 -240659,-7075603 -240654,-7075606 -240654,-7075611 -240674,-7075638 -240662,-7075674 -240657,-7075711 -240664,-7075713 -240687,-7075698 -240741,-7075769 -240748,-7075778 -240804,-7075849 -240857,-7075908 -240876,-7075889 -240904,-7075889 -240937,-7075935 -241090,-7075826 -241110,-7075835 -241115,-7075840 -241123,-7075851 -241129,-7075856 -241155,-7075870 -241163,-7075878 -241169,-7075890 -241206,-7075929 -241215,-7075943 -241216,-7075970 -241218,-7075977 -241236,-7075992 -241252,-7075992 -241274,-7076007 -241284,-7076026 -241289,-7076035 -241316,-7076078 -241327,-7076091 -241341,-7076122 -241356,-7076138 -241373,-7076144 -241381,-7076152 -241404,-7076194 -241400,-7076212 -241430,-7076226 -241453,-7076231 -241478,-7076260 -241497,-7076270 -241512,-7076277 -241583,-7076330 -241610,-7076345 -241641,-7076367 -241642,-7076354 -241651,-7076342 -241681,-7076364 -241816,-7076442 -241853,-7076481 -241782,-7076537 -241768,-7076529 -241733,-7076557 -241679,-7076599 -241660,-7076613 -241876,-7076572 -241969,-7076554 -241974,-7076582 -242033,-7076566 -242089,-7076547 -242147,-7076529 -242176,-7076521 -242232,-7076633 -242247,-7076654 -242241,-7076656 -242255,-7076684 -242265,-7076679 -242299,-7076735 -242336,-7076769 -242361,-7076831 -242355,-7076860 -242360,-7076871 -242374,-7076865 -242404,-7076930 -242406,-7076928 -242425,-7076957 -242395,-7076961 -242396,-7076969 -242292,-7077003 -242316,-7077050 -242317,-7077055 -242442,-7077045 -242457,-7077052 -242476,-7077065 -242502,-7077086 -242530,-7077119 -242532,-7077120 -242496,-7077219 -242484,-7077224 -242483,-7077291 -242483,-7077292 -242466,-7077290 -242449,-7077275 -242438,-7077275 -242417,-7077287 -242398,-7077302 -242399,-7077328 -242393,-7077334 -242382,-7077335 -242357,-7077328 -242344,-7077328 -242329,-7077333 -242314,-7077336 -242299,-7077357 -242285,-7077372 -242274,-7077377 -242252,-7077387 -242225,-7077409 -242210,-7077418 -242186,-7077450 -242185,-7077480 -242187,-7077493 -242191,-7077511 -242194,-7077527 -242191,-7077537 -242186,-7077543 -242179,-7077545 -242169,-7077542 -242152,-7077543 -242146,-7077547 -242144,-7077556 -242145,-7077588 -242139,-7077595 -242127,-7077599 -242116,-7077612 -242109,-7077626 -242106,-7077635 -242103,-7077648 -242098,-7077657 -242084,-7077666 -242074,-7077671 -242065,-7077680 -242059,-7077692 -242045,-7077703 -242038,-7077709 -242036,-7077729 -242041,-7077749 -242057,-7077768 -242060,-7077777 -242064,-7077804 -242063,-7077824 -242059,-7077838 -242054,-7077842 -242041,-7077843 -242034,-7077836 -242030,-7077823 -242028,-7077815 -242027,-7077803 -242022,-7077799 -242013,-7077798 -241990,-7077811 -241972,-7077832 -241965,-7077846 -241959,-7077859 -241956,-7077870 -241958,-7077875 -241965,-7077873 -241973,-7077863 -241980,-7077855 -241990,-7077853 -241998,-7077856 -242014,-7077869 -242024,-7077883 -242041,-7077909 -242042,-7077924 -242035,-7077931 -242025,-7077925 -242012,-7077917 -241995,-7077902 -241989,-7077910 -241989,-7077937 -241987,-7077945 -241972,-7077958 -241958,-7077972 -241964,-7077977 -241974,-7077982 -242014,-7077996 -242017,-7078001 -242017,-7078009 -242009,-7078018 -241986,-7078037 -241976,-7078049 -241972,-7078059 -241970,-7078064 -241974,-7078081 -241962,-7078108 -241956,-7078129 -241954,-7078154 -241944,-7078184 -241950,-7078198 -241949,-7078210 -241937,-7078221 -241930,-7078233 -241928,-7078260 -241952,-7078304 -241952,-7078320 -241945,-7078329 -241932,-7078333 -241915,-7078333 -241906,-7078328 -241906,-7078325 -241918,-7078311 -241922,-7078301 -241923,-7078292 -241920,-7078283 -241910,-7078273 -241900,-7078271 -241888,-7078277 -241876,-7078291 -241873,-7078304 -241872,-7078324 -241866,-7078337 -241851,-7078347 -241805,-7078365 -241773,-7078365 -241745,-7078372 -241731,-7078382 -241729,-7078403 -241735,-7078418 -241745,-7078429 -241747,-7078440 -241747,-7078450 -241729,-7078469 -241728,-7078481 -241718,-7078491 -241708,-7078491 -241699,-7078482 -241697,-7078470 -241691,-7078468 -241661,-7078486 -241615,-7078493 -241560,-7078508 -241538,-7078519 -241511,-7078524 -241488,-7078531 -241473,-7078528 -241452,-7078528 -241434,-7078546 -241421,-7078559 -241410,-7078564 -241399,-7078560 -241392,-7078541 -241386,-7078534 -241341,-7078532 -241327,-7078537 -241312,-7078556 -241308,-7078561 -241302,-7078561 -241297,-7078558 -241280,-7078544 -241274,-7078541 -241246,-7078528 -241227,-7078530 -241194,-7078548 -241147,-7078547 -241130,-7078564 -241119,-7078568 -241103,-7078566 -241072,-7078545 -241061,-7078541 -241045,-7078543 -241031,-7078548 -240977,-7078558 -240956,-7078569 -240938,-7078569 -240931,-7078565 -240925,-7078557 -240918,-7078543 -240908,-7078526 -240888,-7078489 -240874,-7078476 -240837,-7078460 -240793,-7078443 -240781,-7078441 -240767,-7078448 -240738,-7078448 -240721,-7078439 -240697,-7078431 -240677,-7078427 -240659,-7078431 -240642,-7078439 -240616,-7078442 -240593,-7078436 -240586,-7078435 -240579,-7078435 -240548,-7078449 -240516,-7078457 -240502,-7078460 -240500,-7078466 -240498,-7078470 -240498,-7078477 -240501,-7078487 -240504,-7078494 -240536,-7078511 -240542,-7078516 -240541,-7078528 -240531,-7078537 -240500,-7078565 -240476,-7078579 -240476,-7078588 -240497,-7078619 -240498,-7078631 -240495,-7078640 -240485,-7078649 -240472,-7078653 -240446,-7078654 -240435,-7078655 -240422,-7078662 -240419,-7078667 -240423,-7078681 -240422,-7078690 -240410,-7078708 -240390,-7078730 -240368,-7078740 -240317,-7078745 -240310,-7078750 -240324,-7078766 -240325,-7078783 -240317,-7078798 -240304,-7078809 -240288,-7078813 -240272,-7078814 -240265,-7078819 -240282,-7078842 -240271,-7078874 -240248,-7078903 -240235,-7078915 -240200,-7078948 -240177,-7078964 -240163,-7078985 -240147,-7078999 -240125,-7079012 -240093,-7079040 -240055,-7079077 -240054,-7079075 -240043,-7079041 -240039,-7079003 -240039,-7078989 -240031,-7078984 -240030,-7078985 -239981,-7079076 -239941,-7079156 -239922,-7079196 -239886,-7079298 -239874,-7079347 -239866,-7079400 -239880,-7079419 -239890,-7079424 -239918,-7079420 -239935,-7079430 -239959,-7079447 -239970,-7079459 -240007,-7079520 -240035,-7079552 -240114,-7079706 -240276,-7080010 -240289,-7080030 -240326,-7080107 -240359,-7080167 -240541,-7080054 -240627,-7080000 -240762,-7079926 -240802,-7079902 -240983,-7079800 -240988,-7079807 -241133,-7079992 -241369,-7080300 -241453,-7080412 -241468,-7080440 -241619,-7080509 -241599,-7080762 -241585,-7081002 -241586,-7081144 -241587,-7081191 -241587,-7081218 -241587,-7081219 -241661,-7081220 -241660,-7081217 -241801,-7081230 -241798,-7081102 -241798,-7081101 -241985,-7081144 -242130,-7081175 -242257,-7081202 -242317,-7081207 -242338,-7081209 -242353,-7081216 -242384,-7081230 -242478,-7081261 -242526,-7081275 -242575,-7081288 -242596,-7081292 -242640,-7081301 -242954,-7081391 -243006,-7081407 -243105,-7081436 -243161,-7081450 -243174,-7081451 -243224,-7081455 -243284,-7081460 -243332,-7081462 -243345,-7081465 -243342,-7081470 -243061,-7081914 -242880,-7082193 -242791,-7082322 -242711,-7082437 -242656,-7082514 -242634,-7082558 -242587,-7082644 -242562,-7082691 -242504,-7082866 -242455,-7083016 -242440,-7083008 -242393,-7083041 -242374,-7083056 -242357,-7083072 -242323,-7083118 -242276,-7083160 -242231,-7083201 -242230,-7083211 -242180,-7083212 -242178,-7083255 -242169,-7083322 -242154,-7083385 -242140,-7083434 -242124,-7083474 -242045,-7083629 -241995,-7083727 -241951,-7083818 -241917,-7083805 -241785,-7084067 -241711,-7084227 -241643,-7084227 -241645,-7084364 -241601,-7084448 -241566,-7084514 -241500,-7084668 -241501,-7084708 -241518,-7084712 -241534,-7085014 -241539,-7085207 -241553,-7085556 -241556,-7085647 -241567,-7085663 -241573,-7085666 -241754,-7085636 -241759,-7085635 -241758,-7085649 -241757,-7085658 -241773,-7085695 -241788,-7085719 -241805,-7085738 -241814,-7085889 -241802,-7085890 -241803,-7085909 -241812,-7085909 -241811,-7085912 -241808,-7085929 -241809,-7086010 -241802,-7086068 -241805,-7086137 -241806,-7086220 -241800,-7086265 -241800,-7086268 -241792,-7086282 -241791,-7086346 -241792,-7086364 -241795,-7086392 -241810,-7086438 -241814,-7086449 -241792,-7086478 -241791,-7086478 -241775,-7086478 -241777,-7086541 -241788,-7086551 -241790,-7086552 -241789,-7086578 -241783,-7086642 -241781,-7086735 -241781,-7086819 -241788,-7086842 -241790,-7086849 -241792,-7086915 -241784,-7086920 -241785,-7086925 -241785,-7086930 -241767,-7086929 -241736,-7086928 -241706,-7086937 -241702,-7086938 -241691,-7086932 -241689,-7086930 -241670,-7086946 -241656,-7086976 -241647,-7086998 -241638,-7087007 -241622,-7087017 -241609,-7087021 -241579,-7087025 -241563,-7087031 -241531,-7087040 -241511,-7087043 -241490,-7087039 -241469,-7087035 -241436,-7087027 -241433,-7087030 -241430,-7087033 -241420,-7087043 -241407,-7087090 -241385,-7087173 -241376,-7087213 -241368,-7087271 -241357,-7087296 -241319,-7087336 -241295,-7087355 -241246,-7087404 -241221,-7087426 -241179,-7087456 -241172,-7087457 -241118,-7087487 -241106,-7087497 -241086,-7087527 -241065,-7087569 -241026,-7087635 -241010,-7087677 -240983,-7087704 -240965,-7087723 -240935,-7087788 -240919,-7087812 -240900,-7087828 -240874,-7087858 -240851,-7087879 -240811,-7087906 -240781,-7087921 -240740,-7087940 -240643,-7087987 -240597,-7088012 -240419,-7088104 -240407,-7088107 -240394,-7088114 -240305,-7088082 -240269,-7088073 -240239,-7088063 -240204,-7088065 -240202,-7088085 -240193,-7088112 -240166,-7088148 -240142,-7088169 -240096,-7088188 -240041,-7088212 -239966,-7088244 -239916,-7088267 -239905,-7088273 -239865,-7088296 -239812,-7088322 -239750,-7088351 -239734,-7088363 -239669,-7088402 -239593,-7088464 -239458,-7088588 -239440,-7088597 -239442,-7088624 -239468,-7088972 -239496,-7089329 -239518,-7089603 -239542,-7089931 -239574,-7089945 -239587,-7089952 -239613,-7089986 -239621,-7090026 -239622,-7090051 -239619,-7090067 -239616,-7090113 -239617,-7090138 -239624,-7090162 -239629,-7090178 -239629,-7090205 -239622,-7090232 -239614,-7090263 -239607,-7090277 -239590,-7090295 -239570,-7090310 -239590,-7090556 -239607,-7090791 -239607,-7090826 -240070,-7091440 -239666,-7091540 -239211,-7091656 -238975,-7091713 -238490,-7091670 -238132,-7091636 -238090,-7091633 -237903,-7091619 -237887,-7091625 -237880,-7091629 -237868,-7091591 -237866,-7091587 -237861,-7091591 -237858,-7091589 -237828,-7091605 -237808,-7091610 -237361,-7091824 -237332,-7091838 -237299,-7091873 -237290,-7091864 -237005,-7092029 -236647,-7092229 -236645,-7092265 -236613,-7092336 -236559,-7092462 -236533,-7092521 -236488,-7092618 -236479,-7092639 -236442,-7092722 -236439,-7092720 -236425,-7092713 -236424,-7092715 -236416,-7092732 -236395,-7092732 -236392,-7092730 -236333,-7092701 -236329,-7092709 -236325,-7092709 -236321,-7092709 -236277,-7092792 -236274,-7092798 -236335,-7092847 -236342,-7092852 -236350,-7092859 -236285,-7092927 -236285,-7092925 -236186,-7093026 -236184,-7093023 -236136,-7093073 -236103,-7093100 -236062,-7093146 -236059,-7093144 -236054,-7093139 -235961,-7093241 -235904,-7093298 -235903,-7093300 -235902,-7093301 -235898,-7093305 -235884,-7093313 -235878,-7093325 -235856,-7093326 -235848,-7093330 -235848,-7093330 -235847,-7093331 -235836,-7093342 -235827,-7093366 -235826,-7093367 -235816,-7093370 -235814,-7093378 -235769,-7093395 -235749,-7093398 -235621,-7093395 -235585,-7093400 -235555,-7093408 -235555,-7093372 -235491,-7093374 -235491,-7093388 -235405,-7093391 -235278,-7093401 -235186,-7093406 -235176,-7093502 -235152,-7093692 -235148,-7093744 -235137,-7093834 -235113,-7093995 -235094,-7094122 -235080,-7094221 -235102,-7094354 -235113,-7094449 -235121,-7094495 -235170,-7094554 -235097,-7094584 -235080,-7094591 -235002,-7094662 -234967,-7094695 -234955,-7094707 -234855,-7094668 -234783,-7094640 -234780,-7094631 -234730,-7094580 -234642,-7094632 -234596,-7094643 -234587,-7094645 -234563,-7094575 -234544,-7094511 -234533,-7094484 -234527,-7094473 -234514,-7094458 -234482,-7094427 -234458,-7094396 -234441,-7094374 -234419,-7094339 -234408,-7094328 -234395,-7094319 -234372,-7094313 -234343,-7094311 -234313,-7094316 -234286,-7094318 -234271,-7094313 -234242,-7094298 -234214,-7094284 -234190,-7094278 -234151,-7094270 -234106,-7094271 -234051,-7094272 -233946,-7094266 -233931,-7094268 -233891,-7094293 -233842,-7094320 -233822,-7094327 -233756,-7094341 -233742,-7094295 -233729,-7094275 -233728,-7094266 -233719,-7094259 -233703,-7094217 -233690,-7094202 -233648,-7094172 -233618,-7094152 -233601,-7094138 -233575,-7094108 -233551,-7094078 -233550,-7094078 -233510,-7094027 -233465,-7094038 -233406,-7094049 -233338,-7094067 -233270,-7094072 -233138,-7094079 -233022,-7094154 -232958,-7094189 -232931,-7094135 -232801,-7094204 -232787,-7094213 -232793,-7094249 -232785,-7094257 -232764,-7094262 -232752,-7094271 -232737,-7094274 -232726,-7094267 -232685,-7094267 -232667,-7094260 -232641,-7094251 -232619,-7094240 -232608,-7094227 -232602,-7094209 -232579,-7094185 -232571,-7094165 -232570,-7094142 -232565,-7094118 -232559,-7094108 -232555,-7094090 -232460,-7094139 -232443,-7094094 -232428,-7094044 -232406,-7094017 -232392,-7094006 -232370,-7093996 -232347,-7093991 -232339,-7093971 -232341,-7093956 -232282,-7093947 -232267,-7093930 -232226,-7093932 -232217,-7093930 -232210,-7093916 -232189,-7093909 -232154,-7093910 -232151,-7093901 -232155,-7093882 -232142,-7093866 -232138,-7093852 -232120,-7093851 -232097,-7093837 -232094,-7093829 -231982,-7093715 -231952,-7093719 -231925,-7093719 -231924,-7093713 -231916,-7093722 -231903,-7093722 -231891,-7093732 -231868,-7093740 -231851,-7093754 -231838,-7093772 -231830,-7093795 -231805,-7093817 -231782,-7093844 -231756,-7093840 -231740,-7093849 -231733,-7093858 -231714,-7093868 -231663,-7093878 -231650,-7093868 -231629,-7093871 -231618,-7093866 -231574,-7093872 -231554,-7093870 -231476,-7093870 -231461,-7093881 -231448,-7093883 -231442,-7093874 -231414,-7093869 -231411,-7093873 -231378,-7093873 -231344,-7093865 -231313,-7093866 -231291,-7093857 -231270,-7093862 -231254,-7093865 -231251,-7093859 -231207,-7093858 -231200,-7093850 -231167,-7093849 -231156,-7093840 -230871,-7093833 -230623,-7093827 -230418,-7093822 -230435,-7093773 -230400,-7093763 -230367,-7093746 -230326,-7093723 -230290,-7093677 -230242,-7093620 -230217,-7093606 -230205,-7093590 -230184,-7093566 -230173,-7093550 -230153,-7093505 -230126,-7093416 -230132,-7093338 -229906,-7093342 -229559,-7093351 -229305,-7093352 -229184,-7093459 -229111,-7093511 -228984,-7093602 -228863,-7093689 -228804,-7093731 -228776,-7093748 -228772,-7093750 -228778,-7093808 -228775,-7093853 -228781,-7093892 -228797,-7093954 -228816,-7094001 -228831,-7094025 -228851,-7094060 -228857,-7094077 -228863,-7094093 -228859,-7094120 -228865,-7094191 -228867,-7094229 -228957,-7094219 -228970,-7094274 -228917,-7094286 -228883,-7094292 -228818,-7094292 -228775,-7094356 -228760,-7094375 -228667,-7094440 -228638,-7094459 -228561,-7094501 -228553,-7094490 -228493,-7094515 -228427,-7094559 -228400,-7094570 -228382,-7094571 -228324,-7094595 -228274,-7094621 -228219,-7094652 -228187,-7094659 -228126,-7094688 -228041,-7094719 -228010,-7094727 -227946,-7094737 -227907,-7094748 -227848,-7094766 -227769,-7094785 -227653,-7094809 -227560,-7094830 -227350,-7094843 -227249,-7094908 -227044,-7095032 -226951,-7095089 -226965,-7095108 -226920,-7095136 -226905,-7095153 -226869,-7095179 -226848,-7095191 -226760,-7095242 -226662,-7095301 -226627,-7095312 -226593,-7095394 -226712,-7095514 -226639,-7095560 -226633,-7095558 -226612,-7095600 -226595,-7095634 -226570,-7095622 -226516,-7095592 -226473,-7095700 -226441,-7095790 -226365,-7095998 -226305,-7096165 -226268,-7096282 -226199,-7096465 -226164,-7096572 -226136,-7096655 -226128,-7096680 -226124,-7096713 -226130,-7096746 -226147,-7096787 -226160,-7096809 -226195,-7096847 -226216,-7096876 -226271,-7096942 -226284,-7096963 -226290,-7096994 -226292,-7097043 -226291,-7097114 -226301,-7097283 -226301,-7097379 -226294,-7097483 -226283,-7097552 -226273,-7097600 -226251,-7097676 -226234,-7097719 -226223,-7097744 -226204,-7097779 -226158,-7097859 -226120,-7097899 -226115,-7097905 -226081,-7097941 -226046,-7097976 -226028,-7098002 -226011,-7098033 -225996,-7098077 -225980,-7098150 -225979,-7098162 -225976,-7098228 -225977,-7098437 -225977,-7098612 -225966,-7098655 -225958,-7098697 -225950,-7098724 -225934,-7098759 -225908,-7098834 -225873,-7098906 -225840,-7098980 -225830,-7099003 -225691,-7099209 -225677,-7099227 -225638,-7099271 -225624,-7099296 -225621,-7099291 -225608,-7099247 -225593,-7099184 -225573,-7099073 -225559,-7099014 -225552,-7098969 -225554,-7098875 -225555,-7098860 -225563,-7098812 -225573,-7098765 -225582,-7098665 -225556,-7098608 -225540,-7098561 -225499,-7098415 -225466,-7098304 -225435,-7098211 -225403,-7098095 -225375,-7098025 -225350,-7097977 -225298,-7097892 -225269,-7097845 -225241,-7097796" stroke="#003087" stroke-width="55" /></svg>