<?xml version="1.0" standalone="no"?>
<!DOCTYPE svg PUBLIC "-//W3C//DTD SVG 1.1//EN"
"http://www.w3.org/Graphics/SVG/1.1/DTD/svg11.dtd">
<svg height="115" version="1.1" viewBox="-223693 -7125746 48832 46025" width="220" xmlns="http://www.w3.org/2000/svg"><polygon fill="#003087" points=" -189575,-7125606 -189570,-7125601 -189528,-7125651 -189461,-7125568 -189453,-7125559 -189413,-7125599 -189337,-7125544 -189300,-7125516 -189219,-7125459 -189197,-7125444 -189147,-7125409 -189086,-7125356 -189033,-7125319 -189004,-7125295 -188997,-7125290 -188990,-7125301 -188925,-7125265 -188838,-7125232 -188785,-7125215 -188775,-7125214 -188733,-7125211 -188722,-7125210 -188723,-7125203 -188774,-7125168 -188762,-7125158 -188702,-7125105 -188677,-7125110 -188676,-7125111 -188672,-7125095 -188669,-7125089 -188661,-7125075 -188659,-7125073 -188635,-7125052 -188626,-7125027 -188601,-7125009 -188565,-7124985 -188555,-7124966 -188536,-7124971 -188505,-7124980 -188471,-7124973 -188434,-7124958 -188413,-7124945 -188388,-7124935 -188361,-7124927 -188352,-7124919 -188289,-7124903 -188262,-7124895 -188197,-7124862 -188134,-7124826 -188127,-7124823 -188128,-7124806 -188129,-7124804 -188125,-7124799 -188084,-7124753 -188206,-7124536 -188199,-7124531 -188190,-7124547 -188059,-7124497 -187937,-7124453 -187795,-7124397 -187779,-7124436 -187772,-7124434 -187757,-7124474 -187610,-7124409 -187552,-7124381 -187506,-7124357 -187451,-7124327 -187367,-7124283 -187239,-7124198 -187203,-7124173 -187197,-7124168 -187060,-7124066 -186943,-7123977 -186836,-7123881 -186650,-7123700 -186618,-7123639 -186641,-7123612 -186586,-7123566 -186549,-7123496 -186534,-7123447 -186571,-7123412 -186586,-7123401 -186559,-7123352 -186444,-7123350 -186411,-7123343 -186275,-7123261 -186189,-7123197 -186105,-7123132 -186040,-7123083 -185952,-7123018 -185874,-7122961 -185814,-7122916 -185729,-7122849 -185724,-7122856 -185637,-7122765 -185579,-7122717 -185538,-7122691 -185498,-7122657 -185430,-7122615 -185347,-7122565 -185271,-7122524 -185231,-7122501 -185130,-7122455 -185052,-7122420 -185056,-7122429 -185032,-7122423 -184959,-7122398 -184928,-7122371 -184883,-7122357 -184794,-7122342 -184728,-7122329 -184667,-7122320 -184608,-7122314 -184641,-7122242 -184578,-7122229 -184574,-7122220 -184617,-7122095 -184437,-7122133 -184354,-7122149 -184230,-7122174 -184188,-7122179 -184146,-7122185 -184111,-7122192 -184070,-7122199 -184029,-7122208 -183994,-7122217 -183853,-7122250 -183682,-7122299 -183637,-7122316 -183621,-7122332 -183594,-7122318 -183523,-7122320 -183477,-7122327 -183436,-7122337 -183351,-7122362 -183195,-7122404 -183048,-7122443 -182939,-7122473 -182896,-7122483 -182882,-7122486 -182841,-7122495 -182800,-7122504 -182759,-7122511 -182648,-7122520 -182527,-7122530 -182439,-7122529 -182328,-7122523 -182370,-7122473 -182466,-7122361 -182489,-7122348 -182491,-7122348 -182512,-7122342 -182432,-7122283 -182419,-7122232 -182413,-7122227 -182389,-7122206 -182397,-7122181 -182404,-7122141 -182406,-7122100 -182433,-7122037 -182423,-7122027 -182421,-7121993 -182398,-7121957 -182386,-7121958 -182385,-7121948 -182352,-7121899 -182314,-7121855 -182322,-7121844 -182322,-7121834 -182305,-7121821 -182313,-7121786 -182299,-7121779 -182261,-7121727 -182237,-7121701 -182200,-7121670 -182179,-7121663 -182171,-7121655 -182169,-7121651 -182165,-7121644 -182169,-7121623 -182161,-7121587 -182149,-7121569 -182124,-7121576 -182113,-7121570 -182112,-7121563 -182103,-7121555 -182103,-7121546 -182115,-7121525 -182108,-7121504 -182115,-7121484 -182124,-7121479 -182126,-7121473 -182125,-7121468 -182122,-7121459 -182138,-7121441 -182139,-7121421 -182132,-7121409 -182132,-7121384 -182166,-7121348 -182170,-7121340 -182166,-7121325 -182170,-7121316 -182187,-7121313 -182201,-7121295 -182209,-7121269 -182204,-7121241 -182217,-7121219 -182217,-7121202 -182197,-7121176 -182191,-7121156 -182195,-7121109 -182209,-7121088 -182207,-7121076 -182195,-7121077 -182150,-7120967 -182116,-7120988 -182088,-7121011 -182053,-7121027 -182036,-7121027 -182016,-7121039 -182003,-7121045 -181986,-7121045 -181979,-7121050 -181926,-7120986 -182027,-7120910 -182053,-7120892 -182062,-7120885 -182071,-7120878 -182080,-7120871 -182095,-7120857 -182110,-7120844 -182117,-7120838 -182132,-7120824 -182147,-7120809 -182147,-7120807 -182137,-7120693 -182149,-7120687 -182153,-7120674 -182147,-7120667 -182131,-7120669 -182117,-7120649 -182118,-7120632 -182129,-7120620 -182129,-7120607 -182108,-7120589 -182109,-7120556 -182101,-7120547 -182102,-7120530 -182097,-7120517 -182087,-7120507 -182077,-7120497 -182073,-7120470 -182059,-7120452 -182051,-7120438 -182043,-7120426 -182033,-7120413 -182016,-7120407 -181998,-7120409 -181981,-7120405 -181980,-7120387 -181968,-7120380 -181968,-7120372 -181953,-7120350 -181954,-7120339 -181960,-7120333 -181962,-7120302 -181955,-7120294 -181955,-7120274 -181945,-7120247 -181938,-7120228 -181919,-7120214 -181912,-7120209 -181905,-7120197 -181906,-7120154 -181890,-7120156 -181887,-7120147 -181887,-7120119 -181883,-7120096 -181894,-7120083 -181879,-7120063 -181880,-7120035 -181876,-7120027 -181858,-7120026 -181852,-7120015 -181851,-7120000 -181853,-7119999 -181860,-7119978 -181874,-7119964 -181859,-7119956 -181864,-7119945 -181862,-7119928 -181826,-7119914 -181826,-7119896 -181817,-7119885 -181819,-7119844 -181794,-7119814 -181794,-7119798 -181783,-7119770 -181763,-7119742 -181779,-7119732 -181781,-7119719 -181776,-7119702 -181759,-7119695 -181758,-7119682 -181751,-7119675 -181753,-7119665 -181753,-7119656 -181741,-7119651 -181742,-7119635 -181753,-7119628 -181753,-7119622 -181748,-7119616 -181724,-7119615 -181713,-7119612 -181693,-7119596 -181683,-7119583 -181693,-7119532 -181681,-7119516 -181681,-7119504 -181671,-7119505 -181668,-7119461 -181656,-7119381 -181660,-7119378 -181666,-7119378 -181669,-7119379 -181681,-7119386 -181686,-7119390 -181695,-7119396 -181699,-7119368 -181697,-7119354 -181701,-7119342 -181701,-7119339 -181702,-7119309 -181698,-7119305 -181694,-7119305 -181681,-7119304 -181673,-7119295 -181671,-7119292 -181676,-7119269 -181695,-7119249 -181675,-7119247 -181665,-7119228 -181666,-7119209 -181678,-7119185 -181696,-7119184 -181688,-7119173 -181689,-7119161 -181682,-7119155 -181683,-7119145 -181685,-7119140 -181686,-7119132 -181681,-7119124 -181682,-7119097 -181694,-7119092 -181697,-7119085 -181693,-7119077 -181670,-7119059 -181667,-7119045 -181646,-7119024 -181646,-7119016 -181657,-7119007 -181666,-7119006 -181666,-7118996 -181653,-7118985 -181656,-7118956 -181642,-7118956 -181646,-7118930 -181627,-7118919 -181612,-7118900 -181613,-7118889 -181609,-7118881 -181596,-7118883 -181583,-7118867 -181583,-7118862 -181590,-7118861 -181603,-7118868 -181608,-7118865 -181615,-7118855 -181610,-7118846 -181603,-7118846 -181589,-7118854 -181582,-7118855 -181574,-7118846 -181574,-7118832 -181561,-7118815 -181535,-7118800 -181529,-7118796 -181511,-7118792 -181508,-7118786 -181519,-7118775 -181528,-7118776 -181532,-7118770 -181532,-7118757 -181537,-7118749 -181534,-7118738 -181509,-7118720 -181497,-7118707 -181489,-7118712 -181489,-7118727 -181482,-7118722 -181481,-7118702 -181463,-7118681 -181462,-7118664 -181449,-7118653 -181449,-7118643 -181456,-7118638 -181471,-7118640 -181487,-7118641 -181499,-7118639 -181506,-7118621 -181506,-7118606 -181495,-7118598 -181481,-7118594 -181464,-7118578 -181453,-7118573 -181429,-7118580 -181422,-7118573 -181416,-7118556 -181404,-7118548 -181397,-7118533 -181377,-7118513 -181372,-7118498 -181357,-7118498 -181344,-7118471 -181355,-7118454 -181354,-7118443 -181325,-7118412 -181308,-7118410 -181284,-7118398 -181272,-7118397 -181248,-7118383 -181246,-7118360 -181245,-7118338 -181235,-7118324 -181218,-7118322 -181190,-7118313 -181178,-7118300 -181179,-7118280 -181184,-7118272 -181184,-7118262 -181170,-7118237 -181147,-7118227 -181136,-7118217 -181128,-7118213 -181111,-7118211 -181080,-7118183 -181087,-7118159 -181102,-7118135 -181111,-7118113 -181109,-7118091 -181095,-7118080 -181093,-7118070 -181102,-7118042 -181102,-7118024 -181086,-7118010 -181070,-7118000 -181060,-7118001 -181038,-7118023 -181024,-7118013 -181005,-7118007 -180987,-7117992 -180956,-7117957 -180937,-7117945 -180923,-7117925 -180925,-7117911 -180937,-7117890 -180937,-7117873 -180886,-7117772 -180880,-7117741 -180878,-7117730 -180875,-7117720 -180873,-7117710 -180873,-7117709 -180864,-7117674 -180864,-7117656 -180874,-7117607 -180887,-7117573 -180827,-7117563 -180759,-7117545 -180737,-7117531 -180695,-7117516 -180660,-7117510 -180666,-7117485 -180667,-7117458 -180663,-7117441 -180657,-7117442 -180658,-7117409 -180659,-7117362 -180661,-7117348 -180659,-7117327 -180662,-7117315 -180669,-7117307 -180692,-7117308 -180699,-7117299 -180701,-7117283 -180724,-7117245 -180731,-7117229 -180681,-7117210 -180668,-7117200 -180663,-7117195 -180668,-7117175 -180667,-7117150 -180678,-7117140 -180676,-7117125 -180672,-7117110 -180684,-7117104 -180690,-7117074 -180712,-7117040 -180712,-7117031 -180691,-7117031 -180691,-7117026 -180637,-7117029 -180595,-7117034 -180538,-7117042 -180536,-7117053 -180498,-7117042 -180480,-7117056 -180441,-7117095 -180403,-7117125 -180403,-7117136 -180391,-7117141 -180370,-7117144 -180360,-7117153 -180346,-7117156 -180314,-7117171 -180299,-7117172 -180286,-7117176 -180281,-7117172 -180281,-7117166 -180248,-7117129 -180249,-7117120 -180232,-7117110 -180224,-7117098 -180213,-7117098 -180193,-7117096 -180167,-7117100 -180133,-7117100 -180122,-7117107 -180101,-7117111 -180097,-7117121 -180092,-7117124 -180085,-7117124 -180075,-7117133 -180074,-7117134 -180053,-7117142 -180048,-7117139 -180029,-7117157 -180003,-7117170 -179995,-7117171 -179987,-7117189 -179973,-7117207 -179965,-7117210 -179956,-7117211 -179943,-7117201 -179933,-7117201 -179923,-7117214 -179916,-7117214 -179906,-7117205 -179900,-7117204 -179880,-7117221 -179870,-7117215 -179855,-7117231 -179848,-7117228 -179836,-7117226 -179817,-7117231 -179800,-7117225 -179757,-7117246 -179732,-7117257 -179727,-7117266 -179710,-7117272 -179688,-7117290 -179646,-7117289 -179616,-7117303 -179614,-7117312 -179565,-7117343 -179521,-7117383 -179511,-7117382 -179430,-7117423 -179365,-7117458 -179332,-7117473 -179300,-7117480 -179277,-7117492 -179262,-7117494 -179245,-7117486 -179237,-7117475 -179186,-7117504 -179179,-7117512 -179169,-7117508 -179093,-7117516 -179039,-7117523 -179004,-7117517 -178979,-7117509 -178970,-7117506 -178957,-7117502 -178945,-7117498 -178941,-7117497 -178927,-7117491 -178923,-7117490 -178920,-7117488 -178916,-7117486 -178912,-7117485 -178908,-7117483 -178904,-7117482 -178902,-7117481 -178884,-7117476 -178858,-7117471 -178798,-7117470 -178751,-7117468 -178718,-7117527 -178656,-7117491 -178584,-7117450 -178518,-7117423 -178420,-7117380 -178337,-7117315 -178324,-7117297 -178309,-7117283 -178287,-7117271 -178263,-7117263 -178231,-7117259 -178183,-7117258 -178106,-7117260 -178074,-7117258 -178014,-7117240 -177901,-7117208 -177775,-7117178 -177615,-7117130 -177510,-7117096 -177424,-7117075 -177408,-7117073 -177243,-7117029 -177231,-7117017 -177232,-7116999 -177239,-7116977 -177079,-7116924 -177048,-7116923 -177002,-7116907 -177002,-7116918 -176981,-7116920 -176973,-7116915 -176893,-7116832 -176871,-7116800 -176869,-7116782 -176860,-7116770 -176853,-7116762 -176837,-7116756 -176819,-7116740 -176798,-7116715 -176781,-7116704 -176769,-7116686 -176769,-7116671 -176760,-7116660 -176752,-7116656 -176738,-7116656 -176718,-7116647 -176691,-7116657 -176669,-7116653 -176649,-7116671 -176635,-7116673 -176622,-7116663 -176604,-7116658 -176570,-7116653 -176561,-7116658 -176550,-7116669 -176531,-7116671 -176517,-7116663 -176489,-7116655 -176474,-7116657 -176459,-7116662 -176446,-7116652 -176417,-7116611 -176392,-7116591 -176353,-7116577 -176297,-7116581 -176287,-7116574 -176270,-7116500 -176261,-7116480 -176254,-7116472 -176254,-7116454 -176260,-7116454 -176259,-7116399 -176216,-7116336 -176216,-7116312 -176254,-7116320 -176260,-7116307 -176261,-7116289 -176233,-7116290 -176225,-7116283 -176223,-7116267 -176208,-7116253 -176189,-7116247 -176178,-7116246 -176167,-7116242 -176159,-7116229 -176154,-7116205 -176140,-7116189 -176117,-7116154 -176091,-7116134 -176054,-7116112 -176041,-7116099 -176029,-7116081 -176019,-7116049 -176002,-7116019 -175988,-7116001 -175966,-7115987 -175954,-7115973 -175967,-7115961 -175981,-7115955 -175988,-7115940 -175979,-7115932 -175970,-7115932 -175957,-7115943 -175948,-7115955 -175938,-7115956 -175902,-7115938 -175882,-7115906 -175869,-7115902 -175860,-7115890 -175854,-7115870 -175858,-7115836 -175840,-7115842 -175832,-7115835 -175827,-7115811 -175833,-7115806 -175832,-7115778 -175837,-7115762 -175810,-7115755 -175797,-7115741 -175795,-7115706 -175782,-7115690 -175780,-7115679 -175754,-7115667 -175747,-7115657 -175742,-7115630 -175744,-7115611 -175739,-7115600 -175724,-7115584 -175721,-7115569 -175733,-7115538 -175734,-7115521 -175742,-7115510 -175738,-7115494 -175737,-7115470 -175741,-7115461 -175740,-7115452 -175722,-7115452 -175715,-7115445 -175715,-7115434 -175728,-7115420 -175735,-7115406 -175725,-7115387 -175705,-7115385 -175693,-7115372 -175679,-7115376 -175665,-7115385 -175660,-7115381 -175650,-7115365 -175628,-7115352 -175613,-7115330 -175585,-7115331 -175571,-7115325 -175546,-7115327 -175527,-7115319 -175505,-7115297 -175497,-7115283 -175490,-7115265 -175468,-7115264 -175461,-7115254 -175461,-7115244 -175452,-7115240 -175441,-7115245 -175413,-7115243 -175404,-7115233 -175403,-7115213 -175394,-7115197 -175337,-7115168 -175317,-7115165 -175285,-7115170 -175263,-7115180 -175251,-7115179 -175248,-7115165 -175232,-7115165 -175216,-7115173 -175210,-7115172 -175216,-7115149 -175224,-7115137 -175223,-7115128 -175215,-7115121 -175206,-7115122 -175200,-7115128 -175199,-7115139 -175204,-7115149 -175189,-7115155 -175181,-7115153 -175172,-7115135 -175173,-7115129 -175184,-7115124 -175193,-7115112 -175188,-7115101 -175188,-7115089 -175180,-7115092 -175160,-7115108 -175150,-7115110 -175141,-7115107 -175136,-7115098 -175137,-7115088 -175142,-7115081 -175143,-7115072 -175132,-7115062 -175116,-7115060 -175108,-7115066 -175102,-7115078 -175092,-7115077 -175087,-7115069 -175086,-7115055 -175098,-7115036 -175099,-7115023 -175090,-7115015 -175079,-7115015 -175065,-7115022 -175055,-7115008 -175036,-7115008 -175010,-7114983 -174988,-7114974 -174964,-7114950 -174944,-7114941 -174940,-7114932 -174939,-7114919 -174926,-7114900 -174926,-7114884 -174918,-7114872 -174908,-7114883 -174896,-7114878 -174885,-7114865 -174885,-7114857 -174896,-7114845 -174896,-7114838 -174877,-7114814 -174874,-7114786 -174861,-7114769 -174896,-7114747 -174970,-7114707 -175035,-7114676 -175064,-7114664 -175120,-7114621 -175123,-7114608 -175214,-7114580 -175251,-7114554 -175290,-7114539 -175353,-7114479 -175388,-7114464 -175416,-7114457 -175454,-7114433 -175480,-7114418 -175491,-7114412 -175527,-7114398 -175586,-7114400 -175620,-7114381 -175640,-7114372 -175691,-7114361 -175709,-7114360 -175757,-7114326 -175838,-7114298 -175863,-7114289 -175888,-7114280 -175957,-7114250 -176003,-7114218 -176025,-7114205 -176162,-7114165 -176208,-7114160 -176244,-7114148 -176275,-7114135 -176326,-7114129 -176345,-7114125 -176352,-7114124 -176361,-7114119 -176370,-7114112 -176380,-7114110 -176398,-7114116 -176412,-7114114 -176445,-7114128 -176464,-7114116 -176488,-7114124 -176535,-7114119 -176566,-7114110 -176578,-7114111 -176592,-7114115 -176604,-7114115 -176649,-7114097 -176683,-7114081 -176690,-7114078 -176723,-7114052 -176752,-7114040 -176784,-7114029 -176798,-7114021 -176823,-7114013 -176852,-7114005 -176877,-7114000 -176898,-7113998 -176930,-7113995 -176988,-7113973 -177003,-7113964 -177018,-7113953 -177031,-7113941 -177037,-7113932 -177045,-7113919 -177063,-7113890 -177104,-7113823 -177134,-7113799 -177186,-7113763 -177274,-7113706 -177310,-7113675 -177368,-7113639 -177374,-7113638 -177389,-7113627 -177462,-7113583 -177556,-7113542 -177591,-7113569 -177619,-7113611 -177635,-7113644 -177640,-7113655 -177645,-7113660 -177658,-7113656 -177712,-7113628 -177734,-7113607 -177823,-7113555 -177882,-7113519 -177918,-7113502 -177930,-7113502 -177934,-7113487 -177946,-7113404 -177966,-7113366 -178020,-7113285 -178034,-7113259 -178037,-7113228 -178064,-7113181 -178090,-7113157 -178100,-7113144 -178111,-7113112 -178166,-7113058 -178176,-7113041 -178229,-7112946 -178263,-7112877 -178292,-7112861 -178322,-7112839 -178351,-7112838 -178340,-7112808 -178341,-7112788 -178346,-7112775 -178349,-7112772 -178365,-7112758 -178370,-7112741 -178389,-7112700 -178392,-7112662 -178365,-7112657 -178360,-7112637 -178369,-7112599 -178365,-7112546 -178362,-7112488 -178368,-7112472 -178380,-7112461 -178368,-7112448 -178376,-7112407 -178377,-7112352 -178393,-7112330 -178395,-7112291 -178380,-7112277 -178360,-7112229 -178340,-7112207 -178338,-7112190 -178323,-7112176 -178322,-7112171 -178339,-7112148 -178359,-7112125 -178385,-7112099 -178389,-7112071 -178280,-7112055 -178170,-7112038 -178051,-7112019 -177971,-7112005 -177885,-7111989 -177768,-7111967 -177771,-7111944 -177641,-7111921 -177609,-7111904 -177604,-7111916 -177527,-7111938 -177469,-7111937 -177418,-7111941 -177345,-7111950 -177320,-7111952 -177254,-7111957 -177254,-7111944 -177238,-7111944 -177238,-7111929 -177246,-7111914 -177250,-7111894 -177257,-7111865 -177258,-7111842 -177238,-7111739 -177237,-7111721 -177230,-7111695 -177228,-7111627 -177233,-7111595 -177211,-7111538 -177251,-7111515 -177289,-7111491 -177315,-7111483 -177340,-7111468 -177392,-7111405 -177428,-7111335 -177445,-7111296 -177465,-7111275 -177470,-7111261 -177469,-7111245 -177493,-7111217 -177516,-7111203 -177548,-7111168 -177561,-7111141 -177613,-7111101 -177633,-7111071 -177652,-7111059 -177662,-7111030 -177709,-7110975 -177739,-7110928 -177768,-7110864 -177808,-7110824 -177811,-7110813 -177832,-7110803 -177835,-7110793 -177835,-7110776 -177849,-7110722 -177866,-7110655 -177869,-7110619 -177894,-7110628 -177920,-7110563 -177928,-7110566 -177938,-7110544 -177969,-7110550 -177972,-7110534 -177981,-7110478 -178084,-7110495 -178166,-7110504 -178266,-7110510 -178332,-7110520 -178359,-7110531 -178400,-7110467 -178417,-7110441 -178414,-7110408 -178409,-7110383 -178411,-7110366 -178433,-7110351 -178442,-7110333 -178444,-7110318 -178462,-7110287 -178463,-7110277 -178480,-7110256 -178504,-7110232 -178501,-7110202 -178496,-7110191 -178500,-7110175 -178513,-7110148 -178532,-7110126 -178542,-7110104 -178560,-7110032 -178576,-7109973 -178590,-7109945 -178605,-7109920 -178615,-7109895 -178619,-7109847 -178624,-7109846 -178628,-7109814 -178629,-7109753 -178634,-7109710 -178644,-7109699 -178660,-7109686 -178672,-7109673 -178673,-7109669 -178722,-7109643 -178738,-7109639 -178766,-7109636 -178781,-7109628 -178843,-7109621 -178881,-7109617 -178915,-7109616 -178946,-7109611 -178965,-7109601 -178988,-7109588 -178987,-7109585 -179049,-7109557 -179095,-7109540 -179148,-7109518 -179189,-7109497 -179186,-7109492 -179192,-7109486 -179256,-7109446 -179273,-7109428 -179315,-7109384 -179323,-7109393 -179336,-7109400 -179369,-7109411 -179400,-7109411 -179418,-7109401 -179428,-7109397 -179444,-7109390 -179487,-7109356 -179527,-7109357 -179587,-7109366 -179643,-7109377 -179681,-7109330 -179717,-7109353 -179749,-7109351 -179805,-7109328 -179794,-7109270 -179774,-7109156 -179755,-7109006 -179755,-7108898 -179755,-7108860 -179753,-7108822 -179749,-7108797 -179745,-7108773 -179745,-7108772 -179732,-7108722 -179724,-7108697 -179716,-7108674 -179705,-7108651 -179693,-7108631 -179680,-7108612 -179663,-7108593 -179646,-7108575 -179630,-7108561 -179614,-7108549 -179593,-7108535 -179567,-7108521 -179361,-7108424 -179255,-7108381 -179152,-7108355 -179059,-7108341 -179004,-7108347 -178955,-7108276 -178993,-7108205 -179056,-7108084 -179028,-7108056 -179003,-7108022 -178941,-7107928 -178896,-7107854 -178863,-7107787 -178858,-7107742 -178631,-7107767 -178577,-7107770 -178527,-7107764 -178526,-7107772 -178469,-7107764 -178431,-7107753 -178399,-7107733 -178396,-7107737 -178331,-7107685 -178297,-7107651 -178275,-7107638 -178257,-7107623 -178254,-7107617 -178217,-7107594 -178064,-7107457 -178028,-7107427 -178012,-7107414 -177962,-7107360 -177942,-7107325 -177927,-7107310 -177928,-7107303 -177914,-7107296 -177796,-7107147 -177690,-7107036 -177667,-7107015 -177589,-7106939 -177591,-7106936 -177568,-7106916 -177569,-7106912 -177390,-7106761 -177381,-7106766 -177318,-7106717 -177248,-7106657 -177179,-7106602 -177134,-7106564 -177158,-7106538 -177163,-7106517 -177155,-7106466 -177146,-7106443 -177130,-7106425 -177065,-7106364 -177060,-7106355 -177057,-7106347 -177052,-7106323 -177048,-7106263 -177050,-7106258 -177036,-7106248 -177047,-7106232 -177032,-7106223 -177064,-7106166 -177067,-7106150 -177077,-7106136 -177079,-7106138 -177082,-7106140 -177096,-7106118 -177149,-7106151 -177203,-7106177 -177257,-7106038 -177292,-7105926 -177295,-7105911 -177294,-7105900 -177273,-7105885 -177275,-7105868 -177286,-7105854 -177325,-7105860 -177361,-7105876 -177391,-7105907 -177412,-7105915 -177429,-7105934 -177439,-7105948 -177478,-7105973 -177498,-7105976 -177521,-7105978 -177545,-7105986 -177560,-7105996 -177580,-7105994 -177587,-7105988 -177586,-7105972 -177591,-7105968 -177598,-7105974 -177601,-7105984 -177647,-7105953 -177651,-7105937 -177660,-7105933 -177679,-7105930 -177683,-7105924 -177675,-7105911 -177677,-7105899 -177690,-7105895 -177704,-7105880 -177736,-7105826 -177728,-7105814 -177736,-7105812 -177743,-7105812 -177759,-7105824 -177775,-7105828 -177792,-7105827 -177812,-7105817 -177832,-7105795 -177853,-7105787 -177854,-7105771 -177860,-7105760 -177898,-7105747 -177921,-7105736 -177939,-7105722 -177947,-7105722 -177960,-7105728 -177974,-7105730 -177984,-7105725 -178007,-7105724 -178026,-7105721 -178051,-7105715 -178052,-7105725 -178045,-7105747 -178048,-7105758 -178067,-7105770 -178086,-7105771 -178130,-7105765 -178151,-7105765 -178151,-7105748 -178121,-7105736 -178122,-7105716 -178130,-7105695 -178180,-7105681 -178194,-7105681 -178203,-7105689 -178219,-7105690 -178233,-7105681 -178269,-7105667 -178310,-7105660 -178334,-7105644 -178348,-7105633 -178361,-7105631 -178411,-7105646 -178425,-7105656 -178461,-7105656 -178508,-7105617 -178556,-7105615 -178602,-7105579 -178606,-7105578 -178606,-7105572 -178625,-7105569 -178640,-7105589 -178665,-7105580 -178687,-7105562 -178714,-7105534 -178763,-7105517 -178783,-7105517 -178791,-7105506 -178800,-7105473 -178805,-7105467 -178813,-7105463 -178819,-7105463 -178824,-7105472 -178828,-7105492 -178835,-7105497 -178845,-7105493 -178862,-7105470 -178881,-7105455 -178891,-7105455 -178905,-7105466 -178920,-7105473 -178947,-7105478 -178974,-7105479 -178981,-7105470 -178982,-7105462 -178991,-7105456 -179016,-7105455 -179028,-7105460 -179039,-7105477 -179055,-7105489 -179070,-7105488 -179082,-7105479 -179083,-7105464 -179089,-7105458 -179168,-7105460 -179178,-7105454 -179177,-7105442 -179197,-7105423 -179208,-7105420 -179223,-7105422 -179241,-7105438 -179252,-7105450 -179277,-7105448 -179282,-7105438 -179279,-7105429 -179270,-7105423 -179272,-7105414 -179292,-7105403 -179312,-7105388 -179319,-7105377 -179318,-7105360 -179308,-7105352 -179309,-7105340 -179332,-7105321 -179349,-7105311 -179360,-7105311 -179370,-7105318 -179386,-7105325 -179417,-7105321 -179442,-7105318 -179456,-7105311 -179483,-7105311 -179523,-7105299 -179567,-7105296 -179593,-7105288 -179657,-7105277 -179735,-7105259 -179768,-7105254 -179818,-7105253 -179857,-7105244 -179902,-7105239 -179936,-7105230 -179974,-7105229 -180030,-7105213 -180046,-7105206 -180061,-7105204 -180079,-7105198 -180085,-7105189 -180089,-7105163 -180121,-7105167 -180136,-7105167 -180160,-7105155 -180251,-7105156 -180269,-7105151 -180307,-7105149 -180332,-7105144 -180345,-7105144 -180353,-7105157 -180377,-7105157 -180395,-7105147 -180423,-7105148 -180447,-7105153 -180484,-7105154 -180492,-7105147 -180497,-7105121 -180497,-7105082 -180511,-7105045 -180515,-7105017 -180563,-7104993 -180593,-7104994 -180602,-7104981 -180615,-7104981 -180623,-7104985 -180633,-7104985 -180637,-7104979 -180635,-7104969 -180640,-7104962 -180653,-7104958 -180657,-7104947 -180663,-7104950 -180671,-7104959 -180685,-7104966 -180696,-7104958 -180702,-7104948 -180703,-7104934 -180695,-7104925 -180698,-7104910 -180716,-7104904 -180737,-7104911 -180768,-7104913 -180783,-7104914 -180784,-7104914 -180793,-7104917 -180797,-7104913 -180804,-7104905 -180819,-7104899 -180856,-7104900 -180865,-7104890 -180865,-7104875 -180858,-7104860 -180883,-7104831 -180880,-7104822 -180870,-7104807 -180861,-7104785 -180845,-7104767 -180844,-7104760 -180844,-7104747 -180839,-7104739 -180827,-7104732 -180812,-7104728 -180801,-7104730 -180791,-7104733 -180784,-7104730 -180780,-7104722 -180780,-7104717 -180785,-7104714 -180788,-7104703 -180785,-7104687 -180784,-7104664 -180778,-7104656 -180763,-7104652 -180761,-7104643 -180745,-7104630 -180747,-7104603 -180770,-7104601 -180772,-7104594 -180764,-7104578 -180775,-7104571 -180773,-7104564 -180757,-7104556 -180757,-7104541 -180752,-7104532 -180733,-7104535 -180715,-7104534 -180710,-7104532 -180711,-7104513 -180707,-7104504 -180708,-7104480 -180727,-7104461 -180727,-7104454 -180719,-7104445 -180711,-7104434 -180713,-7104406 -180705,-7104398 -180687,-7104397 -180656,-7104387 -180649,-7104379 -180649,-7104368 -180643,-7104358 -180631,-7104358 -180618,-7104349 -180610,-7104340 -180610,-7104324 -180602,-7104307 -180589,-7104288 -180577,-7104235 -180576,-7104226 -180566,-7104219 -180564,-7104209 -180564,-7104184 -180543,-7104186 -180529,-7104179 -180518,-7104165 -180513,-7104143 -180512,-7104120 -180519,-7104112 -180518,-7104097 -180512,-7104088 -180514,-7104078 -180519,-7104070 -180529,-7104071 -180539,-7104055 -180531,-7104035 -180499,-7103972 -180487,-7103960 -180487,-7103943 -180496,-7103936 -180488,-7103923 -180490,-7103904 -180462,-7103900 -180455,-7103885 -180455,-7103851 -180443,-7103841 -180442,-7103834 -180451,-7103826 -180449,-7103811 -180439,-7103803 -180444,-7103794 -180445,-7103775 -180437,-7103755 -180430,-7103729 -180410,-7103699 -180401,-7103677 -180391,-7103663 -180389,-7103647 -180381,-7103634 -180368,-7103628 -180354,-7103614 -180338,-7103607 -180323,-7103586 -180309,-7103577 -180298,-7103565 -180282,-7103559 -180274,-7103541 -180275,-7103530 -180285,-7103524 -180290,-7103511 -180284,-7103501 -180270,-7103483 -180249,-7103469 -180248,-7103456 -180257,-7103442 -180257,-7103425 -180271,-7103414 -180280,-7103392 -180282,-7103358 -180293,-7103336 -180297,-7103318 -180305,-7103310 -180310,-7103284 -180322,-7103275 -180321,-7103222 -180350,-7103194 -180354,-7103164 -180365,-7103144 -180379,-7103087 -180393,-7103079 -180397,-7103067 -180394,-7103031 -180417,-7102977 -180424,-7102951 -180448,-7102950 -180455,-7102936 -180459,-7102921 -180471,-7102900 -180485,-7102900 -180500,-7102894 -180515,-7102856 -180531,-7102851 -180532,-7102834 -180540,-7102825 -180556,-7102829 -180572,-7102829 -180582,-7102822 -180583,-7102801 -180607,-7102768 -180609,-7102741 -180622,-7102707 -180639,-7102686 -180642,-7102671 -180642,-7102649 -180641,-7102636 -180640,-7102622 -180633,-7102584 -180627,-7102542 -180659,-7102502 -180678,-7102462 -180680,-7102414 -180693,-7102345 -180697,-7102340 -180696,-7102303 -180704,-7102258 -180717,-7102222 -180757,-7102155 -180717,-7102131 -180716,-7102118 -180711,-7102078 -180695,-7102000 -180694,-7101940 -180689,-7101914 -180659,-7101896 -180641,-7101884 -180632,-7101875 -180627,-7101869 -180618,-7101852 -180601,-7101822 -180596,-7101803 -180594,-7101793 -180586,-7101784 -180572,-7101777 -180564,-7101780 -180552,-7101789 -180549,-7101816 -180512,-7101858 -180469,-7101906 -180421,-7101962 -180362,-7102016 -180308,-7102076 -180275,-7102107 -180245,-7102059 -180239,-7102063 -180207,-7102014 -180176,-7101974 -180144,-7101945 -180108,-7101921 -180091,-7101909 -180069,-7101877 -180024,-7101840 -180022,-7101772 -180003,-7101707 -179980,-7101628 -179968,-7101580 -179950,-7101518 -179947,-7101509 -179916,-7101406 -179882,-7101301 -179869,-7101278 -179820,-7101224 -179764,-7101175 -179689,-7101144 -179623,-7101098 -179596,-7101063 -179568,-7101014 -179521,-7100976 -179487,-7100933 -179462,-7100900 -179463,-7100892 -179501,-7100870 -179568,-7100842 -179696,-7100794 -179695,-7100790 -179758,-7100767 -179759,-7100771 -179851,-7100735 -179855,-7100570 -179858,-7100436 -179825,-7100432 -179818,-7100422 -179817,-7100394 -179818,-7100384 -179771,-7100365 -179702,-7100336 -179685,-7100328 -179642,-7100299 -179596,-7100265 -179521,-7100202 -179497,-7100179 -179441,-7100126 -179397,-7100094 -179378,-7100086 -179360,-7100078 -179334,-7100073 -179301,-7100060 -179276,-7100039 -179268,-7100029 -179255,-7100012 -179258,-7100000 -179273,-7099983 -179287,-7099963 -179307,-7099945 -179319,-7099935 -179337,-7099917 -179355,-7099891 -179419,-7099812 -179442,-7099782 -179461,-7099774 -179494,-7099764 -179514,-7099753 -179552,-7099726 -179591,-7099714 -179602,-7099707 -179660,-7099666 -179689,-7099655 -179707,-7099646 -179728,-7099630 -179733,-7099627 -179725,-7099614 -179716,-7099586 -179713,-7099577 -179713,-7099565 -179713,-7099559 -179706,-7099552 -179712,-7099546 -179693,-7099528 -179665,-7099489 -179641,-7099467 -179636,-7099456 -179635,-7099430 -179643,-7099423 -179656,-7099420 -179639,-7099393 -179635,-7099382 -179633,-7099373 -179619,-7099367 -179604,-7099354 -179571,-7099345 -179555,-7099326 -179547,-7099333 -179526,-7099326 -179491,-7099258 -179467,-7099267 -179446,-7099269 -179432,-7099261 -179428,-7099252 -179421,-7099228 -179421,-7099197 -179411,-7099184 -179413,-7099154 -179386,-7099146 -179373,-7099140 -179337,-7099143 -179298,-7099113 -179297,-7099104 -179301,-7099090 -179314,-7099081 -179315,-7099074 -179270,-7099066 -179228,-7099054 -179207,-7099016 -179176,-7098993 -179172,-7098986 -179161,-7098985 -179137,-7098951 -179123,-7098943 -179122,-7098936 -179128,-7098912 -179083,-7098873 -179051,-7098838 -179026,-7098802 -179013,-7098774 -179012,-7098762 -179035,-7098754 -179034,-7098716 -179024,-7098701 -179025,-7098661 -179019,-7098646 -179009,-7098624 -178991,-7098598 -178979,-7098575 -178988,-7098568 -178986,-7098544 -178969,-7098518 -178991,-7098504 -178969,-7098464 -178947,-7098434 -178913,-7098424 -178896,-7098425 -178877,-7098430 -178875,-7098436 -178867,-7098434 -178837,-7098425 -178822,-7098426 -178802,-7098434 -178789,-7098433 -178761,-7098404 -178734,-7098382 -178730,-7098374 -178731,-7098358 -178758,-7098352 -178758,-7098299 -178725,-7098288 -178718,-7098271 -178689,-7098263 -178647,-7098279 -178626,-7098260 -178605,-7098247 -178593,-7098247 -178580,-7098260 -178568,-7098252 -178564,-7098220 -178550,-7098204 -178534,-7098188 -178508,-7098180 -178483,-7098155 -178452,-7098130 -178427,-7098185 -178391,-7098167 -178404,-7098136 -178394,-7098127 -178382,-7098098 -178386,-7098058 -178383,-7098041 -178373,-7098026 -178362,-7098026 -178343,-7098037 -178331,-7098058 -178305,-7098068 -178330,-7098111 -178328,-7098130 -178316,-7098140 -178309,-7098146 -178296,-7098152 -178255,-7098156 -178212,-7098148 -178203,-7098173 -178188,-7098171 -178174,-7098169 -178157,-7098160 -178120,-7098126 -178107,-7098112 -178092,-7098098 -178075,-7098080 -178065,-7098061 -178050,-7098043 -178025,-7098033 -177997,-7098029 -177973,-7098018 -177959,-7098005 -177947,-7097979 -177922,-7097970 -177848,-7097975 -177851,-7097966 -177810,-7097967 -177789,-7097969 -177763,-7097947 -177761,-7097935 -177751,-7097924 -177737,-7097925 -177722,-7097917 -177715,-7097914 -177677,-7097928 -177633,-7097928 -177628,-7097920 -177653,-7097860 -177654,-7097842 -177620,-7097843 -177593,-7097837 -177571,-7097830 -177570,-7097803 -177559,-7097786 -177540,-7097773 -177529,-7097772 -177508,-7097789 -177488,-7097794 -177475,-7097792 -177468,-7097782 -177466,-7097735 -177472,-7097722 -177487,-7097710 -177500,-7097706 -177526,-7097711 -177529,-7097706 -177527,-7097693 -177517,-7097680 -177492,-7097663 -177449,-7097641 -177429,-7097636 -177400,-7097620 -177362,-7097588 -177333,-7097579 -177308,-7097576 -177278,-7097563 -177264,-7097548 -177210,-7097514 -177201,-7097503 -177199,-7097498 -177196,-7097488 -177196,-7097483 -177196,-7097478 -177204,-7097446 -177179,-7097390 -177171,-7097387 -177151,-7097393 -177139,-7097390 -177102,-7097353 -177080,-7097324 -177069,-7097314 -177056,-7097295 -177027,-7097284 -177001,-7097261 -177002,-7097247 -177016,-7097228 -177016,-7097215 -176989,-7097187 -176966,-7097187 -176953,-7097183 -176938,-7097169 -176939,-7097129 -176922,-7097100 -176921,-7097073 -176906,-7097054 -176912,-7097026 -176907,-7097006 -176887,-7096970 -176878,-7096965 -176863,-7096967 -176853,-7096962 -176841,-7096930 -176813,-7096902 -176813,-7096893 -176826,-7096883 -176827,-7096872 -176814,-7096855 -176804,-7096852 -176788,-7096858 -176758,-7096843 -176755,-7096840 -176752,-7096832 -176764,-7096811 -176768,-7096796 -176745,-7096793 -176721,-7096781 -176715,-7096779 -176683,-7096768 -176656,-7096736 -176629,-7096704 -176630,-7096678 -176631,-7096638 -176614,-7096612 -176615,-7096601 -176642,-7096582 -176642,-7096560 -176637,-7096552 -176639,-7096542 -176648,-7096522 -176648,-7096490 -176642,-7096484 -176635,-7096482 -176630,-7096476 -176628,-7096461 -176638,-7096461 -176649,-7096453 -176637,-7096416 -176624,-7096381 -176575,-7096361 -176565,-7096350 -176562,-7096316 -176563,-7096284 -176587,-7096240 -176626,-7096156 -176619,-7096145 -176602,-7096118 -176603,-7096108 -176666,-7096080 -176702,-7096041 -176723,-7096017 -176746,-7096015 -176770,-7095997 -176787,-7095979 -176799,-7095980 -176819,-7096010 -176866,-7096016 -176894,-7096026 -176909,-7096041 -176911,-7096063 -176969,-7096068 -176991,-7096094 -177094,-7096044 -177112,-7096041 -177126,-7096034 -177045,-7095911 -176949,-7095771 -176884,-7095656 -176835,-7095577 -176803,-7095516 -176783,-7095469 -176726,-7095411 -176709,-7095440 -176693,-7095448 -176681,-7095444 -176678,-7095467 -176668,-7095477 -176660,-7095474 -176657,-7095473 -176652,-7095472 -176624,-7095401 -176619,-7095404 -176561,-7095257 -176510,-7095139 -176501,-7095088 -176481,-7094952 -176477,-7094902 -176468,-7094863 -176462,-7094861 -176459,-7094823 -176458,-7094795 -176474,-7094794 -176489,-7094801 -176509,-7094809 -176519,-7094808 -176563,-7094782 -176581,-7094766 -176612,-7094748 -176621,-7094732 -176578,-7094699 -176571,-7094682 -176568,-7094579 -176592,-7094361 -176609,-7094167 -176619,-7094109 -176638,-7094020 -176685,-7093855 -176703,-7093796 -176740,-7093694 -176772,-7093540 -176853,-7093540 -176872,-7093541 -176905,-7093563 -176940,-7093621 -176957,-7093615 -176968,-7093606 -176979,-7093584 -176987,-7093558 -176989,-7093537 -177059,-7093387 -177073,-7093360 -177093,-7093340 -177158,-7093289 -177275,-7093259 -177364,-7093190 -177416,-7093148 -177429,-7093125 -177514,-7093078 -177546,-7093057 -177685,-7092993 -177852,-7092931 -177860,-7092899 -177872,-7092810 -177885,-7092773 -177955,-7092761 -178048,-7092751 -178068,-7092743 -178069,-7092730 -178061,-7092697 -178031,-7092671 -178147,-7092582 -178190,-7092552 -178248,-7092520 -178265,-7092484 -178306,-7092466 -178250,-7092302 -178241,-7092284 -178228,-7092265 -178181,-7092201 -178155,-7092174 -178255,-7092104 -178284,-7092082 -178299,-7092067 -178310,-7092047 -178326,-7092003 -178342,-7091986 -178385,-7091960 -178381,-7091955 -178397,-7091936 -178380,-7091910 -178380,-7091882 -178370,-7091863 -178369,-7091850 -178353,-7091813 -178347,-7091790 -178355,-7091721 -178370,-7091703 -178374,-7091661 -178367,-7091628 -178368,-7091567 -178357,-7091551 -178309,-7091500 -178298,-7091441 -178286,-7091394 -178285,-7091365 -178262,-7091336 -178253,-7091307 -178205,-7091267 -178189,-7091221 -178164,-7091207 -178104,-7091181 -178076,-7091164 -178051,-7091161 -178031,-7091156 -178014,-7091137 -177988,-7091071 -177944,-7091030 -177935,-7091005 -177923,-7090995 -177889,-7090978 -177887,-7090963 -177898,-7090940 -177912,-7090895 -177930,-7090871 -177951,-7090857 -178005,-7090858 -178052,-7090856 -178074,-7090836 -178089,-7090769 -178094,-7090706 -178100,-7090654 -178113,-7090620 -178138,-7090543 -178139,-7090527 -178140,-7090512 -178110,-7090497 -178089,-7090494 -178018,-7090479 -177898,-7090493 -177827,-7090503 -177803,-7090498 -177742,-7090472 -177705,-7090480 -177691,-7090453 -177688,-7090446 -177698,-7090430 -177736,-7090414 -177772,-7090413 -177805,-7090412 -177840,-7090412 -177864,-7090407 -177885,-7090399 -177898,-7090392 -177930,-7090373 -177998,-7090314 -178047,-7090267 -178086,-7090230 -178158,-7090174 -178199,-7090142 -178288,-7090071 -178336,-7090027 -178395,-7089982 -178456,-7089943 -178540,-7089882 -178572,-7089860 -178616,-7089821 -178664,-7089771 -178688,-7089748 -178800,-7089688 -178808,-7089680 -178827,-7089661 -178853,-7089566 -178896,-7089430 -178911,-7089418 -178951,-7089404 -178968,-7089404 -178978,-7089413 -178975,-7089425 -178995,-7089435 -179000,-7089444 -179017,-7089442 -179025,-7089449 -179031,-7089448 -179050,-7089454 -179043,-7089464 -179047,-7089469 -179083,-7089472 -179086,-7089479 -179098,-7089480 -179106,-7089485 -179117,-7089488 -179129,-7089484 -179134,-7089489 -179135,-7089501 -179149,-7089501 -179155,-7089509 -179169,-7089519 -179186,-7089516 -179203,-7089496 -179244,-7089401 -179256,-7089355 -179269,-7089281 -179271,-7089266 -179314,-7089145 -179381,-7089057 -179407,-7089009 -179444,-7088942 -179464,-7088905 -179473,-7088868 -179479,-7088836 -179464,-7088785 -179459,-7088748 -179461,-7088709 -179465,-7088691 -179470,-7088673 -179484,-7088637 -179529,-7088548 -179550,-7088512 -179563,-7088469 -179589,-7088428 -179618,-7088390 -179625,-7088377 -179646,-7088326 -179675,-7088264 -179689,-7088236 -179713,-7088212 -179716,-7088216 -179761,-7088176 -179802,-7088159 -179821,-7088151 -179848,-7088139 -179883,-7088134 -179941,-7088108 -179936,-7088092 -179936,-7088069 -179928,-7088051 -179908,-7088025 -179894,-7087993 -179879,-7087940 -179864,-7087896 -179862,-7087872 -179851,-7087829 -179914,-7087825 -179928,-7087825 -179948,-7087827 -179971,-7087840 -179994,-7087852 -180008,-7087861 -180017,-7087865 -180023,-7087862 -180025,-7087849 -180032,-7087843 -180044,-7087844 -180090,-7087856 -180114,-7087857 -180119,-7087864 -180129,-7087867 -180145,-7087849 -180164,-7087840 -180175,-7087840 -180202,-7087850 -180214,-7087850 -180228,-7087845 -180234,-7087844 -180241,-7087843 -180256,-7087842 -180271,-7087847 -180307,-7087844 -180340,-7087846 -180361,-7087858 -180397,-7087827 -180409,-7087826 -180437,-7087839 -180453,-7087838 -180475,-7087827 -180499,-7087805 -180535,-7087792 -180568,-7087807 -180584,-7087798 -180597,-7087805 -180627,-7087800 -180653,-7087800 -180668,-7087830 -180707,-7087838 -180735,-7087855 -180754,-7087862 -180789,-7087858 -180836,-7087865 -180849,-7087873 -180865,-7087877 -180866,-7087871 -180883,-7087873 -180916,-7087886 -180919,-7087895 -180938,-7087903 -180956,-7087905 -180968,-7087919 -180987,-7087912 -180999,-7087913 -181016,-7087923 -181048,-7087921 -181062,-7087910 -181075,-7087918 -181096,-7087918 -181109,-7087925 -181121,-7087936 -181144,-7087918 -181200,-7087888 -181214,-7087887 -181224,-7087869 -181235,-7087894 -181233,-7087905 -181251,-7087914 -181262,-7087916 -181270,-7087912 -181275,-7087890 -181326,-7087889 -181346,-7087895 -181367,-7087892 -181390,-7087899 -181445,-7087892 -181479,-7087905 -181502,-7087899 -181521,-7087885 -181544,-7087881 -181561,-7087890 -181577,-7087889 -181590,-7087879 -181614,-7087876 -181648,-7087862 -181685,-7087860 -181700,-7087856 -181726,-7087865 -181744,-7087861 -181760,-7087845 -181775,-7087864 -181789,-7087864 -181793,-7087850 -181806,-7087859 -181818,-7087859 -181839,-7087822 -181839,-7087816 -181848,-7087816 -181860,-7087829 -181879,-7087823 -181905,-7087823 -181920,-7087814 -181959,-7087817 -181967,-7087798 -182002,-7087784 -182062,-7087767 -182077,-7087751 -182106,-7087756 -182121,-7087748 -182143,-7087759 -182158,-7087756 -182174,-7087749 -182203,-7087756 -182205,-7087742 -182239,-7087745 -182248,-7087728 -182287,-7087715 -182319,-7087692 -182337,-7087704 -182350,-7087696 -182366,-7087701 -182384,-7087695 -182422,-7087707 -182454,-7087698 -182457,-7087707 -182470,-7087707 -182485,-7087694 -182536,-7087701 -182564,-7087698 -182569,-7087688 -182608,-7087688 -182634,-7087704 -182706,-7087721 -182719,-7087723 -182719,-7087714 -182765,-7087716 -182764,-7087723 -182803,-7087724 -182824,-7087721 -182841,-7087719 -182853,-7087714 -182866,-7087720 -182879,-7087712 -182894,-7087709 -182918,-7087708 -182928,-7087696 -182937,-7087695 -182957,-7087702 -182987,-7087701 -183007,-7087707 -183065,-7087691 -183103,-7087688 -183121,-7087689 -183163,-7087692 -183231,-7087696 -183296,-7087705 -183356,-7087696 -183407,-7087682 -183445,-7087673 -183464,-7087673 -183480,-7087673 -183529,-7087650 -183577,-7087629 -183593,-7087614 -183643,-7087549 -183694,-7087573 -183765,-7087575 -183778,-7087567 -183790,-7087559 -183804,-7087538 -183830,-7087499 -183844,-7087481 -183854,-7087469 -183854,-7087465 -183855,-7087455 -183827,-7087421 -183836,-7087418 -183886,-7087398 -183929,-7087394 -183999,-7087377 -184068,-7087364 -184149,-7087357 -184208,-7087357 -184210,-7087377 -184225,-7087373 -184274,-7087374 -184315,-7087379 -184407,-7087366 -184386,-7087347 -184385,-7087340 -184384,-7087334 -184512,-7087278 -184531,-7087250 -184573,-7087218 -184558,-7087194 -184533,-7087154 -184513,-7087110 -184582,-7087076 -184595,-7087070 -184626,-7087054 -184652,-7087103 -184700,-7087190 -184709,-7087224 -184721,-7087225 -184723,-7087223 -184842,-7087124 -184843,-7087127 -184887,-7087185 -184890,-7087181 -184969,-7087093 -185068,-7086976 -185161,-7086871 -185227,-7086793 -185155,-7086691 -185128,-7086660 -185109,-7086636 -185091,-7086612 -185073,-7086580 -185049,-7086543 -185013,-7086518 -185004,-7086504 -184985,-7086478 -184985,-7086448 -184982,-7086424 -185000,-7086371 -184988,-7086323 -184968,-7086264 -184989,-7086255 -185040,-7086221 -185017,-7086180 -184998,-7086111 -185005,-7086095 -185003,-7086080 -185011,-7086075 -185034,-7086063 -185055,-7086067 -185072,-7086062 -185084,-7086063 -185096,-7086065 -185122,-7086075 -185146,-7086076 -185173,-7086083 -185195,-7086086 -185212,-7086073 -185225,-7086067 -185343,-7086066 -185442,-7086057 -185443,-7086040 -185490,-7086033 -185552,-7086032 -185614,-7086029 -185656,-7086033 -185696,-7086040 -185717,-7086045 -185721,-7086048 -185742,-7086068 -185759,-7086087 -185772,-7086073 -185844,-7085992 -185846,-7085996 -185849,-7085999 -185856,-7086000 -185858,-7086001 -185862,-7086006 -185861,-7086009 -185860,-7086016 -185958,-7086165 -185970,-7086166 -185970,-7086166 -185974,-7086166 -186455,-7086158 -186539,-7086143 -186649,-7086127 -186709,-7086120 -186916,-7086116 -186997,-7086117 -187554,-7086118 -188123,-7086117 -188354,-7086108 -188422,-7086110 -188572,-7086111 -188716,-7086109 -188819,-7086108 -188865,-7086108 -188950,-7086105 -189001,-7086106 -189043,-7086102 -189135,-7086102 -189196,-7086235 -189235,-7086320 -189283,-7086425 -189302,-7086469 -189389,-7086655 -189531,-7086973 -189621,-7087164 -189685,-7087309 -189702,-7087308 -189888,-7087306 -190058,-7087301 -190337,-7087291 -190555,-7087285 -191041,-7087267 -191548,-7087254 -191823,-7087248 -191862,-7087099 -191937,-7086828 -191985,-7086653 -192055,-7086401 -192102,-7086327 -192130,-7086261 -192138,-7086255 -192177,-7086230 -192056,-7086002 -191960,-7085807 -192008,-7085730 -192046,-7085663 -192080,-7085628 -192167,-7085550 -192202,-7085510 -192251,-7085474 -192276,-7085449 -192300,-7085402 -192351,-7085316 -192374,-7085265 -192412,-7085176 -192423,-7085121 -192431,-7085076 -192449,-7085029 -192470,-7085007 -192524,-7085020 -192533,-7085021 -192494,-7084920 -192500,-7084912 -192521,-7084908 -192577,-7084804 -192591,-7084787 -192869,-7084529 -192927,-7084475 -193057,-7084381 -193146,-7084318 -193175,-7084298 -193532,-7084030 -193681,-7083924 -193708,-7083902 -193798,-7083793 -193817,-7083763 -193838,-7083739 -193869,-7083715 -193900,-7083711 -193948,-7083717 -193974,-7083711 -194118,-7083632 -194292,-7083538 -194427,-7083463 -194561,-7083391 -194715,-7083307 -194790,-7083267 -194869,-7083225 -194973,-7083166 -195021,-7083139 -195067,-7083113 -195175,-7083052 -195360,-7082949 -195456,-7082893 -195507,-7082881 -195983,-7082798 -196231,-7082758 -196331,-7082741 -196533,-7082701 -196695,-7082623 -196850,-7082545 -197191,-7082374 -197222,-7082366 -197234,-7082364 -197244,-7082363 -197275,-7082366 -197305,-7082378 -197336,-7082396 -197383,-7082434 -197449,-7082485 -197489,-7082517 -197525,-7082538 -197601,-7082587 -197682,-7082634 -197793,-7082673 -197819,-7082675 -197865,-7082672 -198267,-7082621 -198369,-7082604 -198512,-7082580 -198688,-7082545 -198744,-7082538 -198775,-7082545 -198828,-7082565 -198873,-7082572 -198921,-7082589 -198992,-7082615 -199054,-7082656 -199082,-7082671 -199105,-7082682 -199174,-7082678 -199301,-7082672 -199348,-7082658 -199410,-7082652 -199451,-7082649 -199541,-7082572 -199612,-7082521 -199685,-7082474 -199709,-7082459 -199778,-7082427 -199843,-7082406 -199955,-7082377 -200089,-7082369 -200213,-7082420 -200309,-7082461 -200358,-7082485 -200455,-7082566 -200514,-7082597 -200587,-7082659 -200645,-7082717 -200716,-7082768 -200792,-7082835 -200831,-7082869 -200840,-7082894 -200851,-7082955 -200901,-7082881 -201156,-7082509 -201367,-7082198 -201591,-7081862 -201855,-7081469 -202187,-7080970 -202563,-7080411 -202837,-7080000 -202849,-7079973 -202880,-7080059 -202893,-7080100 -202907,-7080127 -202959,-7080162 -203117,-7080251 -203320,-7080376 -203397,-7080425 -203462,-7080406 -203595,-7080365 -203652,-7080328 -203748,-7080250 -204022,-7080042 -204094,-7079992 -204140,-7079958 -204237,-7079908 -204268,-7079894 -204300,-7079880 -204381,-7079849 -204432,-7079839 -204504,-7079811 -204570,-7079794 -204776,-7079735 -204803,-7079731 -204875,-7079721 -204927,-7079721 -204968,-7079723 -204986,-7079728 -204996,-7079731 -205008,-7079738 -205030,-7079752 -205060,-7079772 -205106,-7079825 -205159,-7079884 -205190,-7079922 -205280,-7080066 -205300,-7080103 -205302,-7080116 -205282,-7080179 -205273,-7080199 -205271,-7080207 -205269,-7080228 -205272,-7080248 -205274,-7080256 -205280,-7080270 -205368,-7080468 -205402,-7080535 -205434,-7080607 -205451,-7080638 -205460,-7080654 -205521,-7080713 -205586,-7080767 -205611,-7080785 -205715,-7080828 -205897,-7080894 -206010,-7080933 -206047,-7080965 -206091,-7081006 -206134,-7081044 -206205,-7081109 -206273,-7081176 -206306,-7081209 -206415,-7081324 -206499,-7081421 -206624,-7081558 -206681,-7081645 -206752,-7081778 -206785,-7081843 -206836,-7081954 -206856,-7082016 -206930,-7082189 -206980,-7082291 -207002,-7082325 -207012,-7082335 -207048,-7082370 -207071,-7082387 -207085,-7082395 -207095,-7082400 -207106,-7082404 -207129,-7082411 -207165,-7082427 -207216,-7082447 -207293,-7082482 -207335,-7082507 -207376,-7082527 -207435,-7082571 -207462,-7082596 -207481,-7082611 -207524,-7082658 -207629,-7082757 -207670,-7082804 -207812,-7082939 -207878,-7083005 -207918,-7083041 -207952,-7083080 -207957,-7083085 -208021,-7083151 -208055,-7083188 -208093,-7083220 -208153,-7083287 -208231,-7083371 -208239,-7083379 -208274,-7083409 -208291,-7083422 -208323,-7083444 -208469,-7083542 -208507,-7083562 -208556,-7083595 -208651,-7083599 -208733,-7083602 -208819,-7083591 -208959,-7083546 -209052,-7083519 -209398,-7083416 -209430,-7083406 -209562,-7083363 -209579,-7083355 -209591,-7083349 -209602,-7083341 -209611,-7083333 -209619,-7083324 -209629,-7083313 -209640,-7083294 -209704,-7083210 -209851,-7083036 -209925,-7082927 -209984,-7082822 -209992,-7082809 -210001,-7082797 -210009,-7082788 -210064,-7082740 -210214,-7082656 -210453,-7082529 -210602,-7082446 -210851,-7082318 -210970,-7082525 -211081,-7082721 -211139,-7082805 -211174,-7082850 -211204,-7082886 -211206,-7082889 -211241,-7082933 -211278,-7083006 -211303,-7083062 -211323,-7083101 -211396,-7083142 -211431,-7083161 -211599,-7083244 -211742,-7083260 -211770,-7083261 -211784,-7083260 -211808,-7083256 -211856,-7083243 -211872,-7083240 -211897,-7083237 -211982,-7083230 -212109,-7083240 -212288,-7083260 -212460,-7083276 -212496,-7083277 -212500,-7083277 -212547,-7083235 -212578,-7083213 -212596,-7083335 -212633,-7083571 -212651,-7083701 -212668,-7083819 -212679,-7083889 -212684,-7083953 -212708,-7084094 -212724,-7084206 -212761,-7084464 -212801,-7084678 -212816,-7084800 -212843,-7084988 -212855,-7085086 -212875,-7085225 -212893,-7085368 -212923,-7085591 -212941,-7085696 -213046,-7085694 -213173,-7085679 -213211,-7085674 -213286,-7085657 -213357,-7085634 -213534,-7085582 -213663,-7085552 -213710,-7085602 -213773,-7085684 -213819,-7085760 -213857,-7085833 -213909,-7085950 -214022,-7085920 -214086,-7085902 -214228,-7085866 -214270,-7085872 -214286,-7085883 -214327,-7085933 -214364,-7085985 -214401,-7086039 -214444,-7086091 -214498,-7086160 -214570,-7086257 -214642,-7086358 -214681,-7086410 -214702,-7086434 -214784,-7086493 -214832,-7086535 -215008,-7086654 -215096,-7086717 -215161,-7086767 -215337,-7086897 -215419,-7086954 -215500,-7087017 -215547,-7087050 -215594,-7087084 -215653,-7087123 -215751,-7087199 -215865,-7087282 -215942,-7087334 -216263,-7087569 -216292,-7087757 -216313,-7087887 -216328,-7087991 -216340,-7088057 -216356,-7088168 -216361,-7088199 -216371,-7088258 -216393,-7088389 -216421,-7088582 -216432,-7088652 -216445,-7088774 -216448,-7088803 -216457,-7088834 -216471,-7088890 -216496,-7088969 -216524,-7089046 -216539,-7089093 -216594,-7089244 -216649,-7089371 -216672,-7089418 -216697,-7089454 -216755,-7089542 -216792,-7089588 -216862,-7089670 -216929,-7089739 -216993,-7089801 -217078,-7089885 -217108,-7089917 -217130,-7089872 -217159,-7089842 -217174,-7089818 -217176,-7089818 -217190,-7089848 -217248,-7089911 -217400,-7090092 -217420,-7090116 -217485,-7090202 -217493,-7090216 -217497,-7090227 -217499,-7090237 -217498,-7090246 -217496,-7090253 -217492,-7090259 -217490,-7090262 -217483,-7090266 -217505,-7090287 -217543,-7090319 -217615,-7090387 -217768,-7090528 -217805,-7090555 -218066,-7090658 -218160,-7090698 -218301,-7090753 -218632,-7090887 -218757,-7090936 -218809,-7090958 -218856,-7090978 -218950,-7091014 -218959,-7091033 -218985,-7091096 -219000,-7091126 -219030,-7091197 -219061,-7091230 -219169,-7091353 -219235,-7091425 -219263,-7091471 -219292,-7091528 -219335,-7091595 -219374,-7091681 -219428,-7091790 -219480,-7091818 -219534,-7091855 -219598,-7091896 -219777,-7092001 -219866,-7092058 -219914,-7092087 -219962,-7092119 -220065,-7092181 -220138,-7092226 -220162,-7092242 -220165,-7092248 -220168,-7092254 -220217,-7092284 -220239,-7092315 -220285,-7092387 -220372,-7092500 -220462,-7092621 -220464,-7092622 -220503,-7092665 -220595,-7092762 -220620,-7092798 -220697,-7092900 -220712,-7092924 -220718,-7092936 -220724,-7092950 -220732,-7092969 -220777,-7093061 -220790,-7093101 -220798,-7093122 -220816,-7093160 -220844,-7093212 -220925,-7093354 -220934,-7093371 -221059,-7093620 -221130,-7093755 -221249,-7093980 -221605,-7094663 -221760,-7094941 -221782,-7094977 -221794,-7094996 -221836,-7095056 -221853,-7095084 -221873,-7095123 -221988,-7095289 -222026,-7095349 -222049,-7095385 -222056,-7095397 -222061,-7095411 -222113,-7095565 -222144,-7095644 -222167,-7095695 -222179,-7095721 -222211,-7095766 -222504,-7096119 -222499,-7096133 -222504,-7096138 -222514,-7096149 -222570,-7096218 -222595,-7096252 -222657,-7096317 -222691,-7096351 -222717,-7096380 -222802,-7096453 -222967,-7096633 -223155,-7096830 -223312,-7096991 -223376,-7097060 -223399,-7097076 -223442,-7097105 -223462,-7097107 -223468,-7097108 -223472,-7097111 -223475,-7097113 -223478,-7097118 -223480,-7097126 -223481,-7097133 -223481,-7097138 -223478,-7097144 -223476,-7097147 -223456,-7097156 -223453,-7097160 -223449,-7097166 -223447,-7097173 -223446,-7097185 -223448,-7097207 -223451,-7097213 -223462,-7097225 -223466,-7097232 -223466,-7097247 -223463,-7097306 -223464,-7097321 -223474,-7097367 -223492,-7097415 -223494,-7097425 -223495,-7097439 -223493,-7097459 -223495,-7097463 -223498,-7097467 -223501,-7097469 -223507,-7097471 -223510,-7097471 -223526,-7097463 -223529,-7097463 -223533,-7097463 -223537,-7097465 -223545,-7097470 -223555,-7097477 -223562,-7097487 -223572,-7097515 -223589,-7097541 -223594,-7097579 -223594,-7097592 -223597,-7097600 -223604,-7097611 -223624,-7097631 -223629,-7097657 -223640,-7097682 -223641,-7097688 -223639,-7097694 -223632,-7097709 -223631,-7097719 -223633,-7097727 -223644,-7097755 -223641,-7097771 -223650,-7097782 -223666,-7097792 -223670,-7097797 -223677,-7097816 -223679,-7097831 -223679,-7097838 -223678,-7097843 -223669,-7097868 -223693,-7097910 -223643,-7097959 -223097,-7098419 -223107,-7098533 -223089,-7098620 -223090,-7098666 -223111,-7098787 -223130,-7098880 -223144,-7098967 -223016,-7098999 -222905,-7099018 -222845,-7099031 -222802,-7099041 -222749,-7099059 -222686,-7099075 -222158,-7099190 -221938,-7099251 -221792,-7099254 -221568,-7099265 -221365,-7099266 -221228,-7099258 -221138,-7099251 -220991,-7099230 -220793,-7099201 -220637,-7099170 -220529,-7099134 -220456,-7099112 -220357,-7099089 -220274,-7099155 -220134,-7099266 -220122,-7099274 -220071,-7099306 -219941,-7099388 -219801,-7099477 -219650,-7099567 -219604,-7099598 -219246,-7099927 -219094,-7100073 -218910,-7100234 -218864,-7100281 -218694,-7100680 -218679,-7100728 -218647,-7100779 -218595,-7100842 -218544,-7100904 -218501,-7100928 -218422,-7100951 -218370,-7100961 -218319,-7100973 -218263,-7100999 -218195,-7101034 -218090,-7101081 -217975,-7101131 -217893,-7101168 -217572,-7101348 -217442,-7101414 -217361,-7101455 -217317,-7101486 -217297,-7101502 -217158,-7101579 -216829,-7101775 -216788,-7101806 -216749,-7101832 -216732,-7101845 -216594,-7101972 -216557,-7101997 -216502,-7102051 -216305,-7102230 -216236,-7102296 -216210,-7102319 -216192,-7102332 -216182,-7102342 -216156,-7102377 -216107,-7102415 -215999,-7102537 -215961,-7102581 -215847,-7102736 -215828,-7102784 -215806,-7102818 -215751,-7102898 -215665,-7103017 -215574,-7103152 -215509,-7103244 -215456,-7103398 -215414,-7103548 -215370,-7103646 -215321,-7103778 -215308,-7103835 -215152,-7103855 -215070,-7103862 -215011,-7103862 -214956,-7103855 -214897,-7103843 -214879,-7103849 -214795,-7103836 -214758,-7103828 -214692,-7103813 -214646,-7103797 -214645,-7103801 -214643,-7103804 -214585,-7103778 -214544,-7103755 -214506,-7103731 -214477,-7103704 -214463,-7103696 -214369,-7103681 -214269,-7103660 -214025,-7103611 -213843,-7103570 -213830,-7103567 -213803,-7103561 -213777,-7103555 -213772,-7103555 -213762,-7103553 -213751,-7103551 -213740,-7103549 -213730,-7103547 -213725,-7103546 -213713,-7103543 -213700,-7103539 -213670,-7103533 -213634,-7103526 -213437,-7103482 -213389,-7103480 -213146,-7103426 -212902,-7103373 -212845,-7103368 -212788,-7103355 -212751,-7103350 -212736,-7103325 -212712,-7103320 -212680,-7103340 -212632,-7103326 -212596,-7103315 -212525,-7103306 -212437,-7103295 -212388,-7103292 -212312,-7103291 -212285,-7103288 -212257,-7103278 -212172,-7103240 -212122,-7103222 -212083,-7103199 -212040,-7103203 -211875,-7103224 -211802,-7103215 -211784,-7103212 -211730,-7103204 -211717,-7103202 -211702,-7103199 -211688,-7103197 -211673,-7103194 -211666,-7103192 -211656,-7103189 -211647,-7103187 -211539,-7103178 -211483,-7103172 -211469,-7103170 -211407,-7103163 -211320,-7103129 -211313,-7103130 -211288,-7103136 -211264,-7103142 -211261,-7103142 -211257,-7103143 -211252,-7103144 -211247,-7103145 -211243,-7103146 -211238,-7103147 -211233,-7103149 -211229,-7103150 -211224,-7103151 -211220,-7103153 -211215,-7103155 -211208,-7103159 -211200,-7103163 -211193,-7103168 -211187,-7103171 -211180,-7103176 -211166,-7103189 -211158,-7103191 -211145,-7103195 -211089,-7103214 -211022,-7103236 -210905,-7103287 -210882,-7103446 -210868,-7103513 -210830,-7103577 -210804,-7103620 -210785,-7103641 -210757,-7103665 -210725,-7103687 -210659,-7103731 -210644,-7103760 -210698,-7103868 -210624,-7103927 -210577,-7103969 -210544,-7103992 -210512,-7104021 -210492,-7104029 -210468,-7104035 -210453,-7104045 -210405,-7104096 -210368,-7104137 -210301,-7104202 -210261,-7104248 -210222,-7104297 -210226,-7104303 -210137,-7104371 -210067,-7104422 -210022,-7104458 -209930,-7104531 -209854,-7104605 -209821,-7104631 -209806,-7104643 -209782,-7104656 -209702,-7104720 -209609,-7104805 -209537,-7104870 -209479,-7104915 -209460,-7104927 -209442,-7104940 -209366,-7104995 -209325,-7105025 -209174,-7105127 -209082,-7105190 -209019,-7105241 -209022,-7105244 -208941,-7105311 -208943,-7105315 -208892,-7105360 -208857,-7105381 -208827,-7105401 -208754,-7105443 -208738,-7105458 -208693,-7105511 -208733,-7105587 -208749,-7105617 -208738,-7105641 -208726,-7105662 -208689,-7105686 -208641,-7105718 -208629,-7105699 -208625,-7105702 -208595,-7105679 -208578,-7105668 -208539,-7105628 -208483,-7105652 -208447,-7105681 -208324,-7105760 -208273,-7105794 -208267,-7105787 -208236,-7105806 -208181,-7105875 -208161,-7105918 -208051,-7105872 -208024,-7105909 -208010,-7105930 -207995,-7105957 -207975,-7105993 -207961,-7106020 -207943,-7106056 -207913,-7106027 -207833,-7105932 -207784,-7105983 -207766,-7106012 -207741,-7106069 -207736,-7106077 -207730,-7106085 -207724,-7106093 -207723,-7106095 -207718,-7106101 -207713,-7106107 -207707,-7106114 -207695,-7106125 -207672,-7106144 -207673,-7106156 -207640,-7106181 -207614,-7106202 -207588,-7106223 -207566,-7106232 -207546,-7106234 -207464,-7106232 -207437,-7106226 -207414,-7106253 -207397,-7106277 -207396,-7106282 -207393,-7106296 -207382,-7106333 -207360,-7106373 -207340,-7106396 -207321,-7106413 -207297,-7106429 -207275,-7106437 -207242,-7106446 -207188,-7106447 -207154,-7106441 -207129,-7106433 -207110,-7106423 -207078,-7106400 -207056,-7106410 -207099,-7106530 -206985,-7106546 -206925,-7106555 -206866,-7106570 -206784,-7106598 -206717,-7106621 -206570,-7106675 -206549,-7106635 -206528,-7106643 -206524,-7106640 -206385,-7106696 -206301,-7106731 -206309,-7106743 -206258,-7106772 -206190,-7106815 -206266,-7106929 -206233,-7106945 -206197,-7106968 -206153,-7106999 -206059,-7107094 -206006,-7107107 -205945,-7107127 -205903,-7107142 -205886,-7107117 -205852,-7107080 -205695,-7106877 -205589,-7106947 -205496,-7107008 -205428,-7107050 -205359,-7107092 -205224,-7107175 -205247,-7107197 -205271,-7107211 -205312,-7107243 -205365,-7107275 -205394,-7107280 -205406,-7107287 -205436,-7107321 -205456,-7107352 -205489,-7107356 -205499,-7107367 -205498,-7107378 -205517,-7107379 -205526,-7107388 -205527,-7107400 -205522,-7107406 -205523,-7107412 -205526,-7107415 -205536,-7107415 -205538,-7107422 -205571,-7107437 -205594,-7107438 -205617,-7107462 -205634,-7107462 -205639,-7107472 -205665,-7107482 -205679,-7107533 -205706,-7107568 -205716,-7107575 -205733,-7107576 -205756,-7107569 -205768,-7107586 -205769,-7107600 -205780,-7107610 -205780,-7107617 -205796,-7107627 -205801,-7107634 -205819,-7107645 -205819,-7107667 -205842,-7107679 -205846,-7107687 -205841,-7107697 -205840,-7107706 -205849,-7107713 -205850,-7107724 -205863,-7107736 -205871,-7107748 -205915,-7107750 -205923,-7107764 -205938,-7107760 -205946,-7107764 -205982,-7107763 -205996,-7107775 -206023,-7107789 -206034,-7107804 -206052,-7107824 -206063,-7107837 -206073,-7107842 -206072,-7107880 -206078,-7107931 -206087,-7107948 -206103,-7107952 -206103,-7107964 -206085,-7107970 -206085,-7107982 -206091,-7107985 -206120,-7107984 -206128,-7107987 -206138,-7108016 -206152,-7108035 -206167,-7108054 -206169,-7108063 -206184,-7108087 -206198,-7108118 -206200,-7108132 -206209,-7108145 -206235,-7108162 -206263,-7108189 -206289,-7108200 -206288,-7108213 -206295,-7108223 -206334,-7108259 -206337,-7108281 -206345,-7108294 -206358,-7108311 -206357,-7108332 -206351,-7108348 -206353,-7108376 -206351,-7108381 -206345,-7108383 -206332,-7108379 -206324,-7108375 -206318,-7108365 -206318,-7108364 -206312,-7108360 -206283,-7108329 -206264,-7108328 -206254,-7108321 -206252,-7108314 -206243,-7108304 -206221,-7108304 -206216,-7108308 -206203,-7108308 -206188,-7108310 -206159,-7108330 -206135,-7108329 -206127,-7108331 -206123,-7108334 -206121,-7108337 -206113,-7108351 -206107,-7108370 -206096,-7108381 -206089,-7108391 -206087,-7108398 -206084,-7108416 -206081,-7108425 -206074,-7108430 -206063,-7108432 -206053,-7108428 -206047,-7108417 -206046,-7108409 -206045,-7108407 -206027,-7108409 -206012,-7108399 -205958,-7108403 -205938,-7108402 -205919,-7108393 -205894,-7108373 -205877,-7108373 -205861,-7108389 -205833,-7108398 -205825,-7108398 -205818,-7108397 -205809,-7108391 -205804,-7108378 -205780,-7108376 -205767,-7108369 -205759,-7108360 -205746,-7108354 -205686,-7108358 -205638,-7108349 -205565,-7108352 -205547,-7108352 -205535,-7108357 -205530,-7108359 -205524,-7108367 -205516,-7108369 -205507,-7108366 -205501,-7108355 -205472,-7108340 -205440,-7108341 -205379,-7108320 -205351,-7108319 -205331,-7108308 -205315,-7108292 -205309,-7108286 -205275,-7108287 -205243,-7108287 -205231,-7108274 -205193,-7108272 -205181,-7108278 -205167,-7108277 -205153,-7108281 -205141,-7108277 -205128,-7108265 -205122,-7108260 -205088,-7108260 -205073,-7108245 -205042,-7108226 -205021,-7108218 -205005,-7108210 -204983,-7108199 -204969,-7108179 -204960,-7108162 -204929,-7108156 -204910,-7108150 -204892,-7108149 -204844,-7108151 -204826,-7108140 -204785,-7108118 -204757,-7108105 -204719,-7108099 -204687,-7108091 -204650,-7108070 -204601,-7108035 -204589,-7108023 -204559,-7107985 -204441,-7107869 -204399,-7107801 -204371,-7107762 -204357,-7107742 -204344,-7107728 -204330,-7107711 -204256,-7107762 -204202,-7107798 -204148,-7107835 -204077,-7107875 -204050,-7107887 -204005,-7107905 -203958,-7107916 -203918,-7107924 -203883,-7107927 -203888,-7107940 -203845,-7107945 -203762,-7107944 -203715,-7107948 -203689,-7107942 -203658,-7107929 -203611,-7107914 -203570,-7107913 -203544,-7107905 -203508,-7107881 -203491,-7107877 -203474,-7107879 -203449,-7107889 -203435,-7107902 -203423,-7107924 -203366,-7107953 -203319,-7107954 -203282,-7107948 -203256,-7107948 -203238,-7107952 -203190,-7107994 -203112,-7108063 -203092,-7108080 -203073,-7108092 -203050,-7108102 -202971,-7108145 -202855,-7108193 -202774,-7108235 -202681,-7108280 -202635,-7108307 -202597,-7108335 -202477,-7108433 -202465,-7108451 -202438,-7108491 -202404,-7108541 -202367,-7108598 -202345,-7108624 -202337,-7108650 -202310,-7108688 -202291,-7108752 -202262,-7108813 -202199,-7108887 -202142,-7108958 -202071,-7109038 -202020,-7109090 -201939,-7109168 -201910,-7109193 -201817,-7109266 -201727,-7109332 -201698,-7109349 -201649,-7109376 -201588,-7109411 -201558,-7109427 -201482,-7109465 -201445,-7109479 -201389,-7109500 -201346,-7109515 -201281,-7109534 -201175,-7109562 -201093,-7109581 -200988,-7109611 -200940,-7109630 -200921,-7109642 -200905,-7109656 -200850,-7109670 -200795,-7109745 -200757,-7109756 -200720,-7109814 -200669,-7109820 -200599,-7109840 -200550,-7109865 -200533,-7109870 -200507,-7109885 -200497,-7109888 -200472,-7109890 -200434,-7109894 -200393,-7109889 -200355,-7109878 -200335,-7109881 -200295,-7109894 -200273,-7109902 -200220,-7109912 -200161,-7109929 -200095,-7109957 -200015,-7109985 -199876,-7110036 -199856,-7110040 -199833,-7110038 -199778,-7110064 -199702,-7110100 -199687,-7110109 -199598,-7110137 -199593,-7110146 -199569,-7110152 -199548,-7110167 -199474,-7110190 -199445,-7110210 -199355,-7110257 -199328,-7110269 -199328,-7110259 -199289,-7110251 -199261,-7110259 -199186,-7110309 -199164,-7110297 -199059,-7110293 -198942,-7110251 -198863,-7110282 -198742,-7110313 -198687,-7110328 -198617,-7110352 -198478,-7110383 -198321,-7110422 -198222,-7110442 -198152,-7110458 -198128,-7110487 -198123,-7110501 -198109,-7110502 -198054,-7110548 -198048,-7110561 -198037,-7110568 -198034,-7110577 -198033,-7110587 -198014,-7110593 -198015,-7110603 -198006,-7110607 -197994,-7110607 -197974,-7110624 -197971,-7110635 -197958,-7110644 -197937,-7110644 -197924,-7110651 -197897,-7110658 -197875,-7110675 -197866,-7110676 -197838,-7110690 -197793,-7110703 -197725,-7110741 -197657,-7110773 -197633,-7110795 -197606,-7110806 -197595,-7110814 -197583,-7110816 -197552,-7110831 -197517,-7110859 -197507,-7110881 -197493,-7110903 -197485,-7110907 -197465,-7110907 -197462,-7110921 -197449,-7110920 -197438,-7110923 -197434,-7110941 -197420,-7110945 -197420,-7110954 -197415,-7110958 -197407,-7110956 -197403,-7110957 -197399,-7110964 -197381,-7110980 -197375,-7110984 -197364,-7110988 -197360,-7110995 -197352,-7110991 -197348,-7110987 -197345,-7110988 -197338,-7110997 -197324,-7111009 -197312,-7111010 -197300,-7111014 -197295,-7111015 -197279,-7111029 -197258,-7111037 -197244,-7111036 -197216,-7111057 -197211,-7111068 -197196,-7111078 -197184,-7111083 -197171,-7111106 -197152,-7111115 -197143,-7111123 -197132,-7111121 -197111,-7111139 -197107,-7111145 -197103,-7111156 -197098,-7111168 -197075,-7111176 -197057,-7111190 -197056,-7111199 -197049,-7111208 -197051,-7111218 -197031,-7111235 -197014,-7111240 -196997,-7111240 -196979,-7111247 -196965,-7111258 -196953,-7111275 -196927,-7111290 -196908,-7111288 -196899,-7111290 -196896,-7111298 -196882,-7111297 -196855,-7111310 -196844,-7111323 -196834,-7111324 -196822,-7111336 -196799,-7111341 -196800,-7111352 -196777,-7111351 -196766,-7111364 -196749,-7111361 -196744,-7111368 -196725,-7111368 -196704,-7111378 -196694,-7111387 -196676,-7111387 -196663,-7111396 -196658,-7111391 -196657,-7111386 -196648,-7111386 -196648,-7111401 -196628,-7111411 -196612,-7111412 -196603,-7111418 -196592,-7111422 -196587,-7111430 -196572,-7111429 -196566,-7111434 -196557,-7111430 -196548,-7111437 -196533,-7111430 -196524,-7111439 -196502,-7111444 -196492,-7111446 -196481,-7111441 -196471,-7111449 -196465,-7111467 -196452,-7111467 -196436,-7111458 -196430,-7111469 -196414,-7111476 -196405,-7111473 -196373,-7111479 -196377,-7111488 -196368,-7111498 -196357,-7111494 -196349,-7111493 -196340,-7111488 -196325,-7111487 -196324,-7111492 -196317,-7111491 -196307,-7111484 -196301,-7111487 -196297,-7111507 -196296,-7111519 -196279,-7111518 -196279,-7111528 -196265,-7111527 -196255,-7111519 -196246,-7111519 -196234,-7111530 -196233,-7111540 -196225,-7111545 -196225,-7111570 -196214,-7111572 -196203,-7111581 -196187,-7111583 -196184,-7111579 -196185,-7111565 -196178,-7111565 -196172,-7111570 -196169,-7111580 -196161,-7111575 -196154,-7111583 -196168,-7111591 -196159,-7111600 -196121,-7111596 -196125,-7111604 -196120,-7111620 -196111,-7111633 -196102,-7111635 -196091,-7111628 -196079,-7111658 -196071,-7111674 -196070,-7111693 -196063,-7111703 -196047,-7111716 -196028,-7111717 -196017,-7111732 -196002,-7111742 -196002,-7111751 -196009,-7111763 -196001,-7111768 -196009,-7111795 -196009,-7111814 -196016,-7111820 -196021,-7111839 -196004,-7111850 -196003,-7111866 -196013,-7111873 -196013,-7111879 -196007,-7111887 -196006,-7111932 -196000,-7111947 -195987,-7111954 -195979,-7111969 -195969,-7111973 -195944,-7111977 -195925,-7111975 -195917,-7111976 -195913,-7111981 -195914,-7111991 -195911,-7112004 -195896,-7112010 -195885,-7112022 -195886,-7112096 -195905,-7112166 -195839,-7112188 -195765,-7112207 -195728,-7112208 -195531,-7112180 -195456,-7112184 -195341,-7112192 -195217,-7112196 -195119,-7112202 -195109,-7112202 -195080,-7112208 -195027,-7112219 -195007,-7112224 -194984,-7112233 -194953,-7112246 -194917,-7112263 -194881,-7112282 -194832,-7112310 -194775,-7112349 -194705,-7112413 -194687,-7112433 -194659,-7112457 -194636,-7112472 -194620,-7112480 -194557,-7112514 -194508,-7112527 -194443,-7112525 -194396,-7112503 -194359,-7112470 -194350,-7112449 -194345,-7112439 -194338,-7112370 -194281,-7112276 -194224,-7112209 -194189,-7112170 -194127,-7112094 -194068,-7112047 -193996,-7112008 -193928,-7111980 -193897,-7111958 -193870,-7111920 -193829,-7111834 -193817,-7111756 -193800,-7111708 -193788,-7111628 -193784,-7111447 -193792,-7111307 -193792,-7111274 -193790,-7111250 -193788,-7111226 -193781,-7111187 -193771,-7111149 -193758,-7111111 -193739,-7111068 -193729,-7111050 -193714,-7111023 -193678,-7110972 -193633,-7110899 -193608,-7110856 -193578,-7110812 -193566,-7110798 -193549,-7110784 -193540,-7110778 -193506,-7110760 -193494,-7110754 -193478,-7110749 -193455,-7110742 -193435,-7110737 -193429,-7110736 -193414,-7110735 -193401,-7110734 -193388,-7110731 -193375,-7110726 -193361,-7110719 -193347,-7110710 -193337,-7110701 -193330,-7110694 -193323,-7110683 -193316,-7110670 -193311,-7110657 -193300,-7110616 -193297,-7110603 -193286,-7110527 -193281,-7110442 -193282,-7110401 -193281,-7110382 -193279,-7110357 -193273,-7110314 -193266,-7110286 -193261,-7110272 -193249,-7110248 -193238,-7110231 -193222,-7110209 -193209,-7110194 -193180,-7110165 -193122,-7110120 -193051,-7110063 -192983,-7109998 -192885,-7109922 -192867,-7109902 -192844,-7109880 -192817,-7109862 -192806,-7109856 -192797,-7109852 -192787,-7109850 -192773,-7109848 -192739,-7109851 -192725,-7109853 -192727,-7109897 -192715,-7109926 -192703,-7109968 -192679,-7110024 -192655,-7110060 -192646,-7110074 -192629,-7110094 -192590,-7110126 -192494,-7110191 -192458,-7110214 -192376,-7110255 -192273,-7110311 -192615,-7110523 -192825,-7110644 -192800,-7110706 -192781,-7110744 -192772,-7110778 -192766,-7110787 -192760,-7110794 -192751,-7110803 -192741,-7110811 -192731,-7110817 -192711,-7110827 -192739,-7110861 -192772,-7110898 -192923,-7111140 -193030,-7111302 -193076,-7111329 -193119,-7111348 -193099,-7111418 -193198,-7111604 -193189,-7111634 -193136,-7111837 -193088,-7112025 -193056,-7112147 -193024,-7112338 -192985,-7112452 -192943,-7112566 -192955,-7112588 -192996,-7112671 -193072,-7112749 -193157,-7112855 -193189,-7112896 -193225,-7112934 -193279,-7113010 -193299,-7113040 -193395,-7113202 -193414,-7113207 -193448,-7113202 -193476,-7113200 -193485,-7113204 -193502,-7113213 -193521,-7113224 -193536,-7113236 -193557,-7113268 -193612,-7113350 -193623,-7113375 -193630,-7113395 -193639,-7113421 -193644,-7113440 -193639,-7113491 -193612,-7113543 -193568,-7113615 -193472,-7113774 -193357,-7113971 -193474,-7113976 -193557,-7113982 -193564,-7114020 -193564,-7114037 -193565,-7114086 -193550,-7114166 -193544,-7114315 -193605,-7114311 -193650,-7114308 -193652,-7114384 -193649,-7114414 -193615,-7114446 -193599,-7114483 -193565,-7114535 -193547,-7114573 -193543,-7114582 -193531,-7114601 -193488,-7114696 -193487,-7114711 -193476,-7114737 -193450,-7114790 -193441,-7114839 -193429,-7114881 -193406,-7114917 -193339,-7115068 -193321,-7115090 -193287,-7115143 -193267,-7115181 -193254,-7115204 -193235,-7115235 -193230,-7115254 -193228,-7115273 -193227,-7115297 -193234,-7115343 -193243,-7115387 -193260,-7115457 -193254,-7115478 -193290,-7115511 -193369,-7115595 -193388,-7115623 -193472,-7115719 -193490,-7115743 -193565,-7115830 -193463,-7115887 -193434,-7115898 -193436,-7115911 -193428,-7115913 -193445,-7115992 -193395,-7116003 -193337,-7116004 -193236,-7116033 -193342,-7116201 -193349,-7116210 -193378,-7116240 -193490,-7116345 -193576,-7116432 -193583,-7116444 -193584,-7116444 -193668,-7116531 -193804,-7116677 -193829,-7116724 -193908,-7116666 -194000,-7116600 -194139,-7116479 -194179,-7116526 -194189,-7116517 -194194,-7116521 -194210,-7116531 -194205,-7116569 -194200,-7116619 -194235,-7116713 -194243,-7116826 -194248,-7116862 -194249,-7116978 -194347,-7117041 -194352,-7117047 -194397,-7117077 -194408,-7117059 -194425,-7117071 -194439,-7117070 -194457,-7117081 -194469,-7117079 -194484,-7117088 -194526,-7117087 -194553,-7117096 -194565,-7117104 -194570,-7117114 -194590,-7117136 -194596,-7117155 -194614,-7117161 -194593,-7117204 -194678,-7117218 -194805,-7117234 -194923,-7117252 -194933,-7117261 -194973,-7117279 -195072,-7117316 -195117,-7117331 -195208,-7117372 -195254,-7117401 -195298,-7117434 -195377,-7117438 -195411,-7117443 -195410,-7117538 -195410,-7117676 -195395,-7117728 -195393,-7117772 -195401,-7117790 -195408,-7117830 -195410,-7117891 -195252,-7117887 -195250,-7117896 -195248,-7117903 -195229,-7118027 -195219,-7118296 -195213,-7118407 -195248,-7118406 -195396,-7118438 -195416,-7118454 -195469,-7118459 -195499,-7118468 -195522,-7118469 -195566,-7118465 -195606,-7118456 -195634,-7118440 -195638,-7118429 -195727,-7118363 -195754,-7118330 -195780,-7118320 -195807,-7118306 -195835,-7118295 -195863,-7118295 -195899,-7118298 -195909,-7118294 -195945,-7118308 -195973,-7118310 -196009,-7118327 -196059,-7118361 -196077,-7118365 -196119,-7118367 -196150,-7118375 -196178,-7118376 -196188,-7118379 -196206,-7118381 -196241,-7118389 -196286,-7118399 -196308,-7118416 -196347,-7118420 -196361,-7118413 -196373,-7118403 -196384,-7118406 -196397,-7118416 -196429,-7118418 -196460,-7118427 -196484,-7118440 -196496,-7118465 -196540,-7118476 -196558,-7118473 -196582,-7118492 -196600,-7118488 -196612,-7118475 -196623,-7118474 -196632,-7118480 -196658,-7118472 -196663,-7118479 -196705,-7118467 -196713,-7118461 -196772,-7118461 -196796,-7118475 -196841,-7118477 -196849,-7118482 -196852,-7118492 -196869,-7118498 -196885,-7118497 -196895,-7118503 -196901,-7118495 -196919,-7118495 -196941,-7118502 -196959,-7118490 -196973,-7118494 -196985,-7118495 -197001,-7118487 -197015,-7118486 -197031,-7118491 -197045,-7118481 -197045,-7118517 -197029,-7118514 -197009,-7118523 -197003,-7118534 -197001,-7118557 -196994,-7118569 -196976,-7118572 -196961,-7118590 -196963,-7118621 -196957,-7118626 -196959,-7118647 -196940,-7118648 -196944,-7118671 -196932,-7118684 -196915,-7118678 -196890,-7118688 -196881,-7118710 -196861,-7118718 -196838,-7118741 -196804,-7118786 -196746,-7118821 -196728,-7118822 -196694,-7118827 -196676,-7118840 -196669,-7118850 -196665,-7118867 -196651,-7118884 -196645,-7118913 -196619,-7118926 -196614,-7118945 -196582,-7118971 -196583,-7118987 -196567,-7119010 -196567,-7119025 -196535,-7119044 -196523,-7119054 -196495,-7119084 -196488,-7119086 -196485,-7119109 -196459,-7119122 -196441,-7119126 -196409,-7119152 -196397,-7119176 -196344,-7119226 -196355,-7119242 -196351,-7119249 -196351,-7119274 -196340,-7119311 -196342,-7119328 -196323,-7119336 -196316,-7119366 -196300,-7119390 -196301,-7119400 -196286,-7119403 -196259,-7119425 -196246,-7119428 -196160,-7119649 -196130,-7119711 -196111,-7119784 -196094,-7119824 -196092,-7119902 -196086,-7119935 -196035,-7119958 -195967,-7119987 -196043,-7120044 -196023,-7120060 -195952,-7120058 -195930,-7120063 -195751,-7120054 -195657,-7120055 -195587,-7120056 -195497,-7120062 -195442,-7120068 -195384,-7120072 -195341,-7120072 -195283,-7120060 -195235,-7120053 -195215,-7120057 -195167,-7120048 -195137,-7120048 -195111,-7120057 -195064,-7120050 -195034,-7120038 -195018,-7120020 -194991,-7120006 -194975,-7120007 -194962,-7120015 -194927,-7120008 -194919,-7120006 -194903,-7119999 -194876,-7119993 -194800,-7119984 -194786,-7119988 -194757,-7119992 -194724,-7119999 -194693,-7120006 -194683,-7120007 -194656,-7120009 -194615,-7120001 -194587,-7120000 -194556,-7120008 -194505,-7120009 -194458,-7120012 -194404,-7120012 -194373,-7120010 -194352,-7120031 -194367,-7120090 -194373,-7120101 -194386,-7120209 -194401,-7120319 -194405,-7120342 -194418,-7120392 -194417,-7120415 -194438,-7120488 -194449,-7120498 -194450,-7120530 -194476,-7120618 -194490,-7120669 -194492,-7120690 -194490,-7120723 -194486,-7120735 -194471,-7120760 -194466,-7120782 -194467,-7120828 -194463,-7120887 -194452,-7120909 -194459,-7120931 -194459,-7120975 -194454,-7121002 -194439,-7121057 -194420,-7121134 -194415,-7121139 -194414,-7121156 -194388,-7121288 -194371,-7121405 -194357,-7121471 -194347,-7121502 -194528,-7121582 -194501,-7121625 -194467,-7121668 -194402,-7121731 -194356,-7121763 -194369,-7121821 -194405,-7122007 -194416,-7122060 -194431,-7122116 -194436,-7122130 -194459,-7122195 -194501,-7122294 -194514,-7122327 -194500,-7122351 -194458,-7122382 -194442,-7122409 -194443,-7122435 -194433,-7122447 -194416,-7122445 -194384,-7122418 -194329,-7122408 -194312,-7122411 -194287,-7122423 -194250,-7122431 -194202,-7122451 -194198,-7122437 -194181,-7122446 -194144,-7122459 -194059,-7122467 -194043,-7122459 -194027,-7122425 -194017,-7122413 -194004,-7122403 -193970,-7122448 -193927,-7122457 -193907,-7122448 -193814,-7122487 -193796,-7122534 -193786,-7122557 -193768,-7122557 -193749,-7122554 -193715,-7122541 -193695,-7122534 -193691,-7122525 -193687,-7122516 -193683,-7122508 -193675,-7122502 -193665,-7122499 -193622,-7122508 -193596,-7122504 -193575,-7122493 -193563,-7122481 -193514,-7122457 -193491,-7122442 -193465,-7122437 -193447,-7122438 -193433,-7122440 -193430,-7122444 -193420,-7122460 -193396,-7122463 -193388,-7122456 -193381,-7122446 -193372,-7122443 -193356,-7122444 -193347,-7122447 -193341,-7122450 -193332,-7122454 -193325,-7122454 -193321,-7122445 -193316,-7122421 -193284,-7122418 -193280,-7122417 -193248,-7122416 -193213,-7122411 -193185,-7122409 -193169,-7122407 -193123,-7122394 -193091,-7122384 -193068,-7122374 -193015,-7122362 -193001,-7122370 -193001,-7122371 -193021,-7122443 -193038,-7122476 -193043,-7122500 -193044,-7122511 -193045,-7122523 -193035,-7122551 -193013,-7122583 -193009,-7122589 -193018,-7122611 -192997,-7122633 -192951,-7122670 -192933,-7122711 -192935,-7122740 -192933,-7122758 -192918,-7122761 -192895,-7122747 -192862,-7122783 -192842,-7122785 -192816,-7122807 -192799,-7122833 -192786,-7122862 -192758,-7122879 -192735,-7122906 -192725,-7122920 -192715,-7122934 -192716,-7122958 -192713,-7122976 -192697,-7123013 -192682,-7123044 -192667,-7123063 -192666,-7123076 -192683,-7123085 -192684,-7123106 -192673,-7123130 -192663,-7123145 -192643,-7123141 -192627,-7123157 -192630,-7123176 -192626,-7123195 -192606,-7123199 -192600,-7123211 -192582,-7123216 -192563,-7123227 -192549,-7123213 -192531,-7123200 -192520,-7123251 -192507,-7123243 -192486,-7123244 -192451,-7123242 -192439,-7123251 -192442,-7123267 -192421,-7123299 -192404,-7123296 -192396,-7123314 -192387,-7123342 -192377,-7123351 -192371,-7123361 -192372,-7123382 -192365,-7123400 -192348,-7123398 -192344,-7123409 -192344,-7123432 -192331,-7123430 -192320,-7123444 -192307,-7123471 -192301,-7123478 -192296,-7123485 -192290,-7123483 -192285,-7123484 -192282,-7123486 -192280,-7123489 -192280,-7123492 -192283,-7123503 -192291,-7123521 -192280,-7123541 -192271,-7123574 -192265,-7123594 -192262,-7123603 -192240,-7123603 -192227,-7123634 -192210,-7123644 -192209,-7123666 -192221,-7123674 -192231,-7123705 -192224,-7123720 -192213,-7123729 -192201,-7123743 -192195,-7123745 -192187,-7123748 -192180,-7123757 -192179,-7123760 -192178,-7123769 -192179,-7123773 -192181,-7123778 -192184,-7123781 -192206,-7123804 -192190,-7123828 -192197,-7123856 -192193,-7123902 -192178,-7123911 -192154,-7123934 -192142,-7123952 -192137,-7123960 -192124,-7123998 -192115,-7124034 -192104,-7124054 -192104,-7124073 -192090,-7124097 -192092,-7124110 -192079,-7124115 -192074,-7124120 -192070,-7124125 -192070,-7124133 -192068,-7124138 -192065,-7124141 -192062,-7124144 -192055,-7124146 -192045,-7124147 -192039,-7124150 -192034,-7124155 -192032,-7124157 -192031,-7124160 -192031,-7124164 -192032,-7124167 -192045,-7124186 -192029,-7124189 -192016,-7124189 -192008,-7124190 -192002,-7124192 -191997,-7124195 -191991,-7124202 -191987,-7124211 -191986,-7124219 -191988,-7124228 -191987,-7124233 -191985,-7124237 -191982,-7124241 -191977,-7124243 -191972,-7124244 -191965,-7124242 -191961,-7124242 -191957,-7124243 -191953,-7124245 -191951,-7124248 -191949,-7124251 -191949,-7124254 -191950,-7124258 -191955,-7124264 -191959,-7124265 -191964,-7124266 -191964,-7124276 -191963,-7124286 -191947,-7124313 -191940,-7124320 -191935,-7124323 -191927,-7124327 -191919,-7124329 -191907,-7124332 -191899,-7124335 -191891,-7124340 -191885,-7124345 -191882,-7124349 -191877,-7124360 -191870,-7124376 -191867,-7124389 -191863,-7124410 -191859,-7124420 -191854,-7124429 -191848,-7124437 -191840,-7124444 -191834,-7124448 -191814,-7124455 -191799,-7124463 -191789,-7124470 -191786,-7124473 -191783,-7124477 -191780,-7124484 -191779,-7124491 -191779,-7124503 -191748,-7124565 -191737,-7124571 -191732,-7124575 -191728,-7124581 -191724,-7124589 -191721,-7124596 -191720,-7124605 -191719,-7124609 -191716,-7124613 -191712,-7124617 -191707,-7124619 -191703,-7124620 -191695,-7124621 -191673,-7124641 -191649,-7124669 -191637,-7124670 -191603,-7124672 -191559,-7124708 -191545,-7124722 -191535,-7124730 -191521,-7124738 -191506,-7124744 -191498,-7124747 -191475,-7124749 -191462,-7124754 -191456,-7124755 -191448,-7124755 -191439,-7124753 -191430,-7124749 -191420,-7124743 -191411,-7124758 -191391,-7124800 -191359,-7124834 -191340,-7124852 -191321,-7124868 -191293,-7124889 -191310,-7124909 -191284,-7124931 -191256,-7124952 -191237,-7124917 -190901,-7125096 -190768,-7125155 -190789,-7125214 -190813,-7125234 -190824,-7125253 -190849,-7125296 -190762,-7125326 -190663,-7125316 -190597,-7125325 -190457,-7125366 -190426,-7125370 -190395,-7125364 -190376,-7125358 -190329,-7125336 -190257,-7125298 -190220,-7125330 -190140,-7125400 -190104,-7125434 -190100,-7125437 -190097,-7125441 -190094,-7125444 -190091,-7125448 -190088,-7125452 -190086,-7125456 -190084,-7125458 -190082,-7125462 -190079,-7125466 -190077,-7125471 -190075,-7125475 -190073,-7125479 -190073,-7125480 -190064,-7125496 -190056,-7125516 -190055,-7125518 -190048,-7125532 -190011,-7125562 -189930,-7125624 -189833,-7125701 -189790,-7125738 -189786,-7125746 -189780,-7125743 -189692,-7125691 -189651,-7125663 -189630,-7125649 -189575,-7125606" stroke="#003087" stroke-width="94" /></svg>