<?xml version="1.0" standalone="no"?>
<!DOCTYPE svg PUBLIC "-//W3C//DTD SVG 1.1//EN"
"http://www.w3.org/Graphics/SVG/1.1/DTD/svg11.dtd">
<svg height="115" version="1.1" viewBox="-231302 -6920854 22855 21158" width="220" xmlns="http://www.w3.org/2000/svg"><polygon fill="#003087" points=" -217321,-6920581 -217097,-6920286 -217090,-6920291 -217078,-6920297 -217067,-6920305 -217019,-6920343 -217014,-6920337 -216814,-6920097 -216726,-6919994 -216676,-6919932 -216597,-6919823 -216594,-6919736 -216559,-6919734 -216561,-6919673 -216333,-6919678 -216187,-6919685 -216162,-6919691 -216153,-6919697 -215999,-6919678 -216013,-6919789 -215973,-6919794 -215807,-6919860 -215797,-6919889 -215773,-6919954 -215755,-6919950 -215620,-6920192 -215572,-6920177 -215558,-6920177 -215578,-6920362 -215456,-6920300 -215276,-6920635 -215243,-6920648 -215238,-6920633 -215229,-6920609 -215211,-6920580 -215195,-6920557 -215172,-6920537 -215131,-6920501 -215042,-6920416 -214980,-6920344 -214906,-6920262 -214876,-6920232 -214856,-6920214 -214797,-6920174 -214725,-6920125 -214704,-6920110 -214689,-6920096 -214650,-6920043 -214626,-6920003 -214611,-6919977 -214569,-6919910 -214474,-6919759 -214425,-6919687 -214379,-6919631 -214349,-6919609 -214324,-6919602 -214262,-6919588 -214223,-6919576 -214195,-6919567 -214177,-6919559 -214165,-6919546 -214143,-6919532 -214039,-6919601 -214007,-6919622 -213999,-6919627 -213959,-6919651 -213917,-6919674 -213875,-6919696 -213831,-6919716 -213788,-6919736 -213760,-6919748 -213688,-6919779 -213618,-6919807 -213530,-6919839 -213468,-6919861 -213279,-6919932 -213206,-6919956 -213132,-6919977 -213101,-6919986 -213001,-6920015 -212963,-6920023 -212936,-6920028 -212926,-6919997 -212717,-6919710 -212677,-6919635 -212646,-6919555 -212626,-6919510 -212613,-6919491 -212495,-6919295 -212471,-6919251 -212678,-6919180 -212912,-6919090 -213123,-6919011 -213353,-6918932 -213345,-6918891 -213341,-6918878 -213336,-6918870 -213330,-6918862 -213321,-6918852 -213308,-6918841 -213273,-6918788 -213291,-6918772 -213318,-6918737 -213416,-6918590 -213431,-6918570 -213477,-6918526 -213512,-6918498 -213319,-6918277 -213205,-6918144 -213143,-6918085 -213069,-6918024 -212961,-6917932 -212892,-6917882 -212881,-6917871 -212799,-6917757 -212711,-6917637 -212591,-6917468 -212514,-6917554 -212496,-6917538 -212443,-6917487 -212418,-6917468 -212340,-6917422 -212293,-6917400 -212265,-6917385 -212235,-6917368 -212165,-6917326 -212091,-6917286 -212072,-6917271 -212125,-6917215 -212101,-6917199 -212121,-6917182 -212227,-6917075 -212161,-6917010 -212165,-6917001 -212345,-6916793 -212343,-6916648 -212398,-6916696 -212608,-6916458 -212620,-6916466 -212722,-6916357 -212738,-6916373 -212971,-6916138 -212924,-6916082 -212949,-6916049 -212977,-6916028 -212944,-6915990 -212967,-6915969 -212990,-6915948 -213028,-6915928 -213080,-6915981 -213209,-6915872 -213216,-6915879 -213286,-6915818 -213264,-6915788 -213196,-6915700 -213128,-6915630 -213050,-6915557 -212958,-6915475 -212721,-6915264 -212636,-6915192 -212617,-6915173 -212592,-6915144 -212582,-6915129 -212570,-6915111 -212523,-6915023 -212479,-6914951 -212462,-6914922 -212456,-6914915 -212397,-6914843 -212319,-6914760 -212176,-6914614 -212155,-6914591 -212148,-6914581 -212121,-6914536 -212107,-6914523 -212086,-6914510 -212028,-6914439 -211987,-6914406 -211823,-6914292 -211498,-6914072 -211480,-6914060 -211404,-6914007 -211355,-6913971 -211307,-6913943 -211287,-6913933 -211265,-6913915 -211227,-6913887 -211197,-6913862 -211178,-6913844 -211167,-6913832 -211138,-6913797 -211132,-6913791 -211115,-6913782 -211107,-6913775 -211070,-6913733 -211051,-6913704 -211031,-6913686 -210907,-6913539 -210875,-6913503 -210818,-6913440 -210703,-6913307 -210697,-6913297 -210626,-6913176 -210553,-6913066 -210552,-6913056 -210497,-6912958 -210385,-6912782 -210228,-6912535 -210172,-6912456 -210081,-6912341 -209992,-6912232 -209978,-6912211 -209958,-6912173 -209919,-6912090 -209909,-6912058 -209905,-6912044 -209883,-6911894 -209865,-6911786 -209853,-6911671 -209847,-6911582 -209845,-6911388 -209842,-6911306 -209839,-6911281 -209838,-6911279 -209858,-6911231 -209877,-6911176 -209906,-6911132 -209931,-6911078 -209959,-6911022 -209991,-6910951 -210015,-6910884 -210024,-6910851 -210033,-6910791 -210044,-6910719 -210049,-6910658 -210051,-6910649 -210059,-6910616 -210075,-6910564 -210100,-6910521 -210128,-6910469 -210172,-6910391 -210226,-6910289 -210254,-6910233 -210273,-6910186 -210290,-6910131 -210305,-6910064 -210316,-6910002 -210396,-6909855 -210429,-6909796 -210487,-6909711 -210550,-6909594 -210557,-6909582 -210569,-6909562 -210580,-6909541 -210590,-6909520 -210593,-6909513 -210606,-6909481 -210617,-6909448 -210624,-6909428 -210632,-6909402 -210639,-6909375 -210643,-6909359 -210646,-6909342 -210650,-6909325 -210652,-6909308 -210653,-6909294 -210654,-6909277 -210655,-6909260 -210646,-6909193 -210611,-6909175 -210557,-6909150 -210490,-6909112 -210414,-6909069 -210437,-6909035 -210463,-6908993 -210373,-6908937 -210301,-6908889 -210237,-6908842 -210183,-6908797 -210156,-6908772 -210123,-6908741 -210061,-6908674 -210019,-6908633 -209992,-6908601 -209899,-6908494 -209878,-6908469 -209864,-6908451 -209799,-6908364 -209770,-6908327 -209719,-6908252 -209642,-6908117 -209548,-6907937 -209515,-6907864 -209494,-6907819 -209461,-6907742 -209437,-6907694 -209412,-6907636 -209370,-6907558 -209284,-6907400 -209279,-6907393 -209219,-6907293 -209174,-6907226 -209103,-6907134 -209078,-6907096 -209035,-6907044 -208966,-6906968 -208894,-6906894 -208833,-6906842 -208789,-6906806 -208778,-6906758 -208741,-6906726 -208669,-6906674 -208664,-6906682 -208639,-6906665 -208643,-6906655 -208577,-6906612 -208527,-6906583 -208476,-6906591 -208463,-6906594 -208452,-6906589 -208447,-6906580 -208494,-6906489 -208496,-6906471 -208485,-6906439 -208503,-6906426 -208507,-6906431 -208532,-6906413 -208554,-6906363 -208611,-6906252 -208695,-6906075 -208720,-6906022 -208787,-6905869 -208813,-6905803 -208826,-6905750 -208835,-6905699 -208870,-6905507 -208894,-6905369 -208918,-6905223 -208961,-6904913 -208987,-6904725 -209006,-6904593 -209022,-6904480 -209045,-6904322 -209094,-6903948 -209115,-6903785 -209137,-6903748 -209202,-6903681 -209255,-6903641 -209423,-6903518 -209504,-6903459 -209586,-6903386 -209680,-6903276 -209751,-6903195 -209877,-6903082 -209940,-6903026 -209973,-6902993 -210007,-6902959 -210061,-6902896 -210167,-6902781 -210226,-6902721 -210276,-6902677 -210320,-6902645 -210444,-6902566 -210533,-6902507 -210573,-6902472 -210575,-6902471 -210575,-6902470 -210658,-6902381 -210758,-6902263 -210880,-6902121 -211002,-6901979 -211106,-6901856 -211137,-6901811 -211168,-6901757 -211189,-6901708 -211192,-6901698 -211230,-6901584 -211269,-6901467 -211276,-6901445 -211295,-6901402 -211371,-6901267 -211435,-6901163 -211483,-6901105 -211540,-6901054 -211591,-6901024 -211649,-6900998 -211689,-6900988 -211803,-6900963 -211974,-6900920 -212124,-6900885 -212219,-6900858 -212307,-6900822 -212415,-6900780 -212531,-6900707 -212558,-6900692 -212611,-6900663 -212698,-6900619 -212734,-6900598 -212759,-6900585 -212784,-6900573 -212824,-6900545 -212860,-6900516 -212881,-6900494 -212931,-6900432 -212973,-6900372 -213006,-6900321 -213034,-6900278 -213060,-6900246 -213080,-6900222 -213099,-6900202 -213185,-6900121 -213324,-6899997 -213338,-6899983 -213377,-6899941 -213412,-6899898 -213447,-6899846 -213506,-6899735 -213528,-6899696 -213563,-6899776 -213590,-6899820 -213620,-6899862 -213667,-6899909 -213714,-6899929 -213789,-6900024 -213870,-6900141 -214006,-6900298 -214077,-6900386 -214110,-6900419 -214162,-6900466 -214223,-6900514 -214248,-6900534 -214294,-6900568 -214359,-6900613 -214455,-6900669 -214504,-6900698 -214552,-6900727 -214573,-6900739 -214615,-6900763 -214667,-6900795 -214714,-6900816 -214777,-6900839 -214866,-6900859 -214940,-6900876 -215038,-6900891 -215085,-6900890 -215125,-6900885 -215154,-6900881 -215162,-6900879 -215187,-6900893 -215155,-6901140 -215132,-6901314 -215364,-6901553 -215333,-6901581 -215281,-6901628 -215256,-6901658 -215234,-6901690 -215215,-6901720 -215203,-6901742 -215190,-6901783 -215172,-6901822 -215163,-6901834 -215163,-6901835 -215126,-6901888 -215136,-6901898 -215175,-6901938 -215191,-6901949 -215247,-6901988 -215280,-6902024 -215283,-6902027 -215327,-6902038 -215366,-6902038 -215429,-6902058 -215466,-6902076 -215563,-6902095 -215577,-6902084 -215643,-6902061 -215666,-6902043 -215732,-6902004 -215834,-6902070 -215864,-6902088 -215971,-6902137 -215991,-6902139 -215998,-6902200 -216216,-6902160 -216247,-6902093 -216254,-6902087 -216282,-6902065 -216283,-6902064 -216284,-6902060 -216285,-6902056 -216279,-6902036 -216276,-6902003 -216325,-6902000 -216416,-6901999 -216429,-6902004 -216438,-6901983 -216450,-6901966 -216468,-6901932 -216497,-6901895 -216538,-6901862 -216583,-6901819 -216630,-6901779 -216697,-6901699 -216787,-6901593 -216824,-6901559 -216915,-6901520 -217009,-6901471 -217002,-6901425 -216997,-6901408 -217017,-6901411 -217040,-6901419 -217061,-6901431 -217093,-6901443 -217142,-6901445 -217160,-6901441 -217174,-6901443 -217191,-6901441 -217210,-6901450 -217233,-6901461 -217274,-6901472 -217303,-6901481 -217349,-6901490 -217379,-6901488 -217370,-6901573 -217357,-6901737 -217345,-6901890 -217323,-6902136 -217301,-6902133 -217288,-6902129 -217282,-6902167 -217276,-6902270 -217281,-6902295 -217350,-6902299 -217357,-6902300 -217427,-6902367 -217459,-6902390 -217482,-6902405 -217494,-6902412 -217520,-6902423 -217525,-6902426 -217637,-6902350 -217718,-6902338 -217734,-6902336 -217879,-6902331 -218178,-6902326 -218258,-6902351 -218359,-6902417 -218373,-6902426 -218442,-6902470 -218554,-6902546 -218647,-6902611 -218686,-6902576 -218774,-6902537 -218823,-6902514 -218827,-6902523 -218948,-6902492 -218942,-6902441 -218942,-6902438 -218988,-6902273 -219001,-6902226 -219003,-6902216 -218965,-6902209 -218962,-6902209 -218969,-6902136 -218979,-6902015 -218978,-6901925 -219240,-6901912 -219376,-6901906 -219493,-6901899 -219568,-6901888 -219625,-6901874 -219666,-6901863 -219797,-6901842 -219804,-6901841 -219793,-6901750 -219791,-6901650 -219792,-6901628 -219804,-6901586 -219804,-6901550 -219804,-6901542 -219809,-6901514 -219819,-6901473 -219831,-6901425 -219844,-6901378 -219881,-6901274 -219882,-6901269 -219895,-6901234 -219911,-6901208 -219970,-6901298 -220026,-6901380 -220077,-6901458 -220167,-6901591 -220216,-6901657 -220328,-6901789 -220331,-6901789 -220414,-6901775 -220455,-6901757 -220474,-6901758 -220485,-6901780 -220529,-6901801 -220560,-6901852 -220583,-6901863 -220731,-6902005 -220764,-6902035 -220827,-6902087 -220847,-6902101 -220895,-6902125 -220933,-6902151 -220956,-6902165 -221004,-6902188 -221050,-6902212 -221092,-6902234 -221105,-6902243 -221159,-6902302 -221171,-6902322 -221186,-6902347 -221200,-6902370 -221208,-6902380 -221258,-6902443 -221301,-6902483 -221345,-6902521 -221420,-6902573 -221453,-6902590 -221470,-6902597 -221530,-6902614 -221560,-6902622 -221582,-6902631 -221591,-6902635 -221618,-6902651 -221672,-6902692 -221699,-6902713 -221704,-6902717 -221748,-6902713 -221765,-6902719 -221786,-6902731 -221825,-6902756 -221832,-6902759 -221839,-6902761 -221847,-6902766 -221860,-6902768 -221871,-6902762 -221893,-6902743 -221907,-6902731 -221920,-6902731 -221979,-6902758 -221995,-6902769 -222002,-6902764 -222005,-6902763 -222007,-6902759 -222016,-6902742 -222037,-6902752 -222125,-6902793 -222124,-6902799 -222179,-6902824 -222192,-6902820 -222261,-6902852 -222377,-6902898 -222482,-6902933 -222616,-6902977 -222649,-6902988 -222761,-6903032 -222842,-6903063 -222894,-6903088 -222966,-6903118 -223134,-6903202 -223282,-6903281 -223377,-6903335 -223498,-6903414 -223542,-6903442 -223607,-6903482 -223683,-6903539 -223763,-6903602 -223861,-6903681 -223864,-6903673 -223949,-6903445 -223956,-6903454 -223979,-6903485 -223980,-6903488 -223980,-6903490 -223985,-6903510 -224007,-6903525 -224017,-6903538 -224030,-6903563 -224191,-6903561 -224373,-6903562 -224372,-6903569 -224389,-6903570 -224389,-6903561 -224436,-6903561 -224456,-6903614 -224510,-6903684 -224516,-6903680 -225057,-6903279 -225409,-6903022 -225650,-6902864 -225555,-6902686 -225506,-6902590 -225453,-6902478 -225473,-6902467 -225462,-6902438 -225562,-6902384 -225609,-6902358 -225627,-6902347 -225698,-6902303 -225696,-6902297 -225724,-6902280 -225731,-6902282 -225790,-6902252 -225797,-6902248 -225816,-6902250 -225823,-6902246 -225889,-6902208 -225949,-6902174 -225951,-6902177 -226053,-6902120 -226071,-6902110 -226131,-6902077 -226137,-6902072 -226177,-6902038 -226390,-6901840 -226445,-6901794 -226518,-6901742 -226551,-6901724 -226553,-6901722 -226556,-6901721 -226584,-6901706 -226698,-6901661 -226791,-6901624 -226814,-6901624 -226815,-6901622 -226862,-6901546 -226924,-6901439 -226929,-6901429 -226944,-6901399 -226948,-6901390 -226993,-6901281 -227017,-6901208 -227074,-6901066 -227091,-6901032 -227096,-6901023 -227102,-6901011 -227117,-6901014 -227160,-6900948 -227163,-6900951 -227209,-6900993 -227232,-6900974 -227235,-6900960 -227239,-6900945 -227259,-6900920 -227410,-6900843 -227565,-6900768 -227673,-6900714 -227760,-6900670 -227871,-6900615 -227907,-6900598 -227973,-6900556 -227983,-6900538 -228021,-6900507 -228033,-6900508 -228077,-6900527 -228074,-6900537 -228070,-6900547 -228073,-6900549 -228102,-6900569 -228137,-6900591 -228186,-6900624 -228245,-6900657 -228280,-6900680 -228314,-6900689 -228337,-6900711 -228399,-6900770 -228449,-6900814 -228576,-6900911 -228650,-6900965 -228701,-6901004 -228711,-6901001 -228834,-6901123 -228885,-6901182 -228905,-6901212 -228929,-6901202 -229346,-6901543 -229410,-6901598 -229535,-6901700 -229491,-6901758 -229475,-6901748 -229412,-6901828 -229336,-6901777 -229256,-6901874 -229262,-6901885 -229205,-6901959 -229147,-6902025 -229107,-6901993 -229023,-6901999 -228988,-6902025 -228982,-6902027 -228975,-6902030 -228941,-6902030 -228945,-6902119 -228885,-6902122 -228883,-6902195 -228800,-6902202 -228869,-6902294 -228887,-6902281 -228942,-6902392 -228969,-6902478 -228996,-6902546 -229026,-6902628 -229089,-6902793 -229032,-6902858 -229043,-6902868 -229022,-6902893 -228991,-6902931 -229016,-6902955 -229005,-6902964 -228982,-6902961 -228958,-6902959 -228956,-6902959 -228928,-6902970 -228880,-6902990 -228876,-6903002 -228850,-6903013 -228813,-6903031 -228770,-6903066 -228741,-6903078 -228674,-6903108 -228638,-6903154 -228610,-6903148 -228589,-6903317 -228582,-6903412 -228566,-6903514 -228548,-6903610 -228524,-6903674 -228478,-6903765 -228407,-6903913 -228365,-6904009 -228353,-6904035 -228311,-6904096 -228207,-6904244 -228252,-6904277 -228282,-6904292 -228300,-6904299 -228321,-6904306 -228458,-6904325 -228592,-6904340 -228649,-6904353 -228785,-6904396 -228809,-6904403 -228810,-6904400 -228796,-6904491 -228994,-6904541 -228981,-6904607 -229113,-6904721 -228988,-6904865 -229062,-6904937 -229021,-6904979 -228964,-6904922 -228977,-6904909 -228961,-6904893 -228906,-6904943 -228864,-6904986 -228779,-6905056 -228821,-6905084 -228904,-6905090 -228904,-6905109 -228904,-6905113 -228905,-6905131 -228966,-6905214 -228955,-6905226 -229045,-6905271 -229121,-6905323 -229213,-6905394 -229329,-6905472 -229453,-6905555 -229582,-6905640 -229586,-6905656 -229594,-6905661 -229603,-6905651 -229657,-6905687 -229708,-6905730 -229767,-6905786 -229870,-6905881 -229972,-6905964 -229980,-6905971 -229985,-6905991 -230073,-6906065 -230083,-6906070 -230104,-6906071 -230133,-6906070 -230177,-6906068 -230197,-6906067 -230214,-6906059 -230231,-6906076 -230228,-6906087 -230228,-6906098 -230226,-6906122 -230227,-6906148 -230233,-6906171 -230208,-6906209 -230223,-6906223 -230239,-6906238 -230259,-6906255 -230294,-6906274 -230280,-6906302 -230437,-6906376 -230441,-6906369 -230607,-6906447 -230606,-6906457 -230692,-6906497 -230698,-6906492 -230802,-6906542 -230923,-6906598 -231012,-6906651 -231275,-6906778 -231284,-6906783 -231286,-6906785 -231302,-6906794 -231298,-6906806 -231287,-6906845 -231220,-6906867 -231211,-6906885 -231209,-6906890 -231185,-6906903 -231162,-6906902 -231105,-6906948 -231071,-6906976 -231034,-6907014 -231013,-6907051 -230978,-6907091 -230946,-6907134 -230920,-6907178 -230893,-6907242 -230876,-6907307 -230832,-6907537 -230811,-6907621 -230798,-6907666 -230761,-6907669 -230725,-6907668 -230693,-6907659 -230685,-6907688 -230711,-6907695 -230749,-6907698 -230788,-6907702 -230782,-6907739 -230785,-6907769 -230801,-6907831 -230762,-6907841 -230685,-6907860 -230640,-6907880 -230526,-6908077 -230527,-6908315 -230497,-6908296 -230466,-6908276 -230434,-6908251 -230388,-6908213 -230331,-6908158 -230270,-6908084 -230203,-6908131 -230124,-6908194 -230071,-6908243 -229998,-6908325 -230026,-6908360 -230020,-6908422 -229988,-6908416 -229979,-6908507 -229974,-6908615 -229957,-6908626 -229954,-6908658 -229955,-6908718 -229954,-6908769 -229960,-6908782 -229997,-6908843 -230016,-6908859 -230022,-6908892 -230023,-6908939 -229949,-6908916 -229924,-6908918 -229863,-6908906 -229874,-6908848 -229818,-6908838 -229809,-6908881 -229788,-6908880 -229780,-6908935 -229718,-6908919 -229674,-6908912 -229656,-6908913 -229644,-6908918 -229642,-6908923 -229639,-6908928 -229628,-6908943 -229616,-6908959 -229608,-6908944 -229594,-6908917 -229546,-6908919 -229536,-6908910 -229482,-6908944 -229434,-6908982 -229396,-6908944 -229333,-6908982 -229321,-6908977 -229317,-6908987 -229278,-6908980 -229218,-6908993 -229137,-6909003 -229112,-6908998 -229081,-6908982 -229014,-6909029 -228983,-6909032 -228949,-6909084 -228906,-6909158 -228879,-6909208 -228832,-6909280 -228814,-6909327 -228821,-6909335 -228786,-6909423 -228745,-6909520 -228716,-6909504 -228682,-6909592 -228656,-6909661 -228632,-6909737 -228611,-6909814 -228585,-6909916 -228573,-6909983 -228565,-6909979 -228539,-6910096 -228551,-6910101 -228471,-6910247 -228451,-6910284 -228438,-6910367 -228378,-6910509 -228364,-6910511 -228336,-6910514 -228335,-6910571 -228333,-6910649 -228324,-6910799 -228319,-6910930 -228316,-6911017 -228323,-6911044 -228300,-6911049 -228302,-6911066 -228292,-6911104 -228261,-6911219 -228229,-6911346 -228216,-6911415 -228197,-6911566 -228170,-6911672 -228161,-6911705 -228131,-6911787 -228122,-6911789 -228043,-6912084 -227984,-6912288 -228098,-6912340 -228234,-6912396 -228386,-6912466 -228511,-6912522 -228391,-6912789 -228374,-6912827 -228356,-6912881 -228333,-6912963 -228284,-6913111 -228215,-6913096 -228175,-6913093 -228076,-6913099 -228036,-6913116 -227997,-6913133 -227942,-6913164 -227931,-6913201 -227913,-6913275 -227779,-6913218 -227648,-6913158 -227158,-6912952 -226912,-6912847 -226776,-6912790 -226658,-6912741 -226188,-6912542 -226167,-6912530 -226156,-6912521 -226138,-6912500 -226127,-6912483 -226119,-6912453 -225992,-6912456 -226020,-6912501 -226071,-6912579 -226122,-6912654 -226211,-6912782 -226208,-6912790 -226179,-6912882 -226202,-6912917 -226244,-6912975 -226323,-6913059 -226390,-6913122 -226487,-6913222 -226591,-6913345 -226475,-6913430 -226319,-6913542 -226163,-6913660 -226037,-6913749 -226059,-6913782 -226068,-6913803 -226072,-6913814 -226076,-6913831 -226079,-6913853 -226078,-6913863 -226073,-6913881 -226062,-6913904 -226059,-6913910 -226041,-6913933 -226027,-6913948 -226010,-6913963 -225993,-6913977 -225965,-6913995 -225929,-6914010 -225918,-6914028 -225919,-6914055 -225907,-6914062 -225889,-6914044 -225864,-6914025 -225850,-6914031 -225839,-6914034 -225786,-6914035 -225766,-6914034 -225752,-6914033 -225714,-6914024 -225644,-6914016 -225609,-6914043 -225589,-6914038 -225587,-6914037 -225605,-6913993 -225604,-6913991 -225589,-6913983 -225513,-6913948 -225488,-6913940 -225475,-6913937 -225460,-6913935 -225444,-6913934 -225426,-6913936 -225408,-6913939 -225391,-6913944 -225371,-6913952 -225352,-6913961 -225335,-6913972 -225319,-6913984 -225307,-6913994 -225290,-6914012 -225224,-6914096 -225121,-6914219 -224999,-6914377 -224944,-6914432 -224890,-6914499 -224871,-6914530 -224858,-6914552 -224846,-6914576 -224835,-6914601 -224830,-6914614 -224801,-6914697 -224741,-6914586 -224710,-6914618 -224645,-6914683 -224598,-6914737 -224537,-6914804 -224477,-6914859 -224452,-6914870 -224445,-6914879 -224432,-6914895 -224423,-6914909 -224417,-6914920 -224409,-6914939 -224382,-6915025 -224336,-6915148 -224299,-6915259 -224238,-6915429 -224207,-6915446 -224167,-6915459 -224120,-6915466 -224033,-6915485 -223964,-6915535 -223818,-6915657 -223810,-6915654 -223754,-6915695 -223746,-6915703 -223735,-6915685 -223715,-6915658 -223689,-6915631 -223635,-6915653 -223578,-6915672 -223533,-6915700 -223481,-6915730 -223405,-6915788 -223345,-6915844 -223330,-6915861 -223315,-6915882 -223252,-6915987 -223216,-6916042 -223204,-6916058 -223186,-6916078 -223173,-6916090 -223157,-6916103 -223141,-6916116 -223096,-6916145 -223067,-6916161 -223045,-6916169 -223035,-6916172 -223024,-6916175 -222980,-6916184 -222957,-6916187 -222851,-6916199 -222839,-6916202 -222798,-6916213 -222775,-6916218 -222772,-6916209 -222768,-6916209 -222749,-6916212 -222720,-6916221 -222696,-6916227 -222652,-6916243 -222623,-6916251 -222567,-6916261 -222504,-6916274 -222458,-6916282 -222434,-6916287 -222410,-6916294 -222389,-6916300 -222358,-6916312 -222229,-6916355 -222196,-6916367 -222179,-6916372 -222164,-6916375 -222144,-6916377 -222114,-6916379 -222086,-6916381 -222069,-6916380 -222047,-6916379 -222017,-6916375 -221956,-6916364 -221918,-6916358 -221909,-6916356 -221890,-6916347 -221829,-6916308 -221813,-6916296 -221722,-6916180 -221690,-6916143 -221657,-6916107 -221621,-6916072 -221583,-6916130 -221563,-6916163 -221543,-6916185 -221529,-6916206 -221499,-6916261 -221476,-6916312 -221440,-6916402 -221393,-6916503 -221379,-6916525 -221366,-6916540 -221324,-6916578 -221307,-6916598 -221275,-6916644 -221254,-6916671 -221245,-6916680 -221219,-6916704 -221186,-6916739 -221182,-6916743 -221141,-6916758 -221066,-6916695 -220997,-6916654 -220943,-6916619 -220866,-6916723 -220786,-6916836 -220727,-6916921 -220651,-6916813 -220637,-6916780 -220633,-6916752 -220630,-6916740 -220626,-6916728 -220607,-6916688 -220595,-6916673 -220590,-6916668 -220583,-6916663 -220559,-6916652 -220550,-6916650 -220544,-6916650 -220348,-6916680 -220300,-6916689 -220288,-6916693 -220280,-6916695 -220270,-6916695 -220259,-6916695 -220250,-6916692 -220020,-6916633 -219990,-6916627 -219976,-6916659 -219950,-6916746 -219934,-6916790 -219890,-6916899 -219874,-6916930 -219861,-6916926 -219777,-6916862 -219692,-6916800 -219683,-6916796 -219669,-6916793 -219659,-6916794 -219649,-6916796 -219638,-6916801 -219591,-6916834 -219529,-6916883 -219488,-6916909 -219447,-6916939 -219415,-6916956 -219405,-6916959 -219358,-6916963 -219316,-6916966 -219241,-6916969 -219119,-6916972 -219014,-6916972 -219008,-6916867 -218898,-6916861 -218851,-6916855 -218799,-6916852 -218781,-6916849 -218748,-6916843 -218694,-6916829 -218654,-6916930 -218642,-6916969 -218630,-6917009 -218628,-6917016 -218641,-6917025 -218622,-6917087 -218599,-6917147 -218587,-6917188 -218576,-6917227 -218558,-6917291 -218552,-6917307 -218542,-6917326 -218539,-6917333 -218521,-6917374 -218453,-6917330 -218417,-6917303 -218372,-6917272 -218293,-6917199 -218262,-6917290 -218234,-6917383 -218217,-6917447 -218214,-6917463 -218211,-6917479 -218197,-6917576 -218187,-6917683 -218191,-6917717 -218194,-6917781 -218196,-6917817 -218191,-6917831 -218188,-6917907 -218183,-6917968 -218187,-6918019 -218186,-6918216 -218185,-6918263 -218181,-6918373 -218272,-6918385 -218266,-6918641 -218261,-6918651 -218254,-6918820 -218254,-6918915 -218260,-6918951 -218262,-6918978 -218261,-6919035 -218257,-6919154 -218257,-6919164 -218256,-6919172 -218248,-6919198 -218247,-6919199 -218062,-6919191 -217940,-6919190 -217853,-6919187 -217809,-6919204 -217788,-6919201 -217757,-6919183 -217681,-6919179 -217674,-6919187 -217664,-6919208 -217655,-6919230 -217637,-6919277 -217652,-6919318 -217641,-6919325 -217693,-6919460 -217774,-6919660 -217719,-6919652 -217777,-6919806 -217867,-6920037 -217942,-6920233 -217954,-6920272 -217970,-6920315 -218056,-6920493 -218180,-6920726 -217895,-6920780 -217581,-6920837 -217480,-6920854 -217453,-6920803 -217408,-6920747 -217406,-6920731 -217319,-6920612 -217316,-6920593 -217321,-6920581" stroke="#003087" stroke-width="44" /></svg>