<?xml version="1.0" standalone="no"?>
<!DOCTYPE svg PUBLIC "-//W3C//DTD SVG 1.1//EN"
"http://www.w3.org/Graphics/SVG/1.1/DTD/svg11.dtd">
<svg height="115" version="1.1" viewBox="-2936 -6712648 16760 16056" width="220" xmlns="http://www.w3.org/2000/svg"><polygon fill="#003087" points=" 13384,-6712265 13421,-6712194 13425,-6712024 13428,-6711966 13431,-6711908 13437,-6711821 13438,-6711776 13440,-6711730 13439,-6711620 13444,-6711474 13448,-6711404 13455,-6711304 13453,-6711100 13456,-6710898 13464,-6710769 13466,-6710654 13463,-6710570 13463,-6710516 13464,-6710461 13470,-6710357 13472,-6710173 13475,-6710011 13477,-6709745 13481,-6709556 13482,-6709539 13491,-6709361 13494,-6709091 13493,-6709019 13498,-6708893 13499,-6708671 13503,-6708625 13505,-6708530 13510,-6708391 13520,-6708251 13530,-6708207 13531,-6708189 13532,-6708172 13528,-6708077 13523,-6708045 13522,-6708027 13522,-6708009 13524,-6707987 13530,-6707953 13578,-6707738 13580,-6707729 13586,-6707691 13592,-6707638 13591,-6707439 13592,-6707286 13590,-6707134 13594,-6707077 13599,-6707042 13609,-6706974 13640,-6706865 13655,-6706794 13693,-6706638 13729,-6706481 13746,-6706410 13774,-6706297 13796,-6706190 13803,-6706159 13811,-6706127 13824,-6706075 13812,-6706073 13794,-6706104 13786,-6706117 13770,-6706136 13744,-6706165 13688,-6706211 13652,-6706239 13608,-6706267 13568,-6706298 13557,-6706305 13515,-6706330 13473,-6706357 13442,-6706377 13427,-6706384 13387,-6706393 13347,-6706394 13328,-6706397 13291,-6706408 13266,-6706413 13260,-6706415 13233,-6706428 13189,-6706450 13157,-6706407 13037,-6706246 13007,-6706195 12966,-6706131 12928,-6706072 12878,-6705986 12859,-6705957 12842,-6705935 12813,-6705891 12810,-6705886 12807,-6705883 12763,-6705845 12731,-6705817 12696,-6705784 12671,-6705735 12665,-6705724 12639,-6705669 12607,-6705607 12589,-6705568 12582,-6705552 12564,-6705522 12533,-6705477 12529,-6705473 12497,-6705440 12468,-6705405 12445,-6705427 12433,-6705444 12385,-6705489 12346,-6705531 12339,-6705540 12324,-6705556 12311,-6705574 12289,-6705604 12251,-6705662 12220,-6705706 12179,-6705752 12133,-6705797 12105,-6705832 12078,-6705882 12058,-6705930 12051,-6705947 12050,-6705951 12044,-6705948 11988,-6705927 11988,-6705914 11975,-6705900 11958,-6705887 11951,-6705881 11944,-6705869 11936,-6705849 11932,-6705835 11920,-6705820 11902,-6705811 11845,-6705774 11821,-6705752 11762,-6705833 11712,-6705793 11679,-6705843 11670,-6705840 11656,-6705817 11634,-6705788 11594,-6705755 11564,-6705722 11548,-6705708 11510,-6705678 11501,-6705674 11499,-6705673 11484,-6705673 11478,-6705678 11477,-6705678 11432,-6705717 11418,-6705729 11418,-6705728 11409,-6705736 11357,-6705655 11337,-6705654 11329,-6705657 11323,-6705659 11295,-6705695 11294,-6705716 11240,-6705745 11157,-6705791 11110,-6705804 11050,-6705822 10991,-6705830 10937,-6705832 10930,-6705813 10923,-6705787 10914,-6705771 10854,-6705689 10838,-6705664 10810,-6705599 10790,-6705587 10779,-6705550 10752,-6705438 10750,-6705433 10652,-6705437 10617,-6705441 10579,-6705443 10539,-6705440 10519,-6705441 10490,-6705433 10466,-6705423 10449,-6705416 10421,-6705405 10374,-6705383 10337,-6705344 10321,-6705326 10297,-6705310 10259,-6705294 10241,-6705280 10237,-6705273 10228,-6705272 10215,-6705261 10193,-6705246 10177,-6705231 10162,-6705224 10166,-6705217 10164,-6705209 10157,-6705206 10154,-6705195 10143,-6705183 10145,-6705177 10153,-6705165 10119,-6705130 10081,-6705091 10033,-6705043 10002,-6705010 9970,-6704983 9915,-6704931 9898,-6704926 9864,-6704913 9810,-6704892 9754,-6704871 9717,-6704858 9688,-6704847 9644,-6704820 9614,-6704798 9578,-6704774 9550,-6704754 9514,-6704693 9484,-6704641 9477,-6704625 9442,-6704629 9413,-6704556 9390,-6704502 9351,-6704417 9302,-6704308 9266,-6704227 9164,-6704255 9161,-6704250 9155,-6704236 9152,-6704215 9153,-6704152 9153,-6704087 9147,-6703983 9150,-6703915 9152,-6703899 9183,-6703807 9196,-6703764 9201,-6703715 9198,-6703652 9190,-6703603 9177,-6703542 9172,-6703523 9165,-6703461 9162,-6703412 9160,-6703356 9160,-6703345 9156,-6703281 9156,-6703265 9156,-6703245 9158,-6703230 9161,-6703211 9165,-6703194 9176,-6703161 9184,-6703130 9204,-6703082 9228,-6703039 9000,-6702993 8840,-6702960 8756,-6702943 8760,-6702938 8777,-6702912 8853,-6702826 8865,-6702812 8880,-6702823 8955,-6702752 8995,-6702720 9005,-6702712 9066,-6702671 9154,-6702626 9242,-6702586 9342,-6702544 9463,-6702499 9541,-6702470 9540,-6702453 9556,-6702389 9576,-6702315 9578,-6702286 9579,-6702273 9583,-6702247 9582,-6702221 9585,-6702187 9597,-6702148 9603,-6702123 9606,-6702097 9609,-6702058 9619,-6701955 9624,-6701889 9633,-6701808 9640,-6701724 9644,-6701673 9648,-6701620 9649,-6701606 9656,-6701559 9666,-6701455 9668,-6701407 9665,-6701363 9691,-6701276 9733,-6701193 9780,-6701043 9786,-6701000 9788,-6700956 9803,-6700837 9803,-6700763 9799,-6700711 9789,-6700673 9773,-6700643 9746,-6700609 9727,-6700584 9727,-6700558 9727,-6700541 9719,-6700523 9695,-6700498 9676,-6700485 9666,-6700470 9653,-6700463 9638,-6700459 9616,-6700451 9609,-6700445 9619,-6700386 9632,-6700333 9651,-6700282 9665,-6700234 9679,-6700196 9712,-6700133 9730,-6700076 9678,-6700079 9626,-6700076 9612,-6700074 9548,-6700031 9525,-6700023 9496,-6700008 9499,-6700002 9464,-6699985 9433,-6699963 9392,-6700009 9316,-6700078 9266,-6700129 9246,-6700108 9221,-6700084 9236,-6700066 9239,-6700061 9253,-6700043 9234,-6700019 9223,-6700004 9232,-6699993 9267,-6699969 9400,-6699855 9372,-6699817 9269,-6699692 9235,-6699651 9219,-6699626 9195,-6699596 9112,-6699496 9107,-6699490 9091,-6699503 9056,-6699530 9003,-6699569 8954,-6699502 8953,-6699500 8962,-6699492 8941,-6699465 8913,-6699429 8912,-6699427 8923,-6699419 8930,-6699414 8920,-6699397 8903,-6699370 8902,-6699366 8901,-6699364 8911,-6699357 8887,-6699321 8883,-6699316 8882,-6699314 8875,-6699308 8864,-6699301 8851,-6699296 8861,-6699273 8848,-6699256 8825,-6699225 8813,-6699213 8804,-6699197 8776,-6699166 8773,-6699163 8780,-6699157 8797,-6699139 8801,-6699135 8786,-6699103 8778,-6699077 8762,-6699035 8741,-6698995 8734,-6698984 8732,-6698981 8720,-6698962 8701,-6698923 8682,-6698891 8665,-6698862 8608,-6698895 8583,-6698905 8566,-6698914 8523,-6698939 8520,-6698935 8452,-6698863 8352,-6698762 8347,-6698757 8402,-6698695 8424,-6698668 8463,-6698626 8508,-6698584 8509,-6698583 8519,-6698578 8450,-6698507 8495,-6698441 8506,-6698426 8453,-6698381 8429,-6698362 8424,-6698358 8472,-6698300 8451,-6698253 8421,-6698220 8399,-6698192 8357,-6698141 8341,-6698127 8333,-6698124 8327,-6698116 8317,-6698100 8313,-6698095 8386,-6698067 8390,-6698066 8372,-6697999 8333,-6697859 8274,-6697977 8243,-6697991 8165,-6698027 8133,-6697957 8181,-6697936 8044,-6697700 8011,-6697649 7977,-6697610 7932,-6697570 7827,-6697475 7809,-6697458 7787,-6697439 7632,-6697283 7454,-6697125 7394,-6697057 7414,-6696999 7206,-6696928 7214,-6696910 7148,-6696884 7149,-6696884 7176,-6696827 7127,-6696780 7074,-6696723 7069,-6696711 7059,-6696695 7054,-6696688 7045,-6696681 7038,-6696676 7009,-6696659 6872,-6696592 6830,-6696651 6782,-6696832 6753,-6696829 6663,-6696796 6599,-6696768 6587,-6696765 6571,-6696759 6552,-6696759 6540,-6696759 6525,-6696745 6481,-6696797 6435,-6696847 6282,-6697021 6280,-6697025 6235,-6697086 6106,-6697268 6093,-6697294 6060,-6697341 6002,-6697434 5953,-6697531 5894,-6697648 5842,-6697740 5808,-6697797 5717,-6697936 5685,-6697984 5585,-6698092 5517,-6698163 5485,-6698196 5387,-6698305 5322,-6698381 5246,-6698495 5193,-6698575 5169,-6698609 5145,-6698646 5101,-6698720 5028,-6698821 5028,-6698854 5032,-6698890 4999,-6698922 4936,-6698991 4854,-6699077 4824,-6699094 4814,-6699117 4783,-6699193 4779,-6699201 4757,-6699252 4733,-6699316 4730,-6699325 4713,-6699366 4698,-6699404 4673,-6699435 4611,-6699487 4561,-6699533 4468,-6699623 4464,-6699630 4466,-6699641 4455,-6699653 4435,-6699672 4427,-6699674 4413,-6699683 4380,-6699702 4349,-6699722 4323,-6699735 4287,-6699746 4266,-6699756 4221,-6699791 4188,-6699815 4120,-6699840 4116,-6699850 4101,-6699856 4096,-6699862 4088,-6699863 4073,-6699879 4029,-6699909 4015,-6699916 4008,-6699923 4003,-6699923 3998,-6699923 3980,-6699930 3959,-6699933 3953,-6699939 3952,-6699940 3927,-6699963 3925,-6699964 3913,-6699973 3881,-6699992 3856,-6700014 3855,-6700017 3851,-6700026 3822,-6700045 3820,-6700046 3802,-6700058 3791,-6700068 3786,-6700073 3784,-6700075 3781,-6700086 3769,-6700111 3747,-6700121 3742,-6700127 3741,-6700129 3728,-6700138 3718,-6700139 3696,-6700152 3686,-6700149 3684,-6700148 3673,-6700155 3643,-6700174 3623,-6700178 3596,-6700192 3575,-6700201 3527,-6700212 3491,-6700238 3485,-6700241 3453,-6700248 3427,-6700253 3407,-6700267 3398,-6700267 3378,-6700266 3340,-6700081 3294,-6699874 3295,-6699850 3295,-6699845 3295,-6699807 3271,-6699801 3219,-6699787 3217,-6699786 3192,-6699780 3182,-6699778 3143,-6699770 3093,-6699766 3039,-6699772 2992,-6699778 2970,-6699783 2921,-6699790 2832,-6699807 2786,-6699817 2749,-6699827 2721,-6699836 2693,-6699845 2634,-6699868 2592,-6699888 2538,-6699919 2460,-6699956 2402,-6699981 2394,-6699985 2351,-6700105 2295,-6700248 2394,-6700290 2395,-6700290 2387,-6700329 2369,-6700388 2369,-6700431 2366,-6700515 2364,-6700691 2399,-6700707 2535,-6700772 2556,-6700783 2543,-6700824 2527,-6700863 2503,-6700931 2496,-6700948 2484,-6700971 2473,-6701004 2471,-6701020 2467,-6701044 2466,-6701054 2443,-6701096 2403,-6701106 2281,-6701127 2136,-6701154 2005,-6701177 1928,-6701198 1679,-6701288 1658,-6701390 1673,-6701393 1686,-6701323 2211,-6701413 2215,-6701414 2200,-6701483 2197,-6701496 2189,-6701523 2177,-6701587 2150,-6701584 2043,-6701565 2043,-6701566 2011,-6701819 2007,-6701825 1998,-6701843 1990,-6701866 1973,-6701925 1962,-6701964 1951,-6702017 1951,-6702030 1950,-6702048 1948,-6702062 1946,-6702074 1944,-6702099 1944,-6702103 1943,-6702123 1945,-6702131 1947,-6702139 1952,-6702183 1948,-6702184 1786,-6702236 1707,-6702260 1651,-6702275 1605,-6702290 1583,-6702298 1564,-6702305 1508,-6702330 1467,-6702349 1447,-6702361 1406,-6702386 1370,-6702409 1329,-6702436 1305,-6702452 1285,-6702464 1284,-6702464 1281,-6702477 1281,-6702479 1281,-6702491 1281,-6702511 1273,-6702527 1269,-6702536 1255,-6702563 1253,-6702568 1227,-6702626 1204,-6702685 1187,-6702727 1165,-6702795 1150,-6702832 1128,-6702896 1110,-6702951 1105,-6702989 1101,-6703040 1096,-6703122 1087,-6703226 1089,-6703274 1094,-6703319 1096,-6703377 1098,-6703438 1096,-6703478 1093,-6703517 1084,-6703564 1073,-6703607 1064,-6703653 1047,-6703719 1039,-6703755 1035,-6703790 1034,-6703799 1018,-6703864 1010,-6703887 1006,-6703901 1003,-6703915 1003,-6703936 1012,-6703982 1020,-6704019 1024,-6704063 1017,-6704109 1015,-6704118 1109,-6704140 1170,-6704153 1199,-6704158 1217,-6704163 1261,-6704177 1278,-6704182 1293,-6704189 1317,-6704202 1348,-6704226 1392,-6704258 1421,-6704268 1431,-6704270 1447,-6704276 1467,-6704285 1477,-6704290 1465,-6704312 1451,-6704333 1423,-6704367 1415,-6704384 1412,-6704407 1415,-6704431 1425,-6704452 1447,-6704479 1455,-6704497 1457,-6704520 1455,-6704549 1451,-6704575 1437,-6704641 1405,-6704821 1449,-6704829 1503,-6704837 1504,-6704834 1505,-6704825 1515,-6704825 1534,-6704825 1564,-6704819 1601,-6704810 1622,-6704802 1671,-6704779 1701,-6704759 1731,-6704742 1765,-6704722 1767,-6704715 1779,-6704707 1787,-6704706 1788,-6704706 1796,-6704698 1820,-6704674 1843,-6704701 1852,-6704735 1853,-6704757 1861,-6704765 1851,-6704790 1835,-6704829 1822,-6704841 1816,-6704847 1806,-6704856 1806,-6704865 1805,-6704870 1799,-6704886 1772,-6704967 1730,-6705083 1712,-6705136 1696,-6705197 1681,-6705262 1672,-6705308 1667,-6705359 1670,-6705406 1787,-6705448 1805,-6705454 1845,-6705469 1982,-6705520 2020,-6705544 2011,-6705543 1899,-6705525 1700,-6705487 1601,-6705469 1512,-6705453 1348,-6705423 1132,-6705384 1029,-6705369 836,-6705335 605,-6705293 508,-6705275 421,-6705260 319,-6705240 185,-6705217 100,-6705202 43,-6705191 2,-6705186 -37,-6705184 -106,-6705180 -129,-6705180 -144,-6705181 -163,-6705184 -258,-6705205 -397,-6705234 -623,-6705285 -741,-6705312 -771,-6705317 -816,-6705326 -903,-6705348 -956,-6705348 -987,-6705345 -1006,-6705344 -1119,-6705322 -1146,-6705312 -1297,-6705283 -1390,-6705274 -1430,-6705276 -1460,-6705279 -1484,-6705283 -1519,-6705301 -1563,-6705334 -1584,-6705306 -1616,-6705240 -1615,-6705237 -1614,-6705198 -1615,-6705198 -1639,-6705193 -1687,-6705172 -1651,-6705106 -1602,-6704976 -1566,-6704877 -1560,-6704865 -1537,-6704817 -1524,-6704794 -1497,-6704745 -1458,-6704666 -1497,-6704635 -1567,-6704583 -1610,-6704553 -1628,-6704540 -1669,-6704505 -1676,-6704505 -1700,-6704525 -1717,-6704545 -1729,-6704557 -1756,-6704584 -1767,-6704596 -1808,-6704652 -1824,-6704676 -1830,-6704686 -1840,-6704718 -1883,-6704687 -1902,-6704721 -1905,-6704730 -1907,-6704738 -1907,-6704738 -1920,-6704750 -1946,-6704754 -1972,-6704759 -1988,-6704762 -2023,-6704771 -2053,-6704785 -2078,-6704804 -2125,-6704847 -2114,-6704866 -2114,-6704867 -2130,-6704901 -2142,-6704945 -2134,-6704954 -2122,-6704961 -2115,-6704965 -2105,-6704950 -2075,-6704971 -2089,-6704989 -2106,-6705013 -2110,-6705046 -2107,-6705047 -2092,-6705053 -2099,-6705068 -2114,-6705059 -2124,-6705075 -2129,-6705118 -2143,-6705202 -2147,-6705211 -2150,-6705215 -2156,-6705222 -2211,-6705218 -2223,-6705221 -2229,-6705223 -2235,-6705227 -2239,-6705231 -2250,-6705246 -2256,-6705264 -2259,-6705279 -2261,-6705288 -2240,-6705323 -2232,-6705334 -2228,-6705343 -2224,-6705353 -2221,-6705365 -2221,-6705378 -2222,-6705390 -2224,-6705395 -2229,-6705407 -2236,-6705414 -2248,-6705420 -2259,-6705423 -2285,-6705422 -2292,-6705425 -2295,-6705427 -2297,-6705430 -2305,-6705454 -2307,-6705465 -2308,-6705471 -2312,-6705478 -2316,-6705485 -2327,-6705497 -2340,-6705510 -2350,-6705518 -2360,-6705525 -2386,-6705538 -2406,-6705548 -2399,-6705559 -2420,-6705575 -2431,-6705561 -2433,-6705562 -2449,-6705573 -2457,-6705578 -2467,-6705581 -2484,-6705586 -2496,-6705586 -2502,-6705565 -2521,-6705568 -2514,-6705586 -2514,-6705588 -2518,-6705619 -2536,-6705621 -2535,-6705654 -2535,-6705666 -2538,-6705701 -2549,-6705764 -2548,-6705784 -2549,-6705795 -2544,-6705806 -2531,-6705813 -2531,-6705813 -2504,-6705815 -2481,-6705819 -2463,-6705829 -2449,-6705835 -2423,-6705837 -2401,-6705838 -2378,-6705840 -2343,-6705843 -2328,-6705845 -2317,-6705854 -2306,-6705871 -2302,-6705887 -2296,-6705901 -2301,-6705915 -2304,-6705948 -2307,-6705967 -2307,-6705970 -2309,-6705992 -2311,-6706009 -2311,-6706010 -2309,-6706018 -2308,-6706025 -2298,-6706041 -2287,-6706058 -2273,-6706074 -2260,-6706086 -2247,-6706094 -2228,-6706105 -2211,-6706114 -2191,-6706123 -2174,-6706125 -2158,-6706129 -2141,-6706137 -2130,-6706143 -2125,-6706152 -2123,-6706166 -2119,-6706178 -2121,-6706199 -2122,-6706210 -2130,-6706247 -2134,-6706277 -2130,-6706315 -2127,-6706343 -2125,-6706371 -2127,-6706392 -2126,-6706426 -2126,-6706455 -2119,-6706499 -2115,-6706526 -2111,-6706537 -2108,-6706545 -2100,-6706557 -2071,-6706592 -2064,-6706603 -2058,-6706610 -2050,-6706617 -2042,-6706621 -2033,-6706624 -1995,-6706628 -1975,-6706628 -1961,-6706630 -1941,-6706633 -1915,-6706640 -1901,-6706649 -1892,-6706656 -1885,-6706665 -1879,-6706676 -1873,-6706693 -1873,-6706694 -1897,-6706711 -1902,-6706716 -1961,-6706772 -1986,-6706800 -2018,-6706796 -2045,-6706795 -2065,-6706789 -2081,-6706783 -2104,-6706773 -2225,-6706708 -2270,-6706684 -2264,-6706631 -2504,-6706589 -2565,-6706577 -2570,-6706686 -2575,-6706775 -2748,-6706857 -2936,-6706913 -2932,-6706925 -2898,-6706970 -2886,-6706990 -2878,-6707008 -2871,-6707034 -2862,-6707103 -2844,-6707257 -2813,-6707393 -2812,-6707419 -2804,-6707472 -2803,-6707534 -2802,-6707541 -2783,-6707589 -2763,-6707634 -2753,-6707656 -2750,-6707663 -2736,-6707691 -2691,-6707749 -2606,-6707856 -2559,-6707818 -2433,-6707732 -2378,-6707697 -2343,-6707675 -2225,-6707606 -2164,-6707577 -2108,-6707552 -2091,-6707545 -2004,-6707505 -1961,-6707496 -1939,-6707497 -1937,-6707497 -1865,-6707482 -1843,-6707477 -1838,-6707477 -1818,-6707472 -1770,-6707468 -1740,-6707463 -1719,-6707462 -1681,-6707460 -1644,-6707457 -1617,-6707457 -1533,-6707451 -1465,-6707448 -1431,-6707449 -1420,-6707452 -1228,-6707479 -1202,-6707484 -1177,-6707489 -882,-6707574 -828,-6707601 -772,-6707628 -746,-6707641 -692,-6707661 -656,-6707677 -626,-6707693 -615,-6707699 -596,-6707710 -569,-6707730 -525,-6707761 -504,-6707773 -376,-6707877 -325,-6707920 -239,-6708009 -191,-6708076 -161,-6708128 -128,-6708200 -101,-6708272 -75,-6708347 -61,-6708403 -53,-6708445 -50,-6708485 -46,-6708549 -47,-6708578 -47,-6708594 -43,-6708679 -72,-6708817 -86,-6708887 -111,-6708980 -117,-6709023 -132,-6709054 -157,-6709120 -175,-6709162 -221,-6709245 -232,-6709264 -235,-6709269 -243,-6709285 -254,-6709307 -271,-6709344 -311,-6709444 -404,-6709704 -442,-6709792 -460,-6709848 -479,-6709910 -484,-6709929 -495,-6709975 -509,-6710040 -547,-6710243 -552,-6710285 -562,-6710349 -573,-6710377 -573,-6710389 -573,-6710402 -573,-6710410 -573,-6710441 -568,-6710480 -562,-6710500 -557,-6710519 -546,-6710546 -538,-6710569 -533,-6710596 -516,-6710668 -504,-6710721 -499,-6710745 -478,-6710798 -446,-6710865 -410,-6710919 -392,-6710954 -371,-6710989 -356,-6711020 -336,-6711052 -317,-6711081 -293,-6711107 -270,-6711140 -219,-6711194 -143,-6711268 -99,-6711302 -14,-6711349 19,-6711362 75,-6711383 109,-6711394 154,-6711411 245,-6711424 303,-6711424 354,-6711426 404,-6711429 433,-6711426 443,-6711425 464,-6711419 579,-6711368 667,-6711321 817,-6711226 848,-6711204 915,-6711154 958,-6711115 985,-6711089 1020,-6711050 1076,-6710984 1107,-6710948 1142,-6710900 1178,-6710852 1252,-6710739 1385,-6710553 1429,-6710494 1490,-6710412 1575,-6710298 1671,-6710162 1710,-6710110 1740,-6710074 1808,-6710005 1956,-6709876 1956,-6709876 2051,-6709802 2139,-6709746 2207,-6709710 2305,-6709662 2442,-6709597 2578,-6709556 2676,-6709530 2751,-6709517 2862,-6709511 2992,-6709504 3094,-6709506 3236,-6709519 3291,-6709529 3447,-6709553 3502,-6709570 3606,-6709586 3764,-6709625 3885,-6709648 3892,-6709650 3956,-6709654 4057,-6709652 4154,-6709662 4232,-6709672 4290,-6709681 4366,-6709704 4434,-6709713 4472,-6709719 4509,-6709722 4604,-6709727 4695,-6709731 4769,-6709736 4874,-6709744 4922,-6709749 4970,-6709748 5106,-6709740 5247,-6709730 5341,-6709725 5442,-6709717 5514,-6709713 5584,-6709697 5660,-6709683 5728,-6709674 5767,-6709669 5832,-6709661 5881,-6709655 5922,-6709650 5951,-6709647 6007,-6709640 6096,-6709630 6306,-6709604 6482,-6709585 6529,-6709581 6599,-6709579 6684,-6709582 6767,-6709588 6852,-6709595 6891,-6709598 6957,-6709604 7013,-6709608 7117,-6709619 7371,-6709641 7590,-6709676 7965,-6709769 8146,-6709834 8150,-6709835 8177,-6709846 8231,-6709872 8274,-6709895 8336,-6709928 8396,-6709971 8439,-6710004 8474,-6710034 8531,-6710080 8585,-6710127 8617,-6710160 8653,-6710200 8684,-6710240 8736,-6710306 8746,-6710321 8764,-6710348 8810,-6710417 8867,-6710497 8938,-6710605 9067,-6710796 9129,-6710907 9214,-6711067 9216,-6711071 9255,-6711147 9311,-6711253 9351,-6711355 9382,-6711428 9419,-6711498 9439,-6711528 9459,-6711558 9511,-6711622 9566,-6711692 9693,-6711837 9767,-6711911 9804,-6711951 9830,-6711971 10005,-6712108 10030,-6712125 10103,-6712173 10127,-6712185 10158,-6712198 10194,-6712210 10291,-6712245 10373,-6712266 10420,-6712275 10466,-6712284 10557,-6712299 10628,-6712305 10713,-6712307 10752,-6712312 10955,-6712337 11102,-6712347 11232,-6712350 11402,-6712318 11522,-6712301 11651,-6712293 11775,-6712283 11816,-6712280 11871,-6712276 11934,-6712276 11988,-6712278 12023,-6712282 12046,-6712286 12127,-6712302 12224,-6712322 12273,-6712334 12379,-6712375 12472,-6712414 12518,-6712432 12668,-6712486 12747,-6712514 12820,-6712537 12923,-6712560 12981,-6712569 13104,-6712617 13171,-6712648 13258,-6712495 13384,-6712265" stroke="#003087" stroke-width="32" /></svg>