<?xml version="1.0" standalone="no"?>
<!DOCTYPE svg PUBLIC "-//W3C//DTD SVG 1.1//EN"
"http://www.w3.org/Graphics/SVG/1.1/DTD/svg11.dtd">
<svg height="115" version="1.1" viewBox="-25459 -6715648 8782 9502" width="220" xmlns="http://www.w3.org/2000/svg"><polygon fill="#003087" points=" -25342,-6715572 -25343,-6715571 -25235,-6715582 -25177,-6715584 -25095,-6715589 -25095,-6715592 -25093,-6715616 -25046,-6715610 -24999,-6715600 -24965,-6715593 -24911,-6715579 -24892,-6715572 -24864,-6715561 -24831,-6715545 -24801,-6715529 -24784,-6715520 -24743,-6715496 -24699,-6715472 -24674,-6715463 -24657,-6715456 -24599,-6715440 -24567,-6715431 -24433,-6715395 -24382,-6715380 -24344,-6715371 -24293,-6715355 -24262,-6715342 -24190,-6715309 -24161,-6715293 -24116,-6715264 -24085,-6715242 -24045,-6715215 -24021,-6715197 -24030,-6715171 -24031,-6715166 -24033,-6715154 -24033,-6715138 -24029,-6715121 -24023,-6715095 -24006,-6715033 -23994,-6714998 -23986,-6714999 -23938,-6715006 -23886,-6715013 -23792,-6715026 -23743,-6715030 -23674,-6715025 -23592,-6715015 -23514,-6715005 -23405,-6714992 -23373,-6714985 -23327,-6714973 -23287,-6714960 -23244,-6714946 -23178,-6714926 -23159,-6714924 -23132,-6714920 -23108,-6714916 -23078,-6714913 -23076,-6714912 -23037,-6714903 -23009,-6714892 -22985,-6714881 -22948,-6714859 -22918,-6714823 -22894,-6714786 -22872,-6714744 -22838,-6714678 -22822,-6714640 -22766,-6714521 -22747,-6714483 -22714,-6714442 -22693,-6714415 -22657,-6714390 -22597,-6714356 -22573,-6714347 -22561,-6714342 -22548,-6714336 -22443,-6714287 -22442,-6714264 -22434,-6714216 -22431,-6714161 -22431,-6714151 -22426,-6714142 -22387,-6714057 -22332,-6713938 -22331,-6713923 -22347,-6713923 -22346,-6713943 -22399,-6713946 -22433,-6713948 -22458,-6713950 -22508,-6713955 -22558,-6713957 -22607,-6713942 -22650,-6713923 -22675,-6713910 -22680,-6713908 -22674,-6713898 -22659,-6713877 -22645,-6713850 -22641,-6713843 -22634,-6713808 -22628,-6713785 -22626,-6713772 -22618,-6713754 -22591,-6713702 -22526,-6713590 -22426,-6713402 -22344,-6713434 -22255,-6713232 -22249,-6713219 -22173,-6712821 -21790,-6712894 -21712,-6712907 -21634,-6712492 -21600,-6712321 -21554,-6712310 -21480,-6712332 -21386,-6711984 -21339,-6711996 -21252,-6712011 -21116,-6712021 -20987,-6712035 -20917,-6712039 -20801,-6711609 -20660,-6711093 -20525,-6710597 -20508,-6710540 -20377,-6710499 -20325,-6710487 -20302,-6710483 -20264,-6710478 -20219,-6710473 -20187,-6710474 -20138,-6710473 -20072,-6710480 -20006,-6709984 -19987,-6709822 -19318,-6709901 -19317,-6709915 -19197,-6709931 -19196,-6709945 -19122,-6709956 -19122,-6709970 -19088,-6709984 -18881,-6710023 -18745,-6710044 -18721,-6710039 -18704,-6710019 -18691,-6709954 -18659,-6709915 -18454,-6710083 -18421,-6709986 -18126,-6710242 -18097,-6710271 -18071,-6710303 -17983,-6710438 -17958,-6710468 -17940,-6710486 -17922,-6710503 -17907,-6710515 -17895,-6710523 -17873,-6710534 -17716,-6710595 -17652,-6710618 -17638,-6710621 -17637,-6710621 -17641,-6710490 -17644,-6710472 -17644,-6710457 -17643,-6710444 -17641,-6710434 -17634,-6710412 -17571,-6710043 -17501,-6709962 -17373,-6709819 -17368,-6709774 -17327,-6709437 -17322,-6709415 -17312,-6709385 -17287,-6709336 -17322,-6709303 -17338,-6709285 -17345,-6709277 -17346,-6709276 -17356,-6709260 -17364,-6709234 -17253,-6709120 -17364,-6709007 -17361,-6709003 -17231,-6708782 -17343,-6708690 -17329,-6708619 -17324,-6708591 -17315,-6708550 -17303,-6708511 -17273,-6708439 -17349,-6708360 -17242,-6708258 -17083,-6708105 -16887,-6707904 -16852,-6707872 -16736,-6707757 -16716,-6707732 -16708,-6707712 -16704,-6707697 -16695,-6707623 -16677,-6707458 -16725,-6707452 -17009,-6707383 -17034,-6707381 -17047,-6707378 -17058,-6707374 -17070,-6707369 -17083,-6707362 -17114,-6707354 -17132,-6707347 -17157,-6707341 -17226,-6707329 -17310,-6707313 -17568,-6707256 -17583,-6707253 -17613,-6707248 -17652,-6707245 -17688,-6707234 -17847,-6707196 -17871,-6707191 -17881,-6707190 -17977,-6707183 -18094,-6707165 -18153,-6707160 -18174,-6707155 -18191,-6707150 -18207,-6707144 -18259,-6707120 -18310,-6707118 -18345,-6707114 -18519,-6707077 -18563,-6707069 -18564,-6707069 -18665,-6707044 -18697,-6707038 -18708,-6707035 -18733,-6707019 -18759,-6707011 -18785,-6707004 -18828,-6706998 -18853,-6706993 -18869,-6706988 -18884,-6706979 -18917,-6706962 -18925,-6706959 -18934,-6706957 -18951,-6706955 -18978,-6706950 -18997,-6706951 -19008,-6706949 -19024,-6706945 -19079,-6706917 -19204,-6706856 -19296,-6706810 -19360,-6706765 -19393,-6706740 -19472,-6706677 -19506,-6706641 -19576,-6706546 -19606,-6706498 -19668,-6706399 -19704,-6706340 -19722,-6706307 -19752,-6706254 -19754,-6706250 -19791,-6706206 -19806,-6706210 -19837,-6706220 -19960,-6706250 -19983,-6706253 -19999,-6706255 -20058,-6706259 -20083,-6706255 -20100,-6706251 -20116,-6706245 -20129,-6706240 -20284,-6706158 -20304,-6706150 -20319,-6706147 -20329,-6706146 -20349,-6706148 -20359,-6706149 -20415,-6706157 -20437,-6706164 -20451,-6706171 -20466,-6706182 -20483,-6706202 -20517,-6706250 -20544,-6706290 -20554,-6706303 -20633,-6706393 -20661,-6706426 -20667,-6706435 -20677,-6706453 -20707,-6706526 -20721,-6706556 -20729,-6706571 -20743,-6706594 -20763,-6706620 -20783,-6706601 -20800,-6706623 -20800,-6706623 -20819,-6706649 -20838,-6706675 -20839,-6706676 -20858,-6706701 -20879,-6706725 -20947,-6706800 -20956,-6706815 -20964,-6706827 -21041,-6706945 -21094,-6707016 -21165,-6707114 -21172,-6707123 -21197,-6707154 -21221,-6707187 -21236,-6707209 -21244,-6707220 -21262,-6707248 -21283,-6707282 -21302,-6707317 -21338,-6707371 -21340,-6707369 -21345,-6707365 -21350,-6707361 -21374,-6707407 -21434,-6707506 -21451,-6707534 -21476,-6707575 -21503,-6707616 -21510,-6707626 -21551,-6707682 -21593,-6707737 -21609,-6707756 -21628,-6707780 -21648,-6707804 -21669,-6707827 -21673,-6707831 -21694,-6707853 -21717,-6707874 -21740,-6707894 -21814,-6707961 -21865,-6707931 -21938,-6707975 -21987,-6708011 -22008,-6708028 -22027,-6708046 -22045,-6708065 -22063,-6708085 -22071,-6708095 -22152,-6708209 -22144,-6708216 -22191,-6708273 -22214,-6708304 -22302,-6708428 -22330,-6708444 -22365,-6708497 -22458,-6708632 -22526,-6708729 -22518,-6708734 -22465,-6708762 -22468,-6708767 -22511,-6708839 -22531,-6708875 -22547,-6708907 -22570,-6708951 -22595,-6708995 -22605,-6709012 -22609,-6709019 -22598,-6709025 -22608,-6709035 -22616,-6709043 -22645,-6709078 -22666,-6709105 -22682,-6709120 -22710,-6709153 -22749,-6709198 -22802,-6709244 -22793,-6709255 -22839,-6709294 -22886,-6709331 -22930,-6709362 -22965,-6709389 -22994,-6709410 -23009,-6709422 -23022,-6709436 -23052,-6709470 -23055,-6709475 -23055,-6709477 -23059,-6709480 -23062,-6709483 -23065,-6709487 -23068,-6709490 -23069,-6709493 -23071,-6709498 -23073,-6709502 -23074,-6709507 -23075,-6709511 -23083,-6709530 -23151,-6709507 -23175,-6709537 -23259,-6709648 -23328,-6709753 -23365,-6709821 -23380,-6709848 -23404,-6709884 -23466,-6709955 -23542,-6710021 -23561,-6710038 -23590,-6710066 -23663,-6710135 -23715,-6710191 -23834,-6710357 -23860,-6710421 -23899,-6710513 -23939,-6710621 -23927,-6710630 -23972,-6710702 -24044,-6710825 -24068,-6710881 -24080,-6710876 -24084,-6710875 -24087,-6710884 -24107,-6710926 -24154,-6711017 -24158,-6711024 -24200,-6711134 -24220,-6711181 -24224,-6711192 -24217,-6711197 -24219,-6711200 -24236,-6711247 -24263,-6711318 -24173,-6711344 -24085,-6711372 -24082,-6711366 -24078,-6711357 -24077,-6711357 -24069,-6711356 -24038,-6711364 -24048,-6711397 -24067,-6711461 -24063,-6711511 -24061,-6711541 -24059,-6711554 -24058,-6711563 -24052,-6711563 -24029,-6711563 -24026,-6711564 -23975,-6711580 -23953,-6711586 -23974,-6711660 -23991,-6711720 -23999,-6711746 -24021,-6711849 -24051,-6711851 -24052,-6711857 -24090,-6711850 -24093,-6711864 -24099,-6711872 -24110,-6711886 -24136,-6711908 -24133,-6711930 -24138,-6711951 -24143,-6711971 -24151,-6711994 -24154,-6712002 -24152,-6712005 -24149,-6712012 -24149,-6712025 -24153,-6712031 -24177,-6712077 -24181,-6712075 -24208,-6712063 -24210,-6712061 -24215,-6712059 -24220,-6712057 -24225,-6712055 -24241,-6712052 -24247,-6712051 -24270,-6712048 -24252,-6711964 -24358,-6711942 -24408,-6711931 -24409,-6711938 -24434,-6712044 -24439,-6712068 -24461,-6712153 -24464,-6712162 -24469,-6712181 -24474,-6712200 -24480,-6712219 -24492,-6712248 -24503,-6712276 -24517,-6712317 -24524,-6712336 -24526,-6712340 -24536,-6712377 -24547,-6712404 -24613,-6712564 -24639,-6712628 -24654,-6712659 -24650,-6712689 -24652,-6712703 -24652,-6712704 -24683,-6712782 -24713,-6712856 -24741,-6712917 -24755,-6712951 -24763,-6712974 -24777,-6713017 -24793,-6713029 -24813,-6713065 -24895,-6713213 -24967,-6713340 -24966,-6713344 -24963,-6713349 -24984,-6713377 -25016,-6713433 -25035,-6713460 -25052,-6713488 -25077,-6713528 -25119,-6713597 -25143,-6713632 -25196,-6713709 -25203,-6713705 -25208,-6713712 -25209,-6713713 -25214,-6713713 -25218,-6713721 -25225,-6713730 -25233,-6713742 -25241,-6713751 -25235,-6713755 -25411,-6713992 -25386,-6714010 -25386,-6714039 -25246,-6714142 -25236,-6714150 -25237,-6714217 -25224,-6714654 -25288,-6714654 -25297,-6714721 -25300,-6714748 -25308,-6714841 -25310,-6714863 -25313,-6714914 -25312,-6714920 -25305,-6715067 -25305,-6715100 -25306,-6715139 -25308,-6715174 -25312,-6715208 -25317,-6715236 -25323,-6715259 -25332,-6715286 -25349,-6715325 -25358,-6715344 -25380,-6715380 -25401,-6715409 -25408,-6715421 -25414,-6715433 -25418,-6715445 -25459,-6715563 -25434,-6715648 -25419,-6715639 -25396,-6715628 -25379,-6715623 -25361,-6715618 -25346,-6715615 -25332,-6715613 -25332,-6715613 -25342,-6715572" stroke="#003087" stroke-width="18" /></svg>