<?xml version="1.0" standalone="no"?>
<!DOCTYPE svg PUBLIC "-//W3C//DTD SVG 1.1//EN"
"http://www.w3.org/Graphics/SVG/1.1/DTD/svg11.dtd">
<svg height="115" version="1.1" viewBox="-36817 -6699012 10243 19793" width="220" xmlns="http://www.w3.org/2000/svg"><polygon fill="#003087" points=" -28218,-6698898 -28213,-6698883 -28211,-6698846 -28211,-6698796 -28211,-6698763 -28205,-6698731 -28197,-6698704 -28189,-6698685 -28173,-6698657 -28163,-6698642 -28153,-6698629 -28143,-6698619 -28130,-6698609 -28117,-6698598 -28060,-6698552 -28048,-6698543 -28026,-6698527 -28013,-6698516 -28007,-6698511 -27991,-6698495 -27984,-6698487 -27971,-6698467 -27966,-6698455 -27962,-6698442 -27948,-6698387 -27942,-6698340 -27941,-6698325 -27942,-6698282 -27942,-6698216 -27945,-6698181 -27947,-6698169 -27966,-6698119 -28003,-6698066 -28018,-6698043 -28032,-6698025 -28061,-6697981 -28076,-6697961 -28093,-6697934 -28110,-6697918 -28122,-6697909 -28152,-6697895 -28172,-6697883 -28184,-6697874 -28197,-6697861 -28210,-6697834 -28230,-6697800 -28243,-6697771 -28265,-6697727 -28282,-6697689 -28289,-6697666 -28297,-6697635 -28297,-6697616 -28298,-6697603 -28300,-6697589 -28295,-6697573 -28286,-6697546 -28284,-6697537 -28271,-6697496 -28271,-6697495 -28258,-6697454 -28238,-6697400 -28219,-6697363 -28203,-6697320 -28193,-6697285 -28184,-6697242 -28170,-6697196 -28159,-6697173 -28139,-6697135 -28108,-6697087 -28097,-6697050 -28090,-6697009 -28087,-6696994 -28083,-6696972 -28078,-6696950 -28081,-6696929 -28086,-6696881 -28097,-6696818 -28104,-6696795 -28116,-6696760 -28128,-6696723 -28139,-6696694 -28146,-6696671 -28151,-6696649 -28152,-6696585 -28155,-6696543 -28156,-6696520 -28156,-6696498 -28137,-6696478 -28096,-6696463 -28052,-6696452 -28028,-6696436 -28017,-6696427 -27987,-6696390 -27966,-6696364 -27964,-6696361 -27957,-6696349 -27952,-6696339 -27930,-6696261 -27919,-6696201 -27910,-6696148 -27902,-6696121 -27892,-6696099 -27888,-6696064 -27890,-6696025 -27891,-6695993 -27886,-6695961 -27880,-6695930 -27870,-6695887 -27858,-6695856 -27843,-6695824 -27814,-6695757 -27810,-6695743 -27802,-6695721 -27787,-6695663 -27784,-6695635 -27782,-6695613 -27779,-6695582 -27782,-6695558 -27784,-6695536 -27792,-6695508 -27802,-6695466 -27810,-6695412 -27811,-6695392 -27808,-6695315 -27807,-6695301 -27799,-6695230 -27795,-6695200 -27782,-6695109 -27776,-6695058 -27776,-6695042 -27783,-6695027 -27782,-6695015 -27775,-6694993 -27758,-6694948 -27722,-6694829 -27705,-6694773 -27630,-6694522 -27546,-6694239 -27540,-6694218 -27512,-6694089 -27508,-6694066 -27510,-6694054 -27513,-6694034 -27514,-6694031 -27516,-6694027 -27518,-6694022 -27520,-6694018 -27520,-6694017 -27521,-6694014 -27541,-6693992 -27549,-6693981 -27555,-6693971 -27555,-6693936 -27553,-6693903 -27550,-6693875 -27549,-6693873 -27544,-6693863 -27537,-6693851 -27533,-6693842 -27531,-6693829 -27526,-6693816 -27525,-6693811 -27524,-6693799 -27521,-6693785 -27515,-6693777 -27504,-6693764 -27496,-6693755 -27488,-6693747 -27475,-6693745 -27463,-6693740 -27448,-6693740 -27415,-6693724 -27403,-6693717 -27386,-6693711 -27365,-6693707 -27360,-6693706 -27359,-6693702 -27355,-6693688 -27349,-6693681 -27326,-6693650 -27324,-6693645 -27323,-6693637 -27313,-6693623 -27310,-6693618 -27308,-6693609 -27315,-6693597 -27326,-6693561 -27329,-6693540 -27323,-6693524 -27310,-6693489 -27296,-6693452 -27295,-6693449 -27292,-6693428 -27292,-6693412 -27291,-6693375 -27276,-6693329 -27272,-6693308 -27264,-6693263 -27257,-6693217 -27258,-6693195 -27253,-6693178 -27249,-6693156 -27239,-6693135 -27235,-6693110 -27237,-6693043 -27237,-6693018 -27235,-6692964 -27241,-6692921 -27253,-6692872 -27254,-6692865 -27258,-6692840 -27275,-6692766 -27276,-6692762 -27278,-6692752 -27296,-6692660 -27297,-6692659 -27303,-6692662 -27312,-6692649 -27325,-6692634 -27348,-6692609 -27391,-6692553 -27395,-6692547 -27433,-6692501 -27435,-6692500 -27456,-6692480 -27458,-6692477 -27462,-6692473 -27470,-6692458 -27474,-6692445 -27476,-6692442 -27473,-6692426 -27461,-6692379 -27455,-6692352 -27450,-6692301 -27447,-6692249 -27449,-6692228 -27451,-6692215 -27458,-6692194 -27462,-6692175 -27463,-6692169 -27465,-6692141 -27466,-6692122 -27467,-6692110 -27467,-6692091 -27481,-6692050 -27488,-6692024 -27501,-6692002 -27516,-6691974 -27539,-6691933 -27540,-6691925 -27540,-6691924 -27486,-6691844 -27467,-6691814 -27436,-6691774 -27426,-6691755 -27415,-6691735 -27401,-6691699 -27382,-6691670 -27369,-6691654 -27356,-6691625 -27347,-6691610 -27335,-6691594 -27330,-6691581 -27325,-6691569 -27283,-6691518 -27269,-6691496 -27247,-6691460 -27238,-6691428 -27225,-6691404 -27185,-6691377 -27170,-6691374 -27167,-6691374 -27150,-6691365 -27131,-6691354 -27109,-6691346 -27108,-6691346 -27068,-6691341 -27024,-6691335 -26993,-6691327 -26968,-6691315 -26942,-6691300 -26916,-6691280 -26908,-6691271 -26902,-6691262 -26863,-6691175 -26863,-6691169 -26863,-6691165 -26858,-6691158 -26844,-6691135 -26818,-6691057 -26809,-6691025 -26807,-6691016 -26805,-6691005 -26812,-6690988 -26821,-6690960 -26821,-6690958 -26808,-6690955 -26801,-6690951 -26791,-6690946 -26783,-6690939 -26776,-6690926 -26766,-6690892 -26758,-6690880 -26740,-6690825 -26726,-6690785 -26725,-6690767 -26729,-6690737 -26726,-6690716 -26721,-6690685 -26717,-6690657 -26717,-6690640 -26708,-6690584 -26702,-6690525 -26701,-6690495 -26690,-6690474 -26685,-6690462 -26681,-6690446 -26674,-6690421 -26673,-6690416 -26669,-6690387 -26667,-6690379 -26666,-6690374 -26666,-6690370 -26667,-6690346 -26670,-6690331 -26667,-6690306 -26657,-6690280 -26657,-6690255 -26655,-6690241 -26653,-6690206 -26638,-6690163 -26627,-6690119 -26613,-6690079 -26604,-6690047 -26602,-6690010 -26599,-6689992 -26597,-6689981 -26574,-6689875 -26586,-6689863 -26593,-6689855 -26606,-6689844 -26623,-6689837 -26644,-6689819 -26686,-6689787 -26704,-6689769 -26720,-6689755 -26794,-6689691 -26832,-6689657 -26870,-6689622 -26894,-6689595 -26917,-6689565 -26931,-6689533 -26947,-6689502 -26998,-6689395 -26998,-6689389 -26998,-6689386 -27028,-6689334 -27040,-6689311 -27043,-6689313 -27178,-6689411 -27197,-6689310 -27213,-6689222 -27236,-6689081 -27234,-6689074 -27245,-6688967 -27247,-6688968 -27252,-6688942 -27262,-6688945 -27268,-6688904 -27269,-6688895 -27274,-6688804 -27276,-6688794 -27329,-6688798 -27336,-6688786 -27379,-6688814 -27394,-6688822 -27439,-6688817 -27451,-6688815 -27475,-6688809 -27518,-6688786 -27558,-6688817 -27564,-6688819 -27570,-6688819 -27576,-6688818 -27579,-6688817 -27587,-6688810 -27595,-6688818 -27646,-6688798 -27677,-6688794 -27701,-6688785 -27727,-6688774 -27820,-6688720 -27887,-6688683 -27917,-6688665 -27938,-6688652 -27991,-6688627 -28012,-6688618 -28091,-6688591 -28137,-6688583 -28208,-6688573 -28228,-6688571 -28269,-6688569 -28333,-6688568 -28393,-6688567 -28451,-6688568 -28470,-6688567 -28530,-6688575 -28628,-6688582 -28640,-6688584 -28649,-6688586 -28661,-6688591 -28767,-6688604 -28869,-6688640 -28917,-6688653 -28931,-6688661 -28942,-6688666 -28959,-6688672 -29013,-6688699 -29034,-6688709 -29055,-6688717 -29065,-6688717 -29070,-6688717 -29070,-6688693 -29093,-6688643 -29098,-6688629 -29100,-6688616 -29106,-6688525 -29109,-6688518 -29117,-6688506 -29152,-6688471 -29156,-6688465 -29159,-6688457 -29162,-6688445 -29208,-6688316 -29217,-6688298 -29262,-6688263 -29307,-6688222 -29369,-6688151 -29414,-6688089 -29463,-6688007 -29555,-6687938 -29659,-6687860 -29697,-6687830 -29832,-6687730 -29928,-6687654 -29932,-6687651 -29971,-6687629 -30026,-6687596 -30108,-6687555 -30172,-6687521 -30187,-6687513 -30271,-6687468 -30297,-6687450 -30325,-6687424 -30339,-6687408 -30343,-6687404 -30362,-6687383 -30385,-6687359 -30412,-6687336 -30413,-6687334 -30431,-6687315 -30435,-6687310 -30455,-6687278 -30469,-6687242 -30478,-6687215 -30492,-6687178 -30500,-6687149 -30504,-6687122 -30528,-6687110 -30542,-6687105 -30569,-6687096 -30608,-6687077 -30610,-6687076 -30653,-6687050 -30657,-6687047 -30682,-6687029 -30705,-6687007 -30720,-6686988 -30721,-6686985 -30735,-6686963 -30736,-6686960 -30744,-6686941 -30751,-6686910 -30756,-6686878 -30755,-6686874 -30753,-6686857 -30754,-6686838 -30769,-6686812 -30779,-6686800 -30786,-6686792 -30791,-6686789 -30812,-6686778 -30833,-6686759 -30839,-6686754 -30862,-6686740 -30885,-6686729 -30894,-6686725 -30934,-6686716 -30935,-6686716 -30936,-6686715 -30951,-6686712 -30997,-6686701 -31018,-6686692 -31057,-6686675 -31070,-6686670 -31104,-6686648 -31111,-6686644 -31149,-6686617 -31173,-6686595 -31185,-6686585 -31221,-6686550 -31228,-6686543 -31256,-6686516 -31260,-6686512 -31284,-6686487 -31300,-6686467 -31309,-6686452 -31319,-6686422 -31330,-6686402 -31332,-6686399 -31349,-6686374 -31368,-6686347 -31378,-6686333 -31388,-6686319 -31410,-6686291 -31435,-6686267 -31460,-6686243 -31484,-6686225 -31514,-6686207 -31527,-6686198 -31531,-6686195 -31550,-6686187 -31551,-6686186 -31573,-6686177 -31577,-6686175 -31590,-6686168 -31590,-6686167 -31604,-6686158 -31615,-6686147 -31622,-6686140 -31623,-6686139 -31654,-6686105 -31678,-6686078 -31696,-6686050 -31715,-6686031 -31728,-6686017 -31747,-6686003 -31774,-6685979 -31797,-6685953 -31804,-6685944 -31809,-6685938 -31829,-6685907 -31837,-6685894 -31871,-6685848 -31894,-6685809 -31909,-6685779 -31921,-6685751 -31928,-6685737 -31933,-6685725 -31951,-6685697 -31970,-6685675 -31987,-6685662 -32001,-6685654 -32024,-6685644 -32048,-6685634 -32074,-6685625 -32077,-6685620 -32090,-6685593 -32053,-6685569 -32053,-6685569 -32015,-6685545 -32012,-6685543 -31972,-6685525 -31949,-6685514 -31948,-6685514 -31893,-6685488 -31853,-6685472 -31817,-6685462 -31770,-6685451 -31734,-6685438 -31763,-6685413 -31840,-6685275 -31880,-6685219 -31902,-6685185 -31912,-6685169 -31930,-6685137 -31945,-6685110 -32068,-6685051 -32168,-6684992 -32194,-6684944 -32209,-6684907 -32222,-6684879 -32236,-6684851 -32257,-6684814 -32266,-6684796 -32304,-6684737 -32349,-6684671 -32380,-6684631 -32384,-6684627 -32403,-6684608 -32405,-6684593 -32413,-6684526 -32414,-6684521 -32418,-6684488 -32419,-6684448 -32416,-6684385 -32416,-6684366 -32429,-6684322 -32446,-6684276 -32472,-6684230 -32503,-6684183 -32511,-6684175 -32536,-6684150 -32549,-6684133 -32560,-6684116 -32578,-6684084 -32589,-6684050 -32588,-6683958 -32589,-6683919 -32591,-6683904 -32593,-6683889 -32606,-6683862 -32633,-6683831 -32649,-6683815 -32666,-6683799 -32744,-6683733 -32764,-6683715 -32783,-6683695 -32818,-6683655 -32835,-6683635 -32866,-6683591 -32907,-6683535 -32952,-6683484 -33000,-6683433 -33089,-6683362 -33121,-6683331 -33147,-6683308 -33150,-6683305 -33188,-6683271 -33216,-6683239 -33245,-6683202 -33281,-6683174 -33304,-6683148 -33332,-6683105 -33387,-6683024 -33404,-6682993 -33413,-6682971 -33423,-6682948 -33454,-6682866 -33468,-6682823 -33480,-6682777 -33509,-6682680 -33524,-6682640 -33542,-6682600 -33565,-6682564 -33592,-6682528 -33609,-6682512 -33618,-6682505 -33650,-6682478 -33675,-6682450 -33759,-6682331 -33775,-6682310 -33804,-6682271 -33816,-6682254 -33827,-6682236 -33843,-6682200 -33854,-6682159 -33862,-6682122 -33875,-6682079 -33882,-6682051 -33889,-6682022 -33896,-6681991 -33901,-6681960 -33907,-6681903 -33912,-6681863 -33922,-6681810 -33928,-6681784 -33943,-6681732 -33951,-6681706 -33959,-6681682 -33987,-6681608 -33998,-6681564 -33998,-6681515 -33992,-6681465 -33992,-6681422 -33985,-6681376 -33982,-6681339 -33977,-6681323 -33958,-6681281 -33947,-6681248 -33936,-6681220 -33944,-6681187 -33945,-6681136 -33944,-6681078 -33955,-6681025 -33971,-6680974 -33980,-6680950 -34028,-6680839 -34048,-6680811 -34064,-6680796 -34085,-6680781 -34130,-6680751 -34174,-6680722 -34227,-6680693 -34243,-6680696 -34253,-6680674 -34322,-6680602 -34368,-6680543 -34410,-6680497 -34466,-6680425 -34493,-6680398 -34553,-6680350 -34612,-6680301 -34684,-6680258 -34730,-6680249 -34776,-6680229 -34796,-6680219 -34815,-6680207 -34850,-6680185 -34920,-6680127 -34946,-6680100 -34981,-6680061 -35068,-6679967 -35086,-6679942 -35170,-6679822 -35171,-6679819 -35190,-6679798 -35259,-6679723 -35268,-6679714 -35302,-6679682 -35378,-6679613 -35440,-6679564 -35505,-6679511 -35542,-6679485 -35576,-6679472 -35628,-6679458 -35757,-6679431 -35797,-6679422 -35817,-6679416 -35853,-6679400 -35914,-6679376 -35964,-6679356 -36014,-6679323 -36046,-6679299 -36061,-6679290 -36068,-6679286 -36093,-6679278 -36114,-6679274 -36136,-6679271 -36188,-6679266 -36243,-6679264 -36287,-6679264 -36366,-6679268 -36396,-6679276 -36424,-6679282 -36434,-6679285 -36465,-6679219 -36545,-6679245 -36613,-6679307 -36649,-6679339 -36687,-6679373 -36748,-6679433 -36750,-6679442 -36770,-6679498 -36777,-6679518 -36786,-6679554 -36798,-6679591 -36807,-6679631 -36817,-6679671 -36812,-6679684 -36808,-6679699 -36798,-6679713 -36789,-6679723 -36778,-6679734 -36765,-6679745 -36723,-6679779 -36692,-6679814 -36669,-6679847 -36657,-6679869 -36645,-6679891 -36634,-6679922 -36634,-6679946 -36640,-6680005 -36642,-6680047 -36655,-6680147 -36661,-6680163 -36683,-6680209 -36685,-6680265 -36687,-6680282 -36698,-6680319 -36701,-6680351 -36701,-6680368 -36700,-6680386 -36693,-6680498 -36691,-6680561 -36682,-6680615 -36675,-6680651 -36682,-6680671 -36669,-6680739 -36667,-6680787 -36661,-6680821 -36644,-6680879 -36643,-6680932 -36645,-6680999 -36642,-6681070 -36626,-6681224 -36610,-6681332 -36606,-6681421 -36608,-6681484 -36606,-6681552 -36607,-6681583 -36607,-6681612 -36616,-6681676 -36619,-6681698 -36611,-6681796 -36597,-6681849 -36570,-6681969 -36568,-6681973 -36548,-6682022 -36532,-6682070 -36511,-6682183 -36503,-6682253 -36499,-6682324 -36487,-6682352 -36452,-6682371 -36529,-6682377 -36563,-6682467 -36584,-6682533 -36610,-6682601 -36644,-6682706 -36659,-6682752 -36729,-6682954 -36769,-6683065 -36792,-6683158 -36773,-6683186 -36756,-6683218 -36744,-6683258 -36725,-6683303 -36705,-6683358 -36684,-6683424 -36674,-6683452 -36656,-6683498 -36625,-6683566 -36595,-6683640 -36549,-6683746 -36515,-6683820 -36504,-6683829 -36483,-6683845 -36429,-6683888 -36381,-6683938 -36340,-6683980 -36261,-6684037 -36158,-6684103 -36115,-6684133 -36082,-6684171 -36037,-6684226 -36013,-6684271 -35974,-6684362 -35938,-6684423 -35906,-6684480 -35871,-6684545 -35836,-6684619 -35789,-6684724 -35755,-6684808 -35725,-6684882 -35702,-6684935 -35648,-6685061 -35628,-6685120 -35639,-6685141 -35637,-6685149 -35614,-6685156 -35596,-6685209 -35569,-6685308 -35553,-6685385 -35529,-6685511 -35514,-6685634 -35428,-6685847 -35430,-6685878 -35442,-6686057 -35445,-6686173 -35446,-6686186 -35455,-6686267 -35455,-6686325 -35443,-6686466 -35429,-6686630 -35410,-6686811 -35398,-6686930 -35388,-6686967 -35388,-6686969 -35387,-6686977 -35386,-6686988 -35400,-6687057 -35391,-6687118 -35368,-6687225 -35341,-6687356 -35339,-6687364 -35329,-6687398 -35317,-6687439 -35297,-6687487 -35280,-6687525 -35251,-6687569 -35221,-6687609 -35199,-6687640 -35173,-6687674 -35137,-6687712 -35087,-6687759 -35038,-6687795 -34989,-6687832 -34939,-6687837 -34882,-6687840 -34836,-6687846 -34804,-6687852 -34785,-6687855 -34746,-6687864 -34678,-6687883 -34627,-6687896 -34560,-6687922 -34466,-6687952 -34405,-6687964 -34361,-6687976 -34334,-6688050 -34321,-6688085 -34283,-6688193 -34279,-6688264 -34266,-6688349 -34271,-6688496 -34215,-6688500 -34230,-6688611 -34317,-6688794 -34320,-6688803 -34341,-6688877 -34425,-6688868 -34430,-6688985 -34422,-6688991 -34426,-6689022 -34427,-6689030 -34430,-6689054 -34428,-6689080 -34428,-6689093 -34432,-6689120 -34450,-6689117 -34457,-6689224 -34468,-6689237 -34478,-6689260 -34488,-6689294 -34493,-6689296 -34496,-6689302 -34545,-6689439 -34538,-6689467 -34540,-6689493 -34552,-6689539 -34555,-6689546 -34566,-6689566 -34579,-6689593 -34569,-6689609 -34571,-6689619 -34576,-6689638 -34580,-6689647 -34587,-6689660 -34612,-6689687 -34631,-6689705 -34705,-6689820 -34603,-6689892 -34663,-6689989 -34668,-6690000 -34673,-6690009 -34658,-6690021 -34695,-6690059 -34709,-6690074 -34703,-6690079 -34699,-6690082 -34711,-6690104 -34700,-6690114 -34826,-6690302 -34858,-6690358 -34861,-6690363 -34879,-6690351 -35172,-6690149 -35232,-6690262 -35241,-6690296 -35243,-6690319 -35265,-6690317 -35264,-6690324 -35264,-6690327 -35264,-6690332 -35263,-6690337 -35262,-6690343 -35261,-6690348 -35259,-6690353 -35254,-6690361 -35248,-6690368 -35241,-6690375 -35235,-6690382 -35228,-6690388 -35221,-6690394 -35214,-6690400 -35157,-6690439 -35114,-6690479 -35060,-6690526 -34966,-6690611 -34982,-6690636 -35027,-6690706 -35043,-6690735 -35055,-6690760 -35079,-6690810 -35090,-6690832 -35144,-6690924 -35212,-6691028 -35258,-6691095 -35285,-6691126 -35298,-6691142 -35318,-6691170 -35365,-6691226 -35352,-6691245 -35335,-6691266 -35246,-6691364 -34975,-6691676 -34838,-6691840 -34794,-6691892 -34787,-6691901 -34752,-6692003 -34745,-6692024 -34731,-6692066 -34727,-6692073 -34716,-6692090 -34670,-6692144 -34587,-6692237 -34560,-6692265 -34530,-6692294 -34501,-6692323 -34483,-6692338 -34472,-6692351 -34468,-6692358 -34440,-6692421 -34434,-6692437 -34423,-6692468 -34403,-6692540 -34397,-6692570 -34383,-6692651 -34371,-6692749 -34363,-6692885 -34361,-6692979 -34364,-6693071 -34377,-6693206 -34393,-6693349 -34394,-6693361 -34397,-6693436 -34395,-6693472 -34396,-6693518 -34395,-6693550 -34402,-6693808 -34405,-6694016 -34405,-6694027 -34404,-6694050 -34377,-6694327 -34363,-6694428 -34340,-6694551 -34335,-6694590 -34333,-6694642 -34333,-6694694 -34339,-6694768 -34340,-6694787 -34340,-6694816 -34339,-6694845 -34336,-6694905 -34336,-6694936 -34334,-6694967 -34328,-6694998 -34325,-6695036 -34318,-6695077 -34259,-6695308 -34249,-6695353 -34247,-6695370 -34241,-6695395 -34235,-6695419 -34228,-6695442 -34220,-6695464 -34198,-6695517 -34188,-6695545 -34158,-6695638 -34140,-6695702 -34138,-6695758 -34139,-6695812 -34138,-6695863 -34132,-6695926 -34127,-6695956 -34121,-6695986 -34106,-6696042 -34074,-6696120 -34064,-6696146 -34065,-6696190 -34072,-6696240 -34085,-6696293 -34092,-6696321 -34101,-6696350 -34121,-6696408 -34143,-6696465 -34160,-6696512 -34169,-6696531 -34227,-6696644 -34258,-6696701 -34283,-6696752 -34348,-6696846 -34424,-6696944 -34465,-6696987 -34508,-6697021 -34549,-6697062 -34629,-6697128 -34710,-6697194 -34770,-6697238 -34828,-6697278 -34861,-6697302 -34887,-6697322 -35004,-6697400 -34977,-6697450 -34948,-6697506 -34924,-6697567 -34820,-6697772 -34756,-6697874 -34731,-6697914 -34608,-6698068 -34582,-6698105 -34553,-6698071 -34521,-6698099 -34519,-6698100 -34504,-6698098 -34482,-6698093 -34466,-6698068 -34437,-6698038 -34295,-6697905 -34293,-6697903 -34342,-6697855 -34347,-6697851 -34296,-6697815 -34255,-6697785 -34225,-6697764 -34209,-6697752 -34205,-6697754 -34201,-6697756 -34167,-6697755 -34167,-6697743 -34167,-6697738 -34109,-6697737 -34108,-6697804 -34107,-6697804 -34090,-6697803 -34088,-6697922 -34075,-6697931 -34054,-6697954 -34046,-6697951 -33864,-6697899 -33635,-6697829 -33591,-6697780 -33589,-6697782 -33563,-6697807 -33597,-6697873 -33623,-6697916 -33573,-6697966 -33524,-6697911 -33493,-6697877 -33465,-6697849 -33438,-6697820 -33403,-6697781 -33269,-6697639 -33194,-6697568 -33203,-6697560 -33206,-6697557 -33178,-6697523 -33143,-6697484 -33137,-6697477 -33131,-6697476 -33114,-6697454 -33094,-6697438 -33077,-6697417 -33020,-6697374 -32974,-6697336 -32964,-6697328 -32943,-6697309 -32942,-6697311 -32928,-6697323 -32888,-6697290 -32877,-6697234 -32885,-6697182 -32883,-6697182 -32830,-6697178 -32806,-6697176 -32811,-6697138 -32812,-6697114 -32813,-6697079 -32662,-6697088 -32659,-6697088 -32658,-6697138 -32658,-6697193 -32657,-6697207 -32651,-6697452 -32647,-6697453 -32602,-6697461 -32616,-6697521 -32610,-6697521 -32357,-6697530 -32351,-6697530 -32285,-6697297 -32278,-6697270 -32268,-6697232 -32232,-6697105 -32225,-6697080 -32214,-6697042 -31995,-6696287 -31903,-6695956 -31858,-6695972 -31794,-6695999 -31718,-6696035 -31473,-6696146 -31466,-6696149 -31218,-6696257 -30813,-6696776 -30811,-6696775 -30770,-6696833 -30703,-6696920 -30653,-6696974 -30519,-6697157 -30448,-6697252 -30387,-6697331 -30294,-6697453 -30207,-6697569 -30186,-6697594 -30177,-6697605 -30160,-6697629 -30124,-6697661 -30088,-6697693 -29985,-6697781 -29936,-6697827 -29906,-6697852 -29876,-6697881 -29833,-6697904 -29800,-6697934 -29757,-6697965 -29688,-6698031 -29637,-6698085 -29587,-6698125 -29530,-6698168 -29452,-6698231 -29414,-6698256 -29273,-6698346 -29249,-6698361 -29186,-6698408 -29147,-6698429 -29043,-6698498 -28987,-6698531 -28942,-6698571 -28805,-6698659 -28730,-6698710 -28623,-6698782 -28585,-6698809 -28540,-6698839 -28533,-6698844 -28526,-6698849 -28546,-6698872 -28532,-6698882 -28535,-6698886 -28518,-6698899 -28515,-6698894 -28459,-6698892 -28413,-6698924 -28399,-6698934 -28387,-6698944 -28328,-6698982 -28282,-6699012 -28276,-6699003 -28251,-6698966 -28243,-6698952 -28229,-6698925 -28223,-6698912 -28218,-6698898" stroke="#003087" stroke-width="30" /></svg>