<?xml version="1.0" standalone="no"?>
<!DOCTYPE svg PUBLIC "-//W3C//DTD SVG 1.1//EN"
"http://www.w3.org/Graphics/SVG/1.1/DTD/svg11.dtd">
<svg height="115" version="1.1" viewBox="-19064 -6730131 14453 8346" width="220" xmlns="http://www.w3.org/2000/svg"><polygon fill="#003087" points=" -14235,-6729813 -14179,-6729802 -14075,-6729801 -14065,-6729792 -14060,-6729788 -14011,-6729839 -14022,-6729849 -13951,-6729917 -13900,-6729903 -13913,-6729888 -13814,-6729785 -13821,-6729783 -13818,-6729780 -13810,-6729771 -13794,-6729758 -13800,-6729753 -13803,-6729750 -13749,-6729681 -13744,-6729683 -13731,-6729686 -13705,-6729692 -13626,-6729676 -13581,-6729667 -13557,-6729667 -13532,-6729665 -13506,-6729661 -13302,-6729631 -13266,-6729620 -13214,-6729672 -13148,-6729630 -13079,-6729591 -13053,-6729633 -12905,-6729610 -12899,-6729609 -12900,-6729631 -12861,-6729631 -12838,-6729631 -12760,-6729632 -12740,-6729627 -12739,-6729626 -12722,-6729619 -12695,-6729618 -12670,-6729618 -12669,-6729618 -12669,-6729626 -12551,-6729631 -12411,-6729638 -12339,-6729640 -12335,-6729659 -12334,-6729665 -12332,-6729664 -12312,-6729659 -12310,-6729659 -12292,-6729654 -12294,-6729648 -12301,-6729620 -12295,-6729618 -12289,-6729616 -12230,-6729605 -12230,-6729604 -12230,-6729600 -12163,-6729605 -11920,-6729604 -11919,-6729605 -11905,-6729608 -11828,-6729630 -11786,-6729628 -11785,-6729629 -11785,-6729624 -11786,-6729619 -11764,-6729619 -11717,-6729634 -11591,-6729635 -11568,-6729634 -11543,-6729632 -11520,-6729631 -11465,-6729597 -11411,-6729563 -11374,-6729629 -11350,-6729637 -11327,-6729643 -11297,-6729647 -11271,-6729648 -11250,-6729646 -11219,-6729640 -11172,-6729639 -11125,-6729637 -11028,-6729638 -10889,-6729643 -10849,-6729648 -10871,-6729720 -10868,-6729720 -10845,-6729720 -10838,-6729720 -10837,-6729720 -10835,-6729719 -10824,-6729715 -10803,-6729743 -10775,-6729758 -10774,-6729759 -10733,-6729772 -10708,-6729781 -10663,-6729787 -10638,-6729781 -10611,-6729716 -10610,-6729702 -10590,-6729672 -10463,-6729702 -10414,-6729734 -10346,-6729717 -10300,-6729708 -10292,-6729706 -10291,-6729746 -10291,-6729751 -10248,-6729745 -10249,-6729739 -10249,-6729722 -10248,-6729722 -10219,-6729707 -10215,-6729705 -10212,-6729710 -10209,-6729715 -10176,-6729696 -10117,-6729696 -10116,-6729697 -10113,-6729716 -9984,-6729701 -9980,-6729701 -9873,-6729689 -9837,-6729679 -9793,-6729668 -9740,-6729661 -9696,-6729656 -9635,-6729648 -9554,-6729639 -9441,-6729639 -9408,-6729641 -9390,-6729642 -9267,-6729645 -9143,-6729639 -9123,-6729638 -9055,-6729637 -8982,-6729644 -8862,-6729646 -8827,-6729645 -8811,-6729644 -8791,-6729645 -8758,-6729644 -8696,-6729640 -8578,-6729631 -8532,-6729628 -8473,-6729631 -8423,-6729635 -8415,-6729636 -8321,-6729647 -8219,-6729661 -8109,-6729673 -8031,-6729685 -8022,-6729686 -8021,-6729677 -7981,-6729681 -7956,-6729684 -7886,-6729697 -7887,-6729694 -7889,-6729685 -7885,-6729684 -7878,-6729682 -7869,-6729682 -7828,-6729677 -7753,-6729673 -7753,-6729688 -7718,-6729687 -7710,-6729686 -7606,-6729677 -7566,-6729701 -7546,-6729672 -7539,-6729672 -7525,-6729671 -7512,-6729670 -7508,-6729674 -7471,-6729723 -7463,-6729719 -7463,-6729719 -7378,-6729674 -7286,-6729667 -7260,-6729661 -7238,-6729660 -7008,-6729664 -6942,-6729666 -6812,-6729674 -6571,-6729688 -6462,-6729698 -6246,-6729710 -6188,-6729715 -6050,-6729709 -6006,-6729696 -5905,-6729658 -5898,-6729653 -5891,-6729648 -5887,-6729645 -5893,-6729635 -5894,-6729633 -5895,-6729626 -5896,-6729615 -5887,-6729612 -5887,-6729573 -5853,-6729569 -5806,-6729553 -5760,-6729536 -5731,-6729518 -5733,-6729513 -5735,-6729507 -5588,-6729439 -5556,-6729427 -5522,-6729415 -5486,-6729404 -5461,-6729395 -5432,-6729385 -5392,-6729368 -5346,-6729354 -5299,-6729337 -5046,-6729254 -4930,-6729218 -4768,-6729176 -4650,-6729142 -4611,-6729131 -4612,-6729129 -4616,-6729122 -4621,-6729115 -4624,-6729109 -4630,-6729099 -4636,-6729089 -4641,-6729079 -4646,-6729069 -4651,-6729057 -4662,-6729036 -4671,-6729014 -4680,-6728992 -4689,-6728970 -4697,-6728948 -4698,-6728945 -4751,-6728827 -4799,-6728718 -4844,-6728625 -4901,-6728522 -4985,-6728380 -5092,-6728209 -5132,-6728144 -5170,-6728083 -5222,-6728011 -5319,-6727883 -5431,-6727753 -5516,-6727654 -5536,-6727630 -5556,-6727607 -5564,-6727596 -5584,-6727572 -5596,-6727556 -5602,-6727548 -5615,-6727529 -5620,-6727520 -5625,-6727510 -5630,-6727501 -5635,-6727491 -5639,-6727481 -5643,-6727472 -5647,-6727463 -5654,-6727446 -5661,-6727429 -5667,-6727412 -5673,-6727395 -5679,-6727377 -5684,-6727359 -5686,-6727351 -5692,-6727277 -5692,-6727273 -5692,-6727268 -5692,-6727263 -5692,-6727259 -5693,-6727254 -5694,-6727250 -5694,-6727245 -5695,-6727244 -5695,-6727239 -5696,-6727235 -5697,-6727230 -5699,-6727226 -5700,-6727221 -5702,-6727217 -5704,-6727214 -5705,-6727211 -5707,-6727209 -5708,-6727206 -5710,-6727204 -5712,-6727202 -5714,-6727199 -5716,-6727197 -5718,-6727195 -5720,-6727193 -5722,-6727191 -5723,-6727189 -5736,-6727174 -5749,-6727159 -5749,-6727158 -5756,-6727151 -5763,-6727143 -5769,-6727135 -5772,-6727131 -5778,-6727123 -5784,-6727114 -5790,-6727105 -5795,-6727097 -5798,-6727091 -5800,-6727086 -5801,-6727085 -5804,-6727079 -5806,-6727073 -5809,-6727066 -5811,-6727060 -5813,-6727054 -5814,-6727052 -5816,-6727045 -5818,-6727038 -5820,-6727031 -5821,-6727024 -5823,-6727016 -5824,-6727009 -5825,-6727002 -5825,-6726998 -5831,-6726905 -5843,-6726809 -5844,-6726804 -5845,-6726766 -5890,-6726642 -5915,-6726573 -5932,-6726521 -5942,-6726478 -5950,-6726413 -5949,-6726362 -5950,-6726313 -5939,-6726258 -5923,-6726212 -5898,-6726153 -5868,-6726097 -5863,-6726089 -5855,-6726063 -5847,-6726041 -5834,-6726021 -5833,-6726019 -5814,-6725986 -5812,-6725982 -5811,-6725978 -5810,-6725975 -5809,-6725971 -5808,-6725967 -5807,-6725964 -5806,-6725960 -5805,-6725956 -5805,-6725952 -5804,-6725948 -5804,-6725944 -5804,-6725941 -5804,-6725937 -5804,-6725933 -5804,-6725929 -5804,-6725925 -5805,-6725921 -5805,-6725917 -5806,-6725914 -5807,-6725910 -5808,-6725906 -5809,-6725903 -5810,-6725899 -5811,-6725895 -5813,-6725892 -5814,-6725888 -5816,-6725884 -5818,-6725881 -5820,-6725878 -5822,-6725874 -5824,-6725871 -5826,-6725868 -5828,-6725864 -5830,-6725861 -5833,-6725858 -5836,-6725855 -5839,-6725851 -5842,-6725849 -5846,-6725846 -5850,-6725843 -5853,-6725840 -5857,-6725837 -5860,-6725833 -5863,-6725830 -5863,-6725828 -5865,-6725826 -5866,-6725824 -5870,-6725825 -5914,-6725779 -5928,-6725764 -5998,-6725698 -6044,-6725652 -6050,-6725646 -6055,-6725641 -6060,-6725635 -6065,-6725629 -6070,-6725623 -6075,-6725617 -6076,-6725616 -6081,-6725609 -6085,-6725603 -6089,-6725597 -6093,-6725590 -6097,-6725583 -6100,-6725576 -6104,-6725570 -6105,-6725567 -6109,-6725558 -6114,-6725549 -6118,-6725539 -6121,-6725530 -6125,-6725520 -6128,-6725511 -6129,-6725508 -6133,-6725496 -6137,-6725484 -6139,-6725474 -6140,-6725473 -6143,-6725461 -6145,-6725449 -6147,-6725437 -6148,-6725436 -6150,-6725424 -6154,-6725412 -6157,-6725401 -6161,-6725389 -6165,-6725378 -6169,-6725367 -6173,-6725357 -6178,-6725346 -6183,-6725335 -6185,-6725331 -6189,-6725324 -6194,-6725314 -6200,-6725303 -6207,-6725293 -6213,-6725283 -6220,-6725273 -6227,-6725263 -6234,-6725253 -6239,-6725246 -6247,-6725236 -6255,-6725225 -6264,-6725215 -6273,-6725205 -6282,-6725196 -6291,-6725186 -6301,-6725177 -6306,-6725173 -6314,-6725167 -6322,-6725160 -6330,-6725154 -6334,-6725151 -6352,-6725137 -6356,-6725134 -6360,-6725130 -6364,-6725126 -6366,-6725124 -6370,-6725119 -6374,-6725115 -6377,-6725111 -6381,-6725107 -6384,-6725103 -6387,-6725098 -6387,-6725097 -6389,-6725093 -6392,-6725089 -6394,-6725085 -6396,-6725081 -6398,-6725077 -6399,-6725072 -6401,-6725068 -6403,-6725064 -6404,-6725061 -6410,-6725047 -6415,-6725033 -6416,-6725030 -6428,-6725009 -6429,-6725005 -6431,-6725001 -6433,-6724998 -6435,-6724994 -6437,-6724990 -6440,-6724986 -6442,-6724982 -6445,-6724978 -6447,-6724975 -6450,-6724971 -6453,-6724969 -6455,-6724966 -6458,-6724964 -6461,-6724961 -6464,-6724959 -6466,-6724957 -6469,-6724955 -6470,-6724954 -6487,-6724940 -6505,-6724926 -6509,-6724923 -6598,-6724850 -6649,-6724808 -6684,-6724779 -6768,-6724708 -6777,-6724699 -6786,-6724691 -6794,-6724682 -6803,-6724674 -6811,-6724664 -6819,-6724655 -6827,-6724646 -6834,-6724636 -6841,-6724627 -6848,-6724617 -6855,-6724607 -6861,-6724597 -6867,-6724586 -6873,-6724575 -6879,-6724565 -6885,-6724554 -6890,-6724543 -6891,-6724541 -6892,-6724538 -6899,-6724525 -6908,-6724509 -6916,-6724492 -6922,-6724475 -6925,-6724463 -6926,-6724457 -6927,-6724452 -6928,-6724446 -6928,-6724440 -6929,-6724434 -6929,-6724429 -6929,-6724423 -6929,-6724417 -6929,-6724411 -6928,-6724405 -6928,-6724400 -6927,-6724394 -6926,-6724388 -6925,-6724384 -6924,-6724378 -6922,-6724373 -6921,-6724368 -6919,-6724362 -6917,-6724357 -6915,-6724352 -6913,-6724347 -6911,-6724342 -6908,-6724337 -6906,-6724332 -6903,-6724327 -6900,-6724323 -6897,-6724318 -6894,-6724313 -6891,-6724309 -6887,-6724305 -6886,-6724303 -6841,-6724223 -6816,-6724166 -6808,-6724140 -6978,-6724084 -7095,-6724044 -7147,-6724027 -7190,-6724003 -7285,-6723975 -7358,-6723952 -7431,-6723932 -7426,-6723885 -7465,-6723875 -7481,-6723871 -7496,-6723869 -7503,-6723868 -7566,-6723855 -7603,-6723846 -7650,-6723837 -7715,-6723819 -7732,-6723814 -7759,-6723807 -7786,-6723799 -7843,-6723785 -7893,-6723765 -7995,-6723750 -7996,-6723752 -8000,-6723768 -8003,-6723767 -8047,-6723756 -8052,-6723755 -8054,-6723755 -8069,-6723751 -8097,-6723759 -8128,-6723756 -8184,-6723750 -8184,-6723754 -8192,-6723753 -8193,-6723758 -8194,-6723769 -8208,-6723768 -8208,-6723762 -8234,-6723758 -8261,-6723754 -8276,-6723752 -8278,-6723764 -8284,-6723764 -8283,-6723751 -8283,-6723751 -8365,-6723741 -8368,-6723701 -8382,-6723700 -8387,-6723703 -8394,-6723707 -8429,-6723728 -8433,-6723730 -8446,-6723704 -8454,-6723687 -8484,-6723629 -8574,-6723654 -8579,-6723656 -8574,-6723666 -8626,-6723683 -8629,-6723684 -8632,-6723674 -8683,-6723688 -8683,-6723689 -8682,-6723693 -8687,-6723695 -8732,-6723706 -8786,-6723720 -8830,-6723727 -8884,-6723731 -8884,-6723737 -8998,-6723747 -9000,-6723756 -9108,-6723723 -9151,-6723707 -9214,-6723697 -9304,-6723676 -9328,-6723675 -9448,-6723663 -9536,-6723648 -9554,-6723620 -9576,-6723614 -9580,-6723613 -9644,-6723598 -9707,-6723588 -9701,-6723555 -9701,-6723551 -9686,-6723552 -9676,-6723544 -9667,-6723529 -9667,-6723515 -9728,-6723531 -9749,-6723533 -9761,-6723534 -9770,-6723534 -9782,-6723534 -9792,-6723533 -9804,-6723531 -9839,-6723522 -9864,-6723520 -9886,-6723522 -9902,-6723524 -9906,-6723525 -9921,-6723528 -9929,-6723528 -9936,-6723529 -9943,-6723530 -9951,-6723531 -9965,-6723532 -9997,-6723533 -10013,-6723532 -10026,-6723530 -10032,-6723528 -10036,-6723527 -10048,-6723524 -10055,-6723520 -10089,-6723502 -10126,-6723481 -10156,-6723468 -10170,-6723463 -10181,-6723461 -10188,-6723460 -10192,-6723460 -10197,-6723459 -10211,-6723458 -10216,-6723458 -10221,-6723457 -10225,-6723457 -10228,-6723457 -10233,-6723457 -10237,-6723457 -10242,-6723458 -10246,-6723458 -10251,-6723459 -10255,-6723459 -10257,-6723460 -10276,-6723462 -10295,-6723464 -10314,-6723467 -10318,-6723468 -10327,-6723469 -10336,-6723469 -10345,-6723469 -10355,-6723469 -10357,-6723469 -10366,-6723468 -10377,-6723466 -10410,-6723459 -10414,-6723458 -10430,-6723453 -10441,-6723447 -10494,-6723417 -10525,-6723396 -10540,-6723389 -10560,-6723391 -10563,-6723391 -10567,-6723391 -10570,-6723392 -10573,-6723392 -10576,-6723392 -10579,-6723392 -10583,-6723393 -10586,-6723393 -10589,-6723393 -10600,-6723394 -10611,-6723395 -10621,-6723397 -10632,-6723398 -10635,-6723399 -10697,-6723414 -10742,-6723429 -10747,-6723429 -10752,-6723429 -10755,-6723430 -10760,-6723430 -10765,-6723429 -10770,-6723429 -10773,-6723429 -10778,-6723428 -10784,-6723428 -10789,-6723427 -10795,-6723426 -10803,-6723424 -10811,-6723422 -10820,-6723420 -10828,-6723418 -10833,-6723416 -10857,-6723405 -10869,-6723400 -10884,-6723394 -10845,-6723278 -10785,-6723094 -10780,-6723074 -10768,-6723032 -10760,-6723016 -10751,-6722996 -10733,-6722942 -10724,-6722923 -10708,-6722891 -10696,-6722871 -10689,-6722863 -10723,-6722824 -10918,-6722585 -10988,-6722498 -11022,-6722456 -11207,-6722231 -11282,-6722148 -11473,-6721952 -11608,-6721817 -11617,-6721810 -11619,-6721811 -11625,-6721821 -11641,-6721809 -11671,-6721785 -11819,-6721947 -11867,-6721999 -11897,-6722036 -11910,-6722052 -11945,-6722089 -11976,-6722128 -11994,-6722159 -12002,-6722171 -12055,-6722237 -12066,-6722251 -12088,-6722276 -12110,-6722300 -12115,-6722305 -12137,-6722326 -12165,-6722351 -12279,-6722463 -12317,-6722493 -12321,-6722497 -12422,-6722577 -12803,-6722849 -12803,-6722856 -12804,-6722860 -12809,-6722862 -12817,-6722867 -12816,-6722895 -12814,-6722983 -12814,-6722999 -12821,-6723003 -12855,-6723025 -12866,-6723036 -12865,-6723037 -12844,-6723085 -12882,-6723110 -12921,-6723137 -12924,-6723139 -12864,-6723207 -12890,-6723252 -12975,-6723350 -13042,-6723431 -13071,-6723470 -13086,-6723489 -13110,-6723496 -13158,-6723509 -13229,-6723528 -13251,-6723529 -13307,-6723532 -13298,-6723539 -13232,-6723593 -13231,-6723594 -13259,-6723623 -13273,-6723638 -13270,-6723641 -13287,-6723688 -13304,-6723733 -13307,-6723733 -13316,-6723732 -13347,-6723724 -13551,-6723646 -13553,-6723653 -13555,-6723652 -13619,-6723625 -13623,-6723636 -13719,-6723585 -13737,-6723585 -13757,-6723583 -13775,-6723581 -13781,-6723575 -13783,-6723572 -13796,-6723555 -13814,-6723535 -13832,-6723524 -13845,-6723525 -13857,-6723527 -13862,-6723527 -13865,-6723511 -13870,-6723490 -13880,-6723486 -13898,-6723480 -13923,-6723476 -13965,-6723470 -14040,-6723467 -14049,-6723471 -14082,-6723481 -14101,-6723485 -14109,-6723486 -14148,-6723483 -14189,-6723490 -14330,-6723451 -14399,-6723435 -14441,-6723428 -14527,-6723409 -14582,-6723396 -14601,-6723392 -14623,-6723385 -14648,-6723371 -14661,-6723362 -14681,-6723351 -14730,-6723328 -14767,-6723313 -14780,-6723307 -14800,-6723296 -14815,-6723287 -14846,-6723263 -14850,-6723260 -14938,-6723183 -15046,-6723089 -15053,-6723084 -15092,-6723058 -15125,-6723038 -15155,-6723020 -15197,-6722984 -15214,-6722971 -15235,-6722958 -15279,-6722935 -15314,-6722915 -15367,-6722874 -15397,-6722854 -15406,-6722848 -15409,-6722846 -15434,-6722829 -15454,-6722806 -15481,-6722784 -15525,-6722746 -15639,-6722653 -15660,-6722638 -15683,-6722630 -15758,-6722614 -15823,-6722594 -15850,-6722589 -15850,-6722617 -15851,-6722617 -16011,-6722731 -16044,-6722746 -16073,-6722761 -16094,-6722770 -16152,-6722785 -16263,-6722826 -16371,-6722857 -16479,-6722890 -16601,-6722941 -16644,-6722962 -16670,-6722980 -16707,-6723017 -16734,-6723028 -16826,-6723036 -16996,-6723052 -17132,-6723069 -17295,-6723092 -17472,-6723118 -17681,-6723139 -17787,-6723210 -17826,-6723233 -17829,-6723235 -17832,-6723236 -17835,-6723238 -17838,-6723239 -17842,-6723241 -17845,-6723242 -17845,-6723242 -17849,-6723243 -17852,-6723244 -17855,-6723245 -17858,-6723245 -17862,-6723246 -17865,-6723247 -17869,-6723247 -17869,-6723247 -17873,-6723247 -17876,-6723247 -17879,-6723247 -17882,-6723247 -17886,-6723247 -17889,-6723246 -17892,-6723246 -17896,-6723245 -17899,-6723245 -17901,-6723245 -17912,-6723243 -17922,-6723242 -17933,-6723240 -17943,-6723238 -17953,-6723235 -17964,-6723233 -17974,-6723230 -17981,-6723228 -18098,-6723206 -18185,-6723199 -18253,-6723194 -18263,-6723194 -18273,-6723194 -18282,-6723194 -18287,-6723194 -18296,-6723195 -18306,-6723196 -18315,-6723197 -18319,-6723197 -18324,-6723198 -18328,-6723200 -18332,-6723201 -18336,-6723203 -18340,-6723204 -18344,-6723206 -18349,-6723208 -18353,-6723209 -18355,-6723210 -18395,-6723223 -18435,-6723236 -18450,-6723240 -18463,-6723238 -18471,-6723237 -18500,-6723246 -18511,-6723259 -18542,-6723271 -18571,-6723278 -18599,-6723280 -18629,-6723278 -18748,-6723264 -18826,-6723257 -18911,-6723243 -18915,-6723242 -18977,-6723220 -19033,-6723199 -19064,-6723181 -19059,-6723287 -19053,-6723393 -19028,-6723397 -18986,-6723407 -18915,-6723434 -18864,-6723459 -18863,-6723463 -18864,-6723503 -18861,-6723554 -18862,-6723590 -18866,-6723622 -18875,-6723723 -18880,-6723784 -18871,-6723781 -18875,-6723883 -18894,-6723892 -18886,-6723924 -18879,-6723960 -18873,-6723986 -18861,-6724024 -18849,-6724073 -18848,-6724076 -18730,-6723999 -18708,-6723987 -18671,-6724063 -18658,-6724088 -18637,-6724138 -18629,-6724156 -18596,-6724217 -18606,-6724219 -18627,-6724225 -18623,-6724232 -18610,-6724254 -18593,-6724275 -18569,-6724296 -18571,-6724321 -18589,-6724477 -18596,-6724478 -18597,-6724642 -18602,-6724642 -18611,-6724643 -18612,-6724648 -18613,-6724664 -18611,-6724738 -18611,-6724770 -18603,-6724813 -18594,-6724851 -18589,-6724863 -18582,-6724877 -18576,-6724887 -18575,-6724888 -18500,-6724903 -18517,-6724925 -18516,-6724927 -18491,-6724979 -18450,-6725065 -18448,-6725114 -18387,-6725153 -18354,-6725172 -18366,-6725180 -18370,-6725182 -18350,-6725211 -18323,-6725243 -18308,-6725246 -18288,-6725249 -18232,-6725305 -18225,-6725313 -18219,-6725307 -18218,-6725308 -18212,-6725310 -18206,-6725303 -18206,-6725303 -18204,-6725301 -18166,-6725318 -18106,-6725335 -18087,-6725346 -18063,-6725365 -18037,-6725388 -18021,-6725409 -17966,-6725473 -17958,-6725482 -17944,-6725497 -17931,-6725496 -17903,-6725467 -17868,-6725429 -17838,-6725397 -17814,-6725376 -17795,-6725359 -17768,-6725336 -17761,-6725344 -17719,-6725394 -17581,-6725565 -17577,-6725647 -17576,-6725651 -17515,-6725648 -17494,-6725648 -17495,-6725649 -17509,-6725682 -17522,-6725714 -17549,-6725717 -17664,-6725725 -17665,-6725820 -17663,-6725865 -17663,-6725885 -17663,-6725891 -17658,-6725891 -17655,-6725891 -17655,-6725895 -17655,-6725895 -17656,-6725936 -17656,-6725966 -17838,-6725967 -17818,-6725989 -17819,-6726008 -17819,-6726008 -17818,-6726050 -17817,-6726085 -17816,-6726150 -17824,-6726149 -17824,-6726162 -17823,-6726187 -17824,-6726212 -17827,-6726274 -17782,-6726279 -17789,-6726349 -17791,-6726366 -17786,-6726398 -17780,-6726423 -17763,-6726507 -17750,-6726612 -17736,-6726611 -17716,-6726631 -17704,-6726639 -17668,-6726669 -17664,-6726678 -17662,-6726684 -17662,-6726697 -17662,-6726700 -17676,-6726736 -17681,-6726755 -17772,-6726735 -17783,-6726779 -17787,-6726805 -17791,-6726825 -17827,-6726937 -17830,-6726951 -17833,-6726972 -17833,-6726997 -17837,-6727017 -17852,-6727060 -17862,-6727084 -17885,-6727122 -17916,-6727195 -17922,-6727245 -17931,-6727278 -17974,-6727456 -17999,-6727554 -18004,-6727586 -18006,-6727610 -18005,-6727654 -18007,-6727669 -18006,-6727679 -18005,-6727690 -18000,-6727705 -17800,-6728162 -17662,-6728487 -17667,-6728495 -17504,-6728864 -17449,-6729003 -17426,-6729040 -17407,-6729079 -17403,-6729081 -17361,-6729097 -17378,-6729070 -17380,-6729054 -17381,-6729044 -17379,-6729037 -17378,-6729034 -17297,-6728960 -17281,-6728946 -17272,-6728936 -17228,-6728885 -17212,-6728862 -17204,-6728851 -17190,-6728821 -17140,-6728735 -17094,-6728659 -17063,-6728601 -17071,-6728495 -17076,-6728421 -17077,-6728362 -17081,-6728298 -17080,-6728277 -17077,-6728246 -17053,-6728091 -17042,-6728039 -17032,-6727983 -17020,-6727952 -16924,-6727812 -16875,-6727705 -16867,-6727689 -16849,-6727664 -16848,-6727663 -16560,-6727832 -16446,-6727897 -16407,-6727917 -16417,-6727945 -16361,-6727977 -16325,-6727997 -16149,-6728104 -16082,-6728144 -16085,-6728160 -16085,-6728196 -16081,-6728220 -16049,-6728320 -16030,-6728342 -16017,-6728362 -16014,-6728368 -16007,-6728388 -15980,-6728436 -15967,-6728470 -15944,-6728517 -15936,-6728550 -15933,-6728560 -15928,-6728568 -15922,-6728575 -15861,-6728651 -15831,-6728691 -15824,-6728699 -15820,-6728710 -15817,-6728743 -15808,-6728785 -15807,-6728799 -15808,-6728888 -15814,-6728944 -15828,-6729001 -15840,-6729026 -15849,-6729040 -15877,-6729097 -15896,-6729149 -15906,-6729173 -15909,-6729183 -15927,-6729258 -15933,-6729300 -15949,-6729436 -15961,-6729507 -15961,-6729517 -15963,-6729538 -15966,-6729596 -15966,-6729706 -15896,-6729743 -15708,-6729830 -15446,-6729948 -15329,-6729989 -15158,-6730058 -15132,-6730073 -15081,-6730108 -15056,-6730131 -15021,-6730126 -14834,-6730053 -14671,-6729986 -14615,-6729973 -14569,-6729948 -14439,-6729877 -14323,-6729831 -14235,-6729813" stroke="#003087" stroke-width="22" /></svg>