<?xml version="1.0" standalone="no"?>
<!DOCTYPE svg PUBLIC "-//W3C//DTD SVG 1.1//EN"
"http://www.w3.org/Graphics/SVG/1.1/DTD/svg11.dtd">
<svg height="115" version="1.1" viewBox="-6929 -6736463 9794 17311" width="220" xmlns="http://www.w3.org/2000/svg"><polygon fill="#003087" points=" -887,-6736427 -846,-6736408 -817,-6736398 -859,-6736341 -889,-6736283 -880,-6736272 -884,-6736240 -886,-6736232 -889,-6736224 -915,-6736186 -926,-6736132 -940,-6736099 -921,-6736099 -922,-6736062 -921,-6736037 -919,-6736000 -919,-6735967 -920,-6735949 -911,-6735940 -905,-6735935 -891,-6735927 -879,-6735923 -810,-6735910 -741,-6735890 -693,-6735889 -670,-6735888 -643,-6735892 -627,-6735895 -611,-6735898 -507,-6735927 -492,-6735888 -489,-6735874 -486,-6735866 -483,-6735861 -468,-6735841 -453,-6735807 -443,-6735780 -406,-6735800 -325,-6735852 -237,-6735901 -202,-6735920 -120,-6735952 -95,-6735957 -55,-6735958 -31,-6735945 -50,-6735926 -42,-6735917 -38,-6735912 -31,-6735898 -29,-6735892 -28,-6735876 10,-6735767 22,-6735730 41,-6735693 54,-6735674 67,-6735655 91,-6735626 104,-6735615 118,-6735608 139,-6735608 162,-6735607 184,-6735593 234,-6735588 284,-6735591 312,-6735590 331,-6735586 335,-6735580 357,-6735580 389,-6735589 393,-6735569 479,-6735569 565,-6735575 610,-6735579 652,-6735587 683,-6735590 713,-6735588 729,-6735588 737,-6735588 784,-6735578 824,-6735577 937,-6735556 998,-6735548 1078,-6735554 1090,-6735554 1101,-6735552 1117,-6735548 1197,-6735537 1230,-6735527 1243,-6735521 1275,-6735506 1281,-6735503 1290,-6735502 1306,-6735502 1355,-6735497 1388,-6735491 1425,-6735481 1500,-6735450 1557,-6735442 1576,-6735440 1608,-6735421 1628,-6735412 1655,-6735403 1684,-6735397 1762,-6735370 1825,-6735355 1870,-6735346 1939,-6735339 2017,-6735340 2154,-6735353 2235,-6735372 2430,-6735458 2529,-6735492 2530,-6735487 2545,-6735392 2561,-6735301 2556,-6735206 2558,-6735064 2566,-6734919 2569,-6734883 2666,-6734853 2750,-6734835 2774,-6734833 2783,-6734818 2800,-6734806 2785,-6734778 2776,-6734756 2769,-6734739 2764,-6734722 2761,-6734705 2759,-6734686 2751,-6734636 2750,-6734613 2750,-6734584 2753,-6734568 2756,-6734551 2761,-6734536 2779,-6734492 2782,-6734485 2807,-6734440 2832,-6734400 2857,-6734364 2865,-6734317 2846,-6734285 2829,-6734233 2784,-6734121 2740,-6734030 2724,-6733979 2708,-6733927 2679,-6733826 2657,-6733728 2654,-6733708 2660,-6733701 2653,-6733667 2659,-6733662 2663,-6733660 2659,-6733642 2643,-6733629 2505,-6733462 2466,-6733397 2428,-6733289 2403,-6733308 2379,-6733324 2377,-6733322 2370,-6733312 2383,-6733301 2379,-6733292 2376,-6733291 2371,-6733288 2360,-6733294 2343,-6733307 2336,-6733305 2334,-6733291 2328,-6733281 2328,-6733265 2335,-6733244 2347,-6733227 2353,-6733214 2353,-6733204 2351,-6733198 2351,-6733195 2344,-6733197 2338,-6733199 2317,-6733192 2303,-6733193 2301,-6733189 2300,-6733187 2304,-6733177 2303,-6733165 2291,-6733139 2291,-6733129 2290,-6733114 2281,-6733091 2280,-6733082 2288,-6733071 2290,-6733057 2295,-6733043 2295,-6733033 2292,-6733022 2287,-6733015 2282,-6733010 2275,-6733007 2261,-6733009 2255,-6733002 2220,-6732965 2220,-6732959 2220,-6732959 2220,-6732952 2220,-6732940 2220,-6732929 2220,-6732922 2244,-6732890 2244,-6732888 2244,-6732884 2244,-6732877 2240,-6732864 2236,-6732858 2236,-6732832 2236,-6732822 2221,-6732805 2207,-6732799 2202,-6732793 2205,-6732773 2206,-6732773 2205,-6732772 2206,-6732768 2185,-6732746 2169,-6732730 2163,-6732715 2167,-6732703 2167,-6732686 2170,-6732674 2170,-6732664 2164,-6732643 2131,-6732608 2147,-6732594 2147,-6732591 2145,-6732586 2133,-6732581 2120,-6732575 2119,-6732558 2118,-6732474 2099,-6732453 2075,-6732455 2071,-6732451 2071,-6732440 2075,-6732432 2089,-6732431 2095,-6732417 2090,-6732396 2092,-6732387 2097,-6732378 2106,-6732371 2118,-6732380 2123,-6732377 2124,-6732366 2122,-6732360 2113,-6732353 2107,-6732350 2102,-6732348 2094,-6732347 2080,-6732346 2067,-6732344 2057,-6732339 2058,-6732330 2070,-6732317 2083,-6732314 2090,-6732306 2096,-6732297 2098,-6732286 2096,-6732279 2090,-6732272 2076,-6732259 2068,-6732231 2062,-6732217 2058,-6732208 2049,-6732198 2038,-6732190 2035,-6732186 2028,-6732176 2013,-6732163 1996,-6732149 1972,-6732129 1958,-6732120 1946,-6732121 1943,-6732122 1933,-6732135 1922,-6732135 1913,-6732132 1903,-6732130 1898,-6732127 1896,-6732127 1897,-6732125 1905,-6732107 1906,-6732089 1907,-6732083 1905,-6732072 1902,-6732066 1898,-6732061 1893,-6732056 1889,-6732053 1845,-6732036 1813,-6732031 1805,-6732024 1810,-6732001 1809,-6731997 1808,-6731994 1797,-6731976 1796,-6731974 1798,-6731969 1801,-6731968 1806,-6731967 1812,-6731963 1815,-6731959 1816,-6731944 1811,-6731936 1800,-6731925 1784,-6731917 1783,-6731917 1782,-6731912 1764,-6731871 1763,-6731869 1746,-6731869 1738,-6731861 1731,-6731857 1727,-6731857 1700,-6731864 1699,-6731861 1699,-6731853 1686,-6731839 1676,-6731826 1654,-6731805 1641,-6731786 1631,-6731780 1615,-6731778 1610,-6731777 1600,-6731765 1596,-6731760 1610,-6731740 1623,-6731719 1633,-6731696 1640,-6731661 1641,-6731624 1636,-6731600 1617,-6731509 1598,-6731505 1583,-6731503 1560,-6731506 1409,-6731539 1365,-6731543 1319,-6731544 1277,-6731544 1249,-6731538 1213,-6731535 1191,-6731517 1170,-6731530 1157,-6731542 1152,-6731546 1141,-6731554 1139,-6731555 1138,-6731546 1129,-6731537 1128,-6731536 1116,-6731540 1107,-6731540 1105,-6731540 1103,-6731544 1097,-6731553 1085,-6731557 1076,-6731560 1055,-6731556 1007,-6731559 968,-6731540 1005,-6731523 1015,-6731518 1184,-6731442 1508,-6731301 1639,-6731240 1703,-6731207 1761,-6731178 1788,-6731156 1798,-6731149 1812,-6731141 2291,-6730432 2345,-6730354 2366,-6730320 2370,-6730313 2375,-6730299 2381,-6730278 2382,-6730249 2382,-6730228 2379,-6730197 2374,-6730169 2360,-6730125 2382,-6730118 2361,-6730048 2346,-6730011 2322,-6730021 2297,-6729961 2305,-6729943 2276,-6729873 2270,-6729861 2250,-6729873 2212,-6729752 2193,-6729721 2189,-6729711 2177,-6729687 2181,-6729685 2191,-6729682 2187,-6729669 2183,-6729653 2174,-6729620 2171,-6729601 2163,-6729600 2144,-6729597 2144,-6729595 2152,-6729568 2165,-6729518 2179,-6729485 2167,-6729492 2131,-6729517 2129,-6729513 2085,-6729404 2037,-6729290 2005,-6729205 2021,-6729197 2013,-6729191 2004,-6729176 2005,-6729163 1946,-6729084 1943,-6729080 1940,-6729072 1916,-6729027 1900,-6728991 1754,-6728669 1652,-6728438 1577,-6728289 1535,-6728187 1494,-6728101 1475,-6728048 1449,-6727979 1439,-6727951 1434,-6727832 1426,-6727708 1414,-6727568 1405,-6727476 1406,-6727389 1398,-6727289 1386,-6727189 1384,-6727165 1380,-6727137 1378,-6727118 1377,-6727107 1376,-6727099 1372,-6727066 1359,-6726947 1358,-6726934 1353,-6726865 1348,-6726811 1348,-6726714 1360,-6726715 1360,-6726708 1368,-6726690 1366,-6726623 1369,-6726607 1369,-6726588 1389,-6726556 1382,-6726499 1382,-6726464 1393,-6726395 1395,-6726294 1402,-6726206 1408,-6726148 1414,-6726083 1431,-6725901 1441,-6725784 1453,-6725613 1465,-6725506 1480,-6725355 1486,-6725272 1491,-6725215 1572,-6725148 1657,-6725146 1728,-6725143 1718,-6725067 1715,-6725025 1717,-6724991 1700,-6724987 1714,-6724932 1725,-6724905 1731,-6724891 1747,-6724871 1720,-6724855 1709,-6724849 1698,-6724843 1781,-6724560 1825,-6724415 1852,-6724392 1935,-6724106 1941,-6724081 1937,-6723911 1931,-6723800 1934,-6723712 1935,-6723629 1938,-6723569 1938,-6723536 1930,-6723507 1917,-6723483 1876,-6723392 1835,-6723305 1822,-6723267 1835,-6723264 1859,-6723258 1902,-6723239 1930,-6723225 1948,-6723210 1965,-6723187 1982,-6723160 1994,-6723136 2008,-6723108 2091,-6723159 2105,-6723167 2106,-6723149 2112,-6723059 2120,-6722902 2125,-6722804 2132,-6722718 2126,-6722713 2099,-6722721 2075,-6722738 2055,-6722755 2045,-6722765 2034,-6722769 2024,-6722769 2003,-6722764 1983,-6722760 1974,-6722755 1969,-6722746 1972,-6722735 1996,-6722650 2023,-6722548 2053,-6722442 2069,-6722360 2069,-6722359 2107,-6722244 2111,-6722233 2114,-6722223 2116,-6722212 2118,-6722201 2119,-6722199 2120,-6722188 2121,-6722177 2121,-6722166 2120,-6722155 2119,-6722144 2118,-6722139 2116,-6722130 2113,-6722121 2110,-6722112 2106,-6722103 2102,-6722094 2098,-6722085 2098,-6722085 2090,-6722070 2083,-6722056 2060,-6722030 2044,-6722013 2023,-6721997 2003,-6721984 1979,-6721973 1952,-6721965 1914,-6721959 1840,-6721960 1739,-6721957 1609,-6721958 1612,-6721889 1601,-6721797 1596,-6721742 1593,-6721653 1591,-6721629 1587,-6721569 1582,-6721489 1583,-6721357 1581,-6721276 1581,-6721275 1582,-6721192 1614,-6721016 1645,-6720855 1673,-6720855 1715,-6720850 1742,-6720845 1760,-6720840 1778,-6720834 1792,-6720829 1815,-6720817 1850,-6720791 1871,-6720774 1910,-6720740 1978,-6720671 1993,-6720649 2009,-6720631 2021,-6720615 2034,-6720596 2078,-6720547 2121,-6720495 2200,-6720381 2236,-6720324 2267,-6720287 2376,-6720091 2366,-6720085 2399,-6720038 2237,-6719954 2155,-6719914 2160,-6719899 2071,-6719860 1999,-6719808 1889,-6719735 1864,-6719772 1812,-6719742 1780,-6719802 1750,-6719856 1742,-6719872 1625,-6720052 1553,-6720012 1296,-6719866 1239,-6719952 1074,-6719780 1207,-6719570 1153,-6719515 1127,-6719489 1076,-6719448 1061,-6719424 1055,-6719414 1061,-6719386 910,-6719355 859,-6719348 844,-6719345 762,-6719322 646,-6719281 615,-6719283 625,-6719314 639,-6719359 644,-6719386 647,-6719435 649,-6719463 649,-6719464 641,-6719498 587,-6719492 585,-6719492 579,-6719547 553,-6719545 557,-6719504 557,-6719504 430,-6719488 427,-6719511 425,-6719520 399,-6719513 362,-6719504 356,-6719517 346,-6719540 280,-6719523 236,-6719515 144,-6719503 39,-6719486 -36,-6719473 -102,-6719454 -121,-6719448 -175,-6719429 -290,-6719379 -404,-6719329 -422,-6719371 -560,-6719307 -632,-6719268 -663,-6719252 -698,-6719237 -775,-6719213 -889,-6719174 -930,-6719158 -948,-6719152 -962,-6719152 -963,-6719152 -971,-6719156 -986,-6719219 -1003,-6719276 -1014,-6719325 -1017,-6719361 -1018,-6719392 -1017,-6719438 -1020,-6719466 -1024,-6719487 -1051,-6719562 -1085,-6719582 -1106,-6719595 -1135,-6719615 -1155,-6719627 -1162,-6719630 -1176,-6719634 -1189,-6719636 -1202,-6719635 -1209,-6719634 -1234,-6719620 -1300,-6719589 -1312,-6719583 -1374,-6719562 -1437,-6719540 -1460,-6719533 -1484,-6719527 -1514,-6719520 -1598,-6719501 -1744,-6719472 -1883,-6719448 -1885,-6719423 -1886,-6719416 -1904,-6719413 -1905,-6719423 -1908,-6719447 -1908,-6719450 -1909,-6719465 -1910,-6719471 -1923,-6719592 -1945,-6719772 -1964,-6719832 -1978,-6719875 -1995,-6719919 -2009,-6719896 -2053,-6720092 -2092,-6720121 -2129,-6720148 -2269,-6720252 -2309,-6720282 -2438,-6720375 -2507,-6720427 -2561,-6720467 -2567,-6720468 -2618,-6720478 -2659,-6720484 -2665,-6720485 -2666,-6720529 -2676,-6720584 -2691,-6720650 -2699,-6720684 -2710,-6720715 -2718,-6720731 -2729,-6720754 -2741,-6720773 -2753,-6720789 -2774,-6720819 -2795,-6720847 -2839,-6720900 -2879,-6720942 -2913,-6720967 -2932,-6720981 -2947,-6720992 -2986,-6721021 -3061,-6721076 -3101,-6721100 -3128,-6721118 -3175,-6721147 -3244,-6721185 -3267,-6721192 -3290,-6721195 -3305,-6721197 -3309,-6721198 -3313,-6721198 -3341,-6721200 -3348,-6721199 -3349,-6721199 -3355,-6721198 -3362,-6721197 -3369,-6721196 -3370,-6721196 -3377,-6721194 -3383,-6721193 -3390,-6721191 -3397,-6721189 -3403,-6721187 -3410,-6721185 -3417,-6721183 -3423,-6721180 -3429,-6721177 -3433,-6721175 -3439,-6721172 -3446,-6721169 -3452,-6721166 -3458,-6721162 -3464,-6721159 -3469,-6721155 -3524,-6721119 -3578,-6721092 -3622,-6721077 -3656,-6721068 -3704,-6721067 -3727,-6721070 -3745,-6721075 -3768,-6721084 -3811,-6721111 -3862,-6721147 -3882,-6721163 -3896,-6721171 -3922,-6721184 -4006,-6721216 -4050,-6721225 -4072,-6721226 -4081,-6721225 -4095,-6721224 -4111,-6721220 -4125,-6721216 -4142,-6721210 -4191,-6721182 -4221,-6721173 -4242,-6721168 -4267,-6721164 -4281,-6721163 -4307,-6721164 -4320,-6721163 -4336,-6721165 -4350,-6721175 -4364,-6721191 -4380,-6721209 -4419,-6721246 -4439,-6721262 -4458,-6721274 -4471,-6721275 -4484,-6721274 -4502,-6721271 -4517,-6721267 -4532,-6721263 -4569,-6721244 -4640,-6721214 -4659,-6721208 -4693,-6721203 -4715,-6721200 -4732,-6721202 -4751,-6721209 -4760,-6721213 -4825,-6721242 -4865,-6721263 -4911,-6721266 -4935,-6721262 -4947,-6721260 -4977,-6721258 -5017,-6721270 -5045,-6721301 -5084,-6721355 -5087,-6721358 -5124,-6721369 -5181,-6721382 -5182,-6721383 -5186,-6721384 -5190,-6721386 -5194,-6721387 -5198,-6721389 -5202,-6721391 -5206,-6721393 -5210,-6721395 -5214,-6721397 -5218,-6721399 -5219,-6721400 -5222,-6721402 -5224,-6721403 -5227,-6721405 -5229,-6721407 -5232,-6721409 -5234,-6721411 -5237,-6721413 -5239,-6721415 -5241,-6721417 -5243,-6721419 -5245,-6721421 -5247,-6721424 -5249,-6721426 -5249,-6721426 -5251,-6721429 -5253,-6721432 -5255,-6721434 -5256,-6721437 -5258,-6721440 -5259,-6721443 -5260,-6721446 -5261,-6721449 -5262,-6721452 -5263,-6721455 -5264,-6721458 -5265,-6721461 -5265,-6721464 -5266,-6721466 -5266,-6721469 -5266,-6721473 -5267,-6721476 -5267,-6721480 -5267,-6721483 -5266,-6721487 -5266,-6721490 -5266,-6721494 -5265,-6721497 -5264,-6721501 -5264,-6721504 -5263,-6721507 -5262,-6721510 -5262,-6721512 -5261,-6721514 -5260,-6721517 -5259,-6721520 -5257,-6721524 -5256,-6721527 -5254,-6721530 -5253,-6721533 -5251,-6721536 -5232,-6721567 -5212,-6721602 -5212,-6721603 -5209,-6721607 -5207,-6721610 -5204,-6721614 -5202,-6721618 -5200,-6721622 -5198,-6721626 -5197,-6721628 -5196,-6721631 -5194,-6721635 -5193,-6721638 -5192,-6721641 -5191,-6721644 -5190,-6721648 -5189,-6721651 -5188,-6721654 -5187,-6721658 -5187,-6721661 -5186,-6721665 -5186,-6721666 -5186,-6721671 -5186,-6721676 -5186,-6721681 -5186,-6721686 -5187,-6721690 -5187,-6721695 -5188,-6721700 -5189,-6721703 -5190,-6721708 -5191,-6721713 -5192,-6721718 -5194,-6721722 -5195,-6721727 -5198,-6721739 -5203,-6721747 -5206,-6721753 -5210,-6721764 -5282,-6721883 -5290,-6721893 -5303,-6721908 -5367,-6721970 -5374,-6721978 -5388,-6721995 -5403,-6722014 -5447,-6722071 -5457,-6722087 -5468,-6722100 -5546,-6722182 -5612,-6722247 -5639,-6722292 -5650,-6722305 -5657,-6722312 -5693,-6722338 -5694,-6722338 -5778,-6722386 -5877,-6722458 -5914,-6722491 -5929,-6722507 -5939,-6722521 -5956,-6722568 -6027,-6722759 -6040,-6722781 -6057,-6722800 -6070,-6722811 -6083,-6722821 -6096,-6722828 -6117,-6722835 -6152,-6722843 -6183,-6722842 -6206,-6722844 -6216,-6722846 -6232,-6722855 -6250,-6722866 -6275,-6722888 -6300,-6722924 -6316,-6722989 -6354,-6723035 -6408,-6723086 -6478,-6723162 -6501,-6723198 -6503,-6723208 -6508,-6723232 -6512,-6723273 -6519,-6723320 -6536,-6723373 -6536,-6723375 -6549,-6723419 -6573,-6723475 -6606,-6723540 -6641,-6723630 -6647,-6723646 -6676,-6723717 -6685,-6723750 -6713,-6723850 -6753,-6723971 -6787,-6724075 -6808,-6724140 -6816,-6724166 -6841,-6724223 -6886,-6724303 -6887,-6724305 -6891,-6724309 -6894,-6724313 -6897,-6724318 -6900,-6724323 -6903,-6724327 -6906,-6724332 -6908,-6724337 -6911,-6724342 -6913,-6724347 -6915,-6724352 -6917,-6724357 -6919,-6724362 -6921,-6724368 -6922,-6724373 -6924,-6724378 -6925,-6724384 -6926,-6724388 -6927,-6724394 -6928,-6724400 -6928,-6724405 -6929,-6724411 -6929,-6724417 -6929,-6724423 -6929,-6724429 -6929,-6724434 -6928,-6724440 -6928,-6724446 -6927,-6724452 -6926,-6724457 -6925,-6724463 -6922,-6724475 -6916,-6724492 -6908,-6724509 -6899,-6724525 -6892,-6724538 -6891,-6724541 -6890,-6724543 -6885,-6724554 -6879,-6724565 -6873,-6724575 -6867,-6724586 -6861,-6724597 -6855,-6724607 -6848,-6724617 -6841,-6724627 -6834,-6724636 -6827,-6724646 -6819,-6724655 -6811,-6724664 -6803,-6724674 -6794,-6724682 -6786,-6724691 -6777,-6724699 -6768,-6724708 -6684,-6724779 -6649,-6724808 -6598,-6724850 -6509,-6724923 -6505,-6724926 -6487,-6724940 -6470,-6724954 -6469,-6724955 -6466,-6724957 -6464,-6724959 -6461,-6724961 -6458,-6724964 -6455,-6724966 -6453,-6724969 -6450,-6724971 -6447,-6724975 -6445,-6724978 -6442,-6724982 -6440,-6724986 -6437,-6724990 -6435,-6724994 -6433,-6724998 -6431,-6725001 -6429,-6725005 -6428,-6725009 -6416,-6725030 -6415,-6725033 -6410,-6725047 -6404,-6725061 -6403,-6725064 -6401,-6725068 -6399,-6725072 -6398,-6725077 -6396,-6725081 -6394,-6725085 -6392,-6725089 -6389,-6725093 -6387,-6725097 -6387,-6725098 -6384,-6725103 -6381,-6725107 -6377,-6725111 -6374,-6725115 -6370,-6725119 -6366,-6725124 -6364,-6725126 -6360,-6725130 -6356,-6725134 -6352,-6725137 -6334,-6725151 -6330,-6725154 -6322,-6725160 -6314,-6725167 -6306,-6725173 -6301,-6725177 -6291,-6725186 -6282,-6725196 -6273,-6725205 -6264,-6725215 -6255,-6725225 -6247,-6725236 -6239,-6725246 -6234,-6725253 -6227,-6725263 -6220,-6725273 -6213,-6725283 -6207,-6725293 -6200,-6725303 -6194,-6725314 -6189,-6725324 -6185,-6725331 -6183,-6725335 -6178,-6725346 -6173,-6725357 -6169,-6725367 -6165,-6725378 -6161,-6725389 -6157,-6725401 -6154,-6725412 -6150,-6725424 -6148,-6725436 -6147,-6725437 -6145,-6725449 -6143,-6725461 -6140,-6725473 -6139,-6725474 -6137,-6725484 -6133,-6725496 -6129,-6725508 -6128,-6725511 -6125,-6725520 -6121,-6725530 -6118,-6725539 -6114,-6725549 -6109,-6725558 -6105,-6725567 -6104,-6725570 -6100,-6725576 -6097,-6725583 -6093,-6725590 -6089,-6725597 -6085,-6725603 -6081,-6725609 -6076,-6725616 -6075,-6725617 -6070,-6725623 -6065,-6725629 -6060,-6725635 -6055,-6725641 -6050,-6725646 -6044,-6725652 -5998,-6725698 -5928,-6725764 -5914,-6725779 -5870,-6725825 -5866,-6725824 -5865,-6725826 -5863,-6725828 -5863,-6725830 -5860,-6725833 -5857,-6725837 -5853,-6725840 -5850,-6725843 -5846,-6725846 -5842,-6725849 -5839,-6725851 -5836,-6725855 -5833,-6725858 -5830,-6725861 -5828,-6725864 -5826,-6725868 -5824,-6725871 -5822,-6725874 -5820,-6725878 -5818,-6725881 -5816,-6725884 -5814,-6725888 -5813,-6725892 -5811,-6725895 -5810,-6725899 -5809,-6725903 -5808,-6725906 -5807,-6725910 -5806,-6725914 -5805,-6725917 -5805,-6725921 -5804,-6725925 -5804,-6725929 -5804,-6725933 -5804,-6725937 -5804,-6725941 -5804,-6725944 -5804,-6725948 -5805,-6725952 -5805,-6725956 -5806,-6725960 -5807,-6725964 -5808,-6725967 -5809,-6725971 -5810,-6725975 -5811,-6725978 -5812,-6725982 -5814,-6725986 -5833,-6726019 -5834,-6726021 -5847,-6726041 -5855,-6726063 -5863,-6726089 -5868,-6726097 -5898,-6726153 -5923,-6726212 -5939,-6726258 -5950,-6726313 -5949,-6726362 -5950,-6726413 -5942,-6726478 -5932,-6726521 -5915,-6726573 -5890,-6726642 -5845,-6726766 -5844,-6726804 -5843,-6726809 -5831,-6726905 -5825,-6726998 -5825,-6727002 -5824,-6727009 -5823,-6727016 -5821,-6727024 -5820,-6727031 -5818,-6727038 -5816,-6727045 -5814,-6727052 -5813,-6727054 -5811,-6727060 -5809,-6727066 -5806,-6727073 -5804,-6727079 -5801,-6727085 -5800,-6727086 -5798,-6727091 -5795,-6727097 -5790,-6727105 -5784,-6727114 -5778,-6727123 -5772,-6727131 -5769,-6727135 -5763,-6727143 -5756,-6727151 -5749,-6727158 -5749,-6727159 -5736,-6727174 -5723,-6727189 -5722,-6727191 -5720,-6727193 -5718,-6727195 -5716,-6727197 -5714,-6727199 -5712,-6727202 -5710,-6727204 -5708,-6727206 -5707,-6727209 -5705,-6727211 -5704,-6727214 -5702,-6727217 -5700,-6727221 -5699,-6727226 -5697,-6727230 -5696,-6727235 -5695,-6727239 -5695,-6727244 -5694,-6727245 -5694,-6727250 -5693,-6727254 -5692,-6727259 -5692,-6727263 -5692,-6727268 -5692,-6727273 -5692,-6727277 -5686,-6727351 -5684,-6727359 -5679,-6727377 -5673,-6727395 -5667,-6727412 -5661,-6727429 -5654,-6727446 -5647,-6727463 -5643,-6727472 -5639,-6727481 -5635,-6727491 -5630,-6727501 -5625,-6727510 -5620,-6727520 -5615,-6727529 -5602,-6727548 -5596,-6727556 -5584,-6727572 -5564,-6727596 -5556,-6727607 -5536,-6727630 -5516,-6727654 -5431,-6727753 -5319,-6727883 -5222,-6728011 -5170,-6728083 -5132,-6728144 -5092,-6728209 -4985,-6728380 -4901,-6728522 -4844,-6728625 -4799,-6728718 -4751,-6728827 -4698,-6728945 -4697,-6728948 -4689,-6728970 -4680,-6728992 -4671,-6729014 -4662,-6729036 -4651,-6729057 -4646,-6729069 -4641,-6729079 -4636,-6729089 -4630,-6729099 -4624,-6729109 -4621,-6729115 -4616,-6729122 -4612,-6729129 -4611,-6729131 -4607,-6729136 -4602,-6729143 -4597,-6729150 -4592,-6729157 -4587,-6729163 -4581,-6729169 -4575,-6729176 -4570,-6729182 -4566,-6729185 -4564,-6729187 -4560,-6729191 -4553,-6729197 -4547,-6729202 -4540,-6729208 -4535,-6729212 -4534,-6729212 -4527,-6729217 -4520,-6729222 -4513,-6729227 -4302,-6729355 -4221,-6729404 -4055,-6729503 -4048,-6729508 -4025,-6729522 -4002,-6729538 -3985,-6729550 -3980,-6729554 -3978,-6729556 -3970,-6729561 -3962,-6729567 -3954,-6729573 -3947,-6729579 -3939,-6729584 -3931,-6729590 -3924,-6729596 -3916,-6729602 -3909,-6729609 -3902,-6729615 -3895,-6729622 -3892,-6729626 -3877,-6729644 -3863,-6729664 -3850,-6729683 -3848,-6729685 -3844,-6729691 -3839,-6729697 -3835,-6729703 -3831,-6729709 -3826,-6729715 -3822,-6729721 -3818,-6729728 -3814,-6729734 -3811,-6729741 -3807,-6729747 -3804,-6729754 -3801,-6729760 -3799,-6729767 -3796,-6729773 -3794,-6729780 -3792,-6729787 -3790,-6729793 -3788,-6729800 -3787,-6729807 -3785,-6729814 -3784,-6729820 -3784,-6729822 -3783,-6729827 -3782,-6729834 -3782,-6729836 -3781,-6729844 -3781,-6729853 -3781,-6729861 -3781,-6729863 -3781,-6729870 -3782,-6729878 -3783,-6729886 -3784,-6729894 -3785,-6729903 -3786,-6729911 -3788,-6729919 -3790,-6729927 -3792,-6729935 -3794,-6729943 -3797,-6729951 -3800,-6729959 -3802,-6729967 -3806,-6729975 -3809,-6729982 -3812,-6729990 -3816,-6729998 -3820,-6730005 -3824,-6730012 -3879,-6730106 -3887,-6730119 -3896,-6730134 -3904,-6730150 -3912,-6730165 -3920,-6730181 -3928,-6730197 -3935,-6730213 -3936,-6730217 -3938,-6730222 -3941,-6730228 -3943,-6730233 -3946,-6730238 -3948,-6730244 -3950,-6730249 -3952,-6730255 -3954,-6730260 -3955,-6730266 -3957,-6730272 -3957,-6730273 -3958,-6730280 -3959,-6730287 -3960,-6730294 -3960,-6730301 -3961,-6730308 -3961,-6730315 -3961,-6730322 -3960,-6730329 -3960,-6730336 -3960,-6730339 -3959,-6730346 -3958,-6730353 -3957,-6730360 -3956,-6730367 -3954,-6730373 -3953,-6730380 -3951,-6730385 -3947,-6730400 -3943,-6730415 -3943,-6730416 -3939,-6730431 -3938,-6730437 -3936,-6730446 -3936,-6730449 -3935,-6730455 -3933,-6730464 -3931,-6730473 -3928,-6730483 -3924,-6730496 -3919,-6730510 -3914,-6730523 -3912,-6730529 -3907,-6730542 -3901,-6730555 -3895,-6730568 -3851,-6730646 -3781,-6730778 -3716,-6730910 -3712,-6730917 -3663,-6730999 -3660,-6731005 -3649,-6731024 -3639,-6731043 -3628,-6731062 -3617,-6731081 -3606,-6731100 -3593,-6731118 -3569,-6731152 -3544,-6731185 -3526,-6731208 -3517,-6731219 -3500,-6731240 -3473,-6731271 -3368,-6731383 -3313,-6731451 -3276,-6731496 -3188,-6731617 -3109,-6731728 -3093,-6731752 -3052,-6731809 -3040,-6731826 -3006,-6731874 -3002,-6731878 -2922,-6731980 -2905,-6732001 -2891,-6732022 -2886,-6732017 -2844,-6732074 -2818,-6732128 -2807,-6732155 -2794,-6732202 -2777,-6732266 -2763,-6732308 -2754,-6732337 -2745,-6732375 -2734,-6732407 -2719,-6732447 -2700,-6732489 -2674,-6732538 -2648,-6732582 -2615,-6732633 -2597,-6732662 -2577,-6732703 -2551,-6732748 -2493,-6732865 -2211,-6733443 -2077,-6733711 -1980,-6733907 -1894,-6734082 -1871,-6734132 -1850,-6734174 -1775,-6734321 -1715,-6734444 -1696,-6734486 -1666,-6734563 -1649,-6734620 -1651,-6734656 -1643,-6734707 -1643,-6734708 -1621,-6734756 -1554,-6734954 -1501,-6735147 -1482,-6735224 -1475,-6735265 -1462,-6735394 -1462,-6735398 -1413,-6735925 -1364,-6736410 -1337,-6736409 -1336,-6736415 -1295,-6736439 -1281,-6736444 -1235,-6736441 -1196,-6736435 -1155,-6736421 -1132,-6736461 -1025,-6736463 -999,-6736461 -981,-6736458 -956,-6736452 -928,-6736440 -887,-6736427" stroke="#003087" stroke-width="27" /></svg>