<?xml version="1.0" standalone="no"?>
<!DOCTYPE svg PUBLIC "-//W3C//DTD SVG 1.1//EN"
"http://www.w3.org/Graphics/SVG/1.1/DTD/svg11.dtd">
<svg height="115" version="1.1" viewBox="-12667 -6714390 4572 2943" width="220" xmlns="http://www.w3.org/2000/svg"><polygon fill="#003087" points=" -10763,-6714367 -10761,-6714362 -10759,-6714363 -10753,-6714364 -10736,-6714301 -10685,-6714325 -10682,-6714317 -10582,-6714357 -10564,-6714307 -10530,-6714210 -10506,-6714108 -10499,-6714061 -10447,-6714072 -10418,-6714080 -10415,-6714064 -10395,-6714069 -10383,-6714035 -10296,-6714062 -10280,-6713980 -10258,-6713978 -10218,-6713972 -10168,-6713964 -10118,-6713953 -10045,-6713939 -9981,-6713924 -9982,-6713919 -10016,-6713791 -9991,-6713780 -9983,-6713776 -9938,-6713757 -9864,-6713719 -9807,-6713691 -9742,-6713653 -9610,-6713589 -9595,-6713583 -9559,-6713669 -9549,-6713694 -9521,-6713766 -9501,-6713819 -9483,-6713856 -9272,-6713763 -9206,-6713808 -9161,-6713852 -9127,-6713896 -9102,-6713927 -9098,-6713932 -9075,-6713979 -9045,-6714052 -9019,-6714146 -8987,-6714134 -8876,-6714095 -8732,-6714066 -8761,-6713982 -8770,-6713928 -8773,-6713914 -8773,-6713913 -8790,-6713816 -8810,-6713698 -8839,-6713589 -8717,-6713607 -8689,-6713611 -8685,-6713525 -8696,-6713522 -8676,-6713483 -8658,-6713458 -8650,-6713445 -8645,-6713434 -8641,-6713418 -8640,-6713414 -8613,-6713339 -8609,-6713330 -8559,-6713207 -8554,-6713198 -8552,-6713194 -8548,-6713186 -8505,-6713127 -8362,-6712965 -8325,-6712919 -8283,-6712864 -8268,-6712846 -8231,-6712804 -8197,-6712746 -8177,-6712665 -8167,-6712611 -8166,-6712610 -8153,-6712534 -8139,-6712426 -8130,-6712331 -8128,-6712308 -8121,-6712265 -8114,-6712231 -8104,-6712201 -8097,-6712163 -8097,-6712151 -8096,-6712146 -8095,-6712122 -8096,-6712072 -8099,-6712061 -8105,-6712050 -8113,-6712034 -8122,-6712026 -8139,-6712026 -8181,-6712027 -8216,-6712024 -8240,-6712016 -8256,-6712009 -8281,-6711998 -8296,-6712000 -8303,-6712001 -8327,-6712006 -8391,-6711972 -8409,-6711963 -8411,-6711963 -8415,-6711969 -8417,-6711972 -8423,-6711981 -8423,-6711982 -8430,-6711987 -8432,-6712022 -8433,-6712030 -8466,-6712026 -8474,-6712089 -8476,-6712089 -8488,-6712088 -8489,-6712105 -8519,-6712101 -8557,-6712097 -8556,-6712091 -8556,-6712068 -8555,-6712054 -8559,-6712045 -8577,-6712044 -8633,-6712038 -8656,-6712028 -8675,-6712012 -8698,-6711986 -8724,-6711946 -8735,-6711920 -8737,-6711908 -8740,-6711907 -8778,-6711902 -8787,-6711850 -8796,-6711849 -8802,-6711839 -8801,-6711838 -8763,-6711817 -8768,-6711802 -8762,-6711798 -8760,-6711798 -8761,-6711794 -8777,-6711766 -8796,-6711723 -8797,-6711709 -8802,-6711689 -8818,-6711631 -8829,-6711633 -8833,-6711621 -8836,-6711612 -8852,-6711601 -8875,-6711578 -8878,-6711575 -8923,-6711447 -8935,-6711452 -8989,-6711471 -9020,-6711480 -9028,-6711482 -9058,-6711490 -9116,-6711505 -9199,-6711525 -9288,-6711547 -9340,-6711556 -9370,-6711566 -9447,-6711586 -9480,-6711594 -9534,-6711601 -9541,-6711602 -9545,-6711602 -9581,-6711606 -9656,-6711616 -9755,-6711627 -9765,-6711629 -9766,-6711629 -9804,-6711636 -9862,-6711647 -9901,-6711653 -9911,-6711655 -9960,-6711665 -10052,-6711678 -10072,-6711682 -10138,-6711696 -10230,-6711714 -10278,-6711729 -10310,-6711741 -10330,-6711749 -10368,-6711767 -10462,-6711810 -10566,-6711848 -10606,-6711863 -10653,-6711879 -10685,-6711888 -10778,-6711908 -10876,-6711924 -10967,-6711937 -11015,-6711943 -11052,-6711949 -11123,-6711956 -11152,-6711958 -11305,-6711973 -11496,-6711975 -11531,-6711981 -11594,-6711981 -11594,-6711948 -11578,-6711943 -11580,-6711941 -11597,-6711932 -11596,-6711853 -11584,-6711844 -11598,-6711837 -11599,-6711793 -11600,-6711761 -11597,-6711739 -11597,-6711725 -11650,-6711723 -11656,-6711734 -11656,-6711751 -11652,-6711761 -11650,-6711831 -11650,-6711839 -11657,-6711845 -11659,-6711847 -11651,-6711849 -11647,-6711911 -11647,-6711937 -11657,-6711937 -11657,-6711939 -11660,-6711944 -11648,-6711948 -11647,-6711948 -11645,-6711985 -11705,-6711985 -11751,-6711987 -11854,-6711991 -11906,-6711991 -11948,-6711990 -12010,-6711990 -12074,-6711987 -12151,-6711984 -12235,-6711979 -12284,-6711976 -12310,-6711975 -12361,-6711971 -12405,-6711966 -12417,-6712142 -12418,-6712170 -12417,-6712243 -12415,-6712265 -12412,-6712301 -12416,-6712317 -12432,-6712357 -12439,-6712365 -12452,-6712359 -12482,-6712412 -12483,-6712415 -12485,-6712420 -12471,-6712424 -12487,-6712457 -12511,-6712503 -12503,-6712508 -12506,-6712513 -12488,-6712524 -12502,-6712550 -12435,-6712579 -12449,-6712629 -12462,-6712666 -12390,-6712685 -12364,-6712692 -12368,-6712716 -12399,-6712865 -12415,-6712942 -12417,-6712952 -12421,-6712962 -12450,-6713045 -12479,-6713116 -12482,-6713121 -12560,-6713267 -12626,-6713375 -12656,-6713427 -12658,-6713432 -12663,-6713457 -12666,-6713478 -12667,-6713484 -12579,-6713490 -12502,-6713485 -12423,-6713476 -12295,-6713452 -12190,-6713425 -12134,-6713418 -12040,-6713401 -12000,-6713396 -11974,-6713410 -11953,-6713419 -11913,-6713442 -11856,-6713470 -11819,-6713487 -11778,-6713509 -11724,-6713535 -11723,-6713536 -11658,-6713572 -11491,-6713654 -11361,-6713720 -11331,-6713736 -11304,-6713751 -11248,-6713780 -11218,-6713794 -11176,-6713816 -11162,-6713819 -11157,-6713820 -11141,-6713821 -11090,-6713847 -11056,-6713862 -11006,-6713885 -10956,-6713901 -10869,-6713925 -10864,-6713981 -10858,-6714029 -10852,-6714083 -10839,-6714081 -10838,-6714087 -10836,-6714105 -10837,-6714128 -10852,-6714195 -10866,-6714240 -10873,-6714257 -10882,-6714277 -10895,-6714299 -10899,-6714305 -10903,-6714311 -10771,-6714390 -10763,-6714367" stroke="#003087" stroke-width="7" /></svg>