<?xml version="1.0" standalone="no"?>
<!DOCTYPE svg PUBLIC "-//W3C//DTD SVG 1.1//EN"
"http://www.w3.org/Graphics/SVG/1.1/DTD/svg11.dtd">
<svg height="115" version="1.1" viewBox="-8923 -6718214 10024 10766" width="220" xmlns="http://www.w3.org/2000/svg"><polygon fill="#003087" points=" -3226,-6717785 -3225,-6717782 -3193,-6717792 -3156,-6717805 -3096,-6717829 -3044,-6717852 -3008,-6717867 -2947,-6717894 -2875,-6717934 -2864,-6717940 -2858,-6717948 -2853,-6717956 -2848,-6717976 -2840,-6717973 -2836,-6717960 -2818,-6717954 -2653,-6717970 -2565,-6717974 -2566,-6717981 -2558,-6717981 -2529,-6717982 -2507,-6717984 -2487,-6717984 -2485,-6717988 -2479,-6717999 -2385,-6718005 -2262,-6718016 -2211,-6718017 -2137,-6718018 -2062,-6718013 -1976,-6717995 -1936,-6717989 -1894,-6717982 -1869,-6717974 -1863,-6717982 -1841,-6717977 -1841,-6717967 -1838,-6717946 -1833,-6717925 -1828,-6717912 -1812,-6717881 -1788,-6717829 -1790,-6717811 -1799,-6717796 -1801,-6717794 -1816,-6717758 -1826,-6717690 -1835,-6717645 -1848,-6717621 -1865,-6717600 -1889,-6717589 -1915,-6717578 -1940,-6717568 -1958,-6717556 -1973,-6717542 -1978,-6717519 -1974,-6717469 -1979,-6717430 -1987,-6717407 -1994,-6717389 -2012,-6717362 -2035,-6717335 -2072,-6717301 -2090,-6717279 -2102,-6717259 -2115,-6717218 -2128,-6717155 -2138,-6717113 -2159,-6717068 -2167,-6717061 -2167,-6717060 -2168,-6717059 -2186,-6717040 -2197,-6717030 -2212,-6717018 -2223,-6717009 -2245,-6716997 -2285,-6716968 -2288,-6716966 -2290,-6716964 -2315,-6716939 -2344,-6716900 -2362,-6716863 -2364,-6716842 -2361,-6716824 -2359,-6716813 -2354,-6716781 -2353,-6716752 -2331,-6716713 -2319,-6716698 -2289,-6716684 -2272,-6716674 -2239,-6716657 -2214,-6716626 -2190,-6716594 -2173,-6716562 -2150,-6716515 -2130,-6716469 -2121,-6716435 -2116,-6716410 -2115,-6716368 -2112,-6716341 -2107,-6716323 -2098,-6716306 -2075,-6716279 -2042,-6716247 -2021,-6716221 -2014,-6716208 -1999,-6716171 -1999,-6716169 -1997,-6716137 -2001,-6716123 -2005,-6716116 -2020,-6716081 -2027,-6716052 -2026,-6716024 -2022,-6716008 -2004,-6715983 -1976,-6715938 -1950,-6715868 -1939,-6715853 -1938,-6715852 -1909,-6715822 -1873,-6715791 -1830,-6715763 -1723,-6715701 -1662,-6715677 -1619,-6715657 -1586,-6715633 -1574,-6715615 -1564,-6715595 -1562,-6715590 -1560,-6715586 -1551,-6715574 -1519,-6715558 -1516,-6715557 -1463,-6715532 -1407,-6715520 -1318,-6715505 -1241,-6715488 -1213,-6715478 -1197,-6715463 -1180,-6715441 -1173,-6715417 -1164,-6715372 -1158,-6715341 -1149,-6715323 -1133,-6715299 -1115,-6715284 -1047,-6715221 -991,-6715177 -968,-6715155 -952,-6715133 -938,-6715089 -928,-6715050 -912,-6715019 -892,-6714985 -860,-6714950 -847,-6714929 -834,-6714905 -828,-6714869 -832,-6714830 -837,-6714805 -853,-6714774 -864,-6714758 -868,-6714752 -869,-6714749 -875,-6714727 -885,-6714683 -896,-6714535 -899,-6714480 -904,-6714438 -903,-6714408 -900,-6714391 -871,-6714334 -868,-6714329 -866,-6714303 -879,-6714255 -892,-6714220 -907,-6714204 -913,-6714171 -940,-6714089 -943,-6714079 -945,-6714076 -962,-6714055 -987,-6713991 -1003,-6713931 -1005,-6713892 -1003,-6713846 -990,-6713776 -982,-6713758 -954,-6713733 -879,-6713682 -858,-6713667 -837,-6713652 -797,-6713619 -773,-6713594 -755,-6713572 -746,-6713558 -706,-6713492 -668,-6713406 -653,-6713369 -644,-6713336 -642,-6713248 -640,-6713239 -637,-6713230 -634,-6713222 -629,-6713215 -622,-6713207 -595,-6713186 -588,-6713183 -573,-6713181 -561,-6713180 -553,-6713181 -537,-6713185 -517,-6713194 -509,-6713200 -504,-6713205 -495,-6713216 -466,-6713265 -456,-6713283 -442,-6713321 -420,-6713371 -409,-6713385 -403,-6713391 -383,-6713403 -358,-6713416 -278,-6713433 -267,-6713434 -259,-6713433 -252,-6713432 -243,-6713429 -228,-6713420 -158,-6713361 -70,-6713290 66,-6713185 193,-6713117 220,-6713101 260,-6713076 286,-6713059 299,-6713050 335,-6713023 356,-6713004 405,-6712951 426,-6712925 436,-6712909 448,-6712882 453,-6712867 460,-6712837 458,-6712810 454,-6712791 451,-6712777 446,-6712764 426,-6712719 404,-6712664 392,-6712630 368,-6712562 310,-6712421 279,-6712329 265,-6712284 259,-6712263 253,-6712237 251,-6712222 250,-6712189 254,-6712165 259,-6712150 268,-6712133 276,-6712125 281,-6712121 291,-6712116 344,-6712104 368,-6712104 397,-6712105 416,-6712108 433,-6712116 441,-6712121 448,-6712127 457,-6712136 477,-6712169 483,-6712184 490,-6712204 496,-6712231 506,-6712272 517,-6712351 522,-6712402 517,-6712460 516,-6712508 524,-6712561 532,-6712595 539,-6712619 546,-6712631 550,-6712649 568,-6712684 587,-6712704 612,-6712746 621,-6712754 682,-6712782 701,-6712782 715,-6712785 743,-6712784 772,-6712778 793,-6712771 814,-6712757 822,-6712743 830,-6712724 842,-6712699 852,-6712680 876,-6712647 881,-6712633 882,-6712607 892,-6712585 896,-6712541 892,-6712492 877,-6712420 859,-6712396 853,-6712384 846,-6712368 827,-6712334 812,-6712320 803,-6712287 772,-6712208 741,-6712174 694,-6712112 690,-6712101 689,-6712091 683,-6712081 670,-6712047 663,-6712021 663,-6712005 670,-6711986 686,-6711966 697,-6711958 724,-6711942 757,-6711929 810,-6711916 854,-6711907 858,-6711907 873,-6711905 899,-6711896 944,-6711881 987,-6711862 1010,-6711847 1027,-6711834 1050,-6711809 1070,-6711779 1078,-6711763 1086,-6711747 1095,-6711727 1101,-6711708 1101,-6711687 1095,-6711664 1077,-6711606 1063,-6711584 1043,-6711521 1024,-6711466 1010,-6711439 979,-6711395 924,-6711318 848,-6711204 817,-6711226 667,-6711321 579,-6711368 464,-6711419 443,-6711425 433,-6711426 404,-6711429 354,-6711426 303,-6711424 245,-6711424 154,-6711411 109,-6711394 75,-6711383 19,-6711362 -14,-6711349 -99,-6711302 -143,-6711268 -219,-6711194 -270,-6711140 -293,-6711107 -317,-6711081 -336,-6711052 -356,-6711020 -371,-6710989 -392,-6710954 -410,-6710919 -446,-6710865 -478,-6710798 -499,-6710745 -504,-6710721 -516,-6710668 -533,-6710596 -538,-6710569 -546,-6710546 -557,-6710519 -562,-6710500 -568,-6710480 -573,-6710441 -573,-6710410 -573,-6710402 -573,-6710389 -573,-6710377 -562,-6710349 -552,-6710285 -547,-6710243 -509,-6710040 -495,-6709975 -484,-6709929 -479,-6709910 -460,-6709848 -442,-6709792 -404,-6709704 -311,-6709444 -271,-6709344 -254,-6709307 -243,-6709285 -235,-6709269 -232,-6709264 -221,-6709245 -175,-6709162 -157,-6709120 -132,-6709054 -117,-6709023 -111,-6708980 -86,-6708887 -72,-6708817 -43,-6708679 -47,-6708594 -47,-6708578 -46,-6708549 -50,-6708485 -53,-6708445 -61,-6708403 -75,-6708347 -101,-6708272 -128,-6708200 -161,-6708128 -191,-6708076 -239,-6708009 -325,-6707920 -376,-6707877 -504,-6707773 -525,-6707761 -569,-6707730 -596,-6707710 -615,-6707699 -626,-6707693 -656,-6707677 -692,-6707661 -746,-6707641 -772,-6707628 -828,-6707601 -882,-6707574 -1177,-6707489 -1202,-6707484 -1228,-6707479 -1420,-6707452 -1431,-6707449 -1465,-6707448 -1533,-6707451 -1617,-6707457 -1644,-6707457 -1681,-6707460 -1719,-6707462 -1740,-6707463 -1770,-6707468 -1818,-6707472 -1838,-6707477 -1843,-6707477 -1865,-6707482 -1937,-6707497 -1939,-6707497 -1961,-6707496 -2004,-6707505 -2091,-6707545 -2108,-6707552 -2164,-6707577 -2225,-6707606 -2343,-6707675 -2378,-6707697 -2433,-6707732 -2559,-6707818 -2606,-6707856 -2615,-6707863 -2619,-6707866 -2649,-6707891 -2684,-6707925 -2713,-6707952 -2745,-6707981 -2762,-6708001 -2793,-6708035 -2889,-6708144 -2957,-6708226 -2980,-6708255 -3014,-6708305 -3034,-6708330 -3060,-6708378 -3096,-6708441 -3132,-6708520 -3157,-6708575 -3226,-6708721 -3262,-6708821 -3295,-6708911 -3310,-6708954 -3316,-6708973 -3330,-6709068 -3338,-6709143 -3340,-6709161 -3352,-6709266 -3359,-6709384 -3360,-6709412 -3360,-6709457 -3359,-6709515 -3350,-6709693 -3348,-6709708 -3341,-6709780 -3340,-6709871 -3339,-6709934 -3329,-6710030 -3324,-6710088 -3320,-6710137 -3302,-6710244 -3287,-6710419 -3276,-6710593 -3273,-6710639 -3272,-6710663 -3268,-6710689 -3266,-6710700 -3267,-6710708 -3275,-6710760 -3286,-6710844 -3292,-6710901 -3298,-6710945 -3296,-6710979 -3291,-6710998 -3290,-6711000 -3292,-6711005 -3304,-6711048 -3318,-6711097 -3326,-6711130 -3336,-6711153 -3345,-6711185 -3371,-6711233 -3392,-6711262 -3402,-6711282 -3404,-6711286 -3409,-6711295 -3421,-6711310 -3430,-6711319 -3453,-6711335 -3479,-6711347 -3495,-6711361 -3509,-6711375 -3520,-6711389 -3530,-6711404 -3537,-6711410 -3581,-6711449 -3607,-6711471 -3644,-6711485 -3675,-6711499 -3730,-6711519 -3819,-6711564 -3889,-6711600 -3958,-6711639 -4000,-6711663 -4083,-6711690 -4143,-6711716 -4169,-6711727 -4212,-6711738 -4248,-6711749 -4321,-6711757 -4407,-6711761 -4475,-6711762 -4514,-6711763 -4553,-6711763 -4598,-6711761 -4659,-6711757 -4683,-6711755 -4752,-6711746 -4822,-6711735 -4851,-6711727 -4887,-6711716 -4931,-6711698 -5023,-6711659 -5061,-6711638 -5115,-6711597 -5161,-6711559 -5180,-6711544 -5224,-6711511 -5356,-6711396 -5412,-6711345 -5502,-6711262 -5722,-6711055 -5766,-6711017 -5813,-6710978 -5831,-6710964 -5873,-6710926 -5969,-6710834 -6105,-6710719 -6138,-6710697 -6184,-6710669 -6228,-6710646 -6273,-6710631 -6273,-6710630 -6338,-6710604 -6367,-6710591 -6420,-6710575 -6486,-6710558 -6545,-6710543 -6623,-6710525 -6664,-6710517 -6683,-6710516 -6699,-6710517 -6725,-6710522 -6776,-6710525 -6942,-6710561 -7022,-6710577 -7078,-6710590 -7147,-6710607 -7195,-6710623 -7334,-6710670 -7364,-6710683 -7402,-6710701 -7450,-6710719 -7535,-6710757 -7556,-6710761 -7589,-6710776 -7693,-6710821 -7774,-6710860 -7800,-6710873 -7813,-6710881 -7842,-6710898 -7850,-6710902 -7891,-6710930 -7931,-6710960 -7995,-6711007 -8092,-6711074 -8145,-6711104 -8207,-6711133 -8240,-6711146 -8372,-6711194 -8495,-6711251 -8595,-6711299 -8691,-6711341 -8704,-6711347 -8707,-6711348 -8736,-6711362 -8785,-6711383 -8819,-6711395 -8882,-6711426 -8900,-6711436 -8923,-6711447 -8878,-6711575 -8875,-6711578 -8852,-6711601 -8836,-6711612 -8833,-6711621 -8829,-6711633 -8818,-6711631 -8802,-6711689 -8797,-6711709 -8796,-6711723 -8777,-6711766 -8761,-6711794 -8760,-6711798 -8762,-6711798 -8768,-6711802 -8763,-6711817 -8801,-6711838 -8802,-6711839 -8796,-6711849 -8787,-6711850 -8778,-6711902 -8740,-6711907 -8737,-6711908 -8735,-6711920 -8724,-6711946 -8698,-6711986 -8675,-6712012 -8656,-6712028 -8633,-6712038 -8577,-6712044 -8559,-6712045 -8555,-6712054 -8556,-6712068 -8556,-6712091 -8557,-6712097 -8519,-6712101 -8489,-6712105 -8488,-6712088 -8476,-6712089 -8474,-6712089 -8466,-6712026 -8433,-6712030 -8432,-6712022 -8430,-6711987 -8423,-6711982 -8423,-6711981 -8417,-6711972 -8415,-6711969 -8411,-6711963 -8409,-6711963 -8391,-6711972 -8327,-6712006 -8303,-6712001 -8296,-6712000 -8281,-6711998 -8256,-6712009 -8240,-6712016 -8216,-6712024 -8181,-6712027 -8139,-6712026 -8122,-6712026 -8113,-6712034 -8105,-6712050 -8099,-6712061 -8096,-6712072 -8095,-6712122 -8096,-6712146 -8097,-6712151 -8097,-6712163 -8104,-6712201 -8114,-6712231 -8121,-6712265 -8128,-6712308 -8130,-6712331 -8139,-6712426 -8153,-6712534 -8166,-6712610 -8167,-6712611 -8177,-6712665 -8197,-6712746 -8231,-6712804 -8268,-6712846 -8283,-6712864 -8325,-6712919 -8362,-6712965 -8505,-6713127 -8548,-6713186 -8552,-6713194 -8554,-6713198 -8559,-6713207 -8609,-6713330 -8613,-6713339 -8640,-6713414 -8641,-6713418 -8645,-6713434 -8650,-6713445 -8658,-6713458 -8676,-6713483 -8696,-6713522 -8685,-6713525 -8689,-6713611 -8717,-6713607 -8839,-6713589 -8810,-6713698 -8790,-6713816 -8773,-6713913 -8773,-6713914 -8770,-6713928 -8761,-6713982 -8732,-6714066 -8730,-6714072 -8706,-6714128 -8671,-6714143 -8583,-6714174 -8537,-6714192 -8507,-6714156 -8478,-6714181 -8475,-6714190 -8466,-6714222 -8458,-6714253 -8442,-6714314 -8439,-6714327 -8436,-6714340 -8431,-6714365 -8426,-6714420 -8426,-6714438 -8432,-6714486 -8447,-6714569 -8506,-6714563 -8519,-6714750 -8524,-6714821 -8527,-6714868 -8528,-6714898 -8528,-6714919 -8528,-6714939 -8517,-6714961 -8497,-6715026 -8492,-6715075 -8596,-6715102 -8556,-6715138 -8496,-6715205 -8461,-6715249 -8427,-6715291 -8421,-6715298 -8416,-6715305 -8399,-6715335 -8381,-6715372 -8338,-6715481 -8306,-6715548 -8276,-6715588 -8253,-6715611 -8239,-6715623 -8209,-6715646 -8139,-6715687 -8114,-6715701 -8099,-6715709 -8041,-6715736 -8003,-6715742 -7971,-6715750 -7926,-6715757 -7848,-6715765 -7779,-6715769 -7711,-6715770 -7566,-6715781 -7489,-6715789 -7378,-6715805 -7364,-6715854 -7332,-6715946 -7302,-6716026 -7273,-6716111 -7248,-6716161 -7245,-6716154 -7230,-6716104 -7039,-6716136 -6973,-6716155 -6925,-6716166 -6933,-6716192 -6949,-6716232 -6962,-6716263 -6978,-6716319 -6982,-6716343 -6992,-6716415 -6993,-6716478 -6987,-6716498 -6972,-6716534 -6951,-6716572 -6909,-6716562 -6865,-6716531 -6825,-6716483 -6780,-6716423 -6752,-6716381 -6749,-6716378 -6727,-6716360 -6717,-6716353 -6698,-6716342 -6666,-6716329 -6641,-6716323 -6604,-6716318 -6571,-6716317 -6537,-6716321 -6466,-6716337 -6405,-6716362 -6375,-6716377 -6321,-6716409 -6254,-6716447 -6191,-6716477 -6166,-6716488 -6147,-6716495 -6146,-6716495 -6144,-6716496 -6123,-6716500 -6104,-6716502 -6086,-6716508 -6051,-6716512 -6023,-6716509 -5992,-6716504 -5948,-6716495 -5898,-6716475 -5878,-6716467 -5875,-6716510 -5864,-6716575 -5850,-6716609 -5829,-6716644 -5801,-6716674 -5772,-6716698 -5759,-6716707 -5741,-6716718 -5721,-6716728 -5669,-6716741 -5653,-6716743 -5635,-6716744 -5618,-6716744 -5602,-6716742 -5590,-6716740 -5553,-6716730 -5521,-6716718 -5512,-6716715 -5484,-6716695 -5440,-6716657 -5405,-6716619 -5397,-6716612 -5387,-6716605 -5374,-6716597 -5361,-6716591 -5349,-6716587 -5339,-6716586 -5323,-6716585 -5292,-6716575 -5265,-6716571 -5246,-6716569 -5220,-6716568 -5115,-6716588 -4998,-6716622 -4990,-6716625 -4982,-6716629 -4973,-6716636 -4966,-6716642 -4928,-6716684 -4891,-6716735 -4876,-6716746 -4864,-6716748 -4847,-6716742 -4835,-6716749 -4715,-6716838 -4609,-6716920 -4572,-6716974 -4531,-6717035 -4467,-6717142 -4350,-6717311 -4300,-6717392 -4221,-6717512 -4177,-6717580 -4175,-6717592 -4167,-6717600 -4165,-6717604 -4157,-6717613 -4145,-6717616 -4134,-6717629 -4133,-6717631 -4200,-6717696 -4091,-6717816 -3990,-6717915 -3909,-6717977 -3841,-6718029 -3789,-6718101 -3768,-6718129 -3757,-6718146 -3743,-6718166 -3717,-6718198 -3713,-6718203 -3699,-6718212 -3689,-6718214 -3677,-6718212 -3661,-6718203 -3558,-6718106 -3505,-6718055 -3455,-6718009 -3442,-6717998 -3394,-6717980 -3328,-6717955 -3297,-6717935 -3278,-6717917 -3268,-6717890 -3242,-6717835 -3226,-6717785" stroke="#003087" stroke-width="20" /></svg>