<?xml version="1.0" standalone="no"?>
<!DOCTYPE svg PUBLIC "-//W3C//DTD SVG 1.1//EN"
"http://www.w3.org/Graphics/SVG/1.1/DTD/svg11.dtd">
<svg height="115" version="1.1" viewBox="8313 -6712998 16589 19128" width="220" xmlns="http://www.w3.org/2000/svg"><polygon fill="#003087" points=" 21182,-6707402 21373,-6707385 21772,-6707391 21855,-6707396 21947,-6707404 22082,-6707420 22128,-6707424 22157,-6707428 22186,-6707434 22316,-6707464 22555,-6707532 22642,-6707551 22837,-6707593 23123,-6707661 23171,-6707670 23188,-6707672 23234,-6707677 23335,-6707682 23414,-6707694 23497,-6707692 23549,-6707689 23665,-6707676 23778,-6707655 23805,-6707650 23845,-6707639 24058,-6707570 24082,-6707563 24126,-6707544 24152,-6707532 24179,-6707520 24207,-6707504 24340,-6707417 24380,-6707395 24487,-6707329 24523,-6707306 24727,-6707169 24902,-6707049 24728,-6706864 24586,-6706721 24507,-6706644 24453,-6706646 24350,-6706685 24309,-6706698 24289,-6706695 24276,-6706691 24264,-6706687 24225,-6706669 24192,-6706653 24147,-6706627 24137,-6706617 24119,-6706588 24116,-6706578 24111,-6706559 24088,-6706488 24087,-6706482 24087,-6706476 24090,-6706461 24093,-6706433 24093,-6706417 24095,-6706395 24094,-6706372 24098,-6706363 24101,-6706360 24105,-6706357 24115,-6706353 24128,-6706301 24135,-6706276 24139,-6706259 24145,-6706216 24145,-6706206 24143,-6706194 24140,-6706182 24124,-6706126 24114,-6706102 24108,-6706089 24097,-6706071 24078,-6706046 24073,-6706042 24051,-6706026 24010,-6706015 23935,-6705996 23870,-6705975 23766,-6705929 23722,-6705913 23697,-6705905 23681,-6705895 23657,-6705883 23643,-6705873 23631,-6705861 23626,-6705855 23615,-6705839 23551,-6705766 23547,-6705757 23547,-6705748 23539,-6705699 23544,-6705649 23550,-6705629 23570,-6705529 23578,-6705494 23587,-6705473 23588,-6705461 23586,-6705448 23544,-6705382 23499,-6705331 23438,-6705253 23406,-6705222 23349,-6705186 23338,-6705177 23300,-6705140 23288,-6705124 23269,-6705095 23251,-6705054 23246,-6705041 23244,-6705035 23243,-6705027 23244,-6705018 23245,-6705004 23248,-6704992 23253,-6704981 23257,-6704972 23316,-6704880 23357,-6704811 23374,-6704788 23393,-6704766 23488,-6704700 23508,-6704677 23516,-6704666 23522,-6704657 23526,-6704648 23531,-6704632 23540,-6704564 23545,-6704494 23532,-6704425 23494,-6704309 23464,-6704221 23442,-6704166 23426,-6704114 23419,-6704078 23417,-6704054 23417,-6703977 23419,-6703950 23419,-6703936 23419,-6703926 23424,-6703907 23434,-6703784 23435,-6703719 23442,-6703623 23445,-6703512 23411,-6703478 23388,-6703461 23365,-6703447 23313,-6703435 23298,-6703429 23140,-6703350 23113,-6703331 23059,-6703271 23053,-6703265 23048,-6703259 23041,-6703248 23027,-6703229 23017,-6703220 22958,-6703180 22927,-6703152 22884,-6703103 22876,-6703097 22862,-6703090 22796,-6703068 22782,-6703057 22771,-6703047 22765,-6703038 22693,-6702938 22679,-6702921 22647,-6702875 22628,-6702845 22619,-6702826 22617,-6702820 22594,-6702774 22581,-6702755 22582,-6702751 22591,-6702741 22603,-6702722 22609,-6702706 22616,-6702691 22625,-6702662 22624,-6702641 22615,-6702606 22583,-6702504 22554,-6702395 22550,-6702381 22552,-6702379 22614,-6702373 22646,-6702368 22687,-6702361 22690,-6702351 22693,-6702340 22698,-6702294 22697,-6702283 22696,-6702277 22692,-6702267 22635,-6702182 22629,-6702172 22627,-6702165 22626,-6702160 22628,-6702155 22634,-6702145 22635,-6702139 22642,-6702097 22642,-6702066 22640,-6702060 22637,-6702056 22604,-6702046 22596,-6702042 22593,-6702038 22591,-6702035 22575,-6701993 22566,-6701985 22542,-6701975 22537,-6701975 22527,-6701980 22490,-6702015 22489,-6702016 22482,-6702014 22479,-6702012 22475,-6702006 22473,-6701982 22470,-6701976 22418,-6701970 22383,-6701931 22377,-6701922 22375,-6701915 22375,-6701910 22376,-6701906 22380,-6701899 22392,-6701886 22394,-6701884 22396,-6701873 22389,-6701865 22376,-6701863 22359,-6701858 22344,-6701856 22341,-6701854 22335,-6701846 22332,-6701837 22332,-6701828 22338,-6701820 22344,-6701800 22336,-6701793 22310,-6701793 22300,-6701791 22295,-6701784 22294,-6701772 22295,-6701757 22289,-6701746 22278,-6701751 22254,-6701767 22249,-6701769 22243,-6701769 22238,-6701769 22232,-6701767 22227,-6701764 22222,-6701759 22219,-6701752 22218,-6701746 22217,-6701737 22214,-6701730 22209,-6701723 22203,-6701717 22196,-6701714 22188,-6701712 22171,-6701712 22165,-6701709 22160,-6701705 22157,-6701701 22155,-6701694 22155,-6701690 22157,-6701685 22160,-6701680 22164,-6701676 22167,-6701664 22130,-6701658 22110,-6701649 22087,-6701649 22079,-6701645 22064,-6701634 22057,-6701628 22052,-6701619 22048,-6701614 22042,-6701611 22037,-6701610 22031,-6701609 22026,-6701610 22020,-6701613 22016,-6701617 22012,-6701621 22007,-6701636 22001,-6701640 21993,-6701627 21990,-6701614 21980,-6701601 21960,-6701604 21952,-6701603 21940,-6701601 21930,-6701598 21918,-6701593 21898,-6701606 21887,-6701598 21880,-6701595 21873,-6701591 21868,-6701591 21864,-6701591 21847,-6701599 21838,-6701601 21829,-6701603 21817,-6701601 21814,-6701604 21810,-6701612 21807,-6701622 21808,-6701631 21810,-6701638 21814,-6701646 21821,-6701654 21833,-6701663 21836,-6701667 21837,-6701670 21838,-6701675 21837,-6701681 21833,-6701688 21817,-6701702 21810,-6701705 21806,-6701706 21801,-6701706 21796,-6701704 21792,-6701702 21789,-6701698 21785,-6701692 21784,-6701688 21780,-6701664 21777,-6701655 21771,-6701647 21763,-6701642 21756,-6701641 21748,-6701642 21736,-6701653 21734,-6701658 21730,-6701663 21726,-6701665 21721,-6701666 21717,-6701666 21713,-6701664 21709,-6701661 21707,-6701655 21706,-6701650 21710,-6701620 21709,-6701616 21707,-6701612 21704,-6701609 21701,-6701607 21695,-6701605 21690,-6701607 21686,-6701609 21684,-6701611 21680,-6701618 21669,-6701620 21666,-6701619 21658,-6701617 21649,-6701612 21643,-6701607 21634,-6701597 21627,-6701584 21624,-6701582 21616,-6701580 21612,-6701582 21606,-6701587 21604,-6701591 21601,-6701604 21602,-6701611 21601,-6701616 21599,-6701621 21596,-6701625 21593,-6701628 21589,-6701630 21584,-6701631 21578,-6701630 21571,-6701628 21564,-6701624 21559,-6701620 21554,-6701615 21550,-6701609 21548,-6701603 21545,-6701592 21538,-6701586 21486,-6701586 21474,-6701572 21473,-6701561 21471,-6701554 21469,-6701548 21466,-6701542 21457,-6701534 21448,-6701528 21444,-6701525 21426,-6701505 21419,-6701494 21390,-6701443 21373,-6701422 21366,-6701412 21363,-6701407 21348,-6701405 21345,-6701404 21263,-6701066 21022,-6701127 21019,-6701125 20976,-6701035 20973,-6701034 20891,-6701051 20888,-6701050 20861,-6700980 20858,-6700962 20850,-6700798 20856,-6700762 20865,-6700737 20868,-6700728 20868,-6700724 20825,-6700677 20764,-6700605 20680,-6700516 20606,-6700435 20513,-6700328 20510,-6700327 20490,-6700336 20448,-6700355 20444,-6700354 20396,-6700307 20393,-6700306 20379,-6700314 20376,-6700314 20346,-6700285 20333,-6700280 20322,-6700275 20281,-6700265 20198,-6700250 20158,-6700243 20156,-6700240 20155,-6700230 20149,-6700153 20149,-6700153 20136,-6700126 20133,-6700124 20099,-6700115 20089,-6700111 20063,-6700100 20024,-6700076 19990,-6700053 19987,-6700053 19951,-6700111 19948,-6700112 19916,-6700093 19913,-6700094 19898,-6700116 19895,-6700117 19823,-6700068 19624,-6699876 19594,-6699855 19590,-6699854 19501,-6699915 19447,-6699950 19416,-6699974 19393,-6699998 19378,-6700010 19362,-6700021 19347,-6700028 19336,-6700033 19325,-6700037 19314,-6700039 19301,-6700040 19276,-6700040 19235,-6700038 19234,-6700040 19242,-6700076 19233,-6700065 19205,-6700018 19204,-6700014 19212,-6699991 19211,-6699988 19198,-6699971 19194,-6699962 19188,-6699955 19183,-6699948 19167,-6699933 19152,-6699917 19136,-6699896 19121,-6699875 19078,-6699819 19050,-6699776 19037,-6699739 19024,-6699712 19013,-6699687 18985,-6699642 18897,-6699428 18899,-6699426 18905,-6699424 18903,-6699421 18907,-6699403 18907,-6699395 18905,-6699379 18902,-6699369 18896,-6699357 18888,-6699346 18879,-6699337 18870,-6699331 18860,-6699326 18832,-6699270 18820,-6699237 18787,-6699138 18786,-6699131 18780,-6699089 18781,-6699046 18760,-6699023 18745,-6699004 18733,-6698987 18724,-6698972 18708,-6698940 18697,-6698913 18681,-6698882 18665,-6698856 18653,-6698829 18634,-6698802 18619,-6698775 18605,-6698747 18599,-6698731 18592,-6698715 18583,-6698677 18555,-6698613 18555,-6698594 18554,-6698570 18544,-6698552 18543,-6698525 18538,-6698434 18565,-6698376 18555,-6698163 18570,-6698142 18575,-6698128 18573,-6698058 18520,-6698002 18504,-6697984 18489,-6697966 18554,-6697944 18556,-6697942 18521,-6697807 18502,-6697761 18499,-6697759 18436,-6697774 18433,-6697773 18394,-6697708 18321,-6697543 18305,-6697486 18304,-6697478 18302,-6697472 18298,-6697464 18292,-6697458 18287,-6697454 18280,-6697451 18272,-6697450 18266,-6697450 18260,-6697451 18237,-6697462 18245,-6697475 18247,-6697520 18205,-6697513 18181,-6697542 18134,-6697553 18104,-6697569 18074,-6697584 18051,-6697594 17951,-6697632 17930,-6697640 17888,-6697653 17885,-6697653 17844,-6697602 17810,-6697584 17792,-6697568 17782,-6697583 17781,-6697647 17778,-6697653 17770,-6697664 17760,-6697676 17744,-6697692 17741,-6697696 17719,-6697731 17709,-6697751 17683,-6697740 17658,-6697733 17649,-6697746 17639,-6697758 17628,-6697768 17613,-6697780 17603,-6697785 17589,-6697792 17565,-6697800 17542,-6697810 17510,-6697822 17475,-6697833 17445,-6697839 17411,-6697850 17351,-6697867 17325,-6697789 17309,-6697726 17305,-6697701 17300,-6697656 17300,-6697647 17302,-6697597 17300,-6697574 17295,-6697549 17287,-6697528 17278,-6697506 17231,-6697427 17197,-6697384 17150,-6697318 17116,-6697268 17101,-6697145 17090,-6697049 17072,-6696932 17068,-6696900 17067,-6696874 17066,-6696849 17067,-6696820 17070,-6696771 17082,-6696680 17089,-6696645 17090,-6696623 17091,-6696609 17089,-6696569 17085,-6696536 17084,-6696532 17077,-6696501 17067,-6696450 17046,-6696340 17032,-6696279 17015,-6696229 16920,-6696105 16861,-6696045 16850,-6696033 16826,-6696002 16854,-6695981 16881,-6695961 16953,-6695925 17043,-6695843 17050,-6695830 17119,-6695766 17141,-6695744 17161,-6695720 17213,-6695656 17214,-6695652 17185,-6695601 17156,-6695529 17153,-6695526 17090,-6695516 17050,-6695506 16976,-6695516 16956,-6695517 16935,-6695517 16914,-6695516 16896,-6695513 16842,-6695503 16815,-6695500 16818,-6695467 16824,-6695340 16824,-6695338 16822,-6695164 16828,-6695120 16829,-6695078 16828,-6695061 16826,-6695044 16820,-6695019 16784,-6694921 16767,-6694888 16760,-6694880 16756,-6694878 16751,-6694876 16734,-6694875 16726,-6694874 16720,-6694871 16715,-6694867 16711,-6694863 16697,-6694838 16693,-6694828 16693,-6694828 16684,-6694800 16674,-6694751 16663,-6694673 16659,-6694656 16654,-6694642 16647,-6694629 16641,-6694619 16617,-6694592 16604,-6694575 16642,-6694491 16670,-6694436 16879,-6694398 16976,-6694382 17117,-6694366 17101,-6694333 17094,-6694317 17088,-6694297 17081,-6694271 17075,-6694243 17071,-6694228 17063,-6694175 17038,-6694003 17024,-6693910 16927,-6693903 16875,-6693904 16829,-6693915 16778,-6693927 16705,-6693952 16621,-6693987 16585,-6693895 16575,-6693870 16567,-6693874 16545,-6693888 16474,-6693928 16405,-6693962 16321,-6693995 16242,-6694027 16220,-6694031 16204,-6694036 16204,-6694044 16204,-6694045 16167,-6694061 16109,-6694093 16078,-6694113 16053,-6694129 15999,-6694160 15876,-6694228 15826,-6694258 15807,-6694268 15752,-6694297 15653,-6694353 15627,-6694365 15583,-6694388 15553,-6694402 15506,-6694420 15491,-6694428 15459,-6694448 15432,-6694476 15404,-6694501 15384,-6694512 15364,-6694529 15332,-6694553 15312,-6694565 15259,-6694598 15239,-6694604 15181,-6694652 15139,-6694681 15063,-6694733 14955,-6694812 14955,-6694822 14934,-6694828 14912,-6694839 14886,-6694851 14831,-6694880 14787,-6694901 14745,-6694917 14712,-6694928 14682,-6694937 14645,-6694947 14507,-6694982 14449,-6694998 14366,-6695016 14277,-6695027 14252,-6695028 14223,-6695027 14198,-6695028 14181,-6695025 14168,-6695021 14155,-6695013 14142,-6695005 14130,-6694998 14123,-6694991 14108,-6694976 14098,-6694967 14064,-6694984 14056,-6694992 14047,-6694998 14017,-6694999 13993,-6694998 13974,-6694995 13962,-6694995 13955,-6694989 13926,-6694978 13896,-6694966 13870,-6694960 13813,-6694931 13703,-6694874 13633,-6694842 13585,-6694823 13560,-6694814 13442,-6694777 13379,-6694756 13348,-6694749 13304,-6694738 13257,-6694729 13233,-6694725 13203,-6694722 13157,-6694718 13136,-6694716 13059,-6694715 13017,-6694710 12958,-6694711 12918,-6694707 12808,-6694693 12731,-6694692 12644,-6694693 12635,-6694686 12593,-6694660 12532,-6694680 12528,-6694694 12525,-6694707 12507,-6694716 12479,-6694726 12444,-6694732 12393,-6694743 12286,-6694770 12202,-6694794 12196,-6694789 12122,-6694816 12063,-6694836 11983,-6694870 11970,-6694876 11937,-6694891 11914,-6694900 11915,-6694918 11915,-6694922 11847,-6694955 11768,-6694997 11659,-6695057 11633,-6695072 11594,-6695097 11559,-6695120 11549,-6695126 11526,-6695141 11507,-6695152 11494,-6695161 11481,-6695176 11467,-6695191 11452,-6695210 11436,-6695231 11426,-6695239 11424,-6695240 11415,-6695243 11407,-6695240 11401,-6695250 11406,-6695254 11407,-6695259 11407,-6695259 11388,-6695279 11256,-6695381 11184,-6695432 11080,-6695514 10987,-6695592 10960,-6695616 10917,-6695657 10845,-6695722 10769,-6695786 10761,-6695794 10651,-6695888 10562,-6695969 10555,-6695975 10496,-6696031 10494,-6696038 10493,-6696043 10476,-6696060 10454,-6696078 10421,-6696107 10390,-6696134 10352,-6696173 10341,-6696189 10287,-6696245 10254,-6696283 10222,-6696320 10194,-6696351 10183,-6696363 10157,-6696386 10138,-6696407 10125,-6696421 10125,-6696422 10094,-6696447 10080,-6696463 10055,-6696491 10028,-6696520 10000,-6696559 9954,-6696615 9923,-6696651 9903,-6696678 9880,-6696708 9868,-6696731 9785,-6696839 9753,-6696878 9732,-6696907 9715,-6696929 9680,-6696984 9628,-6697064 9573,-6697158 9532,-6697228 9481,-6697314 9400,-6697470 9353,-6697558 9316,-6697622 9294,-6697654 9258,-6697695 9231,-6697721 9198,-6697747 9149,-6697773 9064,-6697812 9019,-6697833 8987,-6697849 8965,-6697849 8951,-6697846 8949,-6697858 8846,-6697897 8575,-6697995 8416,-6698057 8390,-6698066 8386,-6698067 8313,-6698095 8317,-6698100 8327,-6698116 8333,-6698124 8341,-6698127 8357,-6698141 8399,-6698192 8421,-6698220 8451,-6698253 8472,-6698300 8424,-6698358 8429,-6698362 8453,-6698381 8506,-6698426 8495,-6698441 8450,-6698507 8519,-6698578 8509,-6698583 8508,-6698584 8463,-6698626 8424,-6698668 8402,-6698695 8347,-6698757 8352,-6698762 8452,-6698863 8520,-6698935 8523,-6698939 8566,-6698914 8583,-6698905 8608,-6698895 8665,-6698862 8682,-6698891 8701,-6698923 8720,-6698962 8732,-6698981 8734,-6698984 8741,-6698995 8762,-6699035 8778,-6699077 8786,-6699103 8801,-6699135 8797,-6699139 8780,-6699157 8773,-6699163 8776,-6699166 8804,-6699197 8813,-6699213 8825,-6699225 8848,-6699256 8861,-6699273 8851,-6699296 8864,-6699301 8875,-6699308 8882,-6699314 8883,-6699316 8887,-6699321 8911,-6699357 8901,-6699364 8902,-6699366 8903,-6699370 8920,-6699397 8930,-6699414 8923,-6699419 8912,-6699427 8913,-6699429 8941,-6699465 8962,-6699492 8953,-6699500 8954,-6699502 9003,-6699569 9056,-6699530 9091,-6699503 9107,-6699490 9112,-6699496 9195,-6699596 9219,-6699626 9235,-6699651 9269,-6699692 9372,-6699817 9400,-6699855 9267,-6699969 9232,-6699993 9223,-6700004 9234,-6700019 9253,-6700043 9239,-6700061 9236,-6700066 9221,-6700084 9246,-6700108 9266,-6700129 9316,-6700078 9392,-6700009 9433,-6699963 9464,-6699985 9499,-6700002 9496,-6700008 9525,-6700023 9548,-6700031 9612,-6700074 9626,-6700076 9678,-6700079 9730,-6700076 9712,-6700133 9679,-6700196 9665,-6700234 9651,-6700282 9632,-6700333 9619,-6700386 9609,-6700445 9616,-6700451 9638,-6700459 9653,-6700463 9666,-6700470 9676,-6700485 9695,-6700498 9719,-6700523 9727,-6700541 9727,-6700558 9727,-6700584 9746,-6700609 9773,-6700643 9789,-6700673 9799,-6700711 9803,-6700763 9803,-6700837 9788,-6700956 9786,-6701000 9780,-6701043 9733,-6701193 9691,-6701276 9665,-6701363 9668,-6701407 9666,-6701455 9656,-6701559 9649,-6701606 9648,-6701620 9644,-6701673 9640,-6701724 9633,-6701808 9624,-6701889 9619,-6701955 9609,-6702058 9606,-6702097 9603,-6702123 9597,-6702148 9585,-6702187 9582,-6702221 9583,-6702247 9579,-6702273 9578,-6702286 9576,-6702315 9556,-6702389 9540,-6702453 9541,-6702470 9463,-6702499 9342,-6702544 9242,-6702586 9154,-6702626 9066,-6702671 9005,-6702712 8995,-6702720 8955,-6702752 8880,-6702823 8865,-6702812 8853,-6702826 8777,-6702912 8760,-6702938 8756,-6702943 8840,-6702960 9000,-6702993 9228,-6703039 9204,-6703082 9184,-6703130 9176,-6703161 9165,-6703194 9161,-6703211 9158,-6703230 9156,-6703245 9156,-6703265 9156,-6703281 9160,-6703345 9160,-6703356 9162,-6703412 9165,-6703461 9172,-6703523 9177,-6703542 9190,-6703603 9198,-6703652 9201,-6703715 9196,-6703764 9183,-6703807 9152,-6703899 9150,-6703915 9147,-6703983 9153,-6704087 9153,-6704152 9152,-6704215 9155,-6704236 9161,-6704250 9164,-6704255 9266,-6704227 9302,-6704308 9351,-6704417 9390,-6704502 9413,-6704556 9442,-6704629 9477,-6704625 9484,-6704641 9514,-6704693 9550,-6704754 9578,-6704774 9614,-6704798 9644,-6704820 9688,-6704847 9717,-6704858 9754,-6704871 9810,-6704892 9864,-6704913 9898,-6704926 9915,-6704931 9970,-6704983 10002,-6705010 10033,-6705043 10081,-6705091 10119,-6705130 10153,-6705165 10145,-6705177 10143,-6705183 10154,-6705195 10157,-6705206 10164,-6705209 10166,-6705217 10162,-6705224 10177,-6705231 10193,-6705246 10215,-6705261 10228,-6705272 10237,-6705273 10241,-6705280 10259,-6705294 10297,-6705310 10321,-6705326 10337,-6705344 10374,-6705383 10421,-6705405 10449,-6705416 10466,-6705423 10490,-6705433 10519,-6705441 10539,-6705440 10579,-6705443 10617,-6705441 10652,-6705437 10750,-6705433 10752,-6705438 10779,-6705550 10790,-6705587 10810,-6705599 10838,-6705664 10854,-6705689 10914,-6705771 10923,-6705787 10930,-6705813 10937,-6705832 10991,-6705830 11050,-6705822 11110,-6705804 11157,-6705791 11240,-6705745 11294,-6705716 11295,-6705695 11323,-6705659 11329,-6705657 11337,-6705654 11357,-6705655 11409,-6705736 11418,-6705728 11418,-6705729 11432,-6705717 11477,-6705678 11478,-6705678 11484,-6705673 11499,-6705673 11501,-6705674 11510,-6705678 11548,-6705708 11564,-6705722 11594,-6705755 11634,-6705788 11656,-6705817 11670,-6705840 11679,-6705843 11712,-6705793 11762,-6705833 11821,-6705752 11845,-6705774 11902,-6705811 11920,-6705820 11932,-6705835 11936,-6705849 11944,-6705869 11951,-6705881 11958,-6705887 11975,-6705900 11988,-6705914 11988,-6705927 12044,-6705948 12050,-6705951 12051,-6705947 12058,-6705930 12078,-6705882 12105,-6705832 12133,-6705797 12179,-6705752 12220,-6705706 12251,-6705662 12289,-6705604 12311,-6705574 12324,-6705556 12339,-6705540 12346,-6705531 12385,-6705489 12433,-6705444 12445,-6705427 12468,-6705405 12497,-6705440 12529,-6705473 12533,-6705477 12564,-6705522 12582,-6705552 12589,-6705568 12607,-6705607 12639,-6705669 12665,-6705724 12671,-6705735 12696,-6705784 12731,-6705817 12763,-6705845 12807,-6705883 12810,-6705886 12813,-6705891 12842,-6705935 12859,-6705957 12878,-6705986 12928,-6706072 12966,-6706131 13007,-6706195 13037,-6706246 13157,-6706407 13189,-6706450 13233,-6706428 13260,-6706415 13266,-6706413 13291,-6706408 13328,-6706397 13347,-6706394 13387,-6706393 13427,-6706384 13442,-6706377 13473,-6706357 13515,-6706330 13557,-6706305 13568,-6706298 13608,-6706267 13652,-6706239 13688,-6706211 13744,-6706165 13770,-6706136 13786,-6706117 13794,-6706104 13812,-6706073 13824,-6706075 13811,-6706127 13803,-6706159 13796,-6706190 13774,-6706297 13746,-6706410 13729,-6706481 13693,-6706638 13655,-6706794 13640,-6706865 13609,-6706974 13599,-6707042 13594,-6707077 13590,-6707134 13592,-6707286 13591,-6707439 13592,-6707638 13586,-6707691 13580,-6707729 13578,-6707738 13530,-6707953 13524,-6707987 13522,-6708009 13522,-6708027 13523,-6708045 13528,-6708077 13532,-6708172 13531,-6708189 13530,-6708207 13520,-6708251 13510,-6708391 13505,-6708530 13503,-6708625 13499,-6708671 13498,-6708893 13493,-6709019 13494,-6709091 13491,-6709361 13482,-6709539 13481,-6709556 13477,-6709745 13475,-6710011 13472,-6710173 13470,-6710357 13464,-6710461 13463,-6710516 13463,-6710570 13466,-6710654 13464,-6710769 13456,-6710898 13453,-6711100 13455,-6711304 13448,-6711404 13444,-6711474 13439,-6711620 13440,-6711730 13438,-6711776 13437,-6711821 13431,-6711908 13428,-6711966 13425,-6712024 13421,-6712194 13384,-6712265 13258,-6712495 13171,-6712648 13284,-6712717 13359,-6712763 13410,-6712791 13446,-6712810 13484,-6712828 13537,-6712851 13564,-6712862 13610,-6712880 13688,-6712912 13736,-6712929 13791,-6712945 13850,-6712959 13941,-6712978 13948,-6712979 13949,-6712979 14062,-6712985 14141,-6712992 14220,-6712997 14277,-6712998 14341,-6712997 14363,-6712995 14533,-6712979 14674,-6712953 14774,-6712938 14874,-6712902 15134,-6712829 15236,-6712789 15364,-6712736 15481,-6712681 15579,-6712617 15684,-6712552 15847,-6712452 15972,-6712366 16093,-6712291 16351,-6712136 16488,-6712072 16611,-6712023 16694,-6711989 16824,-6711950 16991,-6711893 17063,-6711874 17220,-6711843 17414,-6711806 17577,-6711787 17585,-6711786 17820,-6711777 17871,-6711768 17900,-6711762 17939,-6711752 17978,-6711739 18006,-6711730 18095,-6711698 18213,-6711653 18248,-6711635 18352,-6711580 18388,-6711562 18444,-6711533 18583,-6711457 18649,-6711417 18697,-6711385 18760,-6711341 18809,-6711304 18836,-6711282 18890,-6711238 18916,-6711215 18966,-6711167 19007,-6711122 19214,-6710872 19238,-6710837 19281,-6710771 19313,-6710726 19386,-6710607 19413,-6710560 19443,-6710504 19464,-6710460 19478,-6710425 19535,-6710272 19564,-6710183 19582,-6710078 19585,-6710069 19602,-6709993 19624,-6709913 19629,-6709896 19658,-6709819 19664,-6709801 19694,-6709689 19708,-6709615 19727,-6709462 19783,-6709125 19798,-6709025 19805,-6708981 19823,-6708895 19845,-6708806 19856,-6708759 19876,-6708692 19930,-6708512 19992,-6708355 20042,-6708245 20101,-6708124 20132,-6708074 20155,-6708040 20224,-6707952 20279,-6707889 20311,-6707854 20336,-6707829 20411,-6707756 20485,-6707698 20576,-6707631 20613,-6707607 20647,-6707586 20722,-6707542 20747,-6707529 20805,-6707500 20849,-6707475 20870,-6707465 20886,-6707459 20950,-6707438 20972,-6707435 21090,-6707417 21150,-6707406 21182,-6707402" stroke="#003087" stroke-width="35" /></svg>