<?xml version="1.0" standalone="no"?>
<!DOCTYPE svg PUBLIC "-//W3C//DTD SVG 1.1//EN"
"http://www.w3.org/Graphics/SVG/1.1/DTD/svg11.dtd">
<svg height="115" version="1.1" viewBox="-368478 -6768632 22718 25932" width="220" xmlns="http://www.w3.org/2000/svg"><polygon fill="#003087" points=" -360783,-6766380 -360539,-6766267 -360052,-6766293 -358346,-6766396 -357822,-6766427 -357147,-6766469 -357098,-6766485 -356998,-6766520 -356984,-6766521 -356957,-6766521 -356950,-6766520 -356920,-6766507 -356907,-6766500 -356875,-6766476 -356827,-6766443 -356804,-6766430 -356780,-6766414 -356772,-6766409 -356736,-6766399 -356709,-6766382 -356693,-6766376 -356667,-6766369 -356641,-6766367 -356631,-6766366 -356618,-6766372 -356607,-6766372 -356597,-6766365 -356588,-6766361 -356569,-6766354 -356559,-6766352 -356505,-6766343 -356460,-6766358 -356457,-6766360 -356446,-6766358 -356401,-6766350 -356361,-6766344 -356238,-6766356 -356153,-6766360 -356029,-6766367 -355774,-6766383 -355635,-6766391 -355608,-6766393 -355593,-6766394 -355388,-6766420 -355340,-6766428 -354180,-6766591 -353238,-6766719 -352695,-6766794 -351987,-6766887 -351474,-6766933 -351466,-6766911 -351456,-6766775 -351423,-6766759 -351407,-6766737 -351358,-6766735 -351342,-6766733 -351245,-6766699 -351228,-6766685 -351207,-6766663 -351174,-6766656 -351157,-6766631 -351139,-6766594 -351083,-6766585 -351039,-6766574 -350986,-6766554 -350904,-6766534 -350886,-6766514 -350862,-6766508 -350835,-6766478 -350812,-6766470 -350797,-6766439 -350792,-6766410 -350769,-6766386 -350737,-6766366 -350711,-6766333 -350702,-6766311 -350699,-6766303 -350695,-6766276 -350694,-6766237 -350697,-6766205 -350694,-6766148 -350655,-6766109 -350658,-6766091 -350652,-6766073 -350639,-6766059 -350631,-6766036 -350627,-6765973 -350622,-6765965 -350621,-6765912 -350639,-6765898 -350674,-6765821 -350665,-6765782 -350693,-6765743 -350710,-6765732 -350740,-6765720 -350748,-6765712 -350754,-6765702 -350757,-6765690 -350758,-6765656 -350769,-6765647 -350762,-6765616 -350761,-6765580 -350785,-6765560 -350791,-6765523 -350804,-6765466 -350801,-6765449 -350782,-6765424 -350791,-6765400 -350788,-6765390 -350762,-6765370 -350739,-6765341 -350687,-6765320 -350669,-6765307 -350653,-6765294 -350628,-6765291 -350594,-6765291 -350585,-6765280 -350557,-6765250 -350503,-6765223 -350475,-6765213 -350450,-6765216 -350420,-6765204 -350398,-6765178 -350359,-6765149 -350355,-6765125 -350329,-6765078 -350286,-6765037 -350277,-6765022 -350254,-6765005 -350199,-6764936 -350191,-6764888 -350217,-6764899 -350273,-6764902 -350288,-6764894 -350302,-6764873 -350315,-6764864 -350364,-6764857 -350381,-6764859 -350387,-6764815 -350397,-6764792 -350420,-6764793 -350441,-6764771 -350477,-6764748 -350485,-6764732 -350513,-6764709 -350629,-6764707 -350635,-6764699 -350664,-6764705 -350761,-6764714 -350834,-6764718 -350873,-6764717 -350965,-6764709 -350989,-6764705 -350971,-6764593 -350988,-6764555 -350995,-6764548 -351001,-6764541 -351056,-6764515 -351040,-6764497 -351028,-6764474 -351031,-6764450 -351023,-6764435 -351010,-6764419 -350963,-6764389 -350914,-6764362 -350943,-6764294 -350924,-6764269 -350911,-6764141 -350912,-6764122 -350919,-6764114 -350883,-6764017 -350792,-6763980 -350768,-6763979 -350690,-6763983 -350576,-6763989 -350618,-6763818 -350649,-6763819 -350683,-6763832 -350712,-6763835 -350749,-6763836 -350769,-6763833 -350849,-6763814 -350981,-6763705 -351106,-6763704 -351140,-6763589 -351177,-6763562 -351179,-6763546 -351195,-6763526 -351262,-6763404 -351280,-6763387 -351304,-6763378 -351376,-6763371 -351398,-6763366 -351418,-6763355 -351420,-6763339 -351326,-6763342 -351243,-6763342 -351191,-6763338 -351157,-6763334 -351134,-6763326 -351105,-6763312 -351077,-6763300 -351015,-6763275 -350993,-6763268 -350976,-6763266 -350969,-6763267 -350858,-6763283 -350752,-6763298 -350724,-6763303 -350691,-6763305 -350669,-6763304 -350656,-6763302 -350642,-6763298 -350625,-6763291 -350580,-6763279 -350558,-6763270 -350547,-6763265 -350451,-6763208 -350444,-6763204 -350427,-6763196 -350404,-6763188 -350359,-6763179 -350305,-6763163 -350286,-6763158 -350217,-6763133 -350185,-6763123 -350158,-6763117 -350103,-6763107 -350000,-6763101 -349839,-6763090 -349795,-6763094 -349769,-6763093 -349753,-6763095 -349741,-6763096 -349729,-6763094 -349718,-6763092 -349703,-6763086 -349682,-6763080 -349652,-6763067 -349639,-6763061 -349608,-6763042 -349524,-6762995 -349487,-6762963 -349415,-6762868 -349380,-6762827 -349363,-6762814 -349342,-6762802 -349264,-6762787 -349221,-6762781 -349205,-6762780 -349155,-6762777 -349023,-6762777 -348992,-6762774 -348942,-6762765 -348913,-6762759 -348914,-6762752 -348906,-6762751 -348896,-6762749 -348922,-6762709 -348897,-6762688 -348930,-6762649 -348982,-6762645 -349015,-6762627 -349044,-6762630 -349069,-6762611 -349100,-6762578 -349130,-6762556 -349373,-6762271 -349621,-6761971 -349728,-6761844 -349848,-6761694 -349940,-6761589 -349980,-6761541 -349973,-6761533 -349507,-6760965 -349052,-6760418 -348528,-6759794 -347745,-6758850 -347740,-6758844 -347701,-6758820 -347082,-6758254 -346440,-6757674 -346108,-6757373 -345777,-6757076 -345770,-6757071 -346519,-6756706 -346755,-6756591 -346761,-6756547 -346754,-6756523 -346757,-6756476 -346752,-6756434 -346758,-6756405 -346781,-6756377 -346781,-6756349 -346764,-6756302 -346762,-6756260 -346751,-6756241 -346758,-6756205 -346743,-6756179 -346748,-6756169 -346748,-6756154 -346753,-6756144 -346744,-6756129 -346745,-6756103 -346743,-6756090 -346744,-6756069 -346747,-6756048 -346745,-6756039 -346737,-6756032 -346735,-6756015 -346740,-6756010 -346729,-6755984 -346729,-6755949 -346720,-6755942 -346718,-6755933 -346729,-6755931 -346729,-6755924 -346690,-6755897 -346636,-6755838 -346615,-6755829 -346607,-6755821 -346609,-6755804 -346598,-6755784 -346581,-6755783 -346551,-6755768 -346528,-6755743 -346501,-6755734 -346470,-6755705 -346458,-6755681 -346443,-6755666 -346433,-6755663 -346417,-6755671 -346409,-6755668 -346404,-6755646 -346404,-6755621 -346399,-6755617 -346384,-6755625 -346377,-6755619 -346383,-6755608 -346388,-6755587 -346362,-6755581 -346351,-6755565 -346351,-6755507 -346343,-6755468 -346346,-6755457 -346305,-6755382 -346289,-6755339 -346251,-6755294 -346215,-6755249 -346208,-6755203 -346212,-6755142 -346207,-6755103 -346218,-6755069 -346213,-6755022 -346210,-6754987 -346216,-6754952 -346225,-6754929 -346241,-6754915 -346246,-6754898 -346249,-6754867 -346255,-6754848 -346269,-6754808 -346278,-6754769 -346282,-6754729 -346291,-6754686 -346300,-6754658 -346308,-6754629 -346319,-6754586 -346302,-6754558 -346303,-6754492 -346318,-6754441 -346328,-6754405 -346331,-6754381 -346330,-6754352 -346317,-6754307 -346310,-6754211 -346305,-6754184 -346296,-6754159 -346252,-6754079 -346200,-6753991 -346173,-6753951 -346141,-6753918 -346063,-6753861 -346038,-6753849 -345970,-6753827 -345946,-6753814 -345882,-6753727 -345846,-6753683 -345826,-6753637 -345801,-6753566 -345804,-6753531 -345811,-6753485 -345821,-6753410 -345831,-6753355 -345837,-6753317 -345847,-6753288 -345850,-6753195 -345860,-6753147 -345881,-6753103 -345889,-6753072 -345893,-6753028 -345910,-6752978 -345914,-6752935 -345937,-6752895 -345952,-6752829 -345955,-6752767 -345974,-6752712 -345995,-6752680 -346021,-6752632 -346046,-6752600 -346082,-6752568 -346145,-6752529 -346217,-6752469 -346276,-6752405 -346301,-6752375 -346318,-6752369 -346395,-6752326 -346419,-6752314 -346416,-6752298 -346388,-6752135 -346354,-6751958 -346298,-6751648 -346265,-6751452 -346243,-6751330 -346222,-6751205 -346212,-6751174 -346157,-6751101 -346102,-6751033 -346088,-6751005 -346073,-6750962 -346064,-6750919 -346063,-6750855 -346065,-6750813 -346059,-6750770 -346053,-6750719 -346056,-6750670 -346069,-6750602 -346073,-6750559 -346072,-6750535 -346075,-6750506 -346098,-6750434 -346142,-6750338 -346163,-6750294 -346169,-6750264 -346171,-6750225 -346164,-6750188 -346137,-6750086 -346114,-6750031 -346097,-6750011 -346066,-6749984 -345924,-6749843 -345880,-6749806 -345851,-6749789 -345836,-6749781 -345821,-6749774 -345760,-6749747 -345940,-6749611 -346139,-6749457 -346210,-6749394 -346215,-6749389 -346214,-6749346 -346208,-6749291 -346202,-6749237 -346189,-6749169 -346172,-6749116 -346150,-6749055 -346090,-6748941 -346057,-6748889 -346018,-6748830 -345962,-6748769 -345989,-6748473 -346015,-6748163 -346046,-6747744 -346072,-6747442 -346074,-6747419 -346116,-6746927 -346147,-6746593 -346149,-6746470 -346182,-6746402 -346199,-6746382 -346249,-6746284 -346279,-6746249 -346437,-6746038 -346570,-6745878 -346612,-6745830 -346640,-6745791 -346664,-6745753 -346697,-6745719 -346729,-6745684 -346770,-6745602 -346794,-6745546 -346805,-6745508 -346780,-6745476 -346757,-6745441 -346731,-6745386 -346694,-6745365 -346747,-6745307 -346838,-6745220 -346949,-6745129 -346989,-6745085 -346999,-6745052 -347012,-6745002 -347015,-6744970 -347023,-6744914 -347024,-6744869 -347020,-6744810 -347013,-6744774 -346998,-6744728 -346976,-6744677 -346980,-6744655 -346993,-6744599 -346991,-6744564 -346971,-6744526 -346924,-6744451 -346886,-6744414 -346884,-6744410 -346935,-6744372 -347059,-6744291 -347083,-6744269 -347089,-6744250 -347091,-6744200 -347079,-6744168 -347069,-6744159 -347070,-6744144 -347162,-6744132 -347177,-6744104 -347233,-6744033 -347236,-6744020 -347237,-6744019 -347251,-6744013 -347257,-6744001 -347280,-6743980 -347312,-6743930 -347336,-6743908 -347366,-6743919 -347430,-6743824 -347561,-6743662 -347674,-6743552 -347686,-6743533 -347612,-6743450 -347584,-6743432 -347470,-6743363 -347504,-6743324 -347524,-6743258 -347543,-6743178 -347567,-6743187 -347584,-6743150 -347603,-6743127 -347626,-6743106 -347645,-6743092 -347725,-6743053 -347721,-6743017 -347795,-6743034 -347784,-6743001 -347799,-6742993 -347818,-6742974 -347865,-6742946 -347927,-6742945 -347928,-6742918 -347943,-6742862 -347943,-6742847 -348058,-6742827 -348161,-6742793 -348241,-6742753 -348253,-6742755 -348254,-6742766 -348302,-6742753 -348401,-6742732 -348502,-6742723 -348590,-6742713 -348748,-6742704 -348946,-6742701 -349024,-6742700 -349049,-6742704 -349116,-6742720 -349136,-6742728 -349170,-6742742 -349249,-6742786 -349283,-6742816 -349349,-6742886 -349379,-6742928 -349401,-6742974 -349420,-6743017 -349435,-6743070 -349443,-6743106 -349449,-6743180 -349448,-6743244 -349441,-6743275 -349423,-6743330 -349406,-6743366 -349373,-6743425 -349342,-6743470 -349299,-6743525 -349287,-6743538 -349198,-6743629 -349144,-6743681 -348987,-6743816 -348840,-6743946 -348685,-6744080 -348742,-6744135 -348803,-6744193 -348768,-6744227 -348730,-6744253 -348664,-6744327 -348576,-6744433 -348465,-6744576 -348348,-6744705 -348291,-6744769 -348264,-6744810 -348242,-6744849 -348218,-6744905 -348206,-6744955 -348204,-6745008 -348208,-6745064 -348223,-6745121 -348239,-6745162 -348277,-6745229 -348326,-6745304 -348399,-6745400 -348423,-6745436 -348505,-6745529 -348622,-6745642 -348637,-6745656 -348707,-6745714 -348765,-6745756 -348811,-6745786 -348890,-6745825 -348944,-6745845 -348987,-6745856 -349025,-6745865 -349121,-6745881 -349237,-6745902 -349316,-6745919 -349365,-6745931 -349441,-6745958 -349531,-6746000 -349627,-6746056 -349761,-6746143 -349774,-6746152 -349875,-6746219 -350041,-6746327 -350148,-6746407 -350185,-6746444 -350228,-6746492 -350251,-6746538 -350276,-6746608 -350285,-6746660 -350288,-6746715 -350283,-6746715 -350280,-6746786 -350250,-6747011 -350238,-6747102 -350230,-6747188 -350226,-6747281 -350224,-6747461 -350229,-6747657 -350236,-6747711 -350254,-6747772 -350285,-6747829 -350297,-6747844 -350359,-6747905 -350407,-6747893 -350432,-6747888 -350457,-6747885 -350505,-6747887 -350550,-6747897 -350614,-6747915 -350649,-6747919 -350693,-6747910 -350748,-6747898 -350790,-6747888 -350818,-6747887 -350838,-6747891 -350881,-6747908 -350935,-6747945 -350967,-6747981 -350980,-6747999 -351002,-6748041 -351032,-6748089 -351152,-6748206 -351215,-6748265 -351267,-6748312 -351303,-6748356 -351309,-6748393 -351321,-6748464 -351340,-6748535 -351364,-6748571 -351412,-6748573 -351425,-6748568 -351454,-6748539 -351483,-6748513 -351508,-6748453 -351523,-6748438 -351539,-6748437 -351584,-6748449 -351614,-6748452 -351681,-6748434 -351694,-6748421 -351738,-6748397 -351787,-6748363 -351834,-6748327 -351860,-6748306 -351890,-6748300 -351899,-6748297 -351912,-6748287 -351934,-6748281 -351933,-6748262 -352003,-6748213 -352054,-6748196 -352104,-6748168 -352103,-6748117 -352168,-6748082 -352189,-6748072 -352218,-6748057 -352283,-6748031 -352437,-6747979 -352486,-6747941 -352518,-6747911 -352576,-6747840 -352646,-6747934 -352735,-6748070 -352782,-6748151 -352819,-6748224 -352827,-6748243 -352834,-6748262 -352845,-6748308 -352859,-6748330 -352917,-6748423 -352940,-6748469 -352960,-6748517 -352964,-6748549 -352973,-6748581 -352996,-6748629 -353029,-6748693 -353101,-6748806 -353108,-6748815 -353118,-6748821 -353281,-6748903 -353296,-6748960 -353290,-6748969 -353305,-6749020 -353336,-6749109 -353348,-6749110 -353366,-6749113 -353413,-6749133 -353410,-6749167 -353448,-6749172 -353457,-6749204 -353472,-6749233 -353560,-6749240 -353624,-6749297 -353785,-6749428 -353882,-6749514 -353749,-6749587 -353791,-6749647 -353850,-6749719 -353804,-6749765 -353861,-6749831 -353931,-6749903 -353964,-6749934 -353975,-6749966 -353989,-6749996 -354031,-6750054 -354067,-6750026 -354167,-6749980 -354145,-6750061 -354138,-6750092 -354132,-6750124 -354125,-6750186 -354115,-6750224 -354136,-6750226 -354142,-6750296 -354161,-6750365 -354209,-6750386 -354278,-6750410 -354276,-6750448 -354283,-6750473 -354319,-6750507 -354341,-6750558 -354358,-6750594 -354371,-6750589 -354379,-6750580 -354387,-6750570 -354402,-6750543 -354518,-6750683 -354593,-6750773 -354587,-6750784 -354572,-6750804 -354564,-6750814 -354528,-6750822 -354521,-6750823 -354531,-6750860 -354538,-6750889 -354564,-6750939 -354630,-6751089 -354671,-6751050 -354698,-6751090 -354734,-6751138 -354758,-6751177 -354767,-6751207 -354767,-6751233 -354768,-6751238 -354770,-6751243 -354784,-6751249 -354818,-6751338 -354875,-6751470 -354992,-6751746 -355197,-6752234 -355340,-6752563 -355440,-6752810 -355451,-6752826 -355512,-6752985 -355562,-6753117 -355574,-6753130 -355612,-6753173 -355795,-6753369 -356548,-6754190 -356710,-6754366 -357000,-6754679 -357112,-6754805 -357350,-6755064 -357429,-6754976 -357441,-6754955 -357517,-6754869 -357537,-6754836 -357603,-6754775 -357660,-6754700 -357732,-6754647 -357809,-6754622 -357827,-6754624 -357836,-6754632 -357843,-6754632 -357852,-6754629 -357884,-6754607 -357911,-6754599 -357953,-6754661 -357974,-6754649 -357996,-6754648 -358026,-6754632 -358033,-6754622 -358055,-6754597 -358064,-6754582 -358084,-6754566 -358094,-6754540 -358130,-6754461 -358137,-6754436 -358156,-6754417 -358164,-6754402 -358214,-6754379 -358258,-6754364 -358247,-6754267 -358394,-6754197 -358404,-6754193 -358408,-6754163 -358399,-6754131 -358382,-6754112 -358335,-6754076 -358307,-6754043 -358286,-6753983 -358267,-6753957 -358160,-6753839 -358130,-6753790 -358130,-6753749 -358155,-6753689 -358151,-6753591 -358133,-6753534 -358124,-6753454 -358116,-6753421 -358095,-6753355 -358040,-6753206 -358023,-6753141 -358002,-6753071 -357983,-6753013 -357967,-6752974 -357943,-6752911 -357932,-6752864 -357919,-6752835 -357878,-6752786 -357860,-6752760 -357835,-6752724 -357792,-6752647 -357757,-6752597 -357730,-6752528 -357713,-6752474 -357698,-6752393 -357688,-6752349 -357676,-6752322 -357660,-6752294 -357631,-6752254 -357598,-6752181 -357549,-6752129 -357534,-6752107 -357519,-6752065 -357512,-6752036 -357512,-6751999 -357516,-6751985 -357540,-6751938 -357547,-6751907 -357548,-6751877 -357546,-6751849 -357542,-6751828 -357531,-6751802 -357488,-6751731 -357473,-6751691 -357449,-6751599 -357433,-6751578 -357458,-6751577 -357489,-6751618 -357508,-6751674 -357625,-6751646 -357667,-6751667 -357706,-6751666 -357690,-6751640 -357730,-6751637 -357795,-6751559 -357856,-6751539 -357868,-6751531 -357904,-6751530 -358032,-6751493 -358053,-6751478 -358069,-6751448 -358098,-6751358 -358111,-6751312 -358151,-6751318 -358190,-6751321 -358232,-6751320 -358285,-6751287 -358313,-6751267 -358323,-6751249 -358333,-6751199 -358345,-6751156 -358370,-6751096 -358381,-6751065 -358416,-6750991 -358433,-6750997 -358479,-6751032 -358536,-6751068 -358614,-6751124 -358698,-6751195 -358761,-6751262 -358783,-6751272 -358899,-6751299 -358879,-6751231 -358856,-6751093 -358847,-6750999 -358840,-6750899 -358825,-6750759 -358810,-6750610 -358787,-6750418 -358777,-6750335 -358763,-6750223 -358761,-6750213 -358770,-6750212 -358782,-6750277 -358832,-6750514 -358844,-6750560 -358860,-6750597 -358887,-6750654 -358957,-6750781 -359050,-6750939 -359100,-6751023 -359145,-6751104 -359187,-6751179 -359205,-6751230 -359215,-6751299 -359204,-6751355 -359142,-6751610 -359117,-6751713 -359113,-6751747 -359116,-6751782 -359144,-6751816 -359197,-6751859 -359285,-6751928 -359343,-6751975 -359386,-6752003 -359445,-6752032 -359519,-6752055 -359699,-6752107 -359768,-6752133 -359814,-6752145 -359853,-6752173 -359896,-6752232 -359919,-6752292 -359932,-6752338 -359933,-6752357 -359934,-6752371 -359932,-6752618 -359938,-6752663 -359974,-6752778 -360012,-6752854 -360041,-6752892 -360094,-6752933 -360182,-6752991 -360261,-6753014 -360411,-6753105 -360502,-6753171 -360575,-6753246 -360660,-6753335 -360736,-6753404 -360827,-6753490 -360979,-6753612 -361038,-6753661 -361063,-6753684 -361069,-6753677 -361077,-6753672 -361094,-6753673 -361107,-6753682 -361105,-6753696 -361161,-6753776 -361206,-6753820 -361244,-6753839 -361281,-6753837 -361315,-6753838 -361393,-6753865 -361397,-6753868 -361493,-6753923 -361521,-6753942 -361620,-6753999 -361556,-6754088 -361542,-6754095 -361471,-6754198 -361458,-6754248 -361458,-6754314 -361465,-6754326 -361508,-6754357 -361619,-6754418 -361632,-6754418 -361701,-6754483 -361702,-6754513 -361698,-6754526 -361700,-6754553 -361710,-6754548 -361726,-6754534 -361752,-6754529 -361748,-6754537 -361766,-6754532 -361780,-6754525 -361802,-6754524 -361896,-6754495 -361912,-6754494 -361930,-6754485 -361946,-6754484 -361959,-6754478 -361999,-6754470 -362103,-6754432 -362103,-6754419 -362108,-6754411 -362169,-6754408 -362163,-6754496 -362168,-6754565 -362186,-6754604 -362187,-6754642 -362190,-6754655 -362190,-6754676 -362220,-6754690 -362228,-6754699 -362242,-6754725 -362241,-6754797 -362248,-6754823 -362261,-6754851 -362270,-6754857 -362294,-6754860 -362328,-6754912 -362330,-6754931 -362328,-6754962 -362336,-6754984 -362353,-6755002 -362439,-6755146 -362447,-6755200 -362476,-6755231 -362501,-6755262 -362507,-6755282 -362519,-6755298 -362532,-6755306 -362551,-6755309 -362569,-6755335 -362578,-6755355 -362586,-6755378 -362599,-6755393 -362611,-6755399 -362634,-6755457 -362650,-6755473 -362658,-6755509 -362650,-6755522 -362658,-6755533 -362688,-6755558 -362693,-6755573 -362690,-6755585 -362671,-6755598 -362669,-6755608 -362676,-6755619 -362680,-6755631 -362668,-6755649 -362668,-6755668 -362684,-6755701 -362683,-6755722 -362679,-6755730 -362650,-6755753 -362639,-6755780 -362633,-6755819 -362621,-6755827 -362600,-6755825 -362589,-6755833 -362590,-6755847 -362601,-6755865 -362598,-6755881 -362577,-6755903 -362570,-6755929 -362552,-6755955 -362549,-6755974 -362559,-6755986 -362549,-6756034 -362530,-6756081 -362505,-6756114 -362487,-6756152 -362474,-6756164 -362429,-6756187 -362423,-6756194 -362426,-6756210 -362436,-6756221 -362459,-6756240 -362463,-6756255 -362477,-6756277 -362487,-6756288 -362498,-6756281 -362511,-6756282 -362520,-6756302 -362525,-6756321 -362521,-6756328 -362537,-6756369 -362538,-6756398 -362566,-6756433 -362586,-6756435 -362586,-6756451 -362602,-6756461 -362600,-6756480 -362616,-6756506 -362622,-6756532 -362639,-6756523 -362642,-6756545 -362652,-6756557 -362671,-6756562 -362682,-6756569 -362716,-6756561 -362731,-6756569 -362763,-6756567 -362775,-6756560 -362796,-6756586 -362827,-6756590 -362845,-6756598 -362863,-6756640 -362887,-6756643 -362892,-6756655 -362910,-6756668 -362914,-6756684 -362920,-6756691 -362921,-6756705 -362974,-6756726 -362994,-6756728 -363013,-6756721 -363028,-6756731 -363033,-6756754 -363042,-6756770 -363109,-6756805 -363137,-6756804 -363152,-6756795 -363210,-6756785 -363280,-6756786 -363358,-6756777 -363399,-6756778 -363436,-6756769 -363468,-6756768 -363617,-6756739 -363654,-6756722 -363677,-6756718 -363684,-6756942 -363693,-6756976 -363726,-6757155 -363722,-6757210 -363709,-6757349 -363696,-6757500 -363739,-6757710 -363750,-6757712 -363798,-6757759 -363842,-6757801 -363855,-6757826 -363878,-6757915 -363908,-6758040 -363939,-6758152 -363977,-6758281 -364017,-6758430 -364055,-6758563 -363744,-6758784 -363825,-6759092 -363898,-6759226 -363945,-6759306 -364035,-6759464 -364287,-6759794 -364274,-6759832 -364276,-6759929 -364291,-6759991 -364305,-6760009 -364356,-6760048 -364389,-6760086 -364442,-6760123 -364532,-6760179 -364534,-6760180 -364564,-6760195 -364577,-6760198 -364592,-6760197 -364611,-6760184 -364638,-6760220 -364647,-6760227 -364656,-6760235 -364677,-6760254 -364705,-6760283 -364739,-6760345 -364768,-6760387 -364829,-6760451 -364863,-6760483 -364938,-6760519 -364972,-6760529 -365071,-6760542 -365174,-6760550 -365262,-6760461 -365303,-6760491 -365312,-6760534 -365308,-6760615 -365255,-6760722 -365301,-6760748 -365288,-6760761 -365345,-6760811 -365369,-6760850 -365393,-6760911 -365416,-6760952 -365454,-6760931 -365521,-6760897 -365550,-6760886 -365623,-6760853 -365689,-6760829 -365776,-6760783 -365908,-6760719 -365983,-6760806 -365993,-6760839 -365995,-6760877 -365995,-6760938 -365996,-6760947 -366001,-6760959 -366012,-6760977 -366041,-6761023 -366058,-6761063 -366076,-6761113 -366118,-6761292 -366144,-6761279 -366176,-6761274 -366185,-6761306 -366210,-6761342 -366225,-6761373 -366236,-6761389 -366255,-6761408 -366286,-6761440 -366307,-6761455 -366388,-6761475 -366425,-6761605 -366483,-6761790 -366488,-6761907 -366493,-6762005 -366500,-6762114 -366470,-6762228 -366466,-6762253 -366489,-6762257 -366491,-6762327 -366493,-6762338 -366497,-6762356 -366502,-6762372 -366510,-6762394 -366520,-6762415 -366531,-6762436 -366561,-6762484 -366599,-6762532 -366622,-6762567 -366636,-6762584 -366693,-6762623 -366750,-6762669 -366792,-6762695 -366828,-6762708 -366822,-6762739 -366819,-6762767 -366815,-6762794 -366807,-6762854 -366808,-6762882 -366810,-6762906 -366812,-6762924 -366832,-6762960 -366839,-6762970 -366908,-6762989 -366949,-6763007 -366999,-6763049 -367059,-6763098 -367100,-6763108 -367171,-6763109 -367239,-6763109 -367289,-6763100 -367341,-6763091 -367347,-6763217 -367360,-6763290 -367367,-6763360 -367387,-6763458 -367402,-6763527 -367435,-6763655 -367458,-6763751 -367500,-6763859 -367566,-6763854 -367626,-6763847 -367734,-6763797 -367769,-6763785 -367819,-6763781 -367867,-6763773 -367933,-6763763 -368011,-6763722 -368064,-6763684 -368080,-6763674 -368099,-6763663 -368114,-6763641 -368126,-6763630 -368131,-6763623 -368139,-6763610 -368142,-6763604 -368142,-6763595 -368140,-6763564 -368140,-6763556 -368141,-6763549 -368146,-6763532 -368174,-6763488 -368182,-6763454 -368252,-6763343 -368257,-6763325 -368274,-6763305 -368292,-6763272 -368297,-6763245 -368311,-6763224 -368316,-6763188 -368342,-6763154 -368360,-6763143 -368363,-6763117 -368404,-6763068 -368462,-6763029 -368478,-6763017 -368474,-6763104 -368465,-6763204 -368431,-6763685 -368419,-6763834 -368406,-6764033 -368379,-6764416 -368359,-6764655 -368330,-6765027 -368321,-6765119 -368310,-6765147 -368277,-6765196 -368231,-6765247 -368110,-6765398 -368098,-6765413 -367648,-6765982 -367271,-6766446 -366906,-6766901 -366070,-6767934 -365510,-6768632 -364096,-6767961 -363398,-6767631 -362908,-6767397 -362399,-6767160 -362027,-6766977 -361592,-6766771 -361506,-6766728 -361127,-6766548 -360783,-6766380" stroke="#003087" stroke-width="48" /></svg>