<?xml version="1.0" standalone="no"?>
<!DOCTYPE svg PUBLIC "-//W3C//DTD SVG 1.1//EN"
"http://www.w3.org/Graphics/SVG/1.1/DTD/svg11.dtd">
<svg height="115" version="1.1" viewBox="-378552 -7050224 53469 53871" width="220" xmlns="http://www.w3.org/2000/svg"><polygon fill="#003087" points=" -368895,-7050083 -368780,-7050047 -368707,-7050022 -368651,-7050005 -368584,-7049981 -368512,-7049953 -368355,-7049896 -368311,-7049881 -368310,-7049881 -368201,-7049828 -368154,-7049806 -368108,-7049785 -368020,-7049749 -367952,-7049716 -367872,-7049680 -367836,-7049662 -367785,-7049634 -367624,-7049532 -367553,-7049491 -367516,-7049465 -367482,-7049439 -367437,-7049399 -367357,-7049326 -367298,-7049277 -367221,-7049202 -367200,-7049183 -367156,-7049145 -367108,-7049107 -367084,-7049089 -366996,-7049028 -366816,-7048909 -366771,-7048876 -366725,-7048849 -366667,-7048812 -366633,-7048787 -366568,-7048733 -366541,-7048705 -366498,-7048655 -366457,-7048614 -366368,-7048516 -366279,-7048423 -366261,-7048410 -366248,-7048402 -366227,-7048393 -366186,-7048366 -366164,-7048357 -366151,-7048349 -366129,-7048328 -366092,-7048294 -366007,-7048213 -365968,-7048174 -365951,-7048153 -365918,-7048124 -365903,-7048108 -365891,-7048094 -365847,-7048032 -365728,-7047853 -365710,-7047820 -365673,-7047745 -365659,-7047722 -365633,-7047684 -365580,-7047614 -365563,-7047583 -365555,-7047565 -365551,-7047552 -365545,-7047524 -365542,-7047506 -365543,-7047487 -365543,-7047478 -365545,-7047470 -365548,-7047460 -365552,-7047451 -365563,-7047434 -365570,-7047425 -365580,-7047415 -365592,-7047406 -365629,-7047384 -365661,-7047359 -365673,-7047348 -365682,-7047335 -365692,-7047320 -365706,-7047292 -365715,-7047265 -365720,-7047239 -365721,-7047212 -365725,-7047198 -365727,-7047196 -365738,-7047184 -365745,-7047179 -365759,-7047169 -365770,-7047163 -365777,-7047160 -365785,-7047159 -365801,-7047157 -365860,-7047160 -365878,-7047157 -365885,-7047155 -365904,-7047145 -365933,-7047125 -365978,-7047085 -366003,-7047065 -366017,-7047054 -366050,-7047036 -366096,-7047017 -366120,-7047008 -366161,-7046996 -366199,-7046994 -366232,-7046984 -366240,-7046981 -366246,-7046980 -366258,-7046981 -366285,-7046980 -366287,-7046981 -366290,-7046985 -366292,-7046989 -366293,-7046994 -366293,-7047001 -366285,-7047052 -366284,-7047090 -366284,-7047095 -366289,-7047117 -366296,-7047138 -366324,-7047144 -366381,-7047139 -366389,-7047139 -366403,-7047142 -366412,-7047147 -366430,-7047164 -366436,-7047184 -366452,-7047217 -366460,-7047232 -366467,-7047242 -366474,-7047249 -366489,-7047261 -366490,-7047267 -366510,-7047284 -366540,-7047304 -366549,-7047306 -366564,-7047315 -366574,-7047318 -366580,-7047321 -366590,-7047328 -366617,-7047350 -366683,-7047418 -366710,-7047440 -366751,-7047471 -366769,-7047482 -366807,-7047502 -366856,-7047523 -366867,-7047526 -366884,-7047532 -366996,-7047557 -367031,-7047562 -367093,-7047567 -367105,-7047567 -367137,-7047565 -367192,-7047566 -367202,-7047565 -367210,-7047564 -367216,-7047561 -367253,-7047538 -367279,-7047518 -367299,-7047501 -367324,-7047485 -367343,-7047463 -367366,-7047446 -367416,-7047399 -367434,-7047384 -367443,-7047381 -367462,-7047365 -367475,-7047353 -367519,-7047328 -367599,-7047289 -367659,-7047263 -367674,-7047255 -367704,-7047236 -367787,-7047188 -367881,-7047116 -367936,-7047058 -367953,-7047045 -367977,-7047025 -367988,-7047017 -367997,-7047011 -368022,-7046996 -368052,-7046984 -368062,-7046974 -368100,-7046941 -368167,-7046888 -368232,-7046843 -368241,-7046837 -368308,-7046808 -368372,-7046775 -368491,-7046709 -368623,-7046639 -368724,-7046576 -368724,-7046575 -368718,-7046562 -368542,-7046664 -368341,-7046777 -368272,-7046805 -368247,-7046819 -368193,-7046852 -368151,-7046880 -368117,-7046909 -368097,-7046922 -368024,-7046977 -367995,-7046994 -367989,-7046997 -367963,-7047018 -367955,-7047023 -367940,-7047030 -367915,-7047054 -367872,-7047099 -367852,-7047119 -367826,-7047140 -367799,-7047158 -367698,-7047218 -367680,-7047231 -367587,-7047273 -367568,-7047283 -367541,-7047297 -367457,-7047346 -367421,-7047370 -367380,-7047401 -367355,-7047426 -367342,-7047439 -367322,-7047453 -367289,-7047481 -367265,-7047503 -367214,-7047536 -367198,-7047543 -367178,-7047547 -367123,-7047549 -367107,-7047549 -367057,-7047541 -366958,-7047527 -366909,-7047524 -366893,-7047519 -366843,-7047496 -366812,-7047486 -366803,-7047482 -366795,-7047477 -366754,-7047446 -366728,-7047430 -366694,-7047404 -366682,-7047394 -366671,-7047379 -366602,-7047314 -366575,-7047294 -366561,-7047286 -366521,-7047266 -366509,-7047259 -366506,-7047257 -366484,-7047235 -366478,-7047226 -366455,-7047180 -366445,-7047154 -366442,-7047148 -366438,-7047142 -366432,-7047135 -366424,-7047129 -366417,-7047126 -366409,-7047124 -366377,-7047121 -366357,-7047124 -366340,-7047124 -366332,-7047128 -366319,-7047126 -366310,-7047127 -366304,-7047126 -366297,-7047083 -366296,-7047063 -366296,-7047054 -366301,-7047034 -366305,-7047009 -366303,-7046992 -366301,-7046983 -366300,-7046979 -366287,-7046965 -366264,-7046961 -366253,-7046962 -366230,-7046968 -366162,-7046979 -366073,-7047006 -366047,-7047016 -366030,-7047027 -366010,-7047040 -365980,-7047059 -365971,-7047066 -365938,-7047098 -365904,-7047128 -365887,-7047138 -365873,-7047144 -365863,-7047147 -365855,-7047147 -365815,-7047144 -365796,-7047144 -365770,-7047149 -365762,-7047152 -365754,-7047155 -365733,-7047167 -365727,-7047172 -365720,-7047181 -365715,-7047190 -365712,-7047196 -365706,-7047246 -365700,-7047265 -365684,-7047307 -365681,-7047315 -365674,-7047323 -365663,-7047336 -365637,-7047360 -365625,-7047369 -365583,-7047397 -365573,-7047405 -365544,-7047434 -365527,-7047461 -365521,-7047469 -365514,-7047475 -365507,-7047480 -365497,-7047485 -365482,-7047491 -365477,-7047492 -365472,-7047491 -365454,-7047484 -365447,-7047479 -365424,-7047458 -365394,-7047423 -365366,-7047383 -365333,-7047353 -365277,-7047294 -365273,-7047286 -365270,-7047269 -365267,-7047258 -365255,-7047235 -365253,-7047226 -365251,-7047213 -365251,-7047204 -365252,-7047197 -365259,-7047176 -365277,-7047127 -365286,-7047091 -365312,-7047001 -365341,-7046895 -365345,-7046875 -365346,-7046852 -365369,-7046781 -365384,-7046739 -365410,-7046641 -365431,-7046587 -365447,-7046533 -365454,-7046507 -365459,-7046483 -365476,-7046393 -365490,-7046332 -365498,-7046290 -365506,-7046253 -365512,-7046222 -365518,-7046175 -365526,-7046144 -365535,-7046115 -365538,-7046099 -365541,-7046072 -365548,-7046042 -365551,-7046020 -365553,-7045989 -365556,-7045933 -365561,-7045903 -365561,-7045889 -365566,-7045819 -365572,-7045798 -365574,-7045787 -365576,-7045704 -365575,-7045689 -365568,-7045630 -365566,-7045618 -365555,-7045569 -365549,-7045527 -365542,-7045477 -365533,-7045428 -365523,-7045380 -365522,-7045369 -365521,-7045356 -365523,-7045311 -365522,-7045277 -365522,-7045242 -365522,-7045238 -365499,-7045131 -365498,-7045108 -365491,-7045082 -365480,-7045031 -365478,-7045018 -365462,-7044970 -365450,-7044925 -365439,-7044893 -365415,-7044838 -365401,-7044794 -365391,-7044771 -365377,-7044747 -365334,-7044682 -365313,-7044659 -365308,-7044653 -365301,-7044643 -365292,-7044625 -365289,-7044620 -365262,-7044592 -365260,-7044589 -365241,-7044566 -365231,-7044553 -365210,-7044532 -365189,-7044512 -365169,-7044495 -365153,-7044483 -365060,-7044418 -365042,-7044407 -365003,-7044384 -364961,-7044361 -364928,-7044344 -364881,-7044328 -364853,-7044326 -364833,-7044320 -364794,-7044305 -364767,-7044293 -364747,-7044283 -364714,-7044264 -364668,-7044243 -364637,-7044231 -364628,-7044226 -364593,-7044205 -364566,-7044191 -364515,-7044169 -364478,-7044148 -364409,-7044099 -364391,-7044091 -364334,-7044059 -364292,-7044029 -364195,-7043967 -364152,-7043942 -364074,-7043891 -364030,-7043854 -364004,-7043834 -363986,-7043823 -363936,-7043794 -363801,-7043703 -363730,-7043665 -363720,-7043660 -363711,-7043653 -363686,-7043641 -363656,-7043630 -363650,-7043627 -363644,-7043623 -363631,-7043610 -363616,-7043589 -363566,-7043535 -363530,-7043508 -363503,-7043494 -363487,-7043483 -363477,-7043479 -363427,-7043470 -363409,-7043472 -363395,-7043475 -363380,-7043479 -363340,-7043493 -363331,-7043498 -363308,-7043517 -363297,-7043525 -363261,-7043543 -363254,-7043542 -363251,-7043541 -363249,-7043538 -363248,-7043535 -363247,-7043529 -363254,-7043513 -363262,-7043503 -363272,-7043493 -363284,-7043484 -363338,-7043450 -363665,-7043018 -363721,-7042933 -363793,-7042820 -363840,-7042749 -363828,-7042745 -363828,-7042745 -363712,-7042919 -363662,-7042987 -363551,-7043129 -363320,-7043441 -363260,-7043460 -363224,-7043462 -363192,-7043471 -363181,-7043481 -363154,-7043515 -363133,-7043532 -363112,-7043557 -363090,-7043574 -363079,-7043579 -363072,-7043581 -363055,-7043581 -363049,-7043579 -363039,-7043571 -363017,-7043542 -363000,-7043524 -362993,-7043512 -362991,-7043508 -362991,-7043498 -362990,-7043494 -362975,-7043472 -362979,-7043461 -362983,-7043453 -363000,-7043430 -363025,-7043403 -363050,-7043383 -363073,-7043370 -363079,-7043369 -363099,-7043367 -363108,-7043365 -363116,-7043362 -363135,-7043353 -363162,-7043336 -363195,-7043313 -363214,-7043300 -363217,-7043297 -363223,-7043291 -363236,-7043270 -363248,-7043247 -363266,-7043196 -363279,-7043166 -363283,-7043156 -363285,-7043143 -363287,-7043127 -363287,-7043111 -363285,-7043099 -363282,-7043089 -363278,-7043081 -363274,-7043074 -363268,-7043068 -363263,-7043064 -363221,-7043037 -363208,-7043027 -363201,-7043020 -363197,-7043014 -363195,-7043008 -363194,-7043000 -363195,-7042991 -363198,-7042972 -363170,-7042872 -363149,-7042801 -363038,-7042468 -363057,-7042457 -363061,-7042410 -363045,-7042409 -363034,-7042407 -363022,-7042401 -363010,-7042391 -363005,-7042384 -363000,-7042376 -362998,-7042370 -362995,-7042359 -362982,-7042308 -362957,-7042288 -362940,-7042271 -362933,-7042256 -362931,-7042248 -362930,-7042240 -362930,-7042231 -362933,-7042221 -362936,-7042211 -362939,-7042203 -362944,-7042196 -362949,-7042190 -362956,-7042185 -362962,-7042182 -362967,-7042182 -362987,-7042184 -363011,-7042183 -363016,-7042181 -363018,-7042178 -363018,-7042176 -363016,-7042174 -363012,-7042172 -363006,-7042171 -362985,-7042171 -362967,-7042168 -362950,-7042161 -362942,-7042160 -362929,-7042164 -362926,-7042164 -362919,-7042162 -362893,-7042147 -362877,-7042134 -362872,-7042131 -362864,-7042128 -362451,-7042453 -362472,-7042491 -362516,-7042540 -362553,-7042622 -362577,-7042658 -362600,-7042700 -362643,-7042755 -362670,-7042804 -362695,-7042860 -362731,-7042914 -362762,-7042984 -362764,-7042994 -362762,-7043001 -362759,-7043007 -362755,-7043010 -362747,-7043013 -362741,-7043013 -362713,-7043006 -362703,-7043002 -362696,-7042999 -362655,-7042971 -362626,-7042945 -362577,-7042892 -362512,-7042835 -362470,-7042798 -362433,-7042773 -362410,-7042756 -362390,-7042740 -362371,-7042724 -362356,-7042709 -362344,-7042696 -362334,-7042682 -362328,-7042674 -362324,-7042664 -362319,-7042652 -362317,-7042643 -362318,-7042612 -362315,-7042604 -362311,-7042601 -362297,-7042598 -362289,-7042595 -362279,-7042588 -362214,-7042638 -361948,-7042842 -361948,-7042843 -361996,-7042920 -362235,-7043227 -362349,-7043369 -362393,-7043417 -362449,-7043487 -362477,-7043538 -362509,-7043585 -362535,-7043626 -362586,-7043733 -362600,-7043761 -362622,-7043791 -362633,-7043807 -362660,-7043879 -362706,-7043957 -362717,-7043980 -362744,-7044031 -362792,-7044149 -362801,-7044177 -362815,-7044211 -362826,-7044250 -362845,-7044288 -362869,-7044323 -362878,-7044356 -362938,-7044621 -362939,-7044643 -362938,-7044657 -362935,-7044679 -362933,-7044692 -362933,-7044711 -362935,-7044728 -362937,-7044740 -362943,-7044754 -362957,-7044772 -362980,-7044804 -362987,-7044815 -362996,-7044832 -363001,-7044846 -363010,-7044884 -363011,-7044894 -363016,-7044931 -363025,-7044980 -363035,-7045020 -363040,-7045036 -363045,-7045051 -363049,-7045058 -363079,-7045111 -363100,-7045159 -363112,-7045178 -363147,-7045237 -363156,-7045259 -363188,-7045310 -363199,-7045330 -363209,-7045349 -363223,-7045388 -363256,-7045442 -363280,-7045486 -363291,-7045504 -363329,-7045564 -363341,-7045588 -363353,-7045612 -363359,-7045637 -363358,-7045648 -363349,-7045657 -363336,-7045662 -363285,-7045668 -363271,-7045669 -363202,-7045669 -363158,-7045676 -363152,-7045675 -363135,-7045670 -363099,-7045652 -363089,-7045647 -363049,-7045618 -363023,-7045606 -363010,-7045604 -362995,-7045606 -362989,-7045608 -362983,-7045611 -362978,-7045615 -362975,-7045619 -362968,-7045635 -362956,-7045680 -362950,-7045690 -362931,-7045710 -362925,-7045716 -362915,-7045724 -362868,-7045753 -362854,-7045766 -362849,-7045772 -362841,-7045785 -362838,-7045795 -362835,-7045807 -362833,-7045819 -362833,-7045848 -362830,-7045863 -362828,-7045868 -362821,-7045876 -362816,-7045879 -362805,-7045885 -362797,-7045886 -362780,-7045888 -362762,-7045888 -362749,-7045886 -362734,-7045883 -362730,-7045881 -362724,-7045875 -362719,-7045870 -362713,-7045857 -362711,-7045843 -362710,-7045787 -362716,-7045764 -362715,-7045696 -362718,-7045664 -362719,-7045639 -362724,-7045614 -362729,-7045600 -362736,-7045587 -362740,-7045581 -362749,-7045573 -362753,-7045571 -362762,-7045569 -362773,-7045572 -362783,-7045578 -362786,-7045578 -362794,-7045576 -362798,-7045574 -362800,-7045570 -362818,-7045533 -362826,-7045511 -362828,-7045502 -362829,-7045490 -362827,-7045463 -362827,-7045451 -362828,-7045438 -362838,-7045374 -362837,-7045320 -362834,-7045220 -362834,-7045129 -362851,-7044928 -362852,-7044914 -362850,-7044902 -362847,-7044892 -362844,-7044886 -362836,-7044877 -362826,-7044869 -362820,-7044867 -362814,-7044865 -362794,-7044864 -362776,-7044866 -362763,-7044871 -362756,-7044875 -362747,-7044882 -362726,-7044904 -362717,-7044916 -362710,-7044926 -362705,-7044934 -362698,-7044952 -362689,-7044988 -362685,-7045011 -362685,-7045045 -362678,-7045110 -362675,-7045130 -362625,-7045280 -362621,-7045300 -362620,-7045327 -362621,-7045342 -362639,-7045403 -362639,-7045406 -362639,-7045420 -362632,-7045491 -362632,-7045520 -362642,-7045615 -362640,-7045655 -362639,-7045666 -362637,-7045677 -362628,-7045712 -362616,-7045738 -362605,-7045756 -362602,-7045761 -362599,-7045771 -362597,-7045782 -362596,-7045792 -362597,-7045800 -362604,-7045826 -362620,-7045863 -362621,-7045872 -362621,-7045881 -362620,-7045890 -362618,-7045894 -362613,-7045899 -362599,-7045904 -362595,-7045905 -362566,-7045907 -362554,-7045909 -362543,-7045911 -362532,-7045915 -362520,-7045921 -362509,-7045928 -362492,-7045943 -362481,-7045956 -362479,-7045961 -362472,-7045994 -362471,-7046019 -362463,-7046028 -362458,-7046030 -362442,-7046035 -362399,-7046047 -362389,-7046052 -362380,-7046060 -362374,-7046065 -362359,-7046084 -362357,-7046089 -362355,-7046099 -362356,-7046121 -362353,-7046133 -362351,-7046138 -362330,-7046173 -362326,-7046178 -362318,-7046185 -362310,-7046189 -362303,-7046191 -362291,-7046191 -362281,-7046189 -362275,-7046187 -362271,-7046184 -362268,-7046180 -362262,-7046166 -362260,-7046162 -362258,-7046160 -362254,-7046159 -362247,-7046159 -362238,-7046162 -362208,-7046179 -362203,-7046180 -362162,-7046180 -362121,-7046183 -362092,-7046182 -362071,-7046184 -362059,-7046187 -362048,-7046191 -362042,-7046195 -362038,-7046200 -362035,-7046208 -362033,-7046215 -362033,-7046220 -362035,-7046224 -362047,-7046233 -362053,-7046241 -362064,-7046257 -362068,-7046261 -362073,-7046263 -362098,-7046271 -362106,-7046273 -362140,-7046276 -362166,-7046282 -362175,-7046283 -362201,-7046283 -362215,-7046284 -362229,-7046286 -362240,-7046289 -362244,-7046291 -362248,-7046295 -362251,-7046299 -362252,-7046304 -362251,-7046310 -362248,-7046314 -362236,-7046326 -362228,-7046331 -362216,-7046337 -362205,-7046341 -362173,-7046349 -362160,-7046354 -362155,-7046357 -362149,-7046362 -362145,-7046368 -362142,-7046374 -362141,-7046379 -362142,-7046385 -362145,-7046391 -362147,-7046396 -362158,-7046407 -362176,-7046422 -362180,-7046428 -362188,-7046445 -362190,-7046453 -362190,-7046460 -362189,-7046465 -362184,-7046474 -362170,-7046497 -362166,-7046514 -362163,-7046520 -362155,-7046529 -362153,-7046532 -362150,-7046546 -362149,-7046549 -362145,-7046551 -362140,-7046553 -362125,-7046554 -362119,-7046553 -362111,-7046550 -362091,-7046540 -362079,-7046537 -362072,-7046538 -362045,-7046547 -362035,-7046552 -362018,-7046566 -362009,-7046571 -362001,-7046574 -361993,-7046575 -361986,-7046575 -361979,-7046575 -361970,-7046572 -361957,-7046567 -361845,-7046495 -361814,-7046472 -361782,-7046443 -361771,-7046432 -361752,-7046408 -361730,-7046374 -361709,-7046347 -361687,-7046324 -361636,-7046277 -361614,-7046250 -361604,-7046232 -361586,-7046206 -361575,-7046141 -361572,-7046134 -361567,-7046101 -361562,-7046083 -361562,-7046072 -361563,-7046067 -361564,-7046062 -361569,-7046060 -361574,-7046059 -361586,-7046061 -361592,-7046066 -361621,-7046092 -361632,-7046098 -361642,-7046101 -361650,-7046095 -361652,-7046092 -361653,-7046069 -361631,-7046008 -361630,-7046004 -361629,-7045975 -361627,-7045967 -361620,-7045955 -361616,-7045949 -361611,-7045943 -361604,-7045937 -361594,-7045931 -361583,-7045925 -361569,-7045918 -361550,-7045901 -361506,-7045864 -361497,-7045842 -361482,-7045794 -361474,-7045769 -361449,-7045703 -361438,-7045680 -361428,-7045646 -361391,-7045551 -361389,-7045546 -361389,-7045537 -361392,-7045526 -361424,-7045492 -361450,-7045460 -361461,-7045445 -361491,-7045395 -361500,-7045375 -361528,-7045287 -361530,-7045257 -361529,-7045238 -361525,-7045219 -361521,-7045204 -361516,-7045191 -361468,-7045086 -361461,-7045060 -361458,-7045039 -361456,-7045009 -361458,-7044923 -361458,-7044879 -361460,-7044845 -361466,-7044815 -361491,-7044733 -361507,-7044668 -361519,-7044628 -361525,-7044613 -361530,-7044602 -361570,-7044533 -361592,-7044478 -361600,-7044450 -361603,-7044437 -361605,-7044407 -361604,-7044240 -361594,-7044251 -361581,-7044277 -361578,-7044286 -361566,-7044331 -361563,-7044354 -361564,-7044375 -361556,-7044436 -361552,-7044460 -361540,-7044503 -361512,-7044577 -361505,-7044595 -361475,-7044646 -361445,-7044732 -361441,-7044746 -361438,-7044760 -361436,-7044782 -361430,-7044815 -361429,-7044864 -361426,-7044912 -361427,-7044959 -361423,-7044985 -361427,-7045014 -361443,-7045092 -361452,-7045117 -361491,-7045257 -361491,-7045272 -361489,-7045283 -361486,-7045296 -361475,-7045325 -361470,-7045338 -361459,-7045356 -361438,-7045390 -361427,-7045404 -361418,-7045414 -361408,-7045422 -361398,-7045429 -361391,-7045433 -361384,-7045435 -361377,-7045436 -361368,-7045435 -361361,-7045434 -361355,-7045431 -361349,-7045427 -361331,-7045409 -361326,-7045402 -361317,-7045382 -361306,-7045350 -361296,-7045312 -361279,-7045214 -361272,-7045190 -361269,-7045180 -361260,-7045164 -361236,-7045131 -361229,-7045125 -361224,-7045123 -361217,-7045122 -361210,-7045122 -361197,-7045124 -361195,-7045125 -361193,-7045128 -361192,-7045130 -361191,-7045150 -361193,-7045161 -361197,-7045185 -361198,-7045205 -361194,-7045246 -361192,-7045253 -361187,-7045267 -361185,-7045269 -361181,-7045270 -361173,-7045269 -361168,-7045267 -361161,-7045261 -361157,-7045255 -361155,-7045251 -361149,-7045227 -361146,-7045219 -361140,-7045204 -361135,-7045195 -361123,-7045180 -361120,-7045177 -361116,-7045175 -361109,-7045174 -361103,-7045173 -361100,-7045174 -361097,-7045176 -361092,-7045181 -361087,-7045188 -361084,-7045195 -361077,-7045221 -361072,-7045234 -361058,-7045267 -361016,-7045335 -361010,-7045356 -361009,-7045365 -361008,-7045381 -361012,-7045404 -361020,-7045434 -361028,-7045455 -361035,-7045472 -361045,-7045490 -361078,-7045544 -361157,-7045689 -361304,-7046025 -361315,-7046057 -361354,-7046145 -361381,-7046234 -361392,-7046280 -361401,-7046353 -361412,-7046415 -361413,-7046427 -361416,-7046453 -361418,-7046523 -361418,-7046544 -361416,-7046583 -361411,-7046601 -361407,-7046614 -361397,-7046631 -361366,-7046662 -361357,-7046669 -361350,-7046674 -361334,-7046679 -361326,-7046680 -361317,-7046680 -361310,-7046679 -361287,-7046673 -361202,-7046634 -361176,-7046620 -361162,-7046610 -361140,-7046592 -361097,-7046547 -361062,-7046523 -360944,-7046406 -360899,-7046366 -360830,-7046306 -360690,-7046183 -360591,-7046090 -360498,-7046007 -360464,-7045971 -360417,-7045933 -360315,-7045815 -360200,-7045695 -360130,-7045615 -360090,-7045576 -360051,-7045528 -360005,-7045493 -359911,-7045385 -359888,-7045357 -359830,-7045286 -359810,-7045260 -359789,-7045233 -359748,-7045173 -359715,-7045132 -359647,-7045054 -359629,-7045027 -359597,-7044988 -359567,-7044936 -359552,-7044910 -359519,-7044861 -359501,-7044836 -359471,-7044796 -359446,-7044766 -359164,-7044981 -359169,-7045004 -359190,-7045034 -359209,-7045071 -359242,-7045108 -359281,-7045171 -359306,-7045225 -359349,-7045288 -359465,-7045485 -359540,-7045569 -359559,-7045598 -359634,-7045686 -359677,-7045728 -359695,-7045748 -359745,-7045807 -359756,-7045840 -359838,-7045968 -359880,-7046011 -359887,-7046029 -359896,-7046089 -359909,-7046128 -359937,-7046188 -359957,-7046253 -359977,-7046323 -359983,-7046359 -359984,-7046366 -359981,-7046390 -359996,-7046487 -360001,-7046539 -360001,-7046592 -359995,-7046624 -359978,-7046646 -359966,-7046658 -359954,-7046664 -359936,-7046662 -359917,-7046654 -359906,-7046648 -359895,-7046642 -359876,-7046626 -359850,-7046593 -359845,-7046581 -359817,-7046499 -359791,-7046444 -359774,-7046405 -359741,-7046344 -359712,-7046304 -359700,-7046282 -359643,-7046217 -359591,-7046148 -359558,-7046108 -359536,-7046086 -359523,-7046069 -359394,-7045940 -359376,-7045922 -359364,-7045912 -359311,-7045857 -359277,-7045829 -359267,-7045817 -359246,-7045791 -359176,-7045696 -359151,-7045653 -359132,-7045626 -359113,-7045599 -359075,-7045547 -359042,-7045492 -359018,-7045464 -358979,-7045410 -358974,-7045395 -358954,-7045371 -358944,-7045351 -358937,-7045339 -358931,-7045325 -358907,-7045298 -358894,-7045281 -358867,-7045226 -358107,-7045823 -357674,-7045384 -357216,-7044948 -356569,-7044326 -356522,-7044281 -355886,-7043684 -355185,-7043076 -355127,-7043027 -354861,-7042801 -354752,-7042708 -354735,-7042694 -354665,-7042635 -354067,-7042141 -353930,-7042034 -353543,-7041738 -353379,-7041606 -353227,-7041484 -353201,-7041463 -353195,-7041458 -352981,-7041280 -352916,-7041224 -352469,-7040834 -352414,-7040779 -351980,-7040285 -351960,-7040263 -351586,-7039837 -351576,-7039827 -351550,-7039797 -351369,-7039591 -350326,-7038382 -350314,-7038368 -350245,-7038288 -350019,-7038026 -349439,-7037409 -348738,-7036662 -348544,-7036456 -348238,-7036146 -348033,-7035954 -348021,-7035944 -347926,-7035856 -347838,-7035781 -347763,-7035712 -347594,-7035556 -347520,-7035486 -347504,-7035470 -347306,-7035272 -347240,-7035204 -347190,-7035156 -347043,-7034999 -346982,-7034930 -346903,-7034847 -346852,-7034782 -346730,-7034657 -346616,-7034533 -346605,-7034517 -346597,-7034504 -346587,-7034489 -346517,-7034377 -346415,-7034220 -346391,-7034179 -346349,-7034120 -346269,-7033999 -346217,-7033926 -346149,-7033827 -346107,-7033768 -346043,-7033673 -346022,-7033648 -345935,-7033519 -345929,-7033511 -345908,-7033482 -345844,-7033389 -345726,-7033219 -345634,-7033084 -345496,-7032888 -345345,-7032671 -345299,-7032604 -345241,-7032523 -345037,-7032232 -344823,-7031937 -344796,-7031901 -344647,-7031709 -344556,-7031590 -344544,-7031574 -344534,-7031567 -344434,-7031448 -344347,-7031353 -344326,-7031330 -344220,-7031229 -344180,-7031190 -344022,-7031032 -343935,-7030959 -343819,-7030863 -343761,-7030814 -343535,-7030641 -343352,-7030521 -343341,-7030515 -343212,-7030442 -343133,-7030400 -343001,-7030331 -342922,-7030295 -342806,-7030253 -342633,-7030187 -342583,-7030169 -342422,-7030117 -342282,-7030075 -342254,-7030068 -342248,-7030066 -342186,-7030050 -342002,-7030000 -341847,-7029969 -341654,-7029934 -341595,-7029929 -341465,-7029923 -340824,-7029884 -340761,-7029881 -340522,-7029869 -340261,-7029851 -340026,-7029839 -339811,-7029821 -339594,-7029802 -339376,-7029786 -339294,-7029780 -338949,-7029763 -338554,-7029747 -338307,-7029731 -337973,-7029711 -337968,-7029711 -337647,-7029536 -337257,-7029318 -336966,-7029158 -336837,-7029085 -336792,-7029062 -336546,-7028868 -336500,-7028830 -336465,-7028802 -336328,-7028698 -336219,-7028608 -336211,-7028616 -336156,-7028570 -336103,-7028529 -336050,-7028488 -335946,-7028409 -335794,-7028288 -335786,-7028282 -335677,-7028195 -335394,-7027975 -335315,-7027917 -335320,-7027902 -334922,-7027588 -334874,-7027551 -334699,-7027421 -334521,-7027292 -334435,-7027233 -334276,-7027114 -334134,-7027012 -333963,-7026882 -333777,-7026745 -333696,-7026674 -333455,-7026482 -333262,-7026320 -333178,-7026253 -333130,-7026216 -333047,-7026139 -333035,-7026128 -332895,-7025988 -332721,-7025811 -332438,-7025527 -332341,-7025434 -332278,-7025371 -332151,-7025278 -331862,-7025066 -331659,-7024918 -331491,-7024799 -331365,-7024679 -331247,-7024570 -331179,-7024499 -331100,-7024419 -331048,-7024368 -331037,-7024358 -330881,-7024217 -330748,-7024091 -330608,-7023954 -330439,-7023792 -330330,-7023684 -330250,-7023601 -330191,-7023552 -329765,-7023233 -329578,-7023088 -329358,-7022921 -329277,-7022862 -329197,-7022804 -329037,-7022693 -328863,-7022581 -328760,-7022512 -328683,-7022454 -328592,-7022379 -328450,-7022270 -328337,-7022174 -328305,-7022136 -328230,-7021975 -328126,-7021745 -328032,-7021515 -327952,-7021340 -327965,-7021335 -327926,-7021262 -327882,-7021171 -327800,-7021013 -327688,-7020826 -327694,-7020822 -327547,-7020586 -327478,-7020463 -327433,-7020386 -327314,-7020186 -327173,-7019958 -327008,-7019680 -326977,-7019638 -326816,-7019453 -326795,-7019426 -326781,-7019411 -326763,-7019394 -326744,-7019379 -326728,-7019367 -326699,-7019350 -326513,-7019256 -326454,-7019227 -326332,-7019156 -326199,-7019081 -326081,-7019017 -326061,-7018998 -326042,-7018979 -326015,-7018947 -325987,-7018915 -325937,-7018851 -325846,-7018750 -325731,-7018606 -325627,-7018414 -325491,-7018276 -325409,-7018196 -325308,-7018088 -325155,-7017318 -325133,-7017136 -325118,-7017068 -325089,-7016978 -325092,-7016910 -325093,-7016888 -325096,-7016840 -325097,-7016836 -325103,-7016766 -325099,-7016684 -325096,-7016626 -325083,-7016463 -325083,-7016322 -325088,-7016257 -325088,-7016256 -325089,-7016239 -325097,-7016161 -325106,-7016094 -325122,-7015994 -325141,-7015907 -325153,-7015841 -325159,-7015821 -325292,-7015607 -325339,-7015534 -325370,-7015488 -325465,-7015403 -325593,-7015295 -325717,-7015191 -325786,-7015128 -325819,-7015004 -325869,-7014834 -325882,-7014826 -325904,-7014813 -325937,-7014794 -325928,-7014774 -325925,-7014767 -325925,-7014767 -326032,-7014708 -326167,-7014631 -326332,-7014538 -326362,-7014532 -326498,-7014451 -326601,-7014391 -326685,-7014335 -326774,-7014271 -326894,-7014195 -326959,-7014147 -327038,-7014085 -327126,-7014022 -327313,-7013900 -327355,-7013872 -327415,-7013838 -327571,-7013742 -327636,-7013692 -327706,-7013648 -327723,-7013631 -327729,-7013622 -327752,-7013638 -327770,-7013663 -327797,-7013688 -327809,-7013727 -327814,-7013738 -327841,-7013758 -327875,-7013787 -327887,-7013806 -327914,-7013850 -327935,-7013879 -327957,-7013908 -328008,-7013969 -328103,-7013894 -328199,-7013826 -328270,-7013764 -328506,-7013753 -328553,-7013725 -328604,-7013691 -328658,-7013666 -328779,-7013642 -328838,-7013607 -328860,-7013592 -328906,-7013556 -328950,-7013519 -329067,-7013400 -329088,-7013369 -329100,-7013349 -329147,-7013355 -329239,-7013316 -329468,-7013228 -329641,-7013159 -329671,-7013136 -329716,-7013107 -329769,-7013079 -329789,-7013063 -329818,-7013022 -329838,-7013001 -329881,-7012950 -329958,-7012874 -330062,-7012765 -330068,-7012759 -330101,-7012730 -330141,-7012692 -330202,-7012623 -330256,-7012653 -330322,-7012692 -330387,-7012733 -330403,-7012743 -330417,-7012749 -330437,-7012758 -330474,-7012769 -330551,-7012785 -330650,-7012802 -330662,-7012793 -330700,-7012794 -330717,-7012793 -330721,-7012793 -330738,-7012744 -330782,-7012666 -330806,-7012632 -330877,-7012540 -330988,-7012411 -331015,-7012385 -331141,-7012260 -331167,-7012213 -331182,-7012186 -331190,-7012176 -331197,-7012170 -331205,-7012164 -331214,-7012160 -331227,-7012156 -331239,-7012154 -331255,-7012153 -331272,-7012155 -331314,-7012164 -331350,-7012168 -331378,-7012170 -331406,-7012171 -331422,-7012169 -331452,-7012165 -331528,-7012148 -331554,-7012141 -331611,-7012126 -331638,-7012115 -331699,-7012084 -331726,-7012067 -331744,-7012053 -331784,-7012018 -331792,-7012013 -331799,-7012009 -331826,-7011996 -331873,-7011970 -331898,-7011960 -331920,-7011987 -331985,-7012031 -332006,-7012046 -332044,-7012088 -332054,-7012099 -332109,-7012159 -332150,-7012204 -332153,-7012208 -332134,-7012286 -332186,-7012326 -332223,-7012366 -332248,-7012387 -332323,-7012324 -332336,-7012315 -332348,-7012309 -332368,-7012303 -332402,-7012298 -332445,-7012290 -332464,-7012279 -332474,-7012272 -332484,-7012261 -332531,-7012203 -332565,-7012148 -332579,-7012130 -332636,-7012078 -332690,-7012107 -332728,-7012150 -332753,-7012147 -332791,-7012179 -332797,-7012183 -332805,-7012186 -332816,-7012190 -332826,-7012192 -332840,-7012192 -332897,-7012155 -332922,-7012131 -332901,-7012083 -332963,-7012065 -333059,-7012042 -333098,-7012029 -333099,-7011999 -333090,-7011954 -333100,-7011938 -333108,-7011924 -333106,-7011911 -333106,-7011900 -333107,-7011891 -333110,-7011882 -333119,-7011865 -333159,-7011811 -333169,-7011796 -333176,-7011783 -333178,-7011777 -333180,-7011768 -333180,-7011720 -333182,-7011713 -333185,-7011706 -333192,-7011697 -333201,-7011687 -333210,-7011679 -333231,-7011665 -333257,-7011653 -333268,-7011649 -333298,-7011640 -333318,-7011631 -333333,-7011621 -333355,-7011603 -333363,-7011598 -333377,-7011593 -333411,-7011571 -333404,-7011539 -333379,-7011526 -333363,-7011521 -333356,-7011504 -333340,-7011493 -333327,-7011477 -333319,-7011462 -333301,-7011450 -333287,-7011443 -333195,-7011402 -333171,-7011402 -333141,-7011402 -333119,-7011387 -333108,-7011383 -333074,-7011390 -333003,-7011378 -332939,-7011370 -332892,-7011359 -332795,-7011320 -332711,-7011283 -332689,-7011267 -332663,-7011228 -332646,-7011204 -332633,-7011199 -332618,-7011197 -332589,-7011181 -332577,-7011147 -332576,-7011125 -332580,-7011085 -332567,-7011057 -332555,-7011012 -332546,-7010989 -332534,-7010970 -332510,-7010937 -332481,-7010909 -332444,-7010865 -332444,-7010838 -332441,-7010812 -332458,-7010798 -332471,-7010773 -332453,-7010750 -332447,-7010737 -332444,-7010692 -332423,-7010674 -332397,-7010637 -332382,-7010591 -332365,-7010567 -332338,-7010578 -332318,-7010580 -332295,-7010572 -332286,-7010568 -332285,-7010528 -332268,-7010490 -332259,-7010464 -332257,-7010415 -332251,-7010389 -332246,-7010383 -332240,-7010380 -332236,-7010379 -332232,-7010380 -332227,-7010382 -332203,-7010413 -332175,-7010438 -332141,-7010482 -332046,-7010568 -332027,-7010581 -332008,-7010586 -331998,-7010588 -331975,-7010589 -331969,-7010591 -331961,-7010594 -331948,-7010602 -331939,-7010608 -331910,-7010630 -331894,-7010639 -331880,-7010645 -331875,-7010645 -331844,-7010643 -331830,-7010643 -331820,-7010645 -331810,-7010649 -331798,-7010655 -331786,-7010662 -331778,-7010669 -331772,-7010676 -331770,-7010680 -331775,-7010739 -331773,-7010783 -331774,-7010826 -331785,-7010878 -331791,-7010913 -331799,-7010937 -331782,-7010948 -331730,-7010892 -331716,-7010881 -331676,-7010907 -331643,-7010850 -331596,-7010784 -331577,-7010742 -331455,-7010516 -331364,-7010344 -331299,-7010214 -331120,-7009871 -331039,-7009710 -330980,-7009587 -330977,-7009576 -330975,-7009573 -330868,-7009381 -330755,-7009159 -330683,-7009022 -330518,-7008706 -330372,-7008413 -330261,-7008208 -329992,-7007686 -329939,-7007594 -329930,-7007592 -330005,-7007601 -330100,-7007609 -330118,-7007612 -330200,-7007627 -330285,-7007640 -330333,-7007644 -330394,-7007655 -330452,-7007658 -330522,-7007667 -330580,-7007668 -330613,-7007668 -330625,-7007673 -330646,-7007686 -330665,-7007701 -330708,-7007739 -330766,-7007801 -330814,-7007846 -330836,-7007864 -330853,-7007877 -330866,-7007882 -330882,-7007883 -330900,-7007881 -330924,-7007868 -330995,-7007839 -331016,-7007822 -331040,-7007811 -331081,-7007793 -331109,-7007782 -331172,-7007743 -331218,-7007719 -331249,-7007695 -331270,-7007683 -331296,-7007671 -331351,-7007631 -331371,-7007649 -331395,-7007642 -331406,-7007619 -331428,-7007600 -331456,-7007589 -331477,-7007569 -331492,-7007570 -331527,-7007552 -331538,-7007544 -331589,-7007521 -331609,-7007505 -331629,-7007506 -331670,-7007500 -331699,-7007488 -331724,-7007476 -331737,-7007474 -331771,-7007469 -331780,-7007456 -331786,-7007448 -331797,-7007441 -331800,-7007437 -331798,-7007410 -331821,-7007403 -331829,-7007397 -331847,-7007394 -331861,-7007398 -331866,-7007406 -331873,-7007410 -331878,-7007418 -331890,-7007428 -331905,-7007433 -331905,-7007443 -331909,-7007451 -331923,-7007450 -331960,-7007481 -331982,-7007480 -331998,-7007493 -332009,-7007498 -332031,-7007494 -332058,-7007494 -332083,-7007489 -332096,-7007475 -332105,-7007457 -332119,-7007458 -332143,-7007436 -332161,-7007424 -332176,-7007425 -332207,-7007412 -332247,-7007406 -332282,-7007394 -332342,-7007373 -332370,-7007369 -332382,-7007365 -332396,-7007359 -332407,-7007359 -332417,-7007350 -332430,-7007348 -332436,-7007324 -332443,-7007317 -332457,-7007314 -332484,-7007315 -332494,-7007315 -332514,-7007319 -332554,-7007308 -332582,-7007301 -332597,-7007300 -332617,-7007305 -332641,-7007296 -332659,-7007293 -332711,-7007299 -332742,-7007305 -332761,-7007289 -332774,-7007290 -332794,-7007283 -332803,-7007282 -332834,-7007321 -332850,-7007328 -332909,-7007329 -332916,-7007334 -332925,-7007334 -332934,-7007317 -332947,-7007298 -332943,-7007293 -332942,-7007281 -332946,-7007279 -332954,-7007265 -332976,-7007250 -332979,-7007239 -332992,-7007230 -333018,-7007210 -333028,-7007203 -333041,-7007202 -333049,-7007200 -333058,-7007194 -333080,-7007181 -333102,-7007181 -333111,-7007172 -333125,-7007167 -333154,-7007147 -333161,-7007146 -333174,-7007158 -333202,-7007162 -333216,-7007157 -333236,-7007164 -333246,-7007165 -333256,-7007181 -333274,-7007184 -333284,-7007196 -333289,-7007201 -333309,-7007202 -333325,-7007195 -333344,-7007189 -333379,-7007189 -333386,-7007195 -333407,-7007200 -333432,-7007200 -333447,-7007194 -333454,-7007181 -333470,-7007165 -333489,-7007158 -333518,-7007139 -333537,-7007121 -333551,-7007096 -333571,-7007089 -333586,-7007076 -333608,-7007068 -333645,-7007015 -333658,-7006993 -333667,-7006969 -333678,-7006949 -333687,-7006939 -333713,-7006928 -333714,-7006904 -333722,-7006895 -333735,-7006890 -333742,-7006881 -333740,-7006829 -333743,-7006811 -333736,-7006794 -333738,-7006746 -333734,-7006734 -333736,-7006720 -333743,-7006704 -333758,-7006696 -333768,-7006683 -333778,-7006668 -333784,-7006656 -333784,-7006642 -333792,-7006610 -333804,-7006588 -333822,-7006561 -333858,-7006543 -333878,-7006532 -333896,-7006507 -333894,-7006460 -333911,-7006428 -333914,-7006404 -333945,-7006384 -333962,-7006370 -334010,-7006319 -334018,-7006309 -334033,-7006287 -334051,-7006250 -334063,-7006240 -334077,-7006234 -334096,-7006223 -334106,-7006209 -334122,-7006192 -334145,-7006181 -334191,-7006167 -334240,-7006155 -334258,-7006144 -334279,-7006135 -334322,-7006106 -334346,-7006093 -334389,-7006072 -334419,-7006048 -334438,-7006039 -334457,-7006016 -334472,-7006004 -334489,-7005996 -334525,-7005998 -334540,-7005991 -334551,-7005979 -334549,-7005969 -334540,-7005953 -334536,-7005938 -334532,-7005923 -334528,-7005899 -334523,-7005875 -334505,-7005793 -334505,-7005764 -334499,-7005752 -334491,-7005740 -334459,-7005715 -334454,-7005647 -334442,-7005583 -334446,-7005558 -334462,-7005555 -334406,-7005438 -334341,-7005283 -334402,-7005257 -334497,-7005219 -334550,-7005198 -334575,-7005164 -334627,-7005132 -334608,-7005105 -334587,-7005040 -334573,-7004978 -334558,-7004925 -334570,-7004918 -334591,-7004890 -334611,-7004869 -334634,-7004850 -334643,-7004824 -334661,-7004775 -334672,-7004748 -334676,-7004726 -334671,-7004701 -334656,-7004678 -334636,-7004659 -334633,-7004601 -334635,-7004547 -334644,-7004527 -334648,-7004509 -334649,-7004468 -334641,-7004451 -334644,-7004428 -334661,-7004402 -334691,-7004367 -334698,-7004342 -334710,-7004321 -334741,-7004281 -334749,-7004265 -334769,-7004244 -334796,-7004199 -334807,-7004163 -334848,-7004124 -334877,-7004099 -334891,-7004088 -334941,-7004065 -334974,-7004025 -334987,-7004009 -335013,-7003997 -335036,-7003957 -335031,-7003943 -335039,-7003927 -335043,-7003922 -335050,-7003915 -335085,-7003892 -335112,-7003871 -335131,-7003836 -335148,-7003786 -335165,-7003754 -335182,-7003735 -335183,-7003718 -335186,-7003689 -335202,-7003662 -335212,-7003649 -335286,-7003649 -335305,-7003647 -335341,-7003599 -335343,-7003555 -335368,-7003499 -335382,-7003459 -335379,-7003422 -335392,-7003396 -335438,-7003319 -335457,-7003295 -335568,-7003184 -335606,-7003137 -335637,-7003143 -335658,-7003151 -335698,-7003168 -335719,-7003178 -335780,-7003216 -335802,-7003230 -335835,-7003236 -335897,-7003241 -335917,-7003234 -335950,-7003192 -335984,-7003138 -335986,-7003058 -335986,-7003033 -335999,-7002994 -335999,-7002994 -336010,-7002962 -336027,-7002939 -336037,-7002913 -336052,-7002899 -336087,-7002862 -336116,-7002825 -336195,-7002762 -336218,-7002743 -336261,-7002708 -336306,-7002660 -336319,-7002649 -336358,-7002617 -336396,-7002585 -336409,-7002575 -336423,-7002567 -336450,-7002553 -336474,-7002542 -336512,-7002528 -336537,-7002525 -336576,-7002534 -336593,-7002535 -336616,-7002532 -336632,-7002523 -336644,-7002505 -336647,-7002456 -336653,-7002440 -336682,-7002416 -336709,-7002371 -336715,-7002349 -336720,-7002312 -336731,-7002286 -336744,-7002266 -336817,-7002228 -336872,-7002198 -336909,-7002178 -336926,-7002179 -336933,-7002180 -336975,-7002188 -336986,-7002191 -337045,-7002212 -337055,-7002214 -337078,-7002219 -337102,-7002212 -337111,-7002207 -337137,-7002187 -337149,-7002182 -337161,-7002177 -337173,-7002173 -337185,-7002170 -337203,-7002168 -337195,-7002119 -337189,-7002053 -337181,-7002020 -337163,-7001969 -337137,-7001906 -337131,-7001856 -337133,-7001842 -337135,-7001833 -337135,-7001785 -337135,-7001702 -337137,-7001624 -337144,-7001560 -337150,-7001513 -337152,-7001489 -337135,-7001443 -337092,-7001349 -337060,-7001274 -337058,-7001234 -337043,-7001179 -337024,-7001115 -337018,-7001083 -337014,-7001032 -337015,-7000955 -337020,-7000924 -337019,-7000911 -337004,-7000867 -336997,-7000832 -336996,-7000779 -336982,-7000710 -336980,-7000671 -336985,-7000596 -336986,-7000526 -336985,-7000506 -336990,-7000481 -337009,-7000444 -337017,-7000411 -337025,-7000348 -337031,-7000262 -337023,-7000232 -337026,-7000213 -337098,-7000239 -337118,-7000250 -337125,-7000251 -337131,-7000260 -337141,-7000279 -337165,-7000322 -337189,-7000364 -337195,-7000382 -337197,-7000395 -337192,-7000404 -337185,-7000409 -337164,-7000421 -337149,-7000432 -337135,-7000447 -337128,-7000468 -337121,-7000491 -337116,-7000531 -337112,-7000548 -337110,-7000565 -337113,-7000578 -337120,-7000584 -337149,-7000582 -337165,-7000589 -337171,-7000596 -337158,-7000609 -337156,-7000624 -337165,-7000658 -337174,-7000725 -337181,-7000753 -337202,-7000760 -337212,-7000795 -337220,-7000819 -337233,-7000837 -337268,-7000866 -337308,-7000891 -337348,-7000911 -337366,-7000932 -337384,-7000941 -337399,-7000940 -337415,-7000930 -337437,-7000926 -337452,-7000951 -337456,-7000968 -337448,-7001001 -337446,-7001012 -337453,-7001023 -337465,-7001031 -337486,-7001032 -337505,-7001026 -337529,-7001015 -337562,-7001002 -337589,-7000998 -337617,-7000998 -337628,-7000992 -337639,-7000980 -337656,-7000947 -337670,-7000925 -337684,-7000905 -337695,-7000901 -337706,-7000903 -337726,-7000913 -337743,-7000917 -337761,-7000918 -337791,-7000911 -337806,-7000911 -337815,-7000914 -337827,-7000922 -337843,-7000927 -337852,-7000924 -337859,-7000922 -337859,-7000904 -337858,-7000892 -337823,-7000853 -337820,-7000843 -337823,-7000834 -337836,-7000824 -337864,-7000827 -337886,-7000833 -337909,-7000837 -337927,-7000838 -337947,-7000834 -337957,-7000831 -337976,-7000823 -337994,-7000812 -338001,-7000806 -338013,-7000791 -338023,-7000748 -338026,-7000738 -338033,-7000722 -338040,-7000709 -338045,-7000704 -338064,-7000693 -338115,-7000677 -338137,-7000667 -338141,-7000665 -338161,-7000652 -338174,-7000644 -338198,-7000638 -338222,-7000625 -338230,-7000617 -338241,-7000596 -338257,-7000548 -338263,-7000495 -338267,-7000416 -338267,-7000370 -338259,-7000343 -338242,-7000268 -338227,-7000206 -338201,-7000198 -338181,-7000195 -338164,-7000188 -338158,-7000183 -338151,-7000174 -338147,-7000170 -338150,-7000158 -338168,-7000144 -338185,-7000121 -338199,-7000092 -338207,-7000074 -338226,-7000020 -338238,-6999992 -338263,-6999950 -338280,-6999929 -338304,-6999916 -338318,-6999905 -338345,-6999879 -338376,-6999851 -338420,-6999821 -338462,-6999791 -338504,-6999762 -338523,-6999754 -338541,-6999749 -338563,-6999747 -338609,-6999751 -338685,-6999760 -338691,-6999744 -338689,-6999738 -338665,-6999727 -338679,-6999707 -338681,-6999689 -338695,-6999680 -338728,-6999676 -338733,-6999665 -338744,-6999645 -338752,-6999633 -338770,-6999610 -338792,-6999590 -338825,-6999565 -338902,-6999525 -338921,-6999516 -338961,-6999500 -339003,-6999484 -339060,-6999465 -339091,-6999451 -339150,-6999431 -339247,-6999387 -339372,-6999330 -339463,-6999290 -339524,-6999264 -339636,-6999214 -339661,-6999200 -339709,-6999173 -339817,-6999119 -339885,-6999086 -339919,-6999069 -340029,-6999022 -340221,-6998933 -340333,-6998881 -340439,-6998831 -340494,-6998800 -340502,-6998799 -340509,-6998797 -340543,-6998793 -340602,-6998800 -340619,-6998800 -340696,-6998790 -340719,-6998785 -340734,-6998781 -340757,-6998784 -340765,-6998783 -340773,-6998782 -340873,-6998756 -340892,-6998755 -340910,-6998751 -340952,-6998744 -340962,-6998744 -340975,-6998747 -341015,-6998750 -341074,-6998752 -341101,-6998758 -341127,-6998762 -341146,-6998768 -341179,-6998786 -341217,-6998795 -341243,-6998802 -341252,-6998808 -341255,-6998811 -341257,-6998815 -341280,-6998866 -341285,-6998867 -341296,-6998867 -341307,-6998864 -341318,-6998860 -341323,-6998857 -341334,-6998836 -341341,-6998836 -341343,-6998851 -341351,-6998860 -341352,-6998879 -341357,-6998887 -341366,-6998892 -341385,-6998893 -341398,-6998897 -341406,-6998907 -341418,-6998928 -341428,-6998940 -341439,-6998952 -341466,-6998977 -341489,-6998996 -341497,-6999011 -341504,-6999030 -341503,-6999045 -341505,-6999053 -341507,-6999056 -341514,-6999060 -341534,-6999066 -341546,-6999072 -341553,-6999088 -341561,-6999100 -341584,-6999126 -341619,-6999171 -341631,-6999185 -341658,-6999220 -341720,-6999306 -341766,-6999364 -341780,-6999385 -341784,-6999392 -341788,-6999399 -341797,-6999424 -341822,-6999496 -341823,-6999504 -341824,-6999528 -341846,-6999544 -341849,-6999548 -341855,-6999558 -341863,-6999577 -341865,-6999580 -341871,-6999584 -341875,-6999585 -341892,-6999581 -341900,-6999590 -341910,-6999586 -341933,-6999576 -342009,-6999520 -342038,-6999502 -342050,-6999502 -342057,-6999503 -342077,-6999511 -342086,-6999513 -342097,-6999512 -342102,-6999510 -342113,-6999500 -342141,-6999481 -342157,-6999467 -342165,-6999467 -342203,-6999480 -342223,-6999479 -342229,-6999477 -342251,-6999465 -342263,-6999455 -342266,-6999452 -342278,-6999434 -342285,-6999426 -342290,-6999422 -342302,-6999416 -342308,-6999413 -342314,-6999412 -342329,-6999410 -342371,-6999422 -342387,-6999421 -342439,-6999404 -342512,-6999373 -342518,-6999369 -342556,-6999343 -342579,-6999335 -342594,-6999326 -342605,-6999307 -342615,-6999294 -342674,-6999245 -342683,-6999237 -342688,-6999231 -342692,-6999229 -342695,-6999227 -342704,-6999228 -342733,-6999244 -342743,-6999248 -342752,-6999248 -342762,-6999242 -342766,-6999237 -342773,-6999228 -342776,-6999218 -342780,-6999201 -342782,-6999167 -342788,-6999141 -342797,-6999136 -342812,-6999140 -342819,-6999136 -342848,-6999100 -342851,-6999096 -342855,-6999080 -342857,-6999069 -342872,-6999053 -342881,-6999046 -342890,-6999040 -342900,-6999036 -342917,-6999031 -342941,-6999021 -342965,-6999013 -343004,-6998994 -343027,-6998962 -343034,-6998954 -343037,-6998955 -343059,-6998955 -343066,-6998950 -343079,-6998929 -343098,-6998912 -343130,-6998892 -343139,-6998888 -343161,-6998884 -343173,-6998878 -343183,-6998869 -343195,-6998850 -343213,-6998832 -343220,-6998825 -343224,-6998812 -343228,-6998801 -343235,-6998788 -343252,-6998777 -343272,-6998770 -343283,-6998770 -343295,-6998773 -343304,-6998771 -343310,-6998767 -343314,-6998762 -343332,-6998736 -343340,-6998727 -343347,-6998719 -343369,-6998701 -343385,-6998695 -343412,-6998690 -343418,-6998688 -343428,-6998685 -343433,-6998681 -343437,-6998676 -343439,-6998668 -343439,-6998658 -343437,-6998647 -343436,-6998642 -343430,-6998634 -343428,-6998627 -343427,-6998620 -343426,-6998613 -343427,-6998607 -343429,-6998597 -343435,-6998585 -343438,-6998582 -343453,-6998572 -343470,-6998554 -343491,-6998525 -343508,-6998507 -343516,-6998499 -343533,-6998488 -343546,-6998463 -343554,-6998451 -343587,-6998416 -343624,-6998391 -343648,-6998381 -343662,-6998372 -343693,-6998350 -343700,-6998346 -343707,-6998343 -343722,-6998338 -343750,-6998331 -343814,-6998300 -343840,-6998288 -343853,-6998279 -343878,-6998254 -343889,-6998251 -343919,-6998241 -343929,-6998236 -343949,-6998223 -343960,-6998216 -343981,-6998198 -344004,-6998198 -344036,-6998186 -344068,-6998180 -344081,-6998175 -344086,-6998171 -344098,-6998159 -344132,-6998150 -344191,-6998142 -344200,-6998140 -344222,-6998133 -344231,-6998126 -344240,-6998114 -344259,-6998083 -344291,-6998044 -344318,-6998050 -344330,-6998052 -344335,-6998050 -344343,-6998046 -344349,-6998041 -344355,-6998033 -344361,-6998023 -344364,-6998017 -344368,-6998002 -344383,-6997970 -344386,-6997953 -344386,-6997948 -344383,-6997923 -344384,-6997912 -344385,-6997907 -344407,-6997868 -344410,-6997864 -344420,-6997858 -344426,-6997845 -344434,-6997838 -344439,-6997834 -344452,-6997829 -344473,-6997824 -344477,-6997822 -344477,-6997822 -344480,-6997820 -344482,-6997816 -344484,-6997812 -344488,-6997801 -344492,-6997784 -344494,-6997778 -344500,-6997766 -344507,-6997756 -344510,-6997752 -344525,-6997741 -344536,-6997718 -344544,-6997705 -344565,-6997705 -344573,-6997702 -344584,-6997700 -344610,-6997694 -344616,-6997690 -344622,-6997682 -344641,-6997668 -344650,-6997664 -344659,-6997660 -344694,-6997649 -344701,-6997647 -344710,-6997648 -344714,-6997646 -344727,-6997638 -344736,-6997636 -344744,-6997627 -344755,-6997604 -344770,-6997584 -344779,-6997576 -344784,-6997573 -344789,-6997571 -344803,-6997569 -344822,-6997571 -344828,-6997584 -344838,-6997598 -344844,-6997598 -344847,-6997597 -344854,-6997594 -344868,-6997582 -344927,-6997579 -344952,-6997580 -344968,-6997581 -344973,-6997581 -345000,-6997573 -345010,-6997567 -345067,-6997528 -345105,-6997483 -345147,-6997466 -345163,-6997457 -345185,-6997440 -345250,-6997444 -345283,-6997443 -345305,-6997437 -345312,-6997435 -345337,-6997437 -345342,-6997437 -345353,-6997433 -345411,-6997403 -345421,-6997400 -345431,-6997397 -345472,-6997393 -345487,-6997392 -345499,-6997387 -345508,-6997379 -345518,-6997365 -345534,-6997331 -345541,-6997311 -345544,-6997306 -345551,-6997301 -345575,-6997294 -345584,-6997287 -345615,-6997260 -345623,-6997253 -345638,-6997247 -345658,-6997234 -345665,-6997227 -345676,-6997202 -345680,-6997196 -345688,-6997187 -345697,-6997182 -345711,-6997178 -345750,-6997169 -345784,-6997159 -345805,-6997155 -345832,-6997146 -345842,-6997139 -345845,-6997132 -345850,-6997117 -345851,-6997108 -345854,-6997073 -345857,-6997064 -345868,-6997047 -345888,-6997029 -345893,-6997018 -345905,-6996991 -345909,-6996986 -345917,-6996977 -345937,-6996960 -345942,-6996955 -345947,-6996946 -345950,-6996942 -345955,-6996938 -345965,-6996932 -346013,-6996948 -346017,-6996945 -346024,-6996928 -346024,-6996908 -346027,-6996895 -346040,-6996870 -346051,-6996858 -346052,-6996853 -346053,-6996848 -346054,-6996827 -346055,-6996822 -346057,-6996819 -346062,-6996814 -346065,-6996812 -346080,-6996811 -346086,-6996810 -346092,-6996807 -346103,-6996801 -346124,-6996776 -346132,-6996762 -346137,-6996756 -346147,-6996746 -346152,-6996742 -346189,-6996727 -346193,-6996723 -346201,-6996712 -346204,-6996706 -346209,-6996691 -346209,-6996675 -346208,-6996667 -346204,-6996649 -346208,-6996639 -346215,-6996628 -346230,-6996613 -346257,-6996596 -346284,-6996588 -346293,-6996584 -346392,-6996537 -346397,-6996535 -346408,-6996526 -346412,-6996525 -346421,-6996524 -346426,-6996525 -346446,-6996533 -346453,-6996533 -346466,-6996531 -346472,-6996529 -346482,-6996524 -346489,-6996518 -346491,-6996511 -346496,-6996500 -346506,-6996489 -346513,-6996484 -346521,-6996480 -346537,-6996475 -346572,-6996469 -346582,-6996463 -346596,-6996461 -346601,-6996462 -346611,-6996466 -346616,-6996469 -346633,-6996485 -346639,-6996488 -346662,-6996489 -346667,-6996488 -346688,-6996478 -346705,-6996464 -346711,-6996461 -346723,-6996456 -346731,-6996455 -346745,-6996455 -346768,-6996455 -346772,-6996456 -346784,-6996465 -346792,-6996470 -346801,-6996473 -346806,-6996473 -346819,-6996467 -346841,-6996451 -346856,-6996442 -346888,-6996439 -346900,-6996431 -346904,-6996413 -346920,-6996405 -346930,-6996397 -346964,-6996382 -346978,-6996374 -346993,-6996369 -347019,-6996360 -347054,-6996353 -347061,-6996354 -347098,-6996387 -347132,-6996401 -347157,-6996405 -347186,-6996405 -347218,-6996421 -347236,-6996429 -347268,-6996428 -347290,-6996428 -347324,-6996450 -347345,-6996457 -347369,-6996461 -347381,-6996460 -347390,-6996452 -347394,-6996444 -347403,-6996430 -347411,-6996426 -347427,-6996426 -347445,-6996439 -347471,-6996459 -347482,-6996463 -347493,-6996465 -347519,-6996478 -347527,-6996485 -347532,-6996502 -347524,-6996510 -347524,-6996525 -347534,-6996534 -347571,-6996564 -347612,-6996594 -347636,-6996599 -347645,-6996606 -347654,-6996613 -347665,-6996650 -347698,-6996668 -347710,-6996676 -347722,-6996686 -347744,-6996708 -347766,-6996724 -347792,-6996719 -347811,-6996710 -347834,-6996711 -347861,-6996708 -347872,-6996697 -347885,-6996679 -347905,-6996682 -347919,-6996673 -347927,-6996658 -347945,-6996632 -347961,-6996602 -347980,-6996597 -347991,-6996584 -347990,-6996575 -348000,-6996567 -348014,-6996556 -348036,-6996551 -348054,-6996546 -348104,-6996543 -348116,-6996538 -348160,-6996532 -348207,-6996536 -348249,-6996511 -348275,-6996497 -348285,-6996493 -348305,-6996502 -348326,-6996505 -348344,-6996498 -348357,-6996486 -348357,-6996471 -348357,-6996471 -348359,-6996457 -348359,-6996454 -348363,-6996440 -348365,-6996437 -348387,-6996395 -348395,-6996402 -348430,-6996405 -348457,-6996412 -348482,-6996422 -348499,-6996431 -348538,-6996472 -348569,-6996489 -348598,-6996487 -348641,-6996509 -348658,-6996526 -348679,-6996543 -348691,-6996544 -348710,-6996555 -348724,-6996559 -348740,-6996568 -348759,-6996571 -348782,-6996590 -348806,-6996590 -348833,-6996585 -348863,-6996573 -348878,-6996564 -348914,-6996542 -348934,-6996541 -348954,-6996542 -349001,-6996562 -349012,-6996565 -349032,-6996569 -349082,-6996577 -349172,-6996588 -349188,-6996593 -349209,-6996606 -349260,-6996654 -349339,-6996743 -349493,-6996916 -349566,-6997005 -349674,-6997151 -349578,-6997509 -349530,-6997727 -349567,-6997757 -349568,-6997767 -349595,-6997813 -349595,-6997827 -349606,-6997852 -349614,-6997879 -349622,-6997917 -349623,-6997920 -349625,-6997932 -349638,-6997954 -349667,-6998000 -349669,-6998010 -349674,-6998030 -349691,-6998073 -349702,-6998093 -349711,-6998126 -349771,-6998304 -349827,-6998463 -349829,-6998477 -349829,-6998489 -349824,-6998494 -349869,-6998562 -349879,-6998576 -349878,-6998611 -349892,-6998612 -349899,-6998620 -349909,-6998642 -349926,-6998657 -349989,-6998620 -350045,-6998586 -350176,-6998666 -350187,-6998653 -350223,-6998675 -350189,-6998721 -350182,-6998737 -350234,-6998768 -350255,-6998781 -350274,-6998813 -350248,-6998838 -350363,-6998954 -350318,-6998977 -350222,-6999018 -350212,-6999024 -350220,-6999032 -350244,-6999045 -350250,-6999037 -350256,-6999033 -350274,-6999033 -350279,-6999042 -350287,-6999047 -350289,-6999077 -350303,-6999078 -350306,-6999086 -350314,-6999088 -350317,-6999084 -350324,-6999091 -350345,-6999099 -350349,-6999106 -350345,-6999113 -350338,-6999117 -350334,-6999126 -350335,-6999181 -350342,-6999183 -350353,-6999183 -350368,-6999175 -350369,-6999167 -350379,-6999157 -350389,-6999158 -350409,-6999170 -350429,-6999200 -350430,-6999213 -350423,-6999223 -350410,-6999223 -350386,-6999248 -350382,-6999252 -350376,-6999265 -350369,-6999326 -350358,-6999346 -350343,-6999359 -350318,-6999382 -350308,-6999393 -350310,-6999407 -350321,-6999427 -350334,-6999433 -350355,-6999438 -350393,-6999476 -350435,-6999512 -350440,-6999535 -350457,-6999577 -350470,-6999626 -350468,-6999646 -350461,-6999673 -350461,-6999700 -350464,-6999731 -350460,-6999763 -350451,-6999785 -350444,-6999804 -350448,-6999846 -350462,-6999883 -350469,-6999909 -350481,-6999928 -350488,-6999936 -350493,-6999942 -350507,-6999955 -350539,-6999970 -350563,-6999986 -350591,-7000013 -350598,-7000020 -350619,-7000025 -350641,-7000028 -350667,-7000035 -350695,-7000065 -350720,-7000085 -350751,-7000099 -350751,-7000163 -350761,-7000177 -350768,-7000182 -350788,-7000188 -350819,-7000194 -350843,-7000201 -350852,-7000212 -350850,-7000243 -350860,-7000261 -350854,-7000303 -350849,-7000315 -350844,-7000353 -350830,-7000375 -350773,-7000408 -350759,-7000422 -350745,-7000445 -350746,-7000464 -350763,-7000507 -350769,-7000533 -350766,-7000543 -350758,-7000558 -350743,-7000571 -350725,-7000581 -350711,-7000597 -350707,-7000607 -350707,-7000622 -350715,-7000643 -350715,-7000658 -350703,-7000675 -350690,-7000681 -350670,-7000682 -350671,-7000723 -350680,-7000740 -350696,-7000753 -350697,-7000765 -350684,-7000789 -350669,-7000798 -350657,-7000796 -350633,-7000814 -350634,-7000826 -350654,-7000840 -350658,-7000851 -350645,-7000886 -350637,-7000899 -350613,-7000926 -350596,-7000948 -350598,-7000962 -350619,-7000973 -350629,-7000983 -350632,-7000996 -350631,-7001004 -350624,-7001013 -350613,-7001018 -350588,-7001019 -350574,-7001024 -350554,-7001046 -350561,-7001078 -350561,-7001097 -350564,-7001114 -350549,-7001128 -350523,-7001131 -350513,-7001143 -350503,-7001173 -350491,-7001200 -350482,-7001239 -350472,-7001260 -350461,-7001288 -350442,-7001317 -350415,-7001386 -350407,-7001413 -350401,-7001458 -350399,-7001474 -350425,-7001518 -350447,-7001561 -350452,-7001577 -350446,-7001589 -350430,-7001602 -350406,-7001612 -350372,-7001623 -350336,-7001629 -350318,-7001646 -350311,-7001663 -350311,-7001681 -350324,-7001699 -350346,-7001720 -350359,-7001722 -350375,-7001716 -350389,-7001713 -350397,-7001719 -350399,-7001751 -350395,-7001764 -350381,-7001771 -350355,-7001782 -350342,-7001792 -350326,-7001832 -350321,-7001859 -350321,-7001875 -350346,-7001913 -350355,-7001929 -350351,-7001955 -350337,-7001969 -350327,-7001992 -350306,-7002028 -350286,-7002048 -350268,-7002058 -350254,-7002063 -350240,-7002078 -350232,-7002110 -350234,-7002125 -350243,-7002138 -350242,-7002152 -350228,-7002183 -350204,-7002231 -350200,-7002249 -350266,-7002260 -350284,-7002272 -350301,-7002264 -350328,-7002264 -350343,-7002269 -350362,-7002283 -350375,-7002282 -350413,-7002282 -350430,-7002291 -350434,-7002302 -350446,-7002295 -350480,-7002318 -350530,-7002316 -350574,-7002323 -350588,-7002322 -350602,-7002297 -350630,-7002296 -350643,-7002290 -350656,-7002289 -350671,-7002296 -350688,-7002312 -350699,-7002317 -350725,-7002342 -350736,-7002341 -350783,-7002372 -350804,-7002392 -350865,-7002410 -350903,-7002411 -350935,-7002412 -350960,-7002415 -350972,-7002422 -350984,-7002431 -350999,-7002445 -351013,-7002446 -351069,-7002445 -351095,-7002458 -351121,-7002457 -351156,-7002474 -351183,-7002473 -351197,-7002468 -351217,-7002473 -351239,-7002464 -351329,-7002449 -351368,-7002439 -351396,-7002432 -351410,-7002428 -351425,-7002428 -351437,-7002435 -351448,-7002454 -351463,-7002469 -351488,-7002470 -351505,-7002475 -351762,-7002523 -351956,-7002566 -352142,-7002600 -352279,-7002680 -352499,-7002817 -352566,-7002860 -352726,-7002956 -352874,-7003048 -352921,-7003113 -352944,-7003146 -352948,-7003172 -352958,-7003173 -353001,-7003215 -353039,-7003280 -353099,-7003388 -353124,-7003434 -353149,-7003514 -353162,-7003543 -353166,-7003554 -353167,-7003556 -353211,-7003683 -353208,-7003690 -353235,-7003781 -353250,-7003828 -353265,-7003880 -353299,-7003992 -353316,-7004024 -353344,-7004078 -353401,-7004182 -353438,-7004242 -353489,-7004308 -353515,-7004346 -353586,-7004450 -353635,-7004499 -353612,-7004671 -353597,-7004778 -353571,-7004922 -353556,-7004999 -353542,-7005049 -353537,-7005092 -353529,-7005296 -353527,-7005331 -353521,-7005494 -353524,-7005569 -353522,-7005658 -353524,-7005751 -353527,-7005854 -353577,-7005946 -353614,-7006020 -353669,-7006128 -353754,-7006293 -353825,-7006422 -353866,-7006502 -353893,-7006545 -353904,-7006757 -353909,-7006883 -353919,-7007064 -354004,-7007154 -354120,-7007276 -354148,-7007372 -354206,-7007591 -354210,-7007619 -354238,-7007722 -354265,-7007818 -354324,-7008071 -354228,-7008212 -354299,-7008241 -354385,-7008279 -354406,-7008350 -354538,-7008863 -354584,-7009045 -354652,-7009302 -354533,-7009413 -354382,-7009562 -354314,-7009622 -354285,-7009654 -354256,-7009686 -354255,-7009690 -354256,-7009704 -354294,-7009699 -354346,-7009688 -354356,-7009796 -354360,-7009842 -354358,-7009950 -354352,-7009986 -354343,-7010004 -354328,-7010017 -354275,-7010047 -354175,-7010046 -354173,-7010051 -354144,-7010088 -354217,-7010175 -354272,-7010245 -354318,-7010301 -354364,-7010353 -354396,-7010397 -354417,-7010424 -354439,-7010459 -354451,-7010502 -354460,-7010551 -354461,-7010594 -354447,-7010639 -354405,-7010759 -354334,-7010808 -354353,-7010877 -354373,-7010941 -354400,-7011023 -354419,-7011075 -354383,-7011089 -354389,-7011191 -354385,-7011244 -354374,-7011243 -354363,-7011333 -354315,-7011427 -354326,-7011433 -354306,-7011470 -354280,-7011505 -354257,-7011541 -354326,-7011581 -354466,-7011622 -354761,-7011706 -354942,-7011759 -354955,-7011759 -354980,-7011767 -355152,-7011782 -355200,-7011781 -355221,-7011780 -355248,-7011772 -355300,-7011771 -355335,-7011764 -355412,-7011750 -355415,-7011774 -355462,-7011764 -355510,-7011752 -355584,-7011731 -355597,-7011741 -355628,-7011758 -355725,-7011802 -355752,-7011820 -355752,-7011877 -355721,-7011924 -355706,-7011925 -355671,-7011951 -355676,-7011965 -355677,-7011986 -355662,-7012052 -355680,-7012075 -355722,-7012195 -355796,-7012409 -355930,-7012385 -356019,-7012369 -356245,-7012342 -356448,-7012317 -356488,-7012382 -356529,-7012452 -356545,-7012480 -356562,-7012527 -356574,-7012518 -356605,-7012491 -356691,-7012423 -356716,-7012432 -356724,-7012432 -356747,-7012438 -356771,-7012449 -356804,-7012468 -356816,-7012469 -356842,-7012481 -356878,-7012513 -356906,-7012495 -356914,-7012498 -356897,-7012581 -356907,-7012587 -356921,-7012586 -356946,-7012572 -356982,-7012557 -357023,-7012551 -357024,-7012562 -357037,-7012575 -357050,-7012580 -357081,-7012600 -357112,-7012607 -357138,-7012619 -357144,-7012600 -357155,-7012582 -357170,-7012563 -357188,-7012551 -357233,-7012547 -357242,-7012539 -357251,-7012522 -357258,-7012502 -357270,-7012492 -357279,-7012477 -357276,-7012454 -357294,-7012425 -357306,-7012415 -357307,-7012404 -357314,-7012398 -357314,-7012386 -357351,-7012342 -357364,-7012332 -357354,-7012307 -357354,-7012289 -357364,-7012281 -357373,-7012245 -357372,-7012200 -357383,-7012184 -357392,-7012172 -357395,-7012148 -357402,-7012111 -357408,-7012093 -357429,-7012071 -357443,-7012039 -357470,-7012005 -357493,-7011973 -357509,-7011965 -357518,-7011957 -357527,-7011930 -357536,-7011916 -357554,-7011914 -357566,-7011904 -357590,-7011897 -357616,-7011883 -357632,-7011881 -357667,-7011862 -357697,-7011837 -357715,-7011819 -357738,-7011813 -357747,-7011808 -357761,-7011795 -357757,-7011782 -357766,-7011771 -357803,-7011768 -357841,-7011769 -357872,-7011771 -357896,-7011759 -357929,-7011758 -357958,-7011757 -357985,-7011748 -358008,-7011723 -358058,-7011699 -358076,-7011679 -358104,-7011664 -358141,-7011643 -358151,-7011640 -358153,-7011640 -358208,-7011640 -358227,-7011634 -358250,-7011622 -358274,-7011623 -358334,-7011634 -358371,-7011638 -358390,-7011636 -358419,-7011617 -358449,-7011611 -358473,-7011595 -358503,-7011592 -358512,-7011587 -358526,-7011565 -358547,-7011553 -358562,-7011552 -358588,-7011559 -358607,-7011558 -358617,-7011549 -358651,-7011544 -358662,-7011538 -358670,-7011525 -358675,-7011501 -358686,-7011485 -358702,-7011482 -358724,-7011472 -358751,-7011472 -358786,-7011453 -358798,-7011455 -358825,-7011467 -358850,-7011468 -358864,-7011456 -358889,-7011446 -358912,-7011425 -358941,-7011423 -358974,-7011412 -358986,-7011405 -358996,-7011395 -359003,-7011383 -359039,-7011381 -359068,-7011374 -359078,-7011380 -359099,-7011380 -359121,-7011411 -359144,-7011430 -359165,-7011439 -359177,-7011449 -359192,-7011456 -359205,-7011464 -359221,-7011488 -359229,-7011510 -359243,-7011528 -359249,-7011550 -359265,-7011561 -359283,-7011561 -359293,-7011570 -359294,-7011580 -359300,-7011585 -359338,-7011585 -359354,-7011577 -359377,-7011576 -359398,-7011587 -359411,-7011603 -359487,-7011618 -359504,-7011633 -359509,-7011632 -359526,-7011646 -359552,-7011661 -359598,-7011675 -359617,-7011678 -359631,-7011676 -359650,-7011666 -359669,-7011662 -359681,-7011670 -359697,-7011665 -359719,-7011643 -359743,-7011635 -359772,-7011629 -359784,-7011633 -359798,-7011634 -359838,-7011603 -359849,-7011581 -359871,-7011580 -359885,-7011566 -359897,-7011562 -359904,-7011565 -359928,-7011565 -359950,-7011578 -360003,-7011574 -360055,-7011571 -360075,-7011575 -360081,-7011585 -360090,-7011579 -360096,-7011592 -360109,-7011584 -360150,-7011594 -360237,-7011588 -360252,-7011580 -360277,-7011585 -360317,-7011569 -360350,-7011559 -360442,-7011538 -360478,-7011527 -360513,-7011517 -360564,-7011517 -360577,-7011522 -360605,-7011513 -360648,-7011500 -360672,-7011491 -360689,-7011446 -360695,-7011432 -360706,-7011419 -360726,-7011395 -360755,-7011370 -360771,-7011360 -360797,-7011347 -360823,-7011340 -360919,-7011333 -360947,-7011324 -360965,-7011316 -360992,-7011291 -361027,-7011271 -361041,-7011269 -361081,-7011252 -361109,-7011233 -361124,-7011220 -361137,-7011218 -361158,-7011232 -361295,-7011210 -361355,-7011211 -361405,-7011221 -361455,-7011229 -361496,-7011238 -361630,-7011335 -361640,-7011369 -361660,-7011390 -361676,-7011399 -361785,-7011401 -361872,-7011416 -362032,-7011473 -362130,-7011507 -362253,-7011550 -362345,-7011580 -362454,-7011619 -362456,-7011620 -362499,-7011644 -362526,-7011661 -362621,-7011726 -362685,-7011767 -362706,-7011782 -362749,-7011812 -362754,-7011814 -362903,-7011851 -362971,-7011869 -363014,-7011879 -363059,-7011892 -363105,-7011907 -363312,-7011986 -363469,-7011890 -363830,-7012066 -363885,-7012088 -363943,-7012107 -364148,-7012178 -364121,-7012255 -364104,-7012543 -364205,-7012625 -364186,-7012713 -364178,-7012758 -364142,-7012942 -364211,-7013101 -364311,-7013310 -364508,-7013383 -364615,-7013454 -364681,-7013611 -364746,-7013763 -364823,-7013838 -364894,-7013904 -364979,-7013967 -365080,-7014048 -365160,-7014068 -365236,-7014243 -365121,-7014348 -365091,-7014436 -365065,-7014520 -365049,-7014565 -365021,-7014659 -364971,-7014746 -364913,-7014941 -365017,-7015108 -364997,-7015200 -364997,-7015280 -365013,-7015349 -365039,-7015463 -365044,-7015661 -364936,-7015736 -364917,-7015748 -364894,-7015762 -364847,-7015787 -364786,-7015820 -364679,-7015879 -364704,-7015974 -364666,-7016041 -364586,-7016183 -364590,-7016255 -364623,-7016312 -364684,-7016413 -364707,-7016452 -364752,-7016510 -364812,-7016577 -364932,-7016736 -365018,-7016876 -365051,-7016935 -365141,-7017085 -365203,-7017062 -365256,-7017061 -365266,-7017062 -365276,-7017069 -365331,-7017125 -365339,-7017140 -365349,-7017168 -365350,-7017188 -365335,-7017223 -365333,-7017250 -365371,-7017313 -365422,-7017384 -365494,-7017493 -365524,-7017536 -365567,-7017603 -365618,-7017671 -365665,-7017738 -365689,-7017771 -365724,-7017827 -365743,-7017852 -365773,-7017885 -365812,-7017913 -365838,-7017930 -365849,-7017947 -365958,-7018090 -366039,-7018204 -366086,-7018270 -366115,-7018308 -366160,-7018367 -366209,-7018388 -366242,-7018444 -366249,-7018476 -366277,-7018545 -366280,-7018564 -366463,-7018590 -366530,-7018603 -366705,-7018630 -366805,-7018641 -366850,-7018648 -366956,-7018656 -367022,-7018705 -367064,-7018737 -367119,-7018777 -367172,-7018815 -367218,-7018848 -367257,-7018874 -367302,-7018906 -367400,-7018970 -367466,-7019002 -367512,-7019010 -367541,-7019077 -367566,-7019128 -367580,-7019162 -367608,-7019163 -367633,-7019172 -367651,-7019180 -367692,-7019202 -367711,-7019216 -367732,-7019232 -367784,-7019278 -367827,-7019319 -367853,-7019332 -367885,-7019349 -367905,-7019363 -367931,-7019388 -367959,-7019441 -367987,-7019474 -368021,-7019495 -368043,-7019514 -368053,-7019520 -368088,-7019539 -368114,-7019555 -368143,-7019582 -368178,-7019614 -368211,-7019653 -368216,-7019663 -368257,-7019726 -368277,-7019767 -368284,-7019810 -368298,-7019838 -368320,-7019878 -368333,-7019898 -368364,-7019932 -368375,-7019946 -368380,-7019957 -368385,-7019974 -368390,-7020006 -368389,-7020051 -368515,-7020133 -368550,-7020176 -368582,-7020212 -368512,-7020338 -368450,-7020446 -368416,-7020502 -368348,-7020616 -368279,-7020677 -368229,-7020721 -368168,-7020776 -368108,-7020830 -368046,-7020908 -367969,-7021003 -367966,-7021048 -367957,-7021171 -367937,-7021277 -367931,-7021291 -367860,-7021402 -367847,-7021434 -367836,-7021466 -367817,-7021522 -367816,-7021537 -367823,-7021571 -367862,-7021570 -367866,-7021559 -367962,-7021582 -368010,-7021596 -368092,-7021613 -368161,-7021649 -368368,-7021318 -368633,-7021427 -368789,-7021431 -368904,-7021555 -369009,-7021667 -369103,-7021768 -369226,-7021902 -369256,-7021936 -369208,-7022000 -369312,-7022025 -369309,-7022041 -369308,-7022056 -369314,-7022075 -369317,-7022083 -369321,-7022091 -369333,-7022105 -369334,-7022112 -369348,-7022187 -369358,-7022243 -369364,-7022281 -369383,-7022396 -369399,-7022546 -369407,-7022652 -369413,-7022703 -369430,-7022879 -369443,-7022951 -369455,-7023037 -369467,-7023114 -369486,-7023185 -369508,-7023244 -369525,-7023283 -369541,-7023323 -369570,-7023389 -369638,-7023538 -369693,-7023659 -369716,-7023691 -369799,-7023806 -369845,-7023872 -369796,-7023953 -369776,-7023991 -369763,-7024008 -369757,-7024012 -369709,-7024010 -369641,-7023993 -369578,-7023976 -369536,-7023957 -369502,-7023955 -369434,-7023957 -369389,-7023981 -369329,-7024015 -369311,-7024025 -369240,-7024072 -369174,-7024182 -369067,-7024360 -369023,-7024437 -369001,-7024467 -368931,-7024575 -368911,-7024607 -368827,-7024721 -368759,-7024810 -368699,-7024879 -368632,-7024946 -368597,-7024983 -368555,-7025026 -368467,-7025111 -368444,-7025140 -368422,-7025169 -368381,-7025257 -368166,-7025334 -368180,-7025393 -368206,-7025421 -368214,-7025439 -368239,-7025495 -368272,-7025517 -368242,-7025555 -368224,-7025573 -368189,-7025596 -368192,-7025624 -368188,-7025638 -368176,-7025670 -368164,-7025692 -368131,-7025702 -368107,-7025690 -368109,-7025720 -368105,-7025749 -368096,-7025773 -368069,-7025794 -368056,-7025798 -367960,-7025874 -367951,-7025895 -367946,-7025941 -367940,-7025993 -367895,-7026084 -367887,-7026115 -367864,-7026168 -367848,-7026199 -367890,-7026207 -367905,-7026203 -367951,-7026208 -367976,-7026218 -368012,-7026211 -368076,-7026214 -368119,-7026213 -368142,-7026203 -368152,-7026191 -368174,-7026176 -368197,-7026166 -368215,-7026163 -368266,-7026160 -368286,-7026166 -368337,-7026176 -368360,-7026181 -368411,-7026182 -368431,-7026188 -368447,-7026189 -368468,-7026190 -368493,-7026193 -368513,-7026203 -368555,-7026199 -368601,-7026192 -368601,-7026198 -368578,-7026214 -368605,-7026242 -368604,-7026293 -368609,-7026308 -368622,-7026350 -368623,-7026371 -368637,-7026406 -368642,-7026485 -368641,-7026515 -368639,-7026556 -368632,-7026603 -368632,-7026620 -368685,-7026631 -368775,-7026653 -368852,-7026667 -368926,-7026681 -369093,-7026719 -369096,-7026725 -369155,-7026730 -369276,-7026742 -369315,-7026762 -369346,-7026763 -369360,-7026773 -369441,-7026791 -369463,-7026795 -369535,-7026801 -369658,-7026810 -369798,-7026818 -369870,-7026826 -369943,-7026841 -369964,-7026850 -370042,-7026873 -370109,-7026896 -370189,-7026921 -370223,-7026931 -370245,-7026936 -370384,-7026952 -370531,-7026961 -370597,-7026968 -370700,-7026970 -370743,-7026966 -370843,-7026952 -370919,-7026941 -370993,-7026928 -371096,-7026903 -371101,-7026901 -371117,-7026894 -371123,-7026968 -371117,-7026997 -371094,-7027025 -371056,-7027062 -371038,-7027088 -371017,-7027163 -371007,-7027180 -370996,-7027198 -370997,-7027222 -371008,-7027249 -371009,-7027268 -371005,-7027290 -371007,-7027303 -371016,-7027325 -371019,-7027364 -371070,-7027406 -371085,-7027408 -371101,-7027402 -371103,-7027421 -371125,-7027446 -371140,-7027449 -371144,-7027453 -371148,-7027466 -371162,-7027486 -371189,-7027509 -371195,-7027526 -371207,-7027533 -371210,-7027545 -371221,-7027555 -371242,-7027554 -371251,-7027561 -371254,-7027578 -371245,-7027594 -371260,-7027614 -371281,-7027621 -371293,-7027634 -371315,-7027644 -371325,-7027661 -371338,-7027670 -371352,-7027672 -371358,-7027683 -371358,-7027709 -371365,-7027722 -371362,-7027747 -371371,-7027756 -371393,-7027738 -371406,-7027739 -371426,-7027746 -371425,-7027760 -371435,-7027774 -371436,-7027791 -371445,-7027811 -371462,-7027823 -371492,-7027824 -371511,-7027848 -371536,-7027870 -371557,-7027904 -371576,-7027939 -371592,-7027965 -371622,-7028003 -371622,-7028018 -371618,-7028023 -371604,-7028025 -371599,-7028031 -371603,-7028044 -371635,-7028089 -371657,-7028106 -371666,-7028122 -371678,-7028145 -371688,-7028181 -371691,-7028199 -371702,-7028238 -371733,-7028272 -371748,-7028293 -371815,-7028357 -371828,-7028358 -371882,-7028355 -371901,-7028372 -371916,-7028420 -371937,-7028444 -371955,-7028444 -371963,-7028456 -371987,-7028455 -371995,-7028461 -371992,-7028482 -371999,-7028501 -372001,-7028533 -372019,-7028548 -372019,-7028570 -372025,-7028582 -372044,-7028596 -372042,-7028625 -372061,-7028658 -372066,-7028675 -372074,-7028690 -372105,-7028708 -372126,-7028765 -372139,-7028774 -372140,-7028787 -372146,-7028794 -372156,-7028790 -372167,-7028790 -372202,-7028811 -372214,-7028813 -372246,-7028843 -372267,-7028843 -372274,-7028848 -372292,-7028851 -372296,-7028883 -372326,-7028880 -372334,-7028890 -372363,-7028917 -372374,-7028936 -372381,-7028950 -372408,-7028977 -372427,-7029010 -372457,-7029026 -372484,-7029047 -372505,-7029076 -372530,-7029078 -372555,-7029115 -372567,-7029128 -372595,-7029144 -372612,-7029158 -372674,-7029200 -372705,-7029215 -372716,-7029233 -372757,-7029254 -372767,-7029261 -372784,-7029264 -372797,-7029276 -372817,-7029282 -372826,-7029296 -372832,-7029317 -372840,-7029326 -372867,-7029354 -372871,-7029373 -372857,-7029405 -372852,-7029410 -372849,-7029423 -372840,-7029432 -372823,-7029460 -372829,-7029474 -372825,-7029491 -372828,-7029510 -372826,-7029520 -372828,-7029541 -372822,-7029561 -372824,-7029573 -372822,-7029591 -372829,-7029605 -372832,-7029620 -372841,-7029653 -372875,-7029679 -372913,-7029709 -372919,-7029727 -372938,-7029739 -372961,-7029768 -372975,-7029776 -373000,-7029798 -373021,-7029813 -373038,-7029821 -373052,-7029817 -373068,-7029806 -373087,-7029795 -373106,-7029782 -373168,-7029789 -373208,-7029785 -373242,-7029786 -373264,-7029790 -373316,-7029806 -373337,-7029815 -373358,-7029811 -373452,-7029812 -373482,-7029814 -373503,-7029820 -373560,-7029842 -373612,-7029856 -373671,-7029865 -373737,-7029873 -373792,-7029882 -373903,-7029901 -374150,-7029913 -374154,-7029929 -374177,-7029940 -374228,-7029949 -374228,-7029952 -374129,-7030014 -373990,-7030100 -373946,-7030137 -373880,-7030194 -373820,-7030245 -373764,-7030303 -373724,-7030353 -373660,-7030426 -373604,-7030488 -373582,-7030509 -373529,-7030559 -373384,-7030713 -373185,-7030923 -373078,-7031036 -372930,-7031196 -372811,-7031340 -372791,-7031368 -372766,-7031397 -372707,-7031468 -372660,-7031524 -372611,-7031582 -372591,-7031607 -372532,-7031663 -372482,-7031733 -372420,-7031794 -372349,-7031868 -372214,-7032017 -372132,-7032106 -372047,-7032195 -371994,-7032245 -371955,-7032295 -371940,-7032323 -371858,-7032379 -371760,-7032466 -371586,-7032632 -371425,-7032786 -371317,-7032883 -371200,-7032984 -371118,-7033065 -371062,-7033109 -371003,-7033158 -370989,-7033187 -370973,-7033217 -370714,-7033619 -370671,-7033695 -370652,-7033724 -370691,-7033767 -370713,-7033796 -370732,-7033850 -370764,-7033921 -370802,-7033920 -370819,-7033945 -370855,-7033993 -370857,-7034002 -370890,-7034047 -370905,-7034067 -370924,-7034076 -370939,-7034090 -370961,-7034101 -371013,-7034130 -371047,-7034150 -371090,-7034176 -371122,-7034208 -371135,-7034213 -371152,-7034230 -371168,-7034241 -371194,-7034263 -371209,-7034285 -371220,-7034310 -371239,-7034330 -371268,-7034344 -371297,-7034357 -371340,-7034369 -371417,-7034385 -371437,-7034387 -371462,-7034390 -371482,-7034398 -371509,-7034401 -371538,-7034410 -371556,-7034412 -371584,-7034414 -371610,-7034419 -371623,-7034416 -371647,-7034407 -371662,-7034405 -371694,-7034421 -371717,-7034423 -371751,-7034433 -371769,-7034442 -371785,-7034450 -371821,-7034453 -371836,-7034459 -371846,-7034468 -371857,-7034493 -371875,-7034505 -371903,-7034515 -371915,-7034528 -371921,-7034560 -371950,-7034606 -371966,-7034619 -371971,-7034621 -371988,-7034625 -371997,-7034629 -372009,-7034648 -372018,-7034653 -372027,-7034649 -372058,-7034599 -372076,-7034587 -372099,-7034589 -372112,-7034598 -372125,-7034618 -372142,-7034654 -372149,-7034681 -372151,-7034724 -372144,-7034735 -372145,-7034747 -372160,-7034772 -372162,-7034781 -372172,-7034789 -372208,-7034794 -372227,-7034798 -372265,-7034813 -372278,-7034818 -372302,-7034829 -372320,-7034841 -372338,-7034853 -372357,-7034873 -372370,-7034892 -372396,-7034915 -372407,-7034953 -372407,-7034972 -372403,-7034977 -372401,-7034992 -372413,-7035003 -372412,-7035034 -372421,-7035046 -372442,-7035063 -372457,-7035071 -372469,-7035082 -372484,-7035118 -372486,-7035129 -372492,-7035142 -372522,-7035174 -372548,-7035190 -372604,-7035219 -372621,-7035230 -372635,-7035253 -372679,-7035262 -372676,-7035262 -372794,-7035262 -372842,-7035262 -372859,-7035263 -372920,-7035269 -373034,-7035278 -373134,-7035288 -373153,-7035294 -373179,-7035296 -373223,-7035283 -373283,-7035284 -373332,-7035303 -373363,-7035313 -373380,-7035323 -373412,-7035371 -373424,-7035387 -373440,-7035399 -373464,-7035421 -373500,-7035468 -373535,-7035514 -373554,-7035527 -373550,-7035529 -373574,-7035557 -373581,-7035557 -373583,-7035570 -373602,-7035594 -373626,-7035611 -373629,-7035608 -373688,-7035674 -373703,-7035690 -373701,-7035713 -373696,-7035717 -373696,-7035737 -373681,-7035774 -373677,-7035795 -373677,-7035811 -373674,-7035818 -373673,-7035826 -373680,-7035835 -373683,-7035871 -373713,-7035949 -373729,-7036001 -373766,-7036094 -373776,-7036133 -373785,-7036157 -373796,-7036208 -373796,-7036222 -373797,-7036247 -373835,-7036247 -373849,-7036251 -373848,-7036280 -373859,-7036285 -373859,-7036339 -373851,-7036384 -373854,-7036460 -373818,-7036492 -373800,-7036510 -373787,-7036519 -373780,-7036530 -373734,-7036551 -373717,-7036571 -373672,-7036704 -373669,-7036745 -373655,-7036766 -373629,-7036779 -373621,-7036795 -373611,-7036869 -373598,-7036890 -373591,-7036939 -373574,-7036965 -373576,-7037049 -373574,-7037095 -373573,-7037132 -373572,-7037178 -373571,-7037234 -373578,-7037256 -373580,-7037293 -373611,-7037340 -373614,-7037374 -373598,-7037420 -373586,-7037441 -373584,-7037464 -373574,-7037481 -373576,-7037515 -373549,-7037539 -373550,-7037548 -373571,-7037570 -373578,-7037605 -373582,-7037644 -373574,-7037688 -373579,-7037702 -373602,-7037731 -373602,-7037768 -373571,-7037866 -373571,-7037880 -373563,-7037899 -373564,-7037926 -373548,-7037957 -373546,-7037973 -373536,-7037994 -373549,-7038056 -373550,-7038109 -373561,-7038122 -373560,-7038139 -373569,-7038140 -373580,-7038165 -373592,-7038175 -373704,-7038196 -373773,-7038211 -373794,-7038198 -373796,-7038202 -373800,-7038200 -373824,-7038196 -373851,-7038208 -373875,-7038212 -373895,-7038224 -373907,-7038241 -374138,-7038305 -374257,-7038339 -374243,-7038284 -374244,-7038263 -374248,-7038253 -374255,-7038195 -374290,-7037760 -374298,-7037710 -374297,-7037688 -374289,-7037657 -374340,-7037626 -374496,-7037530 -374555,-7037495 -374623,-7037463 -374668,-7037446 -374713,-7037430 -374799,-7037396 -374896,-7037369 -374960,-7037353 -375016,-7037341 -375233,-7037333 -375246,-7037326 -375288,-7037346 -375351,-7037347 -375369,-7037344 -375413,-7037319 -375477,-7037276 -375532,-7037248 -375579,-7037223 -375670,-7037171 -375715,-7037139 -375717,-7037129 -375806,-7037204 -375860,-7037245 -375892,-7037266 -375854,-7037307 -375830,-7037361 -375812,-7037415 -375788,-7037422 -375787,-7037442 -375777,-7037490 -375776,-7037564 -375779,-7037619 -375793,-7037661 -375831,-7037760 -375885,-7037875 -375952,-7037853 -375952,-7037842 -375996,-7037806 -376017,-7037789 -376038,-7037768 -376063,-7037750 -376114,-7037722 -376139,-7037697 -376158,-7037719 -376177,-7037734 -376209,-7037743 -376227,-7037758 -376248,-7037803 -376263,-7037852 -376281,-7037903 -376308,-7037965 -376317,-7037998 -376368,-7038077 -376386,-7038107 -376404,-7038138 -376443,-7038204 -376456,-7038228 -376456,-7038255 -376427,-7038374 -376420,-7038380 -376429,-7038388 -376436,-7038452 -376439,-7038491 -376442,-7038625 -376459,-7038697 -376485,-7038728 -376496,-7038750 -376499,-7038778 -376495,-7038796 -376484,-7038821 -376499,-7038835 -376502,-7038879 -376510,-7038881 -376534,-7038860 -376567,-7038841 -376577,-7038840 -376629,-7038844 -376655,-7038837 -376693,-7038833 -376715,-7038823 -376764,-7038827 -376842,-7038819 -376906,-7038820 -376915,-7038823 -376921,-7038839 -376955,-7038838 -376973,-7038834 -376982,-7038816 -376997,-7038792 -376999,-7038764 -377007,-7038749 -377040,-7038716 -377056,-7038706 -377076,-7038705 -377092,-7038716 -377110,-7038718 -377122,-7038732 -377132,-7038741 -377159,-7038747 -377190,-7038756 -377220,-7038774 -377257,-7038778 -377295,-7038788 -377326,-7038787 -377349,-7038768 -377369,-7038755 -377389,-7038747 -377403,-7038744 -377427,-7038740 -377457,-7038745 -377468,-7038758 -377475,-7038774 -377523,-7038774 -377563,-7038778 -377578,-7038775 -377591,-7038773 -377604,-7038785 -377606,-7038798 -377628,-7038851 -377631,-7038876 -377626,-7038888 -377624,-7038939 -377633,-7038949 -377648,-7038953 -377656,-7038951 -377704,-7038959 -377738,-7038968 -377755,-7038972 -377772,-7038991 -377783,-7038991 -377803,-7038984 -377818,-7038984 -377856,-7039001 -377844,-7039041 -377831,-7039067 -377825,-7039118 -377821,-7039129 -377821,-7039163 -377807,-7039201 -377809,-7039301 -377804,-7039322 -377780,-7039344 -377749,-7039365 -377731,-7039408 -377725,-7039425 -377726,-7039447 -377729,-7039454 -377717,-7039504 -377781,-7039632 -377822,-7039715 -377823,-7039755 -377642,-7039764 -377572,-7039770 -377513,-7039777 -377379,-7039795 -377324,-7039814 -377317,-7039825 -377326,-7039830 -377331,-7039897 -377342,-7039991 -377350,-7040032 -377355,-7040060 -377346,-7040068 -377347,-7040080 -377376,-7040126 -377431,-7040214 -377468,-7040268 -377414,-7040280 -377288,-7040307 -377213,-7040319 -377164,-7040327 -377048,-7040328 -377146,-7040452 -376968,-7040547 -377059,-7040650 -376986,-7040715 -376938,-7040758 -376900,-7040794 -376850,-7040832 -376745,-7040910 -376679,-7040959 -376601,-7041017 -376579,-7041045 -376532,-7041091 -376452,-7041172 -376382,-7041226 -376302,-7041281 -376330,-7041382 -376378,-7041532 -376387,-7041546 -376394,-7041576 -376405,-7041632 -376430,-7041609 -376445,-7041600 -376464,-7041588 -376513,-7041574 -376527,-7041569 -376578,-7041558 -376640,-7041543 -376755,-7041512 -376794,-7041494 -376857,-7041458 -376956,-7041447 -377100,-7041395 -377127,-7041392 -377169,-7041410 -377181,-7041410 -377224,-7041378 -377302,-7041339 -377440,-7041251 -377480,-7041230 -377545,-7041205 -377640,-7041169 -377718,-7041147 -377765,-7041132 -377729,-7041046 -377705,-7040987 -377634,-7040813 -377645,-7040803 -377695,-7040776 -377765,-7040742 -377845,-7040705 -377849,-7040708 -377894,-7040668 -377956,-7040631 -377991,-7040613 -378068,-7040573 -378128,-7040543 -378177,-7040515 -378221,-7040491 -378257,-7040523 -378272,-7040539 -378295,-7040607 -378297,-7040632 -378329,-7040760 -378338,-7040814 -378350,-7040852 -378365,-7040900 -378408,-7040944 -378430,-7040963 -378433,-7041014 -378450,-7041070 -378479,-7041127 -378505,-7041175 -378520,-7041189 -378545,-7041225 -378552,-7041259 -378552,-7041265 -378529,-7041299 -378524,-7041312 -378508,-7041332 -378483,-7041357 -378471,-7041349 -378473,-7041425 -378446,-7041532 -378434,-7041535 -378432,-7041567 -378416,-7041616 -378418,-7041655 -378429,-7041720 -378434,-7041743 -378426,-7041749 -378437,-7041750 -378458,-7041808 -378461,-7041831 -378489,-7041899 -378514,-7041975 -378501,-7041992 -378480,-7042026 -378456,-7042051 -378375,-7042091 -378358,-7042109 -378342,-7042117 -378296,-7042115 -378272,-7042116 -378273,-7042133 -378269,-7042142 -378160,-7042272 -378177,-7042290 -378200,-7042299 -378203,-7042325 -378204,-7042378 -378199,-7042409 -378186,-7042426 -378169,-7042439 -378174,-7042470 -378169,-7042483 -378162,-7042561 -378153,-7042568 -378154,-7042762 -378146,-7042806 -378139,-7042833 -378129,-7042848 -378126,-7042854 -378106,-7042888 -378096,-7042906 -378088,-7042930 -378078,-7042964 -378064,-7042997 -378037,-7043031 -378041,-7043051 -378039,-7043096 -378038,-7043114 -378027,-7043200 -377998,-7043265 -377968,-7043314 -377868,-7043499 -377829,-7043579 -377800,-7043635 -377784,-7043678 -377758,-7043711 -377732,-7043723 -377706,-7043728 -377676,-7043731 -377641,-7043741 -377625,-7043743 -377581,-7043743 -377574,-7043742 -377571,-7043728 -377543,-7043668 -377533,-7043635 -377517,-7043554 -377488,-7043443 -377467,-7043412 -377436,-7043384 -377361,-7043273 -377350,-7043254 -377397,-7043163 -377427,-7043111 -377435,-7043084 -377448,-7043062 -377437,-7043057 -377436,-7043027 -377435,-7042972 -377424,-7042935 -377400,-7042936 -377383,-7042949 -377343,-7042970 -377307,-7042986 -377283,-7042991 -377252,-7042994 -377253,-7042999 -377228,-7043003 -377189,-7043012 -377149,-7043041 -377127,-7043068 -377103,-7043097 -377035,-7043154 -376990,-7043186 -376930,-7043202 -376891,-7043241 -376862,-7043273 -376798,-7043307 -376759,-7043327 -376702,-7043348 -376677,-7043360 -376583,-7043436 -376510,-7043497 -376437,-7043560 -376418,-7043569 -376397,-7043574 -376340,-7043598 -376302,-7043620 -376294,-7043621 -376257,-7043643 -376223,-7043669 -376219,-7043663 -376172,-7043711 -376088,-7043764 -376053,-7043782 -375990,-7043814 -375915,-7043842 -375881,-7043852 -375858,-7043854 -375842,-7043849 -375836,-7043861 -375827,-7043920 -375805,-7044000 -375785,-7044030 -375761,-7044101 -375750,-7044143 -375733,-7044175 -375735,-7044250 -375744,-7044288 -375775,-7044343 -375791,-7044412 -375804,-7044443 -375840,-7044530 -375868,-7044578 -375869,-7044604 -375881,-7044626 -375913,-7044693 -375884,-7044720 -375854,-7044738 -375815,-7044752 -375780,-7044763 -375706,-7044777 -375653,-7044780 -375582,-7044777 -375568,-7044791 -375559,-7044801 -375456,-7044853 -375467,-7044880 -375469,-7044944 -375426,-7045027 -375354,-7045164 -375301,-7045198 -375148,-7045110 -375119,-7045135 -375051,-7045065 -375046,-7045070 -375062,-7045086 -374971,-7045215 -374944,-7045250 -374967,-7045306 -374947,-7045377 -374926,-7045426 -374924,-7045434 -374904,-7045475 -374888,-7045541 -374892,-7045571 -374888,-7045736 -374881,-7045751 -374886,-7045854 -374874,-7045852 -374819,-7045841 -374791,-7045828 -374788,-7045915 -374786,-7046005 -374872,-7045983 -374878,-7046011 -374889,-7046014 -374914,-7046011 -374918,-7046010 -374932,-7046010 -374942,-7046020 -374944,-7046034 -374945,-7046055 -374944,-7046082 -374867,-7046108 -374810,-7046127 -374820,-7046183 -374826,-7046230 -374819,-7046247 -374822,-7046271 -374827,-7046330 -374833,-7046381 -374836,-7046430 -374844,-7046518 -374852,-7046606 -374907,-7046597 -374937,-7046680 -374862,-7046678 -374868,-7046711 -374913,-7046850 -374921,-7046866 -374932,-7046880 -374969,-7046916 -374977,-7046928 -374989,-7046954 -374983,-7046954 -375016,-7047098 -375037,-7047184 -375009,-7047182 -374868,-7047215 -374770,-7047238 -374461,-7047299 -374107,-7047364 -374161,-7047540 -374251,-7047848 -374301,-7048005 -374324,-7048083 -374380,-7048275 -374411,-7048375 -374414,-7048385 -374415,-7048386 -374439,-7048470 -374474,-7048592 -374507,-7048691 -374533,-7048765 -374718,-7049373 -374686,-7049389 -374675,-7049392 -374655,-7049395 -374648,-7049397 -374633,-7049403 -374600,-7049418 -374563,-7049432 -374505,-7049456 -374493,-7049460 -374458,-7049467 -374412,-7049475 -374391,-7049479 -374334,-7049500 -374200,-7049545 -374146,-7049557 -374128,-7049563 -374078,-7049587 -373993,-7049614 -373947,-7049639 -373927,-7049646 -373917,-7049650 -373901,-7049661 -373840,-7049692 -373817,-7049701 -373768,-7049716 -373738,-7049727 -373714,-7049733 -373675,-7049739 -373638,-7049749 -373588,-7049757 -373552,-7049760 -373524,-7049763 -373497,-7049768 -373467,-7049775 -373394,-7049787 -373343,-7049803 -373321,-7049819 -373274,-7049834 -373178,-7049864 -373119,-7049881 -373091,-7049888 -372969,-7049904 -372911,-7049913 -372718,-7049952 -372671,-7049960 -372487,-7049977 -372441,-7049980 -372417,-7049980 -372310,-7049978 -372242,-7049979 -372164,-7049987 -372063,-7049999 -371888,-7050018 -371793,-7050021 -371654,-7050019 -371585,-7050020 -371517,-7050019 -371442,-7050022 -371327,-7050032 -371284,-7050032 -371230,-7050034 -371163,-7050031 -371120,-7050035 -371075,-7050037 -371012,-7050037 -370901,-7050039 -370761,-7050049 -370458,-7050077 -370333,-7050090 -370299,-7050095 -370284,-7050098 -370142,-7050127 -370115,-7050133 -370016,-7050159 -369879,-7050183 -369764,-7050201 -369668,-7050212 -369630,-7050219 -369591,-7050224 -369555,-7050223 -369517,-7050219 -369486,-7050212 -369432,-7050197 -369415,-7050193 -369240,-7050188 -369228,-7050187 -369222,-7050186 -369180,-7050173 -369105,-7050157 -369040,-7050141 -368982,-7050115 -368917,-7050091 -368895,-7050083" stroke="#003087" stroke-width="107" /></svg>