<?xml version="1.0" standalone="no"?>
<!DOCTYPE svg PUBLIC "-//W3C//DTD SVG 1.1//EN"
"http://www.w3.org/Graphics/SVG/1.1/DTD/svg11.dtd">
<svg height="115" version="1.1" viewBox="-419659 -6736340 34157 31723" width="220" xmlns="http://www.w3.org/2000/svg"><polygon fill="#003087" points=" -405892,-6735771 -405890,-6735770 -405723,-6735789 -405678,-6735798 -405659,-6735801 -405639,-6735804 -405595,-6735808 -405537,-6735802 -405467,-6735797 -405347,-6735783 -405277,-6735778 -405198,-6735768 -405160,-6735765 -405130,-6735764 -405055,-6735769 -405023,-6735774 -404994,-6735776 -404895,-6735758 -404720,-6735722 -404669,-6735712 -404577,-6735694 -404507,-6735683 -404350,-6735653 -404253,-6735637 -404151,-6735615 -403979,-6735587 -403718,-6735534 -403403,-6735476 -403177,-6735433 -402755,-6735353 -402398,-6735283 -401369,-6735093 -400736,-6734972 -400695,-6734964 -400593,-6734944 -400450,-6734919 -400287,-6734886 -400273,-6734885 -400268,-6734948 -400263,-6735079 -400255,-6735318 -400240,-6735512 -400240,-6735523 -399757,-6735690 -399422,-6735806 -398935,-6735980 -398729,-6736057 -398551,-6736113 -398308,-6736056 -398076,-6736000 -397566,-6735880 -397507,-6735859 -397414,-6735838 -397164,-6735777 -397037,-6735746 -396966,-6735727 -396906,-6735710 -396831,-6735876 -396779,-6736006 -396698,-6736205 -396665,-6736276 -396608,-6736218 -396595,-6736203 -396575,-6736188 -396553,-6736177 -396524,-6736168 -396504,-6736160 -396475,-6736159 -396442,-6736161 -396408,-6736166 -396395,-6736168 -396238,-6736239 -396142,-6736282 -396096,-6736300 -396052,-6736317 -396011,-6736324 -395820,-6736328 -395491,-6736336 -395328,-6736338 -395206,-6736340 -395165,-6736336 -395129,-6736326 -395085,-6736314 -395045,-6736296 -395028,-6736286 -394946,-6736221 -394893,-6736181 -394781,-6736091 -394741,-6736067 -394701,-6736048 -394680,-6736036 -394651,-6736025 -394582,-6736001 -394516,-6735987 -394445,-6735980 -394382,-6735979 -394308,-6735984 -394248,-6735992 -394163,-6736017 -394088,-6736035 -393986,-6736063 -393949,-6736070 -393917,-6736071 -393879,-6736066 -393862,-6736061 -393834,-6736047 -393808,-6736034 -393779,-6736010 -393756,-6735988 -393733,-6735946 -393719,-6735907 -393711,-6735863 -393708,-6735827 -393705,-6735797 -393705,-6735790 -393696,-6735755 -393686,-6735723 -393672,-6735691 -393651,-6735662 -393621,-6735623 -393605,-6735594 -393597,-6735565 -393597,-6735522 -393607,-6735463 -393608,-6735438 -393608,-6735412 -393602,-6735367 -393579,-6735318 -393549,-6735276 -393532,-6735265 -393508,-6735260 -393475,-6735265 -393440,-6735289 -393434,-6735305 -393432,-6735331 -393436,-6735348 -393444,-6735363 -393461,-6735383 -393448,-6735391 -393447,-6735388 -393428,-6735353 -393406,-6735311 -393347,-6735209 -393339,-6735190 -393339,-6735166 -393342,-6735142 -393351,-6735125 -393355,-6735121 -393355,-6735120 -393336,-6735106 -393247,-6735051 -393067,-6734933 -392799,-6734771 -392643,-6734672 -392379,-6734504 -392330,-6734435 -392304,-6734395 -392271,-6734345 -392192,-6734229 -392111,-6734005 -392004,-6733733 -391931,-6733526 -391926,-6733513 -391920,-6733496 -391915,-6733483 -391910,-6733473 -391878,-6733413 -391668,-6733022 -391620,-6732943 -391542,-6732798 -391486,-6732695 -391305,-6732358 -391294,-6732338 -391061,-6731942 -390841,-6731559 -390733,-6731372 -390685,-6731344 -390642,-6731303 -390623,-6731293 -390594,-6731284 -390577,-6731281 -390568,-6731278 -390550,-6731272 -390451,-6731242 -390442,-6731238 -390436,-6731235 -390425,-6731226 -390395,-6731208 -390369,-6731183 -390350,-6731173 -390293,-6731145 -390242,-6731129 -390208,-6731132 -390188,-6731133 -390128,-6731097 -390080,-6731068 -390072,-6731066 -390056,-6731067 -390016,-6731049 -389986,-6731032 -389984,-6731031 -389958,-6730984 -389950,-6730974 -389945,-6730963 -389941,-6730946 -389940,-6730935 -389941,-6730905 -389938,-6730890 -389926,-6730858 -389918,-6730831 -389911,-6730820 -389905,-6730814 -389888,-6730800 -389877,-6730798 -389868,-6730795 -389859,-6730790 -389836,-6730775 -389799,-6730725 -389779,-6730715 -389768,-6730714 -389763,-6730713 -389756,-6730713 -389741,-6730709 -389726,-6730692 -389715,-6730686 -389704,-6730682 -389691,-6730682 -389683,-6730688 -389665,-6730689 -389646,-6730685 -389628,-6730691 -389624,-6730690 -389603,-6730667 -389589,-6730653 -389580,-6730639 -389571,-6730618 -389568,-6730593 -389568,-6730591 -389545,-6730555 -389530,-6730528 -389515,-6730482 -389504,-6730471 -389503,-6730470 -389497,-6730437 -389485,-6730404 -389481,-6730388 -389481,-6730362 -389479,-6730356 -389456,-6730306 -389417,-6730256 -389419,-6730239 -389411,-6730230 -389410,-6730224 -389413,-6730208 -389403,-6730191 -389391,-6730187 -389374,-6730176 -389349,-6730139 -389325,-6730126 -389309,-6730099 -389300,-6730091 -389285,-6730081 -389247,-6730046 -389233,-6730021 -389220,-6730007 -389197,-6729999 -389169,-6729993 -389112,-6729996 -389109,-6729995 -389096,-6729968 -389084,-6729969 -389034,-6729948 -388907,-6729896 -388901,-6729895 -388871,-6729901 -388811,-6729885 -388788,-6729872 -388773,-6729858 -388761,-6729851 -388720,-6729844 -388680,-6729856 -388631,-6729862 -388579,-6729858 -388547,-6729860 -388524,-6729860 -388508,-6729872 -388459,-6729882 -388425,-6729882 -388386,-6729888 -388358,-6729891 -388318,-6729901 -388275,-6729905 -388246,-6729922 -388221,-6729922 -388207,-6729927 -388165,-6729914 -388133,-6729914 -388087,-6729929 -388075,-6729917 -388068,-6729901 -388057,-6729891 -388047,-6729880 -388041,-6729874 -388026,-6729863 -387995,-6729812 -387978,-6729791 -387955,-6729757 -387948,-6729737 -387940,-6729721 -387938,-6729713 -387926,-6729671 -387919,-6729656 -387909,-6729637 -387907,-6729633 -387900,-6729616 -387893,-6729588 -387887,-6729554 -387875,-6729512 -387866,-6729463 -387840,-6729421 -387825,-6729404 -387790,-6729380 -387780,-6729371 -387760,-6729353 -387750,-6729343 -387737,-6729325 -387732,-6729319 -387714,-6729303 -387687,-6729284 -387673,-6729278 -387654,-6729271 -387641,-6729263 -387633,-6729256 -387600,-6729225 -387591,-6729215 -387584,-6729210 -387567,-6729200 -387562,-6729196 -387553,-6729179 -387546,-6729171 -387535,-6729161 -387530,-6729159 -387510,-6729159 -387505,-6729158 -387492,-6729150 -387482,-6729140 -387470,-6729131 -387455,-6729125 -387423,-6729118 -387410,-6729112 -387400,-6729106 -387374,-6729086 -387364,-6729079 -387343,-6729078 -387332,-6729079 -387301,-6729087 -387252,-6729080 -387246,-6729079 -387208,-6729064 -387179,-6729039 -387160,-6729018 -387152,-6729011 -387127,-6729000 -387104,-6728983 -387090,-6728972 -387046,-6728933 -387036,-6728902 -387017,-6728856 -387004,-6728841 -386991,-6728802 -386981,-6728771 -386944,-6728731 -386942,-6728731 -386921,-6728728 -386866,-6728731 -386858,-6728726 -386856,-6728724 -386815,-6728648 -386810,-6728644 -386805,-6728639 -386777,-6728614 -386748,-6728594 -386714,-6728591 -386701,-6728585 -386696,-6728582 -386687,-6728576 -386668,-6728554 -386649,-6728514 -386630,-6728480 -386609,-6728452 -386607,-6728436 -386591,-6728419 -386576,-6728391 -386559,-6728348 -386555,-6728325 -386552,-6728287 -386539,-6728224 -386530,-6728196 -386522,-6728181 -386519,-6728159 -386505,-6728132 -386498,-6728103 -386494,-6728055 -386487,-6728033 -386477,-6727989 -386485,-6727949 -386483,-6727921 -386481,-6727913 -386478,-6727903 -386465,-6727867 -386467,-6727849 -386470,-6727836 -386480,-6727809 -386481,-6727794 -386475,-6727770 -386469,-6727722 -386473,-6727692 -386475,-6727673 -386476,-6727654 -386475,-6727643 -386471,-6727609 -386470,-6727555 -386470,-6727527 -386470,-6727497 -386492,-6727449 -386499,-6727410 -386522,-6727364 -386531,-6727327 -386534,-6727303 -386533,-6727277 -386537,-6727258 -386541,-6727246 -386545,-6727239 -386553,-6727225 -386565,-6727215 -386581,-6727205 -386587,-6727177 -386611,-6727144 -386619,-6727132 -386623,-6727125 -386631,-6727112 -386647,-6727096 -386660,-6727082 -386663,-6727062 -386664,-6727060 -386680,-6727027 -386685,-6727008 -386689,-6726991 -386690,-6726964 -386691,-6726962 -386699,-6726945 -386714,-6726908 -386732,-6726875 -386755,-6726829 -386796,-6726775 -386820,-6726768 -386838,-6726755 -386859,-6726742 -386864,-6726738 -386881,-6726722 -386893,-6726680 -386913,-6726638 -386918,-6726626 -386919,-6726609 -386918,-6726595 -386918,-6726576 -386922,-6726560 -386927,-6726542 -386927,-6726506 -386924,-6726491 -386925,-6726485 -386939,-6726473 -386967,-6726449 -386978,-6726437 -386980,-6726435 -386987,-6726427 -386998,-6726419 -387008,-6726415 -387023,-6726388 -387020,-6726378 -387013,-6726364 -386993,-6726346 -386975,-6726335 -386954,-6726310 -386954,-6726291 -386988,-6726230 -386986,-6726183 -386998,-6726164 -387015,-6726128 -387041,-6726068 -387058,-6726044 -387079,-6726031 -387103,-6726026 -387142,-6726026 -387162,-6726018 -387171,-6726003 -387178,-6725971 -387179,-6725936 -387180,-6725892 -387185,-6725856 -387190,-6725828 -387180,-6725764 -387177,-6725734 -387174,-6725706 -387165,-6725677 -387146,-6725655 -387141,-6725632 -387149,-6725600 -387141,-6725578 -387126,-6725550 -387114,-6725516 -387103,-6725493 -387100,-6725464 -387082,-6725435 -387041,-6725367 -386979,-6725284 -386964,-6725260 -386945,-6725237 -386940,-6725220 -386955,-6725183 -386959,-6725160 -386950,-6725133 -386939,-6725103 -386940,-6725073 -386948,-6725048 -386973,-6725027 -386983,-6725009 -386989,-6724977 -386992,-6724959 -386993,-6724933 -386988,-6724892 -386991,-6724860 -386998,-6724830 -387014,-6724791 -387031,-6724759 -387046,-6724741 -387076,-6724710 -387089,-6724706 -387100,-6724703 -387122,-6724697 -387145,-6724676 -387166,-6724662 -387200,-6724638 -387208,-6724630 -387227,-6724608 -387244,-6724573 -387254,-6724555 -387256,-6724552 -387275,-6724523 -387279,-6724485 -387280,-6724450 -387291,-6724417 -387304,-6724387 -387336,-6724352 -387355,-6724316 -387366,-6724297 -387369,-6724291 -387379,-6724271 -387382,-6724234 -387393,-6724209 -387395,-6724204 -387424,-6724201 -387434,-6724201 -387455,-6724200 -387487,-6724193 -387501,-6724190 -387524,-6724178 -387560,-6724160 -387572,-6724149 -387587,-6724136 -387625,-6724087 -387629,-6724084 -387642,-6724076 -387647,-6724070 -387662,-6724062 -387674,-6724068 -387676,-6724069 -387699,-6724067 -387727,-6724068 -387728,-6724068 -387738,-6724068 -387761,-6724039 -387797,-6724016 -387837,-6724006 -387876,-6723988 -387876,-6723974 -387884,-6723964 -387888,-6723956 -387893,-6723938 -387891,-6723913 -387897,-6723910 -387915,-6723911 -387949,-6723931 -387978,-6723927 -388018,-6723933 -388040,-6723926 -388074,-6723923 -388095,-6723919 -388102,-6723890 -388119,-6723864 -388120,-6723859 -388118,-6723840 -388117,-6723838 -388078,-6723818 -388063,-6723799 -388069,-6723791 -388075,-6723789 -388097,-6723781 -388104,-6723775 -388107,-6723767 -388124,-6723727 -388141,-6723715 -388194,-6723703 -388200,-6723702 -388217,-6723700 -388301,-6723716 -388306,-6723691 -388308,-6723677 -388305,-6723659 -388299,-6723638 -388293,-6723629 -388279,-6723621 -388272,-6723609 -388292,-6723598 -388315,-6723580 -388337,-6723559 -388353,-6723529 -388363,-6723506 -388299,-6723486 -388261,-6723479 -388235,-6723479 -388209,-6723480 -388128,-6723508 -388125,-6723506 -388104,-6723472 -388085,-6723444 -388029,-6723430 -387991,-6723425 -387963,-6723413 -387907,-6723414 -387875,-6723387 -387849,-6723360 -387842,-6723343 -387833,-6723324 -387820,-6723298 -387812,-6723282 -387798,-6723251 -387794,-6723220 -387790,-6723204 -387801,-6723191 -387820,-6723172 -387821,-6723154 -387823,-6723143 -387835,-6723114 -387852,-6723077 -387859,-6723058 -387866,-6723050 -387889,-6723028 -387905,-6723010 -387915,-6722993 -387922,-6722973 -387931,-6722958 -387947,-6722938 -387972,-6722910 -387987,-6722892 -388003,-6722872 -388005,-6722868 -388006,-6722861 -388002,-6722839 -388005,-6722813 -388007,-6722793 -388011,-6722774 -388005,-6722746 -388005,-6722730 -388011,-6722701 -388011,-6722697 -388006,-6722690 -388000,-6722680 -387987,-6722667 -387977,-6722655 -387967,-6722647 -387956,-6722639 -387935,-6722630 -387930,-6722626 -387911,-6722599 -387890,-6722555 -387886,-6722551 -387866,-6722536 -387845,-6722517 -387838,-6722512 -387817,-6722505 -387810,-6722501 -387804,-6722496 -387798,-6722491 -387790,-6722480 -387775,-6722458 -387744,-6722429 -387716,-6722409 -387665,-6722368 -387581,-6722332 -387502,-6722294 -387500,-6722293 -387445,-6722235 -387336,-6722190 -387268,-6722167 -387191,-6722144 -387164,-6722142 -387130,-6722132 -387088,-6722123 -387037,-6722109 -387035,-6722107 -387039,-6722074 -387052,-6722038 -387087,-6721989 -387103,-6721951 -387110,-6721922 -387111,-6721873 -387114,-6721827 -387112,-6721784 -387104,-6721713 -387107,-6721669 -387104,-6721658 -387099,-6721644 -387141,-6721614 -387144,-6721579 -387145,-6721561 -387145,-6721551 -387144,-6721551 -387134,-6721550 -387143,-6721504 -387154,-6721461 -387162,-6721402 -387154,-6721315 -387157,-6721278 -387163,-6721249 -387165,-6721235 -387166,-6721220 -387169,-6721172 -387180,-6721142 -387193,-6721128 -387196,-6721120 -387199,-6721111 -387189,-6721042 -387189,-6721036 -387195,-6720998 -387201,-6720994 -387229,-6720977 -387257,-6720959 -387278,-6720941 -387310,-6720918 -387327,-6720907 -387361,-6720849 -387363,-6720844 -387367,-6720814 -387373,-6720794 -387400,-6720763 -387403,-6720728 -387415,-6720719 -387409,-6720695 -387412,-6720672 -387407,-6720636 -387396,-6720627 -387382,-6720613 -387378,-6720612 -387342,-6720615 -387293,-6720615 -387274,-6720613 -387247,-6720606 -387244,-6720605 -387214,-6720584 -387153,-6720550 -387134,-6720526 -387110,-6720512 -387084,-6720506 -387074,-6720501 -387049,-6720487 -387016,-6720488 -387003,-6720489 -386980,-6720477 -386971,-6720472 -386938,-6720466 -386925,-6720464 -386920,-6720453 -386919,-6720451 -386911,-6720446 -386858,-6720417 -386836,-6720397 -386819,-6720378 -386780,-6720349 -386764,-6720328 -386729,-6720296 -386702,-6720253 -386682,-6720232 -386655,-6720220 -386636,-6720203 -386622,-6720180 -386602,-6720162 -386593,-6720140 -386560,-6720115 -386540,-6720089 -386536,-6720073 -386534,-6720060 -386513,-6720034 -386493,-6720028 -386443,-6719993 -386399,-6719948 -386394,-6719951 -386384,-6719957 -386378,-6719950 -386370,-6719941 -386354,-6719916 -386339,-6719906 -386330,-6719897 -386317,-6719863 -386325,-6719826 -386326,-6719817 -386312,-6719817 -386308,-6719812 -386306,-6719810 -386306,-6719809 -386311,-6719796 -386301,-6719788 -386298,-6719785 -386296,-6719772 -386302,-6719760 -386304,-6719757 -386303,-6719729 -386291,-6719713 -386290,-6719711 -386291,-6719697 -386284,-6719683 -386266,-6719664 -386260,-6719657 -386263,-6719651 -386269,-6719638 -386264,-6719626 -386244,-6719623 -386243,-6719622 -386242,-6719621 -386239,-6719606 -386245,-6719592 -386258,-6719570 -386256,-6719563 -386270,-6719561 -386268,-6719541 -386256,-6719529 -386253,-6719527 -386245,-6719519 -386244,-6719515 -386242,-6719506 -386230,-6719498 -386223,-6719492 -386234,-6719480 -386235,-6719478 -386230,-6719467 -386228,-6719462 -386235,-6719450 -386251,-6719437 -386260,-6719409 -386257,-6719387 -386268,-6719381 -386273,-6719382 -386281,-6719384 -386278,-6719361 -386262,-6719338 -386255,-6719333 -386243,-6719325 -386240,-6719319 -386239,-6719315 -386240,-6719313 -386251,-6719308 -386253,-6719305 -386252,-6719293 -386247,-6719276 -386244,-6719264 -386237,-6719263 -386233,-6719262 -386228,-6719260 -386221,-6719253 -386223,-6719246 -386229,-6719235 -386232,-6719231 -386233,-6719223 -386222,-6719224 -386221,-6719224 -386218,-6719220 -386219,-6719191 -386226,-6719191 -386237,-6719191 -386240,-6719184 -386238,-6719173 -386223,-6719174 -386220,-6719172 -386215,-6719168 -386214,-6719153 -386222,-6719138 -386230,-6719124 -386227,-6719106 -386227,-6719104 -386211,-6719077 -386209,-6719056 -386203,-6719048 -386203,-6719027 -386213,-6719006 -386211,-6719000 -386209,-6718993 -386215,-6718991 -386225,-6718986 -386229,-6718966 -386229,-6718954 -386214,-6718940 -386213,-6718938 -386209,-6718925 -386215,-6718905 -386212,-6718893 -386201,-6718880 -386192,-6718869 -386190,-6718859 -386188,-6718844 -386172,-6718815 -386134,-6718784 -386128,-6718771 -386125,-6718767 -386106,-6718746 -386066,-6718704 -386058,-6718681 -386049,-6718672 -386055,-6718661 -386054,-6718659 -386047,-6718647 -386041,-6718632 -386038,-6718628 -386024,-6718616 -386023,-6718615 -386020,-6718587 -386001,-6718572 -385998,-6718569 -386000,-6718567 -386006,-6718561 -386000,-6718552 -385990,-6718549 -385987,-6718549 -385984,-6718541 -385986,-6718539 -385995,-6718532 -385984,-6718519 -385981,-6718489 -385970,-6718472 -385957,-6718457 -385947,-6718445 -385933,-6718445 -385928,-6718445 -385904,-6718422 -385902,-6718417 -385897,-6718404 -385893,-6718398 -385889,-6718394 -385873,-6718383 -385866,-6718375 -385857,-6718361 -385846,-6718357 -385844,-6718350 -385843,-6718347 -385841,-6718346 -385834,-6718340 -385837,-6718327 -385836,-6718326 -385841,-6718304 -385841,-6718300 -385817,-6718259 -385806,-6718250 -385794,-6718255 -385774,-6718261 -385771,-6718254 -385771,-6718250 -385771,-6718246 -385762,-6718236 -385746,-6718223 -385736,-6718212 -385734,-6718207 -385732,-6718193 -385727,-6718181 -385725,-6718179 -385712,-6718171 -385696,-6718167 -385686,-6718164 -385678,-6718168 -385664,-6718174 -385660,-6718168 -385655,-6718160 -385637,-6718155 -385630,-6718152 -385626,-6718143 -385611,-6718127 -385597,-6718127 -385591,-6718128 -385571,-6718122 -385568,-6718119 -385560,-6718110 -385560,-6718079 -385553,-6718055 -385535,-6718037 -385527,-6718038 -385518,-6718025 -385514,-6718015 -385502,-6717985 -385528,-6717965 -385543,-6717952 -385550,-6717947 -385547,-6717937 -385547,-6717935 -385543,-6717925 -385543,-6717908 -385558,-6717887 -385557,-6717867 -385568,-6717856 -385570,-6717853 -385571,-6717849 -385571,-6717831 -385582,-6717826 -385593,-6717831 -385607,-6717844 -385625,-6717842 -385638,-6717836 -385654,-6717832 -385688,-6717795 -385698,-6717772 -385683,-6717766 -385665,-6717748 -385665,-6717744 -385665,-6717733 -385681,-6717732 -385687,-6717731 -385697,-6717721 -385699,-6717720 -385707,-6717712 -385715,-6717703 -385716,-6717701 -385725,-6717680 -385743,-6717668 -385768,-6717647 -385781,-6717630 -385796,-6717628 -385817,-6717621 -385828,-6717616 -385829,-6717614 -385827,-6717599 -385852,-6717583 -385878,-6717571 -385887,-6717570 -385891,-6717570 -385895,-6717571 -385901,-6717574 -385913,-6717586 -385919,-6717587 -385924,-6717588 -385926,-6717587 -385932,-6717580 -385930,-6717572 -385937,-6717544 -385959,-6717531 -385986,-6717524 -385988,-6717524 -386000,-6717534 -386014,-6717540 -386032,-6717513 -386030,-6717505 -386026,-6717494 -386039,-6717485 -386049,-6717488 -386063,-6717470 -386070,-6717459 -386075,-6717460 -386087,-6717463 -386116,-6717455 -386124,-6717457 -386139,-6717460 -386144,-6717466 -386153,-6717476 -386163,-6717480 -386164,-6717466 -386168,-6717461 -386171,-6717460 -386184,-6717455 -386187,-6717467 -386188,-6717469 -386190,-6717477 -386199,-6717478 -386213,-6717473 -386222,-6717464 -386235,-6717465 -386246,-6717452 -386249,-6717448 -386252,-6717448 -386266,-6717444 -386270,-6717444 -386291,-6717447 -386312,-6717457 -386334,-6717459 -386344,-6717467 -386358,-6717463 -386362,-6717462 -386367,-6717463 -386367,-6717478 -386366,-6717487 -386376,-6717487 -386396,-6717464 -386406,-6717459 -386416,-6717446 -386420,-6717447 -386436,-6717453 -386449,-6717461 -386462,-6717463 -386463,-6717463 -386464,-6717463 -386477,-6717468 -386489,-6717466 -386498,-6717468 -386515,-6717487 -386524,-6717484 -386528,-6717477 -386532,-6717471 -386536,-6717475 -386539,-6717476 -386549,-6717483 -386559,-6717482 -386589,-6717469 -386616,-6717453 -386620,-6717451 -386659,-6717438 -386666,-6717432 -386671,-6717428 -386680,-6717432 -386687,-6717436 -386702,-6717438 -386712,-6717432 -386725,-6717419 -386728,-6717416 -386742,-6717414 -386749,-6717413 -386753,-6717409 -386762,-6717410 -386779,-6717413 -386791,-6717412 -386799,-6717408 -386804,-6717404 -386816,-6717398 -386830,-6717390 -386840,-6717377 -386840,-6717376 -386836,-6717358 -386854,-6717350 -386887,-6717318 -386894,-6717311 -386894,-6717303 -386894,-6717302 -386893,-6717290 -386898,-6717282 -386908,-6717272 -386908,-6717259 -386896,-6717259 -386890,-6717248 -386890,-6717245 -386892,-6717238 -386893,-6717235 -386897,-6717235 -386912,-6717234 -386938,-6717205 -386941,-6717201 -386953,-6717185 -386973,-6717191 -386982,-6717190 -387008,-6717185 -387027,-6717180 -387031,-6717170 -387031,-6717169 -387031,-6717159 -387038,-6717150 -387050,-6717134 -387060,-6717129 -387074,-6717125 -387085,-6717112 -387096,-6717080 -387114,-6716994 -387127,-6716972 -387133,-6716962 -387134,-6716953 -387135,-6716943 -387145,-6716940 -387158,-6716934 -387166,-6716920 -387166,-6716919 -387171,-6716905 -387175,-6716898 -387181,-6716889 -387180,-6716883 -387168,-6716869 -387166,-6716866 -387156,-6716850 -387174,-6716831 -387182,-6716800 -387196,-6716781 -387202,-6716764 -387223,-6716749 -387223,-6716749 -387226,-6716747 -387225,-6716745 -387217,-6716733 -387220,-6716723 -387238,-6716715 -387262,-6716709 -387268,-6716707 -387272,-6716702 -387269,-6716698 -387263,-6716692 -387260,-6716681 -387260,-6716661 -387262,-6716650 -387284,-6716635 -387285,-6716629 -387286,-6716626 -387285,-6716626 -387273,-6716617 -387275,-6716604 -387294,-6716594 -387295,-6716594 -387296,-6716591 -387298,-6716580 -387309,-6716562 -387313,-6716553 -387314,-6716537 -387311,-6716528 -387292,-6716511 -387294,-6716504 -387301,-6716497 -387323,-6716489 -387343,-6716486 -387345,-6716480 -387346,-6716478 -387346,-6716454 -387353,-6716441 -387362,-6716417 -387370,-6716387 -387377,-6716369 -387375,-6716349 -387374,-6716334 -387383,-6716327 -387402,-6716309 -387430,-6716271 -387432,-6716266 -387431,-6716261 -387425,-6716243 -387434,-6716227 -387441,-6716225 -387450,-6716221 -387459,-6716222 -387462,-6716217 -387462,-6716191 -387465,-6716149 -387475,-6716131 -387478,-6716125 -387487,-6716117 -387493,-6716096 -387504,-6716083 -387507,-6716079 -387515,-6716059 -387516,-6716055 -387516,-6716035 -387506,-6716028 -387494,-6716031 -387481,-6716035 -387476,-6716036 -387472,-6716026 -387472,-6716024 -387469,-6715997 -387495,-6715981 -387515,-6715968 -387521,-6715960 -387521,-6715958 -387515,-6715943 -387515,-6715924 -387516,-6715911 -387530,-6715894 -387555,-6715868 -387579,-6715833 -387580,-6715832 -387589,-6715813 -387600,-6715793 -387614,-6715751 -387616,-6715735 -387610,-6715724 -387599,-6715703 -387585,-6715664 -387585,-6715662 -387584,-6715610 -387555,-6715615 -387483,-6715617 -387454,-6715615 -387445,-6715613 -387427,-6715610 -387431,-6715588 -387442,-6715572 -387439,-6715547 -387424,-6715526 -387444,-6715515 -387451,-6715511 -387457,-6715506 -387457,-6715506 -387458,-6715504 -387456,-6715471 -387451,-6715447 -387444,-6715437 -387447,-6715417 -387461,-6715414 -387463,-6715414 -387462,-6715412 -387458,-6715399 -387465,-6715389 -387476,-6715376 -387470,-6715372 -387464,-6715364 -387469,-6715361 -387481,-6715343 -387475,-6715327 -387466,-6715315 -387464,-6715298 -387469,-6715288 -387488,-6715289 -387500,-6715289 -387502,-6715294 -387505,-6715299 -387512,-6715303 -387521,-6715303 -387537,-6715304 -387540,-6715302 -387538,-6715277 -387548,-6715272 -387566,-6715241 -387589,-6715213 -387610,-6715177 -387640,-6715153 -387704,-6715085 -387721,-6715061 -387722,-6715055 -387727,-6715029 -387716,-6715031 -387713,-6715032 -387711,-6715011 -387711,-6715006 -387717,-6714994 -387724,-6714983 -387741,-6714985 -387747,-6714986 -387759,-6714983 -387769,-6714975 -387773,-6714949 -387788,-6714929 -387788,-6714927 -387794,-6714889 -387797,-6714858 -387796,-6714837 -387793,-6714827 -387789,-6714817 -387770,-6714783 -387761,-6714763 -387760,-6714750 -387765,-6714714 -387792,-6714642 -387817,-6714576 -387830,-6714553 -387835,-6714545 -387847,-6714509 -387858,-6714489 -387862,-6714465 -387868,-6714413 -387873,-6714370 -387871,-6714367 -387860,-6714359 -387859,-6714358 -387851,-6714346 -387841,-6714347 -387813,-6714347 -387799,-6714341 -387801,-6714322 -387799,-6714321 -387810,-6714306 -387808,-6714284 -387807,-6714276 -387819,-6714242 -387832,-6714227 -387848,-6714214 -387849,-6714211 -387851,-6714183 -387842,-6714158 -387836,-6714143 -387837,-6714116 -387849,-6714073 -387857,-6714049 -387894,-6714007 -387900,-6714000 -387906,-6713973 -387906,-6713966 -387905,-6713950 -387929,-6713918 -387938,-6713906 -387938,-6713899 -387938,-6713885 -387941,-6713855 -387955,-6713784 -387962,-6713743 -387982,-6713727 -387996,-6713712 -388004,-6713702 -387999,-6713696 -387994,-6713695 -387989,-6713694 -387982,-6713691 -387977,-6713683 -387977,-6713673 -387984,-6713670 -388027,-6713671 -388029,-6713669 -388034,-6713663 -388037,-6713662 -388047,-6713661 -388051,-6713652 -388050,-6713640 -388050,-6713632 -388057,-6713632 -388064,-6713631 -388072,-6713623 -388069,-6713609 -388061,-6713601 -388057,-6713598 -388062,-6713596 -388071,-6713593 -388076,-6713585 -388073,-6713563 -388062,-6713552 -388059,-6713548 -388051,-6713538 -388054,-6713531 -388056,-6713530 -388078,-6713528 -388085,-6713504 -388086,-6713495 -388122,-6713459 -388127,-6713451 -388132,-6713435 -388144,-6713422 -388148,-6713418 -388154,-6713419 -388166,-6713417 -388176,-6713406 -388188,-6713391 -388189,-6713386 -388188,-6713357 -388186,-6713350 -388198,-6713341 -388205,-6713335 -388208,-6713336 -388213,-6713338 -388222,-6713340 -388229,-6713338 -388237,-6713326 -388231,-6713312 -388222,-6713285 -388222,-6713279 -388222,-6713271 -388228,-6713265 -388233,-6713265 -388248,-6713266 -388266,-6713258 -388268,-6713246 -388258,-6713242 -388265,-6713230 -388273,-6713223 -388288,-6713214 -388317,-6713192 -388332,-6713185 -388345,-6713182 -388357,-6713178 -388369,-6713178 -388372,-6713178 -388373,-6713177 -388411,-6713138 -388420,-6713131 -388444,-6713110 -388478,-6713090 -388494,-6713084 -388511,-6713081 -388540,-6713078 -388569,-6713072 -388595,-6713067 -388608,-6713057 -388617,-6713050 -388637,-6713048 -388663,-6713046 -388669,-6713038 -388693,-6713013 -388712,-6712970 -388717,-6712957 -388734,-6712942 -388752,-6712945 -388773,-6712935 -388775,-6712922 -388792,-6712911 -388796,-6712892 -388812,-6712871 -388824,-6712854 -388838,-6712843 -388842,-6712839 -388855,-6712831 -388872,-6712825 -388885,-6712823 -388898,-6712820 -388908,-6712814 -388914,-6712811 -388926,-6712808 -388936,-6712809 -388938,-6712810 -388951,-6712818 -389002,-6712803 -389014,-6712796 -389017,-6712775 -389025,-6712766 -389038,-6712757 -389050,-6712755 -389075,-6712759 -389091,-6712751 -389151,-6712684 -389197,-6712635 -389278,-6712554 -389321,-6712513 -389341,-6712480 -389371,-6712473 -389426,-6712451 -389474,-6712425 -389513,-6712405 -389597,-6712359 -389653,-6712321 -389680,-6712309 -389725,-6712276 -389778,-6712241 -389806,-6712217 -389817,-6712213 -389842,-6712205 -389851,-6712203 -389850,-6712193 -389849,-6712188 -389857,-6712183 -389862,-6712179 -389863,-6712177 -389869,-6712160 -389898,-6712145 -389913,-6712124 -389932,-6712107 -389951,-6712107 -389958,-6712107 -389986,-6712071 -390011,-6712045 -390052,-6712018 -390064,-6712010 -390069,-6712003 -390079,-6711989 -390102,-6711978 -390120,-6711961 -390165,-6711947 -390180,-6711933 -390198,-6711935 -390201,-6711933 -390219,-6711908 -390221,-6711907 -390239,-6711894 -390247,-6711897 -390261,-6711898 -390286,-6711895 -390332,-6711885 -390408,-6711870 -390457,-6711846 -390483,-6711825 -390500,-6711804 -390518,-6711778 -390531,-6711748 -390544,-6711726 -390544,-6711703 -390539,-6711679 -390538,-6711659 -390535,-6711620 -390533,-6711562 -390538,-6711526 -390549,-6711476 -390571,-6711432 -390601,-6711380 -390620,-6711353 -390657,-6711297 -390682,-6711280 -390717,-6711271 -390752,-6711251 -390784,-6711229 -390825,-6711193 -390891,-6711138 -390980,-6711069 -390992,-6711059 -391002,-6711046 -391012,-6711033 -391030,-6711003 -391047,-6710952 -391057,-6710937 -391066,-6710925 -391085,-6710910 -391106,-6710893 -391133,-6710873 -391163,-6710870 -391180,-6710866 -391197,-6710861 -391210,-6710852 -391220,-6710840 -391225,-6710824 -391225,-6710800 -391229,-6710792 -391230,-6710790 -391242,-6710781 -391270,-6710765 -391287,-6710756 -391304,-6710748 -391350,-6710725 -391367,-6710714 -391383,-6710714 -391400,-6710722 -391425,-6710746 -391453,-6710772 -391470,-6710782 -391473,-6710783 -391481,-6710783 -391487,-6710783 -391505,-6710777 -391521,-6710762 -391537,-6710724 -391557,-6710703 -391585,-6710686 -391611,-6710671 -391635,-6710661 -391659,-6710657 -391702,-6710660 -391719,-6710654 -391734,-6710639 -391735,-6710639 -391740,-6710627 -391741,-6710601 -391750,-6710577 -391763,-6710565 -391804,-6710545 -391838,-6710534 -391876,-6710530 -391895,-6710530 -391922,-6710538 -391954,-6710554 -391999,-6710590 -392020,-6710604 -392032,-6710608 -392043,-6710610 -392065,-6710610 -392086,-6710606 -392110,-6710598 -392114,-6710595 -392133,-6710574 -392179,-6710514 -392222,-6710451 -392297,-6710371 -392318,-6710359 -392354,-6710341 -392390,-6710333 -392414,-6710334 -392447,-6710338 -392479,-6710338 -392509,-6710339 -392554,-6710350 -392583,-6710365 -392608,-6710377 -392652,-6710403 -392732,-6710446 -392802,-6710482 -392833,-6710488 -392866,-6710474 -392880,-6710472 -392905,-6710466 -392914,-6710462 -392888,-6710449 -392885,-6710448 -392882,-6710446 -392878,-6710444 -392874,-6710441 -392871,-6710438 -392807,-6710249 -392804,-6710242 -392802,-6710237 -392797,-6710227 -392792,-6710218 -392770,-6710178 -392732,-6710128 -392692,-6710073 -392672,-6710051 -392660,-6710018 -392640,-6709987 -392622,-6709958 -392607,-6709940 -392587,-6709919 -392559,-6709890 -392542,-6709870 -392529,-6709851 -392515,-6709832 -392497,-6709795 -392488,-6709776 -392476,-6709764 -392463,-6709753 -392442,-6709736 -392432,-6709726 -392418,-6709712 -392442,-6709696 -392443,-6709695 -392451,-6709691 -392460,-6709687 -392469,-6709683 -392476,-6709681 -392484,-6709678 -392492,-6709676 -392500,-6709675 -392505,-6709674 -392514,-6709674 -392540,-6709665 -392544,-6709657 -392561,-6709652 -392603,-6709622 -392627,-6709608 -392629,-6709606 -392648,-6709582 -392665,-6709560 -392665,-6709555 -392666,-6709550 -392668,-6709544 -392671,-6709538 -392673,-6709532 -392675,-6709530 -392678,-6709524 -392682,-6709519 -392683,-6709517 -392684,-6709515 -392684,-6709512 -392684,-6709510 -392684,-6709508 -392684,-6709507 -392684,-6709505 -392679,-6709479 -392678,-6709478 -392678,-6709463 -392678,-6709463 -392678,-6709459 -392678,-6709455 -392678,-6709453 -392677,-6709449 -392676,-6709446 -392675,-6709430 -392687,-6709428 -392694,-6709424 -392721,-6709417 -392728,-6709415 -392737,-6709413 -392747,-6709412 -392755,-6709411 -392764,-6709411 -392773,-6709411 -392780,-6709411 -392782,-6709411 -392789,-6709412 -392806,-6709414 -392810,-6709415 -392809,-6709410 -392807,-6709380 -392789,-6709374 -392794,-6709357 -392769,-6709288 -392748,-6709234 -392731,-6709185 -392706,-6709115 -392691,-6709089 -392708,-6709081 -392746,-6709075 -392791,-6709060 -392820,-6709049 -392867,-6709025 -392892,-6709021 -392934,-6709007 -392983,-6708995 -393040,-6708976 -393126,-6708945 -393202,-6708908 -393252,-6708888 -393314,-6708859 -393371,-6708837 -393417,-6708823 -393463,-6708811 -393571,-6708785 -393630,-6708774 -393643,-6708773 -393645,-6708772 -393656,-6708767 -393667,-6708763 -393822,-6708697 -394009,-6708615 -393999,-6708606 -393967,-6708588 -393928,-6708563 -393892,-6708543 -393864,-6708523 -393824,-6708484 -393745,-6708440 -393700,-6708412 -393694,-6708410 -393639,-6708398 -393624,-6708393 -393609,-6708388 -393580,-6708374 -393542,-6708342 -393492,-6708310 -393462,-6708289 -393445,-6708272 -393416,-6708239 -393382,-6708210 -393351,-6708178 -393345,-6708168 -393340,-6708148 -393332,-6708115 -393318,-6708089 -393314,-6708079 -393312,-6708077 -393299,-6708053 -393298,-6708036 -393299,-6708023 -393293,-6708012 -393292,-6708005 -393292,-6707993 -393289,-6707979 -393282,-6707938 -393278,-6707925 -393274,-6707902 -393276,-6707882 -393269,-6707864 -393264,-6707857 -393263,-6707831 -393251,-6707796 -393255,-6707774 -393242,-6707747 -393244,-6707732 -393227,-6707698 -393218,-6707652 -393200,-6707614 -393184,-6707616 -393173,-6707609 -393163,-6707598 -393165,-6707584 -393149,-6707562 -393148,-6707533 -393148,-6707531 -393153,-6707516 -393172,-6707476 -393174,-6707454 -393172,-6707423 -393175,-6707392 -393175,-6707367 -393175,-6707367 -393173,-6707362 -393168,-6707347 -393168,-6707345 -393172,-6707323 -393172,-6707323 -393173,-6707320 -393174,-6707319 -393175,-6707289 -393181,-6707274 -393183,-6707271 -393189,-6707264 -393192,-6707262 -393192,-6707259 -393194,-6707218 -393195,-6707212 -393196,-6707209 -393197,-6707205 -393210,-6707191 -393211,-6707191 -393224,-6707178 -393229,-6707172 -393243,-6707136 -393247,-6707114 -393246,-6707089 -393238,-6707044 -393236,-6707026 -393238,-6707021 -393266,-6706989 -393266,-6706985 -393261,-6706960 -393260,-6706946 -393262,-6706943 -393275,-6706930 -393352,-6706979 -393463,-6707077 -393552,-6707157 -393555,-6707163 -393586,-6707185 -393718,-6707300 -393857,-6707418 -393988,-6707526 -394125,-6707634 -394207,-6707699 -394367,-6707828 -394499,-6707936 -394640,-6708052 -394798,-6708180 -394931,-6708294 -395049,-6708395 -395144,-6708473 -395258,-6708568 -395354,-6708640 -395472,-6708736 -395517,-6708772 -395605,-6708835 -395691,-6708903 -395698,-6708911 -395714,-6708926 -395774,-6708885 -395793,-6708885 -395820,-6708891 -395840,-6708890 -395912,-6708877 -395984,-6708864 -396079,-6708842 -396112,-6708828 -396211,-6708774 -396277,-6708737 -396328,-6708718 -396371,-6708701 -396404,-6708690 -396487,-6708661 -396581,-6708625 -396624,-6708608 -396687,-6708588 -396728,-6708572 -396773,-6708553 -396820,-6708534 -396863,-6708514 -396916,-6708494 -396976,-6708469 -396992,-6708461 -397052,-6708429 -397090,-6708409 -397115,-6708396 -397147,-6708376 -397255,-6708301 -397287,-6708283 -397322,-6708263 -397345,-6708247 -397385,-6708225 -397496,-6708161 -397562,-6708123 -397583,-6708109 -397603,-6708094 -397614,-6708082 -397644,-6708041 -397660,-6708020 -397684,-6707995 -397717,-6707976 -397757,-6707953 -397778,-6707937 -397806,-6707908 -397830,-6707879 -397835,-6707873 -397867,-6707841 -397885,-6707824 -397909,-6707796 -397932,-6707768 -397981,-6707742 -398018,-6707727 -398040,-6707715 -398054,-6707711 -398094,-6707709 -398123,-6707705 -398163,-6707694 -398209,-6707677 -398237,-6707658 -398275,-6707633 -398323,-6707601 -398337,-6707600 -398365,-6707589 -398400,-6707584 -398454,-6707577 -398509,-6707571 -398553,-6707565 -398571,-6707559 -398583,-6707543 -398612,-6707503 -398630,-6707476 -398697,-6707448 -398740,-6707443 -398760,-6707435 -398786,-6707412 -398826,-6707373 -398873,-6707325 -398921,-6707283 -398958,-6707254 -398978,-6707240 -398979,-6707240 -399011,-6707228 -399043,-6707220 -399087,-6707218 -399121,-6707210 -399123,-6707210 -399157,-6707201 -399193,-6707190 -399223,-6707185 -399269,-6707178 -399293,-6707174 -399312,-6707170 -399341,-6707161 -399370,-6707152 -399406,-6707138 -399440,-6707123 -399461,-6707114 -399472,-6707112 -399529,-6707105 -399611,-6707093 -399730,-6707078 -399772,-6707075 -399825,-6707072 -399842,-6707076 -399865,-6707079 -399881,-6707080 -399896,-6707077 -399909,-6707072 -399935,-6707056 -399958,-6707046 -399971,-6707043 -399982,-6707044 -399996,-6707048 -400010,-6707057 -400021,-6707069 -400027,-6707081 -400028,-6707095 -400029,-6707146 -400029,-6707153 -400036,-6707160 -400040,-6707164 -400055,-6707175 -400106,-6707203 -400132,-6707216 -400148,-6707220 -400180,-6707220 -400208,-6707219 -400246,-6707213 -400263,-6707212 -400287,-6707220 -400315,-6707228 -400343,-6707232 -400359,-6707243 -400367,-6707250 -400376,-6707264 -400379,-6707280 -400378,-6707295 -400376,-6707310 -400368,-6707329 -400356,-6707353 -400356,-6707354 -400354,-6707357 -400342,-6707371 -400336,-6707388 -400327,-6707414 -400318,-6707432 -400315,-6707448 -400319,-6707454 -400325,-6707459 -400333,-6707462 -400364,-6707460 -400423,-6707444 -400444,-6707434 -400470,-6707402 -400488,-6707381 -400522,-6707353 -400535,-6707343 -400540,-6707340 -400546,-6707338 -400552,-6707337 -400558,-6707337 -400564,-6707338 -400569,-6707340 -400593,-6707361 -400603,-6707370 -400608,-6707374 -400613,-6707376 -400618,-6707377 -400623,-6707377 -400629,-6707376 -400644,-6707370 -400677,-6707349 -400689,-6707342 -400759,-6707326 -400786,-6707317 -400803,-6707310 -400807,-6707306 -400823,-6707289 -400839,-6707272 -400851,-6707268 -400877,-6707270 -400884,-6707270 -400891,-6707268 -400900,-6707265 -400911,-6707260 -400939,-6707236 -400956,-6707226 -400971,-6707219 -401006,-6707208 -401011,-6707206 -401040,-6707177 -401102,-6707105 -401127,-6707081 -401144,-6707067 -401197,-6707026 -401225,-6707009 -401236,-6707004 -401245,-6707000 -401264,-6706997 -401297,-6706999 -401314,-6707000 -401334,-6707004 -401388,-6707019 -401390,-6707018 -401402,-6707019 -401444,-6707020 -401468,-6707014 -401492,-6707003 -401532,-6706988 -401559,-6706974 -401572,-6706966 -401582,-6706959 -401591,-6706950 -401616,-6706922 -401625,-6706914 -401682,-6706878 -401699,-6706869 -401714,-6706866 -401734,-6706865 -401749,-6706863 -401769,-6706857 -401810,-6706844 -401838,-6706832 -401884,-6706830 -401948,-6706827 -402012,-6706825 -402039,-6706819 -402065,-6706807 -402091,-6706797 -402106,-6706785 -402120,-6706769 -402150,-6706734 -402173,-6706713 -402190,-6706698 -402216,-6706683 -402247,-6706674 -402277,-6706664 -402362,-6706633 -402396,-6706619 -402438,-6706599 -402459,-6706582 -402471,-6706563 -402472,-6706561 -402475,-6706553 -402483,-6706518 -402497,-6706481 -402506,-6706434 -402514,-6706407 -402528,-6706376 -402536,-6706359 -402545,-6706352 -402556,-6706336 -402577,-6706310 -402615,-6706253 -402638,-6706222 -402675,-6706188 -402792,-6706111 -402895,-6706061 -402937,-6706037 -402941,-6706035 -402943,-6706034 -403061,-6705961 -403085,-6705945 -403111,-6705926 -403124,-6705915 -403239,-6705833 -403286,-6705799 -403335,-6705758 -403424,-6705711 -403560,-6705653 -403624,-6705620 -403649,-6705608 -403692,-6705599 -403719,-6705595 -403735,-6705594 -403756,-6705588 -403799,-6705572 -403848,-6705557 -403919,-6705541 -403977,-6705532 -404071,-6705522 -404141,-6705517 -404186,-6705513 -404221,-6705506 -404259,-6705497 -404287,-6705491 -404317,-6705480 -404348,-6705466 -404375,-6705453 -404418,-6705428 -404448,-6705410 -404470,-6705390 -404497,-6705370 -404524,-6705341 -404549,-6705316 -404629,-6705234 -404645,-6705221 -404677,-6705203 -404748,-6705171 -404789,-6705144 -404808,-6705130 -404876,-6705076 -404895,-6705052 -404902,-6705040 -404905,-6705033 -404910,-6705016 -404915,-6704989 -404915,-6704956 -404911,-6704925 -404913,-6704894 -404920,-6704875 -404923,-6704869 -404935,-6704853 -404949,-6704839 -404959,-6704830 -404970,-6704822 -404982,-6704816 -404994,-6704812 -405005,-6704809 -405122,-6704782 -405195,-6704777 -405267,-6704787 -405317,-6704784 -405375,-6704775 -405422,-6704754 -405491,-6704714 -405650,-6704774 -405693,-6704781 -405724,-6704776 -405813,-6704736 -405952,-6704646 -406010,-6704619 -406035,-6704617 -406069,-6704620 -406204,-6704653 -406203,-6704664 -406195,-6704675 -406194,-6704676 -406180,-6704677 -406176,-6704680 -406172,-6704682 -406171,-6704684 -406173,-6704697 -406191,-6704776 -406239,-6704920 -406279,-6704997 -406299,-6705029 -406308,-6705040 -406316,-6705050 -406342,-6705076 -406377,-6705116 -406392,-6705130 -406424,-6705158 -406475,-6705198 -406505,-6705226 -406550,-6705275 -406577,-6705308 -406589,-6705324 -406604,-6705352 -406634,-6705387 -406654,-6705408 -406660,-6705417 -406660,-6705420 -406659,-6705423 -406658,-6705424 -406626,-6705433 -406623,-6705436 -406622,-6705440 -406625,-6705449 -406626,-6705451 -406633,-6705454 -406640,-6705456 -406652,-6705456 -406657,-6705457 -406665,-6705464 -406675,-6705485 -406681,-6705492 -406691,-6705504 -406699,-6705512 -406708,-6705516 -406732,-6705524 -406744,-6705532 -406759,-6705548 -406760,-6705550 -406760,-6705562 -406755,-6705571 -406755,-6705573 -406757,-6705580 -406760,-6705584 -406775,-6705595 -406815,-6705619 -406839,-6705629 -406849,-6705630 -406881,-6705628 -406893,-6705629 -406903,-6705632 -406909,-6705636 -406964,-6705685 -406995,-6705710 -407045,-6705742 -407103,-6705777 -407125,-6705798 -407139,-6705807 -407212,-6705821 -407227,-6705824 -407278,-6705858 -407337,-6705865 -407376,-6705874 -407402,-6705887 -407427,-6705894 -407449,-6705913 -407488,-6705943 -407521,-6705971 -407522,-6705971 -407527,-6705970 -407531,-6705969 -407532,-6705967 -407537,-6705954 -407537,-6705952 -407532,-6705933 -407529,-6705913 -407532,-6705911 -407552,-6705914 -407566,-6705921 -407574,-6705932 -407575,-6705934 -407574,-6705947 -407567,-6705959 -407567,-6705961 -407571,-6705972 -407573,-6705974 -407604,-6705994 -407609,-6705997 -407642,-6706002 -407743,-6706023 -407777,-6706025 -407787,-6706028 -407790,-6706030 -407789,-6706041 -407781,-6706054 -407783,-6706055 -407790,-6706057 -407840,-6706054 -407863,-6706058 -407865,-6706058 -407882,-6706049 -407909,-6706043 -407911,-6706043 -407936,-6706053 -407945,-6706055 -407948,-6706053 -407961,-6706032 -407967,-6706025 -407982,-6706011 -407987,-6706009 -408007,-6706007 -408011,-6706009 -408021,-6706027 -408024,-6706029 -408059,-6706021 -408079,-6706005 -408082,-6706004 -408087,-6706016 -408089,-6706035 -408092,-6706040 -408094,-6706041 -408095,-6706041 -408103,-6706019 -408106,-6705997 -408108,-6705992 -408111,-6705986 -408122,-6705977 -408125,-6705973 -408127,-6705967 -408130,-6705947 -408131,-6705946 -408145,-6705934 -408157,-6705923 -408164,-6705917 -408172,-6705900 -408190,-6705899 -408202,-6705903 -408203,-6705903 -408217,-6705888 -408230,-6705883 -408232,-6705885 -408235,-6705897 -408246,-6705907 -408248,-6705910 -408246,-6705921 -408244,-6705924 -408231,-6705929 -408219,-6705936 -408190,-6705957 -408189,-6705961 -408190,-6705973 -408192,-6705976 -408211,-6705980 -408251,-6705986 -408266,-6705992 -408291,-6706006 -408293,-6706007 -408311,-6706003 -408326,-6706004 -408329,-6706002 -408337,-6705989 -408343,-6705974 -408354,-6705964 -408358,-6705963 -408384,-6705968 -408391,-6705966 -408399,-6705963 -408406,-6705953 -408419,-6705944 -408423,-6705941 -408445,-6705898 -408447,-6705897 -408468,-6705884 -408486,-6705868 -408488,-6705867 -408517,-6705861 -408520,-6705862 -408530,-6705871 -408537,-6705874 -408540,-6705872 -408549,-6705857 -408557,-6705847 -408559,-6705846 -408567,-6705846 -408581,-6705846 -408592,-6705848 -408598,-6705851 -408597,-6705853 -408587,-6705869 -408586,-6705876 -408586,-6705881 -408586,-6705883 -408595,-6705890 -408599,-6705891 -408673,-6705893 -408679,-6705894 -408697,-6705905 -408709,-6705921 -408731,-6705944 -408766,-6705962 -408798,-6705973 -408826,-6705987 -408841,-6705992 -408856,-6705996 -408871,-6705995 -408883,-6705994 -408903,-6705987 -408918,-6705978 -408928,-6705965 -408958,-6705922 -408979,-6705895 -409000,-6705867 -409034,-6705827 -409085,-6705753 -409090,-6705739 -409095,-6705707 -409103,-6705692 -409101,-6705674 -409110,-6705653 -409110,-6705627 -409113,-6705599 -409128,-6705572 -409165,-6705545 -409192,-6705529 -409218,-6705520 -409248,-6705507 -409264,-6705490 -409264,-6705488 -409264,-6705465 -409267,-6705452 -409270,-6705448 -409295,-6705430 -409311,-6705420 -409361,-6705393 -409444,-6705327 -409477,-6705310 -409501,-6705300 -409513,-6705287 -409518,-6705285 -409540,-6705283 -409541,-6705284 -409549,-6705293 -409566,-6705304 -409569,-6705304 -409572,-6705299 -409583,-6705273 -409592,-6705259 -409594,-6705232 -409595,-6705228 -409600,-6705222 -409621,-6705210 -409624,-6705209 -409649,-6705217 -409665,-6705219 -409672,-6705219 -409710,-6705194 -409713,-6705190 -409716,-6705179 -409719,-6705177 -409732,-6705174 -409737,-6705175 -409749,-6705183 -409760,-6705188 -409779,-6705209 -409807,-6705232 -409811,-6705232 -409838,-6705231 -409874,-6705239 -409875,-6705241 -409871,-6705250 -409872,-6705253 -409873,-6705255 -409881,-6705263 -409889,-6705271 -409916,-6705286 -409924,-6705294 -409930,-6705299 -409938,-6705304 -409956,-6705315 -409957,-6705317 -409968,-6705342 -409989,-6705371 -410032,-6705401 -410073,-6705426 -410127,-6705453 -410184,-6705473 -410232,-6705487 -410274,-6705488 -410397,-6705486 -410455,-6705487 -410467,-6705486 -410502,-6705483 -410539,-6705469 -410541,-6705466 -410550,-6705445 -410553,-6705442 -410587,-6705439 -410662,-6705453 -410665,-6705452 -410672,-6705450 -410691,-6705448 -410692,-6705449 -410695,-6705459 -410696,-6705460 -410706,-6705465 -410708,-6705465 -410748,-6705456 -410762,-6705454 -410805,-6705456 -410834,-6705465 -410833,-6705468 -410819,-6705482 -410817,-6705485 -410817,-6705486 -410843,-6705483 -410845,-6705484 -410839,-6705508 -410838,-6705510 -410828,-6705516 -410827,-6705518 -410889,-6705564 -411170,-6705688 -411304,-6705742 -411308,-6705743 -411317,-6705739 -411318,-6705736 -411316,-6705713 -411318,-6705711 -411328,-6705709 -411349,-6705719 -411374,-6705735 -411389,-6705744 -411394,-6705745 -411408,-6705744 -411423,-6705737 -411426,-6705733 -411427,-6705729 -411427,-6705726 -411418,-6705705 -411418,-6705697 -411418,-6705690 -411421,-6705685 -411425,-6705679 -411428,-6705678 -411578,-6705618 -411620,-6705606 -411679,-6705599 -411740,-6705583 -411787,-6705565 -411850,-6705532 -411852,-6705531 -411861,-6705532 -411868,-6705534 -411885,-6705539 -411888,-6705539 -411892,-6705534 -411893,-6705532 -411890,-6705522 -411865,-6705465 -411851,-6705435 -411845,-6705416 -411845,-6705412 -411850,-6705406 -411870,-6705393 -411875,-6705392 -411892,-6705392 -411939,-6705394 -411977,-6705391 -412003,-6705385 -412073,-6705363 -412133,-6705345 -412186,-6705324 -412188,-6705324 -412215,-6705327 -412304,-6705347 -412325,-6705354 -412329,-6705357 -412343,-6705379 -412359,-6705393 -412376,-6705411 -412379,-6705413 -412406,-6705407 -412441,-6705397 -412455,-6705396 -412460,-6705397 -412471,-6705406 -412478,-6705419 -412480,-6705421 -412507,-6705441 -412529,-6705454 -412541,-6705455 -412556,-6705461 -412557,-6705462 -412568,-6705477 -412576,-6705491 -412586,-6705503 -412587,-6705505 -412591,-6705526 -412594,-6705528 -412609,-6705535 -412642,-6705542 -412727,-6705574 -412841,-6705596 -412853,-6705600 -412854,-6705601 -412856,-6705615 -412854,-6705641 -412857,-6705652 -412858,-6705651 -412872,-6705629 -412886,-6705615 -412888,-6705614 -412903,-6705613 -412925,-6705609 -412939,-6705608 -412966,-6705608 -412984,-6705610 -413030,-6705627 -413089,-6705652 -413139,-6705663 -413171,-6705662 -413187,-6705660 -413237,-6705652 -413239,-6705655 -413244,-6705676 -413245,-6705709 -413243,-6705713 -413233,-6705723 -413224,-6705736 -413223,-6705741 -413223,-6705759 -413229,-6705778 -413232,-6705782 -413244,-6705798 -413250,-6705822 -413258,-6705834 -413292,-6705859 -413317,-6705869 -413332,-6705868 -413335,-6705869 -413336,-6705889 -413336,-6705891 -413326,-6705908 -413327,-6705911 -413350,-6705938 -413388,-6705975 -413424,-6706001 -413543,-6706075 -413590,-6706097 -413663,-6706149 -413666,-6706148 -413685,-6706129 -413691,-6706125 -413698,-6706120 -413703,-6706119 -413708,-6706119 -413718,-6706121 -413720,-6706122 -413755,-6706151 -413756,-6706152 -413774,-6706152 -413782,-6706146 -413788,-6706141 -413798,-6706124 -413808,-6706112 -413812,-6706111 -413833,-6706114 -413845,-6706111 -413850,-6706109 -413864,-6706093 -413878,-6706088 -413881,-6706088 -413909,-6706112 -413944,-6706135 -413962,-6706151 -413968,-6706172 -413971,-6706204 -413991,-6706239 -413999,-6706258 -414014,-6706293 -414019,-6706308 -414025,-6706330 -414027,-6706333 -414079,-6706356 -414109,-6706373 -414136,-6706397 -414167,-6706427 -414178,-6706434 -414192,-6706442 -414234,-6706452 -414237,-6706455 -414241,-6706468 -414244,-6706483 -414254,-6706497 -414268,-6706507 -414297,-6706514 -414298,-6706515 -414315,-6706537 -414341,-6706576 -414358,-6706606 -414358,-6706607 -414354,-6706624 -414354,-6706651 -414351,-6706675 -414349,-6706680 -414328,-6706708 -414328,-6706709 -414328,-6706713 -414331,-6706716 -414333,-6706718 -414343,-6706721 -414361,-6706722 -414372,-6706730 -414484,-6706894 -414541,-6706970 -414573,-6707019 -414667,-6707134 -414731,-6707204 -414777,-6707260 -414804,-6707297 -414831,-6707336 -414856,-6707368 -414912,-6707428 -414940,-6707468 -414953,-6707493 -414993,-6707574 -415038,-6707646 -415126,-6707770 -415189,-6707863 -415207,-6707892 -415241,-6707935 -415269,-6707973 -415337,-6708078 -415408,-6708199 -415445,-6708282 -415458,-6708311 -415486,-6708354 -415558,-6708452 -415763,-6708666 -415793,-6708692 -415828,-6708719 -415844,-6708733 -415859,-6708748 -415877,-6708767 -415913,-6708805 -415930,-6708825 -415975,-6708884 -416015,-6708943 -416076,-6709043 -416107,-6709090 -416129,-6709134 -416152,-6709174 -416172,-6709220 -416187,-6709267 -416194,-6709303 -416191,-6709334 -416182,-6709364 -416150,-6709429 -416145,-6709461 -416149,-6709479 -416158,-6709506 -416165,-6709519 -416179,-6709542 -416204,-6709580 -416220,-6709611 -416260,-6709705 -416269,-6709716 -416276,-6709724 -416282,-6709733 -416288,-6709744 -416293,-6709754 -416314,-6709809 -416347,-6709882 -416376,-6709934 -416424,-6710033 -416460,-6710091 -416488,-6710132 -416516,-6710158 -416538,-6710172 -416583,-6710183 -416608,-6710202 -416678,-6710251 -416709,-6710271 -416734,-6710281 -416770,-6710284 -416781,-6710286 -416797,-6710299 -416832,-6710337 -416861,-6710357 -416887,-6710368 -416918,-6710375 -416943,-6710376 -416948,-6710375 -416956,-6710371 -416966,-6710366 -416981,-6710350 -417003,-6710316 -417012,-6710309 -417017,-6710307 -417036,-6710306 -417059,-6710312 -417062,-6710314 -417067,-6710326 -417070,-6710328 -417095,-6710333 -417115,-6710334 -417147,-6710333 -417162,-6710326 -417172,-6710324 -417185,-6710328 -417232,-6710355 -417253,-6710368 -417272,-6710382 -417305,-6710408 -417334,-6710441 -417353,-6710453 -417375,-6710459 -417379,-6710462 -417390,-6710478 -417397,-6710491 -417404,-6710504 -417415,-6710530 -417415,-6710533 -417412,-6710539 -417408,-6710545 -417404,-6710549 -417397,-6710553 -417347,-6710560 -417320,-6710569 -417284,-6710587 -417255,-6710595 -417208,-6710595 -417194,-6710596 -417151,-6710616 -417150,-6710617 -417145,-6710629 -417145,-6710635 -417146,-6710640 -417149,-6710643 -417152,-6710645 -417160,-6710646 -417170,-6710646 -417199,-6710636 -417217,-6710635 -417241,-6710636 -417279,-6710631 -417306,-6710629 -417320,-6710629 -417349,-6710632 -417380,-6710632 -417404,-6710634 -417422,-6710638 -417439,-6710648 -417466,-6710670 -417489,-6710688 -417507,-6710705 -417515,-6710720 -417515,-6710738 -417520,-6710757 -417528,-6710775 -417530,-6710785 -417530,-6710797 -417511,-6710835 -417479,-6710905 -417463,-6710951 -417456,-6710968 -417448,-6710981 -417423,-6711023 -417423,-6711026 -417444,-6711061 -417450,-6711072 -417480,-6711150 -417487,-6711166 -417505,-6711195 -417543,-6711265 -417583,-6711334 -417609,-6711372 -417646,-6711417 -417670,-6711451 -417726,-6711520 -417746,-6711549 -417747,-6711552 -417751,-6711571 -417751,-6711573 -417748,-6711583 -417749,-6711586 -417774,-6711590 -417778,-6711593 -417808,-6711637 -417833,-6711678 -417859,-6711712 -417869,-6711730 -417898,-6711785 -417922,-6711839 -417957,-6711931 -417956,-6711934 -417942,-6711940 -417936,-6711944 -417935,-6711946 -417937,-6711954 -417938,-6711954 -417946,-6711954 -417952,-6711958 -417962,-6711954 -417973,-6711942 -417993,-6711932 -418027,-6711922 -418046,-6711918 -418067,-6711916 -418126,-6711931 -418128,-6711931 -418141,-6711944 -418142,-6711946 -418143,-6711956 -418143,-6711967 -418125,-6711998 -418126,-6712000 -418152,-6711997 -418208,-6711986 -418192,-6711977 -418175,-6711975 -418172,-6711973 -418168,-6711962 -418170,-6711960 -418182,-6711955 -418206,-6711952 -418248,-6711966 -418252,-6711971 -418258,-6711987 -418262,-6711991 -418267,-6711995 -418269,-6711997 -418285,-6711999 -418321,-6711996 -418372,-6712001 -418414,-6712012 -418417,-6712014 -418419,-6712019 -418420,-6712023 -418419,-6712027 -418393,-6712069 -418377,-6712090 -418374,-6712092 -418345,-6712092 -418272,-6712083 -418218,-6712088 -418151,-6712098 -418122,-6712083 -418065,-6712071 -417985,-6712061 -417966,-6712044 -417924,-6712057 -417923,-6712057 -417921,-6712059 -417920,-6712061 -417919,-6712062 -417918,-6712065 -417917,-6712067 -417917,-6712070 -417918,-6712074 -417919,-6712077 -417920,-6712078 -417921,-6712081 -417923,-6712085 -417925,-6712088 -417928,-6712090 -417953,-6712101 -417955,-6712102 -417957,-6712103 -417960,-6712104 -417963,-6712104 -417965,-6712105 -417968,-6712106 -417970,-6712107 -417971,-6712109 -417972,-6712110 -417974,-6712113 -417975,-6712115 -417975,-6712120 -417975,-6712127 -417976,-6712132 -417977,-6712139 -417978,-6712145 -417981,-6712151 -417983,-6712156 -417987,-6712165 -417992,-6712173 -417994,-6712176 -418000,-6712184 -418006,-6712192 -418007,-6712199 -418009,-6712218 -418011,-6712232 -418012,-6712237 -418014,-6712246 -418018,-6712264 -418023,-6712283 -418042,-6712335 -418046,-6712347 -418059,-6712382 -418064,-6712397 -418070,-6712418 -418077,-6712440 -418081,-6712450 -418085,-6712462 -418090,-6712474 -418096,-6712485 -418099,-6712491 -418107,-6712504 -418115,-6712516 -418121,-6712524 -418129,-6712534 -418130,-6712536 -418138,-6712546 -418137,-6712553 -418138,-6712561 -418155,-6712584 -418163,-6712600 -418174,-6712636 -418178,-6712646 -418186,-6712665 -418194,-6712681 -418201,-6712697 -418205,-6712709 -418212,-6712730 -418217,-6712752 -418219,-6712758 -418224,-6712779 -418228,-6712801 -418234,-6712858 -418235,-6712867 -418237,-6712885 -418239,-6712904 -418242,-6712922 -418248,-6712950 -418258,-6712986 -418262,-6713006 -418266,-6713025 -418271,-6713045 -418289,-6713099 -418291,-6713104 -418296,-6713120 -418301,-6713136 -418306,-6713152 -418312,-6713167 -418328,-6713199 -418359,-6713262 -418397,-6713336 -418400,-6713349 -418417,-6713415 -418464,-6713515 -418488,-6713579 -418489,-6713583 -418492,-6713592 -418493,-6713595 -418498,-6713607 -418504,-6713619 -418525,-6713654 -418530,-6713662 -418539,-6713675 -418547,-6713688 -418555,-6713701 -418557,-6713705 -418561,-6713713 -418565,-6713720 -418568,-6713727 -418570,-6713734 -418571,-6713737 -418576,-6713763 -418576,-6713767 -418580,-6713793 -418595,-6713874 -418595,-6713877 -418598,-6713892 -418602,-6713908 -418605,-6713916 -418618,-6713953 -418625,-6713970 -418639,-6714007 -418694,-6714140 -418717,-6714193 -418759,-6714318 -418783,-6714397 -418802,-6714433 -418812,-6714483 -418819,-6714498 -418857,-6714557 -418866,-6714575 -418892,-6714654 -418939,-6714799 -418969,-6714866 -419025,-6715000 -419036,-6715056 -419065,-6715148 -419077,-6715188 -419079,-6715196 -419085,-6715213 -419090,-6715230 -419093,-6715246 -419096,-6715263 -419099,-6715280 -419114,-6715340 -419131,-6715423 -419153,-6715523 -419166,-6715564 -419196,-6715661 -419215,-6715691 -419218,-6715733 -419256,-6715849 -419272,-6715895 -419337,-6716053 -419368,-6716145 -419375,-6716155 -419380,-6716166 -419391,-6716178 -419415,-6716209 -419449,-6716251 -419458,-6716262 -419469,-6716274 -419479,-6716287 -419484,-6716294 -419492,-6716305 -419499,-6716317 -419506,-6716329 -419511,-6716340 -419517,-6716353 -419522,-6716365 -419526,-6716379 -419533,-6716395 -419564,-6716440 -419586,-6716479 -419602,-6716520 -419605,-6716523 -419611,-6716529 -419617,-6716536 -419623,-6716544 -419632,-6716559 -419634,-6716561 -419637,-6716567 -419643,-6716578 -419649,-6716589 -419654,-6716600 -419659,-6716613 -419557,-6716648 -419410,-6716697 -419324,-6716732 -419277,-6716743 -419217,-6716764 -419165,-6716780 -419098,-6716804 -419034,-6716783 -419007,-6716785 -418984,-6716780 -418953,-6716746 -418895,-6716750 -418868,-6716754 -418860,-6716757 -418842,-6716763 -418784,-6716784 -418767,-6716782 -418734,-6716746 -418721,-6716731 -418702,-6716715 -418690,-6716698 -418687,-6716690 -418681,-6716677 -418676,-6716667 -418669,-6716651 -418664,-6716641 -418656,-6716616 -418645,-6716582 -418641,-6716579 -418632,-6716572 -418606,-6716570 -418575,-6716581 -418561,-6716594 -418549,-6716611 -418548,-6716611 -418539,-6716624 -418530,-6716638 -418516,-6716644 -418489,-6716635 -418450,-6716596 -418410,-6716540 -418390,-6716511 -418380,-6716504 -418366,-6716490 -418347,-6716480 -418336,-6716470 -418333,-6716455 -418329,-6716439 -418328,-6716434 -418333,-6716415 -418336,-6716408 -418347,-6716387 -418360,-6716354 -418380,-6716314 -418395,-6716260 -418403,-6716226 -418399,-6716199 -418389,-6716179 -418382,-6716172 -418346,-6716173 -418302,-6716177 -418263,-6716177 -418237,-6716180 -418212,-6716178 -418203,-6716183 -418192,-6716194 -418083,-6716209 -418051,-6716210 -418021,-6716204 -417995,-6716198 -417975,-6716189 -417957,-6716166 -417937,-6716146 -417908,-6716120 -417896,-6716117 -417869,-6716122 -417854,-6716129 -417838,-6716153 -417832,-6716165 -417815,-6716191 -417802,-6716226 -417800,-6716254 -417802,-6716286 -417797,-6716298 -417787,-6716294 -417775,-6716282 -417767,-6716263 -417761,-6716255 -417750,-6716250 -417734,-6716252 -417723,-6716260 -417715,-6716274 -417716,-6716295 -417721,-6716309 -417720,-6716310 -417730,-6716348 -417738,-6716380 -417738,-6716410 -417749,-6716439 -417770,-6716460 -417768,-6716475 -417756,-6716482 -417747,-6716483 -417740,-6716489 -417730,-6716496 -417715,-6716502 -417701,-6716510 -417683,-6716520 -417668,-6716527 -417668,-6716532 -417671,-6716536 -417672,-6716537 -417684,-6716544 -417689,-6716552 -417687,-6716560 -417682,-6716570 -417673,-6716575 -417650,-6716572 -417629,-6716566 -417616,-6716560 -417611,-6716557 -417598,-6716558 -417559,-6716560 -417502,-6716563 -417480,-6716568 -417464,-6716570 -417432,-6716580 -417395,-6716576 -417324,-6716583 -417310,-6716587 -417292,-6716598 -417290,-6716599 -417290,-6716615 -417280,-6716639 -417271,-6716661 -417267,-6716700 -417256,-6716710 -417249,-6716715 -417232,-6716729 -417225,-6716743 -417210,-6716751 -417192,-6716754 -417174,-6716759 -417147,-6716771 -417136,-6716771 -417118,-6716775 -417096,-6716779 -417071,-6716777 -417055,-6716769 -417034,-6716757 -417016,-6716752 -417004,-6716754 -416994,-6716757 -416979,-6716759 -416964,-6716760 -416942,-6716755 -416919,-6716752 -416893,-6716755 -416842,-6716777 -416819,-6716785 -416808,-6716782 -416800,-6716777 -416796,-6716775 -416788,-6716763 -416776,-6716748 -416740,-6716701 -416677,-6716616 -416651,-6716575 -416617,-6716525 -416590,-6716491 -416571,-6716465 -416540,-6716443 -416510,-6716429 -416467,-6716397 -416451,-6716387 -416419,-6716368 -416367,-6716341 -416320,-6716322 -416294,-6716308 -416265,-6716288 -416224,-6716263 -416212,-6716258 -416187,-6716248 -416164,-6716223 -416102,-6716145 -416080,-6716118 -416026,-6716057 -416000,-6716030 -415977,-6716009 -415920,-6715963 -415895,-6715947 -415859,-6715929 -415816,-6715909 -415757,-6715886 -415653,-6715847 -415540,-6715809 -415497,-6715793 -415425,-6715764 -415387,-6715755 -415356,-6715742 -415309,-6715726 -415225,-6715697 -415162,-6715675 -415140,-6715670 -415116,-6715666 -415085,-6715663 -415059,-6715657 -415021,-6715658 -414927,-6715676 -414848,-6715689 -414777,-6715704 -414590,-6715749 -414557,-6715760 -414505,-6715773 -414438,-6715781 -414384,-6715786 -414358,-6715786 -414348,-6715786 -414347,-6715788 -414347,-6715820 -414313,-6715817 -414315,-6715831 -414253,-6715819 -414217,-6715814 -414158,-6715810 -414107,-6715809 -414063,-6715807 -414009,-6715798 -413870,-6715770 -413796,-6715753 -413692,-6715723 -413595,-6715695 -413556,-6715691 -413511,-6715680 -413441,-6715665 -413411,-6715655 -413388,-6715653 -413370,-6715646 -413357,-6715636 -413339,-6715626 -413318,-6715622 -413284,-6715620 -413273,-6715618 -413249,-6715613 -413227,-6715601 -413211,-6715588 -413202,-6715570 -413197,-6715549 -413193,-6715515 -413190,-6715512 -413139,-6715489 -413129,-6715482 -413130,-6715481 -413134,-6715471 -413137,-6715464 -413139,-6715460 -413141,-6715456 -413131,-6715451 -413121,-6715447 -413109,-6715462 -413097,-6715477 -413094,-6715475 -412996,-6715431 -412974,-6715423 -412869,-6715373 -412804,-6715348 -412725,-6715316 -412690,-6715299 -412559,-6715232 -412521,-6715211 -412484,-6715193 -412428,-6715169 -412387,-6715151 -412394,-6715130 -412399,-6715121 -412400,-6715119 -412398,-6715118 -412396,-6715116 -412384,-6715110 -412370,-6715130 -412363,-6715134 -412346,-6715135 -412330,-6715127 -412291,-6715106 -412248,-6715080 -412238,-6715078 -412230,-6715078 -412211,-6715084 -412201,-6715091 -412192,-6715097 -412156,-6715125 -412144,-6715134 -412123,-6715141 -412093,-6715141 -412063,-6715145 -412044,-6715153 -412021,-6715175 -411972,-6715237 -411963,-6715248 -411921,-6715272 -411899,-6715289 -411866,-6715325 -411832,-6715342 -411819,-6715359 -411809,-6715370 -411803,-6715390 -411796,-6715405 -411781,-6715414 -411771,-6715420 -411762,-6715437 -411759,-6715458 -411758,-6715475 -411758,-6715477 -411754,-6715480 -411746,-6715484 -411711,-6715491 -411697,-6715496 -411662,-6715528 -411614,-6715561 -411609,-6715566 -411609,-6715583 -411609,-6715584 -411611,-6715606 -411611,-6715627 -411592,-6715652 -411580,-6715667 -411555,-6715690 -411516,-6715729 -411494,-6715744 -411472,-6715753 -411467,-6715757 -411466,-6715760 -411465,-6715762 -411467,-6715768 -411470,-6715776 -411473,-6715780 -411500,-6715799 -411538,-6715831 -411558,-6715853 -411572,-6715874 -411577,-6715897 -411583,-6715908 -411592,-6715925 -411605,-6715960 -411613,-6715994 -411622,-6716032 -411629,-6716043 -411637,-6716057 -411638,-6716082 -411632,-6716087 -411623,-6716111 -411607,-6716134 -411598,-6716142 -411597,-6716147 -411593,-6716157 -411587,-6716164 -411575,-6716169 -411562,-6716170 -411543,-6716171 -411532,-6716184 -411517,-6716201 -411504,-6716219 -411502,-6716225 -411492,-6716246 -411492,-6716272 -411494,-6716279 -411499,-6716303 -411496,-6716316 -411486,-6716329 -411478,-6716331 -411430,-6716332 -411421,-6716342 -411413,-6716353 -411409,-6716358 -411403,-6716361 -411400,-6716361 -411388,-6716358 -411371,-6716354 -411351,-6716372 -411335,-6716387 -411326,-6716408 -411323,-6716415 -411316,-6716424 -411309,-6716426 -411291,-6716431 -411262,-6716441 -411191,-6716428 -411157,-6716420 -411142,-6716416 -411101,-6716424 -411099,-6716424 -411075,-6716404 -411041,-6716398 -411004,-6716384 -410972,-6716372 -410944,-6716372 -410910,-6716352 -410901,-6716349 -410894,-6716352 -410891,-6716355 -410878,-6716371 -410856,-6716376 -410843,-6716372 -410841,-6716373 -410828,-6716393 -410823,-6716395 -410799,-6716399 -410775,-6716393 -410754,-6716404 -410753,-6716405 -410741,-6716416 -410741,-6716432 -410735,-6716444 -410739,-6716454 -410746,-6716469 -410743,-6716492 -410734,-6716505 -410729,-6716522 -410720,-6716547 -410707,-6716562 -410681,-6716599 -410677,-6716608 -410673,-6716618 -410668,-6716661 -410665,-6716676 -410640,-6716714 -410626,-6716733 -410620,-6716739 -410594,-6716754 -410583,-6716767 -410572,-6716774 -410561,-6716783 -410557,-6716795 -410556,-6716797 -410540,-6716814 -410520,-6716832 -410515,-6716840 -410510,-6716848 -410510,-6716850 -410517,-6716879 -410525,-6716896 -410524,-6716915 -410500,-6716922 -410479,-6716931 -410449,-6716935 -410413,-6716935 -410384,-6716930 -410366,-6716918 -410353,-6716910 -410340,-6716898 -410330,-6716896 -410319,-6716902 -410299,-6716910 -410290,-6716908 -410280,-6716904 -410277,-6716904 -410268,-6716906 -410260,-6716906 -410252,-6716905 -410243,-6716912 -410223,-6716924 -410221,-6716924 -410202,-6716921 -410179,-6716910 -410172,-6716898 -410164,-6716898 -410154,-6716902 -410151,-6716904 -410141,-6716914 -410130,-6716923 -410124,-6716932 -410124,-6716942 -410127,-6716946 -410136,-6716950 -410138,-6716962 -410129,-6716969 -410127,-6716971 -410126,-6716972 -410114,-6716988 -410101,-6716994 -410081,-6717005 -410053,-6717024 -410036,-6717041 -410017,-6717055 -409997,-6717064 -409980,-6717072 -409963,-6717069 -409940,-6717060 -409910,-6717061 -409895,-6717060 -409874,-6717049 -409856,-6717034 -409845,-6717031 -409829,-6717035 -409815,-6717038 -409804,-6717033 -409793,-6717028 -409772,-6717035 -409713,-6717051 -409653,-6717073 -409601,-6717087 -409586,-6717090 -409571,-6717093 -409536,-6717096 -409465,-6717093 -409451,-6717094 -409434,-6717095 -409412,-6717103 -409388,-6717108 -409355,-6717108 -409322,-6717114 -409285,-6717127 -409251,-6717144 -409232,-6717164 -409211,-6717187 -409189,-6717202 -409169,-6717207 -409152,-6717195 -409146,-6717191 -409131,-6717190 -409105,-6717197 -409083,-6717201 -409071,-6717203 -409063,-6717198 -409038,-6717184 -409006,-6717186 -408993,-6717185 -408985,-6717189 -408959,-6717208 -408930,-6717210 -408894,-6717207 -408867,-6717205 -408826,-6717204 -408802,-6717211 -408796,-6717212 -408776,-6717209 -408748,-6717202 -408690,-6717182 -408671,-6717177 -408665,-6717177 -408655,-6717184 -408630,-6717177 -408605,-6717172 -408572,-6717161 -408517,-6717152 -408462,-6717135 -408449,-6717133 -408426,-6717133 -408395,-6717129 -408385,-6717129 -408361,-6717129 -408344,-6717124 -408323,-6717113 -408300,-6717105 -408273,-6717102 -408252,-6717096 -408215,-6717090 -408212,-6717090 -408190,-6717094 -408162,-6717097 -408114,-6717095 -408096,-6717093 -408061,-6717082 -408036,-6717082 -408011,-6717085 -407954,-6717084 -407920,-6717077 -407908,-6717074 -407883,-6717065 -407866,-6717061 -407828,-6717069 -407808,-6717072 -407797,-6717073 -407771,-6717072 -407745,-6717077 -407722,-6717093 -407713,-6717095 -407700,-6717089 -407687,-6717082 -407684,-6717078 -407665,-6717058 -407653,-6717058 -407641,-6717062 -407634,-6717063 -407579,-6717065 -407557,-6717073 -407548,-6717076 -407516,-6717087 -407505,-6717088 -407495,-6717088 -407457,-6717082 -407446,-6717081 -407424,-6717082 -407401,-6717090 -407381,-6717105 -407344,-6717113 -407307,-6717118 -407272,-6717123 -407231,-6717123 -407218,-6717127 -407210,-6717131 -407200,-6717137 -407162,-6717175 -407068,-6717216 -407060,-6717220 -407052,-6717226 -407043,-6717235 -407034,-6717245 -407027,-6717256 -407017,-6717276 -406990,-6717348 -406995,-6717378 -406996,-6717393 -406989,-6717499 -406988,-6717529 -406986,-6717545 -406984,-6717555 -406982,-6717569 -406984,-6717588 -406974,-6717595 -406945,-6717605 -406926,-6717625 -406926,-6717627 -406924,-6717641 -406917,-6717648 -406916,-6717649 -406913,-6717651 -406897,-6717658 -406890,-6717664 -406898,-6717673 -406892,-6717678 -406882,-6717678 -406880,-6717678 -406870,-6717679 -406868,-6717683 -406866,-6717687 -406864,-6717697 -406883,-6717715 -406886,-6717724 -406880,-6717730 -406876,-6717731 -406842,-6717738 -406829,-6717743 -406819,-6717759 -406816,-6717762 -406814,-6717766 -406802,-6717808 -406805,-6717835 -406800,-6717839 -406799,-6717839 -406784,-6717844 -406773,-6717847 -406762,-6717858 -406749,-6717880 -406744,-6717893 -406740,-6717911 -406729,-6717932 -406712,-6717981 -406707,-6718005 -406711,-6718025 -406722,-6718046 -406717,-6718060 -406700,-6718082 -406693,-6718098 -406682,-6718113 -406652,-6718137 -406639,-6718146 -406620,-6718155 -406616,-6718161 -406614,-6718167 -406614,-6718172 -406617,-6718199 -406617,-6718212 -406612,-6718238 -406621,-6718295 -406635,-6718318 -406644,-6718341 -406648,-6718361 -406640,-6718366 -406638,-6718369 -406636,-6718370 -406607,-6718377 -406601,-6718381 -406598,-6718383 -406586,-6718403 -406582,-6718406 -406571,-6718409 -406566,-6718406 -406561,-6718405 -406559,-6718406 -406548,-6718415 -406545,-6718420 -406542,-6718440 -406542,-6718454 -406544,-6718476 -406543,-6718477 -406538,-6718482 -406538,-6718485 -406545,-6718511 -406547,-6718514 -406559,-6718520 -406561,-6718522 -406557,-6718529 -406539,-6718546 -406528,-6718555 -406526,-6718559 -406524,-6718564 -406525,-6718602 -406524,-6718604 -406519,-6718627 -406512,-6718628 -406507,-6718626 -406508,-6718629 -406517,-6718639 -406524,-6718649 -406531,-6718669 -406533,-6718706 -406541,-6718723 -406523,-6718729 -406505,-6718732 -406508,-6718738 -406511,-6718744 -406509,-6718755 -406499,-6718762 -406498,-6718768 -406514,-6718801 -406516,-6718803 -406526,-6718805 -406542,-6718807 -406547,-6718831 -406526,-6718847 -406510,-6718862 -406496,-6718865 -406492,-6718870 -406495,-6718883 -406499,-6718894 -406490,-6718914 -406487,-6718920 -406492,-6718926 -406496,-6718925 -406508,-6718924 -406512,-6718936 -406509,-6718950 -406495,-6718961 -406494,-6718964 -406500,-6718971 -406500,-6718979 -406493,-6718980 -406480,-6718982 -406480,-6718988 -406485,-6718992 -406485,-6718994 -406496,-6719005 -406498,-6719014 -406489,-6719029 -406465,-6719046 -406435,-6719074 -406413,-6719101 -406405,-6719110 -406401,-6719118 -406397,-6719128 -406392,-6719167 -406392,-6719183 -406393,-6719191 -406399,-6719210 -406401,-6719219 -406407,-6719227 -406407,-6719230 -406398,-6719264 -406388,-6719292 -406380,-6719338 -406379,-6719340 -406356,-6719366 -406347,-6719397 -406334,-6719429 -406334,-6719431 -406348,-6719514 -406335,-6719571 -406334,-6719583 -406329,-6719610 -406329,-6719612 -406346,-6719649 -406351,-6719662 -406363,-6719708 -406366,-6719740 -406364,-6719744 -406363,-6719748 -406366,-6719753 -406383,-6719760 -406392,-6719765 -406417,-6719797 -406418,-6719800 -406415,-6719820 -406414,-6719839 -406405,-6719932 -406413,-6719970 -406416,-6720003 -406415,-6720009 -406402,-6720030 -406397,-6720042 -406393,-6720053 -406410,-6720111 -406422,-6720137 -406424,-6720154 -406426,-6720163 -406430,-6720172 -406434,-6720178 -406450,-6720191 -406455,-6720197 -406462,-6720208 -406471,-6720225 -406475,-6720241 -406478,-6720245 -406480,-6720248 -406489,-6720253 -406494,-6720260 -406500,-6720270 -406515,-6720298 -406550,-6720331 -406559,-6720342 -406563,-6720348 -406572,-6720371 -406576,-6720383 -406577,-6720384 -406586,-6720387 -406592,-6720391 -406599,-6720397 -406616,-6720418 -406621,-6720422 -406652,-6720430 -406662,-6720433 -406708,-6720461 -406740,-6720472 -406756,-6720478 -406769,-6720496 -406783,-6720504 -406795,-6720510 -406809,-6720529 -406812,-6720548 -406818,-6720558 -406836,-6720568 -406956,-6720678 -407073,-6720772 -407082,-6720788 -407096,-6720814 -407086,-6720820 -407087,-6720825 -407089,-6720828 -407096,-6720826 -407105,-6720824 -407109,-6720836 -407118,-6720843 -407115,-6720847 -407112,-6720852 -407112,-6720853 -407123,-6720861 -407122,-6720876 -407131,-6720885 -407145,-6720909 -407150,-6720914 -407161,-6720913 -407157,-6720920 -407157,-6720926 -407164,-6720935 -407169,-6720938 -407187,-6720942 -407190,-6720944 -407207,-6720975 -407207,-6720977 -407204,-6720985 -407203,-6720992 -407203,-6721002 -407209,-6721037 -407213,-6721045 -407223,-6721059 -407226,-6721065 -407227,-6721069 -407229,-6721100 -407233,-6721110 -407240,-6721121 -407241,-6721127 -407240,-6721141 -407247,-6721179 -407243,-6721191 -407243,-6721193 -407251,-6721212 -407251,-6721215 -407239,-6721231 -407222,-6721276 -407203,-6721313 -407197,-6721322 -407189,-6721333 -407181,-6721340 -407156,-6721363 -407144,-6721385 -407128,-6721409 -407118,-6721422 -407113,-6721432 -407107,-6721440 -407082,-6721481 -407081,-6721482 -407071,-6721485 -407048,-6721510 -406997,-6721571 -406963,-6721604 -406944,-6721619 -406937,-6721622 -406938,-6721646 -406938,-6721674 -406935,-6721678 -406930,-6721681 -406901,-6721688 -406899,-6721690 -406899,-6721704 -406902,-6721721 -406902,-6721732 -406898,-6721752 -406893,-6721765 -406893,-6721781 -406904,-6721821 -406910,-6721829 -406919,-6721836 -406929,-6721840 -406954,-6721854 -406971,-6721866 -406978,-6721869 -406981,-6721872 -406986,-6721879 -407020,-6721897 -407036,-6721905 -407050,-6721914 -407067,-6721926 -407081,-6721930 -407090,-6721931 -407109,-6721932 -407145,-6721938 -407161,-6721937 -407170,-6721942 -407190,-6721949 -407210,-6721959 -407225,-6721961 -407233,-6721967 -407248,-6721975 -407263,-6721989 -407266,-6721989 -407272,-6721987 -407273,-6721987 -407279,-6722000 -407292,-6722013 -407294,-6722014 -407303,-6722015 -407308,-6722018 -407310,-6722021 -407318,-6722038 -407323,-6722044 -407333,-6722052 -407352,-6722060 -407360,-6722066 -407369,-6722079 -407376,-6722084 -407388,-6722092 -407407,-6722109 -407414,-6722113 -407421,-6722124 -407425,-6722127 -407432,-6722129 -407437,-6722127 -407439,-6722127 -407457,-6722139 -407495,-6722147 -407518,-6722156 -407536,-6722168 -407554,-6722189 -407561,-6722200 -407565,-6722215 -407575,-6722226 -407587,-6722232 -407596,-6722255 -407607,-6722295 -407611,-6722342 -407623,-6722376 -407621,-6722405 -407630,-6722415 -407630,-6722423 -407642,-6722432 -407665,-6722477 -407674,-6722503 -407705,-6722529 -407734,-6722564 -407753,-6722583 -407773,-6722598 -407810,-6722629 -407825,-6722651 -407839,-6722686 -407860,-6722696 -407896,-6722711 -407924,-6722722 -407942,-6722733 -407964,-6722751 -407989,-6722787 -408005,-6722821 -408022,-6722845 -408048,-6722852 -408073,-6722871 -408090,-6722881 -408107,-6722886 -408114,-6722889 -408147,-6722908 -408171,-6722915 -408191,-6722924 -408241,-6722945 -408269,-6722963 -408275,-6723030 -408296,-6723161 -408314,-6723256 -408317,-6723260 -408353,-6723284 -408396,-6723302 -408440,-6723328 -408541,-6723382 -408598,-6723410 -408655,-6723439 -408986,-6723601 -409133,-6723680 -409326,-6723770 -409329,-6723773 -409508,-6724092 -409607,-6724268 -409739,-6724509 -409780,-6724566 -409806,-6724600 -409848,-6724658 -409860,-6724681 -409878,-6724721 -409913,-6724765 -409930,-6724792 -409959,-6724842 -410026,-6724942 -410193,-6725224 -410265,-6725332 -410355,-6725476 -410359,-6725484 -410379,-6725521 -410396,-6725564 -410399,-6725568 -410604,-6725647 -410763,-6725711 -410767,-6725715 -410776,-6725734 -410798,-6725793 -410843,-6725918 -410896,-6726055 -410931,-6726151 -410966,-6726247 -411033,-6726438 -411094,-6726598 -411194,-6726875 -411234,-6726988 -411258,-6727063 -411260,-6727093 -411257,-6727120 -411250,-6727152 -411247,-6727193 -411246,-6727277 -411242,-6727326 -411242,-6727369 -411239,-6727391 -411236,-6727410 -411226,-6727448 -411217,-6727464 -411200,-6727496 -411188,-6727522 -411175,-6727547 -411150,-6727580 -411135,-6727607 -411095,-6727658 -411075,-6727695 -411050,-6727752 -411035,-6727801 -411031,-6727830 -411021,-6727828 -411018,-6727878 -411018,-6727922 -411017,-6727936 -411012,-6727980 -411013,-6728042 -411013,-6728065 -411009,-6728112 -411004,-6728146 -410997,-6728175 -410973,-6728242 -410962,-6728296 -410953,-6728344 -410955,-6728380 -410953,-6728458 -410955,-6728499 -410952,-6728536 -410945,-6728562 -410925,-6728624 -410907,-6728656 -410910,-6728671 -410914,-6728679 -410916,-6728696 -410909,-6728727 -410904,-6728740 -410893,-6728751 -410872,-6728764 -410850,-6728770 -410835,-6728779 -410779,-6728781 -410749,-6728790 -410719,-6728791 -410673,-6728784 -410605,-6728785 -410595,-6728785 -410567,-6728784 -410549,-6728776 -410547,-6728777 -410543,-6728787 -410488,-6728779 -410453,-6728773 -410360,-6728756 -410250,-6728734 -410236,-6728723 -410213,-6728725 -410210,-6728726 -410202,-6728722 -410170,-6728710 -410148,-6728709 -410123,-6728703 -410088,-6728691 -410043,-6728673 -409974,-6728649 -409914,-6728625 -409882,-6728617 -409870,-6728615 -409831,-6728607 -409824,-6728598 -409793,-6728585 -409755,-6728558 -409742,-6728541 -409716,-6728532 -409704,-6728517 -409681,-6728515 -409659,-6728508 -409648,-6728500 -409633,-6728487 -409603,-6728457 -409576,-6728439 -409541,-6728432 -409470,-6728420 -409442,-6728414 -409426,-6728401 -409424,-6728394 -409421,-6728374 -409420,-6728365 -409401,-6728357 -409388,-6728355 -409364,-6728357 -409351,-6728354 -409311,-6728354 -409294,-6728356 -409292,-6728358 -409302,-6728391 -409314,-6728400 -409310,-6728408 -409318,-6728416 -409320,-6728425 -409322,-6728433 -409333,-6728445 -409337,-6728441 -409344,-6728432 -409349,-6728439 -409353,-6728452 -409354,-6728463 -409361,-6728464 -409379,-6728477 -409395,-6728492 -409452,-6728526 -409456,-6728535 -409457,-6728537 -409459,-6728537 -409472,-6728539 -409471,-6728550 -409472,-6728557 -409479,-6728565 -409493,-6728578 -409502,-6728590 -409493,-6728601 -409501,-6728615 -409509,-6728618 -409503,-6728631 -409513,-6728648 -409511,-6728661 -409516,-6728681 -409507,-6728687 -409504,-6728728 -409501,-6728746 -409490,-6728804 -409469,-6728920 -409455,-6728974 -409449,-6728972 -409445,-6728970 -409434,-6728983 -409424,-6729028 -409418,-6729037 -409411,-6729041 -409401,-6729077 -409399,-6729089 -409400,-6729094 -409418,-6729133 -409420,-6729157 -409419,-6729166 -409424,-6729234 -409424,-6729291 -409417,-6729324 -409412,-6729370 -409410,-6729411 -409412,-6729417 -409425,-6729437 -409432,-6729447 -409492,-6729505 -409514,-6729530 -409541,-6729551 -409560,-6729559 -409576,-6729562 -409591,-6729566 -409617,-6729570 -409645,-6729572 -409735,-6729585 -409771,-6729588 -409785,-6729594 -409808,-6729613 -409817,-6729619 -409864,-6729657 -409881,-6729670 -409920,-6729705 -409942,-6729726 -409955,-6729756 -409957,-6729773 -409944,-6729799 -409934,-6729827 -409921,-6729849 -409905,-6729893 -409889,-6729934 -409879,-6729990 -409867,-6730089 -409855,-6730127 -409846,-6730167 -409832,-6730218 -409827,-6730241 -409822,-6730308 -409790,-6730395 -409770,-6730441 -409751,-6730514 -409745,-6730543 -409743,-6730552 -409735,-6730582 -409732,-6730582 -409716,-6730575 -409714,-6730576 -409703,-6730603 -409684,-6730669 -409682,-6730680 -409679,-6730703 -409678,-6730757 -409673,-6730824 -409645,-6730929 -409620,-6731004 -409610,-6731028 -409588,-6731079 -409546,-6731189 -409532,-6731219 -409507,-6731265 -409503,-6731266 -409481,-6731266 -409478,-6731269 -409457,-6731311 -409446,-6731333 -409442,-6731344 -409438,-6731384 -409431,-6731430 -409432,-6731462 -409443,-6731550 -409450,-6731633 -409459,-6731659 -409473,-6731715 -409494,-6731794 -409507,-6731855 -409527,-6731939 -409530,-6731941 -409568,-6731959 -409637,-6731995 -409733,-6732045 -409734,-6732048 -409686,-6732163 -409648,-6732266 -409634,-6732301 -409589,-6732405 -409552,-6732496 -409525,-6732590 -409490,-6732720 -409477,-6732773 -409438,-6732873 -409413,-6732935 -409380,-6733033 -409358,-6733085 -409350,-6733103 -409330,-6733132 -409279,-6733235 -409201,-6733376 -409153,-6733463 -409112,-6733551 -409037,-6733694 -409014,-6733737 -408996,-6733765 -408953,-6733842 -408848,-6734048 -408816,-6734104 -408759,-6734211 -408714,-6734291 -408615,-6734468 -408527,-6734629 -408437,-6734800 -408394,-6734876 -408245,-6735155 -408205,-6735233 -408106,-6735416 -408063,-6735499 -408018,-6735577 -407995,-6735619 -407975,-6735649 -407946,-6735699 -407904,-6735774 -407874,-6735832 -407808,-6735954 -407710,-6736130 -407631,-6736270 -407627,-6736271 -407522,-6736249 -407356,-6736217 -407181,-6736180 -407035,-6736146 -406925,-6736123 -406702,-6736079 -406546,-6736042 -406155,-6735964 -406004,-6735931 -405861,-6735902 -405834,-6735896 -405833,-6735893 -405873,-6735814 -405892,-6735771" stroke="#003087" stroke-width="65" /></svg>