<?xml version="1.0" standalone="no"?>
<!DOCTYPE svg PUBLIC "-//W3C//DTD SVG 1.1//EN"
"http://www.w3.org/Graphics/SVG/1.1/DTD/svg11.dtd">
<svg height="115" version="1.1" viewBox="-372227 -6721045 30598 21044" width="220" xmlns="http://www.w3.org/2000/svg"><polygon fill="#003087" points=" -352185,-6721045 -352085,-6720928 -352054,-6720947 -351999,-6720892 -351967,-6720849 -351951,-6720823 -351916,-6720806 -351835,-6720753 -351830,-6720751 -351804,-6720746 -351798,-6720751 -351754,-6720724 -351759,-6720719 -351758,-6720717 -351729,-6720707 -351662,-6720657 -351605,-6720626 -351590,-6720613 -351564,-6720603 -351537,-6720582 -351520,-6720574 -351477,-6720540 -351465,-6720517 -351429,-6720472 -351390,-6720379 -351372,-6720365 -351374,-6720355 -351326,-6720278 -351311,-6720260 -351299,-6720258 -351269,-6720164 -351247,-6720121 -351244,-6720041 -351239,-6720023 -351241,-6720004 -351225,-6719962 -351212,-6719928 -351199,-6719929 -351186,-6719924 -351178,-6719920 -351164,-6719902 -351145,-6719899 -351126,-6719885 -351118,-6719873 -351119,-6719830 -351088,-6719804 -351087,-6719791 -351096,-6719765 -351091,-6719754 -351075,-6719743 -351084,-6719732 -351079,-6719723 -351079,-6719705 -351062,-6719704 -351049,-6719683 -351038,-6719680 -351030,-6719672 -351028,-6719663 -351011,-6719655 -351005,-6719646 -350984,-6719631 -350975,-6719612 -350980,-6719602 -350991,-6719603 -350990,-6719593 -350960,-6719555 -350964,-6719545 -350954,-6719523 -350952,-6719495 -350946,-6719484 -350950,-6719474 -350949,-6719467 -350943,-6719458 -350925,-6719461 -350864,-6719433 -350809,-6719413 -350690,-6719361 -350632,-6719392 -350610,-6719419 -350541,-6719468 -350527,-6719490 -350473,-6719541 -350464,-6719559 -350384,-6719635 -350350,-6719634 -350328,-6719624 -350287,-6719625 -350278,-6719644 -350267,-6719676 -350263,-6719695 -350222,-6719769 -350223,-6719786 -350209,-6719827 -350207,-6719862 -350202,-6719878 -350186,-6719906 -350173,-6719925 -350166,-6719987 -350157,-6720002 -350137,-6720048 -350128,-6720073 -350067,-6720123 -350042,-6720120 -350046,-6720106 -350057,-6720070 -350062,-6720037 -350055,-6720013 -350047,-6719991 -350036,-6719967 -350026,-6719942 -350012,-6719918 -349985,-6719871 -349965,-6719835 -349770,-6719880 -349674,-6719899 -349670,-6719899 -349610,-6719867 -349534,-6719821 -349435,-6719764 -349409,-6719749 -349397,-6719742 -349374,-6719739 -349328,-6719736 -349266,-6719724 -349232,-6719713 -349042,-6719657 -349017,-6719650 -348984,-6719646 -349019,-6719600 -348970,-6719498 -348974,-6719487 -348930,-6719490 -348920,-6719498 -348890,-6719500 -348871,-6719504 -348856,-6719495 -348816,-6719498 -348788,-6719474 -348721,-6719430 -348702,-6719423 -348684,-6719409 -348634,-6719397 -348613,-6719384 -348577,-6719381 -348539,-6719364 -348541,-6719356 -348524,-6719350 -348514,-6719341 -348492,-6719341 -348491,-6719334 -348462,-6719329 -348236,-6719117 -347922,-6719200 -347882,-6719139 -347905,-6719108 -347937,-6719061 -347950,-6719038 -347961,-6719018 -347983,-6718962 -347988,-6718940 -347964,-6718861 -348129,-6718780 -348128,-6718768 -348105,-6718748 -348094,-6718741 -348082,-6718734 -348055,-6718722 -348041,-6718716 -348013,-6718707 -347994,-6718693 -347973,-6718683 -347944,-6718651 -347935,-6718644 -347923,-6718636 -347904,-6718631 -347893,-6718624 -347859,-6718632 -347842,-6718617 -347826,-6718628 -347797,-6718627 -347801,-6718638 -347751,-6718660 -347748,-6718660 -347722,-6718642 -347699,-6718646 -347692,-6718654 -347646,-6718659 -347633,-6718671 -347632,-6718671 -347623,-6718670 -347613,-6718657 -347591,-6718663 -347572,-6718680 -347569,-6718665 -347542,-6718666 -347533,-6718673 -347519,-6718670 -347494,-6718668 -347483,-6718677 -347464,-6718679 -347441,-6718689 -347432,-6718683 -347428,-6718669 -347406,-6718658 -347363,-6718615 -347335,-6718593 -347312,-6718559 -347276,-6718460 -347257,-6718420 -347233,-6718400 -347206,-6718385 -347193,-6718384 -347195,-6718363 -347189,-6718290 -347161,-6718296 -347137,-6718286 -347120,-6718275 -347086,-6718235 -347085,-6718233 -347084,-6718223 -347083,-6718214 -347084,-6718193 -347088,-6718170 -347087,-6718167 -347065,-6718162 -347036,-6718160 -346995,-6718160 -346931,-6718174 -346910,-6718185 -346901,-6718198 -346828,-6718240 -346750,-6718312 -346718,-6718339 -346664,-6718347 -346627,-6718345 -346598,-6718390 -346543,-6718477 -346532,-6718499 -346486,-6718584 -346405,-6718563 -346336,-6718552 -346294,-6718530 -346303,-6718491 -346311,-6718480 -346332,-6718440 -346331,-6718420 -346340,-6718385 -346265,-6718425 -346113,-6718339 -346034,-6718298 -346059,-6718270 -346065,-6718258 -346064,-6718234 -346070,-6718182 -346093,-6718144 -346093,-6718133 -346085,-6718077 -346096,-6718051 -346111,-6718033 -346118,-6718009 -346102,-6717927 -346058,-6717917 -346024,-6717902 -345995,-6717898 -345963,-6717902 -345937,-6717892 -345939,-6717884 -345903,-6717868 -345872,-6717845 -345841,-6717821 -345825,-6717809 -345793,-6717790 -345768,-6717755 -345753,-6717717 -345737,-6717668 -345721,-6717676 -345716,-6717659 -345684,-6717677 -345648,-6717675 -345541,-6717570 -345514,-6717545 -345487,-6717529 -345484,-6717530 -345456,-6717513 -345386,-6717488 -345328,-6717468 -345260,-6717441 -345277,-6717381 -345240,-6717383 -345219,-6717375 -345166,-6717341 -345119,-6717311 -345083,-6717274 -345037,-6717220 -344984,-6717157 -344965,-6717137 -344926,-6717111 -344894,-6717079 -344822,-6717030 -344779,-6717004 -344730,-6716977 -344732,-6716881 -344753,-6716833 -344692,-6716827 -344635,-6716830 -344599,-6716827 -344561,-6716821 -344521,-6716818 -344495,-6716822 -344485,-6716823 -344484,-6716783 -344460,-6716727 -344453,-6716613 -344438,-6716606 -344436,-6716612 -344383,-6716632 -344312,-6716641 -344251,-6716611 -344211,-6716583 -344188,-6716557 -344143,-6716471 -344134,-6716442 -344132,-6716362 -344129,-6716339 -344112,-6716296 -344059,-6716187 -343764,-6716115 -343577,-6716071 -343526,-6716057 -343487,-6716049 -343390,-6716037 -343347,-6716034 -343332,-6716030 -343320,-6716026 -343307,-6716020 -343293,-6716013 -343281,-6716005 -343264,-6715993 -343227,-6715956 -343191,-6715925 -343167,-6715905 -343156,-6715895 -343064,-6715811 -343055,-6715812 -343013,-6715837 -342979,-6715862 -342960,-6715872 -342779,-6715595 -342781,-6715583 -342858,-6715530 -342776,-6715412 -342742,-6715375 -342710,-6715327 -342707,-6715312 -342670,-6715262 -342701,-6715239 -342888,-6715124 -342893,-6715111 -342792,-6714918 -342812,-6714907 -342711,-6714716 -342653,-6714620 -342600,-6714535 -342565,-6714452 -342543,-6714427 -342445,-6714359 -342437,-6714368 -342300,-6714245 -342286,-6714224 -342285,-6714222 -342271,-6714205 -342252,-6714197 -342144,-6714178 -342096,-6714161 -342067,-6714139 -342068,-6714132 -342034,-6714107 -341990,-6714082 -341833,-6713998 -341771,-6713961 -341731,-6713935 -341691,-6713911 -341661,-6713879 -341639,-6713856 -341629,-6713843 -341630,-6713840 -341745,-6713681 -341868,-6713515 -341930,-6713440 -341935,-6713437 -342001,-6713403 -342029,-6713386 -342057,-6713363 -342070,-6713351 -342085,-6713327 -342109,-6713284 -342112,-6713285 -342190,-6713365 -342194,-6713366 -342371,-6713190 -342453,-6713117 -342511,-6713190 -342590,-6713277 -342679,-6713195 -342749,-6713120 -342778,-6713096 -342849,-6713020 -342909,-6712971 -342942,-6712944 -342999,-6712915 -343054,-6712891 -343103,-6712875 -343107,-6712866 -343038,-6712834 -342959,-6712788 -342906,-6712764 -342852,-6712742 -342801,-6712726 -342760,-6712710 -342737,-6712693 -342721,-6712675 -342648,-6712584 -342687,-6712556 -342715,-6712541 -342823,-6712485 -342873,-6712459 -342913,-6712434 -342974,-6712388 -343037,-6712335 -343082,-6712295 -343143,-6712258 -343183,-6712334 -343277,-6712279 -343319,-6712254 -343416,-6712199 -343488,-6712163 -343522,-6712156 -343555,-6712135 -343578,-6712127 -343624,-6712119 -343686,-6712114 -343730,-6712110 -343754,-6712103 -343771,-6712093 -343788,-6712065 -343791,-6712057 -343809,-6712025 -343832,-6711999 -343863,-6712002 -343898,-6712024 -343942,-6712039 -343960,-6712043 -343975,-6712038 -343986,-6712024 -344020,-6711985 -343938,-6711907 -343906,-6711877 -343886,-6711860 -343856,-6711815 -343841,-6711783 -343818,-6711790 -343805,-6711780 -343759,-6711668 -343694,-6711519 -343646,-6711397 -343617,-6711342 -343620,-6711331 -343645,-6711312 -343668,-6711296 -343562,-6711124 -343333,-6710840 -343316,-6710826 -343305,-6710808 -343247,-6710743 -343159,-6710544 -343074,-6710348 -342573,-6709201 -342622,-6709177 -342676,-6709153 -342720,-6709128 -342758,-6709104 -342789,-6709081 -342825,-6709057 -342841,-6709044 -342858,-6709029 -342869,-6709019 -342896,-6708990 -342939,-6708958 -342984,-6708922 -343052,-6708870 -343155,-6708793 -343252,-6708729 -343338,-6708663 -343441,-6708601 -343492,-6708565 -343541,-6708527 -343629,-6708452 -343704,-6708394 -343767,-6708342 -343883,-6708259 -343966,-6708197 -344047,-6708140 -344150,-6708047 -344182,-6708022 -344304,-6707934 -344369,-6707878 -344411,-6707847 -344446,-6707822 -344501,-6707792 -344617,-6707695 -344681,-6707647 -344720,-6707624 -344751,-6707611 -344755,-6707611 -344777,-6707629 -344794,-6707633 -344813,-6707643 -344826,-6707646 -344831,-6707651 -344846,-6707667 -344862,-6707674 -344874,-6707681 -344875,-6707683 -344882,-6707705 -344885,-6707712 -344889,-6707720 -344900,-6707731 -344904,-6707734 -344911,-6707737 -344935,-6707736 -344957,-6707739 -344965,-6707743 -344969,-6707747 -344977,-6707760 -344980,-6707770 -344980,-6707772 -344976,-6707785 -344976,-6707790 -344978,-6707796 -344981,-6707800 -344990,-6707810 -344995,-6707812 -345015,-6707817 -345048,-6707824 -345059,-6707824 -345059,-6707822 -345044,-6707808 -345016,-6707798 -345002,-6707790 -345000,-6707784 -344999,-6707780 -345002,-6707763 -345002,-6707751 -345002,-6707749 -344993,-6707740 -344970,-6707727 -344940,-6707718 -344917,-6707717 -344910,-6707715 -344908,-6707714 -344904,-6707704 -344903,-6707692 -344906,-6707675 -344907,-6707652 -344905,-6707627 -344901,-6707618 -344886,-6707596 -344885,-6707593 -344885,-6707589 -344886,-6707586 -344890,-6707581 -344890,-6707579 -344884,-6707566 -344884,-6707563 -344892,-6707548 -344917,-6707529 -344950,-6707497 -344971,-6707477 -345023,-6707432 -345105,-6707368 -345153,-6707327 -345219,-6707276 -345435,-6707082 -345462,-6707058 -345480,-6707044 -345521,-6707002 -345572,-6706963 -345633,-6706907 -345682,-6706866 -345725,-6706837 -345799,-6706773 -345888,-6706701 -346007,-6706587 -346078,-6706525 -346090,-6706514 -346242,-6706388 -346280,-6706362 -346324,-6706326 -346365,-6706295 -346421,-6706259 -346497,-6706202 -346529,-6706172 -346579,-6706134 -346679,-6706049 -346719,-6706012 -346763,-6705980 -346781,-6705965 -346823,-6705927 -346861,-6705898 -346894,-6705870 -346921,-6705837 -346950,-6705794 -346966,-6705747 -346979,-6705721 -347047,-6705645 -347143,-6705541 -347219,-6705467 -347255,-6705429 -347323,-6705364 -347386,-6705308 -347504,-6705210 -347558,-6705151 -347607,-6705111 -347650,-6705072 -347685,-6705032 -347718,-6704988 -347737,-6704968 -347885,-6704825 -348042,-6704689 -348132,-6704595 -348151,-6704574 -348167,-6704559 -348182,-6704546 -348216,-6704519 -348269,-6704483 -348298,-6704457 -348315,-6704439 -348342,-6704418 -348352,-6704410 -348373,-6704389 -348374,-6704388 -348384,-6704379 -348399,-6704361 -348445,-6704317 -348461,-6704300 -348507,-6704255 -348541,-6704224 -348577,-6704189 -348600,-6704171 -348639,-6704145 -348668,-6704118 -348669,-6704117 -348687,-6704101 -348700,-6704088 -348713,-6704078 -348746,-6704060 -348785,-6704034 -348803,-6704018 -348833,-6703993 -348850,-6703983 -348853,-6703979 -348869,-6703951 -348945,-6703874 -348986,-6703830 -349002,-6703814 -349012,-6703803 -349028,-6703782 -349077,-6703720 -349112,-6703671 -349140,-6703628 -349156,-6703597 -349200,-6703525 -349207,-6703514 -349239,-6703473 -349255,-6703447 -349261,-6703437 -349266,-6703425 -349269,-6703419 -349280,-6703398 -349284,-6703394 -349305,-6703372 -349359,-6703343 -349376,-6703324 -349385,-6703287 -349395,-6703279 -349407,-6703282 -349416,-6703295 -349424,-6703288 -349420,-6703259 -349414,-6703229 -349419,-6703216 -349432,-6703201 -349441,-6703188 -349437,-6703164 -349431,-6703144 -349429,-6703129 -349428,-6703125 -349436,-6703120 -349455,-6703109 -349456,-6703083 -349478,-6703068 -349482,-6703056 -349473,-6703040 -349468,-6703024 -349477,-6703012 -349492,-6703003 -349512,-6702978 -349516,-6702971 -349502,-6702944 -349502,-6702935 -349501,-6702930 -349506,-6702926 -349520,-6702914 -349520,-6702898 -349519,-6702896 -349510,-6702883 -349508,-6702869 -349514,-6702845 -349517,-6702834 -349519,-6702823 -349518,-6702805 -349514,-6702792 -349509,-6702778 -349505,-6702767 -349503,-6702751 -349501,-6702722 -349504,-6702697 -349514,-6702681 -349535,-6702658 -349547,-6702640 -349547,-6702625 -349538,-6702608 -349516,-6702605 -349500,-6702597 -349493,-6702581 -349491,-6702577 -349501,-6702552 -349519,-6702538 -349527,-6702523 -349517,-6702499 -349503,-6702494 -349493,-6702490 -349478,-6702471 -349474,-6702454 -349479,-6702443 -349485,-6702436 -349504,-6702417 -349508,-6702406 -349516,-6702400 -349526,-6702385 -349519,-6702335 -349522,-6702316 -349549,-6702304 -349565,-6702300 -349572,-6702288 -349569,-6702277 -349566,-6702267 -349553,-6702261 -349538,-6702279 -349520,-6702285 -349503,-6702281 -349494,-6702269 -349501,-6702217 -349510,-6702195 -349526,-6702187 -349603,-6702206 -349636,-6702203 -349645,-6702220 -349656,-6702226 -349685,-6702218 -349684,-6702204 -349678,-6702193 -349657,-6702181 -349647,-6702164 -349630,-6702163 -349613,-6702179 -349593,-6702181 -349579,-6702166 -349556,-6702168 -349527,-6702181 -349516,-6702176 -349516,-6702168 -349536,-6702157 -349539,-6702139 -349530,-6702125 -349527,-6702104 -349545,-6702093 -349549,-6702106 -349557,-6702107 -349566,-6702099 -349568,-6702083 -349561,-6702075 -349562,-6702054 -349579,-6702015 -349569,-6702019 -349564,-6702016 -349542,-6701994 -349540,-6701979 -349545,-6701973 -349548,-6701959 -349542,-6701945 -349536,-6701937 -349536,-6701927 -349552,-6701914 -349547,-6701883 -349542,-6701875 -349536,-6701866 -349534,-6701851 -349552,-6701829 -349559,-6701821 -349556,-6701814 -349554,-6701808 -349556,-6701792 -349564,-6701785 -349574,-6701774 -349585,-6701760 -349579,-6701737 -349585,-6701708 -349584,-6701705 -349577,-6701693 -349593,-6701674 -349585,-6701666 -349588,-6701653 -349603,-6701652 -349621,-6701651 -349658,-6701660 -349676,-6701656 -349688,-6701635 -349706,-6701624 -349725,-6701625 -349743,-6701642 -349778,-6701644 -349790,-6701655 -349793,-6701667 -349816,-6701688 -349830,-6701694 -349830,-6701677 -349820,-6701653 -349807,-6701639 -349780,-6701625 -349749,-6701615 -349697,-6701609 -349679,-6701612 -349668,-6701620 -349663,-6701639 -349655,-6701643 -349636,-6701637 -349614,-6701625 -349613,-6701625 -349601,-6701625 -349594,-6701619 -349595,-6701600 -349604,-6701595 -349623,-6701592 -349639,-6701595 -349643,-6701597 -349663,-6701588 -349663,-6701580 -349663,-6701574 -349677,-6701550 -349690,-6701541 -349693,-6701541 -349719,-6701539 -349706,-6701514 -349707,-6701483 -349720,-6701479 -349736,-6701482 -349744,-6701491 -349759,-6701508 -349766,-6701510 -349773,-6701497 -349769,-6701480 -349768,-6701476 -349778,-6701455 -349795,-6701453 -349821,-6701464 -349826,-6701473 -349829,-6701487 -349834,-6701519 -349835,-6701523 -349838,-6701536 -349857,-6701548 -349863,-6701538 -349860,-6701523 -349860,-6701522 -349873,-6701508 -349901,-6701507 -349908,-6701519 -349917,-6701533 -349911,-6701545 -349900,-6701554 -349900,-6701608 -349916,-6701642 -349918,-6701674 -349909,-6701687 -349889,-6701705 -349890,-6701736 -349891,-6701742 -349905,-6701745 -349910,-6701777 -349905,-6701801 -349890,-6701806 -349878,-6701822 -349879,-6701848 -349886,-6701858 -349888,-6701884 -349880,-6701913 -349874,-6701942 -349867,-6701957 -349843,-6701968 -349837,-6701977 -349814,-6701999 -349790,-6702056 -349780,-6702068 -349767,-6702073 -349760,-6702085 -349766,-6702097 -349786,-6702110 -349806,-6702114 -349842,-6702103 -349850,-6702092 -349868,-6702084 -349931,-6702027 -349929,-6701936 -349937,-6701908 -349961,-6701878 -349973,-6701855 -349975,-6701833 -349978,-6701822 -350016,-6701796 -350023,-6701795 -350033,-6701792 -350042,-6701809 -350054,-6701805 -350062,-6701790 -350076,-6701785 -350083,-6701785 -350109,-6701783 -350115,-6701763 -350123,-6701745 -350137,-6701742 -350146,-6701740 -350159,-6701749 -350159,-6701776 -350162,-6701780 -350184,-6701793 -350186,-6701776 -350167,-6701760 -350168,-6701723 -350140,-6701707 -350142,-6701694 -350170,-6701687 -350181,-6701634 -350193,-6701628 -350195,-6701617 -350217,-6701609 -350236,-6701586 -350244,-6701580 -350257,-6701580 -350284,-6701589 -350294,-6701577 -350274,-6701547 -350272,-6701535 -350286,-6701521 -350331,-6701543 -350351,-6701547 -350357,-6701533 -350377,-6701520 -350372,-6701505 -350341,-6701480 -350343,-6701472 -350356,-6701472 -350376,-6701482 -350397,-6701501 -350420,-6701515 -350438,-6701512 -350440,-6701500 -350431,-6701484 -350399,-6701434 -350383,-6701433 -350379,-6701432 -350378,-6701424 -350386,-6701411 -350392,-6701392 -350406,-6701374 -350420,-6701378 -350424,-6701381 -350437,-6701391 -350461,-6701397 -350475,-6701386 -350476,-6701370 -350489,-6701344 -350498,-6701340 -350520,-6701349 -350527,-6701383 -350552,-6701434 -350583,-6701458 -350585,-6701440 -350561,-6701416 -350534,-6701345 -350520,-6701331 -350504,-6701308 -350501,-6701298 -350510,-6701281 -350528,-6701256 -350533,-6701248 -350543,-6701228 -350549,-6701207 -350568,-6701191 -350588,-6701187 -350606,-6701175 -350619,-6701163 -350636,-6701150 -350667,-6701117 -350683,-6701095 -350702,-6701065 -350712,-6701051 -350727,-6701034 -350747,-6701006 -350758,-6700994 -350785,-6700966 -350801,-6700953 -350820,-6700937 -350851,-6700914 -350870,-6700899 -350883,-6700888 -350892,-6700877 -350899,-6700867 -350908,-6700847 -350911,-6700835 -350914,-6700818 -350918,-6700781 -350942,-6700777 -350967,-6700781 -350975,-6700764 -350980,-6700743 -351008,-6700742 -351019,-6700739 -351020,-6700718 -351028,-6700705 -351058,-6700708 -351066,-6700687 -351091,-6700687 -351127,-6700672 -351120,-6700652 -351142,-6700632 -351145,-6700606 -351173,-6700597 -351181,-6700576 -351176,-6700556 -351209,-6700558 -351207,-6700537 -351228,-6700528 -351234,-6700503 -351277,-6700487 -351338,-6700439 -351485,-6700284 -351612,-6700138 -351737,-6700001 -351809,-6700127 -351848,-6700184 -351885,-6700250 -351921,-6700304 -351927,-6700309 -351966,-6700380 -352055,-6700418 -352090,-6700436 -352148,-6700477 -352220,-6700522 -352229,-6700525 -352259,-6700535 -352312,-6700554 -352390,-6700587 -352390,-6700587 -352391,-6700587 -352433,-6700618 -352453,-6700635 -352475,-6700651 -352534,-6700713 -352566,-6700750 -352597,-6700785 -352616,-6700801 -352654,-6700827 -352675,-6700838 -352703,-6700850 -352740,-6700862 -352773,-6700870 -352812,-6700874 -352866,-6700873 -352903,-6700871 -352955,-6700863 -353022,-6700846 -353058,-6700830 -353092,-6700811 -353177,-6700751 -353208,-6700727 -353255,-6700701 -353298,-6700683 -353342,-6700668 -353387,-6700667 -353416,-6700662 -353444,-6700661 -353458,-6700662 -353478,-6700664 -353505,-6700670 -353532,-6700677 -353551,-6700684 -353584,-6700689 -353614,-6700704 -353652,-6700720 -353781,-6700789 -353837,-6700830 -353873,-6700865 -353905,-6700892 -353951,-6700902 -353999,-6700903 -354039,-6700898 -354101,-6700876 -354125,-6700869 -354158,-6700855 -354292,-6700799 -354356,-6700778 -354408,-6700773 -354442,-6700774 -354494,-6700776 -354568,-6700794 -354597,-6700814 -354639,-6700840 -354680,-6700866 -354737,-6700907 -354790,-6700955 -354852,-6701018 -354902,-6701069 -354980,-6701168 -355056,-6701249 -355074,-6701267 -355077,-6701280 -355086,-6701312 -355108,-6701337 -355150,-6701429 -355179,-6701501 -355210,-6701571 -355249,-6701656 -355290,-6701758 -355371,-6701905 -355414,-6701972 -355494,-6702082 -355540,-6702132 -355575,-6702170 -355584,-6702196 -355585,-6702229 -355585,-6702230 -355582,-6702270 -355573,-6702318 -355537,-6702398 -355527,-6702416 -355517,-6702436 -355496,-6702465 -355486,-6702489 -355480,-6702509 -355473,-6702542 -355473,-6702587 -355472,-6702606 -355477,-6702625 -355485,-6702645 -355490,-6702655 -355499,-6702667 -355509,-6702679 -355513,-6702684 -355524,-6702692 -355533,-6702697 -355574,-6702713 -355587,-6702717 -355661,-6702735 -355689,-6702738 -355718,-6702734 -355759,-6702732 -355818,-6702713 -355837,-6702696 -355876,-6702642 -355889,-6702604 -355891,-6702564 -355882,-6702521 -355849,-6702432 -355817,-6702392 -355806,-6702375 -355801,-6702321 -355802,-6702297 -355820,-6702276 -355837,-6702268 -355872,-6702259 -355889,-6702260 -355905,-6702268 -355921,-6702278 -355974,-6702305 -356040,-6702354 -356139,-6702409 -356190,-6702438 -356192,-6702440 -356201,-6702450 -356210,-6702461 -356240,-6702549 -356253,-6702597 -356266,-6702633 -356280,-6702658 -356297,-6702687 -356338,-6702711 -356366,-6702718 -356436,-6702733 -356472,-6702739 -356514,-6702754 -356546,-6702785 -356556,-6702799 -356558,-6702807 -356562,-6702819 -356561,-6702865 -356561,-6702874 -356559,-6702883 -356545,-6702896 -356511,-6702965 -356506,-6703000 -356500,-6703087 -356511,-6703173 -356525,-6703232 -356525,-6703234 -356531,-6703258 -356541,-6703293 -356589,-6703364 -356614,-6703438 -356626,-6703499 -356634,-6703545 -356637,-6703614 -356650,-6703637 -356668,-6703662 -356689,-6703717 -356709,-6703765 -356734,-6703814 -356752,-6703843 -356803,-6703917 -356846,-6703972 -356890,-6704034 -356945,-6704096 -356986,-6704147 -356994,-6704157 -357008,-6704174 -357087,-6704263 -357164,-6704361 -357235,-6704449 -357290,-6704519 -357335,-6704577 -357356,-6704602 -357401,-6704652 -357478,-6704740 -357527,-6704802 -357592,-6704873 -357641,-6704930 -357688,-6704993 -357757,-6705078 -357882,-6705236 -358141,-6705550 -358252,-6705691 -358278,-6705700 -358327,-6705724 -358409,-6705748 -358418,-6705723 -358455,-6705735 -358572,-6705747 -358682,-6705757 -358738,-6705750 -358825,-6705739 -358897,-6705717 -358950,-6705706 -358954,-6705705 -358963,-6705722 -358981,-6705712 -358982,-6705710 -358986,-6705692 -358988,-6705689 -359034,-6705676 -359195,-6705611 -359254,-6705590 -359374,-6705537 -359437,-6705512 -359501,-6705479 -359524,-6705466 -359572,-6705437 -359593,-6705359 -359610,-6705337 -359622,-6705327 -359633,-6705324 -359655,-6705325 -359657,-6705326 -359662,-6705332 -359664,-6705333 -359698,-6705339 -359700,-6705339 -359708,-6705333 -359737,-6705330 -359760,-6705320 -359849,-6705290 -359921,-6705283 -359988,-6705281 -360021,-6705281 -360054,-6705274 -360073,-6705269 -360104,-6705259 -360224,-6705200 -360267,-6705177 -360366,-6705122 -360385,-6705112 -360408,-6705102 -360431,-6705092 -360487,-6705073 -360530,-6705054 -360597,-6705026 -360702,-6704978 -360720,-6704972 -360725,-6704971 -360767,-6704972 -360773,-6704970 -360830,-6704929 -360909,-6704871 -360936,-6704847 -360955,-6704825 -360987,-6704761 -361023,-6704675 -361042,-6704613 -361040,-6704589 -361038,-6704520 -361047,-6704472 -361052,-6704448 -361084,-6704345 -361092,-6704263 -361110,-6704221 -361113,-6704211 -361117,-6704201 -361121,-6704191 -361125,-6704182 -361130,-6704173 -361142,-6704155 -361163,-6704130 -361169,-6704123 -361176,-6704114 -361184,-6704105 -361192,-6704096 -361200,-6704088 -361203,-6704086 -361212,-6704079 -361221,-6704072 -361224,-6704069 -361231,-6704065 -361267,-6704041 -361356,-6704012 -361386,-6704002 -361408,-6703995 -361456,-6703962 -361514,-6703922 -361539,-6703905 -361546,-6703907 -361570,-6703916 -361572,-6703919 -361577,-6703926 -361591,-6703922 -361587,-6703913 -361584,-6703907 -361584,-6703906 -361571,-6703883 -361630,-6703872 -361631,-6703871 -361650,-6703866 -361670,-6703861 -361689,-6703857 -361709,-6703854 -361710,-6703854 -361729,-6703852 -361747,-6703851 -361766,-6703850 -361785,-6703850 -361800,-6703851 -361828,-6703854 -361857,-6703858 -361865,-6703859 -361893,-6703864 -361922,-6703870 -361987,-6703893 -362015,-6703874 -362015,-6703873 -362022,-6703868 -362029,-6703864 -362036,-6703860 -362043,-6703856 -362051,-6703853 -362051,-6703853 -362064,-6703850 -362077,-6703847 -362078,-6703847 -362082,-6703846 -362087,-6703845 -362091,-6703844 -362096,-6703843 -362100,-6703843 -362101,-6703843 -362106,-6703844 -362110,-6703845 -362115,-6703846 -362119,-6703848 -362168,-6703859 -362187,-6703863 -362208,-6703863 -362303,-6703889 -362358,-6703913 -362456,-6703946 -362510,-6703970 -362600,-6704009 -362645,-6704022 -362677,-6704039 -362680,-6704041 -362701,-6704045 -362732,-6704052 -362747,-6704054 -362775,-6704059 -362803,-6704062 -362832,-6704064 -362888,-6704065 -362952,-6704063 -362987,-6704061 -363037,-6704058 -363087,-6704054 -363106,-6704051 -363156,-6704044 -363205,-6704036 -363254,-6704027 -363405,-6704005 -363649,-6703972 -363714,-6703961 -363730,-6703962 -363758,-6703963 -363787,-6703966 -363804,-6703968 -363822,-6703971 -363836,-6703974 -363839,-6703974 -363842,-6703975 -363859,-6703979 -363876,-6703984 -363917,-6704003 -363969,-6704017 -363997,-6704015 -364015,-6704015 -364061,-6703983 -364062,-6703983 -364087,-6703993 -364108,-6703991 -364132,-6703972 -364175,-6704009 -364191,-6704037 -364205,-6704076 -364219,-6704120 -364228,-6704169 -364246,-6704195 -364274,-6704232 -364289,-6704254 -364306,-6704285 -364323,-6704296 -364351,-6704328 -364364,-6704357 -364375,-6704380 -364408,-6704416 -364449,-6704461 -364472,-6704488 -364510,-6704548 -364550,-6704606 -364578,-6704648 -364630,-6704713 -364670,-6704760 -364697,-6704793 -364748,-6704856 -364790,-6704912 -364843,-6704988 -364903,-6705004 -364920,-6705031 -364941,-6705072 -365000,-6705191 -365029,-6705274 -365060,-6705376 -365083,-6705436 -365117,-6705513 -365128,-6705538 -365144,-6705541 -365161,-6705667 -365175,-6705780 -365226,-6705927 -365253,-6706006 -365270,-6706067 -365228,-6706120 -365234,-6706144 -365248,-6706198 -365279,-6706197 -365300,-6706213 -365325,-6706300 -365339,-6706352 -365338,-6706372 -365334,-6706399 -365334,-6706406 -365334,-6706413 -365334,-6706419 -365333,-6706425 -365334,-6706432 -365335,-6706439 -365335,-6706442 -365337,-6706457 -365339,-6706472 -365342,-6706487 -365346,-6706502 -365349,-6706512 -365378,-6706668 -365394,-6706727 -365370,-6706728 -365381,-6706768 -365410,-6706785 -365416,-6706837 -365420,-6706870 -365440,-6706927 -365459,-6706982 -365477,-6707025 -365500,-6707067 -365531,-6707132 -365593,-6707247 -365675,-6707410 -365723,-6707501 -365759,-6707571 -365807,-6707655 -365839,-6707711 -365879,-6707786 -365928,-6707867 -365958,-6707929 -365984,-6707978 -366108,-6708150 -366154,-6708224 -366233,-6708331 -366265,-6708380 -366272,-6708388 -366261,-6708401 -366369,-6708520 -366459,-6708612 -366530,-6708678 -366573,-6708717 -366594,-6708736 -366640,-6708780 -366616,-6708805 -366667,-6708871 -366702,-6708919 -366678,-6708924 -366697,-6708954 -366722,-6708952 -366759,-6709023 -366769,-6709051 -366801,-6709169 -366815,-6709224 -366825,-6709276 -366839,-6709321 -366856,-6709366 -366896,-6709354 -366891,-6709449 -366891,-6709477 -366892,-6709518 -366897,-6709569 -366909,-6709641 -366920,-6709689 -366926,-6709748 -366928,-6709779 -366938,-6709824 -366954,-6709870 -366966,-6709900 -366999,-6709941 -367018,-6709971 -367044,-6710020 -367076,-6710076 -367109,-6710126 -367119,-6710136 -367124,-6710149 -367128,-6710154 -367174,-6710203 -367215,-6710227 -367246,-6710263 -367276,-6710283 -367337,-6710322 -367448,-6710346 -367568,-6710374 -367560,-6710409 -367630,-6710425 -367659,-6710440 -367740,-6710492 -367743,-6710520 -367779,-6710538 -367781,-6710513 -367840,-6710551 -367907,-6710598 -367978,-6710628 -368008,-6710652 -368058,-6710695 -368098,-6710736 -368147,-6710787 -368191,-6710839 -368234,-6710897 -368259,-6710924 -368303,-6710972 -368356,-6711034 -368400,-6711077 -368421,-6711090 -368466,-6711100 -368472,-6711110 -368556,-6711145 -368642,-6711495 -368649,-6711485 -368657,-6711477 -368663,-6711472 -368848,-6711413 -368917,-6711394 -369006,-6711366 -369132,-6711348 -369167,-6711345 -369252,-6711342 -369354,-6711332 -369443,-6711341 -369451,-6711342 -369533,-6711351 -369595,-6711361 -369676,-6711383 -369769,-6711410 -369828,-6711423 -369917,-6711454 -369988,-6711478 -370071,-6711503 -370148,-6711525 -370217,-6711550 -370304,-6711576 -370379,-6711605 -370463,-6711628 -370526,-6711646 -370553,-6711649 -370601,-6711668 -370636,-6711685 -370670,-6711692 -370726,-6711703 -370794,-6711708 -370905,-6711714 -370993,-6711722 -371010,-6711724 -371071,-6711729 -371073,-6711729 -371075,-6711729 -371097,-6711729 -371131,-6711730 -371200,-6711730 -371267,-6711724 -371274,-6711725 -371332,-6711726 -371346,-6711736 -371365,-6711766 -371377,-6711775 -371389,-6711778 -371397,-6711782 -371406,-6711785 -371424,-6711790 -371421,-6711799 -371427,-6711810 -371432,-6711819 -371433,-6711824 -371438,-6711842 -371440,-6711849 -371448,-6711851 -371455,-6711857 -371452,-6711871 -371465,-6711897 -371474,-6711908 -371473,-6711921 -371476,-6711926 -371483,-6711933 -371494,-6711937 -371502,-6711939 -371501,-6711958 -371500,-6711963 -371503,-6711965 -371508,-6711970 -371518,-6711978 -371523,-6711989 -371534,-6712014 -371543,-6712023 -371547,-6712029 -371570,-6712029 -371575,-6712037 -371575,-6712046 -371570,-6712049 -371566,-6712056 -371563,-6712069 -371562,-6712078 -371562,-6712084 -371562,-6712096 -371565,-6712108 -371575,-6712124 -371587,-6712137 -371595,-6712143 -371595,-6712150 -371588,-6712157 -371579,-6712165 -371579,-6712174 -371583,-6712189 -371596,-6712187 -371625,-6712189 -371632,-6712194 -371649,-6712209 -371672,-6712217 -371678,-6712225 -371683,-6712240 -371691,-6712255 -371712,-6712295 -371707,-6712304 -371701,-6712323 -371703,-6712334 -371706,-6712347 -371706,-6712356 -371700,-6712366 -371689,-6712375 -371691,-6712391 -371701,-6712399 -371716,-6712405 -371713,-6712414 -371703,-6712451 -371685,-6712515 -371684,-6712539 -371681,-6712570 -371683,-6712630 -371697,-6712695 -371706,-6712733 -371692,-6712736 -371699,-6712778 -371698,-6712838 -371698,-6712845 -371653,-6712847 -371623,-6712852 -371614,-6712855 -371614,-6712864 -371590,-6712874 -371556,-6712883 -371534,-6712890 -371524,-6712890 -371503,-6712906 -371473,-6712925 -371468,-6712924 -371441,-6712936 -371436,-6712939 -371434,-6712941 -371425,-6712955 -371427,-6712996 -371432,-6713021 -371435,-6713058 -371448,-6713108 -371437,-6713136 -371413,-6713181 -371405,-6713195 -371366,-6713243 -371365,-6713246 -371371,-6713268 -371386,-6713288 -371423,-6713360 -371457,-6713419 -371470,-6713446 -371490,-6713511 -371496,-6713546 -371495,-6713549 -371493,-6713551 -371487,-6713555 -371471,-6713561 -371460,-6713565 -371460,-6713582 -371402,-6713577 -371382,-6713574 -371310,-6713563 -371300,-6713575 -371294,-6713582 -371277,-6713594 -371289,-6713624 -371313,-6713694 -371337,-6713772 -371347,-6713811 -371369,-6713886 -371379,-6713923 -371395,-6713967 -371408,-6714011 -371409,-6714014 -371417,-6714033 -371440,-6714033 -371460,-6714073 -371488,-6714070 -371497,-6714068 -371506,-6714112 -371515,-6714126 -371534,-6714152 -371540,-6714176 -371545,-6714189 -371567,-6714260 -371591,-6714266 -371624,-6714275 -371661,-6714264 -371717,-6714253 -371748,-6714248 -371750,-6714250 -371738,-6714339 -371716,-6714496 -371707,-6714582 -371706,-6714607 -371708,-6714637 -371725,-6714681 -371741,-6714761 -371755,-6714810 -371778,-6714891 -371798,-6714950 -371809,-6714967 -371841,-6714984 -371899,-6715015 -371906,-6715020 -371907,-6715031 -371906,-6715047 -371908,-6715072 -371918,-6715096 -371945,-6715136 -371970,-6715176 -371997,-6715215 -372020,-6715242 -372049,-6715276 -372069,-6715296 -372120,-6715324 -372156,-6715361 -372165,-6715375 -372170,-6715384 -372176,-6715396 -372184,-6715428 -372201,-6715487 -372213,-6715532 -372227,-6715568 -372226,-6715593 -372225,-6715626 -372218,-6715669 -372210,-6715709 -372203,-6715730 -372200,-6715776 -372179,-6715830 -372178,-6715845 -372178,-6715865 -372180,-6715941 -372184,-6715977 -372183,-6715993 -372143,-6716064 -372131,-6716091 -372116,-6716153 -372095,-6716218 -372068,-6716277 -372039,-6716333 -372023,-6716373 -372002,-6716429 -371992,-6716444 -371980,-6716462 -371984,-6716505 -371968,-6716490 -371958,-6716482 -371950,-6716484 -371944,-6716490 -371948,-6716502 -371946,-6716524 -371939,-6716533 -371928,-6716539 -371923,-6716538 -371904,-6716528 -371891,-6716522 -371878,-6716524 -371866,-6716530 -371863,-6716545 -371866,-6716557 -371873,-6716566 -371871,-6716573 -371846,-6716587 -371841,-6716587 -371831,-6716581 -371809,-6716565 -371792,-6716556 -371788,-6716555 -371781,-6716554 -371773,-6716558 -371773,-6716566 -371773,-6716579 -371767,-6716586 -371760,-6716588 -371750,-6716585 -371732,-6716582 -371708,-6716585 -371636,-6716602 -371591,-6716614 -371579,-6716614 -371570,-6716614 -371567,-6716618 -371555,-6716630 -371536,-6716635 -371529,-6716639 -371523,-6716647 -371510,-6716662 -371500,-6716691 -371496,-6716712 -371491,-6716725 -371482,-6716734 -371449,-6716750 -371430,-6716761 -371427,-6716765 -371425,-6716772 -371431,-6716782 -371438,-6716788 -371438,-6716796 -371438,-6716800 -371437,-6716809 -371430,-6716813 -371424,-6716813 -371416,-6716808 -371413,-6716798 -371409,-6716787 -371403,-6716781 -371393,-6716785 -371379,-6716791 -371366,-6716805 -371360,-6716820 -371359,-6716838 -371353,-6716848 -371338,-6716856 -371325,-6716864 -371307,-6716872 -371295,-6716863 -371272,-6716847 -371264,-6716852 -371260,-6716848 -371262,-6716834 -371243,-6716824 -371214,-6716819 -371210,-6716819 -371199,-6716825 -371177,-6716824 -371153,-6716824 -371148,-6716820 -371133,-6716803 -371131,-6716789 -371129,-6716787 -371114,-6716782 -371093,-6716758 -371092,-6716751 -371082,-6716751 -371067,-6716736 -371058,-6716721 -371045,-6716710 -371044,-6716702 -371033,-6716694 -371024,-6716700 -371015,-6716705 -371012,-6716703 -371012,-6716700 -371013,-6716690 -371008,-6716688 -371004,-6716685 -371008,-6716674 -371007,-6716673 -370998,-6716667 -370996,-6716666 -371000,-6716644 -371007,-6716630 -370977,-6716629 -370967,-6716625 -370964,-6716626 -370934,-6716626 -370901,-6716634 -370869,-6716635 -370864,-6716636 -370857,-6716636 -370856,-6716642 -370856,-6716643 -370855,-6716648 -370859,-6716660 -370855,-6716665 -370826,-6716685 -370797,-6716708 -370784,-6716670 -370770,-6716611 -370762,-6716583 -370755,-6716581 -370744,-6716578 -370732,-6716576 -370729,-6716577 -370725,-6716579 -370721,-6716586 -370719,-6716600 -370714,-6716606 -370702,-6716606 -370701,-6716592 -370694,-6716582 -370687,-6716575 -370661,-6716572 -370646,-6716564 -370631,-6716563 -370621,-6716570 -370612,-6716575 -370599,-6716574 -370586,-6716572 -370583,-6716564 -370572,-6716554 -370558,-6716548 -370541,-6716539 -370530,-6716546 -370523,-6716551 -370520,-6716552 -370495,-6716537 -370487,-6716540 -370484,-6716543 -370479,-6716550 -370468,-6716547 -370461,-6716543 -370455,-6716539 -370444,-6716541 -370433,-6716543 -370411,-6716545 -370392,-6716571 -370373,-6716574 -370355,-6716580 -370345,-6716591 -370320,-6716587 -370311,-6716589 -370294,-6716596 -370287,-6716600 -370269,-6716619 -370259,-6716625 -370249,-6716623 -370229,-6716617 -370223,-6716612 -370214,-6716600 -370203,-6716600 -370199,-6716602 -370165,-6716637 -370149,-6716647 -370142,-6716653 -370097,-6716630 -370065,-6716619 -370062,-6716628 -370053,-6716645 -370038,-6716664 -369994,-6716708 -369986,-6716739 -369971,-6716785 -369956,-6716830 -369925,-6716929 -369921,-6716947 -369924,-6717020 -369924,-6717079 -369935,-6717142 -369906,-6717149 -369877,-6717157 -369855,-6717160 -369830,-6717161 -369809,-6717159 -369802,-6717161 -369796,-6717174 -369777,-6717210 -369770,-6717221 -369769,-6717242 -369776,-6717256 -369811,-6717285 -369822,-6717297 -369831,-6717307 -369835,-6717336 -369827,-6717366 -369821,-6717382 -369816,-6717402 -369783,-6717448 -369767,-6717455 -369765,-6717456 -369754,-6717458 -369744,-6717459 -369722,-6717453 -369708,-6717449 -369678,-6717463 -369673,-6717465 -369661,-6717476 -369662,-6717484 -369670,-6717511 -369680,-6717526 -369690,-6717541 -369699,-6717542 -369721,-6717543 -369758,-6717562 -369769,-6717579 -369865,-6717654 -369894,-6717674 -369898,-6717680 -369886,-6717691 -369839,-6717756 -369812,-6717776 -369788,-6717796 -369781,-6717808 -369766,-6717827 -369740,-6717869 -369732,-6717880 -369722,-6717881 -369717,-6717881 -369684,-6717876 -369663,-6717871 -369613,-6717845 -369533,-6717851 -369511,-6717849 -369503,-6717853 -369500,-6717855 -369487,-6717862 -369479,-6717862 -369464,-6717863 -369465,-6717868 -369467,-6717875 -369474,-6717904 -369489,-6717938 -369473,-6717938 -369367,-6717935 -369283,-6717934 -369063,-6717953 -368989,-6717964 -368973,-6717953 -368969,-6717935 -368954,-6717917 -368943,-6717925 -368925,-6717937 -368891,-6717955 -368859,-6717969 -368800,-6717994 -368769,-6718019 -368765,-6718023 -368746,-6718049 -368717,-6718075 -368692,-6718097 -368652,-6718105 -368603,-6718118 -368563,-6718135 -368525,-6718147 -368479,-6718168 -368483,-6718175 -368507,-6718216 -368535,-6718269 -368578,-6718338 -368603,-6718379 -368627,-6718412 -368656,-6718464 -368662,-6718478 -368657,-6718485 -368637,-6718504 -368589,-6718556 -368584,-6718566 -368579,-6718579 -368602,-6718626 -368600,-6718638 -368591,-6718636 -368582,-6718637 -368573,-6718641 -368558,-6718654 -368552,-6718660 -368542,-6718675 -368534,-6718693 -368527,-6718711 -368507,-6718809 -368503,-6718845 -368508,-6718872 -368504,-6718888 -368499,-6718923 -368504,-6718937 -368510,-6718964 -368507,-6718973 -368498,-6718966 -368483,-6718982 -368472,-6718973 -368469,-6718955 -368465,-6718954 -368455,-6718953 -368447,-6718958 -368445,-6718963 -368424,-6718961 -368408,-6718958 -368400,-6718941 -368394,-6718938 -368387,-6718933 -368392,-6718919 -368374,-6718913 -368368,-6718920 -368364,-6718922 -368332,-6718921 -368311,-6718918 -368311,-6718907 -368311,-6718902 -368299,-6718903 -368289,-6718903 -368269,-6718899 -368258,-6718900 -368249,-6718904 -368232,-6718895 -368237,-6718889 -368241,-6718884 -368225,-6718886 -368214,-6718888 -368208,-6718882 -368205,-6718878 -368202,-6718880 -368186,-6718890 -368173,-6718890 -368167,-6718882 -368162,-6718880 -368154,-6718876 -368137,-6718869 -368131,-6718872 -368113,-6718866 -368107,-6718844 -368093,-6718838 -368079,-6718832 -368064,-6718828 -368047,-6718824 -368023,-6718818 -368007,-6718815 -367991,-6718800 -367976,-6718787 -367967,-6718791 -367948,-6718792 -367923,-6718787 -367886,-6718791 -367870,-6718786 -367864,-6718781 -367849,-6718783 -367818,-6718775 -367791,-6718767 -367747,-6718773 -367724,-6718780 -367718,-6718776 -367714,-6718771 -367700,-6718777 -367675,-6718796 -367633,-6718800 -367604,-6718805 -367575,-6718816 -367534,-6718836 -367500,-6718853 -367479,-6718856 -367453,-6718873 -367426,-6718887 -367421,-6718888 -367416,-6718882 -367405,-6718883 -367401,-6718887 -367374,-6718895 -367364,-6718896 -367355,-6718905 -367346,-6718910 -367340,-6718913 -367335,-6718916 -367329,-6718910 -367315,-6718913 -367296,-6718904 -367282,-6718880 -367269,-6718866 -367247,-6718836 -367219,-6718815 -367191,-6718793 -367168,-6718781 -367152,-6718770 -367136,-6718772 -367133,-6718774 -367132,-6718780 -367130,-6718783 -367111,-6718795 -367100,-6718803 -367057,-6718836 -367045,-6718820 -367034,-6718818 -367024,-6718822 -366988,-6718836 -366825,-6718905 -366520,-6719028 -366484,-6719049 -366471,-6719054 -366321,-6719080 -366321,-6719086 -366319,-6719115 -366316,-6719116 -366284,-6719116 -366256,-6719106 -366128,-6719109 -366073,-6719107 -366043,-6719096 -365985,-6719116 -365945,-6719130 -365943,-6719130 -365790,-6719105 -365744,-6719101 -365673,-6719099 -365617,-6719108 -365587,-6719115 -365585,-6719118 -365600,-6719186 -365600,-6719192 -365586,-6719317 -365583,-6719354 -365575,-6719383 -365573,-6719386 -365552,-6719387 -365534,-6719378 -365529,-6719375 -365439,-6719357 -365274,-6719317 -365169,-6719319 -365112,-6719325 -365095,-6719351 -365090,-6719380 -365059,-6719417 -365053,-6719418 -365010,-6719419 -364980,-6719424 -364977,-6719426 -364973,-6719449 -364962,-6719457 -364949,-6719463 -364909,-6719481 -364896,-6719485 -364882,-6719487 -364868,-6719497 -364864,-6719496 -364845,-6719475 -364834,-6719457 -364833,-6719452 -364830,-6719431 -364832,-6719407 -364835,-6719383 -364840,-6719363 -364842,-6719356 -364789,-6719360 -364724,-6719365 -364669,-6719379 -364608,-6719386 -364580,-6719384 -364506,-6719377 -364504,-6719375 -364504,-6719326 -364503,-6719293 -364501,-6719258 -364497,-6719223 -364492,-6719191 -364485,-6719158 -364478,-6719125 -364469,-6719094 -364458,-6719061 -364446,-6719027 -364433,-6718996 -364416,-6718967 -364393,-6718928 -364367,-6718887 -364457,-6718731 -364474,-6718695 -364489,-6718666 -364501,-6718615 -364507,-6718564 -364491,-6718470 -364466,-6718415 -364419,-6718364 -364385,-6718334 -364325,-6718288 -364011,-6718019 -363970,-6717973 -363934,-6717929 -363890,-6717878 -363843,-6717816 -363729,-6717651 -363702,-6717613 -363674,-6717577 -363649,-6717550 -363625,-6717529 -363596,-6717501 -363535,-6717467 -363481,-6717429 -363437,-6717393 -363370,-6717336 -363302,-6717278 -363267,-6717247 -363247,-6717228 -363227,-6717207 -363197,-6717171 -363154,-6717113 -363121,-6717063 -363107,-6717039 -363093,-6717015 -363076,-6716978 -362975,-6717045 -362850,-6717126 -362743,-6717189 -362608,-6717274 -362454,-6717365 -362313,-6717446 -362203,-6717512 -361932,-6717673 -361878,-6717701 -361876,-6717705 -361870,-6717756 -361868,-6717759 -361852,-6717778 -361808,-6717847 -361773,-6717904 -361716,-6717992 -361662,-6718081 -361641,-6718111 -361582,-6718208 -361503,-6718333 -361448,-6718420 -361426,-6718452 -361405,-6718487 -361408,-6718542 -361390,-6718586 -361370,-6718655 -361341,-6718694 -361336,-6718729 -361315,-6718792 -361311,-6718843 -361310,-6718895 -361309,-6718898 -361292,-6718925 -361288,-6718929 -361250,-6718944 -361194,-6718971 -361176,-6718981 -361158,-6719008 -361135,-6719014 -361105,-6719039 -361067,-6719066 -361049,-6719088 -361038,-6719104 -361027,-6719121 -360998,-6719193 -360966,-6719231 -360945,-6719266 -360903,-6719307 -360882,-6719330 -360870,-6719332 -360848,-6719309 -360834,-6719328 -360820,-6719345 -360811,-6719363 -360800,-6719369 -360782,-6719384 -360781,-6719386 -360777,-6719405 -360775,-6719408 -360746,-6719423 -360722,-6719438 -360684,-6719468 -360683,-6719468 -360654,-6719472 -360652,-6719473 -360642,-6719486 -360640,-6719487 -360619,-6719493 -360592,-6719505 -360590,-6719508 -360584,-6719550 -360575,-6719583 -360579,-6719605 -360578,-6719607 -360540,-6719610 -360490,-6719617 -360418,-6719631 -360407,-6719632 -360404,-6719600 -360374,-6719606 -360349,-6719618 -360326,-6719627 -360287,-6719647 -360278,-6719655 -360237,-6719658 -360189,-6719665 -360167,-6719672 -360153,-6719685 -360120,-6719633 -360107,-6719634 -360042,-6719669 -360002,-6719685 -359979,-6719662 -359972,-6719616 -359962,-6719593 -359938,-6719552 -359917,-6719540 -359889,-6719530 -359788,-6719465 -359772,-6719440 -359750,-6719412 -359717,-6719376 -359657,-6719305 -359624,-6719268 -359611,-6719269 -359547,-6719320 -359533,-6719340 -359521,-6719349 -359405,-6719246 -359367,-6719187 -359327,-6719187 -359325,-6719139 -359314,-6719119 -359299,-6719130 -359296,-6719132 -359285,-6719140 -359263,-6719153 -359260,-6719157 -359247,-6719179 -359230,-6719199 -359226,-6719203 -359153,-6719242 -359143,-6719242 -359076,-6719283 -359053,-6719290 -359007,-6719291 -358987,-6719298 -358983,-6719303 -358965,-6719310 -358906,-6719340 -358898,-6719340 -358888,-6719329 -358866,-6719333 -358860,-6719342 -358845,-6719334 -358833,-6719341 -358827,-6719336 -358800,-6719334 -358780,-6719347 -358756,-6719364 -358731,-6719377 -358712,-6719372 -358700,-6719381 -358654,-6719383 -358619,-6719396 -358603,-6719417 -358548,-6719436 -358520,-6719450 -358505,-6719452 -358507,-6719465 -358498,-6719478 -358489,-6719465 -358474,-6719467 -358462,-6719480 -358453,-6719481 -358446,-6719488 -358436,-6719488 -358416,-6719500 -358365,-6719548 -358341,-6719557 -358332,-6719581 -358324,-6719591 -358300,-6719590 -358275,-6719606 -358244,-6719620 -358149,-6719651 -358112,-6719660 -358107,-6719653 -358064,-6719663 -358053,-6719675 -358034,-6719684 -358008,-6719682 -357992,-6719693 -357993,-6719708 -357977,-6719717 -357956,-6719733 -357934,-6719738 -357913,-6719738 -357907,-6719701 -357897,-6719679 -357895,-6719643 -357899,-6719615 -357907,-6719596 -357936,-6719596 -357947,-6719554 -357951,-6719531 -357998,-6719459 -358015,-6719435 -358003,-6719421 -357989,-6719406 -357908,-6719407 -357863,-6719424 -357865,-6719440 -357811,-6719448 -357749,-6719461 -357728,-6719475 -357724,-6719474 -357706,-6719456 -357640,-6719446 -357639,-6719448 -357637,-6719474 -357635,-6719478 -357619,-6719487 -357563,-6719517 -357492,-6719524 -357462,-6719534 -357422,-6719540 -357404,-6719549 -357383,-6719572 -357381,-6719573 -357344,-6719581 -357338,-6719586 -357289,-6719603 -357132,-6719637 -357050,-6719653 -357049,-6719656 -357064,-6719692 -357062,-6719694 -356990,-6719710 -356959,-6719712 -356926,-6719721 -356896,-6719730 -356863,-6719744 -356784,-6719768 -356757,-6719781 -356685,-6719800 -356593,-6719830 -356572,-6719849 -356445,-6719937 -356444,-6719940 -356491,-6720019 -356509,-6720076 -356516,-6720089 -356524,-6720116 -356481,-6720148 -356437,-6720201 -356378,-6720248 -356341,-6720287 -356316,-6720305 -356269,-6720325 -356246,-6720336 -356227,-6720350 -356226,-6720352 -356217,-6720369 -356211,-6720373 -356194,-6720345 -356178,-6720317 -356166,-6720285 -356131,-6720287 -356087,-6720290 -356064,-6720297 -356032,-6720310 -355980,-6720330 -355923,-6720344 -355880,-6720355 -355839,-6720360 -355802,-6720342 -355747,-6720365 -355713,-6720384 -355695,-6720385 -355663,-6720368 -355550,-6720410 -355447,-6720435 -355420,-6720447 -355383,-6720461 -355307,-6720491 -355295,-6720500 -355288,-6720507 -355268,-6720534 -355245,-6720538 -355240,-6720539 -355214,-6720537 -355189,-6720538 -355148,-6720532 -355121,-6720536 -355055,-6720526 -355016,-6720508 -355001,-6720492 -354962,-6720477 -354921,-6720433 -354921,-6720419 -354906,-6720411 -354900,-6720371 -354891,-6720364 -354856,-6720375 -354834,-6720387 -354806,-6720393 -354772,-6720388 -354717,-6720372 -354688,-6720371 -354651,-6720376 -354627,-6720386 -354579,-6720400 -354528,-6720416 -354510,-6720413 -354488,-6720399 -354480,-6720392 -354450,-6720363 -354446,-6720362 -354335,-6720387 -354274,-6720399 -354185,-6720424 -354127,-6720437 -354109,-6720446 -354088,-6720459 -354038,-6720474 -353965,-6720493 -353981,-6720508 -353982,-6720529 -353975,-6720538 -353948,-6720541 -353898,-6720557 -353885,-6720569 -353754,-6720622 -353714,-6720632 -353697,-6720622 -353621,-6720634 -353495,-6720639 -353309,-6720675 -353198,-6720682 -353135,-6720692 -353066,-6720704 -353011,-6720711 -352938,-6720727 -352853,-6720745 -352800,-6720768 -352731,-6720790 -352654,-6720818 -352605,-6720832 -352569,-6720829 -352509,-6720843 -352398,-6720881 -352361,-6720900 -352305,-6720926 -352290,-6720928 -352279,-6720937 -352239,-6720982 -352216,-6721015 -352185,-6721045" stroke="#003087" stroke-width="51" /></svg>