<?xml version="1.0" standalone="no"?>
<!DOCTYPE svg PUBLIC "-//W3C//DTD SVG 1.1//EN"
"http://www.w3.org/Graphics/SVG/1.1/DTD/svg11.dtd">
<svg height="115" version="1.1" viewBox="-406205 -6712969 54468 24402" width="220" xmlns="http://www.w3.org/2000/svg"><polygon fill="#003087" points=" -385127,-6712614 -384992,-6712547 -384858,-6712478 -384781,-6712442 -384608,-6712371 -384601,-6712368 -384549,-6712347 -384443,-6712295 -384394,-6712269 -384362,-6712257 -384330,-6712244 -384281,-6712227 -384188,-6712199 -384086,-6712163 -384051,-6712151 -384017,-6712142 -383946,-6712123 -383860,-6712102 -383735,-6712072 -383643,-6712055 -383608,-6712050 -383537,-6712042 -383503,-6712041 -383471,-6712040 -383414,-6712044 -383400,-6712046 -383381,-6712048 -383320,-6712042 -383298,-6712033 -383295,-6712030 -383292,-6712014 -383278,-6711941 -383264,-6711900 -383248,-6711858 -383240,-6711820 -383231,-6711801 -383226,-6711794 -383211,-6711779 -383198,-6711769 -383095,-6711696 -383082,-6711684 -383074,-6711681 -382943,-6711580 -382887,-6711541 -382843,-6711517 -382822,-6711506 -382802,-6711496 -382766,-6711484 -382740,-6711475 -382673,-6711457 -382672,-6711420 -382673,-6711414 -382676,-6711398 -382676,-6711398 -382631,-6711398 -382542,-6711402 -382478,-6711411 -382360,-6711437 -382324,-6711447 -382193,-6711483 -382190,-6711481 -382186,-6711470 -382130,-6711344 -382124,-6711340 -382120,-6711339 -382118,-6711339 -382093,-6711362 -382058,-6711382 -382025,-6711398 -381991,-6711429 -381977,-6711440 -381934,-6711471 -381844,-6711521 -381758,-6711579 -381755,-6711579 -381744,-6711558 -381728,-6711509 -381713,-6711479 -381697,-6711460 -381676,-6711450 -381658,-6711432 -381644,-6711415 -381635,-6711397 -381626,-6711380 -381612,-6711341 -381604,-6711322 -381604,-6711321 -381606,-6711316 -381605,-6711315 -381591,-6711289 -381570,-6711213 -381568,-6711211 -381529,-6711239 -381489,-6711275 -381458,-6711299 -381428,-6711328 -381405,-6711347 -381379,-6711372 -381352,-6711390 -381311,-6711418 -381310,-6711422 -381310,-6711447 -381309,-6711449 -381290,-6711467 -381271,-6711475 -381225,-6711489 -381148,-6711507 -381122,-6711519 -381078,-6711530 -381074,-6711529 -381066,-6711522 -381065,-6711520 -381063,-6711496 -381038,-6711420 -380974,-6711335 -380974,-6711333 -380976,-6711312 -380974,-6711308 -380927,-6711275 -380918,-6711263 -380888,-6711233 -380888,-6711232 -380888,-6711218 -380886,-6711213 -380876,-6711204 -380874,-6711203 -380854,-6711201 -380811,-6711192 -380782,-6711183 -380745,-6711169 -380733,-6711162 -380730,-6711163 -380681,-6711216 -380655,-6711244 -380615,-6711272 -380592,-6711285 -380526,-6711315 -380441,-6711361 -380378,-6711393 -380291,-6711418 -380212,-6711433 -380149,-6711429 -380090,-6711423 -380054,-6711417 -380052,-6711418 -380012,-6711439 -379972,-6711456 -379952,-6711474 -379950,-6711473 -379930,-6711398 -379923,-6711367 -379923,-6711353 -379901,-6711292 -379899,-6711292 -379883,-6711303 -379800,-6711365 -379749,-6711407 -379717,-6711429 -379714,-6711427 -379696,-6711386 -379678,-6711344 -379647,-6711270 -379644,-6711270 -379599,-6711310 -379578,-6711325 -379563,-6711334 -379556,-6711300 -379539,-6711261 -379534,-6711243 -379531,-6711239 -379518,-6711230 -379517,-6711229 -379511,-6711212 -379511,-6711199 -379514,-6711183 -379513,-6711164 -379513,-6711133 -379512,-6711111 -379503,-6711058 -379503,-6711037 -379508,-6711007 -379508,-6710993 -379506,-6710980 -379499,-6710967 -379486,-6710915 -379486,-6710905 -379488,-6710891 -379490,-6710885 -379495,-6710875 -379505,-6710863 -379506,-6710859 -379497,-6710823 -379497,-6710816 -379498,-6710812 -379511,-6710789 -379512,-6710786 -379514,-6710768 -379514,-6710738 -379510,-6710723 -379507,-6710717 -379484,-6710705 -379479,-6710699 -379477,-6710695 -379476,-6710689 -379477,-6710671 -379471,-6710663 -379466,-6710659 -379457,-6710654 -379437,-6710653 -379398,-6710652 -379379,-6710648 -379360,-6710636 -379346,-6710625 -379339,-6710613 -379334,-6710586 -379297,-6710535 -379279,-6710501 -379269,-6710486 -379161,-6710377 -379148,-6710342 -379139,-6710307 -379124,-6710275 -379106,-6710249 -379082,-6710227 -379069,-6710217 -379018,-6710180 -379013,-6710177 -378989,-6710173 -378987,-6710172 -378940,-6710123 -378910,-6710102 -378893,-6710088 -378888,-6710085 -378887,-6710085 -378859,-6710074 -378835,-6710080 -378818,-6710072 -378787,-6710074 -378753,-6710083 -378751,-6710081 -378750,-6710071 -378740,-6710062 -378724,-6710056 -378705,-6710045 -378699,-6710033 -378658,-6710056 -378602,-6710086 -378582,-6710107 -378530,-6710160 -378481,-6710230 -378474,-6710243 -378462,-6710274 -378458,-6710289 -378451,-6710318 -378448,-6710332 -378444,-6710437 -378435,-6710539 -378424,-6710581 -378405,-6710621 -378405,-6710627 -378406,-6710633 -378407,-6710639 -378408,-6710646 -378412,-6710670 -378414,-6710680 -378423,-6710719 -378427,-6710745 -378428,-6710749 -378430,-6710769 -378431,-6710774 -378433,-6710794 -378433,-6710804 -378431,-6710835 -378413,-6710873 -378381,-6710932 -378377,-6710968 -378357,-6711018 -378327,-6711076 -378324,-6711079 -378296,-6711085 -378294,-6711089 -378290,-6711109 -378288,-6711112 -378258,-6711122 -378253,-6711125 -378237,-6711140 -378207,-6711183 -378207,-6711184 -378201,-6711195 -378208,-6711204 -378215,-6711213 -378215,-6711239 -378208,-6711281 -378206,-6711307 -378200,-6711337 -378183,-6711350 -378189,-6711361 -378170,-6711437 -378150,-6711478 -378131,-6711522 -378113,-6711546 -378091,-6711589 -378051,-6711625 -378018,-6711654 -377977,-6711667 -377941,-6711671 -377925,-6711690 -377924,-6711690 -377906,-6711683 -377899,-6711694 -377829,-6711694 -377812,-6711699 -377779,-6711724 -377750,-6711743 -377719,-6711768 -377697,-6711779 -377651,-6711788 -377619,-6711784 -377586,-6711775 -377560,-6711773 -377558,-6711773 -377524,-6711791 -377494,-6711802 -377488,-6711806 -377484,-6711811 -377482,-6711819 -377480,-6711854 -377455,-6711908 -377452,-6711911 -377447,-6711912 -377433,-6711908 -377430,-6711909 -377421,-6711922 -377403,-6711932 -377383,-6711932 -377361,-6711936 -377350,-6711935 -377300,-6711918 -377294,-6711918 -377290,-6711919 -377278,-6711931 -377274,-6711933 -377268,-6711931 -377256,-6711927 -377219,-6711907 -377154,-6711874 -377141,-6711868 -377116,-6711865 -377087,-6711869 -377085,-6711869 -377066,-6711858 -377061,-6711857 -377044,-6711858 -376998,-6711869 -376957,-6711875 -376952,-6711878 -376924,-6711897 -376922,-6711898 -376906,-6711898 -376890,-6711895 -376866,-6711896 -376847,-6711895 -376839,-6711896 -376784,-6711910 -376725,-6711932 -376706,-6711940 -376675,-6711957 -376636,-6711969 -376628,-6711972 -376609,-6711982 -376600,-6711992 -376586,-6712011 -376560,-6712038 -376550,-6712052 -376541,-6712073 -376529,-6712087 -376461,-6712139 -376456,-6712140 -376443,-6712138 -376442,-6712139 -376439,-6712147 -376395,-6712184 -376356,-6712201 -376315,-6712215 -376298,-6712218 -376264,-6712214 -376242,-6712210 -376210,-6712200 -376198,-6712195 -376197,-6712190 -376193,-6712177 -376183,-6712180 -376173,-6712182 -376182,-6712224 -376185,-6712269 -376188,-6712375 -376195,-6712451 -376154,-6712469 -376132,-6712486 -376108,-6712492 -376092,-6712495 -376071,-6712493 -375986,-6712502 -375952,-6712503 -375935,-6712505 -375917,-6712507 -375872,-6712514 -375869,-6712513 -375860,-6712469 -375822,-6712317 -375817,-6712296 -375809,-6712267 -375816,-6712265 -375827,-6712261 -375826,-6712249 -375819,-6712235 -375818,-6712215 -375810,-6712200 -375801,-6712159 -375549,-6712014 -375421,-6711964 -375354,-6711930 -375341,-6711918 -375332,-6711908 -375326,-6711892 -375320,-6711864 -375317,-6711863 -375262,-6711867 -375233,-6711859 -375228,-6711858 -375225,-6711860 -375193,-6711999 -375182,-6712028 -375164,-6712049 -375146,-6712062 -375115,-6712077 -375077,-6712080 -375055,-6712088 -375007,-6712131 -374906,-6712120 -374902,-6712122 -374838,-6712177 -374822,-6712185 -374805,-6712205 -374772,-6712231 -374746,-6712245 -374718,-6712268 -374614,-6712376 -374544,-6712341 -374484,-6712317 -374463,-6712306 -374448,-6712293 -374393,-6712268 -374226,-6712184 -374224,-6712188 -374219,-6712214 -374216,-6712215 -374202,-6712206 -374200,-6712207 -374187,-6712289 -374183,-6712304 -374181,-6712305 -374168,-6712305 -374167,-6712314 -374157,-6712325 -374117,-6712323 -374107,-6712322 -374081,-6712317 -374035,-6712298 -374003,-6712289 -373982,-6712285 -373973,-6712285 -373946,-6712285 -373913,-6712293 -373897,-6712297 -373866,-6712310 -373851,-6712335 -373845,-6712349 -373837,-6712377 -373828,-6712399 -373755,-6712399 -373738,-6712400 -373728,-6712399 -373701,-6712399 -373681,-6712399 -373677,-6712353 -373682,-6712267 -373667,-6712251 -373635,-6712212 -373629,-6712200 -373592,-6712152 -373582,-6712141 -373559,-6712122 -373534,-6712104 -373501,-6712086 -373436,-6712048 -373397,-6712023 -373270,-6711996 -373186,-6711971 -373102,-6711947 -373062,-6711928 -373045,-6711922 -373021,-6711914 -373010,-6711910 -372927,-6711888 -372853,-6711873 -372794,-6711852 -372761,-6711838 -372649,-6711827 -372549,-6711813 -372494,-6711804 -372445,-6711791 -372313,-6711773 -372277,-6711769 -372210,-6711763 -372113,-6711757 -372011,-6711738 -371969,-6711739 -371923,-6711740 -371848,-6711747 -371752,-6711740 -371645,-6711742 -371507,-6711737 -371332,-6711726 -371274,-6711725 -371267,-6711724 -371200,-6711730 -371131,-6711730 -371097,-6711729 -371075,-6711729 -371073,-6711729 -371071,-6711729 -371010,-6711724 -370993,-6711722 -370905,-6711714 -370794,-6711708 -370726,-6711703 -370670,-6711692 -370636,-6711685 -370601,-6711668 -370553,-6711649 -370526,-6711646 -370463,-6711628 -370379,-6711605 -370304,-6711576 -370217,-6711550 -370148,-6711525 -370071,-6711503 -369988,-6711478 -369917,-6711454 -369828,-6711423 -369769,-6711410 -369676,-6711383 -369595,-6711361 -369533,-6711351 -369451,-6711342 -369443,-6711341 -369354,-6711332 -369252,-6711342 -369167,-6711345 -369132,-6711348 -369006,-6711366 -368917,-6711394 -368848,-6711413 -368663,-6711472 -368657,-6711477 -368649,-6711485 -368642,-6711495 -368556,-6711145 -368472,-6711110 -368466,-6711100 -368421,-6711090 -368400,-6711077 -368356,-6711034 -368303,-6710972 -368259,-6710924 -368234,-6710897 -368191,-6710839 -368147,-6710787 -368098,-6710736 -368058,-6710695 -368008,-6710652 -367978,-6710628 -367907,-6710598 -367840,-6710551 -367781,-6710513 -367779,-6710538 -367743,-6710520 -367740,-6710492 -367659,-6710440 -367630,-6710425 -367560,-6710409 -367568,-6710374 -367448,-6710346 -367337,-6710322 -367276,-6710283 -367246,-6710263 -367215,-6710227 -367174,-6710203 -367128,-6710154 -367124,-6710149 -367119,-6710136 -367109,-6710126 -367076,-6710076 -367044,-6710020 -367018,-6709971 -366999,-6709941 -366966,-6709900 -366954,-6709870 -366938,-6709824 -366928,-6709779 -366926,-6709748 -366920,-6709689 -366909,-6709641 -366897,-6709569 -366892,-6709518 -366891,-6709477 -366891,-6709449 -366896,-6709354 -366856,-6709366 -366839,-6709321 -366825,-6709276 -366815,-6709224 -366801,-6709169 -366769,-6709051 -366759,-6709023 -366722,-6708952 -366697,-6708954 -366678,-6708924 -366702,-6708919 -366667,-6708871 -366616,-6708805 -366640,-6708780 -366594,-6708736 -366573,-6708717 -366530,-6708678 -366459,-6708612 -366369,-6708520 -366261,-6708401 -366272,-6708388 -366265,-6708380 -366233,-6708331 -366154,-6708224 -366108,-6708150 -365984,-6707978 -365958,-6707929 -365928,-6707867 -365879,-6707786 -365839,-6707711 -365807,-6707655 -365759,-6707571 -365723,-6707501 -365675,-6707410 -365593,-6707247 -365531,-6707132 -365500,-6707067 -365477,-6707025 -365459,-6706982 -365440,-6706927 -365420,-6706870 -365416,-6706837 -365410,-6706785 -365381,-6706768 -365370,-6706728 -365394,-6706727 -365378,-6706668 -365349,-6706512 -365346,-6706502 -365342,-6706487 -365339,-6706472 -365337,-6706457 -365335,-6706442 -365335,-6706439 -365334,-6706432 -365333,-6706425 -365334,-6706419 -365334,-6706413 -365334,-6706406 -365334,-6706399 -365338,-6706372 -365339,-6706352 -365325,-6706300 -365300,-6706213 -365279,-6706197 -365248,-6706198 -365234,-6706144 -365228,-6706120 -365270,-6706067 -365253,-6706006 -365226,-6705927 -365175,-6705780 -365161,-6705667 -365144,-6705541 -365128,-6705538 -365117,-6705513 -365083,-6705436 -365060,-6705376 -365029,-6705274 -365000,-6705191 -364941,-6705072 -364920,-6705031 -364903,-6705004 -364843,-6704988 -364790,-6704912 -364748,-6704856 -364697,-6704793 -364670,-6704760 -364630,-6704713 -364578,-6704648 -364550,-6704606 -364510,-6704548 -364472,-6704488 -364449,-6704461 -364408,-6704416 -364375,-6704380 -364364,-6704357 -364351,-6704328 -364323,-6704296 -364306,-6704285 -364289,-6704254 -364274,-6704232 -364246,-6704195 -364228,-6704169 -364219,-6704120 -364205,-6704076 -364191,-6704037 -364175,-6704009 -364132,-6703972 -364108,-6703991 -364087,-6703993 -364062,-6703983 -364061,-6703983 -364015,-6704015 -363997,-6704015 -363969,-6704017 -363917,-6704003 -363876,-6703984 -363859,-6703979 -363842,-6703975 -363839,-6703974 -363836,-6703974 -363822,-6703971 -363804,-6703968 -363787,-6703966 -363758,-6703963 -363730,-6703962 -363714,-6703961 -363649,-6703972 -363405,-6704005 -363254,-6704027 -363205,-6704036 -363156,-6704044 -363106,-6704051 -363087,-6704054 -363037,-6704058 -362987,-6704061 -362952,-6704063 -362888,-6704065 -362832,-6704064 -362803,-6704062 -362775,-6704059 -362747,-6704054 -362732,-6704052 -362701,-6704045 -362680,-6704041 -362677,-6704039 -362645,-6704022 -362600,-6704009 -362510,-6703970 -362456,-6703946 -362358,-6703913 -362303,-6703889 -362208,-6703863 -362187,-6703863 -362168,-6703859 -362119,-6703848 -362115,-6703846 -362110,-6703845 -362106,-6703844 -362101,-6703843 -362100,-6703843 -362096,-6703843 -362091,-6703844 -362087,-6703845 -362082,-6703846 -362078,-6703847 -362077,-6703847 -362064,-6703850 -362051,-6703853 -362051,-6703853 -362043,-6703856 -362036,-6703860 -362029,-6703864 -362022,-6703868 -362015,-6703873 -362015,-6703874 -361987,-6703893 -361922,-6703870 -361893,-6703864 -361865,-6703859 -361857,-6703858 -361828,-6703854 -361800,-6703851 -361785,-6703850 -361766,-6703850 -361747,-6703851 -361729,-6703852 -361710,-6703854 -361709,-6703854 -361689,-6703857 -361670,-6703861 -361650,-6703866 -361631,-6703871 -361630,-6703872 -361571,-6703883 -361584,-6703906 -361584,-6703907 -361587,-6703913 -361591,-6703922 -361577,-6703926 -361572,-6703919 -361570,-6703916 -361546,-6703907 -361539,-6703905 -361514,-6703922 -361456,-6703962 -361408,-6703995 -361386,-6704002 -361356,-6704012 -361267,-6704041 -361231,-6704065 -361224,-6704069 -361221,-6704072 -361212,-6704079 -361203,-6704086 -361200,-6704088 -361192,-6704096 -361184,-6704105 -361176,-6704114 -361169,-6704123 -361163,-6704130 -361142,-6704155 -361130,-6704173 -361125,-6704182 -361121,-6704191 -361117,-6704201 -361113,-6704211 -361110,-6704221 -361092,-6704263 -361084,-6704345 -361052,-6704448 -361047,-6704472 -361038,-6704520 -361040,-6704589 -361042,-6704613 -361023,-6704675 -360987,-6704761 -360955,-6704825 -360936,-6704847 -360909,-6704871 -360830,-6704929 -360773,-6704970 -360767,-6704972 -360725,-6704971 -360720,-6704972 -360702,-6704978 -360597,-6705026 -360530,-6705054 -360487,-6705073 -360431,-6705092 -360408,-6705102 -360385,-6705112 -360366,-6705122 -360267,-6705177 -360224,-6705200 -360104,-6705259 -360073,-6705269 -360054,-6705274 -360021,-6705281 -359988,-6705281 -359921,-6705283 -359849,-6705290 -359760,-6705320 -359737,-6705330 -359708,-6705333 -359700,-6705339 -359698,-6705339 -359664,-6705333 -359662,-6705332 -359657,-6705326 -359655,-6705325 -359633,-6705324 -359622,-6705327 -359610,-6705337 -359593,-6705359 -359572,-6705437 -359524,-6705466 -359501,-6705479 -359437,-6705512 -359374,-6705537 -359254,-6705590 -359195,-6705611 -359034,-6705676 -358988,-6705689 -358986,-6705692 -358982,-6705710 -358981,-6705712 -358963,-6705722 -358954,-6705705 -358950,-6705706 -358897,-6705717 -358825,-6705739 -358738,-6705750 -358682,-6705757 -358572,-6705747 -358455,-6705735 -358418,-6705723 -358409,-6705748 -358327,-6705724 -358278,-6705700 -358252,-6705691 -358141,-6705550 -357882,-6705236 -357757,-6705078 -357688,-6704993 -357641,-6704930 -357592,-6704873 -357527,-6704802 -357478,-6704740 -357401,-6704652 -357356,-6704602 -357335,-6704577 -357290,-6704519 -357235,-6704449 -357164,-6704361 -357087,-6704263 -357008,-6704174 -356994,-6704157 -356986,-6704147 -356945,-6704096 -356890,-6704034 -356846,-6703972 -356803,-6703917 -356752,-6703843 -356734,-6703814 -356709,-6703765 -356689,-6703717 -356668,-6703662 -356650,-6703637 -356637,-6703614 -356634,-6703545 -356626,-6703499 -356614,-6703438 -356589,-6703364 -356541,-6703293 -356531,-6703258 -356525,-6703234 -356525,-6703232 -356511,-6703173 -356500,-6703087 -356506,-6703000 -356511,-6702965 -356545,-6702896 -356559,-6702883 -356561,-6702874 -356561,-6702865 -356562,-6702819 -356558,-6702807 -356556,-6702799 -356546,-6702785 -356514,-6702754 -356472,-6702739 -356436,-6702733 -356366,-6702718 -356338,-6702711 -356297,-6702687 -356280,-6702658 -356266,-6702633 -356253,-6702597 -356240,-6702549 -356210,-6702461 -356201,-6702450 -356192,-6702440 -356190,-6702438 -356139,-6702409 -356040,-6702354 -355974,-6702305 -355921,-6702278 -355905,-6702268 -355889,-6702260 -355872,-6702259 -355837,-6702268 -355820,-6702276 -355802,-6702297 -355801,-6702321 -355806,-6702375 -355817,-6702392 -355849,-6702432 -355882,-6702521 -355891,-6702564 -355889,-6702604 -355876,-6702642 -355837,-6702696 -355818,-6702713 -355759,-6702732 -355718,-6702734 -355689,-6702738 -355661,-6702735 -355587,-6702717 -355574,-6702713 -355533,-6702697 -355524,-6702692 -355513,-6702684 -355509,-6702679 -355499,-6702667 -355490,-6702655 -355485,-6702645 -355477,-6702625 -355472,-6702606 -355473,-6702587 -355473,-6702542 -355480,-6702509 -355486,-6702489 -355496,-6702465 -355517,-6702436 -355527,-6702416 -355537,-6702398 -355573,-6702318 -355582,-6702270 -355585,-6702230 -355585,-6702229 -355584,-6702196 -355575,-6702170 -355540,-6702132 -355494,-6702082 -355414,-6701972 -355371,-6701905 -355290,-6701758 -355249,-6701656 -355210,-6701571 -355179,-6701501 -355150,-6701429 -355108,-6701337 -355086,-6701312 -355077,-6701280 -355074,-6701267 -355056,-6701249 -354980,-6701168 -354902,-6701069 -354852,-6701018 -354790,-6700955 -354737,-6700907 -354680,-6700866 -354639,-6700840 -354597,-6700814 -354568,-6700794 -354494,-6700776 -354442,-6700774 -354408,-6700773 -354356,-6700778 -354292,-6700799 -354158,-6700855 -354125,-6700869 -354101,-6700876 -354039,-6700898 -353999,-6700903 -353951,-6700902 -353905,-6700892 -353873,-6700865 -353837,-6700830 -353781,-6700789 -353652,-6700720 -353614,-6700704 -353584,-6700689 -353551,-6700684 -353532,-6700677 -353505,-6700670 -353478,-6700664 -353458,-6700662 -353444,-6700661 -353416,-6700662 -353387,-6700667 -353342,-6700668 -353298,-6700683 -353255,-6700701 -353208,-6700727 -353177,-6700751 -353092,-6700811 -353058,-6700830 -353022,-6700846 -352955,-6700863 -352903,-6700871 -352866,-6700873 -352812,-6700874 -352773,-6700870 -352740,-6700862 -352703,-6700850 -352675,-6700838 -352654,-6700827 -352616,-6700801 -352597,-6700785 -352566,-6700750 -352534,-6700713 -352475,-6700651 -352453,-6700635 -352433,-6700618 -352391,-6700587 -352390,-6700587 -352390,-6700587 -352312,-6700554 -352259,-6700535 -352229,-6700525 -352220,-6700522 -352148,-6700477 -352090,-6700436 -352055,-6700418 -351966,-6700380 -351927,-6700309 -351921,-6700304 -351885,-6700250 -351848,-6700184 -351809,-6700127 -351737,-6700001 -351889,-6699822 -351971,-6699729 -352032,-6699663 -352034,-6699655 -352041,-6699627 -352058,-6699555 -352069,-6699514 -352079,-6699474 -352092,-6699434 -352107,-6699400 -352122,-6699334 -352156,-6699233 -352193,-6699112 -352233,-6698991 -352265,-6698885 -352289,-6698789 -352306,-6698708 -352320,-6698636 -352330,-6698591 -352319,-6698590 -352319,-6698599 -352297,-6698594 -352290,-6698592 -352296,-6698566 -352300,-6698544 -352311,-6698546 -352331,-6698551 -352329,-6698558 -352329,-6698560 -352342,-6698563 -352342,-6698561 -352398,-6698417 -352435,-6698313 -352456,-6698240 -352487,-6698094 -352540,-6698011 -352556,-6697956 -352566,-6697914 -352571,-6697876 -352574,-6697838 -352576,-6697821 -352589,-6697735 -352603,-6697690 -352612,-6697624 -352614,-6697617 -352616,-6697611 -352629,-6697591 -352633,-6697573 -352637,-6697542 -352639,-6697498 -352643,-6697472 -352646,-6697447 -352654,-6697422 -352651,-6697373 -352652,-6697347 -352657,-6697336 -352673,-6697308 -352674,-6697288 -352684,-6697271 -352700,-6697252 -352702,-6697244 -352704,-6697235 -352701,-6697222 -352698,-6697209 -352690,-6697186 -352690,-6697156 -352687,-6697133 -352691,-6697107 -352713,-6697030 -352722,-6697013 -352732,-6697010 -352751,-6697033 -352770,-6697029 -352774,-6696983 -352780,-6696937 -352783,-6696896 -352783,-6696885 -352783,-6696884 -352779,-6696875 -352766,-6696857 -352759,-6696848 -352715,-6696812 -352699,-6696803 -352693,-6696797 -352688,-6696791 -352685,-6696784 -352683,-6696777 -352682,-6696769 -352681,-6696760 -352696,-6696722 -352702,-6696689 -352699,-6696665 -352700,-6696650 -352701,-6696621 -352707,-6696569 -352704,-6696545 -352704,-6696536 -352705,-6696528 -352710,-6696511 -352712,-6696493 -352720,-6696475 -352720,-6696468 -352729,-6696460 -352731,-6696457 -352733,-6696446 -352734,-6696412 -352730,-6696391 -352733,-6696370 -352734,-6696343 -352740,-6696299 -352742,-6696279 -352741,-6696256 -352742,-6696251 -352744,-6696247 -352753,-6696235 -352773,-6696192 -352781,-6696178 -352784,-6696171 -352786,-6696144 -352788,-6696134 -352793,-6696114 -352796,-6696105 -352812,-6696084 -352824,-6696061 -352825,-6696055 -352825,-6696038 -352828,-6696010 -352833,-6695991 -352833,-6695987 -352834,-6695927 -352838,-6695912 -352839,-6695902 -352843,-6695869 -352846,-6695835 -352849,-6695812 -352859,-6695681 -352858,-6695671 -352852,-6695637 -352850,-6695624 -352840,-6695521 -352840,-6695505 -352845,-6695466 -352855,-6695426 -352856,-6695413 -352856,-6695397 -352854,-6695381 -352848,-6695351 -352842,-6695340 -352839,-6695335 -352821,-6695319 -352816,-6695316 -352786,-6695302 -352776,-6695294 -352770,-6695287 -352766,-6695246 -352754,-6695203 -352743,-6695167 -352728,-6695137 -352703,-6695072 -352694,-6695053 -352685,-6695025 -352678,-6695012 -352663,-6694986 -352647,-6694963 -352613,-6694922 -352563,-6694878 -352555,-6694869 -352524,-6694831 -352505,-6694803 -352494,-6694784 -352479,-6694761 -352466,-6694737 -352454,-6694717 -352435,-6694694 -352414,-6694665 -352407,-6694650 -352407,-6694647 -352408,-6694643 -352411,-6694641 -352413,-6694640 -352427,-6694643 -352438,-6694649 -352485,-6694685 -352517,-6694715 -352531,-6694726 -352546,-6694741 -352579,-6694763 -352606,-6694778 -352649,-6694805 -352708,-6694833 -352731,-6694842 -352749,-6694848 -352764,-6694849 -352775,-6694849 -352777,-6694847 -352785,-6694837 -352794,-6694818 -352797,-6694806 -352796,-6694787 -352796,-6694769 -352799,-6694751 -352802,-6694741 -352803,-6694740 -352811,-6694738 -352817,-6694736 -352819,-6694734 -352824,-6694727 -352829,-6694711 -352831,-6694708 -352845,-6694695 -352852,-6694691 -352859,-6694684 -352868,-6694666 -352869,-6694661 -352870,-6694651 -352869,-6694646 -352867,-6694642 -352815,-6694584 -352813,-6694580 -352812,-6694576 -352813,-6694573 -352821,-6694561 -352823,-6694553 -352821,-6694513 -352818,-6694506 -352816,-6694503 -352807,-6694502 -352799,-6694482 -352798,-6694476 -352797,-6694471 -352810,-6694454 -352808,-6694443 -352809,-6694404 -352807,-6694401 -352795,-6694391 -352793,-6694388 -352793,-6694385 -352793,-6694383 -352806,-6694379 -352806,-6694376 -352805,-6694360 -352794,-6694348 -352786,-6694343 -352791,-6694329 -352780,-6694320 -352773,-6694289 -352770,-6694281 -352756,-6694247 -352748,-6694216 -352750,-6694189 -352753,-6694178 -352763,-6694156 -352765,-6694146 -352759,-6694124 -352758,-6694117 -352754,-6694064 -352754,-6694028 -352752,-6694019 -352747,-6694009 -352736,-6693981 -352730,-6693948 -352725,-6693943 -352710,-6693916 -352705,-6693899 -352699,-6693865 -352688,-6693827 -352681,-6693790 -352677,-6693758 -352673,-6693735 -352672,-6693723 -352671,-6693718 -352654,-6693694 -352652,-6693687 -352653,-6693677 -352651,-6693665 -352651,-6693659 -352654,-6693652 -352655,-6693645 -352660,-6693640 -352662,-6693634 -352656,-6693629 -352656,-6693626 -352658,-6693624 -352665,-6693621 -352665,-6693610 -352658,-6693601 -352652,-6693597 -352648,-6693590 -352634,-6693579 -352636,-6693566 -352598,-6693541 -352581,-6693531 -352580,-6693530 -352580,-6693527 -352583,-6693524 -352613,-6693522 -352624,-6693521 -352675,-6693507 -352688,-6693506 -352686,-6693495 -352681,-6693487 -352674,-6693482 -352654,-6693476 -352661,-6693474 -352686,-6693473 -352683,-6693469 -352678,-6693465 -352666,-6693463 -352654,-6693463 -352635,-6693457 -352640,-6693452 -352667,-6693449 -352673,-6693445 -352710,-6693439 -352700,-6693426 -352689,-6693426 -352662,-6693418 -352651,-6693412 -352632,-6693396 -352628,-6693392 -352628,-6693389 -352666,-6693401 -352670,-6693401 -352672,-6693400 -352674,-6693398 -352674,-6693392 -352674,-6693386 -352667,-6693377 -352646,-6693360 -352631,-6693351 -352583,-6693336 -352577,-6693332 -352560,-6693316 -352549,-6693307 -352548,-6693304 -352550,-6693298 -352548,-6693294 -352533,-6693279 -352527,-6693270 -352517,-6693263 -352512,-6693256 -352512,-6693255 -352531,-6693249 -352526,-6693242 -352534,-6693232 -352521,-6693225 -352498,-6693208 -352499,-6693202 -352495,-6693198 -352495,-6693194 -352501,-6693192 -352527,-6693198 -352534,-6693197 -352515,-6693171 -352535,-6693169 -352555,-6693170 -352555,-6693162 -352554,-6693157 -352552,-6693153 -352546,-6693145 -352545,-6693139 -352548,-6693133 -352542,-6693127 -352541,-6693115 -352542,-6693112 -352544,-6693110 -352547,-6693108 -352551,-6693107 -352556,-6693109 -352571,-6693111 -352576,-6693111 -352588,-6693108 -352598,-6693109 -352613,-6693114 -352620,-6693118 -352631,-6693128 -352638,-6693130 -352661,-6693134 -352682,-6693136 -352691,-6693141 -352721,-6693139 -352730,-6693145 -352736,-6693146 -352741,-6693145 -352733,-6693136 -352730,-6693131 -352719,-6693126 -352712,-6693125 -352706,-6693119 -352704,-6693113 -352706,-6693109 -352703,-6693101 -352711,-6693098 -352723,-6693099 -352725,-6693100 -352728,-6693104 -352751,-6693121 -352754,-6693127 -352762,-6693131 -352785,-6693130 -352799,-6693132 -352827,-6693129 -352836,-6693133 -352847,-6693132 -352883,-6693133 -352905,-6693129 -352914,-6693129 -352936,-6693122 -352939,-6693119 -352941,-6693116 -352930,-6693108 -352929,-6693103 -352950,-6693099 -352965,-6693105 -352977,-6693104 -352988,-6693106 -352998,-6693106 -353011,-6693106 -353041,-6693101 -353064,-6693095 -353076,-6693091 -353147,-6693061 -353197,-6693038 -353288,-6692994 -353333,-6692967 -353421,-6692916 -353490,-6692873 -353521,-6692858 -353564,-6692827 -353607,-6692794 -353629,-6692779 -353727,-6692715 -353888,-6692617 -353934,-6692591 -354046,-6692523 -354056,-6692516 -354120,-6692460 -354153,-6692425 -354191,-6692389 -354236,-6692340 -354262,-6692313 -354358,-6692233 -354414,-6692192 -354479,-6692156 -354532,-6692123 -354626,-6692074 -354684,-6692048 -354737,-6692027 -354769,-6692016 -354786,-6692013 -354811,-6692012 -354840,-6692020 -354850,-6692021 -354862,-6692021 -354923,-6692019 -354973,-6692016 -355015,-6692011 -355058,-6691999 -355079,-6691990 -355083,-6691990 -355086,-6691991 -355087,-6691992 -355088,-6691995 -355087,-6692001 -355084,-6692008 -355080,-6692014 -355075,-6692020 -355070,-6692023 -354888,-6692102 -354879,-6692104 -354868,-6692106 -354860,-6692106 -354844,-6692104 -354817,-6692098 -354792,-6692092 -354786,-6692091 -354778,-6692091 -354737,-6692096 -354721,-6692100 -354713,-6692102 -354710,-6692105 -354703,-6692113 -354700,-6692130 -354694,-6692132 -354681,-6692125 -354679,-6692134 -354677,-6692139 -354674,-6692143 -354670,-6692145 -354663,-6692146 -354661,-6692146 -354652,-6692138 -354650,-6692154 -354627,-6692159 -354622,-6692153 -354615,-6692157 -354606,-6692159 -354596,-6692164 -354595,-6692168 -354591,-6692178 -354590,-6692180 -354584,-6692181 -354561,-6692181 -354559,-6692181 -354561,-6692194 -354565,-6692206 -354564,-6692210 -354550,-6692206 -354546,-6692206 -354557,-6692221 -354559,-6692224 -354559,-6692228 -354558,-6692233 -354557,-6692235 -354552,-6692232 -354546,-6692223 -354527,-6692201 -354523,-6692197 -354519,-6692196 -354515,-6692198 -354514,-6692200 -354514,-6692203 -354515,-6692207 -354519,-6692210 -354529,-6692226 -354533,-6692233 -354536,-6692244 -354566,-6692277 -354581,-6692289 -354589,-6692305 -354601,-6692341 -354608,-6692351 -354638,-6692364 -354643,-6692365 -354649,-6692367 -354655,-6692366 -354682,-6692369 -354688,-6692367 -354691,-6692365 -354697,-6692359 -354706,-6692352 -354725,-6692340 -354766,-6692316 -354786,-6692301 -354787,-6692299 -354793,-6692282 -354794,-6692280 -354800,-6692276 -354825,-6692270 -354905,-6692242 -354944,-6692230 -354971,-6692222 -354979,-6692220 -354993,-6692220 -355004,-6692219 -355020,-6692215 -355036,-6692207 -355043,-6692203 -355051,-6692202 -355109,-6692198 -355129,-6692195 -355158,-6692190 -355194,-6692188 -355218,-6692188 -355292,-6692191 -355392,-6692193 -355469,-6692192 -355486,-6692189 -355496,-6692186 -355498,-6692184 -355514,-6692162 -355521,-6692157 -355530,-6692154 -355559,-6692149 -355624,-6692159 -355650,-6692161 -355679,-6692160 -355701,-6692159 -355762,-6692152 -355789,-6692146 -355849,-6692127 -355884,-6692111 -355917,-6692090 -355956,-6692072 -355960,-6692069 -355963,-6692063 -355967,-6692042 -355969,-6692035 -355972,-6692028 -355983,-6692010 -356000,-6691994 -356001,-6691992 -356002,-6691988 -356002,-6691984 -356001,-6691980 -355999,-6691977 -355996,-6691975 -355916,-6691955 -355815,-6691921 -355797,-6691916 -355784,-6691914 -355754,-6691916 -355713,-6691915 -355691,-6691912 -355687,-6691910 -355685,-6691908 -355655,-6691859 -355632,-6691811 -355630,-6691805 -355616,-6691748 -355616,-6691735 -355622,-6691697 -355627,-6691658 -355627,-6691649 -355626,-6691625 -355628,-6691562 -355628,-6691542 -355633,-6691522 -355640,-6691477 -355642,-6691459 -355642,-6691455 -355639,-6691443 -355639,-6691438 -355644,-6691428 -355660,-6691406 -355678,-6691386 -355684,-6691382 -355688,-6691381 -355694,-6691381 -355701,-6691382 -355717,-6691385 -355727,-6691388 -355763,-6691392 -355779,-6691397 -355785,-6691398 -355803,-6691396 -355823,-6691401 -355849,-6691410 -355877,-6691415 -355885,-6691420 -355892,-6691416 -355897,-6691417 -355926,-6691428 -355933,-6691430 -355946,-6691430 -355967,-6691429 -355981,-6691433 -355985,-6691433 -355990,-6691432 -355995,-6691431 -355999,-6691427 -356008,-6691425 -356026,-6691422 -356058,-6691419 -356077,-6691416 -356109,-6691408 -356135,-6691399 -356141,-6691395 -356150,-6691371 -356162,-6691352 -356181,-6691333 -356187,-6691330 -356197,-6691325 -356232,-6691317 -356252,-6691311 -356258,-6691303 -356264,-6691302 -356274,-6691304 -356288,-6691310 -356292,-6691314 -356293,-6691317 -356294,-6691340 -356295,-6691343 -356297,-6691346 -356315,-6691354 -356324,-6691359 -356325,-6691362 -356327,-6691368 -356332,-6691395 -356346,-6691391 -356350,-6691391 -356352,-6691392 -356353,-6691394 -356351,-6691403 -356363,-6691404 -356370,-6691410 -356384,-6691405 -356391,-6691405 -356394,-6691407 -356396,-6691409 -356398,-6691414 -356405,-6691432 -356407,-6691436 -356411,-6691439 -356434,-6691455 -356438,-6691463 -356445,-6691463 -356456,-6691466 -356459,-6691468 -356466,-6691478 -356471,-6691480 -356482,-6691480 -356495,-6691486 -356501,-6691489 -356503,-6691489 -356513,-6691487 -356513,-6691487 -356513,-6691497 -356509,-6691503 -356504,-6691507 -356500,-6691512 -356501,-6691517 -356507,-6691525 -356514,-6691530 -356529,-6691525 -356532,-6691525 -356541,-6691545 -356575,-6691537 -356586,-6691532 -356591,-6691528 -356627,-6691518 -356633,-6691518 -356637,-6691519 -356645,-6691523 -356648,-6691524 -356651,-6691524 -356655,-6691523 -356662,-6691512 -356665,-6691510 -356670,-6691508 -356676,-6691508 -356680,-6691509 -356684,-6691520 -356693,-6691521 -356689,-6691534 -356679,-6691543 -356669,-6691547 -356658,-6691579 -356645,-6691605 -356629,-6691646 -356624,-6691649 -356613,-6691688 -356606,-6691703 -356584,-6691737 -356582,-6691742 -356583,-6691749 -356582,-6691752 -356578,-6691756 -356575,-6691763 -356571,-6691762 -356566,-6691757 -356563,-6691757 -356561,-6691759 -356555,-6691767 -356551,-6691788 -356547,-6691800 -356550,-6691805 -356555,-6691816 -356555,-6691819 -356554,-6691824 -356552,-6691828 -356550,-6691829 -356548,-6691829 -356545,-6691828 -356538,-6691813 -356531,-6691828 -356524,-6691848 -356521,-6691854 -356513,-6691868 -356494,-6691903 -356491,-6691914 -356491,-6691924 -356515,-6691992 -356520,-6692002 -356528,-6692012 -356544,-6692030 -356550,-6692034 -356556,-6692035 -356564,-6692033 -356568,-6692031 -356576,-6692024 -356584,-6692027 -356592,-6692033 -356598,-6692035 -356610,-6692026 -356612,-6692025 -356615,-6692026 -356619,-6692028 -356635,-6692040 -356647,-6692048 -356657,-6692059 -356660,-6692061 -356663,-6692061 -356675,-6692060 -356692,-6692070 -356718,-6692075 -356724,-6692076 -356711,-6692070 -356695,-6692055 -356694,-6692052 -356693,-6692049 -356695,-6692048 -356707,-6692051 -356737,-6692070 -356751,-6692075 -356772,-6692077 -356764,-6692053 -356766,-6692049 -356767,-6692047 -356779,-6692053 -356780,-6692062 -356783,-6692067 -356793,-6692074 -356813,-6692085 -356825,-6692094 -356834,-6692102 -356837,-6692105 -356839,-6692113 -356856,-6692117 -356874,-6692125 -356882,-6692126 -356885,-6692125 -356886,-6692124 -356887,-6692120 -356889,-6692117 -356892,-6692115 -356895,-6692116 -356902,-6692119 -356920,-6692132 -356924,-6692134 -356940,-6692139 -356948,-6692140 -356961,-6692140 -356976,-6692142 -357011,-6692141 -357020,-6692142 -357033,-6692148 -357036,-6692153 -357038,-6692168 -357041,-6692173 -357053,-6692170 -357066,-6692170 -357070,-6692167 -357072,-6692167 -357079,-6692167 -357092,-6692172 -357101,-6692172 -357110,-6692176 -357113,-6692176 -357118,-6692175 -357126,-6692171 -357130,-6692172 -357131,-6692174 -357133,-6692183 -357143,-6692185 -357156,-6692190 -357159,-6692193 -357162,-6692195 -357165,-6692195 -357175,-6692190 -357180,-6692190 -357188,-6692192 -357197,-6692196 -357208,-6692196 -357230,-6692202 -357238,-6692206 -357252,-6692215 -357260,-6692215 -357299,-6692225 -357319,-6692232 -357336,-6692242 -357342,-6692245 -357369,-6692252 -357398,-6692262 -357418,-6692275 -357434,-6692276 -357448,-6692279 -357459,-6692276 -357471,-6692276 -357513,-6692286 -357520,-6692288 -357537,-6692297 -357550,-6692311 -357556,-6692315 -357561,-6692315 -357575,-6692312 -357578,-6692312 -357582,-6692313 -357592,-6692317 -357605,-6692321 -357611,-6692323 -357615,-6692335 -357621,-6692342 -357627,-6692355 -357631,-6692359 -357634,-6692360 -357640,-6692358 -357642,-6692359 -357647,-6692361 -357651,-6692361 -357660,-6692358 -357682,-6692351 -357701,-6692347 -357711,-6692347 -357722,-6692349 -357755,-6692360 -357780,-6692375 -357807,-6692383 -357821,-6692388 -357833,-6692396 -357854,-6692406 -357878,-6692424 -357890,-6692426 -357911,-6692433 -357915,-6692436 -357916,-6692439 -357915,-6692440 -357906,-6692443 -357902,-6692448 -357901,-6692450 -357901,-6692452 -357903,-6692453 -357919,-6692458 -357947,-6692477 -357961,-6692486 -358004,-6692509 -358016,-6692513 -358020,-6692513 -358023,-6692512 -358025,-6692510 -358027,-6692502 -358029,-6692497 -358032,-6692492 -358044,-6692476 -358049,-6692475 -358057,-6692473 -358061,-6692474 -358066,-6692475 -358068,-6692477 -358070,-6692482 -358077,-6692485 -358093,-6692481 -358101,-6692480 -358108,-6692480 -358130,-6692483 -358134,-6692487 -358143,-6692495 -358146,-6692500 -358150,-6692509 -358154,-6692512 -358158,-6692513 -358161,-6692512 -358162,-6692511 -358162,-6692509 -358158,-6692499 -358158,-6692493 -358165,-6692490 -358183,-6692498 -358212,-6692499 -358252,-6692508 -358332,-6692532 -358339,-6692533 -358342,-6692533 -358353,-6692531 -358367,-6692540 -358370,-6692551 -358377,-6692552 -358382,-6692547 -358386,-6692546 -358394,-6692551 -358416,-6692556 -358417,-6692561 -358418,-6692570 -358419,-6692573 -358421,-6692576 -358424,-6692577 -358426,-6692576 -358427,-6692575 -358429,-6692569 -358432,-6692567 -358435,-6692566 -358444,-6692567 -358460,-6692573 -358468,-6692579 -358480,-6692584 -358498,-6692587 -358536,-6692595 -358547,-6692602 -358549,-6692606 -358550,-6692609 -358549,-6692615 -358549,-6692617 -358558,-6692623 -358571,-6692621 -358648,-6692629 -358917,-6692643 -358942,-6692623 -358976,-6692604 -359047,-6692588 -359131,-6692561 -359201,-6692540 -359235,-6692538 -359264,-6692549 -359293,-6692541 -359350,-6692520 -359386,-6692500 -359411,-6692483 -359438,-6692480 -359491,-6692454 -359511,-6692444 -359522,-6692435 -359538,-6692433 -359559,-6692427 -359613,-6692399 -359680,-6692377 -359714,-6692347 -359735,-6692316 -359809,-6692236 -359837,-6692199 -359851,-6692165 -359853,-6692142 -359867,-6692117 -359872,-6692103 -359876,-6692087 -359878,-6692054 -359884,-6692031 -359901,-6692009 -359949,-6691971 -359967,-6691962 -359988,-6691960 -360042,-6691973 -360055,-6691971 -360073,-6691971 -360099,-6691964 -360145,-6691953 -360193,-6691939 -360223,-6691923 -360264,-6691902 -360305,-6691879 -360345,-6691860 -360369,-6691846 -360413,-6691803 -360460,-6691759 -360483,-6691734 -360484,-6691732 -360490,-6691725 -360506,-6691711 -360512,-6691707 -360526,-6691702 -360609,-6691683 -360650,-6691670 -360715,-6691659 -360738,-6691658 -360762,-6691655 -360867,-6691631 -360879,-6691629 -360900,-6691628 -360925,-6691630 -360940,-6691630 -360989,-6691629 -361069,-6691632 -361084,-6691632 -361100,-6691628 -361107,-6691625 -361126,-6691611 -361139,-6691605 -361147,-6691594 -361146,-6691587 -361142,-6691572 -361140,-6691565 -361130,-6691554 -361132,-6691548 -361143,-6691536 -361156,-6691539 -361182,-6691564 -361207,-6691573 -361243,-6691582 -361272,-6691587 -361300,-6691583 -361325,-6691594 -361334,-6691597 -361352,-6691600 -361405,-6691593 -361435,-6691587 -361499,-6691568 -361512,-6691563 -361523,-6691552 -361555,-6691517 -361562,-6691514 -361609,-6691497 -361618,-6691489 -361626,-6691480 -361635,-6691458 -361638,-6691438 -361643,-6691432 -361670,-6691431 -361678,-6691430 -361692,-6691420 -361696,-6691413 -361700,-6691404 -361704,-6691384 -361713,-6691363 -361719,-6691342 -361716,-6691322 -361713,-6691312 -361704,-6691294 -361699,-6691286 -361685,-6691269 -361639,-6691249 -361620,-6691229 -361611,-6691208 -361610,-6691188 -361611,-6691186 -361655,-6691171 -361666,-6691176 -361666,-6691189 -361690,-6691184 -361690,-6691166 -361688,-6691123 -361703,-6691117 -361713,-6691111 -361720,-6691101 -361732,-6691100 -361741,-6691109 -361752,-6691110 -361754,-6691115 -361758,-6691139 -361775,-6691157 -361789,-6691161 -361819,-6691168 -361834,-6691171 -361870,-6691170 -361910,-6691160 -361946,-6691163 -362038,-6691164 -362074,-6691171 -362092,-6691184 -362092,-6691210 -362099,-6691232 -362090,-6691238 -362069,-6691246 -362065,-6691261 -362070,-6691273 -362091,-6691284 -362100,-6691294 -362115,-6691329 -362121,-6691341 -362185,-6691349 -362209,-6691356 -362247,-6691303 -362297,-6691236 -362293,-6691225 -362289,-6691204 -362287,-6691166 -362303,-6691140 -362322,-6691104 -362331,-6691093 -362339,-6691081 -362361,-6691076 -362362,-6691075 -362391,-6691071 -362416,-6691072 -362439,-6691045 -362480,-6690988 -362519,-6690937 -362552,-6690902 -362579,-6690875 -362651,-6690824 -362652,-6690822 -362722,-6690773 -362732,-6690758 -362737,-6690751 -362744,-6690742 -362759,-6690737 -362768,-6690735 -362793,-6690731 -362884,-6690722 -362899,-6690715 -362932,-6690710 -362970,-6690709 -362995,-6690712 -363014,-6690717 -363024,-6690724 -363029,-6690726 -363048,-6690730 -363058,-6690734 -363068,-6690739 -363076,-6690744 -363095,-6690758 -363137,-6690791 -363153,-6690794 -363161,-6690794 -363169,-6690794 -363203,-6690783 -363225,-6690771 -363262,-6690746 -363284,-6690728 -363295,-6690718 -363305,-6690707 -363324,-6690684 -363333,-6690671 -363342,-6690656 -363350,-6690641 -363364,-6690610 -363373,-6690584 -363373,-6690565 -363371,-6690557 -363361,-6690527 -363354,-6690497 -363353,-6690483 -363351,-6690475 -363338,-6690449 -363337,-6690438 -363336,-6690428 -363339,-6690400 -363339,-6690390 -363331,-6690335 -363328,-6690297 -363333,-6690243 -363332,-6690207 -363338,-6690178 -363351,-6690144 -363360,-6690126 -363370,-6690109 -363392,-6690075 -363409,-6690058 -363454,-6690038 -363482,-6690033 -363508,-6690022 -363509,-6690005 -363511,-6689996 -363520,-6689985 -363559,-6689983 -363563,-6689993 -363570,-6689995 -363577,-6689999 -363579,-6690003 -363585,-6690021 -363589,-6690025 -363594,-6690029 -363600,-6690030 -363607,-6690031 -363615,-6690031 -363622,-6690029 -363639,-6690023 -363665,-6690024 -363701,-6690029 -363761,-6690032 -363801,-6690031 -363824,-6690040 -363846,-6690056 -363860,-6690075 -363863,-6690081 -363867,-6690102 -363935,-6690126 -363959,-6690134 -364002,-6690147 -364043,-6690157 -364063,-6690161 -364087,-6690165 -364168,-6690178 -364257,-6690191 -364407,-6690211 -364432,-6690212 -364488,-6690209 -364514,-6690205 -364536,-6690197 -364544,-6690189 -364559,-6690181 -364625,-6690157 -364666,-6690138 -364709,-6690106 -364845,-6689996 -364928,-6689931 -364938,-6689917 -364939,-6689911 -364941,-6689905 -364942,-6689885 -364946,-6689869 -364947,-6689851 -364941,-6689834 -364930,-6689813 -364917,-6689753 -364916,-6689720 -364919,-6689694 -364929,-6689673 -364942,-6689658 -364968,-6689653 -364990,-6689648 -365011,-6689655 -365085,-6689728 -365109,-6689756 -365124,-6689787 -365148,-6689831 -365175,-6689870 -365198,-6689893 -365219,-6689906 -365289,-6689929 -365314,-6689937 -365484,-6689984 -365514,-6689994 -365528,-6689998 -365589,-6690008 -365642,-6690015 -365701,-6690026 -365737,-6690030 -365755,-6690031 -365790,-6690031 -365806,-6690030 -365837,-6690026 -365858,-6690022 -365879,-6690017 -365914,-6690003 -365970,-6689974 -365983,-6689969 -365997,-6689965 -366013,-6689961 -366030,-6689958 -366061,-6689954 -366074,-6689946 -366081,-6689938 -366086,-6689930 -366094,-6689912 -366096,-6689897 -366092,-6689881 -366092,-6689873 -366093,-6689865 -366101,-6689846 -366157,-6689759 -366173,-6689754 -366179,-6689741 -366277,-6689748 -366280,-6689761 -366298,-6689768 -366332,-6689771 -366347,-6689779 -366359,-6689793 -366357,-6689805 -366344,-6689812 -366330,-6689831 -366395,-6689829 -366465,-6689836 -366469,-6689852 -366501,-6689862 -366501,-6689874 -366491,-6689877 -366484,-6689894 -366498,-6689910 -366494,-6689922 -366517,-6689944 -366531,-6689957 -366565,-6689986 -366628,-6690038 -366710,-6690100 -366747,-6690124 -366775,-6690142 -366800,-6690158 -366889,-6690211 -366909,-6690224 -366918,-6690231 -366925,-6690237 -366931,-6690244 -366949,-6690267 -366975,-6690297 -367024,-6690349 -367059,-6690381 -367078,-6690397 -367151,-6690455 -367214,-6690501 -367251,-6690529 -367317,-6690568 -367385,-6690604 -367436,-6690623 -367521,-6690657 -367538,-6690664 -367597,-6690691 -367619,-6690699 -367644,-6690705 -367694,-6690714 -367712,-6690718 -367738,-6690725 -367748,-6690710 -367753,-6690709 -367763,-6690725 -367780,-6690735 -367819,-6690750 -367875,-6690768 -367893,-6690773 -367919,-6690778 -367927,-6690780 -367936,-6690779 -367954,-6690776 -367962,-6690773 -367975,-6690766 -367983,-6690764 -367991,-6690764 -368009,-6690764 -368031,-6690758 -368059,-6690754 -368075,-6690762 -368093,-6690789 -368099,-6690784 -368104,-6690789 -368109,-6690795 -368115,-6690808 -368132,-6690809 -368138,-6690819 -368146,-6690821 -368162,-6690838 -368174,-6690845 -368182,-6690848 -368201,-6690854 -368211,-6690856 -368238,-6690858 -368246,-6690854 -368267,-6690857 -368283,-6690863 -368306,-6690866 -368318,-6690867 -368330,-6690867 -368347,-6690860 -368355,-6690855 -368363,-6690849 -368371,-6690841 -368378,-6690833 -368386,-6690818 -368397,-6690809 -368415,-6690811 -368436,-6690811 -368456,-6690802 -368462,-6690784 -368462,-6690780 -368461,-6690770 -368465,-6690765 -368485,-6690743 -368491,-6690741 -368499,-6690732 -368510,-6690728 -368511,-6690736 -368510,-6690743 -368508,-6690751 -368501,-6690767 -368522,-6690779 -368535,-6690762 -368549,-6690756 -368557,-6690762 -368560,-6690771 -368585,-6690775 -368592,-6690768 -368605,-6690764 -368617,-6690770 -368627,-6690756 -368643,-6690750 -368668,-6690755 -368673,-6690754 -368688,-6690757 -368702,-6690749 -368703,-6690745 -368710,-6690739 -368757,-6690688 -368769,-6690673 -368794,-6690642 -368850,-6690567 -368936,-6690457 -368944,-6690447 -368971,-6690418 -369003,-6690378 -369011,-6690367 -369037,-6690325 -369059,-6690286 -369093,-6690230 -369125,-6690190 -369145,-6690167 -369146,-6690166 -369181,-6690138 -369242,-6690095 -369275,-6690066 -369298,-6690045 -369305,-6690040 -369328,-6690029 -369380,-6690010 -369387,-6690006 -369400,-6689999 -369437,-6689984 -369469,-6689974 -369507,-6689956 -369556,-6689945 -369587,-6689941 -369612,-6689939 -369638,-6689941 -369653,-6689944 -369664,-6689945 -369744,-6689951 -369856,-6689946 -369894,-6689943 -369942,-6689948 -369976,-6689950 -369994,-6689957 -370036,-6689962 -370079,-6689963 -370117,-6689961 -370141,-6689958 -370167,-6689943 -370227,-6689906 -370241,-6689893 -370302,-6689831 -370348,-6689783 -370407,-6689726 -370441,-6689697 -370456,-6689685 -370487,-6689663 -370503,-6689652 -370555,-6689622 -370609,-6689589 -370664,-6689547 -370723,-6689496 -370780,-6689456 -370801,-6689436 -370814,-6689419 -370824,-6689400 -370829,-6689396 -370836,-6689391 -370918,-6689343 -370934,-6689332 -371006,-6689290 -371043,-6689264 -371072,-6689248 -371097,-6689239 -371132,-6689218 -371145,-6689210 -371177,-6689185 -371222,-6689147 -371271,-6689112 -371313,-6689095 -371378,-6689063 -371400,-6689050 -371416,-6689046 -371439,-6689039 -371534,-6689018 -371615,-6688990 -371658,-6688974 -371686,-6688967 -371757,-6688941 -371852,-6688919 -371914,-6688903 -371963,-6688893 -372013,-6688881 -372063,-6688875 -372103,-6688870 -372132,-6688869 -372216,-6688882 -372273,-6688893 -372297,-6688896 -372365,-6688903 -372400,-6688913 -372525,-6688963 -372588,-6688984 -372612,-6688999 -372627,-6689011 -372638,-6689012 -372660,-6689012 -372673,-6689012 -372706,-6689016 -372726,-6689020 -372808,-6689041 -372851,-6689061 -372874,-6689077 -372906,-6689089 -372948,-6689100 -372970,-6689109 -372986,-6689122 -373020,-6689133 -373086,-6689146 -373105,-6689152 -373126,-6689161 -373137,-6689164 -373181,-6689174 -373223,-6689179 -373255,-6689186 -373267,-6689188 -373279,-6689189 -373306,-6689189 -373313,-6689190 -373331,-6689198 -373356,-6689207 -373427,-6689221 -373440,-6689225 -373448,-6689236 -373469,-6689247 -373479,-6689250 -373533,-6689258 -373562,-6689264 -373576,-6689268 -373597,-6689278 -373672,-6689333 -373709,-6689343 -373755,-6689350 -373782,-6689350 -373795,-6689348 -373810,-6689346 -373842,-6689338 -373921,-6689313 -373944,-6689311 -373980,-6689311 -373996,-6689307 -374012,-6689302 -374021,-6689304 -374025,-6689312 -374039,-6689311 -374054,-6689306 -374062,-6689307 -374069,-6689308 -374078,-6689314 -374093,-6689318 -374135,-6689323 -374199,-6689327 -374274,-6689340 -374333,-6689359 -374336,-6689348 -374328,-6689342 -374345,-6689342 -374355,-6689343 -374365,-6689345 -374391,-6689353 -374447,-6689374 -374519,-6689397 -374611,-6689416 -374626,-6689418 -374638,-6689419 -374649,-6689419 -374668,-6689417 -374708,-6689407 -374716,-6689404 -374723,-6689400 -374735,-6689392 -374760,-6689361 -374807,-6689328 -374814,-6689323 -374819,-6689319 -374822,-6689314 -374827,-6689303 -374829,-6689297 -374827,-6689286 -374821,-6689274 -374794,-6689243 -374789,-6689235 -374784,-6689228 -374782,-6689222 -374781,-6689215 -374784,-6689203 -374791,-6689191 -374798,-6689185 -374804,-6689178 -374826,-6689162 -374880,-6689126 -374905,-6689112 -374917,-6689107 -374985,-6689086 -375006,-6689080 -375027,-6689075 -375153,-6689051 -375218,-6689042 -375277,-6689039 -375323,-6689040 -375365,-6689044 -375381,-6689043 -375429,-6689045 -375467,-6689039 -375498,-6689038 -375542,-6689038 -375564,-6689037 -375587,-6689035 -375632,-6689029 -375738,-6689020 -375780,-6689018 -375820,-6689009 -375842,-6689008 -375862,-6689005 -375897,-6688994 -375977,-6688973 -376051,-6688949 -376100,-6688937 -376115,-6688935 -376150,-6688932 -376220,-6688921 -376266,-6688913 -376303,-6688909 -376362,-6688908 -376466,-6688904 -376500,-6688904 -376526,-6688905 -376574,-6688901 -376672,-6688906 -376738,-6688917 -376759,-6688917 -376774,-6688913 -376849,-6688879 -376871,-6688872 -376919,-6688868 -376952,-6688868 -376983,-6688866 -377022,-6688870 -377054,-6688872 -377100,-6688868 -377120,-6688870 -377155,-6688875 -377216,-6688877 -377268,-6688884 -377331,-6688896 -377349,-6688897 -377371,-6688890 -377381,-6688886 -377439,-6688856 -377461,-6688848 -377480,-6688844 -377535,-6688832 -377568,-6688821 -377636,-6688786 -377670,-6688760 -377680,-6688754 -377701,-6688747 -377742,-6688736 -377763,-6688730 -377772,-6688726 -377794,-6688715 -377807,-6688711 -377833,-6688704 -377845,-6688702 -377868,-6688700 -377892,-6688694 -377951,-6688689 -377973,-6688685 -377994,-6688682 -378025,-6688683 -378045,-6688683 -378072,-6688689 -378081,-6688696 -378091,-6688720 -378099,-6688726 -378107,-6688728 -378110,-6688726 -378126,-6688714 -378168,-6688684 -378192,-6688666 -378212,-6688657 -378258,-6688652 -378286,-6688651 -378304,-6688655 -378313,-6688660 -378335,-6688677 -378344,-6688680 -378354,-6688683 -378379,-6688687 -378399,-6688686 -378407,-6688685 -378416,-6688682 -378449,-6688671 -378454,-6688671 -378498,-6688681 -378524,-6688683 -378537,-6688684 -378559,-6688679 -378605,-6688663 -378635,-6688655 -378662,-6688654 -378681,-6688658 -378691,-6688661 -378701,-6688664 -378722,-6688674 -378733,-6688681 -378754,-6688697 -378778,-6688717 -378792,-6688726 -378807,-6688739 -378815,-6688744 -378823,-6688742 -378832,-6688734 -378837,-6688721 -378851,-6688692 -378877,-6688644 -378895,-6688617 -378903,-6688610 -378918,-6688600 -378926,-6688596 -378943,-6688592 -379040,-6688582 -379094,-6688570 -379121,-6688567 -379145,-6688568 -379198,-6688575 -379228,-6688578 -379240,-6688578 -379259,-6688577 -379438,-6688619 -379553,-6688653 -379590,-6688668 -379599,-6688673 -379608,-6688678 -379616,-6688686 -379622,-6688694 -379627,-6688702 -379653,-6688750 -379678,-6688806 -379696,-6688823 -379711,-6688840 -379733,-6688844 -379752,-6688871 -379794,-6688925 -379827,-6688977 -379832,-6688974 -379857,-6688954 -379864,-6688937 -379869,-6688930 -379880,-6688928 -379889,-6688934 -379894,-6688944 -379895,-6688956 -379914,-6688973 -379920,-6688981 -379916,-6688990 -379906,-6689002 -379904,-6689006 -379900,-6689024 -379889,-6689058 -379892,-6689069 -379902,-6689077 -379923,-6689087 -379964,-6689115 -380031,-6689167 -380111,-6689223 -380152,-6689255 -380171,-6689273 -380179,-6689285 -380205,-6689325 -380212,-6689333 -380235,-6689359 -380263,-6689413 -380267,-6689426 -380269,-6689444 -380267,-6689473 -380265,-6689483 -380249,-6689525 -380228,-6689567 -380223,-6689581 -380217,-6689614 -380218,-6689621 -380219,-6689626 -380221,-6689631 -380229,-6689639 -380234,-6689643 -380262,-6689645 -380297,-6689643 -380316,-6689630 -380359,-6689579 -380370,-6689568 -380393,-6689552 -380425,-6689539 -380454,-6689531 -380475,-6689528 -380495,-6689531 -380515,-6689542 -380546,-6689563 -380596,-6689593 -380617,-6689599 -380631,-6689600 -380648,-6689592 -380652,-6689591 -380666,-6689595 -380683,-6689603 -380710,-6689623 -380723,-6689640 -380730,-6689653 -380734,-6689664 -380737,-6689665 -380739,-6689666 -380744,-6689661 -380749,-6689641 -380753,-6689637 -380762,-6689637 -380789,-6689648 -380801,-6689647 -380807,-6689649 -380821,-6689655 -380829,-6689659 -380842,-6689672 -380847,-6689679 -380850,-6689685 -380853,-6689697 -380852,-6689707 -380835,-6689744 -380836,-6689756 -380844,-6689763 -380848,-6689764 -380852,-6689763 -380866,-6689759 -380876,-6689760 -380879,-6689768 -380879,-6689775 -380875,-6689779 -380870,-6689783 -380857,-6689791 -380848,-6689799 -380845,-6689806 -380848,-6689814 -380853,-6689821 -380886,-6689834 -380902,-6689840 -380934,-6689847 -380950,-6689849 -380966,-6689850 -380984,-6689850 -381002,-6689849 -381029,-6689845 -381077,-6689824 -381098,-6689807 -381148,-6689781 -381164,-6689773 -381181,-6689767 -381217,-6689755 -381234,-6689750 -381301,-6689740 -381318,-6689736 -381367,-6689723 -381390,-6689721 -381413,-6689724 -381438,-6689734 -381459,-6689748 -381469,-6689758 -381495,-6689793 -381502,-6689808 -381532,-6689818 -381542,-6689814 -381532,-6689800 -381507,-6689786 -381512,-6689773 -381520,-6689770 -381528,-6689776 -381548,-6689792 -381561,-6689804 -381580,-6689830 -381598,-6689842 -381605,-6689870 -381622,-6689875 -381640,-6689863 -381663,-6689873 -381664,-6689889 -381679,-6689898 -381700,-6689893 -381734,-6689908 -381803,-6689930 -381843,-6689955 -381877,-6689983 -381935,-6690016 -381965,-6690022 -381999,-6690022 -382026,-6690011 -382034,-6690022 -382053,-6690035 -382094,-6690056 -382129,-6690065 -382179,-6690085 -382193,-6690090 -382267,-6690095 -382359,-6690094 -382385,-6690100 -382412,-6690113 -382430,-6690118 -382432,-6690119 -382441,-6690127 -382508,-6690136 -382544,-6690138 -382580,-6690130 -382591,-6690133 -382616,-6690136 -382650,-6690134 -382687,-6690134 -382690,-6690127 -382705,-6690126 -382711,-6690130 -382735,-6690131 -382757,-6690127 -382773,-6690121 -382810,-6690111 -382857,-6690104 -382865,-6690102 -382876,-6690097 -382886,-6690092 -382893,-6690087 -382913,-6690070 -382922,-6690064 -382932,-6690060 -382940,-6690058 -382969,-6690053 -383037,-6690045 -383075,-6690035 -383085,-6690034 -383117,-6690030 -383145,-6690029 -383194,-6690027 -383232,-6690028 -383278,-6690032 -383304,-6690033 -383310,-6690032 -383334,-6690025 -383344,-6690023 -383367,-6690021 -383404,-6690023 -383427,-6690026 -383436,-6690025 -383461,-6690020 -383495,-6690017 -383505,-6690015 -383521,-6690012 -383559,-6690001 -383572,-6689999 -383593,-6690000 -383600,-6689998 -383621,-6689990 -383641,-6689986 -383649,-6689986 -383673,-6689988 -383719,-6689990 -383753,-6689988 -383817,-6690003 -383837,-6690010 -383845,-6690013 -383863,-6690026 -383871,-6690029 -383899,-6690038 -383921,-6690048 -383937,-6690057 -383958,-6690073 -383974,-6690081 -383994,-6690088 -383998,-6690091 -384000,-6690093 -384006,-6690107 -384010,-6690112 -384021,-6690119 -384043,-6690128 -384054,-6690131 -384091,-6690139 -384115,-6690140 -384119,-6690141 -384126,-6690144 -384139,-6690153 -384152,-6690169 -384157,-6690173 -384163,-6690176 -384168,-6690178 -384182,-6690177 -384189,-6690179 -384192,-6690182 -384197,-6690192 -384200,-6690195 -384203,-6690196 -384219,-6690199 -384262,-6690212 -384271,-6690216 -384303,-6690234 -384317,-6690239 -384361,-6690250 -384433,-6690260 -384542,-6690283 -384560,-6690286 -384613,-6690290 -384684,-6690292 -384697,-6690294 -384727,-6690304 -384734,-6690305 -384753,-6690304 -384771,-6690306 -384855,-6690324 -384912,-6690341 -384922,-6690345 -384987,-6690384 -385047,-6690404 -385076,-6690415 -385142,-6690445 -385189,-6690468 -385317,-6690511 -385365,-6690530 -385497,-6690586 -385535,-6690601 -385614,-6690623 -385665,-6690641 -385670,-6690645 -385685,-6690661 -385692,-6690666 -385694,-6690665 -385703,-6690659 -385708,-6690659 -385722,-6690662 -385766,-6690678 -385805,-6690699 -385815,-6690703 -385828,-6690706 -385860,-6690712 -385870,-6690715 -385890,-6690724 -385906,-6690734 -385919,-6690739 -385927,-6690741 -385933,-6690741 -385937,-6690740 -385956,-6690733 -385968,-6690731 -385996,-6690728 -386008,-6690729 -386025,-6690735 -386053,-6690744 -386068,-6690751 -386097,-6690768 -386110,-6690772 -386114,-6690774 -386117,-6690777 -386125,-6690792 -386130,-6690796 -386136,-6690801 -386141,-6690804 -386147,-6690805 -386160,-6690802 -386172,-6690803 -386183,-6690805 -386193,-6690809 -386216,-6690821 -386259,-6690840 -386283,-6690852 -386305,-6690857 -386310,-6690858 -386330,-6690871 -386346,-6690885 -386362,-6690893 -386373,-6690901 -386375,-6690902 -386378,-6690903 -386390,-6690899 -386396,-6690898 -386401,-6690899 -386405,-6690900 -386407,-6690902 -386414,-6690916 -386420,-6690921 -386427,-6690927 -386438,-6690933 -386454,-6690936 -386459,-6690939 -386479,-6690951 -386489,-6690956 -386497,-6690959 -386524,-6690966 -386540,-6690972 -386549,-6690977 -386558,-6690983 -386564,-6690989 -386577,-6691004 -386588,-6691013 -386603,-6691019 -386626,-6691033 -386638,-6691039 -386648,-6691042 -386662,-6691045 -386674,-6691047 -386682,-6691047 -386698,-6691042 -386706,-6691042 -386711,-6691043 -386729,-6691049 -386743,-6691050 -386764,-6691049 -386796,-6691041 -386821,-6691038 -386834,-6691034 -386861,-6691024 -386889,-6691006 -386967,-6690966 -386995,-6690952 -387052,-6690928 -387070,-6690922 -387092,-6690918 -387108,-6690915 -387165,-6690912 -387175,-6690911 -387206,-6690906 -387215,-6690905 -387219,-6690906 -387230,-6690911 -387259,-6690929 -387278,-6690932 -387287,-6690935 -387300,-6690941 -387317,-6690951 -387346,-6690970 -387361,-6690985 -387367,-6690988 -387382,-6690992 -387389,-6690995 -387392,-6690999 -387400,-6691014 -387404,-6691017 -387412,-6691018 -387438,-6691018 -387445,-6691020 -387468,-6691028 -387499,-6691043 -387508,-6691046 -387547,-6691055 -387592,-6691061 -387617,-6691062 -387624,-6691064 -387630,-6691066 -387654,-6691077 -387679,-6691086 -387721,-6691096 -387741,-6691101 -387804,-6691119 -387826,-6691125 -387847,-6691132 -387863,-6691135 -387900,-6691139 -387918,-6691143 -387938,-6691153 -388001,-6691178 -388031,-6691186 -388170,-6691234 -388214,-6691254 -388238,-6691262 -388275,-6691273 -388306,-6691286 -388318,-6691289 -388323,-6691290 -388340,-6691289 -388347,-6691290 -388357,-6691293 -388378,-6691301 -388384,-6691301 -388387,-6691300 -388398,-6691291 -388400,-6691287 -388404,-6691276 -388408,-6691276 -388419,-6691290 -388428,-6691297 -388443,-6691305 -388475,-6691323 -388484,-6691327 -388500,-6691329 -388506,-6691332 -388517,-6691343 -388520,-6691344 -388543,-6691339 -388553,-6691334 -388554,-6691334 -388557,-6691340 -388558,-6691340 -388575,-6691335 -388584,-6691334 -388596,-6691335 -388606,-6691338 -388666,-6691365 -388678,-6691372 -388705,-6691392 -388717,-6691398 -388721,-6691399 -388743,-6691398 -388778,-6691403 -388783,-6691403 -388808,-6691399 -388864,-6691405 -388881,-6691404 -388904,-6691405 -388914,-6691404 -388923,-6691402 -388932,-6691397 -388938,-6691393 -388945,-6691387 -388950,-6691386 -388960,-6691389 -388963,-6691389 -388984,-6691385 -388992,-6691381 -389003,-6691371 -389010,-6691366 -389032,-6691362 -389035,-6691363 -389045,-6691370 -389053,-6691370 -389068,-6691378 -389080,-6691379 -389086,-6691385 -389087,-6691386 -389096,-6691384 -389098,-6691385 -389101,-6691390 -389109,-6691389 -389120,-6691391 -389127,-6691390 -389129,-6691391 -389139,-6691399 -389145,-6691403 -389149,-6691404 -389158,-6691404 -389161,-6691405 -389166,-6691409 -389184,-6691411 -389208,-6691404 -389216,-6691405 -389228,-6691402 -389230,-6691402 -389241,-6691417 -389245,-6691420 -389250,-6691423 -389256,-6691424 -389260,-6691424 -389270,-6691420 -389272,-6691418 -389275,-6691408 -389276,-6691405 -389279,-6691404 -389281,-6691403 -389290,-6691404 -389305,-6691413 -389314,-6691420 -389320,-6691420 -389328,-6691424 -389341,-6691427 -389346,-6691430 -389356,-6691426 -389359,-6691426 -389361,-6691427 -389363,-6691429 -389365,-6691440 -389366,-6691443 -389377,-6691446 -389384,-6691451 -389386,-6691452 -389389,-6691452 -389395,-6691449 -389404,-6691449 -389419,-6691440 -389422,-6691439 -389425,-6691440 -389433,-6691447 -389437,-6691448 -389440,-6691448 -389463,-6691436 -389465,-6691436 -389468,-6691437 -389470,-6691439 -389470,-6691442 -389469,-6691456 -389469,-6691460 -389471,-6691464 -389475,-6691466 -389479,-6691468 -389489,-6691467 -389499,-6691464 -389513,-6691455 -389520,-6691451 -389547,-6691435 -389550,-6691432 -389554,-6691427 -389557,-6691420 -389557,-6691417 -389556,-6691404 -389555,-6691397 -389555,-6691395 -389557,-6691393 -389570,-6691386 -389572,-6691384 -389588,-6691340 -389589,-6691330 -389590,-6691329 -389592,-6691329 -389594,-6691330 -389596,-6691334 -389594,-6691352 -389595,-6691353 -389598,-6691355 -389601,-6691355 -389605,-6691352 -389608,-6691347 -389611,-6691340 -389612,-6691331 -389612,-6691297 -389614,-6691273 -389622,-6691241 -389630,-6691222 -389633,-6691218 -389660,-6691198 -389689,-6691181 -389699,-6691171 -389708,-6691169 -389742,-6691167 -389749,-6691164 -389760,-6691157 -389764,-6691155 -389779,-6691157 -389807,-6691163 -389832,-6691165 -389845,-6691163 -389864,-6691159 -389872,-6691160 -389911,-6691166 -389926,-6691170 -389951,-6691179 -389980,-6691187 -390021,-6691196 -390047,-6691203 -390057,-6691204 -390070,-6691206 -390080,-6691205 -390094,-6691202 -390124,-6691192 -390137,-6691189 -390179,-6691190 -390199,-6691194 -390212,-6691197 -390221,-6691200 -390226,-6691203 -390231,-6691207 -390237,-6691216 -390244,-6691227 -390249,-6691240 -390253,-6691252 -390255,-6691260 -390255,-6691263 -390247,-6691279 -390245,-6691285 -390246,-6691295 -390245,-6691301 -390243,-6691302 -390239,-6691302 -390230,-6691301 -390229,-6691302 -390229,-6691318 -390232,-6691336 -390233,-6691340 -390248,-6691375 -390254,-6691387 -390280,-6691429 -390291,-6691446 -390301,-6691459 -390310,-6691469 -390356,-6691513 -390463,-6691595 -390494,-6691624 -390522,-6691652 -390605,-6691750 -390651,-6691794 -390679,-6691818 -390707,-6691840 -390743,-6691862 -390751,-6691866 -390755,-6691868 -390776,-6691872 -390802,-6691875 -390809,-6691879 -390837,-6691895 -390903,-6691918 -390924,-6691924 -390933,-6691925 -390943,-6691926 -390995,-6691927 -391057,-6691923 -391129,-6691920 -391157,-6691925 -391170,-6691930 -391175,-6691934 -391184,-6691943 -391190,-6691955 -391193,-6691965 -391199,-6691976 -391210,-6691992 -391230,-6692013 -391255,-6692032 -391262,-6692037 -391283,-6692048 -391292,-6692051 -391297,-6692051 -391310,-6692048 -391316,-6692046 -391318,-6692044 -391321,-6692041 -391329,-6692025 -391334,-6692021 -391344,-6692015 -391351,-6692012 -391366,-6692008 -391374,-6692007 -391384,-6692008 -391393,-6692010 -391439,-6692037 -391452,-6692026 -391466,-6692022 -391490,-6692021 -391502,-6692022 -391524,-6692027 -391556,-6692039 -391592,-6692046 -391664,-6692054 -391684,-6692057 -391726,-6692075 -391751,-6692088 -391784,-6692099 -391804,-6692103 -391863,-6692112 -391876,-6692115 -391889,-6692122 -391905,-6692133 -391929,-6692147 -391965,-6692156 -391993,-6692172 -392015,-6692179 -392037,-6692187 -392081,-6692198 -392145,-6692210 -392184,-6692213 -392205,-6692214 -392230,-6692213 -392254,-6692212 -392289,-6692209 -392412,-6692184 -392434,-6692177 -392460,-6692171 -392534,-6692150 -392577,-6692144 -392622,-6692141 -392707,-6692134 -392765,-6692122 -392796,-6692120 -392807,-6692118 -392831,-6692113 -392848,-6692103 -392859,-6692094 -392871,-6692089 -392917,-6692081 -392931,-6692077 -392951,-6692069 -392968,-6692056 -392969,-6692054 -392971,-6692041 -392973,-6692038 -392985,-6692031 -392987,-6692030 -392993,-6692030 -393013,-6692036 -393026,-6692035 -393028,-6692033 -393031,-6692031 -393032,-6692028 -393032,-6692026 -393031,-6692024 -393017,-6692015 -393015,-6692013 -393014,-6692009 -393014,-6692006 -393047,-6691997 -393059,-6691989 -393070,-6691980 -393082,-6691962 -393082,-6691951 -393079,-6691931 -393079,-6691929 -393081,-6691927 -393095,-6691922 -393107,-6691928 -393112,-6691929 -393118,-6691929 -393125,-6691927 -393136,-6691923 -393152,-6691915 -393188,-6691910 -393189,-6691896 -393203,-6691903 -393207,-6691903 -393214,-6691901 -393224,-6691896 -393241,-6691887 -393245,-6691877 -393254,-6691877 -393260,-6691877 -393265,-6691875 -393272,-6691871 -393282,-6691862 -393312,-6691842 -393336,-6691823 -393363,-6691798 -393387,-6691778 -393440,-6691748 -393466,-6691734 -393474,-6691731 -393495,-6691726 -393541,-6691722 -393607,-6691715 -393636,-6691710 -393675,-6691702 -393697,-6691700 -393702,-6691693 -393698,-6691672 -393700,-6691671 -393709,-6691667 -393731,-6691666 -393765,-6691658 -393776,-6691655 -393803,-6691641 -393809,-6691641 -393866,-6691645 -393909,-6691651 -393925,-6691654 -393961,-6691664 -393992,-6691677 -394026,-6691681 -394084,-6691684 -394096,-6691673 -394103,-6691668 -394107,-6691666 -394118,-6691667 -394162,-6691680 -394190,-6691684 -394219,-6691680 -394226,-6691685 -394222,-6691692 -394214,-6691699 -394216,-6691702 -394218,-6691705 -394229,-6691711 -394234,-6691712 -394243,-6691713 -394251,-6691713 -394267,-6691709 -394268,-6691690 -394276,-6691686 -394286,-6691687 -394314,-6691696 -394337,-6691700 -394347,-6691703 -394371,-6691722 -394378,-6691727 -394398,-6691714 -394402,-6691714 -394407,-6691716 -394412,-6691719 -394418,-6691725 -394434,-6691735 -394444,-6691729 -394456,-6691725 -394464,-6691737 -394471,-6691751 -394484,-6691745 -394494,-6691744 -394501,-6691745 -394512,-6691752 -394536,-6691750 -394587,-6691755 -394596,-6691756 -394637,-6691773 -394685,-6691789 -394686,-6691783 -394674,-6691770 -394670,-6691764 -394667,-6691757 -394667,-6691755 -394669,-6691753 -394678,-6691752 -394689,-6691753 -394697,-6691754 -394722,-6691761 -394730,-6691765 -394733,-6691769 -394736,-6691774 -394737,-6691784 -394744,-6691814 -394748,-6691821 -394751,-6691827 -394755,-6691829 -394761,-6691833 -394768,-6691834 -394775,-6691834 -394781,-6691832 -394785,-6691829 -394789,-6691823 -394791,-6691819 -394790,-6691806 -394791,-6691802 -394793,-6691800 -394797,-6691800 -394802,-6691800 -394806,-6691802 -394845,-6691829 -394854,-6691833 -394950,-6691875 -395049,-6691925 -395102,-6691950 -395150,-6691971 -395222,-6692006 -395293,-6692038 -395350,-6692060 -395429,-6692080 -395479,-6692092 -395567,-6692106 -395611,-6692114 -395642,-6692116 -395660,-6692119 -395709,-6692128 -395728,-6692135 -395733,-6692139 -395747,-6692151 -395752,-6692154 -395758,-6692155 -395771,-6692156 -395788,-6692159 -395825,-6692186 -395831,-6692190 -395835,-6692191 -395840,-6692191 -395853,-6692185 -395870,-6692183 -395885,-6692185 -395926,-6692200 -395933,-6692204 -395938,-6692205 -395966,-6692197 -395979,-6692197 -395991,-6692200 -396001,-6692208 -396009,-6692217 -396015,-6692221 -396022,-6692225 -396043,-6692232 -396062,-6692244 -396072,-6692252 -396094,-6692275 -396108,-6692272 -396118,-6692276 -396133,-6692290 -396147,-6692290 -396152,-6692292 -396163,-6692298 -396165,-6692300 -396168,-6692307 -396168,-6692341 -396169,-6692348 -396171,-6692355 -396172,-6692357 -396176,-6692360 -396181,-6692361 -396186,-6692361 -396189,-6692359 -396192,-6692356 -396194,-6692354 -396200,-6692324 -396203,-6692315 -396206,-6692311 -396209,-6692309 -396214,-6692308 -396219,-6692308 -396222,-6692309 -396231,-6692315 -396247,-6692323 -396269,-6692339 -396274,-6692344 -396282,-6692354 -396297,-6692379 -396301,-6692385 -396310,-6692390 -396312,-6692393 -396314,-6692396 -396319,-6692417 -396330,-6692437 -396334,-6692443 -396342,-6692451 -396351,-6692459 -396370,-6692471 -396394,-6692489 -396400,-6692496 -396410,-6692512 -396421,-6692538 -396434,-6692547 -396441,-6692536 -396444,-6692535 -396448,-6692535 -396452,-6692537 -396456,-6692539 -396459,-6692543 -396461,-6692546 -396467,-6692565 -396471,-6692592 -396477,-6692616 -396483,-6692636 -396487,-6692645 -396497,-6692664 -396509,-6692678 -396517,-6692685 -396521,-6692688 -396524,-6692688 -396532,-6692688 -396551,-6692682 -396558,-6692682 -396562,-6692683 -396568,-6692688 -396584,-6692708 -396597,-6692703 -396602,-6692703 -396609,-6692704 -396616,-6692706 -396629,-6692712 -396634,-6692716 -396641,-6692722 -396651,-6692740 -396662,-6692751 -396664,-6692756 -396665,-6692763 -396666,-6692768 -396666,-6692788 -396668,-6692793 -396670,-6692798 -396672,-6692800 -396682,-6692805 -396687,-6692821 -396689,-6692825 -396695,-6692828 -396713,-6692832 -396719,-6692834 -396722,-6692837 -396738,-6692857 -396763,-6692876 -396802,-6692887 -396809,-6692887 -396813,-6692888 -396820,-6692893 -396824,-6692898 -396825,-6692903 -396822,-6692908 -396808,-6692918 -396806,-6692921 -396805,-6692926 -396805,-6692930 -396814,-6692948 -396828,-6692957 -396834,-6692962 -396837,-6692965 -396839,-6692970 -396845,-6692981 -396846,-6692988 -396844,-6692995 -396840,-6693001 -396830,-6693005 -396818,-6693008 -396813,-6693010 -396810,-6693014 -396809,-6693020 -396813,-6693026 -396823,-6693034 -396850,-6693063 -396869,-6693071 -396875,-6693076 -396878,-6693086 -396879,-6693093 -396881,-6693099 -396884,-6693107 -396887,-6693111 -396893,-6693116 -396908,-6693116 -396911,-6693117 -396914,-6693120 -396917,-6693126 -396942,-6693200 -396944,-6693207 -396943,-6693239 -396941,-6693251 -396944,-6693273 -396947,-6693286 -396957,-6693308 -396961,-6693327 -396966,-6693338 -396971,-6693347 -396979,-6693360 -396983,-6693368 -396988,-6693379 -396990,-6693386 -396989,-6693400 -396987,-6693415 -396987,-6693420 -396991,-6693439 -396989,-6693456 -396991,-6693487 -396990,-6693499 -396984,-6693515 -396979,-6693543 -396979,-6693593 -396977,-6693618 -396978,-6693623 -396980,-6693625 -396984,-6693626 -396993,-6693626 -397001,-6693621 -397004,-6693618 -397009,-6693611 -397013,-6693610 -397017,-6693611 -397019,-6693612 -397020,-6693617 -397018,-6693633 -397018,-6693636 -397025,-6693675 -397030,-6693692 -397042,-6693712 -397046,-6693717 -397056,-6693725 -397067,-6693730 -397071,-6693735 -397075,-6693740 -397081,-6693754 -397082,-6693761 -397081,-6693765 -397079,-6693769 -397076,-6693773 -397064,-6693780 -397062,-6693782 -397064,-6693788 -397066,-6693794 -397073,-6693801 -397080,-6693818 -397085,-6693826 -397101,-6693846 -397105,-6693859 -397131,-6693904 -397143,-6693943 -397156,-6693974 -397160,-6693979 -397167,-6693987 -397186,-6694004 -397190,-6694012 -397195,-6694029 -397222,-6694078 -397230,-6694086 -397257,-6694102 -397284,-6694127 -397293,-6694137 -397308,-6694158 -397345,-6694206 -397361,-6694222 -397389,-6694250 -397402,-6694266 -397446,-6694307 -397449,-6694312 -397452,-6694322 -397451,-6694335 -397452,-6694343 -397454,-6694350 -397456,-6694354 -397468,-6694368 -397495,-6694393 -397506,-6694406 -397507,-6694408 -397507,-6694412 -397506,-6694415 -397505,-6694417 -397502,-6694418 -397497,-6694419 -397493,-6694418 -397463,-6694399 -397470,-6694418 -397475,-6694429 -397491,-6694463 -397494,-6694467 -397499,-6694479 -397516,-6694507 -397524,-6694519 -397539,-6694538 -397546,-6694546 -397565,-6694561 -397579,-6694569 -397595,-6694582 -397601,-6694590 -397613,-6694611 -397617,-6694627 -397617,-6694634 -397611,-6694651 -397605,-6694665 -397606,-6694669 -397608,-6694676 -397611,-6694681 -397616,-6694683 -397638,-6694687 -397651,-6694692 -397654,-6694694 -397656,-6694697 -397652,-6694700 -397637,-6694704 -397636,-6694705 -397636,-6694708 -397637,-6694711 -397639,-6694713 -397654,-6694723 -397659,-6694727 -397664,-6694732 -397693,-6694772 -397738,-6694814 -397748,-6694818 -397770,-6694854 -397778,-6694857 -397784,-6694856 -397788,-6694850 -397802,-6694866 -397826,-6694902 -397835,-6694912 -397895,-6694954 -397909,-6694968 -397908,-6694970 -397907,-6694971 -397892,-6694967 -397882,-6694969 -397890,-6694980 -397902,-6694979 -397916,-6694992 -397923,-6695005 -397938,-6695013 -397951,-6695028 -397966,-6695043 -398001,-6695080 -398033,-6695105 -398041,-6695113 -398064,-6695137 -398083,-6695156 -398103,-6695173 -398111,-6695180 -398151,-6695192 -398186,-6695223 -398196,-6695227 -398209,-6695256 -398223,-6695256 -398227,-6695257 -398231,-6695260 -398234,-6695263 -398251,-6695289 -398270,-6695295 -398303,-6695322 -398334,-6695346 -398339,-6695350 -398346,-6695360 -398376,-6695405 -398381,-6695409 -398387,-6695413 -398404,-6695419 -398408,-6695421 -398418,-6695434 -398424,-6695440 -398438,-6695451 -398446,-6695456 -398466,-6695464 -398498,-6695477 -398503,-6695484 -398508,-6695493 -398508,-6695498 -398507,-6695519 -398508,-6695535 -398511,-6695570 -398515,-6695591 -398528,-6695631 -398545,-6695697 -398555,-6695733 -398566,-6695753 -398574,-6695763 -398625,-6695810 -398652,-6695840 -398680,-6695868 -398690,-6695885 -398699,-6695907 -398703,-6695926 -398705,-6695942 -398706,-6695956 -398704,-6696011 -398706,-6696021 -398712,-6696040 -398737,-6696098 -398785,-6696202 -398797,-6696229 -398803,-6696245 -398805,-6696251 -398810,-6696289 -398823,-6696323 -398842,-6696356 -398856,-6696374 -398873,-6696402 -398891,-6696436 -398909,-6696470 -398919,-6696487 -398931,-6696504 -398947,-6696548 -398970,-6696616 -398989,-6696667 -398996,-6696692 -399004,-6696704 -399013,-6696715 -399025,-6696733 -399037,-6696750 -399041,-6696756 -399073,-6696798 -399078,-6696806 -399081,-6696813 -399088,-6696835 -399093,-6696845 -399100,-6696864 -399117,-6696905 -399126,-6696917 -399139,-6696942 -399161,-6696992 -399178,-6697015 -399194,-6697042 -399267,-6697175 -399285,-6697196 -399294,-6697224 -399296,-6697228 -399308,-6697243 -399320,-6697263 -399361,-6697325 -399370,-6697334 -399398,-6697351 -399402,-6697356 -399405,-6697361 -399409,-6697378 -399421,-6697400 -399430,-6697409 -399451,-6697434 -399471,-6697468 -399481,-6697482 -399485,-6697487 -399492,-6697494 -399495,-6697501 -399504,-6697530 -399527,-6697566 -399531,-6697589 -399535,-6697627 -399541,-6697637 -399558,-6697670 -399565,-6697689 -399571,-6697699 -399573,-6697705 -399587,-6697736 -399598,-6697754 -399619,-6697796 -399628,-6697810 -399660,-6697857 -399663,-6697865 -399673,-6697896 -399680,-6697915 -399696,-6697951 -399718,-6697982 -399739,-6698026 -399757,-6698057 -399771,-6698078 -399784,-6698076 -399788,-6698077 -399799,-6698081 -399813,-6698104 -399830,-6698123 -399832,-6698133 -399833,-6698151 -399833,-6698155 -399836,-6698159 -399859,-6698184 -399863,-6698191 -399866,-6698197 -399869,-6698210 -399874,-6698242 -399877,-6698249 -399886,-6698267 -399886,-6698288 -399888,-6698298 -399894,-6698316 -399905,-6698341 -399912,-6698351 -399945,-6698389 -399960,-6698407 -399968,-6698418 -399991,-6698451 -400070,-6698537 -400079,-6698546 -400096,-6698544 -400105,-6698544 -400114,-6698547 -400122,-6698551 -400131,-6698562 -400134,-6698571 -400139,-6698586 -400146,-6698591 -400152,-6698591 -400162,-6698585 -400164,-6698585 -400167,-6698586 -400170,-6698589 -400171,-6698592 -400174,-6698611 -400177,-6698621 -400181,-6698632 -400184,-6698637 -400187,-6698638 -400192,-6698640 -400196,-6698640 -400199,-6698639 -400201,-6698636 -400203,-6698630 -400212,-6698604 -400214,-6698601 -400217,-6698599 -400220,-6698598 -400224,-6698597 -400227,-6698598 -400229,-6698599 -400254,-6698628 -400265,-6698634 -400275,-6698637 -400287,-6698643 -400303,-6698659 -400319,-6698679 -400324,-6698682 -400327,-6698681 -400330,-6698680 -400332,-6698676 -400333,-6698668 -400329,-6698655 -400315,-6698627 -400310,-6698612 -400303,-6698595 -400302,-6698583 -400304,-6698574 -400307,-6698566 -400310,-6698559 -400313,-6698557 -400317,-6698560 -400325,-6698570 -400329,-6698576 -400334,-6698595 -400339,-6698614 -400349,-6698662 -400355,-6698686 -400363,-6698710 -400371,-6698725 -400381,-6698740 -400383,-6698742 -400387,-6698744 -400392,-6698745 -400396,-6698745 -400398,-6698743 -400401,-6698739 -400401,-6698725 -400406,-6698707 -400409,-6698703 -400412,-6698702 -400419,-6698701 -400436,-6698709 -400441,-6698717 -400444,-6698727 -400445,-6698738 -400442,-6698761 -400442,-6698786 -400443,-6698789 -400448,-6698795 -400453,-6698799 -400455,-6698800 -400459,-6698799 -400480,-6698785 -400487,-6698785 -400491,-6698786 -400494,-6698789 -400497,-6698794 -400499,-6698800 -400500,-6698805 -400500,-6698822 -400505,-6698837 -400511,-6698847 -400536,-6698883 -400593,-6699010 -400597,-6699032 -400600,-6699063 -400647,-6699134 -400730,-6699247 -400792,-6699353 -400804,-6699372 -400817,-6699390 -400833,-6699410 -400884,-6699467 -400972,-6699539 -401029,-6699582 -401057,-6699603 -401124,-6699638 -401143,-6699644 -401179,-6699649 -401196,-6699652 -401212,-6699656 -401242,-6699665 -401286,-6699649 -401292,-6699647 -401305,-6699646 -401328,-6699647 -401353,-6699653 -401363,-6699660 -401378,-6699676 -401383,-6699679 -401420,-6699688 -401441,-6699699 -401475,-6699711 -401515,-6699733 -401556,-6699763 -401569,-6699780 -401576,-6699793 -401580,-6699797 -401585,-6699801 -401592,-6699804 -401628,-6699821 -401634,-6699822 -401640,-6699825 -401643,-6699828 -401645,-6699833 -401645,-6699836 -401642,-6699839 -401608,-6699843 -401619,-6699866 -401630,-6699882 -401684,-6699970 -401837,-6700213 -401893,-6700309 -401932,-6700382 -401953,-6700411 -401969,-6700431 -402018,-6700501 -402044,-6700533 -402077,-6700579 -402102,-6700625 -402106,-6700635 -402119,-6700669 -402126,-6700678 -402193,-6700769 -402296,-6700905 -402326,-6700947 -402369,-6701002 -402394,-6701035 -402447,-6701097 -402464,-6701099 -402473,-6701104 -402476,-6701110 -402479,-6701115 -402480,-6701119 -402480,-6701125 -402479,-6701131 -402476,-6701138 -402476,-6701141 -402478,-6701148 -402483,-6701158 -402516,-6701194 -402528,-6701205 -402542,-6701222 -402569,-6701250 -402649,-6701325 -402722,-6701408 -402785,-6701486 -402791,-6701491 -402804,-6701503 -402815,-6701512 -402823,-6701517 -402860,-6701536 -402928,-6701563 -402987,-6701598 -403003,-6701612 -403008,-6701619 -403016,-6701631 -403030,-6701647 -403078,-6701691 -403114,-6701717 -403117,-6701720 -403123,-6701727 -403134,-6701750 -403145,-6701765 -403156,-6701775 -403179,-6701790 -403211,-6701807 -403223,-6701812 -403268,-6701825 -403319,-6701849 -403385,-6701876 -403396,-6701879 -403403,-6701883 -403411,-6701889 -403418,-6701895 -403431,-6701913 -403441,-6701920 -403451,-6701925 -403463,-6701929 -403475,-6701932 -403485,-6701932 -403501,-6701930 -403520,-6701930 -403563,-6701942 -403608,-6701960 -403650,-6701988 -403685,-6702028 -403708,-6702047 -403719,-6702052 -403741,-6702059 -403840,-6702097 -403867,-6702119 -403889,-6702127 -403930,-6702146 -403993,-6702179 -404004,-6702181 -404011,-6702181 -404018,-6702179 -404031,-6702172 -404041,-6702165 -404079,-6702154 -404100,-6702149 -404144,-6702142 -404187,-6702140 -404222,-6702137 -404263,-6702142 -404288,-6702147 -404300,-6702150 -404309,-6702154 -404325,-6702163 -404341,-6702177 -404391,-6702226 -404438,-6702261 -404572,-6702370 -404680,-6702465 -404746,-6702536 -404805,-6702603 -404857,-6702662 -404892,-6702703 -404945,-6702768 -404972,-6702799 -405064,-6702915 -405117,-6702976 -405130,-6702987 -405146,-6702999 -405162,-6703014 -405213,-6703063 -405233,-6703082 -405262,-6703101 -405271,-6703107 -405317,-6703152 -405331,-6703172 -405340,-6703182 -405383,-6703223 -405393,-6703240 -405402,-6703252 -405425,-6703285 -405469,-6703353 -405479,-6703373 -405506,-6703440 -405538,-6703506 -405556,-6703546 -405600,-6703639 -405661,-6703756 -405692,-6703812 -405705,-6703832 -405732,-6703868 -405740,-6703881 -405757,-6703911 -405762,-6703923 -405773,-6703951 -405785,-6703987 -405802,-6704046 -405806,-6704073 -405806,-6704088 -405805,-6704101 -405799,-6704132 -405801,-6704136 -405803,-6704141 -405832,-6704161 -405854,-6704181 -405871,-6704206 -405907,-6704256 -405919,-6704267 -405924,-6704269 -405959,-6704269 -405970,-6704273 -405970,-6704274 -405966,-6704278 -405935,-6704295 -405934,-6704298 -405938,-6704312 -405945,-6704320 -405946,-6704321 -405952,-6704321 -405967,-6704320 -405979,-6704318 -406012,-6704310 -406043,-6704306 -406066,-6704310 -406067,-6704311 -406068,-6704315 -406067,-6704319 -406066,-6704320 -406053,-6704322 -406052,-6704323 -406040,-6704341 -406020,-6704354 -406019,-6704358 -406019,-6704379 -406028,-6704416 -406030,-6704418 -406037,-6704421 -406059,-6704428 -406063,-6704431 -406063,-6704433 -406062,-6704437 -406049,-6704454 -406046,-6704474 -406047,-6704476 -406057,-6704486 -406059,-6704486 -406064,-6704486 -406069,-6704484 -406070,-6704483 -406076,-6704465 -406087,-6704443 -406107,-6704420 -406126,-6704405 -406128,-6704405 -406117,-6704454 -406099,-6704500 -406099,-6704509 -406100,-6704515 -406101,-6704517 -406111,-6704529 -406131,-6704545 -406151,-6704555 -406162,-6704562 -406165,-6704567 -406166,-6704571 -406166,-6704583 -406167,-6704585 -406195,-6704604 -406203,-6704617 -406205,-6704643 -406204,-6704653 -406069,-6704620 -406035,-6704617 -406010,-6704619 -405952,-6704646 -405813,-6704736 -405724,-6704776 -405693,-6704781 -405650,-6704774 -405491,-6704714 -405422,-6704754 -405375,-6704775 -405317,-6704784 -405267,-6704787 -405195,-6704777 -405122,-6704782 -405005,-6704809 -404994,-6704812 -404982,-6704816 -404970,-6704822 -404959,-6704830 -404949,-6704839 -404935,-6704853 -404923,-6704869 -404920,-6704875 -404913,-6704894 -404911,-6704925 -404915,-6704956 -404915,-6704989 -404910,-6705016 -404905,-6705033 -404902,-6705040 -404895,-6705052 -404876,-6705076 -404808,-6705130 -404789,-6705144 -404748,-6705171 -404677,-6705203 -404645,-6705221 -404629,-6705234 -404549,-6705316 -404524,-6705341 -404497,-6705370 -404470,-6705390 -404448,-6705410 -404418,-6705428 -404375,-6705453 -404348,-6705466 -404317,-6705480 -404287,-6705491 -404259,-6705497 -404221,-6705506 -404186,-6705513 -404141,-6705517 -404071,-6705522 -403977,-6705532 -403919,-6705541 -403848,-6705557 -403799,-6705572 -403756,-6705588 -403735,-6705594 -403719,-6705595 -403692,-6705599 -403649,-6705608 -403624,-6705620 -403560,-6705653 -403424,-6705711 -403335,-6705758 -403286,-6705799 -403239,-6705833 -403124,-6705915 -403111,-6705926 -403085,-6705945 -403061,-6705961 -402943,-6706034 -402941,-6706035 -402937,-6706037 -402895,-6706061 -402792,-6706111 -402675,-6706188 -402638,-6706222 -402615,-6706253 -402577,-6706310 -402556,-6706336 -402545,-6706352 -402536,-6706359 -402528,-6706376 -402514,-6706407 -402506,-6706434 -402497,-6706481 -402483,-6706518 -402475,-6706553 -402472,-6706561 -402471,-6706563 -402459,-6706582 -402438,-6706599 -402396,-6706619 -402362,-6706633 -402277,-6706664 -402247,-6706674 -402216,-6706683 -402190,-6706698 -402173,-6706713 -402150,-6706734 -402120,-6706769 -402106,-6706785 -402091,-6706797 -402065,-6706807 -402039,-6706819 -402012,-6706825 -401948,-6706827 -401884,-6706830 -401838,-6706832 -401810,-6706844 -401769,-6706857 -401749,-6706863 -401734,-6706865 -401714,-6706866 -401699,-6706869 -401682,-6706878 -401625,-6706914 -401616,-6706922 -401591,-6706950 -401582,-6706959 -401572,-6706966 -401559,-6706974 -401532,-6706988 -401492,-6707003 -401468,-6707014 -401444,-6707020 -401402,-6707019 -401390,-6707018 -401388,-6707019 -401334,-6707004 -401314,-6707000 -401297,-6706999 -401264,-6706997 -401245,-6707000 -401236,-6707004 -401225,-6707009 -401197,-6707026 -401144,-6707067 -401127,-6707081 -401102,-6707105 -401040,-6707177 -401011,-6707206 -401006,-6707208 -400971,-6707219 -400956,-6707226 -400939,-6707236 -400911,-6707260 -400900,-6707265 -400891,-6707268 -400884,-6707270 -400877,-6707270 -400851,-6707268 -400839,-6707272 -400823,-6707289 -400807,-6707306 -400803,-6707310 -400786,-6707317 -400759,-6707326 -400689,-6707342 -400677,-6707349 -400644,-6707370 -400629,-6707376 -400623,-6707377 -400618,-6707377 -400613,-6707376 -400608,-6707374 -400603,-6707370 -400593,-6707361 -400569,-6707340 -400564,-6707338 -400558,-6707337 -400552,-6707337 -400546,-6707338 -400540,-6707340 -400535,-6707343 -400522,-6707353 -400488,-6707381 -400470,-6707402 -400444,-6707434 -400423,-6707444 -400364,-6707460 -400333,-6707462 -400325,-6707459 -400319,-6707454 -400315,-6707448 -400318,-6707432 -400327,-6707414 -400336,-6707388 -400342,-6707371 -400354,-6707357 -400356,-6707354 -400356,-6707353 -400368,-6707329 -400376,-6707310 -400378,-6707295 -400379,-6707280 -400376,-6707264 -400367,-6707250 -400359,-6707243 -400343,-6707232 -400315,-6707228 -400287,-6707220 -400263,-6707212 -400246,-6707213 -400208,-6707219 -400180,-6707220 -400148,-6707220 -400132,-6707216 -400106,-6707203 -400055,-6707175 -400040,-6707164 -400036,-6707160 -400029,-6707153 -400029,-6707146 -400028,-6707095 -400027,-6707081 -400021,-6707069 -400010,-6707057 -399996,-6707048 -399982,-6707044 -399971,-6707043 -399958,-6707046 -399935,-6707056 -399909,-6707072 -399896,-6707077 -399881,-6707080 -399865,-6707079 -399842,-6707076 -399825,-6707072 -399772,-6707075 -399730,-6707078 -399611,-6707093 -399529,-6707105 -399472,-6707112 -399461,-6707114 -399440,-6707123 -399406,-6707138 -399370,-6707152 -399341,-6707161 -399312,-6707170 -399293,-6707174 -399269,-6707178 -399223,-6707185 -399193,-6707190 -399157,-6707201 -399123,-6707210 -399121,-6707210 -399087,-6707218 -399043,-6707220 -399011,-6707228 -398979,-6707240 -398978,-6707240 -398958,-6707254 -398921,-6707283 -398873,-6707325 -398826,-6707373 -398786,-6707412 -398760,-6707435 -398740,-6707443 -398697,-6707448 -398630,-6707476 -398612,-6707503 -398583,-6707543 -398571,-6707559 -398553,-6707565 -398509,-6707571 -398454,-6707577 -398400,-6707584 -398365,-6707589 -398337,-6707600 -398323,-6707601 -398275,-6707633 -398237,-6707658 -398209,-6707677 -398163,-6707694 -398123,-6707705 -398094,-6707709 -398054,-6707711 -398040,-6707715 -398018,-6707727 -397981,-6707742 -397932,-6707768 -397909,-6707796 -397885,-6707824 -397867,-6707841 -397835,-6707873 -397830,-6707879 -397806,-6707908 -397778,-6707937 -397757,-6707953 -397717,-6707976 -397684,-6707995 -397660,-6708020 -397644,-6708041 -397614,-6708082 -397603,-6708094 -397583,-6708109 -397562,-6708123 -397496,-6708161 -397385,-6708225 -397345,-6708247 -397322,-6708263 -397287,-6708283 -397255,-6708301 -397147,-6708376 -397115,-6708396 -397090,-6708409 -397052,-6708429 -396992,-6708461 -396976,-6708469 -396916,-6708494 -396863,-6708514 -396820,-6708534 -396773,-6708553 -396728,-6708572 -396687,-6708588 -396624,-6708608 -396581,-6708625 -396487,-6708661 -396404,-6708690 -396371,-6708701 -396328,-6708718 -396277,-6708737 -396211,-6708774 -396112,-6708828 -396079,-6708842 -395984,-6708864 -395912,-6708877 -395840,-6708890 -395820,-6708891 -395793,-6708885 -395774,-6708885 -395714,-6708926 -395698,-6708911 -395691,-6708903 -395605,-6708835 -395517,-6708772 -395472,-6708736 -395354,-6708640 -395258,-6708568 -395144,-6708473 -395049,-6708395 -394931,-6708294 -394798,-6708180 -394640,-6708052 -394499,-6707936 -394367,-6707828 -394207,-6707699 -394125,-6707634 -393988,-6707526 -393857,-6707418 -393718,-6707300 -393586,-6707185 -393555,-6707163 -393552,-6707157 -393463,-6707077 -393352,-6706979 -393275,-6706930 -393262,-6706943 -393260,-6706946 -393261,-6706960 -393266,-6706985 -393266,-6706989 -393238,-6707021 -393236,-6707026 -393238,-6707044 -393246,-6707089 -393247,-6707114 -393243,-6707136 -393229,-6707172 -393224,-6707178 -393211,-6707191 -393210,-6707191 -393197,-6707205 -393196,-6707209 -393195,-6707212 -393194,-6707218 -393192,-6707259 -393192,-6707262 -393189,-6707264 -393183,-6707271 -393181,-6707274 -393175,-6707289 -393174,-6707319 -393173,-6707320 -393172,-6707323 -393172,-6707323 -393168,-6707345 -393168,-6707347 -393173,-6707362 -393175,-6707367 -393175,-6707367 -393175,-6707392 -393172,-6707423 -393174,-6707454 -393172,-6707476 -393153,-6707516 -393148,-6707531 -393148,-6707533 -393149,-6707562 -393165,-6707584 -393163,-6707598 -393173,-6707609 -393184,-6707616 -393200,-6707614 -393218,-6707652 -393227,-6707698 -393244,-6707732 -393242,-6707747 -393255,-6707774 -393251,-6707796 -393263,-6707831 -393264,-6707857 -393269,-6707864 -393276,-6707882 -393274,-6707902 -393278,-6707925 -393282,-6707938 -393289,-6707979 -393292,-6707993 -393292,-6708005 -393293,-6708012 -393299,-6708023 -393298,-6708036 -393299,-6708053 -393312,-6708077 -393314,-6708079 -393318,-6708089 -393332,-6708115 -393340,-6708148 -393345,-6708168 -393351,-6708178 -393382,-6708210 -393416,-6708239 -393445,-6708272 -393462,-6708289 -393492,-6708310 -393542,-6708342 -393580,-6708374 -393609,-6708388 -393624,-6708393 -393639,-6708398 -393694,-6708410 -393700,-6708412 -393745,-6708440 -393824,-6708484 -393864,-6708523 -393892,-6708543 -393928,-6708563 -393967,-6708588 -393999,-6708606 -394009,-6708615 -393822,-6708697 -393667,-6708763 -393656,-6708767 -393645,-6708772 -393643,-6708773 -393630,-6708774 -393571,-6708785 -393463,-6708811 -393417,-6708823 -393371,-6708837 -393314,-6708859 -393252,-6708888 -393202,-6708908 -393126,-6708945 -393040,-6708976 -392983,-6708995 -392934,-6709007 -392892,-6709021 -392867,-6709025 -392820,-6709049 -392791,-6709060 -392746,-6709075 -392708,-6709081 -392691,-6709089 -392706,-6709115 -392731,-6709185 -392748,-6709234 -392769,-6709288 -392794,-6709357 -392789,-6709374 -392807,-6709380 -392809,-6709410 -392810,-6709415 -392806,-6709414 -392789,-6709412 -392782,-6709411 -392780,-6709411 -392773,-6709411 -392764,-6709411 -392755,-6709411 -392747,-6709412 -392737,-6709413 -392728,-6709415 -392721,-6709417 -392694,-6709424 -392687,-6709428 -392675,-6709430 -392676,-6709446 -392677,-6709449 -392678,-6709453 -392678,-6709455 -392678,-6709459 -392678,-6709463 -392678,-6709463 -392678,-6709478 -392679,-6709479 -392684,-6709505 -392684,-6709507 -392684,-6709508 -392684,-6709510 -392684,-6709512 -392684,-6709515 -392683,-6709517 -392682,-6709519 -392678,-6709524 -392675,-6709530 -392673,-6709532 -392671,-6709538 -392668,-6709544 -392666,-6709550 -392665,-6709555 -392665,-6709560 -392648,-6709582 -392629,-6709606 -392627,-6709608 -392603,-6709622 -392561,-6709652 -392544,-6709657 -392540,-6709665 -392514,-6709674 -392505,-6709674 -392500,-6709675 -392492,-6709676 -392484,-6709678 -392476,-6709681 -392469,-6709683 -392460,-6709687 -392451,-6709691 -392443,-6709695 -392442,-6709696 -392418,-6709712 -392432,-6709726 -392442,-6709736 -392463,-6709753 -392476,-6709764 -392488,-6709776 -392497,-6709795 -392515,-6709832 -392529,-6709851 -392542,-6709870 -392559,-6709890 -392587,-6709919 -392607,-6709940 -392622,-6709958 -392640,-6709987 -392660,-6710018 -392672,-6710051 -392692,-6710073 -392732,-6710128 -392770,-6710178 -392792,-6710218 -392797,-6710227 -392802,-6710237 -392804,-6710242 -392807,-6710249 -392871,-6710438 -392874,-6710441 -392878,-6710444 -392882,-6710446 -392885,-6710448 -392888,-6710449 -392914,-6710462 -392905,-6710466 -392880,-6710472 -392866,-6710474 -392833,-6710488 -392802,-6710482 -392732,-6710446 -392652,-6710403 -392608,-6710377 -392583,-6710365 -392554,-6710350 -392509,-6710339 -392479,-6710338 -392447,-6710338 -392414,-6710334 -392390,-6710333 -392354,-6710341 -392318,-6710359 -392297,-6710371 -392222,-6710451 -392179,-6710514 -392133,-6710574 -392114,-6710595 -392110,-6710598 -392086,-6710606 -392065,-6710610 -392043,-6710610 -392032,-6710608 -392020,-6710604 -391999,-6710590 -391954,-6710554 -391922,-6710538 -391895,-6710530 -391876,-6710530 -391838,-6710534 -391804,-6710545 -391763,-6710565 -391750,-6710577 -391741,-6710601 -391740,-6710627 -391735,-6710639 -391734,-6710639 -391719,-6710654 -391702,-6710660 -391659,-6710657 -391635,-6710661 -391611,-6710671 -391585,-6710686 -391557,-6710703 -391537,-6710724 -391521,-6710762 -391505,-6710777 -391487,-6710783 -391481,-6710783 -391473,-6710783 -391470,-6710782 -391453,-6710772 -391425,-6710746 -391400,-6710722 -391383,-6710714 -391367,-6710714 -391350,-6710725 -391304,-6710748 -391287,-6710756 -391270,-6710765 -391242,-6710781 -391230,-6710790 -391229,-6710792 -391225,-6710800 -391225,-6710824 -391220,-6710840 -391210,-6710852 -391197,-6710861 -391180,-6710866 -391163,-6710870 -391133,-6710873 -391106,-6710893 -391085,-6710910 -391066,-6710925 -391057,-6710937 -391047,-6710952 -391030,-6711003 -391012,-6711033 -391002,-6711046 -390992,-6711059 -390980,-6711069 -390891,-6711138 -390825,-6711193 -390784,-6711229 -390752,-6711251 -390717,-6711271 -390682,-6711280 -390657,-6711297 -390620,-6711353 -390601,-6711380 -390571,-6711432 -390549,-6711476 -390538,-6711526 -390533,-6711562 -390535,-6711620 -390538,-6711659 -390539,-6711679 -390544,-6711703 -390544,-6711726 -390531,-6711748 -390518,-6711778 -390500,-6711804 -390483,-6711825 -390457,-6711846 -390408,-6711870 -390332,-6711885 -390286,-6711895 -390261,-6711898 -390247,-6711897 -390239,-6711894 -390221,-6711907 -390219,-6711908 -390201,-6711933 -390198,-6711935 -390180,-6711933 -390165,-6711947 -390120,-6711961 -390102,-6711978 -390079,-6711989 -390069,-6712003 -390064,-6712010 -390052,-6712018 -390011,-6712045 -389986,-6712071 -389958,-6712107 -389951,-6712107 -389932,-6712107 -389913,-6712124 -389898,-6712145 -389869,-6712160 -389863,-6712177 -389862,-6712179 -389857,-6712183 -389849,-6712188 -389850,-6712193 -389851,-6712203 -389842,-6712205 -389817,-6712213 -389806,-6712217 -389778,-6712241 -389725,-6712276 -389680,-6712309 -389653,-6712321 -389597,-6712359 -389513,-6712405 -389474,-6712425 -389426,-6712451 -389371,-6712473 -389341,-6712480 -389250,-6712464 -389132,-6712447 -389099,-6712445 -389047,-6712447 -388985,-6712445 -388867,-6712454 -388842,-6712456 -388813,-6712460 -388784,-6712464 -388721,-6712480 -388700,-6712480 -388665,-6712488 -388606,-6712494 -388569,-6712500 -388514,-6712511 -388464,-6712525 -388440,-6712530 -388417,-6712535 -388364,-6712540 -388326,-6712550 -388266,-6712571 -388216,-6712584 -388146,-6712606 -388034,-6712647 -387962,-6712672 -387778,-6712730 -387686,-6712763 -387597,-6712792 -387534,-6712813 -387441,-6712837 -387370,-6712857 -387194,-6712899 -387096,-6712920 -386995,-6712938 -386899,-6712958 -386791,-6712969 -386654,-6712957 -386613,-6712954 -386532,-6712946 -386430,-6712928 -386383,-6712921 -386337,-6712915 -386292,-6712911 -386247,-6712907 -386221,-6712907 -386196,-6712906 -386083,-6712906 -386041,-6712905 -385891,-6712886 -385812,-6712876 -385762,-6712867 -385699,-6712852 -385656,-6712837 -385458,-6712767 -385390,-6712748 -385285,-6712701 -385231,-6712671 -385225,-6712668 -385127,-6712614" stroke="#003087" stroke-width="78" /></svg>