<?xml version="1.0" standalone="no"?>
<!DOCTYPE svg PUBLIC "-//W3C//DTD SVG 1.1//EN"
"http://www.w3.org/Graphics/SVG/1.1/DTD/svg11.dtd">
<svg height="115" version="1.1" viewBox="-371191 -6763859 30142 45475" width="220" xmlns="http://www.w3.org/2000/svg"><polygon fill="#003087" points=" -367347,-6763217 -367341,-6763091 -367289,-6763100 -367239,-6763109 -367171,-6763109 -367100,-6763108 -367059,-6763098 -366999,-6763049 -366949,-6763007 -366908,-6762989 -366839,-6762970 -366832,-6762960 -366812,-6762924 -366810,-6762906 -366808,-6762882 -366807,-6762854 -366815,-6762794 -366819,-6762767 -366822,-6762739 -366828,-6762708 -366792,-6762695 -366750,-6762669 -366693,-6762623 -366636,-6762584 -366622,-6762567 -366599,-6762532 -366561,-6762484 -366531,-6762436 -366520,-6762415 -366510,-6762394 -366502,-6762372 -366497,-6762356 -366493,-6762338 -366491,-6762327 -366489,-6762257 -366466,-6762253 -366470,-6762228 -366500,-6762114 -366493,-6762005 -366488,-6761907 -366483,-6761790 -366425,-6761605 -366388,-6761475 -366307,-6761455 -366286,-6761440 -366255,-6761408 -366236,-6761389 -366225,-6761373 -366210,-6761342 -366185,-6761306 -366176,-6761274 -366144,-6761279 -366118,-6761292 -366076,-6761113 -366058,-6761063 -366041,-6761023 -366012,-6760977 -366001,-6760959 -365996,-6760947 -365995,-6760938 -365995,-6760877 -365993,-6760839 -365983,-6760806 -365908,-6760719 -365776,-6760783 -365689,-6760829 -365623,-6760853 -365550,-6760886 -365521,-6760897 -365454,-6760931 -365416,-6760952 -365393,-6760911 -365369,-6760850 -365345,-6760811 -365288,-6760761 -365301,-6760748 -365255,-6760722 -365308,-6760615 -365312,-6760534 -365303,-6760491 -365262,-6760461 -365174,-6760550 -365071,-6760542 -364972,-6760529 -364938,-6760519 -364863,-6760483 -364829,-6760451 -364768,-6760387 -364739,-6760345 -364705,-6760283 -364677,-6760254 -364656,-6760235 -364647,-6760227 -364638,-6760220 -364611,-6760184 -364592,-6760197 -364577,-6760198 -364564,-6760195 -364534,-6760180 -364532,-6760179 -364442,-6760123 -364389,-6760086 -364356,-6760048 -364305,-6760009 -364291,-6759991 -364276,-6759929 -364274,-6759832 -364287,-6759794 -364035,-6759464 -363945,-6759306 -363898,-6759226 -363825,-6759092 -363744,-6758784 -364055,-6758563 -364017,-6758430 -363977,-6758281 -363939,-6758152 -363908,-6758040 -363878,-6757915 -363855,-6757826 -363842,-6757801 -363798,-6757759 -363750,-6757712 -363739,-6757710 -363696,-6757500 -363709,-6757349 -363722,-6757210 -363726,-6757155 -363693,-6756976 -363684,-6756942 -363677,-6756718 -363654,-6756722 -363617,-6756739 -363468,-6756768 -363436,-6756769 -363399,-6756778 -363358,-6756777 -363280,-6756786 -363210,-6756785 -363152,-6756795 -363137,-6756804 -363109,-6756805 -363042,-6756770 -363033,-6756754 -363028,-6756731 -363013,-6756721 -362994,-6756728 -362974,-6756726 -362921,-6756705 -362920,-6756691 -362914,-6756684 -362910,-6756668 -362892,-6756655 -362887,-6756643 -362863,-6756640 -362845,-6756598 -362827,-6756590 -362796,-6756586 -362775,-6756560 -362763,-6756567 -362731,-6756569 -362716,-6756561 -362682,-6756569 -362671,-6756562 -362652,-6756557 -362642,-6756545 -362639,-6756523 -362622,-6756532 -362616,-6756506 -362600,-6756480 -362602,-6756461 -362586,-6756451 -362586,-6756435 -362566,-6756433 -362538,-6756398 -362537,-6756369 -362521,-6756328 -362525,-6756321 -362520,-6756302 -362511,-6756282 -362498,-6756281 -362487,-6756288 -362477,-6756277 -362463,-6756255 -362459,-6756240 -362436,-6756221 -362426,-6756210 -362423,-6756194 -362429,-6756187 -362474,-6756164 -362487,-6756152 -362505,-6756114 -362530,-6756081 -362549,-6756034 -362559,-6755986 -362549,-6755974 -362552,-6755955 -362570,-6755929 -362577,-6755903 -362598,-6755881 -362601,-6755865 -362590,-6755847 -362589,-6755833 -362600,-6755825 -362621,-6755827 -362633,-6755819 -362639,-6755780 -362650,-6755753 -362679,-6755730 -362683,-6755722 -362684,-6755701 -362668,-6755668 -362668,-6755649 -362680,-6755631 -362676,-6755619 -362669,-6755608 -362671,-6755598 -362690,-6755585 -362693,-6755573 -362688,-6755558 -362658,-6755533 -362650,-6755522 -362658,-6755509 -362650,-6755473 -362634,-6755457 -362611,-6755399 -362599,-6755393 -362586,-6755378 -362578,-6755355 -362569,-6755335 -362551,-6755309 -362532,-6755306 -362519,-6755298 -362507,-6755282 -362501,-6755262 -362476,-6755231 -362447,-6755200 -362439,-6755146 -362353,-6755002 -362336,-6754984 -362328,-6754962 -362330,-6754931 -362328,-6754912 -362294,-6754860 -362270,-6754857 -362261,-6754851 -362248,-6754823 -362241,-6754797 -362242,-6754725 -362228,-6754699 -362220,-6754690 -362190,-6754676 -362190,-6754655 -362187,-6754642 -362186,-6754604 -362168,-6754565 -362163,-6754496 -362169,-6754408 -362108,-6754411 -362103,-6754419 -362103,-6754432 -361999,-6754470 -361959,-6754478 -361946,-6754484 -361930,-6754485 -361912,-6754494 -361896,-6754495 -361802,-6754524 -361780,-6754525 -361766,-6754532 -361748,-6754537 -361752,-6754529 -361726,-6754534 -361710,-6754548 -361700,-6754553 -361698,-6754526 -361702,-6754513 -361701,-6754483 -361632,-6754418 -361619,-6754418 -361508,-6754357 -361465,-6754326 -361458,-6754314 -361458,-6754248 -361471,-6754198 -361542,-6754095 -361556,-6754088 -361620,-6753999 -361521,-6753942 -361493,-6753923 -361397,-6753868 -361393,-6753865 -361315,-6753838 -361281,-6753837 -361244,-6753839 -361206,-6753820 -361161,-6753776 -361105,-6753696 -361107,-6753682 -361094,-6753673 -361077,-6753672 -361069,-6753677 -361063,-6753684 -361038,-6753661 -360979,-6753612 -360827,-6753490 -360736,-6753404 -360660,-6753335 -360575,-6753246 -360502,-6753171 -360411,-6753105 -360261,-6753014 -360182,-6752991 -360094,-6752933 -360041,-6752892 -360012,-6752854 -359974,-6752778 -359938,-6752663 -359932,-6752618 -359934,-6752371 -359933,-6752357 -359932,-6752338 -359919,-6752292 -359896,-6752232 -359853,-6752173 -359814,-6752145 -359768,-6752133 -359699,-6752107 -359519,-6752055 -359445,-6752032 -359386,-6752003 -359343,-6751975 -359285,-6751928 -359197,-6751859 -359144,-6751816 -359116,-6751782 -359113,-6751747 -359117,-6751713 -359142,-6751610 -359204,-6751355 -359215,-6751299 -359205,-6751230 -359187,-6751179 -359145,-6751104 -359100,-6751023 -359050,-6750939 -358957,-6750781 -358887,-6750654 -358860,-6750597 -358844,-6750560 -358832,-6750514 -358782,-6750277 -358770,-6750212 -358761,-6750213 -358763,-6750223 -358777,-6750335 -358787,-6750418 -358810,-6750610 -358825,-6750759 -358840,-6750899 -358847,-6750999 -358856,-6751093 -358879,-6751231 -358899,-6751299 -358783,-6751272 -358761,-6751262 -358698,-6751195 -358614,-6751124 -358536,-6751068 -358479,-6751032 -358433,-6750997 -358416,-6750991 -358381,-6751065 -358370,-6751096 -358345,-6751156 -358333,-6751199 -358323,-6751249 -358313,-6751267 -358285,-6751287 -358232,-6751320 -358190,-6751321 -358151,-6751318 -358111,-6751312 -358098,-6751358 -358069,-6751448 -358053,-6751478 -358032,-6751493 -357904,-6751530 -357868,-6751531 -357856,-6751539 -357795,-6751559 -357730,-6751637 -357690,-6751640 -357706,-6751666 -357667,-6751667 -357625,-6751646 -357508,-6751674 -357489,-6751618 -357458,-6751577 -357433,-6751578 -357449,-6751599 -357473,-6751691 -357488,-6751731 -357531,-6751802 -357542,-6751828 -357546,-6751849 -357548,-6751877 -357547,-6751907 -357540,-6751938 -357516,-6751985 -357512,-6751999 -357512,-6752036 -357519,-6752065 -357534,-6752107 -357549,-6752129 -357598,-6752181 -357631,-6752254 -357660,-6752294 -357676,-6752322 -357688,-6752349 -357698,-6752393 -357713,-6752474 -357730,-6752528 -357757,-6752597 -357792,-6752647 -357835,-6752724 -357860,-6752760 -357878,-6752786 -357919,-6752835 -357932,-6752864 -357943,-6752911 -357967,-6752974 -357983,-6753013 -358002,-6753071 -358023,-6753141 -358040,-6753206 -358095,-6753355 -358116,-6753421 -358124,-6753454 -358133,-6753534 -358151,-6753591 -358155,-6753689 -358130,-6753749 -358130,-6753790 -358160,-6753839 -358267,-6753957 -358286,-6753983 -358307,-6754043 -358335,-6754076 -358382,-6754112 -358399,-6754131 -358408,-6754163 -358404,-6754193 -358394,-6754197 -358247,-6754267 -358258,-6754364 -358214,-6754379 -358164,-6754402 -358156,-6754417 -358137,-6754436 -358130,-6754461 -358094,-6754540 -358084,-6754566 -358064,-6754582 -358055,-6754597 -358033,-6754622 -358026,-6754632 -357996,-6754648 -357974,-6754649 -357953,-6754661 -357911,-6754599 -357884,-6754607 -357852,-6754629 -357843,-6754632 -357836,-6754632 -357827,-6754624 -357809,-6754622 -357732,-6754647 -357660,-6754700 -357603,-6754775 -357537,-6754836 -357517,-6754869 -357441,-6754955 -357429,-6754976 -357350,-6755064 -357112,-6754805 -357000,-6754679 -356710,-6754366 -356548,-6754190 -355795,-6753369 -355612,-6753173 -355574,-6753130 -355562,-6753117 -355512,-6752985 -355451,-6752826 -355440,-6752810 -355340,-6752563 -355197,-6752234 -354992,-6751746 -354875,-6751470 -354818,-6751338 -354784,-6751249 -354770,-6751243 -354768,-6751238 -354767,-6751233 -354767,-6751207 -354758,-6751177 -354734,-6751138 -354698,-6751090 -354671,-6751050 -354630,-6751089 -354564,-6750939 -354538,-6750889 -354531,-6750860 -354521,-6750823 -354528,-6750822 -354564,-6750814 -354572,-6750804 -354587,-6750784 -354593,-6750773 -354518,-6750683 -354402,-6750543 -354387,-6750570 -354379,-6750580 -354371,-6750589 -354358,-6750594 -354341,-6750558 -354319,-6750507 -354283,-6750473 -354276,-6750448 -354278,-6750410 -354209,-6750386 -354161,-6750365 -354142,-6750296 -354136,-6750226 -354115,-6750224 -354125,-6750186 -354132,-6750124 -354138,-6750092 -354145,-6750061 -354167,-6749980 -354067,-6750026 -354031,-6750054 -353989,-6749996 -353975,-6749966 -353964,-6749934 -353931,-6749903 -353861,-6749831 -353804,-6749765 -353850,-6749719 -353791,-6749647 -353749,-6749587 -353882,-6749514 -353785,-6749428 -353624,-6749297 -353560,-6749240 -353472,-6749233 -353457,-6749204 -353448,-6749172 -353410,-6749167 -353413,-6749133 -353366,-6749113 -353348,-6749110 -353336,-6749109 -353305,-6749020 -353290,-6748969 -353296,-6748960 -353281,-6748903 -353118,-6748821 -353108,-6748815 -353101,-6748806 -353029,-6748693 -352996,-6748629 -352973,-6748581 -352964,-6748549 -352960,-6748517 -352940,-6748469 -352917,-6748423 -352859,-6748330 -352845,-6748308 -352834,-6748262 -352827,-6748243 -352819,-6748224 -352782,-6748151 -352735,-6748070 -352646,-6747934 -352576,-6747840 -352518,-6747911 -352486,-6747941 -352437,-6747979 -352283,-6748031 -352218,-6748057 -352189,-6748072 -352168,-6748082 -352103,-6748117 -352104,-6748168 -352054,-6748196 -352003,-6748213 -351933,-6748262 -351934,-6748281 -351912,-6748287 -351899,-6748297 -351890,-6748300 -351860,-6748306 -351834,-6748327 -351787,-6748363 -351738,-6748397 -351694,-6748421 -351681,-6748434 -351614,-6748452 -351584,-6748449 -351539,-6748437 -351523,-6748438 -351508,-6748453 -351483,-6748513 -351454,-6748539 -351425,-6748568 -351412,-6748573 -351364,-6748571 -351340,-6748535 -351321,-6748464 -351309,-6748393 -351303,-6748356 -351267,-6748312 -351215,-6748265 -351152,-6748206 -351032,-6748089 -351002,-6748041 -350980,-6747999 -350967,-6747981 -350935,-6747945 -350881,-6747908 -350838,-6747891 -350818,-6747887 -350790,-6747888 -350748,-6747898 -350693,-6747910 -350649,-6747919 -350614,-6747915 -350550,-6747897 -350505,-6747887 -350457,-6747885 -350432,-6747888 -350407,-6747893 -350359,-6747905 -350297,-6747844 -350285,-6747829 -350254,-6747772 -350236,-6747711 -350229,-6747657 -350224,-6747461 -350226,-6747281 -350230,-6747188 -350238,-6747102 -350250,-6747011 -350280,-6746786 -350283,-6746715 -350288,-6746715 -350285,-6746660 -350276,-6746608 -350251,-6746538 -350228,-6746492 -350185,-6746444 -350148,-6746407 -350041,-6746327 -349875,-6746219 -349774,-6746152 -349761,-6746143 -349627,-6746056 -349531,-6746000 -349441,-6745958 -349365,-6745931 -349316,-6745919 -349237,-6745902 -349121,-6745881 -349025,-6745865 -348987,-6745856 -348944,-6745845 -348890,-6745825 -348811,-6745786 -348765,-6745756 -348707,-6745714 -348637,-6745656 -348622,-6745642 -348505,-6745529 -348423,-6745436 -348399,-6745400 -348326,-6745304 -348277,-6745229 -348239,-6745162 -348223,-6745121 -348208,-6745064 -348204,-6745008 -348206,-6744955 -348218,-6744905 -348242,-6744849 -348264,-6744810 -348291,-6744769 -348348,-6744705 -348465,-6744576 -348576,-6744433 -348664,-6744327 -348730,-6744253 -348768,-6744227 -348803,-6744193 -348742,-6744135 -348685,-6744080 -348840,-6743946 -348987,-6743816 -349144,-6743681 -349198,-6743629 -349287,-6743538 -349299,-6743525 -349342,-6743470 -349373,-6743425 -349406,-6743366 -349423,-6743330 -349441,-6743275 -349448,-6743244 -349449,-6743180 -349443,-6743106 -349435,-6743070 -349420,-6743017 -349401,-6742974 -349379,-6742928 -349349,-6742886 -349283,-6742816 -349249,-6742786 -349170,-6742742 -349136,-6742728 -349116,-6742720 -349049,-6742704 -349024,-6742700 -348946,-6742701 -348748,-6742704 -348590,-6742713 -348502,-6742723 -348401,-6742732 -348302,-6742753 -348254,-6742766 -348253,-6742755 -348241,-6742753 -348161,-6742793 -348058,-6742827 -347943,-6742847 -347943,-6742862 -347928,-6742918 -347927,-6742945 -347865,-6742946 -347818,-6742974 -347799,-6742993 -347784,-6743001 -347795,-6743034 -347721,-6743017 -347725,-6743053 -347645,-6743092 -347626,-6743106 -347603,-6743127 -347584,-6743150 -347567,-6743187 -347543,-6743178 -347524,-6743258 -347504,-6743324 -347470,-6743363 -347584,-6743432 -347612,-6743450 -347686,-6743533 -347674,-6743552 -347561,-6743662 -347430,-6743824 -347366,-6743919 -347336,-6743908 -347312,-6743930 -347280,-6743980 -347257,-6744001 -347251,-6744013 -347237,-6744019 -347236,-6744020 -347233,-6744033 -347177,-6744104 -347162,-6744132 -347070,-6744144 -347069,-6744159 -347079,-6744168 -347091,-6744200 -347089,-6744250 -347083,-6744269 -347059,-6744291 -346935,-6744372 -346884,-6744410 -346870,-6744391 -346861,-6744373 -346858,-6744363 -346856,-6744355 -346854,-6744330 -346858,-6744300 -346857,-6744298 -346849,-6744289 -346848,-6744285 -346853,-6744274 -346853,-6744270 -346770,-6744216 -346759,-6744209 -346740,-6744199 -346738,-6744196 -346741,-6744186 -346746,-6744176 -346760,-6744165 -346778,-6744137 -346805,-6744114 -346841,-6744079 -346854,-6744062 -346869,-6744052 -346878,-6744040 -346879,-6744020 -346879,-6744018 -346872,-6744005 -346870,-6744000 -346869,-6743993 -346871,-6743977 -346870,-6743973 -346844,-6743955 -346815,-6743937 -346798,-6743923 -346799,-6743919 -346825,-6743884 -346857,-6743813 -346871,-6743790 -346871,-6743787 -346861,-6743759 -346859,-6743748 -346860,-6743743 -346877,-6743719 -346908,-6743684 -346908,-6743680 -346895,-6743652 -346871,-6743592 -346868,-6743590 -346849,-6743586 -346801,-6743578 -346799,-6743575 -346807,-6743539 -346824,-6743511 -346832,-6743471 -346836,-6743443 -346824,-6743390 -346821,-6743388 -346794,-6743389 -346777,-6743387 -346756,-6743376 -346739,-6743369 -346679,-6743361 -346630,-6743358 -346600,-6743360 -346525,-6743380 -346520,-6743380 -346504,-6743377 -346486,-6743381 -346485,-6743384 -346487,-6743400 -346485,-6743402 -346441,-6743398 -346348,-6743399 -346300,-6743397 -346219,-6743406 -346217,-6743403 -346211,-6743307 -346210,-6743249 -346211,-6743186 -346211,-6743181 -346210,-6743178 -346118,-6743171 -346090,-6743167 -346071,-6743163 -346051,-6743159 -346031,-6743153 -345915,-6743112 -345882,-6743096 -345864,-6743087 -345847,-6743077 -345744,-6743015 -345654,-6742955 -345633,-6742942 -345597,-6742923 -345560,-6742906 -345547,-6742901 -345520,-6742891 -345452,-6742870 -345432,-6742865 -345401,-6742860 -345352,-6742852 -345310,-6742846 -345281,-6742844 -345261,-6742843 -345242,-6742844 -345195,-6742851 -345129,-6742859 -345110,-6742866 -345036,-6742904 -345014,-6742919 -345000,-6742931 -344980,-6742949 -344922,-6743013 -344789,-6743167 -344619,-6743337 -344575,-6743382 -344537,-6743412 -344501,-6743439 -344476,-6743461 -344450,-6743482 -344401,-6743529 -344252,-6743640 -344239,-6743647 -344228,-6743654 -344224,-6743654 -344124,-6743584 -344120,-6743584 -344100,-6743595 -344094,-6743599 -344079,-6743611 -344042,-6743635 -343967,-6743683 -343869,-6743744 -343814,-6743774 -343731,-6743816 -343689,-6743838 -343606,-6743875 -343570,-6743889 -343505,-6743914 -343356,-6743971 -343269,-6743888 -343194,-6743814 -343193,-6743812 -343182,-6743761 -343167,-6743717 -343163,-6743701 -343150,-6743671 -343147,-6743624 -343136,-6743568 -343134,-6743524 -343138,-6743480 -343141,-6743441 -343149,-6743410 -343148,-6743371 -343149,-6743369 -343160,-6743354 -343165,-6743337 -343165,-6743272 -343174,-6743237 -343172,-6743224 -343169,-6743214 -343150,-6743188 -343136,-6743177 -343106,-6743156 -343091,-6743146 -343062,-6743136 -342994,-6743094 -342990,-6743090 -342969,-6743062 -342932,-6742998 -342668,-6742575 -342515,-6742339 -342292,-6741983 -342096,-6741673 -341991,-6741512 -341935,-6741427 -341935,-6741425 -341935,-6741424 -342050,-6741001 -342107,-6740811 -342108,-6740805 -342106,-6740722 -342099,-6740523 -342090,-6740332 -342071,-6739990 -342067,-6739884 -342062,-6739778 -342062,-6739769 -342061,-6739720 -342053,-6739454 -342052,-6739356 -342074,-6739301 -342117,-6739208 -342172,-6739102 -342262,-6738943 -342383,-6738745 -342387,-6738742 -342501,-6738710 -342546,-6738763 -342609,-6738832 -342633,-6738851 -342679,-6738899 -342669,-6738851 -342620,-6738777 -342616,-6738753 -342604,-6738740 -342600,-6738729 -342583,-6738707 -342584,-6738696 -342566,-6738686 -342555,-6738659 -342546,-6738646 -342515,-6738589 -342506,-6738556 -342494,-6738538 -342492,-6738506 -342486,-6738482 -342473,-6738463 -342479,-6738446 -342464,-6738404 -342465,-6738384 -342446,-6738350 -342452,-6738325 -342442,-6738307 -342443,-6738292 -342425,-6738282 -342414,-6738258 -342407,-6738219 -342390,-6738211 -342383,-6738200 -342381,-6738176 -342361,-6738162 -342353,-6738141 -342353,-6738121 -342359,-6738115 -342362,-6738091 -342353,-6738076 -342352,-6738035 -342355,-6738020 -342338,-6737976 -342329,-6737939 -342341,-6737921 -342343,-6737881 -342327,-6737868 -342308,-6737828 -342303,-6737784 -342306,-6737733 -342313,-6737710 -342306,-6737686 -342277,-6737652 -342280,-6737568 -342287,-6737552 -342285,-6737499 -342289,-6737488 -342299,-6737488 -342312,-6737486 -342314,-6737485 -342328,-6737459 -342341,-6737453 -342368,-6737427 -342393,-6737397 -342394,-6737356 -342422,-6737330 -342456,-6737312 -342461,-6737320 -342482,-6737308 -342497,-6737305 -342513,-6737295 -342531,-6737295 -342526,-6737277 -342552,-6737269 -342568,-6737253 -342586,-6737247 -342613,-6737218 -342618,-6737197 -342639,-6737183 -342685,-6737176 -342690,-6737173 -342711,-6737150 -342725,-6737126 -342752,-6737065 -342788,-6737063 -342791,-6737061 -342791,-6737043 -342813,-6737032 -342828,-6737010 -342845,-6736990 -342869,-6736972 -342881,-6736952 -342887,-6736942 -342929,-6736907 -342943,-6736888 -342968,-6736845 -342985,-6736825 -343053,-6736777 -343090,-6736736 -343106,-6736730 -343123,-6736717 -343133,-6736696 -343154,-6736690 -343237,-6736624 -343289,-6736601 -343297,-6736589 -343341,-6736567 -343369,-6736538 -343386,-6736520 -343421,-6736507 -343433,-6736481 -343434,-6736438 -343454,-6736412 -343454,-6736384 -343462,-6736371 -343479,-6736363 -343489,-6736346 -343489,-6736328 -343503,-6736309 -343506,-6736298 -343528,-6736279 -343531,-6736264 -343552,-6736244 -343587,-6736202 -343590,-6736155 -343607,-6736120 -343633,-6736083 -343644,-6736051 -343659,-6736037 -343702,-6735973 -343720,-6735941 -343753,-6735905 -343778,-6735875 -343785,-6735841 -343796,-6735831 -343826,-6735778 -343864,-6735730 -343929,-6735683 -343931,-6735666 -343945,-6735648 -343981,-6735625 -344005,-6735596 -344024,-6735580 -344047,-6735543 -344066,-6735525 -344105,-6735475 -344162,-6735406 -344191,-6735379 -344194,-6735365 -344210,-6735338 -344233,-6735319 -344253,-6735288 -344280,-6735258 -344278,-6735243 -344289,-6735215 -344287,-6735198 -344307,-6735166 -344317,-6735140 -344331,-6735122 -344351,-6735114 -344370,-6735081 -344386,-6735059 -344410,-6735034 -344443,-6734997 -344464,-6734990 -344500,-6734970 -344519,-6734954 -344532,-6734948 -344565,-6734942 -344628,-6734920 -344654,-6734906 -344673,-6734890 -344695,-6734878 -344724,-6734870 -344765,-6734855 -344789,-6734851 -344836,-6734813 -344866,-6734799 -344891,-6734783 -344904,-6734769 -344903,-6734749 -344935,-6734729 -344952,-6734697 -344970,-6734677 -344983,-6734634 -344994,-6734629 -345022,-6734575 -345042,-6734557 -345054,-6734536 -345067,-6734500 -345078,-6734502 -345108,-6734457 -345121,-6734445 -345126,-6734434 -345121,-6734413 -345121,-6734391 -345160,-6734328 -345173,-6734316 -345217,-6734294 -345238,-6734274 -345283,-6734257 -345301,-6734243 -345337,-6734231 -345385,-6734207 -345375,-6734175 -345361,-6734152 -345347,-6734129 -345318,-6734089 -345310,-6734060 -345306,-6734032 -345305,-6734004 -345307,-6733977 -345309,-6733965 -345332,-6733855 -345336,-6733820 -345336,-6733785 -345334,-6733767 -345333,-6733760 -345328,-6733747 -345321,-6733736 -345305,-6733713 -345296,-6733704 -345286,-6733695 -345251,-6733667 -345219,-6733645 -345173,-6733618 -345124,-6733594 -345070,-6733577 -345041,-6733568 -345014,-6733561 -344972,-6733550 -344872,-6733534 -344782,-6733521 -344763,-6733502 -344726,-6733490 -344652,-6733457 -344602,-6733442 -344567,-6733424 -344496,-6733386 -344187,-6733243 -344127,-6733217 -344054,-6733183 -343972,-6733144 -343641,-6732991 -343622,-6732974 -343602,-6732965 -343601,-6732962 -343588,-6732808 -343553,-6732456 -343497,-6731907 -343495,-6731902 -343405,-6731786 -343391,-6731774 -343348,-6731761 -343317,-6731730 -343277,-6731700 -343275,-6731699 -343264,-6731701 -343262,-6731700 -343249,-6731690 -343249,-6731688 -343252,-6731682 -343251,-6731679 -343230,-6731658 -343229,-6731657 -343218,-6731656 -343174,-6731651 -343124,-6731647 -343122,-6731647 -343100,-6731633 -343067,-6731604 -343081,-6731576 -343095,-6731567 -343121,-6731536 -343125,-6731536 -343180,-6731319 -343180,-6731205 -343192,-6731167 -343187,-6731157 -343195,-6731051 -343268,-6731031 -343242,-6731004 -343216,-6730975 -343182,-6730945 -343152,-6730905 -343140,-6730861 -343140,-6730827 -343132,-6730801 -343118,-6730783 -343105,-6730776 -343089,-6730689 -343082,-6730661 -343045,-6730586 -343037,-6730564 -343046,-6730561 -343024,-6730499 -342999,-6730454 -342955,-6730419 -342876,-6730390 -342831,-6730369 -342793,-6730345 -342770,-6730327 -342758,-6730307 -342735,-6730251 -342717,-6730217 -342700,-6730208 -342682,-6730190 -342669,-6730191 -342616,-6730145 -342584,-6730113 -342542,-6730064 -342531,-6730060 -342498,-6730032 -342428,-6729966 -342394,-6729937 -342352,-6729897 -342338,-6729873 -342320,-6729852 -342265,-6729760 -342240,-6729726 -342223,-6729704 -342184,-6729658 -342183,-6729644 -342161,-6729661 -342110,-6729677 -342079,-6729641 -342054,-6729619 -342022,-6729605 -342025,-6729577 -342013,-6729552 -342007,-6729538 -341980,-6729495 -341964,-6729456 -341945,-6729413 -341891,-6729363 -341823,-6729330 -341738,-6729288 -341707,-6729267 -341690,-6729262 -341600,-6729251 -341566,-6729240 -341448,-6729191 -341383,-6729176 -341338,-6729172 -341312,-6729153 -341243,-6729147 -341155,-6729121 -341074,-6729103 -341049,-6729102 -341049,-6729076 -341062,-6729066 -341064,-6729030 -341086,-6729000 -341082,-6728953 -341104,-6728893 -341146,-6728825 -341151,-6728821 -341181,-6728794 -341225,-6728779 -341236,-6728782 -341250,-6728769 -341302,-6728743 -341316,-6728739 -341415,-6728686 -341410,-6728673 -341438,-6728660 -341408,-6728600 -341438,-6728599 -341449,-6728596 -341458,-6728590 -341465,-6728585 -341505,-6728554 -341541,-6728528 -341581,-6728498 -341619,-6728471 -341662,-6728550 -341700,-6728603 -341764,-6728701 -341799,-6728749 -341801,-6728758 -341907,-6728592 -341927,-6728572 -341931,-6728555 -341951,-6728533 -341963,-6728501 -341967,-6728504 -341987,-6728467 -341992,-6728428 -341988,-6728300 -341992,-6728271 -342021,-6728212 -342023,-6728193 -342063,-6728141 -342080,-6728124 -342087,-6728116 -342088,-6728114 -342145,-6728072 -342174,-6728130 -342196,-6728163 -342217,-6728186 -342235,-6728196 -342249,-6728195 -342358,-6728159 -342423,-6728141 -342509,-6728126 -342601,-6728118 -342634,-6728117 -342682,-6728118 -342687,-6728048 -342697,-6728024 -342917,-6727786 -342945,-6727740 -342967,-6727712 -342985,-6727684 -343022,-6727623 -343082,-6727520 -343103,-6727488 -343118,-6727457 -343126,-6727420 -343127,-6727419 -343142,-6727433 -343183,-6727507 -343196,-6727539 -343211,-6727569 -343230,-6727598 -343234,-6727601 -343293,-6727625 -343330,-6727665 -343354,-6727677 -343357,-6727676 -343383,-6727640 -343395,-6727621 -343409,-6727603 -343415,-6727597 -343443,-6727579 -343452,-6727571 -343463,-6727561 -343473,-6727549 -343480,-6727538 -343486,-6727525 -343501,-6727488 -343516,-6727438 -343517,-6727422 -343519,-6727419 -343543,-6727404 -343547,-6727406 -343574,-6727444 -343598,-6727499 -343609,-6727529 -343628,-6727565 -343638,-6727599 -343657,-6727642 -343679,-6727670 -343702,-6727706 -343706,-6727707 -343808,-6727708 -343851,-6727693 -343948,-6727672 -343968,-6727669 -343970,-6727667 -343982,-6727637 -343984,-6727634 -344030,-6727610 -344152,-6727555 -344262,-6727517 -344263,-6727514 -344257,-6727489 -344255,-6727487 -344246,-6727486 -344244,-6727484 -344220,-6727368 -344220,-6727366 -344256,-6727278 -344288,-6727206 -344306,-6727160 -344307,-6727154 -344310,-6727094 -344310,-6727046 -344352,-6726956 -344374,-6726903 -344377,-6726803 -344381,-6726752 -344389,-6726691 -344391,-6726660 -344390,-6726644 -344384,-6726589 -344385,-6726587 -344393,-6726579 -344396,-6726580 -344423,-6726606 -344447,-6726633 -344455,-6726643 -344486,-6726687 -344505,-6726711 -344525,-6726731 -344576,-6726774 -344584,-6726779 -344614,-6726791 -344640,-6726804 -344670,-6726823 -344713,-6726856 -344721,-6726860 -344740,-6726858 -344807,-6726895 -344855,-6726925 -344898,-6726969 -344942,-6727024 -344957,-6727039 -344971,-6727045 -345005,-6727045 -345026,-6727049 -345044,-6727062 -345059,-6727099 -345067,-6727116 -345082,-6727129 -345132,-6727152 -345153,-6727166 -345189,-6727212 -345190,-6727223 -345203,-6727241 -345228,-6727273 -345276,-6727305 -345320,-6727370 -345391,-6727437 -345417,-6727436 -345435,-6727436 -345449,-6727437 -345551,-6727513 -345664,-6727621 -345706,-6727595 -345866,-6727516 -345882,-6727502 -345885,-6727502 -345899,-6727511 -345902,-6727510 -345942,-6727476 -346005,-6727412 -346039,-6727381 -346072,-6727345 -346103,-6727319 -346131,-6727300 -346150,-6727290 -346157,-6727285 -346161,-6727282 -346164,-6727278 -346164,-6727274 -346163,-6727272 -346146,-6727255 -346141,-6727248 -346132,-6727234 -346131,-6727229 -346131,-6727212 -346133,-6727209 -346241,-6727181 -346260,-6727176 -346276,-6727171 -346325,-6727147 -346344,-6727138 -346426,-6727100 -346471,-6727079 -346470,-6727077 -346417,-6727053 -346396,-6727046 -346394,-6727045 -346391,-6727034 -346393,-6727032 -346480,-6727007 -346522,-6726998 -346558,-6726998 -346587,-6726994 -346653,-6726994 -346675,-6726989 -346690,-6726981 -346707,-6726967 -346718,-6726959 -346721,-6726960 -346726,-6726967 -346727,-6726968 -346761,-6726957 -346763,-6726955 -346771,-6726947 -346774,-6726946 -346785,-6726951 -346790,-6726952 -346831,-6726944 -346911,-6726922 -346981,-6726894 -347029,-6726872 -347087,-6726840 -347166,-6726800 -347169,-6726802 -347174,-6726815 -347178,-6726817 -347208,-6726811 -347240,-6726803 -347311,-6726779 -347313,-6726775 -347320,-6726732 -347362,-6726661 -347375,-6726643 -347376,-6726642 -347377,-6726611 -347375,-6726608 -347345,-6726585 -347309,-6726563 -347263,-6726529 -347246,-6726514 -347245,-6726512 -347241,-6726501 -347243,-6726499 -347439,-6726419 -347441,-6726416 -347442,-6726375 -347443,-6726369 -347454,-6726340 -347472,-6726301 -347560,-6726222 -347639,-6726151 -347686,-6726137 -347743,-6726121 -347753,-6726114 -347773,-6726078 -347783,-6726069 -347783,-6726057 -347752,-6725997 -347733,-6725930 -347714,-6725878 -347713,-6725849 -347722,-6725841 -347711,-6725829 -347696,-6725805 -347688,-6725786 -347685,-6725774 -347683,-6725758 -347682,-6725740 -347685,-6725705 -347694,-6725672 -347707,-6725625 -347746,-6725476 -347756,-6725440 -347756,-6725410 -347753,-6725366 -347750,-6725335 -347719,-6725253 -347697,-6725182 -347625,-6724970 -347607,-6724931 -347595,-6724908 -347576,-6724851 -347555,-6724804 -347531,-6724763 -347506,-6724713 -347498,-6724673 -347497,-6724620 -347510,-6724532 -347513,-6724485 -347512,-6724482 -347487,-6724470 -347456,-6724473 -347428,-6724480 -347409,-6724484 -347390,-6724490 -347347,-6724506 -347314,-6724521 -347281,-6724543 -347213,-6724589 -347155,-6724625 -347105,-6724649 -347056,-6724661 -347031,-6724666 -346989,-6724666 -346967,-6724665 -346922,-6724657 -346882,-6724652 -346824,-6724643 -346789,-6724634 -346774,-6724629 -346761,-6724621 -346723,-6724598 -346664,-6724547 -346593,-6724483 -346566,-6724448 -346545,-6724389 -346527,-6724358 -346493,-6724324 -346457,-6724290 -346412,-6724261 -346344,-6724227 -346317,-6724210 -346298,-6724197 -346273,-6724178 -346206,-6724117 -346194,-6724107 -346162,-6724085 -346156,-6724080 -346140,-6724062 -346133,-6724052 -346120,-6724031 -346109,-6724013 -346103,-6723999 -346096,-6723981 -346085,-6723940 -346080,-6723900 -346070,-6723879 -346042,-6723855 -345993,-6723826 -345860,-6723743 -345765,-6723677 -345724,-6723648 -345683,-6723623 -345648,-6723606 -345604,-6723595 -345585,-6723591 -345565,-6723590 -345545,-6723591 -345518,-6723595 -345487,-6723606 -345447,-6723614 -345412,-6723624 -345379,-6723639 -345345,-6723664 -345302,-6723704 -345210,-6723790 -345168,-6723825 -345158,-6723831 -345150,-6723835 -345136,-6723837 -345107,-6723836 -345096,-6723827 -345045,-6723771 -345039,-6723761 -345034,-6723754 -345031,-6723745 -345028,-6723734 -345026,-6723718 -345030,-6723675 -345030,-6723651 -345016,-6723570 -345007,-6723508 -345000,-6723470 -344996,-6723454 -344982,-6723427 -344964,-6723387 -344933,-6723305 -344890,-6723235 -344806,-6723127 -344787,-6723105 -344772,-6723092 -344753,-6723076 -344693,-6723041 -344641,-6723007 -344592,-6722971 -344579,-6722962 -344539,-6722939 -344502,-6722919 -344477,-6722907 -344465,-6722900 -344448,-6722886 -344421,-6722862 -344386,-6722826 -344374,-6722814 -344348,-6722793 -344335,-6722782 -344318,-6722773 -344287,-6722763 -344260,-6722762 -344226,-6722763 -344174,-6722771 -344148,-6722767 -344096,-6722757 -344079,-6722749 -344060,-6722738 -344051,-6722730 -344042,-6722722 -344034,-6722712 -344028,-6722703 -344023,-6722692 -344016,-6722678 -344006,-6722647 -344000,-6722614 -343999,-6722576 -344002,-6722485 -344008,-6722448 -344020,-6722420 -344028,-6722393 -344046,-6722359 -344070,-6722308 -344100,-6722268 -344111,-6722251 -344119,-6722237 -344124,-6722225 -344167,-6722104 -344175,-6722087 -344197,-6722037 -344213,-6722012 -344244,-6721972 -344281,-6721918 -344299,-6721889 -344303,-6721870 -344308,-6721824 -344312,-6721801 -344336,-6721677 -344343,-6721658 -344350,-6721643 -344359,-6721625 -344372,-6721604 -344390,-6721576 -344432,-6721522 -344455,-6721501 -344613,-6721451 -344709,-6721447 -344746,-6721454 -344793,-6721474 -344847,-6721505 -344883,-6721534 -344952,-6721585 -344971,-6721604 -344975,-6721611 -344994,-6721643 -345007,-6721686 -345011,-6721785 -345015,-6721814 -345043,-6721874 -345059,-6721898 -345078,-6721919 -345104,-6721929 -345130,-6721927 -345155,-6721914 -345184,-6721897 -345199,-6721892 -345217,-6721887 -345328,-6721847 -345361,-6721837 -345384,-6721823 -345469,-6721760 -345496,-6721734 -345508,-6721721 -345518,-6721708 -345527,-6721695 -345533,-6721683 -345538,-6721670 -345543,-6721655 -345545,-6721639 -345546,-6721629 -345547,-6721622 -345547,-6721605 -345545,-6721584 -345541,-6721563 -345537,-6721545 -345525,-6721508 -345517,-6721489 -345508,-6721469 -345496,-6721450 -345482,-6721429 -345462,-6721405 -345420,-6721366 -345378,-6721335 -345331,-6721299 -345255,-6721222 -345192,-6721163 -345161,-6721130 -345131,-6721093 -345114,-6721059 -345102,-6721024 -345090,-6720989 -345095,-6720972 -345109,-6720951 -345122,-6720938 -345156,-6720900 -345266,-6720797 -345291,-6720779 -345312,-6720759 -345335,-6720744 -345366,-6720733 -345403,-6720725 -345447,-6720723 -345486,-6720723 -345536,-6720725 -345605,-6720727 -345657,-6720731 -345694,-6720736 -345754,-6720733 -345795,-6720722 -345825,-6720715 -345914,-6720676 -345935,-6720657 -346006,-6720566 -346037,-6720529 -346063,-6720488 -346078,-6720441 -346085,-6720392 -346082,-6720344 -346073,-6720291 -346069,-6720238 -346077,-6720203 -346081,-6720153 -346079,-6720109 -346075,-6720084 -346078,-6720040 -346086,-6719997 -346098,-6719963 -346116,-6719930 -346136,-6719906 -346173,-6719876 -346202,-6719862 -346242,-6719852 -346274,-6719844 -346290,-6719839 -346313,-6719829 -346329,-6719816 -346339,-6719794 -346348,-6719740 -346351,-6719717 -346363,-6719635 -346366,-6719606 -346364,-6719582 -346353,-6719555 -346333,-6719527 -346246,-6719432 -346231,-6719403 -346227,-6719383 -346230,-6719358 -346243,-6719328 -346262,-6719291 -346284,-6719256 -346299,-6719233 -346308,-6719223 -346319,-6719213 -346333,-6719200 -346371,-6719162 -346395,-6719133 -346431,-6719069 -346451,-6719020 -346474,-6718987 -346503,-6718968 -346532,-6718959 -346544,-6718955 -346567,-6718950 -346625,-6718941 -346672,-6718931 -346736,-6718913 -346826,-6718906 -346955,-6718894 -346973,-6718890 -346979,-6718887 -346988,-6718882 -346995,-6718876 -347005,-6718865 -347013,-6718852 -347018,-6718817 -347022,-6718783 -347019,-6718679 -347015,-6718646 -347019,-6718606 -347033,-6718572 -347065,-6718534 -347087,-6718515 -347160,-6718445 -347182,-6718417 -347193,-6718384 -347206,-6718385 -347233,-6718400 -347257,-6718420 -347276,-6718460 -347312,-6718559 -347335,-6718593 -347363,-6718615 -347406,-6718658 -347428,-6718669 -347432,-6718683 -347441,-6718689 -347464,-6718679 -347483,-6718677 -347494,-6718668 -347519,-6718670 -347533,-6718673 -347542,-6718666 -347569,-6718665 -347572,-6718680 -347591,-6718663 -347613,-6718657 -347623,-6718670 -347632,-6718671 -347633,-6718671 -347646,-6718659 -347692,-6718654 -347699,-6718646 -347722,-6718642 -347748,-6718660 -347751,-6718660 -347801,-6718638 -347797,-6718627 -347826,-6718628 -347842,-6718617 -347859,-6718632 -347893,-6718624 -347904,-6718631 -347923,-6718636 -347935,-6718644 -347944,-6718651 -347973,-6718683 -347994,-6718693 -348013,-6718707 -348041,-6718716 -348055,-6718722 -348082,-6718734 -348094,-6718741 -348105,-6718748 -348128,-6718768 -348129,-6718780 -347964,-6718861 -347988,-6718940 -347983,-6718962 -347961,-6719018 -347950,-6719038 -347937,-6719061 -347905,-6719108 -347882,-6719139 -347922,-6719200 -348236,-6719117 -348462,-6719329 -348491,-6719334 -348492,-6719341 -348514,-6719341 -348524,-6719350 -348541,-6719356 -348539,-6719364 -348577,-6719381 -348613,-6719384 -348634,-6719397 -348684,-6719409 -348702,-6719423 -348721,-6719430 -348788,-6719474 -348816,-6719498 -348856,-6719495 -348871,-6719504 -348890,-6719500 -348920,-6719498 -348930,-6719490 -348974,-6719487 -348970,-6719498 -349019,-6719600 -348984,-6719646 -349017,-6719650 -349042,-6719657 -349232,-6719713 -349266,-6719724 -349328,-6719736 -349374,-6719739 -349397,-6719742 -349409,-6719749 -349435,-6719764 -349534,-6719821 -349610,-6719867 -349670,-6719899 -349674,-6719899 -349770,-6719880 -349965,-6719835 -349985,-6719871 -350012,-6719918 -350026,-6719942 -350036,-6719967 -350047,-6719991 -350055,-6720013 -350062,-6720037 -350057,-6720070 -350046,-6720106 -350042,-6720120 -350067,-6720123 -350128,-6720073 -350137,-6720048 -350157,-6720002 -350166,-6719987 -350173,-6719925 -350186,-6719906 -350202,-6719878 -350207,-6719862 -350209,-6719827 -350223,-6719786 -350222,-6719769 -350263,-6719695 -350267,-6719676 -350278,-6719644 -350287,-6719625 -350328,-6719624 -350350,-6719634 -350384,-6719635 -350464,-6719559 -350473,-6719541 -350527,-6719490 -350541,-6719468 -350610,-6719419 -350632,-6719392 -350690,-6719361 -350809,-6719413 -350864,-6719433 -350925,-6719461 -350943,-6719458 -350949,-6719467 -350950,-6719474 -350946,-6719484 -350952,-6719495 -350954,-6719523 -350964,-6719545 -350960,-6719555 -350990,-6719593 -350991,-6719603 -350980,-6719602 -350975,-6719612 -350984,-6719631 -351005,-6719646 -351011,-6719655 -351028,-6719663 -351030,-6719672 -351038,-6719680 -351049,-6719683 -351062,-6719704 -351079,-6719705 -351079,-6719723 -351084,-6719732 -351075,-6719743 -351091,-6719754 -351096,-6719765 -351087,-6719791 -351088,-6719804 -351119,-6719830 -351118,-6719873 -351126,-6719885 -351145,-6719899 -351164,-6719902 -351178,-6719920 -351186,-6719924 -351199,-6719929 -351212,-6719928 -351225,-6719962 -351241,-6720004 -351239,-6720023 -351244,-6720041 -351247,-6720121 -351269,-6720164 -351299,-6720258 -351311,-6720260 -351326,-6720278 -351374,-6720355 -351372,-6720365 -351390,-6720379 -351429,-6720472 -351465,-6720517 -351477,-6720540 -351520,-6720574 -351537,-6720582 -351564,-6720603 -351590,-6720613 -351605,-6720626 -351662,-6720657 -351729,-6720707 -351758,-6720717 -351759,-6720719 -351754,-6720724 -351798,-6720751 -351804,-6720746 -351830,-6720751 -351835,-6720753 -351916,-6720806 -351951,-6720823 -351967,-6720849 -351999,-6720892 -352054,-6720947 -352085,-6720928 -352185,-6721045 -352216,-6721015 -352239,-6720982 -352279,-6720937 -352290,-6720928 -352305,-6720926 -352361,-6720900 -352398,-6720881 -352509,-6720843 -352569,-6720829 -352605,-6720832 -352654,-6720818 -352731,-6720790 -352800,-6720768 -352853,-6720745 -352938,-6720727 -353011,-6720711 -353066,-6720704 -353135,-6720692 -353198,-6720682 -353309,-6720675 -353495,-6720639 -353621,-6720634 -353697,-6720622 -353714,-6720632 -353754,-6720622 -353885,-6720569 -353898,-6720557 -353948,-6720541 -353975,-6720538 -353982,-6720529 -353981,-6720508 -353965,-6720493 -354038,-6720474 -354088,-6720459 -354109,-6720446 -354127,-6720437 -354185,-6720424 -354274,-6720399 -354335,-6720387 -354446,-6720362 -354450,-6720363 -354480,-6720392 -354488,-6720399 -354510,-6720413 -354528,-6720416 -354579,-6720400 -354627,-6720386 -354651,-6720376 -354688,-6720371 -354717,-6720372 -354772,-6720388 -354806,-6720393 -354834,-6720387 -354856,-6720375 -354891,-6720364 -354900,-6720371 -354906,-6720411 -354921,-6720419 -354921,-6720433 -354962,-6720477 -355001,-6720492 -355016,-6720508 -355055,-6720526 -355121,-6720536 -355148,-6720532 -355189,-6720538 -355214,-6720537 -355240,-6720539 -355245,-6720538 -355268,-6720534 -355288,-6720507 -355295,-6720500 -355307,-6720491 -355383,-6720461 -355420,-6720447 -355447,-6720435 -355550,-6720410 -355663,-6720368 -355695,-6720385 -355713,-6720384 -355747,-6720365 -355802,-6720342 -355839,-6720360 -355880,-6720355 -355923,-6720344 -355980,-6720330 -356032,-6720310 -356064,-6720297 -356087,-6720290 -356131,-6720287 -356166,-6720285 -356178,-6720317 -356194,-6720345 -356211,-6720373 -356217,-6720369 -356226,-6720352 -356227,-6720350 -356246,-6720336 -356269,-6720325 -356316,-6720305 -356341,-6720287 -356378,-6720248 -356437,-6720201 -356481,-6720148 -356524,-6720116 -356516,-6720089 -356509,-6720076 -356491,-6720019 -356444,-6719940 -356445,-6719937 -356572,-6719849 -356593,-6719830 -356685,-6719800 -356757,-6719781 -356784,-6719768 -356863,-6719744 -356896,-6719730 -356926,-6719721 -356959,-6719712 -356990,-6719710 -357062,-6719694 -357064,-6719692 -357049,-6719656 -357050,-6719653 -357132,-6719637 -357289,-6719603 -357338,-6719586 -357344,-6719581 -357381,-6719573 -357383,-6719572 -357404,-6719549 -357422,-6719540 -357462,-6719534 -357492,-6719524 -357563,-6719517 -357619,-6719487 -357635,-6719478 -357637,-6719474 -357639,-6719448 -357640,-6719446 -357706,-6719456 -357724,-6719474 -357728,-6719475 -357749,-6719461 -357811,-6719448 -357865,-6719440 -357863,-6719424 -357908,-6719407 -357989,-6719406 -358003,-6719421 -358015,-6719435 -357998,-6719459 -357951,-6719531 -357947,-6719554 -357936,-6719596 -357907,-6719596 -357899,-6719615 -357895,-6719643 -357897,-6719679 -357907,-6719701 -357913,-6719738 -357934,-6719738 -357956,-6719733 -357977,-6719717 -357993,-6719708 -357992,-6719693 -358008,-6719682 -358034,-6719684 -358053,-6719675 -358064,-6719663 -358107,-6719653 -358112,-6719660 -358149,-6719651 -358244,-6719620 -358275,-6719606 -358300,-6719590 -358324,-6719591 -358332,-6719581 -358341,-6719557 -358365,-6719548 -358416,-6719500 -358436,-6719488 -358446,-6719488 -358453,-6719481 -358462,-6719480 -358474,-6719467 -358489,-6719465 -358498,-6719478 -358507,-6719465 -358505,-6719452 -358520,-6719450 -358548,-6719436 -358603,-6719417 -358619,-6719396 -358654,-6719383 -358700,-6719381 -358712,-6719372 -358731,-6719377 -358756,-6719364 -358780,-6719347 -358800,-6719334 -358827,-6719336 -358833,-6719341 -358845,-6719334 -358860,-6719342 -358866,-6719333 -358888,-6719329 -358898,-6719340 -358906,-6719340 -358965,-6719310 -358983,-6719303 -358987,-6719298 -359007,-6719291 -359053,-6719290 -359076,-6719283 -359143,-6719242 -359153,-6719242 -359226,-6719203 -359230,-6719199 -359247,-6719179 -359260,-6719157 -359263,-6719153 -359285,-6719140 -359296,-6719132 -359299,-6719130 -359314,-6719119 -359325,-6719139 -359327,-6719187 -359367,-6719187 -359405,-6719246 -359521,-6719349 -359533,-6719340 -359547,-6719320 -359611,-6719269 -359624,-6719268 -359657,-6719305 -359717,-6719376 -359750,-6719412 -359772,-6719440 -359788,-6719465 -359889,-6719530 -359917,-6719540 -359938,-6719552 -359962,-6719593 -359972,-6719616 -359979,-6719662 -360002,-6719685 -360042,-6719669 -360107,-6719634 -360120,-6719633 -360153,-6719685 -360167,-6719672 -360189,-6719665 -360237,-6719658 -360278,-6719655 -360287,-6719647 -360326,-6719627 -360349,-6719618 -360374,-6719606 -360404,-6719600 -360407,-6719632 -360418,-6719631 -360440,-6719754 -360415,-6719813 -360401,-6719858 -360392,-6719910 -360384,-6720001 -360382,-6720070 -360376,-6720089 -360338,-6720132 -360320,-6720152 -360309,-6720177 -360292,-6720212 -360283,-6720255 -360267,-6720349 -360265,-6720378 -360278,-6720410 -360288,-6720457 -360279,-6720510 -360282,-6720537 -360299,-6720581 -360318,-6720628 -360334,-6720664 -360354,-6720694 -360398,-6720738 -360413,-6720752 -360443,-6720757 -360487,-6720770 -360502,-6720783 -360516,-6720835 -360547,-6720944 -360561,-6720965 -360562,-6720982 -360577,-6721019 -360595,-6721070 -360613,-6721152 -360625,-6721151 -360628,-6721218 -360637,-6721264 -360650,-6721304 -360679,-6721347 -360691,-6721355 -360689,-6721364 -360749,-6721402 -360800,-6721433 -360847,-6721478 -360849,-6721496 -360870,-6721562 -360884,-6721592 -360890,-6721649 -360891,-6721687 -360896,-6721783 -360907,-6721812 -360917,-6721832 -360926,-6721880 -360934,-6721916 -360948,-6721938 -360961,-6721953 -360999,-6721980 -361037,-6722008 -361125,-6722058 -361167,-6722083 -361213,-6722105 -361292,-6722138 -361320,-6722152 -361375,-6722221 -361393,-6722231 -361447,-6722296 -361516,-6722390 -361545,-6722441 -361563,-6722476 -361576,-6722512 -361588,-6722538 -361604,-6722550 -361628,-6722553 -361633,-6722555 -361646,-6722563 -361659,-6722581 -361662,-6722584 -361664,-6722588 -361665,-6722591 -361666,-6722595 -361667,-6722598 -361667,-6722599 -361673,-6722615 -361677,-6722625 -361678,-6722627 -361680,-6722630 -361683,-6722633 -361685,-6722635 -361688,-6722637 -361691,-6722638 -361694,-6722640 -361698,-6722641 -361701,-6722641 -361703,-6722642 -361708,-6722642 -361713,-6722642 -361717,-6722642 -361722,-6722641 -361723,-6722641 -361727,-6722640 -361731,-6722638 -361734,-6722636 -361738,-6722634 -361739,-6722633 -361746,-6722628 -361753,-6722624 -361756,-6722621 -361764,-6722614 -361770,-6722609 -361794,-6722591 -361831,-6722589 -361837,-6722588 -361847,-6722588 -361857,-6722588 -361859,-6722588 -361867,-6722589 -361900,-6722593 -361952,-6722605 -361950,-6722613 -361998,-6722621 -361999,-6722627 -362135,-6722622 -362258,-6722611 -362254,-6722598 -362285,-6722573 -362401,-6722483 -362431,-6722471 -362493,-6722447 -362547,-6722422 -362581,-6722403 -362698,-6722327 -362710,-6722309 -362737,-6722289 -362861,-6722226 -362873,-6722227 -362894,-6722209 -362978,-6722163 -362986,-6722165 -363071,-6722124 -363134,-6722099 -363157,-6722084 -363210,-6722068 -363219,-6722072 -363231,-6722144 -363246,-6722232 -363257,-6722291 -363273,-6722342 -363294,-6722407 -363296,-6722467 -363302,-6722486 -363330,-6722539 -363345,-6722564 -363378,-6722599 -363393,-6722613 -363431,-6722649 -363451,-6722676 -363466,-6722717 -363488,-6722798 -363518,-6722876 -363531,-6722886 -363546,-6722924 -363575,-6722968 -363651,-6723042 -363679,-6723076 -363700,-6723135 -363722,-6723155 -363735,-6723179 -363756,-6723202 -363804,-6723257 -363808,-6723282 -363809,-6723427 -363809,-6723522 -363879,-6723618 -363972,-6723714 -363969,-6723719 -363935,-6723793 -363901,-6723842 -363880,-6723873 -363876,-6723876 -363851,-6723885 -363868,-6723937 -363910,-6723993 -363944,-6724045 -363944,-6724048 -363936,-6724053 -363899,-6724102 -363759,-6724241 -363755,-6724243 -363729,-6724248 -363712,-6724263 -363614,-6724314 -363611,-6724318 -363607,-6724332 -363607,-6724335 -363626,-6724421 -363646,-6724495 -363646,-6724510 -363655,-6724539 -363676,-6724581 -363705,-6724647 -363751,-6724732 -363888,-6725018 -363964,-6725175 -363997,-6725223 -364040,-6725266 -364060,-6725285 -364081,-6725303 -364140,-6725353 -364144,-6725354 -364176,-6725353 -364204,-6725350 -364257,-6725355 -364288,-6725362 -364299,-6725362 -364335,-6725387 -364355,-6725390 -364401,-6725416 -364434,-6725430 -364490,-6725461 -364489,-6725466 -364513,-6725477 -364534,-6725485 -364575,-6725505 -364671,-6725550 -364686,-6725563 -364746,-6725625 -364842,-6725730 -364846,-6725730 -364909,-6725691 -364955,-6725670 -364988,-6725652 -365033,-6725621 -365051,-6725602 -365113,-6725549 -365114,-6725546 -365096,-6725514 -365097,-6725511 -365175,-6725429 -365195,-6725442 -365206,-6725431 -365232,-6725406 -365233,-6725403 -365234,-6725380 -365234,-6725378 -365252,-6725356 -365251,-6725353 -365239,-6725339 -365234,-6725321 -365234,-6725316 -365244,-6725306 -365252,-6725315 -365278,-6725349 -365290,-6725378 -365314,-6725419 -365343,-6725468 -365412,-6725551 -365441,-6725584 -365454,-6725596 -365551,-6725685 -365623,-6725718 -365713,-6725767 -365786,-6725788 -365787,-6725784 -365787,-6725784 -365786,-6725793 -365851,-6725812 -365888,-6725831 -365910,-6725847 -365935,-6725876 -365982,-6725938 -366039,-6726038 -366087,-6726147 -366096,-6726146 -366156,-6726281 -366179,-6726287 -366183,-6726329 -366204,-6726384 -366251,-6726460 -366252,-6726541 -366257,-6726594 -366266,-6726647 -366278,-6726688 -366289,-6726708 -366316,-6726733 -366344,-6726717 -366350,-6726725 -366394,-6726706 -366437,-6726822 -366469,-6726924 -366403,-6726946 -366443,-6727077 -366458,-6727107 -366516,-6727174 -366532,-6727222 -366541,-6727251 -366537,-6727299 -366533,-6727326 -366528,-6727353 -366480,-6727522 -366473,-6727571 -366473,-6727672 -366466,-6727739 -366476,-6727739 -366491,-6727739 -366658,-6727738 -366647,-6727766 -366643,-6727784 -366642,-6727829 -366644,-6727868 -366647,-6727921 -366632,-6727985 -366620,-6728072 -366611,-6728099 -366593,-6728112 -366591,-6728127 -366593,-6728148 -366597,-6728165 -366576,-6728202 -366567,-6728227 -366570,-6728243 -366573,-6728258 -366579,-6728270 -366584,-6728283 -366600,-6728302 -366605,-6728322 -366617,-6728321 -366670,-6728381 -366675,-6728384 -366699,-6728391 -366701,-6728392 -366715,-6728413 -366723,-6728427 -366735,-6728442 -366749,-6728472 -366772,-6728488 -366795,-6728514 -366847,-6728538 -366873,-6728573 -366891,-6728605 -366900,-6728602 -366908,-6728617 -366920,-6728617 -366917,-6728636 -366917,-6728644 -366930,-6728659 -366930,-6728678 -366928,-6728691 -366940,-6728705 -366953,-6728716 -366961,-6728720 -366969,-6728729 -366967,-6728749 -366970,-6728766 -366983,-6728782 -366991,-6728807 -366989,-6728824 -366997,-6728839 -366989,-6728849 -367001,-6728884 -367013,-6728906 -367020,-6728920 -367013,-6728940 -367014,-6728956 -367020,-6728970 -367032,-6728988 -367035,-6728999 -367037,-6729023 -367037,-6729034 -367032,-6729044 -367032,-6729073 -367034,-6729088 -367039,-6729113 -367045,-6729138 -367049,-6729151 -367057,-6729163 -367079,-6729181 -367087,-6729207 -367094,-6729209 -367117,-6729258 -367122,-6729275 -367163,-6729392 -367312,-6729821 -367384,-6730022 -367387,-6730030 -367387,-6730032 -367403,-6730073 -367455,-6730205 -367495,-6730333 -367513,-6730381 -367577,-6730571 -367653,-6730804 -367655,-6730808 -367660,-6730822 -367660,-6730825 -367644,-6730843 -367610,-6730904 -367571,-6730992 -367541,-6731070 -367518,-6731139 -367502,-6731179 -367484,-6731212 -367490,-6731217 -367463,-6731268 -367383,-6731380 -367416,-6731422 -367516,-6731605 -367608,-6731628 -367668,-6731654 -367758,-6731684 -367814,-6731707 -367831,-6731722 -367900,-6731791 -367912,-6731811 -367923,-6731832 -367931,-6731844 -367973,-6731896 -367972,-6731899 -367884,-6731998 -367799,-6732085 -367750,-6732128 -367699,-6732166 -367711,-6732185 -367722,-6732208 -367787,-6732288 -367857,-6732359 -367850,-6732361 -367842,-6732352 -367820,-6732357 -367783,-6732354 -367639,-6732353 -367665,-6732449 -367675,-6732474 -367682,-6732500 -367697,-6732514 -367715,-6732525 -367726,-6732537 -367725,-6732557 -367717,-6732585 -367718,-6732614 -367724,-6732649 -367732,-6732719 -367741,-6732767 -367738,-6732786 -367731,-6732799 -367732,-6732829 -367766,-6732868 -367780,-6732915 -367794,-6732941 -367811,-6732956 -367822,-6732977 -367834,-6733018 -367851,-6733057 -367883,-6733079 -367878,-6733102 -367845,-6733149 -367812,-6733190 -367808,-6733217 -367786,-6733237 -367781,-6733251 -367779,-6733267 -367758,-6733296 -367729,-6733312 -367720,-6733340 -367723,-6733357 -367723,-6733389 -367753,-6733390 -367770,-6733413 -367757,-6733415 -367738,-6733444 -367719,-6733469 -367715,-6733495 -367708,-6733510 -367683,-6733523 -367683,-6733557 -367676,-6733572 -367673,-6733591 -367666,-6733597 -367667,-6733617 -367674,-6733642 -367675,-6733658 -367661,-6733673 -367655,-6733687 -367653,-6733697 -367657,-6733707 -367668,-6733709 -367672,-6733724 -367671,-6733737 -367686,-6733748 -367691,-6733772 -367701,-6733775 -367706,-6733804 -367702,-6733811 -367711,-6733819 -367708,-6733840 -367696,-6733860 -367691,-6733882 -367700,-6733892 -367700,-6733905 -367690,-6733906 -367688,-6733916 -367693,-6733935 -367695,-6733979 -367673,-6733980 -367667,-6733994 -367676,-6734003 -367681,-6734062 -367673,-6734071 -367681,-6734080 -367684,-6734097 -367677,-6734101 -367676,-6734119 -367692,-6734142 -367694,-6734153 -367721,-6734191 -367722,-6734217 -367709,-6734237 -367727,-6734260 -367712,-6734274 -367705,-6734285 -367675,-6734306 -367659,-6734325 -367656,-6734353 -367652,-6734358 -367655,-6734367 -367648,-6734380 -367672,-6734403 -367688,-6734446 -367695,-6734468 -367696,-6734551 -367763,-6734616 -367810,-6734663 -367842,-6734688 -367854,-6734701 -367857,-6734704 -367865,-6734733 -367871,-6734769 -367871,-6734790 -367864,-6734817 -367856,-6734851 -367844,-6734888 -367845,-6734890 -367923,-6734895 -367940,-6734897 -367960,-6734900 -367969,-6734902 -367988,-6734909 -368004,-6734918 -368054,-6734963 -368145,-6735044 -368181,-6735079 -368204,-6735087 -368234,-6735101 -368273,-6735111 -368277,-6735114 -368287,-6735132 -368308,-6735179 -368316,-6735195 -368340,-6735239 -368363,-6735272 -368408,-6735334 -368430,-6735374 -368453,-6735424 -368467,-6735473 -368480,-6735509 -368495,-6735536 -368517,-6735568 -368517,-6735571 -368511,-6735579 -368511,-6735583 -368568,-6735669 -368621,-6735744 -368648,-6735786 -368648,-6735790 -368645,-6735795 -368719,-6735903 -368793,-6736019 -368902,-6736132 -368891,-6736137 -368866,-6736147 -368827,-6736161 -368766,-6736186 -368680,-6736219 -368606,-6736250 -368535,-6736254 -368470,-6736258 -368476,-6736306 -368471,-6736322 -368455,-6736358 -368452,-6736359 -368419,-6736354 -368394,-6736352 -368391,-6736354 -368374,-6736397 -368355,-6736437 -368357,-6736440 -368392,-6736457 -368394,-6736463 -368405,-6736473 -368406,-6736476 -368399,-6736490 -368396,-6736508 -368386,-6736526 -368366,-6736552 -368303,-6736614 -368263,-6736660 -368215,-6736710 -368197,-6736734 -368205,-6736739 -368111,-6736807 -368067,-6736845 -368029,-6736882 -367982,-6736909 -367945,-6736929 -367890,-6736955 -367851,-6736975 -367802,-6737023 -367772,-6737052 -367755,-6737069 -367813,-6737127 -367812,-6737130 -367760,-6737177 -367669,-6737263 -367664,-6737258 -367637,-6737279 -367617,-6737291 -367592,-6737305 -367565,-6737329 -367557,-6737337 -367551,-6737343 -367540,-6737355 -367534,-6737361 -367529,-6737365 -367516,-6737367 -367462,-6737416 -367480,-6737427 -367471,-6737439 -367463,-6737463 -367461,-6737487 -367458,-6737511 -367455,-6737509 -367422,-6737486 -367417,-6737484 -367386,-6737598 -367356,-6737708 -367357,-6737716 -367358,-6737716 -367369,-6737714 -367393,-6737711 -367422,-6737721 -367416,-6737765 -367411,-6737816 -367418,-6737845 -367425,-6737870 -367440,-6737897 -367443,-6737902 -367442,-6737906 -367425,-6737921 -367413,-6737929 -367396,-6737937 -367376,-6737943 -367367,-6737947 -367355,-6737958 -367374,-6737980 -367394,-6737999 -367336,-6738072 -367326,-6738089 -367315,-6738109 -367309,-6738121 -367300,-6738137 -367282,-6738167 -367282,-6738173 -367281,-6738183 -367270,-6738193 -367254,-6738208 -367236,-6738225 -367221,-6738236 -367206,-6738243 -367179,-6738255 -367173,-6738259 -367160,-6738312 -367127,-6738333 -367093,-6738355 -367060,-6738366 -367037,-6738376 -367023,-6738382 -367087,-6738542 -367091,-6738556 -367091,-6738560 -367089,-6738571 -367069,-6738570 -367038,-6738573 -367035,-6738584 -367040,-6738626 -367039,-6738644 -367028,-6738685 -367029,-6738697 -367033,-6738710 -367039,-6738721 -367061,-6738755 -367067,-6738765 -367081,-6738789 -367093,-6738812 -367098,-6738821 -367100,-6738827 -367100,-6738846 -367099,-6738876 -367100,-6738887 -367107,-6738922 -367106,-6738949 -367079,-6739042 -367074,-6739066 -367071,-6739081 -367072,-6739083 -367078,-6739097 -367090,-6739119 -367134,-6739177 -367153,-6739206 -367196,-6739259 -367195,-6739262 -367168,-6739279 -367147,-6739303 -367123,-6739326 -367094,-6739356 -367055,-6739408 -367000,-6739482 -366952,-6739534 -366948,-6739542 -366928,-6739593 -366916,-6739605 -366921,-6739615 -366899,-6739609 -366891,-6739607 -366881,-6739604 -366847,-6739579 -366820,-6739559 -366793,-6739526 -366793,-6739503 -366794,-6739490 -366776,-6739471 -366766,-6739456 -366761,-6739435 -366754,-6739423 -366739,-6739416 -366728,-6739410 -366725,-6739402 -366718,-6739387 -366720,-6739357 -366708,-6739337 -366701,-6739325 -366688,-6739316 -366683,-6739313 -366666,-6739303 -366654,-6739290 -366649,-6739280 -366647,-6739276 -366627,-6739259 -366603,-6739244 -366592,-6739232 -366584,-6739211 -366582,-6739173 -366579,-6739147 -366582,-6739123 -366562,-6739061 -366560,-6739036 -366548,-6739003 -366532,-6738964 -366528,-6738939 -366529,-6738879 -366526,-6738814 -366525,-6738792 -366521,-6738781 -366514,-6738775 -366504,-6738774 -366465,-6738774 -366427,-6738771 -366396,-6738767 -366374,-6738758 -366362,-6738752 -366306,-6738710 -366296,-6738688 -366293,-6738675 -366277,-6738653 -366250,-6738634 -366227,-6738624 -366219,-6738618 -366215,-6738613 -366187,-6738578 -366177,-6738571 -366144,-6738567 -366121,-6738565 -366113,-6738563 -366107,-6738557 -366071,-6738562 -366051,-6738542 -366047,-6738537 -366031,-6738533 -366007,-6738535 -365997,-6738543 -365984,-6738553 -365971,-6738558 -365948,-6738558 -365912,-6738563 -365896,-6738563 -365890,-6738561 -365852,-6738542 -365829,-6738531 -365817,-6738528 -365802,-6738529 -365783,-6738530 -365760,-6738541 -365710,-6738563 -365708,-6738564 -365705,-6738571 -365702,-6738578 -365702,-6738590 -365713,-6738604 -365718,-6738622 -365718,-6738643 -365708,-6738656 -365698,-6738676 -365670,-6738703 -365661,-6738711 -365656,-6738718 -365658,-6738732 -365659,-6738743 -365660,-6738757 -365661,-6738772 -365654,-6738784 -365645,-6738790 -365637,-6738795 -365633,-6738806 -365632,-6738815 -365632,-6738838 -365620,-6738853 -365615,-6738859 -365608,-6738893 -365600,-6738917 -365589,-6738941 -365577,-6738988 -365565,-6739011 -365563,-6739012 -365549,-6739017 -365524,-6739021 -365516,-6739026 -365510,-6739033 -365508,-6739047 -365512,-6739064 -365522,-6739086 -365546,-6739106 -365552,-6739121 -365558,-6739154 -365558,-6739164 -365555,-6739185 -365552,-6739196 -365544,-6739223 -365542,-6739232 -365542,-6739234 -365550,-6739249 -365554,-6739255 -365574,-6739276 -365578,-6739283 -365580,-6739287 -365580,-6739291 -365573,-6739311 -365573,-6739314 -365578,-6739331 -365595,-6739369 -365597,-6739376 -365598,-6739384 -365597,-6739415 -365599,-6739449 -365612,-6739489 -365612,-6739491 -365614,-6739513 -365604,-6739542 -365606,-6739554 -365608,-6739562 -365602,-6739614 -365601,-6739671 -365597,-6739716 -365594,-6739780 -365594,-6739859 -365591,-6739871 -365582,-6739886 -365572,-6739893 -365564,-6739949 -365554,-6739956 -365548,-6739956 -365552,-6739979 -365551,-6740008 -365548,-6740041 -365552,-6740046 -365556,-6740052 -365543,-6740078 -365537,-6740094 -365537,-6740095 -365540,-6740103 -365541,-6740112 -365533,-6740126 -365535,-6740145 -365535,-6740160 -365529,-6740166 -365520,-6740173 -365508,-6740177 -365502,-6740187 -365500,-6740190 -365500,-6740190 -365499,-6740192 -365503,-6740206 -365516,-6740241 -365521,-6740262 -365520,-6740272 -365517,-6740284 -365511,-6740307 -365508,-6740327 -365517,-6740349 -365516,-6740356 -365512,-6740374 -365510,-6740389 -365515,-6740403 -365524,-6740426 -365527,-6740441 -365526,-6740468 -365542,-6740472 -365547,-6740475 -365548,-6740488 -365541,-6740497 -365535,-6740505 -365534,-6740516 -365538,-6740529 -365543,-6740533 -365556,-6740530 -365560,-6740543 -365561,-6740565 -365578,-6740575 -365604,-6740601 -365607,-6740603 -365608,-6740607 -365608,-6740608 -365609,-6740614 -365607,-6740645 -365605,-6740660 -365608,-6740668 -365625,-6740701 -365626,-6740708 -365626,-6740711 -365625,-6740713 -365613,-6740720 -365609,-6740725 -365607,-6740730 -365606,-6740736 -365610,-6740747 -365614,-6740750 -365622,-6740755 -365638,-6740759 -365639,-6740760 -365641,-6740765 -365639,-6740767 -365626,-6740773 -365622,-6740775 -365621,-6740777 -365620,-6740783 -365620,-6740798 -365625,-6740819 -365630,-6740847 -365630,-6740849 -365623,-6740889 -365620,-6740897 -365617,-6740908 -365610,-6740922 -365608,-6740927 -365613,-6740967 -365610,-6740987 -365610,-6740989 -365620,-6741004 -365621,-6741009 -365623,-6741018 -365616,-6741059 -365609,-6741124 -365605,-6741133 -365598,-6741144 -365597,-6741149 -365597,-6741162 -365602,-6741185 -365603,-6741194 -365602,-6741215 -365596,-6741250 -365597,-6741259 -365601,-6741280 -365600,-6741287 -365598,-6741296 -365581,-6741319 -365580,-6741322 -365581,-6741335 -365583,-6741342 -365587,-6741349 -365591,-6741353 -365605,-6741368 -365606,-6741369 -365608,-6741378 -365606,-6741381 -365597,-6741386 -365587,-6741389 -365578,-6741389 -365573,-6741391 -365570,-6741396 -365565,-6741417 -365565,-6741419 -365567,-6741423 -365571,-6741427 -365572,-6741427 -365587,-6741428 -365589,-6741430 -365603,-6741472 -365608,-6741479 -365616,-6741495 -365627,-6741512 -365629,-6741530 -365645,-6741545 -365647,-6741556 -365658,-6741574 -365678,-6741593 -365692,-6741609 -365688,-6741635 -365694,-6741640 -365690,-6741653 -365689,-6741667 -365697,-6741675 -365695,-6741691 -365695,-6741713 -365692,-6741740 -365684,-6741746 -365685,-6741756 -365686,-6741762 -365676,-6741768 -365674,-6741792 -365661,-6741815 -365654,-6741827 -365655,-6741836 -365666,-6741861 -365666,-6741888 -365656,-6741890 -365651,-6741891 -365651,-6741901 -365650,-6741930 -365644,-6741935 -365648,-6741955 -365640,-6741962 -365629,-6741975 -365624,-6741982 -365624,-6741985 -365619,-6742000 -365615,-6742012 -365610,-6742013 -365600,-6742015 -365590,-6742020 -365580,-6742021 -365574,-6742030 -365570,-6742058 -365539,-6742075 -365541,-6742080 -365542,-6742082 -365537,-6742087 -365535,-6742088 -365529,-6742091 -365524,-6742102 -365504,-6742128 -365497,-6742138 -365489,-6742145 -365480,-6742149 -365475,-6742154 -365471,-6742161 -365468,-6742167 -365462,-6742180 -365459,-6742184 -365447,-6742196 -365426,-6742212 -365406,-6742236 -365395,-6742236 -365377,-6742238 -365366,-6742245 -365347,-6742249 -365333,-6742259 -365333,-6742265 -365332,-6742283 -365309,-6742286 -365288,-6742289 -365281,-6742296 -365276,-6742299 -365265,-6742309 -365259,-6742323 -365250,-6742322 -365242,-6742322 -365234,-6742337 -365234,-6742345 -365218,-6742364 -365204,-6742376 -365186,-6742389 -365160,-6742411 -365137,-6742443 -365130,-6742456 -365120,-6742479 -365116,-6742489 -365111,-6742513 -365105,-6742519 -365087,-6742535 -365072,-6742553 -365060,-6742569 -365047,-6742597 -365020,-6742624 -364999,-6742645 -364929,-6742680 -364927,-6742681 -364873,-6742681 -364789,-6742679 -364771,-6742678 -364694,-6742698 -364661,-6742727 -364651,-6742739 -364614,-6742762 -364568,-6742802 -364550,-6742800 -364521,-6742814 -364493,-6742823 -364492,-6742824 -364483,-6742844 -364477,-6742875 -364477,-6742879 -364452,-6742890 -364475,-6742909 -364483,-6742909 -364489,-6742915 -364490,-6742928 -364561,-6743003 -364599,-6743044 -364618,-6743069 -364628,-6743100 -364648,-6743160 -364671,-6743253 -364694,-6743340 -364725,-6743448 -364751,-6743536 -364783,-6743658 -364792,-6743703 -364797,-6743723 -364824,-6743825 -364843,-6743902 -364855,-6743953 -364873,-6744026 -364908,-6744165 -364918,-6744208 -364927,-6744262 -364939,-6744361 -364938,-6744421 -364936,-6744509 -364934,-6744614 -364931,-6744868 -364937,-6744919 -364962,-6745026 -364986,-6745101 -365015,-6745151 -365091,-6745268 -365192,-6745440 -365330,-6745668 -365429,-6745828 -365630,-6746161 -365754,-6746356 -365798,-6746473 -365886,-6746797 -365961,-6747102 -366001,-6747235 -366055,-6747396 -366169,-6747736 -366193,-6747804 -366183,-6747823 -366173,-6747965 -366160,-6748041 -366138,-6748133 -366103,-6748262 -366085,-6748326 -366103,-6748350 -366191,-6748453 -366262,-6748543 -366337,-6748658 -366410,-6748780 -366444,-6748852 -366465,-6748913 -366482,-6748974 -366507,-6749066 -366525,-6749127 -366542,-6749195 -366578,-6749327 -366599,-6749409 -366612,-6749454 -366641,-6749513 -366690,-6749601 -366735,-6749672 -366802,-6749751 -366895,-6749857 -366932,-6749914 -366967,-6749972 -366980,-6749997 -367014,-6750063 -367026,-6750095 -367074,-6750242 -367087,-6750284 -367093,-6750336 -367100,-6750411 -367100,-6750495 -367087,-6750609 -367073,-6750682 -367051,-6750775 -367047,-6750830 -367042,-6750982 -367043,-6751059 -367050,-6751092 -367098,-6751152 -367240,-6751315 -367279,-6751384 -367307,-6751449 -367321,-6751508 -367322,-6751558 -367323,-6751616 -367310,-6751701 -367547,-6751723 -367536,-6751819 -367297,-6751793 -367284,-6751938 -367277,-6752011 -367277,-6752089 -367284,-6752155 -367296,-6752243 -367312,-6752297 -367322,-6752323 -367342,-6752357 -367352,-6752382 -367363,-6752450 -367385,-6752505 -367425,-6752587 -367435,-6752582 -367878,-6752357 -367907,-6752341 -368330,-6752138 -368684,-6751966 -369081,-6751777 -369077,-6751791 -369075,-6751813 -369067,-6751821 -369049,-6751831 -369042,-6751838 -369041,-6751842 -369040,-6751856 -369035,-6751868 -369033,-6751877 -369042,-6751889 -369045,-6751906 -369060,-6751932 -369059,-6751951 -369051,-6751976 -369051,-6751983 -369039,-6751993 -369031,-6752009 -369017,-6752019 -369019,-6752045 -369005,-6752060 -369003,-6752073 -368990,-6752100 -368977,-6752124 -368975,-6752132 -368960,-6752155 -368949,-6752166 -368946,-6752178 -368940,-6752186 -368938,-6752197 -368930,-6752206 -368931,-6752270 -368943,-6752294 -368944,-6752336 -368933,-6752360 -368933,-6752382 -368923,-6752411 -368922,-6752424 -368926,-6752445 -368929,-6752457 -368921,-6752461 -368910,-6752460 -368898,-6752507 -368889,-6752522 -368874,-6752540 -368870,-6752553 -368860,-6752572 -368871,-6752586 -368883,-6752643 -368893,-6752667 -368881,-6752675 -368832,-6752701 -368809,-6752758 -368786,-6752832 -368761,-6752863 -368710,-6752894 -368666,-6752925 -368622,-6752964 -368569,-6752971 -368492,-6753003 -368489,-6753004 -368484,-6753019 -368461,-6753079 -368480,-6753152 -368569,-6753308 -368604,-6753364 -368659,-6753483 -368714,-6753580 -368881,-6753656 -368951,-6753696 -368972,-6753739 -368998,-6753763 -369033,-6753771 -369084,-6753772 -369164,-6753774 -369351,-6753767 -370091,-6755457 -370104,-6755487 -370376,-6756117 -370382,-6756129 -370587,-6756603 -370589,-6756616 -370642,-6757160 -370682,-6757528 -370730,-6758020 -370760,-6758341 -370790,-6758620 -370811,-6758723 -370834,-6758968 -370910,-6759726 -371000,-6760642 -371004,-6760745 -371046,-6761094 -371096,-6761529 -371191,-6762315 -371169,-6762321 -371088,-6762349 -371012,-6762376 -370937,-6762404 -370791,-6762463 -370577,-6762539 -370403,-6762613 -370236,-6762670 -369491,-6762926 -369251,-6763008 -368900,-6763009 -368478,-6763017 -368462,-6763029 -368404,-6763068 -368363,-6763117 -368360,-6763143 -368342,-6763154 -368316,-6763188 -368311,-6763224 -368297,-6763245 -368292,-6763272 -368274,-6763305 -368257,-6763325 -368252,-6763343 -368182,-6763454 -368174,-6763488 -368146,-6763532 -368141,-6763549 -368140,-6763556 -368140,-6763564 -368142,-6763595 -368142,-6763604 -368139,-6763610 -368131,-6763623 -368126,-6763630 -368114,-6763641 -368099,-6763663 -368080,-6763674 -368064,-6763684 -368011,-6763722 -367933,-6763763 -367867,-6763773 -367819,-6763781 -367769,-6763785 -367734,-6763797 -367626,-6763847 -367566,-6763854 -367500,-6763859 -367458,-6763751 -367435,-6763655 -367402,-6763527 -367387,-6763458 -367367,-6763360 -367360,-6763290 -367347,-6763217" stroke="#003087" stroke-width="75" /></svg>