<?xml version="1.0" standalone="no"?>
<!DOCTYPE svg PUBLIC "-//W3C//DTD SVG 1.1//EN"
"http://www.w3.org/Graphics/SVG/1.1/DTD/svg11.dtd">
<svg height="115" version="1.1" viewBox="-384402 -6770364 19950 34232" width="220" xmlns="http://www.w3.org/2000/svg"><polygon fill="#003087" points=" -378769,-6768469 -378775,-6768465 -378781,-6768463 -378788,-6768453 -378788,-6768447 -378791,-6768439 -378808,-6768433 -378856,-6768383 -378859,-6768341 -378860,-6768339 -378873,-6768332 -378897,-6768323 -378916,-6768300 -378921,-6768288 -378917,-6768266 -378922,-6768259 -378938,-6768250 -378942,-6768246 -378945,-6768242 -378946,-6768239 -378941,-6768220 -378941,-6768216 -378941,-6768213 -378948,-6768199 -378944,-6768184 -378946,-6768178 -378944,-6768172 -378943,-6768162 -378946,-6768153 -378956,-6768142 -378957,-6768139 -378957,-6768129 -378966,-6768118 -378975,-6768102 -378976,-6768098 -378977,-6768078 -379000,-6768045 -379003,-6768043 -379007,-6768042 -379012,-6768042 -379024,-6768046 -379033,-6768049 -379041,-6768057 -379043,-6768056 -379049,-6768052 -379057,-6768038 -379061,-6768033 -379071,-6768032 -379077,-6768028 -379082,-6768003 -379083,-6768001 -379087,-6768000 -379091,-6767999 -379097,-6768000 -379106,-6767993 -379114,-6767989 -379126,-6767985 -379125,-6767980 -379119,-6767963 -379119,-6767961 -379122,-6767957 -379127,-6767955 -379135,-6767953 -379140,-6767948 -379137,-6767931 -379137,-6767927 -379138,-6767916 -379141,-6767903 -379146,-6767891 -379152,-6767879 -379161,-6767868 -379176,-6767854 -379164,-6767797 -379162,-6767794 -379158,-6767789 -379152,-6767786 -379140,-6767784 -379136,-6767758 -379145,-6767754 -379149,-6767751 -379155,-6767743 -379158,-6767735 -379161,-6767727 -379162,-6767721 -379161,-6767706 -379165,-6767701 -379146,-6767634 -379140,-6767621 -379139,-6767617 -379143,-6767592 -379142,-6767581 -379141,-6767576 -379137,-6767568 -379122,-6767549 -379121,-6767546 -379121,-6767543 -379124,-6767537 -379138,-6767526 -379140,-6767523 -379147,-6767497 -379143,-6767486 -379134,-6767472 -379133,-6767447 -379130,-6767433 -379123,-6767412 -379122,-6767410 -379112,-6767398 -379107,-6767391 -379104,-6767380 -379103,-6767361 -379101,-6767353 -379098,-6767350 -379074,-6767330 -379073,-6767327 -379072,-6767324 -379072,-6767321 -379073,-6767319 -379081,-6767306 -379082,-6767299 -379071,-6767288 -379069,-6767278 -379069,-6767277 -379072,-6767274 -379076,-6767273 -379084,-6767272 -379087,-6767268 -379088,-6767264 -379083,-6767253 -379078,-6767253 -379076,-6767251 -379074,-6767249 -379073,-6767247 -379074,-6767244 -379082,-6767232 -379082,-6767231 -379077,-6767225 -379074,-6767223 -379070,-6767222 -379065,-6767222 -379062,-6767223 -379047,-6767233 -379039,-6767234 -379037,-6767233 -379033,-6767225 -379022,-6767221 -379021,-6767219 -379019,-6767209 -379020,-6767200 -379021,-6767198 -379031,-6767196 -379037,-6767193 -379044,-6767186 -379053,-6767180 -379042,-6767160 -379029,-6767149 -379027,-6767145 -379026,-6767140 -379029,-6767112 -379029,-6767096 -379027,-6767088 -379025,-6767080 -379019,-6767070 -379020,-6767015 -379004,-6767012 -379001,-6767008 -378999,-6767002 -379003,-6766992 -379004,-6766987 -379004,-6766981 -379001,-6766971 -378982,-6766952 -378978,-6766944 -378974,-6766941 -378966,-6766937 -378963,-6766935 -378959,-6766929 -378955,-6766922 -378952,-6766915 -378945,-6766914 -378939,-6766913 -378935,-6766910 -378932,-6766907 -378928,-6766899 -378927,-6766894 -378922,-6766893 -378919,-6766892 -378916,-6766890 -378915,-6766887 -378912,-6766874 -378906,-6766871 -378902,-6766870 -378898,-6766870 -378896,-6766871 -378887,-6766880 -378880,-6766884 -378875,-6766884 -378871,-6766883 -378861,-6766878 -378863,-6766867 -378863,-6766861 -378862,-6766853 -378859,-6766845 -378854,-6766837 -378853,-6766836 -378842,-6766831 -378831,-6766831 -378830,-6766831 -378825,-6766823 -378825,-6766820 -378825,-6766815 -378830,-6766808 -378829,-6766805 -378826,-6766798 -378822,-6766792 -378818,-6766788 -378809,-6766781 -378802,-6766777 -378791,-6766772 -378780,-6766763 -378781,-6766750 -378780,-6766743 -378778,-6766735 -378774,-6766728 -378770,-6766722 -378766,-6766719 -378748,-6766708 -378745,-6766699 -378745,-6766695 -378749,-6766679 -378750,-6766666 -378749,-6766661 -378741,-6766645 -378741,-6766638 -378743,-6766633 -378754,-6766618 -378749,-6766608 -378744,-6766592 -378742,-6766592 -378738,-6766594 -378734,-6766597 -378731,-6766601 -378728,-6766608 -378729,-6766619 -378727,-6766626 -378725,-6766629 -378721,-6766631 -378717,-6766633 -378713,-6766633 -378711,-6766632 -378708,-6766620 -378692,-6766606 -378686,-6766599 -378684,-6766594 -378695,-6766581 -378694,-6766579 -378689,-6766576 -378685,-6766574 -378680,-6766574 -378664,-6766576 -378651,-6766573 -378639,-6766573 -378622,-6766576 -378617,-6766574 -378613,-6766572 -378618,-6766563 -378616,-6766547 -378610,-6766530 -378603,-6766517 -378600,-6766515 -378597,-6766512 -378588,-6766510 -378584,-6766510 -378577,-6766513 -378564,-6766522 -378559,-6766522 -378550,-6766520 -378543,-6766517 -378538,-6766514 -378517,-6766495 -378476,-6766466 -378472,-6766467 -378470,-6766470 -378467,-6766498 -378464,-6766501 -378461,-6766503 -378458,-6766502 -378456,-6766501 -378447,-6766491 -378443,-6766487 -378434,-6766482 -378417,-6766488 -378411,-6766486 -378401,-6766486 -378391,-6766490 -378388,-6766493 -378386,-6766497 -378382,-6766506 -378375,-6766520 -378366,-6766527 -378338,-6766493 -378332,-6766485 -378324,-6766480 -378321,-6766479 -378315,-6766479 -378309,-6766480 -378302,-6766484 -378279,-6766491 -378261,-6766479 -378256,-6766475 -378252,-6766473 -378246,-6766472 -378240,-6766473 -378237,-6766474 -378227,-6766482 -378216,-6766486 -378211,-6766487 -378191,-6766486 -378172,-6766494 -378149,-6766501 -378132,-6766503 -378077,-6766503 -378069,-6766519 -378063,-6766529 -378055,-6766536 -378050,-6766540 -378020,-6766537 -377984,-6766532 -377979,-6766533 -377975,-6766534 -377971,-6766537 -377965,-6766544 -377962,-6766546 -377923,-6766553 -377912,-6766556 -377900,-6766562 -377888,-6766568 -377868,-6766581 -377857,-6766586 -377839,-6766589 -377821,-6766594 -377793,-6766628 -377761,-6766638 -377749,-6766641 -377742,-6766643 -377733,-6766649 -377722,-6766658 -377717,-6766661 -377711,-6766662 -377700,-6766659 -377682,-6766656 -377660,-6766664 -377629,-6766679 -377609,-6766696 -377564,-6766714 -377555,-6766720 -377549,-6766722 -377542,-6766722 -377535,-6766721 -377532,-6766722 -377525,-6766727 -377512,-6766737 -377492,-6766759 -377483,-6766766 -377473,-6766768 -377456,-6766767 -377448,-6766768 -377442,-6766771 -377437,-6766774 -377431,-6766781 -377416,-6766792 -377401,-6766792 -377378,-6766797 -377369,-6766800 -377365,-6766800 -377360,-6766798 -377355,-6766795 -377354,-6766793 -377365,-6766777 -377364,-6766772 -377361,-6766768 -377358,-6766766 -377353,-6766765 -377348,-6766766 -377342,-6766770 -377316,-6766770 -377309,-6766769 -377303,-6766767 -377298,-6766764 -377286,-6766754 -377283,-6766752 -377278,-6766752 -377274,-6766753 -377251,-6766768 -377243,-6766769 -377225,-6766771 -377198,-6766771 -377167,-6766766 -377150,-6766762 -377142,-6766762 -377137,-6766764 -377129,-6766769 -377125,-6766776 -377106,-6766841 -377103,-6766843 -377098,-6766846 -377091,-6766848 -377085,-6766848 -377079,-6766846 -377073,-6766843 -377070,-6766841 -377061,-6766815 -377055,-6766808 -377051,-6766806 -377044,-6766806 -377038,-6766807 -376987,-6766800 -376973,-6766800 -376965,-6766801 -376960,-6766800 -376954,-6766797 -376948,-6766791 -376947,-6766788 -376942,-6766770 -376937,-6766747 -376934,-6766719 -376933,-6766685 -376930,-6766668 -376881,-6766623 -376863,-6766596 -376849,-6766592 -376840,-6766588 -376825,-6766579 -376819,-6766574 -376795,-6766547 -376792,-6766540 -376792,-6766536 -376793,-6766530 -376793,-6766524 -376792,-6766514 -376788,-6766500 -376791,-6766487 -376780,-6766438 -376775,-6766425 -376758,-6766403 -376752,-6766392 -376747,-6766384 -376738,-6766375 -376733,-6766373 -376730,-6766373 -376723,-6766375 -376714,-6766378 -376699,-6766387 -376679,-6766406 -376672,-6766407 -376666,-6766407 -376661,-6766406 -376636,-6766390 -376633,-6766386 -376630,-6766382 -376628,-6766372 -376617,-6766334 -376611,-6766319 -376605,-6766311 -376545,-6766253 -376518,-6766236 -376510,-6766230 -376500,-6766227 -376495,-6766228 -376489,-6766229 -376455,-6766239 -376436,-6766239 -376423,-6766233 -376413,-6766231 -376399,-6766233 -376385,-6766230 -376380,-6766227 -376376,-6766223 -376372,-6766218 -376369,-6766213 -376368,-6766209 -376374,-6766187 -376374,-6766183 -376374,-6766176 -376369,-6766160 -376321,-6766128 -376305,-6766121 -376291,-6766114 -376281,-6766111 -376260,-6766107 -376250,-6766103 -376219,-6766089 -376197,-6766074 -376177,-6766064 -376170,-6766055 -376164,-6766051 -376097,-6766014 -376091,-6766010 -376080,-6766001 -376067,-6765987 -376057,-6765983 -376050,-6765981 -376043,-6765981 -376028,-6765982 -376022,-6765984 -376002,-6765994 -375973,-6766005 -375955,-6766014 -375901,-6766046 -375772,-6766102 -375630,-6766166 -375465,-6766239 -375409,-6766071 -375372,-6765982 -375349,-6765918 -375279,-6765733 -375226,-6765620 -375187,-6765526 -375120,-6765409 -375066,-6765326 -375018,-6765256 -374907,-6765126 -374844,-6765055 -374804,-6765008 -374783,-6764988 -374745,-6764938 -374732,-6764918 -374248,-6765067 -374194,-6765105 -374167,-6765123 -374168,-6765139 -374167,-6765154 -374162,-6765167 -374156,-6765193 -374156,-6765195 -374155,-6765196 -374151,-6765199 -374151,-6765199 -374147,-6765200 -374140,-6765198 -374138,-6765201 -374135,-6765209 -374133,-6765229 -374133,-6765230 -374128,-6765233 -374124,-6765237 -374121,-6765242 -374118,-6765247 -374114,-6765255 -374107,-6765270 -374106,-6765271 -374103,-6765274 -374092,-6765280 -374092,-6765281 -374091,-6765287 -374089,-6765294 -374085,-6765297 -374084,-6765298 -374080,-6765299 -374074,-6765299 -374071,-6765300 -374070,-6765301 -374069,-6765305 -374065,-6765309 -374062,-6765312 -374048,-6765317 -374044,-6765317 -374044,-6765318 -374040,-6765319 -374039,-6765319 -374033,-6765322 -374027,-6765323 -374023,-6765328 -374021,-6765329 -374015,-6765333 -374005,-6765333 -374000,-6765333 -373989,-6765329 -373987,-6765330 -373983,-6765330 -373982,-6765330 -373978,-6765331 -373975,-6765330 -373973,-6765328 -373964,-6765319 -373959,-6765316 -373954,-6765315 -373944,-6765315 -373940,-6765317 -373933,-6765320 -373928,-6765321 -373922,-6765322 -373921,-6765317 -373919,-6765313 -373909,-6765308 -373903,-6765308 -373896,-6765305 -373879,-6765302 -373871,-6765299 -373855,-6765295 -373852,-6765295 -373846,-6765294 -373841,-6765295 -373834,-6765296 -373818,-6765296 -373815,-6765297 -373809,-6765297 -373795,-6765298 -373778,-6765300 -373759,-6765299 -373727,-6765140 -373676,-6765054 -373656,-6765020 -373655,-6765014 -373617,-6765019 -373594,-6764992 -373580,-6764975 -373602,-6764950 -373595,-6764908 -373603,-6764892 -373611,-6764873 -373637,-6764857 -373639,-6764857 -373638,-6764837 -373608,-6764788 -373603,-6764780 -373600,-6764769 -373596,-6764754 -373592,-6764746 -373587,-6764738 -373586,-6764735 -373581,-6764722 -373580,-6764711 -373579,-6764703 -373573,-6764689 -373568,-6764677 -373562,-6764653 -373560,-6764643 -373549,-6764602 -373549,-6764600 -373552,-6764567 -373559,-6764485 -373561,-6764463 -373562,-6764459 -373562,-6764459 -373562,-6764455 -373560,-6764446 -373561,-6764437 -373561,-6764419 -373562,-6764412 -373563,-6764396 -373563,-6764395 -373565,-6764376 -373564,-6764368 -373563,-6764357 -373563,-6764347 -373564,-6764335 -373567,-6764312 -373567,-6764297 -373566,-6764255 -373569,-6764225 -373571,-6764214 -373577,-6764197 -373578,-6764189 -373588,-6764125 -373590,-6764116 -373590,-6764113 -373590,-6764112 -373588,-6764094 -373588,-6764089 -373590,-6764079 -373596,-6764046 -373600,-6764033 -373605,-6764021 -373622,-6763994 -373623,-6763990 -373625,-6763982 -373625,-6763970 -373623,-6763957 -373623,-6763936 -373623,-6763926 -373625,-6763922 -373628,-6763918 -373640,-6763906 -373641,-6763902 -373640,-6763894 -373641,-6763891 -373649,-6763868 -373650,-6763861 -373650,-6763853 -373649,-6763846 -373646,-6763836 -373644,-6763832 -373642,-6763831 -373641,-6763830 -373640,-6763828 -373639,-6763827 -373639,-6763826 -373638,-6763824 -373637,-6763823 -373637,-6763822 -373633,-6763810 -373631,-6763803 -373629,-6763797 -373626,-6763791 -373623,-6763785 -373616,-6763774 -373610,-6763764 -373604,-6763751 -373595,-6763733 -373592,-6763726 -373590,-6763715 -373591,-6763702 -373593,-6763694 -373595,-6763687 -373599,-6763676 -373601,-6763668 -373605,-6763658 -373611,-6763633 -373618,-6763596 -373622,-6763580 -373626,-6763565 -373627,-6763562 -373628,-6763556 -373631,-6763548 -373630,-6763540 -373630,-6763536 -373629,-6763531 -373627,-6763527 -373624,-6763523 -373548,-6763475 -373537,-6763467 -373581,-6763400 -373626,-6763325 -373641,-6763307 -373655,-6763293 -373666,-6763282 -373670,-6763277 -373673,-6763268 -373678,-6763255 -373680,-6763251 -373681,-6763247 -373682,-6763240 -373685,-6763236 -373691,-6763221 -373698,-6763207 -373701,-6763201 -373702,-6763195 -373704,-6763179 -373707,-6763158 -373708,-6763148 -373710,-6763142 -373715,-6763130 -373725,-6763107 -373729,-6763101 -373734,-6763094 -373739,-6763085 -373746,-6763075 -373753,-6763059 -373775,-6763018 -373782,-6763003 -373784,-6762997 -373785,-6762992 -373785,-6762984 -373787,-6762977 -373790,-6762972 -373792,-6762967 -373793,-6762961 -373795,-6762948 -373798,-6762936 -373800,-6762926 -373805,-6762915 -373810,-6762904 -373816,-6762890 -373821,-6762876 -373822,-6762874 -373834,-6762843 -373838,-6762833 -373838,-6762833 -373845,-6762812 -373857,-6762785 -373860,-6762778 -373874,-6762747 -373885,-6762727 -373898,-6762703 -373903,-6762691 -373906,-6762685 -373910,-6762680 -373914,-6762674 -373920,-6762666 -373924,-6762659 -373929,-6762653 -373935,-6762646 -373941,-6762639 -373947,-6762629 -373955,-6762620 -373962,-6762611 -373965,-6762607 -373976,-6762591 -373980,-6762586 -373983,-6762579 -373993,-6762561 -374005,-6762531 -374008,-6762524 -374008,-6762511 -374008,-6762503 -374011,-6762495 -374013,-6762488 -374017,-6762485 -374028,-6762471 -374033,-6762465 -374038,-6762456 -374038,-6762455 -374039,-6762439 -374008,-6762426 -373915,-6762406 -373776,-6762377 -373369,-6762290 -373133,-6762237 -373081,-6762223 -372883,-6762234 -372661,-6762245 -372406,-6762258 -372077,-6762278 -371729,-6762293 -371191,-6762315 -371096,-6761529 -371046,-6761094 -371004,-6760745 -371000,-6760642 -370910,-6759726 -370834,-6758968 -370811,-6758723 -370790,-6758620 -370760,-6758341 -370730,-6758020 -370682,-6757528 -370642,-6757160 -370589,-6756616 -370587,-6756603 -370382,-6756129 -370376,-6756117 -370104,-6755487 -370091,-6755457 -369351,-6753767 -369164,-6753774 -369084,-6753772 -369033,-6753771 -368998,-6753763 -368972,-6753739 -368951,-6753696 -368881,-6753656 -368714,-6753580 -368659,-6753483 -368604,-6753364 -368569,-6753308 -368480,-6753152 -368461,-6753079 -368484,-6753019 -368489,-6753004 -368492,-6753003 -368569,-6752971 -368622,-6752964 -368666,-6752925 -368710,-6752894 -368761,-6752863 -368786,-6752832 -368809,-6752758 -368832,-6752701 -368881,-6752675 -368893,-6752667 -368883,-6752643 -368871,-6752586 -368860,-6752572 -368870,-6752553 -368874,-6752540 -368889,-6752522 -368898,-6752507 -368910,-6752460 -368921,-6752461 -368929,-6752457 -368926,-6752445 -368922,-6752424 -368923,-6752411 -368933,-6752382 -368933,-6752360 -368944,-6752336 -368943,-6752294 -368931,-6752270 -368930,-6752206 -368938,-6752197 -368940,-6752186 -368946,-6752178 -368949,-6752166 -368960,-6752155 -368975,-6752132 -368977,-6752124 -368990,-6752100 -369003,-6752073 -369005,-6752060 -369019,-6752045 -369017,-6752019 -369031,-6752009 -369039,-6751993 -369051,-6751983 -369051,-6751976 -369059,-6751951 -369060,-6751932 -369045,-6751906 -369042,-6751889 -369033,-6751877 -369035,-6751868 -369040,-6751856 -369041,-6751842 -369042,-6751838 -369049,-6751831 -369067,-6751821 -369075,-6751813 -369077,-6751791 -369081,-6751777 -368684,-6751966 -368330,-6752138 -367907,-6752341 -367878,-6752357 -367435,-6752582 -367425,-6752587 -367385,-6752505 -367363,-6752450 -367352,-6752382 -367342,-6752357 -367322,-6752323 -367312,-6752297 -367296,-6752243 -367284,-6752155 -367277,-6752089 -367277,-6752011 -367284,-6751938 -367297,-6751793 -367536,-6751819 -367547,-6751723 -367310,-6751701 -367323,-6751616 -367322,-6751558 -367321,-6751508 -367307,-6751449 -367279,-6751384 -367240,-6751315 -367098,-6751152 -367050,-6751092 -367043,-6751059 -367042,-6750982 -367047,-6750830 -367051,-6750775 -367073,-6750682 -367087,-6750609 -367100,-6750495 -367100,-6750411 -367093,-6750336 -367087,-6750284 -367074,-6750242 -367026,-6750095 -367014,-6750063 -366980,-6749997 -366967,-6749972 -366932,-6749914 -366895,-6749857 -366802,-6749751 -366735,-6749672 -366690,-6749601 -366641,-6749513 -366612,-6749454 -366599,-6749409 -366578,-6749327 -366542,-6749195 -366525,-6749127 -366507,-6749066 -366482,-6748974 -366465,-6748913 -366444,-6748852 -366410,-6748780 -366337,-6748658 -366262,-6748543 -366191,-6748453 -366103,-6748350 -366085,-6748326 -366103,-6748262 -366138,-6748133 -366160,-6748041 -366173,-6747965 -366183,-6747823 -366193,-6747804 -366169,-6747736 -366055,-6747396 -366001,-6747235 -365961,-6747102 -365886,-6746797 -365798,-6746473 -365754,-6746356 -365630,-6746161 -365429,-6745828 -365330,-6745668 -365192,-6745440 -365091,-6745268 -365015,-6745151 -364986,-6745101 -364962,-6745026 -364937,-6744919 -364931,-6744868 -364934,-6744614 -364936,-6744509 -364938,-6744421 -364939,-6744361 -364927,-6744262 -364918,-6744208 -364908,-6744165 -364873,-6744026 -364855,-6743953 -364843,-6743902 -364824,-6743825 -364797,-6743723 -364792,-6743703 -364783,-6743658 -364751,-6743536 -364725,-6743448 -364694,-6743340 -364671,-6743253 -364648,-6743160 -364628,-6743100 -364618,-6743069 -364599,-6743044 -364561,-6743003 -364490,-6742928 -364489,-6742915 -364483,-6742909 -364475,-6742909 -364452,-6742890 -364477,-6742879 -364477,-6742875 -364483,-6742844 -364492,-6742824 -364493,-6742823 -364521,-6742814 -364550,-6742800 -364568,-6742802 -364614,-6742762 -364651,-6742739 -364661,-6742727 -364694,-6742698 -364771,-6742678 -364789,-6742679 -364873,-6742681 -364927,-6742681 -364929,-6742680 -364999,-6742645 -365020,-6742624 -365047,-6742597 -365060,-6742569 -365072,-6742553 -365087,-6742535 -365105,-6742519 -365111,-6742513 -365116,-6742489 -365120,-6742479 -365130,-6742456 -365137,-6742443 -365160,-6742411 -365186,-6742389 -365204,-6742376 -365218,-6742364 -365234,-6742345 -365234,-6742337 -365242,-6742322 -365250,-6742322 -365259,-6742323 -365265,-6742309 -365276,-6742299 -365281,-6742296 -365288,-6742289 -365309,-6742286 -365332,-6742283 -365333,-6742265 -365333,-6742259 -365347,-6742249 -365366,-6742245 -365377,-6742238 -365395,-6742236 -365406,-6742236 -365426,-6742212 -365447,-6742196 -365459,-6742184 -365462,-6742180 -365468,-6742167 -365471,-6742161 -365475,-6742154 -365480,-6742149 -365489,-6742145 -365497,-6742138 -365504,-6742128 -365524,-6742102 -365529,-6742091 -365535,-6742088 -365537,-6742087 -365542,-6742082 -365541,-6742080 -365539,-6742075 -365570,-6742058 -365574,-6742030 -365580,-6742021 -365590,-6742020 -365600,-6742015 -365610,-6742013 -365615,-6742012 -365619,-6742000 -365624,-6741985 -365624,-6741982 -365629,-6741975 -365640,-6741962 -365648,-6741955 -365644,-6741935 -365650,-6741930 -365651,-6741901 -365651,-6741891 -365656,-6741890 -365666,-6741888 -365666,-6741861 -365655,-6741836 -365654,-6741827 -365661,-6741815 -365674,-6741792 -365676,-6741768 -365686,-6741762 -365685,-6741756 -365684,-6741746 -365692,-6741740 -365695,-6741713 -365695,-6741691 -365697,-6741675 -365689,-6741667 -365690,-6741653 -365694,-6741640 -365688,-6741635 -365692,-6741609 -365678,-6741593 -365658,-6741574 -365647,-6741556 -365645,-6741545 -365629,-6741530 -365627,-6741512 -365616,-6741495 -365608,-6741479 -365603,-6741472 -365589,-6741430 -365587,-6741428 -365572,-6741427 -365571,-6741427 -365567,-6741423 -365565,-6741419 -365565,-6741417 -365570,-6741396 -365573,-6741391 -365578,-6741389 -365587,-6741389 -365597,-6741386 -365606,-6741381 -365608,-6741378 -365606,-6741369 -365605,-6741368 -365591,-6741353 -365587,-6741349 -365583,-6741342 -365581,-6741335 -365580,-6741322 -365581,-6741319 -365598,-6741296 -365600,-6741287 -365601,-6741280 -365597,-6741259 -365596,-6741250 -365602,-6741215 -365603,-6741194 -365602,-6741185 -365597,-6741162 -365597,-6741149 -365598,-6741144 -365605,-6741133 -365609,-6741124 -365616,-6741059 -365623,-6741018 -365621,-6741009 -365620,-6741004 -365610,-6740989 -365610,-6740987 -365613,-6740967 -365608,-6740927 -365610,-6740922 -365617,-6740908 -365620,-6740897 -365623,-6740889 -365630,-6740849 -365630,-6740847 -365625,-6740819 -365620,-6740798 -365620,-6740783 -365621,-6740777 -365622,-6740775 -365626,-6740773 -365639,-6740767 -365641,-6740765 -365639,-6740760 -365638,-6740759 -365622,-6740755 -365614,-6740750 -365610,-6740747 -365606,-6740736 -365607,-6740730 -365609,-6740725 -365613,-6740720 -365625,-6740713 -365626,-6740711 -365626,-6740708 -365625,-6740701 -365608,-6740668 -365605,-6740660 -365607,-6740645 -365609,-6740614 -365608,-6740608 -365608,-6740607 -365607,-6740603 -365604,-6740601 -365578,-6740575 -365561,-6740565 -365560,-6740543 -365556,-6740530 -365543,-6740533 -365538,-6740529 -365534,-6740516 -365535,-6740505 -365541,-6740497 -365548,-6740488 -365547,-6740475 -365542,-6740472 -365526,-6740468 -365527,-6740441 -365524,-6740426 -365515,-6740403 -365510,-6740389 -365512,-6740374 -365516,-6740356 -365517,-6740349 -365508,-6740327 -365511,-6740307 -365517,-6740284 -365520,-6740272 -365521,-6740262 -365516,-6740241 -365503,-6740206 -365499,-6740192 -365500,-6740190 -365500,-6740190 -365502,-6740187 -365508,-6740177 -365520,-6740173 -365529,-6740166 -365535,-6740160 -365535,-6740145 -365533,-6740126 -365541,-6740112 -365540,-6740103 -365537,-6740095 -365537,-6740094 -365543,-6740078 -365556,-6740052 -365552,-6740046 -365548,-6740041 -365551,-6740008 -365552,-6739979 -365548,-6739956 -365554,-6739956 -365564,-6739949 -365572,-6739893 -365582,-6739886 -365591,-6739871 -365594,-6739859 -365594,-6739780 -365597,-6739716 -365601,-6739671 -365602,-6739614 -365608,-6739562 -365606,-6739554 -365604,-6739542 -365614,-6739513 -365612,-6739491 -365612,-6739489 -365599,-6739449 -365597,-6739415 -365598,-6739384 -365597,-6739376 -365595,-6739369 -365578,-6739331 -365573,-6739314 -365573,-6739311 -365580,-6739291 -365580,-6739287 -365578,-6739283 -365574,-6739276 -365554,-6739255 -365550,-6739249 -365542,-6739234 -365542,-6739232 -365544,-6739223 -365552,-6739196 -365555,-6739185 -365558,-6739164 -365558,-6739154 -365552,-6739121 -365546,-6739106 -365522,-6739086 -365512,-6739064 -365508,-6739047 -365510,-6739033 -365516,-6739026 -365524,-6739021 -365549,-6739017 -365563,-6739012 -365565,-6739011 -365577,-6738988 -365589,-6738941 -365600,-6738917 -365608,-6738893 -365615,-6738859 -365620,-6738853 -365632,-6738838 -365632,-6738815 -365633,-6738806 -365637,-6738795 -365645,-6738790 -365654,-6738784 -365661,-6738772 -365660,-6738757 -365659,-6738743 -365658,-6738732 -365656,-6738718 -365661,-6738711 -365670,-6738703 -365698,-6738676 -365708,-6738656 -365718,-6738643 -365718,-6738622 -365713,-6738604 -365702,-6738590 -365702,-6738578 -365705,-6738571 -365708,-6738564 -365710,-6738563 -365760,-6738541 -365783,-6738530 -365802,-6738529 -365817,-6738528 -365829,-6738531 -365852,-6738542 -365890,-6738561 -365896,-6738563 -365912,-6738563 -365948,-6738558 -365971,-6738558 -365984,-6738553 -365997,-6738543 -366007,-6738535 -366031,-6738533 -366047,-6738537 -366051,-6738542 -366071,-6738562 -366107,-6738557 -366113,-6738563 -366121,-6738565 -366144,-6738567 -366177,-6738571 -366187,-6738578 -366215,-6738613 -366219,-6738618 -366227,-6738624 -366250,-6738634 -366277,-6738653 -366293,-6738675 -366296,-6738688 -366306,-6738710 -366362,-6738752 -366374,-6738758 -366396,-6738767 -366427,-6738771 -366465,-6738774 -366504,-6738774 -366514,-6738775 -366521,-6738781 -366525,-6738792 -366526,-6738814 -366529,-6738879 -366528,-6738939 -366532,-6738964 -366548,-6739003 -366560,-6739036 -366562,-6739061 -366582,-6739123 -366579,-6739147 -366582,-6739173 -366584,-6739211 -366592,-6739232 -366603,-6739244 -366627,-6739259 -366647,-6739276 -366649,-6739280 -366654,-6739290 -366666,-6739303 -366683,-6739313 -366688,-6739316 -366701,-6739325 -366708,-6739337 -366720,-6739357 -366718,-6739387 -366725,-6739402 -366728,-6739410 -366739,-6739416 -366754,-6739423 -366761,-6739435 -366766,-6739456 -366776,-6739471 -366794,-6739490 -366793,-6739503 -366793,-6739526 -366820,-6739559 -366847,-6739579 -366881,-6739604 -366891,-6739607 -366899,-6739609 -366921,-6739615 -366916,-6739605 -366928,-6739593 -366948,-6739542 -366952,-6739534 -367000,-6739482 -367055,-6739408 -367094,-6739356 -367123,-6739326 -367147,-6739303 -367168,-6739279 -367195,-6739262 -367196,-6739259 -367153,-6739206 -367134,-6739177 -367090,-6739119 -367078,-6739097 -367072,-6739083 -367071,-6739081 -367074,-6739066 -367079,-6739042 -367106,-6738949 -367107,-6738922 -367100,-6738887 -367099,-6738876 -367100,-6738846 -367100,-6738827 -367098,-6738821 -367093,-6738812 -367081,-6738789 -367067,-6738765 -367061,-6738755 -367039,-6738721 -367033,-6738710 -367029,-6738697 -367028,-6738685 -367039,-6738644 -367040,-6738626 -367035,-6738584 -367038,-6738573 -367069,-6738570 -367089,-6738571 -367091,-6738560 -367091,-6738556 -367087,-6738542 -367023,-6738382 -367037,-6738376 -367060,-6738366 -367093,-6738355 -367127,-6738333 -367160,-6738312 -367173,-6738259 -367179,-6738255 -367206,-6738243 -367221,-6738236 -367236,-6738225 -367254,-6738208 -367270,-6738193 -367281,-6738183 -367282,-6738173 -367282,-6738167 -367300,-6738137 -367309,-6738121 -367315,-6738109 -367326,-6738089 -367336,-6738072 -367394,-6737999 -367374,-6737980 -367355,-6737958 -367367,-6737947 -367376,-6737943 -367396,-6737937 -367413,-6737929 -367425,-6737921 -367442,-6737906 -367443,-6737902 -367440,-6737897 -367425,-6737870 -367418,-6737845 -367411,-6737816 -367416,-6737765 -367422,-6737721 -367393,-6737711 -367369,-6737714 -367358,-6737716 -367357,-6737716 -367356,-6737708 -367386,-6737598 -367417,-6737484 -367422,-6737486 -367455,-6737509 -367458,-6737511 -367461,-6737487 -367463,-6737463 -367471,-6737439 -367480,-6737427 -367462,-6737416 -367516,-6737367 -367529,-6737365 -367534,-6737361 -367540,-6737355 -367551,-6737343 -367557,-6737337 -367565,-6737329 -367592,-6737305 -367617,-6737291 -367637,-6737279 -367664,-6737258 -367669,-6737263 -367760,-6737177 -367812,-6737130 -367813,-6737127 -367755,-6737069 -367772,-6737052 -367802,-6737023 -367851,-6736975 -367890,-6736955 -367945,-6736929 -367982,-6736909 -368029,-6736882 -368067,-6736845 -368111,-6736807 -368205,-6736739 -368197,-6736734 -368215,-6736710 -368263,-6736660 -368303,-6736614 -368366,-6736552 -368386,-6736526 -368396,-6736508 -368399,-6736490 -368406,-6736476 -368405,-6736473 -368394,-6736463 -368392,-6736457 -368357,-6736440 -368355,-6736437 -368374,-6736397 -368391,-6736354 -368394,-6736352 -368419,-6736354 -368452,-6736359 -368455,-6736358 -368471,-6736322 -368476,-6736306 -368470,-6736258 -368535,-6736254 -368606,-6736250 -368680,-6736219 -368766,-6736186 -368827,-6736161 -368866,-6736147 -368891,-6736137 -368902,-6736132 -368944,-6736173 -368958,-6736203 -368975,-6736202 -368978,-6736215 -368980,-6736218 -368980,-6736237 -368977,-6736290 -368972,-6736326 -368957,-6736396 -368942,-6736447 -368906,-6736590 -368877,-6736708 -368878,-6736711 -368911,-6736736 -369104,-6736868 -369117,-6736873 -369119,-6736875 -369072,-6736983 -369064,-6737000 -369056,-6737015 -369038,-6737044 -368974,-6737133 -368933,-6737184 -368929,-6737188 -368895,-6737207 -368885,-6737215 -368870,-6737228 -368856,-6737241 -368834,-6737267 -368809,-6737302 -368799,-6737319 -368791,-6737334 -368779,-6737360 -368771,-6737388 -368767,-6737413 -368767,-6737440 -368771,-6737463 -368778,-6737488 -368784,-6737513 -368794,-6737539 -368798,-6737548 -368817,-6737576 -368825,-6737594 -368829,-6737605 -368834,-6737630 -368835,-6737644 -368835,-6737669 -368832,-6737692 -368816,-6737863 -368816,-6737877 -368818,-6737888 -368821,-6737898 -368834,-6737927 -368866,-6737999 -368874,-6738019 -368880,-6738038 -368885,-6738056 -368890,-6738073 -368897,-6738110 -368900,-6738111 -368956,-6738109 -368990,-6738098 -369015,-6738094 -369131,-6738091 -369212,-6738102 -369215,-6738099 -369236,-6738033 -369238,-6738030 -369328,-6738027 -369329,-6738029 -369327,-6738051 -369315,-6738083 -369316,-6738085 -369320,-6738101 -369332,-6738118 -369340,-6738124 -369342,-6738125 -369367,-6738126 -369417,-6738114 -369427,-6738110 -369439,-6738104 -369472,-6738069 -369483,-6738051 -369486,-6738004 -369484,-6737984 -369480,-6737952 -369480,-6737950 -369567,-6738018 -369611,-6738064 -369614,-6738063 -369672,-6738005 -369722,-6737958 -369724,-6737955 -369721,-6737907 -369719,-6737877 -369738,-6737790 -369764,-6737689 -369764,-6737687 -369762,-6737666 -369768,-6737625 -369783,-6737502 -369789,-6737475 -369795,-6737463 -369795,-6737463 -369851,-6737558 -369905,-6737641 -369930,-6737676 -370009,-6737774 -370025,-6737780 -370066,-6737791 -370068,-6737791 -370089,-6737783 -370109,-6737780 -370111,-6737781 -370160,-6737807 -370201,-6737812 -370212,-6737813 -370214,-6737814 -370231,-6737830 -370235,-6737837 -370237,-6737838 -370253,-6737842 -370279,-6737859 -370332,-6737914 -370354,-6737942 -370393,-6737982 -370406,-6737996 -370420,-6738012 -370424,-6738015 -370436,-6738019 -370441,-6738019 -370511,-6738006 -370551,-6737996 -370571,-6737995 -370610,-6738003 -370613,-6738004 -370712,-6738129 -370826,-6738253 -370857,-6738291 -370890,-6738356 -370934,-6738437 -370972,-6738512 -371047,-6738642 -371078,-6738692 -371125,-6738761 -371154,-6738792 -371171,-6738813 -371260,-6739008 -371784,-6740165 -371785,-6740168 -371836,-6740201 -371966,-6740288 -372086,-6740362 -372159,-6740432 -372200,-6740497 -372211,-6740522 -372229,-6740595 -372235,-6740687 -372249,-6740845 -372285,-6740904 -372324,-6740976 -372395,-6741094 -372535,-6741334 -372638,-6741516 -372757,-6741728 -372819,-6741838 -372857,-6741895 -373004,-6742051 -373153,-6742211 -373159,-6742206 -373178,-6742216 -373296,-6742308 -373352,-6742353 -373391,-6742394 -373461,-6742479 -373511,-6742534 -373586,-6742629 -373652,-6742662 -373654,-6742757 -373679,-6742838 -373730,-6742996 -373788,-6743150 -373885,-6743402 -373962,-6743617 -374069,-6743925 -374100,-6744021 -374105,-6744044 -374112,-6744073 -374086,-6744075 -374112,-6744114 -374137,-6744199 -374163,-6744269 -374166,-6744319 -374194,-6744352 -374237,-6744470 -374302,-6744590 -374329,-6744722 -374353,-6744811 -374374,-6744911 -374398,-6744985 -374390,-6744991 -374478,-6745178 -374556,-6745346 -374587,-6745410 -374675,-6745551 -374749,-6745647 -374868,-6745809 -374925,-6745884 -375080,-6746072 -375205,-6746227 -375267,-6746308 -375392,-6746459 -375744,-6747044 -376264,-6748040 -376327,-6748105 -376396,-6748189 -376587,-6748406 -376662,-6748497 -376894,-6748766 -376906,-6748775 -376973,-6748824 -377027,-6748867 -377046,-6748882 -377098,-6748924 -377252,-6749041 -377359,-6749073 -377761,-6749187 -377906,-6749228 -378191,-6749312 -378374,-6749368 -378476,-6749275 -378481,-6749434 -378617,-6749581 -378788,-6749780 -378857,-6749857 -378988,-6750010 -379091,-6750123 -379285,-6750516 -379392,-6750750 -379600,-6751229 -379776,-6751683 -379921,-6752064 -379846,-6752095 -379880,-6752173 -379938,-6752293 -379983,-6752387 -379987,-6752397 -380018,-6752437 -380089,-6752506 -380141,-6752564 -380139,-6752576 -380143,-6752580 -380261,-6752688 -380369,-6752791 -380486,-6752896 -380514,-6752927 -380529,-6752969 -380533,-6752979 -380661,-6753236 -380698,-6753316 -380817,-6753406 -380981,-6753542 -381122,-6753660 -381202,-6753776 -381292,-6753867 -381395,-6753962 -381588,-6754149 -381688,-6754230 -381927,-6754448 -382035,-6754538 -382154,-6754647 -382316,-6754851 -382468,-6755036 -382474,-6755043 -382377,-6755141 -382417,-6755177 -382404,-6755192 -382440,-6755263 -382558,-6755492 -382601,-6755526 -382662,-6755573 -382753,-6755661 -382896,-6755786 -382950,-6755830 -383058,-6755917 -383111,-6755968 -383224,-6756067 -383226,-6756068 -383308,-6756142 -383308,-6756152 -383474,-6756316 -383639,-6756486 -383790,-6756636 -383934,-6756763 -384089,-6756905 -384223,-6757020 -384402,-6757145 -384195,-6757227 -384096,-6757262 -384063,-6757277 -383934,-6757279 -383759,-6757285 -383623,-6757291 -383380,-6757298 -383303,-6757302 -383041,-6757269 -382972,-6757272 -382865,-6757282 -382782,-6757297 -382783,-6757246 -382752,-6757205 -382737,-6757193 -382714,-6757185 -382721,-6757160 -382696,-6757134 -382683,-6757130 -382682,-6757117 -382692,-6757091 -382671,-6757072 -382666,-6757054 -382663,-6757031 -382636,-6757015 -382611,-6756977 -382586,-6756970 -382583,-6756942 -382566,-6756930 -382548,-6756930 -382513,-6756914 -382514,-6756897 -382502,-6756881 -382487,-6756875 -382470,-6756878 -382461,-6756890 -382423,-6756880 -382390,-6756860 -382333,-6756808 -382327,-6756789 -382291,-6756786 -382276,-6756778 -382256,-6756756 -382250,-6756714 -382239,-6756695 -382218,-6756684 -382195,-6756686 -382181,-6756673 -382175,-6756645 -382164,-6756624 -382154,-6756623 -382135,-6756633 -382097,-6756637 -382090,-6756630 -382074,-6756629 -382058,-6756641 -382033,-6756623 -382012,-6756622 -382022,-6756607 -382005,-6756590 -381988,-6756588 -381977,-6756596 -381963,-6756598 -381945,-6756572 -381925,-6756560 -381906,-6756560 -381875,-6756567 -381836,-6756583 -381812,-6756588 -381778,-6756607 -381769,-6756600 -381754,-6756584 -381738,-6756587 -381706,-6756592 -381677,-6756618 -381665,-6756617 -381655,-6756595 -381633,-6756574 -381617,-6756570 -381598,-6756574 -381544,-6756576 -381539,-6756586 -381538,-6756605 -381516,-6756649 -381510,-6756721 -381484,-6756804 -381449,-6756837 -381400,-6756865 -381381,-6756871 -381342,-6756867 -381309,-6756873 -381249,-6756877 -381183,-6756836 -381167,-6756873 -381174,-6756878 -381147,-6756918 -381141,-6756935 -381119,-6756968 -381099,-6756968 -381087,-6756979 -381074,-6757007 -381060,-6757019 -381053,-6757057 -381044,-6757076 -381039,-6757109 -381081,-6757146 -381142,-6757206 -381316,-6757342 -381197,-6757481 -381186,-6757481 -381147,-6757508 -381116,-6757528 -381076,-6757537 -381017,-6757540 -380983,-6757502 -380926,-6757535 -380949,-6757578 -380935,-6757590 -380914,-6757618 -380892,-6757636 -380872,-6757645 -380827,-6757674 -380803,-6757672 -380762,-6757660 -380707,-6757603 -380681,-6757627 -380638,-6757628 -380623,-6757633 -380590,-6757635 -380554,-6757646 -380534,-6757665 -380535,-6757679 -380521,-6757695 -380547,-6757728 -380552,-6757732 -380580,-6757768 -380587,-6757769 -380658,-6757842 -380699,-6757862 -380695,-6757878 -380697,-6757897 -380709,-6757918 -380728,-6757938 -380737,-6757937 -380759,-6757962 -380760,-6757996 -380748,-6757999 -380718,-6758014 -380679,-6758003 -380664,-6758013 -380656,-6758011 -380651,-6758004 -380638,-6758002 -380598,-6758014 -380583,-6758008 -380526,-6758014 -380496,-6758008 -380434,-6758013 -380438,-6758044 -380427,-6758079 -380419,-6758102 -380392,-6758136 -380372,-6758102 -380337,-6758137 -380340,-6758156 -380376,-6758261 -380369,-6758280 -380331,-6758299 -380359,-6758357 -380390,-6758405 -380402,-6758439 -380404,-6758460 -380409,-6758490 -380421,-6758510 -380440,-6758524 -380478,-6758534 -380547,-6758589 -380587,-6758625 -380586,-6758654 -380562,-6758714 -380539,-6758771 -380530,-6758800 -380523,-6758852 -380525,-6758926 -380535,-6758982 -380561,-6759041 -380569,-6759052 -380581,-6759069 -380608,-6759125 -380630,-6759181 -380667,-6759298 -380696,-6759441 -380697,-6759502 -380703,-6759548 -380724,-6759583 -380740,-6759600 -380778,-6759617 -380825,-6759629 -380971,-6759672 -381042,-6759701 -381063,-6759717 -381085,-6759733 -381111,-6759754 -381132,-6759775 -381176,-6759822 -381230,-6759878 -381285,-6759943 -381388,-6760089 -381443,-6760149 -381464,-6760182 -381490,-6760227 -381539,-6760304 -381638,-6760440 -381652,-6760474 -381658,-6760487 -381664,-6760510 -381676,-6760587 -381680,-6760640 -381675,-6760682 -381619,-6760845 -381609,-6760873 -381603,-6760896 -381596,-6760926 -381573,-6761008 -381570,-6761033 -381537,-6761223 -381532,-6761253 -381530,-6761275 -381529,-6761310 -381536,-6761367 -381542,-6761388 -381550,-6761406 -381560,-6761423 -381566,-6761431 -381581,-6761449 -381599,-6761465 -381645,-6761498 -381766,-6761554 -381776,-6761560 -381786,-6761567 -381801,-6761581 -381896,-6761660 -381998,-6761754 -382004,-6761761 -382017,-6761777 -382032,-6761797 -382045,-6761838 -382062,-6761899 -382069,-6761968 -382084,-6762053 -382093,-6762086 -382098,-6762100 -382104,-6762109 -382112,-6762120 -382126,-6762138 -382148,-6762157 -382186,-6762184 -382242,-6762213 -382263,-6762229 -382275,-6762241 -382285,-6762253 -382298,-6762271 -382302,-6762282 -382304,-6762297 -382304,-6762306 -382303,-6762364 -382293,-6762433 -382278,-6762510 -382220,-6762585 -382172,-6762657 -382168,-6762663 -382165,-6762672 -382163,-6762683 -382165,-6762701 -382180,-6762736 -382218,-6762785 -382471,-6762618 -382596,-6762757 -382679,-6762859 -382735,-6762941 -382756,-6762971 -382817,-6763031 -382887,-6763079 -382943,-6763139 -382970,-6763184 -383015,-6763288 -383058,-6763437 -383064,-6763453 -383075,-6763494 -383101,-6763571 -383128,-6763716 -383150,-6763869 -383156,-6763960 -383199,-6764263 -383206,-6764305 -383210,-6764410 -383215,-6764466 -383218,-6764560 -383237,-6764612 -383273,-6764704 -383384,-6764921 -383417,-6764994 -383464,-6765085 -383478,-6765103 -383503,-6765126 -383511,-6765135 -383535,-6765173 -383541,-6765188 -383543,-6765196 -383544,-6765211 -383536,-6765305 -383520,-6765408 -383513,-6765437 -383506,-6765474 -383475,-6765572 -383465,-6765603 -383433,-6765734 -383431,-6765749 -383430,-6765771 -383431,-6765799 -383443,-6765874 -383452,-6765912 -383457,-6765939 -383460,-6765967 -383494,-6766108 -383550,-6766310 -383565,-6766359 -383573,-6766396 -383580,-6766433 -383588,-6766527 -383588,-6766539 -383585,-6766565 -383568,-6766630 -383559,-6766652 -383556,-6766663 -383551,-6766683 -383547,-6766715 -383543,-6766746 -383539,-6766795 -383537,-6766886 -383537,-6766912 -383536,-6766919 -383531,-6766929 -383512,-6766951 -383505,-6766956 -383489,-6766967 -383475,-6766975 -383439,-6766995 -383418,-6767005 -383406,-6767011 -383376,-6766998 -383352,-6767002 -383333,-6767015 -383315,-6767016 -383281,-6767025 -383247,-6767039 -383188,-6767042 -383165,-6767032 -383144,-6767016 -383133,-6767013 -383126,-6767016 -383116,-6767027 -383113,-6767041 -383090,-6767072 -383055,-6767094 -383037,-6767121 -383012,-6767138 -382999,-6767152 -382996,-6767170 -382988,-6767180 -382966,-6767206 -382957,-6767221 -382934,-6767241 -382919,-6767255 -382904,-6767263 -382896,-6767272 -382879,-6767302 -382856,-6767324 -382784,-6767397 -382751,-6767420 -382707,-6767467 -382673,-6767487 -382656,-6767512 -382634,-6767528 -382606,-6767540 -382598,-6767547 -382586,-6767564 -382572,-6767589 -382553,-6767603 -382529,-6767612 -382501,-6767618 -382472,-6767623 -382458,-6767633 -382434,-6767654 -382415,-6767672 -382407,-6767675 -382399,-6767695 -382384,-6767709 -382353,-6767728 -382329,-6767730 -382310,-6767741 -382294,-6767771 -382282,-6767789 -382268,-6767801 -382225,-6767802 -382203,-6767815 -382192,-6767838 -382186,-6767869 -382168,-6767916 -382148,-6767933 -382117,-6767948 -382091,-6767971 -382092,-6767985 -382076,-6768035 -382075,-6768047 -382056,-6768067 -382053,-6768073 -382041,-6768099 -382032,-6768104 -382017,-6768106 -382004,-6768116 -382002,-6768124 -381991,-6768145 -381987,-6768161 -381975,-6768185 -381965,-6768197 -381951,-6768210 -381948,-6768225 -381949,-6768253 -381958,-6768267 -381955,-6768294 -381959,-6768310 -381952,-6768319 -381918,-6768331 -381904,-6768339 -381885,-6768363 -381869,-6768385 -381850,-6768408 -381808,-6768413 -381796,-6768408 -381676,-6768523 -381655,-6768534 -381379,-6768819 -381072,-6769142 -380961,-6769266 -380510,-6770148 -380393,-6770364 -379992,-6769974 -379229,-6769235 -379117,-6769124 -378755,-6768781 -378760,-6768767 -378755,-6768753 -378752,-6768743 -378752,-6768733 -378753,-6768724 -378773,-6768657 -378768,-6768624 -378757,-6768609 -378761,-6768602 -378762,-6768597 -378763,-6768590 -378761,-6768581 -378758,-6768576 -378747,-6768563 -378736,-6768505 -378744,-6768500 -378751,-6768497 -378756,-6768494 -378760,-6768491 -378765,-6768482 -378767,-6768473 -378769,-6768469" stroke="#003087" stroke-width="54" /></svg>