<?xml version="1.0" standalone="no"?>
<!DOCTYPE svg PUBLIC "-//W3C//DTD SVG 1.1//EN"
"http://www.w3.org/Graphics/SVG/1.1/DTD/svg11.dtd">
<svg height="115" version="1.1" viewBox="-438209 -6765908 41715 50830" width="220" xmlns="http://www.w3.org/2000/svg"><polygon fill="#003087" points=" -430047,-6765790 -430024,-6765784 -429998,-6765788 -429963,-6765801 -429921,-6765820 -429893,-6765831 -429880,-6765828 -429860,-6765815 -429851,-6765798 -429837,-6765792 -429796,-6765781 -429779,-6765770 -429763,-6765749 -429753,-6765713 -429736,-6765708 -429716,-6765716 -429701,-6765735 -429693,-6765738 -429677,-6765741 -429663,-6765753 -429649,-6765777 -429636,-6765808 -429614,-6765832 -429598,-6765837 -429581,-6765833 -429538,-6765804 -429482,-6765793 -429447,-6765799 -429402,-6765811 -429372,-6765812 -429347,-6765784 -429313,-6765768 -429247,-6765747 -429217,-6765748 -429178,-6765729 -429156,-6765696 -429125,-6765680 -429096,-6765670 -429068,-6765669 -429029,-6765682 -428990,-6765706 -428977,-6765721 -428974,-6765729 -428970,-6765753 -428963,-6765773 -428945,-6765788 -428924,-6765794 -428873,-6765784 -428755,-6765762 -428745,-6765766 -428708,-6765794 -428675,-6765812 -428651,-6765810 -428581,-6765803 -428528,-6765782 -428495,-6765763 -428466,-6765748 -428448,-6765746 -428422,-6765755 -428376,-6765775 -428359,-6765775 -428338,-6765773 -428306,-6765771 -428292,-6765763 -428272,-6765726 -428263,-6765712 -428239,-6765696 -428219,-6765685 -428201,-6765680 -428191,-6765678 -428166,-6765677 -428128,-6765677 -428117,-6765676 -428114,-6765679 -428112,-6765682 -428111,-6765688 -428116,-6765724 -428115,-6765754 -428107,-6765773 -428086,-6765789 -428059,-6765790 -428050,-6765786 -428019,-6765764 -427994,-6765753 -427975,-6765746 -427935,-6765739 -427926,-6765732 -427924,-6765704 -427909,-6765691 -427886,-6765692 -427874,-6765696 -427837,-6765721 -427816,-6765733 -427787,-6765749 -427779,-6765743 -427726,-6765745 -427703,-6765747 -427668,-6765727 -427581,-6765676 -427547,-6765667 -427520,-6765657 -427459,-6765647 -427404,-6765627 -427373,-6765604 -427314,-6765579 -427289,-6765575 -427230,-6765590 -427180,-6765567 -427097,-6765527 -427046,-6765527 -426991,-6765494 -426963,-6765468 -426937,-6765459 -426892,-6765422 -426884,-6765404 -426875,-6765389 -426873,-6765372 -426876,-6765361 -426876,-6765325 -426869,-6765311 -426859,-6765297 -426858,-6765291 -426857,-6765285 -426861,-6765265 -426784,-6765192 -426797,-6765169 -426773,-6765158 -426755,-6765158 -426732,-6765151 -426733,-6765147 -426700,-6765140 -426632,-6765151 -426485,-6765050 -426402,-6764993 -426310,-6764934 -426243,-6764891 -426210,-6764870 -426164,-6764845 -426076,-6764801 -426001,-6764768 -425943,-6764741 -425903,-6764729 -425836,-6764714 -425778,-6764689 -425726,-6764668 -425731,-6764698 -425730,-6764766 -425724,-6764792 -425695,-6764806 -425674,-6764789 -425648,-6764787 -425643,-6764780 -425631,-6764757 -425612,-6764755 -425600,-6764746 -425592,-6764723 -425584,-6764714 -425566,-6764707 -425547,-6764679 -425525,-6764660 -425504,-6764649 -425490,-6764648 -425474,-6764649 -425457,-6764623 -425447,-6764615 -425431,-6764615 -425407,-6764599 -425391,-6764601 -425373,-6764608 -425343,-6764609 -425306,-6764582 -425295,-6764571 -425285,-6764540 -425275,-6764532 -425268,-6764533 -425259,-6764544 -425246,-6764537 -425229,-6764522 -425214,-6764514 -425185,-6764485 -425176,-6764469 -425158,-6764460 -425145,-6764457 -425131,-6764462 -425114,-6764473 -425096,-6764475 -425082,-6764466 -425052,-6764439 -425043,-6764421 -425024,-6764411 -425003,-6764385 -424993,-6764359 -424983,-6764353 -424956,-6764347 -424939,-6764328 -424927,-6764322 -424904,-6764323 -424888,-6764316 -424889,-6764295 -424907,-6764288 -424914,-6764255 -424882,-6764223 -424861,-6764192 -424837,-6764164 -424816,-6764146 -424809,-6764134 -424811,-6764126 -424834,-6764105 -424813,-6764074 -424803,-6764051 -424794,-6764023 -424784,-6764007 -424760,-6763977 -424739,-6763970 -424727,-6763959 -424728,-6763931 -424734,-6763902 -424740,-6763859 -424739,-6763835 -424737,-6763826 -424724,-6763814 -424706,-6763805 -424680,-6763796 -424632,-6763781 -424613,-6763772 -424612,-6763757 -424624,-6763734 -424638,-6763719 -424666,-6763699 -424698,-6763676 -424698,-6763648 -424701,-6763627 -424704,-6763619 -424715,-6763597 -424750,-6763561 -424774,-6763530 -424788,-6763524 -424808,-6763521 -424845,-6763541 -424876,-6763547 -424892,-6763543 -424909,-6763520 -424913,-6763508 -424916,-6763479 -424856,-6763445 -424826,-6763431 -424781,-6763411 -424749,-6763408 -424688,-6763385 -424631,-6763355 -424613,-6763341 -424590,-6763312 -424576,-6763305 -424551,-6763298 -424538,-6763289 -424530,-6763269 -424531,-6763250 -424529,-6763228 -424516,-6763212 -424505,-6763195 -424481,-6763168 -424456,-6763147 -424392,-6763121 -424362,-6763122 -424358,-6763120 -424337,-6763100 -424335,-6763092 -424349,-6763074 -424335,-6763058 -424326,-6763034 -424311,-6763024 -424308,-6762986 -424321,-6762949 -424326,-6762929 -424335,-6762866 -424341,-6762813 -424345,-6762778 -424366,-6762777 -424357,-6762755 -424353,-6762717 -424354,-6762683 -424344,-6762666 -424310,-6762659 -424267,-6762641 -424233,-6762618 -424201,-6762589 -424165,-6762548 -424180,-6762528 -424174,-6762518 -424169,-6762503 -424166,-6762465 -424151,-6762411 -424152,-6762372 -424143,-6762353 -424126,-6762332 -424108,-6762313 -424099,-6762282 -424092,-6762259 -424068,-6762244 -424036,-6762226 -424024,-6762213 -424016,-6762189 -424009,-6762144 -424001,-6762116 -423977,-6762069 -423946,-6762062 -423884,-6762059 -423870,-6762051 -423830,-6761986 -423779,-6761901 -423758,-6761874 -423769,-6761854 -423773,-6761823 -423772,-6761795 -423765,-6761776 -423756,-6761761 -423741,-6761748 -423717,-6761729 -423693,-6761715 -423670,-6761708 -423657,-6761705 -423630,-6761697 -423565,-6761659 -423551,-6761647 -423522,-6761621 -423466,-6761567 -423442,-6761535 -423427,-6761506 -423407,-6761430 -423400,-6761380 -423388,-6761335 -423364,-6761284 -423342,-6761252 -423312,-6761198 -423294,-6761159 -423248,-6761022 -423234,-6760978 -423232,-6760947 -423231,-6760928 -423226,-6760832 -423216,-6760788 -423200,-6760753 -423169,-6760716 -423120,-6760683 -423074,-6760672 -423016,-6760664 -422972,-6760667 -422935,-6760670 -422852,-6760707 -422789,-6760752 -422769,-6760780 -422750,-6760806 -422723,-6760822 -422681,-6760838 -422634,-6760844 -422610,-6760836 -422594,-6760821 -422574,-6760802 -422530,-6760740 -422507,-6760703 -422489,-6760658 -422476,-6760628 -422468,-6760598 -422451,-6760568 -422414,-6760513 -422348,-6760439 -422326,-6760394 -422315,-6760383 -422284,-6760355 -422238,-6760333 -422185,-6760295 -422112,-6760228 -422100,-6760217 -422069,-6760185 -422058,-6760172 -422029,-6760135 -422008,-6760105 -421972,-6760027 -421957,-6760003 -421900,-6759948 -421860,-6759931 -421804,-6759897 -421745,-6759849 -421680,-6759801 -421634,-6759750 -421571,-6759697 -421481,-6759631 -421398,-6759582 -421372,-6759563 -421346,-6759535 -421325,-6759509 -421292,-6759443 -421256,-6759400 -421206,-6759355 -421170,-6759333 -421108,-6759310 -421078,-6759292 -421060,-6759273 -421028,-6759209 -420993,-6759138 -420964,-6759098 -420910,-6759046 -420886,-6759003 -420857,-6758912 -420838,-6758841 -420826,-6758769 -420809,-6758719 -420811,-6758647 -420820,-6758542 -420815,-6758432 -420807,-6758399 -420788,-6758342 -420785,-6758332 -420761,-6758300 -420761,-6758267 -420760,-6758248 -420717,-6758257 -420701,-6758219 -420680,-6758207 -420667,-6758179 -420656,-6758176 -420658,-6758171 -420606,-6758140 -420576,-6758075 -420560,-6758001 -420552,-6757967 -420548,-6757937 -420548,-6757906 -420557,-6757874 -420562,-6757849 -420551,-6757789 -420553,-6757771 -420556,-6757753 -420570,-6757720 -420610,-6757676 -420620,-6757655 -420621,-6757638 -420610,-6757603 -420605,-6757593 -420600,-6757583 -420583,-6757566 -420567,-6757544 -420554,-6757510 -420534,-6757453 -420517,-6757416 -420507,-6757402 -420497,-6757391 -420549,-6757343 -420566,-6757322 -420571,-6757316 -420583,-6757306 -420593,-6757295 -420612,-6757248 -420612,-6757206 -420598,-6756897 -420600,-6756888 -420677,-6756891 -420721,-6756878 -420756,-6756864 -420776,-6756853 -420783,-6756842 -420799,-6756811 -420811,-6756795 -420824,-6756789 -420830,-6756787 -420827,-6756730 -420822,-6756722 -420816,-6756715 -420809,-6756708 -420801,-6756702 -420783,-6756689 -420771,-6756678 -420759,-6756670 -420751,-6756656 -420745,-6756637 -420725,-6756597 -420523,-6756249 -420499,-6756236 -420424,-6756196 -420021,-6756003 -419951,-6755969 -419710,-6755860 -419662,-6755861 -419622,-6755860 -419553,-6755863 -419530,-6755863 -419485,-6755861 -419295,-6755813 -419267,-6755807 -419226,-6755799 -419130,-6755773 -419075,-6755761 -419057,-6755756 -418986,-6755732 -418968,-6755725 -418951,-6755717 -418937,-6755707 -418917,-6755700 -418876,-6755706 -418830,-6755705 -418816,-6755698 -418793,-6755686 -418761,-6755667 -418746,-6755661 -418699,-6755644 -418672,-6755639 -418635,-6755624 -418598,-6755612 -418567,-6755608 -418533,-6755610 -418472,-6755608 -418425,-6755608 -418380,-6755602 -418352,-6755596 -418338,-6755589 -418292,-6755565 -418247,-6755556 -418223,-6755554 -418172,-6755551 -418146,-6755550 -418103,-6755550 -418085,-6755542 -418056,-6755554 -417925,-6755633 -417871,-6755656 -417850,-6755652 -417771,-6755645 -417721,-6755633 -417698,-6755630 -417598,-6755620 -417604,-6755673 -417612,-6755691 -417606,-6755712 -417602,-6755764 -417587,-6755760 -417567,-6755768 -417568,-6755785 -417551,-6755785 -417531,-6755778 -417505,-6755774 -417449,-6755761 -417432,-6755755 -417398,-6755742 -417381,-6755734 -417350,-6755717 -417309,-6755704 -417274,-6755700 -417240,-6755699 -417215,-6755702 -417203,-6755701 -417180,-6755698 -417167,-6755695 -417112,-6755680 -417089,-6755679 -417073,-6755675 -417056,-6755671 -417014,-6755657 -417012,-6755657 -417001,-6755664 -416982,-6755679 -416938,-6755724 -416916,-6755740 -416893,-6755753 -416841,-6755796 -416840,-6755815 -416824,-6755856 -416818,-6755873 -416807,-6755910 -416793,-6755955 -416780,-6755976 -416724,-6756036 -416699,-6756066 -416638,-6756176 -416587,-6756259 -416615,-6756273 -416700,-6756316 -416683,-6756338 -416664,-6756355 -416645,-6756369 -416593,-6756392 -416538,-6756418 -416493,-6756430 -416461,-6756433 -416419,-6756440 -416398,-6756443 -416376,-6756445 -416339,-6756445 -416315,-6756449 -416302,-6756489 -416298,-6756494 -416160,-6756521 -416138,-6756517 -416106,-6756515 -416058,-6756505 -416070,-6756543 -416061,-6756597 -416028,-6756590 -416025,-6756628 -416004,-6756716 -415964,-6756834 -415952,-6756869 -415900,-6756982 -415892,-6757002 -415884,-6757022 -415844,-6757133 -415830,-6757165 -415821,-6757330 -415818,-6757342 -415799,-6757406 -415832,-6757416 -415842,-6757418 -415852,-6757419 -415872,-6757418 -415871,-6757422 -415869,-6757426 -415820,-6757512 -415803,-6757592 -415788,-6757654 -415650,-6757725 -415608,-6757748 -415567,-6757757 -415603,-6757847 -415607,-6757858 -415610,-6757870 -415613,-6757890 -415617,-6757966 -415609,-6757978 -415602,-6757990 -415597,-6758003 -415582,-6758061 -415577,-6758076 -415573,-6758085 -415568,-6758093 -415563,-6758099 -415552,-6758110 -415493,-6758146 -415482,-6758151 -415472,-6758150 -415416,-6758133 -415361,-6758118 -415638,-6758464 -415669,-6758473 -415687,-6758480 -415742,-6758502 -415965,-6758609 -415860,-6758711 -415745,-6758821 -415704,-6758867 -415692,-6758880 -415656,-6758914 -415608,-6758976 -415531,-6759069 -415302,-6759384 -415238,-6759479 -415158,-6759587 -415127,-6759633 -415109,-6759656 -415090,-6759678 -415072,-6759697 -415045,-6759715 -414989,-6759761 -414947,-6759787 -414847,-6759820 -414760,-6759865 -414717,-6759884 -414678,-6759892 -414562,-6759902 -414475,-6759920 -414405,-6759941 -414296,-6759986 -414225,-6760010 -414159,-6760037 -414084,-6760076 -414006,-6760114 -413951,-6760063 -413770,-6760115 -413730,-6760129 -413698,-6760130 -413652,-6760117 -413595,-6760119 -413537,-6760124 -413422,-6760141 -413332,-6760151 -413221,-6760153 -413140,-6760169 -413094,-6760207 -413019,-6760246 -412945,-6760278 -412833,-6760314 -412607,-6760377 -412161,-6760477 -411969,-6760519 -411870,-6760541 -411714,-6760577 -411525,-6760623 -411228,-6760698 -411124,-6760719 -411104,-6760711 -411092,-6760712 -411079,-6760715 -411048,-6760731 -411037,-6760732 -411026,-6760733 -410861,-6760724 -410820,-6760697 -410766,-6760658 -410582,-6760533 -410508,-6760493 -410482,-6760484 -410456,-6760475 -410408,-6760466 -410358,-6760467 -410298,-6760480 -410234,-6760511 -410185,-6760540 -410104,-6760584 -410067,-6760600 -410019,-6760616 -409961,-6760646 -409898,-6760690 -409852,-6760718 -409827,-6760745 -409825,-6760788 -409613,-6761126 -409572,-6761202 -409533,-6761200 -409465,-6761200 -409346,-6761205 -409299,-6761204 -409216,-6761278 -409122,-6761307 -409042,-6761335 -409000,-6761369 -408897,-6761463 -408780,-6761562 -408694,-6761647 -408583,-6761739 -408576,-6761655 -408576,-6761604 -408569,-6761525 -408538,-6761525 -408482,-6761504 -408457,-6761499 -408457,-6761487 -408389,-6761487 -408097,-6761533 -408107,-6761544 -408056,-6761547 -407850,-6761539 -407882,-6761506 -407892,-6761468 -407890,-6761355 -407451,-6761363 -407051,-6761374 -406995,-6761388 -406876,-6761357 -406848,-6761375 -406840,-6761408 -406768,-6761408 -406737,-6761397 -406708,-6761401 -406669,-6761423 -406665,-6761425 -406659,-6761426 -406653,-6761426 -406647,-6761423 -406642,-6761420 -406637,-6761414 -406635,-6761408 -406634,-6761400 -406624,-6761369 -406617,-6761345 -406619,-6761288 -406625,-6761266 -406624,-6761238 -406611,-6761199 -406585,-6761137 -406569,-6761109 -406566,-6761106 -406547,-6761103 -406526,-6761102 -406487,-6761100 -406453,-6761095 -406430,-6761083 -406403,-6761061 -406360,-6761001 -406295,-6760932 -406274,-6760916 -406264,-6760892 -406253,-6760876 -406228,-6760855 -406192,-6760863 -406131,-6760875 -406099,-6760885 -406078,-6760909 -406056,-6760929 -406032,-6760938 -406013,-6760934 -405989,-6760919 -405960,-6760889 -405920,-6760857 -405877,-6760848 -405808,-6760835 -405777,-6760817 -405765,-6760800 -405762,-6760783 -405764,-6760763 -405758,-6760746 -405729,-6760727 -405599,-6760707 -405529,-6760691 -405488,-6760689 -405459,-6760676 -405432,-6760660 -405405,-6760654 -405397,-6760655 -405340,-6760659 -405325,-6760654 -405309,-6760649 -405280,-6760634 -405261,-6760618 -405250,-6760604 -405239,-6760589 -405225,-6760561 -405223,-6760519 -405227,-6760489 -405234,-6760472 -405254,-6760427 -405255,-6760408 -405246,-6760386 -405227,-6760363 -405177,-6760333 -405090,-6760310 -405080,-6760304 -405070,-6760298 -405054,-6760275 -405041,-6760244 -405020,-6760201 -405014,-6760186 -405009,-6760155 -405014,-6760096 -405021,-6760050 -405028,-6760017 -405026,-6759999 -405014,-6759981 -404993,-6759966 -404943,-6759949 -404942,-6759949 -404885,-6759942 -404875,-6759939 -404868,-6759939 -404861,-6759939 -404838,-6759946 -404830,-6759948 -404819,-6759952 -404752,-6759992 -404670,-6760030 -404584,-6760066 -404543,-6760074 -404517,-6760065 -404491,-6760047 -404484,-6760035 -404472,-6760009 -404467,-6759996 -404464,-6759960 -404455,-6759942 -404447,-6759928 -404436,-6759915 -404429,-6759907 -404419,-6759901 -404408,-6759895 -404346,-6759874 -404306,-6759865 -404219,-6759822 -404206,-6759820 -404199,-6759816 -404194,-6759811 -404189,-6759806 -404165,-6759789 -404100,-6759742 -404087,-6759731 -404063,-6759709 -404020,-6759627 -404012,-6759599 -404005,-6759581 -403979,-6759531 -403974,-6759524 -403967,-6759516 -403961,-6759511 -403950,-6759504 -403937,-6759500 -403935,-6759499 -403863,-6759502 -403845,-6759501 -403833,-6759503 -403824,-6759506 -403816,-6759511 -403806,-6759518 -403776,-6759533 -403766,-6759540 -403758,-6759544 -403748,-6759546 -403743,-6759547 -403737,-6759544 -403731,-6759542 -403689,-6759512 -403670,-6759500 -403653,-6759487 -403638,-6759471 -403605,-6759431 -403567,-6759374 -403550,-6759360 -403539,-6759359 -403521,-6759371 -403519,-6759379 -403516,-6759397 -403515,-6759420 -403513,-6759429 -403509,-6759440 -403504,-6759448 -403470,-6759485 -403459,-6759493 -403452,-6759497 -403435,-6759503 -403414,-6759504 -403405,-6759503 -403388,-6759498 -403321,-6759468 -403309,-6759460 -403296,-6759453 -403280,-6759449 -403272,-6759449 -403263,-6759449 -403249,-6759451 -403169,-6759453 -403148,-6759456 -403120,-6759464 -402982,-6759518 -402971,-6759517 -402963,-6759515 -402954,-6759512 -402947,-6759508 -402940,-6759502 -402908,-6759482 -402880,-6759459 -402866,-6759445 -402860,-6759438 -402828,-6759378 -402814,-6759361 -402805,-6759351 -402798,-6759346 -402791,-6759341 -402777,-6759336 -402768,-6759334 -402768,-6759334 -402761,-6759333 -402746,-6759335 -402731,-6759343 -402695,-6759377 -402689,-6759380 -402680,-6759381 -402676,-6759379 -402669,-6759375 -402572,-6759330 -402543,-6759304 -402529,-6759294 -402522,-6759291 -402507,-6759285 -402494,-6759277 -402445,-6759252 -402399,-6759206 -402386,-6759199 -402378,-6759193 -402370,-6759186 -402362,-6759178 -402351,-6759163 -402316,-6759121 -402311,-6759115 -402304,-6759110 -402297,-6759107 -402289,-6759104 -402233,-6759091 -402227,-6759088 -402217,-6759082 -402208,-6759074 -402197,-6759062 -402178,-6759044 -402128,-6758979 -402113,-6758966 -402109,-6758962 -402027,-6758967 -402009,-6758968 -401981,-6758966 -401958,-6758962 -401892,-6758959 -401876,-6758961 -401825,-6758976 -401817,-6758977 -401804,-6758975 -401744,-6758971 -401729,-6758975 -401718,-6758979 -401704,-6758986 -401684,-6758999 -401673,-6759005 -401662,-6759010 -401648,-6759014 -401594,-6759034 -401513,-6759059 -401453,-6759081 -401406,-6759100 -401392,-6759102 -401381,-6759101 -401326,-6759109 -401308,-6759115 -401297,-6759121 -401289,-6759128 -401282,-6759133 -401273,-6759145 -401271,-6759149 -401267,-6759160 -401262,-6759194 -401261,-6759214 -401262,-6759236 -401266,-6759263 -401267,-6759293 -401265,-6759306 -401263,-6759312 -401259,-6759319 -401254,-6759328 -401250,-6759332 -401217,-6759356 -401157,-6759351 -401132,-6759336 -401124,-6759331 -401111,-6759320 -401103,-6759311 -401090,-6759295 -401079,-6759280 -401067,-6759256 -401039,-6759179 -401034,-6759172 -401023,-6759158 -401017,-6759152 -400972,-6759129 -400965,-6759125 -400957,-6759123 -400951,-6759123 -400901,-6759134 -400895,-6759134 -400889,-6759132 -400883,-6759129 -400875,-6759122 -400868,-6759106 -400866,-6759097 -400866,-6759087 -400867,-6759079 -400873,-6759064 -400890,-6759010 -400900,-6758985 -400902,-6758973 -400902,-6758962 -400899,-6758945 -400883,-6758905 -400875,-6758893 -400871,-6758890 -400858,-6758882 -400821,-6758880 -400801,-6758881 -400788,-6758882 -400776,-6758885 -400749,-6758891 -400741,-6758892 -400728,-6758890 -400720,-6758886 -400716,-6758883 -400708,-6758875 -400698,-6758861 -400688,-6758847 -400679,-6758831 -400658,-6758808 -400606,-6758778 -400588,-6758760 -400576,-6758747 -400565,-6758733 -400557,-6758720 -400550,-6758701 -400540,-6758692 -400503,-6758649 -400497,-6758634 -400493,-6758618 -400493,-6758605 -400517,-6758505 -400511,-6758475 -400513,-6758428 -400531,-6758360 -400534,-6758333 -400532,-6758258 -400531,-6758245 -400528,-6758230 -400525,-6758214 -400506,-6758157 -400482,-6758103 -400402,-6757983 -400391,-6757962 -400383,-6757946 -400371,-6757915 -400365,-6757888 -400365,-6757880 -400366,-6757862 -400369,-6757844 -400372,-6757832 -400373,-6757828 -400380,-6757813 -400387,-6757804 -400398,-6757788 -400410,-6757773 -400419,-6757764 -400444,-6757745 -400504,-6757675 -400518,-6757665 -400521,-6757659 -400528,-6757644 -400530,-6757635 -400530,-6757606 -400528,-6757595 -400525,-6757585 -400520,-6757575 -400514,-6757567 -400508,-6757560 -400505,-6757557 -400465,-6757535 -400444,-6757517 -400434,-6757507 -400418,-6757489 -400385,-6757442 -400349,-6757407 -400329,-6757384 -400323,-6757376 -400311,-6757352 -400306,-6757345 -400293,-6757331 -400279,-6757318 -400262,-6757305 -400228,-6757276 -400198,-6757244 -400166,-6757185 -400143,-6757128 -400146,-6757063 -400148,-6757016 -400151,-6756968 -400165,-6756927 -400182,-6756893 -400196,-6756823 -400221,-6756762 -400244,-6756722 -400267,-6756673 -400282,-6756636 -400277,-6756619 -400258,-6756604 -400229,-6756565 -400216,-6756553 -400151,-6756508 -400141,-6756486 -400141,-6756465 -400139,-6756444 -400116,-6756386 -400091,-6756337 -400059,-6756326 -400000,-6756214 -399962,-6756127 -399934,-6756077 -399847,-6755971 -399783,-6755894 -399780,-6755877 -399795,-6755881 -399802,-6755877 -399810,-6755874 -399854,-6755828 -399914,-6755763 -399989,-6755680 -400050,-6755620 -400045,-6755614 -400004,-6755564 -400004,-6755534 -399998,-6755507 -399976,-6755498 -399959,-6755472 -399936,-6755437 -399895,-6755392 -399880,-6755390 -399848,-6755354 -399839,-6755347 -399828,-6755339 -399814,-6755304 -399798,-6755245 -399783,-6755225 -399773,-6755215 -399743,-6755160 -399735,-6755151 -399719,-6755133 -399689,-6755091 -399658,-6755053 -399668,-6755025 -399674,-6755007 -399724,-6754937 -399781,-6754862 -399669,-6754601 -399515,-6754240 -399325,-6753806 -399233,-6753592 -399053,-6753181 -398989,-6753035 -398951,-6752951 -398870,-6752771 -398702,-6752385 -398690,-6752301 -398678,-6752213 -398664,-6752112 -398655,-6752018 -398639,-6751889 -398622,-6751770 -398596,-6751545 -398561,-6751255 -398546,-6751164 -398546,-6751135 -398544,-6751039 -398538,-6750907 -398542,-6750875 -398547,-6750843 -398541,-6750793 -398521,-6750536 -398509,-6750457 -398501,-6750358 -398492,-6750276 -398471,-6750199 -398444,-6750112 -398410,-6750073 -398409,-6750071 -398408,-6750051 -398405,-6750024 -398404,-6749965 -398398,-6749818 -398398,-6749765 -398390,-6749632 -398386,-6749571 -398383,-6749492 -398379,-6749426 -398376,-6749310 -398373,-6749274 -398422,-6749185 -398469,-6749109 -398547,-6748976 -398603,-6748876 -398645,-6748812 -398725,-6748672 -398741,-6748638 -398768,-6748587 -398770,-6748585 -398779,-6748538 -398814,-6748334 -398832,-6748217 -398883,-6747849 -398927,-6747566 -398940,-6747457 -398964,-6747350 -398987,-6747270 -399011,-6747133 -399039,-6746978 -399056,-6746873 -399099,-6746626 -399089,-6746588 -399057,-6746500 -399011,-6746369 -398970,-6746221 -398946,-6746122 -398892,-6745975 -398731,-6745455 -398665,-6745234 -398803,-6745015 -398935,-6744810 -399045,-6744643 -399136,-6744497 -399215,-6744371 -399233,-6744342 -399212,-6744245 -399171,-6744102 -399130,-6743939 -399099,-6743864 -399075,-6743781 -399052,-6743680 -399023,-6743587 -399066,-6743494 -399081,-6743467 -399249,-6743175 -399428,-6742872 -399469,-6742794 -399487,-6742735 -399526,-6742600 -399559,-6742479 -399574,-6742388 -399590,-6742340 -399561,-6742308 -399529,-6742269 -399399,-6742105 -399286,-6741971 -399050,-6741700 -398823,-6741427 -398775,-6741371 -398735,-6741322 -398619,-6741023 -398563,-6740886 -398373,-6740321 -398275,-6740007 -398190,-6739766 -398123,-6739556 -398106,-6739516 -398015,-6739370 -397953,-6739273 -397941,-6739252 -397929,-6739238 -397915,-6739226 -397745,-6739042 -397546,-6738832 -397404,-6738668 -397035,-6738286 -396751,-6737981 -396745,-6737978 -396733,-6737964 -396641,-6737439 -396559,-6736922 -396494,-6736625 -396515,-6736593 -396577,-6736477 -396635,-6736353 -396665,-6736276 -396698,-6736205 -396779,-6736006 -396831,-6735876 -396906,-6735710 -396966,-6735727 -397037,-6735746 -397164,-6735777 -397414,-6735838 -397507,-6735859 -397566,-6735880 -398076,-6736000 -398308,-6736056 -398551,-6736113 -398729,-6736057 -398935,-6735980 -399422,-6735806 -399757,-6735690 -400240,-6735523 -400240,-6735512 -400255,-6735318 -400263,-6735079 -400268,-6734948 -400273,-6734885 -400287,-6734886 -400450,-6734919 -400593,-6734944 -400695,-6734964 -400736,-6734972 -401369,-6735093 -402398,-6735283 -402755,-6735353 -403177,-6735433 -403403,-6735476 -403718,-6735534 -403979,-6735587 -404151,-6735615 -404253,-6735637 -404350,-6735653 -404507,-6735683 -404577,-6735694 -404669,-6735712 -404720,-6735722 -404895,-6735758 -404994,-6735776 -405023,-6735774 -405055,-6735769 -405130,-6735764 -405160,-6735765 -405198,-6735768 -405277,-6735778 -405347,-6735783 -405467,-6735797 -405537,-6735802 -405595,-6735808 -405639,-6735804 -405659,-6735801 -405678,-6735798 -405723,-6735789 -405890,-6735770 -405892,-6735771 -405873,-6735814 -405833,-6735893 -405834,-6735896 -405861,-6735902 -406004,-6735931 -406155,-6735964 -406546,-6736042 -406702,-6736079 -406925,-6736123 -407035,-6736146 -407181,-6736180 -407356,-6736217 -407522,-6736249 -407627,-6736271 -407631,-6736270 -407710,-6736130 -407808,-6735954 -407874,-6735832 -407904,-6735774 -407946,-6735699 -407975,-6735649 -407995,-6735619 -408018,-6735577 -408063,-6735499 -408106,-6735416 -408205,-6735233 -408245,-6735155 -408394,-6734876 -408437,-6734800 -408527,-6734629 -408615,-6734468 -408714,-6734291 -408759,-6734211 -408816,-6734104 -408848,-6734048 -408953,-6733842 -408996,-6733765 -409014,-6733737 -409037,-6733694 -409112,-6733551 -409153,-6733463 -409201,-6733376 -409279,-6733235 -409330,-6733132 -409350,-6733103 -409358,-6733085 -409380,-6733033 -409413,-6732935 -409438,-6732873 -409477,-6732773 -409490,-6732720 -409525,-6732590 -409552,-6732496 -409589,-6732405 -409634,-6732301 -409648,-6732266 -409686,-6732163 -409734,-6732048 -409733,-6732045 -409637,-6731995 -409568,-6731959 -409530,-6731941 -409527,-6731939 -409507,-6731855 -409494,-6731794 -409473,-6731715 -409459,-6731659 -409450,-6731633 -409443,-6731550 -409432,-6731462 -409431,-6731430 -409438,-6731384 -409442,-6731344 -409446,-6731333 -409457,-6731311 -409478,-6731269 -409481,-6731266 -409503,-6731266 -409507,-6731265 -409532,-6731219 -409546,-6731189 -409588,-6731079 -409610,-6731028 -409620,-6731004 -409645,-6730929 -409673,-6730824 -409678,-6730757 -409679,-6730703 -409682,-6730680 -409684,-6730669 -409703,-6730603 -409714,-6730576 -409716,-6730575 -409732,-6730582 -409735,-6730582 -409743,-6730552 -409745,-6730543 -409751,-6730514 -409770,-6730441 -409790,-6730395 -409822,-6730308 -409827,-6730241 -409832,-6730218 -409846,-6730167 -409855,-6730127 -409867,-6730089 -409879,-6729990 -409889,-6729934 -409905,-6729893 -409921,-6729849 -409934,-6729827 -409944,-6729799 -409957,-6729773 -409955,-6729756 -409942,-6729726 -409920,-6729705 -409881,-6729670 -409864,-6729657 -409817,-6729619 -409808,-6729613 -409785,-6729594 -409771,-6729588 -409735,-6729585 -409645,-6729572 -409617,-6729570 -409591,-6729566 -409576,-6729562 -409560,-6729559 -409541,-6729551 -409514,-6729530 -409492,-6729505 -409432,-6729447 -409425,-6729437 -409412,-6729417 -409410,-6729411 -409412,-6729370 -409417,-6729324 -409424,-6729291 -409424,-6729234 -409419,-6729166 -409420,-6729157 -409418,-6729133 -409400,-6729094 -409399,-6729089 -409401,-6729077 -409411,-6729041 -409418,-6729037 -409424,-6729028 -409434,-6728983 -409445,-6728970 -409449,-6728972 -409455,-6728974 -409469,-6728920 -409490,-6728804 -409501,-6728746 -409504,-6728728 -409507,-6728687 -409516,-6728681 -409511,-6728661 -409513,-6728648 -409503,-6728631 -409509,-6728618 -409501,-6728615 -409493,-6728601 -409502,-6728590 -409493,-6728578 -409479,-6728565 -409472,-6728557 -409471,-6728550 -409472,-6728539 -409459,-6728537 -409457,-6728537 -409456,-6728535 -409452,-6728526 -409395,-6728492 -409379,-6728477 -409361,-6728464 -409354,-6728463 -409353,-6728452 -409349,-6728439 -409344,-6728432 -409337,-6728441 -409333,-6728445 -409322,-6728433 -409320,-6728425 -409318,-6728416 -409310,-6728408 -409314,-6728400 -409302,-6728391 -409292,-6728358 -409294,-6728356 -409311,-6728354 -409351,-6728354 -409364,-6728357 -409388,-6728355 -409401,-6728357 -409420,-6728365 -409421,-6728374 -409424,-6728394 -409426,-6728401 -409442,-6728414 -409470,-6728420 -409541,-6728432 -409576,-6728439 -409603,-6728457 -409633,-6728487 -409648,-6728500 -409659,-6728508 -409681,-6728515 -409704,-6728517 -409716,-6728532 -409742,-6728541 -409755,-6728558 -409793,-6728585 -409824,-6728598 -409831,-6728607 -409870,-6728615 -409882,-6728617 -409914,-6728625 -409974,-6728649 -410043,-6728673 -410088,-6728691 -410123,-6728703 -410148,-6728709 -410170,-6728710 -410202,-6728722 -410210,-6728726 -410213,-6728725 -410236,-6728723 -410250,-6728734 -410360,-6728756 -410453,-6728773 -410488,-6728779 -410543,-6728787 -410547,-6728777 -410549,-6728776 -410567,-6728784 -410595,-6728785 -410605,-6728785 -410673,-6728784 -410719,-6728791 -410749,-6728790 -410779,-6728781 -410835,-6728779 -410850,-6728770 -410872,-6728764 -410893,-6728751 -410904,-6728740 -410909,-6728727 -410916,-6728696 -410914,-6728679 -410910,-6728671 -410907,-6728656 -410925,-6728624 -410945,-6728562 -410952,-6728536 -410955,-6728499 -410953,-6728458 -410955,-6728380 -410953,-6728344 -410962,-6728296 -410973,-6728242 -410997,-6728175 -411004,-6728146 -411009,-6728112 -411013,-6728065 -411013,-6728042 -411012,-6727980 -411017,-6727936 -411018,-6727922 -411018,-6727878 -411021,-6727828 -411031,-6727830 -411035,-6727801 -411050,-6727752 -411075,-6727695 -411095,-6727658 -411135,-6727607 -411150,-6727580 -411175,-6727547 -411188,-6727522 -411200,-6727496 -411217,-6727464 -411226,-6727448 -411236,-6727410 -411239,-6727391 -411242,-6727369 -411242,-6727326 -411246,-6727277 -411247,-6727193 -411250,-6727152 -411257,-6727120 -411260,-6727093 -411258,-6727063 -411234,-6726988 -411194,-6726875 -411094,-6726598 -411033,-6726438 -410966,-6726247 -410931,-6726151 -410896,-6726055 -410843,-6725918 -410798,-6725793 -410776,-6725734 -410767,-6725715 -410763,-6725711 -410604,-6725647 -410399,-6725568 -410396,-6725564 -410379,-6725521 -410359,-6725484 -410355,-6725476 -410265,-6725332 -410193,-6725224 -410026,-6724942 -409959,-6724842 -409930,-6724792 -409913,-6724765 -409878,-6724721 -409860,-6724681 -409848,-6724658 -409806,-6724600 -409780,-6724566 -409739,-6724509 -409607,-6724268 -409508,-6724092 -409329,-6723773 -409326,-6723770 -409133,-6723680 -408986,-6723601 -408655,-6723439 -408598,-6723410 -408541,-6723382 -408440,-6723328 -408396,-6723302 -408353,-6723284 -408317,-6723260 -408314,-6723256 -408296,-6723161 -408275,-6723030 -408269,-6722963 -408241,-6722945 -408191,-6722924 -408171,-6722915 -408147,-6722908 -408114,-6722889 -408107,-6722886 -408090,-6722881 -408073,-6722871 -408048,-6722852 -408022,-6722845 -408005,-6722821 -407989,-6722787 -407964,-6722751 -407942,-6722733 -407924,-6722722 -407896,-6722711 -407860,-6722696 -407839,-6722686 -407825,-6722651 -407810,-6722629 -407773,-6722598 -407753,-6722583 -407734,-6722564 -407705,-6722529 -407674,-6722503 -407665,-6722477 -407642,-6722432 -407630,-6722423 -407630,-6722415 -407621,-6722405 -407623,-6722376 -407611,-6722342 -407607,-6722295 -407596,-6722255 -407587,-6722232 -407575,-6722226 -407565,-6722215 -407561,-6722200 -407554,-6722189 -407536,-6722168 -407518,-6722156 -407495,-6722147 -407457,-6722139 -407439,-6722127 -407437,-6722127 -407432,-6722129 -407425,-6722127 -407421,-6722124 -407414,-6722113 -407407,-6722109 -407388,-6722092 -407376,-6722084 -407369,-6722079 -407360,-6722066 -407352,-6722060 -407333,-6722052 -407323,-6722044 -407318,-6722038 -407310,-6722021 -407308,-6722018 -407303,-6722015 -407294,-6722014 -407292,-6722013 -407279,-6722000 -407273,-6721987 -407272,-6721987 -407266,-6721989 -407263,-6721989 -407248,-6721975 -407233,-6721967 -407225,-6721961 -407210,-6721959 -407190,-6721949 -407170,-6721942 -407161,-6721937 -407145,-6721938 -407109,-6721932 -407090,-6721931 -407081,-6721930 -407067,-6721926 -407050,-6721914 -407036,-6721905 -407020,-6721897 -406986,-6721879 -406981,-6721872 -406978,-6721869 -406971,-6721866 -406954,-6721854 -406929,-6721840 -406919,-6721836 -406910,-6721829 -406904,-6721821 -406893,-6721781 -406893,-6721765 -406898,-6721752 -406902,-6721732 -406902,-6721721 -406899,-6721704 -406899,-6721690 -406901,-6721688 -406930,-6721681 -406935,-6721678 -406938,-6721674 -406938,-6721646 -406937,-6721622 -406944,-6721619 -406963,-6721604 -406997,-6721571 -407048,-6721510 -407071,-6721485 -407081,-6721482 -407082,-6721481 -407107,-6721440 -407113,-6721432 -407118,-6721422 -407128,-6721409 -407144,-6721385 -407156,-6721363 -407181,-6721340 -407189,-6721333 -407197,-6721322 -407203,-6721313 -407222,-6721276 -407239,-6721231 -407251,-6721215 -407251,-6721212 -407243,-6721193 -407243,-6721191 -407247,-6721179 -407240,-6721141 -407241,-6721127 -407240,-6721121 -407233,-6721110 -407229,-6721100 -407227,-6721069 -407226,-6721065 -407223,-6721059 -407213,-6721045 -407209,-6721037 -407203,-6721002 -407203,-6720992 -407204,-6720985 -407207,-6720977 -407207,-6720975 -407190,-6720944 -407187,-6720942 -407169,-6720938 -407164,-6720935 -407157,-6720926 -407157,-6720920 -407161,-6720913 -407150,-6720914 -407145,-6720909 -407131,-6720885 -407122,-6720876 -407123,-6720861 -407112,-6720853 -407112,-6720852 -407115,-6720847 -407118,-6720843 -407109,-6720836 -407105,-6720824 -407096,-6720826 -407089,-6720828 -407087,-6720825 -407086,-6720820 -407096,-6720814 -407082,-6720788 -407073,-6720772 -406956,-6720678 -406836,-6720568 -406818,-6720558 -406812,-6720548 -406809,-6720529 -406795,-6720510 -406783,-6720504 -406769,-6720496 -406756,-6720478 -406740,-6720472 -406708,-6720461 -406662,-6720433 -406652,-6720430 -406621,-6720422 -406616,-6720418 -406599,-6720397 -406592,-6720391 -406586,-6720387 -406577,-6720384 -406576,-6720383 -406572,-6720371 -406563,-6720348 -406559,-6720342 -406550,-6720331 -406515,-6720298 -406500,-6720270 -406494,-6720260 -406489,-6720253 -406480,-6720248 -406478,-6720245 -406475,-6720241 -406471,-6720225 -406462,-6720208 -406455,-6720197 -406450,-6720191 -406434,-6720178 -406430,-6720172 -406426,-6720163 -406424,-6720154 -406422,-6720137 -406410,-6720111 -406393,-6720053 -406397,-6720042 -406402,-6720030 -406415,-6720009 -406416,-6720003 -406413,-6719970 -406405,-6719932 -406414,-6719839 -406415,-6719820 -406418,-6719800 -406417,-6719797 -406392,-6719765 -406383,-6719760 -406366,-6719753 -406363,-6719748 -406364,-6719744 -406366,-6719740 -406363,-6719708 -406351,-6719662 -406346,-6719649 -406329,-6719612 -406329,-6719610 -406334,-6719583 -406335,-6719571 -406348,-6719514 -406334,-6719431 -406334,-6719429 -406347,-6719397 -406356,-6719366 -406379,-6719340 -406380,-6719338 -406388,-6719292 -406398,-6719264 -406407,-6719230 -406407,-6719227 -406401,-6719219 -406399,-6719210 -406393,-6719191 -406392,-6719183 -406392,-6719167 -406397,-6719128 -406401,-6719118 -406405,-6719110 -406413,-6719101 -406435,-6719074 -406465,-6719046 -406489,-6719029 -406498,-6719014 -406496,-6719005 -406485,-6718994 -406485,-6718992 -406480,-6718988 -406480,-6718982 -406493,-6718980 -406500,-6718979 -406500,-6718971 -406494,-6718964 -406495,-6718961 -406509,-6718950 -406512,-6718936 -406508,-6718924 -406496,-6718925 -406492,-6718926 -406487,-6718920 -406490,-6718914 -406499,-6718894 -406495,-6718883 -406492,-6718870 -406496,-6718865 -406510,-6718862 -406526,-6718847 -406547,-6718831 -406542,-6718807 -406526,-6718805 -406516,-6718803 -406514,-6718801 -406498,-6718768 -406499,-6718762 -406509,-6718755 -406511,-6718744 -406508,-6718738 -406505,-6718732 -406523,-6718729 -406541,-6718723 -406533,-6718706 -406531,-6718669 -406524,-6718649 -406517,-6718639 -406508,-6718629 -406507,-6718626 -406512,-6718628 -406519,-6718627 -406524,-6718604 -406525,-6718602 -406524,-6718564 -406526,-6718559 -406528,-6718555 -406539,-6718546 -406557,-6718529 -406561,-6718522 -406559,-6718520 -406547,-6718514 -406545,-6718511 -406538,-6718485 -406538,-6718482 -406543,-6718477 -406544,-6718476 -406542,-6718454 -406542,-6718440 -406545,-6718420 -406548,-6718415 -406559,-6718406 -406561,-6718405 -406566,-6718406 -406571,-6718409 -406582,-6718406 -406586,-6718403 -406598,-6718383 -406601,-6718381 -406607,-6718377 -406636,-6718370 -406638,-6718369 -406640,-6718366 -406648,-6718361 -406644,-6718341 -406635,-6718318 -406621,-6718295 -406612,-6718238 -406617,-6718212 -406617,-6718199 -406614,-6718172 -406614,-6718167 -406616,-6718161 -406620,-6718155 -406639,-6718146 -406652,-6718137 -406682,-6718113 -406693,-6718098 -406700,-6718082 -406717,-6718060 -406722,-6718046 -406711,-6718025 -406707,-6718005 -406712,-6717981 -406729,-6717932 -406740,-6717911 -406744,-6717893 -406749,-6717880 -406762,-6717858 -406773,-6717847 -406784,-6717844 -406799,-6717839 -406800,-6717839 -406805,-6717835 -406802,-6717808 -406814,-6717766 -406816,-6717762 -406819,-6717759 -406829,-6717743 -406842,-6717738 -406876,-6717731 -406880,-6717730 -406886,-6717724 -406883,-6717715 -406864,-6717697 -406866,-6717687 -406868,-6717683 -406870,-6717679 -406880,-6717678 -406882,-6717678 -406892,-6717678 -406898,-6717673 -406890,-6717664 -406897,-6717658 -406913,-6717651 -406916,-6717649 -406917,-6717648 -406924,-6717641 -406926,-6717627 -406926,-6717625 -406945,-6717605 -406974,-6717595 -406984,-6717588 -406982,-6717569 -406984,-6717555 -406986,-6717545 -406988,-6717529 -406989,-6717499 -406996,-6717393 -406995,-6717378 -406990,-6717348 -407017,-6717276 -407027,-6717256 -407034,-6717245 -407043,-6717235 -407052,-6717226 -407060,-6717220 -407068,-6717216 -407162,-6717175 -407200,-6717137 -407210,-6717131 -407218,-6717127 -407231,-6717123 -407272,-6717123 -407307,-6717118 -407344,-6717113 -407381,-6717105 -407401,-6717090 -407424,-6717082 -407446,-6717081 -407457,-6717082 -407495,-6717088 -407505,-6717088 -407516,-6717087 -407548,-6717076 -407557,-6717073 -407579,-6717065 -407634,-6717063 -407641,-6717062 -407653,-6717058 -407665,-6717058 -407684,-6717078 -407687,-6717082 -407700,-6717089 -407713,-6717095 -407722,-6717093 -407745,-6717077 -407771,-6717072 -407797,-6717073 -407808,-6717072 -407828,-6717069 -407866,-6717061 -407883,-6717065 -407908,-6717074 -407920,-6717077 -407954,-6717084 -408011,-6717085 -408036,-6717082 -408061,-6717082 -408096,-6717093 -408114,-6717095 -408162,-6717097 -408190,-6717094 -408212,-6717090 -408215,-6717090 -408252,-6717096 -408273,-6717102 -408300,-6717105 -408323,-6717113 -408344,-6717124 -408361,-6717129 -408385,-6717129 -408395,-6717129 -408426,-6717133 -408449,-6717133 -408462,-6717135 -408517,-6717152 -408572,-6717161 -408605,-6717172 -408630,-6717177 -408655,-6717184 -408665,-6717177 -408671,-6717177 -408690,-6717182 -408748,-6717202 -408776,-6717209 -408796,-6717212 -408802,-6717211 -408826,-6717204 -408867,-6717205 -408894,-6717207 -408930,-6717210 -408959,-6717208 -408985,-6717189 -408993,-6717185 -409006,-6717186 -409038,-6717184 -409063,-6717198 -409071,-6717203 -409083,-6717201 -409105,-6717197 -409131,-6717190 -409146,-6717191 -409152,-6717195 -409169,-6717207 -409189,-6717202 -409211,-6717187 -409232,-6717164 -409251,-6717144 -409285,-6717127 -409322,-6717114 -409355,-6717108 -409388,-6717108 -409412,-6717103 -409434,-6717095 -409451,-6717094 -409465,-6717093 -409536,-6717096 -409571,-6717093 -409586,-6717090 -409601,-6717087 -409653,-6717073 -409713,-6717051 -409772,-6717035 -409793,-6717028 -409804,-6717033 -409815,-6717038 -409829,-6717035 -409845,-6717031 -409856,-6717034 -409874,-6717049 -409895,-6717060 -409910,-6717061 -409940,-6717060 -409963,-6717069 -409980,-6717072 -409997,-6717064 -410017,-6717055 -410036,-6717041 -410053,-6717024 -410081,-6717005 -410101,-6716994 -410114,-6716988 -410126,-6716972 -410127,-6716971 -410129,-6716969 -410138,-6716962 -410136,-6716950 -410127,-6716946 -410124,-6716942 -410124,-6716932 -410130,-6716923 -410141,-6716914 -410151,-6716904 -410154,-6716902 -410164,-6716898 -410172,-6716898 -410179,-6716910 -410202,-6716921 -410221,-6716924 -410223,-6716924 -410243,-6716912 -410252,-6716905 -410260,-6716906 -410268,-6716906 -410277,-6716904 -410280,-6716904 -410290,-6716908 -410299,-6716910 -410319,-6716902 -410330,-6716896 -410340,-6716898 -410353,-6716910 -410366,-6716918 -410384,-6716930 -410413,-6716935 -410449,-6716935 -410479,-6716931 -410500,-6716922 -410524,-6716915 -410525,-6716896 -410517,-6716879 -410510,-6716850 -410510,-6716848 -410515,-6716840 -410520,-6716832 -410540,-6716814 -410556,-6716797 -410557,-6716795 -410561,-6716783 -410572,-6716774 -410583,-6716767 -410594,-6716754 -410620,-6716739 -410626,-6716733 -410640,-6716714 -410665,-6716676 -410668,-6716661 -410673,-6716618 -410677,-6716608 -410681,-6716599 -410707,-6716562 -410720,-6716547 -410729,-6716522 -410734,-6716505 -410743,-6716492 -410746,-6716469 -410739,-6716454 -410735,-6716444 -410741,-6716432 -410741,-6716416 -410753,-6716405 -410754,-6716404 -410775,-6716393 -410799,-6716399 -410823,-6716395 -410828,-6716393 -410841,-6716373 -410843,-6716372 -410856,-6716376 -410878,-6716371 -410891,-6716355 -410894,-6716352 -410901,-6716349 -410910,-6716352 -410944,-6716372 -410972,-6716372 -411004,-6716384 -411041,-6716398 -411075,-6716404 -411099,-6716424 -411101,-6716424 -411142,-6716416 -411157,-6716420 -411191,-6716428 -411262,-6716441 -411291,-6716431 -411309,-6716426 -411316,-6716424 -411323,-6716415 -411326,-6716408 -411335,-6716387 -411351,-6716372 -411371,-6716354 -411388,-6716358 -411400,-6716361 -411403,-6716361 -411409,-6716358 -411413,-6716353 -411421,-6716342 -411430,-6716332 -411478,-6716331 -411486,-6716329 -411496,-6716316 -411499,-6716303 -411494,-6716279 -411492,-6716272 -411492,-6716246 -411502,-6716225 -411504,-6716219 -411517,-6716201 -411532,-6716184 -411543,-6716171 -411562,-6716170 -411575,-6716169 -411587,-6716164 -411593,-6716157 -411597,-6716147 -411598,-6716142 -411607,-6716134 -411623,-6716111 -411632,-6716087 -411638,-6716082 -411637,-6716057 -411629,-6716043 -411622,-6716032 -411613,-6715994 -411605,-6715960 -411592,-6715925 -411583,-6715908 -411577,-6715897 -411572,-6715874 -411558,-6715853 -411538,-6715831 -411500,-6715799 -411473,-6715780 -411470,-6715776 -411467,-6715768 -411465,-6715762 -411466,-6715760 -411467,-6715757 -411472,-6715753 -411494,-6715744 -411516,-6715729 -411555,-6715690 -411580,-6715667 -411592,-6715652 -411611,-6715627 -411611,-6715606 -411609,-6715584 -411609,-6715583 -411609,-6715566 -411614,-6715561 -411662,-6715528 -411697,-6715496 -411711,-6715491 -411746,-6715484 -411754,-6715480 -411758,-6715477 -411758,-6715475 -411759,-6715458 -411762,-6715437 -411771,-6715420 -411781,-6715414 -411796,-6715405 -411803,-6715390 -411809,-6715370 -411819,-6715359 -411832,-6715342 -411866,-6715325 -411899,-6715289 -411921,-6715272 -411963,-6715248 -411972,-6715237 -412021,-6715175 -412044,-6715153 -412063,-6715145 -412093,-6715141 -412123,-6715141 -412144,-6715134 -412156,-6715125 -412192,-6715097 -412201,-6715091 -412211,-6715084 -412230,-6715078 -412238,-6715078 -412248,-6715080 -412291,-6715106 -412330,-6715127 -412346,-6715135 -412363,-6715134 -412370,-6715130 -412384,-6715110 -412396,-6715116 -412398,-6715118 -412400,-6715119 -412399,-6715121 -412394,-6715130 -412387,-6715151 -412428,-6715169 -412484,-6715193 -412521,-6715211 -412559,-6715232 -412690,-6715299 -412725,-6715316 -412804,-6715348 -412869,-6715373 -412974,-6715423 -412996,-6715431 -413094,-6715475 -413097,-6715477 -413109,-6715462 -413121,-6715447 -413131,-6715451 -413141,-6715456 -413139,-6715460 -413137,-6715464 -413134,-6715471 -413130,-6715481 -413129,-6715482 -413139,-6715489 -413190,-6715512 -413193,-6715515 -413197,-6715549 -413202,-6715570 -413211,-6715588 -413227,-6715601 -413249,-6715613 -413273,-6715618 -413284,-6715620 -413318,-6715622 -413339,-6715626 -413357,-6715636 -413370,-6715646 -413388,-6715653 -413411,-6715655 -413441,-6715665 -413511,-6715680 -413556,-6715691 -413595,-6715695 -413692,-6715723 -413796,-6715753 -413870,-6715770 -414009,-6715798 -414063,-6715807 -414107,-6715809 -414158,-6715810 -414217,-6715814 -414253,-6715819 -414315,-6715831 -414313,-6715817 -414347,-6715820 -414347,-6715788 -414348,-6715786 -414358,-6715786 -414384,-6715786 -414438,-6715781 -414505,-6715773 -414557,-6715760 -414590,-6715749 -414777,-6715704 -414848,-6715689 -414927,-6715676 -415021,-6715658 -415059,-6715657 -415085,-6715663 -415116,-6715666 -415140,-6715670 -415162,-6715675 -415225,-6715697 -415309,-6715726 -415356,-6715742 -415387,-6715755 -415425,-6715764 -415497,-6715793 -415540,-6715809 -415653,-6715847 -415757,-6715886 -415816,-6715909 -415859,-6715929 -415895,-6715947 -415920,-6715963 -415977,-6716009 -416000,-6716030 -416026,-6716057 -416080,-6716118 -416102,-6716145 -416164,-6716223 -416187,-6716248 -416212,-6716258 -416224,-6716263 -416265,-6716288 -416294,-6716308 -416320,-6716322 -416367,-6716341 -416419,-6716368 -416451,-6716387 -416467,-6716397 -416510,-6716429 -416540,-6716443 -416571,-6716465 -416590,-6716491 -416617,-6716525 -416651,-6716575 -416677,-6716616 -416740,-6716701 -416776,-6716748 -416788,-6716763 -416796,-6716775 -416800,-6716777 -416808,-6716782 -416819,-6716785 -416842,-6716777 -416893,-6716755 -416919,-6716752 -416942,-6716755 -416964,-6716760 -416979,-6716759 -416994,-6716757 -417004,-6716754 -417016,-6716752 -417034,-6716757 -417055,-6716769 -417071,-6716777 -417096,-6716779 -417118,-6716775 -417136,-6716771 -417147,-6716771 -417174,-6716759 -417192,-6716754 -417210,-6716751 -417225,-6716743 -417232,-6716729 -417249,-6716715 -417256,-6716710 -417267,-6716700 -417271,-6716661 -417280,-6716639 -417290,-6716615 -417290,-6716599 -417292,-6716598 -417310,-6716587 -417324,-6716583 -417395,-6716576 -417432,-6716580 -417464,-6716570 -417480,-6716568 -417502,-6716563 -417559,-6716560 -417598,-6716558 -417611,-6716557 -417616,-6716560 -417629,-6716566 -417650,-6716572 -417673,-6716575 -417682,-6716570 -417687,-6716560 -417689,-6716552 -417684,-6716544 -417672,-6716537 -417671,-6716536 -417668,-6716532 -417668,-6716527 -417683,-6716520 -417701,-6716510 -417715,-6716502 -417730,-6716496 -417740,-6716489 -417747,-6716483 -417756,-6716482 -417768,-6716475 -417770,-6716460 -417749,-6716439 -417738,-6716410 -417738,-6716380 -417730,-6716348 -417720,-6716310 -417721,-6716309 -417716,-6716295 -417715,-6716274 -417723,-6716260 -417734,-6716252 -417750,-6716250 -417761,-6716255 -417767,-6716263 -417775,-6716282 -417787,-6716294 -417797,-6716298 -417802,-6716286 -417800,-6716254 -417802,-6716226 -417815,-6716191 -417832,-6716165 -417838,-6716153 -417854,-6716129 -417869,-6716122 -417896,-6716117 -417908,-6716120 -417937,-6716146 -417957,-6716166 -417975,-6716189 -417995,-6716198 -418021,-6716204 -418051,-6716210 -418083,-6716209 -418192,-6716194 -418203,-6716183 -418212,-6716178 -418237,-6716180 -418263,-6716177 -418302,-6716177 -418346,-6716173 -418382,-6716172 -418389,-6716179 -418399,-6716199 -418403,-6716226 -418395,-6716260 -418380,-6716314 -418360,-6716354 -418347,-6716387 -418336,-6716408 -418333,-6716415 -418328,-6716434 -418329,-6716439 -418333,-6716455 -418336,-6716470 -418347,-6716480 -418366,-6716490 -418380,-6716504 -418390,-6716511 -418410,-6716540 -418450,-6716596 -418489,-6716635 -418516,-6716644 -418530,-6716638 -418539,-6716624 -418548,-6716611 -418549,-6716611 -418561,-6716594 -418575,-6716581 -418606,-6716570 -418632,-6716572 -418641,-6716579 -418645,-6716582 -418656,-6716616 -418664,-6716641 -418669,-6716651 -418676,-6716667 -418681,-6716677 -418687,-6716690 -418690,-6716698 -418702,-6716715 -418721,-6716731 -418734,-6716746 -418767,-6716782 -418784,-6716784 -418842,-6716763 -418860,-6716757 -418868,-6716754 -418895,-6716750 -418953,-6716746 -418984,-6716780 -419007,-6716785 -419034,-6716783 -419098,-6716804 -419165,-6716780 -419217,-6716764 -419277,-6716743 -419324,-6716732 -419410,-6716697 -419557,-6716648 -419659,-6716613 -419660,-6716615 -419665,-6716633 -419670,-6716651 -419677,-6716682 -419688,-6716751 -419689,-6716754 -419690,-6716763 -419691,-6716771 -419693,-6716779 -419694,-6716780 -419695,-6716786 -419697,-6716791 -419700,-6716797 -419702,-6716801 -419703,-6716804 -419705,-6716807 -419707,-6716809 -419721,-6716818 -419726,-6716821 -419731,-6716823 -419736,-6716826 -419742,-6716829 -419743,-6716831 -419747,-6716834 -419751,-6716837 -419754,-6716841 -419757,-6716845 -419760,-6716849 -419763,-6716853 -419765,-6716859 -419767,-6716869 -419769,-6716879 -419770,-6716888 -419771,-6716898 -419771,-6716909 -419772,-6716963 -419770,-6717024 -419771,-6717029 -419775,-6717054 -419775,-6717060 -419776,-6717070 -419777,-6717080 -419779,-6717087 -419781,-6717097 -419784,-6717107 -419792,-6717173 -419803,-6717254 -419814,-6717334 -419815,-6717381 -419820,-6717438 -419820,-6717442 -419822,-6717464 -419825,-6717487 -419829,-6717509 -419829,-6717511 -419831,-6717521 -419833,-6717531 -419835,-6717541 -419838,-6717550 -419839,-6717553 -419842,-6717561 -419846,-6717569 -419852,-6717581 -419866,-6717602 -419874,-6717614 -419883,-6717629 -419887,-6717638 -419892,-6717649 -419894,-6717653 -419899,-6717664 -419915,-6717711 -419950,-6717793 -419952,-6717798 -419955,-6717804 -419955,-6717805 -419962,-6717816 -419969,-6717827 -419971,-6717829 -419976,-6717835 -419986,-6717847 -419991,-6717853 -419995,-6717859 -419999,-6717865 -420002,-6717872 -420005,-6717881 -420008,-6717894 -420027,-6717935 -420029,-6717940 -420036,-6717958 -420044,-6717975 -420052,-6717993 -420078,-6718038 -420091,-6718061 -420109,-6718093 -420117,-6718105 -420144,-6718147 -420145,-6718149 -420151,-6718157 -420157,-6718164 -420162,-6718172 -420167,-6718181 -420171,-6718188 -420175,-6718197 -420178,-6718206 -420218,-6718301 -420234,-6718340 -420263,-6718387 -420298,-6718444 -420298,-6718445 -420310,-6718462 -420321,-6718480 -420332,-6718498 -420339,-6718511 -420348,-6718529 -420356,-6718548 -420357,-6718550 -420365,-6718572 -420372,-6718594 -420378,-6718613 -420387,-6718647 -420390,-6718660 -420398,-6718703 -420400,-6718709 -420404,-6718737 -420409,-6718765 -420412,-6718779 -420418,-6718806 -420433,-6718854 -420433,-6718854 -420438,-6718875 -420444,-6718895 -420450,-6718915 -420454,-6718926 -420459,-6718938 -420464,-6718949 -420467,-6718961 -420473,-6718982 -420477,-6719002 -420492,-6719080 -420512,-6719149 -420515,-6719159 -420524,-6719189 -420532,-6719210 -420545,-6719238 -420550,-6719249 -420560,-6719280 -420564,-6719294 -420574,-6719322 -420575,-6719325 -420580,-6719337 -420585,-6719349 -420590,-6719361 -420596,-6719372 -420597,-6719375 -420603,-6719385 -420604,-6719386 -420611,-6719397 -420619,-6719407 -420638,-6719459 -420651,-6719494 -420668,-6719535 -420671,-6719541 -420685,-6719574 -420701,-6719607 -420721,-6719646 -420735,-6719671 -420764,-6719721 -420820,-6719825 -420891,-6719969 -420928,-6720033 -420930,-6720037 -421012,-6720193 -421017,-6720206 -421031,-6720239 -421047,-6720272 -421064,-6720304 -421081,-6720336 -421084,-6720341 -421090,-6720351 -421095,-6720361 -421101,-6720370 -421106,-6720376 -421124,-6720396 -421127,-6720399 -421137,-6720412 -421148,-6720425 -421157,-6720439 -421186,-6720490 -421192,-6720502 -421224,-6720557 -421228,-6720565 -421234,-6720575 -421240,-6720584 -421245,-6720594 -421250,-6720604 -421254,-6720614 -421257,-6720623 -421261,-6720637 -421262,-6720645 -421265,-6720659 -421267,-6720673 -421269,-6720680 -421272,-6720690 -421275,-6720700 -421279,-6720710 -421281,-6720715 -421294,-6720739 -421299,-6720747 -421332,-6720799 -421337,-6720807 -421352,-6720829 -421368,-6720850 -421383,-6720872 -421397,-6720895 -421399,-6720899 -421414,-6720929 -421427,-6720960 -421440,-6720991 -421455,-6721022 -421472,-6721051 -421513,-6721116 -421542,-6721168 -421549,-6721179 -421574,-6721225 -421596,-6721262 -421638,-6721326 -421648,-6721341 -421707,-6721426 -421711,-6721431 -421775,-6721519 -421830,-6721598 -421861,-6721635 -421924,-6721755 -421957,-6721801 -421974,-6721829 -421992,-6721865 -422023,-6721917 -422071,-6722007 -422103,-6722058 -422114,-6722074 -422140,-6722106 -422186,-6722167 -422255,-6722251 -422311,-6722314 -422345,-6722349 -422367,-6722376 -422389,-6722400 -422420,-6722460 -422427,-6722470 -422440,-6722488 -422484,-6722540 -422513,-6722563 -422521,-6722568 -422540,-6722570 -422549,-6722570 -422567,-6722569 -422578,-6722567 -422598,-6722558 -422631,-6722546 -422656,-6722535 -422696,-6722516 -422777,-6722491 -422864,-6722472 -422894,-6722467 -422956,-6722458 -423006,-6722455 -423068,-6722463 -423117,-6722474 -423190,-6722482 -423221,-6722489 -423275,-6722508 -423312,-6722515 -423410,-6722549 -423479,-6722570 -423493,-6722575 -423528,-6722591 -423557,-6722601 -423568,-6722605 -423601,-6722611 -423643,-6722629 -423723,-6722654 -423794,-6722674 -423874,-6722687 -423948,-6722705 -424041,-6722745 -424117,-6722780 -424224,-6722849 -424286,-6722901 -424339,-6722949 -424386,-6722981 -424455,-6723037 -424565,-6723139 -424761,-6723304 -424877,-6723406 -424939,-6723470 -424964,-6723515 -424963,-6723555 -424961,-6723682 -424953,-6723825 -424953,-6723961 -424939,-6724240 -424928,-6724389 -424932,-6724444 -424922,-6724484 -424897,-6724515 -424847,-6724568 -424750,-6724649 -424687,-6724685 -424663,-6724697 -424638,-6724709 -424525,-6724761 -424500,-6724791 -424485,-6724803 -424459,-6724812 -424431,-6724818 -424372,-6724824 -424278,-6724825 -424261,-6724836 -424231,-6724842 -424217,-6724843 -424204,-6724842 -424190,-6724839 -424144,-6724827 -424090,-6724823 -424060,-6724843 -424119,-6724928 -424208,-6725055 -424214,-6725070 -424233,-6725074 -424246,-6725082 -424243,-6725094 -424165,-6725089 -424165,-6725092 -424169,-6725132 -424208,-6725183 -424227,-6725197 -424254,-6725208 -424269,-6725204 -424269,-6725182 -424272,-6725164 -424286,-6725146 -424305,-6725141 -424334,-6725151 -424355,-6725174 -424360,-6725189 -424341,-6725235 -424300,-6725323 -424297,-6725343 -424328,-6725395 -424394,-6725478 -424423,-6725532 -424443,-6725577 -424458,-6725599 -424566,-6725691 -424734,-6725829 -424831,-6725914 -424888,-6725974 -425001,-6726095 -425056,-6726156 -425123,-6726234 -425213,-6726331 -425375,-6726496 -425397,-6726524 -425452,-6726594 -425629,-6726784 -425733,-6726885 -425817,-6726961 -425914,-6727058 -426017,-6727156 -426257,-6727363 -426309,-6727412 -426404,-6727500 -426530,-6727606 -426620,-6727695 -426670,-6727743 -426799,-6727859 -426892,-6727950 -426943,-6727998 -427029,-6728089 -427197,-6728236 -427408,-6728396 -427596,-6728545 -427677,-6728613 -427684,-6728619 -427804,-6728705 -427894,-6728780 -427941,-6728818 -427988,-6728850 -428022,-6728870 -428120,-6728909 -428177,-6728923 -428214,-6728935 -428319,-6728992 -428399,-6729024 -428436,-6729041 -428512,-6729090 -428628,-6729147 -428907,-6729278 -428958,-6729298 -428985,-6729315 -429008,-6729326 -429032,-6729337 -429091,-6729354 -429205,-6729377 -429305,-6729394 -429397,-6729394 -429486,-6729390 -429621,-6729326 -429721,-6729294 -429735,-6729280 -429725,-6729274 -429712,-6729272 -429706,-6729270 -429700,-6729266 -429689,-6729256 -429689,-6729237 -429696,-6729227 -429734,-6729178 -429773,-6729123 -429797,-6729095 -429846,-6729045 -429879,-6729018 -429920,-6728997 -429940,-6728989 -429960,-6728982 -429989,-6728982 -430021,-6729000 -430065,-6729028 -430099,-6729045 -430134,-6729053 -430158,-6729051 -430190,-6729035 -430234,-6729017 -430279,-6729006 -430337,-6729012 -430364,-6729011 -430389,-6729009 -430412,-6729006 -430427,-6728999 -430449,-6728980 -430584,-6728821 -430695,-6728702 -430757,-6728630 -430771,-6728624 -430793,-6728646 -430815,-6728643 -430829,-6728619 -430832,-6728609 -430834,-6728599 -430834,-6728574 -430837,-6728555 -430860,-6728533 -430894,-6728528 -431030,-6728522 -431115,-6728514 -431150,-6728508 -431155,-6728503 -431183,-6728498 -431262,-6728524 -431291,-6728548 -431311,-6728568 -431326,-6728587 -431364,-6728660 -431380,-6728707 -431391,-6728759 -431393,-6728788 -431395,-6728817 -431391,-6728921 -431391,-6728977 -431387,-6729035 -431411,-6729114 -431451,-6729191 -431471,-6729214 -431516,-6729252 -431530,-6729275 -431533,-6729307 -431530,-6729375 -431520,-6729401 -431510,-6729413 -431495,-6729418 -431482,-6729419 -431441,-6729423 -431413,-6729426 -431358,-6729432 -431324,-6729452 -431314,-6729463 -431307,-6729467 -431302,-6729465 -431284,-6729454 -431266,-6729448 -431249,-6729459 -431225,-6729495 -431219,-6729521 -431219,-6729526 -431220,-6729530 -431229,-6729541 -431259,-6729558 -431270,-6729564 -431276,-6729576 -431276,-6729584 -431269,-6729589 -431226,-6729595 -431205,-6729600 -431145,-6729596 -431145,-6729625 -431148,-6729630 -431152,-6729635 -431162,-6729645 -431181,-6729655 -431198,-6729660 -431222,-6729662 -431280,-6729653 -431424,-6729610 -431616,-6729547 -431662,-6729545 -431727,-6729547 -431768,-6729545 -431778,-6729547 -431807,-6729534 -431818,-6729531 -431826,-6729530 -431833,-6729529 -431842,-6729530 -431852,-6729532 -431859,-6729535 -431913,-6729564 -431953,-6729592 -431961,-6729596 -431966,-6729597 -431977,-6729597 -431987,-6729595 -432014,-6729583 -432033,-6729571 -432039,-6729566 -432056,-6729552 -432073,-6729532 -432100,-6729511 -432135,-6729512 -432152,-6729515 -432168,-6729518 -432188,-6729523 -432210,-6729531 -432221,-6729536 -432243,-6729552 -432282,-6729575 -432327,-6729606 -432343,-6729615 -432358,-6729622 -432376,-6729629 -432398,-6729645 -432452,-6729677 -432531,-6729737 -432541,-6729753 -432563,-6729772 -432566,-6729786 -432569,-6729792 -432572,-6729798 -432580,-6729809 -432586,-6729816 -432591,-6729818 -432596,-6729820 -432659,-6729822 -432672,-6729826 -432743,-6729869 -432794,-6729894 -432846,-6729929 -432867,-6729939 -432877,-6729945 -432891,-6729958 -432904,-6730002 -432914,-6730014 -432918,-6730020 -432923,-6730029 -432927,-6730041 -432929,-6730049 -432929,-6730053 -432921,-6730075 -432920,-6730081 -432919,-6730092 -432919,-6730103 -432925,-6730119 -432951,-6730165 -432961,-6730197 -432967,-6730217 -432976,-6730256 -432977,-6730265 -432974,-6730292 -432973,-6730316 -432970,-6730335 -432964,-6730354 -432961,-6730364 -432945,-6730393 -432914,-6730428 -432905,-6730440 -432871,-6730504 -432867,-6730517 -432861,-6730526 -432856,-6730531 -432846,-6730538 -432829,-6730553 -432819,-6730559 -432814,-6730560 -432787,-6730565 -432759,-6730571 -432734,-6730583 -432699,-6730588 -432544,-6730589 -432492,-6730591 -432492,-6730606 -432512,-6730610 -432525,-6730615 -432532,-6730617 -432547,-6730618 -432566,-6730615 -432578,-6730618 -432584,-6730619 -432589,-6730618 -432604,-6730615 -432604,-6730659 -432602,-6730726 -432613,-6731236 -432613,-6731264 -432613,-6731265 -432614,-6731393 -432626,-6731700 -432652,-6731714 -432730,-6731767 -432843,-6731840 -432961,-6731939 -433028,-6731967 -433112,-6731982 -433089,-6731991 -433046,-6732012 -433009,-6732015 -432980,-6732016 -432946,-6732020 -432928,-6732024 -432905,-6732031 -432889,-6732037 -432884,-6732040 -432976,-6732362 -432971,-6732382 -432960,-6732446 -432858,-6732889 -432737,-6733399 -432669,-6733724 -432674,-6733739 -432678,-6733771 -432681,-6733790 -432711,-6733962 -432701,-6734226 -432269,-6735067 -432088,-6735479 -431935,-6735710 -431907,-6735773 -431856,-6735877 -431803,-6735979 -431718,-6736125 -431666,-6736225 -431640,-6736263 -431616,-6736290 -431584,-6736335 -431498,-6736477 -431487,-6736504 -431456,-6736574 -431440,-6736626 -431438,-6736667 -431437,-6736681 -431433,-6736697 -431416,-6736746 -431391,-6736793 -431381,-6736796 -431354,-6736832 -431339,-6736861 -431308,-6736937 -431298,-6736956 -431292,-6736975 -431294,-6736993 -431317,-6737033 -431335,-6737090 -431332,-6737120 -431343,-6737142 -431340,-6737157 -431342,-6737164 -431350,-6737182 -431344,-6737197 -431336,-6737208 -431325,-6737263 -431316,-6737275 -431302,-6737279 -431293,-6737284 -431291,-6737298 -431284,-6737311 -431279,-6737341 -431283,-6737353 -431294,-6737367 -431297,-6737387 -431289,-6737430 -431285,-6737464 -431284,-6737480 -431292,-6737490 -431303,-6737497 -431353,-6737509 -431369,-6737523 -431373,-6737531 -431382,-6737553 -431391,-6737562 -431394,-6737576 -431400,-6737587 -431403,-6737593 -431403,-6737595 -431404,-6737599 -431406,-6737613 -431415,-6737631 -431412,-6737657 -431426,-6737674 -431422,-6737689 -431408,-6737691 -431398,-6737694 -431405,-6737719 -431397,-6737745 -431395,-6737753 -431402,-6737768 -431410,-6737799 -431404,-6737835 -431410,-6737853 -431412,-6737878 -431412,-6737891 -431409,-6737933 -431409,-6737944 -431410,-6737955 -431416,-6737982 -431416,-6737997 -431415,-6738012 -431408,-6738055 -431396,-6738106 -431392,-6738148 -431401,-6738167 -431416,-6738194 -431416,-6738224 -431411,-6738251 -431409,-6738275 -431418,-6738295 -431419,-6738328 -431419,-6738330 -431395,-6738351 -431400,-6738392 -431394,-6738404 -431393,-6738422 -431389,-6738440 -431355,-6738468 -431317,-6738493 -431296,-6738512 -431280,-6738515 -431258,-6738526 -431221,-6738531 -431167,-6738532 -431153,-6738520 -431070,-6738535 -430929,-6738554 -430925,-6738582 -430926,-6738614 -430861,-6738600 -430742,-6738580 -430692,-6738573 -430700,-6738786 -430686,-6738813 -430680,-6738835 -430682,-6738883 -430681,-6738917 -430677,-6738934 -430669,-6738970 -430652,-6739032 -430643,-6739055 -430636,-6739076 -430614,-6739090 -430581,-6739145 -430562,-6739161 -430537,-6739170 -430518,-6739182 -430492,-6739210 -430486,-6739218 -430491,-6739244 -430487,-6739280 -430474,-6739320 -430432,-6739485 -430409,-6739559 -430393,-6739602 -430374,-6739632 -430349,-6739656 -430316,-6739678 -430268,-6739696 -430242,-6739703 -430216,-6739709 -430193,-6739678 -430172,-6739745 -430161,-6739754 -430192,-6739787 -430222,-6739817 -430247,-6739849 -430277,-6739881 -430212,-6740097 -430186,-6740165 -430156,-6740215 -430128,-6740246 -430156,-6740373 -430170,-6740398 -430174,-6740423 -430184,-6740453 -430205,-6740525 -430150,-6740554 -430115,-6740580 -430091,-6740613 -430086,-6740626 -430083,-6740645 -430079,-6740655 -430025,-6740695 -430000,-6740715 -429970,-6740731 -429901,-6740754 -429790,-6740783 -429716,-6740933 -429723,-6740945 -429710,-6740966 -429617,-6741025 -429554,-6741066 -429479,-6741018 -429453,-6741040 -429430,-6741063 -429388,-6741064 -429362,-6741066 -429345,-6741065 -429298,-6741092 -429269,-6741107 -429225,-6741109 -429208,-6741118 -429174,-6741145 -429096,-6741216 -429075,-6741234 -429029,-6741271 -428994,-6741302 -428987,-6741297 -428976,-6741304 -428945,-6741333 -428857,-6741428 -428804,-6741483 -428770,-6741518 -428740,-6741557 -428699,-6741641 -428670,-6741714 -428642,-6741775 -428598,-6741885 -428577,-6741928 -428544,-6742006 -428517,-6742078 -428502,-6742115 -428465,-6742202 -428445,-6742250 -428409,-6742327 -428378,-6742400 -428341,-6742492 -428323,-6742556 -428318,-6742600 -428318,-6742650 -428323,-6742714 -428326,-6742769 -428331,-6742820 -428334,-6742837 -428364,-6742940 -428381,-6743098 -428404,-6743225 -428405,-6743237 -428404,-6743263 -428405,-6743296 -428393,-6743375 -428382,-6743430 -428370,-6743477 -428363,-6743510 -428306,-6743593 -428290,-6743652 -428278,-6743727 -428274,-6743756 -428260,-6743753 -428245,-6743773 -428215,-6743811 -428193,-6743835 -428183,-6743848 -428173,-6743861 -428160,-6743891 -428160,-6743901 -428162,-6743920 -428163,-6743930 -428169,-6743950 -428178,-6743971 -428182,-6743984 -428185,-6743998 -428190,-6744030 -428198,-6744066 -428215,-6744115 -428238,-6744173 -428243,-6744194 -428245,-6744211 -428246,-6744226 -428245,-6744235 -428244,-6744244 -428239,-6744264 -428232,-6744287 -428227,-6744302 -428220,-6744316 -428211,-6744335 -428168,-6744403 -428122,-6744480 -428107,-6744512 -428090,-6744557 -428079,-6744589 -428072,-6744657 -428067,-6744715 -428067,-6744741 -428043,-6744807 -428036,-6744822 -428025,-6744850 -427974,-6744968 -427969,-6744986 -427969,-6745041 -427971,-6745112 -427972,-6745159 -427969,-6745175 -427960,-6745227 -427951,-6745256 -427935,-6745292 -427926,-6745324 -427918,-6745341 -427904,-6745354 -427885,-6745367 -427892,-6745379 -427843,-6745424 -427844,-6745490 -427850,-6745542 -427850,-6745548 -427772,-6745568 -427772,-6745589 -427780,-6745591 -427794,-6745600 -427805,-6745618 -427813,-6745649 -427813,-6745679 -427810,-6745720 -427821,-6745728 -427830,-6745739 -427859,-6745733 -427871,-6745732 -427882,-6745731 -427914,-6745733 -427937,-6745733 -427949,-6745731 -427963,-6745728 -427977,-6745724 -428000,-6745716 -428017,-6745720 -428056,-6745734 -428102,-6745757 -428146,-6745776 -428170,-6745806 -428193,-6745830 -428201,-6745842 -428207,-6745849 -428219,-6745861 -428225,-6745866 -428234,-6745861 -428270,-6745841 -428283,-6745859 -428323,-6745943 -428334,-6745954 -428345,-6745968 -428375,-6746025 -428398,-6746060 -428419,-6746096 -428428,-6746113 -428483,-6746106 -428506,-6746092 -428548,-6746070 -428593,-6746059 -428624,-6746053 -428649,-6746032 -428683,-6746023 -428681,-6745966 -428682,-6745794 -428681,-6745730 -428721,-6745752 -428756,-6745757 -428789,-6745762 -428820,-6745764 -428851,-6745765 -428856,-6745750 -428862,-6745718 -428882,-6745727 -428905,-6745743 -428929,-6745734 -428973,-6745710 -429002,-6745689 -429045,-6745652 -429073,-6745629 -429096,-6745611 -429102,-6745611 -429127,-6745618 -429150,-6745619 -429167,-6745619 -429190,-6745617 -429208,-6745615 -429220,-6745612 -429230,-6745609 -429239,-6745605 -429247,-6745600 -429255,-6745593 -429268,-6745578 -429284,-6745552 -429298,-6745574 -429291,-6745587 -429266,-6745623 -429280,-6745644 -429291,-6745664 -429306,-6745704 -429316,-6745715 -429333,-6745725 -429357,-6745743 -429367,-6745742 -429369,-6745745 -429375,-6745765 -429371,-6745799 -429373,-6745816 -429351,-6745818 -429317,-6745825 -429287,-6745815 -429264,-6745944 -429250,-6745972 -429211,-6746070 -429212,-6746113 -429213,-6746127 -429243,-6746149 -429275,-6746175 -429299,-6746198 -429350,-6746264 -429393,-6746225 -429417,-6746199 -429414,-6746180 -429410,-6746161 -429380,-6746133 -429380,-6746116 -429416,-6746136 -429419,-6746138 -429439,-6746150 -429450,-6746163 -429464,-6746165 -429478,-6746172 -429493,-6746185 -429524,-6746221 -429530,-6746224 -429552,-6746230 -429561,-6746225 -429589,-6746246 -429602,-6746254 -429617,-6746292 -429625,-6746301 -429626,-6746306 -429627,-6746312 -429629,-6746346 -429636,-6746354 -429645,-6746360 -429725,-6746394 -429755,-6746409 -429755,-6746409 -429782,-6746424 -429746,-6746425 -429732,-6746437 -429716,-6746461 -429731,-6746478 -429782,-6746532 -429820,-6746594 -429811,-6746627 -429804,-6746647 -429843,-6746639 -429902,-6746652 -429910,-6746653 -429925,-6746652 -429935,-6746651 -429950,-6746647 -429979,-6746641 -429972,-6746714 -429966,-6746762 -429965,-6746775 -430028,-6746821 -430051,-6746839 -430101,-6746879 -430117,-6746889 -430125,-6746900 -430124,-6746910 -430123,-6746916 -430123,-6746917 -430122,-6746925 -430121,-6746933 -430129,-6746943 -430137,-6746953 -430136,-6746963 -430136,-6746970 -430152,-6746957 -430161,-6746957 -430172,-6746956 -430187,-6746969 -430200,-6746973 -430223,-6746873 -430230,-6746848 -430265,-6746765 -430274,-6746732 -430287,-6746711 -430310,-6746667 -430336,-6746632 -430366,-6746603 -430446,-6746551 -430490,-6746544 -430517,-6746543 -430548,-6746544 -430578,-6746547 -430587,-6746552 -430620,-6746567 -430652,-6746573 -430691,-6746575 -430762,-6746585 -430809,-6746584 -430818,-6746584 -430837,-6746582 -430873,-6746588 -430888,-6746591 -430918,-6746594 -430942,-6746594 -430965,-6746572 -431010,-6746512 -431065,-6746436 -431070,-6746429 -431121,-6746472 -431135,-6746499 -431137,-6746502 -431140,-6746505 -431194,-6746563 -431214,-6746585 -431237,-6746561 -431345,-6746664 -431353,-6746656 -431434,-6746736 -431453,-6746753 -431476,-6746773 -431472,-6746778 -431419,-6746833 -431352,-6746901 -431286,-6746973 -431230,-6747040 -431181,-6747092 -431137,-6747145 -431103,-6747185 -431199,-6747275 -431202,-6747282 -431223,-6747350 -431248,-6747439 -431247,-6747451 -431248,-6747461 -431257,-6747470 -431270,-6747561 -431278,-6747640 -431277,-6747655 -431316,-6747692 -431342,-6747721 -431365,-6747733 -431386,-6747742 -431405,-6747759 -431424,-6747777 -431449,-6747809 -431474,-6747836 -431485,-6747842 -431506,-6747842 -431516,-6747849 -431552,-6747880 -431585,-6747910 -431619,-6747942 -431647,-6747961 -431682,-6747978 -431713,-6748006 -431756,-6748044 -431798,-6748085 -431825,-6748110 -431840,-6748134 -431851,-6748143 -431863,-6748152 -431916,-6748177 -431952,-6748186 -431960,-6748199 -432010,-6748355 -432053,-6748480 -432063,-6748511 -431992,-6748587 -431972,-6748625 -431926,-6748736 -431908,-6748759 -431880,-6748780 -431794,-6748842 -431775,-6748858 -431775,-6748858 -431800,-6748937 -431816,-6748984 -431843,-6749030 -431863,-6749080 -431869,-6749112 -431870,-6749119 -431876,-6749140 -431930,-6749287 -431946,-6749341 -431962,-6749412 -431988,-6749504 -432002,-6749553 -432008,-6749568 -432021,-6749620 -432025,-6749664 -432038,-6749683 -432059,-6749706 -432066,-6749714 -432070,-6749728 -432069,-6749745 -432072,-6749751 -432082,-6749763 -432122,-6749811 -432159,-6749850 -432202,-6749903 -432214,-6749915 -432253,-6749957 -432271,-6749972 -432303,-6750004 -432310,-6750006 -432348,-6750041 -432374,-6750060 -432421,-6750100 -432430,-6750107 -432450,-6750117 -432479,-6750134 -432549,-6750147 -432619,-6750163 -432614,-6750175 -432595,-6750171 -432560,-6750164 -432521,-6750157 -432483,-6750157 -432435,-6750155 -432395,-6750152 -432344,-6750147 -432307,-6750144 -432321,-6750176 -432327,-6750193 -432340,-6750221 -432356,-6750244 -432394,-6750305 -432411,-6750339 -432423,-6750372 -432429,-6750391 -432432,-6750410 -432434,-6750424 -432435,-6750462 -432437,-6750495 -432435,-6750561 -432435,-6750583 -432437,-6750627 -432434,-6750658 -432438,-6750705 -432430,-6750732 -432409,-6750790 -432391,-6750832 -432376,-6750876 -432373,-6750888 -432371,-6750901 -432371,-6750911 -432375,-6750950 -432376,-6750957 -432380,-6750965 -432395,-6750979 -432410,-6750994 -432423,-6751010 -432435,-6751035 -432441,-6751059 -432441,-6751074 -432441,-6751096 -432437,-6751111 -432435,-6751125 -432444,-6751126 -432447,-6751125 -432453,-6751121 -432457,-6751118 -432459,-6751115 -432468,-6751094 -432470,-6751080 -432470,-6751079 -432472,-6751071 -432493,-6751021 -432502,-6750999 -432506,-6750992 -432513,-6750985 -432517,-6750995 -432528,-6751005 -432547,-6751011 -432585,-6750972 -432596,-6750965 -432610,-6750955 -432625,-6750954 -432636,-6750958 -432644,-6750968 -432635,-6750977 -432633,-6750980 -432607,-6751005 -432587,-6751039 -432573,-6751069 -432566,-6751087 -432564,-6751106 -432559,-6751118 -432557,-6751139 -432553,-6751164 -432548,-6751183 -432533,-6751215 -432508,-6751274 -432501,-6751318 -432494,-6751371 -432485,-6751386 -432477,-6751397 -432495,-6751432 -432493,-6751471 -432504,-6751522 -432507,-6751536 -432517,-6751549 -432562,-6751581 -432621,-6751621 -432659,-6751649 -432651,-6751660 -432636,-6751710 -432632,-6751726 -432628,-6751749 -432624,-6751781 -432622,-6751808 -432622,-6751831 -432624,-6751874 -432628,-6751905 -432639,-6751960 -432654,-6752028 -432670,-6752071 -432676,-6752095 -432702,-6752165 -432744,-6752266 -432756,-6752303 -432765,-6752353 -432766,-6752389 -432770,-6752431 -432782,-6752540 -432790,-6752589 -432798,-6752679 -432822,-6752856 -432825,-6752909 -432833,-6752916 -432838,-6752928 -432839,-6752943 -432836,-6752988 -432846,-6753016 -432844,-6753045 -432866,-6753085 -432889,-6753119 -432916,-6753154 -432940,-6753180 -432952,-6753194 -432994,-6753250 -433071,-6753325 -433140,-6753414 -433212,-6753442 -433228,-6753448 -433244,-6753456 -433259,-6753464 -433294,-6753487 -433341,-6753512 -433365,-6753527 -433389,-6753543 -433416,-6753567 -433462,-6753602 -433479,-6753614 -433517,-6753647 -433601,-6753712 -433610,-6753718 -433693,-6753768 -433713,-6753782 -433766,-6753830 -433857,-6753915 -433903,-6753964 -433949,-6754009 -433972,-6754030 -433986,-6754048 -434001,-6754072 -434018,-6754100 -434035,-6754134 -434068,-6754193 -434092,-6754236 -434115,-6754275 -434147,-6754328 -434208,-6754432 -434258,-6754503 -434328,-6754585 -434355,-6754622 -434374,-6754650 -434386,-6754684 -434405,-6754732 -434437,-6754763 -434457,-6754747 -434479,-6754776 -434488,-6754795 -434490,-6754804 -434493,-6754841 -434498,-6754860 -434506,-6754880 -434517,-6754900 -434522,-6754906 -434550,-6754933 -434570,-6754955 -434668,-6755024 -434685,-6755034 -434751,-6755064 -434766,-6755066 -434759,-6755108 -434760,-6755109 -434791,-6755124 -434812,-6755127 -434821,-6755128 -434844,-6755135 -434851,-6755155 -434861,-6755156 -434866,-6755158 -434871,-6755161 -434881,-6755170 -434898,-6755176 -434975,-6755224 -435016,-6755237 -435038,-6755254 -435030,-6755260 -435023,-6755270 -435028,-6755277 -435041,-6755285 -435049,-6755301 -435079,-6755331 -435092,-6755355 -435106,-6755369 -435084,-6755400 -435135,-6755436 -435155,-6755454 -435170,-6755462 -435184,-6755470 -435186,-6755468 -435197,-6755453 -435214,-6755424 -435229,-6755409 -435255,-6755377 -435280,-6755346 -435289,-6755358 -435301,-6755368 -435315,-6755386 -435328,-6755399 -435341,-6755417 -435343,-6755429 -435341,-6755448 -435344,-6755453 -435348,-6755456 -435360,-6755463 -435373,-6755475 -435400,-6755507 -435436,-6755527 -435457,-6755531 -435457,-6755549 -435461,-6755563 -435467,-6755568 -435487,-6755583 -435488,-6755612 -435483,-6755631 -435475,-6755651 -435462,-6755654 -435449,-6755665 -435445,-6755665 -435441,-6755664 -435426,-6755656 -435413,-6755660 -435405,-6755658 -435397,-6755655 -435379,-6755647 -435382,-6755664 -435388,-6755672 -435391,-6755690 -435402,-6755693 -435421,-6755694 -435463,-6755716 -435478,-6755719 -435488,-6755728 -435493,-6755742 -435498,-6755747 -435510,-6755755 -435542,-6755760 -435579,-6755762 -435589,-6755761 -435599,-6755759 -435626,-6755749 -435633,-6755756 -435642,-6755749 -435653,-6755729 -435668,-6755728 -435666,-6755762 -435660,-6755815 -435658,-6755829 -435650,-6755858 -435633,-6755909 -435623,-6755933 -435608,-6755962 -435604,-6755973 -435601,-6755983 -435608,-6755991 -435622,-6755989 -435658,-6755988 -435702,-6755991 -435736,-6755983 -435764,-6755981 -435779,-6755989 -435786,-6755994 -435790,-6756007 -435795,-6756011 -435808,-6756017 -435815,-6756019 -435821,-6756002 -435824,-6755996 -435841,-6755987 -435860,-6755983 -435882,-6755984 -435897,-6755978 -435951,-6755980 -436005,-6755996 -436028,-6755998 -436050,-6756005 -436104,-6756021 -436105,-6756040 -436104,-6756089 -436106,-6756124 -436105,-6756145 -436102,-6756189 -436099,-6756211 -436073,-6756221 -436063,-6756225 -436057,-6756238 -436041,-6756262 -436026,-6756291 -436005,-6756306 -435988,-6756304 -435972,-6756298 -435970,-6756332 -435962,-6756369 -435957,-6756415 -435935,-6756485 -435924,-6756538 -435913,-6756572 -435945,-6756589 -436032,-6756622 -436089,-6756644 -436157,-6756668 -436269,-6756712 -436447,-6756779 -436632,-6756845 -436648,-6756863 -436644,-6756918 -436641,-6756940 -436644,-6756965 -436645,-6756981 -436637,-6757002 -436630,-6757011 -436619,-6757022 -436596,-6757030 -436569,-6757034 -436549,-6757044 -436536,-6757053 -436531,-6757065 -436532,-6757086 -436538,-6757107 -436546,-6757112 -436549,-6757117 -436572,-6757130 -436578,-6757138 -436579,-6757158 -436578,-6757173 -436573,-6757181 -436564,-6757193 -436550,-6757192 -436545,-6757192 -436544,-6757191 -436526,-6757177 -436509,-6757170 -436481,-6757166 -436470,-6757171 -436453,-6757194 -436447,-6757217 -436432,-6757255 -436425,-6757270 -436409,-6757290 -436392,-6757318 -436430,-6757325 -436450,-6757338 -436458,-6757342 -436488,-6757363 -436497,-6757373 -436526,-6757402 -436610,-6757481 -436676,-6757550 -436690,-6757569 -436696,-6757577 -436706,-6757585 -436708,-6757587 -436715,-6757593 -436723,-6757598 -436746,-6757614 -436796,-6757644 -436849,-6757675 -436937,-6757726 -436993,-6757741 -437001,-6757747 -437028,-6757769 -437049,-6757788 -437095,-6757834 -437125,-6757864 -437148,-6757892 -437181,-6757939 -437204,-6757966 -437224,-6758001 -437232,-6758026 -437236,-6758073 -437256,-6758147 -437288,-6758277 -437294,-6758295 -437307,-6758338 -437325,-6758385 -437345,-6758431 -437369,-6758478 -437385,-6758507 -437406,-6758539 -437429,-6758571 -437433,-6758576 -437461,-6758602 -437498,-6758636 -437518,-6758652 -437534,-6758666 -437577,-6758693 -437600,-6758705 -437737,-6758755 -437781,-6758771 -437797,-6758777 -437827,-6758789 -437850,-6758800 -437904,-6758827 -437931,-6758836 -437981,-6758852 -438069,-6758870 -438138,-6758879 -438190,-6758885 -438209,-6758888 -438131,-6758927 -437916,-6759028 -437722,-6759121 -437587,-6759187 -437454,-6759249 -437424,-6759266 -437391,-6759281 -437390,-6759297 -437366,-6759286 -437328,-6759309 -437319,-6759316 -437311,-6759318 -437303,-6759305 -437265,-6759303 -437250,-6759309 -437203,-6759311 -437191,-6759299 -437167,-6759298 -437150,-6759287 -437130,-6759285 -437097,-6759264 -437090,-6759243 -437065,-6759239 -437032,-6759229 -437021,-6759213 -436992,-6759204 -436975,-6759184 -436959,-6759170 -436946,-6759201 -436931,-6759219 -436915,-6759234 -436896,-6759246 -436864,-6759245 -436822,-6759262 -436747,-6759263 -436728,-6759259 -436709,-6759267 -436694,-6759284 -436669,-6759300 -436640,-6759321 -436607,-6759336 -436543,-6759375 -436493,-6759412 -436472,-6759435 -436430,-6759460 -436371,-6759512 -436333,-6759542 -436285,-6759572 -436241,-6759594 -436219,-6759598 -436197,-6759598 -436157,-6759584 -436131,-6759580 -436123,-6759570 -436096,-6759556 -436082,-6759547 -436057,-6759521 -436040,-6759488 -436026,-6759465 -436002,-6759429 -435993,-6759404 -435971,-6759402 -435934,-6759385 -435900,-6759352 -435894,-6759342 -435892,-6759323 -435876,-6759311 -435836,-6759281 -435813,-6759259 -435794,-6759236 -435775,-6759222 -435756,-6759216 -435738,-6759212 -435716,-6759200 -435703,-6759202 -435649,-6759142 -435649,-6759097 -435642,-6759040 -435645,-6759004 -435633,-6758983 -435645,-6758956 -435636,-6758929 -435632,-6758874 -435623,-6758850 -435602,-6758845 -435590,-6758815 -435586,-6758789 -435580,-6758772 -435491,-6758775 -435455,-6758775 -435349,-6758767 -435323,-6758733 -435313,-6758711 -435303,-6758678 -435279,-6758683 -435229,-6758692 -435231,-6758720 -435146,-6758741 -435145,-6758705 -435064,-6758711 -435033,-6758633 -435015,-6758621 -435006,-6758609 -434962,-6758582 -434939,-6758564 -434927,-6758539 -434892,-6758499 -434891,-6758484 -434929,-6758427 -434910,-6758416 -434873,-6758444 -434860,-6758457 -434826,-6758471 -434816,-6758483 -434813,-6758498 -434797,-6758512 -434777,-6758517 -434765,-6758533 -434746,-6758547 -434722,-6758556 -434699,-6758560 -434674,-6758581 -434635,-6758627 -434606,-6758637 -434593,-6758648 -434576,-6758653 -434557,-6758669 -434534,-6758680 -434529,-6758689 -434506,-6758704 -434472,-6758739 -434444,-6758753 -434419,-6758771 -434371,-6758809 -434347,-6758817 -434302,-6758834 -434249,-6758850 -434205,-6758846 -434196,-6758855 -434191,-6758871 -434164,-6758879 -434146,-6758880 -434118,-6758871 -434099,-6758870 -434071,-6758867 -434041,-6758858 -434016,-6758847 -433989,-6758825 -433964,-6758809 -433942,-6758783 -433925,-6758760 -433914,-6758728 -433910,-6758707 -433890,-6758669 -433877,-6758661 -433876,-6758635 -433869,-6758613 -433859,-6758614 -433834,-6758589 -433813,-6758577 -433789,-6758550 -433779,-6758516 -433767,-6758491 -433736,-6758486 -433706,-6758482 -433681,-6758486 -433659,-6758482 -433637,-6758476 -433611,-6758463 -433587,-6758463 -433569,-6758459 -433539,-6758463 -433523,-6758451 -433500,-6758458 -433485,-6758455 -433433,-6758457 -433421,-6758462 -433394,-6758461 -433386,-6758445 -433357,-6758444 -433311,-6758429 -433294,-6758429 -433277,-6758435 -433262,-6758423 -433237,-6758431 -433223,-6758413 -433191,-6758405 -433174,-6758405 -433146,-6758400 -433125,-6758401 -433115,-6758410 -433099,-6758397 -433085,-6758393 -433052,-6758377 -433052,-6758335 -433026,-6758328 -433017,-6758327 -433005,-6758331 -432950,-6758349 -432866,-6758389 -432833,-6758394 -432810,-6758401 -432801,-6758403 -432763,-6758415 -432721,-6758428 -432725,-6758461 -432750,-6758530 -432747,-6758568 -432744,-6758577 -432743,-6758619 -432735,-6758693 -432735,-6758739 -432729,-6758778 -432729,-6758861 -432718,-6758894 -432703,-6758935 -432683,-6758971 -432656,-6759019 -432633,-6759085 -432625,-6759085 -432618,-6759100 -432610,-6759110 -432594,-6759111 -432579,-6759105 -432563,-6759131 -432560,-6759143 -432540,-6759160 -432531,-6759172 -432520,-6759172 -432517,-6759177 -432517,-6759187 -432518,-6759192 -432519,-6759200 -432512,-6759216 -432513,-6759226 -432523,-6759239 -432524,-6759292 -432503,-6759313 -432497,-6759325 -432493,-6759351 -432479,-6759372 -432482,-6759420 -432478,-6759445 -432464,-6759461 -432458,-6759472 -432478,-6759517 -432478,-6759532 -432463,-6759549 -432462,-6759558 -432427,-6759606 -432388,-6759689 -432389,-6759728 -432394,-6759736 -432392,-6759747 -432375,-6759762 -432375,-6759775 -432378,-6759792 -432378,-6759819 -432373,-6759829 -432374,-6759853 -432352,-6759882 -432334,-6759913 -432331,-6759929 -432332,-6760001 -432345,-6760026 -432345,-6760047 -432353,-6760063 -432350,-6760085 -432323,-6760115 -432323,-6760135 -432328,-6760152 -432315,-6760174 -432307,-6760193 -432292,-6760201 -432272,-6760226 -432270,-6760247 -432264,-6760261 -432272,-6760296 -432272,-6760305 -432254,-6760334 -432249,-6760350 -432255,-6760373 -432250,-6760390 -432259,-6760427 -432253,-6760470 -432253,-6760487 -432260,-6760509 -432218,-6760533 -432191,-6760567 -432158,-6760632 -432144,-6760662 -432139,-6760684 -432122,-6760714 -432105,-6760739 -432111,-6760772 -432113,-6760834 -432124,-6760846 -432133,-6760858 -432150,-6760864 -432164,-6760876 -432181,-6760902 -432235,-6761010 -432291,-6761123 -432291,-6761156 -432282,-6761173 -432282,-6761199 -432294,-6761205 -432303,-6761218 -432303,-6761233 -432292,-6761250 -432290,-6761264 -432302,-6761309 -432263,-6761428 -432237,-6761442 -432223,-6761454 -432222,-6761466 -432197,-6761494 -432187,-6761514 -432186,-6761549 -432201,-6761561 -432203,-6761577 -432215,-6761592 -432217,-6761601 -432211,-6761607 -432195,-6761599 -432162,-6761614 -432155,-6761622 -432151,-6761641 -432154,-6761664 -432160,-6761679 -432171,-6761681 -432185,-6761671 -432196,-6761670 -432200,-6761678 -432178,-6761700 -432168,-6761706 -432162,-6761709 -432142,-6761713 -432138,-6761750 -432143,-6761758 -432157,-6761770 -432166,-6761789 -432168,-6761812 -432162,-6761828 -432149,-6761847 -432152,-6761866 -432163,-6761879 -432193,-6761889 -432209,-6761900 -432218,-6761915 -432223,-6761936 -432244,-6761966 -432253,-6761972 -432266,-6761974 -432279,-6761967 -432279,-6761946 -432282,-6761936 -432286,-6761934 -432290,-6761933 -432295,-6761934 -432309,-6761940 -432319,-6761944 -432344,-6761960 -432406,-6761993 -432450,-6762032 -432459,-6762039 -432497,-6762049 -432545,-6762086 -432555,-6762100 -432553,-6762115 -432537,-6762127 -432508,-6762141 -432494,-6762156 -432494,-6762171 -432509,-6762194 -432530,-6762211 -432563,-6762227 -432583,-6762245 -432591,-6762267 -432591,-6762286 -432583,-6762304 -432528,-6762356 -432525,-6762367 -432532,-6762384 -432540,-6762394 -432539,-6762414 -432528,-6762450 -432532,-6762475 -432526,-6762524 -432523,-6762553 -432524,-6762581 -432530,-6762615 -432544,-6762658 -432560,-6762694 -432578,-6762727 -432584,-6762744 -432603,-6762789 -432623,-6762809 -432633,-6762813 -432667,-6762813 -432706,-6762819 -432732,-6762833 -432742,-6762837 -432758,-6762841 -432819,-6762843 -432845,-6762848 -432867,-6762858 -432877,-6762865 -432897,-6762881 -432906,-6762889 -432914,-6762898 -432922,-6762907 -432939,-6762932 -432950,-6762956 -432989,-6763026 -433011,-6763070 -433025,-6763101 -433038,-6763124 -433065,-6763147 -433090,-6763165 -433121,-6763193 -433132,-6763206 -433137,-6763216 -433150,-6763237 -433207,-6763309 -433230,-6763335 -433254,-6763379 -433267,-6763409 -433277,-6763440 -433283,-6763475 -433278,-6763502 -433255,-6763518 -433248,-6763532 -433241,-6763596 -433247,-6763610 -433264,-6763633 -433267,-6763642 -433267,-6763667 -433259,-6763682 -433248,-6763694 -433239,-6763713 -433235,-6763739 -433237,-6763849 -433250,-6763870 -433264,-6763920 -433268,-6763957 -433277,-6763994 -433293,-6764025 -433346,-6764094 -433371,-6764127 -433378,-6764132 -433391,-6764147 -433417,-6764164 -433469,-6764192 -433483,-6764201 -433499,-6764214 -433523,-6764234 -433590,-6764291 -433653,-6764334 -433696,-6764370 -433761,-6764414 -433798,-6764437 -433847,-6764469 -433893,-6764503 -433935,-6764522 -433996,-6764535 -434050,-6764557 -434077,-6764573 -434095,-6764578 -434148,-6764578 -434144,-6764649 -434132,-6764654 -434132,-6764697 -434070,-6764713 -433978,-6764758 -433945,-6764766 -433923,-6764783 -433886,-6764798 -433768,-6764816 -433707,-6764818 -433664,-6764816 -433626,-6764804 -433569,-6764787 -433437,-6764737 -433406,-6764731 -433375,-6764722 -433344,-6764715 -433312,-6764704 -433288,-6764698 -433260,-6764695 -433233,-6764697 -433217,-6764707 -433172,-6764726 -433143,-6764734 -433129,-6764736 -433096,-6764738 -433043,-6764741 -433017,-6764746 -432990,-6764758 -432962,-6764774 -432930,-6764786 -432901,-6764799 -432876,-6764808 -432865,-6764818 -432850,-6764827 -432832,-6764832 -432795,-6764824 -432758,-6764814 -432727,-6764798 -432661,-6764833 -432606,-6764875 -432581,-6764892 -432537,-6764919 -432518,-6764933 -432498,-6764951 -432451,-6765004 -432426,-6765025 -432372,-6765058 -432346,-6765071 -432243,-6765128 -432226,-6765149 -432218,-6765171 -432207,-6765191 -432185,-6765220 -432165,-6765239 -432099,-6765269 -432044,-6765297 -432018,-6765321 -431976,-6765347 -431913,-6765380 -431857,-6765411 -431825,-6765425 -431771,-6765447 -431739,-6765467 -431711,-6765488 -431677,-6765509 -431643,-6765523 -431583,-6765536 -431545,-6765538 -431516,-6765530 -431480,-6765511 -431443,-6765477 -431421,-6765453 -431403,-6765430 -431383,-6765408 -431368,-6765389 -431359,-6765381 -431343,-6765368 -431306,-6765351 -431275,-6765337 -431249,-6765320 -431220,-6765308 -431136,-6765294 -431105,-6765290 -431072,-6765281 -431042,-6765283 -431018,-6765290 -430968,-6765315 -430930,-6765339 -430905,-6765369 -430873,-6765421 -430832,-6765478 -430793,-6765521 -430760,-6765535 -430727,-6765538 -430680,-6765531 -430632,-6765521 -430623,-6765544 -430606,-6765573 -430568,-6765614 -430546,-6765640 -430529,-6765664 -430511,-6765689 -430493,-6765723 -430453,-6765759 -430437,-6765781 -430408,-6765832 -430381,-6765868 -430347,-6765892 -430300,-6765906 -430261,-6765908 -430238,-6765908 -430208,-6765896 -430132,-6765848 -430081,-6765810 -430047,-6765790" stroke="#003087" stroke-width="92" /></svg>